<?xml version="1.0" encoding="UTF-8"?><svg id="Layer_1" xmlns="http://www.w3.org/2000/svg" viewBox="0 0 354.99 95.75"><defs><style>.cls-1{fill:#00704a;}.cls-2{fill:#231f20;}</style></defs><path class="cls-1" d="m239.63,30.67c0-8.72-6.41-10.99-6.41-10.99,4.73-2.14,4.12-8.85,4.12-8.85-.02-10.79-10.24-10.83-10.24-10.83h-51.56l-10.53,16.18V.04h-15.41v26.09c0,2.29-1.49,3.17-3.18,3.17h-16.53c-2.03,0-3.18-2.12-3.18-3.17V.04h-14.67s.02,27.7.02,32.5c0,4.81,4.67,9.57,9.61,9.57h46.79l3.78-6.57h15.85v6.57h42.05c9.49,0,9.49-11.44,9.49-11.44Zm-34.94-18.16h19.02c.83,0,1.5.67,1.5,1.5s-.67,1.49-1.5,1.49h-19.02v-2.99Zm-16.59,11.45h-9.18l6.59-11.45h2.58v11.45Zm37.5,5.34h-20.9v-2.99h20.9c.83,0,1.5.67,1.5,1.5s-.67,1.5-1.5,1.5Z"/><path class="cls-2" d="m54.69,56.25h-5.7v-2.99h14.7v2.99h-5.7v15.59h-3.31v-15.59Z"/><path class="cls-2" d="m66.35,53.26h3.31v7.4h8.69v-7.4h3.31v18.58h-3.31v-8.19h-8.69v8.19h-3.31v-18.58Z"/><path class="cls-2" d="m85.14,53.26h12.31v2.99h-9v4.57h8.53v2.99h-8.53v5.04h9.48v2.99h-12.78v-18.58Z"/><path class="cls-2" d="m123.82,65.02c0,4.49-3.23,7.29-7.48,7.29s-7.48-2.81-7.48-7.29v-11.76h3.31v11.65c0,1.84,1,4.25,4.17,4.25s4.17-2.42,4.17-4.25v-11.65h3.31v11.76Z"/><path class="cls-2" d="m127.23,53.26h4.38l9,13.81h.05v-13.81h3.31v18.58h-4.2l-9.19-14.25h-.05v14.25h-3.31v-18.58Z"/><path class="cls-2" d="m147.44,53.26h3.31v18.58h-3.31v-18.58Z"/><path class="cls-2" d="m153.19,53.26h3.8l5.07,14.04,5.22-14.04h3.57l-7.51,18.58h-2.86l-7.3-18.58Z"/><path class="cls-2" d="m172.82,53.26h12.31v2.99h-9v4.57h8.53v2.99h-8.53v5.04h9.48v2.99h-12.78v-18.58Z"/><path class="cls-2" d="m188.22,53.26h6.46c3.57,0,6.93,1.15,6.93,5.33,0,2.68-1.55,4.65-4.31,5.04l4.94,8.22h-3.99l-4.3-7.87h-2.41v7.87h-3.31v-18.58Zm5.88,7.87c1.86,0,4.04-.16,4.04-2.57,0-2.21-2.05-2.47-3.75-2.47h-2.86v5.04h2.57Z"/><path class="cls-2" d="m213.72,57.25c-.71-1-1.97-1.47-3.25-1.47-1.52,0-3.05.68-3.05,2.39,0,3.73,8.82,1.6,8.82,8.22,0,3.99-3.15,5.93-6.8,5.93-2.31,0-4.57-.71-6.09-2.52l2.49-2.41c.81,1.23,2.21,1.94,3.68,1.94s3.25-.84,3.25-2.55c0-4.07-8.82-1.73-8.82-8.37,0-3.83,3.41-5.62,6.85-5.62,1.94,0,3.89.55,5.33,1.91l-2.41,2.55Z"/><path class="cls-2" d="m218.84,53.26h3.31v18.58h-3.31v-18.58Z"/><path class="cls-2" d="m230.41,56.25h-5.7v-2.99h14.7v2.99h-5.7v15.59h-3.31v-15.59Z"/><path class="cls-2" d="m247.3,63.89l-6.98-10.63h4.15l4.57,7.4,4.62-7.4h3.94l-6.98,10.63v7.95h-3.31v-7.95Z"/><path class="cls-2" d="m275.88,52.79c5.8-.1,9.9,3.78,9.9,9.74s-4.09,9.69-9.9,9.79c-5.72,0-9.82-3.88-9.82-9.68s4.09-9.84,9.82-9.84Zm.03,16.53c3.86,0,6.4-2.94,6.4-6.9,0-3.7-2.55-6.64-6.4-6.64s-6.38,2.94-6.38,6.64c0,3.96,2.55,6.9,6.38,6.9Z"/><path class="cls-2" d="m288.81,53.26h12v2.99h-8.69v4.88h8.19v2.99h-8.19v7.72h-3.31v-18.58Z"/><path class="cls-2" d="m8.08,76.69h2.86l8.01,18.58h-3.78l-1.73-4.25H5.38l-1.68,4.25H0l8.08-18.58Zm4.2,11.5l-2.86-7.56-2.91,7.56h5.77Z"/><path class="cls-2" d="m20.96,76.69h3.31v15.59h7.9v2.99h-11.21v-18.58Z"/><path class="cls-2" d="m41.41,76.69h2.86l8.01,18.58h-3.78l-1.73-4.25h-8.06l-1.68,4.25h-3.7l8.08-18.58Zm4.2,11.5l-2.86-7.56-2.91,7.56h5.78Z"/><path class="cls-2" d="m54.28,76.69h7.24c2.81,0,5.7,1.29,5.7,4.67,0,2.1-1.31,3.49-3.23,4.07v.05c2.34.26,4.01,2.1,4.01,4.49,0,4.04-3.52,5.3-7.03,5.3h-6.69v-18.58Zm3.31,7.56h3.02c2.2,0,3.31-.94,3.31-2.34,0-1.6-1.1-2.39-3.6-2.39h-2.73v4.72Zm0,8.19h3.04c1.71,0,4.07-.29,4.07-2.73,0-1.94-1.26-2.62-3.94-2.62h-3.18v5.35Z"/><path class="cls-2" d="m76.38,76.69h2.86l8,18.58h-3.78l-1.73-4.25h-8.06l-1.68,4.25h-3.7l8.08-18.58Zm4.2,11.5l-2.86-7.56-2.91,7.56h5.77Z"/><path class="cls-2" d="m89.3,76.69h5.04l4.96,13.02,5.01-13.02h4.99v18.58h-3.15v-15.43h-.05l-5.64,15.43h-2.31l-5.64-15.43h-.05v15.43h-3.15v-18.58Z"/><path class="cls-2" d="m119.44,76.69h2.86l8.01,18.58h-3.78l-1.73-4.25h-8.06l-1.68,4.25h-3.7l8.08-18.58Zm4.2,11.5l-2.86-7.56-2.91,7.56h5.78Z"/><path class="cls-2" d="m146.15,76.69h2.86l8.01,18.58h-3.78l-1.73-4.25h-8.06l-1.68,4.25h-3.7l8.08-18.58Zm4.2,11.5l-2.86-7.56-2.91,7.56h5.77Z"/><path class="cls-2" d="m160.93,79.68h-5.7v-2.99h14.7v2.99h-5.7v15.59h-3.31v-15.59Z"/><path class="cls-2" d="m179.95,76.69h7.25c2.81,0,5.7,1.29,5.7,4.67,0,2.1-1.31,3.49-3.23,4.07v.05c2.34.26,4.02,2.1,4.02,4.49,0,4.04-3.52,5.3-7.03,5.3h-6.69v-18.58Zm3.31,7.56h3.02c2.2,0,3.31-.94,3.31-2.34,0-1.6-1.1-2.39-3.59-2.39h-2.73v4.72Zm0,8.19h3.05c1.71,0,4.07-.29,4.07-2.73,0-1.94-1.26-2.62-3.94-2.62h-3.18v5.35Z"/><path class="cls-2" d="m196.25,76.69h3.31v18.58h-3.31v-18.58Z"/><path class="cls-2" d="m203.47,76.69h6.46c3.57,0,6.93,1.16,6.93,5.33,0,2.68-1.55,4.65-4.3,5.04l4.93,8.21h-3.99l-4.3-7.87h-2.41v7.87h-3.31v-18.58Zm5.88,7.88c1.86,0,4.04-.16,4.04-2.57,0-2.21-2.05-2.47-3.75-2.47h-2.86v5.04h2.57Z"/><path class="cls-2" d="m219.95,76.69h5.04l4.96,13.02,5.01-13.02h4.99v18.58h-3.15v-15.43h-.05l-5.64,15.43h-2.31l-5.64-15.43h-.05v15.43h-3.15v-18.58Z"/><path class="cls-2" d="m243.46,76.69h3.31v18.58h-3.31v-18.58Z"/><path class="cls-2" d="m250.68,76.69h4.38l9,13.81h.05v-13.81h3.31v18.58h-4.2l-9.19-14.25h-.05v14.25h-3.31v-18.58Z"/><path class="cls-2" d="m287.96,93.91c-2.26,1.21-4.83,1.84-7.69,1.84-5.72,0-9.82-3.88-9.82-9.68s4.09-9.84,9.82-9.84c2.83,0,5.38.61,7.32,2.34l-2.44,2.47c-1.18-1.16-2.99-1.81-4.86-1.81-3.83,0-6.38,2.94-6.38,6.64,0,3.96,2.55,6.9,6.38,6.9,1.68,0,3.2-.31,4.36-.97v-4.38h-3.81v-2.99h7.11v9.5Z"/><path class="cls-2" d="m291.22,76.69h3.31v7.4h8.69v-7.4h3.31v18.58h-3.31v-8.19h-8.69v8.19h-3.31v-18.58Z"/><path class="cls-2" d="m316.6,76.69h2.86l8.01,18.58h-3.78l-1.73-4.25h-8.06l-1.68,4.25h-3.7l8.08-18.58Zm4.2,11.5l-2.86-7.56-2.92,7.56h5.77Z"/><path class="cls-2" d="m329.52,76.69h5.04l4.96,13.02,5.01-13.02h4.99v18.58h-3.15v-15.43h-.05l-5.64,15.43h-2.31l-5.64-15.43h-.05v15.43h-3.15v-18.58Z"/><path class="cls-2" d="m353.59,92.41c.77,0,1.4.63,1.4,1.4s-.63,1.4-1.4,1.4-1.4-.63-1.4-1.4.63-1.4,1.4-1.4Zm0,2.59c.66,0,1.19-.53,1.19-1.19s-.53-1.19-1.19-1.19-1.19.53-1.19,1.19.53,1.19,1.19,1.19Zm-.3-.39h-.2v-1.61h.62c.36,0,.51.16.51.45s-.19.42-.41.46l.48.71h-.23l-.48-.71h-.29v.71Zm0-.89h.26c.22,0,.46-.01.46-.28,0-.21-.19-.27-.36-.27h-.36v.54Z"/></svg>