<?xml version="1.0" encoding="utf-8"?>
<!-- Generator: Adobe Illustrator 21.1.0, SVG Export Plug-In . SVG Version: 6.00 Build 0)  -->
<!DOCTYPE svg PUBLIC "-//W3C//DTD SVG 1.1//EN" "http://www.w3.org/Graphics/SVG/1.1/DTD/svg11.dtd">
<svg version="1.1" id="Layer_1" xmlns="http://www.w3.org/2000/svg" xmlns:xlink="http://www.w3.org/1999/xlink" x="0px" y="0px"
	 width="306.92px" height="64.75px" viewBox="0 0 306.92 64.75" style="enable-background:new 0 0 306.92 64.75;"
	 xml:space="preserve">
<style type="text/css">
	.st0{fill:#cb333b;}.black{fill:#000000;}
</style>
<path class="st0" d="M34.33,4.35c-16.04,0-29.04,13-29.04,29.04c0,16.04,13,29.04,29.04,29.04c16.04,0,29.04-13,29.04-29.04
	C63.38,17.35,50.37,4.35,34.33,4.35z M53.16,34.53c-6-3.95-12.25-3.13-15.89-2.09v0.31c3.55-0.62,9.62-0.45,15.25,5.62
	c-0.38,1.4-0.93,2.73-1.6,3.98c-3.86-6.13-9.98-7.97-13.65-8.51v0.27c3.46,0.92,8.89,3.65,11.47,11.45
	c-0.92,1.09-1.96,2.08-3.09,2.94l-9.97-14.07l1.1,17.68c-1.02,0.13-2.06,0.2-3.13,0.16c-0.81-0.03-1.61-0.12-2.39-0.25l1.2-17.59
	h-0.11c-2.89,1.61-8.66,5.79-9.96,13.59c-1.11-0.9-2.12-1.92-3-3.05c2.75-7.6,8.19-10.1,11.6-10.93v-0.26
	c-3.6,0.45-9.61,2.13-13.62,7.96c-0.63-1.28-1.09-2.65-1.42-4.07c5.65-5.63,11.57-5.65,15.04-4.97v-0.36
	c-3.53-1.07-9.59-1.93-15.5,1.61c-0.01-0.39-0.03-0.77-0.01-1.17c0.03-1.07,0.17-2.12,0.38-3.14c8.06-2.92,13.75,0.14,16.45,2.26
	h0.29c-2.49-2.45-7.99-6.65-15.66-5.8c0.56-1.34,1.26-2.61,2.11-3.78c9.3,0.72,13.11,6.63,14.43,9.58h0.14
	c-1.08-3.14-4.25-9.86-12-12.43c1.04-0.94,2.18-1.76,3.41-2.45c7.68,4.96,8.94,11.78,9.08,14.88h0.05
	c0.26-3.13,1.78-9.86,9.52-14.81c1.25,0.72,2.4,1.58,3.46,2.56c-7.92,2.29-11.29,9.04-12.47,12.24h0.15c1.43-3,5.45-8.87,14.91-9.28
	c0.84,1.19,1.56,2.47,2.11,3.84c-7.75-1.2-13.45,2.96-16.07,5.45h0.31c2.85-2.12,8.72-5.04,16.84-1.71
	c0.23,1.27,0.33,2.58,0.29,3.92C53.19,34.25,53.17,34.39,53.16,34.53z"/>
<rect x="72.75" y="45.18" class="black" width="231.33" height="0.29"/>
<path class="black" d="M76.88,50.2h1.15l4.01,9.37h-1.48l-0.94-2.31h-4.46l-0.92,2.31h-1.48L76.88,50.2z M79.15,56.14l-1.75-4.3h-0.03
	l-1.77,4.3H79.15z"/>
<polygon class="black" points="86.68,50.2 89.8,50.2 91.95,56.31 91.98,56.31 94.15,50.2 97.26,50.2 97.26,59.56 95.19,59.56 
	95.19,52.38 95.17,52.38 92.71,59.56 91.13,59.56 88.76,52.38 88.74,52.38 88.74,59.56 86.68,59.56 "/>
<path class="black" d="M102.04,50.2h1.71l4.07,9.36h-2.33l-0.81-1.98h-3.64l-0.78,1.98H98L102.04,50.2z M102.84,52.93l-1.14,2.91h2.29
	L102.84,52.93z"/>
<path class="black" d="M108.47,50.2h3.62c0.48,0,0.93,0.05,1.36,0.14c0.43,0.09,0.8,0.25,1.12,0.46c0.32,0.21,0.58,0.51,0.77,0.87
	c0.19,0.37,0.29,0.82,0.29,1.37c0,0.66-0.17,1.22-0.52,1.69c-0.34,0.46-0.85,0.75-1.51,0.88l2.38,3.96h-2.47l-1.96-3.74h-1.02v3.74
	h-2.06V50.2z M110.53,54.08h1.22c0.18,0,0.38-0.01,0.59-0.02c0.21-0.01,0.39-0.05,0.56-0.12c0.17-0.07,0.31-0.17,0.42-0.31
	c0.11-0.14,0.17-0.34,0.17-0.6c0-0.24-0.05-0.43-0.15-0.57c-0.1-0.14-0.22-0.25-0.37-0.32c-0.15-0.08-0.32-0.12-0.51-0.15
	c-0.2-0.03-0.38-0.04-0.57-0.04h-1.35V54.08z"/>
<rect x="117.08" y="50.2" class="black" width="2.06" height="9.36"/>
<path class="black" d="M127.08,52.63c-0.2-0.25-0.45-0.44-0.75-0.57c-0.3-0.13-0.64-0.2-1.03-0.2c-0.39,0-0.75,0.08-1.08,0.22
	c-0.33,0.15-0.62,0.36-0.86,0.63c-0.24,0.27-0.43,0.59-0.57,0.96c-0.14,0.37-0.2,0.77-0.2,1.2c0,0.44,0.07,0.84,0.2,1.21
	s0.32,0.68,0.56,0.95c0.24,0.27,0.52,0.48,0.84,0.63c0.32,0.15,0.67,0.23,1.04,0.23c0.42,0,0.8-0.09,1.12-0.27
	c0.33-0.18,0.6-0.42,0.81-0.74l1.72,1.28c-0.4,0.55-0.9,0.97-1.51,1.23c-0.61,0.27-1.24,0.4-1.88,0.4c-0.73,0-1.41-0.11-2.02-0.34
	c-0.62-0.23-1.15-0.56-1.6-0.99c-0.45-0.43-0.8-0.95-1.05-1.55c-0.25-0.61-0.38-1.29-0.38-2.04c0-0.75,0.12-1.43,0.38-2.04
	c0.25-0.61,0.6-1.13,1.05-1.55c0.45-0.43,0.98-0.76,1.6-0.99c0.62-0.23,1.29-0.34,2.02-0.34c0.27,0,0.54,0.02,0.83,0.07
	c0.29,0.05,0.57,0.13,0.85,0.23c0.28,0.11,0.54,0.25,0.8,0.42c0.26,0.18,0.49,0.39,0.69,0.65L127.08,52.63z"/>
<path class="black" d="M129.38,54.88c0-0.75,0.12-1.43,0.38-2.04c0.25-0.61,0.6-1.12,1.05-1.55c0.45-0.43,0.98-0.75,1.6-0.98
	c0.62-0.23,1.29-0.34,2.02-0.34c0.73,0,1.41,0.11,2.03,0.34c0.62,0.23,1.15,0.56,1.6,0.98c0.45,0.43,0.8,0.95,1.05,1.55
	c0.25,0.61,0.38,1.29,0.38,2.04c0,0.75-0.12,1.43-0.38,2.04c-0.25,0.61-0.6,1.13-1.05,1.55c-0.45,0.43-0.98,0.75-1.6,0.98
	c-0.62,0.23-1.29,0.34-2.03,0.34c-0.73,0-1.41-0.11-2.02-0.34c-0.62-0.23-1.15-0.56-1.6-0.98c-0.45-0.43-0.8-0.95-1.05-1.55
	C129.51,56.31,129.38,55.63,129.38,54.88 M131.52,54.88c0,0.44,0.07,0.85,0.21,1.21c0.13,0.37,0.33,0.68,0.59,0.95
	c0.26,0.27,0.56,0.48,0.92,0.63c0.36,0.15,0.76,0.23,1.2,0.23c0.44,0,0.84-0.08,1.2-0.23c0.36-0.15,0.66-0.36,0.92-0.63
	c0.26-0.27,0.45-0.59,0.59-0.95c0.13-0.36,0.2-0.77,0.2-1.21c0-0.43-0.07-0.83-0.2-1.2c-0.14-0.37-0.33-0.69-0.59-0.96
	c-0.26-0.27-0.56-0.48-0.92-0.63c-0.36-0.15-0.76-0.23-1.2-0.23c-0.44,0-0.84,0.08-1.2,0.23c-0.36,0.15-0.66,0.36-0.92,0.63
	c-0.26,0.27-0.45,0.59-0.59,0.96C131.59,54.05,131.52,54.45,131.52,54.88"/>
<path class="black" d="M140.73,50.2h3.48c0.48,0,0.94,0.05,1.37,0.13c0.43,0.09,0.81,0.24,1.13,0.46c0.32,0.22,0.58,0.51,0.77,0.88
	c0.19,0.36,0.29,0.83,0.29,1.38c0,0.55-0.09,1-0.26,1.37c-0.18,0.37-0.42,0.67-0.73,0.89c-0.31,0.22-0.67,0.38-1.1,0.47
	c-0.42,0.09-0.88,0.14-1.38,0.14h-1.51v3.65h-2.06V50.2z M142.79,54.17h1.38c0.18,0,0.36-0.02,0.53-0.05
	c0.17-0.03,0.33-0.09,0.46-0.18c0.14-0.09,0.25-0.2,0.33-0.34c0.08-0.15,0.12-0.33,0.12-0.55c0-0.24-0.06-0.43-0.16-0.58
	c-0.11-0.14-0.25-0.26-0.42-0.34c-0.17-0.08-0.36-0.13-0.58-0.15c-0.21-0.02-0.41-0.03-0.61-0.03h-1.06V54.17z"/>
<path class="black" d="M151.08,50.2h1.71l4.07,9.36h-2.33l-0.81-1.98h-3.64l-0.78,1.98h-2.27L151.08,50.2z M151.88,52.93l-1.14,2.91
	h2.29L151.88,52.93z"/>
<path class="black" d="M168.25,52.22c-0.27-0.34-0.6-0.61-1-0.79c-0.41-0.18-0.83-0.28-1.26-0.28c-0.53,0-1.01,0.1-1.44,0.3
	c-0.43,0.2-0.79,0.47-1.1,0.81c-0.3,0.34-0.54,0.75-0.71,1.21c-0.17,0.46-0.25,0.96-0.25,1.49c0,0.49,0.08,0.96,0.24,1.4
	c0.16,0.44,0.39,0.83,0.69,1.16c0.3,0.33,0.67,0.6,1.1,0.79c0.43,0.19,0.92,0.29,1.47,0.29c0.54,0,1.01-0.11,1.42-0.33
	c0.4-0.22,0.75-0.53,1.03-0.93l1.07,0.81c-0.07,0.1-0.19,0.24-0.37,0.42c-0.18,0.18-0.41,0.36-0.7,0.54
	c-0.29,0.18-0.64,0.34-1.05,0.48c-0.41,0.14-0.89,0.2-1.42,0.2c-0.74,0-1.41-0.14-2.01-0.42c-0.59-0.28-1.1-0.65-1.52-1.11
	c-0.42-0.46-0.74-0.98-0.96-1.55c-0.22-0.58-0.33-1.16-0.33-1.75c0-0.72,0.12-1.39,0.36-2c0.24-0.61,0.57-1.14,1-1.59
	c0.43-0.44,0.94-0.79,1.54-1.04c0.6-0.25,1.26-0.37,1.98-0.37c0.62,0,1.22,0.12,1.82,0.36c0.6,0.24,1.08,0.6,1.46,1.1L168.25,52.22z
	"/>
<path class="black" d="M175.14,59.8c-0.71,0-1.37-0.12-1.97-0.38c-0.6-0.25-1.11-0.6-1.54-1.04c-0.43-0.44-0.76-0.96-1.01-1.56
	c-0.24-0.6-0.36-1.25-0.36-1.95c0-0.7,0.12-1.34,0.36-1.94c0.24-0.6,0.58-1.12,1.01-1.56c0.43-0.44,0.94-0.79,1.54-1.04
	c0.6-0.25,1.26-0.38,1.97-0.38c0.71,0,1.37,0.12,1.97,0.38c0.6,0.25,1.11,0.6,1.54,1.04c0.43,0.44,0.76,0.96,1.01,1.56
	c0.24,0.6,0.36,1.25,0.36,1.94c0,0.7-0.12,1.35-0.36,1.95c-0.24,0.6-0.58,1.12-1.01,1.56c-0.43,0.44-0.94,0.79-1.54,1.04
	C176.51,59.68,175.86,59.8,175.14,59.8 M175.14,58.61c0.54,0,1.02-0.1,1.46-0.3c0.43-0.2,0.8-0.47,1.11-0.8
	c0.31-0.33,0.55-0.73,0.71-1.18c0.17-0.45,0.25-0.94,0.25-1.45c0-0.51-0.09-0.99-0.25-1.45c-0.17-0.45-0.41-0.85-0.71-1.18
	c-0.31-0.34-0.68-0.6-1.11-0.8c-0.43-0.2-0.92-0.3-1.46-0.3c-0.54,0-1.02,0.1-1.45,0.3c-0.43,0.2-0.8,0.47-1.11,0.8
	c-0.31,0.33-0.55,0.73-0.71,1.18c-0.17,0.46-0.25,0.94-0.25,1.45c0,0.51,0.08,1,0.25,1.45c0.17,0.45,0.4,0.85,0.71,1.18
	c0.31,0.33,0.68,0.6,1.11,0.8C174.12,58.51,174.6,58.61,175.14,58.61"/>
<polygon class="black" points="181.42,50.2 183.31,50.2 186.29,57.29 186.34,57.29 189.29,50.2 191.18,50.2 191.18,59.56 
	189.91,59.56 189.91,51.87 189.89,51.87 186.73,59.56 185.88,59.56 182.72,51.87 182.69,51.87 182.69,59.56 181.42,59.56 "/>
<polygon class="black" points="193.21,50.2 195.1,50.2 198.07,57.29 198.13,57.29 201.08,50.2 202.97,50.2 202.97,59.56 201.7,59.56 
	201.7,51.87 201.67,51.87 198.51,59.56 197.66,59.56 194.5,51.87 194.48,51.87 194.48,59.56 193.21,59.56 "/>
<path class="black" d="M205.92,50.2v5.74c0,0.29,0.04,0.59,0.12,0.91c0.08,0.31,0.21,0.6,0.4,0.87c0.18,0.27,0.43,0.48,0.73,0.65
	c0.3,0.17,0.67,0.25,1.11,0.25c0.44,0,0.81-0.08,1.11-0.25c0.3-0.17,0.54-0.38,0.73-0.65c0.19-0.26,0.32-0.55,0.4-0.87
	c0.08-0.31,0.12-0.62,0.12-0.91V50.2h1.27v5.94c0,0.55-0.09,1.04-0.28,1.49c-0.19,0.45-0.44,0.83-0.77,1.16
	c-0.33,0.33-0.71,0.58-1.15,0.75c-0.44,0.18-0.92,0.26-1.43,0.26c-0.51,0-0.99-0.09-1.43-0.26c-0.44-0.18-0.83-0.43-1.15-0.75
	c-0.32-0.33-0.58-0.71-0.77-1.16c-0.18-0.45-0.28-0.94-0.28-1.49V50.2H205.92z"/>
<polygon class="black" points="213.6,50.2 215.27,50.2 220.43,57.9 220.45,57.9 220.45,50.2 221.72,50.2 221.72,59.56 220.11,59.56 
	214.9,51.87 214.87,51.87 214.87,59.56 213.6,59.56 "/>
<rect x="223.73" y="50.2" class="black" width="1.27" height="9.36"/>
<polygon class="black" points="229.3,51.39 226.28,51.39 226.28,50.2 233.58,50.2 233.58,51.39 230.57,51.39 230.57,59.57 
	229.3,59.57 "/>
<polygon class="black" points="237.47,55.57 233.93,50.2 235.56,50.2 238.11,54.32 240.74,50.2 242.29,50.2 238.74,55.57 
	238.74,59.56 237.47,59.56 "/>
<path class="black" d="M253.56,52.22c-0.27-0.34-0.6-0.61-1.01-0.79c-0.41-0.18-0.82-0.28-1.26-0.28c-0.53,0-1.01,0.1-1.43,0.3
	c-0.43,0.2-0.79,0.47-1.1,0.81c-0.3,0.34-0.54,0.75-0.71,1.21c-0.17,0.46-0.25,0.96-0.25,1.49c0,0.49,0.08,0.96,0.24,1.4
	c0.16,0.44,0.39,0.83,0.69,1.16c0.3,0.33,0.67,0.6,1.1,0.79c0.43,0.19,0.92,0.29,1.47,0.29c0.54,0,1.01-0.11,1.42-0.33
	c0.41-0.22,0.75-0.53,1.03-0.93l1.07,0.81c-0.07,0.1-0.19,0.24-0.37,0.42c-0.18,0.18-0.41,0.36-0.7,0.54
	c-0.29,0.18-0.64,0.34-1.05,0.48c-0.41,0.14-0.89,0.2-1.42,0.2c-0.74,0-1.41-0.14-2-0.42c-0.59-0.28-1.1-0.65-1.52-1.11
	c-0.42-0.46-0.74-0.98-0.96-1.55c-0.22-0.58-0.33-1.16-0.33-1.75c0-0.72,0.12-1.39,0.36-2c0.24-0.61,0.57-1.14,1-1.59
	c0.43-0.44,0.94-0.79,1.54-1.04c0.6-0.25,1.26-0.37,1.98-0.37c0.62,0,1.23,0.12,1.82,0.36c0.59,0.24,1.08,0.6,1.46,1.1L253.56,52.22
	z"/>
<path class="black" d="M260.31,59.8c-0.71,0-1.37-0.12-1.97-0.38c-0.6-0.25-1.11-0.6-1.54-1.04c-0.43-0.44-0.76-0.96-1.01-1.56
	c-0.24-0.6-0.36-1.25-0.36-1.95c0-0.7,0.12-1.34,0.36-1.94c0.24-0.6,0.58-1.12,1.01-1.56c0.43-0.44,0.94-0.79,1.54-1.04
	c0.6-0.25,1.26-0.38,1.97-0.38c0.71,0,1.37,0.12,1.97,0.38c0.6,0.25,1.11,0.6,1.54,1.04c0.43,0.44,0.76,0.96,1.01,1.56
	c0.24,0.6,0.36,1.25,0.36,1.94c0,0.7-0.12,1.35-0.36,1.95c-0.24,0.6-0.58,1.12-1.01,1.56c-0.43,0.44-0.94,0.79-1.54,1.04
	C261.69,59.68,261.03,59.8,260.31,59.8 M260.31,58.61c0.54,0,1.02-0.1,1.46-0.3c0.43-0.2,0.8-0.47,1.11-0.8
	c0.31-0.33,0.55-0.73,0.71-1.18c0.17-0.45,0.25-0.94,0.25-1.45c0-0.51-0.09-0.99-0.25-1.45c-0.17-0.45-0.41-0.85-0.71-1.18
	c-0.31-0.34-0.68-0.6-1.11-0.8c-0.43-0.2-0.92-0.3-1.46-0.3c-0.54,0-1.02,0.1-1.45,0.3c-0.43,0.2-0.8,0.47-1.11,0.8
	c-0.31,0.33-0.55,0.73-0.71,1.18c-0.17,0.46-0.25,0.94-0.25,1.45c0,0.51,0.08,1,0.25,1.45c0.17,0.45,0.4,0.85,0.71,1.18
	c0.31,0.33,0.68,0.6,1.11,0.8C259.29,58.51,259.78,58.61,260.31,58.61"/>
<polygon class="black" points="266.69,50.2 267.96,50.2 267.96,58.37 272.26,58.37 272.26,59.56 266.69,59.56 "/>
<polygon class="black" points="273.55,50.2 274.82,50.2 274.82,58.37 279.12,58.37 279.12,59.56 273.55,59.56 "/>
<polygon class="black" points="280.35,50.2 286.4,50.2 286.4,51.39 281.62,51.39 281.62,54.18 286.06,54.18 286.06,55.37 
	281.62,55.37 281.62,58.37 286.63,58.37 286.63,59.56 280.35,59.56 "/>
<path class="black" d="M296.08,54.33v4.62c-0.23,0.14-0.49,0.27-0.78,0.37c-0.29,0.1-0.59,0.2-0.91,0.27
	c-0.31,0.07-0.63,0.13-0.95,0.16c-0.32,0.04-0.62,0.05-0.9,0.05c-0.79,0-1.5-0.13-2.12-0.4c-0.62-0.26-1.15-0.62-1.57-1.07
	c-0.43-0.45-0.75-0.97-0.98-1.57c-0.23-0.59-0.34-1.22-0.34-1.88c0-0.7,0.12-1.34,0.36-1.94c0.24-0.6,0.58-1.12,1.01-1.56
	c0.43-0.44,0.94-0.79,1.54-1.04c0.6-0.25,1.26-0.38,1.97-0.38c0.86,0,1.57,0.11,2.11,0.32c0.55,0.21,1.01,0.51,1.38,0.89l-0.9,0.96
	c-0.39-0.37-0.8-0.63-1.23-0.77c-0.43-0.14-0.89-0.22-1.36-0.22c-0.54,0-1.02,0.1-1.46,0.3c-0.43,0.2-0.8,0.47-1.11,0.8
	c-0.31,0.33-0.55,0.73-0.71,1.18c-0.17,0.46-0.25,0.94-0.25,1.45c0,0.53,0.09,1.02,0.28,1.47c0.18,0.46,0.44,0.85,0.77,1.18
	c0.33,0.33,0.71,0.6,1.15,0.79c0.44,0.19,0.92,0.28,1.44,0.28c0.45,0,0.87-0.04,1.28-0.12s0.74-0.2,1.03-0.36v-2.61h-2.08v-1.19
	H296.08z"/>
<polygon class="black" points="297.73,50.2 303.77,50.2 303.77,51.39 299,51.39 299,54.18 303.44,54.18 303.44,55.37 299,55.37 
	299,58.37 304.01,58.37 304.01,59.56 297.73,59.56 "/>
<path class="st0" d="M81.21,27.13c-0.26-0.31-0.57-0.55-0.94-0.72c-0.37-0.17-0.8-0.25-1.29-0.25c-0.49,0-0.94,0.09-1.36,0.28
	c-0.42,0.19-0.78,0.45-1.08,0.79c-0.31,0.34-0.54,0.74-0.72,1.21c-0.17,0.47-0.26,0.97-0.26,1.52c0,0.56,0.09,1.06,0.26,1.52
	c0.17,0.46,0.41,0.86,0.71,1.2c0.3,0.34,0.65,0.6,1.06,0.79c0.41,0.19,0.84,0.28,1.31,0.28c0.53,0,1.01-0.11,1.42-0.33
	c0.41-0.22,0.75-0.53,1.02-0.93l2.17,1.62c-0.5,0.7-1.13,1.22-1.9,1.55c-0.77,0.33-1.56,0.5-2.37,0.5c-0.92,0-1.77-0.14-2.55-0.43
	c-0.78-0.29-1.45-0.7-2.02-1.24c-0.57-0.54-1.01-1.19-1.32-1.96c-0.32-0.77-0.48-1.62-0.48-2.57c0-0.94,0.16-1.8,0.48-2.57
	c0.32-0.77,0.76-1.42,1.32-1.96c0.57-0.54,1.24-0.95,2.02-1.24c0.78-0.29,1.63-0.43,2.55-0.43c0.33,0,0.68,0.03,1.04,0.09
	c0.36,0.06,0.71,0.16,1.07,0.29c0.35,0.13,0.69,0.31,1.01,0.53c0.32,0.22,0.61,0.49,0.87,0.82L81.21,27.13z"/>
<path class="st0" d="M84.11,29.96c0-0.94,0.16-1.8,0.48-2.57c0.31-0.77,0.76-1.42,1.32-1.96c0.57-0.54,1.24-0.95,2.02-1.24
	c0.78-0.29,1.63-0.44,2.55-0.44c0.92,0,1.77,0.15,2.55,0.44c0.78,0.29,1.45,0.7,2.02,1.24c0.57,0.54,1.01,1.19,1.33,1.96
	c0.32,0.77,0.48,1.62,0.48,2.57c0,0.94-0.16,1.8-0.48,2.57c-0.32,0.77-0.76,1.42-1.33,1.96c-0.57,0.54-1.24,0.95-2.02,1.24
	c-0.78,0.29-1.63,0.43-2.55,0.43c-0.92,0-1.77-0.14-2.55-0.43c-0.78-0.29-1.45-0.7-2.02-1.24c-0.57-0.54-1.01-1.19-1.32-1.96
	C84.27,31.76,84.11,30.91,84.11,29.96 M86.81,29.96c0,0.56,0.09,1.06,0.26,1.52c0.17,0.46,0.42,0.86,0.74,1.2
	c0.32,0.34,0.71,0.6,1.16,0.79c0.45,0.19,0.95,0.28,1.51,0.28s1.06-0.09,1.51-0.28c0.45-0.19,0.84-0.45,1.16-0.79
	c0.32-0.34,0.57-0.74,0.74-1.2c0.17-0.46,0.26-0.97,0.26-1.52c0-0.54-0.09-1.05-0.26-1.52c-0.17-0.47-0.42-0.87-0.74-1.21
	c-0.32-0.34-0.71-0.6-1.16-0.79c-0.45-0.19-0.95-0.28-1.51-0.28s-1.06,0.09-1.51,0.28c-0.45,0.19-0.84,0.45-1.16,0.79
	c-0.32,0.34-0.57,0.74-0.74,1.21C86.9,28.91,86.81,29.42,86.81,29.96"/>
<polygon class="st0" points="98.44,24.06 102.38,24.06 105.09,31.76 105.13,31.76 107.86,24.06 111.77,24.06 111.77,35.86 
	109.18,35.86 109.18,26.81 109.14,26.81 106.04,35.86 104.06,35.86 101.08,26.81 101.04,26.81 101.04,35.86 98.44,35.86 "/>
<polygon class="st0" points="113.93,24.06 117.86,24.06 120.58,31.76 120.61,31.76 123.34,24.06 127.26,24.06 127.26,35.86 
	124.66,35.86 124.66,26.81 124.63,26.81 121.52,35.86 119.54,35.86 116.56,26.81 116.53,26.81 116.53,35.86 113.93,35.86 "/>
<path class="st0" d="M139.19,31.31c0,0.7-0.1,1.34-0.32,1.93c-0.21,0.59-0.52,1.1-0.94,1.53c-0.42,0.44-0.94,0.77-1.56,1.02
	c-0.62,0.25-1.34,0.37-2.15,0.37c-0.82,0-1.54-0.12-2.17-0.37c-0.62-0.24-1.14-0.58-1.56-1.02c-0.42-0.43-0.73-0.94-0.94-1.53
	c-0.21-0.59-0.32-1.23-0.32-1.93v-7.25h2.6v7.15c0,0.37,0.06,0.71,0.17,1.02c0.12,0.31,0.28,0.58,0.49,0.81
	c0.21,0.23,0.47,0.41,0.76,0.53c0.29,0.13,0.61,0.19,0.96,0.19c0.34,0,0.66-0.06,0.95-0.19c0.29-0.13,0.54-0.31,0.75-0.53
	c0.21-0.23,0.37-0.5,0.49-0.81c0.11-0.31,0.17-0.65,0.17-1.02v-7.15h2.6V31.31z"/>
<polygon class="st0" points="141.18,24.06 144.71,24.06 149.73,32.26 149.76,32.26 149.76,24.06 152.36,24.06 152.36,35.86 
	148.96,35.86 143.81,27.46 143.78,27.46 143.78,35.86 141.18,35.86 "/>
<rect x="154.56" y="24.06" class="st0" width="2.6" height="11.8"/>
<polygon class="st0" points="161.98,26.36 158.61,26.36 158.61,24.06 167.94,24.06 167.94,26.36 164.58,26.36 164.58,35.86 
	161.98,35.86 "/>
<polygon class="st0" points="172.89,30.83 168.46,24.06 171.69,24.06 174.19,28.48 176.84,24.06 179.92,24.06 175.49,30.83 
	175.49,35.86 172.89,35.86 "/>
<path class="st0" d="M193.44,27.13c-0.26-0.31-0.57-0.55-0.94-0.72c-0.37-0.17-0.8-0.25-1.29-0.25c-0.49,0-0.94,0.09-1.36,0.28
	c-0.42,0.19-0.78,0.45-1.08,0.79c-0.3,0.34-0.54,0.74-0.72,1.21c-0.17,0.47-0.26,0.97-0.26,1.52c0,0.56,0.09,1.06,0.26,1.52
	s0.41,0.86,0.71,1.2c0.3,0.34,0.65,0.6,1.06,0.79c0.41,0.19,0.84,0.28,1.31,0.28c0.53,0,1.01-0.11,1.42-0.33
	c0.41-0.22,0.75-0.53,1.02-0.93l2.17,1.62c-0.5,0.7-1.13,1.22-1.9,1.55c-0.77,0.33-1.56,0.5-2.37,0.5c-0.92,0-1.77-0.14-2.55-0.43
	c-0.78-0.29-1.45-0.7-2.02-1.24c-0.57-0.54-1.01-1.19-1.32-1.96c-0.32-0.77-0.48-1.62-0.48-2.57c0-0.94,0.16-1.8,0.48-2.57
	c0.31-0.77,0.76-1.42,1.32-1.96c0.57-0.54,1.24-0.95,2.02-1.24c0.78-0.29,1.63-0.43,2.55-0.43c0.33,0,0.68,0.03,1.04,0.09
	c0.36,0.06,0.72,0.16,1.07,0.29c0.35,0.13,0.69,0.31,1.01,0.53c0.32,0.22,0.61,0.49,0.87,0.82L193.44,27.13z"/>
<path class="st0" d="M196.34,29.96c0-0.94,0.16-1.8,0.47-2.57c0.32-0.77,0.76-1.42,1.33-1.96c0.57-0.54,1.24-0.95,2.02-1.24
	c0.78-0.29,1.63-0.44,2.55-0.44c0.92,0,1.77,0.15,2.55,0.44c0.78,0.29,1.45,0.7,2.02,1.24c0.57,0.54,1.01,1.19,1.33,1.96
	c0.32,0.77,0.47,1.62,0.47,2.57c0,0.94-0.16,1.8-0.47,2.57c-0.32,0.77-0.76,1.42-1.33,1.96c-0.57,0.54-1.24,0.95-2.02,1.24
	c-0.78,0.29-1.63,0.43-2.55,0.43c-0.92,0-1.77-0.14-2.55-0.43c-0.78-0.29-1.45-0.7-2.02-1.24c-0.57-0.54-1.01-1.19-1.33-1.96
	C196.5,31.76,196.34,30.91,196.34,29.96 M199.04,29.96c0,0.56,0.09,1.06,0.26,1.52c0.17,0.46,0.42,0.86,0.74,1.2
	c0.32,0.34,0.71,0.6,1.16,0.79c0.45,0.19,0.95,0.28,1.51,0.28c0.55,0,1.06-0.09,1.51-0.28c0.45-0.19,0.84-0.45,1.16-0.79
	c0.32-0.34,0.57-0.74,0.74-1.2c0.17-0.46,0.26-0.97,0.26-1.52c0-0.54-0.09-1.05-0.26-1.52c-0.17-0.47-0.42-0.87-0.74-1.21
	c-0.32-0.34-0.71-0.6-1.16-0.79c-0.45-0.19-0.95-0.28-1.51-0.28c-0.56,0-1.06,0.09-1.51,0.28c-0.45,0.19-0.84,0.45-1.16,0.79
	c-0.32,0.34-0.57,0.74-0.74,1.21C199.13,28.91,199.04,29.42,199.04,29.96"/>
<polygon class="st0" points="210.78,24.06 213.38,24.06 213.38,33.46 218.19,33.46 218.19,35.86 210.78,35.86 "/>
<polygon class="st0" points="219.73,24.06 222.33,24.06 222.33,33.46 227.14,33.46 227.14,35.86 219.73,35.86 "/>
<polygon class="st0" points="228.68,24.06 236.69,24.06 236.69,26.46 231.27,26.46 231.27,28.66 236.39,28.66 236.39,31.06 
	231.27,31.06 231.27,33.46 236.99,33.46 236.99,35.86 228.68,35.86 "/>
<path class="st0" d="M249.59,35.03c-0.77,0.4-1.57,0.69-2.4,0.87c-0.83,0.18-1.68,0.27-2.55,0.27c-0.92,0-1.77-0.14-2.55-0.43
	c-0.78-0.29-1.45-0.7-2.02-1.24c-0.57-0.54-1.01-1.19-1.33-1.96c-0.31-0.77-0.48-1.62-0.48-2.57c0-0.94,0.16-1.8,0.48-2.57
	c0.32-0.77,0.76-1.42,1.33-1.96c0.57-0.54,1.24-0.95,2.02-1.24c0.78-0.29,1.63-0.44,2.55-0.44c0.94,0,1.81,0.11,2.61,0.34
	c0.8,0.23,1.49,0.62,2.09,1.17l-1.83,2c-0.36-0.37-0.76-0.65-1.2-0.83c-0.45-0.19-1-0.28-1.67-0.28c-0.55,0-1.06,0.09-1.51,0.28
	c-0.45,0.19-0.84,0.45-1.16,0.79c-0.32,0.34-0.57,0.74-0.74,1.21c-0.17,0.47-0.26,0.97-0.26,1.52c0,0.56,0.09,1.06,0.26,1.52
	c0.17,0.46,0.42,0.86,0.74,1.2c0.32,0.34,0.71,0.6,1.16,0.79c0.45,0.19,0.95,0.28,1.51,0.28c0.57,0,1.06-0.06,1.47-0.19
	c0.41-0.13,0.74-0.26,0.98-0.39v-1.92h-2.12v-2.4h4.62V35.03z"/>
<polygon class="st0" points="251.56,24.06 259.58,24.06 259.58,26.46 254.16,26.46 254.16,28.66 259.28,28.66 259.28,31.06 
	254.16,31.06 254.16,33.46 259.88,33.46 259.88,35.86 251.56,35.86 "/>
<path class="st0" d="M84.17,18.24c-0.77,0.4-1.57,0.69-2.4,0.87c-0.83,0.18-1.68,0.27-2.55,0.27c-0.92,0-1.77-0.14-2.55-0.43
	c-0.78-0.29-1.45-0.7-2.02-1.24c-0.57-0.54-1.01-1.19-1.32-1.96c-0.32-0.77-0.48-1.62-0.48-2.57c0-0.94,0.16-1.8,0.48-2.57
	c0.32-0.77,0.76-1.42,1.32-1.96c0.57-0.54,1.24-0.95,2.02-1.24c0.78-0.29,1.63-0.43,2.55-0.43c0.94,0,1.82,0.11,2.61,0.34
	c0.79,0.23,1.49,0.62,2.09,1.17l-1.83,2c-0.36-0.37-0.76-0.64-1.2-0.83c-0.44-0.19-1-0.28-1.67-0.28c-0.55,0-1.06,0.09-1.51,0.28
	c-0.45,0.19-0.84,0.45-1.16,0.79c-0.32,0.34-0.57,0.74-0.74,1.21c-0.17,0.47-0.26,0.97-0.26,1.52c0,0.56,0.09,1.07,0.26,1.53
	c0.17,0.46,0.42,0.86,0.74,1.2c0.32,0.34,0.71,0.6,1.16,0.79c0.45,0.19,0.95,0.28,1.51,0.28c0.57,0,1.06-0.06,1.47-0.19
	c0.41-0.13,0.74-0.26,0.98-0.39v-1.92h-2.12v-2.4h4.62V18.24z"/>
<polygon class="st0" points="86.31,7.27 88.91,7.27 88.91,16.67 93.72,16.67 93.72,19.07 86.31,19.07 "/>
<polygon class="st0" points="95.34,7.27 103.35,7.27 103.35,9.67 97.94,9.67 97.94,11.87 103.05,11.87 103.05,14.27 97.94,14.27 
	97.94,16.67 103.65,16.67 103.65,19.07 95.34,19.07 "/>
<polygon class="st0" points="105.32,7.27 108.85,7.27 113.87,15.47 113.9,15.47 113.9,7.27 116.5,7.27 116.5,19.07 113.1,19.07 
	107.95,10.67 107.92,10.67 107.92,19.07 105.32,19.07 "/>
<path class="st0" d="M118.57,7.27h3.9c0.94,0,1.84,0.1,2.69,0.32c0.85,0.21,1.59,0.55,2.22,1.02c0.63,0.47,1.14,1.09,1.51,1.84
	c0.37,0.75,0.56,1.67,0.56,2.75c0,0.96-0.18,1.8-0.54,2.53c-0.36,0.73-0.85,1.34-1.46,1.83c-0.61,0.5-1.32,0.87-2.12,1.12
	c-0.8,0.26-1.64,0.38-2.52,0.38h-4.25V7.27z M121.17,16.67h1.35c0.6,0,1.16-0.06,1.68-0.18c0.51-0.12,0.96-0.32,1.34-0.61
	s0.68-0.66,0.89-1.12c0.22-0.46,0.32-1.03,0.32-1.69c0-0.58-0.11-1.08-0.32-1.51c-0.22-0.43-0.51-0.78-0.88-1.06
	c-0.37-0.28-0.8-0.49-1.29-0.63c-0.49-0.14-1.01-0.21-1.56-0.21h-1.53V16.67z"/>
<path class="st0" d="M134.48,7.27h2.15l5.13,11.8h-2.93l-1.02-2.5h-4.58l-0.98,2.5h-2.87L134.48,7.27z M135.48,10.71l-1.43,3.67
	h2.88L135.48,10.71z"/>
<polygon class="st0" points="142.96,7.27 145.56,7.27 145.56,16.67 150.38,16.67 150.38,19.07 142.96,19.07 "/>
<polygon class="st0" points="151.83,7.27 159.84,7.27 159.84,9.67 154.43,9.67 154.43,11.87 159.55,11.87 159.55,14.27 
	154.43,14.27 154.43,16.67 160.15,16.67 160.15,19.07 151.83,19.07 "/>
</svg>
