<svg id="Layer_1" data-name="Layer 1" xmlns="http://www.w3.org/2000/svg" width="361.7" height="70.3" viewBox="0 0 361.7 70.3"><title>logo-new</title><circle cx="35.1" cy="35.1" r="35.1" fill="#004c97"/><path d="M20,17.3a6.5,6.5,0,0,0-2.1.6V51.4H52.3V23.2H52A13.3,13.3,0,0,0,40.3,28h0a6.9,6.9,0,0,0-6.3-1.1,12,12,0,0,0-9.9-9.6A13.1,13.1,0,0,0,20,17.3Zm2.1,14.1a4.4,4.4,0,0,1,2.6-1.7,4.5,4.5,0,0,1,2.5.1,5,5,0,0,1,3.1,3.1,8,8,0,0,1,2.3-2.6,5.8,5.8,0,0,1,4.6-1,5.7,5.7,0,0,1,3.4,2.2l.2-.4a11,11,0,0,1,9.2-5.7V38.8l-2.8-3.7H26.3l-6.1,7.1V19.7a5.5,5.5,0,0,1,2.6-.3,11.5,11.5,0,0,1,4,1.2,8.8,8.8,0,0,1,3.4,3.1,9.1,9.1,0,0,1,1.6,4.1l-1.4,1.1A6.7,6.7,0,0,0,26,27.2a7.4,7.4,0,0,0-3.8,1.1Zm-1.9,14L27,37.4H46.3l3.7,4.9v5.3l-4.6-6H25.7L20.2,48Zm6.3-1.6H44.6l4,5.4H22Z" fill="#fff"/><rect x="81.9" y="49.4" width="279.8" height="0.36" fill="#413c38"/><path d="M86.8,55.5h1.4l4.8,11.3H91.3L90.2,64H84.8l-1.1,2.8H81.9Zm2.8,7.2-2.1-5.2h0l-2.1,5.2Z" fill="#413c38"/><path d="M98.7,55.5h3.8l2.6,7.4h0l2.6-7.4h3.8V66.8H109V58.2h0l-3,8.7h-1.9l-2.9-8.7h0v8.7H98.7Z" fill="#413c38"/><path d="M117.3,55.5h2.1l4.9,11.3h-2.8l-1-2.4h-4.4l-.9,2.4h-2.8Zm1,3.3-1.4,3.5h2.8Z" fill="#413c38"/><path d="M125.1,55.5h4.4l1.6.2a3.9,3.9,0,0,1,1.4.6,2.8,2.8,0,0,1,.9,1.1,3.6,3.6,0,0,1,.3,1.7,3.3,3.3,0,0,1-.6,2,2.8,2.8,0,0,1-1.8,1.1l2.9,4.8h-3l-2.4-4.5h-1.2v4.5h-2.5Zm2.5,4.7h2.9l.5-.4a1.1,1.1,0,0,0,.2-.7,1.2,1.2,0,0,0-.2-.7l-.4-.4-.6-.2h-2.3Z" fill="#413c38"/><path d="M135.5,55.5H138V66.8h-2.5Z" fill="#413c38"/><path d="M147.6,58.5a2.5,2.5,0,0,0-.9-.7l-1.2-.2-1.3.3a3.1,3.1,0,0,0-1,.8,3.6,3.6,0,0,0-.7,1.2,4.4,4.4,0,0,0,0,2.9,3.6,3.6,0,0,0,.7,1.2,3.1,3.1,0,0,0,1,.8l1.3.3a2.8,2.8,0,0,0,1.4-.3,2.7,2.7,0,0,0,1-.9l2.1,1.6a4.3,4.3,0,0,1-1.8,1.5,5.6,5.6,0,0,1-2.3.5,7,7,0,0,1-2.4-.4,5.6,5.6,0,0,1-1.9-1.2,5.4,5.4,0,0,1-1.3-1.9,6.9,6.9,0,0,1,0-4.9,5.4,5.4,0,0,1,1.3-1.9,5.6,5.6,0,0,1,1.9-1.2,7,7,0,0,1,2.4-.4h1l1,.3,1,.5.8.8Z" fill="#413c38"/><path d="M150.4,61.2a6.4,6.4,0,0,1,.5-2.5,5.4,5.4,0,0,1,1.3-1.9,5.6,5.6,0,0,1,1.9-1.2,7.4,7.4,0,0,1,4.9,0,5.6,5.6,0,0,1,1.9,1.2,5.4,5.4,0,0,1,1.3,1.9,6.9,6.9,0,0,1,0,4.9,5.4,5.4,0,0,1-1.3,1.9,5.6,5.6,0,0,1-1.9,1.2,7.4,7.4,0,0,1-4.9,0,5.6,5.6,0,0,1-1.9-1.2,5.4,5.4,0,0,1-1.3-1.9A6.4,6.4,0,0,1,150.4,61.2Zm2.6,0a4.1,4.1,0,0,0,.2,1.5,3.3,3.3,0,0,0,.7,1.2,3.3,3.3,0,0,0,1.1.8,4,4,0,0,0,2.9,0,3.3,3.3,0,0,0,1.1-.8,3.3,3.3,0,0,0,.7-1.2,4.4,4.4,0,0,0,0-2.9,3.3,3.3,0,0,0-.7-1.2,3.3,3.3,0,0,0-1.1-.8,4,4,0,0,0-2.9,0,3.3,3.3,0,0,0-1.1.8,3.3,3.3,0,0,0-.7,1.2A4.2,4.2,0,0,0,153,61.2Z" fill="#413c38"/><path d="M164.1,55.5h4.2l1.7.2a3.8,3.8,0,0,1,1.4.6,2.8,2.8,0,0,1,.9,1.1,3.6,3.6,0,0,1,.3,1.7,3.9,3.9,0,0,1-.3,1.7,2.7,2.7,0,0,1-.9,1.1,3.6,3.6,0,0,1-1.3.6l-1.7.2h-1.8v4.4h-2.5Zm2.5,4.8h2.3l.6-.2.4-.4a1.3,1.3,0,0,0,.2-.7,1.1,1.1,0,0,0-.2-.7l-.5-.4-.7-.2h-2Z" fill="#413c38"/><path d="M176.6,55.5h2.1l4.9,11.3h-2.8l-1-2.4h-4.4l-.9,2.4h-2.8Zm1,3.3-1.4,3.5H179Z" fill="#413c38"/><path d="M197.4,58a3.2,3.2,0,0,0-1.2-1,3.6,3.6,0,0,0-1.5-.3,4.1,4.1,0,0,0-1.7.4,4,4,0,0,0-1.3,1,4.5,4.5,0,0,0-.9,1.5,5.3,5.3,0,0,0-.3,1.8,5,5,0,0,0,.3,1.7,4.2,4.2,0,0,0,.8,1.4,3.9,3.9,0,0,0,1.3,1,4.3,4.3,0,0,0,1.8.4,3.5,3.5,0,0,0,1.7-.4,3.7,3.7,0,0,0,1.2-1.1l1.3,1-.4.5-.8.7-1.3.6-1.7.2a5.6,5.6,0,0,1-2.4-.5,5.9,5.9,0,0,1-3.4-5.3,6.6,6.6,0,0,1,.4-2.4,5.7,5.7,0,0,1,1.2-1.9,5.4,5.4,0,0,1,1.9-1.3,6.2,6.2,0,0,1,2.4-.4,5.9,5.9,0,0,1,2.2.4,4.1,4.1,0,0,1,1.8,1.3Z" fill="#413c38"/><path d="M205.7,67.1a6.1,6.1,0,0,1-2.4-.5,5.5,5.5,0,0,1-1.9-1.3,5.8,5.8,0,0,1-1.2-1.9,6.5,6.5,0,0,1,0-4.7,5.8,5.8,0,0,1,1.2-1.9,5.5,5.5,0,0,1,1.9-1.3,6.5,6.5,0,0,1,4.8,0,5.5,5.5,0,0,1,1.9,1.3,5.8,5.8,0,0,1,1.2,1.9,6.5,6.5,0,0,1,0,4.7,5.8,5.8,0,0,1-1.2,1.9,5.5,5.5,0,0,1-1.9,1.3A6.1,6.1,0,0,1,205.7,67.1Zm0-1.4a4.1,4.1,0,0,0,3.1-1.3,4.2,4.2,0,0,0,.9-1.4,5.2,5.2,0,0,0,0-3.5,4.3,4.3,0,0,0-.9-1.4,4.2,4.2,0,0,0-6.2,0,4.3,4.3,0,0,0-.9,1.4,5.2,5.2,0,0,0,0,3.5,4.3,4.3,0,0,0,.9,1.4,4.1,4.1,0,0,0,3.1,1.3Z" fill="#413c38"/><path d="M213.3,55.5h2.3l3.6,8.6h.1l3.6-8.6h2.3V66.8h-1.5V57.5h0l-3.8,9.3h-1l-3.8-9.3h0v9.3h-1.5Z" fill="#413c38"/><path d="M227.6,55.5h2.3l3.6,8.6h.1l3.6-8.6h2.3V66.8h-1.5V57.5h0L234,66.8h-1l-3.8-9.3h0v9.3h-1.5Z" fill="#413c38"/><path d="M243,55.5v6.9a4.4,4.4,0,0,0,.1,1.1,3.2,3.2,0,0,0,.5,1,2.6,2.6,0,0,0,.9.8,3.1,3.1,0,0,0,2.7,0,2.6,2.6,0,0,0,.9-.8,3.2,3.2,0,0,0,.5-1,4.4,4.4,0,0,0,.1-1.1V55.5h1.5v7.2a4.7,4.7,0,0,1-.3,1.8,4.3,4.3,0,0,1-.9,1.4,4.1,4.1,0,0,1-1.4.9,4.8,4.8,0,0,1-3.5,0,4.1,4.1,0,0,1-1.4-.9,4.3,4.3,0,0,1-.9-1.4,4.6,4.6,0,0,1-.3-1.8V55.5Z" fill="#413c38"/><path d="M252.3,55.5h2l6.2,9.3h0V55.5h1.5V66.8h-2l-6.3-9.3h0v9.3h-1.5Z" fill="#413c38"/><path d="M264.5,55.5H266V66.8h-1.5Z" fill="#413c38"/><path d="M271.2,57h-3.6V55.5h8.8V57h-3.6v9.9h-1.5Z" fill="#413c38"/><path d="M281.1,62l-4.3-6.5h2l3.1,5,3.2-5H287L282.7,62v4.8h-1.5Z" fill="#413c38"/><path d="M300.6,58a3.2,3.2,0,0,0-1.2-1,3.6,3.6,0,0,0-1.5-.3,4.1,4.1,0,0,0-1.7.4,4,4,0,0,0-1.3,1,4.5,4.5,0,0,0-.9,1.5,5.3,5.3,0,0,0-.3,1.8,5,5,0,0,0,.3,1.7,4.2,4.2,0,0,0,.8,1.4,3.9,3.9,0,0,0,1.3,1,4.3,4.3,0,0,0,1.8.4,3.5,3.5,0,0,0,1.7-.4,3.7,3.7,0,0,0,1.2-1.1l1.3,1-.4.5-.8.7-1.3.6-1.7.2a5.6,5.6,0,0,1-2.4-.5,5.9,5.9,0,0,1-3.4-5.3,6.6,6.6,0,0,1,.4-2.4,5.7,5.7,0,0,1,1.2-1.9,5.4,5.4,0,0,1,1.9-1.3,6.2,6.2,0,0,1,2.4-.4,5.9,5.9,0,0,1,2.2.4,4.1,4.1,0,0,1,1.8,1.3Z" fill="#413c38"/><path d="M308.8,67.1a6.1,6.1,0,0,1-2.4-.5,5.5,5.5,0,0,1-1.9-1.3,5.8,5.8,0,0,1-1.2-1.9,6.5,6.5,0,0,1,0-4.7,5.8,5.8,0,0,1,1.2-1.9,5.5,5.5,0,0,1,1.9-1.3,6.5,6.5,0,0,1,4.8,0,5.5,5.5,0,0,1,1.9,1.3,5.8,5.8,0,0,1,1.2,1.9,6.5,6.5,0,0,1,0,4.7,5.8,5.8,0,0,1-1.2,1.9,5.5,5.5,0,0,1-1.9,1.3A6.1,6.1,0,0,1,308.8,67.1Zm0-1.4a4.1,4.1,0,0,0,3.1-1.3,4.2,4.2,0,0,0,.9-1.4,5.2,5.2,0,0,0,0-3.5,4.3,4.3,0,0,0-.9-1.4,4.2,4.2,0,0,0-6.2,0,4.3,4.3,0,0,0-.9,1.4,5.2,5.2,0,0,0,0,3.5,4.3,4.3,0,0,0,.9,1.4,4.1,4.1,0,0,0,3.1,1.3Z" fill="#413c38"/><path d="M316.5,55.5H318v9.9h5.2v1.4h-6.7Z" fill="#413c38"/><path d="M324.8,55.5h1.5v9.9h5.2v1.4h-6.7Z" fill="#413c38"/><path d="M333,55.5h7.3V57h-5.8v3.4h5.4v1.4h-5.4v3.6h6.1v1.4H333Z" fill="#413c38"/><path d="M352,60.5v5.6l-.9.4-1.1.3-1.2.2h-1.1a6.5,6.5,0,0,1-2.6-.5,5.5,5.5,0,0,1-3.1-3.2,6.4,6.4,0,0,1-.4-2.3,6.2,6.2,0,0,1,.4-2.4,5.8,5.8,0,0,1,1.2-1.9,5.5,5.5,0,0,1,1.9-1.3,6.1,6.1,0,0,1,2.4-.5,7,7,0,0,1,2.6.4,4.7,4.7,0,0,1,1.7,1.1l-1.1,1.2a4,4,0,0,0-1.5-.9l-1.6-.3a4.1,4.1,0,0,0-3.1,1.3,4.3,4.3,0,0,0-.9,1.4,5,5,0,0,0-.3,1.8,4.7,4.7,0,0,0,.3,1.8,4.4,4.4,0,0,0,.9,1.4,4.3,4.3,0,0,0,1.4,1,4.4,4.4,0,0,0,1.7.3l1.5-.2,1.2-.4V62H348V60.5Z" fill="#413c38"/><path d="M354,55.5h7.3V57h-5.8v3.4h5.4v1.4h-5.4v3.6h6.1v1.4H354Z" fill="#413c38"/><path d="M82.6,3.6h4.8L90.6,13h0L94,3.6h4.7V17.9H95.6V7h0L91.8,17.9H89.4L85.8,7h0V17.9H82.6Z" fill="#004c97"/><path d="M101.4,3.6h9.7V6.5h-6.6V9.2h6.2v2.9h-6.2V15h6.9v2.9H101.4Z" fill="#004c97"/><path d="M121.4,7a2.3,2.3,0,0,0-1-.7l-1.3-.2h-.7l-.7.3-.5.5a1.2,1.2,0,0,0-.2.7,1.1,1.1,0,0,0,.5,1l1.2.6,1.6.5,1.6.7a3.8,3.8,0,0,1,1.2,1.2,3.7,3.7,0,0,1,.5,2,4.6,4.6,0,0,1-.4,2.1,4.3,4.3,0,0,1-1.2,1.5,5.2,5.2,0,0,1-1.8.9l-2.1.3a7.7,7.7,0,0,1-2.6-.4,6.5,6.5,0,0,1-2.2-1.4l2.3-2.5a3.3,3.3,0,0,0,1.2,1,3.5,3.5,0,0,0,1.5.4h.8l.7-.3.5-.5a1.2,1.2,0,0,0,.2-.7,1.2,1.2,0,0,0-.5-1l-1.3-.6-1.6-.5-1.6-.7a3.9,3.9,0,0,1-1.3-1.2,3.4,3.4,0,0,1-.5-1.9,4.3,4.3,0,0,1,.5-2,4.4,4.4,0,0,1,1.2-1.5,5.3,5.3,0,0,1,1.8-.9,7.2,7.2,0,0,1,2.1-.3,8.1,8.1,0,0,1,2.4.3,5.5,5.5,0,0,1,2.1,1.2Z" fill="#004c97"/><path d="M130.1,3.5h2.6L139,17.9h-3.6l-1.2-3.1h-5.6l-1.2,3.1h-3.5Zm1.2,4.2-1.8,4.5h3.5Z" fill="#004c97"/><path d="M92.1,27.4a3.1,3.1,0,0,0-1.1-.9,3.8,3.8,0,0,0-1.6-.3,3.9,3.9,0,0,0-3,1.3,4.5,4.5,0,0,0-.9,1.5,5.6,5.6,0,0,0,0,3.7,4.6,4.6,0,0,0,.9,1.5,3.9,3.9,0,0,0,1.3,1,3.7,3.7,0,0,0,1.6.3A3.5,3.5,0,0,0,91,35a3.4,3.4,0,0,0,1.2-1.1l2.6,2a5.5,5.5,0,0,1-2.3,1.9,7.1,7.1,0,0,1-2.9.6,8.8,8.8,0,0,1-3.1-.5,7.1,7.1,0,0,1-2.4-1.5A6.8,6.8,0,0,1,82.6,34a8.7,8.7,0,0,1,0-6.2,6.8,6.8,0,0,1,1.6-2.4,7.1,7.1,0,0,1,2.4-1.5,8.8,8.8,0,0,1,3.1-.5h1.3l1.3.4,1.2.6,1,1Z" fill="#004c97"/><path d="M95.6,30.8a8.1,8.1,0,0,1,.6-3.1,6.8,6.8,0,0,1,1.6-2.4,7.1,7.1,0,0,1,2.4-1.5,9.3,9.3,0,0,1,6.2,0,7.1,7.1,0,0,1,2.4,1.5,6.8,6.8,0,0,1,1.6,2.4,8.7,8.7,0,0,1,0,6.2,6.8,6.8,0,0,1-1.6,2.4,7.1,7.1,0,0,1-2.4,1.5,9.3,9.3,0,0,1-6.2,0,7.1,7.1,0,0,1-2.4-1.5A6.8,6.8,0,0,1,96.2,34,8.1,8.1,0,0,1,95.6,30.8Zm3.3,0a5.2,5.2,0,0,0,.3,1.8,4.2,4.2,0,0,0,.9,1.5,4.1,4.1,0,0,0,1.4,1,5,5,0,0,0,3.6,0,4.1,4.1,0,0,0,1.4-1,4.2,4.2,0,0,0,.9-1.5,5.6,5.6,0,0,0,0-3.7,4.2,4.2,0,0,0-.9-1.5,4.1,4.1,0,0,0-1.4-1,5,5,0,0,0-3.6,0,4.1,4.1,0,0,0-1.4,1,4.2,4.2,0,0,0-.9,1.5A5.3,5.3,0,0,0,98.9,30.8Z" fill="#004c97"/><path d="M112.9,23.7h4.8L121,33h0l3.3-9.3h4.7V38h-3.1V27h0L122.1,38h-2.4L116.1,27h0V38h-3.1Z" fill="#004c97"/><path d="M131.7,23.7h4.8l3.3,9.3h0l3.3-9.3h4.7V38h-3.1V27h0L140.9,38h-2.4L134.8,27h0V38h-3.1Z" fill="#004c97"/><path d="M162.2,32.5a6.9,6.9,0,0,1-.4,2.3,5.1,5.1,0,0,1-1.1,1.9,5.2,5.2,0,0,1-1.9,1.2,7.9,7.9,0,0,1-5.2,0,5.2,5.2,0,0,1-1.9-1.2,5.1,5.1,0,0,1-1.1-1.9,6.9,6.9,0,0,1-.4-2.3V23.7h3.1v8.6a3.5,3.5,0,0,0,.2,1.2,2.9,2.9,0,0,0,.6,1l.9.6,1.2.2,1.1-.2.9-.6a2.9,2.9,0,0,0,.6-1,3.5,3.5,0,0,0,.2-1.2V23.7h3.1Z" fill="#004c97"/><path d="M164.6,23.7h4.3l6.1,9.9h0V23.7h3.1V38H174l-6.2-10.2h0V38h-3.1Z" fill="#004c97"/><path d="M180.8,23.7H184V38h-3.1Z" fill="#004c97"/><path d="M189.8,26.5h-4.1V23.7H197v2.8h-4.1V38h-3.1Z" fill="#004c97"/><path d="M203,31.9l-5.4-8.2h3.9l3,5.3,3.2-5.3h3.7l-5.4,8.2V38H203Z" fill="#004c97"/><path d="M227.9,27.4a3.1,3.1,0,0,0-1.1-.9,3.8,3.8,0,0,0-1.6-.3,3.9,3.9,0,0,0-3,1.3,4.5,4.5,0,0,0-.9,1.5,5.6,5.6,0,0,0,0,3.7,4.6,4.6,0,0,0,.9,1.5,3.9,3.9,0,0,0,1.3,1,3.7,3.7,0,0,0,1.6.3,3.5,3.5,0,0,0,1.7-.4,3.4,3.4,0,0,0,1.2-1.1l2.6,2a5.5,5.5,0,0,1-2.3,1.9,7.1,7.1,0,0,1-2.9.6,8.8,8.8,0,0,1-3.1-.5,7.1,7.1,0,0,1-2.4-1.5,6.8,6.8,0,0,1-1.6-2.4,8.7,8.7,0,0,1,0-6.2,6.8,6.8,0,0,1,1.6-2.4,7.1,7.1,0,0,1,2.4-1.5,8.8,8.8,0,0,1,3.1-.5h1.3l1.3.4,1.2.6,1,1Z" fill="#004c97"/><path d="M231.4,30.8a8.1,8.1,0,0,1,.6-3.1,6.8,6.8,0,0,1,1.6-2.4,7.1,7.1,0,0,1,2.4-1.5,9.3,9.3,0,0,1,6.2,0,7.1,7.1,0,0,1,2.4,1.5,6.8,6.8,0,0,1,1.6,2.4,8.7,8.7,0,0,1,0,6.2,6.8,6.8,0,0,1-1.6,2.4,7.1,7.1,0,0,1-2.4,1.5,9.3,9.3,0,0,1-6.2,0,7.1,7.1,0,0,1-2.4-1.5,6.8,6.8,0,0,1-1.6-2.4A8.1,8.1,0,0,1,231.4,30.8Zm3.3,0a5.2,5.2,0,0,0,.3,1.8,4.2,4.2,0,0,0,.9,1.5,4.1,4.1,0,0,0,1.4,1,5,5,0,0,0,3.6,0,4.1,4.1,0,0,0,1.4-1,4.2,4.2,0,0,0,.9-1.5,5.6,5.6,0,0,0,0-3.7,4.2,4.2,0,0,0-.9-1.5,4.1,4.1,0,0,0-1.4-1,5,5,0,0,0-3.6,0,4.1,4.1,0,0,0-1.4,1,4.2,4.2,0,0,0-.9,1.5A5.3,5.3,0,0,0,234.6,30.8Z" fill="#004c97"/><path d="M248.8,23.7H252V35.1h5.8V38h-9Z" fill="#004c97"/><path d="M259.7,23.7h3.1V35.1h5.8V38h-9Z" fill="#004c97"/><path d="M270.5,23.7h9.7v2.9h-6.6v2.7h6.2v2.9h-6.2v2.9h6.9V38H270.5Z" fill="#004c97"/><path d="M295.8,37a11.4,11.4,0,0,1-2.9,1,14.8,14.8,0,0,1-3.1.3,8.8,8.8,0,0,1-3.1-.5,7.1,7.1,0,0,1-2.4-1.5,6.8,6.8,0,0,1-1.6-2.4,8.7,8.7,0,0,1,0-6.2,6.8,6.8,0,0,1,1.6-2.4,7.1,7.1,0,0,1,2.4-1.5,8.8,8.8,0,0,1,3.1-.5,11.4,11.4,0,0,1,3.2.4,6.2,6.2,0,0,1,2.5,1.4l-2.2,2.4a4.4,4.4,0,0,0-1.5-1,5.2,5.2,0,0,0-2-.3,4.7,4.7,0,0,0-1.8.3,4.1,4.1,0,0,0-1.4,1,4.2,4.2,0,0,0-.9,1.5,5.6,5.6,0,0,0,0,3.7,4.2,4.2,0,0,0,.9,1.5,4.1,4.1,0,0,0,1.4,1,4.7,4.7,0,0,0,1.8.3l1.8-.2,1.2-.5V32.4h-2.6V29.5h5.6Z" fill="#004c97"/><path d="M298.2,23.7h9.7v2.9h-6.6v2.7h6.2v2.9h-6.2v2.9h6.9V38H298.2Z" fill="#004c97"/></svg>