<?xml version="1.0" encoding="UTF-8" standalone="no"?>
<svg height="133.30696" viewBox="0 0 750 133.30696" width="750" xmlns="http://www.w3.org/2000/svg">
   <g transform="matrix(.10557128 0 0 -.10557128 -43.061997 389.7016)">
      <path d="m988.738 3498.03c-29.34 133.38-116.492 158.6-210.066 158.6-162.731 0-266.774-111.29-266.774-309.82 0-159.67 75.68-335.11 283.633-335.11 37.828 0 73.528 4.21 98.739 13.71 23.035 9.57 30.41 16.81 30.41 67.21v93.6c0 71.45-4.129 78.74-118.68 87.12v24.17h269.96v-24.17c-58.82-9.38-63.04-12.68-63.04-87.12v-71.56c0-37.77 1.06-71.39 6.27-95.54-65.167-17.85-150.131-41.92-228.963-41.92-221.551 0-382.332 143.79-382.332 349.61 0 237.36 190.128 364.55 388.609 364.55 91.484 0 163.871-17.84 200.629-27.31 3.227-35.68 8.517-90.4 16.847-162.85z" fill="#592b94"/>
      <path d="m1289.22 3123.42c0-98.12 7.16-104.44 80.98-109.84v-20.72h-239.44v20.72c75.64 5.4 82.82 11.72 82.82 109.84v324.02c0 98.3-7.18 104.54-79.24 109.94v20.65h228.63c57.65 0 108.99-8.09 142.24-30.47 36.04-22.59 59.47-63.18 59.47-115.34 0-74.72-45.91-127.97-118.87-157.58 16.23-27.03 53.08-89.05 80.16-128.84 32.4-47.61 51.33-71.95 75.7-98.91 18.8-22.52 35.11-37.04 67.44-44.88l-1.76-17.23h-12.68c-103.45 2.68-134.98 34.2-169.24 83.69-27.85 40.6-65.78 107.17-90.93 149.43-14.38 23.47-28.72 32.45-56.64 32.45h-48.64zm0 153.04h52.15c36.9 0 65.78 4.46 90.09 24.25 38.68 30.6 52.24 74.79 52.24 118.89 0 94.48-68.42 132.38-136.02 132.38-30.6 0-43.2-1.85-50.42-4.42-5.37-1.82-8.04-6.39-8.04-24.52z" fill="#592b94"/>
      <path d="m2019.34 3013.59l28.88 3.69c33.32 3.47 36.94 13.37 27.96 41.23-6.35 21.64-32.44 91.92-57.6 156.68h-182.74c-9.1-23.29-32.46-93.61-45.15-131.37-17.01-52.22-8.91-64.02 31.63-67.53l26.9-2.7v-20.72h-192.6v20.72c58.59 6.21 65.68 11.7 97.24 91.79l185.42 478.01 20.68 8.21 63.96-171.1c42.36-114.37 81.92-228.6 117.1-320.52 28.78-75.61 40.56-81.98 96.32-86.39v-20.72h-218zm-171.88 235.9h159.38l-79.28 221.4h-1.76z" fill="#592b94"/>
      <path d="m2802.71 2986.48h-23.46l-390.7 474.5h-1.78v-229.49c0-94.63 3.54-143.31 7.18-171.07 4.6-31.46 28.76-44.13 88.31-46.84v-20.71h-216.19v20.71c49.61 1.73 72.94 15.38 77.49 46.84 3.55 27.76 7.22 76.44 7.22 171.07v195.22c0 64.85-.94 79.31-17.24 99.97-16.98 21.71-41.35 27.95-79.08 30.7v20.65h131.39l379.02-453.72h1.82v215.13c0 94.52-3.64 143.13-7.25 171.08-4.56 31.44-28.75 44.11-88.23 46.86v20.65h216.14v-20.65c-49.54-1.79-73-15.42-77.55-46.86-3.51-27.95-7.09-76.56-7.09-171.08z" fill="#592b94"/>
      <path d="m3192.52 3578.02c107.16 0 193.64-21.58 251.16-75.64 45.12-42.19 78.3-107.96 78.3-190.91 0-222.16-170.08-318.61-381.68-318.61h-207.1v20.72c77.43 5.4 84.68 11.72 84.68 109.84v324.02c0 98.3-7.25 104.54-77.44 109.94v20.64zm-99-469.85c0-41.45 2.73-59.47 15.32-70.16 11.66-9.99 33.26-15.47 63.9-15.47 189.04 0 261.89 130.58 261.89 265.55 0 91.07-19.67 187.23-109.73 234.16-35.14 18.92-86.44 29.73-158.38 29.73-45.06 0-57.68-2.73-64.9-5.43-5.37-1.82-8.1-7.14-8.1-25.24z" fill="#592b94"/>
      <path d="m4391.77 3503.41c-31.58 120.67-98.78 153.22-201.64 153.22-189.18 0-273.19-142.71-273.19-307.69 0-202.65 103.99-337.24 274.28-337.24 117.56 0 172.11 56.78 223.7 167.14l26.23-3.2c-13.72-45.14-36.8-129.21-53.55-169.1-29.5-7.35-123.99-29.34-197.47-29.34-265.83 0-377.11 180.54-377.11 347.57 0 216.39 167 366.59 397.08 366.59 89.17 0 159.51-21.1 189.01-27.31 8.4-57.8 12.69-104 19.01-158.61z" fill="#592b94"/>
      <path d="m4822.86 3013.59l28.73 3.69c33.36 3.47 36.96 13.37 27.98 41.23-6.27 21.64-32.37 91.92-57.63 156.68h-182.65c-9.11-23.29-32.48-93.61-45.13-131.37-17.15-52.22-9.02-64.02 31.56-67.53l26.96-2.7v-20.72h-192.66v20.72c58.44 6.21 65.78 11.7 97.28 91.79l185.34 478.01 20.72 8.21 63.99-171.1c42.2-114.37 81.82-228.6 116.97-320.52 28.88-75.61 40.59-81.98 96.46-86.39v-20.72h-217.92zm-172.03 235.9h159.38l-79.19 221.4h-1.85z" fill="#592b94"/>
      <path d="m5606.04 2986.48h-23.3l-390.91 474.5h-1.7v-229.49c0-94.63 3.68-143.31 7.23-171.07 4.47-31.46 28.83-44.13 88.19-46.84v-20.71h-216.12v20.71c49.52 1.73 72.98 15.38 77.5 46.84 3.65 27.76 7.25 76.44 7.25 171.07v195.22c0 64.85-.91 79.31-17.11 99.97-17.21 21.71-41.5 27.95-79.22 30.7v20.65h131.44l379.05-453.72h1.87v215.13c0 94.52-3.73 143.13-7.37 171.08-4.43 31.44-28.76 44.11-88.23 46.86v20.65h216.07v-20.65c-49.5-1.79-72.79-15.42-77.33-46.86-3.56-27.95-7.31-76.56-7.31-171.08z" fill="#592b94"/>
      <path d="m6012.16 3123.42c0-98.12 7.15-104.44 93.63-109.84v-20.72h-259.33v20.72c82.92 5.4 90.08 11.72 90.08 109.84v102.48c0 16.42-2.63 24.45-19.76 54.19-40.65 70.19-75.75 135.04-114.36 201.69-38.83 66.61-42.33 69.29-94.58 75.6v20.65h216.96v-20.65l-41.44-5.4c-22.44-3.59-28.8-11.78-13.48-39.66 40.52-75.55 81.9-150.36 126.08-224.23 37.93 72.13 78.3 145.87 111.66 219.81 15.3 32.3 8 41.35-26.17 44.89l-36.01 4.59v20.65h198.19v-20.65c-60.35-5.4-64.94-17.18-102.67-76.65-40.54-62.89-74.8-125.09-113.51-197-13.45-24.37-15.29-29.85-15.29-48.65z" fill="#592b94"/>
      <path d="m6823.48 3293.59c0-187.25-130.6-314.24-302.54-314.24-170.1 0-290.84 129.72-290.84 299.86 0 151.15 106.25 312.38 306.98 312.38 155.8 0 286.4-120.69 286.4-298m-309.76 268.29c-106.26 0-196.21-87.39-196.21-256.69 0-173.73 90.9-296.24 222.29-296.24 108.1 0 196.42 83.9 196.42 251.26 0 194.53-93.7 301.67-222.5 301.67" fill="#592b94"/>
      <path d="m7427.52 2986.48h-23.44l-390.75 474.5h-1.75v-229.49c0-94.63 3.61-143.31 7.25-171.07 4.46-31.46 28.8-44.13 88.16-46.84v-20.71h-215.97v20.71c49.43 1.73 72.83 15.38 77.46 46.84 3.57 27.76 7.15 76.44 7.15 171.07v195.22c0 64.85-.82 79.31-17.1 99.97-17.12 21.71-41.53 27.95-79.36 30.7v20.65h131.49l379.14-453.72h1.77v215.13c0 94.52-3.81 143.13-7.16 171.08-4.52 31.44-28.84 44.11-88.2 46.86v20.65h215.89v-20.65c-49.51-1.79-72.81-15.42-77.35-46.86-3.65-27.95-7.23-76.56-7.23-171.08z" fill="#592b94"/>
      <path d="m1814.9 2783.47v-206.7c0-78.21 34.71-111.39 81.33-111.39 51.82 0 84.98 34.19 84.98 111.39v206.7h45.54v-203.57c0-107.25-56.44-151.26-132.09-151.26-71.5 0-125.35 40.94-125.35 149.17v205.66z" fill="#231f20"/>
      <path d="m2307.84 2434.35v349.11h49.23l111.82-176.64c25.92-40.93 46.19-77.69 62.79-113.4l.97.49c-4.13 46.65-5.21 89.12-5.21 143.47v146.08h42.52v-349.11h-45.6l-110.88 177.15c-24.27 38.84-47.63 78.73-65.27 116.55l-1.49-.53c2.6-44.05 3.57-85.98 3.57-144v-149.17z" fill="#231f20"/>
      <path d="m2851.54 2434.35h45.0898v349.109h-45.0898z" fill="#231f20"/>
      <path d="m3255.02 2434.35l-114 349.11h48.63l54.4-171.96c15.11-47.15 28.01-89.62 37.36-130.55h1.04c9.82 40.4 24.33 84.44 39.84 130.04l59.06 172.47h48.14l-124.76-349.11z" fill="#231f20"/>
      <path d="m3851.06 2598.03h-135.77v-125.89h151.28v-37.79h-196.33v349.11h188.6v-37.79h-143.55v-110.33h135.77z" fill="#231f20"/>
      <path d="m4173.11 2619.79h46.11c48.17 0 78.65 26.44 78.65 66.31 0 45.04-32.63 64.73-80.18 65.28-21.83 0-37.32-2.09-44.58-4.17zm-45.06 159.01c22.77 4.67 55.4 7.24 86.54 7.24 48.08 0 79.16-8.76 100.99-28.46 17.55-15.55 27.42-39.38 27.42-66.31 0-46.08-29-76.69-65.85-89.12v-1.59c27.03-9.23 43.1-34.12 51.34-70.38 11.41-48.7 19.67-82.37 26.94-95.82h-46.63c-5.68 10.38-13.46 39.88-23.25 83.35-10.37 48.17-29.06 66.33-69.97 67.91h-42.47v-151.26h-45.06z" fill="#231f20"/>
      <path d="m4603.36 2489.25c20.2-12.43 49.75-22.81 80.85-22.81 46.09 0 73.01 24.4 73.01 59.58 0 32.63-18.66 51.3-65.81 69.44-56.95 20.16-92.15 49.72-92.15 98.94 0 54.39 45.1 94.77 112.9 94.77 35.72 0 61.61-8.29 77.17-17.08l-12.37-36.81c-11.41 6.23-34.75 16.59-66.33 16.59-47.7 0-65.79-28.52-65.79-52.31 0-32.63 21.24-48.68 69.4-67.36 59.05-22.79 89.07-51.25 89.07-102.52 0-53.89-39.88-101.04-122.24-101.04-33.66 0-70.44 10.38-89.1 22.81z" fill="#231f20"/>
      <path d="m5067.87 2434.35h45.0586v349.109h-45.0586z" fill="#231f20"/>
      <path d="m5460.91 2745.18h-106.15v38.28h258.47v-38.28h-106.72v-310.83h-45.6z" fill="#231f20"/>
      <path d="m5947.16 2434.35v148.12l-110.28 200.99h51.25l49.17-96.36c13.53-26.38 23.84-47.65 34.74-72h1.04c9.87 22.82 21.77 45.62 35.2 72l50.26 96.36h51.31l-117.13-200.43v-148.68z" fill="#231f20"/>
      <path d="m6229.82 2784.81h5.47c6.38 0 11.56 2.13 11.56 7.31 0 4.55-3.34 7.59-10.65 7.59-3.04 0-5.16-.33-6.38-.62zm-.29-27.94h-11.55v49.81c4.55.62 10.93 1.53 19.14 1.53 9.4 0 13.65-1.53 17.02-3.95 3.02-2.13 5.15-5.76 5.15-10.64 0-6.08-4.55-10.02-10.33-11.84v-.6c4.86-1.53 7.31-5.49 8.81-12.17 1.52-7.59 2.73-10.31 3.64-12.14h-12.14c-1.52 1.83-2.42 6.08-3.96 12.14-.9 5.17-3.93 7.59-10.32 7.59h-5.46zm7.59 65.62c-21.57 0-38.29-17.93-38.29-39.79 0-22.19 16.72-39.81 38.88-39.81 21.58-.29 37.99 17.62 37.99 39.5 0 22.17-16.41 40.1-38.28 40.1zm.59 10.02c28.25 0 50.74-21.87 50.74-49.81 0-27.96-22.49-50.12-51.03-50.12-28.54 0-51.33 22.16-51.33 50.12 0 27.94 22.79 49.81 51.33 49.81z" fill="#231f20"/>
   </g>
</svg>
