<?xml version="1.0" encoding="UTF-8" standalone="no"?>
<svg
   xmlns:dc="http://purl.org/dc/elements/1.1/"
   xmlns:cc="http://creativecommons.org/ns#"
   xmlns:rdf="http://www.w3.org/1999/02/22-rdf-syntax-ns#"
   xmlns:svg="http://www.w3.org/2000/svg"
   xmlns="http://www.w3.org/2000/svg"
   viewBox="0 0 411.04666 458.20132"
   height="458.20132"
   width="411.04666"
   xml:space="preserve"
   id="svg2"
   version="1.1"><metadata
     id="metadata8"><rdf:RDF><cc:Work
         rdf:about=""><dc:format>image/svg+xml</dc:format><dc:type
           rdf:resource="http://purl.org/dc/dcmitype/StillImage" /></cc:Work></rdf:RDF></metadata><defs
     id="defs6"><clipPath
       id="clipPath18"
       clipPathUnits="userSpaceOnUse"><path
         id="path16"
         d="M 0,343.651 H 308.285 V 0 H 0 Z" /></clipPath></defs><g
     transform="matrix(1.3333333,0,0,-1.3333333,0,458.20133)"
     id="g10"><g
       id="g12"><g
         clip-path="url(#clipPath18)"
         id="g14"><g
           transform="translate(137.5376,205.9781)"
           id="g20"><path
             id="path22"
             style="fill:#6e2639;fill-opacity:1;fill-rule:nonzero;stroke:none"
             d="m 0,0 c 1.829,3.584 3.162,7.166 3.999,10.743 0.834,3.577 1.331,6.968 1.487,10.163 0.158,3.196 0.289,5.836 0.391,7.933 0.215,7.379 0.399,13.988 0.56,19.826 0.158,5.837 0.291,11.126 0.398,15.863 0,2.534 0.054,5.095 0.159,7.684 0.102,2.589 0.26,5.038 0.47,7.352 0.21,2.314 0.443,4.352 0.706,6.116 0.259,1.761 0.548,3.027 0.863,3.8 1.256,3.193 3.006,5.561 5.255,7.104 2.247,1.543 5.306,2.589 9.18,3.139 v 1.655 h -38.854 v -1.652 c 5.02,-0.772 8.809,-2.122 11.373,-4.049 2.561,-1.927 4.367,-4.437 5.413,-7.52 0.42,-1.102 0.734,-2.561 0.942,-4.379 0.21,-1.818 0.366,-3.773 0.471,-5.863 0.104,-2.096 0.182,-4.298 0.233,-6.612 0.053,-2.312 0.081,-4.57 0.081,-6.772 V 57.756 51.312 44.535 36.439 C 3.127,32.694 2.995,28.863 2.736,24.957 2.47,21.049 1.948,17.215 1.165,13.475 0.377,9.727 -0.825,6.201 -2.445,2.896 c -1.622,-3.304 -3.82,-6.222 -6.593,-8.757 -2.771,-2.531 -6.222,-4.517 -10.357,-5.95 -4.131,-1.433 -9.177,-2.144 -15.141,-2.144 -5.232,0 -9.885,0.906 -13.966,2.726 -4.081,1.816 -7.535,4.408 -10.359,7.766 -2.822,3.36 -5.017,7.434 -6.588,12.225 -1.571,4.794 -2.405,10.11 -2.51,15.946 0,2.645 -0.021,5.15 -0.061,7.518 -0.042,2.367 -0.061,4.819 -0.061,7.352 v 8.429 10.08 7.765 6.609 c 0,2.093 0.019,4.239 0.061,6.444 0.04,2.202 0.101,4.738 0.18,7.602 0.105,2.531 0.627,4.624 1.568,6.276 0.941,1.652 2.09,2.946 3.449,3.883 1.361,0.938 2.876,1.626 4.549,2.066 1.676,0.443 3.244,0.772 4.71,0.994 v 1.652 h -46.688 v -1.655 c 2.717,-0.331 5.15,-0.907 7.294,-1.734 2.144,-0.827 3.948,-2.177 5.414,-4.048 0.624,-0.771 1.097,-1.843 1.41,-3.223 0.314,-1.377 0.55,-2.918 0.706,-4.628 0.156,-1.709 0.235,-3.552 0.235,-5.535 V 74.61 52.633 c 0,-6.061 -0.021,-11.57 -0.06,-16.527 -0.04,-4.955 -0.059,-8.977 -0.059,-12.058 0,-1.326 0.075,-3.337 0.233,-6.031 0.156,-2.704 0.678,-5.677 1.566,-8.926 0.888,-3.251 2.247,-6.556 4.076,-9.914 1.827,-3.358 4.412,-6.446 7.756,-9.254 3.342,-2.808 7.598,-5.039 12.769,-6.691 5.171,-1.652 11.517,-2.48 19.04,-2.48 7.622,0 14.045,0.855 19.27,2.561 0.934,0.306 1.827,0.637 2.7,0.981 3.756,2.136 7.726,4.653 11.905,7.605 C -3.496,-5.617 -1.49,-2.92 0,0" /></g><g
           transform="translate(268.4268,215.589)"
           id="g24"><path
             id="path26"
             style="fill:#a9a9a9;fill-opacity:1;fill-rule:nonzero;stroke:none"
             d="m 0,0 c 3.794,15.334 5.389,30.489 -9.783,36.581 -6.605,2.57 -17.663,1.773 -31.25,-1.924 1.844,-4.864 3.654,-9.629 5.423,-14.278 0.06,-0.16 0.122,-0.317 0.183,-0.478 C -14.823,23.196 -0.998,17.401 0,0" /></g><g
           transform="translate(209.7383,244.3439)"
           id="g28"><path
             id="path30"
             style="fill:#a9a9a9;fill-opacity:1;fill-rule:nonzero;stroke:none"
             d="m 0,0 c -13.674,-5.339 -28.749,-12.849 -43.888,-22.224 -0.273,-0.66 -0.546,-1.322 -0.816,-1.971 -1.566,-3.775 -3.141,-7.578 -4.707,-11.407 -1.142,-2.864 -2,-5.307 -2.588,-7.347 20.295,13.609 40.165,23.765 57.348,29.533 -0.269,0.694 -0.437,1.128 -0.437,1.128 z" /></g><g
           transform="translate(257.377,190.1886)"
           id="g32"><path
             id="path34"
             style="fill:#6e2639;fill-opacity:1;fill-rule:nonzero;stroke:none"
             d="m 0,0 c -1.91,0.878 -3.519,1.89 -4.796,3.042 -1.288,1.146 -2.328,2.274 -3.113,3.367 -0.779,1.097 -1.289,1.862 -1.518,2.302 -1.337,2.851 -2.545,5.395 -3.614,7.644 -1.061,2.249 -2.207,5.069 -3.444,8.469 -2.628,6.744 -5.268,13.573 -7.892,20.477 -0.061,0.161 -0.123,0.319 -0.184,0.479 -1.768,4.648 -3.579,9.413 -5.422,14.277 -0.96,2.532 -1.927,5.082 -2.907,7.673 -2.854,7.561 -5.854,15.426 -8.995,23.59 -3.144,8.161 -6.449,16.793 -9.921,25.891 h -1.352 c -0.447,-0.766 -1.088,-1.752 -1.927,-2.96 -0.846,-1.202 -1.888,-2.467 -3.116,-3.779 -1.235,-1.317 -2.668,-2.578 -4.283,-3.783 -1.631,-1.207 -3.452,-2.249 -5.472,-3.125 l 1.685,-3.614 c -2.697,-6.139 -5.556,-12.741 -8.582,-19.812 -3.024,-7.066 -6.08,-14.083 -9.158,-21.039 -3.088,-6.959 -6.09,-13.727 -9.003,-20.304 -1.726,-3.896 -3.352,-7.532 -4.883,-10.926 -1.054,-2.336 -2.064,-4.56 -3.026,-6.661 -2.577,-5.596 -4.766,-9.81 -6.558,-12.66 -1.792,-2.855 -3.088,-4.656 -3.869,-5.425 -0.139,-0.183 -0.433,-0.433 -0.866,-0.744 l 0.01,-0.013 c -0.867,-0.637 -1.734,-1.273 -2.601,-1.923 -1.881,-1.41 -3.745,-2.706 -5.59,-3.897 h 33.771 v 1.643 c -1.456,0.215 -2.997,0.469 -4.621,0.737 -1.629,0.272 -3.142,0.711 -4.547,1.317 -1.4,0.598 -2.549,1.37 -3.446,2.298 -0.895,0.927 -1.343,2.106 -1.343,3.532 0,1.242 0.319,2.959 0.945,5.134 0.588,2.04 1.447,4.482 2.588,7.346 1.566,3.829 3.142,7.632 4.708,11.407 0.269,0.649 0.542,1.311 0.815,1.971 1.316,3.184 2.67,6.49 4.067,9.936 l 23.037,54.277 16.784,-41.989 4.912,-12.288 c 0,0 0.168,-0.434 0.437,-1.127 0.933,-2.41 3.141,-8.129 4.275,-11.19 1.462,-3.943 2.748,-7.525 3.869,-10.75 1.124,-3.232 1.988,-5.968 2.608,-8.217 0.615,-2.245 0.928,-3.859 0.928,-4.843 0,-1.533 -0.536,-2.794 -1.606,-3.778 -1.06,-0.983 -2.294,-1.752 -3.696,-2.297 -1.403,-0.548 -2.75,-0.93 -4.036,-1.149 -1.294,-0.217 -2.101,-0.327 -2.441,-0.327 V -3.454 H 6.729 V -1.48 C 4.142,-1.375 1.904,-0.878 0,0" /></g><g
           transform="translate(138.6079,203.1349)"
           id="g36"><path
             id="path38"
             style="fill:#a9a9a9;fill-opacity:1;fill-rule:nonzero;stroke:none"
             d="m 0,0 c -2.42,-1.894 -4.773,-3.637 -7.067,-5.257 -4.18,-2.952 -8.149,-5.47 -11.905,-7.605 -32.268,-18.347 -48.859,-8.753 -48.859,-8.753 0,0 29.167,-18.698 66.203,5.215 1.845,1.191 3.709,2.487 5.59,3.897 0.867,0.649 1.734,1.285 2.601,1.923 l -0.01,0.013 c 0.433,0.311 0.727,0.562 0.866,0.744 0.781,0.769 2.077,2.57 3.869,5.425 1.792,2.85 3.981,7.064 6.558,12.659 0.962,2.101 1.972,4.325 3.026,6.662 C 13.842,10.327 6.839,5.35 0,0" /></g><g
           transform="translate(53.937,164.027)"
           id="g40"><path
             id="path42"
             style="fill:#6e2639;fill-opacity:1;fill-rule:nonzero;stroke:none"
             d="M 0,0 H 15.153 V -43.78 H 33.191 V -56.421 H 0 Z" /></g><g
           transform="translate(189.9785,164.027)"
           id="g44"><path
             id="path46"
             style="fill:#6e2639;fill-opacity:1;fill-rule:nonzero;stroke:none"
             d="M 0,0 H 15.153 V -43.78 H 33.19 V -56.421 H 0 Z" /></g><path
           id="path48"
           style="fill:#6e2639;fill-opacity:1;fill-rule:nonzero;stroke:none"
           d="M 106.486,107.606 H 91.333 v 56.421 h 15.153 z" /><g
           transform="translate(263.0303,130.3766)"
           id="g50"><path
             id="path52"
             style="fill:#6e2639;fill-opacity:1;fill-rule:nonzero;stroke:none"
             d="M 0,0 H -20.256 V -10.38 H 2.429 v -12.391 h -37.838 v 56.42 H 1.257 V 21.345 h -21.513 v -9.124 l 20.256,0 z" /></g><g
           transform="translate(53.937,92.8404)"
           id="g54"><path
             id="path56"
             style="fill:#6e2639;fill-opacity:1;fill-rule:nonzero;stroke:none"
             d="m 0,0 c 4.27,0.669 10.716,1.17 18.25,1.17 8.621,0 14.817,-1.17 19.087,-4.352 3.598,-2.763 5.607,-6.779 5.607,-12.306 0,-7.032 -5.274,-12.051 -9.709,-13.643 v -0.336 c 3.766,-1.589 5.773,-5.189 7.199,-10.044 1.757,-5.777 3.598,-13.98 4.687,-16.157 H 29.635 c -0.84,1.676 -2.261,6.026 -3.937,12.976 -1.505,6.779 -3.598,8.204 -8.284,8.204 h -2.429 v -21.18 l -14.985,0 z m 14.985,-23.691 h 3.934 c 5.693,0 8.958,2.847 8.958,7.033 0,4.269 -2.764,6.611 -7.786,6.697 -2.848,0 -4.353,-0.17 -5.106,-0.338 z" /></g><g
           transform="translate(157.9824,65.9693)"
           id="g58"><path
             id="path60"
             style="fill:#6e2639;fill-opacity:1;fill-rule:nonzero;stroke:none"
             d="m 0,0 c 0,-18.166 -10.883,-29.718 -28.294,-29.718 -17.495,0 -27.12,13.144 -27.12,28.795 0,16.409 10.795,29.467 28.04,29.467 C -9.208,28.544 0,15.066 0,0 m -39.427,-0.669 c 0,-10.548 4.605,-17.077 11.888,-17.077 7.283,0 11.552,7.114 11.552,17.243 0,9.711 -4.353,17.075 -11.636,17.075 -7.199,0 -11.804,-6.863 -11.804,-17.241" /></g><g
           transform="translate(208.2832,38.5953)"
           id="g62"><path
             id="path64"
             style="fill:#6e2639;fill-opacity:1;fill-rule:nonzero;stroke:none"
             d="m 0,0 c -2.177,-1.004 -7.45,-2.344 -14.229,-2.344 -21.096,0 -30.388,13.228 -30.388,28.212 0,19.921 14.563,30.05 31.391,30.05 6.529,0 11.804,-1.257 14.147,-2.511 L -2.009,41.52 c -2.512,1.004 -5.942,2.011 -10.464,2.011 -8.707,0 -16.238,-5.108 -16.238,-16.661 0,-10.296 6.11,-16.655 16.49,-16.655 3.682,0 7.786,0.753 10.128,1.673 z" /></g><g
           transform="translate(216.3945,93.5934)"
           id="g66"><path
             id="path68"
             style="fill:#6e2639;fill-opacity:1;fill-rule:nonzero;stroke:none"
             d="m 0,0 h 14.985 v -23.94 h 0.167 c 1.173,2.092 2.429,4.183 3.683,6.194 L 29.635,0 h 18.58 L 30.303,-24.026 48.887,-56.42 H 31.392 l -11.888,22.853 -4.519,-5.778 V -56.42 H 0 Z" /></g><g
           transform="translate(146.3613,164.027)"
           id="g70"><path
             id="path72"
             style="fill:#6e2639;fill-opacity:1;fill-rule:nonzero;stroke:none"
             d="m 0,0 h -35.845 v -12.641 h 10.292 v -43.78 h 15.15 v 43.78 H 0 Z" /></g><g
           transform="translate(150.3916,164.027)"
           id="g74"><path
             id="path76"
             style="fill:#6e2639;fill-opacity:1;fill-rule:nonzero;stroke:none"
             d="m 0,0 v -12.641 h 10.233 v -43.78 h 15.151 v 43.78 H 35.808 V 0 Z" /></g></g></g></g></svg>