<svg xmlns="http://www.w3.org/2000/svg" width="123.929" height="43.853"><g id="logo" transform="translate(0 -.147)" fill="#006747"><path id="Fill_1" data-name="Fill 1" d="M9.243.447q.105.269.432 1.528a5.178 5.178 0 0 1 .154 1.215h-.74a5.663 5.663 0 0 0-1.611-1.747A3.368 3.368 0 0 0 5.623.911a2.389 2.389 0 0 0-2.035 1.082 6.917 6.917 0 0 0-1.049 4.083 9.072 9.072 0 0 0 .179 2.163 5.885 5.885 0 0 0 .74 1.707 2.471 2.471 0 0 0 .895.8 3.079 3.079 0 0 0 1.53.4 2.893 2.893 0 0 0 1.729-.609 6.559 6.559 0 0 0 1.6-1.821A4.4 4.4 0 0 1 10 8.641a7.042 7.042 0 0 1-.106.7q-.025.142-.187 1.131l-.073.267-.114.418a3.291 3.291 0 0 1-1.4.63A9.883 9.883 0 0 1 5.915 12a8.378 8.378 0 0 1-1.892-.206 4.279 4.279 0 0 1-1.523-.652 5.77 5.77 0 0 1-1.458-1.394 5.448 5.448 0 0 1-.785-1.635A7.117 7.117 0 0 1 0 6.13a6.233 6.233 0 0 1 1.6-4.4A5.3 5.3 0 0 1 5.68 0a15.284 15.284 0 0 1 1.9.112 10.888 10.888 0 0 1 1.663.335" transform="translate(41 32)"/><path id="Fill_3" data-name="Fill 3" d="M5.912 12a8.5 8.5 0 0 1-1.329-.1 4.46 4.46 0 0 1-.82-.2 14.334 14.334 0 0 1-.711-.26 7.1 7.1 0 0 1-1.463-1.138 5.871 5.871 0 0 1-.936-1.314A7.977 7.977 0 0 1 .176 7.5 6.818 6.818 0 0 1 .4 3.657a5.339 5.339 0 0 1 .82-1.479A5.551 5.551 0 0 1 2.543.981 5.715 5.715 0 0 1 4.164.229 6.949 6.949 0 0 1 6.013 0a6.23 6.23 0 0 1 3.018.7 5.34 5.34 0 0 1 2.016 1.89A6.145 6.145 0 0 1 12 5.844a6.345 6.345 0 0 1-1.609 4.346A5.708 5.708 0 0 1 5.912 12zM5.7.887a2.32 2.32 0 0 0-1.287.363 2.8 2.8 0 0 0-.845.8 5.09 5.09 0 0 0-.676 1.626 9.863 9.863 0 0 0-.2 2.146 7.08 7.08 0 0 0 .059 1.1l.039.284.01.094a5.288 5.288 0 0 0 .175.968A10.433 10.433 0 0 0 3.48 9.67a3.609 3.609 0 0 0 .743.906 2.4 2.4 0 0 0 .728.424 2.533 2.533 0 0 0 .953.193 3.277 3.277 0 0 0 1.676-.452A3.15 3.15 0 0 0 8.82 9.2a7.226 7.226 0 0 0 .469-2.823c0-.476-.031-1.131-.092-1.945l-.042-.17a4.38 4.38 0 0 1-.084-.367 3.991 3.991 0 0 0-1.182-2.237A3.207 3.207 0 0 0 5.7.887z" transform="translate(52 32)"/><path id="Fill_5" data-name="Fill 5" d="M.056 10.285a5.2 5.2 0 0 1 .7-.145q.45-.069.53-.069a.65.65 0 0 0 .414-.105 1.52 1.52 0 0 0 .048-.337l-.021-1.077.048-1.094v-.7l.008-.825-.016-.875.033-1.877.008-.85v-.118a4.821 4.821 0 0 0-.108-.972 1.037 1.037 0 0 0-.458-.223L.939.892A2 2 0 0 0 .581.774.982.982 0 0 1 .191.6 4.848 4.848 0 0 1 .175.261c0-.045 0-.112.008-.2A.29.29 0 0 1 .334.017q.19 0 1.385.068L2.858.076 3.7.093q.549 0 1.409-.069A6 6 0 0 1 5.406 0a.192.192 0 0 1 .167.067.62.62 0 0 1 .064.333.428.428 0 0 1-.087.29.7.7 0 0 1-.351.1l-.987.244a1.574 1.574 0 0 0-.135.067.946.946 0 0 0-.048.1l-.008.235L4 1.97v.244q0 .042-.018.463c0 .073-.006.146-.006.219 0 .09.005.241.016.454q.024.505.024.884 0 .437-.024 1-.008.21-.008.547l-.032 3.99a.473.473 0 0 0 .079.328l.757.033.47-.009.5.009a5.287 5.287 0 0 0 2.014-.31 1.722 1.722 0 0 0 .717-.469 2.388 2.388 0 0 0 .442-.545 5.245 5.245 0 0 0 .386-.972h.253a3.059 3.059 0 0 1 .43.034v.235q0 .6-.143 2.113a3.632 3.632 0 0 1-.111.738 1.826 1.826 0 0 1-.231.034H9.22l-.414.01q-.072 0-.948-.067-.159-.008-1.521-.059t-2.667-.05l-1.624.05q-.939.025-1.759.092h-.12c-.032 0-.083 0-.152-.008A.922.922 0 0 1 0 10.8a1.7 1.7 0 0 1 .056-.513" transform="translate(65 32)"/><path id="Fill_7" data-name="Fill 7" d="M.056 10.285a5.217 5.217 0 0 1 .7-.145q.45-.069.529-.069a.651.651 0 0 0 .415-.105 1.52 1.52 0 0 0 .048-.337l-.021-1.077.048-1.094v-.7l.008-.825-.016-.875.033-1.877.008-.85v-.118a4.774 4.774 0 0 0-.108-.972 1.034 1.034 0 0 0-.458-.223L.939.892A2 2 0 0 0 .581.774.987.987 0 0 1 .191.6 5.567 5.567 0 0 1 .175.261c0-.045 0-.112.008-.2A.288.288 0 0 1 .334.017q.191 0 1.385.068L2.858.076 3.7.093c.367 0 .836-.023 1.41-.069C5.28.008 5.38 0 5.406 0a.193.193 0 0 1 .167.067.617.617 0 0 1 .064.333.428.428 0 0 1-.088.29.7.7 0 0 1-.349.1l-.988.244a1.943 1.943 0 0 0-.135.067.86.86 0 0 0-.047.1l-.009.235L4 1.97v.244c0 .028-.007.182-.019.463 0 .073-.005.146-.005.219 0 .09.005.241.015.454q.025.505.024.884 0 .437-.024 1c-.005.14-.008.322-.008.547l-.032 3.99a.467.467 0 0 0 .08.328l.756.033.469-.009.5.009a5.291 5.291 0 0 0 2.014-.31 1.723 1.723 0 0 0 .716-.469 2.4 2.4 0 0 0 .442-.545 5.2 5.2 0 0 0 .386-.972h.255a3.076 3.076 0 0 1 .431.036v.235q0 .6-.144 2.113a3.672 3.672 0 0 1-.111.738 1.822 1.822 0 0 1-.231.034H9.22L8.805 11c-.048 0-.363-.022-.947-.067q-.16-.008-1.521-.059t-2.668-.05l-1.624.05q-.939.025-1.759.092H.168c-.032 0-.083 0-.151-.008A.927.927 0 0 1 0 10.8a1.7 1.7 0 0 1 .056-.513" transform="translate(76 32)"/><path id="Fill_9" data-name="Fill 9" d="M.041 0Q.51.025.855.076a10.681 10.681 0 0 0 1.5.093q.3 0 1.521-.051Q5.714.042 7.194.042L8.682.025a12.494 12.494 0 0 1 1.48.127.667.667 0 0 1 .148.456v1.741l.017.346c0 .034 0 .084-.008.152l-.337.017c-.045 0-.138-.006-.28-.017q-.074-.17-.2-.5l-.329-.6a3.89 3.89 0 0 0-.524-.776A2.183 2.183 0 0 0 8.123.9l-.5-.042Q6.856.794 5.977.794q-1 0-1.792.034-.024.211-.025 1.664l.009 1.42v1.064A2.866 2.866 0 0 0 4.522 5Q6 5 6.623 4.942a2 2 0 0 0 .777-.164.867.867 0 0 0 .264-.367 11.835 11.835 0 0 0 .286-1.243l.107-.008.477.008c.022.5.033.882.033 1.141q0 .887-.013 1.141c-.008.169-.012.3-.012.4q0 .227.025.73t.025.748v.186h-.584c-.022-.09-.064-.276-.124-.557a3.477 3.477 0 0 0-.3-.981.6.6 0 0 0-.33-.228 6.369 6.369 0 0 0-1.219-.059q-1.244 0-1.87.068v.283q0 1.006.032 1.673l-.012 1.825a.453.453 0 0 0 .222.44 6.515 6.515 0 0 0 2.064.177 9.1 9.1 0 0 0 1.94-.177 1.923 1.923 0 0 0 .97-.566 4.336 4.336 0 0 0 .929-1.589q.255-.025.419-.025c.06 0 .151 0 .271.008l-.04.355-.048.254-.3 1.6-.146.962Q9.931 11 9.618 11q-.461 0-2.46-.084-1.407-.059-3.39-.059-.987 0-2.428.084H.995L0 10.975v-.583a4.909 4.909 0 0 1 .625-.092 3.878 3.878 0 0 0 1.184-.27 1.807 1.807 0 0 0 .09-.616c0-.1 0-.259-.008-.49L1.9 8.66l-.025-3.185.008-.954-.042-1.353.008-.954-.073-1.048A1.96 1.96 0 0 0 1.76.997a.4.4 0 0 0-.247-.118C1.452.867 1.37.851 1.266.828a5.3 5.3 0 0 0-.9-.118C.257.7.136.693 0 .675z" transform="translate(87 32)"/><path id="Fill_11" data-name="Fill 11" d="M9.684.965q.057.26.129 1.023T9.886 3.1a1.252 1.252 0 0 1-.056.33 2.614 2.614 0 0 1-.589-.071 9.378 9.378 0 0 0-.863-1.314 3.949 3.949 0 0 0-1.2-.848A2.834 2.834 0 0 0 5.932.939a2.954 2.954 0 0 0-2.373 1.339 6.491 6.491 0 0 0-1.025 3.981 7.386 7.386 0 0 0 .4 2.41 4 4 0 0 0 1.2 1.835 2.848 2.848 0 0 0 1.881.665 4.5 4.5 0 0 0 1.114-.151.9.9 0 0 0 .484-.285.788.788 0 0 0 .169-.427 12.535 12.535 0 0 0 .065-1.468q0-.925-.024-1.272a.439.439 0 0 0-.109-.173 1.515 1.515 0 0 0-.327-.129l-.721-.214a.5.5 0 0 1-.29-.15 1.3 1.3 0 0 1-.016-.17 1.559 1.559 0 0 1 .056-.348.717.717 0 0 1 .2-.053q.879 0 1.525.064c.151.011.315.016.492.016l1.277-.02.541-.018c.065-.005.245 0 .541.018.005.155.008.286.008.394a.557.557 0 0 1-.056.223 2.927 2.927 0 0 1-.468.227 1.616 1.616 0 0 0-.371.182.427.427 0 0 0-.089.223q-.024.151-.024 1.062 0 1.053-.008 1.258-.032.66-.032.749a.65.65 0 0 1-.081.41 3.57 3.57 0 0 1-1.4.567A10.567 10.567 0 0 1 5.738 12a8.237 8.237 0 0 1-1.892-.192 4.245 4.245 0 0 1-1.368-.568 5.223 5.223 0 0 1-1.3-1.215A5.153 5.153 0 0 1 .372 8.48 7.788 7.788 0 0 1 0 6.13a7.026 7.026 0 0 1 .549-2.663 5.8 5.8 0 0 1 1.134-1.756A5.275 5.275 0 0 1 3.511.465 6.069 6.069 0 0 1 5.9 0a4.93 4.93 0 0 1 .524.045 6.042 6.042 0 0 1 1.84.273 5.7 5.7 0 0 1 1.42.647" transform="translate(99 32)"/><path id="Fill_13" data-name="Fill 13" d="M.041 0Q.51.025.855.076a10.681 10.681 0 0 0 1.5.093q.3 0 1.521-.051Q5.714.042 7.194.042L8.682.025a12.494 12.494 0 0 1 1.48.127.665.665 0 0 1 .148.456v1.741l.017.346c0 .034 0 .084-.008.152l-.337.017c-.045 0-.138-.006-.28-.017q-.074-.17-.2-.5l-.329-.6a3.89 3.89 0 0 0-.524-.776A2.183 2.183 0 0 0 8.123.9l-.5-.042Q6.856.794 5.977.794q-1 0-1.792.034-.024.211-.025 1.664l.009 1.42v1.064A2.871 2.871 0 0 0 4.522 5Q6 5 6.623 4.942a2 2 0 0 0 .777-.164.867.867 0 0 0 .264-.367 11.728 11.728 0 0 0 .286-1.243l.107-.008.477.008c.022.5.033.882.033 1.141q0 .887-.013 1.141c-.008.169-.012.3-.012.4q0 .227.025.73t.025.748v.186h-.584c-.022-.09-.063-.276-.124-.557a3.486 3.486 0 0 0-.3-.981.6.6 0 0 0-.33-.228 6.366 6.366 0 0 0-1.219-.059q-1.244 0-1.87.068v.283q0 1.006.032 1.673l-.012 1.825a.453.453 0 0 0 .222.44 6.517 6.517 0 0 0 2.064.177 9.1 9.1 0 0 0 1.94-.177 1.923 1.923 0 0 0 .97-.566 4.331 4.331 0 0 0 .929-1.589c.17-.017.31-.025.419-.025.06 0 .151 0 .271.008l-.04.355-.048.254-.3 1.6-.146.962c-.357.017-.64.025-.848.025q-.462 0-2.46-.084-1.407-.059-3.39-.059-.987 0-2.428.084H.995L0 10.975v-.583a4.921 4.921 0 0 1 .625-.092 3.875 3.875 0 0 0 1.184-.27 1.8 1.8 0 0 0 .09-.616c0-.1 0-.259-.008-.49L1.9 8.66l-.025-3.185.008-.954-.04-1.352.008-.954-.075-1.049A1.96 1.96 0 0 0 1.76.997a.4.4 0 0 0-.247-.118C1.452.867 1.37.851 1.266.828a5.29 5.29 0 0 0-.9-.118C.257.7.137.693 0 .675z" transform="translate(111 32)"/><path id="Fill_15" data-name="Fill 15" d="M1.831 3.174c2.354-.194 4.115.553 4.488 6.008l1.587 17.785c-1.584 2.5-3.961 5.13-5.318 7.127C1.226 36.11 0 37.739 0 37.739s.131 2.782.494 3.085 2.513.12 2.513.12c.687.051.873-1.851.873-1.851l.2-1.789c.519-2.027 2.428-4.162 4.325-6.768l15.29-20.814c1.42-1.97 3.794-5.058 3.217-6.334-.163-.318-.664-3.533-1.438-3.383l-2.488.448-.125 4.213c0 1.117-.627 3.212-2.541 6.226l-7.188 9.982-1.556-17.867c-.076-2.744-.69-2.9-2.06-2.9L1.363 2.074 1.7 3.228" transform="translate(0 2)"/><path id="Fill_17" data-name="Fill 17" d="M5.724 19l9.019-12.369c.97-1.329 2.591-3.409 2.2-4.271l-.9-1.889A.66.66 0 0 0 15.431 0l-1.054.245c-.321.078-.577.181-.577.645V3.2a7.162 7.162 0 0 1-1.55 4.154l-4.69 6.732H7.5l-.832-12C6.561 1.285 6.635 0 5.7 0L0 1.655l.326 1.03C2.269 2.546 2.234 3.8 2.451 6.34c.331 4.158.459 8.509.821 12.66z" transform="translate(41 8)"/><path id="Fill_19" data-name="Fill 19" d="M1.682 2.817c.474-.116.08-.062.435-.062.851 0 .6.838.43 1.669L.262 14.832a5.085 5.085 0 0 0-.071 3A2.089 2.089 0 0 0 1.723 19l5.389-2.81-.3-1.02-.167.056a2.609 2.609 0 0 1-1.034.326c-.5 0-.567-.646-.179-2.46L7.881 1.745C8.1.766 8.1-.07 7.067 0L1.449 1.855z" transform="translate(115 8)"/><path id="Fill_21" data-name="Fill 21" d="M2.4 5.513A3.176 3.176 0 0 0 5.635 2.74 2.288 2.288 0 0 0 3.223 0a3.084 3.084 0 0 0-3.2 2.74A2.306 2.306 0 0 0 2.4 5.513" transform="translate(118.268 .147)"/><path id="Fill_24" data-name="Fill 24" d="M12.593 18a2.033 2.033 0 0 1-1.513-1.12 4.607 4.607 0 0 1 .107-2.9l.952-3.785-.139-.079a23.823 23.823 0 0 1-4.582 5.572c-1.653 1.443-3.177 2.238-4.289 2.238A2.66 2.66 0 0 1 .734 16.34 7.438 7.438 0 0 1 0 12.919a12.82 12.82 0 0 1 3.494-8.787A14.311 14.311 0 0 1 14.165 0H19l-2.905 12.957a1.777 1.777 0 0 0 .034 1.435.587.587 0 0 0 .492.209 2.626 2.626 0 0 0 1.106-.348l.38.936L12.593 18zM11.08 1.508c-2.675.04-4.2 2.223-5 4.047a16 16 0 0 0-1.28 5.96c.036 1.265.249 2.947 1.684 2.947 1.778 0 6.041-6.054 7.548-12.953z" transform="translate(56 9)"/><path id="Fill_26" data-name="Fill 26" d="M12.586 18a2.039 2.039 0 0 1-1.511-1.119 4.648 4.648 0 0 1 .106-2.9l.95-3.789-.14-.073A23.915 23.915 0 0 1 7.408 15.7c-1.652 1.444-3.175 2.239-4.289 2.239a2.655 2.655 0 0 1-2.388-1.592A7.467 7.467 0 0 1 0 12.926a12.832 12.832 0 0 1 3.493-8.79A14.31 14.31 0 0 1 14.168 0H19l-2.912 12.963c-.2.793-.211 1.294-.027 1.531a.458.458 0 0 0 .384.164 2.418 2.418 0 0 0 1.008-.332l.351-.2.465 1.341L12.586 18zM11.075 1.5c-2.679.041-4.2 2.227-5 4.054a15.99 15.99 0 0 0-1.264 5.97c.043 1.979.592 2.94 1.678 2.94 1.774 0 6.03-6.059 7.534-12.964z" transform="translate(22 9)"/><path id="Fill_28" data-name="Fill 28" d="M12.584 18a2.018 2.018 0 0 1-1.507-1.122 4.566 4.566 0 0 1 .114-2.909l.938-3.777-.14-.072a23.675 23.675 0 0 1-4.576 5.573C5.76 17.135 4.236 17.93 3.122 17.93a2.658 2.658 0 0 1-2.389-1.585A7.437 7.437 0 0 1 0 12.926a12.833 12.833 0 0 1 3.493-8.793A14.307 14.307 0 0 1 14.164 0H19l-2.91 12.96a1.786 1.786 0 0 0 .036 1.439.583.583 0 0 0 .487.208 2.607 2.607 0 0 0 1.105-.351l.294.987L12.584 18zM11.076 1.5c-2.677.038-4.2 2.223-5 4.05a16.048 16.048 0 0 0-1.269 5.975c.041 1.975.593 2.935 1.681 2.935 1.774 0 6.031-6.057 7.536-12.96z" transform="translate(94 8)"/><path id="Fill_30" data-name="Fill 30" d="M.554 32L0 31.081c.006 0 .619-.264 1.107-1.718.841-2.544 4.6-21.263 4.638-21.455L4.3 8.754 3.978 7.59 6.09 6.456l1.115-5.04L12.092 0l-.968 4.323 2.373-1.1A9.8 9.8 0 0 1 17.5 2.2a3.028 3.028 0 0 1 3.059 2.086A8.983 8.983 0 0 1 21 7.439v.048a14 14 0 0 1-1.015 5.351 12.146 12.146 0 0 1-2.737 4.081 12.44 12.44 0 0 1-8.781 3.516c-.286 0-.576-.009-.863-.028 0 0 0 .019-.01.051-.173.843-.779 3.743-1.3 5.681H6.1l-1.132.01c-1.1-.063-1.357-.071-1.453-.071a.855.855 0 0 0-.446.124l-.266.157-.019.312c-.006.1-.009.186-.009.245 0 .1.006.227.017.392l.017.235.172.158a1.562 1.562 0 0 0 .67.323 1.411 1.411 0 0 1 .263.089l.351.147c.044.014.087.029.132.047.018.165.035.379.051.637l-.005.394A21.466 21.466 0 0 1 .554 32zm13.88-27.711a7.094 7.094 0 0 0-3.641 1.526L7.922 18.94a3.457 3.457 0 0 0 1.38.209c3.44 0 7.142-3.579 7.142-11.435 0-2.114-.77-3.425-2.01-3.425z" transform="translate(73 6)"/></g></svg>