<?xml version="1.0" encoding="UTF-8" standalone="no"?>
<svg xmlns:rdf="http://www.w3.org/1999/02/22-rdf-syntax-ns#" xmlns="http://www.w3.org/2000/svg" xml:space="preserve" height="72.204" viewBox="0 0 337.57812 72.203789" width="337.58" version="1.1" xmlns:cc="http://creativecommons.org/ns#" xmlns:dc="http://purl.org/dc/elements/1.1/"><g transform="matrix(1.25 0 0 -1.25 -585.34 611)"><g transform="translate(.63395 .63395)"><path d="m33.781 0.41797c-1.1438-0.06-1.9564 0.92031-2.0664 1.9766l-0.295 4.9179h-30.627v63.307h63.305v-63.307h-27.959l-0.29297-4.9082v-0.00977c-0.109-1.0562-0.924-2.0365-2.065-1.9765zm0 1.5664c0.37375 0 0.4832 0.27531 0.50195 0.53906l0.40234 6.7207h27.479v59.441h-59.439v-59.441h28.582l-0.24219 4.0117c-3.5412 0.82375-9.215 3.4499-15.031 11.42-0.11 0.13-0.48008 0.43852-1.0801 0.75977-2.4925 1.3312-6.9043 2.3125-6.9043 2.3125l4.2305 7.3516-2.6426 30.262h1.5723l2.6738-30.615-3.4512-5.9941s5.6045-1.4373 6.8633-3.1523c6.38-8.705 12.29-10.592 15.26-11.031l0.719-12.047c0.022-0.2633 0.129-0.5386 0.506-0.5386zm0.36523 14.184c-0.80626 0.01922-1.4397 0.14391-1.6445 0.17578-4.3112 0.67875-8.4045 3.0051-13.551 10.299-0.0325 0.0425-0.06516 0.08711-0.09766 0.13086l15.344-3.0195 0.22266 0.39844-21.076 5.7207 1.8945 3.2949 22.416-4.4082 0.2207 0.39648-22.029 5.9785-2.6426 30.227h2.0469l2.4785-27.766 22.875-4.4961 0.22461 0.39453-21.084 5.7188-2.2598 26.148h3.7773l0.125-1.5664 15.193-2.7402-0.04687 1.2402-14.023 2.5352-0.69336 0.53125h5.3281 0.002l9.3457-1.6855-0.04492 1.2402-2.4707 0.44531h6.2266l0.57617-15.039 0.3125-0.02539 1.0449 15.064h3.5195l-3.1211-35.723 1.2441-5.248c-3.0675-0.70625-3.5108-4.0349-5.3633-6.5137-1.1047-1.4797-2.9258-1.741-4.2695-1.709zm0.92969 22.152c0.10799 0.0059 0.23125 0.02656 0.36719 0.07031 0.545 0.18 1.1762 0.69016 1.625 1.1289 1.5112 1.47 2.3788 3.5829 2.375 5.9316-0.005 2.6662-1.0879 5.1922-2.7754 7.1797-1.6938 1.9875-4.0282 3.4791-6.6895 3.9941-0.63875 0.12-1.2645 0.18094-1.877 0.17969-2.2612-0.0013-4.35-0.82859-5.8438-2.3086-0.6775-0.6675-1.0145-1.0785-1.4258-1.9785-0.26625-0.55875 0.09375-1 0.09375-1 0.36125 0.77625 0.84711 1.4672 1.4434 2.0547 1.3625 1.35 3.2674 2.1172 5.3574 2.1172 0.57125 0.0012 1.1691-0.05547 1.7578-0.16797 2.4838-0.48 4.6765-1.8773 6.2715-3.7461 1.59-1.8712 2.5946-4.2334 2.5996-6.7109 0.005-2.175-0.80578-4.1069-2.1758-5.4531-0.47875-0.47375-1.0222-0.87156-1.6172-1.1953 0 0 0.18971-0.11328 0.51367-0.0957zm-4.201 0.315c3.6213 0.03158 6.3457 2.6552 6.3457 6.4297 0 4.315-3.5585 8.4922-7.9473 9.3359-4.3875 0.84375-7.9453-1.9707-7.9453-6.2832s3.5578-8.4927 7.9453-9.334c0.54859-0.10547 1.0842-0.15295 1.6016-0.14844zm5.8809 17.176-0.04492 1.2402-4.0996 0.74024c1.1462-0.46375 2.2074-1.0759 3.1699-1.8047l0.97461-0.17578zm-12.703 2.293c1.0488 0.3775 2.161 0.59367 3.291 0.63867l-4.4219 0.80078-1.2852 0.98828 0.16602-2.0215 2.25-0.40625zm12.617 0.32812-0.04492 1.2422-13.912 2.5117-1.2812 0.98828 0.16406-2.0215 15.074-2.7207z" transform="matrix(.8 0 0 -.8 467.64 487.54)" fill="#fff"/><path d="m34.883 12.568 0.11133 1.832c6.54 0.08625 9.5088 4.7341 10.361 6.4629 0.48 0.97125 1.5581 2.7688 4.2969 2.4551l7.2715 12.184-5.2402 5.3828 1.9141 24.479c2.2225 0 5.2441-0.0012 5.2441 0v-52.795h-23.959zm37.58 37.57v1.8496h263.77v-1.8496h-263.77z" transform="matrix(.8 0 0 -.8 467.64 487.54)" fill="#fbe004"/><path d="m33.781 1.9844c-0.37625 0-0.48391 0.27531-0.50391 0.53906l-0.722 12.044c-2.97 0.43875-8.8785 2.3262-15.26 11.031-1.2575 1.715-6.8613 3.1523-6.8613 3.1523l3.4492 5.9941-2.6738 30.615h-1.5742l2.6445-30.262-4.2305-7.3516s4.4118-0.98125 6.9043-2.3125c0.6-0.32125 0.96938-0.62977 1.0781-0.75977 5.8162-7.97 11.494-10.596 15.035-11.42l0.24219-4.0117h-28.584v59.441h59.439v-59.441h-27.48l-0.40039-6.7207c-0.02-0.2613-0.128-0.5366-0.502-0.5366zm47.631 6.8535-9.6211 14.322h2.3613l1.8027-2.6934h11.137l1.8496 2.6934h2.4727l-9.8223-14.322h-0.17969zm66.279 0-9.6211 14.322h2.3613l1.8027-2.6934h11.137l1.8496 2.6934h2.4727l-9.8242-14.322h-0.17773zm66.145 0-9.6211 14.322h2.3594l1.8066-2.6934h11.135l1.8496 2.6934h2.4707l-9.8242-14.322h-0.17578zm93.219 0.17969c-5.4125 0-9.5566 2.4277-9.5566 7.2402 0 4.9 4.0991 7.1699 9.5566 7.1699 3.63 0 6.1014-0.73492 7.8164-2.2949l-1.2695-1.5137c-1.09 1.0462-2.8268 2.0059-6.5918 2.0059-4.5212 0-7.1074-1.7596-7.1074-5.4121 0-3.5638 2.5862-5.3926 7.1074-5.3926 3.4525 0 5.0541 0.71344 6.3691 1.8047l1.2695-1.5371c-1.7362-1.4463-4.1412-2.0703-7.5938-2.0703zm-115.32 0.00195c-4.745 0-7.6172 1.4898-7.6172 4.2285 0 2.5175 2.0709 3.4094 5.6797 3.6094l4.3887 0.19922c2.85 0.135 4.0977 0.51242 4.0977 1.9824 0 1.515-1.6947 2.5625-5.8359 2.5625-3.965 0-6.3256-1.0238-7.6406-1.8926l-1.1582 1.6699c1.915 1.2475 4.5001 2.0488 8.7988 2.0488 4.5212 0 8.1738-1.292 8.1738-4.5645 0-2.8975-2.407-3.6103-6.082-3.7891l-4.39-0.199c-2.56-0.11125-3.7637-0.51219-3.7637-1.8047 0-1.425 1.7145-2.2246 5.3457-2.2246 3.7188 0 5.5885 0.71141 7.1035 1.5352l0.9375-1.7363c-1.7588-0.9575-3.9435-1.625-8.041-1.625zm43.51 0c-4.745 0-7.6172 1.4898-7.6172 4.2285 0 2.5175 2.0709 3.4094 5.6797 3.6094l4.3887 0.19922c2.85 0.135 4.0957 0.51242 4.0957 1.9824 0 1.515-1.6927 2.5625-5.834 2.5625-3.9638 0-6.3281-1.0238-7.6406-1.8926l-1.1562 1.6699c1.915 1.2475 4.4981 2.0488 8.7969 2.0488 4.5212 0 8.1738-1.292 8.1738-4.5645 0-2.8975-2.407-3.6103-6.082-3.7891l-4.39-0.199c-2.56-0.11125-3.7617-0.51219-3.7617-1.8047 0-1.425 1.7125-2.2246 5.3438-2.2246 3.7188 0 5.5905 0.71141 7.1055 1.5352l0.93555-1.7363c-1.76-0.9575-3.9435-1.625-8.041-1.625zm-72.959 0.019531v14.121h2.293v-10.09l14.01 10.424h0.15625v-14.232h-2.2949v10.023l-13.965-10.246h-0.19922zm-66.279 0.22266v13.9h2.2949v-5.5254h6.7031l5.0117 5.5254h2.7402l-5.1016-5.6367c3.0962-0.37875 4.7441-1.7598 4.7441-4.1211 0-2.9175-2.2954-4.1426-6.6816-4.1426h-9.7109zm21.854 0v13.898h2.2949v-3.6973l4.3203-3.0957 7.418 6.793h3.1406l-8.7988-8.041 8.1758-5.8574h-3.0527l-11.203 8.041v-8.041h-2.2949zm138.89 0v1.9609h7.2617v11.938h2.2949v-11.938h7.2598v-1.9609h-16.816zm21.678 0v13.9h14.789v-1.9824h-12.496v-4.2109h8.5996v-1.8945h-8.5996v-3.8301h11.916v-1.9824h-14.209zm41.215 0v13.898h2.2949v-6.0801h12.139v6.0801h2.2949v-13.898h-2.2949v5.8359h-12.139v-5.8359h-2.2949zm-221.34 1.8926h7.1699c3.185 0 4.5664 0.51359 4.5664 2.3398 0 1.825-1.5376 2.3613-4.5664 2.3613h-7.1699v-4.7012zm-16.846 1.1152 4.3438 6.3242h-8.5977l4.2539-6.3242zm66.277 0 4.3457 6.3242h-8.5977l4.252-6.3242zm66.146 0 4.3438 6.3242h-8.5977l4.2539-6.3242zm-179 0.29883h23.957v52.795c0-0.0012-3.019-0.002-5.2402-0.002l-1.913-24.478 5.24-5.381-7.272-12.184c-2.7388 0.31375-3.8188-1.4838-4.2988-2.4551-0.85125-1.7288-3.8201-6.3766-10.361-6.4629l-0.10938-1.832zm-0.73633 3.5996c1.3441-0.03208 3.1648 0.23008 4.2695 1.709 1.8525 2.48 2.2958 5.8074 5.3633 6.5137l-1.2441 5.248 3.1211 35.723h-3.5215l-1.0449-15.064-0.31055 0.02539-0.57617 15.039h-6.2266l2.4688-0.44531 0.04688-1.2402-9.3457 1.6855h-0.002-5.3281l0.69336-0.5332 14.025-2.5332 0.04492-1.2402-15.191 2.7422-0.125 1.5645h-3.7773l2.2598-26.146 21.082-5.7207-0.22461-0.39453-22.875 4.4961-2.4785 27.766h-2.0449l2.6407-30.227 22.032-5.983-0.223-0.394-22.414 4.41-1.894-3.297 21.076-5.721-0.223-0.398-15.345 3.019c0.03375-0.04375 0.06836-0.08836 0.09961-0.13086 5.147-7.293 9.238-9.618 13.548-10.296 0.20484-0.03234 0.84001-0.15849 1.6465-0.17773zm158.07 14.158c-4.745 0-7.6191 1.4917-7.6191 4.2305 0 2.5175 2.0722 3.4081 5.6797 3.6094l4.3867 0.19922c2.8512 0.13375 4.0996 0.51117 4.0996 1.9824 0 1.5138-1.6927 2.5625-5.834 2.5625-3.965 0-6.3269-1.0245-7.6406-1.8945l-1.1602 1.6699c1.9175 1.2475 4.5008 2.0508 8.8008 2.0508 4.52 0 8.1738-1.2907 8.1738-4.5645 0-2.8962-2.4058-3.6103-6.082-3.7891l-4.3867-0.19922c-2.5612-0.1125-3.7656-0.51344-3.7656-1.8047 0-1.4262 1.7152-2.2266 5.3476-2.2266 3.7188 0 5.5885 0.71336 7.1035 1.5371l0.93555-1.7383c-1.7588-0.9575-3.9416-1.625-8.0391-1.625zm-98.635 0.02148v14.121h2.293v-10.09l14.01 10.424h0.15625v-14.232h-2.293v10.023l-13.969-10.246h-0.19726zm-20.922 0.22266v7.9961c0 4.2762 2.9175 6.1699 8.5312 6.1699 5.6112 0 8.4395-1.9386 8.4395-6.2148v-7.9512h-2.293v7.7949c0 3.23-1.5364 4.5664-6.1914 4.5664-4.6562 0-6.1934-1.3588-6.1934-4.6113v-7.75h-2.293zm42.91 0v13.898h2.2949v-13.898h-2.2949zm6.2422 0 9.8242 14.322h0.17773l9.6211-14.322h-2.4726l-7.1934 10.781-7.2617-10.781h-2.6953zm23.348 0v13.898h14.791v-1.9824h-12.496v-4.209h8.5996v-1.8945h-8.5996v-3.8301h11.916v-1.9824h-14.211zm19.252 0v13.898h2.2949v-5.5234h6.7031l5.0117 5.5234h2.7383l-5.0996-5.6348c3.0962-0.3775 4.7442-1.7586 4.7442-4.1211 0-2.9175-2.2934-4.1426-6.6797-4.1426h-9.7129zm41.217 0v13.898h2.2949v-13.898h-2.2949zm6.5117 0v1.9609h7.2598v11.938h2.2949v-11.938h7.2617v-1.9609h-16.816zm19.094 0 7.8418 8.3301v5.5684h2.293v-5.5449l7.4824-8.3535h-2.5606l-5.9922 6.6387-6.2148-6.6387h-2.8496zm-64.527 1.8945h7.1699c3.185 0 4.5664 0.51164 4.5664 2.3379 0 1.8275-1.5377 2.3613-4.5664 2.3613h-7.1699v-4.6992zm-131.61 5.856c-0.32361-0.01775-0.51367 0.0957-0.51367 0.0957 0.59375 0.32375 1.1397 0.72156 1.6172 1.1953 1.37 1.3462 2.1808 3.2781 2.1758 5.4531-0.0037 2.4762-1.0116 4.8397-2.6016 6.7109-1.595 1.8688-3.7838 3.2648-6.2676 3.7461-0.59 0.1125-1.1898 0.17117-1.7598 0.16992-2.0912 0-3.9949-0.76914-5.3574-2.1191-0.595-0.5875-1.0828-1.2784-1.4453-2.0547 0 0-0.35805 0.44-0.0918 1 0.41125 0.89875 0.74828 1.311 1.4258 1.9785 1.4925 1.4788 3.5838 2.3073 5.8438 2.3086 0.61375 0.0012 1.2375-0.05969 1.875-0.17969 2.6612-0.515 4.9977-2.0079 6.6914-3.9941 1.6888-1.9875 2.7697-4.5122 2.7734-7.1797 0.005-2.3475-0.8618-4.4604-2.373-5.9316-0.4475-0.4375-1.082-0.94891-1.627-1.1289-0.13594-0.04406-0.25736-0.06439-0.36523-0.07031zm-4.201 0.315c-0.51729-0.0045-1.051 0.04297-1.5996 0.14844-4.3888 0.8425-7.9453 5.0222-7.9453 9.3359 0 4.3112 3.5566 7.125 7.9453 6.2812 4.3888-0.84375 7.9453-5.0209 7.9453-9.3359 0-3.7745-2.7247-6.3981-6.3457-6.4297zm5.8809 17.176-0.97461 0.17773c-0.96375 0.72875-2.0237 1.339-3.1699 1.8027l4.0996-0.74024 0.04492-1.2402zm-12.703 2.293-2.25 0.40625-0.16602 2.0195 1.2852-0.98633 4.4219-0.79883c-1.13-0.045-2.2423-0.26188-3.291-0.64062zm12.617 0.32812-15.076 2.7207-0.16211 2.0215 1.2832-0.98828 13.91-2.5137 0.04492-1.2402z" transform="matrix(.8 0 0 -.8 467.64 487.54)" fill="#00533e"/></g></g></svg>
