<svg xmlns="http://www.w3.org/2000/svg" xmlns:xlink="http://www.w3.org/1999/xlink" viewBox="0 0 668.74 336.96">
<path d="M449.4,128.29c-12.93,0-35.38,10.62-35.38,35.39s22.45,32.82,35.38,32.82c11.59,0,35.26-7.93,35.26-32.82C484.66,136,461,128.29,449.4,128.29Zm0,62.6c-7.08,0-10.74-14-11-27.21,0-16.84,3.9-30.26,11-30.26,7.44,0,11.47,17.81,11.47,30.26C460.87,176.61,457,190.89,449.4,190.89Z" style="fill:##0d2d7c"/>
<path d="M310.26,122.31a12.81,12.81,0,1,0-12.81-12.81A12.7,12.7,0,0,0,310.26,122.31Z" style="fill:##0d2d7c"/>
<path d="M403.69,99a1.09,1.09,0,0,0-1.6-1L377,111a26.3,26.3,0,0,1,1.18,8.17V181c0,7.19-1.31,11.67-2.62,14.36h2.63v0h25.51v0h2.58c-1.21-2.47-2.4-6.49-2.58-12.71Z" style="fill:##0d2d7c"/>
<path d="M27.48,150c-1.22-17.08,4.15-34.65,14.4-35.75,8.54,0,14.24,10.48,10.6,30.42-.08.44-.29,1.45.29,1.13l21.16-10.88a2.39,2.39,0,0,0,1.3-2.19l0-1.52c0-14-12.2-21.6-28.92-21.6-27.94,0-46.24,15.13-46.24,46,0,22,11.1,34.53,27,39a54.83,54.83,0,0,0,14.4,1.83A39.45,39.45,0,0,0,52.25,195c11.11-3.17,20-10.73,24.28-18.3l-3.41-2.56C43.22,195.89,29.19,173.44,27.48,150Z" style="fill:##0d2d7c"/>
<path d="M145.35,181v-9.91h0V154c0-16.48-12.2-25.87-30-25.87-18.85,0-30.22,10-28.35,25a1.31,1.31,0,0,0,1.89,1l17.19-8.84a1.5,1.5,0,0,0,.8-1.46c-.35-5.43,1.93-10.67,6.39-10.67,5.13,0,6.35,3.3,6.47,7.93v11.23s-35.87,4.51-35.87,27.09c0,10.86,7.56,16.59,18.06,16.59,8.9,0,14.15-4.52,17.69-9.76v9.13h25.47v0H148C146.65,192.65,145.35,188.17,145.35,181Zm-25.63-1c-6.47,9.77-15.62,4.64-12.57-7.19,2.44-10.13,12.57-14.77,12.57-14.77Z" style="fill:##0d2d7c"/>
<path d="M363,99a1.09,1.09,0,0,0-1.6-1l-25.09,13a26.3,26.3,0,0,1,1.18,8.17V181c0,7.19-1.31,11.67-2.62,14.36h2.63v0H363v0h2.58c-1.21-2.47-2.4-6.49-2.58-12.71Z" style="fill:##0d2d7c"/>
<path d="M297,181c0,7.19-1.31,11.67-2.62,14.36H297v0h25.5v0h2.58c-1.2-2.47-2.39-6.49-2.58-12.71v-57a1.09,1.09,0,0,0-1.6-1l-25.09,13a26,26,0,0,1,1.19,8.17Z" style="fill:##0d2d7c"/>
<path d="M242.64,181c0,7.19-1.31,11.67-2.62,14.36h2.64v0h25.5v0h2.58c-1.21-2.47-2.4-6.49-2.58-12.71V152.28c3.7-4.49,10.87-4.76,16.21-2V128.36c-7.39,1.49-13,6.63-16.21,11.42v-14.2a1.09,1.09,0,0,0-1.6-1l-25.09,13a26.27,26.27,0,0,1,1.19,8.17Z" style="fill:##0d2d7c"/>
<path d="M159.5,181c0,7.19-1.31,11.67-2.62,14.36l21,.22c4.41.11,8.7.21,9.38.21,18.25-.18,31.54-2.32,39.72-17.09a42.68,42.68,0,0,0,5-22.81c0-10-3.91-17.09-9.15-21.6a25.28,25.28,0,0,0-16.11-6.35c-9.73,0-18.5,4.25-21.69,8.15V99a1.09,1.09,0,0,0-1.6-1l-25.09,13a26,26,0,0,1,1.19,8.17ZM185,143.4c4.19-3.65,20-6,20,19,0,21.9-11.22,29.17-19,28.1a40.83,40.83,0,0,1-.95-7.92Z" style="fill:##0d2d7c"/>
<path d="M291,235.25c-12.94,0-35.39,10.62-35.39,35.39s22.45,32.82,35.39,32.82c11.59,0,35.26-7.93,35.26-32.82C326.28,242.94,302.61,235.25,291,235.25Zm0,62.6c-7.08,0-10.74-14-11-27.21,0-16.84,3.91-30.26,11-30.26,7.44,0,11.47,17.81,11.47,30.26C302.49,283.57,298.58,297.85,291,297.85Z" style="fill:##0d2d7c"/>
<path d="M403.69,205.93a1.09,1.09,0,0,0-1.6-1L377,218a26.23,26.23,0,0,1,1.18,8.16v61.77c0,7.19-1.31,11.67-2.62,14.36h2.63v0h25.51v0h2.58c-1.21-2.47-2.4-6.49-2.58-12.7Z" style="fill:##0d2d7c"/>
<path d="M199.19,257c-1.22-17.08,4.15-34.65,14.4-35.75,8.54,0,14.25,10.49,10.6,30.42-.08.44-.29,1.45.29,1.13l21.16-10.88a2.39,2.39,0,0,0,1.3-2.19l0-1.52c0-14-12.2-21.59-28.92-21.59-27.94,0-46.24,15.13-46.24,46,0,22,11.1,34.53,27,39a54.7,54.7,0,0,0,14.39,1.83A39.73,39.73,0,0,0,224,302c11.11-3.18,20-10.74,24.28-18.31l-3.41-2.56C214.93,302.85,200.9,280.4,199.19,257Z" style="fill:##0d2d7c"/>
<path d="M363,205.93a1.09,1.09,0,0,0-1.6-1l-25.09,13a26.23,26.23,0,0,1,1.18,8.16v61.77c0,7.19-1.31,11.67-2.62,14.36h2.63v0H363v0h2.58c-1.21-2.47-2.4-6.49-2.58-12.7Z" style="fill:##0d2d7c"/>
<path d="M449.4,288h0a23.17,23.17,0,0,1-8-8.4l8-4.11h0l30.83-15.85a2.23,2.23,0,0,0,1.21-2l0-1.42c0-13-16.47-20.89-32-20.89-12.93,0-35.38,10.62-35.38,35.39s22.45,32.82,35.38,32.82h0a36.72,36.72,0,0,0,10.1-1.36c10.32-3,18.6-10,22.57-17l-3.18-2.38C466.32,291.84,456.45,292.16,449.4,288Zm-12.93-27.71c0-19.86,12.93-19.6,12.93-19.6h0s11.19-.87,11.19,22l-11.19,5.76-10.6,5.45A41.26,41.26,0,0,1,436.47,260.24Z" style="fill:##0d2d7c"/>
<path d="M626.69,282.7c-12.58,9.14-22.45,9.46-29.5,5.25h0a23.25,23.25,0,0,1-8-8.4l8-4.11h0L628,259.59a2.23,2.23,0,0,0,1.21-2l0-1.42c0-13-16.47-20.89-32-20.89-12.93,0-35.38,10.62-35.38,35.39s22.45,32.82,35.38,32.82h0a36.72,36.72,0,0,0,10.1-1.36c10.32-3,18.6-10,22.57-17Zm-42.43-22.46c0-19.86,12.93-19.6,12.93-19.6h0s11.2-.87,11.2,22l-11.2,5.76-10.6,5.45A41.26,41.26,0,0,1,584.26,260.24Z" style="fill:##0d2d7c"/>
<path d="M522.34,289.28a48,48,0,0,1-11.29-1.57c-2.72-1-4.47-2.76-4.48-4.95,0-1.58,1.36-2.61,2.73-3.38a34.23,34.23,0,0,0,13.06,2.54c16,0,29-10.57,29-23.61a20.38,20.38,0,0,0-4.15-12.18l5-2.35a.74.74,0,0,0,.74-.74V230.9a.74.74,0,0,0-1.26-.52l-15,7.41a33.92,33.92,0,0,0-14.32-3.09c-16,0-29,10.57-29,23.61,0,7.18,3.94,13.61,10.15,17.94,0,0-3.55,2.13-3.55,2.15-3,1.89-6,4.42-5.95,10.38a12.15,12.15,0,0,0,3.35,8.87,12,12,0,0,0,1.46,1.27l.44.32c-5.08,2-10.15,6.3-10.13,13.74,0,16.95,17.3,24,33.3,23.94,14.1,0,33.21-6.7,33.17-23.69C555.6,302.55,546.47,289.22,522.34,289.28Zm-.14-49.69c4.54,0,7.58,9.38,7.64,18.12-.12,11.17-3.51,20-8.06,20-4.78-.05-8-11.89-7.94-20.15C513.94,249,517.34,239.54,522.2,239.59Zm1.64,81.81c-10.12,0-27.52,0-27.55-12.19,0-4.92,2.46-6.74,5.62-8A25.45,25.45,0,0,0,513,304.35a57,57,0,0,0,7.77.46c18,0,27.87,3.61,27.89,8.43C548.71,320.54,533.8,321.37,523.84,321.4Z" style="fill:##0d2d7c"/>
<path d="M558.44,0,497.31,31.81v85.46c0,23.84,8.71,44.13,25.18,58.67,15.42,13.61,36.89,21.11,60.45,21.13H583c23.56,0,45-7.36,60.39-20.72,16.54-14.36,25.28-34.5,25.28-58.26V0ZM662.16,118.09c0,21.82-8,40.26-23,53.35C624.92,183.77,605,190.56,583,190.56h0c-22,0-41.92-6.94-56.16-19.5-15-13.27-23-31.87-23-53.79V35.63L560.13,6.51h102Z" style="fill:#78bde8"/>
<path d="M559,148H554.6v1.52c0,.42-.11.53-.53.53H551v4.06h3.59v8.77h-3.09V167H562v-4.05h-3Z" style="fill:#78bde8"/>
<path d="M577.85,149.71a6.93,6.93,0,0,0-2.33-1.44,9.4,9.4,0,0,0-6,0,6.44,6.44,0,0,0-2.29,1.38,5.74,5.74,0,0,0-1.49,2.16,7.49,7.49,0,0,0-.5,2.74,7.13,7.13,0,0,0,.47,2.53,6.21,6.21,0,0,0,1.34,2.14,6.34,6.34,0,0,0,2.05,1.44,6.48,6.48,0,0,0,2.66.53h.32L568.42,167h5l4.12-6.5a28.44,28.44,0,0,0,1.56-2.72,6.78,6.78,0,0,0,.7-3.06,7.55,7.55,0,0,0-.5-2.75A6.19,6.19,0,0,0,577.85,149.71Zm-3.25,6.83h0a3.39,3.39,0,0,1-4.18,0,3,3,0,0,1,0-4,3.36,3.36,0,0,1,4.18,0,3,3,0,0,1,0,4Z" style="fill:#78bde8"/>
<path d="M595.71,155.62a5.6,5.6,0,0,0-2-1.34,7.54,7.54,0,0,0-4.57-.23,5.08,5.08,0,0,0-.8.3l.24-2.26h7.87V148h-11.7l-1.12,11.24h4l.14-.24a2.57,2.57,0,0,1,.94-.94,3,3,0,0,1,1.59-.36,2.81,2.81,0,0,1,2,4.7,2.63,2.63,0,0,1-2,.73,2.21,2.21,0,0,1-1.65-.6,2.84,2.84,0,0,1-.69-1.2h-4.51a7.29,7.29,0,0,0,.75,2.4,6.08,6.08,0,0,0,1.55,1.9,5.9,5.9,0,0,0,2.12,1.18,8.77,8.77,0,0,0,2.56.38,7.89,7.89,0,0,0,2.87-.5,7.11,7.11,0,0,0,2.24-1.38,6,6,0,0,0,1.42-2.17,7.31,7.31,0,0,0,.5-2.72,7.89,7.89,0,0,0-.47-2.72A6.32,6.32,0,0,0,595.71,155.62Z" style="fill:#78bde8"/>
<path d="M613.23,149.71a6.88,6.88,0,0,0-2.32-1.44,9.43,9.43,0,0,0-6,0,6.53,6.53,0,0,0-2.29,1.38,5.71,5.71,0,0,0-1.48,2.16,7.29,7.29,0,0,0-.5,2.74,6.92,6.92,0,0,0,.47,2.53,6.34,6.34,0,0,0,1.33,2.14,6.45,6.45,0,0,0,2.05,1.44,6.53,6.53,0,0,0,2.67.53h.31L603.8,167h5l4.11-6.5a26.55,26.55,0,0,0,1.57-2.72,6.78,6.78,0,0,0,.69-3.06,7.54,7.54,0,0,0-.49-2.75A6.22,6.22,0,0,0,613.23,149.71ZM610,156.54h0a3.41,3.41,0,0,1-4.19,0,3,3,0,0,1,0-4,3.37,3.37,0,0,1,4.19,0,3,3,0,0,1,0,4Z" style="fill:#78bde8"/>
<path d="M551.28,40.6v13l-12.63-3.81V64H526V132.7H640V64H627.33V49.82l-12.62,3.81v-13L600,48a27.36,27.36,0,0,0-1.18-3.87,36.39,36.39,0,0,0-11.62-15.65l-8-6.12-.87.45c.44,3.4,1.56,13.33.88,16.12l-2.37-5.23L572.2,39a23.59,23.59,0,0,0-4.78,9.79ZM532,126.7V70h6.62v50L561,126.7Zm12.62-11.21V57.89l6.63,2v54.83l11.88,6.37ZM627.33,70H634V126.7H605L627.33,120ZM614.71,59.89l6.62-2v57.6l-17.15,5.19,10.53-5.45Zm-6,51.69L586,123.36V76.08l.2-.17,5.59-4.6a24,24,0,0,0,8.77-16.79l8.19-4.16Zm-32.37-69L580,49.9c2.14-2.78,5-7.19,4.21-16.64a30.3,30.3,0,0,1,9.6,13,18.54,18.54,0,0,1,1.32,5.86,18.11,18.11,0,0,1-6.7,14.78L583,71.27l-4.34-3.72A18,18,0,0,1,572.32,54,16.8,16.8,0,0,1,576.34,42.56ZM575.21,72l4.52,3.88.23.2v47.24l-22.69-12.16V50.36l9.62,4.85A23.69,23.69,0,0,0,575.21,72Z" style="fill:#78bde8"/>
</svg>