<?xml version="1.0" encoding="utf-8"?>
<!-- Generator: Adobe Illustrator 23.0.3, SVG Export Plug-In . SVG Version: 6.00 Build 0)  -->
<svg version="1.1" id="Layer_1" xmlns="http://www.w3.org/2000/svg" xmlns:xlink="http://www.w3.org/1999/xlink" x="0px" y="0px"
	 width="130px" height="45px" viewBox="0 0 130 45" style="enable-background:new 0 0 130 45;" xml:space="preserve">
<style type="text/css">
	.st0{fill:#024023;}
</style>
<g>
	<path class="st0" d="M105.98,27.86c-0.32-2.18-1.41-3.81-3.35-4.79c-1.47-0.74-3.04-0.89-4.64-0.65c-3.11,0.47-5.87,3.05-5.88,6.97
		c0.01,0.18,0.02,0.4,0.04,0.63c0.22,2.52,1.37,4.38,3.63,5.43c1.3,0.6,2.67,0.76,4.08,0.6c2.04-0.24,3.73-1.15,4.95-2.87
		C105.94,31.59,106.26,29.78,105.98,27.86 M102.1,32.55c-0.54,1.46-1.61,2.3-2.96,2.28c-1.04-0.02-1.85-0.51-2.45-1.36
		c-0.65-0.92-0.92-1.99-1.03-3.11c-0.12-1.26-0.1-2.52,0.2-3.75c0.22-0.89,0.56-1.73,1.28-2.33c1.34-1.12,3.23-0.86,4.28,0.56
		c0.61,0.83,0.9,1.78,1.03,2.79c0.08,0.57,0.1,1.15,0.13,1.51C102.57,30.45,102.49,31.52,102.1,32.55"/>
	<path class="st0" d="M62.11,34.33c-0.46-0.12-0.76-0.37-0.93-0.85c-0.87-2.53-1.76-5.04-2.65-7.56c-0.36-1.02-0.71-2.04-1.07-3.06
		h-4.79l0.1,1.1c0,0,0.28,0.02,0.54,0.06c0.21,0.03,0.34,0.22,0.29,0.43c-0.27,1.05-2.61,7.59-3.06,8.85
		c-0.33,0.91-1.72,1.18-1.85,1.22c-0.02,0.35-0.06,0.69-0.08,1.03h4.96c-0.03-0.36-0.06-0.7-0.09-1.02c0,0-0.68-0.1-0.87-0.19
		c-0.3-0.16-0.3-0.44-0.21-0.66c0.29-0.72,0.49-1.38,0.74-2.1h4.13c0.2,0.69,0.38,1.38,0.54,2.09c0.09,0.37-0.04,0.55-0.42,0.66
		c-0.29,0.08-0.6,0.13-0.92,0.2c-0.03,0.34-0.06,0.68-0.08,1.04h6.58c-0.03-0.37-0.06-0.71-0.09-1.05
		C62.61,34.45,62.36,34.4,62.11,34.33 M53.54,30.48c0.56-1.59,1.09-3.14,1.63-4.69c0.02,0,0.05,0,0.08,0
		c0.51,1.55,1.06,3.1,1.59,4.69H53.54z"/>
	<path class="st0" d="M73.44,31.36c-0.12,0.45-0.23,0.91-0.37,1.35c-0.22,0.67-0.68,1.11-1.37,1.28c-0.67,0.17-1.89,0.2-2.52,0.21
		c-0.22,0-0.39-0.17-0.39-0.39c0-1.43,0-6.42-0.01-9.06c0-0.32,0.15-0.51,0.47-0.57c0.38-0.07,0.76-0.16,1.13-0.24
		c0.03-0.38,0.09-1.06,0.09-1.06h-6.35c0,0,0.06,0.71,0.09,1.07c0.3,0.08,0.6,0.16,0.9,0.24c0.31,0.09,0.47,0.27,0.47,0.62
		c-0.01,2.95-0.01,5.91,0,8.86c0,0.34-0.14,0.53-0.47,0.61c-0.31,0.07-0.61,0.17-0.9,0.26c-0.03,0.36-0.05,0.69-0.08,1.04h10.14
		l0.37-4.55h-1.09C73.51,31.13,73.48,31.24,73.44,31.36"/>
	<path class="st0" d="M116.48,31.36c-0.12,0.45-0.23,0.91-0.37,1.35c-0.22,0.67-0.68,1.11-1.37,1.28c-0.67,0.17-1.89,0.2-2.52,0.21
		c-0.22,0-0.39-0.17-0.39-0.39c0-1.43,0-6.42-0.01-9.06c0-0.32,0.15-0.51,0.47-0.57c0.38-0.07,0.76-0.16,1.13-0.24
		c0.03-0.38,0.06-0.72,0.09-1.06h-6.35c0,0,0.06,0.71,0.09,1.07c0.3,0.08,0.6,0.16,0.9,0.24c0.31,0.09,0.47,0.27,0.47,0.62
		c-0.01,2.95-0.01,5.91,0,8.86c0,0.34-0.14,0.53-0.47,0.61c-0.31,0.07-0.61,0.17-0.9,0.26c-0.03,0.36-0.05,0.69-0.09,1.04h10.14
		l0.37-4.55h-1.09C116.55,31.13,116.51,31.24,116.48,31.36"/>
	<path class="st0" d="M46.49,20.95c-1.17-0.51-2.38-0.81-3.61-0.9c-1.02-0.08-2.05,0-3.09,0.21c-0.19,0.04-0.38,0.08-0.58,0.13
		c-0.33,0.09-0.65,0.19-0.96,0.3c-1.04,0.39-1.96,0.94-2.74,1.7c-0.46,0.44-0.87,0.95-1.23,1.54c-0.35,0.58-0.62,1.17-0.81,1.78
		c-0.41,1.31-0.45,2.69-0.22,4.1c0.1,0.6,0.25,1.15,0.44,1.66c0.76,2,2.25,3.39,4.47,4.14c1.74,0.59,3.31,0.67,5.12,0.36
		c0.67-0.12,1.34-0.27,1.92-0.51c0.72-0.29,1.33-0.58,2.04-1.02c0.13-0.08,0.22-0.17,0.28-0.27c0.08-0.12,0.12-0.27,0.12-0.45
		c0.02-0.61,0.11-1.32,0.16-1.93c0.04-0.46,0.07-1.17,0.11-1.65h0l-1.58,0.08c0,0.02-0.01,0.04-0.01,0.05
		c-0.01,0.05-0.02,0.1-0.02,0.14c0,0,0,0.01,0,0.01c-0.22,1.19-0.62,2.41-1.48,3.26c-0.66,0.62-1.59,1.08-2.87,1.14c0,0,0,0-0.01,0
		c-0.31,0-0.6-0.02-0.89-0.07c-0.65-0.1-1.23-0.33-1.75-0.68c-0.02-0.01-0.03-0.02-0.05-0.04c-0.08-0.05-0.15-0.11-0.22-0.16
		c-0.04-0.03-0.07-0.06-0.11-0.09c-0.05-0.04-0.1-0.08-0.15-0.13c-0.05-0.04-0.09-0.09-0.14-0.14c-0.03-0.03-0.07-0.07-0.11-0.1
		c-0.04-0.04-0.08-0.09-0.12-0.14c-0.04-0.04-0.08-0.08-0.11-0.13c-0.03-0.03-0.05-0.06-0.07-0.1c-0.05-0.06-0.1-0.12-0.14-0.19
		c0-0.01-0.01-0.01-0.01-0.02c-0.2-0.29-0.38-0.61-0.54-0.96c-0.52-1.17-0.81-2.36-0.88-3.57c-0.06-1.08,0.06-2.16,0.36-3.26
		c0.12-0.45,0.29-0.88,0.5-1.28c0.43-0.8,1.04-1.47,1.9-1.92c0.07-0.04,0.13-0.07,0.2-0.1c0.02-0.01,0.04-0.02,0.06-0.03
		c0.84-0.39,1.71-0.59,2.57-0.52c0.66,0.06,1.4,0.3,2.04,0.76c0.94,0.68,1.52,1.66,1.86,2.74c0,0.01,0.01,0.03,0.01,0.04
		c0.06,0.18,0.11,0.37,0.16,0.54h0c0,0,0,0,0,0l1.39-0.07v0h0l-0.19-3.67c-0.1-0.07-0.21-0.16-0.33-0.23
		C46.97,21.21,46.74,21.06,46.49,20.95"/>
	<path class="st0" d="M80.67,32.08v1.65c0-0.01,0-0.02,0-0.03C80.67,33.15,80.67,32.62,80.67,32.08"/>
	<path class="st0" d="M92.08,23.88c-0.19-1.38-1.05-2.28-2.26-2.87c-1.19-0.58-2.47-0.76-3.77-0.77c-0.16,0-0.32,0-0.49,0
		c0,0,0,0,0,0l-6.35,0c0.02,0.35,0.07,0.68,0.08,1.02c0,0.01,0,0.03,0,0.04c0.35,0.1,0.67,0.19,0.98,0.29
		c0.27,0.08,0.4,0.25,0.4,0.55c-0.01,2.98-0.01,5.95,0,8.93c0,0,0,2.09,0,2.63c0,0.01,0,0.02,0,0.03c-0.01,0.29-0.14,0.46-0.42,0.53
		c-0.3,0.09-0.61,0.17-0.95,0.27c0,0.01,0,0.03,0,0.04c-0.02,0.32-0.08,0.99-0.08,0.99l6.17-0.01c0,0-0.06-0.7-0.08-1.03
		c0,0,0,0,0,0c-0.34-0.1-0.64-0.18-0.95-0.27c-0.22-0.06-0.35-0.18-0.4-0.38c0-0.05,0-0.1,0-0.15c0-3.46,0.01-10.17,0.02-11.98
		c0-0.26,0.21-0.46,0.46-0.47c0.43-0.01,0.84-0.02,1.25,0.01c1.35,0.1,2.3,0.88,2.71,2.16c0.29,0.92,0.31,1.85,0.03,2.77
		c-0.36,1.21-1.07,2.23-3.18,2.26l-0.08,1.05c1.91,0.04,3.65-0.26,5.17-1.43C91.72,27.05,92.32,25.62,92.08,23.88"/>
	<path class="st0" d="M129.43,22.87h-4.85c0.02,0.38,0.07,0.73,0.09,1.1c0.16,0.04,0.26,0.06,0.35,0.09
		c0.71,0.2,0.83,0.52,0.44,1.16c-0.38,0.63-2.21,4.46-2.21,4.46s-1.67-3-2.33-4.31c-0.11-0.22-0.61-1.05,0.24-1.27
		c0.22-0.06,0.45-0.08,0.73-0.13c0.02-0.37,0.09-1.09,0.09-1.09h-6.43c0.03,0.39,0.06,0.75,0.09,1.1c0.13,0.03,1.12,0.3,1.57,0.99
		c0.38,0.58,2.83,5.32,3.67,6.61l0.01,2.16c-0.01,0.29-0.14,0.46-0.42,0.53c-0.1,0.03-0.21,0.06-0.31,0.09
		c-0.21,0.06-0.42,0.12-0.64,0.18c0,0.01-0.08,1.03-0.08,1.03c0,0,6.17,0,6.17,0c0,0-0.07-0.7-0.09-1.03c0,0,0,0,0,0
		c-0.34-0.1-0.64-0.18-0.95-0.27c-0.03-0.01-0.06-0.02-0.09-0.03c-0.17-0.07-0.29-0.17-0.32-0.35c0-0.05,0-0.1,0-0.15
		c0-0.36-0.06-2.07,0.02-2.2l2.47-5.17c0.66-1.05,1.35-2.08,2.68-2.38C129.36,23.76,129.43,22.87,129.43,22.87"/>
	<path class="st0" d="M18.61,32.13l-1.21-1.31l0.71-0.67l-0.76-0.81l-0.45,0.43l0.06,0.66l-1.61-1.72l-0.61-0.02l-1.34,1.19
		l-0.02,0.57l1.3,1.41l-0.07,0.06l-0.25,0.23l-1.57,1.51L8.2,28.69l-0.33-0.33l-0.08,2.39c-0.01,0.38,0.06,0.61,0.2,0.81
		c0.02,0.02,0.03,0.05,0.05,0.07c0.17,0.21,0.36,0.39,0.75,0.55c0.7,0.28,1.51,0.33,1.51,0.33l0.36,0.02l-0.32,0.17
		c0,0-0.02,0.01-0.05,0.02c-0.1,0.04-0.38,0.14-0.82,0.13C9.2,32.84,8.87,32.8,8.5,32.71c0.06,0.07,0.14,0.15,0.23,0.24
		c0.02,0.02,0.04,0.04,0.06,0.06c0.38,0.37,0.78,0.5,1.3,0.6c0.49,0.09,1.39,0.22,1.4,0.22l0.31,0.04L11.55,34l-0.03,0.01
		c-0.01,0.01-0.32,0.17-0.88,0.15c-0.37-0.01-0.69-0.07-0.91-0.13l0.17,0.19l0.07,0.07c0.19,0.21,0.52,0.38,1.01,0.52
		c0.14,0.04,0.29,0.08,0.43,0.11c0.5,0.11,0.95,0.16,0.96,0.16l0.33,0.03l-0.19,0.11l-0.1,0.05c-0.04,0.02-0.36,0.19-0.94,0.15
		c-0.17-0.01-0.34-0.03-0.51-0.07c0,0,0,0-0.01,0l0,0l-2.27,2.14l0.76,0.81l2.33-2.19c0.47,0.26,1.23,0.5,1.85,0.52l1.01,0.03
		l1.71,1.77l0.89,0l-3.69-3.98l1.62-1.52l0.23-0.21l0.05-0.05l0.04-0.04l1.21,1.3l0.61,0.02l1.34-1.19l0.02-0.57L18.61,32.13z"/>
	<path class="st0" d="M12.97,16.26c0-0.05-0.01-0.09-0.04-0.11c-0.04-0.04-0.11-0.06-0.22-0.06h-0.01l-0.17,0v0.36l0.17,0
		C12.88,16.45,12.97,16.38,12.97,16.26"/>
	<path class="st0" d="M8.5,16.44c0-0.07-0.02-0.11-0.05-0.14c-0.05-0.04-0.13-0.06-0.26-0.05l-0.19,0.01v0.46l0.19-0.01
		C8.4,16.69,8.5,16.61,8.5,16.44"/>
	<path class="st0" d="M13.06,17.01c0-0.06-0.01-0.1-0.05-0.13c-0.05-0.05-0.13-0.07-0.26-0.07h-0.01l-0.21,0v0.42l0.21,0
		C12.96,17.23,13.06,17.15,13.06,17.01"/>
	<path class="st0" d="M18.82,17.38c0.09,0.01,0.17-0.02,0.23-0.08c0.1-0.09,0.15-0.26,0.15-0.47c0-0.35-0.14-0.57-0.38-0.58
		c-0.01,0-0.02,0-0.02,0c-0.08,0-0.15,0.03-0.21,0.08c-0.1,0.09-0.15,0.25-0.15,0.46C18.43,17.13,18.58,17.36,18.82,17.38"/>
	<path class="st0" d="M17.03,17.16c0.09-0.09,0.14-0.24,0.14-0.44c0-0.38-0.16-0.56-0.5-0.57l-0.05,0v1.12l0.05,0
		C16.84,17.27,16.95,17.24,17.03,17.16"/>
	<path class="st0" d="M24.58,25.32C24.58,25.32,24.58,25.32,24.58,25.32c-0.01,0-0.01-0.01-0.02-0.01
		c-0.02-0.01-0.04-0.02-0.06-0.04h0c-0.88-0.61-2.61-2.25-2.7-2.25c-0.02,0-6.12,2.22-6.12,2.22c-0.01,0-0.09,0.02-0.15,0.02
		l-0.3-0.07l-1.13-0.26l-0.16-0.04l-0.16-0.04l-0.05-0.01l-0.14-0.03l-0.14-0.03l-0.42-0.1l-0.12-0.03l-0.2-0.05l-0.11-0.03
		l-0.26-0.06l-0.11-0.02l-0.18-0.04l-0.11-0.02l-0.07-0.02l-0.19,0.1l-0.1,0.05l-0.15,0.08l-0.1,0.05l-0.2,0.11l-0.1,0.05
		l-0.16,0.08l-0.1,0.05l-0.28,0.14l-0.12,0.06l-0.22,0.11c-0.02,0-0.04,0-0.06,0c-0.12,0-0.23,0-0.32,0c-0.24,0-0.39,0-0.39,0
		C9.13,25.3,8.84,25.3,8.56,25.3c-2.66-0.01-5.75,0.17-6.27,0.2l0.11-2.9l6.27,2.3c0.01-0.03,0.02-0.07,0.04-0.1
		c0.01-0.03,0.03-0.07,0.04-0.1c0.02-0.06,0.05-0.12,0.07-0.17c0.02-0.03,0.03-0.07,0.05-0.1c0.02-0.03,0.03-0.06,0.05-0.1
		l-6.46-3.28l0.03-0.73c0.77-0.08,1.8-0.18,3.02-0.29l3.92,3.6c0.02-0.03,0.05-0.05,0.08-0.08c0.03-0.03,0.05-0.05,0.08-0.08
		c0.05-0.04,0.09-0.08,0.14-0.12c0.03-0.02,0.06-0.05,0.08-0.07c0.03-0.02,0.06-0.04,0.09-0.07l-2.6-3.32
		c0.61-0.04,1.26-0.08,1.92-0.11l1.43,3.02c0.03-0.01,0.07-0.03,0.1-0.04c0.03-0.01,0.07-0.02,0.1-0.03
		c0.06-0.02,0.12-0.04,0.18-0.05c0.04-0.01,0.07-0.02,0.11-0.03c0.04-0.01,0.07-0.02,0.11-0.02l-0.67-2.9
		c0.17-0.01,0.34-0.01,0.51-0.02c0.43-0.01,0.86-0.02,1.29-0.03l-0.26,2.89c0.04,0,0.07,0,0.11,0.01c0.04,0,0.07,0.01,0.11,0.01
		c0.06,0.01,0.12,0.02,0.18,0.03c0.04,0.01,0.07,0.01,0.11,0.02c0.04,0.01,0.07,0.02,0.11,0.02l0.89-2.99h0.01
		c0.61,0,1.21,0.01,1.81,0.02l-1.91,3.28c0.03,0.02,0.06,0.03,0.09,0.05c0.03,0.02,0.06,0.04,0.09,0.06c0.05,0.03,0.1,0.07,0.16,0.1
		c0.03,0.02,0.06,0.04,0.09,0.06c0.03,0.02,0.05,0.04,0.08,0.06l0,0.01l0.01-0.01c0,0,0,0,0,0l0.06-0.08l2.97-3.5
		c1.17,0.05,2.3,0.11,3.33,0.19l-5.75,4.01c0.02,0.03,0.04,0.06,0.06,0.09c0.02,0.03,0.04,0.06,0.06,0.09
		c0.02,0.03,0.03,0.05,0.05,0.08c0.02,0.03,0.03,0.05,0.05,0.08c0.02,0.03,0.04,0.06,0.05,0.1c0.02,0.03,0.03,0.06,0.05,0.1
		l8.1-4.31c0.45,0.04,0.86,0.08,1.22,0.12c0.05,0.01,0.1,0.01,0.14,0.02L24.58,25.32L24.58,25.32z M17.61,25.5
		c0.03-0.01,0.13-0.05,0.29-0.1c0.87-0.31,3.33-1.21,3.33-1.21l0,0c0,0,0,0,0,0l-2.18,1.42h0h0L17.61,25.5
		C17.61,25.5,17.61,25.5,17.61,25.5L17.61,25.5z M24.51,29.47c-0.04,0.42-0.11,0.98-0.26,1.64c-0.2,0.88-0.53,1.92-1.09,3.04
		c-0.6,1.21-1.47,2.5-2.71,3.74c-3.85,3.85-7.24,4.74-7.24,4.74s-3.17-0.99-6.88-4.7C5.1,36.68,4.23,35.4,3.62,34.2
		c-0.5-0.99-0.83-1.91-1.04-2.71c-0.15-0.58-0.24-1.1-0.3-1.52c-0.1-0.74-0.08-1.19-0.08-1.19s0.03-0.01,0.08-0.04
		c0.24-0.13,1.08-0.53,2.55-0.93c0.99-0.27,2.27-0.54,3.85-0.73c1.24-0.15,2.66-0.24,4.28-0.24c0.78,0,1.52,0.02,2.22,0.05
		c5.57,0.27,8.82,1.48,9.3,1.66c0.04,0.02,0.06,0.02,0.06,0.02S24.56,28.92,24.51,29.47 M2.44,16.36l0.02,0
		c0.14-0.02,0.28-0.03,0.41-0.05l0.03,0v1.49c0.23-0.03,0.46-0.05,0.69-0.08l0.03,0v0.4l-0.02,0c-0.38,0.04-0.76,0.08-1.13,0.13
		l-0.03,0V16.36z M4.05,16.19l0.02,0c0.38-0.04,0.77-0.08,1.15-0.11l0.03,0v0.4l-0.02,0c-0.24,0.02-0.47,0.04-0.71,0.07v0.32
		c0.2-0.02,0.4-0.04,0.6-0.06l0.03,0v0.4l-0.02,0c-0.2,0.02-0.4,0.04-0.6,0.06v0.37c0.24-0.02,0.49-0.05,0.73-0.07l0.03,0v0.4
		l-0.02,0c-0.38,0.03-0.78,0.07-1.17,0.11l-0.03,0V16.19z M5.54,17.9c0.19-0.63,0.38-1.25,0.58-1.88l0-0.02l0.02,0
		c0.17-0.01,0.33-0.03,0.5-0.04l0.02,0l0.01,0.02l0.59,1.82l-0.03,0c-0.15,0.01-0.29,0.02-0.44,0.03l-0.02,0l-0.11-0.43
		c-0.17,0.01-0.35,0.03-0.52,0.04c-0.04,0.14-0.07,0.29-0.11,0.43l0,0.02l-0.02,0c-0.14,0.01-0.28,0.02-0.42,0.03l-0.04,0L5.54,17.9
		z M7.54,15.9l0.02,0c0.22-0.01,0.44-0.03,0.66-0.04c0.26-0.01,0.46,0.04,0.58,0.15c0.1,0.09,0.15,0.23,0.15,0.41
		c0,0.25-0.11,0.44-0.32,0.56c0.13,0.23,0.27,0.46,0.4,0.69l0.02,0.04l-0.04,0c-0.15,0.01-0.31,0.02-0.46,0.02l-0.02,0l-0.01-0.01
		c-0.11-0.21-0.23-0.42-0.34-0.63c-0.06,0-0.13,0.01-0.19,0.01v0.66l-0.02,0c-0.14,0.01-0.28,0.02-0.41,0.03l-0.03,0V15.9z
		 M9.36,15.8l0.02,0c0.14-0.01,0.28-0.01,0.43-0.02l0.02,0l0.01,0.01c0.16,0.3,0.32,0.6,0.48,0.89l0.13,0.29
		c-0.02-0.17-0.04-0.37-0.04-0.55v-0.67l0.02,0c0.13,0,0.26-0.01,0.4-0.01l0.03,0v1.88l-0.02,0c-0.14,0-0.28,0.01-0.42,0.01l-0.02,0
		l-0.01-0.01c-0.16-0.3-0.32-0.6-0.48-0.9l-0.13-0.29c0,0.01,0,0.02,0,0.03c0.02,0.16,0.04,0.35,0.04,0.52v0.67l-0.02,0
		c-0.13,0.01-0.26,0.01-0.4,0.02l-0.03,0V15.8z M12.07,15.72l0.02,0c0.21,0,0.42-0.01,0.63-0.01c0.28,0,0.47,0.05,0.58,0.17
		c0.08,0.08,0.12,0.18,0.12,0.31c0,0.17-0.09,0.33-0.21,0.4c0.19,0.07,0.3,0.23,0.3,0.44c0,0.35-0.28,0.56-0.74,0.57
		c-0.23,0-0.45,0-0.68,0.01l-0.03,0V15.72z M13.68,15.71c0.15,0,0.3,0,0.44,0l0.02,0l0.01,0.02c0.05,0.14,0.11,0.28,0.16,0.42
		c0.03,0.09,0.06,0.17,0.09,0.26l0.04,0.1c0.02-0.05,0.04-0.1,0.06-0.15c0.03-0.07,0.05-0.13,0.08-0.2l0.17-0.44l0.02,0
		c0.14,0,0.29,0,0.43,0.01l0.04,0l-0.02,0.04c-0.18,0.39-0.37,0.78-0.55,1.17v0.67l-0.03,0c-0.14,0-0.28,0-0.41,0l-0.02,0v-0.67
		c-0.18-0.39-0.37-0.79-0.55-1.18l-0.02-0.04L13.68,15.71z M16.16,15.75l0.03,0c0.17,0.01,0.35,0.01,0.52,0.02
		c0.61,0.02,0.95,0.37,0.95,0.97c0,0.3-0.08,0.54-0.25,0.7c-0.15,0.14-0.36,0.22-0.63,0.22c-0.02,0-0.03,0-0.05,0
		c-0.18-0.01-0.36-0.01-0.54-0.02l-0.02,0V15.75z M18.22,16.03c0.15-0.14,0.35-0.21,0.6-0.2c0.52,0.03,0.86,0.43,0.86,1.02
		c0,0.32-0.09,0.57-0.27,0.74c-0.14,0.13-0.32,0.2-0.53,0.2c-0.02,0-0.04,0-0.06,0c-0.52-0.03-0.86-0.43-0.86-1.03
		C17.96,16.44,18.05,16.19,18.22,16.03 M20.05,15.95l0.03,0c0.14,0.01,0.28,0.02,0.41,0.03l0.02,0v1.88l-0.03,0
		c-0.14-0.01-0.28-0.02-0.41-0.03l-0.02,0V15.95z M21.09,16.02l0.03,0c0.14,0.01,0.28,0.02,0.42,0.04l0.01,0l0.01,0.01
		c0.16,0.32,0.32,0.64,0.48,0.95l0.13,0.3c0,0,0,0,0,0c-0.02-0.17-0.04-0.37-0.04-0.54v-0.67l0.03,0c0.13,0.01,0.26,0.02,0.39,0.04
		l0.02,0v1.88l-0.03,0c-0.14-0.01-0.28-0.03-0.42-0.04l-0.01,0l-0.01-0.01c-0.16-0.32-0.32-0.64-0.48-0.96l-0.13-0.3
		c0,0.01,0,0.01,0,0.02c0.02,0.17,0.04,0.35,0.04,0.52v0.68l-0.03,0c-0.13-0.01-0.26-0.02-0.39-0.03l-0.02,0V16.02z M23.22,16.45
		c0.17-0.15,0.39-0.21,0.64-0.19c0.29,0.03,0.48,0.19,0.59,0.31l0.01,0.02l-0.25,0.28l-0.02-0.02c-0.09-0.09-0.18-0.16-0.33-0.18
		c-0.12-0.01-0.22,0.02-0.3,0.09c-0.1,0.09-0.15,0.24-0.15,0.42c0,0.37,0.17,0.59,0.49,0.63c0.06,0.01,0.13,0,0.17-0.02V17.5
		c-0.09-0.01-0.19-0.02-0.28-0.03l-0.02,0v-0.39l0.03,0c0.22,0.02,0.45,0.05,0.67,0.08l0.02,0v0.88l-0.01,0.01
		c-0.12,0.11-0.31,0.16-0.51,0.16c-0.04,0-0.07,0-0.11-0.01c-0.56-0.06-0.92-0.48-0.92-1.06C22.95,16.85,23.04,16.61,23.22,16.45
		 M19.02,13.83c-0.06,0-0.12-0.01-0.18-0.01c-1.33-0.08-2.76-0.14-4.22-0.15c-0.04,0-0.07,0-0.11,0c-0.04,0-0.07,0-0.11,0
		c-0.26,0-0.52,0-0.79,0c-0.16,0-0.33,0-0.49,0c-0.04,0-0.07,0-0.11,0c-0.04,0-0.07,0-0.11,0c-1.26,0.01-2.52,0.05-3.72,0.11
		c-0.04,0-0.07,0-0.11,0.01c-0.04,0-0.07,0-0.11,0.01c-0.45,0.02-0.89,0.05-1.32,0.07c-0.04,0-0.08,0-0.11,0.01
		c-0.04,0-0.08,0-0.11,0.01C3.76,14.11,1,14.45,1,14.45v3.28l0.04,2.59l0,0.12l0,0.01l0,0.11l0.02,1.31l0,0.12l0,0.12l0.1,6.43
		c-0.02,2.25,0.54,4.27,1.42,6.07c2.54,5.17,7.78,8.44,9.81,9.56l0.87,0.45l0.83-0.45c2.11-1.13,7.58-4.44,10.21-9.67
		c0.89-1.77,1.45-3.76,1.45-5.95l0.12-8.1l0.04-3.01v-2.99C25.91,14.45,22.94,14.07,19.02,13.83"/>
	<path class="st0" d="M6.5,16.91c-0.03-0.11-0.06-0.24-0.09-0.36c-0.01-0.05-0.02-0.09-0.03-0.14c-0.04,0.17-0.08,0.36-0.13,0.53
		c-0.01,0.05-0.02,0.09-0.04,0.14c0.11-0.01,0.22-0.02,0.33-0.02L6.5,16.91z"/>
</g>
</svg>
