<?xml version="1.0" encoding="UTF-8" standalone="no"?>
<svg xmlns:rdf="http://www.w3.org/1999/02/22-rdf-syntax-ns#" xmlns="http://www.w3.org/2000/svg" xml:space="preserve" height="70.537" viewBox="0 0 300.465 70.537407" width="300.46" version="1.1" xmlns:cc="http://creativecommons.org/ns#" xmlns:dc="http://purl.org/dc/elements/1.1/"><g transform="matrix(1.25 0 0 -1.25 -235.4 533.66)"><g><path d="m209.43 425.92c-5.6375 0-14.867-1.591-20.01-3.5754v-50.373h39.621v50.605s-9.288 3.343-19.611 3.343" fill="#fff"/><path d="m26.391 0.94141c-7.104 0.00343-18.637 1.9902-25.129 4.4902l-0.2034 0.0801v63.506h50.166v-63.803l-0.211-0.0763c-0.019-0.0069-11.651-4.196-24.623-4.1973zm0 0.63869c6.414-0.0017 12.507 1.0396 17 2.0801 3.797 0.8785 6.451 1.7564 7.193 2.0078v62.709h-48.887l0.0003-62.428c6.4086-2.4224 17.777-4.3727 24.694-4.3689zm140.02 20.795c-0.08 0-0.14 0.015-0.17 0.061-0.1 0.524-0.33 1.451-0.58 2.259 0.06 0.15 0.37 0.196 0.48 0.106 0.55-1.213 0.96-1.377 2.33-1.377h0.84c0.39 0 0.41 0.028 0.41 0.658v6.471c0 1.588-0.14 1.603-0.84 1.693l-0.63 0.074c-0.1 0.075-0.09 0.374 0.03 0.434 0.96-0.03 1.66-0.043 2.32-0.043s1.33 0.013 2.2 0.043c0.12-0.06 0.14-0.329 0.03-0.434l-0.54-0.06c-0.7-0.075-0.83-0.119-0.83-1.707v-6.471c0-0.63 0.01-0.658 0.4-0.658h0.85c1.61 0 1.89 0.285 2.08 1.453 0.14 0.105 0.39 0.074 0.47-0.045-0.05-0.48 0.08-1.769 0.22-2.383-0.03-0.045-0.1-0.074-0.19-0.074-0.06 0-0.12 0.031-0.18 0.061-0.18 0.344-0.41 0.388-1.14 0.388h-6.11c-1.02 0-1.23-0.014-1.3-0.388-0.03-0.046-0.09-0.061-0.15-0.061zm17.79 0c-0.07 0-0.13 0.015-0.16 0.061-0.11 0.524-0.33 1.451-0.59 2.259 0.06 0.15 0.38 0.196 0.48 0.106 0.56-1.213 0.96-1.377 2.34-1.377h0.84c0.38 0 0.4 0.028 0.4 0.658v6.471c0 1.588-0.13 1.603-0.84 1.693l-0.63 0.074c-0.1 0.075-0.09 0.374 0.03 0.434 0.96-0.03 1.66-0.043 2.32-0.043s1.34 0.013 2.21 0.043c0.11-0.06 0.13-0.329 0.03-0.434l-0.54-0.06c-0.71-0.075-0.84-0.119-0.84-1.707v-6.471c0-0.63 0.01-0.658 0.4-0.658h0.86c1.6 0 1.88 0.285 2.08 1.453 0.13 0.105 0.39 0.074 0.46-0.045-0.04-0.48 0.08-1.769 0.23-2.383-0.03-0.045-0.11-0.074-0.2-0.074-0.06 0-0.12 0.031-0.18 0.061-0.18 0.344-0.4 0.388-1.13 0.388h-6.12c-1.01 0-1.22-0.014-1.3-0.388-0.03-0.046-0.09-0.061-0.15-0.061zm95.69 0c-0.08 0-0.14 0.015-0.17 0.061-0.1 0.524-0.33 1.451-0.58 2.259 0.06 0.15 0.37 0.196 0.48 0.106 0.55-1.213 0.95-1.377 2.33-1.377h0.84c0.39 0 0.41 0.028 0.41 0.658v6.471c0 1.588-0.14 1.603-0.84 1.693l-0.63 0.074c-0.11 0.075-0.09 0.374 0.03 0.434 0.96-0.03 1.66-0.043 2.32-0.043s1.33 0.013 2.2 0.043c0.12-0.06 0.14-0.329 0.03-0.434l-0.54-0.06c-0.7-0.075-0.83-0.119-0.83-1.707v-6.471c0-0.63 0.01-0.658 0.4-0.658h0.85c1.61 0 1.89 0.285 2.09 1.453 0.13 0.105 0.39 0.074 0.46-0.045-0.04-0.48 0.07-1.769 0.22-2.383-0.03-0.045-0.1-0.074-0.19-0.074-0.06 0-0.12 0.031-0.18 0.061-0.18 0.344-0.41 0.388-1.14 0.388h-6.11c-1.02 0-1.23-0.014-1.3-0.388-0.03-0.046-0.09-0.061-0.15-0.061zm-211.91 0.209c-1.513 0-3.026 0.435-4.134 1.273-1.109 0.854-1.887 2.217-1.887 3.969 0 1.963 0.914 3.326 2.127 4.119 1.078 0.704 2.35 1.004 3.834 1.004 0.973 0 2.008-0.254 2.338-0.359 0.164-0.045 0.343-0.105 0.523-0.135 0.21-0.285 0.614-1.273 0.719-2.277-0.075-0.135-0.314-0.194-0.449-0.059-0.419 0.973-1.245 2.231-3.131 2.231-1.933 0-3.924-1.556-3.924-4.746 0-3.071 1.917-4.42 3.818-4.42 1.978 0 2.654 1.244 2.909 2.187 0.104 0.105 0.373 0.089 0.478-0.031-0.15-1.109-0.181-1.992-0.211-2.336-0.134-0.03-0.238-0.046-0.418-0.09-0.704-0.18-1.738-0.33-2.592-0.33zm9.135 0c-0.03 0-0.523 0.616-1.047 0.721 0.045 0.254-0.105 0.612-0.285 1.091l-2.053 5.333c-0.314 0.808-0.554 1.438-0.734 1.828-0.225 0.494-0.388 0.614-0.822 0.689l-0.449 0.074c-0.105 0.135-0.091 0.36 0.013 0.434 0.525-0.03 0.99-0.043 1.485-0.043 0.613 0.014 1.106 0.013 1.586 0.043 0.12-0.06 0.136-0.329 0.031-0.434l-0.436-0.074c-0.554-0.09-0.613-0.12-0.314-1.004l0.615-1.797c0.135-0.404 0.12-0.404 0.51-0.404h1.99c0.42 0 0.481 0 0.615 0.404l0.703 2.035c0.225 0.63 0.151 0.72-0.388 0.795l-0.33 0.045c-0.091 0.09-0.075 0.36 0.045 0.434 0.525-0.015 1.184-0.043 1.828-0.043 0.779 0 1.333 0.013 1.947 0.043 0.105-0.074 0.105-0.329-0.016-0.434l-0.224-0.045c-0.765-0.15-0.84-0.238-1.184-1.242l-2.156-6.277c-0.24-0.674-0.435-1.377-0.674-2.051-0.06-0.075-0.136-0.121-0.256-0.121zm33.535 0c-3.15 0-5.36 2.263-5.36 5.318 0 2.667 1.94 5.047 5.33 5.047 3.02 0 5.27-2.201 5.27-5.152 0-2.726-1.78-5.213-5.24-5.213zm38.07 0c-0.03 0-0.52 0.616-1.05 0.721 0.05 0.254-0.1 0.612-0.28 1.091l-2.05 5.333c-0.32 0.808-0.56 1.438-0.74 1.828-0.22 0.494-0.39 0.614-0.82 0.689l-0.45 0.074c-0.11 0.135-0.09 0.36 0.01 0.434 0.53-0.03 0.99-0.043 1.49-0.043 0.61 0.014 1.11 0.013 1.58 0.043 0.12-0.06 0.14-0.329 0.03-0.434l-0.43-0.074c-0.55-0.09-0.62-0.12-0.32-1.004l0.62-1.797c0.13-0.404 0.12-0.404 0.51-0.404h1.99c0.42 0 0.48 0 0.61 0.404l0.71 2.035c0.22 0.63 0.15 0.72-0.39 0.795l-0.33 0.045c-0.09 0.09-0.08 0.36 0.05 0.434 0.52-0.015 1.18-0.043 1.82-0.043 0.78 0 1.34 0.013 1.95 0.043 0.1-0.074 0.1-0.329-0.02-0.434l-0.22-0.045c-0.77-0.15-0.84-0.238-1.19-1.242l-2.15-6.277c-0.24-0.674-0.44-1.377-0.68-2.051-0.06-0.075-0.13-0.121-0.25-0.121zm13.15 0c-2.19 0-3.3 1.259-3.3 2.742 0 1.348 0.99 2.262 2.12 2.891l0.64 0.359c1.12 0.629 1.53 1.318 1.53 2.172 0 0.913-0.65 1.602-1.78 1.602-1.47 0-2.28-1.601-2.55-2.366-0.12-0.104-0.38-0.091-0.47 0.059-0.01 0.929 0.18 1.962 0.45 2.277 0.3 0.18 1.08 0.629 2.46 0.629 2.17 0 3.48-1.212 3.48-2.92 0-1.512-1.08-2.441-2.06-2.951l-0.93-0.494c-0.98-0.524-1.42-1.199-1.42-1.828 0-0.794 0.5-1.572 1.69-1.572 1.28 0 1.8 1.004 2.03 1.783 0.13 0.105 0.4 0.09 0.48-0.045 0-0.704-0.15-1.694-0.32-2.024-0.7-0.134-1.27-0.314-2.05-0.314zm17.84 0c-0.03 0-0.53 0.616-1.05 0.721 0.04 0.254-0.11 0.612-0.29 1.091l-2.05 5.333c-0.31 0.808-0.55 1.438-0.73 1.828-0.23 0.494-0.39 0.614-0.83 0.689l-0.45 0.074c-0.1 0.135-0.08 0.36 0.02 0.434 0.52-0.03 0.99-0.043 1.48-0.043 0.62 0.014 1.11 0.013 1.59 0.043 0.12-0.06 0.14-0.329 0.03-0.434l-0.43-0.074c-0.56-0.09-0.62-0.12-0.32-1.004l0.61-1.797c0.14-0.404 0.13-0.404 0.51-0.404h2c0.42 0 0.48 0 0.61 0.404l0.71 2.035c0.22 0.63 0.15 0.72-0.39 0.795l-0.33 0.045c-0.09 0.09-0.08 0.36 0.04 0.434 0.53-0.015 1.18-0.043 1.83-0.043 0.78 0 1.33 0.013 1.95 0.043 0.1-0.074 0.1-0.329-0.02-0.434l-0.22-0.045c-0.77-0.15-0.84-0.238-1.19-1.242l-2.16-6.277c-0.23-0.674-0.43-1.377-0.67-2.051-0.06-0.075-0.13-0.121-0.25-0.121zm89.96 0c-2.18 0-3.29 1.259-3.29 2.742 0 1.348 0.99 2.262 2.11 2.891l0.64 0.359c1.13 0.629 1.53 1.318 1.53 2.172 0 0.913-0.64 1.602-1.78 1.602-1.47 0-2.28-1.601-2.55-2.366-0.12-0.104-0.37-0.091-0.46 0.059-0.02 0.929 0.18 1.962 0.45 2.277 0.3 0.18 1.08 0.629 2.46 0.629 2.17 0 3.47-1.212 3.47-2.92 0-1.512-1.08-2.441-2.05-2.951l-0.93-0.494c-0.99-0.524-1.42-1.199-1.42-1.828 0-0.794 0.49-1.572 1.69-1.572 1.27 0 1.8 1.004 2.02 1.783 0.14 0.105 0.4 0.09 0.48-0.045 0-0.704-0.15-1.694-0.32-2.024-0.7-0.134-1.27-0.314-2.05-0.314zm-187.25 0.195c-0.135 0.061-0.134 0.359-0.029 0.434l0.418 0.06c0.703 0.106 0.839 0.15 0.839 1.707v5.573c0 1.558-0.136 1.573-0.839 1.693l-0.45 0.074c-0.134 0.075-0.088 0.374 0.032 0.434 0.629-0.03 1.377-0.043 2.14-0.043h1.557c1.678 0 2.967 0.013 3.596 0.043 0.179-0.404 0.509-1.541 0.629-2.17-0.075-0.12-0.315-0.167-0.465-0.092-0.689 1.543-0.927 1.619-2.59 1.619-1.198 0-1.438-0.12-1.617-0.33-0.225-0.255-0.256-0.794-0.256-1.543v-5.258c0-1.557 0.135-1.586 0.84-1.707l0.328-0.06c0.12-0.075 0.105-0.373-0.03-0.434-0.658 0.031-1.332 0.045-1.992 0.045-0.688 0-1.362-0.014-2.111-0.045zm8.852 0c-0.12 0.061-0.137 0.329-0.032 0.434l0.33 0.045c0.704 0.089 0.838 0.135 0.838 1.722v5.573c0 1.588-0.134 1.632-0.838 1.722l-0.33 0.045c-0.105 0.105-0.088 0.374 0.032 0.434 0.659-0.03 1.362-0.043 2.021-0.043 0.66 0 1.334 0.013 1.992 0.043 0.12-0.06 0.135-0.329 0.029-0.434l-0.328-0.045c-0.703-0.09-0.839-0.134-0.839-1.722v-5.573c0-1.587 0.136-1.633 0.839-1.722l0.328-0.045c0.106-0.105 0.091-0.373-0.029-0.434-0.658 0.031-1.332 0.045-1.992 0.045-0.688 0-1.362-0.014-2.021-0.045zm5.81 0c-0.12 0.061-0.134 0.329-0.029 0.434l0.193 0.031c0.704 0.105 0.838 0.149 0.838 1.736v5.573c0 1.588-0.134 1.632-0.838 1.722l-0.33 0.045c-0.105 0.105-0.089 0.374 0.031 0.434 0.689-0.03 1.362-0.043 2.022-0.043 0.658 0 1.333 0.013 2.293 0.043 0.12-0.06 0.13-0.329 0.03-0.434l-0.63-0.074c-0.704-0.09-0.84-0.105-0.84-1.693v-2.098c0-0.374 0.015-0.402 0.36-0.402h0.88c1.31 0 1.55 0.029 1.68 0.658l0.12 0.584c0.09 0.105 0.38 0.104 0.45-0.016-0.01-0.464-0.04-1.002-0.04-1.556s0.03-1.109 0.04-1.498c-0.07-0.12-0.36-0.121-0.45-0.016l-0.12 0.51c-0.15 0.629-0.37 0.658-1.68 0.658h-0.88c-0.345 0-0.36-0.029-0.36-0.404v-2.68c0-0.839 0-0.869 0.63-0.869h0.76c0.48 0 0.86 0.014 1.26 0.119 0.57 0.15 0.81 0.584 0.96 1.453 0.15 0.09 0.42 0.059 0.48-0.06-0.03-0.705-0.03-1.827-0.03-2.157-0.32 0.031-1.15 0.045-2.11 0.045h-2.832c-0.659 0-1.334-0.014-1.858-0.045zm22.82 0c-1.22 0-2.5 0.045-3.44 0.135-0.12 0.074-0.12 0.315-0.01 0.42l0.38 0.045c0.71 0.074 0.72 0.253 0.72 1.691v5.483c0 1.588-0.13 1.632-0.84 1.722l-0.33 0.045c-0.13 0.105-0.09 0.374 0.03 0.434 0.69-0.03 1.37-0.043 2.03-0.043s1.33 0.013 1.99 0.043c0.12-0.06 0.13-0.329 0.03-0.434l-0.33-0.045c-0.7-0.09-0.84-0.134-0.84-1.722v-1.918c0-0.315 0.02-0.328 0.47-0.328 0.49 0 0.65 0.058 0.92 0.507 0.36 0.585 0.78 1.411 1.19 2.04 0.91 1.393 1.69 1.976 3.13 1.976 0.52 0 0.81-0.045 0.99-0.09 0.04-0.075 0.04-0.24-0.03-0.301-0.18-0.014-0.62-0.103-1.04-0.462-0.7-0.584-1.45-1.857-2.65-3.879-0.06-0.091-0.09-0.211 0-0.256 0.74-0.3 1.8-0.989 1.8-2.367 0-1.078-0.56-1.781-1.32-2.186-0.66-0.36-1.68-0.51-2.85-0.51zm6.38 0c-0.15 0.045-0.16 0.344-0.06 0.434l0.23 0.045c0.21 0.045 0.63 0.166 0.79 0.301 0.51 0.434 0.5 0.672 0.5 1.841v3.551c0 1.183 0 2.486-0.2 2.949-0.1 0.241-0.37 0.286-0.66 0.346l-0.33 0.074c-0.12 0.105-0.09 0.36 0.03 0.434 0.53-0.03 0.93-0.043 1.56-0.043 0.57 0 1.15 0.013 1.71 0.043 0.15-0.044 0.16-0.329 0.03-0.434l-0.33-0.045c-0.38-0.045-0.63-0.15-0.76-0.375-0.26-0.449-0.27-1.826-0.27-2.949v-2.922c0-0.794 0-0.959 0.04-0.959 0.26 0.225 0.75 0.78 1.71 1.889l3.5 3.998c1.08 1.228 1.52 1.738 1.76 2.053 0.18 0.015 0.39-0.047 0.51-0.211-0.05-0.344-0.05-2.185-0.05-2.635v-3.58c0-1.183 0-2.487 0.21-2.951 0.1-0.24 0.36-0.284 0.64-0.344l0.35-0.076c0.12-0.105 0.09-0.359-0.03-0.434-0.54 0.031-0.93 0.045-1.57 0.045-0.59 0-1.14-0.014-1.73-0.045-0.15 0.045-0.16 0.329-0.03 0.434l0.35 0.045c0.37 0.045 0.61 0.151 0.75 0.375 0.27 0.45 0.28 1.828 0.28 2.951v2.92c0 0.239 0 0.314-0.04 0.359-0.15-0.09-1.55-1.676-2.18-2.365l-1.49-1.619c-0.53-0.569-2.16-2.456-2.41-3.1-0.36 0.031-0.72 0.045-1.04 0.045-0.37 0-1.2 0.016-1.77-0.045zm12.02 0c-0.12 0.061-0.14 0.329-0.03 0.434l0.33 0.045c0.7 0.089 0.83 0.135 0.83 1.722v5.573c0 1.588-0.13 1.632-0.83 1.722l-0.33 0.045c-0.11 0.105-0.09 0.374 0.03 0.434 0.66-0.03 1.36-0.043 2.02-0.043s1.33 0.013 1.99 0.043c0.12-0.06 0.13-0.329 0.03-0.434l-0.33-0.045c-0.7-0.09-0.84-0.134-0.84-1.722v-5.573c0-1.587 0.14-1.633 0.84-1.722l0.33-0.045c0.1-0.105 0.09-0.373-0.03-0.434-0.66 0.031-1.33 0.045-1.99 0.045-0.69 0-1.36-0.014-2.02-0.045zm56.25 0c-0.12 0.061-0.14 0.329-0.03 0.434l0.24 0.031c0.7 0.09 0.84 0.149 0.84 1.736v5.573c0 1.588-0.14 1.632-0.84 1.707l-0.55 0.06c-0.11 0.105-0.09 0.374 0.02 0.434 0.68-0.03 1.59-0.043 2.25-0.043h1.71c1.75 0 3.04 0.013 3.7 0.043 0.21-0.404 0.54-1.541 0.63-2.17-0.09-0.15-0.35-0.197-0.48-0.092-0.53 1.214-0.86 1.634-2.76 1.619-1.26-0.015-1.51-0.12-1.69-0.33-0.23-0.255-0.25-0.793-0.25-1.556v-1.905c0-0.374 0.01-0.402 0.36-0.402h0.71c1.31 0 1.56 0.029 1.67 0.658l0.1 0.6c0.12 0.09 0.41 0.089 0.48-0.016-0.01-0.48-0.04-1.003-0.04-1.572 0-0.554 0.03-1.093 0.04-1.498-0.07-0.119-0.36-0.121-0.48-0.016l-0.1 0.51c-0.14 0.644-0.36 0.658-1.67 0.658h-0.71c-0.35 0-0.36-0.015-0.36-0.404v-2.531c0-0.854-0.01-0.883 0.64-0.883h1c0.41 0 0.86 0.045 1.2 0.135 0.48 0.135 0.71 0.495 0.94 1.363 0.13 0.09 0.42 0.059 0.48-0.061-0.09-0.644-0.18-1.827-0.23-2.082-0.2 0.031-1.07 0.045-2.03 0.045h-2.86c-0.66 0-1.36-0.014-1.93-0.045zm13 0c-0.12 0.061-0.14 0.315-0.03 0.42l0.25 0.045c0.71 0.12 0.84 0.149 0.84 1.736v3.805c0 1.514 0.32 2.561 0.99 3.205 0.69 0.659 1.68 0.959 3.09 0.959 1.03 0 2.15-0.284 2.93-1.123s0.99-2.097 0.99-3.461v-1.781c0-1.183 0-2.501 0.21-2.951 0.11-0.24 0.38-0.299 0.66-0.36l0.33-0.074c0.12-0.105 0.09-0.345-0.03-0.42-0.55 0.031-0.96 0.045-1.59 0.045-0.58 0-1.15-0.014-1.66-0.045-0.15 0.045-0.17 0.315-0.03 0.42l0.3 0.045c0.37 0.061 0.61 0.165 0.75 0.389 0.27 0.434 0.28 1.828 0.28 2.951v1.871c0 2.277-0.81 3.762-2.77 3.762-2.08 0-2.71-1.738-2.71-3.805v-3.432c0-1.587 0.14-1.645 0.84-1.736l0.33-0.045c0.1-0.105 0.09-0.359-0.03-0.42-0.66 0.031-1.34 0.045-2.01 0.045-0.66 0-1.33-0.014-1.93-0.045zm11.2 0c-0.15 0.045-0.16 0.344-0.06 0.434l0.23 0.045c0.21 0.045 0.62 0.166 0.79 0.301 0.51 0.434 0.49 0.672 0.49 1.841v3.551c0 1.183 0 2.486-0.19 2.949-0.11 0.241-0.38 0.286-0.66 0.346l-0.33 0.074c-0.12 0.105-0.09 0.36 0.03 0.434 0.53-0.03 0.93-0.043 1.56-0.043 0.57 0 1.15 0.013 1.7 0.043 0.15-0.044 0.17-0.329 0.04-0.434l-0.33-0.045c-0.38-0.045-0.63-0.15-0.77-0.375-0.25-0.449-0.27-1.826-0.27-2.949v-2.922c0-0.794 0-0.959 0.05-0.959 0.25 0.225 0.75 0.78 1.7 1.889l3.51 3.998c1.08 1.228 1.51 1.738 1.75 2.053 0.18 0.015 0.39-0.047 0.51-0.211-0.04-0.344-0.04-2.185-0.04-2.635v-3.58c0-1.183 0-2.487 0.21-2.951 0.1-0.24 0.36-0.284 0.64-0.344l0.35-0.076c0.12-0.105 0.08-0.359-0.04-0.434-0.53 0.031-0.92 0.045-1.57 0.045-0.58 0-1.14-0.014-1.72-0.045-0.15 0.045-0.16 0.329-0.03 0.434l0.34 0.045c0.38 0.045 0.62 0.151 0.75 0.375 0.27 0.45 0.29 1.828 0.29 2.951v2.92c0 0.239 0 0.314-0.05 0.359-0.15-0.09-1.54-1.676-2.17-2.365l-1.5-1.619c-0.52-0.569-2.15-2.456-2.41-3.1-0.36 0.031-0.72 0.045-1.03 0.045-0.38 0-1.2 0.016-1.77-0.045zm12.01 0c-0.12 0.061-0.13 0.329-0.03 0.434l0.33 0.045c0.71 0.089 0.84 0.135 0.84 1.722v5.573c0 1.588-0.13 1.632-0.84 1.722l-0.33 0.045c-0.1 0.105-0.09 0.374 0.03 0.434 0.66-0.03 1.37-0.043 2.03-0.043 0.65 0 1.33 0.013 1.99 0.043 0.12-0.06 0.13-0.329 0.03-0.434l-0.33-0.045c-0.71-0.09-0.84-0.134-0.84-1.722v-5.573c0-1.587 0.13-1.633 0.84-1.722l0.33-0.045c0.1-0.105 0.09-0.373-0.03-0.434-0.66 0.031-1.34 0.045-1.99 0.045-0.69 0-1.37-0.014-2.03-0.045zm4.88 0c-0.15 0.045-0.15 0.315-0.04 0.42l0.36 0.074c0.6 0.121 0.73 0.331 1.15 1.334l2.62 6.305c0.27 0.63 0.51 1.364 0.69 1.963 0.08 0.045 0.18 0.074 0.29 0.074 0.1 0 0.22-0.029 0.25-0.074 0.26-0.763 0.95-2.517 1.56-3.881l0.84-1.855c0.69-1.514 1.11-2.518 1.53-3.237 0.25-0.434 0.58-0.538 0.92-0.613l0.38-0.076c0.07-0.119 0.09-0.359-0.03-0.434-0.42 0.031-0.91 0.045-1.45 0.045-0.48 0-0.99-0.014-1.61-0.045-0.12 0.075-0.13 0.315-0.03 0.434l0.44 0.105c0.45 0.105 0.49 0.226 0.25 0.825-0.79 2.037-1.69 4.102-2.5 5.99-0.15-0.344-0.55-1.227-0.82-1.901l-1.08-2.668c-0.61-1.527-0.74-1.857-0.74-1.992 0-0.12 0.13-0.192 0.45-0.267l0.38-0.092c0.13-0.105 0.12-0.343-0.02-0.434-0.79 0.031-1.3 0.045-1.97 0.045-0.59 0-1.23-0.014-1.82-0.045zm11.37 0c-0.12 0.061-0.13 0.329-0.03 0.434l0.24 0.031c0.71 0.09 0.84 0.149 0.84 1.736v5.573c0 1.588-0.13 1.632-0.84 1.707l-0.55 0.06c-0.11 0.105-0.09 0.374 0.03 0.434 0.67-0.03 1.59-0.043 2.25-0.043h1.7c1.76 0 3.04 0.013 3.7 0.043 0.21-0.404 0.54-1.541 0.63-2.17-0.09-0.15-0.34-0.197-0.48-0.092-0.52 1.214-0.85 1.634-2.75 1.619-1.26-0.015-1.52-0.12-1.7-0.33-0.22-0.255-0.25-0.793-0.25-1.556v-1.905c0-0.374 0.01-0.402 0.36-0.402h0.72c1.3 0 1.55 0.029 1.66 0.658l0.1 0.6c0.12 0.09 0.41 0.089 0.48-0.016-0.01-0.48-0.04-1.003-0.04-1.572 0-0.554 0.03-1.093 0.04-1.498-0.07-0.119-0.36-0.121-0.48-0.016l-0.1 0.51c-0.14 0.644-0.36 0.658-1.66 0.658h-0.72c-0.35 0-0.36-0.015-0.36-0.404v-2.531c0-0.854 0-0.883 0.64-0.883h1.01c0.4 0 0.85 0.045 1.19 0.135 0.48 0.135 0.71 0.495 0.95 1.363 0.12 0.09 0.42 0.059 0.48-0.061-0.09-0.644-0.18-1.827-0.24-2.082-0.2 0.031-1.06 0.045-2.02 0.045h-2.86c-0.66 0-1.37-0.014-1.94-0.045zm12.46 0c-1.22 0-2.5 0.045-3.44 0.135-0.12 0.074-0.12 0.315-0.02 0.42l0.39 0.045c0.71 0.074 0.72 0.253 0.72 1.691v5.483c0 1.588-0.13 1.632-0.84 1.722l-0.33 0.045c-0.13 0.105-0.09 0.374 0.03 0.434 0.69-0.03 1.37-0.043 2.03-0.043s1.33 0.013 1.99 0.043c0.12-0.06 0.13-0.329 0.03-0.434l-0.33-0.045c-0.71-0.09-0.84-0.134-0.84-1.722v-1.918c0-0.315 0.02-0.328 0.46-0.328 0.5 0 0.66 0.058 0.93 0.507 0.36 0.585 0.78 1.411 1.19 2.04 0.91 1.393 1.69 1.976 3.13 1.976 0.52 0 0.8-0.045 0.98-0.09 0.05-0.075 0.05-0.24-0.02-0.301-0.18-0.014-0.62-0.103-1.04-0.462-0.7-0.584-1.45-1.857-2.65-3.879-0.06-0.091-0.09-0.211 0-0.256 0.73-0.3 1.8-0.989 1.8-2.367 0-1.078-0.56-1.781-1.32-2.186-0.66-0.36-1.68-0.51-2.85-0.51zm14.41 0c-0.12 0.061-0.13 0.329-0.03 0.434l0.33 0.045c0.71 0.089 0.84 0.135 0.84 1.722v5.573c0 1.588-0.13 1.632-0.84 1.722l-0.33 0.045c-0.1 0.105-0.09 0.374 0.03 0.434 0.66-0.03 1.36-0.043 2.02-0.043s1.34 0.013 1.99 0.043c0.12-0.06 0.14-0.329 0.04-0.434l-0.33-0.045c-0.71-0.09-0.84-0.134-0.84-1.722v-5.573c0-1.587 0.13-1.633 0.84-1.722l0.33-0.045c0.1-0.105 0.08-0.373-0.04-0.434-0.65 0.031-1.33 0.045-1.99 0.045-0.69 0-1.36-0.014-2.02-0.045zm16.06 0c-0.12 0.045-0.15 0.329-0.06 0.434l0.39 0.092c0.67 0.149 0.79 0.312 1.12 0.957l1.8 3.55c0.4 0.794 0.48 1.019 0.48 1.858v0.883c0 1.588-0.14 1.617-0.84 1.707l-0.48 0.06c-0.11 0.105-0.09 0.374 0.03 0.434 0.81-0.03 1.48-0.043 2.17-0.043 0.66 0 1.33 0.013 2.26 0.043 0.12-0.06 0.14-0.329 0.03-0.434l-0.57-0.06c-0.73-0.075-0.87-0.119-0.87-1.707v-0.899c0-1.019 0.11-1.332 0.56-2.111 0.46-0.838 0.91-1.664 1.42-2.518 0.78-1.318 0.96-1.586 1.63-1.72l0.44-0.092c0.1-0.119 0.1-0.359-0.03-0.434-0.48 0.031-0.96 0.045-1.43 0.045-0.44 0-0.91-0.014-1.57-0.045-0.15 0.075-0.15 0.329-0.04 0.434l0.45 0.105c0.21 0.03 0.34 0.075 0.34 0.225 0 0.164-0.15 0.494-0.4 1.004-0.59 1.123-1.14 2.172-1.76 3.31-0.6-1.093-1.15-2.308-1.73-3.595-0.23-0.495-0.27-0.658-0.27-0.778s0.07-0.15 0.31-0.195l0.45-0.076c0.12-0.105 0.09-0.373-0.03-0.434-0.34 0.031-1.26 0.045-1.92 0.045-0.61 0-1.24-0.014-1.88-0.045zm-179.48 0.405c2.38 0 3.39 2.621 3.39 4.882 0 3.012-1.37 4.284-3.08 4.284-2.56 0-3.45-2.816-3.45-4.883 0-3.19 1.64-4.283 3.14-4.283zm9.62 0.195c1.31 0 2.07 1.033 2.07 2.217 0 1.423-0.67 2.14-2.14 2.14-0.72 0-0.72-0.028-0.72-0.507v-3.116c0-0.689 0.02-0.734 0.79-0.734zm139.57 0c1.31 0 2.07 1.033 2.07 2.217 0 1.423-0.67 2.14-2.14 2.14-0.72 0-0.72-0.028-0.72-0.507v-3.116c0-0.689 0.02-0.734 0.79-0.734zm-183.36 1.617h0.029c0.075 0.105 0.15 0.39 0.42 1.184l0.629 1.797c0.119 0.359 0.06 0.388-0.359 0.388h-1.559c-0.359 0-0.388 0.001-0.238-0.433l0.629-1.752c0.255-0.705 0.389-1.079 0.449-1.184zm71.607 0h0.03c0.07 0.105 0.15 0.39 0.42 1.184l0.62 1.797c0.12 0.359 0.06 0.388-0.35 0.388h-1.56c-0.36 0-0.39 0.001-0.24-0.433l0.63-1.752c0.25-0.705 0.39-1.079 0.45-1.184zm30.98 0h0.03c0.08 0.105 0.15 0.39 0.42 1.184l0.63 1.797c0.12 0.359 0.06 0.388-0.36 0.388h-1.56c-0.35 0-0.39 0.001-0.24-0.433l0.63-1.752c0.26-0.705 0.39-1.079 0.45-1.184zm32.67 15.344c-0.21 0-0.37 0.039-0.45 0.162-0.29 1.437-0.91 3.981-1.6 6.197 0.16 0.41 1.02 0.534 1.31 0.287 1.52-3.324 2.63-3.775 6.4-3.775h2.3c1.06 0 1.11 0.084 1.11 1.807v17.726c0 4.349-0.37 4.391-2.3 4.637l-1.72 0.205c-0.29 0.206-0.25 1.026 0.08 1.189 2.62-0.082 4.55-0.123 6.36-0.123 1.8 0 3.65 0.041 6.03 0.123 0.33-0.163 0.37-0.902 0.08-1.189l-1.48-0.164c-1.92-0.206-2.29-0.329-2.29-4.678v-17.726c0-1.723 0.04-1.807 1.1-1.807h2.34c4.39 0 5.17 0.78 5.71 3.98 0.37 0.288 1.06 0.206 1.27-0.123-0.12-1.313 0.2-4.84 0.61-6.523-0.08-0.124-0.28-0.205-0.53-0.205-0.16 0-0.33 0.08-0.49 0.162-0.49 0.945-1.11 1.068-3.12 1.068h-16.74c-2.79 0-3.37-0.041-3.57-1.068-0.08-0.123-0.25-0.162-0.41-0.162zm40.66 0.574c-8.61 0-14.69 6.195-14.69 14.566 0 7.306 5.34 13.831 14.61 13.831 8.29 0 14.45-6.033 14.45-14.118 0-7.467-4.89-14.279-14.37-14.279zm-190.61 0.533c-0.328 0.164-0.37 0.903-0.082 1.19l0.533 0.084c1.928 0.286 2.299 0.409 2.299 4.759v15.264c0 4.349-0.371 4.473-2.299 4.719l-0.903 0.123c-0.288 0.287-0.246 1.026 0.082 1.189 1.888-0.082 3.734-0.123 5.539-0.123 1.806 0 3.654 0.041 6.28 0.123 0.328-0.163 0.367-0.902 0.08-1.189l-1.723-0.205c-1.929-0.246-2.297-0.288-2.297-4.637v-5.744c0-1.026 0.041-1.109 0.985-1.109h2.42c3.57 0 4.227 0.083 4.597 1.806l0.328 1.6c0.247 0.287 1.025 0.288 1.231-0.041-0.041-1.272-0.123-2.75-0.123-4.268 0-1.517 0.081-3.036 0.123-4.103-0.206-0.328-0.984-0.329-1.231-0.041l-0.328 1.396c-0.41 1.723-1.027 1.805-4.597 1.805h-2.42c-0.944 0-0.985-0.084-0.985-1.109v-7.344c0-2.298 0-2.381 1.723-2.381h2.094c1.313 0 2.337 0.042 3.445 0.33 1.559 0.41 2.216 1.599 2.627 3.979 0.41 0.246 1.148 0.164 1.312-0.165-0.082-1.929-0.082-5.005-0.082-5.908-0.861 0.082-3.159 0.123-5.785 0.123h-7.756c-1.805 0-3.651-0.041-5.087-0.123zm21.871 0c-0.328 0.164-0.37 0.861-0.082 1.149l0.697 0.125c1.928 0.327 2.299 0.409 2.299 4.759v10.422c0 4.145 0.86 7.018 2.707 8.782 1.887 1.805 4.597 2.627 8.455 2.627 2.831 0 5.911-0.781 8.041-3.079 2.13-2.299 2.71-5.745 2.71-9.48v-4.883c0-3.242 0-6.851 0.57-8.082 0.29-0.658 1.03-0.821 1.81-0.986l0.9-0.205c0.33-0.288 0.25-0.943-0.08-1.149-1.52 0.082-2.63 0.123-4.35 0.123-1.6 0-3.16-0.041-4.55-0.123-0.41 0.123-0.46 0.861-0.09 1.149l0.82 0.125c1.03 0.163 1.69 0.45 2.05 1.066 0.74 1.19 0.78 5.005 0.78 8.082v5.131c0 6.237-2.21 10.299-7.586 10.299-5.704 0-7.428-4.76-7.428-10.424v-9.395c0-4.35 0.37-4.513 2.299-4.759l0.903-0.125c0.287-0.288 0.246-0.985-0.082-1.149-1.806 0.082-3.652 0.123-5.498 0.123-1.806 0-3.653-0.041-5.295-0.123zm30.737 0c-0.37 0.164-0.37 0.984-0.08 1.19l1.15 0.164c1.93 0.288 2.29 0.411 2.29 4.679v15.264c0 4.267-0.36 4.309-2.29 4.637l-1.24 0.205c-0.36 0.206-0.24 1.026 0.09 1.189 1.72-0.082 3.77-0.123 5.87-0.123h4.26c4.6 0 8.13 0.041 9.85 0.123 0.49-1.107 1.4-4.224 1.72-5.949-0.2-0.327-0.86-0.451-1.27-0.246-1.89 4.227-2.54 4.432-7.1 4.432-3.28 0-3.94-0.328-4.43-0.903-0.61-0.697-0.7-2.174-0.7-4.226v-14.403c0-4.268 0.37-4.351 2.3-4.679l0.91-0.164c0.32-0.206 0.28-1.026-0.09-1.19-1.8 0.082-3.65 0.123-5.45 0.123-1.89 0-3.74-0.041-5.79-0.123zm23.39 0c-0.37 0.164-0.37 0.984-0.08 1.19l1.15 0.164c1.92 0.288 2.29 0.411 2.29 4.679v15.264c0 4.267-0.37 4.309-2.29 4.637l-1.23 0.205c-0.37 0.206-0.25 1.026 0.08 1.189 1.72-0.082 3.77-0.123 5.87-0.123h4.26c4.6 0 8.13 0.041 9.85 0.123 0.49-1.107 1.4-4.224 1.72-5.949-0.2-0.327-0.86-0.451-1.27-0.246-1.89 4.227-2.54 4.432-7.1 4.432-3.28 0-3.94-0.328-4.43-0.903-0.61-0.697-0.7-2.174-0.7-4.226v-14.403c0-4.268 0.37-4.351 2.3-4.679l0.91-0.164c0.32-0.206 0.28-1.026-0.09-1.19-1.8 0.082-3.65 0.123-5.45 0.123-1.89 0-3.74-0.041-5.79-0.123zm23.88 0c-0.32 0.164-0.37 0.903-0.08 1.19l0.66 0.084c1.93 0.246 2.3 0.409 2.3 4.759v15.264c0 4.349-0.37 4.473-2.3 4.678l-1.52 0.164c-0.29 0.287-0.25 1.028 0.08 1.191 1.85-0.082 4.35-0.125 6.16-0.125h4.68c4.8 0 8.33 0.043 10.13 0.125 0.58-1.107 1.48-4.226 1.72-5.951-0.24-0.409-0.94-0.533-1.31-0.246-1.43 3.324-2.34 4.473-7.55 4.432-3.45-0.041-4.14-0.328-4.64-0.903-0.61-0.697-0.69-2.174-0.69-4.267v-5.213c0-1.025 0.04-1.108 0.98-1.108h1.97c3.57 0 4.27 0.084 4.55 1.807l0.29 1.641c0.33 0.246 1.11 0.246 1.32-0.041-0.04-1.313-0.13-2.75-0.13-4.309 0-1.518 0.09-2.996 0.13-4.103-0.21-0.329-0.99-0.329-1.32-0.041l-0.29 1.394c-0.36 1.764-0.98 1.807-4.55 1.807h-1.97c-0.94 0-0.98-0.043-0.98-1.11v-6.933c0-2.338 0-2.422 1.76-2.422h2.75c1.11 0 2.34 0.123 3.28 0.369 1.32 0.37 1.93 1.355 2.59 3.734 0.33 0.247 1.15 0.165 1.31-0.164-0.24-1.763-0.49-5.006-0.66-5.703-0.53 0.082-2.91 0.123-5.53 0.123h-7.84c-1.81 0-3.74-0.041-5.3-0.123zm33.53 0c-3.37 0-6.85 0.124-9.44 0.369-0.33 0.206-0.33 0.863-0.04 1.151l1.07 0.121c1.93 0.205 1.97 0.699 1.97 4.639v15.017c0 4.349-0.37 4.473-2.3 4.719l-0.9 0.123c-0.37 0.287-0.25 1.028 0.08 1.191 1.89-0.082 3.73-0.125 5.54-0.125 1.8 0 3.65 0.043 5.46 0.125 0.32-0.163 0.36-0.904 0.08-1.191l-0.91-0.123c-1.92-0.246-2.29-0.37-2.29-4.719v-5.252c0-0.862 0.04-0.904 1.27-0.904 1.35 0 1.8 0.164 2.54 1.396 0.99 1.601 2.14 3.857 3.24 5.58 2.51 3.816 4.64 5.418 8.58 5.418 1.44 0 2.22-0.122 2.71-0.246 0.12-0.205 0.12-0.658-0.08-0.822-0.5-0.042-1.68-0.286-2.83-1.271-1.93-1.6-3.98-5.09-7.27-10.629-0.16-0.247-0.24-0.575 0-0.698 2.01-0.82 4.93-2.707 4.93-6.482 0-2.955-1.52-4.884-3.61-5.992-1.81-0.985-4.6-1.395-7.8-1.395zm73.13 0c-0.41 0.123-0.45 0.943-0.17 1.19l0.62 0.125c0.57 0.122 1.72 0.449 2.17 0.818 1.4 1.19 1.36 1.846 1.36 5.047v9.727c0 3.241 0 6.812-0.54 8.084-0.28 0.656-1.02 0.779-1.8 0.943l-0.9 0.205c-0.33 0.287-0.25 0.984 0.08 1.189 1.43-0.082 2.54-0.123 4.26-0.123 1.56 0 3.16 0.041 4.68 0.123 0.41-0.123 0.45-0.902 0.08-1.189l-0.9-0.123c-1.02-0.124-1.72-0.41-2.09-1.025-0.7-1.232-0.74-5.007-0.74-8.084v-8.002c0-2.176 0-2.625 0.12-2.625 0.7 0.615 2.06 2.133 4.68 5.169l9.6 10.958c2.96 3.364 4.15 4.758 4.81 5.619 0.49 0.041 1.06-0.122 1.39-0.575-0.12-0.944-0.12-5.99-0.12-7.22v-9.809c0-3.242 0-6.811 0.57-8.082 0.29-0.658 0.99-0.782 1.77-0.945l0.94-0.205c0.33-0.287 0.25-0.984-0.08-1.19-1.48 0.082-2.55 0.123-4.31 0.123-1.6 0-3.12-0.041-4.72-0.123-0.41 0.123-0.45 0.903-0.08 1.19l0.94 0.123c1.03 0.122 1.68 0.411 2.05 1.027 0.74 1.231 0.78 5.005 0.78 8.082v8.002c0 0.656 0 0.863-0.12 0.986-0.41-0.246-4.23-4.597-5.95-6.484l-4.1-4.432c-1.44-1.559-5.91-6.73-6.61-8.494-0.99 0.082-1.97 0.123-2.83 0.123-1.03 0-3.28 0.041-4.84-0.123zm-16.46 1.108c6.53 0 9.32 7.18 9.32 13.377 0 8.247-3.78 11.736-8.46 11.736-7.01 0-9.43-7.715-9.43-13.377 0-8.741 4.47-11.736 8.57-11.736zm-56.18 0.533c3.57 0 5.66 2.833 5.66 6.074 0 3.899-1.84 5.867-5.86 5.867-1.97 0-1.97-0.083-1.97-1.396v-8.533c0-1.889 0.04-2.012 2.17-2.012z" transform="matrix(.8 0 0 -.8 188.32 426.92)" fill="#00274c"/><path d="m190.33 412.54v9.0016s11.595 3.4473 19.341 3.4473c7.7418 0 14.152-1.6687 18.453-3.1855-0.002-0.6687 0-10.82 0-10.82h-37.76l-0.0348 1.5563" fill="#e17000"/><path d="m228.05 413.34-11.55 0.40631 11.267 2.3572-10.862-1.0566 10.291 3.8658-10.696-2.769 9.7195 5.5728-10.29-4.4739 7.281 6.1515-0.212 0.0409-7.8809-5.1337 5.1147 5.7548-0.46287 0.0702-5.5462-5.0526 3.5304 5.4119-0.52286 0.1268-3.9858-4.9292 2.2775 5.1113-0.64282 0.0975-2.8542-4.8822 1.3804 4.9749-0.69327 0.0198-1.7867-4.5884 0.53853 4.647-0.74781 0.0532-1.0498-4.66-0.20518 4.6409h-0.18883l-0.40424 0.0375-0.19837-4.6784-1.0273 4.5652-0.75395-0.0368 0.52217-4.5686-1.7615 4.5127-0.68304-0.0934 1.345-4.8256-2.6613 4.5843-0.66396-0.15133 2.1078-4.7595-3.6838 4.5625-0.58898-0.0818 3.2973-5.0901-5.2251 4.767-0.49899-0.10634 4.8277-5.433-7.324 4.7998-0.35993-0.0389 6.872-5.8195-10.29 4.4739 9.7188-5.5728-10.696 2.769 10.289-3.8658-10.858 1.0566 11.265-2.3572-11.55-0.4063 19.102-0.0784-0.002 0.0784h18.66" fill="#fff"/><path d="m228.13 412.35c-1.4778 0.84595-2.7424 1.2993-2.7424 1.2993-6.4331 2.5843-13.028 8.2818-13.028 8.2818-3.1112-2.27-5.1685-2.8474-5.1685-2.8474 0.6326-1.4765 4.9061-3.1664 5.5932-3.3757 0.68372-0.21271 1.2672-1.2175 1.2672-1.2175-3.5891 0.52969-9.866 4.6982-9.866 4.6982-3.6382-2.5856-11.814-5.75-12.606-5.9613-0.79212-0.20858-1.2563-0.711-1.2563-0.711 0-3.7894-0.00067-39.36-0.00067-39.36h37.805l0.002 39.193" fill="#00274c"/><path d="m30.105 6.0039l-0.269 0.3301c0.006 0.0042 5.015 4.093 8.187 6.061 3.159 1.958 6.29 3.655 8.784 4.677 2.489 1.027 2.261 0.962 2.998 1.512l0.257-0.342c-0.722-0.545-0.634-0.559-3.093-1.564-2.458-1.008-5.576-2.698-8.721-4.645-3.129-1.941-8.134-6.0241-8.143-6.0291zm-10.031 3.3594c-0.009 0.0059-3.545 2.3397-8.023 4.2737-4.4874 1.94-7.099 3.065-7.6018 3.181-0.6178 0.151-1.7135 0.735-2.4062 1.233l0.2519 0.345c0.6357-0.464 1.7518-1.049 2.252-1.164 0.6169-0.151 3.1642-1.259 7.6721-3.203 4.517-1.953 8.083-4.3065 8.09-4.3102l-0.235-0.3555zm6.074 10.045c-0.467 0.031-0.982 0.159-1.394 0.526-0.825 0.733-0.781 1.451-0.781 1.451-0.462 0.197-1.254 0.965-1.254 1.599 0 0.459 0.092 0.905 0.236 1.338-0.285-0.018-0.556-0.055-0.803-0.115-0.036-0.057-0.076-0.135-0.076-0.217v-0.578s0.589-0.494 0.658-1.037c0.099-0.775-0.511-1.649-0.412-2.16-0.214 0.247-1.846 1.945-0.527 3.181 0 0.159 0.083 0.484-0.088 0.665-0.448-0.161-0.822-0.374-1.131-0.61 0.032-0.087 0.049-0.177 0.049-0.269 0-0.759-0.197-1.683-0.379-2.094-0.093 0.198-0.474 0.617-0.807 0.963 0-0.001-0.001-0.005-0.001-0.006 0.576-1.22-0.247-1.617-0.313-1.733-0.066-0.114-0.247-0.428-0.264-0.494-1.451 1.533 0.099 2.309 0.215 2.375 0.01 0.063 0.031 0.12 0.047 0.18-0.015 0.016-0.033 0.036-0.047 0.051-0.33 0.33-0.579 1.137-0.084 2.127-0.165 0.445-0.297 1.186-0.148 2.043 0.144 0.833 0.021 2.359-0.379 2.609-0.915-0.736-1.602-1.381-1.961-1.9-0.075-0.109-0.143-0.225-0.209-0.342 0.053-0.234 0.162-0.698 0.232-0.844 0.095-0.198 0.867-0.2 1.18-0.924 0.197-0.456-0.208-2.113-0.037-2.498-0.994 0.89-2.06 1.471-1.377 3.334 0.004 0.139-0.05 0.411-0.162 0.61-0.586-1.272-0.68-2.774-0.68-2.774s0.367-0.368 0.434-0.469c0.292-0.441 0.248-1.113-0.045-1.748-0.117-0.253-0.367-0.945-0.367-0.945s-0.286 0.274-0.801 1.309c-0.562 1.129 0.224 1.67 0.293 1.875 0 0.75 0.133 1.476 0.314 2.113-0.047 0.014-0.094 0.021-0.131-0.004-0.098-0.066-0.709-0.43-0.709-0.43s-0.345-1.797-2.769-1.17c0.116 0.133 0.441 1.971 2.648 1.42 0.255 0.08 0.845 0.392 1.215 0.95 0.223 0.583 0.46 1.034 0.608 1.246 0.095 0.123 0.2 0.25 0.312 0.381-0.166-0.018-0.527-0.074-0.676-0.248-0.058-0.159-0.68-1.759-2.828-1.553 0.039-0.073 0.071-0.128 0.09-0.151-0.885-0.104-1.395 0.217-1.709 0.61 0.001-0.018 0.004-0.034 0.004-0.051 0-0.67-0.541-1.213-1.211-1.213-0.6689 0-1.2128 0.543-1.2128 1.213 0 0.669 0.5439 1.211 1.2128 1.211 0.009 0 0.016-0.003 0.025-0.004l-0.025 0.01s0.027 0.108 0.076 0.293c-0.015-0.006-0.032-0.01-0.047-0.018-0.1863-0.099-1.5352-1.306-2.8415 0.162 0.1125 0.018 0.7079 0.264 0.9942 0.416 0.2854 0.152 1.0709 0.354 1.8243-0.347 0.02-0.016 0.067-0.024 0.121-0.028 0.278 1.002 1.019 3.449 2.248 5.899-0.024 0.133-0.099 0.33-0.363 0.342-0.119 0.005-0.48 0.035-0.979 0.043l-0.482-0.512c0.001-0.891-0.227-2.995-2.9142-3.143 0.0988 0.165 0.248 1.006 0.3144 1.303 0.0656 0.296-0.0506 1.549 2.3238 1.912 0.156 0.078 0.277 0.268 0.391 0.44-0.9654-0.01-2.2768-0.125-3.4238-0.59-0.0315-0.161-0.0838-0.489-0.0488-0.653 0.046-0.22 0.8408-1.401-0.7773-2.599 0.0062 0.104-0.0566 0.475-0.0957 0.595-0.029 0.086-0.3054 0.708-0.0352 1.303-0.0442-0.005-0.0848-0.025-0.1309-0.025-0.5717 0-1.0351 0.463-1.0351 1.035s0.4634 1.035 1.0351 1.035c0.3545 0 0.6533-0.188 0.8399-0.459 0.1107 0.046 0.227 0.092 0.3574 0.139-0.0212 0.074-0.0632 0.167-0.1484 0.234-0.1645 0.132-0.4102 0.264-0.4102 0.264s-1.6331-0.71-2.4238 0.988c0.3289 0.083 1.8458 0.412 2.5215-0.709 0 0 0.5369-0.228 0.7832-0.67 0.8529 0.271 2.0301 0.498 3.4531 0.43-0.187 0.101-0.376 0.192-0.486 0.209-0.278 0.043-2.6804-0.163-2.8968 2.447 0.1346-0.071 0.9646-0.285 1.3906-0.351 0.4269-0.068 1.4232-0.482 1.6642-1.832 0.026-0.092 0.584-0.455 0.863-0.499 0.03-0.005 0.052-0.013 0.07-0.021 0.11-0.012 0.217-0.02 0.329-0.035 0.121-0.027 0.504 0.05 0.736 0.183 0.434 0.79 0.919 1.562 1.457 2.266 0.001 0.001 0.002 0.003 0.002 0.004-0.251 0.165-0.712 0.498-1.024 0.891-0.098-0.017-1.618-0.231-1.683 2.226 0.026-0.04 1.024-0.223 1.529-0.795-0.022 0.085-0.053 0.166-0.053 0.258 0 0.597 0.485 1.082 1.081 1.082s1.08-0.485 1.08-1.082c0-0.556-0.426-0.998-0.967-1.057-0.015-0.054-0.266-1.035 0.183-1.324l-0.201 0.119c0.068-0.047 0.137-0.089 0.207-0.125 1.485 1.937 2.893 3.626 4.27 5.086-0.126 0.333-0.522 0.455-1.334 0.653-0.006 0.001-0.01 0-0.016 0.002-0.019-0.056-0.096-0.299-0.09-0.493 0.009-0.219 0.52-2.017-1.435-2.568 0.034 0.113 0.074 0.777 0.062 1.111-0.012 0.335 0.156 1.156 1.149 1.539 0.06 0.031 0.135 0.237 0.142 0.438-0.887 0.129-1.37-0.415-1.717-0.623-2.437-1.858-5.036-0.864-6.2534-0.27-0.0063-0.085-0.0134-0.24 0.0215-0.332 0.0494-0.132 0.7269-0.675 0.7269-1.302s-0.2304-1.435-0.4945-1.782c-0.0494 0.115-0.3257 0.443-0.416 0.569-0.1645 0.231-1.1019 1.131-0.0137 2.482 0.0136 0.083 0.0249 0.29-0.0195 0.463-0.0911 0.047-0.1701 0.09-0.2383 0.125-0.1099-0.066-0.4407-0.283-0.4824-0.537-0.0929-0.561-0.7807-2.818-3.5449-2.117 0.121 0.113 0.6336 0.893 0.8535 1.308 0.2198 0.415 0.9979 1.295 2.4746 1.067 0.092-0.007 0.3432 0.153 0.5 0.377-0.0248 0.011-0.0494 0.022-0.0606 0.023-0.5257 0.031-0.8968-0.148-1.9355 0.377-0.9919 0.502-1.403 1.923-1.4277 2.467 0.3169-0.113 0.8591-0.177 1.5058-0.362-0.4056 2.488 1.627 2.891 1.627 2.891s0.4175 0.741 0.6289 1.065c0.0375 0.058-0.3209-0.044-0.6055-0.123-1.3847-1.832-3.2576-0.527-3.6777-0.231 0.3962 0 0.9654 0.914 1.6582 1.088 0.6927 0.173 1.7209-0.203 1.9297-0.445 0.1482-0.173 1.0139 0.206 1.2363 0.281 1.0743 0.565 2.1883 0.685 3.0763 0.658-0.289 0.287-0.505 0.531-0.594 0.633-0.204-0.197-0.479-0.318-0.783-0.318-0.625 0-1.131 0.506-1.131 1.13 0 0.625 0.506 1.131 1.131 1.131s1.131-0.506 1.131-1.131c0-0.179-0.05-0.341-0.123-0.492 0.458-0.574 0.946-0.884 1.263-1.037 0.408-0.06 0.709-0.131 0.815-0.154 0.346-0.074-0.677 2.032-1.225 2.539-2.473 0.346-1.929 2.719-1.904 3.189 0.273-0.495 1.483-0.643 1.978-1.287 0.496-0.642 0.345-1.384 0.321-1.705 0.989-1.21 1.3-2.703 1.498-3.172 0.025 0.173 0.07 0.317 0.107 0.475-0.066 0.257-0.2 0.805-0.25 1.172-0.231 0.247-1.095 1.509 0.356 3.058-0.033-0.116 0.155-0.535 0.299-0.828 0.093-0.189 0.691-1.085-0.315-2.189 0 0-0.086-0.034 0.063-0.641 0.678 1.926 2.232 2.545 2.572 2.693 0.519 1.93 2.918 1.31 3.412 1.137-0.519-0.42-0.321-0.691-1.236-1.211-0.915-0.519-1.658-0.22-1.979-0.22-3.654-2.083-2.239-5.59-1.633-6.754 0.247 1.113 0.781 1.933 1.418 2.545-0.024 0.162-0.102 0.292-0.158 0.371-0.134-0.058-0.281-0.088-0.435-0.088-0.615 0-1.112 0.497-1.112 1.111 0 0.615 0.497 1.113 1.112 1.113s1.113-0.498 1.113-1.113c0-0.328-0.149-0.615-0.375-0.818l0.162-0.301c0.166 0.137 0.336 0.262 0.51 0.375 0.149 0.268 0.331 0.6 0.404 0.754-0.067 0.248-0.299 2.688 2.752 3.166-0.067-0.165-0.231-0.858-0.231-0.99s-0.099-2.125-2.175-2.274c-0.067-0.049-0.192-0.218-0.305-0.392 1.125 0.608 2.221 0.787 2.514 0.845 0.779 0.952 1.668 1.059 2.4 0.905 0.091 1.994 0.107 4.25 0.053 5.713-0.069 1.832-0.004 5.173-2.283 6.166-7.006 0.743-16.646 2.84-19.202 3.394l0.0004 0.211h47.288v-0.211c-2.575-0.558-12.336-2.682-19.354-3.41-0.04-0.016-0.077-0.031-0.096-0.047-0.503-0.391-1.238-1.607-1.468-2.66-0.009-0.182-0.314-1.494-0.338-1.914-0.025-0.42-0.207-2.355-0.297-3.236-0.091-0.882-0.366-3.821-0.42-4.358-0.206-2.03 0.814-3.915 2.482-5.574 0.749 0.068 1.467-0.229 2.623 1.445 0.115 0.166 0.2 0.335 0.272 0.508-0.635-0.145-1.101-0.114-1.188-0.123-1.116-1.553-2.723 0.009-2.818 0.086 0.181-0.067 0.986 0.432 1.541 0.625 0.554 0.192 1.232-0.391 1.312-0.434 0.488-0.02 0.869 0.041 1.157 0.123-0.165 0.122-0.874 0.51-1.063 0.526-0.197 0.017-1.647-0.38-2.537 1.845 0.115 0.051 2.538 0.182 2.637-1.548 0.111-0.111 0.826-0.607 1.117-0.584 0.279 1.477-0.709 3.069-1.777 3.939-2.127 0-2.25 2.175-2.299 2.522 2.67-0.619 2.435-1.026 2.67-2.325 0.416-0.489 0.783-0.9 1.094-1.297 0.106 0.121 0.183 0.285 0.179 0.356-0.277 0.311-0.419 1.139-0.301 1.74 0.127 0.639 1.041 1.685 1.202 1.783 0.058-0.899 0.435-1.121 0.363-2.14-0.044-0.604-0.769-1.276-0.996-1.414-0.082-0.255-0.202-0.417-0.297-0.516 0.02-0.027 0.036-0.055 0.057-0.082 0.055 0.02 0.101 0.036 0.123 0.037 0.127 0.365 0.466 0.856 0.951 1.049 0.233 0.093 0.607 0.135 0.947 0.148-0.038 0.188-0.072 0.349-0.113 0.448 0.451-0.074 1.28-0.199 1.59-0.371 0.865-0.482 0.765-1.508 0.765-1.731 0.231-0.249 0.994-0.841 1.557-1.435 0.272 0.979 0.97 1.529 1.65 1.834-0.477 0.912-1.093 1.51-1.273 1.761-0.972 0.231-1.365 0.556-1.668 0.934-0.455 0.784-0.452 1.73-0.328 2.224 1.955-0.403 2.406-1.696 2.3-2.728-0.026-0.258 0.441-0.755 0.555-0.91 0.243-0.284 0.496-0.591 0.729-0.936 0.002 0.004 0.064 0.074 0.033 0.264-0.032 0.192-0.691 1.734 0.984 2.443-0.018-0.104 0.023-0.698 0.071-0.994s-0.008-1.044-0.848-1.496c-0.046-0.031-0.112-0.223-0.115-0.398 0.352 0.113 0.665 0.167 0.871 0.193-0.005 0.042-0.026 0.078-0.026 0.121 0 0.584 0.473 1.057 1.055 1.057 0.584 0 1.057-0.473 1.057-1.057 0-0.582-0.473-1.055-1.057-1.055-0.44 0-0.815 0.27-0.973 0.655-0.138-0.032-0.301-0.069-0.402-0.094-0.125-0.048-0.236-0.097-0.348-0.147 0.369-0.701 0.623-1.576 0.567-2.794-0.045-0.972-0.526-1.995-1.184-2.961 0.692 0.213 2.21 0.712 2.473 0.853 0.019 0.114 0.04 0.306-0.01 0.399-0.075 0.137-1.283 1.115 0.287 2.716 0.027-0.116 0.406-0.836 0.5-1.443 0.021-0.147 0.055-0.616-0.543-1.23 0 0-0.047-0.198-0.068-0.35 1.051 0.621 1.322 1.118 1.475 1.631-1.847 1.213-0.974 2.721-0.924 3.015 0.317-0.433 0.926-0.705 1.279-1.172 0.413-0.547 0.019-1.585-0.09-1.798-0.071-0.891-0.877-1.583-1.621-2.037 0.172-0.007 0.336 0.009 0.459 0.013 1.382 1.303 2.408-0.119 2.408-0.119-1.363-1.14-2.16-0.326-2.433-0.135-0.237 0.163-0.723 0.041-0.854 0.004-0.173-0.091-0.64-0.294-1.17-0.519 0.05-0.056 0.158-0.154 0.356-0.184 0.278-0.039 2.678 0.19 2.92-2.418-0.135 0.071-0.968 0.277-1.395 0.34s-1.428 0.466-1.682 1.814c-0.022 0.076-0.246 0.245-0.48 0.329-0.632-0.267-1.288-0.537-1.611-0.67-1.22-1.479-2.689-2.702-3.385-3.198 0.049-0.197 0.256-0.275 0.308-0.326 0.396 0.049 1.288 0.198 2.014 0.033 0.504-0.115 1.128-0.772 1.494-1.232 0.146 0.291 0.21 0.475 0.231 0.588-0.258 0.206-0.432 0.512-0.432 0.867 0 0.624 0.505 1.129 1.129 1.129s1.129-0.505 1.129-1.129-0.505-1.131-1.129-1.131c-0.079 0-0.148 0.032-0.223 0.047-0.126-0.098-0.35-0.291-0.453-0.508-0.016-0.034-0.038-0.074-0.062-0.117 0.055-0.08 0.099-0.148 0.113-0.18-0.056 0.02-0.123 0.032-0.189 0.043-0.176-0.303-0.424-0.688-0.528-0.847 0.822 0.116 1.842 0.303 3.059 0.621 0.053 0.03 0.147 0.066 0.258 0.103 0.029 0.102 0.029 0.205 0.035 0.239-0.428 0.977-0.188 1.238-0.115 1.382 0.502 0.61 0.718 1.07 0.834 1.289-0.031-0.108 0.355-1.388 0.22-1.814-0.134-0.426-0.655-0.721-0.765-0.955-0.013-0.027-0.017-0.055-0.026-0.082 0.358 0.112 0.806 0.241 0.959 0.348 0.529 0.366 0.735 0.974 1.365 1.183 0.836 0.279 1.445-0.049 2.323-0.074-0.12-0.417-0.938-1.532-1.594-1.674-0.929-0.2-1.672 0.077-2.002 0.109-0.113 0-0.633-0.286-1.555-0.562-0.036-0.062-0.055-0.135 0.006-0.215 0.089-0.112 0.581-0.591 1.02-0.978 0.099-0.037 0.342-0.11 0.562-0.059 0.284 0.065 0.591 0.763 1.256 0.873 0.666 0.109 1.387-0.175 1.594-0.371-0.459-0.186-0.502-0.676-1.299-0.916-0.36-0.033-0.775-0.023-1.484 0.228-0.046-0.017-0.208 0-0.258-0.072 0.154-0.123 0.275-0.206 0.324-0.211 0.196-0.022 1.456-0.315 1.713-0.611 0.425-0.49 0.283-1.321 0.6-1.648 0 0-1.276 0.13-1.856 0.49-0.098-0.4-0.254-0.903-0.619-1.321-0.675-0.774-1.107-0.897-2.092-0.894-0.391-0.104-1.497-1.065-1.166-1.619 0.297-0.236 0.588-0.446 0.869-0.629 0.604-0.069 1.03 0.164 1.164 0.217 0.334 0.704 0.558 0.873 1.25 0.988 0.693 0.115 1.798-0.249 1.963-0.266-0.594-0.841-1.394-1.148-1.846-1.17-0.841-0.017-1.287 0.233-1.287 0.233s-0.46-0.167-0.724-0.266c-0.024-0.009-0.031-0.017-0.049-0.025 0.502-0.293 0.953-0.506 1.305-0.651 0.197 0.272 0.504 0.461 0.865 0.461 0.601 0 1.088-0.486 1.088-1.088 0-0.6-0.487-1.089-1.088-1.089-0.347 0-0.643 0.172-0.842 0.425 0.112-0.409 0.07-0.919-0.43-1.474-0.025 0.093-0.287 0.569-0.441 0.795-0.155 0.225-0.399 0.865 0.119 1.564 0.028 0.046 0.012 0.219-0.06 0.361-2.141 0.929-3.606 2.598-3.889 2.854-0.187 0.168-0.283 0.181-0.336 0.16-0.015-0.244-0.033-0.487-0.066-0.728-0.052-0.374-0.154-0.777-0.288-1.196 0.015-0.132 0.045-0.291 0.118-0.359 0.119-0.113 0.511-0.358 0.658-0.352 0.94 0.035 2.33 0.322 2.961-1.789-0.19 0-2.594-0.497-3.121 1.51-0.044 0.061-0.45 0.39-0.864 0.303-0.295-0.758-0.681-1.548-1.097-2.324 0.197-0.273 0.467-0.575 0.765-0.873 0.103-0.042 0.208-0.081 0.309-0.1 0.289-0.057 0.744 0.057 0.744 0.057s0.64 0.581 1.608 0.511c0.967-0.07 1.375-0.792 1.656-0.89-0.098-0.015-0.939-0.56-2.102-0.434-0.21 0.014-0.812 0.071-1.148 0.533-0.088 0-0.5 0.015-0.709-0.025 0.49-0.46 0.956-0.847 1.101-0.957 0.659-0.07 1.257-0.191 1.737-0.574 0.567-0.454 0.645-1.807 0.617-2.116-0.242 0.055-1.161 0.092-1.994 0.819-0.499 0.435-0.473 1.381-0.53 1.592-0.025 0.097-0.569 0.537-1.171 0.998-0.094-0.198-0.061-0.553-0.061-0.733 0.589-0.672 0.658-1.26 0.645-1.527-0.098-0.588-0.59-1.795-0.618-1.977-1.555 2.074-0.405 3.309-0.265 3.477-0.028 0.413-0.012 0.784 0.002 0.986-0.329 0.248-0.651 0.485-0.899 0.664-0.025-0.046-0.05-0.092-0.076-0.138-0.94-1.665-1.343-2.631-1.129-3.842 0.057-0.32 0.397-1.278-0.056-1.871-0.455-0.594-1.264-1.328-1.28-1.377 0.016 0.272 0.076 0.758-0.064 1.377-0.141 0.618-0.273 1.188 0.799 2.259-0.314-0.222-0.768-0.725-0.957-1.046-0.19-0.322-0.453-0.653-0.981-0.76-0.528-0.108-0.751-0.149-1.328-0.149 0.181 0.214 0.635 0.825 0.727 1.039 0.09 0.215 0.361 0.882 1.293 0.817 0.255 0 0.667 0 0.783 0.066 0.115 0.066 0.415 0.357 0.453 0.602 0.093 0.587 0.284 1.217 0.521 1.846-0.058-0.025-0.139-0.078-0.232-0.186-0.184-0.215-1.273-2.364-3.606-1.174 0.132 0.076 0.75 0.671 1.032 0.998s1.159 0.956 2.433 0.449c0.069-0.02 0.299 0.058 0.487 0.188 0.231 0.583 0.491 1.158 0.752 1.697-0.127 0.015-0.237 0.011-0.274-0.013-1.069-0.86-2.093-0.517-2.459-0.288-0.227 0.144-0.612 0.349-0.904 0.491-0.246-0.478-0.703-0.926-1.531-1.215 0.035 0.147 0.035 1.006-0.006 1.435-0.042 0.43 0.11 1.499 1.357 2.069 0.058 0.033 0.1 0.141 0.121 0.283-1.142-0.603-2.022-1.13-2.636-1.535-0.02-0.091-0.073-0.356-0.059-0.52 0.016-0.197 1.535-1.697-0.361-3.512-0.017 0.133-0.266 0.775-0.381 0.891-0.116 0.115-0.693 1.632 0.478 2.555 0.037 0.085 0.081 0.278 0.09 0.433-0.503-0.343-0.781-0.578-0.83-0.664-0.132-0.231-0.199-0.857-0.199-0.857-0.067-1.023-1.056-1.45-1.418-1.582-0.363-0.131-1.055-0.363-1.285-0.561 0.231 3.001 1.516 2.901 1.978 3.034 0.462 0.132 0.627 0.263 0.627 0.263 0.736 0.705 1.908 1.432 2.998 2.047-0.06 0.009-0.139 0.011-0.25-0.014-0.233-0.051-1.818-0.813-2.996 0.381-0.149-0.651-0.364-1.182-0.594-1.564-0.669-1.117-2.915-2.746-4.07-4.395 0.003-0.068 0.02-0.193 0.113-0.263 0.132-0.099 0.941-0.627 1.073-0.694 0.132-0.066 0.494-0.147 1.154 0.1 0.083 0.181 0.674 0.71 1.334 0.775 0.66 0.067 1.699-0.215 2.062-0.676-0.329-0.149-0.675-0.593-1.83-0.808-0.181-0.016-0.875-0.082-1.468 0.396-0.165-0.049-0.791-0.099-0.625-0.23 0.144-0.115 0.76-0.444 1.146-0.537 0.186 0.164 0.425 0.271 0.691 0.271 0.583 0 1.055-0.472 1.055-1.054 0-0.583-0.472-1.055-1.055-1.055-0.582 0-1.054 0.472-1.054 1.055 0 0.09 0.028 0.172 0.051 0.255-0.182 0.206-0.584 0.626-1.067 0.914-0.082 0.034-0.214-0.13-0.182-0.328 0.034-0.198 0.133-0.248 0.133-0.248s0.857-0.457 0.961-0.843c0.096-0.357 0.104-0.729 0.104-0.729-0.231 0.455-0.672 0.649-1.612 0.748-0.015 0.172 0.02 0.445 0.168 0.873 0 0.182 0.05 0.744-0.23 0.942-0.268 0.189-0.85 0.641-1.262 0.595-0.238-0.446-0.38-0.89-0.363-1.322 0.027-0.65 0.404-1.169 0.865-1.359 0.165 0.041 1.748 0.023 2.16-0.545 0.413-0.569 0.652-1.492 0.991-1.633-0.231-0.021-0.654-0.086-1.122-0.055zm-5.851 4.477c1.035 0.735 2.385 1.095 2.687 1.209 0.223 0.084 0.345 0.172 0.42 0.242 0.951 1.713 2.594 3.017 2.893 3.352 0.919 1.025 1.255 2.16 1.285 3.25-0.065-0.021-0.132-0.048-0.191-0.1-0.182-0.156-0.643-0.721-0.643-0.721s-0.019-2.636-3.32-2.605c0.025 0.167 0.577 2.266 1.912 2.66 0.322 0.106 1.011 0.067 1.264 0.283 0.232 0.199 0.756 0.579 0.966 1.018-0.061 1.024-0.358 1.985-0.658 2.746-0.22-0.201-0.454-0.398-0.713-0.594-1.315-0.879-2.592-1.732-3.771-2.541-0.032-0.129-0.076-0.322-0.055-0.477 0.033-0.231 0.676-0.925 0.627-1.502-0.048-0.576-0.263-1.055-0.561-1.417-0.296-0.363-0.46-0.477-0.46-0.692-0.166 0.331-1.649 2.309 0.033 3.578 0.052 0.066 0.102 0.115 0.113 0.303-1.138-0.784-2.172-1.521-3.049-2.193-0.042-0.108-0.08-0.269-0.033-0.475 0.062-0.274 0.227-0.831 0.15-1.908 0.016-0.265-0.031-0.509 0.194-0.535 0.229-0.028 0.631 0.109 0.765 0.158-0.001 0.042-0.021 0.079-0.017 0.123 0.037 0.524 0.509 0.918 1.051 0.879 0.541-0.038 0.949-0.496 0.912-1.02-0.038-0.525-0.508-0.919-1.049-0.881-0.413 0.03-0.745 0.302-0.865 0.663-0.122-0.019-0.341-0.053-0.543-0.086 0.057-0.114 0.15-0.208 0.193-0.213 0.72-0.015 1.016-0.498 1.086-0.713 0.07-0.216 0.249-0.63 0.297-0.694-1.371-0.101-1.471 0.939-1.508 1.303-0.013 0.115-0.19 0.231-0.279 0.279-0.03-0.005-0.06-0.01-0.084-0.015-0.134-0.027-0.218-0.114-0.27-0.195-0.014-0.089-0.024-0.168-0.041-0.262-0.022-0.399-0.033-1.115 0.236-1.477 0.12-0.054 0.665-0.332 1.026-0.73zm-7.693 3.459c0.167 0.16 0.326 0.33 0.421 0.488 0.248 0.412 0.527 1.254 2.588 0.709 0.224-0.03 0.78 0.104 1.227 0.275 0.196 0.207 0.413 0.421 0.642 0.637-0.001 0.015 0 0.026-0.003 0.043-0.077 0.38-0.848 0.772-0.848 0.772s-2.138-0.442-2.584 2.064c0.198-0.066 1.165-0.091 1.937-0.387 0.633-0.243 0.817-1.145 0.817-1.425 0.122-0.149 0.868-0.456 1.244-0.549 1.171 1.043 2.621 2.156 4.098 3.185-0.09 0.212-0.25 0.488-0.545 0.824-0.317 0.361-0.917 0.614-1.526 0.893 0.138-0.27 0.048-0.533 0.004-0.631 0.414-0.11 0.727-0.471 0.727-0.92 0-0.535-0.434-0.97-0.969-0.97-0.536 0-0.969 0.435-0.969 0.97s0.433 0.969 0.969 0.969c0.004 0 0.007-0.001 0.012-0.002 0.106 0.34-0.105 0.659-0.223 0.801-0.335 0.169-0.652 0.357-0.9 0.59-0.698 0.652-1.128 1.37-1.432 2.148-0.137-0.221-0.252-0.46-0.232-0.516 0.573-1.246-0.011-2.153-0.323-2.453l0.002-0.002c-0.311-0.298-0.872-0.947-0.941-1.082-1.131 2.358 0.238 3.466 0.978 3.663 0.164 0.044 0.304 0.425 0.391 0.724-0.081 0.238-0.154 0.48-0.219 0.729-0.021 0.055-0.031 0.137-0.047 0.213-0.747-0.743-1.453-1.481-1.83-1.969-0.224-0.292-0.598-0.814-1.041-1.508-0.003-0.006-0.162-0.283-0.047-0.772 0.115-0.495 0.494-1.848 1.319-2.111 0.115 0.066 0.527 0.792 1.385 0.776 0.857-0.017 1.401-0.33 1.548-0.512-0.065-0.049-1.301-1.681-2.966-0.51-0.162 0.049-1.181 0.394-1.633 2.492-0.376-0.623-0.782-1.341-1.182-2.136-0.042-0.259 0.022-0.532 0.088-0.59 1.163-0.836 1.102-1.964 0.973-2.395-0.13-0.432-0.303-1.309-0.295-1.469-2.361 1.382-1.085 3.55-1 3.832 0.022 0.071 0.036 0.153 0.045 0.233-0.562-1.161-1.096-2.46-1.496-3.826l-0.024-0.077c0.088-0.124 0.206-0.213 0.258-0.216 1.018 0.023 1.466-0.643 1.578-0.944 0.006-0.017 0.016-0.04 0.024-0.058zm24.046 0.537c0.512 1.05 0.985 1.943 1.106 2.406 0.031 0.124 0.064 0.253 0.096 0.385-0.015-0.016-0.024-0.029-0.024-0.029s-0.137 0.028-0.351-0.155c-0.215-0.182-1.631-2.135-3.747-0.592 0.143 0.055 0.847 0.545 1.176 0.823 0.33 0.278 1.296 0.763 2.475 0.062 0.065-0.031 0.311 0.012 0.519 0.114 0.184 0.847 0.289 1.906-0.005 3.382-0.521-0.723-2.25-2.447-3.42-3-0.461-0.22-0.886-0.434-1.287-0.642-0.044-0.072-0.172-0.307-0.149-0.543 0.015-0.147 0.236-0.835 0.096-1.584v-0.002c1.629 1.011 2.992-0.381 3.205-0.516 0.147-0.093 0.25-0.109 0.31-0.109zm-25.746 0.039c-0.035 0.127-0.058 0.233-0.072 0.271-0.029 0.079-0.08 0.159-0.129 0.231l-0.092-0.315c0.108-0.046 0.205-0.113 0.293-0.187zm32.928 0.697c-0.012 0.067-0.039 0.128-0.039 0.197 0 0.121 0.032 0.232 0.068 0.34-0.172 0.059-0.339 0.122-0.504 0.19 0.028-0.084 0.068-0.189 0.122-0.268 0.036-0.052 0.203-0.215 0.353-0.459zm-11.693 1.988c1.046 0.582 1.976 1.046 2.304 1.264 0.699 0.511 1.217 1.014 1.614 1.49-0.321 0.184-0.628 0.325-0.918 0.422-0.043 0.019-0.138 0.042-0.18 0.059-1.172 0.342-2.025 0.071-2.199-0.041 0.327-1.876-0.889-2.429-1.389-2.651 0.106-0.117 0.205-0.248 0.299-0.402 0.041-0.055 0.252-0.125 0.469-0.141zm-0.912 0.682c0.069 0.509 0.096 1.153 0.181 1.654 0.116 0.676 0.906 0.957 1.137 1.024 0.698 0.557 1.755 0.443 2.596 0.211-0.114 0.13-0.315 0.244-0.403 0.332-1.896 0.116-1.484 1.83-1.484 1.83 1.765-0.214 1.716-1.351 1.766-1.682 0.042-0.283 0.463-0.555 0.58-0.625 0.341-0.119 0.6-0.234 0.744-0.302 0.825 1.142 0.92 2.074 0.914 2.462-0.86 1.787-2.364 3.483-3.748 4.788-0.066-0.035-0.093-0.087-0.164-0.098-0.143-0.356-0.3-0.689-0.463-1.01 0.076-0.187 0.187-0.348 0.246-0.371 1.325-0.357 1.65-1.387 1.68-1.816 0.029-0.432 0.17-1.276 0.23-1.416-2.581 0.442-2.167 2.815-2.185 3.097-0.01 0.149-0.048 0.239-0.081 0.293-0.716-1.355-1.528-2.348-1.875-2.734-0.446-1.784-1.581-2.022-2.351-2 0.164-0.713 0.246-1.318 0.267-1.703 0.03-0.533 0.009-1.027-0.041-1.485 0.248 0.033 0.505 0.074 0.684 0.114 0.341 0.074 1.11 0.059 1.77-0.563zm9.451 0.324c0.105-0.014 0.21 0.01 0.293 0.131 0.356 0.528 1.336 1.168 1.336 1.168 0.018 0.194 0.101 1.033 0.757 1.709-0.511 0.119-1.194 0.341-1.796 0.779-1.089 0.792-0.907 1.534-0.94 1.715-0.131 0.146-0.312 0.507-0.656 0.616-0.851-0.127-1.544-0.281-1.662-0.551 0.541-1.081 0.843-2.171 0.955-3.246 0.171-0.388 0.414-0.929 0.531-1.032 0.38-0.49 0.78-0.912 1.182-1.289zm-18.233 1.756c0.837 0.575 1.675 1.12 2.467 1.604 0.544 0.331 1.027 0.85 1.461 1.467-0.865 1.978-1.194 3.302-1.484 5.111-0.032 0.2-0.063 0.37-0.092 0.541-0.036-0.042-0.091-0.135-0.108-0.326-0.023-0.282 0.35-2.661-2.238-3.061 0.062 0.139 0.217 0.983 0.254 1.412 0.037 0.431 0.379 1.454 1.709 1.789 0.082 0.029 0.264 0.311 0.316 0.575-0.226 1.27-0.349 1.601-0.472 1.826-0.148 0.271-0.36 0.299-0.916-0.035-0.557-0.335-3.326-2.227-4.414-3.229-0.255-0.234-0.565-0.523-0.895-0.838-0.11-0.165-0.234-0.463-0.152-0.93 0.038-0.222 0.143-0.914 0.412-1.673 0.125-0.045 0.259-0.067 0.387-0.026 0.127 0.04 0.392 0.109 0.724 0.162 0.208 0.1 0.497 0.338 0.504 0.401 0.027 1.023 0.677 1.506 1.197 1.679 0.371 0.125 0.724 0.207 0.815 0.274 0.132-1.951-1.664-2.068-1.865-2.131-0.081-0.026-0.169-0.097-0.246-0.172 0.795 0.068 1.838-0.015 2.697-0.674 0.115 0.033 1.137 0.199 1.648-0.279 0.511-0.479 0.578-1.022 1.006-1.154-0.428-0.132-2.276-0.594-2.771 1.136-0.1 0.1-0.699 0.64-2.106 0.586 0.046-0.1 0.112-0.179 0.149-0.191 0.82-0.185 1.047-0.809 1.076-1.072s0.137-0.777 0.178-0.862c-1.593 0.205-1.402 1.67-1.42 1.842-0.01 0.092-0.048 0.195-0.08 0.274-0.431-0.025-0.924-0.094-1.508-0.256-0.071-0.042-0.119-0.078-0.153-0.11 0.154-0.328 0.343-0.65 0.577-0.935 0.636-0.782 1.872-1.053 2.58-1.625 0.399-0.324 0.626-0.723 0.763-1.1zm21.121 1.651c0.319 0.195 0.721 0.347 1.225 0.429-0.184 0.393-0.264 0.782-0.264 0.926-0.087 0.196-0.523 0.534-0.818 0.785-0.295 0.252-0.611 0.459-1.135 0.94-0.033 0.012-0.097 0.038-0.166 0.064-0.11-0.025-0.214-0.052-0.332-0.076-0.532-0.108-1.177-0.188-1.795-0.272-0.03-0.097-0.047-0.217 0.014-0.304 0.116-0.165 0.197-0.266 0.197-0.266s1.27-0.18 1.815-0.576c0.421-0.306 0.918-1.005 1.259-1.65zm-15.326 1.019c0.788 1.265 2.194 1.143 2.336 1.184 0.854 0.866 1.382 1.755 1.715 2.492-0.14-0.015-0.212-0.087-0.248-0.139-0.561-1.031-1.484-1.096-1.848-1.035-0.266 0.045-0.73 0.084-1.009 0.094-0.323-0.803-0.671-1.491-1.112-2.113 0.06-0.162 0.115-0.324 0.166-0.483zm9.715 2.016c0.22-0.008 0.74 0.004 1.504 0.088 0.315 0.095 0.493 0.405 0.687 0.703 0.057 0.092 0.098 0.166 0.143 0.246-0.626-0.001-1.454-0.198-1.973-0.098-0.675 0.132-1.303 1.089-1.418 1.369-0.274 0.138-0.42 0.31-0.502 0.442-0.025-0.016-0.058-0.039-0.076-0.047-0.261-0.124-0.461-0.245-0.607-0.34 0.423-0.508 0.775-0.942 1.004-1.227 0.172-0.214 0.321-0.431 0.472-0.648 0.214-0.228 0.506-0.479 0.766-0.488zm-23.953 0.201c0.006 0.169 0.028 0.624 0.051 0.953-0.222 0.038-0.425 0.125-0.578 0.275 0.125-0.59 0.078-0.74 0.078-0.74s0.186-0.242 0.449-0.488zm13.566 0.391c0.83 1.942 1.294 4.009 1.405 4.783 0.103 0.726-0.299 0.917-0.27 0.92-0.25 0.078-0.496 0.14-0.767 0.214-0.133 0.024-0.579-0.034-0.604-1.019-0.027-1.084 0.015-3.208 0.236-4.898zm1.918 0.787c0.955 1.001 2.3 0.433 2.498 0.4 0.122-0.02 0.26-0.002 0.366 0.023 0.267 0.625 0.395 1.127 0.451 1.372 0.035 0.151 0.007 0.3-0.047 0.437-0.593 0.521-1.134 0.952-1.545 1.262-0.575 0.106-0.562 0.035-0.68-0.188-0.391-1.294-0.713-2.373-1.043-3.306zm5.414 1.947c0.691 0.213 1.346 0.523 1.954 0.896 0.207 0.167 0.297 0.536 0.294 0.686-0.174 0.358-0.613 0.571-0.705 1.859-0.053 0.742 0.832 2.098 0.993 2.241-0.01-0.633 0.707-1.152 0.834-2.331 0.074-0.684-0.607-1.584-0.834-1.785-0.018-0.131-0.042-0.24-0.067-0.334 0.761 0.535 1.437 1.161 2.008 1.817 0.227 0.37 0.45 1.051 0.281 2.211-0.258 0.383-1.368 1.716-3.676 0.523-0.104-0.062-0.276-0.169-0.404-0.248 0-0.001-0.004-0.005-0.004-0.008-0.061-1.129-0.837-1.569-1.179-1.666-0.342-0.098-1.001-0.358-1.104-0.429-0.081 2.037 1.683 2.217 2.07 2.285 0.401 0.333 2.326 1.768 4.129 0.355-0.023 0.088-0.042 0.17-0.068 0.262-0.191 0.66-0.574 1.232-0.961 1.683-0.185-0.012-0.428-0.04-0.541-0.107-0.195-0.115-1.584-1.464-3.045 0.049 0.12 0.024 0.747 0.314 1.045 0.488 0.299 0.175 1.129 0.426 1.965-0.291 0.048-0.035 0.252-0.034 0.433 0.02-0.498 0.543-0.959 0.873-0.959 0.873s-1.23 0.079-1.601 0.648c-0.114 0.175-0.196 0.375-0.26 0.574-0.188-0.253-0.375-0.511-0.564-0.648-0.394-0.284-1.188-0.143-1.387-0.068-0.043-0.016-0.076-0.022-0.115-0.032 0.425-0.641 0.667-1.3 0.619-2.244-0.094-1.868-2.057-3.176-2.67-3.541 0.013-0.01 0.024-0.022 0.037-0.033 0.453-0.372 1.077-1.009 1.746-1.736 0.101 0.038 0.202 0.084 0.258 0.142 0.14 0.146 1.008 1.64 2.631 0.692-0.098-0.05-0.565-0.449-0.78-0.672-0.214-0.223-0.869-0.639-1.761-0.223-0.036 0.013-0.135-0.01-0.241-0.057 0.543-0.593 1.107-1.239 1.629-1.851zm-22.373 0.9c1.343 0.073 2.051 0.844 2.707 1.498 0.555 0.552 0.874 1.434 0.998 1.983-0.006 0.011-0.011 0.022-0.017 0.031-0.205 0.055-0.808 0.231-1.432 0.545-0.183-0.14-0.277-0.33-0.267-0.412 0.271-1.297-0.475-2.027-0.832-2.24-0.358-0.214-1.025-0.705-1.12-0.817-0.746 2.417 1.479 3.097 1.713 3.237 0.166 0.098 0.255 0.259 0.295 0.347-0.038 0.021-0.077 0.04-0.115 0.063-0.17 0.1-0.523 0.322-0.523 0.322s-1.842-0.912-2.922 1.352c-0.115 0.323-0.09 0.354 0.394 0.32 0.484-0.035 2.259 0.504 2.645-1.381 0.135-0.09 0.698-0.688 1.994-1.029-0.494 0.931-0.799 1.853-1.045 3.086-0.321 1.607-4.505 1.169-5.3203 0.55-0.6186-0.668-0.8414-1.051-1.0391-1.422 0.4201-1.483-0.2724-2.189-0.6933-2.46-0.202-0.132-0.4591-0.312-0.6739-0.465 0.075-0.029 0.146-0.046 0.2227-0.078 0.7831-0.332 1.144-1.88 1.2676-1.979 0.1218-0.061 0.2328-0.11 0.3496-0.166l0.1719 0.32s-1.1625 1.906 1.3358 2.928c0-0.124 0.103-0.85 0.098-1.461-0.004-0.336-0.478-1.457-1.303-1.508l-0.1152-0.367c1.3872-0.633 2.4212-0.841 3.2262-0.797zm6.412 1.95c0.799-0.023 1.381 0.253 1.381 0.253s-0.006-0.01-0.008-0.013c0.711 0.675 1.418 1.295 2.127 1.851 0.471 0.471 1.63 1.447 1.584 3.674-0.002 0.133-0.003 0.281-0.005 0.422h-0.002c-1.189-0.474-2.004 0.085-2.293 0.258-1.064-0.074-2.278-0.288-3.735-2.102-0.194-0.242-0.347-0.48-0.474-0.713 0.005-0.003 0.002-0.016 0.009-0.019 0.178-0.07 0.376-0.185 0.506-0.158 0.131 0.027 0.361 0.123 0.533 0.349 0.037 0.171 0.199 1.745 2.256 1.563-0.059-0.083-0.239-0.28-0.283-0.422-0.045-0.142-0.453-1.462-1.765-1.276-0.064-0.041-0.521-0.301-0.397-0.369 0.123-0.068 0.224-0.047 0.309-0.039 0.084 0.009 1.723 1.146 3.189-0.687-0.058-0.016-0.358-0.084-0.51-0.147-0.151-0.064-1.588-0.775-2.718 0.526-0.088 0.058-0.796 0.271-1.288 0.34-0.574-1.311-0.245-2.4-0.009-2.803 0.556-0.353 1.114-0.475 1.593-0.488zm21.342 1.388c0.608 0.922 0.985 1.815 1.065 2.487 0.119 1.013-0.078 1.874-0.383 2.58-1.801-0.985-1.32-2.11-1.32-2.11h-0.002c0.005-0.009 0.013-0.018 0.017-0.025 0.301-0.563 0.75-1.499 0.623-2.932z" transform="matrix(.8 0 0 -.8 188.32 426.92)" fill="#fff"/></g></g></svg>
