<?xml version="1.0" encoding="UTF-8" standalone="no"?>
<!-- Generator: Adobe Illustrator 22.1.0, SVG Export Plug-In . SVG Version: 6.00 Build 0)  -->

<svg
   xmlns:dc="http://purl.org/dc/elements/1.1/"
   xmlns:cc="http://creativecommons.org/ns#"
   xmlns:rdf="http://www.w3.org/1999/02/22-rdf-syntax-ns#"
   xmlns:svg="http://www.w3.org/2000/svg"
   xmlns="http://www.w3.org/2000/svg"
   xmlns:sodipodi="http://sodipodi.sourceforge.net/DTD/sodipodi-0.dtd"
   xmlns:inkscape="http://www.inkscape.org/namespaces/inkscape"
   version="1.1"
   id="Layer_1"
   x="0px"
   y="0px"
   viewBox="0 0 448.70003 107"
   xml:space="preserve"
   sodipodi:docname="Logo_of_California_State_Polytechnic_University,_Pomona.svg"
   width="448.70001"
   height="107"
   inkscape:version="0.92.1 r15371"><metadata
     id="metadata303"><rdf:RDF><cc:Work
         rdf:about=""><dc:format>image/svg+xml</dc:format><dc:type
           rdf:resource="http://purl.org/dc/dcmitype/StillImage" /><dc:title></dc:title></cc:Work></rdf:RDF></metadata><defs
     id="defs301" /><sodipodi:namedview
     pagecolor="#ffffff"
     bordercolor="#666666"
     borderopacity="1"
     objecttolerance="10"
     gridtolerance="10"
     guidetolerance="10"
     inkscape:pageopacity="0"
     inkscape:pageshadow="2"
     inkscape:window-width="1920"
     inkscape:window-height="1005"
     id="namedview299"
     showgrid="false"
     fit-margin-top="0"
     fit-margin-left="0"
     fit-margin-right="0"
     fit-margin-bottom="0"
     inkscape:zoom="1.8538675"
     inkscape:cx="227.34321"
     inkscape:cy="60.074707"
     inkscape:window-x="1911"
     inkscape:window-y="-9"
     inkscape:window-maximized="1"
     inkscape:current-layer="Layer_1" /><style
     type="text/css"
     id="style2">
	.st0{fill:#FFFFFF;}
	.st1{fill:#5F7A99;}
	.st2{fill:#97A7BC;}
	.st3{fill:#00416B;}
	.st4{fill:url(#SVGID_1_);}
	.st5{fill:url(#SVGID_2_);}
	.st6{fill:url(#SVGID_3_);}
	.st7{fill:#FFD100;}
	.st8{fill:#FFB600;}
	.st9{fill:#385E82;}
	.st10{fill:#597595;}
	.st11{fill:url(#SVGID_4_);}
	.st12{fill:url(#SVGID_5_);}
	.st13{fill:url(#SVGID_6_);}
	.st14{fill:url(#SVGID_7_);}
	.st15{fill:url(#SVGID_8_);}
	.st16{fill:url(#SVGID_9_);}
	.st17{fill:url(#SVGID_10_);}
	.st18{fill:#517091;}
	.st19{fill:#456789;}
	.st20{fill:#798FA9;}
	.st21{fill:#78C366;}
	.st22{fill:#3B6084;}
	.st23{fill:#0E426A;}
	.st24{fill:#00833E;}
	.st25{fill:#6D85A2;}
	.st26{fill:#6ABF4B;}
	.st27{fill:#198844;}
	.st28{fill:none;}
</style><path
     class="st0"
     d="M 254.9,32.7"
     id="path4"
     inkscape:connector-curvature="0"
     style="fill:#ffffff" /><path
     class="st0"
     d="M 246.5,37.1"
     id="path6"
     inkscape:connector-curvature="0"
     style="fill:#ffffff" /><g
     id="g262"
     transform="translate(-65.7,-37.6)"><polygon
       class="st1"
       points="81.4,129 81.4,106.8 65.7,91.1 72.9,109.8 "
       id="polygon8"
       style="fill:#5f7a99" /><polygon
       class="st2"
       points="65.7,91.1 81.4,75.5 81.4,53.3 72.8,72.5 "
       id="polygon10"
       style="fill:#97a7bc" /><polygon
       class="st2"
       points="81.4,53.3 103.6,53.3 119.2,37.6 100,45 "
       id="polygon12"
       style="fill:#97a7bc" /><polygon
       class="st3"
       points="103.6,129 81.4,129 119.2,144.6 "
       id="polygon14"
       style="fill:#00416b" /><radialGradient
       id="SVGID_1_"
       cx="118.9874"
       cy="128.4072"
       r="3.4069952e-005"
       gradientUnits="userSpaceOnUse"><stop
         offset="0"
         style="stop-color:#FFFFFF"
         id="stop16" /><stop
         offset="9.040742e-02"
         style="stop-color:#F9F9F9"
         id="stop18" /><stop
         offset="0.2168"
         style="stop-color:#E6E6E6"
         id="stop20" /><stop
         offset="0.3643"
         style="stop-color:#C9C9C9"
         id="stop22" /><stop
         offset="0.528"
         style="stop-color:#9F9F9F"
         id="stop24" /><stop
         offset="0.7048"
         style="stop-color:#6A6A6A"
         id="stop26" /><stop
         offset="0.8898"
         style="stop-color:#2A2A2A"
         id="stop28" /><stop
         offset="1"
         style="stop-color:#000000"
         id="stop30" /></radialGradient><polygon
       class="st4"
       points=""
       id="polygon33"
       style="fill:url(#SVGID_1_)" /><radialGradient
       id="SVGID_2_"
       cx="119.0935"
       cy="53.699501"
       r="0"
       gradientUnits="userSpaceOnUse"><stop
         offset="0"
         style="stop-color:#FFFFFF"
         id="stop35" /><stop
         offset="9.040742e-02"
         style="stop-color:#F9F9F9"
         id="stop37" /><stop
         offset="0.2168"
         style="stop-color:#E6E6E6"
         id="stop39" /><stop
         offset="0.3643"
         style="stop-color:#C9C9C9"
         id="stop41" /><stop
         offset="0.528"
         style="stop-color:#9F9F9F"
         id="stop43" /><stop
         offset="0.7048"
         style="stop-color:#6A6A6A"
         id="stop45" /><stop
         offset="0.8898"
         style="stop-color:#2A2A2A"
         id="stop47" /><stop
         offset="1"
         style="stop-color:#000000"
         id="stop49" /></radialGradient><polygon
       class="st5"
       points=""
       id="polygon52"
       style="fill:url(#SVGID_2_)" /><radialGradient
       id="SVGID_3_"
       cx="81.683899"
       cy="91.125099"
       r="0.0002366214"
       gradientUnits="userSpaceOnUse"><stop
         offset="0"
         style="stop-color:#FFFFFF"
         id="stop54" /><stop
         offset="9.040742e-02"
         style="stop-color:#F9F9F9"
         id="stop56" /><stop
         offset="0.2168"
         style="stop-color:#E6E6E6"
         id="stop58" /><stop
         offset="0.3643"
         style="stop-color:#C9C9C9"
         id="stop60" /><stop
         offset="0.528"
         style="stop-color:#9F9F9F"
         id="stop62" /><stop
         offset="0.7048"
         style="stop-color:#6A6A6A"
         id="stop64" /><stop
         offset="0.8898"
         style="stop-color:#2A2A2A"
         id="stop66" /><stop
         offset="1"
         style="stop-color:#000000"
         id="stop68" /></radialGradient><polygon
       class="st6"
       points=""
       id="polygon71"
       style="fill:url(#SVGID_3_)" /><polygon
       class="st7"
       points="156.5,91.1 172.7,91.1 157.1,75.5 "
       id="polygon73"
       style="fill:#ffd100" /><polygon
       class="st8"
       points="172.7,91.1 156.5,91.1 157.1,106.8 "
       id="polygon75"
       style="fill:#ffb600" /><polygon
       class="st2"
       points="81.7,91.1 81.7,91.1 81.7,91.1 65.7,91.1 81.4,106.8 "
       id="polygon77"
       style="fill:#97a7bc" /><polygon
       class="st9"
       points="65.7,91.1 81.7,91.1 81.4,75.5 "
       id="polygon79"
       style="fill:#385e82" /><polygon
       class="st3"
       points="119,128.4 119,128.4 119,128.4 119.2,144.6 134.9,129 "
       id="polygon81"
       style="fill:#00416b" /><polygon
       class="st9"
       points="119.2,144.6 119,128.4 103.6,129 "
       id="polygon83"
       style="fill:#385e82" /><polygon
       class="st9"
       points="119.1,53.7 119.2,37.6 103.6,53.3 "
       id="polygon85"
       style="fill:#385e82" /><polygon
       class="st10"
       points="119.1,53.7 134.9,53.3 119.2,37.6 119.1,53.7 "
       id="polygon87"
       style="fill:#597595" /><radialGradient
       id="SVGID_4_"
       cx="5.1129999"
       cy="-244.0576"
       r="8.1382859e-005"
       gradientTransform="matrix(0.7071,-0.7071,0.7071,0.7071,261.6815,293.4869)"
       gradientUnits="userSpaceOnUse"><stop
         offset="0"
         style="stop-color:#FFFFFF"
         id="stop89" /><stop
         offset="9.040742e-02"
         style="stop-color:#F9F9F9"
         id="stop91" /><stop
         offset="0.2168"
         style="stop-color:#E6E6E6"
         id="stop93" /><stop
         offset="0.3643"
         style="stop-color:#C9C9C9"
         id="stop95" /><stop
         offset="0.528"
         style="stop-color:#9F9F9F"
         id="stop97" /><stop
         offset="0.7048"
         style="stop-color:#6A6A6A"
         id="stop99" /><stop
         offset="0.8898"
         style="stop-color:#2A2A2A"
         id="stop101" /><stop
         offset="1"
         style="stop-color:#000000"
         id="stop103" /></radialGradient><polygon
       class="st11"
       points=""
       id="polygon106"
       style="fill:url(#SVGID_4_)" /><radialGradient
       id="SVGID_5_"
       cx="42.364498"
       cy="-205.9881"
       r="0.0001984023"
       gradientTransform="matrix(0.7071,-0.7071,0.7071,0.7071,261.6815,293.4869)"
       gradientUnits="userSpaceOnUse"><stop
         offset="0"
         style="stop-color:#FFFFFF"
         id="stop108" /><stop
         offset="9.040742e-02"
         style="stop-color:#F9F9F9"
         id="stop110" /><stop
         offset="0.2168"
         style="stop-color:#E6E6E6"
         id="stop112" /><stop
         offset="0.3643"
         style="stop-color:#C9C9C9"
         id="stop114" /><stop
         offset="0.528"
         style="stop-color:#9F9F9F"
         id="stop116" /><stop
         offset="0.7048"
         style="stop-color:#6A6A6A"
         id="stop118" /><stop
         offset="0.8898"
         style="stop-color:#2A2A2A"
         id="stop120" /><stop
         offset="1"
         style="stop-color:#000000"
         id="stop122" /></radialGradient><polygon
       class="st12"
       points=""
       id="polygon125"
       style="fill:url(#SVGID_5_)" /><radialGradient
       id="SVGID_6_"
       cx="42.364498"
       cy="-297.3186"
       r="0.00032469141"
       gradientTransform="matrix(0.7071,-0.7071,0.7071,0.7071,261.6815,293.4869)"
       gradientUnits="userSpaceOnUse"><stop
         offset="0"
         style="stop-color:#FFFFFF"
         id="stop127" /><stop
         offset="9.040742e-02"
         style="stop-color:#F9F9F9"
         id="stop129" /><stop
         offset="0.2168"
         style="stop-color:#E6E6E6"
         id="stop131" /><stop
         offset="0.3643"
         style="stop-color:#C9C9C9"
         id="stop133" /><stop
         offset="0.528"
         style="stop-color:#9F9F9F"
         id="stop135" /><stop
         offset="0.7048"
         style="stop-color:#6A6A6A"
         id="stop137" /><stop
         offset="0.8898"
         style="stop-color:#2A2A2A"
         id="stop139" /><stop
         offset="1"
         style="stop-color:#000000"
         id="stop141" /></radialGradient><rect
       x="81.400002"
       y="53.299999"
       class="st13"
       width="0"
       height="0"
       id="rect144"
       style="fill:url(#SVGID_6_)" /><radialGradient
       id="SVGID_7_"
       cx="42.364498"
       cy="-190.3185"
       r="4.2134099e-005"
       gradientTransform="matrix(0.7071,-0.7071,0.7071,0.7071,261.6815,293.4869)"
       gradientUnits="userSpaceOnUse"><stop
         offset="0"
         style="stop-color:#FFFFFF"
         id="stop146" /><stop
         offset="9.040742e-02"
         style="stop-color:#F9F9F9"
         id="stop148" /><stop
         offset="0.2168"
         style="stop-color:#E6E6E6"
         id="stop150" /><stop
         offset="0.3643"
         style="stop-color:#C9C9C9"
         id="stop152" /><stop
         offset="0.528"
         style="stop-color:#9F9F9F"
         id="stop154" /><stop
         offset="0.7048"
         style="stop-color:#6A6A6A"
         id="stop156" /><stop
         offset="0.8898"
         style="stop-color:#2A2A2A"
         id="stop158" /><stop
         offset="1"
         style="stop-color:#000000"
         id="stop160" /></radialGradient><polygon
       class="st14"
       points=""
       id="polygon163"
       style="fill:url(#SVGID_7_)" /><radialGradient
       id="SVGID_8_"
       cx="95.864403"
       cy="-243.81841"
       r="4.2134099e-005"
       gradientTransform="matrix(0.7071,-0.7071,0.7071,0.7071,261.6815,293.4869)"
       gradientUnits="userSpaceOnUse"><stop
         offset="0"
         style="stop-color:#FFFFFF"
         id="stop165" /><stop
         offset="9.040742e-02"
         style="stop-color:#F9F9F9"
         id="stop167" /><stop
         offset="0.2168"
         style="stop-color:#E6E6E6"
         id="stop169" /><stop
         offset="0.3643"
         style="stop-color:#C9C9C9"
         id="stop171" /><stop
         offset="0.528"
         style="stop-color:#9F9F9F"
         id="stop173" /><stop
         offset="0.7048"
         style="stop-color:#6A6A6A"
         id="stop175" /><stop
         offset="0.8898"
         style="stop-color:#2A2A2A"
         id="stop177" /><stop
         offset="1"
         style="stop-color:#000000"
         id="stop179" /></radialGradient><polygon
       class="st15"
       points=""
       id="polygon182"
       style="fill:url(#SVGID_8_)" /><radialGradient
       id="SVGID_9_"
       cx="42.3895"
       cy="-281.33359"
       r="0.00045503781"
       gradientTransform="matrix(0.7071,-0.7071,0.7071,0.7071,261.6815,293.4869)"
       gradientUnits="userSpaceOnUse"><stop
         offset="0"
         style="stop-color:#FFFFFF"
         id="stop184" /><stop
         offset="9.040742e-02"
         style="stop-color:#F9F9F9"
         id="stop186" /><stop
         offset="0.2168"
         style="stop-color:#E6E6E6"
         id="stop188" /><stop
         offset="0.3643"
         style="stop-color:#C9C9C9"
         id="stop190" /><stop
         offset="0.528"
         style="stop-color:#9F9F9F"
         id="stop192" /><stop
         offset="0.7048"
         style="stop-color:#6A6A6A"
         id="stop194" /><stop
         offset="0.8898"
         style="stop-color:#2A2A2A"
         id="stop196" /><stop
         offset="1"
         style="stop-color:#000000"
         id="stop198" /></radialGradient><polygon
       class="st16"
       points=""
       id="polygon201"
       style="fill:url(#SVGID_9_)" /><radialGradient
       id="SVGID_10_"
       cx="-11.1354"
       cy="-243.8183"
       r="0.00030366471"
       gradientTransform="matrix(0.7071,-0.7071,0.7071,0.7071,261.6815,293.4869)"
       gradientUnits="userSpaceOnUse"><stop
         offset="0"
         style="stop-color:#FFFFFF"
         id="stop203" /><stop
         offset="9.040742e-02"
         style="stop-color:#F9F9F9"
         id="stop205" /><stop
         offset="0.2168"
         style="stop-color:#E6E6E6"
         id="stop207" /><stop
         offset="0.3643"
         style="stop-color:#C9C9C9"
         id="stop209" /><stop
         offset="0.528"
         style="stop-color:#9F9F9F"
         id="stop211" /><stop
         offset="0.7048"
         style="stop-color:#6A6A6A"
         id="stop213" /><stop
         offset="0.8898"
         style="stop-color:#2A2A2A"
         id="stop215" /><stop
         offset="1"
         style="stop-color:#000000"
         id="stop217" /></radialGradient><rect
       x="81.400002"
       y="129"
       class="st17"
       width="0"
       height="0"
       id="rect220"
       style="fill:url(#SVGID_10_)" /><polygon
       class="st9"
       points="81.4,53.3 81.4,75.5 92.7,64.6 92.7,64.6 92.7,64.6 81.4,53.3 "
       id="polygon222"
       style="fill:#385e82" /><polygon
       class="st18"
       points="92.7,117.3 81.4,129 103.6,129 "
       id="polygon224"
       style="fill:#517091" /><polygon
       class="st3"
       points="92.7,117.3 81.4,106.8 81.4,129 81.4,129 81.4,129 92.7,117.3 "
       id="polygon226"
       style="fill:#00416b" /><polygon
       class="st10"
       points="92.7,64.6 81.4,75.5 81.7,91.1 "
       id="polygon228"
       style="fill:#597595" /><polygon
       class="st19"
       points="119.1,53.7 103.6,53.3 92.7,64.6 "
       id="polygon230"
       style="fill:#456789" /><polygon
       class="st3"
       points="92.7,117.3 103.6,129 119,128.4 "
       id="polygon232"
       style="fill:#00416b" /><polygon
       class="st10"
       points="86.6,103.9 81.7,91.1 81.4,106.8 92.7,117.3 "
       id="polygon234"
       style="fill:#597595" /><polygon
       class="st20"
       points="81.4,53.3 92.7,64.6 103.6,53.3 "
       id="polygon236"
       style="fill:#798fa9" /><polygon
       class="st21"
       points="157.1,75.5 147,66.2 146.4,66.7 156.5,91.1 "
       id="polygon238"
       style="fill:#78c366" /><polygon
       class="st22"
       points="119.2,144.6 154.5,129.9 153.8,129.2 134.9,129 "
       id="polygon240"
       style="fill:#3b6084" /><polygon
       class="st23"
       points="157.1,75.5 172.7,91.1 158,55.7 157.1,56.5 "
       id="polygon242"
       style="fill:#0e426a" /><polygon
       class="st3"
       points="153.8,129.2 144,118.8 134.9,129 "
       id="polygon244"
       style="fill:#00416b" /><polygon
       class="st24"
       points="157.1,56.5 147,66.2 157.1,75.5 "
       id="polygon246"
       style="fill:#00833e" /><polygon
       class="st25"
       points="119,128.4 134.9,129 144,118.8 143.5,118.3 132.1,122.8 "
       id="polygon248"
       style="fill:#6d85a2" /><polygon
       class="st1"
       points="119.1,53.7 143.5,63.8 143.9,63.4 134.9,53.3 "
       id="polygon250"
       style="fill:#5f7a99" /><polygon
       class="st26"
       points="156.5,91.1 146.7,114.8 147.2,115.3 157.1,106.8 "
       id="polygon252"
       style="fill:#6abf4b" /><polygon
       class="st1"
       points="143.9,63.4 154.6,53.2 134.9,53.3 "
       id="polygon254"
       style="fill:#5f7a99" /><polygon
       class="st23"
       points="157.1,106.8 157.2,125.9 158,126.6 172.7,91.1 "
       id="polygon256"
       style="fill:#0e426a" /><polygon
       class="st20"
       points="119.2,37.6 134.9,53.3 154.6,53.2 155.2,52.5 138.8,45.6 "
       id="polygon258"
       style="fill:#798fa9" /><polygon
       class="st24"
       points="147.2,115.3 157.2,125.9 157.1,106.8 "
       id="polygon260"
       style="fill:#00833e" /></g><g
     id="g294"
     transform="translate(-65.7,-37.6)"><path
       class="st23"
       d="m 189.4,74.2 c 2.7,-2.8 6.2,-4.2 10.5,-4.2 5.7,0 9.8,1.9 12.4,5.6 1.4,2.1 2.2,4.2 2.3,6.4 h -7.1 c -0.5,-1.6 -1,-2.9 -1.7,-3.7 -1.3,-1.5 -3.1,-2.2 -5.6,-2.2 -2.5,0 -4.5,1 -6,3.1 -1.5,2.1 -2.2,5 -2.2,8.9 0,3.8 0.8,6.7 2.3,8.6 1.5,1.9 3.5,2.9 5.9,2.9 2.4,0 4.3,-0.8 5.6,-2.5 0.7,-0.9 1.3,-2.2 1.8,-4 h 7.1 c -0.6,3.7 -2.2,6.7 -4.7,9.1 -2.5,2.3 -5.7,3.5 -9.6,3.5 -4.9,0 -8.7,-1.6 -11.4,-4.7 -2.8,-3.2 -4.2,-7.5 -4.2,-13 -0.2,-6 1.4,-10.6 4.6,-13.8 z"
       id="path264"
       inkscape:connector-curvature="0"
       style="fill:#0e426a" /><path
       class="st23"
       d="m 228.1,89.3 c 1.2,-0.2 2.1,-0.3 2.7,-0.6 1,-0.4 1.4,-1 1.4,-1.9 0,-1 -0.4,-1.8 -1.1,-2.2 -0.7,-0.4 -1.8,-0.6 -3.2,-0.6 -1.6,0 -2.7,0.4 -3.4,1.2 -0.5,0.6 -0.8,1.4 -0.9,2.3 h -6.4 c 0.1,-2.2 0.8,-4 1.9,-5.5 1.8,-2.2 4.8,-3.4 9.1,-3.4 2.8,0 5.3,0.6 7.4,1.7 2.2,1.1 3.3,3.2 3.3,6.2 v 11.6 c 0,0.8 0,1.8 0,2.9 0,0.9 0.2,1.5 0.4,1.8 0.2,0.3 0.5,0.6 1,0.8 v 1 H 233 c -0.2,-0.5 -0.3,-1 -0.4,-1.4 -0.1,-0.5 -0.1,-1 -0.2,-1.5 -0.9,1 -2,1.8 -3.2,2.5 -1.4,0.8 -3.1,1.2 -4.9,1.2 -2.3,0 -4.2,-0.7 -5.7,-2 -1.5,-1.3 -2.3,-3.2 -2.3,-5.6 0,-3.1 1.2,-5.4 3.6,-6.8 1.3,-0.8 3.3,-1.3 5.9,-1.6 z m 4,3.1 c -0.4,0.3 -0.9,0.5 -1.3,0.6 -0.4,0.2 -1,0.3 -1.8,0.5 l -1.5,0.3 c -1.4,0.2 -2.4,0.6 -3.1,0.9 -1,0.6 -1.6,1.5 -1.6,2.8 0,1.1 0.3,2 1,2.5 0.6,0.5 1.4,0.8 2.3,0.8 1.5,0 2.8,-0.4 4,-1.3 1.2,-0.8 1.9,-2.4 1.9,-4.6 v -2.5 z"
       id="path266"
       inkscape:connector-curvature="0"
       style="fill:#0e426a" /><path
       class="st23"
       d="m 278.6,90 c -2,1.7 -4.8,2.5 -8.5,2.5 H 263 v 12.3 h -7.1 V 70.7 h 14.6 c 3.4,0 6.1,0.9 8.1,2.6 2,1.8 3,4.5 3,8.2 0,4 -1,6.8 -3,8.5 z m -5.5,-12.3 c -0.9,-0.8 -2.2,-1.1 -3.8,-1.1 h -6.4 v 10 h 6.4 c 1.6,0 2.9,-0.4 3.8,-1.2 0.9,-0.8 1.4,-2.1 1.4,-3.9 0,-1.8 -0.5,-3 -1.4,-3.8 z"
       id="path268"
       inkscape:connector-curvature="0"
       style="fill:#0e426a" /><path
       class="st23"
       d="m 305.3,101.7 c -2.1,2.6 -5.4,3.9 -9.7,3.9 -4.3,0 -7.6,-1.3 -9.7,-3.9 -2.1,-2.6 -3.2,-5.8 -3.2,-9.5 0,-3.6 1.1,-6.8 3.2,-9.5 2.1,-2.7 5.4,-4 9.7,-4 4.3,0 7.6,1.3 9.7,4 2.1,2.7 3.2,5.8 3.2,9.5 0,3.7 -1,6.8 -3.2,9.5 z M 300.1,98 c 1,-1.4 1.5,-3.3 1.5,-5.8 0,-2.5 -0.5,-4.5 -1.5,-5.8 -1,-1.4 -2.5,-2 -4.4,-2 -1.9,0 -3.4,0.7 -4.5,2 -1,1.4 -1.6,3.3 -1.6,5.8 0,2.5 0.5,4.5 1.6,5.8 1.1,1.3 2.5,2.1 4.5,2.1 1.9,0 3.3,-0.7 4.4,-2.1 z"
       id="path270"
       inkscape:connector-curvature="0"
       style="fill:#0e426a" /><path
       class="st23"
       d="m 326.6,109.6 h 0.8 c 0.6,0 1.3,0 1.8,-0.1 0.6,-0.1 1.1,-0.3 1.5,-0.5 0.4,-0.3 0.7,-0.8 1.1,-1.6 0.3,-0.8 0.5,-1.3 0.4,-1.5 L 323,79.5 h 7.3 l 5.5,18.6 5.2,-18.6 h 7 l -8.6,24.8 c -1.7,4.8 -3,7.7 -4,8.9 -1,1.2 -2.9,1.7 -5.8,1.7 -0.6,0 -1.1,0 -1.4,0 -0.4,0 -0.9,0 -1.6,-0.1 z"
       id="path272"
       inkscape:connector-curvature="0"
       style="fill:#0e426a" /><g
       id="g276"><polygon
         class="st23"
         points="250.6,104.7 250.6,70.7 250.4,70.7 244,74 244,104.7 "
         id="polygon274"
         style="fill:#0e426a" /></g><g
       id="g280"><polygon
         class="st23"
         points="319.7,104.7 319.7,70.7 319.5,70.7 313.1,74 313.1,104.7 "
         id="polygon278"
         style="fill:#0e426a" /></g><path
       class="st27"
       d="m 351.5,70.1 h 15.4 c 3,0 5.5,0.9 7.4,2.6 1.9,1.7 2.8,4.2 2.8,7.3 0,2.7 -0.8,5 -2.5,7 -1.7,2 -4.2,3 -7.7,3 h -10.8 v 14.6 h -4.7 V 70.1 Z m 18.1,4.8 c -1,-0.5 -2.4,-0.7 -4.2,-0.7 h -9.2 v 11.9 h 9.2 c 2.1,0 3.8,-0.4 5.1,-1.3 1.3,-0.9 1.9,-2.5 1.9,-4.7 0,-2.6 -1,-4.3 -2.8,-5.2 z"
       id="path282"
       inkscape:connector-curvature="0"
       style="fill:#198844" /><path
       class="st27"
       d="m 397.1,82 c 2.2,2.2 3.3,5.3 3.3,9.5 0,4 -1,7.4 -2.9,10 -2,2.6 -5,4 -9.1,4 -3.4,0 -6.2,-1.2 -8.2,-3.5 -2,-2.3 -3,-5.5 -3,-9.4 0,-4.2 1.1,-7.6 3.2,-10.1 2.1,-2.5 5,-3.7 8.6,-3.7 3.2,-0.1 5.9,1 8.1,3.2 z m -2.6,16.7 c 1,-2.1 1.5,-4.5 1.5,-7.1 0,-2.3 -0.4,-4.2 -1.1,-5.7 -1.2,-2.3 -3.2,-3.5 -6.1,-3.5 -2.5,0 -4.4,1 -5.6,2.9 -1.2,2 -1.7,4.3 -1.7,7.1 0,2.7 0.6,4.9 1.7,6.7 1.2,1.8 3,2.7 5.5,2.7 2.8,0 4.7,-1 5.8,-3.1 z"
       id="path284"
       inkscape:connector-curvature="0"
       style="fill:#198844" /><path
       class="st27"
       d="M 403.8,79.5 H 408 V 83 c 1,-1.2 1.9,-2.1 2.7,-2.7 1.4,-1 3,-1.4 4.7,-1.4 2,0 3.6,0.5 4.8,1.5 0.7,0.6 1.3,1.4 1.9,2.5 0.9,-1.3 2,-2.3 3.3,-3 1.3,-0.7 2.7,-1 4.3,-1 3.4,0 5.7,1.2 6.9,3.7 0.7,1.3 1,3.1 1,5.3 v 16.7 h -4.4 V 87.1 c 0,-1.7 -0.4,-2.8 -1.3,-3.4 -0.9,-0.6 -1.9,-0.9 -3.1,-0.9 -1.7,0 -3.1,0.6 -4.3,1.7 -1.2,1.1 -1.8,3 -1.8,5.6 v 14.6 h -4.3 V 88.2 c 0,-1.7 -0.2,-2.9 -0.6,-3.7 -0.6,-1.2 -1.8,-1.8 -3.6,-1.8 -1.6,0 -3,0.6 -4.3,1.9 -1.3,1.3 -2,3.5 -2,6.7 v 13.3 h -4.2 V 79.5 Z"
       id="path286"
       inkscape:connector-curvature="0"
       style="fill:#198844" /><path
       class="st27"
       d="m 460.2,82 c 2.2,2.2 3.3,5.3 3.3,9.5 0,4 -1,7.4 -2.9,10 -2,2.6 -5,4 -9.1,4 -3.4,0 -6.2,-1.2 -8.2,-3.5 -2,-2.3 -3,-5.5 -3,-9.4 0,-4.2 1.1,-7.6 3.2,-10.1 2.1,-2.5 5,-3.7 8.6,-3.7 3.2,-0.1 5.9,1 8.1,3.2 z m -2.6,16.7 c 1,-2.1 1.5,-4.5 1.5,-7.1 0,-2.3 -0.4,-4.2 -1.1,-5.7 -1.2,-2.3 -3.2,-3.5 -6.1,-3.5 -2.5,0 -4.4,1 -5.6,2.9 -1.2,2 -1.7,4.3 -1.7,7.1 0,2.7 0.6,4.9 1.7,6.7 1.2,1.8 3,2.7 5.5,2.7 2.9,0 4.8,-1 5.8,-3.1 z"
       id="path288"
       inkscape:connector-curvature="0"
       style="fill:#198844" /><path
       class="st27"
       d="m 467,79.5 h 4 V 83 c 1.2,-1.5 2.4,-2.5 3.8,-3.2 1.4,-0.7 2.8,-1 4.4,-1 3.6,0 6,1.2 7.2,3.7 0.7,1.4 1,3.3 1,5.8 v 16.1 h -4.3 V 88.8 c 0,-1.5 -0.2,-2.8 -0.7,-3.7 -0.8,-1.6 -2.1,-2.3 -4.1,-2.3 -1,0 -1.8,0.1 -2.5,0.3 -1.2,0.3 -2.2,1 -3,2.1 -0.7,0.8 -1.2,1.7 -1.4,2.6 -0.2,0.9 -0.3,2.1 -0.3,3.8 v 13.1 H 467 Z"
       id="path290"
       inkscape:connector-curvature="0"
       style="fill:#198844" /><path
       class="st27"
       d="m 505.3,89.4 c 1,-0.1 1.6,-0.5 1.9,-1.2 0.2,-0.4 0.3,-0.9 0.3,-1.6 0,-1.4 -0.5,-2.5 -1.5,-3.1 -1,-0.6 -2.5,-1 -4.4,-1 -2.2,0 -3.8,0.6 -4.7,1.8 -0.5,0.7 -0.8,1.6 -1,2.9 H 492 c 0.1,-3.1 1.1,-5.3 3,-6.5 1.9,-1.2 4.2,-1.8 6.7,-1.8 2.9,0 5.3,0.6 7.2,1.7 1.8,1.1 2.7,2.9 2.7,5.3 v 14.5 c 0,0.4 0.1,0.8 0.3,1.1 0.2,0.3 0.6,0.4 1.1,0.4 0.2,0 0.4,0 0.6,0 0.2,0 0.5,-0.1 0.8,-0.1 v 3.1 c -0.7,0.2 -1.2,0.3 -1.5,0.4 -0.3,0.1 -0.8,0.1 -1.4,0.1 -1.5,0 -2.5,-0.5 -3.2,-1.5 -0.3,-0.5 -0.6,-1.3 -0.7,-2.3 -0.9,1.1 -2.1,2.1 -3.7,2.9 -1.6,0.8 -3.4,1.2 -5.3,1.2 -2.3,0 -4.2,-0.7 -5.7,-2.1 -1.5,-1.4 -2.2,-3.2 -2.2,-5.3 0,-2.3 0.7,-4.1 2.2,-5.4 1.5,-1.3 3.4,-2.1 5.7,-2.4 z m -8.9,11.4 c 0.9,0.7 1.9,1.1 3.2,1.1 1.5,0 2.9,-0.3 4.3,-1 2.3,-1.1 3.5,-3 3.5,-5.6 v -3.4 c -0.5,0.3 -1.2,0.6 -2,0.8 -0.8,0.2 -1.6,0.4 -2.4,0.5 l -2.5,0.3 c -1.5,0.2 -2.7,0.5 -3.4,1 -1.3,0.7 -2,1.9 -2,3.5 0,1.1 0.4,2.1 1.3,2.8 z"
       id="path292"
       inkscape:connector-curvature="0"
       style="fill:#198844" /></g><polygon
     class="st28"
     points="397.1,76 361,76 397.1,76 "
     id="polygon296"
     style="fill:none"
     transform="translate(-65.7,-37.6)" /></svg>