<?xml version="1.0" encoding="UTF-8" standalone="no"?>
<!-- Created with Inkscape (http://www.inkscape.org/) -->

<svg
   xmlns:dc="http://purl.org/dc/elements/1.1/"
   xmlns:cc="http://creativecommons.org/ns#"
   xmlns:rdf="http://www.w3.org/1999/02/22-rdf-syntax-ns#"
   xmlns:svg="http://www.w3.org/2000/svg"
   xmlns="http://www.w3.org/2000/svg"
   xmlns:sodipodi="http://sodipodi.sourceforge.net/DTD/sodipodi-0.dtd"
   xmlns:inkscape="http://www.inkscape.org/namespaces/inkscape"
   width="39.6875mm"
   height="39.6875mm"
   viewBox="0 0 39.6875 39.6875"
   version="1.1"
   id="svg357"
   inkscape:version="0.92.1 r15371"
   sodipodi:docname="canada seal.svg">
  <defs
     id="defs351">
    <clipPath
       clipPathUnits="userSpaceOnUse"
       id="clipPath38">
      <path
         d="m 165.665,340.835 h 274 v 137.818 h -274 z"
         id="path36"
         inkscape:connector-curvature="0" />
    </clipPath>
  </defs>
  <sodipodi:namedview
     id="base"
     pagecolor="#ffffff"
     bordercolor="#666666"
     borderopacity="1.0"
     inkscape:pageopacity="0.0"
     inkscape:pageshadow="2"
     inkscape:zoom="2.8"
     inkscape:cx="0.10219458"
     inkscape:cy="106.1996"
     inkscape:document-units="mm"
     inkscape:current-layer="layer1"
     showgrid="false"
     fit-margin-top="0"
     fit-margin-left="0"
     fit-margin-right="0"
     fit-margin-bottom="0"
     inkscape:window-width="1600"
     inkscape:window-height="838"
     inkscape:window-x="-8"
     inkscape:window-y="-8"
     inkscape:window-maximized="1" />
  <metadata
     id="metadata354">
    <rdf:RDF>
      <cc:Work
         rdf:about="">
        <dc:format>image/svg+xml</dc:format>
        <dc:type
           rdf:resource="http://purl.org/dc/dcmitype/StillImage" />
        <dc:title></dc:title>
      </cc:Work>
    </rdf:RDF>
  </metadata>
  <g
     inkscape:label="Layer 1"
     inkscape:groupmode="layer"
     id="layer1"
     transform="translate(-67.846727,-124.45387)">
    <g
       transform="matrix(0.32733849,0,0,-0.32733849,-11.38359,278.42244)"
       id="g32">
      <g
         id="g34"
         clip-path="url(#clipPath38)">
        <path
           d="m 302.64,353.583 c 31.017,0 56.163,25.145 56.163,56.162 0,31.018 -25.146,56.163 -56.163,56.163 -31.018,0 -56.163,-25.145 -56.163,-56.163 0,-31.017 25.145,-56.162 56.163,-56.162 z"
           style="fill:none;stroke:#231f20;stroke-width:1.04799998;stroke-linecap:round;stroke-linejoin:round;stroke-miterlimit:4;stroke-dasharray:none;stroke-opacity:1"
           id="path40"
           inkscape:connector-curvature="0" />
        <path
           d="m 302.665,350.17 c 32.901,0 59.574,26.673 59.574,59.574 0,32.901 -26.673,59.573 -59.574,59.573 -32.901,0 -59.573,-26.672 -59.573,-59.573 0,-32.901 26.672,-59.574 59.573,-59.574 z"
           style="fill:none;stroke:#231f20;stroke-width:2.09599996;stroke-linecap:round;stroke-linejoin:round;stroke-miterlimit:4;stroke-dasharray:none;stroke-opacity:1"
           id="path42"
           inkscape:connector-curvature="0" />
        <path
           d="m 302.755,370.234 c 21.957,0 39.756,17.8 39.756,39.756 0,21.956 -17.799,39.756 -39.756,39.756 -21.956,0 -39.755,-17.8 -39.755,-39.756 0,-21.956 17.799,-39.756 39.755,-39.756 z"
           style="fill:none;stroke:#231f20;stroke-width:1.04799998;stroke-linecap:round;stroke-linejoin:round;stroke-miterlimit:4;stroke-dasharray:none;stroke-opacity:1"
           id="path44"
           inkscape:connector-curvature="0" />
        <path
           d="m 258.085,395.331 c -0.431,-0.148 -0.402,-0.231 -0.273,-0.606 0.094,-0.275 0.249,-0.755 0.418,-1.097 0.106,-0.22 0.461,-0.149 0.742,-0.104 0.058,0.01 0.169,0.017 0.197,-0.065 0.016,-0.046 0.016,-0.107 -0.057,-0.132 -0.26,-0.08 -0.541,-0.156 -0.804,-0.225 -0.287,-0.12 -0.556,-0.232 -0.846,-0.342 -0.147,-0.051 -0.184,-0.002 -0.2,0.044 -0.028,0.082 0.063,0.144 0.115,0.173 0.25,0.137 0.5,0.305 0.477,0.522 -0.041,0.386 -0.204,0.862 -0.299,1.138 -0.126,0.366 -0.157,0.458 -0.469,0.351 l -1.595,-0.548 c -0.844,-0.29 -0.714,-0.696 -0.465,-1.421 0.27,-0.788 0.462,-1.286 1.376,-1.32 0.073,-0.006 0.343,0.015 0.381,-0.095 0.022,-0.064 -0.005,-0.105 -0.07,-0.126 -0.073,-0.026 -0.153,-0.033 -0.232,-0.039 l -1.019,-0.197 c -0.067,-0.012 -0.065,0.009 -0.09,0.082 l -1.231,3.585 c -0.063,0.183 -0.169,0.372 -0.232,0.556 -0.028,0.082 -0.017,0.168 0.084,0.203 0.101,0.034 0.16,-0.109 0.192,-0.201 0.217,-0.632 0.388,-0.533 0.975,-0.331 l 3.731,1.282 c 0.568,0.195 0.764,0.221 0.547,0.854 -0.032,0.091 -0.082,0.238 0.028,0.276 0.092,0.031 0.163,-0.026 0.191,-0.109 0.195,-0.568 0.36,-1.168 0.555,-1.736 0.271,-0.788 0.572,-1.546 0.84,-2.325 0.06,-0.174 -0.176,-0.204 -0.295,-0.245 l -0.788,-0.271 c -0.056,-0.019 -0.19,-0.075 -0.221,0.017 -0.029,0.082 0.078,0.16 0.133,0.209 l 0.209,0.226 c 0.237,0.235 0.358,0.42 0.346,0.754 -0.013,0.334 -0.148,0.728 -0.255,1.04 -0.05,0.147 -0.189,0.55 -0.294,0.678 -0.124,0.152 -0.317,0.055 -0.472,0.002 z"
           style="fill:#231f20;fill-opacity:1;fill-rule:nonzero;stroke:none"
           id="path46"
           inkscape:connector-curvature="0" />
        <path
           d="m 260.567,387.255 c -0.066,0.77 -0.05,1.573 0.707,1.985 0.894,0.487 1.879,-0.026 2.333,-0.86 0.181,-0.332 0.39,-0.859 0.434,-1.243 0.028,-0.194 -0.083,-0.233 -0.232,-0.325 -0.217,-0.129 -0.429,-0.266 -0.646,-0.395 -0.059,-0.033 -0.12,-0.022 -0.153,0.038 -0.051,0.094 0.076,0.185 0.122,0.243 0.486,0.507 0.662,0.934 0.3,1.598 -0.305,0.562 -0.887,0.941 -1.508,0.602 -0.733,-0.398 -0.521,-1.497 -0.458,-2.18 0.025,-0.35 0.041,-0.805 -0.07,-1.13 -0.138,-0.395 -0.424,-0.761 -0.791,-0.96 -0.476,-0.259 -1.027,-0.261 -1.533,-0.062 -0.523,0.212 -0.915,0.628 -1.184,1.122 -0.227,0.417 -0.385,0.993 -0.367,1.466 0.015,0.196 0.258,0.295 0.412,0.379 0.221,0.12 0.434,0.236 0.669,0.331 0.073,0.028 0.189,0.058 0.24,-0.035 0.06,-0.111 -0.153,-0.227 -0.216,-0.272 -0.686,-0.484 -0.933,-1.126 -0.511,-1.901 0.347,-0.638 1.124,-1.032 1.797,-0.666 0.681,0.371 0.763,1.011 0.703,1.729 z"
           style="fill:#231f20;fill-opacity:1;fill-rule:nonzero;stroke:none"
           id="path48"
           inkscape:connector-curvature="0" />
        <path
           d="m 263.948,378.554 c -0.487,-0.385 -0.656,-0.468 -0.241,-0.993 0.054,-0.069 0.164,-0.192 0.065,-0.27 -0.084,-0.066 -0.147,-0.017 -0.201,0.051 -0.229,0.289 -0.414,0.587 -0.643,0.876 -0.228,0.289 -0.487,0.554 -0.715,0.843 -0.054,0.069 -0.087,0.141 -0.003,0.208 0.098,0.077 0.187,-0.05 0.241,-0.118 0.421,-0.533 0.543,-0.375 1.022,0.004 l 3.522,2.782 c 0.273,0.216 0.142,0.273 -0.044,0.509 -0.547,0.692 -0.838,0.919 -1.735,0.804 -0.077,-0.012 -0.254,-0.053 -0.315,0.023 -0.042,0.053 -0.022,0.106 0.032,0.148 0.053,0.042 0.168,0.084 0.218,0.099 l 1.223,0.484 c 0.066,0.027 0.131,0.054 0.185,-0.015 0.036,-0.045 0.016,-0.098 -0.03,-0.134 -0.062,-0.062 -0.114,-0.09 -0.111,-0.187 -0.006,-0.165 0.143,-0.307 0.239,-0.428 l 2.182,-2.762 c 0.156,-0.197 0.268,-0.418 0.541,-0.325 0.079,0.025 0.159,0.064 0.22,-0.012 0.084,-0.107 -0.167,-0.243 -0.22,-0.285 l -0.964,-0.687 c -0.061,-0.049 -0.135,-0.095 -0.202,-0.011 -0.042,0.053 0.007,0.116 0.041,0.167 0.117,0.18 0.288,0.401 0.343,0.629 0.065,0.324 -0.103,0.537 -0.289,0.773 l -0.349,0.441 c -0.27,0.342 -0.255,0.354 -0.643,0.048 z"
           style="fill:#231f20;fill-opacity:1;fill-rule:nonzero;stroke:none"
           id="path50"
           inkscape:connector-curvature="0" />
        <path
           d="m 271.558,375.44 c 0.047,0.023 0.259,0.159 0.317,0.108 0.043,-0.039 -0.066,-0.279 -0.078,-0.321 l -0.603,-1.669 c -0.013,-0.014 -0.065,-0.175 -0.091,-0.204 -0.071,-0.08 -0.218,0.09 -0.261,0.129 l -0.833,0.741 c -0.029,0.026 -0.287,0.203 -0.222,0.276 0.019,0.021 0.072,0.052 0.099,0.067 z m -2.478,-1.298 c 0.34,0.165 0.323,0.232 0.613,-0.026 l 0.984,-0.876 c 0.348,-0.309 0.297,-0.264 0.12,-0.769 l -0.258,-0.756 c -0.047,-0.127 -0.124,-0.344 -0.214,-0.445 -0.193,-0.218 -0.469,0.027 -0.657,0.195 -0.072,0.064 -0.21,0.187 -0.307,0.078 -0.057,-0.065 0.008,-0.137 0.052,-0.175 0.268,-0.239 0.569,-0.455 0.829,-0.687 0.319,-0.283 0.612,-0.596 0.93,-0.879 0.037,-0.033 0.115,-0.09 0.173,-0.025 0.097,0.109 -0.041,0.231 -0.113,0.296 -0.355,0.316 -0.104,0.845 0.031,1.231 l 1.773,4.936 c 0.024,0.057 0.079,0.176 0.021,0.228 -0.079,0.071 -0.191,-0.011 -0.265,-0.05 l -4.626,-2.384 c -0.173,-0.092 -0.6,-0.309 -0.784,-0.327 -0.185,-0.017 -0.335,0.091 -0.465,0.207 -0.065,0.058 -0.203,0.18 -0.293,0.079 -0.11,-0.123 0.117,-0.247 0.19,-0.312 0.202,-0.18 0.431,-0.332 0.634,-0.512 0.202,-0.181 0.379,-0.39 0.582,-0.57 0.072,-0.065 0.174,-0.155 0.251,-0.068 0.09,0.101 -0.039,0.203 -0.105,0.261 -0.166,0.149 -0.465,0.454 -0.252,0.693 0.115,0.13 0.309,0.231 0.455,0.308 z"
           style="fill:#231f20;fill-opacity:1;fill-rule:nonzero;stroke:none"
           id="path52"
           inkscape:connector-curvature="0" />
        <path
           d="m 278.654,371.132 c 0.084,0.142 0.2,0.377 0.364,0.426 0.222,0.072 0.598,-0.149 0.773,-0.253 0.727,-0.428 1.243,-1.137 0.751,-1.972 -0.173,-0.293 -0.44,-0.517 -0.762,-0.586 -0.442,-0.1 -0.837,0.088 -1.196,0.299 l -0.451,0.266 c -0.368,0.217 -0.399,0.258 -0.173,0.642 z m -2.816,-3.269 c -0.314,-0.535 -0.389,-0.738 -0.974,-0.394 -0.075,0.045 -0.194,0.149 -0.258,0.04 -0.054,-0.092 -0.007,-0.165 0.068,-0.209 0.176,-0.103 0.379,-0.178 0.546,-0.277 0.685,-0.403 1.333,-0.83 2.018,-1.234 0.493,-0.29 0.946,-0.513 1.536,-0.467 0.532,0.024 1.06,0.31 1.341,0.786 0.497,0.843 0.073,1.824 -0.624,2.359 0.637,-0.218 1.446,-0.2 1.835,0.46 0.29,0.492 0.148,1.071 -0.17,1.506 -0.361,0.494 -1.012,0.878 -1.53,1.183 -0.484,0.286 -1.196,0.682 -1.713,0.874 -0.101,0.038 -0.418,0.168 -0.502,0.026 -0.029,-0.05 -0.002,-0.099 0.048,-0.129 0.1,-0.059 0.281,-0.076 0.44,-0.169 0.434,-0.256 0.159,-0.589 -0.038,-0.923 z m 1.561,1.139 c 0.271,0.459 0.302,0.34 0.794,0.05 0.468,-0.276 0.91,-0.537 1.185,-1.025 0.288,-0.485 0.264,-1.022 -0.021,-1.506 -0.207,-0.351 -0.587,-0.633 -0.984,-0.715 -0.476,-0.101 -0.873,0.065 -1.274,0.301 -0.217,0.128 -0.613,0.373 -0.728,0.598 -0.165,0.311 0.078,0.686 0.236,0.953 z"
           style="fill:#231f20;fill-opacity:1;fill-rule:nonzero;stroke:none"
           id="path54"
           inkscape:connector-curvature="0" />
        <path
           d="m 285.087,363.535 c -0.257,-0.69 -0.361,-1.024 0.457,-1.329 0.327,-0.122 0.778,-0.187 1.111,-0.072 0.273,0.094 0.562,0.369 0.753,0.578 0.035,0.038 0.098,0.097 0.153,0.077 0.082,-0.031 0.058,-0.094 0.034,-0.158 -0.115,-0.309 -0.324,-0.593 -0.452,-0.907 -0.097,-0.233 -0.119,-0.349 -0.364,-0.257 -0.872,0.325 -1.749,0.693 -2.621,1.018 -0.309,0.115 -0.613,0.187 -0.922,0.302 -0.081,0.031 -0.141,0.094 -0.107,0.185 0.044,0.118 0.19,0.064 0.28,0.03 0.627,-0.234 0.646,-0.044 0.859,0.528 l 1.385,3.715 c 0.213,0.572 0.323,0.728 -0.313,0.965 -0.082,0.03 -0.227,0.084 -0.183,0.202 0.038,0.1 0.111,0.104 0.202,0.07 0.345,-0.128 0.659,-0.287 1.004,-0.415 0.345,-0.129 0.704,-0.221 1.049,-0.35 0.081,-0.031 0.144,-0.085 0.107,-0.185 -0.044,-0.118 -0.199,-0.06 -0.28,-0.03 -0.636,0.237 -0.655,0.048 -0.868,-0.525 z"
           style="fill:#231f20;fill-opacity:1;fill-rule:nonzero;stroke:none"
           id="path56"
           inkscape:connector-curvature="0" />
        <path
           d="m 292.676,365.061 c 0.13,0.597 0.216,0.766 -0.447,0.91 -0.085,0.019 -0.236,0.052 -0.21,0.175 0.023,0.104 0.095,0.118 0.19,0.098 0.36,-0.079 0.693,-0.191 1.053,-0.269 0.36,-0.078 0.728,-0.118 1.088,-0.196 0.085,-0.019 0.155,-0.064 0.132,-0.168 -0.027,-0.123 -0.188,-0.088 -0.273,-0.07 -0.663,0.144 -0.655,-0.046 -0.784,-0.643 l -0.844,-3.883 c -0.132,-0.607 -0.207,-0.769 0.445,-0.92 0.085,-0.019 0.248,-0.044 0.221,-0.167 -0.022,-0.105 -0.102,-0.107 -0.188,-0.089 -0.359,0.079 -0.692,0.191 -1.052,0.269 -0.36,0.078 -0.728,0.118 -1.088,0.197 -0.086,0.018 -0.157,0.053 -0.134,0.158 0.026,0.123 0.176,0.08 0.261,0.062 0.663,-0.144 0.657,0.056 0.786,0.652 z"
           style="fill:#231f20;fill-opacity:1;fill-rule:nonzero;stroke:none"
           id="path58"
           inkscape:connector-curvature="0" />
        <path
           d="m 299.06,362.078 c -0.685,0.358 -1.353,0.803 -1.294,1.664 0.071,1.015 1.032,1.57 1.98,1.505 0.377,-0.027 0.933,-0.133 1.281,-0.303 0.179,-0.08 0.152,-0.195 0.149,-0.37 -0.007,-0.252 -0.006,-0.505 -0.013,-0.757 -0.005,-0.068 -0.047,-0.113 -0.115,-0.108 -0.106,0.007 -0.115,0.163 -0.139,0.233 -0.167,0.682 -0.432,1.06 -1.186,1.112 -0.638,0.044 -1.27,-0.242 -1.319,-0.948 -0.058,-0.832 0.982,-1.244 1.592,-1.559 0.309,-0.167 0.701,-0.398 0.916,-0.665 0.259,-0.329 0.413,-0.768 0.384,-1.183 -0.037,-0.542 -0.332,-1.007 -0.772,-1.327 -0.46,-0.327 -1.021,-0.434 -1.582,-0.395 -0.474,0.033 -1.045,0.208 -1.434,0.478 -0.157,0.118 -0.11,0.377 -0.098,0.551 0.018,0.252 0.034,0.493 0.081,0.743 0.015,0.077 0.052,0.19 0.158,0.183 0.126,-0.008 0.109,-0.25 0.114,-0.328 0.039,-0.839 0.447,-1.392 1.327,-1.453 0.725,-0.05 1.475,0.394 1.528,1.157 0.054,0.774 -0.442,1.187 -1.08,1.523 z"
           style="fill:#231f20;fill-opacity:1;fill-rule:nonzero;stroke:none"
           id="path60"
           inkscape:connector-curvature="0" />
        <path
           d="m 306.946,360.107 c 0.073,-0.616 0.056,-0.794 0.721,-0.724 0.087,0.01 0.249,0.04 0.264,-0.085 0.013,-0.106 -0.062,-0.135 -0.149,-0.145 -0.365,-0.044 -0.717,-0.047 -1.082,-0.091 -0.366,-0.043 -0.727,-0.126 -1.093,-0.169 -0.087,-0.011 -0.166,-10e-4 -0.179,0.105 -0.015,0.125 0.141,0.134 0.227,0.145 0.674,0.08 0.603,0.267 0.53,0.873 l -0.472,3.947 c -0.072,0.606 -0.046,0.794 -0.719,0.714 -0.087,-0.01 -0.241,-0.029 -0.256,0.096 -0.013,0.106 0.051,0.143 0.147,0.154 0.366,0.044 0.717,0.047 1.083,0.091 0.366,0.044 0.727,0.126 1.093,0.169 0.086,0.011 0.167,-0.009 0.179,-0.115 0.015,-0.125 -0.148,-0.144 -0.235,-0.155 -0.674,-0.08 -0.604,-0.257 -0.531,-0.864 l 0.148,-1.241 c 0.043,-0.356 0.024,-0.359 0.38,-0.316 l 2.695,0.322 c 0.317,0.038 0.333,0.069 0.294,0.396 l -0.149,1.242 c -0.072,0.607 -0.046,0.795 -0.719,0.715 -0.087,-0.011 -0.241,-0.029 -0.256,0.096 -0.013,0.106 0.051,0.143 0.147,0.154 0.366,0.044 0.717,0.047 1.083,0.09 0.366,0.044 0.727,0.126 1.092,0.17 0.087,0.011 0.168,-0.009 0.18,-0.115 0.015,-0.125 -0.148,-0.145 -0.235,-0.155 -0.674,-0.081 -0.604,-0.258 -0.531,-0.864 l 0.472,-3.946 c 0.073,-0.616 0.056,-0.794 0.721,-0.724 0.086,0.01 0.249,0.039 0.264,-0.086 0.013,-0.106 -0.062,-0.134 -0.149,-0.144 -0.365,-0.044 -0.717,-0.047 -1.082,-0.091 -0.366,-0.044 -0.727,-0.126 -1.093,-0.169 -0.087,-0.011 -0.166,-10e-4 -0.179,0.105 -0.015,0.125 0.141,0.134 0.227,0.144 0.674,0.081 0.603,0.268 0.53,0.874 l -0.206,1.723 c -0.042,0.356 -0.042,0.356 -0.379,0.316 l -2.666,-0.319 c -0.337,-0.04 -0.364,-0.063 -0.323,-0.4 z"
           style="fill:#231f20;fill-opacity:1;fill-rule:nonzero;stroke:none"
           id="path62"
           inkscape:connector-curvature="0" />
        <path
           d="m 316.452,364.86 c 0.141,-0.434 0.224,-0.407 0.602,-0.284 0.277,0.089 0.759,0.236 1.104,0.399 0.221,0.102 0.157,0.458 0.116,0.741 -0.009,0.058 -0.014,0.168 0.069,0.195 0.046,0.015 0.107,0.015 0.131,-0.059 0.075,-0.261 0.146,-0.544 0.212,-0.808 0.114,-0.289 0.222,-0.56 0.327,-0.852 0.048,-0.147 -0.002,-0.184 -0.048,-0.199 -0.083,-0.027 -0.143,0.066 -0.17,0.118 -0.133,0.253 -0.297,0.505 -0.515,0.486 -0.386,-0.034 -0.866,-0.19 -1.142,-0.279 -0.369,-0.12 -0.461,-0.15 -0.36,-0.463 l 0.521,-1.604 c 0.275,-0.849 0.684,-0.726 1.412,-0.49 0.793,0.257 1.294,0.44 1.345,1.353 0.006,0.073 -0.01,0.343 0.101,0.379 0.064,0.021 0.104,-0.007 0.125,-0.071 0.024,-0.074 0.029,-0.154 0.035,-0.233 l 0.178,-1.023 c 0.012,-0.067 -0.009,-0.064 -0.083,-0.088 l -3.605,-1.169 c -0.185,-0.06 -0.375,-0.163 -0.56,-0.223 -0.083,-0.026 -0.169,-0.014 -0.202,0.088 -0.032,0.101 0.112,0.158 0.204,0.188 0.636,0.207 0.54,0.379 0.348,0.969 l -1.217,3.753 c -0.185,0.571 -0.208,0.768 -0.844,0.561 -0.093,-0.03 -0.24,-0.077 -0.276,0.033 -0.03,0.092 0.029,0.163 0.112,0.189 0.571,0.186 1.174,0.34 1.745,0.526 0.793,0.257 1.556,0.545 2.339,0.799 0.176,0.057 0.201,-0.179 0.24,-0.299 l 0.257,-0.793 c 0.018,-0.055 0.072,-0.19 -0.02,-0.22 -0.083,-0.027 -0.158,0.081 -0.207,0.136 l -0.222,0.213 c -0.231,0.241 -0.414,0.366 -0.748,0.359 -0.335,-0.007 -0.731,-0.135 -1.044,-0.237 -0.148,-0.048 -0.554,-0.179 -0.683,-0.282 -0.154,-0.122 -0.061,-0.316 -0.01,-0.472 z"
           style="fill:#231f20;fill-opacity:1;fill-rule:nonzero;stroke:none"
           id="path64"
           inkscape:connector-curvature="0" />
        <path
           d="m 323.518,369.157 c -0.075,0.136 -0.23,0.394 -0.185,0.552 0.056,0.198 0.47,0.451 0.648,0.55 1.533,0.853 3.188,0.431 4.065,-1.144 0.368,-0.661 0.499,-1.475 0.31,-2.212 -0.219,-0.822 -0.745,-1.292 -1.457,-1.688 -0.736,-0.41 -1.005,-0.326 -1.424,0.427 z m 1.372,-4.039 c 0.302,-0.542 0.448,-0.705 -0.145,-1.035 -0.084,-0.047 -0.229,-0.106 -0.168,-0.216 0.047,-0.085 0.134,-0.081 0.21,-0.038 0.178,0.099 0.328,0.227 0.515,0.331 0.609,0.339 1.255,0.654 1.882,1.003 0.821,0.457 1.487,1.016 1.815,1.92 0.293,0.829 0.209,1.758 -0.225,2.537 -0.453,0.813 -1.3,1.34 -2.213,1.464 -0.899,0.121 -1.765,-0.117 -2.544,-0.551 -0.339,-0.188 -2.374,-1.454 -2.204,-1.759 0.028,-0.051 0.085,-0.074 0.144,-0.042 0.085,0.048 0.194,0.23 0.372,0.329 0.33,0.184 0.473,-0.191 0.614,-0.445 z"
           style="fill:#231f20;fill-opacity:1;fill-rule:nonzero;stroke:none"
           id="path66"
           inkscape:connector-curvature="0" />
        <path
           d="m 337.522,374.18 c 0.375,-0.392 0.555,-0.609 1.004,-0.181 l 0.21,0.201 c 0.063,0.06 0.133,0.086 0.206,0.009 0.061,-0.063 0.038,-0.138 -0.025,-0.198 l -1.915,-1.827 c -0.077,-0.074 -0.139,-0.093 -0.219,-0.009 -0.074,0.078 -0.017,0.145 0.284,0.432 0.505,0.482 0.384,0.595 -0.057,1.058 l -2.978,3.121 c -0.074,0.077 -0.141,0.119 -0.232,0.032 -0.07,-0.067 -0.1,-0.175 -0.137,-0.264 l -0.232,-0.57 c -0.036,-0.075 -0.088,-0.231 -0.151,-0.291 -0.049,-0.047 -0.118,-0.032 -0.164,0.017 -0.087,0.091 0.013,0.267 0.063,0.355 l 0.683,1.63 c 0.014,0.04 0.036,0.101 0.071,0.121 0.062,0.033 0.11,0.011 0.15,-0.031 z"
           style="fill:#231f20;fill-opacity:1;fill-rule:nonzero;stroke:none"
           id="path68"
           inkscape:connector-curvature="0" />
        <path
           d="m 341.967,375.998 c -0.069,0.054 0.008,0.291 0.029,0.348 0.213,0.859 0.18,1.876 -0.026,2.722 -0.218,0.941 -0.647,1.803 -1.42,2.418 -0.38,0.302 -0.848,0.539 -1.322,0.644 -0.509,0.107 -1.123,0.051 -1.473,-0.389 -0.2,-0.25 -0.282,-0.618 -0.213,-0.921 0.099,-0.45 0.414,-0.849 0.763,-1.127 0.576,-0.459 1.667,-0.831 2.216,-0.141 0.242,0.303 0.185,0.621 0.233,0.682 0.031,0.037 0.1,0.032 0.131,0.007 0.053,-0.042 0.05,-0.139 0.042,-0.195 -0.025,-0.327 -0.136,-0.622 -0.335,-0.873 -0.652,-0.819 -1.753,-0.847 -2.541,-0.219 -0.895,0.712 -1.177,2.039 -0.435,2.972 0.381,0.478 1.001,0.728 1.599,0.747 0.654,0.012 1.311,-0.251 1.812,-0.649 1.008,-0.803 1.395,-2.015 1.467,-3.262 0.031,-0.631 -0.021,-1.272 -0.143,-1.893 -0.027,-0.127 -0.163,-0.749 -0.248,-0.856 -0.036,-0.045 -0.091,-0.051 -0.136,-0.015"
           style="fill:#231f20;fill-opacity:1;fill-rule:nonzero;stroke:none"
           id="path70"
           inkscape:connector-curvature="0" />
        <path
           d="m 341.763,390.26 c 0.034,0.059 0.099,0.078 0.15,0.05 0.077,-0.043 0.03,-0.205 0.019,-0.266 -0.145,-0.84 -0.005,-1.926 0.312,-2.712 0.387,-0.98 1.033,-1.694 1.949,-2.202 0.805,-0.447 2.466,-0.948 3.041,0.085 0.188,0.339 0.142,0.697 -0.021,1.021 -0.228,0.448 -0.572,0.728 -1.004,0.968 -0.424,0.235 -0.924,0.413 -1.411,0.373 -0.362,-0.032 -0.686,-0.196 -0.865,-0.518 -0.259,-0.466 0.027,-0.791 -0.03,-0.892 -0.018,-0.034 -0.08,-0.045 -0.122,-0.021 -0.102,0.056 -0.14,0.266 -0.162,0.367 -0.06,0.311 0.014,0.624 0.165,0.895 0.536,0.966 1.743,0.984 2.608,0.504 0.999,-0.556 1.589,-1.77 0.996,-2.838 -0.706,-1.271 -2.48,-1.172 -3.599,-0.551 -0.881,0.489 -1.451,1.36 -1.793,2.282 -0.369,1.014 -0.44,1.963 -0.308,3.02 0.013,0.082 0.029,0.35 0.075,0.435"
           style="fill:#231f20;fill-opacity:1;fill-rule:nonzero;stroke:none"
           id="path72"
           inkscape:connector-curvature="0" />
        <path
           d="m 347.434,394.129 c -0.059,-0.164 -0.336,-0.508 -0.452,-0.631 -0.361,-0.375 -0.845,-0.603 -1.374,-0.414 -0.292,0.105 -0.547,0.371 -0.669,0.662 -0.134,0.315 -0.105,0.655 0.009,0.975 0.258,0.72 0.945,1.144 1.684,0.879 0.393,-0.14 0.671,-0.456 0.776,-0.854 0.024,-0.132 0.072,-0.489 0.026,-0.617 m 0.156,-1.26 c 0.058,-0.701 0.125,-1.435 0.9,-1.713 0.475,-0.17 1.008,-0.031 1.413,0.236 0.42,0.282 0.696,0.677 0.865,1.152 0.197,0.547 0.25,1.156 0.035,1.707 -0.189,0.479 -0.569,0.883 -1.062,1.06 -0.849,0.304 -1.64,-0.268 -2.09,-0.951 l -0.039,0.323 c -0.054,0.627 -0.105,1.232 -0.789,1.477 -0.949,0.34 -1.718,-0.455 -2.012,-1.277 -0.164,-0.456 -0.203,-0.967 -0.063,-1.44 0.141,-0.441 0.477,-0.881 0.934,-1.044 0.803,-0.288 1.414,0.183 1.896,0.782 z m 3.031,-0.19 c -0.137,-0.383 -0.359,-0.716 -0.74,-0.888 -0.335,-0.158 -0.73,-0.171 -1.077,-0.047 -0.566,0.203 -0.851,0.614 -0.986,1.187 -0.028,0.093 -0.08,0.409 -0.044,0.51 0.056,0.155 0.468,0.646 0.59,0.756 0.392,0.375 0.896,0.575 1.435,0.383 0.31,-0.112 0.587,-0.344 0.752,-0.63 0.242,-0.416 0.227,-0.833 0.07,-1.271"
           style="fill:#231f20;fill-opacity:1;fill-rule:nonzero;stroke:none"
           id="path74"
           inkscape:connector-curvature="0" />
        <path
           d="m 255.155,404.494 c 0.852,0.125 1.627,-0.453 1.746,-1.27 0.123,-0.84 -0.469,-1.605 -1.309,-1.728 -0.805,-0.117 -1.61,0.42 -1.736,1.284 -0.119,0.816 0.459,1.592 1.299,1.714"
           style="fill:#231f20;fill-opacity:1;fill-rule:nonzero;stroke:none"
           id="path76"
           inkscape:connector-curvature="0" />
        <path
           d="m 257.715,416.22 c 0.387,-0.047 0.541,-0.045 0.73,-0.423 0.36,-0.683 0.45,-1.527 0.403,-2.292 -0.064,-1.035 -0.374,-2.233 -1.061,-3.041 -0.726,-0.853 -1.88,-1.385 -3.01,-1.315 -1.165,0.071 -2.188,0.724 -2.825,1.697 -0.614,0.959 -0.855,2.237 -0.785,3.367 0.033,0.553 0.169,1.218 0.355,1.75 0.114,0.312 0.161,0.309 0.494,0.348 l 0.606,0.057 c 0.119,0.016 0.226,0.033 0.344,0.026 0.129,-0.008 0.194,-0.107 0.186,-0.236 -0.033,-0.541 -1.436,-0.491 -1.533,-2.079 -0.048,-0.777 0.344,-1.521 0.94,-2.007 0.619,-0.498 1.466,-0.739 2.243,-0.787 0.765,-0.047 1.623,0.078 2.295,0.45 0.722,0.404 1.248,1.08 1.3,1.928 0.028,0.459 -0.111,0.892 -0.372,1.263 -0.272,0.371 -0.647,0.606 -1.034,0.843 -0.126,0.067 -0.239,0.156 -0.229,0.309 0.015,0.259 0.285,0.231 0.461,0.208 z"
           style="fill:#231f20;fill-opacity:1;fill-rule:nonzero;stroke:none"
           id="path78"
           inkscape:connector-curvature="0" />
        <path
           d="m 255.099,423.796 2.156,0.144 c 0.038,0 0.257,0.031 0.313,0.013 0.135,-0.042 -10e-4,-0.32 -0.025,-0.399 l -0.305,-0.979 c -0.032,-0.102 -0.061,-0.352 -0.218,-0.303 -0.079,0.025 -0.234,0.16 -0.295,0.203 z m 1.28,-1.719 1.36,-1.103 c 0.277,-0.222 0.799,-0.607 1.023,-0.838 0.252,-0.263 0.239,-0.383 0.194,-0.727 -0.023,-0.153 -0.053,-0.329 0.138,-0.388 0.203,-0.063 0.293,0.106 0.345,0.275 0.109,0.349 0.198,0.716 0.307,1.065 0.109,0.349 0.244,0.702 0.352,1.051 0.049,0.158 0.082,0.382 -0.12,0.445 -0.507,0.158 -0.37,-1.107 -1.169,-0.858 -0.327,0.101 -0.675,0.37 -0.947,0.566 -0.318,0.248 -0.306,0.207 -0.184,0.601 l 0.46,1.474 c 0.126,0.405 0.093,0.379 0.532,0.402 l 1.024,0.077 c 0.127,0.009 0.317,0.025 0.463,-0.021 0.405,-0.126 -0.155,-0.816 0.227,-0.935 0.214,-0.067 0.3,0.129 0.349,0.286 0.168,0.54 0.291,1.095 0.467,1.658 0.14,0.45 0.325,0.886 0.472,1.359 0.05,0.158 0.108,0.386 -0.117,0.456 -0.259,0.081 -0.291,-0.144 -0.362,-0.331 -0.082,-0.222 -0.181,-0.302 -0.414,-0.378 -0.178,-0.055 -0.472,-0.087 -0.662,-0.102 l -6.193,-0.615 c -0.357,-0.037 -0.488,0.016 -0.604,-0.355 -0.14,-0.45 0.059,-0.525 0.381,-0.798 z"
           style="fill:#231f20;fill-opacity:1;fill-rule:nonzero;stroke:none"
           id="path80"
           inkscape:connector-curvature="0" />
        <path
           d="m 261.516,437.978 c -0.201,0.122 -0.533,0.325 -0.763,0.355 -0.309,0.037 -0.503,-0.122 -0.674,-0.335 -0.125,-0.159 -0.193,-0.407 -0.414,-0.272 -0.212,0.129 -0.077,0.351 0.015,0.501 0.184,0.302 0.383,0.582 0.567,0.884 0.178,0.292 0.342,0.606 0.52,0.898 0.092,0.151 0.202,0.263 0.373,0.159 0.242,-0.147 -0.038,-0.447 -0.122,-0.63 -0.228,-0.51 0.292,-0.744 0.685,-0.983 l 4.77,-2.91 c 0.282,-0.172 0.494,-0.232 0.285,-0.575 -0.153,-0.251 -0.444,-0.253 -0.711,-0.283 l -7.387,-0.95 3.321,-2.026 c 0.242,-0.147 0.765,-0.466 1.019,-0.525 0.364,-0.083 0.553,0.092 0.739,0.351 0.096,0.135 0.248,0.429 0.469,0.294 0.171,-0.105 0.113,-0.29 0.027,-0.431 -0.196,-0.322 -0.421,-0.6 -0.617,-0.922 -0.197,-0.322 -0.353,-0.668 -0.543,-0.98 -0.086,-0.141 -0.216,-0.241 -0.377,-0.143 -0.222,0.135 -0.048,0.374 0.04,0.541 0.125,0.228 0.128,0.392 -0.044,0.607 -0.244,0.301 -0.79,0.606 -1.132,0.815 l -3.13,1.909 c -0.393,0.24 -0.821,0.556 -1.158,0.072 -0.109,-0.155 -0.23,-0.399 -0.451,-0.264 -0.182,0.111 -0.059,0.312 0.027,0.453 l 1.081,1.771 c 0.245,0.403 0.247,0.36 0.712,0.422 l 5.319,0.705 z"
           style="fill:#231f20;fill-opacity:1;fill-rule:nonzero;stroke:none"
           id="path82"
           inkscape:connector-curvature="0" />
        <path
           d="m 267.439,444.734 1.966,-0.898 c 0.034,-0.017 0.241,-0.094 0.282,-0.136 0.099,-0.101 -0.153,-0.282 -0.212,-0.34 l -0.733,-0.717 c -0.076,-0.074 -0.22,-0.281 -0.336,-0.163 -0.057,0.059 -0.13,0.252 -0.163,0.319 z m 0.31,-2.121 0.674,-1.617 c 0.138,-0.327 0.415,-0.913 0.503,-1.223 0.096,-0.351 0.028,-0.45 -0.175,-0.731 -0.093,-0.124 -0.203,-0.265 -0.063,-0.408 0.149,-0.152 0.308,-0.045 0.435,0.078 0.261,0.256 0.514,0.536 0.775,0.792 0.262,0.255 0.548,0.502 0.809,0.758 0.118,0.115 0.254,0.297 0.106,0.449 -0.371,0.379 -0.852,-0.799 -1.437,-0.201 -0.239,0.245 -0.418,0.647 -0.564,0.949 -0.163,0.368 -0.172,0.327 0.123,0.615 l 1.105,1.08 c 0.303,0.297 0.261,0.289 0.659,0.101 l 0.938,-0.419 c 0.116,-0.052 0.29,-0.128 0.397,-0.238 0.297,-0.304 -0.524,-0.644 -0.244,-0.931 0.157,-0.16 0.325,-0.029 0.443,0.087 0.405,0.395 0.776,0.825 1.198,1.237 0.337,0.329 0.707,0.625 1.061,0.971 0.118,0.116 0.279,0.289 0.114,0.458 -0.19,0.194 -0.325,0.012 -0.477,-0.12 -0.177,-0.156 -0.302,-0.18 -0.543,-0.136 -0.183,0.036 -0.457,0.147 -0.631,0.224 l -5.742,2.399 c -0.332,0.137 -0.423,0.247 -0.701,-0.025 -0.337,-0.33 -0.197,-0.49 -0.043,-0.884 z"
           style="fill:#231f20;fill-opacity:1;fill-rule:nonzero;stroke:none"
           id="path84"
           inkscape:connector-curvature="0" />
        <path
           d="m 276.498,452.653 c -0.399,0.695 -0.483,0.865 0.253,1.287 1.513,0.869 3.093,-0.154 3.874,-1.514 0.376,-0.654 0.663,-1.509 0.596,-2.268 -0.052,-0.763 -0.44,-1.531 -1.115,-1.918 -0.848,-0.487 -1.154,0.139 -1.547,0.824 z m 0.515,-4.803 c 0.393,-0.685 0.528,-0.825 -0.038,-1.354 -0.116,-0.107 -0.263,-0.205 -0.169,-0.369 0.094,-0.163 0.241,-0.16 0.374,-0.084 0.194,0.112 0.375,0.27 0.559,0.376 0.859,0.493 1.741,0.945 2.6,1.438 1.932,1.11 3.233,3.556 2.024,5.662 -0.611,1.064 -1.674,1.636 -2.886,1.687 -1.154,0.045 -2.146,-0.335 -3.128,-0.898 -0.449,-0.259 -3.161,-1.952 -2.891,-2.422 0.135,-0.235 0.325,-0.045 0.472,0.054 0.559,0.375 0.734,0 1.034,-0.522 z"
           style="fill:#231f20;fill-opacity:1;fill-rule:nonzero;stroke:none"
           id="path86"
           inkscape:connector-curvature="0" />
        <path
           d="m 288.701,457.407 1.289,-1.735 c 0.02,-0.031 0.165,-0.199 0.181,-0.256 0.037,-0.136 -0.271,-0.173 -0.35,-0.195 l -0.988,-0.274 c -0.103,-0.028 -0.329,-0.14 -0.373,0.019 -0.022,0.08 0.007,0.284 0.011,0.358 z m -0.752,-2.007 -0.19,-1.741 c -0.037,-0.353 -0.078,-1.001 -0.15,-1.314 -0.085,-0.354 -0.193,-0.408 -0.506,-0.557 -0.142,-0.063 -0.306,-0.133 -0.252,-0.326 0.056,-0.205 0.248,-0.188 0.418,-0.141 0.352,0.097 0.71,0.221 1.062,0.319 0.352,0.097 0.722,0.175 1.074,0.273 0.159,0.044 0.365,0.138 0.308,0.342 -0.141,0.512 -1.13,-0.289 -1.354,0.518 -0.091,0.329 -0.054,0.768 -0.037,1.103 0.036,0.401 0.008,0.369 0.406,0.479 l 1.488,0.413 c 0.409,0.113 0.368,0.127 0.626,-0.23 l 0.619,-0.819 c 0.077,-0.101 0.192,-0.253 0.233,-0.401 0.114,-0.408 -0.77,-0.311 -0.663,-0.697 0.06,-0.216 0.271,-0.182 0.43,-0.138 0.545,0.151 1.078,0.348 1.646,0.505 0.454,0.127 0.922,0.207 1.399,0.339 0.159,0.044 0.383,0.119 0.32,0.346 -0.073,0.261 -0.279,0.167 -0.475,0.125 -0.231,-0.051 -0.352,-0.012 -0.542,0.144 -0.143,0.119 -0.329,0.349 -0.444,0.5 l -3.872,4.872 c -0.224,0.281 -0.251,0.42 -0.626,0.316 -0.454,-0.126 -0.409,-0.333 -0.464,-0.752 z"
           style="fill:#231f20;fill-opacity:1;fill-rule:nonzero;stroke:none"
           id="path88"
           inkscape:connector-curvature="0" />
        <path
           d="m 311.435,454.39 c -0.068,-0.384 -0.074,-0.537 -0.462,-0.706 -0.702,-0.322 -1.549,-0.367 -2.311,-0.278 -1.03,0.119 -2.209,0.493 -2.979,1.223 -0.813,0.771 -1.281,1.952 -1.151,3.077 0.134,1.159 0.842,2.145 1.847,2.729 0.991,0.562 2.281,0.733 3.405,0.603 0.55,-0.064 1.207,-0.235 1.728,-0.45 0.305,-0.13 0.3,-0.177 0.32,-0.512 l 0.025,-0.608 c 0.01,-0.12 0.021,-0.228 0.007,-0.345 -0.014,-0.129 -0.116,-0.188 -0.245,-0.173 -0.539,0.062 -0.412,1.46 -1.994,1.643 -0.772,0.09 -1.537,-0.261 -2.054,-0.83 -0.531,-0.591 -0.818,-1.425 -0.907,-2.197 -0.089,-0.762 -0.01,-1.625 0.325,-2.317 0.365,-0.742 1.012,-1.304 1.855,-1.402 0.457,-0.053 0.897,0.063 1.281,0.303 0.386,0.252 0.641,0.614 0.898,0.988 0.073,0.122 0.169,0.229 0.321,0.212 0.258,-0.03 0.215,-0.298 0.183,-0.472 z"
           style="fill:#231f20;fill-opacity:1;fill-rule:nonzero;stroke:none"
           id="path90"
           inkscape:connector-curvature="0" />
        <path
           d="m 318.81,451.179 c -0.814,0.313 -1.152,1.176 -1.245,1.983 -0.083,0.802 0.06,1.632 0.348,2.38 0.432,1.122 1.562,2.746 2.971,2.203 1.628,-0.627 1.405,-3.042 0.901,-4.351 -0.432,-1.123 -1.556,-2.762 -2.975,-2.215 m -0.285,-0.345 c 2.058,-0.793 4.441,-0.017 5.263,2.117 0.864,2.244 -0.6,4.349 -2.69,5.154 -1.045,0.402 -2.101,0.417 -3.133,-0.032 -0.951,-0.404 -1.721,-1.156 -2.094,-2.124 -0.385,-1.001 -0.337,-2.22 0.225,-3.156 0.506,-0.852 1.516,-1.608 2.429,-1.959"
           style="fill:#231f20;fill-opacity:1;fill-rule:nonzero;stroke:none"
           id="path92"
           inkscape:connector-curvature="0" />
        <path
           d="m 329.403,451.981 c 0.409,0.592 0.641,0.804 0.094,1.339 -0.103,0.1 -0.29,0.244 -0.176,0.409 0.107,0.155 0.224,0.117 0.36,0.023 0.504,-0.349 0.963,-0.722 1.467,-1.071 0.465,-0.322 0.958,-0.605 1.413,-0.92 0.136,-0.094 0.223,-0.196 0.115,-0.352 -0.107,-0.155 -0.275,-0.067 -0.405,-0.006 -0.733,0.349 -0.819,0.122 -1.268,-0.528 l -2.386,-3.452 c -0.356,-0.514 -0.54,-0.946 0.159,-1.429 1.406,-0.972 2.243,0.198 2.631,-0.07 0.155,-0.107 0.124,-0.215 0.03,-0.351 -0.261,-0.378 -0.662,-0.688 -0.959,-1.056 -0.207,-0.258 -0.267,-0.117 -0.5,0.044 -0.737,0.51 -1.447,1.058 -2.184,1.567 -0.757,0.523 -1.56,1.021 -2.316,1.543 -0.136,0.094 -0.219,0.181 -0.119,0.326 0.108,0.155 0.3,0.123 0.43,0.062 0.714,-0.336 0.792,-0.161 1.227,0.47 z"
           style="fill:#231f20;fill-opacity:1;fill-rule:nonzero;stroke:none"
           id="path94"
           inkscape:connector-curvature="0" />
        <path
           d="m 337.608,445.479 c 0.524,0.492 0.795,0.651 0.373,1.289 -0.08,0.12 -0.233,0.3 -0.087,0.437 0.138,0.129 0.244,0.067 0.357,-0.053 0.42,-0.447 0.79,-0.908 1.21,-1.355 0.387,-0.412 0.809,-0.792 1.188,-1.196 0.114,-0.12 0.177,-0.239 0.039,-0.368 -0.137,-0.129 -0.284,-0.008 -0.398,0.079 -0.643,0.495 -0.775,0.291 -1.35,-0.25 l -3.058,-2.875 c -0.455,-0.428 -0.726,-0.811 -0.145,-1.43 1.171,-1.246 2.235,-0.278 2.558,-0.621 0.129,-0.138 0.077,-0.236 -0.044,-0.349 -0.335,-0.315 -0.792,-0.534 -1.16,-0.832 -0.256,-0.208 -0.285,-0.057 -0.479,0.149 -0.614,0.653 -1.193,1.338 -1.807,1.991 -0.629,0.67 -1.31,1.324 -1.94,1.995 -0.113,0.12 -0.176,0.222 -0.047,0.343 0.137,0.129 0.318,0.057 0.432,-0.03 0.628,-0.478 0.741,-0.324 1.299,0.202 z"
           style="fill:#231f20;fill-opacity:1;fill-rule:nonzero;stroke:none"
           id="path96"
           inkscape:connector-curvature="0" />
        <path
           d="m 344.4,435.155 c -0.304,-0.181 -0.488,-0.263 -0.277,-0.618 0.126,-0.213 0.392,-0.659 0.547,-0.827 0.219,-0.253 0.514,-0.243 0.826,-0.167 0.156,0.038 0.401,0.088 0.509,-0.095 0.097,-0.162 -10e-4,-0.275 -0.143,-0.359 -0.295,-0.148 -0.599,-0.329 -0.895,-0.478 -0.284,-0.169 -0.576,-0.37 -0.847,-0.559 -0.132,-0.078 -0.308,-0.128 -0.411,0.044 -0.289,0.487 0.895,0.71 0.256,1.784 l -0.28,0.424 c -0.219,0.322 -0.349,0.218 -0.622,0.055 l -1.186,-0.705 c -0.253,-0.151 -0.622,-0.384 -0.738,-0.673 -0.121,-0.305 0.007,-0.681 0.17,-0.954 0.422,-0.71 1.061,-1.139 1.893,-1.083 0.177,0.023 0.451,0.048 0.559,-0.134 0.096,-0.162 0.062,-0.265 -0.1,-0.361 -0.092,-0.055 -0.391,-0.15 -0.505,-0.191 l -0.877,-0.37 c -0.127,-0.063 -0.2,-0.078 -0.278,0.053 -0.446,0.75 -0.852,1.524 -1.298,2.274 -0.578,0.972 -1.198,1.921 -1.776,2.894 -0.085,0.142 -0.114,0.261 0.038,0.351 0.162,0.097 0.313,-0.019 0.405,-0.129 0.522,-0.622 0.712,-0.482 1.32,-0.12 l 3.597,2.14 c 0.598,0.356 0.93,0.512 0.646,1.221 -0.058,0.144 -0.122,0.366 -0.041,0.414 0.162,0.097 0.303,0.044 0.388,-0.098 0.361,-0.608 0.67,-1.22 1.032,-1.828 0.627,-1.053 1.294,-2.083 1.927,-3.147 0.133,-0.223 -0.07,-0.275 -0.252,-0.383 l -0.821,-0.488 c -0.152,-0.091 -0.296,-0.218 -0.434,0.015 -0.091,0.152 0.017,0.34 0.086,0.477 0.12,0.236 0.2,0.517 0.25,0.78 0.066,0.327 -0.111,0.647 -0.274,0.921 -0.102,0.172 -0.434,0.729 -0.615,0.827 -0.144,0.079 -0.411,-0.094 -0.532,-0.166 z"
           style="fill:#231f20;fill-opacity:1;fill-rule:nonzero;stroke:none"
           id="path98"
           inkscape:connector-curvature="0" />
        <path
           d="m 347.069,421.783 c 0.271,0.083 0.788,0.205 0.965,0.432 0.185,0.242 0.069,0.539 0.001,0.802 -0.048,0.158 -0.052,0.329 0.14,0.388 0.248,0.076 0.342,-0.191 0.397,-0.371 l 0.81,-2.638 0.183,-0.436 c 0.048,-0.158 0.027,-0.288 -0.142,-0.34 -0.214,-0.066 -0.307,0.115 -0.389,0.263 -0.247,0.442 -0.347,0.485 -0.847,0.307 l -1.008,-0.371 c -0.132,-0.053 -0.271,-0.12 -0.418,-0.165 -0.293,-0.09 -0.741,0.365 -0.908,0.548 -0.449,0.54 -0.779,1.253 -0.983,1.918 -0.308,1.003 -0.428,2.236 -0.105,3.235 0.343,1.092 1.21,1.925 2.303,2.261 2.423,0.743 4.522,-1.116 5.204,-3.336 0.159,-0.519 0.217,-1.031 0.249,-1.576 0.04,-0.653 0.046,-0.553 -0.587,-0.859 -0.159,-0.085 -0.359,-0.196 -0.528,-0.248 -0.17,-0.052 -0.287,0.011 -0.339,0.18 -0.166,0.541 1.206,0.851 0.729,2.406 -0.235,0.767 -0.845,1.307 -1.582,1.537 -0.733,0.219 -1.607,0.136 -2.329,-0.085 -1.499,-0.46 -3.075,-1.672 -2.532,-3.441 0.058,-0.192 0.235,-0.606 0.442,-0.678 0.207,-0.072 0.598,0.06 0.801,0.122 z"
           style="fill:#231f20;fill-opacity:1;fill-rule:nonzero;stroke:none"
           id="path100"
           inkscape:connector-curvature="0" />
        <path
           d="m 351.376,413.039 c -0.353,-0.02 -0.555,-0.008 -0.531,-0.42 0.015,-0.247 0.045,-0.765 0.105,-0.986 0.078,-0.326 0.345,-0.452 0.657,-0.529 0.156,-0.038 0.396,-0.106 0.408,-0.318 0.011,-0.189 -0.127,-0.244 -0.292,-0.253 -0.331,0.004 -0.684,-0.017 -1.015,-0.012 -0.33,-0.02 -0.681,-0.064 -1.009,-0.107 -0.153,-0.009 -0.333,0.028 -0.344,0.228 -0.033,0.565 1.121,0.219 1.048,1.467 l -0.053,0.504 c -0.047,0.387 -0.21,0.354 -0.528,0.336 l -1.377,-0.081 c -0.294,-0.017 -0.729,-0.054 -0.965,-0.257 -0.247,-0.215 -0.307,-0.608 -0.288,-0.926 0.048,-0.824 0.418,-1.499 1.181,-1.832 0.169,-0.061 0.423,-0.165 0.436,-0.376 0.011,-0.189 -0.068,-0.264 -0.256,-0.275 -0.106,-0.006 -0.416,0.046 -0.535,0.063 l -0.949,0.074 c -0.142,0.004 -0.214,0.023 -0.223,0.177 -0.051,0.87 -0.055,1.744 -0.106,2.615 -0.066,1.13 -0.179,2.257 -0.245,3.387 -0.009,0.164 0.019,0.284 0.196,0.295 0.188,0.01 0.269,-0.162 0.301,-0.302 0.176,-0.793 0.41,-0.755 1.116,-0.714 l 4.178,0.244 c 0.694,0.041 1.061,0.027 1.135,0.787 0.015,0.154 0.06,0.381 0.155,0.387 0.188,0.011 0.289,-0.101 0.299,-0.266 0.041,-0.706 0.034,-1.392 0.075,-2.098 0.071,-1.224 0.19,-2.445 0.262,-3.681 0.015,-0.259 -0.188,-0.212 -0.4,-0.224 l -0.953,-0.056 c -0.177,-0.01 -0.363,-0.056 -0.379,0.214 -0.01,0.177 0.172,0.294 0.296,0.384 0.216,0.154 0.416,0.367 0.581,0.577 0.209,0.26 0.199,0.626 0.181,0.943 -0.012,0.2 -0.05,0.848 -0.166,1.018 -0.09,0.137 -0.408,0.106 -0.549,0.098 z"
           style="fill:#231f20;fill-opacity:1;fill-rule:nonzero;stroke:none"
           id="path102"
           inkscape:connector-curvature="0" />
        <path
           d="m 349.649,400.993 c -0.85,0.133 -1.42,0.914 -1.292,1.73 0.131,0.838 0.922,1.395 1.761,1.264 0.804,-0.126 1.414,-0.878 1.279,-1.74 -0.128,-0.815 -0.909,-1.385 -1.748,-1.254"
           style="fill:#231f20;fill-opacity:1;fill-rule:nonzero;stroke:none"
           id="path104"
           inkscape:connector-curvature="0" />
        <path
           d="m 255.838,435.433 c -0.259,0.495 -0.444,1.14 0.006,1.789 0.227,0.33 0.635,0.607 1.054,0.861 0.404,0.252 0.853,0.486 1.034,0.748 0.268,0.387 0.077,0.878 -0.108,1.336 l 0.785,-0.027 c 0.206,-0.573 0.411,-1.188 -0.005,-1.789 -0.249,-0.358 -0.609,-0.568 -1.005,-0.767 -0.389,-0.189 -0.802,-0.434 -1.111,-0.88 -0.295,-0.427 -0.097,-0.907 0.135,-1.298 z"
           style="fill:#231f20;fill-opacity:1;fill-rule:nonzero;stroke:none"
           id="path106"
           inkscape:connector-curvature="0" />
        <path
           d="m 331.914,392.274 -0.326,0.093 c -0.773,0.354 -7.685,2.888 -20.024,-5.42 -3.133,-2.11 -5.527,-4.283 -9.079,-8.409 -2.346,-2.724 -5.941,-4.727 -8.742,-4.869 -1.186,-0.06 -2.401,0.146 -2.798,0.84 -0.107,0.188 -0.217,-0.169 -0.151,0.157 0.102,0.511 0.462,0.93 0.965,1.122 0.093,0.035 0.322,0.06 0.587,0.089 1.159,0.128 3.572,0.392 6.34,2.49 0.603,0.458 0.809,0.684 1.22,1.134 0.497,0.544 1.328,1.455 3.618,3.591 14.578,13.6 26.074,10.83 26.188,10.801 l -0.03,0.01 c 0.027,-0.011 0.055,-0.018 0.215,-0.057 3.701,-0.907 2.353,-1.69 2.017,-1.572"
           style="fill:#231f20;fill-opacity:1;fill-rule:nonzero;stroke:none"
           id="path108"
           inkscape:connector-curvature="0" />
        <path
           d="m 325.817,423.457 0.189,0.146 c -1.002,-1.339 -1.601,-3.317 -8.121,-11.781 -0.627,-0.814 -10.117,-13.112 -9.268,-12.578 4.895,3.075 10.583,8.46 10.583,8.46 -0.429,-1.458 -10.382,-10.323 -11.644,-11.289 -1.662,-1.274 -1.705,-2.93 -1.705,-2.93 l -0.275,-3.79 c -0.166,-1.934 0.777,-2.264 0.777,-2.264 -5.234,-4.456 -4.821,-4.299 -4.821,-4.299 0,0 -0.461,-0.157 -0.637,0.106 -0.283,0.425 -0.188,0.703 0.047,1.165 0.134,0.264 0.071,-0.013 0.425,0.8 0,0 1.072,1.568 0.601,5.482 l -0.283,3.065 c -1.038,4.574 -6.162,2.974 -14.054,12.753 -0.269,0.334 4.299,-4.51 7.721,-6.176 2.513,-1.224 4.14,-1.437 4.14,-1.437 -4.804,7.378 -10.831,12.289 -11.232,12.817 -0.401,0.531 -2.541,0.735 -6.492,4.211 -1,0.879 0.414,-0.111 2.689,-1.608 1.757,-1.157 2.332,-0.818 2.332,-0.818 l -4.702,8.914 0.113,-0.014 c 0,0 0.971,-1.477 5.002,-7.868 1.854,-2.938 -1.656,11.478 -2.945,16.056 0,0 5.032,-14.955 4.289,-17.457 0,0 2.694,-3.231 3.889,-4.561 3.031,-3.374 9.462,-10.167 9.462,-10.167 0,0 -8.966,15.655 -11.235,27.839 -1.306,7.015 -2.029,9.716 -1.944,13.382 0.026,1.119 -0.188,0.808 0.801,-4.689 1.233,-6.862 3.486,-16.614 5.032,-18.301 0.47,-0.513 2.293,6.178 2.599,13.608 0.329,7.996 -0.007,14.615 -0.007,14.615 0,0 1.008,-6.03 0.611,-15.412 -0.199,-4.7 -0.401,-9.241 -2.387,-13.917 -0.187,-0.438 1.35,-4.788 2.215,-6.615 1.545,-3.26 4.633,-8.064 4.633,-8.064 0,0 -0.343,1.201 -0.858,10.638 -0.286,5.251 -0.474,26.003 -0.252,29.565 0.115,1.83 0.767,-14.638 1.796,-34.026 l 0.601,1.201 c 3.517,10.122 1.471,25.229 2.144,34.314 0.172,2.316 0.755,-18.769 0.343,-26.593 -0.077,-1.476 -0.343,-4.29 -1.887,-9.78 -1.092,-3.883 0.13,-7.694 0.13,-7.694 0,0 7.134,16.531 6.561,18.503 -0.573,1.972 -4.246,4.59 -3.768,12.072 0.163,2.555 1.479,4.606 2.149,7.137 0.907,3.428 1.848,6.069 1.848,6.069 0,0 -1.213,-5.242 -2.402,-8.807 -3.203,-9.608 2.631,-15.327 2.631,-15.327 0,0 3.833,16.407 4.057,19.466 0.032,0.44 0.3,0.011 -0.649,-6.867 -1.637,-11.849 -6.196,-25.225 -8.376,-32.034 0,0 10.588,12.308 11.588,14.602 0.705,1.619 -2.661,2.219 2.305,18.937 0.035,0.118 0.136,0.16 0.172,0.279 0,0 -1.154,-4.357 -1.62,-8.021 -0.3,-2.363 -0.493,-3.828 -0.548,-5.788 -0.066,-2.404 0.531,-4.535 0.531,-4.535 z"
           style="fill:#231f20;fill-opacity:1;fill-rule:nonzero;stroke:none"
           id="path110"
           inkscape:connector-curvature="0" />
        <path
           d="m 290.91,410.051 c 0.984,2.132 1.204,4.376 -0.145,6.028 -1.386,-1.91 -1.184,-4.098 0.145,-6.028"
           style="fill:#231f20;fill-opacity:1;fill-rule:nonzero;stroke:none"
           id="path112"
           inkscape:connector-curvature="0" />
        <path
           d="m 281.511,433.832 c 0.343,-1.912 1.268,-3.537 2.988,-4.015 0.041,1.952 -1.148,3.339 -2.988,4.015"
           style="fill:#231f20;fill-opacity:1;fill-rule:nonzero;stroke:none"
           id="path114"
           inkscape:connector-curvature="0" />
        <path
           d="m 316.331,433.186 c -0.251,-2.535 0.359,-4.947 2.422,-6.248 0.765,2.428 -0.275,4.65 -2.422,6.248"
           style="fill:#231f20;fill-opacity:1;fill-rule:nonzero;stroke:none"
           id="path116"
           inkscape:connector-curvature="0" />
        <path
           d="m 310.266,430.721 c 0.042,-2.291 0.841,-4.39 2.823,-5.357 0.429,2.245 -0.735,4.133 -2.823,5.357"
           style="fill:#231f20;fill-opacity:1;fill-rule:nonzero;stroke:none"
           id="path118"
           inkscape:connector-curvature="0" />
        <path
           d="m 300.266,431.221 c -1.646,-1.008 -2.818,-2.446 -2.644,-4.2 1.821,0.669 2.678,2.263 2.644,4.2"
           style="fill:#231f20;fill-opacity:1;fill-rule:nonzero;stroke:none"
           id="path120"
           inkscape:connector-curvature="0" />
        <path
           d="m 314.404,444.905 c -1.849,-0.553 -3.35,-1.643 -3.63,-3.384 1.931,0.182 3.167,1.503 3.63,3.384"
           style="fill:#231f20;fill-opacity:1;fill-rule:nonzero;stroke:none"
           id="path122"
           inkscape:connector-curvature="0" />
        <path
           d="m 299.684,438.9 c -1.429,-1.297 -2.312,-2.928 -1.814,-4.619 1.664,0.997 2.208,2.723 1.814,4.619"
           style="fill:#231f20;fill-opacity:1;fill-rule:nonzero;stroke:none"
           id="path124"
           inkscape:connector-curvature="0" />
        <path
           d="m 312.045,435.775 c 0.035,-1.89 0.694,-3.622 2.329,-4.419 0.354,1.852 -0.606,3.409 -2.329,4.419"
           style="fill:#231f20;fill-opacity:1;fill-rule:nonzero;stroke:none"
           id="path126"
           inkscape:connector-curvature="0" />
        <path
           d="m 315.533,442.509 c -0.934,-1.717 -1.25,-3.566 -0.249,-5.005 1.25,1.512 1.218,3.337 0.249,5.005"
           style="fill:#231f20;fill-opacity:1;fill-rule:nonzero;stroke:none"
           id="path128"
           inkscape:connector-curvature="0" />
        <path
           d="m 306.835,442.472 c 0.042,-2.292 0.841,-4.391 2.823,-5.357 0.429,2.245 -0.735,4.132 -2.823,5.357"
           style="fill:#231f20;fill-opacity:1;fill-rule:nonzero;stroke:none"
           id="path130"
           inkscape:connector-curvature="0" />
        <path
           d="m 302.253,438.539 c 0.254,-2.279 1.242,-4.287 3.301,-5.043 0.218,2.283 -1.112,4.042 -3.301,5.043"
           style="fill:#231f20;fill-opacity:1;fill-rule:nonzero;stroke:none"
           id="path132"
           inkscape:connector-curvature="0" />
        <path
           d="m 304.313,424.696 c -1.561,-1.427 -2.526,-3.213 -1.984,-5.053 1.817,1.102 2.413,2.989 1.984,5.053"
           style="fill:#231f20;fill-opacity:1;fill-rule:nonzero;stroke:none"
           id="path134"
           inkscape:connector-curvature="0" />
        <path
           d="m 285.683,437.921 c 0.483,-2.025 1.6,-3.743 3.549,-4.242 -0.056,2.071 -1.456,3.535 -3.549,4.242"
           style="fill:#231f20;fill-opacity:1;fill-rule:nonzero;stroke:none"
           id="path136"
           inkscape:connector-curvature="0" />
        <path
           d="m 304.064,430.912 c -1.631,-1.348 -2.679,-3.093 -2.214,-4.981 1.874,1.005 2.555,2.873 2.214,4.981"
           style="fill:#231f20;fill-opacity:1;fill-rule:nonzero;stroke:none"
           id="path138"
           inkscape:connector-curvature="0" />
        <path
           d="m 310.631,425.034 c -1.224,-1.01 -2.01,-2.319 -1.661,-3.735 1.406,0.753 1.917,2.154 1.661,3.735"
           style="fill:#231f20;fill-opacity:1;fill-rule:nonzero;stroke:none"
           id="path140"
           inkscape:connector-curvature="0" />
        <path
           d="m 328.785,423.151 c -1.574,0.203 -3.066,-0.116 -3.862,-1.338 1.51,-0.513 2.883,0.071 3.862,1.338"
           style="fill:#231f20;fill-opacity:1;fill-rule:nonzero;stroke:none"
           id="path142"
           inkscape:connector-curvature="0" />
        <path
           d="m 322.609,408.482 c -1.574,0.203 -3.067,-0.117 -3.863,-1.339 1.511,-0.512 2.883,0.072 3.863,1.339"
           style="fill:#231f20;fill-opacity:1;fill-rule:nonzero;stroke:none"
           id="path144"
           inkscape:connector-curvature="0" />
        <path
           d="m 317.282,402.902 c -1.573,0.203 -3.066,-0.116 -3.862,-1.338 1.51,-0.513 2.883,0.071 3.862,1.338"
           style="fill:#231f20;fill-opacity:1;fill-rule:nonzero;stroke:none"
           id="path146"
           inkscape:connector-curvature="0" />
        <path
           d="m 288.828,405.117 c -1.399,0.749 -2.908,0.98 -4.086,0.12 1.23,-1.015 2.721,-0.956 4.086,-0.12"
           style="fill:#231f20;fill-opacity:1;fill-rule:nonzero;stroke:none"
           id="path148"
           inkscape:connector-curvature="0" />
        <path
           d="m 315.824,422.213 c -2.139,-0.981 -3.771,-2.544 -3.825,-4.672 2.299,0.551 3.574,2.344 3.825,4.672"
           style="fill:#231f20;fill-opacity:1;fill-rule:nonzero;stroke:none"
           id="path150"
           inkscape:connector-curvature="0" />
        <path
           d="m 300.436,413.06 c -1.743,-1.56 -2.827,-3.53 -2.238,-5.584 2.026,1.195 2.7,3.282 2.238,5.584"
           style="fill:#231f20;fill-opacity:1;fill-rule:nonzero;stroke:none"
           id="path152"
           inkscape:connector-curvature="0" />
        <path
           d="m 282.2,422.392 c -1.243,1.488 -2.832,2.47 -4.518,2.114 0.94,-1.694 2.632,-2.354 4.518,-2.114"
           style="fill:#231f20;fill-opacity:1;fill-rule:nonzero;stroke:none"
           id="path154"
           inkscape:connector-curvature="0" />
        <path
           d="m 281.728,416.045 c 0,1.65 -0.547,3.168 -1.961,3.881 -0.339,-1.613 0.474,-2.982 1.961,-3.881"
           style="fill:#231f20;fill-opacity:1;fill-rule:nonzero;stroke:none"
           id="path156"
           inkscape:connector-curvature="0" />
        <path
           d="m 285.158,427.493 c -1.082,1.245 -2.491,2.033 -4.026,1.644 0.803,-1.44 2.314,-1.941 4.026,-1.644"
           style="fill:#231f20;fill-opacity:1;fill-rule:nonzero;stroke:none"
           id="path158"
           inkscape:connector-curvature="0" />
        <path
           d="m 326.302,427.731 c -0.89,-1.389 -1.249,-2.962 -0.444,-4.325 1.156,1.175 1.211,2.766 0.444,4.325"
           style="fill:#231f20;fill-opacity:1;fill-rule:nonzero;stroke:none"
           id="path160"
           inkscape:connector-curvature="0" />
        <path
           d="m 315.888,408.539 c -0.89,-1.389 -1.249,-2.963 -0.444,-4.326 1.156,1.175 1.211,2.766 0.444,4.326"
           style="fill:#231f20;fill-opacity:1;fill-rule:nonzero;stroke:none"
           id="path162"
           inkscape:connector-curvature="0" />
        <path
           d="m 293.951,411.564 c -0.891,-1.389 -1.25,-2.962 -0.444,-4.325 1.155,1.175 1.21,2.766 0.444,4.325"
           style="fill:#231f20;fill-opacity:1;fill-rule:nonzero;stroke:none"
           id="path164"
           inkscape:connector-curvature="0" />
        <path
           d="m 311.11,408.06 c -1.532,-0.615 -2.736,-1.688 -2.871,-3.266 1.623,0.287 2.59,1.551 2.871,3.266"
           style="fill:#231f20;fill-opacity:1;fill-rule:nonzero;stroke:none"
           id="path166"
           inkscape:connector-curvature="0" />
        <path
           d="m 292.325,405.748 c -0.364,-1.61 -0.165,-3.211 1.058,-4.218 0.685,1.499 0.194,3.013 -1.058,4.218"
           style="fill:#231f20;fill-opacity:1;fill-rule:nonzero;stroke:none"
           id="path168"
           inkscape:connector-curvature="0" />
        <path
           d="m 289.888,422.583 c -1.433,-1.113 -2.383,-2.612 -2.049,-4.322 1.63,0.794 2.271,2.424 2.049,4.322"
           style="fill:#231f20;fill-opacity:1;fill-rule:nonzero;stroke:none"
           id="path170"
           inkscape:connector-curvature="0" />
        <path
           d="m 318.321,437.8 c -1.591,-0.438 -2.909,-1.369 -3.221,-2.921 1.645,0.102 2.749,1.249 3.221,2.921"
           style="fill:#231f20;fill-opacity:1;fill-rule:nonzero;stroke:none"
           id="path172"
           inkscape:connector-curvature="0" />
        <path
           d="m 322.426,423.433 c -2.158,-0.699 -3.912,-2.059 -4.245,-4.21 2.253,0.241 3.699,1.884 4.245,4.21"
           style="fill:#231f20;fill-opacity:1;fill-rule:nonzero;stroke:none"
           id="path174"
           inkscape:connector-curvature="0" />
        <path
           d="m 297.913,417.729 c -1.559,-1.743 -2.418,-3.82 -1.605,-5.797 1.881,1.412 2.32,3.561 1.605,5.797"
           style="fill:#231f20;fill-opacity:1;fill-rule:nonzero;stroke:none"
           id="path176"
           inkscape:connector-curvature="0" />
        <path
           d="m 294.194,427.165 c -1.545,-1.797 -2.391,-3.907 -1.571,-5.867 1.866,1.473 2.293,3.643 1.571,5.867"
           style="fill:#231f20;fill-opacity:1;fill-rule:nonzero;stroke:none"
           id="path178"
           inkscape:connector-curvature="0" />
        <path
           d="m 293.151,437.815 c -2.003,-1.266 -3.429,-3.037 -3.217,-5.151 2.215,0.863 3.258,2.813 3.217,5.151"
           style="fill:#231f20;fill-opacity:1;fill-rule:nonzero;stroke:none"
           id="path180"
           inkscape:connector-curvature="0" />
        <path
           d="m 297.898,421.731 c 0.257,-2.277 1.249,-4.292 3.313,-5.07 0.216,2.275 -1.119,4.046 -3.313,5.07"
           style="fill:#231f20;fill-opacity:1;fill-rule:nonzero;stroke:none"
           id="path182"
           inkscape:connector-curvature="0" />
        <path
           d="m 326.177,416.714 c -1.97,0.623 -3.953,0.565 -5.245,-0.796 1.82,-0.999 3.708,-0.579 5.245,0.796"
           style="fill:#231f20;fill-opacity:1;fill-rule:nonzero;stroke:none"
           id="path184"
           inkscape:connector-curvature="0" />
        <path
           d="m 321.146,411.144 c -2.043,0.311 -3.993,-0.053 -5.058,-1.598 1.953,-0.705 3.752,0.002 5.058,1.598"
           style="fill:#231f20;fill-opacity:1;fill-rule:nonzero;stroke:none"
           id="path186"
           inkscape:connector-curvature="0" />
        <path
           d="m 323.879,428.177 c -2.54,-0.598 -4.684,-1.914 -5.28,-4.156 2.603,0.11 4.423,1.745 5.28,4.156"
           style="fill:#231f20;fill-opacity:1;fill-rule:nonzero;stroke:none"
           id="path188"
           inkscape:connector-curvature="0" />
        <path
           d="m 324.099,434.954 c -2.064,-0.345 -3.323,-1.001 -3.939,-2.759 2.083,-0.048 3.104,0.879 3.939,2.759"
           style="fill:#231f20;fill-opacity:1;fill-rule:nonzero;stroke:none"
           id="path190"
           inkscape:connector-curvature="0" />
        <path
           d="m 292.432,441.166 c -1.916,-1.077 -3.325,-2.648 -3.237,-4.611 2.091,0.694 3.155,2.448 3.237,4.611"
           style="fill:#231f20;fill-opacity:1;fill-rule:nonzero;stroke:none"
           id="path192"
           inkscape:connector-curvature="0" />
        <path
           d="m 284.341,424.76 c -1.041,-1.907 -1.381,-3.964 -0.236,-5.573 1.398,1.676 1.346,3.708 0.236,5.573"
           style="fill:#231f20;fill-opacity:1;fill-rule:nonzero;stroke:none"
           id="path194"
           inkscape:connector-curvature="0" />
        <path
           d="m 293.977,443.967 c 0.419,-1.956 1.454,-3.632 3.314,-4.159 -0.009,1.988 -1.32,3.428 -3.314,4.159"
           style="fill:#231f20;fill-opacity:1;fill-rule:nonzero;stroke:none"
           id="path196"
           inkscape:connector-curvature="0" />
        <path
           d="m 303.943,447.539 c -0.299,-2.038 0.101,-4.008 1.717,-5.134 0.711,1.935 -0.044,3.766 -1.717,5.134"
           style="fill:#231f20;fill-opacity:1;fill-rule:nonzero;stroke:none"
           id="path198"
           inkscape:connector-curvature="0" />
        <path
           d="m 286.151,443.69 c 0.121,-2.073 0.906,-3.92 2.702,-4.66 0.299,2.063 -0.803,3.693 -2.702,4.66"
           style="fill:#231f20;fill-opacity:1;fill-rule:nonzero;stroke:none"
           id="path200"
           inkscape:connector-curvature="0" />
        <path
           d="m 297.29,443.228 c 1.564,1.419 2.347,2.773 1.814,4.612 -1.819,-1.094 -2.234,-2.55 -1.814,-4.612"
           style="fill:#231f20;fill-opacity:1;fill-rule:nonzero;stroke:none"
           id="path202"
           inkscape:connector-curvature="0" />
        <path
           d="m 301.183,440.831 c 1.375,1.645 2.125,3.565 1.388,5.325 -1.663,-1.357 -2.038,-3.325 -1.388,-5.325"
           style="fill:#231f20;fill-opacity:1;fill-rule:nonzero;stroke:none"
           id="path204"
           inkscape:connector-curvature="0" />
        <path
           d="m 314.403,417.843 c -0.124,-2.492 0.588,-4.827 2.67,-6.012 0.633,2.411 -0.491,4.541 -2.67,6.012"
           style="fill:#231f20;fill-opacity:1;fill-rule:nonzero;stroke:none"
           id="path206"
           inkscape:connector-curvature="0" />
        <path
           d="m 311.96,412.91 c 0.067,-2.061 0.813,-3.94 2.609,-4.787 0.357,2.025 -0.714,3.71 -2.609,4.787"
           style="fill:#231f20;fill-opacity:1;fill-rule:nonzero;stroke:none"
           id="path208"
           inkscape:connector-curvature="0" />
        <path
           d="m 305.202,407.953 c -0.347,-1.718 -0.097,-3.418 1.223,-4.47 0.691,1.606 0.134,3.209 -1.223,4.47"
           style="fill:#231f20;fill-opacity:1;fill-rule:nonzero;stroke:none"
           id="path210"
           inkscape:connector-curvature="0" />
        <path
           d="m 315.851,426.782 c -0.245,-2.051 0.208,-4.011 1.856,-5.083 0.66,1.961 -0.144,3.77 -1.856,5.083"
           style="fill:#231f20;fill-opacity:1;fill-rule:nonzero;stroke:none"
           id="path212"
           inkscape:connector-curvature="0" />
        <path
           d="m 311.53,434.42 c -1.785,-0.575 -3.24,-1.642 -3.527,-3.284 1.861,0.227 3.064,1.504 3.527,3.284"
           style="fill:#231f20;fill-opacity:1;fill-rule:nonzero;stroke:none"
           id="path214"
           inkscape:connector-curvature="0" />
        <path
           d="m 293.204,434.406 c 0.959,-1.602 2.346,-2.804 4.064,-2.789 -0.626,1.735 -2.17,2.659 -4.064,2.789"
           style="fill:#231f20;fill-opacity:1;fill-rule:nonzero;stroke:none"
           id="path216"
           inkscape:connector-curvature="0" />
        <path
           d="m 287.037,411.149 c -0.507,-1.798 -0.429,-3.63 0.76,-4.87 0.833,1.646 0.445,3.403 -0.76,4.87"
           style="fill:#231f20;fill-opacity:1;fill-rule:nonzero;stroke:none"
           id="path218"
           inkscape:connector-curvature="0" />
        <path
           d="m 286.945,427.243 c 0.977,-1.592 2.377,-2.778 4.095,-2.744 -0.645,1.728 -2.2,2.635 -4.095,2.744"
           style="fill:#231f20;fill-opacity:1;fill-rule:nonzero;stroke:none"
           id="path220"
           inkscape:connector-curvature="0" />
        <path
           d="m 291.4,425.968 c 1.459,1.717 2.257,3.729 1.477,5.586 -1.765,-1.411 -2.165,-3.477 -1.477,-5.586"
           style="fill:#231f20;fill-opacity:1;fill-rule:nonzero;stroke:none"
           id="path222"
           inkscape:connector-curvature="0" />
        <path
           d="m 306.928,418.492 c -0.275,-2.761 0.387,-5.388 2.633,-6.807 0.834,2.644 -0.296,5.064 -2.633,6.807"
           style="fill:#231f20;fill-opacity:1;fill-rule:nonzero;stroke:none"
           id="path224"
           inkscape:connector-curvature="0" />
      </g>
    </g>
  </g>
</svg>
