<?xml version="1.0" encoding="UTF-8"?>
<svg xmlns="http://www.w3.org/2000/svg" xmlns:xlink="http://www.w3.org/1999/xlink" width="375.31pt" height="65.35pt" viewBox="0 0 375.31 65.35" version="1.1">
<defs>
<clipPath id="clip1">
  <path d="M 0 0 L 70 0 L 70 65.351563 L 0 65.351563 Z M 0 0 "/>
</clipPath>
<clipPath id="clip2">
  <path d="M 352 28 L 375.308594 28 L 375.308594 52 L 352 52 Z M 352 28 "/>
</clipPath>
</defs>
<g id="surface1">
<path style=" stroke:none;fill-rule:nonzero;fill:rgb(100%,100%,100%);fill-opacity:1;" d="M 5.234375 0.378906 L 59.933594 0.378906 L 64.792969 5.238281 L 64.792969 60.117188 L 59.933594 64.976563 L 5.414063 64.976563 L 0.375 59.9375 L 0.375 5.238281 L 5.234375 0.378906 "/>
<g clip-path="url(#clip1)" clip-rule="nonzero">
<path style="fill:none;stroke-width:7.5;stroke-linecap:butt;stroke-linejoin:miter;stroke:rgb(13.699341%,12.199402%,12.5%);stroke-opacity:1;stroke-miterlimit:4;" d="M 52.34375 649.710938 L 599.335938 649.710938 L 647.929688 601.117188 L 647.929688 52.328125 L 599.335938 3.734375 L 54.140625 3.734375 L 3.75 54.125 L 3.75 601.117188 Z M 52.34375 649.710938 " transform="matrix(0.1,0,0,-0.1,0,65.35)"/>
</g>
<path style=" stroke:none;fill-rule:nonzero;fill:rgb(66.273499%,1.960754%,19.999695%);fill-opacity:1;" d="M 6.855469 3.800781 L 58.3125 3.800781 L 61.371094 6.859375 L 61.371094 58.496094 L 58.3125 61.554688 L 6.855469 61.554688 L 3.796875 58.496094 L 3.796875 6.859375 L 6.855469 3.800781 "/>
<path style=" stroke:none;fill-rule:nonzero;fill:rgb(100%,100%,100%);fill-opacity:1;" d="M 8.09375 45.175781 L 57.074219 45.175781 L 57.074219 48.441406 L 8.09375 48.441406 L 8.09375 45.175781 "/>
<path style=" stroke:none;fill-rule:nonzero;fill:rgb(100%,100%,100%);fill-opacity:1;" d="M 8.101563 41.949219 L 57.074219 41.949219 L 57.074219 39.066406 L 27.914063 10.078125 L 8.09375 25.578125 L 8.09375 29.527344 L 27.734375 14.398438 L 52.023438 38.707031 L 8.101563 38.707031 L 8.101563 41.949219 "/>
<path style=" stroke:none;fill-rule:nonzero;fill:rgb(100%,100%,100%);fill-opacity:1;" d="M 36.375 15.160156 L 38.535156 17.300781 L 42.28125 14.238281 L 57.0625 28.988281 L 57.0625 24.847656 L 42.507813 10.257813 L 36.375 15.160156 "/>
<path style=" stroke:none;fill-rule:nonzero;fill:rgb(13.699341%,12.199402%,12.5%);fill-opacity:1;" d="M 105.070313 25.316406 C 102.429688 23.640625 99.355469 22.589844 96.1875 22.589844 C 89.566406 22.589844 84.957031 27.421875 84.957031 34.359375 C 84.957031 41.394531 89.757813 47.664063 97.148438 47.664063 C 100.75 47.664063 104.347656 46.371094 107.371094 44.648438 L 107.515625 44.648438 L 105.070313 50.210938 C 102.8125 51.265625 100.316406 51.652344 97.820313 51.652344 C 86.492188 51.652344 79.46875 45.316406 79.46875 35.078125 C 79.46875 25.171875 86.492188 18.601563 96.332031 18.601563 C 99.261719 18.601563 102.238281 19.128906 105.070313 19.800781 L 105.070313 25.316406 "/>
<path style=" stroke:none;fill-rule:nonzero;fill:rgb(13.699341%,12.199402%,12.5%);fill-opacity:1;" d="M 110.851563 19.378906 C 111.957031 19.378906 113.109375 19.378906 113.78125 18.601563 L 113.925781 18.601563 L 113.925781 31.257813 C 115.363281 29.1875 118.621094 28.226563 120.96875 28.226563 C 127.589844 28.226563 129.175781 32.21875 129.175781 36.871094 L 129.175781 45.609375 C 129.175781 47.816406 128.886719 49.59375 130.996094 50.792969 L 130.996094 50.9375 L 123.03125 50.9375 L 123.03125 50.792969 C 125.140625 49.59375 124.804688 47.816406 124.804688 45.609375 L 124.804688 38.3125 C 124.804688 34.425781 123.558594 31.402344 119.4375 31.402344 C 115.21875 31.402344 113.925781 33.753906 113.925781 38.023438 L 113.925781 45.609375 C 113.925781 47.816406 113.636719 49.59375 115.746094 50.792969 L 115.746094 50.9375 L 107.730469 50.9375 L 107.730469 50.792969 C 109.84375 49.59375 109.554688 47.816406 109.554688 45.609375 L 109.554688 24.671875 C 109.554688 22.464844 109.84375 20.691406 107.730469 19.488281 L 107.730469 19.34375 L 110.851563 19.378906 "/>
<path style=" stroke:none;fill-rule:nonzero;fill:rgb(13.699341%,12.199402%,12.5%);fill-opacity:1;" d="M 151.765625 51.527344 C 148.597656 51.332031 145.429688 50.371094 145.429688 46.53125 L 145.429688 38.964844 C 144.035156 39.683594 142.402344 40.066406 140.820313 40.449219 C 138.515625 40.976563 135.921875 41.503906 135.921875 44.425781 C 135.921875 47.390625 138.609375 48.351563 141.15625 48.351563 C 142.308594 48.351563 143.460938 48.015625 144.613281 47.679688 L 141.78125 51.285156 C 140.964844 51.429688 140.097656 51.527344 139.28125 51.527344 C 134.429688 51.527344 131.058594 48.445313 131.058594 44.472656 C 131.058594 35.566406 145.429688 39.683594 145.429688 34.464844 C 145.429688 32.167969 142.597656 31.402344 140.820313 31.402344 C 138.371094 31.402344 136.449219 32.3125 134.28125 33.316406 L 137.503906 28.515625 L 140.628906 28.226563 C 145.8125 28.226563 149.75 29.71875 149.796875 35.519531 L 149.796875 42.699219 C 149.796875 46.484375 149.894531 47.917969 153.878906 48.351563 L 151.765625 51.527344 "/>
<path style=" stroke:none;fill-rule:nonzero;fill:rgb(13.699341%,12.199402%,12.5%);fill-opacity:1;" d="M 158.980469 43.976563 C 158.980469 46.328125 158.691406 49.546875 161.042969 50.792969 L 161.042969 50.9375 L 152.789063 50.9375 L 152.789063 50.792969 C 154.898438 49.59375 154.613281 47.816406 154.613281 45.660156 L 154.613281 32.027344 L 152.210938 32.027344 L 154.613281 28.851563 L 154.613281 27.691406 C 154.613281 24.988281 154.515625 23.492188 156.386719 21.367188 C 158.597656 18.863281 161.765625 18.289063 164.933594 18.289063 L 168.195313 18.578125 L 164.835938 22.285156 C 164.019531 21.753906 163.347656 21.464844 162.386719 21.464844 C 159.554688 21.464844 158.980469 22.816406 158.980469 25.664063 L 158.980469 28.851563 L 164.546875 28.851563 L 165.363281 28.558594 L 165.507813 28.558594 L 165.507813 32.792969 L 165.363281 32.792969 C 164.980469 32.167969 164.355469 32.027344 163.589844 32.027344 L 158.980469 32.027344 L 158.980469 43.976563 "/>
<path style=" stroke:none;fill-rule:nonzero;fill:rgb(13.699341%,12.199402%,12.5%);fill-opacity:1;" d="M 171.601563 43.976563 C 171.601563 46.328125 171.316406 49.546875 173.667969 50.792969 L 173.667969 50.9375 L 165.410156 50.9375 L 165.410156 50.792969 C 167.523438 49.59375 167.234375 47.816406 167.234375 45.660156 L 167.234375 32.027344 L 164.835938 32.027344 L 167.234375 28.851563 L 167.234375 27.691406 C 167.234375 24.988281 167.140625 23.492188 169.011719 21.367188 C 171.21875 18.863281 174.386719 18.289063 177.554688 18.289063 L 180.820313 18.578125 L 177.460938 22.285156 C 176.644531 21.753906 175.972656 21.464844 175.011719 21.464844 C 172.179688 21.464844 171.601563 22.816406 171.601563 25.664063 L 171.601563 28.851563 L 177.171875 28.851563 L 177.988281 28.558594 L 178.132813 28.558594 L 178.132813 32.792969 L 177.988281 32.792969 C 177.601563 32.167969 176.980469 32.027344 176.210938 32.027344 L 171.601563 32.027344 L 171.601563 43.976563 "/>
<path style=" stroke:none;fill-rule:nonzero;fill:rgb(13.699341%,12.199402%,12.5%);fill-opacity:1;" d="M 198.664063 39.089844 C 198.855469 32.917969 194.394531 28.226563 187.863281 28.226563 C 180.714844 28.226563 175.859375 33.0625 175.859375 39.710938 C 175.859375 46.382813 181.480469 51.527344 189.640625 51.527344 C 191.898438 51.527344 194.203125 51.1875 196.265625 50.324219 L 198.664063 45.808594 L 198.519531 45.808594 C 196.3125 47.535156 193.527344 48.351563 190.648438 48.351563 C 185.226563 48.351563 181.144531 44.941406 181.050781 39.089844 Z M 181.242188 36.289063 C 181.816406 33.296875 184.21875 31.402344 187.433594 31.402344 C 190.890625 31.402344 193.097656 32.96875 193.625 36.289063 L 181.242188 36.289063 "/>
<path style=" stroke:none;fill-rule:nonzero;fill:rgb(13.699341%,12.199402%,12.5%);fill-opacity:1;" d="M 216.328125 34.433594 C 217.050781 32.5625 218.152344 30.019531 215.851563 28.964844 L 215.851563 28.820313 L 222.570313 28.820313 L 212.585938 52.628906 C 209.992188 58.820313 206.632813 60.652344 202.121094 60.652344 C 200.058594 60.652344 198.28125 60.167969 196.410156 59.449219 L 200.730469 56.324219 C 201.546875 56.851563 202.410156 57.476563 203.417969 57.476563 C 206.777344 57.476563 208.21875 53.875 209.226563 51.234375 L 209.515625 50.46875 L 209.320313 50.226563 C 207.738281 48.644531 207.738281 48.402344 206.824219 46.386719 L 200.96875 33.617188 C 200.011719 31.507813 199.433594 29.828125 197.128906 28.964844 L 197.128906 28.820313 L 201.210938 28.820313 C 202.984375 28.820313 203.898438 29.539063 204.425781 30.738281 L 211.480469 46.628906 L 216.328125 34.433594 "/>
<path style=" stroke:none;fill-rule:nonzero;fill:rgb(13.699341%,12.199402%,12.5%);fill-opacity:1;" d="M 259.769531 25.316406 C 257.128906 23.640625 254.058594 22.589844 250.890625 22.589844 C 244.265625 22.589844 239.65625 27.421875 239.65625 34.359375 C 239.65625 41.394531 244.457031 47.664063 251.847656 47.664063 C 255.449219 47.664063 259.046875 46.371094 262.070313 44.648438 L 262.214844 44.648438 L 259.769531 50.210938 C 257.511719 51.265625 255.015625 51.652344 252.519531 51.652344 C 241.191406 51.652344 234.167969 45.316406 234.167969 35.078125 C 234.167969 25.171875 241.191406 18.601563 251.03125 18.601563 C 253.960938 18.601563 256.9375 19.128906 259.769531 19.800781 L 259.769531 25.316406 "/>
<path style=" stroke:none;fill-rule:nonzero;fill:rgb(13.699341%,12.199402%,12.5%);fill-opacity:1;" d="M 274.308594 51.527344 C 281.09375 51.527344 286.871094 46.53125 286.871094 39.636719 C 286.871094 36.382813 285.378906 33.222656 282.921875 31.066406 C 280.609375 29.042969 277.964844 28.226563 274.886719 28.226563 C 267.957031 28.226563 262.132813 32.886719 262.132813 40.066406 C 262.132813 46.867188 267.71875 51.527344 274.308594 51.527344 Z M 274.550781 48.351563 C 269.640625 48.351563 266.996094 43.609375 266.996094 39.207031 C 266.996094 34.898438 269.882813 31.402344 274.355469 31.402344 C 279.503906 31.402344 282.007813 35.996094 282.007813 40.640625 C 282.007813 44.949219 278.976563 48.351563 274.550781 48.351563 "/>
<path style=" stroke:none;fill-rule:nonzero;fill:rgb(13.699341%,12.199402%,12.5%);fill-opacity:1;" d="M 290.492188 19.378906 C 291.59375 19.378906 292.84375 19.429688 293.5625 18.601563 L 293.707031 18.601563 L 293.707031 45.578125 C 293.707031 47.785156 293.371094 49.5625 295.484375 50.761719 L 295.484375 50.90625 L 287.5625 50.90625 L 287.5625 50.761719 C 289.628906 49.5625 289.339844 47.785156 289.339844 45.578125 L 289.339844 24.652344 C 289.339844 22.441406 289.628906 20.667969 287.5625 19.464844 L 287.5625 19.324219 L 290.492188 19.378906 "/>
<path style=" stroke:none;fill-rule:nonzero;fill:rgb(13.699341%,12.199402%,12.5%);fill-opacity:1;" d="M 301.050781 19.378906 C 302.152344 19.378906 303.402344 19.429688 304.121094 18.601563 L 304.265625 18.601563 L 304.265625 45.578125 C 304.265625 47.785156 303.929688 49.5625 306.042969 50.761719 L 306.042969 50.90625 L 298.121094 50.90625 L 298.121094 50.761719 C 300.1875 49.5625 299.898438 47.785156 299.898438 45.578125 L 299.898438 24.652344 C 299.898438 22.441406 300.1875 20.667969 298.121094 19.464844 L 298.121094 19.324219 L 301.050781 19.378906 "/>
<path style=" stroke:none;fill-rule:nonzero;fill:rgb(13.699341%,12.199402%,12.5%);fill-opacity:1;" d="M 329.222656 39.089844 C 329.414063 32.917969 324.949219 28.226563 318.421875 28.226563 C 311.269531 28.226563 306.414063 33.0625 306.414063 39.710938 C 306.414063 46.382813 312.039063 51.527344 320.199219 51.527344 C 322.453125 51.527344 324.757813 51.1875 326.820313 50.324219 L 329.222656 45.808594 L 329.078125 45.808594 C 326.871094 47.535156 324.085938 48.351563 321.207031 48.351563 C 315.78125 48.351563 311.703125 44.941406 311.605469 39.089844 Z M 311.796875 36.289063 C 312.375 33.296875 314.773438 31.402344 317.988281 31.402344 C 321.445313 31.402344 323.652344 32.96875 324.183594 36.289063 L 311.796875 36.289063 "/>
<path style=" stroke:none;fill-rule:nonzero;fill:rgb(13.699341%,12.199402%,12.5%);fill-opacity:1;" d="M 340.390625 28.226563 C 335.449219 28.226563 330.058594 30.824219 330.058594 36.375 C 330.058594 39.964844 332.945313 43.082031 336.40625 43.753906 C 335.398438 44.238281 332.609375 44.910156 332.609375 46.304688 C 332.609375 48.035156 334.007813 49.761719 336.121094 49.714844 L 339.429688 49.621094 C 342.355469 49.621094 349.226563 49.859375 349.226563 54.089844 C 349.226563 58.125 343.890625 59.039063 340.722656 59.039063 C 337.605469 59.039063 332.804688 58.316406 332.804688 54.28125 C 332.804688 53.03125 333.429688 52.359375 334.632813 52.117188 C 333.71875 51.6875 332.898438 51.492188 331.886719 51.492188 C 329.433594 51.492188 327.273438 52.695313 327.273438 55.386719 C 327.273438 59.472656 333.523438 62.214844 340.578125 62.214844 C 348.070313 62.214844 354.078125 59.183594 354.078125 53.753906 C 354.078125 48.996094 349.660156 46.738281 341.347656 46.738281 C 340.722656 46.738281 338.46875 46.878906 338.46875 45.824219 C 338.46875 45.007813 339.765625 44.574219 340.4375 44.527344 C 344.800781 44.140625 350.671875 42.457031 350.671875 37.046875 C 350.671875 34.605469 349.273438 32.550781 347.253906 31.257813 C 348.890625 31.496094 350.527344 31.878906 352.207031 31.878906 C 353.265625 31.878906 353.359375 31.59375 353.742188 30.726563 L 354.847656 28.226563 Z M 334.921875 35.609375 C 334.921875 32.835938 337.175781 31.402344 339.8125 31.402344 C 343.21875 31.402344 345.808594 33.648438 345.808594 36.710938 C 345.808594 39.484375 343.695313 41.351563 340.820313 41.351563 C 337.703125 41.351563 334.921875 38.71875 334.921875 35.609375 "/>
<g clip-path="url(#clip2)" clip-rule="nonzero">
<path style=" stroke:none;fill-rule:nonzero;fill:rgb(13.699341%,12.199402%,12.5%);fill-opacity:1;" d="M 375.300781 39.089844 C 375.492188 32.917969 371.027344 28.226563 364.5 28.226563 C 357.347656 28.226563 352.492188 33.0625 352.492188 39.710938 C 352.492188 46.382813 358.117188 51.527344 366.277344 51.527344 C 368.53125 51.527344 370.835938 51.1875 372.898438 50.324219 L 375.300781 45.808594 L 375.15625 45.808594 C 372.949219 47.535156 370.164063 48.351563 367.285156 48.351563 C 361.859375 48.351563 357.78125 44.941406 357.683594 39.089844 Z M 357.878906 36.289063 C 358.453125 33.296875 360.851563 31.402344 364.070313 31.402344 C 367.523438 31.402344 369.730469 32.96875 370.261719 36.289063 L 357.878906 36.289063 "/>
</g>
</g>
</svg>
