<svg id="Layer_1" data-name="Layer 1" xmlns="http://www.w3.org/2000/svg" viewBox="0 0 800.96 666.91"><defs><style>.cls-1,.cls-3{fill:#fff;}.cls-1{stroke:#231f20;stroke-width:10px;}.cls-2{fill:#231f20;}.cls-4{fill:none;stroke:#fff;stroke-width:0.5px;}</style></defs><rect class="cls-1" x="5" y="5" width="790.96" height="656.91"/><polygon class="cls-2" points="776.6 642.62 775.76 24.93 23.27 24.93 23.27 642.62 776.6 642.62"/><path class="cls-3" d="M211.17,177.53c-4.63-4.48-8.45-7-15.17-7-16.94,0-21.1,18.68-21.1,32,0,14,4.16,31.94,20.45,31.94,7.37,0,12-2.87,17.27-7.67l-1.92,33.71a46.32,46.32,0,0,1-19.65,4.32c-26.69,0-49.38-20.3-49.38-61.5,0-54,37.08-63.12,52.89-63.12A45,45,0,0,1,211.17,143Z" transform="translate(-23 -21.5)"/><path class="cls-3" d="M322.57,262.68V142.22h32.58V262.68Z" transform="translate(-23 -21.5)"/><path class="cls-3" d="M478.37,262.68V171.62H460.48v-29.4h69.18v29.4H511v91.06Z" transform="translate(-23 -21.5)"/><path class="cls-3" d="M656.21,262.68V211.55l-29.72-69.33h33.87l11.18,37.23h.33l11.34-37.23h33.71L688.8,211.55v51.13Z" transform="translate(-23 -21.5)"/><path class="cls-3" d="M198.26,380.38c-3.83-3.72-7-5.84-12.58-5.84-14,0-17.49,15.51-17.49,26.5,0,11.65,3.46,26.49,17,26.49,6.09,0,9.93-2.38,14.32-6.35l-1.6,27.93a38.19,38.19,0,0,1-16.29,3.58c-22.12,0-40.93-16.82-40.93-51,0-44.76,30.73-52.31,43.85-52.31a37.24,37.24,0,0,1,13.76,2.39Z" transform="translate(-23 -21.5)"/><path class="cls-3" d="M265.35,349.38c27.43,0,38.15,27.28,38.15,51.66s-10.72,51.65-38.15,51.65S227.2,425.41,227.2,401,237.94,349.38,265.35,349.38Zm0,78.15c10.21,0,10.61-20.26,10.61-26.49s-.4-26.5-10.61-26.5-10.59,20.27-10.59,26.5S255.15,427.53,265.35,427.53Z" transform="translate(-23 -21.5)"/><path class="cls-3" d="M332.43,451V351.11h27v76.27h20.26V451Z" transform="translate(-23 -21.5)"/><path class="cls-3" d="M406.69,451V351.11h27v76.27H454V451Z" transform="translate(-23 -21.5)"/><path class="cls-3" d="M480.93,351.11h50.19v23.58H508v13.9h20.79v23.58H508v15.21h23.17V451H480.93Z" transform="translate(-23 -21.5)"/><path class="cls-3" d="M634.89,393.23l.13,4.23c0,24.63-4.77,55.23-36,55.23-29.4,0-38.94-25.83-38.94-51.13,0-24.75,9.41-52.18,38.68-52.18,16.16,0,28.21,10.21,34,24.64l-26.08,9.66c-.27-4-2.92-10.19-7.69-10.19-12.46,0-11.38,22.91-11.38,30.47.39,7.15-.13,24.63,10.32,24.63,7.16,0,9.4-8.47,9.27-14.3h-9.93V393.23Z" transform="translate(-23 -21.5)"/><path class="cls-3" d="M662.88,351.11h50.2v23.58H689.9v13.9h20.8v23.58H689.9v15.21h23.18V451h-50.2Z" transform="translate(-23 -21.5)"/><path class="cls-3" d="M179.33,545.29c0,11.85-.19,33.73-17.09,33.73s-17.08-21.88-17.08-33.73.17-33.72,17.08-33.72S179.33,533.44,179.33,545.29Zm-24.94,0c0,14,1,25.55,7.85,25.55s7.84-11.59,7.84-25.55-1-25.54-7.84-25.54S154.39,531.36,154.39,545.29Z" transform="translate(-23 -21.5)"/><path class="cls-3" d="M215.84,512.43V520H200.93v20.67h13.43v7.58H200.93v29.9h-8.72V512.43Z" transform="translate(-23 -21.5)"/><path class="cls-3" d="M271.16,522.54a12,12,0,0,0-7.42-2.79c-4.79,0-7.75,3.92-7.75,8.46a10.51,10.51,0,0,0,2.45,7.14l6.61,7.24c5.94,6,9.33,10.37,9.33,19.27,0,9.24-5.75,17.16-15.43,17.16a15.28,15.28,0,0,1-9.59-3.12v-8.82c2.62,1.93,5.23,3.41,8.63,3.41,5.41,0,7.68-4.27,7.68-9.16,0-13.07-18.4-15.69-18.4-33,0-9.24,4.88-16.81,14.73-16.81a17.76,17.76,0,0,1,9.25,2.17Z" transform="translate(-23 -21.5)"/><path class="cls-3" d="M301.91,512.43,316,578.16h-8.82l-2.42-12.82H291.72l-2.44,12.82h-8.55L295,512.43Zm-.17,36.6-3.31-23.87h-.18L293,558.54h10.45Z" transform="translate(-23 -21.5)"/><path class="cls-3" d="M333.11,532l1.31,22v24.15H325.7V512.43h8.37l15.33,50,.19-.17-2.1-26.32V512.43h8.72v65.73h-8.1l-15.35-50.64-.17.17Z" transform="translate(-23 -21.5)"/><path class="cls-3" d="M413.51,512.43V520H398.62v20.67H412v7.58H398.62v29.9H389.9V512.43Z" transform="translate(-23 -21.5)"/><path class="cls-3" d="M423.62,512.43h10.45c6.36,0,16.3.34,16.3,16.83,0,6.18-1.83,15.6-9.06,16.91l12.13,32h-9.08L432.51,546h-.18v32.16h-8.71Zm17.52,18.74c0-6.27-.78-11.5-7.41-11.33h-1.4v21.7C438.88,542,441.14,537.8,441.14,531.17Z" transform="translate(-23 -21.5)"/><path class="cls-3" d="M480,512.43l14.12,65.73h-8.79l-2.45-12.82H469.81l-2.45,12.82h-8.54l14.29-65.73Zm-.17,36.6-3.31-23.87h-.18l-5.23,33.38h10.46Z" transform="translate(-23 -21.5)"/><path class="cls-3" d="M511.21,532l1.29,22v24.15h-8.71V512.43h8.37l15.34,50,.17-.17-2.08-26.32V512.43h8.71v65.73h-8.11l-15.34-50.64-.18.17Z" transform="translate(-23 -21.5)"/><path class="cls-3" d="M574.3,521.42a12.42,12.42,0,0,0-5.58-1.67c-12.19,0-12.28,17.79-12.28,26,0,8.71.69,25.11,12.64,25.11a10.67,10.67,0,0,0,5.22-1.31v7.66a12.23,12.23,0,0,1-7,1.83c-17.79,0-20.13-18.91-20.13-32.68,0-13.17,1.65-34.77,19.51-34.77a13.45,13.45,0,0,1,7.58,1.91Z" transform="translate(-23 -21.5)"/><path class="cls-3" d="M593.66,578.16h-8.72V512.43h8.72Z" transform="translate(-23 -21.5)"/><path class="cls-3" d="M628.44,522.54a12,12,0,0,0-7.41-2.79c-4.79,0-7.77,3.92-7.77,8.46a10.61,10.61,0,0,0,2.45,7.14l6.63,7.24c5.93,6,9.32,10.37,9.32,19.27,0,9.24-5.75,17.16-15.42,17.16a15.28,15.28,0,0,1-9.59-3.12v-8.82c2.62,1.93,5.23,3.41,8.62,3.41,5.41,0,7.68-4.27,7.68-9.16,0-13.07-18.4-15.69-18.4-33,0-9.24,4.89-16.81,14.74-16.81a17.71,17.71,0,0,1,9.23,2.17Z" transform="translate(-23 -21.5)"/><path class="cls-3" d="M668.44,521.42a12.57,12.57,0,0,0-5.58-1.67c-12.21,0-12.3,17.79-12.3,26,0,8.71.7,25.11,12.64,25.11a10.81,10.81,0,0,0,5.24-1.31v7.66a12.32,12.32,0,0,1-7,1.83c-17.77,0-20.14-18.91-20.14-32.68,0-13.17,1.66-34.77,19.53-34.77a13.57,13.57,0,0,1,7.59,1.91Z" transform="translate(-23 -21.5)"/><path class="cls-3" d="M711.58,545.29c0,11.85-.17,33.73-17.08,33.73s-17.09-21.88-17.09-33.73.17-33.72,17.09-33.72S711.58,533.44,711.58,545.29Zm-24.93,0c0,14,1,25.55,7.85,25.55s7.83-11.59,7.83-25.55-1-25.54-7.83-25.54S686.65,531.36,686.65,545.29Z" transform="translate(-23 -21.5)"/><line class="cls-4" x1="122.81" y1="281.61" x2="692.49" y2="281.61"/></svg>