<?xml version="1.0" encoding="UTF-8" standalone="no"?>
<svg height="394.34164" viewBox="0 0 244 394.34164" width="244" xmlns="http://www.w3.org/2000/svg" xmlns:xlink="http://www.w3.org/1999/xlink">
   <linearGradient id="a" gradientUnits="userSpaceOnUse" x1="144" x2="144" y1="276.3689" y2="102.6148">
      <stop offset="0" stop-color="#3cb4e5"/>
      <stop offset=".2901" stop-color="#40b5e6"/>
      <stop offset=".5786" stop-color="#4bb9e6"/>
      <stop offset=".8656" stop-color="#5fc0e8"/>
      <stop offset="1" stop-color="#6bc4e8"/>
   </linearGradient>
   <polygon fill="#003764" points="274.2 81.6 13.1 81.6 13 326.5 144.7 428 274.2 327.6" transform="matrix(.91845092 0 0 .91845092 -9.939862 -.75535276)"/>
   <polygon fill="url(#a)" points="250.8 164.3 208.7 194.3 208.7 144.9 74.8 144.9 74.9 300.3 145.6 353.2 208.7 304.6 208.7 285 250.8 255.1 250.8 315.4 145.1 400.7 37.2 315.4 37.2 106.1 250.8 106.1 250.8 147.1" transform="matrix(.91845092 0 0 .91845092 -9.939862 -.75535276)"/>
   <g fill="#003764" transform="matrix(.91845092 0 0 .91845092 -9.939862 -.75535276)">
      <path d="m51.4 25.5c-2 8.3-9.2 13.8-17.7 13.8-11 0-18.4-8.7-18.4-18.2 0-8.9 6.9-18.1 18.4-18.1 11 0 16.8 8.5 17.8 13.9h-9.4c-1-2.6-3.6-6.1-8.5-6.1-6 0-9.4 5.2-9.4 10.2 0 5.3 3.6 10.4 9.4 10.4 5.6 0 7.8-4.7 8.4-5.9z"/>
      <path d="m54.6 21.5c0-11.4 8.8-18.5 18.4-18.5 10.8 0 18.5 8.4 18.5 18.2 0 9.7-7.7 18.2-18.5 18.2-11.1-.1-18.4-8.8-18.4-17.9zm8.9-.4c0 5.3 3.6 10.4 9.6 10.4 6.3 0 9.4-5.8 9.4-10.3 0-4.5-3.1-10.4-9.5-10.4-6.1 0-9.5 5.3-9.5 10.3z"/>
      <path d="m100.4 38.6h-9.7l13.8-35h7.7l13.4 35h-9.8l-1.7-5.1h-12.1zm7.6-24.3l-3.8 12.2h7.7z"/>
      <path d="m136.2 27.1c0 4.1 2.5 4.8 3.6 4.8 2.1 0 3.4-1.7 3.4-3.4 0-1.8-1.5-2.4-6.9-4.7-2.5-1-8.6-3.5-8.6-10 0-7 6.4-10.8 12.2-10.8 4.8 0 11.6 2.5 11.8 10.9h-8.7c-.2-1.2-.5-3.4-3.2-3.4-1.6 0-3.1 1.1-3.1 2.7 0 1.6.9 2 7.2 4.9 6.5 2.9 8.2 6 8.2 10 0 5.6-2.9 11.2-12.2 11.2-9.2 0-12.9-5.4-12.6-12.2z"/>
      <path d="m160.6 11.5h-6.9v-7.8h22.7v7.8h-6.9v27.1h-8.9z"/>
      <path d="m180.2 3.7h8.9v27.1h10.4v7.8h-19.3z"/>
      <path d="m203 3.7h8.9v35h-8.9z"/>
      <path d="m239.4 25l-.2-21.3h8.6v35h-7.8l-13.4-21.1.2 21.1h-8.6v-35h7.7z"/>
      <path d="m254.1 3.7h19.8v7.8h-10.9v5.4h10.5v7.8h-10.5v6h10.9v7.8h-19.8z"/>
      <path d="m15.1 64.7c0-6.1 4.7-10.6 11-10.6 3 0 5.8 1 7.6 3l-1.4 1.4c-1.7-1.7-3.8-2.5-6.2-2.5-5 0-8.8 3.7-8.8 8.7 0 5 3.8 8.7 8.8 8.7 2.4 0 4.5-.7 6.2-2.5l1.4 1.4c-1.9 2-4.6 3.1-7.7 3.1-6.2-.1-10.9-4.6-10.9-10.7z"/>
      <path d="m55.6 64.7c0-6.1 4.7-10.6 11-10.6 6.3 0 11 4.5 11 10.6 0 6.1-4.7 10.6-11 10.6-6.4 0-11-4.5-11-10.6zm19.7 0c0-5-3.7-8.7-8.8-8.7-5 0-8.8 3.7-8.8 8.7 0 5 3.8 8.7 8.8 8.7 5.1 0 8.8-3.7 8.8-8.7z"/>
      <path d="m101.9 54.3h2.2v19h11.7v1.9h-13.9z"/>
      <path d="m138.8 54.3h2.2v19h11.7v1.9h-13.9z"/>
      <path d="m190.6 73.3v1.9h-14.8v-20.9h14.3v1.9h-12.1v7.4h10.8v1.9h-10.8v7.8z"/>
      <path d="m229.8 64.7h2.1v8c-2 1.8-4.8 2.7-7.7 2.7-6.4 0-11-4.5-11-10.6 0-6.1 4.7-10.6 11-10.6 3.2 0 5.9 1 7.8 3l-1.4 1.4c-1.8-1.7-3.9-2.4-6.3-2.4-5.2 0-9 3.7-9 8.7 0 5 3.8 8.7 8.9 8.7 2 0 3.9-.4 5.5-1.6v-7.3z"/>
      <path d="m272.3 73.3v1.9h-14.8v-20.9h14.3v1.9h-12.1v7.4h10.8v1.9h-10.8v7.8z"/>
      <path d="m272.9 47.8h-257.9c-.8 0-1.4-.6-1.4-1.4v0c0-.8.6-1.4 1.4-1.4h257.9c.8 0 1.4.6 1.4 1.4v0c .1.7-.6 1.4-1.4 1.4z"/>
   </g>
</svg>
