<?xml version="1.0" encoding="utf-8"?>
<!-- Generator: Adobe Illustrator 15.0.0, SVG Export Plug-In . SVG Version: 6.00 Build 0)  -->
<!DOCTYPE svg PUBLIC "-//W3C//DTD SVG 1.1//EN" "http://www.w3.org/Graphics/SVG/1.1/DTD/svg11.dtd">
<svg version="1.1"
	 id="svg3064" xmlns:dc="http://purl.org/dc/elements/1.1/" xmlns:cc="http://creativecommons.org/ns#" xmlns:rdf="http://www.w3.org/1999/02/22-rdf-syntax-ns#" xmlns:svg="http://www.w3.org/2000/svg" xmlns:sodipodi="http://sodipodi.sourceforge.net/DTD/sodipodi-0.dtd" xmlns:inkscape="http://www.inkscape.org/namespaces/inkscape" sodipodi:docname="cuyamaca logo.svg" inkscape:version="0.47 r22583"
	 xmlns="http://www.w3.org/2000/svg" xmlns:xlink="http://www.w3.org/1999/xlink" x="0px" y="0px" width="75.667px"
	 height="59.334px" viewBox="-1.45 -1.728 75.667 59.334" enable-background="new -1.45 -1.728 75.667 59.334" xml:space="preserve"
	>
<defs>
	
	
		<inkscape:perspective  id="perspective3072" inkscape:persp3d-origin="0.5 : 0.33333333 : 1" inkscape:vp_z="1 : 0.5 : 1" inkscape:vp_y="0 : 1000 : 0" inkscape:vp_x="0 : 0.5 : 1" sodipodi:type="inkscape:persp3d">
		</inkscape:perspective>
</defs>
<sodipodi:namedview  id="namedview3066" inkscape:window-height="520" inkscape:window-width="1024" inkscape:pageshadow="2" inkscape:pageopacity="0" inkscape:window-maximized="1" inkscape:cy="4.1289966" inkscape:cx="-13.564816" inkscape:zoom="1.4897651" showgrid="false" guidetolerance="10" gridtolerance="10" objecttolerance="10" borderopacity="1" bordercolor="#666666" pagecolor="#ffffff" inkscape:current-layer="g3074" inkscape:window-y="-4" inkscape:window-x="-4">
	</sodipodi:namedview>
<g id="g3074" transform="matrix(1.25,0,0,-1.25,-539.7375,181.9825)" inkscape:label="CC-LogoUsageManual" inkscape:groupmode="layer">
	<path id="path3076" fill="#FFFFFF" d="M0,792L0,792"/>
	<g id="g4083">
		<path id="path3240" fill="#142C61" d="M435.315,112.048h-0.343v-0.465c-0.288-0.177-0.509-0.246-0.816-0.246
			c-0.846,0-1.501,0.773-1.501,1.766c0,1.018,0.594,1.729,1.446,1.729c0.325,0,0.521-0.068,0.871-0.313v-0.391h0.337v1.097h-0.337
			v-0.258c-0.356,0.153-0.632,0.209-1.03,0.209c-1.232,0-2.152-0.901-2.152-2.109c0-1.22,0.92-2.091,2.213-2.091
			c0.466,0,0.791,0.067,1.312,0.257V112.048"/>
		<path id="path3242" fill="#142C61" d="M443.57,115.102h-1.423v-0.264h0.509v-2.281c0-0.748-0.429-1.183-1.165-1.183
			c-0.184,0-0.361,0.042-0.509,0.117c-0.312,0.164-0.423,0.447-0.423,1.066v2.287h0.46v0.259h-1.716v-0.259h0.466v-2.477
			c0-0.845,0.643-1.391,1.636-1.391c0.319,0,0.62,0.067,0.889,0.191c0.522,0.245,0.761,0.68,0.761,1.373v2.305h0.515V115.102"/>
		<path id="path3244" fill="#142C61" d="M449.957,111.313h-0.466v1.851l1.024,1.68h0.441v0.259h-1.428v-0.259h0.521l-0.815-1.341
			l-0.871,1.341h0.454v0.259H447.1v-0.259h0.387l1.213-1.838v-1.692h-0.459v-0.258h1.716L449.957,111.313"/>
		<path id="path3246" fill="#142C61" d="M458.391,111.313h-0.257l-1.521,3.917h-0.374l-1.582-3.917h-0.38v-0.258h1.269v0.258h-0.49
			l0.398,0.992h1.49l0.381-0.992h-0.43v-0.258h1.496V111.313L458.391,111.313z M455.602,112.681l0.619,1.531l0.582-1.531H455.602"/>
		<path id="path3248" fill="#142C61" d="M467.035,111.313h-0.516v3.53h0.516v0.259h-1.213l-1.282-2.852l-1.453,2.852h-1.084v-0.259
			h0.514v-3.53h-0.514v-0.258h1.416v0.258h-0.516v2.592l1.477-2.912l1.349,2.967v-2.648h-0.514v-0.258h1.82V111.313"/>
		<path id="path3250" fill="#142C61" d="M474.781,111.313h-0.256l-1.52,3.917h-0.373l-1.583-3.917h-0.381v-0.258h1.27v0.258h-0.49
			l0.398,0.992h1.491l0.38-0.992h-0.429v-0.258h1.495V111.313L474.781,111.313z M471.992,112.681l0.62,1.531l0.583-1.531H471.992"/>
		<path id="path3252" fill="#142C61" d="M481.942,112.048h-0.342v-0.465c-0.289-0.177-0.511-0.246-0.816-0.246
			c-0.846,0-1.502,0.773-1.502,1.766c0,1.018,0.595,1.729,1.447,1.729c0.325,0,0.522-0.068,0.872-0.313v-0.391h0.337v1.097h-0.337
			v-0.258c-0.356,0.153-0.633,0.209-1.03,0.209c-1.233,0-2.152-0.901-2.152-2.109c0-1.22,0.92-2.091,2.213-2.091
			c0.466,0,0.791,0.067,1.312,0.257V112.048"/>
		<path id="path3254" fill="#142C61" d="M489.737,111.313h-0.258l-1.521,3.917h-0.373l-1.583-3.917h-0.38v-0.258h1.269v0.258h-0.491
			l0.399,0.992h1.49l0.379-0.992h-0.429v-0.258h1.497V111.313L489.737,111.313z M486.947,112.681l0.62,1.531l0.581-1.531H486.947"/>
		<path id="path3256" fill="#142C61" d="M440.946,102.223h-0.344v-0.466c-0.288-0.178-0.508-0.245-0.815-0.245
			c-0.846,0-1.502,0.772-1.502,1.766c0,1.017,0.595,1.73,1.447,1.73c0.325,0,0.521-0.068,0.87-0.314v-0.392h0.338v1.098h-0.338
			v-0.258c-0.355,0.152-0.631,0.209-1.03,0.209c-1.232,0-2.151-0.901-2.151-2.109c0-1.22,0.919-2.091,2.213-2.091
			c0.466,0,0.791,0.066,1.312,0.258V102.223"/>
		<path id="path3258" fill="#142C61" d="M448.936,103.253c0,1.171-0.901,2.097-2.029,2.097c-1.128,0-2.023-0.926-2.023-2.097
			c0-1.171,0.895-2.103,2.023-2.103C448.035,101.15,448.936,102.082,448.936,103.253z M445.748,103.253
			c0,0.926,0.546,1.747,1.159,1.747c0.619,0,1.165-0.821,1.165-1.747c0-0.932-0.546-1.753-1.165-1.753
			C446.294,101.5,445.748,102.321,445.748,103.253"/>
		<path id="path3260" fill="#142C61" d="M455.758,102.045h-0.331v-0.453h-1.306v3.427h0.46v0.257h-1.716v-0.257h0.466v-3.532h-0.466
			v-0.256h2.893V102.045"/>
		<path id="path3262" fill="#142C61" d="M462.384,102.045h-0.331v-0.453h-1.305v3.427h0.46v0.257h-1.716v-0.257h0.466v-3.532h-0.466
			v-0.256h2.893V102.045"/>
		<path id="path3264" fill="#142C61" d="M469.035,102.045h-0.331v-0.453h-1.331v1.514h0.981v-0.428l0.331,0.005v1.209l-0.331-0.008
			v-0.417h-0.981v1.448h1.275v-0.441h0.325v0.975h-0.331v-0.172h-2.525v-0.257h0.466v-3.532h-0.466v-0.256h2.919V102.045"/>
		<path id="path3266" fill="#142C61" d="M476.693,102.622h0.459v0.257h-1.777v-0.257h0.526v-1.018
			c-0.214-0.068-0.3-0.086-0.471-0.086c-0.852,0-1.563,0.791-1.563,1.741c0,0.981,0.65,1.748,1.484,1.748
			c0.361,0,0.607-0.068,0.92-0.233v-0.467h0.337v1.092h-0.337v-0.227c-0.398,0.141-0.626,0.184-1,0.184
			c-0.33,0-0.637-0.048-0.906-0.134c-0.803-0.264-1.361-1.073-1.361-1.963c0-1.231,0.944-2.109,2.286-2.109
			c0.423,0,0.803,0.066,1.405,0.233V102.622"/>
		<path id="path3268" fill="#142C61" d="M483.909,102.045h-0.331v-0.453h-1.33v1.514h0.98v-0.428l0.331,0.005v1.209l-0.331-0.008
			v-0.417h-0.98v1.448h1.276v-0.441h0.324v0.975h-0.33v-0.172h-2.527v-0.257h0.467v-3.532h-0.467v-0.256h2.919V102.045"/>
		<path id="path3270" fill="#142C61" d="M432.754,103.741l0.567-0.567l-0.567-0.567l-0.566,0.567L432.754,103.741"/>
		<path id="path3272" fill="#142C61" d="M488.801,103.741l0.567-0.567l-0.567-0.567l-0.567,0.567L488.801,103.741"/>
		<path id="path3274" fill="#142C61" d="M458.034,139.466c-1.37,0-3.846-2.219-3.846-4.955c0-2.609,2.476-4.89,3.911-4.89
			c-3.195,0-5.475,2.414-5.475,4.89C452.624,136.986,454.774,139.466,458.034,139.466"/>
		<path id="path3276" fill="#142C61" d="M457.958,136.725c-0.643,0-1.554-1.108-1.554-2.214c0-1.226,0.911-2.411,1.584-2.411
			c-1.5,0-2.571,1.104-2.571,2.267C455.417,135.529,456.427,136.725,457.958,136.725"/>
		<path id="path3278" fill="#142C61" d="M472.078,134.272c0,6.249-5.066,11.314-11.314,11.314c-6.249,0-11.315-5.065-11.315-11.314
			c0-0.23-0.002-13.053-0.002-13.053h22.635C472.081,121.219,472.078,133.938,472.078,134.272z M466.386,126.913
			c-0.62,0.619-1.265,0.615-1.89-0.01c-0.335-0.335-3.776-3.736-4.3-4.254h-1.175l3.447,3.448c0,0-0.782,0.799-1.123,1.141
			c-0.598,0.598-1.319,0.594-1.898,0.016c-0.304-0.304-4.531-4.532-4.605-4.605h-3.855c0,0,0.02,11.618,0.02,11.627
			c0,5.414,4.389,9.803,9.803,9.803c5.414,0,9.802-4.389,9.802-9.803c0-0.009,0.003-11.598,0.003-11.626
			C470.101,123.168,466.751,126.549,466.386,126.913"/>
	</g>
</g>
</svg>
