<?xml version="1.0" encoding="UTF-8" standalone="no"?>
<svg
   xmlns:dc="http://purl.org/dc/elements/1.1/"
   xmlns:cc="http://creativecommons.org/ns#"
   xmlns:rdf="http://www.w3.org/1999/02/22-rdf-syntax-ns#"
   xmlns:svg="http://www.w3.org/2000/svg"
   xmlns="http://www.w3.org/2000/svg"
   viewBox="0 0 707.53333 261.48001"
   height="261.48001"
   width="707.53333"
   xml:space="preserve"
   id="svg2"
   version="1.1"><metadata
     id="metadata8"><rdf:RDF><cc:Work
         rdf:about=""><dc:format>image/svg+xml</dc:format><dc:type
           rdf:resource="http://purl.org/dc/dcmitype/StillImage" /></cc:Work></rdf:RDF></metadata><defs
     id="defs6" /><g
     transform="matrix(1.3333333,0,0,-1.3333333,0,261.48)"
     id="g10"><g
       transform="scale(0.1)"
       id="g12"><path
         id="path14"
         style="fill:#223b8c;fill-opacity:1;fill-rule:nonzero;stroke:none"
         d="m 2232.56,1519.7 c 1.14,33.26 1.6,50.38 2.51,71.59 -6.96,1.58 -16.53,2.83 -25.14,3.69 -9.29,0.8 -16.95,1.26 -27.47,1.26 -117.12,0 -184.62,-68.63 -184.62,-158.69 0,-98.14 73.22,-160.29 171.55,-160.29 13.91,0 24.07,0.45 39.59,2.51 8.72,1.3 20.51,3.8 26.43,5.53 -0.46,15.25 -1.92,53.56 -2.28,69.38 h -2.45 c -6.17,-4.37 -12.04,-6.35 -18.6,-8.32 -11.26,-2.54 -22.91,-3.48 -36.94,-3.48 -59.73,0 -97.59,37.94 -97.59,95.15 0,56.22 41.98,93.11 105.01,93.11 11.72,0 22.8,-1.22 30.93,-3.3 6.67,-2.03 11.86,-4.32 16.27,-8.14 h 2.8 v 0" /><path
         id="path16"
         style="fill:#223b8c;fill-opacity:1;fill-rule:nonzero;stroke:none"
         d="m 5196.17,1048.79 c 0,-82.091 0,-93.599 -3.36,-95.27 v -1.489 c 8.72,0.047 31.84,0.09 55.25,0.09 18.04,0 37.38,-0.043 52.43,-0.09 0,9.258 0.15,19.024 0.27,27.028 h -1.39 c -2.12,-3.446 -9.31,-3.731 -21.05,-3.774 h -53.88 c -1.79,0.492 -1.89,1.07 -1.89,3.32 v 75.035 h 43.91 c 16.21,0 21.7,-0.13 23.64,-2.51 h 1.36 c -0.07,5.47 -0.16,9.35 -0.16,14.05 0,3.99 0.09,7.78 0.16,13.3 h -1.38 c -1.96,-2.11 -7.53,-2.18 -24.2,-2.18 h -43.33 v 74.03 h 44.14 c 16.85,0 27.31,-0.65 29.2,-4.13 h 1.42 c 0.02,8.82 0.16,17.85 0.34,27 -11.92,-0.04 -33.1,-0.08 -53.35,-0.08 -21.98,0 -42.75,0.06 -51.26,0.08 v -1.48 c 3.13,-1.69 3.13,-13.43 3.13,-89.79 v -33.14 0" /><path
         id="path18"
         style="fill:#223b8c;fill-opacity:1;fill-rule:nonzero;stroke:none"
         d="m 5037.67,957.5 c -0.1,5.852 -0.14,17.379 -0.14,28.371 v 10.668 c 0,46.681 0,53.651 2.97,55.551 v 1.54 c -5.36,-0.08 -9.76,-0.16 -16.6,-0.16 -5.84,0 -11.02,0.08 -16.36,0.16 v -1.55 c 3.58,-1.9 3.76,-18.12 3.76,-61.498 l -0.07,-14.496 c -8.81,-2.395 -19.24,-3.438 -31.09,-3.438 -52.13,0 -89.27,35.822 -89.27,90.042 0,55.81 38.87,90.04 95.16,90.04 13.51,0 26.06,-2.11 34.8,-4.61 5.21,-1.57 9.48,-3.87 12.06,-7.03 h 1.49 c 0.36,9.43 0.58,16.45 1.27,29.14 -6.8,1.7 -14.46,3.22 -22.18,4.38 -9.22,1.22 -18.15,1.77 -29.56,1.77 -67.55,0 -121.59,-42.18 -121.59,-113.38 0,-71.359 50.52,-114.121 116.81,-114.121 22.53,0 40.75,2.57 58.54,8.621 v 0" /><path
         id="path20"
         style="fill:#223b8c;fill-opacity:1;fill-rule:nonzero;stroke:none"
         d="m 4619.98,1048.79 c 0,-82.091 0,-93.599 -3.33,-95.27 v -1.489 c 8.69,0.047 31.84,0.09 55.22,0.09 18.07,0 37.4,-0.043 52.46,-0.09 0,9.258 0.12,19.024 0.26,27.028 h -1.42 c -2.12,-3.446 -9.28,-3.731 -21.02,-3.774 h -53.89 c -1.79,0.492 -1.89,1.07 -1.89,3.32 v 75.035 h 43.93 c 16.2,0 21.67,-0.13 23.62,-2.51 h 1.36 c -0.08,5.47 -0.15,9.35 -0.15,14.05 0,3.99 0.07,7.78 0.15,13.3 h -1.36 c -1.99,-2.11 -7.53,-2.18 -24.2,-2.18 h -43.35 v 74.03 h 44.16 c 16.82,0 27.3,-0.65 29.2,-4.13 h 1.41 c 0.03,8.82 0.16,17.85 0.32,27 -11.9,-0.04 -33.07,-0.08 -53.35,-0.08 -21.97,0 -42.72,0.06 -51.26,0.08 v -1.48 c 3.13,-1.69 3.13,-13.43 3.13,-89.79 v -33.14 0" /><path
         id="path22"
         style="fill:#223b8c;fill-opacity:1;fill-rule:nonzero;stroke:none"
         d="m 4370.16,1048.79 c 0,-81.407 0.02,-92.052 -3.66,-94.552 v -2.207 c 3.05,0.047 27.81,0.09 55.52,0.09 18.17,0 37.72,-0.043 52.07,-0.09 0.02,13.778 0.11,18.387 0.28,27.321 h -1.72 c -0.85,-1.524 -3.69,-2.625 -7.12,-3.153 -3.2,-0.722 -7.45,-0.949 -13.34,-0.949 h -53.6 c -1.6,0 -2.08,0.52 -2.08,2.477 v 71.313 32.89 c 0,76.6 0.03,86.11 3.52,89.34 v 1.93 c -2.81,-0.04 -9.62,-0.08 -16.67,-0.08 -7.26,0 -14.29,0.04 -16.79,0.08 v -1.93 c 3.59,-3.15 3.59,-12.81 3.59,-89.34 v -33.14 0" /><path
         id="path24"
         style="fill:#223b8c;fill-opacity:1;fill-rule:nonzero;stroke:none"
         d="m 4120.31,1048.79 c 0,-81.407 0.02,-92.052 -3.65,-94.552 v -2.207 c 3.07,0.047 27.82,0.09 55.52,0.09 18.15,0 37.71,-0.043 52.09,-0.09 0.02,13.778 0.11,18.387 0.24,27.321 h -1.71 c -0.86,-1.524 -3.69,-2.625 -7.12,-3.153 -3.2,-0.722 -7.46,-0.949 -13.34,-0.949 h -53.6 c -1.57,0 -2.05,0.52 -2.05,2.477 v 71.313 32.89 c 0,76.6 0.03,86.11 3.5,89.34 v 1.93 c -2.83,-0.04 -9.6,-0.08 -16.65,-0.08 -7.28,0 -14.31,0.04 -16.79,0.08 v -1.93 c 3.56,-3.15 3.56,-12.81 3.56,-89.34 v -33.14 0" /><path
         id="path26"
         style="fill:#223b8c;fill-opacity:1;fill-rule:nonzero;stroke:none"
         d="m 3615.52,1142.92 c 0.43,9.31 0.58,19.01 1.08,28.62 -5.27,1.19 -13.65,2.67 -20.08,3.41 -5.74,0.62 -13.31,1.3 -23.32,1.3 -69.46,0 -121.82,-42.6 -121.82,-113.02 0,-72.39 53.46,-114.351 116.78,-114.351 9.33,0 18.57,0.699 27.83,2.141 6.65,1.101 13.92,2.859 18.77,4.39 -0.28,7.02 -0.52,19.11 -0.66,27.649 h -1.24 c -3.81,-3.575 -7.77,-5.411 -12.79,-7.024 -7.94,-1.972 -17.94,-3.172 -29.07,-3.172 -52.07,0 -90.89,36.117 -90.89,90.037 0,55.35 36.81,89.48 93.93,89.48 11.09,0 20.84,-1.27 27.83,-3.1 4.75,-1.47 8.87,-3.38 12.01,-6.36 h 1.64 v 0" /><path
         id="path28"
         style="fill:#223b8c;fill-opacity:1;fill-rule:nonzero;stroke:none"
         d="m 2797.05,1048.79 c 0,-82.091 0,-93.599 -3.35,-95.27 v -1.489 c 8.72,0.047 31.84,0.09 55.25,0.09 18.04,0 37.38,-0.043 52.43,-0.09 0,9.258 0.15,19.024 0.26,27.028 h -1.4 c -2.13,-3.446 -9.3,-3.731 -21.04,-3.774 h -53.87 c -1.8,0.492 -1.89,1.07 -1.89,3.32 v 75.035 h 43.93 c 16.2,0 21.68,-0.13 23.62,-2.51 h 1.35 c -0.06,5.47 -0.16,9.35 -0.16,14.05 0,3.99 0.1,7.78 0.16,13.3 h -1.37 c -1.97,-2.11 -7.51,-2.18 -24.2,-2.18 h -43.33 v 74.03 h 44.14 c 16.85,0 27.3,-0.65 29.2,-4.13 h 1.41 c 0.03,8.82 0.17,17.85 0.35,27 -11.92,-0.04 -33.08,-0.08 -53.35,-0.08 -21.98,0 -42.73,0.06 -51.26,0.08 v -1.48 c 3.12,-1.69 3.12,-13.43 3.12,-89.79 v -33.14 0" /><path
         id="path30"
         style="fill:#223b8c;fill-opacity:1;fill-rule:nonzero;stroke:none"
         d="m 2619.82,1081.93 c 32.27,76.61 36.95,88.1 40.2,89.79 v 1.48 c -2.04,-0.04 -8.22,-0.08 -15.63,-0.08 -6.91,0 -15.45,0.04 -18.52,0.08 v -1.48 c 3.34,-1.84 -1.45,-13.29 -29.34,-81.92 -16.81,-41.59 -23.25,-58.46 -32.9,-85.33 -9.93,27.22 -16.85,44.66 -33.37,85.28 -28.19,68.86 -32.82,80.46 -29.04,81.97 v 1.48 c -3.27,-0.04 -10.01,-0.08 -18.85,-0.08 -8.92,0 -15.23,0.04 -17.38,0.08 v -1.48 c 3.29,-1.69 8.16,-13.13 40.3,-89.79 l 55.52,-132.918 h 3.29 l 55.72,132.918 v 0" /><path
         id="path32"
         style="fill:#223b8c;fill-opacity:1;fill-rule:nonzero;stroke:none"
         d="m 2328.26,1081.93 c 0,76.61 0.01,87.48 3.45,89.55 v 1.72 c -4.63,-0.04 -10.46,-0.08 -16.95,-0.08 -8.03,0 -14.02,0.04 -16.54,0.08 v -1.96 c 3.58,-1.83 3.58,-12.71 3.58,-89.31 v -33.17 c 0,-82.061 0,-92.811 -3.72,-95.022 v -1.707 c 2.63,0.047 8.61,0.09 17.07,0.09 6.61,0 12.47,-0.043 16.91,-0.09 v 1.489 c -3.8,2.429 -3.8,13.191 -3.8,95.28 v 33.13 0" /><path
         id="path34"
         style="fill:#223b8c;fill-opacity:1;fill-rule:nonzero;stroke:none"
         d="m 5295.56,1365.69 c 0,34.35 -15.87,57.62 -41.56,80.46 -16.8,14.97 -30.16,25.3 -37.47,32.85 -7.45,7.68 -12.14,14.35 -12.14,24.75 0,16.74 14.58,26.93 35.67,26.93 8.51,0 15.14,-1.21 20.82,-3.24 5.48,-2.15 11.6,-5.39 15.03,-8.95 h 2.59 c 0.67,33.72 1.01,44.84 1.94,69.77 -11.32,3.7 -31.28,6.04 -46.38,6.04 -73.79,0 -106.73,-43.93 -106.73,-91.72 0,-33.62 16.95,-58.19 37.75,-76.79 8.96,-8.29 19.55,-17.54 30.87,-26.58 12.65,-10.11 20.34,-19.88 20.34,-30.97 0,-18.03 -14.1,-26.95 -33.87,-26.95 -13.6,0 -25.5,2.04 -35.1,5.95 -6.13,2.81 -11.65,6.48 -16.23,11.59 h -2.58 c -1.06,-35.87 -1.64,-47.52 -2.16,-70.24 15,-7.1 40.87,-11.15 63.89,-11.15 61.71,0 105.32,35.47 105.32,87.86 v 0.39 0" /><path
         id="path36"
         style="fill:#223b8c;fill-opacity:1;fill-rule:nonzero;stroke:none"
         d="m 4764.92,1420.07 c 0,-116.21 0,-133.2 -5.13,-135.57 v -2.59 c 6.67,0.05 47.94,0.12 95.31,0.12 26.36,0 54.57,-0.07 80.15,-0.12 0,21.61 0.21,34.83 0.5,66.77 h -2.59 c -2.99,-3.64 -14.21,-4.76 -31.54,-4.95 -18.41,-0.12 -49.84,-0.06 -60.52,0 -2.16,2.43 -2.46,5.09 -2.46,9.33 v 55.49 h 44.8 c 23.77,0 31.72,-0.66 34.45,-3.16 h 2.45 c -0.11,14.9 -0.15,24.57 -0.15,34.69 0,8.97 0.04,18.39 0.15,32.1 h -2.52 c -2.84,-2.45 -10.05,-2.8 -35.17,-2.8 h -44.01 v 62.12 h 43.71 c 24.48,0 44.46,-1.37 47.42,-5.8 h 2.58 c 0.11,30.46 0.3,45.26 0.4,66.74 -22.48,-0.06 -54.14,-0.12 -84.68,-0.12 -42.37,0 -80.85,0.12 -87.97,0.12 v -2.58 c 4.82,-2.37 4.82,-19.72 4.82,-127.62 v -42.17 0" /><path
         id="path38"
         style="fill:#223b8c;fill-opacity:1;fill-rule:nonzero;stroke:none"
         d="m 4549.12,1462.24 c 0,108.24 0,125.25 4.84,127.62 v 2.58 c -4.96,-0.06 -17.68,-0.12 -36.97,-0.12 -13.18,0 -34.9,0.06 -41.41,0.12 v -2.58 c 5.58,-2.37 5.58,-19.38 5.58,-120.86 0,-12.33 0.07,-25.39 0.48,-45.33 -21.99,21.87 -39.47,38.47 -57.84,55.59 -26.54,24.89 -66.22,59.21 -132.39,115.72 h -9.96 v -174.91 c 0,-116.21 0,-133.2 -5.43,-135.57 v -2.59 c 4.91,0.05 17.73,0.12 37.34,0.12 18.38,0 35.1,-0.07 41.27,-0.12 v 2.65 c -5.25,2.7 -5.25,19.3 -5.25,127.05 0,9.59 -0.06,19.94 -0.79,36.19 25.22,-25.12 40.83,-39.66 60.68,-57.59 26.59,-24.08 65.7,-57.95 129.89,-112.15 h 9.96 v 184.18 0" /><path
         id="path40"
         style="fill:#223b8c;fill-opacity:1;fill-rule:nonzero;stroke:none"
         d="m 3756.77,1420.07 c -17.41,-116.21 -20.71,-133.14 -25.69,-135.51 v -2.65 c 5.3,0.05 21.27,0.12 37.99,0.12 15.5,0 36.23,-0.07 42.92,-0.12 v 2.59 c -4.67,2.37 -2.07,22.84 3.99,73.53 2.12,16.65 4.84,40.44 6.04,64.52 10.19,-21.19 18.43,-36.28 27.48,-51.69 9.92,-16.67 28.82,-46.74 54.6,-84.73 h 9.91 c 24.58,36.67 43.13,66.23 52.73,82.68 9.5,16.05 17.03,29.39 28.16,53.41 1.64,-23.35 4.44,-47.72 6.6,-63.79 6.92,-51.16 9.98,-71.9 5.25,-73.93 v -2.59 c 6.38,0.05 26.09,0.12 43.78,0.12 18.92,0 35.62,-0.07 40.85,-0.12 v 2.59 c -4.42,2.03 -7.53,19.36 -24.29,135.57 l -25.39,174.64 h -9.96 c -93.06,-143.23 -107.68,-168.25 -120.05,-192.36 -13.2,24.84 -27.75,50.2 -118.87,192.36 h -9.63 l -26.42,-174.64 v 0" /><path
         id="path42"
         style="fill:#223b8c;fill-opacity:1;fill-rule:nonzero;stroke:none"
         d="m 3283.34,1425.79 c 0,-37.67 2.64,-61.92 13.2,-83.5 19.48,-41.26 63.17,-66.16 122.53,-66.16 56.38,0 97.11,29.96 112.37,60.98 12.08,22.45 16.89,47.78 16.89,89.84 v 35.29 c 0,107.9 0.05,125.25 4.72,127.62 v 2.58 c -4.98,-0.06 -21.91,-0.12 -40.76,-0.12 -18.33,0 -35.83,0.06 -42.37,0.12 v -2.58 c 5.62,-2.37 5.55,-19.72 5.55,-127.62 v -35.78 c 0,-27.22 -2.46,-45.14 -10.72,-57.75 -9.9,-14.94 -26.96,-23.44 -46.8,-23.44 -21.14,0 -40.26,8.68 -49.59,24.52 -7.26,12.39 -9.72,29.83 -9.72,56.67 v 35.78 c 0,108.24 0,125.25 5.14,127.62 v 2.58 c -6.36,-0.06 -24.24,-0.12 -42.94,-0.12 -20.53,0 -37.45,0.06 -42.52,0.12 v -2.58 c 5.07,-2.37 5.02,-19.38 5.02,-127.62 v -36.45 0" /><path
         id="path44"
         style="fill:#223b8c;fill-opacity:1;fill-rule:nonzero;stroke:none"
         d="m 3088.74,1365.69 c 0,34.35 -15.86,57.62 -41.54,80.46 -16.81,14.97 -30.17,25.3 -37.47,32.85 -7.48,7.68 -12.15,14.35 -12.15,24.75 0,16.74 14.58,26.93 35.67,26.93 8.49,0 15.12,-1.21 20.82,-3.24 5.47,-2.15 11.6,-5.39 15.02,-8.95 h 2.6 c 0.67,33.72 1.02,44.84 1.93,69.77 -11.33,3.7 -31.27,6.04 -46.36,6.04 -73.79,0 -106.73,-43.93 -106.73,-91.72 0,-33.62 16.94,-58.19 37.73,-76.79 8.98,-8.29 19.54,-17.54 30.87,-26.58 12.67,-10.11 20.35,-19.88 20.35,-30.97 0,-18.03 -14.11,-26.95 -33.86,-26.95 -13.62,0 -25.51,2.04 -35.13,5.95 -6.11,2.81 -11.62,6.48 -16.2,11.59 h -2.59 c -1.08,-35.87 -1.65,-47.52 -2.17,-70.24 14.99,-7.1 40.88,-11.15 63.91,-11.15 61.71,0 105.3,35.47 105.3,87.86 v 0.39 0" /><path
         id="path46"
         style="fill:#223b8c;fill-opacity:1;fill-rule:nonzero;stroke:none"
         d="m 3087.91,1066.24 c -3.69,0 -7.01,0.04 -9.03,0.31 v 83.93 c 2.27,0.29 7.95,0.6 12.53,0.6 27.44,0 45.71,-14.41 45.71,-39.8 V 1111 c 0,-21.72 -12.03,-33.3 -23.89,-39.07 -6.91,-3.54 -16.39,-5.69 -25.32,-5.69 z m 84.87,-90.564 c -48.89,64.284 -53.06,69.904 -56.36,74.224 6.22,2.19 13.48,5.72 19.18,9.7 11.53,7.44 28.43,23.67 28.43,53.4 0,34.77 -23.05,50.35 -36.97,55.18 -12.27,4.47 -25.87,5.87 -40.04,5.87 -5.46,0 -15.04,-0.35 -21.4,-0.6 -6.27,-0.25 -11.43,-0.56 -15.75,-0.69 v -1.4 c 3.52,-1.03 3.52,-12.64 3.52,-89.24 v -33.14 c 0,-82.089 0.01,-93.601 -3.48,-95.269 v -1.492 c 3.77,0.051 8.63,0.09 16.55,0.09 6.6,0 12.77,-0.039 15.85,-0.09 v 1.492 c -3.34,1.668 -3.37,13.18 -3.37,83.539 v 8.51 l 10.96,-0.04 c 30.6,-41.29 50.41,-68.829 67.45,-92.349 2.29,-0.723 4.91,-1.101 7.19,-1.101 l 11.58,0.039 16.12,-0.039 v 1.441 c -3.28,1.57 -12.58,12.906 -19.46,21.965" /><path
         id="path48"
         style="fill:#223b8c;fill-opacity:1;fill-rule:nonzero;stroke:none"
         d="m 2054.49,1150.48 c 2.27,0.29 7.95,0.6 12.54,0.6 27.41,0 45.71,-14.41 45.71,-39.8 V 1111 c 0,-21.72 -12.03,-33.3 -23.89,-39.07 -6.9,-3.54 -16.38,-5.69 -25.33,-5.69 -3.7,0 -6.98,0.04 -9.03,0.31 m 93.84,-91.066 c -48.9,64.286 -53.06,69.906 -56.36,74.226 6.21,2.19 13.48,5.72 19.17,9.7 11.54,7.44 28.44,23.67 28.44,53.4 0,34.77 -23.06,50.35 -36.98,55.18 -12.27,4.47 -25.86,5.87 -40.03,5.87 -5.46,0 -15.04,-0.35 -21.41,-0.61 -6.27,-0.25 -11.42,-0.55 -15.74,-0.68 v -1.4 c 3.52,-1.03 3.52,-12.64 3.52,-89.24 v -33.14 c 0,-82.091 0.01,-93.599 -3.48,-95.27 v -1.489 c 3.77,0.047 8.62,0.09 16.54,0.09 6.6,0 12.78,-0.043 15.87,-0.09 v 1.489 c -3.35,1.671 -3.38,13.179 -3.38,83.54 v 8.51 l 10.96,-0.03 c 30.59,-41.31 50.41,-68.841 67.46,-92.36 2.27,-0.719 4.9,-1.102 7.18,-1.102 l 11.58,0.043 16.11,-0.043 v 1.442 c -3.27,1.57 -12.58,12.906 -19.45,21.964" /><path
         id="path50"
         style="fill:#223b8c;fill-opacity:1;fill-rule:nonzero;stroke:none"
         d="m 3943.94,1062.44 c 0,-50.62 -35.6,-89.862 -84.52,-89.862 -48.39,0 -85.05,40.122 -85.05,89.532 0,50.58 36.54,89.62 84.62,89.62 48.49,0 84.95,-38.73 84.95,-89 z m -81.93,113.49 c -66.24,0 -115.81,-49.36 -115.81,-114.63 0,-62.202 49.05,-112.601 111.76,-112.601 66.71,0 114.09,51.661 114.09,115.161 v 0.29 c 0,63.27 -46.73,111.78 -110.04,111.78" /><path
         id="path52"
         style="fill:#223b8c;fill-opacity:1;fill-rule:nonzero;stroke:none"
         d="m 2659.16,1436.42 c 0,-51.78 -34,-92.82 -86.69,-92.82 -52.96,0 -88.81,40.7 -88.81,92.47 0,53.1 36.29,93.04 89.22,93.04 50.25,0 86.28,-41.26 86.28,-92.29 z m -84.68,160.12 c -95.09,0 -167.26,-69.06 -167.26,-160.41 0,-89.63 71.59,-159.29 164,-159.29 94.36,0 164.26,69.89 164.26,161.99 v 0.39 c 0,90.31 -68.04,157.32 -161,157.32" /><path
         id="path54"
         style="fill:#223b8c;fill-opacity:1;fill-rule:nonzero;stroke:none"
         d="M 291.84,417.93 396.039,0.0703125 887.949,122.73 C 657.016,138.98 442.82,246.691 291.84,417.93" /><path
         id="path56"
         style="fill:#223b8c;fill-opacity:1;fill-rule:nonzero;stroke:none"
         d="M 1197.85,460.898 C 901.875,329.23 555.188,462.34 423.414,758.289 c -131.797,296.011 1.328,642.801 297.332,774.571 137.801,61.37 286.594,65.26 420.614,22.71 l 25.71,-8.17 -51.15,-189.32 -28.3,9.41 c -91.116,30.28 -192.233,28.4 -285.671,-13.2 C 605.508,1266.82 517.168,1036.69 604.617,840.262 692.051,643.871 922.523,555.57 1120.85,643.898 l 33.05,13.614 80.41,-180.641 z m 360.07,1497.292 -752.932,-187.73 27.625,-111.28 -45.14,-11.03 C 426.086,1557.97 206.191,1191.95 296.313,830.539 386.441,469.078 752.504,249.129 1113.96,339.25 c 198.66,49.52 354.56,182.371 439.77,352.09 l 13.05,25.988 175.52,-95.18 -12.54,-24.488 C 1658.43,458.441 1550.1,338.852 1414.37,253.98 l 535.22,133.438 -391.67,1570.772" /><path
         id="path58"
         style="fill:#223b8c;fill-opacity:1;fill-rule:nonzero;stroke:none"
         d="M 382.527,1665.14 4.35547,1570.85 96.9805,1199.37 c 43.2075,181.25 143.4105,344.94 285.5465,465.77" /><path
         id="path60"
         style="fill:#f46f1b;fill-opacity:1;fill-rule:nonzero;stroke:none"
         d="m 1196.35,460.031 c -295.979,-131.672 -642.666,1.43 -774.44,297.387 -131.797,296.012 1.328,642.792 297.332,774.572 137.801,61.36 286.598,65.26 420.608,22.71 l 25.71,-8.17 -51.15,-189.33 -28.3,9.42 C 995,1396.9 893.883,1395.03 800.445,1353.41 604.004,1265.95 515.664,1035.82 603.113,839.379 690.547,643 921.02,554.699 1119.35,643.02 l 33.04,13.621 80.41,-180.653 -36.45,-15.957" /><path
         id="path62"
         style="fill:none;stroke:#f46f1b;stroke-width:5;stroke-linecap:butt;stroke-linejoin:miter;stroke-miterlimit:4;stroke-dasharray:none;stroke-opacity:1"
         d="m 1196.35,460.031 c -295.979,-131.672 -642.666,1.43 -774.44,297.387 -131.797,296.012 1.328,642.792 297.332,774.572 137.801,61.36 286.598,65.26 420.608,22.71 l 25.71,-8.17 -51.15,-189.33 -28.3,9.42 C 995,1396.9 893.883,1395.03 800.445,1353.41 604.004,1265.95 515.664,1035.82 603.113,839.379 690.547,643 921.02,554.699 1119.35,643.02 l 33.04,13.621 80.41,-180.653 z" /></g></g></svg>