<?xml version="1.0" encoding="UTF-8"?><svg id="Layer_1" xmlns="http://www.w3.org/2000/svg" viewBox="0 0 446.74 250.25"><defs><style>.cls-1{fill:#231f20;}</style></defs><path class="cls-1" d="m91.03,46.65c.71.94,1.57,1.77,2.6,2.54,1.03.75,2.22,1.36,3.6,1.84,1.36.49,2.88.73,4.57.73s3.31-.29,4.69-.86c1.39-.59,2.57-1.36,3.53-2.33.97-.98,1.72-2.13,2.24-3.46.52-1.33.78-2.73.78-4.25,0-2.31-.62-4.11-1.82-5.45-1.25-1.35-2.78-2.5-4.63-3.41-1.87-.91-3.87-1.75-6.04-2.51-2.18-.77-4.22-1.74-6.09-2.9-1.9-1.17-3.5-2.67-4.77-4.48-1.29-1.84-1.93-4.3-1.93-7.35,0-2.17.4-4.16,1.23-5.97.81-1.79,2-3.35,3.55-4.65,1.55-1.29,3.4-2.3,5.57-3.02,2.18-.73,4.61-1.1,7.3-1.1s4.83.29,6.73.9c1.9.6,3.66,1.52,5.29,2.76l.16.11-.1.18c-.47.85-.87,1.76-1.18,2.72-.32.96-.64,2.19-.96,3.66l-.04.18h-1.3l-.05-.16c-.27-.7-.63-1.47-1.08-2.31-.44-.82-1.04-1.57-1.8-2.28-.76-.69-1.66-1.28-2.71-1.76-1.04-.46-2.28-.71-3.76-.71s-2.83.23-4.06.69c-1.22.44-2.3,1.07-3.21,1.9-.91.82-1.61,1.8-2.12,2.95-.49,1.14-.74,2.39-.74,3.76,0,2.36.61,4.19,1.82,5.52,1.24,1.36,2.78,2.51,4.63,3.44,1.86.95,3.87,1.78,6.03,2.53,2.19.74,4.22,1.67,6.1,2.74,1.9,1.09,3.49,2.5,4.77,4.21,1.29,1.74,1.93,4.05,1.93,6.9,0,2.38-.45,4.64-1.34,6.77-.89,2.13-2.19,3.99-3.91,5.57-1.71,1.59-3.81,2.8-6.26,3.66-2.46.85-5.25,1.28-8.38,1.28-3.33,0-6.05-.43-8.15-1.29-2.09-.85-3.82-1.82-5.24-2.9l-.14-.12.07-.16c.48-1.17.81-2.22.99-3.15.19-.94.36-2.14.52-3.63l.03-.2h1.32l.06.13c.43.91,1,1.82,1.7,2.75"/><path class="cls-1" d="m156.48,49.66l.22.39-.43-.07-1.43-.19c-.43-.06-.84-.11-1.24-.11h-2.74c-.39,0-.81.04-1.23.11l-.8.11-.06-.18-.18-.6c-.24-.78-.56-1.71-.97-2.81-.41-1.11-.86-2.27-1.36-3.49l-.35-.83-1.17-2.89c-.43-1.04-.86-2.06-1.22-3.02-.9-.03-1.8-.05-2.73-.06-1.13-.01-2.26-.03-3.39-.03s-2.12.01-3.14.03c-.83,0-1.67.03-2.53.06-.99,2.43-1.92,4.81-2.76,7.08-.9,2.42-1.57,4.43-1.99,5.95l-.23.77-.19-.02-.61-.07c-.54-.06-1.13-.11-1.81-.11s-1.27.04-1.8.11l-1.67.18.17-.35.54-1.17c2.74-5.92,5.49-11.97,8.17-17.97,2.66-5.97,5.32-12.03,8.01-18.21l.26-.56h2.22l.06.13.19.45,1.73,4.18.96,2.31c.96,2.32,1.95,4.67,2.95,7.05,1.01,2.38,2,4.74,3,7.07,1,2.35,1.94,4.53,2.81,6.55.88,2.01,1.67,3.81,2.37,5.38.69,1.55,1.26,2.75,1.7,3.55l.68,1.27m-21.59-17.78c.95.04,1.87.06,2.75.06.96,0,1.92-.02,2.88-.03.51,0,1-.02,1.49-.04l-4.3-9.86-4.23,9.83c.47.01.93.03,1.41.04"/><path class="cls-1" d="m189.41,50.48h-1.88l-.06-.08-.21-.25c-3.95-4.55-8.2-9.28-12.65-14.06-3.96-4.24-7.92-8.48-11.88-12.68-.01.48-.02,1.01-.04,1.59-.03,1.62-.05,3.8-.05,6.59,0,.72.01,1.62.03,2.67l.05,3.37c.01,1.16.04,2.35.08,3.55.04,1.28.06,2.35.1,3.36.04,1.03.06,1.93.11,2.7.03.74.06,1.26.1,1.5l.15,1.21-.29-.04-.91-.12c-.52-.06-1.08-.11-1.69-.11-.66,0-1.26.04-1.81.11l-1.29.15.05-.3.2-.98c.05-.21.13-.69.22-1.81.08-.92.16-2.01.23-3.3l.19-3.47.04-.75c.09-1.51.15-3.01.22-4.53.05-1.51.09-2.99.12-4.43.05-1.44.05-2.73.05-3.85,0-3.32,0-6.16-.03-8.53-.02-2.42-.05-4.15-.12-5.27l-.05-1h2.22l.07.07.22.22,4.81,5.22,1.94,2.11c2.39,2.61,4.77,5.16,7.13,7.7,2.36,2.53,4.59,4.93,6.72,7.19,1.4,1.49,2.72,2.87,3.93,4.11v-4.73c0-3.63-.04-7.14-.08-10.56-.05-3.38-.17-6.63-.33-9.67l-.07-1.28.31.07.93.26c.62.15,1.13.22,1.53.22.32,0,.81-.07,1.43-.22l1.27-.33-.02.32-.09,1.01c-.06.74-.14,1.88-.23,3.38-.08,1.51-.18,3.12-.26,4.85-.09,1.72-.17,3.41-.23,5.06-.07,1.64-.1,2.95-.1,3.95v3.1c0,1.16,0,2.38.03,3.65l.05,3.71v.15l.06,3.61c.01,1.14.02,2.12.02,2.93v2.66h-.22"/><path class="cls-1" d="m206.41,12.58c-.11-3.08-.22-6.21-.34-9.39v-.26s.24.01.24.01c1.57.1,3.13.18,4.68.26,1.55.07,3.11.1,4.67.1s3.12-.06,4.68-.18c1.55-.12,3.12-.18,4.7-.18,3.66,0,6.81.57,9.43,1.69,2.61,1.12,4.76,2.73,6.45,4.81,1.68,2.08,2.9,4.64,3.68,7.62.77,3.01,1.14,6.38,1.14,10.12,0,4.85-.71,8.96-2.16,12.31-1.43,3.34-3.26,6.03-5.5,8.09-2.25,2.05-4.71,3.51-7.41,4.36-2.69.86-5.26,1.28-7.74,1.28-1.41,0-2.8-.02-4.16-.08-1.37-.05-2.75-.07-4.15-.07h-4.17c-1.36,0-2.74.04-4.14.14h-.26s.02-.24.02-.24c.12-3,.23-6.05.34-9.14.1-3.09.15-6.23.15-9.43v-12.47c0-3.18-.05-6.31-.15-9.38m9.4,37.55c1.48.13,3.01.18,4.58.18,2.25,0,4.5-.31,6.76-.93,2.24-.62,4.23-1.79,6.01-3.49,1.77-1.72,3.22-4.07,4.35-7.07,1.13-2.99,1.7-6.87,1.7-11.63,0-4.2-.46-7.63-1.34-10.3-.88-2.69-2.08-4.8-3.6-6.34-1.52-1.54-3.34-2.61-5.45-3.2-2.13-.6-4.47-.9-7-.9-1.86,0-3.59.08-5.2.22-1.54.13-2.91.29-4.14.48-.11,2.26-.22,4.62-.28,7.08-.06,2.55-.09,5.12-.09,7.73v12.47c0,5.18.11,10.24.37,15.21.82.22,1.94.39,3.32.49"/><path class="cls-1" d="m261.12,49.64v.26s-.24-.04-.24-.04l-.83-.07c-.74-.06-1.54-.09-2.44-.09s-1.71.03-2.46.09l-1.06.11v-.26s.04-.83.04-.83c.1-2.13.21-4.29.27-6.51.09-2.21.14-4.45.14-6.69v-8.9c0-2.21-.05-4.47-.14-6.65-.07-2.18-.17-4.41-.27-6.69l-.05-1.14.27.04.85.14c.45.06.86.12,1.26.17.39.04.77.07,1.14.07s.75-.02,1.12-.07c.4-.05.83-.11,1.27-.17l1.13-.18v.27s-.05.87-.05.87c-.1,2.28-.18,4.52-.28,6.69-.09,2.17-.12,4.42-.12,6.65v8.9c0,2.25.03,4.51.12,6.69.1,2.21.19,4.38.28,6.51l.04.83"/><path class="cls-1" d="m290.4,49.55l.09.31h-.31s-1.02-.06-1.02-.06c-1.48-.06-3.04-.1-4.59-.1h-9.38c-1.57,0-3.13.03-4.65.1l-1.04.05v-.25s.05-.78.05-.78c.1-2.2.21-4.4.28-6.59.09-2.17.14-4.41.14-6.66v-8.89c0-2.25-.05-4.5-.14-6.68-.07-2.21-.18-4.41-.28-6.63l-.05-1.03h.26s.78.04.78.04c1.55.08,3.08.13,4.61.19,1.52.05,3.05.07,4.61.07s3.04-.02,4.55-.07c1.52-.06,3.05-.11,4.59-.19l1.21-.05-.06.29-.18.89c-.09.46-.14.92-.14,1.38s.05.91.14,1.37l.25,1.19-.29-.02-.94-.05c-1.1-.07-2.12-.13-3.03-.21-.91-.07-1.87-.15-2.89-.21-1.01-.07-2.12-.13-3.31-.18-.97-.04-2.1-.06-3.4-.08-.03.79-.05,1.53-.09,2.27-.05.98-.08,2.11-.08,3.36,0,1.34,0,2.65.02,3.92,0,.77.02,1.42.02,1.97,1.14,0,2.18-.03,3.12-.06,1.2-.03,2.29-.08,3.29-.12.99-.05,1.93-.11,2.77-.17.82-.05,1.61-.1,2.37-.17l1.24-.12-.06.29-.18.96c-.09.45-.14.92-.14,1.41,0,.45.05.91.14,1.37l.26,1.27-.31-.03-.99-.12c-.89-.1-1.91-.17-3.08-.25-1.17-.07-2.35-.11-3.54-.13l-3.35-.05c-.58-.01-1.12-.02-1.57-.03,0,.03,0,.08,0,.11-.02.35-.02.79-.02,1.33v5.12c0,1.96,0,3.58.02,4.86,0,.76.02,1.42.04,1.96h2.71c1.3,0,2.56-.03,3.81-.09,1.25-.05,2.43-.12,3.54-.2,1.07-.09,2.01-.22,2.8-.37l1.53-.33-.11.37-.32,1.14c-.06.16-.09.36-.1.6-.02.28-.04.52-.04.74,0,.47.05.83.13,1.07l.29.97"/><path class="cls-1" d="m312.43,50.48c-2.84,0-5.45-.4-7.76-1.16-2.33-.78-4.36-2.01-6.02-3.67-1.64-1.65-2.93-3.72-3.8-6.14-.87-2.39-1.33-5.21-1.33-8.34s.47-5.77,1.38-8.16c.91-2.41,2.21-4.48,3.88-6.15,1.67-1.68,3.71-2.97,6.09-3.84,2.34-.87,4.97-1.29,7.79-1.29,1.61,0,3.08.09,4.36.28,1.28.2,2.42.47,3.4.79.99.33,1.86.67,2.6,1.03.73.36,1.38.7,1.96,1.02l.8.44-.1.2-.32.62c-.22.41-.43.97-.61,1.67-.19.7-.32,1.35-.37,1.97l-.1.84h-1.88l-.06-.09-.23-.28c-.41-.56-.95-1.14-1.61-1.72-.63-.57-1.36-1.09-2.15-1.5-.79-.43-1.68-.79-2.64-1.07-.95-.27-1.99-.4-3.07-.4-1.8,0-3.48.31-5.02.92-1.52.59-2.87,1.53-3.99,2.78-1.12,1.26-2.03,2.89-2.7,4.83-.65,1.98-.99,4.38-.99,7.13,0,2.43.31,4.63.89,6.56.58,1.9,1.43,3.51,2.54,4.8,1.1,1.28,2.46,2.29,4.04,2.99,1.59.7,3.41,1.05,5.46,1.05.61,0,1.27-.04,1.95-.1.71-.07,1.36-.16,1.98-.3.61-.12,1.19-.28,1.73-.48.32-.11.61-.24.86-.38.02-.85.04-1.72.05-2.57.02-1.04.03-2.07.03-3.14,0-1.2-.03-2.4-.07-3.58-.05-1.2-.1-2.36-.16-3.45l-.08-1.24.29.06.93.2c.7.16,1.38.24,2.02.24.31,0,.63-.01.93-.05.28-.03.54-.08.78-.16l1.35-.46-.03.34-.09,1.09c-.06.76-.11,2.01-.14,3.68-.03,1.7-.04,3.95-.04,6.73,0,.69,0,1.38.02,2.07.02.72.02,1.42.02,2.12v.62l-.13.07-.44.17c-.69.3-1.55.6-2.54.9-1.03.3-2.11.55-3.22.75-1.11.19-2.22.36-3.33.52-1.15.16-2.21.24-3.14.24"/><path class="cls-1" d="m346.32,50.48c-2.64,0-5.11-.41-7.35-1.23-2.25-.82-4.24-2.08-5.87-3.77-1.61-1.67-2.9-3.75-3.79-6.14-.9-2.4-1.33-5.14-1.33-8.17s.43-5.77,1.33-8.16c.89-2.4,2.18-4.46,3.79-6.14,1.62-1.69,3.6-2.97,5.84-3.85,2.26-.87,4.74-1.29,7.38-1.29s5.17.43,7.42,1.29c2.25.88,4.24,2.16,5.85,3.85,1.62,1.68,2.89,3.74,3.79,6.14.89,2.39,1.35,5.14,1.35,8.16s-.46,5.77-1.35,8.17c-.89,2.39-2.17,4.47-3.79,6.14-1.62,1.68-3.6,2.95-5.86,3.77-2.23.82-4.73,1.23-7.4,1.23m0-34.96c-1.67,0-3.24.3-4.69.91-1.41.59-2.67,1.52-3.75,2.76-1.06,1.26-1.93,2.9-2.53,4.84-.62,1.99-.94,4.39-.94,7.14s.32,5.16.94,7.14c.61,1.95,1.47,3.58,2.53,4.83,1.07,1.25,2.33,2.18,3.75,2.78,1.44.6,3.02.91,4.69.91s3.29-.31,4.72-.91c1.43-.6,2.69-1.53,3.76-2.78,1.06-1.25,1.91-2.88,2.53-4.83.63-1.99.93-4.38.93-7.14s-.3-5.15-.93-7.14c-.61-1.95-1.46-3.59-2.53-4.84-1.07-1.24-2.33-2.17-3.77-2.76-1.43-.62-3.02-.91-4.72-.91"/><path class="cls-1" d="m96.2,250.25l-.35-.02c-2.89-.13-5.9-.19-8.94-.19h-18.17c-3.08,0-6.14.06-9.1.19l-.28.02.02-.27c.21-4.27.38-8.53.55-12.75.17-4.1.26-8.45.26-12.95v-17.22c0-4.49-.09-8.86-.26-13-.17-4.27-.34-8.53-.55-12.8l-.02-.28h.28c3,.14,5.99.26,8.95.37,2.88.09,5.89.15,8.96.15s6.05-.06,8.89-.15c2.94-.11,5.91-.23,8.91-.36h.32s-.06.31-.06.31c-.2,1-.3,1.97-.3,2.94s.1,1.95.3,2.95l.06.32-.32-.02c-2.14-.13-4.09-.27-5.86-.4-1.77-.13-3.64-.28-5.61-.42-1.93-.11-4.1-.24-6.45-.34-2.23-.08-4.76-.14-7.52-.14h-.63l-.02.62c-.07,1.82-.14,3.57-.22,5.24-.1,1.85-.15,4.02-.15,6.6s.02,5.14.05,7.62c.03,1.93.04,3.5.05,4.71v.66h.65c2.5-.02,4.85-.06,7.01-.11,2.33-.09,4.47-.16,6.4-.27,1.94-.1,3.72-.19,5.36-.29,1.62-.1,3.17-.22,4.64-.35l.32-.02-.06.32c-.2,1-.29,2.02-.29,3.05,0,.95.09,1.94.29,2.95l.07.33-.33-.04c-1.74-.19-3.77-.38-6.04-.5-2.21-.14-4.47-.21-6.89-.26l-2.85-.05c-1.26,0-2.49-.03-3.66-.05-1.57-.02-2.89-.04-3.96-.05h-.64v.63c-.02.35-.04.7-.05,1.09-.04.69-.05,1.56-.05,2.64v9.92c0,3.8.02,6.95.05,9.4.03,1.96.06,3.54.11,4.73l.02.64h6.78c2.5,0,5-.07,7.44-.16,2.64-.11,4.89-.23,6.91-.4,2.16-.16,4.05-.42,5.62-.75l.4-.08-.12.39c-.13.46-.21.97-.24,1.51-.04.55-.05,1.06-.05,1.52,0,1.05.1,1.91.28,2.54l.11.33"/><path class="cls-1" d="m101.8,208.33c0-3.12-.06-6.37-.17-9.72-.12-3.37-.23-6.61-.37-9.73,1.64.1,3.39.19,5.24.26,1.85.09,3.59.12,5.24.12.8,0,1.6-.01,2.4-.03.8-.04,1.61-.05,2.4-.05.85-.04,1.68-.1,2.5-.14.82-.06,1.64-.08,2.44-.08,3.92,0,7.27.58,10.08,1.71,2.81,1.13,5.1,2.75,6.88,4.86,1.79,2.09,3.08,4.68,3.91,7.72.82,3.03,1.23,6.46,1.23,10.27,0,4.95-.77,9.11-2.3,12.5-1.53,3.39-3.49,6.13-5.87,8.24-2.39,2.09-5.01,3.6-7.89,4.52-2.87.92-5.62,1.37-8.25,1.37-.76,0-1.48,0-2.17-.03-.7-.03-1.42-.08-2.17-.12-.71-.05-1.43-.1-2.17-.14-.74-.05-1.46-.08-2.17-.08-1.46,0-3.04.05-4.71.15-1.67.1-3.24.2-4.71.3.13-3.11.26-6.37.4-9.76.14-3.39.2-6.64.2-9.75v-12.39m6.61,12.39c0,2.58.02,5.05.06,7.41.05,2.37.13,4.82.27,7.35.93.2,2.11.33,3.54.41,1.42.07,2.87.11,4.34.11,2.32,0,4.62-.31,6.91-.93,2.28-.62,4.34-1.75,6.17-3.41,1.82-1.66,3.32-3.94,4.47-6.87,1.16-2.91,1.74-6.68,1.74-11.27,0-4.06-.44-7.38-1.33-9.98-.89-2.6-2.13-4.64-3.71-6.15-1.58-1.51-3.46-2.55-5.63-3.12-2.19-.58-4.55-.86-7.09-.86-1.82,0-3.53.07-5.11.19-1.57.12-3.01.28-4.3.48-.14,2.23-.22,4.53-.27,6.91-.04,2.37-.06,4.82-.06,7.34v12.39Z"/><path class="cls-1" d="m182.19,213.07v-9.06c0-2.62-.02-4.91-.06-6.86-.05-1.96-.1-3.61-.16-4.97-.07-1.37-.17-2.52-.31-3.45.71.19,1.36.33,1.94.4.57.09,1.08.12,1.54.12.26,0,.63-.05,1.13-.14.5-.1.97-.25,1.46-.45-.13,1.68-.25,3.75-.36,6.19-.11,2.45-.23,5.07-.34,7.84-.11,2.77-.21,5.64-.3,8.56-.09,2.95-.15,5.73-.2,8.35-.04,3.31-.5,6.29-1.37,8.93-.86,2.65-2.11,4.9-3.73,6.75-1.63,1.86-3.62,3.3-5.99,4.31-2.36,1.01-5.05,1.53-8.07,1.53-6.68,0-11.55-1.75-14.63-5.23-3.07-3.49-4.6-8.87-4.6-16.14,0-1.19.02-2.3.06-3.35.05-1.04.1-2.04.13-3.03.05-.84.08-1.69.1-2.52.03-.84.04-1.69.04-2.52,0-3.42-.04-6.53-.1-9.35-.07-2.82-.15-5.27-.23-7.36,0-.38-.02-.9-.05-1.51-.01-.62-.03-1.05-.03-1.3.75.14,1.48.25,2.2.33.71.09,1.33.12,1.87.12.4,0,.91-.03,1.54-.12.62-.07,1.27-.21,1.93-.4-.13,1.14-.24,2.61-.33,4.42-.09,1.8-.17,3.83-.24,6.09-.06,2.25-.12,4.65-.17,7.23-.04,2.56-.07,5.21-.07,7.94,0,1.58.03,3.21.07,4.89.04,1.69.19,3.33.44,4.97.24,1.62.64,3.17,1.2,4.6.55,1.44,1.35,2.7,2.36,3.77,1.03,1.1,2.33,1.95,3.91,2.6,1.58.65,3.52.97,5.84.97,3.39,0,6.01-.78,7.84-2.37,1.86-1.58,3.2-3.54,4.04-5.9.85-2.35,1.34-4.86,1.47-7.54.14-2.66.2-5.12.2-7.34"/><path class="cls-1" d="m230.13,236.59c-.44.39-1.12.86-2.03,1.37-.92.53-1.98,1.02-3.21,1.49-1.22.47-2.6.86-4.11,1.19-1.51.32-3.1.49-4.74.49-3.52,0-6.76-.6-9.75-1.79-2.98-1.18-5.56-2.92-7.71-5.19-2.17-2.27-3.84-5.05-5.04-8.34-1.2-3.29-1.81-7.03-1.81-11.24s.62-7.95,1.84-11.24c1.22-3.28,2.94-6.07,5.14-8.35,2.22-2.27,4.83-4,7.88-5.19,3.05-1.18,6.42-1.77,10.11-1.77,2.81,0,5.5.35,8.08,1.11,2.58.74,4.87,1.62,6.88,2.65-.36.85-.67,1.81-.93,2.86-.28,1.06-.48,1.97-.61,2.72,0,.14,0,.35-.04.59,0,.26-.02.39-.02.45l-1.27.14c-.49-.54-1.12-1.18-1.87-1.92-.76-.75-1.64-1.45-2.67-2.12-1.02-.67-2.17-1.23-3.44-1.71-1.27-.47-2.64-.7-4.11-.7-2.44,0-4.73.44-6.84,1.33-2.11.9-3.95,2.24-5.51,4.08-1.55,1.83-2.79,4.16-3.67,7.01-.89,2.84-1.34,6.19-1.34,10.05s.45,7.2,1.34,10.01c.88,2.81,2.11,5.16,3.67,6.97,1.56,1.84,3.4,3.19,5.51,4.07,2.11.91,4.4,1.34,6.84,1.34,1.47,0,2.87-.23,4.21-.68,1.34-.44,2.56-.98,3.67-1.62,1.12-.65,2.13-1.33,3.04-2.05.91-.72,1.68-1.34,2.31-1.88l.93,1.04-.74,4.81"/><path class="cls-1" d="m254.84,188c.76,1.96,1.57,4.13,2.43,6.48.88,2.36,1.76,4.71,2.64,7.09,1.38,3.7,2.84,7.55,4.38,11.49,1.53,3.96,2.99,7.73,4.38,11.28,1.37,3.57,2.63,6.77,3.77,9.61,1.13,2.84,2.02,4.99,2.64,6.43-.94-.2-1.79-.35-2.58-.45-.77-.1-1.44-.15-1.97-.15-.5,0-1.06.05-1.74.15-.66.1-1.42.22-2.27.37-.62-2.52-1.38-5.12-2.3-7.79-.91-2.68-1.84-5.28-2.77-7.79-.27-.79-.52-1.48-.77-2.05-.25-.57-.5-1.19-.78-1.88-1.28-.07-2.62-.1-4.01-.12-1.38-.03-2.71-.03-3.99-.03-1.35,0-2.58,0-3.74.03-1.17.03-2.41.05-3.75.12-1.29,3.55-2.5,7.02-3.61,10.42-1.12,3.39-2,6.43-2.68,9.09-.58-.15-1.11-.27-1.61-.37-.48-.1-.9-.15-1.27-.15-.4,0-.9.06-1.5.18-.6.14-1.27.28-2.04.48,3.48-8.49,7.02-17.23,10.61-26.19,3.61-8.94,7.08-17.7,10.42-26.25h2.07m-2.6,12.23c-1.07,2.76-2.08,5.39-3.04,7.87-.96,2.47-1.99,5.12-3.11,7.93.45,0,.89.01,1.31.04.42.03.86.04,1.31.04.58.06,1.16.07,1.73.07h4.91c.91,0,1.96-.01,3.17-.07l-6.28-15.88Z"/><path class="cls-1" d="m281.42,208.33c0-2.52,0-4.89-.03-7.09-.03-2.2-.08-4.56-.17-7.08-1.07,0-2.23.03-3.47.07-1.25.05-2.48.12-3.71.19-1.22.07-2.43.15-3.63.26-1.19.11-2.29.24-3.26.37.13-.63.25-1.23.36-1.78.11-.53.17-1.01.17-1.4,0-.21-.06-.56-.17-1.08-.11-.52-.23-1.12-.36-1.81,2.79.1,5.73.18,8.81.22,3.08.05,6,.08,8.78.08s5.71-.03,8.77-.08c3.08-.04,6.02-.12,8.81-.22-.13.69-.25,1.29-.36,1.81-.12.53-.18.9-.18,1.16,0,.35.05.79.18,1.33.11.55.22,1.15.36,1.78-2.13-.29-4.48-.52-7.03-.66-2.56-.16-4.94-.22-7.12-.22-.04,2.42-.08,4.79-.1,7.08-.02,2.3-.03,4.66-.03,7.09v12.39c0,3.11.06,6.38.17,9.78.13,3.41.27,6.68.42,9.8-.75-.15-1.46-.27-2.12-.37-.67-.1-1.25-.15-1.73-.15s-1.08.05-1.74.15c-.67.1-1.38.22-2.14.37.15-3.11.26-6.38.37-9.8.11-3.4.16-6.67.16-9.78v-12.39"/><path class="cls-1" d="m306.55,208.33c0-3.12-.06-6.38-.18-9.76-.1-3.4-.22-6.63-.36-9.75,1.51.3,2.81.44,3.87.44s2.31-.14,3.87-.44c-.15,3.12-.29,6.35-.41,9.75-.14,3.39-.19,6.65-.19,9.76v12.39c0,3.11.06,6.38.19,9.78.12,3.41.26,6.68.41,9.8-.76-.15-1.47-.27-2.14-.37-.67-.1-1.25-.15-1.74-.15s-1.07.05-1.73.15c-.68.1-1.38.22-2.14.37.13-3.11.25-6.38.36-9.8.12-3.4.18-6.67.18-9.78v-12.39"/><path class="cls-1" d="m319.47,214.56c0-4.21.61-7.96,1.83-11.24,1.22-3.28,2.92-6.07,5.1-8.35,2.19-2.27,4.8-4,7.85-5.19,3.05-1.18,6.42-1.78,10.11-1.78s7.07.6,10.11,1.78c3.06,1.19,5.68,2.93,7.89,5.19,2.21,2.28,3.91,5.07,5.14,8.35,1.22,3.29,1.83,7.03,1.83,11.24s-.61,7.95-1.83,11.24c-1.22,3.29-2.93,6.08-5.14,8.34-2.21,2.28-4.82,4.01-7.89,5.19-3.04,1.19-6.41,1.79-10.11,1.79s-7.06-.6-10.11-1.79c-3.05-1.18-5.66-2.92-7.85-5.19-2.18-2.27-3.88-5.05-5.1-8.34-1.23-3.29-1.83-7.03-1.83-11.24m42.26,0c0-3.86-.45-7.22-1.34-10.05-.89-2.85-2.11-5.19-3.67-7-1.56-1.85-3.4-3.2-5.52-4.1-2.1-.9-4.39-1.33-6.84-1.33s-4.71.44-6.81,1.33c-2.09.9-3.92,2.24-5.48,4.1-1.56,1.81-2.78,4.14-3.67,7-.88,2.84-1.34,6.19-1.34,10.05s.46,7.2,1.34,10.01c.89,2.81,2.11,5.14,3.67,6.97,1.56,1.84,3.39,3.19,5.48,4.07,2.1.91,4.35,1.34,6.81,1.34s4.74-.43,6.84-1.34c2.12-.88,3.96-2.23,5.52-4.07,1.56-1.83,2.78-4.16,3.67-6.97.89-2.82,1.34-6.16,1.34-10.01"/><path class="cls-1" d="m411.41,241.12c-4.58-5.99-9.49-12.12-14.69-18.37-5.21-6.25-10.4-12.42-15.56-18.51l-1.67-2c-.05,1.4-.08,3.11-.1,5.16-.02,2.05-.04,4.63-.04,7.75,0,.99.02,2.23.04,3.71.02,1.48.05,3.06.07,4.75.03,1.68.06,3.38.1,5.12.05,1.74.1,3.38.17,4.92.07,1.57.12,2.94.16,4.13.05,1.19.11,2.09.21,2.66-.66-.2-1.26-.35-1.77-.48-.51-.12-.95-.18-1.3-.18-.71,0-1.79.19-3.22.6.1-.66.2-1.69.31-3.12.11-1.43.22-3.09.34-4.94.12-1.85.22-3.87.33-6.05.12-2.17.22-4.34.31-6.52.08-2.18.15-4.28.2-6.31.04-2.03.06-3.83.06-5.42v-6.49c0-2.04-.01-3.94-.03-5.67-.03-1.73-.06-3.26-.1-4.6-.05-1.34-.1-2.42-.13-3.25h2c.5.53,1,1.13,1.51,1.77.51.64,1.01,1.26,1.5,1.85,2.53,3.06,5.14,6.21,7.81,9.42,2.68,3.22,5.27,6.33,7.83,9.35,2.53,3.02,4.93,5.86,7.19,8.53,2.29,2.68,4.32,5.02,6.16,7.06,0-3.12,0-6.32-.04-9.61-.03-3.29-.05-6.53-.07-9.77-.02-3.2-.08-6.34-.16-9.37-.09-3.04-.2-5.91-.34-8.57,1.34.4,2.32.59,2.95.59.54,0,1.47-.2,2.79-.59-.07,1.2-.18,2.92-.33,5.19-.13,2.28-.26,4.67-.36,7.16-.12,2.5-.21,4.93-.31,7.27-.09,2.36-.12,4.19-.12,5.53v4.33c0,1.67,0,3.42.03,5.27.02,1.85.03,3.71.03,5.57s0,3.6.03,5.23c.02,1.63.04,3.05.07,4.27.03,1.22.03,2.08.03,2.64h-1.87"/><path class="cls-1" d="m20.24,180.39c-4.15-1.75-7.72-4.44-10.72-8.03-3-3.59-5.32-7.98-7-13.12-1.69-5.16-2.52-11.03-2.52-17.57s.83-12.42,2.52-17.57c1.68-5.15,4.05-9.53,7.09-13.12,3.05-3.6,6.72-6.33,10.97-8.21,4.26-1.87,8.94-2.8,14.04-2.8,4.04,0,7.74.53,11.11,1.58,3.32,1.04,6.28,2.3,8.86,3.79l.56.33-.27.59c-.44.99-.83,2.39-1.12,4.17-.3,1.84-.54,3.36-.73,4.58l-.06.4-.38.16-1.1.47-.33-.51c-.56-.87-1.39-1.87-2.45-2.99-1.04-1.11-2.28-2.18-3.7-3.23-1.38-1.04-2.96-1.91-4.72-2.62-1.72-.68-3.6-1.02-5.69-1.02-3.46,0-6.65.69-9.58,2.1-2.93,1.39-5.49,3.54-7.69,6.48-2.2,2.92-3.92,6.66-5.16,11.2-1.25,4.54-1.87,9.95-1.87,16.24s.63,11.7,1.87,16.25c1.24,4.54,2.97,8.28,5.16,11.19,2.2,2.94,4.76,5.1,7.69,6.49,2.93,1.4,6.12,2.1,9.58,2.1,2.1,0,4-.32,5.75-.99,1.8-.66,3.44-1.48,4.94-2.39,1.5-.94,2.86-1.93,4.05-3.02,1.23-1.1,2.26-2.07,3.1-2.89l.56-.57.51.63.55.69-.88,7.29-.15.16c-.62.71-1.52,1.4-2.74,2.14-1.22.76-2.69,1.43-4.39,2.02-1.69.58-3.57,1.1-5.64,1.56-2.1.47-4.29.7-6.57.7-4.85,0-9.35-.88-13.48-2.64"/><path class="cls-1" d="m51.85,142.62c0-4.71.68-8.9,2.06-12.56,1.37-3.69,3.27-6.8,5.71-9.35,2.44-2.54,5.37-4.48,8.78-5.81,3.41-1.33,7.18-1.99,11.32-1.99s7.9.67,11.31,1.99c3.42,1.33,6.35,3.27,8.82,5.81,2.46,2.55,4.38,5.67,5.75,9.35,1.38,3.67,2.06,7.86,2.06,12.56s-.68,8.9-2.06,12.57c-1.36,3.68-3.28,6.8-5.75,9.35-2.47,2.54-5.4,4.48-8.82,5.81-3.42,1.32-7.19,1.99-11.31,1.99s-7.91-.66-11.32-1.99c-3.42-1.33-6.34-3.27-8.78-5.81-2.44-2.55-4.34-5.67-5.71-9.35-1.37-3.66-2.06-7.87-2.06-12.57m47.28,0c0-4.32-.5-8.07-1.5-11.25-1-3.19-2.36-5.79-4.1-7.84-1.74-2.06-3.8-3.58-6.17-4.57-2.36-1-4.92-1.5-7.65-1.5s-5.28.49-7.63,1.5c-2.34.98-4.38,2.51-6.12,4.57-1.75,2.05-3.11,4.65-4.11,7.84-1,3.18-1.49,6.93-1.49,11.25s.5,8.06,1.49,11.2c1,3.15,2.36,5.76,4.11,7.8,1.74,2.06,3.78,3.57,6.12,4.57,2.34.99,4.89,1.49,7.63,1.49s5.29-.5,7.65-1.49c2.37-1,4.43-2.51,6.17-4.57,1.74-2.03,3.11-4.65,4.1-7.8,1-3.15,1.5-6.89,1.5-11.2"/><path class="cls-1" d="m155.04,172.34c-5.39-6.69-11.14-13.54-17.26-20.54-6.11-7-12.2-13.91-18.27-20.71l-1.96-2.25c-.06,1.55-.09,3.48-.12,5.77-.03,2.3-.04,5.19-.04,8.68,0,1.11.01,2.49.04,4.15.03,1.66.05,3.42.08,5.31.03,1.89.07,3.79.12,5.74.05,1.93.12,3.77.19,5.52.08,1.74.15,3.27.2,4.6.05,1.32.13,2.33.24,2.99-.79-.22-1.48-.4-2.09-.54-.59-.13-1.11-.21-1.53-.21-.83,0-2.09.23-3.76.66.1-.71.22-1.88.36-3.47.12-1.61.26-3.45.39-5.53.13-2.07.26-4.33.39-6.77.14-2.43.25-4.88.35-7.31.11-2.43.19-4.78.24-7.06.05-2.27.08-4.28.08-6.06v-7.26c0-2.29-.02-4.41-.04-6.35-.02-1.93-.07-3.66-.12-5.15-.05-1.5-.1-2.71-.16-3.66h2.36c.56.61,1.16,1.28,1.76,1.99.6.72,1.18,1.41,1.77,2.08,2.98,3.43,6.03,6.95,9.17,10.54,3.14,3.6,6.2,7.09,9.18,10.46,2.99,3.38,5.81,6.56,8.47,9.54,2.67,3,5.07,5.62,7.22,7.89,0-3.49-.01-7.07-.04-10.75-.03-3.68-.05-7.32-.07-10.92-.03-3.59-.1-7.09-.21-10.5-.1-3.4-.23-6.6-.39-9.58,1.57.44,2.72.65,3.45.65.63,0,1.73-.21,3.3-.65-.11,1.32-.24,3.26-.4,5.81-.16,2.55-.29,5.22-.43,8.02-.13,2.79-.25,5.5-.36,8.13-.1,2.63-.15,4.69-.15,6.18v4.86c0,1.85.02,3.82.04,5.89.02,2.08.04,4.15.04,6.22s0,4.03.04,5.86c.02,1.82.05,3.42.07,4.77.03,1.35.05,2.33.05,2.94h-2.2"/><path class="cls-1" d="m177.55,135.65c0-2.83,0-5.46-.04-7.93-.03-2.46-.09-5.1-.19-7.93-1.19,0-2.49.03-3.89.09-1.39.05-2.78.12-4.14.21-1.38.08-2.73.18-4.07.29-1.35.11-2.57.25-3.66.41.14-.71.28-1.38.41-1.99.12-.61.18-1.13.18-1.57,0-.23-.06-.63-.18-1.21-.12-.57-.27-1.25-.41-2.03,3.14.11,6.42.2,9.86.25,3.44.05,6.71.07,9.82.07s6.39-.02,9.83-.07c3.44-.05,6.73-.14,9.86-.25-.15.78-.29,1.46-.41,2.03-.12.58-.18,1.01-.18,1.3,0,.38.06.88.18,1.49.12.61.26,1.27.41,1.99-2.39-.32-5.02-.57-7.88-.74-2.86-.17-5.52-.26-7.95-.26-.05,2.72-.09,5.36-.12,7.93-.02,2.57-.03,5.22-.03,7.93v13.87c0,3.48.07,7.14.21,10.95.13,3.82.29,7.47.47,10.97-.85-.17-1.65-.32-2.4-.43-.74-.11-1.39-.17-1.93-.17s-1.2.05-1.95.17c-.74.1-1.55.26-2.38.43.15-3.5.28-7.14.4-10.97.11-3.81.18-7.46.18-10.95v-13.87"/><path class="cls-1" d="m204.22,135.65c0-3.49-.06-7.12-.18-10.91-.13-3.8-.25-7.42-.42-10.92,1.7.34,3.14.5,4.34.5s2.6-.16,4.33-.5c-.16,3.5-.33,7.13-.46,10.92-.15,3.79-.22,7.43-.22,10.91v13.87c0,3.48.07,7.14.22,10.95.13,3.82.29,7.47.46,10.97-.85-.17-1.64-.32-2.39-.43-.74-.11-1.39-.17-1.94-.17s-1.2.05-1.94.17c-.75.1-1.54.26-2.4.43.16-3.5.29-7.14.42-10.97.12-3.81.18-7.46.18-10.95v-13.87"/><path class="cls-1" d="m265.65,172.34c-5.38-6.69-11.13-13.54-17.25-20.54-6.11-7-12.21-13.91-18.27-20.71l-1.96-2.25c-.06,1.55-.09,3.48-.11,5.77-.03,2.3-.04,5.19-.04,8.68,0,1.11.02,2.49.04,4.15.02,1.66.05,3.42.08,5.31.02,1.89.06,3.79.12,5.74.06,1.93.12,3.77.2,5.52.08,1.74.14,3.27.19,4.6.04,1.32.13,2.33.24,2.99-.79-.22-1.48-.4-2.09-.54-.59-.13-1.1-.21-1.52-.21-.84,0-2.09.23-3.77.66.11-.71.23-1.88.36-3.47.12-1.61.25-3.45.39-5.53.13-2.07.26-4.33.39-6.77.13-2.43.25-4.88.35-7.31.11-2.43.19-4.78.24-7.06.05-2.27.08-4.28.08-6.06v-7.26c0-2.29-.01-4.41-.04-6.35-.03-1.93-.06-3.66-.11-5.15-.05-1.5-.1-2.71-.16-3.66h2.35c.57.61,1.17,1.28,1.77,1.99.6.72,1.19,1.41,1.76,2.08,2.98,3.43,6.04,6.95,9.18,10.54,3.13,3.6,6.19,7.09,9.17,10.46,2.97,3.38,5.81,6.56,8.47,9.54,2.66,3,5.08,5.62,7.21,7.89,0-3.49-.01-7.07-.04-10.75-.02-3.68-.05-7.32-.08-10.92-.02-3.59-.09-7.09-.2-10.5-.1-3.4-.23-6.6-.38-9.58,1.57.44,2.71.65,3.44.65.63,0,1.74-.21,3.31-.65-.11,1.32-.24,3.26-.4,5.81-.16,2.55-.3,5.22-.43,8.02-.12,2.79-.24,5.5-.35,8.13-.1,2.63-.16,4.69-.16,6.18v4.86c0,1.85.02,3.82.05,5.89.04,2.08.04,4.15.04,6.22s0,4.03.04,5.86c.01,1.82.05,3.42.07,4.77.02,1.35.04,2.33.04,2.94h-2.21"/><path class="cls-1" d="m314.11,140.96v-10.12c0-2.94-.03-5.49-.07-7.68-.05-2.19-.11-4.04-.19-5.56-.08-1.52-.19-2.8-.34-3.86.8.22,1.52.38,2.17.46.64.08,1.22.12,1.7.12.32,0,.74-.05,1.29-.16.54-.11,1.09-.27,1.64-.49-.15,1.88-.3,4.18-.42,6.93-.12,2.74-.25,5.66-.37,8.75-.13,3.1-.24,6.31-.34,9.59-.1,3.29-.17,6.41-.23,9.33-.05,3.72-.57,7.05-1.53,10.01-.97,2.95-2.37,5.47-4.19,7.54-1.81,2.08-4.05,3.69-6.69,4.81-2.63,1.14-5.65,1.71-9.04,1.71-7.47,0-12.92-1.95-16.37-5.85-3.43-3.91-5.15-9.93-5.15-18.06,0-1.33.03-2.57.08-3.73.04-1.16.09-2.29.15-3.4.04-.94.09-1.88.11-2.82.02-.94.03-1.88.03-2.82,0-3.82-.03-7.3-.11-10.46-.08-3.15-.15-5.89-.26-8.21,0-.45-.02-1.01-.03-1.7-.02-.69-.04-1.17-.04-1.46.84.17,1.66.3,2.46.38.78.08,1.48.12,2.09.12.45,0,1.02-.04,1.72-.12.7-.08,1.41-.24,2.16-.46-.14,1.27-.27,2.92-.37,4.94-.11,2.02-.19,4.29-.26,6.81-.08,2.52-.13,5.21-.18,8.09-.06,2.88-.07,5.84-.07,8.89,0,1.76,0,3.6.07,5.48.05,1.88.21,3.74.48,5.56.27,1.82.72,3.53,1.34,5.15.63,1.59,1.51,3.01,2.66,4.22,1.14,1.22,2.6,2.19,4.38,2.91,1.76.72,3.94,1.08,6.53,1.08,3.78,0,6.71-.89,8.78-2.65,2.06-1.78,3.57-3.97,4.52-6.6.95-2.63,1.48-5.43,1.64-8.42.15-2.99.22-5.73.22-8.23"/><path class="cls-1" d="m328.28,135.65c0-3.49-.06-7.12-.19-10.91-.11-3.8-.26-7.42-.41-10.92,1.69.34,3.14.5,4.33.5s2.58-.16,4.33-.5c-.18,3.5-.32,7.13-.46,10.92-.13,3.79-.22,7.43-.22,10.91v13.87c0,3.48.09,7.14.22,10.95.14,3.82.28,7.47.46,10.97-.85-.17-1.64-.32-2.39-.43-.75-.11-1.4-.17-1.95-.17s-1.2.05-1.94.17c-.76.1-1.55.26-2.4.43.15-3.5.29-7.14.41-10.97.13-3.81.19-7.46.19-10.95v-13.87"/><path class="cls-1" d="m389.72,172.34c-5.38-6.69-11.14-13.54-17.25-20.54-6.14-7-12.22-13.91-18.28-20.71l-1.97-2.25c-.06,1.55-.09,3.48-.11,5.77-.03,2.3-.04,5.19-.04,8.68,0,1.11.02,2.49.04,4.15.02,1.66.04,3.42.07,5.31.03,1.89.07,3.79.11,5.74.05,1.93.13,3.77.2,5.52.08,1.74.14,3.27.2,4.6.05,1.32.13,2.33.23,2.99-.79-.22-1.47-.4-2.08-.54-.6-.13-1.11-.21-1.53-.21-.83,0-2.09.23-3.77.66.11-.71.24-1.88.36-3.47.12-1.61.26-3.45.39-5.53.13-2.07.26-4.33.39-6.77.14-2.43.26-4.88.36-7.31.1-2.43.18-4.78.24-7.06.05-2.27.08-4.28.08-6.06v-7.26c0-2.29-.02-4.41-.05-6.35-.03-1.93-.06-3.66-.11-5.15-.06-1.5-.12-2.71-.16-3.66h2.35c.57.61,1.16,1.28,1.76,1.99.6.72,1.18,1.41,1.76,2.08,2.98,3.43,6.04,6.95,9.18,10.54,3.14,3.6,6.2,7.09,9.18,10.46,2.98,3.38,5.81,6.56,8.47,9.54,2.66,3,5.07,5.62,7.22,7.89,0-3.49,0-7.07-.04-10.75-.02-3.68-.05-7.32-.07-10.92-.03-3.59-.1-7.09-.2-10.5-.11-3.4-.23-6.6-.39-9.58,1.56.44,2.72.65,3.44.65.63,0,1.73-.21,3.29-.65-.1,1.32-.23,3.26-.39,5.81-.16,2.55-.3,5.22-.43,8.02-.13,2.79-.25,5.5-.35,8.13-.11,2.63-.16,4.69-.16,6.18v4.86c0,1.85,0,3.82.04,5.89.03,2.08.04,4.15.04,6.22s.02,4.03.04,5.86c.03,1.82.05,3.42.08,4.77.02,1.35.03,2.33.03,2.94h-2.19"/><path class="cls-1" d="m442.78,125.43c-.75-.99-1.65-1.96-2.73-2.9-1.07-.94-2.26-1.78-3.58-2.53-1.32-.74-2.76-1.36-4.34-1.83-1.57-.46-3.22-.7-4.96-.7-2.89,0-5.59.5-8.11,1.5-2.51.98-4.7,2.51-6.55,4.57-1.84,2.05-3.29,4.65-4.34,7.84-1.02,3.18-1.56,6.93-1.56,11.25,0,3.81.48,7.25,1.42,10.29.95,3.05,2.32,5.64,4.11,7.76,1.8,2.14,3.99,3.77,6.59,4.91,2.58,1.14,5.52,1.7,8.81,1.7,1.99,0,3.99-.17,6.01-.54,2.01-.36,3.64-.92,4.89-1.7.05-1.49.09-3.04.11-4.61.03-1.58.04-3.15.04-4.7s-.03-3.07-.06-4.56c-.06-1.5-.14-2.96-.24-4.4,0-.28-.01-.79-.04-1.54-.03-.76-.04-1.29-.04-1.62.76.22,1.51.39,2.29.49.77.11,1.4.17,1.9.17.54,0,1.12-.06,1.71-.17.62-.11,1.35-.3,2.25-.57-.1,1.27-.2,3.41-.27,6.43-.07,3.02-.11,6.71-.11,11.08v3.23c0,.61.02,1.26.04,1.95.02.7.04,1.34.04,1.96-1.09.44-2.45.89-4.04,1.37-1.59.47-3.28.91-5.08,1.33-1.79.42-3.57.75-5.34,1.03-1.77.28-3.37.43-4.81.43-4.42,0-8.43-.64-11.96-1.91-3.54-1.27-6.54-3.15-9.03-5.65-2.49-2.48-4.4-5.59-5.75-9.29-1.35-3.72-2.01-7.99-2.01-12.87s.67-8.9,2.06-12.57c1.37-3.68,3.32-6.8,5.86-9.35,2.54-2.54,5.6-4.48,9.18-5.81,3.59-1.33,7.6-1.99,12.03-1.99,2.49,0,4.73.17,6.73.5,1.98.33,3.77.74,5.36,1.24,1.6.5,3.01,1.06,4.24,1.67,1.22.61,2.3,1.19,3.25,1.74-.45.94-.88,2.1-1.31,3.49-.41,1.38-.68,2.68-.79,3.89h-1.86"/><path class="cls-1" d="m126.64,103.78c-2.6,0-5.03-.47-7.23-1.41-2.21-.94-4.15-2.39-5.75-4.32-1.59-1.91-2.85-4.28-3.76-7.03-.9-2.75-1.35-5.92-1.35-9.42s.45-6.67,1.35-9.42c.9-2.76,2.18-5.13,3.81-7.04,1.64-1.92,3.61-3.4,5.88-4.4,2.27-1,4.8-1.51,7.53-1.51,2.16,0,4.17.28,5.96.85,1.78.56,3.38,1.24,4.75,2.03l.33.2-.16.35c-.25.54-.44,1.29-.6,2.23-.16.97-.29,1.79-.39,2.44l-.03.24-.22.09-.29.12-.33.14-.19-.3c-.31-.47-.75-1.01-1.31-1.59-.55-.59-1.22-1.17-1.98-1.73-.74-.55-1.58-1.01-2.52-1.39-.91-.37-1.93-.55-3.03-.55-1.83,0-3.55.38-5.12,1.12-1.56.74-2.93,1.9-4.1,3.46-1.17,1.56-2.1,3.57-2.76,5.99-.66,2.43-1,5.35-1,8.68s.34,6.25,1,8.68c.66,2.41,1.59,4.42,2.76,5.99,1.17,1.55,2.54,2.71,4.1,3.46,1.57.74,3.28,1.12,5.12,1.12,1.1,0,2.13-.17,3.07-.52.95-.36,1.84-.79,2.64-1.28.79-.49,1.52-1.04,2.17-1.61.65-.59,1.21-1.11,1.65-1.55l.34-.34.29.38.19.24.11.14-.02.17-.44,3.62-.02.13-.09.1c-.33.36-.81.74-1.48,1.15-.65.4-1.44.77-2.36,1.08-.89.31-1.91.59-3.02.84-1.12.25-2.3.38-3.52.38"/><path class="cls-1" d="m152.37,97.61c-2.17,0-4.22-.34-6.06-1-1.85-.67-3.47-1.71-4.8-3.08-1.32-1.37-2.37-3.07-3.11-5.04-.73-1.97-1.1-4.24-1.1-6.75s.37-4.77,1.1-6.74c.74-1.98,1.78-3.68,3.11-5.05,1.33-1.37,2.95-2.43,4.8-3.15,1.84-.71,3.89-1.07,6.06-1.07s4.27.36,6.11,1.07c1.85.72,3.46,1.78,4.79,3.15,1.32,1.37,2.37,3.07,3.11,5.05.73,1.97,1.11,4.24,1.11,6.74s-.37,4.78-1.11,6.75c-.74,1.97-1.78,3.67-3.11,5.04-1.33,1.37-2.95,2.41-4.81,3.08-1.84.66-3.89,1-6.1,1m0-29.42c-1.45,0-2.82.26-4.08.79-1.25.52-2.36,1.34-3.29,2.43-.94,1.1-1.69,2.52-2.21,4.2-.54,1.71-.8,3.77-.8,6.12s.27,4.41.8,6.12c.53,1.69,1.27,3.11,2.21,4.2.93,1.09,2.04,1.91,3.29,2.43,1.26.53,2.63.8,4.08.8s2.86-.27,4.13-.8c1.25-.52,2.36-1.34,3.29-2.43.94-1.09,1.68-2.51,2.21-4.2.54-1.71.81-3.76.81-6.12s-.27-4.41-.81-6.12c-.52-1.69-1.27-3.11-2.21-4.2-.93-1.09-2.04-1.91-3.29-2.43-1.26-.53-2.65-.79-4.13-.79"/><path class="cls-1" d="m306.81,97.61c-2.17,0-4.22-.34-6.06-1-1.85-.67-3.47-1.71-4.8-3.08-1.32-1.37-2.37-3.07-3.11-5.04-.73-1.97-1.1-4.24-1.1-6.75s.37-4.77,1.1-6.74c.74-1.98,1.78-3.68,3.11-5.05,1.33-1.37,2.95-2.43,4.8-3.15,1.84-.71,3.89-1.07,6.06-1.07s4.27.36,6.11,1.07c1.85.72,3.46,1.78,4.79,3.15,1.32,1.37,2.37,3.07,3.11,5.05.73,1.97,1.11,4.24,1.11,6.74s-.37,4.78-1.11,6.75c-.74,1.97-1.78,3.67-3.11,5.04-1.33,1.37-2.95,2.41-4.81,3.08-1.84.66-3.89,1-6.1,1m0-29.42c-1.45,0-2.82.26-4.08.79-1.25.52-2.36,1.34-3.29,2.43-.94,1.1-1.69,2.52-2.21,4.2-.54,1.71-.8,3.77-.8,6.12s.27,4.41.8,6.12c.53,1.69,1.27,3.11,2.21,4.2.93,1.09,2.04,1.91,3.29,2.43,1.26.53,2.63.8,4.08.8s2.86-.27,4.13-.8c1.25-.52,2.36-1.34,3.29-2.43.94-1.09,1.68-2.51,2.21-4.2.54-1.71.81-3.76.81-6.12s-.27-4.41-.81-6.12c-.52-1.69-1.27-3.11-2.21-4.2-.93-1.09-2.04-1.91-3.29-2.43-1.26-.53-2.65-.79-4.13-.79"/><path class="cls-1" d="m187.84,97.07l-.59-.03c-1.18-.06-2.38-.09-3.58-.09h-7.23c-1.16,0-2.38.03-3.6.09l-.47.02.02-.47c.08-1.8.15-3.62.21-5.48.07-1.85.1-3.75.1-5.64v-7.48c0-1.89-.03-3.78-.1-5.62-.07-1.84-.14-3.72-.21-5.63l-.02-.53.52.09c.33.05.66.11.96.15.29.04.59.06.88.06s.59-.02.88-.06c.31-.04.63-.09.96-.15l.52-.09-.02.53c-.08,1.91-.15,3.79-.21,5.63-.07,1.83-.1,3.72-.1,5.62,0,3.64.02,6.84.04,9.51.02,2.51.05,4.77.07,6.78,1.71,0,3.35-.02,4.9-.06,1.68-.04,3.51-.21,5.43-.49l.63-.1-.15.62c-.12.49-.18.89-.18,1.2,0,.28.06.64.18,1.06l.16.57"/><path class="cls-1" d="m206.44,97.07l-.59-.03c-1.19-.06-2.39-.09-3.59-.09h-7.23c-1.16,0-2.37.03-3.61.09l-.46.02.02-.47c.08-1.8.15-3.62.21-5.48.07-1.82.1-3.72.1-5.64v-7.48c0-1.92-.04-3.81-.1-5.62-.06-1.84-.14-3.72-.21-5.63l-.02-.53.52.09c.33.05.66.11.96.15.3.04.59.06.89.06s.59-.02.88-.06c.31-.04.63-.09.96-.15l.52-.09-.02.53c-.08,1.91-.15,3.79-.21,5.63-.07,1.84-.1,3.73-.1,5.62,0,3.64.02,6.84.04,9.51.02,2.51.05,4.77.07,6.78,1.7,0,3.35-.03,4.9-.06,1.68-.04,3.51-.21,5.43-.49l.63-.1-.16.62c-.12.49-.18.89-.18,1.2,0,.28.06.63.18,1.06l.16.57"/><path class="cls-1" d="m226.31,97.07l-.6-.03c-1.3-.05-2.6-.08-3.88-.08h-7.9c-1.29,0-2.62.03-3.94.08l-.47.02.02-.46c.09-1.86.17-3.71.24-5.54.07-1.83.1-3.72.1-5.62v-7.49c0-1.9-.04-3.8-.1-5.64-.07-1.86-.16-3.71-.24-5.57l-.02-.47.47.02c1.3.06,2.6.11,3.89.15,1.28.04,2.59.06,3.88.06s2.59-.02,3.86-.06c1.27-.05,2.57-.1,3.87-.15l.54-.03-.11.53c-.08.41-.12.82-.12,1.22s.04.81.12,1.22l.11.54-.55-.03c-.93-.06-1.78-.11-2.55-.17-.76-.06-1.58-.12-2.43-.18-.9-.06-1.83-.11-2.8-.15-.91-.04-1.99-.06-3.23-.07-.02.78-.06,1.53-.09,2.25-.04.81-.07,1.77-.07,2.85s0,2.23.02,3.3c.01.83.02,1.5.02,2.02,1.08,0,2.09-.02,3-.04,1.05-.03,1.96-.06,2.78-.11.84-.04,1.61-.09,2.32-.13.68-.04,1.36-.09,2.01-.15l.57-.05-.11.56c-.08.4-.12.83-.12,1.27,0,.41.04.82.12,1.22l.12.57-.58-.07c-.75-.09-1.64-.16-2.61-.22-.99-.06-2-.09-2.98-.11-1-.01-1.95-.03-2.83-.04-.66-.01-1.23-.02-1.68-.02,0,.14-.01.29-.02.44-.01.28-.02.64-.02,1.13v4.31c0,1.78,0,3.08.02,4.09.01.81.03,1.49.05,2.02h2.64c1.11,0,2.19-.02,3.22-.06,1.06-.04,2.06-.1,2.99-.18.92-.07,1.73-.17,2.41-.31l.69-.15-.2.68c-.05.17-.08.37-.09.58-.02.24-.02.46-.02.65,0,.42.04.76.11,1.01l.18.57"/><path class="cls-1" d="m245.74,97.61c-2.36,0-4.52-.32-6.42-.95-1.92-.64-3.58-1.66-4.92-3-1.34-1.34-2.39-3.03-3.12-5.03-.72-1.98-1.08-4.3-1.08-6.89s.38-4.78,1.13-6.75c.75-1.98,1.83-3.67,3.19-5.05,1.38-1.37,3.05-2.43,4.99-3.14,1.94-.71,4.1-1.07,6.43-1.07,1.34,0,2.56.09,3.61.25,1.05.16,1.99.38,2.81.65.8.27,1.53.55,2.15.85.63.3,1.16.58,1.63.84l.36.2-.19.37c-.19.37-.37.87-.54,1.48-.16.61-.27,1.19-.32,1.71l-.04.39h-1.07l-.13-.17c-.37-.5-.85-1.01-1.41-1.5-.56-.5-1.19-.94-1.88-1.32-.68-.37-1.45-.68-2.3-.92-.84-.24-1.74-.35-2.69-.35-1.56,0-3.02.27-4.37.8-1.33.52-2.5,1.34-3.48,2.43-.98,1.1-1.77,2.51-2.34,4.2-.57,1.7-.86,3.76-.86,6.11,0,2.07.26,3.96.77,5.62.5,1.65,1.24,3.05,2.21,4.18.96,1.12,2.14,2,3.53,2.61,1.38.61,2.98.92,4.74.92.53,0,1.1-.03,1.69-.08.58-.06,1.14-.14,1.69-.26.54-.11,1.05-.25,1.51-.42.37-.13.69-.28.96-.45.02-.79.04-1.58.05-2.38,0-.87.02-1.74.02-2.65,0-1.01-.02-2.03-.06-3.03-.04-1.01-.08-1.98-.13-2.9l-.04-.56.55.12c.62.14,1.22.21,1.79.21.26,0,.54-.01.82-.04.26-.02.5-.08.73-.15l.61-.2-.05.64c-.05.65-.09,1.7-.12,3.13-.03,1.41-.04,3.27-.04,5.67,0,.58,0,1.16.02,1.76.01.6.02,1.19.02,1.77v.28l-.26.11c-.57.24-1.27.48-2.1.74-.83.25-1.73.46-2.67.62-.91.16-1.85.3-2.79.43-.94.13-1.81.2-2.59.2"/><path class="cls-1" d="m279.38,97.07l-.6-.03c-1.28-.05-2.58-.08-3.87-.08h-7.91c-1.31,0-2.63.03-3.94.08l-.46.02.02-.46c.09-1.86.16-3.71.24-5.54.07-1.83.11-3.72.11-5.62v-7.49c0-1.9-.04-3.8-.11-5.64-.07-1.86-.15-3.71-.24-5.57l-.02-.47.46.02c1.3.06,2.6.11,3.89.15,1.26.04,2.57.06,3.88.06s2.61-.02,3.86-.06c1.27-.05,2.56-.09,3.87-.15l.54-.03-.11.53c-.08.4-.12.82-.12,1.22s.04.81.12,1.22l.11.54-.55-.03c-.93-.06-1.78-.11-2.55-.17-.77-.06-1.58-.12-2.43-.17-.9-.06-1.84-.11-2.79-.15-.9-.04-1.98-.06-3.23-.07-.03.78-.06,1.53-.09,2.25-.05.83-.07,1.79-.07,2.85,0,1.13,0,2.23.02,3.3.01.83.02,1.5.02,2.02,1.1,0,2.11-.02,3-.04,1.02-.03,1.95-.06,2.78-.11.84-.04,1.62-.09,2.32-.13.67-.04,1.34-.09,2.01-.15l.57-.05-.11.56c-.09.41-.12.83-.12,1.27,0,.4.04.81.12,1.22l.11.57-.58-.07c-.75-.09-1.63-.16-2.61-.22-.99-.06-1.99-.09-2.99-.11-1-.01-1.95-.03-2.83-.04-.66-.01-1.22-.02-1.69-.02,0,.14,0,.29-.02.45-.01.3-.02.67-.02,1.13v4.31c0,1.65,0,3.01.02,4.09.01.85.03,1.51.05,2.02h2.64c1.09,0,2.18-.02,3.23-.06,1.07-.04,2.08-.1,2.98-.18.92-.07,1.72-.17,2.41-.31l.69-.15-.19.68c-.05.17-.08.37-.09.59-.01.24-.02.46-.02.65,0,.42.03.76.11,1.01l.17.57"/><path class="cls-1" d="m329.98,88.39c-.04,4.45.13,6.33.36,9.03-.72-.13-1.39-.27-2.65-.27s-1.75.13-2.47.27c.31-4.58.49-9.39.49-15.23,0-4.36-.13-11.5-.36-15.81,2.51.27,3.86.27,7.23.27,6.02,0,7.59-.09,9.25-.27-.09.49-.18.9-.18,1.57s.09,1.41.18,1.86c-1.93-.27-5.21-.63-8.89-.63-.9,0-1.84,0-2.87.04-.09,1.8-.09,2.23-.09,4.88,0,2.92,0,3.37.04,5.75,3.68.04,7.99,0,10.87-.36-.09.49-.18.99-.18,1.66,0,.63.09,1.29.18,1.74-2.61-.4-5.43-.49-7.32-.49-1.3,0-2.43.04-3.55.09l-.04,5.9Z"/></svg>