<svg xmlns="http://www.w3.org/2000/svg" viewBox="0 0 150 150" height="150" width="150"><path d="M54.4 65a154.8 154.8 0 0 1 51.8 1.6l-.5 1.5c-1.2-.2-17-3-31-3-13.9-.1-29.3 2.8-30.5 3l-.6-1.5c.7-.1 5-1 10.8-1.7zm0-.2c-6.3.8-10.8 1.6-10.9 1.6l.5 2h.1c.2 0 16.2-3.3 30.7-3.1 14.4 0 30.8 3 31 3l.6-1.9c-.2 0-17.2-3-31.6-3-6-.1-12.8.4-20.5 1.4" fill="#1e3d6a"/><path d="M42.7 65l.7-.1a276 276 0 0 1 19.3-3l-3 .1a232 232 0 0 0-17.3 2.5l-.2.4.1.2.3.3 1 1.1a24 24 0 0 0-.7-1.3zm64.8-.4l-.8-.2a258.7 258.7 0 0 0-29.1-3.2c-6.2-.1-9.7.2-14.9.8a171.2 171.2 0 0 1 44 2.9h.4l-.2.3-.4.7-.2.3-2.6-.4-5.3-.7s-8.3-1.2-17.6-1.7a138.3 138.3 0 0 0-37.3 3.1l14.8-1.9a138 138 0 0 1 22.5-.7 219.4 219.4 0 0 0 25.4 2.9l.3-.1v-.1l.2-.2.2-.3.4-.6.2-.3.1-.2c0-.2.2.3 0-.4zm-18.4 0l-8.3-.6s-4-.2-8.4-.1a162.3 162.3 0 0 0-17.7 1.5l7-.6c1.6-.2 6.4-.6 10.7-.6a188.4 188.4 0 0 1 27.3 2l7 .9a254.7 254.7 0 0 0-17.6-2.4" fill="#1e3d6a"/><path d="M44.1 68.8l4.1-.5a228.3 228.3 0 0 1 22.4-2.7A172.5 172.5 0 0 0 44 68.8M74.8 88.2c-2.7-.2-4.5-.3-7.6-.2-3.4 0-20.4 1.3-20.4 1.5h-.7l.3.3v-.4-.4-1.1-1.2l-.2.2a67 67 0 0 1 5-.6A234.2 234.2 0 0 1 70 84.8c-2.7-.1-4.4-.2-7.6 0a227.7 227.7 0 0 0-16.3 1.6H46l-.2.3V89.8l.3.3.7-.1a287.4 287.4 0 0 1 27.9-1.8" fill="#1e3d6a"/><path d="M70 84.8l9 .2a283.7 283.7 0 0 1 24.4 1.9H103.7l-.2-.2v3.1l.3-.2-.9-.1-1.8-.2-4-.3c-5.4-.5-11.4-.8-13.4-.8a97 97 0 0 0-9 0l9 .5a369.6 369.6 0 0 1 19.2 1.3h.8c.5-.4.2 0 .3-.2V89v-2.4l-.2-.3h-.8a297.3 297.3 0 0 0-24-1.8c-3.7-.1-5.8 0-9 .2M45.9 85.6c0 .4 0 .7.2 1 .3.2.6 0 1 0l2-.2a247.8 247.8 0 0 1-2.1 0c-.3 0-.7.2-.8.1-.2-.2-.2-.5-.3-.9" fill="#1e3d6a"/><path d="M74.8 84.7l4 .4a314 314 0 0 1 24 1.6c.3 0 .5.2 1 0 .2-.4.1-.7.2-1l-.4.8-.8-.2-2-.3a330.7 330.7 0 0 0-22-1.5c-1.7 0-2.6 0-4 .2M61.2 58.5l-.4 1-.1.4H46.1 30c1.5.2 2.5.3 4.4.3H46a11411.2 11411.2 0 0 0 14.1 0l.5-.1c.3-.2.2-.3.2-.5l.3-1" fill="#1e3d6a"/><path d="M30 60l-.6-1-.2-.4-.1-.1-.1.2h27.6c2 0 3 0 4.6-.2l-4.6-.2H44.2 29l-.2.3.1.1.4.4.7.9M30 60.6v.2h30.7v-.2H30M88.7 58.5l.2 1c.1.3 0 .4.3.6h14.5A11415 11415 0 0 0 120 60l-4.4-.2h-11.8-14.5l-.1-.3-.4-1" fill="#1e3d6a"/><path d="M119.9 60l.7-.9.4-.4s-.2-.5 0-.3h-.5l-2.4-.1h-12.4-12.4c-2 0-3 0-4.6.2 1.6.2 2.7.3 4.6.3h27.5v-.1h.1l-.1-.3v.2l-.4.4-.5 1M89.1 60.6v.2H120v-.2H89M63.6 87.6h-.8l-.2-.4-.1-.3-.2-.4H64l1-.2H62.2c-.2.2 0 .2 0 .3l.1.3.2.4.1.3c.4.2.6 0 1 .1.6 0 1.4.2 1.5-.2l.1-1-.2 1c.2.2-.9 0-1.4 0zm2-1.8c-.2 0 0 0-.2-.3h-2.2l-1 .1 1 .1h2v.4h-3.1v-.4c0 .2-.2.4 0 .5H65.4c.2-.1 0-.1.1-.4" fill="#1e3d6a"/><path d="M62.8 87.7l.8.1h1.3v.3c0 .1 0 .4.1.2h-2.2v-.1l-.1-.4V88.4c.1.2 0 0 .2 0H65c.2 0 0 0 0-.3v-.3c0-.3-.2 0-.3-.1H62.8M85.5 87.6h-.8l-.2-.4-.1-.3-.2-.4H86l1-.2h-2.9c-.2.2 0 .2 0 .3l.2.3.1.4a61.7 61.7 0 0 0 .5.4h-.2l.8.1h1.3v.5h-2.1v-.1-.4l-.2.4v.2c.2.2.2 0 .3 0H87c.2 0 0 0 0-.3v-.3-.1l.1-.2.1-1-.2 1c.2.2-.9 0-1.4 0zm2-1.8l-.2-.3H85l-1 .1 1 .1h2.1v.4H84v-.4c0 .2-.2.4 0 .5H87.3c.2-.1 0-.1.1-.4M69.3 52.2c-.5-.6-1.2-.5-1.2-.5s-.7 0-1.1.5c-.5.6-.3 1.4-.4 1.6l.1 1 .2-1c0-.2-.2-1 .2-1.5s1-.4 1-.4.6 0 1 .4l.2.3h-.4c-.8 0-1.4.5-1.4 1.3v1h2l.1-1.1c0-.2.2-1-.3-1.6M59 57l-.1-.3V56.9zm8.4-.6h-4H58.4l-.2-.6c0 .3 0 .5.2.8H68.9l-1.5-.2zm-8.9-.6h7.2l2.7-.1-2.7-.2h-7.2c.1 0-.5.2-.6-.2l-.2-.4H63c1.2 0 1.8 0 2.7-.2l-2.6-.1h-5.3-.3c-.1 0-.2.2-.1.3v.2l.3.4.3.3H58.5M30.6 60.7l-.1.3V63l.1-.3v-.8-.8-.3M82.4 52.2c-.5-.6-1.2-.5-1.2-.5s-.7 0-1.1.5c-.5.6-.3 1.4-.4 1.6l.1 1h2v-1a1.4 1.4 0 0 0-1.7-1.2l.1-.3c.4-.5 1-.4 1-.4s.6 0 1 .4c.4.5.3 1.3.3 1.5l.1 1 .1-1c0-.2.2-1-.3-1.6" fill="#1e3d6a"/><path d="M90.9 56.4H86 82l-1.5.1 1.5.2h8.5l-.1.2V58.8l.2-.3v-.8-.8l-.1-.2h.4c.2-.4.1-.6.2-.9l-.2.6zm-7.3-1.8l-3 .1 3 .2h8.2l-.5.7H84a43.5 43.5 0 0 0 4.7.2h2.6c.7-.5.6-.9.7-1 0-.4-7 0-8.4-.2" fill="#1e3d6a"/><path d="M84.4 49l-.6.6H83.2l-1-.2-3.1-.7-1.3-.2-1-.2.6-.7v-.1l.1-.1c0-.1 0 0 0 0l1.9.4 3.2.7 1.7.4h.2l-.1.1zm-.8 5.7H80a7 7 0 0 0-.7-1.8c-.3-.5-1-1.6-2.2-2.2v-2.2l.7.1 1.3.4c.5 0 1.9.4 3.2.7l1 .2h.4v4.8zm-4 .1h-1.5-.1c-.1-.4-.2-.7-.5-1.1-.1-.3-.6-1-1.4-1.4-.7-.5-1.5-.4-1.5-.5 0 0-.8 0-1.5.5-.7.4-1.2 1.1-1.4 1.4l-.4 1.1h-1.6v-.5l.7-1.2c.2-.4 1-1.5 2-2.1 1-.7 2.2-.6 2.2-.6s1.2 0 2.2.6c1.1.6 1.9 1.7 2 2.1l1 1.7zm-10.1 0h-3.8V50l.5-.1 1-.2a966 966 0 0 0 5.1-1.2v2.1A6 6 0 0 0 70 53c-.3.6-.5 1-.5 1.4l-.1.4zM65 49l1.7-.5L70 48l1.9-.6c-.1.2 0 0 0 0v.1l.1.2c.2.4.4.6.7.8 0-.3-.2-.6-.4-1H77l-.3 1 .1-.1v2.3c-1-.6-2.2-.6-2.2-.6s-1 0-2 .5v-2.2h-.2l-.6.1-1.5.2-3.2.7-1 .2-.4.1h-.2L65 49zm19.7-.3l-.3-.1-1.7-.4-3.2-.6-2-.3-.1-.2h-2.7H72v.2c-.8 0-1.3 0-2.1.2l-3.2.7-1.8.4h-.3c-.2.1-.2.3-.1.4v.1l.2.2a171.4 171.4 0 0 0 .8.6v5H68.7l1 .1h2.1v.3h-3.1l-.1-.3c0 .2-.2.3 0 .5H72c.2-.2.1-.1.1-.4 0-.1.2 0 0-.3h-.7l.6-1c.1-.3.6-1 1.3-1.4.7-.4 1.4-.4 1.4-.4s.8 0 1.4.4c.7.4 1.2 1.1 1.4 1.4l.5 1h-.4l-.2.3.1.5h3.3c.3-.3 0-.4 0-.6v.4h-3.2V55h2.2l1-.2h-.2 3.3v-5l.2-.1.6-.6.1-.1.1-.1v-.3zm-5 11.8v.9h-1.6l.8.2c.1-.1.6.2 1-.2v-.9-2-.7l-.1.7v2zm-8.6 0v.9h-1.6l.7.2c.2-.1.7.2 1.1-.2v-.9-2-.7l-.2.7v2zm9.3-5h-1.6l-1.1.1 1 .1h1.8l-.1.5-.2.3-.2.4h-.7c-.6 0-1.6 0-1.4-.1l-.3-1 .1 1 .1.2v.4c0 .2-.1.2 0 .4h.2v3l.1.7c.2-.3.2-.5.2-.8v-2-.7h.9c.3 0 .4 0 .7-.2l.3-.1v-.2-.4l-.1.4v.1h-.2-.6-.6-.8v-.2-.3h2.2-.2l.3-.2.1-.3.2-.4.1-.4s.2 0 0-.2zM70 57h-.8l-.1-.4-.2-.3-.1-.4h1.7l1-.2h-2.9c-.1.2 0 .1 0 .2l.2.4.1.4a145.3 145.3 0 0 0 .5.4h-.2l.8.1h1.4v.5h-.8-.2-1.2v-.1-.4l-.1.4v.2h.1v3.1c0 .2 0 .4.2.7l.2-.8v-2-.7h.8c.3 0 .5 0 .7-.2h.3c.2-.2 0-.2.1-.4v-.3-.1-.2l.1-1-.2 1h-1.4" fill="#1e3d6a"/><path d="M72.7 48.3l.5.1h3l.5-.1h-2-2M32.5 83.7l.2-3.5v-9.7-.3-.5l-.2.1h8.8l3.5-.1c-1.2-.2-2-.2-3.5-.2h-8.8l-.2.2v10.5c0 1.4 0 2.3.2 3.5" fill="#1e3d6a"/><path d="M32.7 70.2l1.6.2h8.9c.7 0 1 0 1.6-.2l-1.6-.2h-4.4-4.5l-1.6.2M32.1 65.6l1.4.2h3.8a1019.6 1019.6 0 0 0 5.1-.2l-1.4-.2h-3.7-3.8c-.6 0-.9 0-1.4.2M32.1 66.3l1.5.2h8c.7 0 1 0 1.6-.2l-1.5-.1h-4-4l-1.6.1M117.4 83.3l.2-3.4v-9.5-.3-.4l-.2-.2H114a1131.5 1131.5 0 0 0-8.8.2l3.5.1h8.6s.3.2 0-.1v13.6" fill="#1e3d6a"/><path d="M117.4 70.2l-1.7-.2h-4.4-4.4l-1.7.2 1.7.2h8.8c.7 0 1.1 0 1.7-.2M118 65.6l-1.5-.2h-3.7-3.8c-.6 0-.9 0-1.4.2l1.4.2h3.8a1020.5 1020.5 0 0 0 5.1-.2M118 66.3l-1.5-.1h-4-4.1l-1.5.1 1.5.2h8c.7 0 1 0 1.5-.2" fill="#1e3d6a"/><path d="M102 83.3h-.2l.1-1.7 2 .2.2 1.8-2.1-.3zM99.4 81l2.3.2-2.1-.2zm-5.5-.7h.3l2.2.3-2.5-.2zm-3.3-.3l3 .2v.1l-3-.3zm-3.6-.3l3.3.2v.1l-3.3-.3zm-.4 0l-2.5-.2 2.7.1h.1v.1h-.3zm-13-.6h-1.4l2.6-.2h-2.6v-.6h2.9v.6h-.3.3v.2h-1.6zM69 79a36.7 36.7 0 0 1 2.8 0c-1 0-1.8 0-2.8.2zm-.6-.2l-.1-.2-.1.2-2.5.1v-.4l6-.3v.5a45 45 0 0 0-2.7 0l-.1-.3-.2.4h-.3zM55 80.6c0 .7 0 1.2.2 1.8l-5.2.6h-.4l.1-1.7V81h.3l.1 1.8.1-1.8 1.8-.3.2 1.8.2-1.8h.2c0 .6 0 1 .2 1.6l.1-1.7 2-.3v.2zM47 83.3l-1.3.2.1-1.8v-.1l.8-.1.2 1.7.2-1.7h.2l.2 1.5.1-1.6a26.4 26.4 0 0 0 1.7-.2l.1 1.8-2.3.3zm-1.2-2h.8l-.8.2zm0-.7l.8-.1v.7l-.8.1v-.7zm0-4v-1h.8v4.8l-.8.2v-4zm0-1.3l.8-.2v.3l-.8.2v-.3zm0-5.3l1.6-.3-.2 1.8v2h-.2v-1.9c0-.7 0-1.1-.2-1.8l-.2 1.8v2l-.8.2v-2.1l-.1-1.7zm3-.5l3.8-.6-.2 1.8v2l-.2.1V71c0-.7 0-1.2-.2-1.8A9 9 0 0 0 52 71v2l-1.8.2v-1.9l-.1-1.8-.1 1.8v2h-.3v-1.8a9 9 0 0 0-.2-1.8l-.1 1.8v1.8l-1.7.3v-2l-.1-1.8 1.4-.2zm5.5-.8l1.2-.1-.1 1.8v2h-.3v-1.8l-.1-1.9c-.2.7-.2 1.1-.2 1.9v2h-.3l-1.8.2v-2l-.1-1.9 1.7-.2zm7.7-.8l3.6-.3-.1 1.6v2.4h-.2v-2.2l-.2-1.6-.2 1.6v2.2l-2.8.2v-2.1l-.1-1.8zm6.7.8v2.7h-.2V69c0-.6 0-.9-.2-1.3l-.2 1.3v2.5l-2.3.2v-2.4c0-.7 0-1-.2-1.6l3.2-.2v1.3zm-13 1.7l-.2-1.8 6.5-.7-.2 1.8v2.1h-.2v-2c0-.7 0-1.1-.2-1.7l-.2 1.8v2l-2.6.2v-2l-.1-1.8-.2 1.8v2h-.2v-1.8a9 9 0 0 0-.2-1.9l-.2 1.9v1.9l-2 .2v-2zm15.7 1.3a192.5 192.5 0 0 1 32.3 2.3h.2v1h-.7l-1.2-.2-2.4-.3-6-.7a211 211 0 0 0-20-1.3 173.8 173.8 0 0 0-27.8 2.4v-.8a266.6 266.6 0 0 1 3.7-.5l5-.7s8-1 16.9-1.2zm4-2.9v-.6l1.8.1v3.1h-1.8v-2.6zm3.4-.4h1.4v3.1l-2.7-.1v-2.5-.5h1.3zm1.6-.7zm21.4 2.5V70h.4l1.2.3h.5l.1.1v.5l-2.2-.7zm-2.5.8v-.7l1 .2 1.3.2v2.8l-1-.2-1.3-.1V71zm-2.8-.3v-.8l2.6.4V73c-.9 0-1.7-.2-2.6-.3v-2.1zm-2.7-.4v-.7l2.5.3v2.8l-2.5-.2v-2.2zm-3.3-.4v-.7l3 .3v3h-.4l-2.6-.3v-2.3zm-3.5-.4v-.6a43 43 0 0 1 3.2.3V72L87 72v-2.4zM87 68v.2l-2.9-.2V68l3 .2zm12.4 1.5a71.8 71.8 0 0 1 0 .2v-.2zm-2.7-.4l2.6.4v.1a105.4 105.4 0 0 0-2.6-.5zm-2.8-.4l2.7.4v.2l-2.7-.4v-.2zm-3.5-.2h-.6a46.8 46.8 0 0 0 .7-.2v.2zm.2-.2l.5.1 2.7.3v.2a268 268 0 0 0-3.2-.4v-.2zM84 69v-.3l2.7.2v3l-2.7-.2V69zm-3.5-.1v-.4c1 0 2 0 3.2.2v3l-3.2-.2v-2.6zm23.4 5h-.1a76 76 0 0 0-2-.3v-2-.9l2.2.2v3zm-1.8 7.4l1.4.2h.4v.2l-2-.4h.2zm-.3-.9l2 .2v.6h-.2l-1.4-.3h-.4v-.5zm-2.5-.3l2.3.3v.5l-2.2-.3V80zm-5.5-.6l2.5.3v.4l-2.2-.2h-.3v-.5zm-3.3-.3l3 .3v.4l-3-.3v-.4zm-3.5-.3l3 .2h.2v.5l-3.2-.3v-.4zm-3 .2l-.2-.3-.1.3-3.2-.1v-.5c2.4 0 4.6.2 6.2.4v.4l-2.7-.2zm-3.5.1l3.2.2v.1l-3.2-.2zm-3-.1l2.7.1v.1l-2.7-.1zm-.3 0h-1.8V79h1.8zm-1.4-.8h1.4v.6h-1.8v-.6h.4zm1.7 0l2.7.2v.4h-2.7v-.5zM99.4 76v-.6l1.3.1 1 .2V80c-.8 0-1.5-.2-2.3-.3V76zm-2.8-.3V75l2.5.3v4.5l-2.5-.4v-3.7zm-2.7-.4v-.6l2.5.3v4.4a83 83 0 0 0-2.5-.3v-3.8zm-3.3-.5v-.5l3 .4V79l-3-.3v-4zm-3.5-.7a61.7 61.7 0 0 1 3.2.2v4.5H90l-3-.3v-.1V74zm-8.9-1h-.6.6zm25.7 5.5v2l-2-.4v-3.7-.8l2 .2v2.7zm-.2-3h.2l-.7-.1zm-38.3 2.6v-4.4-.1h.2v4.5h-.2zm-.1.9v-.5h.3v.4h-.3zm-18 1.3v.6h-.2v-.6h.2zm2-5.6v.1l-1.7.3V75l1.7-.2zm.6-.1v.1h-.3l.3-.1zm2-.3v.2l-1.8.2v-.2l1.8-.2zm.6 0v.1h-.2v-.2h.2zM55 74v.2l-2.1.3v-.2l2-.3zm.6 0v.2h-.3V74h.3zm2.3-.3v.2l-2 .2V74l2-.2zm.6 0v.1h-.2v-.1h.2zm3-.3v.2H60l-1.4.2v-.2l2.6-.2zm.5 0v.1h-.2v-.1h.2zm.3 5.4l2.8-.2v.5l-2.8.2v-.5zm-.5 0h.2v.5h-.2v-.5zm-3 .3l2.6-.2v.4l-1.2.1-1.4.2V79zm-.5 0h.2v.5h-.2v-.4zm-2.5.3l1.8-.2h.3v.5l-2 .2v-.5zm-.5 0h.3v.5h-.3v-.4zm-2.4.3l2-.2v.5l-2 .2v-.5zm-3.5.5v.5l-1.7.3v-.6l1.7-.2zm.6-4v3.7h-.3v-3.6-1h.3v.9zm2-.3v3.6l-1.8.3v-3.6-1l1.8-.3v1zm.4 3.9h.2v.5h-.2v-.5zM50 80l1.8-.2v.5l-1.8.3V80zm-.5.1h.3v.5h-.3v-.5zm3-4.4v3.8h-.3v-3.6-1h.2v.8zm2.3-.1v3.6l-2.1.2v-3.7-.9l2-.2v1zm.6-.2v3.7h-.3v-3.5-1h.3v.8zm2.3-.2v3.6h-.3l-1.8.3v-3.7-1l2.1-.1v.9zm.6-.2v3.8h-.2v-3.6-1h.2v.8zm3-.3v3.8l-2.7.2V75v-.8a21.6 21.6 0 0 1 2.6-.3v.8zm.5 3.8h-.2v-3.8-.8h.2v4.6zm-14.3-2.2v-.8l1.7-.2V80c-.6 0-1.1.2-1.7.3v-4zM65 73.8v4.4l-2.8.2v-3.9-.6l2.8-.2v.1zm0-.7v.2l-2.8.2v-.2l2.8-.2zm.6 0v.2h-.2v-.2h.2zm2.6 0l-2.3.2V73l2.3-.1v.1zm.9-.2h2.8v.2H69v-.2zm-.3.2h-.2V73h.2v.2zm-21.5 2v.2h-.2v-.2h.2zm-.2 1.4v-1h.2v4.8h-.2v-3.8zM75.5 78l-.2-.5-.2.5h-2.9c0-.2 0-.3-.2-.5l-.1.5-6 .3V78v-4.4l2.3-.1a863 863 0 0 0 .2 3.8l.2-1.3v-2.5h.2v2.3c0 .5 0 .8.2 1.3v-1.3-2.3h1.8l1-.1v2l.2 1.3c.2-.4.2-.7.2-1.2v-2.1l2.6-.2-2.6-.1v-.3H75h-.2l.3.1v2.6c0 .5 0 .8.2 1.2l.2-1.2v-2.6l1.8.2v.1l-1.8.2 1.8.2a287.4 287.4 0 0 0 .1 3.3l.2-1.3v-2l1.8.1h1V77c.2-.5.2-.8.2-1.3v-1.9l3.2.2V76l.1 1.3.2-1.3v-2.2l2.7.2V78.5a191 191 0 0 0-6.2-.4l-.1-.6-.2.6h-2.7c0-.3 0-.4-.2-.6l-.1.5H75.5zM99 81l-2.5-.2v-.1c.9 0 1.7.2 2.5.3zm-2.5-.7v-.4l2.5.3v.4l-2.5-.3zm8.2-10.4l-2.3-.4A166.7 166.7 0 0 0 91 68L80 67.1h-5.1l1.2.2h-.7a41.6 41.6 0 0 0 5.2.4v.2a26.7 26.7 0 0 0-3 0v-.3l-.1.3-2 .1-.1-.4-.1.5h-.3.3l-.1.7v2.5h-2.9a302.9 302.9 0 0 0-.2-3.7l-.1 1.2v2.5h-.4l-2.4.1a350 350 0 0 0-.1-4l5.8-.2a103.2 103.2 0 0 0-20.4 1.2 181.3 181.3 0 0 0-8.5 1.2l-.7.2H45l-.2-.4-.3-.6-.2-.4C52 66.9 59 66.2 59 66.2s7.1-.8 15-.9c7.8 0 16.4 1 19.2 1.3 5.2.7 8.2 1 12.6 1.7A177.9 177.9 0 0 0 74 65c-7.9 0-15 .9-15 .9s-7.1.7-14.9 2.2a2 2 0 0 0-.2.2v.1l.2.2.1.3.4.7.1.3.3.2h.7l-.1 1.6v2.1l-.2.2v1.1c-.2 0 .1.2.2.2V81.6c0 .8 0 1.3.2 2h-.4c-.2 0-.3.1-.3.3v.2l.3.7.2.7.3.1h.6l1.1-.2 2-.1a289.5 289.5 0 0 1 23.5-1.6h.6c7.5 0 15.6.6 18.4.8l8 .7c1.6.2 2.7 0 3.9.4l-1-.3h1-1.7c-.6-.2-1.3-.2-2.1-.3l-1.4-.2-6.7-.6c-2.7-.2-11-.8-18.4-.8h-2.9a227 227 0 0 0-21.2 1.4l-2.3.3-.9.1-.5.1-.2-.6-.2-.7.3-.1 1.4-.2A168.2 168.2 0 0 1 62.7 82l12-.5a118 118 0 0 0-19.5.8h-.1l.1-1.8v-.2h.3l.1 1.8.1-1.8.6-.1 1.5-.2.2 1.8.2-1.8h.2c0 .6 0 1 .2 1.7V80l2.7-.2.2 1.6.2-1.6h.2l.2 1.4.1-1.5a54.6 54.6 0 0 1 3-.2v0h.5V79.3l1.4-.1h-.7l1.8-.1V81c0 .2 0 .3.2.4l.2-.4v-1-.8h.2V81s0 .2.2.3v-.4-1-.5l2.9.1v1.3l.1.5c.2-.2.2-.3.2-.5v-1.3H75.1v1.3c0 .2 0 .3.2.5l.2-.5v-1.2h1.8V81l.1.5.2-.5v-1.4l2.7.2v1.2c0 .2 0 .3.2.5l.1-.5v-1.2l3.2.2v1.3l.1.4.2-.4v-1-.3a96.1 96.1 0 0 1 6.2.5l.1 1.2.1-1.2 3 .3.2 1.4.2-1.4 2.5.3.1 1.6.1-1.6 2.6.3v1.5c.2-.5.2-1 .2-1.5h.1l2.2.3v1.6A327.9 327.9 0 0 0 79 81.5h-4.2a270 270 0 0 1 29.4 2.3h.2v.6l.3-.4-.2-.4h-.3v-.4.1l.1-1.7.2-.2v-.7h-.2v-2-2.8h.4a9 9 0 0 0-.3 0v-.5-.4-.6-.4-1.8.2l.2-2v-.1l-.2-.2h.3c.7-.5.7-1.2 1-1.8-.3.5-.7 1.4-1 1.5" fill="#1e3d6a"/><path d="M74.7 57.3l-.7-.7h1.4l-.7.7M73.4 56l-.7-.6.7-.8v1.5M75.4 54H74l.7-.6.7.7M76 56v-1.4l.7.8-.7.7M74 56.6h-.6v-.5l.6.5M76 54.6l-.6-.5h.6v.5M76 56.6h-.6l.6-.5v.5M73.4 54.6v-.5h.6l-.6.5" fill="#475783"/><path d="M74.7 55.9h-.5v-1h1v1h-.5zm1.3-1.2h-.7v-.6l-.6.6-.5-.6H74v.6h-.7v.1l.6.6-.6.5h.7v.7l.6-.5.5.5h.1V56h.7v-.1l-.6-.5.6-.6" fill="#1e3d6a"/><path d="M72.4 55.3a2.3 2.3 0 1 1 4.6 0 2.3 2.3 0 0 1-4.6 0zm0 0a2.4 2.4 0 1 0 4.7 0 2.4 2.4 0 0 0-4.8 0" fill="#1e3d6a"/><path d="M72.7 55.3a2 2 0 1 1 4 0 2 2 0 0 1-4 0zm0 0a2 2 0 0 0 4 0 2 2 0 0 0-4 0" fill="#1e3d6a"/><path d="M72.4 56.3l.1.2V61H77v-4.5-.2 4.8h-4.5v-4.8zm0-.9v5.8H77v-5.8H77v.1c0 .4 0 .7-.2 1v4.4h-4.2v-4.4l-.2-1M61.7 103.4l3.7.2h10a6478.6 6478.6 0 0 0 12.1 0c.3 0 .7 0 .8-.2v1l.1-1c-.4-.2-.6 0-.9-.1h-12-10l-3.8.1M84.5 103l.2-.4s0-.3-.1-.1h1.8l.5-.1a.7.7 0 0 0-.4-.1h-1.1-.5-.3c-.3.2-.1.2-.2.3l.1.4" fill="#1e3d6a"/><path d="M86.9 102.4l-.1.4v.3c.2-.1 0 0 0 0h-.7-1.6l.5.2h1.8l.2-.1v-.1-.3l-.1-.4M62.6 102.3h-1l-1.4.1h-.5c-.3.4 0 .4-.1.5v2.5c0 .1-.2.1.2.4h.2l1-.4-1 .1h-.3c.2.3 0 0 .1-.1v-1-1-.5s.1-.4 0-.1l.4-.1 1.5-.2 1-.2M35.5 104.3h8.7c.3-.2.1-.5.2-.6l-.1-.4h-8.5c-.1.1-.4-.1-.5.3v.6l.1-.6c-.1-.2.3 0 .4-.1h8.4v.7h-8.7M44.3 105.4v-.8c0-.3-.4 0-.7-.1h-4.3-4.2 8.5c.2.1.7 0 .6.1v.8" fill="#1e3d6a"/><path d="M33.5 104.5v.8c.1.4.4.1.7.2h8.5l1.6-.1-1.6-.1h-4.2H33.6v-.8M82.4 92h-3.2H76.2c-.3.3 0 .1-.1.2l.1 1.2.1-1.1h6.1c.5 0 .8 0 1.2-.2l-1.2-.1zm-10.2 0h-3.1H66c-.3.3 0 .1-.1.2l.1 1.2.2-1.1h6c.5 0 .8 0 1.2-.2l-1.2-.1zM84 102.7v-.3-4.7c0-3.3.2-6-.2-6.3H75.7a3 3 0 0 0-.2.2v5.9l.1 5.1c.2-1.8.2-3 .2-5.1v-5.7h7.8c-.2.3 0 3.1 0 5.9v4.9H81c-2.2 0-3.4 0-5.2.2l5.2.2h2.7l.2-.2zM73.6 91.4h-8.1c-.4.4-.1 3-.2 6.3V102.8l.2.2h2.7c2.2 0 3.4 0 5.2-.2l-5.2-.2h-2.6v-.2-4.7c0-2.8.2-5.6 0-6h7.8V97.6c0 2.1 0 3.3.2 5.1l.1-5.1v-5.9l-.1-.2zm-8.4-2.7h19.2V91H75v2H74v-2h-8.8zm-.1 2.4h8.7v2.1h1.5v-2h9.3v-2.7H65zm-.5-2l-.2 2.8V102.2h-1-.4l.1-1.8v-5.8-6h1.5v.5zm.4 13.1V92l-.1-2.9c0-1-.2-1.7-.3-.6a19.6 19.6 0 0 0-1.4-.2c-.2.1-.1-.2-.4.3v11.8l.1 1.9h-.2c-.3.2-.1.2-.2.3l.1.4.1-.4v-.1h2.1l.2-.1h-.1zm0 .2l-.1.4v.3h-.7-1.6l.5.2h1.8l.2-.1v-.1-.3l-.1-.4zm13-3.8h.4v-.8-.5h-.2-.5v1.3h.3zm-.5 1.3v-1H77l-.3-.1.3-.2h.4v-1.1-.2h-.3l.3-.2v-1.3h-.3l-.3-.1.3-.1h.3V95l.1-1 .1 1v.6h.7V95l.1-1 .1 1v.5h.6c-.1.2-.2.2-.3.2h-.3v1.3h.3l.3.1-.3.1h-.3v1.3h.3c.1 0 .2 0 .3.2H79h-.3v1.4h.3c.1 0 .2 0 .3.2H79h-.3l-.1 1-.1-1H78h-.3l-.1.4v-.3H77l-.3-.1.3-.2h.4v-.3zm-.9-4.8v6.5h2.7v-7.7h-2.7zm1.8 5.1V99H78h-.3v1.3h.7zm-.2-3h.2v-1.4H78h-.4v1.3h.5zm3.6 0h.2v-1.4h-.3-.4v1.3h.5zm-.7 2.7v-1h-.3l-.4-.1.4-.2h.3v-1.1-.2H81l.2-.2v-1.3H81l-.3-.1.3-.1h.2V95l.1-1 .1 1v.6h.7V95l.1-1 .1 1v.5h.6c0 .2-.1.2-.3.2h-.3v1.3h.4l.2.1-.2.1h-.4v1.3h.3c.1 0 .2 0 .3.2h-.3-.3v1.4h.3c.1 0 .2 0 .3.2h-.3-.3v1l-.2-1h-.4-.3v.4l-.1-.3h-.4l-.4-.1.4-.2h.3v-.3zm-.8-4.8l-.1 3.3v3.2H83v-7.7h-2.7zm1.3 3.5h.4v-.8-.5h-.2-.5v1.3h.3zm.4 1.6V99h-.4-.3v1.3h.7zm-10.8-1.6h.3v-1.1-.2H71h-.2v1.3h.4zm.9 1.6c.1 0 .2 0 .3.2h-.3-.4v.4l-.2-.3h-.3-.4l-.1 1-.1-1h-.3l-.3-.1.3-.2h.3V99h-.3l-.3-.1.3-.2h.3v-.8-.5H70l.3-.2h.3v-1.3h-.3l-.3-.1.3-.1h.3V95l.1-1 .1 1v.5h.7V95l.1-1 .1 1v.6h.6c-.1.2-.2.2-.3.2h-.3v1.3l.3.1-.3.1v1.3h.4c.1 0 .2 0 .3.2h-.3-.4V100.3h.4zM69.9 94v7.7h2.7v-7.7zm1.6 5h-.3-.4v1.3h.7v-.3-1zm0-1.8v-1.3h-.4-.3v1.3h.7zm-3.6 0v-1.3h-.4-.3v1.3h.7zm-.3 1.5h.3v-1.1-.2h-.5-.2v1.3h.4zm.3.3h-.3-.4v1.3h.7v-.3-1zm.2 1v.3h.4s.2 0 .3.2H68l-.1.4v-.3h-.4-.4l-.1 1-.1-1h-.3l-.3-.1.3-.2h.3V99h-.3l-.3-.1.3-.2h.3v-.8-.5h-.4-.2l.2-.2h.4v-1.3h-.3l-.3-.1.3-.1h.3V95v-1c.2.3.2.6.2 1v.5h.7V95v-1c.2.4.2.6.2 1v.6h.5c0 .2-.1.2-.3.2h-.2v1.3l.2.1-.2.1v1.3h.4s.2 0 .3.2H68v1.1zm-1.8-6v7.7H69v-7.7zm18.8.7v-5.9h.5l1-.2-1-.2h-.7c.1-.2-.3.2-.3.2v11.9c0 .9.1 1.4.3 2.1l.2-2.1v-5.8zm1.6-4v-2.1c-.2.7-.2 1.2-.2 2.1v11.8h-.6l-1 .1a23.2 23.2 0 0 0 1.5.1c.1 0 0 .2.3-.1v-.4-5.7-5.8" fill="#1e3d6a"/><path d="M33.1 105.5a19.9 19.9 0 0 0-1 0v-.4-2.3-.2h1.4l4.2-.3h.2c-.2-.2 0 0-.1 0v.4l.1.7a12.5 12.5 0 0 0 0-1c0-.2.2-.1 0-.4h-.2l-4.2.3H32.1c-.4.3-.1.3-.2.5v2.3c0 .2-.1.2.1.5a8.9 8.9 0 0 0 1.1-.1M87.4 102.3l1 .2 1.4.2h.5c-.2-.2 0 .2-.1.2v2.5s-.1.4.1.2l-.2-.1-1-.1 1 .4h.2c.4-.3 0-.3.2-.4v-1-1-.5l-.2-.4H90l-1.5-.3h-1" fill="#1e3d6a"/><path d="M90.7 105.6l4.9.2h9.7c.2 0 .1.2.6-.2v-.5-.8c0-1.2.2-1.6-.2-2H91.1c-.3.1-.4-.1-.7.3v.5a119.7 119.7 0 0 0 .2 0v-.5h15.1c-.3-.3 0 .7-.1 1.7v1.3c.2-.3-.3 0-.3-.1h-9.7l-5 .1" fill="#1e3d6a"/><path d="M114.6 104.3l-2.7-.1h-6c-.1-.2 0-1-.2-.7h8.5c.1 0 .5-.1.4 0V103.7c0-.4-.3-.2-.4-.2h-8.4c-.2.1-.1 0-.1.3 0 .1-.2.4.1.7h6.2l2.6-.1" fill="#1e3d6a"/><path d="M105.7 105.4v-.8H116.6l-1.6-.1h-4.2-4.3c-.2 0-.6-.2-.7.1v.8" fill="#1e3d6a"/><path d="M116.5 104.5v.8h-5H105.7c.6.2 1 .2 1.6.2h8.5c.3-.1.6.2.8-.2l-.1-.8" fill="#1e3d6a"/><path d="M117 105.5a12 12 0 0 0 1 .1c.2-.3 0-.3.1-.5v-2.3c0-.2.2-.2-.2-.4H117l-.5-.1-4.1-.3h-.3c-.2.3 0 .2 0 .3v1.1a13.6 13.6 0 0 0 .1-1s.1-.3 0-.2h.2l4 .3h1.2l.3.1v2.5c0 .1 0 .4.1.3a19.2 19.2 0 0 0-1 0M32.5 83.8V73M37.5 79.4l-.1.1v1.9h3v-1.9-.1l-.2.1v1.7h-2.6v-1.7l-.1-.1zm2.8-.4h-2.7v-2.2h2.6l.1-.2h-2.8-.1v2.5h3V79zm2.6.6l.1-.1-.1-.1h-2v2h3.7v-.2H41v-1.6h1.8zm1.6-.6h-3.4v-2.2h2.6l.2-.2H41h-.1v2.5h3.7V79zm.8-5.8v.2l-1-.2h1zm-4.4.6h-.5.5zm-.7 0h-6l-.2.2V73.8h6.2zm0 2.3h-2.6v-1.8h2.6zm-5.8 3.5h2.3v1.6h-2.3V80v-.3zm2.3 2.3V84H33.8l.2-2.2v.1h.2v0zm-2.7-.5v-2.2a54.1 54.1 0 0 0 .2 2.5H34 34v-.3zm.4-4.6h2.3V79h-2.3v-2.2zm-1 7.2v-.6.6zm-.1-10.8h.2l-.2.1v-.1zm12.3-.2l-.2-.2H33.2v.2h-.7l.6.1c-.2 1 0 3.9 0 7.3v3.8s-.3-.2.1.2h.4v0H39c2.6 0 4 0 6.3-.2L41 84v-2h2.1l.1-.2v-.1H41h-.1V84h-.5v-2.2-.1h-.2V84H37v-2.2l-.2-.1h-2.5v-.2h2.5l.1-.1v-1.9-.1h-2.5v-.2h2.4l.1-.1v-2.5h-2.5v-1.8-.5h3v2h3v-2h.5v2h3.7V76H41v-1.9c.4 0 .8 0 1.3-.2L41 74v-.1h1.2c1.2 0 2-.2 3-.4v4.4l.1 6.2c.2-2.2.2-3.6.2-6.2V73h.2-.2M106 79.4l-.1.1.1.1h2.3v1.6H106a.1.1 0 0 0 0 .3h2.5l.1-.1v-1.9-.1H106" fill="#1e3d6a"/><path d="M112 79.4l-.2.1v1.7h-2.6v-1.7l-.1-.1-.1.1v1.9h3v-1.9-.1zm0-.4h-2.8v-2.2h2.6l.2-.2H109h-.1v2.5h3V79zm4.1 2.2h-3.4v-1.6h1.8l.1-.1v-.1h-2l-.1.1v1.9H116.3c0-.1 0-.2-.2-.2zm0-2.2h-3.4v-2.2h2.7v-.2h-2.8-.1v2.5h3.6a.1.1 0 1 0 0-.1zm-10-2.2h2.2V79h-2.2v-2.2zm9.4 6.9h-2.8v-1.8h2.1l.1-.1v-.1h-2.3-.1v2h-.4v-2h-.2v2h-.8-2.6v-2H106v-.4-2.1h2.3l.1-.1v-2.5H106v-1.8-.2-.3h2.8v2h3.2v-2h.4v2H116.3c0-.2 0-.2-.2-.2h-3.4v-1.9c.4 0 .8 0 1.3-.2l-1.3-.1v-.2h1.3c1 0 1.7 0 2.5-.2V78c0 2.4 0 3.9.2 5.9a9 9 0 0 0-1.2-.1zm-3 .3h-.4.4zm-.7 0h-3.3 3.3zm-3.5-.3h-1.5l-1.5.1c.2-.8.2-1.5.2-2.5V79h.1a335.4 335.4 0 0 0 0 2.6v.2c0 .7.1 1.2.3 1.8l.2-1.8h2.2zm0 .3h-3V84h3zm3.5-9.7V76h-2.6v-1.8h2.6zm-6.2-.6h6.2v.1H106l-.3.2V73.8zm6.5 0h.4v.2h-.4zm4.4-.5v.1l-.8-.1zM105 84v-.8-.1c0 .3 0 .6.2 1zm-.1-10.8h.2l-.1.1-.1-.1zm12 4.7v-4.5h0V73h.5a31.8 31.8 0 0 1-.7-.3H104.8c-.3.4 0 3.6-.2 7.5v3.9l.2.2h5.5c2.6 0 4 0 6.2-.2l-3.8-.2a235.4 235.4 0 0 0 4-.1v.1-.1h.4l-.4-.1.2-6M104.3 101l.2-3.4v-5-2.8-.7c-.3.3 0 0 0 .1h.3a7875 7875 0 0 0 12.4-.1l-3.3-.2h-9.1-.3c-.1 0 0-.2-.3.2v8.5l.1 3.4M120 60.7l-.2.3v1.6l.1.3v-.3c.1-.1 0-.8 0-.8s.1-.7 0-.8v-.3M59.1 101.6zm.6-.5zm-1.5-.4zm-3.8.8zm-1.8-.6zm-2-.6zm-3-.2V100.4h-.3a1 1 0 0 0-.5-.2l-.4-.1c-.1 0-.4.1-.5.3v.5l-.2-.2h-.3l-.1.4h-.4v.1l-.1.2v.3h.1l.2.3h-.3c-.1 0-.2 0-.3.2 0 .1 0 .3.2.4l.1-.1v-.3H45.1l.2-.2c0-.2-.1-.3-.3-.4V101.3h.4v-.1l.1-.3h.1l.1.2h.4v-.4-.2l.4-.2v.1h.2l.5.1h.5v-.2c.2 0 .5-.2.6 0l.1.2h.2l.3-.2v.3l.3.4.4-.3.3-.3v.2h.5v.1h.2V100.3h.3V100.8h.1v.4h.5l.1-.3h.2v.1h.1l.5-.2.2.2v.1h.1v.3l.1.1c.3 0 .5-.2.6-.3h.2c.3 0 .5 0 .5.4l.1.1h.4l.1-.3h.1v.2h.1l.4-.2v-.2-.1-.2l.2.1h.1c.1 0 .2 0 .3-.2v-.2h.2v.1h.2v-.2h.3l.2.3v.2h-.1l.1.1.6-.1h.2c0-.1 0-.2.2-.2h.2V101c0 .2.2.2.3.2.2 0 .3 0 .4-.2h.7l-.2.2c-.2.1-.4.2-.4.4v.1h.2l.1.2v.1l.1.1h.1l-.1.2H59l-.1.2h-.1l.1.1h.2l.2-.2c.2-.2.2-.2.1-.5h-.1v-.4H59l.3-.1.4-.4v-.1h-1.1l-.3.2-.1-.1v-.3h.1v-.1h-.1a.5.5 0 0 0-.6-.1l-.1.2H57v-.1l-.3-.3H56h-.4v.4h-.4l-.3.2v.1l.1.2H55c-.2 0-.3-.1-.4 0l-.2.2c-.2-.4-.5-.5-.8-.5h-.3l-.4.3V100.8h-.1v-.2h-.2l-.2-.1h-.5a1 1 0 0 0-.4 0v.1l-.1.3h-.2v-.4H51V100.2h-.6v.2h-.1-.1l-.2-.1s0-.2-.2-.2c-.1 0-.3.1-.5.4l-.2.2v-.3l-.3-.4s-.2 0-.3.2l-.2-.2c-.2-.2-.5 0-.8 0" fill="#1e3d6a"/><path d="M59.3 105.6l-4.9-.1H44.8c-.1 0-.6-.2-.4.1v-.5-.8c0-1 .2-2-.1-1.6a11290.3 11290.3 0 0 0 14.7 0s.6 0 .4-.1v.5a98.1 98.1 0 0 0 .2 0v-.5c-.3-.4-.4-.2-.6-.3H44.3c-.4.4-.1.8-.2 2v1.3c.5.4.4.1.7.2H54.4c2 0 3.2 0 5-.2M104.7 102zm-.6-.4zm-6-.9zm-6 .5zm-1.5-1.3l-.3.2v.2l-.4.3v.1h-.2l-.3.3.1.2-.1.2v.2H89l-.2.3c0 .2 0 .3.2.4h.2v-.2c-.2 0-.3 0-.3-.2l.2-.1h.4V101.4v-.1l.1-.1v-.1-.2-.1h.2l.1.1v-.1-.2l.5-.2v-.2-.1l.1-.1.3.1v.2l.1.4h.2l.6.4-.2.3v.1h.5l.1.2h.1v-.3-.3h.1l.2-.1v-.1-.2c0-.1.1-.2.3-.2v-.2l.1-.1h.2v.1c.2 0 .2.1.2.2l-.1.2-.1.1c.1.1.6.5 1 .3l.2-.3.3.1v.5c.3.3.4.2.5.2l.1-.4v-.3h.5v-.4h.1l.2.2h.1v-.4l.6-.2.1.2c0 .1 0 .2-.2.3v.1h.2l.2.1.2.3h.4v-.1l.2-.5h.1l.1.2h.1v-.2c.2-.1.5 0 .8 0 0 .3-.2.8-.4 1v.1h.1c.3 0 .3 0 .4-.2.3 0 .5.1.6.3h.1c.3-.2.3-.3.3-.5V101v-.2c.1 0 .2 0 .3.2h.2c0-.2.1-.2.2-.2h.4v-.1-.3c0-.1.5 0 .8 0l-.2.2v.1c0 .2.3.3.6.2l.3.1.3-.2.1-.1c.1.3.3.5.4.5l.3-.1c.2 0 .4.1.4.3l-.1.2v.1c.2 0 .4 0 .6.2l-.1.1v.1c.2 0 .3.1.3.2v.1l-.1.1h.1c.2 0 .2 0 .2-.2 0-.1-.1-.3-.3-.3l.1-.1v-.1l-.6-.2v-.1h.1v-.1c0-.4-.4-.6-.7-.5l-.1.2-.4-.6v-.1h-.1l-.2.3-.2.1h-.2l-.1-.1c-.3.1-.4 0-.4 0l.2-.3v-.2h-.2c-.3 0-.8-.1-1 .1v.2l-.2.1c-.2 0-.3 0-.3.2a.6.6 0 0 0-.5-.2V101.3l-.2.3a1 1 0 0 0-.8-.3v.1l.2-.9H99s-1-.3-1 0h-.3l-.2.5h-.2s-.1-.1 0-.2H97l.1-.4c0-.1 0-.3-.2-.4h-.2c-.2 0-.5.1-.6.4H95.7l-.2.2v.1a1 1 0 0 0-.5.2V101.6h-.2v-.2-.2-.2l-.4-.2h-.2c0 .2-.1.3-.2.3-.2.1-.5 0-.7-.1l.2-.3c0-.1 0-.2-.2-.2v-.1a.6.6 0 0 0-.4-.2c-.1 0-.3 0-.4.2l.1.2c-.1 0-.2 0-.3.2v.2h-.2l-.1.1v.4H92v-.2c0-.3-.2-.4-.5-.5v-.1H91.1v-.2-.3a.5.5 0 0 0-.5-.2M29 102.1zm-.5-.3zm-.2-.5zm-.5.3h.2c0-.2.1-.2.3-.2v.4h.4v.3h.4l.2-.2c.2 0 .2 0 .3.2h.1l.2-.6.3.1h.2c-.2-.2-.4-.3-.6-.2l-.2.5-.2-.1h-.2l-.2.1-.2-.2h-.3v-.2-.2l-.1-.1c-.3 0-.5 0-.6.4M80.6 46.6c-.5-.1-2-.5-3.3-.6h-2.7H72l-3.3.7c-.9.3-1.4.6-2 1.1l.4-1c0-.2.2-.3.3-.4 1-.7 2.2-1 2.7-1 1.9-.5 3-.5 4.6-.6a18 18 0 0 0-4.7.4c-.5.2-1.5.4-2.6 1.1l-.3.3.4-1.1.1-.2a5 5 0 0 1 1.6-1c2.8-.9 5.5-.7 5.5-.7s2.7-.2 5.4.8a5 5 0 0 1 1.6 1l.4 1v-.1c-1.1-.7-2.2-1-2.7-1-2-.5-3-.5-4.7-.5 1.6 0 2.7.1 4.6.6.5 0 1.6.3 2.7 1l.2.2.3 1c-.6-.4-1-.7-2-1zm-9.9-4.9c-.4.5-.8 1-1 1.5 0 .1 0 .1.1 0a44 44 0 0 1 3.2-2v1.2l.8-1c.2-.3.7 1.4.8 1.5h.1s.6-1.8.8-1.5l.7 1v-1.1h.4l.6.4 2.2 1.6h.2c-.3-.7-.7-1.2-1.1-1.6 1.5.8 2.6 2.4 3 3.3l-1.3-.8c-2.8-1-5.6-.7-5.5-.8 0 0-2.7-.1-5.5.8a6 6 0 0 0-1.5.8c.5-.9 1.6-2.4 3-3.3zm4-1h.2a8 8 0 0 1 3.1.7l.9 1 .6.7-1.1-.8c-.7-.5-1.3-1-2.1-1.2h-.1v1L76 42l-.4-.6c-.3-.4-1 1.2-1 1.4 0-.5-.3-1-.6-1.4h-.3l-.6.9v-1c-.8.1-1.4.6-2 1l-1.2.9c-.4.3.1-.2.2-.4.2-.4.6-.8 1-1.2 1.8-1 3.6-.8 3.6-.8zm0-.7h.2v.2h-.2V40zm0-2.4l.1 1.5h-.1v-1.5zm7.5 7.7a8.2 8.2 0 0 0-7.3-5v-.4h.2c.2 0 .3-.2.3-.4 0 .2-.2.2-.3.3-.2.2-.7 0-.8 0-.4-.3 0-.5.3-.6h.5l.3.3-.3-.3H75v-1.6l.1-.1c.2 0 .2-.2.2-.3 0 .3-.4.3-.6.3-.6-.3.2-.7.4-.5l.2.2s0-.2-.2-.3H75a879.2 879.2 0 0 1-.1-1.6v.2l-.1 1.4h-.1c-.3 0-.3.3-.3.3s0 .3.3.3v1.6h-.2c-.3.1-.4.4-.3.4 0 0 0 .4.3.4h.2v.3c-.5 0-2.3 0-4 1-2 1.2-3.2 3.3-3.5 4a6.4 6.4 0 0 0-.5 3.6l.2-1c.6-.4 1.1-.5 2-.8.4-.2 1.9-.5 3.2-.6l2.6-.2 2.6.1a19.2 19.2 0 0 1 5.3 1.4l.2 1c.1-1.1 0-2-.5-3.4M89 104.7v1H75.6 64.9l-4 .1 4 .2h7.9a12.2 12.2 0 0 0-1.2 1.4l.1.3h4l1-.1-1-.1h-2.6-1.2l.2-.3a37 37 0 0 1 .8-1.2H76l.1.2a634.5 634.5 0 0 0 .8.8c0-.2-.4-.5-.6-.9l-.1-.1h12.1c.3-.2.7.1.9-.3l-.1-1zm-28 0h13.5a12854.2 12854.2 0 0 0 14.6-.2 57.3 57.3 0 0 0-4.5-.3h-10-12l-.8.1c-.3.2-.7 0-.9.4v1l.2-1M68.6 108l2 .1h8.1c.6 0 1.5-.1 1.8.1l1 .9 1.6 1.2a15.9 15.9 0 0 0-2.5-2.3c-.6-.4-1.2 0-1.9-.2h-2.4-5.7c-.8 0-1.3 0-2 .2M83 110.3l-3-.1h-7.7-6.6c-.1 0 0 .3 0 .2l.2-.2.5-.5a40.2 40.2 0 0 0 0-.1c-.2 0-.4.2-.6.4l-.2.2c-.1-.1 0 .2 0 .2H72.4a3831.3 3831.3 0 0 0 10.6-.1M38.6 107l4 .3 11 .4 10.8.2h4l-4-.3-10.9-.1a1344.7 1344.7 0 0 1-14.9-.5" fill="#1e3d6a"/><path d="M109 107.1a1304.6 1304.6 0 0 1-14.9.5l-10.8.2c-1.7 0-2.6 0-4 .2h4l10.9-.1a951 951 0 0 0 14.8-.8M53.7 61.3l6 .1H76a21974.1 21974.1 0 0 0 22.4-.1c-2-.2-3.5-.2-6-.2H76 59.7c-2.5 0-4 0-6 .2M70.8 85.9c0-.3-.3-.5-.6-.5h1.3c-.4 0-.6.2-.7.5zm1.6-.8v.1h-3.1v.2h.6v.1c.6 0 .8.3.8.8 0 .4 0 1-.8 1v.1c.5 0 .8-.2 1-.6 0 .4.4.6.8.6h.1l-.1-.1c-.7 0-.8-.6-.8-1 0-.5.3-.8.8-.8h.1v-.1h.5v2.3h-3v-1.6 1.7h3l.1.1.2-.1v-2.5c0-.1 0-.2-.2-.2zm2.2.8c-.1-.3-.3-.5-.6-.5h1.2c-.3 0-.5.2-.6.5zm1.6-.8l-.1.1H73v.2h.7v.1c.5 0 .8.3.8.8 0 .4-.1 1-.8 1v.1c.5 0 .8-.2.9-.6.1.4.4.6.9.6v-.1c-.7 0-.8-.6-.8-1 0-.5.2-.8.8-.8v-.1h.5v2.3h-2.9v-1.6H73v1.7h3l.2.1.1-.1v-2.5l-.1-.2zm6 .8a.8.8 0 0 0-.7-.5h1.3c-.3 0-.5.2-.7.5zm1.5-.7h-3.2v.2h.7v.1c.6 0 .8.3.8.8 0 .4 0 1-.7 1h-.1v.1c.5 0 .8-.2 1-.6 0 .4.4.6.8.6h.1v-.1c-.7 0-.8-.6-.8-1 0-.5.2-.8.7-.8h.1v-.1h.5v2.3h-3v-2h-.1v2.1h3.2v-2.5zm-5.4.7c-.1-.3-.3-.5-.7-.5H79c-.3 0-.5.2-.6.5zm1.6-.8v.1h-3.2l.1.2h.5l.1.1c.5 0 .8.3.8.8 0 .4-.1 1-.8 1v.1c.4 0 .7-.2.9-.6.1.4.4.6.9.6v-.1c-.7 0-.8-.6-.8-1 0-.5.2-.8.8-.8v-.1h.6v2.3h-3v-1.4 1.5h3l.1.1.2-.1v-2.5c0-.1 0-.2-.2-.2zM67 86c0-.3-.3-.5-.6-.5h1.3c-.3 0-.5.2-.6.5zm1.8-.8l-.1.1h-3.1v.2h.5v.1c.6 0 .8.3.8.8 0 .4 0 1-.7 1H66v.1c.5 0 .8-.2 1-.6 0 .4.4.6.8.6h.1v-.1c-.7 0-.8-.6-.8-1 0-.5.2-.8.7-.8h.1v-.1h.6v2.3h-2.9v-1.2h-.1v1.3h3l.2.1.1-.1v-2.5l-.1-.2M47.6 87.3l.1-.1c-.3 0-.5 0-.6.3 0-.2-.2-.4-.5-.4v.2c.2 0 .4 0 .4.7 0 .3 0 .9-.4.9v.1c.2 0 .4-.2.5-.5.1.3.3.5.5.5h.1v-.1c-.5 0-.5-.6-.5-.9 0-.7.3-.7.4-.7zm.6-.4v2.3h.1V87zm1.7 0c-.3 0-.5 0-.6.4-.1-.3-.3-.5-.6-.5l-.1.1c.4 0 .6.3.6.8 0 .3 0 .9-.5.9h-.1c.4 0 .6-.1.7-.4 0 .3.3.5.6.5v-.1c-.5 0-.5-.6-.5-.9 0-.5.1-.7.5-.7zm.6-.3V89h.1v-2.2-.1zm2 .1c-.5 0-.7 0-.8.4-.1-.3-.4-.5-.7-.5h-.1v.1c.5 0 .7.3.7.8 0 .3 0 .8-.6.8l-.1.1c.4 0 .7-.1.8-.5.1.4.3.6.7.6v-.2c-.5 0-.6-.5-.6-.8 0-.5.2-.8.6-.8zm.6-.4l-.1.1v2.3h.2v-2.3H53zm2 .2l.1-.1c-.5 0-.7 0-.8.3-.1-.2-.4-.4-.8-.4v.1c.5 0 .7.3.7.8 0 .3-.1.8-.7.8v.2c.4 0 .7-.2.8-.5 0 .3.3.5.7.5h.1V88c-.6 0-.7-.5-.7-.8 0-.5.2-.7.6-.7zm.7-.5c-.1 0-.2 0-.2.2v2.2l.2.1h.1v-2.3l-.1-.2zm2.3.2h.1V86c-.5 0-.7.1-.8.4-.2-.3-.4-.4-.8-.4h-.1v.1c.5 0 .8.3.8.7 0 .4-.1.9-.7.9h-.1v.2c.5 0 .7-.2.9-.6 0 .4.4.6.7.6l.1-.1v-.1c-.6 0-.7-.5-.7-.9s.2-.7.6-.7zm.8-.4l-.2.1v2.2l.2.2.1-.2V86l-.1-.1zm2.2.2h.1v-.2c-.5 0-.7.2-.8.5-.2-.3-.4-.5-.8-.5l-.1.1v.1c.5 0 .8.2.8.7 0 .3-.1.8-.7.8l-.1.1v.1c.5 0 .7-.2.9-.5 0 .3.4.5.7.5h.1v-.2c-.6 0-.7-.5-.7-.8 0-.5.2-.7.6-.7zm.6-.4l-.1.2V88l.1.1.2-.1v-2.2s0-.2-.2-.2M103.1 88.9c-.4 0-.5-.6-.5-.9 0-.7.3-.7.5-.7v-.1c-.3 0-.4 0-.5.3-.1-.2-.3-.4-.6-.4v.2c.2 0 .5 0 .5.7 0 .3 0 .9-.5.9v.1c.3 0 .5-.2.6-.5 0 .3.2.5.5.5zm-1.6-2h-.1v2.3h.1V87zm-.5 0h.1c-.4 0-.6 0-.7.4 0-.3-.3-.5-.6-.5l-.1.1c.4 0 .6.3.6.8 0 .3 0 .9-.5.9h-.1c.4 0 .6-.1.7-.4.1.3.3.5.6.5h.1v-.1c-.5 0-.6-.6-.6-.9 0-.5.2-.7.5-.7zm-1.8-.3H99V89h.2v-2.2l-.1-.1zm-.5.1h.1c-.5 0-.7 0-.8.4-.1-.3-.3-.5-.7-.5h-.1v.1c.5 0 .7.3.7.8 0 .3 0 .8-.6.8l-.1.1c.4 0 .7-.1.8-.5.1.4.4.6.7.6h.1v-.2c-.6 0-.7-.5-.7-.8 0-.5.2-.8.6-.8zm-2.1-.4v2.4-2.3zm-.6.2l.1-.1c-.4 0-.7 0-.8.3-.1-.2-.3-.4-.7-.4l-.1.1c.5 0 .7.3.7.8 0 .3 0 .8-.6.8l-.1.1v.1c.4 0 .7-.2.8-.5.1.3.4.5.7.5h.1V88c-.6 0-.7-.5-.7-.8 0-.5.2-.7.6-.7zm-2-.5c-.2 0-.2 0-.2.2v2.2l.1.1h.2v-2.3l-.2-.2zm-.9.2h.1V86c-.5 0-.7.1-.9.4 0-.3-.3-.4-.8-.4v.1c.5 0 .7.3.7.7 0 .4 0 .9-.7.9v.2c.4 0 .7-.2.8-.6.2.4.4.6.8.6l.1-.1v-.1c-.7 0-.8-.5-.8-.9s.2-.7.7-.7zm-2.3-.4l-.1.1v2.2l.1.2s.2 0 .2-.2V86l-.2-.1zm-.7.2v-.2c-.4 0-.6.2-.8.5 0-.3-.3-.5-.8-.5v.2c.5 0 .7.2.7.7 0 .3 0 .8-.7.8v.2c.4 0 .7-.2.8-.5.2.3.4.5.8.5h.1v-.2c-.7 0-.8-.5-.8-.8 0-.5.3-.7.7-.7zm-2.1-.4l-.2.2V88l.2.1.1-.1v-2.2l-.1-.2M54.8 101.2l.1.2h.1v-.3h-.2zm3-7.8h-2.4-.1v-3.2h.2v3h2.3l.2.1-.2.1zm0 3h-2.4-.1v-2.6-.1h2.1l-.1.2h-1.8v2.4H58c0 .1 0 .2-.2.2zm0 2.5h-2.4-.1v-2-.2h.9l.1.1-.1.2h-.7v1.7h2.3l.2.1-.2.1zM55 93.3v.1h-2.2V92l.1-.1h.1v1.2h1.8V91l.1-.2.1.2zm0 3.2h-2l-.2-.1v-2.6l.1-.1h1a.1.1 0 1 1 0 .2H53v2.4h2v.2zm0 2.3v.1h-2.2v-2a.1.1 0 1 1 .2 0v1.8h1.8v-1.9h.2zm-2.4-2.4H50.9h-.1l.1-.1h1.4v-2.4h-.8l-.2-.1.2-.1h1zm0 2.4l-.1.1h-1.8v-.2h1.6V97h-1l-.1-.2h1.3zm-3-9.3v10.9c.2-.2.4-.2.4.2l.2-.1.3.1v-.3h.6l-.1.4h.2s0 .2-.2.3h.2c.2 0 .3 0 .3-.3h.4v.1l.4-.2v-1.2h-1.8v-.1-.1h2v1.5h.2v.3H54.8v-1.7l.1-.1h.1v1.9h.1c0-.1 0-.3.2-.3v-1.5-.1H57v.2h-1.5v1.4h.1l.3-.1-.1-.3h.3v.1c.2-.2.3-.2.5-.1l.3.3-.1.2.7-.1c0-.2.3-.3.5-.2V89.5h-8.3M47 100.4l.1-1v-4.8l.1-4.8h.3a9.8 9.8 0 0 0 1.1-.1v10.7l.2-.2v-4.1-5-1.4l-.1-.5v.4h-.8l-.4-.1h-.4l-.2.2v4.9l-.1 4.8v1h.3M58.6 101V89.1h-.1-.1v12h.2M45.5 93l-.1-2.6-.1 2.6v8.2l.2-.4v-.8-7zm-1.8 8.2h-4l-2.5.1 2.5.2h5.1l.1-.2h-1.2M44.9 93.4h-3.7v-3.2h.2v3H45l.1.1-.1.1zm0 3h-3.7v-2.6l.2-.1H44.2l-.1.2h-2.6v2.4H45l-.1.2zm0 2.5h-3.7v-2c0-.1 0-.2.2-.2h1.1l.1.1v.2h-1.1v1.7h3.4l.1.1-.1.1zm-4-5.6l-.2.1h-2.9V92 92h.2v1.2h2.6V91v-.2c.2 0 .2.1.2.2zm-.2 3.2h-2.9v-2.7-.1H39.2v.2H38v2.4H40.8l-.1.2zm.1 2.3l-.1.1h-2.9v-2-.2l.2.1v2h2.6v-2h.2zm-3.5-2.4H34.8l.2-.1h2v-2.4h-1.2a.1.1 0 1 1 0-.2h1.4zm0 2.4l-.1.1h-2.5-.1v-.2h2.5V97h-1.6l-.1-.2h1.8zm-4.1-9.3v11c.1 0 .2.2.1.4.1-.2.6-.8 1-.6.4.1.2.5.1.8h.3c.2-.3.3-.6.5-.1v-.3l.5.4h.1l-.1-.3.7.1v.2h.7v-1.7h-2.7v-.1-.1h2.8v1.9h3.4v-1.8-.1h.2v1.9h.4v-1.8l.2-.1h2.2v.2h-2.1v1.7H45V89.5H33.2" fill="#1e3d6a"/><path d="M42.2 88.9h-9-.4c-.1 0 0-.2-.3.2v11.4h.2v-2.9-5-2.8-.6h.4a7874.9 7874.9 0 0 0 12.4-.1l-3.3-.2M99.3 93.4h-2.5v-3.2h.2v3h2.3l.2.1-.2.1zm0 3h-2.5v-2.6-.1H99l-.1.2H97v2.4h2.5l-.2.2zm0 2.5h-2.5v-2-.2h.9l.1.1-.1.2H97v1.7h2.3l.2.1-.2.1zm-2.8-5.6v.1h-2.2V92l.1-.1h.1v1.2h1.8V91l.1-.2.1.2zm0 3.2h-2l-.2-.1v-2.6l.1-.1h1l-.1.2h-.8v2.4h2v.2zm0 2.3v.1h-2.2v-2l.1-.2.1.1v2h1.8v-2h.2zm-2.4-2.4H92.4h-.1l.1-.1h1.4v-2.4H93l-.2-.1.2-.1h1zm0 2.4l-.1.1h-1.8-.1l.1-.2h1.6V97h-1l-.1-.2H94zm-3-9.3v11.2l.3-.1-.1.2c.2 0 .4.1.5.3h.4l.4-.1c-.3-.3 0-.5.3-.5l-.2-.2c.2-.2.5-.1.7 0h-.1c.3.1.3.5 0 .6l.3.2h.2v-1.7H92v-.1-.1h2v1.9h.2l.1-.3.5.1v.2h.4v-.1c.1-.2.4-.2.6-.2l-.1-.1c0-.1 0-.2.2-.2l.3.3c-.2-.3 0-.5.1-.6v-1h.2v1l.3-.1v-.8-.1H98.6v.2H97V100.8h.2l.1.3h.3c.1-.3.2-.6.5-.6 0-.2.8 0 1 0l-.1.6h.5V89.5zm2.7 11.6h.3-.3M101.5 89.4H100.6c-.3.3 0 0-.2.1V101l.2-.1.1-1.4v-4.9l.1-4.8h.3a12.3 12.3 0 0 0 1.3-.2l-.9-.1zm.9 6.9v-4.9l-.1-1.8-.2 1.8v9.5l.3-.1v-4.5M90.8 100V89h-.2v11h.2M108.9 101.3l2.5.2h1.4l.3-.3h-1.7l-2.5.1zm4.7.1v-.2h-.3l.3.2zm3.6-.5v-1-7l-.1-2.5-.1 2.6v8.2h-.5-.2l.3.3h.4c.4-.4.1-.4.2-.6zm-3 .4c0-.2 0 0 .1 0h-.3.1" fill="#1e3d6a"/><path d="M111.9 99l-.2-.2v-2H113.1v.2H112v1.7h3.4l.1.1-.1.1zm-.2-5.2l.2-.1H114.7l-.1.2H112v2.4h3.5l-.1.2h-3.5l-.2-.1zm0-3.6h.2v3h3.5l.1.1-.1.1h-3.7zm-.4 3.1l-.1.1h-2.9V92 92h.1v1.2h2.7V91v-.2c.2 0 .2.1.2.2zm-.1 3.2h-2.9v-2.7-.1h1.3a.1.1 0 0 1 0 .2h-1.2v2.4h2.9l-.1.2zm.1 2.3l-.1.1h-2.9v-2-.2l.1.1v2h2.7v-2h.2zm-3.5-2.4H105.3l.2-.1h2v-2.4h-1.3v-.1-.1h1.5zm0 2.4l-.1.1h-2.5-.1v-.2h2.5V97H106l-.1-.2h1.8zm6.3.6H112v1.7h1.7v-.1h.7l.1-.3.3.1c.2-.3.7-.4 1.2-.3 0 .3.2.3.1.6h.5V89.5h-11.9V101h2.9v-1.7h-2.7v-.1-.1h2.8v1.9h3.4v-1.8-.1h.2v1.9h.4v-1.8l.2-.1h2.2v.2M130.6 88.8v-.4l-1.5.2 1.5.2zm-2.1-.8v7.4l.1-.3v-4.7V88l2.2-.1v-.1c-.7 0-1.6-.1-2.3.2zm.5 6.1l.3-1v-2.6c0-.8 0-1.2-.2-1.9l-.1 2V94" fill="#1e3d6a"/><path d="M119.8 100zm.2-.6zm0 .7v-.2-.1-.2l.7.3v.4h.2l.2.2c.3 0 .4.1.5.2h-.4l-.1.1-.2.5.5.4h.2l.2-.3.3.2h.1l.2-.2h.1v-.4l.2.1h.1v-.3l.2.2h.1v-.2h.4v-.2l.4-.1h.2V100.8H124.5v.2l.1.1h.1v.2l.2.2h.1c.2-.1.2-.2.3-.4h.5c.1-.3.3-.5.6-.6l.1-.3c-.4.2-.7.4-.8.8h-.5l-.3.3v-.5h-.1v-.1c-.2-.1-.3 0-.4 0v-.4h-.4a2 2 0 0 0-.4.1h-.1v.2h-.3v-.1-.3h.3v-.2V99.7h.4l.1-.2v-.1h.2l.3.1h.1c.1-.2.2-.2.3-.2l.2-.2v.1l.3.3v.5c.4 0 .8 0 1 .2v-.2c-.1-.2-.5-.2-.9-.1v-.3h.1v-.1l-.3-.4-.1-.1h-.4l-.3.3h-.3l-.2-.1h-.1V99.5h-.2-.3v.4l-.3.1-.1.4v.3l-.2-.2h-.1v.4h-.2l-.1-.1h-.1v.3l.1.1-.2.2-.3-.3h-.1l-.2.4-.4-.2.1-.4h.6l.1-.1v-.1a1 1 0 0 0-.7-.3v-.1l-.3-.1v-.3h-.1c-.2-.3-.6-.5-.9-.6l-.1.1v.5l-.3.2h-.2a1 1 0 0 0-.2-.2l-.1-.1h-.1c-.1.2-.2.2-.3.2l-.2.2v.1h-.5v.4c-.3 0-.4.2-.4.3 0 .2 0 .3.2.5h-.5l-.1.2h-.3v-.1l-.6-.6v-.3l-.1-.3c-.7-.1-1.1 0-1.3.3h-.3l-.1.2v.2h-.2-.1l-.2-.1h-.2v-.1h-.1v.4l-.3-.2h-.1c-.2 0-.5.3-.6.6h.1l.5-.5.3.2v.1h.2v-.3c.2 0 .3 0 .3.2h.2l.2-.2.2-.2v-.2l.3.1c.2-.4.7-.4 1-.4l.1.3v.4h.2l.4.4v.2l.1.1h.4c.1 0 .2 0 .2-.2H117.9l.1-.1v-.1l-.3-.4c0-.1.1-.2.3-.2v-.2-.2h.6v-.2l.3-.3.3.2h.7l.1-.1M123.5 105.5l.1-.3h-2.1l-3.4.2V104v-1.5h7l.2-.2h-4c-1.3 0-2.5-.3-3.4.2v1.5s-.2.5.2 1.5h3.4l2-.1M122.8 106.4l.2-.2h-.8l-9.4.5a58.2 58.2 0 0 0 0 .2l9.4-.5h.6M120.8 109.4a888.5 888.5 0 0 1-29.6 1.7l-7.1.4h7.1a783.4 783.4 0 0 0 29.3-1.8l.3-.3M130.6 75.3h-.4-.6V77h1.1v-.4-1.4zm.4 1.4v.4h.5c.2 0 .3 0 .5.2l-.5.1h-.6l-.1.5-.1-.5h-.5-.6l-.1 1.4-.2-1.4h-.4l-.5-.1.5-.2h.4v-1.8h-.4c-.2 0-.3 0-.5-.2l.5-.1h.4v-1.2-.6h-.5l-.4-.1.4-.2h.5v-1.8h-.4l-.5-.1.5-.2h.4v-.6c0-.6 0-1 .2-1.4l.1 1.4v.6h1v-.7l.2-1.3.2 1.3v.7h.3c.2 0 .3 0 .5.2l-.5.1h-.3V73c.1 0 .2 0 .3.2h-.3V75h.5l.5.1-.5.2h-.5v1.4zm.9-8.2h-3.7v10.4h3.9a57.6 57.6 0 0 0-.2-10.4zm-1.7 6.5h.4v-1.6-.2h-.7-.3V75h.6zm.4-2.1v-1.8h-.5-.5V73h1M20.8 63.8c-.1-.2-.3-.3-.5-.3s-.4.1-.5.3c0-.2-.3-.3-.5-.3s-.4.1-.5.3v.2h13.6a.5.5 0 0 0-1-.2c0-.2-.3-.3-.5-.3s-.4.1-.5.3c0-.2-.2-.3-.4-.3s-.4.1-.5.3a.5.5 0 0 0-1 0 .5.5 0 0 0-1 0c0-.2-.2-.3-.4-.3-.3 0-.4.1-.5.3a.5.5 0 0 0-1 0 .5.5 0 0 0-1 0 .5.5 0 0 0-1 0c0-.2-.2-.3-.4-.3s-.4.1-.5.3c0-.2-.3-.3-.5-.3s-.4.1-.5.3c0-.2-.2-.3-.4-.3-.3 0-.4.1-.5.3M18.7 64.4l-.1.3h13.5l-.5.3.9-.4h-.1v-.1c-.3-.1-.6 0-.8 0l-2-.1h-10-1" fill="#1e3d6a"/><path d="M32 64.9h-.3c0 .1 0 .3-.2.4h-13l-.1.7h12.8V69.6a266.6 266.6 0 0 0 .4 11.8l.2-11.5V67v-1.6l.2-.6M32 81.4H19.6 18v.3H32a59.8 59.8 0 0 0 .1 0c0-.1.2 0 0-.3M31.7 81.8c0 .5-.6.5-.7.5H18.1v.2h13c.2 0 .9-.2.9-.7h-.3M18.2 82.8v.5H31v11.5c0 2.3.1 3.5.3 5.4.2-1.9.3-3.1.3-5.4v-8.2-2.4V83l-.3-.2h-2.8-10.2M21.5 90.4V88c-.8-.3-1.7-.3-2.4-.2v.1h2.2v7.2l.2.4v-5zm-.7-1.8l-.2 2V93l.4 1.1v-3.6l-.2-1.9zm-1.5-.2v.4c.6 0 1 0 1.5-.2l-1.5-.2" fill="#1e3d6a"/><path d="M21.1 72.9c.2 0 .3 0 .4.2l-.4.1h-.5V75h.4l.5.1-.5.2h-.4V77h.4c.2 0 .3 0 .5.2l-.5.1h-.4l-.1 1.4-.2-1.4h-.6-.5v.5l-.2-.5h-.6l-.5-.1.5-.2h.6v-.4-1.4h-.6c-.2 0-.3 0-.5-.2l.5-.1h.6v-1.6-.2l-.4-.1.4-.2v-1.8h-.4L18 71l.5-.2h.4v-.7l.1-1.3.2 1.3v.7h1v-.6c0-.6 0-1 .2-1.4l.1 1.4v.6h.5c.1 0 .3 0 .4.2l-.4.1h-.5V73h.5zm-3-4.4a57.9 57.9 0 0 0-.3 10.4h3.9V68.5zm2.2 6.8h-.6-.4V77h1v-1.8zm-.3-2.1h-.7V75h1v-1.2-.6H20zm0-.3h.3v-1.8h-.5-.5V73h.7M37 101.6l-.2-.2V101.1h-.2-.2v-.2a.7.7 0 0 0-.7-.1l-.5-.2H35l-.3.3-.2.2v-.2l.1-.3c0-.2 0-.3-.3-.4-.3-.1-.7.2-.9.4 0-.2-.2-.3-.4-.3l-.1-.1-.4.3-.3.2-.3-.3h-.3l-.4-.2c-.2 0-.4.3-.5.5v.2l-.2-.2h-.2l-.3.1v-.1l.1-.2-.5-.5v-.1c0-.2-.4-.4-.6-.4l-.6.1h-.2c-.2 0-.2.2-.3.3l-.1.3-.3.1-.1-.2h-.1l-.3-.2h-.3v-.1l.1-.1v-.1l.2-.5c0-.2-.1-.4-.4-.5l.1-.2v-.1c-.1-.2-.4-.2-.6-.1 0-.3-.2-.5-.5-.6a1 1 0 0 0-1 .2l-.3-.4h-.5v.2l-.4.4c-.3.1-.6.3-.6.6l.1.4.1.2h.2V99c-.2-.1-.2-.3-.2-.4 0-.2.2-.3.5-.5.2-.1.5-.2.5-.5h.3l.2.5h.2c.2-.3.5-.4.8-.3.2 0 .4.2.4.5h.6v.5c.2 0 .3.2.3.3 0 .1 0 .3-.3.4V99.8l-.1.1v.1h.5l.3.2c0 .1 0 .2.2.3l.5-.1.2-.4.1-.3h.2v.2l.1-.1.5-.1.4.2V100.3h.1l.4.3v.1l-.1.2v.1c.2.2.4.1.6 0l.2.2h.1l.2-.3c0-.2.2-.4.3-.4l.4.2h.3l.1.3h.2l.4-.3.3-.2.4.3v.2c.2-.2.6-.6 1-.5.2 0 .2.2 0 .5v.4c.3 0 .4-.1.6-.3l.1-.2v.2h.2v-.1l.3.1.3.2h.1v-.1-.2h.4V101.3h.3v.4h.2l.1.1c0 .2-.1.4-.3.3v.2c.3 0 .4-.2.5-.5v-.1M34 45.2c.3-.6.2-1.3-.1-1.7h-.1v.5l-.2.1V44s0-.1.1 0c0-.1.1-.3 0-.4h-.2l-.2.1-.1.2.1.1c0 .4.2.9.4 1.2h.3zm-.6-3.7h.1l-.2.2h-.2s.2 0 .3-.2zm.2-1zm-2 1.1s.1.1.2 0v-.4s.3 0 .4.2c.6 0 .3-.5.3-.5s.8 1 .2 1.8c.3.2.3 0 .3 0v.2h.4-.1v-.2c-.1-.3-.1-.7.1-.9.2-.2.5-.1.7 0v.2h.3c.1-.1.4.1.6.1l-.1-.1-.3-.2c-.5-.3-.5-.6-.4-.7l-.2.2s.2-.3 0-.6c-.3-.3-.5-.7-.5-1.1l-.3-.3s.5 1 .2 1.2c0 0 .1-.3-.2-.4l-.6-.5h-.1l-.1.2h-.1l.1.6c-.6-.6-.6-.3-.6-.1l.5.6-.8-.6v.3c.1.1 0 .2.2.3h-.1l-.1.6v.1zm1.9 1.8h.2c-.2-.3-.5-.4-.9-.4-.1 0-.3 0-.3.2 0 0 .7-.1 1 .2zm.6-7.7l.4-.5s-.2 0-.4.3v.2zm.5 11.6h.1zm-.7-2h-.2v.1l.2-.1zm.5 2.4v.4h.2V48l-.2-.2zm.3-9.4h.7v-.1h-.1l-.5-.2-.2.2zm3.2 0l.2-.3-.3.2zm-3.7 4.2v-.1zm0-.2l-.1.1.1.4.5-.2a1 1 0 0 1-.5-.3zm1.2 0zm-.8-3.7l1 2s-.3-1-1-2zm.6 2.8l.2.3v-.3zm-.7 6l-.1.2.2.1-.1-.2zm-.5-.2h-.1zm-2-3.6H32.4zm-.3-.2h.1zm1.5 1.7s0-.3-.2-.3l.2.3zm1.2 3.3h.3v-.1h-.3zm-2-6.4c0 .1 0 .3-.2.5.4-.5.4-1 .4-1l-.2.5zm-.9 1h.1v-.2.1zm1.3 1h-.2l.3.1zm.2.4v0zm1.3 4.3v.2c.1 0 .2-.1 0-.2zm-1-4.2v.6l-.1.2c.2-.2.1-.5 0-.8zm-.2-.6l.1.5-.1-.5zm-.4-.4h0zM29 46.3l.3-.9H29c-.1.2-.3.2-.5.3l.6.6zM41.8 30c-1 0-1.3 1-1.3 1l.4-.4 1-.6zm-1.8.5l.2-.2-.6.1c.1 0 .3.2.4 0zm-4.1 12c1.5.6 1.6 1.5 1.6 2h.5c-.3-.1-.5.2-.4-.7 0-.4-.2-.7-.5-1-.3.1-.6-.1-.8-.3h-.4zm3.6-.5c-.2 0-.4-.2-.4-.3v-.1c-.1 0 0-.2 0-.2h.2l-.1.3s.2.4.5.2c0 0 .1-.2 0-.4v-.6c-.2 0-.3 0-.4-.2H39h.3v-.3c0-.3 1-1 1-1-1.5.6-.7.4-1.6.6-.3 0-.6 0-.4-.2.8-.4.5-.6.8-1.1-1-.2-1.9.2-2.5.6-.1.7 0 .4.3.5 0 0-.5.3-.8-.2 0-.2-.2-.4-.3-.4 0 .1.6 1.3 0 2h.4l.6-.3c.3-.1.2-.3.2-.3.1 0 0 .4-.2.6.7-.1 1-.3 1-.3l-.4.2c.2.1.3 0 .4 0 .2-.3 0-.5 0-.5l-.2.1v-.1l.1-.1c.2 0 .3.2.2.4l-.1.2c0 .7-.8 1.2-.8 1.2 0 .1.2 0 .2 0 .4-.2.4.1.4.2 1.3 0 2-.2 2.4-.6h-.3l-.2.1zm-2 .5h.1s0-.2-.2 0zM36 48.2s-.7-.6-1.4-.7l1.4.7zm.3-15l.2.2-.1-.2zm.3.5c0 .5.1.7.3.9h.1a2 2 0 0 1-.4-.9zm2 .4V34zm.5-2.5h.1c0-.1-.2-.2-.3-.1h.1zm-.3 2.3l.2.1c.1.1.6 0 .4-.5 0 0-.2-.3-.5-.2-.3 0-.6-.1-1-.6v.1h-.1v.2c.4 0 .8.2 1 .8.1 0 .2.2 0 0h-.2v.1zm-.8-.2l-.1-.1.1.1zm-6.5 11.1l-.1-.4-.1-.1.1.5zm-2-1.1h.1zm-.5-1.2h-.2zm.6 2c.1-.1.1-.3 0-.4l-.1.4h.1zm3-8h.1l-.1-.1-.2.1h.2zm-2.9 7.1h.1zm5.6 7.3l-.3-.5a2 2 0 0 1-1-1.4v.1c0 .6.7 1.4 1.3 1.8zm-6.8-6.8l1-.3-1 .2zm4.5 4v-.5h-.2v.6l.2-.2zm-2.5-4c-.1 0-.2 0-.2.2l-.2.3.3-.4.1-.1zm2.5-8.2v.1zm1 12.1l-.2.3.1-.1V48zm-3.7-3.2h-.2v.2c0 .4 0 .8.2 1.3 0 0-.2-.6 0-1.5zm-.3-.9h-.3v.6h-.3l-.2.5v.3l.8-1.4zm.1 0v-.2l-.3.2h.3zm2.7-5.6zm.5 11.7l-.1.1v.2h.2V50c.1-.1.2-.4 0-.5v-.2l-.2.1c0 .1 0 .1.1 0 .2.2.1.5 0 .6zm2.7-1.2h.2s.3-.2 0-.3c0 0 0-.1-.2 0l-.7-.1c.1.2.3.5.2.7 0 0 0-.3-.3-.3l-.2.7s-.2-.4 0-.8l-.2-.1c0 .3-.2.8.3 1.3 0 0-.2-.3 0-.3.7 0 .7-.8.9-.8zm-.4-1.3l.2.1v-.1h-.2zm11.6-8c0-.1.1-.3-.1-.3l-.2.1.2.2zm-1.4 0h-.1s.7-.3 1.1-.3c0 0-.6 0-1 .3zM42.8 41l-.5-.4h-.1l.6.4zm-8.2 4.2l-.1-.2v-.6l.3.7-.2.1zm-.4 1l.1-.3v.2zm1.2-2.8c.6 1 .8 2.2.8 2.2-.2-.6-.6-1.5-1-2.1H35c-.2.1 0 .3 0 .3-.5-.6-.2-1-.2-1.1-.4 0-.5 0-.6.3h.1c.1 0 0 .2 0 0h-.1c0 .3.2.9.7 1.2l.2.3c-.5-.3-1-1-1-1.5V43v-.4.2c-.1 0-.2-.1-.1-.3l-.1-.1h-.2v.2l.2.2-.1-.1c-.2-.1-.2-.2-.2-.3h.4l.1-.1-.1-.3c-.1-.1-.4-.2-.5 0-.3.2-.1.7.1 1l.1.3c.2 0 .3.1.3.2.6.7.4 1.6 0 2.3v.4l.1.1h.1c0 .3.1.5.2.5l.2-.7-.3-.1.2-.5v-.1h.3l.2.1.3-.2c0 .2.2.2 0 .5 0 .1.1 0 .2 0l.4-.6s-.2.5 0 .6c0 0 .1.3.4-.2 0 0 .5.6-.5 1.3l.2.2h-.2v-.2l-1 .4.2.1c.3-.1 1-.4 1.1 0l.2.1s.3-.6.2-1c.4-.5.4-1.2.3-1.7v.8c-.2-1 0-.5-.3-1l-.1-.1-.1.7c-.7-.8-.7-2-.7-2V43l-.2.4zm-5.7-.8l-.2.2.3.4.2.2-.2-.7zm-.6 0l.3.1.2-.2c-.3-.3-.6-.8-.7-1.5l-.6.7c.3.2.7.4.8.8zm-2.9 3.3c0 .2.3.3.4.1l-.1-.3-.3.2zm1-1l-.1-.1.5.4-.4-.4zm1-3l-.1.2.7.2-.7-.3zm-.7 1.5l.8-.2-.8-.2-.2.2.2.2zM46 37V37v.2zm-8-.7l-.3.4.2.4h.4l-.3-.8zm12.7-13.3l-.7.3.7-.3zm-3.5 1.8H47h.2zm4-2l-.5.2.4-.2zm.6-.3c.2 0 .3 0 .5.2 0 0-.3-.2-.4.1v.6s0 .3.2.1c.8-.4 1.5.1 1.7 0l-.5-.3h-.2c-.5-.1-.6-.6-.6-1l-.8.3zm-.1 0l-.3.2.3-.2zm-4.1 2l-.2.2.2-.1zm-1.4 7.7v.2l.5-.4v-.2l-.5.4zm-.4 2.2l.2 2.3c0-.4.2-1.5-.2-2.3zm1.7-5.7c.4 0 .3 0 .6.2l-1 .3c-.1.6-.5 1-.7 1.2l.7-.4.3-.2c-.3.4-.8.7-1.2.7a2 2 0 0 1-.2.2l.1-.2H46c0 .1 0 .2-.2.2v.1c0 .1-.1.1-.2 0h-.3v-.4H44.9l.2.3-.3-.2c0 .1-.1.3 0 .4l.1.1h.2c.2.1.6 0 .9-.1l.3-.3.6-.1 1.2-1.3.5-.7h-1l-.1.2zm-2-1.8l.5-.2-.2.6h.2s-.3 0 0 .2c.5.4-.3 1-.4 1.1v.2c1.4-2 2.7-.8 2.7-.8-.9 0-.6.2-.5.3l.7.1.1-.2v-.8h-.2s.3 0 .3-.4c-.2 0-.3-.2-.3-.2s.1.3.2-.2v-.2l-.3-.2c-.2 1.1-.6.8-.8.7l-.2-1c.1.2.3.4.5.4.2.1.2.3.2.3.2-.2-.2-.9-.2-.9.3.4.6.4.8.4h.2l-.6-.6h-.1a2 2 0 0 1-1-.3l.1.7-.2 1.3c0 .2-.3.4-.3.2 0-.6-.1-.6-.3-.9.7-.5.5-1.3.5-1.4V25 25l-.2.2c0 .2-.1.4-.4.7a2 2 0 0 1-.8 1zm.3 4.2zm1.2.6h0zM36.2 42.2c.7-.2 1.3-.8 1.3-.8-.4.4-1 .7-1.4.8zM30 41.1c-.2 1.4 1 2 1 2-.8-.8-1-1.6-1-2zm4.4-.7h.2l-.2-.6v.5zm.4.4c-.2-.1-.1-.1 0-.1l-.2-.3h-.2v.1l-.1.4h.3c.1 0 0-.1 0-.1h.2zm.7-3.2h-.7l.4.1.3-.1zm-5.4 3.1v0zm6.2-3.2H36 36.3zm-.8 4.3h-.1v0zm-1.1-3.9l.2.2h.1l-.3-.2zm1.5-3h.1c-.2-.2 0-.3 0-.2.1 0 0 0 0 .1.3 0 .5-.3.5-.6l-.7.2h-.5c-.1 0-.2.2 0 0l-.2-.1c.1.5.5.6.8.6zm-2.6 3h.1v-.1zm1 3l-.1.2v-.2zm-.6-2l-.2-.3v.1l.2.2zm.3-.5zM30 43h.1zm6.5.6c-.2-1-1-1-1-1 .7.3.9.8 1 1zm-1.6-.1v-.6c-.2.3 0 .6 0 .6zm-4.2.3zm4.3-1l.1-.2-.1.2zm1.5 1zm.1-2.3h.1zm-.9.5l.2.1.1-.6h-.2v.5zm-1.5 0v.1c.1.2.5.4 1 .4l-1-.4zm-4 1.4l-.1-.3.1.3zm4 4.4v-.5l-.1.6zm-1-.6a1 1 0 0 0-.3.1v.1h.2zm1.4-.2h.1c.2 0 .5-.2.7-.6a2 2 0 0 1-.8.6zm.8 1.4l-.1-.2v.2zm0-2.2v.2zm9-19.5v.1h.2l-.2-.2h.3-.1v-.1h-.2v.2zm-11.2 9.2zm7.6.3H41c.2.3.2.1 0 0-.3-.8-.9-1-1.3-1.1v-.4c.5.6 1 .8 1.5.8.3 0 .6.2.6.3.3.7-.4.8-.6.8 0-.2-.2-.3-.3-.3h-.2zm0 .5l-.1-.1.1-.1v.1zm-1-.8l.2.2-.2-.2zm-.1-1.3l-.1-.4.2.4zM38 35.8s.5-.3 1.2-.2l.1.2c-.3-.1-.7-.2-1.3 0zm0-.8zm.4 0h.2l.2.2-.3.1h-.4c0-.2.1-.3.3-.3zm-.5.2l-.2-.3h.2v.3zm-2 .4l.1-.1v.1zm4.8-4l.2.2c-.1 0-.2 0-.2-.2zm.3 5.4v-.2h.1c.3 0 .8-.2.9-.6l-.1-.5c.2-.3.2-.8.1-1.2l-.4-.3c-.1-.1-.3-.2.1 0h.2v-.3h-.4l.3-.1-.3-.5h-.1v-.1l-.1-.2c-.2 0-.6-.8 0-1.8.2-.4.5-.6.3-.6-.3-.1-.5.6-.8.5-.5-.2-.4.3-.4.3l-.1-.4h-.2v-.2h.2c0-.4.2-.7.6-1h-.1l-.6.4c0 .2-.1.3-.3.4-.2 0-.3 0-.4-.2a3 3 0 0 1-.3 0v.4c.3 0 .5.2.5.5l.1.3h.3V32h-.8l.2.5c1.2 1 2 2.7 2 2.7-.5-.9-1.4-1.8-2-2.4v1.1c0 .2-.4.4-.6.4h-.1v.2s0-.2-.3 0c0 0-.5.3-1.2-.2-.2-.2-.3-.5-.4-.3 0 .2.4.4.3.6v.3h.2-.1l.5.7-.7-.7c-.3 0-.6 0-.7-.5l-.2.5c.2 0 .5 0 .5.2l-.1.3h-.3v-.1h-.1c0-.1.1-.1.2 0 0 .1.1.1.2 0l.1-.2c0-.2-.4-.2-.7-.1H36c-.5.2-.9-.2-1-.7l-.3.2v-.1l-.3.4v.2H34l-1 .9h.2l.7-.5c.2-.3.5-.4 1-.4 0 0-.5 0-.3.3v.2h.1l.1-.2v.1l-.1.2v.7c.1 0 .3 0 .6-.3v.4c.4-.3 1-.6 1.6-.7H37.6c-.3.4 0 .5-.6.8v.2l.8-.4-.5.4.7-.3V36v.3l.4-.2-.3.3.3.7h.2v.4h.2s-.1-.2 0 0h.2s-.4 0-.2-.4c.2-.3-.4-.6-.3-.8 0-.2.2.1.5.4l.4.2h.2s.4 0 .8.3l.3-.1c.2-.3.4 0 .4 0zm-9.6.7l.6-.7-.6.7zM44 26.8l-.2.1h.2zm-.5.3l.2-.1-.2.1zm-.8.6c-.1 0-.2 0-.3.2l.3-.2zM31.2 38v.1zm-4.4 6l-.1.2V44zm3-4.2l-.6.7.6-.7zm1.6-2l-.1.1zm-5.2 7v.2zm4.2-5.8l-.4.5.4-.5zm13.8-12.3H44h.2zm1.2 10.6l.4.3s0-.3-.2-.3a.8.8 0 0 1-.2-.3h-.1c-.1 0-.2-.1-.1 0 .2.1.2.2.2.3zm1.5-2.9v-.1l-1-.6s.4.5 1 .7zm-.6 6.8h-.2.2zm3-7a5 5 0 0 0-.3-.3H49c-.2 0 0 .2.2.2h.2zm-3.5 6.3v.1zm-1.4-14l-.1.1zm1.5 12.6l.1-.1h-.1zm-.7-13l-.4.2.4-.2zm1.2-.8v.4l.2-.5-.2.1zm-2 6.2c.4 0 .9 0 1.2.6 0-.3 0-.6.2-.8h-.9v0a4 4 0 0 0-.5.2zm1.4 1.4l.3-.3v-.1l-.3.4zm1 .5l.3-.1v-.5l-.5.6h.3zm-1-1c0-.1 0-.2.2-.3a4 4 0 0 0-.2-.7v1zM25.2 47v.2s.2-.5.5-.6l-.5-.1v.5zM23 60c-1.6.3-.8.3-1.7.3-.2 0-.5 0-.3-.2.8-.3.5-.5 1-1-.8-.2-1.5 0-2.1.1a49 49 0 0 0-.6 2c.7 0 1.1-.2 1.1-.2a3 3 0 0 1-1.1.4l-.2.8c3.6 1.4 3.9-1 3.9-1-1.4.4-1.2-.2-1.2-.4.1-.3 1.2-.8 1.2-.8zm27.9-23.7c1.8 1.4 3.2 1.2 3.2 1.2-2.1.4-3.2-1.2-3.2-1.2zm-.2-1.1c.7-1.6 1.9-1.5 1.9-1.5-1.4.6-1.9 1.5-1.9 1.5zm0 5.5v-.1c.2-1.4 0-3.3 0-3.3.4 1.3.2 2.7 0 3.4zm0 .3v-.3.3zm-.8 3.3c.4-.8.3-1.3.2-1.5.4.9-.2 1.5-.2 1.5zm.5 1.6c0-.2 0-.7-.6-1.3 0 0 .8.4.6 1.3zm1.6-2c-.6 0-1.6.4-1.6.4C51 44 52 44 52 44zm-3.1 1.7s0-.7.7-1c0 0-.5.3-.7 1zm-.6-1l.1-.1s-.1-.3-.2 0a.9.9 0 0 1 0-1.2v-.2l.1.4.3.6c.1.3.4.5.5.5-.4.2-.7 0-.8 0zm1.1-.1c-.7-.1-.8-.7-.8-.7.4.6.8.7.8.7zm-2.3-1.3c-1.2-.3-1.9 0-1.9 0 1.2-.7 2 0 2 0zm-1 3c-1.4-.6-1.4-2.2-1.4-2.2.4 1.5 1.3 2.1 1.5 2.3zm-1.3-3s.3-1-.1-2.2c0 0 .8 1 .1 2.2zm-2.5-1c.2.3.8 1.1 2.3 1.3 0 0-1.6.2-2.3-1.3zm0 4.7c.8-.8 1.8-2.4 1.8-2.4-.5 1.4-1.8 2.4-1.8 2.4zm7.8-9.4c-.8.1-1.2.7-1.4 1.3v-1l1-.8c.3-.2.5-.2.7-.2 0 .4 0 .6-.3.7zm-.4 2v-.2.2zm-.4.7zm-1.6-.3s.4-.3 1 0h-1zm-.2.3s0 .4.3.9c0 0-.5-.2-.3-.9zm-1.1.3l1-.5c-.4.5-.8.5-1 .5zm.4.5a.7.7 0 0 0-.3-.2v-.1l.6-.1c-.2.1-.2.2-.3.4zm1.1-3v.4l-.1-.4zm.5-.2c0 .3-.1 1.2-.5 1.6 0 0 .4-.8.5-1.6zm.3 1.5v.1l-.8.2.1-.2h.7zm8.2-2.2l-1.7-.1c-.3 0-.6-.3-.3-.3.8-.1.6-.3 1.1-.7-1.6-1-3.8-.1-3.9-.1 0 0-.3.2-.3 0 0-.3 1-.8 1-2 0-.4.5-.3.5-.3-1.3-.7-2.5.6-2.6.8-.3-.8 0-1.4.4-1.8h-.4c-.5.2-1.1.3-1.4 0v-.5-.4l-.3.3h.3l-.1.2.1.3-.3.2-.2-.2v-.1.1l.2.1.3-.1-.1-.2v.1l-.5-.3h-.2c-.5-.1-.7-.6-.7-1.1h-1l.8-.1-.5-.2h-.5l-.3.1c.3.2 0 .5-.2.4V31l-.2.3.2.7.4-.3a.8.8 0 0 1-.1-.5c.3 0 .5 0 .5.3v.1l.7.1s-.3 0-.3.2v.4c.4.5 1.2.6 1.7.6.5-.1.6.3.6.3l-.1-.3c.3.2.8.2 1.2 0-.2.3-.3.7-.2 1.3-.2-.4-.5-.7-.8-.8l-.5.4.5.4h.6l-.5.1c.3.3.5.7.6 1.3l-.8-1.2-.3.1c0 .2-.3.6.8.6 0 0-.8 2.1-4-.9H46v.4c.2.1 1.8.9 1.4 1.7l-.2.3a4 4 0 0 0 3.1-.5s-1.2 1.3-3 .5c0 .2 0 .1.2.2 0 0-.6.2-.6-.5 0-.1 0-.4-.2-.4 0 0 0 1.4-.7 1.8.5.3 1 .4 1.5.4-.2.4-.2 1 .2 1.2v.4l-.2-.2s-.3-.8-.8-.8l-.2.2h-.2s.6 0 .9.2h.1c.1.1.1.3 0 .4l.2.5-.5-.6-.5.2s.5.1.6.3h-.3c-.2.1-.7.2-1-.2 0-.1 0-.1-.1 0v.1l.3.3h.5c.3 0 .6-.2.5 0 0 .1-.5 0-.6.2l-.1.2v.4h.1c0 .2.2.3.2.2V41l.3.3v.2c.3.4 1.2.5 1.8.4l-.4-.1c-.6 0-1.1-.2-1.3-.4.2 0 .2-.2 0-.2v.1c-.1-.2 0-.4.2-.6 0 0 .1.7.9.8 0 0-.3 0-.1-.2.3-.3 0-.8 0-.9h.2c0 .1.1.3.4.5l-.2.1h.3c.3.2.8.5 1.3.6-.2-.3 0-.3-.4-.6 0-.1 0-.1.2 0h.1l.4.4c.2.2.3.5.2.6l-.2-.1c.1.6-.2.5-.3.5l-.3-.6.1.5h-.2V42v-.3h-.3c-.1.2 0 .3 0 .4h.2l.3.2v.2c-.2-.3-.3-.2-.5-.4-.3.8.3 1.7.3 1.7s.1.1 0 .2c0 0-.4-.4-1-.3 0-1-.4-2-1.4-2a2 2 0 0 0-.5-.1l-.8-.4v.1l-.1-.2v.1c0 .2.3.4.6.5-.3 0-.6.3-.8.7.2-1.4-1.3-1.7-1.3-1.7s.6.2 0 .7l-.1.2v.1c0 .3.3.8.1 1-.2.2-.2-.4-.5-.9l-.2-.3h-.1c-.1 0-.5.2.2.7 0 0-1.3.8-2-1.7h-.2c.2.4.2 1-.2 1.1-.4.2-.2.3-.2.4 0 0-.3-.1-.1-.5l-.1-.1h-.2c.4 2.8 2.9 2.5 3 2.5.2 0 .4 0 .5.2-.2.2-.3.3-.5.2-1.2-.5-1.9.4-2.2 1-.2.5-.6.4-.6.4.4.3 1.6-.4 1.6-.4-.6.7-.7 1.1-.6 1.5v.5c-.5.4-.8-.1-.8-.3l.2-.2c0-.1-.2-.2-.3-.1 0 0-.1.1 0 .2v.1c0 .3.3.6.5.5l.4-.1c1 .3 1.9-1 1.9-1l-.1.5c-.4.6.1.8.1.8 0-.2-.3-.2.3-.5 1-.3 0-2.2.1-2.4l.2-.4c.8 5 3 3.7 3 3.7-1-.7-.5-1-.3-1l1 .4-1-1c-.1-.1-.2-.4 0-.3.6.4.6.1 1.1.2-.5-1.5-2.4-2-2.4-2s-.3-.1-.2-.3c0-.1 1 .1 1.6-.7.2-.3.4 0 .4 0-.4-1-1.8-.8-2-.8.3-.6.8-.9 1.2-.8l-.1.2c0 .1.4.2.2-.2h.2c.5.1 1 .5 1.2 1.2-.4.4-.6 1-.2 1.5l.1.1c.2.2.4.6.2.7h-.3v-.2-.2.2.3h.3c.2-.2.1-.5 0-.7h.6c-.6.5 0 1.2 0 1.2s-.2-.3.2-.3c.3 0 .2-.6.4-.6s0 .2 0 .5c-.2.9.2 1.3.3 1.3.3.1.2.3.2.3.2-.1 0-.4.2-.4l.2.3v-.4h.1v.2c0 .3 0 .2 0 0 1-1.3-.2-2-.3-2a.4.4 0 0 1-.1-.3h.3c.3.7 1 .5 1.3.4h.3c0-.2-.8-.4-.8-.4.5 0 .7-.2.8-.4l.2-.2c.3 0 .3.3.2.4h-.1v.2h.2v-.1-.4l-.3-.1c-.3-.5-1.1-.3-1.1-.3l.2-.1c.4-.1.2-.5.2-.5 0 .2.1.3-.3.2-.5-.2-.8.9-.9 1h-.2c1-1.4.7-2 .4-2.3v-.1c1.3-.5 1.2-2.4 1.2-2.4.2 0 .2.3.2.6 0 .8.8.7.8.7-.2-.2-.6 0 0-.8.6-1-1.7-2.2-1.8-2.4l-.1-.5c4.5 4.3 5.6 1.4 5.6 1.4-1.4 0-1-.6-1-.8.2-.3 1.4-.5 1.4-.5zM34.2 54.6c1.3-.5 1.6-1.3 1.6-1.3-.4 1.2-1.6 1.3-1.6 1.3zm-1 2c.1-.2.7-.7.7-1.8 0 0 .3 1-.8 1.8zM32 54.9s.6-.7 1.6-.3c0 0-.8-.1-1.6.3zm.4-1.6h.1c.2 0 .1-.3-.1-.1V53c0-.5.4-1 1.1-1l.2-.2-.4.4-.2.8v1c-.5-.1-.7-.5-.7-.8zm1.2 1c-.6-.8-.2-1.4-.2-1.4-.1 1 .2 1.4.2 1.4zm3 1.8c-.7-.5-2-1-2-1 1 .1 2 1 2 1zm.4-3.8c-.5.7-.6.4-.7.3-.1-.2.1-.9.1-.9l-.5.9c-.1 0-.3.2-.3 0 .2-.5 0-.4 0-.8-1 .5-1.2 2-1.2 2s0 .2-.2.2c-.1-.1 0-.8-.7-1.2.8-1 1.3-2.3.4-3.4v-.1l-.3.1c.5.7.6 1.6.2 2.4-.8 0-1.5.4-1.6 1.2v.4c0 .3-.1.8-.4.8-.2 0-.3-.1-.3-.3 0 0 0-.2.2-.2s.2-.2.1-.2l-.2.1-.2.3c0 .2.2.4.4.4.3 0 .5-.4.5-.7.1.2.3.4.6.5-1 0-1.1 1.1-1.1 1.1s.1-.4.5 0c.3.2.8-.3 1-.2.2.2-.2.2-.6.4-1 .7-.9 1.5-.8 1.6.2.4 0 .5 0 .5.3 0 .4-.3.5-.3.2.1 0 .5 0 .5l.3-.3V57.7c-.4.2-.2.1 0 .1 2-.5 1.5-2.3 1.5-2.4l.1-.4c.2 0 .3.2.3.3-.3 1 .4 1.4.9 1.6.4 0 .3.3.3.3.2-.3-.4-1.1-.4-1.1.5.4.9.4 1.2.3h.3c.3.3 0 .5-.1.6l-.2-.1s-.1.1 0 .2h.1c.3 0 .5-.3.4-.5l-.1-.2c.1-.8-1-1.3-1-1.3.1-.1.3 0 .4 0 .5.2.7-.2.7-.2-.2 0-.2.3-.5-.2-.3-.6-1.6.2-1.8.2l-.3-.1h.1c3.6-1 2.4-2.5 2.4-2.5zM23.1 56v.1c-.2.2-.5.3-.7.2h-.1l-.1-.2c0-.1 0-.2.2-.1l.1.2s.5.1.5-.2c-.5-.2-1 0-1 0h-.4c0-.2.1-.3.3-.3.3.1.6 0 .8-.2-.3-.1-.6-.4-.7-1.2 0 0-.1 1.2-.6 1.3v.2l-.2-.5-.2.3.2.5-.2-.4-.4 1.2.4-.2-.4.3-.1.2.4-.1c-.1.4-.3.6-.6.7v.2c.3 0 .8 0 .8.3 0 .2-.1.3-.2.3l-.3-.1c0-.2-.1-.2-.2-.2l.1.1v.1l.4.2c.1 0 .3-.2.3-.4 0-.3-.4-.4-.7-.5.2 0 .3-.2.4-.5 0 .9 1.1.9 1.1.9s-.4 0 0-.5c0-.2-.4-.6-.3-.8 0-.2.2.2.4.5.7.8 1.4.6 1.5.6.3-.2.4 0 .4 0 0-.4-.3-.4-.3-.5.1-.2.5 0 .5 0l-.3-.3h.2c.3.3.2.2.1 0-.2-.7-.7-1-1-1.2zm.7-2.9c.9 1.5 2.2 1 2.2 1-.3-.4-.5-.6-.5-.8-.4.1-1 0-1.7-.2zm7-3.8v-.1h.1zm-.2-.7l-.1.1v-.1l.2-.2v.2zm-.2 2.9c0-.3 0-.7-.2-1h.2v1zm-1-1.8h-.1zm-.4.7l-.4.5.2-.5.3-.3v.3zm-.3 2.8c-.2-.7-.3-1.3-.2-1.8v-.2l.3-.1c-.4 1.3 0 2 0 2zm-1.3-1.4l-.1-.4.3-.7h.3c.3-.2.3-.5.2-.8h.4c-.5.7-.8 1.4-1.1 2zm.6-1.7l-.1.5s-.1.1-.2 0l.3-.5zm0-.6h-.1.1zm-.3-1.1l.2-.4.2.2.2.9s-.2 0-.3-.2c0-.2-.2-.4-.3-.5zm.4 1.1h0zm.6.1v.1l-.2.2-.3-.1.5-.2zm0-.5l-.2-.4.2.4zm-.2-.6zm-1.6-.7h.2-.2zm4.5 1.7h-.2.2zm.7.6l.2.2-.4-.2h.2zm.7-.6h-.7.7zm-.4 1.2l.1.2-.1-.2zM31 51c.3.2.7.3 1.2.2.5-.1.4.4.4.4l.1-.8v-.1a2 2 0 0 0-.3-.7c.2 0 .4-.1.5-.3l.2-.1.1-.1v-.2l-.2.2V49.2c-.1 0-.2.2-.4.1 0 0 .2 0 0-.3h-.9c0-.2.2-.2.4-.2h.5v-.2h-.2v-.4c0 .2 0 .4-.4.1.3-.4.4-1 .3-1.4v-.2l-.4-.9v.9-.1l-.1.6-.1.4-.3.4.1-.5c-.2-.2-.3-.2-.5-.7 0-.2-.2 0-.2.3 0 .7 0 0 .2 1.3 0 0-.4-.9-.6-1-.2 0-.7-.2-.5 1 0 0-1.3-.3-1-2l-.5-.4c0 .7.2 1.8 1.1 2.9 0 0-1.4-1-1.2-2.9h-.1c-.2 0-.7.2.1 1 0 0-.6.3-1.3-.3l.7 1.2-.2.3-.5-.3c-.2-.6-.6-1-1.1-1.1v.4l.4.1h.2l-.2.1c.2 0 .2.2.2.2l-.2-.1c0 .4-.3.9-1 .8l-.1.2h.2s1.2-.5 1.7.8c0 .1.1.2 0 0H27l.2.2h-.3l.2.2.6-.1-1.3.5-.2-.2h.2l-.7-.4c-.2-.2-.2-.5-.3-.4-.1.2.3.4.2.6-.3.3 0 .4 0 .4s-.7 0-.8-.7l-.2.4c.2 0 .4.2.4.4 0 0 0 .2-.2.2h-.2v-.2c0 .2.2.2.2.2l.2-.2c0-.3-.4-.3-.6-.3H23.8l-.2.2v-.3c-.3.3-.4.7-.6 1l.1.6c.4-.3 1.5-.9 2.5-.6-.3.4 0 .5-.6.7-.2.1 0 .2.2.2l1.2-.3s-.8.4-.8.6c0 .1-.1.5.7.4l-.1-.2.6-.3h.5l-.4 1.2-.5-.6s0 .2-.2.3l.7.4c-.5 2.4 1.3 2.8 1.3 2.8-.3-1.6.4-1.3.6-1.2.3 0 .8 1.3.8 1.3-.2-1.8-.2-.8-.2-1.8 0-.3.2-.6.3-.4.3.9.4.6 1 1.1.3-.7.2-1.5.1-2.2.5-.7.5-1.3.3-1.8zm5.6-3.2s1.3-.4 2-1.1c0 0-1 1.1-2 1.1zm2.5-2.3h-.3v.3l.2-.1c.2 0 .5.2 0 .6h-.3c-.3 0-.6 0-1.2.5 0 0 .8-1 .6-1.3 0 0 0 .3-.4.5-.5.2-1.3.6-1.2 1.5 0 .2 0 .3-.3.3v-.3H36v.1c.2.2.4.4.4.7.3.2.9.6 1 1.7 0-.2-.2-1-1-1.6v.2c.1.1 0 .3-.1.3h-.1v.1s0 1.6.8 2.8c0-.5.2-.3.1-1 0-.2.2 0 .2.2l.4 1.4v-1.2c.1-.2.4-.6.6.6 0 0 1.5-2-1.7-3.7l.2-.1c.2 0 1.2 1.3 1.7.4.4-.6.3-.3.5-.2 0 0 0-.5-.6-.3-.1 0-.3.2-.4 0 0 0 1.2-.6 1.2-1.6l.2-.3c.1-.2 0-.5-.2-.5zm48.3-26.4c-.2.4-.7.8-1.4 1 .1 0 .7-.3 1.2-1l-1.4-.4c-.6.3-1.4.8-2 1.6.6 0 .5.2 1.2-.2.2 0 0 .2-.1.3-.7.6 0 0-1.5 1 0 0 1.2-.5 1.4-.4.2 0 .8.2-.6.9 0 0 2.7.9 3.6-2.7l-.4-.1zm4.3 1.3h-.2c0 .2 0 .3.2.3 0 .1-.1.5-.7.2 0 0-.3-.2-.3-.4s0-.4-.2-.6l-1.5-.4 1.3 1.1s-.9-.5-1.5-1.2l-.8-.2c-.2.6-.6 1.5.3 1.7.7.2.4.3.3.5 0 0 .7-.3.2-.8-.1-.1-.3-.3-.2-.4 0 0 1.2 1 2.3.8l.5.1c.3 0 .5-.2.5-.4v-.1s0-.2-.2-.2zM56.3 33.1s1 0 1.5 1c-.1-.2-.5-.8-1.5-1zm-.1-.3c-.3-1-.8-1.5-1-1.6 1 .6 1 1.6 1 1.6zm-.1.5s-.2.7 0 1.5c0 0-.5-.6 0-1.5zm-1.6 0c.8.3 1.3 0 1.3 0-.8.5-1.3 0-1.3 0zm.2 1l.1-.2s-.3-.1-.2.2a1 1 0 0 1-.9-1.3l.3.3.7.3c.4.2.8.1.9.1-.2.5-.6.6-.9.6zm3.2-3.4c-.6.5-1.3 1.6-1.3 1.6.4-1 1.3-1.6 1.3-1.6zm-1 2l-.4-.1c.2-.2.3-.3.4-.2.8.4 1.3-.2 1.5-.6.1-.3.4-.2.4-.2-.3-.3-1.1.2-1.1.2.4-.4.5-.7.5-1-.1-.2 0-.3 0-.4.3-.2.5.1.5.2 0 0-.1.2 0 .2 0 0 0 .1 0 0h.1v-.1c0-.2-.2-.4-.4-.4h-.2c-.7-.1-1.3.7-1.3.7V31c.4-.4 0-.6 0-.6 0 .1.2.2-.2.3-.7.3-.1 1.6-.1 1.7l-.2.2C56 29 54.5 30 54.5 30c.6.5.3.6.2.6l-.8-.2c.7.6.4.2.7.6.1.1.1.3 0 .2-.4-.2-.4 0-.7 0 .3 1 1.6 1.4 1.6 1.4s.2 0 .1.1c0 .1-.7 0-1.1.5-.8-.9-1.8-1.4-2.9-1v.1c0 .1.1.2 0 0h-.2l.2.2a2 2 0 0 1 2 .3c-.1.7.2 1.4.9 1.6h.3c.2 0 .7.3.7.6l-.3.2c-.1 0-.2 0-.2-.2s-.1-.3-.2-.2v.1l.1.1c0 .2.1.2.3.2.1 0 .3 0 .3-.2 0-.3-.2-.5-.5-.7.2 0 .4-.2.5-.4-.1 1 1 1.2 1 1.2s-.5-.2 0-.5c.2-.2-.3-.7 0-.9l.2.6c.5 1 1.2 1 1.3 1 .4-.1.4 0 .4 0 .2-.2-.2-.4-.1-.5l.4.2s-.3-.3-.2-.4h.2c.2.4.2.3.1.1 0-2-1.8-1.8-2-1.8zm12.3-6.3c2 1 3.3.5 3.3.5-2 .9-3.3-.5-3.3-.5zm.8 4.6c0-1.4-.8-3.5-.8-3.5.9 1.4.8 3.5.8 3.5zm-1.2-5.6c.3-1.6 1.5-1.8 1.5-1.8-1.2 1-1.5 1.8-1.5 1.8zm-2.4 2.1c.6-.2 1.4-.4 2.2-1.2 0 0-.7 1.2-2.2 1.2zm-3.7-2.5h0zm12.3 1c-1.5.2-.7.2-1.6.2-.3 0-.6-.1-.4-.2.8-.3.6-.5 1-.9-1.7-.7-3.7.7-3.7.7s-.3.2-.3 0c-.1-.2.8-.9.5-2-.1-.4.4-.4.4-.4-1.4-.4-2.2 1-2.3 1.3-.2-.4-.3-.8-.2-1.1h-.2c0 .3 0 .6.2.8l-.4-.2v.6l.1.2.5.8-.6-.6h-.3v.2l-.2-.1a.1.1 0 1 1 .2-.1h.2c-.2-.3-.6-.5-1-.7v.7s0-.2-.2-.3l-.3-.3v.3c0 .6 1.2.5 1.3 1 0 .3-.5-.1-1.2-.2l-.4-.1-.8-1c-.2.2-.5.4-1 .4l.4.7h-.1a4 4 0 0 0-.5-.7c-.2 0-.4 0 0 0l-.2-.2h-.1.1l-.1-.2h-.4l.1-.2-.2-.3c-.2 0-.5-.1-.8-.4-.1-.3-.2-.5-.3-.4 0 .2.3.4.2.6v.3a5 5 0 0 0-.5.7l.5.1c-.3.3-.1.4-.7.7l.3.1h.4c0-.2 0-.5.2-.6h.3v.5l.2-.1-.3.2v.8h.3l-.2.4c.3 1.5 1.2 2 1.3 2 .7 0 .7.5.7.5.2-.2.2-.5.1-.7h.6v.1h.4c1.4-.2 2.2-1.5 2.3-1.5.2-.3.4-.3.6-.4 0 .4 0 .6-.2.7-1.3.7-1 2-.8 2.8.3.5 0 .8 0 .8.6-.1.8-1.8.8-1.8.1 1 .5 1.5 1 1.7.2.1.3.4.3.5 0 .7-.6.5-.8.4V32c-.2 0-.3 0-.4.2 0 0 0 .2.2.2h.1c.3.2.7.2 1-.1v-.4c1-.7.6-2.5.6-2.5.2 0 .3.3.3.5.3.8 1 .5 1 .5-.3-.1-.6 0-.3-.7.4-1.2-2-1.7-2.2-2l-.2-.4h.1c5.1 3.1 5.5.1 5.5.1-1.3.3-1.1-.3-1-.5 0-.3 1.1-.8 1.1-.8zm6.7-6.8l-.7-.1v-.1l.7.2zm-2.5 2.7c1.5 0 2.1-.7 2.3-1-1 1.4-2.3 1-2.3 1zm0-2.3h.1v.4l-.1-.2v-.2zm.1-.9v.3-.1-.2zm.5 1.5c.1 0 .1.3 0 .4v.1l-.1.4s-.1.3-.3.1l.4-1zM80 19l-.2.1-.2-.3c.1 0 .3 0 .4.2zm0-.6zm.1 0l.2.2v.1s-.2 0-.2-.2zm.6 1.5s-.2 0-.2.2l-.6-.9h.2l.6.7zm0-1h-.2v-.2zm.3.1v.2l-.5-.3h.2l.3.1zm.5 5.7c-.6-.9-2-2-2-2 1.2.6 2 2 2 2zm-4.2-.7c.3 0 1-.6 1.5-1.8 0 0 0 1.4-1.5 1.8zm.6-2.3v-.2l.6.3a3 3 0 0 0-.6-.1zm-.3-1l.8-.8v.1c-.3.5-.3 1-.3 1.1l-.5-.5zm0-1c0-.2 0-.3.2-.4l-.2.5zm0 .6l-.1-.4v.4zm-.2-.7v.4c-.2.3-.5.9-1 .8l-.2-.4s.2-.1.2-.3h.1v.2l.3.2V20.3l.1-.1v.1c0 .2-.1.2-.2.2l-.1-.1v-.2c.2 0 .3 0 .2-.1 0-.1-.1 0-.2 0l.3-.2h.2l.4-.7h.1l-.2.5zm-1.3-.5c.3.4.2.8.2 1l-.2-1zm-.1-1.1v.8s-.2-.4 0-.8zm-.7 1.4c.2-.3.6-.4.6-.4l-.6.4zm-.1.5v-.4h.1l-.1.4zm.4-1.4V18l.1.7-.1-.1zm-.4 0v-.2l.3.3-.3-.2zm1.8.4s-.2.4-.8.2c0 0 .3.1.8-.2zm-.6-.4l.1-.1.5.2.2.2H77c-.3-.4-.7-.1-.8-.2v-.1zm0 1l.4.3c-.1 0-.2.1-.2.3h-.1v-.6zm1-.4c0 .2-.2.5-.4.5 0-.2-.1-.1-.1 0-.1.1-.3 0-.5-.3.1 0 .6 0 .8-.5l.3.3zM76 23.4zm-.2.2zm-2.2-1.2s1-.3 1.6.6c-.1-.2-.6-.6-1.6-.6zm-.1.2s-.1.8.3 1.4c0 0-.6-.4-.3-1.4zM72 23a2 2 0 0 0 1.2-.3c-.7.6-1.2.3-1.2.3zm.3.8l.1-.1c0-.1-.3 0-.1.2h-.1a1 1 0 0 1-1-1l-.1-.1.4.2.7.2c.4.1.8 0 .8 0 0 .4-.4.6-.7.6zm5.3-2.2v.2h-1s.4-.3 1-.2zM74.1 18h.3-.3zm9.2 2.5c-1-.3-.6-.6-.5-.7.1-.2 1-.1 1-.1l-1.2-.4c-.1 0-.3-.3-.1-.3.6.1.5 0 1-.2l-.9-.6-2.1-.2a59 59 0 0 0-5.5-.3h-.1v.2l-.1-.2h-.6a1 1 0 0 0-.5.2v-.2.3h.1v-.1l.1.2c0-.2 0-.1.1 0v.3l.6.2h-.5v.2c.4.2.9.4 1.3 0l.1.1h.2l-.2.2s-.7 0-.8.5c-.3 0-.5.3-.7.5l.4.3.2-.4-.2.4c.2.3.4.3.5.3v-.3h.1v.2s0-.2.2-.1v.1l-.5.4.2-.3h-.7v.2c.2.2.2.3.2.5l.2.3h.2l.3-.2c-.1 0-.2-.1-.1-.2h.1a2.2 2.2 0 0 0 .3-.6c.1 0 .4 0 .5-.7 0-.3-.1-.5 0-.4.1 0 0 .5.2.6l.1.1v.2c-.1.2 0 .4.2.5.4 0 .7-.3 1-.6v.3l-.2.1h.3l.4.4c-1.2-.4-1.7 1-1.7 1s.2-.6.6 0c.2.4 1-.1 1.2.2.1.2-.4 0-.9.3l-.8.5c-.6-1.6-2.1-1.1-2.2-1.1h-.3c0-.2.1-.3.3-.3h.6-.9l-.1-.1-.1.1-.1-.2a3 3 0 0 1-.5-.3c.4.4.4.9.4.9-.1-.4-.3-.7-.5-.9l.1.2c.4.4-.1.6-.1.6 0-.2.3-.2-.3-.4-.8-.1 0-1.4 0-1.5l-.2-.2a4 4 0 0 1-.7 1.8l1 .2s.2 0 .2.2c0 0-.7 0-1 .6v.1l-.9-.5-.4.1.3.2c.1.6.5 1.3 1.2 1.3h.3c.3 0 .8 0 .8.3 0 .2 0 .3-.2.3-.1 0-.2 0-.2-.2l-.2-.1v.1h.1v.1l.3.2c.1 0 .3-.2.3-.4 0-.3-.3-.4-.6-.5.1 0 .3-.2.4-.5 0 1 1 1 1 1s-.4-.1 0-.5c.1-.3-.4-.7-.2-.9l.4.5c.5.8 1.2.7 1.4.7v.1c0 .5-.2.6-.2.6.3.2.6-.3.7-.2.2.2-.2.6-.2.6l.5-.3v.2l-.2.2c-.4.1-.2.1 0 0 2.6.2 2.6-2.1 2.7-2.2l.2-.4c.2.1.3.3.2.5-.7.9 0 1.7.6 2 .3.3.2.6.2.6.4-.3-.1-1.5-.1-1.5.5.7.9.8 1.2.8l.5.1c.2.5-.2.7-.4.6 0-.1 0-.2-.2-.1l-.1.2.2.1h.1c.2 0 .5-.2.5-.5v-.3c.4-.9-.7-1.9-.7-1.9l.5.2c.4.5.7 0 .7 0-.1 0-.3.3-.4-.3-.2-1-2-.4-2.1-.4l-.4-.3h.1c3.8 0 3.8-1.5 3.7-2zM24.9 49s-.3.2-.9.2c0 0 .4.2 1-.2zm.1-.5s-.1-.4-.5-.7v.1l.5.6zm.1-.2v-.2l-.3-.8v.2l.3.8zm16-7v-.1zM24 49c0-.2.2-.3.4-.4v-.2h-.2l-.4.6h.1zm2-1.7l-.1.3.3-.3H26zM18.4 66c.7-.6.5-1.7.4-2.2a52 52 0 0 0-.4 2.2zm8-20.3v-.5c-.1 0-.2 0-.3-.2l-.2.5-.2.2h.7zM23 55v-.5h-.1v.6zm-3.2 8.7c.1-.5-.3-.9-.8-1.2l-.2 1 .3.4c.3.8 1 .5 1 .5-.3-.1-.6.1-.3-.7zm1.6-8.2s.3-.2 0-.5v-.3l.2-.6-.4.9.3.4v.1zm1.2-1.8V53.5h-.1a14.5 14.5 0 0 1 .1.3zm1.6-4c0-.1.2-.2.2 0 .1 0 .4-.2.4-.5l-.6.1h-.5v.3l.5.2zm-.8 2.5v.2c.4 0 .8 0 1.2-.3 0 0-.5.2-1.2.1zm22-22.6v.1h.1zm-7.5 3l-.1-.3v.3zm8-3c.2.4.6.3.6.3-.4 0-.6-.2-.7-.3zm-1.7-3v.1zm-5.5 4zm7-1.5c.5-.6 1.1-.7 1.3-.7-1 0-1.3.7-1.3.7zm0-1.5v.2c.1 0 0-.1 0-.2zm1 2.3c0-.3.2-.5.3-.7h-.8-.1s.5.2.5.6v.1zm-.9.3c.1 0 .3 0 .1.2h.3l.4-.4c-.5.1-.8-.1-.9-.2v.3l.1.1zm-.5-3.5H45l-.2.1v.1l.5-.2zm-3 5l.1-.1zm.9-3.9v.5-.1-.4zm.3 4.7c0-.1.2-.2.5 0l.3-.1-.1-.3-.1-.5-.6.7s0-.4.4-.7h-.1.1l.7-.5h-1c-.4.4-.4 1-.3 1.4h.2zm2.4 6.7h-.1zM36 33.4v.2l.2-.1c0-.1-.2 0-.2 0zm1-.2h.3l-.1-.2H37c-.1 0-.2 0-.2.2h.3zm-.3-.3h-.2v.1h.2zm2-.7v.1l.5.6-.4-.7zm-2.2 1.6s-.3.3-.9.4c0 0 .5.2 1-.4zm7-2.7a1 1 0 0 1-.5-.8c0-.2-.2-.2-.4-.2l.1.3s.3.4.4.9l.5-.2zM37 32.5h-.1zm-1.4 1.7zm5 6.9v-.2l-.5.7.5-.5zm-2.8-7.6h-.1c-.5-.2-.8 0-.8 0h1zm-1-.5zm0 0v.1zm-.3.2l-.2-.4-.1.1.3.3zm-.2-.4l.6-.5-.6.5zm2.2-1a16.4 16.4 0 0 1 0 0zm7.3-1.6l.1.3-.1-.3zm-.4.4v.1c-.1.1-.1.2 0 .2h.1l.1-.2h.2l.1-.1h-.4.2c0 .1-.1.2-.3 0zm.3-.6v.1zM35 34.3zm10.3-3.8h.4v-.3h-.1l-.3.3zm.1-3.4l-.2.1.3-.1V27s-.1 0 0 0l-.1-.2h.1v-.1l-.1.1h-.1l.1.3zm-.4 3L45 30h.1zm-3.8-.3l-.1-.1-.1.1h.2zm.6 3.4l.2-.2h-.1l-.2.1zm-.5-3.8c0 .2.2.3.4.4l-.4-.4zm13-7.9zm-9.2 5v.1h.1zm-3 2.7c.2 0 0-.2 0-.2V28l-.7.5c.4.2.6.6.7.6zm2.3 1.5l.3.3v-.4h-.4l.1.1zm.1-3.8l.1.5-.1-.1s-.1.2.1.1v.1l-.1.2.2-.1v-.4-.1-.2zm0 1h-.2l-.1.2.2-.2zm-1.8 1.9h.4l.3-.5v-.1l-.6.5zm1.5.8h-.1.1zm-.2-2l-.2.4.2-.2v-.3zm-.8-.2l-.1.1c-.1.3-.3.8-.8 1.3 0 0 .8-.5.9-1.4zm1.7 4.7c0-.2-.1-.3-.3-.4l-.1.2c.3.2.4.4.4.2zm-2.8-3c.3.5.3 1 .3 1.4.3-.8-.3-1.4-.3-1.4zm3 2l-.2.2c.5.4.7.9.7.9 0-.5-.3-.9-.6-1zM43.8 30h-1 1zm1 2l-.6-.2.4.4zm0-2.7l-.4.2.6-.1zm-.3 6c.1-.2.4-.5.8-.6.2 0 .3-.3.2-.5l-.4.1s-.3.4-.8.6v.4zm1-1.7c-.6.3-1 .5-1.4.5v.1c.8 0 1.4-.6 1.4-.6zM63 23.3c-.5-.3-1-.2-1-.2.5 0 .8.1 1 .3zm.4-3V20v.4zm.2-1.1V19l-.1-.1v.2zm-1.3 1.3H62a.5.5 0 0 1-.7 0v.2c-.2.2-.5.1-.6.1v.2h.3c.8 0 .9.3.8.4.3-.2.2-.2.1-.3 0 0 .3 0 .2.4v.2s.2-.5.6-.6c0-.2.2-.2.3-.3v-.1c-.3 0-.5 0-.7-.2zm.8-.3l.2.2-.2-.2zm.5.4l.1-.6c-.2.3 0 .6 0 .6zm-1.1-.6h-.2.2zm.8.7l.1-.1H63.1v.2l.2-.1zM58.6 23v-.2h-.7v.1c0 .3.1.4.3.4v-.1c0-.1.2 0 0 0h.3l.1-.2zm3-1.3c-.1.1 0 .1 0 .1l.1.3h.1v.2l.2.1c-.1-.2-.3-.5-.3-.8h-.1zm1.1-.4s-.4.7-.5 1.3l.5-1.2zm.3.3c0 .2 0 .3-.2.5l.4-.3v-.1H63zm.6-.9s-.3 0-.4.3l.4-.3zm-.4.4v.3-.1-.2zm-4 5.3l.4.3c.4.1 1 .2 1.7-.2a3 3 0 0 1-2 0zm.5-2.2s-.5.1-.8.7l.8-.7zm-1.3.6v.2h.1l-.1-.2zm.4.2l-.1.6.2-.5zm.6 3c0-.3-.2-.5-.3-.7l.2.8h.1v-.2zm-.4-1v.2zm-.7-5h-.1v.1zm-.6 2.3l-.3.2c.3 0 .6 0 .9.4v-.2l-.5-.4zm-.2-2.6l-.1-.1v.1zm2-.4v-.1h-.1.2zm-2.2 1.4h.1zm.5 1.5l.4.3V24l-.4.1zm4.2-3.8h.7c-.4-.1-.5-.2-.5-.4L62 20l.1.4v.1zM58.2 24zm2.4-3.1c-.1 0 0 0 0 0zm6.3-1.1zm-.2-.8zM62 22.7v-.1l-.1-.2v.2zm4.6-2l-.1-.2h-.2l.2.2h.1zm-3.5 2c.1-.1 0-.3 0-.4 0 .2-.3.5-.7.4-.1 0-.2 0-.3.2h1v-.2zm-4.7-1.3h-.1zm8.1-1.2zm.2.2h.1l-.1-.2zm-.4.1zm1-.7c-.1-.1-.2-.1-.2 0h.2zm-.7 1l.3.6.2-.2-.5-.5zm.6-.1zm-.8 1.5l.1-.3v-.4l-.3.7v.1l.2-.1zm-2-1.7h.1l-.1-.1-.4-.2v.1s-.2 0-.1.1c0 0 .4-.2.5.1zm-5.3 1.7l.3-.5h-.1l-.2.5zm0 0l-.2.7.2-.6zm1.8 1.4s.4.2.9-.2c0 0-.3.2-1 .2zm-2.3-1H58c.3.2.5.1.6 0zm0-.2V22l-.2.1s.2 0 .2.2zm-1 1l.4-.1-.1-.3c0 .2-.1.3-.3.4zm2.4-2h-.2.2zm-2 .2l-.3.5.3-.4zm-.4.2zm3.8.4h-.1l.1.1h.2l-.2-.1zm-.9-.6h.1l-.1-.1zm-1.3 4.8l-.3-.1.4.2zm2-6c-.1 0-.4 0-.7.2h.8zm10.6-2.6h.1-.1zm.3 0H72zm.7.1l-.2-.1.2.1zm-.4.2v.1h.1v.2l-.1.3h.1l.1-.4c0-.4-.1-.5-.2-.4v.2zm.1 1.7c.1.1.2.2.4.1h.5c0-.1 0-.2-.2-.3h-.4l-.3.2zm1-.2c.1.1.2.1.1.3h.2c0-.2-.2-.3-.2-.3zm.2 1l.4.2v-.1l-.4-.2zm-1.1-.6l.5.8v-.2l-.5-.6zm-7.7 1.8c0 .2.2.3.4.4v-.8l.1-.1s-.2.4-.5.5zm3 3.2l-.2-.1.3.3V25zm-1.9-.6l-.2.2s.2-.1.4 0a.9.9 0 0 1 0-1l-.1-.4s-.2.1-.2.3c0 0 0 .5-.2.9h.3zm5.3-6.3h.1l-.1-.3H71v.3zm-1.1 3.4c.1-.1.2-.3 0-.3v.3zm-.3-1.1h.1l-.4.6.3-.6zm0-.6zm.1-.2h.3v.1H70zm.7 0l.1.2a1 1 0 0 1-.2 0zm-2.4 4l-.1-.1h.1zm.3-3.7l-.1-.1zm-1-1.2v.2c.2 0 .5 0 .8.3 0 0 .1 0 0 0h-.1v.1h.2s-.3 0-.3.2l.3.1-.2.1-.1.1c.3.1.6.2.8.5-.3.1-.2.2-.6.2-.2 0 0 .1 0 .2l.4.1h.2l.3.1H69l-.1.3-.3-.2c0 .1-.3.3.3.5h.1c0 .3 0 .7-.4 1h.4l-.2.2-.3.3-.5.3.1.2v.1h.1v.2h.2c0-.3.2-.6.3-.7v.3c.2.1.6-.3.1-.4l.1-.1.1-.1v.1c.1.3.4.4.5.3h.1l.1-.1v-.2c-.2 0-.2 0-.2.2 0 0-.4 0-.4-.4l.7-.2c.9-.5.5-.6.4-.7v.4c-.4 0-.7 0-1 .2l.2-.1c.2 0 .3-.2.5-.4-.3 0-.8.3-.8.3l1-.6v-.3c-.3.2-.3 0-.7.1l-.2.6.3-1v.3a4 4 0 0 1 1.2-1l-.1-.2.2-.3.1.1v.3l.4-.2-.2-.3a.5.5 0 0 1-.4-.4c0-.2-.2 0-.2 0l-.3-.1h.4c.3-.4.7-.4 1-.4h.1l-.1-.4h-.1l-.3-.2V18.4l-.1-.1c-.4 0-.9.5-1 1.1l-.4.5c.2-.8.8-1.7 1.4-1.8l-.1-.3h-.5.3l-.2.4c-.7 1-2 1-3 .5zm4.2-.3h-.1v-.1V18.4zm1.6.4l-.1.1.1-.1zm-1.2-.9v.1zm-2 4.7h.2zm1.2-4.4zm-.6 1c.6-.2 1 0 1 0a1 1 0 0 0-.5-.2h-.1l-.4.2zm.5.6l.1.2s.3 0 .2-.2h-.4zm1.2-1h-.1c0 .1.1 0 .1 0zM71 21.2c1.3-.5 1.2-1.5 1.2-1.5-.3 1-1 1.4-1.2 1.5zm1.1-2.8H72v.3h.1v-.3zm0 .4H72l.1.4v-.4zm-8 6.1zm-8.7-3.8h0zm17.2-1.7H72.3h.3zm-24 8.9v.3l.2-.4h-.2zM59.8 23l.1.1c.3 0 .6.2.9.4.2-.5.7-.4.7-.5l-.1-.1s-.6 0-1-.4c-.2 0-.3 0-.5.2l-.2.3h.1zm1.8.7h-1.1l-.3-.3.1.1c0 .5.4.7.7.7h.1c-.1-.2.1-.2.1-.1v.1c.2 0 .4-.2.4-.5zm-2.2-1v.4h.1v-.5zm2.4 0l.1.3v-.3zm3.4.3c-.2-.2-.7.2-.9 0-.2-.5-.4-.1-.4-.1s.3-1 1.2-.8a1 1 0 0 1-.3-.2h-.2l.2-.1-.1-.2c-.1.3-.4.5-.7.4l-.2-.3v-.2c-.2-.1 0-.4-.2-.5v.3c0 .6-.2.6-.2.6v.4l-.2.6c.2 0 .3.1.5.3V23v.1l.2.5h.2l.5-.4c.3-.1.7 0 .6-.2zm-2.1.3c0 .2.1.2.2.3l-.2-.3zm-6 3.8c1-.1 1.4-.9 1.4-.9a3 3 0 0 1-1.4.8zm-.3-3.2h.3v-.1h-.3zm.4 0h.8l.4-.2v-.1-.1l.1-.2h-.3-.1l-.3.1h.1c0 .1 0 .2-.2.1l-.1.1v.2l.2-.1.1-.1v.1l-.3.2v-.4a2 2 0 0 1-.4.2zm-.8-.8l-.3.1v.2l.3-.2v-.1zm1 1.7h-.5.2l.7.4V25l-.3-.1h-.1zm-.4 2.3zm6.7-3.2zM56 21.7H56.6l-.3-.4-.1.1v-.1a2 2 0 0 1-.3 0c0 .2-.2.3-.4.5l.5-.1zM49 32l.3-.4h-.7l-.5-.3-.2-.3v.1c0 .5.3.8.7.9l-.2-.1h.5zm2.3.3v.2h.2v-.1s-.2-.2-.2 0zm0 .3v.3c0 .2.5-.1 0-.4 0 0 .1.1 0 .2zm11-6.4c0 .2 0 .4.2.5l.2-.3h-.4v-.2zm-14 3.3c-.4.2-.8.7-1 1l.8.4h.4v.1h-.3l.3.2c.3-.4.7-.3.8-.4h-.1s-1-.3-1.2-1c.3 0 .3-.2.5 0 .1 0 .1 0 0-.1-.1-.2 0-.2-.2-.2zm18-6.5h.4a6 6 0 0 0-.3 0l.1.1h.4V23h-.5zm-13 6.3h1.4c0 .2.2.3.3.3l.2-.1v-.2l-.2.1c-.1.1-.4 0-.2-.5l.4-.2c.2 0 .4 0 .7-.4l-.5-.2c-.2 0-.3.2-.3.3 0 0 0-.2.2-.3l-.5-.4-.3.2h.4c-.1.2-.2.6-.1 1l-.1.3c-.2 0-1 0-1-.2-.2 0-.5-.4.6-.4 0 0-1.5-1.5-3.3.6H51.3l.2.1c.2-.1.6-.2 1-.1l-1 .2c.1.1 0 .2 0 .2v-.1c-.2 0-.3 0-.4.2 0 .1 0 .3-.3.6 0 0 .6-.4.8-.2h-.2c.1 0 1.5.3 2.7-.3-.4-.1-.3-.3-.9-.3-.2 0 0-.1.2-.2zm4.5-4.4l.1.3.2.2v-.2l.2.2-.5-.5zm5.8-.7h-.2.1zm-3.4-4V20H60l.2.3zm-7 3c0-.3.2-.2.2-.1h-.1.2l-.5-.6-.2-.1c0-.1 0-.2-.2-.3v.1c0 .5.2.8.6 1zm-2.5 0a2 2 0 0 0-.3.4l.3-.3zm1.4.6l.2.3h.2l-.4-.3zm2.5-1.3h-.1.1zm-3.9 2.3l-.1-.1zm0 0l.6.4-.5-.4zm-1.3 5.3l.3.8s0-.4-.3-.8zm2-5.9h.3l-.1-.5-.5.4c0 .2.3.1.3.1zm.3-.6l.2.3v-.5h-.1zm-.1-.8l.1-.1h-.2zm-1.3 3.8h-.1v0zm-.2-2.4l-.8.2.1.1.7-.3zm0 2h.2-.1zm.3-1h.2l-.2-.3v.3zm-.2.6v-.3-.4.7zm.3-1.3v-.1zm-.4-.7v-.3.3zm4.3-1.6V22l-.1-.2v.4zm0 1.6v.2l.1-.2zm.3-.7c0-.2 0-.3-.2-.2v.8l.2-.6zm-4.4 7l.6-.6-.6.6zm-.8 1.8h.1v-.6a1 1 0 0 0 0 .6zm1.2-.3h.1l.1.2c-.3-.8-1.1-.7-1.1-.7l.8.4zm4.6-8.7l-.2-.2.2.2zm.3 3l.1-.1c-.3-1-1.3-1.3-1.3-1.3.7.4 1 1 1.2 1.3zm-1.8-2.4c.1 0 0-.2 0-.2l-.2-.1h-.1l.3.3zm1.5-2.2zm-.4 2.4v.1zM53.8 25l.3-.4a2 2 0 0 0-.4.4zm1.7-2.8h-.3v.2h.2v-.2zM51 23l-.2.2v.1h.1V23zm16 1.5l-.2-.1v.1zm.4-.4h-.1l.5.6-.4-.6zm-2.4 0c.8-.4.8-1.2.8-1.2-.2.7-.6 1-.8 1.2zm-1 .6zm3.3-.7a3 3 0 0 0-1-.7l.9.7zm-5 .3c-.4-.5-.4-1-.4-1-.2.7.3 1 .3 1zm5.2-.7l.2.2v-.1s-.1-.1-.2 0zm-11-2.9l.4-.1-.3.1zm14-2.8h-.1v.3-.2zm-14 2.8l-.5.2c.2 0 .3 0 .5-.2zM70 18.4l-.3-.5-1.5.2.4.6c.5.1 1 0 1.4-.3zm-9.2 1.4h-.1c-.1 0-.2-.1 0 0v-.1l-.1-.2h-.2l.2.7c.2-.1.2-.3.2-.4zm-11.5 4zm10-3.8v0h.3v-.2l-.5.2v.1zM53 31.2l-.5.2a2 2 0 0 1-1 .5l.1.2c.5-.2 1-.5 1.4-1zm-3 1l-.1.1v.2h.3l.1-.1v.2h.3l-.3-.3-.3.2v-.3-.1h.2l-.1-.2c-.1-.2-.1-.3-.2-.2v.2l.1.1V32.3zm-1.5-.8s.4.3 1 0c0 0-.4.2-1 0zm.1-2h-.1zm-.6-4.9h-.1.1zm.2 0h-.1zm3 4.9l-.1.2.3-.2h-.3zm22.6-11.3v.1zm-13.3 7.2h-.6.6zm-2-1.7c.5.1.2.5 0 .3v-.2a1 1 0 0 0-.2.9l.3.3c.2-.4.7-1 1.5-.8 0 0-.4 0-.3.2.3.8-.4 1.3-.3 1.5 0 .2.2 0 .2 0s1-.8 2.1-.7h-.1c.1-.3.3-.5.6-.7-.2 0-.6-.2-.6-.6l-.3.4c.2 0 .4.1.4.3 0 .2 0 .2-.2.3l-.2-.1v-.1c0-.1 0-.1 0 0l.2.1c.1 0 .2 0 .2-.2s-.4-.2-.6-.2H61c-.5 0-.8-.4-.9-.9l-.4-.1v.1l-.1-.1v.1a6 6 0 0 0-.8.2c0 .2.2.2.3.2v-.2h.2l-.1.2c-.2 0-.4 0-.4-.2h-.2zM74 21.4h0zm-15.2 5.3l-.4.3s-.5.8-1.4 1l-.1.4v-.3H56v.2c0 .3-.3 1 0 1.1 0 0-.2-.3.1-.5l.3-.2.1.4c-.2.7-.8.4-1 .2h.1c.1-.2 0-.3 0-.4h-.3c-.1.2 0 .3 0 .4h.2c.1.3.6.4.9.2l.2-.3c.4-.1.7-.4 1-.7l.4.1v-.8h-.2v-.2l.2.2.6-.6c.2 0 .2-.2.1-.5zM73.4 21c.2.1.3.3.5.3l-.6-.4zm-14.7 7.5zm9-9.2a1 1 0 0 0-.3 0h.4zm-2.4-.5l-.2-.3H65c0 .2.1.2.2.3zm1.4 0v-.5h-.1v.4zm-.4-.4zm.7.2l.1-.4H67v.4zm.2.2h.3l-.2-.1zm0-.5v.2h.8l.4.2-.1-.1a1 1 0 0 0-.3-.5l-.8.1zm-6.6 2zm4.2 1.4v-.1V21.3v.4zm-4.3-1.4l-.1-.2v.3l.1-.1zm-3.3.3zm5.7-.8c-.3-.2 0-.4 0-.4s-.1.1 0 .1V19h-.2l.1.8zm-.2-.8zm-.7.9l.3-.1-.1-.7-.8.2c.3.2.5.3.6.6zm-1.1 0l.2.2v-.2s.2 0 .2.3h.1l.2-.2-.2-.1h-.2.4c0 .1 0 .2-.2.3h-.1v.2l.2.2c.2 0 .5-.1.5-.3l-.1-.4c-.2 0-.2.1-.1.2v.1h-.1V20l.1-.2a2 2 0 0 0-.6-.5l-.5.1.1.1v.2zm.3.4v-.1a.7.7 0 0 1-.3-.2l-.3.3h.6zm2.8.6l.2.2V21h.3c.1 0 .2-.1.2-.3l-.2-.2c-.1.4-.4.4-.5.4zm.4-.3c-.2.2-.4.2-.5.2.4 0 .5-.2.5-.2zm-7.6 1.2l-.1.1.6.1h.2l-.2-.2h-.5zm11-1h-.1l-.4-.2v.1l.5.1zm-3.3.4h-.2l-.1.2c.1 0 0 .1 0 .1v.2l.1-.1v-.1.2l-.2-.1h-.2c0 .2 0 .4.2.4h.1c0-.1 0-.2-.2-.2v-.1l.3.2c.2 0 .3-.4.4-.5V21l.1-.3c0 .2-.2.3-.3.4zm-.6.3c0-.1 0-.4-.2-.7 0 0 .2.3.2.7zm1-.6v.3h-.1l.2-.3zm-.9.1v.4h.1l.2-.2h-.1L64 21zm3.4 2.1h.1V23h-.1v.1zm.3-1c-.1.1-.6.6-1.7.7 0 0 1 .2 1.7-.7zm.2.8h-.1v.1l-.2.1h.1l.1-.1zm-2.8-.3l.4.1-.4-.2zm-1 0h.8v-.1c-.4-.1-.7.1-.7.1zm2-2.1v0zm0 .6l-.1.2v-.2zm-15.6 8.5l.2-.2c.2-.2 1.2-.9.6-1.4a1 1 0 0 1-.5 0v.4l-.3-.5c0 .2-.2.3-.3.4.1.3.3.8.3 1.3zm1.2-4.2l-.4-.2.2.2h.2zm-.3.7v-.2l-.2.1.2.1zm.7 5.1s-.3.2-.2 0c0-.5-.4-.7-.6-.8 0 .1-.2.4-.5.5.2 0 .4.3 1 .4 0 0-.6.1-1-.4h-.4v.2c.2 0 .6 0 .9.3.2 0 .5 0 .8-.2zm2.8-7c0 .2.2.3.4.4 0 0 1 .3 1.4 1.1h.3c.5.2.9.5.8.2 0-.2-.4-.3-.7-.4v0l-.2-.2c0-.3 0-.4-.2-.5H56.4h.2c-.4 0-.8-.2-1.1-.5-.2-.2-.3-.2-.6 0zm-5.4 3.6h-.1v.3l.1-.3zm1.5-2l.1.2h.2l-.4-.4v.3zm-1.7 4.4l-.3-.3.3.3zm.5 0v-.5-.2.2h-.2l.1.4zm1-4.5l-.1-.4v.4zm-1 5.1l.2-.2-.1-.4h-.2l.2.6zm.1-2.4l-.1.2c-.2.2-.6.1-.7 0 0 .3.3.8.8 1l.1-.2c.3 0 .2-.1.2-.2 0 0 .2.1 0 .4h.2c0-.2 0-.7-.3-1.3l-.2.1zm.3 2.7h.2v-.2h-.2-.2l.2.2zm.4-5.9zm-1.7 2.6v.1zm1.4 2.5l-.3.5.3-.5zM49 25.6v-.2.2zm1 2v-.2.2zm1.4 2zm-1.9-4.7l.2.4c.2 0 .3-.2.3-.4h-.5zm7.3-4.1l.1.1v-.2zm-.4.3l.3.1-.2-.2zM49 28v.2h.3v.2c0 .1.5.3.7-.1l-.1-.4-.2.2v.4l-.1-.2v.2l-.1-.3-.3-.2H49" fill="#1e3d6a"/><path d="M19.6 60.3v.1l12.7 3.2v-.2l-12.7-3.1M130.3 60.3l-12.8 3.1v.2l12.9-3.2v-.1" fill="#1e3d6a"/><path d="M130.3 60l-12.8 3.2v.3h.1v-.3l12.7-3V60M111.6 117.7zm0 0zm-5-6.2zm3.3 6l-.1-.5h1l-.4.6c-.3 0-.6.3-1 .7a2 2 0 0 0-.3-.7c.4.1.7.1.8 0zm-10.3 2.2l.5.4v.2c0 .2 0 .4.2.6a1 1 0 0 0-.4-.3v-.1c-.2-.2-.4-.2-.7 0l.4-.8zm-2.1 3.3c.4.6.9.8 1.3.9 0 0 0 .2.2.2h1l.2.1c-.4 0-.9.3-1.4.8v-.2-.5c-.2-.4-.4-.5-.5-.5l-.4.2-.2.7v.2l-1.1-.6.7-.5v-.1l-.2-.2.4-.5zm-10.6.4c.7.2 1.3.2 1.9 0l-.2.8.2.6-.1.3c0 .3.3.5.7.6v.4c-.3-.3-.8-.5-1.6-.5.2 0 .4-.2.6-.5l.2-.4v-.2l-.4-.1c-.3 0-.7.1-1 .5l-.3-1.5zm13.4 1.8c.3-.2.4-.5.4-.6l.8.5.1.3c-.8 0-1.4.2-1.9.5h-.3l.9-.7zm5.7-10.3v-.6c0-.6.2-1.5.6-2.6.2 0 .6 0 1 .5.4.4.5 1 .5 1.9v.7l.2.1c.3-.5.9-1.3 2-2.3.5-.4.9-.5 1.1-.5l.2.2c.1.7-.3 1.4-.6 1.9-.4.4-.6.7-1.4 1.2v.1l1.7.1c.6.1 1 .3 1 .5v.3c-.4.3-1.5.6-2.8.4h-.3l.3.2.3.4c0 .1-.4.2-.9 0v.1l.4 1v.2l.1-.2c.4-.4.9-.7 1.1-.7h.1v-.1c0-.4.3-.6.4-.7h.1c.2 0 .2.3.2.4l.1.6v.3l.4-.5c.5-.6 1-.9 1.2-.8l.1.1c0 .1 0 .3-.2.5l-2.8 2.3-1 .2.1.1.1.3a57.4 57.4 0 0 1-7.2 4.7h-.3l-.2-.3-1.7-1H99v-.1h-.1a2 2 0 0 1-1.3-1l-.1-.1v.1l-.6.7v.1l.2.1a6 6 0 0 1-.8.6h-.2l.2.1c.6.2 1.1.5 1.5.8l.2.1v-.2c-.2-.4 0-.8 0-1h.3c.1 0 .2 0 .3.2v1h.1c.7-.8 1.4-1 1.7-1l.1.2-.3.6c-.4.3-.8.6-1.2.7v.1l.7.2h.1a62.5 62.5 0 0 1-1.2.8l-.2-.2-.4.4a59.2 59.2 0 0 1-8 2.9c-.2-.5-.6-1-1-1.4h.1l.1-.3.4-.8v-1.9c-.6-.2-.7-.4-.7-.5v-.2h.1v-.1l-.2-.6c0-.3 0-.5.2-.8v-.2H89c-.6.2-1.3.2-2.2 0h-.1v.2c.3.4.4 1.2.4 1.6v.3l.1-.2c.4-.4.8-.5 1-.5h.3l-.1.4a2 2 0 0 1-1 .7l.1.1c1.2 0 1.8.3 2 .5v.1c-.1 0-.3.2-.8.2H88v.3c0 .2 0 .4-.2.7l-1.8-1.4v-.2H86l-2.3-1c.5 0 1.2 0 2 .5l.3.1-.2-.3c-.1-.3-.3-.8-.1-1.4l.2-.8h.1l-.5-.2c-.7-.3-1.2-.6-1.3-1 0 0 0-.2.2-.3.4-.3 1.7-.4 3.3.2h.2l-.1-.1a6 6 0 0 1-.6-3.3c.4 0 2-.1 2.6 2.6v.1h.2c.1-.6.5-1.5 1.2-2.8.3-.4.7-.7 1-.7l.2.1c.4.7.2 1.4 0 2v.1c0 .3-.2.5-.4.8l.2.1c.4-.3 1.5-.8 3.8.2h.2c-.4-.5-1-1.3-1.6-2.5-.2-.5-.3-.8-.2-1l.4-.1c.8.1 1.4.7 1.8 1.2.3.4.5.6.7 1.5v.3l.2-.3c.1-.4.4-.9.8-1.3.3-.4.7-.7 1-.6l.3.3c.1.4 0 1.2-.7 2.1l-.2.3.3-.1h.1c.4-.2.5-.2.6-.1v.2c.2 0 .4.2.6.5l.5.1-.1-.2c-.3-.4-.4-.7-.4-1v-.2c-.4-.2-.6-.4-.6-.5h.2l.2.2.1-.1-.3-.2h-.1.5l.7.1.3.1-.4-.5c-.4-.5-.5-1-.4-1.2 0 0 0-.1.2 0v-.2l-.3-.5.2-.2c.3-.1 1.2 0 2.2 1l.2-.1c0-.4 0-1 .4-1.4.1-.3.2-.5.5-.7l-.3-.3c-.6-.4-1-.9-1-1.2l.3-.3c.6-.2 1.8 0 3 1l.2.1zm.5-3.4a7.4 7.4 0 0 0-.7 2.9v.3c-1.3-.9-2.4-1-3-.8-.2 0-.3.2-.3.4 0 .4.3.9 1 1.3l.1.2a2 2 0 0 0-.4.6c-.3.4-.4.9-.4 1.2-.9-.7-1.8-1-2.3-.8l-.3.3.3.6h-.2v.4c0 .3.1.7.4 1.1h-.9v-.5-.4c-.2-.2-.3-.4-.5-.4-.4 0-.8.2-1.2.7a5 5 0 0 0-.7 1c-.1-.6-.3-.8-.6-1.2-.5-.5-1.1-1.2-2-1.3-.3 0-.4 0-.5.2l-.1.4c0 .2 0 .4.2.7.5 1 1 1.8 1.4 2.2-1.8-.7-2.8-.5-3.4-.2l.2-.5v-.1l.2-1.2c0-.3 0-.7-.3-1a.5.5 0 0 0-.4-.2c-.3 0-.7.3-1 .8-.7 1-1 2-1.2 2.5-.8-2.8-2.6-2.6-2.8-2.5v.7c0 1.2.2 2 .4 2.6-1.6-.5-2.8-.4-3.3 0l-.2.4v.1c.2.4.7.8 1.5 1l.2.1a2 2 0 0 0-.2.7 2.3 2.3 0 0 0 .1 1.4c-.8-.4-1.7-.5-2.2-.4H83l.2.2c1 .3 1.8.8 2.6 1.3l2 1.5h.1l.3-1h.3c.3 0 .6 0 .8-.2v.8l-.4.8v.2h-.3v.2c.5.5 1 1 1.3 1.5a56.2 56.2 0 0 0 8.1-2.8l.4-.3h.1c1.1-.4 2.2-1 3.2-1.5l.3-.2c2.6-1.4 5-3 7.4-4.7v-.2-.2l.7-.1 2.8-2.4.3-.6c0-.2-.1-.3-.2-.3-.3 0-1 .3-1.5.9v-.3l-.3-.5c.5 0 .9-.2 1-.4.2-.1.2-.3.2-.4 0-.2-.3-.5-1.2-.7H110c.6-.4.8-.7 1-1l.1-.1c.3-.5.7-1 .7-1.7v-.3c0-.2-.2-.3-.3-.3-.3-.1-.8 0-1.3.5-1 .8-1.5 1.5-1.9 2v-.4a3 3 0 0 0-.6-2c-.4-.5-1-.6-1.1-.6h-.1" fill="#1e3d6a"/><path d="M94.6 125.4c0 .3.3.5.8.7l-.1.7a3 3 0 0 0-.5-.5l-.6-.2a3 3 0 0 0-.3-.3l.7-.4zm0-.2l-1 .5-.2.1.2.1.5.3c.2 0 .3 0 .6.3l.6.5.1.2v-.2c0-.3 0-.6.2-.9v-.1c-.5-.2-.8-.4-.9-.7v-.1h-.1M90.8 124.8c0-.5-.1-1-.4-1.5l.4.2v.2c0 .5.2 1 .5 1.4l-.5-.2zM90 123h-.3l.2.2c.5.4.6 1.2.6 1.8l1 .4.1-.1c-.5-.5-.7-1.1-.7-1.8v-.1c-.3 0-.6-.2-.8-.4H90M90.5 126.3h.3l-.3.1v-.1zm-.1-.2l-.1.4-.1.1H90.5l.6-.3v-.1l-.6-.1h-.1M91.9 126.6l.1.7c-.4-.1-.7 0-.8 0-.3 0-.7.2-1.3.5l.4-.9 1.6-.3zm0-.2c-.5.2-1.1.3-1.7.3l-.8 1.7.3-.2c.5-.4 1-.6 1.5-.6.1-.2.4-.3 1-.1h.2l-.1-.2c-.2-.2-.2-.5-.3-.8v-.1" fill="#1e3d6a"/><path d="M91.2 128.2l.4-.3h.6l-1.1.9v-.2c-.2-.2-.7-.2-1.3-.1h-.2v-.2c.3.1.7.2 1.6-.1zm1.2-.5h-.9s-.1.2-.4.3c-1 .4-1.4.2-1.4 0h-.1l-.2.4v.3h.4c.8-.2 1 0 1.1 0v.5l1.4-1.1.4-.5-.3.1M92 126.5v.2h.1c0 .2 0 .4.2.6l.2-.2a.8.8 0 0 1-.2-.4v-.1l-.2-.2-.1.1M93.9 122.5l.7.2-.2.5h-.1a165.8 165.8 0 0 0-.5-.7zm-.7.3V123.4c-.3.1-.6.5-.9 1l-.5-.7c.4 0 .8 0 .8-.2v-.1c0-.1 0-.3-.3-.4l1-.2zm.6-.5c-.5.3-1.1.5-1.8.6h-.4l.4.1c.4.2.5.4.4.4 0 .1-.3.2-.9.1v.2l.8.8v.2l.1-.2c.3-.5.6-.9.9-1v-.3l.1-.4.1-.1h.1c.2 0 .3.1.4.3l.2.5h.1l.2-.2.3-.6v-.1l-.9-.3M94 127.3h.2l.2.2H94v.4l-.3.1v-.4-.2zm-.1-.1h-.2v.5l-.2.4v.2h.1l.7-.3h.3l-.2-.2-.2-.1h.7l-.2-.2-.4-.3h-.4M94.8 128.2h.6l-.2.3-.6-.1.2-.2zm0-.2l-.4.3-.3.2h.3l.8.1.5-.4v-.2H94.7M95.8 126.1v.1a2 2 0 0 0 0 .6v.1h.1a2 2 0 0 1 0-.4v-.1l.1-.2h-.2M98.2 126zm-.1 0l.4.2-.3-.3-.1-.2v.2M96.8 126.2l.2.1-.3.1v-.1zm0-.1h-.2l-.2.6h.2l.7-.3.3-.1h-.3l-.5-.3M98.8 121.9l.6.3v.1a3 3 0 0 0-1-.3l.4-.1zm0-.2l-1 .2-.1.3h.2c.4 0 .9 0 1.4.3l.1.1v-.1l.2-.2.2-.1h-.2a3 3 0 0 1-.8-.5M101.6 118.6l.5.2-.2.4v-.1a2 2 0 0 0-.3-.4zm-.5-.3l.2.3.2.2.2.4.3.3v-.1l.3-.6v-.1h-.1l-1-.5v.1M104 120.5l.2.2-.2.1v-.2zm0-.2l-.2.1v.8l.2-.1c.1-.2.2-.3.4-.2v-.2l-.3-.4h-.1M104.3 120.3l.7.5.2.2.2-.1-.3-.2-.6-.5h-.2M105.3 120.1h.3v.3l-.3-.3zm-.3 0l.4.4.3.2v-.1-.7h-.6l-.4-.1.3.2M104.6 116.6c.6.2 1.2.4 1.7.4a2 2 0 0 0-.4 1.1v.2l-.2.2.3.6-.2.2-1-.5.6-.3c.3-.2.4-.4.4-.5 0-.2-.2-.2-.3-.3-.2 0-.7 0-1 .2l.1-1.3zm-.2-.2c0 .5 0 1.2-.2 1.6l-.1.3.2-.2c.4-.2 1-.3 1.1-.2h.2c0 .1 0 .3-.3.4-.3.2-.6.4-1 .4v.2c.7.1 1.2.4 1.5.6v.1h.1l.3-.4v-.1c-.3-.3-.3-.5-.3-.5l.1-.2v-.1c0-.3.1-.8.6-1.3l.1-.2h-.2a4 4 0 0 1-2-.5h-.1M107 120.5h.2l-.2.1v-.1zm-.1-.1l-.1.4v.3l.1-.2.6-.4.3-.1-1-.1M107 119.9h.3l-.3.1zm0-.2l-.2.2V120.2h.2l.6-.1v-.2a4 4 0 0 1-.5-.2h-.1M108 117.5v-.4l.3.3-.2 1v.5l-.3-.3.2-1zm-.2-.8h-.3l.1.1c.4.5.2 1.3 0 1.8v.1l.8.6.1-.1a2 2 0 0 1 0-1.8v-.1l-.6-.6h-.1" fill="#1e3d6a"/><path d="M95.5 128l-.7-.1-.4.3.8.2.4-.4zm2.6-.8l.5-.2-.2-.2c0 .2-.2.3-.3.4zm-2.2-1.2zm.7 0v.4l.7-.3-.5-.1h-.2zm3-4c-.3 0-.6-.2-.8-.4a4 4 0 0 1-1 .2v.1c.5 0 1 .1 1.6.4 0-.1 0-.2.2-.3zm2.4 3.2zm-3.9.6h.1zm1.8-1.9c-.4.2-.7.2-.9.1l-.2-.2c-.4 0-.9-.3-1.3-1l-.5.7.3.2a6 6 0 0 1-1 .6c.6.2 1.2.5 1.5.8-.1-.7.2-1.2.5-1.2.1 0 .3.1.4.4v1c.8-1 1.8-1.2 2-.8l-.5.6c-.4.5-.8.7-1.2.7l.8.2a4 4 0 0 1 2-.6l-.3-.4zm-7.5 3.1l-.3-.6.3.6zm-2.4 3zm2-3.7l.1.1zm.5.8zm1.7-1.1c.1 0 .3 0 .5.2l.6.6.2-1c-.5 0-.8-.4-.9-.7l-1 .5c.3.1.5.2.6.4zm-.6-3.6c.1 0 .3 0 .4.3l.2.5.2-.2.3-.5a8 8 0 0 1-.8-.3c-.5.2-1.1.5-2 .6h.2c.3.2.5.3.4.4 0 .2-.3.3-.8.3l.6.8c.3-.6.7-1 1-1-.2-.5 0-.9.3-1zm1 5l-.4-.3H94h-.1v.4l-.3.6.8-.4-.2-.2.4-.1zm-1-5zm-2 5.2l-.5.3c-1 .4-1.4.2-1.5 0l-.1.4v.1h.3c.9-.2 1.3 0 1.2.3l1.2-.9.2-.2h-.8zm16.6-12.9v.2l.4-.6-.4.2v.2zm1.2 5.8l.7-.5-.8.2.1.3zm-1-3.3l-.6-.6h-.1c.3.5.2 1.2 0 1.9l.7.6a2 2 0 0 1 0-2zm10.7-6.3c0-.1-.3-.3-.7-.4h-.5.1-.2a4 4 0 0 0-.5.2l.2-1.5c-.1 0-.9-.1-1.3 1.3l-.2-.2-.2-.4c0-.1 0-.2-.2-.3a2 2 0 0 0-.6-.6c-.5-.2-.5.6 0 1.5l.3.3-.8-.3-.6.1c-.1.2.1.6.6.8-.1.2 0 .7.3 1.3-.6-.2-1-.2-1.3 0 .4-.4.6-.7.5-.9H113.2c1-1.2 1-2.5.4-2.6-.3 0-.7 0-1.1.6a5 5 0 0 0-.8 1.3c-.2-.9-.4-1.1-.6-1.5-.4-.5-1-1.3-2-1.5-.4 0-.6.4-.3 1.3a9 9 0 0 0 1.6 2.6h-.1c-3-1.5-4-.3-4.1-.1l.2.2c0-.2 0-.4.2-.5.2 0 1.3.1 1.6 1.7l.9.4 1.2-1.2c.7-.6 1.2-.6 1.4-.2.1.8-.4 1.5-.7 2-.3.4-.5.7-1.4 1.1l1.7.1c.7.1 1 .4 1.1.6.1.5-1.1 1-2.9.8h.1c.3.3.3.5.3.6-.1.2-.6.2-1 0 .2.2.4.5.4 1 .5-.5 1-.8 1.2-.8 0-.5.4-.8.6-.8.2 0 .3.2.3.5v.6c.2 0 .2-.2.3-.3.6-.7 1.5-1 1.5-.6l-.2.5.3-.2c-.3-.4.2-.8 1-1l1.3-1.2a8 8 0 0 1-.6-1.8c.1 0 1-.3 1.9.4a55.9 55.9 0 0 0 2.2-2.9zm-5.7 6.3l-.1.2.1-.2zm-11.3 8zm9-8.3c0 .1 0 .1 0 0zm-4.2 2.8v.2l.7-.1-.5-.2-.2.1zm0 1l.6-.5h-.6v.5zm-5.5-2.4l.1.2.3.5.2.2.2-.6-1-.5.2.2zm1.6-3.1l-.7.4.3-1v-.3-.2-.2c0-.5-.1-1.5-.8-2-.4-.3-.8 0-1 1a8.5 8.5 0 0 0 0 3l-.1-.2c-.5-.7-1-1.2-1.4-1.5l-.1-.5c-.2-.3-.5-.3-1 0l-1 .2.2.8c-.6.8-1 1.5-1.2 2.1v-.1c-.2-3.1-2-3.1-2.2-3.1a7 7 0 0 0 0 3.5c-2-1.1-3.5-.9-3.4-.2 0 .3.3.7.8 1 .4-.4.8-.5 1-.2.5.7.2 1.6.1 2.2a3 3 0 0 1-.4.8c.4-.4 1.6-.9 4 .1a8.5 8.5 0 0 1-1.6-2.4c-.4-.8-.2-1.3.3-1.2.9.1 1.5.9 2 1.3.2.4.4.6.6 1.5.1-.4.4-.9.8-1.3.4-.6.8-.8 1-.7.7.1.7 1.3-.2 2.6.4-.2.7-.2.7 0 0 0 .1 0 0 .1.3 0 .5.2.7.5h.2c-.4-.4-.5-.9-.4-1.1-.4-.2-.7-.6-.6-.8h.7l.7.1-.2-.2c-.6-.8-.6-1.6-.1-1.5-.3-.2-.4-.4-.4-.6 0-.4 1.3-.4 2.6.7 0-.4 0-1 .4-1.4l.5-.6a4.5 4.5 0 0 1-.8-.6zm-3.4 4.1l.6.4-.6-.4zm4.4 1h-.1v.5c.1-.2.3-.2.5-.2l-.4-.4zm1.7-3.7v.2l-.2-.2-.8-.3v0l-.2-.1v.5l.1.3-.2.4-.1.4c.6-.3 1.3-.3 1.4 0 0 0 0 .2-.3.4-.4.3-.8.4-1 .4.7.2 1.2.4 1.5.7l.2-.4-.3-.5c0-.1 0-.2.2-.3 0-.3 0-.8.5-1.4h-.8zm-.6 3.2l.4.5h.1v-.4l-.5-.1zm-.7.2c.4.5.7.6 1 .8-.3-.2-.6-.3-1-.8zm-51.6 5.7l-.2.1v.1l.5.1-.3-.3zm-2.5-.4v.1l-.1.3c.1-.1.3-.1.4 0l-.2-.4zm-1.3-2.2v.2l.1.2v.3l.2.2.3-.3a3 3 0 0 1-.6-.6zm2.9-.4c-.1.4-.4.8-.7 1 .6 0 1 .2 1 .4 0 .1 0 .2-.3.2-.3.1-.6 0-.8 0 .5.3.8.7.9.9l.3-.2c-.1-.2-.1-.3 0-.4l.1-.2c0-.2.3-.5.8-.8-.4 0-.8-.4-1.3-.9zm-.6 2.6l.1.5h.1l.2-.3c-.1 0-.3 0-.4-.2zm37.5-.2v-.3c0-.3-.2-.8.1-1.5-.5.2-1.2.2-2.2 0 .2.5.4 1.3.4 1.8.5-.6 1.2-.7 1.3-.5v.5l-1 .6c1.5 0 2.3.5 2 .8l-.8.2h-.4c0 .2 0 .6-.2 1l.9.9.1-.1.1-.2.4-.8v-1.8c-.4-.2-.7-.4-.7-.6zm-38 .2c0 .4.3.6.4.7l-.5-.7zm12.6-1.4v-.5s-1-.2-1.5 1.3l-.2-.1c0-.3 0-.5-.2-.9v-.1c.2-.2 0-.5-.5-.6l-.4-.2v0H60c.3-.3.5-.7.7-1.4 0 0-.8-.3-1.7 1v-.3l-.1-.4-.1-.3-.4-.8c-.4-.3-.6.3-.5 1.2.2 0 .3.1.3.3-.1.6-.7 1-1 1.2l-.3.1v.7a3 3 0 0 0-1-.4l1.1.5c.5.3.7.5.7.7-.1.4-1.2.4-2.3-.3v.1c.1.2.1.4 0 .4 0 .1-.4 0-.7-.3.1.2.2.5.1.8.4-.2.9-.2 1-.2.2-.2.5-.4.7-.3.1 0 .1.2 0 .4v.4h.2c.7-.4 1.4-.4 1.2 0l-.5.3-.1.1-.4.1-.2.2c1.3.2 1.3.7 1.3.8a5 5 0 0 1-1 0v.5c.3-.1.8 0 1.5.3h.3v-.8c0-.2.1-.3.3-.5l-.3-.1c-.6-.3-.9-.6-.9-.8 0-.5 1-.6 2.5.2-.2-.6-.3-1.4-.2-2.4.2 0 1.4 0 1.8 2.2l1-1.7.5-.4zm27.7 2.2l-.6-.1-.2.3h.2zm-1.5 1.8c.7-.4 1.2-.6 1.6-.6 0-.1.4-.2 1-.1l-.3-.9-1.7.4-.6 1.2zm1.4-4l-.4.1v.8c.4 0 .7.2 1 .3-.3-.2-.6-.7-.6-1.2zM56.4 125zm34.3-1.8l-.1.1v-.1h-.2l.2.6c0-.2.2-.5 0-.6zm-36.3 1.2l-.3-.6c0 .4-.2.9-.6 1.3l.4.6c0-.4 0-.9.5-1.3zm32.9-4c-.2 0-.4.4-.5 1 .3 0 .6 0 1 .2-.3-.3-.4-.8-.5-1.2zm2.6.5l.4-1.1-.9-.2.5 1.3zm-37.6 5.4h.6a5 5 0 0 1-.4-.3l-.2.3zM41 121zm24 2.8c-.1-.3-.3-.6-.6-.8-.4-.3-.8 0-1 1 .2 0 .4 0 .5.2.2.5 0 1.1-.1 1.5-.2.2-.2.4-.8.8 1.2-.7 2.6-1.4 4-1.9-.8-.6-1.5-.9-2-.8zm-20.5-3.1c-1.6-2-2.9-1.3-3-1.3 0 .4.2.7.3 1 .6-.3 1-.3 1 0 .1.5 0 1-.3 1.2l.8 1 .6.4.6.4c-.2-.5-.4-1.1-.4-2 0-.5.1-.8.4-.7zm40.4-.4l-1.5.8c.4-.8.4-1.2.4-1.6-.1-.6-.2-1.5-.9-2.1-.4-.3-.8 0-1 1a8.7 8.7 0 0 0 0 3l-.1-.2c-1.8-2.6-3.4-1.9-3.5-1.8a7.6 7.6 0 0 0 1.8 3.1c-2-.1-3 .4-3.2 1 2.3.1 4.5.7 6.5 1.5.5-.1 1.3 0 2.4.5-.2-.4-.3-1-.2-1.5 0-.4.1-.6.3-.8l-.4-.1-.2.7c-.3-.4-.7-.5-1-.6.3 0 .6-.2.7-.3-.5-.3-.8-.6-.9-.8 0-.5.6-.8 1.8-.7.4-.5.5-1 .3-1.2-.2-.2-.6-.2-1.3.1zm-33.4 2l-.2-.2c-.3-.5-.4-.8-.3-1h-.1l-.2-.4c-.1-.2-.4 0-.5.2a2 2 0 0 0-.8 0v-.6c-.2-.2-.7-.2-1.3 0l-1.5.9c.4-.9.4-1.2.4-1.7-.1-.6-.2-1.5-1-2-.3-.3-.7 0-.9.9a9 9 0 0 0-.1 2.6c.4.4.5.8.7 1.2 0 .3.2.5 0 1.2l1-.7c.4-.2.8-.3 1-.1.3.2 0 1-1 1.6.4 0 .5.1.6.2v.1l.2.6h.2v-.9c-.2-.2-.3-.5-.2-.6.1-.1.3 0 .5.1l.5.3v-.2c-.3-.7-.1-1.2.2-1v-.5c.1-.3 1 0 1.6 1.2 0-.3.3-.6.6-.9l.6-.3zm34.4 4zM75.4 122a7 7 0 0 0-1.7 0c.8-.6 1-.8 1.3-1.3.3-.5.8-1.3.5-2.1-.1-.4-.6-.4-1.3.3-1 1-1.6 1.8-2 2.5v-.1c.2-3.2-1.5-3.3-1.8-3.3a7.1 7.1 0 0 0-.4 3.5c-1.8-1.3-3.4-1.2-3.4-.5 0 .3.3.7 1 1.2l.3.2a2 2 0 0 0-.4.7c-.3.5-.3 1-.3 1.3a23.3 23.3 0 0 1 8.7-1.1c.5-.2.7-.5.6-.7 0-.3-.4-.5-1.1-.6zm-18.6 0v-.1h-.2zm-9.3 1.5zm12.2 6v-.2zM59 127zm-4.8-.2c0 .1 0 .8.3.6 0 0 .6 0 .7.3v.3l.4-.6v-.4l-1.4-.2zm.1-6.7c-.2-.5-.5-1.4-1.3-1.8-.4-.2-.7.2-.7 1 0 .9.1 1.5.3 2.1l.7.8c.1-.5.4-1.1 1.1-1.8v-.3zm2.6.3c-.3-.1-.7 0-1.3.3l-.3.3c0 .4 0 1-.4 1.8a7 7 0 0 1 1.7-.8c.6-.7.6-1.4.3-1.6zm.1 1.5h-.3.3M131.1 63.7v.1c-.1-.2-.3-.3-.5-.3s-.4.1-.5.3c0-.2-.3-.3-.5-.3s-.4.1-.5.3c0-.2-.2-.3-.4-.3-.3 0-.4.1-.5.3a.5.5 0 0 0-1 0 .5.5 0 0 0-1 0c0-.2-.2-.3-.4-.3-.3 0-.4.1-.5.3a.5.5 0 0 0-1 0c0-.2-.3-.3-.5-.3s-.4.1-.5.3c0-.2-.2-.3-.4-.3-.3 0-.4.1-.5.3a.5.5 0 0 0-1 0c0-.2-.3-.3-.5-.3s-.4.1-.5.3c0-.2-.2-.3-.4-.3-.3 0-.4.1-.5.3-.1-.2-.3-.3-.5-.3s-.4.1-.5.3c0-.2-.3-.3-.5-.3-.3 0-.5.2-.5.5h13.7v-.3M118.3 64.7h13v-.3h-1-12l-.7.1-.2.1.9.4-.5-.3h.5" fill="#1e3d6a"/><path d="M131.5 65.8v-.5h-13.1a.5.5 0 0 1-.2-.4h-.2c0 .2 0 .4.2.5h-.1V70c0 4.8 0 7.5.2 11.5l.1-1.6v1.3c.2-4 .3-6.7.3-11.5v-2.8-1h12.8" fill="#1e3d6a"/><path d="M131.5 65.8h-13v.2h13v-.2M118.5 81.6h13.3v-.3h-1.4-12l-.4.1h-.2c0 .4.1.2.1.3l.8.5-.6-.6h.4" fill="#1e3d6a"/><path d="M131.8 82.3h-13s-.6 0-.6-.5h-.2c0 .5.6.8.9.7h12.8v-.2M131.6 83.3l.1-.5h-10.2H118.8c.2-.3-.4.3-.4.2V94.8c0 2.3.1 3.5.3 5.4.2-1.9.3-3.1.3-5.4v-8.2-2.4-.9h12.6M19.7 60v.2l12.6 3v.3h.1v-.3L19.7 60M24.4 99.6h.3v.6c.3 0 .5 0 .5.2v.3h-.4l-.2.3.1.2h.4l-.1.3-.1.1v.2h.2l-.2.3-.3-.1-.2-.1.1.2c.2.1.4.2.5.1l.3-.4-.1-.1H25v-.1l.2-.3c-.2-.3-.3-.3-.5-.2v-.2h.5c.1-.2.2-.5 0-.6 0-.1-.1-.3-.5-.2v-.3-.3c-.2-.1-.3-.1-.4 0h-.1.1M32.1 104v-1.4c-1-.5-2-.1-3.4-.2h-4l.1.3h7v1.4c.1-.1 0 .8.2 1.3l-3.4-.1-2.3-.1.2.3h2l3.4.1c.4-1 .2-1.5.2-1.5M35.2 106.7l-8.2-.4.1.2a1757.2 1757.2 0 0 0 8.1.2M74.3 111.3a619.9 619.9 0 0 1-45.2-2l.3.4 18.6 1.1c0 .1 22 1 26.3.9 4 0 6.4 0 9.8-.2l-9.8-.2M21 37.8l.5-.8v-.7l-.3-.5.1-.2c.2 0 .9.5 1 .6l.9.6v.3H23l-.5-.1a1 1 0 0 0-.6.2l-.7.8.3.2a274.8 274.8 0 0 0 2.2 1.2l.3-.5h.1l.2.1v.1l-.9 1.3-.8 1.2h-.1l-.2-.1v-.1l.2-.3c.1-.2.1-.3 0-.4-.2 0-1.2-.8-2.6-1.8l-.6-.4-1.6-1.1c-.1-.1-.3 0-.4.2l-.3.3-.3-.1v-.1l1-1.4 1.8-2.7.3-.4h.2l1.5.6v.3h-.1l-1.2.2c-.3 0-.6.1-.8.3l-1 1.4 2.2 1.5.4.3M22.4 31.4c-.3-.2-.4-.2-.6 0l-.3.3h-.1l-.2-.2v-.1l1.1-1.2 1-1.1h.1l.2.1v.1l-.2.3c-.3.2-.2.5-.1.6l1 1 .4.4 1.6 1.3c.4.3.8.6 1.1.6.6 0 1-.2 1.3-.6.2-.2.5-.8.5-1.1 0-.6-.3-1.1-.8-1.6l-1.2-1a19 19 0 0 0-1.7-1.4H25l-.2.3-.3-.2v-.1l.9-.9.6-.7h.1l.2.1v.1l-.2.2c-.2.3 0 .5 0 .6l1.2 1.1L29 30c.6.6.8 1.2.8 1.9 0 .6-.3 1.2-.7 1.7-.3.4-.8.8-1.2 1-.5.2-1.1.2-1.7 0-.5-.2-1-.6-2-1.5l-1.7-1.6M31.6 26.4l1.8 2 .4-.4 1-1c.4-.4.2-1.7 0-2v-.2h.3l1 1.8-3 2.6-1.1 1h-.2l-.1-.2.2-.3c.3-.2.2-.4.2-.4l-2.2-2.5-.3-.5a76 76 0 0 0-1.3-1.3c-.2-.2-.3-.3-.5-.1l-.2.2h-.1l-.2-.2 1-1 1.3-1c0-.1 0-.1.1 0l.2.1v.1l-.4.3c-.2.2-.2.4 0 .6l1.5 1.7.6.7M37.1 22l1.6 2.1.5-.3 1.1-.9c.4-.3.3-1.7.2-2v-.2h.3l.8 2c-.2 0-2.6 1.7-3.3 2.2L37 26l-.1-.1-.2-.2v-.1l.3-.2c.3-.2.2-.4.2-.4L35.4 22l-.3-.4-1-1.5c-.2-.2-.3-.3-.5-.1l-.3.2h-.1L33 20l1.2-.8 1.3-1h.2v.2c.1 0 .1 0 0 .1l-.3.3c-.3.2-.3.3-.1.5l1.3 2 .5.6M42.8 17.5l.9-.5.2-.5v-.7c-.1 0-.1 0 0-.1l.2-.1h.1a9.5 9.5 0 0 0 1 2l-.1.2h-.2c0-.2-.3-.3-.4-.4a.8.8 0 0 0-.6 0c-.3 0-.6.2-1 .4l.3.5.9 1.5c.2.4.4.5.6.5.1 0 .3 0 .7-.3l.7-.4c.2-.1.4-.4.5-.7.2-.3.4-1 .4-1.4h.3l.4 1.5-.1.3-3.9 2-1 .7h-.2v-.3c-.1 0-.1 0 0-.1l.2-.1c.4-.3.4-.3.3-.7L41.4 18 40.3 16c-.2-.2-.3-.2-.6-.1l-.3.2-.2-.3 1.3-.8 3.1-1.7.3-.2h.1l1.2 1.3-.1.2H45l-1.6-.4-.8.1-1.2.6 1.4 2.6M49.7 14.5l.4-.1c1.2-.5 1-1.8.9-2.2-.2-.5-.5-.8-.8-1H49l-.3.3v.3zM48 14l-.6-1.5c-.1-.3-.3-.4-.4-.4l-.4.2-.2-.3 1.4-.6 1.7-.7c.8-.3 1.4-.3 2 0 .4.1.7.4.9.7.4 1.2-.2 2-1 2.5.3 0 .5.1.8.3a23.3 23.3 0 0 0 2.3 1.5h.7c.1-.1.1 0 .1 0l.1.2v.1l-1 .4c-.3 0-.7.2-1 .4l-1.6-1.2c-.5-.5-1.2-1-1.6-.9l-.3.1.1.5.8 1.7c0 .2.2.3.3.3l.4-.2h.1l.1.3-.1.1-1.2.5-1.3.5H49l-.1-.3.3-.2c.2 0 .3-.2.2-.4l-1-2.7-.4-.9M56.8 8.8h-.4l-1.2.5-.6 1.4h-.3a112.1 112.1 0 0 0 0-2.2h.2c.2.2.4.2.7.1l2-.4.5-.2 1.9-.5c.2 0 .5-.3.6-.4 0-.2.1-.2.2-.2h.1l.8 2-.2.2V9l-1.2-.9-1.4.2h-.3L59 11l.8 3c0 .2.2.4.4.3l.5-.1h.1v.3l-1.5.5-1.6.4v-.1l-.1-.2V15l.5-.1c.2 0 .3-.2.3-.4l-.9-3.4-.6-2.3M69.2 9.8c-.2-2.2-1.8-3.2-2.6-3.1-.2 0-.7 0-1.3.7-.5.6-.6 1.7-.5 2.5.3 2.5 1.8 3.3 2.6 3.2 1.9-.3 2-2.5 1.8-3.3zM65 13.2a3.5 3.5 0 0 1-1.8-2.8c0-.6 0-1.6.6-2.6a3.5 3.5 0 0 1 2.8-1.6 3.6 3.6 0 0 1 4.2 3.3 3.6 3.6 0 0 1-3.4 4c-.7.1-1.5 0-2.4-.3M78.8 10a42 42 0 0 0 0-3.3c-.1-.3-.4-.4-.6-.4H78v-.4h2.2v.4h-.3a56.2 56.2 0 0 0-.6 4.8v1.7c0 .1 0 .3-.2.3s-.3 0-.4-.2l-1.2-1.4-1.7-2L74 7.2h-.1v4.4c0 .6.2 1 .6 1h.3v.3h-2.3v-.4h.4c.2 0 .3-.3.4-1l.2-3.2v-1c0-.5-.4-1.1-.9-1.1h-.2v-.4a11 11 0 0 0 1.4 0h.7a787.9 787.9 0 0 1 2.5 3l1.7 2.2v-1M84.9 12.9c-.6-.8-.8-2-.6-2.8.2-1 .7-1.9 1.5-2.5.7-.5 1.6-.8 2.8-.6.9.2 1.6.6 1.9.8.1.1.2.1.2 0l.1-.2h.2c.2 0 .2 0 .2.2a43.5 43.5 0 0 0-.3 2.3h-.2l-.1-.1c0-.4-.2-1-.6-1.5-.3-.5-.8-.9-1.5-1-1.4-.3-2.3.9-2.6 2.3 0 .6-.1 1.9.4 2.8.5.7 1 1 1.4 1 1.1.2 2-.1 2.5-.6 0 0 .1-.1.2 0l.1.1v.1c-.7.7-1.8 1.4-3.2 1-1.3-.2-2-.7-2.4-1.3M98 13.7c.7-2-.2-3.7-1-4-.2 0-.7-.2-1.4.2-.8.3-1.4 1.2-1.6 2-.9 2.4.2 3.7 1 4 1.8.6 2.8-1.4 3-2.2zm-5.2 1.2c-.6-.6-1-1.9-.5-3.2.2-.6.7-1.5 1.7-2 1.2-.8 2.3-.7 3.2-.4.7.3 1.4.7 2 1.6a3.6 3.6 0 0 1-4.4 5.4c-.7-.2-1.4-.6-2-1.4M103.1 16.2l-1.1 2.4.5.3 1.3.6c.5.2 1.7-.6 2-.9l.2.2-1.3 1.6-3.6-1.8-1.4-.6V18l.1-.2s0-.1.1 0h.3c.3.2.4.1.5 0l1.5-2.9.2-.5.8-1.7-.1-.4-.3-.2c-.1 0 0 0 0-.1v-.2h.1l1.3.6 1.5.7v.1l-.1.2h-.1l-.4-.2c-.3 0-.4 0-.5.2l-1 2.1-.5.8M109.4 19.6l-1.5 2.3.5.3 1.3.7c.5.3 1.7-.4 2-.6h.1l.1.2-1.5 1.5-3.4-2.2-1.2-.8.1-.3.3.1c.4.2.5.2.5 0l1.8-2.7.3-.5 1-1.5v-.5l-.4-.2v-.1l.1-.2h.1l1.2.7 1.4.9V17h-.2l-.4-.2c-.3-.2-.4-.1-.5.1l-1.3 2-.4.7M115.7 23.1l.8.6h.5c.2 0 .5-.1.6-.3h.1l.2.2v.1l-.6.8-.7 1h-.1l-.2-.2.1-.6c0-.2 0-.5-.2-.6a7 7 0 0 0-.8-.7l-.3.5-1 1.3c-.4.4-.4.6-.3.7 0 .2.2.3.6.6l.6.5.8.2a12 12 0 0 0 1.6-.1v.2l-1.3 1h-.2l-3.4-2.8-1-.8v-.1l.1-.2h.1l.3.2c.3.3.4.2.6 0l2.1-2.6 1.3-1.7c.2-.3.2-.4 0-.6l-.3-.2v-.1l.1-.2h.1l1.2.9 2.7 2.2.3.2v.1l-.6 1.5H119.2l-.3-1.7-.4-.7-1-.8-1.8 2.2M122.7 33.7l-.2.2h-.2a6 6 0 0 1-2.5-1.7c-.7-.7-1.3-1.8-1.2-2.8 0-1 .5-1.8 1.4-2.6.6-.6 1.6-1 2.6-.9 1 0 1.8.5 2.6 1.4.7.7 1 1.4 1.1 1.8l.2.2H126.8c.1 0 .1.1 0 .2l-1.4 1.5-.1.1-.3-.2v-.1c.3-.5.5-1.1.5-1.7 0-.6-.2-1.1-.6-1.6-.4-.4-.9-.6-1.6-.6-.7 0-1.6.4-2.2 1-.9.9-1.4 1.8-1.4 2.6 0 .6.1 1 .6 1.5.3.4.5.6.9.7.2 0 .5-.1.8-.5l.5-.5c.3-.2.3-.4.1-.5l-.3-.3v-.2l.2-.1h.1l1 1 1 1v.1l-.2.2-.3-.2c-.1-.1-.2-.2-.4 0l-1 1M127.6 35.4l.7.7c.1.2.3.2.5.2s.5 0 .7-.2l.2.3v.1a9.2 9.2 0 0 0-1.7 1.3h-.2l-.1-.2c0-.2.2-.4.3-.5v-.7l-.6-.8-.5.3-1.3 1-.5.7.4.7.5.6.7.5 1.5.1v.1l.1.2-1.5.6h-.3c0-.2-.5-.8-2.5-3.6l-.8-1v-.1l.2-.2h.1l.2.3c.3.4.4.4.6.2l2.7-2 1.8-1.3c.2-.2.2-.4 0-.6l-.2-.3.2-.2h.1l.9 1.2 2 2.8.3.3v.1l-1 1.3H130.8V37l.2-1.6-.2-.8-.8-1-2.4 1.7" fill="#1e3d6a"/><path d="M75 149.4a74.5 74.5 0 1 1 .2-149 74.5 74.5 0 0 1-.2 149zM75 0a75 75 0 1 0 .2 150.2A75 75 0 0 0 75 0" fill="#1e3d6a"/><path d="M85.9 145.6h-.1c-3 2-6.9 3-10.8 3-4 0-7.8-1-10.8-3H64a71.4 71.4 0 1 1 21.8 0zm43.6-23.5a72 72 0 1 0-65.6 24c3.2 2 7.1 3.1 11.1 3.1s8-1 11-3a72 72 0 0 0 43.5-24" fill="#1e3d6a"/><path d="M91.7 132h-.1l-.7-1.5v-.1a57.2 57.2 0 0 0 38.7-37 57.7 57.7 0 1 0-70.6 37h.2v.1c-.4.5-.6 1-.8 1.5h-.1a59.5 59.5 0 1 1 33.4 0zm43.4-57a60.1 60.1 0 1 0-76.4 57.8l.1-.3 1-2 .3-.4-.4-.1a57.1 57.1 0 1 1 30.7 0h-.5a518.1 518.1 0 0 0 1.3 2.5v.3h.4A60.3 60.3 0 0 0 135 75" fill="#1e3d6a"/><path d="M143.7 83h-.1c0-.5-.6-1.2-1.6-2.3-.4-.4-.5-1.3-.6-2V78.3l.4.1.3.2c.4.2 1.3 1.1 1.7 2.2l.1.5c0 .4 0 1-.2 1.6zm-2.5-6.8a2.1 2.1 0 1 1 0-4.2 2.1 2.1 0 0 1 0 4.2zm1 8.6c0 1-.3 2.8-.4 3.5v.2h-.2c0-.6-.3-1.2-.6-1.8l-.6-2.1.4-2v-.1c.4.5 1.4 1.6 1.4 2.3zm-2.5-4.6a8 8 0 0 0-2.1 1.5h-.1c0-1.1.4-2 .8-2.5.9-1.2 1.4-1.4 1.8-1.6h.5v1.6c-.3.5-.5.8-.9 1zm0 3.9c0 .1 0 .3-.2.4-.3.5-1 1-1.4 1.5l-.9.8-.2.3c0-.4 0-.7.2-1.2.3-1 1-2.3 1.7-2.6l1-.7.2-.1zm.3 6.8c.2.4.3.8.3 1.3a9.6 9.6 0 0 1-.4 3h-.1c0-.5-.1-1-.3-1.4l-.6-2.6.3-2V89l.1-.1v.1l.7 2zm-1.8-.9c-.2.5-.6 1.3-1.7 1.7l-1 .7.2-.7c.3-.8 1.1-1.7 2.5-2.8l.3-.2.2-.2zm0 6.4v.5c0 .8-.1 1.5-.3 2h-.1l-.1-.6c-.4-.9-.6-1.5-.6-2.3v-.5l.3-.9v-.1h.1c.4.6.6 1.2.7 1.9zm-2-.7c-.2.3-.7.6-1.2.8-.3 0-.6.3-.8.5l.1-.5c.3-.7 1-1.5 1.7-2l.8-.5h.1zm-.5 3.6v.1c0 .8-.4 1.2-.9 1.6l-.7.8-.2.3v.1h-.1V101.3c0-.7.2-1.4.8-2l.6-.5.4-.6.1-.2h.1l-.1 1.2zm5-33.8h-.1a54 54 0 0 0-.5-2c0-.7.3-1.4.6-2.1l.5-1.9h.1v.2c.3.7.6 2.6.6 3.5 0 .6-.9 1.8-1.2 2.3zm-.2 5h-.4c-.4-.2-1-.4-1.9-1.6-.4-.5-.7-1.3-.8-2.4v-.1.1c.4.4 1.3 1 2.2 1.4.4.1.6.5.9 1l.1 1.5zm-1.8-5.6c-.7-.4-1.4-1.7-1.8-2.7a11 11 0 0 1-.3-1l.3.2.9.8 1.5 1.4.2.4.4 1.6zm.2-5.6l-.2-.5a7 7 0 0 1-.3-1.9c0-.8.2-1.6.5-2.6.2-.4.2-1 .2-1.3h.1l.2.6c.3.8.4 1.6.4 2.2 0 .5-.1 1-.3 1.3l-.6 2zm-.8.2l-.3-.2c-1.4-1-2.3-2-2.6-2.7l-.3-.7h.1c.2.2.6.5 1 .6 1 .4 1.5 1.1 1.8 1.6l.5 1.5zm-1.3-5.8l-.3-1-.1-.5c0-.8.2-1.4.5-2.4v-.5h.2c.2.5.4 1.1.4 2v.5c0 .6-.3 1.2-.6 1.8zm-1.4 0a4.9 4.9 0 0 1-1.8-1.9l-.2-.5h.1l.8.5c.5.1 1 .4 1.3.8l.7 1.7zm-.4-3.5l-.1-.1-.5-.6-.6-.5c-.6-.6-1-1.3-1-2V46h.1l.1.1.2.3.7.7c.6.5 1 .9 1 1.7 0 .4 0 .8.2 1.3zm6.9 17c1-1 1.4-1.8 1.5-2.3.3.6.4 1.2.4 1.6l-.1.5c-.4 1.1-1.3 2-1.6 2.3l-.3.2-.3.1v-.1l-.1-.1c0-.7 0-1.7.5-2.1zm2.3 13.6a6 6 0 0 0-1.8-2.4l-.5-.2c-.3-.2-.4-.2-.4-.5h-.1V77a2.9 2.9 0 0 0 0-5.8v-1l.5-.4.4-.2c.4-.3 1.3-1.3 1.8-2.5v-.6c0-1.2-.7-3-.8-3.2l-.4.1.1 1.4c0 .6-1 1.8-1.4 2.2l-.5 1a46 46 0 0 0-.4-2c.3-.3 1.6-1.9 1.6-2.8 0-1-.4-3-.6-3.6l-.4-1.6h-.4v.7c0 .8-.2 1.7-.6 2.5l-.4 1.2v.2-.2l-.7-2.3c0-.4.3-1.9.7-2.8.2-.4.2-.9.2-1.5s0-1.4-.3-2.3a8 8 0 0 0-.7-1.7l-.3.1v.6c0 .5 0 1.2-.2 1.7a9 9 0 0 0-.5 2.4h-.1l-1-2.5a5.2 5.2 0 0 0 1-2.8c0-1-.4-1.8-.6-2.3l-.2-.4a4 4 0 0 0-.5-1l-.3.1.2 1.6v.4c-.3.7-.5 1.3-.5 1.9v.1l-.5-1a7 7 0 0 1-.3-1.8c0-1-.6-1.5-1.1-2l-.7-.6c-.6-.8-1-2.3-1.1-2.5h-.4a13.3 13.3 0 0 1 .5 3.2c0 .8.3 1.6 1 2.2l.7.6.3.5.5.7.2.5.1.3h-.1l-.8-.4c-.7-.1-1.2-1.1-1.3-1.3l-.4.1c0 .2.2 1 .6 1.8.4.8 1.1 1.6 1.9 2l1.3.9.8 2-.1-.2-1-.5c-1-.4-1.6-1.6-1.7-1.8h-.4l.7 2.3a8 8 0 0 0 2.8 2.9l.9.7.7 2.5v.2-.1l-1.2-1-.8-.8-1.4-1.6.2.7.5 2.2c.4 1 1.2 2.4 2 2.8l1.5.9.3 1.8-.5-.4a6 6 0 0 1-2.2-1.4l-.3-.9h-.4v.4a6 6 0 0 0 1 3.6c1 1.3 1.7 1.5 2.1 1.6h.7v.4a2.9 2.9 0 0 0 0 5.7v.3h-.7c-.4.2-1 .4-2 1.8-.8 1-1 2.4-1 3.2l.1.7h.4l.2-.8c.2-.3 1-1 2.2-1.6l.4-.3h.1l-.3 1.8-1.4 1c-.8.4-1.5 1.7-1.8 2.8l-.6 2.2v.7l1.2-1.7.8-.8 1.1-1h.1l-.6 2.6-1 .8a8 8 0 0 0-2.6 3l-.6 2.2h.4c.1-.1.6-1.4 1.5-1.8.4 0 .8-.3 1-.5l.2-.2-.7 2-1.3 1a5.2 5.2 0 0 0-2.3 3.8l.3.1c.2-.4.7-1.2 1.3-1.4.3 0 .5-.2.8-.3h.1l-.1.3-.2.5-.4.7-.4.5-.6.6c-.6.6-1 1.4-1 2.1v.5l.1.2c0 .8-.3 2-.4 2.6h.4a9 9 0 0 1 1-2.5l.7-.7c.5-.5 1-1 1-1.9v-.2c0-.5 0-1 .2-1.7l.4-1v.1l.6 1.9v1.9l.3.2.4-1 .2-.4a5.7 5.7 0 0 0 .4-2.9c-.2-1-.6-1.8-1-2.2l.9-2.6c.1.8.3 1.5.7 2.5.2.6.3 1.6.3 2v.2h.3a8.3 8.3 0 0 0 .9-3.7 4 4 0 0 0-.3-1.7l-.9-2.8.6-2.4v-.1l.1.1.5 1.2c.3.9.7 1.7.7 2.5v.6l.3.1.4-1.6c.2-.7.5-2.4.5-3.4v-.2c0-1-1.3-2.4-1.7-2.8l.2-2h.1l.5 1c.4.4 1.5 1.5 1.5 2.1v1.4l.3.1c.2-.3.8-1.9.8-3l-.1-.8M17.2 46.7v.3c0 .7-.3 1.4-1 2l-.5.5-.5.6-.1.1H15l.1-1.3c0-.8.5-1.2 1-1.7l.7-.7.2-.3.1-.1h.1v.4zm-1.4 5.1c.3 0 .5-.3.7-.5h.1l-.2.5c-.3.7-1 1.5-1.7 1.9l-1 .6V54l.7-1.6c.3-.3.8-.6 1.4-.7zm-2.2 1l-.4.9v-.1c-.4-.6-.6-1.2-.7-1.8v-.5c0-.9.3-1.5.5-2l.1.5c.3 1 .5 1.6.5 2.4zm.4 3.7c.5-.1.8-.4 1-.7h.1l-.2.8c-.3.7-1.2 1.6-2.7 2.7l-.2.2-.2.1.5-1.5c.2-.5.7-1.2 1.7-1.6zm-2.7 2.3l-.2.5v-.1l-.6-2-.2-1.4a9.6 9.6 0 0 1 .5-2.9h.1c0 .5 0 1 .2 1.4.4 1 .5 1.8.5 2.6a7 7 0 0 1-.3 2zm1 3.4l.9-.8.2-.3-.3 1.1c-.3 1-1 2.3-1.7 2.7l-1.1.6h-.1l.3-1.5.3-.4c.3-.5 1-1 1.5-1.4zm-2.8 3.3h-.1C9 65 8 63.8 8 63.2c0-1 .4-2.8.6-3.5v-.2h.1l.5 1.9c.3.6.6 1.4.6 2l-.4 2zm.9 2.4c1-.4 1.8-1 2.2-1.4v-.1.1c0 1-.3 1.9-.8 2.4-1 1.2-1.5 1.4-1.9 1.5l-.2.1H9.4v-.1l.2-1.5c.2-.5.5-.9.8-1zM11 74a2.1 2.1 0 1 1-4.2 0 2.1 2.1 0 0 1 4.2 0zM9.7 84.6c-.1.7-.4 1.4-.7 2l-.6 1.9-.1-.2c-.2-.7-.5-2.6-.5-3.5 0-.7 1-1.8 1.4-2.2v-.1l.5 2.1zm-.2-7h.4c.4.2 1 .4 1.9 1.6.4.6.6 1.4.7 2.4v.2-.1a8 8 0 0 0-2.2-1.5c-.3-.2-.6-.5-.8-1v-1.6h-.1zm1.7 5.7c.6.3 1.3 1.6 1.6 2.6l.3 1.1-.3-.2-.8-.8-1.5-1.5-.2-.4-.3-1.5v-.1zm-.5 5.6v-.1l.2.5.2 1.9c0 .8-.2 1.6-.6 2.6a5 5 0 0 0-.2 1.3h-.1l-.2-.6-.3-2.3c0-.5.1-1 .3-1.3.2-.5.5-1.1.7-2zm.8-.2l.3.2c1.4 1 2.3 2 2.5 2.8l.3.7h-.1c-.2-.2-.5-.5-1-.7-1-.4-1.5-1.2-1.7-1.7l-.4-1.3v-.2zm1 5.8h.1l.3 1v.5c0 .8-.2 1.4-.5 2.3l-.1.5v.1h-.1c-.2-.5-.4-1.2-.4-2v-.5c.1-.7.4-1.3.7-1.8zm.7-.5l.8.6c.7.4 1.4 1.2 1.7 1.9l.2.5-.8-.5c-.6-.2-1-.5-1.3-.8l-.6-1.6v-.2zm1.1 4l.1.2.5.6.6.5c.5.6.8 1.3.8 2v.9h-.1l-.3-.4-.7-.8c-.5-.4-.9-.8-.9-1.6v-.2V98zM8 80.7c-1 1.1-1.5 1.8-1.5 2.3h-.1L6 81.5l.1-.6c.5-1 1.3-2 1.7-2.2l.4-.2.2-.1.1.1v.1c0 .8-.1 1.7-.6 2.1zm.6-11.2v.2l-.3-.2-.4-.2A5.6 5.6 0 0 1 6.4 67l-.1-.5c0-.4 0-1 .3-1.6.1.5.6 1.2 1.6 2.4.4.4.4 1.4.4 2zm8-23.2l-.7.7c-.6.4-1.1.9-1.1 2a7 7 0 0 1-.3 1.7l-.5 1v-.1l-.5-1.9v-.4c0-.4 0-1.1.2-1.6l-.4-.1-.5 1-.1.4a4.8 4.8 0 0 0-.5 2.9c0 1 .5 1.7.8 2.2l-1 2.6a9 9 0 0 0-.5-2.5 6 6 0 0 1-.2-2.3h-.4l-.7 1.6-.3 2.3c0 .6 0 1 .2 1.5.4 1 .7 2.4.8 2.8l-.7 2.3v.2-.2a14 14 0 0 0-.5-1.2c-.3-.8-.6-1.7-.6-2.5v-.6l-.3-.1-.5 1.6c-.2.7-.6 2.6-.6 3.6 0 .9 1.3 2.4 1.6 2.8 0 .7-.2 1.3-.3 2l-.6-1c-.3-.4-1.4-1.6-1.4-2.2l.1-1.4h-.3c-.1.1-.9 1.9-.9 3v.7a6 6 0 0 0 1.8 2.5l.4.2c.3.2.5.3.5.5h.1v1h-.1a2.9 2.9 0 0 0 0 5.7l.1.7h-.1c0 .3-.2.3-.5.5l-.4.2c-.4.2-1.4 1.2-1.8 2.4l-.1.7c0 1.2.6 2.8.7 3.1h.4V83c0-.6 1-1.7 1.4-2.1l.5-1H9c0 .7.2 1.4.3 2-.4.4-1.7 1.9-1.8 2.8v.2a19.5 19.5 0 0 0 1 5h.3v-.7c0-.8.3-1.6.7-2.5l.4-1.2v-.1l.1.1.6 2.4c0 .4-.4 1.8-.8 2.8a4 4 0 0 0-.4 1.7l.3 2 .6 1.7h.4V96c0-.4 0-1.4.3-2a9 9 0 0 0 .6-2.5l1 2.5h-.1a5.2 5.2 0 0 0-1 3c0 1 .3 1.7.5 2.2l.1.4.5 1 .3-.2-.1-1.4v-.5l.6-1.9v-.1l.4 1 .3 1.7v.2c0 1 .5 1.4 1 2l.6.6a9 9 0 0 1 1 2.5h.4a14.8 14.8 0 0 1-.3-2.8v-.5c0-.7-.3-1.5-1-2.1l-.6-.7-.4-.4-.3-.7-.4-.9h.1c.3.2.6.4.9.4.5.2 1 1 1.2 1.4l.4-.1-.5-1.8c-.4-.8-1.1-1.6-1.9-2l-1.3-1-.7-2 .2.2 1 .5c1 .4 1.4 1.7 1.5 1.9l.4-.1-.6-2.2a8 8 0 0 0-2.6-3l-1-.8a66 66 0 0 1-.6-2.5V85l.1.1 1.1 1 .8.8 1.3 1.7-.1-.7-.5-2.2c-.4-1-1-2.4-1.8-2.9L9.9 82 9.6 80l.1.1.4.3a6 6 0 0 1 2.2 1.6l.2.8h.4v-.7c0-.8 0-2.2-.8-3.2-1-1.4-1.6-1.6-2-1.7l-.3-.1h-.4v-.3a2.9 2.9 0 0 0 0-5.7V71H10c.5-.2 1.1-.4 2.1-1.7a6 6 0 0 0 1-3.6v-.4h-.4l-.2.9c-.2.3-1 .9-2.3 1.4l-.4.3v.1l.3-1.8 1.5-1c.7-.3 1.5-1.6 1.9-2.7.4-1 .6-2.2.6-2.2l.1-.7L13 61l-.9.8-1 1h-.2l.8-2.6.9-.7a8 8 0 0 0 2.7-2.9c.4-.9.7-2 .7-2.2l-.4-.1c0 .2-.6 1.4-1.6 1.8-.4 0-.7.3-1 .5l-.1.1.7-2 1.4-.8c.7-.4 1.5-1.2 1.9-2a8 8 0 0 0 .6-1.8H17c-.2.3-.8 1-1.3 1.2-.3 0-.6.2-.8.3l-.2.1.1-.2.3-.6.4-.7.4-.5.6-.6c.7-.6 1-1.4 1-2.2v-.3-.2c0-.7.4-2 .5-2.6l-.4-.1c0 .2-.5 1.7-1 2.5M18.3 109.3l.4.6.5.2.4-.1.1.2a12.6 12.6 0 0 0-1.3.9h-.1l-.1-.1v-.1l.2-.3v-.5l-.3-.7-.2.1a160.8 160.8 0 0 0-1.5 1.1l.3.4-.2.2-.7-1-.6-1 .2-.1.2.2a74 74 0 0 0 2.3-1l.4-.3 1.2-.8c.2 0 .2-.2 0-.4V106.5l.1-.1.7 1c0 .2 1 1.8 1.3 2.1 0 .2.2.3.2.3v.2l-1 .8h-.2v-.2l.3-.8v-.6l-.6-1.2-1.7 1-.3.3M21.9 111.3c.2-.2.3-.3.2-.4l-.2-.3v-.1l.1-.1h.1l.7 1 .7.9-.2.2-.2-.3c-.2-.2-.3-.2-.5-.1l-.8.6-.3.2a68.2 68.2 0 0 0-1.9 1.7c0 .4 0 .7.3 1 .1.2.5.5.7.5.4 0 .8 0 1.3-.3l.9-.7 1.2-1c.2-.2.2-.3.1-.4l-.1-.2v-.1l.2-.1.5.7.5.6-.2.2-.2-.2c-.1-.2-.3-.1-.4 0l-1 .6-1.4 1a2 2 0 0 1-1.5.3 2 2 0 0 1-1.1-.8c-.2-.2-.5-.7-.5-1-.1-.4 0-.8.2-1.2.2-.3.6-.7 1.4-1.2l1.4-1M24.3 118c0 .2-1.3 1.2-1.5 1.4l.3.3.7.8c.3.3 1.3.1 1.6 0l.1.2-1.4.7-2-2.3-.6-.8.1-.2.2.2c.2.2.3.2.4.1L24 117l.3-.3a74.7 74.7 0 0 0 1.1-1.3l-.2-.2.2-.2.7.8.8 1v.2h-.2l-.2-.3c-.2-.2-.2-.2-.4 0l-1.3 1-.5.5M27.6 121.7l-1.4 1.4.3.3.8.7c.3.3 1.3 0 1.5 0h.1v.1l-1.2.8a159 159 0 0 0-2.1-2.1l-.8-.8.1-.2.2.2c.2.2.3.1.4 0l1.7-1.6.3-.3a56.7 56.7 0 0 0 1-1.4l-.2-.1v-.1l.2-.2.7.8 1 .8v.1l-.2.2h-.1l-.2-.3c-.2-.2-.3-.1-.4 0l-1.3 1.2-.4.5M31.5 124.6c.2.3.5.5.6.5h.4c.1 0 .3 0 .4-.2h.1l.1.1v.1l-.5.6-.5.7-.2-.1v-.1l.1-.4-.1-.4a5 5 0 0 0-.6-.6l-.3.4-.8 1c-.2.2-.2.4-.2.5l.4.4.5.4.6.2 1-.1h.1v.2l-1 .6h-.1l-2.4-2.1-.7-.6v-.2h.2l.1.1c.3.2.3.2.5 0l1.6-1.9 1-1.2c.2-.2.2-.3 0-.4l-.2-.2.1-.2h.1l.8.7 2 1.7.2.2-.5 1.2H34v-.1l-.2-1.2c0-.2-.1-.4-.3-.5l-.7-.7-1.4 1.6M35.3 128l.2.2c.8.6 1.5 0 1.7-.3l.3-.8c0-.4-.3-.6-.5-.8h-.2-.2zm-.4-1.2a52.4 52.4 0 0 0 .8-1.4l-.3-.2.2-.2.9.6 1.1.8c.5.4.7.8.8 1.2 0 .3 0 .7-.2.9-.5.7-1.3.7-1.9.3l.1.7v2l.3.4V132.2h-.1l-.7-.5-.6-.4.1-1.5c.1-.6.2-1.2 0-1.4l-.3-.1-.2.3-.8 1v.4l.2.2v.2H34l-.7-.6-.9-.6.1-.2h.2c.2.2.3.2.4 0l1.3-1.6.4-.6M41.2 129.3l-.3-.2-.9-.4-1 .4-.2-.2a60.9 60.9 0 0 0 1.2-1.1l.1.2.3.4 1.2.8.4.2 1.3.7c.1 0 .4.2.5.1h.2v.2l-.5 1.3H43.2l-.1-1c-.1-.3-.7-.6-.8-.7l-.2-.2-1 1.8a232.8 232.8 0 0 0-1.2 2.3l.3.2v.2H40l-1-.6-1-.6.1-.2h.1l.3.2.3-.1 1.4-2.2 1-1.5M47.1 135.3c.8-1.5.2-2.8-.4-3 0-.1-.4-.3-1-.1-.6.2-1.1.8-1.4 1.3-.8 1.7-.1 2.8.4 3 1.2.7 2.2-.7 2.4-1.2zm-4 .3c-.3-.5-.4-1.4 0-2.4.3-.4.7-1 1.5-1.3 1-.5 1.7-.2 2.3 0a2.7 2.7 0 0 1 1.3 3.8c-.2.5-.6 1-1.2 1.2-.7.3-1.5.5-2.5 0-.5-.3-1-.7-1.3-1.3M53 138a41.9 41.9 0 0 0 .9-2.4c0-.2-.1-.3-.3-.4h-.2V134.8h.1l.8.3.7.2V135.7H54.7c-.1 0-.2 0-.3.2-.3.5-1 2-1.3 3l-.5 1c0 .2 0 .3-.2.3a.4.4 0 0 1-.2-.2l-.5-1.3-.6-1.9-.7-2-.6 1.4-.5 1.7c-.2.4-.1.6.2.8h.1V139l-.9-.3-.7-.3v-.3l.3.1c.2 0 .4-.1.6-.6l.9-2.2.2-.6c.2-.4 0-.9-.3-1l-.1-.1v-.3l.3.1a12.8 12.8 0 0 0 1.2.5l.2.1.9 2.6.6 2 .3-.7M96.4 139.9c-.7-.3-1.2-1-1.4-1.6-.3-.7-.3-1.5 0-2.2.3-.5.7-1 1.6-1.4.6-.2 1.2-.2 1.5-.2h.1v-.2l.2-.1h.1l.7 1.5v.1l-.1.1H99c-.2-.3-.5-.6-1-.8-.3-.2-.8-.2-1.3 0-1 .3-1.1 1.4-.7 2.4a3 3 0 0 0 1.2 1.6c.6.3 1 .2 1.3.1a2 2 0 0 0 1.4-1.3s0-.1 0 0h.2c-.2.8-.6 1.6-1.6 2-1 .3-1.5.2-2 0M102.8 135.5a273.8 273.8 0 0 1-1.5-1.7v.1l.1 2.2zm-1.3.9c0 .1 0 1.2.2 1.4 0 .2.2.3.4.2l.2-.1.2.2-1 .5-.7.3h-.1v-.2l.1-.1.4-.5a26.8 26.8 0 0 0-.2-4.4l-.1-.2h-.1v-.1l.6-.7v-.1h.2l1.8 2a28 28 0 0 0 1.6 1.7c.2.2.4.2.5.1h.3l.1.1v.1l-1.2.5-.9.4-.1-.1v-.1l.2-.1c.1 0 .2-.2 0-.3-.1-.3-.8-1-1-1.2l-1.4.7M106.8 133.4l1 1.8.4-.2.9-.6c.3-.2.3-1.2.3-1.5l.2-.1.4 1.5-2.6 1.4-1 .6-.1-.2.2-.2c.3-.1.2-.2.2-.3l-1.2-2.1-.1-.4c-.3-.4-.7-1-.7-1.2-.1-.1-.2-.2-.4-.1l-.2.1-.2-.2 1-.5 1-.6h.1l.1.2-.3.2c-.2.1-.2.2-.1.4l.8 1.5.3.5M109.7 130.8a71 71 0 0 0-1.2-1.4l-.3.2-.2-.2 1-.7 1-.6.2.2-.3.2c-.1.1-.2.2-.1.3l1 1.5.2.5 1 1.6c.2.2.3.1.4 0l.3-.1.2.2-1 .6-1 .7-.2-.2.2-.2c.2 0 .3-.2.2-.4l-1-1.7-.4-.5M113.6 128.8l.5-.4.2-.5-.1-.4.2-.1.5.7.5.6-.1.2h-.1l-.3-.3h-.5l-.7.4.2.3.9 1.2c.1.2.2.2.3.1l.3-.2h.1l.1.1-1 .7-.8.7-.2-.2.2-.2a73.5 73.5 0 0 0-1.3-2.2l-.2-.4-.9-1.1c0-.1-.2-.1-.4 0l-.2.2-.2-.2 1-.8 2-1.4.3-.3h.1l1 .9-.1.2h-.1l-.9-.2a1 1 0 0 0-.6 0c-.2 0-.8.5-1.1.7l1.2 1.7.2.2M119.6 124.1c-1-1.2-2.4-1.2-3-.8 0 .1-.3.4-.4 1 0 .6.3 1.3.7 1.8 1.2 1.4 2.5 1.2 3 .8 1-.9.1-2.3-.3-2.8zm-1.2 3.9a2.9 2.9 0 0 1-3-2.8c0-1 .6-1.7 1-2.1.6-.4 1-.7 1.8-.8.7 0 1.6.3 2.2 1 .4.4.6 1 .7 1.6 0 .8-.2 1.5-1 2.3-.4.3-1 .7-1.7.8M122.1 121.6l.3-.2c.6-.7.1-1.5-.1-1.8l-.8-.4c-.4 0-.7.2-.8.4l-.2.3.1.2zm-1.2.2l-1-.9c-.1-.1-.3-.2-.3 0l-.2.1h-.1l-.1-.1.7-.9 1-1c.4-.4.8-.5 1.2-.6.4 0 .7.1.9.3.7.6.5 1.4 0 2h.7l1 .1 1 .1.5-.2h.2v.2l-.6.5-.4.6a6 6 0 0 1-1.5-.3c-.5-.2-1.2-.4-1.4-.1l-.2.2.3.2 1 1h.3l.2-.2h.1l.2.1v.1l-.8.7-.7.8-.2-.2.2-.2s.1-.2 0-.4l-1.5-1.4-.5-.5M128 115.5a31 31 0 0 0-2-1.6c-.1 0-.3 0-.4.2l-.2.2-.2-.2.6-.7.4-.6.2.1v.3c-.2 0-.1.2 0 .4a42 42 0 0 0 2.4 2l1 .9s.2.1.1.2l-.3.2h-5.4l1 1 1.5 1.1c.4.3.6.3.8 0h.4v.1l-.6.7-.5.6-.2-.1.2-.3c0-.1 0-.4-.4-.7l-1.8-1.6-.6-.4c-.3-.3-.8-.3-1 0l-.1.1h-.1l-.2-.1.2-.3.5-.5.3-.5h.2l2.7-.1h2l-.5-.4M128.6 113a91.6 91.6 0 0 0-1.6-.8l-.3.3-.2-.1.7-1 .6-1 .2.2v.2c-.2.2-.2.3 0 .4l1.4 1 .4.3a259 259 0 0 1 2 1v-.2H132.2v.1l-.6 1-.7.9-.2-.1.1-.3a91 91 0 0 0-1.7-1.6l-.4-.3M132.2 109a443.8 443.8 0 0 1-2.2-.4l1.4 1.7zm-.6 1.5l1 1.1c.1 0 .3.1.4 0l.2-.3h.2v.2l-.5.8-.4.7h-.2V112.6v-.6a27.7 27.7 0 0 0-2.6-3.5h-.2l-.1-.1v-1-.1h.2l2.7.6 2.2.5c.3 0 .4-.1.5-.2l.1-.3h.1l.1.1s.1 0 0 .1c0 .1 0 .3-.6 1l-.5 1h-.1l-.1-.1v-.3-.3l-1.6-.4-.8 1.4M75 146c-7.8 0-14.2-4.5-14.2-10.1s6.4-10.2 14.2-10.2c7.8 0 14.2 4.6 14.2 10.2S82.8 146 75 146zm0-20.9c-8.2 0-14.8 4.8-14.8 10.8 0 5.9 6.6 10.7 14.8 10.7 8.2 0 14.8-4.8 14.8-10.7 0-6-6.6-10.8-14.8-10.8" fill="#1e3d6a"/><path d="M69.1 132.7v.4c-1 0-1 0-1 .5v4.8c0 .6 0 .6 1 .6v.4h-3.5v-.4c1 0 1 0 1-.6v-4.8c0-.5 0-.5-1-.5v-.4H69M73 134.8c0-.4 0-1.9-.8-1.9-.9 0-.9 1.2-.9 2 0 1 .1 1.8 1 1.8l.6-.1c0-.3.2-.8.2-1.8zm-3 4.4c1.9-.8 2.4-1.7 2.7-2.2l-.7.1c-1.2 0-2-1-2-2.2 0-1 .7-2.4 2.2-2.4 1.5 0 2.3 1.4 2.3 2.7a4 4 0 0 1-1.8 3.3c-1 .7-2 1-2.4 1.1l-.3-.4M79 132.7v.4c-1.1 0-1.2 0-1.2.5v4.8c0 .6 0 .6 1.1.6v.4h-3.5v-.4c1 0 1 0 1-.6v-4.8c0-.5 0-.5-1-.5v-.4h3.5M80 133.7c.3-.4.9-1.2 2-1.2 1 0 1.7.5 1.7 1.2 0 .9-.8 1.3-1.3 1.6.5 0 .8.1 1 .4.4.4.6.9.6 1.4 0 1.4-1.1 2.5-2.6 2.5-.8 0-1.6-.3-1.6-1 0-.3.4-.5.7-.5.2 0 .4 0 .7.5.2.2.3.5.7.5.7 0 .7-1.1.7-1.3 0-.7-.2-1.6-1-1.6a1 1 0 0 0-.4 0l-.1-.3c1-.7 1.3-1.4 1.3-1.7 0-.5-.4-1-1-1s-.9.5-1 .7l-.3-.2" fill="#1e3d6a"/><path d="M58.3 135.9c0-7 7.5-12.7 16.7-12.7S91.7 129 91.7 136c0 7-7.5 12.6-16.7 12.6s-16.7-5.7-16.7-12.6zm-.8 0c0 7.4 7.9 13.4 17.5 13.4 9.7 0 17.5-6 17.5-13.4s-7.8-13.5-17.5-13.5c-9.6 0-17.5 6-17.5 13.5" fill="#1e3d6a"/></svg>