<?xml version="1.0" encoding="UTF-8"?>
<svg xmlns="http://www.w3.org/2000/svg" xmlns:xlink="http://www.w3.org/1999/xlink" width="343.5pt" height="343.5pt" viewBox="0 0 343.5 343.5" version="1.1">
<defs>
<clipPath id="clip1">
  <path d="M 0.0585938 0 L 343.5 0 L 343.5 343.5 L 0.0585938 343.5 Z M 0.0585938 0 "/>
</clipPath>
</defs>
<g id="surface1">
<path style=" stroke:none;fill-rule:nonzero;fill:rgb(77.6474%,4.31366%,27.450562%);fill-opacity:1;" d="M 0.5 343 L 343 343 L 343 0.5 L 0.5 0.5 Z M 0.5 343 "/>
<g clip-path="url(#clip1)" clip-rule="nonzero">
<path style="fill:none;stroke-width:1;stroke-linecap:butt;stroke-linejoin:miter;stroke:rgb(77.6474%,4.31366%,27.450562%);stroke-opacity:1;stroke-miterlimit:3.864;" d="M 0.5 343 L 343 343 L 343 0.5 L 0.5 0.5 Z M 0.5 343 " transform="matrix(1,0,0,-1,0,343.5)"/>
</g>
<path style=" stroke:none;fill-rule:nonzero;fill:rgb(100%,100%,100%);fill-opacity:1;" d="M 35.589844 248.953125 L 78.792969 248.953125 C 78.792969 248.953125 75.324219 70.019531 239.503906 122.652344 C 213.316406 87.039063 41.347656 45.539063 35.589844 248.953125 "/>
<path style=" stroke:none;fill-rule:nonzero;fill:rgb(100%,100%,100%);fill-opacity:1;" d="M 129.691406 177.660156 C 129.691406 175.261719 128.226563 174.601563 126.644531 174.445313 C 126.230469 174.40625 125.929688 174.136719 125.929688 173.515625 C 125.929688 172.972656 126.53125 172.894531 128.113281 172.894531 C 129.617188 172.894531 131.117188 173.128906 132.621094 173.128906 C 134.125 173.128906 135.628906 172.894531 137.132813 172.894531 C 137.960938 172.894531 138.222656 173.128906 138.222656 173.515625 C 138.222656 174.136719 137.585938 174.328125 137.210938 174.445313 C 135.742188 174.910156 135.402344 176.382813 135.402344 177.660156 L 135.402344 183.320313 C 135.402344 183.941406 128.824219 186.652344 123.976563 186.652344 C 116.269531 186.652344 110.671875 181.539063 110.671875 173.671875 C 110.671875 165.378906 116.683594 158.984375 124.164063 158.984375 C 128.675781 158.984375 131.945313 161.035156 132.472656 161.035156 C 133.410156 161.035156 133.074219 159.835938 134.203125 159.835938 C 134.464844 159.835938 134.578125 160.066406 134.613281 160.261719 L 135.214844 165.726563 C 135.292969 166.347656 135.441406 167.238281 135.441406 167.546875 C 135.441406 168.128906 135.253906 168.476563 134.878906 168.476563 C 134.425781 168.476563 134.011719 167.546875 133.863281 167.277344 C 130.554688 161.347656 127.886719 160.726563 125.027344 160.726563 C 118.789063 160.726563 116.757813 165.726563 116.757813 171.925781 C 116.757813 177.546875 118.261719 184.910156 124.691406 184.910156 C 128.035156 184.910156 129.691406 183.667969 129.691406 179.988281 L 129.691406 177.660156 "/>
<path style=" stroke:none;fill-rule:nonzero;fill:rgb(100%,100%,100%);fill-opacity:1;" d="M 141.757813 164.097656 C 141.757813 161.695313 140.480469 160.882813 138.898438 160.882813 C 138.410156 160.882813 138.109375 160.570313 138.109375 160.027344 C 138.109375 159.640625 138.375 159.332031 138.789063 159.332031 C 140.59375 159.332031 142.433594 159.640625 144.238281 159.640625 C 146.078125 159.640625 147.882813 159.332031 149.3125 159.332031 C 149.839844 159.332031 150.402344 159.332031 150.402344 159.953125 C 150.402344 160.570313 149.765625 160.765625 149.386719 160.882813 C 147.921875 161.347656 147.472656 162.820313 147.472656 164.097656 L 147.472656 180.878906 C 147.472656 183.824219 147.921875 184.171875 149.839844 184.171875 C 153.785156 184.171875 155.964844 182.933594 157.246094 181.652344 C 158.523438 180.375 158.9375 179.097656 159.875 179.097656 C 160.402344 179.097656 160.742188 179.792969 160.742188 180.644531 C 160.742188 183.824219 157.769531 186.304688 154.839844 186.304688 C 152.320313 186.304688 147.171875 185.992188 144.652344 185.992188 C 143.261719 185.992188 141.871094 186.304688 140.480469 186.304688 C 139.613281 186.304688 138.898438 186.304688 138.898438 185.683594 C 138.898438 185.0625 139.5 184.984375 140.328125 184.441406 C 141.605469 183.59375 141.757813 182.15625 141.757813 180.878906 L 141.757813 164.097656 "/>
<path style=" stroke:none;fill-rule:nonzero;fill:rgb(100%,100%,100%);fill-opacity:1;" d="M 164.160156 166.074219 C 164.160156 164.175781 163.972656 161.269531 162.394531 161.074219 C 161.230469 160.921875 160.4375 160.570313 160.4375 159.953125 C 160.4375 159.332031 161.078125 159.332031 161.832031 159.332031 C 164.726563 159.71875 167.617188 159.601563 170.515625 159.640625 C 173.40625 159.640625 176.304688 159.332031 179.195313 159.332031 C 180.0625 159.332031 180.8125 159.332031 180.8125 160.105469 C 180.8125 160.960938 180.664063 161.8125 180.664063 162.664063 C 180.664063 163.515625 180.8125 164.371094 180.8125 165.222656 C 180.8125 165.648438 180.699219 165.957031 180.136719 165.957031 C 179.535156 165.957031 179.421875 165.261719 179.386719 164.910156 C 179.121094 162.472656 178.03125 161.464844 173.632813 161.464844 L 171.191406 161.464844 C 170.136719 161.464844 169.875 161.8125 169.875 163.324219 L 169.875 170.105469 C 169.875 170.726563 170.515625 170.917969 172.019531 170.917969 C 174.195313 170.917969 175.851563 170.261719 176.453125 168.59375 C 176.867188 167.507813 177.015625 167.394531 177.394531 167.394531 C 177.957031 167.394531 177.957031 167.933594 177.957031 168.476563 C 177.957031 169.640625 177.808594 170.804688 177.808594 171.964844 C 177.808594 173.128906 177.957031 174.289063 177.957031 175.453125 C 177.957031 175.996094 177.957031 176.539063 177.242188 176.539063 C 176.679688 176.539063 176.679688 175.375 176.226563 174.601563 C 175.289063 173.011719 174.195313 172.777344 172.019531 172.777344 C 170.214844 172.777344 169.875 173.28125 169.875 174.253906 L 169.875 180.878906 C 169.875 183.746094 170.363281 184.171875 172.355469 184.171875 C 176.304688 184.171875 178.480469 182.933594 179.761719 181.652344 C 181.039063 180.375 181.414063 179.058594 182.015625 179.058594 C 182.46875 179.058594 182.617188 179.40625 182.617188 179.792969 C 182.617188 180.570313 182.316406 182.078125 182.054688 182.855469 C 181.566406 184.40625 179.871094 186.304688 178.105469 186.304688 C 175.589844 186.304688 173.070313 185.992188 170.550781 185.992188 C 168.03125 185.992188 165.515625 186.304688 162.996094 186.304688 C 161.832031 186.304688 161.265625 186.304688 161.265625 185.683594 C 161.265625 185.0625 162.019531 184.792969 162.695313 184.441406 C 163.9375 183.824219 164.160156 182.894531 164.160156 180.683594 L 164.160156 166.074219 "/>
<path style=" stroke:none;fill-rule:nonzero;fill:rgb(100%,100%,100%);fill-opacity:1;" d="M 191.378906 167.316406 C 190.585938 166.5 189.796875 165.765625 189.609375 165.765625 C 189.421875 165.765625 189.308594 165.882813 189.308594 166.8125 L 189.308594 180.644531 C 189.308594 182.546875 189.949219 183.980469 191.753906 184.5625 C 192.691406 184.871094 193.933594 184.792969 193.933594 185.527344 C 193.933594 186.304688 193.03125 186.304688 192.355469 186.304688 C 191.039063 186.304688 189.722656 185.992188 188.40625 185.992188 C 187.09375 185.992188 185.773438 186.304688 184.460938 186.304688 C 184.085938 186.304688 183.671875 186.304688 183.671875 185.683594 C 183.671875 185.0625 184.121094 184.871094 184.6875 184.5625 C 186.640625 183.476563 187.242188 182.351563 187.242188 180.222656 L 187.242188 165.609375 C 187.242188 164.136719 186.679688 162.007813 185.285156 161.308594 C 184.046875 160.6875 183.519531 160.570313 183.519531 159.953125 C 183.519531 159.332031 183.746094 159.332031 184.007813 159.332031 C 185.136719 159.332031 186.265625 159.484375 187.394531 159.484375 C 188.519531 159.484375 189.648438 159.332031 190.773438 159.332031 C 191.601563 159.332031 191.863281 159.449219 192.203125 159.835938 L 206.75 175.375 C 207.277344 175.917969 207.804688 176.421875 208.027344 176.421875 C 208.328125 176.421875 208.367188 175.878906 208.367188 175.335938 L 208.367188 166.539063 C 208.367188 163.980469 208.21875 161.617188 205.886719 161.074219 C 204.910156 160.84375 203.894531 160.570313 203.894531 159.953125 C 203.894531 159.332031 204.609375 159.332031 205.285156 159.332031 C 206.601563 159.332031 207.917969 159.640625 209.230469 159.640625 C 210.546875 159.640625 211.863281 159.332031 213.179688 159.332031 C 213.554688 159.332031 213.96875 159.332031 213.96875 159.953125 C 213.96875 160.570313 213.519531 160.765625 212.953125 161.074219 C 211 162.160156 210.4375 163.285156 210.4375 165.414063 L 210.4375 184.097656 C 210.4375 185.800781 210.285156 186.265625 209.835938 186.265625 C 209.421875 186.265625 208.441406 185.296875 207.503906 184.328125 L 191.378906 167.316406 "/>
<path style=" stroke:none;fill-rule:nonzero;fill:rgb(100%,100%,100%);fill-opacity:1;" d="M 224.042969 180.375 C 224.042969 183.707031 225.320313 184.25 228.441406 184.25 C 233.929688 184.25 236.675781 178.398438 236.675781 173.4375 C 236.675781 167.585938 233.816406 161.074219 226.976563 161.074219 C 224.605469 161.074219 224.042969 162.199219 224.042969 164.214844 Z M 218.328125 165.84375 C 218.328125 162.007813 217.765625 161.578125 216.484375 161.230469 C 215.097656 160.804688 214.644531 160.765625 214.644531 160.222656 C 214.644531 159.488281 215.132813 159.332031 216.074219 159.332031 C 217.914063 159.332031 219.757813 159.640625 221.597656 159.640625 C 223.441406 159.640625 225.28125 159.332031 227.125 159.332031 C 236.558594 159.332031 242.761719 162.9375 242.761719 172.082031 C 242.761719 181.539063 235.320313 186.304688 227.839844 186.304688 C 223.96875 186.304688 221.296875 185.992188 220.058594 185.992188 C 218.96875 185.992188 217.726563 186.304688 216.636719 186.304688 C 216 186.304688 215.472656 186.304688 215.472656 185.878906 C 215.472656 185.296875 216.1875 185.105469 216.824219 184.871094 C 218.253906 184.367188 218.328125 182.195313 218.328125 180.683594 L 218.328125 165.84375 "/>
<path style=" stroke:none;fill-rule:nonzero;fill:rgb(100%,100%,100%);fill-opacity:1;" d="M 248.550781 173.632813 C 248.285156 174.175781 248.136719 174.601563 248.136719 174.71875 C 248.136719 175.066406 248.773438 175.183594 249.714844 175.183594 L 253.773438 175.183594 C 254.976563 175.183594 255.429688 175.105469 255.429688 174.949219 C 255.429688 174.71875 255.164063 174.019531 254.863281 173.398438 L 252.308594 168.089844 C 252.046875 167.585938 251.894531 167.316406 251.632813 167.316406 C 251.40625 167.316406 251.105469 168.128906 251.03125 168.320313 Z M 252.871094 160.339844 C 253.359375 159.332031 253.550781 158.984375 253.886719 158.984375 C 254.035156 158.984375 254.265625 159.332031 254.488281 159.796875 L 263.886719 180.878906 C 264.5625 182.351563 265.089844 184.210938 266.519531 184.636719 C 267.53125 184.949219 268.097656 185.0625 268.097656 185.683594 C 268.097656 186.304688 267.722656 186.304688 267.121094 186.304688 C 265.316406 186.304688 263.511719 185.992188 261.855469 185.992188 C 260.203125 185.992188 258.398438 186.304688 256.59375 186.304688 C 256.066406 186.304688 255.84375 186.03125 255.84375 185.800781 C 255.84375 185.335938 256.257813 184.984375 256.820313 184.949219 C 257.796875 184.753906 258.398438 183.863281 258.398438 182.855469 C 258.398438 181.886719 257.269531 178.554688 256.707031 177.972656 C 256.21875 177.46875 255.503906 177.3125 253.660156 177.3125 L 247.910156 177.3125 C 245.992188 177.3125 244.941406 181.226563 244.941406 182.894531 C 244.941406 183.476563 245.878906 184.210938 246.671875 184.441406 C 247.722656 184.753906 249.113281 185.0625 249.113281 185.683594 C 249.113281 186.304688 248.699219 186.304688 248.097656 186.304688 C 246.820313 186.304688 245.542969 185.992188 244.265625 185.992188 C 242.984375 185.992188 241.707031 186.304688 240.429688 186.304688 C 239.902344 186.304688 239.453125 186.304688 239.453125 185.683594 C 239.453125 185.0625 240.394531 184.832031 240.917969 184.441406 C 241.558594 183.980469 241.859375 183.554688 242.160156 182.933594 L 252.871094 160.339844 "/>
<path style=" stroke:none;fill-rule:nonzero;fill:rgb(100%,100%,100%);fill-opacity:1;" d="M 272.230469 164.097656 C 272.230469 161.695313 270.953125 160.882813 269.375 160.882813 C 268.886719 160.882813 268.585938 160.570313 268.585938 160.027344 C 268.585938 159.640625 268.847656 159.332031 269.261719 159.332031 C 271.066406 159.332031 272.90625 159.640625 274.710938 159.640625 C 276.554688 159.640625 278.359375 159.332031 279.789063 159.332031 C 280.3125 159.332031 280.878906 159.332031 280.878906 159.953125 C 280.878906 160.570313 280.238281 160.765625 279.863281 160.882813 C 278.394531 161.347656 277.945313 162.820313 277.945313 164.097656 L 277.945313 180.878906 C 277.945313 183.824219 278.394531 184.171875 280.3125 184.171875 C 284.261719 184.171875 286.441406 182.933594 287.71875 181.652344 C 288.996094 180.375 289.410156 179.097656 290.351563 179.097656 C 290.878906 179.097656 291.214844 179.792969 291.214844 180.644531 C 291.214844 183.824219 288.246094 186.304688 285.3125 186.304688 C 282.796875 186.304688 277.644531 185.992188 275.125 185.992188 C 273.734375 185.992188 272.34375 186.304688 270.953125 186.304688 C 270.089844 186.304688 269.375 186.304688 269.375 185.683594 C 269.375 185.0625 269.976563 184.984375 270.804688 184.441406 C 272.082031 183.59375 272.230469 182.15625 272.230469 180.878906 L 272.230469 164.097656 "/>
<path style=" stroke:none;fill-rule:nonzero;fill:rgb(100%,100%,100%);fill-opacity:1;" d="M 294.636719 166.074219 C 294.636719 164.175781 294.445313 161.269531 292.867188 161.074219 C 291.703125 160.921875 290.914063 160.570313 290.914063 159.953125 C 290.914063 159.332031 291.554688 159.332031 292.304688 159.332031 C 295.199219 159.71875 298.09375 159.601563 300.988281 159.640625 C 303.882813 159.640625 306.777344 159.332031 309.671875 159.332031 C 310.535156 159.332031 311.285156 159.332031 311.285156 160.105469 C 311.285156 160.960938 311.136719 161.8125 311.136719 162.664063 C 311.136719 163.515625 311.285156 164.371094 311.285156 165.222656 C 311.285156 165.648438 311.175781 165.957031 310.609375 165.957031 C 310.007813 165.957031 309.894531 165.261719 309.859375 164.910156 C 309.597656 162.472656 308.503906 161.464844 304.109375 161.464844 L 301.664063 161.464844 C 300.613281 161.464844 300.347656 161.8125 300.347656 163.324219 L 300.347656 170.105469 C 300.347656 170.726563 300.988281 170.917969 302.492188 170.917969 C 304.671875 170.917969 306.324219 170.261719 306.925781 168.59375 C 307.339844 167.507813 307.488281 167.394531 307.867188 167.394531 C 308.429688 167.394531 308.429688 167.933594 308.429688 168.476563 C 308.429688 169.640625 308.28125 170.804688 308.28125 171.964844 C 308.28125 173.128906 308.429688 174.289063 308.429688 175.453125 C 308.429688 175.996094 308.429688 176.539063 307.71875 176.539063 C 307.152344 176.539063 307.152344 175.375 306.699219 174.601563 C 305.761719 173.011719 304.671875 172.777344 302.492188 172.777344 C 300.6875 172.777344 300.347656 173.28125 300.347656 174.253906 L 300.347656 180.878906 C 300.347656 183.746094 300.835938 184.171875 302.828125 184.171875 C 306.777344 184.171875 308.957031 182.933594 310.234375 181.652344 C 311.515625 180.375 311.890625 179.058594 312.488281 179.058594 C 312.941406 179.058594 313.09375 179.40625 313.09375 179.792969 C 313.09375 180.570313 312.789063 182.078125 312.527344 182.855469 C 312.039063 184.40625 310.347656 186.304688 308.582031 186.304688 C 306.0625 186.304688 303.542969 185.992188 301.023438 185.992188 C 298.507813 185.992188 295.988281 186.304688 293.46875 186.304688 C 292.304688 186.304688 291.742188 186.304688 291.742188 185.683594 C 291.742188 185.0625 292.492188 184.792969 293.167969 184.441406 C 294.410156 183.824219 294.636719 182.894531 294.636719 180.683594 L 294.636719 166.074219 "/>
<path style=" stroke:none;fill-rule:nonzero;fill:rgb(100%,100%,100%);fill-opacity:1;" d="M 121.679688 190.074219 C 127.664063 190.074219 129.316406 192.578125 130.238281 192.578125 C 130.496094 192.578125 130.6875 192.253906 131.003906 192.253906 C 131.355469 192.253906 131.355469 192.769531 131.449219 194.882813 C 131.511719 196.605469 131.800781 197.675781 131.257813 197.675781 C 130.878906 197.675781 130.652344 196.828125 130.527344 196.605469 C 128.554688 193.128906 126.292969 191.019531 122.191406 191.019531 C 115.984375 191.019531 112.992188 195.238281 112.992188 201.277344 C 112.992188 206.929688 116.175781 212.578125 122.285156 212.578125 C 127.28125 212.578125 130.398438 209.332031 130.878906 207.835938 C 130.941406 207.609375 131.132813 207.414063 131.320313 207.414063 C 131.480469 207.414063 131.640625 207.609375 131.609375 207.773438 L 130.878906 211.019531 C 130.84375 211.148438 128.585938 213.585938 121.425781 213.585938 C 114.902344 213.585938 110.226563 209.007813 110.226563 202.285156 C 110.226563 195.5625 114.96875 190.074219 121.679688 190.074219 "/>
<path style=" stroke:none;fill-rule:nonzero;fill:rgb(100%,100%,100%);fill-opacity:1;" d="M 135.523438 200.792969 C 135.523438 206.800781 139.371094 212.609375 145.671875 212.609375 C 150.320313 212.609375 154.042969 208.8125 154.042969 202.804688 C 154.042969 196.894531 150.128906 191.148438 143.921875 191.148438 C 138.578125 191.148438 135.523438 195.660156 135.523438 200.792969 Z M 133.199219 201.734375 C 133.199219 194.980469 138.355469 190.074219 144.878906 190.074219 C 151.367188 190.074219 156.363281 194.851563 156.363281 201.570313 C 156.363281 208.878906 151.433594 213.585938 144.335938 213.585938 C 137.429688 213.585938 133.199219 208.585938 133.199219 201.734375 "/>
<path style=" stroke:none;fill-rule:nonzero;fill:rgb(100%,100%,100%);fill-opacity:1;" d="M 181.789063 210.371094 C 181.945313 213.097656 184.300781 211.894531 184.300781 213.03125 C 184.300781 213.355469 183.890625 213.355469 183.539063 213.355469 C 182.933594 213.355469 181.820313 213.226563 180.546875 213.226563 C 179.5625 213.226563 178.542969 213.355469 177.746094 213.355469 C 177.460938 213.355469 177.398438 213.195313 177.398438 213.066406 C 177.398438 212.089844 179.402344 212.804688 179.371094 210.402344 L 179.050781 197.804688 C 179.050781 196.992188 178.894531 196.539063 178.699219 196.539063 C 178.480469 196.539063 178.191406 196.828125 177.875 197.511719 L 171.289063 211.214844 C 171.128906 211.507813 170.617188 212.839844 170.300781 212.839844 C 169.984375 212.839844 169.761719 212.125 169.664063 211.894531 L 162.886719 197.414063 C 162.792969 197.15625 162.632813 197.058594 162.503906 197.058594 C 162.410156 197.058594 162.3125 197.21875 162.28125 197.546875 L 161.898438 208.941406 C 161.742188 213.261719 164.765625 211.832031 164.765625 213 C 164.765625 213.324219 164.414063 213.355469 163.96875 213.355469 C 163.554688 213.355469 162.125 213.226563 161.167969 213.226563 C 159.515625 213.226563 158.972656 213.355469 158.398438 213.355469 C 158.179688 213.355469 158.082031 213.195313 158.082031 212.96875 C 158.082031 211.863281 160.117188 213.195313 160.34375 209.816406 C 160.722656 204.527344 161.105469 201.085938 161.105469 197.644531 C 161.105469 190.011719 158.082031 191.832031 158.082031 190.726563 C 158.082031 190.433594 158.335938 190.367188 158.621094 190.367188 C 159.195313 190.367188 159.769531 190.5 160.375 190.5 C 160.945313 190.5 161.519531 190.367188 162.09375 190.367188 C 162.535156 190.367188 162.601563 190.921875 162.761719 191.277344 L 170.332031 207.773438 C 170.683594 208.453125 170.808594 208.746094 171.03125 208.746094 C 171.191406 208.746094 171.511719 208.066406 172.019531 206.992188 L 179.59375 191.472656 C 179.78125 191.113281 180.039063 190.335938 180.421875 190.367188 C 180.738281 190.367188 181.757813 190.5 181.914063 190.5 C 182.648438 190.5 182.933594 190.367188 183.441406 190.367188 C 183.632813 190.367188 183.761719 190.5625 183.761719 190.757813 C 183.761719 191.796875 181.214844 190.402344 181.34375 194.265625 L 181.789063 210.371094 "/>
<path style=" stroke:none;fill-rule:nonzero;fill:rgb(100%,100%,100%);fill-opacity:1;" d="M 210.074219 210.371094 C 210.234375 213.097656 212.589844 211.894531 212.589844 213.03125 C 212.589844 213.355469 212.175781 213.355469 211.824219 213.355469 C 211.222656 213.355469 210.105469 213.226563 208.835938 213.226563 C 207.847656 213.226563 206.828125 213.355469 206.035156 213.355469 C 205.746094 213.355469 205.683594 213.195313 205.683594 213.066406 C 205.683594 212.089844 207.6875 212.804688 207.65625 210.402344 L 207.339844 197.804688 C 207.339844 196.992188 207.179688 196.539063 206.988281 196.539063 C 206.765625 196.539063 206.480469 196.828125 206.160156 197.511719 L 199.574219 211.214844 C 199.414063 211.507813 198.90625 212.839844 198.589844 212.839844 C 198.269531 212.839844 198.046875 212.125 197.953125 211.894531 L 191.175781 197.414063 C 191.078125 197.15625 190.921875 197.058594 190.792969 197.058594 C 190.695313 197.058594 190.601563 197.21875 190.570313 197.546875 L 190.1875 208.941406 C 190.027344 213.261719 193.050781 211.832031 193.050781 213 C 193.050781 213.324219 192.703125 213.355469 192.257813 213.355469 C 191.84375 213.355469 190.410156 213.226563 189.457031 213.226563 C 187.800781 213.226563 187.261719 213.355469 186.6875 213.355469 C 186.464844 213.355469 186.367188 213.195313 186.367188 212.96875 C 186.367188 211.863281 188.40625 213.195313 188.628906 209.816406 C 189.011719 204.527344 189.394531 201.085938 189.394531 197.644531 C 189.394531 190.011719 186.367188 191.832031 186.367188 190.726563 C 186.367188 190.433594 186.625 190.367188 186.910156 190.367188 C 187.484375 190.367188 188.058594 190.5 188.660156 190.5 C 189.234375 190.5 189.808594 190.367188 190.378906 190.367188 C 190.824219 190.367188 190.890625 190.921875 191.046875 191.277344 L 198.621094 207.773438 C 198.96875 208.453125 199.097656 208.746094 199.320313 208.746094 C 199.480469 208.746094 199.796875 208.066406 200.308594 206.992188 L 207.878906 191.472656 C 208.070313 191.113281 208.324219 190.335938 208.707031 190.367188 C 209.023438 190.367188 210.042969 190.5 210.203125 190.5 C 210.933594 190.5 211.222656 190.367188 211.730469 190.367188 C 211.921875 190.367188 212.046875 190.5625 212.046875 190.757813 C 212.046875 191.796875 209.503906 190.402344 209.628906 194.265625 L 210.074219 210.371094 "/>
<path style=" stroke:none;fill-rule:nonzero;fill:rgb(100%,100%,100%);fill-opacity:1;" d="M 219.113281 204.6875 C 219.113281 209.882813 222.421875 212.253906 226.71875 212.253906 C 232.699219 212.253906 234.066406 208.226563 234.066406 204.394531 L 234.066406 193.875 C 234.066406 190.5625 231.109375 191.929688 231.109375 190.695313 C 231.109375 190.53125 231.332031 190.367188 231.425781 190.367188 C 232.667969 190.367188 233.910156 190.5 235.148438 190.5 C 235.753906 190.5 236.328125 190.367188 236.898438 190.367188 C 237.058594 190.367188 237.3125 190.53125 237.3125 190.726563 C 237.3125 191.636719 235.4375 190.921875 235.4375 193.90625 L 235.4375 203.972656 C 235.4375 205.5625 235.816406 213.585938 226.558594 213.585938 C 218.1875 213.585938 216.597656 208.8125 216.597656 203.8125 L 216.597656 192.867188 C 216.597656 190.953125 214.019531 191.730469 214.019531 190.695313 C 214.019531 190.464844 214.5625 190.367188 214.722656 190.367188 C 215.550781 190.367188 216.34375 190.5 217.203125 190.5 C 218.222656 190.5 219.238281 190.367188 220.226563 190.367188 C 220.386719 190.367188 221.246094 190.304688 221.246094 190.695313 C 221.246094 191.601563 219.113281 190.695313 219.113281 193.03125 L 219.113281 204.6875 "/>
<path style=" stroke:none;fill-rule:nonzero;fill:rgb(100%,100%,100%);fill-opacity:1;" d="M 242.148438 196.765625 C 242.148438 190.011719 238.300781 191.894531 238.300781 190.695313 C 238.300781 190.5 238.617188 190.367188 238.777344 190.367188 C 239.285156 190.367188 239.765625 190.5 240.273438 190.5 C 240.75 190.5 241.257813 190.367188 241.734375 190.367188 C 242.085938 190.367188 242.371094 190.890625 242.5625 191.113281 L 257.742188 208.355469 C 257.933594 208.585938 258.0625 208.714844 258.125 208.714844 C 258.1875 208.714844 258.21875 208.617188 258.21875 208.355469 L 258.21875 194.785156 C 258.21875 190.53125 254.6875 191.765625 254.6875 190.695313 C 254.6875 190.464844 254.847656 190.367188 255.039063 190.367188 C 255.992188 190.367188 256.914063 190.5 257.933594 190.5 C 259.015625 190.5 260.382813 190.367188 261.148438 190.367188 C 261.339844 190.367188 261.464844 190.464844 261.464844 190.660156 C 261.464844 191.507813 259.589844 190.921875 259.589844 193.289063 L 259.589844 212.089844 C 259.589844 213.03125 259.554688 213.488281 259.300781 213.488281 C 259.078125 213.488281 258.761719 213.324219 258.09375 212.578125 L 244.410156 196.863281 C 244.347656 196.796875 243.964844 196.246094 243.742188 196.246094 C 243.613281 196.246094 243.519531 196.34375 243.519531 196.992188 L 243.519531 210.273438 C 243.519531 213.195313 246.320313 212.058594 246.320313 212.9375 C 246.320313 213.097656 246.285156 213.355469 245.96875 213.355469 C 245.203125 213.355469 244.3125 213.226563 242.757813 213.226563 C 241.640625 213.226563 239.984375 213.355469 239.765625 213.355469 C 239.382813 213.355469 239.351563 213.164063 239.351563 213 C 239.351563 211.863281 242.148438 213.292969 242.148438 208.746094 L 242.148438 196.765625 "/>
<path style=" stroke:none;fill-rule:nonzero;fill:rgb(100%,100%,100%);fill-opacity:1;" d="M 267.160156 193.160156 C 267.128906 190.789063 264.585938 191.441406 264.585938 190.726563 C 264.585938 190.433594 264.648438 190.367188 264.902344 190.367188 C 266.078125 190.367188 267.226563 190.5 268.402344 190.5 C 269.390625 190.5 270.375 190.367188 271.359375 190.367188 C 271.871094 190.367188 271.964844 190.433594 271.964844 190.695313 C 271.964844 191.472656 269.675781 190.726563 269.675781 193.160156 L 269.675781 210.597656 C 269.675781 212.804688 272.507813 212.058594 272.507813 213.03125 C 272.507813 213.261719 272.410156 213.355469 271.871094 213.355469 C 271.140625 213.355469 269.769531 213.226563 268.402344 213.226563 C 266.460938 213.226563 265.792969 213.355469 265.347656 213.355469 C 264.773438 213.355469 264.679688 213.195313 264.679688 212.871094 C 264.679688 211.929688 267.160156 213 267.160156 209.785156 L 267.160156 193.160156 "/>
<path style=" stroke:none;fill-rule:nonzero;fill:rgb(100%,100%,100%);fill-opacity:1;" d="M 283.136719 193.648438 C 283.136719 193.421875 283.261719 192.1875 282.816406 192.15625 L 277.628906 192.15625 C 275.65625 192.15625 275.59375 192.640625 275.019531 194.429688 C 274.925781 194.753906 274.894531 195.175781 274.480469 195.175781 C 274.289063 195.175781 274.160156 194.945313 274.160156 194.785156 L 274.511719 191.636719 C 274.542969 191.246094 274.511719 190.367188 275.085938 190.367188 C 277.566406 190.367188 280.015625 190.5 284.121094 190.5 C 289.878906 190.5 292.808594 190.367188 293.441406 190.367188 C 294.175781 190.367188 294.335938 190.5625 294.367188 191.3125 L 294.527344 193.90625 C 294.558594 194.234375 294.589844 194.621094 294.175781 194.621094 C 293 194.621094 294.714844 192.15625 291.472656 192.15625 L 286.921875 192.15625 C 285.488281 192.15625 285.648438 192.023438 285.648438 193.746094 L 285.648438 210.304688 C 285.648438 213.03125 288.226563 211.960938 288.226563 212.96875 C 288.226563 213.066406 288.257813 213.355469 287.9375 213.355469 C 287.175781 213.355469 286.285156 213.226563 285.359375 213.226563 C 281.796875 213.226563 281.191406 213.355469 281.003906 213.355469 C 280.71875 213.355469 280.621094 213.261719 280.621094 212.9375 C 280.621094 212.15625 283.136719 212.480469 283.136719 210.53125 L 283.136719 193.648438 "/>
<path style=" stroke:none;fill-rule:nonzero;fill:rgb(100%,100%,100%);fill-opacity:1;" d="M 297.707031 192.414063 C 296.882813 191.019531 295.320313 191.40625 295.320313 190.855469 C 295.320313 190.628906 295.511719 190.367188 295.734375 190.367188 C 296.59375 190.367188 297.199219 190.5 299.363281 190.5 C 300.410156 190.5 301.269531 190.367188 301.589844 190.367188 C 301.8125 190.367188 302.195313 190.402344 302.195313 190.695313 C 302.195313 191.246094 300.699219 191.277344 300.699219 192.222656 C 300.699219 192.738281 301.082031 193.257813 301.269531 193.550781 L 305.121094 199.816406 C 305.375 200.207031 305.566406 200.402344 305.757813 200.402344 C 305.917969 200.402344 306.109375 200.175781 306.363281 199.753906 L 309.640625 194.328125 C 309.863281 193.972656 310.308594 193.421875 310.308594 192.546875 C 310.308594 190.953125 307.921875 191.636719 307.921875 190.855469 C 307.921875 190.433594 308.238281 190.367188 308.589844 190.367188 C 309.355469 190.367188 310.148438 190.5 310.914063 190.5 C 311.835938 190.5 312.757813 190.367188 313.683594 190.367188 C 313.871094 190.367188 314.03125 190.597656 314.03125 190.757813 C 314.03125 191.113281 313.488281 191.246094 313.269531 191.375 C 312.40625 191.894531 311.996094 192.804688 311.484375 193.617188 L 307.03125 200.695313 C 306.523438 201.507813 306.269531 201.667969 306.269531 202.15625 L 306.269531 210.109375 C 306.269531 212.9375 308.878906 212.023438 308.878906 213.03125 C 308.878906 213.324219 308.589844 213.355469 308.144531 213.355469 C 307.667969 213.355469 305.820313 213.226563 304.644531 213.226563 C 303.214844 213.226563 302.066406 213.355469 301.78125 213.355469 C 301.496094 213.355469 301.304688 213.324219 301.304688 212.96875 C 301.304688 212.058594 303.753906 212.902344 303.753906 210.597656 L 303.753906 202.738281 C 303.753906 202.121094 303.277344 201.472656 303.019531 201.085938 L 297.707031 192.414063 "/>
<path style=" stroke:none;fill-rule:nonzero;fill:rgb(100%,100%,100%);fill-opacity:1;" d="M 138.445313 225.089844 C 138.53125 225.921875 138.742188 226.847656 138.742188 227.375 C 138.742188 227.859375 138.53125 228.429688 138.105469 228.429688 C 137.59375 228.429688 137.121094 227.375 136.953125 227.066406 C 134.265625 222.183594 130.636719 219.632813 126.925781 219.632813 C 121.503906 219.632813 117.535156 222.800781 117.535156 232.390625 C 117.535156 239.164063 121.71875 245.542969 127.480469 245.542969 C 131.0625 245.542969 134.390625 243.652344 136.652344 241.320313 C 137.164063 240.792969 137.804688 239.914063 138.488281 239.914063 C 138.828125 239.914063 138.957031 240.132813 138.957031 240.527344 C 138.957031 241.847656 134.347656 249.0625 125.386719 249.0625 C 118.21875 249.0625 110.625 243.738281 110.625 234.371094 C 110.625 222.097656 118.605469 217.652344 125.941406 217.652344 C 130.636719 217.652344 134.222656 219.984375 135.371094 219.984375 C 136.441406 219.984375 136.054688 218.621094 137.25 218.621094 C 137.636719 218.621094 137.761719 218.886719 137.804688 219.105469 L 138.445313 225.089844 "/>
<path style=" stroke:none;fill-rule:nonzero;fill:rgb(100%,100%,100%);fill-opacity:1;" d="M 158.882813 247.082031 C 163.917969 247.082031 167.460938 241.539063 167.460938 235.25 C 167.460938 229.265625 163.960938 219.632813 157.132813 219.632813 C 152.101563 219.632813 148.558594 225.175781 148.558594 231.464844 C 148.558594 237.449219 152.058594 247.082031 158.882813 247.082031 Z M 158.757813 217.652344 C 167.503906 217.652344 174.375 223.503906 174.375 232.828125 C 174.375 242.726563 165.753906 249.0625 156.878906 249.0625 C 148.132813 249.0625 141.644531 243.078125 141.644531 234.148438 C 141.644531 224.691406 149.878906 217.652344 158.757813 217.652344 "/>
<path style=" stroke:none;fill-rule:nonzero;fill:rgb(100%,100%,100%);fill-opacity:1;" d="M 180.132813 223.460938 C 180.132813 220.730469 178.683594 219.808594 176.890625 219.808594 C 176.335938 219.808594 175.996094 219.457031 175.996094 218.839844 C 175.996094 218.402344 176.292969 218.050781 176.761719 218.050781 C 178.8125 218.050781 180.902344 218.402344 182.949219 218.402344 C 185.039063 218.402344 187.089844 218.050781 188.710938 218.050781 C 189.308594 218.050781 189.945313 218.050781 189.945313 218.753906 C 189.945313 219.457031 189.222656 219.675781 188.796875 219.808594 C 187.132813 220.335938 186.617188 222.007813 186.617188 223.460938 L 186.617188 242.507813 C 186.617188 245.851563 187.132813 246.246094 189.308594 246.246094 C 193.789063 246.246094 196.265625 244.839844 197.714844 243.386719 C 199.164063 241.9375 199.632813 240.484375 200.699219 240.484375 C 201.296875 240.484375 201.683594 241.277344 201.683594 242.242188 C 201.683594 245.851563 198.3125 248.664063 194.984375 248.664063 C 192.125 248.664063 186.277344 248.3125 183.417969 248.3125 C 181.839844 248.3125 180.261719 248.664063 178.683594 248.664063 C 177.699219 248.664063 176.890625 248.664063 176.890625 247.964844 C 176.890625 247.257813 177.574219 247.171875 178.511719 246.554688 C 179.964844 245.589844 180.132813 243.960938 180.132813 242.507813 L 180.132813 223.460938 "/>
<path style=" stroke:none;fill-rule:nonzero;fill:rgb(100%,100%,100%);fill-opacity:1;" d="M 206.203125 223.460938 C 206.203125 220.730469 204.753906 219.808594 202.960938 219.808594 C 202.40625 219.808594 202.066406 219.457031 202.066406 218.839844 C 202.066406 218.402344 202.363281 218.050781 202.835938 218.050781 C 204.882813 218.050781 206.972656 218.402344 209.019531 218.402344 C 211.113281 218.402344 213.160156 218.050781 214.78125 218.050781 C 215.378906 218.050781 216.019531 218.050781 216.019531 218.753906 C 216.019531 219.457031 215.292969 219.675781 214.867188 219.808594 C 213.203125 220.335938 212.691406 222.007813 212.691406 223.460938 L 212.691406 242.507813 C 212.691406 245.851563 213.203125 246.246094 215.378906 246.246094 C 219.859375 246.246094 222.335938 244.839844 223.785156 243.386719 C 225.234375 241.9375 225.703125 240.484375 226.773438 240.484375 C 227.367188 240.484375 227.753906 241.277344 227.753906 242.242188 C 227.753906 245.851563 224.382813 248.664063 221.054688 248.664063 C 218.195313 248.664063 212.351563 248.3125 209.488281 248.3125 C 207.910156 248.3125 206.332031 248.664063 204.753906 248.664063 C 203.773438 248.664063 202.960938 248.664063 202.960938 247.964844 C 202.960938 247.257813 203.644531 247.171875 204.585938 246.554688 C 206.035156 245.589844 206.203125 243.960938 206.203125 242.507813 L 206.203125 223.460938 "/>
<path style=" stroke:none;fill-rule:nonzero;fill:rgb(100%,100%,100%);fill-opacity:1;" d="M 232.488281 225.703125 C 232.488281 223.546875 232.277344 220.246094 230.484375 220.027344 C 229.160156 219.851563 228.265625 219.457031 228.265625 218.753906 C 228.265625 218.050781 228.992188 218.050781 229.84375 218.050781 C 233.128906 218.488281 236.414063 218.355469 239.699219 218.402344 C 242.984375 218.402344 246.273438 218.050781 249.558594 218.050781 C 250.539063 218.050781 251.394531 218.050781 251.394531 218.929688 C 251.394531 219.894531 251.222656 220.863281 251.222656 221.832031 C 251.222656 222.800781 251.394531 223.769531 251.394531 224.734375 C 251.394531 225.21875 251.265625 225.570313 250.625 225.570313 C 249.941406 225.570313 249.8125 224.777344 249.769531 224.382813 C 249.472656 221.613281 248.234375 220.46875 243.242188 220.46875 L 240.46875 220.46875 C 239.273438 220.46875 238.976563 220.863281 238.976563 222.578125 L 238.976563 230.277344 C 238.976563 230.980469 239.699219 231.203125 241.40625 231.203125 C 243.882813 231.203125 245.761719 230.453125 246.441406 228.5625 C 246.910156 227.332031 247.082031 227.199219 247.511719 227.199219 C 248.148438 227.199219 248.148438 227.8125 248.148438 228.433594 C 248.148438 229.75 247.980469 231.070313 247.980469 232.390625 C 247.980469 233.710938 248.148438 235.027344 248.148438 236.351563 C 248.148438 236.964844 248.148438 237.582031 247.339844 237.582031 C 246.699219 237.582031 246.699219 236.261719 246.1875 235.382813 C 245.121094 233.578125 243.882813 233.3125 241.40625 233.3125 C 239.359375 233.3125 238.976563 233.886719 238.976563 234.984375 L 238.976563 242.507813 C 238.976563 245.765625 239.53125 246.246094 241.792969 246.246094 C 246.273438 246.246094 248.746094 244.839844 250.199219 243.386719 C 251.648438 241.9375 252.074219 240.441406 252.757813 240.441406 C 253.269531 240.441406 253.441406 240.835938 253.441406 241.277344 C 253.441406 242.15625 253.101563 243.871094 252.800781 244.75 C 252.246094 246.511719 250.324219 248.664063 248.320313 248.664063 C 245.460938 248.664063 242.601563 248.3125 239.742188 248.3125 C 236.886719 248.3125 234.027344 248.664063 231.167969 248.664063 C 229.84375 248.664063 229.203125 248.664063 229.203125 247.964844 C 229.203125 247.257813 230.058594 246.949219 230.824219 246.554688 C 232.234375 245.851563 232.488281 244.796875 232.488281 242.289063 L 232.488281 225.703125 "/>
<path style=" stroke:none;fill-rule:nonzero;fill:rgb(100%,100%,100%);fill-opacity:1;" d="M 276.996094 238.855469 C 276.996094 236.128906 275.332031 235.382813 273.539063 235.207031 C 273.070313 235.160156 272.726563 234.855469 272.726563 234.148438 C 272.726563 233.53125 273.410156 233.445313 275.203125 233.445313 C 276.910156 233.445313 278.617188 233.710938 280.324219 233.710938 C 282.03125 233.710938 283.738281 233.445313 285.445313 233.445313 C 286.382813 233.445313 286.683594 233.710938 286.683594 234.148438 C 286.683594 234.855469 285.957031 235.074219 285.527344 235.207031 C 283.863281 235.734375 283.480469 237.40625 283.480469 238.855469 L 283.480469 245.277344 C 283.480469 245.984375 276.015625 249.0625 270.511719 249.0625 C 261.761719 249.0625 255.402344 243.257813 255.402344 234.324219 C 255.402344 224.910156 262.230469 217.652344 270.722656 217.652344 C 275.84375 217.652344 279.554688 219.984375 280.152344 219.984375 C 281.21875 219.984375 280.835938 218.621094 282.117188 218.621094 C 282.414063 218.621094 282.542969 218.886719 282.585938 219.105469 L 283.269531 225.308594 C 283.355469 226.011719 283.523438 227.023438 283.523438 227.375 C 283.523438 228.035156 283.3125 228.429688 282.882813 228.429688 C 282.371094 228.429688 281.902344 227.375 281.730469 227.066406 C 277.976563 220.335938 274.945313 219.632813 271.703125 219.632813 C 264.621094 219.632813 262.316406 225.308594 262.316406 232.347656 C 262.316406 238.726563 264.023438 247.082031 271.320313 247.082031 C 275.117188 247.082031 276.996094 245.675781 276.996094 241.496094 L 276.996094 238.855469 "/>
<path style=" stroke:none;fill-rule:nonzero;fill:rgb(100%,100%,100%);fill-opacity:1;" d="M 291.757813 225.703125 C 291.757813 223.546875 291.546875 220.246094 289.753906 220.027344 C 288.429688 219.851563 287.535156 219.457031 287.535156 218.753906 C 287.535156 218.050781 288.261719 218.050781 289.113281 218.050781 C 292.398438 218.488281 295.683594 218.355469 298.972656 218.402344 C 302.257813 218.402344 305.542969 218.050781 308.828125 218.050781 C 309.808594 218.050781 310.660156 218.050781 310.660156 218.929688 C 310.660156 219.894531 310.492188 220.863281 310.492188 221.832031 C 310.492188 222.800781 310.660156 223.769531 310.660156 224.734375 C 310.660156 225.21875 310.535156 225.570313 309.894531 225.570313 C 309.210938 225.570313 309.082031 224.777344 309.039063 224.382813 C 308.742188 221.613281 307.503906 220.46875 302.511719 220.46875 L 299.738281 220.46875 C 298.542969 220.46875 298.246094 220.863281 298.246094 222.578125 L 298.246094 230.277344 C 298.246094 230.980469 298.972656 231.203125 300.679688 231.203125 C 303.152344 231.203125 305.027344 230.453125 305.714844 228.5625 C 306.183594 227.332031 306.351563 227.199219 306.777344 227.199219 C 307.417969 227.199219 307.417969 227.8125 307.417969 228.433594 C 307.417969 229.75 307.246094 231.070313 307.246094 232.390625 C 307.246094 233.710938 307.417969 235.027344 307.417969 236.351563 C 307.417969 236.964844 307.417969 237.582031 306.609375 237.582031 C 305.96875 237.582031 305.96875 236.261719 305.457031 235.382813 C 304.390625 233.578125 303.152344 233.3125 300.679688 233.3125 C 298.628906 233.3125 298.246094 233.886719 298.246094 234.984375 L 298.246094 242.507813 C 298.246094 245.765625 298.800781 246.246094 301.0625 246.246094 C 305.542969 246.246094 308.015625 244.839844 309.46875 243.386719 C 310.917969 241.9375 311.34375 240.441406 312.027344 240.441406 C 312.539063 240.441406 312.710938 240.835938 312.710938 241.277344 C 312.710938 242.15625 312.367188 243.871094 312.070313 244.75 C 311.515625 246.511719 309.597656 248.664063 307.589844 248.664063 C 304.730469 248.664063 301.871094 248.3125 299.015625 248.3125 C 296.152344 248.3125 293.296875 248.664063 290.4375 248.664063 C 289.113281 248.664063 288.472656 248.664063 288.472656 247.964844 C 288.472656 247.257813 289.328125 246.949219 290.09375 246.554688 C 291.503906 245.851563 291.757813 244.796875 291.757813 242.289063 L 291.757813 225.703125 "/>
</g>
</svg>
