<?xml version="1.0" encoding="UTF-8" standalone="no"?>
<!-- Created with Inkscape (http://www.inkscape.org/) -->

<svg
   xmlns:dc="http://purl.org/dc/elements/1.1/"
   xmlns:cc="http://creativecommons.org/ns#"
   xmlns:rdf="http://www.w3.org/1999/02/22-rdf-syntax-ns#"
   xmlns:svg="http://www.w3.org/2000/svg"
   xmlns="http://www.w3.org/2000/svg"
   xmlns:sodipodi="http://sodipodi.sourceforge.net/DTD/sodipodi-0.dtd"
   xmlns:inkscape="http://www.inkscape.org/namespaces/inkscape"
   version="1.1"
   width="393"
   height="94.064232"
   id="svg2816"
   xml:space="preserve"
   inkscape:version="0.47 r22583"
   sodipodi:docname="Grossmont_College.svg"><metadata
     id="metadata6177"><rdf:RDF><cc:Work
         rdf:about=""><dc:format>image/svg+xml</dc:format><dc:type
           rdf:resource="http://purl.org/dc/dcmitype/StillImage" /></cc:Work></rdf:RDF></metadata><sodipodi:namedview
     pagecolor="#ffffff"
     bordercolor="#666666"
     borderopacity="1"
     objecttolerance="10"
     gridtolerance="10"
     guidetolerance="10"
     inkscape:pageopacity="0"
     inkscape:pageshadow="2"
     inkscape:window-width="640"
     inkscape:window-height="481"
     id="namedview6175"
     showgrid="false"
     inkscape:zoom="1.35"
     inkscape:cx="197.5"
     inkscape:cy="47.032117"
     inkscape:window-x="0"
     inkscape:window-y="0"
     inkscape:window-maximized="0"
     inkscape:current-layer="svg2816" /><defs
     id="defs2820"><inkscape:perspective
       sodipodi:type="inkscape:persp3d"
       inkscape:vp_x="0 : 50 : 1"
       inkscape:vp_y="0 : 1000 : 0"
       inkscape:vp_z="400 : 50 : 1"
       inkscape:persp3d-origin="200 : 33.333333 : 1"
       id="perspective6179" /><clipPath
       id="clipPath2926"><path
         d="m 86.4,481.62 0,225 169.92,0 0,-225"
         id="path2928" /></clipPath></defs><g
     transform="matrix(0,1.25,1.25,0,-703.92875,-188.30412)"
     id="g2826"><g
       transform="matrix(0.95133294,0,0,0.95133294,8.7348666,29.30918)"
       id="g3080"><path
         d="m 228.269,594.053 -26.646,-32.91 -52.455,0 0,65.82 52.455,0 26.646,-32.91"
         id="path2918"
         style="fill:#006269;fill-opacity:1;fill-rule:nonzero;stroke:none" /><path
         d="m 154.246,620.323 0,-54.102 43.554,0 -43.554,54.102"
         id="path2920"
         style="fill:#ffffff;fill-opacity:1;fill-rule:nonzero;stroke:none" /><g
         id="g2922"><g
           clip-path="url(#clipPath2926)"
           id="g2924"><path
             d="m 191.056,592.087 c 0.279,-0.482 0.479,-2.002 0.399,-2.743 -0.12,-1.112 -1.641,-2.28 -1.202,-3.355 0.439,-1.075 1.806,-1.288 2.679,-0.648 -1.203,0.08 -1.539,0.699 0.04,2.335 0.758,0.037 1.397,0.964 1.077,1.668 0.44,0.148 0.719,0.259 0.919,-0.074 0.039,0.667 -0.719,1.297 -1.238,1.297 0.08,1.297 0.88,1.627 0.959,2.368 0.08,0.741 -0.361,0.985 -0.799,1.112 -0.439,-0.816 -1.836,-1.998 -2.834,-1.96 z m 1.597,15.971 c -0.839,-0.983 0,-3.335 1.477,-4.114 1.232,-0.649 2.377,0.169 2.794,-0.185 1.397,-1.186 0.119,-2.854 1.077,-3.854 0.574,-0.6 2.196,-0.927 2.834,0.63 -1.037,-0.297 -1.796,-0.26 -1.077,1.593 0.718,1.854 -0.559,2.558 -0.759,2.706 0.2,0.296 1.158,0.259 1.517,-0.037 -0.279,0.63 -0.678,1.371 -1.477,1.371 -0.678,0 -0.836,-0.619 -1.277,-0.556 -1.038,0.148 -0.53,2.538 -1.357,2.706 -1.278,0.259 -1.517,-1.26 -2.275,-1.26 -0.759,0 -1.278,0.519 -1.477,1 z m -7.784,2.242 c 0.639,0.018 1.716,0.722 2.594,2.372 -0.359,-1.557 -0.437,-3.247 0.46,-3.484 0.139,0.89 1.237,2.761 2.075,3.206 0.06,1.112 -0.525,2.389 -1.776,2.316 -1.916,-0.111 -2.204,-3.228 -3.442,-3.265 -0.921,-0.028 -1.313,0.922 -0.869,1.672 0.639,-0.593 1.277,-0.408 1.716,0 -1.118,0.481 -1.082,1.914 1.034,3.137 -1.757,0.26 -4.107,-0.896 -4.067,-3.416 0.04,-2.52 1.675,-2.555 2.275,-2.538 z m 10.79,-10.911 c 0.087,-0.438 0.095,-0.891 0,-1.364 l 0,1.364 z m 0.001,13.876 c 0.279,1.135 0.888,2.084 1.41,1.989 -0.839,-2.78 2.687,-3.249 3.06,-1.656 -0.439,-0.062 -0.839,-0.407 -1.278,0.309 -0.439,0.717 0.905,2.965 -0.372,4.151 0.2,0.371 0.718,0.223 1.197,0.21 -1.117,1.483 -2.914,0.63 -2.674,-0.457 -0.341,-0.236 -0.817,-0.524 -1.344,-0.795 l 0.001,0 c -0.766,-0.393 -1.638,-0.75 -2.356,-0.86 0.267,-1.001 0.373,-2.434 0.067,-3.151 -1.783,-0.593 -3.154,-0.914 -4.431,-3.224 -1.277,-2.31 -0.745,-5.362 0.266,-7.017 -2.342,0.531 -0.705,4.966 -3.193,5.275 0.333,-0.815 0.266,-2.681 -0.439,-3.682 -0.665,1.495 1.33,4.275 -2.621,5.214 0.199,-1.557 0.239,-3.126 -0.399,-3.719 -0.945,1.841 1.516,6.672 -3.513,11.416 2.515,-5.078 0.293,-10.539 0.359,-14.159 0.067,-3.619 4.068,-3.399 5.612,-2.991 1.543,0.407 2.749,0.213 2.749,-0.38 0,-0.593 -0.404,-0.841 -2.52,-0.532 -2.116,0.309 -3.482,-0.069 -3.685,-1.915 -0.305,-2.768 0.093,-2.701 0.958,-2.953 -0.059,-2.72 0.947,-2.656 2.812,-1.999 -0.972,-0.342 -1.018,1.258 -0.743,1.731 0.457,-0.097 0.613,-0.801 0.312,-1.138 0.532,0.062 0.749,0.217 1.079,0.689 2.554,-1.717 6.059,-1.266 7.137,0.575 -0.705,-0.062 -0.976,-0.081 -1.615,-0.081 0.478,0.525 1.037,0.976 2.686,0.631 0.54,-0.114 1.014,-0.413 1.477,-0.765 0.953,-0.724 1.859,-1.669 3.193,-1.669 -0.572,-1.434 -0.419,-2.909 0.686,-3.379 1.104,-0.469 1.649,0.717 1.649,0.717 0,0 -0.705,-0.247 -1.077,0.284 -0.373,0.531 1.936,2.563 -0.419,4.28 0.266,0.186 0.506,0.149 1.345,-0.037 -0.945,1.779 -2.689,0.914 -3.461,1.1 -0.709,0.17 -0.856,1.288 -1.916,1.738 l 0,0 c -0.094,0.04 -0.196,0.074 -0.306,0.103 0.147,0.31 0.246,0.612 0.306,0.907 l 0,1.364 c -0.574,2.928 -4.599,5.188 -4.032,8.279 0.42,2.285 2.498,2.499 4.032,2.593 l 0,0 c 0.152,0.009 0.3,0.018 0.439,0.026 -0.2,0.205 -0.344,0.458 -0.439,0.741 -0.223,0.663 -0.183,1.49 0,2.237 l 0.001,0 z m -13.023,-18.075 0.026,1.572 c 0,0 0.575,-0.34 0.555,-0.96 -0.014,-0.456 -0.581,-0.612 -0.581,-0.612"
             id="path2930"
             style="fill:#ffffff;fill-opacity:1;fill-rule:nonzero;stroke:none" /></g></g><path
         d="m 176.172,587.877 c 0.76,-2.756 1.069,-4.5 1.069,-6.441 0,-6.16 -4.022,-10.491 -9.676,-10.491 -4.078,0 -7.791,2.559 -9,6.244 -0.394,1.237 -0.619,2.644 -0.619,4.163 0,1.716 0.197,2.756 0.844,4.585 l -1.041,0 0,1.547 5.007,0 0,-1.547 -2.138,0 c -0.76,-1.435 -1.069,-2.56 -1.069,-4.22 0,-3.825 3.516,-6.806 8.016,-6.806 4.36,0 7.988,3.262 7.988,7.172 0,0.788 -0.084,1.181 -0.393,2.166 l -4.67,0 0,-2.419 -1.181,0 0,8.157 1.181,0 0,-2.11 5.682,0"
         id="path2932"
         style="fill:#006269;fill-opacity:1;fill-rule:nonzero;stroke:none" /></g><g
       transform="translate(-0.557298,-1.6)"
       id="g3156"><g
         id="g3136"><path
           d="m 180.74353,669.69946 c 1.12338,-4.07176 1.58062,-6.64765 1.58062,-9.51523 0,-9.09938 -5.94209,-15.49871 -14.29453,-15.49871 -6.02487,0 -11.50775,3.78206 -13.2953,9.22552 -0.5814,1.82697 -0.91448,3.90424 -0.91448,6.14903 0,2.5345 0.29169,4.07176 1.24755,6.77182 l -1.53726,0 0,2.28617 7.3946,0 0,-2.28617 -3.15729,0 c -1.12141,-2.11866 -1.57864,-3.78008 -1.57864,-6.2318 0,-5.65042 5.19316,-10.05525 11.84082,-10.05525 6.44072,0 11.80141,4.82068 11.80141,10.59525 0,1.1628 -0.12614,1.74617 -0.58337,3.19868 l -6.89598,0 0,-3.57313 -1.74616,0 0,12.04973 1.74616,0 0,-3.11591 8.39185,0"
           id="path2934"
           style="fill:#006269;fill-opacity:1;fill-rule:nonzero;stroke:none" /><path
           d="m 181.78217,698.90221 0,-4.10527 c 0,-1.90581 -0.19314,-2.22902 -1.90581,-3.32875 l -7.59366,-4.8463 0,-0.87309 8.14352,0 0,2.42414 1.35595,0 0,-9.05012 -1.35595,0 0,2.45765 -18.61461,0 0,-2.45765 -1.35791,0 0,9.53495 c 0,2.77888 0.45329,4.32993 1.58456,5.49274 1.06623,1.03469 2.45567,1.58456 4.16833,1.58456 2.90897,0 4.78324,-1.48799 5.71939,-4.52507 l 7.04576,4.58813 c 1.13127,0.74301 1.42098,1.13126 1.42098,1.7777 l 0,1.32638 1.38945,0 z m -11.11556,-13.15341 0,1.90581 c 0,2.23099 -1.7777,3.74854 -4.32994,3.74854 -2.58574,0 -4.07176,-1.3244 -4.07176,-3.61847 l 0,-2.03588 8.4017,0"
           id="path2936"
           style="fill:#006269;fill-opacity:1;fill-rule:nonzero;stroke:none" /><path
           d="m 182.20392,715.87389 c 0,-5.94604 -4.91331,-10.66423 -11.08599,-10.66423 -6.1707,0 -11.05052,4.71819 -11.05052,10.66423 0,5.94603 4.87982,10.69774 11.05052,10.69774 6.17268,0 11.08599,-4.75171 11.08599,-10.69774 z m -1.84273,0 c 0,3.26372 -4.32995,6.14115 -9.24326,6.14115 -4.8798,0 -9.20975,-2.87743 -9.20975,-6.14115 0,-3.23218 4.32995,-6.10764 9.20975,-6.10764 4.91331,0 9.24326,2.87546 9.24326,6.10764"
           id="path2938"
           style="fill:#006269;fill-opacity:1;fill-rule:nonzero;stroke:none" /><path
           d="m 182.07385,734.85189 0,-1.7777 -5.81596,0 0,1.7777 2.39063,0 c 1.1628,1.45448 1.58259,2.55224 1.58259,4.1368 0,2.00238 -1.19433,3.45686 -2.87546,3.45686 -1.45448,0 -2.48917,-0.93615 -4.42651,-3.94168 -2.00435,-3.16715 -2.32757,-3.5554 -3.29723,-4.39498 -0.93615,-0.80805 -2.22902,-1.22981 -3.65196,-1.22981 -3.55343,0 -5.91254,2.61925 -5.91254,6.56094 0,1.26134 0.19315,2.26252 0.70951,3.49036 l -0.96966,0 0,1.74419 5.52625,0 0,-1.74419 -2.22902,0 c -0.87309,-1.35791 -1.19631,-2.22902 -1.19631,-3.42533 0,-1.68113 1.19631,-2.974 2.71582,-2.974 1.29287,0 2.09896,0.74498 4.07176,3.84708 0.96966,1.48602 1.55106,2.42217 1.80924,2.7789 0.51636,0.74301 1.22784,1.42097 2.10092,1.97084 1.00119,0.6149 2.06741,0.90462 3.32876,0.90462 3.6835,0 6.26924,-2.68233 6.26924,-6.4624 0,-1.87427 -0.38825,-3.23218 -1.26133,-4.7182 l 1.13126,0"
           id="path2940"
           style="fill:#006269;fill-opacity:1;fill-rule:nonzero;stroke:none" /><path
           d="m 182.07385,754.31275 0,-1.7777 -5.81596,0 0,1.7777 2.39063,0 c 1.1628,1.45251 1.58259,2.55224 1.58259,4.13483 0,2.00435 -1.19433,3.45883 -2.87546,3.45883 -1.45448,0 -2.48917,-0.93812 -4.42651,-3.94366 -2.00435,-3.16715 -2.32757,-3.55343 -3.29723,-4.39498 -0.93615,-0.80805 -2.22902,-1.22783 -3.65196,-1.22783 -3.55343,0 -5.91254,2.61925 -5.91254,6.56093 0,1.26134 0.19315,2.26253 0.70951,3.49037 l -0.96966,0 0,1.74419 5.52625,0 0,-1.74419 -2.22902,0 c -0.87309,-1.35792 -1.19631,-2.22903 -1.19631,-3.42533 0,-1.68113 1.19631,-2.974 2.71582,-2.974 1.29287,0 2.09896,0.74301 4.07176,3.84511 0.96966,1.48799 1.55106,2.42414 1.80924,2.78086 0.51636,0.74301 1.22784,1.42098 2.10092,1.97084 1.00119,0.61293 2.06741,0.90462 3.32876,0.90462 3.6835,0 6.26924,-2.68232 6.26924,-6.46239 0,-1.87427 -0.38825,-3.23218 -1.26133,-4.7182 l 1.13126,0"
           id="path2942"
           style="fill:#006269;fill-opacity:1;fill-rule:nonzero;stroke:none" /><path
           d="m 181.78217,798.3323 0,-9.59801 -1.35595,0 0,2.71582 -13.96145,0 15.64061,-7.1108 -15.34893,-7.78878 13.66977,0 0,2.71583 1.35595,0 0,-7.46556 -1.35595,0 0,2.71385 -18.61461,0 0,-2.71385 -1.35791,0 0,5.71939 15.02768,7.66067 -15.02768,6.75408 0,6.39736 1.35791,0 0,-2.71386 18.61461,0 0,2.71386 1.35595,0"
           id="path2944"
           style="fill:#006269;fill-opacity:1;fill-rule:nonzero;stroke:none" /><path
           d="m 182.20392,815.30398 c 0,-5.94603 -4.91331,-10.66423 -11.08599,-10.66423 -6.1707,0 -11.05052,4.7182 -11.05052,10.66423 0,5.94604 4.87982,10.69771 11.05052,10.69771 6.17268,0 11.08599,-4.75167 11.08599,-10.69771 z m -1.84273,0 c 0,3.26372 -4.32995,6.14115 -9.24326,6.14115 -4.8798,0 -9.20975,-2.87743 -9.20975,-6.14115 0,-3.23021 4.32995,-6.10764 9.20975,-6.10764 4.91331,0 9.24326,2.87743 9.24326,6.10764"
           id="path2946"
           style="fill:#006269;fill-opacity:1;fill-rule:nonzero;stroke:none" /><path
           d="m 182.13889,851.24704 0,-2.26256 -15.83573,-11.24561 14.12306,0 0,2.55414 1.35595,0 0,-7.30386 -1.35595,0 0,2.68228 -16.96698,0 -1.64763,-1.03467 0,-2.32762 -1.35791,0 0,6.43282 14.89761,10.46913 -13.5397,0 0,-2.55224 -1.35791,0 0,7.30396 1.35791,0 0,-2.71577 20.32728,0"
           id="path2948"
           style="fill:#006269;fill-opacity:1;fill-rule:nonzero;stroke:none" /><path
           d="m 181.78217,874.90966 0,-10.40606 -1.35595,0 0,3.1356 -18.06474,0 0,-5.59127 2.68232,0 0,-1.77766 -5.49471,0 0,1.77766 0.90461,0 0,15.31741 -0.90461,0 0,1.77766 5.49471,0 0,-1.77766 -2.68232,0 0,-5.55778 18.06474,0 0,3.1021 1.35595,0"
           id="path2950"
           style="fill:#006269;fill-opacity:1;fill-rule:nonzero;stroke:none" /></g><g
         id="g3147"><path
           d="m 222.37824,701.85332 c 1.28697,-3.53178 1.74421,-5.73519 1.74421,-8.8925 0,-8.76636 -5.89877,-14.9982 -14.16847,-14.9982 -8.18496,0 -14.29265,6.23184 -14.29265,14.58235 0,2.70204 0.37447,4.57238 1.4131,6.98077 l -1.74617,0 0,2.28618 7.43801,0 0,-2.28618 -2.65869,0 c -1.66142,-2.36897 -2.11866,-3.69733 -2.11866,-5.89877 0,-5.77657 4.81873,-9.80697 11.71672,-9.80697 6.73047,0 11.96506,4.44624 11.96506,10.17946 0,2.07728 -0.45724,3.57316 -1.66143,5.52628 l -3.1573,0 0,2.32758 5.52627,0"
           id="path2952"
           style="fill:#006269;fill-opacity:1;fill-rule:nonzero;stroke:none" /><path
           d="m 224.00223,718.7423 c 0,-5.94607 -4.91138,-10.6643 -11.08409,-10.6643 -6.17272,0 -11.05255,4.71823 -11.05255,10.6643 0,5.94608 4.87983,10.69584 11.05255,10.69584 6.17271,0 11.08409,-4.74976 11.08409,-10.69584 z m -1.84077,0 c 0,3.26374 -4.32999,6.13921 -9.24332,6.13921 -4.87983,0 -9.2098,-2.87547 -9.2098,-6.13921 0,-3.2322 4.32997,-6.10767 9.2098,-6.10767 4.91333,0 9.24332,2.87547 9.24332,6.10767"
           id="path2954"
           style="fill:#006269;fill-opacity:1;fill-rule:nonzero;stroke:none" /><path
           d="m 223.58243,750.91527 0,-15.25245 -1.35792,0 0,2.45568 -18.61275,0 0,-2.45568 -1.35792,0 0,9.0482 1.35792,0 0,-2.42416 18.06486,0 0,6.8842 -2.39262,0 0,1.74421 4.29843,0"
           id="path2956"
           style="fill:#006269;fill-opacity:1;fill-rule:nonzero;stroke:none" /><path
           d="m 223.58243,772.3924 0,-15.25245 -1.35792,0 0,2.45568 -18.61275,0 0,-2.45568 -1.35792,0 0,9.0482 1.35792,0 0,-2.42416 18.06486,0 0,6.8842 -2.39262,0 0,1.74421 4.29843,0"
           id="path2958"
           style="fill:#006269;fill-opacity:1;fill-rule:nonzero;stroke:none" /><path
           d="m 223.58243,793.99961 0,-15.38252 -1.35792,0 0,2.45568 -18.61275,0 0,-2.45568 -1.35792,0 0,13.31509 -0.90462,0 0,1.7442 5.13803,0 0,-1.71267 -2.32759,0 0,-6.72259 7.62721,0 0,5.17152 -2.19751,0 -0.0316,1.74618 6.36585,0 0.0316,-1.74618 -2.26057,0 0,-5.17152 7.98196,0 0,7.01428 -2.39262,0 0,1.74421 4.29843,0"
           id="path2960"
           style="fill:#006269;fill-opacity:1;fill-rule:nonzero;stroke:none" /><path
           d="m 222.77438,819.67861 c 0.8731,-3.16716 1.22785,-5.16955 1.22785,-7.40055 0,-7.07734 -4.61968,-12.05375 -11.11563,-12.05375 -4.68669,0 -8.95162,2.94051 -10.34107,7.17391 -0.45329,1.42296 -0.71147,3.03906 -0.71147,4.78327 0,1.97085 0.22664,3.16716 0.96965,5.26808 l -1.1963,0 0,1.77772 5.75292,0 0,-1.77772 -2.45568,0 c -0.8731,-1.64762 -1.22785,-2.94051 -1.22785,-4.84828 0,-4.39501 4.03828,-7.82036 9.2098,-7.82036 5.00795,0 9.17828,3.74856 9.17828,8.24014 0,0.90659 -0.0986,1.35791 -0.4533,2.48919 l -5.36467,0 0,-2.7789 -1.35792,0 0,9.37141 1.35792,0 0,-2.42416 6.52747,0"
           id="path2962"
           style="fill:#006269;fill-opacity:1;fill-rule:nonzero;stroke:none" /><path
           d="m 223.58243,843.71002 0,-15.38255 -1.35792,0 0,2.45564 -18.61275,0 0,-2.45564 -1.35792,0 0,13.31511 -0.90462,0 0,1.74417 5.13803,0 0,-1.71268 -2.32759,0 0,-6.7206 7.62721,0 0,5.16954 -2.19751,0 -0.0316,1.74618 6.36585,0 0.0316,-1.74618 -2.26057,0 0,-5.16954 7.98196,0 0,7.01228 -2.39262,0 0,1.74427 4.29843,0"
           id="path2964"
           style="fill:#006269;fill-opacity:1;fill-rule:nonzero;stroke:none" /></g></g></g></svg>