<?xml version="1.0" encoding="UTF-8" standalone="no"?>
<svg height="275.70697" viewBox="0 0 359.99979 275.70696" width="359.99979" xmlns="http://www.w3.org/2000/svg" xmlns:xlink="http://www.w3.org/1999/xlink">
   <clipPath id="a">
      <path d="m0 3859.9v-3859.9h5040v3859.9z"/>
   </clipPath>
   <g clip-path="url(#a)" transform="matrix(.07142853 0 0 -.07142853 0 275.70698)">
      <path d="m1627.9 2766.5l-593.6-.2c1.7-705.8 581.6-1276.7 1295.2-1275 222.4.5 431.7 56.6 614.2 155a1167 1167 0 0 0-162.7-12c-635.3-1.5-1151.6 504.7-1153.1 1132.2" fill="#f9b10c"/>
      <path d="m2509.2 3425l1.6 434.9c-529-1.3-957-425.3-955.7-947.1a930.7 930.7 0 0 1 116.2-449.1c-5.7 39-8.9 78.6-9 119-1 464.5 376.6 841.2 846.9 842.3" fill="#7a153b"/>
      <path d="m3000.1 2765.2l331.5-.4c-1 394-324.7 712.7-723.1 711.7a724 724 0 0 1-342.8-86.5 652 652 0 0 0  90.7 6.7c354.7.8 642.9-281.2 643.7-631.5" fill="#f9b10c"/>
      <path d="m2508.7 1619.4l-.5-796.2c970.7 2.3 1758.1 780.1 1755.8 1737.4-.8 298.4-78 578.8-213 823.7a1539 1539 0 0 0 16.2-218.3c2.1-852-695.7-1544.6-1558.5-1546.6" fill="#7a153b"/>
      <path d="m2255.8 1844.8c0 0-37.8-319.3 50.3-286 88.2 33 75.6 111.9 75.6 111.9 0 0 43.9-173.9 155.3-33.2 75.6 95.3 180.5-157.6 172.1 16.6-11.6 240.4-386.2 99.5-453.3 190.7m671.6-120.3c0 0-132.3-243.3 155.3-136.8 67.2 24.9-155.3 136.8-155.3 136.8" fill="#fff"/>
      <path d="m3309.2 2174.3a542.3 542.3 0 0 0 55.4-259c-20.3 166.5-119 321-249 435.1l1.3 61.3c74.2-73.8 148.2-149.7 192.3-237.4zm-259.6-568.7l-18.5-25.4-24.8 71.7c19-9.5 46.2-24.9 43.3-46.3zm-76.1 1077c-.2 4.4-17 99.3-19.5 119.8-6.6 32-17 41-18.4 62.8-.6 11-1 16.3 10.2 25.3 26 19.6 33-141.8 27.7-207.9zm-24.6-1102.6c-24.2 16.2-6.7 51.9 5.6 68.9 13.5-21.7 15.2-51.8-5.6-68.9zm-223.9 729c-22.9-21.7-34.6-48.3-51.7-77.1-125.5-17.4-196.8-9-285.5-.7 133.6-92.2 139-247.3 171.6-297.5l.8 3.3c0 16.7 74.8 47.9 144 49.4-57.4-87 6.8-145.2-14.7-211.5-36.6 27.6-59.9 117.8-135.5 138.1l.9 3.1c-40.4 121.5-122.3 243.3-216.9 312.9 4.3 25.6 13 53.8-.1 68.3-26.9 33.7-63.5 56.3-99.7 78.8a302.6 302.6 0 0 0-95.3 89.5c90-48.5 187.1-116.6 247-200.2 93-14.7 214.5-19.7 272.5 5 17 7.2 19.3 16.2 23.8 34.1 68 77.1 194.2 137.2 263.2 210-25.8-89.7-161.5-146.3-224.4-205.6zm101.3-153c-5.3-80.9 4.7-158 2-230.6-11.7 62.6-24.5 138.5-25 217.8-.7 90.5 21.5 178.5 75 226.5-27.3-58-46.8-134.2-52-213.6zm-142-549.3l-47.9 48c-7-16.2-24.8-18.9-34.4-8.5-5.3 25.6 6.3 64.2 26.2 79.6 29.3 8.6 59.6-7.7 67.3-41.7zm-197.9 2.4c-11.3 12-11 64-39.6 53.8l-3.5-16.2c-20.8 9.4-13 26.6-13.4 38.7-2 57.5 66.7 57.9 66.8 14.3-2.5-23 6-72.6-10.3-90.6zm-195-8c-15.5 24.7-49.8 104.2-13.6 136.8 25.8 9 39.2-4.7 46-29.2 11.3-40.1-24.6-75.2-32.3-107.7zm-142.8 1447.8l122-75.4c-26.8-21.7-54-44-83.3-50-15.6 9.4-28 30.4-39.2 42.3 35.2 32-1.2 48.7.5 83.1zm227.8-138.5c-51.8-35.1-125.2-67.3-165.7-129.8 1 39.3 18.4 73.9 53.2 95 33 20.2 79.5 31 112.5 34.8zm175.1 150.7c72.6.4 164.5-28 196.3-56.4-132.7 53.7-277 39.2-406.6 7.5 43.7 15.3 131.4 48.4 210.3 49zm130.7-151.3c33-3.8 79.4-14.3 112.7-34.3 35-21 52.6-55.5 53.6-94.8-40.8 62.3-114.3 94.1-166.3 129zm-59-241.5l27.7-130-56.3 19.8-5.7 291.3c8.8-28.4 15.3-83.4 28.4-111.2l190.2-1.6c-47.4-51.4-86.3-62.2-184.2-68.3zm76.8-327.9c-43.4-3.8-75.2-1.6-105.8 13.8-26.7 13.5-42.8 41.2-58.2 62.3a351.2 351.2 0 0 1 164-76zm-295.6 190.7c39-17.4 86.2-44 127-45 27-.5 122.4 44.1 122.4 44.1l-119.4-92.8zm127.4-114.8c-18.6-49.7-62.8-69.8-113.5-77.7l-52 1c52.4 18.6 119.9 35.8 165.5 76.7zm-286.5 318l190.2 2.5c13 27.8 18.6 80 27.2 108.7l-5-287.3-56.3-20 24.2 125.3c-93.6 15.6-132.6 19.6-180.3 70.7zm658.8 316.4c1.9-34.4-34.4-51.2 1-83.1-11.2-12-23.5-33-39-42.4-29.5 5.9-56.6 28-83.5 49.5zm848.4 21.7c-95.3 40.8-204.5-6.5-276.7-71.8-94-85.2-138.7-181-176.6-278.1-22-56.6-37.6-116.2-70.2-168.2a147.6 147.6 0 0 0-59-57c-20.8-13-40.3-17.3-70.6-4.5 1.4 119.6-48.2 254.7-76.7 332.5-11.6 21.8-28 60.2-49.9 118.6-3 37-4.9 77-11.8 116.7-5.2 30.2-19.6 61.6-28.9 64a1633.6 1633.6 0 0 1-102.3-40.1c-40.7 17.4-102 60.5-145.7 76.5-30.8 11.3-52.9 20.1-91 7-21.6-11.5-29.7-56.3-54.6-61.4-53.3-11-98 1.2-154.2-28.8-46.6-20.1-50.6-40.5-76.4-39.3-27.4 19-166 94.2-198.5 79.3-7-36-24.3-70-26.2-114.8-1.5-32.7 8.3-76.6 20.4-105.3 14.5-21.4 24.2-28.3 26-41.3 1.6-21.3-44.1-77.2-47.2-125.4-5.6-55.6 18-102.2 3.3-149.5-24.6-78.7-74.8-151.1-94.6-232.3-35.6-104.3-23.3-165.1 15-240.6 38.3-75.4 102.6-165.4 157.7-237.5-.6-28.7-17.9-77.6-35.8-106.8-20.9-34.2-43.3-48-53.6-71.3-28.4-91.8 40.5-141.4 40.5-141.4 25.9-13.8 56.2-13.7 79 5.1l21.2 33.8 46-40.4c20.2-14 55.2-11.9 69.3.8l39.5 51.3c11-11.1 19.6-29.2 38.3-50.9 30.5-22 75.5-20 97.5.3l39 59.5c12-17 19-31 41.2-59.3 44.2-19.8 78.5-22.7 119.3 3.2 19.8 19.7 48.9 52.3 34.7 91.9 24 41.5 58.4 72.1 66.3 107.9 8.1 22.7-3.6 39.7-1 55.3 2.4 12.1 22.7 44.9 34.2 49l11-167.4c-49.8-68-90.4-74.2-27.8-141.9 25.8-22 225.5-20.3 271.3 3.8 9.2 10.9 21.4 6.2 29 41.4-17 35.6-25.6 35.2-85 87.5-6.3 88.8 35.8 218.5 46.9 300.6 15-68 68.3-173.2 123.5-198.6a526.7 526.7 0 0 1 107.6-31.5c15.3-13.2 78.1-60.3 34.5-186 2.8-18 59.3-10.6 101.2-10.5 42 .1 101-3.2 121.6 14 2.8 54-53.7 50.4-81.2 117.3-32.5 62.2-79.8 121-94.1 189.1-3.1 102.6-13.7 270.6-78.8 365.8-33.7 49.3-75.4 88.6-104.1 140.7 108.3 94.2 145 217.7 188 338 34.5 96.2 67.8 185.8 169.5 255.2 23.3 15.2 58 23.1 85 23 53.7-.2 102.4-25.7 145.6-4 38 49.3-31.2 69.6-50.6 76.8" fill="#231f20"/>
      <path d="m253.2 8.9c1.7 30.3 3 53.8 3 96.1v74.2h-156.9v-74.2c0-28.7 1.8-69 3-96.1h-93.6c1.7 30.3 2.9 53.8 2.9 96.1v170.4c0 41.8-4 74.7-11.7 105.5h102.3c-1.1-26.7-2.9-63.7-2.9-105.5v-38.7h156.7v38.7c0 41.8-4 74.7-11.7 105.5h102.3c-1.1-26.7-2.9-63.7-2.9-105.5v-170.4c0-28.7 1.8-69 3-96.1h-93.6m335.6 310.3h-1.2c-14-53.8-36.8-116-50.9-156.2h97.7c-11.1 34-34 101.4-45.6 156.2zm99.3-310.2c-13.5 33.4-31.6 84.1-39.2 104.5h-128c-8.8-26.2-24-77.9-30.5-104.5h-96.3c18 40.7 36.8 80 55 125.4l28 70c19.9 49.1 44.4 109.7 50.9 166.7l112.1 18.7c7.6-38.2 32.8-110.3 56.8-172l27.4-70c20-51.1 43.9-99.7 66.1-139h-102.2m281.7 319.8c-19.3 0-32.7-1.5-48.5-3.1v-106.6c6.4-.5 12.3-1 19.3-1 54.4 0 94.7 25 94.7 59.5 0 33.5-27.5 51.2-65.5 51.2zm85.4-319.6c-44.4 43.4-76 101.9-111.7 159.3l-22.2-1.5v-61.8c0-28.7 1.8-69 3-96.1h-93.6c1.7 30.3 2.9 53.8 2.9 96.1v170.4c0 41.8-4 74.7-11.7 105.5h35.7c20.4 0 40.3 1 60.8 2.6 19.9 1 39.7 2.6 59 2.6 91.8 0 145.6-38.7 145.6-108.7 0-63.2-64.3-90.9-94.1-99.2 51.4-82 76-112.4 136.8-169.3h-110.5m423.6 314.5h-114v-201.7c0-58.5 1.7-87.7 2.9-112.8h-93.7c2.4 34.5 3 54.3 3 112.8v201.7h-28c-19.9 0-57.3-1-90-5.2l4 62.7h231c34 0 64.3 1.6 88.9 5.2zm397.6-56.4v-165.6c0-30.9 1.7-61.7 4-92.5l-94.6-8.9c-58.4 96.1-121 190.7-178.9 286.8l-1.2-1c1.8-92.5 1.8-185 8.8-277h-87.7c4.1 37.7 5.9 75.3 5.9 113v128.5c0 43.9-5.3 87.2-10.6 130.6h99.4a4510.9 4510.9 0 0 0 104.7-152.6c28-42.8 56.1-85.7 79.5-130.6l1.2 1-6.4 168.3c-1.2 38.1-3 75.7-5.9 113.9h87.7a824.8 824.8 0 0 1-5.8-114m323.9-258h-236.8c1.8 30.3 3 53.8 3 96.1v170.4c0 41.8-4.2 74.7-11.8 105.5h239.2l4-60.1c-29.7 1.6-70 2.6-112.8 2.6h-31v-90.4h31c36.3 0 71.4 0 108.8 2.6l-3-62.7a1489 1489 0 0 1-105.8 2.7h-31v-109.2h31c52 0 93.6 4.1 120.5 7.8zm314.2 0h-246.8c1.8 30.3 3 53.8 3 96.1v170.4c0 41.8-4.1 74.7-11.7 105.5h102.3c-1.2-26.7-3-63.7-3-105.5v-209h39.2c51 0 94.8 4.7 121.7 7.8zm289.6 0h-246.7c1.7 30.3 2.9 53.8 2.9 96.1v170.4c0 41.8-4.1 74.7-11.7 105.5h102.3c-1.2-26.7-2.9-63.7-2.9-105.5v-209h39.2c50.8 0 94.7 4.7 121.6 7.8z" fill="#7a153b"/>
      <path d="m3038.4 0c-146.2 0-227.5 95.1-227.5 213.2 0 106 77.2 176.6 211.7 176.6 23.4 0 46.2-2.1 69-6.8v-65.3c-21.6 3.1-43.8 6.8-66 6.8-78.4 0-127-43.4-127-118.6 0-80 52.7-140.6 149.2-140.6 21.6 0 33.9 1 50.2 4.2v-65.3a328 328 0 0 0-59.6-4.2m261.4 324.5c-68.4 0-105.3-51.8-105.3-123.3 0-75.8 43.9-135.9 105.3-135.9 62.5 0 103.5 62.2 103.5 135.9 0 73.6-39.2 123.3-103.5 123.3zm0-324.5c-113.5 0-193 89.3-193 201.2 0 111.2 74.8 188.6 193 188.6 117 0 191.2-80.5 191.2-188.6 0-110.3-76-201.2-191.2-201.2m493.6 8.9h-246.7c1.7 30.3 2.9 53.8 2.9 96.1v170.4c0 41.8-4.1 74.7-11.7 105.5h102.3c-1.1-26.7-2.9-63.7-2.9-105.5v-209h39.2c50.9 0 94.7 4.7 121.6 7.8zm289.6 0h-246.7c1.7 30.3 3 53.8 3 96.1v170.4c0 41.8-4.2 74.7-11.8 105.5h102.3c-1.1-26.7-2.9-63.7-2.9-105.5v-209h39.2c50.9 0 94.7 4.7 121.6 7.8zm280.8 0h-236.8c1.8 30.3 3 53.8 3 96.1v170.4c0 41.8-4.1 74.7-11.7 105.5h239.1l4.1-60.1c-29.8 1.6-70.2 2.6-112.8 2.6h-31v-90.4h31c36.2 0 71.3 0 108.7 2.6l-3-62.7c-32.7 2.1-57.2 2.7-105.7 2.7h-31v-109.2h31c52 0 93.5 4.1 120.4 7.8zm276.1-8.9c-143.3 0-239.2 87.8-239.2 205.9 0 112.3 84.8 183.9 221.6 183.9 29.3 0 58-4.2 86.6-9v-63.6c-27 3-53.2 7.3-80.1 7.3-87.7 0-140.4-43.4-140.4-118.1 0-93 73.1-141 148-141 8.2 0 17.5 1 24.5 2.5v68h-71.3v60c24.6-1.5 49.1-2.6 73.7-2.6 17 0 45.6 0 69 2.6v-92.5c0-31.8 1.7-62.6 2.9-94.5-24-5.2-57.9-8.9-95.3-8.9m394.8 8.9h-236.7c1.8 30.3 3 53.8 3 96.1v170.4c0 41.8-4.1 74.7-11.7 105.5h239.1l4.1-60.1a2259 2259 0 0 1-112.8 2.6h-31v-90.4h31c36.2 0 71.3 0 108.7 2.6l-3-62.7c-32.7 2.1-57.2 2.7-105.7 2.7h-31v-109.2h31c52 0 93.5 4.1 120.4 7.8l-5.3-65.3" fill="#231f20"/>
      <path d="m2160.5 1647a82.3 82.3 0 0 1-23.7-60.4c-25.1 10.2-37.4 51.7-41.2 84 18.9 46.1 77 21.7 65-23.6" fill="#fff"/>
      <path d="m2160.5 1647a82.3 82.3 0 0 1-23.7-60.4c-25.1 10.2-37.4 51.7-41.2 84 18.9 46.1 77 21.7 65-23.6z" fill="none" stroke="#231f20" stroke-width="4.30000019"/>
   </g>
</svg>
