<?xml version="1.0" encoding="utf-8"?>
<!-- Generator: Adobe Illustrator 22.0.1, SVG Export Plug-In . SVG Version: 6.00 Build 0)  -->
<svg version="1.1" id="Layer_1" xmlns="http://www.w3.org/2000/svg" xmlns:xlink="http://www.w3.org/1999/xlink" x="0px" y="0px"
	 width="300px" height="58.97px" viewBox="0 0 300 58.97" enable-background="new 0 0 300 58.97" xml:space="preserve">
<g>
	<polygon fill="#FFFFFF" points="54.21,7.5 54.21,0 0,0 0,51.69 8.01,51.69 8.01,58.97 62,58.97 62,7.5 	"/>
	<rect x="1.51" y="1.51" fill="#A6A6A6" width="51.2" height="48.67"/>
	<rect x="9.52" y="9" fill="#003CBD" width="50.98" height="48.46"/>
	<path fill="#003CBD" d="M70.56,9.78c-0.13,0-0.26-0.06-0.26-0.19c0-0.19,0.16-0.26,0.51-0.26c1.06,0,3.08,0.1,3.24,0.1
		c0.16,0,2.18-0.1,3.14-0.1c0.35,0,0.51,0.06,0.51,0.26c0,0.13-0.13,0.19-0.26,0.19c-0.23,0-0.42,0.03-0.8,0.1
		c-0.86,0.16-1.12,0.7-1.18,1.83c-0.06,1.03-0.06,1.92-0.06,6.93v5.64c0,3.08,0,5.61,0.16,6.96c0.1,0.93,0.29,1.63,1.25,1.76
		c0.45,0.06,1.16,0.13,1.44,0.13c0.19,0,0.26,0.1,0.26,0.19c0,0.16-0.16,0.26-0.51,0.26c-1.76,0-3.79-0.1-3.94-0.1
		c-0.16,0-2.18,0.1-3.14,0.1c-0.35,0-0.51-0.06-0.51-0.26c0-0.1,0.06-0.19,0.26-0.19c0.29,0,0.67-0.06,0.96-0.13
		c0.64-0.13,0.8-0.83,0.93-1.76c0.16-1.35,0.16-3.88,0.16-6.96v-5.64c0-5,0-5.9-0.07-6.93c-0.06-1.09-0.39-1.63-1.09-1.8
		C71.2,9.81,70.79,9.78,70.56,9.78 M99.38,33.02c-1.22-0.64-2.24-1.96-3.85-4.01c-1.18-1.48-2.44-3.24-3.05-3.97
		c-0.13-0.13-0.19-0.16-0.38-0.16l-3.59-0.07c-0.13,0-0.19,0.07-0.19,0.23v0.64c0,2.63,0,4.74,0.13,5.87
		c0.1,0.8,0.26,1.31,1.12,1.44c0.38,0.06,0.99,0.13,1.25,0.13c0.19,0,0.22,0.13,0.22,0.23c0,0.13-0.13,0.23-0.45,0.23
		c-1.54,0-3.33-0.1-3.46-0.1c-0.03,0-1.92,0.1-2.79,0.1c-0.29,0-0.45-0.06-0.45-0.23c0-0.09,0.06-0.23,0.22-0.23
		c0.26,0,0.61-0.06,0.87-0.13c0.55-0.13,0.61-0.64,0.74-1.44c0.16-1.12,0.16-3.27,0.16-5.9v-4.81c0-4.24,0-5-0.06-5.87
		c-0.06-0.93-0.22-1.38-1.15-1.5c-0.22-0.03-0.7-0.06-0.96-0.06c-0.1,0-0.22-0.13-0.22-0.23c0-0.16,0.13-0.22,0.45-0.22
		c1.28,0,3.17,0.06,3.33,0.06c0.29,0,2.66-0.06,3.52-0.06c1.8,0,3.78,0.16,5.26,1.19c0.71,0.51,1.96,1.83,1.96,3.72
		c0,2.02-0.83,3.98-3.46,6.22c2.31,2.89,4.26,5.35,5.9,7.05c1.51,1.54,2.44,1.79,3.14,1.89c0.55,0.1,0.83,0.1,1,0.1
		c0.16,0,0.26,0.13,0.26,0.23c0,0.16-0.16,0.23-0.67,0.23h-1.76C100.8,33.57,100.09,33.41,99.38,33.02 M93.74,23.44
		c0.96-0.64,1.7-2.08,1.7-4.17c0-3.4-1.86-5.35-4.87-5.35c-0.83,0-1.73,0.1-2.02,0.16c-0.13,0.06-0.22,0.16-0.22,0.32v8.75
		c0,0.16,0.06,0.26,0.19,0.35c0.42,0.23,1.86,0.42,3.11,0.42C92.3,23.92,93.07,23.89,93.74,23.44 M122.82,12.95
		c-0.83,0-2.05,0.06-2.21,0.06c-0.35,0-1.63-0.06-2.76-0.06c-0.45,0-0.64,0.06-0.64,0.22c0,0.13,0.16,0.23,0.32,0.23
		c0.32,0,0.64,0,0.96,0.1c0.29,0.1,0.39,0.35,0.39,0.58c0,0.22-0.13,0.61-0.26,1.02c-0.61,1.96-4.3,11.26-5.93,14.91l-5.32-13.72
		c-0.42-1.09-0.77-1.92-0.77-2.28c0-0.19,0.03-0.35,0.32-0.48c0.26-0.1,0.71-0.12,1.03-0.12c0.19,0,0.29-0.13,0.29-0.26
		s-0.26-0.19-0.77-0.19c-1.09,0-2.34,0.06-2.63,0.06c-0.35,0-1.96-0.06-3.3-0.06c-0.45,0-0.74,0.03-0.74,0.19
		c0,0.1,0.07,0.26,0.23,0.26s0.64,0,1.09,0.1c0.93,0.22,1.31,0.51,1.96,2.05l6.92,16.7c0.55,1.32,0.74,1.67,1.06,1.67
		c0.29,0,0.45-0.42,1.22-2.05c0.64-1.35,1.89-4.3,3.62-8.27c1.44-3.33,2.82-6.6,3.14-7.37c0.74-1.86,1.19-2.24,1.57-2.5
		c0.51-0.32,1.15-0.32,1.35-0.32c0.22,0,0.32-0.13,0.32-0.26C123.27,13.02,123.11,12.95,122.82,12.95 M132.03,33.57
		c0.32,0,0.45-0.1,0.45-0.23c0-0.09-0.06-0.22-0.22-0.22c-0.26,0-0.87-0.06-1.29-0.13c-0.83-0.13-0.93-0.64-1.02-1.44
		c-0.13-1.12-0.13-3.27-0.13-5.9v-4.81c0-4.24,0-5,0.03-5.87c0.06-0.96,0.22-1.35,0.99-1.5c0.32-0.06,0.51-0.06,0.7-0.06
		c0.1,0,0.22-0.13,0.22-0.23c0-0.16-0.13-0.22-0.45-0.22c-0.87,0-2.69,0.06-2.82,0.06c-0.16,0-1.92-0.06-2.85-0.06
		c-0.32,0-0.45,0.06-0.45,0.22c0,0.1,0.1,0.23,0.22,0.23c0.19,0,0.55,0.03,0.87,0.1c0.61,0.12,0.83,0.54,0.9,1.47
		c0.06,0.87,0.06,1.63,0.06,5.87v4.81c0,2.63-0.03,4.78-0.16,5.9c-0.1,0.8-0.19,1.31-0.74,1.44c-0.26,0.06-0.61,0.13-0.87,0.13
		c-0.16,0-0.22,0.13-0.22,0.22c0,0.16,0.16,0.23,0.45,0.23c0.87,0,2.63-0.1,2.79-0.1C128.63,33.47,130.46,33.57,132.03,33.57
		 M154.41,32.09c1.57,1.44,1.86,1.67,2.15,1.67c0.19,0,0.22-0.16,0.22-1.95l0.06-15.97c0-1.63,0.07-2.18,1-2.37
		c0.32-0.06,0.55-0.06,0.67-0.06c0.19,0,0.32-0.16,0.32-0.26c0-0.16-0.23-0.19-0.51-0.19c-1.15,0-2.08,0.06-2.4,0.06
		c-0.32,0-1.66-0.06-2.95-0.06c-0.32,0-0.54,0.03-0.54,0.19c0,0.1,0.03,0.26,0.22,0.26c0.23,0,0.87,0.03,1.38,0.12
		c0.86,0.16,1.03,0.77,1.06,2.54l0.29,13.65c-0.87-0.9-3.88-4.13-6.67-7.02c-4.36-4.48-8.47-8.85-8.91-9.29
		c-0.29-0.29-0.77-0.84-1.09-0.84c-0.22,0-0.39,0.29-0.39,1.38v15.61c0,2.47-0.1,3.2-0.8,3.4c-0.42,0.13-0.93,0.16-1.16,0.16
		c-0.13,0-0.22,0.1-0.22,0.22c0,0.19,0.16,0.23,0.45,0.23c1.28,0,2.47-0.1,2.73-0.1s1.38,0.1,2.98,0.1c0.32,0,0.51-0.06,0.51-0.23
		c0-0.13-0.1-0.22-0.22-0.22c-0.26,0-0.9-0.03-1.41-0.16c-0.77-0.19-1.03-0.87-1.09-3.11l-0.32-12.86c0.87,0.96,4.04,4.3,7.31,7.73
		C150.05,27.83,154.13,31.84,154.41,32.09 M174.91,32.92c0.16-0.58,0.38-2.43,0.38-2.63c0-0.19-0.03-0.41-0.19-0.41
		s-0.22,0.09-0.29,0.41c-0.16,1.09-0.54,1.57-1.28,1.89c-0.74,0.29-2.09,0.29-2.82,0.29c-2.79,0-3.3-0.35-3.37-2.18
		c-0.03-0.55,0-3.72,0-4.65v-2.28c0-0.1,0.04-0.19,0.2-0.19c0.48,0,3.49,0.03,4.26,0.13c1.09,0.13,1.35,0.45,1.44,0.83
		c0.13,0.35,0.13,0.64,0.13,0.9c0,0.16,0.06,0.25,0.19,0.25c0.19,0,0.26-0.29,0.26-0.51c0-0.19,0.06-1.22,0.13-1.77
		c0.06-0.9,0.22-1.34,0.22-1.5s-0.06-0.22-0.16-0.22c-0.09,0-0.22,0.16-0.41,0.35c-0.29,0.29-0.71,0.32-1.38,0.39
		c-0.64,0.06-4.36,0.06-4.71,0.06c-0.16,0-0.16-0.1-0.16-0.29v-7.41c0-0.19,0.04-0.29,0.16-0.29c0.32,0,3.59,0.03,4.07,0.1
		c1.54,0.19,1.83,0.39,2.02,0.83c0.13,0.32,0.16,0.77,0.16,0.96c0,0.23,0.06,0.35,0.23,0.35c0.13,0,0.22-0.16,0.26-0.29
		c0.06-0.32,0.13-1.54,0.16-1.8c0.06-0.77,0.22-1.09,0.22-1.28c0-0.13-0.03-0.25-0.13-0.25c-0.13,0-0.26,0.1-0.38,0.13
		c-0.22,0.03-0.74,0.13-1.29,0.16c-0.64,0.03-6.54,0-6.73,0c-0.16,0-1.99-0.07-3.27-0.07c-0.32,0-0.45,0.07-0.45,0.22
		c0,0.1,0.13,0.23,0.22,0.23c0.26,0,0.74,0.03,0.96,0.06c0.93,0.13,1.1,0.58,1.16,1.5c0.06,0.87,0.06,1.63,0.06,5.87v4.81
		c0,2.63,0,4.78-0.16,5.9c-0.13,0.8-0.19,1.34-0.74,1.44c-0.26,0.03-0.61,0.13-0.86,0.13c-0.16,0-0.23,0.13-0.23,0.22
		c0,0.16,0.17,0.23,0.46,0.23c0.45,0,1.09-0.03,1.63-0.06c0.6-0.03,1.15-0.03,1.22-0.03c0.42,0,1.16,0,2.34,0.06
		c1.16,0.03,2.79,0.1,4.91,0.1C174.42,33.63,174.71,33.63,174.91,32.92 M199.46,34.02c0.32,0,0.45-0.51,1.35-2.44
		c0.74-1.57,2.18-5.03,4.13-9.71c1.63-3.94,3.23-7.78,3.59-8.68c0.86-2.18,1.34-2.72,1.76-3.01c0.61-0.39,1.31-0.39,1.54-0.39
		c0.26,0,0.38-0.06,0.38-0.22s-0.19-0.23-0.54-0.23c-0.93,0-2.31,0.1-2.5,0.1c-0.39,0-1.86-0.1-3.14-0.1
		c-0.52,0-0.71,0.06-0.71,0.26c0,0.16,0.16,0.19,0.35,0.19c0.36,0,0.84,0,1.22,0.13c0.32,0.16,0.42,0.48,0.42,0.74
		c0,0.29-0.13,0.74-0.29,1.22c-0.71,2.31-5,13.49-6.86,17.78l-6.15-16.4c-0.48-1.25-0.86-2.24-0.86-2.66c0-0.22,0.06-0.48,0.42-0.64
		c0.29-0.13,0.87-0.16,1.22-0.16c0.22,0,0.32-0.06,0.32-0.22s-0.29-0.23-0.86-0.23c-1.22,0-2.66,0.1-2.98,0.1
		c-0.38,0-2.21-0.1-3.75-0.1c-0.52,0-0.83,0.03-0.83,0.23c0,0.13,0.06,0.22,0.25,0.22s0.74,0,1.22,0.13
		c1.12,0.32,1.6,0.67,2.31,2.47l7.85,19.64C198.92,33.57,199.08,34.02,199.46,34.02 M229.71,33.34c0,0.16-0.33,0.23-0.65,0.23
		c-0.42,0-2.49,0-4.45-0.06c-0.54-0.03-0.99-0.03-0.99-0.19c0-0.13,0.06-0.13,0.19-0.19c0.16-0.06,0.45-0.29,0.26-0.74l-2.53-6.25
		c-0.06-0.13-0.1-0.16-0.25-0.16h-6.5c-0.13,0-0.23,0.06-0.29,0.22l-1.61,4.36c-0.25,0.67-0.41,1.34-0.41,1.83
		c0,0.54,0.48,0.74,0.96,0.74h0.26c0.22,0,0.28,0.1,0.28,0.22c0,0.16-0.16,0.23-0.41,0.23c-0.68,0-2.21-0.1-2.53-0.1
		c-0.29,0-1.7,0.1-2.86,0.1c-0.35,0-0.54-0.06-0.54-0.23c0-0.13,0.13-0.22,0.26-0.22c0.19,0,0.61-0.03,0.83-0.06
		c1.28-0.16,1.82-1.12,2.37-2.5l6.64-17.04c0.35-0.89,0.48-1.06,0.67-1.06c0.29,0,0.38,0.39,0.67,0.99
		c0.51,1.15,5.03,12.4,6.76,16.53c1.03,2.43,1.79,2.78,2.4,2.98c0.42,0.13,0.83,0.16,1.12,0.16
		C229.51,33.12,229.71,33.18,229.71,33.34 M220.87,24.85c0.13,0,0.13-0.06,0.09-0.19l-2.79-7.46c-0.16-0.41-0.32-0.41-0.48,0
		l-2.63,7.46c-0.03,0.13,0,0.19,0.1,0.19H220.87 M244.48,29.75c-0.16,0-0.26,0.16-0.29,0.35c-0.1,0.55-0.32,1.12-0.67,1.54
		c-0.67,0.8-1.93,0.83-3.39,0.83c-2.22,0-3.31-0.19-3.76-0.64c-0.51-0.48-0.57-2.12-0.57-6.12v-4.87c0-4.22,0-5,0.03-5.86
		c0.06-0.96,0.22-1.38,1.05-1.54c0.32-0.03,0.74-0.06,0.93-0.06c0.09,0,0.22-0.1,0.22-0.19c0-0.16-0.16-0.22-0.45-0.22
		c-0.86,0-2.98,0.07-3.11,0.07c-0.16,0-1.92-0.07-3.2-0.07c-0.32,0-0.44,0.07-0.44,0.22c0,0.1,0.13,0.22,0.22,0.22
		c0.26,0,0.74,0.03,0.96,0.06c0.93,0.13,1.09,0.58,1.15,1.51c0.06,0.86,0.06,1.64,0.06,5.86v4.81c0,2.63,0,4.77-0.16,5.89
		c-0.13,0.8-0.19,1.31-0.74,1.44c-0.25,0.06-0.6,0.13-0.86,0.13c-0.16,0-0.23,0.13-0.23,0.22c0,0.16,0.16,0.23,0.45,0.23
		c0.45,0,1.06-0.03,1.64-0.06c0.54-0.03,1.02-0.03,1.15-0.03c0.84,0,1.8,0.03,3.08,0.06c1.31,0.06,2.89,0.1,4.9,0.1
		c1.51,0,1.6-0.1,1.79-0.74c0.23-0.8,0.42-2.43,0.42-2.72C244.67,29.88,244.61,29.75,244.48,29.75 M261.43,29.75
		c-0.16,0-0.25,0.16-0.28,0.35c-0.1,0.55-0.32,1.12-0.67,1.54c-0.67,0.8-1.92,0.83-3.4,0.83c-2.21,0-3.3-0.19-3.75-0.64
		c-0.51-0.48-0.57-2.12-0.57-6.12v-4.87c0-4.22,0-5,0.03-5.86c0.06-0.96,0.23-1.38,1.06-1.54c0.32-0.03,0.74-0.06,0.93-0.06
		c0.1,0,0.23-0.1,0.23-0.19c0-0.16-0.16-0.22-0.45-0.22c-0.87,0-2.98,0.07-3.1,0.07c-0.16,0-1.93-0.07-3.21-0.07
		c-0.32,0-0.45,0.07-0.45,0.22c0,0.1,0.13,0.22,0.22,0.22c0.25,0,0.73,0.03,0.96,0.06c0.93,0.13,1.09,0.58,1.15,1.51
		c0.07,0.86,0.07,1.64,0.07,5.86v4.81c0,2.63,0,4.77-0.16,5.89c-0.13,0.8-0.19,1.31-0.74,1.44c-0.26,0.06-0.61,0.13-0.86,0.13
		c-0.16,0-0.22,0.13-0.22,0.22c0,0.16,0.16,0.23,0.45,0.23c0.45,0,1.05-0.03,1.63-0.06c0.54-0.03,1.02-0.03,1.16-0.03
		c0.83,0,1.79,0.03,3.07,0.06c1.32,0.06,2.88,0.1,4.9,0.1c1.51,0,1.6-0.1,1.79-0.74c0.23-0.8,0.42-2.43,0.42-2.72
		C261.62,29.88,261.56,29.75,261.43,29.75 M277.45,29.88c-0.16,0-0.22,0.1-0.29,0.42c-0.16,1.09-0.55,1.57-1.29,1.89
		c-0.73,0.29-2.08,0.29-2.82,0.29c-2.79,0-3.3-0.35-3.36-2.18c-0.03-0.54,0-3.72,0-4.64v-2.28c0-0.09,0.03-0.19,0.19-0.19
		c0.48,0,3.49,0.03,4.26,0.13c1.09,0.13,1.34,0.45,1.44,0.83c0.13,0.35,0.13,0.64,0.13,0.9c0,0.16,0.07,0.26,0.19,0.26
		c0.19,0,0.26-0.29,0.26-0.51c0-0.19,0.06-1.22,0.13-1.76c0.06-0.9,0.22-1.35,0.22-1.51s-0.06-0.22-0.16-0.22s-0.22,0.16-0.42,0.35
		c-0.29,0.29-0.7,0.32-1.38,0.38c-0.64,0.06-4.36,0.06-4.71,0.06c-0.16,0-0.16-0.1-0.16-0.29v-7.4c0-0.19,0.03-0.29,0.16-0.29
		c0.32,0,3.59,0.03,4.07,0.1c1.54,0.19,1.83,0.38,2.02,0.83c0.13,0.32,0.16,0.77,0.16,0.96c0,0.22,0.07,0.35,0.23,0.35
		c0.13,0,0.22-0.16,0.25-0.29c0.07-0.32,0.13-1.54,0.16-1.79c0.07-0.77,0.23-1.09,0.23-1.28c0-0.13-0.04-0.26-0.13-0.26
		c-0.13,0-0.26,0.1-0.38,0.13c-0.23,0.03-0.74,0.13-1.29,0.16c-0.64,0.03-6.53,0-6.72,0c-0.16,0-1.99-0.07-3.27-0.07
		c-0.32,0-0.44,0.07-0.44,0.22c0,0.1,0.13,0.23,0.22,0.23c0.26,0,0.73,0.03,0.97,0.06c0.93,0.13,1.09,0.58,1.15,1.51
		c0.06,0.87,0.06,1.64,0.06,5.86v4.81c0,2.63,0,4.77-0.16,5.89c-0.12,0.8-0.19,1.34-0.73,1.44c-0.26,0.03-0.61,0.13-0.87,0.13
		c-0.16,0-0.22,0.13-0.22,0.22c0,0.16,0.16,0.23,0.45,0.23c0.45,0,1.09-0.03,1.64-0.06c0.61-0.03,1.15-0.03,1.22-0.03
		c0.42,0,1.15,0,2.34,0.06c1.16,0.03,2.79,0.1,4.9,0.1c1.09,0,1.38,0,1.57-0.71c0.16-0.57,0.38-2.43,0.38-2.63
		C277.64,30.11,277.61,29.88,277.45,29.88 M299.65,12.97c-0.55,0-2.57,0.07-2.76,0.07c-0.22,0-1.22-0.07-1.95-0.07
		c-0.29,0-0.45,0.07-0.45,0.16c0,0.13,0.16,0.26,0.41,0.32c0.32,0.1,0.45,0.32,0.45,0.71c0,0.35-0.13,0.8-0.48,1.41
		c-0.51,0.89-4.04,6.73-4.61,7.88l-5.13-8.49c-0.19-0.35-0.38-0.67-0.38-1.06c0-0.22,0.13-0.35,0.35-0.45
		c0.26-0.09,0.45-0.19,0.45-0.29c0-0.13-0.06-0.19-0.39-0.19c-1.09,0-2.24,0.07-2.43,0.07c-0.12,0-2.24-0.07-2.78-0.07
		c-0.26,0-0.35,0.07-0.35,0.19c0,0.13,0.13,0.26,0.29,0.26c0.23,0,0.77,0.13,1.19,0.38c0.51,0.35,1.18,0.96,1.85,1.99
		c0.96,1.44,4.78,7.5,5,7.91c0.42,0.77,0.61,1.32,0.61,2.79v2.34c0,0.45,0,1.6-0.06,2.72c-0.07,0.8-0.26,1.31-0.84,1.44
		c-0.25,0.06-0.57,0.13-0.83,0.13c-0.16,0-0.23,0.13-0.23,0.22c0,0.16,0.13,0.23,0.45,0.23c0.84,0,2.63-0.1,2.76-0.1
		c0.16,0,1.99,0.1,3.56,0.1c0.29,0,0.45-0.1,0.45-0.23c0-0.09-0.07-0.22-0.23-0.22c-0.26,0-0.9-0.06-1.28-0.13
		c-0.83-0.13-1.02-0.64-1.09-1.44c-0.1-1.12-0.1-2.27-0.1-2.72v-2.34c0-0.9-0.12-1.76,0.36-2.72c0.57-1.15,4.55-7.56,5.48-8.65
		c0.61-0.74,0.87-1.02,1.41-1.35c0.45-0.26,1-0.35,1.32-0.35c0.22,0,0.35-0.16,0.35-0.29C300,13.03,299.85,12.97,299.65,12.97
		 M84.27,53.45c-0.15,0-0.17,0.07-0.22,0.29c-0.07,0.39-0.37,1.27-0.83,1.74c-0.86,0.85-1.93,0.98-3.55,0.98
		c-4.6,0-7.75-3.55-7.75-7.53c0-2.1,0.34-3.96,1.93-5.43c0.76-0.71,2.08-1.44,4.84-1.44c1.91,0,3.47,0.51,4.23,1.15
		c0.56,0.44,0.91,1.27,0.91,2.08c0,0.29,0.02,0.44,0.17,0.44c0.12,0,0.22-0.12,0.24-0.44c0.03-0.29,0.03-1.44,0.05-2.13
		c0.05-0.76,0.1-1,0.1-1.17c0-0.12-0.05-0.22-0.27-0.22c-0.71-0.02-1.39-0.17-2.2-0.32c-1.05-0.17-2.28-0.24-3.13-0.24
		c-3.3,0-5.26,0.98-6.55,2.22c-1.91,1.86-2.42,4.28-2.42,5.67c0,1.99,0.51,4.36,2.62,6.17c1.69,1.47,3.86,2.22,7.09,2.22
		c1.39,0,3.01-0.12,3.89-0.46c0.37-0.15,0.42-0.22,0.54-0.61c0.22-0.71,0.51-2.52,0.51-2.67C84.46,53.6,84.37,53.45,84.27,53.45
		 M105.72,41.2c4.84,0,8.51,2.96,8.51,7.8c0,4.65-3.45,8.48-8.63,8.48c-5.89,0-8.41-4.42-8.41-8.17
		C97.19,45.97,99.78,41.2,105.72,41.2 M106.21,56.63c1.93,0,5.82-1.03,5.82-7.05c0-4.98-3.03-7.6-6.43-7.6
		c-3.59,0-6.19,2.25-6.19,6.78C99.41,53.6,102.32,56.63,106.21,56.63 M137.59,54.31c-0.12,0-0.2,0.12-0.22,0.27
		c-0.07,0.41-0.24,0.86-0.51,1.17c-0.51,0.61-1.47,0.64-2.59,0.64c-1.69,0-2.52-0.15-2.86-0.49c-0.39-0.37-0.44-1.61-0.44-4.67
		v-3.72c0-3.23,0-3.82,0.03-4.47c0.05-0.74,0.17-1.05,0.81-1.18c0.24-0.02,0.56-0.05,0.71-0.05c0.07,0,0.17-0.07,0.17-0.15
		c0-0.12-0.12-0.17-0.34-0.17c-0.66,0-2.27,0.05-2.37,0.05c-0.12,0-1.47-0.05-2.45-0.05c-0.24,0-0.34,0.05-0.34,0.17
		c0,0.07,0.1,0.17,0.17,0.17c0.2,0,0.57,0.02,0.73,0.05c0.71,0.1,0.83,0.44,0.88,1.15c0.05,0.66,0.05,1.24,0.05,4.47v3.67
		c0,2.01,0,3.64-0.12,4.5c-0.1,0.61-0.15,1-0.56,1.1c-0.19,0.05-0.46,0.1-0.66,0.1c-0.12,0-0.17,0.1-0.17,0.17
		c0,0.12,0.12,0.17,0.34,0.17c0.34,0,0.81-0.03,1.25-0.05c0.42-0.03,0.78-0.03,0.88-0.03c0.64,0,1.37,0.03,2.35,0.05
		c1,0.05,2.2,0.07,3.74,0.07c1.15,0,1.22-0.07,1.37-0.56c0.17-0.61,0.32-1.86,0.32-2.08C137.74,54.4,137.69,54.31,137.59,54.31
		 M160.95,54.31c-0.12,0-0.2,0.12-0.22,0.27c-0.07,0.41-0.24,0.86-0.51,1.17c-0.52,0.61-1.47,0.64-2.59,0.64
		c-1.69,0-2.52-0.15-2.86-0.49c-0.39-0.37-0.44-1.61-0.44-4.67v-3.72c0-3.23,0-3.82,0.02-4.47c0.05-0.74,0.17-1.05,0.81-1.18
		c0.25-0.02,0.56-0.05,0.71-0.05c0.08,0,0.17-0.07,0.17-0.15c0-0.12-0.12-0.17-0.34-0.17c-0.66,0-2.28,0.05-2.37,0.05
		c-0.12,0-1.47-0.05-2.44-0.05c-0.25,0-0.34,0.05-0.34,0.17c0,0.07,0.1,0.17,0.17,0.17c0.19,0,0.56,0.02,0.73,0.05
		c0.71,0.1,0.83,0.44,0.88,1.15c0.05,0.66,0.05,1.24,0.05,4.47v3.67c0,2.01,0,3.64-0.12,4.5c-0.1,0.61-0.15,1-0.57,1.1
		c-0.19,0.05-0.46,0.1-0.66,0.1c-0.12,0-0.17,0.1-0.17,0.17c0,0.12,0.12,0.17,0.34,0.17c0.34,0,0.81-0.03,1.25-0.05
		c0.41-0.03,0.78-0.03,0.88-0.03c0.64,0,1.37,0.03,2.35,0.05c1,0.05,2.2,0.07,3.74,0.07c1.15,0,1.22-0.07,1.37-0.56
		c0.17-0.61,0.32-1.86,0.32-2.08C161.1,54.4,161.05,54.31,160.95,54.31 M183.61,54.4c-0.13,0-0.17,0.07-0.22,0.32
		c-0.12,0.83-0.41,1.2-0.98,1.44c-0.56,0.22-1.59,0.22-2.15,0.22c-2.12,0-2.52-0.27-2.57-1.66c-0.03-0.41,0-2.84,0-3.55v-1.74
		c0-0.07,0.02-0.14,0.15-0.14c0.37,0,2.66,0.02,3.25,0.1c0.83,0.1,1.03,0.34,1.1,0.63c0.1,0.27,0.1,0.49,0.1,0.69
		c0,0.12,0.05,0.19,0.15,0.19c0.14,0,0.2-0.22,0.2-0.39c0-0.15,0.05-0.93,0.1-1.35c0.05-0.68,0.17-1.02,0.17-1.15
		c0-0.12-0.05-0.17-0.12-0.17c-0.08,0-0.17,0.12-0.32,0.27c-0.22,0.22-0.54,0.25-1.05,0.29c-0.49,0.05-3.32,0.05-3.59,0.05
		c-0.12,0-0.12-0.08-0.12-0.22v-5.65c0-0.15,0.02-0.22,0.12-0.22c0.25,0,2.74,0.02,3.1,0.07c1.18,0.15,1.4,0.29,1.54,0.64
		c0.1,0.24,0.12,0.58,0.12,0.74c0,0.17,0.05,0.26,0.17,0.26c0.1,0,0.17-0.12,0.19-0.22c0.05-0.24,0.1-1.17,0.12-1.37
		c0.05-0.59,0.17-0.83,0.17-0.98c0-0.1-0.03-0.19-0.1-0.19c-0.1,0-0.2,0.07-0.3,0.1c-0.17,0.02-0.56,0.1-0.98,0.12
		c-0.48,0.02-4.99,0-5.13,0c-0.12,0-1.52-0.05-2.49-0.05c-0.24,0-0.34,0.05-0.34,0.17c0,0.07,0.1,0.17,0.17,0.17
		c0.19,0,0.56,0.02,0.73,0.05c0.71,0.1,0.83,0.44,0.88,1.15c0.05,0.66,0.05,1.25,0.05,4.47v3.67c0,2.01,0,3.64-0.12,4.5
		c-0.1,0.61-0.15,1.03-0.56,1.1c-0.2,0.03-0.46,0.1-0.66,0.1c-0.12,0-0.17,0.1-0.17,0.17c0,0.12,0.12,0.17,0.35,0.17
		c0.34,0,0.83-0.03,1.25-0.05c0.47-0.03,0.88-0.03,0.93-0.03c0.32,0,0.88,0,1.79,0.05c0.88,0.03,2.13,0.07,3.74,0.07
		c0.84,0,1.06,0,1.2-0.54c0.12-0.44,0.29-1.86,0.29-2C183.75,54.57,183.73,54.4,183.61,54.4 M212.76,49.41c-0.66,0-2,0.05-2.1,0.05
		c-0.12,0-1.56-0.05-2.54-0.05c-0.25,0-0.35,0.03-0.35,0.17c0,0.08,0.1,0.17,0.17,0.17c0.2,0,0.56,0.03,0.73,0.05
		c0.88,0.17,0.93,0.42,0.93,2.1v3.59c0,0.39-0.17,0.49-0.44,0.64c-0.57,0.32-1.57,0.39-2.32,0.39c-1.98,0-3.79-0.59-5.51-2.18
		c-0.76-0.71-2.27-2.81-2.27-5.75c0-2.42,0.88-4.28,2.13-5.23c1.63-1.25,3.2-1.34,4.5-1.34c2.79,0,4.42,0.83,4.96,1.61
		c0.34,0.49,0.47,1.1,0.49,1.37c0,0.19,0.03,0.31,0.15,0.31c0.15,0,0.25-0.09,0.25-0.44c0-2.08,0.12-2.64,0.12-2.93
		c0-0.1-0.05-0.2-0.26-0.2c-0.54,0-1.3-0.12-1.74-0.22c-0.42-0.1-1.93-0.34-3.3-0.34c-1.64,0-3.79,0.15-5.72,1.32
		c-1.91,1.15-3.6,3.5-3.6,6.82c0,2.59,1.25,4.81,2.57,5.92c2.4,2.03,5.45,2.22,7.09,2.22c1.25,0,3.2-0.22,4.57-0.93
		c0.27-0.15,0.29-0.17,0.29-1.12v-2.33c0-0.88,0-1.49,0.02-2.15c0.05-0.73,0.22-1.05,0.81-1.15c0.24-0.05,0.39-0.05,0.54-0.05
		c0.07,0,0.17-0.1,0.17-0.17C213.1,49.44,213.01,49.41,212.76,49.41 M236.19,54.4c-0.12,0-0.17,0.07-0.22,0.32
		c-0.12,0.83-0.42,1.2-0.98,1.44c-0.56,0.22-1.59,0.22-2.15,0.22c-2.13,0-2.52-0.27-2.57-1.66c-0.02-0.41,0-2.84,0-3.55v-1.74
		c0-0.07,0.03-0.14,0.15-0.14c0.37,0,2.66,0.02,3.25,0.1c0.83,0.1,1.03,0.34,1.1,0.63c0.1,0.27,0.1,0.49,0.1,0.69
		c0,0.12,0.05,0.19,0.14,0.19c0.15,0,0.2-0.22,0.2-0.39c0-0.15,0.05-0.93,0.1-1.35c0.05-0.68,0.17-1.02,0.17-1.15
		c0-0.12-0.05-0.17-0.12-0.17c-0.07,0-0.17,0.12-0.31,0.27c-0.22,0.22-0.54,0.25-1.06,0.29c-0.48,0.05-3.32,0.05-3.59,0.05
		c-0.12,0-0.12-0.08-0.12-0.22v-5.65c0-0.15,0.03-0.22,0.12-0.22c0.25,0,2.74,0.02,3.11,0.07c1.17,0.15,1.39,0.29,1.54,0.64
		c0.1,0.24,0.12,0.58,0.12,0.74c0,0.17,0.05,0.26,0.17,0.26c0.1,0,0.17-0.12,0.19-0.22c0.05-0.24,0.1-1.17,0.12-1.37
		c0.05-0.59,0.17-0.83,0.17-0.98c0-0.1-0.03-0.19-0.1-0.19c-0.1,0-0.2,0.07-0.29,0.1c-0.17,0.02-0.56,0.1-0.98,0.12
		c-0.49,0.02-4.99,0-5.14,0c-0.12,0-1.52-0.05-2.49-0.05c-0.24,0-0.34,0.05-0.34,0.17c0,0.07,0.1,0.17,0.17,0.17
		c0.19,0,0.56,0.02,0.74,0.05c0.71,0.1,0.83,0.44,0.88,1.15c0.05,0.66,0.05,1.25,0.05,4.47v3.67c0,2.01,0,3.64-0.12,4.5
		c-0.1,0.61-0.15,1.03-0.57,1.1c-0.2,0.03-0.46,0.1-0.66,0.1c-0.12,0-0.17,0.1-0.17,0.17c0,0.12,0.12,0.17,0.35,0.17
		c0.34,0,0.83-0.03,1.25-0.05c0.47-0.03,0.88-0.03,0.93-0.03c0.32,0,0.88,0,1.79,0.05c0.88,0.03,2.13,0.07,3.74,0.07
		c0.84,0,1.05,0,1.2-0.54c0.12-0.44,0.29-1.86,0.29-2C236.34,54.57,236.32,54.4,236.19,54.4"/>
	<path fill="#A6A6A6" d="M49.31,40.76c0.44,1.83,1.78,2.63,3.39,2.83c1.93,0.23,4.27-0.4,5.95-1.17c-1.49-1.77-3.49-4.18-5.95-4.13
		c-0.52,0.01-1.06,0.13-1.63,0.39c-0.54,0.26-1.03,1.1-1.66,1.25c-0.49,0.11-1.2,0.1-1.76,0.07c-3.57,0.09-5.36,0.4-7.48,1.07
		c0.57-1.02,1.09-2.08,1.87-2.9c4.81,0.46,6.17-3.32,5.3-7.89c-2.85,0.94-7.33,1.66-6.75,5.71c0.1,0.68,0.51,1.1,0.73,1.87
		c-1.93,2.39-3.94,5.26-5.91,7.26c0.13-2.15,0.21-4.36,0.21-6.64c1.75-2.89,4.74-5.87,7.37-8.2c0.97-0.86,1.9-1.95,2.91-2.38
		c1.36-0.59,4.45-1.39,5.5,0.21c-1.52,0.43-2.33,2.43-2.07,3.74c0.25,1.27,1.68,2.79,3.26,2.79c0.04,0,0.08-0.01,0.13-0.02
		c1.82-0.08,2.89-1.77,2.89-3.12c0-1.41-1.15-2.96-2.89-3.31c-0.32-0.06-0.65-0.11-1-0.08c-0.7-2.06-4.07-1.03-5.71-0.52
		c1.05-1.2,2.69-1.81,4.46-2.28c0.54,0.95,1.35,1.43,2.25,1.59c2.19,0.38,4.96-1.17,5.95-2.73c-1.4-0.77-3.42-2.5-5.71-2.07
		c-0.09,0.02-0.16,0.04-0.24,0.07c-1.08,0.32-1.58,1.3-2.35,2.11c-0.6,0.03-1.14,0.1-1.66,0.21c0.59-0.8,1.21-1.34,2.04-2.23
		c0.53-0.57,1.29-1.61,1.98-2.06c0.12-0.08,0.23-0.14,0.35-0.17c1.25-0.38,2.19-0.03,3.11-0.52c1.78-0.95,1.91-3.42,1.25-6.23
		c-1.66,0.28-3.56,0.87-4.71,1.96c-1.02,0.98-1.44,2.35-0.49,4.26c-1.02,1.09-2.14,2.63-3.21,3.32c0.09-0.89,0.22-2.25,0-3.11
		c3.44-2.34-0.62-6.14-3.22-6.44c-1.08,2.44-1.22,6.83,2.18,6.75c0.12,6.35-6.49,9.49-9.46,12.74c-0.08-0.56,0.3-1.75,0.56-2.35
		c3.7-0.55,2.43-5.75,0.91-7.39c-2.66,0.86-5.14,5.72-1.66,7.37c-0.33,2.47-1.65,3.95-2.8,5.61c0.4-2.63,0-5.52,0.21-8.51
		c0.14-2.07,1.44-5.5,2.8-5.81c1.05-0.24,1.88,0.35,2.7,0.21c2.46-0.42,2.47-3.13,2.8-5.71c-3.47,0.17-7.07,0.73-6.33,4.77
		c-0.89,0.91-1.69,1.91-2.38,3.01c0.07-1.31-0.18-2.31-0.11-3.63c0.93-0.85,1.91-1.49,1.97-2.9c0.09-1.95-1.68-3.19-2.08-4.46
		c-1.27,1.35-2.91,2.56-2.59,4.67c0.19,1.24,1.97,2.7,1.97,2.7s-0.14,2.54-0.21,3.74c-0.27-1.1-2.19-1.84-2.38-3.11
		c-0.11-0.72-0.08-1.29-0.21-1.77c-0.62-2.26-2.82-3.54-5.71-2.91c0.17,3.42,1.38,6.26,5.29,5.61c1,1.2,2.04,1.93,2.6,3.53
		c0.92,2.65-0.29,7.47,0.31,10.58c-1.43-1.68-3.01-3.22-3.22-6.13c0.78-0.73,1.87-1.31,2.07-2.38c0.43-2.23-1.99-3.36-3.22-4.36
		c-0.78,1.39-2.49,3.77-1.24,5.6c0.42,0.61,1.09,0.72,1.66,1.35c-0.08,0.66,0.12,1.05,0.11,1.66c-1.29-1.37-2.93-2.63-4.57-4.15
		c-1.91-1.76-4.83-3.79-4.04-7.68c3.41,0.2,3.53-4.22,2.07-6.33c-2.26,0.78-4.87,1.7-4.36,4.26c0.15,0.73,1.66,2.17,1.66,2.17
		s0.1,2.9-0.02,3.09s-3.65-3.53-3.65-3.53s0.51-1.19,0.57-1.52c0.21-3.69-2.28-4.03-5.4-4.46c-1.04,3.56,0.25,7.04,4.25,6.54
		c1.34,1.42,4.6,4.64,4.6,4.64s-1.01-0.16-1.54-0.22c-1.08-3.55-6.95-2.61-8.66-0.38c1.81,1.16,3.01,3.07,5.81,2.7
		c1.32-0.18,2.01-1.65,2.91-1.66c2.26-0.02,2.74,1.48,3.98,2.15l-0.45-0.27c-1.53-0.43-2.81-0.61-4.36-0.11
		c-0.34,0.11-0.75,0.35-1.14,0.83c-0.41,0.19-3.76,0.21-3.73,4.35c0.02,1.91,1.66,3.38,3.15,3.27c2.92-0.14,3.88-1.74,4.02-3.4
		c0.15-1.7-1.25-3.89-3.02-4.22c1.19-1.19,4.87-0.67,6.33,0.11c0.69,0.36,1.62,1.51,2.39,2.28c0.82,0.83,1.57,1.6,2.28,2.39
		c0.98,1.07,3.74,3.95,4.15,5.3c0.71,2.34-0.2,5.05,0.32,7.26c-1.02-1.17-1.68-2.27-2.7-3.63c-0.73-0.98-2.57-2.66-2.7-3.74
		c-0.06-0.51,0.29-1.05,0.31-1.56c0.5-3.43-2.74-4.86-6.13-5.71c-1.38,4.44,0.43,8.13,4.98,7.89c0.64,0.94,1.31,1.87,1.87,2.91
		c-2.41-1.19-5.47-1.73-9.24-1.56c-2.78-3.07-7.83-0.69-9.13,2.18c1.84,0.45,3.84,2.1,6.23,1.66c1.59-0.29,2.2-1.73,3.01-3.01
		c1.18,0.1,2.79-0.23,3.63,0.21c-1.66,0.15-2.61,0.71-3.84,1.76c-0.83,0.71-1.98,2.64-2.8,2.91c-0.42,0.14-0.98-0.04-1.35,0
		c-2.66,0.31-3.71,2.41-3.69,4.75c0.01,1.01,0.21,2.06,0.58,3.03c2.24-0.26,4.87-1.36,6.03-3.03c0.82-1.19,0.91-2.66-0.43-4.34
		c1.96-2.24,4.91-5.57,9.25-4.09c-1.18-0.03-1.7,0.84-1.98,1.71c-2.01-0.01-3.54,2.17-3.54,3.31c0,1.25,0.68,2.6,1.68,3.42
		c0.57,0.46,1.25,0.76,1.97,0.76c0.52-0.01,1.24-0.28,1.9-0.76c0.97-0.71,1.81-1.89,1.7-3.45c-0.08-1.16-1.61-2.98-3.4-3.38
		c0.21-1.14,1.34-1.36,2.8-1.25c1.77,1.09,4.36,3.11,4.77,5.4c0.15,0.86,0.11,1.75,0.05,2.68c-0.07,1.05-0.17,2.15-0.05,3.34
		c0.51,0.17,1.67,0.17,2.18,0c0.17-1.15,0.04-2.25-0.06-3.34c-0.08-0.96-0.14-1.91,0.06-2.89c0.29-1.39,2.07-2.92,3.11-3.74
		c1.23-0.95,3.03-2.61,4.26-0.2c-1.79,0.15-3.28,2.25-3.23,3.19c0.13,2.14,2.28,3.51,3.46,3.46s3.46-1.45,3.46-3.46
		c0-1.48-1.49-3.02-3.38-3.19c-0.32-0.96-0.8-1.28-1.56-1.56c4.02-0.52,6.87,1.81,8.93,3.94c-1.02,1.73-1.01,3.23-0.38,4.44
		c1.07,2.05,3.91,3.3,6.61,3.55c0.97-4.35,0.05-8.53-4.39-8.48c-0.32,0-0.65,0.02-1,0.07c-1.75-1.81-3.62-3.5-6.22-4.46
		C46.66,40.73,48,40.75,49.31,40.76 M52.7,38.59c0.04,0,0.09-0.01,0.14-0.01c2.28,0.02,3.68,2.15,4.88,3.11
		c-1.41-0.42-3.19-0.91-5.02-1.3c-0.82-0.18-1.65-0.34-2.46-0.46C50.16,39.41,51.54,38.63,52.7,38.59 M52.7,41.11
		c1.78,0.29,3.44,0.7,5.12,1.1c-1.23,0.85-3.35,1.36-5.12,1.11c-1.51-0.21-2.76-0.98-2.98-2.55C50.78,40.82,51.75,40.95,52.7,41.11
		 M42.26,37.86c1.45-2.4,3.29-4.39,4.78-6.75C47.91,35.04,46.4,38.26,42.26,37.86 M46.93,30.69c-1.56,2.13-3.57,4.73-5.5,6.84
		C39.28,33.32,43.56,31.34,46.93,30.69 M52.7,22.57c1.66-0.39,3.92,0.36,5.02,1.27c-1.56,0.1-3.33,0.04-5.02,0.13
		c-0.63,0.03-1.24,0.09-1.83,0.18C51.18,23.25,51.87,22.77,52.7,22.57 M52.7,24.89c1.7-0.25,3.47-0.43,5.33-0.53
		c-0.87,1.28-3.42,2.64-5.33,2.25c-0.76-0.16-1.42-0.58-1.83-1.42C51.47,25.08,52.09,24.98,52.7,24.89 M53.01,19.64
		c1.35-1.93,3.05-3.52,4.19-5.66C58.27,17.29,56.74,19.71,53.01,19.64 M52.7,15.72c0.82-1.11,2.42-1.69,3.98-1.95
		c0.12,0.28-0.46,0.9-0.83,1.35c-0.98,1.2-2.04,2.73-3.15,3.87c-0.07,0.07-0.13,0.15-0.2,0.22C51.91,17.69,52.09,16.55,52.7,15.72
		 M48.83,19.3c-0.66-2.27-1.23-3.95-2.31-5.53C48.63,14.28,51.47,17.51,48.83,19.3 M45.89,13.78c0.93,1.66,1.95,3.54,2.07,5.71
		C44.93,20.11,45.09,15.92,45.89,13.78 M39.13,29.9c0.21-2.01,0.68-4.11,0.84-6.16C41.48,25.08,42,29.39,39.13,29.9 M39.66,23.53
		c-0.48,2.08-0.88,4.23-1.24,6.43C35.17,28.75,37.58,24.28,39.66,23.53 M38.82,21.29c-0.23-0.27,0.46-0.63,0.84-0.98
		c1.16-1.07,2.63-2.46,3.84-3.53C43.94,19.78,42.25,22.49,38.82,21.29 M43.4,16.47c-1.63,1.52-3.85,3-5.5,4.15
		C37.48,16.99,40.53,16.81,43.4,16.47 M26.38,16.99c1.55,1.53,3.19,2.97,4.57,4.67C27.56,21.98,26.54,19.91,26.38,16.99
		 M26.51,16.51c3.23-0.53,4.84,1.75,5.06,4.51C31.25,20.99,26.45,16.5,26.51,16.51 M12.68,14.19c1.25,1.84,2.64,4.07,3.84,5.61
		C13.07,20.1,12.05,17.34,12.68,14.19 M12.99,13.98c2.85-0.14,5.46,1.73,4.26,5.32C15.47,17.86,14.44,15.75,12.99,13.98
		 M17.47,26.28c-2.21,0.77-4.25-0.84-5.41-1.82c2.19-0.01,4.98,0.28,7.16,0.62C18.85,25.54,18.1,26.06,17.47,26.28 M11.95,23.94
		c1.64-1.96,6.28-1.83,7.45,0.5C17.1,24.15,14.32,24.17,11.95,23.94 M21.81,19.58c0.47-1.95,1.07-3.77,1.87-5.4
		C25,16.03,24.71,19.72,21.81,19.58 M21.13,19.51c-2.9-2.57-0.22-4.72,1.93-5.53c0.32,0,0.16,0,0.1,0.1
		C22.28,15.7,21.47,17.37,21.13,19.51 M29.7,23.74c0.43,1.64,0.32,3.83,0.42,5.81C27.48,28.62,28.49,25.21,29.7,23.74 M30.11,23.74
		c0.78,0.59,2.59,1.47,2.7,3.01c0.08,1.18-1.02,2.3-1.87,2.7C30.6,27.61,30.46,25.57,30.11,23.74 M22.85,31.11
		c1.58,2.3,3.14,4.61,4.57,7.06C23.72,38,21.73,35.25,22.85,31.11 M28.25,37.65c-1.76-2.22-3.43-4.53-5.19-6.75
		C26.26,31.52,29.23,33.34,28.25,37.65 M12.89,40.24c1.55-1.46,4.9-2.71,6.85-0.62c-2.6,0.48-5.36,0.8-7.57,1.66
		C12.08,40.95,12.57,40.54,12.89,40.24 M11.93,41.79c2.39-0.72,5.15-0.88,8.01-1.14C19.09,43.91,14.95,43.51,11.93,41.79
		 M12.6,50.18c-0.06-2.59,1.46-4.9,4.65-4.44c-0.97,1.46-1.94,2.91-2.84,4.44c-0.46,0.78-0.9,1.57-1.31,2.41
		C12.78,51.81,12.61,50.98,12.6,50.18 M18.62,50.18c-1.03,1.39-3.19,2.31-5.01,2.51c-0.05-0.59,0.58-0.96,0.93-1.45
		c0.24-0.34,0.49-0.7,0.75-1.06c0.95-1.36,1.96-2.82,2.99-4.02C19.56,47.71,19.43,49.09,18.62,50.18 M35.2,19.8
		c0.07-2.11-0.09-4-0.1-6.02C36.83,14.88,37.59,19.19,35.2,19.8 M34.68,13.67c0.14,1.8-0.14,4.08-0.21,6.02
		C32.01,18.39,32.87,14.89,34.68,13.67 M52.7,45.65c3.92-0.32,5.05,3.45,4.18,7.46c-1.34-2.22-2.6-4.53-4.18-6.51
		c-0.23-0.29-0.45-0.59-0.69-0.86C52.25,45.69,52.48,45.67,52.7,45.65 M52.7,47.97c1.35,1.68,2.53,3.55,3.77,5.34
		c-2.3-0.28-4.67-1.33-5.64-3.13c-0.59-1.1-0.66-2.48,0.14-4.13C51.6,46.65,52.16,47.3,52.7,47.97"/>
</g>
</svg>
