<svg id="Layer_1" xmlns="http://www.w3.org/2000/svg" width="175" height="45" viewBox="0 0 175 45"><style>.st0{fill:#000}</style><g id="XMLID_494_"><g id="XMLID_445_"><g id="XMLID_479_"><path id="XMLID_480_" class="st0" d="M62.1 35.1v.1h-.6v-.1c-.3-1.1-1.3-1.5-2.2-1.5-1.8 0-2.6 1.6-2.6 3.5 0 3.3 2.1 3.8 3 3.8.8 0 1.6-.4 2.1-1.2v-.1h.1l.4.2-.4 1.5h-.1l-2.1.3c-3.3 0-4.7-2.2-4.7-4.4 0-2.5 1.8-4.3 4.2-4.3 1.4 0 2 .3 2.7.5h.1l.1 1.7"/></g><g id="XMLID_476_"><path id="XMLID_477_" class="st0" d="M67.4 41.4H65V41h.1c.3 0 .4-.3.5-.8v-1.7l-.1-4.2c0-.5 0-.8-.4-.8H65V33H67.4v.5h-.1c-.3 0-.3.2-.3.6v6.1c0 .4.1.7.4.8h.1v.1l-.1.3z"/></g><g id="XMLID_473_"><path id="XMLID_474_" class="st0" d="M75.9 41.6h-2.5v-.4h.1c.5-.2.6-.4.6-1v-1.9L74 34h-1.4c-.6 0-.8.2-1 .8v.1H71V33h.1l.6.1H77.1a3 3 0 0 0 1-.2l.1-.1V34.7h-.6v-.1c-.1-.7-.4-.8-1-.8h-1.3l-.1 3.6v2.5c0 .7.2.9.6 1h.1v.7z"/></g><g id="XMLID_470_"><path id="XMLID_471_" class="st0" d="M85.5 41.4H83V41h.1c.5-.1.6-.3.6-.8V38l-2-3.6c-.2-.4-.3-.6-.6-.8V33H83.5v.4h-.1c-.2.1-.3.1-.3.3l.2.7 1.3 2.5 1.3-2.4.2-.8c0-.2-.2-.3-.4-.3h-.1V33h2.2v.4h-.1c-.3.1-.5.4-.8.9L85 37.7v2.4c0 .6.1.7.6.8h.1v.1l-.2.4z"/></g><g id="XMLID_467_"><path id="XMLID_468_" class="st0" d="M104.1 35.1v.1h-.6v-.1c-.3-1.1-1.3-1.5-2.2-1.5-1.8 0-2.6 1.6-2.6 3.5 0 3.3 2.1 3.8 3 3.8.8 0 1.6-.4 2.1-1.2v-.1h.1l.4.2-.4 1.5h-.1l-2.1.3c-3.3 0-4.7-2.2-4.7-4.4 0-2.5 1.8-4.3 4.2-4.3 1.4 0 2 .3 2.7.5h.1l.1 1.7z"/></g><g id="XMLID_461_"><path id="XMLID_462_" class="st0" d="M111.3 33c2.5 0 4.3 1.6 4.3 4.4 0 2.8-1.8 4.4-4.3 4.4s-4.3-1.6-4.3-4.4c0-2.8 1.8-4.4 4.3-4.4m0 8.2V41c1.8 0 2.6-1.7 2.6-3.7 0-1.9-.8-3.7-2.6-3.7s-2.6 1.7-2.6 3.7c0 1.9.8 3.7 2.6 3.7v.2m2.8-3.8"/></g><g id="XMLID_458_"><path id="XMLID_459_" class="st0" d="M124.5 41.6l-.5-.1H119V41h.1c.4 0 .6-.3.6-.6v-6c0-.5-.2-.8-.6-.9h-.1V33h2.6v.4h-.1c-.4.1-.5.3-.5.9v6.2l1.1.1c1.9 0 2.1-.3 2.4-1.1v-.1h.1l.5.3-.6 1.9z"/></g><g id="XMLID_455_"><path id="XMLID_456_" class="st0" d="M133.5 41.6l-.5-.1H128V41h.1c.4 0 .6-.3.6-.6v-6c0-.5-.2-.8-.6-.9h-.1V33h2.6v.4h-.1c-.4.1-.5.3-.5.9v6.2l1.1.1c1.9 0 2.1-.3 2.4-1.1v-.1h.1l.5.3-.6 1.9z"/></g><g id="XMLID_452_"><path id="XMLID_453_" class="st0" d="M142.2 41.7l-.5-.1H137v-.5h.1c.4-.1.5-.3.5-.6v-2l-.1-4.3c0-.2-.2-.4-.5-.5h-.1v-.5h4.4l.8-.2h.1v2h-.6v-.1c-.2-.6-.4-.9-1-.9H139v2.9h1.5c.6 0 .7 0 1-.6v-.1h.5v2.2h-.5v-.1c-.3-.8-.4-.8-1-.8H139v3.1h1.7c.8 0 1-.1 1.5-.8v-.1h.1l.4.2-.5 1.8z"/></g><g id="XMLID_449_"><path id="XMLID_450_" class="st0" d="M146 37.3c0-3.2 2.5-4.3 4.7-4.3 1 0 1.7.2 2.4.4h.1l.1 1.3h-.1v-.1.1h.1v.1h-.6a2 2 0 0 0-1.9-1.1c-2 0-3 1.4-3 3.5 0 2.2 1.1 3.8 3.2 3.8l1.2-.2c.2-.2.2-.3.2-1.1s-.1-.8-.4-1h-.1v-.5h2.2v.4h-.1c-.2 0-.3.1-.3.8v1.5h-.1c-.8.4-1.8.6-2.7.6-2.4.2-4.9-1.2-4.9-4.2z"/></g><g id="XMLID_446_"><path id="XMLID_447_" class="st0" d="M162.2 41.7l-.5-.1H157v-.5h.1c.4-.1.5-.3.5-.6v-2l-.1-4.3c0-.2-.2-.4-.5-.5h-.1v-.5h4.4l.8-.2h.1v2h-.6v-.1c-.2-.6-.4-.9-1-.9H159v2.9h1.5c.6 0 .7 0 1-.6v-.1h.5v2.2h-.5v-.1c-.3-.8-.4-.8-1-.8H159v3.1h1.8c.8 0 1-.1 1.5-.8v-.1h.1l.4.2-.6 1.8z"/></g></g><g id="XMLID_411_"><path id="XMLID_415_" class="st0" d="M54.2 25.7l-1-.3-1-.1h-9.3.1v-.7h.1c.8 0 1.3-.6 1.3-1.3V12.4c0-1.1-.5-1.6-1.2-1.8V10h.1l2.3.1 2.3-.1h.1v.6c-.8.2-1 .7-1 1.9l-.1 4V24l3.2.1h-.4c3.5 0 4.4-.7 4.9-2V22l.8.4-1.2 3.3zM63.6 12c3.9 0 6.6 2.4 6.6 6.7 0 4.3-2.7 6.7-6.6 6.7-3.9 0-6.6-2.4-6.6-6.7 0-4.3 2.7-6.7 6.6-6.7zm0 12.6c2.9 0 4.2-2.9 4.2-5.9 0-3.1-1.3-5.9-4.2-5.9-2.9 0-4.2 2.9-4.2 5.9 0 3.1 1.3 5.9 4.2 5.9zm24.4-6c0-4.9 3.8-6.6 7.3-6.6 1.6 0 2.7.3 3.8.7l.1 1.9h-.1v-.1.1h.1v.1h-.8c-.6-1.3-1.9-1.7-3.1-1.7-3.2 0-4.9 2.3-4.9 5.7 0 3.5 1.8 6.1 5.1 6.1.9 0 1.5-.1 1.9-.4.4-.3.4-.5.4-1.8s-.2-1.4-.7-1.6v-.5h.1l1.6.1 1.6-.1h.1v.6c-.4.1-.6.3-.6 1.4l.1 2.2c-1.3.6-2.8.9-4.2.9-3.9-.1-7.8-2.3-7.8-7zm24.3 4.6c0 1.2 1.5 1.4 2.7 1.4 1.7 0 2.7-1.4 2.7-3 0-2-1.1-3.5-3-3.5h-2.4v5.1zm2.3 2.2H109v-.5c.9-.1 1.1-.4 1.1-1.3V19l-.1-7.4c0-.8-.3-1-.8-1.1V10l2.6.1 3.2-.1c2.3 0 5 1.1 5 4 0 1.9-1.4 3.1-2.8 3.6 1.8.6 3.1 1.8 3.1 4 0 2.9-2.6 3.8-4.8 3.8h-.9zm0-8.3c1.8 0 2.9-1.2 2.9-3.1 0-1.9-.8-3.1-2.9-3.1-.6 0-2.1 0-2.1.4l-.1 5.8h2.2zm17.5 8.4l-.8-.2-.8-.1H124v-.6c.6-.1.9-.5.9-1.1v-3.1l-.1-6.8c0-.4-.3-.7-.8-.8v-.5h6.8l1.3-.3h.1v.1l-.1 1.4.1 1.4v.1H131.4c-.3-.9-.7-1.5-1.6-1.5h-2.9v4.8h2.5c1 0 1.3-.1 1.7-1h.6v.1l-.1 1.6.1 1.6v.1h-.6c-.4-1.3-.6-1.3-1.6-1.3H127v5.1h2.8c1.3 0 1.7-.2 2.4-1.4l.6.3-.7 2.1zm13.5-.2l-1.7-.1-1.7.1h-.1v-.6h.1c.3 0 .5-.2.5-.6l-.2-.9-.6-1.7H138l-.4 1.6-.1.9c0 .4.2.7.6.7h.1v.6h-.2l-1.5-.1-1.5.1v-.6c.6-.1 1.3-1.9 1.6-2.7l3.6-10h.2l3.7 10.5c.6 1.7.8 2.2 1.3 2.3v.1l.2.4zm-7.3-4.8h3.2l-1.6-4.7-1.6 4.7zm8.7-1.8c0-3.9 2.7-6.7 6.6-6.7 2.2 0 3.1.4 4.3.7l.1 2.5h-.1v-.1.1h.1v.1h-.8c-.5-1.7-2.2-2.4-3.6-2.4-2.9 0-4.1 2.6-4.1 5.7 0 5.2 3.4 6.1 4.8 6.1s2.6-.6 3.3-1.9l.6.3-.5 2.1a14 14 0 0 1-3.3.4c-5.1-.1-7.4-3.5-7.4-6.9zm23.5.6a22 22 0 0 1-3.3-.6c-1.8-.4-2.6-.2-3.3-.1v4.6c0 .6.2 1.3.8 1.3h.1v.6h-.1L163 25l-1.7.1h-.1v-.6c.5 0 .8-.5.8-1.3v-2.7l-.2-6.7c0-.8-.1-1.3-.7-1.4V12h.1l1.7.1 1.8-.1v.5c-.6.1-.6.5-.7 1.2v4c.2 0 1.3-.3 2.2-.3 1.7 0 3.5.4 4.4.6v-.3l-.1-3.7c0-.8-.1-1.3-.7-1.4V12h.1l1.8.1 1.7-.1h.1v.6c-.6.1-.6.5-.7 1.2l-.1 4.5c.6 0 1.1-.2 1.7-.5l-.1.6c-.3.3-.9.7-1.5.9h-.1v4.1c0 .6.2 1.3.8 1.3h.1v.6h-.1l-1.7-.1-1.7.1h-.1v-.8h.1c.5 0 .8-.5.8-1.3-.3-1.3-.4-2.5-.4-3.9z"/><g id="XMLID_412_"><g id="XMLID_413_"><path id="XMLID_414_" class="st0" d="M84.5 26.7l-1-1.2-8.3-9.9.1 6.9c0 1.4.4 2.1 1.2 2.3v.5h-.1l-1.7-.1-1.7.1v-.5c.6-.2 1-.7 1-1.7v-11h.8L83 22v-6.2c0-2.3-.4-2.8-1.2-2.9v-.5h.1l1.7.1 1.7-.1h.1v.6c-.7.1-1.1.7-1.1 2.2v6.5s.1 2.6.4 3.4l.5 1.2-.7.4z"/></g></g></g><path id="XMLID_407_" d="M25.4 40c8.5 0 12.3-5.5 12.3-10.8 0-5.8-4.6-9.4-8.4-10.7 2.5-2.2 4.7-4.6 4.7-8.7 0-2.4-1.2-6.5-7.4-7.3-2-.2-15.5 0-15.6 0-2.9 0-5.3 0-6.6-.3C2.7 1.9 1.2 1.6.6.3.2-.4-.2.3.1.9c.2.5.5 1.1 1.1 1.8C3.4 5 8.5 4.9 9.6 8.1c.5 1.6-.4 3-1.7 3.2l-.2.2V27.2c0 5.6 0 10.4-.3 12.9-.2 1.8-.5 3.1-1.6 3.3l-2 .2c-.7 0-.9.2-.9.5 0 .4.4.6 1.1.6l3.9-.1 3.2-.1a496.7 496.7 0 0 1 21.5.4c2.9 0 3.2-.3 3.5-1.6l1.5-6.5c.1-.7.1-1-.3-1.1-.4-.1-.5.3-.8.8a8.2 8.2 0 0 1-3 3.3 10.6 10.6 0 0 1-6.6 1.7c-4.4 0-10.2-.4-11.1-1.3-.7-.5-1.3-1.6-1.3-3.6V5.7c0-1.2 1.8-1.2 1.8.3l.1 12.2v2.1l-.1 15.5c-.1 2 .6 3.7 4 4l5.1.2zM21.5 5.2c0-.5.1-.7.4-.8l1.5-.1c4 0 5.8 4.4 5.8 7.7 0 2.4-.7 4.2-1.9 5.3-.8.7-1.8.9-3.3.9l-2.2-.1c-.2 0-.3-.1-.3-.5V5.2zm0 15.4c0-.2.1-.3.3-.3l2 .1c1.8.1 2.9.4 3.8 1.2 3.5 2.6 4.5 6.8 4.5 9.9 0 5.2-3.5 6.4-5.6 6.4-1.1 0-2.1 0-3.4-.6-1.5-.6-1.6-1.5-1.6-4.8V20.6z" fill="#ee3124"/><g id="XMLID_402_"><path id="XMLID_405_" class="st0" d="M38.7 42.3l-.1-.1h-.1c-.2 0-.3 0-.4.3H38l.1-.4.2.1h1.1l.2-.1v.4h-.1c0-.2-.1-.3-.4-.3h-.2l-.1.1v1.2l.1.3h.1v.1h-.8v-.1h.1l.1-.3v-1.2z"/><path id="XMLID_403_" class="st0" d="M42 43.9c.1 0 .1 0 0 0l-.3.1h-.4v-.1h.1l.1-.2v-1.2l-.2.4-.2.5-.3.6h-.1l-.2-.6-.2-.5-.2-.4v1.2l.1.3h.1v.1h-.6V44l.2-.2v-.7-.6l-.1-.2h-.1v-.1h.5l.1.5.3.7.1.3.1-.3.2-.5.2-.5h.5v.1h-.1l-.1.2V44c.3-.2.4-.2.5-.1z"/></g></g></svg>