<?xml version="1.0" encoding="utf-8"?>
<!-- Generator: Adobe Illustrator 19.0.0, SVG Export Plug-In . SVG Version: 6.00 Build 0)  -->
<svg version="1.1" id="layer" xmlns="http://www.w3.org/2000/svg" xmlns:xlink="http://www.w3.org/1999/xlink" x="0px" y="0px"
	 viewBox="-153 -46 652 652" style="enable-background:new -153 -46 652 652;" xml:space="preserve">
<style type="text/css">
	.st0{fill:#990000;}
</style>
<path d="M-114.4,122.3L-114.4,122.3c1.1,0,2,0.7,2,1.7v61h-4.1v-61C-116.4,123.1-115.5,122.3-114.4,122.3 M-94.7,155.7
	c0-7.2,2.5-13.3,7.6-18.5c5.1-5.2,11.2-7.8,18.3-7.8c7.1,0,13.2,2.6,18.3,7.7c5,5.2,7.5,11.4,7.5,18.7c0,7.4-2.5,13.7-7.5,18.8
	c-5,5.1-11.1,7.7-18.3,7.7c-7.2,0-13.3-2.6-18.4-7.7C-92.2,169.4-94.7,163.1-94.7,155.7 M-68.8,125.8c-8.3,0-15.4,2.9-21.3,8.7
	c-5.9,5.8-8.8,12.8-8.8,21.1c0,8.5,2.9,15.6,8.7,21.4c5.8,5.8,13,8.7,21.4,8.7c8.4,0,15.5-2.9,21.3-8.8c5.8-5.9,8.7-12.9,8.7-21.3
	c0-8.4-3-15.5-8.9-21.2C-53.5,128.7-60.5,125.8-68.8,125.8 M-30,170.9c0.9,4.9,2.9,8.6,6.1,11.2c3.2,2.6,7.4,3.8,12.6,3.8
	c5.1,0,9.4-1.6,12.7-4.7c3.4-3.2,5.1-7.2,5.1-12.1c0-7.7-4.4-12.9-13.2-15.6l-4.9-1.5c-3.8-1.3-6.6-2.6-8.5-4.1
	c-1.9-1.4-2.8-3.7-2.8-6.8c0-3.3,1.2-6.1,3.7-8.3c2.4-2.2,5.6-3.2,9.3-3.2c3.1,0,5.6,0.8,7.7,2.5c2.1,1.6,3.3,3.8,3.8,6.5h4.6
	c-0.9-4.3-2.7-7.5-5.5-9.6c-2.8-2.2-6.5-3.2-11-3.2c-5,0-9.2,1.5-12.4,4.4c-3.2,2.9-4.9,6.6-4.9,11c0,4.5,1.1,7.6,3.4,9.4
	c2.2,1.8,4,2.9,5.2,3.3c0.7,0.4,1.8,0.8,3.3,1.3c0.9,0.3,1.8,0.6,2.8,0.9l6.2,2.1l3.9,1.8c1.6,1.1,2.9,2.4,3.7,4.1
	c0.8,1.7,1.2,3.4,1.2,5.3c0,3.6-1.3,6.6-3.9,9c-2.6,2.4-5.9,3.6-9.7,3.6c-3.7,0-6.8-1-9.4-3c-2.6-2-4.1-4.7-4.6-8.1H-30z M52,156.2
	c0-7.5,2.5-13.8,7.5-18.9c5-5.1,11.2-7.7,18.5-7.7c7.2,0,13.3,2.5,18.3,7.6c5,5.1,7.5,11.2,7.5,18.5c0,7.4-2.5,13.7-7.6,18.8
	c-5.1,5.1-11.2,7.7-18.4,7.7c-7.3,0-13.4-2.5-18.4-7.6C54.5,169.6,52,163.4,52,156.2 M103.8,141.5l0.6,4.5
	c-1.1-5.9-4.2-10.7-9.3-14.5c-5-3.8-10.9-5.6-17.7-5.6c-8.3,0-15.3,3-21.1,8.9c-5.8,5.9-8.6,13-8.6,21.3c0,8.2,2.9,15.3,8.7,21.1
	s12.8,8.7,20.9,8.7c6.7,0,12.5-1.8,17.4-5.4c4.9-3.6,8.2-8.3,9.6-14.1l-0.6,3.3v6.9v8.4h3.6v-58.4h-3.6v9V141.5z M124.4,185h4.1
	v-32.8c0-6.5,2-11.9,6.1-16.3c4.1-4.4,9-6.6,14.8-6.6c4,0,7.6,1.1,11,3.3c3.4,2.2,5.6,4.8,6.8,7.9c1.2,3.1,1.7,7.3,1.7,12.7V185h4.3
	v-32.6c0-2.6-0.2-5-0.5-7.2c-0.4-2.2-0.9-4.2-1.5-6c-1.3-3.6-3.9-6.8-8-9.5c-4.1-2.7-8.5-4.1-13.4-4.1c-5.3,0-9.9,1.4-13.8,4.3
	c-3.9,2.8-6.6,6.9-8.4,12.1c0.6-3.6,0.9-6.5,0.9-8.6v-6.7h-4.1V185z M319.5,157.5l0.1-1.9c0-8-3-15-9.1-20.9
	c-6.1-5.9-13.2-8.8-21.3-8.8c-8.3,0-15.4,2.9-21.1,8.8c-5.8,5.9-8.7,13-8.7,21.4c0,8.2,3,15.3,8.8,21c5.9,5.8,13,8.7,21.2,8.7
	c9,0,16.6-3.6,22.9-10.9l-3.4-2.7c-3.1,3.4-6.2,5.9-9.2,7.4c-3,1.5-6.4,2.2-10.3,2.2c-7.3,0-13.4-2.6-18.4-7.7
	c-4.9-5.1-7.4-11.3-7.4-18.6c0-7.2,2.5-13.4,7.5-18.5c5-5.1,10.9-7.6,17.9-7.6c6.9,0,12.7,2.2,17.5,6.7c4.8,4.5,7.6,10.3,8.5,17.6
	h-43.7v3.7H319.5z M332.2,185h4.1v-62.6h-4.1V185z M409.8,157.5l0.1-1.9c0-8-3-15-9.1-20.9c-6.1-5.9-13.2-8.8-21.3-8.8
	c-8.3,0-15.4,2.9-21.1,8.8c-5.8,5.9-8.7,13-8.7,21.4c0,8.2,3,15.3,8.8,21c5.9,5.8,13,8.7,21.2,8.7c9,0,16.6-3.6,22.9-10.9l-3.4-2.7
	c-3.1,3.4-6.2,5.9-9.2,7.4c-3,1.5-6.4,2.2-10.3,2.2c-7.3,0-13.4-2.6-18.4-7.7c-4.9-5.1-7.4-11.3-7.4-18.6c0-7.2,2.5-13.4,7.5-18.5
	c5-5.1,10.9-7.6,17.9-7.6c6.9,0,12.7,2.2,17.5,6.7c4.8,4.5,7.6,10.3,8.5,17.6h-43.7v3.7H409.8z M417.8,170.9
	c0.9,4.9,2.9,8.6,6.1,11.2c3.2,2.6,7.4,3.8,12.6,3.8c5.1,0,9.4-1.6,12.7-4.7c3.4-3.2,5.1-7.2,5.1-12.1c0-7.7-4.4-12.9-13.2-15.6
	l-4.9-1.5c-3.8-1.3-6.6-2.6-8.5-4.1c-1.9-1.4-2.8-3.7-2.8-6.8c0-3.3,1.2-6.1,3.7-8.3c2.4-2.2,5.6-3.2,9.3-3.2c3.1,0,5.6,0.8,7.7,2.5
	c2.1,1.6,3.3,3.8,3.8,6.5h4.6c-0.9-4.3-2.7-7.5-5.5-9.6c-2.8-2.2-6.5-3.2-11-3.2c-5,0-9.2,1.5-12.4,4.4c-3.2,2.9-4.9,6.6-4.9,11
	c0,4.5,1.1,7.6,3.4,9.4c2.2,1.8,4,2.9,5.2,3.3c0.7,0.4,1.8,0.8,3.3,1.3c0.9,0.3,1.8,0.6,2.8,0.9l6.2,2.1l3.9,1.8
	c1.6,1.1,2.9,2.4,3.7,4.1c0.8,1.7,1.2,3.4,1.2,5.3c0,3.6-1.3,6.6-3.9,9c-2.6,2.4-5.9,3.6-9.7,3.6c-3.7,0-6.8-1-9.4-3
	c-2.6-2-4.1-4.7-4.6-8.1H417.8z M199.7,154.1v3.7h43.8c-0.9,7.3-3.8,13.1-8.5,17.6c-4.8,4.5-10.6,6.7-17.5,6.7c-7,0-13-2.5-17.9-7.6
	c-5-5.1-7.5-11.3-7.5-18.5c0-7.3,2.5-13.5,7.4-18.7c4.9-5.1,11.1-7.7,18.4-7.7c3.8,0,7.3,0.7,10.3,2.2c3,1.5,6.1,3.9,9.2,7.4
	l3.4-2.7c-6.3-7.3-14-10.9-23-10.9c-8.3,0-15.3,2.9-21.2,8.7c-5.9,5.8-8.9,12.8-8.9,21.1c0,8.4,2.9,15.5,8.7,21.4
	c5.8,5.9,12.9,8.9,21.2,8.9c8.1,0,15.2-3,21.3-8.9c6.1-5.9,9.1-12.9,9.1-20.9l-0.1-1.9H199.7z"/>
<path d="M-21.8,377.3c0-18.4,13.9-33.2,33.2-33.2c19.2,0,33.2,14.8,33.2,33.2c0,18.4-14,33.2-33.2,33.2
	C-7.9,410.5-21.8,395.7-21.8,377.3 M-41.4,377.3c0,25.3,19.3,50.4,52.7,50.4c33.4,0,52.7-25.1,52.7-50.4c0-25.3-19.4-50.4-52.7-50.4
	C-22,327-41.4,352-41.4,377.3 M-52.3,397.5c-6.2,8.3-15.9,13.4-26.9,13.4c-17.4,0-33.2-14.7-33.2-33.5c0-18.8,15.7-33.5,33.2-33.5
	c11,0,20.4,5.1,26.5,14l14.8-11.1c-10.8-13.6-25.9-19.9-41.4-19.9c-29,0-52,22.1-52,50.5c0,28.4,23,50.5,52,50.5
	c15.4,0,30.6-6.3,41.4-19.9L-52.3,397.5z M91.7,324.7h-21v103.2h21V324.7z M137,324.7h-21V428h21V324.7z M356.2,370h-70.8v17.9h51.9
	c-5.1,17.3-20.5,23.1-31.4,23.1c-17.4,0-33.2-14.7-33.2-33.5c0-18.8,15.8-33.5,33.2-33.5c11,0,20.4,5.1,26.5,14l14.8-11.1
	c-10.8-13.6-25.9-19.9-41.4-19.9c-29,0-52,22.1-52,50.5c0,28.4,23,50.5,52,50.5C331.2,428,360.5,409,356.2,370 M247.7,377.4
	c0-28.4-23-50.5-52-50.5s-52,22.1-52,50.5c0,28.4,23,50.5,52,50.5c22.5,0,41.4-13.3,48.7-32.5l-20.8-0.1
	c-6.1,9.4-16.6,15.6-27.9,15.6c-17.4,0-33.2-14.7-33.2-33.5c0-18.8,15.7-33.5,33.2-33.5c14.7,0,28.1,10.4,32,24.9h-55v18h74v-0.1
	h0.1C247.4,383.7,247.7,380.5,247.7,377.4 M467.5,377.2c0-28.4-23-50.5-52-50.5c-29,0-52,22.1-52,50.5c0,28.4,23,50.5,52,50.5
	c22.5,0,41.4-13.3,48.7-32.5l-20.8-0.1c-6,9.4-16.6,15.6-27.9,15.6c-17.4,0-33.2-14.7-33.2-33.5c0-18.8,15.7-33.5,33.2-33.5
	c14.6,0,28.1,10.4,32,24.9h-55v18h74v-0.1h0.1C467.3,383.5,467.5,380.4,467.5,377.2"/>
<path class="st0" d="M-7.7,199.1h21.8v118.2H-7.7V199.1z M149.2,255.6c0-34.6-28.1-61.6-63.4-61.6c-35.4,0-63.4,26.9-63.4,61.6
	c0,34.6,28,61.6,63.4,61.6c27.5,0,50.5-16.2,59.5-39.7l-25.4-0.1c-7.4,11.5-20.3,19-34.1,19c-21.3,0-40.5-17.9-40.5-40.8
	c0-23,19.2-40.9,40.5-40.9c17.9,0,34.2,12.7,39,30.3H57.7V267H148v-0.1h0.2C148.9,263.3,149.2,259.5,149.2,255.6 M468.8,255.9
	c0-34.6-28-61.6-63.4-61.6c-35.4,0-63.4,26.9-63.4,61.6c0,34.6,28,61.6,63.4,61.6c27.5,0,50.5-16.2,59.4-39.7l-25.4-0.1
	c-7.4,11.5-20.3,19-34.1,19c-21.3,0-40.5-17.9-40.5-40.9c0-23,19.2-40.9,40.5-40.9c17.9,0,34.2,12.7,39,30.3h-67.1v21.9h90.3v-0.1
	h0.2C468.5,263.6,468.8,259.8,468.8,255.9 M-92.8,219.9v39.5H-60c15.4,0,22.4-9.2,22.4-19.8c0-10.5-7-19.8-22.4-19.8H-92.8
	 M-128.9,219.3v-20.2h70.6c26.4,0,42.6,17.3,42.6,40.5c0,23.2-16.2,40.5-42.6,40.5h-34.5v37.3h-21.8v-98.1H-128.9z M219.3,193.6
	c-15.4,0-29.4,5.2-40.3,13.8V199h-21.8v118.2H179v-65.1c1.6-21.5,20-37.9,40.3-37.9c4,0,7.8,0.5,11.4,1.6l13.9-17.3
	C236.5,195.2,227.9,193.6,219.3,193.6 M326.5,280.2c-7.5,10.2-19.4,16.4-32.8,16.4c-21.3,0-40.5-17.9-40.5-40.8
	c0-23,19.2-40.9,40.5-40.9c13.4,0,24.9,6.2,32.4,17.1l18.1-13.6c-13.2-16.6-31.6-24.3-50.5-24.3c-35.4,0-63.4,26.9-63.4,61.6
	c0,34.6,28.1,61.5,63.4,61.5c18.8,0,37.3-7.7,50.5-24.3L326.5,280.2z"/>
</svg>
