<?xml version="1.0" encoding="utf-8"?>
<!-- Generator: Adobe Illustrator 19.0.0, SVG Export Plug-In . SVG Version: 6.00 Build 0)  -->
<svg version="1.1" id="layer" xmlns="http://www.w3.org/2000/svg" xmlns:xlink="http://www.w3.org/1999/xlink" x="0px" y="0px"
	 viewBox="-153 -46 652 652" style="enable-background:new -153 -46 652 652;" xml:space="preserve">
<style type="text/css">
	.st0{fill:#334C74;}
	.st1{fill:#818286;}
</style>
<path class="st0" d="M-35.4,288.8v-6.6h-7.8L-35.4,288.8z M-45.2,280.5h9.8v-8.8h-95.7v8.8h21.4l0.8-1c0,0,2.6-3.2,5.8-3.2
	c2.5,0,4.1,1.5,4.1,1.5l2.9,2.7h37.9l1-1.2c0,0,2.2-2.5,5.1-2.5c2.9,0,4.4,1.5,4.4,1.5L-45.2,280.5z M-131,270h95.5
	c-0.1-4.5-0.8-8.8-2-12.9H-129C-130.2,261.2-130.9,265.6-131,270 M-128.5,255.5H-38c-1.6-4.7-3.8-9-6.7-12.9h-77.2
	C-124.7,246.5-126.9,250.8-128.5,255.5 M-120.5,241h74.6c-8.8-10.9-22.2-18-37.3-18C-98.3,223-111.8,230-120.5,241 M-131.1,292.2
	v14.4l11.8-14.4H-131.1z M-83.3,292.2l5.1,4.7c0,0,1.4,1.8,3.6,1.7c1.5,0,2.8-1.7,2.8-1.7l3.9-4.7H-83.3z M-59.6,282.1h-34.7
	l3.7,3.4h28.2L-59.6,282.1z M-85.1,290.6h18.5l2.8-3.4h-25L-85.1,290.6z M-131.1,290.6h13.1l2.8-3.4h-15.9V290.6z M-111.1,282.1h-20
	v3.4h17.3L-111.1,282.1z"/>
<path class="st1" d="M-131.1,313.8V328h95.7v-13.1L-52.4,299l-3.6-3.6c-1.3-1.1-3.5-1.2-5.1-0.7c-2.2,0.6-4.2,3.2-6.1,5.6l-13,15.2
	c0,0-0.9,1.1-1.7,1.1c-1.4,0.1-2.3-0.3-3.2-1l-14-12.7l-8.5-8.1c-0.8-0.6-1.7-1-3.4-1c-2.3,0-3.2,0.9-4.5,2L-131.1,313.8z"/>
<path class="st0" d="M-4.3,265.2c0,6.3,0,9.7,1,10.5c0.8,0.7,2.1,1.1,5.9,1.1c2.6,0,4.5,0,5.7-1.4c0.6-0.6,1.2-2,1.3-2.9
	c0.1-0.4,0.1-0.7,0.5-0.7c0.3,0,0.4,0.3,0.4,0.8c0,0.5-0.3,4.2-0.7,5.6c-0.3,1.1-0.5,1.3-3.1,1.3c-7.1,0-10.3-0.3-14.3-0.3
	c-1.1,0-4.2,0.1-6.2,0.1c-0.6,0-1-0.1-1-0.5c0-0.2,0.2-0.4,0.8-0.4c0.7,0,1.3-0.1,1.8-0.2c1-0.2,1.2-1.3,1.4-2.7
	c0.2-2.1,0.2-5.9,0.2-10.4v-8.6c0-7.5,0-8.8-0.1-10.4c-0.1-1.7-0.5-2.4-2.1-2.8c-0.4-0.1-1-0.1-1.6-0.1c-0.5,0-0.8-0.1-0.8-0.4
	c0-0.3,0.3-0.4,1.1-0.4c2.3,0,5.4,0.1,6.7,0.1c1.2,0,4.8-0.1,6.7-0.1c0.7,0,1,0.1,1,0.4c0,0.4-0.3,0.4-0.9,0.4c-0.5,0-1.3,0-1.9,0.1
	c-1.3,0.2-1.7,1.1-1.8,2.8c-0.1,1.6-0.1,2.9-0.1,10.4V265.2z M13.6,260.9c0,8.7,5.7,19.2,19.8,19.2c12.5,0,20.3-8.9,20.3-20.1
	s-7.6-18.3-19.8-18.3C19.2,241.7,13.6,252.5,13.6,260.9 M46.8,261.8c0,14.2-7.9,15.8-11.4,15.8c-9.4,0-15-8.1-15-18.3
	c0-12.2,6.4-15.3,12.1-15.3C40.5,244,46.8,250.8,46.8,261.8 M61.7,278.8c2.1,0.9,4.3,1.3,7.2,1.3c2.6,0,5.3-0.4,7.8-2
	c3.5-2.3,4.6-5.7,4.6-8.5c0-4.7-2.2-7.9-8-12.5l-1.4-1c-4.1-3.1-5.2-4.8-5.2-7.1c0-2.9,2.2-5,5.8-5c3.2,0,4.6,1.5,5.3,2.4
	c1,1.3,1.3,2.8,1.3,3.2c0,0.6,0.1,0.9,0.5,0.9c0.4,0,0.5-0.4,0.5-1.5c0-3.8,0.2-5.2,0.2-5.9c0-0.3-0.2-0.5-0.7-0.6
	c-1.3-0.3-3.3-0.8-6.5-0.8c-6.8,0-11.3,3.9-11.3,9.3c0,4,1.9,7.4,7.3,11.6l2.3,1.8c4.1,3.1,4.8,5.4,4.8,7.8c0,2.6-2.2,5.6-6.6,5.6
	c-3,0-5.9-1.3-7-5c-0.3-0.8-0.4-1.9-0.4-2.5c0-0.4-0.1-0.8-0.5-0.8c-0.4,0-0.5,0.5-0.6,1.3c0,0.8-0.2,3.7-0.2,6.4
	C60.8,278.2,61,278.5,61.7,278.8 M120.6,266.6c0.3,0,0.4,0.1,0.5,0.3l3.9,10.4c0.2,0.6-0.1,1-0.4,1.1c-0.5,0.1-0.7,0.2-0.7,0.4
	c0,0.3,0.6,0.3,1.5,0.4c3.9,0.1,7.5,0.1,9.3,0.1c1.8,0,2.3-0.1,2.3-0.5c0-0.3-0.2-0.4-0.6-0.4c-0.6,0-1.3-0.1-2.1-0.2
	c-1-0.2-2.5-0.9-4.3-5.3c-3.1-7.5-11-27.5-12.2-30.2c-0.5-1.1-0.8-1.6-1.2-1.6c-0.5,0-0.8,0.5-1.4,2L102.8,274
	c-1,2.4-1.9,4.1-4.2,4.4c-0.4,0.1-1.1,0.1-1.5,0.1c-0.4,0-0.6,0.1-0.6,0.4c0,0.4,0.3,0.5,0.9,0.5c2.5,0,5.2-0.1,5.8-0.1
	c1.5,0,3.6,0.1,5.2,0.1c0.5,0,0.8-0.1,0.8-0.5c0-0.3-0.1-0.4-0.7-0.4h-0.7c-1.5,0-2-0.6-2-1.5c0-0.6,0.2-1.8,0.7-3l2.6-7
	c0.1-0.3,0.2-0.4,0.4-0.4H120.6z M110.6,264.2c-0.2,0-0.2-0.1-0.2-0.3l4.5-12.1c0.1-0.2,0.1-0.4,0.3-0.4c0.2,0,0.2,0.2,0.2,0.4
	l4.4,12.1c0.1,0.2,0,0.3-0.2,0.3H110.6z M144.2,252.2h0.1c0.9,0.9,6.3,7.1,11.7,12.4c5.1,5,11.4,11.5,14.5,14.4
	c0.5,0.5,1.1,1.1,1.7,1.1c0.4,0,0.6-0.4,0.6-1.5l0.5-30.9c0.1-2.7,0.4-3.8,1.8-4.2c0.6-0.1,1-0.1,1.5-0.1c0.6,0,0.9-0.2,0.9-0.4
	c0-0.4-0.5-0.4-1.1-0.4c-2.4,0-4.3,0.1-4.8,0.1c-1,0-3.4-0.1-5.9-0.1c-0.7,0-1.3,0-1.3,0.4c0,0.3,0.2,0.4,0.8,0.4
	c0.7,0,1.9,0,2.6,0.3c1.2,0.5,1.6,1.4,1.7,4.4l0.5,22h-0.2c-0.8-0.8-7.5-7.8-10.8-11.2c-7.2-7.1-14.6-15.1-15.2-15.7
	c-0.8-0.9-1.3-1.5-1.8-1.5c-0.5,0-0.6,0.7-0.6,1.7l-0.4,29c-0.1,4.3-0.2,5.7-1.5,6.1c-0.7,0.2-1.6,0.2-2.2,0.2
	c-0.5,0-0.8,0.1-0.8,0.4c0,0.4,0.4,0.5,1.1,0.5c2.5,0,4.9-0.1,5.3-0.1c0.9,0,2.9,0.1,6.1,0.1c0.7,0,1.1-0.1,1.1-0.5
	c0-0.3-0.3-0.4-0.8-0.4c-0.8,0-1.7-0.1-2.5-0.3c-1-0.3-1.6-1.6-1.7-5.4L144.2,252.2z M217.9,270.7c0-2.4,0-4.4,0-5.9
	c0.1-1.7,0.5-2.5,1.9-2.8c0.6-0.1,0.9-0.1,1.3-0.1c0.3,0,0.6-0.1,0.6-0.4c0-0.4-0.3-0.5-1-0.5c-1.6,0-4.2,0.2-5.7,0.2
	c-1.5,0-4.6-0.2-7.1-0.2c-0.7,0-1,0.1-1,0.5c0,0.3,0.3,0.4,0.7,0.4c0.7,0,1.5,0.1,1.9,0.1c1.6,0.3,2.1,1.1,2.1,2.8
	c0.1,1.5,0.1,3.3,0.1,5.8v4.6c0,0.8-0.2,1.5-0.9,1.8c-1.2,0.5-2.9,0.5-4.2,0.5c-10.3,0-17.1-7.9-17.1-18.4c0-6,1.8-9.7,4.5-12
	c3.4-2.8,7-3,9.7-3c5.5,0,9.5,2.3,10.9,3.8c1.3,1.4,1.5,2.9,1.7,4.1c0.1,0.4,0.2,0.6,0.5,0.6c0.4,0,0.5-0.2,0.5-1
	c0-6.1,0.3-7.5,0.3-8c0-0.3-0.1-0.5-0.7-0.6c-1.1-0.1-2.8-0.3-3.9-0.5c-1-0.2-5.3-0.8-8.7-0.8c-4.1,0-8.5,0.3-13.2,3.2
	c-4.5,2.7-8.5,8.2-8.5,16c0,13.5,10.6,19.2,22.6,19.2c3.8,0,8.6-0.5,11.8-2.2c0.6-0.3,0.6-0.4,0.6-1.8V270.7z M231.6,265.2
	c0,4.5,0,8.4-0.2,10.4c-0.2,1.4-0.4,2.5-1.4,2.7c-0.4,0.1-1,0.2-1.8,0.2c-0.6,0-0.8,0.2-0.8,0.4c0,0.3,0.3,0.5,1,0.5
	c2,0,5-0.1,6.2-0.1c2.9,0,6.2,0.3,13.6,0.3c1.9,0,2.3,0,2.6-1.3c0.2-1,0.6-4.3,0.6-5.4c0-0.5,0-0.9-0.4-0.9c-0.3,0-0.4,0.2-0.5,0.7
	c-0.3,2-0.9,3-2.2,3.6c-1.3,0.6-3.3,0.6-4.6,0.6c-5,0-5.8-0.7-5.9-4.1c-0.1-1.4,0-5.9,0-7.6v-3.9c0-0.3,0-0.5,0.3-0.5
	c1.2,0,6,0.1,7,0.1c1.8,0.2,2.5,0.9,2.7,1.9c0.2,0.6,0.2,1.3,0.2,1.8c0,0.2,0.1,0.4,0.4,0.4c0.4,0,0.4-0.5,0.4-0.9
	c0-0.3,0.1-2.3,0.2-3.3c0.2-2.5,0.4-3.3,0.4-3.6c0-0.3-0.1-0.4-0.3-0.4c-0.2,0-0.4,0.2-0.8,0.6c-0.4,0.5-1.2,0.6-2.4,0.7
	c-1.1,0.1-6.8,0.1-7.8,0.1c-0.3,0-0.3-0.2-0.3-0.5v-12.4c0-0.3,0.1-0.5,0.3-0.5c1,0,6.1,0.1,7,0.2c2.4,0.3,2.9,0.9,3.3,1.8
	c0.2,0.6,0.3,1.4,0.3,1.8c0,0.4,0.1,0.7,0.4,0.7c0.3,0,0.4-0.3,0.5-0.5c0.1-0.6,0.2-2.7,0.2-3.2c0.1-2.3,0.4-2.8,0.4-3.2
	c0-0.2-0.1-0.4-0.3-0.4c-0.2,0-0.5,0.2-0.8,0.2c-0.4,0.1-1.2,0.2-2.1,0.3c-0.9,0-10.7,0-12.3,0c-1.4,0-4.5-0.1-7.1-0.1
	c-0.7,0-1.1,0.1-1.1,0.4c0,0.3,0.3,0.4,0.8,0.4c0.7,0,1.5,0.1,1.9,0.1c1.6,0.3,2,1.1,2.1,2.8c0.1,1.6,0.1,2.9,0.1,10.4V265.2z
	 M268.7,256.6c0-7.5,0-8.8,0.1-10.4c0.1-1.7,0.5-2.5,1.8-2.8c0.6-0.1,1.4-0.1,1.9-0.1c0.6,0,0.9-0.1,0.9-0.4c0-0.3-0.3-0.4-1-0.4
	c-1.9,0-5.5,0.1-6.7,0.1c-1.3,0-4.4-0.1-6.7-0.1c-0.7,0-1.1,0.1-1.1,0.4c0,0.4,0.3,0.4,0.8,0.4c0.6,0,1.2,0,1.6,0.1
	c1.6,0.3,2,1.1,2.1,2.8c0.1,1.6,0.1,2.9,0.1,10.4v8.6c0,4.5,0,8.4-0.2,10.4c-0.2,1.4-0.4,2.5-1.4,2.7c-0.4,0.1-1,0.2-1.8,0.2
	c-0.6,0-0.8,0.1-0.8,0.4c0,0.3,0.3,0.5,1,0.5c2,0,5-0.1,6.2-0.1c4,0,7.2,0.3,14.3,0.3c2.5,0,2.8-0.2,3.1-1.3
	c0.4-1.4,0.7-5.1,0.7-5.6c0-0.6-0.1-0.8-0.4-0.8c-0.4,0-0.5,0.3-0.5,0.7c-0.1,0.9-0.7,2.3-1.3,2.9c-1.2,1.3-3.1,1.4-5.7,1.4
	c-3.8,0-5.1-0.3-5.9-1.1c-1-0.9-1-4.3-1-10.5V256.6z M292.3,265.2c0,4.5,0,8.4-0.2,10.4c-0.2,1.4-0.4,2.5-1.4,2.7
	c-0.4,0.1-1,0.2-1.8,0.2c-0.6,0-0.8,0.2-0.8,0.4c0,0.3,0.3,0.5,1,0.5c2,0,5.1-0.1,6.2-0.1c2.9,0,6.2,0.3,13.6,0.3
	c1.9,0,2.3,0,2.6-1.3c0.2-1,0.6-4.3,0.6-5.4c0-0.5,0-0.9-0.4-0.9c-0.3,0-0.4,0.2-0.5,0.7c-0.3,2-0.9,3-2.2,3.6
	c-1.3,0.6-3.3,0.6-4.6,0.6c-5,0-5.8-0.7-5.9-4.1c-0.1-1.4,0-5.9,0-7.6v-3.9c0-0.3,0.1-0.5,0.3-0.5c1.2,0,6,0.1,7,0.1
	c1.8,0.2,2.5,0.9,2.7,1.9c0.1,0.6,0.1,1.3,0.2,1.8c0,0.2,0.1,0.4,0.4,0.4c0.4,0,0.4-0.5,0.4-0.9c0-0.3,0.1-2.3,0.2-3.3
	c0.1-2.5,0.4-3.3,0.4-3.6c0-0.3-0.2-0.4-0.3-0.4c-0.2,0-0.4,0.2-0.8,0.6c-0.4,0.5-1.2,0.6-2.4,0.7c-1.1,0.1-6.8,0.1-7.8,0.1
	c-0.3,0-0.3-0.2-0.3-0.5v-12.4c0-0.3,0.1-0.5,0.3-0.5c1,0,6.1,0.1,7,0.2c2.5,0.3,2.9,0.9,3.3,1.8c0.2,0.6,0.3,1.4,0.3,1.8
	c0,0.4,0.1,0.7,0.4,0.7c0.3,0,0.4-0.3,0.5-0.5c0.1-0.6,0.2-2.7,0.2-3.2c0.1-2.3,0.4-2.8,0.4-3.2c0-0.2-0.1-0.4-0.3-0.4
	c-0.2,0-0.5,0.2-0.8,0.2c-0.4,0.1-1.2,0.2-2.1,0.3c-0.9,0-10.7,0-12.3,0c-1.4,0-4.5-0.1-7.1-0.1c-0.7,0-1.1,0.1-1.1,0.4
	c0,0.3,0.3,0.4,0.8,0.4c0.7,0,1.5,0.1,1.9,0.1c1.6,0.3,2,1.1,2.1,2.8c0.1,1.6,0.1,2.9,0.1,10.4V265.2z M320.5,278.8
	c2.1,0.9,4.3,1.3,7.2,1.3c2.6,0,5.3-0.4,7.8-2c3.5-2.3,4.6-5.7,4.6-8.5c0-4.7-2.2-7.9-8-12.5l-1.4-1c-4.1-3.1-5.2-4.8-5.2-7.1
	c0-2.9,2.2-5,5.8-5c3.2,0,4.6,1.5,5.3,2.4c1,1.3,1.3,2.8,1.3,3.2c0,0.6,0.2,0.9,0.5,0.9c0.4,0,0.5-0.4,0.5-1.5
	c0-3.8,0.2-5.2,0.2-5.9c0-0.3-0.3-0.5-0.7-0.6c-1.3-0.3-3.3-0.8-6.5-0.8c-6.8,0-11.3,3.9-11.3,9.3c0,4,1.9,7.4,7.3,11.6l2.3,1.8
	c4.1,3.1,4.8,5.4,4.8,7.8c0,2.6-2.2,5.6-6.6,5.6c-3,0-5.9-1.3-7-5c-0.2-0.8-0.4-1.9-0.4-2.5c0-0.4,0-0.8-0.5-0.8
	c-0.4,0-0.5,0.5-0.6,1.3c-0.1,0.8-0.2,3.7-0.2,6.4C319.6,278.2,319.8,278.5,320.5,278.8 M-12.7,322.5c-0.2,1.6-0.6,3.5-2,3.8
	c-0.7,0.1-1.1,0.1-1.4,0.1c-0.5,0-0.8,0.1-0.8,0.3c0,0.4,0.4,0.5,0.9,0.5c1.5,0,3.8-0.1,4.8-0.1c0.9,0,3,0.1,5,0.1
	c0.7,0,1.2-0.1,1.2-0.5c0-0.2-0.3-0.3-0.7-0.3c-0.5,0-1.2,0-2-0.2c-0.8-0.2-1.4-0.6-1.4-1.5c0-0.8,0.1-1.4,0.1-2.3l2.5-19.1h0.2
	c1.7,3.6,4.6,9.7,5,10.7c0.6,1.3,4.4,8.7,5.5,10.9c0.8,1.4,1.2,2.4,1.7,2.4c0.4,0,0.7-0.4,1.8-2.7L18,302.7h0.2l2.9,21.2
	c0.2,1.3,0.1,2-0.2,2.1c-0.3,0.1-0.5,0.3-0.5,0.5c0,0.3,0.3,0.4,1.4,0.5c1.9,0.2,8.6,0.3,9.8,0.3c0.7,0,1.2-0.1,1.2-0.5
	c0-0.3-0.3-0.3-0.8-0.3c-0.6,0-1.6,0-3-0.5c-1.4-0.4-1.9-1.8-2.4-4.9l-4.4-29.7c-0.1-1-0.4-1.5-0.9-1.5c-0.4,0-0.7,0.4-1.1,1.2
	L7.3,318.5l-13.1-27.1c-0.6-1.2-0.9-1.5-1.3-1.5s-0.7,0.4-0.8,1.2L-12.7,322.5z M40.4,313.3c0,4.7,0,8.5-0.2,10.5
	c-0.1,1.4-0.4,2.2-1.4,2.4c-0.4,0.1-1,0.2-1.7,0.2c-0.6,0-0.8,0.2-0.8,0.4c0,0.3,0.3,0.5,1,0.5c1.9,0,5-0.1,6.1-0.1
	c1.3,0,4.3,0.1,7.5,0.1c0.5,0,0.9-0.1,0.9-0.5c0-0.2-0.2-0.4-0.8-0.4c-0.7,0-1.8-0.1-2.4-0.2c-1.4-0.2-1.8-1.1-1.9-2.4
	c-0.2-2.1-0.2-5.9-0.2-10.5v-8.5c0-7.3,0-8.6,0.1-10.2c0.1-1.7,0.5-2.5,1.8-2.7c0.6-0.1,1-0.1,1.4-0.1c0.5,0,0.8-0.1,0.8-0.5
	c0-0.3-0.4-0.4-1-0.4c-1.8,0-4.7,0.1-5.9,0.1c-1.4,0-4.4-0.1-6.3-0.1c-0.8,0-1.2,0.1-1.2,0.4c0,0.4,0.3,0.5,0.8,0.5
	c0.6,0,1.2,0.1,1.7,0.2c1.1,0.2,1.5,1.1,1.6,2.7c0.1,1.5,0.1,2.9,0.1,10.2V313.3z M59.5,326.7c2.1,0.9,4.2,1.2,7,1.2
	c2.5,0,5.2-0.4,7.6-2c3.5-2.3,4.5-5.6,4.5-8.4c0-4.6-2.1-7.8-7.9-12.3l-1.3-1c-4-3-5.1-4.7-5.1-6.9c0-2.9,2.2-4.9,5.7-4.9
	c3.1,0,4.5,1.4,5.2,2.4c1,1.2,1.3,2.7,1.3,3.2c0,0.6,0.1,0.9,0.5,0.9c0.4,0,0.5-0.4,0.5-1.4c0-3.7,0.2-5.1,0.2-5.8
	c0-0.3-0.2-0.5-0.7-0.6c-1.3-0.3-3.3-0.8-6.4-0.8c-6.7,0-11.1,3.8-11.1,9.1c0,3.9,1.8,7.3,7.1,11.4l2.2,1.7c4,3.1,4.7,5.3,4.7,7.7
	c0,2.6-2.1,5.5-6.4,5.5c-3,0-5.8-1.3-6.9-4.9c-0.2-0.8-0.4-1.8-0.4-2.5c0-0.4,0-0.8-0.5-0.8c-0.4,0-0.5,0.5-0.6,1.2
	c-0.1,0.8-0.2,3.7-0.2,6.3C58.6,326.1,58.7,326.4,59.5,326.7 M87.5,326.7c2.1,0.9,4.2,1.2,7,1.2c2.5,0,5.2-0.4,7.6-2
	c3.5-2.3,4.5-5.6,4.5-8.4c0-4.6-2.1-7.8-7.9-12.3l-1.3-1c-4-3-5.1-4.7-5.1-6.9c0-2.9,2.2-4.9,5.7-4.9c3.1,0,4.5,1.4,5.2,2.4
	c1,1.2,1.2,2.7,1.2,3.2c0,0.6,0.1,0.9,0.5,0.9c0.4,0,0.5-0.4,0.5-1.4c0-3.7,0.2-5.1,0.2-5.8c0-0.3-0.2-0.5-0.7-0.6
	c-1.2-0.3-3.3-0.8-6.4-0.8c-6.7,0-11.1,3.8-11.1,9.1c0,3.9,1.8,7.3,7.1,11.4l2.2,1.7c4,3.1,4.7,5.3,4.7,7.7c0,2.6-2.1,5.5-6.4,5.5
	c-3,0-5.8-1.3-6.9-4.9c-0.2-0.8-0.4-1.8-0.4-2.5c0-0.4,0-0.8-0.5-0.8c-0.4,0-0.5,0.5-0.6,1.2c-0.1,0.8-0.2,3.7-0.2,6.3
	C86.5,326.1,86.7,326.4,87.5,326.7 M118.1,313.3c0,4.7,0,8.5-0.2,10.5c-0.1,1.4-0.4,2.2-1.4,2.4c-0.4,0.1-1,0.2-1.7,0.2
	c-0.6,0-0.8,0.2-0.8,0.4c0,0.3,0.3,0.5,1,0.5c1.9,0,5-0.1,6.1-0.1c1.3,0,4.3,0.1,7.5,0.1c0.5,0,0.9-0.1,0.9-0.5
	c0-0.2-0.2-0.4-0.8-0.4c-0.7,0-1.8-0.1-2.5-0.2c-1.4-0.2-1.8-1.1-1.9-2.4c-0.2-2.1-0.2-5.9-0.2-10.5v-8.5c0-7.3,0-8.6,0.1-10.2
	c0.1-1.7,0.5-2.5,1.8-2.7c0.6-0.1,1-0.1,1.4-0.1c0.5,0,0.8-0.1,0.8-0.5c0-0.3-0.4-0.4-1-0.4c-1.8,0-4.7,0.1-5.9,0.1
	c-1.4,0-4.4-0.1-6.3-0.1c-0.8,0-1.1,0.1-1.1,0.4c0,0.4,0.3,0.5,0.8,0.5c0.6,0,1.2,0.1,1.7,0.2c1.1,0.2,1.5,1.1,1.6,2.7
	c0.1,1.5,0.1,2.9,0.1,10.2V313.3z M134.1,309.1c0,8.5,5.6,18.8,19.4,18.8c12.2,0,19.9-8.7,19.9-19.7c0-11-7.5-18-19.4-18
	C139.5,290.3,134.1,300.9,134.1,309.1 M166.6,310c0,13.9-7.8,15.5-11.1,15.5c-9.2,0-14.8-7.9-14.8-17.9c0-12,6.3-15,11.8-15
	C160.4,292.6,166.6,299.2,166.6,310 M185.8,300.5h0.1c0.9,0.9,6.2,6.9,11.4,12.1c5,5,11.2,11.2,14.2,14.1c0.5,0.5,1.1,1.1,1.6,1.1
	c0.4,0,0.6-0.4,0.6-1.5l0.5-30.3c0.1-2.7,0.4-3.7,1.8-4.1c0.6-0.1,1-0.1,1.4-0.1c0.6,0,0.9-0.1,0.9-0.4c0-0.4-0.5-0.4-1.1-0.4
	c-2.4,0-4.2,0.1-4.7,0.1c-1,0-3.3-0.1-5.8-0.1c-0.7,0-1.2,0-1.2,0.4c0,0.3,0.2,0.4,0.8,0.4c0.7,0,1.8,0,2.5,0.3
	c1.2,0.5,1.6,1.4,1.6,4.3L211,318h-0.2c-0.8-0.8-7.3-7.7-10.6-11c-7-7-14.3-14.8-14.9-15.4c-0.8-0.9-1.3-1.5-1.8-1.5
	c-0.5,0-0.6,0.7-0.6,1.6l-0.4,28.5c-0.1,4.2-0.2,5.6-1.5,6c-0.7,0.2-1.5,0.2-2.2,0.2c-0.5,0-0.8,0.1-0.8,0.4c0,0.4,0.4,0.5,1.1,0.5
	c2.5,0,4.8-0.1,5.2-0.1c0.9,0,2.8,0.1,6,0.1c0.7,0,1.1-0.1,1.1-0.5c0-0.3-0.3-0.4-0.8-0.4c-0.8,0-1.7-0.1-2.5-0.3
	c-1-0.3-1.6-1.6-1.7-5.3L185.8,300.5z M243.5,322.7c4.4,3.8,9.9,5.2,16.5,5.2c3.1,0,6.7-0.3,8.7-1.1c0.8-0.3,1-0.6,1.3-1.4
	c0.5-1.6,1.1-5.8,1.1-6.4c0-0.4-0.1-0.7-0.4-0.7c-0.4,0-0.5,0.2-0.6,1c-0.2,0.9-0.8,2.3-1.6,3.2c-1.9,2.2-4.5,2.7-8.8,2.7
	c-6.4,0-15.1-5.7-15.1-17.1c0-4.7,0.9-9.2,4.4-12.4c2.1-1.9,4.9-3,9-3c4.4,0,8.2,1.3,9.8,3c1.2,1.3,1.8,2.9,1.9,4.4
	c0,0.7,0.1,1.1,0.5,1.1c0.4,0,0.5-0.4,0.6-1.1c0.1-1,0.1-3.6,0.1-5.2c0.1-1.7,0.2-2.3,0.2-2.6c0-0.3-0.2-0.5-0.7-0.6
	c-1.4-0.1-3-0.6-4.8-0.8c-2.2-0.3-4-0.5-7-0.5c-7.2,0-11.7,1.9-15.2,5.1c-4.6,4.2-5.6,9.9-5.6,13.2
	C237.6,313.2,238.8,318.6,243.5,322.7 M274.9,309.1c0,8.5,5.6,18.8,19.4,18.8c12.2,0,19.9-8.7,19.9-19.7c0-11-7.5-18-19.4-18
	C280.3,290.3,274.9,300.9,274.9,309.1 M307.4,310c0,13.9-7.8,15.5-11.1,15.5c-9.2,0-14.8-7.9-14.8-17.9c0-12,6.3-15,11.8-15
	C301.2,292.6,307.4,299.2,307.4,310 M329,304.9c0-7.3,0-8.7,0.1-10.2c0.1-1.7,0.5-2.5,1.8-2.7c0.6-0.1,1.3-0.1,1.9-0.1
	c0.6,0,0.9-0.1,0.9-0.4c0-0.3-0.3-0.4-1-0.4c-1.9,0-5.4,0.1-6.5,0.1c-1.3,0-4.3-0.1-6.6-0.1c-0.7,0-1.1,0.1-1.1,0.4
	c0,0.3,0.3,0.4,0.8,0.4c0.6,0,1.2,0.1,1.6,0.1c1.6,0.3,2,1.1,2.1,2.7c0.1,1.5,0.1,2.9,0.1,10.2v8.5c0,4.4,0,8.2-0.2,10.2
	c-0.2,1.4-0.4,2.5-1.4,2.6c-0.4,0.1-1,0.2-1.7,0.2c-0.6,0-0.8,0.1-0.8,0.4c0,0.3,0.3,0.5,1,0.5c1.9,0,5-0.1,6.1-0.1
	c3.9,0,7.1,0.3,14,0.3c2.5,0,2.7-0.2,3-1.3c0.4-1.4,0.7-5,0.7-5.5c0-0.6,0-0.8-0.4-0.8c-0.4,0-0.5,0.3-0.5,0.7
	c-0.1,0.9-0.7,2.3-1.3,2.9c-1.2,1.3-3.1,1.3-5.6,1.3c-3.7,0-5-0.3-5.8-1.1c-1-0.9-1-4.2-1-10.3V304.9z M357,304.9
	c0-7.3,0-8.7,0.1-10.2c0.1-1.7,0.5-2.5,1.8-2.7c0.6-0.1,1.3-0.1,1.9-0.1c0.6,0,0.9-0.1,0.9-0.4c0-0.3-0.3-0.4-1-0.4
	c-1.9,0-5.4,0.1-6.5,0.1c-1.3,0-4.3-0.1-6.6-0.1c-0.7,0-1.1,0.1-1.1,0.4c0,0.3,0.3,0.4,0.8,0.4c0.6,0,1.2,0.1,1.6,0.1
	c1.6,0.3,2,1.1,2.1,2.7c0.1,1.5,0.1,2.9,0.1,10.2v8.5c0,4.4,0,8.2-0.2,10.2c-0.2,1.4-0.4,2.5-1.4,2.6c-0.4,0.1-1,0.2-1.7,0.2
	c-0.6,0-0.8,0.1-0.8,0.4c0,0.3,0.3,0.5,1,0.5c1.9,0,5-0.1,6.1-0.1c3.9,0,7.1,0.3,14,0.3c2.5,0,2.7-0.2,3-1.3c0.4-1.4,0.7-5,0.7-5.5
	c0-0.6-0.1-0.8-0.4-0.8c-0.4,0-0.5,0.3-0.5,0.7c-0.1,0.9-0.7,2.3-1.2,2.9c-1.2,1.3-3.1,1.3-5.6,1.3c-3.8,0-5-0.3-5.8-1.1
	c-1-0.9-1-4.2-1-10.3V304.9z M378.9,313.3c0,4.4,0,8.2-0.2,10.2c-0.2,1.4-0.4,2.5-1.4,2.6c-0.4,0.1-1,0.2-1.7,0.2
	c-0.6,0-0.8,0.1-0.8,0.4c0,0.3,0.3,0.5,1,0.5c1.9,0,5-0.1,6.1-0.1c2.8,0,6.1,0.3,13.3,0.3c1.8,0,2.3,0,2.6-1.3
	c0.2-1,0.6-4.2,0.6-5.3c0-0.5,0-0.9-0.4-0.9c-0.3,0-0.4,0.2-0.5,0.7c-0.3,2-0.9,3-2.2,3.6c-1.3,0.6-3.3,0.6-4.5,0.6
	c-4.9,0-5.7-0.7-5.8-4c0-1.4,0-5.8,0-7.5v-3.8c0-0.3,0.1-0.5,0.3-0.5c1.1,0,5.9,0,6.8,0.1c1.8,0.2,2.4,0.9,2.7,1.9
	c0.1,0.6,0.1,1.2,0.2,1.7c0,0.2,0.1,0.4,0.4,0.4c0.4,0,0.4-0.5,0.4-0.9c0-0.3,0.1-2.3,0.2-3.2c0.1-2.5,0.4-3.2,0.4-3.5
	c0-0.3-0.1-0.4-0.3-0.4c-0.2,0-0.4,0.2-0.8,0.6c-0.4,0.5-1.2,0.6-2.3,0.7c-1.1,0.1-6.6,0.1-7.7,0.1c-0.3,0-0.3-0.2-0.3-0.5V294
	c0-0.3,0.1-0.5,0.3-0.5c1,0,6,0.1,6.8,0.2c2.4,0.3,2.9,0.9,3.2,1.7c0.2,0.6,0.3,1.4,0.3,1.7c0,0.4,0.1,0.7,0.4,0.7s0.4-0.3,0.5-0.5
	c0.1-0.6,0.2-2.7,0.2-3.2c0.1-2.2,0.4-2.8,0.4-3.1c0-0.2-0.1-0.4-0.3-0.4c-0.2,0-0.5,0.2-0.8,0.2c-0.4,0.1-1.2,0.2-2.1,0.3
	c-0.9,0-10.5,0-12,0c-1.3,0-4.4-0.1-6.9-0.1c-0.7,0-1.1,0.1-1.1,0.4s0.3,0.4,0.8,0.4c0.7,0,1.5,0.1,1.9,0.2c1.6,0.3,2,1.1,2.1,2.7
	c0.1,1.5,0.1,2.9,0.1,10.2V313.3z M437.2,318.8c0-2.4,0-4.3,0-5.8c0.1-1.7,0.5-2.5,1.8-2.7c0.6-0.1,0.9-0.2,1.3-0.2
	c0.3,0,0.6-0.1,0.6-0.4c0-0.4-0.3-0.5-1-0.5c-1.6,0-4.1,0.2-5.6,0.2c-1.4,0-4.5-0.2-7-0.2c-0.7,0-1,0.1-1,0.5c0,0.3,0.3,0.4,0.7,0.4
	c0.7,0,1.5,0.1,1.9,0.2c1.6,0.3,2,1.1,2.1,2.7c0.1,1.4,0.1,3.3,0.1,5.7v4.5c0,0.8-0.2,1.4-0.9,1.8c-1.2,0.5-2.8,0.5-4.1,0.5
	c-10.1,0-16.7-7.7-16.7-18.1c0-5.9,1.7-9.5,4.4-11.8c3.4-2.8,6.9-3,9.5-3c5.4,0,9.3,2.2,10.7,3.8c1.2,1.3,1.5,2.9,1.6,4
	c0.1,0.4,0.1,0.6,0.5,0.6c0.4,0,0.5-0.2,0.5-1c0-6,0.3-7.4,0.3-7.9c0-0.3-0.1-0.5-0.7-0.6c-1.1-0.1-2.8-0.3-3.8-0.5
	c-1-0.2-5.2-0.8-8.5-0.8c-4,0-8.3,0.3-12.9,3.1c-4.4,2.6-8.4,8-8.4,15.7c0,13.3,10.4,18.8,22.2,18.8c3.7,0,8.5-0.5,11.6-2.2
	c0.6-0.3,0.6-0.4,0.6-1.7V318.8z M449.5,313.3c0,4.4,0,8.2-0.2,10.2c-0.2,1.4-0.4,2.5-1.4,2.6c-0.4,0.1-1,0.2-1.7,0.2
	c-0.6,0-0.8,0.1-0.8,0.4c0,0.3,0.3,0.5,1,0.5c1.9,0,5-0.1,6.1-0.1c2.8,0,6.1,0.3,13.3,0.3c1.8,0,2.3,0,2.6-1.3
	c0.2-1,0.6-4.2,0.6-5.3c0-0.5,0-0.9-0.4-0.9c-0.3,0-0.4,0.2-0.5,0.7c-0.3,2-0.9,3-2.2,3.6c-1.2,0.6-3.3,0.6-4.5,0.6
	c-4.9,0-5.7-0.7-5.8-4c0-1.4,0-5.8,0-7.5v-3.8c0-0.3,0.1-0.5,0.3-0.5c1.2,0,5.9,0,6.8,0.1c1.8,0.2,2.4,0.9,2.7,1.9
	c0.1,0.6,0.1,1.2,0.2,1.7c0,0.2,0.1,0.4,0.4,0.4c0.4,0,0.4-0.5,0.4-0.9c0-0.3,0.1-2.3,0.2-3.2c0.1-2.5,0.4-3.2,0.4-3.5
	c0-0.3-0.1-0.4-0.3-0.4c-0.2,0-0.4,0.2-0.8,0.6c-0.4,0.5-1.1,0.6-2.3,0.7c-1.1,0.1-6.6,0.1-7.7,0.1c-0.3,0-0.3-0.2-0.3-0.5V294
	c0-0.3,0.1-0.5,0.3-0.5c1,0,6,0.1,6.8,0.2c2.4,0.3,2.9,0.9,3.2,1.7c0.2,0.6,0.3,1.4,0.3,1.7c0,0.4,0.1,0.7,0.4,0.7s0.4-0.3,0.5-0.5
	c0.1-0.6,0.2-2.7,0.2-3.2c0.1-2.2,0.4-2.8,0.4-3.1c0-0.2,0-0.4-0.3-0.4s-0.5,0.2-0.8,0.2c-0.4,0.1-1.2,0.2-2.1,0.3
	c-0.9,0-10.5,0-12,0c-1.3,0-4.4-0.1-6.9-0.1c-0.7,0-1.1,0.1-1.1,0.4s0.3,0.4,0.8,0.4c0.7,0,1.5,0.1,1.9,0.2c1.6,0.3,2,1.1,2.1,2.7
	c0.1,1.5,0.1,2.9,0.1,10.2V313.3z"/>
</svg>
