<?xml version="1.0" encoding="UTF-8" standalone="no"?>
<!-- Created with Inkscape (http://www.inkscape.org/) -->

<svg
   xmlns:dc="http://purl.org/dc/elements/1.1/"
   xmlns:cc="http://creativecommons.org/ns#"
   xmlns:rdf="http://www.w3.org/1999/02/22-rdf-syntax-ns#"
   xmlns:svg="http://www.w3.org/2000/svg"
   xmlns="http://www.w3.org/2000/svg"
   xmlns:sodipodi="http://sodipodi.sourceforge.net/DTD/sodipodi-0.dtd"
   xmlns:inkscape="http://www.inkscape.org/namespaces/inkscape"
   width="115.56187"
   height="150"
   viewBox="0 0 30.575745 39.687501"
   version="1.1"
   id="svg5381"
   inkscape:version="0.92.1 r15371"
   sodipodi:docname="merritt.svg">
  <defs
     id="defs5375">
    <clipPath
       clipPathUnits="userSpaceOnUse"
       id="clipPath38">
      <path
         d="M 72.216,738 H 143.98 V 644.851 H 72.216 Z"
         id="path36"
         inkscape:connector-curvature="0" />
    </clipPath>
  </defs>
  <sodipodi:namedview
     id="base"
     pagecolor="#ffffff"
     bordercolor="#666666"
     borderopacity="1.0"
     inkscape:pageopacity="0.0"
     inkscape:pageshadow="2"
     inkscape:zoom="1.979899"
     inkscape:cx="-10.301243"
     inkscape:cy="39.484046"
     inkscape:document-units="mm"
     inkscape:current-layer="layer1"
     showgrid="false"
     units="px"
     fit-margin-top="0"
     fit-margin-left="0"
     fit-margin-right="0"
     fit-margin-bottom="0"
     inkscape:window-width="1600"
     inkscape:window-height="838"
     inkscape:window-x="-8"
     inkscape:window-y="-8"
     inkscape:window-maximized="1" />
  <metadata
     id="metadata5378">
    <rdf:RDF>
      <cc:Work
         rdf:about="">
        <dc:format>image/svg+xml</dc:format>
        <dc:type
           rdf:resource="http://purl.org/dc/dcmitype/StillImage" />
        <dc:title></dc:title>
      </cc:Work>
    </rdf:RDF>
  </metadata>
  <g
     inkscape:label="Layer 1"
     inkscape:groupmode="layer"
     id="layer1"
     transform="translate(-57.283555,-119.91816)">
    <g
       id="g32"
       transform="matrix(0.42606561,0,0,-0.42606561,26.514588,434.35449)">
      <g
         id="g34"
         clip-path="url(#clipPath38)">
        <g
           id="g40"
           transform="translate(143.9795,702.1188)">
          <path
             d="M 0,0 C 0,19.816 -16.065,35.881 -35.882,35.881 -55.698,35.881 -71.763,19.816 -71.763,0 v -57.268 h 71.742"
             style="fill:#1a68bb;fill-opacity:1;fill-rule:nonzero;stroke:none"
             id="path42"
             inkscape:connector-curvature="0" />
        </g>
        <g
           id="g44"
           transform="translate(140.3914,701.0492)">
          <path
             d="M 0,0 C 0,17.835 -14.459,32.293 -32.294,32.293 -50.129,32.293 -64.587,17.835 -64.587,0 v -51.542 h 64.568 z"
             style="fill:#1a68bb;fill-opacity:1;fill-rule:nonzero;stroke:#ffffff;stroke-width:1.08299994;stroke-linecap:butt;stroke-linejoin:miter;stroke-miterlimit:4;stroke-dasharray:none;stroke-opacity:1"
             id="path46"
             inkscape:connector-curvature="0" />
        </g>
        <g
           id="g48"
           transform="translate(111.0533,709.7415)">
          <path
             d="m 0,0 15.604,0.009 0.007,-3.046 -0.704,-0.747 0.006,-6.194 c -0.355,-0.249 -0.697,-0.394 -0.829,-0.145 0.088,0.083 0.044,0.248 0.044,0.373 -0.487,-0.042 -0.487,0.747 -1.106,0.622 0.042,0.249 -0.267,0.167 -0.4,0.291 -0.62,0.167 -1.461,-0.166 -2.037,0.332 C 10.319,-8.629 10.186,-8.547 9.92,-8.588 9.831,-8.505 9.743,-8.38 9.612,-8.422 L 9.389,-8.755 C 8.991,-8.67 8.458,-8.339 8.06,-8.67 c -0.265,0.041 -0.576,0 -0.62,-0.291 -0.045,-0.623 0,-1.203 -0.133,-1.702 -0.044,-0.248 0.221,-0.415 0.266,-0.663 -0.355,0.083 -0.709,-0.083 -1.152,-0.041 -0.089,-0.084 -0.044,-0.208 -0.044,-0.291 -0.133,0.041 -0.398,0.374 -0.398,0.539 0.133,0.291 -0.089,0.539 -0.089,0.872 -0.044,0.207 0.132,0.704 -0.178,0.871 -0.309,0.041 -0.797,0.124 -0.929,0.165 -0.178,0.125 -0.044,0.664 -0.444,0.623 -0.043,0.249 -0.265,0.539 -0.531,0.622 H 3.056 c 0.222,0.664 -0.532,0.705 -0.798,1.203 -0.133,0 -0.267,-0.042 -0.355,-0.166 C 1.682,-6.763 1.548,-7.219 1.328,-7.177 0.929,-7.219 0.796,-6.68 0.354,-6.888 L 0.087,-7.095 C 0.087,-4.731 0,-2.62 0,-0.041 l -1.285,-1.494 v -5.394 h -0.178 c 0.089,0.124 -0.088,0.166 -0.133,0.249 h -0.398 c 0.089,0.125 -0.044,0.208 -0.133,0.291 -0.31,0 -0.708,0.041 -0.796,-0.291 -0.311,-0.622 0.088,-1.369 -0.134,-1.949 -0.045,0.249 -0.354,0.373 -0.665,0.29 -0.176,-0.29 -0.93,0.042 -0.93,-0.54 0.133,-0.456 0.133,-1.079 0.754,-1.203 0,-0.082 0,-0.165 -0.089,-0.249 -0.222,0.167 -0.532,0.373 -0.842,0.208 -0.088,-0.291 -0.531,-0.416 -0.443,-0.788 -0.486,-0.084 -0.93,-0.167 -1.329,-0.415 0.045,0.124 -0.132,0.248 -0.221,0.248 0.177,0.291 0.798,-0.041 1.019,0.415 -0.044,0.456 0.089,0.664 -0.044,1.038 0.31,1.161 -0.709,2.116 -1.373,2.904 -0.576,-0.125 -0.974,0.622 -1.462,0.124 -0.62,0.415 -1.24,-0.041 -1.727,-0.332 0.044,-0.29 -0.443,-0.498 -0.354,-0.83 l -0.355,-0.166 V 17.259 H 0"
             style="fill:#ffffff;fill-opacity:1;fill-rule:nonzero;stroke:none"
             id="path50"
             inkscape:connector-curvature="0" />
        </g>
        <g
           id="g52"
           transform="translate(101.3066,703.1954)">
          <path
             d="m 0,0 c -1.408,-0.689 -0.088,-2.638 -0.178,-2.804 v -0.082 c -0.443,0.206 -0.266,0.788 -0.708,0.871 -0.355,0.249 -0.753,0 -1.063,-0.124 v -0.167 c -0.222,0.041 -0.31,-0.083 -0.443,-0.207 -0.088,-0.499 0.399,-0.623 0.443,-1.038 -0.708,-0.041 -1.594,0.333 -2.126,-0.166 0.266,-0.622 -0.62,-0.372 -0.752,-0.83 -0.577,-0.746 -2.216,0.499 -2.26,-0.828 -0.265,0.082 -0.354,-0.167 -0.443,-0.25 0.045,-0.414 -0.265,-0.539 -0.177,-0.954 0.355,0 0.222,-0.416 0.532,-0.373 l 0.177,-0.291 c -0.045,0.208 -0.753,-0.124 -0.532,0.374 -0.221,0.332 -0.753,0.124 -0.796,0.58 -0.311,0.042 -0.71,0.125 -0.975,-0.042 v -0.165 c -0.177,0.083 -0.31,-0.083 -0.399,-0.207 0.089,-0.292 -0.177,-0.292 -0.266,-0.54 v -0.705 h -0.177 c 0.266,0.622 -0.398,0.539 -0.265,1.12 -0.355,0.332 0.309,0.996 -0.355,1.12 -0.266,0.208 -0.664,-0.207 -0.708,0.249 -0.311,0.084 -0.798,0.291 -1.063,0 -0.045,-0.083 -0.178,-0.125 -0.222,-0.249 h -0.088 c -0.089,0.706 -0.044,1.576 -0.886,1.826 -0.93,-0.083 -1.418,0.705 -2.303,0.29 -0.355,0.041 -0.664,-0.041 -0.886,-0.373 l -0.049,-0.227 -1.256,0.069 0.064,4.971 -0.02,2.675 H 0.265"
             style="fill:#ffffff;fill-opacity:1;fill-rule:nonzero;stroke:none"
             id="path54"
             inkscape:connector-curvature="0" />
        </g>
        <g
           id="g56"
           transform="translate(140.269,705.1334)">
          <path
             d="m 0,0 c -0.51,0 -1.141,0.003 -1.938,0.003 1.264,-1.751 1.532,-2.005 2.135,-2.811 -0.398,-0.042 -0.669,0.155 -0.846,-0.217 -0.177,0.538 -0.886,0.621 -1.152,1.037 -0.356,0.124 -0.842,0.041 -1.019,-0.333 -0.044,-0.787 -0.753,-1.244 -0.397,-2.157 -0.135,0.332 -0.532,0.249 -0.887,0.249 l -0.044,-0.042 c 0.354,0.623 -0.125,1.053 -0.708,1.03 -0.316,0.644 -0.801,0.8 -1.433,-0.155 -0.243,0.134 -0.618,-0.214 -0.485,-0.421 0.195,-0.685 -0.429,-0.21 -0.826,-0.045 -0.946,0.133 -1.067,-0.11 -1.287,-0.45 -0.09,0.166 -0.354,0.124 -0.532,0.041 -0.176,-0.124 -0.222,-0.29 -0.176,-0.497 0.354,-0.249 -0.4,-0.54 -0.091,-0.954 l 0.445,-0.333 c -0.089,-0.29 -0.4,-0.414 -0.267,-0.788 0.134,-0.041 0.134,-0.248 0,-0.289 -0.265,-0.167 -0.575,-0.291 -0.796,-0.5 -0.09,0 -0.223,-0.04 -0.267,-0.124 -0.353,0.124 0.044,0.333 -0.177,0.498 -0.176,0.415 -0.664,0.706 -0.708,1.162 -0.133,0.165 -0.399,0.208 -0.487,0.041 0.044,0.333 -0.444,0.042 -0.31,0.416 -0.222,0.124 -0.443,0.29 -0.754,0.248 0,0.042 -0.088,0.125 -0.177,0.125 l -0.397,0.08 -0.007,6.766 h 13.576"
             style="fill:#ffffff;fill-opacity:1;fill-rule:nonzero;stroke:none"
             id="path58"
             inkscape:connector-curvature="0" />
        </g>
        <g
           id="g60"
           transform="translate(109.7234,719.7395)">
          <path
             d="M 0,0 C -2.037,2.864 -8.194,6.057 -8.194,6.057 H 0"
             style="fill:#1a68bb;fill-opacity:1;fill-rule:nonzero;stroke:none"
             id="path62"
             inkscape:connector-curvature="0" />
        </g>
        <g
           id="g64"
           transform="translate(115.7839,705.6641)">
          <path
             d="M 0,0 -3.049,2.833 H 0.008"
             style="fill:#1a68bb;fill-opacity:1;fill-rule:nonzero;stroke:none"
             id="path66"
             inkscape:connector-curvature="0" />
        </g>
        <g
           id="g68"
           transform="translate(120.567,705.6234)">
          <path
             d="M 0,0 -3.048,2.873 H 0.008"
             style="fill:#1a68bb;fill-opacity:1;fill-rule:nonzero;stroke:none"
             id="path70"
             inkscape:connector-curvature="0" />
        </g>
        <g
           id="g72"
           transform="translate(125.0854,705.5427)">
          <path
             d="M 0,0 -3.048,2.954 H 0.006"
             style="fill:#1a68bb;fill-opacity:1;fill-rule:nonzero;stroke:none"
             id="path74"
             inkscape:connector-curvature="0" />
        </g>
        <g
           id="g76"
           transform="translate(87.7256,702.292)">
          <path
             d="M 0,0 -2.956,2.862 H 0.055"
             style="fill:#1a68bb;fill-opacity:1;fill-rule:nonzero;stroke:none"
             id="path78"
             inkscape:connector-curvature="0" />
        </g>
        <g
           id="g80"
           transform="translate(93.177,702.292)">
          <path
             d="M 0,0 -3.056,2.862 H 0.022"
             style="fill:#1a68bb;fill-opacity:1;fill-rule:nonzero;stroke:none"
             id="path82"
             inkscape:connector-curvature="0" />
        </g>
        <g
           id="g84"
           transform="translate(98.5103,702.292)">
          <path
             d="M 0,0 -3.057,2.862 H 0.008"
             style="fill:#1a68bb;fill-opacity:1;fill-rule:nonzero;stroke:none"
             id="path86"
             inkscape:connector-curvature="0" />
        </g>
        <g
           id="g88"
           transform="translate(131.913,703.0023)">
          <path
             d="M 0,0 -3.233,2.134 H 0"
             style="fill:#1a68bb;fill-opacity:1;fill-rule:nonzero;stroke:none"
             id="path90"
             inkscape:connector-curvature="0" />
        </g>
        <g
           id="g92"
           transform="translate(136.7849,703.0023)">
          <path
             d="M 0,0 -3.277,2.134 H 0"
             style="fill:#1a68bb;fill-opacity:1;fill-rule:nonzero;stroke:none"
             id="path94"
             inkscape:connector-curvature="0" />
        </g>
        <g
           id="g96"
           transform="translate(140.373,685.9271)">
          <path
             d="m 0,0 h -64.546 v 8.422 c 4.4,-0.456 7.766,-1.992 10.777,-4.065 8.239,5.807 20.684,7.385 30.649,4.023 2.702,-0.953 5.094,-1.991 7.574,-3.525 4.694,3.401 9.611,6.471 15.546,7.135"
             style="fill:#ffffff;fill-opacity:1;fill-rule:nonzero;stroke:none"
             id="path98"
             inkscape:connector-curvature="0" />
        </g>
        <path
           d="m 75.799,685.097 h 64.574 v -0.623 H 75.799 Z"
           style="fill:#ffffff;fill-opacity:1;fill-rule:nonzero;stroke:none"
           id="path100"
           inkscape:connector-curvature="0" />
        <path
           d="m 75.799,683.19 h 64.574 v -0.582 H 75.799 Z"
           style="fill:#ffffff;fill-opacity:1;fill-rule:nonzero;stroke:none"
           id="path102"
           inkscape:connector-curvature="0" />
        <path
           d="m 75.799,680.908 h 64.574 v -0.582 H 75.799 Z"
           style="fill:#ffffff;fill-opacity:1;fill-rule:nonzero;stroke:none"
           id="path104"
           inkscape:connector-curvature="0" />
        <path
           d="m 75.799,678.335 h 64.574 v -0.623 H 75.799 Z"
           style="fill:#ffffff;fill-opacity:1;fill-rule:nonzero;stroke:none"
           id="path106"
           inkscape:connector-curvature="0" />
        <path
           d="m 75.799,675.223 h 64.574 v -0.58 H 75.799 Z"
           style="fill:#ffffff;fill-opacity:1;fill-rule:nonzero;stroke:none"
           id="path108"
           inkscape:connector-curvature="0" />
        <g
           id="g110"
           transform="translate(83.5355,699.0504)">
          <path
             d="m 0,0 c -1.078,0.135 -2.195,-0.265 -2.317,-1.596 -0.583,0.2 -1.035,-0.191 -1.105,-0.655 v -0.396 c -0.848,0 -0.907,1.328 -4.187,1.129 l 0.016,5.539 C -4.63,2.569 -4.967,2.727 -3.059,1.431 L -3.062,3.816 -7.591,3.8 -7.608,5.428 H 0"
             style="fill:#ffffff;fill-opacity:1;fill-rule:nonzero;stroke:none"
             id="path112"
             inkscape:connector-curvature="0" />
        </g>
        <g
           id="g114"
           transform="translate(80.6231,669.8531)">
          <path
             d="M 0,0 V 0.315 C 0.343,0.301 0.671,0.294 0.984,0.294 c 0.317,0 0.62,0.007 0.911,0.021 0.29,-0.657 0.555,-1.233 0.795,-1.729 l 1.87,-3.858 1.686,3.542 c 0.46,0.957 0.767,1.639 0.921,2.045 0.349,-0.014 0.644,-0.021 0.885,-0.021 0.22,0 0.577,0.007 1.071,0.021 L 9.123,0 C 8.73,-0.007 8.491,-0.024 8.406,-0.052 8.322,-0.08 8.263,-0.118 8.231,-0.167 8.187,-0.233 8.163,-0.393 8.156,-0.645 8.153,-0.711 8.146,-1.177 8.135,-2.044 v -2.281 c 0,-0.447 0.007,-0.882 0.021,-1.306 0.01,-0.311 0.034,-0.497 0.072,-0.556 0.038,-0.059 0.098,-0.103 0.182,-0.13 0.084,-0.029 0.322,-0.046 0.713,-0.053 v -0.315 c -0.664,0.021 -1.132,0.032 -1.404,0.032 -0.221,0 -0.707,-0.011 -1.459,-0.032 v 0.315 c 0.391,0.007 0.629,0.024 0.714,0.053 0.086,0.027 0.143,0.066 0.173,0.115 0.043,0.066 0.067,0.225 0.074,0.478 0.003,0.068 0.01,0.535 0.021,1.399 V -0.71 L 5.544,-4.266 C 5.278,-4.821 5.07,-5.268 4.919,-5.606 4.811,-5.853 4.647,-6.244 4.427,-6.78 H 4.235 c -0.043,0.126 -0.082,0.226 -0.118,0.301 l -0.335,0.715 -2.353,4.892 v -3.453 c 0,-0.447 0.007,-0.882 0.021,-1.306 C 1.46,-5.942 1.484,-6.128 1.522,-6.187 1.56,-6.246 1.62,-6.29 1.704,-6.317 1.788,-6.346 2.025,-6.363 2.416,-6.37 V -6.685 L 1.228,-6.653 0,-6.685 v 0.315 c 0.386,0.007 0.621,0.024 0.706,0.053 0.085,0.027 0.144,0.066 0.177,0.115 0.039,0.066 0.063,0.225 0.074,0.478 0.003,0.068 0.01,0.535 0.02,1.399 v 2.281 c 0,0.446 -0.007,0.883 -0.02,1.31 C 0.946,-0.422 0.923,-0.237 0.886,-0.18 0.848,-0.122 0.788,-0.08 0.705,-0.052 0.622,-0.024 0.387,-0.007 0,0"
             style="fill:#ffffff;fill-opacity:1;fill-rule:nonzero;stroke:none"
             id="path116"
             inkscape:connector-curvature="0" />
        </g>
        <g
           id="g118"
           transform="translate(91.9382,663.1685)">
          <path
             d="m 0,0 v 0.315 c 0.342,0.003 0.566,0.03 0.674,0.079 0.045,0.02 0.078,0.051 0.097,0.093 0.033,0.066 0.056,0.238 0.07,0.517 0.021,0.433 0.031,0.807 0.031,1.123 v 2.515 c 0,0.446 -0.007,0.882 -0.02,1.309 C 0.842,6.263 0.818,6.448 0.781,6.505 0.743,6.562 0.683,6.605 0.6,6.633 0.517,6.661 0.282,6.678 -0.105,6.685 V 7 L 1.298,6.97 2.785,6.995 C 3.497,7.005 4.014,7.01 4.335,7.01 4.66,7.01 4.967,6.992 5.255,6.955 5.202,6.767 5.165,6.604 5.146,6.465 5.139,6.435 5.109,6.091 5.056,5.434 H 4.74 C 4.744,5.771 4.722,6.078 4.676,6.356 4.497,6.432 4.298,6.484 4.082,6.51 3.715,6.557 3.348,6.579 2.981,6.579 2.903,6.579 2.727,6.573 2.456,6.561 2.184,6.547 1.989,6.536 1.871,6.527 1.857,6.161 1.846,5.818 1.839,5.498 L 1.819,3.826 C 2.204,3.805 2.558,3.794 2.88,3.794 c 0.392,0 0.726,0.018 1.003,0.054 0.105,0.013 0.173,0.04 0.202,0.079 0.03,0.04 0.056,0.174 0.079,0.404 l 0.03,0.345 H 4.488 V 4.583 L 4.467,3.566 4.488,2.424 H 4.141 L 4.127,2.759 C 4.12,3.002 4.098,3.153 4.06,3.212 4.022,3.272 3.951,3.313 3.845,3.336 3.658,3.375 3.295,3.395 2.756,3.395 2.535,3.395 2.223,3.384 1.819,3.363 1.802,3.036 1.794,2.55 1.794,1.905 1.794,1.299 1.802,0.839 1.819,0.525 2.291,0.49 2.822,0.473 3.41,0.473 c 0.417,0 0.715,0.013 0.892,0.039 0.177,0.026 0.341,0.071 0.492,0.132 0.04,0.102 0.08,0.239 0.119,0.412 0.072,0.291 0.12,0.51 0.143,0.657 H 5.381 C 5.297,1.05 5.255,0.501 5.255,0.065 4.973,0.021 4.63,0 4.227,0 L 1.289,0.031 C 1.246,0.031 0.817,0.021 0,0"
             style="fill:#ffffff;fill-opacity:1;fill-rule:nonzero;stroke:none"
             id="path120"
             inkscape:connector-curvature="0" />
        </g>
        <g
           id="g122"
           transform="translate(99.5903,669.8531)">
          <path
             d="M 0,0 V 0.315 C 0.128,0.312 0.323,0.309 0.586,0.303 L 1.532,0.284 c 0.187,0 0.478,0.005 0.871,0.016 0.513,0.017 0.81,0.026 0.892,0.026 0.627,0 1.084,-0.056 1.372,-0.168 C 4.954,0.046 5.177,-0.135 5.334,-0.385 5.492,-0.636 5.57,-0.909 5.57,-1.205 5.57,-1.48 5.496,-1.754 5.348,-2.027 5.199,-2.299 4.985,-2.525 4.703,-2.706 4.42,-2.886 4.054,-3.026 3.602,-3.124 3.684,-3.239 3.878,-3.496 4.184,-3.894 L 5.426,-5.532 C 5.782,-5.989 5.99,-6.243 6.049,-6.296 6.078,-6.318 6.108,-6.335 6.138,-6.345 6.187,-6.361 6.296,-6.37 6.464,-6.37 v -0.315 c -0.248,0.021 -0.465,0.032 -0.652,0.032 -0.192,0 -0.429,-0.011 -0.71,-0.032 -0.215,0.247 -0.574,0.729 -1.079,1.445 -0.28,0.398 -0.528,0.73 -0.742,0.997 -0.346,0.44 -0.676,0.84 -0.99,1.198 l 0.05,0.148 c 0.171,-0.01 0.301,-0.015 0.39,-0.015 0.6,0 1.055,0.141 1.366,0.423 0.309,0.283 0.464,0.655 0.464,1.118 0,0.403 -0.133,0.724 -0.399,0.962 -0.267,0.237 -0.67,0.356 -1.21,0.356 -0.339,0 -0.671,-0.052 -0.997,-0.157 C 1.942,-0.388 1.932,-0.553 1.926,-0.708 1.923,-0.754 1.911,-1.231 1.892,-2.14 v -2.187 c 0,-0.446 0.007,-0.881 0.021,-1.304 C 1.919,-5.943 1.941,-6.128 1.979,-6.188 2.017,-6.247 2.078,-6.29 2.163,-6.317 2.248,-6.346 2.484,-6.363 2.869,-6.37 V -6.685 C 2.404,-6.664 1.977,-6.653 1.587,-6.653 1.272,-6.653 0.743,-6.664 0,-6.685 v 0.315 c 0.386,0.007 0.621,0.024 0.706,0.053 0.085,0.027 0.144,0.066 0.177,0.115 0.039,0.066 0.063,0.225 0.074,0.478 0.003,0.068 0.01,0.535 0.02,1.399 v 2.281 c 0,0.446 -0.007,0.883 -0.02,1.31 C 0.946,-0.422 0.923,-0.237 0.886,-0.18 0.848,-0.122 0.788,-0.08 0.705,-0.052 0.622,-0.024 0.387,-0.007 0,0"
             style="fill:#ffffff;fill-opacity:1;fill-rule:nonzero;stroke:none"
             id="path124"
             inkscape:connector-curvature="0" />
        </g>
        <g
           id="g126"
           transform="translate(107.9445,669.8531)">
          <path
             d="M 0,0 V 0.315 C 0.128,0.312 0.323,0.309 0.586,0.303 L 1.531,0.284 c 0.188,0 0.478,0.005 0.873,0.016 0.512,0.017 0.809,0.026 0.891,0.026 0.627,0 1.084,-0.056 1.372,-0.168 C 4.954,0.046 5.176,-0.135 5.334,-0.385 5.492,-0.636 5.57,-0.909 5.57,-1.205 5.57,-1.48 5.496,-1.754 5.348,-2.027 5.2,-2.299 4.984,-2.525 4.702,-2.706 4.421,-2.886 4.054,-3.026 3.602,-3.124 3.684,-3.239 3.878,-3.496 4.184,-3.894 L 5.426,-5.532 C 5.782,-5.989 5.989,-6.243 6.049,-6.296 6.078,-6.318 6.108,-6.335 6.138,-6.345 6.187,-6.361 6.296,-6.37 6.464,-6.37 v -0.315 c -0.248,0.021 -0.465,0.032 -0.652,0.032 -0.192,0 -0.429,-0.011 -0.71,-0.032 -0.215,0.247 -0.574,0.729 -1.079,1.445 -0.28,0.398 -0.528,0.73 -0.742,0.997 -0.347,0.44 -0.676,0.84 -0.99,1.198 l 0.05,0.148 c 0.171,-0.01 0.301,-0.015 0.39,-0.015 0.6,0 1.056,0.141 1.366,0.423 0.309,0.283 0.464,0.655 0.464,1.118 0,0.403 -0.133,0.724 -0.399,0.962 -0.267,0.237 -0.67,0.356 -1.21,0.356 -0.339,0 -0.671,-0.052 -0.997,-0.157 C 1.942,-0.388 1.932,-0.553 1.926,-0.708 1.923,-0.754 1.911,-1.231 1.892,-2.14 v -2.187 c 0,-0.446 0.007,-0.881 0.021,-1.304 C 1.919,-5.943 1.941,-6.128 1.979,-6.188 2.017,-6.247 2.078,-6.29 2.163,-6.317 2.248,-6.346 2.484,-6.363 2.869,-6.37 V -6.685 C 2.404,-6.664 1.977,-6.653 1.587,-6.653 1.272,-6.653 0.743,-6.664 0,-6.685 v 0.315 c 0.386,0.007 0.621,0.024 0.706,0.053 0.085,0.027 0.144,0.066 0.177,0.115 0.039,0.066 0.063,0.225 0.074,0.478 0.003,0.068 0.01,0.535 0.02,1.399 v 2.281 c 0,0.446 -0.006,0.883 -0.02,1.31 C 0.946,-0.422 0.923,-0.237 0.886,-0.18 0.848,-0.122 0.788,-0.08 0.705,-0.052 0.622,-0.024 0.387,-0.007 0,0"
             style="fill:#ffffff;fill-opacity:1;fill-rule:nonzero;stroke:none"
             id="path128"
             inkscape:connector-curvature="0" />
        </g>
        <g
           id="g130"
           transform="translate(119.2102,663.4836)">
          <path
             d="m 0,0 v -0.315 c -0.697,0.021 -1.155,0.031 -1.374,0.031 L -2.891,-0.315 V 0 c 0.387,0.007 0.622,0.024 0.707,0.052 0.085,0.028 0.143,0.066 0.176,0.115 0.039,0.066 0.064,0.225 0.074,0.478 0.004,0.069 0.01,0.536 0.021,1.399 v 2.281 c 0,0.447 -0.007,0.884 -0.021,1.311 -0.01,0.311 -0.033,0.496 -0.071,0.554 -0.037,0.057 -0.097,0.1 -0.18,0.127 -0.083,0.029 -0.318,0.046 -0.706,0.053 v 0.315 c 0.625,-0.021 1.108,-0.032 1.448,-0.032 0.327,0 0.808,0.011 1.443,0.032 V 6.37 C -0.389,6.363 -0.625,6.346 -0.709,6.317 -0.792,6.29 -0.85,6.251 -0.883,6.202 -0.922,6.136 -0.947,5.977 -0.957,5.724 -0.96,5.659 -0.967,5.192 -0.977,4.325 V 2.044 c 0,-0.446 0.004,-0.881 0.014,-1.305 0.01,-0.312 0.034,-0.497 0.072,-0.557 C -0.854,0.123 -0.793,0.08 -0.71,0.052 -0.626,0.024 -0.389,0.007 0,0"
             style="fill:#ffffff;fill-opacity:1;fill-rule:nonzero;stroke:none"
             id="path132"
             inkscape:connector-curvature="0" />
        </g>
        <g
           id="g134"
           transform="translate(121.649,668.5391)">
          <path
             d="M 0,0 H -0.315 C -0.319,0.784 -0.336,1.328 -0.368,1.629 -0.009,1.613 0.554,1.593 1.322,1.569 1.944,1.553 2.359,1.545 2.567,1.545 2.791,1.545 3.31,1.557 4.124,1.581 4.713,1.597 5.143,1.613 5.413,1.629 5.371,1.262 5.343,0.719 5.329,0 H 5.013 L 4.974,0.472 C 4.948,0.757 4.929,0.92 4.92,0.959 4.91,0.998 4.896,1.026 4.878,1.043 4.859,1.059 4.832,1.072 4.796,1.082 4.75,1.092 4.585,1.105 4.302,1.121 4.019,1.138 3.795,1.146 3.63,1.146 H 3.027 C 2.992,0.83 2.975,0.406 2.975,-0.13 v -2.881 c 0,-0.447 0.006,-0.882 0.02,-1.306 0.01,-0.311 0.034,-0.497 0.071,-0.556 0.038,-0.059 0.098,-0.103 0.181,-0.13 0.083,-0.029 0.318,-0.046 0.705,-0.052 v -0.316 c -0.587,0.028 -1.029,0.042 -1.324,0.042 -0.128,0 -0.639,-0.014 -1.535,-0.042 v 0.316 c 0.392,0.006 0.63,0.023 0.715,0.052 0.086,0.027 0.144,0.066 0.173,0.115 0.043,0.066 0.069,0.225 0.079,0.478 0,0.069 0.007,0.535 0.021,1.399 v 2.871 c 0,0.138 -0.003,0.289 -0.011,0.453 L 2.039,1.146 H 1.309 C 0.887,1.146 0.552,1.129 0.304,1.096 0.225,1.087 0.175,1.066 0.152,1.033 0.116,0.977 0.083,0.798 0.054,0.497"
             style="fill:#ffffff;fill-opacity:1;fill-rule:nonzero;stroke:none"
             id="path136"
             inkscape:connector-curvature="0" />
        </g>
        <g
           id="g138"
           transform="translate(129.4467,668.5391)">
          <path
             d="M 0,0 H -0.315 C -0.319,0.784 -0.336,1.328 -0.368,1.629 -0.009,1.613 0.554,1.593 1.322,1.569 1.944,1.553 2.359,1.545 2.567,1.545 2.791,1.545 3.31,1.557 4.124,1.581 4.713,1.597 5.143,1.613 5.413,1.629 5.371,1.262 5.343,0.719 5.329,0 H 5.014 L 4.974,0.472 C 4.948,0.757 4.93,0.92 4.92,0.959 4.91,0.998 4.896,1.026 4.878,1.043 4.86,1.059 4.833,1.072 4.796,1.082 4.75,1.092 4.585,1.105 4.302,1.121 4.019,1.138 3.795,1.146 3.63,1.146 H 3.027 C 2.992,0.83 2.975,0.406 2.975,-0.13 v -2.881 c 0,-0.447 0.007,-0.882 0.021,-1.306 0.009,-0.311 0.033,-0.497 0.07,-0.556 0.038,-0.059 0.098,-0.103 0.181,-0.13 0.083,-0.029 0.318,-0.046 0.705,-0.052 v -0.316 c -0.587,0.028 -1.028,0.042 -1.324,0.042 -0.128,0 -0.639,-0.014 -1.535,-0.042 v 0.316 c 0.392,0.006 0.63,0.023 0.715,0.052 0.086,0.027 0.143,0.066 0.173,0.115 0.043,0.066 0.069,0.225 0.079,0.478 0,0.069 0.007,0.535 0.021,1.399 v 2.871 c 0,0.138 -0.003,0.289 -0.01,0.453 L 2.039,1.146 H 1.309 C 0.887,1.146 0.552,1.129 0.304,1.096 0.225,1.087 0.175,1.066 0.152,1.033 0.116,0.977 0.083,0.798 0.054,0.497"
             style="fill:#ffffff;fill-opacity:1;fill-rule:nonzero;stroke:none"
             id="path140"
             inkscape:connector-curvature="0" />
        </g>
        <g
           id="g142"
           transform="translate(86.0637,653.9521)">
          <path
             d="m 0,0 -0.192,-0.458 c -0.385,-0.194 -0.761,-0.335 -1.129,-0.422 -0.368,-0.087 -0.769,-0.131 -1.203,-0.131 -0.509,0 -0.983,0.065 -1.42,0.193 -0.437,0.128 -0.819,0.311 -1.146,0.549 -0.327,0.238 -0.594,0.505 -0.801,0.801 -0.207,0.295 -0.365,0.617 -0.474,0.964 -0.108,0.346 -0.162,0.726 -0.162,1.14 0,1.048 0.366,1.916 1.097,2.604 0.731,0.689 1.729,1.033 2.995,1.033 0.299,0 0.576,-0.017 0.83,-0.052 0.255,-0.034 0.566,-0.1 0.932,-0.197 C -0.306,5.927 -0.082,5.87 0,5.854 -0.073,5.673 -0.127,5.495 -0.164,5.322 -0.217,5.042 -0.253,4.718 -0.273,4.35 H -0.578 L -0.583,4.93 C -0.616,5.252 -0.794,5.491 -1.119,5.648 -1.443,5.806 -1.917,5.884 -2.542,5.884 -3.01,5.878 -3.406,5.818 -3.732,5.705 -4.058,5.591 -4.345,5.413 -4.593,5.169 -4.842,4.924 -5.045,4.614 -5.203,4.238 -5.361,3.862 -5.441,3.39 -5.444,2.823 c 0,-0.994 0.303,-1.794 0.912,-2.4 0.608,-0.605 1.412,-0.908 2.411,-0.908 0.451,0 0.868,0.062 1.253,0.187 0.263,0.084 0.525,0.218 0.784,0.402"
             style="fill:#ffffff;fill-opacity:1;fill-rule:nonzero;stroke:none"
             id="path144"
             inkscape:connector-curvature="0" />
        </g>
        <g
           id="g146"
           transform="translate(88.1997,656.5372)">
          <path
             d="M 0,0 C 0,0.518 0.078,0.998 0.234,1.438 0.39,1.877 0.648,2.273 1.01,2.624 1.371,2.976 1.78,3.241 2.236,3.42 2.693,3.599 3.215,3.688 3.802,3.688 4.344,3.688 4.837,3.612 5.28,3.459 5.723,3.307 6.087,3.104 6.371,2.853 6.655,2.602 6.879,2.327 7.043,2.029 7.168,1.805 7.267,1.543 7.341,1.24 7.415,0.938 7.452,0.615 7.452,0.27 7.452,-0.836 7.08,-1.757 6.336,-2.493 5.593,-3.228 4.654,-3.596 3.522,-3.596 c -0.516,0 -0.997,0.084 -1.444,0.251 -0.446,0.168 -0.824,0.417 -1.132,0.746 -0.309,0.33 -0.544,0.731 -0.705,1.202 C 0.08,-0.926 0,-0.46 0,0 Z m 1.03,0.409 c 0,-0.312 0.031,-0.628 0.094,-0.95 0.062,-0.321 0.141,-0.598 0.236,-0.831 0.157,-0.394 0.364,-0.725 0.618,-0.992 0.254,-0.267 0.538,-0.464 0.852,-0.59 0.313,-0.127 0.66,-0.19 1.041,-0.19 0.528,0 0.988,0.129 1.378,0.387 0.391,0.257 0.682,0.62 0.875,1.087 0.192,0.468 0.287,1.006 0.287,1.617 0,0.521 -0.069,1.001 -0.206,1.441 C 6.119,1.657 6.006,1.901 5.865,2.119 5.724,2.337 5.555,2.527 5.36,2.69 5.165,2.852 4.911,2.989 4.6,3.1 4.288,3.212 3.951,3.268 3.591,3.268 3.069,3.268 2.61,3.151 2.217,2.918 1.823,2.685 1.526,2.348 1.328,1.907 1.129,1.466 1.03,0.967 1.03,0.409"
             style="fill:#ffffff;fill-opacity:1;fill-rule:nonzero;stroke:none"
             id="path148"
             inkscape:connector-curvature="0" />
        </g>
        <g
           id="g150"
           transform="translate(98.1353,653.0783)">
          <path
             d="m 0,0 v 0.254 c 0.203,0.095 0.332,0.17 0.387,0.226 0.033,0.03 0.056,0.068 0.069,0.114 0.03,0.092 0.049,0.289 0.059,0.591 0.014,0.45 0.021,0.718 0.021,0.803 V 4.64 C 0.536,5.086 0.529,5.523 0.515,5.95 0.505,6.262 0.482,6.448 0.444,6.505 0.407,6.562 0.346,6.605 0.264,6.633 0.181,6.661 -0.054,6.678 -0.441,6.685 V 7 C 0.357,6.979 0.851,6.968 1.041,6.968 1.251,6.968 1.721,6.979 2.453,7 V 6.685 C 2.062,6.678 1.825,6.661 1.741,6.633 1.657,6.605 1.599,6.566 1.566,6.517 1.527,6.451 1.502,6.292 1.493,6.039 1.489,5.973 1.482,5.507 1.471,4.639 V 1.326 C 1.471,0.981 1.479,0.7 1.493,0.483 1.867,0.462 2.239,0.452 2.607,0.452 c 0.928,0 1.577,0.059 1.949,0.179 0.042,0.098 0.08,0.211 0.113,0.339 L 4.866,1.787 H 5.192 C 5.12,1.297 5.05,0.723 4.982,0.063 4.847,0.037 4.741,0.021 4.662,0.014 4.491,0.004 4.229,0 3.874,0 L 0.96,0.031 C 0.645,0.031 0.325,0.021 0,0"
             style="fill:#ffffff;fill-opacity:1;fill-rule:nonzero;stroke:none"
             id="path152"
             inkscape:connector-curvature="0" />
        </g>
        <g
           id="g154"
           transform="translate(105.9131,653.0783)">
          <path
             d="m 0,0 v 0.254 c 0.203,0.095 0.332,0.17 0.387,0.226 0.033,0.03 0.056,0.068 0.069,0.114 0.03,0.092 0.049,0.289 0.059,0.591 0.014,0.45 0.021,0.718 0.021,0.803 V 4.64 C 0.536,5.086 0.529,5.523 0.515,5.95 0.505,6.262 0.482,6.448 0.444,6.505 0.407,6.562 0.346,6.605 0.264,6.633 0.181,6.661 -0.054,6.678 -0.441,6.685 V 7 C 0.357,6.979 0.851,6.968 1.041,6.968 1.25,6.968 1.721,6.979 2.454,7 V 6.685 C 2.062,6.678 1.825,6.661 1.741,6.633 1.657,6.605 1.599,6.566 1.566,6.517 1.527,6.451 1.502,6.292 1.493,6.039 1.489,5.973 1.482,5.507 1.471,4.639 V 1.326 C 1.471,0.981 1.479,0.7 1.493,0.483 1.867,0.462 2.239,0.452 2.607,0.452 c 0.928,0 1.577,0.059 1.949,0.179 0.042,0.098 0.08,0.211 0.113,0.339 L 4.866,1.787 H 5.192 C 5.12,1.297 5.05,0.723 4.982,0.063 4.847,0.037 4.741,0.021 4.662,0.014 4.491,0.004 4.229,0 3.874,0 L 0.96,0.031 C 0.645,0.031 0.325,0.021 0,0"
             style="fill:#ffffff;fill-opacity:1;fill-rule:nonzero;stroke:none"
             id="path156"
             inkscape:connector-curvature="0" />
        </g>
        <g
           id="g158"
           transform="translate(113.4074,653.0783)">
          <path
             d="m 0,0 v 0.315 c 0.342,0.003 0.566,0.03 0.673,0.079 0.046,0.02 0.078,0.051 0.098,0.093 0.033,0.066 0.056,0.238 0.07,0.517 0.021,0.433 0.031,0.807 0.031,1.123 V 4.642 C 0.872,5.088 0.865,5.524 0.851,5.951 0.842,6.263 0.818,6.448 0.78,6.505 0.743,6.562 0.683,6.605 0.6,6.633 0.517,6.661 0.282,6.678 -0.105,6.685 V 7 L 1.298,6.97 2.784,6.995 C 3.496,7.005 4.013,7.01 4.335,7.01 4.659,7.01 4.966,6.992 5.255,6.955 5.202,6.767 5.165,6.604 5.145,6.465 5.139,6.435 5.109,6.091 5.055,5.434 H 4.74 C 4.743,5.771 4.722,6.078 4.676,6.356 4.496,6.432 4.298,6.484 4.082,6.51 3.715,6.557 3.348,6.579 2.981,6.579 2.903,6.579 2.727,6.573 2.456,6.561 2.184,6.547 1.989,6.536 1.871,6.527 1.857,6.161 1.846,5.818 1.839,5.498 L 1.818,3.826 C 2.203,3.805 2.557,3.794 2.88,3.794 c 0.392,0 0.726,0.018 1.003,0.054 0.105,0.013 0.173,0.04 0.202,0.079 0.029,0.04 0.056,0.174 0.079,0.404 l 0.03,0.345 H 4.488 V 4.583 L 4.467,3.566 4.488,2.424 H 4.141 L 4.127,2.759 C 4.12,3.002 4.098,3.154 4.06,3.212 4.022,3.272 3.95,3.313 3.845,3.336 3.658,3.375 3.294,3.395 2.755,3.395 2.535,3.395 2.223,3.384 1.818,3.363 1.802,3.036 1.794,2.55 1.794,1.905 1.794,1.299 1.802,0.839 1.818,0.525 2.291,0.49 2.822,0.473 3.41,0.473 c 0.417,0 0.714,0.013 0.891,0.039 0.178,0.026 0.342,0.071 0.494,0.132 0.039,0.102 0.078,0.239 0.118,0.412 0.072,0.291 0.12,0.51 0.142,0.657 H 5.381 C 5.297,1.05 5.255,0.501 5.255,0.065 4.973,0.021 4.63,0 4.227,0 L 1.289,0.031 C 1.246,0.031 0.817,0.021 0,0"
             style="fill:#ffffff;fill-opacity:1;fill-rule:nonzero;stroke:none"
             id="path160"
             inkscape:connector-curvature="0" />
        </g>
        <g
           id="g162"
           transform="translate(127.8699,653.4671)">
          <path
             d="m 0,0 c -0.5,-0.18 -0.91,-0.302 -1.23,-0.363 -0.563,-0.109 -1.096,-0.163 -1.6,-0.163 -0.76,0 -1.437,0.149 -2.029,0.446 -0.593,0.297 -1.051,0.713 -1.373,1.249 -0.323,0.535 -0.484,1.167 -0.484,1.895 0,0.641 0.116,1.185 0.347,1.633 0.233,0.448 0.522,0.817 0.869,1.106 0.348,0.288 0.694,0.502 1.039,0.64 0.53,0.21 1.185,0.315 1.965,0.315 C -2.131,6.755 -1.747,6.713 -1.344,6.632 -0.941,6.552 -0.486,6.441 0.021,6.299 -0.029,6.131 -0.068,5.967 -0.095,5.806 -0.121,5.644 -0.156,5.314 -0.2,4.814 H -0.505 L -0.529,5.378 C -0.532,5.464 -0.536,5.533 -0.539,5.586 -0.542,5.639 -0.564,5.707 -0.603,5.789 -0.692,5.907 -0.834,6.015 -1.027,6.111 -1.363,6.239 -1.64,6.325 -1.859,6.368 -2.078,6.411 -2.338,6.432 -2.641,6.432 -3.266,6.432 -3.806,6.299 -4.264,6.033 -4.721,5.767 -5.067,5.386 -5.302,4.889 -5.537,4.393 -5.655,3.851 -5.655,3.263 c 0,-0.648 0.138,-1.23 0.414,-1.747 0.275,-0.518 0.645,-0.914 1.108,-1.188 0.464,-0.275 1.004,-0.412 1.621,-0.412 0.29,0 0.571,0.028 0.844,0.084 0.272,0.055 0.502,0.133 0.691,0.231 0.028,0.132 0.042,0.341 0.042,0.63 v 0.546 c 0,0.288 -0.015,0.457 -0.045,0.506 -0.029,0.05 -0.109,0.087 -0.239,0.111 -0.13,0.025 -0.428,0.044 -0.894,0.057 v 0.305 l 1.534,-0.032 c 0.295,0 0.598,0.011 0.907,0.032 L 0.357,2.144 0,1.928 C -0.042,1.577 -0.063,1.254 -0.063,0.959 -0.063,0.664 -0.042,0.344 0,0"
             style="fill:#ffffff;fill-opacity:1;fill-rule:nonzero;stroke:none"
             id="path164"
             inkscape:connector-curvature="0" />
        </g>
        <g
           id="g166"
           transform="translate(130.5001,653.0783)">
          <path
             d="m 0,0 v 0.315 c 0.342,0.003 0.566,0.03 0.674,0.079 0.045,0.02 0.078,0.051 0.097,0.093 0.033,0.066 0.056,0.238 0.07,0.517 0.021,0.433 0.031,0.807 0.031,1.123 v 2.515 c 0,0.446 -0.006,0.882 -0.02,1.309 C 0.842,6.263 0.818,6.448 0.781,6.505 0.743,6.562 0.683,6.605 0.6,6.633 0.517,6.661 0.282,6.678 -0.105,6.685 V 7 L 1.298,6.97 2.785,6.995 C 3.497,7.005 4.014,7.01 4.335,7.01 4.66,7.01 4.967,6.992 5.255,6.955 5.202,6.767 5.166,6.604 5.146,6.465 5.139,6.435 5.109,6.091 5.056,5.434 H 4.74 C 4.744,5.771 4.722,6.078 4.677,6.356 4.496,6.432 4.298,6.484 4.082,6.51 3.715,6.557 3.348,6.579 2.982,6.579 2.903,6.579 2.728,6.573 2.456,6.561 2.184,6.547 1.989,6.536 1.871,6.527 1.857,6.161 1.846,5.818 1.839,5.498 L 1.819,3.826 C 2.204,3.805 2.558,3.794 2.88,3.794 c 0.392,0 0.726,0.018 1.003,0.054 0.105,0.013 0.173,0.04 0.202,0.079 0.03,0.04 0.056,0.174 0.079,0.404 l 0.03,0.345 H 4.488 V 4.583 L 4.467,3.566 4.488,2.424 H 4.141 L 4.127,2.759 C 4.12,3.002 4.098,3.154 4.06,3.212 4.022,3.272 3.95,3.313 3.845,3.336 3.658,3.375 3.295,3.395 2.756,3.395 2.535,3.395 2.223,3.384 1.819,3.363 1.802,3.036 1.794,2.55 1.794,1.905 1.794,1.299 1.802,0.839 1.819,0.525 2.291,0.49 2.822,0.473 3.41,0.473 c 0.417,0 0.715,0.013 0.892,0.039 0.177,0.026 0.341,0.071 0.492,0.132 0.04,0.102 0.08,0.239 0.119,0.412 0.072,0.291 0.12,0.51 0.143,0.657 H 5.381 C 5.297,1.05 5.255,0.501 5.255,0.065 4.973,0.021 4.63,0 4.227,0 L 1.289,0.031 C 1.246,0.031 0.817,0.021 0,0"
             style="fill:#ffffff;fill-opacity:1;fill-rule:nonzero;stroke:none"
             id="path168"
             inkscape:connector-curvature="0" />
        </g>
      </g>
    </g>
  </g>
</svg>
