<?xml version="1.0" encoding="utf-8"?>
<!-- Generator: Adobe Illustrator 19.2.1, SVG Export Plug-In . SVG Version: 6.00 Build 0)  -->
<svg version="1.1" id="layer" xmlns="http://www.w3.org/2000/svg" xmlns:xlink="http://www.w3.org/1999/xlink" x="0px" y="0px"
	 viewBox="0 0 652 652" style="enable-background:new 0 0 652 652;" xml:space="preserve">
<style type="text/css">
	.st0{clip-path:url(#SVGID_2_);fill:url(#SVGID_3_);}
	.st1{fill:#231815;}
	.st2{clip-path:url(#SVGID_5_);fill:url(#SVGID_6_);}
	.st3{clip-path:url(#SVGID_8_);fill:url(#SVGID_9_);}
	.st4{clip-path:url(#SVGID_11_);fill:url(#SVGID_12_);}
	.st5{clip-path:url(#SVGID_14_);fill:url(#SVGID_15_);}
	.st6{clip-path:url(#SVGID_17_);fill:url(#SVGID_18_);}
</style>
<g>
	<defs>
		<path id="SVGID_1_" d="M411.9,258.2c88.4-10.1,140.2,40.7,156.5,78l-14.2-62.5c-29.6-16.5-63.1-20.9-90.1-20.9
			C434,252.9,411.9,258.2,411.9,258.2"/>
	</defs>
	<clipPath id="SVGID_2_">
		<use xlink:href="#SVGID_1_"  style="overflow:visible;"/>
	</clipPath>
	
		<linearGradient id="SVGID_3_" gradientUnits="userSpaceOnUse" x1="35.3112" y1="719.7662" x2="40.8739" y2="719.7662" gradientTransform="matrix(20.2664 8.6026 8.6026 -20.2664 -6470.7192 14552.8223)">
		<stop  offset="0" style="stop-color:#168B37"/>
		<stop  offset="2.455574e-002" style="stop-color:#219035"/>
		<stop  offset="0.112" style="stop-color:#41A030"/>
		<stop  offset="0.2021" style="stop-color:#5BAD2C"/>
		<stop  offset="0.2948" style="stop-color:#6EB629"/>
		<stop  offset="0.3918" style="stop-color:#78BB28"/>
		<stop  offset="0.5" style="stop-color:#7CBD27"/>
		<stop  offset="0.6121" style="stop-color:#94C616"/>
		<stop  offset="0.7325" style="stop-color:#A7CC0A"/>
		<stop  offset="0.859" style="stop-color:#B1D002"/>
		<stop  offset="1" style="stop-color:#B5D100"/>
	</linearGradient>
	<polygon class="st0" points="435.8,191.8 600.1,261.6 544.5,392.5 380.2,322.8 	"/>
</g>
<polygon class="st1" points="176.9,325.9 183.4,325.9 169.1,383.2 162.6,383.2 "/>
<g>
	<path class="st1" d="M212.4,355.1c8.6,0,15.8-4.4,17.7-11.8l0-0.2c1.8-7-2.6-11.3-11.8-11.3h-17.7l-5.8,23.2H212.4z M195.6,325.9
		h24.6c7,0,12.1,2.1,14.8,5.7c2.1,2.8,2.7,6.8,1.6,11.3l0,0.2c-2.4,9.5-10.3,15.1-19.7,16.7l11.8,23.4h-7.9L209.7,361h-0.2h-16.2
		l-5.5,22.2h-6.5L195.6,325.9z"/>
</g>
<path class="st1" d="M269.5,362.3l-5.7-29.2l-20.3,29.2H269.5z M262.7,325.5h6.1l11.7,57.7h-7l-2.9-15.1h-31.2l-10.6,15.1h-6.6
	L262.7,325.5z"/>
<polygon class="st1" points="106.1,310 98.2,310 80,383 87.4,383 102.5,322.7 119.8,362.8 119.9,362.8 157.3,322.6 142.2,383 
	149.9,383 168.1,310 160.2,310 123,350.5 "/>
<g>
	<path class="st1" d="M314.7,377.4c-16.4,0-25.5-13.6-21.2-30.8l0.1-0.2c4.3-17.1,20-30.5,36.5-30.6c10,0,15.9,4.2,20.7,10l6.6-5.6
		c-5.6-6.8-12.3-11.4-25.5-11.4c-21.5,0-41.2,17.1-46.4,37.8l-0.1,0.2c-5.2,21,6.2,37.6,27.3,37.6c13.2,0,22.7-5,32.2-12.6l-3.8-4.9
		C332.5,373.5,324.8,377.4,314.7,377.4"/>
	<path class="st1" d="M401,354.7l0-0.2c3.2-13-3.6-23.6-16.7-23.6c-13.1,0-25,10.5-28.3,23.5l0,0.2c-3.2,13,3.6,23.6,16.7,23.6
		C385.8,378.2,397.7,367.7,401,354.7 M349.3,354.7l0-0.2c3.9-15.8,19.2-29.6,36.7-29.6c17.4,0,25.7,13.7,21.8,29.4
		c0.1,0.1,0.1,0.1,0,0.2c-3.9,15.8-19.2,29.6-36.7,29.6C353.6,384.2,345.4,370.5,349.3,354.7"/>
	<path class="st1" d="M254.2,445.4c-13.3,0-20.6-11-17.2-24.9l0-0.2c3.5-13.8,16.1-24.7,29.5-24.7c8.1,0,12.9,3.4,16.7,8.1l5.4-4.5
		c-4.5-5.5-9.9-9.2-20.6-9.2c-17.4,0-33.3,13.8-37.5,30.6l0,0.2c-4.2,17,5,30.4,22.1,30.4c10.6,0,18.3-4,26-10.2l-3.1-4
		C268.6,442.3,262.4,445.4,254.2,445.4"/>
	<path class="st1" d="M324,427.1l0-0.1c2.6-10.5-2.9-19.1-13.5-19.1c-10.6,0-20.2,8.5-22.8,19l0,0.1c-2.6,10.5,2.9,19.1,13.5,19.1
		C311.7,446.1,321.3,437.6,324,427.1 M282.2,427.1l0-0.1c3.2-12.8,15.6-23.9,29.6-23.9c14.1,0,20.8,11,17.6,23.8c0,0.1,0,0.1,0,0.1
		c-3.2,12.8-15.6,23.9-29.6,23.9C285.7,450.9,279,439.9,282.2,427.1"/>
	<path class="st1" d="M404,374.9l5.2-4.7c4.6,5.4,9.7,8.1,17.6,8.1c7.7,0,13.8-4.1,15.2-9.7l0-0.2c1.3-5.3-0.8-8.3-12.2-10.9
		c-12.4-2.9-17.4-7.1-15.1-16.5l0-0.2c2.2-9,11.8-15.6,22.7-15.6c8.3,0,13.7,2.4,18.4,7l-5,5c-4.2-4.3-9.1-6.2-15-6.2
		c-7.4,0-13.2,4.1-14.5,9.2l0,0.2c-1.3,5.4,0.8,8.4,12.8,11.1c12.1,2.8,16.8,7.4,14.6,16.2l0,0.2c-2.4,9.8-12.2,16.2-23.6,16.2
		C416,384,409.3,381,404,374.9"/>
</g>
<polygon class="st1" points="479.5,331.9 460.3,331.9 461.8,325.9 506.7,325.9 505.3,331.9 486,331.9 473.3,383.2 466.7,383.2 "/>
<path class="st1" d="M530.9,362.3l-5.7-29.2l-20.4,29.2H530.9z M524.1,325.5h6.1l11.7,57.7h-7l-2.9-15.1h-31.2l-10.6,15.1h-6.6
	L524.1,325.5z"/>
<g>
	<defs>
		<path id="SVGID_4_" d="M270,314.8c0,0,143.9-150.6,350-82v-6.5l-17.2-78.1C531.2,152.1,377,177.4,270,314.8"/>
	</defs>
	<clipPath id="SVGID_5_">
		<use xlink:href="#SVGID_4_"  style="overflow:visible;"/>
	</clipPath>
	
		<linearGradient id="SVGID_6_" gradientUnits="userSpaceOnUse" x1="23.5548" y1="717.8024" x2="29.1175" y2="717.8024" gradientTransform="matrix(50.4478 -11.2764 -11.2764 -50.4478 7253.2822 36730.4492)">
		<stop  offset="0" style="stop-color:#003A73"/>
		<stop  offset="0.3207" style="stop-color:#0088C2"/>
		<stop  offset="0.5" style="stop-color:#00AFE9"/>
		<stop  offset="0.7288" style="stop-color:#4DC1EC"/>
		<stop  offset="0.9118" style="stop-color:#85CEEE"/>
		<stop  offset="1" style="stop-color:#9AD3EF"/>
		<stop  offset="1" style="stop-color:#D3E9F4"/>
	</linearGradient>
	<polygon class="st2" points="234.6,156.1 603.3,73.7 655.5,306.8 286.7,389.3 	"/>
</g>
<g>
	<defs>
		<path id="SVGID_7_" d="M60.4,460.8l-9.6,40.2h3.6c47.5-13.6,109.3-43.6,169.3-109.2C223.8,391.7,154.2,458.1,60.4,460.8"/>
	</defs>
	<clipPath id="SVGID_8_">
		<use xlink:href="#SVGID_7_"  style="overflow:visible;"/>
	</clipPath>
	
		<linearGradient id="SVGID_9_" gradientUnits="userSpaceOnUse" x1="20.2588" y1="733.6714" x2="25.8215" y2="733.6714" gradientTransform="matrix(-24.9035 7.4714 7.4714 24.9035 -4799.3271 -17988.1328)">
		<stop  offset="0" style="stop-color:#003A73"/>
		<stop  offset="0.3207" style="stop-color:#0088C2"/>
		<stop  offset="0.5" style="stop-color:#00AFE9"/>
		<stop  offset="0.7288" style="stop-color:#4DC1EC"/>
		<stop  offset="0.9118" style="stop-color:#85CEEE"/>
		<stop  offset="1" style="stop-color:#9AD3EF"/>
		<stop  offset="1" style="stop-color:#D3E9F4"/>
	</linearGradient>
	<polygon class="st3" points="253.9,491.9 65.1,548.5 20.8,400.7 209.5,344.1 	"/>
</g>
<g>
	<defs>
		<path id="SVGID_10_" d="M40.8,432.3L36.2,452c80.4,9.9,141-33.6,141-33.6C111.7,446.7,68.3,443.6,40.8,432.3"/>
	</defs>
	<clipPath id="SVGID_11_">
		<use xlink:href="#SVGID_10_"  style="overflow:visible;"/>
	</clipPath>
	
		<linearGradient id="SVGID_12_" gradientUnits="userSpaceOnUse" x1="20.11" y1="734.0613" x2="25.6726" y2="734.0613" gradientTransform="matrix(-24.018 5.2807 5.2807 24.018 -3240.7849 -17306.8242)">
		<stop  offset="0" style="stop-color:#00638B"/>
		<stop  offset="0.259" style="stop-color:#007DA7"/>
		<stop  offset="0.5" style="stop-color:#0091BC"/>
		<stop  offset="0.7288" style="stop-color:#4DB2D6"/>
		<stop  offset="0.9118" style="stop-color:#85CAE8"/>
		<stop  offset="1" style="stop-color:#9AD3EF"/>
		<stop  offset="1" style="stop-color:#A1D8E1"/>
	</linearGradient>
	<polygon class="st4" points="186.3,459.9 42.7,491.4 27.1,420.4 170.7,388.8 	"/>
</g>
<g>
	<defs>
		<path id="SVGID_13_" d="M20,409.3c42.4,37.1,112.2,19.9,112.2,19.9c-62,11.1-97.4-35.7-100.4-68.8L20,409.3z"/>
	</defs>
	<clipPath id="SVGID_14_">
		<use xlink:href="#SVGID_13_"  style="overflow:visible;"/>
	</clipPath>
	
		<linearGradient id="SVGID_15_" gradientUnits="userSpaceOnUse" x1="13.4645" y1="736.3705" x2="19.0272" y2="736.3705" gradientTransform="matrix(-16.7479 -5.2806 -5.2806 16.7479 4227.1641 -11846.4648)">
		<stop  offset="0" style="stop-color:#168B37"/>
		<stop  offset="2.455574e-002" style="stop-color:#219035"/>
		<stop  offset="0.112" style="stop-color:#41A030"/>
		<stop  offset="0.2021" style="stop-color:#5BAD2C"/>
		<stop  offset="0.2948" style="stop-color:#6EB629"/>
		<stop  offset="0.3918" style="stop-color:#78BB28"/>
		<stop  offset="0.5" style="stop-color:#7CBD27"/>
		<stop  offset="0.6121" style="stop-color:#94C616"/>
		<stop  offset="0.7325" style="stop-color:#A7CC0A"/>
		<stop  offset="0.859" style="stop-color:#B1D002"/>
		<stop  offset="1" style="stop-color:#B5D100"/>
	</linearGradient>
	<polygon class="st5" points="122,478.6 -4.7,438.7 30.1,328.2 156.9,368.2 	"/>
</g>
<g>
	<defs>
		<path id="SVGID_16_" d="M328.7,276.3c223.3-80.9,272.4,27.3,272.4,27.3l-14.8-67.6c-24.8-6.5-49.4-9.1-72.9-9.1
			C411.3,226.8,328.7,276.3,328.7,276.3"/>
	</defs>
	<clipPath id="SVGID_17_">
		<use xlink:href="#SVGID_16_"  style="overflow:visible;"/>
	</clipPath>
	
		<linearGradient id="SVGID_18_" gradientUnits="userSpaceOnUse" x1="28.3019" y1="717.2596" x2="33.8646" y2="717.2596" gradientTransform="matrix(33.2649 0.6387 0.6387 -33.2649 -990.0867 24089.9102)">
		<stop  offset="0" style="stop-color:#00638B"/>
		<stop  offset="0.259" style="stop-color:#007DA7"/>
		<stop  offset="0.5" style="stop-color:#0091BC"/>
		<stop  offset="0.7288" style="stop-color:#4DB2D6"/>
		<stop  offset="0.9118" style="stop-color:#85CAE8"/>
		<stop  offset="1" style="stop-color:#9AD3EF"/>
		<stop  offset="1" style="stop-color:#A1D8E1"/>
	</linearGradient>
	<polygon class="st6" points="328.8,190.2 603.2,195.4 601,308.8 326.7,303.5 	"/>
</g>
<polygon class="st1" points="340.4,403.5 345.7,403.5 335.7,445.5 362,445.5 360.9,450.4 329.2,450.4 "/>
<polygon class="st1" points="376.1,403.5 381.4,403.5 371.4,445.5 397.7,445.5 396.5,450.4 364.9,450.4 "/>
<polygon class="st1" points="413,403.5 446.8,403.5 445.6,408.4 417.1,408.4 413.3,424.4 438.8,424.4 437.7,429.2 412.1,429.2 
	408.2,445.5 437.1,445.5 435.9,450.4 401.7,450.4 "/>
<g>
	<path class="st1" d="M446.6,427.1l0-0.1c3.1-12.8,15.2-24.2,29.3-24.2c7.9,0,12.2,2.3,16,6.2l-4.4,4c-2.9-3.2-6.3-5.4-13-5.4
		c-10.4,0-19.9,8.8-22.4,19.2l0,0.1c-2.7,11.2,2.5,19.5,13.9,19.5c5.4,0,10.8-2.1,14.6-4.7l2.8-11.6h-14.3l1.1-4.7h19.3l-4.5,18.7
		c-5.3,3.9-12.6,7.2-20.5,7.2C450,451.2,443.4,440.5,446.6,427.1"/>
</g>
<polygon class="st1" points="504.1,403.5 538,403.5 536.8,408.4 508.3,408.4 504.4,424.4 530,424.4 528.8,429.2 503.3,429.2 
	499.4,445.5 528.2,445.5 527.1,450.4 492.9,450.4 "/>
</svg>
