<?xml version="1.0" encoding="UTF-8" ?>
<!DOCTYPE svg PUBLIC "-//W3C//DTD SVG 1.1//EN" "http://www.w3.org/Graphics/SVG/1.1/DTD/svg11.dtd">
<svg width="589.255650989" height="169.705627485" viewBox="0 0 500 144" version="1.1" xmlns="http://www.w3.org/2000/svg">
<path fill="#303030" stroke="#303030" stroke-width="0.09375" opacity="1.00" d=" M 0.0 0.0 L 0.0 0.0 C 0.0 0.0 0.0 0.0 0.0 0.0 L 0.0 0.0 Z" />
<path fill="#ffffff" stroke="#ffffff" stroke-width="0.09375" opacity="1.00" d=" M 0.0 0.0 L 206.4 0.0 C 208.9 6.7 212.3 14.7 219.7 16.9 C 215.6 11.3 210.1 6.5 207.2 0.0 L 500.0 0.0 L 500.0 96.3 C 497.4 96.1 494.8 96.2 492.3 96.2 C 492.2 100.4 492.2 104.6 492.3 108.9 C 494.8 108.9 497.4 108.9 500.0 108.8 L 499.9 106.8 C 498.1 106.8 496.3 106.7 494.5 106.7 C 494.5 105.6 494.5 104.5 494.5 103.4 C 496.3 103.0 499.5 104.4 500.0 101.7 C 498.2 101.6 496.4 101.5 494.5 101.5 C 494.5 100.3 494.5 99.2 494.5 98.0 C 496.4 98.0 498.2 98.0 500.0 98.0 L 500.0 144.0 L 0.0 144.0 L 0.0 0.0 C 0.0 0.0 0.0 0.0 0.0 0.0 Z" />
<path fill="#303030" stroke="#303030" stroke-width="0.09375" opacity="1.00" d=" M 206.4 0.0 L 207.2 0.0 C 210.1 6.5 215.6 11.3 219.7 16.9 C 212.3 14.7 208.9 6.7 206.4 0.0 Z" />
<path fill="#303030" stroke="#303030" stroke-width="0.09375" opacity="1.00" d=" M 325.0 3.4 C 326.6 9.1 326.3 15.3 323.6 20.5 C 323.1 21.9 321.9 22.8 320.6 23.2 C 321.3 20.9 322.8 18.9 323.5 16.6 C 324.7 12.3 324.5 7.8 325.0 3.4 Z" />
<path fill="#303030" stroke="#303030" stroke-width="0.09375" opacity="1.00" d=" M 216.0 4.9 C 217.0 5.7 217.9 6.5 218.5 7.5 C 223.7 15.2 230.4 22.4 239.2 25.9 C 243.3 28.2 248.3 27.7 252.7 29.3 C 262.3 33.6 268.0 44.2 278.9 46.1 C 278.9 45.6 278.8 44.7 278.7 44.2 C 279.1 44.7 279.8 45.6 280.2 46.1 C 285.0 46.4 290.0 45.6 294.8 46.8 C 296.2 48.6 298.2 49.8 300.0 51.1 C 301.5 52.3 301.4 54.4 301.4 56.1 C 297.0 53.6 291.9 55.7 287.8 57.9 C 282.5 60.5 277.3 65.5 270.9 64.5 C 274.1 63.2 277.6 62.6 280.4 60.4 C 285.9 56.3 292.2 52.3 299.5 53.1 C 298.2 52.1 296.8 51.3 295.3 50.6 C 295.0 50.1 294.4 49.2 294.2 48.7 C 287.6 47.8 280.8 49.6 274.2 47.9 C 266.6 44.7 260.8 38.6 254.5 33.6 C 250.9 30.7 246.2 30.3 241.9 29.6 C 236.7 29.0 232.6 25.5 228.7 22.3 C 223.6 17.3 218.3 11.8 216.0 4.9 Z" />
<path fill="#303030" stroke="#303030" stroke-width="0.09375" opacity="1.00" d=" M 211.5 18.5 C 207.8 15.3 203.6 11.7 202.5 6.7 C 206.6 11.4 211.0 15.6 215.7 19.6 C 214.2 19.8 212.6 19.6 211.5 18.5 Z" />
<path fill="#303030" stroke="#303030" stroke-width="0.09375" opacity="1.00" d=" M 320.5 14.1 C 320.9 12.7 320.7 10.9 322.0 10.0 C 322.5 15.1 321.2 20.5 317.5 24.3 C 317.9 20.7 320.1 17.7 320.5 14.1 Z" />
<path fill="#303030" stroke="#303030" stroke-width="0.09375" opacity="1.00" d=" M 314.6 21.6 C 316.0 19.3 316.6 16.6 317.5 14.0 C 318.1 18.7 316.1 23.5 312.4 26.3 C 312.3 24.5 313.8 23.2 314.6 21.6 Z" />
<path fill="#303030" stroke="#303030" stroke-width="0.09375" opacity="1.00" d=" M 204.3 17.2 C 206.7 18.6 208.8 20.2 210.9 22.0 C 213.5 24.1 216.7 25.2 219.0 27.5 C 212.8 26.9 207.6 22.2 204.3 17.2 Z" />
<path fill="#303030" stroke="#303030" stroke-width="0.09375" opacity="1.00" d=" M 306.5 28.5 C 308.7 25.5 311.3 22.9 313.4 19.8 C 312.7 23.4 310.3 27.6 306.5 28.5 Z" />
<path fill="#303030" stroke="#303030" stroke-width="0.09375" opacity="1.00" d=" M 318.7 29.6 C 321.5 27.1 323.8 24.0 325.9 21.0 C 324.8 26.1 320.9 29.9 317.3 33.4 C 310.6 38.9 302.9 44.1 294.0 44.8 C 302.3 39.9 311.6 36.3 318.7 29.6 Z" />
<path fill="#303030" stroke="#303030" stroke-width="0.09375" opacity="1.00" d=" M 209.1 27.2 C 214.4 29.1 219.4 31.7 224.6 33.9 C 218.6 34.9 213.5 30.6 209.1 27.2 Z" />
<path fill="#303030" stroke="#303030" stroke-width="0.09375" opacity="1.00" d=" M 297.9 32.9 C 302.9 30.9 307.9 28.4 313.3 28.2 C 306.3 30.8 299.2 33.6 292.9 37.9 C 289.2 40.0 286.1 43.0 282.1 44.6 C 281.5 44.1 281.0 43.5 280.5 42.9 C 285.6 38.5 291.5 35.0 297.9 32.9 Z" />
<path fill="#303030" stroke="#303030" stroke-width="0.09375" opacity="1.00" d=" M 217.2 35.2 C 227.6 39.6 236.9 46.6 247.7 50.3 C 254.4 53.0 261.7 53.6 268.7 52.3 C 266.9 54.0 264.2 54.2 261.9 54.7 C 251.6 55.8 241.5 52.1 233.0 46.8 C 227.7 43.0 221.9 39.7 217.2 35.2 Z" />
<path fill="#303030" stroke="#303030" stroke-width="0.09375" opacity="1.00" d=" M 274.4 50.0 C 276.8 50.2 280.0 49.8 281.7 51.7 C 281.3 51.6 280.4 51.5 279.9 51.5 C 278.5 51.6 273.7 52.5 274.4 50.0 Z" />
<path fill="#b5131c" stroke="#b5131c" stroke-width="0.09375" opacity="1.00" d=" M 169.5 65.4 C 174.7 57.8 184.0 53.5 193.0 53.3 C 200.2 53.2 207.1 55.6 213.3 58.8 C 214.1 59.3 215.3 59.9 215.3 61.0 C 215.4 64.7 215.1 68.4 215.1 72.1 C 214.6 72.1 213.5 72.1 213.0 72.1 C 211.0 65.8 206.9 59.5 200.4 57.2 C 193.6 54.3 184.9 56.0 180.1 61.9 C 176.4 65.6 175.0 70.9 174.0 75.9 C 172.3 85.4 173.9 96.3 180.7 103.6 C 181.6 104.4 182.4 105.2 183.4 106.0 C 189.0 109.2 196.0 111.0 202.2 108.1 C 208.2 105.8 212.2 100.3 214.8 94.6 C 215.2 94.6 216.2 94.7 216.7 94.7 C 216.4 97.9 215.9 101.2 215.5 104.4 C 210.0 109.5 202.4 112.0 194.9 111.7 C 188.9 112.0 182.6 111.1 177.5 107.7 C 176.5 107.2 175.6 106.6 174.7 106.0 C 166.7 100.2 162.8 89.7 164.1 80.0 C 165.0 74.9 166.3 69.6 169.5 65.4 Z" />
<path fill="#303030" stroke="#303030" stroke-width="0.09375" opacity="1.00" d=" M 275.2 53.9 C 277.0 53.0 279.1 53.1 281.1 53.3 C 279.5 54.8 277.1 55.3 275.2 53.9 Z" />
<path fill="#b5131c" stroke="#b5131c" stroke-width="0.09375" opacity="1.00" d=" M 66.6 54.0 C 71.2 54.0 75.8 54.5 80.4 53.9 C 80.6 54.6 80.9 56.2 81.1 57.0 C 78.5 56.9 75.8 57.2 73.4 58.4 C 72.6 60.5 72.1 62.8 72.2 65.0 C 72.2 74.7 72.7 84.3 72.8 93.9 C 72.9 98.4 72.7 102.8 73.6 107.2 C 76.0 108.1 78.5 108.5 81.0 108.9 C 81.4 110.1 80.5 111.9 79.0 111.3 C 72.0 111.3 64.9 111.2 57.9 111.4 C 57.8 110.7 57.6 109.5 57.5 108.8 C 60.4 108.7 63.3 108.4 65.6 106.5 C 65.6 92.6 65.2 78.7 65.0 64.7 C 57.3 79.7 50.6 95.1 43.7 110.5 C 43.4 110.4 42.8 110.3 42.5 110.2 C 40.5 106.4 39.0 102.3 37.5 98.3 C 31.9 87.0 26.7 75.4 21.8 63.7 C 21.6 76.1 21.1 88.6 21.2 101.0 C 21.1 103.9 22.3 107.8 25.6 108.3 C 27.0 108.5 31.3 109.2 28.6 111.2 C 22.4 111.4 16.2 111.2 9.9 111.3 C 9.9 110.7 10.0 109.5 10.0 108.9 C 13.1 108.4 16.7 106.9 17.1 103.4 C 18.3 95.0 18.5 86.5 18.8 78.0 C 18.8 71.6 19.3 65.1 18.4 58.8 C 16.1 57.2 13.4 56.5 10.6 56.4 L 10.7 54.5 C 15.9 53.7 21.1 54.3 26.3 54.2 C 30.5 65.0 35.6 75.4 40.1 86.1 C 42.1 90.0 43.3 94.3 45.7 98.0 C 52.5 83.2 59.8 68.7 66.6 54.0 Z" />
<path fill="#b5131c" stroke="#b5131c" stroke-width="0.09375" opacity="1.00" d=" M 94.6 57.8 C 102.3 51.6 113.5 52.5 122.1 56.1 C 122.2 60.2 122.1 64.3 122.3 68.4 C 121.3 68.4 119.8 68.8 119.7 67.4 C 118.2 62.8 115.2 58.2 110.5 56.4 C 104.4 54.0 96.0 59.1 96.7 66.1 C 97.8 72.9 105.0 75.8 110.5 78.3 C 116.4 81.2 123.9 84.1 125.5 91.3 C 128.1 101.1 119.4 110.7 109.9 111.5 C 103.4 111.9 96.7 111.9 90.6 109.3 C 89.0 104.6 88.3 99.4 88.5 94.4 L 89.0 93.7 C 89.3 93.9 89.9 94.2 90.1 94.4 C 92.2 99.6 94.9 105.2 100.1 107.9 C 105.5 111.1 112.9 109.5 116.9 104.8 C 119.3 101.9 119.3 97.7 118.2 94.2 C 114.8 88.0 107.5 86.5 101.6 83.4 C 96.5 81.3 90.9 77.8 90.1 71.9 C 89.0 66.9 90.2 60.9 94.6 57.8 Z" />
<path fill="#b5131c" stroke="#b5131c" stroke-width="0.09375" opacity="1.00" d=" M 136.3 54.2 C 143.7 54.2 151.1 54.1 158.5 54.3 C 158.5 54.8 158.6 55.9 158.6 56.4 C 156.5 56.5 154.3 56.9 152.3 57.5 C 151.6 59.2 151.1 61.1 151.2 63.0 C 151.0 74.3 151.3 85.7 151.1 97.0 C 150.8 104.3 149.6 112.7 143.6 117.6 C 140.7 120.5 136.6 121.8 132.7 122.5 C 133.2 119.9 136.4 119.7 137.8 117.8 C 142.0 113.3 142.8 106.9 142.8 101.0 C 142.7 87.4 142.9 73.7 142.6 60.1 C 142.7 56.8 138.6 56.6 136.2 56.4 C 136.2 55.8 136.2 54.7 136.3 54.2 Z" />
<path fill="#303030" stroke="#303030" stroke-width="0.09375" opacity="1.00" d=" M 276.5 57.0 C 278.6 56.3 280.8 55.8 282.9 55.5 C 281.2 57.2 278.8 58.5 276.5 57.0 Z" />
<path fill="#303030" stroke="#303030" stroke-width="0.09375" opacity="1.00" d=" M 225.7 62.9 C 229.2 60.9 233.2 62.4 236.9 62.5 C 242.0 63.1 247.1 62.1 252.2 62.4 C 248.4 64.0 244.1 64.1 240.1 64.8 C 235.2 65.5 230.0 65.5 225.7 62.9 Z" />
<path fill="#303030" stroke="#303030" stroke-width="0.09375" opacity="1.00" d=" M 240.1 67.7 C 244.4 67.5 248.6 65.7 252.9 65.5 C 249.7 67.7 245.8 68.2 242.1 69.4 C 238.1 70.5 233.8 71.5 229.8 70.1 L 229.4 68.7 C 232.9 67.9 236.5 67.8 240.1 67.7 Z" />
<path fill="#303030" stroke="#303030" stroke-width="0.09375" opacity="1.00" d=" M 237.0 73.2 C 244.0 71.7 250.8 69.8 257.5 67.5 C 253.2 70.8 248.0 72.9 242.8 74.0 C 240.8 74.3 238.5 74.9 237.0 73.2 Z" />
<path fill="#bebcbc" stroke="#bebcbc" stroke-width="0.09375" opacity="1.00" d=" M 180.7 103.6 C 190.8 100.7 200.2 96.1 209.8 92.2 C 206.3 95.1 201.8 96.4 197.9 98.8 C 193.3 101.6 187.9 102.9 183.4 106.0 C 182.4 105.2 181.6 104.4 180.7 103.6 Z" />
<path fill="#303030" stroke="#303030" stroke-width="0.09375" opacity="1.00" d=" M 236.8 96.3 C 239.6 95.4 240.9 99.3 242.5 100.9 C 244.4 99.2 245.6 96.0 248.5 96.0 C 248.4 100.6 248.8 105.1 248.3 109.7 C 244.7 107.7 247.4 102.7 246.6 99.5 C 245.3 101.1 244.1 102.6 242.8 104.1 C 242.5 103.8 241.8 103.1 241.5 102.7 C 241.1 103.0 240.5 103.4 240.2 103.7 C 240.4 103.3 240.9 102.6 241.1 102.2 C 240.5 101.6 239.3 100.4 238.7 99.8 C 238.6 103.1 239.2 106.5 238.2 109.6 C 237.8 109.3 237.1 108.7 236.8 108.3 C 236.6 104.3 236.7 100.3 236.8 96.3 Z" />
<path fill="#303030" stroke="#303030" stroke-width="0.09375" opacity="1.00" d=" M 251.3 97.8 C 251.5 97.4 252.0 96.7 252.2 96.3 C 255.4 96.1 258.6 96.1 261.8 96.2 C 262.1 96.6 262.5 97.3 262.8 97.7 C 261.2 97.9 259.5 98.1 257.9 98.2 C 257.8 102.0 258.8 106.1 257.2 109.7 C 254.8 106.4 256.4 101.9 256.0 98.1 C 254.4 98.0 252.9 98.0 251.3 97.8 Z" />
<path fill="#303030" stroke="#303030" stroke-width="0.09375" opacity="1.00" d=" M 273.6 101.1 C 271.6 96.1 279.7 93.8 281.2 98.6 C 279.2 98.9 276.7 96.6 275.4 99.0 C 276.3 101.9 280.9 101.7 281.0 105.1 C 281.5 107.6 278.8 108.8 277.0 109.5 C 275.0 108.7 272.9 107.9 273.3 105.3 C 275.0 106.4 276.8 107.1 278.9 106.8 C 279.0 103.7 275.6 102.8 273.6 101.1 Z" />
<path fill="#303030" stroke="#303030" stroke-width="0.09375" opacity="1.00" d=" M 282.7 109.0 C 285.1 104.8 285.8 99.5 289.0 95.8 C 289.2 96.0 289.8 96.5 290.1 96.7 C 291.7 100.6 293.7 104.3 295.4 108.2 C 294.1 111.0 292.1 106.6 291.4 105.2 C 289.8 105.3 288.1 105.3 286.5 105.3 C 286.0 106.6 285.5 107.9 285.0 109.1 C 284.5 109.1 283.3 109.1 282.7 109.0 Z" />
<path fill="#303030" stroke="#303030" stroke-width="0.09375" opacity="1.00" d=" M 308.1 105.3 C 308.6 102.2 307.1 98.3 309.0 95.7 C 309.3 96.0 309.8 96.7 310.0 97.0 C 309.9 101.2 310.7 105.6 309.4 109.6 C 306.0 106.6 303.3 103.0 300.2 99.7 C 300.2 103.0 300.3 106.3 300.0 109.5 C 299.6 109.2 298.7 108.6 298.3 108.3 C 298.2 104.1 298.3 100.0 298.4 95.8 C 302.8 97.4 304.6 102.4 308.1 105.3 Z" />
<path fill="#303030" stroke="#303030" stroke-width="0.09375" opacity="1.00" d=" M 321.0 97.0 C 321.5 95.9 322.3 95.7 323.4 96.3 C 323.5 100.8 323.5 105.3 323.4 109.8 C 323.6 112.3 319.4 114.7 318.3 111.6 C 318.9 111.4 320.2 110.8 320.9 110.6 C 321.4 106.1 321.1 101.6 321.0 97.0 Z" />
<path fill="#303030" stroke="#303030" stroke-width="0.09375" opacity="1.00" d=" M 326.1 108.5 C 328.5 104.5 329.0 99.5 332.0 95.8 C 334.5 97.5 334.9 101.0 336.4 103.5 C 337.0 105.4 339.7 108.1 337.1 109.6 L 336.2 108.2 L 336.4 108.2 C 335.9 103.5 326.9 104.4 328.8 109.3 C 327.9 109.1 327.0 108.8 326.1 108.5 Z" />
<path fill="#303030" stroke="#303030" stroke-width="0.09375" opacity="1.00" d=" M 341.1 99.1 C 343.2 95.4 348.6 95.2 351.9 97.3 C 352.8 99.9 349.2 98.2 347.9 98.1 C 343.4 96.7 340.7 103.3 344.0 106.1 C 346.6 107.5 349.6 106.4 352.2 105.8 C 352.4 109.0 348.4 109.2 346.1 109.0 C 341.5 108.7 338.6 103.0 341.1 99.1 Z" />
<path fill="#303030" stroke="#303030" stroke-width="0.09375" opacity="1.00" d=" M 355.5 96.0 C 355.9 96.1 356.9 96.2 357.4 96.3 C 357.5 100.8 357.7 105.2 357.1 109.6 C 356.7 109.3 355.9 108.8 355.5 108.5 C 355.2 104.3 355.5 100.2 355.5 96.0 Z" />
<path fill="#303030" stroke="#303030" stroke-width="0.09375" opacity="1.00" d=" M 361.8 96.1 C 362.8 96.3 364.1 96.3 364.7 97.3 C 367.0 99.9 369.1 102.6 371.6 105.0 C 371.6 102.0 371.3 99.0 371.7 96.0 C 372.2 96.1 373.1 96.2 373.6 96.2 C 373.7 100.3 374.0 104.4 373.5 108.4 C 373.2 108.7 372.6 109.2 372.3 109.4 C 369.4 106.4 367.2 102.8 363.9 100.2 C 363.7 103.4 364.4 106.7 363.2 109.8 C 362.8 109.3 362.1 108.4 361.8 107.9 C 361.6 104.0 361.8 100.0 361.8 96.1 Z" />
<path fill="#303030" stroke="#303030" stroke-width="0.09375" opacity="1.00" d=" M 375.8 97.2 C 377.5 95.6 379.9 96.3 382.0 96.1 C 384.1 96.3 386.5 95.5 388.2 97.2 C 386.6 98.0 384.9 98.2 383.2 98.1 C 382.7 101.9 384.5 106.4 382.0 109.6 C 379.6 106.4 381.4 101.9 380.8 98.1 C 379.1 98.2 377.4 97.9 375.8 97.2 Z" />
<path fill="#303030" stroke="#303030" stroke-width="0.09375" opacity="1.00" d=" M 391.6 96.9 C 395.5 94.8 401.5 96.1 402.5 100.9 C 404.1 106.4 397.3 111.0 392.6 108.4 C 388.0 106.5 387.7 99.6 391.6 96.9 Z" />
<path fill="#303030" stroke="#303030" stroke-width="0.09375" opacity="1.00" d=" M 415.1 97.1 C 417.9 95.5 421.2 96.0 424.1 96.9 C 424.0 97.4 423.9 98.5 423.8 99.1 C 421.8 98.3 419.5 97.3 417.5 98.4 C 414.6 99.4 413.7 103.8 416.2 105.8 C 418.5 107.7 421.7 106.5 424.3 106.0 C 424.4 109.6 419.7 109.4 417.3 108.7 C 412.1 107.7 411.2 100.1 415.1 97.1 Z" />
<path fill="#303030" stroke="#303030" stroke-width="0.09375" opacity="1.00" d=" M 430.5 96.7 C 434.1 95.0 439.4 96.1 440.6 100.3 C 443.0 105.6 436.3 111.0 431.4 108.6 C 426.3 107.1 425.9 98.9 430.5 96.7 Z" />
<path fill="#303030" stroke="#303030" stroke-width="0.09375" opacity="1.00" d=" M 444.5 96.2 C 445.9 95.9 447.3 96.3 446.9 98.0 C 446.9 100.9 446.8 103.8 446.7 106.6 C 448.6 106.7 450.6 106.7 452.5 106.7 C 452.5 107.2 452.5 108.3 452.6 108.9 C 449.9 108.9 447.2 108.9 444.5 108.8 C 444.6 104.6 444.6 100.4 444.5 96.2 Z" />
<path fill="#303030" stroke="#303030" stroke-width="0.09375" opacity="1.00" d=" M 455.4 96.0 C 455.9 96.1 456.9 96.2 457.4 96.3 C 457.4 99.7 457.4 103.2 457.3 106.7 C 459.5 107.0 462.7 105.6 463.8 108.3 C 461.1 109.2 458.2 108.9 455.4 108.8 C 455.4 104.6 455.4 100.3 455.4 96.0 Z" />
<path fill="#303030" stroke="#303030" stroke-width="0.09375" opacity="1.00" d=" M 466.2 96.2 C 468.9 96.2 471.8 95.7 474.3 96.9 C 472.6 98.4 470.3 98.0 468.2 98.0 C 468.2 98.9 468.2 100.7 468.2 101.5 C 470.0 101.9 473.4 100.4 473.7 103.3 C 471.9 103.3 470.1 103.3 468.4 103.4 C 468.3 104.3 468.2 105.9 468.2 106.7 C 470.2 107.0 473.2 105.9 474.3 108.4 C 471.7 109.0 469.0 109.2 466.4 108.7 C 466.0 104.5 466.3 100.4 466.2 96.2 Z" />
<path fill="#303030" stroke="#303030" stroke-width="0.09375" opacity="1.00" d=" M 480.5 96.5 C 483.0 95.4 485.7 96.2 488.1 96.9 C 488.0 97.5 487.8 98.5 487.7 99.0 C 485.7 98.3 483.4 97.1 481.3 98.3 C 479.3 99.6 477.9 102.5 479.3 104.7 C 480.4 107.2 483.5 106.8 485.7 106.9 C 485.8 106.3 486.0 105.1 486.0 104.5 C 484.7 104.6 483.6 104.0 483.0 102.8 C 484.7 102.2 486.5 102.1 488.3 102.3 C 488.3 104.2 488.3 106.2 488.3 108.1 C 485.3 109.1 481.9 109.8 479.3 107.8 C 474.8 105.5 475.8 97.8 480.5 96.5 Z" />
<path fill="#303030" stroke="#303030" stroke-width="0.09375" opacity="1.00" d=" M 492.3 96.2 C 494.8 96.2 497.4 96.1 500.0 96.3 L 500.0 98.0 C 498.2 98.0 496.4 98.0 494.5 98.0 C 494.5 99.2 494.5 100.3 494.5 101.5 C 496.4 101.5 498.2 101.6 500.0 101.7 C 499.5 104.4 496.3 103.0 494.5 103.4 C 494.5 104.5 494.5 105.6 494.5 106.7 C 496.3 106.7 498.1 106.8 499.9 106.8 L 500.0 108.8 C 497.4 108.9 494.8 108.9 492.3 108.9 C 492.2 104.6 492.2 100.4 492.3 96.2 Z" />
<path fill="#ffffff" stroke="#ffffff" stroke-width="0.09375" opacity="1.00" d=" M 393.5 98.5 C 396.6 96.6 401.1 99.3 400.2 103.0 C 400.4 107.1 394.9 107.9 392.4 105.7 C 390.1 103.8 390.9 99.7 393.5 98.5 Z" />
<path fill="#ffffff" stroke="#ffffff" stroke-width="0.09375" opacity="1.00" d=" M 432.3 98.3 C 435.4 96.8 439.2 99.6 438.6 102.9 C 438.8 107.7 430.9 108.3 429.7 104.0 C 428.7 101.9 430.1 99.0 432.3 98.3 Z" />
<path fill="#ffffff" stroke="#ffffff" stroke-width="0.09375" opacity="1.00" d=" M 287.4 103.1 C 288.0 101.9 288.6 100.7 289.1 99.5 C 289.7 100.7 290.2 102.0 290.7 103.2 C 289.6 103.2 288.5 103.2 287.4 103.1 Z" />
<path fill="#ffffff" stroke="#ffffff" stroke-width="0.09375" opacity="1.00" d=" M 330.9 103.2 C 331.4 101.9 331.8 100.6 332.3 99.4 C 332.7 100.7 333.2 101.9 333.7 103.2 C 333.0 103.2 331.6 103.2 330.9 103.2 Z" />
<path fill="#bebcbc" stroke="#bebcbc" stroke-width="0.09375" opacity="1.00" d=" M 174.7 106.0 C 175.6 106.6 176.5 107.2 177.5 107.7 C 171.1 110.7 164.2 112.3 157.6 114.6 C 154.0 115.8 150.3 116.1 146.9 117.7 C 148.1 115.5 149.0 112.2 151.9 111.8 C 159.6 110.2 167.0 107.8 174.7 106.0 Z" />
<path fill="#303030" stroke="#303030" stroke-width="0.09375" opacity="1.00" d=" M 262.4 107.5 C 262.9 107.1 263.7 106.5 264.1 106.1 C 264.7 106.7 265.3 107.3 265.8 107.9 C 265.3 108.3 264.4 109.1 263.9 109.5 C 263.3 108.9 262.8 108.2 262.4 107.5 Z" />
<path fill="#bebcbc" stroke="#bebcbc" stroke-width="0.09375" opacity="1.00" d=" M 89.0 121.1 C 105.1 119.6 121.2 117.7 137.2 115.0 C 136.0 118.0 132.3 119.0 129.9 120.9 C 96.6 127.0 62.4 127.1 29.0 122.0 C 20.3 120.9 11.5 119.9 3.0 117.6 C 15.3 118.4 27.6 120.3 39.9 121.0 C 56.3 121.3 72.6 121.3 89.0 121.1 Z" />
</svg>
