<svg id="Layer_1" data-name="Layer 1" xmlns="http://www.w3.org/2000/svg" viewBox="0 0 221.65 118.4"><defs><style>.cls-1{fill:#a7a9ac;}.cls-2{fill:#e03a3e;}.cls-3{fill:#231f20;}</style></defs><path class="cls-1" d="M351.43,182.24c10.42-17.71,13.07-33.81,5.35-42.77-13.07-15.14-47.62-3.67-81.25,25.34-7.66,6.62-9.06,7.45-14.81,14.44,4.5-5.23,4.17-3.87,9.93-8.83,28.79-24.84,57.89-34.7,69.08-21.73,6.17,7.15,4.65,19.6-2.83,33.57Z" transform="translate(-189.23 -132.78)"/><path class="cls-1" d="M333.44,206a171.35,171.35,0,0,1-13.9,13.46c-33.63,29-71.22,40-84.55,25.11-10.07-11.27-2.34-25.24-2.34-25.24-1.92,8-1.15,14.76,2.8,19.34,11.19,13,43.61,3.34,72.4-21.5A149.83,149.83,0,0,0,319.5,206Z" transform="translate(-189.23 -132.78)"/><polygon class="cls-2" points="77.42 40.36 86.11 41.96 77.52 44 78.69 52.76 74.08 45.22 66.11 49.04 71.87 42.33 65.77 35.93 73.93 39.33 78.13 31.56 77.42 40.36"/><path class="cls-3" d="M189.23,187.08h7c3.95,0,5.41,2.2,5.41,4.51s-1.36,4.7-5.67,4.7h-2v5.11h-4.77Zm6,6.55c1.49,0,2.09-.76,2.09-2s-.58-1.91-2.11-1.91H194v3.89Z" transform="translate(-189.23 -132.78)"/><path class="cls-3" d="M206.33,187.08h5l6.21,14.32h-4.73l-.9-2.34h-6.14l-.9,2.34h-4.72Zm4.57,9.4-2.08-5.67-2.09,5.67Z" transform="translate(-189.23 -132.78)"/><path class="cls-3" d="M219.22,187.08H224V197.8h5.35v3.6H219.22Z" transform="translate(-189.23 -132.78)"/><path class="cls-3" d="M237.71,186.89c5.12,0,7.4,3.65,7.4,7.35s-2.22,7.34-7.4,7.34c-4.91,0-7.4-3.38-7.4-7.34C230.31,190.44,232.64,186.89,237.71,186.89Zm0,10.49c1.61,0,2.63-1.21,2.63-3.14s-1-3.15-2.63-3.15-2.63,1.21-2.63,3.15S236.07,197.38,237.71,197.38Z" transform="translate(-189.23 -132.78)"/><path class="cls-3" d="M252.21,201.4h-4.76V187.08h4.26l4.07,5.79,4.07-5.79h4.27V201.4h-4.77l.12-7.69,0,0-3.65,5.25-3.65-5.25,0,0Z" transform="translate(-189.23 -132.78)"/><path class="cls-3" d="M272,187.08h5l6.2,14.32h-4.73l-.89-2.34H271.4l-.89,2.34h-4.73Zm4.57,9.4-2.07-5.67-2.1,5.67Z" transform="translate(-189.23 -132.78)"/><path class="cls-3" d="M284.87,187.08h7.76c3.67,0,5.25,1.84,5.25,4.09a3.46,3.46,0,0,1-2.2,3.32c1,.44,1.5,1.42,2.24,3.13l1.61,3.78h-4.69l-.85-2.13c-1-2.45-1.76-3.86-3.06-3.86h-1.29v6h-4.77Zm6.06,6.13c1.54,0,2.44-.68,2.44-1.94s-.84-1.88-2.34-1.88h-1.39v3.82Z" transform="translate(-189.23 -132.78)"/><path class="cls-3" d="M320,200.32a10,10,0,0,1-5.07,1.26c-5.68,0-7.63-4-7.63-7.28,0-4.18,2.89-7.41,7.87-7.41a10.9,10.9,0,0,1,4.71,1V192a6.77,6.77,0,0,0-3.95-1.32c-2.39,0-3.87,1.34-3.87,3.53s1.52,3.52,3.91,3.52a7.35,7.35,0,0,0,4-1.26Z" transform="translate(-189.23 -132.78)"/><path class="cls-3" d="M329.76,186.89c5.12,0,7.4,3.65,7.4,7.35s-2.22,7.34-7.4,7.34c-4.91,0-7.4-3.38-7.4-7.34C322.36,190.44,324.69,186.89,329.76,186.89Zm0,10.49c1.61,0,2.63-1.21,2.63-3.14s-1-3.15-2.63-3.15-2.64,1.21-2.64,3.15S328.12,197.38,329.76,197.38Z" transform="translate(-189.23 -132.78)"/><path class="cls-3" d="M339.51,187.08h4.77V197.8h5.35v3.6H339.51Z" transform="translate(-189.23 -132.78)"/><path class="cls-3" d="M351.15,187.08h4.76V197.8h5.35v3.6H351.15Z" transform="translate(-189.23 -132.78)"/><path class="cls-3" d="M362.76,187.08H373v3h-5.43v2.52h5v3h-5v2.73H373v3H362.76Z" transform="translate(-189.23 -132.78)"/><path class="cls-3" d="M388.21,200.93a24.19,24.19,0,0,1-5.35.67c-5.84,0-7.9-4.07-7.9-7.2,0-4.45,3.36-7.51,8.24-7.51a12.33,12.33,0,0,1,4.75,1v3.59a8.35,8.35,0,0,0-4.05-1.21,3.9,3.9,0,0,0-4.17,4.07c0,2.58,1.88,4.13,4.83,3.69v-1.68h-1.7v-3h5.35Z" transform="translate(-189.23 -132.78)"/><path class="cls-3" d="M391,187.08h10.2v3h-5.43v2.52h5v3h-5v2.73h5.51v3H391Z" transform="translate(-189.23 -132.78)"/><path class="cls-3" d="M208.11,213.57h3.69v1.05h-4.87v-8.18h1.18Z" transform="translate(-189.23 -132.78)"/><path class="cls-3" d="M217.18,214.09a3.53,3.53,0,0,1-2.15.64,2.66,2.66,0,0,1-2.61-2.87,2.5,2.5,0,0,1,2.52-2.73c1.42,0,2.34,1,2.34,3h-3.79a1.69,1.69,0,0,0,1.81,1.62,3.42,3.42,0,0,0,1.88-.65Zm-1-2.71a1.24,1.24,0,0,0-1.26-1.33,1.4,1.4,0,0,0-1.45,1.33Z" transform="translate(-189.23 -132.78)"/><path class="cls-3" d="M222.6,214.31a1.72,1.72,0,0,1-1,.42c-.47,0-.72-.17-.81-.55a2.33,2.33,0,0,1-1.45.55,1.3,1.3,0,0,1-1.32-1.32c0-1.07,1-1.39,1.83-1.7l1-.34v-.29c0-.67-.32-.94-1-.94a2.24,2.24,0,0,0-1.71.88v-1.16a2.22,2.22,0,0,1,1.79-.73,1.73,1.73,0,0,1,2,1.77v2.77c0,.21.07.28.2.28a1.27,1.27,0,0,0,.56-.29ZM220.77,212c-.91.31-1.7.62-1.7,1.26a.73.73,0,0,0,.76.75,1.35,1.35,0,0,0,.94-.44Z" transform="translate(-189.23 -132.78)"/><path class="cls-3" d="M224.69,209.24v1.23h0c.54-.95,1.05-1.34,1.56-1.34a1.86,1.86,0,0,1,1.28.62l-.56.92a1.79,1.79,0,0,0-1-.52,1.5,1.5,0,0,0-1.31,1.65v2.82h-1.06v-5.38Z" transform="translate(-189.23 -132.78)"/><path class="cls-3" d="M229.35,209.94h0a2.1,2.1,0,0,1,1.61-.81c1,0,1.84.69,1.84,2.17v3.32h-1.07v-3.33c0-.79-.41-1.31-1.06-1.31a1.75,1.75,0,0,0-1.34.78v3.86h-1.07v-5.38h1.07Z" transform="translate(-189.23 -132.78)"/><path class="cls-3" d="M234.87,208.24a.64.64,0,1,1,.64-.64A.64.64,0,0,1,234.87,208.24Zm.53,6.38h-1.07v-5.38h1.07Z" transform="translate(-189.23 -132.78)"/><path class="cls-3" d="M238,209.94h0a2.1,2.1,0,0,1,1.61-.81c1,0,1.83.69,1.83,2.17v3.32h-1.06v-3.33c0-.79-.41-1.31-1.06-1.31a1.73,1.73,0,0,0-1.34.78v3.86h-1.07v-5.38H238Z" transform="translate(-189.23 -132.78)"/><path class="cls-3" d="M247.23,210.06h-1.11a1.51,1.51,0,0,1,.57,1.18,1.89,1.89,0,0,1-.51,1.21c-.72.77-2.18.38-2.18,1,0,.3.57.48,1.64.69s1.56.82,1.56,1.5c0,1.07-.94,1.72-2.54,1.72-1.45,0-2.48-.68-2.48-1.63,0-.79.42-1.26,1.35-1.49-.37-.23-.54-.44-.54-.68s.34-.65.86-.77v0a2,2,0,0,1-.9-.69,1.65,1.65,0,0,1-.29-1c0-1.15.9-1.85,2.35-1.85h2.22Zm-2.82,4.82c-.72,0-1.22.34-1.22.82s.52.83,1.5.83,1.48-.29,1.48-.78C246.17,215.06,245.07,214.88,244.41,214.88Zm.28-4.72a1,1,0,0,0-1.07,1,1.06,1.06,0,0,0,2.11,0A1,1,0,0,0,244.69,210.16Z" transform="translate(-189.23 -132.78)"/><path class="cls-3" d="M254.19,207.48a1.14,1.14,0,0,0-.48-.09c-.87,0-1.14.5-1.14,1.33v.52h1v.95h-1v4.43H251.5v-4.43h-.75v-.95h.75v-.4a2.44,2.44,0,0,1,.69-2,1.86,1.86,0,0,1,2-.41Z" transform="translate(-189.23 -132.78)"/><path class="cls-3" d="M259.71,211.87a2.88,2.88,0,1,1-2.92-2.74A2.75,2.75,0,0,1,259.71,211.87Zm-4.67,0a1.79,1.79,0,1,0,3.58,0,1.75,1.75,0,0,0-1.84-1.8A1.7,1.7,0,0,0,255,211.87Z" transform="translate(-189.23 -132.78)"/><path class="cls-3" d="M262,209.24v1.23h0c.54-.95,1.06-1.34,1.56-1.34a1.86,1.86,0,0,1,1.28.62l-.56.92a1.73,1.73,0,0,0-1-.52,1.49,1.49,0,0,0-1.3,1.65v2.82H261v-5.38Z" transform="translate(-189.23 -132.78)"/><path class="cls-3" d="M273,208.24a2.76,2.76,0,0,0-1.92-.85c-.76,0-1.3.39-1.3,1,0,1.57,3.54,1.55,3.54,4.15a2.19,2.19,0,0,1-2.29,2.22,3.57,3.57,0,0,1-2.29-.76v-1.48a2.77,2.77,0,0,0,2.16,1.18c.91,0,1.33-.57,1.33-1,0-1.69-3.54-1.88-3.54-4.12a2.2,2.2,0,0,1,2.48-2.19,3.25,3.25,0,0,1,1.83.58Z" transform="translate(-189.23 -132.78)"/><path class="cls-3" d="M277.9,214.62v-.68a2.34,2.34,0,0,1-1.6.79c-1.09,0-1.85-.78-1.85-2.15v-3.34h1.06v3.41c0,.76.37,1.19,1.11,1.19a1.59,1.59,0,0,0,1.28-.75v-3.85H279v5.38Z" transform="translate(-189.23 -132.78)"/><path class="cls-3" d="M284.44,210.64a2.48,2.48,0,0,0-1.49-.53,1.65,1.65,0,0,0-1.64,1.82,1.68,1.68,0,0,0,1.82,1.79,3.42,3.42,0,0,0,1.43-.36v1.06a4.56,4.56,0,0,1-1.61.31,2.8,2.8,0,0,1-.07-5.6,3.52,3.52,0,0,1,1.56.37Z" transform="translate(-189.23 -132.78)"/><path class="cls-3" d="M289.7,210.64a2.5,2.5,0,0,0-1.49-.53,1.65,1.65,0,0,0-1.64,1.82,1.67,1.67,0,0,0,1.82,1.79,3.46,3.46,0,0,0,1.43-.36v1.06a4.61,4.61,0,0,1-1.61.31,2.8,2.8,0,0,1-.07-5.6,3.52,3.52,0,0,1,1.56.37Z" transform="translate(-189.23 -132.78)"/><path class="cls-3" d="M295.49,214.09a3.51,3.51,0,0,1-2.15.64,2.66,2.66,0,0,1-2.61-2.87,2.5,2.5,0,0,1,2.52-2.73c1.43,0,2.34,1,2.34,3H291.8a1.69,1.69,0,0,0,1.81,1.62,3.39,3.39,0,0,0,1.88-.65Zm-1-2.71a1.23,1.23,0,0,0-1.26-1.33,1.4,1.4,0,0,0-1.45,1.33Z" transform="translate(-189.23 -132.78)"/><path class="cls-3" d="M299.87,210.63a3,3,0,0,0-1.56-.57c-.43,0-.71.21-.71.49s.36.53,1.31,1.08,1.21,1,1.21,1.52a1.62,1.62,0,0,1-1.77,1.58,3.71,3.71,0,0,1-1.87-.49v-1.15a3.39,3.39,0,0,0,1.76.7c.43,0,.79-.22.79-.61,0-.74-2.52-1.14-2.52-2.59,0-.91.7-1.46,1.78-1.46a3.32,3.32,0,0,1,1.58.44Z" transform="translate(-189.23 -132.78)"/><path class="cls-3" d="M304.49,210.63a3,3,0,0,0-1.56-.57c-.43,0-.71.21-.71.49s.36.53,1.31,1.08,1.21,1,1.21,1.52a1.62,1.62,0,0,1-1.77,1.58,3.71,3.71,0,0,1-1.87-.49v-1.15a3.39,3.39,0,0,0,1.76.7c.43,0,.79-.22.79-.61,0-.74-2.52-1.14-2.52-2.59,0-.91.7-1.46,1.78-1.46a3.32,3.32,0,0,1,1.58.44Z" transform="translate(-189.23 -132.78)"/><path class="cls-3" d="M407.2,194.37a3.68,3.68,0,1,1,3.69-3.68A3.68,3.68,0,0,1,407.2,194.37Zm0-6.75a3.07,3.07,0,1,0,3.08,3.07A3.06,3.06,0,0,0,407.2,187.62Zm-1.61,1.15h1.75c1,0,1.31.61,1.31,1a1.11,1.11,0,0,1-1.13,1.13v0c.34.13.59.46.92,1l.48.77h-.78l-.35-.62c-.5-.89-.69-1.06-1.18-1.06h-.38v1.68h-.64Zm1.56,1.73c.49,0,.82-.19.82-.6s-.29-.59-.71-.59h-1v1.19Z" transform="translate(-189.23 -132.78)"/></svg>