<?xml version="1.0" encoding="utf-8"?>
<!-- Generator: Adobe Illustrator 22.1.0, SVG Export Plug-In . SVG Version: 6.00 Build 0)  -->
<svg version="1.1" id="Layer_1" xmlns="http://www.w3.org/2000/svg" xmlns:xlink="http://www.w3.org/1999/xlink" x="0px" y="0px"
	 width="300.5px" height="101.81px" viewBox="0 0 300.5 101.81" enable-background="new 0 0 300.5 101.81" xml:space="preserve">
<g>
	<rect x="3.49" y="3.53" fill="#DCDDDE" width="75.47" height="43.25"/>
	<path fill="#4D4D4F" d="M63.73,55.77H8.65c0-13.54,12.33-24.51,27.54-24.51S63.73,42.23,63.73,55.77z M76.13,22.65
		c-1.22-3.49-5.03-6.06-9.51-6.06c-5.43,0-9.84,3.74-9.84,8.36l18.75,0.03l-0.04,68.14h3.46V22.99L76.13,22.65z"/>
	<path fill="#E31837" d="M10.46,10.11H0.25V0.08h10.21V10.11z M72.28,10.25h9.93V0.08h-9.93V10.25z M8.12,25.47
		c0,7.2,5.79,13.04,12.92,13.04c7.14,0,12.91-5.84,12.91-13.04s-5.78-13.04-12.91-13.04C13.91,12.43,8.12,18.27,8.12,25.47"/>
	<path fill="#9D9FA2" d="M73.86,22.64c-0.91-3.74-4.55-6.55-8.92-6.55s-8.01,2.8-8.92,6.55H53.8v20.21
		c-4.65-7.35-12.55-12.19-21.51-12.19c-10.23,0-19.07,6.3-23.28,15.45H3.48v41.68H53.8v10.1h22.37V22.64H73.86z"/>
	<path fill="#231F20" d="M8.64,97.96H3.59v-5.11h5.06L8.64,97.96L8.64,97.96z M18.8,92.87h-5.06v5.11h5.06V92.87z M28.94,92.84
		h-5.06v5.11h5.06V92.84z M39.05,92.8h-5.06v5.11h5.06V92.8z M49.19,92.84h-5.06v5.11h5.06V92.84z M49.73,60.99L49.73,60.99
		c-0.02-2.17-1.77-3.93-3.92-3.93c-2.16,0-3.9,1.76-3.91,3.93h-0.02v14.56h7.86V60.99H49.73z M36.21,61.01h-0.03
		c0-0.05,0.02-0.09,0.02-0.14c0-2.18-1.75-3.95-3.92-3.95c-2.16,0-3.91,1.77-3.91,3.95c0,0.05,0.01,0.09,0.01,0.14h-0.03v14.56h7.86
		V61.01z M22.66,61h-0.03c0-2.18-1.75-3.95-3.91-3.95S14.81,58.82,14.8,61l0,0v14.56h7.86V61z M35.35,41.91c0-0.01,0-0.01,0-0.02
		c0-1.72-1.38-3.11-3.07-3.11c-1.7,0-3.07,1.38-3.08,3.09l0,0v6.5h6.15V41.91z M14.81,78.39h34.93v-1.41H14.81V78.39z M35.27,49.8
		h-6.13v1.41h6.13V49.8z M62.43,35.42h5.06V24.56h-5.06C62.43,24.56,62.43,35.42,62.43,35.42z M62.43,38.23h5.04v-1.41h-5.04V38.23z
		"/>
	<path fill="#E31837" d="M71.86,91.56h10.35v10.17H71.86V91.56z M300.17,53.25H92.72v2.3h207.45L300.17,53.25L300.17,53.25z"/>
	<path fill="#231F20" d="M94.87,43.57l-0.52,2.05h-1.62v-7.74h1.47c1.03,3.39,2.73,6.51,6.82,6.51c2.14,0,4.2-1.41,4.2-3.72
		c0-3.46-3.54-4.39-6.12-5.51c-3.32-1.45-6.01-3.31-6.01-7.41c0-4.58,3.47-7.03,7.74-7.03c1.99,0,4.05,0.45,5.53,1.82l0.48-1.45
		h1.59l0.22,6.7h-1.59c-0.66-2.87-2.77-5.36-5.97-5.36c-1.81,0-3.65,1.04-3.65,3.05c0,2.75,2.8,3.61,4.9,4.54
		c3.95,1.75,7.67,3.46,7.67,8.45c0,5.02-4.2,7.63-8.74,7.63C98.93,46.1,96.53,45.28,94.87,43.57 M123.37,45.69
		c1.92-0.04,5.16-0.15,5.79-0.15s4.42,0.11,6.64,0.15v-1.34c-0.81-0.11-1.84-0.26-2.51-0.89c-0.66-0.63-1.47-2.6-1.88-3.61
		l-7.6-19.13h-1.77l-7.3,17.71c-0.96,2.31-2.03,5.88-5.05,5.92v1.34c1.4-0.04,3.61-0.15,4.2-0.15c0.63,0,3.1,0.11,4.64,0.15v-1.34
		c-1.36-0.11-3.06-0.23-3.06-2.05c0-1,0.48-2.08,1.33-4.2h8.15l0.77,2.12c0.22,0.56,0.7,1.86,0.7,2.46c0,1.42-1.47,1.53-3.06,1.68
		v1.33 M117.51,36.24l3.47-8.56l3.24,8.56H117.51z M158.24,46.21h1.8v-17.9c0-1.23,0-3.5,0.55-4.58c0.52-1.01,1.73-1.19,2.73-1.34
		v-1.34c-1.47,0.04-3.69,0.15-4.42,0.15c-0.66,0-2.8-0.11-4.2-0.15v1.34c3.5,0.15,3.5,2.87,3.5,5.69v9.9l-14.56-16.93
		c-1.4,0.04-3.5,0.15-4.17,0.15c-0.52,0-2.32-0.11-3.5-0.15v1.34c2.03,0.18,2.51,0.86,3.69,2.53v14.96c0,2.64-0.22,4.17-3.28,4.47
		v1.34c1.4-0.04,3.54-0.15,4.2-0.15c0.74,0,2.99,0.11,4.46,0.15v-1.34c-3.54-0.15-3.54-3.05-3.54-5.88v-11.5L158.24,46.21z
		 M188.8,21.05h-23.74l-0.22,7.07h1.58c0.48-3.09,1.81-5.21,4.94-5.21c1.36,0,2.21,0.04,2.51,0.37c0.22,0.26,0.33,0.71,0.33,2.38
		v14.51c0,3.35-0.37,4.17-3.72,4.17v1.34c2.17-0.04,5.82-0.15,6.52-0.15s4.35,0.11,6.52,0.15v-1.34c-3.35,0-3.69-0.82-3.69-4.17
		v-14.5c0-1.67,0.07-2.12,0.33-2.38c0.29-0.3,1.14-0.37,2.51-0.37c3.13,0,4.31,2.12,4.76,5.21h1.58L188.8,21.05z M200.45,45.69
		c1.92-0.04,5.16-0.15,5.79-0.15c0.63,0,4.42,0.11,6.64,0.15v-1.34c-0.81-0.11-1.84-0.26-2.51-0.89s-1.48-2.6-1.88-3.61l-7.6-19.13
		h-1.77l-7.3,17.71c-0.96,2.31-2.03,5.88-5.05,5.92v1.34c1.4-0.04,3.61-0.15,4.2-0.15c0.63,0,3.1,0.11,4.65,0.15v-1.34
		c-1.37-0.11-3.06-0.23-3.06-2.05c0-1,0.48-2.08,1.33-4.2h8.15l0.77,2.12c0.22,0.56,0.7,1.86,0.7,2.46c0,1.42-1.47,1.53-3.06,1.68
		L200.45,45.69 M194.58,36.24l3.47-8.56l3.25,8.56H194.58z M235.46,45.69c1.92-0.04,5.16-0.15,5.79-0.15c0.63,0,4.43,0.11,6.64,0.15
		v-1.34c-0.81-0.11-1.84-0.26-2.51-0.89c-0.66-0.63-1.47-2.6-1.88-3.61l-7.6-19.13h-1.77l-7.3,17.71c-0.96,2.31-2.03,5.88-5.05,5.92
		v1.34c1.4-0.04,3.61-0.15,4.2-0.15c0.63,0,3.1,0.11,4.65,0.15v-1.34c-1.37-0.11-3.06-0.23-3.06-2.05c0-1,0.48-2.08,1.33-4.2h8.15
		l0.78,2.12c0.22,0.56,0.7,1.86,0.7,2.46c0,1.42-1.48,1.53-3.06,1.68L235.46,45.69 M229.6,36.24l3.47-8.56l3.25,8.56H229.6z
		 M270.34,46.21h1.81v-17.9c0-1.23,0-3.5,0.55-4.58c0.52-1.01,1.73-1.19,2.73-1.34v-1.34c-1.47,0.04-3.69,0.15-4.43,0.15
		c-0.66,0-2.8-0.11-4.2-0.15v1.34c3.5,0.15,3.5,2.87,3.5,5.69v9.9l-14.56-16.93c-1.4,0.04-3.5,0.15-4.17,0.15
		c-0.52,0-2.32-0.11-3.5-0.15v1.34c2.03,0.18,2.5,0.86,3.68,2.53v14.96c0,2.64-0.22,4.17-3.28,4.47v1.34
		c1.4-0.04,3.54-0.15,4.2-0.15c0.74,0,2.99,0.11,4.46,0.15v-1.34c-3.54-0.15-3.54-3.05-3.54-5.88v-11.5L270.34,46.21z M287.77,45.69
		c1.92-0.04,5.16-0.15,5.79-0.15s4.43,0.11,6.64,0.15v-1.34c-0.81-0.11-1.84-0.26-2.51-0.89c-0.66-0.63-1.48-2.6-1.88-3.61
		l-7.6-19.13h-1.77l-7.3,17.71c-0.96,2.31-2.03,5.88-5.05,5.92v1.34c1.4-0.04,3.61-0.15,4.2-0.15c0.63,0,3.1,0.11,4.65,0.15v-1.34
		c-1.37-0.11-3.06-0.23-3.06-2.05c0-1,0.48-2.08,1.33-4.2h8.15l0.77,2.12c0.22,0.56,0.7,1.86,0.7,2.46c0,1.42-1.47,1.53-3.06,1.68
		L287.77,45.69 M281.91,36.24l3.46-8.56l3.25,8.56H281.91z M107.21,79.84h1.02v-5.77h-1.02c-0.46,2.69-1.98,4.9-4.93,4.9
		c-3.99,0-5.23-3.92-5.23-7.44c0-3.26,1.14-7.49,5.08-7.49c2.62,0,4.27,1.79,4.8,4.26h1.12l-0.23-5.38h-1.09l-0.38,1.46
		c-1.45-1.15-2.97-1.61-4.8-1.61c-5.18,0-8.89,3.8-8.89,9.05c0,5.15,3.53,8.44,8.56,8.44c1.98,0,4.04-0.51,5.51-1.9L107.21,79.84z
		 M124.41,71.5c0,5.41,4.27,8.74,9.38,8.74c5.13,0,9.5-3.28,9.5-8.74s-4.29-8.75-9.43-8.75C128.76,62.76,124.41,66.01,124.41,71.5
		 M128.81,71.35c0-3.28,0.91-7.41,4.98-7.41c4.22,0,5.11,4.28,5.11,7.72c0,3.54-0.94,7.41-5.11,7.41
		C129.7,79.07,128.81,74.63,128.81,71.35 M158.62,79.97c1.45-0.02,3.63-0.1,4.32-0.1c0.76,0,6.15,0.08,10.75,0.1l0.18-4.9h-1.09
		c-0.71,2.9-1.96,3.72-4.83,3.72c-3.05,0-3.05-1.51-3.05-4.1v-7.93c0-2.13,0.25-2.85,2.41-2.85v-0.92c-1.55,0.03-4.14,0.1-4.67,0.1
		c-0.59,0-2.67-0.08-4.01-0.1v0.92c2.16,0,2.39,0.72,2.39,2.85v9.41c0,2.15-0.23,2.87-2.39,2.87v0.93H158.62z M189.62,79.97
		c1.45-0.02,3.63-0.1,4.32-0.1c0.76,0,6.15,0.08,10.75,0.1l0.18-4.9h-1.09c-0.71,2.9-1.96,3.72-4.83,3.72
		c-3.05,0-3.05-1.51-3.05-4.1v-7.93c0-2.13,0.25-2.85,2.41-2.85v-0.92c-1.55,0.03-4.14,0.1-4.67,0.1c-0.59,0-2.67-0.08-4.01-0.1
		v0.92c2.16,0,2.39,0.72,2.39,2.85v9.41c0,2.15-0.23,2.87-2.39,2.87v0.93H189.62z M220.62,79.97c1.45-0.02,3.89-0.1,4.32-0.1
		c1.73,0,6.84,0.08,10.34,0.1l0.18-4.95h-1.02c-0.63,2.9-1.75,3.77-4.62,3.77c-2.92,0-2.92-1.46-2.92-3.87v-3.08
		c2.34,0,3,0.41,3.48,2.77h1.02c-0.03-1.05-0.1-2.77-0.1-3.18s0.08-2.36,0.1-3.54h-1.02c-0.1,2.38-1.42,2.77-3.48,2.77v-4.75
		c0-0.21,0-1.33,0.08-1.46c0.15-0.28,1.78-0.28,2.08-0.28c2.44,0,3.89,0.8,4.32,3.33h1.09l-0.2-4.51c-3.1,0.03-8.51,0.1-9.32,0.1
		c-0.43,0-2.87-0.08-4.32-0.1v0.92c2.16,0,2.39,0.72,2.39,2.85v9.46c0,2.1-0.23,2.82-2.39,2.82v0.93H220.62z M269.91,72.71h-7.57
		v0.92c1.73,0.18,2.08,0.51,2.08,2.21c0,2.26-1.09,3.13-3.33,3.13c-3.84,0-4.85-4.15-4.85-7.26c0-3.31,1.02-7.67,5.08-7.67
		c2.62,0,4.14,1.82,4.75,4.21h1.12l-0.23-5.34h-1.07l-0.41,1.44c-1.42-1.18-3.2-1.59-5-1.59c-5.16,0-8.64,3.95-8.64,9.03
		c0,5.21,3.48,8.46,8.59,8.46c1.57,0,2.62-0.33,4.07-0.87c1.6-0.56,2.08-0.64,3.81-0.87v-2.92c0-1.26,0.03-1.9,1.6-1.95
		L269.91,72.71L269.91,72.71z M285.41,79.97c1.45-0.02,3.89-0.1,4.32-0.1c1.73,0,6.84,0.08,10.34,0.1l0.18-4.95h-1.02
		c-0.64,2.9-1.75,3.77-4.63,3.77c-2.92,0-2.92-1.46-2.92-3.87v-3.08c2.34,0,3,0.41,3.48,2.77h1.01c-0.03-1.05-0.1-2.77-0.1-3.18
		s0.08-2.36,0.1-3.54h-1.01c-0.1,2.38-1.43,2.77-3.48,2.77v-4.75c0-0.21,0-1.33,0.08-1.46c0.15-0.28,1.78-0.28,2.09-0.28
		c2.44,0,3.89,0.8,4.32,3.33h1.09l-0.21-4.51c-3.1,0.03-8.51,0.1-9.32,0.1c-0.43,0-2.87-0.08-4.32-0.1v0.92
		c2.16,0,2.39,0.72,2.39,2.85v9.46c0,2.1-0.23,2.82-2.39,2.82L285.41,79.97L285.41,79.97z"/>
</g>
</svg>
