<?xml version="1.0" encoding="UTF-8" standalone="no"?>
<!-- Created with Inkscape (http://www.inkscape.org/) -->

<svg
   xmlns:dc="http://purl.org/dc/elements/1.1/"
   xmlns:cc="http://creativecommons.org/ns#"
   xmlns:rdf="http://www.w3.org/1999/02/22-rdf-syntax-ns#"
   xmlns:svg="http://www.w3.org/2000/svg"
   xmlns="http://www.w3.org/2000/svg"
   xmlns:sodipodi="http://sodipodi.sourceforge.net/DTD/sodipodi-0.dtd"
   xmlns:inkscape="http://www.inkscape.org/namespaces/inkscape"
   width="39.6875mm"
   height="16.868874mm"
   viewBox="0 0 39.6875 16.868874"
   version="1.1"
   id="svg734"
   inkscape:version="0.92.1 r15371"
   sodipodi:docname="rcc logo.svg">
  <defs
     id="defs728">
    <clipPath
       clipPathUnits="userSpaceOnUse"
       id="clipPath90">
      <path
         d="m 78.48,661.465 h 162.243 v 68.961 H 78.48 Z"
         id="path88"
         inkscape:connector-curvature="0" />
    </clipPath>
  </defs>
  <sodipodi:namedview
     id="base"
     pagecolor="#ffffff"
     bordercolor="#666666"
     borderopacity="1.0"
     inkscape:pageopacity="0.0"
     inkscape:pageshadow="2"
     inkscape:zoom="0.98994949"
     inkscape:cx="38.324827"
     inkscape:cy="-40.13052"
     inkscape:document-units="mm"
     inkscape:current-layer="layer1"
     showgrid="false"
     inkscape:window-width="1600"
     inkscape:window-height="838"
     inkscape:window-x="-8"
     inkscape:window-y="-8"
     inkscape:window-maximized="1"
     fit-margin-top="0"
     fit-margin-left="0"
     fit-margin-right="0"
     fit-margin-bottom="0" />
  <metadata
     id="metadata731">
    <rdf:RDF>
      <cc:Work
         rdf:about="">
        <dc:format>image/svg+xml</dc:format>
        <dc:type
           rdf:resource="http://purl.org/dc/dcmitype/StillImage" />
        <dc:title></dc:title>
      </cc:Work>
    </rdf:RDF>
  </metadata>
  <g
     inkscape:label="Layer 1"
     inkscape:groupmode="layer"
     id="layer1"
     transform="translate(-57.263393,-125.27985)">
    <path
       d="M 96.950893,137.70964 H 57.447541 v -0.30822 h 39.503352 z"
       style="fill:#f58113;fill-opacity:1;fill-rule:nonzero;stroke:none;stroke-width:0.24461792"
       id="path80"
       inkscape:connector-curvature="0" />
    <path
       d="M 96.950893,142.14872 H 57.447541 v -0.30822 h 39.503352 z"
       style="fill:#f58113;fill-opacity:1;fill-rule:nonzero;stroke:none;stroke-width:0.24461792"
       id="path82"
       inkscape:connector-curvature="0" />
    <g
       transform="matrix(0.24461794,0,0,-0.24461794,38.065728,303.95493)"
       id="g84">
      <g
         id="g86"
         clip-path="url(#clipPath90)">
        <g
           id="g92"
           transform="translate(123.7292,691.8188)">
          <path
             d="m 0,0 -0.803,2.164 c 11.717,2.592 20.364,13.621 30.861,14.632 l -0.665,3.543 c 0,0 -6.949,-1.051 -17.393,-1.748 l -0.897,3.034 c 0,0 -6.625,1.299 -13.108,1.718 l -0.169,1.261 c 0,0 -1.969,0.852 -3.508,0.852 -1.54,0 -3.508,-0.852 -3.508,-0.852 l -0.169,-1.261 c -6.483,-0.419 -13.108,-1.718 -13.108,-1.718 l -0.877,-2.967 c -6.983,0.658 -9.368,1.561 -13.432,1.561 -5.092,0 -8.473,-3.156 -8.473,-7.17 0,-3.802 3.027,-7.17 7.17,-7.17 2.98,0 5.157,1.72 5.157,3.502 0,1.959 -2.167,2.13 -2.167,2.13 0,0 -0.74,-1.814 -2.855,-1.814 -1.824,0 -3.379,1.454 -3.379,3.306 0,1.562 1.477,3.183 4.207,3.183 7.983,0 15.339,-11.257 26.571,-13.979 L -11.365,0 c -4.058,-0.546 -7.496,-1.417 -7.496,-1.417 L -20,-5.266 H 8.635 L 7.499,-1.417 C 7.499,-1.417 4.06,-0.546 0,0"
             style="fill:#231f20;fill-opacity:1;fill-rule:nonzero;stroke:none"
             id="path94"
             inkscape:connector-curvature="0" />
        </g>
        <g
           id="g96"
           transform="translate(149.4016,730.4251)">
          <path
             d="m 0,0 c 0,0 3.302,-1.77 3.222,-6.163 -0.047,-2.542 -2.177,-3.909 -1.647,-5.699 0.408,-1.377 3.256,0.349 3.471,3.206 0.14,1.841 -0.276,3.541 -0.276,3.541 0,0 1.963,-2.572 1.963,-5.698 0,-5.201 -4.957,-6.145 -4.957,-6.145 0,0 -4.748,0.573 -4.748,5.497 0,3.001 2.991,4.906 3.56,6.641 C 1.308,-2.627 0,0 0,0"
             style="fill:#f58113;fill-opacity:1;fill-rule:nonzero;stroke:none"
             id="path98"
             inkscape:connector-curvature="0" />
        </g>
        <g
           id="g100"
           transform="translate(179.3373,705.1679)">
          <path
             d="m 0,0 c 0,3.008 -2.304,5.664 -5.819,5.664 -1.328,0 -2.07,-0.156 -2.617,-0.43 C -8.788,5.078 -8.905,4.844 -8.983,4.531 -9.178,3.32 -9.296,1.328 -9.257,-2.226 c 0,-3.672 0.118,-3.789 0.274,-3.906 0.195,-0.078 0.664,-0.117 1.25,-0.117 3.046,0 4.882,0.43 6.132,1.914 C -0.664,-3.202 0,-1.679 0,-0.039 Z m -15.388,6.328 c -0.039,0.117 0.039,0.195 0.156,0.273 2.031,0.039 3.827,0.039 5.507,0.196 1.796,0.116 2.851,0.156 3.906,0.156 2.343,0 4.764,-0.313 6.796,-1.758 C 2.812,3.906 3.75,1.992 3.75,0.117 c 0,-3.085 -2.656,-4.921 -4.14,-5.78 -0.234,-0.117 -0.352,-0.313 -0.274,-0.586 0.196,-0.82 1.016,-3.125 2.695,-5.703 1.797,-2.772 3.75,-4.764 7.069,-6.366 0.391,-0.195 0.431,-0.351 0.391,-0.547 -0.038,-0.352 -0.195,-0.742 -0.273,-0.742 -3.476,0.352 -5.976,1.524 -8.202,3.593 -1.64,1.602 -2.851,3.789 -4.18,6.328 -0.898,1.797 -1.327,2.148 -3.749,2.148 -1.133,0 -1.562,-0.039 -1.875,-0.117 -0.234,-0.078 -0.508,-0.274 -0.508,-0.586 0,-2.969 0.039,-5.273 0.157,-7.538 0.039,-0.585 0.195,-0.898 0.39,-1.016 0.391,-0.39 2.109,-0.625 3.008,-0.859 0,-0.195 -0.195,-0.859 -0.274,-1.015 -0.039,-0.079 -0.156,-0.079 -0.546,-0.079 -0.43,0 -3.633,0.04 -5.234,0.04 -1.406,0 -2.149,-0.117 -2.539,-0.117 -0.508,0 -0.586,0 -0.625,0.077 -0.196,0.196 -0.234,0.899 -0.234,1.134 0.781,0.156 1.952,0.39 2.226,0.937 0.429,0.624 0.507,3.788 0.507,8.514 v 4.609 c 0,2.266 -0.039,5.077 -0.078,6.953 -0.039,1.21 -0.234,1.405 -2.733,2.03 z"
             style="fill:#231f20;fill-opacity:1;fill-rule:nonzero;stroke:none"
             id="path102"
             inkscape:connector-curvature="0" />
        </g>
        <g
           id="g104"
           transform="translate(189.8451,698.9189)">
          <path
             d="m 0,0 c 0,2.695 0.703,6.249 3.359,9.179 1.992,2.187 4.804,3.124 7.108,3.71 1.68,0.43 4.024,0.664 5.625,0.664 1.796,0 3.866,-0.391 4.804,-0.781 0.508,-0.157 0.781,-0.039 1.601,0.312 0.117,0.04 0.196,0 0.469,-0.078 0.391,-0.156 0.469,-0.195 0.429,-0.312 -0.781,-1.601 -0.859,-3.789 -0.663,-5.937 0,-0.078 -0.352,-0.156 -0.586,-0.195 -0.547,-0.117 -0.625,-0.079 -0.703,0.156 -0.157,0.625 -0.469,1.679 -0.704,2.461 -0.273,0.703 -0.469,1.132 -1.21,1.64 -0.664,0.469 -2.617,1.328 -5.273,1.328 -2.696,0 -5.39,-1.132 -7.499,-3.593 C 5.233,6.679 4.062,3.711 4.062,-0.234 c 0,-4.258 2.344,-11.483 11.092,-11.483 2.851,0 4.453,1.171 5.625,2.344 1.015,1.015 1.523,1.991 1.835,2.812 0.04,0.156 0.118,0.234 0.312,0.078 0.391,-0.235 0.587,-0.547 0.547,-0.821 -0.429,-1.757 -1.367,-3.984 -1.874,-4.765 -0.234,-0.351 -0.391,-0.43 -0.703,-0.468 -1.211,-0.039 -4.18,-0.664 -6.249,-0.664 C 4.218,-13.201 0,-6.21 0,-0.039 Z"
             style="fill:#231f20;fill-opacity:1;fill-rule:nonzero;stroke:none"
             id="path106"
             inkscape:connector-curvature="0" />
        </g>
        <g
           id="g108"
           transform="translate(216.6006,698.9189)">
          <path
             d="m 0,0 c 0,2.695 0.703,6.249 3.359,9.179 1.992,2.187 4.804,3.124 7.108,3.71 1.681,0.43 4.024,0.664 5.625,0.664 1.797,0 3.867,-0.391 4.804,-0.781 0.508,-0.157 0.781,-0.039 1.601,0.312 0.118,0.04 0.196,0 0.469,-0.078 0.391,-0.156 0.469,-0.195 0.43,-0.312 -0.781,-1.601 -0.859,-3.789 -0.664,-5.937 0,-0.078 -0.351,-0.156 -0.586,-0.195 -0.547,-0.117 -0.625,-0.079 -0.703,0.156 -0.157,0.625 -0.469,1.679 -0.703,2.461 -0.273,0.703 -0.469,1.132 -1.211,1.64 -0.664,0.469 -2.617,1.328 -5.273,1.328 -2.695,0 -5.389,-1.132 -7.499,-3.593 C 5.234,6.679 4.062,3.711 4.062,-0.234 c 0,-4.258 2.344,-11.483 11.093,-11.483 2.85,0 4.452,1.171 5.624,2.344 1.015,1.015 1.524,1.991 1.836,2.812 0.039,0.156 0.117,0.234 0.312,0.078 0.391,-0.235 0.586,-0.547 0.547,-0.821 -0.43,-1.757 -1.367,-3.984 -1.875,-4.765 -0.234,-0.351 -0.391,-0.43 -0.703,-0.468 -1.211,-0.039 -4.18,-0.664 -6.249,-0.664 C 4.218,-13.201 0,-6.21 0,-0.039 Z"
             style="fill:#231f20;fill-opacity:1;fill-rule:nonzero;stroke:none"
             id="path110"
             inkscape:connector-curvature="0" />
        </g>
        <g
           id="g112"
           transform="translate(84.5991,672.8672)">
          <path
             d="M 0,0 C 0,0.976 -0.658,1.622 -1.339,1.622 -1.566,1.622 -1.668,1.588 -1.86,1.52 -1.974,1.475 -2.042,1.395 -2.065,1.282 -2.11,0.941 -2.121,0.465 -2.133,-0.511 c -0.011,-1.145 -0.011,-1.156 0.079,-1.179 0.091,-0.023 0.273,-0.023 0.488,-0.023 0.499,0 0.942,0.148 1.214,0.488 C -0.137,-0.941 0,-0.511 0,-0.011 Z m -4.413,1.883 c -0.011,0.068 0.057,0.091 0.125,0.091 0.499,0.011 1.055,0.022 1.554,0.034 0.703,0.045 0.976,0.057 1.406,0.057 0.772,0 1.441,-0.08 2.144,-0.545 C 1.282,1.214 1.622,0.624 1.622,0.136 1.622,-0.862 0.862,-1.282 0.465,-1.531 0.42,-1.565 0.385,-1.679 0.408,-1.758 0.487,-2.065 0.748,-2.711 1.157,-3.369 1.611,-4.118 2.325,-4.867 2.994,-5.15 3.13,-5.207 3.13,-5.297 3.096,-5.468 3.085,-5.593 2.994,-5.603 2.949,-5.603 1.894,-5.547 1.066,-5.286 0.34,-4.548 c -0.465,0.476 -0.771,1.089 -1.055,1.746 -0.181,0.397 -0.352,0.636 -0.907,0.636 -0.182,0 -0.295,-0.012 -0.42,-0.035 -0.057,-0.011 -0.091,-0.125 -0.091,-0.204 0,-0.987 0.023,-1.576 0.034,-2.007 0.012,-0.205 0.045,-0.25 0.102,-0.295 0.114,-0.091 0.636,-0.148 0.908,-0.227 0.034,-0.057 -0.012,-0.34 -0.057,-0.386 -0.011,-0.023 -0.068,-0.023 -0.182,-0.023 -0.113,0 -1.304,0.011 -1.882,0.011 -0.386,0 -0.613,-0.033 -0.897,-0.033 -0.113,0 -0.158,0 -0.17,0.033 -0.034,0.091 -0.079,0.284 -0.057,0.363 0.239,0.058 0.522,0.137 0.624,0.239 0.137,0.17 0.171,0.908 0.171,2.36 v 1.417 c 0,0.669 -0.023,1.486 -0.034,1.849 -0.012,0.431 -0.046,0.431 -0.772,0.635 z"
             style="fill:#231f20;fill-opacity:1;fill-rule:nonzero;stroke:none"
             id="path114"
             inkscape:connector-curvature="0" />
        </g>
        <g
           id="g116"
           transform="translate(92.2871,674.4778)">
          <path
             d="m 0,0 c -0.964,-0.125 -1.043,-0.215 -1.089,-0.42 -0.045,-0.204 -0.079,-0.635 -0.079,-1.792 v -1.781 c 0,-0.873 0.034,-1.747 0.102,-2.166 0.034,-0.193 0.09,-0.284 0.238,-0.307 0.079,-0.011 0.329,-0.056 0.567,-0.102 0.057,0 0.079,-0.022 0.079,-0.056 0,-0.069 -0.033,-0.295 -0.056,-0.363 -0.828,0.023 -1.305,0.034 -1.781,0.034 -0.896,0 -1.475,-0.046 -1.509,-0.046 -0.079,0 -0.125,0.046 -0.136,0.091 -0.011,0.08 -0.057,0.249 -0.045,0.318 0.635,0.056 0.873,0.113 0.975,0.442 0.045,0.17 0.125,0.544 0.125,2.053 v 2.246 c 0,1.532 -0.011,1.69 -0.42,1.759 -0.159,0.022 -0.351,0.045 -0.499,0.045 -0.068,0 -0.091,0.022 -0.091,0.091 0,0.033 0.012,0.113 0.057,0.215 0.045,0.068 0.057,0.091 0.091,0.091 0.091,0.011 0.193,0.011 0.352,0.011 0.17,0 0.465,-0.023 1.463,-0.011 0.556,0 1.248,0.023 1.372,0.023 0.148,0 0.159,-0.012 0.171,-0.046 z"
             style="fill:#231f20;fill-opacity:1;fill-rule:nonzero;stroke:none"
             id="path118"
             inkscape:connector-curvature="0" />
        </g>
        <g
           id="g120"
           transform="translate(100.4303,674.4102)">
          <path
             d="m 0,0 c -0.102,-0.012 -0.159,-0.034 -0.261,-0.114 -0.136,-0.102 -0.351,-0.533 -0.68,-1.179 -0.329,-0.636 -1.588,-3.358 -2.155,-4.765 -0.057,-0.136 -0.114,-0.249 -0.205,-0.408 -0.09,-0.147 -0.181,-0.363 -0.294,-0.545 -0.023,-0.045 -0.069,-0.079 -0.182,-0.079 -0.193,0 -0.295,0.034 -0.329,0.102 -0.046,0.057 -0.171,0.306 -0.442,0.999 -0.999,2.552 -1.838,4.298 -2.156,5.002 -0.408,0.93 -0.499,0.998 -1.111,1.111 L -7.69,0.42 c 0.022,0.067 0.067,0.067 0.113,0.067 0.544,-0.045 1.35,-0.056 1.588,-0.056 0.385,0 0.771,0.022 1.157,0.022 0.057,0 0.091,-0.022 0.068,-0.215 -0.023,-0.17 -0.034,-0.204 -0.091,-0.216 -0.476,-0.056 -0.533,-0.124 -0.431,-0.476 0.08,-0.272 0.193,-0.556 0.704,-1.781 0.476,-1.157 0.839,-1.997 1.213,-2.79 0.034,-0.08 0.125,-0.046 0.17,0.034 0.216,0.419 0.715,1.52 1.316,2.983 0.182,0.431 0.42,1.078 0.704,1.86 0.033,0.102 -0.103,0.159 -0.33,0.17 l -0.476,0.023 c -0.045,0 -0.079,0.045 -0.056,0.068 0.113,0.295 0.124,0.351 0.204,0.351 0.272,0 0.873,-0.033 1.168,-0.033 0.227,0 0.59,0.033 0.839,0.033 0.216,0 0.238,-0.169 0.238,-0.362 0,-0.068 -0.011,-0.091 -0.09,-0.08 z"
             style="fill:#231f20;fill-opacity:1;fill-rule:nonzero;stroke:none"
             id="path122"
             inkscape:connector-curvature="0" />
        </g>
        <g
           id="g124"
           transform="translate(104.0922,671.4491)">
          <path
             d="M 0,0 C 0.499,0 0.794,0.012 1.021,0.023 1.622,0.057 1.735,0.193 1.962,0.794 1.996,0.851 2.246,0.885 2.404,0.851 2.37,0.567 2.314,-0.022 2.314,-0.42 2.325,-0.862 2.337,-1.066 2.382,-1.463 2.337,-1.474 2.235,-1.497 2.121,-1.497 2.03,-1.509 1.974,-1.486 1.939,-1.429 1.905,-1.327 1.815,-1.055 1.758,-0.93 1.678,-0.68 1.486,-0.545 1.1,-0.522 c -0.295,0.023 -0.556,0.023 -1.043,0.023 -0.341,0 -0.454,-0.011 -0.522,-0.023 -0.057,-0.011 -0.114,-0.034 -0.125,-0.113 -0.034,-0.079 -0.079,-0.647 -0.079,-1.543 0,-0.703 0,-0.896 0.09,-1.021 0.159,-0.227 0.794,-0.249 1.259,-0.249 1.089,0 1.793,0.204 2.201,1.474 0.045,0.035 0.284,0.012 0.34,0 0.034,0 0.034,0 0.034,-0.09 -0.023,-0.67 -0.227,-1.509 -0.386,-1.804 -0.033,-0.068 -0.067,-0.09 -0.124,-0.09 -0.08,0 -0.17,0 -0.522,0.011 -0.318,0.011 -1.077,0.022 -2.064,0.022 -1.158,0 -2.213,-0.045 -3.041,-0.068 -0.056,0.023 -0.045,0.227 -0.022,0.318 0.011,0.057 0.022,0.068 0.057,0.08 0.544,0.124 0.657,0.158 0.669,0.385 0.011,0.147 0.079,0.942 0.079,1.974 v 2.575 c 0,0.975 -0.057,1.27 -0.079,1.338 C -2.19,2.768 -2.201,2.87 -2.314,2.893 -2.428,2.916 -2.598,2.961 -2.972,3.04 -3.006,3.052 -3.018,3.052 -3.006,3.108 l 0.034,0.25 c 0,0.046 0,0.068 0.068,0.068 h 0.363 c 0.351,0 0.885,-0.034 1.747,-0.034 h 0.93 C 1.1,3.392 1.747,3.46 2.45,3.46 2.597,3.46 2.677,3.448 2.722,3.404 2.756,3.358 2.813,3.29 2.779,3.097 2.654,2.451 2.654,1.952 2.654,1.6 2.279,1.589 2.257,1.622 2.235,1.702 1.916,2.609 1.701,2.916 1.134,2.916 H 0.646 c -0.669,0 -0.964,-0.023 -1.1,-0.034 -0.204,-0.012 -0.215,-0.239 -0.215,-0.375 0,-0.805 0,-1.531 0.011,-2.28 C -0.658,0.079 -0.613,0 -0.545,0 Z"
             style="fill:#231f20;fill-opacity:1;fill-rule:nonzero;stroke:none"
             id="path126"
             inkscape:connector-curvature="0" />
        </g>
        <g
           id="g128"
           transform="translate(113.05,672.8672)">
          <path
             d="M 0,0 C 0,0.976 -0.658,1.622 -1.338,1.622 -1.565,1.622 -1.667,1.588 -1.86,1.52 -1.974,1.475 -2.041,1.395 -2.064,1.282 -2.11,0.941 -2.121,0.465 -2.132,-0.511 c -0.011,-1.145 -0.011,-1.156 0.079,-1.179 0.091,-0.023 0.273,-0.023 0.488,-0.023 0.499,0 0.941,0.148 1.214,0.488 C -0.136,-0.941 0,-0.511 0,-0.011 Z m -4.412,1.883 c -0.011,0.068 0.056,0.091 0.124,0.091 0.499,0.011 1.056,0.022 1.555,0.034 0.703,0.045 0.975,0.057 1.406,0.057 0.771,0 1.441,-0.08 2.144,-0.545 C 1.282,1.214 1.622,0.624 1.622,0.136 1.622,-0.862 0.863,-1.282 0.465,-1.531 0.42,-1.565 0.386,-1.679 0.409,-1.758 0.488,-2.065 0.749,-2.711 1.157,-3.369 1.611,-4.118 2.326,-4.867 2.995,-5.15 3.131,-5.207 3.131,-5.297 3.097,-5.468 3.086,-5.593 2.995,-5.603 2.949,-5.603 c -1.054,0.056 -1.882,0.317 -2.608,1.055 -0.465,0.476 -0.772,1.089 -1.055,1.746 -0.182,0.397 -0.352,0.636 -0.908,0.636 -0.181,0 -0.294,-0.012 -0.419,-0.035 -0.057,-0.011 -0.091,-0.125 -0.091,-0.204 0,-0.987 0.022,-1.576 0.034,-2.007 0.011,-0.205 0.045,-0.25 0.102,-0.295 0.113,-0.091 0.635,-0.148 0.907,-0.227 0.035,-0.057 -0.011,-0.34 -0.057,-0.386 -0.011,-0.023 -0.067,-0.023 -0.181,-0.023 -0.113,0 -1.304,0.011 -1.883,0.011 -0.385,0 -0.612,-0.033 -0.896,-0.033 -0.113,0 -0.159,0 -0.17,0.033 -0.034,0.091 -0.08,0.284 -0.057,0.363 0.239,0.058 0.522,0.137 0.624,0.239 0.136,0.17 0.17,0.908 0.17,2.36 v 1.417 c 0,0.669 -0.023,1.486 -0.034,1.849 -0.011,0.431 -0.045,0.431 -0.771,0.635 z"
             style="fill:#231f20;fill-opacity:1;fill-rule:nonzero;stroke:none"
             id="path130"
             inkscape:connector-curvature="0" />
        </g>
        <g
           id="g132"
           transform="translate(117.3585,667.2519)">
          <path
             d="m 0,0 c -0.057,0 -0.09,0.012 -0.147,0.045 -0.023,0.023 -0.057,0.126 -0.068,0.432 -0.023,0.59 -0.091,1.134 -0.193,1.826 -0.012,0.079 0,0.091 0.057,0.102 0.067,0.012 0.158,0.023 0.215,0.023 0.068,0 0.125,-0.023 0.159,-0.113 C 0.091,2.144 0.159,1.917 0.352,1.656 0.783,1.067 1.577,0.545 2.201,0.545 3.006,0.545 3.63,1.089 3.63,1.917 3.63,2.269 3.415,2.655 3.063,2.87 2.881,2.984 2.62,3.165 1.996,3.437 1.203,3.778 0.669,4.084 0.261,4.572 c -0.227,0.261 -0.42,0.692 -0.42,1.259 0,0.771 0.454,1.282 0.976,1.576 C 1.101,7.566 1.77,7.77 2.575,7.77 2.893,7.77 3.358,7.725 3.562,7.703 3.687,7.68 3.789,7.68 3.925,7.668 4.038,7.657 4.129,7.714 4.197,7.895 c 0.148,0 0.352,0 0.386,-0.011 C 4.549,7.294 4.572,6.716 4.696,6.024 4.719,5.922 4.696,5.888 4.651,5.853 4.537,5.786 4.481,5.729 4.379,5.684 4.356,5.672 4.299,5.695 4.277,5.774 4.084,6.296 3.936,6.614 3.573,6.886 3.29,7.113 2.768,7.305 2.314,7.305 1.725,7.305 1.248,6.761 1.248,6.228 1.248,5.899 1.35,5.627 1.566,5.423 1.827,5.173 2.076,4.98 2.7,4.719 3.471,4.39 4.061,4.107 4.424,3.755 4.889,3.301 5.071,2.893 5.071,2.269 5.071,1.43 4.606,0.828 4.005,0.511 3.415,0.193 2.428,0.068 2.019,0.068 1.577,0.068 1.044,0.137 0.647,0.239 0.556,0.261 0.5,0.261 0.431,0.239 0.363,0.204 0.306,0.147 0.239,0.068 0.159,0.012 0.091,0 0.012,0 Z"
             style="fill:#231f20;fill-opacity:1;fill-rule:nonzero;stroke:none"
             id="path134"
             inkscape:connector-curvature="0" />
        </g>
        <g
           id="g136"
           transform="translate(127.6563,674.4778)">
          <path
             d="m 0,0 c -0.964,-0.125 -1.043,-0.215 -1.089,-0.42 -0.046,-0.204 -0.079,-0.635 -0.079,-1.792 v -1.781 c 0,-0.873 0.033,-1.747 0.102,-2.166 0.034,-0.193 0.09,-0.284 0.238,-0.307 0.079,-0.011 0.329,-0.056 0.567,-0.102 0.057,0 0.079,-0.022 0.079,-0.056 0,-0.069 -0.033,-0.295 -0.056,-0.363 -0.828,0.023 -1.304,0.034 -1.781,0.034 -0.896,0 -1.475,-0.046 -1.509,-0.046 -0.079,0 -0.125,0.046 -0.136,0.091 -0.011,0.08 -0.056,0.249 -0.045,0.318 0.635,0.056 0.873,0.113 0.976,0.442 0.044,0.17 0.124,0.544 0.124,2.053 v 2.246 c 0,1.532 -0.011,1.69 -0.42,1.759 -0.159,0.022 -0.351,0.045 -0.499,0.045 -0.068,0 -0.091,0.022 -0.091,0.091 0,0.033 0.012,0.113 0.057,0.215 0.045,0.068 0.057,0.091 0.091,0.091 0.091,0.011 0.193,0.011 0.352,0.011 0.17,0 0.465,-0.023 1.463,-0.011 0.556,0 1.248,0.023 1.372,0.023 0.148,0 0.159,-0.012 0.171,-0.046 z"
             style="fill:#231f20;fill-opacity:1;fill-rule:nonzero;stroke:none"
             id="path138"
             inkscape:connector-curvature="0" />
        </g>
        <g
           id="g140"
           transform="translate(132.2373,674.4668)">
          <path
             d="m 0,0 c -0.17,0 -0.68,-0.079 -0.805,-0.193 -0.057,-0.034 -0.091,-0.125 -0.102,-0.227 -0.034,-0.397 -0.069,-1.474 -0.069,-2.405 0,-1.645 0,-2.756 0.171,-3.414 0.022,-0.102 0.056,-0.148 0.158,-0.182 0.25,-0.09 0.488,-0.147 0.749,-0.147 0.431,0 0.976,0.136 1.622,0.533 0.907,0.567 1.372,1.69 1.372,2.881 0,1.214 -0.544,2.053 -1.111,2.496 C 1.282,-0.114 0.476,0 0.011,0 Z M 4.798,-3.29 C 4.798,-3.902 4.526,-4.9 3.709,-5.661 2.927,-6.409 2.37,-6.602 1.769,-6.784 1.157,-6.965 0.749,-6.988 -0.046,-6.988 c -0.601,0 -1.712,0.046 -1.917,0.046 -0.407,0 -0.805,0 -1.111,-0.011 0,0.101 -0.022,0.317 0,0.374 0.454,0.181 0.59,0.249 0.601,0.453 0.057,0.851 0.045,2.78 0.045,4.152 0,1.146 -0.011,1.407 -0.022,1.543 -0.012,0.17 -0.102,0.295 -0.635,0.385 -0.034,0.012 -0.034,0.069 -0.046,0.273 l -0.011,0.147 c 0.42,0 1.021,0.023 1.667,0.034 0.738,0.012 1.135,0.034 1.702,0.034 0.816,0 2.28,-0.114 3.323,-1.043 0.84,-0.749 1.248,-1.645 1.248,-2.678 z"
             style="fill:#231f20;fill-opacity:1;fill-rule:nonzero;stroke:none"
             id="path142"
             inkscape:connector-curvature="0" />
        </g>
        <g
           id="g144"
           transform="translate(141.6154,671.4491)">
          <path
             d="M 0,0 C 0.5,0 0.794,0.012 1.021,0.023 1.622,0.057 1.736,0.193 1.962,0.794 1.997,0.851 2.246,0.885 2.405,0.851 2.371,0.567 2.315,-0.022 2.315,-0.42 2.325,-0.862 2.337,-1.066 2.382,-1.463 2.337,-1.474 2.235,-1.497 2.121,-1.497 2.03,-1.509 1.974,-1.486 1.94,-1.429 1.906,-1.327 1.815,-1.055 1.758,-0.93 c -0.079,0.25 -0.272,0.385 -0.657,0.408 -0.295,0.023 -0.556,0.023 -1.044,0.023 -0.34,0 -0.454,-0.011 -0.522,-0.023 -0.057,-0.011 -0.113,-0.034 -0.125,-0.113 -0.034,-0.079 -0.079,-0.647 -0.079,-1.543 0,-0.703 0,-0.896 0.091,-1.021 0.158,-0.227 0.794,-0.249 1.259,-0.249 1.089,0 1.792,0.204 2.201,1.474 0.044,0.035 0.283,0.012 0.34,0 0.034,0 0.034,0 0.034,-0.09 -0.023,-0.67 -0.228,-1.509 -0.386,-1.804 -0.034,-0.068 -0.068,-0.09 -0.125,-0.09 -0.079,0 -0.17,0 -0.522,0.011 -0.317,0.011 -1.077,0.022 -2.064,0.022 -1.157,0 -2.212,-0.045 -3.04,-0.068 -0.057,0.023 -0.045,0.227 -0.023,0.318 0.012,0.057 0.023,0.068 0.057,0.08 0.545,0.124 0.658,0.158 0.669,0.385 0.012,0.147 0.08,0.942 0.08,1.974 v 2.575 c 0,0.975 -0.057,1.27 -0.08,1.338 C -2.189,2.768 -2.2,2.87 -2.314,2.893 -2.427,2.916 -2.598,2.961 -2.972,3.04 -3.006,3.052 -3.017,3.052 -3.006,3.108 l 0.034,0.25 c 0,0.046 0,0.068 0.068,0.068 h 0.363 c 0.352,0 0.885,-0.034 1.747,-0.034 h 0.931 c 0.964,0 1.61,0.068 2.313,0.068 0.148,0 0.227,-0.012 0.273,-0.056 C 2.757,3.358 2.814,3.29 2.78,3.097 2.655,2.451 2.655,1.952 2.655,1.6 2.28,1.589 2.258,1.622 2.235,1.702 1.917,2.609 1.702,2.916 1.135,2.916 H 0.646 c -0.668,0 -0.964,-0.023 -1.1,-0.034 -0.204,-0.012 -0.215,-0.239 -0.215,-0.375 0,-0.805 0,-1.531 0.011,-2.28 C -0.658,0.079 -0.612,0 -0.544,0 Z"
             style="fill:#231f20;fill-opacity:1;fill-rule:nonzero;stroke:none"
             id="path146"
             inkscape:connector-curvature="0" />
        </g>
        <g
           id="g148"
           transform="translate(149.5755,671.1317)">
          <path
             d="m 0,0 c 0,0.794 0.192,1.781 0.919,2.586 0.601,0.67 1.542,1.01 2.382,1.191 0.51,0.114 0.997,0.136 1.462,0.136 0.511,0 1.056,-0.068 1.282,-0.158 C 6.148,3.721 6.386,3.823 6.465,3.857 6.511,3.868 6.567,3.868 6.738,3.8 6.828,3.777 6.828,3.743 6.817,3.698 6.59,3.085 6.578,2.541 6.624,1.769 6.624,1.747 6.59,1.724 6.465,1.724 6.261,1.713 6.193,1.758 6.171,1.815 6.136,1.94 6.012,2.291 5.921,2.495 5.841,2.689 5.785,2.847 5.581,3.029 5.376,3.221 4.843,3.46 4.276,3.46 3.641,3.46 2.948,3.165 2.449,2.53 1.882,1.815 1.69,0.896 1.69,0 c 0,-1.293 0.703,-3.301 2.768,-3.301 0.76,0 1.338,0.522 1.655,0.885 0.216,0.261 0.329,0.544 0.409,0.692 0.012,0.022 0.056,0.045 0.181,-0.068 0.136,-0.08 0.159,-0.113 0.148,-0.216 C 6.738,-2.677 6.488,-3.244 6.329,-3.505 6.25,-3.607 6.216,-3.607 6.091,-3.618 5.762,-3.618 5.149,-3.812 4.344,-3.812 1.213,-3.812 0,-1.769 0,-0.011 Z"
             style="fill:#231f20;fill-opacity:1;fill-rule:nonzero;stroke:none"
             id="path150"
             inkscape:connector-curvature="0" />
        </g>
        <g
           id="g152"
           transform="translate(161.5738,674.4778)">
          <path
             d="m 0,0 c -0.965,-0.125 -1.044,-0.215 -1.089,-0.42 -0.046,-0.204 -0.08,-0.635 -0.08,-1.792 v -1.781 c 0,-0.873 0.034,-1.747 0.102,-2.166 0.034,-0.193 0.091,-0.284 0.239,-0.307 0.079,-0.011 0.329,-0.056 0.567,-0.102 0.056,0 0.079,-0.022 0.079,-0.056 0,-0.069 -0.033,-0.295 -0.056,-0.363 -0.829,0.023 -1.306,0.034 -1.782,0.034 -0.895,0 -1.474,-0.046 -1.508,-0.046 -0.079,0 -0.125,0.046 -0.136,0.091 -0.011,0.08 -0.057,0.249 -0.045,0.318 0.635,0.056 0.873,0.113 0.975,0.442 0.045,0.17 0.125,0.544 0.125,2.053 v 2.246 c 0,1.532 -0.012,1.69 -0.42,1.759 -0.159,0.022 -0.352,0.045 -0.499,0.045 -0.068,0 -0.091,0.022 -0.091,0.091 0,0.033 0.012,0.113 0.057,0.215 0.045,0.068 0.057,0.091 0.091,0.091 0.09,0.011 0.192,0.011 0.351,0.011 0.17,0 0.466,-0.023 1.464,-0.011 0.555,0 1.247,0.023 1.372,0.023 0.148,0 0.159,-0.012 0.171,-0.046 z"
             style="fill:#231f20;fill-opacity:1;fill-rule:nonzero;stroke:none"
             id="path154"
             inkscape:connector-curvature="0" />
        </g>
        <g
           id="g156"
           transform="translate(164.6457,667.8764)">
          <path
             d="m 0,0 c 0.193,0.022 0.499,0.057 0.67,0.113 0.238,0.057 0.419,0.159 0.465,0.443 0.011,0.113 0.124,0.93 0.124,2.393 v 1.168 c 0,1.997 0,2.349 -0.045,2.349 H 0.692 c -0.987,0 -1.724,-0.171 -1.872,-0.261 -0.102,-0.069 -0.181,-0.296 -0.374,-0.851 0,-0.034 -0.079,-0.011 -0.148,0.011 -0.112,0.068 -0.226,0.136 -0.26,0.25 0.124,0.352 0.374,0.919 0.68,1.894 0.057,0.023 0.137,0.012 0.239,-0.011 0.09,-0.035 0.09,-0.035 0.102,-0.091 0.045,-0.272 0.079,-0.34 0.17,-0.374 C -0.68,7.01 -0.522,6.987 -0.261,6.976 0.046,6.964 0.931,6.964 1.996,6.964 3.267,6.964 4.05,6.987 4.561,7.021 4.821,7.033 4.98,7.044 5.082,7.078 5.184,7.1 5.32,7.248 5.388,7.396 5.422,7.452 5.445,7.463 5.479,7.463 5.57,7.463 5.638,7.43 5.751,7.384 5.797,7.361 5.808,7.327 5.774,7.225 5.558,6.59 5.547,6.33 5.49,5.49 5.49,5.433 5.468,5.399 5.354,5.399 5.252,5.399 5.184,5.41 5.128,5.433 5.07,5.445 5.037,5.49 5.037,5.524 5.037,5.569 5.06,5.989 5.06,6.125 5.06,6.238 5.014,6.295 4.889,6.363 4.787,6.42 4.141,6.466 3.381,6.466 H 2.961 C 2.836,6.466 2.734,6.374 2.734,6.25 2.734,6.046 2.711,5.433 2.711,4.015 V 2.847 C 2.711,1.373 2.756,0.816 2.79,0.635 2.836,0.453 2.915,0.272 3.086,0.193 3.245,0.124 3.743,0.045 4.016,0.022 4.095,0.022 4.106,0 4.084,-0.079 L 4.039,-0.318 C 4.027,-0.363 4.016,-0.386 3.857,-0.386 c -0.374,0 -1.157,0.034 -1.724,0.034 -0.828,0 -1.849,-0.045 -1.94,-0.045 -0.08,0 -0.125,0.034 -0.136,0.091 z"
             style="fill:#231f20;fill-opacity:1;fill-rule:nonzero;stroke:none"
             id="path158"
             inkscape:connector-curvature="0" />
        </g>
        <g
           id="g160"
           transform="translate(174.6482,674.7843)">
          <path
             d="m 0,0 c 0,-0.136 -0.023,-0.306 -0.068,-0.329 -0.147,-0.023 -0.272,-0.057 -0.397,-0.08 -0.136,-0.033 -0.181,-0.079 -0.068,-0.283 0.42,-0.749 1.146,-1.792 1.293,-2.042 0.068,-0.113 0.136,-0.193 0.205,-0.272 0.033,-0.034 0.147,-0.057 0.192,0.012 0.692,1.054 0.976,1.531 1.124,1.792 0.102,0.181 0.238,0.476 0.238,0.601 0,0.136 -0.284,0.17 -0.737,0.238 l -0.058,0.261 c -0.022,0.125 0.046,0.159 0.068,0.159 0.136,0 0.954,-0.023 1.384,-0.012 0.443,0.012 0.817,0.034 0.998,0.034 0.114,0 0.136,0 0.171,-0.045 C 4.356,-0.011 4.379,-0.273 4.322,-0.329 3.732,-0.397 3.551,-0.533 3.165,-1.021 2.541,-1.815 1.917,-2.734 1.486,-3.426 1.316,-3.698 1.259,-3.8 1.259,-4.083 v -0.953 c 0,-0.398 0.023,-0.84 0.057,-1.225 0.045,-0.534 0.102,-0.523 1.179,-0.659 0,-0.102 -0.045,-0.249 -0.09,-0.351 -0.022,-0.034 -0.057,-0.045 -0.204,-0.045 -0.261,0 -1.032,0.056 -1.837,0.056 -0.443,0 -1.26,-0.034 -1.441,-0.034 -0.08,0 -0.103,0 -0.114,0.045 -0.022,0.046 -0.079,0.239 -0.079,0.296 0,0.045 0.034,0.045 0.09,0.056 0.534,0.057 0.738,0.136 0.84,0.273 0.113,0.124 0.159,0.419 0.159,1.236 v 1.305 c 0,0.169 -0.023,0.328 -0.182,0.589 -1.168,1.872 -1.758,2.825 -1.95,3.029 -0.08,0.068 -0.205,0.091 -0.545,0.079 -0.057,0 -0.068,0.012 -0.08,0.057 -0.011,0.079 -0.011,0.261 0,0.329 0.012,0.057 0.023,0.079 0.057,0.079 0.647,0 1.135,-0.022 1.44,-0.022 0.375,0 0.647,0.011 0.931,0.033 0.227,0.023 0.351,0.023 0.442,0.023 0.057,0 0.068,0 0.068,-0.102 z"
             style="fill:#231f20;fill-opacity:1;fill-rule:nonzero;stroke:none"
             id="path162"
             inkscape:connector-curvature="0" />
        </g>
        <g
           id="g164"
           transform="translate(183.3794,671.1317)">
          <path
             d="m 0,0 c 0,0.794 0.193,1.781 0.919,2.586 0.601,0.67 1.542,1.01 2.382,1.191 0.51,0.114 0.997,0.136 1.462,0.136 0.511,0 1.056,-0.068 1.283,-0.158 0.102,-0.034 0.34,0.068 0.42,0.102 C 6.511,3.868 6.568,3.868 6.737,3.8 6.829,3.777 6.829,3.743 6.817,3.698 6.59,3.085 6.578,2.541 6.624,1.769 6.624,1.747 6.59,1.724 6.466,1.724 6.261,1.713 6.194,1.758 6.171,1.815 6.136,1.94 6.011,2.291 5.921,2.495 5.841,2.689 5.785,2.847 5.581,3.029 5.376,3.221 4.843,3.46 4.276,3.46 3.641,3.46 2.949,3.165 2.45,2.53 1.882,1.815 1.69,0.896 1.69,0 c 0,-1.293 0.703,-3.301 2.768,-3.301 0.76,0 1.338,0.522 1.656,0.885 0.216,0.261 0.328,0.544 0.408,0.692 0.012,0.022 0.056,0.045 0.181,-0.068 0.136,-0.08 0.159,-0.113 0.148,-0.216 C 6.737,-2.677 6.488,-3.244 6.33,-3.505 6.25,-3.607 6.216,-3.607 6.091,-3.618 5.762,-3.618 5.15,-3.812 4.344,-3.812 1.213,-3.812 0,-1.769 0,-0.011 Z"
             style="fill:#231f20;fill-opacity:1;fill-rule:nonzero;stroke:none"
             id="path166"
             inkscape:connector-curvature="0" />
        </g>
        <g
           id="g168"
           transform="translate(195.6613,674.6138)">
          <path
             d="m 0,0 c -0.578,0 -1.112,-0.295 -1.498,-0.771 -0.498,-0.624 -0.669,-1.407 -0.669,-2.45 0,-1.1 0.375,-2.053 0.896,-2.632 0.658,-0.737 1.26,-0.975 1.929,-0.975 0.896,0 1.928,1.1 1.928,3.096 0,1.032 -0.181,2.121 -0.862,2.893 C 1.361,-0.431 0.76,0 0.011,0 Z m 0.284,0.431 c 2.109,0 3.97,-1.622 3.97,-3.686 0,-1.396 -0.613,-2.439 -1.339,-3.052 C 2.076,-7.033 1.1,-7.294 0.511,-7.294 c -1.293,0 -2.587,0.488 -3.392,1.396 -0.568,0.635 -0.965,1.644 -0.965,2.564 0,0.975 0.409,1.95 1.214,2.676 0.772,0.715 1.86,1.089 2.904,1.089 z"
             style="fill:#231f20;fill-opacity:1;fill-rule:nonzero;stroke:none"
             id="path170"
             inkscape:connector-curvature="0" />
        </g>
        <g
           id="g172"
           transform="translate(207.206,669.4871)">
          <path
             d="M 0,0 C 0.057,0 0.238,-0.068 0.318,-0.102 0.352,-0.125 0.397,-0.193 0.375,-0.25 0.193,-0.84 0.091,-1.327 0,-1.781 c -0.023,-0.148 -0.079,-0.182 -0.204,-0.204 -0.102,-0.011 -0.238,-0.011 -0.715,-0.011 -0.454,0 -0.998,0.033 -3.028,0.033 -0.692,0 -1.283,-0.056 -1.531,-0.079 -0.08,0 -0.137,0 -0.159,0.023 -0.035,0.09 -0.08,0.295 -0.058,0.363 0.489,0.09 0.84,0.227 0.897,0.533 0.034,0.216 0.068,0.544 0.068,1.611 v 2.234 c 0,0.953 -0.045,1.554 -0.102,1.918 -0.034,0.204 -0.125,0.271 -0.907,0.249 -0.023,0 -0.069,0.068 -0.035,0.181 l 0.079,0.238 c 0.012,0.046 0.023,0.046 0.046,0.046 0.431,-0.011 0.874,-0.023 1.327,-0.011 0.715,0.011 1.418,0.045 1.951,0.079 C -2.314,5.41 -2.268,5.07 -2.28,5.014 -2.688,4.934 -3.21,4.889 -3.278,4.503 -3.335,4.197 -3.357,3.732 -3.346,2.541 l 0.011,-1.418 c 0.012,-1.634 0.022,-1.997 0.045,-2.212 0.012,-0.216 0.057,-0.284 0.238,-0.34 0.182,-0.057 0.34,-0.08 0.851,-0.08 0.783,0 1.487,0.102 1.827,0.692 0.091,0.148 0.17,0.375 0.249,0.738 C -0.102,-0.012 -0.079,0 -0.011,0 Z"
             style="fill:#231f20;fill-opacity:1;fill-rule:nonzero;stroke:none"
             id="path174"
             inkscape:connector-curvature="0" />
        </g>
        <g
           id="g176"
           transform="translate(214.6557,669.4871)">
          <path
             d="M 0,0 C 0.057,0 0.238,-0.068 0.318,-0.102 0.352,-0.125 0.397,-0.193 0.374,-0.25 0.193,-0.84 0.091,-1.327 0,-1.781 c -0.023,-0.148 -0.079,-0.182 -0.204,-0.204 -0.102,-0.011 -0.238,-0.011 -0.715,-0.011 -0.453,0 -0.998,0.033 -3.028,0.033 -0.692,0 -1.282,-0.056 -1.531,-0.079 -0.08,0 -0.137,0 -0.159,0.023 -0.035,0.09 -0.08,0.295 -0.058,0.363 0.489,0.09 0.84,0.227 0.897,0.533 0.034,0.216 0.069,0.544 0.069,1.611 v 2.234 c 0,0.953 -0.046,1.554 -0.103,1.918 -0.034,0.204 -0.125,0.271 -0.907,0.249 -0.023,0 -0.068,0.068 -0.035,0.181 l 0.079,0.238 c 0.012,0.046 0.023,0.046 0.046,0.046 0.431,-0.011 0.874,-0.023 1.327,-0.011 0.715,0.011 1.418,0.045 1.952,0.079 C -2.314,5.41 -2.268,5.07 -2.28,5.014 -2.688,4.934 -3.21,4.889 -3.278,4.503 -3.335,4.197 -3.357,3.732 -3.346,2.541 l 0.011,-1.418 c 0.012,-1.634 0.023,-1.997 0.046,-2.212 0.011,-0.216 0.056,-0.284 0.238,-0.34 0.181,-0.057 0.341,-0.08 0.85,-0.08 0.783,0 1.487,0.102 1.827,0.692 0.091,0.148 0.17,0.375 0.249,0.738 C -0.102,-0.012 -0.079,0 -0.011,0 Z"
             style="fill:#231f20;fill-opacity:1;fill-rule:nonzero;stroke:none"
             id="path178"
             inkscape:connector-curvature="0" />
        </g>
        <g
           id="g180"
           transform="translate(219.3946,671.4491)">
          <path
             d="M 0,0 C 0.5,0 0.794,0.012 1.021,0.023 1.622,0.057 1.736,0.193 1.962,0.794 1.997,0.851 2.246,0.885 2.405,0.851 2.371,0.567 2.315,-0.022 2.315,-0.42 2.325,-0.862 2.337,-1.066 2.382,-1.463 2.337,-1.474 2.235,-1.497 2.121,-1.497 2.03,-1.509 1.974,-1.486 1.94,-1.429 1.906,-1.327 1.815,-1.055 1.758,-0.93 c -0.079,0.25 -0.272,0.385 -0.657,0.408 -0.295,0.023 -0.556,0.023 -1.044,0.023 -0.34,0 -0.454,-0.011 -0.521,-0.023 -0.058,-0.011 -0.114,-0.034 -0.126,-0.113 -0.034,-0.079 -0.079,-0.647 -0.079,-1.543 0,-0.703 0,-0.896 0.091,-1.021 0.158,-0.227 0.794,-0.249 1.259,-0.249 1.089,0 1.792,0.204 2.201,1.474 0.044,0.035 0.283,0.012 0.34,0 0.034,0 0.034,0 0.034,-0.09 -0.023,-0.67 -0.228,-1.509 -0.386,-1.804 -0.034,-0.068 -0.068,-0.09 -0.125,-0.09 -0.079,0 -0.17,0 -0.522,0.011 -0.317,0.011 -1.077,0.022 -2.064,0.022 -1.157,0 -2.212,-0.045 -3.04,-0.068 -0.057,0.023 -0.045,0.227 -0.023,0.318 0.012,0.057 0.023,0.068 0.057,0.08 0.545,0.124 0.658,0.158 0.669,0.385 0.011,0.147 0.08,0.942 0.08,1.974 v 2.575 c 0,0.975 -0.057,1.27 -0.08,1.338 C -2.189,2.768 -2.2,2.87 -2.314,2.893 -2.427,2.916 -2.597,2.961 -2.972,3.04 -3.006,3.052 -3.017,3.052 -3.006,3.108 l 0.034,0.25 c 0,0.046 0,0.068 0.068,0.068 h 0.363 c 0.352,0 0.885,-0.034 1.747,-0.034 h 0.931 c 0.964,0 1.61,0.068 2.313,0.068 0.148,0 0.227,-0.012 0.273,-0.056 C 2.757,3.358 2.814,3.29 2.78,3.097 2.655,2.451 2.655,1.952 2.655,1.6 2.28,1.589 2.258,1.622 2.235,1.702 1.917,2.609 1.702,2.916 1.135,2.916 H 0.646 c -0.668,0 -0.964,-0.023 -1.1,-0.034 -0.204,-0.012 -0.215,-0.239 -0.215,-0.375 0,-0.805 0,-1.531 0.011,-2.28 C -0.658,0.079 -0.612,0 -0.544,0 Z"
             style="fill:#231f20;fill-opacity:1;fill-rule:nonzero;stroke:none"
             id="path182"
             inkscape:connector-curvature="0" />
        </g>
        <g
           id="g184"
           transform="translate(224.2021,671.2338)">
          <path
             d="m 0,0 c 0,1.168 0.442,2.03 1.089,2.632 0.544,0.499 1.1,0.76 1.882,0.964 0.67,0.182 1.305,0.204 1.725,0.204 0.43,0 1.168,-0.079 1.531,-0.181 0.091,-0.023 0.148,-0.046 0.17,0 l 0.114,0.17 c 0.011,0.045 0.033,0.056 0.09,0.045 L 6.851,3.778 C 6.897,3.766 6.919,3.755 6.919,3.675 6.941,3.006 7.055,2.212 7.112,1.985 7.135,1.838 7.135,1.736 7.112,1.724 7.078,1.702 7.055,1.69 6.885,1.69 H 6.829 C 6.749,1.69 6.715,1.724 6.646,1.838 6.159,2.689 5.308,3.335 4.208,3.335 3.629,3.335 3.176,3.154 2.756,2.734 2.223,2.223 1.678,1.327 1.678,-0.034 c 0,-0.771 0.216,-1.758 0.965,-2.484 0.726,-0.692 1.485,-0.885 1.917,-0.885 0.238,0 0.556,0.113 0.76,0.261 0.227,0.159 0.329,0.612 0.329,1.475 0,0.964 -0.023,1.191 -0.431,1.281 -0.102,0.023 -0.545,0.102 -0.647,0.136 -0.079,0.023 -0.158,0.068 -0.182,0.102 -0.033,0.046 -0.045,0.102 -0.056,0.227 0,0.034 0.023,0.08 0.113,0.08 0.828,0 1.52,-0.046 2.098,-0.046 0.557,0 0.897,0.035 1.112,0.046 0.034,-0.08 0.012,-0.341 0,-0.488 C 7.543,-0.352 7.304,-0.386 7.202,-0.409 7.169,-0.533 7.135,-1.395 7.123,-3.188 c 0,-0.271 -0.068,-0.351 -0.182,-0.453 -0.09,-0.091 -0.26,-0.102 -0.305,-0.102 -0.25,0 -0.42,0 -0.897,-0.035 C 5.354,-3.811 4.991,-3.845 4.56,-3.845 3.108,-3.845 1.905,-3.471 1.111,-2.711 0.476,-2.121 0,-1.202 0,-0.011 Z"
             style="fill:#231f20;fill-opacity:1;fill-rule:nonzero;stroke:none"
             id="path186"
             inkscape:connector-curvature="0" />
        </g>
        <g
           id="g188"
           transform="translate(236.53,671.4491)">
          <path
             d="M 0,0 C 0.499,0 0.794,0.012 1.021,0.023 1.622,0.057 1.735,0.193 1.962,0.794 1.996,0.851 2.246,0.885 2.404,0.851 2.371,0.567 2.314,-0.022 2.314,-0.42 2.325,-0.862 2.337,-1.066 2.381,-1.463 2.337,-1.474 2.235,-1.497 2.121,-1.497 2.03,-1.509 1.974,-1.486 1.939,-1.429 1.905,-1.327 1.815,-1.055 1.758,-0.93 1.678,-0.68 1.486,-0.545 1.1,-0.522 c -0.295,0.023 -0.556,0.023 -1.043,0.023 -0.34,0 -0.455,-0.011 -0.522,-0.023 -0.057,-0.011 -0.114,-0.034 -0.125,-0.113 -0.034,-0.079 -0.079,-0.647 -0.079,-1.543 0,-0.703 0,-0.896 0.09,-1.021 0.159,-0.227 0.794,-0.249 1.259,-0.249 1.09,0 1.793,0.204 2.201,1.474 0.045,0.035 0.283,0.012 0.34,0 0.034,0 0.034,0 0.034,-0.09 -0.022,-0.67 -0.227,-1.509 -0.385,-1.804 -0.034,-0.068 -0.068,-0.09 -0.126,-0.09 -0.078,0 -0.169,0 -0.521,0.011 -0.318,0.011 -1.078,0.022 -2.064,0.022 -1.158,0 -2.213,-0.045 -3.041,-0.068 -0.056,0.023 -0.044,0.227 -0.022,0.318 0.011,0.057 0.022,0.068 0.057,0.08 0.544,0.124 0.657,0.158 0.669,0.385 0.011,0.147 0.079,0.942 0.079,1.974 v 2.575 c 0,0.975 -0.057,1.27 -0.079,1.338 C -2.19,2.768 -2.201,2.87 -2.315,2.893 -2.427,2.916 -2.598,2.961 -2.972,3.04 -3.006,3.052 -3.018,3.052 -3.006,3.108 l 0.034,0.25 c 0,0.046 0,0.068 0.068,0.068 h 0.363 c 0.351,0 0.885,-0.034 1.747,-0.034 h 0.93 C 1.1,3.392 1.747,3.46 2.45,3.46 2.598,3.46 2.677,3.448 2.722,3.404 2.756,3.358 2.813,3.29 2.779,3.097 2.654,2.451 2.654,1.952 2.654,1.6 2.279,1.589 2.257,1.622 2.235,1.702 1.916,2.609 1.701,2.916 1.134,2.916 H 0.646 c -0.669,0 -0.964,-0.023 -1.1,-0.034 -0.204,-0.012 -0.215,-0.239 -0.215,-0.375 0,-0.805 0,-1.531 0.011,-2.28 C -0.658,0.079 -0.613,0 -0.545,0 Z"
             style="fill:#231f20;fill-opacity:1;fill-rule:nonzero;stroke:none"
             id="path190"
             inkscape:connector-curvature="0" />
        </g>
      </g>
    </g>
  </g>
</svg>
