<?xml version="1.0" encoding="UTF-8" standalone="no"?>
<svg height="158.72122" viewBox="0 0 620.00002 158.72122" width="620" xmlns="http://www.w3.org/2000/svg" xmlns:xlink="http://www.w3.org/1999/xlink">
   <clipPath id="a">
      <path d="m0 0h6023v1541.9h-6023z"/>
   </clipPath>
   <g clip-path="url(#a)" transform="matrix(.10293873 0 0 -.10293873 0 158.72123)">
      <path d="m1007 342.4h-1007l18.5-72 988.5-270.4v.4-.4l988.6 270.3 18.4 72.1z" fill="#656263" fill-rule="evenodd"/>
      <path d="m1664.3 428.7v653.7c-32.7 0-60-12.1-70.4-34.7-7.2-15.6-5-56-5-56v-563zm-1315.8 653.7v-653.7h75.2v563c0 0 2 40.4-5.2 56-10.3 22.6-37.4 34.7-70 34.7" fill="#820b27" fill-rule="evenodd"/>
      <path d="m160.3 534v451.8c0 0 .8 40.5-6.1 54-8 15.7-24.3 24.1-45.8 26.5h-2.2l3.4 84.8 447 38.2a54.9 54.9 0 0 0 54.9-54.8l-.1-.3v-705.5h75.4l-.2 791.3c0 69.5 160.3 118.2 320.4 118.2 160 0 319-48.7 319-118.2h-.2v-791.2h75.6v705.8a54.9 54.9 0 0 0 54.9 54.9h-.1l449.6-38.3 3.4-84.8h-3.6c-22.1-.4-39.8-11.3-47.8-27-7-13.6-6.2-54-6.2-54v-98.5l.1-340.7c0-64.8 52.6-117.4 117.5-117.4h35.2l-40.7 851.6c0 0-420.7 261.6-957 261.6-536.3 0-953.1-261.4-953.1-261.4l-44-852h33.9c60.8 0 110.7 46.2 116.8 105.4" fill="#820b27" fill-rule="evenodd"/>
      <path d="m1007 428.7h130.8v134.8l-.8 514.5a117.4 117.4 0 0 1-116.6 104.2h-28.2a117.4 117.4 0 0 1-116.7-104.2c-.3-174.4-.8-481.1-.8-594.5v-54.7h132.3" fill="#820b27" fill-rule="evenodd"/>
      <path d="m2389.3 1214.5c-16.5 28.6-36.3 45.1-71.5 45.1-36.8 0-68.6-26.4-68.6-64.3 0-35.7 36.8-52.2 64.8-64.8l27.5-12c53.8-23.7 99.4-50.6 99.4-116.6 0-72.5-58.2-128-130.2-128-66.5 0-116 42.9-129.1 107.2l45 12.6c6-42.3 38.5-77 83-77 44.5 0 85.2 34.1 85.2 80.8 0 48.4-38 64.9-76.4 82.4l-25.3 11c-48.3 22-90.1 46.7-90.1 106 0 64.3 54.4 105.6 116 105.6 46 0 85.1-23.7 107-64.3l-36.7-23.6m276.8-7.2l-70.9-166h140.2zm-89.5-208.8l-50-117.6h-50.6l191.2 434.1 186.3-434h-51.1l-49 117.5zm621.9 206.1c-33 34-78.6 55-126.4 55-92.3 0-167-80.3-167-171.5 0-91.2 75.2-171.4 168.1-171.4 46.7 0 92.3 22 125.3 54.9v-57.1a213.5 213.5 0 0 0-123.7-40.7c-117 0-215.9 95-215.9 212.7a216.7 216.7 0 0 0 216 215.9c46.1 0 86.8-13.2 123.6-40.7zm130.1-101.2h14.3c52.2 0 105 10 105 74.2 0 68.2-50 74.8-105.5 74.8h-13.8zm0-222.5h-46.1v414.3h59.9c78.5 0 151.6-20.9 151.6-114.3 0-63.7-40-108.8-103.9-114.3l132-185.7h-56.7l-125.2 182h-11.6zm420.3 326.4l-70.9-166h140.1zm-89.6-208.8l-50-117.6h-50.5l191.2 434.1 186.2-434h-51l-49 117.5zm414.7 320.4l150.6-347.8 151.1 347.7 84-437.9h-47.2l-53.3 280.3h-1l-133.7-297.3-133 297.3h-1l-53.2-280.3h-47.3zm477.5-23.7h214.8v-42.8h-168.7v-123.1h163.7v-42.8h-163.7v-162.7h168.7v-42.9h-214.8zm313.1 17.7l323-338.6v321h46.2v-433l-323 337.9v-319.3h-46.2zm593.3-432h-46.1v371.5h-100v42.8h247.2v-42.8h-101.1zm179.6 207.2c0-93.4 75.8-171.4 169.8-171.4 94 0 169.8 78 169.8 171.4 0 94-74.8 171.4-169.8 171.4-95 0-169.8-77.5-169.8-171.4zm385.7-.5c0-119.3-97.8-213.8-216-213.8-118 0-215.8 94.5-215.8 213.8a216 216 0 0 0 215.9 214.8 216 216 0 0 0  216-214.8m-3534.9-407.4c-33 34-78.5 55-126.3 55-92.3 0-167-80.3-167-171.5 0-91.2 75.2-171.4 168-171.4 46.8 0 92.4 22 125.3 55v-57.2a213.3 213.3 0 0 0-123.6-40.7c-117 0-215.9 95-215.9 212.7 0 118.6 97.2 215.9 216 215.9a200 200 0 0 0 123.5-40.7zm93.3-323.6h46.1v414.2h-46.1zm267.2 0h-46.2v371.3h-100v42.8h247.3v-42.8h-101.1zm147.1 414.3h53.3l105.4-184.7 105.6 184.7h53.3l-135.7-236.2v-178h-46.1v178l-135.8 236.1m830-90.6c-32.9 34-78.5 55-126.3 55-92.3 0-167-80.3-167-171.5 0-91.2 75.3-171.4 168.1-171.4 46.7 0 92.3 22 125.3 55v-57.2a213.3 213.3 0 0 0-123.6-40.7c-117 0-216 95-216 212.7 0 118.6 97.3 215.9 216 215.9a200 200 0 0 0 123.6-40.7v-57.1m105.4-116.5c0-93.4 75.8-171.4 169.8-171.4 94 0 169.8 78 169.8 171.4 0 94-74.7 171.4-169.8 171.4-95 0-169.8-77.4-169.8-171.4zm385.7-.6c0-119.2-97.8-213.7-215.9-213.7-118.1 0-216 94.5-216 213.7a216 216 0 0 0 216 214.9 216 216 0 0 0  216-214.9m132.8-163.7h114.3v-42.8h-160.4v414.2h46.1zm274.2 0h114.2v-42.8h-160.4v414.2h46.1v-371.4m206 371.5h214.9v-43h-168.7v-123h163.6v-42.8h-163.7v-162.7h168.7v-42.8h-214.9v414.2m702.9-205.9c1-56.1-5-102.3-43-146.3-37.9-44-95.6-69.2-153.2-69.2a214.8 214.8 0 0 0-213.2 213.2 215.8 215.8 0 0 0  216 215.4c72.4 0 131.2-32.5 175.2-89.6l-33.5-31.3c-34.6 48.9-81.3 78-142.3 78-94.5 0-169.3-79.6-169.3-173 0-44 17.6-85.8 48.4-117 30.2-30.3 74.2-52.8 117.5-52.8 72 0 147.9 52.7 147.9 129.6h-123.1v43h172.5m100.5 206h214.8v-43h-168.6v-123h163.7v-42.8h-163.8v-162.7h168.7v-42.8h-214.8v414.2m-625.8-512.9h87.4v-18h-67v-45h65.2v-18.3h-65.2v-60.5h67.1v-18.1h-87.4v160m193.3-30.4a28 28 0 0 1-26 15.1c-13 0-27.3-8.7-27.3-22.7 0-12.5 12.6-19 22.7-23l11.7-4.4c23-8.9 40.3-21.4 40.3-48.1 0-29.1-22.8-50-52-50a50.4 50.4 0 0 0-50.3 44.9l20.5 4.2c-.2-17.6 14-30.3 31.5-30.3 17.5 0 30 14.4 30 31.2 0 17.1-14 24.6-28 30.3l-11.3 4.7c-18.5 7.8-35.4 18.3-35.4 40.5 0 25.9 23.4 41.4 48 41.4 18.1 0 33-8.7 41.9-24.2l-16.2-9.6m100.4-129.7h-20.3v142h-38.7v18h97.6v-18.2h-38.6zm76.5 9c0-6.8-5.7-12.3-12.6-12.3-7 0-12.5 5.5-12.5 12.3 0 6.6 5.6 12.3 12.5 12.3 6.9 0 12.5-5.7 12.5-12.3m70.9 132.9l11.2 18.1h36.4v-160h-19.4v141.8h-28.3m175.1-29.7a35 35 0 0 1-33.3 33.6c-19.4 0-35.8-15.3-35.8-33.6 0-19 17.7-33.5 34.5-33.5a33.7 33.7 0 0 1 34.6 33.5zm-68.5-105.4l43.4 57.5-.4.4a35 35 0 0 0-15.8-3c-27 0-47.2 23.8-47.2 49.3a53.2 53.2 0 0 0 53.7 52.6c28 0 54.2-23 54.2-51.1 0-16-8.2-29.8-17.7-42.3l-55.5-73.4-14.6 10m110 135.2l11.2 18.2h36.5v-160.1h-19.4v141.8h-28.3m176.8-94.6a35 35 0 0 1-34.6 34.4c-17.7 0-34.5-16-34.5-33.3 0-18.5 16-33.8 34.5-33.8 18.1 0 34.6 14.9 34.6 32.7zm-.7 106.5l-43.4-57.7.5-.4a36.2 36.2 0 0 0 16 3.8c26.7 0 47-24.4 47-50a53.1 53.1 0 0 0-53.8-52.7c-28 0-54.2 23-54.2 51.1 0 16.2 8.3 29.7 17.8 42.3l55.4 73.4z" fill="#231f20"/>
   </g>
</svg>
