<?xml version="1.0" encoding="utf-8"?>
<!-- Generator: Adobe Illustrator 22.0.1, SVG Export Plug-In . SVG Version: 6.00 Build 0)  -->
<svg version="1.1" id="Layer_1" xmlns="http://www.w3.org/2000/svg" xmlns:xlink="http://www.w3.org/1999/xlink" x="0px" y="0px"
	 width="300.1px" height="58.58px" viewBox="0 0 300.1 58.58" style="enable-background:new 0 0 300.1 58.58;" xml:space="preserve"
	>
<path d="M58.28,26.22c-1.24,0.79-3.08,1.4-5.49,1.4c-2.56,0-3.57-0.41-5.34-0.89c-0.38-0.09-0.64-0.22-0.64-0.76
	c0-0.32-0.04-1.68-0.04-2.06c0-0.44,0.15-1.9,0.64-1.9c0.53,0,0.23,0.95,0.64,1.81c0.6,1.24,1.8,2.54,5.26,2.54
	c2.86,0,4.78-1.27,4.78-4c0-1.65-1.35-2.98-3.53-4.19l-4.02-2.19c-2.59-1.43-3.72-3.81-3.72-6.09c0-3.55,3.08-5.52,7.78-5.52
	c1.99,0,3.87,0.51,4.4,0.51c0.79,0,0.86-0.22,1.35-0.22c0.3,0-0.08,0.73-0.08,1.08c0,0.38,0.04,1.3,0.04,1.68
	c0,0.19-0.08,1.4-0.19,1.78c-0.08,0.35-0.08,0.54-0.41,0.54c-0.6,0-0.34-1.11-0.53-1.65c-0.15-0.44-0.64-1.11-1.2-1.49
	c-0.71-0.54-1.8-1.01-3.8-1.01c-1.77,0-4.1,0.98-4.1,3.43c0,1.87,0.98,2.92,3.31,4.12l3.05,1.55c2.59,1.33,5.04,3.17,5.04,6.22
	C61.47,22.7,60.76,24.69,58.28,26.22 M73.59,18.75c0.06,0.15,0.24,0.54,0.24,0.69c0,0.25-0.61,0.2-0.79,0.2h-4.48
	c-0.21,0-0.36,0.05-0.36-0.18c0-0.08,0.15-0.38,0.36-0.82c1.03-1.97,2.03-4.16,2.33-4.75c0.06-0.1,0.03-0.2,0.18-0.2
	c0.15,0,0.24,0.33,0.3,0.43L73.59,18.75 M83.15,26.95c0-0.46-1.61-0.49-1.97-0.89c-0.33-0.38-0.7-0.79-0.91-1.23L72.62,8.85
	c-0.06-0.15-0.24-0.46-0.48-0.46c-0.21,0-0.3,0.2-0.36,0.33l-7.84,16.32c-0.42,0.87-0.88,1.43-2.03,1.61
	c-0.18,0.03-0.82,0-0.82,0.26c0,0.33,0.51,0.28,0.76,0.28c0.97,0,1.85-0.08,2.82-0.08c0.85,0,1.67,0.08,2.51,0.08
	c0.27,0,0.55,0.03,0.55-0.31c0-0.25-1-0.31-1.24-0.36c-0.39-0.1-0.97-0.18-0.97-0.64c0-0.41,0.24-1.23,0.42-1.61l1.21-2.66
	c0.33-0.77,0.58-0.77,1.45-0.77h5.39c0.76,0,0.88,0.59,1.21,1.28l1.15,2.4c0.18,0.36,0.27,0.95,0.27,1.38c0,1-1.63,0.56-1.63,1.07
	c0,0.23,0.54,0.2,0.7,0.2c1.33,0,2.91-0.08,4.24-0.08c0.85,0,1.73,0.08,2.57,0.08C82.67,27.18,83.15,27.18,83.15,26.95z M104.5,9.82
	c0.61-0.33,1.67-0.18,1.67-0.51c0-0.28-0.67-0.2-0.85-0.2c-0.36,0-1.7,0.13-2.48,0.13c-0.79,0-2.06-0.1-2.36-0.1
	c-0.42,0-0.64,0.05-0.64,0.23c0,0.36,1.24,0,1.79,0.64c0.33,0.38,0.48,1.74,0.48,3.17v8.3c0,0.54-0.21,0.56-0.33,0.46
	c0,0-4.18-3.29-7.14-5.95c-4.15-3.73-7.39-6.26-7.39-6.26c-0.48-0.41-1.15-0.92-1.45-0.92c-0.24,0-0.33,0-0.33,1.38v13.74
	c0,1.02-0.21,2.04-1.03,2.58c-0.54,0.36-1.27,0.23-1.27,0.48c0,0.2,0.09,0.23,0.45,0.23c0.3,0,2.06-0.1,2.85-0.1
	c0.79,0,2.45,0.1,3,0.1c0.64,0,0.76-0.05,0.76-0.28c0-0.31-1.27-0.13-1.94-0.56c-0.58-0.38-0.82-1.4-0.82-2.37v-6.44
	c0-1.1-0.03-2.35,0.03-2.96c0.03-0.28,0.09-0.33,0.15-0.33c0.21,0,0.48,0.18,0.7,0.38c0,0,4.84,4.03,5.93,5.03
	c1.15,1.07,7.96,6.92,7.96,6.92c0.67,0.59,1.06,1.02,1.42,1.02c0.42,0,0.33-0.82,0.33-1.35V13.01
	C103.98,11.5,104.13,10.02,104.5,9.82 M126.59,5.89c6.88,0,10.75,4.63,10.75,10.53c0,7.2-4.06,9.48-8.95,9.48
	c-3.99,0-3.76-0.48-4.55-0.95c-0.45-0.25-0.6-2.66-0.6-3.81V7.12c0-0.86,0.49-1.24,1.43-1.24C124.67,5.89,125.69,5.89,126.59,5.89
	 M141.63,15.53c0-4.76-3.01-8.09-6.2-9.55c-1.99-0.92-4.93-1.3-7.11-1.3c-3.87,0-5.83,0.22-8.08,0.22c-0.98,0-2.97-0.13-3.65-0.13
	c-0.75,0-1.05,0.22-1.05,0.35c0,0.22,0.15,0.29,0.49,0.29c1.81,0,2.93,0.29,2.93,2.31v14.4c0,1.49-0.15,3.04-0.53,3.77
	c-0.26,0.48-0.6,0.54-1.05,0.6c-0.45,0.06-1.35,0.13-1.35,0.35c0,0.22,0.19,0.38,0.75,0.38c0.75,0,1.54-0.13,3.61-0.13
	c2.33,0,4.85,0.25,7.75,0.25c5,0,8.54-1.49,10.94-4.31C140.65,21.14,141.63,18.67,141.63,15.53z M151.06,27.2
	c0.21,0,0.45-0.08,0.45-0.25c0-0.1-0.15-0.2-0.39-0.23c-0.51-0.08-0.94-0.1-1.15-0.23c-1-0.61-0.91-1.53-0.91-4.9v-9.91
	c0-0.51,0-1.53,0.67-1.86c0.51-0.26,1.3-0.28,1.3-0.49c0-0.13-0.12-0.28-0.73-0.28c-0.45,0-2.21,0.18-3,0.18
	c-0.79,0-3.09-0.1-3.27-0.1c-0.24,0-0.67,0.1-0.67,0.23c0,0.26,0.85,0.15,1.57,0.49c0.51,0.23,0.67,1.07,0.67,1.76v12.31
	c0,1.4-0.15,2.02-0.55,2.4c-0.27,0.26-0.6,0.33-0.97,0.33c-0.3,0-0.55,0.18-0.55,0.26c0,0.15,0.15,0.31,0.55,0.31
	c0.27,0,1.21-0.1,3.24-0.1C148.76,27.1,150.82,27.2,151.06,27.2 M165.29,11.99c0.18,0,0.18-0.2,0.18-0.46c0-0.61-0.09-1.2-0.09-1.81
	c0-0.18,0.15-0.66-0.18-0.66c-0.55,0-1.06,0.05-1.6,0.05c-1.24,0-1.3,0.05-2.54,0.08c-1.51,0.03-3.06,0.05-4.57,0.05
	c-0.82,0-1.63-0.1-2.45-0.1c-0.18,0-0.67,0-0.67,0.23c0,0.28,1.18,0.2,1.67,0.51c0.39,0.26,0.51,1.79,0.51,2.2v8.66
	c0,0.92,0,4.54-0.39,5.36c-0.36,0.77-1.94,0.43-1.94,0.84c0,0.31,0.76,0.28,1,0.28c1,0,2-0.1,3-0.1c2.42,0,3.6,0.08,6.03,0.08
	c0.27,0,0.7-0.08,0.88-0.23c0.09-0.08,0.21-0.41,0.42-0.84c0.27-0.56,0.61-1.28,0.61-1.53c0-0.13,0-0.33-0.21-0.33
	c-0.18,0-0.48,0.64-0.51,0.72c-0.27,0.41-0.64,0.74-1.18,0.92c-0.79,0.23-1.09,0.28-1.91,0.28c-0.79,0-1.39,0-1.97-0.46
	c-0.36-0.28-0.36-0.59-0.36-1v-6.15c0-0.23,0-0.33,0.3-0.33h2.72c0.39,0,1.03-0.03,1.33,0.2c0.67,0.54,0.39,1.33,0.82,1.33
	c0.3,0,0.24-0.41,0.24-0.56c0-0.64-0.06-1.02-0.06-1.66c0-0.46,0.18-0.89,0.18-1.35c0-0.31-0.03-0.82-0.33-0.82
	c-0.24,0-0.3,0.51-0.3,0.56c-0.09,0.33-0.15,0.69-0.48,0.92c-0.33,0.23-1.03,0.26-1.45,0.26h-2.45c-0.45,0-0.51,0-0.51-0.38v-6.15
	c0-0.49,0.15-0.49,0.7-0.49h2.06c0.55,0,1.36,0.03,1.91,0.15c0.6,0.15,1,0.56,1.24,1.02C164.99,11.42,164.93,11.99,165.29,11.99
	 M186.83,18.88c0.45-0.28,1.12-0.31,1.12-0.48c0-0.26-0.3-0.31-0.48-0.31c-0.18,0-2.21,0.18-3.06,0.18c-1.42,0-2.97-0.18-3.3-0.18
	c-0.42,0-0.58,0.08-0.58,0.28c0,0.26,0.54,0.05,1.66,0.77c0.3,0.2,0.36,0.87,0.36,1.25v2.73c0,1.33-0.03,2.2-0.82,2.66
	c-0.58,0.33-1.91,0.77-2.91,0.77c-5.21,0-7.84-3.04-7.84-9.81c0-3.88,2.21-6.89,6.69-6.89c3.75,0,6.63,1.33,7.3,1.91
	c0.51,0.46,0.48,1.1,0.48,1.23c0,0.33,0.18,0.64,0.36,0.64c0.27,0,0.27-0.31,0.36-0.74c0.12-0.66,0.06-0.97,0.15-1.79
	c0.09-0.97,0.21-1.3,0.21-1.41c0-0.13,0.03-0.31-0.18-0.31c-0.24,0-0.21,0.36-1.03,0.36c-0.91,0-3.21-0.92-7.39-0.92
	c-1.67,0-3.18,0.23-4.42,0.66c-4.39,1.53-6.24,5.24-6.24,8.32c0,4.29,1.69,6.84,4.78,8.35c2.09,1.02,3.97,1.35,6.75,1.35
	c3.91,0,6.24-0.82,6.99-1.2c0.27-0.13,0.27-0.41,0.27-0.71c0-0.26,0-1.23,0-2.04v-1.97C186.1,20.52,186.19,19.26,186.83,18.88
	 M199.57,9.82c5.12,0,7.21,5.54,7.21,9.91c0,3.5-1.67,6.79-6.06,6.79c-4.78,0-7.36-3.98-7.36-9.17
	C193.36,14.36,194.36,9.82,199.57,9.82 M210.47,17.81c0-3.73-2.54-7.2-6.84-8.48c-1.36-0.41-2.75-0.51-4.06-0.51
	c-4.87,0-8.54,2.96-9.66,6.77c-0.27,0.92-0.33,1.84-0.33,2.73c0,5.44,4.36,9.19,10.84,9.19C207.29,27.51,210.47,22.94,210.47,17.81z
	 M230.93,26.22c2.48-1.52,3.2-3.52,3.2-5.33c0-3.04-2.44-4.88-5.04-6.22l-3.05-1.55c-2.33-1.21-3.31-2.25-3.31-4.12
	c0-2.44,2.33-3.43,4.1-3.43c1.99,0,3.08,0.48,3.8,1.01c0.56,0.38,1.05,1.05,1.2,1.49c0.19,0.54-0.07,1.65,0.53,1.65
	c0.34,0,0.34-0.19,0.41-0.54c0.11-0.38,0.19-1.59,0.19-1.78c0-0.38-0.04-1.3-0.04-1.68c0-0.35,0.38-1.08,0.07-1.08
	c-0.49,0-0.56,0.22-1.35,0.22c-0.53,0-2.41-0.51-4.4-0.51c-4.7,0-7.78,1.97-7.78,5.52c0,2.28,1.13,4.66,3.72,6.09l4.02,2.19
	c2.18,1.21,3.53,2.54,3.53,4.19c0,2.73-1.92,4-4.78,4c-3.46,0-4.66-1.3-5.26-2.54c-0.41-0.86-0.11-1.81-0.64-1.81
	c-0.49,0-0.64,1.46-0.64,1.9c0,0.38,0.04,1.74,0.04,2.06c0,0.54,0.26,0.67,0.64,0.76c1.77,0.48,2.78,0.89,5.34,0.89
	C227.85,27.61,229.69,27.01,230.93,26.22 M251.76,10.48c0.09-0.43,0.24-0.87,0.24-0.94c0-0.26-0.18-0.41-0.39-0.41
	c-0.06,0-3.06,0.1-4.15,0.1h-7.48c-0.88,0-2.51-0.08-3.18-0.15c-0.45-0.05-0.64-0.23-0.94-0.23c-0.33,0-0.27,0.23-0.45,0.74
	c-0.18,0.51-0.48,1.79-0.48,1.97c0,0.2-0.03,0.56,0.24,0.56c0.36,0,0.15-0.36,0.39-0.56c0.24-0.2,0.61-0.97,1.3-0.97h4.42
	c0.48,0,0.45,0.33,0.45,0.61l0.09,3.09v7.66c0,1.63-0.09,3.78-0.24,4.19c-0.33,0.87-2,0.36-2,0.84c0,0.2,0.36,0.2,0.7,0.2
	c0.24,0,2.69-0.08,3.6-0.08c0.61,0,2.57,0.08,3.09,0.08c0.48,0,0.88,0,0.88-0.26c0-0.31-0.73-0.18-1.09-0.28
	c-0.42-0.1-0.82-0.23-1.06-0.51c-0.54-0.64-0.42-3.6-0.42-5.87v-4.85c0-2.22,0.03-3.93,0.06-4.47c0.03-0.43,0.12-0.36,0.61-0.36
	h2.91c1.63,0,1.94,0.41,2.09,0.56c0.24,0.23,0,1,0.36,1C251.7,12.14,251.61,11.09,251.76,10.48 M262.03,18.75
	c0.06,0.15,0.24,0.54,0.24,0.69c0,0.25-0.61,0.2-0.79,0.2H257c-0.21,0-0.36,0.05-0.36-0.18c0-0.08,0.15-0.38,0.36-0.82
	c1.03-1.97,2.03-4.16,2.33-4.75c0.06-0.1,0.03-0.2,0.18-0.2c0.15,0,0.24,0.33,0.3,0.43L262.03,18.75 M271.59,26.95
	c0-0.46-1.6-0.49-1.97-0.89c-0.33-0.38-0.7-0.79-0.91-1.23l-7.66-15.99c-0.06-0.15-0.24-0.46-0.48-0.46c-0.21,0-0.3,0.2-0.36,0.33
	l-7.84,16.32c-0.42,0.87-0.88,1.43-2.03,1.61c-0.18,0.03-0.82,0-0.82,0.26c0,0.33,0.51,0.28,0.76,0.28c0.97,0,1.85-0.08,2.82-0.08
	c0.85,0,1.67,0.08,2.51,0.08c0.27,0,0.55,0.03,0.55-0.31c0-0.25-1-0.31-1.24-0.36c-0.39-0.1-0.97-0.18-0.97-0.64
	c0-0.41,0.24-1.23,0.42-1.61l1.21-2.66c0.33-0.77,0.58-0.77,1.45-0.77h5.39c0.76,0,0.88,0.59,1.21,1.28l1.15,2.4
	c0.18,0.36,0.27,0.95,0.27,1.38c0,1-1.63,0.56-1.63,1.07c0,0.23,0.54,0.2,0.7,0.2c1.33,0,2.91-0.08,4.24-0.08
	c0.85,0,1.73,0.08,2.57,0.08C271.11,27.18,271.59,27.18,271.59,26.95z M286,10.48c0.09-0.43,0.24-0.87,0.24-0.94
	c0-0.26-0.18-0.41-0.39-0.41c-0.06,0-3.06,0.1-4.15,0.1h-7.48c-0.88,0-2.51-0.08-3.18-0.15c-0.45-0.05-0.64-0.23-0.94-0.23
	c-0.33,0-0.27,0.23-0.45,0.74c-0.18,0.51-0.48,1.79-0.48,1.97c0,0.2-0.03,0.56,0.24,0.56c0.36,0,0.15-0.36,0.39-0.56
	c0.24-0.2,0.61-0.97,1.3-0.97h4.42c0.48,0,0.45,0.33,0.45,0.61l0.09,3.09v7.66c0,1.63-0.09,3.78-0.24,4.19c-0.33,0.87-2,0.36-2,0.84
	c0,0.2,0.36,0.2,0.7,0.2c0.24,0,2.69-0.08,3.6-0.08c0.61,0,2.57,0.08,3.09,0.08c0.48,0,0.88,0,0.88-0.26c0-0.31-0.73-0.18-1.09-0.28
	c-0.42-0.1-0.82-0.23-1.06-0.51c-0.54-0.64-0.42-3.6-0.42-5.87v-4.85c0-2.22,0.03-3.93,0.06-4.47c0.03-0.43,0.12-0.36,0.61-0.36
	h2.91c1.63,0,1.94,0.41,2.09,0.56c0.24,0.23,0,1,0.36,1C285.94,12.14,285.85,11.09,286,10.48 M299.87,11.99
	c0.18,0,0.18-0.2,0.18-0.46c0-0.61-0.09-1.2-0.09-1.81c0-0.18,0.15-0.66-0.18-0.66c-0.55,0-1.06,0.05-1.6,0.05
	c-1.24,0-1.3,0.05-2.54,0.08c-1.51,0.03-3.06,0.05-4.57,0.05c-0.82,0-1.64-0.1-2.45-0.1c-0.18,0-0.67,0-0.67,0.23
	c0,0.28,1.18,0.2,1.67,0.51c0.39,0.26,0.51,1.79,0.51,2.2v8.66c0,0.92,0,4.54-0.39,5.36c-0.36,0.77-1.94,0.43-1.94,0.84
	c0,0.31,0.76,0.28,1,0.28c1,0,2-0.1,3-0.1c2.42,0,3.6,0.08,6.02,0.08c0.27,0,0.7-0.08,0.88-0.23c0.09-0.08,0.21-0.41,0.42-0.84
	c0.27-0.56,0.61-1.28,0.61-1.53c0-0.13,0-0.33-0.21-0.33c-0.18,0-0.48,0.64-0.51,0.72c-0.27,0.41-0.64,0.74-1.18,0.92
	c-0.79,0.23-1.09,0.28-1.91,0.28c-0.79,0-1.39,0-1.97-0.46c-0.36-0.28-0.36-0.59-0.36-1v-6.15c0-0.23,0-0.33,0.3-0.33h2.73
	c0.39,0,1.03-0.03,1.33,0.2c0.67,0.54,0.39,1.33,0.82,1.33c0.3,0,0.24-0.41,0.24-0.56c0-0.64-0.06-1.02-0.06-1.66
	c0-0.46,0.18-0.89,0.18-1.35c0-0.31-0.03-0.82-0.33-0.82c-0.24,0-0.3,0.51-0.3,0.56c-0.09,0.33-0.15,0.69-0.48,0.92
	c-0.33,0.23-1.03,0.26-1.45,0.26h-2.45c-0.45,0-0.51,0-0.51-0.38v-6.15c0-0.49,0.15-0.49,0.7-0.49h2.06c0.55,0,1.36,0.03,1.91,0.15
	c0.61,0.15,1,0.56,1.24,1.02C299.57,11.42,299.51,11.99,299.87,11.99 M71.38,35.18c1.13-0.41,1.54-0.19,1.54-0.51
	c0-0.38-0.56-0.29-0.98-0.29c-0.3,0-1.5,0.13-2.93,0.13c-1.43,0-3.08-0.13-3.46-0.13c-0.53,0-0.83,0.06-0.83,0.32
	c0,0.25,1.39,0.16,2.52,0.89c0.6,0.38,0.94,3.68,0.94,6.63v6.95c0,5.07-2.74,6.69-8.16,6.69c-5.41,0-7.48-3.14-7.48-6.69v-8.05
	c0-5.14,0.41-5.68,1.13-6.03c0.41-0.19,1.28-0.22,1.28-0.41c0-0.25-0.23-0.32-0.75-0.32c-0.38,0-1.77,0.16-3.76,0.16
	c-1.65,0-3.16-0.13-4.06-0.13c-0.56,0-0.68,0.1-0.68,0.38c0,0.16,1.54,0.29,2.11,0.79c0.3,0.29,0.34,2.35,0.34,3.87v10.56
	c0,5.3,4.32,7.23,10.94,7.23c7.14,0,11.09-2.66,11.09-8.82v-8.97C70.17,37.75,69.91,35.72,71.38,35.18 M93.84,39.43
	c0.61-0.33,1.67-0.18,1.67-0.51c0-0.28-0.67-0.2-0.85-0.2c-0.36,0-1.7,0.13-2.48,0.13c-0.79,0-2.06-0.1-2.36-0.1
	c-0.42,0-0.64,0.05-0.64,0.23c0,0.36,1.24,0,1.79,0.64c0.33,0.38,0.48,1.74,0.48,3.17v8.3c0,0.54-0.21,0.56-0.33,0.46
	c0,0-4.18-3.29-7.15-5.95c-4.15-3.73-7.39-6.26-7.39-6.26c-0.48-0.41-1.15-0.92-1.45-0.92c-0.24,0-0.33,0-0.33,1.38v13.74
	c0,1.02-0.21,2.04-1.03,2.58c-0.55,0.36-1.27,0.23-1.27,0.49c0,0.2,0.09,0.23,0.45,0.23c0.3,0,2.06-0.1,2.85-0.1
	c0.79,0,2.45,0.1,3,0.1c0.64,0,0.76-0.05,0.76-0.28c0-0.31-1.27-0.13-1.94-0.56c-0.58-0.38-0.82-1.41-0.82-2.37v-6.43
	c0-1.1-0.03-2.35,0.03-2.96c0.03-0.28,0.09-0.33,0.15-0.33c0.21,0,0.48,0.18,0.7,0.38c0,0,4.84,4.03,5.93,5.03
	c1.15,1.07,7.96,6.92,7.96,6.92c0.67,0.59,1.06,1.02,1.42,1.02c0.42,0,0.33-0.82,0.33-1.35V42.62
	C93.33,41.11,93.48,39.63,93.84,39.43 M105.16,56.82c0.21,0,0.45-0.08,0.45-0.26c0-0.1-0.15-0.2-0.39-0.23
	c-0.51-0.08-0.94-0.1-1.15-0.23c-1-0.61-0.91-1.53-0.91-4.9v-9.91c0-0.51,0-1.53,0.67-1.86c0.52-0.26,1.3-0.28,1.3-0.49
	c0-0.13-0.12-0.28-0.73-0.28c-0.45,0-2.21,0.18-3,0.18c-0.79,0-3.09-0.1-3.27-0.1c-0.24,0-0.67,0.1-0.67,0.23
	c0,0.25,0.85,0.15,1.57,0.49c0.51,0.23,0.67,1.07,0.67,1.76v12.31c0,1.4-0.15,2.02-0.54,2.4c-0.27,0.26-0.61,0.33-0.97,0.33
	c-0.3,0-0.54,0.18-0.54,0.26c0,0.15,0.15,0.31,0.54,0.31c0.27,0,1.21-0.1,3.24-0.1C102.86,56.71,104.92,56.82,105.16,56.82
	 M129.54,39.04c0.03-0.03,0.06-0.05,0.06-0.08c0-0.23-0.48-0.26-0.67-0.26c-0.73,0-1.42,0.13-2.15,0.13c-0.7,0-1.42-0.1-2.12-0.1
	c-0.24,0-0.45-0.03-0.45,0.23c0,0.31,0.97,0.13,0.97,0.92c0,0.41-0.18,0.97-0.36,1.35l-5.48,10.49c-0.06,0.1-0.18,0.31-0.33,0.31
	c-0.18,0-0.33-0.31-0.39-0.41l-5-9.6c-0.24-0.46-0.82-1.84-0.82-2.32c0-0.74,1.09-0.41,1.09-0.77c0-0.2-0.45-0.2-0.61-0.2
	c-0.85,0-1.97,0.1-2.85,0.1c-1.15,0-2.27-0.1-3.42-0.1c-0.18,0-0.85,0-0.85,0.23c0,0.23,0.73,0.25,0.94,0.31
	c1.27,0.26,1.85,1.23,2.33,2.15l8.14,15.47c0.09,0.15,0.21,0.33,0.42,0.33c0.21,0,0.39-0.18,0.48-0.33l7.99-15.19
	c0.36-0.72,0.94-1.81,1.73-2.27C128.87,39.04,129.2,39.2,129.54,39.04 M142.4,41.6c0.18,0,0.18-0.2,0.18-0.46
	c0-0.61-0.09-1.2-0.09-1.81c0-0.18,0.15-0.66-0.18-0.66c-0.55,0-1.06,0.05-1.6,0.05c-1.24,0-1.3,0.05-2.54,0.08
	c-1.51,0.03-3.06,0.05-4.57,0.05c-0.82,0-1.64-0.1-2.45-0.1c-0.18,0-0.67,0-0.67,0.23c0,0.28,1.18,0.2,1.67,0.51
	c0.39,0.26,0.51,1.79,0.51,2.2v8.66c0,0.92,0,4.55-0.39,5.36c-0.36,0.77-1.94,0.43-1.94,0.84c0,0.31,0.76,0.28,1,0.28
	c1,0,2-0.1,3-0.1c2.42,0,3.6,0.08,6.03,0.08c0.27,0,0.7-0.08,0.88-0.23c0.09-0.08,0.21-0.41,0.42-0.84
	c0.27-0.56,0.61-1.28,0.61-1.53c0-0.13,0-0.33-0.21-0.33c-0.18,0-0.48,0.64-0.51,0.71c-0.27,0.41-0.64,0.74-1.18,0.92
	c-0.79,0.23-1.09,0.28-1.91,0.28c-0.79,0-1.39,0-1.97-0.46c-0.36-0.28-0.36-0.59-0.36-1v-6.15c0-0.23,0-0.33,0.3-0.33h2.73
	c0.39,0,1.03-0.03,1.33,0.2c0.67,0.54,0.39,1.33,0.82,1.33c0.3,0,0.24-0.41,0.24-0.56c0-0.64-0.06-1.02-0.06-1.66
	c0-0.46,0.18-0.89,0.18-1.35c0-0.31-0.03-0.82-0.33-0.82c-0.24,0-0.3,0.51-0.3,0.56c-0.09,0.33-0.15,0.69-0.48,0.92
	c-0.33,0.23-1.03,0.26-1.45,0.26h-2.45c-0.45,0-0.51,0-0.51-0.38v-6.15c0-0.48,0.15-0.48,0.7-0.48h2.06c0.55,0,1.36,0.03,1.91,0.15
	c0.61,0.15,1,0.56,1.24,1.02C142.1,41.04,142.04,41.6,142.4,41.6 M152.8,39.86c2.94,0,4.21,2.27,4.21,4.19
	c0,2.58-0.97,3.29-2.27,3.78c-0.18,0.05-0.21,0.15-1.33,0.15h-1.09c-0.33,0-1.09,0.05-1.09-0.25v-6.74c0-0.51,0.15-1.12,0.85-1.12
	C152.07,39.86,152.56,39.86,152.8,39.86 M166.7,56.43c0-0.33-0.7-0.2-1.06-0.25c-1.39-0.2-2.91-1.71-4.33-3.14l-4.45-4.55
	c-0.21-0.23-0.27-0.31-0.12-0.41c0.24-0.15,3.69-1.63,3.69-4.93c0-2.89-3.21-4.49-6.93-4.49c-1.24,0-2.54,0.18-4.06,0.18
	c-1.6,0-3.15-0.1-3.45-0.1c-0.45,0-0.51,0.1-0.51,0.28c0,0.28,1,0.13,1.85,0.66c0.24,0.15,0.45,0.77,0.45,1.28v13.15
	c0,0.97-0.12,1.71-0.82,1.99c-0.48,0.2-1.18,0.28-1.18,0.49c0,0.2,0.55,0.23,0.91,0.23c0.3,0,2.24-0.1,3.09-0.1
	c0.85,0,2.91,0.1,3.21,0.1c0.42,0,0.64-0.1,0.64-0.28c0-0.2-0.85-0.2-1.21-0.36c-0.27-0.13-0.54-0.18-0.7-0.48
	c-0.18-0.31-0.48-1.17-0.48-3.06v-3.4c0-0.15,0.09-0.2,0.27-0.2h1.15c1.18,0,1.51,1.12,2.33,2.04l3.51,3.86
	c1.24,1.35,3.15,1.84,5.15,1.84h1.94C165.94,56.77,166.7,56.74,166.7,56.43z M176.75,56c2-1.23,2.57-2.83,2.57-4.29
	c0-2.45-1.97-3.93-4.06-5l-2.45-1.25c-1.88-0.97-2.66-1.81-2.66-3.32c0-1.97,1.88-2.76,3.3-2.76c1.6,0,2.48,0.38,3.06,0.82
	c0.45,0.31,0.85,0.84,0.97,1.2c0.15,0.43-0.06,1.33,0.42,1.33c0.27,0,0.27-0.15,0.33-0.43c0.09-0.31,0.15-1.28,0.15-1.43
	c0-0.31-0.03-1.05-0.03-1.35c0-0.28,0.3-0.87,0.06-0.87c-0.39,0-0.45,0.18-1.09,0.18c-0.42,0-1.94-0.41-3.54-0.41
	c-3.78,0-6.27,1.58-6.27,4.44c0,1.84,0.91,3.75,3,4.9l3.24,1.76c1.76,0.97,2.85,2.04,2.85,3.37c0,2.2-1.54,3.22-3.85,3.22
	c-2.79,0-3.75-1.05-4.24-2.04c-0.33-0.69-0.09-1.46-0.51-1.46c-0.39,0-0.52,1.17-0.52,1.53c0,0.31,0.03,1.4,0.03,1.66
	c0,0.43,0.21,0.54,0.51,0.61c1.42,0.38,2.24,0.71,4.3,0.71C174.26,57.12,175.75,56.64,176.75,56 M189.09,56.82
	c0.21,0,0.45-0.08,0.45-0.26c0-0.1-0.15-0.2-0.39-0.23c-0.52-0.08-0.94-0.1-1.15-0.23c-1-0.61-0.91-1.53-0.91-4.9v-9.91
	c0-0.51,0-1.53,0.67-1.86c0.51-0.26,1.3-0.28,1.3-0.49c0-0.13-0.12-0.28-0.73-0.28c-0.45,0-2.21,0.18-3,0.18
	c-0.79,0-3.09-0.1-3.27-0.1c-0.24,0-0.67,0.1-0.67,0.23c0,0.25,0.85,0.15,1.57,0.49c0.51,0.23,0.67,1.07,0.67,1.76v12.31
	c0,1.4-0.15,2.02-0.55,2.4c-0.27,0.26-0.61,0.33-0.97,0.33c-0.3,0-0.54,0.18-0.54,0.26c0,0.15,0.15,0.31,0.54,0.31
	c0.27,0,1.21-0.1,3.24-0.1C186.79,56.71,188.85,56.82,189.09,56.82 M208.16,40.09c0.09-0.43,0.24-0.87,0.24-0.94
	c0-0.26-0.18-0.41-0.39-0.41c-0.06,0-3.06,0.1-4.15,0.1h-7.48c-0.88,0-2.51-0.08-3.18-0.15c-0.45-0.05-0.64-0.23-0.94-0.23
	c-0.33,0-0.27,0.23-0.45,0.74c-0.18,0.51-0.48,1.79-0.48,1.97c0,0.2-0.03,0.56,0.24,0.56c0.36,0,0.15-0.36,0.39-0.56
	c0.24-0.2,0.61-0.97,1.3-0.97h4.42c0.48,0,0.45,0.33,0.45,0.61l0.09,3.09v7.66c0,1.63-0.09,3.78-0.24,4.19c-0.33,0.87-2,0.36-2,0.84
	c0,0.2,0.36,0.2,0.7,0.2c0.24,0,2.7-0.08,3.6-0.08c0.61,0,2.57,0.08,3.09,0.08c0.48,0,0.88,0,0.88-0.26c0-0.31-0.73-0.18-1.09-0.28
	c-0.42-0.1-0.82-0.23-1.06-0.51c-0.55-0.64-0.42-3.6-0.42-5.87v-4.85c0-2.22,0.03-3.93,0.06-4.47c0.03-0.43,0.12-0.36,0.61-0.36
	h2.91c1.63,0,1.94,0.41,2.09,0.56c0.24,0.23,0,1,0.36,1C208.1,41.75,208.01,40.7,208.16,40.09 M231.5,39.15c0.06,0,0.45,0,0.45-0.13
	c0-0.28-0.51-0.25-0.73-0.25c-0.97,0-1.91,0.08-2.88,0.08c-0.55,0-1.12-0.08-1.67-0.08c-0.24,0-0.76,0-0.76,0.28
	c0,0.2,1.06,0.03,1.06,0.61c0,0.69-0.88,1.91-1.36,2.48l-3.6,4.19c-0.09,0.1-0.21,0.28-0.36,0.28c-0.18,0-0.33-0.18-0.42-0.28
	l-4.63-5.46c-0.3-0.36-0.7-0.92-0.7-1.38c0-0.26,1.09-0.23,1.09-0.43c0-0.31-0.73-0.31-0.94-0.31c-1,0-2.27,0.1-3.27,0.1
	c-0.82,0-1.67-0.1-2.48-0.1c-0.24,0-1.06-0.03-1.06,0.31c0,0.2,1.33,0.33,1.6,0.43c0.58,0.23,1.06,0.84,1.42,1.28l6.18,7.38
	c0.3,0.36,0.36,0.61,0.36,1.05v4.75c0,0.49,0,1.56-0.45,1.91c-0.24,0.18-0.48,0.28-0.79,0.38c-0.21,0.05-0.94,0.08-0.94,0.31
	c0,0.31,0.82,0.26,1.03,0.26c0.97,0,2.09-0.08,3.06-0.08c0.94,0,2.03,0.08,2.97,0.08c0.24,0,1,0.05,1-0.28
	c0-0.28-0.51-0.23-0.73-0.23c-0.42,0-1.06-0.28-1.33-0.56c-0.33-0.33-0.36-0.84-0.36-1.28c0-1.81,0-3.6,0-5.41
	c0-0.38,0.21-1.12,0.48-1.43l5.96-6.79c0.3-0.33,1.3-1.3,1.76-1.46C230.87,39.22,231.11,39.2,231.5,39.15"/>
<g>
	<path style="fill:#FFFFFF;" d="M19.12,0.56C7.34,0.56,0.6,4.69,0.6,4.69l0.04,53.33l36.99-0.02l0-53.46
		C37.62,4.55,30.9,0.56,19.12,0.56z"/>
	<path style="fill:none;stroke:#000000;stroke-width:1.0914;" d="M37.62,58.01L0.64,58.03L0.6,4.69c0,0,6.74-4.14,18.52-4.14
		c11.78,0,18.51,3.99,18.51,3.99L37.62,58.01z"/>
	<path d="M35.76,56.32L2.4,56.33l0-47.13c0,0,5.8-3.67,16.69-3.67c10.89,0,16.66,3.73,16.66,3.73L35.76,56.32"/>
	<path style="fill:#C41230;" d="M35.76,14.84l0.01-9.31c0,0-6.69-3.36-16.67-3.36c-9.98,0-16.7,3.56-16.7,3.56v6.66c0,0,0,0,0,0
		l0.01,0c0,0,1.35-0.08,2.41,1.16c0.43,0.47,0.6,1.19,1.01,1.54c0.53,0.45,0.97,0.48,1.36,0.67c0.24,0.11,1.88,0.67,2.13,2.76
		c0.18-0.88,0.17-1.74,0.16-1.92h0V16.6c0-0.01,0-0.01,0-0.01l0,0v-0.44l-0.27-0.26l0,0c0,0,0.43-0.72,0.65-1.1
		c-0.19-0.05-0.33-0.2-0.33-0.39c0-0.22,0.21-0.4,0.46-0.4c0.25,0,0.46,0.18,0.46,0.4c0,0.18-0.13,0.33-0.32,0.38
		c0.07,0.11,0.15,0.25,0.23,0.39c0.44-0.49,1.54-1.68,1.54-1.68c0.01,0-0.02-1.57-0.01-1.71c-0.03-0.02-0.08-0.07-0.13-0.11
		c-0.17-0.13-0.44-0.35-0.44-0.36c-0.01,0.01,2.24-1.08,2.24-1.08l0.05,0.05c0.06-0.02,1.68,0.45,1.68,0.45
		c6.11,0.24,4.68,12.53,9.42,12.79c1.94-0.68,7.17-2.32,7.17-2.32c0.38-0.04,0.17,0.25,0.17,0.25l-4.43,2.03
		c0.02,0,0.04-0.01,0.06-0.01c0.7-0.14,1.48-0.24,2.07-0.29c2.47-0.31,4.96,0.36,5.69,0.54c0.09,0.03,0.19,0.06,0.33,0.1l0.01-8.98
		L35.76,14.84z"/>
	<path style="fill:#FFFFFF;" d="M35.94,25.08c-0.04-0.08,0.01-0.58-0.09-0.61c-1.43-0.48-1.79-0.51-2.2-0.59
		c-0.2-0.03-0.39-0.06-0.74-0.1c-2.58-0.26-3.76,0.08-3.85,0.07c-0.03,0-1.41,0.23-1.65,0.36c0,0-0.02,10.71-0.02,10.69
		c0.01,0.19,0.51-0.04,0.7,0.41c0.06,0.13,0.07,4.56,0.07,4.56l-0.7,0.22c0,0-0.04,13.16-0.04,13.16s0.42-0.85,1.75-1.36
		c2.28-0.86,3.33-0.19,4.06-0.29c0.72-0.1,0.78-0.53,2.43-1.37c0.05-0.02,0.14-0.06,0.17-0.03c0,0,0-6.41,0-9.46
		C35.82,40.75,35.95,25.09,35.94,25.08z"/>
	<path style="fill:#FFFFFF;" d="M25.02,22.66L25.02,22.66L25.02,22.66c0.01-0.01-0.52-0.88-0.79-1.34c0.22-0.06,0.39-0.25,0.39-0.46
		c0-0.27-0.25-0.49-0.56-0.49c-0.31,0-0.56,0.22-0.56,0.49c0,0.22,0.17,0.41,0.4,0.47c-0.12,0.19-0.27,0.46-0.42,0.7
		c-0.05-0.05-0.1-0.09-0.12-0.12c-0.06-0.06-0.51-0.58-0.82-2.3c0,0.05,0.02-2.29-0.01-2.34c0,0,0.01-0.01,0.02-0.02l0.24-0.23l0,0
		c0-0.01-0.47-0.79-0.72-1.2c0.2-0.06,0.35-0.22,0.35-0.42c0-0.24-0.22-0.44-0.5-0.44c-0.28,0-0.5,0.2-0.5,0.44
		c0,0.2,0.15,0.37,0.36,0.42c-0.09,0.16-0.22,0.36-0.34,0.56c-0.25-0.4-1.58-2.05-1.58-2.5c0.01-0.33-0.02-2.3-0.01-2.31
		c0,0,0.59-0.44,0.58-0.45c0,0-3.21-1.83-3.35-1.79c0,0.01-3.51,0.88-3.53,0.89c0,0.01,0.57,0.5,0.57,0.5
		c0.01,0.15,0.12,2.42-0.05,2.71c-0.14,0.23-0.93,1.37-1.25,1.85c-0.15-0.25-0.34-0.56-0.46-0.77c0.2-0.06,0.35-0.22,0.35-0.42
		c0-0.24-0.22-0.44-0.5-0.44c-0.28,0-0.5,0.2-0.5,0.44c0,0.2,0.15,0.37,0.36,0.42c-0.25,0.41-0.72,1.19-0.71,1.2l0,0l0.3,0.28v0.32
		c-0.01,0.44-0.03,1.01-0.03,1.55c-0.05,0.97-0.46,1.81-0.71,2.21c-0.14-0.23-0.28-0.46-0.38-0.64c0.22-0.06,0.39-0.25,0.39-0.47
		c0-0.27-0.25-0.49-0.56-0.49c-0.31,0-0.56,0.22-0.56,0.49c0,0.22,0.17,0.41,0.4,0.47c-0.19,0.31-0.47,0.78-0.47,0.79
		c0,0,3.07,1,3.49,1.19c0.52,0.44,0.36,0.72,0.23,0.84l-0.01,0c-0.17,0.15-0.53-0.02-0.53-0.02l0.01,0.01
		c-0.16-0.13-0.4-0.21-0.69-0.36c-0.69-0.35-0.3-0.16-1.32-0.53c-0.62-0.18-2.11-0.45-2.38-0.47c-0.78-0.14-1.92-0.24-2.38-0.25
		c-1.22-0.06-2.47-0.09-3.66,0.06c0,0-0.12-0.02-0.14,0.13L2.25,48.72l0.14,0.02c0.17,0.01,0.49-0.03,0.49-0.03s2.13-0.24,3.7,1.82
		c0.2,0.08,1.79-0.99,4.36,1.04c0.15,0.12,0.24,0.24,0.45,0.37c0.21,0.13,0.59,0.14,0.71,0.18c0.31,0.07,0.58,0.11,0.83,0.17
		l0.15-0.15c0.18-2.93-0.34-16.25-0.34-16.25c0,0,0-1.39,0-1.39c0.89-4.43,7.06-4.77,9.48-1.67l0-1.67v-1.56
		c0.02,0.03-2.91-0.29-2.9-0.31c0.02,0.02,3.49-3.72,4.3-4.62c-0.32-0.19-0.34-0.63,1.07-1.12c0,0,0-0.59,0-0.59
		c0,0,0.33-0.31,0.33-0.31S25.02,22.66,25.02,22.66z"/>
	<path style="fill:#D2C694;" d="M26.76,35.84c0-0.22,0.02-0.44,0.12-0.65c0,0-0.1,0.03-0.13,0.04c-0.38,0.14-0.6,0.5-0.59,0.69
		c0,0,0,3.04,0,3.04c0,0,0.61-0.07,0.61-0.08C26.76,38.88,26.76,35.85,26.76,35.84z"/>
	<path style="fill:#D2C694;" d="M27.35,34.87c0.01,0.05,0,0.03,0.02,0.07c0.11,0.12,0.64-0.03,0.69,0.61
		c0.01,0.05,0.06,2.56,0.06,3.33c0,0.05-0.15,0.06-0.3,0.08c-0.21,0.02-0.41,0.05-0.41,0.05c0,5.72-0.05,11.43-0.05,13.72
		c0,0.64,0.03,0.57,0.03,0.57c0.28-0.29,0.37-0.63,1.32-1.19c0.11-0.05,0.24-0.19,1.63-0.55c0-7.61-0.01-27.86,0-27.87
		c-1.28,0.08-2.71,0.4-2.98,0.52C27.37,24.2,27.35,34.87,27.35,34.87"/>
	<path style="fill:#D2C694;" d="M2.88,48.71c0,0,1.72-0.19,3.2,1.26c0,0,0,0,0,0c0-2.54,0-7.97,0-13.47
		c-0.67-0.04-1.12-0.07-1.12-0.07v-3.3c0-0.48,0.42-0.86,0.94-0.86c0.06,0,0.12,0.01,0.18,0.02c0-6.28,0-11.69,0-11.69
		c-2.43-0.09-2.95-0.01-3.7,0.07c0-0.01,0,20.54,0,28.07C2.56,48.75,2.88,48.71,2.88,48.71z"/>
	<path style="fill:#C41230;" d="M22.23,33.66c-0.88-1.46-2.54-2.43-4.48-2.43c-2.46,0-4.53,1.57-5,3.68l0-1.87
		c1-1.57,2.86-2.61,5-2.61c1.79,0,3.39,0.74,4.48,1.92L22.23,33.66"/>
	<path style="fill:#C41230;" d="M13.91,51.58v-5.93h0c0-0.02,0-0.05,0-0.07c0.04-1.44,1.22-2.6,2.68-2.6c1.08,0,2,0.64,2.43,1.55
		v-3.8c-0.74-0.36-1.55-0.58-2.43-0.58c-1.41,0-2.69,0.53-3.67,1.39c-0.04,0.03-0.02,0.06-0.06,0.09v3.95h0l-0.01,6.74l1.06,0v0
		c1.45,0,8.5,0,8.5,0c0,0,0-0.74,0-0.73C22.4,51.58,15.27,51.58,13.91,51.58z"/>
	<path style="fill:#C41230;" d="M25.92,53.08c0,0,0,0.72,0,0.72c0,0-11.27,0.02-11.27,0.01c0,0-0.34-0.54-0.55-0.75
		C14.09,53.07,25.91,53.07,25.92,53.08"/>
	<path style="fill:#D2C694;" d="M12.93,41.53c1.68-1.49,4.07-1.76,6.09-0.78c0.06-3.26-3.1-5.29-6.27-4.87l0.1,5.77
		C12.89,41.63,12.89,41.56,12.93,41.53"/>
	<path d="M9.67,33.65c0,0-0.02,3.35-0.01,3.34c-0.81-0.16-1.85-0.31-1.85-0.31l0-3.2v0c0-0.47,0.42-0.85,0.93-0.85
		C9.26,32.63,9.67,33.18,9.67,33.65L9.67,33.65"/>
	<path d="M6.85,33.31l0,3.24c-1.06-0.07-1.88-0.12-1.88-0.12v-3.29v0c0-0.48,0.42-0.86,0.94-0.86C6.43,32.28,6.85,32.83,6.85,33.31
		L6.85,33.31"/>
	<path d="M21.4,24.1v3.27l-2.86-0.24l0-3.36v-0.05c0.01-0.51,0.64-0.91,1.43-0.91c0.87,0.01,1.43,0.77,1.43,1.27L21.4,24.1"/>
	<path d="M15.8,23.53v3.27l-2.89-0.24l0-3.35v-0.05c0.01-0.51,0.65-0.91,1.44-0.91c0.88,0.01,1.44,0.77,1.44,1.27L15.8,23.53"/>
	<path d="M20.41,18.6v3.03l-2.22-0.22l0-3.11v-0.05c0.01-0.47,0.5-0.85,1.11-0.84c0.68,0.01,1.11,0.71,1.11,1.18L20.41,18.6"/>
	<path d="M18.19,13v2.91l-2.13-0.25l0-2.95v-0.05c0.01-0.45,0.48-0.81,1.07-0.81c0.65,0.01,1.07,0.68,1.07,1.13V13"/>
	<path d="M16.08,18.1v3.08l-2.26-0.22l0-3.16v-0.05c0.01-0.48,0.5-0.86,1.13-0.85c0.69,0.01,1.13,0.72,1.13,1.2V18.1"/>
	<path style="fill:#C41230;" d="M12.34,20.87c1.14,0.58,1.09,0.74,1.18,0.89c0.03,0.1,0.02,0.19,0.01,0.23
		c-1.39-1.57-7.38-2.31-11.13-2.03c0,0,0-1.13,0-1.13c0.18-0.07,0.98-0.34,1.13-0.38c0.22-0.07,0.9-0.28,1.18-0.15
		C5.2,18.36,11.67,20.47,12.34,20.87"/>
</g>
</svg>
