<?xml version="1.0" encoding="utf-8"?>
<!-- Generator: Adobe Illustrator 18.0.0, SVG Export Plug-In . SVG Version: 6.00 Build 0)  -->
<!DOCTYPE svg PUBLIC "-//W3C//DTD SVG 1.1//EN" "http://www.w3.org/Graphics/SVG/1.1/DTD/svg11.dtd">
<svg version="1.1" id="Layer_1" xmlns="http://www.w3.org/2000/svg" xmlns:xlink="http://www.w3.org/1999/xlink" x="0px" y="0px"
	 width="160px" height="44px" viewBox="0 -26 160 44" enable-background="new 0 -26 160 44" xml:space="preserve">
<g>
	<path fill="#A7A7A8" d="M12.4-0.6l-1.7,2.2L8.5,3.5L8.4,3.4L10,1.3L7.1-0.9L5.5-3.1c-0.1-0.1-0.2-0.1-0.3,0L3.6-0.3L2.8-0.1L0,3.6
		C0,3.7,0,3.8,0.1,3.9C1.2,4.7,6.5,8,11.6,8c4.2,0,6.6-1.8,8-4.2l-6.9-4.4C12.6-0.7,12.5-0.6,12.4-0.6z"/>
	<linearGradient id="SVGID_1_" gradientUnits="userSpaceOnUse" x1="4.9717" y1="-0.3841" x2="7.0306" y2="4.0313">
		<stop  offset="0" style="stop-color:#F1F2F2"/>
		<stop  offset="0.1343" style="stop-color:#E3E4E4"/>
		<stop  offset="0.4966" style="stop-color:#C2C3C3"/>
		<stop  offset="0.7982" style="stop-color:#AEAEAF"/>
		<stop  offset="1" style="stop-color:#A7A7A8"/>
	</linearGradient>
	<path fill="url(#SVGID_1_)" d="M5.5-2.7L4.5,1.2L5.4,2L4.1,5.7c1.3,0.6,2.8-1,4-2.5c0.8-1,1.4-1.8,1.4-1.8L6.8-0.7L5.5-2.7z"/>
	
		<linearGradient id="SVGID_2_" gradientUnits="userSpaceOnUse" x1="151.7302" y1="-165.9649" x2="154.5983" y2="-162.0174" gradientTransform="matrix(0.9816 0.1908 -0.1908 0.9816 -166.6343 135.6747)">
		<stop  offset="0" style="stop-color:#F1F2F2"/>
		<stop  offset="3.729860e-03" style="stop-color:#F0F1F1"/>
		<stop  offset="0.2474" style="stop-color:#D1D1D2"/>
		<stop  offset="0.4819" style="stop-color:#BABABB"/>
		<stop  offset="0.7014" style="stop-color:#ACACAD"/>
		<stop  offset="0.8906" style="stop-color:#A7A7A8"/>
	</linearGradient>
	<path fill="url(#SVGID_2_)" d="M12.7-0.2l-0.4,2.5l1.1,1l-0.7,4.3c4.8-0.4,6.4-3.8,6.4-3.8L12.7-0.2z"/>
	<g>
		<path fill="#b62026" d="M11.5-2.1l8.3,5.4C20.2,2.4,20.5,1,20.5,0c0-7.2-12.5-9.3-10.4-12.5c1.8-2.6,5.3,1.4,6.2,2.5
			c0.1,0.1,0.3,0.1,0.4,0l3.7-5c0.1-0.1,0.1-0.3,0-0.4c-1-0.9-5.3-4.7-10.1-4.6c-4.7,0.1-8,4.1-8,8.3C2.3-7.6,7.7-4.6,11.5-2.1z"/>
	</g>
	<g>
		<path fill="#A7A7A8" d="M19.7,6.4v2.1h-0.3V6.4h-0.7V6.1h1.7v0.3H19.7z"/>
		<path fill="#A7A7A8" d="M22.4,8.5V6.8l0,0l-0.2,0.4l-0.4,0.9h-0.3l-0.4-0.9L21,6.8l0,0v1.7h-0.3V6.1H21l0.5,1.1l0.2,0.6h0l0.2-0.6
			l0.5-1.1h0.3v2.4H22.4z"/>
	</g>
</g>
<path fill="#b62026" d="M114.4,2.1v-13l2.8-0.3v10.7h4.2v2.6L114.4,2.1z"/>
<path fill="#b62026" d="M122.7,2.1v-13l2.8-0.3v10.7h4.2v2.6L122.7,2.1z"/>
<path fill="#b62026" d="M147.7-2.7c-0.2,1.8-1.1,2.6-2.5,2.6c-1.5,0-2.4-1-2.4-3.3v-2.5c0-2.2,0.9-3.2,2.4-3.2c1,0,1.8,0.4,2.2,1.4
	l2.6-0.7c-0.7-2.1-2.4-3.2-4.8-3.2c-3.2,0-5,1.9-5,5.6v2.8c0,3.7,1.9,5.6,5,5.6c3.2,0,5.1-1.9,5.1-5.6v-2l-5.1,0l0.3,2.5L147.7-2.7"
	/>
<path fill="#b62026" d="M32.9,2.4c2.9,0,4.9-1.7,4.9-4.1c0-2.6-2.5-3.6-3.9-4l0,0c-0.2-0.1-0.4-0.1-0.6-0.2c-1-0.2-2.2-0.5-2.2-1.6
	c0-1,0.8-1.6,2-1.6c1,0,1.9,0.6,2.5,1C35.8-7.9,36-7.7,36-7.7l1.6-2.1c-0.3-0.2-1.8-1.9-4.4-1.9c-2.9,0-4.8,1.7-4.8,4.1
	c0,1.3,0.7,3,3.8,3.9c0.1,0,0.2,0.1,0.3,0.1C33.6-3.3,35-2.9,35-1.9c0,1-0.8,1.7-2,1.7c-1.2,0-2-0.6-2.5-1.1
	c-0.3-0.3-0.4-0.5-0.4-0.5l-2.4,1.4c0,0,0.3,0.4,0.7,0.8C29.3,1.3,30.8,2.4,32.9,2.4z"/>
<path fill="#b62026" d="M83.1-0.5h-3.9c-0.2,0.9-0.5,1.7-0.7,2.6h-1.7L76,0.8l3.7-11.7l2.8-0.3l4.2,13.3h-3L83.1-0.5z M79.9-3h2.6
	l-1.3-4.6h-0.1L79.9-3z"/>
<path fill="#b62026" d="M39.7,2.1v-13l2.8-0.3V2.1H39.7z"/>
<path fill="#b62026" d="M45.1,2.1v-13.3h7.8v2.6h-5v2.7h4.2v2.5h-4.2v2.8h5v2.6H45.1z"/>
<path fill="#b62026" d="M131.2,2.1v-13.3h7.8v2.6h-5v2.7h4.2v2.5H134v2.8h5v2.6H131.2z"/>
<path fill="#b62026" d="M152.2,2.1v-13.3h7.8v2.6h-5v2.7h4.2v2.5H155v2.8h5v2.6H152.2z"/>
<path fill="#b62026" d="M61.6,1.9C61.2,1.7,61,1.4,61,1.4L58.4-3H58v5.1h-2.8v-13.3h4.6c2.3,0,4.1,1.2,4.1,3.9
	c0,1.5-0.5,2.6-1.5,3.3c-0.1,0.1-0.5,0.5-1,0.6l3.2,5.4c0,0-2.4,0-2.5,0C62,2.1,61.8,2.1,61.6,1.9z M59.8-8.8H58v3.6h1.7
	c0.9,0,1.6-0.5,1.6-1.8C61.3-8.2,60.7-8.8,59.8-8.8z"/>
<path fill="#b62026" d="M72.5,1.9C72.2,1.7,72,1.4,72,1.4L69.4-3h-0.4v5.1h-2.8v-13.3h4.6c2.3,0,4.1,1.2,4.1,3.9
	c0,1.5-0.5,2.6-1.5,3.3c-0.1,0.1-0.5,0.5-1,0.6l3.2,5.4c0,0-2.4,0-2.5,0C73,2.1,72.7,2.1,72.5,1.9z M70.7-8.8h-1.8v3.6h1.7
	c0.9,0,1.6-0.5,1.6-1.8C72.3-8.2,71.6-8.8,70.7-8.8z"/>
<path fill="#b62026" d="M107.8-11.6c-3.2,0-4.8,1.9-4.8,5.6v2.8c0,3.7,1.7,5.6,4.8,5.6c3.2,0,4.9-1.9,4.9-5.6v-2.8
	C112.7-9.7,111-11.6,107.8-11.6z M105.6-5.9c0-2.2,0.7-3.2,2.2-3.2c1.5,0,2.3,1,2.3,3.2v2.5c0,2.3-0.7,3.3-2.3,3.3
	c-1.5,0-2.2-1-2.2-3.3V-5.9z"/>
<path fill="#b62026" d="M99.4-1.4c-0.4,0.9-1.2,1.4-2.2,1.4c-1.5,0-2.4-1-2.4-3.3v-2.5c0-2.2,0.9-3.2,2.4-3.2c1,0,1.8,0.4,2.2,1.4
	l2.6-0.7c-0.7-2.1-2.4-3.2-4.8-3.2c-3.2,0-5,1.9-5,5.6v2.8c0,3.7,1.9,5.6,5,5.6c2.4,0,4.1-1.1,4.8-3.1"/>
</svg>
