<?xml version="1.0" encoding="utf-8"?>
<!-- Generator: Adobe Illustrator 19.0.0, SVG Export Plug-In . SVG Version: 6.00 Build 0)  -->
<svg version="1.1" id="layer" xmlns="http://www.w3.org/2000/svg" xmlns:xlink="http://www.w3.org/1999/xlink" x="0px" y="0px"
	 viewBox="-153 -46 652 652" style="enable-background:new -153 -46 652 652;" xml:space="preserve">
<style type="text/css">
	.st0{fill:#5D6B8B;}
	.st1{fill:none;stroke:#5D6B8B;stroke-width:5.438;stroke-linecap:round;stroke-linejoin:round;}
	.st2{fill:none;stroke:#5D6B8B;stroke-width:5.438;}
	.st3{fill:none;stroke:#5D6B8B;stroke-width:5.3144;}
	.st4{fill:#002F6E;}
	.st5{fill:none;stroke:#FFC52B;stroke-width:5.438;stroke-linecap:round;stroke-linejoin:round;}
	.st6{fill:none;stroke:#FFC52B;stroke-width:5.438;stroke-linejoin:round;}
	.st7{fill:none;stroke:#FFC52B;stroke-width:5.438;}
	.st8{fill:none;stroke:#FFC52B;stroke-width:5.3639;}
	.st9{fill:#FFFFFF;}
	.st10{fill:#005596;}
</style>
<path id="XMLID_51_" class="st0" d="M468.7,257.2c-2-47.1-40-71-97.7-83.9c0,0,8.4-33.2,9.4-39.2c0.3-2-4.9-1.5-8.3-1.5
	s-5.5,12.8-8.2,17.8c-0.8,1.5-9.1,8.6-16.7,18.5c-52.7-8.1-83.6-8.4-151.5-4.4c83.1,7.5,60.4,3.2,141.5,20.4
	c-4,7.9-7.9,21.9-11.1,30.9l-23.4,75.9c-2.6,8.7-3.2,12.8-3.2,17.3c0,6.7,5.4,13.7,13.2,13.7c23.6,0,52.9-26.5,62.6-42.9
	c0.3-4.2-1.4-7-5.7-7.4c-11.5,13.1-25.3,24.6-30.4,24.6c-3.2,0-3.2-2.9-1.8-7.4l28.4-96.9c43.8,14.1,71.5,34.1,66.3,66.3
	c-9.4,58.2-85.6,82.2-218.1,89.8c-132.5,7.6-238.6,4.1-238.6,4.1l-36.9,89.6l261.1-19.8C413,403.6,471.5,321,468.7,257.2"/>
<path id="XMLID_50_" class="st1" d="M468.7,257.2c-2-47.1-40-71-97.7-83.9c0,0,8.4-33.2,9.4-39.2c0.3-2-4.9-1.5-8.3-1.5
	s-5.5,12.8-8.2,17.8c-0.8,1.5-9.1,8.6-16.7,18.5c-52.7-8.1-83.6-8.4-151.5-4.4c83.1,7.5,60.4,3.2,141.5,20.4
	c-4,7.9-7.9,21.9-11.1,30.9l-23.4,75.9c-2.6,8.7-3.2,12.8-3.2,17.3c0,6.7,5.4,13.7,13.2,13.7c23.6,0,52.9-26.5,62.6-42.9
	c0.3-4.2-1.4-7-5.7-7.4c-11.5,13.1-25.3,24.6-30.4,24.6c-3.2,0-3.2-2.9-1.8-7.4l28.4-96.9c43.8,14.1,71.5,34.1,66.3,66.3
	c-9.4,58.2-85.6,82.2-218.1,89.8c-132.5,7.6-238.6,4.1-238.6,4.1l-36.9,89.6l261.1-19.8C413,403.6,471.5,321,468.7,257.2z"/>
<path id="XMLID_49_" class="st0" d="M197.3,126.3c-8,2-12.1,4.2-15,7.5c-4.8,5.2-13.4,15.3-27.4,35.8c-26.4,38.1-88.9,118.9-116,162
	c-2.5,1.6-7,2.6-11.1,2.6c-3.8,0-6.4-1-8.3-2.6c-1-12.4-7.3-61.6-11.1-84.4c-19.1,26.7-51.9,63.6-65.3,86c-2.5,1.6-6.4,2.6-11.1,2.6
	c-3.5,0-5.4-1-8-2.6c-1.3-13.7-5.4-43-8.9-67.5c-5.7-39.1-11.5-77.9-17.5-117c-3.2-19.6-4.5-21.5-14.7-23.1l-7.3-1.6
	c-3.5-3.3-1.6-9.4,1.6-11.1c15,0.6,28,1,39.5,1c13.7,0,32.8-0.3,42.3-1c2.9,1.3,2.9,9.1-0.3,11.1l-5.7,1c-6.7,1-9.3,2.6-9.9,4.9
	c-0.6,2.6,0,10.1,2.2,24.8l8.3,56.7c4.4,29.6,8.6,53.1,11.1,66.5c7.3-10.8,31.8-43.4,40.1-55.7l-11.1-78.2
	c-2.2-16-4.2-17.9-13.7-19.2l-4.4-0.6c-2.5-2.6-1.6-9.8,2.5-11.1c14,0.6,30,1,44,1c11.1,0,22.6-0.3,31.2-1c3.5,1,3.8,9.4,0,11.1
	l-5.7,1.3c-5.7,0.6-10.8,2.2-11.4,4.5c-0.6,2.9-0.6,6.5,0,10.1l3.2,22.5l3.5,23.5L61,159.9c12.4-17.3,19.1-27.7,19.1-29.3
	c0-2.3-1.6-3.2-6.1-4.5l-7.3-2c-2.6-2.9-1.9-10.1,2.5-11.1c12.4,0.6,23.2,1,33.7,1c12.4,0,21.7-0.3,29.3-1c3.8,1.6,2.6,9.1,0,11.4
	l-9.5,2c-11.1,2.3-13.7,3.6-30.6,22.8c-12.4,14.3-38.5,47.9-45.5,59c2.2,16,6.7,46.6,10.5,69.7c28.4-41.1,54.5-79.5,80.5-119.3
	c4.2-5.9,15.9-24.1,16.9-28c0.6-2.3-1-3.9-4.8-4.9l-5.1-1.6c-3.2-2.9-1.6-9.4,2.2-11.1c11.8,0.6,24.2,1,33.4,1
	c11.1,0,20.4-0.3,27.7-1c3.2,1.6,1.9,8.5-1,11.1L197.3,126.3z"/>
<path id="XMLID_48_" class="st2" d="M197.3,126.3c-8,2-12.1,4.2-15,7.5c-4.8,5.2-13.4,15.3-27.4,35.8c-26.4,38.1-88.9,118.9-116,162
	c-2.5,1.6-7,2.6-11.1,2.6c-3.8,0-6.4-1-8.3-2.6c-1-12.4-7.3-61.6-11.1-84.4c-19.1,26.7-51.9,63.6-65.3,86c-2.5,1.6-6.4,2.6-11.1,2.6
	c-3.5,0-5.4-1-8-2.6c-1.3-13.7-5.4-43-8.9-67.5c-5.7-39.1-11.5-77.9-17.5-117c-3.2-19.6-4.5-21.5-14.7-23.1l-7.3-1.6
	c-3.5-3.3-1.6-9.4,1.6-11.1c15,0.6,28,1,39.5,1c13.7,0,32.8-0.3,42.3-1c2.9,1.3,2.9,9.1-0.3,11.1l-5.7,1c-6.7,1-9.3,2.6-9.9,4.9
	c-0.6,2.6,0,10.1,2.2,24.8l8.3,56.7c4.4,29.6,8.6,53.1,11.1,66.5c7.3-10.8,31.8-43.4,40.1-55.7l-11.1-78.2
	c-2.2-16-4.2-17.9-13.7-19.2l-4.4-0.6c-2.5-2.6-1.6-9.8,2.5-11.1c14,0.6,30,1,44,1c11.1,0,22.6-0.3,31.2-1c3.5,1,3.8,9.4,0,11.1
	l-5.7,1.3c-5.7,0.6-10.8,2.2-11.4,4.5c-0.6,2.9-0.6,6.5,0,10.1l3.2,22.5l3.5,23.5L61,159.9c12.4-17.3,19.1-27.7,19.1-29.3
	c0-2.3-1.6-3.2-6.1-4.5l-7.3-2c-2.6-2.9-1.9-10.1,2.5-11.1c12.4,0.6,23.2,1,33.7,1c12.4,0,21.7-0.3,29.3-1c3.8,1.6,2.6,9.1,0,11.4
	l-9.5,2c-11.1,2.3-13.7,3.6-30.6,22.8c-12.4,14.3-38.5,47.9-45.5,59c2.2,16,6.7,46.6,10.5,69.7c28.4-41.1,54.5-79.5,80.5-119.3
	c4.2-5.9,15.9-24.1,16.9-28c0.6-2.3-1-3.9-4.8-4.9l-5.1-1.6c-3.2-2.9-1.6-9.4,2.2-11.1c11.8,0.6,24.2,1,33.4,1
	c11.1,0,20.4-0.3,27.7-1c3.2,1.6,1.9,8.5-1,11.1L197.3,126.3z"/>
<path id="XMLID_45_" class="st0" d="M222.2,216.5c0,32.9-49.1,48.3-72.4,55c-1.2,3.9-1.4,8.7-1.4,15.4c0,8.7,3.7,17.6,12.3,17.6
	c10.4,0,24.1-7.7,37.3-22.4c3.1,0,6,3.2,5.8,7.3c-13.8,24-36.8,38.4-62.7,38.4c-20.7,0-30.7-16.3-30.7-36.8
	c0-28.8,16.1-62.4,38.8-81.6c16.1-13.8,31.6-18.5,45.1-18.5C211,190.9,222.2,202.4,222.2,216.5 M171.9,213.3
	c-10.3,12.5-17.2,32.3-19.8,44.1c10.1-3.2,19-8.6,27.3-18.2c5.7-6.7,10-18.9,10.3-26.9c0-3.5-2-7.3-5.5-7.3
	C180.5,205,176.2,207.9,171.9,213.3"/>
<path id="XMLID_42_" class="st2" d="M222.2,216.5c0,32.9-49.1,48.3-72.4,55c-1.2,3.9-1.4,8.7-1.4,15.4c0,8.7,3.7,17.6,12.3,17.6
	c10.4,0,24.1-7.7,37.3-22.4c3.1,0,6,3.2,5.8,7.3c-13.8,24-36.8,38.4-62.7,38.4c-20.7,0-30.7-16.3-30.7-36.8
	c0-28.8,16.1-62.4,38.8-81.6c16.1-13.8,31.6-18.5,45.1-18.5C211,190.9,222.2,202.4,222.2,216.5z M171.9,213.3
	c-10.3,12.5-17.2,32.3-19.8,44.1c10.1-3.2,19-8.6,27.3-18.2c5.7-6.7,10-18.9,10.3-26.9c0-3.5-2-7.3-5.5-7.3
	C180.5,205,176.2,207.9,171.9,213.3z"/>
<path id="XMLID_41_" class="st0" d="M309.2,217.7c0,11.9-8.9,15.9-13.2,15.9c-2.6,0-4.9-2.1-6.6-4.3c-11.5-14.1-17-17.4-22.7-17.4
	c-4,0-7.5,4-7.5,7.9c0,3.4,1.7,7.7,7.5,13.8l10.9,11.9c10.1,11,14.7,20.5,14.7,31.2c0,12.5-6.4,24.4-17.3,33.9
	c-9.7,8.9-22.1,13.5-35.9,13.5c-13.2,0-28.4-8.6-28.4-23.6c0-9.8,6.6-17.7,14.1-17.7c3.2,0,5.5,3.1,8.9,6.7
	c11.2,12.6,17,15.9,22.7,15.9c5.2,0,9.8-4.3,9.8-8.9c0-4.3-2.6-9.2-8.3-15.6l-9.5-10.7c-8.9-9.8-14.1-19.9-14.1-30.9
	c0-13.2,7.5-25.4,16.1-33.4c8.3-7.3,19-12.8,30.7-12.8C296.6,193.2,309.2,203.9,309.2,217.7"/>
<path id="XMLID_40_" class="st3" d="M309.2,217.7c0,11.9-8.9,15.9-13.2,15.9c-2.6,0-4.9-2.1-6.6-4.3c-11.5-14.1-17-17.4-22.7-17.4
	c-4,0-7.5,4-7.5,7.9c0,3.4,1.7,7.7,7.5,13.8l10.9,11.9c10.1,11,14.7,20.5,14.7,31.2c0,12.5-6.4,24.4-17.3,33.9
	c-9.7,8.9-22.1,13.5-35.9,13.5c-13.2,0-28.4-8.6-28.4-23.6c0-9.8,6.6-17.7,14.1-17.7c3.2,0,5.5,3.1,8.9,6.7
	c11.2,12.6,17,15.9,22.7,15.9c5.2,0,9.8-4.3,9.8-8.9c0-4.3-2.6-9.2-8.3-15.6l-9.5-10.7c-8.9-9.8-14.1-19.9-14.1-30.9
	c0-13.2,7.5-25.4,16.1-33.4c8.3-7.3,19-12.8,30.7-12.8C296.6,193.2,309.2,203.9,309.2,217.7z"/>
<path id="XMLID_39_" class="st4" d="M463.8,251.2c-2-47.1-40-71-97.7-83.9c0,0,8.1-34.3,9.7-40.6c0.3-1-17.2,0-18.2,0.3
	c-3.3,1.1-12.7,25-20.3,34.9c-52.7-8.1-79.1-4.4-147-0.5c0,0,60.8-1.4,139.7,17.4c-3.6,10.7-5.6,21.8-8.8,30.9l-23.4,75.9
	c-2.6,8.7-3.1,12.8-3.1,17.3c0,6.7,5.5,13.7,13.2,13.7c23.6,0,52.9-26.5,62.6-42.9c0.3-4.2-1.4-7-5.7-7.3
	c-11.5,13.1-25.3,24.6-30.5,24.6c-3.2,0-3.2-2.9-1.7-7.4l28.3-96.9c43.9,14.1,75.8,33.5,70.6,65.7c-9.5,58.2-89.9,82.8-222.4,90.4
	c-132.5,7.6-238.6,4.1-238.6,4.1l-36.9,89.6l261.2-19.8C410.3,399.9,466.5,315,463.8,251.2"/>
<path id="XMLID_38_" class="st5" d="M463.8,251.2c-2-47.1-40-71-97.7-83.9c0,0,8.1-34.3,9.7-40.6c0.3-1-17.2,0-18.2,0.3
	c-3.3,1.1-12.7,25-20.3,34.9c-52.7-8.1-79.1-4.4-147-0.5c0,0,60.8-1.4,139.7,17.4c-3.6,10.7-5.6,21.8-8.8,30.9l-23.4,75.9
	c-2.6,8.7-3.1,12.8-3.1,17.3c0,6.7,5.5,13.7,13.2,13.7c23.6,0,52.9-26.5,62.6-42.9c0.3-4.2-1.4-7-5.7-7.3
	c-11.5,13.1-25.3,24.6-30.5,24.6c-3.2,0-3.2-2.9-1.7-7.4l28.3-96.9c43.9,14.1,75.8,33.5,70.6,65.7c-9.5,58.2-89.9,82.8-222.4,90.4
	c-132.5,7.6-238.6,4.1-238.6,4.1l-36.9,89.6l261.2-19.8C410.3,399.9,466.5,315,463.8,251.2z"/>
<path id="XMLID_37_" class="st4" d="M192.3,120.3c-8,2-12.1,4.2-15,7.5c-4.8,5.2-13.3,15.3-27.4,35.8c-26.4,38.1-88.9,118.9-116,162
	c-2.5,1.6-7,2.6-11.1,2.6c-3.8,0-6.4-1-8.3-2.6c-0.9-12.4-7.3-61.6-11.1-84.4c-19.1,26.7-51.9,63.6-65.3,86
	c-2.5,1.6-6.4,2.6-11.1,2.6c-3.5,0-5.4-1-8-2.6c-1.3-13.7-5.4-43-8.9-67.4c-5.7-39.1-11.5-77.9-17.5-117
	c-3.2-19.5-4.4-21.5-14.6-23.1l-7.3-1.6c-3.5-3.3-1.6-9.5,1.6-11.1c15,0.7,28,1,39.5,1c13.7,0,32.8-0.3,42.3-1
	c2.9,1.3,2.9,9.1-0.3,11.1l-5.7,1c-6.7,1-9.2,2.6-9.9,4.9c-0.6,2.6,0,10.1,2.2,24.8l8.3,56.7c4.5,29.7,7.1,50.3,9.7,63.6
	c6-8.7,31.8-38.2,41.6-52.8l-11.1-78.2c-2.2-16-4.1-17.9-13.7-19.2l-4.4-0.6c-2.5-2.6-1.6-9.8,2.5-11.1c14,0.7,30,1,44,1
	c11.1,0,22.6-0.3,31.2-1c3.5,1,3.8,9.5,0,11.1l-5.7,1.3c-5.7,0.7-10.8,2.3-11.5,4.6c-0.6,2.9-0.6,6.5,0,10.1l3.2,22.5l3.5,23.5
	l18.1-26.1c12.4-17.3,19.1-27.7,19.1-29.3c0-2.3-1.6-3.3-6.1-4.5l-7.3-2c-2.6-2.9-1.9-10.1,2.5-11.1c12.4,0.7,23.2,1,33.7,1
	c12.4,0,21.7-0.3,29.3-1c3.8,1.6,2.6,9.1,0,11.4l-9.5,2c-11.1,2.3-13.7,3.6-30.6,22.8c-12.4,14.3-38.5,47.9-45.5,59
	c2.9,21,6.7,47.7,9.7,65.8c28.3-41.1,55.2-75.6,81.3-115.4c4.2-5.9,15.9-24.1,16.9-28c0.6-2.3-1-3.9-4.8-4.9l-5.1-1.6
	c-3.2-2.9-1.6-9.5,2.2-11.1c11.8,0.7,24.2,1,33.4,1c11.1,0,20.4-0.3,27.7-1c3.2,1.6,1.9,8.5-0.9,11.1L192.3,120.3z"/>
<path id="XMLID_36_" class="st6" d="M192.3,120.3c-8,2-12.1,4.2-15,7.5c-4.8,5.2-13.3,15.3-27.4,35.8c-26.4,38.1-88.9,118.9-116,162
	c-2.5,1.6-7,2.6-11.1,2.6c-3.8,0-6.4-1-8.3-2.6c-0.9-12.4-7.3-61.6-11.1-84.4c-19.1,26.7-51.9,63.6-65.3,86
	c-2.5,1.6-6.4,2.6-11.1,2.6c-3.5,0-5.4-1-8-2.6c-1.3-13.7-5.4-43-8.9-67.4c-5.7-39.1-11.5-77.9-17.5-117
	c-3.2-19.5-4.4-21.5-14.6-23.1l-7.3-1.6c-3.5-3.3-1.6-9.5,1.6-11.1c15,0.7,28,1,39.5,1c13.7,0,32.8-0.3,42.3-1
	c2.9,1.3,2.9,9.1-0.3,11.1l-5.7,1c-6.7,1-9.2,2.6-9.9,4.9c-0.6,2.6,0,10.1,2.2,24.8l8.3,56.7c4.5,29.7,7.1,50.3,9.7,63.6
	c6-8.7,31.8-38.2,41.6-52.8l-11.1-78.2c-2.2-16-4.1-17.9-13.7-19.2l-4.4-0.6c-2.5-2.6-1.6-9.8,2.5-11.1c14,0.7,30,1,44,1
	c11.1,0,22.6-0.3,31.2-1c3.5,1,3.8,9.5,0,11.1l-5.7,1.3c-5.7,0.7-10.8,2.3-11.5,4.6c-0.6,2.9-0.6,6.5,0,10.1l3.2,22.5l3.5,23.5
	l18.1-26.1c12.4-17.3,19.1-27.7,19.1-29.3c0-2.3-1.6-3.3-6.1-4.5l-7.3-2c-2.6-2.9-1.9-10.1,2.5-11.1c12.4,0.7,23.2,1,33.7,1
	c12.4,0,21.7-0.3,29.3-1c3.8,1.6,2.6,9.1,0,11.4l-9.5,2c-11.1,2.3-13.7,3.6-30.6,22.8c-12.4,14.3-38.5,47.9-45.5,59
	c2.9,21,6.7,47.7,9.7,65.8c28.3-41.1,55.2-75.6,81.3-115.4c4.2-5.9,15.9-24.1,16.9-28c0.6-2.3-1-3.9-4.8-4.9l-5.1-1.6
	c-3.2-2.9-1.6-9.5,2.2-11.1c11.8,0.7,24.2,1,33.4,1c11.1,0,20.4-0.3,27.7-1c3.2,1.6,1.9,8.5-0.9,11.1L192.3,120.3z"/>
<path id="XMLID_33_" class="st4" d="M217.2,210.5c0,32.9-49.1,48.3-72.4,55c-1.1,3.9-1.4,8.7-1.4,15.4c0,8.6,3.7,17.6,12.3,17.6
	c10.4,0,24.1-7.7,37.3-22.4c3.2,0,6,3.2,5.8,7.3c-13.8,24-36.8,38.4-62.7,38.4c-20.7,0-30.7-16.3-30.7-36.8
	c0-28.8,16.1-62.4,38.8-81.6c16.1-13.8,31.6-18.6,45.1-18.6C206,184.9,217.2,196.5,217.2,210.5 M166.9,207.3
	c-10.4,12.5-17.3,32.3-19.8,44.1c10.1-3.2,19-8.7,27.3-18.2c5.7-6.7,10-18.9,10.3-26.9c0-3.5-2-7.3-5.4-7.3
	C175.5,199,171.2,201.9,166.9,207.3"/>
<path id="XMLID_30_" class="st7" d="M217.2,210.5c0,32.9-49.1,48.3-72.4,55c-1.1,3.9-1.4,8.7-1.4,15.4c0,8.6,3.7,17.6,12.3,17.6
	c10.4,0,24.1-7.7,37.3-22.4c3.2,0,6,3.2,5.8,7.3c-13.8,24-36.8,38.4-62.7,38.4c-20.7,0-30.7-16.3-30.7-36.8
	c0-28.8,16.1-62.4,38.8-81.6c16.1-13.8,31.6-18.6,45.1-18.6C206,184.9,217.2,196.5,217.2,210.5z M166.9,207.3
	c-10.4,12.5-17.3,32.3-19.8,44.1c10.1-3.2,19-8.7,27.3-18.2c5.7-6.7,10-18.9,10.3-26.9c0-3.5-2-7.3-5.4-7.3
	C175.5,199,171.2,201.9,166.9,207.3z"/>
<path id="XMLID_29_" class="st4" d="M304.3,210.1c0,12.1-8.9,16.1-13.2,16.1c-2.6,0-4.9-2.2-6.6-4.4c-11.5-14.3-17-17.7-22.7-17.7
	c-4,0-7.5,4-7.5,8.1c0,3.4,1.7,7.8,7.5,14l10.9,12.1c10.1,11.2,14.7,20.8,14.7,31.7c0,12.7-6.4,24.8-17.2,34.5
	c-9.8,9-22.1,13.6-35.9,13.6c-13.2,0-28.5-8.7-28.5-23.9c0-9.9,6.6-18,14.1-18c3.2,0,5.5,3.1,8.9,6.8c11.2,12.7,17,16.1,22.7,16.1
	c5.2,0,9.8-4.4,9.8-9c0-4.4-2.6-9.3-8.3-15.8l-9.5-10.9c-8.9-9.9-14.1-20.2-14.1-31.4c0-13.3,7.5-25.8,16.1-33.8
	c8.3-7.5,19-13.1,30.7-13.1C291.6,185.3,304.3,196.1,304.3,210.1"/>
<path id="XMLID_28_" class="st8" d="M304.3,210.1c0,12.1-8.9,16.1-13.2,16.1c-2.6,0-4.9-2.2-6.6-4.4c-11.5-14.3-17-17.7-22.7-17.7
	c-4,0-7.5,4-7.5,8.1c0,3.4,1.7,7.8,7.5,14l10.9,12.1c10.1,11.2,14.7,20.8,14.7,31.7c0,12.7-6.4,24.8-17.2,34.5
	c-9.8,9-22.1,13.6-35.9,13.6c-13.2,0-28.5-8.7-28.5-23.9c0-9.9,6.6-18,14.1-18c3.2,0,5.5,3.1,8.9,6.8c11.2,12.7,17,16.1,22.7,16.1
	c5.2,0,9.8-4.4,9.8-9c0-4.4-2.6-9.3-8.3-15.8l-9.5-10.9c-8.9-9.9-14.1-20.2-14.1-31.4c0-13.3,7.5-25.8,16.1-33.8
	c8.3-7.5,19-13.1,30.7-13.1C291.6,185.3,304.3,196.1,304.3,210.1z"/>
<path id="XMLID_3_" class="st9" d="M-14.5,406c3.4,0.2,6.2,0.2,8.5,0c5.3-0.4,10.5-1.5,15.5-3.4l0,0.2c-0.9,4-3.3,6.6-7.1,8.1
	c-3.8,1.4-8.9,2.4-15.4,2.9c-1.1,0.1-2.6,0.1-4.6,0.2c-2,0.1-3.6,0.1-4.6,0.2c-0.5,0-1.2,0.2-2.2,0.4c-1,0.2-1.8,0.4-2.3,0.4
	c-3.5,0.3-4.9-0.5-4.5-2.2c0.4-1.4,1.2-3.1,2.6-5.3c10.6-17.3,16.5-28.9,18.1-35.1c0.3-1.3,0.1-2.4-0.5-3.4c4-1.7,7.8-2.6,11.4-2.8
	c2.9-0.1,4.2,0.6,3.8,2.2c-0.3,1-1.5,3.5-3.7,7.3l-11.9,23.4C-12.8,402.1-13.8,404.3-14.5,406 M44.3,394.4l-1,6.1
	c-1,6.1,0.5,9,4.3,8.7c2.8-0.2,6-1.2,9.5-3c-2.2-2.8-2.5-7.9-1.1-15.2l2.9-14.4c0.2-1,0.5-2.4,1-4.4c0.4-1.9,0.8-3.4,1-4.3
	c0.6-3.1-0.4-4.5-3-4.4c-1.4,0-3.1,0.3-5.2,0.8l-5.2,1.3c-4.6,5.4-8.2,9.5-10.7,12.2c-8.4,9.8-17,19.6-25.7,29.3
	c-1.2,1.3-1.8,2.3-2,3.2c-0.3,1.4,0.7,2,3.1,1.8c2.2-0.2,5.1-0.9,8.7-2.1c0-0.3,0-0.7,0.2-1.1c0.4-1.7,1.7-4.1,3.8-7.1
	c1.7-2.2,3.3-4.3,5-6.5L44.3,394.4z M33.6,390.3c5.7-7.6,11.1-14.4,16.2-20.3l-0.5,2.6c0,0.2-0.1,0.5-0.2,0.8
	c-0.2,1.1-0.6,2.5-1,4.3c-0.6,2.4-1,4.2-1.2,5.1l-0.6,2.9l-0.7,3.8L33.6,390.3 M115.5,394.3c-5.6,3.6-10.2,5.6-14,5.9
	c-4.8,0.4-6.7-2.5-5.7-8.7c1-5.8,3.2-11.3,6.6-16.5c3.3-5.1,7-7.8,11.1-7.9c3.7-0.1,5.9,1.8,6.9,5.7c3.8-2.5,5.8-4.5,6.1-6
	c0.4-2.8-2.8-4-9.6-3.8c-7.7,0.3-14.8,3.6-21.4,10.1c-6.7,6.6-10.9,13.9-12.3,22c-1.5,8.6,2.4,12.5,11.7,11.7
	c3.7-0.3,8.1-1.6,13.1-3.7c4.9-2.1,7.5-4.2,7.9-6.4C115.8,396.4,115.7,395.6,115.5,394.3 M131.4,403.4c7-0.6,13.5-4.3,19.4-11
	c5.8-6.6,9-13.2,9.8-19.9c0.9-7.6-2.3-11.2-9.5-11c-6.4,0.2-12.5,3.6-18.4,10c-6.1,6.6-9.7,13.4-10.7,20.2
	C120.8,400.1,124,404,131.4,403.4 M135.9,398.6c-2.7,0.2-3.8-2.1-3.2-6.7c0.7-5.1,2.6-10.9,5.7-17.2c3-6.2,6.1-9.3,9.2-9.5
	c2.6-0.1,3.6,2,3.1,6.4c-0.6,4.9-2.3,10.6-5.3,16.9C142.3,394.9,139.2,398.3,135.9,398.6 M168.7,393.6c0.3-1.4,0.8-3.3,1.5-5.6
	l6.1-19.3c1.2-3.2,1.8-5.3,1.9-6.1c0.1-1.3-0.8-2-2.9-1.9c-2.5,0.1-5.1,0.8-7.8,2.2c0.6,0.8,0.8,1.8,0.7,2.8
	c-0.5,5.2-3.6,14.8-9.3,29c-0.7,1.8-1.2,3.2-1.3,4.4c-0.2,1.5,1,2.1,3.4,1.9c0.3,0,0.9-0.1,1.5-0.3c0.7-0.2,1.2-0.3,1.5-0.3
	c0.7-0.1,1.8-0.1,3.3-0.1c1.4,0,2.5-0.1,3.2-0.1c4.5-0.4,8-1.1,10.5-2.3c2.5-1.1,4-3.3,4.3-6.6l0-0.2c-3.4,1.5-6.9,2.4-10.7,2.7
	C173.1,393.8,171.1,393.7,168.7,393.6 M199.2,391.1c0.2-1.4,0.7-3.2,1.3-5.4l5.3-18.7c1.1-3.1,1.6-5.1,1.7-6
	c0.1-1.3-0.8-1.9-2.8-1.8c-2.4,0.1-4.8,0.8-7.3,2.2c0.6,0.8,0.8,1.7,0.7,2.7c-0.4,5-3,14.3-8.1,28c-0.6,1.7-1,3.1-1.1,4.2
	c-0.1,1.4,0.9,2,3.2,1.9c0.3,0,0.8-0.1,1.5-0.3c0.6-0.2,1.1-0.3,1.4-0.3c0.7,0,1.7-0.1,3-0.1c1.4,0,2.4-0.1,3-0.1
	c4.2-0.3,7.5-1.1,9.9-2.2c2.3-1.1,3.6-3.2,3.8-6.4v-0.2c-3.2,1.4-6.5,2.3-10,2.5C203.4,391.3,201.5,391.2,199.2,391.1 M225,360.8
	c0.4,0.8,0.6,1.6,0.5,2.3c-0.2,3-2,10.3-5.6,22.3l-1.4,4c-0.5,1.6-0.8,3-0.9,4c-0.1,1.4,0.9,2,3,1.8c0.3,0,0.7-0.1,1.4-0.3
	c0.6-0.2,1-0.3,1.3-0.3c0.6-0.1,1.6-0.1,2.9-0.1c1.3,0,2.2-0.1,2.8-0.1c8-0.6,12.1-3.1,12.2-7.2l0-0.4c-2.7,1.2-5.7,1.9-9,2.1
	c-1.6,0.1-3.3,0.1-5.2-0.1c0.4-2.5,1.3-6.2,2.6-11c0.4,0,1-0.1,1.9-0.1c0.8,0,1.4-0.1,1.8-0.1c4.8-0.3,7.4-2.3,7.9-6.2
	c-2.7,0.9-5.5,1.5-8.5,1.6l-1.9,0.1l2.7-10.4c0.2,0,0.3,0,0.5,0c0.8,0,1.9,0,3.3,0c1.8,0,3,0,3.8-0.1c3.4-0.1,5.6-2,6.5-5.5
	c-2.7,0.6-5.4,1-8,1.1c-0.5,0-1.3,0-2.3,0c-1,0-1.8,0-2.2,0.1C231.3,358.4,227.9,359.3,225,360.8 M270.3,363.6
	c2.5-2.1,3.8-3.9,3.8-5.3c0-2.3-2.5-3.4-7.5-3.2c-5.6,0.2-10.4,3-14.6,8.6c-4.2,5.6-6.5,11.9-6.7,18.7c-0.1,3.2,0.7,5.7,2.4,7.6
	c1.7,1.9,4.1,2.7,7,2.5c2.1-0.2,4.4-0.9,7-2.3c0.8,0,1.4,0,1.9,0c2.7-0.2,4.2-1.7,4.3-4.4c0.6-4.4,1.8-9,3.4-13.7
	c-0.6,0-1.4,0.1-2.6,0.2c-1.2,0.1-2,0.1-2.6,0.2c-3,0.2-5,0.7-5.7,1.6c-0.7,0.9-1.2,2.3-1.5,4.3c1.4-0.7,2.8-1.1,4.2-1.2l0.4,0
	c-0.7,3.5-1.6,6.5-2.6,9c-1.4,0.7-2.5,1.1-3.4,1.1c-2.6,0.2-3.9-2.2-3.8-7.2c0.2-5.1,1.2-9.9,3.2-14.4c1.9-4.5,4.4-6.7,7.3-6.9
	C267.2,358.6,269.2,360.2,270.3,363.6 M278.3,356c0.4,0.7,0.6,1.5,0.6,2.2c0,2.8-1.3,9.8-4,21.2l-1,3.8c-0.4,1.6-0.6,2.8-0.6,3.8
	c0,1.3,0.9,1.9,2.7,1.7c0.3,0,0.7-0.1,1.2-0.3c0.5-0.1,0.9-0.2,1.2-0.2c0.6,0,1.4-0.1,2.5-0.1c1.1,0,2,0,2.5-0.1
	c7-0.6,10.5-2.9,10.5-6.8v-0.4c-2.4,1.1-5,1.7-7.9,2c-1.4,0.1-2.9,0-4.6-0.1c0.3-2.4,1-5.9,1.9-10.4c0.3,0,0.9,0,1.6-0.1
	c0.7,0,1.2-0.1,1.6-0.1c4.2-0.2,6.5-2.2,6.7-5.8c-2.4,0.9-4.8,1.4-7.4,1.5l-1.7,0.1l2-9.9c0.1,0,0.3,0,0.5,0c0.7,0,1.7-0.1,2.9-0.1
	c1.5,0,2.6,0,3.3,0c3-0.1,4.9-1.9,5.6-5.2c-2.4,0.6-4.8,0.9-7,1c-0.5,0-1.2,0-2.1,0.1c-0.9,0-1.6,0-2,0
	C283.8,353.7,280.8,354.5,278.3,356"/>
<path id="XMLID_15_" class="st10" d="M307.8,161.5c0,0-3.3-0.5-39.1-1.9c-35.8-1.4-55.8,1.8-55.8,1.8s36.7,0.7,54.8,3.3
	c18.1,2.6,40.1,6.1,40.1,6.1V161.5z"/>
</svg>
