<?xml version="1.0" encoding="UTF-8"?>
<svg width="150" height="150" version="1.1" viewBox="0 0 39.688 39.688" xmlns="http://www.w3.org/2000/svg">
 <defs>
  <clipPath id="clipPath3369">
   <path d="m554 343.48h172v154.8h-172z"/>
  </clipPath>
 </defs>
 <g transform="translate(-217.91 74.89)">
  <g transform="matrix(.35278 0 0 -.35278 -153.87 148.29)">
   <g transform="matrix(.72675 0 0 .72675 645.01 270.52)" clip-path="url(#clipPath3369)">
    <g transform="translate(571.11 409.1)">
     <path d="m0 0c0.109 0.025 0.185 0 0.211-0.109 0.08-0.352-1.631-0.856-1.153-2.957 0.519-2.278 2.727-2.96 4.761-2.496 0.963 0.219 1.81 0.697 2.466 1.446 0.713 0.817 1.104 1.791 0.854 2.889-0.478 2.102-2.644 1.781-2.727 2.147-0.025 0.108 0.044 0.18 0.142 0.188l1.114 0.183c0.426 0.069 0.45 0.088 0.749-0.286 0.562-0.714 0.925-1.43 1.128-2.324 0.562-2.468-1.038-4.9-3.437-5.446-2.509-0.573-4.886 1.225-5.451 3.708-0.139 0.609-0.193 1.596-0.122 2.224 0.046 0.425 0.235 0.41 0.605 0.538z" fill="#1e3f6a"/>
    </g>
    <g transform="translate(569.85 418.62)">
     <path d="m0 0c-0.745-0.721-1.154-1.669-1.082-2.71 0.074-1.082 0.6-2.05 1.493-2.657 0.835-0.585 1.892-0.749 2.891-0.68 1.041 0.071 2.079 0.395 2.837 1.129 0.759 0.721 1.122 1.723 1.049 2.777-0.073 1.069-0.651 1.977-1.516 2.587-0.878 0.595-1.822 0.739-2.863 0.668-1.068-0.074-2.01-0.362-2.809-1.114m-1.455-2.764c-0.182 2.638 1.499 4.956 4.177 5.141 2.679 0.184 4.676-1.882 4.857-4.518 0.172-2.499-1.665-4.982-4.19-5.155-2.526-0.174-4.673 2.035-4.844 4.532" fill="#1e3f6a"/>
    </g>
    <g transform="translate(575.34 424.68)">
     <path d="m0 0c1.055-0.071 1.557-0.078 1.642 1.171 0.034 0.5-0.061 1.147-0.354 1.558-0.242 0.336-0.739 0.622-1.103 0.8-0.068 0.032-0.175 0.095-0.169 0.179 8e-3 0.124 0.106 0.118 0.203 0.111 0.472-0.032 0.948-0.204 1.432-0.251 0.361-0.038 0.529-0.022 0.504-0.395-0.091-1.333-0.239-2.689-0.33-4.022-0.033-0.472-7e-3 -0.919-0.039-1.392-9e-3 -0.125-0.072-0.232-0.211-0.222-0.18 0.012-0.165 0.234-0.156 0.373 0.065 0.957-0.203 0.906-1.077 0.965l-5.676 0.388c-0.875 0.06-1.134 0.146-1.199-0.825-9e-3 -0.125-0.024-0.347-0.204-0.335-0.154 0.011-0.188 0.111-0.179 0.25 0.036 0.527 0.125 1.024 0.162 1.55 0.036 0.528 0.016 1.06 0.052 1.586 9e-3 0.125 0.058 0.233 0.21 0.223 0.181-0.013 0.165-0.249 0.157-0.374-0.067-0.971 0.202-0.92 1.076-0.979z" fill="#1e3f6a"/>
    </g>
    <g transform="translate(571.9 437.86)">
     <path d="m0 0c-0.914-0.489-1.566-1.29-1.782-2.311-0.224-1.062 0.018-2.137 0.711-2.966 0.644-0.79 1.615-1.237 2.595-1.444 1.021-0.216 2.108-0.189 3.038 0.312 0.928 0.486 1.55 1.35 1.769 2.384 0.221 1.048-0.087 2.081-0.752 2.904-0.682 0.812-1.551 1.208-2.572 1.424-1.047 0.222-2.033 0.202-3.007-0.303m-2.155-2.261c0.546 2.587 2.797 4.358 5.424 3.803 2.627-0.554 3.983-3.088 3.437-5.674-0.517-2.45-2.963-4.337-5.44-3.814-2.478 0.523-3.939 3.235-3.421 5.685" fill="#1e3f6a"/>
    </g>
    <g transform="translate(576.13 443.21)">
     <path d="m0 0c0.325-0.122 0.401 0.355 0.484 0.576 0.225 0.599 0.374 1.152 0.182 1.789-0.164 0.551-0.582 0.902-1.103 1.098-1.198 0.449-2.118-0.022-2.553-1.181-0.372-0.989-0.252-1.064 0.66-1.406zm-2.6-0.197c-0.832 0.313-1.056 0.471-1.398-0.441-0.044-0.117-0.122-0.325-0.279-0.266-0.143 0.053-0.161 0.164-0.107 0.307 0.156 0.417 0.375 0.84 0.532 1.257 0.283 0.755 0.505 1.503 0.784 2.246 0.465 1.237 1.536 2.23 2.903 1.717 1.185-0.446 1.508-1.681 1.246-2.816 0.221 0.393 0.75 0.417 1.157 0.472l2.428 0.292c0.543 0.063 1.111 0.072 1.326 0.645 0.039 0.104 0.128 0.338 0.31 0.27 0.13-0.049 0.094-0.184 0.055-0.288l-0.518-1.38c-0.098-0.261-0.375-0.245-0.61-0.276l-3.018-0.323c-1.087-0.126-1.186-0.074-1.558-1.063-0.039-0.104-0.096-0.217-0.043-0.311 0.063-0.113 0.38-0.217 0.497-0.261l2.005-0.753c0.833-0.313 1.048-0.453 1.398 0.44 0.044 0.117 0.115 0.344 0.284 0.28 0.143-0.054 0.13-0.168 0.086-0.285-0.186-0.495-0.414-0.944-0.6-1.439-0.185-0.495-0.319-1.009-0.505-1.503-0.044-0.118-0.11-0.212-0.253-0.158-0.17 0.063-0.078 0.267-0.034 0.384 0.343 0.911 0.057 0.944-0.762 1.252z" fill="#1e3f6a"/>
    </g>
    <g transform="translate(580.4 450.8)">
     <path d="m0 0c0.03-0.033 0.09-0.096 0.127-0.116 0.122-0.066 0.285 0.352 0.311 0.401l0.76 1.408c0.04 0.073 0.229 0.335 0.094 0.408-0.049 0.026-0.291 0.046-0.316 0.059l-2.53 0.291c-0.062 1e-3 -0.434 0.075-0.473 2e-3 -0.053-0.098 0.207-0.348 0.255-0.406zm1.579-1.848c0.156-0.179 0.36-0.416 0.581-0.535 0.404-0.218 0.731 0.301 0.883 0.582 0.06 0.111 0.16 0.325 0.331 0.233 0.147-0.079 0.055-0.251-0.011-0.373-0.186-0.343-0.42-0.66-0.605-1.002-0.184-0.343-0.321-0.712-0.506-1.055-0.066-0.123-0.164-0.481-0.372-0.368-0.172 0.092-0.046 0.325 0.014 0.435 0.118 0.221 0.219 0.466 0.134 0.718-0.086 0.252-0.529 0.776-0.716 0.987l-4.858 5.673c-0.078 0.09-0.229 0.218-0.157 0.353 0.053 0.098 0.239 0.061 0.325 0.046l7.48-0.844c0.583-0.061 1.405-0.237 1.729 0.363 0.067 0.122 0.192 0.355 0.375 0.256 0.111-0.06 0.057-0.189 0.024-0.249-0.291-0.538-0.63-1.05-0.921-1.59-0.238-0.44-0.441-0.932-0.685-1.386-0.04-0.073-0.118-0.188-0.228-0.129-0.184 0.099-0.058 0.331 8e-3 0.454 0.172 0.318 0.423 0.783 0.056 0.981-0.172 0.093-0.5 0.128-0.692 0.153l-1.142 0.111c-0.763 0.079-0.717 0.165-1.034-0.423l-0.899-1.665c-0.264-0.489-0.176-0.442 0.166-0.864z" fill="#1e3f6a"/>
    </g>
    <g transform="translate(586.85 457.55)">
     <path d="m0 0c0.987-0.746 1.388-0.701 2.117 0.265 0.704 0.931 1.122 1.853 0.935 3.057-0.18 1.078-0.823 2.07-1.689 2.724-2.062 1.559-4.478 1.155-5.996-0.853-0.176-0.233-0.572-0.804-0.532-1.096 0.032-0.234 0.384-0.483 0.562-0.617zm-5.043 2.436c-0.333 0.251-0.738 0.662-1.065 0.229-0.176-0.233-0.213-0.536-0.296-0.647-0.06-0.077-0.149-0.08-0.215-0.029-0.399 0.301 1.539 3.142 1.874 3.585 0.771 1.021 1.77 1.834 3.02 2.197 1.269 0.365 2.687 0.165 3.752-0.64 1.02-0.772 1.669-1.942 1.764-3.199 0.092-1.377-0.457-2.496-1.27-3.57-0.621-0.821-1.286-1.609-1.889-2.408-0.184-0.244-0.308-0.499-0.484-0.733-0.076-0.099-0.187-0.155-0.298-0.071-0.144 0.109 0.012 0.27 0.096 0.381 0.587 0.776 0.301 0.905-0.409 1.442z" fill="#1e3f6a"/>
    </g>
    <g transform="translate(593.55 473.22)">
     <path d="m0 0c-1.03 0.118-2.022-0.169-2.78-0.885-0.788-0.746-1.201-1.767-1.104-2.842 0.08-1.015 0.625-1.936 1.312-2.664 0.717-0.759 1.624-1.355 2.674-1.473 1.039-0.128 2.043 0.227 2.811 0.954 0.779 0.735 1.113 1.759 1.035 2.813-0.099 1.056-0.587 1.877-1.303 2.635-0.736 0.778-1.557 1.323-2.645 1.462m-3.058-0.632c1.921 1.815 4.779 1.99 6.623 0.039 1.843-1.951 1.516-4.805-0.404-6.62-1.82-1.72-4.905-1.878-6.643-0.038s-1.396 4.9 0.424 6.619" fill="#1e3f6a"/>
    </g>
    <g transform="translate(607.65 482.49)">
     <path d="m0 0c0.057-0.096 0.055-0.178-0.04-0.233-0.312-0.184-1.309 1.295-3.169 0.204-2.015-1.183-1.996-3.494-0.94-5.293 0.5-0.852 1.212-1.514 2.124-1.914 0.995-0.432 2.042-0.511 3.013 0.059 1.859 1.091 0.898 3.059 1.221 3.249 0.096 0.056 0.186 0.012 0.224-0.079l0.51-1.007c0.194-0.385 0.22-0.402-0.046-0.8-0.511-0.751-1.084-1.314-1.875-1.779-2.183-1.281-4.985-0.49-6.232 1.632-1.302 2.22-0.306 5.029 1.889 6.317 0.539 0.317 1.463 0.666 2.085 0.789 0.418 0.084 0.461-0.1 0.694-0.415z" fill="#1e3f6a"/>
    </g>
    <g transform="translate(613.52 479.2)">
     <path d="m0 0c0.33-0.827 0.371-1.08 1.268-0.737 0.116 0.046 0.331 0.147 0.398-0.022 0.057-0.142-0.037-0.208-0.153-0.255-0.49-0.196-0.977-0.33-1.468-0.526s-0.961-0.444-1.452-0.639c-0.116-0.047-0.23-0.062-0.287 0.08-0.067 0.168 0.145 0.237 0.261 0.284 0.905 0.361 0.737 0.594 0.412 1.408l-2.114 5.298c-0.325 0.814-0.358 1.085-1.263 0.724-0.116-0.046-0.323-0.128-0.39 0.04-0.057 0.142 0.018 0.216 0.148 0.272 0.491 0.196 0.977 0.329 1.467 0.526 0.492 0.195 0.962 0.443 1.453 0.635 0.117 0.047 0.236 0.05 0.292-0.093 0.067-0.168-0.153-0.256-0.269-0.302-0.905-0.361-0.743-0.58-0.417-1.395l0.665-1.666c0.191-0.479 0.165-0.489 0.643-0.298l3.619 1.443c0.426 0.171 0.436 0.219 0.261 0.659l-0.665 1.667c-0.326 0.814-0.358 1.086-1.264 0.724-0.116-0.046-0.322-0.129-0.389 0.039-0.057 0.143 0.018 0.217 0.147 0.273 0.491 0.196 0.976 0.329 1.468 0.526 0.491 0.195 0.962 0.443 1.453 0.635 0.116 0.047 0.235 0.05 0.292-0.093 0.066-0.168-0.153-0.256-0.269-0.302-0.905-0.361-0.743-0.581-0.417-1.395l2.113-5.298c0.331-0.827 0.372-1.08 1.269-0.737 0.116 0.046 0.33 0.147 0.398-0.021 0.056-0.142-0.037-0.21-0.153-0.256-0.491-0.196-0.977-0.33-1.468-0.525-0.491-0.197-0.961-0.444-1.452-0.64-0.117-0.047-0.23-0.062-0.287 0.08-0.068 0.168 0.145 0.238 0.261 0.284 0.905 0.361 0.736 0.594 0.412 1.408l-0.923 2.313c-0.191 0.478-0.191 0.478-0.644 0.298l-3.579-1.429c-0.452-0.18-0.48-0.221-0.3-0.674z" fill="#1e3f6a"/>
    </g>
    <g transform="translate(622.59 485.83)">
     <path d="m0 0c0.081-0.339 0.518-0.134 0.749-0.08 0.622 0.148 1.163 0.334 1.585 0.848 0.366 0.444 0.423 0.987 0.296 1.528-0.296 1.245-1.202 1.745-2.406 1.459-1.028-0.244-1.023-0.386-0.799-1.333zm-1.614 2.047c-0.206 0.866-0.2 1.139-1.147 0.914-0.122-0.029-0.339-0.08-0.377 0.083-0.035 0.149 0.047 0.225 0.196 0.26 0.433 0.104 0.906 0.159 1.339 0.261 0.784 0.187 1.53 0.421 2.301 0.603 1.285 0.305 2.709-0.03 3.045-1.45 0.292-1.232-0.552-2.19-1.639-2.605 0.448 0.035 0.763-0.391 1.037-0.698l1.597-1.85c0.356-0.416 0.68-0.883 1.276-0.741 0.108 0.026 0.351 0.083 0.397-0.106 0.032-0.135-0.1-0.181-0.209-0.207l-1.434-0.34c-0.271-0.064-0.413 0.173-0.569 0.351l-1.953 2.324c-0.711 0.832-0.723 0.943-1.752 0.699-0.108-0.025-0.233-0.04-0.282-0.138-0.058-0.114 0.033-0.436 0.061-0.557l0.494-2.084c0.206-0.866 0.21-1.123 1.147-0.915 0.122 0.029 0.348 0.097 0.39-0.078 0.035-0.149-0.066-0.203-0.189-0.231-0.514-0.122-1.014-0.184-1.528-0.306s-1.015-0.298-1.53-0.42c-0.122-0.029-0.236-0.027-0.271 0.121-0.042 0.177 0.178 0.214 0.3 0.243 0.946 0.225 0.815 0.479 0.612 1.332z" fill="#1e3f6a"/>
    </g>
    <g transform="translate(629.6 489.64)">
     <path d="m0 0c-0.115 0.868-0.08 1.14-1.045 1.012-0.125-0.017-0.345-0.046-0.369 0.134-0.019 0.151 0.072 0.205 0.209 0.225 0.524 0.069 1.028 0.08 1.551 0.149 0.524 0.069 1.042 0.194 1.565 0.261 0.125 0.017 0.241-0.01 0.26-0.161 0.023-0.18-0.21-0.211-0.335-0.227-0.965-0.128-0.862-0.381-0.746-1.25l0.746-5.653c0.117-0.883 0.095-1.138 1.047-1.026 0.125 0.016 0.357 0.061 0.381-0.118 0.021-0.152-0.086-0.194-0.211-0.21-0.523-0.07-1.027-0.08-1.552-0.149-0.523-0.069-1.04-0.193-1.564-0.263-0.124-0.017-0.238-4e-3 -0.258 0.148-0.024 0.18 0.198 0.195 0.323 0.211 0.965 0.128 0.86 0.394 0.744 1.263z" fill="#1e3f6a"/>
    </g>
    <g transform="translate(635.99 487.38)">
     <path d="m0 0c-1.032 0.402-2.057 0.93-2.109 2.166-0.061 1.46 1.221 2.404 2.583 2.461 0.543 0.023 1.352-0.041 1.874-0.228 0.269-0.085 0.248-0.254 0.272-0.503 0.03-0.361 0.073-0.721 0.102-1.082 5e-3 -0.097-0.049-0.168-0.146-0.173-0.154-6e-3 -0.189 0.215-0.236 0.311-0.346 0.946-0.784 1.443-1.868 1.397-0.917-0.039-1.773-0.548-1.73-1.562 0.05-1.195 1.599-1.618 2.519-1.968 0.467-0.19 1.063-0.457 1.412-0.804 0.421-0.428 0.71-1.028 0.736-1.626 0.032-0.778-0.313-1.488-0.89-2.014-0.604-0.54-1.387-0.782-2.193-0.816-0.681-0.029-1.523 0.131-2.121 0.454-0.243 0.143-0.216 0.52-0.227 0.77-0.016 0.361-0.029 0.709-4e-3 1.071 0.01 0.113 0.045 0.281 0.197 0.287 0.181 8e-3 0.195-0.34 0.214-0.45 0.19-1.189 0.86-1.912 2.124-1.86 1.043 0.044 2.041 0.796 1.996 1.894-0.048 1.111-0.821 1.622-1.783 1.999z" fill="#1e3f6a"/>
    </g>
    <g transform="translate(644.78 484.4)">
     <path d="m0 0c-0.066-0.888-0.141-1.147 0.815-1.219 0.125-9e-3 0.363-0.013 0.349-0.193-0.011-0.152-0.125-0.172-0.25-0.163-0.527 0.039-1.021 0.132-1.549 0.172-0.527 0.039-1.057 0.023-1.585 0.062-0.124 9e-3 -0.234 0.045-0.222 0.198 0.013 0.181 0.234 0.15 0.358 0.141 0.972-0.073 0.922 0.21 0.988 1.084l0.479 6.421c0.038 0.499-0.15 0.416-0.579 0.447-1.263 0.095-1.785 8e-3 -2.535-1.052-0.062-0.093-0.189-0.32-0.33-0.31-0.096 7e-3 -0.132 0.08-0.125 0.177 8e-3 0.097 0.075 0.259 0.109 0.327l0.675 1.762c0.034 0.095 0.069 0.19 0.194 0.181 0.083-6e-3 0.119-0.079 0.113-0.162 6e-3 -0.126-0.016-0.208 0.09-0.299 0.169-0.167 0.464-0.147 0.686-0.163l5.034-0.376c0.36-0.027 0.702-0.122 0.87 0.256 0.05 0.108 0.086 0.23 0.224 0.221 0.195-0.015 0.095-0.412 0.089-0.509l-0.21-1.686c-9e-3 -0.111-0.032-0.235-0.184-0.223-0.097 7e-3 -0.117 0.12-0.139 0.205-0.076 0.299-0.143 0.694-0.33 0.973-0.279 0.383-0.667 0.413-1.098 0.445l-0.804 0.059c-0.625 0.048-0.621 0.075-0.674-0.632z" fill="#1e3f6a"/>
    </g>
    <g transform="translate(650.98 489.37)">
     <path d="m0 0c0.152 0.863 0.267 1.111-0.692 1.281-0.123 0.022-0.343 0.061-0.311 0.239 0.026 0.15 0.131 0.175 0.267 0.153 0.52-0.092 1.005-0.234 1.524-0.326 0.522-0.092 1.052-0.13 1.573-0.224 0.123-0.022 0.225-0.083 0.198-0.233-0.032-0.178-0.265-0.137-0.387-0.115-0.959 0.169-0.937-0.103-1.09-0.966l-0.993-5.618c-0.155-0.876-0.254-1.114 0.689-1.294 0.123-0.022 0.359-0.05 0.328-0.227-0.028-0.152-0.142-0.159-0.266-0.138-0.521 0.093-1.003 0.234-1.524 0.327-0.521 0.092-1.051 0.129-1.572 0.221-0.123 0.022-0.227 0.068-0.202 0.219 0.032 0.178 0.249 0.126 0.372 0.104 0.959-0.17 0.94 0.117 1.092 0.98z" fill="#1e3f6a"/>
    </g>
    <g transform="translate(656.35 484.83)">
     <path d="m0 0c-0.025-0.035-0.075-0.108-0.086-0.148-0.04-0.134 0.403-0.205 0.458-0.221l1.534-0.446c0.081-0.023 0.376-0.153 0.42-6e-3 0.015 0.054-0.017 0.295-9e-3 0.322l-0.248 2.534c-0.01 0.061-0.017 0.44-0.097 0.463-0.107 0.031-0.298-0.276-0.344-0.334zm-1.474-1.932c-0.143-0.19-0.331-0.44-0.4-0.68-0.128-0.441 0.446-0.652 0.754-0.741 0.121-0.036 0.351-0.088 0.298-0.275-0.047-0.16-0.234-0.106-0.368-0.067-0.374 0.109-0.733 0.271-1.107 0.38-0.374 0.108-0.764 0.164-1.137 0.273-0.133 0.038-0.504 0.059-0.438 0.286 0.055 0.187 0.309 0.113 0.428 0.079 0.241-0.071 0.503-0.118 0.73 0.019 0.228 0.136 0.648 0.681 0.814 0.908l4.523 5.942c0.072 0.094 0.165 0.27 0.313 0.227 0.107-0.031 0.11-0.22 0.113-0.308l0.749-7.489c0.062-0.583 0.065-1.423 0.717-1.614 0.135-0.039 0.389-0.112 0.33-0.313-0.034-0.12-0.173-0.095-0.239-0.075-0.588 0.171-1.159 0.395-1.747 0.566-0.481 0.14-1.004 0.234-1.498 0.377-0.08 0.024-0.21 0.076-0.176 0.196 0.06 0.201 0.313 0.127 0.446 0.088 0.348-0.101 0.856-0.248 0.972 0.152 0.055 0.187 0.019 0.516 3e-3 0.709l-0.132 1.139c-0.084 0.763 0.011 0.736-0.63 0.922l-1.817 0.528c-0.534 0.156-0.469 0.079-0.809-0.344z" fill="#1e3f6a"/>
    </g>
    <g transform="translate(671.24 482.67)">
     <path d="m0 0c0.368 0.796 0.535 1.025-0.349 1.433-0.113 0.053-0.316 0.146-0.252 0.285 0.065 0.139 0.194 0.155 0.321 0.097 0.379-0.174 0.709-0.387 1.089-0.563 0.378-0.175 0.754-0.287 1.121-0.457 0.114-0.052 0.186-0.162 0.121-0.301-0.064-0.139-0.266-0.046-0.393 0.013-0.87 0.402-0.943 0.113-1.304-0.67l-2.961-6.416c-0.029-0.063-0.086-0.252-0.199-0.2-0.138 0.065-0.159 0.319-0.176 0.449l-2.121 9.345-2.636-5.709c-0.362-0.784-0.546-1.02 0.338-1.427 0.114-0.053 0.333-0.108 0.257-0.272-0.065-0.139-0.176-0.15-0.302-0.091-0.379 0.175-0.71 0.389-1.088 0.563-0.355 0.164-0.757 0.288-1.122 0.457-0.128 0.059-0.204 0.155-0.141 0.294 0.076 0.165 0.273 0.028 0.387-0.025 0.884-0.408 0.944-0.113 1.305 0.669l2.384 5.167c0.367 0.795 0.547 1.019-0.337 1.427-0.114 0.052-0.317 0.146-0.252 0.285 0.087 0.189 0.258 0.126 0.396 0.062l1.566-0.723c0.237-0.186 0.256-0.409 0.314-0.681l1.797-7.861z" fill="#1e3f6a"/>
    </g>
    <g transform="translate(684.11 473.39)">
     <path d="m0 0c0.205 0.263 0.685 0.859 0.723 1.181 0.057 0.345-0.211 0.568-0.463 0.764-0.098 0.078-0.305 0.22-0.186 0.373 0.095 0.121 0.241 0.061 0.351-0.024 0.329-0.255 0.624-0.555 0.954-0.811 0.287-0.221 0.605-0.399 0.891-0.622 0.088-0.068 0.223-0.19 0.12-0.322-0.119-0.154-0.371 0.042-0.472 0.119-0.626 0.486-0.872 9e-3 -1.286-0.479l-2.66-3.428c-0.547-0.703-0.966-1.222-1.96-1.277-0.916-0.047-1.793 0.457-2.517 1.02-0.648 0.503-1.419 1.278-1.651 2.092-0.313 0.981 0.204 1.601 0.767 2.326l2.676 3.449c0.538 0.692 0.755 0.859-0.013 1.455-0.1 0.077-0.275 0.214-0.165 0.356 0.094 0.121 0.196 0.094 0.308 0.011 0.417-0.325 0.777-0.675 1.194-0.999 0.418-0.324 0.87-0.604 1.287-0.93 0.099-0.076 0.161-0.178 0.067-0.299-0.111-0.142-0.297 3e-3 -0.395 0.079-0.77 0.597-0.877 0.346-1.414-0.346l-2.404-3.098c-0.375-0.483-1.02-1.268-1.084-1.871-0.093-0.824 0.623-1.626 1.227-2.095 0.626-0.486 1.44-0.889 2.24-0.788 0.73 0.102 1.102 0.605 1.53 1.154z" fill="#1e3f6a"/>
    </g>
    <g transform="translate(691.97 466.34)">
     <path d="m0 0c0.637 0.602 0.877 0.753 0.209 1.46-0.086 0.091-0.239 0.253-0.128 0.358 0.112 0.105 0.238 0.072 0.334-0.031 0.287-0.303 0.514-0.625 0.801-0.928 0.286-0.303 0.593-0.549 0.871-0.839 0.086-0.091 0.112-0.22 0-0.325-0.111-0.105-0.263 0.057-0.359 0.158-0.659 0.697-0.834 0.456-1.46-0.135l-5.136-4.853c-0.05-0.048-0.173-0.202-0.26-0.111-0.104 0.111-0.028 0.355 5e-3 0.482l1.507 9.461-4.569-4.317c-0.626-0.593-0.886-0.743-0.218-1.45 0.087-0.091 0.269-0.224 0.137-0.348-0.11-0.105-0.218-0.073-0.313 0.027-0.286 0.304-0.514 0.625-0.8 0.929-0.267 0.282-0.595 0.548-0.873 0.841-0.095 0.102-0.131 0.221-0.019 0.326 0.131 0.124 0.264-0.077 0.349-0.168 0.67-0.707 0.833-0.456 1.46 0.136l4.136 3.907c0.637 0.602 0.885 0.743 0.218 1.45-0.086 0.091-0.24 0.253-0.128 0.358 0.152 0.143 0.285 0.021 0.391-0.09l1.184-1.253c0.15-0.261 0.085-0.475 0.038-0.75l-1.259-7.963z" fill="#1e3f6a"/>
    </g>
    <g transform="translate(694.61 463.03)">
     <path d="m0 0c0.701 0.526 0.954 0.629 0.369 1.408-0.075 0.1-0.208 0.277-0.064 0.386 0.122 0.092 0.214 0.039 0.298-0.072 0.317-0.423 0.573-0.856 0.89-1.279 0.318-0.422 0.679-0.811 0.997-1.234 0.075-0.1 0.108-0.214-0.014-0.306-0.145-0.108-0.287 0.08-0.362 0.181-0.584 0.778-0.753 0.564-1.454 0.038l-4.558-3.423c-0.712-0.535-0.946-0.641-0.381-1.416 0.075-0.101 0.228-0.281 0.085-0.389-0.122-0.092-0.211-0.02-0.288 0.08-0.317 0.423-0.573 0.856-0.889 1.279-0.318 0.422-0.681 0.811-0.998 1.234-0.074 0.1-0.12 0.206 4e-3 0.297 0.144 0.109 0.267-0.077 0.342-0.177 0.584-0.778 0.763-0.556 1.465-0.03z" fill="#1e3f6a"/>
    </g>
    <g transform="translate(700.57 454)">
     <path d="m0 0c0.202 0.039 0.53 0.089 0.708 0.195 0.276 0.164 0.164 0.486 0.037 0.701-0.066 0.108-0.35 0.505-0.169 0.612 0.142 0.085 0.264-0.037 0.335-0.159 0.199-0.334 0.364-0.721 0.563-1.056 0.199-0.334 0.447-0.641 0.646-0.973 0.057-0.096 0.051-0.196-0.056-0.26-0.144-0.085-0.274 0.08-0.337 0.187-0.1 0.167-0.243 0.325-0.448 0.398-0.293 0.084-0.751 0.038-1.06-0.015l-7.444-1.113c-0.085-0.019-0.391-0.104-0.448-9e-3 -0.071 0.12 0.157 0.337 0.206 0.415l4.602 6.217c0.323 0.435 0.61 0.799 0.282 1.349-0.071 0.119-0.192 0.322-0.013 0.429 0.131 0.078 0.229-0.058 0.292-0.166 0.256-0.43 0.452-0.865 0.707-1.295 0.212-0.359 0.473-0.689 0.695-1.058 0.063-0.108 0.134-0.228-9e-3 -0.313s-0.24 0.051-0.309 0.14c-0.062 0.076-0.345 0.603-0.559 0.476-0.167-0.099-0.277-0.295-0.386-0.44l-3.805-5.161z" fill="#1e3f6a"/>
    </g>
    <g transform="translate(701.37 448.58)">
     <path d="m0 0c-0.601-0.257-0.551-0.372-0.328-0.896 0.164-0.384 0.436-1.055 0.713-1.526 0.174-0.303 0.674-0.165 1.072-0.071 0.083 0.02 0.24 0.042 0.289-0.073 0.027-0.065 0.035-0.152-0.068-0.197-0.364-0.14-0.758-0.278-1.127-0.405-0.399-0.2-0.771-0.39-1.175-0.576-0.205-0.087-0.262-0.021-0.291 0.042-0.049 0.116 0.075 0.214 0.147 0.259 0.344 0.223 0.684 0.489 0.627 0.797-0.097 0.548-0.381 1.213-0.545 1.597-0.218 0.511-0.272 0.639-0.707 0.454l-2.226-0.95c-1.176-0.501-0.949-1.07-0.518-2.08 0.47-1.1 0.795-1.792 2.106-1.747 0.107 0 0.49 0.058 0.555-0.096 0.039-0.09 4e-3 -0.15-0.086-0.188-0.102-0.044-0.215-0.062-0.329-0.08l-1.437-0.386c-0.096-0.026-0.093 6e-3 -0.137 0.107l-2.133 5.001c-0.11 0.256-0.282 0.516-0.39 0.771-0.049 0.115-0.041 0.239 0.099 0.3 0.14 0.06 0.24-0.139 0.295-0.268 0.377-0.882 0.612-0.722 1.43-0.372l5.205 2.221c0.793 0.338 1.071 0.396 0.694 1.279-0.054 0.127-0.143 0.332 0.011 0.398 0.129 0.055 0.236-0.021 0.284-0.136 0.339-0.793 0.638-1.634 0.976-2.427 0.469-1.1 0.978-2.152 1.442-3.239 0.104-0.243-0.23-0.31-0.396-0.381l-1.099-0.469c-0.078-0.033-0.264-0.128-0.32 0-0.047 0.116 0.096 0.237 0.169 0.314l0.276 0.345c0.315 0.361 0.469 0.638 0.417 1.115s-0.288 1.027-0.472 1.461c-0.087 0.205-0.328 0.768-0.492 0.939-0.194 0.205-0.458 0.047-0.676-0.046z" fill="#1e3f6a"/>
    </g>
    <g transform="translate(703.59 440.45)">
     <path d="m0 0c-0.334-0.095-0.112-0.524-0.047-0.751 0.174-0.616 0.382-1.149 0.915-1.547 0.46-0.348 1.002-0.382 1.538-0.23 1.232 0.348 1.692 1.273 1.355 2.464-0.287 1.017-0.429 1.006-1.364 0.741zm1.976 1.7c0.857 0.243 1.13 0.247 0.864 1.184-0.033 0.121-0.093 0.335 0.067 0.381 0.147 0.041 0.228-0.038 0.269-0.185 0.12-0.428 0.196-0.898 0.317-1.327 0.22-0.775 0.485-1.51 0.701-2.272 0.36-1.272 0.088-2.707-1.319-3.105-1.218-0.345-2.21 0.458-2.672 1.528 0.054-0.448-0.358-0.781-0.653-1.067l-1.78-1.674c-0.4-0.374-0.852-0.718-0.686-1.307 0.03-0.107 0.098-0.348-0.088-0.401-0.134-0.038-0.185 0.092-0.215 0.2l-0.402 1.418c-0.077 0.267 0.156 0.42 0.326 0.584l2.239 2.049c0.8 0.747 0.912 0.764 0.623 1.781-0.029 0.107-0.05 0.231-0.149 0.275-0.117 0.054-0.435-0.05-0.555-0.084l-2.061-0.583c-0.856-0.242-1.112-0.257-0.864-1.184 0.033-0.12 0.111-0.344-0.064-0.394-0.147-0.041-0.204 0.058-0.237 0.178-0.144 0.509-0.227 1.006-0.37 1.515-0.145 0.508-0.342 1.001-0.486 1.51-0.033 0.121-0.038 0.235 0.11 0.277 0.173 0.049 0.221-0.169 0.255-0.289 0.266-0.937 0.514-0.795 1.358-0.556z" fill="#1e3f6a"/>
    </g>
    <g transform="translate(705.08 431.94)">
     <path d="m0 0c0.281 1.073 0.688 2.151 1.909 2.344 1.443 0.229 2.528-0.937 2.742-2.283 0.085-0.536 0.115-1.348-0.011-1.888-0.054-0.277-0.223-0.276-0.468-0.328-0.356-0.071-0.708-0.155-1.064-0.225-0.094-0.015-0.172 0.029-0.188 0.125-0.023 0.151 0.192 0.213 0.282 0.27 0.899 0.452 1.342 0.944 1.172 2.016-0.144 0.907-0.746 1.698-1.75 1.539-1.181-0.187-1.423-1.774-1.666-2.728-0.135-0.486-0.33-1.108-0.636-1.495-0.377-0.467-0.939-0.824-1.53-0.918-0.77-0.122-1.515 0.141-2.104 0.653-0.605 0.537-0.935 1.288-1.062 2.085-0.106 0.672-0.044 1.527 0.208 2.158 0.114 0.258 0.492 0.276 0.738 0.314 0.357 0.057 0.701 0.112 1.065 0.127 0.112 4e-3 0.283-0.011 0.306-0.163 0.029-0.178-0.314-0.232-0.422-0.263-1.159-0.325-1.801-1.075-1.602-2.324 0.163-1.031 1.024-1.936 2.109-1.764 1.099 0.173 1.517 1 1.781 2z" fill="#1e3f6a"/>
    </g>
    <g transform="translate(708.66 426.22)">
     <path d="m0 0c0.875 0.059 1.144 7e-3 1.077 0.979-9e-3 0.125-0.023 0.347 0.158 0.359 0.153 0.01 0.2-0.084 0.21-0.223 0.036-0.528 0.014-1.031 0.049-1.558 0.036-0.528 0.127-1.051 0.163-1.578 8e-3 -0.125-0.026-0.239-0.178-0.249-0.18-0.013-0.197 0.223-0.205 0.348-0.066 0.972-0.325 0.884-1.199 0.826l-5.69-0.385c-0.888-0.06-1.142-0.021-1.091-0.979 8e-3 -0.126 0.039-0.36-0.143-0.373-0.151-0.01-0.187 0.099-0.194 0.224-0.037 0.527-0.015 1.03-0.051 1.558-0.035 0.527-0.127 1.051-0.163 1.578-8e-3 0.125 0.012 0.238 0.164 0.248 0.181 0.013 0.182-0.211 0.192-0.336 0.065-0.971 0.338-0.882 1.212-0.824z" fill="#1e3f6a"/>
    </g>
    <g transform="translate(703.11 418.22)">
     <path d="m0 0c-0.889 0.029-1.153 0.092-1.182-0.867-5e-3 -0.125 1e-3 -0.361-0.179-0.356-0.152 5e-3 -0.178 0.117-0.174 0.24 0.017 0.528 0.09 1.027 0.106 1.556 0.017 0.529-0.022 1.058-5e-3 1.588 3e-3 0.125 0.035 0.236 0.188 0.231 0.181-6e-3 0.16-0.228 0.155-0.353-0.03-0.974 0.249-0.912 1.125-0.94l6.438-0.206c0.502-0.015 0.411 0.169 0.424 0.6 0.04 1.265-0.07 1.783-1.161 2.486-0.095 0.059-0.328 0.178-0.323 0.317 2e-3 0.097 0.074 0.137 0.172 0.133 0.097-3e-3 0.261-0.064 0.329-0.094l1.792-0.599c0.095-0.031 0.192-0.062 0.187-0.187-1e-3 -0.083-0.072-0.123-0.155-0.12-0.126-0.011-0.209 6e-3 -0.296-0.102-0.159-0.176-0.127-0.469-0.134-0.692l-0.16-5.047c-0.011-0.361-0.092-0.707 0.293-0.859 0.11-0.045 0.234-0.076 0.23-0.216-7e-3 -0.194-0.409-0.112-0.506-0.109l-1.693 0.138c-0.11 3e-3 -0.236 0.021-0.231 0.174 4e-3 0.097 0.116 0.121 0.2 0.147 0.295 0.087 0.687 0.173 0.958 0.372 0.371 0.295 0.384 0.685 0.397 1.116l0.026 0.806c0.02 0.626 0.048 0.624-0.662 0.647z" fill="#1e3f6a"/>
    </g>
    <g transform="translate(707.45 406.84)">
     <path d="m0 0c0.171-0.157 0.524-0.485 0.744-0.522 0.302-0.051 0.406 0.312 0.443 0.531 0.02 0.123 0.055 0.569 0.233 0.538 0.178-0.029 0.2-0.231 0.179-0.353-0.07-0.413-0.2-0.842-0.27-1.253-0.069-0.412-0.085-0.832-0.158-1.256-0.018-0.111-0.103-0.279-0.254-0.254-0.177 0.03-0.115 0.316-0.097 0.425 0.133 0.782-0.621 1.404-1.129 1.9l-2.235 2.116c-0.536 0.501-0.498 0.479-1.212 0.587l-1.536 0.262c-0.877 0.149-1.128 0.248-1.29-0.698-0.02-0.122-0.047-0.358-0.224-0.328-0.152 0.026-0.159 0.14-0.14 0.263 0.089 0.522 0.227 1.005 0.317 1.526 0.089 0.521 0.123 1.053 0.211 1.573 0.021 0.123 0.068 0.228 0.217 0.203 0.179-0.031 0.128-0.248 0.108-0.371-0.165-0.96 0.123-0.938 0.986-1.086l1.727-0.294c0.576-0.097 0.665-0.07 1.2 0.176l3.104 1.405c0.674 0.309 1.201 0.43 1.337 1.226 0.023 0.137 0.038 0.388 0.243 0.353 0.166-0.028 0.169-0.169 0.146-0.307-0.07-0.411-0.195-0.813-0.265-1.225-0.107-0.63-0.161-1.27-0.268-1.901-0.019-0.11-0.083-0.24-0.206-0.218-0.206 0.035-0.17 0.254-0.143 0.405 0.035 0.205 0.141 0.667-0.159 0.718-0.192 0.032-0.547-0.146-0.715-0.217l-3.439-1.559z" fill="#1e3f6a"/>
    </g>
    <g transform="translate(618.3 353.96)">
     <path d="m0 0 5.13 5.822c0.146 0.159 0.289 0.112 0.447 0.062l1.593-0.512c0.158-0.051 0.438-0.062 0.366-0.291-0.065-0.201-0.275-0.165-0.419-0.12-0.186 0.061-0.488 0.206-0.668 0.089-0.237-0.146-0.359-0.724-0.442-0.982l-1.903-5.925c-0.074-0.23-0.273-0.799-0.165-1.054 0.088-0.219 0.299-0.303 0.5-0.367 0.143-0.046 0.455-0.114 0.384-0.329-0.05-0.158-0.212-0.122-0.327-0.085-0.459 0.148-0.9 0.353-1.359 0.5-0.574 0.184-1.166 0.311-1.726 0.491-0.114 0.036-0.268 0.102-0.218 0.26 0.07 0.215 0.362 0.09 0.505 0.044 0.216-0.069 0.54-0.095 0.739-0.016 0.309 0.122 0.45 0.661 0.533 0.92l2.089 6.5-0.101 0.031-5.582-6.437c-0.075-0.086-0.169-0.23-0.298-0.189-0.143 0.046-0.132 0.231-0.127 0.342l-0.491 8.182-0.1 0.032-2.315-5.779c-0.338-0.856-0.587-1.583 0.432-1.91 0.143-0.045 0.449-0.128 0.384-0.329-0.055-0.173-0.242-0.113-0.37-0.071-0.431 0.139-0.843 0.335-1.273 0.472-0.431 0.139-0.88 0.219-1.296 0.354-0.129 0.041-0.22 0.102-0.174 0.246 0.055 0.172 0.304 0.107 0.433 0.065 0.803-0.258 0.966 0.101 1.235 0.791l2.487 6.213c0.291 0.713 0.262 0.818-0.513 1.067-0.143 0.046-0.334 0.139-0.27 0.339 0.073 0.23 0.309 0.076 0.466 0.025l1.664-0.534c0.273-0.089 0.227-0.279 0.24-0.536z" fill="#1e3f6a"/>
    </g>
    <g transform="translate(633.71 356.14)">
     <path d="m0 0c-0.019-0.119-0.076-0.186-0.195-0.166-0.387 0.06-0.206 1.984-2.513 2.347-2.502 0.394-4.075-1.555-4.425-3.787-0.168-1.058-0.026-2.102 0.462-3.064 0.538-1.045 1.361-1.831 2.566-2.02 2.308-0.364 2.854 1.946 3.256 1.882 0.119-0.017 0.165-0.117 0.133-0.22l-0.264-1.194c-0.103-0.456-0.093-0.488-0.589-0.639-0.944-0.279-1.809-0.356-2.792-0.2-2.71 0.425-4.514 3.014-4.1 5.648 0.434 2.754 3.198 4.424 5.922 3.994 0.67-0.105 1.685-0.447 2.289-0.772 0.409-0.217 0.318-0.4 0.298-0.825z" fill="#1e3f6a"/>
    </g>
    <g transform="translate(640.09 350.58)">
     <path d="m0 0 3.096 7.118c0.091 0.196 0.243 0.196 0.408 0.196l1.673 2e-3c0.165 0 0.436 0.076 0.438-0.166 0-0.211-0.212-0.241-0.362-0.241-0.197 0-0.528 0.045-0.663-0.122-0.181-0.211-0.12-0.798-0.12-1.07l7e-3 -6.225c1e-3 -0.24-0.014-0.843 0.167-1.054 0.152-0.18 0.377-0.196 0.588-0.196 0.152 0 0.468 0.031 0.469-0.195 0-0.165-0.168-0.181-0.287-0.181-0.481 0-0.964 0.06-1.447 0.058-0.602-1e-3 -1.204-0.06-1.793-0.062-0.121 0-0.286 0.015-0.286 0.181 0 0.226 0.315 0.197 0.466 0.197 0.225 0 0.542 0.075 0.708 0.211 0.256 0.211 0.225 0.77 0.225 1.041l-7e-3 6.827h-0.107l-3.336-7.841c-0.045-0.107-0.09-0.272-0.226-0.272-0.151 0-0.196 0.181-0.226 0.286l-2.979 7.638h-0.105l-0.43-6.21c-0.059-0.92-0.073-1.69 0.997-1.687 0.151 0 0.467 0.015 0.467-0.196 0-0.181-0.195-0.181-0.331-0.181-0.452-1e-3 -0.904 0.059-1.357 0.059-0.451-1e-3 -0.903-0.062-1.341-0.062-0.135 0-0.241 0.03-0.241 0.181 0 0.179 0.256 0.196 0.392 0.196 0.843 0 0.888 0.392 0.932 1.13l0.46 6.678c0.06 0.769-1e-3 0.86-0.815 0.859-0.15 0-0.362 0.03-0.362 0.241 0 0.24 0.271 0.165 0.438 0.166l1.747 2e-3c0.287 1e-3 0.302-0.195 0.393-0.437z" fill="#1e3f6a"/>
    </g>
    <g transform="translate(650.13 350.92)">
     <path d="m0 0c-0.125-0.252-0.44-0.902-0.397-1.169 0.046-0.268 0.355-0.277 0.561-0.24 0.328 0.056 0.836 0.204 0.886-0.078 0.029-0.178-0.214-0.189-0.331-0.21-0.506-0.086-1.02-0.113-1.496-0.194-0.505-0.086-1-0.232-1.518-0.322-0.135-0.023-0.281-0.063-0.308 0.101-0.036 0.209 0.17 0.257 0.317 0.285 0.268 0.044 0.523 0.072 0.752 0.249 0.391 0.312 0.801 1.131 1.03 1.583l1.309 2.531c0.071 0.119 0.202 0.34 0.174 0.504-0.036 0.207-0.228 0.343-0.373 0.486l-2.162 2.092c-0.293 0.286-0.901 0.885-1.235 1.058-0.269 0.137-0.523 0.108-0.806 0.06-0.148-0.026-0.484-0.114-0.524 0.124-0.032 0.179 0.144 0.224 0.278 0.247 0.476 0.081 0.961 0.103 1.435 0.185 0.773 0.131 1.505 0.318 2.278 0.449 0.132 0.022 0.227 9e-3 0.255-0.155 0.035-0.207-0.231-0.254-0.366-0.276l-0.267-0.046c-0.222-0.038-0.594-0.102-0.54-0.414 0.028-0.163 0.298-0.406 0.426-0.524l2.238-2.184 1.162 2.323c0.137 0.268 0.391 0.756 0.335 1.081-0.062 0.356-0.501 0.251-0.754 0.209-0.163-0.029-0.471-0.112-0.511 0.126-0.028 0.164 0.144 0.223 0.279 0.246 0.624 0.107 1.287 0.16 1.911 0.266 0.445 0.076 0.852 0.206 1.297 0.283 0.133 0.022 0.253-0.049 0.278-0.198 0.032-0.192-0.224-0.206-0.358-0.229-0.416-0.072-0.778-0.194-1.093-0.493-0.447-0.428-1.014-1.487-1.312-2.073l-0.648-1.303c-0.08-0.152-0.215-0.357-0.184-0.536 0.033-0.192 0.205-0.302 0.331-0.416l3.357-3.279c0.384-0.363 0.563-0.516 1.038-0.434 0.133 0.023 0.392 0.036 0.424-0.157s-0.153-0.18-0.301-0.204c-0.624-0.107-1.228-0.148-1.852-0.256-0.475-0.08-0.94-0.222-1.416-0.302-0.118-0.021-0.297-0.052-0.324 0.111-0.033 0.194 0.201 0.25 0.351 0.275 0.251 0.043 0.861 0.056 0.795 0.442-0.038 0.223-0.398 0.542-0.559 0.683l-2.484 2.45z" fill="#1e3f6a"/>
    </g>
    <g transform="translate(657.73 358.68)">
     <path d="m0 0c-0.268 0.911-0.276 1.207-1.289 0.911-0.13-0.039-0.36-0.107-0.415 0.082-0.048 0.159 0.041 0.232 0.185 0.276 0.55 0.16 1.088 0.255 1.638 0.417 0.548 0.16 1.081 0.379 1.632 0.538 0.13 0.038 0.258 0.029 0.303-0.13 0.056-0.189-0.19-0.26-0.32-0.298-1.012-0.297-0.859-0.55-0.592-1.461l1.738-5.929c0.27-0.926 0.288-1.203 1.29-0.925 0.131 0.038 0.371 0.124 0.427-0.064 0.046-0.159-0.061-0.221-0.191-0.26-0.549-0.161-1.086-0.256-1.637-0.416-0.55-0.161-1.081-0.38-1.631-0.541-0.131-0.038-0.255-0.044-0.301 0.115-0.055 0.189 0.181 0.243 0.311 0.279 1.012 0.298 0.854 0.566 0.588 1.477z" fill="#1e3f6a"/>
    </g>
    <g transform="translate(668.15 362.59)">
     <path d="m0 0c-0.014 0.223-0.019 0.583-0.106 0.79-0.135 0.319-0.498 0.247-0.748 0.142-0.125-0.053-0.592-0.301-0.681-0.093-0.07 0.167 0.079 0.278 0.218 0.337 0.387 0.166 0.827 0.287 1.216 0.451 0.388 0.164 0.753 0.385 1.14 0.549 0.112 0.047 0.218 0.028 0.271-0.097 0.071-0.166-0.125-0.284-0.25-0.336-0.193-0.082-0.385-0.212-0.492-0.421-0.134-0.302-0.151-0.801-0.138-1.139l0.103-8.154c7e-3 -0.095 0.054-0.436-0.057-0.482-0.139-0.059-0.338 0.216-0.414 0.282l-5.999 5.851c-0.421 0.411-0.769 0.769-1.408 0.499-0.138-0.06-0.373-0.159-0.461 0.049-0.066 0.153 0.095 0.237 0.219 0.29 0.5 0.212 0.995 0.356 1.494 0.567 0.415 0.178 0.809 0.41 1.239 0.592 0.125 0.054 0.264 0.111 0.335-0.054 0.07-0.167-0.091-0.252-0.196-0.313-0.091-0.054-0.699-0.281-0.594-0.53 0.083-0.194 0.277-0.342 0.416-0.478l4.982-4.841z" fill="#1e3f6a"/>
    </g>
    <g fill="#1e3f6a">
     <path d="m629.85 431.45h-30.878v-0.702h30.878z"/>
     <path d="m598.98 428.43h30.878v0.535h-30.878z"/>
     <path d="m598.98 429.59h30.878v0.535h-30.878z"/>
    </g>
    <g transform="translate(599.86 424.21)">
     <path d="m0 0h29.996v3.6h-30.453z" fill="#1e3f6a"/>
    </g>
    <path d="m629.85 430.75v-0.624z" fill="#1e3f6a"/>
    <g transform="translate(598.98 430.75)">
     <path d="m0 0v-0.624z" fill="#1e3f6a"/>
    </g>
    <path d="m629.85 429.59v-0.624z" fill="#1e3f6a"/>
    <g transform="translate(598.98 429.59)">
     <path d="m0 0v-0.624z" fill="#1e3f6a"/>
    </g>
    <path d="m629.85 428.43v-0.624z" fill="#1e3f6a"/>
    <g transform="translate(598.98 428.43)">
     <path d="m0 0v-0.624z" fill="#1e3f6a"/>
    </g>
    <g fill="#1e3f6a">
     <path d="m680.7 431.45h-30.878v-0.702h30.878z"/>
     <path d="m649.82 428.43h30.878v0.535h-30.878z"/>
     <path d="m649.82 429.59h30.878v0.535h-30.878z"/>
    </g>
    <g transform="translate(649.82 424.21)">
     <path d="m0 0h30.013l0.865 3.6h-30.878z" fill="#1e3f6a"/>
    </g>
    <g transform="translate(680.7 430.13)">
     <path d="m0 0v0.624z" fill="#1e3f6a"/>
    </g>
    <g transform="translate(649.82 430.75)">
     <path d="m0 0v-0.624z" fill="#1e3f6a"/>
    </g>
    <g transform="translate(680.7 428.97)">
     <path d="m0 0v0.624z" fill="#1e3f6a"/>
    </g>
    <g transform="translate(649.82 429.59)">
     <path d="m0 0v-0.624z" fill="#1e3f6a"/>
    </g>
    <g transform="translate(680.7 427.81)">
     <path d="m0 0v0.624z" fill="#1e3f6a"/>
    </g>
    <g transform="translate(649.82 428.43)">
     <path d="m0 0v-0.624z" fill="#1e3f6a"/>
    </g>
    <g transform="translate(642.42 365.07)">
     <path d="m0 0h0.624z" fill="#1e3f6a"/>
    </g>
    <path d="m643.05 420.88h-0.624z" fill="#1e3f6a"/>
    <g transform="translate(641.26 365.07)">
     <path d="m0 0h0.624z" fill="#1e3f6a"/>
    </g>
    <path d="m641.89 420.88h-0.624z" fill="#1e3f6a"/>
    <g transform="translate(640.11 365.07)">
     <path d="m0 0h0.625z" fill="#1e3f6a"/>
    </g>
    <g fill="#1e3f6a">
     <path d="m640.73 420.88h-0.625z"/>
     <path d="m643.68 420.88h-0.702v-53.252h0.702z"/>
     <path d="m640.66 366.3h0.535v54.584h-0.535z"/>
     <path d="m642.35 420.88h-0.536v-53.998h0.536z"/>
    </g>
    <g transform="translate(636.43 420.88)">
     <path d="m0 0v-52.957l0.424-0.659 1.377-0.833 1.799-0.208v54.657z" fill="#1e3f6a"/>
    </g>
    <g fill="#1e3f6a">
     <path d="m643.68 459.86h-0.702v-21.837h0.702z"/>
     <path d="m640.66 437.82h0.535v22.033h-0.535z"/>
     <path d="m642.35 459.86h-0.536v-21.872h0.536z"/>
    </g>
    <g transform="translate(636.43 459.86)">
     <path d="m0 0v-21.913h2.021l1.223-0.566h0.356v22.479z" fill="#1e3f6a"/>
    </g>
    <g fill="#1e3f6a">
     <path d="m643.05 459.86h-0.624z"/>
     <path d="m641.89 459.86h-0.624z"/>
     <path d="m640.73 459.86h-0.624z"/>
    </g>
    <g transform="translate(640 345.56)">
     <path d="m0 0c-41.531 0-75.319 33.788-75.319 75.319s33.788 75.319 75.319 75.319 75.318-33.788 75.318-75.319-33.787-75.319-75.318-75.319m0 152.72c-42.678 0-77.4-34.722-77.4-77.4 0-42.679 34.722-77.4 77.4-77.4s77.4 34.721 77.4 77.4c0 42.678-34.722 77.4-77.4 77.4" fill="#1e3f6a"/>
    </g>
    <g transform="translate(642.63 363.2)">
     <path d="m0 0c0.894 0.511 1.782 1.035 2.658 1.573 13.89 1.295 26.752 7.681 36.228 17.998 9.571 10.417 14.841 23.951 14.841 38.108 0 12.469-3.999 24.281-11.561 34.177l-0.019 2.057c-1e-3 0.06-1e-3 0.117-2e-3 0.177 8.353-10.267 12.948-23.135 12.948-36.415 0-30.951-24.48-56.284-55.093-57.675m-2.64-0.04c-1.605 0.864-3.207 1.788-4.765 2.749-15.261 9.418-24.67 21.578-32.477 41.971-6.059 15.83-6.438 32.542-6.317 46.964l0.021 2.259c0.015 1.571 0.03 3.079 0.033 4.512h87.01c4e-3 -1.433 0.018-2.942 0.033-4.514l0.021-2.258c0.121-14.422-0.258-31.134-6.318-46.963-7.806-20.393-17.214-32.552-32.476-41.971-1.558-0.961-3.16-1.885-4.765-2.749m-57.752 57.715c0 13.301 4.6 26.168 12.967 36.441 0-0.068-1e-3 -0.133-2e-3 -0.202l-0.019-2.057c-7.563-9.896-11.562-21.708-11.562-34.178 0-14.157 5.271-27.69 14.841-38.108 9.477-10.317 22.339-16.703 36.23-17.998 0.875-0.538 1.763-1.062 2.658-1.573-30.623 1.38-55.113 26.718-55.113 57.675m19.345-13.442c7.516-19.637 16.516-31.753 30.698-41.126-12.61 1.767-24.209 7.85-32.898 17.309-9.359 10.187-14.512 23.42-14.512 37.263 0 11.63 3.554 22.676 10.299 32.068-0.065-14.091 0.542-30.177 6.413-45.514m74.115 55.431h-71.417c9.963 8.482 22.579 13.134 35.709 13.134s25.747-4.652 35.708-13.134m-35.718 15.753c14.855 0 28.853-5.592 39.611-15.753h-2.003c-10.348 9.274-23.689 14.383-37.598 14.383s-27.249-5.109-37.598-14.383h-2.023c10.758 10.161 24.759 15.753 39.611 15.753m44.83-25.671c6.744-9.392 10.298-20.438 10.298-32.067 0-13.843-5.153-27.077-14.511-37.263-8.689-9.459-20.289-15.542-32.898-17.309 14.181 9.373 23.182 21.49 30.698 41.126 5.871 15.336 6.478 31.422 6.413 45.513m-0.01 6.284-0.042-0.037c-8e-3 1.047-0.015 2.071-0.015 3.047v0.624h-3.337c-11.109 10.962-25.808 17.001-41.426 17.001-15.615 0-30.318-6.038-41.427-17.001h-3.315v-0.624c0-0.945-7e-3 -1.933-0.015-2.944-9.178-10.682-14.234-24.315-14.234-38.421 0-32.439 26.32-58.839 58.725-58.984l0.276-0.147 0.277 0.148c32.395 0.155 58.704 26.551 58.704 58.983 0 14.065-5.033 27.686-14.171 38.355" fill="#1e3f6a"/>
    </g>
    <g transform="translate(598.94 455.01)">
     <path d="m0 0c0.014 1.471 0.028 2.883 0.032 4.225h81.933c4e-3 -1.343 0.018-2.755 0.032-4.227 0.125-12.704 0.295-30.103-5.932-46.37-6.729-17.576-15.277-31.474-35.066-42.119-19.79 10.645-28.338 24.543-35.066 42.119-6.228 16.269-6.057 33.668-5.933 46.372m40.706-89.751 0.293-0.155 0.294 0.155c20.34 10.848 29.076 25.008 35.938 42.933 6.312 16.489 6.141 34.024 6.014 46.828-0.015 1.698-0.032 3.315-0.032 4.839v0.625h-84.429v-0.625c0-1.523-0.016-3.14-0.033-4.836-0.125-12.805-0.297-30.341 6.016-46.831 6.862-17.925 15.599-32.085 35.939-42.933" fill="#1e3f6a"/>
    </g>
    <g transform="translate(649.26 422.1)">
     <path d="m0 0-0.462 0.555v13.587l6e-3 -6e-3 0.456-0.548zm-2.793 0.091c-0.56 0.151-1.195 0.213-1.84 0.213-1.448 0-2.939-0.313-3.716-0.63l-0.511 0.725c0.044 0.022 0.088 0.045 0.133 0.067 0.084 0.041 0.169 0.082 0.255 0.122 0.107 0.05 0.217 0.097 0.326 0.144 0.091 0.039 0.182 0.077 0.275 0.113 0.108 0.042 0.217 0.08 0.327 0.118 0.096 0.034 0.193 0.066 0.291 0.096 0.111 0.033 0.224 0.061 0.338 0.089 0.1 0.025 0.2 0.051 0.303 0.071 0.116 0.023 0.236 0.038 0.355 0.055 0.104 0.014 0.206 0.03 0.311 0.039 0.127 0.011 0.258 0.011 0.39 0.013 0.101 2e-3 0.201 8e-3 0.306 4e-3 0.149-6e-3 0.303-0.025 0.457-0.043 0.09-0.011 0.178-0.014 0.271-0.029 0.248-0.041 0.502-0.097 0.763-0.174 1.436-0.423 2.075-0.67 2.417-0.803 0.075-0.029 0.138-0.053 0.196-0.074 0.019-6e-3 0.039-0.013 0.057-0.019 0.044-0.014 0.087-0.026 0.127-0.035 9e-3 -2e-3 0.02-6e-3 0.03-8e-3l0.533-0.641c-0.403 0.07-1.062 0.228-2.394 0.587m-6.219 14.045v0.778c0.568 0.786 3.005 0.988 3.689 0.677 0.757-0.344 3.112-0.8 4.237-0.881v-13.858c-0.01 3e-3 -0.02 7e-3 -0.031 0.011-0.351 0.136-1.006 0.39-2.467 0.82-2.349 0.691-4.283-0.083-5.428-0.656zm-0.624-13.109c-1.145 0.573-3.079 1.346-5.428 0.656-1.461-0.43-2.115-0.683-2.466-0.819-0.012-5e-3 -0.02-8e-3 -0.032-0.012v13.858c1.125 0.081 3.48 0.537 4.237 0.881 0.685 0.311 3.122 0.109 3.689-0.677v-0.778zm-0.662-1.353c-1.124 0.457-3.736 0.906-5.556 0.417-1.325-0.357-1.984-0.515-2.393-0.586l0.444 0.535 0.088 0.105c8e-3 1e-3 0.019 5e-3 0.027 7e-3 0.042 0.01 0.087 0.022 0.133 0.038 0.015 5e-3 0.033 0.01 0.049 0.016 0.059 0.021 0.124 0.045 0.202 0.075 0.342 0.133 0.98 0.38 2.416 0.803 0.262 0.077 0.516 0.133 0.765 0.174 0.081 0.013 0.158 0.016 0.238 0.026 0.166 0.02 0.332 0.04 0.492 0.046 0.094 3e-3 0.184-2e-3 0.276-3e-3 0.141-2e-3 0.283-3e-3 0.421-0.015 0.096-8e-3 0.19-0.023 0.285-0.036 0.128-0.017 0.256-0.034 0.381-0.058 0.097-0.019 0.191-0.043 0.286-0.067 0.119-0.029 0.237-0.058 0.353-0.093 0.095-0.029 0.189-0.061 0.282-0.093 0.112-0.038 0.224-0.077 0.333-0.12 0.093-0.037 0.185-0.074 0.276-0.113 0.108-0.046 0.215-0.093 0.32-0.142 0.089-0.042 0.177-0.084 0.265-0.127 0.043-0.021 0.085-0.043 0.128-0.064zm-8.35 13.914 0.457 0.548 5e-3 6e-3v-13.587l-0.462-0.555zm19.004 0.548-0.89 1.069c-2e-3 3e-3 -6e-3 3e-3 -8e-3 5e-3 -0.037 0.042-0.083 0.071-0.137 0.089-0.013 4e-3 -0.024 4e-3 -0.036 7e-3 -0.02 4e-3 -0.038 0.012-0.059 0.012-0.84 0-3.546 0.503-4.29 0.841-0.843 0.383-3.292 0.204-4.26-0.677-0.967 0.88-3.416 1.06-4.259 0.677-0.744-0.338-3.45-0.841-4.291-0.841-0.021 0-0.038-8e-3 -0.058-0.012-0.013-3e-3 -0.024-3e-3 -0.037-8e-3 -0.053-0.017-0.1-0.046-0.136-0.087-2e-3 -3e-3 -6e-3 -3e-3 -9e-3 -6e-3l-0.89-1.069h-0.971v-15.578h9.347s0.435-0.725 1.304-0.725 1.377 0.725 1.377 0.725h9.275v15.578z" fill="#1e3f6a"/>
    </g>
    <g transform="translate(629.51 470.85)">
     <path d="m0 0c0.467 0.176 0.801 0.215 1.766 0.808l0.378-2.488c0.661 0.898 1.348 1.777 2.11 2.549 0.32 0.365 1.025 0.59 1.487 0.332 0.435-0.239 0.279-0.755 0.112-0.898-0.321-0.283-0.676-0.185-0.791-0.12-0.42 0.218-0.483 0.325-0.916-0.069-0.33-0.297-0.626-0.74-1.122-1.414l2.431-2.257c0.42-0.371 0.648-0.64 1.325-0.538l0.031-0.206-2.694-0.409-0.031 0.206c0.539 0.082 0.594 0.255 0.348 0.486l-2.245 2.04 0.45-2.958-0.86-0.13-0.613 4.024c-0.148 0.985-0.726 0.851-1.129 0.801z" fill="#1e3f6a"/>
    </g>
    <g transform="translate(640.62 469.17)">
     <path d="m0 0c-0.085 0.579-0.221 1.482-0.526 1.966-0.188 0.3-0.504 0.598-0.84 0.7-0.686 0.191-0.892-8e-3 -1.145-0.335-0.286-0.373-0.421-0.872-0.497-1.487-0.076-0.638-0.023-1.286 0.097-1.935 0.062-0.335 0.18-0.705 0.46-0.98 0.257-0.253 0.409-0.321 0.722-0.342 0.196-0.01 0.462 0.097 0.716 0.319 0.229 0.199 0.538 0.769 0.673 1.141zm2.06 3.077-1.302-3.685c0.098-0.555 0.263-0.878 0.485-1.096 0.116-0.104 0.421-0.402 0.776-0.04 0.242 0.245 0.251 0.616 0.272 0.767l0.208 2e-3 -0.017-0.684c-0.01-0.22-0.121-0.673-0.433-0.931-0.31-0.257-0.565-0.167-0.776 0.028-0.281 0.265-0.468 0.669-0.752 1.419-0.196-0.337-0.444-1.139-1.472-1.483-0.532-0.179-1.098-0.311-1.866 0.019-0.431 0.193-0.757 0.468-0.992 0.86-0.306 0.519-0.544 1.294-0.381 2.593 0.109 0.846 0.417 1.452 1.246 2.026 0.357 0.247 1.039 0.38 1.527 0.303 0.546-0.088 0.989-0.455 1.259-0.894 0.222-0.369 0.39-0.83 0.451-1.282h0.023l0.725 2.069z" fill="#1e3f6a"/>
    </g>
    <g transform="translate(645.16 467.86)">
     <path d="m0 0c-0.034-0.311-0.081-0.644 0.107-0.955 0.168-0.286 0.278-0.345 0.563-0.294 0.404 0.062 0.468 0.568 0.544 0.723l0.218-0.023c-0.087-0.282-0.337-1.421-1.516-1.214-0.756 0.127-1.002 0.877-0.971 1.176l0.294 2.743c0.16 1.509-0.503 1.417-0.87 1.457l0.024 0.23c1.058 0.097 1.436 0.243 2.058 0.398z" fill="#1e3f6a"/>
    </g>
    <g transform="translate(594.97 396.2)">
     <path d="m0 0 4.931 0.251c0.978 0.954 1.301 1.382 1.567 1.722 0.324 0.404 0.34 0.888-0.069 1.222-0.487 0.395-0.998 0.164-1.258 0.1l-0.115 0.187c0.305 0.146 1.412 0.648 2.061 0.299 0.261-0.139 0.706-0.464 0.59-1.052-0.068-0.355-0.246-0.641-0.541-0.957-0.57-0.622-0.908-0.87-1.609-1.478l0.012-0.018 3.593 0.191 0.618-1.007-5.288-0.267-1.15-1.14c-0.244-0.244-0.519-0.549-0.547-0.948-0.037-0.471 0.214-0.793 0.569-0.86 0.44-0.097 0.745 0.049 1.008 0.129l0.109-0.178c-0.386-0.169-1.191-0.54-1.859-0.406-0.443 0.082-0.642 0.45-0.701 0.767-0.071 0.405 0.173 0.893 0.489 1.196l1.414 1.398-3.216-0.164z" fill="#1e3f6a"/>
    </g>
    <g transform="translate(595.23 402.69)">
     <path d="m0 0c-0.5-0.303-1.28-0.778-1.608-1.247-0.204-0.29-0.358-0.696-0.32-1.047 0.089-0.706 0.353-0.819 0.751-0.926 0.456-0.119 0.969-0.05 1.565 0.118 0.618 0.178 1.196 0.477 1.747 0.84 0.286 0.186 0.581 0.44 0.726 0.806 0.134 0.335 0.138 0.5 0.036 0.797-0.068 0.186-0.269 0.389-0.572 0.536-0.272 0.135-0.918 0.199-1.314 0.18zm-3.636 0.708 3.903 0.228c0.474 0.304 0.708 0.581 0.823 0.871 0.051 0.148 0.209 0.544-0.264 0.732-0.32 0.128-0.665-9e-3 -0.813-0.047l-0.082 0.192 0.638 0.249c0.206 0.076 0.668 0.149 1.026-0.038s0.373-0.458 0.274-0.727c-0.134-0.362-0.434-0.692-1.016-1.246 0.387-0.048 1.222 0.034 1.939-0.781 0.371-0.421 0.712-0.892 0.706-1.728-0.012-0.472-0.139-0.879-0.409-1.249-0.361-0.483-0.982-1.002-2.244-1.356-0.823-0.228-1.501-0.179-2.352 0.363-0.366 0.235-0.753 0.812-0.871 1.292-0.131 0.537 0.036 1.088 0.335 1.508 0.254 0.348 0.616 0.681 1.008 0.913l-9e-3 0.021-2.188-0.135z" fill="#1e3f6a"/>
    </g>
    <g transform="translate(594.97 407.14)">
     <path d="m0 0c0.235 0.064 0.997 0.798 0.606 1.713-0.171 0.41-0.386 0.628-0.704 0.782-0.35 0.182-0.86 0.248-1.378 0.168-0.704-0.107-1.283-0.407-1.744-0.832-0.376-0.342-0.801-0.949-0.741-1.701 0.02-0.342 0.168-0.578 0.373-0.716 0.348-0.218 0.689-0.282 1.133-0.149zm2.564 0.729c0.448 0.121 0.839 0.228 1.318 0.236l0.263-0.973c-0.3-0.045-0.674-0.039-1.01-0.129l-4.718-1.336c-0.679-0.195-1.596-0.179-2.563 0.821-0.263 0.265-0.525 0.566-0.617 1.394-0.081 0.698 0.222 1.308 0.461 1.625 0.486 0.647 1.004 0.86 1.599 1.057 0.386 0.128 1.155 0.216 1.898 0.045 0.756-0.18 1.293-0.612 1.535-0.93 0.318-0.419 0.451-0.779 0.451-1.223-2e-3 -0.613-0.221-0.912-0.351-1.056z" fill="#1e3f6a"/>
    </g>
    <g transform="translate(593.28 413.55)">
     <path d="m0 0c0.309 0.05 0.643 0.091 0.894 0.354 0.232 0.236 0.26 0.358 0.136 0.621-0.165 0.371-0.671 0.303-0.84 0.334l-0.035 0.218c0.295-0.011 1.46 0.046 1.568-1.146 0.075-0.763-0.583-1.196-0.88-1.244l-2.724-0.436c-1.5-0.24-1.237-0.855-1.179-1.221l-0.228-0.037c-0.371 0.997-0.611 1.322-0.924 1.883z" fill="#1e3f6a"/>
    </g>
    <g transform="translate(590.65 418.98)">
     <path d="m0 0c-1.162-0.358-1.367-0.946-1.33-1.506 0.046-0.699 0.515-0.936 0.815-0.917 0.232 0.015 0.562 0.113 0.786 0.601l0.65 1.423c0.305 0.646 0.6 1.113 1.294 1.158 1.007 0.066 1.561-0.932 1.615-1.746 0.037-0.573-0.147-1.135-0.111-1.489 0.01-0.153 0.048-0.202 0.157-0.271l0.011-0.166-1.805-0.119-0.013 0.204c0.603 0.193 1.593 0.501 1.511 1.747-0.028 0.433-0.253 1.019-0.913 0.975-0.37-0.024-0.631-0.298-0.812-0.718l-0.333-0.762c-0.353-0.815-0.735-1.543-1.591-1.599-0.648-0.043-1.447 0.454-1.529 1.687-0.037 0.56 0.168 0.969 0.154 1.186-7e-3 0.114-0.092 0.173-0.141 0.208l-0.01 0.139 1.582 0.155z" fill="#1e3f6a"/>
    </g>
    <g transform="translate(688.07 416.29)">
     <path d="m0 0c0.583 0.039 1.494 0.102 2.002 0.366 0.314 0.164 0.638 0.454 0.765 0.781 0.247 0.668 0.065 0.891-0.241 1.168-0.348 0.316-0.834 0.491-1.441 0.616-0.63 0.128-1.281 0.128-1.938 0.061-0.339-0.035-0.717-0.123-1.015-0.381-0.273-0.236-0.353-0.381-0.398-0.691-0.026-0.196 0.059-0.47 0.26-0.739 0.179-0.246 0.722-0.599 1.084-0.765zm2.9-2.302-3.569 1.595c-0.56-0.051-0.895-0.19-1.131-0.393-0.113-0.109-0.435-0.388-0.104-0.772 0.227-0.26 0.595-0.298 0.744-0.333l-0.015-0.207-0.68 0.072c-0.219 0.028-0.662 0.175-0.894 0.506-0.23 0.331-0.121 0.579 0.091 0.772 0.286 0.258 0.705 0.414 1.476 0.637-0.322 0.221-1.099 0.533-1.362 1.587-0.134 0.544-0.219 1.119 0.172 1.858 0.228 0.414 0.527 0.718 0.938 0.92 0.541 0.262 1.332 0.437 2.616 0.17 0.834-0.176 1.414-0.532 1.919-1.406 0.217-0.376 0.295-1.068 0.178-1.547-0.133-0.537-0.534-0.95-0.992-1.184-0.386-0.192-0.86-0.321-1.315-0.345l-1e-3 -0.024 2.004-0.889z" fill="#1e3f6a"/>
    </g>
    <g transform="translate(691.65 412.22)">
     <path d="m0 0c0.278-0.085 0.805-0.272 1.237-0.58 1.002-0.731 0.166-1.782-0.681-1.915-2.199-0.337-4.5-0.058-6.04-0.159-0.374-0.024-0.719-0.138-0.897-0.301-0.22-0.189-0.344-0.434-0.291-0.732 0.084-0.48 0.599-0.618 0.757-0.711l-0.047-0.215c-0.412 0.126-0.878 0.216-1.265 0.562-0.337 0.299-0.494 0.726-0.393 1.072 0.114 0.414 0.55 0.721 0.996 0.813 0.508 0.09 2.372 0.096 3.706-0.042l4e-3 0.023-3.706 2.843 0.228 1.041 5.064-3.853c0.808 2e-3 1.526 0.034 1.8 0.257 0.215 0.167 0.432 0.452 0.307 0.907-0.148 0.519-0.513 0.587-0.827 0.775z" fill="#1e3f6a"/>
    </g>
    <g transform="translate(683.22 406.01)">
     <path d="m0 0 0.344 0.923 3.737-1.39c0.532-0.198 0.816-0.231 1.072-0.141 0.283 0.093 0.439 0.344 0.293 0.621-0.145 0.277-0.492 0.406-0.775 0.573l0.072 0.196c0.39-0.182 0.624-0.22 0.989-0.702 0.297-0.395 0.341-1.141-0.18-1.577-0.374-0.307-0.777-0.194-1.124-0.163 0.224-0.331 0.693-0.962 0.623-1.715-0.037-0.37-0.276-0.912-0.618-1.131-0.522-0.338-0.968-0.408-1.601-0.183l-5.444 1.89c-0.275 0.089-0.588 0.082-0.878 0.129l0.358 0.966c0.278-0.053 0.56-0.059 1.144-0.252l4.918-1.669c0.45-0.156 0.725-0.147 0.976-5e-3 0.235 0.135 0.462 0.446 0.509 0.738 0.118 0.685-0.28 1.143-0.439 1.413z" fill="#1e3f6a"/>
    </g>
    <g transform="translate(684.12 398.73)">
     <path d="m0 0-1.096 0.508c-0.261 0.127-1.066 0.413-1.779 0.31-0.356-0.047-0.664-0.184-0.795-0.428-0.132-0.246-0.075-0.579 0.082-0.901 0.309-0.651 0.994-1.163 1.244-1.31l1.03-0.631zm-0.789-2.747 1.005-0.458c0.476-0.216 1.206-0.372 1.637-0.353 0.163 5e-3 0.777 0.123 0.964 0.471 0.185 0.347-0.057 0.925-0.141 1.062-0.225 0.369-0.76 0.892-1.202 1.17l-0.938 0.58zm2.175-1.585c-0.651-0.086-1.126-0.041-1.723 0.147-1.028 0.314-2.076 1.033-2.487 1.345-0.314 0.248-0.928 0.748-1.22 1.455-0.407 0.956-0.201 1.635-0.016 1.982 0.187 0.347 0.639 0.895 1.659 1.084 0.751 0.15 1.508-0.084 1.887-0.209 0.488-0.17 1.667-0.644 2.498-1.326 0.487-0.393 0.788-0.765 1.077-1.353 0.176-0.383 0.518-1.29 0.103-2.066-0.416-0.777-1.361-0.994-1.778-1.059" fill="#1e3f6a"/>
    </g>
    <g transform="translate(677.11 392.04)">
     <path d="m0 0c-0.326 0.242-0.69 0.834-0.381 1.747 0.404 1.189 1.224 1.86 1.85 2.13 0.518 0.219 1.256 0.143 1.693-0.427 0.508-0.65 0.26-1.311 0.164-1.61 0.586 0.354 0.864 0.472 1.28 0.38 0.339-0.082 0.935-0.382 0.985-1.306 0.061-1.13-0.915-2.23-1.197-2.413-0.21-0.139-0.506-0.342-0.883-0.334-0.45 2e-3 -0.665 0.32-0.639 0.643 0.01 0.119 0.228 0.673 0.952 0.397 0.438-0.164 1.011 0.171 1.129 0.809 0.136 0.766-0.566 1.198-0.739 1.276-0.722 0.318-1.118-0.128-1.351-0.543l-0.309-0.547c-0.227-0.407-0.658-0.419-0.587 0.068 0.045 0.308 0.215 0.472 0.405 0.665 0.528 0.536 0.513 1.041 0.189 1.45-0.224 0.284-0.638 0.542-0.954 0.535-0.817-0.038-1.364-0.886-1.524-1.198-0.288-0.535-0.28-0.95 0.156-1.52z" fill="#1e3f6a"/>
    </g>
    <g transform="translate(676.01 390.27)">
     <path d="m0 0c-0.238 0.201-0.488 0.426-0.851 0.446-0.331 0.022-0.441-0.038-0.559-0.302-0.175-0.368 0.208-0.706 0.294-0.855l-0.141-0.168c-0.185 0.231-0.987 1.077-0.155 1.936 0.527 0.553 1.286 0.337 1.516 0.144l2.108-1.779c1.159-0.979 1.454-0.379 1.693-0.096l0.177-0.15c-0.514-0.93-0.603-1.324-0.823-1.926z" fill="#1e3f6a"/>
    </g>
    <g transform="translate(672.2 384.88)">
     <path d="m0 0c0.454-0.368 1.167-0.941 1.718-1.091 0.342-0.093 0.776-0.099 1.093 0.053 0.634 0.324 0.651 0.611 0.617 1.022-0.043 0.468-0.282 0.927-0.642 1.431-0.377 0.521-0.853 0.963-1.38 1.358-0.272 0.206-0.612 0.397-1.005 0.411-0.36 0.012-0.517-0.041-0.762-0.237-0.151-0.126-0.275-0.384-0.311-0.72-0.035-0.302 0.125-0.93 0.277-1.296zm0.566-3.66-1.536 3.594c-0.447 0.342-0.788 0.467-1.099 0.479-0.155-2e-3 -0.581 0.012-0.598-0.496-0.012-0.344 0.233-0.623 0.319-0.749l-0.153-0.142-0.45 0.515c-0.142 0.168-0.366 0.578-0.311 0.978 0.054 0.399 0.304 0.506 0.59 0.506 0.385-6e-3 0.799-0.175 1.516-0.535-0.086 0.378-0.447 1.137 0.078 2.088 0.271 0.49 0.599 0.971 1.386 1.249 0.448 0.148 0.876 0.168 1.314 0.037 0.576-0.174 1.276-0.583 2.035-1.65 0.494-0.696 0.677-1.351 0.455-2.336-0.096-0.422-0.508-0.982-0.919-1.256-0.462-0.306-1.037-0.334-1.531-0.195-0.414 0.12-0.851 0.349-1.202 0.639l-0.017-0.016 0.868-2.014z" fill="#1e3f6a"/>
    </g>
   </g>
  </g>
 </g>
</svg>