<svg xmlns="http://www.w3.org/2000/svg" viewBox="0 0 606.47684 125"><defs><style>.cls-1{fill:#cfb87c;}.cls-2{fill:#231f20;}.cls-3{fill:#fff;}</style></defs><title>Asset 1</title><g id="Layer_2" data-name="Layer 2"><g id="Layer_1-2" data-name="Layer 1"><polyline class="cls-1" points="92.994 31.318 92.994 17.048 75.986 0 17.063 0 0 17.043 0 75.869 17.063 92.896 35.778 92.896 35.778 107.214 52.977 124.263 102.701 124.263 119.937 107.223 119.937 61.655 128.72 61.655 128.72 31.318"/><polyline class="cls-2" points="75.261 1.772 91.226 17.778 91.226 33.086 126.948 33.086 126.948 59.895 118.167 59.895 118.167 106.484 101.972 122.487 53.698 122.487 37.554 106.484 37.554 91.133 17.792 91.133 1.768 75.127 1.768 17.774 17.792 1.772"/><polyline class="cls-3" points="19.623 86.705 41.966 86.705 41.966 104.639 55.519 118.069 100.159 118.069 113.748 104.639 113.748 55.47 122.536 55.47 122.536 37.505 95.585 37.505 95.585 100.125 59.926 100.125 59.926 86.705 73.422 86.705 86.814 73.293 86.814 55.47 68.85 55.47 68.85 68.789 59.926 68.789 59.926 37.505 33.054 37.505 33.054 55.47 41.966 55.47 41.966 68.789 24.109 68.789 24.109 23.98 68.85 23.98 68.85 37.505 86.814 37.505 86.814 19.609 73.422 6.192 19.623 6.192 6.18 19.607 6.18 73.293 19.623 86.705"/><polyline class="cls-1" points="57.708 84.498 72.505 84.498 84.6 72.386 84.6 57.688 71.065 57.688 71.065 70.998 57.708 70.998 57.708 39.724 35.261 39.724 35.261 53.269 44.177 53.269 44.177 70.998 21.902 70.998 21.902 21.775 71.065 21.775 71.065 35.296 84.6 35.296 84.6 20.524 72.505 8.398 20.54 8.398 8.398 20.524 8.398 72.386 20.532 84.498 44.177 84.498 44.177 103.717 56.434 115.868 99.248 115.868 111.539 103.709 111.539 53.269 120.317 53.269 120.317 39.724 97.796 39.724 97.796 102.329 57.708 102.329"/><path class="cls-2" d="M155.3662,33.7108h3.27343V54.98936c-.049,7.99082,3.75495,11.02452,10.06,11.02452,6.356,0,10.15837-3.0337,10.11145-11.02452V33.7108H182.084V55.71061c0,7.0775-3.80432,13.09468-13.38439,13.09468-9.531,0-13.33343-6.01718-13.33343-13.09468"/><path class="cls-2" d="M188.07156,43.24383h3.03371V47.528h.0964c1.10735-2.98471,4.42929-5.00734,7.94354-5.00734,6.97889,0,9.0978,3.65892,9.0978,9.58007V68.08356h-3.03407v-15.501c0-4.28437-1.39521-7.50991-6.30505-7.50991-4.81343,0-7.70222,3.65868-7.79862,8.52147V68.08356h-3.03371"/><path class="cls-2" d="M214.03273,33.7108h3.0337v4.86255h-3.0337m0,4.67048h3.0337V68.08356h-3.0337Z"/><polyline class="cls-2" points="220.105 43.244 223.473 43.244 231.274 65.052 231.37 65.052 239.072 43.244 242.2 43.244 232.911 68.084 229.685 68.084"/><path class="cls-2" d="M246.98087,56.48085c.047,4.4299,2.35778,9.77484,8.18241,9.77484,4.42928,0,6.838-2.60154,7.79862-6.3565H265.996c-1.30176,5.6328-4.57469,8.9061-10.8327,8.9061-7.89455,0-11.21648-6.06422-11.21648-13.14148,0-6.54808,3.32193-13.14319,11.21648-13.14319,7.99082,0,11.16943,6.981,10.92665,13.96023m-3.03015-2.5496c-.14491-4.57469-2.98667-8.85858-7.8965-8.85858-4.95847,0-7.70235,4.33289-8.18241,8.85858Z"/><path class="cls-2" d="M270.19779,43.24383H272.989v5.82462h.098a9.17713,9.17713,0,0,1,9.38775-6.16173v3.03175a8.5577,8.5577,0,0,0-9.24284,8.9061v13.239h-3.03407"/><path class="cls-2" d="M300.24746,50.51315c-.14527-3.75544-3.03407-5.44048-6.49932-5.44048-2.6966,0-5.87191,1.06007-5.87191,4.28389,0,2.69709,3.081,3.65916,5.15066,4.18907l4.04159.9148c3.46513.52893,7.07885,2.55156,7.07885,6.883,0,5.392-5.34653,7.46189-9.96813,7.46189-5.77355,0-9.72082-2.69537-10.203-8.76131H287.006c.24315,4.0923,3.27685,6.21171,7.31845,6.21171,2.84187,0,6.78914-1.25288,6.78914-4.718,0-2.88891-2.697-3.85344-5.44084-4.52569l-3.90024-.86775c-3.94739-1.0586-6.93-2.40727-6.93-6.64265,0-5.05388,4.95834-6.981,9.33667-6.981,4.95883,0,8.9061,2.60056,9.102,7.99253"/><path class="cls-2" d="M308.5847,33.7108h3.0342v4.86255h-3.0342m0,4.67048h3.0342V68.08356h-3.0342Z"/><path class="cls-2" d="M322.26087,43.24383h5.05683v2.55181h-5.05683V62.54679c0,1.97364.29031,3.13048,2.45418,3.27527a23.75637,23.75637,0,0,0,2.60265-.14479v2.5986c-.91724,0-1.7834.09579-2.697.09579-4.04526,0-5.44048-1.34572-5.39356-5.58355V45.79564h-4.33142V43.24383h4.33142v-7.4614h3.0337"/><path class="cls-2" d="M328.91319,43.24383h3.222l8.18473,21.18056,7.65531-21.18056h3.03407L340.22558,71.886c-1.73244,4.18834-2.74388,5.39222-6.54991,5.39222a7.86861,7.86861,0,0,1-2.30879-.2396V74.48685a10.60966,10.60966,0,0,0,2.06955.24082c2.697,0,3.32035-1.58949,4.33142-3.90023l1.05847-2.83992"/><path class="cls-2" d="M389.63359,55.66381c0,7.1243-4.13836,13.14148-11.74467,13.14148s-11.7448-6.01718-11.7448-13.14148,4.13836-13.14319,11.7448-13.14319,11.74467,6.0189,11.74467,13.14319m-20.459,0c0,5.29545,2.886,10.59188,8.71428,10.59188,5.82413,0,8.71415-5.29643,8.71415-10.59188,0-5.29569-2.89-10.59114-8.71415-10.59114C372.06062,45.07267,369.17464,50.36812,369.17464,55.66381Z"/><path class="cls-2" d="M403.75454,45.79564h-4.913V68.08356H395.807V45.79564h-4.23073V43.24383H395.807V40.98012c-.0441-4.28462,1.16-7.26932,6.02086-7.26932a15.97639,15.97639,0,0,1,2.55279.194v2.59885a12.407,12.407,0,0,0-2.21569-.24107c-3.36762,0-3.27526,2.11842-3.3234,4.81331v2.16791h4.913"/><path class="cls-2" d="M445.744,44.11011a10.42128,10.42128,0,0,0-10.54459-8.32768c-9.09953,0-12.9488,7.60423-12.9488,15.11487,0,7.5104,3.84927,15.11658,12.9488,15.11658,6.35809,0,10.4-4.9113,11.02624-11.02452H449.497c-.91124,8.424-6.25776,13.81593-14.29758,13.81593-10.82952,0-16.22014-8.5195-16.22014-17.908,0-9.38628,5.39062-17.90775,16.22014-17.90775,6.49846,0,12.95283,3.90023,13.81593,11.12056"/><path class="cls-2" d="M476.18947,55.66381c0,7.1243-4.13836,13.14148-11.74871,13.14148-7.60239,0-11.74468-6.01718-11.74468-13.14148s4.14229-13.14319,11.74468-13.14319c7.61035,0,11.74871,6.0189,11.74871,13.14319m-20.46287,0c0,5.29545,2.89,10.59188,8.71416,10.59188s8.71415-5.29643,8.71415-10.59188c0-5.29569-2.89-10.59114-8.71415-10.59114S455.7266,50.36812,455.7266,55.66381Z"/><polyline class="cls-2" points="480.773 33.711 483.808 33.711 483.808 68.084 480.773 68.084"/><path class="cls-2" d="M511.87709,55.66381c0,7.1243-4.13836,13.14148-11.74467,13.14148s-11.74468-6.01718-11.74468-13.14148,4.13837-13.14319,11.74468-13.14319,11.74467,6.0189,11.74467,13.14319m-20.45883,0c0,5.29545,2.89,10.59188,8.71416,10.59188s8.71415-5.29643,8.71415-10.59188c0-5.29569-2.89-10.59114-8.71415-10.59114S491.41826,50.36812,491.41826,55.66381Z"/><path class="cls-2" d="M516.41687,43.24383h2.79361v5.82462h.09641a9.17939,9.17939,0,0,1,9.38848-6.16173v3.03175a8.55911,8.55911,0,0,0-9.24406,8.9061v13.239h-3.03444"/><path class="cls-2" d="M531.30047,50.85026c.293-5.82511,4.3831-8.32964,10.06282-8.32964,4.38323,0,9.14766,1.34818,9.14766,7.99253V63.70363a1.61548,1.61548,0,0,0,1.78218,1.82836,2.796,2.796,0,0,0,.95937-.19232v2.55206a8.35771,8.35771,0,0,1-1.97081.19183c-3.08271,0-3.56435-1.73233-3.56435-4.33338H547.625c-2.12332,3.22627-4.28682,5.05511-9.05138,5.05511-4.57579,0-8.32878-2.26223-8.32878-7.26761,0-6.98146,6.78743-7.22229,13.33416-7.992,2.50465-.28859,3.90146-.62594,3.90146-3.36983,0-4.09205-2.93816-5.10313-6.50251-5.10313-3.753,0-6.54661,1.73281-6.643,5.77759m13.14552,3.657h-.10032c-.38133.72345-1.73.96428-2.55279,1.1076-5.14993.915-11.54807.866-11.54807,5.72858,0,3.0342,2.68937,4.91229,5.53113,4.91229,4.62405,0,8.71427-2.93865,8.67-7.799Z"/><path class="cls-2" d="M578.44379,68.08356h-2.79373V63.366h-.09224c-1.30053,3.22626-5.25025,5.43925-8.8587,5.43925-7.55829,0-11.17079-6.11322-11.17079-13.14148,0-7.0285,3.6125-13.14319,11.17079-13.14319,3.70877,0,7.31735,1.8776,8.61383,5.44072h.10032V33.7108h3.03052M566.69912,66.25569c6.45033,0,8.71415-5.44122,8.71415-10.59188s-2.26382-10.59114-8.71415-10.59114c-5.78,0-8.14027,5.44048-8.14027,10.59114S560.91908,66.25569,566.69912,66.25569Z"/><path class="cls-2" d="M606.47684,55.66381c0,7.1243-4.13824,13.14148-11.74872,13.14148-7.60227,0-11.74467-6.01718-11.74467-13.14148s4.1424-13.14319,11.74467-13.14319c7.61048,0,11.74872,6.0189,11.74872,13.14319m-20.46287,0c0,5.29545,2.89,10.59188,8.71415,10.59188s8.71428-5.29643,8.71428-10.59188c0-5.29569-2.89-10.59114-8.71428-10.59114S586.014,50.36812,586.014,55.66381Z"/><path class="cls-2" d="M155.70343,89.9055h11.88885c10.35056.24083,15.791,5.92262,15.791,17.1865,0,11.26536-5.44048,16.94544-15.791,17.18626H155.70343m3.2733-2.79288h6.979c9.87026.049,14.15463-4.1391,14.15463-14.39338,0-10.25452-4.28437-14.44262-14.15463-14.39362h-6.979Z"/><path class="cls-2" d="M189.90188,112.67556c.0474,4.4299,2.35778,9.77483,8.18277,9.77483,4.42941,0,6.83606-2.60154,7.79863-6.35649h3.0337c-1.2993,5.6328-4.5742,8.9061-10.83233,8.9061-7.89454,0-11.21648-6.06422-11.21648-13.14148,0-6.54808,3.32194-13.1432,11.21648-13.1432,7.99253,0,11.16956,6.981,10.92873,13.96024m-3.03419-2.54961c-.14283-4.57468-2.98275-8.85857-7.89454-8.85857-4.95834,0-7.70223,4.33288-8.18277,8.85857Z"/><path class="cls-2" d="M213.07016,99.43853h3.0342v4.28413h.09591c1.10735-2.9847,4.42733-5.00734,7.94354-5.00734,6.97938,0,9.09793,3.65892,9.09793,9.58007v15.98287h-3.03419v-15.501c0-4.28438-1.39522-7.50991-6.305-7.50991-4.81552,0-7.70223,3.65867-7.79814,8.52147v14.48941h-3.0342"/><polyline class="cls-2" points="236.192 99.439 239.56 99.439 247.361 121.247 247.457 121.247 255.16 99.439 258.288 99.439 248.998 124.278 245.771 124.278"/><path class="cls-2" d="M263.06786,112.67556c.04692,4.4299,2.35974,9.77483,8.18436,9.77483,4.42574,0,6.83644-2.60154,7.79655-6.35649H282.083C280.78158,121.7267,277.50828,125,271.25222,125c-7.89821,0-11.21855-6.06422-11.21855-13.14148,0-6.54808,3.32034-13.1432,11.21855-13.1432,7.98887,0,11.16785,6.981,10.92458,13.96024m-3.03-2.54961c-.14492-4.57468-2.98679-8.85857-7.89455-8.85857-4.95846,0-7.70234,4.33288-8.18436,8.85857Z"/><path class="cls-2" d="M286.285,99.43853h2.79092v5.82463h.098a9.17708,9.17708,0,0,1,9.38763-6.16173v3.03174a8.558,8.558,0,0,0-9.24284,8.9061v13.239H286.285"/></g></g></svg>