<?xml version="1.0" encoding="UTF-8" standalone="no"?>
<svg xmlns:rdf="http://www.w3.org/1999/02/22-rdf-syntax-ns#" xmlns="http://www.w3.org/2000/svg" height="45.531pt" width="282.53pt" version="1.1" xmlns:cc="http://creativecommons.org/ns#" xmlns:dc="http://purl.org/dc/elements/1.1/" viewBox="0 0 282.52539 45.53125">
 <g style="" transform="scale(.5)">
  <path d="m555.65 36.5v0.98047c1.8281 0.34765 2.7227 1.25 2.7227 2.6953-0.0117 1.0156-0.41406 2.3867-1.2227 4.1367l-3.0976 6.918-4.7617-9.4531c-0.60938-1.2031-0.91016-2.1133-0.92969-2.7031 0-0.88281 0.71094-1.4141 2.1406-1.5938v-0.98047h-9.2383v-0.0117l-2.4062 0.0117h-2.207l-1.7148 0.004 0.0117-9.4648-0.82813-0.27734c-0.94922 5.9492-4.0273 9.0664-8.5352 9.7422l-0.008 2.0781h2.457v12.625c0 3.3477 1.9492 5.3047 3.9883 6.1445 4.0391 1.6641 7.75-0.18359 9.7188-4.168-0.0586 0.1875-0.78907-0.98437-0.78907-0.74218-2.6172 3.0117-5.9961 2.2969-5.9961-2.0391l-0.0193-11.785s5.4141-0.14063 7.2305 3.6562l8.3438 16.777c-1.0352 2.2422-2.0703 3.8945-3.0664 4.9414-1.3984 1.457-3.0859 2.1758-5.1016 2.1758-0.95703 0-1.9766-0.16406-3.0508-0.50781l-1.375 6.4961c0.54297 0.0703 1.1914 0.10547 1.9062 0.10547 2.3633 0 4.2656-0.52735 5.707-1.5977 1.4453-1.0703 2.7578-2.9141 3.957-5.5352l10.15-22.128c0.93359-2.0469 1.7188-3.3906 2.3633-4.0391 0.64453-0.63282 1.668-1.1328 3.0664-1.4805v-0.98047zm-235.81 18.492c-2.2578 0.008-3.2578-1.8398-3.1836-3.5781 0.0625-1.2188 0.61718-2.2266 1.5508-2.6484l4.6367-2.1289 0.008 4.957c0 2.1094-1.0156 3.3828-3.0117 3.3984zm9.1328-2.1797v-10.434c0-3.3867-4.2461-5.8906-7.875-5.8789-4.0078 0.004-8.7305 2.2383-9.1055 7.7695 2.207-3.2031 5.418-4.6289 8.8281-3.2031 2.2109 0.92187 2.6953 3.7226 0.98437 4.2383l-6.832 2.0703c-2.8125 0.85547-4.2812 2.9375-4.168 5.3906 0.0117 0.25 0.043 0.50391 0.0899 0.77344-3.625 1.6055-5.1758-0.40625-5.1758-3.668l0.0234-11.246h6.332l0.0234-2.1055h-6.3086l0.0156-9.4805-0.90234-0.22265c-1.0977 5.875-2.6367 7.6562-7.3203 9.5898l0.0469-9.3008c-6.418-2.6328-13.109-1.5-15.766-0.33203-6.1524 2.6836-7.9805 10.383-2.2734 15.066l8.375 6.8398c4.6641 3.8281 2.5703 10.641-1.8828 11.688-4.0391 1-8.1094-1.6602-9.8203-4.4297l-1.125 0.60937c2.3945 4.4609 6.957 7.1719 11.598 6.9805 4.3555-0.16406 9.9336-2.7109 11.285-7.0938 1.6211-5.3438-1.1211-10.438-3.4648-12.27l-9.7226-7.6445c-1.5391-1.2188-2.0312-2.2109-1.957-3.875 0.1875-3.6289 3.8906-5.3203 6.1016-5.375 4.6133-0.0859 7.6367 5.207 7.7383 11.324l2.4023-0.0273v11.969c0 4.1562 1.7695 7.1484 5.5274 7.3711 2.1094 0.12109 5.1641-0.45313 6.8633-2.6367 0.82031 1.5273 2.3789 2.7305 4.8516 2.6445 2.4062-0.0859 4.6641-1.1406 6.6719-3.168 0.88671 2.2656 2.4726 3.2539 4.25 3.1914 1.582-0.0391 3.5625-1.4336 4.1406-3.3906-1.5938 0.78907-2.4492 0.0352-2.4492-1.7344zm25.793-14.477c1.9023 0 3.5938 2.3398 3.4844 5.2773h-7.5664c0.18359-3.1758 2.1758-5.2773 4.082-5.2773zm1.9531 16.488c-3.4805-0.15235-6.3828-4.4883-6.2695-9.1562h14.539c-0.47657-5.3633-3.207-9.2656-9.4766-9.1758-6.875 0.0898-12.156 4.0156-11.941 11.391 0.0586 1.8555 0.57031 3.418 1.375 4.7227-2.5898 2.7969-5.8242 2.0352-5.8242-2.2031l-0.0156-11.793 6.3164 0.004-0.008-2.0898-6.3086 0.0195 0.0117-9.4805-0.82812-0.27734v0.0351c-0.94531 5.9414-4.4766 8.5664-8.7774 9.7031l-0.008 2.0898h2.7188v12.594c0 3.3438 1.9492 5.2969 3.9766 6.125 3.8828 1.6016 7.4492-0.0508 9.4531-3.7227 2.4297 2.9883 6.4844 4.3047 9.5273 4.2891 6.2617-0.0234 9.5391-3.5312 10.703-7.1484l-0.66406-0.66016c-3.2266 4.6094-5.6875 4.8555-8.5 4.7344zm157.47-8c-1.0117-1.1172-3.0352-2.2227-6.0742-3.3047-1.9609-0.69531-3.2266-1.2695-3.7969-1.7422-0.5664-0.46875-0.85156-1.0156-0.85156-1.6484 0-0.625 0.33594-1.1484 1.0117-1.5664 0.67578-0.41016 1.5039-0.62109 2.5078-0.62109 1.3945 0 2.6758 0.41796 3.8203 1.2578 1.1406 0.83984 2.0352 2.0039 2.6719 3.4961h0.95312v-4.7773c-2.6445-1.2695-7.8203-1.3945-7.8203-1.3945-2.168 0-3.9258 0.57812-5.3008 1.7422s-2.0547 2.5898-2.0547 4.2969c0 1.4219 0.44922 2.6133 1.3555 3.5977 0.90234 0.98437 2.7773 1.9883 5.6367 3.0078 2.2461 0.80469 3.6914 1.5234 4.3672 2.1445 0.66797 0.62109 1 1.3555 1 2.207 0 0.78125-0.36328 1.4531-1.1016 2.0078-0.73828 0.5625-1.6055 0.84766-2.6289 0.84766-2.9805 0-5.5156-2.0703-7.6172-6.2031h-0.95703v6.5664l-0.008 0.0391c4.6914 1.2422 8.8125 1.1094 8.8125 1.1094 1.9609 0 3.7148-0.76172 5.2695-2.0781 1.5625-1.3164 2.3359-2.9297 2.3359-4.8281 0-1.6484-0.51563-3.0312-1.5312-4.1562zm-52.699-9.418v-0.90625h-8.3438v0.90625c1.6875 0.12109 2.5469 0.86328 2.5469 2.2266 0 0.78516-0.28906 1.7305-0.85156 2.8477l-3.6797 7.3984-4.7461-9.2695c-0.23438-0.49218-0.36719-0.94531-0.375-1.3594 0-0.98828 0.66015-1.6055 1.9726-1.8438v-0.90625h-12.352v-0.004h-9.8164v0.88672c2.2578-0.043 2.668 0.4961 3.125 1.0195 0.49609 0.5586 0.40625 2.332 0.40625 3.5742v10.789c0 1.2891 0.004 2.3359-0.72266 3.0586-0.33203 0.33594-0.83203 0.53515-1.4922 0.65625-1.2031-0.16406-1.4961-0.34766-2.0078-0.71485-0.64063-0.45312-0.81641-1.8594-0.81641-3.1328v-8.8203c0-2.2266-0.67578-4.0039-2.0234-5.3359-1.3477-1.332-3.0078-2-4.9727-2-3.1445 0-5.7695 1.6445-7.6914 4.9297h-0.0781v-4.9297h-9.5391v0.89063c1.2773 0.0312 2.0859 0.16406 2.6133 0.6914 0.53515 0.51953 0.71484 1.1211 0.64843 3.7188v11.27c0 1.0117-0.004 2.1484-0.83593 2.9258-0.42578 0.40234-1.125 0.50781-1.707 0.57031-1.043-0.10938-1.6445-0.33985-2.0391-0.72266-0.51953-0.51562-0.74609-1.2695-0.69531-3.1602v-23.324h-9.2305v0.82422c0.80469-0.043 2.0977 0.16406 2.5547 0.66015 0.4375 0.4961 0.70312 0.71094 0.65625 3.2812v17.543c-2.4648 2.5977-4.5469 3.8984-6.832 3.8984-1.6055 0-2.8867-0.48438-3.8008-1.4609-0.91797-0.97656-1.3789-2.3242-1.3789-4.043l-0.008-20.703h-9.5898l0.004 0.82422c0.94141-0.0508 2.1523 0.23046 2.6055 0.74218 0.64062 0.72266 0.55469 1.9297 0.55469 3.1992v14.719c0 2.8477 0.82031 5.1133 2.5352 6.793 1.7148 1.6914 4.0234 2.5352 6.9141 2.5352 1.7422 0 3.2383-0.31641 4.4961-0.94532 1.2461-0.63281 2.7305-1.8086 4.4141-3.5352v3.7695h8.5859v0.004h12.105v-0.78125c-1.1172-0.11329-1.5508-0.26563-2.043-0.6875-0.875-0.75782-0.94141-1.7109-0.98828-3.2852v-9.4141c1.2539-2.3633 2.9883-3.5391 5.0352-3.5391 1.1719 0 2.0781 0.42579 2.7305 1.2734 0.64063 0.83985 0.96875 2.0195 0.96875 3.5352v8.3516c0 1.0898-0.15234 2.2852-0.78906 2.8711-0.57812 0.54688-1.3555 0.69141-2.3633 0.75782v0.91797l23.938 0.004v-0.83984c-2.3281-0.10938-3.5-0.60156-3.4297-3.4219v-15.715c0.87891 0.11328 1.6289 0.41406 2.2305 0.91406 0.71875 0.60156 1.4961 1.7188 2.3359 3.3438l7.7539 15.738h1.1719l7.4414-15.371c0.77343-1.6133 1.5312-2.7773 2.2773-3.4805 0.73437-0.70703 1.6055-1.1055 2.6172-1.207zm-25.336-9.9805c0-4.5156-7.3633-4.4883-7.3633 0 0 4.5508 7.3633 4.5742 7.3633 0zm33.391 10.906c1.9141 0 3.6094 2.3438 3.4844 5.2773h-7.5547c0.17578-3.1719 2.1758-5.2773 4.0703-5.2773zm10.461 11.754c-3.2266 4.6133-5.6758 4.8555-8.4961 4.7383-3.4805-0.15235-6.3828-4.4883-6.2656-9.1641h14.531c-0.46875-5.3555-3.2031-9.2617-9.4805-9.1719-6.8789 0.0937-12.156 4.0156-11.934 11.395 0.21484 7.0938 7.0469 10.039 11.609 10.016 6.2656-0.0234 9.5312-3.5312 10.699-7.1484zm12.859-13.066-4.168 4.9375v-5.4648h-10.074v0.84765c2.5391 0.0664 3.4844 0.64063 3.4844 3.0508v12.645c0 2.5781-0.73046 3.4102-3.3086 3.4453l-0.0352 0.96094h13.297v-0.88672c-2.5859-0.19532-3.3633-1.0117-3.3633-3.5195v-7.1016c0-2.75 1.7891-3.9297 3.5391-3.9453 1.875-0.004 3.9258 1.3945 5.4062 3.4414l1.4883-7.8711c-2.6523-2.0938-5.1836-1.832-6.2656-0.53906zm32.238-9.6055c0-4.5195-7.3789-4.4961-7.3789 0 0 4.5469 7.3789 4.5703 7.3789 0zm-0.50391 25.77v-16.703h-9.8125v0.90234c2.2461-0.0508 2.6289 0.51953 3.1211 1.0156 0.48437 0.48437 0.40625 2.3242 0.40625 3.5664v10.801c0 1.2891 0.008 2.3359-0.73438 3.0664-0.47656 0.48828-1.2969 0.69922-2.5391 0.78516v0.82812h12.992v-0.82812c-2.332-0.11719-3.5117-0.61328-3.4336-3.4336zm-385.68 2.832c-3.2891 0-6-4.0391-6-8.918 0-4.8828 2.7109-8.8594 6-8.8594s5.9414 3.9766 5.9414 8.8594c0 4.8789-2.6524 8.918-5.9414 8.918zm0.10547-19.48c-6.6914 0-12.098 4.7734-12.098 10.66 0 1.1211 0.19532 2.1992 0.55469 3.2148-3.0703 3.2656-6.7734 4.4688-9.1797 4.3047-12.02-0.73828-12.133-23.629 0.33203-23.465 7.1367 0.12109 7.9922 5.8398 8.5 8.6719l1.082-0.33593-0.1211-9.9766h-0.90625c-0.16797 0.625-0.5625 1.25-1.5234 1.25-0.51171-0.17578-5.2188-1.7578-8.7852-1.6445-4.5859 0.10547-15.137 3.0586-15.301 14.277-0.16797 11.277 9.1758 14.57 15.02 14.445 5.3828-0.0977 9.0352-3.2461 11.617-5.9609 1.9805 3.5 6.0664 5.9024 10.809 5.9024 6.6289 0 12.051-4.7774 12.051-10.684 0-5.8867-5.4219-10.66-12.051-10.66zm98.785 17.203c0 1.0547-0.83204 2.2227-2.3906 2.1641-4.1094-0.10937-6.9336-4.6523-7.1055-9.0976-0.10156-3.3281 1.5039-8.1055 5.2734-8.1602 2.3867-0.0586 4.2227 0.88672 4.2227 3.7227zm6.3203-0.38281v-24.094h-9.7109v0.71484c2.6133 0.22656 3.3906 0.11719 3.3906 2.8281l-0.0664 5.8945c-1.5938-1.6055-3.8164-2.1562-6.0391-2.1562-5.8828 0-9.7109 5.4844-9.7109 10.367 0 5.8867 2.9883 10.555 11.379 10.555h13.754v-0.83984c-2.1602-0.49219-2.9961-1.7734-2.9961-3.2695zm-32.949 1.5976c-2.3086 0-3.3008-1.8125-3.2422-3.5664 0.0586-1.2188 0.66016-2.2031 1.5898-2.6445l4.7305-2.1445 0.0547 4.9492c0 2.1406-1.043 3.4062-3.1328 3.4062zm9.3984-2.1406v-10.445c0-3.4062-4.3398-5.8711-8.082-5.8711-4.1133 0-8.9531 2.2461-9.3438 7.7422 2.2539-3.1914 5.5508-4.6172 9.0664-3.1914 2.2539 0.9375 2.7539 3.7422 0.9961 4.2383l-6.9844 2.0859c-2.9102 0.82032-4.3945 2.9141-4.2852 5.3867 0.10938 2.3633 1.8125 5.2695 5.7227 5.1016 2.4102-0.0508 4.7188-1.0976 6.8047-3.125 0.88672 2.25 2.5352 3.2422 4.3476 3.1914 1.6406-0.0664 3.6797-1.4297 4.2305-3.4141-1.5976 0.82031-2.4726 0.0586-2.4726-1.6992zm-61.516 0.375v-23.926h-10.012v0.87109c2.5156 0.17188 3.1719 0.60156 3.2812 2.793v19.992c0 2.7891-0.66015 3.5508-3.1211 3.6094v0.9375h13.082v-0.875c-2.4609-0.17187-3.1758-0.98828-3.2305-3.4023zm99.145 2.8281c-3.2852 0-6-4.0469-6-8.918 0-4.8789 2.7148-8.8555 6-8.8555s5.9375 3.9766 5.9375 8.8555c0 4.8711-2.6523 8.918-5.9375 8.918zm0.0508-19.477c-6.625 0-12.039 4.7734-12.039 10.656 0 5.8984 5.4141 10.672 12.039 10.672 6.6875 0 12.102-4.7734 12.102-10.672 0-5.8828-5.4141-10.656-12.102-10.656zm-85.559 19.477c-3.2891 0-6.0039-4.0469-6.0039-8.918 0-4.8789 2.7148-8.8555 6.0039-8.8555 3.2812 0 5.9336 3.9766 5.9336 8.8555 0 4.8711-2.6523 8.918-5.9336 8.918zm0.10156-19.477c-6.6836 0-12.094 4.7734-12.094 10.656 0 5.8984 5.4102 10.672 12.094 10.672 6.6289 0 12.043-4.7734 12.043-10.672 0-5.8828-5.4141-10.656-12.043-10.656zm30.742 1.0195c-2.6602-2.0976-5.1875-1.8359-6.2773-0.53906l-4.1641 4.9414v-5.4688h-10.086v0.84765c2.543 0.0664 3.4844 0.64063 3.4844 3.0547v12.652c0 2.582-0.73437 3.4141-3.3086 3.4531l-0.0352 0.96484h13.309v-0.89062c-2.582-0.19141-3.3633-1.0234-3.3633-3.5274v-7.1016c0-2.7539 1.7891-3.9375 3.5391-3.9453 1.8828-0.0117 3.9375 1.3945 5.4141 3.4414l1.4883-7.8828" fill="#1e4d2b"/>
  <path d="m91.059 45.531c0 25.148-20.383 45.531-45.531 45.531-25.145 0-45.528-20.382-45.528-45.531 0-25.144 20.383-45.531 45.527-45.531 25.148 0 45.531 20.387 45.531 45.531" fill="#c8c372"/>
  <path d="m89.172 45.531c0 24.102-19.535 43.645-43.645 43.645-24.102 0-43.641-19.543-43.641-43.645 0-24.105 19.539-43.641 43.641-43.641 24.109 0 43.645 19.535 43.645 43.641" fill="#1e4d2b"/>
  <g fill="#fff">
   <path d="m74.594 42.988c-0.20703-1.7109-1.7148-2.2422-3.0391-2.6562-3.8359-1.2031-5.4609 0.29688-6.5781 0.41406 1.207-1.3828 0.91016-3.6836-0.67969-3.9531-2.9805-0.47266-2.1562 2.75-1.4453 4.25 0.47266 0.94531 1.0586 2.5078 2.5391 2.3867 1.7969-0.14453 1.5273-1.6172 4.1289-1.8242 0 0 3.2422 0.23437 3.1914 1.2695-0.125 1.5312-1.8086 2.0898-2.8945 2.4766-1.625 0.53125-3.4844-0.26562-4.8125 1.2383-0.41016 0.50391-0.73828 1.1211-0.59375 1.6797 0.15234 0.56641 0.21484 0.32422 2.0117 0.47266-1.0039 1.2422-1.5977 3.1289-1.625 4.7812-0.05078 4.4531-1.1758 7.9062-0.73438 9.4453 2.1562-2.6016 2.1211-6.5234 2.4766-9.6523 0.20703-1.625 0.79297-3.4219 1.5938-4.6055 0.91406-1.3828 2.6562-1.4453 3.8047-2.2969 1.0938-0.80078 2.8008-2.1562 2.6562-3.4258"/>
   <path d="m34.762 49.223c-0.58984-1.0391-2.0898-0.83204-2.8008-1.2461-1.1445-0.73828-1.0898-2.332-0.02734-3.3047 1.3867-1.2695 4.9883 2.8008 4.1875 5.9883-0.35156 0.11718-0.52734-0.082-1.3594-1.4375zm3.8984 6.5703c1.207-1.8555 2.4805-5.8984 1.7422-7.6094-1.1797-0.47265-2.6016-1.3867-3.457-2.6875-0.85156-1.2383-1.3516-2.6211-2.8555-3.0352-1.0039-0.35938-2.1289-0.14453-2.9531 0.29687-1.3281 0.76563-1.6484 2.5938-1.8594 4.0391-0.08594 2.9805 0.46875 7.375 1.7695 10.148 0.76562 2.0625 2.5391 5.4844 4.75 8.6992-0.62109-5.1016 2.2109-8.4648 2.8633-9.8516"/>
   <path d="m50.074 69.453c-1.4961 0.14844-3.1406 0.5-4.4648 0.47266-1.3242 0.0273-2.9727-0.32422-4.4688-0.47266-0.24219-0.0273-0.41406 0.14844-0.41406 0.14844-0.875 1.8672 4.1406 2.8945 4.8672 2.8594 0.72656 0.0351 5.7695-0.99219 4.8945-2.8594 0 0-0.17188-0.17578-0.41406-0.14844"/>
   <path d="m27.152 36.793c-1.5625 0.26953-1.8594 2.5703-0.67578 3.9531-1.0938-0.11718-2.7188-1.6172-6.5508-0.41406-1.3242 0.41406-2.832 0.94531-3.0391 2.6562-0.14844 1.2695 1.5625 2.625 2.6562 3.4258 1.125 0.85156 2.8945 0.91406 3.8086 2.2969 0.76172 1.1836 1.3828 2.9805 1.5938 4.6055 0.34766 3.1289 0.29297 7.0508 2.4766 9.6523 0.41016-1.5391-0.71094-4.9922-0.73438-9.4453-0.03906-1.6524-0.65625-3.5391-1.625-4.7812 1.793-0.14844 1.8281 0.0937 1.9727-0.47266 0.17578-0.55859-0.17969-1.1758-0.58594-1.6797-1.3008-1.5039-3.1602-0.70703-4.8125-1.2383-1.0938-0.38672-2.7695-0.94531-2.8633-2.4766-0.05469-1.0352 3.1914-1.2695 3.1914-1.2695 2.5938 0.20703 2.2969 1.6797 4.0977 1.8242 1.4766 0.12109 2.0938-1.4414 2.5703-2.3867 0.70312-1.5 1.5273-4.7227-1.4805-4.25"/>
   <path d="m45.621 53.113v-0.004c-0.0078 0-0.01953 0.004-0.02734 0.004l-0.02734-0.004v0.004c-1.4141 0.0352-2.1719 1.2266-3.4844 2.5938-2.2695 2.4766-6.9336 8.6445-3.5391 11.562 1.5039 1.3008 3.4805 2.1836 6.1953 1.3555 0.67578-0.46875 0.29687-1.8555-0.05859-2.4805-1.2695-1.6484-3.2461-0.99609-3.8086-1.8203-0.53125-0.79688-0.17188-1.4219 0.15234-1.832 0.46875-0.58985 1.2305-0.44141 1.8828-0.26563 1.1523 0.26172 1.9375 0.7461 2.6602 1.4453v0.0586c0.0078-0.0117 0.01953-0.0195 0.02734-0.0274 0.0078 0.008 0.01953 0.0156 0.02734 0.0274v-0.0586c0.69922-0.70312 1.5078-1.1836 2.6562-1.4453 0.62109-0.17578 1.418-0.32422 1.8594 0.26563 0.35156 0.41015 0.67578 1.0352 0.14844 1.832-0.5625 0.82422-2.5078 0.17187-3.7773 1.8203-0.35547 0.625-0.76953 2.0117-0.08984 2.4805 2.7422 0.82812 4.6914-0.0547 6.1953-1.3555 3.4219-2.918-1.2383-9.0859-3.5391-11.562-1.2773-1.3672-2.0742-2.5586-3.4531-2.5938"/>
   <path d="m59.078 47.977c-0.67969 0.41406-2.1875 0.20703-2.8047 1.2461-0.82031 1.3555-1.0039 1.5547-1.3594 1.4375-0.79297-3.1875 2.8008-7.2578 4.1914-5.9883 1.0898 0.97266 1.1211 2.5664-0.02734 3.3047zm0.82031-5.2188c-0.82031-0.4414-1.9414-0.65625-2.9453-0.29687-1.5 0.41406-1.9805 1.7969-2.8672 3.0352-0.85156 1.3008-2.2695 2.2148-3.4492 2.6875-0.74219 1.7109 0.53516 5.7539 1.7422 7.6094 0.67578 1.3867 3.4766 4.75 2.8906 9.8516 2.2109-3.2148 3.9805-6.6367 4.7188-8.6992 1.3008-2.7734 1.8906-7.168 1.7695-10.148-0.17578-1.4453-0.53125-3.2734-1.8594-4.0391"/>
   <path d="m77.207 22.387zm-7.2461 53.812zm6.4062-6.1953c-1.3711 1.8594-2.9453 3.3906-4.9414 4.1016-1.2539 0.5-2.5664 0.71094-3.8477 0.11719-1.0078-0.44141-1.6367-1.4453-1.8164-2.5703-0.23438-1.6484 0.6875-3.5976 1.4883-4.8945 1.1055-1.8555 3.6367-5.0976 6.5586-7.2539 4.1406-3.0703 7.0312-3.9258 5.957-4.6328-0.74219-0.5039-4.6719 1.6524-5.4492 2.0664-4.4141 2.2734-10.496 8.8516-11.207 13.719-0.49219 3.3555 2.8203 5.875 5.6758 5.7578-9.4727 7.6055-19.777 7.8555-23.234 7.9336h-0.03125c-3.4844-0.082-13.812-0.33985-23.246-7.9336 2.8516 0.1211 6.1758-2.4023 5.6758-5.7578-0.716-4.867-6.821-11.445-11.2-13.718-0.77734-0.41406-4.7148-2.5703-5.457-2.0664-1.0742 0.70703 1.8164 1.5625 5.9609 4.6328 2.9219 2.1562 5.4219 5.3984 6.5234 7.2539 0.83594 1.2969 1.7617 3.2461 1.5195 4.8945-0.17578 1.125-0.83203 2.1289-1.8164 2.5703-1.2852 0.59375-2.5898 0.38281-3.875-0.11719-1.9609-0.71094-3.543-2.2422-4.9141-4.1016-2.5938-3.5117-5.1211-7.5508-6.4062-11.828 1.0977 2.4453 8.0742 12.688 11.172 12.832 3.1875 0.17969-3.0977-8.3164-7.4219-11.859-1.0391-0.85547-2.2344-1.8594-2.4648-3.4531-0.1875-1.1562 0.41016-1.918 1.543-1.9726 1.7344-0.0625 6.2305 2.2695 6.2852 2.1836-7.8008-14.016 4.1445-21.098-0.80078-24.164-1.7305-1.0938-5.3906 0-7.3906 0.29687 18.391-10.863 21.602-0.0312 27.145 4.9492 0.86719 0.80078 4.7695 0 5.5117-0.91016 0.98437-1.1836 2.9492-5.4297 0.71875-8.2305-3.0859-3.9024-15.484-15.102-27.215-6.6562 2.8555-3.9297 7.1602-7.4844 12.301-10.121 5.793-2.9726 12.145-4.5195 17.875-4.3555h0.03125c11.246-0.3164 23.824 5.8203 30.117 14.477-11.758-8.4453-24.129 2.7539-27.242 6.6562-2.2031 2.8008-0.26562 7.0469 0.71875 8.2305 0.76953 0.91016 4.6719 1.7109 5.5391 0.91016 5.543-4.9805 8.7617-15.812 27.141-4.9492-1.9922-0.29687-5.6875-1.3906-7.3828-0.29687-4.9531 3.0664 6.9688 10.148-0.80859 24.164 0.0625 0.0859 4.5625-2.2461 6.2891-2.1836 1.1289 0.0547 1.7266 0.8164 1.5508 1.9726-0.24219 1.5938-1.4609 2.5977-2.4727 3.4531-4.3203 3.543-10.605 12.039-7.4531 11.859 3.1328-0.14453 10.102-10.387 11.203-12.832-1.2773 4.2773-3.8398 8.3164-6.4062 11.828zm-30.824-65.746c-22.742 0-41.27 18.527-41.27 41.273 0 22.719 18.527 41.27 41.27 41.27 22.715 0 41.242-18.551 41.242-41.27 0-22.746-18.527-41.273-41.242-41.273"/>
  </g>
 </g>
</svg>
