<svg width="330" height="96" viewBox="0 0 330 96" xmlns="http://www.w3.org/2000/svg"><g fill="#BE1F24" fill-rule="nonzero"><path d="M138.55 43.405c-1.883.492-3.93.657-5.895.657-4.504 0-9.253-.821-12.856-3.775-3.112-2.543-4.913-6.318-4.913-10.256 0-7.631 6.714-12.472 13.757-12.472 4.258 0 7.943 1.559 10.645 5.005l-4.668 5.005-1.72-1.066c.246-.41.41-.82.492-1.313 0-2.544-2.293-3.857-4.586-3.857-4.83 0-6.96 3.61-6.96 8.123 0 5.416 3.767 10.585 9.417 10.585 2.047 0 4.504-.492 5.24-2.79h2.048v6.154zM149.196 25.354c4.995 0 9.744 3.61 9.744 8.943 0 5.744-4.094 9.6-9.744 9.6-5.65 0-10.072-3.446-10.072-9.435.082-5.662 4.913-9.108 10.072-9.108zm.082 15.18c3.03 0 3.603-4.021 3.603-6.237 0-2.297-.819-5.58-3.603-5.58-2.784 0-3.849 3.283-3.849 5.662 0 2.544.573 6.154 3.849 6.154z"/><path d="M165.9 39.63c0 .985.083 1.97 1.31 2.052v1.641h-8.433v-1.64c1.228-.165 1.31-.986 1.31-2.052V21.826c0-1.067-.082-1.97-1.31-2.052v-1.723h7.206v21.58h-.082zM177.774 25.354c4.995 0 9.745 3.61 9.745 8.943 0 5.744-4.095 9.6-9.745 9.6-5.65 0-10.072-3.446-10.072-9.435 0-5.662 4.831-9.108 10.072-9.108zm0 15.18c3.03 0 3.603-4.021 3.603-6.237 0-2.297-.819-5.58-3.603-5.58-2.784 0-3.848 3.283-3.848 5.662 0 2.544.573 6.154 3.848 6.154z"/><path d="M198.737 30.687c-.246-.902-.819-1.64-1.802-1.64-2.047 0-2.538 1.886-2.538 3.61v6.892c0 .984.082 1.969 1.31 2.051v1.641h-8.434V41.6c1.228-.164 1.31-.985 1.31-2.051v-9.846c0-1.067-.082-1.97-1.31-2.052v-1.723h6.55v1.805c1.311-1.477 3.03-2.297 4.996-2.297.737 0 1.392 0 2.047.246v5.087h-2.129v-.082zM201.521 26.83c2.375-.902 5.077-1.476 7.615-1.476 4.259 0 8.598.656 8.598 5.99v8.287c0 .738 0 1.969.983 2.051h.328v1.723h-6.879v-1.477c-1.801 1.477-3.275 1.97-5.65 1.97-3.03 0-5.978-1.642-6.223-5.006 0-6.154 7.206-6.4 11.628-7.63 0-2.38-1.802-2.872-3.767-2.872-1.72 0-3.521.738-4.094 2.543h-2.539v-4.102zm4.831 11.242c0 1.395.901 2.38 2.293 2.38.983 0 3.276-1.314 3.276-2.298v-4.02c-1.884.738-5.323 1.312-5.569 3.938zM231.819 21.826c0-1.067-.082-1.97-1.31-2.052v-1.64h7.206v21.579c0 .738 0 1.97.982 2.051h.328v1.723h-6.96v-1.723c-1.393 1.313-3.276 2.215-5.241 2.215-4.504 0-7.943-3.856-7.943-8.369 0-7.384 6.715-10.174 13.02-10.174v-3.61h-.082zm-6.551 13.456c0 2.133 1.146 4.595 3.521 4.595 1.228 0 2.13-.492 3.03-1.23V28.553c-3.685 0-6.551 2.954-6.551 6.728z"/><path d="M248.851 25.354c4.995 0 9.745 3.61 9.745 8.943 0 5.744-4.095 9.6-9.745 9.6-5.65 0-10.072-3.446-10.072-9.435 0-5.662 4.831-9.108 10.072-9.108zm0 15.18c3.03 0 3.603-4.021 3.603-6.237 0-2.297-.819-5.58-3.603-5.58-2.784 0-3.849 3.283-3.849 5.662 0 2.544.574 6.154 3.85 6.154zM120.536 69.58c0 1.23.328 1.887 1.556 2.05v1.806h-7.288V71.63c1.146-.082 1.556-.82 1.556-2.052V51.94c0-1.395-.328-1.888-1.556-2.052v-1.805h8.598l9.99 10.339v-6.4c0-1.313-.327-1.806-1.556-2.052v-1.805h7.288v1.805l-.491.082c-.983.082-1.147 1.149-1.147 1.97v17.64c0 .821.164 1.806 1.147 1.97h.491v1.805h-7.288V71.63c1.147-.082 1.556-.82 1.556-2.052v-2.461l-12.856-12.8v15.261z"/><path d="M148.623 55.385c4.995 0 9.744 3.61 9.744 8.943 0 5.744-4.094 9.6-9.744 9.6-5.65 0-10.072-3.446-10.072-9.436.082-5.743 4.831-9.107 10.072-9.107zm0 15.097c3.03 0 3.603-4.02 3.603-6.236 0-2.297-.82-5.58-3.603-5.58-2.784 0-3.849 3.283-3.849 5.662 0 2.544.573 6.154 3.849 6.154z"/><path d="M169.504 60.718c-.246-.903-.82-1.641-1.802-1.641-2.047 0-2.538 1.887-2.538 3.61v6.892c0 1.067.082 1.97 1.31 2.052v1.64h-8.434v-1.64c1.228-.164 1.31-1.067 1.31-2.052v-9.928c0-1.066-.082-1.969-1.31-2.051v-1.723h6.55v1.805c1.31-1.477 3.03-2.297 4.996-2.297.737 0 1.392 0 2.047.246v5.087h-2.13zM180.067 68.185c0 1.312.164 2.461 1.801 2.461 1.147 0 1.638-.984 1.802-1.97h1.72v4.268c-1.556.656-3.44.984-5.16.984-3.93 0-5.977-1.559-5.977-5.743V58.83h-2.293v-2.872h2.293v-5.17l5.896-1.394v6.564h4.258v2.872h-4.258v9.354h-.082zM193.087 57.272a7.94 7.94 0 014.995-1.805c3.685 0 6.469 2.297 6.469 6.154v8.369c0 .738 0 1.64.9 1.723h.328v1.64h-8.434v-1.64c1.228-.164 1.31-1.067 1.31-2.051v-6.729c0-1.805-.41-3.856-2.62-3.856-1.229 0-2.211.82-3.03 1.559v9.026c0 1.066 0 1.969 1.31 2.05v1.642h-8.434v-1.641c1.228-.164 1.31-1.067 1.31-2.051V51.856c0-1.066-.082-1.969-1.31-2.05v-1.724h7.206v9.19zM214.95 73.436h-4.749l-4.504-13.539c-.327-.984-.573-2.05-1.801-2.215v-1.641h8.516v1.641c-.41 0-1.065.082-1.065.574 0 .165.082.41.164.493l2.293 7.466 2.129-6.4c-.328-.902-.491-2.133-1.638-2.215v-1.641h8.27V57.6c-.409 0-.982 0-.982.574 0 .247 0 .493.082.82l2.21 7.221 2.13-6.81c.082-.328.246-.574.246-.902 0-.657-.492-.82-1.065-.903v-1.641h6.223V57.6h-.081c-.82 0-1.147.656-1.393 1.395l-4.749 14.44h-4.913l-2.702-8.204-2.62 8.205z"/><path d="M247.46 68.185v4.184c-2.376.985-4.75 1.477-7.289 1.477-5.486 0-10.563-3.2-10.563-9.272 0-5.333 3.93-9.271 9.253-9.271 5.159 0 8.598 2.953 8.598 8.287v.984h-11.955c.163 3.447 1.883 6.154 5.568 6.154 1.801 0 3.93-.656 4.586-2.543h1.801zm-8.845-9.847c-1.801 0-2.702 1.97-2.948 3.529h5.569c0-1.56-.737-3.529-2.62-3.529zM262.117 61.456l-1.72-.656c0-.164.082-.328.082-.492 0-1.477-1.802-1.887-2.948-1.887-1.064 0-2.62.328-2.62 1.64 0 2.626 9.826 1.313 9.826 7.631 0 4.841-4.422 6.318-8.434 6.318-2.948 0-5.814-.82-8.189-2.543l2.702-4.103 1.638.739c-.082.246-.164.492-.164.656 0 1.805 2.293 2.215 3.603 2.215 1.147 0 3.194-.246 3.194-1.805 0-2.954-9.908-1.395-9.908-8.04 0-4.103 4.34-5.662 7.697-5.662 2.62 0 5.404.656 7.533 2.297l-2.292 3.692zM273.007 68.185c0 1.312.164 2.461 1.802 2.461 1.146 0 1.638-.984 1.801-1.97h1.72v4.268c-1.556.656-3.44.984-5.159.984-3.93 0-5.977-1.559-5.977-5.743V58.83H264.9v-2.872h2.293v-5.17l5.895-1.394v6.564h4.258v2.872h-4.258v9.354h-.082z"/><path d="M295.362 68.185v4.184c-2.374.985-4.75 1.477-7.288 1.477-5.486 0-10.563-3.2-10.563-9.272 0-5.333 3.93-9.271 9.253-9.271 5.16 0 8.598 2.953 8.598 8.287v.984h-11.955c.164 3.447 1.883 6.154 5.568 6.154 1.802 0 3.93-.656 4.586-2.543h1.801zm-8.925-9.847c-1.802 0-2.703 1.97-2.948 3.529h5.568c0-1.56-.737-3.529-2.62-3.529zM307.318 60.718c-.246-.903-.82-1.641-1.802-1.641-2.047 0-2.538 1.887-2.538 3.61v6.892c0 1.067.082 1.97 1.31 2.052v1.64h-8.434v-1.64c1.228-.164 1.31-1.067 1.31-2.052v-9.928c0-1.066-.082-1.969-1.31-2.051v-1.723h6.55v1.805c1.31-1.477 3.03-2.297 4.996-2.297.736 0 1.392 0 2.047.246v5.087h-2.13zM321.975 55.467c3.767 0 6.305 2.297 6.305 6.154V69.826c0 1.148.082 1.805 1.31 1.969v1.64h-8.516v-1.64c1.229-.164 1.31-1.067 1.31-2.051v-7.139c0-1.64-.49-3.446-2.538-3.446-1.228 0-2.21.82-3.03 1.559v8.944c0 .984.164 1.969 1.31 2.05v1.642h-8.434v-1.641c1.229-.164 1.31-1.067 1.31-2.051v-10.01c0-.985-.081-2.052-1.31-2.052v-1.641h6.797v1.723c1.064-1.723 3.685-2.215 5.486-2.215zM.409 82.215l15.231-8.779 22.846 14.277v-8.369L15.64 65.067.409 73.846zM42.253 90.092l12.611-7.302 12.937 8.123v-8.451l-12.937-8.041-12.611 7.302z"/><path d="M.409 69.005l15.231-8.779 22.846 14.277v-8.37L15.64 51.856.409 60.636zM42.253 76.882l12.611-7.22 12.937 8.041v-8.452L54.864 61.21l-12.611 7.303z"/><path d="M.409 55.795l15.231-8.78 22.846 14.277v-8.369L15.64 38.646.409 47.426zM65.754 50.133l25.467-14.769 18.015 11.241v-8.369L91.221 26.995l-32.427 18.79z"/><path d="M71.568 60.062l19.653-11.406 18.015 11.241v-8.451L91.221 40.205 71.486 51.692z"/><path d="M71.486 73.272l19.735-11.405 18.015 11.241v-8.37L91.221 53.497 71.568 64.903zM42.253 63.672l12.611-7.221 12.937 8.041v-8.451L54.864 48l-12.611 7.303zM42.253 42.092l-14.412-9.025c-.164-1.15-.327-2.38-.327-3.61 0-11.488 9.335-20.924 20.799-20.924 10.563 0 19.243 7.877 20.635 18.052L42.253 42.092zM76.4 22.4C73.206 9.846 61.906.492 48.313.492c-15.395 0-28.005 12.062-28.906 27.323l-3.767-2.38-15.23 8.78v8.452l15.23-8.78 26.613 16.657 49.05-28.308 17.933 11.24v-8.45L91.303 13.785 76.4 22.4zM127.66 91.733c-.983.246-2.129.329-3.112.329-2.374 0-4.913-.41-6.796-2.052-1.638-1.313-2.62-3.364-2.62-5.497 0-4.02 3.602-6.646 7.287-6.646 2.293 0 4.258.82 5.65 2.625l-2.456 2.626-.9-.574c.081-.247.245-.41.245-.657 0-1.395-1.228-2.051-2.457-2.051-2.538 0-3.685 1.887-3.685 4.349 0 2.871 1.966 5.661 4.995 5.661 1.065 0 2.375-.246 2.785-1.477h1.064v3.364zM133.31 82.133c2.62 0 5.159 1.888 5.159 4.76 0 3.035-2.21 5.086-5.159 5.086-3.03 0-5.322-1.805-5.322-5.005.081-3.036 2.62-4.84 5.322-4.84zm.082 8.041c1.556 0 1.883-2.133 1.883-3.364 0-1.23-.409-2.954-1.883-2.954s-2.047 1.723-2.047 2.954c0 1.477.246 3.364 2.047 3.364zM145.184 82.215c1.146 0 1.965.329 2.62 1.231.9-.902 1.883-1.23 3.112-1.23 1.801 0 3.357.984 3.357 2.953v4.595c0 .41 0 1.067.491 1.067h.164v.902h-4.422v-.902c.573-.082.655-.41.655-.985v-4.02c0-.82-.163-1.723-1.228-1.723-.9 0-1.638.82-1.638 1.723v3.856c0 .41 0 1.067.492 1.067h.163v.902h-4.421v-.902c.655-.082.737-.575.737-1.149v-3.856c0-.82-.246-1.723-1.229-1.723-.655 0-1.146.41-1.556.82V89.6c0 .492.082 1.067.737 1.149v.902h-4.421v-.902c.655-.082.736-.575.736-1.149v-5.251c0-.493-.081-1.067-.736-1.067v-.903h3.603v.903c.818-.656 1.801-1.067 2.784-1.067zM161.888 82.215c1.147 0 1.966.329 2.62 1.231.901-.902 1.884-1.23 3.112-1.23 1.802 0 3.358.984 3.358 2.953v4.595c0 .41 0 1.067.491 1.067h.164v.902h-4.422v-.902c.573-.082.655-.41.655-.985v-4.02c0-.82-.164-1.723-1.228-1.723-.901 0-1.638.82-1.638 1.723v3.856c0 .41 0 1.067.491 1.067h.164v.902h-4.422v-.902c.655-.082.737-.575.737-1.149v-3.856c0-.82-.245-1.723-1.228-1.723-.655 0-1.146.41-1.556.82V89.6c0 .492.082 1.067.737 1.149v.902h-4.34v-.902c.655-.082.737-.575.737-1.149v-5.251c0-.493-.082-1.067-.737-1.067v-.903h3.603v.903c.737-.656 1.638-1.067 2.702-1.067zM175.481 91.98c-1.883 0-3.52-1.067-3.52-3.118V84.43c0-.493-.083-1.067-.738-1.067v-.902h3.767v5.99c0 .902.41 1.64 1.31 1.64.737 0 1.392-.492 1.72-1.148V84.43c0-.493-.082-1.067-.655-1.067v-.902h3.767v7.302c0 .41 0 1.067.49 1.067h.165v.902h-3.521v-.902c-.656.738-1.72 1.148-2.785 1.148zM188.91 82.215c2.048 0 3.358 1.231 3.358 3.282v4.349c0 .575.082.985.655 1.067v.902h-4.504v-.902c.655-.082.737-.575.737-1.149V85.99c0-.903-.245-1.805-1.31-1.805-.655 0-1.146.41-1.556.82v4.76c0 .491.082 1.066.655 1.148v.902h-4.503v-.902c.655-.082.737-.575.737-1.149v-5.333c0-.493 0-1.067-.737-1.067v-.902h3.603v.902c.491-.902 1.883-1.149 2.866-1.149zM197.1 89.682c0 .574 0 1.067.654 1.149v.902h-4.503v-.902c.655-.082.737-.575.737-1.149v-5.17c0-.574-.164-.82-.737-1.066v-.984h3.766v7.22h.082zm-1.802-8.123c-.983 0-1.72-.82-1.72-1.805s.737-1.805 1.72-1.805c.9 0 1.801.656 1.883 1.64 0 1.067-.819 1.97-1.883 1.97zM201.849 88.944c0 .738.082 1.312.9 1.312.574 0 .901-.492.983-1.066h.9v2.297c-.818.328-1.8.492-2.783.492-2.048 0-3.194-.82-3.194-3.035v-5.006h-1.228v-1.476h1.228v-2.708l3.112-.739v3.447h2.293v1.476h-2.293v5.006h.082z"/><path d="M211.593 84.349c.082-.164.164-.328.164-.493 0-.328-.328-.492-.655-.492v-.902h3.685v.902c-.574.082-.901.492-1.065.985l-2.948 8.615c-.655 1.97-1.801 3.036-3.93 3.036a8.728 8.728 0 01-2.047-.246v-2.79h1.064c.164.657.573 1.149 1.228 1.149.901 0 1.392-.575 1.556-1.395l-3.112-8.041c-.245-.656-.409-1.313-1.228-1.395v-.903h4.831v.903c-.245 0-.573.082-.573.41 0 .164 0 .329.082.493l1.638 4.348 1.31-4.184zM231.983 91.733c-.983.246-2.13.329-3.112.329-2.375 0-4.913-.41-6.797-2.052-1.637-1.313-2.62-3.364-2.62-5.497 0-4.02 3.603-6.646 7.288-6.646 2.293 0 4.258.82 5.65 2.625l-2.457 2.626-.9-.574c.082-.247.245-.41.245-.657 0-1.395-1.228-2.051-2.456-2.051-2.539 0-3.685 1.887-3.685 4.349 0 2.871 1.965 5.661 4.995 5.661 1.065 0 2.375-.246 2.784-1.477h1.065v3.364zM237.633 82.133c2.62 0 5.159 1.888 5.159 4.76 0 3.035-2.211 5.086-5.16 5.086-3.029 0-5.322-1.805-5.322-5.005 0-3.036 2.539-4.84 5.323-4.84zm0 8.041c1.556 0 1.883-2.133 1.883-3.364 0-1.23-.41-2.954-1.883-2.954-1.474 0-2.047 1.723-2.047 2.954 0 1.477.327 3.364 2.047 3.364z"/><path d="M246.64 89.682c0 .574 0 1.067.655 1.149v.902h-4.503v-.902c.655-.082.737-.575.737-1.149v-9.436c0-.574-.082-1.067-.737-1.067v-.902h3.766v11.405h.082zM251.553 89.682c0 .574 0 1.067.655 1.149v.902h-4.503v-.902c.655-.082.737-.575.737-1.149v-9.436c0-.574-.082-1.067-.737-1.067v-.902h3.766v11.405h.082zM261.543 88.944v2.215c-1.228.492-2.538.82-3.848.82-2.948 0-5.568-1.723-5.568-4.923 0-2.871 2.129-4.923 4.913-4.923 2.784 0 4.585 1.56 4.585 4.431v.492h-6.305c.082 1.806.983 3.282 2.948 3.282.983 0 2.047-.328 2.457-1.394h.818zm-4.667-5.252c-.983 0-1.474 1.067-1.556 1.887h2.948c-.082-.82-.41-1.887-1.392-1.887z"/><path d="M263.509 92.144l.737.574c-.082.082-.082.246-.082.328.082.985 1.31 1.23 2.129 1.23 1.146 0 2.456-.655 2.456-1.886 0-.493-.163-.903-.163-1.313-.82.492-1.638.82-2.539.82-2.375 0-4.34-1.64-4.34-4.102 0-3.692 3.112-5.416 6.387-5.416h4.095v.903h-.164c-.492.082-.492.656-.492 1.067v6.072c0 .738.328 1.312.328 2.05 0 2.708-3.275 3.529-5.404 3.529-2.048 0-3.767-.738-5.16-2.215l2.212-1.641zm1.474-4.76c0 1.15.327 2.708 1.801 2.708.655 0 1.147-.328 1.556-.738v-5.17c-1.965 0-3.357 1.067-3.357 3.2z"/><path d="M281.36 88.944v2.215c-1.228.492-2.539.82-3.849.82-2.948 0-5.568-1.723-5.568-4.923 0-2.871 2.129-4.923 4.913-4.923 2.784 0 4.586 1.56 4.586 4.431v.492h-6.306c.082 1.806.983 3.282 2.948 3.282.983 0 2.048-.328 2.457-1.394h.819zm-4.75-5.252c-.982 0-1.474 1.067-1.555 1.887h2.947c0-.82-.409-1.887-1.392-1.887z"/></g></svg>