<svg xmlns="http://www.w3.org/2000/svg" xmlns:xlink="http://www.w3.org/1999/xlink" width="259.482" height="79.665" viewBox="0 0 259.482 79.665"><defs><style>.a{fill:#af272f;}.b{clip-path:url(#a);}</style><clipPath id="a"><rect class="a" width="259.482" height="79.665" transform="translate(0 0)"/></clipPath></defs><g transform="translate(0 0)"><g class="b"><path class="a" d="M23.708,55.949a6.384,6.384,0,0,0-9.114,8.937l15.859,6.426Z"/><path class="a" d="M0,73.351a6.314,6.314,0,1,0,6.314-6.313A6.314,6.314,0,0,0,0,73.351"/><path class="a" d="M36.928,43.518a6.383,6.383,0,0,0-9.113,8.937L53.079,66.182Z"/><path class="a" d="M49.557,30.626a6.384,6.384,0,0,0-9.114,8.937l40.13,28.723Z"/><path class="a" d="M62.514,17.471A6.384,6.384,0,0,0,53.4,26.408L109.118,72.76Z"/><path class="a" d="M75.472,5.106a6.384,6.384,0,0,0-9.115,8.938l71.438,63.715Z"/><path class="a" d="M100.765,5.218a5.086,5.086,0,0,1,2.52-.7,7.554,7.554,0,0,1,1.531.185,13.7,13.7,0,0,1,1.942.583,20.953,20.953,0,0,1,2.281,1.034l.358-4.415q-.583-.252-1.306-.5T106.539.968A17.1,17.1,0,0,0,104.823.65a13.428,13.428,0,0,0-1.777-.119,10.111,10.111,0,0,0-5.23,1.279A8.523,8.523,0,0,0,94.5,5.323,10.974,10.974,0,0,0,93.354,10.4a11.041,11.041,0,0,0,.7,4,8.692,8.692,0,0,0,2,3.1,8.882,8.882,0,0,0,3.162,2,11.7,11.7,0,0,0,4.163.7,15.037,15.037,0,0,0,1.6-.086q.8-.087,1.564-.245t1.472-.366a9.966,9.966,0,0,0,1.28-.457l-.252-4.388a8.114,8.114,0,0,1-1.279.761,9.43,9.43,0,0,1-1.313.511,9.819,9.819,0,0,1-1.273.3,7.41,7.41,0,0,1-1.174.1,6.272,6.272,0,0,1-2.518-.491,5.07,5.07,0,0,1-1.79-1.293,5.359,5.359,0,0,1-1.068-1.882,7.229,7.229,0,0,1-.351-2.274,6.844,6.844,0,0,1,.677-3.2,4.756,4.756,0,0,1,1.815-1.969"/><path class="a" d="M122.185,8.214a6,6,0,0,0-2.214-1.479,8.429,8.429,0,0,0-3.123-.53,7.63,7.63,0,0,0-3.892.915,5.922,5.922,0,0,0-2.366,2.492,7.8,7.8,0,0,0-.8,3.554,8.4,8.4,0,0,0,.418,2.646,6.328,6.328,0,0,0,1.3,2.253,6.134,6.134,0,0,0,2.234,1.558,8.2,8.2,0,0,0,3.2.57,7.371,7.371,0,0,0,3.8-.921,6.119,6.119,0,0,0,2.394-2.512,7.719,7.719,0,0,0,.822-3.594,8.219,8.219,0,0,0-.444-2.738,6.243,6.243,0,0,0-1.326-2.214m-2.884,6.7a2.879,2.879,0,0,1-.888,1.28,2.419,2.419,0,0,1-1.5.51,2.48,2.48,0,0,1-1.518-.517,3.051,3.051,0,0,1-.935-1.286,4.958,4.958,0,0,1,0-3.494,2.834,2.834,0,0,1,.935-1.232,2.672,2.672,0,0,1,1.518-.5,2.8,2.8,0,0,1,1.439.47,2.618,2.618,0,0,1,.921,1.188,4.772,4.772,0,0,1,.318,1.829,5.056,5.056,0,0,1-.292,1.75"/><path class="a" d="M129.63,3.222q.066-1.669.159-3.222l-4.852.411q.2,1.578.271,3.149t.072,3.176v7.372q0,1.644-.045,2.97t-.126,2.745h4.627q-.079-1.419-.127-2.745t-.045-2.97V6.736q0-1.844.066-3.514"/><path class="a" d="M143.293,8.214a6.006,6.006,0,0,0-2.215-1.479,8.424,8.424,0,0,0-3.122-.53,7.628,7.628,0,0,0-3.892.915A5.936,5.936,0,0,0,131.7,9.612a7.808,7.808,0,0,0-.8,3.554,8.4,8.4,0,0,0,.417,2.646,6.316,6.316,0,0,0,1.3,2.253,6.134,6.134,0,0,0,2.234,1.558,8.2,8.2,0,0,0,3.2.57,7.372,7.372,0,0,0,3.8-.921,6.132,6.132,0,0,0,2.394-2.512,7.719,7.719,0,0,0,.822-3.594,8.219,8.219,0,0,0-.445-2.738,6.241,6.241,0,0,0-1.325-2.214m-2.883,6.7a2.89,2.89,0,0,1-.89,1.28,2.415,2.415,0,0,1-1.5.51,2.475,2.475,0,0,1-1.517-.517,3.044,3.044,0,0,1-.936-1.286,4.958,4.958,0,0,1,0-3.494,2.828,2.828,0,0,1,.936-1.232,2.666,2.666,0,0,1,1.517-.5,2.8,2.8,0,0,1,1.439.47,2.627,2.627,0,0,1,.922,1.188,4.772,4.772,0,0,1,.318,1.829,5.1,5.1,0,0,1-.291,1.75"/><path class="a" d="M154.172,6.2a3.464,3.464,0,0,0-1.2.226,3.907,3.907,0,0,0-1.24.782,5.768,5.768,0,0,0-1.166,1.551h-.359l-.2-2.4-3.9.212q.2,1.591.272,3.136t.073,3.069v1.326q0,1.646-.04,2.971t-.133,2.744h4.628q-.093-1.417-.133-2.718t-.039-2.757V12.384a3.2,3.2,0,0,1,.543-.935,2.768,2.768,0,0,1,.67-.57,2.435,2.435,0,0,1,.709-.285,3.124,3.124,0,0,1,.676-.079,5.878,5.878,0,0,1,.883.072c.313.049.634.1.961.166l.371-4.3a2.238,2.238,0,0,0-.71-.2,5.562,5.562,0,0,0-.669-.047"/><path class="a" d="M168.094,15.288V14.213q0-.729.019-1.657t.021-1.592a5.176,5.176,0,0,0-.637-2.717A3.768,3.768,0,0,0,165.648,6.7a7.6,7.6,0,0,0-2.884-.5,13.558,13.558,0,0,0-1.7.106q-.843.105-1.6.252t-1.419.312q-.655.165-1.159.324l.2,3.713c.407-.177.828-.338,1.26-.485s.856-.273,1.267-.383.789-.195,1.133-.252A5.349,5.349,0,0,1,161.6,9.7a5.08,5.08,0,0,1,1.372.166,1.722,1.722,0,0,1,.908.563,1.465,1.465,0,0,1,.278,1.048l-3.632.583a9.946,9.946,0,0,0-1.412.365,4.8,4.8,0,0,0-1.373.723,3.69,3.69,0,0,0-1.041,1.239,4.04,4.04,0,0,0-.4,1.9,4.246,4.246,0,0,0,.457,2.015,3.311,3.311,0,0,0,1.3,1.346,3.907,3.907,0,0,0,1.982.484,4.284,4.284,0,0,0,1.618-.3,4.96,4.96,0,0,0,1.333-.789,6.1,6.1,0,0,0,.961-1h.318l.372,1.776h3.884a22.832,22.832,0,0,1-.331-2.38q-.093-1.12-.093-2.154m-4.044-.054a3.534,3.534,0,0,1-.656.862,3.225,3.225,0,0,1-.8.564,1.827,1.827,0,0,1-.783.2,1.618,1.618,0,0,1-.968-.305,1.155,1.155,0,0,1-.424-1.008,1.519,1.519,0,0,1,.69-1.312,2.146,2.146,0,0,1,.755-.3q.742-.159,1.167-.265a3.784,3.784,0,0,0,.649-.212,1.819,1.819,0,0,0,.372-.226Z"/><path class="a" d="M182.679,3.222q.066-1.671.159-3.222L178,.411q.186,1.591.266,3.155t.079,3.169V7.916H178A4.206,4.206,0,0,0,177.1,7a4,4,0,0,0-1.147-.591,4.314,4.314,0,0,0-1.345-.2,4.6,4.6,0,0,0-2.918.922,5.594,5.594,0,0,0-1.777,2.506,10.016,10.016,0,0,0-.6,3.547,10.262,10.262,0,0,0,.563,3.44,5.846,5.846,0,0,0,1.731,2.586,4.419,4.419,0,0,0,2.957.987A4.23,4.23,0,0,0,176,19.948a4.811,4.811,0,0,0,1.3-.716,6.589,6.589,0,0,0,1.146-1.133h.279l.292,1.723h3.765q-.093-1.417-.132-2.744t-.04-2.971V6.735q0-1.842.066-3.513m-4.336,11.986a3.072,3.072,0,0,1-.557.709,2.409,2.409,0,0,1-.71.465,2.345,2.345,0,0,1-.854.179,2.259,2.259,0,0,1-1.425-.5,2.826,2.826,0,0,1-.843-1.226,4.9,4.9,0,0,1,.007-3.275,2.753,2.753,0,0,1,.849-1.207,2.331,2.331,0,0,1,1.425-.477,2.737,2.737,0,0,1,.776.14,3,3,0,0,1,.722.357,2.76,2.76,0,0,1,.61.563Z"/><path class="a" d="M196.157,8.214a6.006,6.006,0,0,0-2.215-1.479,8.424,8.424,0,0,0-3.122-.53,7.625,7.625,0,0,0-3.892.915,5.93,5.93,0,0,0-2.367,2.492,7.808,7.808,0,0,0-.795,3.554,8.4,8.4,0,0,0,.417,2.646,6.316,6.316,0,0,0,1.3,2.253,6.134,6.134,0,0,0,2.234,1.558,8.2,8.2,0,0,0,3.2.57,7.375,7.375,0,0,0,3.8-.921A6.132,6.132,0,0,0,197.1,16.76a7.719,7.719,0,0,0,.822-3.594,8.219,8.219,0,0,0-.445-2.738,6.241,6.241,0,0,0-1.325-2.214m-2.884,6.7a2.88,2.88,0,0,1-.889,1.28,2.415,2.415,0,0,1-1.5.51,2.48,2.48,0,0,1-1.518-.517,3.051,3.051,0,0,1-.935-1.286,4.958,4.958,0,0,1,0-3.494,2.834,2.834,0,0,1,.935-1.232,2.672,2.672,0,0,1,1.518-.5,2.8,2.8,0,0,1,1.439.47,2.627,2.627,0,0,1,.922,1.188,4.772,4.772,0,0,1,.318,1.829,5.079,5.079,0,0,1-.292,1.75"/><path class="a" d="M124.784,30.733h.732q1.485,0,2.638.059c.77.04,1.489.1,2.161.179V26.635H114.471v4.336q1.034-.12,2.174-.179t2.625-.059H120c.024.9.037,1.889.037,2.982V39.39q0,1.778-.047,3.209t-.139,2.944h5.078q-.093-1.512-.139-2.944t-.046-3.209V33.715c0-1.093.013-2.085.037-2.982"/><path class="a" d="M136.64,32.569a6.992,6.992,0,0,0-3.13-.644,6.742,6.742,0,0,0-3.6.889,5.5,5.5,0,0,0-2.154,2.46,8.616,8.616,0,0,0-.717,3.612,8.127,8.127,0,0,0,.777,3.634,5.673,5.673,0,0,0,2.413,2.487,8.669,8.669,0,0,0,4.222.907,12.759,12.759,0,0,0,1.876-.126,12.158,12.158,0,0,0,1.552-.324q.7-.2,1.24-.385l-.133-3.593a12.5,12.5,0,0,1-1.4.471c-.5.136-.978.245-1.433.324a6.91,6.91,0,0,1-1.172.119,5.026,5.026,0,0,1-2.162-.4,2.614,2.614,0,0,1-1.247-1.18,3.64,3.64,0,0,1-.351-1.2h8a7.4,7.4,0,0,0,.087-.828c.012-.279.019-.6.019-.962a6.991,6.991,0,0,0-.7-3.308,4.454,4.454,0,0,0-1.995-1.949m-4.3,2.751a2.029,2.029,0,0,1,1.2-.451,1.9,1.9,0,0,1,1.472.75,2.882,2.882,0,0,1,.574,1.692l-4.337.107a4.122,4.122,0,0,1,.242-.9,2.843,2.843,0,0,1,.849-1.193"/><path class="a" d="M147.8,35.546a4.817,4.817,0,0,1,.849.093,7.654,7.654,0,0,1,1.161.325,12.345,12.345,0,0,1,1.465.643l.3-3.74a10.344,10.344,0,0,0-1.253-.443,14.189,14.189,0,0,0-1.492-.346,9.138,9.138,0,0,0-1.591-.138,7.076,7.076,0,0,0-3.752.915,5.817,5.817,0,0,0-2.26,2.5,8.188,8.188,0,0,0-.763,3.6,7.472,7.472,0,0,0,.822,3.547,5.938,5.938,0,0,0,2.4,2.446,7.665,7.665,0,0,0,3.819.889,11.571,11.571,0,0,0,1.577-.1,13.737,13.737,0,0,0,1.36-.251q.628-.153,1.12-.3l-.212-3.673a6.029,6.029,0,0,1-.942.45,6.458,6.458,0,0,1-.961.285,4.227,4.227,0,0,1-.881.1,4.347,4.347,0,0,1-2.042-.464,3.111,3.111,0,0,1-1.273-1.234,3.679,3.679,0,0,1-.437-1.83,3.314,3.314,0,0,1,.822-2.378,2.916,2.916,0,0,1,2.16-.9"/><path class="a" d="M165.478,39.828q0-.756.026-1.551t.027-1.657a5.127,5.127,0,0,0-1.055-3.521,3.86,3.86,0,0,0-3.029-1.173,3.951,3.951,0,0,0-1.538.3,5.215,5.215,0,0,0-1.313.79,6.494,6.494,0,0,0-1.034,1.06H157.2V32.456q0-1.844.073-3.507t.18-3.228l-4.88.411q.2,1.577.271,3.149t.073,3.175v7.372q0,1.646-.047,2.971t-.125,2.744h4.627q-.078-1.417-.126-2.718t-.046-2.758V37.376a4.523,4.523,0,0,1,.7-.789,3.5,3.5,0,0,1,.836-.564,1.961,1.961,0,0,1,.842-.212,1.334,1.334,0,0,1,1.265.61,3.711,3.711,0,0,1,.352,1.816v1.83q0,1.459-.04,2.758t-.106,2.718h4.615q-.108-1.417-.146-2.751t-.04-2.964"/><path class="a" d="M180.5,39.828q0-.756.02-1.551t.019-1.657a5.152,5.152,0,0,0-1.047-3.521,3.841,3.841,0,0,0-3.023-1.173,4.5,4.5,0,0,0-1.743.339,5.877,5.877,0,0,0-1.486.887,6.871,6.871,0,0,0-1.16,1.213h-.371l-.212-2.28-3.9.213q.2,1.59.271,3.135t.073,3.07v1.325q0,1.646-.04,2.971t-.132,2.744H172.4q-.093-1.417-.132-2.718t-.039-2.758V37.376a4.516,4.516,0,0,1,.695-.789,3.524,3.524,0,0,1,.836-.564,1.961,1.961,0,0,1,.842-.212,1.335,1.335,0,0,1,1.265.61,3.711,3.711,0,0,1,.352,1.816v1.83q0,1.459-.033,2.758t-.113,2.718h4.615q-.108-1.417-.147-2.751t-.039-2.964"/><path class="a" d="M184.571,25.814a2.881,2.881,0,0,0-1.942.563A2.045,2.045,0,0,0,181.985,28a2.36,2.36,0,0,0,.65,1.9,2.914,2.914,0,0,0,1.91.544,2.987,2.987,0,0,0,1.935-.537,2.248,2.248,0,0,0,.65-1.823,2.156,2.156,0,0,0-.65-1.671,2.729,2.729,0,0,0-1.909-.6"/><path class="a" d="M186.732,36.069q.027-1.066.066-2.009t.093-1.883l-4.667.121c.035.626.069,1.246.1,1.855s.055,1.265.073,1.963.026,1.494.026,2.387v1.325q0,1.644-.045,2.97t-.126,2.745h4.627q-.093-1.419-.132-2.745t-.04-2.97V38.5q0-1.368.026-2.434"/><path class="a" d="M195.429,35.546a4.817,4.817,0,0,1,.849.093,7.622,7.622,0,0,1,1.161.325,12.344,12.344,0,0,1,1.465.643l.3-3.74a10.345,10.345,0,0,0-1.253-.443,14.228,14.228,0,0,0-1.491-.346,9.155,9.155,0,0,0-1.591-.138,7.078,7.078,0,0,0-3.753.915,5.818,5.818,0,0,0-2.26,2.5,8.2,8.2,0,0,0-.763,3.6,7.472,7.472,0,0,0,.822,3.547,5.938,5.938,0,0,0,2.4,2.446,7.665,7.665,0,0,0,3.819.889,11.57,11.57,0,0,0,1.577-.1,13.683,13.683,0,0,0,1.36-.251q.629-.153,1.12-.3l-.212-3.673a6.03,6.03,0,0,1-.942.45,6.459,6.459,0,0,1-.961.285,4.227,4.227,0,0,1-.881.1,4.347,4.347,0,0,1-2.042-.464,3.111,3.111,0,0,1-1.273-1.234,3.679,3.679,0,0,1-.437-1.83,3.314,3.314,0,0,1,.822-2.378,2.918,2.918,0,0,1,2.16-.9"/><path class="a" d="M212.189,41.009V39.934q0-.729.019-1.657t.021-1.591a5.178,5.178,0,0,0-.637-2.718,3.761,3.761,0,0,0-1.849-1.544,7.578,7.578,0,0,0-2.884-.5,13.749,13.749,0,0,0-1.7.106q-.843.1-1.6.252c-.509.1-.981.2-1.419.312s-.824.218-1.159.325l.2,3.712c.407-.177.828-.338,1.26-.484s.856-.274,1.267-.384.789-.195,1.133-.252a5.333,5.333,0,0,1,.862-.086,5.082,5.082,0,0,1,1.372.165,1.717,1.717,0,0,1,.908.564,1.462,1.462,0,0,1,.278,1.047l-3.632.584a9.938,9.938,0,0,0-1.412.364,4.8,4.8,0,0,0-1.373.723,3.69,3.69,0,0,0-1.041,1.239,4.041,4.041,0,0,0-.4,1.9,4.245,4.245,0,0,0,.457,2.014,3.319,3.319,0,0,0,1.3,1.347,3.917,3.917,0,0,0,1.982.483,4.284,4.284,0,0,0,1.618-.3,4.935,4.935,0,0,0,1.333-.789,6.057,6.057,0,0,0,.961-1h.318l.371,1.776h3.885a22.8,22.8,0,0,1-.331-2.38q-.093-1.12-.093-2.154m-4.044-.054a3.5,3.5,0,0,1-.656.862,3.2,3.2,0,0,1-.8.564,1.815,1.815,0,0,1-.783.206,1.612,1.612,0,0,1-.968-.306,1.154,1.154,0,0,1-.424-1.007,1.519,1.519,0,0,1,.69-1.313,2.165,2.165,0,0,1,.755-.305q.742-.159,1.167-.265a3.7,3.7,0,0,0,.649-.212,1.818,1.818,0,0,0,.372-.226Z"/><path class="a" d="M218.951,28.942q.067-1.669.159-3.222l-4.852.411q.2,1.578.272,3.15t.072,3.175v7.372q0,1.644-.047,2.97t-.125,2.745h4.627q-.078-1.419-.126-2.745t-.046-2.97V32.456q0-1.844.066-3.514"/><path class="a" d="M155.548,52.264H150.47q.092,1.551.14,3.017t.045,3.308v5.025a6.735,6.735,0,0,1-.317,2.214,2.555,2.555,0,0,1-1.042,1.359,4.126,4.126,0,0,1-3.878,0,2.648,2.648,0,0,1-1.087-1.359,6.223,6.223,0,0,1-.346-2.214V58.589q0-1.842.047-3.308t.14-3.017h-5.078q.092,1.551.139,3.017t.046,3.308q0,1.021-.013,2.041t-.027,1.877q-.012.855-.012,1.346a9.557,9.557,0,0,0,.815,4.13,5.644,5.644,0,0,0,2.6,2.638,10.32,10.32,0,0,0,4.726.922,10,10,0,0,0,4.562-.908,5.809,5.809,0,0,0,2.632-2.619,9.174,9.174,0,0,0,.854-4.137q0-.477-.013-1.332t-.026-1.9c-.01-.695-.014-1.381-.014-2.062q0-1.842.047-3.308t.139-3.017"/><path class="a" d="M169.563,65.457q0-.756.021-1.552t.019-1.657a5.148,5.148,0,0,0-1.048-3.52,3.836,3.836,0,0,0-3.022-1.174,4.5,4.5,0,0,0-1.744.339,5.871,5.871,0,0,0-1.485.887,6.772,6.772,0,0,0-1.16,1.214h-.372l-.211-2.28-3.9.212q.2,1.59.272,3.135t.072,3.07v1.326q0,1.644-.039,2.97t-.133,2.745h4.628q-.093-1.419-.132-2.719t-.04-2.758V63a4.523,4.523,0,0,1,.7-.789,3.518,3.518,0,0,1,.835-.564,1.967,1.967,0,0,1,.842-.212,1.336,1.336,0,0,1,1.266.61,3.713,3.713,0,0,1,.352,1.817v1.829q0,1.459-.033,2.758t-.114,2.719h4.615q-.106-1.419-.146-2.752t-.04-2.963"/><path class="a" d="M173.633,51.442a2.881,2.881,0,0,0-1.942.562,2.046,2.046,0,0,0-.643,1.626,2.362,2.362,0,0,0,.649,1.9,2.917,2.917,0,0,0,1.911.544,2.983,2.983,0,0,0,1.935-.537,2.247,2.247,0,0,0,.65-1.823,2.156,2.156,0,0,0-.65-1.671,2.73,2.73,0,0,0-1.91-.6"/><path class="a" d="M175.795,61.7q.027-1.066.065-2.008t.094-1.883l-4.668.12q.053.941.1,1.856t.073,1.962q.027,1.047.026,2.387v1.326q0,1.643-.045,2.969t-.127,2.746h4.628q-.094-1.42-.133-2.746t-.039-2.969V64.131q0-1.366.026-2.434"/><path class="a" d="M186.468,57.926q-.266,1.233-.576,2.539t-.67,2.7l-.862,3.408h-.331l-.863-3.4q-.33-1.351-.636-2.691t-.61-2.678l-4.813.119q.584,1.445,1.128,2.937t1.046,2.95l.836,2.346q.437,1.235.862,2.5t.808,2.513h4.774q.37-1.26.782-2.486t.849-2.473l.835-2.374q.518-1.47,1.061-2.956t1.127-2.957Z"/><path class="a" d="M200.337,58.2a6.991,6.991,0,0,0-3.129-.644,6.743,6.743,0,0,0-3.6.889,5.5,5.5,0,0,0-2.154,2.46,8.617,8.617,0,0,0-.717,3.613,8.136,8.136,0,0,0,.777,3.633,5.668,5.668,0,0,0,2.413,2.487,8.658,8.658,0,0,0,4.222.908,12.889,12.889,0,0,0,1.876-.126,12.151,12.151,0,0,0,1.552-.325q.7-.2,1.24-.385l-.133-3.593a12.236,12.236,0,0,1-1.4.471q-.75.2-1.433.325a7.015,7.015,0,0,1-1.172.119,5.044,5.044,0,0,1-2.162-.4,2.621,2.621,0,0,1-1.247-1.181,3.633,3.633,0,0,1-.351-1.2h8a7.645,7.645,0,0,0,.086-.828c.012-.279.019-.6.019-.962a6.994,6.994,0,0,0-.7-3.308,4.459,4.459,0,0,0-1.995-1.949m-4.3,2.751a2.016,2.016,0,0,1,1.2-.45,1.891,1.891,0,0,1,1.472.749,2.882,2.882,0,0,1,.574,1.692l-4.337.108a4.118,4.118,0,0,1,.242-.906,2.843,2.843,0,0,1,.85-1.193"/><path class="a" d="M212.124,57.554a3.464,3.464,0,0,0-1.2.226,3.907,3.907,0,0,0-1.24.782,5.774,5.774,0,0,0-1.166,1.552h-.359l-.2-2.4-3.9.212q.2,1.592.272,3.136t.073,3.069v1.326q0,1.644-.04,2.97t-.133,2.745h4.628q-.093-1.419-.133-2.719t-.04-2.757V63.734a3.224,3.224,0,0,1,.544-.936,2.788,2.788,0,0,1,.669-.57,2.448,2.448,0,0,1,.71-.284,3.067,3.067,0,0,1,.676-.08,5.735,5.735,0,0,1,.882.073c.314.049.635.1.962.166l.371-4.3a2.247,2.247,0,0,0-.71-.206,5.575,5.575,0,0,0-.669-.047"/><path class="a" d="M222.778,64.276a12.742,12.742,0,0,0-2.367-.835,8.8,8.8,0,0,1-1.313-.451,1.527,1.527,0,0,1-.616-.45,1,1,0,0,1-.166-.584.845.845,0,0,1,.2-.583,1.158,1.158,0,0,1,.517-.332,2.45,2.45,0,0,1,.7-.119,5.013,5.013,0,0,1,.968.132,10.408,10.408,0,0,1,1.346.392,11.756,11.756,0,0,1,1.438.629l.278-3.659q-.543-.159-1.332-.365a16.293,16.293,0,0,0-1.723-.344,12.531,12.531,0,0,0-1.85-.14,5.412,5.412,0,0,0-3.607,1.121,4.431,4.431,0,0,0-.921,5.012,3.164,3.164,0,0,0,1.213,1.226,7.719,7.719,0,0,0,2,.783q.993.252,1.577.45a2.617,2.617,0,0,1,.836.418.71.71,0,0,1,.251.563.981.981,0,0,1-.225.709,1.217,1.217,0,0,1-.61.325,4.117,4.117,0,0,1-.848.107,7.027,7.027,0,0,1-1.413-.159,10.779,10.779,0,0,1-1.518-.438,9.35,9.35,0,0,1-1.406-.65l-.265,3.646q.57.186,1.307.385a14.994,14.994,0,0,0,1.644.338,12.976,12.976,0,0,0,1.968.14,8.208,8.208,0,0,0,3.269-.551,3.9,3.9,0,0,0,1.843-1.525,4.282,4.282,0,0,0,.591-2.26,3.331,3.331,0,0,0-.432-1.8,3.226,3.226,0,0,0-1.339-1.134"/><path class="a" d="M227.968,51.442a2.881,2.881,0,0,0-1.942.562,2.046,2.046,0,0,0-.643,1.626,2.362,2.362,0,0,0,.648,1.9,2.918,2.918,0,0,0,1.911.544,2.981,2.981,0,0,0,1.935-.537,2.243,2.243,0,0,0,.65-1.823,2.153,2.153,0,0,0-.65-1.671,2.727,2.727,0,0,0-1.909-.6"/><path class="a" d="M230.129,61.7q.027-1.066.066-2.008t.093-1.883l-4.667.12q.053.941.1,1.856t.072,1.962q.028,1.047.027,2.387v1.326q0,1.643-.046,2.969t-.126,2.746h4.627q-.093-1.42-.133-2.746t-.039-2.969V64.131q0-1.366.026-2.434"/><path class="a" d="M241.127,67.9a3.1,3.1,0,0,1-.9.159,1.518,1.518,0,0,1-1.345-.6,3.108,3.108,0,0,1-.418-1.771V61.1c.443.01.892.024,1.352.04q1.233.047,2.466.152V57.926h-3.814c0-.4.008-.775.015-1.133q.021-1,.06-1.943t.094-1.975l-4.576.768q.081,1.313.127,2.56c.02.533.033,1.11.039,1.723h-2.061v3.367l2.058-.129,0,.269q-.014,1.121-.02,2.1t-.013,1.843q-.006.868-.007,1.677a5.274,5.274,0,0,0,.564,2.62,3.259,3.259,0,0,0,1.644,1.431,6.845,6.845,0,0,0,2.6.444,8.753,8.753,0,0,0,1.246-.092c.425-.063.822-.14,1.194-.233a4.473,4.473,0,0,0,.9-.311l-.226-3.461a4.4,4.4,0,0,1-.988.451"/><path class="a" d="M252.153,57.926q-.291,1.34-.617,2.658t-.695,2.672l-.916,3.447h-.344l-.835-3.447q-.333-1.406-.637-2.731t-.6-2.718l-4.813.119q.57,1.417,1.107,2.91t1.041,2.91l.835,2.387q.465,1.326.942,2.719c.282.82.539,1.634.779,2.44-.307.755-.621,1.521-.951,2.306q-.6,1.419-1.286,2.785l4.759-.12q.465-1.431,1.127-3.209t1.631-4.3l1.432-3.726q.637-1.656,1.1-2.85t.855-2.188q.391-.994.842-2.068Z"/><path class="a" d="M256.688,70.764a2.81,2.81,0,1,1-2.808,2.809,2.692,2.692,0,0,1,2.808-2.809m0,5a2.188,2.188,0,1,0-2.156-2.189,2.039,2.039,0,0,0,2.156,2.189m.1-1.816h-.53V74.8h-.433V72.224h1.009c.574,0,.809.249.809.681v.36a.614.614,0,0,1-.374.6l.682.932h-.526Zm.03-1.319h-.56v.915h.56c.281,0,.371-.107.371-.294v-.31c0-.249-.106-.311-.371-.311"/></g></g></svg>