<?xml version="1.0" encoding="UTF-8" standalone="no"?>
<svg
   xmlns:dc="http://purl.org/dc/elements/1.1/"
   xmlns:cc="http://creativecommons.org/ns#"
   xmlns:rdf="http://www.w3.org/1999/02/22-rdf-syntax-ns#"
   xmlns:svg="http://www.w3.org/2000/svg"
   xmlns="http://www.w3.org/2000/svg"
   viewBox="0 0 240 115.2"
   height="115.2"
   width="240"
   xml:space="preserve"
   id="svg2"
   version="1.1"><metadata
     id="metadata8"><rdf:RDF><cc:Work
         rdf:about=""><dc:format>image/svg+xml</dc:format><dc:type
           rdf:resource="http://purl.org/dc/dcmitype/StillImage" /></cc:Work></rdf:RDF></metadata><defs
     id="defs6" /><g
     transform="matrix(1.3333333,0,0,-1.3333333,0,115.2)"
     id="g10"><g
       transform="scale(0.1)"
       id="g12"><path
         id="path14"
         style="fill:#ffffff;fill-opacity:1;fill-rule:nonzero;stroke:none"
         d="m 434.059,451.898 -37.551,29.504 -111.738,-30.695 -50.778,-33.668 -91.113,-12.441 89.883,-13.118 37.82,20.333 -6.016,-28.055 24.997,18.172 -9.711,-46.008 49,47.976 19.011,-19.746 23.742,-37.265 20.579,43.617 0.339,18.469 44.297,-44.231 -22.41,65.391 44.289,-14.653 -24.64,36.418" /><path
         id="path16"
         style="fill:#ffffff;fill-opacity:1;fill-rule:nonzero;stroke:none"
         d="m 619.43,353.258 -44.231,11.754 5.551,-10.699 -85.273,59.718 -29.204,8.485 14.34,-55.43 14.16,20.894 86.7,-35.054 15.711,-30.262 6.812,18.231 14.352,-7.012 42.386,-14.774 -41.304,34.149" /><path
         id="path18"
         style="fill:#4f4c4c;fill-opacity:1;fill-rule:nonzero;stroke:none"
         d="m 619.117,336.988 -17.824,8.711 -5.398,-14.441 -14.707,28.32 35.234,-9.094 26.238,-21.687 z m -126.414,55.262 -11.39,-16.805 -10.868,41.953 22.258,-6.3 63.656,-44.59 z m -64.894,-14.363 -39.575,39.511 v -25.449 l -17.855,-37.844 -20.313,31.879 -21.91,22.852 -43.222,-42.328 9.199,43.586 -24.961,-18.137 5.683,26.496 -43.5,-23.379 -64.082,9.348 67.231,9.183 50.43,33.649 110.039,30.23 35.414,-27.613 18.847,-27.863 -41.214,13.629 z m 244.433,-57.239 -49.652,40.899 -51.715,13.484 -73.535,50.989 -42.07,10.593 -20.188,27.407 -38.809,29.148 -126.523,-36.738 -46.25,-27.145 -85.465,-16.644 -2.363,-0.364 c 10.133,-148.125 133.48,-265.316 284.156,-265.105 114.988,0.16 214.11,68.43 259.086,166.316 0.758,1.653 -6.672,7.16 -6.672,7.16" /><path
         id="path20"
         style="fill:#a7a5a6;fill-opacity:1;fill-rule:nonzero;stroke:none"
         d="m 231.355,395.066 43.497,23.379 7.496,27.071 -47.844,-31.918 -3.149,-18.532" /><path
         id="path22"
         style="fill:#a7a5a6;fill-opacity:1;fill-rule:nonzero;stroke:none"
         d="m 328.156,408.836 21.91,-22.852 -16.976,38.075 z" /><path
         id="path24"
         style="fill:#a7a5a6;fill-opacity:1;fill-rule:nonzero;stroke:none"
         d="m 347.527,421.996 -0.941,42.195 -14.551,-3.711 -28.894,-25.187 -18.207,11.961 9.199,-37.16 18.988,7.304 19.969,32.352 14.437,-27.754" /><path
         id="path26"
         style="fill:#a7a5a6;fill-opacity:1;fill-rule:nonzero;stroke:none"
         d="m 394.973,477.484 15.757,-23.664 -2.71,-18.183 41.214,-13.629 -18.847,27.863 -35.414,27.613" /><path
         id="path28"
         style="fill:#a7a5a6;fill-opacity:1;fill-rule:nonzero;stroke:none"
         d="m 509.516,392.977 -1.325,-6.993 48.168,-19.476 -63.656,44.59 16.813,-18.121" /><path
         id="path30"
         style="fill:#a7a5a6;fill-opacity:1;fill-rule:nonzero;stroke:none"
         d="m 616.422,350.477 2.695,-13.497 23.543,-8.195 z" /><path
         id="path32"
         style="fill:#4f4c4c;fill-opacity:1;fill-rule:nonzero;stroke:none"
         d="m 1619.8,440.383 19.43,38.355 h 21.28 l -30.9,-56.894 v -36.25 h -19.62 v 35.617 l -30.9,57.527 h 21.41 l 19.3,-38.355" /><path
         id="path34"
         style="fill:#4f4c4c;fill-opacity:1;fill-rule:nonzero;stroke:none"
         d="m 873.93,463.629 c -7.434,0 -13.184,-2.785 -17.262,-8.367 -4.078,-5.586 -6.117,-13.375 -6.117,-23.352 0,-20.769 7.793,-31.144 23.379,-31.144 6.543,0 14.461,1.625 23.761,4.902 v -16.563 c -7.64,-3.195 -16.179,-4.781 -25.609,-4.781 -13.543,0 -23.91,4.11 -31.09,12.324 -7.176,8.219 -10.762,20.008 -10.762,35.387 0,9.68 1.758,18.164 5.286,25.457 3.527,7.281 8.593,12.863 15.195,16.742 6.605,3.899 14.34,5.84 23.219,5.84 9.05,0 18.133,-2.195 27.265,-6.566 l -6.375,-16.055 c -3.48,1.652 -6.98,3.098 -10.507,4.336 -3.524,1.227 -6.985,1.84 -10.383,1.84" /><path
         id="path36"
         style="fill:#4f4c4c;fill-opacity:1;fill-rule:nonzero;stroke:none"
         d="m 934.066,432.289 c 0,-10.398 1.977,-18.238 5.922,-23.504 3.953,-5.265 9.852,-7.898 17.715,-7.898 15.75,0 23.633,10.468 23.633,31.402 0,20.981 -7.832,31.477 -23.512,31.477 -7.855,0 -13.777,-2.645 -17.769,-7.938 -3.992,-5.289 -5.989,-13.125 -5.989,-23.539 z m 67.974,0 c 0,-15.41 -3.821,-27.266 -11.462,-35.543 -7.644,-8.285 -18.601,-12.422 -32.875,-12.422 -14.269,0 -25.226,4.137 -32.871,12.422 -7.641,8.277 -11.465,20.172 -11.465,35.68 0,15.492 3.828,27.336 11.492,35.515 7.668,8.164 18.653,12.258 32.965,12.258 14.317,0 25.266,-4.117 32.844,-12.355 7.586,-8.242 11.372,-20.098 11.372,-35.555" /><path
         id="path38"
         style="fill:#4f4c4c;fill-opacity:1;fill-rule:nonzero;stroke:none"
         d="m 1060.79,385.594 -22.43,73.074 h -0.57 c 0.8,-14.863 1.2,-24.777 1.2,-29.754 v -43.32 h -17.64 v 93.144 h 26.88 l 22.05,-71.226 h 0.38 l 23.38,71.226 h 26.89 v -93.144 h -18.42 v 44.086 c 0,2.074 0.03,4.476 0.1,7.199 0.06,2.715 0.35,9.934 0.85,21.66 h -0.57 l -24.01,-72.945 h -18.09" /><path
         id="path40"
         style="fill:#4f4c4c;fill-opacity:1;fill-rule:nonzero;stroke:none"
         d="m 1183.8,385.594 -22.43,73.074 h -0.57 c 0.8,-14.863 1.2,-24.777 1.2,-29.754 v -43.32 h -17.64 v 93.144 h 26.89 l 22.04,-71.226 h 0.38 l 23.38,71.226 h 26.89 v -93.144 h -18.42 v 44.086 c 0,2.074 0.03,4.476 0.1,7.199 0.06,2.715 0.35,9.934 0.86,21.66 h -0.57 l -24.02,-72.945 h -18.09" /><path
         id="path42"
         style="fill:#4f4c4c;fill-opacity:1;fill-rule:nonzero;stroke:none"
         d="m 1343.19,478.738 v -60.269 c 0,-6.879 -1.55,-12.91 -4.62,-18.094 -3.08,-5.184 -7.53,-9.148 -13.35,-11.914 -5.82,-2.754 -12.7,-4.137 -20.64,-4.137 -11.98,0 -21.28,3.067 -27.9,9.207 -6.63,6.129 -9.94,14.524 -9.94,25.192 v 60.015 h 19.69 v -57.015 c 0,-7.184 1.43,-12.453 4.33,-15.801 2.88,-3.359 7.66,-5.035 14.33,-5.035 6.46,0 11.14,1.683 14.05,5.058 2.91,3.383 4.36,8.676 4.36,15.899 v 56.894 h 19.69" /><path
         id="path44"
         style="fill:#4f4c4c;fill-opacity:1;fill-rule:nonzero;stroke:none"
         d="m 1448.62,385.594 h -25.1 l -40.51,70.453 h -0.58 c 0.8,-12.438 1.21,-21.317 1.21,-26.621 v -43.832 h -17.65 v 93.144 h 24.92 l 40.44,-69.761 h 0.45 c -0.63,12.101 -0.95,20.656 -0.95,25.664 v 44.097 h 17.77 v -93.144" /><path
         id="path46"
         style="fill:#4f4c4c;fill-opacity:1;fill-rule:nonzero;stroke:none"
         d="m 1472.07,385.594 v 93.144 h 19.74 v -93.144 h -19.74" /><path
         id="path48"
         style="fill:#4f4c4c;fill-opacity:1;fill-rule:nonzero;stroke:none"
         d="m 1551.19,385.594 h -19.75 v 76.703 h -25.29 v 16.441 h 70.33 v -16.441 h -25.29 v -76.703" /><path
         id="path50"
         style="fill:#4f4c4c;fill-opacity:1;fill-rule:nonzero;stroke:none"
         d="m 873.93,327.02 c -7.434,0 -13.184,-2.793 -17.262,-8.375 -4.078,-5.582 -6.117,-13.368 -6.117,-23.344 0,-20.778 7.793,-31.149 23.379,-31.149 6.543,0 14.461,1.625 23.761,4.903 v -16.567 c -7.64,-3.187 -16.179,-4.781 -25.609,-4.781 -13.543,0 -23.91,4.117 -31.09,12.328 -7.176,8.219 -10.762,20.012 -10.762,35.387 0,9.683 1.758,18.164 5.286,25.461 3.527,7.277 8.593,12.859 15.195,16.742 6.605,3.895 14.34,5.836 23.219,5.836 9.05,0 18.133,-2.195 27.265,-6.563 l -6.375,-16.054 c -3.48,1.648 -6.98,3.094 -10.507,4.328 -3.524,1.226 -6.985,1.848 -10.383,1.848" /><path
         id="path52"
         style="fill:#4f4c4c;fill-opacity:1;fill-rule:nonzero;stroke:none"
         d="m 934.066,295.676 c 0,-10.399 1.977,-18.238 5.922,-23.504 3.953,-5.266 9.852,-7.902 17.715,-7.902 15.75,0 23.633,10.472 23.633,31.406 0,20.98 -7.832,31.476 -23.512,31.476 -7.855,0 -13.777,-2.644 -17.769,-7.937 -3.992,-5.285 -5.989,-13.129 -5.989,-23.539 z m 67.974,0 c 0,-15.41 -3.821,-27.266 -11.462,-35.543 -7.644,-8.285 -18.601,-12.426 -32.875,-12.426 -14.269,0 -25.226,4.141 -32.871,12.426 -7.641,8.277 -11.465,20.168 -11.465,35.676 0,15.496 3.828,27.339 11.492,35.515 7.668,8.172 18.653,12.258 32.965,12.258 14.317,0 25.266,-4.113 32.844,-12.355 7.586,-8.235 11.372,-20.09 11.372,-35.551" /><path
         id="path54"
         style="fill:#4f4c4c;fill-opacity:1;fill-rule:nonzero;stroke:none"
         d="m 1021.35,248.98 v 93.149 h 19.75 v -76.836 h 37.78 V 248.98 h -57.53" /><path
         id="path56"
         style="fill:#4f4c4c;fill-opacity:1;fill-rule:nonzero;stroke:none"
         d="m 1095.06,248.98 v 93.149 h 19.74 v -76.836 h 37.79 V 248.98 h -57.53" /><path
         id="path58"
         style="fill:#4f4c4c;fill-opacity:1;fill-rule:nonzero;stroke:none"
         d="m 1222.4,248.98 h -53.64 v 93.149 h 53.64 v -16.188 h -33.89 v -20.449 h 31.53 v -16.187 h -31.53 v -24.012 h 33.89 V 248.98" /><path
         id="path60"
         style="fill:#4f4c4c;fill-opacity:1;fill-rule:nonzero;stroke:none"
         d="m 1277.19,301.281 h 36.95 V 253 c -5.99,-1.953 -11.63,-3.324 -16.91,-4.117 -5.29,-0.785 -10.7,-1.176 -16.22,-1.176 -14.06,0 -24.79,4.129 -32.2,12.387 -7.41,8.269 -11.11,20.125 -11.11,35.582 0,15.035 4.29,26.758 12.89,35.168 8.6,8.406 20.53,12.617 35.77,12.617 9.56,0 18.77,-1.914 27.65,-5.738 l -6.56,-15.801 c -6.79,3.398 -13.87,5.098 -21.22,5.098 -8.53,0 -15.37,-2.864 -20.5,-8.602 -5.15,-5.73 -7.71,-13.434 -7.71,-23.117 0,-10.11 2.07,-17.828 6.21,-23.164 4.14,-5.328 10.16,-7.985 18.06,-7.985 4.11,0 8.3,0.411 12.55,1.262 v 19.438 h -17.65 v 16.429" /><path
         id="path62"
         style="fill:#4f4c4c;fill-opacity:1;fill-rule:nonzero;stroke:none"
         d="m 1389.95,248.98 h -53.64 v 93.149 h 53.64 v -16.188 h -33.89 v -20.449 h 31.53 v -16.187 h -31.53 v -24.012 h 33.89 V 248.98" /><path
         id="path64"
         style="fill:#b21d23;fill-opacity:1;fill-rule:nonzero;stroke:none"
         d="m 198.895,435.199 c 1.726,120.614 99.906,217.895 220.933,217.895 122.11,0 221.098,-98.985 221.098,-221.094 0,-22.301 -3.375,-43.805 -9.516,-64.102 l 52.356,-43.039 c 13.492,33.114 20.957,69.27 20.89,107.141 -0.265,157.305 -127.519,284.828 -284.828,284.828 -157.305,0 -284.832,-127.523 -284.832,-284.828 0,-3.086 0.137,-6.145 0.234,-9.203 l 63.665,12.402" /><path
         id="path66"
         style="fill:#b21d23;fill-opacity:1;fill-rule:nonzero;stroke:none"
         d="m 419.828,641.711 c -113.984,0 -206.531,-90.992 -209.433,-204.277 l 10.199,1.988 9.832,5.805 c 6.816,98.777 88.898,176.847 189.402,176.847 104.973,0 190.07,-85.097 190.07,-190.074 0,-18.902 -2.851,-37.125 -7.988,-54.359 l 19.02,-4.836 c 5.523,18.789 8.613,38.617 8.613,59.195 0,115.82 -93.891,209.711 -209.715,209.711" /><path
         id="path68"
         style="fill:#b21d23;fill-opacity:1;fill-rule:nonzero;stroke:none"
         d="m 849.852,570.066 h 6.453 c 6.035,0 10.554,1.192 13.547,3.579 2.996,2.382 4.496,5.855 4.496,10.41 0,4.601 -1.254,7.992 -3.77,10.191 -2.508,2.192 -6.445,3.289 -11.801,3.289 h -8.925 z m 44.304,14.684 c 0,-9.957 -3.109,-17.574 -9.336,-22.848 -6.222,-5.273 -15.07,-7.91 -26.55,-7.91 h -8.418 v -32.91 H 830.23 v 92.527 h 29.559 c 11.223,0 19.758,-2.41 25.606,-7.246 5.839,-4.828 8.761,-12.035 8.761,-21.613" /><path
         id="path70"
         style="fill:#b21d23;fill-opacity:1;fill-rule:nonzero;stroke:none"
         d="m 911.625,521.082 v 92.527 h 19.625 v -92.527 h -19.625" /><path
         id="path72"
         style="fill:#b21d23;fill-opacity:1;fill-rule:nonzero;stroke:none"
         d="m 1028.97,521.082 h -22.28 l -24.241,38.984 -8.293,-5.949 v -33.035 h -19.617 v 92.527 h 19.617 v -42.336 l 7.723,10.883 25.061,31.453 h 21.77 l -32.272,-40.945 32.532,-51.582" /><path
         id="path74"
         style="fill:#b21d23;fill-opacity:1;fill-rule:nonzero;stroke:none"
         d="m 1093.9,521.082 h -53.29 v 92.527 h 53.29 v -16.074 h -33.66 v -20.316 h 31.32 v -16.074 h -31.32 v -23.864 h 33.66 v -16.199" /><path
         id="path76"
         style="fill:#b21d23;fill-opacity:1;fill-rule:nonzero;stroke:none"
         d="m 1167.83,546.773 c 0,-8.351 -3.01,-14.933 -9.02,-19.746 -6.01,-4.808 -14.38,-7.214 -25.09,-7.214 -9.88,0 -18.61,1.859 -26.21,5.57 v 18.226 c 6.25,-2.781 11.54,-4.746 15.86,-5.882 4.32,-1.141 8.28,-1.707 11.87,-1.707 4.3,0 7.6,0.82 9.9,2.464 2.3,1.645 3.45,4.09 3.45,7.344 0,1.813 -0.51,3.426 -1.52,4.84 -1.01,1.414 -2.5,2.777 -4.46,4.082 -1.96,1.309 -5.96,3.398 -12,6.27 -5.65,2.656 -9.89,5.207 -12.72,7.656 -2.82,2.445 -5.08,5.297 -6.77,8.543 -1.69,3.246 -2.53,7.047 -2.53,11.39 0,8.192 2.77,14.621 8.32,19.309 5.55,4.684 13.22,7.02 23.01,7.02 4.81,0 9.4,-0.567 13.76,-1.708 4.37,-1.136 8.94,-2.738 13.71,-4.808 l -6.33,-15.254 c -4.94,2.023 -9.02,3.441 -12.25,4.242 -3.23,0.801 -6.4,1.199 -9.53,1.199 -3.71,0 -6.56,-0.863 -8.54,-2.589 -1.98,-1.735 -2.97,-3.993 -2.97,-6.774 0,-1.734 0.4,-3.238 1.2,-4.527 0.8,-1.289 2.08,-2.528 3.83,-3.735 1.75,-1.203 5.89,-3.363 12.44,-6.484 8.64,-4.137 14.57,-8.281 17.78,-12.437 3.21,-4.161 4.81,-9.254 4.81,-15.29" /><path
         id="path78"
         style="fill:#b21d23;fill-opacity:1;fill-rule:nonzero;stroke:none"
         d="m 1237.89,570.066 h 6.46 c 6.03,0 10.55,1.192 13.54,3.579 3,2.382 4.5,5.855 4.5,10.41 0,4.601 -1.25,7.992 -3.77,10.191 -2.51,2.192 -6.44,3.289 -11.8,3.289 h -8.93 z m 44.31,14.684 c 0,-9.957 -3.12,-17.574 -9.34,-22.848 -6.22,-5.273 -15.07,-7.91 -26.55,-7.91 h -8.42 v -32.91 h -19.62 v 92.527 h 29.56 c 11.23,0 19.76,-2.41 25.61,-7.246 5.83,-4.828 8.76,-12.035 8.76,-21.613" /><path
         id="path80"
         style="fill:#b21d23;fill-opacity:1;fill-rule:nonzero;stroke:none"
         d="m 1352.96,521.082 h -53.29 v 92.527 h 53.29 v -16.074 h -33.67 v -20.316 h 31.33 v -16.074 h -31.33 v -23.864 h 33.67 v -16.199" /><path
         id="path82"
         style="fill:#b21d23;fill-opacity:1;fill-rule:nonzero;stroke:none"
         d="m 1417.52,559.563 c -6.2,19.957 -9.7,31.246 -10.48,33.859 -0.78,2.617 -1.34,4.68 -1.68,6.207 -1.39,-5.406 -5.38,-18.762 -11.96,-40.066 z m 11.39,-38.481 -6.71,22.02 h -33.74 l -6.7,-22.02 h -21.14 l 32.65,92.91 h 23.99 l 32.79,-92.91 h -21.14" /><path
         id="path84"
         style="fill:#b21d23;fill-opacity:1;fill-rule:nonzero;stroke:none"
         d="m 1536.13,521.082 h -22.28 l -24.24,38.984 -8.29,-5.949 v -33.035 h -19.63 v 92.527 h 19.63 v -42.336 l 7.72,10.883 25.06,31.453 h 21.77 l -32.28,-40.945 32.54,-51.582" /><path
         id="path86"
         style="fill:#4f4c4c;fill-opacity:1;fill-rule:nonzero;stroke:none"
         d="M 775.457,614.105 H 755.711 V 250.66 h 19.746 v 363.445" /></g></g></svg>