<?xml version="1.0" encoding="UTF-8"?><svg id="Layer_2" xmlns="http://www.w3.org/2000/svg" viewBox="0 0 504 245.65"><defs><style>.cls-1{fill:#8a1f03;}</style></defs><path class="cls-1" d="m332.36,165.29c0-10.25-3.17-18.55-9.41-24.71-6.15-6.06-13.98-9.04-23.59-9.04-10.62,0-19.02,4.1-25.35,12.12-5.22,6.81-7.93,14.45-7.93,23.03,0,9.13,2.61,17.06,7.83,23.68,5.97,7.65,14.36,11.56,24.89,11.56,9.88,0,17.99-3.63,24.33-10.81,6.15-6.9,9.23-15.57,9.23-25.82Zm-16.04-22c5.04,6.06,7.55,14.17,7.55,24.52,0,11.37-2.89,19.67-8.58,24.99-3.92,3.63-8.67,5.4-14.08,5.4-7.74,0-13.99-3.07-18.83-9.13-5.13-6.34-7.55-14.54-7.55-24.9,0-9.41,2.23-16.78,6.71-21.9,4.29-4.85,10.07-7.27,17.25-7.27s12.87,2.8,17.53,8.3Z"/><path class="cls-1" d="m349.24,164.92c0-10.45,2.52-18.28,7.46-23.4,4.01-4.2,10.35-6.25,18.84-6.25,7.46,0,12.95,1.68,16.41,4.94,2.42,2.05,3.54,5.03,3.54,9.04,0,1.22.28,1.87.66,1.87.55,0,.83-.65.93-1.87.09-4.19.18-7.27.18-9.23.29-2.89.47-4.56.47-5.03,0-.65-.37-1.03-1.11-1.03-1.59,0-4.48-.47-8.48-1.31-3.92-.74-8.02-1.12-12.21-1.12-11,0-19.48,3.26-25.45,9.7-3.36,3.54-5.88,7.93-7.46,12.96-1.31,3.91-1.96,7.73-1.96,11.46,0,11.38,3.45,20.23,10.16,26.66,6.62,6.34,15.75,9.6,27.6,9.6,6.99,0,12.02-.65,15.1-2.05,1.02-.37,1.68-1.3,2.05-2.62.37-1.3.84-3.54,1.3-6.61.47-2.8.75-4.47.75-4.85,0-.84-.29-1.3-.84-1.3-.37,0-.65.47-.84,1.3-.47,3.17-1.58,5.69-3.17,7.46-1.59,1.77-3.54,2.89-5.78,3.54-1.87.46-4.57.66-8.02.66-8.77,0-15.94-3.26-21.82-9.79-5.5-6.25-8.3-13.89-8.3-22.75Z"/><path class="cls-1" d="m412.35,134.52c1.3.19,2.14.75,2.61,1.49.46.65.65,1.86.75,3.45.18,1.96.18,8.39.18,19.39v15.85c0,10.44-.09,16.96-.47,19.39-.37,2.89-1.11,4.48-2.14,4.76-1.12.28-1.96.47-2.61.47-.37,0-.65.19-.65.75,0,.46.47.65,1.3.65,1.77,0,4.47-.09,8.29-.28.46,0,3.73.09,9.79.28.84,0,1.31-.19,1.31-.65,0-.56-.19-.75-.65-.75-.37,0-1.49-.19-3.26-.47-1.77-.28-2.89-1.86-3.17-4.76-.28-2.42-.37-8.95-.37-19.39v-8.77h.37c2.23,2.98,6.53,8.11,12.77,15.29,6.62,7.73,10.81,12.3,12.59,13.79,2.24,1.96,3.82,3.17,4.85,3.73,1.59,1.03,3.36,1.59,5.31,1.77,1.31.19,3.17.19,5.78.19h4.29c1.21,0,1.77-.19,1.77-.65,0-.28,0-.37-.19-.56,3.08,1.58,7.09,2.42,12.12,2.42,5.97,0,10.35-1.12,13.33-3.17,5.12-3.73,7.73-8.86,7.73-15.29,0-3.92-1.03-7.55-2.98-10.82-2.15-3.45-5.69-7.09-10.72-10.91l-2.33-1.78c-4.2-3.17-7.09-5.78-8.49-7.73-1.59-2.15-2.33-4.66-2.33-7.46,0-2.98,1.03-5.41,3.26-7.18,2.05-1.68,4.66-2.52,7.73-2.52,5.69,0,9.32,1.49,10.91,4.38.65,1.4,1.12,2.89,1.21,4.48.09.75.37,1.12.84,1.12.37,0,.55-.65.55-1.96.29-6.06.47-9.23.47-9.51,0-.47-.28-.65-.94-.65-.84,0-1.87-.09-2.89-.37-2.52-.75-5.5-1.12-8.67-1.12-5.5,0-9.97,1.49-13.33,4.47-3.45,3.07-5.22,7.27-5.22,12.49,0,6.15,4.01,12.49,11.93,19.21l3.92,3.16c4.01,3.36,6.71,5.97,8.02,7.65,1.58,2.33,2.51,4.94,2.51,7.93,0,3.54-1.11,6.34-3.26,8.48-2.24,2.33-5.31,3.45-9.32,3.45-3.17,0-5.87-.65-8.2-1.96-2.7-1.58-4.38-3.82-4.94-6.9-.18-.84-.28-1.86-.28-3.26,0-.65-.28-1.03-.84-1.03-.37,0-.66.47-.66,1.5-.28,4.94-.47,8.11-.47,9.51,0,1.67.37,2.7,1.12,3.26-.19-.1-.37-.1-.66-.1-1.4,0-3.17-.47-5.13-1.3-1.87-.84-3.45-1.86-4.84-2.99-.75-.65-3.08-2.98-7.09-6.9-1.59-1.68-5.59-6.06-11.93-13.05-6.15-6.89-9.88-11-11.1-12.4,2.89-3.64,8.95-10.16,18.18-19.58,4.01-4.2,6.9-6.72,8.77-7.65,1.77-.84,3.26-1.21,4.66-1.21.56,0,.84-.28.84-.75s-.47-.65-1.31-.65c-5.04.18-7.74.18-8.01.18-3.08-.09-5.13-.18-6.25-.18-.65,0-1.03.18-1.03.65s.29.75.84.84c.65.1,1.02.75,1.02,1.78,0,.93-1.58,3.07-4.57,6.44-2.14,2.42-8.58,9.6-19.39,21.62h-.37v-5.31c0-11,0-17.43.19-19.39.09-2.79,1.12-4.47,2.89-4.94.74-.09,1.39-.19,2.14-.19.38,0,.65-.28.65-.74s-.46-.74-1.3-.74c-5.04.18-7.83.18-8.3.18-3.73-.09-6.9-.18-9.41-.18-.84,0-1.31.28-1.31.74s.18.74.65.74c.75,0,1.68.1,2.89.19Z"/><path class="cls-1" d="m68.99,133.59c0,.47.19.74.65.74.75,0,1.68.1,2.8.19,1.3.19,2.23.75,2.7,1.49.47.65.65,1.86.75,3.45.18,1.96.18,8.39.18,19.39v15.85c0,10.44-.18,16.96-.46,19.39-.47,2.99-1.21,4.57-2.15,4.76-1.21.28-1.96.37-2.52.47h-.09c-1.12-.1-2.33-.19-3.36-.37-3.91-.65-7.83-3.26-11.56-7.55-2.89-3.45-9.51-12.49-19.76-27.04,7.64-7.83,11.47-16.04,11.47-24.43,0-3.26-.75-6.34-2.33-9.23-1.21-2.14-2.61-3.91-4.2-5.13-3.91-3.07-9.69-4.57-17.43-4.57-6.71.1-10.44.19-11.19.19-4.29-.19-7.92-.28-10.72-.28-1.02.09-1.49.28-1.49.84,0,.47.19.65.75.65,1.4,0,2.52.1,3.17.28,1.59.38,2.61,1.03,3.17,1.96.56.84.84,2.14.93,4.1.18,2.24.18,9.88.18,22.84v18.56c0,12.31-.09,19.95-.46,22.93-.37,3.55-1.3,5.5-2.7,5.78-1.31.28-2.24.47-2.89.47-.47,0-.75.19-.75.56,0,.56.46.84,1.49.84,1.96,0,4.94-.09,8.95-.28.37,0,4.2.09,11.65.28,1.03,0,1.58-.28,1.58-.84,0-.37-.28-.56-.75-.56-.84,0-2.33-.19-4.29-.47-2.14-.28-3.35-2.23-3.73-5.78-.37-2.98-.46-10.62-.46-22.93v-2.52c0-.56.19-.84.65-.84l11.65.18c.46,0,.93.19,1.3.66,1.21,1.77,4.66,6.99,10.35,15.56,3.45,5.13,5.78,8.39,6.9,9.88,2.15,2.7,4.1,4.57,5.87,5.69,2.24,1.31,5.6,1.96,10.16,1.96h8.48c1.12,0,2.7,0,4.85-.19,1.21,0,2.42-.09,3.63-.09,2.24,0,4.57.09,6.9.19,8.01.28,12.86.37,14.54.37,1.77,0,2.89-.09,3.36-.28.65-.28,1.12-1.03,1.3-2.05.75-3.07,1.12-5.96,1.12-8.67,0-.93-.19-1.4-.56-1.4s-.65.47-.84,1.4c-.37,3.07-1.68,5.13-3.82,6.24-1.4.56-4.2.94-8.3.94s-6.8-.47-8.02-1.4c-1.21-.84-1.86-2.8-1.96-5.78v-22.84c0-.37.19-.65.56-.65,6.15,0,10.35.19,12.58.46,2.52.28,4.01,1.22,4.29,2.71.28.84.37,1.77.37,2.98,0,.56.19.84.56.84.56,0,.84-.47.84-1.68,0-1.49.1-3.45.37-5.78.37-2.98.65-4.66.65-4.94,0-.56-.18-.75-.46-.75-.19,0-.56.38-1.31,1.12-.46.65-1.86,1.03-4.01,1.3-8.67.1-13.33.19-13.98.19-.37,0-.47-.37-.47-.93v-24.43c0-.65.09-.93.47-.93.56,0,4.66.09,12.03.28,3.54.56,5.5,1.4,5.96,2.8.37.83.47,1.86.47,3.17,0,.74.28,1.12.75,1.12.28,0,.56-.28.75-.93.18-3.36.37-5.32.47-5.97.46-2.33.65-3.73.65-4.2,0-.56-.09-.84-.37-.84l-1.12.47c-2.33.28-3.64.46-3.82.46h-19.95c-3.92-.09-7.18-.18-9.69-.18-.93,0-1.31.28-1.31.74Zm-52.86-7.36c0-.66.28-1.12.75-1.31,1.3-.38,3.36-.65,6.34-.65,5.13,0,9.05,1.87,12.03,5.59,2.99,3.82,4.48,8.95,4.48,15.57,0,7.92-1.96,13.33-5.87,16.22-1.68,1.4-4.01,2.05-7.08,2.05-4.94,0-8.3-.56-9.98-1.68-.47-.37-.65-.75-.65-1.3v-34.49Z"/><path class="cls-1" d="m130.43,133.03c-3.91-.09-7.18-.18-9.7-.18-.83,0-1.3.28-1.3.74s.19.74.65.74c.75,0,1.68.1,2.8.19,1.4.19,2.24.75,2.71,1.49.47.65.65,1.86.74,3.45.19,1.96.19,8.39.19,19.39v15.85c0,10.44-.09,16.96-.46,19.39-.38,2.89-1.12,4.48-2.24,4.76-1.03.28-1.87.47-2.52.47-.37,0-.65.19-.65.75,0,.46.37.65,1.3.65,1.12,0,2.8,0,5.04-.19,1.21,0,2.33,0,3.45-.09l6.9.56c6.53.28,10.44.46,11.65.46,10.82,0,19.3-3.44,25.36-10.35,6.06-6.71,9.04-15.2,9.04-25.17,0-9.23-2.71-16.87-8.21-22.84-4.2-4.85-9.97-7.93-17.34-9.33-3.27-.56-8.67-.93-16.22-.93-6.8.18-10.53.18-11.19.18Zm4.75,3.73c1.12-.46,2.8-.65,5.04-.65,5.96,0,10.72.56,14.36,1.68,4.85,1.59,9.14,4.29,12.77,8.39,5.22,5.87,7.83,13.43,7.83,22.47,0,9.69-2.14,16.78-6.53,21.35-5.22,5.4-11.74,8.11-19.58,8.11s-12.4-1.21-13.89-3.54c-.46-.74-.84-2.89-.93-6.43-.1-1.21-.19-7.65-.19-19.58v-30.02c0-.84.47-1.49,1.12-1.77Z"/><path class="cls-1" d="m210.61,121.19c-4.38-.19-7.93-.28-10.82-.28-1.02.09-1.49.37-1.49.84s.28.65.75.65c1.49,0,2.52.1,3.26.28,1.49.38,2.52,1.03,3.17,1.96.47.84.84,2.24.93,4.1.1,2.24.19,9.88.19,22.84v18.56c0,12.31-.19,19.95-.47,22.93-.46,3.55-1.4,5.5-2.79,5.78-1.3.28-2.24.47-2.89.47-.46,0-.75.19-.75.56,0,.56.56.84,1.59.84,1.86,0,4.85-.09,8.86-.28.37,0,4.29.09,11.75.28,1.03,0,1.49-.28,1.49-.84,0-.37-.28-.56-.75-.56-.93,0-2.33-.19-4.28-.47-2.15-.28-3.36-2.23-3.73-5.78-.28-2.98-.46-10.62-.46-22.93v-2.52c0-.56.28-.84.65-.84l11.75.18c.37,0,.84.19,1.21.66,1.31,1.77,4.76,6.99,10.35,15.56,3.54,5.22,5.87,8.48,6.89,9.88,2.15,2.7,4.11,4.57,5.97,5.69,2.14,1.31,5.59,1.96,10.16,1.96h6.72c1.49,0,2.33-.28,2.33-.84,0-.37-.37-.56-.93-.56-1.3,0-2.42-.1-3.63-.37-4.01-.65-7.92-3.26-11.65-7.55-3.26-3.92-9.79-12.96-19.76-27.04,7.64-7.83,11.56-16.04,11.56-24.43,0-6.06-2.24-10.91-6.62-14.36-3.82-3.07-9.6-4.57-17.34-4.57-6.81.1-10.54.19-11.19.19Zm3.54,5.04c0-.66.28-1.12.74-1.31,1.3-.38,3.45-.65,6.43-.65,5.03,0,9.04,1.87,12.03,5.59,2.89,3.82,4.38,8.95,4.38,15.57,0,7.92-1.96,13.33-5.78,16.22-1.77,1.4-4.1,2.05-7.18,2.05-4.85,0-8.21-.56-9.97-1.68-.37-.37-.65-.75-.65-1.3v-34.49Z"/><path class="cls-1" d="m264.68,219.56c0-.22-.09-.22-.19-.22l-1.12.11c-1.22.11-2.05.21-2.71.21h-15.66c-1.49,0-2.8-.1-4.01-.21-.93-.22-1.49-.32-1.68-.32-.28,0-.37.21-.47.64-.56,1.62-.84,2.92-.84,3.89,0,.32.1.54.37.54.19,0,.37-.22.37-.43.19-.43.37-.76.75-1.19.37-.65,1.68-.97,3.73-.97l5.96-.11v13.8c0,3.88,0,6.26-.18,7.23-.18,1.19-.56,1.83-1.12,1.83-.47.11-.93.21-1.49.21-.37,0-.56.11-.56.22,0,.22.18.32.74.32h11.19c.56,0,.74-.11.74-.32,0-.11-.19-.22-.56-.22l-2.05-.21c-.84,0-1.49-.65-1.58-1.83-.09-.97-.19-3.35-.19-7.23v-13.8h4.94c3.07.11,4.66.76,4.76,1.94v.33c.09.54.18.75.46.75s.37-.21.37-.54l.09-3.77c.38.1.84.21,1.31.43.93.43,1.77,1.18,2.8,2.48,3.73,4.74,6.06,7.98,6.9,9.71.56,1.18.94,2.37.94,3.56v2.8c0,1.3,0,2.38-.1,3.35-.09,1.19-.47,1.73-1.21,1.83-.46.11-.93.21-1.4.21s-.66.11-.66.22c0,.22.28.32.84.32h11.01c.56,0,.84-.11.84-.32,0-.11-.19-.22-.56-.22l-2.05-.21c-1.02-.11-1.49-.65-1.58-1.83-.1-.97-.1-2.05-.1-3.35v-2.8c0-1.4.19-2.59.56-3.34.37-.76,1.49-2.59,3.54-5.5,2.05-2.91,3.36-4.64,4.01-5.28.93-.98,1.58-1.51,2.14-1.73.56-.22,1.12-.32,1.77-.32.47,0,.75-.11.75-.44,0-.11-.19-.21-.75-.21h-7.92c-.47,0-.65.1-.65.32,0,.11.18.22.65.33.56.1.84.43.84.86s-.18,1.08-.55,1.73c-.38.75-2.33,3.78-5.88,9.27-3.36-4.64-5.6-7.98-6.81-10.03-.37-.54-.46-.97-.46-1.19,0-.32.18-.54.56-.64.65-.11.93-.22.93-.33,0-.21-.19-.32-.65-.32h-9.14Z"/><path class="cls-1" d="m224.59,220.31c.84.11,1.3.76,1.4,1.84v13.15c0,3.99,0,6.47-.18,7.44-.1.97-.47,1.62-1.12,1.62-.37.11-.84.21-1.39.21-.47,0-.66.11-.66.22,0,.22.28.32.75.32h11.19c.56,0,.75-.11.75-.32,0-.11-.18-.22-.56-.22l-2.05-.21c-.93,0-1.49-.54-1.58-1.62-.1-.97-.18-3.45-.18-7.44v-5.93c0-4.1.09-6.47.09-7.22.1-1.08.56-1.72,1.49-1.84l1.21-.1c.37,0,.56-.11.56-.44,0-.11-.28-.21-.84-.21h-9.98c-.56,0-.93.1-.93.21,0,.33.19.44.65.44.65,0,1.12,0,1.4.1Z"/><path class="cls-1" d="m190.28,226.35h.09c4.48,4.1,7.65,6.9,9.42,8.52l11.75,9.92c.56.54,1.03.76,1.31.76.37,0,.56-.32.56-1.08l.46-21.35c0-1.62.47-2.59,1.4-2.81.37-.1.75-.1,1.21-.1s.74-.11.74-.33-.37-.32-.93-.32c-2.33,0-3.64.1-3.92.1l-4.75-.1c-.75,0-1.03.1-1.03.32s.19.33.65.33c.93,0,1.68,0,2.05.1.93.43,1.31,1.41,1.4,3.13l.37,15.2h-.18c-4.01-3.66-6.9-6.25-8.77-7.76-7.83-6.91-11.93-10.57-12.31-10.89-.74-.65-1.21-.97-1.4-.97-.37,0-.56.32-.56,1.08l-.37,20.06c0,2.59-.37,3.99-1.21,4.21l-1.77.21c-.47,0-.65.11-.65.22,0,.22.28.32.93.32l4.2-.11c.56,0,2.24.11,4.94.11.65,0,.93-.11.93-.32,0-.11-.28-.22-.65-.22-.84,0-1.49-.1-2.05-.32-.84-.22-1.3-1.4-1.4-3.66l-.47-14.24Z"/><path class="cls-1" d="m149.91,219.56c-.65,0-.93.1-.93.32s.28.33.75.33c.75,0,1.3,0,1.49.1,1.12.11,1.68.76,1.77,1.84v12.18c0,4.1,1.21,7.12,3.55,9.06,2.05,1.51,4.94,2.26,8.85,2.26,3.26,0,5.96-.86,8.2-2.47,2.52-1.84,3.73-5.18,3.73-10.14v-3.67c0-4.1.09-6.47.09-7.22.09-1.08.65-1.72,1.49-1.84.37-.1.74-.1,1.11-.1.56,0,.75-.11.75-.33s-.28-.32-.84-.32h-9.04c-.56,0-.84.1-.84.32s.19.33.65.33c.75,0,1.22,0,1.4.1,1.12.11,1.68.76,1.77,1.84v11.44c0,4.31-.74,7.22-2.24,8.41-1.49,1.3-3.27,1.83-5.5,1.83-1.96,0-3.54-.43-4.94-1.4-2.05-1.4-3.07-4.21-3.07-8.3v-4.75c0-4.1,0-6.47.09-7.22.09-1.08.56-1.72,1.4-1.84l1.21-.1c.37,0,.65-.11.65-.33s-.28-.32-.93-.32h-10.63Z"/><path class="cls-1" d="m147.96,245.11c.65,0,1.03-.11,1.03-.32s-.28-.22-.65-.22c-.75,0-1.58-.1-2.52-.32-.93-.32-1.58-1.4-1.86-3.45l-3.64-20.92c-.19-.75-.37-1.08-.75-1.08-.18,0-.56.32-.84.86l-10.81,19.31-10.81-19.09c-.37-.75-.75-1.08-1.03-1.08-.37,0-.56.32-.65.86l-4.01,22.11c-.19,1.61-.74,2.48-1.59,2.7l-1.21.1c-.38,0-.56,0-.56.22s.18.32.65.32h8.11c.65,0,.94-.11.94-.32s-.19-.22-.56-.22l-1.68-.21c-.84-.11-1.21-.54-1.21-.97l.1-1.72,2.05-13.48h.19c2.61,4.74,3.91,7.22,4.1,7.55l4.57,7.65c.75,1.19,1.21,1.72,1.4,1.72.28,0,.75-.64,1.49-1.94l8.67-15.32h.1l2.42,14.88c.09.86,0,1.4-.19,1.51-.37,0-.47.11-.47.32s.38.33,1.12.33c2.14.21,4.85.21,8.11.21Z"/><path class="cls-1" d="m75.8,219.88c-.47-.75-.74-1.08-1.12-1.08-.28,0-.56.32-.65.86l-3.91,22.11c-.28,1.61-.84,2.48-1.59,2.7l-1.21.1c-.47,0-.65,0-.65.22s.28.32.75.32h8.11c.56,0,.93-.11.93-.32s-.19-.22-.65-.22l-1.68-.21c-.75-.11-1.12-.54-1.12-.97l.09-1.72,2.05-13.48h.18l4.1,7.55c.19.43,1.68,2.9,4.57,7.65.75,1.19,1.21,1.72,1.4,1.72s.75-.64,1.49-1.94l8.57-15.32h.19l2.33,14.88c.19.86.09,1.29-.18,1.51-.28,0-.37.11-.37.32s.37.33,1.12.33c2.05.21,4.75.21,8.02.21.74,0,1.03-.11,1.03-.32s-.18-.22-.65-.22c-.66,0-1.49-.1-2.43-.32-.93-.32-1.58-1.4-1.96-3.45l-3.54-20.92c-.18-.75-.37-1.08-.74-1.08-.28,0-.56.32-.84.86l-10.81,19.31-10.82-19.09Z"/><path class="cls-1" d="m59.76,222.47c-2.8-2.26-6.71-3.34-11.65-3.34-5.5,0-9.69,1.51-12.68,4.42-2.42,2.49-3.73,5.39-3.73,8.85s1.31,6.36,3.73,8.95c2.99,2.81,7,4.31,12.22,4.31,4.94,0,8.95-1.4,12.03-4.1,2.89-2.58,4.38-5.82,4.38-9.81s-1.4-7.01-4.29-9.28Zm-12.87-1.72c3.36,0,6.16,1.08,8.3,3.23,2.24,2.37,3.36,5.29,3.36,9.06,0,7.22-3.08,10.89-9.23,10.89-3.64,0-6.62-1.19-8.95-3.67-2.14-2.37-3.17-5.39-3.17-8.95,0-7.12,3.26-10.57,9.69-10.57Z"/><path class="cls-1" d="m22.93,219.45c-1.86-.22-3.73-.32-5.78-.32-5.31,0-9.51,1.18-12.49,3.56-3.08,2.37-4.66,5.5-4.66,9.28,0,4.2,1.68,7.55,4.94,9.91,3.26,2.48,7.83,3.78,13.61,3.78,3.26,0,5.59-.32,7.08-.75.56-.22.93-.54,1.03-1.08.65-1.72.93-3.23.93-4.42,0-.43-.19-.54-.37-.54-.28,0-.47.21-.56.65-.18.86-.65,1.62-1.3,2.27-1.3,1.29-3.73,1.94-7.27,1.94-3.08,0-5.78-1.08-8.2-3.02-2.89-2.37-4.29-5.39-4.29-9.06,0-3.98,1.21-6.9,3.64-8.84,1.86-1.41,4.29-2.05,7.46-2.05,3.82,0,6.52.64,8.02,2.05,1.03.97,1.58,2.05,1.58,3.13,0,.54.09.75.37.75s.47-.22.47-.75c.09-1.73.09-2.92.18-3.66.09-1.08.19-1.73.19-1.84,0-.32-.19-.43-.65-.43-1.58-.22-2.98-.43-3.92-.54Z"/><path class="cls-1" d="m486.75,222.15c.1.75.19,3.12.19,7.22v5.93c0,3.88-.19,6.26-.28,7.23-.09,1.19-.47,1.83-1.12,1.83-.37.11-.84.21-1.4.21-.46,0-.66.11-.66.22,0,.22.29.32.75.32l16.03.11c1.21,0,1.87-.22,2.15-.86.28-1.29.47-2.48.47-3.77,0-.33-.1-.54-.29-.54-.28,0-.46.1-.46.43-.19,1.3-.84,2.16-1.78,2.59-.65.32-1.96.32-3.72.32-1.96,0-3.36-.1-3.82-.54-.56-.32-.93-1.07-.93-2.26v-7.98c0-.22.09-.33.28-.33l5.6.11c1.3.22,2.05.65,2.23,1.4.1.22.1.65.1,1.19,0,.22.18.32.37.32.28,0,.37-.21.37-.64l.46-4.75c0-.21-.09-.32-.28-.32-.1,0-.28.22-.66.43-.27.33-.83.43-1.86.54-.56,0-2.71.11-6.34.11-.19,0-.28-.11-.28-.43v-8.52c0-.22.09-.33.28-.33l5.6.12c1.49.11,2.42.54,2.7,1.18.09.32.19.65.19,1.19,0,.32.09.54.37.54.18,0,.37-.11.46-.44l.18-2.15c.19-1.4.29-2.05.29-2.26,0-.22-.09-.33-.29-.33,0,0-.18.11-.55.22l-1.78.21-15.56-.1c-.56,0-.84.1-.84.32s.18.33.55.33c.84,0,1.4,0,1.59.1,1.12.11,1.67.76,1.67,1.84Z"/><path class="cls-1" d="m465.03,219.13c-4.29,0-7.83.64-10.72,2.15-4.57,2.37-6.81,6.15-6.81,11.11,0,4.42,1.77,7.77,5.5,10.14,3.26,2.05,7.46,3.12,12.77,3.12,4.1,0,7.28-.54,9.51-1.51.37-.21.56-.65.56-1.29v-7.76c.09-1.08.56-1.72,1.49-1.94l1.03-.11c.37,0,.56-.11.56-.22,0-.21-.28-.32-.75-.32h-10.35c-.56,0-.84.11-.84.32,0,.11.18.22.56.22.65,0,1.12.11,1.59.11,1.12.21,1.67.86,1.67,1.94v7.23c0,.64-.18,1.08-.75,1.18-.56.33-1.67.44-3.36.44-4.1,0-7.46-1.19-9.97-3.67-2.52-2.37-3.83-5.39-3.83-9.06s1.21-6.69,3.64-8.3c1.96-1.4,4.57-2.16,7.83-2.16,4.01,0,6.99.86,8.86,2.7.75.65,1.12,1.51,1.4,2.8,0,.22.19.43.37.43.28,0,.47-.22.47-.75.18-3.46.28-5.28.28-5.5,0-.32-.19-.43-.56-.43-.28,0-1.3-.11-3.17-.33-1.77-.43-4.1-.54-6.99-.54Z"/><path class="cls-1" d="m422.7,219.88c0,.22.28.33.74.33.75,0,1.3,0,1.49.1,1.03.11,1.58.76,1.67,1.84.09.75.09,3.12.09,7.22v5.93c0,3.88,0,6.26-.19,7.23-.18,1.19-.55,1.83-1.12,1.83-.37.11-.84.21-1.49.21-.37,0-.56.11-.56.22,0,.22.28.32.75.32l15.94.11c1.31,0,1.96-.22,2.15-.86.37-.97.56-2.26.56-3.77,0-.33-.1-.54-.28-.54-.28,0-.37.1-.47.43-.28,1.3-.84,2.16-1.77,2.59-.74.32-1.96.32-3.73.32-2.05,0-3.26-.1-3.91-.54-.46-.32-.84-1.07-.84-2.26v-7.98c0-.22.1-.33.19-.33l5.69.11c1.21.22,1.96.65,2.23,1.4l.1,1.19c0,.22.18.32.37.32.28,0,.37-.21.37-.64l.19-2.27c.18-1.51.28-2.37.28-2.48,0-.21-.09-.32-.28-.32-.1,0-.28.22-.66.43-.27.33-.93.43-1.86.54-.65,0-2.79.11-6.34.11-.19,0-.28-.11-.28-.43v-8.52c0-.22.1-.33.28-.33l5.59.12c1.49.11,2.42.54,2.7,1.18.1.32.19.75.19,1.19,0,.32.09.54.37.54.18,0,.37-.11.37-.44.09-1.18.18-1.94.18-2.15.28-1.4.38-2.05.38-2.26,0-.22-.09-.33-.29-.33l-.65.22-1.68.21-15.57-.1c-.66,0-.93.1-.93.32Z"/><path class="cls-1" d="m411.52,219.88c0-.21-.28-.32-.84-.32h-10.81c-.56,0-.84.1-.84.32s.18.33.65.33c.65,0,1.03,0,1.3.1,1.03.11,1.59.76,1.68,1.84.09.75.09,3.12.09,7.22v5.93c0,3.88-.09,6.26-.19,7.23-.19,1.19-.56,1.83-1.12,1.83-.37.11-.84.21-1.49.21-.37,0-.65.11-.65.22,0,.22.28.32.84.32l16.5.11c1.49,0,2.33-.32,2.51-.86.37-1.29.56-2.59.56-3.88,0-.43-.09-.65-.28-.65-.28,0-.37.22-.46.54-.1.86-.47,1.51-1.03,2.05-.65.65-2.23.97-4.66.97s-4.1-.32-4.75-.75c-.56-.43-.84-2.8-.84-7.34l.1-13.15c.09-1.08.56-1.72,1.49-1.84.28-.1.84-.1,1.49-.1.47,0,.75-.11.75-.33Z"/><path class="cls-1" d="m378.7,222.15c0,.75.1,3.12.1,7.22v5.93c0,3.88-.1,6.26-.19,7.23-.19,1.19-.56,1.83-1.21,1.83-.28.11-.75.21-1.4.21-.37,0-.65.11-.65.22,0,.22.28.32.84.32l16.5.11c1.49,0,2.33-.32,2.52-.86.37-1.18.56-2.48.56-3.88,0-.43-.09-.65-.28-.65-.28,0-.37.22-.47.54-.09.86-.47,1.51-1.03,2.05-.65.65-2.23.97-4.66.97s-4.1-.32-4.75-.75c-.56-.43-.84-2.8-.84-7.34v-5.93c0-4.1,0-6.47.1-7.22.09-1.08.56-1.72,1.49-1.84.28-.1.84-.1,1.5-.1.46,0,.75-.11.75-.33s-.28-.32-.84-.32h-10.81c-.65,0-.94.1-.94.32s.28.33.75.33c.65,0,1.02,0,1.31.1,1.03.11,1.58.76,1.67,1.84Z"/><path class="cls-1" d="m366.21,222.47c-2.89-2.26-6.81-3.34-11.75-3.34-5.4,0-9.6,1.51-12.59,4.42-2.52,2.49-3.73,5.39-3.73,8.85s1.21,6.36,3.73,8.95c2.89,2.81,7,4.31,12.22,4.31,4.94,0,8.95-1.4,11.93-4.1,2.99-2.58,4.48-5.82,4.48-9.81s-1.49-7.01-4.29-9.28Zm-12.87-1.72c3.35,0,6.06,1.08,8.21,3.23,2.24,2.37,3.36,5.29,3.36,9.06,0,7.22-3.08,10.89-9.14,10.89-3.73,0-6.71-1.19-8.95-3.67-2.15-2.37-3.27-5.39-3.27-8.95,0-7.12,3.27-10.57,9.79-10.57Z"/><path class="cls-1" d="m333.58,225.92c0-1.73.09-2.92.09-3.66.19-1.08.19-1.73.19-1.84,0-.32-.19-.43-.56-.43-1.68-.22-2.98-.43-4.01-.54-1.77-.22-3.73-.32-5.69-.32-5.31,0-9.51,1.18-12.59,3.56-3.07,2.37-4.57,5.5-4.57,9.28,0,4.2,1.59,7.55,4.86,9.91,3.35,2.48,7.83,3.78,13.61,3.78,3.26,0,5.69-.32,7.18-.75.47-.22.84-.54,1.03-1.08.56-1.72.84-3.23.84-4.42,0-.43-.09-.54-.37-.54-.19,0-.37.21-.46.65-.28.86-.75,1.62-1.4,2.27-1.3,1.29-3.73,1.94-7.27,1.94-2.98,0-5.68-1.08-8.21-3.02-2.8-2.37-4.19-5.39-4.19-9.06,0-3.98,1.21-6.9,3.63-8.84,1.78-1.41,4.29-2.05,7.46-2.05,3.73,0,6.43.64,8.02,2.05.93.97,1.49,1.94,1.49,3.13,0,.54.19.75.47.75s.37-.22.46-.75Z"/><path class="cls-1" d="m222.04,67.46l-20.46-11.7c-4.71-2.04-8.67-4.45-12.25-7.31-3.41-2.89-5.53-6.49-6.01-10.7,0,0-.15.03-.13.15l-115.18,70.29s3.65.69,20.35-1.46c0,0,23.05-4.26,33.45-6.32,11.46-2.2,22.03-4.01,31.75-5.31l.16-.02c3.03-.45,6.07-.76,9.12-1.08,5.78-.71,11.13-1.11,16.02-1.44,12.31-5.59,26.77-13.82,43.19-25.09Z"/><path class="cls-1" d="m358.3,46.05c-2.3-2.5-8.85-11.48-10.47-13.91-7.7-11.23-11.42-22-11.14-32.14l-15,10.35c-17.66,11.84-36.34,24.12-56.05,36.59-14.43,9.26-27.67,17.32-39.69,24.51h0l-.14.03h0c-15.1,9.01-28.18,16.29-39.38,21.98,8.75-.55,27.56,2.06,55.98,7.77,6.87,1.39,14.1,2.53,21.69,3.42,1.6.19,1.58.2,3.21.36"/><path class="cls-1" d="m271.72,106.23c22.83,2.28,51.41,2.24,80.64.21,36.65-2.64,76.64,1.18,76.64,1.18l-66.43-59.09h0"/></svg>