<?xml version="1.0" encoding="utf-8"?>
<!-- Generator: Adobe Illustrator 19.2.1, SVG Export Plug-In . SVG Version: 6.00 Build 0)  -->
<svg version="1.1" id="layer" xmlns="http://www.w3.org/2000/svg" xmlns:xlink="http://www.w3.org/1999/xlink" x="0px" y="0px"
	 viewBox="0 0 652 652" style="enable-background:new 0 0 652 652;" xml:space="preserve">
<style type="text/css">
	.st0{fill:#FFFFFF;}
	.st1{font-family:'ArialMT';}
	.st2{font-size:20.7648px;}
	.st3{font-size:20.8081px;}
	.st4{fill:#271800;}
	.st5{fill:#B5B5B6;}
	.st6{fill:#C70026;}
	.st7{fill:none;stroke:#040000;stroke-width:0.2153;}
</style>
<text transform="matrix(0.1485 0.9889 -0.9889 0.1485 28.2246 340.5051)" class="st0 st1 st2">→</text>
<text transform="matrix(0.1485 0.9889 -0.9889 0.1485 28.2253 340.7331)" class="st0 st1 st2">→</text>
<text transform="matrix(0.1485 0.9889 -0.9889 0.1485 31.6125 340.6203)" class="st0 st1 st3">→</text>
<text transform="matrix(0.1485 0.9889 -0.9889 0.1485 31.6137 340.392)" class="st0 st1 st3">→</text>
<path class="st4" d="M227.3,355.9c0-4.5-0.2-13-1.4-15.2c-0.5-0.9-1.9-1.4-3.7-1.5l-1.8-0.2c-0.4-0.5-0.3-1.5,0.1-1.8
	c2.8,0.2,5.5,0.2,8.4,0.2c3.1,0,5.1-0.1,7.7-0.2c0.6,0.4,0.5,1.3,0.1,1.8l-1.8,0.2c-1.8,0.1-3.2,0.8-3.7,1.8c-1,2.4-1,10.9-1,15v8.3
	c0,6.4-1,13.2-5.1,17.6c-3.2,3.4-8.6,5.4-14,5.4c-5.1,0-10.1-0.9-13.7-4.1c-3.9-3.2-5.7-8.6-5.7-17.3v-17.3c0-7.6-0.1-8.9-4.4-9.3
	l-1.8-0.2c-0.4-0.3-0.3-1.6,0.2-1.8c3.7,0.2,6.2,0.2,9.1,0.2c3,0,5.4-0.1,9-0.2c0.4,0.2,0.6,1.5,0.1,1.8l-1.8,0.2
	c-4.3,0.4-4.4,1.6-4.4,9.3v15.9c0,11.8,3.7,19.6,14.9,19.6c10.7,0,14.7-8.4,14.7-19.5V355.9z"/>
<path class="st4" d="M287.3,373.5c0,2.2,0,10.9,0.2,12.9c-0.1,0.4-0.6,0.8-1.4,0.8c-0.9-1.3-3-3.8-9.4-11.1l-17-19.4
	c-2-2.3-7-8.3-8.5-9.9H251c-0.3,0.9-0.4,2.6-0.4,4.8v16c0,3.5,0.1,13,1.3,15.2c0.4,0.8,1.9,1.2,3.7,1.4l2.3,0.2
	c0.4,0.6,0.4,1.5-0.1,1.8c-3.3-0.2-5.9-0.2-8.6-0.2c-3.1,0-5.1,0.1-7.6,0.2c-0.5-0.4-0.6-1.4-0.2-1.8l2-0.2c1.7-0.2,2.9-0.7,3.2-1.5
	c1-2.6,1-11.6,1-15.1v-21.2c0-2-0.1-3.6-1.6-5.3c-1-1-2.8-1.6-4.5-1.8l-1.2-0.1c-0.4-0.4-0.4-1.5,0.2-1.8c3.1,0.2,7,0.2,8.3,0.2
	c1.2,0,2.4-0.1,3.4-0.2c1.5,3.8,10.1,13.5,12.6,16.2l7.1,8c5.1,5.6,8.7,9.8,12.1,13.3h0.2c0.3-0.4,0.3-1.5,0.3-3.1v-15.7
	c0-3.5-0.1-13-1.5-15.2c-0.4-0.7-1.6-1.1-4.6-1.5l-1.3-0.1c-0.5-0.4-0.4-1.6,0.2-1.8c3.4,0.2,5.9,0.2,8.7,0.2c3.2,0,5.1-0.1,7.6-0.2
	c0.6,0.4,0.6,1.4,0.1,1.8l-1,0.1c-2.3,0.4-3.8,1-4.1,1.5c-1.2,2.6-1.1,11.8-1.1,15.1V373.5z"/>
<path class="st4" d="M306.1,348.7c0-7.8-0.2-9-4.5-9.4l-1.8-0.2c-0.4-0.3-0.3-1.6,0.1-1.8c3.7,0.2,6.2,0.2,9.2,0.2
	c2.9,0,5.4-0.1,9.1-0.2c0.4,0.2,0.6,1.5,0.1,1.8l-1.8,0.2c-4.3,0.4-4.5,1.6-4.5,9.4v26.1c0,7.8,0.2,8.8,4.5,9.3l1.8,0.2
	c0.4,0.3,0.3,1.6-0.1,1.8c-3.7-0.2-6.2-0.2-9.1-0.2c-3.1,0-5.6,0.1-9.2,0.2c-0.4-0.2-0.6-1.4-0.1-1.8l1.8-0.2
	c4.3-0.5,4.5-1.5,4.5-9.3V348.7z"/>
<path class="st4" d="M329.6,345.3c-1.7-4.1-2.8-5.7-5.9-6l-1.3-0.1c-0.5-0.4-0.4-1.5,0.2-1.8c2.1,0.2,4.5,0.2,7.6,0.2
	c3.2,0,5.8-0.1,8.9-0.2c0.5,0.3,0.7,1.4,0.1,1.8l-1.1,0.1c-2.8,0.4-3.4,0.8-3.4,1.4c0.1,0.7,1.4,4.7,3.7,10.3
	c3.4,8.5,6.8,17,10.4,25.3c2.3-4.9,5.4-12.4,7.1-16.3c2.1-5,5.6-13.3,6.8-16.5c0.6-1.5,0.7-2.3,0.7-2.9c0-0.5-0.7-1.1-3.3-1.4
	l-1.3-0.1c-0.5-0.4-0.4-1.5,0.1-1.8c2.1,0.2,4.9,0.2,7.6,0.2c2.4,0,4.7-0.1,7.1-0.2c0.5,0.3,0.5,1.5,0.2,1.8l-2.2,0.1
	c-1.8,0.2-2.9,1-3.8,2.6c-2.1,3.5-4.9,9.4-8.2,16.9l-4,9c-2.9,6.8-6.4,15.3-7.6,19.2c-0.2,0.1-0.5,0.2-0.8,0.2
	c-0.4,0-0.7-0.1-1.1-0.2c-0.8-3.1-2.1-6.7-3.4-9.8L329.6,345.3z"/>
<path class="st4" d="M382,348.5c0-7.6-0.2-8.7-4.5-9.3l-1.2-0.2c-0.4-0.3-0.3-1.6,0.2-1.8c3.2,0.2,5.6,0.2,8.7,0.2H399
	c4.7,0,9,0,9.9-0.2c0.4,1.3,0.9,6.5,1.2,9.8c-0.3,0.4-1.5,0.6-1.9,0.1c-1.1-3.5-1.8-6-5.6-7c-1.5-0.4-3.9-0.4-7.1-0.4h-5.3
	c-2.2,0-2.2,0.1-2.2,2.9v14.7c0,2.1,0.2,2.1,2.4,2.1h4.3c3.1,0,5.4-0.1,6.2-0.4c0.9-0.3,1.4-0.7,1.8-2.6l0.6-3
	c0.4-0.4,1.6-0.4,1.9,0.1c0,1.8-0.3,4.6-0.3,7.4c0,2.6,0.3,5.4,0.3,7c-0.3,0.5-1.5,0.5-1.9,0.1l-0.7-2.9c-0.3-1.3-0.8-2.4-2.3-2.8
	c-1-0.3-2.8-0.4-5.7-0.4h-4.3c-2.2,0-2.4,0.1-2.4,2v10.4c0,3.9,0.2,6.4,1.4,7.6c0.9,0.9,2.4,1.7,8.9,1.7c5.6,0,7.8-0.3,9.4-1.1
	c1.3-0.7,3.3-3.3,5.2-7.1c0.5-0.4,1.5-0.1,1.8,0.5c-0.5,2.6-2.4,8.2-3.3,10.2c-6.6-0.1-13.1-0.2-19.7-0.2h-6.6
	c-3.2,0-5.7,0.1-10,0.2c-0.4-0.2-0.6-1.4-0.2-1.8l2.4-0.2c4.2-0.4,4.6-1.5,4.6-9.2V348.5z"/>
<path class="st4" d="M425.7,348.6c0-7-0.2-8.2-3.2-8.6l-2.4-0.3c-0.5-0.4-0.5-1.5,0.1-1.9c4.1-0.4,9.2-0.6,16.4-0.6
	c4.6,0,8.9,0.4,12.3,2.2c3.5,1.8,6.1,5.1,6.1,10.3c0,7-5.5,10.8-9.2,12.3c-0.4,0.4,0,1.2,0.4,1.8c5.9,9.5,9.8,15.4,14.8,19.5
	c1.3,1.1,3.1,1.9,5.1,2.1c0.4,0.2,0.4,0.7,0.1,1c-0.7,0.2-1.8,0.4-3.2,0.4c-6.2,0-10-1.8-15.2-9.3c-1.9-2.7-4.9-7.8-7.2-11.1
	c-1.1-1.6-2.3-2.3-5.2-2.3c-3.3,0-3.5,0.1-3.5,1.6v9.3c0,7.7,0.2,8.6,4.4,9.2l1.5,0.2c0.4,0.4,0.3,1.6-0.2,1.8
	c-3.3-0.1-5.8-0.2-8.7-0.2c-3.1,0-5.7,0.1-9.2,0.2c-0.4-0.2-0.6-1.3-0.1-1.8l1.8-0.2c4.3-0.5,4.4-1.5,4.4-9.2V348.6z M431.7,359.1
	c0,1.3,0,2.1,0.2,2.4c0.2,0.2,1.3,0.4,5.1,0.4c2.7,0,5.4-0.3,7.6-1.9c2-1.5,3.7-4.1,3.7-9.1c0-5.8-3.6-11.3-11.8-11.3
	c-4.6,0-4.8,0.3-4.8,2.3V359.1z"/>
<path class="st4" d="M480.8,387.2c-6.2,0-10.1-1.9-11.5-2.7c-0.9-1.6-1.8-6.8-2-10.3c0.4-0.5,1.5-0.7,1.8-0.2
	c1.1,3.7,4.1,10.9,12.6,10.9c6.2,0,9.2-4,9.2-8.4c0-3.2-0.7-6.8-6-10.3l-7-4.6c-3.7-2.4-7.9-6.6-7.9-12.6c0-7,5.4-12.6,15-12.6
	c2.3,0,4.9,0.4,6.8,0.9c0.9,0.3,2,0.4,2.6,0.4c0.7,1.8,1.3,5.9,1.3,9c-0.3,0.4-1.5,0.7-1.8,0.2c-1-3.5-2.9-8.3-10-8.3
	c-7.2,0-8.7,4.8-8.7,8.2c0,4.3,3.5,7.3,6.2,9l5.9,3.7c4.6,2.9,9.2,7.1,9.2,14.1C496.5,381.6,490.4,387.2,480.8,387.2"/>
<path class="st4" d="M510.4,348.7c0-7.8-0.2-9-4.5-9.4l-1.8-0.2c-0.4-0.3-0.3-1.6,0.2-1.8c3.7,0.2,6.2,0.2,9.2,0.2
	c2.9,0,5.4-0.1,9.1-0.2c0.4,0.2,0.6,1.5,0.1,1.8l-1.8,0.2c-4.3,0.4-4.5,1.6-4.5,9.4v26.1c0,7.8,0.1,8.8,4.5,9.3l1.8,0.2
	c0.4,0.3,0.3,1.6-0.1,1.8c-3.7-0.2-6.2-0.2-9.1-0.2c-3.1,0-5.6,0.1-9.2,0.2c-0.4-0.2-0.6-1.4-0.2-1.8l1.8-0.2
	c4.3-0.5,4.5-1.5,4.5-9.3V348.7z"/>
<path class="st4" d="M553.6,375c0,7.7,0.1,8.8,4.4,9.2l2.4,0.2c0.4,0.3,0.3,1.6-0.1,1.8c-4.2-0.2-6.7-0.2-9.6-0.2
	c-2.9,0-5.5,0.1-10.2,0.2c-0.4-0.2-0.6-1.5,0-1.8l2.6-0.2c4.2-0.4,4.5-1.5,4.5-9.2v-32.8c0-2.3,0-2.3-2.2-2.3h-4
	c-3.2,0-7.2,0.2-9,1.8c-1.8,1.6-2.5,3.2-3.3,5.1c-0.6,0.4-1.6,0.1-1.9-0.5c1.2-3.3,2.3-8,2.8-11c0.2-0.1,1.2-0.2,1.4,0
	c0.4,2.3,2.9,2.3,6.3,2.3h29.7c4,0,4.6-0.1,5.7-2c0.4-0.2,1.2-0.1,1.3,0.2c-0.8,3-1.3,9-1.1,11.2c-0.3,0.6-1.5,0.6-1.9,0.1
	c-0.2-1.8-0.7-4.6-1.8-5.4c-1.7-1.3-4.5-1.8-8.5-1.8h-5.2c-2.2,0-2.1,0.1-2.1,2.5V375z"/>
<path class="st4" d="M601.4,374.8c0,7.9,0.4,9,4.4,9.3l2.8,0.2c0.4,0.4,0.3,1.6-0.1,1.8c-4.6-0.1-7.1-0.2-10-0.2
	c-3.1,0-5.7,0.1-9.6,0.2c-0.4-0.2-0.6-1.4-0.2-1.8l2.3-0.2c4.3-0.4,4.4-1.5,4.4-9.3v-3.7c0-4-0.2-5-2.3-9.1l-8.7-16.9
	c-2.5-4.8-3.6-5.2-5.8-5.6l-2.1-0.4c-0.4-0.5-0.4-1.5,0.1-1.8c2.3,0.2,5,0.2,8.5,0.2c3.4,0,6-0.1,7.9-0.2c0.7,0.2,0.7,1.4,0.2,1.8
	l-1,0.2c-2.6,0.4-3.1,0.7-3.1,1.3c0,0.7,1.9,4.9,2.3,5.6c2.7,5.4,5.4,11.2,8.3,16.3c2.3-3.9,4.7-8.2,6.9-12.4
	c2.1-3.8,4.8-8.8,4.8-9.7c0-0.4-1.3-1-3.1-1.2l-1.3-0.2c-0.5-0.5-0.4-1.5,0.2-1.8c2.6,0.2,4.8,0.2,7,0.2c2.3,0,4.3-0.1,6.8-0.2
	c0.6,0.4,0.7,1.4,0.1,1.8l-2.1,0.4c-3.8,0.7-6,5.3-9.7,11.6l-4.6,8c-3.2,5.6-3.5,6.2-3.5,11.9V374.8z"/>
<path class="st4" d="M203.4,319c-7.3,0-11.9-2.3-13.6-3.2c-1-1.9-2.2-8.1-2.3-12.2c0.4-0.6,1.7-0.8,2.1-0.2c1.3,4.4,4.9,13,15,13
	c7.3,0,10.9-4.8,10.9-10c0-3.8-0.8-8.1-7.2-12.2l-8.3-5.4c-4.4-2.9-9.4-7.9-9.4-15c0-8.3,6.4-15,17.8-15c2.7,0,5.8,0.5,8.1,1.1
	c1.1,0.3,2.3,0.5,3,0.5c0.8,2.1,1.6,7,1.6,10.6c-0.4,0.5-1.7,0.8-2.2,0.3c-1.1-4.2-3.5-9.8-11.8-9.8c-8.5,0-10.4,5.7-10.4,9.7
	c0,5,4.2,8.7,7.4,10.7l7,4.3c5.5,3.4,10.9,8.4,10.9,16.7C221.9,312.5,214.7,319,203.4,319"/>
<path class="st4" d="M246.8,299.6c1.3-0.4,1.5-1.2,1.5-2.5l0.1-4c0.1-3.2-1-7.6-6.4-7.6c-2.4,0-5.4,1.2-5.6,3.9
	c-0.1,1.4-0.2,2.4-0.9,3c-1.3,1.1-3.7,1.7-5,1.7c-0.8,0-1.2-0.4-1.2-1.2c0-4.5,9.8-10.7,16.2-10.7c6.3,0,9.3,3.7,9.1,10.2l-0.5,15.2
	c-0.2,4,0.6,7.6,4,7.6c0.9,0,1.7-0.3,2.2-0.5c0.4-0.3,0.9-0.6,1.1-0.6c0.3,0,0.6,0.5,0.6,1.1c0,0.4-3.1,3.8-7.3,3.8
	c-2.1,0-4.2-0.8-5.7-2.7c-0.3-0.5-0.9-1.2-1.4-1.2c-0.6,0-1.7,0.8-3.4,1.7c-1.9,1-3.8,2.2-6.3,2.2c-2.5,0-4.6-0.7-6.1-2
	c-1.7-1.5-2.7-3.7-2.7-6.1c0-3.4,1.7-5.4,7.2-7.4L246.8,299.6z M241.4,314.9c1.7,0,4.4-1.3,5.3-2.2c1.1-1,1.1-2.3,1.1-4.1l0.2-5.1
	c0-1-0.3-1.1-0.9-1.1c-0.5,0-2,0.4-3.6,0.9c-5.1,1.7-7.7,3-7.7,6.4C235.9,311.2,236.9,314.9,241.4,314.9"/>
<path class="st4" d="M292.9,283.6c0.7,0.6,1.3,2,1.3,3.5c0,1.6-0.9,3.2-1.9,3.2c-0.4,0-0.9-0.2-1.2-0.6c-1.9-2.4-5.1-4.6-8.7-4.6
	c-6.1,0-12,4.8-12,14c0,6.8,4.7,14.9,14,14.9c5.1,0,7.7-2.3,9.7-5.2c0.7-0.2,1.5,0.4,1.6,1.2c-3,6.5-9.5,8.9-14.5,8.9
	c-4.6,0-8.9-1.5-11.9-4.4c-3.1-3-5.1-7.2-5.1-12.9c0-9.4,6.6-19.4,21.1-19.4C287.1,282.1,290.5,282.5,292.9,283.6"/>
<path class="st4" d="M303.8,292.6c0-3.4,0-3.8-2.4-5.4l-0.8-0.5c-0.4-0.3-0.4-1.3,0.1-1.6c2-0.7,6.6-3,8.8-4.3
	c0.4,0.1,0.7,0.3,0.7,0.6v5c0,0.4,0.1,0.7,0.3,0.8c3-2.5,6.4-5.2,9.6-5.2c2.2,0,3.9,1.4,3.9,3.5c0,2.9-2.3,4-3.7,4
	c-0.9,0-1.3-0.3-1.9-0.6c-1.3-0.9-2.6-1.4-3.8-1.4c-1.4,0-2.4,0.8-3.1,1.7c-0.9,1.2-1.1,3.7-1.1,6.7v11.9c0,6.3,0.2,7.3,3.5,7.6
	l3.1,0.3c0.6,0.4,0.4,1.9-0.2,2.2c-4.1-0.2-6.6-0.3-9.7-0.3c-3.1,0-5.8,0.1-8,0.3c-0.6-0.3-0.8-1.7-0.2-2.2l1.7-0.3
	c3.2-0.5,3.3-1.3,3.3-7.6V292.6z"/>
<path class="st4" d="M334.3,295.3c-2.3,0-2.4,0.2-2.4,2.4c0,8.8,5.1,16.3,14.5,16.3c2.9,0,5.3-0.9,8-4.3c0.9-0.3,1.5,0.3,1.6,1
	c-2.9,5.9-9.1,8.1-13.7,8.1c-5.7,0-10.1-2.4-12.6-5.8c-2.6-3.4-3.7-7.5-3.7-11.3c0-10.7,7.1-19.7,17.5-19.7
	c7.5,0,12.4,5.1,12.4,10.4c0,1.2-0.2,1.9-0.3,2.3c-0.3,0.5-1.5,0.6-5.1,0.6H334.3z M339.7,292.7c6.4,0,8.4-0.4,9.1-0.9
	c0.3-0.2,0.5-0.5,0.5-1.7c0-2.4-1.7-5.5-6.7-5.5c-5.1,0-9.6,4.7-9.7,7.6c0,0.2,0,0.4,0.6,0.4H339.7z"/>
<path class="st4" d="M393.9,304.9c0,6.9,0.1,10.1,2.5,10.1c0.9,0,2.4-0.4,3.7-0.9c0.6,0.2,0.7,2.4-0.1,2.8
	c-3.7,0.5-9.1,1.8-11.5,2.8c-0.5,0-1-0.3-1-0.7v-1.5c0-1.3,0-2.4-0.2-2.7h-0.4c-3.8,2.6-6.8,4-11,4c-9.7,0-16.1-7.6-16.1-16.7
	c0-12.2,9.2-20,21.1-20c3,0,4.9,0.4,5.8,0.8c0.4,0,0.5-0.5,0.5-1.2v-13.2c0-5.1-0.1-5.7-2.7-7.2l-0.9-0.5c-0.4-0.3-0.4-1.5,0-1.7
	c2.2-0.7,6.3-2,9.4-3.7c0.4,0,0.7,0.2,0.9,0.5c-0.1,2.6-0.3,7-0.3,10.8V304.9z M387.5,291.8c0-1.7-0.4-2.5-1-3.4
	c-1.3-1.8-3.9-3.7-7.3-3.7c-7.9,0-12,6.9-12,14.5c0,7.9,4.5,15.4,13,15.4c2.4,0,5.3-1,6.7-2.4c0.5-0.5,0.6-1.8,0.6-3.2V291.8z"/>
<path class="st4" d="M445.4,289.5c-4.2,0-4.4,0.2-4.4,2.8v12.3c0,9.1,0.4,10.4,5.3,10.9l2.5,0.3c0.5,0.3,0.3,1.9-0.2,2.2
	c-4.7-0.2-7.7-0.3-11.1-0.3c-3.7,0-6.7,0.2-10.1,0.3c-0.5-0.3-0.7-1.6-0.2-2.2l1.5-0.3c4.9-0.9,5-1.8,5-10.9v-31.4
	c0-9.2-0.6-10.6-5.1-11l-2.3-0.2c-0.5-0.3-0.3-1.9,0.2-2.2c4.3,0.1,7.2,0.3,11,0.3c3.4,0,6.4-0.1,10.1-0.3c0.5,0.3,0.7,1.8,0.2,2.2
	l-1.7,0.2c-5.1,0.5-5.2,1.8-5.2,11v10c0,2.7,0.2,2.8,4.4,2.8h24.9c4.2,0,4.4-0.1,4.4-2.8v-10c0-9.2-0.2-10.5-5.3-11l-1.7-0.2
	c-0.5-0.3-0.3-1.9,0.2-2.2c4,0.2,7,0.3,10.5,0.3c3.4,0,6.4-0.1,10.3-0.3c0.5,0.3,0.7,1.8,0.2,2.2l-1.8,0.2c-5.1,0.5-5.2,1.8-5.2,11
	v31.4c0,9.1,0.2,10.3,5.2,10.9l2.1,0.3c0.5,0.3,0.3,1.9-0.2,2.2c-4.2-0.2-7.1-0.3-10.6-0.3c-3.6,0-6.7,0.1-10.5,0.3
	c-0.5-0.3-0.7-1.6-0.2-2.2l1.7-0.3c5.3-0.9,5.3-1.8,5.3-10.9v-12.3c0-2.6-0.2-2.8-4.4-2.8H445.4z"/>
<path class="st4" d="M503.4,295.3c-2.3,0-2.4,0.2-2.4,2.4c0,8.8,5.1,16.3,14.5,16.3c2.9,0,5.3-0.9,8-4.3c0.9-0.3,1.5,0.3,1.6,1
	c-2.9,5.9-9.1,8.1-13.7,8.1c-5.7,0-10.1-2.4-12.6-5.8c-2.6-3.4-3.7-7.5-3.7-11.3c0-10.7,7.1-19.7,17.5-19.7
	c7.5,0,12.4,5.1,12.4,10.4c0,1.2-0.2,1.9-0.3,2.3c-0.3,0.5-1.5,0.6-5.1,0.6H503.4z M508.8,292.7c6.4,0,8.4-0.4,9.1-0.9
	c0.3-0.2,0.5-0.5,0.5-1.7c0-2.4-1.6-5.5-6.7-5.5c-5.1,0-9.6,4.7-9.7,7.6c0,0.2,0,0.4,0.6,0.4H508.8z"/>
<path class="st4" d="M547.9,299.6c1.3-0.4,1.5-1.2,1.5-2.5l0.1-4c0.1-3.2-1-7.6-6.4-7.6c-2.4,0-5.4,1.2-5.6,3.9
	c-0.1,1.4-0.2,2.4-0.9,3c-1.3,1.1-3.7,1.7-5,1.7c-0.8,0-1.2-0.4-1.2-1.2c0-4.5,9.8-10.7,16.2-10.7c6.3,0,9.3,3.7,9.1,10.2l-0.5,15.2
	c-0.2,4,0.6,7.6,4,7.6c0.9,0,1.6-0.3,2.2-0.5c0.4-0.3,0.9-0.6,1.1-0.6c0.4,0,0.6,0.5,0.6,1.1c0,0.4-3.1,3.8-7.3,3.8
	c-2.1,0-4.2-0.8-5.7-2.7c-0.3-0.5-0.9-1.2-1.4-1.2c-0.6,0-1.7,0.8-3.4,1.7c-1.9,1-3.8,2.2-6.3,2.2c-2.5,0-4.6-0.7-6.1-2
	c-1.7-1.5-2.7-3.7-2.7-6.1c0-3.4,1.7-5.4,7.2-7.4L547.9,299.6z M542.5,314.9c1.7,0,4.4-1.3,5.3-2.2c1-1,1-2.3,1.1-4.1l0.2-5.1
	c0-1-0.3-1.1-0.9-1.1c-0.5,0-2,0.4-3.6,0.9c-5.1,1.7-7.7,3-7.7,6.4C537.1,311.2,538.1,314.9,542.5,314.9"/>
<path class="st4" d="M571.7,292.6c0-3.4,0-3.8-2.4-5.4l-0.8-0.5c-0.4-0.3-0.4-1.3,0.1-1.6c2-0.7,6.6-3,8.8-4.3
	c0.4,0.1,0.7,0.3,0.7,0.6v5c0,0.4,0.1,0.7,0.3,0.8c3-2.5,6.4-5.2,9.6-5.2c2.2,0,3.9,1.4,3.9,3.5c0,2.9-2.3,4-3.7,4
	c-0.9,0-1.3-0.3-1.9-0.6c-1.3-0.9-2.6-1.4-3.8-1.4c-1.4,0-2.4,0.8-3.1,1.7c-0.9,1.2-1.1,3.7-1.1,6.7v11.9c0,6.3,0.2,7.3,3.5,7.6
	l3.1,0.3c0.6,0.4,0.4,1.9-0.2,2.2c-4.1-0.2-6.6-0.3-9.7-0.3c-3.1,0-5.8,0.1-8,0.3c-0.6-0.3-0.8-1.7-0.2-2.2l1.7-0.3
	c3.2-0.5,3.3-1.3,3.3-7.6V292.6z"/>
<path class="st4" d="M609.2,287c-1.5,0-1.6,0.3-1.6,2.1v16.3c0,5.1,0.6,9.7,6.4,9.7c0.9,0,1.7-0.2,2.4-0.4c0.8-0.3,1.9-1.2,2.2-1.2
	c0.7,0,1,1,0.9,1.5c-1.6,1.8-4.7,4-9.2,4c-7.5,0-9.1-4.2-9.1-9.4v-20c0-2.3-0.1-2.5-1.8-2.5h-2.4c-0.5-0.4-0.6-1.3-0.3-1.8
	c2.5-0.8,4.7-1.9,5.6-2.7c1.1-1,2.8-3.4,3.7-5.1c0.4-0.2,1.5-0.2,1.8,0.4v3.9c0,1.6,0.1,1.7,1.6,1.7h9.7c1,0.8,0.9,3.1,0.1,3.7
	H609.2z"/>
<path class="st5" d="M94.3,372.9c-3.9,0-7.9-0.4-11.8-1.2C66.2,368.5,50,354,45,338.1c-6.1-17.6-2.2-37.9,9.9-51.7
	C65,275.3,79.2,269,93.8,269c5.8,0,11.6,1,17.1,2.9c10.9,3.9,24.3,13.6,29.8,26.6c8.4,15.2,6.8,37.7-3.7,52.3
	C127.3,364.8,111.7,372.9,94.3,372.9 M93.8,270.2c-14.3,0-28.2,6.2-38,17c-11.8,13.4-15.6,33.2-9.7,50.5
	c4.9,15.6,20.7,29.7,36.6,32.8c3.9,0.8,7.7,1.2,11.6,1.2c17,0,32.2-7.9,41.8-21.5c10.1-14,11.7-36.5,3.6-51.1
	c-4.6-10.9-16.6-21.5-29.1-26C105.1,271.1,99.5,270.2,93.8,270.2"/>
<path class="st5" d="M94.1,388.5c-37.3,0-67.6-30.3-67.6-67.6c0-37.3,30.3-67.6,67.6-67.6c37.3,0,67.6,30.3,67.6,67.6
	C161.7,358.2,131.4,388.5,94.1,388.5 M94.1,254.6c-36.6,0-66.3,29.8-66.3,66.3c0,36.6,29.8,66.3,66.3,66.3
	c36.6,0,66.3-29.8,66.3-66.3C160.5,284.3,130.7,254.6,94.1,254.6"/>
<path class="st5" d="M153.2,323.7c-0.5,2.6-0.9,4.3-1.3,7.3c-0.3,1.6-1.2,6.5-2.9,10.8c-1.6,4.3-3.7,7.9-3.6,7.9c0,0-2,3.7-4.8,7.3
	c-2.8,3.7-6.4,7.1-7.7,8.2c-2.3,2-3.6,3.2-5.5,5c2.3-1.2,3.9-2.1,6.3-4.1c1.3-1.1,5-4.6,7.8-8.4c2.9-3.7,4.9-7.4,4.9-7.4
	c0,0,2.1-3.7,3.7-8.1c1.7-4.4,2.7-9.4,3-11.1C153.5,328.1,153.4,326.3,153.2,323.7"/>
<path class="st5" d="M35.1,323.7c-0.2,2.6-0.3,4.4,0.2,7.5c0.3,1.7,1.3,6.7,2.9,11.1c1.6,4.4,3.7,8.1,3.7,8.1c0,0,2,3.7,4.9,7.4
	c2.8,3.7,6.5,7.3,7.8,8.4c2.4,2,3.9,2.9,6.3,4.1c-1.9-1.8-3.2-3-5.5-5c-1.3-1.1-4.9-4.5-7.6-8.2c-2.8-3.6-4.8-7.3-4.8-7.3
	c0,0-2.1-3.6-3.6-7.9c-1.7-4.3-2.6-9.2-2.9-10.8C36,327.9,35.7,326.2,35.1,323.7"/>
<path class="st5" d="M94.1,369.7c-26.9,0-48.8-21.9-48.8-48.8c0-26.9,21.9-48.8,48.8-48.8c26.9,0,48.8,21.9,48.8,48.8
	C142.9,347.8,121,369.7,94.1,369.7 M94.1,274.6c-25.6,0-46.4,20.8-46.4,46.4c0,25.6,20.8,46.3,46.4,46.3c25.6,0,46.4-20.8,46.4-46.3
	C140.5,295.3,119.7,274.6,94.1,274.6"/>
<path class="st5" d="M39.9,317.5l0,0.2l-6.6,2.7c-0.8,0.3-1.1,0.5-1.1,1.2l-0.3,0l0.2-3.6l0.3,0c0,0.7,0,1,0.2,1
	c0.1,0,0.2,0,0.3-0.1l5.1-2.1l-4-2.1c-0.4-0.2-0.7-0.4-0.8-0.4c-0.4,0-0.5,0.4-0.5,0.7l-0.3,0l0.1-2.3l0.3,0c0.1,0.7,0.3,1,0.9,1.3
	L39.9,317.5z"/>
<path class="st5" d="M39.1,311.3c0.7,0.2,1.1-0.3,1.2-1l0.3,0.1L40,313l-0.3-0.1c0.1-0.7-0.1-1.1-0.7-1.2l-5.5-1.3
	c-0.3-0.1-0.5,0.6-0.6,0.9l-0.3-0.1l0.6-2.7l6.5-3.5l-4.2-1c-0.8-0.2-1,0.1-1.2,0.9l-0.3-0.1l0.6-2.5l0.3,0.1
	c-0.2,0.7-0.1,1,0.7,1.2l6.3,1.5l-0.1,0.4l-8.3,4.5l0,0L39.1,311.3z"/>
<path class="st5" d="M36.9,300.4c-0.8-0.3-0.9-0.3-1.3,0.7l-0.3-0.1l1.3-3.4l0.3,0.1c-0.3,0.9-0.3,1,0.6,1.3l4.7,1.8
	c0.8,0.3,0.9,0.2,1.3-0.6l0.3,0.1l-1.3,3.4l-0.3-0.1c0.3-0.9,0.3-1-0.6-1.3L36.9,300.4z"/>
<path class="st5" d="M46,295.7l-0.1,0.2l-7.1-0.2c-0.9,0-1.2,0-1.5,0.7l-0.3-0.1l1.7-3.2l0.2,0.1c-0.3,0.6-0.4,0.9-0.2,1
	c0.1,0,0.2,0.1,0.3,0.1l5.5,0.2l-2.8-3.6c-0.3-0.4-0.5-0.6-0.6-0.7c-0.4-0.2-0.6,0.1-0.8,0.4l-0.3-0.1l1-2l0.3,0.1
	c-0.2,0.6-0.1,1,0.3,1.5L46,295.7z"/>
<path class="st5" d="M43.6,287c-0.7-0.5-0.8-0.5-1.3,0l-0.2-0.2l3.6-4.9l2.1,0.5l-0.1,0.2c-1.5,0.1-2.4,0.2-3,1.1l-1,1.4l2.6,1.9
	l0.4-0.5c0.6-0.8,1-1.9,0.1-2.7l0.1-0.2l2.8,2.1l-0.1,0.2c-1-0.6-1.8-0.5-2.7,0.8l-0.4,0.5l2.4,1.8c0.3,0.2,0.4,0.3,0.6,0l0.7-0.9
	c1-1.4,0.8-2,0.3-3.6l0.2-0.1l1.3,1.7l-3.8,5.2l-0.2-0.2c0.4-0.6,0.4-0.7-0.3-1.2L43.6,287z"/>
<path class="st5" d="M48.9,280.1c-0.6-0.6-0.8-0.6-1.3,0l-0.2-0.2l2.2-2.2c1.8-1.8,3.1-1.9,4.1-1c0.7,0.7,0.4,1.7-0.2,2.3l0,0
	c0.2-0.1,0.3-0.1,0.5-0.1l3.3,0.8c0.2,0,0.5,0.1,1-0.4l0.2,0.2l-1.7,1.7l-3.1-1c-0.5-0.2-0.9-0.2-1.1,0l-0.6,0.6l1.7,1.7
	c0.6,0.6,0.8,0.6,1.4,0l0.2,0.2l-2.5,2.5l-0.2-0.2c0.6-0.6,0.6-0.7-0.1-1.4L48.9,280.1z M51.6,280.7l0.5-0.5c0.9-0.9,1-1.8,0.2-2.6
	c-0.8-0.8-1.7-0.7-2.6,0.2l-0.5,0.5L51.6,280.7z"/>
<path class="st5" d="M60,272l-0.2,0.2c-0.9-0.7-2.4-1.2-3.4-0.4c-0.5,0.4-0.9,1.1-0.4,1.7c0.5,0.7,1.6,0.3,2.8,0
	c1.2-0.3,2.4-0.6,3.3,0.5c1.1,1.4,0.5,2.6-0.9,3.6c-0.3,0.2-0.7,0.4-1.1,0.6c-0.3,0.2-0.6,0.3-0.7,0.3c-0.1,0.1-0.1,0.3-0.2,0.5
	l-0.2,0.2l-1.6-2.1l0.2-0.1c1.2,0.7,2.4,1.2,3.5,0.4c0.7-0.5,1.1-1.4,0.6-2c-0.6-0.8-1.7-0.4-2.9-0.1c-1.2,0.3-2.4,0.6-3.2-0.5
	c-0.8-1.1-0.4-2.4,0.6-3.2c0.4-0.3,0.8-0.5,1.1-0.6c0.3-0.1,0.6-0.2,0.7-0.2c0.2-0.1,0.2-0.4,0.2-0.6l0.2-0.1L60,272z"/>
<path class="st5" d="M61.9,269.3c-0.5-0.8-0.6-0.8-1.4-0.3l-0.1-0.2l3.1-1.9l0.1,0.2c-0.8,0.5-0.9,0.6-0.4,1.4l2.6,4.3
	c0.5,0.8,0.6,0.8,1.4,0.3l0.1,0.2l-3.1,1.9l-0.1-0.2c0.8-0.5,0.9-0.6,0.4-1.4L61.9,269.3z"/>
<path class="st5" d="M71.4,270c0.4,0.8,0.5,0.8,1.5,0.4l0.1,0.3l-3.5,1.6l-0.1-0.3c1-0.5,1-0.6,0.7-1.4l-2.3-5
	c-0.1-0.3-0.2-0.4-0.6-0.3c-1.1,0.5-1.5,1.6-1.6,2.8l-0.3,0l-0.5-2.2l0.4-0.2c0.1,0.1,0.4,0,0.6-0.1l4.7-2.2
	c0.2-0.1,0.4-0.2,0.5-0.4l0.4-0.2l1.3,1.8l-0.2,0.2c-0.9-0.7-2-1.1-3.1-0.6c-0.3,0.1-0.3,0.3-0.1,0.6L71.4,270z"/>
<path class="st5" d="M74,270.1l-0.1-0.3c0.7-0.4,0.8-0.8,1-2l0.6-4.7c-0.1-0.1-0.2-0.3-0.3-0.3c0.2-0.4,0.5-0.8,0.7-1.2
	c0-0.1,0.1-0.1,0.1-0.2c0.1,0,0.1,0,0.2,0.2l4.9,5.3c0.4,0.5,0.7,0.5,1.3,0.4l0.1,0.3l-3.5,1.1l-0.1-0.3c0.7-0.2,0.8-0.4,0.8-0.7
	c-0.1-0.2-0.4-0.5-0.5-0.6l-0.6-0.6l-3.2,1l-0.1,0.8c0,0.3,0,0.7,0,0.8c0.1,0.3,0.4,0.3,1,0.2l0.1,0.3L74,270.1z M75.3,266.9
	l2.9-0.9l-2.4-2.7L75.3,266.9z"/>
<path class="st5" d="M87.4,261.7l-0.3,0c-0.5-1-1.5-2.2-2.8-2c-0.6,0.1-1.3,0.6-1.2,1.3c0.1,0.9,1.3,1,2.5,1.3
	c1.2,0.3,2.4,0.7,2.6,2c0.3,1.8-0.8,2.5-2.4,2.8c-0.4,0.1-0.8,0.1-1.2,0c-0.4,0-0.7-0.1-0.8,0c-0.1,0-0.3,0.2-0.4,0.4l-0.3,0.1
	l-0.4-2.6l0.2,0c0.7,1.2,1.5,2.2,2.9,2c0.9-0.1,1.6-0.7,1.5-1.5c-0.2-1-1.3-1.2-2.5-1.5c-1.2-0.3-2.4-0.6-2.6-2
	c-0.2-1.4,0.8-2.3,2-2.5c0.5-0.1,0.9-0.1,1.3,0c0.4,0,0.6,0.1,0.7,0.1c0.2,0,0.4-0.2,0.5-0.4l0.2,0L87.4,261.7z"/>
<path class="st5" d="M99.4,312.8l-0.3,0c-0.3-1.1-1.1-2.5-2.3-2.5c-0.6,0-1.4,0.3-1.4,1.1c0,0.9,1.1,1.3,2.2,1.8
	c1.1,0.5,2.2,1.1,2.2,2.5c-0.1,1.8-1.3,2.3-3,2.2c-0.4,0-0.8-0.1-1.2-0.2c-0.4-0.1-0.7-0.2-0.8-0.2c-0.1,0-0.3,0.2-0.4,0.3l-0.3,0
	l0.1-2.7l0.2,0c0.5,1.3,1,2.5,2.4,2.5c0.9,0,1.8-0.3,1.8-1.1c0-1-1.1-1.4-2.1-2c-1.1-0.5-2.2-1.1-2.1-2.5c0.1-1.4,1.3-2.1,2.5-2
	c0.5,0,0.9,0.1,1.3,0.3c0.3,0.1,0.6,0.2,0.7,0.2c0.2,0,0.4-0.2,0.6-0.3l0.2,0L99.4,312.8z"/>
<path class="st5" d="M100.3,266.5l0.1-0.3c0.8,0,1.1-0.3,1.8-1.3l2.8-3.9c0-0.1-0.1-0.3-0.2-0.4c0.4-0.2,0.8-0.5,1.2-0.8
	c0.1-0.1,0.1-0.1,0.2-0.1c0,0,0.1,0,0.1,0.3l1.8,6.9c0.2,0.7,0.4,0.8,1,1l0,0.3l-3.6-0.7l0.1-0.3c0.7,0.1,0.9,0,1-0.2
	c0-0.2-0.1-0.6-0.2-0.8l-0.2-0.8l-3.3-0.6l-0.5,0.7c-0.2,0.3-0.4,0.6-0.4,0.7c-0.1,0.3,0.2,0.5,0.8,0.6l0,0.3L100.3,266.5z
	 M102.9,264.4l3,0.6l-0.9-3.5L102.9,264.4z"/>
<path class="st5" d="M118.2,266.3l-0.3-0.1c-0.1-1.3-0.7-2.8-2-3.3c-2.1-0.8-3.2,0.6-3.9,2.5c-0.6,1.5-0.8,3.6,1,4.2
	c2,0.8,3.7-0.5,4.2-1.1l0.2,0.1l-0.9,2.6l-0.1-0.1c-0.1-0.3-0.2-0.6-0.4-0.7c-0.1,0-0.6,0-1.1-0.1c-0.4,0-1.1-0.1-1.9-0.4
	c-2-0.7-3.1-3-2.4-5.1c0.8-2.1,3.1-3,5.1-2.3c0.9,0.3,1.3,0.6,1.6,0.9c0.3,0.2,0.5,0.5,1,0.6c0.3,0.1,0.4,0,0.6-0.2l0.3,0.1
	L118.2,266.3z"/>
<path class="st5" d="M121,266.2c0.4-0.8,0.4-0.9-0.3-1.3l0.1-0.2l2.8,1.5c2.2,1.2,2.7,2.5,2,3.7c-0.5,0.8-1.5,0.8-2.3,0.5l0,0
	c0.1,0.1,0.2,0.3,0.2,0.4l0.2,3.4c0,0.2,0,0.5,0.7,0.8l-0.1,0.2L122,274l0.1-3.3c0-0.5,0-0.9-0.3-1.1l-0.8-0.4l-1.2,2.1
	c-0.4,0.8-0.4,0.9,0.4,1.4l-0.1,0.2l-3-1.7l0.1-0.2c0.7,0.4,0.8,0.4,1.3-0.4L121,266.2z M121.2,269l0.6,0.4c1.1,0.6,2,0.5,2.6-0.5
	c0.6-1,0.2-1.8-0.9-2.4l-0.6-0.4L121.2,269z"/>
<path class="st5" d="M129.1,271.1c0.5-0.7,0.5-0.8-0.3-1.4l0.2-0.2l3,2.1l-0.2,0.2c-0.8-0.6-0.9-0.5-1.4,0.2l-2.9,4.1
	c-0.5,0.7-0.5,0.8,0.3,1.4l-0.2,0.2l-2.9-2.1l0.2-0.2c0.8,0.6,0.9,0.5,1.4-0.2L129.1,271.1z"/>
<path class="st5" d="M140.3,283l-0.2-0.2c0.5-1.2,0.6-2.8-0.3-3.9c-1.5-1.6-3.1-0.9-4.6,0.4c-1.2,1.1-2.3,2.9-1.1,4.2
	c1.5,1.6,3.5,1.2,4.2,0.9l0.1,0.2l-2,1.9l-0.1-0.1c0.1-0.3,0.2-0.6,0-0.8c-0.1-0.1-0.5-0.3-0.9-0.5c-0.4-0.2-0.9-0.6-1.5-1.3
	c-1.4-1.5-1.4-4.1,0.2-5.6c1.6-1.5,4.2-1.3,5.6,0.2c0.7,0.7,0.9,1.2,1.1,1.5c0.2,0.4,0.3,0.6,0.6,1c0.2,0.2,0.4,0.2,0.6,0.1l0.2,0.2
	L140.3,283z"/>
<path class="st5" d="M139.2,290.4c-1.2-1.7-0.8-4.3,1-5.5c1.8-1.2,4.3-0.7,5.5,1.1c1.2,1.7,0.8,4.3-1,5.5
	C142.8,292.7,140.4,292.1,139.2,290.4 M145.5,286.1c-1-1.5-3-0.8-4.4,0.1c-1.4,0.9-2.7,2.5-1.7,4c1,1.5,3,0.8,4.3-0.1
	C145.1,289.2,146.5,287.6,145.5,286.1"/>
<path class="st5" d="M147.9,292.1c0.8-0.4,0.8-0.5,0.5-1.2l0.3-0.1l1.4,2.9c1.1,2.2,0.7,3.6-0.5,4.1c-0.9,0.4-1.7-0.2-2.1-0.9l0,0
	c0,0.2,0,0.3-0.1,0.4l-1.8,2.8c-0.1,0.2-0.2,0.4,0.1,1.1l-0.3,0.1l-1.1-2.2l2-2.6c0.3-0.4,0.5-0.7,0.3-1.1l-0.4-0.8l-2.2,1
	c-0.8,0.4-0.8,0.5-0.4,1.4l-0.3,0.1l-1.5-3.1l0.3-0.1c0.4,0.7,0.5,0.8,1.3,0.4L147.9,292.1z M146.4,294.5l0.3,0.7
	c0.6,1.2,1.3,1.6,2.4,1.1c1-0.5,1.2-1.4,0.6-2.5l-0.3-0.7L146.4,294.5z"/>
<path class="st5" d="M153.8,303.5c0.6,2.1-0.3,4.4-2.5,5.1c-2.2,0.7-4.1-0.6-4.7-2.8l-1.2-4.2l0.3-0.1c0.2,0.8,0.4,0.9,1.2,0.6
	l4.8-1.4c0.9-0.3,0.9-0.4,0.7-1.2l0.3-0.1L153.8,303.5z M147.3,303.6c-0.9,0.2-0.9,0.4-0.6,1.5c0.6,2,2.3,2.5,4.2,2
	c1.9-0.5,3-2.1,2.5-3.9c-0.3-1.2-0.4-1.2-0.7-1.1L147.3,303.6z"/>
<path class="st5" d="M154.1,310.4c0.9-0.2,1-0.3,0.8-1.2l0.3,0l0.6,3.6l-0.3,0c-0.2-1-0.3-1-1.1-0.9l-5,0.8c-0.9,0.1-1,0.3-0.8,1.2
	l-0.3,0l-0.6-3.6l0.3,0c0.2,0.9,0.3,1,1.2,0.9L154.1,310.4z"/>
<path class="st5" d="M153.8,319.8l0-0.3c1-0.4,2.3-1.3,2.3-2.6c0-0.6-0.5-1.3-1.2-1.3c-0.9,0-1.2,1.2-1.6,2.4
	c-0.4,1.2-0.9,2.3-2.3,2.4c-1.8,0.1-2.4-1.1-2.5-2.7c0-0.4,0-0.8,0.1-1.2c0.1-0.4,0.1-0.7,0.1-0.8c0-0.1-0.2-0.3-0.3-0.4l0-0.3
	l2.7-0.2l0,0.2c-1.2,0.6-2.3,1.3-2.3,2.7c0.1,0.9,0.5,1.7,1.3,1.7c1-0.1,1.3-1.2,1.7-2.3c0.4-1.1,0.9-2.3,2.2-2.4
	c1.4-0.1,2.2,1,2.3,2.3c0,0.5,0,0.9-0.1,1.3c-0.1,0.3-0.2,0.6-0.2,0.7c0,0.2,0.2,0.4,0.4,0.5l0,0.2L153.8,319.8z"/>
<path class="st5" d="M66,377.8l-0.2-0.1l0.5-7.2l0,0l-2.4,4.9c-0.3,0.7,0,1.1,0.7,1.4l-0.1,0.3l-2.4-1.1l0.1-0.3
	c0.6,0.2,1.1,0.1,1.3-0.4l2.5-5.1c0.2-0.3-0.5-0.6-0.7-0.8l0.1-0.3l2.3,1.1l-0.4,5.8l4.3-3.9l2.4,1.2l-0.1,0.3
	c-0.9-0.4-1-0.4-1.4,0.4l-2.2,4.5c-0.4,0.8-0.3,0.9,0.5,1.4l-0.1,0.3l-3.3-1.6l0.1-0.2c0.9,0.4,1,0.4,1.4-0.4l2.4-5l0,0L66,377.8z"
	/>
<path class="st5" d="M81.6,378.1l-0.3-0.1c-0.2-1.3-0.9-2.7-2.3-3.2c-2.1-0.6-3.2,0.9-3.7,2.7c-0.5,1.6-0.5,3.7,1.3,4.2
	c2.1,0.6,3.6-0.8,4.1-1.4l0.2,0.1l-0.8,2.6l-0.2,0c-0.1-0.3-0.2-0.6-0.4-0.7c-0.1,0-0.6,0-1,0c-0.4,0-1.1-0.1-2-0.3
	c-2-0.6-3.3-2.8-2.7-4.9c0.6-2.1,2.9-3.3,4.9-2.7c0.9,0.3,1.4,0.5,1.7,0.7c0.3,0.2,0.6,0.4,1.1,0.6c0.3,0.1,0.4-0.1,0.6-0.2l0.3,0.1
	L81.6,378.1z"/>
<path class="st5" d="M86.8,384l-0.2,0l-2-6.9h0l-0.6,5.4c-0.1,0.7,0.4,1,1.1,1.1l0,0.3l-2.6-0.3l0-0.3c0.7,0,1-0.2,1.1-0.9l0.6-5.6
	c0-0.3-0.7-0.4-0.9-0.5l0-0.3l2.6,0.3l1.6,5.6l2.8-5.1l2.7,0.3l0,0.3c-1-0.1-1.1,0-1.2,0.9l-0.6,5c-0.1,0.9,0,1,1,1.1l0,0.3
	l-3.6-0.4l0-0.3c1,0.1,1.1,0,1.2-0.9l0.6-5.5h0L86.8,384z"/>
<path class="st5" d="M94.8,378.1c-0.1-0.9-0.2-1-1.1-0.9l0-0.3l3.6-0.2l0,0.3c-1,0.1-1.1,0.2-1,1.1l0.3,5c0.1,0.9,0.2,1,1.3,0.9
	c1.9-0.1,2.5-0.5,3.4-2.2l0.3,0l-0.5,2.3l-6.9,0.4l0-0.3c1-0.1,1.1-0.2,1-1L94.8,378.1z"/>
<path class="st5" d="M103.2,383.9l-0.1-0.3c0.8-0.2,1.3-0.6,1.7-1.3l1.5-2.6l-2.9-2.6c-0.5-0.5-0.7-0.6-1.7-0.4l-0.1-0.3l3.9-0.9
	l0.1,0.3c-0.4,0.1-0.8,0.2-0.7,0.4c0,0.1,0.2,0.2,0.3,0.3l1.9,1.7l1.3-2.3c0.1-0.2,0.2-0.4,0.1-0.5c0-0.1-0.1-0.2-0.6-0.1l-0.1-0.3
	l2.3-0.5l0.1,0.3c-0.7,0.2-1.1,0.5-1.4,1.1l-1.5,2.6l3.2,2.8c0.5,0.4,0.9,0.4,1.6,0.3l0.1,0.3l-3.9,0.9l-0.1-0.3
	c0.8-0.2,0.8-0.4,0.8-0.4c0-0.1-0.1-0.2-0.2-0.3l-2.2-1.9l-1.6,2.8c-0.1,0.1-0.1,0.2-0.1,0.3c0.1,0.2,0.5,0.2,0.7,0.1l0.1,0.3
	L103.2,383.9z"/>
<path class="st5" d="M112.5,375c-0.3-0.8-0.4-0.9-1.3-0.6l-0.1-0.3l3.4-1.2l0.1,0.3c-0.9,0.3-1,0.5-0.7,1.3l1.7,4.7
	c0.3,0.8,0.4,0.9,1.3,0.6l0.1,0.3l-3.4,1.2l-0.1-0.3c0.9-0.3,1-0.4,0.7-1.3L112.5,375z"/>
<path class="st5" d="M116.9,373.3c-0.4-0.8-0.5-0.9-1.4-0.5l-0.1-0.3l3.3-1.5l0.1,0.3c-0.9,0.4-0.9,0.5-0.6,1.3l2.1,4.6
	c0.4,0.8,0.5,0.9,1.4,0.5l0.1,0.3l-3.3,1.5l-0.1-0.3c0.9-0.4,0.9-0.5,0.6-1.3L116.9,373.3z"/>
<path class="st5" d="M121.2,371.3c-0.4-0.8-0.6-0.8-1.4-0.4l-0.1-0.2l3.2-1.8l0.1,0.2c-0.8,0.5-0.9,0.6-0.4,1.4l2.4,4.4
	c0.4,0.8,0.6,0.8,1.4,0.3l0.1,0.3l-3.2,1.8l-0.1-0.2c0.8-0.5,0.9-0.6,0.5-1.4L121.2,371.3z"/>
<path class="st5" d="M94.1,392.8c-39.7,0-71.9-32.3-71.9-71.9c0-39.7,32.3-71.9,71.9-71.9c39.7,0,71.9,32.3,71.9,71.9
	C166.1,360.6,133.8,392.8,94.1,392.8 M94.1,251.4c-38.3,0-69.5,31.2-69.5,69.5c0,38.3,31.2,69.5,69.5,69.5
	c38.3,0,69.5-31.2,69.5-69.5C163.6,282.6,132.4,251.4,94.1,251.4"/>
<path class="st4" d="M124.4,290.6c0.5,1.1,1.7,3.8,1.7,3.8s-2.1-0.2-2.8,0.5c-0.8,0.7-0.7,2.4-0.7,2.4s0,39.6,0.1,48.9
	c0,3.9-3,8.5-9.3,10.7c-4.6,1-8.9,0.6-13.2,1.3c-2.5,0.7-4.7,1.7-6.3,4c-3.7-5.1-10.2-5.1-16.1-5.2c-5.1-0.2-12.5-2.8-13-10.8
	c0-9.1-0.2-48.7-0.2-48.7s0.2-1.7-0.6-2.6c-0.8-0.7-2.9-0.5-2.9-0.5l1.9-3.8H124.4z"/>
<rect x="94.6" y="316.7" class="st0" width="25.8" height="16.5"/>
<rect x="67" y="316.7" class="st0" width="26" height="16.5"/>
<path class="st0" d="M120.3,343.9c0,0,0,2-0.1,2.8c-0.4,4.2-2,5.9-5.3,7.5c-4.7,2.3-5.1,0.9-11.5,1.7c-5.1,0.3-8.8,2.7-8.8,2.7
	l-0.1-14.7L120.3,343.9z"/>
<path class="st5" d="M94.6,304.3l0-11.8l27.4,0l0.6,1c-1.5,0.6-2.1,0.6-2.2,1.7c-0.1,0.7,0,9.1,0,9.1H94.6"/>
<path class="st6" d="M92.9,314.8l0-22.3l-27.7,0l-0.6,1c1.5,0.6,2.1,0.6,2.2,1.7c0,0.7,0,19.6,0,19.6H92.9"/>
<rect x="94.7" y="304.4" class="st0" width="25.8" height="10.4"/>
<path class="st6" d="M101.5,343.8c0,0,0.7,5.1,6.2,5c4.4-0.4,5.3-2.5,5.9-5l3.3,0c0.1,3.4-2.4,8.9-9.2,9.5c-10-0.4-9.5-9.5-9.5-9.5
	L101.5,343.8z"/>
<path class="st5" d="M67.9,316.8c0.2,0.3,0,0.7-0.3,0.8H67v-0.8H67.9z"/>
<path class="st5" d="M71.4,317.3c-0.8,0.6-1.4,0-2.5,0.2c-0.2-0.2-0.2-0.4,0-0.7C69.7,317,71.1,316.5,71.4,317.3"/>
<path class="st5" d="M74.7,317.5c-0.8,0.1-1.9,0.2-2.6-0.1c0.2-1.1,1.8-0.4,2.6-0.6V317.5z"/>
<path class="st5" d="M78,317.5c-0.7,0.2-1.9,0.4-2.5-0.1c0.2-1.1,1.6-0.4,2.5-0.6V317.5z"/>
<path class="st5" d="M81.3,317.4c-0.7,0.2-2.1,0.4-2.6-0.2c0.4-0.7,1.6-0.2,2.4-0.4C81.4,317,81.3,317.2,81.3,317.4"/>
<path class="st5" d="M84.3,317.5c-0.6,0.3-1.5,0.2-2.1,0.1c-0.1-0.2-0.2-0.6,0.1-0.8h2V317.5z"/>
<path class="st5" d="M87.5,316.8c0,0.2,0.3,0.5,0.1,0.7c-0.8,0.2-1.8,0.2-2.6,0c0-0.2-0.2-0.6,0.2-0.7H87.5z"/>
<path class="st5" d="M90.7,317.2c-0.5,0.8-1.4,0.4-2.2,0.4c-0.1-0.2-0.2-0.6,0.1-0.7C89.4,317,90.3,316.6,90.7,317.2"/>
<path class="st5" d="M92.8,317.2v0.3c-0.4,0.1-1,0.2-1.3-0.1C91.2,316.5,92.8,316.7,92.8,317.2"/>
<path class="st5" d="M76.4,318.4c0.2,0.3,0.1,0.6,0.1,0.9l-0.3,0.2h-5.2c-0.2-0.4-0.6-1,0-1.3C72.7,318.3,74.7,318.1,76.4,318.4"/>
<path class="st5" d="M82.7,318.4c0.6,0.2,0.3,0.9,0.2,1.2h-5.7c-0.3-0.3-0.2-0.8-0.1-1.1l0.2-0.2L82.7,318.4z"/>
<path class="st5" d="M69.9,318.4c0.3,0.2,0.2,0.8,0.1,1.1l-2.9,0.1v-1.2H69.9z"/>
<path class="st5" d="M89.1,318.4c0.2,0.3,0.1,0.7,0.1,1.1l-5.4,0.1c-0.3-0.2-0.2-0.8-0.1-1.1l0.2-0.1H89.1z"/>
<path class="st5" d="M92.8,318.6l-0.1,0.9H90c-0.2-0.4-0.2-0.7,0.1-1.1C91,318.5,92,318.3,92.8,318.6"/>
<path class="st5" d="M73.1,320.4c0.3,0.1,0.2,0.7,0.1,1l-0.3,0.2h-4c-0.5-0.2-0.4-0.7-0.4-1.1l0.3-0.3
	C70.2,320.3,71.8,320.1,73.1,320.4"/>
<path class="st5" d="M79.6,320.5c0.2,0.4,0.1,0.9-0.3,1.1c-1.8-0.1-3.7,0.2-5.4-0.2c0.1-0.4-0.2-1.1,0.3-1.2
	C76,320.5,77.8,319.9,79.6,320.5"/>
<path class="st5" d="M85.6,320.3c0.5,0.2,0.6,0.7,0.4,1.1l-0.3,0.2h-5.3c-0.3-0.4-0.2-0.7-0.1-1.1l0.5-0.3L85.6,320.3z"/>
<path class="st5" d="M92.6,320.2c0.4,0.4,0,0.9,0.1,1.4h-5.9c-0.5-0.3-0.1-0.8-0.1-1.1C88.5,320,90.6,320.3,92.6,320.2"/>
<path class="st5" d="M67.9,320.4c0.2,0.4,0.2,1-0.3,1.2H67C66.9,321.1,66.8,319.9,67.9,320.4"/>
<path class="st5" d="M77.5,322.3c-0.7,0.6-1.5,1.3-2.1,2.1l-1.3-2.1H77.5z"/>
<polygon class="st5" points="84.3,324 82.5,322.3 86,322.3 "/>
<path class="st5" d="M67.2,323.1c-0.2-0.2-0.3-0.4-0.1-0.8h0.8L67.2,323.1z"/>
<path class="st5" d="M92.8,322.6l-0.1,1.4l-1.3-1.6C91.8,322.5,92.4,322.2,92.8,322.6"/>
<path class="st5" d="M89.7,322.9c0.1,0.4-0.2,0.8-0.6,0.9c-0.3-0.1-0.8-0.1-0.7-0.5c0-0.3,0.1-0.7,0.4-0.8
	C89.1,322.5,89.6,322.4,89.7,322.9"/>
<path class="st5" d="M87.7,323.4c-0.2,0.2-0.2,0.6-0.6,0.7c-0.3-0.1-0.6-0.1-0.9-0.5c-0.2-0.5,0.3-0.8,0.7-0.9
	C87.5,322.5,87.7,323.1,87.7,323.4"/>
<path class="st5" d="M91.8,324.2c-0.3,0.2-0.8,0.7-1.3,0.4c-0.6-0.4-0.3-1.1,0.1-1.4C91.1,323.3,91.6,323.6,91.8,324.2"/>
<path class="st5" d="M86.2,324.7c0,0.4-0.5,0.5-0.7,0.3c-0.5-0.1-0.4-0.6-0.3-0.9C85.7,323.3,86.1,324.4,86.2,324.7"/>
<path class="st5" d="M92.7,325.3c0,0.7-0.5,0.8-1.1,0.9c-0.3,0.1-0.6-0.1-0.7-0.4c-0.1-0.7,0.6-0.6,1-0.9
	C92.2,324.8,92.7,324.9,92.7,325.3"/>
<path class="st5" d="M86,325.8c-0.1,0.3,0.1,0.8-0.4,0.9c-0.4,0.1-1,0-0.9-0.5c-0.1-0.4,0.1-0.8,0.5-0.8
	C85.5,325.5,85.8,325.4,86,325.8"/>
<path class="st5" d="M92.7,327.2c0.2,0.6-0.3,0.8-0.7,0.9c-0.4,0-0.9,0.1-1.1-0.5c0-0.5,0.4-0.9,0.9-0.8
	C92.2,326.8,92.6,326.8,92.7,327.2"/>
<path class="st5" d="M85.9,327.6v0.4c-0.3,0.2-0.7,0-1.1,0.1c-0.1-0.3-0.2-0.8,0.2-0.9C85.4,327,85.8,327.2,85.9,327.6"/>
<path class="st5" d="M86,329c0.2,0.5-0.4,0.6-0.7,0.7c-0.4,0.1-1-0.4-0.6-0.8C85.1,328.5,85.8,328.7,86,329"/>
<path class="st5" d="M92.7,329c0.2,0.5-0.5,0.6-0.8,0.9c-0.3,0-0.7,0-0.8-0.4c0-0.3-0.1-0.7,0.3-0.7C91.8,328.7,92.3,328.7,92.7,329
	"/>
<path class="st5" d="M85.9,330.6c0,0.2,0,0.6-0.3,0.6h-0.9c-0.2-0.3-0.2-0.8,0.2-0.9C85.4,330.3,85.8,330.3,85.9,330.6"/>
<path class="st5" d="M92.7,330.8v0.5c-0.4-0.1-1.1,0.3-1.5-0.1c-0.2-0.2-0.1-0.5,0.1-0.7C91.8,330.5,92.5,330.2,92.7,330.8"/>
<path class="st5" d="M86,332.3c0.1,0.7-0.9,0.6-1.3,0.5c0-0.3-0.2-0.9,0.3-1C85.4,332,86,331.8,86,332.3"/>
<path class="st5" d="M92.7,332.4c0.1,0.4-0.3,0.5-0.6,0.5c-0.4-0.1-0.9,0.2-1-0.3c-0.1-0.3,0-0.5,0.3-0.7
	C91.9,332,92.5,331.9,92.7,332.4"/>
<path class="st5" d="M80.3,322.7c0.2,0.4,0.2,1.1-0.4,1.3c-0.5,0-0.4-0.5-0.5-0.9C79.2,322.5,79.9,322.5,80.3,322.7"/>
<path class="st5" d="M82.2,323.3c-0.2,0.4-0.4,1.1-0.9,0.9c-0.6-0.2-0.2-0.8-0.2-1.2C81.4,322.7,82.2,322.8,82.2,323.3"/>
<path class="st5" d="M78.9,323.5c0,0.3-0.1,0.5-0.3,0.7c-0.2-0.3-1.1-0.8-0.4-1.3C78.7,322.8,78.9,323.3,78.9,323.5"/>
<path class="st5" d="M78,324.3c0.1,0.3,0,0.5-0.3,0.7c-0.4-0.1-1,0-1.1-0.6C76.8,323.5,77.8,323.5,78,324.3"/>
<path class="st5" d="M83.9,324.8c0,0.4-0.4,0.5-0.7,0.6c-0.4,0-0.9,0-1-0.5c0.1-0.4,0.2-0.9,0.7-1.1
	C83.4,323.7,83.7,324.4,83.9,324.8"/>
<path class="st5" d="M77.4,326.2c-0.3,0.3-1,0.3-1.3,0c-0.1-0.5-0.2-0.8,0.2-1.1C76.7,325.5,77.8,325.2,77.4,326.2"/>
<path class="st5" d="M83.9,326.7c-0.4,0.5-0.9,0-1.2,0.1c-0.3-0.7,0.4-1,1-1.1C84.2,325.8,83.9,326.5,83.9,326.7"/>
<path class="st5" d="M77.5,327.3c0,0.2,0,0.5-0.3,0.6l-1.4-0.1c-0.3-0.4,0-0.8,0.3-0.9C76.6,327,77.2,326.9,77.5,327.3"/>
<path class="st5" d="M83.9,328.5c-0.4,0.2-1.1,0.1-1.3-0.3c0-0.3-0.1-0.7,0.3-0.7l1,0.1V328.5z"/>
<path class="st5" d="M77.6,328.8c0.2,1-1.1,0.5-1.6,0.5c-0.2-0.2-0.5-0.7-0.1-0.9C76.5,328.3,77.3,328.2,77.6,328.8"/>
<path class="st5" d="M84.1,329.8l-0.1,0.4c-0.5,0-1.5,0.2-1.5-0.5c0.1-0.3,0.2-0.6,0.5-0.6C83.6,329,84.3,329.1,84.1,329.8"/>
<path class="st5" d="M77.4,330.3c0.1,0.6-0.4,0.7-0.8,0.7c-0.3-0.2-0.8,0.1-0.9-0.4c0-0.3,0-0.6,0.3-0.8
	C76.4,329.9,77.3,329.6,77.4,330.3"/>
<path class="st5" d="M83.9,331.5c-0.4,0.2-1,0.1-1.2-0.3c0-0.2-0.1-0.5,0.2-0.5l1,0.1V331.5z"/>
<path class="st5" d="M77.6,331.8l-0.1,0.9c-0.6,0.1-1.4,0.3-1.8-0.2c0-0.4,0-0.7,0.3-1C76.5,331.6,77.2,331.3,77.6,331.8"/>
<path class="st5" d="M84,332.4v0.4c-0.4,0.1-1.1,0.2-1.4-0.1c0-0.3,0-0.7,0.4-0.7C83.2,332.3,83.9,331.9,84,332.4"/>
<path class="st5" d="M71.6,322.9c-0.1,0.4-0.2,0.8-0.6,1.1c-0.7,0.2-0.9-0.4-1.2-0.9c0-0.3,0-0.7,0.4-0.7
	C70.7,322.4,71.5,322.2,71.6,322.9"/>
<path class="st5" d="M73.5,323.3c-0.2,0.4-0.3,1-0.9,1.2c-0.3,0-0.5-0.2-0.7-0.4c0.1-0.5,0.2-1.2,0.7-1.5
	C73,322.6,73.3,322.9,73.5,323.3"/>
<path class="st5" d="M69.5,323.7c0,0.4-0.4,1-0.9,0.6c-0.4-0.2-0.7-0.7-0.5-1.1C68.7,322.7,69.4,323.1,69.5,323.7"/>
<path class="st5" d="M74.7,324.5c0,0.2-0.2,0.5-0.4,0.7c-0.4-0.2-0.9,0.4-1.1-0.2c0.1-0.5,0.5-0.9,0.8-1.2
	C74.6,323.7,74.5,324.2,74.7,324.5"/>
<path class="st5" d="M68.3,324.9c0.2,0.3,0,0.7-0.2,0.9c-0.2,0.4-0.6,0.1-0.9,0.2c-0.2-0.5-0.2-1.1,0.1-1.7
	C67.8,324.3,68.1,324.6,68.3,324.9"/>
<path class="st5" d="M74.9,326.1c0.1,0.3-0.2,0.7-0.5,0.6c-0.4-0.1-0.9,0.2-1.1-0.3c0-0.4,0.2-0.8,0.7-0.7
	C74.2,325.6,74.7,325.8,74.9,326.1"/>
<path class="st5" d="M68.2,326.9c0,0.4,0,0.8-0.4,0.9h-0.6c-0.2-0.3,0-0.7-0.1-1C67.4,326.5,68,326.5,68.2,326.9"/>
<path class="st5" d="M74.9,327.8c0,0.2-0.1,0.3-0.1,0.5c-0.4,0.2-0.9,0.4-1.3,0.2c-0.3-0.2-0.2-0.7-0.1-0.9
	C73.8,327.4,74.9,327.1,74.9,327.8"/>
<path class="st5" d="M68.2,328.9c0.1,0.2-0.1,0.4-0.3,0.5c-0.3,0-0.7,0.1-0.7-0.3l0.1-0.7C67.6,328.5,68.1,328.4,68.2,328.9"/>
<path class="st5" d="M74.9,329.2c0.1,0.3,0.2,0.9-0.4,1.1c-0.5,0-1.4,0.1-1.3-0.7C73.2,328.5,74.4,329.4,74.9,329.2"/>
<path class="st5" d="M68.2,330.4c0,0.2-0.3,0.4-0.5,0.5c-0.2,0-0.5,0-0.5-0.3l0.1-0.6C67.6,330,68.1,330,68.2,330.4"/>
<path class="st5" d="M74.9,331.2c0,0.3-0.4,0.5-0.7,0.5c-0.3-0.1-0.9,0.2-0.9-0.3C73.2,330.5,74.6,330.7,74.9,331.2"/>
<path class="st5" d="M68.3,331.9c-0.1,0.5-0.6,0.2-0.9,0.3c-0.1-0.2-0.3-0.4-0.2-0.7C67.5,331.1,68.1,331.5,68.3,331.9"/>
<path class="st5" d="M74.9,332.4c0.1,0.6-0.5,0.5-0.9,0.5c-0.2,0-0.4,0.1-0.5-0.1C73.4,332,74.4,332.4,74.9,332.4"/>
<path class="st5" d="M68.1,332.7L68.1,332.7l-0.7,0.1C67.5,332.5,67.9,332.6,68.1,332.7"/>
<polygon class="st0" points="106.3,304.3 96.7,304.3 101.8,297.2 "/>
<polygon class="st0" points="118.2,304.3 108.5,304.3 113.6,297.2 "/>
<polygon class="st0" points="118.2,304.3 108.5,304.3 113.6,297.2 "/>
<polygon class="st6" points="101.9,311.5 96.8,304.4 106.4,304.4 "/>
<polygon class="st6" points="118.2,304.4 108.6,304.4 113.6,311.5 "/>
<polygon class="st0" points="78.2,293.5 81.7,293.5 81.7,298.2 85.8,298.2 85.8,301.1 81.7,301.1 81.7,314 78.2,314 78.2,301.1 
	73.7,301.1 73.7,298.2 78.2,298.2 "/>
<path class="st0" d="M66.9,334.8l0,12.5c0,0,0.6,2.2,2.1,3.9c1.4,1.6,3,2.1,4.8,2.8c4.1,1.7,4.2,0.8,10.9,1.9c5.1,0,8.3,2.6,8.3,2.6
	l0-23.8L66.9,334.8z"/>
<path class="st6" d="M70.2,337.1c1.6,0.4,2.6,0.4,3.9,0c1.7-1,4.7-0.4,6.5,0.4c3.5,0,4.3-1.1,6.2-0.7c3.3,1.1,6.1,0.7,6.1,0.7l0,4.1
	c0,0-1.8,0.4-5-0.7c-3.1-1.1-5,1.7-9.2,0.2c-4.2-1.4-4.4,0.1-6.6,0.1c-3,0.1-5.3-1.3-5.3-1.3l0-4C66.8,335.9,68.6,336.8,70.2,337.1"
	/>
<path class="st6" d="M70.4,344.3c1.6,0.4,2.6,0.4,3.9,0c1.7-1,4.4-0.4,6.5,0.4c3.5,0,4.3-1.1,6.2-0.7c3.3,1.1,6,0.9,6,0.9v4.1
	c0,0-1.7,0.2-5-0.9c-3.1-1.1-5,1.7-9.3,0.2c-4.2-1.4-4.4,0.1-6.6,0.1c-3,0.1-5.4-1.1-5.4-1.1v-3.9C66.8,343.4,68.8,344,70.4,344.3"
	/>
<path class="st6" d="M69.1,351.5c0.4,0.1,0.7,0.2,1.1,0.3c1.6,0.4,2.6,0.4,3.9,0c1.7-0.9,4.3-0.4,6.5,0.4c3.5,0,4.3-1.1,6.2-0.7
	c3.3,1.1,6.2,0.8,6.2,0.8v6.7c0,0-1.5-1.7-4.9-2.5c-3-0.8-5.6-0.1-11.4-1.3C70.9,353.8,69.1,351.5,69.1,351.5"/>
<rect x="94.6" y="334.7" class="st5" width="25.8" height="9.2"/>
<path class="st0" d="M101.7,340.8c0.6-2.5,2-5.1,2-5.1s-3.2,2.3-4.3,3.9c-1.1,1.7-1.2,4.2-1.2,4.2h3.4
	C101.6,343.9,101.1,343.4,101.7,340.8"/>
<path class="st0" d="M113.3,340.8c-0.6-2.5-2-5.1-2-5.1s3.2,2.3,4.3,3.9c1.1,1.7,1.2,4.2,1.2,4.2h-3.4
	C113.5,343.9,113.9,343.4,113.3,340.8"/>
<path class="st7" d="M94.6,292v67.7 M93.1,334.6v26.1"/>
<rect x="110.2" y="316.7" class="st6" width="5.1" height="5.5"/>
<rect x="94.7" y="322.2" class="st6" width="5.1" height="5.5"/>
<rect x="115.3" y="322.2" class="st6" width="5.1" height="5.5"/>
<rect x="105" y="322.2" class="st6" width="5.1" height="5.5"/>
<rect x="99.9" y="316.7" class="st6" width="5.1" height="5.5"/>
<rect x="110.2" y="327.6" class="st6" width="5.1" height="5.5"/>
<rect x="99.9" y="327.6" class="st6" width="5.1" height="5.5"/>
</svg>
