<?xml version="1.0" encoding="utf-8"?>
<svg id="master-artboard" viewBox="0 0 893.4037475585938 236.6528778076172" version="1.1" xmlns="http://www.w3.org/2000/svg" x="0px" y="0px" style="enable-background:new 0 0 1400 980;" width="893.4037475585938px" height="236.6528778076172px"><rect id="ee-background" x="0" y="0" width="893.4037475585938" height="236.6528778076172" style="fill: white; fill-opacity: 0; pointer-events: none;"/><g transform="matrix(1.6013071537017822, 0, 0, 1.6013071537017822, -206.50857543945312, -361.4907283782959)"><g>
	<g>
		<path class="st0" d="M678.1,296.7c0.7,0,1.3,0,1.3-0.9c0-0.7-0.6-0.8-1.2-0.8h-1.1v1.7H678.1z M677.1,299.8h-0.8v-5.5h2.1&#10;&#9;&#9;&#9;c1.3,0,2,0.5,2,1.6c0,1-0.6,1.4-1.4,1.5l1.6,2.4h-0.9l-1.5-2.4h-1V299.8z M678.2,301.1c2.2,0,3.9-1.7,3.9-4c0-2.3-1.7-4-3.9-4&#10;&#9;&#9;&#9;c-2.2,0-3.9,1.7-3.9,4C674.3,299.4,676,301.1,678.2,301.1 M673.3,297.1c0-2.8,2.2-4.8,4.9-4.8c2.6,0,4.8,2,4.8,4.8&#10;&#9;&#9;&#9;c0,2.8-2.2,4.8-4.8,4.8C675.5,301.9,673.3,299.8,673.3,297.1" style="fill: rgb(192, 36, 40);"/>
		<path class="st1" d="M188.4,249.1c1.2,0,2.3,1.1,2.3,2.4c0,1.4-1,2.4-2.3,2.4c-1.3,0-2.3-1.1-2.3-2.4&#10;&#9;&#9;&#9;C186.1,250.2,187.2,249.1,188.4,249.1 M188,257.1c0.1,0,0.3,0,0.4,0c-1.5,1.9-3.1,3.6-4.7,5.3h4.3c4.1-4,6.2-7.5,6.2-10.5&#10;&#9;&#9;&#9;c0-3.5-2.5-6-5.7-6c-3.4,0-5.9,2.5-5.9,5.6C182.6,254.7,184.8,257.1,188,257.1" style="fill: rgb(255, 255, 255);"/>
		<path class="st1" d="M168.8,255.4c1.4,0.4,2.1,1.1,2.1,2.3c0,1.1-0.9,2-2.1,2c-1.2,0-2.1-0.9-2.1-2&#10;&#9;&#9;&#9;C166.7,256.5,167.4,255.8,168.8,255.4 M168.8,248.7c1.2,0,2,0.8,2,1.8c0,0.9-0.7,1.6-2,2c-1.3-0.5-2-1.1-2-2&#10;&#9;&#9;&#9;C166.8,249.5,167.7,248.7,168.8,248.7 M163.2,257.8c0,2.9,2.3,5,5.7,5s5.7-2.1,5.7-5c0-1.8-0.9-3.3-2.5-4.1&#10;&#9;&#9;&#9;c1.4-0.8,2.1-1.9,2.1-3.4c0-2.6-2.1-4.5-5.3-4.5c-3.2,0-5.3,1.9-5.3,4.5c0,1.4,0.7,2.5,2.1,3.4C164,254.6,163.2,256.1,163.2,257.8&#10;&#9;&#9;&#9;" style="fill: rgb(255, 255, 255);"/>
		<path class="st1" d="M213.8,259.1h-5.7l2.1-2.3c1.9-2.1,2.9-4,2.9-5.8c0-2.9-2.4-5.1-5.5-5.1c-2.5,0-4.5,1.4-5.5,3.8l3,1.5&#10;&#9;&#9;&#9;c0.3-1.3,1.2-2,2.2-2c1.2,0,2,0.8,2,1.9c0,1.1-0.7,1.9-1.7,3l-5.8,6.9v1.3h11.3L213.8,259.1z" style="fill: rgb(255, 255, 255);"/>
	</g>
	<path d="M 147.8000030517578 262.29998779296875 L 151.39999389648438 262.29998779296875 L 151.39999389648438 246.3000030517578 L 145.60000610351562 246.3000030517578 L 145 249.3000030517578 L 147.8000030517578 249.3000030517578 Z" class="st1" style="fill: rgb(255, 255, 255);"/>
	<g>
		<path class="st0" d="M223.8,275.9c0,30.5-15.5,58.3-41.4,74.5l-2.6,1.6l-2.6-1.6c-25.9-16.1-41.4-44-41.4-74.5v-39.4h83.2h4.8&#10;&#9;&#9;&#9;V275.9z M130.9,231.7v44.3c0,32.2,16.3,61.6,43.7,78.6l5.1,3.2l5.1-3.2c27.4-17,43.7-46.4,43.7-78.6v-44.3h-4.8H130.9z" style="fill: rgb(192, 36, 40);"/>
		<path class="st1" d="M218.9,267.7h-53.9c-5.2,0-10.1,2-13.8,5.7c-3.7,3.7-5.7,8.6-5.7,13.8c0,8.9,7.2,16.1,16.1,16.1&#10;&#9;&#9;&#9;c7.4,0,13.3-6,13.3-13.3c0-6.2-5-11.2-11.2-11.2c-5.2,0-9.4,4.2-9.4,9.4c0,1.3,1.1,2.4,2.4,2.4c1.3,0,2.4-1.1,2.4-2.4&#10;&#9;&#9;&#9;c0-2.5,2-4.6,4.6-4.6c3.5,0,6.3,2.8,6.3,6.3c0,4.7-3.8,8.5-8.5,8.5c-6.2,0-11.2-5-11.2-11.2c0-3.9,1.5-7.6,4.3-10.3&#10;&#9;&#9;&#9;c2.8-2.8,6.4-4.3,10.3-4.3h53.9v3.4c0,0.5,0,1,0,1.6h-36.8c-1.3,0-2.4,1.1-2.4,2.4c0,1.3,1.1,2.4,2.4,2.4h36.5&#10;&#9;&#9;&#9;c-0.6,7.9-2.3,15.5-5,22.6v-15.7c0-1.3-1.1-2.4-2.4-2.4s-2.4,1.1-2.4,2.4v25.9c0,0.1,0,0.2,0,0.3c-1.5,2.7-3.1,5.3-4.9,7.8v-34&#10;&#9;&#9;&#9;c0-1.3-1.1-2.4-2.4-2.4s-2.4,1.1-2.4,2.4v40.4c-1.5,1.8-3.2,3.5-4.8,5.1v-45.6c0-1.3-1.1-2.4-2.4-2.4c-1.3,0-2.4,1.1-2.4,2.4v50&#10;&#9;&#9;&#9;c-1.6,1.3-3.2,2.6-4.8,3.8v-53.7c0-1.3-1.1-2.4-2.4-2.4s-2.4,1.1-2.4,2.4v57c0,0,0,0,0,0c-1.6-1-3.2-2.1-4.8-3.2v-36.2&#10;&#9;&#9;&#9;c0-1.3-1.1-2.4-2.4-2.4s-2.4,1.1-2.4,2.4v32.4c-18-15.2-29.5-37.9-29.5-63.3v-34.6h78.3V267.7z M135.8,236.5v39.4&#10;&#9;&#9;&#9;c0,30.5,15.5,58.3,41.4,74.5l2.6,1.6l2.6-1.6c26-16.1,41.4-44,41.4-74.5v-39.4h-4.8H135.8z" style="fill: rgb(255, 255, 255);"/>
		<path class="st0" d="M168.8,252.5c1.4-0.4,2-1.1,2-2c0-1-0.9-1.8-2-1.8c-1.1,0-2,0.8-2,1.8C166.8,251.4,167.5,252.1,168.8,252.5" style="fill: rgb(192, 36, 40);"/>
		<path class="st0" d="M188.4,254c1.2,0,2.3-1,2.3-2.4c0-1.4-1-2.4-2.3-2.4c-1.3,0-2.3,1.1-2.3,2.4C186.1,252.9,187.2,254,188.4,254&#10;&#9;&#9;&#9;" style="fill: rgb(192, 36, 40);"/>
		<path class="st0" d="M168.8,259.7c1.2,0,2.1-0.9,2.1-2c0-1.2-0.7-1.9-2.1-2.3c-1.4,0.4-2.1,1.1-2.1,2.3&#10;&#9;&#9;&#9;C166.7,258.8,167.7,259.7,168.8,259.7" style="fill: rgb(192, 36, 40);"/>
		<path class="st0" d="M145.6,246.3h5.8v16h-3.5v-13.1H145L145.6,246.3z M163.6,250.3c0-2.6,2.1-4.5,5.3-4.5s5.3,1.9,5.3,4.5&#10;&#9;&#9;&#9;c0,1.4-0.7,2.5-2.1,3.4c1.6,0.9,2.5,2.4,2.5,4.1c0,2.9-2.4,5-5.7,5s-5.7-2.1-5.7-5c0-1.8,0.9-3.3,2.5-4.1&#10;&#9;&#9;&#9;C164.2,252.8,163.6,251.7,163.6,250.3 M188.5,245.8c3.1,0,5.7,2.5,5.7,6c0,3.1-2.1,6.5-6.2,10.5h-4.3c1.6-1.7,3.2-3.4,4.7-5.3&#10;&#9;&#9;&#9;c-0.1,0-0.3,0-0.4,0c-3.2,0-5.4-2.3-5.4-5.7C182.6,248.3,185.1,245.8,188.5,245.8 M202,261.1l5.8-6.9c1-1.2,1.7-1.9,1.7-3&#10;&#9;&#9;&#9;c0-1.1-0.8-1.9-2-1.9c-1.1,0-1.9,0.7-2.2,2l-3.1-1.5c0.9-2.4,2.9-3.8,5.5-3.8c3.1,0,5.5,2.2,5.5,5.1c0,1.8-1,3.7-2.9,5.8l-2.1,2.3&#10;&#9;&#9;&#9;h5.7l-0.5,3.3H202V261.1z M140.6,275.9c0,25.4,11.5,48.1,29.5,63.3v-32.4c0-1.3,1.1-2.4,2.4-2.4s2.4,1.1,2.4,2.4V343&#10;&#9;&#9;&#9;c1.6,1.1,3.2,2.2,4.8,3.2c0,0,0,0,0,0v-57c0-1.3,1.1-2.4,2.4-2.4s2.4,1.1,2.4,2.4V343c1.6-1.2,3.2-2.5,4.8-3.8v-50&#10;&#9;&#9;&#9;c0-1.3,1.1-2.4,2.4-2.4c1.3,0,2.4,1.1,2.4,2.4v45.6c1.7-1.6,3.3-3.4,4.8-5.1v-40.4c0-1.3,1.1-2.4,2.4-2.4s2.4,1.1,2.4,2.4v34&#10;&#9;&#9;&#9;c1.8-2.5,3.4-5.1,4.9-7.8c0-0.1-0.1-0.2-0.1-0.3v-25.9c0-1.3,1.1-2.4,2.4-2.4s2.4,1.1,2.4,2.4v15.7c2.7-7.1,4.4-14.7,5-22.6h-36.5&#10;&#9;&#9;&#9;c-1.3,0-2.4-1.1-2.4-2.4s1.1-2.4,2.4-2.4h36.8c0-0.5,0-1,0-1.6v-3.4h-53.9c-3.9,0-7.6,1.5-10.3,4.3c-2.8,2.8-4.3,6.4-4.3,10.3&#10;&#9;&#9;&#9;c0,6.2,5,11.2,11.2,11.2c4.7,0,8.5-3.8,8.5-8.5c0-3.5-2.8-6.3-6.3-6.3c-2.5,0-4.6,2-4.6,4.6c0,1.3-1.1,2.4-2.4,2.4&#10;&#9;&#9;&#9;s-2.4-1.1-2.4-2.4c0-5.2,4.2-9.4,9.4-9.4c6.2,0,11.2,5,11.2,11.2c0,7.4-6,13.3-13.3,13.3c-8.9,0-16.1-7.2-16.1-16.1&#10;&#9;&#9;&#9;c0-5.2,2-10.1,5.7-13.8c3.7-3.7,8.6-5.7,13.8-5.7h53.9v-26.3h-78.3V275.9z" style="fill: rgb(192, 36, 40);"/>
		<path class="st0" d="M256.7,275.1l-13.7,9.2c7.6,11.8,15.2,17.1,29.9,17.1c13.4,0,28.7-6.3,28.7-21.8c0-26.9-42.6-16.8-42.6-31&#10;&#9;&#9;&#9;c0-6.8,8.2-7.9,13.5-7.9c5.1,0,14.5,1.8,14.5,8.4c0,1.1-0.3,1.9-0.8,2.8l3.2,2.1l10.6-9.3c-6.7-8.7-16.6-12.6-27.4-12.6&#10;&#9;&#9;&#9;c-12,0-26.1,4.9-26.1,19.2c0,25.1,41.8,12.7,41.8,30.3c0,7.9-9.2,11.2-15.8,11.2c-5.8,0-15.1-2.9-15.1-10.1c0-1.9,0.9-3.5,2.1-4.8&#10;&#9;&#9;&#9;L256.7,275.1z" style="fill: rgb(192, 36, 40);"/>
		<path class="st0" d="M315.8,241.6h9.9V289c0,4,0,6.8-4.1,7.5v3.4h20.8v-3.4c-4.1-0.7-4.1-3.5-4.1-7.5v-47.4h9.9&#10;&#9;&#9;&#9;c4.2,0,6.3,0.6,7,5.8h4.6v-13.8h-55.8v13.8h4.6C309.5,242.2,311.6,241.6,315.8,241.6" style="fill: rgb(192, 36, 40);"/>
		<path class="st0" d="M382.4,241.6h11.1c7.2,0.2,14.6,2.6,14.6,11.2c0,8.1-7,10.6-14,10.6h-11.6V241.6z M454.6,245.8l8.7,22h-17.1&#10;&#9;&#9;&#9;L454.6,245.8z M386.5,296.6c-4.1-0.7-4.1-3.5-4.1-7.5v-17.7h9.9l17,28.6h31.8v-3.4c-4.3-1.1-4.4-3.1-2.9-6.9l5.2-13.9h22.8&#10;&#9;&#9;&#9;l5.7,13.9c1.6,3.8,2,6.1-2.7,6.9v3.4H491v-3.4c-2.9-0.4-3.6-2.4-4.6-4.8l-22.9-58.1h-13.5l-21.5,56.2c-0.9,2.2-2.2,6.4-4.2,6.4&#10;&#9;&#9;&#9;c-2.1,0-3.1-2-4.4-4l-14.2-22.7c8.8-1.8,15-8.8,15-17.9c0-12.2-10.5-17.9-21.7-17.9h-33.4v3.4c4.1,0.7,4.1,3.5,4.1,7.5V289&#10;&#9;&#9;&#9;c0,4,0,6.8-4.1,7.5v3.4h20.8V296.6z" style="fill: rgb(192, 36, 40);"/>
		<path class="st0" d="M490.5,244.5l16.6,29.6v15c0,4,0,6.8-4.1,7.5v3.4h20.8v-3.4c-4.1-0.7-4.1-3.5-4.1-7.5v-15l16.6-31.1&#10;&#9;&#9;&#9;c1.6-2.9,2.5-5.1,6-5.9v-3.4h-19.2v3.4c5.1,0.3,3.4,4.6,2,7.4L514.8,264l-11.3-21.9c-1.5-2.8-1-4.8,1.8-5v-3.4h-21.2v3.4&#10;&#9;&#9;&#9;C487,237.4,489.2,242.1,490.5,244.5" style="fill: rgb(192, 36, 40);"/>
		<path class="st0" d="M601.4,286h-4.6c-0.8,4.8-3.4,6-7.9,6h-24.6v-25.3h16.3c3.5,0,6.6,0.5,7.1,4.6h4.7v-17.3h-4.7&#10;&#9;&#9;&#9;c-0.5,4.2-3.5,4.6-7.1,4.6h-16.3v-17.1h22.3c4.9-0.1,6.4,0.1,7.6,5.4h4.7v-13.4h-51.3v3.4c4.1,0.7,4.1,3.5,4.1,7.5V289&#10;&#9;&#9;&#9;c0,4,0,6.8-4.1,7.5v3.4h53.8V286z" style="fill: rgb(192, 36, 40);"/>
		<path class="st0" d="M625.7,241.6h11.1c7.2,0.2,14.6,2.6,14.6,11.2c0,8.1-7,10.6-14,10.6h-11.6V241.6z M629.8,296.6&#10;&#9;&#9;&#9;c-4.1-0.7-4.1-3.5-4.1-7.5v-17.7h9.9l17,28.6H669v-3.4c-3-0.5-4.2-2-5.8-4.4l-14.2-22.7c8.8-1.8,15-8.8,15-17.9&#10;&#9;&#9;&#9;c0-12.2-10.5-17.9-21.7-17.9H609v3.4c4.1,0.7,4.1,3.5,4.1,7.5V289c0,4,0,6.8-4.1,7.5v3.4h20.8V296.6z" style="fill: rgb(192, 36, 40);"/>
		<path class="st0" d="M265.3,343.2c0,3.6,0.1,7-5.3,7c-5.3,0-5.2-3.5-5.2-7v-22.7h-7.1v22.7c0,7.4,2.3,12.5,12.3,12.5&#10;&#9;&#9;&#9;c9.9,0,12.4-5,12.4-12.5v-22.7h-7.1V343.2z" style="fill: rgb(192, 36, 40);"/>
	</g>
	<path d="M 315 320.5 L 315 341.6000061035156 L 303.8999938964844 320.5 L 296.3999938964844 320.5 L 296.3999938964844 354.6000061035156 L 303.6000061035156 354.6000061035156 L 303.6000061035156 334.20001220703125 L 315.1000061035156 354.6000061035156 L 322.20001220703125 354.6000061035156 L 322.20001220703125 320.5 Z" class="st0" style="fill: rgb(192, 36, 40);"/>
	<path d="M 346 320.5 L 346 325.29998779296875 L 348.8999938964844 325.29998779296875 L 348.8999938964844 349.79998779296875 L 346.1000061035156 349.79998779296875 L 346.1000061035156 354.6000061035156 L 359 354.6000061035156 L 359 349.79998779296875 L 356.1000061035156 349.79998779296875 L 356.1000061035156 325.29998779296875 L 358.8999938964844 325.29998779296875 L 358.8999938964844 320.5 Z" class="st0" style="fill: rgb(192, 36, 40);"/>
	<path d="M 401.29998779296875 320.5 L 394.29998779296875 345.79998779296875 L 388.3999938964844 320.5 L 381.3999938964844 320.5 L 390.3999938964844 354.6000061035156 L 398.1000061035156 354.6000061035156 L 408.20001220703125 320.5 Z" class="st0" style="fill: rgb(192, 36, 40);"/>
	<path d="M 430.8999938964844 320.5 L 430.8999938964844 354.6000061035156 L 449.70001220703125 354.6000061035156 L 448.6000061035156 349.20001220703125 L 438 349.20001220703125 L 438 341 L 446.5 341 L 446.5 334 L 438 334 L 438 325.8999938964844 L 448.6000061035156 325.8999938964844 L 449.70001220703125 320.5 Z" class="st0" style="fill: rgb(192, 36, 40);"/>
	<g>
		<path class="st0" d="M482.7,335.4h-1.4v-9.6h1.9c2.7,0,4.7,0.2,4.7,4.5C488,334.9,486.1,335.4,482.7,335.4 M496.1,330.2&#10;&#9;&#9;&#9;c0-9.4-8.2-9.7-12.2-9.7h-9.7v34.1h7.1v-14h2.6l7.8,14h7.3l-8.8-15.1C492.1,338.5,496.1,336.6,496.1,330.2" style="fill: rgb(192, 36, 40);"/>
		<path class="st0" d="M535.9,336.7c-4.6-3.3-10.8-4-10.8-7.8c0-3,2.6-3.9,5-3.9c2.5,0,4.7,1,6,1.6l2.1-4.9c-2-1.1-4.6-2.1-8.4-2.1&#10;&#9;&#9;&#9;c-6.1,0-11.6,3-11.6,10.2c0,4.1,1.8,6.2,4.6,7.8c5.4,3.1,10.7,3.5,10.7,8c0,3.1-1.8,4.6-4.8,4.6c-4.5,0-8.4-2.2-8.7-2.2l-2.1,4.6&#10;&#9;&#9;&#9;c1.5,1.2,5.6,3,11,3c6.6,0,11.4-4.2,11.4-10.6C540.5,341.3,538.6,338.6,535.9,336.7" style="fill: rgb(192, 36, 40);"/>
	</g>
	<path d="M 560.9000244140625 320.5 L 560.9000244140625 325.29998779296875 L 563.7999877929688 325.29998779296875 L 563.7999877929688 349.79998779296875 L 561 349.79998779296875 L 561 354.6000061035156 L 573.9000244140625 354.6000061035156 L 573.9000244140625 349.79998779296875 L 571 349.79998779296875 L 571 325.29998779296875 L 573.7999877929688 325.29998779296875 L 573.7999877929688 320.5 Z" class="st0" style="fill: rgb(192, 36, 40);"/>
	<path d="M 595.5999755859375 320.5 L 595.5999755859375 326.5 L 603.2999877929688 326.5 L 603.2999877929688 354.6000061035156 L 610.5 354.6000061035156 L 610.5 326.5 L 617.7999877929688 326.5 L 619.7000122070312 320.5 Z" class="st0" style="fill: rgb(192, 36, 40);"/>
	<path d="M 659.5 320.5 L 652.7999877929688 334.70001220703125 L 646.4000244140625 320.5 L 639.0999755859375 320.5 L 649 340.70001220703125 L 649 354.6000061035156 L 656.0999755859375 354.6000061035156 L 656.0999755859375 340.70001220703125 L 666.7999877929688 320.5 Z" class="st0" style="fill: rgb(192, 36, 40);"/>
</g></g></svg>