<svg id="Layer_1" data-name="Layer 1" xmlns="http://www.w3.org/2000/svg" viewBox="0 0 541.08 126.65"><defs><style>.cls-1{fill:#00567d;}.cls-2{fill:#119548;}.cls-3{fill:none;}.cls-4{fill:#231f20;}</style></defs><path class="cls-1" d="M234.08,59.64h-1.87a16.67,16.67,0,0,0-2.47-4.86,6.68,6.68,0,0,0-3.47-2.9,9.13,9.13,0,0,0-2.06-.25c-.88,0-1.61-.05-2.18-.05H217V67.85h3.6a7.38,7.38,0,0,0,2.46-.39A4.55,4.55,0,0,0,225,66a7.85,7.85,0,0,0,1.15-2.4,16,16,0,0,0,.75-3h1.88V78.17h-1.88a17.91,17.91,0,0,0-.75-3.14,8.94,8.94,0,0,0-1.15-2.6A4.09,4.09,0,0,0,223.11,71a7.44,7.44,0,0,0-2.56-.4H217V82.72a16,16,0,0,0,.23,3,3.18,3.18,0,0,0,.88,1.71,3.26,3.26,0,0,0,1.69.74,18.42,18.42,0,0,0,2.92.18l2.07,0a15.71,15.71,0,0,0,2.12-.18,11.13,11.13,0,0,0,1.93-.45,2.7,2.7,0,0,0,1.35-.86,24.88,24.88,0,0,0,2.66-4.44,34.93,34.93,0,0,0,1.95-4.48h1.8l-.67,13.15H203.07V88.76c.46,0,1.08-.12,1.87-.24a6.44,6.44,0,0,0,1.68-.42,2.57,2.57,0,0,0,1.25-1.2A4.56,4.56,0,0,0,208.2,85V55.27a5,5,0,0,0-.28-1.77,2.6,2.6,0,0,0-1.3-1.26,7.84,7.84,0,0,0-1.8-.66c-.77-.2-1.36-.33-1.75-.39V48.87h31Z" transform="translate(-57.05 -26.05)"/><path class="cls-1" d="M266.49,90.51a18.11,18.11,0,0,1-2.56.94,11,11,0,0,1-3.12.43,8,8,0,0,1-4.46-1,4.86,4.86,0,0,1-1.94-2.81h-.15a16.52,16.52,0,0,1-1.62,1.56,9,9,0,0,1-1.66,1.1,11.84,11.84,0,0,1-2.24.89,11.68,11.68,0,0,1-3,.3,7,7,0,0,1-4.89-1.85,6.29,6.29,0,0,1-2-4.89,8.67,8.67,0,0,1,.44-3,7,7,0,0,1,1.26-2.17,6.56,6.56,0,0,1,1.72-1.43,17.6,17.6,0,0,1,2.13-1.05c1.48-.6,3.26-1.21,5.34-1.85A29.35,29.35,0,0,0,254.26,74V71.42c0-.45,0-1-.1-1.77a5.81,5.81,0,0,0-.42-1.86,3.54,3.54,0,0,0-1.08-1.46,3.08,3.08,0,0,0-1.95-.59,4.21,4.21,0,0,0-1.81.34,5.49,5.49,0,0,0-1.18.69,10.91,10.91,0,0,0,.43,1.64,7,7,0,0,1,.34,2.12,3.81,3.81,0,0,1-.22,1.15,2.59,2.59,0,0,1-.64,1.09,4.08,4.08,0,0,1-1.28.83,5.84,5.84,0,0,1-2.16.3,4.18,4.18,0,0,1-3.14-1.09,4.12,4.12,0,0,1,0-5.55,9.13,9.13,0,0,1,2.68-2A14.39,14.39,0,0,1,247.33,64a18,18,0,0,1,3.75-.44,28.34,28.34,0,0,1,4.39.31,9.61,9.61,0,0,1,3.6,1.28,6.61,6.61,0,0,1,2.43,2.73,10.41,10.41,0,0,1,.9,4.67c0,2,0,4.43-.12,7.22s-.11,4.61-.11,5.49a4.41,4.41,0,0,0,.34,1.91,2.26,2.26,0,0,0,1,1,3.34,3.34,0,0,0,1.32.25c.6,0,1.14,0,1.64,0Zm-12.23-14c-.92.35-1.84.74-2.75,1.18a10.5,10.5,0,0,0-2.22,1.39A5.13,5.13,0,0,0,247.85,81a6.7,6.7,0,0,0-.52,2.76,4.41,4.41,0,0,0,.88,3.05,2.85,2.85,0,0,0,2.16.95,3.87,3.87,0,0,0,2.24-.61,6.48,6.48,0,0,0,1.55-1.5Z" transform="translate(-57.05 -26.05)"/><path class="cls-1" d="M280,92a14.61,14.61,0,0,1-4.67-.77,14.43,14.43,0,0,1-3.54-1.63L271,91.42h-1.92l-.32-10h1.8a14.55,14.55,0,0,0,1.23,2.74,15.35,15.35,0,0,0,2,2.73,11.07,11.07,0,0,0,2.66,2,6.37,6.37,0,0,0,3.19.84,5,5,0,0,0,3.34-1,3.69,3.69,0,0,0,1.1-2.94,3,3,0,0,0-.5-1.78,4.31,4.31,0,0,0-1.35-1.21,11.89,11.89,0,0,0-2.11-.92L277.27,81a27.78,27.78,0,0,1-2.88-1.09,9.86,9.86,0,0,1-2.47-1.74,7.81,7.81,0,0,1-1.78-2.53,8.62,8.62,0,0,1-.66-3.53A7.5,7.5,0,0,1,272.4,66a11.86,11.86,0,0,1,7.65-2.34,16.23,16.23,0,0,1,4.13.5,20,20,0,0,1,3.17,1.09l.52-1.59h1.87l.39,9.18h-1.72a11.32,11.32,0,0,0-3-4.83,6.42,6.42,0,0,0-4.51-2,4.68,4.68,0,0,0-3,.86,2.87,2.87,0,0,0-1.09,2.4,3.16,3.16,0,0,0,1.59,3,20.28,20.28,0,0,0,4.44,1.72,14,14,0,0,1,6.45,3.38,7.58,7.58,0,0,1,2,5.45,8.1,8.1,0,0,1-3.17,6.84A13.28,13.28,0,0,1,280,92Z" transform="translate(-57.05 -26.05)"/><path class="cls-1" d="M311.87,89.84a32.61,32.61,0,0,1-3.38,1.36,14,14,0,0,1-4.39.6c-2.56,0-4.47-.68-5.71-2a8.38,8.38,0,0,1-1.86-5.84V67.41h-4.44V64.48h4.54V56.32h8v8.16h6.92v2.93h-6.87V82.14a9.05,9.05,0,0,0,.8,4.47,3.1,3.1,0,0,0,2.88,1.32c.45,0,1.07,0,1.86-.11a11.65,11.65,0,0,0,1.66-.24Z" transform="translate(-57.05 -26.05)"/><path class="cls-1" d="M340.25,84.64a16.49,16.49,0,0,1-2.09,2.9,12.84,12.84,0,0,1-2.77,2.32,14.73,14.73,0,0,1-3.34,1.55,13.1,13.1,0,0,1-3.88.53,16,16,0,0,1-6.3-1.13,11.94,11.94,0,0,1-6.95-7.56,17.92,17.92,0,0,1-.86-5.64,15.06,15.06,0,0,1,.93-5.26,14.24,14.24,0,0,1,2.62-4.48,12.69,12.69,0,0,1,4.23-3.1,13.41,13.41,0,0,1,5.71-1.18,15,15,0,0,1,5.67.91A9.93,9.93,0,0,1,336.89,67a9.26,9.26,0,0,1,2.05,3.62,14.67,14.67,0,0,1,.64,4.37v1.75H322.92c0,3.68.64,6.48,1.94,8.4s3.36,2.88,6.19,2.88a6.75,6.75,0,0,0,4.17-1.39,12.43,12.43,0,0,0,3.15-3.51Zm-9.42-10.23c0-1.08-.05-2.18-.15-3.31a11.79,11.79,0,0,0-.52-2.77A4.3,4.3,0,0,0,329,66.42a2.64,2.64,0,0,0-1.84-.65,3.39,3.39,0,0,0-3,2.1Q323,70,322.92,74.52Z" transform="translate(-57.05 -26.05)"/><path class="cls-1" d="M366.27,69.3a5.84,5.84,0,0,1-1.16,3.59,3.64,3.64,0,0,1-3.06,1.55,4.73,4.73,0,0,1-3-1,3.54,3.54,0,0,1-1.25-2.93,6.92,6.92,0,0,1,.12-1.46c.09-.34.16-.67.23-1a5,5,0,0,0-2.39.86,8,8,0,0,0-2.22,2.13V85.85a3.9,3.9,0,0,0,.27,1.56,2,2,0,0,0,.91,1,5.73,5.73,0,0,0,1.76.5,16.76,16.76,0,0,0,1.77.23v2h-16.5v-2L343,89a6.05,6.05,0,0,0,1.07-.25,1.83,1.83,0,0,0,1.08-.92,3.7,3.7,0,0,0,.3-1.61V70.51a3.56,3.56,0,0,0-.42-1.74A3.31,3.31,0,0,0,342.86,67a7.28,7.28,0,0,0-1.49-.3v-2l11.76-.7.37.4v3.9h.09A14.92,14.92,0,0,1,357.21,65a7.24,7.24,0,0,1,4-1.23,4.7,4.7,0,0,1,3.68,1.55A5.74,5.74,0,0,1,366.27,69.3Z" transform="translate(-57.05 -26.05)"/><path class="cls-1" d="M400.66,91.08H385.85v-2L387,89a3.21,3.21,0,0,0,1-.27,1.67,1.67,0,0,0,.74-.87,4.7,4.7,0,0,0,.22-1.66V73.58a7.6,7.6,0,0,0-.92-4.14,3.09,3.09,0,0,0-2.74-1.38,5.27,5.27,0,0,0-1.84.32,7,7,0,0,0-1.67.94,6.12,6.12,0,0,0-1.15,1.11l-.73,1V85.88a4.41,4.41,0,0,0,.25,1.57,1.88,1.88,0,0,0,.81,1,5.15,5.15,0,0,0,1,.43,6.45,6.45,0,0,0,1.16.27v2h-15v-2l1.25-.15a6.27,6.27,0,0,0,1.07-.25,1.86,1.86,0,0,0,1.08-.92,3.7,3.7,0,0,0,.3-1.61V70.51a3.58,3.58,0,0,0-.4-1.64,3.68,3.68,0,0,0-1-1.32,3.77,3.77,0,0,0-1.12-.54,7.42,7.42,0,0,0-1.49-.3v-2l11.76-.7.36.4v3.9h.1l1.68-1.61a18,18,0,0,1,1.82-1.54,8.68,8.68,0,0,1,2.4-1.1,10.71,10.71,0,0,1,3.15-.46,7.29,7.29,0,0,1,6,2.49,10.22,10.22,0,0,1,2,6.61V85.93a3.86,3.86,0,0,0,.27,1.59,2,2,0,0,0,1,.94,8.22,8.22,0,0,0,1,.38,6.15,6.15,0,0,0,1.32.27Z" transform="translate(-57.05 -26.05)"/><path class="cls-1" d="M448.83,60.15h-1.92a19.4,19.4,0,0,0-2.52-5.23q-1.81-2.78-3.43-3c-.5-.08-1.15-.15-2-.21s-1.58-.09-2.27-.09h-5.44V68.12h3.48a7.31,7.31,0,0,0,2.56-.41,4.39,4.39,0,0,0,1.93-1.44,8,8,0,0,0,1.19-2.48,13.79,13.79,0,0,0,.7-3H443V78.56h-1.88a13.08,13.08,0,0,0-.76-3.26,10.44,10.44,0,0,0-1.13-2.54,4.34,4.34,0,0,0-1.83-1.42,7.08,7.08,0,0,0-2.66-.46h-3.48v14a4.6,4.6,0,0,0,.33,1.83,2.67,2.67,0,0,0,1.27,1.23,7.31,7.31,0,0,0,1.5.49,18.21,18.21,0,0,0,1.88.35v2.32H417.4V88.76l1.9-.26a5.74,5.74,0,0,0,1.65-.4,2.41,2.41,0,0,0,1.23-1.16,4.39,4.39,0,0,0,.35-1.9V55.27a4.55,4.55,0,0,0-.31-1.77A2.51,2.51,0,0,0,421,52.24a9.09,9.09,0,0,0-1.82-.66c-.76-.2-1.33-.33-1.73-.39V48.87h31.43Z" transform="translate(-57.05 -26.05)"/><path class="cls-1" d="M467.11,91.08H451.58v-2l1.25-.13a5,5,0,0,0,1.08-.27,2,2,0,0,0,1.08-.93,3.81,3.81,0,0,0,.29-1.6V56.35a4.61,4.61,0,0,0-.39-1.9,3,3,0,0,0-1-1.33,5.54,5.54,0,0,0-1.49-.68,7.51,7.51,0,0,0-1.76-.37v-2L463,49.4l.37.43v36a3.41,3.41,0,0,0,.33,1.61,2.19,2.19,0,0,0,1,1,10.78,10.78,0,0,0,1,.43,5.41,5.41,0,0,0,1.29.27Z" transform="translate(-57.05 -26.05)"/><path class="cls-1" d="M491.41,67.55A12.47,12.47,0,0,1,494.2,72a16,16,0,0,1,1,5.6,16.7,16.7,0,0,1-1,5.64,12.29,12.29,0,0,1-2.78,4.53,13,13,0,0,1-4.64,3.1,16.54,16.54,0,0,1-6.18,1.08,15.66,15.66,0,0,1-5.53-1,12.75,12.75,0,0,1-4.48-2.82,13,13,0,0,1-3-4.46,15.58,15.58,0,0,1-1.08-5.93,16.27,16.27,0,0,1,.95-5.75,12.86,12.86,0,0,1,2.85-4.48,12.22,12.22,0,0,1,4.5-2.92,18,18,0,0,1,12.05,0A12.92,12.92,0,0,1,491.41,67.55ZM485.1,86.2a16.69,16.69,0,0,0,.8-3.66,42.92,42.92,0,0,0,.26-5,41.41,41.41,0,0,0-.25-4.3,16.94,16.94,0,0,0-.74-3.83,6.32,6.32,0,0,0-1.64-2.66,3.73,3.73,0,0,0-2.65-1,3.79,3.79,0,0,0-2.8,1,7.08,7.08,0,0,0-1.61,2.72,16.26,16.26,0,0,0-.72,3.59c-.13,1.38-.19,2.81-.19,4.3,0,1.95.06,3.57.17,4.86a16.3,16.3,0,0,0,.84,3.86,6.22,6.22,0,0,0,1.63,2.64,3.84,3.84,0,0,0,2.68,1,3.74,3.74,0,0,0,2.54-.91A6,6,0,0,0,485.1,86.2Z" transform="translate(-57.05 -26.05)"/><path class="cls-1" d="M519.7,69.3a5.78,5.78,0,0,1-1.16,3.59,3.64,3.64,0,0,1-3,1.55,4.75,4.75,0,0,1-3-1,3.53,3.53,0,0,1-1.24-2.93,6.92,6.92,0,0,1,.12-1.46c.08-.34.16-.67.22-1a5,5,0,0,0-2.39.86,8,8,0,0,0-2.22,2.13V85.85a3.9,3.9,0,0,0,.27,1.56,2,2,0,0,0,.92,1,5.73,5.73,0,0,0,1.76.5,16.66,16.66,0,0,0,1.76.23v2H495.15v-2l1.24-.15a6.18,6.18,0,0,0,1.08-.25,1.89,1.89,0,0,0,1.08-.92,3.7,3.7,0,0,0,.3-1.61V70.51a3.56,3.56,0,0,0-.42-1.74,3.86,3.86,0,0,0-1-1.22,3.71,3.71,0,0,0-1.13-.54,7.14,7.14,0,0,0-1.49-.3v-2l11.76-.7.37.4v3.9h.1A15.07,15.07,0,0,1,510.64,65a7.26,7.26,0,0,1,4-1.23,4.74,4.74,0,0,1,3.69,1.55A5.73,5.73,0,0,1,519.7,69.3Z" transform="translate(-57.05 -26.05)"/><path class="cls-1" d="M537,91.08H521.37v-2l1.26-.13a4.67,4.67,0,0,0,1.06-.27,2.17,2.17,0,0,0,1.11-.93,3.5,3.5,0,0,0,.32-1.6V70.51a3.32,3.32,0,0,0-.4-1.66,3.53,3.53,0,0,0-1-1.14,5.07,5.07,0,0,0-1.35-.62,8.29,8.29,0,0,0-1.64-.38v-2l12.08-.7.38.4V85.83a3.21,3.21,0,0,0,.37,1.6,2.27,2.27,0,0,0,1,1,9.17,9.17,0,0,0,1.09.43,6.27,6.27,0,0,0,1.23.27Zm-3.6-36.72a4.74,4.74,0,0,1-1.44,3.48,4.79,4.79,0,0,1-6.85,0,4.95,4.95,0,0,1,0-7,4.68,4.68,0,0,1,3.44-1.46,4.62,4.62,0,0,1,3.42,1.46A4.78,4.78,0,0,1,533.35,54.36Z" transform="translate(-57.05 -26.05)"/><path class="cls-1" d="M568.94,90.51l-12.16.78-.37-.38V88.44l-.17-.06A10.64,10.64,0,0,1,553,90.87a9,9,0,0,1-4.15,1.07,10.05,10.05,0,0,1-8.2-4,16.24,16.24,0,0,1-3.23-10.45A14.21,14.21,0,0,1,541,67.71a11.28,11.28,0,0,1,8.73-4.07,14.05,14.05,0,0,1,3.79.5,10.58,10.58,0,0,1,2.83,1.17v-8.8a4.66,4.66,0,0,0-.37-1.87,3.28,3.28,0,0,0-1-1.36,4.72,4.72,0,0,0-1.91-.85,18.46,18.46,0,0,0-2.31-.36v-2l13.34-.7.37.43v35.3a4.38,4.38,0,0,0,.3,1.72,2.41,2.41,0,0,0,1,1.1,4.15,4.15,0,0,0,1.5.43,15.88,15.88,0,0,0,1.64.16Zm-12.58-4.79V70.51a10.94,10.94,0,0,0-.48-1.38,5.63,5.63,0,0,0-.85-1.42,4.31,4.31,0,0,0-1.31-1,3.92,3.92,0,0,0-1.86-.43q-2.46,0-4,3t-1.58,8.59a24.39,24.39,0,0,0,.29,3.92,11.13,11.13,0,0,0,1,3.16,6.13,6.13,0,0,0,1.83,2.24,4.56,4.56,0,0,0,2.7.8,4.5,4.5,0,0,0,2.48-.63A7.52,7.52,0,0,0,556.36,85.72Z" transform="translate(-57.05 -26.05)"/><path class="cls-1" d="M597.66,90.51a18.58,18.58,0,0,1-2.56.94,11.06,11.06,0,0,1-3.13.43,8,8,0,0,1-4.45-1,4.86,4.86,0,0,1-1.94-2.81h-.15a16.52,16.52,0,0,1-1.62,1.56,8.77,8.77,0,0,1-1.67,1.1,9.7,9.7,0,0,1-5.23,1.19A7,7,0,0,1,572,90.09a6.3,6.3,0,0,1-2-4.89,8.66,8.66,0,0,1,.45-3,7,7,0,0,1,1.26-2.17,6.52,6.52,0,0,1,1.71-1.43,17.76,17.76,0,0,1,2.14-1.05c1.48-.6,3.26-1.21,5.33-1.85A29.14,29.14,0,0,0,585.43,74V71.42c0-.45,0-1-.1-1.77a6.39,6.39,0,0,0-.42-1.86,3.48,3.48,0,0,0-1.09-1.46,3,3,0,0,0-1.94-.59,4.25,4.25,0,0,0-1.82.34,5.64,5.64,0,0,0-1.17.69,11.89,11.89,0,0,0,.42,1.64,7.07,7.07,0,0,1,.35,2.12,4.15,4.15,0,0,1-.22,1.15,2.6,2.6,0,0,1-.65,1.09,4,4,0,0,1-1.27.83,5.84,5.84,0,0,1-2.16.3,4.16,4.16,0,0,1-3.14-1.09,4.09,4.09,0,0,1,0-5.55,9.08,9.08,0,0,1,2.67-2A14.62,14.62,0,0,1,578.5,64a18,18,0,0,1,3.75-.44,28.43,28.43,0,0,1,4.39.31,9.61,9.61,0,0,1,3.6,1.28,6.66,6.66,0,0,1,2.42,2.73,10.41,10.41,0,0,1,.9,4.67c0,2,0,4.43-.11,7.22s-.11,4.61-.11,5.49a4.58,4.58,0,0,0,.33,1.91,2.33,2.33,0,0,0,1,1,3.34,3.34,0,0,0,1.32.25c.6,0,1.14,0,1.64,0Zm-12.23-14c-.93.35-1.84.74-2.75,1.18a10.25,10.25,0,0,0-2.22,1.39A5,5,0,0,0,579,81a6.7,6.7,0,0,0-.52,2.76,4.36,4.36,0,0,0,.88,3.05,2.82,2.82,0,0,0,2.16.95,3.87,3.87,0,0,0,2.24-.61,6.48,6.48,0,0,0,1.55-1.5Z" transform="translate(-57.05 -26.05)"/><path class="cls-2" d="M215.15,112.89a6.61,6.61,0,0,0-1.38-1.13,12.9,12.9,0,0,0-1.61-.85c-.59-.27-1.22-.53-1.88-.78a19.82,19.82,0,0,1-1.93-.84,4.16,4.16,0,0,1-1.62-1.32,3.53,3.53,0,0,1-.54-2A2.52,2.52,0,0,1,207,104a2.88,2.88,0,0,1,2-.79,3.88,3.88,0,0,1,2,.45,4.34,4.34,0,0,1,1.36,1.24,7.7,7.7,0,0,1,.94,1.83c.25.68.47,1.41.67,2.17l0,.18h1.55v-.25l-.11-6.65V102H214l-.07.13-.43.73a13,13,0,0,0-1.75-.87,6.74,6.74,0,0,0-2.49-.44,6.66,6.66,0,0,0-2.35.43,6,6,0,0,0-2,1.2,5.73,5.73,0,0,0-1.34,1.85,5.26,5.26,0,0,0-.48,2.23,5.57,5.57,0,0,0,1,3.38,6.77,6.77,0,0,0,2.64,2.07c.58.28,1.25.56,2,.85s1.44.56,2,.8a3.83,3.83,0,0,1,1.84,1.48,3.9,3.9,0,0,1,.62,2.11,4.35,4.35,0,0,1-.2,1.37,2.8,2.8,0,0,1-.6,1,2.54,2.54,0,0,1-1,.65,4.57,4.57,0,0,1-1.56.24,4.44,4.44,0,0,1-2.09-.46,5.28,5.28,0,0,1-1.59-1.27,8.07,8.07,0,0,1-1.17-1.86,15.48,15.48,0,0,1-.79-2.25l-.05-.19h-1.55v.26l.19,6.86v.25h1.49l.07-.13.46-.81a10.4,10.4,0,0,0,2.07.9,8.63,8.63,0,0,0,2.68.43,7,7,0,0,0,4.88-1.79,5.93,5.93,0,0,0,2-4.56,6.08,6.08,0,0,0-.31-2A5.08,5.08,0,0,0,215.15,112.89Z" transform="translate(-57.05 -26.05)"/><path class="cls-2" d="M231.37,102h-.25v5.94h1.4l0-.19a8.48,8.48,0,0,1,.42-1.14,8.68,8.68,0,0,1,.71-1.31,6.87,6.87,0,0,1,.86-1.1,1.45,1.45,0,0,1,.79-.49c.38,0,.78-.07,1.18-.09l1,0h.55v15.91a1.47,1.47,0,0,1-.18.79,1,1,0,0,1-.54.43,3.77,3.77,0,0,1-1,.2l-1.16.11-.23,0v1.48h9.65V121h-.24a7.4,7.4,0,0,1-1.18-.18,6.22,6.22,0,0,1-1-.26,1,1,0,0,1-.54-.48,1.61,1.61,0,0,1-.16-.74V103.56h.54l1.18,0c.42,0,.77,0,1.05.08a1.58,1.58,0,0,1,.79.49,6.36,6.36,0,0,1,.86,1.09,11.46,11.46,0,0,1,.71,1.3,6.83,6.83,0,0,1,.43,1.16l0,.19h1.39V102H231.37Z" transform="translate(-57.05 -26.05)"/><path class="cls-2" d="M281.31,120.86a2.43,2.43,0,0,1-.75-.3,2.89,2.89,0,0,1-.67-.61,3.44,3.44,0,0,1-.43-.82L273,101.84l-.06-.16H271.5l-.06.16-1.35,3.6-1.79,4.77c-1.14,3.05-2.23,5.9-3.23,8.48a5.47,5.47,0,0,1-.55,1.09,3.56,3.56,0,0,1-.79.74,2.65,2.65,0,0,1-.79.32,5.29,5.29,0,0,1-.85.16l-.23,0v1.48h7.8V121h-.24a6.83,6.83,0,0,1-1.86-.35c-.7-.25-.7-.55-.7-.64a3.66,3.66,0,0,1,.06-.58c.05-.25.13-.58.24-1s.27-.86.43-1.35.32-.94.56-1.55h6.46l1.55,4.32a1.91,1.91,0,0,1,.07.28c0,.11,0,.2,0,.27s-.09.16-.53.29A8.4,8.4,0,0,1,274,121l-.23,0v1.48h8.56V121h-.24A4.13,4.13,0,0,1,281.31,120.86Zm-7.39-7h-5.11l2.54-6.81Z" transform="translate(-57.05 -26.05)"/><path class="cls-2" d="M295.84,102h-.25v5.94H297l.05-.19a8.48,8.48,0,0,1,.42-1.14,9.68,9.68,0,0,1,.71-1.31,6.87,6.87,0,0,1,.86-1.1,1.45,1.45,0,0,1,.79-.49c.38,0,.78-.07,1.18-.09l1,0h.55v15.91a1.47,1.47,0,0,1-.18.79,1,1,0,0,1-.54.43,3.77,3.77,0,0,1-1,.2l-1.16.11-.23,0v1.48h9.65V121h-.24a7.4,7.4,0,0,1-1.18-.18,6.61,6.61,0,0,1-1-.26,1,1,0,0,1-.54-.47,1.68,1.68,0,0,1-.16-.75V103.56h.54l1.18,0c.42,0,.77,0,1,.08a1.58,1.58,0,0,1,.79.49,6.4,6.4,0,0,1,.87,1.09,11.42,11.42,0,0,1,.7,1.3,6.26,6.26,0,0,1,.43,1.16l.05.19H313V102H295.84Z" transform="translate(-57.05 -26.05)"/><path class="cls-2" d="M343.8,116.1h-.19l-.05.18a13.29,13.29,0,0,1-.87,2,9.16,9.16,0,0,1-1.27,2,1.54,1.54,0,0,1-.67.33,7.28,7.28,0,0,1-1,.2c-.32,0-.73,0-1.21,0h-1.19a14.93,14.93,0,0,1-1.72-.07,1.85,1.85,0,0,1-.85-.3,1.06,1.06,0,0,1-.39-.65,6.87,6.87,0,0,1-.11-1.36V112.7h1.93a4.55,4.55,0,0,1,1.36.16,1.75,1.75,0,0,1,.84.63,4,4,0,0,1,.46,1,6.15,6.15,0,0,1,.28,1.38l0,.23h1.5v-8.35h-1.49l0,.22a8.06,8.06,0,0,1-.27,1.25,3.4,3.4,0,0,1-.48,1,1.82,1.82,0,0,1-.75.61,4.11,4.11,0,0,1-1.44.18h-1.93v-7.46H337c.5,0,.94,0,1.33,0a9,9,0,0,1,1,.08,2.65,2.65,0,0,1,1.56,1.22,6.16,6.16,0,0,1,1.14,2.19l.05.19h1.47V102h-15.5v1.49h.23a8.56,8.56,0,0,1,.95.17,4.54,4.54,0,0,1,.94.3,1,1,0,0,1,.51.46,2.07,2.07,0,0,1,.13.73v14.41a1.57,1.57,0,0,1-.15.74,1,1,0,0,1-.49.44,3.09,3.09,0,0,1-.81.17q-.67.09-1.08.12l-.23,0v1.48h16.58v-.23l.37-5.91,0-.26H343.8Z" transform="translate(-57.05 -26.05)"/><path class="cls-2" d="M400.6,116.46l-.25-.12-.1.26a7,7,0,0,1-.82,1.67,7.27,7.27,0,0,1-1.15,1.37,5.31,5.31,0,0,1-3.48,1.24,5.08,5.08,0,0,1-2.55-.64,6.54,6.54,0,0,1-2-1.81,8.91,8.91,0,0,1-1.3-2.74,12.12,12.12,0,0,1-.46-3.46,16,16,0,0,1,.44-3.88,8.71,8.71,0,0,1,1.21-2.83A5.47,5.47,0,0,1,392,103.8a5,5,0,0,1,2.35-.58,3.66,3.66,0,0,1,1.93.51,4.87,4.87,0,0,1,1.47,1.43,8.56,8.56,0,0,1,1,2,16.79,16.79,0,0,1,.65,2.24l0,.2h1.58v-.26l-.12-7.14V102h-1.48l-.07.13-.43.74a9.94,9.94,0,0,0-2.05-.93,8.92,8.92,0,0,0-2.67-.38,9,9,0,0,0-3.72.79,8.93,8.93,0,0,0-3,2.22,10.62,10.62,0,0,0-2,3.45,12.86,12.86,0,0,0-.73,4.45,12.51,12.51,0,0,0,.74,4.41,10.34,10.34,0,0,0,2,3.32,8.8,8.8,0,0,0,2.9,2.09,8.29,8.29,0,0,0,3.43.73,8.43,8.43,0,0,0,4.75-1.32,9,9,0,0,0,3.21-4.37l.08-.22-.2-.1Z" transform="translate(-57.05 -26.05)"/><path class="cls-2" d="M433.26,104.41a9.08,9.08,0,0,0-3-2.16,9.31,9.31,0,0,0-3.74-.77,9.2,9.2,0,0,0-6.73,2.93,10.63,10.63,0,0,0-2.09,3.4,12.34,12.34,0,0,0-.75,4.44,12.57,12.57,0,0,0,.72,4.28,10.26,10.26,0,0,0,2,3.4,8.83,8.83,0,0,0,3,2.24,9.19,9.19,0,0,0,10.55-2.09,10.19,10.19,0,0,0,2.11-3.4,12.48,12.48,0,0,0,.75-4.43,12.63,12.63,0,0,0-.74-4.41A10.16,10.16,0,0,0,433.26,104.41Zm-6.77,16.81a4.75,4.75,0,0,1-2.55-.66,5.33,5.33,0,0,1-1.77-1.85,9.28,9.28,0,0,1-1.09-2.84,16.59,16.59,0,0,1-.35-3.62,17.48,17.48,0,0,1,.33-3.45,10,10,0,0,1,1-2.84,5.83,5.83,0,0,1,1.79-2,4.69,4.69,0,0,1,2.65-.73,4.78,4.78,0,0,1,2.47.63,5.49,5.49,0,0,1,1.8,1.79,9.43,9.43,0,0,1,1.11,2.86,17.32,17.32,0,0,1,.38,3.73,17,17,0,0,1-.34,3.58,9.3,9.3,0,0,1-1.08,2.83,5.19,5.19,0,0,1-1.83,1.89A4.74,4.74,0,0,1,426.49,121.22Z" transform="translate(-57.05 -26.05)"/><path class="cls-2" d="M467,116h-.18l-.06.17a13.4,13.4,0,0,1-1,2.1,12.53,12.53,0,0,1-1.28,1.93,1.14,1.14,0,0,1-.49.3,5.15,5.15,0,0,1-.84.22,7.43,7.43,0,0,1-1,.11l-1,0a12.62,12.62,0,0,1-1.71-.08,1.71,1.71,0,0,1-.81-.27,1,1,0,0,1-.32-.65,8.31,8.31,0,0,1-.09-1.41V105a2,2,0,0,1,.15-.78.8.8,0,0,1,.49-.44,5.57,5.57,0,0,1,.85-.22,6.4,6.4,0,0,1,.95-.14h.24V102h-8.69v1.48l.23,0a5.16,5.16,0,0,1,.89.18,4.25,4.25,0,0,1,.83.32,1,1,0,0,1,.51.47,1.89,1.89,0,0,1,.14.75v14.35a1.59,1.59,0,0,1-.16.78.9.9,0,0,1-.47.43,2.93,2.93,0,0,1-.8.16l-.94.1-.23,0v1.48h15.64l0-.23.41-6V116H467Z" transform="translate(-57.05 -26.05)"/><path class="cls-2" d="M498.11,116h-.18l-.06.17a13.46,13.46,0,0,1-1,2.1,11.6,11.6,0,0,1-1.28,1.93,1.08,1.08,0,0,1-.49.3,5.15,5.15,0,0,1-.84.22,7.43,7.43,0,0,1-1,.11l-1,0a12.78,12.78,0,0,1-1.72-.08,1.71,1.71,0,0,1-.81-.27,1.11,1.11,0,0,1-.32-.65,8.39,8.39,0,0,1-.09-1.41V105a2,2,0,0,1,.15-.78.8.8,0,0,1,.49-.44,5.57,5.57,0,0,1,.85-.22,6.59,6.59,0,0,1,.95-.14H492V102h-8.69v1.48l.24,0a5.27,5.27,0,0,1,.88.18,4.25,4.25,0,0,1,.83.32,1,1,0,0,1,.51.47,1.89,1.89,0,0,1,.14.75v14.35a1.72,1.72,0,0,1-.15.78,1,1,0,0,1-.48.43,2.92,2.92,0,0,1-.79.16l-.95.1-.23,0v1.48H498.9l0-.23.41-6,0-.27h-1.24Z" transform="translate(-57.05 -26.05)"/><path class="cls-2" d="M529.91,116.1h-.18l-.06.18a13.89,13.89,0,0,1-.86,2,8.78,8.78,0,0,1-1.28,2,1.48,1.48,0,0,1-.67.33,7.16,7.16,0,0,1-1,.2c-.33,0-.73,0-1.22,0h-1.19a14.62,14.62,0,0,1-1.71-.07,1.85,1.85,0,0,1-.86-.3,1.08,1.08,0,0,1-.38-.65,6,6,0,0,1-.12-1.36V112.7h1.94a4.48,4.48,0,0,1,1.35.16,1.71,1.71,0,0,1,.84.63,3.53,3.53,0,0,1,.46,1,6.15,6.15,0,0,1,.28,1.38l0,.23h1.51v-8.35h-1.5l0,.22a6,6,0,0,1-.27,1.24,3.47,3.47,0,0,1-.47,1,1.88,1.88,0,0,1-.75.61,4.15,4.15,0,0,1-1.44.18h-1.94v-7.46h2.8c.51,0,1,0,1.33,0a9.24,9.24,0,0,1,1,.08,2.68,2.68,0,0,1,1.56,1.22,6.41,6.41,0,0,1,1.14,2.19l.05.19h1.46V102h-15.5v1.49h.23a8.65,8.65,0,0,1,1,.17,4.62,4.62,0,0,1,.93.3,1,1,0,0,1,.51.46,1.86,1.86,0,0,1,.13.73v14.41a1.74,1.74,0,0,1-.14.74,1,1,0,0,1-.5.44,3,3,0,0,1-.81.17q-.68.09-1.08.12l-.23,0v1.48h16.58l0-.23.37-5.91v-.26h-1.25Z" transform="translate(-57.05 -26.05)"/><path class="cls-2" d="M557.33,113h-.25v1.51l.23,0c.31,0,.72.06,1.19.13a4.29,4.29,0,0,1,1.16.3.84.84,0,0,1,.52.52,3.2,3.2,0,0,1,.14,1v1.1c0,.35,0,.77,0,1.27a10.27,10.27,0,0,1-.1,1.37,3.9,3.9,0,0,1-1.25.69,5.91,5.91,0,0,1-2.11.36,5.63,5.63,0,0,1-2.77-.68,6.14,6.14,0,0,1-2-1.9,9.07,9.07,0,0,1-1.26-2.85,13.88,13.88,0,0,1-.44-3.53,15.24,15.24,0,0,1,.45-3.85,8.7,8.7,0,0,1,1.24-2.85,5.49,5.49,0,0,1,1.92-1.75,5.18,5.18,0,0,1,2.49-.59,4.47,4.47,0,0,1,2.18.5,4.83,4.83,0,0,1,1.56,1.35,8.14,8.14,0,0,1,1.06,2,19.55,19.55,0,0,1,.7,2.26l0,.19h1.57v-.26l-.12-7V102H562l-.07.13-.44.74a10.19,10.19,0,0,0-2-.88,9.06,9.06,0,0,0-2.94-.43,9.76,9.76,0,0,0-3.95.81,9.33,9.33,0,0,0-3.18,2.26,10.4,10.4,0,0,0-2.12,3.48,12.46,12.46,0,0,0-.75,4.33,11.83,11.83,0,0,0,.79,4.39,10.33,10.33,0,0,0,2.11,3.35,9.36,9.36,0,0,0,3.09,2.1,9.52,9.52,0,0,0,3.68.74,14.51,14.51,0,0,0,3.6-.46,20.76,20.76,0,0,0,3.67-1.31l.15-.08V121c0-.25,0-.57,0-1s0-1.11,0-2.28v-1.56a2,2,0,0,1,.15-.81,1,1,0,0,1,.47-.47,3.11,3.11,0,0,1,.82-.24l.88-.14.21,0V113h-8.75Z" transform="translate(-57.05 -26.05)"/><path class="cls-2" d="M597.86,116.1h-1.17l-.06.18a13.89,13.89,0,0,1-.86,2,8.78,8.78,0,0,1-1.28,2,1.48,1.48,0,0,1-.67.33,7.16,7.16,0,0,1-1,.2c-.33,0-.73,0-1.22,0h-1.19a14.62,14.62,0,0,1-1.71-.07,1.85,1.85,0,0,1-.86-.3,1.08,1.08,0,0,1-.38-.65,6,6,0,0,1-.12-1.36V112.7h1.94a4.48,4.48,0,0,1,1.35.16,1.71,1.71,0,0,1,.84.63,3.68,3.68,0,0,1,.46,1,6.15,6.15,0,0,1,.28,1.38l0,.23h1.51v-8.35h-1.5l0,.22a6,6,0,0,1-.27,1.24,3.24,3.24,0,0,1-.47,1,2,2,0,0,1-.75.61,4.15,4.15,0,0,1-1.44.18h-1.94v-7.46h2.8q.76,0,1.32,0a9.22,9.22,0,0,1,1,.08,2.68,2.68,0,0,1,1.56,1.22,6.5,6.5,0,0,1,1.14,2.19l0,.19h1.48V102H581.14v1.48l.23,0a8.27,8.27,0,0,1,1,.17,4.42,4.42,0,0,1,.93.3,1,1,0,0,1,.51.46,1.83,1.83,0,0,1,.13.73v14.41a1.71,1.71,0,0,1-.14.74,1,1,0,0,1-.5.44,3,3,0,0,1-.81.17l-1.07.12-.24,0v1.48h16.58l0-.23.37-5.91v-.26Z" transform="translate(-57.05 -26.05)"/><polygon class="cls-3" points="59.63 59.7 61.25 59.58 49.17 48.45 59.63 59.7"/><polygon class="cls-3" points="68.25 58.8 67.81 58.14 67.9 59.17 68.25 58.8"/><polygon class="cls-3" points="61.68 58.13 61.67 58.28 61.56 59.8 62.39 60.62 64.49 62.7 64.57 62.77 64.64 62.85 64.64 62.7 64.64 62.66 64.62 60.49 64.62 60.31 64.62 60.16 64.57 52.78 64.44 52.58 64.39 52.42 64.28 52.21 64.23 52.12 64.14 51.86 64.09 51.78 63.98 51.57 63.93 51.45 63.74 51.03 63.52 50.62 63.52 50.57 63.42 50.4 63.38 50.29 63.31 50.16 63.25 50 63.22 49.91 63.15 49.83 62.61 48.51 62.44 48.21 62.4 48.11 61.69 57.98 61.68 58.13"/><polygon class="cls-3" points="68.32 66.08 70.91 68.46 70.88 68.28 70.83 67.86 70.83 67.7 70.83 67.45 70.88 67.29 70.88 67.02 70.88 67 69.9 65.95 68.32 66.08"/><polygon class="cls-3" points="64.65 64.92 64.66 65.09 64.66 65.25 64.93 105.13 67.63 67.44 67.64 67.29 67.65 67.15 67.74 65.89 64.65 62.85 64.65 62.85 64.64 62.85 64.65 64.92"/><polygon class="cls-3" points="64.79 62.69 64.72 62.77 64.65 62.84 64.65 62.85 64.8 62.85 67 62.83 67.17 62.83 67.34 62.83 71.06 62.8 71.03 62.78 70.67 62.32 70.54 62.09 70 61.38 69.7 60.97 69.54 60.76 69.05 60.04 68.97 59.98 68.87 59.85 67.69 59.77 64.79 62.69"/><polygon class="cls-3" points="50.36 78.13 61.51 67.82 61.38 66.22 50.36 78.13"/><polygon class="cls-3" points="59.95 65.81 60.09 65.81 61.6 65.92 62.41 65.11 64.64 62.85 64.5 62.85 62.43 62.85 62.28 62.87 62.11 62.87 38.4 63.02 38.41 63.13 38.24 63.43 38.46 63.67 38.41 63.95 38.41 64 38.41 64.1 38.39 64.27 59.79 65.8 59.95 65.81"/><polygon class="cls-4" points="11.48 39.35 11.48 39.64 11.81 39.5 11.81 39.44 11.81 39.26 11.7 39.04 11.56 39.04 11.49 38.99 11.57 39.35 11.48 39.35"/><polygon class="cls-4" points="11.57 39.35 11.49 38.99 11.48 39.35 11.57 39.35"/><path class="cls-2" d="M138,122l0-.57,0-.21,0-.11h0v-.4l-.06-.35-.13-.36-.09-.43-.13-.43,0-.16-.09-.33-.05-.21-.05-.1,0-.22-.08,0v-.15l-.08-.32L137,117l0-.28-.36-.74,0-.16-.05,0-.11-.21-.1-.22-.11-.14,0-.1V115l-.21-.46-.17-.33,0,0,.08,0-.12-.3,0-.16-.16-.26,0-.12-.32-.54v-.07l0,0-.05-.15-.52-1.08-.11-.31-.34-.65-.2-.73-.32-.94-.21-.51h-.09l-.21-.41-.16-.57,0-.18-.09-.54h-.1v-.06l-.13-.19-.06-.05-.05-.12,0-.1v-.25h-.06v-.08l-.05-.15-.06-.12-.05-.19,0-.15-.08-.19-.08-.35-.06-.05-.11-.3,0-.17,0-.14-.11-.21-.07-.07-.39-.87h0l-.42-.81-1-1.86-.05-.06-.06,0v-.08l-.29-.61-.11-.25-.05-.13L129,98.7l0-.11-.05-.15,0-.11-.11-.25-.1-.24v-.06l-.11-.34-.14-.46v-.11l-.08-.13v-.11l0-.08-.05-.17v-.1l0-.16-.06-.11v-.14l-.05-.11v-.05l-.16-.83v-.25l0-.12-2.58-2.37L127,92l1,1V93l0-.1v-.16l.05-.2v0l.06-.16,0-.1v-.06l.05-.05.16-.25.2-.21.37-.21.2,0v-.15l-.2-.31-.11-.32-.29-.61-.14-.57v-.06l-.13-.37-.14-.15-3.71,0h-.34l-2.2,0h-.15l3.09,3-.09,1.26v.3L122,131.18l-.27-39.87V88.9l-2.23,2.26-.81.82-1.51-.11h-.3L95.43,90.32v.19l0,0-.11.25-.07.07,0,.14v.37l0,0h.07v.21l-.07,0,0,.29V92l-.16.14.12.27-.07.16-.09.09-.19.16-.07.15,0,.15v.62l-.08.1,0,.18-.07.11v0l0,0-.21.33-.06.4.06.16-.06.11v0l-.1.3,0,.11-.06,0-.09.05,0,.06-.08.1v.49l-.09.14v0l-.05,0-.16.16-.19.19L93.3,97l0,.16v0l-.08.32.17.05h.11l0,.16h0l0,.25v.08l0,.25v.08l0,.5v.39l0,.07,0,.27,0,.09v.48l-.08.16v.09l-.09.46v.11l0,.1-.23.41v.05l0,.13-.07.08,0,.16h-.13v0l.13-.37v-.09l.1-.37v0l-.1-.06-.17.48,0,.2-.05.26,0,.2v.5l0,.17V103l.05.07,0,.09,0,.14.16.26.16.14.21.18.17.14.08.06,0,0,.05.1.2.26.08.1.08.3.11.16h0l.1.11.06.1.07.11,0,.17v1.58l0,0,.07.1.39-.18.12-.28-.16-.1,0,0-.07,0-.11-.27,0-.1.11-.41,0-.11h.3l.26,0v-.23h.11l.16.15h.27l.08-.07.11-.11.06-.2,0-.08v-.34l0-.16v0l0-.25v-.05l0-.09.07-.1.06-.06.08-.21h.06l.1-.16.22-.16-.06-.14v-.19l-.11-.17,0-.26h.51l0-.17v-.29l-.68.21-.33-.32V102l0-.1h-.65l-.22-.11-.12-.1,0-.06h-.19l-.07-.05-.14-.09v-.11l-.07-.12v0l.07-.11,0,0h.11l1-.17.44,0,.49-.07.46.07h.1l0,.09.16.21.05.09.06.16v.07l.05.14V102l-.05.11-.11.08v.06l.05.11.16.1,0,.16-.05,0-.06.06H97.3V103l.27.16.42.19.34.11h.26l.08-.36-.08-.1-.14-.11-.12-.16v-.56l0-.25v-.21l.2-.15.2.15h.06v.15l.07.06h.08l.2.1h.42l.16.36.09.51V103l0,.1v.17l-.1.33-.14.07-.13.09v.21h0l-.19.32v0l0,0v.05h0v.06l-.07.05h0l-.28.14-.27.12-.11.09.11.11v.23l-.06.08h-.2l-.31.23-.37.58-.25.53-.07.1-.13.41-.07.16-.19.18-.2.08-.28.16V108l-.29.38-.09.14-.13.14v.07l0,.15h-.21l-.22,0-.11.13-.07.06v.22h-.35l0,0,0-.24v-.18l-.14-.11-.21,0-.18-.1h-.07l.07.1.07.11.07.09h0l.1.13.08,0,.1.21,0,0v.07l0,.11v0l.07.1,0,.11v.05l.2.46v0l0,.13.3.19.27.3.27.32.3.51.08.11.32.35.16.18.19.28.11.15v.38h.06l0,.08.07.06.06.06.19.1.08.16v0l.14.21.29.57.2.32,0,.14.38.67.07.51h.08l0,.08,0,.19,0,.1.06.2h0v.1l.1.27.43.71.3.62.41.72.1.11.31.55.16.16V120l0,0,.62.9.19.24.18.32.14.35,0,.08,0,.54v.06l.06.51,0,0,.14-.59.11-.32.16-.22.21.22h.66l.1-.14.36-.08.05-.08-.19-1.13-.27-.81,0-.33.1-.15h.05l.08-.06h.39l.21-.35.1-.14h0l.11-.06h.53l.17.09v.37l0,0h-.25l-.12.11,0,.26v.25l0,.1.37.11.1.05.06,0v1l0,.21v.16l-.11.2.06.24-.06.11v.21l-.07.25-.14.39,0,.06-.07.27,0,.32-.07.31v0l0,.05h-.09l0-.05h-.08v0l-.21-.36,0-.11v0h-.07l0-.07h-.16l-.21-.06-.14.06h-.22v.07h0l0,0v.33l.4.37.06,0,.05.06,0,0,.06.12.1.09.06.21v.09l.08.32v.11l.07.1v.09l0,.11v.11l0,0v.21l.16.35.08.43v.23l0,.21v.13h.14l.18-.06h.09l.08-.12.07-.16.06-.2.1,0,.27-.07.3.1.16.11h.11v.09l-.07.16.07.18.19-.06.24.09.22,0v.16l0,.05,0,.07,0,.1.15,0,.32.16.21.17.19.15,0,.06.11.13v.06l.16.19.09.08v0l.34.26v.11l.08.14,0,.18,0,0,.18.41,0,0,.21.57v.18l.06.08.09.46v.11l0,.21v.09l.07.37v.09l.06.37v.2l0,.16.06.21v0l.05.27v.11l.1.65v.1l.09.17.57,1.22v.07l.1.09h.06l0,.05,0,.06v.61l.06.14v.06l.1.12.09.19.11.38v0l.16.12.1,0,.35.76v.05h.08l0,.08v0h.11l.1-.19,0-.18V138l.08-.21.14-.15.17,0H113l.16,0,.46,0h.1l.62-.2h.41l0,.08v.17l0,.06.11-.06.25-.05h.21l0,.11.2.21.26.11.2-.06.12,0,.09,0,.37.27h0l0,.16.07,0,.41.27h0l.09,0,0,.11.08.21.07.16,0,.14,0,.11-.32.18,0,.09,0,.08.15.11.07.16v.48l.14.09.09-.06.69.52.19.4.16.11.25.35.21.43v.27l.16.24v.21l.09.25.26.22.11.13,0,.08-.1.33v.23l.32.36.21.14.16.23.41,1v.08l0,.1v.2l.13.08h.19l.06.16.16.3,0,.18-.06.14-.19-.11-.11.08-.1.13,0,.15,0,.12,0,.25-.11.1v0l-.06.13v0l0,.26v.28l-.08.1v.55l.08,0,.21.16.13.32,0,.14.08.35.08.11.27.1.11.11.3.32.27.14,0,0,.41-.18h.46l.23.07h.12l.48-.23h.46l.41-.12.26,0,0-.15,0-.09v-.17l.41-.26h.25l.2,0,.18,0,.08.1,0,.08.07.08.14-.08.32-.18.63.1.08.08.13.14v.11l0,.09.26-.06H128l.11.06.21,0v-.13l.08-.22.14-.11.08,0h.21l.14-.06h.22v0l.05-.08,0,0h.35l.17-.11.11-.11.15-.1.15-.16-.06-.11,0-.3.32-.26h.35l.1.16v.19h.22l.1,0h0l.11,0,.1.18.14.14h.07l.11-.14.08-.18.22-.28.11-.07.27-.23.08-.13.32-.13.49-.48.06-.27.16-.28h.05l.06-.11.1-.07.11,0,.25-.15.07-.06.27-.46.08-.14v-.07l0-.16,0-.11h-.16l-.14-.09v-.46l.09-.24-.11-.13,0-.1v0l-.13-.17v-.11h0v-.46l-.06,0v0L134,144l.11-.46v-.1h.07v0h0l.16-.08v0l.08-.38.08-.1v0l-.08-.09v-.48l.08-.16v-.09l0-.16.14-.1v0l.13-.08.05,0,.16-.27v0l0-.07.23-.55v-.08l0-.25v0l.06-.17,0-.13h.07v-.08l0,0,.07,0h.09l.16-.09.26-.11.2-.07.05.07.16.11.09.12.08.13-.12.19v0l0,.1-.05.25v.08l.05.09.25.26h0l0-.22,0-.1,0-.36v-.1l.08-.32,0-.17v-.11l0-.1.07-.08,0-.1v-.09l.07-.06V139l.05-.06-.05-.15v-.14l.05-.05v-.28l0-.08v-1l0-.07v-.39l0-.07v-.67l0-.36v-1.23l0-.46v-.63l.08-.1V133l0-.54V132l.05-.28v-.27l.05-.09v-.57l.06-.26v0l0,0v-.11l0-.1.08-.73v-.56h0v-.46l.05-.51v-.68l0-.21v-.39l0-.27v0l.09-.54v0l.06-.61.07-.47v-1.4l-.07-.51.07-.4v-.27L138,122Zm-30.63-17.78,11-11.9.13,1.59Z" transform="translate(-57.05 -26.05)"/><path class="cls-2" d="M119.33,88.92h2.36l-.07-.07-.08-.07-2.1-2.09-.83-.81.11-1.52V84l.7-9.87-.32-.73-.05-.11-.09-.26-.11-.25-.16-.27-.24-.57-.21-.49-.09-.21-.23-.51-.11-.2-.09-.43,0-.12-.06,0v0l-.15-.41v0l-.08-.08v0l0-.09V69.2l-.2-.47-.19-.56-.07-.19v-.06l-.16-.56v-.75h0l0-.39-.11-.31-.15-.2-.05-.07-.06,0-.05-.16v-.06l-.16-.41-.09-.3-.4-1.75-.43-1.7-.2-.81-.21-.8-.09-.36v-.1l-.07-.11v0l-.06-.26v-.09l0-.11V58.4l0-.3v-.72l-.08-.32V57l-.14-.36,0-1.07-.27-.25h-.2l-.15-.1.1-.13.11-.23-.06-.21-.08-.37v-.92l0-.46v-.11l0-.06.06-.46v-.15l0-.41-.11-.05-.21-.16-.05,0-.16,0h-.19v-.06h0l-.16-.13-.07-.08-.12.08h-.18l-.11,0h-.1l-.12,0,0,0,0,.07v0l-.06.06H112l0-.06h-.26v0h-.06l-.05-.07h-.22l-.13,0h-.08l0-.08,0,.08,0,0v.07h0l-.11-.07v0l0-.08v0h-.11l-.05,0-.2.08-.05-.08h0V51l0-.06h-.08l0,0h-.06l-.07,0V51l0,0h0l-.21,0h0V51h-.06l-.21,0h-.3l-.07,0-.2-.21v-.11h-.08l-.08-.05-.1-.06h-.16v.06h0v.05h-.13l0-.05v-.06l0-.11-.11-.1h0l-.16-.08-.13.05h-.17l-.16,0h0l-.07,0-.06-.05-.09-.08-.21.08-.06-.08-.11-.09-.08,0-.08-.17V49.8l-.08,0,0-.06h-.1v.06l0,0h-.27l-.16,0,0-.06-.07,0,0-.06h-.11l-.14.15-.06,0v.35l-.1.26,0,.08-.06,0h0l-.11,0-.07-.08,0,0-.12-.09h-.24l-.09,0v.1l.09.17.11.19v.07l-.11.11-.16,0h-.08l-.06.06v.19l0,.08v.13l0,.06v.11l.06.2-.11.26-.11.24v.42l.06.06.1.05v.09h.06l-.06.11.06.07,0,0,.1.15,0,.17,0,.1v0h.15l0,0,0,.17.08.15v.15l0,.16v0l-.11.26,0,.3v.25l0,.11v.32l0,0v.34l0,.14h-.06v.16l0,.2v.05l-.11.11v0l.07.11v.11l-.07.11,0,0v.1l0,.11,0,.11,0,.19v.22l0,0v.08l-.11.08h0l-.16.07H104l-.17,0-.23,0,0-.07h-.08v-.05h-.35l-.06.05h-.26l-.2.11,0,.07,0-.07h-.11l-.16-.16-.06-.11-.1,0,0-.06-.11-.24-.07-.11-.11-.42v-.15l.07-.11v-.29l-.07-.06v0l.07-.16,0-.1v-.16l-.11-.14-.09-.11,0-.11-.11,0-.07-.08,0-.1v-.19l0-.11-.08-.06v-.15l.08-.15v0l.06-.11h.07l.06,0,.1-.06h0l-.51,0H101l-.43-.06-1.36,0-.67-.07h-.64l-1-.06h-.16l-.16,0H96l-1.57-.1h-.18l-2.78-.17-1,0-1.77-.11-1,0h-.31l-.25-.07h-.51l-1,0h-.21l-.6-.06h-.08l-.46,0h-.62l-.14-.06h-.88l-.81,0-.54-.08h-.46l-.71,0-.45,0h-.59l-1-.07-1,0H77l-.14-.07h-.54l-.38,0-2-.11h-.78L73,52.73h-.66l-.12,0h-.46l-1.83,1.55L69,55.57l-.87,1.75L62.9,67l-.59,1.62h.11l.43-.33.54-.4.16-.05.21.05.13-.05h0l.06,0v-.08l0-.09.11,0,.53-.37,0-.06.11-.1.41-.2.28-.16.11-.1.25-.14.4-.11.27,0,.36-.21.29-.06.09.27.18.11.14.09h.32l.21-.16V66.2l-.42,0,0-.48.25-.28h.56V65l0-.46v-.33l.09-.46.05,0,.21,0,.43-.11,0,.06.22.13h.15l.22,0,0-.15,0-.1-.08-.18,0-.12,0-.13.22-.09.1.06,0,.16.15.09H71v0h0l.09.07.21.18.22,0h.15l.25-.16.08-.07.13-.12.22.09.11-.09,0-.07h.18l.09.07h0l.12-.07,0-.06.1,0L73.2,63h.65l.3.09.16.22v0h0l.16.12.06.06,0,0h.08l.08.11.18.09.23.21.07,0-.07.08.07,0,.14.1.16,0,.16.11.16.09.2.13.46.21,0,0,.08.06,0,.07,0,0,0,.05.07,0,.27.06.19,0h.17l.18.18.28.13,0,.06.31.16.33.2h0l.43.2.08.11.21.22.11.14.06,0h0l.26.16.11.34.06,0,0,.17v0l.12.24.22.09.14.13.14.3.05.37v.11l-.05,0v.1l.05.12.07.05.2.16.14.3.18.19,0,.07.11.11.26,0,.06.06h0l.16.07,0,0,.11,0h0l.11.15v.15l.09.07.32.16,0,0h.1l.07,0H83l.31.14h0v0l0,.26,0,.17v0l.07.08,0,.46-.11.29v.33l.07.21v.13l0,.22v.51l.26.06.06.14.16.1h.21l.09.16.3.27H85l.06.11v.14l.19.35v0h.08l.29.11.14,0h.36l.07,0,.09.06.21.16v0l0,.05.17.25,0,.11v.34l.23.17.17.29v.33l0,0,0,.23v.16l.15.28h0l.09.08h.06l.1-.08h.06l.31.13v.09l.3.15.31.06.15.21.06.11-.21.54.15.38.2.21.07.16v.09l-.07.22v0l0,0,.2.11.07.32.27-.07.09,0h0L89.6,80V79.9l0-.11.32-.45.11,0h.06v0h0l.07.11h.09l.21,0h.71l.42.08h.47l.51.08.37.21-.07.28.16.27v.11l0,.08H92.9l-.22.13.09.41h.59v.13l0,.08.32.14.1.51-.1.37-.06.09.06.1.35,0,.06.39.1.23,0,.15.27.31.11,0,.11.27.1.2.23.11h.26l.21.22.06.06v.13l-.06.3.12.32-.12.08-.1.11.05.49v.15l.11.09v.16l-.06.24v.17l0,.21-.23.14.15.19,0,.18,0,.09,0,.11.16.16-.06,0-.1.49,0,.54,0,.16,23.71-.15Zm-2.65-3.16L106.22,74.51,118.3,85.63Z" transform="translate(-57.05 -26.05)"/><path class="cls-1" d="M176.21,90.75s0-.37,0-1.09c0-.36,0-.81,0-1.35s0-1.1-.08-1.7-.06-1.29-.14-2.07-.19-1.65-.3-2.57-.3-1.92-.5-3-.43-2.17-.77-3.32a55.49,55.49,0,0,0-6.93-15.88,56.84,56.84,0,0,0-15.63-16.24,58.23,58.23,0,0,0-11.48-6.1A56.14,56.14,0,0,0,126.84,34c-1.19-.17-2.4-.24-3.62-.36s-2.48-.14-3.64-.1l-2,0c-.65,0-1.22.08-1.83.11-1.2,0-2.47.22-3.72.36a55.19,55.19,0,0,0-7.53,1.52c-1.26.3-2.48.75-3.73,1.14s-2.47.88-3.67,1.43a58.13,58.13,0,0,0-25.72,85,59.18,59.18,0,0,0,25,21.66c1.22.6,2.51,1.06,3.75,1.58s2.54.93,3.83,1.29a59,59,0,0,0,7.77,1.79c1.3.18,2.6.4,3.9.48.65,0,1.3.13,1.94.16l1.94.08.94,0h1l2,0c1.26-.09,2.51-.13,3.76-.27a59.75,59.75,0,0,0,14.29-3.23,60.12,60.12,0,0,0,29.44-23,59.63,59.63,0,0,0,7.92-16.91A57.68,57.68,0,0,0,181,94.91c.15-1.39.14-2.47.18-3.19l0-.72Zm5,.25s0,2.13,0,2.86a6.42,6.42,0,0,1-.07,1.06,57.91,57.91,0,0,1-1.88,12,60.26,60.26,0,0,1-7.57,17.29,61.9,61.9,0,0,1-17,17.65,63.15,63.15,0,0,1-12.5,6.63,62.22,62.22,0,0,1-14.71,3.73c-1.3.18-2.64.25-4,.38l-2,.07-1,0h-1l-2,0c-.67,0-1.35-.08-2-.12-1.36-.06-2.72-.25-4.08-.4a60.34,60.34,0,0,1-8.19-1.66c-1.37-.34-2.7-.82-4.06-1.25s-2.69-1-4-1.56a62.88,62.88,0,0,1-38-57.06A63.56,63.56,0,0,1,67.23,55.35,64.28,64.28,0,0,1,94.34,31.89c1.33-.65,2.72-1.15,4.08-1.71s2.75-1,4.15-1.39A64.19,64.19,0,0,1,111,26.85c1.42-.19,2.8-.42,4.27-.52.71,0,1.47-.13,2.14-.17l2-.07.49,0h1.64l2.07,0c1.38.09,2.75.14,4.11.29a65,65,0,0,1,15.49,3.52,66.37,66.37,0,0,1,13.33,6.65,65.6,65.6,0,0,1,18.53,18.27,64.36,64.36,0,0,1,8.56,18.31c.43,1.35.69,2.66,1,3.87s.47,2.39.69,3.47.29,2.09.43,3,.17,1.82.25,2.59.12,1.49.13,2,0,1,0,1.34c0,.73,0,1.77,0,1.77Z" transform="translate(-57.05 -26.05)"/><path class="cls-1" d="M167.31,88.6l-3.2-.23-37.6-2.68,9.65-12.21,2-2.51-2.36,2.17-11,10.19-3.13-36.74-.27-3.18-.23,3.18-2.66,37.25-12.13-9.53-2.52-2L106,74.68l10.33,11.11L79.24,88.93,76,89.2l3.2.23,37.39,2.65-9.44,12-2,2.51,2.36-2.17,11-10.18,3.14,37,.27,3.19.23-3.19,2.68-37.52L137,103.2l2.51,2-2.18-2.35L127.25,92l36.86-3.11Zm-42,3.54,1.58-.13,10.22,11Zm-1-3.26H124l-2.2,0h-.15l3.09,3-.09,1.26v.3L122,131.18l-.27-39.87V88.9l-2.23,2.26-.81.82-1.51-.11h-.3L79.26,89.18l39.88-.26h2.53l-.07-.07-.08-.07-2.1-2.09-.83-.81.11-1.52V84l2.67-37.42.26,39.6v.34l0,2.17v.18h0l.07-.07.07-.08,2.9-2.92,1.29.09h.31l37.77,2.69Zm-17,15.3,11-11.9.13,1.59Zm10.89-18.55-1.62.13L106.2,74.51ZM136,73.33l-11,11.9-.13-1.58Z" transform="translate(-57.05 -26.05)"/><path class="cls-1" d="M586.58,53a1.25,1.25,0,0,1-.13.59,1.18,1.18,0,0,1-.34.43,1.56,1.56,0,0,1-.5.25,2.06,2.06,0,0,1-.62.09,1.84,1.84,0,0,1-.41,0,1.44,1.44,0,0,1-.33-.09,2.16,2.16,0,0,1-.25-.1l-.14-.1a.23.23,0,0,1-.06-.13,1.21,1.21,0,0,1,0-.23.86.86,0,0,1,0-.17.37.37,0,0,1,0-.12l0-.06h.06a.24.24,0,0,1,.13.05,1.3,1.3,0,0,0,.21.12,1.33,1.33,0,0,0,.32.12,1.4,1.4,0,0,0,.43.06,1.18,1.18,0,0,0,.28,0,.65.65,0,0,0,.22-.11.55.55,0,0,0,.13-.17.59.59,0,0,0,0-.23.41.41,0,0,0-.08-.25,1.29,1.29,0,0,0-.21-.19l-.29-.15-.34-.15a2.68,2.68,0,0,1-.33-.18,1.68,1.68,0,0,1-.29-.24,1.33,1.33,0,0,1-.21-.33,1.27,1.27,0,0,1-.07-.46,1.13,1.13,0,0,1,.11-.54,1,1,0,0,1,.31-.39,1.37,1.37,0,0,1,.45-.23,2,2,0,0,1,.56-.08l.31,0a1.27,1.27,0,0,1,.28.06l.24.09.13.08,0,.06a.39.39,0,0,0,0,.06s0,.06,0,.09v.31s0,.08,0,.11a.16.16,0,0,1,0,.06.07.07,0,0,1-.06,0,.27.27,0,0,1-.12,0l-.19-.1a1.69,1.69,0,0,0-.27-.1,1.16,1.16,0,0,0-.34-.05.61.61,0,0,0-.24,0,.51.51,0,0,0-.18.09.42.42,0,0,0-.11.15.57.57,0,0,0,0,.18.36.36,0,0,0,.08.25.7.7,0,0,0,.2.18,2.11,2.11,0,0,0,.3.16l.34.15a2.79,2.79,0,0,1,.34.18,1,1,0,0,1,.29.24.93.93,0,0,1,.21.33A1.25,1.25,0,0,1,586.58,53Z" transform="translate(-57.05 -26.05)"/><path class="cls-1" d="M592.24,54.11a.11.11,0,0,1,0,.06.13.13,0,0,1-.07,0l-.13,0h-.4l-.12,0a.18.18,0,0,1-.07,0,.11.11,0,0,1,0-.06V50.63h0l-1.25,3.48a.1.1,0,0,1,0,.07l-.08,0-.13,0h-.38l-.14,0-.08,0s0,0,0-.06l-1.19-3.48h0v3.48a.11.11,0,0,1,0,.06.1.1,0,0,1-.07,0l-.13,0h-.39l-.13,0a.18.18,0,0,1-.07,0,.11.11,0,0,1,0-.06V50.3a.34.34,0,0,1,.09-.26.32.32,0,0,1,.24-.09h.57l.26,0a.48.48,0,0,1,.19.09.38.38,0,0,1,.13.15,1,1,0,0,1,.1.23l.92,2.56h0l1-2.55q0-.14.09-.24l.12-.15a.51.51,0,0,1,.16-.09l.22,0h.58l.16,0,.1.07a.24.24,0,0,1,.06.11.33.33,0,0,1,0,.15Z" transform="translate(-57.05 -26.05)"/></svg>