<?xml version="1.0" encoding="UTF-8" standalone="no"?>
<!-- Created with Inkscape (http://www.inkscape.org/) -->
<svg xmlns:dc="http://purl.org/dc/elements/1.1/" xmlns:cc="http://creativecommons.org/ns#" xmlns:rdf="http://www.w3.org/1999/02/22-rdf-syntax-ns#" xmlns:svg="http://www.w3.org/2000/svg" xmlns="http://www.w3.org/2000/svg" version="1.1" width="400" height="67.257973" id="svg2" xml:space="preserve"><metadata id="metadata8"><rdf:RDF><cc:Work rdf:about=""><dc:format>image/svg+xml</dc:format><dc:type rdf:resource="http://purl.org/dc/dcmitype/StillImage"/><dc:title/></cc:Work></rdf:RDF></metadata><defs id="defs6"><clipPath id="clipPath18"><path d="M 0,612 792,612 792,0 0,0 0,612 z" id="path20"/></clipPath><clipPath id="clipPath118"><path d="m 124.9,414.713 377,0 0,68.9 -377,0 0,-68.9 z" id="path120"/></clipPath><clipPath id="clipPath886"><path d="m 124.9,248.089 377,0 0,98.65 -377,0 0,-98.65 z" id="path888"/></clipPath><clipPath id="clipPath4512"><path d="M 0,612 792,612 792,0 0,0 0,612 z" id="path4514"/></clipPath><clipPath id="clipPath4584"><path d="M 0,612 792,612 792,0 0,0 0,612 z" id="path4586"/></clipPath></defs><g transform="matrix(1.25,0,0,-1.25,-156.26061,592.32407)" id="g10"><path d="m 151.20967,473.85874 0,-5.54321 -17.11812,0 0,-4.00896 15.82852,0 0,-5.57888 -15.86336,0 0,-3.90446 17.50212,0 0,-5.57805 -26.28715,0 0,24.61356 25.93799,0 z" id="path668" style="fill:#00549f;fill-opacity:1;fill-rule:nonzero;stroke:none"/><path d="m 154.03139,473.85874 11.67941,0 6.20584,-16.07234 6.205,16.07234 11.64457,0 0,-24.61356 -8.71537,0 0,15.75802 -5.82271,-15.75802 -6.79798,0 -5.75305,15.68836 0,-15.68836 -8.64571,0 0,24.61356 z" id="path672" style="fill:#00549f;fill-opacity:1;fill-rule:nonzero;stroke:none"/><path d="m 201.89628,464.48047 8.26258,0 c 1.32442,0 1.60393,0.10451 1.84773,0.20899 0.66264,0.24467 1.08061,0.83679 1.08061,1.77807 0,0.69747 -0.31348,1.25562 -1.11543,1.60394 -0.34831,0.17414 -0.94129,0.20898 -1.77807,0.20898 l -8.29742,0 0,-3.79998 z m -0.0348,-9.62181 8.92522,0 c 0.87161,0 1.49943,0.0348 1.88256,0.20898 1.15028,0.41797 1.35927,1.28958 1.35927,2.12639 0,0.94127 -0.45282,1.56909 -1.1851,1.77807 -0.5573,0.17415 -1.15027,0.17415 -2.23089,0.17415 l -8.75106,0 0,-4.28759 z m -8.82071,18.99982 20.63945,0 c 1.70841,-0.0348 4.04463,-0.0697 5.75219,-1.28959 1.77808,-1.29044 2.0924,-3.38199 2.0924,-4.49742 0,-3.06767 -1.74325,-4.77609 -4.7421,-5.5084 1.4646,-0.20898 3.24268,-0.48847 4.60277,-1.9174 1.04579,-1.11627 1.3941,-2.37105 1.3941,-4.11429 0,-3.41598 -1.98706,-5.43872 -4.42778,-6.37999 -2.05673,-0.76713 -4.4626,-0.90646 -6.38,-0.90646 l -18.93103,0 0,24.61355 z" id="path676" style="fill:#00549f;fill-opacity:1;fill-rule:nonzero;stroke:none"/><path d="m 234.2119,463.78335 6.62381,0 c 1.36011,0 3.59099,0.0348 3.59099,2.23088 0,0.55815 -0.17416,1.15111 -0.6278,1.56909 -0.69662,0.62781 -1.60308,0.69747 -2.26571,0.69747 l -7.32129,0 0,-4.49744 z m -8.82072,10.07547 18.09423,0 c 2.16207,-0.0348 4.81092,-0.0697 6.8685,-1.56909 1.77806,-1.35925 2.89351,-3.76513 2.89351,-6.24068 0,-1.74238 -0.55814,-3.45165 -1.5691,-4.67158 -1.39407,-1.67359 -3.06767,-2.0219 -4.11344,-2.3014 l 6.17017,-9.8308 -9.76115,0 -5.05557,8.96004 -4.70643,0 0,-8.96004 -8.82072,0 0,24.61355 z" id="path680" style="fill:#00549f;fill-opacity:1;fill-rule:nonzero;stroke:none"/><path d="m 262.72814,473.85874 4.07946,-7.39095 c 0.62695,-1.29044 0.73145,-1.49943 1.28959,-2.82384 0.59213,1.35925 0.7323,1.74323 1.49943,3.31147 l 3.8348,6.90332 10.17998,0 -11.1561,-17.29228 0,-7.32128 -8.71621,0 0,7.32128 -11.29541,17.29228 10.28446,0 z" id="path684" style="fill:#00549f;fill-opacity:1;fill-rule:nonzero;stroke:none"/><path d="m 299.33228,463.78335 6.62383,0 c 1.3601,0 3.59097,0.0348 3.59097,2.23088 0,0.55815 -0.17414,1.15111 -0.62781,1.56909 -0.69661,0.62781 -1.60306,0.69747 -2.2657,0.69747 l -7.32129,0 0,-4.49744 z m -8.82072,10.07547 18.09424,0 c 2.16121,-0.0348 4.81092,-0.0697 6.86848,-1.56909 1.77809,-1.35925 2.89352,-3.76513 2.89352,-6.24068 0,-1.74238 -0.55815,-3.45165 -1.56909,-4.67158 -1.39409,-1.67359 -3.06767,-2.0219 -4.1143,-2.3014 l 6.17102,-9.8308 -9.76114,0 -5.05558,8.96004 -4.70643,0 0,-8.96004 -8.82072,0 0,24.61355 z" id="path688" style="fill:#00549f;fill-opacity:1;fill-rule:nonzero;stroke:none"/><path d="m 329.62685,449.24569 -8.82072,0 0,24.61357 8.82072,0 0,-24.61357 z" id="path690" style="fill:#00549f;fill-opacity:1;fill-rule:nonzero;stroke:none"/><path d="m 341.81911,454.8234 3.86964,0 c 2.99886,0 4.70726,0.55814 5.71821,1.46375 1.18511,1.04661 1.98706,3.10334 1.98706,5.1949 0,2.33622 -0.94129,4.1143 -2.19605,5.12524 -1.53426,1.21992 -3.62581,1.39408 -5.26457,1.39408 l -4.11429,0 0,-13.17797 z m -8.61088,19.03552 13.97995,0 c 2.54519,0 9.69233,0.13932 13.10915,-5.82272 0.52248,-0.9056 1.70757,-3.06766 1.70757,-6.72831 0,-1.9174 -0.34831,-3.86962 -1.11543,-5.61288 -0.62782,-1.42976 -1.77808,-3.41682 -4.60194,-4.88142 -2.6497,-1.39408 -5.08956,-1.56824 -7.4606,-1.56824 l -15.6187,0 0,24.61357 z" id="path694" style="fill:#00549f;fill-opacity:1;fill-rule:nonzero;stroke:none"/><path d="m 372.77563,454.8234 3.86963,0 c 2.99887,0 4.70728,0.55814 5.71822,1.46375 1.18511,1.04661 1.98706,3.10334 1.98706,5.1949 0,2.33622 -0.94127,4.1143 -2.19605,5.12524 -1.53425,1.21992 -3.62581,1.39408 -5.26541,1.39408 l -4.11345,0 0,-13.17797 z m -8.61087,19.03552 13.97994,0 c 2.5452,0 9.69233,0.13932 13.10916,-5.82272 0.52246,-0.9056 1.70756,-3.06766 1.70756,-6.72831 0,-1.9174 -0.34831,-3.86962 -1.11544,-5.61288 -0.62779,-1.42976 -1.77807,-3.41682 -4.60191,-4.88142 -2.64971,-1.39408 -5.08958,-1.56824 -7.46062,-1.56824 l -15.61869,0 0,24.61357 z" id="path698" style="fill:#00549f;fill-opacity:1;fill-rule:nonzero;stroke:none"/><path d="m 403.94132,473.85874 0,-18.6167 12.55102,0 0,-5.99686 -21.40656,0 0,24.61356 8.85554,0 z" id="path702" style="fill:#00549f;fill-opacity:1;fill-rule:nonzero;stroke:none"/><path d="m 444.66018,473.85874 0,-5.54321 -17.11812,0 0,-4.00896 15.82768,0 0,-5.57888 -15.86251,0 0,-3.90446 17.50126,0 0,-5.57805 -26.28714,0 0,24.61356 25.93883,0 z" id="path706" style="fill:#00549f;fill-opacity:1;fill-rule:nonzero;stroke:none"/><path d="m 291.61307,463.78437 -9.6711,0 -3.4763,-5.58483 13.1474,0 0,5.58483 z" id="path710" style="fill:#00549f;fill-opacity:1;fill-rule:evenodd;stroke:none"/><path d="m 136.54262,439.00591 c -0.13082,0.31433 -0.28799,0.62866 -0.41966,0.94383 -0.0782,0.23617 -0.15717,0.4715 -0.20899,0.70767 -0.079,-0.23617 -0.15801,-0.49782 -0.26251,-0.76034 -0.13083,-0.34065 -0.28884,-0.65499 -0.44601,-0.99649 l -3.90616,-7.68064 9.14949,0 -3.90616,7.78597 z m -1.96582,4.037 2.77883,0 9.48929,-18.53346 -3.01499,0 -2.25381,4.56115 -11.37697,0 -2.25466,-4.56115 -2.936,0 9.56831,18.53346 z" id="path714" style="fill:#a29061;fill-opacity:1;fill-rule:nonzero;stroke:none"/><path d="m 159.84645,432.47844 c -0.31432,0.81299 -1.25816,3.38198 -4.95447,3.38198 -3.90616,0 -4.98083,-2.648 -5.29515,-3.38198 l 10.24962,0 z m 2.54266,-4.24684 c -0.47149,-0.91748 -0.89115,-1.72965 -2.17566,-2.62166 -1.93949,-1.31083 -4.27316,-1.49348 -5.40049,-1.49348 -4.06247,0 -7.8378,2.22833 -7.8378,6.86763 0,3.98517 3.06683,6.73766 7.75964,6.73766 4.74466,0 7.81232,-3.06766 7.91682,-7.10465 l -13.13381,0 c 0.10535,-0.78667 0.23618,-1.6515 0.94384,-2.51633 0.97017,-1.20632 2.75249,-1.99215 4.6665,-1.99215 1.15367,0 2.35915,0.31432 3.30298,0.94298 0.89117,0.60317 1.20549,1.18 1.57249,1.83584 l 2.38549,-0.65584 z" id="path718" style="fill:#a29061;fill-opacity:1;fill-rule:nonzero;stroke:none"/><path d="m 164.30226,437.30201 2.49085,0 0,-1.44166 c 1.83498,1.75597 4.35131,1.80866 4.92815,1.80866 0.65499,0 0.97015,-0.079 1.49432,-0.18351 l 0,-2.4645 c -0.65584,0.18351 -1.101,0.31517 -1.96668,0.31517 -0.81215,0 -1.59882,-0.10534 -2.25466,-0.34065 -2.17566,-0.813 -2.17566,-2.56985 -2.17566,-3.53917 l 0,-6.94664 -2.51632,0 0,12.7923 z" id="path722" style="fill:#a29061;fill-opacity:1;fill-rule:nonzero;stroke:none"/><path d="m 175.83632,430.82703 c 0,-2.72617 2.41181,-4.64016 6.0028,-4.64016 2.98867,0 5.68848,1.75683 5.68848,4.66648 0,2.96148 -2.59448,4.771 -6.00281,4.71832 -3.72265,-0.0527 -5.68847,-2.28099 -5.68847,-4.74464 m 5.8193,6.78946 c 4.45665,0.0264 8.38916,-2.17565 8.38916,-6.76314 0,-4.35216 -3.80168,-6.73766 -8.33648,-6.73766 -5.37416,0 -8.38832,2.8315 -8.38832,6.55417 0,4.19414 3.51198,6.9203 8.30931,6.94663 l 0.0263,0 z" id="path726" style="fill:#a29061;fill-opacity:1;fill-rule:nonzero;stroke:none"/><path d="m 194.21199,435.75525 c 0.57683,0.49783 1.02284,0.89117 2.12384,1.31083 1.07466,0.41882 2.22748,0.62866 3.56465,0.62866 2.25467,0 4.48299,-0.65499 5.76748,-2.25382 0.99652,-1.25815 1.02199,-2.62165 1.02199,-4.01149 l 0,-6.92032 -2.4645,0 0,6.76316 c -0.0255,1.12732 -0.0518,2.30732 -1.23182,3.25115 -1.15367,0.94384 -2.64714,1.022 -3.51283,1.022 -0.83849,0 -1.72965,-0.0781 -2.83064,-0.55049 -2.41182,-1.07467 -2.43817,-3.0405 -2.43817,-4.404 l 0,-6.08182 -2.49083,0 0,12.79315 2.49083,0 0,-1.54701 z" id="path730" style="fill:#a29061;fill-opacity:1;fill-rule:nonzero;stroke:none"/><path d="m 215.96916,430.56485 c -1.46799,0 -2.83065,-0.0263 -3.64365,-0.34066 -0.9175,-0.34066 -1.33717,-1.02199 -1.33717,-1.75684 0,-1.17915 1.022,-2.51632 3.66999,-2.51632 0.41967,0 2.62166,0.0527 4.19415,1.101 1.67783,1.12733 1.78317,2.569 1.78317,3.51282 l -4.66649,0 z m -6.6323,3.87982 c 0.55049,1.49433 1.20633,3.25032 6.89397,3.25032 1.12817,0 2.70066,-0.13083 3.87981,-0.44515 2.85785,-0.78667 2.85785,-2.62167 2.85785,-4.03699 l 0,-4.64016 c 0,-1.70417 0,-2.41183 1.41531,-2.41183 0.31518,0 0.62952,0.0527 0.94383,0.0782 l 0,-1.70331 c -0.81215,-0.079 -1.54614,-0.15717 -2.20198,-0.15717 -2.22834,0 -2.35917,1.25817 -2.46451,2.17566 -0.31432,-0.47233 -0.65498,-0.97017 -1.72965,-1.57248 -1.10099,-0.57683 -2.67434,-0.94468 -4.35217,-0.94468 -5.26881,0 -6.08096,2.98866 -6.08096,4.40398 0,1.57333 0.86482,3.11949 2.936,3.67083 1.30998,0.33983 3.82714,0.36615 5.55764,0.36615 l 3.61732,0 c 0.0264,1.36351 0.0264,2.38635 -1.33716,2.96234 -0.52417,0.23616 -1.49434,0.44599 -2.88333,0.44599 -1.07466,0 -2.14932,-0.079 -3.11949,-0.47233 -0.94383,-0.36615 -1.20634,-0.81216 -1.41617,-1.20549 l -2.51631,0.23616 z" id="path734" style="fill:#a29061;fill-opacity:1;fill-rule:nonzero;stroke:none"/><path d="m 226.42812,437.30201 2.4645,0 0,-6.47516 c 0,-1.38899 0.0518,-2.43816 0.81215,-3.25031 0.86483,-0.94384 2.41184,-1.31084 3.90616,-1.31084 2.90966,0 4.43033,1.44166 4.85,2.12299 0.44515,0.7085 0.44515,1.44251 0.44515,2.15016 l 0,6.76316 2.49085,0 0,-12.7923 -2.43818,0 0,1.59882 c -1.02284,-0.86482 -2.43816,-2.04483 -5.63666,-2.04483 -1.20548,0 -2.69982,0.20984 -3.90531,0.734 -2.98866,1.33718 -2.98866,3.67 -2.98866,5.7675 l 0,6.73681 z" id="path738" style="fill:#a29061;fill-opacity:1;fill-rule:nonzero;stroke:none"/><path d="m 245.9573,441.70607 2.46365,0 0,-4.37764 3.59184,0 0,-1.7305 -3.61731,0 -0.0264,-6.8685 c 0.0264,-1.2845 0,-2.22833 1.756,-2.22833 0.60316,0 1.12732,0.079 1.80865,0.20984 l 0,-2.202 c -0.81216,-0.0781 -1.62516,-0.1835 -2.46365,-0.1835 -3.51283,0 -3.48649,1.75685 -3.51283,3.69633 l 0,7.60248 -2.20199,-0.0263 0,1.7305 2.20199,0 0,4.37765 z" id="path742" style="fill:#a29061;fill-opacity:1;fill-rule:nonzero;stroke:none"/><path d="m 254.84319,437.30208 2.49082,0 0,-12.79228 -2.49082,0 0,12.79228 z m -0.0255,4.6665 2.4645,0 0,-2.51632 -2.4645,0 0,2.51632 z" id="path744" style="fill:#a29061;fill-opacity:1;fill-rule:nonzero;stroke:none"/><path d="m 275.94604,427.91712 c -0.47148,-0.81302 -0.76032,-1.31085 -1.59882,-1.99217 -1.88767,-1.49433 -4.32583,-1.86133 -6.18715,-1.86133 -1.38899,0 -2.80433,0.15717 -4.11516,0.62865 -2.80516,1.02284 -4.32583,3.30385 -4.32583,6.26532 0,4.32583 3.77533,6.71132 8.51998,6.71132 1.36267,0 3.48649,-0.23616 5.16432,-1.31082 1.41534,-0.89116 2.0185,-1.88682 2.41183,-2.59534 l -2.38549,-0.68131 c -0.23617,0.39332 -0.57684,1.02199 -1.468,1.59882 -0.734,0.47233 -2.04483,0.9965 -3.72266,0.9965 -2.90964,0 -5.87198,-1.59967 -5.87198,-4.929 0,-2.936 2.59534,-4.71831 5.87198,-4.71831 1.18001,0 2.648,0.2625 3.77448,0.94383 0.83934,0.52417 1.18001,0.9965 1.54701,1.547 l 2.38549,-0.60316 z" id="path748" style="fill:#a29061;fill-opacity:1;fill-rule:nonzero;stroke:none"/><path d="m 284.85816,430.56485 c -1.46799,0 -2.83064,-0.0263 -3.64365,-0.34066 -0.9175,-0.34066 -1.33716,-1.02199 -1.33716,-1.75684 0,-1.17915 1.02199,-2.51632 3.66998,-2.51632 0.41967,0 2.62167,0.0527 4.19415,1.101 1.67868,1.12733 1.78319,2.569 1.78319,3.51282 l -4.66651,0 z m -6.63231,3.87982 c 0.5505,1.49433 1.20634,3.25032 6.89482,3.25032 1.12733,0 2.69982,-0.13083 3.87898,-0.44515 2.85784,-0.78667 2.85784,-2.62167 2.85784,-4.03699 l 0,-4.64016 c 0,-1.70417 0,-2.41183 1.41531,-2.41183 0.31519,0 0.62951,0.0527 0.94384,0.0782 l 0,-1.70331 c -0.81216,-0.079 -1.54616,-0.15717 -2.202,-0.15717 -2.22833,0 -2.35915,1.25817 -2.46365,2.17566 -0.31516,-0.47233 -0.65584,-0.97017 -1.7305,-1.57248 -1.101,-0.57683 -2.67348,-0.94468 -4.35216,-0.94468 -5.26882,0 -6.08097,2.98866 -6.08097,4.40398 0,1.57333 0.86483,3.11949 2.936,3.67083 1.30997,0.33983 3.82714,0.36615 5.55764,0.36615 l 3.61732,0 c 0.0264,1.36351 0.0264,2.38635 -1.33717,2.96234 -0.52415,0.23616 -1.49433,0.44599 -2.88332,0.44599 -1.07466,0 -2.14932,-0.079 -3.11949,-0.47233 -0.94383,-0.36615 -1.20633,-0.81216 -1.41616,-1.20549 l -2.51633,0.23612 z" id="path752" style="fill:#a29061;fill-opacity:1;fill-rule:nonzero;stroke:none"/><path d="m 296.41854,443.0169 2.46365,0 0,-18.50796 -2.46365,0 0,18.50796 z" id="path754" style="fill:#a29061;fill-opacity:1;fill-rule:nonzero;stroke:none"/><path d="m 315.63289,443.01665 0,-10.98363 c 0.0264,-2.15018 0.23618,-3.40833 1.835,-4.43033 0.68132,-0.446 2.14932,-1.25816 5.08616,-1.25816 1.78232,0 3.35481,0.34068 4.37765,0.81216 2.38549,1.07466 2.38549,2.98867 2.38549,4.53567 l 0,11.32429 2.64716,0 0,-11.11445 c 0,-1.86219 0,-4.40485 -2.83065,-6.23983 -1.2845,-0.8385 -3.35567,-1.59883 -6.60599,-1.59883 -2.41183,0 -4.85083,0.39333 -6.84215,1.78316 -2.62166,1.80781 -2.70067,4.19331 -2.70067,6.29081 l 0,10.87914 2.648,0 z" id="path758" style="fill:#a29061;fill-opacity:1;fill-rule:nonzero;stroke:none"/><path d="m 336.7084,435.75525 c 0.57683,0.49783 1.02283,0.89117 2.12383,1.31083 1.07466,0.41882 2.22748,0.62866 3.56466,0.62866 2.25466,0 4.48213,-0.65499 5.76748,-2.25382 0.99565,-1.25815 1.02199,-2.62165 1.02199,-4.01149 l 0,-6.92032 -2.4645,0 0,6.76316 c -0.0255,1.12732 -0.0518,2.30732 -1.23183,3.25115 -1.15282,0.94384 -2.64714,1.022 -3.51282,1.022 -0.83849,0 -1.72965,-0.0781 -2.83065,-0.55049 -2.41182,-1.07467 -2.43816,-3.0405 -2.43816,-4.404 l 0,-6.08182 -2.48999,0 0,12.79315 2.48999,0 0,-1.54701 z" id="path762" style="fill:#a29061;fill-opacity:1;fill-rule:nonzero;stroke:none"/><path d="m 351.72919,437.30208 2.48998,0 0,-12.79228 -2.48998,0 0,12.79228 z m -0.0264,4.6665 2.46365,0 0,-2.51632 -2.46365,0 0,2.51632 z" id="path764" style="fill:#a29061;fill-opacity:1;fill-rule:nonzero;stroke:none"/><path d="m 358.46608,437.30201 5.08531,-10.27598 5.16433,10.27598 2.8043,0 -6.57963,-12.7923 -2.77799,0 -6.44966,12.7923 2.75334,0 z" id="path768" style="fill:#a29061;fill-opacity:1;fill-rule:nonzero;stroke:none"/><path d="m 384.05015,432.47844 c -0.31432,0.81299 -1.25815,3.38198 -4.95448,3.38198 -3.90617,0 -4.98083,-2.648 -5.29515,-3.38198 l 10.24963,0 z m 2.5435,-4.24684 c -0.47234,-0.91748 -0.89115,-1.72965 -2.1765,-2.62166 -1.93949,-1.31083 -4.27231,-1.49348 -5.39965,-1.49348 -4.06332,0 -7.83865,2.22833 -7.83865,6.86763 0,3.98517 3.06768,6.73766 7.75965,6.73766 4.74465,0 7.81232,-3.06766 7.91682,-7.10465 l -13.1338,0 c 0.10533,-0.78667 0.23616,-1.6515 0.94383,-2.51633 0.97016,-1.20632 2.75248,-1.99215 4.66648,-1.99215 1.15368,0 2.35916,0.31432 3.30299,0.94298 0.89117,0.60317 1.20549,1.18 1.57249,1.83584 l 2.38634,-0.65584 z" id="path772" style="fill:#a29061;fill-opacity:1;fill-rule:nonzero;stroke:none"/><path d="m 388.50595,437.30201 2.48999,0 0,-1.44166 c 1.83499,1.75597 4.35216,1.80866 4.92901,1.80866 0.65498,0 0.97016,-0.079 1.49347,-0.18351 l 0,-2.4645 c -0.65499,0.18351 -1.10015,0.31517 -1.96582,0.31517 -0.81216,0 -1.59883,-0.10534 -2.25467,-0.34065 -2.17565,-0.813 -2.17565,-2.56985 -2.17565,-3.53917 l 0,-6.94664 -2.51633,0 0,12.7923 z" id="path776" style="fill:#a29061;fill-opacity:1;fill-rule:nonzero;stroke:none"/><path d="m 399.22726,428.12694 c 0.81299,-0.62949 2.56898,-1.99216 6.42247,-1.99216 0.89201,0 2.25466,0.10449 3.14584,0.41968 0.7858,0.28799 1.44165,0.81215 1.44165,1.65149 0,1.20549 -1.51982,1.468 -2.01849,1.54616 -0.734,0.10448 -4.35131,0.367 -5.16348,0.47148 -1.46884,0.13168 -4.77182,0.49868 -4.77182,3.51369 0,3.7218 4.84998,4.06332 7.10465,4.06332 4.58748,0 6.84214,-1.78318 7.44446,-2.38634 l -2.1765,-1.2055 c -1.25816,0.86482 -3.06597,1.49434 -5.45232,1.49434 -0.96931,0 -1.9913,-0.0264 -2.9088,-0.39335 -0.83934,-0.31432 -1.25815,-0.813 -1.25815,-1.36349 0,-1.2055 1.7033,-1.389 3.22397,-1.54616 1.25816,-0.15717 2.51632,-0.20984 3.77448,-0.34065 0.70851,-0.0527 1.38899,-0.13168 2.04483,-0.28885 0.49783,-0.13082 2.80516,-0.73399 2.80516,-3.40748 0,-3.25117 -3.48733,-4.32584 -7.05198,-4.32584 -3.17216,0 -6.60597,0.70767 -8.7553,2.67435 l 2.14933,1.41531 z" id="path780" style="fill:#a29061;fill-opacity:1;fill-rule:nonzero;stroke:none"/><path d="m 415.06028,437.30208 2.48998,0 0,-12.79228 -2.48998,0 0,12.79228 z m -0.0255,4.6665 2.46365,0 0,-2.51632 -2.46365,0 0,2.51632 z" id="path782" style="fill:#a29061;fill-opacity:1;fill-rule:nonzero;stroke:none"/><path d="m 421.9805,441.70607 2.4645,0 0,-4.37764 3.59098,0 0,-1.7305 -3.61732,0 -0.0255,-6.8685 c 0.0255,-1.2845 0,-2.22833 1.75514,-2.22833 0.60401,0 1.12733,0.079 1.8095,0.20984 l 0,-2.202 c -0.813,-0.0781 -1.626,-0.1835 -2.46365,-0.1835 -3.51367,0 -3.48733,1.75685 -3.51367,3.69633 l 0,7.60248 -2.20198,-0.0263 0,1.7305 2.20198,0 0,4.37765 z" id="path786" style="fill:#a29061;fill-opacity:1;fill-rule:nonzero;stroke:none"/><path d="m 429.11056,437.32817 2.8315,0 5.00631,-10.32865 5.19065,10.32865 2.77882,0 -7.23462,-14.0513 c -0.83935,-1.62517 -1.75685,-3.22399 -4.74466,-3.22399 -1.02284,0 -1.99301,0.15717 -3.04133,0.31434 l 0,2.22832 c 0.813,-0.15717 1.75683,-0.367 2.62081,-0.367 1.83584,0 2.43816,0.9965 3.094,2.202 l -6.50148,12.89763 z" id="path790" style="fill:#a29061;fill-opacity:1;fill-rule:nonzero;stroke:none"/></g></svg>