<svg xmlns="http://www.w3.org/2000/svg" xmlns:v="https://vecta.io/nano" width="316.22776601683796" height="316.22776601683796" fill="none" viewBox="0 0 396.0 396.0"><g clip-path="url(#A)"><circle cx="194" cy="194" r="194" fill="#fff"/><circle cx="194" cy="194" r="175" fill="#470a68"/><circle cx="195" cy="195" r="123" fill="#fff"/><g fill-rule="evenodd"><path d="M182.4.213c-5.041.188-11.285.656-14.487 1.087-8.337 1.119-21.072 3.563-21.715 4.166-.161.152-.61.276-.997.276-2.275 0-16.721 4.647-22.444 7.22a287.13 287.13 0 0 1-4.007 1.712c-5.975 2.512-16.27 7.577-21.807 10.733l-2.312 1.31c-3.299 1.857-5.316 3.143-5.316 3.388 0 .15-.185.273-.41.273-.548-.001-6.987 4.276-6.987 4.641 0 .157-.221.286-.49.285s-1.899 1.041-3.622 2.313c-5.004 3.693-5.728 4.285-5.74 4.693-.006.212-.255.385-.55.386s-.956.384-1.465.853c-.597.544-1.214 1.066-1.849 1.565-4.332 3.339-15.703 14.703-18.995 18.981-.391.508-.787.993-.88 1.078s-.82.985-1.614 2.001l-5.49 6.929c-.746.641-3.691 4.683-3.691 5.064 0 .263-.137.479-.305.479-.749 0-8.132 10.823-12.129 17.777-4.292 7.469-8.846 16.784-11.329 23.17-.492 1.266-.895 2.548-.895 2.848s-.123.547-.273.547-.346.242-.436.538-1.077 3.218-2.194 6.491-2.029 6.357-2.029 6.851-.122.9-.27.9c-.451-.001-3.495 11.762-4.342 16.781-.2 1.186-.556 2.987-.791 4.003-.544 2.356-1.52 8.445-2.146 13.406-.568 4.489-.505 29.626.094 37.555.559 7.412 2.361 20.093 3.786 26.635 1.276 5.861 2.855 12.496 3.372 14.165l1.265 4.234c.539 1.821 1.096 3.311 1.239 3.311s.259.353.259.784c0 .924 1.853 6.405 2.216 6.554.137.057.25.359.25.674s.415 1.618.924 2.899l1.829 4.605c.498 1.252 1.247 2.949 1.665 3.772s1.14 2.362 1.604 3.42.963 1.926 1.11 1.926.266.291.266.649c0 .759 1.81 4.277 2.2 4.277.145 0 .271.243.279.538s.493 1.371 1.077 2.387 1.191 2.139 1.348 2.496c.291.662 1.725 3.111 2.956 5.049l1.728 2.769c2.952 4.782 8.412 12.518 9.588 13.587.302.274.548.586.548.695.001.203 3.435 4.569 4.298 5.463.264.274 1.584 1.728 2.932 3.233 5.553 6.196 15.217 15.467 21.282 20.415l4.36 3.59c1.338 1.125 3.425 2.734 4.563 3.518l2.234 1.617c.86.634 1.718 1.155 1.907 1.155s.344.133.344.295c0 .384 6.385 4.631 6.96 4.631.241 0 .438.125.438.277 0 .532 10.942 7.114 11.827 7.114.276 0 .502.128.502.285 0 .353 8.395 4.641 9.084 4.641.273 0 .761.243 1.083.538s1.254.801 2.068 1.122c1.225.497 2.438 1.022 3.638 1.575 1.867.86 7.151 2.914 12.329 4.792 5.203 1.887 13.73 4.29 15.225 4.29.527 0 .958.121.958.269 0 .403 10.099 2.565 16.133 3.453l4.21.633c5.939.916 40.797 1.561 46.851.867l4.007-.444c6.782-.717 12.478-1.661 20.343-3.374 18.167-3.956 36.885-11.09 52.047-19.838l3.932-2.197c.239 0 6.767-4.096 9.982-6.264 17.528-11.816 33.015-26.679 46.738-44.857 2.24-2.967 5.923-8.384 9.523-14.005 5.713-8.92 12.908-23.688 16.803-34.487l3.151-8.467c5.447-14.025 9.586-33.683 9.752-46.312.031-2.353.174-4.501.318-4.773.491-.923-.105-24.504-.735-29.13l-.783-6.116c-2.399-19.401-9.732-43.985-18.11-60.703-5.652-11.278-13.533-23.521-21.308-33.102l-5.898-7.082c-.1-.085-1.416-1.54-2.923-3.234-5.565-6.251-9.481-10.056-19.745-19.181-3.926-3.489-11.411-9.155-17.399-13.17l-4.778-3.218c-2.089-1.426-11.859-6.876-15.581-8.692s-7.624-3.62-7.825-3.621c-.066 0-1.9-.844-4.077-1.878-13.943-6.618-30.13-11.303-48.342-13.991C213.044.205 197.125-.338 182.4.213zm19.495 2.959c3.7.244 3.693.201.617 3.888l-4.35 5.226c-1.75 2.11-4.049 4.254-4.049 3.776 0-.591 1.096-2.614 2.039-3.764 2.302-2.806.318-3.075-2.371-.321l-1.879 1.924.844-1.493c.936-1.655.696-2.222-.791-1.875-1.075.251-1.989 1.166-3.743 3.752-.834 1.228-1.568 2.233-1.632 2.233-.434 0 .459-1.498 1.936-3.249 2.39-2.832 2.598-3.14 2.37-3.511-.461-.743-1.712-.271-3.429 1.294l-1.773 1.617 1.19-1.694c3.084-4.39 4.891-6.078 7.771-7.261 1.923-.789 2.673-.845 7.25-.543zm-14.255.215c0 .448-6.35 9.502-8.113 11.567l-.898 1.051.223-1.051c.3-1.415 1.285-2.979 2.022-3.213.702-.222.766-.73.193-1.514-.882-1.204-3.077.437-4.693 3.509-1.089 2.069-2.432 3.673-2.783 3.324-.243-.243.344-1.297 1.804-3.232 1.822-2.414 1.101-3.418-1.164-1.62-1.382 1.097-1.598 1.134-1.565.271.046-1.237-.92-1.438-1.998-.416l-.967.914.509-1.232c2.589-6.265 5.018-7.913 12.035-8.173l5.164-.238c.127-.031.231-.007.231.053zm29.803.864c.293.243 1.684.49 3.386.599 1.589.103 2.972.27 3.073.372.185.184-7.539 8.769-9.472 10.527l-1.015.923.974-1.264c2.453-3.187 1.48-4.938-1.307-2.354l-1.246 1.155 1.001-1.092c1.168-1.274 1.238-1.686.365-2.152-.825-.441-1.797.161-3.678 2.277l-2.254 2.496c-1.372 1.478-.459-.112 1.136-1.979 2.69-3.148 1.752-5.155-1.158-2.476-1.25 1.152-1.328 1.181-1.19.46.391-2.041-.532-1.839-3.094.677l-2.447 2.404 2.014-2.636c5.38-7.035 11.848-10.479 14.912-7.938zm-47.989 1.066c0 1.027-5.095 8.95-5.566 8.655-.825-.514-1.806.306-3.188 2.668-.662 1.13-1.321 2.127-1.465 2.216-.595.367-.179-.538 1.112-2.422 1.346-1.964 1.361-2.013.776-2.541-.779-.706-1.03-.492-3.599 3.071-1.106 1.533-1.908 2.441-1.783 2.017.298-1.004 1.007-2.403 1.762-3.475.688-.976.538-1.759-.336-1.759-.674-.001-2.022 1.434-3.647 3.877-1.486 2.237-1.747 1.983-.346-.337 1.392-2.304.145-3.53-1.643-1.616-.934.999-.933.996.292-1.463 2.916-5.854 5.233-7.837 9.893-8.469l3.115-.451c.918-.181 4.623-.159 4.623.029zm67.195 2.569c1.44.367 3.767 1.014 5.172 1.439l2.553.771-2.244 1.833c-6.245 5.098-7.512 6.074-9.422 7.249-1.139.7-2.115 1.233-2.17 1.183-.257-.233.911-1.916 1.763-2.542 1.324-.973 1.976-2.054 1.723-2.854-.206-.649-.481-.672-1.771-.141-.387.159-.499.102-.389-.196.748-2.03-1.626-1.198-4.412 1.547-2.091 2.059-2.083 1.851.018-.497 1.198-1.34 1.351-1.776.885-2.513-.492-.774-1.74-.101-4.064 2.193-1.246 1.23-1.972 1.89-1.614 1.467.727-.862 2.567-3.809 2.567-4.115 0-1.205-2.281-.006-4.357 2.291-3.332 3.687-3.865 3.626-.638-.072 7.116-8.16 8.938-8.942 16.4-7.045zm-88.721 6.345c-2.862 6.138-4.87 9.715-4.483 7.984.113-.508.532-1.578.932-2.376.893-1.785.91-2.297.089-2.558-.903-.286-1.581.436-3.036 3.228-1.168 2.244-2.182 3.569-2.182 2.853 0-.172.41-1.094.911-2.046 1.537-2.918-.037-3.354-2.018-.56-.45.634-.734.906-.633.606.113-.336-.069-.799-.475-1.205l-.66-.659-.728.897-.729.898.507-1.232c1.85-4.505 3.914-7.613 6.074-9.15.717-.509 8.73-2.764 9.074-2.552.041.025-1.149 2.667-2.643 5.873zm-12.856-1.33c-.353 1.165-6.384 13.803-6.521 13.667-.07-.071.089-.645.352-1.277.607-1.45.614-2.496.019-2.724-1.322-.506-2.416 1.201-3.24 5.056-.336 1.57-.698 2.935-.806 3.035-.307.285.113-2.724.64-4.582.416-1.469.42-1.739.031-2.128-.889-.888-1.979.763-3.444 5.217-.477 1.45-.908 2.348-.976 2.033s.185-1.383.559-2.381c.765-2.042.658-2.75-.413-2.75-.858 0-1.453 1.118-2.378 4.476l-.591 2.143.185-1.693c.1-.932.311-2.03.466-2.44.202-.534.162-.867-.141-1.17-.478-.478-2.375 1.14-2.375 2.025 0 .25-.075.38-.167.289-.866-.865 1.553-9.276 3.186-11.082 1.605-1.775 11.837-5.966 15.572-6.378.138-.015.157.284.042.665zm118.727-.042c7.471 2.301 7.908 2.624 5.802 4.276-5.031 3.944-9.182 5.726-6.422 2.754 1.267-1.365.289-2.419-1.289-1.386-.717.469-.755.462-.755-.139 0-.982-.749-1.04-2.137-.163-1.075.677-1.213.708-.895.201.785-1.257-.665-1.973-2.286-1.128-.8.417-.832.409-.54-.135.427-.797.41-.835-.459-1.052-.426-.107-1.253.01-1.86.263-1.485.621-1.103.136 1.18-1.49 3.698-2.636 6.029-3.119 9.661-2zm-83.574 4.276c-.264.508-.622.924-.797.924-.348 0-.139-.469.583-1.31.68-.791.754-.659.214.385zm71.355-.212c0 .053-.451.503-1.002 1.001l-1.002.904.906-1.001c.844-.933 1.098-1.142 1.098-.904zm28.203 1.758c1.4.353 11.508 5.264 11.539 5.606.043.495-1.559 1.202-3.714 1.641-1.252.255-3.456.968-4.897 1.582s-3.618 1.43-4.838 1.81l-2.217.69 1.754-1.641c2.034-1.9 1.981-2.713-.133-2.064-.856.262-1.046.26-.778-.008.884-.883.418-1.531-1.015-1.417-1.138.091-1.398.01-1.524-.473-.217-.83-2.564-.522-4.278.56l-1.303.824 1.156-.971c1.092-.917 1.623-2.45.847-2.45-.591 0-.301-.594.822-1.684 1.905-1.847 5.692-2.732 8.579-2.005zm-156.49 5.305c-.443 5.998-2.122 12.183-2.799 10.316-.11-.305-.273-.306-.778-.009-.584.344-.645.295-.734-.592-.137-1.392-.661-1.376-1.713.053-.909 1.236-.925 1.242-1.36.589-.863-1.299-2.381.066-3 2.697-.227.964-.285 1.033-.31.366-.086-2.274-.928-2.357-2.007-.195-.989 1.983-1.076 1.203-.322-2.875 1.419-7.67 2.326-8.756 10.158-12.156l3.09-1.344c.005-.003-.096 1.415-.225 3.151zm96.848-.813c25.575 2.147 48.526 9.43 70.738 22.446 25.445 14.91 47.849 36.614 61.029 59.119l3.935 6.62c26.091 43.365 27.967 110.322 4.408 157.309-30.705 61.237-83.738 95.907-151.232 98.869-57.696 2.533-110.982-24.677-145.905-74.503-20.813-29.695-29.874-59.092-29.898-96.995-.022-33.613 7.941-63.172 24.365-90.447 34.575-57.417 95.063-88.085 162.559-82.419zm47.775-.366c0 .254-2.194 1.477-2.357 1.313-.092-.092.367-.447 1.018-.791 1.322-.697 1.339-.703 1.339-.522zm26.192 7.646c-4.643 2.326-2.598 3.234 3.012 1.339 1.738-.587 3.161-.971 3.161-.853s-1.198.621-2.66 1.116c-6.783 2.301-3.499 3.519 3.654 1.355 3.316-1.002 3.042-.51-.432.778-9.421 3.493-15.289 3.578-20.058.288-1.14-.786-1.57-1.945-.721-1.945.239 0 2.054-.693 4.034-1.539 4.026-1.722 4.327-1.796 3.786-.932-1.105 1.769 2.363 1.933 5.496.261 1.167-.624 2.397-1.143 2.731-1.155s-.566.567-2.003 1.287zm-186.627-.155c-.077.466-.29 2.164-.474 3.773-.747 6.522-2.339 13.239-2.861 12.069-.221-.494-.162-1.204.209-2.54.538-1.933.386-2.807-.554-3.167-.479-.184-1.403.843-1.403 1.559 0 .546-.324.491-.781-.134-1.096-1.498-2.439 1.747-3.08 7.44-.13 1.164-.295 1.67-.45 1.386-.135-.246-.067-1.637.151-3.089.567-3.786.13-5.224-1.139-3.748-.69.803-.916 1.521-1.331 4.234l-.378 2.463-.04-3.596c-.099-8.737 1.529-12.611 6.278-14.952a120.87 120.87 0 0 0 3.037-1.577c2.309-1.24 3.008-1.27 2.819-.122zm197.731 6.544c-.254.165-.739.287-1.079.273-.508-.022-.481-.07.154-.273 1.09-.349 1.465-.349.925 0zm-5.366 1.494c-.804 1.301 2.252 1.729 5.211.732 1.703-.575 6.059-1.267 5.703-.907-.084.086-1.54.522-3.234.971-3.445.912-3.84 1.144-3.217 1.894.357.43.809.485 2.746.333 2.248-.175 2.281-.168 1.123.246-1.591.569-1.935.936-1.436 1.537.519.625 1.574.6 6.672-.157 4.152-.617 6.034-.595 7.328.085.961.505-.015.844-2.436.85-1.691.003-2.635.202-4.315.907-6.436 2.699-13.968 1.733-18.751-2.402-.768-.664-1.579-1.269-1.801-1.343-.759-.256.314-1.081 1.688-1.299.715-.113 2.063-.532 2.996-.93 2.043-.874 1.922-.838 1.723-.516zM82.021 42.461c-.44 9.842-1.107 14.488-1.46 10.162-.427-5.245-2.473-3.087-2.263 2.386.069 1.778.023 3.579-.102 4.002-.141.482-.237-.233-.256-1.908-.027-2.355-.119-2.78-.768-3.533l-.737-.856-.527 1.224c-.293.682-.629 2.59-.758 4.304l-.231 3.079-.046-2.647c-.037-2.19-.148-2.74-.642-3.187-1.62-1.464-2.271 2.297-1.356 7.834.118.716.075.974-.129.77-.169-.169-.446-1.602-.616-3.186-.338-3.136-.87-4.181-1.756-3.448-.262.219-.477.587-.477.821 0 1.456-.614-.003-.926-2.204-.738-5.194.173-7.304 4.774-11.062 4.174-3.409 7.084-5.319 8.211-5.389.107-.007.136 1.269.066 2.836zm222.729-1.933c-.264.154-1.581.35-2.928.436l-2.449.156 2.158-.409c2.702-.511 3.898-.579 3.219-.182zM98.956 43.545c-.169.453-.376.58-.661.404-.338-.209-.31-.418.155-1.126.622-.95.951-.481.506.722zm-7.451 3.633c-.23 1.573-.271 1.654-.3.594-.019-.678.051-1.549.156-1.937.338-1.261.417-.527.144 1.343zm214.83 1.177c-1.093 1.315.696 1.64 4.458.809 1.517-.335 3.73-.595 4.916-.578l2.157.033-1.991.257c-4.812.622-7.599 1.57-6.618 2.252 1.017.706 2.377.82 4.14.343 1.875-.508 3.465-.577 5.737-.249 1.995.288.725.617-2.587.671-2.02.032-4.383.633-4.383 1.113 0 .793 2.449 1.122 6.794.913 4.189-.202 6.51.128 4.239.602-.857.178-8.92 1.035-11.495 1.221-4.781.346-8.998-.86-11.505-3.29-2.581-2.503-2.559-2.529 3.029-3.761l3.351-.739c.063-.015-.046.166-.242.403zM65.571 59.008c.834 6.758.867 14.053.037 8.198-.807-5.692-2.847-3.806-2.177 2.013.551 4.787.175 4.965-.592.281-.713-4.359-2.349-3.532-2.092 1.059.109 1.952.081 2.35-.095 1.346-.652-3.726-2.131-3.556-2.187.25-.023 1.477-.072 1.639-.287.924-.956-3.18-2.612-1.188-1.873 2.251.545 2.541.181 2.147-.627-.679-.614-2.145-.731-3.25-.731-6.904v-4.35l1.188-1.724c2.315-3.358 8.452-8.964 8.739-7.981.038.131.351 2.523.696 5.316zm255.763-.587c-1.599.931-.111 1.513 3.891 1.519 1.378.003 2.713.139 2.967.303.342.221.14.301-.77.31-1.541.014-4.095 1.11-3.642 1.563.173.173 2.104.52 4.29.77 5.392.616 6.561 1.105 2.093.874-3.301-.169-3.455-.149-4.29.569l-.866.745 1.053.37c.58.204 2.668.561 4.642.793 3.715.438 6.546 1.394 4.888 1.652-2.355.368-13.199-.213-15.508-.83-4.268-1.14-8.181-3.815-9.84-6.728l-.535-.94 3.617-.388 5.159-.614c2.459-.36 3.502-.348 2.851.031zM51.331 69.096c.184.635.562 2.395.84 3.911s.705 3.229.947 3.809c.563 1.346.56 1.366-.176 1.132-.9-.285-1.091.531-.68 2.903l.537 3.103c.145.841.112.964-.147.558-.184-.285-.473-1.252-.643-2.15-.408-2.149-.881-2.633-1.825-1.869l-.704.57.482 3.515c.526 3.827.474 4.793-.103 1.941-.672-3.316-1.886-4.213-2.406-1.777-.165.772-.221 1.708-.125 2.078.151.579.062.545-.623-.248-.972-1.124-1.249-.903-1.47 1.174l-.17 1.597-.812-1.553c-3.136-5.999-2.353-9.278 4.066-17.049 2.655-3.214 2.569-3.168 3.011-1.644zm136.617 1.631c-57.333 3.141-105.411 45.577-115.569 102.003-14.185 78.804 48.168 150.332 127.945 146.771 75.502-3.37 130.616-72.755 116.884-147.151-9.796-53.067-53.266-94.133-106.759-100.852-7.507-.943-14.801-1.192-22.501-.771zm145.485.931c5.985.373 8.191.825 4.263.871-3.736.044-4.278.325-3.03 1.572.509.508 1.03.616 3.004.62 1.314.003 3.013.211 3.777.461l1.387.457-2.516-.183c-5.714-.416-5.115 1.906.644 2.491 1.175.12 2.424.334 2.774.476.921.373.027.362-2.06-.024-1.647-.303-3.928.15-3.928.782 0 .323 1.947.993 3.544 1.22 1.534.218 5.1 1.294 5.394 1.628.085.097-.115.079-.444-.04s-3.033-.612-6.01-1.097c-10.494-1.707-13.782-3.231-16.671-7.728-1.481-2.305-1.895-2.242 9.872-1.506zM61.179 75.559c-.071.468-.131.158-.133-.689s.055-1.23.128-.851.076 1.072.005 1.54zm139.976.092c86.824 5.023 139.653 97.383 99.788 174.454-41.762 80.738-155.53 86.942-205.603 11.213-49.985-75.596-1.026-177.668 88.911-185.362 7.449-.638 10.281-.688 16.904-.305zm142.691 9.359c4.71 1.232 5.17 1.422 2.995 1.24-4.711-.395-2.48 1.844 2.607 2.616 3.243.492 3.146.74-.187.481-5.892-.456-4.821 1.376 1.437 2.46 5.13.889 6.357 2.604 1.537 2.15-12.011-1.134-16.846-3.546-18.624-9.293-.386-1.251 4.8-1.075 10.235.346zM42.023 91.092c1.068 2.666 2.157 7.295 1.892 8.038-.073.205-.742-.874-1.485-2.398-2.21-4.528-3.344-3.183-1.815 2.156.802 2.803.767 2.852-.332.475-1.961-4.234-3.572-2.982-1.977 1.535.599 1.697.409 1.897-.302.32-1.591-3.524-2.492-.522-1.136 3.784.884 2.808.819 3.701-.076 1.029-.809-2.419-1.571-3.42-2.041-2.679-.545.864-.292 3.225.626 5.828 1.334 3.778.959 3.34-.843-.983-2.501-6-2.908-7.439-3.067-10.849l-.143-3.079 3.782-5.196 3.783-5.197 1.021 2.244a140.6 140.6 0 0 1 2.114 4.972zm306.205 5.35c2.458.271 4.954.606 5.548.745l1.078.254-.983.031c-2.436.077-1.3.909 4.008 2.94 3.557 1.36 3.806 1.776.376.626-5.033-1.688-5.446.492-.438 2.311 1.291.469 1.42.567.582.439-.594-.091-1.41-.042-1.814.107l-.735.272.835.655c.458.361 2.129 1.157 3.713 1.771 3.294 1.274 5.814 2.759 5.621 3.312-.168.484-.315.466-6.575-.816-9.423-1.931-10.705-2.652-14.178-7.977-3.075-4.716-3.437-5.588-2.202-5.315.382.085 2.705.374 5.164.645zm-318.094 9.823c1.567 3.548 3.391 8.398 3.391 9.016 0 .081-.201.07-.448-.025-.352-.135-.467.199-.539 1.584l-.093 1.756-.85-2.617c-1-3.082-1.628-4.092-2.106-3.386-.576.848-.12 4.328.878 6.695 1.165 2.768 1.092 2.787-.489.13-2.598-4.37-3.235-2.445-.956 2.885 1.402 3.277 1.54 5.179.155 2.143-.802-1.758-2.161-3.541-2.7-3.541-.561 0-.187 2.297.828 5.103 1.686 4.651 1.178 4.214-1.754-1.51-1.027-2.004-2.325-4.244-2.884-4.977-2.326-3.044-1.473-7.44 2.87-14.782 2.392-4.045 2.208-4.104 4.695 1.526zm163.136-2.474c-3.218 2.693-12.398 7.539-18.627 9.834-18.612 6.856-40.342 7.527-62.134 1.92l-2.85-.734v3.295c0 24.899 6.745 63.801 15.517 89.479 13.508 39.547 37.47 70.834 64.984 84.848 4.347 2.214 3.604 2.211 7.931.036 45.596-22.914 76.618-88.426 80.489-169.977.394-8.316.591-7.704-2.253-7.009-30.572 7.479-59.972 3.531-79.86-10.724l-2.345-1.681-.852.713zm168.058.628c1.191.545.637.553-.77.012-.594-.228-.871-.419-.616-.424s.877.18 1.386.412zm-163.506 6.651c20.483 12.109 46.895 15.849 73.06 10.346l3.256-.685-.088 1.55c-1.319 23.087-4.333 44.12-8.961 62.518l-1.161 4.619-69.725.078-69.725.077-.353-1.308c-4.774-17.712-9.807-51.703-9.84-66.473l-.003-1.114 1.772.417c26.011 6.114 55.691 1.938 75.509-10.625l2.489-1.546c.051-.016 1.748.95 3.77 2.146zm156.879-.318c2.752.653 9.357 2.755 9.187 2.926-.054.054-.687-.058-1.405-.249-3.561-.95-2.025 1.229 2.359 3.346 2.933 1.416 5.138 2.826 4.857 3.107-.08.079-1.234-.414-2.563-1.099-2.856-1.469-4.267-1.735-4.267-.803 0 .466.719.989 2.967 2.155 4.288 2.226 5.371 3.251 1.949 1.845-4.342-1.783-5.13-.049-.908 2 2.341 1.136 1.986 1.141-2.418.029-6.774-1.709-9.561-3.837-11.862-9.059-2.309-5.239-2.307-5.242 2.104-4.198zm14.176 5.309c.002.13-.552-.045-1.23-.391-1.589-.81-1.591-1.027-.003-.361.677.283 1.231.622 1.233.752zm-347.543 7.161c3.592 5.716 6.681 11.823 5.518 10.91-.881-.693-1.289-1.246-2.153-2.912-1.475-2.844-2.27-3.231-2.27-1.107 0 .845.352 1.709 1.278 3.138 3.301 5.092 2.941 7.466-.386 2.541-2.992-4.429-3.496-2.096-.552 2.56 2.219 3.512 1.983 3.982-.477.951-2.91-3.583-3.337-.826-.517 3.343 1.705 2.523 2.322 4.626.7 2.39-.483-.667-2.206-2.631-3.829-4.365-5.432-5.804-5.711-8.367-1.888-17.312 1.846-4.321 1.944-4.324 4.575-.137zm157.061-.315c-5.175 1.691-7.941 1.844-10.943.61-2.432-1.002-2.311-1.074-2.311 1.39v2.154l-1.618-.615c-.89-.338-1.722-.614-1.85-.614s-.231 1.187-.231 2.638c0 2.958-.077 3.01-2.388 1.612l-1.003-.605v1.103 1.102h-2.003-2.003v26.328 26.327h17.268 17.269l.308.81c1.784 4.688 7.836 5.142 9.901.743l.717-1.528 17.338-.013 17.339-.012v-26.327-26.328h-2.004-2.004v-.923c0-1.057-.042-1.075-1.17-.502-2.227 1.132-2.22 1.137-2.22-1.787 0-1.451-.104-2.638-.232-2.638s-.959.276-1.849.614l-1.618.615v-2.188c0-1.96-.056-2.163-.539-1.968-4.65 1.884-6.835 1.884-12.715.002-6.111-1.957-7.833-1.909-13.197.369l-2.563 1.089-2.06-.937c-5.24-2.382-7.647-2.473-13.619-.521zm8.551.924c1.058.249 2.826.862 3.93 1.362l2.006.908v5.562 5.562h1.233 1.233v-5.562-5.562l2.009-.91c4.676-2.119 6.492-2.127 12.631-.056 3.5 1.18 7.255 1.534 9.94.936l1.002-.224v21.829 21.83l-1.556.333c-2.653.569-4.577.407-7.548-.636-5.043-1.767-11.786-1.193-15.17 1.293l-1.308.962v-5.724-5.723h-1.233-1.233v5.723 5.724l-1.309-.962c-3.384-2.486-10.128-3.06-15.17-1.293-2.972 1.043-4.895 1.205-7.548.636l-1.557-.333v-21.83-21.829l1.002.224c2.695.6 6.439.245 9.96-.946 2.916-.987 5.23-1.602 6.453-1.719.17-.016 1.175.176 2.233.425zm177.157 3.756c4.067 1.29 9.247 3.428 8.972 3.703-.069.069-.829-.23-1.688-.665-4.52-2.289-4.119.034.422 2.435 1.187.626 2.36 1.335 2.609 1.574.855.825-.46.496-2.705-.677-1.696-.884-2.328-1.068-3.098-.898-1.78.39-.763 1.399 2.973 2.948 2.703 1.12 3.923 1.901 4.418 2.825.311.578.198.557-1.156-.23-6.692-3.885-8.638-3.437-2.384.549 3.672 2.34 3.494 2.6-.566.824-8.85-3.872-11.07-5.785-12.659-10.91-.94-3.034-.954-3.311-.158-3.064l5.02 1.586zm-199.037 22.18l.079 20.704 1.246.634c2.972 1.515 6.895 1.503 10.925-.032 5.383-2.051 13.193-.28 15.111 3.426.673 1.3.587 1.313-.945.145-3.79-2.889-10.099-3.327-17.031-1.179-2.796.866-7.196.897-9.695.067l-1.156-.383v-22.141-22.14l.693.099.693.098.08 20.702zm59.563 1.263v22.119l-1.156.383c-2.499.83-6.899.799-9.696-.067-6.927-2.146-12.85-1.756-16.844 1.112-1.738 1.247-1.864.758-.296-1.142 2.69-3.26 10.211-4.247 15.2-1.996 2.721 1.228 8.243.924 10.557-.579l.694-.45v-20.544l.206-20.75c1.352-1.351 1.335-1.619 1.335 21.914zM160.952 133.1c.438.168.488 2.283.488 20.752v20.564l1.269.507c4.248 1.698 8.059 1.823 12.625.416 4.952-1.526 12.965-1.298 14.015.397.1.163-.165.155-.621-.018-3.264-1.24-6.294-1.021-12.995.938-6.282 1.836-8.993 1.914-13.908.397l-1.617-.5v-21.819l.128-21.821c.071 0 .348.084.616.187zm67.374 21.537v21.724l-1.002.413c-4.306 1.775-8.472 1.741-14.832-.118-6.701-1.959-9.731-2.178-12.996-.938-.455.173-.721.181-.62.018 1.05-1.697 9.374-1.925 14.154-.386 4.354 1.402 8.242 1.269 12.486-.427l1.269-.507v-20.572c0-21.22-.021-20.833 1.155-20.906.305-.02.386 4.512.386 21.699zm-210.37-9.561c1.492 1.956 3.548 5.539 3.548 6.187 0 .143-.837-.567-1.86-1.578-2.496-2.466-3.441-1.28-1.357 1.703l1.503 2.156c1.624 2.329 1.338 2.956-.51 1.125-3.737-3.703-4.8-1.897-1.327 2.255 2.414 2.886 2.204 3.497-.378 1.109-1.923-1.78-2.236-1.847-2.236-.481 0 .768.596 1.72 2.649 4.229 1.179 1.439.696 1.233-1.263-.539-2.649-2.398-3.262-1.357-1.188 2.02 3.153 5.134 2.543 4.786-3.267-1.866-4.839-5.54-5.119-10.269-1.202-20.338l1.034-2.659 2.104 2.261c1.308 1.421 2.559 2.895 3.75 4.416zm351.216-3.24c4.228 1.683 6.64 2.916 8.542 4.368 1.889 1.443 2.54 2.507.951 1.555-4.161-2.491-5.526-3.189-5.932-3.035-.798.307-.544.612 2.387 2.882 4.874 3.773 7.602 7.074 3.622 4.38-2.12-1.433-3.592-2.137-4.474-2.137h-.801l.557.968c.306.532 1.805 1.899 3.331 3.037 6.732 5.022 5.405 5.075-3.698.149-6.325-3.423-7.99-5.417-9.39-11.256-.846-3.522-.852-3.494.571-2.769.66.336 2.61 1.172 4.334 1.858zm-196.56-.482c-1.4.384-2.631.783-2.735.887-.396.395.204 1.141.917 1.141 1.354 0 1.454.477 1.364 6.507l-.084 5.656-1.075.154c-.701.101-1.112.342-1.179.693-.094.492.263.539 4.081.539 3.932 0 4.184-.036 4.184-.596 0-.449-.251-.621-1.002-.693l-1.002-.097-.082-7.467c-.063-5.681-.174-7.462-.463-7.444-.209.013-1.525.336-2.924.72zm10.558-.062c-3.182 1.824-3.517 7.399-.559 9.336 1.328.869 3.545.79 4.584-.163l.839-.771-.194 1.94c-.107 1.066-.352 2.243-.545 2.617-.979 1.893-2.429 2.431-2.429.901 0-1.886-1.991-2.963-3.214-1.74-2.245 2.242 2.245 4.883 5.789 3.404 4.565-1.906 5.699-12.464 1.649-15.345-1.442-1.026-4.291-1.112-5.92-.179zm14.179.008c-3.415 1.977-4.939 9.062-2.832 13.168 2.528 4.929 9.661 3.31 10.017-2.274.276-4.329-3.346-6.992-6.48-4.763l-.93.662.226-1.662c.397-2.917 1.343-4.588 2.598-4.588.182 0 .329.4.329.889 0 1.795 1.963 2.937 3.236 1.883 2.747-2.277-2.803-5.262-6.164-3.315zm11.404-.271c-3.046 1.407-3.624 5.741-.765 5.741 1.583 0 2.238-1.549 1.363-3.225-.44-.843-.435-.947.06-1.309 1.502-1.097 3.196.308 3.196 2.652 0 2.188-.222 2.597-3.515 6.496-2.441 2.889-2.959 3.682-2.959 4.525v1.022h3.815c2.097 0 4.227.083 4.733.183l.918.184.507-2.768c.622-3.392.629-3.142-.105-3.142-.404 0-.76.353-1.044 1.033-.493 1.178-1.253 1.431-4.307 1.431h-1.879l.637-.638c.351-.35 1.8-1.432 3.221-2.403 3.645-2.494 4.674-4.915 3.254-7.659-1.109-2.143-4.744-3.225-7.13-2.123zm-21.546 1.462c.86.949.851 5.154-.013 6.108-1.587 1.752-3.019.126-2.875-3.265.133-3.138 1.447-4.433 2.888-2.843zm12.93 6.56c.757.553 1.021 4.803.375 6.032-.899 1.714-2.791.967-3.166-1.25-.582-3.437.978-6.106 2.791-4.782zm173.713 8.598c1.996.898 7.363 3.821 7.821 4.26.547.525-1.226-.266-2.89-1.289-4.913-3.02-5.079-1.13-.22 2.521 2.103 1.58 3.77 2.928 3.704 2.996-.114.116-.484-.123-3.98-2.583-1.334-.94-2.933-1.433-2.933-.906 0 .574.793 1.422 2.075 2.219 1.721 1.069 5.913 5.051 6.72 6.382.311.513-.163.133-1.068-.855-1.765-1.93-2.939-2.685-4.167-2.685-1.139 0-1.043.182 1.717 3.235 2.691 2.975 4.989 6.06 3.67 4.924-.393-.339-1.182-1.34-1.753-2.224-1.229-1.903-1.987-2.41-2.89-1.927-.511.273-.924.164-2.235-.592-6.017-3.472-10.083-9.643-10.083-15.303v-1.023l2.388 1.035 4.124 1.815zm-362.975 6.98c5.182 5.617 7.147 9.236 6.938 12.778a580.67 580.67 0 0 0-.198 5.453l-.162 4.837-1.751-.769c-2.512-1.103-5.761-3.327-8.022-5.491-2.498-2.392-3.431-3.995-1.228-2.109.452.386.551.371.812-.124.411-.785.022-1.595-1.451-3.013-.694-.669-1.263-1.398-1.263-1.617 0-.731.882-.412 1.43.515.6 1.014 1.113 1.31 1.806 1.044.754-.288.538-1.148-.769-3.072-1.494-2.197-1.612-2.954-.286-1.84 2.189 1.841 2.437-.038.397-3.001-1.68-2.439-1.291-4.232.538-2.482 1.813 1.735 1.87-.462.074-2.832-.725-.955-.982-2.114-.427-1.92.164.056 1.767 1.695 3.563 3.643zm363.797 8.742c4.328 2.857 7.154 5.274 8.826 7.548 1.659 2.258 1.332 2.244-.98-.042-1.144-1.131-2.596-2.271-3.226-2.532-2.595-1.075-2.403-.564 1.262 3.364 2.508 2.689 5.476 6.938 4.846 6.938-.089 0-1.081-1.144-2.207-2.541-2.007-2.493-3.767-3.921-4.837-3.923s-.476.932 2.898 4.525c1.864 1.985 3.951 5.02 3.958 5.756.001.15-.504-.403-1.122-1.232-2.34-3.133-4.652-4.95-5.37-4.223-.137.139.935 1.915 2.381 3.947 2.564 3.602 4.296 6.542 4.018 6.82-.076.076-.726-.804-1.444-1.955-1.687-2.703-3.619-4.71-4.534-4.71-1.138 0-.869 1.041.844 3.274 1.359 1.773 2.765 4.088 2.765 4.558 0 .399-4.797-5.021-6.199-7.004-2.871-4.062-5.06-9.07-5.807-13.279-.334-1.887-.454-7.872-.157-7.872.093 0 1.93 1.163 4.085 2.583zM10.28 187.514c6.545 4.748 8.533 10.23 7.021 19.365l-.188 1.143-1.889-1.325c-1.038-.729-3.05-2.005-4.47-2.837-3.128-1.831-5.092-3.507-6.255-5.338-1.274-2.009-1.098-2.059 1.157-.333 5.108 3.911 5.656 2.852 1.052-2.033-3.536-3.752-4.449-5.812-1.233-2.78 2.299 2.167 3.912 3.189 4.347 2.754s-.883-2.704-2.191-3.753c-1.378-1.107-2.639-3.092-3.248-5.112l-.414-1.377 2.606 2.67c2.789 2.855 3.477 3.059 2.867.849-.392-1.421-1.103-2.529-2.857-4.454-1.128-1.237-1.148-1.283-.183-.427.594.527 2.339 1.871 3.879 2.988zm91.701 5.231c-.38 2.352-1.442 5.013-2.274 5.701-.516.426-.561.33-1.321-2.811-.284-1.175-1.422-1.91-2.263-1.461-1.115.596-1.262 1.287-.751 3.524.569 2.492.51 2.58-1.283 1.896-1.824-.696-4.076-2.491-5.237-4.176-1.115-1.617-1.354-1.005-.792 2.032.908 4.908 4.661 8.988 9.33 10.142.736.181 2.712 4.607 2.712 6.074 0 1.078-4.462-.949-6.809-3.095l-1.724-1.575.232 1.449c.856 5.342 4.252 9.058 9.627 10.534l1.786.49 1.033 2.374c1.159 2.662 1.129 2.758-.72 2.343-1.919-.43-3.614-1.377-5.321-2.973-1.828-1.708-1.976-1.61-1.332.87 1.462 5.633 4.596 8.316 11.289 9.66.658.132 1.091.698 2.249 2.937l1.434 2.774h-1.707c-2.063 0-4.261-.79-6.335-2.279-1.959-1.406-1.961-1.405-1.263.43 2.016 5.299 5.742 8.179 11.06 8.55l2.246.156 1.376 2.124c1.655 2.556 1.642 2.313.133 2.567-1.663.281-4.038-.302-6.386-1.568-2.184-1.177-2.335-.993-1.029 1.259 2.459 4.243 5.722 6.276 10.51 6.549l2.816.159 1.518 2.005c1.806 2.382 1.817 2.442.462 2.696-1.369.258-3.797-.271-5.721-1.245-1.972-.999-1.979-.996-1.214.504 2.09 4.093 5.662 6.168 10.612 6.167h2.466l1.518 1.731 1.519 1.73-1.057.433c-1.283.525-4.102.347-6.248-.395-1.914-.662-1.944-.595-.543 1.18 2.658 3.365 6.563 4.938 10.556 4.254l2.242-.384 1.691 1.689 1.689 1.689-.906.35c-.903.35-4.855.241-6.762-.188-1.431-.32 1.962 3.034 4.161 4.114 1.782.877 5.641 1.167 7.871.593.88-.226 4.67 2.107 4.746 2.921.051.561-3.293.822-5.836.454l-1.696-.245 1.387 1.418c2.606 2.663 6.588 3.788 10.073 2.846l1.595-.431 4.122 2.692c10.63 6.942 25.845 14.186 27.51 13.097 1.85-1.211.925-2.486-2.921-4.027-7.108-2.85-15.663-7.331-22.539-11.807l-3.581-2.331-.171-2.019c-.307-3.626-2.299-6.725-5.745-8.935-2.135-1.368-2.243-1.192-.892 1.45 1.005 1.966 1.203 2.642 1.123 3.834l-.097 1.448-1.696-1.407-1.695-1.407-.181-2.658c-.279-4.108-2.032-7.003-5.718-9.447-2.116-1.404-2.235-1.28-1.046 1.073 2.153 4.262 1.889 6.594-.492 4.324l-1.579-1.504-.138-2.709c-.182-3.553-1.215-5.663-4.086-8.347-2.608-2.437-3.179-2.497-2.138-.226.821 1.793 1.422 4.706 1.091 5.298-.124.221-.74-.266-1.622-1.283l-1.422-1.641.263-1.643c.541-3.363-.77-7.035-3.587-10.053-1.973-2.114-2.094-2.05-1.368.713.596 2.273.708 3.929.33 4.89-.357.907-3.224-3.051-2.983-4.119 1.2-5.326.696-8.192-2.136-12.163-2.466-3.457-3.105-3.697-2.452-.922.518 2.2.571 5.014.117 6.207l-.328.861-1.384-2.148c-.932-1.446-1.325-2.35-1.205-2.766.785-2.724 1.087-4.135 1.087-5.081 0-2.61-1.726-6.943-3.696-9.276l-.877-1.04.173 2.987c.163 2.799-.256 5.789-.81 5.789-.108 0-.813-1.157-1.564-2.57l-1.366-2.571.904-1.972c1.691-3.683 1.133-8.89-1.364-12.748l-.797-1.232-.189 2.617c-.201 2.778-.67 4.707-1.379 5.676-.519.709-.406.844-1.59-1.892l-.962-2.222 1.134-2.206c1.877-3.657 1.777-7.872-.292-12.211-1.198-2.511-1.399-2.431-1.561.615-.13 2.475-1.326 6.082-2.016 6.082-.758 0-2.241-5.966-1.642-6.607 2.715-2.909 3.349-8.401 1.531-13.256-.876-2.338-1.073-2.306-1.485.251zm184.35-.634c-1.895 5.08-1.509 9.62 1.131 13.307l.889 1.243-.961 2.77c-.53 1.525-1.101 2.772-1.271 2.772-.772 0-1.775-2.966-1.932-5.711-.186-3.272-.366-3.367-1.574-.832-2.01 4.214-2.167 8.75-.424 12.285 1.218 2.47 1.216 2.27.058 4.811-1.341 2.939-2.755.654-2.755-4.45 0-2.805-.289-2.824-1.651-.102-2.03 4.053-2.274 8.343-.674 11.859l.842 1.847-1.339 2.539c-.737 1.396-1.425 2.539-1.531 2.54-.549.005-.963-3.001-.798-5.787l.178-2.987-.894 1.078c-2.013 2.429-3.688 6.625-3.688 9.238 0 .946.302 2.357 1.087 5.081.12.416-.274 1.32-1.206 2.766l-1.383 2.148-.328-.861c-.454-1.193-.402-4.007.116-6.207.558-2.371.389-2.475-1.171-.712-3.628 4.1-4.875 8.325-3.74 12.679.257.981.369 1.946.252 2.144-1.229 2.061-2.694 3.595-2.968 3.105-.387-.689-.072-4.236.524-5.902.617-1.727.292-1.651-1.633.382-2.834 2.993-4.249 7.236-3.496 10.482.283 1.218.257 1.274-1.391 3.079l-1.679 1.838.152-1.871c.083-1.028.509-2.754.945-3.834.995-2.46.908-2.531-1.155-.941-3.166 2.44-4.843 5.703-4.919 9.571l-.045 2.31-1.59 1.478c-.988.917-1.67 1.351-1.8 1.141-.408-.658.232-3.473 1.247-5.488 1.248-2.475 1.197-2.56-.775-1.295-3.96 2.538-6.61 7.419-6.023 11.092.161 1.016.069 1.161-1.609 2.516l-1.779 1.439-.098-1.264c-.107-1.375.554-3.415 1.692-5.231.967-1.542.401-1.515-2.01.094-3.233 2.156-4.958 5.007-5.216 8.619l-.145 2.026-3.676 2.382c-6.97 4.514-14.457 8.432-21.987 11.505-4.513 1.841-5.403 2.953-3.41 4.257 1.763 1.154 18.237-6.828 29.133-14.116l2.49-1.665 1.613.436c3.408.921 6.912-.012 9.803-2.608 1.861-1.672 1.832-1.726-.729-1.318-1.962.313-5.18-.035-5.129-.554.079-.809 3.874-3.135 4.746-2.91 3.854.992 7.823-.02 10.825-2.761 1.867-1.704 2.1-2.254.822-1.931-2.798.707-6.416.704-7.126-.005-.657-.656 3.251-3.495 4.43-3.218 4.1.963 8.025-.353 11.038-3.7 1.473-1.637 1.819-2.364.971-2.039-2.139.82-4.138 1.175-5.782 1.026-2.584-.235-2.68-.485-.939-2.442l1.493-1.676 2.619-.014c4.407-.021 7.479-1.664 9.752-5.215 1.391-2.173 1.316-2.365-.582-1.486-2.288 1.061-4.54 1.515-5.882 1.186l-1.107-.271 1.694-2.232 1.694-2.232h2.12c5.076 0 8.898-2.382 11.227-6.995 1.06-2.1 1.071-2.085-.808-1.039-2.77 1.542-6.444 2.323-7.574 1.607-.313-.199-.085-.756.991-2.418l1.398-2.16 2.458-.143c5.211-.3 9.685-4.094 10.999-9.324l.226-.9-1.599 1.174c-2.1 1.539-4.274 2.338-6.365 2.338h-1.695l1.39-2.766c1.151-2.29 1.536-2.794 2.238-2.937 6.728-1.364 9.878-4.032 11.328-9.594.64-2.456.636-2.461-1.003-1.014-1.977 1.745-4.266 3.014-5.868 3.254-1.755.263-1.748.294-.579-2.483l1.015-2.413 1.578-.403c4.853-1.242 7.904-4.102 9.361-8.779 1.041-3.343.851-3.628-1.126-1.683-1.882 1.849-3.813 2.925-5.708 3.178l-1.24.167.586-1.505c.391-1.022.76-2.052 1.105-3.091.495-1.508.598-1.611 2.124-2.104 5.121-1.653 8.852-6.65 8.845-11.847l-.001-1.09-1.699 1.902c-1.66 1.859-4.733 3.794-6.026 3.794-.499 0-.507-.118-.108-1.617.776-2.913.38-4.233-1.271-4.233-.921 0-1.493.868-1.99 3.022l-.379 1.637-.732-.687c-.945-.887-1.936-3.552-2.177-5.854-.234-2.235-.501-2.276-1.277-.197zm91.649 7.313c3.692 3.826 5.03 5.59 6.144 8.093 1.269 2.852 1.26 3.683-.016 1.55-1.634-2.729-3.679-4.684-4.277-4.088-.395.395-.188.884 1.687 3.991 1.845 3.057 3.392 6.874 2.96 7.306-.063.063-.683-.919-1.377-2.182-2.997-5.455-4.765-4.614-1.938.922 2.523 4.94 3.011 6.961.94 3.885-3.546-5.266-4.395-4.211-1.331 1.654 1.509 2.889 2.073 4.31 2.201 5.542.211 2.046-.25 2.184-1.185.353-.365-.715-2.019-3.324-3.674-5.796-6.075-9.075-6.584-10.748-6.284-20.641l.212-6.954 1.261 1.412c.694.776 2.799 3.005 4.677 4.953zm-186.642 41.724l-.2 46.651c-.504-.001-8.289-4.871-11.144-6.971-2.97-2.187-3.143-2.373-2.683-2.88.379-.419 3.176-28.011 3.238-31.95.001-.043.216-.077.479-.077 1.572 0 3.204-1.985 2.766-3.365-.194-.61-.092-.638 2.298-.638 2.994 0 4.013-.667 4.013-2.624 0-2.582-1.255-3.227-6.285-3.227h-3.531l1.192-2.079c4.438-7.745 3.415-15.162-3.095-22.401-4.174-4.642-5.817-9.351-4.685-13.441.282-1.022.244-1.152-.438-1.516-1.96-1.049-10.002 9.681-11.674 15.573-.289 1.016-.999 2.817-1.579 4.003-3.338 6.827-2.882 13.409 1.241 17.914l1.742 1.902-4.624.1c-5.409.116-6.316.548-6.316 3.007 0 2.057.98 2.789 3.739 2.789h2.257v1.204c0 1.164.994 2.462 2.189 2.86.285.096 2.264 18.054 2.017 18.305-.307.311-8.696-10.83-12.671-16.827-9.768-14.734-20.825-39.25-23.434-51.961l-.206-1.002h32.697 32.697v46.651zm70.697-45.034c-2.191 7.517-6.155 18.46-9.228 25.482l-1.757 4.012-1.628-1.796c-4.954-5.469-19.341-7.018-23.293-2.508-.275.315-.586.488-.69.383-.469-.468-5.041 2.237-6.829 4.04-4.828 4.869-6.229 12.795-3.281 18.556.804 1.571 1.284 1.925 1.284.946 0-1.144 1.384-3.628 3.08-5.53 2.603-2.917 3.379-5.599 2.338-8.088-.38-.908-.38-1.027 0-.881 1.929.74 3.192-1.458 3.213-5.594.014-3.004.005-3.005 1.278.077.227.55.518 1.001.646 1.001s.234.407.234.906.138.991.307 1.095.309.587.309 1.074.173 1.066.385 1.29.433.823.491 1.331.301 1.142.54 1.41.434.918.434 1.445.134 1.04.297 1.142.222.562.131 1.023.032 1.42.278 2.13.383 1.614.308 2.005.069 1.306.319 2.03c.297.86.398 1.937.292 3.107-.09.984-.028 2.031.137 2.325.203.364.171.897-.101 1.659-.476 1.329-.554 3.628-.132 3.888.173.106.044.597-.307 1.172-.356.584-.605 1.543-.605 2.336-.003 3.537-15.943 19.392-26.201 26.062-2.889 1.878-7.41 4.462-7.809 4.462-.113 0-.205-21.062-.205-46.804v-46.805h33.118 33.118l-.471 1.617zm-90.499 5.442c.168 3.927 1.542 6.802 5.334 11.167 4.809 5.537 6.309 9.979 5.102 15.11-.799 3.396-3.503 8.233-4.605 8.233-.436 0-.242-.364.861-1.615 5.57-6.325 4.743-13.227-2.425-20.246-2.485-2.434-4.499-5.42-4.499-6.67 0-.943-.644-.291-1.519 1.541-2.633 5.51-1.805 10.759 2.43 15.412 3.188 3.502 4.036 6.333 3.059 10.211-.424 1.681-2.429 2.167-2.429.588 0-1.522-1.602-3.958-4.545-6.912-7.989-8.017-7.572-15.791 1.426-26.558l1.732-2.078c0-.004.034.814.078 1.817zm-158.01 8.617c3.922 3.906 5.472 7.94 6.02 15.66l.202 2.853-1.377-.769c-.758-.423-2.79-1.387-4.517-2.142-3.565-1.556-6.265-3.336-7.584-4.996-1.007-1.266-.727-1.156 1.497.59 1.359 1.068 3.574 2.382 4.015 2.382.458 0 .045-.994-1.043-2.511l-1.209-1.687.897.131c1.511.222.574-1.546-2.396-4.522-2.722-2.726-3.725-4.047-2.629-3.46.325.173 1.091.926 1.703 1.673 1.075 1.31 2.801 2.356 3.213 1.945.398-.397-.857-2.37-2.906-4.567-3.962-4.253-3.959-4.254.961-.536 1.486 1.123 1.729 1.132 1.715.062-.017-1.273-.55-2.009-2.887-3.98-1.171-.986-2.348-2.132-2.619-2.545-.949-1.448 6.184 3.671 8.943 6.419zm202.471-3.087c-2.865.924-4.86 2.155-5.546 3.423-.287.531 6.316.506 6.962-.025.227-.187.456.119.702.941.275.915.809 1.559 2.151 2.59 2.076 1.596 3.17 2.941 4.2 5.163.652 1.407.758 1.507.892.851.084-.409.527-2.368.984-4.352 1.034-4.481.938-6.013-.465-7.461-1.721-1.772-6.272-2.293-9.88-1.13zm18.956 2.155c-4.356 1.26-7.204 4.316-8.76 9.399-.77 2.516-.751 2.562.614 1.541 2.627-1.967 6.925-3.663 11.228-4.431 2.356-.419 3.404-.924 3.672-1.768.152-.482.513-.536 3.029-.451 2.917.099 6.365-.611 6.616-1.362.174-.522-3.331-2.23-5.949-2.899-3.046-.779-7.814-.791-10.45-.029zm-26.852 4.475c-4.312 1.045-7.207 4.418-7.207 8.395 0 1.551.025 1.565 1.071.595.438-.405 1.734-1.23 2.882-1.832s2.34-1.374 2.648-1.715l.562-.62.552.681c.607.75 1.546.804 8.774.51 2.746-.111 3.698-.03 5.006.426 1.626.566 2.754 1.447 1.284 1.003-1.828-.553-8.187-.573-10.613-.034-11.17 2.483-16.697 12.882-11.664 21.947 1.34 2.414 1.158 2.48 3.351-1.19 2.033-3.403 2.423-4.328 2.749-6.522.189-1.261.305-1.449.8-1.293 1.25.396 3.229-1.282 5.476-4.644 2.125-3.179 5.759-6.072 9.102-7.246 1.746-.613 1.98-1.037 1.284-2.328-2.412-4.475-10.368-7.513-16.057-6.133zM7.326 217.501c0 .232-.277-.012-1.554-1.372l-1.374-1.462 1.464 1.372c.806.755 1.465 1.413 1.465 1.462zm368.199 5.479c3.151 3.92 5.182 7.317 5.568 9.315.31 1.616-.297 1.152-1.212-.924-1.023-2.324-2.823-4.85-3.454-4.85-.869 0-.478 1.723 1.055 4.652 1.405 2.685 2.982 6.971 2.677 7.275-.073.073-.614-.883-1.204-2.124-1.181-2.486-2.031-3.45-2.887-3.275-.781.16-.624.781 1.161 4.589 1.524 3.249 2.222 6.151 1.576 6.55-.187.116-.539-.473-.85-1.421-1.09-3.327-2.478-5.284-3.163-4.459-.255.307-.071 1.236.727 3.694 1.387 4.275 1.372 5.162-.044 2.497a50.68 50.68 0 0 0-2.261-3.797c-4.924-7.303-5.862-11.034-4.181-16.644.424-1.415.771-2.832.771-3.15s.22-1.544.489-2.727l.489-2.149.762 1.472c.418.81 2.209 3.275 3.981 5.476zm-145.755-.938c2.435.519 5.113 1.425 9.652 3.265 2.543 1.031 3.65 1.319 5.163 1.341l1.925.027.001.99c0 .672.315 1.347.977 2.102l.978 1.112-1.178 2.209c-2.025 3.801-4.467 7.918-7.03 11.851-2.599 3.986-3.151 4.301-2.808 1.598.101-.804.016-1.774-.203-2.31a5.18 5.18 0 0 1-.31-1.931c.037-.555-.206-1.593-.54-2.31s-.685-1.841-.782-2.501-.459-1.499-.804-1.867-.628-.909-.628-1.203c0-.714-.864-2.351-1.242-2.351-.165 0-.3-.394-.3-.876s-.275-1.125-.616-1.434-.617-.874-.617-1.261-.141-.79-.312-.897-.512-.669-.756-1.25-.587-1.056-.765-1.056-.324-.154-.324-.342-.568-1.02-1.262-1.848c-1.42-1.695-1.364-1.728 1.781-1.058zm-64.656 8.019c1.835 1.864 3.634 3.978 3.999 4.697l.662 1.309h-1.979-1.977l-2.267-2.315c-3.298-3.369-4.58-6.574-3.827-9.572.213-.849.229-.837 1.135.815.515.944 2.376 3.158 4.254 5.066zm-147.689 1.787c3.036 2.244 4.436 4.776 5.951 10.774.516 2.042 1.117 4.141 1.337 4.666l.399.954-4.547-1.133c-6.554-1.632-8.382-2.547-10.505-5.258l-1.033-1.319 1.077.804c2.997 2.239 4.928 3.09 4.928 2.174 0-.709-1.979-3.09-3.216-3.873-1.755-1.107-1.782-1.247-.097-.482 4.289 1.945 3.313-.557-1.156-2.962-4.17-2.245-4.581-2.922-.714-1.178 4.723 2.129 4.761.216.043-2.139-1.216-.608-2.3-1.247-2.407-1.42-.383-.619.944-.291 2.461.608 1.937 1.148 3.378 1.256 3.068.231-.337-1.115-1.639-2.294-3.497-3.168-1.972-.929-2.701-1.508-3.276-2.605-.493-.943 8.488 3.336 11.183 5.326zm351.82 9.395c3.524 5.397 5.176 8.917 5.688 12.114.3 1.878-.379 1.261-1.001-.909-.59-2.053-.909-2.524-1.711-2.524-.991 0-.989.812.013 4.243.915 3.135 1.325 7.104.694 6.714-.146-.09-.446-.807-.666-1.594-.393-1.398-1.62-3.205-2.178-3.205-.438 0-.33 2.207.19 3.877.784 2.517 1.078 4.439.873 5.712-.245 1.536-.368 1.394-.732-.848s-.83-3.406-1.462-3.649c-.912-.349-1.149.34-.759 2.202.569 2.711.252 2.262-.851-1.205-3.52-11.064-3.983-17.518-1.634-22.794 1.002-2.251.768-2.374 3.536 1.866zm-181.359-2.959c.54.539.452 1.417-.17 1.709-.395.185-30.77.279-33.268.103-.671-.048-.838-1.33-.23-1.773.777-.568 33.102-.605 33.668-.039zm-6.238 4.077c.478.356.529.556.256 1.001-.32.52-1.053.557-11.096.557h-10.755l-.095-.821c-.131-1.128-.363-1.105 11.055-1.145 8.298-.03 10.139.041 10.635.408zm-16.817 5.069c0 1.575 1.099 17.633 1.373 20.046l.156 1.385-1.003-1.078-1.004-1.078-.868-9.699-1.028-10.392c-.146-.633-.048-.693 1.107-.693h1.267v1.509zm4.931 11.635v13.144l-.866-.828-.866-.83-.382-9.005-.569-12.315-.185-3.31h1.434 1.434v13.144zm4.515-10.143c-.104 1.652-.335 7.507-.512 13.011l-.489 11.621-.167 1.615-.739-.537-.739-.537-.01-14.087-.009-14.087h1.427 1.426l-.188 3.001zm4.408-2.617c-.185 4.401-2.729 30.193-3.006 30.47-.957.957-.977-.393-.203-13.935 1.049-18.319.869-16.919 2.168-16.919.649 0 1.05.148 1.041.384zm-160.531 3.634c6.409 2.36 9.553 5.114 10.255 8.984.114.63.635 2.056 1.156 3.17s1.052 2.488 1.181 3.054l.233 1.032-1.089-.455c-.6-.251-3.183-.934-5.739-1.52-3.058-.7-5.419-1.444-6.895-2.171-2.751-1.357-2.757-1.682-.009-.451 2.584 1.158 3.642 1.376 4.713.969l.872-.331-.871-.909c-.48-.501-2.063-1.401-3.536-2.011-1.466-.607-3.072-1.432-3.569-1.833l-.904-.728 1.079.255a26.03 26.03 0 0 1 2.427.749c1.715.629 3.429.656 3.429.053 0-.668-1.596-1.665-3.941-2.461-2.036-.692-4.073-1.614-4.073-1.843 0-.063.797.215 1.771.615 1.754.721 4.701 1.01 4.701.462 0-.68-1.968-1.836-3.954-2.323-2.005-.491-3.443-1.337-3.443-2.027 0-.413-.014-.418 2.29.782 1.752.913 3.874 1.426 3.874.939 0-.635-.873-1.736-1.802-2.274-1.532-.886-1.153-.831 1.843.273zm343.636 5.776c0 .286.832 2.982 1.849 5.989 2.513 7.431 3.05 9.484 3.245 12.378l.167 2.477-.76-1.974c-.761-1.974-2.123-3.739-2.554-3.308-.126.126.01 1.644.301 3.371s.518 3.905.503 4.836l-.027 1.694-.404-1.858c-.421-1.931-1.554-4.634-2.077-4.957-.963-.594-1.087.679-.366 3.736.746 3.169 1.005 7.009.432 6.436-.169-.168-.459-1.129-.645-2.133-.858-4.638-2.71-4.919-1.978-.301.617 3.889.862 7.237.529 7.237-.163 0-.356-1.155-.43-2.567-.095-1.795-.316-2.875-.736-3.594-1.139-1.949-1.34-1.575-1.432 2.674l-.087 3.949-.679-2.624c-2.422-9.367-1.253-19.693 3.349-29.588 1.167-2.511 1.799-3.168 1.8-1.873zm-332.412 13.73c3.246 1.481 5.04 3.697 8.616 10.646l2.466 4.792-1.233-.096c-3.51-.271-9.777-1.075-11.404-1.463-1.922-.458-1.795-.455 2.157.036 4.202.524 1.662-1.835-3.625-3.366-1.469-.426-2.919-.918-3.221-1.094-1.003-.584 1.169-.384 2.531.231 2.268 1.027 4.47 1.064 4.47.075 0-.368-2.682-1.876-5.006-2.814-2.346-.946-2.092-1.044.701-.271 2.114.585 2.307.593 2.654.119.829-1.133-.332-1.952-4.336-3.054-2.287-.63-4.494-1.539-4.494-1.853 0-.071.656.162 1.459.517 2.15.949 5.63 1.152 5.63.328 0-.713-1.632-1.597-4.42-2.391-2.26-.644-2.156-.907.119-.302 3.034.806 4.179.599 3.144-.569-.735-.828 1.496-.517 3.791.529zm322.36 8.136c.606.981 2.344 13.397 2.328 16.633-.025 5.075-.436 7.089-.632 3.097-.105-2.122-.3-3.192-.693-3.791-1.083-1.652-1.283-.893-1.179 4.469.121 6.314-.535 8.373-1.089 3.413-.29-2.596-.936-4.366-1.594-4.366-.406 0-.648 2.481-.69 7.047-.035 3.874-.06 4.04-.322 2.203-.735-5.138-1.992-4.937-1.84.295.115 3.986-.287 6.614-.976 6.383-1.054-.352-.236-21.032 1.026-25.966 1.203-4.705 4.837-10.749 5.661-9.417zM40.65 289.055l2.723.638 2.787 3.749c1.533 2.061 3.208 4.58 3.721 5.595l.935 1.848-1.634.2c-2.404.296-9.823.262-8.824-.039 2.885-.871.978-2.059-4.368-2.722l-2.312-.287 3.359.039c4.427.049 4.698-1.034.541-2.152l-1.434-.387 1.446-.02c2.502-.036 2.235-1.464-.441-2.358l-1.622-.542 1.002-.263c.55-.144 1.002-.395 1.002-.558 0-.785-4.386-2.69-7.219-3.135-.325-.052 1.255-.127 3.511-.169 3.269-.061 4.656.053 6.826.563zm-9.129 2.439c.847.312 1.333.567 1.079.567s-1.156-.255-2.004-.567-1.332-.569-1.078-.569 1.155.255 2.003.569zm.84 3.077c1.106.674.606.821-.948.28-.535-.187-.894-.463-.799-.616.256-.416.63-.343 1.747.336zm2.939.828c-.295.077-.85.08-1.233.007s-.143-.137.536-.14.991.057.697.133zm305.922 10.261c.054 8.036-.027 10.686-.364 12.001-.561 2.188-.902 1.447-.932-2.027-.012-1.372-.177-2.937-.365-3.479-.876-2.51-1.959.912-1.517 4.797.29 2.552.149 4.596-.339 4.897-.146.091-.267.442-.267.781s-.139.53-.307.425-.309-1.494-.309-3.107c0-4.294-1.299-6.976-1.663-3.436l-.555 5.312-.389 3.695-.169-2.49c-.109-1.608-.36-2.78-.707-3.31-1.113-1.698-1.366-1.09-1.741 4.199-.253 3.565-1.051 6.681-1.712 6.681-.105 0-.113-.124-.019-.276s.454-3.305.8-7.006c1.123-12.011 2.374-17.442 5.081-22.038 1.381-2.345 4.647-6.184 5.126-6.024.157.052.308 4.618.348 10.405zm-305.039-4.683c-.486.06-1.007-.012-1.155-.16-.155-.155.222-.202.885-.11 1.064.146 1.085.168.27.27zm16.987 4.531c2.001.593 8.98 7.99 8.238 8.731-.249.249-8.438.55-8.286.306.206-.33-.708-.919-2.096-1.352-.726-.227-1.092-.422-.814-.433s.831-.284 1.229-.607l.724-.585-1.075-.473c-.592-.26-1.491-.569-2-.688l-.924-.213 1.001-.275c.551-.152 1.002-.453 1.002-.667 0-.945-.761-1.131-4.642-1.131-6.097 0-7.952-.424-2.694-.615 4.613-.169 5.403-.441 4.424-1.522-.454-.501-1.033-.629-3.214-.713-1.477-.057-.39-.131 2.447-.166 3.818-.047 5.505.054 6.679.403zm-9.397 4.986c-.46.073-.928.073-1.388 0-.381-.074-.069-.134.694-.134s1.074.06.693.134zm284.215 4.17c-.398 9.008-1.227 15.069-2.556 18.707l-.619 1.693.225-1.848c.311-2.552.24-5.035-.157-5.431-.523-.523-1.308.96-1.508 2.853-.154 1.185-.4 2.356-.735 3.503l-.853 2.925c-.231.847-.286.374-.257-2.214.062-5.551-.975-5.042-2.452 1.203-.831 3.51-1.657 5.701-2.302 6.099-.294.182-.339.058-.178-.498 1.768-6.107 1.956-9.372.495-8.591-.719.384-.923.939-1.403 3.814-.412 2.458-1.059 3.854-1.059 2.28 0-5.255 3.115-14.654 6.561-19.799.904-1.348 6.533-7.514 6.886-7.542.021-.001-.019 1.279-.088 2.846zm-280.44-1.616c.898.228.902.236.119.271-.442.02-1.448.124-2.234.233-.93.127-1.43.08-1.43-.133 0-.571 1.956-.775 3.545-.371zm16.987 5.968c2.142.571 2.103.543 6.008 4.198 3.599 3.368 5.209 5.269 5.209 6.151 0 .859-8.665 2.541-12.484 2.424-1.062-.034-.988-.07.53-.264 5.275-.676 4.161-2.556-1.763-2.975-3.848-.273-4.644-.678-1.378-.703 3.882-.028 5.157-1.063 2.688-2.182-1.064-.483-2.032-.597-5.162-.606-2.497-.007-3.694-.113-3.4-.298.252-.159 1.77-.206 3.416-.106 2.808.171 2.996.143 3.62-.526 1.248-1.338-1.045-2.127-6.389-2.201l-3.566-.048 3.774-.206c2.075-.113 3.858-.29 3.96-.392.773-.773-2.217-2.048-4.96-2.116-2.021-.049-2.07-.066-.77-.268 2.539-.394 9.011-.322 10.668.118zm248.084 9.813c-.078.211-.418 2.825-.755 5.807-.694 6.112-1.231 8.955-2.153 11.384-1.302 3.433-1.558 2.745-.595-1.599.402-1.814-.031-3.889-.722-3.463-.582.36-1.418 2.736-1.926 5.477-.686 3.702-1.961 6.284-1.379 2.793.978-5.864-.326-6.99-1.962-1.692-.445 1.438-1.302 3.586-1.904 4.772s-1.008 1.879-.901 1.54c.387-1.232.527-5.913.182-6.126-.423-.261-.964.786-2.163 4.186-2.448 6.942-4.262 8.38-2.352 1.864 3.265-11.15 5.448-15.707 9.656-20.162 2.48-2.627 7.429-6.02 6.974-4.781zm-231.584 5.294c2.623.556 4.288 1.414 6.191 3.193.838.784 2.795 2.267 4.347 3.294 3.607 2.391 3.638 2.589.607 3.859-5.093 2.133-9.995 3.706-7.66 2.459 2.347-1.256.541-2.404-2.759-1.754l-1.233.242 1.372-.711c2.144-1.112 1.69-2.096-.968-2.096-.79 0-.882-.073-.569-.45.478-.575.254-.915-.928-1.404-.667-.276-.833-.467-.557-.638 1.18-.728-.129-1.97-2.178-2.067-1.849-.087-1.926-.12-1.304-.556 2.301-1.609-3.608-2.652-6.519-1.15-.528.272-1.483.406-2.466.345l-1.603-.101 1.133-.526c4.244-1.969 10.91-2.825 15.093-1.939zm212.359 15.921c-2.68 10.052-3.046 11.269-3.465 11.527-.211.13-.272-.006-.167-.372 1.808-6.311 1.103-9.088-.902-3.55-1.751 4.843-3.514 7.652-2.264 3.612.621-2.009.607-3.642-.035-4.039-.403-.249-1.416 1.546-2.18 3.862-.363 1.101-.946 2.555-1.294 3.233-.97 1.883-1.024.552-.074-1.821 1.226-3.06.925-4.715-.564-3.109-.943 1.016-.937 1.053-.314-1.784 1.349-6.139 5.874-12.284 10.89-14.786 1.254-.627 2.339-1.082 2.408-1.013s-.848 3.778-2.039 8.24zm-192.769-2.981c2.178.689 5.329 2.418 9.873 5.413 2.052 1.353 2.302 1.043-2.776 3.444-5.335 2.521-10.841 4.54-6.721 2.464 3.747-1.888 1.099-2.844-3.684-1.33-1.714.543-3.28.93-3.48.861s.817-.487 2.258-.928c5.414-1.66 4.159-3.362-1.695-2.3l-1.233.224 1.233-.457c1.629-.604 3.236-1.464 3.236-1.731 0-.555-2.228-.933-3.549-.601-1.864.469-1.928.438-.735-.365 2.322-1.564.175-2.228-4.248-1.315-4.898 1.012-4.459.579 2.367-2.339 4.804-2.053 5.646-2.149 9.154-1.04zm178.209 8.709c-2.655 9.5-5.368 15.942-4.344 10.312.678-3.725-.354-3.516-1.912.388-1.936 4.848-2.843 5.661-1.806 1.619.508-1.983.508-2.102-.017-2.618-.724-.714-1.155-.164-2.084 2.661-.85 2.583-1.579 4.033-2.401 4.775-.83.75-.816.562.122-1.664 1.548-3.676.435-6.073-1.263-2.714l-.979 1.94-.035-1.384-.099-2.658c-.227-4.587 5.817-10.37 15.167-14.509l.802-.361c.018-.011-.501 1.885-1.151 4.213zm-188.442-2.67c-1.953.616-2.543.72-2.213.391.249-.249 2.973-.992 3.601-.982.254.003-.37.27-1.388.591zm28.137 4.468c2.246.463 4.515 1.294 11.05 4.043 4.107 1.728 4.189 1.837 2.205 2.926-5.579 3.062-9.267 4.885-8.797 4.348 1.429-1.632.548-2.443-1.784-1.641-.979.336-1.83.612-1.891.612s.342-.407.897-.903c1.412-1.268.911-1.668-1.891-1.51-1.424.08-2.072.018-1.875-.179.385-.384.396-1.719.016-1.719-.159 0-1.913.418-3.898.93-3.981 1.025-5.077 1.048-1.743.036 3.616-1.097 3.965-2.491.631-2.515l-1.331-.01.85-.633c1.382-1.031.041-1.981-2.11-1.497-1.634.369-1.618.224.103-.88 2.818-1.806 5.631-2.22 9.568-1.408zm142.128 6.481c-1.012 2.14-2.202 4.531-2.644 5.312-3.744 6.613-4.241 7.298-3.302 4.544 1.262-3.699-.147-3.715-2.117-.026-2.217 4.149-4.346 6.007-3.013 2.628 1.368-3.469.596-4.207-1.407-1.344-1.62 2.314-3.371 4.282-4.229 4.749-.655.358-.498-.009 1.057-2.457.863-1.36 1.167-2.927.631-3.258-.321-.198-1.235.784-3.696 3.974-3.462 4.489-4.343 4.5-2.058.027 4.564-8.935 15.159-17.457 22.408-18.023.116-.009-.617 1.734-1.63 3.874zm-116.492 1.983c.755.174 2.053.657 2.884 1.074s2.467.975 3.635 1.24c2.49.566 2.512.615.808 1.809-.717.503-2.315 1.712-3.55 2.687s-2.899 2.222-3.698 2.769l-1.453.995.848-1.012c.977-1.165 1.035-1.442.36-1.7-1.25-.479-2.288-.112-6.601 2.339-.764.432-1.804.877-2.312.986-.546.117.103-.358 1.582-1.159 2.617-1.418 4.428-2.636 4.428-2.978 0-1.247-4.911-.369-7.671 1.372-.701.442-2 1.077-2.888 1.412l-1.616.61 1.036-.834c.57-.46 2.165-1.465 3.545-2.233 5.219-2.908 2.602-3.798-3.74-1.271-5.242 2.088-6.236 1.761-2.383-.786 7.173-4.737 12.283-6.357 16.786-5.32zm97.882 2.328a36.88 36.88 0 0 0-2.691 3.926c-3.647 6.265-4.511 7.565-6.085 9.144-3.4 3.414-4.268 2.59-1.445-1.372 1.524-2.138 2.001-3.273 1.374-3.271-1 .003-2.486 1.392-4.267 3.988-1.74 2.54-2.992 3.893-3.308 3.577-.173-.173.955-2.234 2.374-4.333 1.365-2.019 1.463-2.366.823-2.896s-2.068.814-4.052 3.821c-1.397 2.12-3.226 4.035-3.226 3.378 0-.524 1.179-2.358 2.502-3.894 1.781-2.066 1.913-2.718.55-2.718-1.137 0-1.961.805-4.435 4.331-1.802 2.569-2.239 2.999-1.623 1.596 3.419-7.78 12.21-14.404 21.952-16.543 3.11-.682 3.131-.665 1.557 1.266zm-19.523 2.77l1.136.187-1.907 2.195c-1.049 1.208-2.946 3.647-4.218 5.42-2.436 3.399-5.687 7.057-5.345 6.013.112-.338.701-1.228 1.31-1.977 2.043-2.511 2.932-4.642 1.934-4.642-.51 0-2.914 2.294-4.554 4.348-.929 1.163-2.111 2.332-2.628 2.599-.828.427-.73.239.817-1.582 2.04-2.403 3.084-4.442 2.273-4.442-.995 0-2.72 1.279-4.437 3.288-1.062 1.244-2.323 2.569-2.802 2.945-1.008.793-.868.527 1.081-2.045 3.756-4.959 2.342-6.24-1.614-1.463-3.108 3.753-5.91 5.181-3.281 1.671 6.434-8.585 15.419-13.642 22.235-12.515zm-56.385.567c.297.125.54.392.54.593 0 .544-9.07 7.775-11.79 9.399-2.211 1.319-1.139.307 1.422-1.343 2.337-1.507 2.97-2.139 2.97-2.97 0-.531-2.31-.281-3.39.368l-1.079.649.859-.911c1.088-1.15.57-1.812-1.163-1.488-.951.179-1.082.128-1.082-.426 0-.754-.413-.784-2.195-.155l-1.346.474 1.231-1.263c2.745-2.819 4.595-3.404 10.323-3.259 2.289.058 4.403.207 4.7.332zm17.713 2.163c.624.202.534.331-1.079 1.535-.969.723-3.079 2.689-4.689 4.37-2.892 3.017-5.014 4.721-6.65 5.343-1.322.501-.454-.356 2.377-2.348 3.201-2.253 4.12-3.511 2.568-3.511-1.225 0-2.578.693-5.076 2.599-2.48 1.892-4.3 2.944-5.093 2.944s-.217-.571 1.41-1.395c.832-.42 1.723-1.085 1.978-1.475s1.022-1.022 1.702-1.403c1.305-.732 1.526-1.261.785-1.876-.757-.629-2.344.141-4.745 2.302-2.192 1.972-3.953 3.124-4.278 2.799-.318-.317.633-1.139 2.741-2.368 1.476-.861 2.161-1.46 2.299-2.008.497-1.976-1.234-1.638-4.155.811-2.075 1.741-3.973 2.943-4.235 2.682-.365-.364 6.661-5.783 10.592-8.168l2.386-1.449 5.239.198c2.882.109 5.547.297 5.923.418zm17.579 3.311c-4.076 5.56-7.441 8.531-10.726 9.473l-.923.264.575-.729c.316-.401 1.485-1.508 2.6-2.457 2.163-1.845 3.144-3.073 2.844-3.558-.627-1.014-4.317 1.156-6.99 4.112-1.135 1.256-2.357 2.359-2.714 2.453-.766.2-.935.447 2.543-3.729 2.592-3.112 2.688-3.307 1.784-3.593-.827-.262-1.72.249-3.684 2.109l-1.669 1.582 1.129-1.417c1.397-1.752 1.414-2.124.098-2.124-1.201 0-3.116 1.266-4.34 2.869-.868 1.137-3.161 2.873-3.434 2.6-.885-.884 7.607-8.321 11.734-10.275l2.158-1.023 5.778-.011 5.778-.011-2.541 3.465zm-60.027.051c-1.751.904-3.067 1.32-2.594.82.349-.37 3.139-1.535 3.673-1.535.17 0-.317.322-1.079.715zm43.769 6.121c0 .05-.59.64-1.31 1.309l-1.31 1.218 1.218-1.309c1.133-1.218 1.402-1.45 1.402-1.218z" fill="#00bfa9"/><path d="M197.691 35.405c-.287.746.337 1.756 1.417 2.294 1.638.817 1.803 1.703 1.822 9.789.024 9.461-.771 11.25-5.019 11.287-4.588.041-5.031-1.115-5.239-13.69l-.127-7.621h1.041c.983 0 1.04-.059 1.04-1.078v-1.078h-4.913c-2.703 0-4.978.105-5.058.233-.401.647.213 1.897 1.018 2.073l.844.185.182 8.531c.202 9.439.385 10.481 2.16 12.329 3.375 3.512 10.884 3.595 14.15.157 1.853-1.95 1.951-2.553 1.859-11.383-.092-8.781.015-9.515 1.474-10.064.766-.289.921-.519.921-1.358V35h-3.708c-2.781 0-3.747.1-3.864.405zm12.92 4.418c-1.24 3.942-1.241 3.953-.598 4.326.907.527.936.514 1.49-.645 1.115-2.336 3.802-4.474 5.646-4.494.621-.007.598.22-.994 10.232l-1.638 10.45c-.004.116-.457.254-1.009.307-.87.084-1.014.223-1.095 1.056l-.093.959 4.716.741 4.718.742.26-.71c.345-.94.056-1.613-.695-1.613-.334 0-.669-.103-.744-.23-.11-.185 2.284-16.023 3.024-20.014l.186-1 1.193.608c1.582.807 2.52 2.191 3.131 4.624.446 1.777.594 2.013 1.312 2.1l.81.098v-4.313-4.312l-1.465-.175c-1.229-.147-13.592-2.1-16.123-2.547-.763-.135-.827-.014-2.032 3.813zm-47.006-1.949c-13.429 5.009-9.253 27.022 4.932 26.001 12.187-.877 14.546-19.848 3.144-25.274-2.348-1.116-6.121-1.456-8.076-.726zm5.186 2.533c2.571 1.959 4.855 11.127 4.107 16.482-.891 6.377-7.192 6.736-9.493.541-1.778-4.788-2.396-12.984-1.165-15.462 1.188-2.39 4.445-3.166 6.551-1.561zm67.954 1.686c-.296.847-.255.969.432 1.281 1.043.475 1.123.108-2.347 10.743l-3.106 9.518h-1.019c-.956 0-1.373.477-1.396 1.595-.008.398 8.912 3.17 9.203 2.859.762-.814.675-1.601-.216-1.97l-.89-.369 1.482-4.634 1.575-4.717c.104-.093 6.805 1.995 7 2.183.069.066-.551 2.209-1.375 4.763l-1.501 4.644-.988-.185c-.883-.165-1.925 1.287-1.301 1.814.154.13 8.699 2.945 8.939 2.946.817 0 .791-1.877-.032-2.302l-.878-.453 2.33-7.167 3.156-9.785c.821-2.597.836-2.618 1.923-2.712 1.02-.087 1.442-.564 1.463-1.655.008-.398-8.911-3.17-9.202-2.86-.746.796-.705 1.68.093 1.983.435.166.791.477.791.693 0 .774-2.523 7.937-2.796 7.937-.49 0-6.287-1.9-6.549-2.146-.139-.131.324-2.07 1.032-4.309l1.284-4.072 1.023.191c.95.178 1.036.125 1.232-.763.259-1.178.757-.883-4.319-2.563-5.119-1.693-4.64-1.647-5.043-.492zm-94.875 2.487c-.497.497-1.239.71-3.12.9-6.128.617-9.24 5.115-7.362 10.639 1.249 3.67 2.967 4.487 9.932 4.723 5.906.199 6.606.426 7.434 2.406 2.188 5.231-5.87 7.579-11.421 3.33-1.326-1.017-1.596-1.114-2.264-.809-.932.424-.913.478 1.515 4.375 1.926 3.092 2.191 3.356 2.625 2.625.506-.848 1.853-1.383 4.008-1.588 7-.671 10.988-6.351 8.457-12.045-1.671-3.762-3.45-4.562-10.214-4.591-6.474-.027-7.397-.445-7.397-3.352 0-4.047 5.288-4.765 9.795-1.331 1.463 1.114 1.708 1.204 2.414.883.941-.429 1.019-.192-1.268-3.85-1.991-3.186-2.146-3.301-3.134-2.314zm123.681 7.816c-.504.768-.498.821.146 1.341l.671.543-4.009 11.221-4.008 11.221 2.495 1.594c2.797 1.786 2.827 1.788 3.126.18.194-1.043 9.227-10.835 9.627-10.436.056.055-1.01 3.324-2.369 7.262-2.973 8.614-2.953 7.656-.195 9.374 2.796 1.74 2.794 1.74 3.277.014.348-1.242 1.158-2.142 6.986-7.775 7.065-6.826 8.032-7.57 9.509-7.305.784.141 1.016.03 1.443-.693l.508-.86-2.676-1.663-3.347-2.088c-1.199-.757-1.789.909-.827 2.327 1.103 1.623 1.107 1.616-4.67 7.419l-5.397 5.422 1.726-4.927 3.085-8.81c.749-2.135 1.361-4.032 1.361-4.215 0-.283-4.643-1.909-5.45-1.909-.151 0-.61.965-1.019 2.143-.708 2.041-.968 2.365-5.347 6.698-2.532 2.505-4.504 4.276-4.382 3.938a1748.09 1748.09 0 0 1 5.575-14.869c.035-.048.443.085.908.297.738.335.897.31 1.272-.202.741-1.011.514-1.27-3.069-3.504-4.395-2.742-4.311-2.712-4.95-1.737zM97.537 68.441l-2.415 1.953c-.142.141.274.556.925.924 1.176.665 1.2.72 4.54 10.044 3.856 10.771 3.791 10.531 3.15 11.769-.451.871-.444.986.099 1.655l.583.72 1.029-.751c2.346-1.711 5.19-4.066 5.19-4.295 0-.788-1.232-1.342-2.144-.965-1.944.805-5.12-3.001-3.48-4.171.296-.211 1.699-1.293 3.118-2.404l2.579-2.022 2.276 1.587 2.275 1.586-.643.684c-.599.637-.201 2.282.552 2.282 1.013 0 7.755-6.023 7.373-6.589-.4-.593-.623-.639-2.197-.448-.17.021-4.773-2.96-10.229-6.624l-10.172-6.649c-.138.008-1.222.777-2.409 1.713zm198.429 4.197c-.651.697-.651.701-.046 1.442l.606.743-1.037 1.105-7.126 7.639-6.089 6.535-.755-.494c-.7-.459-.8-.454-1.375.066-.911.825-.891.851 4.797 6.193 2.882 2.707 5.873 5.625 6.648 6.485l1.407 1.565 3.601-2.312c3.698-2.374 3.897-2.602 3.141-3.601-.425-.56-.516-.563-2.246-.078-3.872 1.086-6.939.361-9.546-2.255l-1.31-1.314 2.742-2.966 3.501-3.67.756-.704.953.888c1.368 1.277 1.491 2.155.561 3.989l-.781 1.541.628.567c.613.554 4.767-3.201 6.945-6.278.939-1.326-.246-2.118-1.696-1.133-1.576 1.069-2.884.993-4.208-.244l-1.07-1.001 3.029-3.221 3.028-3.221 1.298 1.027c2.675 2.117 3.785 5.261 3.114 8.818-.387 2.045.023 3.113 1.074 2.799.666-.199 4.532-7.07 4.114-7.31-1.164-.671-2.997-2.257-8.038-6.96-6.384-5.954-5.784-5.535-6.62-4.638zm-191.667 3.803c2.299 1.623 4.171 3.043 4.159 3.156-.031.32-4.638 3.813-4.807 3.645-.082-.083-.612-1.375-1.178-2.872l-1.811-4.802c-.433-1.143-.731-2.078-.664-2.078s2.002 1.328 4.301 2.951zm-21.951 6.876c-2.411.893-4.096 2.271-8.609 7.037l-4.072 4.299.754.709c.725.68.778.686 1.356.164.848-.767.499-1.041 8.604 6.756l7.363 7.082-.588.75c-.583.744-.582.756.146 1.483l.734.733 3.876-3.946c5.728-5.83 6.68-7.207 7.317-10.559 1.618-8.519-8.827-17.494-16.882-14.507zm2.859 4.183c1.481.605 4.604 3.105 6.605 5.285 4.055 4.42 4.475 7.759 1.406 11.152l-1.142 1.262-7.68-7.441-7.68-7.442 1.009-1.048c2.221-2.31 4.714-2.899 7.481-1.768zm229.132 8.567c-5.684 2.125-6.414 4.828-3.798 14.067 1.3 4.59-1.147 7.848-4.63 6.164-3.443-1.666-4.42-5.864-2.471-10.626l.755-1.843-.627-.62-.628-.62-2.745 2.926c-3.179 3.387-3.074 3.148-1.727 3.942.781.46 1.211 1.058 1.701 2.365 2.897 7.736 9.299 10.175 14.484 5.518 2.834-2.546 3.158-5.387 1.294-11.325-1.502-4.784-1.137-6.831 1.331-7.449 3.979-.998 6.197 4.007 4.009 9.046-1.646 3.792-.251 4.095 2.972.643 2.809-3.006 2.738-2.811 1.431-3.957-.656-.576-1.201-1.482-1.544-2.565-1.43-4.535-5.909-7.122-9.807-5.666zM63.063 104.78c-3.587 4.975-3.513 4.818-2.521 5.349.721.385.858.35 1.682-.438l.897-.859 8.346 6.067 8.347 6.182c0 .063-.235.606-.521 1.205-.529 1.108-.1 1.979.982 1.996.243.004 5.358-6.777 6.392-8.474.593-.973-1.313-1.473-2.238-.588-1.092 1.045-.113 1.591-9.656-5.372l-8.199-5.98.663-1.071.663-1.071-.704-.569c-1.002-.81-.825-.966-4.133 3.623zm265.484 9.882c-4.404 1.558-4.125 1.392-3.895 2.31.171.68.285.706 2.648.599 4.325-.197 7.09 1.698 4.571 3.134-12.874 7.343-18.027 9.57-18.101 7.826-.016-.374-.422-.256-1.213.352l-.742.569 2.087 3.966c2.496 4.741 2.338 4.548 3.356 4.085.902-.411.942-.523.542-1.572-.361-.948 18.129-11.071 18.517-10.138.706 1.703.011 4.228-1.758 6.384-1.201 1.465-1.272 1.732-.607 2.283.809.672 7.387-4.503 6.825-5.368-1.043-1.604-3.599-6.297-5.894-10.828l-2.51-4.955-3.826 1.353zm-272.313 4.223c-2.048.918-3.365 2.764-7.203 10.093l-2.531 4.836.914.472c.878.453.938.441 1.488-.314l.574-.788 9.081 4.831c10.628 5.653 9.379 4.826 8.987 5.946-.291.836 1.05 2.119 1.618 1.547.162-.162 4.487-8.26 4.487-8.399 0-.659-1.908-.8-2.412-.178l-.565.697-3.906-2.07c-3.954-2.096-4.239-2.374-3.486-3.403.407-.556.587-.558 5.933-.054l6.18.514c.63-.004 3.803-5.134 3.803-6.149 0-.817-1.575-1.093-2.119-.373l-.521.689-5.384-.397c-5.377-.397-5.384-.399-5.306-1.124.475-4.334-5.446-8.253-9.634-6.376zm2.968 5.966c2.905 1.516 3.72 3.65 2.318 6.066-.862 1.486-.603 1.533-5.316-.982-4.132-2.205-4.058-2.124-3.321-3.676 1.156-2.433 3.398-2.933 6.32-1.408zm283.111 11.979c-.461.12-.542.352-.41 1.165l.165 1.015-9.608 3.309-9.937 3.433c-.182.068-.491-.228-.688-.659-.362-.795-1.101-.991-1.88-.498-.354.224.052 1.699 2.222 8.079 1.46 4.292 2.747 8.396 2.861 9.12.161 1.015.323 1.284.707 1.174.275-.079 2.201-.24 4.281-.356s3.859-.336 3.953-.488c.404-.653-.231-2.107-.919-2.107-3.749 0-7.858-3.586-8.651-7.548l-.186-.927 4.401-1.512 4.731-1.625c.464-.159 1.057 1.273 1.057 2.556 0 1.1-.605 1.929-2.129 2.915-.593.384-.701.644-.536 1.299l.205.817 4.543-1.558c5.056-1.737 5.151-1.789 4.862-2.701-.173-.543-.452-.647-1.747-.647-1.935 0-2.669-.389-3.221-1.708-.755-1.804-.715-1.84 3.681-3.308l4.118-1.375.663 1.887c1.294 3.682.744 6.189-2.143 9.774-.566.703-.595.889-.237 1.462.562.9.496.922 4.429-1.435l3.495-2.094-.643-1.016c-.354-.559-1.851-4.5-3.326-8.76-2.679-7.737-2.83-8.02-4.113-7.683zm-293.861 7.65c-6.179 1.662-9.886 7.178-8.707 12.955 2.409 11.799 19.925 14.614 25.1 4.034 4.448-9.096-5.893-19.813-16.393-16.989zm4.683 6.146c8.697 2.524 11.885 5.495 9.992 9.311-1.397 2.812-5.299 3.31-11.516 1.47-7.338-2.172-10.595-4.973-9.67-8.318.973-3.522 4.709-4.344 11.194-2.463zm297.091 13.916c-.498.097-.7.388-.77 1.111l-.095.98-10.172 1.418c-10.417 1.453-10.618 1.457-10.629.202-.006-.673-1.787-.764-2.039-.105-.092.238.12 2.397.471 4.797l.639 4.513c0 .825 2.016-.178 2.1-1.045.053-.55.26-1.004.462-1.008s2.165-.274 4.364-.6c4.234-.628 4.463-.588 4.473.789.004.507-1.113 1.302-5.319 3.781l-5.325 3.137.447 3.533.446 3.532h1.006c.902 0 1.015-.1 1.102-.97s5.994-5.112 8.784-6.314c.202-.086.965.461 1.696 1.217 2.494 2.58 7.234 2.51 9.713-.144 1.95-2.086 2.132-4.776.887-13.14l-.794-5.62c0-.284-.252-.296-1.447-.064zm-297.041 8.176c-.145.523.009.844.627 1.308 4.087 3.069 5.046 4.391 5.037 6.949-.009 2.396.651 2.315-10.733 1.342l-10.192-.871-.093-.938c-.079-.807-.23-.952-1.076-1.034-1.12-.108-1.149-.024-1.474 4.252l-.358 3.926-.184 1.617h1.09c.969 0 1.114-.107 1.3-.956.209-.949.22-.954 1.797-.772.873.101 4.846.46 8.831.798 11.212.95 10.48.821 10.48 1.851 0 .729.16.912.946 1.085 1.224.269 1.065.85 1.642-6.009.278-3.303.672-6.975.875-8.16l.38-2.427c.009-.255-7.524-2.654-8.332-2.654-.204 0-.459.311-.564.693zm297.707 1.392c.644 4.676-7.073 7.366-9.203 3.208-.669-1.308-.943-3.44-.446-3.468.226-.013 2.007-.274 3.957-.58 5.596-.88 5.452-.901 5.692.84zm-21.519 19.547c-.378 4.853-.335 5.158.719 5.158.757 0 .999-.188 1.361-1.054.756-1.806.97-1.835 9.235-1.257l7.521.599c.046.043-4.254 2.336-9.555 5.095-11.429 5.949-10.406 5.237-10.406 7.253v1.631l1.926.185c1.059.101 5.88.458 10.711.793 9.56.662 10.215.823 10.423 2.566.083.7.244.817 1.124.817h1.025l.185-2.387c.419-5.424.453-5.146-.634-5.252-.867-.085-1.005.02-1.33 1.003-.593 1.792-.902 1.845-8.082 1.397-3.525-.22-6.41-.486-6.41-.59s3.882-2.186 8.627-4.629c9.8-5.043 8.764-4.002 9.088-9.137l.179-2.812-.962-.141c-.846-.124-1.021-.017-1.457.897-.692 1.45-.873 1.464-10.468.793-9.229-.647-9.741-.765-10.431-2.415-.95-2.27-2.154-1.52-2.389 1.487zM37.84 195.231c-4.285 1.157-4.045.969-3.624 2.845.185.829.569 4.834.852 8.899l.515 7.39.974.094c.861.083.996-.013 1.177-.831.247-1.122-.043-1.071 10.025-1.724l9.145-.654 1.903-.185.102.88c.086.75.254.894 1.145.979l1.045.101-.207-3.641c-.348-6.103-.4-6.308-1.536-6.198-.829.081-.976.227-1.057 1.055l-.094.963-4.068.216c-2.237.118-4.379.288-4.761.379-2.079.493-.581-3.853 1.618-4.691 1.319-.504 1.94-1.623 1.157-2.086-.348-.205-9.441.455-9.721.706-.556.5.353 1.781 1.405 1.978 1.388.26 2.395 1.38 2.598 2.888l.164 1.222-1.345.18c-.74.1-2.851.274-4.69.387l-3.345.207.108-2.91c.147-3.967.847-5.007 5.031-7.484.678-.401.341-2.016-.41-1.968-.278.018-2.125.469-4.105 1.003zm35.499 68.824c-5.445 1.783-6.59 4.671-4.901 12.356.94 4.281.603 6.273-1.222 7.215-5.087 2.628-8.562-5.006-5.099-11.197.761-1.361.762-1.372.159-1.974-.656-.656-2.077.332-5.379 3.741l-1.187 1.226 1.121 1.034c.84.772 1.243 1.495 1.6 2.873 1.694 6.521 7.516 9.598 12.762 6.746 3.957-2.151 4.785-5.184 3.226-11.82-1.28-5.45-.654-7.53 2.267-7.53 3.8 0 5.318 4.541 3.026 9.05-1.087 2.136-1.121 2.292-.631 2.834.73.806.664.841 3.63-1.932l2.68-2.504-1.034-.96c-.772-.716-1.132-1.406-1.423-2.728-1.007-4.573-5.688-7.71-9.595-6.43zm232.812 6.275c-.354.719-2.671 4.208-5.148 7.753-4.972 7.116-4.771 6.728-3.825 7.39.625.437.734.422 1.379-.184l.7-.657 1.164.773c10.083 6.695 16.025 11.246 15.625 11.968-.557 1.004-.557 1.005.411 1.571l.848.497 4.315-6.202c2.374-3.411 4.918-6.855 5.656-7.654l1.341-1.451-2.882-3.382-2.882-3.381-.743.731-.743.731.698 1.637c.958 2.247 1.18 5.392.505 7.158-.561 1.467-2.177 3.871-2.601 3.871-.22 0-7.439-4.901-8.138-5.524-.128-.115.263-.79.872-1.5 1.245-1.453 2.055-1.614 4.007-.799 1.194.498 2.202.014 1.894-.908-.278-.834-7.95-5.797-8.392-5.429-.596.493-.584 1.355.024 1.86 1.479 1.226 1.61 2.813.372 4.488l-.712.964-3.608-2.533-3.608-2.533.877-1.356c2.102-3.252 3.989-4.281 7.856-4.281 2.567 0 2.609-.013 2.887-.847.282-.845.271-.852-3.408-2.464-4.419-1.935-3.956-1.904-4.741-.307zM86.511 282.627c-3.484 2.1-3.612 2.214-3.19 2.836.486.716.436.716 3.309.019 2.243-.544 3.936-.313 5.182.709.647.532.635.549-1.744 2.545l-8.019 6.733-5.624 4.724-.793-.519c-.903-.592-2.551.076-2.087.845 1.755 2.908 6.066 7.244 6.755 6.794.863-.566.906-.803.313-1.737-.634-.999 15.281-14.464 16.114-13.633.941.942.679 4.317-.497 6.393l-.994 1.757.68.476c.62.433.724.428 1.171-.063 2.372-2.608 4.921-5.585 4.921-5.749 0-.111-1.405-1.825-3.122-3.809-3.778-4.365-7.968-9.541-8.189-10.115-.229-.597-.192-.613-4.186 1.794zm204.879 7.41c-.477 1.054-.951 1.498-2.441 2.286-8.611 4.549-6.559 17.849 3.52 22.827 6.2 3.061 11.971.461 15.938-7.184l1.502-2.895-2.293-2.309c-2.186-2.204-2.269-2.337-1.773-2.884.674-.743.656-1.078-.089-1.752-.569-.515-7.404 5.01-7.404 5.985 0 .854 1.296 1.374 2.173.871l.892-.512 2.001 2.21c2.239 2.477 2.248 2.721.142 4.168-5.285 3.633-19.634-9.203-16.333-14.611 1.471-2.411 5.803-2.92 10.231-1.203.323.125.668-.073.992-.569l.5-.76-3.338-2.489c-3.927-2.926-3.485-2.803-4.22-1.179zm-183.558 11.299c-.62 2.069-18.131 12.37-19.89 11.702-.719-.273-.949-.213-1.575.413l-.734.733 3.024 2.648 3.025 2.648.737-.723.737-.723-.66-.838c-1.436-1.824 1.751-5.728 3.45-4.227l2.902 2.537c1.229 1.071 2.235 2.09 2.235 2.264 0 .26-1.774 4.398-2.055 4.794-.046.065-.46-.127-.919-.428-.815-.533-.848-.53-1.406.159-.762.939-.887.77 3.147 4.269l3.545 3.075.751-.737c.733-.718.738-.753.187-1.361s-.468-.856 4.164-11.911l4.729-11.286-2.296-2.101c-2.708-2.479-2.633-2.457-3.098-.907zm165.468 4.451c-.639.566-4.006 2.867-7.48 5.112s-6.388 4.192-6.472 4.326c-.312.505.567 1.862 1.067 1.648 1.378-.59 1.548-.394 7.184 8.279l5.562 8.556-.686.729c-.658.699-.664.76-.161 1.528.661 1.008-.265 1.451 7.363-3.525 3.645-2.377 7.257-4.6 8.027-4.94 1.684-.745 1.673-.27.118-4.747-1.489-4.282-1.47-4.251-2.487-3.997-.742.186-.78.312-.922 3.02-.214 4.055-1.551 6.315-4.822 8.153l-1.244.697-1.047-1.626-2.751-4.26-1.705-2.632 1.036-.678c1.525-.998 2.848-.886 4.313.367 1.273 1.089 2.632.933 2.178-.251-.802-2.086-5.243-8.149-5.766-7.871-.869.466-.917.699-.432 2.106.603 1.748.308 2.662-1.198 3.703l-1.261.874-2.433-3.718-2.434-3.716.879-.709c2.874-2.315 6.477-2.765 9.8-1.223l1.831.85.619-.62.621-.619-2.759-2.854c-3.243-3.356-3.058-3.275-4.538-1.962zm-168.849 4.545l-2.235 4.771c-.057.057-1.175-.813-2.484-1.932l-2.379-2.037 4.408-2.727c2.424-1.5 4.501-2.731 4.614-2.736s-.752 2.093-1.924 4.661zm13.605 2.064c-2.706 3.224-2.74 3.285-2.164 3.873s.598.587 1.903-.343c2.604-1.855 5.311-2.534 6.673-1.672.582.368-10.055 18.263-10.747 18.082-.255-.067-.697-.218-.982-.335-.377-.156-.645.031-.983.684l-.465.898 4.178 2.53c2.299 1.391 4.204 2.488 4.237 2.437l.574-.919c.501-.802.493-.842-.272-1.4l-.79-.573 5.345-8.891c2.94-4.89 5.509-8.946 5.709-9.012 1.352-.451 2.553 4.185 1.873 7.224-.224 1.004.568 1.922 1.28 1.483s3.252-7.649 2.791-7.919l-4.773-2.757c-2.373-1.369-5.737-3.428-7.477-4.576l-3.162-2.088-2.748 3.274zm20.677 8.972c-.297.85-.251.961.57 1.385l.893.462-1.841 5.312-3.427 9.885-1.586 4.574-1.007-.164c-.92-.149-1.024-.083-1.21.761-.26 1.183-1.012.804 7.224 3.64 3.952 1.361 7.882 2.824 8.735 3.252s1.629.701 1.724.606c1.042-1.04 4.574-7.138 4.316-7.449-.713-.858-1.486-.763-2.781.345-3.023 2.585-6.439 3.2-9.71 1.75l-1.599-.709 1.551-4.511c1.841-5.351 1.685-5.139 3.305-4.492 1.585.634 1.887 1.165 1.887 3.325 0 1.449.092 1.722.647 1.899.925.292.998.162 2.708-4.858l1.547-4.54-.804-.202c-.594-.148-.915-.048-1.224.384-.973 1.352-2.043 2.278-2.634 2.278-1.087 0-3.046-.706-2.925-1.054l1.461-4.224 1.347-3.891 1.556.461c3.77 1.115 6.642 4.344 6.642 7.465 0 .738.8 1.55 1.526 1.55.584 0 .921-1.541 1.43-6.543l.211-2.079h-.912c-.502 0-4.576-1.247-9.053-2.77l-8.192-2.772c-.03 0-.197.416-.375.924zm104.906 1.265c-4.732 2.215-4.599 2.115-4.126 3.152.411.903.524.941 1.573.542.702-.266.863.022 5.124 9.161l4.398 9.435-.746.617c-.636.523-.705.743-.455 1.462.386 1.111-.147 1.271 7.365-2.2 3.627-1.676 7.044-3.143 7.596-3.258 1.223-.257 1.222-.036.032-5.011-.748-3.131-1.09-4.079-1.468-4.076-.962.01-1.203.489-1.506 2.993-.367 3.039-1.094 4.568-2.711 5.697-2.5 1.748-2.197 2.1-6.967-8.078-4.76-10.16-4.495-9.408-3.574-10.153.599-.485.637-.651.316-1.359-.475-1.038-.205-1.098-4.851 1.076zm-20.284 6.121c-4.552 1.347-4.34 1.221-4.076 2.422.185.84.293.909 1.193.764l.989-.161 2.741 9.652 2.875 10.029c.072.208-.24.547-.695.755-.758.344-.958 1.711-.34 2.329.065.065 3.011-.725 6.546-1.757s7.227-1.961 8.204-2.065l1.777-.19-.183-1.881-.389-4.497-.208-2.618h-.901c-.867 0-.924.09-1.467 2.31-.694 2.847-1.83 4.553-3.646 5.476-2.746 1.395-2.497 1.805-5.697-9.388l-2.836-9.916.912-.319c.652-.226.859-.458.724-.809a3.13 3.13 0 0 1-.188-.927c0-.648-.942-.508-5.335.791zm-46.068 2.673c-3.776 1.335-6.856 6.195-7.778 12.274-1.914 12.607 11.825 18.752 18.651 8.344.525-.801.524-.848-.036-1.273-.859-.649-1.006-.59-2.354.939-6.477 7.351-12.249-2.209-8.674-14.367 1.858-6.324 7.036-5.697 9.596 1.162.814 2.186.886 2.275 1.774 2.193.51-.048.911-.258.894-.471s-.052-2.18-.077-4.373l-.047-3.989-1.463.171c-1.044.122-2.015-.015-3.381-.476-2.256-.762-5.173-.817-7.105-.134zm26.433-.209c-9.912 1.703-13.364 15.828-5.649 23.117 8.066 7.622 20.142 1.116 19.442-10.472-.486-8.046-6.811-13.845-13.793-12.645zm3.977 2.751c2.922 2.078 4.708 14.849 2.651 18.957-1.802 3.599-6.285 3.507-8.172-.169-1.83-3.565-2.472-14.379-1.014-17.101 1.356-2.532 4.285-3.287 6.535-1.687z" fill="#fff"/></g></g><defs><clipPath id="A"><path fill="#fff" d="M0 0h396v396H0z"/></clipPath></defs></svg>