<svg id="Layer_1" data-name="Layer 1" xmlns="http://www.w3.org/2000/svg" viewBox="0 0 825.09 604.09"><defs><style>.cls-1{fill:#fff;}.cls-2,.cls-4,.cls-6{fill:none;stroke-miterlimit:10;stroke-width:0.09px;}.cls-2{stroke:#fff;}.cls-3{fill:#ffc324;}.cls-4{stroke:#ffc324;}.cls-5{fill:#004890;}.cls-6{stroke:#004890;}</style></defs><rect class="cls-1" x="0.05" y="0.05" width="825" height="604"/><rect class="cls-2" x="0.05" y="0.05" width="825" height="604"/><path class="cls-3" d="M271.1,110.1C323.1,92.7,378.4,87,433,89c78.3,2.4,157.1,18.1,227.4,53.5a426.83,426.83,0,0,1,48,28.1c4.2,3,9.2,5.6,11.6,10.4-13-10.4-27.9-17.9-42.6-25.4C591.9,113.1,495.1,94.3,400,100.1c-43.6,2.5-87.1,9.9-128.2,24.7-30.9,11.3-60.6,26.9-85.9,48.1C164.4,190.8,146,213.1,135,239c-11.6,26-15.6,55.5-10.4,83.6a169.33,169.33,0,0,0,29.2,67.9,178.82,178.82,0,0,1,52.4-20.3l.6-.1c25.1-4.6,50.9-4.1,76.1-1.5,4,.5,7.9,1,11.8,1.6,38.6,5.8,75.6,19.3,111.2,35,40.1,17.8,80.5,35.7,122.8,47.9,37.9,10.8,78.8,13.6,117.3,3.9,16-4,31.8-10.1,44.9-20.3-1.9,3.6-5.1,6.3-8,9.2a240.11,240.11,0,0,1-33.7,27.4,236.83,236.83,0,0,1-46.8,23.1c-21.3,8.4-43.9,13.2-66.4,17.2-37.7,5.9-75.9,7-114,6.7-43.6-.1-87.4-4.5-129.6-15.8-33.6-8.9-66.1-22.6-95.2-41.7-22-14.4-42.5-31.4-59.2-51.8-19-23.4-33-51.3-37.9-81.2-5.7-31.8-.5-65.2,13.5-94.2,13.4-28.6,34.8-53,59.3-72.7C202,139.4,235.8,122,271.1,110.1Z" transform="translate(0.05 0.05)"/><path class="cls-4" d="M271.1,110.1C323.1,92.7,378.4,87,433,89c78.3,2.4,157.1,18.1,227.4,53.5a426.83,426.83,0,0,1,48,28.1c4.2,3,9.2,5.6,11.6,10.4-13-10.4-27.9-17.9-42.6-25.4C591.9,113.1,495.1,94.3,400,100.1c-43.6,2.5-87.1,9.9-128.2,24.7-30.9,11.3-60.6,26.9-85.9,48.1C164.4,190.8,146,213.1,135,239c-11.6,26-15.6,55.5-10.4,83.6a169.33,169.33,0,0,0,29.2,67.9,178.82,178.82,0,0,1,52.4-20.3l.6-.1c25.1-4.6,50.9-4.1,76.1-1.5,4,.5,7.9,1,11.8,1.6,38.6,5.8,75.6,19.3,111.2,35,40.1,17.8,80.5,35.7,122.8,47.9,37.9,10.8,78.8,13.6,117.3,3.9,16-4,31.8-10.1,44.9-20.3-1.9,3.6-5.1,6.3-8,9.2a240.11,240.11,0,0,1-33.7,27.4,236.83,236.83,0,0,1-46.8,23.1c-21.3,8.4-43.9,13.2-66.4,17.2-37.7,5.9-75.9,7-114,6.7-43.6-.1-87.4-4.5-129.6-15.8-33.6-8.9-66.1-22.6-95.2-41.7-22-14.4-42.5-31.4-59.2-51.8-19-23.4-33-51.3-37.9-81.2-5.7-31.8-.5-65.2,13.5-94.2,13.4-28.6,34.8-53,59.3-72.7C202,139.4,235.8,122,271.1,110.1Z" transform="translate(0.05 0.05)"/><path class="cls-5" d="M400,100.1c95.1-5.8,191.9,13,277.4,55.5,14.7,7.5,29.6,15,42.6,25.4,1.9,2.7.5,7.1-3,7.5-4.4.3-8-2.8-11.7-4.8-34.4-20.3-71.5-35.7-109.7-47.1a532.56,532.56,0,0,0-157.6-22c-40,.6-80,4.7-118.8,14.8-35.3,9.3-69.9,23.5-99.1,45.7-22.6,17.2-41.8,39.8-51.2,66.9a111.14,111.14,0,0,0-.2,74.2c6.2,17.5,16.9,33.1,29.9,46.2,2.5,2.6,5.3,5,7.6,7.8a178.82,178.82,0,0,0-52.4,20.3,169.33,169.33,0,0,1-29.2-67.9c-5.2-28.1-1.2-57.6,10.4-83.6,11-25.9,29.4-48.2,50.9-66.1,25.3-21.2,55-36.8,85.9-48.1C312.9,110,356.4,102.6,400,100.1Z" transform="translate(0.05 0.05)"/><path class="cls-6" d="M400,100.1c95.1-5.8,191.9,13,277.4,55.5,14.7,7.5,29.6,15,42.6,25.4,1.9,2.7.5,7.1-3,7.5-4.4.3-8-2.8-11.7-4.8-34.4-20.3-71.5-35.7-109.7-47.1a532.56,532.56,0,0,0-157.6-22c-40,.6-80,4.7-118.8,14.8-35.3,9.3-69.9,23.5-99.1,45.7-22.6,17.2-41.8,39.8-51.2,66.9a111.14,111.14,0,0,0-.2,74.2c6.2,17.5,16.9,33.1,29.9,46.2,2.5,2.6,5.3,5,7.6,7.8a178.82,178.82,0,0,0-52.4,20.3,169.33,169.33,0,0,1-29.2-67.9c-5.2-28.1-1.2-57.6,10.4-83.6,11-25.9,29.4-48.2,50.9-66.1,25.3-21.2,55-36.8,85.9-48.1C312.9,110,356.4,102.6,400,100.1Z" transform="translate(0.05 0.05)"/><path class="cls-5" d="M647.2,190.1c19.4-2.6,39.1-.1,58,4.7l.5.5c2.1,14,3.2,28.1,4.8,42.1a95.91,95.91,0,0,1-9.6,2.1c-3.3-11.2-8.1-22.5-17.1-30.3-9.3-8.2-22.7-10.7-34.6-7.8-12.4,3-22.1,12.7-28.4,23.4-9.7,16.6-13.3,36.1-13.3,55.2.3,18.9,3.5,38.2,12.5,55,5.7,10.5,14.1,20,25.4,24.6a36.17,36.17,0,0,0,34.7-3.5c11.5-8.1,18.8-20.7,24.9-33.1,3.1,1,6.1,1.9,9.1,3.1l.2.9c-3.2,12.2-6.8,24.4-11.1,36.3-.7,1.7-1.2,4.3-3.5,4.5-16.8,4.2-34.1,7-51.3,5.8-17.7-1.1-35.5-6.5-49.5-17.5-14.2-11-23.6-27.3-28.2-44.5a113.34,113.34,0,0,1,.1-55.8c4.6-17.6,14.4-34,28.5-45.5C612.8,199,629.8,192.5,647.2,190.1Z" transform="translate(0.05 0.05)"/><path class="cls-6" d="M647.2,190.1c19.4-2.6,39.1-.1,58,4.7l.5.5c2.1,14,3.2,28.1,4.8,42.1a95.91,95.91,0,0,1-9.6,2.1c-3.3-11.2-8.1-22.5-17.1-30.3-9.3-8.2-22.7-10.7-34.6-7.8-12.4,3-22.1,12.7-28.4,23.4-9.7,16.6-13.3,36.1-13.3,55.2.3,18.9,3.5,38.2,12.5,55,5.7,10.5,14.1,20,25.4,24.6a36.17,36.17,0,0,0,34.7-3.5c11.5-8.1,18.8-20.7,24.9-33.1,3.1,1,6.1,1.9,9.1,3.1l.2.9c-3.2,12.2-6.8,24.4-11.1,36.3-.7,1.7-1.2,4.3-3.5,4.5-16.8,4.2-34.1,7-51.3,5.8-17.7-1.1-35.5-6.5-49.5-17.5-14.2-11-23.6-27.3-28.2-44.5a113.34,113.34,0,0,1,.1-55.8c4.6-17.6,14.4-34,28.5-45.5C612.8,199,629.8,192.5,647.2,190.1Z" transform="translate(0.05 0.05)"/><path class="cls-5" d="M484.8,195.8c21.6-8.3,45.6-5.7,67.1,1.4,1.3,13,3.7,25.8,5.5,38.7-3.2,1.1-6.5,1.3-9.8,1.9-4.2-10.5-8.4-21.7-17.1-29.2a30.27,30.27,0,0,0-25.8-6.7A24.65,24.65,0,0,0,488,215c-4.9,10.2-3.7,23.5,4.3,31.7,10.9,11.6,26.2,17.3,39.5,25.4,11,6.6,21.7,14.7,28.2,25.9s7.4,24.9,4.4,37.2c-3.4,13.7-13,25.3-25.4,31.9-13.9,7.5-30.4,9.4-46,8-11.5-1.1-22.5-4.6-33.2-8.8-3.9-14.5-5.9-29.4-7.8-44.3,3.3-1.1,6.7-2.1,10-3,4.7,13.4,10.8,26.9,21.5,36.4,8.4,7.5,20.3,11.2,31.3,8.2a20.94,20.94,0,0,0,14.3-13.3c3.6-10.1,3.2-22.2-3.4-30.9-8.4-11.4-21.6-17.7-33.6-24.5-12.9-7.5-25.9-16.2-33.9-29.1-7.3-11.6-8.1-26.4-3.8-39.3C458.9,212.2,470.9,201,484.8,195.8Z" transform="translate(0.05 0.05)"/><path class="cls-6" d="M484.8,195.8c21.6-8.3,45.6-5.7,67.1,1.4,1.3,13,3.7,25.8,5.5,38.7-3.2,1.1-6.5,1.3-9.8,1.9-4.2-10.5-8.4-21.7-17.1-29.2a30.27,30.27,0,0,0-25.8-6.7A24.65,24.65,0,0,0,488,215c-4.9,10.2-3.7,23.5,4.3,31.7,10.9,11.6,26.2,17.3,39.5,25.4,11,6.6,21.7,14.7,28.2,25.9s7.4,24.9,4.4,37.2c-3.4,13.7-13,25.3-25.4,31.9-13.9,7.5-30.4,9.4-46,8-11.5-1.1-22.5-4.6-33.2-8.8-3.9-14.5-5.9-29.4-7.8-44.3,3.3-1.1,6.7-2.1,10-3,4.7,13.4,10.8,26.9,21.5,36.4,8.4,7.5,20.3,11.2,31.3,8.2a20.94,20.94,0,0,0,14.3-13.3c3.6-10.1,3.2-22.2-3.4-30.9-8.4-11.4-21.6-17.7-33.6-24.5-12.9-7.5-25.9-16.2-33.9-29.1-7.3-11.6-8.1-26.4-3.8-39.3C458.9,212.2,470.9,201,484.8,195.8Z" transform="translate(0.05 0.05)"/><path class="cls-5" d="M206.7,192.7q38.25-.15,76.5,0c0,3,0,6.1-.1,9.2-5.6.7-12.1.6-16.5,4.7-3.7,4.2-3.5,10.2-3.9,15.4V341c.4,5.2.3,11.2,4,15.3,4.4,4.1,10.8,4.1,16.5,4.8q0,3.75-.3,7.5c-25.2-2.6-51-3.1-76.1,1.5q-.15-4.5,0-9c5.6-.7,12.1-.6,16.4-4.9,4-4.4,3.5-10.7,3.9-16.2q.15-58.5,0-117c-.4-5.5.1-11.8-3.7-16.3-4.5-4.2-11-4.1-16.6-4.8C206.7,198.8,206.7,195.7,206.7,192.7Z" transform="translate(0.05 0.05)"/><path class="cls-6" d="M206.7,192.7q38.25-.15,76.5,0c0,3,0,6.1-.1,9.2-5.6.7-12.1.6-16.5,4.7-3.7,4.2-3.5,10.2-3.9,15.4V341c.4,5.2.3,11.2,4,15.3,4.4,4.1,10.8,4.1,16.5,4.8q0,3.75-.3,7.5c-25.2-2.6-51-3.1-76.1,1.5q-.15-4.5,0-9c5.6-.7,12.1-.6,16.4-4.9,4-4.4,3.5-10.7,3.9-16.2q.15-58.5,0-117c-.4-5.5.1-11.8-3.7-16.3-4.5-4.2-11-4.1-16.6-4.8C206.7,198.8,206.7,195.7,206.7,192.7Z" transform="translate(0.05 0.05)"/><path class="cls-5" d="M295.7,192.7c25.1-.2,50.2-.1,75.3-.1,12.9.1,26.4,1.1,38,7.4a40.32,40.32,0,0,1,20.5,27.2c2.4,12.1,1.3,25.3-5.4,36-5.7,9.4-15.2,15.9-25.1,20.2,8.2,18.9,18.6,36.6,29.5,54,6.9,10.9,15,22,27,27.7-.5,2.7-.9,5.4-1.4,8.1-10.5-.3-21-.6-31.2-2.9-7-1.5-13.7-4.3-19.1-9.1-5.6-4.9-9.6-11.3-13.4-17.6-7.7-13-14.1-26.7-20.7-40.3-1.7-3.4-4-6.8-7.4-8.5-3.6-1.9-7.7-1.6-11.6-1.7-.2,12.6,0,25.3-.1,37.9.1,6.4-.2,12.8,1.1,19.1.7,3.2,2.2,6.5,5.2,8,4.4,2.4,9.5,2.5,14.4,2.9.1,2.9.1,5.8.1,8.7,12.4,2.3,24.3,6.4,36.3,10.4,15.7,5,31,11.2,46.6,16.7,25.4,8.8,51.3,16.6,77.6,22.1,20.4,4.5,41.3,5.8,62.1,6,24,0,48.5-2.9,70.8-12.3a112.82,112.82,0,0,0,53.8-46.9c1.4-2.3,3-5.8,6.2-4.7,2.6.6,1.9,3.9,1.8,5.9-4,26.1-15.2,52.4-35.7,69.8C677.8,446.9,662,453,646,457c-38.5,9.7-79.4,6.9-117.3-3.9C486.4,440.9,446,423,405.9,405.2c-35.6-15.7-72.6-29.2-111.2-35-.1-3.1-.1-6.1,0-9.1,6.1-.7,13.5-.4,17.8-5.6,3.8-5.3,3.1-12.3,3.4-18.5.1-27,0-54,.1-81-.1-12.9.2-25.8-.3-38.6-.4-4.4-1.1-9.5-5.1-12.1-4.4-2.6-9.8-2.7-14.8-3.4C295.7,198.8,295.7,195.7,295.7,192.7Z" transform="translate(0.05 0.05)"/><path class="cls-6" d="M295.7,192.7c25.1-.2,50.2-.1,75.3-.1,12.9.1,26.4,1.1,38,7.4a40.32,40.32,0,0,1,20.5,27.2c2.4,12.1,1.3,25.3-5.4,36-5.7,9.4-15.2,15.9-25.1,20.2,8.2,18.9,18.6,36.6,29.5,54,6.9,10.9,15,22,27,27.7-.5,2.7-.9,5.4-1.4,8.1-10.5-.3-21-.6-31.2-2.9-7-1.5-13.7-4.3-19.1-9.1-5.6-4.9-9.6-11.3-13.4-17.6-7.7-13-14.1-26.7-20.7-40.3-1.7-3.4-4-6.8-7.4-8.5-3.6-1.9-7.7-1.6-11.6-1.7-.2,12.6,0,25.3-.1,37.9.1,6.4-.2,12.8,1.1,19.1.7,3.2,2.2,6.5,5.2,8,4.4,2.4,9.5,2.5,14.4,2.9.1,2.9.1,5.8.1,8.7,12.4,2.3,24.3,6.4,36.3,10.4,15.7,5,31,11.2,46.6,16.7,25.4,8.8,51.3,16.6,77.6,22.1,20.4,4.5,41.3,5.8,62.1,6,24,0,48.5-2.9,70.8-12.3a112.82,112.82,0,0,0,53.8-46.9c1.4-2.3,3-5.8,6.2-4.7,2.6.6,1.9,3.9,1.8,5.9-4,26.1-15.2,52.4-35.7,69.8C677.8,446.9,662,453,646,457c-38.5,9.7-79.4,6.9-117.3-3.9C486.4,440.9,446,423,405.9,405.2c-35.6-15.7-72.6-29.2-111.2-35-.1-3.1-.1-6.1,0-9.1,6.1-.7,13.5-.4,17.8-5.6,3.8-5.3,3.1-12.3,3.4-18.5.1-27,0-54,.1-81-.1-12.9.2-25.8-.3-38.6-.4-4.4-1.1-9.5-5.1-12.1-4.4-2.6-9.8-2.7-14.8-3.4C295.7,198.8,295.7,195.7,295.7,192.7Z" transform="translate(0.05 0.05)"/><path class="cls-1" d="M355.2,204.3A27.54,27.54,0,0,1,381,210c6.8,6,10.1,14.9,11.3,23.6,1,9.5.8,19.3-2.3,28.4-2.8,8.1-9,15.1-17.1,18.1-7.1,2.6-14.8,2.2-22.2,2.1q-.15-34-.1-68.2C350.7,210.4,351,205.4,355.2,204.3Z" transform="translate(0.05 0.05)"/><path class="cls-2" d="M355.2,204.3A27.54,27.54,0,0,1,381,210c6.8,6,10.1,14.9,11.3,23.6,1,9.5.8,19.3-2.3,28.4-2.8,8.1-9,15.1-17.1,18.1-7.1,2.6-14.8,2.2-22.2,2.1q-.15-34-.1-68.2C350.7,210.4,351,205.4,355.2,204.3Z" transform="translate(0.05 0.05)"/><path class="cls-5" d="M219.9,394.2c27-4.1,54.4.4,80.4,7.6,38.5,11,74.8,28.2,110,46.9,32.7,17.3,66.1,34,101.9,43.9,23.2,6.6,47.7,9.8,71.7,6.6-.4.2-1.3.6-1.7.8-23.3,5.7-47.2,8.2-71.2,9.4A767.93,767.93,0,0,1,364.9,503c-26.9-4.1-53.7-9.6-79.4-18.6-33.7-12.3-66-29.2-93.5-52.4-.5-.8-2.6-1.5-1.7-2.6,14.6-6.4,31.1-7.2,46.6-4.2,22,4,41.9,14.8,60.9,26,16.5,9.8,32.3,20.9,49.5,29.5,19.8,10,41.4,17.2,63.6,17.9,9.1.2,18.3.5,27.2-1.5s17.9-5.8,24.9-12c-4.9.7-9.7,2.1-14.6,2.5-16.8,2-33.8-1.6-49.6-7.4-16.3-6-31.6-14.4-46.2-23.8-17.8-11.3-35.4-22.9-54-32.9-25.1-13.5-54.3-20.4-82.7-16.5-13.2,1.8-25.8,6.7-37.7,12.4a97.06,97.06,0,0,1-7.6-8.1C186,403.1,202.6,396.6,219.9,394.2Z" transform="translate(0.05 0.05)"/><path class="cls-6" d="M219.9,394.2c27-4.1,54.4.4,80.4,7.6,38.5,11,74.8,28.2,110,46.9,32.7,17.3,66.1,34,101.9,43.9,23.2,6.6,47.7,9.8,71.7,6.6-.4.2-1.3.6-1.7.8-23.3,5.7-47.2,8.2-71.2,9.4A767.93,767.93,0,0,1,364.9,503c-26.9-4.1-53.7-9.6-79.4-18.6-33.7-12.3-66-29.2-93.5-52.4-.5-.8-2.6-1.5-1.7-2.6,14.6-6.4,31.1-7.2,46.6-4.2,22,4,41.9,14.8,60.9,26,16.5,9.8,32.3,20.9,49.5,29.5,19.8,10,41.4,17.2,63.6,17.9,9.1.2,18.3.5,27.2-1.5s17.9-5.8,24.9-12c-4.9.7-9.7,2.1-14.6,2.5-16.8,2-33.8-1.6-49.6-7.4-16.3-6-31.6-14.4-46.2-23.8-17.8-11.3-35.4-22.9-54-32.9-25.1-13.5-54.3-20.4-82.7-16.5-13.2,1.8-25.8,6.7-37.7,12.4a97.06,97.06,0,0,1-7.6-8.1C186,403.1,202.6,396.6,219.9,394.2Z" transform="translate(0.05 0.05)"/></svg>