<svg width="346" height="51" viewBox="0 0 346 51" fill="none" xmlns="http://www.w3.org/2000/svg">
<path d="M72.2984 20.1293C72.3477 22.0627 72.6704 22.7067 73.165 22.88C73.5864 23.0293 74.057 23.0533 74.4544 23.0533C74.7264 23.0533 74.8757 23.1027 74.8757 23.252C74.8757 23.4493 74.6517 23.5 74.305 23.5C72.6944 23.5 71.7037 23.4253 71.233 23.4253C71.0104 23.4253 69.845 23.5 68.5571 23.5C68.2344 23.5 68.0117 23.4747 68.0117 23.252C68.0117 23.1027 68.1597 23.0533 68.4077 23.0533C68.7304 23.0533 69.1757 23.0293 69.5224 22.9293C70.1677 22.7307 70.2664 22.012 70.2917 19.8573L70.5144 5.18671C70.5144 4.69071 70.589 4.34404 70.8357 4.34404C71.109 4.34404 71.3317 4.66671 71.753 5.11204C74.2668 7.80827 76.8276 10.4602 79.4344 13.0667C81.1197 14.752 84.465 18.32 84.8863 18.7173H85.0103L84.7637 7.5907C84.7383 6.0787 84.5157 5.60804 83.921 5.36004C83.549 5.21204 82.953 5.21204 82.6063 5.21204C82.309 5.21204 82.2104 5.13737 82.2104 4.98804C82.2104 4.78937 82.4837 4.76537 82.8543 4.76537C84.1437 4.76537 85.333 4.84004 85.853 4.84004C86.125 4.84004 87.0677 4.76537 88.2823 4.76537C88.6037 4.76537 88.8517 4.78937 88.8517 4.98804C88.8517 5.13737 88.7023 5.21204 88.405 5.21204C88.1583 5.21204 87.9597 5.21204 87.6623 5.28537C86.9677 5.48404 86.7703 6.00404 86.745 7.39203L86.473 23.0293C86.473 23.5733 86.373 23.7973 86.1503 23.7973C85.8783 23.7973 85.581 23.524 85.3077 23.252C83.7463 21.7653 80.5744 18.5187 77.997 15.9667C75.297 13.2907 72.5464 10.192 72.0997 9.72136H72.0264L72.2984 20.1293Z" fill="black"/>
<path d="M104.141 15.9173C104.141 11.2586 101.341 8.38398 97.8222 8.38398C95.3929 8.38398 92.5436 9.67331 92.5436 14.876C92.5436 19.2133 95.0223 22.6333 99.1356 22.6333C100.672 22.6333 104.141 21.9133 104.141 15.9173ZM89.3223 15.5213C89.3223 11.928 91.8503 7.26932 98.4662 7.26932C103.968 7.26932 107.388 10.3173 107.388 15.1493C107.388 19.9813 103.869 23.7733 98.2436 23.7733C91.8996 23.7733 89.3223 19.2626 89.3223 15.5213Z" fill="black"/>
<path d="M112.29 15.2973C112.29 15.52 112.339 15.5946 112.489 15.6693C112.959 15.8173 113.603 15.8666 114.149 15.8666C115.015 15.8666 115.313 15.7933 115.685 15.52C116.354 15.0493 117.097 14.1333 117.097 12.3987C117.097 9.424 115.065 8.656 113.777 8.656C113.231 8.656 112.711 8.68133 112.489 8.73067C112.339 8.78 112.29 8.85467 112.29 9.028V15.2973ZM109.515 13.6613C109.515 10.4653 109.515 9.87066 109.49 9.20133C109.441 8.48267 109.242 8.26 108.549 8.06133C108.375 8.012 108.003 7.98667 107.681 7.98667C107.458 7.98667 107.309 7.91334 107.309 7.764C107.309 7.616 107.483 7.56667 107.805 7.56667C108.945 7.56667 110.333 7.616 110.778 7.616C111.522 7.616 113.505 7.56667 114.173 7.56667C115.561 7.56667 117.147 7.68934 118.311 8.45867C118.931 8.87867 119.849 9.94533 119.849 11.3573C119.849 12.9187 118.955 14.3067 116.825 16.016C118.758 18.3946 120.294 20.3026 121.607 21.616C122.822 22.8306 123.59 22.9293 123.937 23.004C124.161 23.0533 124.283 23.0533 124.458 23.0533C124.63 23.0533 124.73 23.1773 124.73 23.276C124.73 23.4506 124.581 23.5 124.309 23.5H122.227C121.013 23.5 120.418 23.376 119.849 23.0786C118.906 22.608 118.089 21.616 116.874 19.9813C116.007 18.8413 115.09 17.428 114.818 17.1066C114.767 17.0544 114.704 17.0139 114.636 16.9881C114.567 16.9623 114.494 16.9518 114.421 16.9573L112.463 16.908C112.365 16.908 112.29 16.9573 112.29 17.0813V17.3786C112.29 19.336 112.315 20.972 112.414 21.864C112.489 22.484 112.587 22.88 113.257 22.9786C113.578 23.0293 114.049 23.0533 114.322 23.0533C114.495 23.0533 114.594 23.1773 114.594 23.276C114.594 23.4253 114.421 23.5 114.149 23.5C112.885 23.5 111.075 23.4253 110.754 23.4253C110.333 23.4253 108.945 23.5 108.078 23.5C107.805 23.5 107.657 23.4253 107.657 23.276C107.657 23.1773 107.73 23.0533 108.003 23.0533C108.325 23.0533 108.573 23.0293 108.771 22.9786C109.217 22.88 109.341 22.484 109.415 21.864C109.515 20.972 109.515 19.312 109.515 17.3786V13.6613Z" fill="black"/>
<path d="M128.471 8.85332L125.225 8.92799C123.961 8.95199 123.441 9.10132 123.119 9.57199C122.956 9.78921 122.831 10.0321 122.747 10.2907C122.698 10.464 122.647 10.5627 122.499 10.5627C122.35 10.5627 122.301 10.4387 122.301 10.216C122.301 9.86932 122.722 7.83733 122.771 7.66399C122.822 7.39199 122.895 7.26799 123.019 7.26799C123.193 7.26799 123.417 7.44133 123.961 7.51466C124.686 7.58693 125.414 7.62031 126.142 7.61466H134.989C135.682 7.61466 136.153 7.56533 136.475 7.51466C136.822 7.46533 136.995 7.41599 137.07 7.41599C137.219 7.41599 137.243 7.53999 137.243 7.86266C137.243 8.30799 137.194 9.86932 137.194 10.4147C137.169 10.6373 137.119 10.7613 136.995 10.7613C136.822 10.7613 136.773 10.6627 136.747 10.34L136.723 10.1173C136.674 9.57199 136.103 8.92799 134.146 8.90266L131.395 8.85332V17.3773C131.395 19.3106 131.421 20.9706 131.519 21.888C131.594 22.4826 131.718 22.8786 132.362 22.9786C132.659 23.028 133.155 23.0533 133.477 23.0533C133.725 23.0533 133.823 23.176 133.823 23.276C133.823 23.424 133.65 23.4986 133.402 23.4986C131.965 23.4986 130.503 23.424 129.883 23.424C129.389 23.424 127.902 23.4986 127.034 23.4986C126.762 23.4986 126.613 23.424 126.613 23.276C126.613 23.176 126.687 23.0533 126.959 23.0533C127.282 23.0533 127.554 23.028 127.727 22.9786C128.174 22.8786 128.298 22.4826 128.373 21.8626C128.471 20.9706 128.471 19.3106 128.471 17.3773V8.85332Z" fill="black"/>
<path d="M152.556 14.4307C152.605 14.4307 152.68 14.4053 152.68 14.2827V13.836C152.68 10.64 152.655 9.872 152.631 9.20267C152.581 8.484 152.383 8.26 151.689 8.06267C151.515 8.012 151.144 7.988 150.847 7.988C150.599 7.988 150.475 7.91333 150.475 7.76534C150.475 7.616 150.623 7.56667 150.945 7.56667C152.109 7.56667 153.647 7.616 154.216 7.616C154.736 7.616 156.173 7.56667 157.016 7.56667C157.339 7.56667 157.488 7.616 157.488 7.76534C157.488 7.91333 157.339 7.988 157.091 7.988C156.917 7.988 156.719 8.012 156.447 8.06267C155.876 8.16133 155.703 8.45867 155.653 9.20267C155.604 9.872 155.604 10.4667 155.604 13.6627V17.38C155.604 19.312 155.604 20.972 155.703 21.8893C155.777 22.484 155.901 22.8813 156.571 22.98C156.868 23.0293 157.339 23.0546 157.685 23.0546C157.908 23.0546 158.033 23.1786 158.033 23.2773C158.033 23.4266 157.859 23.5 157.587 23.5C156.173 23.5 154.736 23.4266 154.141 23.4266C153.647 23.4266 152.109 23.5 151.268 23.5C150.971 23.5 150.796 23.4266 150.796 23.2773C150.796 23.1786 150.896 23.0546 151.144 23.0546C151.491 23.0546 151.739 23.0293 151.936 22.98C152.383 22.8813 152.507 22.484 152.581 21.8653C152.68 20.972 152.68 19.3626 152.68 17.4293V15.8186C152.68 15.744 152.605 15.6946 152.556 15.6946H144.329C144.255 15.6946 144.18 15.72 144.18 15.8186V17.4293C144.18 19.3626 144.205 20.972 144.304 21.8893C144.379 22.484 144.503 22.8813 145.147 22.98C145.444 23.0293 145.94 23.0546 146.261 23.0546C146.509 23.0546 146.609 23.1786 146.609 23.2773C146.609 23.4266 146.435 23.5 146.163 23.5C144.751 23.5 143.239 23.4266 142.619 23.4266C142.124 23.4266 140.687 23.5 139.819 23.5C139.547 23.5 139.397 23.4266 139.397 23.2773C139.397 23.1786 139.472 23.0546 139.744 23.0546C140.067 23.0546 140.315 23.0293 140.513 22.98C140.959 22.8813 141.083 22.484 141.157 21.8653C141.256 20.972 141.256 19.312 141.256 17.38V13.6627C141.256 10.4667 141.256 9.872 141.231 9.20267C141.181 8.484 140.984 8.26 140.289 8.06267C140.116 8.012 139.744 7.988 139.423 7.988C139.199 7.988 139.051 7.91333 139.051 7.76534C139.051 7.616 139.224 7.56667 139.521 7.56667C140.687 7.56667 142.124 7.616 142.719 7.616C143.239 7.616 144.751 7.56667 145.617 7.56667C145.915 7.56667 146.064 7.616 146.064 7.76534C146.064 7.91333 145.94 7.988 145.667 7.988C145.493 7.988 145.296 8.012 145.048 8.06267C144.453 8.16133 144.28 8.45867 144.231 9.20267C144.18 9.872 144.18 10.64 144.18 13.836V14.2827C144.18 14.4053 144.255 14.4307 144.329 14.4307H152.556Z" fill="black"/>
<path d="M160.733 9.62264C160.461 8.85464 160.286 8.35864 159.965 8.15997C159.742 8.01197 159.321 7.98664 159.122 7.98664C158.899 7.98664 158.775 7.91331 158.775 7.76398C158.775 7.61598 158.949 7.56531 159.271 7.56531C160.386 7.56531 161.601 7.61598 161.798 7.61598C161.997 7.61598 163.062 7.56531 164.326 7.56531C164.647 7.56531 164.797 7.61598 164.797 7.76398C164.797 7.91331 164.623 7.98664 164.401 7.98664C164.227 7.98664 164.029 8.01198 163.855 8.08664C163.657 8.15998 163.633 8.28397 163.633 8.50797C163.633 8.77997 163.83 9.47464 164.103 10.44C164.475 11.828 166.458 18.1959 166.779 19.1626H166.854L171.017 8.40797C171.239 7.81331 171.463 7.63998 171.662 7.63998C171.909 7.63998 172.107 7.96264 172.379 8.63197L176.741 19.0146H176.815C177.237 17.8 178.898 12.2493 179.666 9.79597C179.814 9.29997 179.889 8.87864 179.889 8.58131C179.889 8.23464 179.69 7.98664 178.823 7.98664C178.625 7.98664 178.451 7.88798 178.451 7.76398C178.451 7.61598 178.625 7.56531 178.971 7.56531C180.111 7.56531 181.103 7.61598 181.301 7.61598C181.45 7.61598 182.391 7.56531 183.11 7.56531C183.358 7.56531 183.507 7.61598 183.507 7.73998C183.507 7.88798 183.407 7.98664 183.21 7.98664C182.986 7.98664 182.689 8.01198 182.441 8.08664C181.921 8.28397 181.673 9.07731 181.227 10.292C180.21 12.9426 177.981 19.6333 176.915 22.7813C176.667 23.5239 176.543 23.7719 176.221 23.7719C175.923 23.7719 175.775 23.5239 175.453 22.7559L171.017 12.3733H170.967C170.595 13.2653 167.671 20.7239 166.779 22.6573C166.383 23.5239 166.259 23.7719 165.937 23.7719C165.665 23.7719 165.541 23.5493 165.342 23.0039L160.733 9.62264Z" fill="black"/>
<path d="M186.403 13.6626C186.403 10.4653 186.403 9.87066 186.377 9.20266C186.328 8.48399 186.129 8.26133 185.436 8.06266C185.263 8.01333 184.891 7.98799 184.569 7.98799C184.345 7.98799 184.197 7.91333 184.197 7.76533C184.197 7.616 184.371 7.56666 184.692 7.56666C185.832 7.56666 187.22 7.616 187.84 7.616C188.533 7.616 193.367 7.64133 193.787 7.616C194.184 7.59066 194.531 7.51733 194.704 7.492C194.828 7.468 194.952 7.39333 195.051 7.39333C195.175 7.39333 195.2 7.492 195.2 7.59066C195.2 7.74 195.076 7.988 195.027 8.95466C195.001 9.17733 194.952 10.0947 194.903 10.3427C194.877 10.4413 194.828 10.6893 194.655 10.6893C194.505 10.6893 194.481 10.5893 194.481 10.416C194.481 10.268 194.456 9.89599 194.332 9.64799C194.159 9.27599 193.985 8.97866 192.895 8.87999C192.524 8.83066 189.921 8.78133 189.475 8.78133C189.376 8.78133 189.327 8.85599 189.327 8.97866V14.1826C189.327 14.3066 189.352 14.4053 189.475 14.4053C189.971 14.4053 192.796 14.4053 193.292 14.356C193.812 14.3066 194.133 14.2573 194.332 14.0346C194.505 13.8853 194.58 13.7613 194.679 13.7613C194.779 13.7613 194.853 13.8613 194.853 13.9853C194.853 14.108 194.804 14.456 194.679 15.5213C194.63 15.9908 194.597 16.4617 194.58 16.9333C194.58 17.1066 194.556 17.404 194.357 17.404C194.208 17.404 194.159 17.3306 194.159 17.2306C194.133 17.008 194.133 16.736 194.084 16.4626C193.961 16.0413 193.688 15.7186 192.871 15.6453C192.473 15.596 189.996 15.5453 189.451 15.5453C189.352 15.5453 189.327 15.6453 189.327 15.7693V17.4533C189.327 18.172 189.301 19.9573 189.327 20.576C189.376 22.0133 190.045 22.336 192.276 22.336C192.845 22.336 193.763 22.3106 194.332 22.0626C194.877 21.816 195.125 21.3693 195.273 20.5013C195.324 20.2786 195.373 20.18 195.521 20.18C195.696 20.18 195.72 20.452 195.72 20.676C195.72 21.1466 195.547 22.5826 195.423 23.0053C195.273 23.5506 195.076 23.5506 194.259 23.5506C192.623 23.5506 191.309 23.5253 190.244 23.476C189.177 23.4506 188.36 23.4253 187.716 23.4253C187.468 23.4253 186.997 23.4506 186.477 23.4506C185.974 23.4785 185.47 23.495 184.965 23.5C184.692 23.5 184.544 23.4253 184.544 23.2773C184.544 23.1786 184.619 23.0546 184.891 23.0546C185.213 23.0546 185.461 23.0293 185.659 22.98C186.105 22.88 186.229 22.484 186.304 21.8653C186.403 20.9733 186.403 19.312 186.403 17.38V13.6626Z" fill="black"/>
<path d="M199.486 23.2266C199.139 23.0773 199.064 22.9786 199.064 22.5079C199.064 21.3679 199.163 20.0546 199.188 19.7079C199.188 19.3853 199.287 19.1626 199.46 19.1626C199.659 19.1626 199.684 19.3613 199.684 19.5093C199.684 19.7826 199.758 20.2279 199.882 20.5999C200.352 22.1613 201.988 22.6813 203.351 22.6813C205.235 22.6813 206.375 21.4919 206.375 20.0053C206.375 19.0879 206.151 18.172 204.219 17.032L202.955 16.288C200.378 14.776 199.535 13.364 199.535 11.5053C199.535 8.92797 202.014 7.26798 205.036 7.26798C206.448 7.26798 207.564 7.46664 208.134 7.61464C208.332 7.66398 208.431 7.73864 208.431 7.88664C208.431 8.15997 208.356 8.75464 208.356 10.4146C208.356 10.8613 208.258 11.084 208.084 11.084C207.936 11.084 207.862 10.96 207.862 10.712C207.862 10.5146 207.762 9.8693 207.291 9.32397C206.97 8.92797 206.275 8.33331 204.863 8.33331C203.302 8.33331 201.89 9.15197 201.89 10.5893C201.89 11.5306 202.236 12.2733 204.194 13.364L205.086 13.86C207.96 15.4453 208.852 17.056 208.852 18.9639C208.852 20.5253 208.258 21.7893 206.671 22.9039C205.631 23.6479 204.194 23.7719 203.03 23.7719C201.766 23.7719 200.427 23.6479 199.486 23.2266Z" fill="black"/>
<path d="M216.954 8.85332L213.707 8.92799C212.445 8.95199 211.923 9.10132 211.602 9.57199C211.439 9.78921 211.313 10.0321 211.23 10.2907C211.181 10.464 211.13 10.5627 210.982 10.5627C210.833 10.5627 210.783 10.4387 210.783 10.216C210.783 9.86932 211.205 7.83733 211.254 7.66399C211.305 7.39199 211.378 7.26799 211.502 7.26799C211.675 7.26799 211.899 7.44133 212.445 7.51466C213.169 7.58696 213.897 7.62034 214.625 7.61466H223.471C223.969 7.62044 224.466 7.587 224.958 7.51466C225.306 7.46533 225.478 7.41599 225.554 7.41599C225.702 7.41599 225.726 7.53999 225.726 7.86266C225.726 8.30799 225.676 9.86932 225.676 10.4147C225.652 10.6373 225.603 10.7613 225.478 10.7613C225.306 10.7613 225.255 10.6627 225.231 10.34L225.206 10.1173C225.157 9.57199 224.586 8.92799 222.629 8.90266L219.878 8.85332V17.3773C219.878 19.3106 219.903 20.9706 220.002 21.888C220.077 22.4826 220.201 22.8786 220.845 22.9786C221.142 23.028 221.638 23.0533 221.959 23.0533C222.207 23.0533 222.306 23.176 222.306 23.276C222.306 23.424 222.134 23.4986 221.886 23.4986C220.449 23.4986 218.986 23.424 218.367 23.424C217.871 23.424 216.385 23.4986 215.517 23.4986C215.245 23.4986 215.095 23.424 215.095 23.276C215.095 23.176 215.17 23.0533 215.442 23.0533C215.765 23.0533 216.038 23.028 216.211 22.9786C216.657 22.8786 216.781 22.4826 216.855 21.8626C216.954 20.9706 216.954 19.3106 216.954 17.3773V8.85332Z" fill="black"/>
<path d="M240.789 16.3133C240.789 18.692 240.789 20.5506 240.913 21.592C240.987 22.3106 241.136 22.8546 241.88 22.9546C242.227 23.004 242.772 23.0533 243.119 23.0533C243.441 23.0533 243.54 23.128 243.54 23.252C243.54 23.4253 243.367 23.5 242.995 23.5C241.433 23.5 239.872 23.4253 239.228 23.4253C238.584 23.4253 237.023 23.5 236.081 23.5C235.735 23.5 235.56 23.4493 235.56 23.252C235.56 23.128 235.66 23.0533 235.932 23.0533C236.304 23.0533 236.601 23.004 236.824 22.9546C237.32 22.8546 237.444 22.3106 237.543 21.592C237.667 20.5506 237.667 18.692 237.667 16.3133V11.952C237.667 8.18534 237.667 7.49201 237.617 6.69867C237.568 5.85601 237.369 5.46001 236.552 5.28534C236.353 5.23601 235.932 5.21201 235.585 5.21201C235.337 5.21201 235.164 5.16268 235.164 5.01334C235.164 4.81601 235.363 4.76534 235.735 4.76534C236.379 4.76534 237.097 4.79068 237.741 4.79068C238.385 4.81601 238.956 4.84001 239.303 4.84001C240.244 4.84001 245.275 4.84001 245.844 4.81601C246.316 4.79068 246.613 4.79068 246.86 4.71601C247.009 4.66668 247.133 4.56801 247.257 4.56801C247.356 4.56801 247.431 4.66668 247.431 4.79068C247.431 4.96401 247.307 5.26134 247.232 5.90534C247.208 6.15334 247.159 7.616 247.108 7.91334C247.083 8.11067 247.033 8.26 246.86 8.26C246.687 8.26 246.637 8.136 246.613 7.86267C246.613 7.66534 246.613 7.26801 246.464 6.92134C246.291 6.57467 245.771 6.20268 244.828 6.17868L241.012 6.10401C240.864 6.10401 240.789 6.17868 240.789 6.45067V12.6453C240.789 12.7947 240.815 12.8693 240.963 12.8693L244.135 12.844C244.556 12.844 244.903 12.844 245.249 12.82C245.721 12.7947 246.068 12.696 246.316 12.3733C246.439 12.2253 246.488 12.1253 246.637 12.1253C246.736 12.1253 246.785 12.2 246.785 12.3493C246.785 12.4973 246.663 13.1173 246.588 13.8853C246.539 14.487 246.505 15.0899 246.488 15.6933C246.488 15.9173 246.488 16.1653 246.241 16.1653C246.092 16.1653 246.043 15.9906 246.043 15.8173C246.043 15.644 245.993 15.3467 245.893 15.0493C245.771 14.7027 245.399 14.2573 244.631 14.1573C244.011 14.0827 241.384 14.0827 240.963 14.0827C240.839 14.0827 240.789 14.1333 240.789 14.3067V16.3133Z" fill="black"/>
<path d="M255.013 17.3786C255.013 20.08 255.013 21.4173 255.483 21.8146C255.855 22.136 256.698 22.26 258.382 22.26C259.547 22.26 260.39 22.236 260.935 21.6653C261.207 21.3933 261.431 20.7986 261.481 20.4013C261.505 20.204 261.554 20.08 261.729 20.08C261.877 20.08 261.926 20.3026 261.926 20.5506C261.926 20.7986 261.778 22.3599 261.605 22.9786C261.455 23.4493 261.357 23.5493 260.217 23.5493C258.655 23.5493 257.391 23.5239 256.301 23.4746C255.21 23.4493 254.294 23.4253 253.402 23.4253C253.154 23.4253 252.683 23.4493 252.163 23.4493C251.642 23.4746 251.097 23.4999 250.651 23.4999C250.378 23.4999 250.23 23.4253 250.23 23.2759C250.23 23.1773 250.305 23.0533 250.577 23.0533C250.899 23.0533 251.147 23.0279 251.345 22.9786C251.791 22.8799 251.915 22.4826 251.989 21.864C252.089 20.972 252.089 19.312 252.089 17.3786V13.6613C252.089 10.4653 252.089 9.87065 252.063 9.20132C252.014 8.48265 251.815 8.25999 251.122 8.06132C250.886 8.00677 250.645 7.98169 250.403 7.98665C250.155 7.98665 250.031 7.91332 250.031 7.76399C250.031 7.61599 250.181 7.56532 250.502 7.56532C251.518 7.56532 252.906 7.61599 253.501 7.61599C254.021 7.61599 255.806 7.56532 256.649 7.56532C256.97 7.56532 257.119 7.61599 257.119 7.76399C257.119 7.91332 256.995 7.98665 256.722 7.98665C256.475 7.98665 256.127 8.01199 255.881 8.06132C255.285 8.15999 255.111 8.45732 255.062 9.20132C255.013 9.87065 255.013 10.4653 255.013 13.6613V17.3786Z" fill="black"/>
<path d="M277.711 15.9173C277.711 11.2586 274.911 8.38398 271.393 8.38398C268.963 8.38398 266.114 9.67331 266.114 14.876C266.114 19.2133 268.593 22.6333 272.706 22.6333C274.242 22.6333 277.711 21.9133 277.711 15.9173ZM262.893 15.5213C262.893 11.928 265.421 7.26932 272.037 7.26932C277.538 7.26932 280.958 10.3173 280.958 15.1493C280.958 19.9813 277.439 23.7733 271.814 23.7733C265.47 23.7733 262.893 19.2626 262.893 15.5213Z" fill="black"/>
<path d="M287.796 15.2973C287.796 15.52 287.845 15.5946 287.993 15.6693C288.465 15.8173 289.109 15.8666 289.654 15.8666C290.521 15.8666 290.818 15.7933 291.19 15.52C291.86 15.0493 292.602 14.1333 292.602 12.3987C292.602 9.424 290.572 8.656 289.282 8.656C288.737 8.656 288.217 8.68133 287.993 8.73067C287.845 8.78 287.796 8.85467 287.796 9.028V15.2973ZM285.02 13.6613C285.02 10.4653 285.02 9.87066 284.996 9.20133C284.946 8.48267 284.748 8.26 284.054 8.06133C283.881 8.012 283.509 7.98667 283.186 7.98667C282.964 7.98667 282.814 7.91334 282.814 7.764C282.814 7.616 282.989 7.56667 283.31 7.56667C284.45 7.56667 285.838 7.616 286.284 7.616C287.028 7.616 289.01 7.56667 289.68 7.56667C291.066 7.56667 292.653 7.68934 293.817 8.45867C294.437 8.87867 295.354 9.94533 295.354 11.3573C295.354 12.9187 294.462 14.3067 292.33 16.016C294.264 18.3946 295.8 20.3026 297.113 21.616C298.328 22.8306 299.096 22.9293 299.442 23.004C299.666 23.0533 299.789 23.0533 299.964 23.0533C300.137 23.0533 300.236 23.1773 300.236 23.276C300.236 23.4506 300.086 23.5 299.814 23.5H297.733C296.518 23.5 295.924 23.376 295.354 23.0786C294.412 22.608 293.594 21.616 292.38 19.9813C291.513 18.8413 290.596 17.428 290.324 17.1066C290.272 17.0544 290.21 17.0139 290.142 16.9881C290.073 16.9623 290 16.9518 289.926 16.9573L287.969 16.908C287.87 16.908 287.796 16.9573 287.796 17.0813V17.3786C287.796 19.336 287.821 20.972 287.92 21.864C287.993 22.484 288.093 22.88 288.762 22.9786C289.084 23.0293 289.556 23.0533 289.828 23.0533C290.001 23.0533 290.1 23.1773 290.1 23.276C290.1 23.4253 289.926 23.5 289.654 23.5C288.39 23.5 286.581 23.4253 286.26 23.4253C285.838 23.4253 284.45 23.5 283.582 23.5C283.31 23.5 283.161 23.4253 283.161 23.276C283.161 23.1773 283.236 23.0533 283.509 23.0533C283.83 23.0533 284.078 23.0293 284.277 22.9786C284.722 22.88 284.846 22.484 284.921 21.864C285.02 20.972 285.02 19.312 285.02 17.3786V13.6613Z" fill="black"/>
<path d="M302.017 13.6627C302.017 10.4653 302.017 9.87066 301.992 9.20267C301.943 8.484 301.72 8.236 301.249 8.08667C300.991 8.01636 300.724 7.98314 300.456 7.988C300.232 7.988 300.109 7.93867 300.109 7.74C300.109 7.616 300.283 7.56667 300.629 7.56667C301.447 7.56667 302.935 7.616 303.553 7.616C304.099 7.616 305.511 7.56667 306.353 7.56667C306.627 7.56667 306.8 7.616 306.8 7.74C306.8 7.93867 306.676 7.988 306.453 7.988C306.229 7.988 306.056 8.01334 305.809 8.06267C305.213 8.16134 305.04 8.45867 304.991 9.20267C304.941 9.87066 304.941 10.4653 304.941 13.6627V17.38C304.941 19.412 304.941 21.096 305.04 21.988C305.115 22.5586 305.264 22.88 305.908 22.98C306.205 23.0293 306.701 23.0546 307.023 23.0546C307.271 23.0546 307.369 23.1786 307.369 23.2773C307.369 23.4253 307.196 23.5 306.948 23.5C305.511 23.5 304.024 23.4253 303.429 23.4253C302.935 23.4253 301.447 23.5 300.58 23.5C300.307 23.5 300.159 23.4253 300.159 23.2773C300.159 23.1786 300.232 23.0546 300.505 23.0546C300.828 23.0546 301.075 23.0293 301.273 22.98C301.72 22.88 301.844 22.5826 301.917 21.964C302.017 21.096 302.017 19.412 302.017 17.38V13.6627Z" fill="black"/>
<path d="M315.026 15.992C315.026 18.2227 315.051 19.8333 315.075 20.2546C315.1 20.7746 315.15 21.5186 315.323 21.7413C315.595 22.1373 316.463 22.584 318.172 22.584C320.155 22.584 321.618 22.236 322.931 21.1466C324.343 19.9813 324.79 18.0987 324.79 15.9173C324.79 13.2413 323.724 11.5067 322.758 10.664C320.75 8.88001 318.371 8.65734 316.662 8.65734C316.215 8.65734 315.496 8.70667 315.323 8.80534C315.124 8.88001 315.051 8.97867 315.051 9.22667C315.026 9.94534 315.026 11.68 315.026 13.34V15.992ZM312.102 13.6627C312.102 10.4653 312.102 9.87067 312.076 9.20267C312.027 8.48401 311.828 8.26134 311.135 8.06268C310.962 8.01334 310.59 7.98801 310.268 7.98801C310.044 7.98801 309.896 7.91334 309.896 7.76534C309.896 7.61601 310.07 7.56668 310.391 7.56668C311.531 7.56668 312.919 7.61601 313.539 7.61601C314.208 7.61601 315.768 7.56668 317.083 7.56668C319.808 7.56668 323.476 7.56668 325.855 9.97067C326.946 11.06 327.911 12.82 327.911 15.3227C327.911 17.9747 326.771 19.9813 325.532 21.196C324.542 22.1866 322.238 23.6733 318.223 23.6733C317.43 23.6733 316.488 23.6 315.62 23.5506C314.887 23.4808 314.152 23.4394 313.415 23.4266C313.167 23.4266 312.696 23.4506 312.176 23.4506C311.673 23.4785 311.169 23.495 310.664 23.5C310.391 23.5 310.243 23.4266 310.243 23.2773C310.243 23.1786 310.318 23.0546 310.59 23.0546C310.912 23.0546 311.16 23.0293 311.358 22.98C311.804 22.8813 311.928 22.484 312.003 21.8653C312.102 20.9733 312.102 19.312 312.102 17.38V13.6627Z" fill="black"/>
<path d="M338.294 17.032C338.392 17.032 338.418 16.9826 338.392 16.908L336.336 11.556C336.311 11.4813 336.286 11.3573 336.236 11.3573C336.163 11.3573 336.138 11.4813 336.112 11.556L334.006 16.8826C333.956 16.9826 334.006 17.032 334.08 17.032H338.294ZM333.635 18.196C333.511 18.196 333.486 18.2213 333.436 18.3453L332.271 21.1706C332.048 21.6906 331.95 22.2106 331.95 22.4586C331.95 22.8306 332.148 23.0533 332.816 23.0533H333.139C333.411 23.0533 333.462 23.1533 333.462 23.276C333.462 23.4506 333.338 23.5 333.114 23.5C332.396 23.5 331.379 23.4253 330.686 23.4253C330.463 23.4253 329.298 23.5 328.158 23.5C327.886 23.5 327.762 23.4506 327.762 23.276C327.762 23.1533 327.836 23.0533 328.01 23.0533C328.207 23.0533 328.455 23.0293 328.654 23.0293C329.644 22.88 330.016 22.236 330.463 21.1706L336.163 7.91333C336.41 7.31867 336.583 7.07067 336.807 7.07067C337.128 7.07067 337.228 7.26934 337.451 7.73867C337.971 8.904 341.614 17.528 343.002 20.724C343.844 22.632 344.464 22.9053 344.86 22.9786C345.183 23.0293 345.43 23.0533 345.678 23.0533C345.876 23.0533 345.975 23.128 345.975 23.276C345.975 23.4506 345.852 23.5 345.034 23.5C344.266 23.5 342.68 23.5 340.846 23.4506C340.45 23.4253 340.202 23.4253 340.202 23.276C340.202 23.1533 340.251 23.0786 340.474 23.0533C340.623 23.0293 340.772 22.8306 340.672 22.5826L338.987 18.3453C338.938 18.2213 338.863 18.196 338.764 18.196H333.635Z" fill="black"/>
<path d="M138.349 44.484C138.061 44.3573 138.006 44.268 138.006 43.872C138.006 42.88 138.078 41.7987 138.097 41.5107C138.114 41.24 138.169 41.0427 138.313 41.0427C138.475 41.0427 138.493 41.204 138.493 41.348C138.493 41.5827 138.565 41.9613 138.655 42.2667C139.051 43.6013 140.115 44.088 141.233 44.088C142.854 44.088 143.646 42.988 143.646 42.0333C143.646 41.1507 143.377 40.3213 141.881 39.1493L141.051 38.5C139.07 36.9507 138.385 35.6893 138.385 34.2307C138.385 32.248 140.043 30.824 142.547 30.824C143.718 30.824 144.475 31.004 144.945 31.1307C145.106 31.1667 145.197 31.22 145.197 31.3467C145.197 31.5814 145.125 32.104 145.125 33.5094C145.125 33.9054 145.07 34.0493 144.926 34.0493C144.801 34.0493 144.746 33.9413 144.746 33.7254C144.746 33.564 144.655 33.004 144.278 32.536C144.007 32.1934 143.485 31.6534 142.314 31.6534C140.979 31.6534 140.169 32.428 140.169 33.5094C140.169 34.3373 140.583 34.9693 142.079 36.104L142.583 36.4827C144.763 38.1227 145.539 39.3667 145.539 41.0773C145.539 42.1227 145.142 43.3667 143.845 44.2133C142.945 44.7907 141.934 44.952 140.979 44.952C139.934 44.952 139.123 44.8253 138.349 44.484Z" fill="black"/>
<path d="M151.578 34.0507L149.217 34.1054C148.298 34.1227 147.919 34.2307 147.685 34.5734C147.566 34.7315 147.475 34.9082 147.415 35.0961C147.379 35.2227 147.343 35.2947 147.234 35.2947C147.127 35.2947 147.09 35.2041 147.09 35.0414C147.09 34.7894 147.397 33.3121 147.433 33.1854C147.469 32.9881 147.523 32.8974 147.613 32.8974C147.739 32.8974 147.902 33.0227 148.298 33.0774C148.766 33.1307 149.361 33.1494 149.883 33.1494H156.318C156.822 33.1494 157.164 33.1134 157.398 33.0774C157.651 33.0414 157.776 33.0054 157.831 33.0054C157.939 33.0054 157.958 33.0961 157.958 33.3294C157.958 33.6547 157.922 34.7894 157.922 35.1854C157.903 35.3481 157.867 35.4387 157.776 35.4387C157.651 35.4387 157.614 35.3667 157.596 35.1321L157.579 34.9694C157.542 34.5734 157.128 34.1054 155.704 34.0867L153.703 34.0507V40.2494C153.703 41.656 153.722 42.8627 153.795 43.5294C153.848 43.9627 153.939 44.2494 154.407 44.3214C154.676 44.3587 154.947 44.377 155.218 44.376C155.398 44.376 155.47 44.4667 155.47 44.5387C155.47 44.6467 155.344 44.7 155.163 44.7C154.118 44.7 153.055 44.6467 152.604 44.6467C152.244 44.6467 151.163 44.7 150.533 44.7C150.334 44.7 150.226 44.6467 150.226 44.5387C150.226 44.4667 150.281 44.376 150.478 44.376C150.713 44.376 150.911 44.3587 151.038 44.3214C151.362 44.2494 151.451 43.9627 151.506 43.5107C151.578 42.8627 151.578 41.656 151.578 40.2494V34.0507Z" fill="black"/>
<path d="M163.869 39.9973C163.941 39.9973 163.958 39.9613 163.941 39.9079L162.445 36.0146C162.426 35.9613 162.409 35.8706 162.373 35.8706C162.32 35.8706 162.301 35.9613 162.284 36.0146L160.752 39.8893C160.714 39.9613 160.752 39.9973 160.805 39.9973H163.869ZM160.481 40.8439C160.39 40.8439 160.373 40.8613 160.337 40.9519L159.49 43.0066C159.358 43.3029 159.278 43.6201 159.256 43.9439C159.256 44.2146 159.4 44.3759 159.886 44.3759H160.12C160.318 44.3759 160.354 44.4479 160.354 44.5386C160.354 44.6652 160.264 44.6999 160.102 44.6999C159.58 44.6999 158.841 44.6466 158.336 44.6466C158.174 44.6466 157.328 44.6999 156.498 44.6999C156.3 44.6999 156.209 44.6652 156.209 44.5386C156.209 44.4479 156.264 44.3759 156.39 44.3759C156.534 44.3759 156.714 44.3586 156.858 44.3586C157.58 44.2492 157.85 43.7812 158.174 43.0066L162.32 33.3653C162.498 32.9333 162.625 32.7519 162.788 32.7519C163.021 32.7519 163.093 32.8973 163.257 33.2399C163.634 34.0866 166.284 40.3573 167.293 42.6826C167.905 44.0706 168.356 44.2679 168.644 44.3212C168.84 44.3555 169.039 44.3738 169.238 44.3759C169.382 44.3759 169.456 44.4306 169.456 44.5386C169.456 44.6652 169.365 44.6999 168.77 44.6999C168.212 44.6999 167.058 44.6999 165.725 44.6652C165.437 44.6466 165.257 44.6466 165.257 44.5386C165.257 44.4479 165.293 44.3946 165.454 44.3759C165.564 44.3586 165.67 44.2146 165.598 44.0332L164.373 40.9519C164.337 40.8613 164.282 40.8439 164.21 40.8439H160.481Z" fill="black"/>
<path d="M172.125 34.0507L169.763 34.1054C168.845 34.1227 168.467 34.2307 168.231 34.5734C168.113 34.7315 168.022 34.9082 167.962 35.0961C167.926 35.2227 167.89 35.2947 167.782 35.2947C167.674 35.2947 167.637 35.2041 167.637 35.0414C167.637 34.7894 167.945 33.3121 167.979 33.1854C168.017 32.9881 168.07 32.8974 168.159 32.8974C168.286 32.8974 168.449 33.0227 168.845 33.0774C169.313 33.1307 169.907 33.1494 170.43 33.1494H176.865C177.369 33.1494 177.711 33.1134 177.945 33.0774C178.198 33.0414 178.325 33.0054 178.378 33.0054C178.486 33.0054 178.505 33.0961 178.505 33.3294C178.505 33.6547 178.469 34.7894 178.469 35.1854C178.45 35.3481 178.414 35.4387 178.325 35.4387C178.198 35.4387 178.162 35.3667 178.143 35.1321L178.126 34.9694C178.09 34.5734 177.675 34.1054 176.251 34.0867L174.251 34.0507V40.2494C174.251 41.656 174.269 42.8627 174.342 43.5294C174.395 43.9627 174.486 44.2494 174.954 44.3214C175.223 44.3587 175.494 44.377 175.765 44.376C175.946 44.376 176.018 44.4667 176.018 44.5387C176.018 44.6467 175.891 44.7 175.71 44.7C174.666 44.7 173.602 44.6467 173.153 44.6467C172.791 44.6467 171.71 44.7 171.079 44.7C170.881 44.7 170.774 44.6467 170.774 44.5387C170.774 44.4667 170.827 44.376 171.025 44.376C171.261 44.376 171.458 44.3587 171.585 44.3214C171.909 44.2494 171.998 43.9627 172.053 43.5107C172.125 42.8627 172.125 41.656 172.125 40.2494V34.0507Z" fill="black"/>
<path d="M181.426 37.5466C181.426 35.2226 181.426 34.7893 181.408 34.3026C181.372 33.78 181.228 33.6186 180.722 33.4733C180.597 33.4386 180.326 33.42 180.093 33.42C179.93 33.42 179.822 33.3653 179.822 33.2573C179.822 33.1493 179.949 33.1133 180.182 33.1133C181.012 33.1133 182.021 33.1493 182.472 33.1493C182.976 33.1493 186.49 33.168 186.796 33.1493C187.085 33.1306 187.337 33.0773 187.462 33.0586C187.553 33.0413 187.644 32.9866 187.714 32.9866C187.806 32.9866 187.824 33.0586 187.824 33.1306C187.824 33.24 187.733 33.42 187.697 34.1226C187.68 34.2853 187.644 34.952 187.608 35.132C187.589 35.204 187.553 35.384 187.428 35.384C187.318 35.384 187.301 35.312 187.301 35.1853C187.301 35.0773 187.284 34.808 187.193 34.628C187.066 34.3573 186.94 34.14 186.148 34.068C185.877 34.0333 183.985 33.996 183.661 33.996C183.589 33.996 183.552 34.0506 183.552 34.14V37.9253C183.552 38.0146 183.57 38.0866 183.661 38.0866C184.021 38.0866 186.076 38.0866 186.436 38.0519C186.814 38.0146 187.049 37.9786 187.193 37.816C187.318 37.708 187.373 37.6186 187.445 37.6186C187.517 37.6186 187.572 37.6906 187.572 37.7813C187.572 37.8706 187.534 38.1239 187.445 38.8973C187.409 39.2039 187.373 39.8173 187.373 39.9253C187.373 40.0519 187.356 40.2666 187.212 40.2666C187.102 40.2666 187.066 40.2133 187.066 40.1413C187.049 39.9799 187.049 39.7813 187.013 39.5826C186.922 39.2759 186.724 39.0426 186.129 38.9879C185.841 38.9519 184.04 38.9159 183.642 38.9159C183.57 38.9159 183.552 38.9879 183.552 39.0773V40.3039C183.552 40.8266 183.534 42.1239 183.552 42.5746C183.589 43.6199 184.074 43.8533 185.697 43.8533C186.112 43.8533 186.778 43.8359 187.193 43.6546C187.589 43.4759 187.769 43.1506 187.878 42.5199C187.913 42.3586 187.95 42.2866 188.057 42.2866C188.184 42.2866 188.202 42.4839 188.202 42.6466C188.202 42.9879 188.076 44.0333 187.985 44.3399C187.878 44.7373 187.733 44.7373 187.138 44.7373C185.949 44.7373 184.994 44.7186 184.218 44.6826C183.445 44.6653 182.85 44.6466 182.381 44.6466C182.201 44.6466 181.858 44.6653 181.481 44.6653C181.115 44.6846 180.748 44.6962 180.381 44.6999C180.182 44.6999 180.074 44.6466 180.074 44.5386C180.074 44.4666 180.128 44.3759 180.326 44.3759C180.561 44.3759 180.741 44.3586 180.886 44.3226C181.21 44.2493 181.3 43.9613 181.354 43.5106C181.426 42.8626 181.426 41.6546 181.426 40.2493V37.5466Z" fill="black"/>
<path d="M197.846 42.9893C196.079 41.44 195.611 39.4214 195.611 37.6734C195.611 36.448 195.99 34.3214 197.719 32.736C199.018 31.5467 200.73 30.8254 203.414 30.8254C204.531 30.8254 205.198 30.8974 206.027 31.0054C206.711 31.096 207.289 31.2574 207.83 31.312C208.027 31.3307 208.099 31.42 208.099 31.528C208.099 31.6734 208.045 31.888 208.01 32.52C207.973 33.1147 207.991 34.1054 207.955 34.4654C207.938 34.736 207.901 34.88 207.739 34.88C207.595 34.88 207.559 34.736 207.559 34.4827C207.541 33.9254 207.306 33.2934 206.855 32.8254C206.261 32.1947 204.855 31.708 203.198 31.708C201.63 31.708 200.603 32.104 199.81 32.8254C198.495 34.0334 198.153 35.7454 198.153 37.4934C198.153 41.7827 201.414 43.9093 203.829 43.9093C205.433 43.9093 206.406 43.728 207.126 42.9C207.433 42.556 207.667 42.0347 207.739 41.7107C207.794 41.4213 207.83 41.3493 207.973 41.3493C208.099 41.3493 208.135 41.4747 208.135 41.62C208.135 41.836 207.919 43.404 207.739 44.0173C207.649 44.3227 207.577 44.4133 207.271 44.5387C206.55 44.828 205.181 44.9547 204.027 44.9547C201.558 44.9547 199.486 44.4133 197.846 42.9893Z" fill="black"/>
<path d="M220.68 39.1867C220.68 35.7987 218.644 33.708 216.084 33.708C214.319 33.708 212.247 34.6453 212.247 38.4293C212.247 41.5827 214.05 44.0706 217.04 44.0706C218.158 44.0706 220.68 43.548 220.68 39.1867ZM209.904 38.8987C209.904 36.2853 211.743 32.8973 216.554 32.8973C220.554 32.8973 223.042 35.1133 223.042 38.628C223.042 42.1427 220.482 44.8986 216.391 44.8986C211.778 44.8986 209.904 41.62 209.904 38.8987Z" fill="black"/>
<path d="M228.125 40.2493C228.125 42.2146 228.125 43.1866 228.467 43.4759C228.737 43.7093 229.35 43.7999 230.575 43.7999C231.423 43.7999 232.035 43.7813 232.431 43.3666C232.63 43.1679 232.793 42.7373 232.827 42.4479C232.846 42.3039 232.882 42.2146 233.009 42.2146C233.117 42.2146 233.153 42.3759 233.153 42.5559C233.153 42.7373 233.045 43.8719 232.918 44.3226C232.81 44.6653 232.738 44.7373 231.909 44.7373C230.774 44.7373 229.854 44.7186 229.062 44.6826C228.269 44.6653 227.602 44.6466 226.953 44.6466C226.774 44.6466 226.43 44.6653 226.053 44.6653C225.686 44.6847 225.319 44.6962 224.953 44.6999C224.754 44.6999 224.646 44.6466 224.646 44.5386C224.646 44.4666 224.701 44.3759 224.899 44.3759C225.134 44.3759 225.313 44.3586 225.458 44.3226C225.782 44.2506 225.873 43.9613 225.926 43.5106C225.998 42.8626 225.998 41.6546 225.998 40.2493V37.5466C225.998 35.2213 225.998 34.7893 225.981 34.3026C225.943 33.78 225.801 33.6186 225.295 33.4733C225.169 33.4373 224.971 33.42 224.773 33.42C224.593 33.42 224.502 33.3653 224.502 33.2573C224.502 33.1493 224.611 33.1133 224.845 33.1133C225.585 33.1133 226.594 33.1493 227.025 33.1493C227.403 33.1493 228.702 33.1133 229.314 33.1133C229.549 33.1133 229.657 33.1493 229.657 33.2573C229.657 33.3653 229.567 33.42 229.369 33.42C229.187 33.42 228.935 33.4373 228.755 33.4733C228.323 33.5466 228.197 33.7626 228.161 34.3026C228.125 34.7893 228.125 35.2213 228.125 37.5466V40.2493Z" fill="black"/>
<path d="M238.074 40.2493C238.074 42.2146 238.074 43.1866 238.416 43.4759C238.686 43.7093 239.299 43.7999 240.524 43.7999C241.372 43.7999 241.984 43.7813 242.38 43.3666C242.579 43.1679 242.742 42.7373 242.776 42.4479C242.795 42.3039 242.831 42.2146 242.958 42.2146C243.066 42.2146 243.102 42.3759 243.102 42.5559C243.102 42.7373 242.994 43.8719 242.867 44.3226C242.759 44.6653 242.687 44.7373 241.858 44.7373C240.723 44.7373 239.803 44.7186 239.011 44.6826C238.218 44.6653 237.551 44.6466 236.902 44.6466C236.723 44.6466 236.379 44.6653 236.002 44.6653C235.635 44.6847 235.269 44.6962 234.902 44.6999C234.703 44.6999 234.595 44.6466 234.595 44.5386C234.595 44.4666 234.65 44.3759 234.849 44.3759C235.083 44.3759 235.262 44.3586 235.407 44.3226C235.731 44.2506 235.822 43.9613 235.875 43.5106C235.947 42.8626 235.947 41.6546 235.947 40.2493V37.5466C235.947 35.2213 235.947 34.7893 235.93 34.3026C235.893 33.78 235.75 33.6186 235.245 33.4733C235.118 33.4373 234.921 33.42 234.722 33.42C234.542 33.42 234.451 33.3653 234.451 33.2573C234.451 33.1493 234.561 33.1133 234.794 33.1133C235.534 33.1133 236.543 33.1493 236.974 33.1493C237.352 33.1493 238.651 33.1133 239.263 33.1133C239.498 33.1133 239.606 33.1493 239.606 33.2573C239.606 33.3653 239.516 33.42 239.318 33.42C239.136 33.42 238.884 33.4373 238.704 33.4733C238.272 33.5466 238.146 33.7626 238.11 34.3026C238.074 34.7893 238.074 35.2213 238.074 37.5466V40.2493Z" fill="black"/>
<path d="M245.898 37.5466C245.898 35.2226 245.898 34.7893 245.88 34.3026C245.843 33.78 245.699 33.6186 245.195 33.4733C245.068 33.4386 244.799 33.42 244.564 33.42C244.402 33.42 244.295 33.3653 244.295 33.2573C244.295 33.1493 244.42 33.1133 244.654 33.1133C245.484 33.1133 246.492 33.1493 246.943 33.1493C247.447 33.1493 250.962 33.168 251.268 33.1493C251.556 33.1306 251.808 33.0773 251.935 33.0586C252.026 33.0413 252.115 32.9866 252.187 32.9866C252.278 32.9866 252.296 33.0586 252.296 33.1306C252.296 33.24 252.204 33.42 252.17 34.1226C252.151 34.2853 252.115 34.952 252.079 35.132C252.06 35.204 252.026 35.384 251.899 35.384C251.791 35.384 251.772 35.312 251.772 35.1853C251.772 35.0773 251.755 34.808 251.664 34.628C251.538 34.3573 251.412 34.14 250.619 34.068C250.348 34.0333 248.458 33.996 248.132 33.996C248.06 33.996 248.024 34.0506 248.024 34.14V37.9253C248.024 38.0146 248.042 38.0866 248.132 38.0866C248.492 38.0866 250.547 38.0866 250.908 38.0519C251.287 38.0146 251.52 37.9786 251.664 37.816C251.791 37.708 251.844 37.6186 251.916 37.6186C251.988 37.6186 252.043 37.6906 252.043 37.7813C252.043 37.8706 252.007 38.1239 251.916 38.8973C251.882 39.2039 251.844 39.8173 251.844 39.9253C251.844 40.0519 251.827 40.2666 251.683 40.2666C251.575 40.2666 251.538 40.2133 251.538 40.1413C251.52 39.9799 251.52 39.7813 251.484 39.5826C251.394 39.2759 251.196 39.0426 250.602 38.9879C250.314 38.9519 248.511 38.9159 248.115 38.9159C248.042 38.9159 248.024 38.9879 248.024 39.0773V40.3039C248.024 40.8266 248.007 42.1239 248.024 42.5746C248.06 43.6199 248.547 43.8533 250.17 43.8533C250.583 43.8533 251.25 43.8359 251.664 43.6546C252.06 43.4759 252.242 43.1506 252.35 42.5199C252.386 42.3586 252.422 42.2866 252.53 42.2866C252.655 42.2866 252.674 42.4839 252.674 42.6466C252.674 42.9879 252.548 44.0333 252.458 44.3399C252.35 44.7373 252.204 44.7373 251.61 44.7373C250.42 44.7373 249.466 44.7186 248.691 44.6826C247.916 44.6653 247.322 44.6466 246.852 44.6466C246.674 44.6466 246.331 44.6653 245.952 44.6653C245.586 44.6846 245.219 44.6962 244.852 44.6999C244.654 44.6999 244.547 44.6466 244.547 44.5386C244.547 44.4666 244.6 44.3759 244.799 44.3759C245.032 44.3759 245.214 44.3586 245.358 44.3226C245.682 44.2493 245.771 43.9613 245.826 43.5106C245.898 42.8626 245.898 41.6546 245.898 40.2493V37.5466Z" fill="black"/>
<path d="M265.957 43.6733C265.957 44.088 265.957 44.1066 265.758 44.2133C264.695 44.736 263.127 44.8986 261.883 44.8986C257.991 44.8986 254.549 43.1333 254.549 38.8987C254.549 36.448 255.865 34.736 257.325 33.888C258.838 33.0053 260.262 32.8973 261.595 32.8973C262.695 32.8973 264.083 33.0773 264.407 33.1493C264.731 33.204 265.29 33.2933 265.669 33.3107C265.849 33.3293 265.885 33.3827 265.885 33.492C265.885 33.672 265.777 34.0867 265.777 36.0147C265.777 36.2493 265.686 36.3573 265.561 36.3573C265.451 36.3573 265.417 36.2853 265.398 36.1587C265.362 35.816 265.273 35.3307 264.857 34.8973C264.389 34.4107 263.199 33.7253 261.415 33.7253C260.55 33.7253 259.451 33.744 258.353 34.6267C257.47 35.348 256.893 36.4827 256.893 38.3573C256.893 41.6547 259.018 44.052 262.406 44.052C262.822 44.052 263.145 44.052 263.523 43.8893C263.758 43.7813 263.831 43.6186 263.831 43.3493V41.944C263.831 41.1867 263.831 40.6107 263.813 40.1413C263.794 39.6187 263.633 39.456 263.127 39.312C263.001 39.276 262.731 39.2587 262.515 39.2587C262.371 39.2587 262.262 39.1867 262.262 39.096C262.262 38.9707 262.389 38.952 262.605 38.952C263.434 38.952 264.569 38.988 265.038 38.988C265.543 38.988 266.371 38.952 266.894 38.952C267.11 38.952 267.218 38.9707 267.218 39.096C267.218 39.1867 267.129 39.2587 267.019 39.2587C266.874 39.2618 266.729 39.2797 266.587 39.312C266.155 39.384 265.993 39.6 265.974 40.1413C265.957 40.6107 265.957 41.2227 265.957 41.9787V43.6733Z" fill="black"/>
<path d="M270.392 37.5466C270.392 35.2226 270.392 34.7893 270.374 34.3026C270.337 33.78 270.193 33.6186 269.689 33.4733C269.562 33.4386 269.293 33.42 269.058 33.42C268.896 33.42 268.789 33.3653 268.789 33.2573C268.789 33.1493 268.914 33.1133 269.148 33.1133C269.978 33.1133 270.986 33.1493 271.437 33.1493C271.941 33.1493 275.456 33.168 275.762 33.1493C276.05 33.1306 276.302 33.0773 276.429 33.0586C276.52 33.0413 276.609 32.9866 276.681 32.9866C276.772 32.9866 276.79 33.0586 276.79 33.1306C276.79 33.24 276.698 33.42 276.664 34.1226C276.645 34.2853 276.609 34.952 276.573 35.132C276.554 35.204 276.52 35.384 276.393 35.384C276.285 35.384 276.266 35.312 276.266 35.1853C276.266 35.0773 276.249 34.808 276.158 34.628C276.032 34.3573 275.906 34.14 275.113 34.068C274.842 34.0333 272.952 33.996 272.626 33.996C272.554 33.996 272.518 34.0506 272.518 34.14V37.9253C272.518 38.0146 272.536 38.0866 272.626 38.0866C272.986 38.0866 275.041 38.0866 275.402 38.0519C275.781 38.0146 276.014 37.9786 276.158 37.816C276.285 37.708 276.338 37.6186 276.41 37.6186C276.482 37.6186 276.537 37.6906 276.537 37.7813C276.537 37.8706 276.501 38.1239 276.41 38.8973C276.376 39.2039 276.338 39.8173 276.338 39.9253C276.338 40.0519 276.321 40.2666 276.177 40.2666C276.069 40.2666 276.032 40.2133 276.032 40.1413C276.014 39.9799 276.014 39.7813 275.978 39.5826C275.888 39.2759 275.69 39.0426 275.096 38.9879C274.808 38.9519 273.005 38.9159 272.609 38.9159C272.536 38.9159 272.518 38.9879 272.518 39.0773V40.3039C272.518 40.8266 272.501 42.1239 272.518 42.5746C272.554 43.6199 273.041 43.8533 274.664 43.8533C275.077 43.8533 275.744 43.8359 276.158 43.6546C276.554 43.4759 276.736 43.1506 276.844 42.5199C276.88 42.3586 276.916 42.2866 277.024 42.2866C277.149 42.2866 277.168 42.4839 277.168 42.6466C277.168 42.9879 277.042 44.0333 276.952 44.3399C276.844 44.7373 276.698 44.7373 276.104 44.7373C274.914 44.7373 273.96 44.7186 273.185 44.6826C272.41 44.6653 271.816 44.6466 271.346 44.6466C271.168 44.6466 270.825 44.6653 270.446 44.6653C270.08 44.6846 269.713 44.6962 269.346 44.6999C269.148 44.6999 269.041 44.6466 269.041 44.5386C269.041 44.4666 269.094 44.3759 269.293 44.3759C269.528 44.3759 269.708 44.3586 269.852 44.3226C270.176 44.2493 270.265 43.9613 270.32 43.5106C270.392 42.8626 270.392 41.6546 270.392 40.2493V37.5466Z" fill="black"/>
<path d="M51.6588 34C45.5988 34.1346 40.7255 36 40.7255 36C40.7255 36 33.8228 30.624 19.8535 30.3867C14.3882 30.2933 9.58822 31.1333 5.74023 32.2V50.0653H55.8054V34.44C54.6521 34.2906 53.2801 33.9626 51.6588 34Z" fill="black"/>
<path d="M17.8069 21.1679C31.7775 21.4053 41.0828 31.0719 41.0828 31.0719C41.0828 31.0719 46.6801 27.2399 52.7401 27.1039C53.9321 27.0773 54.9441 27.0986 55.8054 27.1506V-7.02512e-08H5.74023V22.4706C9.69429 21.546 13.7466 21.1085 17.8069 21.1679Z" fill="black"/>
<path d="M51.8816 31.6387C45.8216 31.7747 40.8577 33.7307 40.8577 33.7307C40.8577 33.7307 33.6483 27.14 19.3084 26.9307C8.01374 26.7654 4.03908 29.764 2.50842 30.2227C1.75509 30.4493 0.81242 30.524 0.309754 29.368C-0.523577 27.4534 0.58842 26.66 0.58842 26.66C0.58842 26.66 4.06041 23.1467 18.0297 23.384C32.0003 23.6214 40.9017 33.1573 40.9017 33.1573C40.9017 33.1573 46.903 29.4574 52.963 29.32C59.0243 29.1854 60.5056 30.2853 60.5056 30.2853C60.5056 30.2853 60.9589 30.6333 60.3283 31.8213C59.6643 33.068 57.9443 31.5027 51.8816 31.6387Z" fill="#D31534"/>
</svg>
