<?xml version="1.0" encoding="UTF-8" standalone="no"?>
<svg height="150.87399" viewBox="0 0 609.99829 150.87399" width="609.99829" xmlns="http://www.w3.org/2000/svg">
   <path d="m233.1689 31.19079h8.12789v35.66112c0 3.45436 1.42239 5.18153 4.26715 5.18153 2.84476 0 4.36874-1.72717 4.36874-5.18153v-35.66112h8.12789v35.25473c0 8.12789-4.67353 12.49663-12.39503 12.49663-7.7215 0-12.39504-4.47033-12.39504-12.49663z" fill="#006848" stroke-width="1.01598644"/>
   <path d="m267.00126 78.33256v-47.14177h7.5183l9.85507 26.92364h.10159v-26.92364h7.31511v47.14177h-7.01031l-10.36306-29.46361h-.1016v29.46361z" fill="#006848" stroke-width="1.01598644"/>
   <path d="m301.95119 78.33256v-47.14177h8.1279v47.14177z" fill="#006848" stroke-width="1.01598644"/>
   <path d="m336.90113 31.19079h7.92469l-9.85507 47.14177h-8.12789l-9.85506-47.14177h7.92468l5.89273 32.71477h.1016z" fill="#006848" stroke-width="1.01598644"/>
   <path d="m350.61694 78.33256v-47.14177h21.64052v7.1119h-13.61422v12.19185h10.46466v7.1119h-10.46466v13.81742h14.52861v7.1119h-22.55491z" fill="#006848" stroke-width="1.01598644"/>
   <path d="m389.02123 78.33256h-8.12789v-47.14177h11.37905c9.04229 0 13.61422 3.86075 13.61422 13.91901 0 7.6199-2.94636 10.66786-5.68952 11.88705l6.90871 21.33571h-8.2295l-5.68952-19.50694c-1.42238.1016-2.74316.2032-4.16555.2032zm0-26.00925h2.84476c4.36875 0 5.99433-1.62558 5.99433-7.21351 0-5.58792-1.62558-7.2135-5.99433-7.2135h-2.84476z" fill="#006848" stroke-width="1.01598644"/>
   <path d="m429.6607 42.77304c-.3048-4.06395-2.43837-5.18154-4.26715-5.18154-2.64157 0-4.06394 1.72718-4.06394 4.67354 0 8.0263 16.45898 11.88705 16.45898 24.68847 0 7.7215-5.18153 12.09024-12.80143 12.09024-7.6199 0-11.78545-5.99432-12.19184-13.10623l7.7215-1.11758c.30479 4.77514 2.23516 7.11191 4.87673 7.11191 2.84477 0 4.67354-1.52398 4.67354-4.26714 0-9.34709-16.45898-11.78545-16.45898-25.29807 0-7.4167 4.57194-11.78545 12.49663-11.78545 6.60392 0 10.56626 4.77514 11.17585 11.37905z" fill="#006848" stroke-width="1.01598644"/>
   <path d="m446.32288 78.33256v-47.14177h8.12788v47.14177z" fill="#006848" stroke-width="1.01598644"/>
   <path d="m469.28417 38.20109h-7.8231v-7.1119h23.77409v7.1119h-7.8231v40.13147h-8.12789z" fill="#006848" stroke-width="1.01598644"/>
   <path d="m505.85969 78.33256h-8.1279v-19.60854l-9.75347-27.63483h8.2295l5.68952 17.98296h.1016l5.48632-17.98296h8.22949l-9.75347 27.53323z" fill="#006848" stroke-width="1.01598644"/>
   <path d="m536.13608 41.04585c0-4.26714 2.43837-7.72149 7.9247-7.72149 5.48632 0 7.92469 3.45435 7.92469 7.72149v15.443c0 4.26715-2.43837 7.7215-7.92469 7.7215-5.48633 0-7.9247-3.45435-7.9247-7.7215zm5.18154 15.3414c0 2.23517.60959 3.35276 2.74316 3.35276 2.13357 0 2.74316-1.11759 2.74316-3.35276v-15.2398c0-2.23516-.71119-3.35275-2.74316-3.35275-2.03198 0-2.74316 1.11759-2.74316 3.35275z" fill="#006848" stroke-width="1.01598644"/>
   <path d="m557.77659 63.80396v-29.97161h14.42701v4.47034h-9.24547v7.7215h6.90871v4.47035h-6.90871v13.30942z" fill="#006848" stroke-width="1.01598644"/>
   <path d="m247.90071 107.59297c-.3048-4.06394-2.43837-5.18153-4.26715-5.18153-2.64156 0-4.06394 1.72718-4.06394 4.67354 0 8.02629 16.45898 11.88704 16.45898 24.68847 0 7.7215-5.18154 12.09024-12.80143 12.09024-7.6199 0-11.78544-5.99432-12.19184-13.00462l7.7215-1.11759c.3048 4.77514 2.23517 7.1119 4.87673 7.1119 2.84477 0 4.67354-1.52398 4.67354-4.26714 0-9.34707-16.45898-11.78544-16.45898-25.29807 0-7.41669 4.57194-11.78543 12.49663-11.78543 6.60391 0 10.46466 4.77513 11.17586 11.48064z" fill="#006848" stroke-width="1.01598644"/>
   <path d="m263.4453 107.38977c0-6.60391 3.96235-12.09023 12.39503-12.09023 8.5343 0 12.39504 5.38472 12.39504 12.09023v24.38368c0 6.70552-3.86074 12.09024-12.39504 12.09024-8.53428 0-12.39503-5.38472-12.39503-12.09024zm8.0263 24.07889c0 3.55595 1.01598 5.18153 4.26714 5.18153 3.25115 0 4.26714-1.72718 4.26714-5.18153v-23.87569c0-3.55595-1.01599-5.18153-4.26714-5.18153-3.25116 0-4.26714 1.72718-4.26714 5.18153z" fill="#006848" stroke-width="1.01598644"/>
   <path d="m297.27765 96.01073h8.1279v35.55953c0 3.45435 1.42237 5.18153 4.26714 5.18153 2.84476 0 4.26714-1.72718 4.26714-5.18153v-35.55953h8.12789v35.25473c0 8.12789-4.67354 12.49663-12.39503 12.49663-7.7215 0-12.39504-4.47034-12.39504-12.49663z" fill="#006848" stroke-width="1.01598644"/>
   <path d="m335.88514 103.02104h-7.8231v-7.01031h23.77409v7.01031h-7.8231v40.13146h-8.12789z" fill="#006848" stroke-width="1.01598644"/>
   <path d="m357.83045 143.1525v-47.14177h8.12789v19.20214h8.63588v-19.20214h8.1279v47.14177h-8.1279v-20.92932h-8.63588v20.92932z" fill="#006848" stroke-width="1.01598644"/>
   <path d="m407.51219 143.1525v-47.14177h22.5549v7.01031h-14.42701v12.19183h10.87105v7.01031h-10.87105v20.92932z" fill="#006848" stroke-width="1.01598644"/>
   <path d="m437.48379 143.1525v-47.14177h8.12789v40.13146h12.69983v7.01031z" fill="#006848" stroke-width="1.01598644"/>
   <path d="m464.61063 107.38977c0-6.60391 3.86075-12.09023 12.39504-12.09023 8.53429 0 12.39503 5.38472 12.39503 12.09023v24.38368c0 6.70552-3.86074 12.09024-12.39503 12.09024-8.53429 0-12.39504-5.38472-12.39504-12.09024zm8.02629 24.07889c0 3.55595 1.01599 5.18153 4.26715 5.18153 3.25115 0 4.26714-1.72718 4.26714-5.18153v-23.87569c0-3.55595-1.01599-5.18153-4.26714-5.18153-3.25116 0-4.26715 1.72718-4.26715 5.18153z" fill="#006848" stroke-width="1.01598644"/>
   <path d="m506.57088 143.1525h-8.1279v-47.14177h11.37905c9.04228 0 13.61422 3.86075 13.61422 13.91902 0 7.61989-2.94636 10.66785-5.68953 11.88703l6.80711 21.33572h-8.22948l-5.68953-19.50694c-1.42238.1016-2.74317.2032-4.16554.2032zm0-26.00925h2.84476c4.36874 0 5.99432-1.62558 5.99432-7.2135 0-5.58794-1.62558-7.21351-5.99432-7.21351h-2.84476z" fill="#006848" stroke-width="1.01598644"/>
   <path d="m533.39292 143.1525v-47.14177h8.12789v47.14177z" fill="#006848" stroke-width="1.01598644"/>
   <path d="m551.68068 96.01073h11.98863c8.3311 0 12.80144 4.57193 12.80144 14.22381v18.59255c0 9.65188-4.47034 14.22381-12.80144 14.22381h-11.98863zm8.12788 40.43626h2.84477c4.26714 0 5.79112-1.62557 5.79112-6.60391v-20.62453c0-4.97834-1.52398-6.60391-5.79112-6.60391h-2.84477z" fill="#006848" stroke-width="1.01598644"/>
   <path d="m590.28817 143.1525h-7.8231l8.73748-47.14177h10.05827l8.73748 47.14177h-7.8231l-1.42237-10.46466h-8.83909zm2.64156-17.57657h6.50231l-3.25116-20.21813h-.10159z" fill="#006848" stroke-width="1.01598644"/>
   <rect fill="#d5ca9f" height="112.57131" stroke-width="1.01598644" width="2.0319729" x="209.80121" y="31.190779"/>
   <path d="m166.1138 23.36769c0-3.25116 2.94636-13.20782 2.94636-13.20782 0 0-18.38936 10.87105-18.38936 23.16449 0 8.63588 5.48632 13.61422 5.48632 15.84939 0 2.53996-11.17584 7.7215-44.3986 7.7215l-24.282078 40.23306-8.331092 5.38473-10.058266 18.99894h-18.795751l11.480648-18.69414-2.743164-5.79113 27.533235-41.35065c-43.077828 0-48.665754-5.18152-48.665754-6.09592 0-2.43836 18.79575-10.97265 18.79575-25.50126 0-6.70551-6.705511-14.8334-6.705511-14.8334-3.251157 28.14282-45.719393 21.43731-45.719393 53.33929 0 13.10622 15.950988 18.69415 31.59718 19.81174l-5.384728 8.02629c-2.031973 3.04796-.406395 6.40071 2.031973 11.37905l-10.56626 16.96697c0 0-4.876735 3.45436-5.892721 5.58793-2.235171 4.36874 2.336768 10.76946 9.550273 22.6565h51.510516c17.271775-9.75347 24.383673-13.81742 24.383673-17.88136l-.30479-4.26715 9.95666-17.27177c2.64156-1.21918 8.94069-4.36873 11.68385-8.73748l9.04228-14.73181c25.80606-.50799 52.93289-10.87105 52.93289-33.01956 0-14.8334-18.59255-16.76378-18.69414-27.73643m-36.16912 57.50484l-9.95667 16.25578c-2.74317 4.47034-11.17586 7.9247-11.17586 7.9247l-10.972648 19.10055.40639 4.97833c.1016 2.64156-16.96697 11.78544-22.148501 14.7318h-48.462557c-1.727177-3.04796-10.058267-14.935-8.534287-17.88136.609592-1.11759 2.946361-2.84476 5.486327-4.77514l11.785444-18.99894c-2.438368-5.07994-4.165545-8.1279-3.04796-9.75347l8.737484-12.90304c-9.75347 0-34.340344-2.33676-34.340344-16.66217 0-26.51725 37.489903-25.29807 43.585821-45.6178 1.320783 2.13357 2.133572 4.57194 2.235171 7.01031 0 13.61422-18.795751 19.91333-18.795751 25.39966 0 7.7215 26.110853 9.44868 45.820992 9.44868l-25.196465 37.69309 2.743163 5.89273-13.614219 22.1485h26.720445l10.667858-20.01493 8.229489-5.28313 23.672478-39.31868c32.10518 0 45.821-5.18153 45.821-10.97265 0-3.86075-5.48633-7.8231-5.48633-15.84939 0-8.02629 9.44867-14.935 9.44867-14.935-4.87672 18.18616 17.98297 18.18616 17.98297 32.71476-.1016 20.42133-27.53324 29.66681-51.61211 29.66681" fill="#fff" stroke-width="1.01598644"/>
   <path d="m170.07614 23.36769c0-5.79112 5.68953-22.96129 5.68953-22.96129 0 0-29.05722 16.05258-29.05722 32.91796.2032 5.28313 1.82878 10.36306 4.67354 14.8334-8.53429 3.96235-25.50126 4.77514-41.96024 4.77514l-24.891671 41.35065-8.432688 5.38473-9.448675 17.77976h-9.448674l8.839081-14.427-2.743163-5.68953 30.479592-45.7194c-34.441939 0-41.553844-1.11757-49.376941-3.04795 0 0 15.950989-10.15987 15.950989-24.48528 0-9.44867-11.988641-24.07888-11.988641-24.07888l-4.470341 14.93501c-4.775137 16.25578-43.890618 16.05258-43.890618 47.75136 0 13.81741 13.207825 20.72612 28.65082 23.0629l-1.727177 2.53996c-2.844762 4.36875-1.422381 8.73748.812789 13.41102l-8.635885 14.52861c0 0-4.978334 3.45435-6.400715 6.40071-3.04796 6.09592.914388 12.39504 10.871056 28.24443h54.96487c21.538912-12.19184 27.126842-15.3414 27.126842-22.25011 0 0-.1016-1.52397-.2032-2.84476l8.73748-15.1382c3.45435-1.72717 9.34708-5.07993 12.19184-9.75347l7.9247-12.90303c27.02524-1.11758 54.66007-12.69983 54.66007-36.88031-.2032-16.35738-18.79575-20.42133-18.89735-27.73643m-38.20109 60.75599l-9.04228 14.73181c-2.64156 4.36875-9.04229 7.6199-11.68385 8.73748l-9.95666 17.27177.30479 4.26715c0 4.06394-7.111898 8.12789-24.383673 17.88136h-51.408918c-7.213504-11.88704-11.785443-18.28776-9.550273-22.6565 1.015987-2.03197 5.892722-5.58793 5.892722-5.58793l10.56626-16.96697c-2.438368-4.97834-4.063947-8.33109-2.031973-11.48065l5.384728-8.02629c-15.747791-1.11758-31.597181-6.60392-31.597181-19.71014 0-31.90198 42.569836-25.19647 45.719394-53.33929 0 0 6.603912 8.12789 6.603912 14.8334 0 14.52861-18.79575 23.0629-18.79575 25.50126 0 .9144 5.587926 6.09592 48.665754 6.09592l-27.533235 41.35065 2.743164 5.79113-11.480648 18.69414h18.795751l10.058266-18.99894 8.331092-5.38473 24.282078-40.23306c33.32436 0 44.3986-5.07994 44.3986-7.7215 0-2.13357-5.48632-7.21351-5.48632-15.84939 0-12.29344 18.38936-23.16449 18.38936-23.16449 0 0-2.94636 9.95666-2.94636 13.20782 0 10.97265 18.59254 12.80143 18.59254 27.73643.1016 22.25011-27.02523 32.61317-52.83129 33.01956" fill="#d5ca9f" stroke-width="1.01598644"/>
   <path d="m163.57382 18.38936c0 0-9.44867 7.01031-9.44867 14.935 0 7.92469 5.48633 11.98864 5.48633 15.84939 0 5.79112-13.61422 10.97265-45.821 10.97265l-23.672478 39.31868-8.229489 5.28313-10.667858 20.01493h-26.822044l13.614219-22.1485-2.743163-5.89273 25.094867-37.79469c-19.710138 0-45.820992-1.72717-45.820992-9.44867 0-5.58793 18.795751-11.78545 18.795751-25.39967-.101599-2.53996-.914389-4.97833-2.235171-7.01031-6.095919 20.31973-43.585821 19.10055-43.585821 45.6178 0 14.32541 24.586873 16.66217 34.340344 16.66217l-8.737484 12.90304c-1.117585 1.62557.609592 4.67353 3.047959 9.75347l-11.785443 18.99895c-2.438368 2.03197-4.876735 3.75914-5.486327 4.77513-1.52398 2.94636 6.807109 14.935 8.534286 17.88136h48.564156c5.181531-3.04795 22.3517-12.09023 22.14851-14.7318l-.4064-4.97833 10.972658-19.10055c0 0 8.43268-3.45436 11.17585-7.9247l9.95667-16.25578c24.07888 0 51.51051-9.24547 51.51051-29.76841.1016-14.3254-22.65649-14.3254-17.77977-32.51156" fill="#006848" stroke-width="1.01598644"/>
   <path d="m98.347492 143.1525c-1.93037 0-3.55595 1.52398-3.55595 3.45435 0 .91439.3048 1.82878 1.01599 2.43838.60959.71118 1.52398 1.01598 2.43836 1.01598.91439 0 1.828778-.4064 2.438368-1.01598.71119-.6096 1.01599-1.52399 1.01599-2.43838.2032-1.93037-1.42238-3.45435-3.352758-3.45435m2.235168 5.68953c-1.117578 1.21918-3.047958 1.21918-4.267138.1016 0 0 0 0-.1016-.1016-1.21918-1.21919-1.21918-3.14956 0-4.36874 1.21919-1.21919 3.04796-1.21919 4.267138 0 0 0 0 0 0 0 1.21919 1.21918 1.21919 3.14955.1016 4.36874" fill="#fff" stroke-width="1.01598644"/>
   <path d="m99.973072 145.79406c0-.40638-.2032-.81278-.60959-1.01598-.3048-.1016-.71119-.2032-1.01599-.1016h-1.32078v3.86075h.71119v-1.52398h.50799c.3048 0 .508 0 .71119.1016.3048.2032.4064.50799.4064.91439v.40639 0 0h .60959v0c0-.1016 0-.1016 0-.20319 0-.1016 0-.2032 0-.3048v-.3048c0-.2032-.1016-.40639-.2032-.60959-.20319-.2032-.40639-.4064-.60959-.4064.2032 0 .4064 0 .508-.1016.20319-.10159.406388-.30479.30479-.71119m-1.01599.71119c-.20319.1016-.40639.1016-.60959.1016h-.60959v-1.42237h.60959c.3048 0 .60959 0 .81279.1016.2032.1016.3048.30479.3048.50798-.1016.4064-.3048.6096-.508.71119" fill="#fff" stroke-width="1.01598644"/>
</svg>
