<?xml version="1.0" encoding="UTF-8" standalone="no"?>
<svg
   xmlns:dc="http://purl.org/dc/elements/1.1/"
   xmlns:cc="http://creativecommons.org/ns#"
   xmlns:rdf="http://www.w3.org/1999/02/22-rdf-syntax-ns#"
   xmlns:svg="http://www.w3.org/2000/svg"
   xmlns="http://www.w3.org/2000/svg"
   viewBox="0 0 384 144"
   height="144"
   width="384"
   xml:space="preserve"
   id="svg2"
   version="1.1"><metadata
     id="metadata8"><rdf:RDF><cc:Work
         rdf:about=""><dc:format>image/svg+xml</dc:format><dc:type
           rdf:resource="http://purl.org/dc/dcmitype/StillImage" /></cc:Work></rdf:RDF></metadata><defs
     id="defs6" /><g
     transform="matrix(1.3333333,0,0,-1.3333333,0,144)"
     id="g10"><g
       transform="scale(0.1)"
       id="g12"><path
         id="path14"
         style="fill:#449adb;fill-opacity:1;fill-rule:nonzero;stroke:none"
         d="M 1560.65,203.453 H 999.055 v 33.863 h 561.595 v -33.863" /><path
         id="path16"
         style="fill:#295ba4;fill-opacity:1;fill-rule:nonzero;stroke:none"
         d="m 999.055,510.836 h 31.305 l 19.64,-148.535 23.63,148.535 h 27.93 l 23.32,-148.535 19.95,148.535 h 30.38 L 1141.46,295.09 h -31.3 l -23.03,145.457 -22.71,-145.457 h -31.29 l -34.075,215.746" /><path
         id="path18"
         style="fill:#295ba4;fill-opacity:1;fill-rule:nonzero;stroke:none"
         d="m 1222.79,510.836 h 79.49 v -28.551 h -49.1 v -63.824 h 43.89 v -28.543 h -43.89 v -65.371 h 50.03 v -28.539 h -80.42 v 214.828" /><path
         id="path20"
         style="fill:#295ba4;fill-opacity:1;fill-rule:nonzero;stroke:none"
         d="m 1349.23,303.984 v 31.297 c 13.5,-8.285 23.33,-12.582 34.38,-12.582 13.81,0 23.32,8.602 23.32,24.25 0,10.438 -3.38,20.567 -23.32,44.196 -27.01,31.613 -36.22,45.726 -36.22,69.043 v 0.308 c 0,31.305 21.49,52.176 50.03,52.176 13.5,0 23.32,-3.067 32.22,-7.672 v -31.301 c -11.66,7.055 -19.95,10.434 -29.77,10.434 -12.27,0 -22.09,-8.602 -22.09,-22.711 0,-11.047 3.98,-19.027 23.63,-42.352 28.54,-33.761 35.9,-48.797 35.9,-71.808 v -0.313 c 0,-31.922 -22.09,-52.777 -50.32,-52.777 -14.13,0 -26.4,3.672 -37.76,9.812" /><path
         id="path22"
         style="fill:#295ba4;fill-opacity:1;fill-rule:nonzero;stroke:none"
         d="m 1501.42,482.289 h -29.15 v 28.547 h 88.38 v -28.547 h -29.16 V 296 h -30.07 v 186.289" /><path
         id="path24"
         style="fill:#295ba4;fill-opacity:1;fill-rule:nonzero;stroke:none"
         d="m 1688.63,510.836 h 75.8 v -28.551 h -45.42 v -65.058 h 40.21 v -28.848 h -40.21 v -92.371 h -30.38 v 214.828" /><path
         id="path26"
         style="fill:#295ba4;fill-opacity:1;fill-rule:nonzero;stroke:none"
         d="m 1814.15,510.836 h 30.39 V 324.547 h 43.88 v -28.539 h -74.27 v 214.828" /><path
         id="path28"
         style="fill:#295ba4;fill-opacity:1;fill-rule:nonzero;stroke:none"
         d="m 1923.37,398.816 v 9.207 c 0,70.895 22.71,105.571 55.24,105.571 32.53,0 55.24,-34.676 55.24,-105.571 v -9.207 c 0,-70.894 -22.71,-105.574 -55.24,-105.574 -32.53,0 -55.24,34.68 -55.24,105.574 m 79.78,0 v 9.207 c 0,57.387 -10.12,77.954 -24.54,77.954 -14.43,0 -24.55,-20.567 -24.55,-77.954 v -9.207 c 0,-57.39 10.12,-77.957 24.55,-77.957 14.42,0 24.54,20.567 24.54,77.957" /><path
         id="path30"
         style="fill:#295ba4;fill-opacity:1;fill-rule:nonzero;stroke:none"
         d="m 2086.02,510.836 h 34.99 c 19.63,0 36.2,-5.531 47.56,-16.887 11.05,-11.359 17.49,-27.617 17.49,-50.011 v -2.157 c 0,-28.539 -11.96,-47.265 -28.85,-57.39 l 32.54,-88.383 h -32.54 l -28.84,78.562 c -1.22,0 -2.76,-0.312 -3.98,-0.312 h -7.98 v -78.25 h -30.39 z m 35.6,-109.258 c 20.26,0 34.06,12.27 34.06,39.899 v 1.836 c 0,29.464 -14.72,39.277 -34.98,39.277 h -4.29 v -81.012 h 5.21" /><path
         id="path32"
         style="fill:#295ba4;fill-opacity:1;fill-rule:nonzero;stroke:none"
         d="m 2238.86,510.836 h 30.07 V 296.008 h -30.07 v 214.828" /><path
         id="path34"
         style="fill:#295ba4;fill-opacity:1;fill-rule:nonzero;stroke:none"
         d="m 2326.63,510.836 h 32.23 c 45.42,0 73.03,-34.996 73.03,-104.039 v -6.754 c 0,-69.059 -27.61,-104.035 -73.03,-104.035 h -32.23 z m 30.39,-27.617 V 323.621 h 4.6 c 22.09,0 39.58,20.57 39.58,76.422 v 6.754 c 0,55.855 -17.8,76.422 -39.58,76.422 h -4.6" /><path
         id="path36"
         style="fill:#295ba4;fill-opacity:1;fill-rule:nonzero;stroke:none"
         d="m 2511.66,511.445 h 32.52 L 2586.85,296 h -30.7 l -8.59,47.883 h -40.5 L 2498.46,296 H 2469 Z m 31.3,-140.25 -15.65,86.231 -15.65,-86.231 z" /><path
         id="path38"
         style="fill:#295ba4;fill-opacity:1;fill-rule:nonzero;stroke:none"
         d="m 999.262,671.133 v 154.371 h 30.388 V 668.367 c 0,-22.094 8.59,-32.219 21.17,-32.219 12.28,0 20.87,10.125 20.87,32.219 v 157.137 h 30.39 V 671.133 c 0,-42.36 -21.49,-63.219 -51.26,-63.219 -30.07,0 -51.558,20.859 -51.558,63.219" /><path
         id="path40"
         style="fill:#295ba4;fill-opacity:1;fill-rule:nonzero;stroke:none"
         d="m 1157.63,825.504 h 28.84 l 46.96,-131.969 v 131.969 h 29.15 V 610.676 h -27.01 l -48.79,136.867 V 610.676 h -29.15 v 214.828" /><path
         id="path42"
         style="fill:#295ba4;fill-opacity:1;fill-rule:nonzero;stroke:none"
         d="m 1320.29,825.504 h 30.08 V 610.676 h -30.08 v 214.828" /><path
         id="path44"
         style="fill:#295ba4;fill-opacity:1;fill-rule:nonzero;stroke:none"
         d="m 1397.93,825.504 h 31 l 25.46,-155.301 25.48,155.301 h 29.77 l -40.2,-215.754 h -31.31 l -40.2,215.754" /><path
         id="path46"
         style="fill:#295ba4;fill-opacity:1;fill-rule:nonzero;stroke:none"
         d="m 1555.99,825.504 h 79.48 v -28.551 h -49.11 v -63.824 h 43.89 v -28.551 h -43.89 v -65.363 h 50.03 v -28.539 h -80.4 v 214.828" /><path
         id="path48"
         style="fill:#295ba4;fill-opacity:1;fill-rule:nonzero;stroke:none"
         d="m 1687.65,825.504 h 34.98 c 19.65,0 36.21,-5.539 47.58,-16.887 11.04,-11.359 17.49,-27.617 17.49,-50.012 v -2.156 c 0,-28.539 -11.98,-47.265 -28.86,-57.39 l 32.54,-88.383 h -32.54 l -28.85,78.562 c -1.22,0 -2.76,-0.316 -3.98,-0.316 h -7.98 v -78.246 h -30.38 z m 35.6,-109.258 c 20.25,0 34.05,12.27 34.05,39.899 v 1.828 c 0,29.472 -14.72,39.285 -34.98,39.285 h -4.29 v -81.012 h 5.22" /><path
         id="path50"
         style="fill:#295ba4;fill-opacity:1;fill-rule:nonzero;stroke:none"
         d="m 1834.04,618.652 v 31.297 c 13.5,-8.285 23.33,-12.582 34.36,-12.582 13.82,0 23.33,8.602 23.33,24.25 0,10.438 -3.37,20.567 -23.33,44.196 -26.99,31.613 -36.2,45.726 -36.2,69.042 v 0.313 c 0,31.301 21.49,52.172 50.02,52.172 13.51,0 23.32,-3.067 32.22,-7.672 v -31.301 c -11.65,7.055 -19.94,10.434 -29.76,10.434 -12.28,0 -22.1,-8.602 -22.1,-22.711 0,-11.047 3.98,-19.027 23.63,-42.352 28.55,-33.761 35.91,-48.797 35.91,-71.808 v -0.313 c 0,-31.922 -22.09,-52.777 -50.34,-52.777 -14.11,0 -26.38,3.672 -37.74,9.812" /><path
         id="path52"
         style="fill:#295ba4;fill-opacity:1;fill-rule:nonzero;stroke:none"
         d="m 1971.52,825.504 h 30.08 V 610.676 h -30.08 v 214.828" /><path
         id="path54"
         style="fill:#295ba4;fill-opacity:1;fill-rule:nonzero;stroke:none"
         d="m 2079.87,796.957 h -29.16 v 28.551 h 88.39 v -28.551 h -29.16 V 610.668 h -30.07 v 186.289" /><path
         id="path56"
         style="fill:#295ba4;fill-opacity:1;fill-rule:nonzero;stroke:none"
         d="m 2213.06,697.828 -41.43,127.676 h 31.6 l 25.48,-87.777 25.47,87.777 h 30.69 l -41.43,-127.676 v -87.16 h -30.38 v 87.16" /><path
         id="path58"
         style="fill:#295ba4;fill-opacity:1;fill-rule:nonzero;stroke:none"
         d="m 2380.37,747.488 c 15.12,13.828 27.91,17.485 39.65,17.485 23.21,0 32.34,-15.914 32.08,-35.485 -0.26,-16.172 -8.08,-39.91 -25.56,-56.601 -15.13,-14.875 -29.73,-18.004 -41.22,-18.004 -21.91,0 -32.86,15.129 -32.34,34.176 0.52,19.046 11.47,43.558 27.39,58.429 m 25.82,-67.82 c 9.4,13.562 21.92,44.863 21.92,61.82 0,7.047 -1.05,14.086 -8.35,14.086 -4.7,0 -10.17,-2.863 -16.96,-11.472 -12.26,-15.918 -25.82,-46.95 -25.82,-66.266 0,-7.824 3.39,-13.559 9.39,-13.559 6.26,0 12,4.176 19.82,15.391" /><path
         id="path60"
         style="fill:#295ba4;fill-opacity:1;fill-rule:nonzero;stroke:none"
         d="m 2537.03,749.836 c -8.87,-26.082 -20.35,-73.563 -28.43,-99.117 -6.53,-20.348 -12.53,-36.008 -20.62,-44.364 -6.25,-6.253 -19.82,-17.992 -36.51,-17.992 -14.61,0 -23.99,8.352 -23.99,17.481 0,7.043 7.29,13.566 13.03,13.566 3.66,0 6,-1.832 7.83,-5.211 5.21,-9.14 10.96,-14.351 15.39,-14.351 3.91,0 7.56,4.168 12.78,22.168 8.87,31.3 21.39,81.914 34.43,127.82 h -23.21 c -2.61,3.656 -0.52,9.906 3.13,11.48 h 23.21 c 6,20.086 12.01,38.086 22.44,53.473 13.05,19.051 29.48,30.266 48.51,30.266 14.88,0 24.79,-9.387 24.79,-20.082 0,-8.352 -8.34,-15.137 -14.09,-15.137 -3.64,0 -5.22,1.566 -5.74,5.219 -2.08,15.125 -8.34,20.613 -14.09,20.613 -3.9,0 -8.86,-3.398 -15.65,-16.961 -8.6,-17.215 -14.34,-37.043 -20.07,-57.391 h 31.04 c 2.08,-3.128 1.04,-9.39 -3.13,-11.48 h -31.05" /><path
         id="path62"
         style="fill:#449adb;fill-opacity:1;fill-rule:nonzero;stroke:none"
         d="m 328.367,305.684 146.434,95.625 c 5.062,3.304 1.945,11.179 -4.008,10.132 L 292.691,380.039 c -4.543,-0.801 -7.16,-5.551 -5.503,-9.848 8.273,-21.429 18.55,-42.304 31.039,-62.32 2.148,-3.441 6.75,-4.402 10.14,-2.187" /><path
         id="path64"
         style="fill:#449adb;fill-opacity:1;fill-rule:nonzero;stroke:none"
         d="m 592.961,688.5 -49.813,185.598 c -2.457,9.511 -8.64,11.472 -17.996,8.476 -17.039,-5.461 -35.91,-12.75 -52.304,-20.582 -9.512,-4.547 -14.961,-12.008 -8.996,-20.699 L 587.07,685.82 c 2.078,-3.031 6.809,-0.879 5.891,2.68" /><path
         id="path66"
         style="fill:#449adb;fill-opacity:1;fill-rule:nonzero;stroke:none"
         d="M 542.512,627.117 415.691,789.922 c -6.984,8.695 -15.453,14.473 -23.48,6.723 -12.234,-11.809 -32.465,-32.075 -43.418,-45.422 -7.313,-8.922 -0.957,-19.614 8.91,-25.594 L 537.895,621.855 c 3.406,-2.058 7.105,2.168 4.617,5.262" /><path
         id="path68"
         style="fill:#449adb;fill-opacity:1;fill-rule:nonzero;stroke:none"
         d="M 591.227,893.609 640.09,754.844 c 1.301,-3.614 6.492,-2.625 6.465,1.23 l 2.136,144.321 c -0.019,2.804 -2.261,5.078 -4.976,5.011 -16.348,-0.41 -32.637,-2.207 -48.793,-5.093 -2.988,-0.532 -4.754,-3.77 -3.695,-6.704" /><path
         id="path70"
         style="fill:#449adb;fill-opacity:1;fill-rule:nonzero;stroke:none"
         d="m 485.496,484.629 -207.437,39.043 c -8.551,1.582 -16.477,-4.805 -16.844,-13.496 -0.793,-19.039 -0.117,-38.031 2.121,-56.84 0.98,-8.231 8.324,-13.856 16.492,-12.481 l 205.598,35.2 c 4.804,0.804 4.863,7.683 0.07,8.574" /><path
         id="path72"
         style="fill:#449adb;fill-opacity:1;fill-rule:nonzero;stroke:none"
         d="M 503.734,553.559 316.129,668.313 c -6.527,3.792 -14.934,1.191 -18.156,-5.641 -8.875,-18.82 -16.231,-37.969 -21.965,-57.32 -2.445,-8.211 2.73,-16.735 11.164,-18.247 l 214.141,-40.132 c 3.925,-0.703 5.871,4.586 2.421,6.586" /><path
         id="path74"
         style="fill:#295ba4;fill-opacity:1;fill-rule:nonzero;stroke:none"
         d="M 631.207,583.203 C 545.828,561.781 508.676,475.605 526.66,418.422 c 13.031,-41.442 49.18,-69.582 92.242,-68.688 27.258,0.571 56.942,17.907 61.446,47.137 4.941,32.109 -19.774,58.246 -42.993,57.008 -18.988,-1.02 -29.191,-17.516 -29.085,-26.18 0.121,-9.261 6.593,-15.277 12.164,-15.156 4.004,0.09 8.043,2.297 8.921,7.684 0.239,1.488 2.149,1.265 2.676,-0.364 1.149,-3.531 2.649,-12.468 -5.875,-16.8 -13.136,-6.68 -32.84,7.527 -33.031,25.906 -0.211,20.332 16.824,44.461 48.879,44.824 35.082,0.406 63.566,-32.273 66.238,-69.688 2.403,-33.679 -23.773,-71.468 -64.515,-83.421 -36.879,-10.821 -86.098,1.386 -124.938,33.039 -10.621,8.656 -25.215,9.035 -35.914,0.882 l -127.699,-97.48 c -1.371,-0.965 -1.559,-2.949 -0.379,-4.141 64.566,-65.406 152.93,-103.906 241.117,-101.972 3.211,0.074 6.41,0.187 9.621,0.371 137.625,7.633 263.039,119.965 246.238,264.371 -12.207,104.93 -103.937,196.711 -220.566,167.449" /></g></g></svg>