<?xml version="1.0" encoding="UTF-8" standalone="no"?>
<svg
   xmlns:dc="http://purl.org/dc/elements/1.1/"
   xmlns:cc="http://creativecommons.org/ns#"
   xmlns:rdf="http://www.w3.org/1999/02/22-rdf-syntax-ns#"
   xmlns:svg="http://www.w3.org/2000/svg"
   xmlns="http://www.w3.org/2000/svg"
   viewBox="0 0 326.89334 225.66667"
   height="225.66667"
   width="326.89334"
   xml:space="preserve"
   id="svg2"
   version="1.1"><metadata
     id="metadata8"><rdf:RDF><cc:Work
         rdf:about=""><dc:format>image/svg+xml</dc:format><dc:type
           rdf:resource="http://purl.org/dc/dcmitype/StillImage" /></cc:Work></rdf:RDF></metadata><defs
     id="defs6" /><g
     transform="matrix(1.3333333,0,0,-1.3333333,0,225.66667)"
     id="g10"><g
       transform="scale(0.1)"
       id="g12"><path
         id="path14"
         style="fill:#ffffff;fill-opacity:1;fill-rule:nonzero;stroke:none"
         d="m 1291.63,1347.18 h -26.6 c -1.04,0 -1.7,-1.07 -1.27,-2.02 1.25,-2.77 2.25,-5.68 2.83,-8.75 0.47,-2.49 0.98,-10.3 0.98,-11.69 0,-29.56 16.55,-48.15 23.01,-54.28 1.62,-1.55 2.53,-3.67 2.53,-5.92 v -18.88 c 0,-9.77 -30.02,-17.69 -67.04,-17.69 -37.03,0 -67.04,7.92 -67.04,17.69 v 18.88 c 0,1.28 0.36,2.48 0.91,3.59 5.44,6.66 29.75,14.53 88.77,10.87 0,0 -3.11,6.82 -32.49,13.33 -8.57,1.9 -31.42,9.51 -31.42,36.27 0,0.05 0,0.09 0,0.14 0,2.63 0.27,5.2 0.74,7.69 0.58,3.07 1.58,5.98 2.83,8.75 0.43,0.95 -0.23,2.02 -1.27,2.02 h -26.46 l -29.28,-143.79 h 189.55 l -29.28,143.79" /><path
         id="path16"
         style="fill:#ffffff;fill-opacity:1;fill-rule:nonzero;stroke:none"
         d="m 1226.07,1248.28 c -5.82,0 -10.81,3.34 -13.31,8.17 -18.98,-0.98 -32.81,-3.99 -32.81,-7.55 0,-4.35 20.65,-7.88 46.12,-7.88 25.47,0 46.11,3.53 46.11,7.88 0,3.56 -13.83,6.57 -32.8,7.55 -2.51,-4.83 -7.5,-8.17 -13.31,-8.17" /><path
         id="path18"
         style="fill:#ffffff;fill-opacity:1;fill-rule:nonzero;stroke:none"
         d="M 1457.14,1538.79 H 995.121 l -8.125,-39.2 h 478.274 l -8.13,39.2" /><path
         id="path20"
         style="fill:#ffffff;fill-opacity:1;fill-rule:nonzero;stroke:none"
         d="m 890.957,1615.66 h 670.353 v -373.53 c 0,-85.57 -32.11,-163.6 -84.87,-222.83 l -84.26,406.55 23.96,31.84 v 13.07 h -380.01 v -13.07 l 23.96,-31.84 -84.262,-406.55 c -52.762,59.23 -84.871,137.26 -84.871,222.83 z m 231.083,-202.68 h 208.18 l -19.73,-26.56 37.32,-183.26 38.8,0.23 5.35,-26.32 H 1060.3 l 5.36,26.32 h 38.84 l 37.32,183.26 z m 249.52,-472.921 -38.69,114.181 H 1119.33 L 1080.7,940.063 c -9.41,4.542 -18.57,9.523 -27.46,14.89 l 28.19,138.467 -19.62,26.12 h 328.64 l -19.62,-26.12 28.2,-138.467 c -8.9,-5.371 -18.06,-10.351 -27.47,-14.894 z m -326.4,-24.789 6.87,-3.707 c 52,-27.442 111.22,-43.051 174.1,-43.051 v 0 c 62.89,0 122.1,15.609 174.1,43.051 l 6.88,3.703 c 114.86,63.738 192.64,186.194 192.64,326.864 V 1654.1 H 852.52 v -411.97 c 0,-140.67 77.777,-263.126 192.64,-326.86" /><path
         id="path22"
         style="fill:#0a2c4c;fill-opacity:1;fill-rule:nonzero;stroke:none"
         d="m 852.52,1654.1 h 747.23 v -411.97 c 0,-140.67 -77.78,-263.126 -192.64,-326.864 l -6.88,-3.703 c -52,-27.442 -111.21,-43.051 -174.1,-43.051 v 0 c -62.88,0 -122.1,15.609 -174.1,43.051 l -6.87,3.707 c -114.863,63.734 -192.64,186.19 -192.64,326.86 z m -38.442,-411.97 c 0,-227.57 184.485,-412.056 412.052,-412.056 v 0 c 227.57,0 412.05,184.486 412.05,412.056 v 450.41 H 814.078 v -450.41" /><path
         id="path24"
         style="fill:#0a2c4c;fill-opacity:1;fill-rule:nonzero;stroke:none"
         d="m 995.121,1538.79 h 462.019 l 8.13,-39.2 H 986.996 Z m 64.969,-112.94 -23.96,31.84 v 13.07 h 380.01 v -13.07 l -23.96,-31.84 84.26,-406.55 c 52.76,59.23 84.87,137.26 84.87,222.83 v 373.53 H 890.957 v -373.53 c 0,-85.57 32.109,-163.6 84.871,-222.83 l 84.262,406.55" /><path
         id="path26"
         style="fill:none;stroke:#0a2c4c;stroke-width:7.5;stroke-linecap:round;stroke-linejoin:round;stroke-miterlimit:4;stroke-dasharray:none;stroke-opacity:1"
         d="m 1045.16,915.27 6.87,-3.707" /><path
         id="path28"
         style="fill:#0a2c4c;fill-opacity:1;fill-rule:nonzero;stroke:none"
         d="m 1390.45,1119.54 h -328.64 l 19.62,-26.12 -28.19,-138.467 c 8.89,-5.367 18.05,-10.348 27.46,-14.89 l 38.63,114.177 h 213.54 l 38.69,-114.181 c 9.41,4.543 18.57,9.523 27.47,14.894 l -28.2,138.467 19.62,26.12" /><path
         id="path30"
         style="fill:none;stroke:#0a2c4c;stroke-width:7.5;stroke-linecap:round;stroke-linejoin:round;stroke-miterlimit:4;stroke-dasharray:none;stroke-opacity:1"
         d="m 1407.11,915.266 -6.88,-3.703" /><path
         id="path32"
         style="fill:#0a2c4c;fill-opacity:1;fill-rule:nonzero;stroke:none"
         d="m 1272.18,1248.9 c 0,-4.35 -20.64,-7.88 -46.11,-7.88 -25.47,0 -46.12,3.53 -46.12,7.88 0,3.56 13.83,6.57 32.81,7.55 2.5,-4.83 7.49,-8.17 13.31,-8.17 5.81,0 10.8,3.34 13.31,8.17 18.97,-0.98 32.8,-3.99 32.8,-7.55 z m -111.54,98.28 h 26.46 c 1.04,0 1.7,-1.07 1.27,-2.02 -1.25,-2.77 -2.25,-5.68 -2.83,-8.75 -0.47,-2.49 -0.74,-5.06 -0.74,-7.69 0,-0.05 0,-0.09 0,-0.14 0,-26.76 22.85,-34.37 31.42,-36.27 29.38,-6.51 32.49,-13.33 32.49,-13.33 -59.02,3.66 -83.33,-4.21 -88.77,-10.87 -0.55,-1.11 -0.91,-2.31 -0.91,-3.59 v -18.88 c 0,-9.77 30.01,-17.69 67.04,-17.69 37.02,0 67.04,7.92 67.04,17.69 v 18.88 c 0,2.25 -0.91,4.37 -2.53,5.92 -6.46,6.13 -23.01,24.72 -23.01,54.28 0,1.39 -0.51,9.2 -0.98,11.69 -0.58,3.07 -1.58,5.98 -2.83,8.75 -0.43,0.95 0.23,2.02 1.27,2.02 h 26.6 l 29.28,-143.79 h -189.55 z m -94.98,-143.79 -5.36,-26.32 h 331.66 l -5.35,26.32 -38.8,-0.23 -37.32,183.26 19.73,26.56 h -208.18 l 19.78,-26.33 -37.32,-183.26 h -38.84" /><path
         id="path34"
         style="fill:#0a2c4c;fill-opacity:1;fill-rule:nonzero;stroke:none"
         d="M 203.727,420.98 153.711,537.988 105.531,420.98 Z m 101.402,-98.648 32.113,-27.992 v -1.371 H 213.359 v 1.371 l 32.121,27.992 -28.449,69.289 H 93.6016 L 65.1563,322.332 97.2773,294.34 v -1.371 H 0 v 1.371 l 31.6602,27.992 121.1328,291.816 h 27.07 L 305.129,322.332" /><path
         id="path36"
         style="fill:#0a2c4c;fill-opacity:1;fill-rule:nonzero;stroke:none"
         d="M 668.48,584.781 V 431.07 c 0,-97.261 -66.992,-142.691 -136.734,-142.691 -72.035,0 -148.66,38.082 -148.66,148.66 v 147.742 l -32.117,27.989 v 1.378 H 473.938 V 612.77 L 443.191,584.781 V 429.238 c 0,-73.41 37.625,-111.5 95.442,-111.5 54.597,0 95.894,35.332 95.894,109.203 v 157.84 l -32.121,27.989 v 1.378 h 98.196 V 612.77 L 668.48,584.781" /><path
         id="path38"
         style="fill:#0a2c4c;fill-opacity:1;fill-rule:nonzero;stroke:none"
         d="M 1044.67,598.551 V 525.59 h -1.37 c -39.93,52.769 -75.253,63.781 -108.749,63.781 -68.824,0 -115.164,-55.062 -115.164,-131.691 v -5.95 c 0,-79.39 51.847,-133.992 120.215,-133.992 19.269,0 33.953,3.672 46.339,9.184 15.599,6.43 20.649,15.137 20.649,35.789 v 50.469 l -58.274,28.91 v 1.371 H 1058.9 V 330.59 c -23.41,-20.192 -75.252,-42.211 -122.97,-42.211 -94.977,0 -176.653,61.019 -176.653,164.262 v 4.129 c 0,99.109 82.594,161.968 175.274,161.968 39.457,0 77.999,-8.258 110.119,-20.187" /><path
         id="path40"
         style="fill:#0a2c4c;fill-opacity:1;fill-rule:nonzero;stroke:none"
         d="M 1453.9,584.781 V 431.07 c 0,-97.261 -66.98,-142.691 -136.73,-142.691 -72.04,0 -148.66,38.082 -148.66,148.66 v 147.742 l -32.12,27.989 v 1.378 h 122.97 v -1.378 l -30.74,-27.989 V 429.238 c 0,-73.41 37.63,-111.5 95.44,-111.5 54.6,0 95.9,35.332 95.9,109.203 v 157.84 l -32.12,27.989 v 1.378 h 98.18 v -1.378 l -32.12,-27.989" /><path
         id="path42"
         style="fill:#0a2c4c;fill-opacity:1;fill-rule:nonzero;stroke:none"
         d="M 1764.03,598.551 V 525.59 h -1.38 c -27.53,39.93 -62.4,63.781 -100.49,63.781 -43.12,0 -56.89,-25.691 -56.89,-44.973 v -2.277 c 0,-31.66 28.9,-42.68 72.96,-54.609 71.57,-18.813 111.95,-48.18 111.95,-106.453 v -2.75 c -0.46,-47.719 -41.76,-89.93 -118.38,-89.93 -38.08,0 -84.88,16.98 -120.21,32.582 v 80.75 h 1.37 c 37.17,-50.93 73.87,-83.973 118.84,-83.973 43.14,0 65.16,22.481 65.16,49.094 v 2.297 c 0,39.461 -38.09,54.609 -88.1,67.453 -61.48,16.059 -94.06,46.348 -94.06,93.137 v 3.222 c 0.46,44.957 41.3,85.797 107.36,85.797 40.38,0 70.67,-9.636 101.87,-20.187" /><path
         id="path44"
         style="fill:#0a2c4c;fill-opacity:1;fill-rule:nonzero;stroke:none"
         d="m 2120.04,528.352 -39.92,56.429 h -78.45 V 322.332 l 32.11,-27.992 v -1.371 h -118.37 v 1.371 l 31.66,27.992 v 262.449 h -78.01 l -40.37,-56.429 h -1.38 v 85.796 h 294.11 v -85.796 h -1.38" /><path
         id="path46"
         style="fill:#0a2c4c;fill-opacity:1;fill-rule:nonzero;stroke:none"
         d="m 2318.23,420.98 -50.02,117.008 -48.18,-117.008 z m 101.39,-98.648 32.12,-27.992 v -1.371 h -123.88 v 1.371 l 32.12,27.992 -28.45,69.289 H 2208.1 l -28.45,-69.289 32.12,-27.992 v -1.371 h -97.26 v 1.371 l 31.66,27.992 121.12,291.816 h 27.08 l 125.25,-291.816" /><path
         id="path48"
         style="fill:#0a2c4c;fill-opacity:1;fill-rule:nonzero;stroke:none"
         d="m 503.453,149.141 h 24.074 V 61.082 c 0,-14.7109 -2.672,-30.3203 -16.714,-43.25 C 500.105,8.01953 483.609,0 456.191,0 428.77,0 411.605,7.12891 400.68,16.7188 385.969,29.8711 384.184,43.6914 384.184,61.082 v 88.059 h 33.218 V 63.3086 c 0,-24.0781 12.481,-42.7969 41.465,-42.7969 32.543,0 44.586,18.5 44.586,43.4571 v 85.1722" /><path
         id="path50"
         style="fill:#0a2c4c;fill-opacity:1;fill-rule:nonzero;stroke:none"
         d="M 704.695,4.67969 618.871,110.129 V 4.67969 H 594.797 V 149.141 H 632.02 L 709.156,54.1719 V 149.141 H 733.23 V 4.67969 h -28.535" /><path
         id="path52"
         style="fill:#0a2c4c;fill-opacity:1;fill-rule:nonzero;stroke:none"
         d="M 805.41,4.67969 V 149.141 h 33.438 V 4.67969 H 805.41" /><path
         id="path54"
         style="fill:#0a2c4c;fill-opacity:1;fill-rule:nonzero;stroke:none"
         d="M 955.41,4.67969 883.402,149.141 h 38.344 L 974.355,44.1406 1025.19,149.141 h 27.86 L 977.258,4.67969 H 955.41" /><path
         id="path56"
         style="fill:#0a2c4c;fill-opacity:1;fill-rule:nonzero;stroke:none"
         d="M 1093.13,4.67969 V 149.141 h 122.84 V 128.41 h -89.4 V 90.5117 h 56.4 V 70 h -56.4 V 25.6289 h 94.75 V 4.67969 h -128.19" /><path
         id="path58"
         style="fill:#0a2c4c;fill-opacity:1;fill-rule:nonzero;stroke:none"
         d="m 1359.49,84.2695 c 17.83,0 31.66,7.8008 31.66,22.5115 0,19.84 -16.72,22.957 -36.79,22.957 h -43.69 V 84.2695 Z m -82.27,64.8715 h 82.27 c 31.87,0 46.14,-4.243 57.07,-14.942 6.69,-6.687 10.7,-16.949 10.7,-28.308 0,-8.2504 -3.79,-16.2699 -10.03,-22.5199 -7.59,-7.3594 -19.18,-11.8203 -31.43,-13.1602 l 42.8,-65.53121 h -41.47 l -38.12,60.41011 h -38.34 V 4.67969 h -33.45 V 149.141" /><path
         id="path60"
         style="fill:#0a2c4c;fill-opacity:1;fill-rule:nonzero;stroke:none"
         d="m 1604.88,117.031 c -16.95,10.039 -38.79,16.938 -61.09,16.938 -15.38,0 -34.77,-2.449 -34.77,-19.168 0,-16.4924 28.08,-16.719 49.93,-18.2815 28.98,-2 67.55,-9.1406 67.55,-44.5781 0,-39.2422 -41.24,-51.281244 -74.68,-51.281244 -38.57,0 -64.87,13.820344 -81.82,26.750044 l 14.05,16.9414 c 13.59,-11.3633 37,-23.8399 66.87,-23.8399 24.75,0 43.48,4.8985 43.48,22.9571 0,17.1601 -22.97,18.2812 -44.59,19.1718 -29.87,1.3282 -72.45,9.8086 -72.45,43.4684 0,36.121 35.45,47.711 66.66,47.711 33.66,0 55.95,-8.468 73.11,-19.621 l -12.25,-17.168" /><path
         id="path62"
         style="fill:#0a2c4c;fill-opacity:1;fill-rule:nonzero;stroke:none"
         d="M 1683.73,4.67969 V 149.141 h 33.44 V 4.67969 h -33.44" /><path
         id="path64"
         style="fill:#0a2c4c;fill-opacity:1;fill-rule:nonzero;stroke:none"
         d="M 1815.9,4.67969 V 128.41 h -49.05 v 20.731 h 132.2 V 128.41 h -49.93 V 4.67969 h -33.22" /><path
         id="path66"
         style="fill:#0a2c4c;fill-opacity:1;fill-rule:nonzero;stroke:none"
         d="M 1980.6,4.67969 V 62.1992 l -64.87,86.9418 h 41.02 l 47.48,-66.2113 46.15,66.2113 h 30.09 L 2014.04,62.1992 V 4.67969 h -33.44" /></g></g></svg>