<svg xmlns="http://www.w3.org/2000/svg" viewBox="0 0 180.64 178.2"><defs><style>.cls-1{fill:#231f20;}.cls-2{fill-rule:evenodd;}</style></defs><title>augusta-technical-college-logo</title><g id="Layer_2" data-name="Layer 2"><path class="cls-1" d="M7.64,127.81V109.44H6.82Q2,109.15,1.5,114.84H.65l.42-6.25H18.39l.57,6.2h-.84a17.09,17.09,0,0,0-.6-2.4,4.22,4.22,0,0,0-2.08-2.5,7,7,0,0,0-2.8-.44h-.81v18.37h2.7v.75H4.93v-.75Z" transform="translate(-0.65 -1.17)"/><path class="cls-1" d="M24.52,127.81v-18.5h-2.4v-.75H37.85l.42,5.13H37.5a5.85,5.85,0,0,0-1.63-3.34,3.56,3.56,0,0,0-1.77-.79,11.76,11.76,0,0,0-1.87-.1h-3.5V118h.85a4.79,4.79,0,0,0,2.4-.5,2.39,2.39,0,0,0,1.08-1.63,8.85,8.85,0,0,0,.1-1.29H34v8.1h-.81a5.82,5.82,0,0,0-.54-2.62q-.67-1.19-3.13-1.22h-.76v9h2.78a10,10,0,0,0,3.59-.51q2.24-.89,3.09-5.08H39l-.41,6.34H22.12v-.75Z" transform="translate(-0.65 -1.17)"/><path class="cls-1" d="M58.83,108.56l.21,5.21h-.94q-1.05-4.85-5-4.85A4.29,4.29,0,0,0,49.19,111q-1.24,2-1.25,8.33a20.52,20.52,0,0,0,.5,5.23,4.78,4.78,0,0,0,1.95,3,4.42,4.42,0,0,0,2.29.59,5.15,5.15,0,0,0,4.25-2.23,9.07,9.07,0,0,0,1.48-3h.86L59,128.56h-.78l-.89-1.25a8.82,8.82,0,0,1-1.25.89,7.28,7.28,0,0,1-3.57.79,9,9,0,0,1-5.8-2,9.16,9.16,0,0,1-2.62-3.43,11.68,11.68,0,0,1-1-4.7A10.84,10.84,0,0,1,46.3,111a8.94,8.94,0,0,1,6.55-2.86,6.63,6.63,0,0,1,4.64,1.68l.54-1.25Z" transform="translate(-0.65 -1.17)"/><path class="cls-1" d="M65.74,127.81v-18.5h-2.4v-.75h9.3v.75h-2.7v8.42h7v-8.42H74.43v-.75h9.21v.75H81.12v18.5h2.55v.75h-9.3v-.75h2.55v-9.16h-7v9.16h2.68v.75H63.34v-.75Z" transform="translate(-0.65 -1.17)"/><path class="cls-1" d="M103.52,128.76,90.53,111v14.6a5.65,5.65,0,0,0,.1,1.41.93.93,0,0,0,.54.64,2.61,2.61,0,0,0,1,.12h1.17v.75H87.23v-.75H88a2.74,2.74,0,0,0,1-.12,1,1,0,0,0,.54-.64,6.57,6.57,0,0,0,.09-1.41V111.46a3.67,3.67,0,0,0-.26-1.82q-.28-.34-1.36-.34h-.78v-.75h6.46l9.62,12.79v-9.79a3.72,3.72,0,0,0-.26-1.83,1.91,1.91,0,0,0-1.36-.34h-.85v-.75h5.76v.75h-.78a1.85,1.85,0,0,0-1.35.34,3.72,3.72,0,0,0-.26,1.83v17.2Z" transform="translate(-0.65 -1.17)"/><path class="cls-1" d="M112.55,127.81v-18.5h-2.4v-.75h9v.75h-2.39v18.5h2.39v.75h-9v-.75Z" transform="translate(-0.65 -1.17)"/><path class="cls-1" d="M138.84,108.56l.21,5.21h-.94q-1.05-4.85-5-4.85a4.29,4.29,0,0,0-3.93,2.11q-1.25,2-1.25,8.33a20.52,20.52,0,0,0,.5,5.23,4.78,4.78,0,0,0,1.95,3,4.42,4.42,0,0,0,2.29.59,5.15,5.15,0,0,0,4.25-2.23,9.07,9.07,0,0,0,1.48-3h.86l-.25,5.64h-.78l-.89-1.25a8.82,8.82,0,0,1-1.25.89,7.28,7.28,0,0,1-3.57.79,9,9,0,0,1-5.8-2,9.16,9.16,0,0,1-2.62-3.43,11.68,11.68,0,0,1-1-4.7,10.84,10.84,0,0,1,3.16-7.92,8.94,8.94,0,0,1,6.55-2.86,6.63,6.63,0,0,1,4.64,1.68l.54-1.25Z" transform="translate(-0.65 -1.17)"/><path class="cls-1" d="M154.11,123.19h-6.28l-1.2,3.35a2.6,2.6,0,0,0-.19.78q0,.48,1,.48H149v.75h-6.24v-.75h1.08a2,2,0,0,0,1.33-.44,4,4,0,0,0,.64-1.27l6.39-17.53h1L160,127.81h2.15v.75h-9v-.75h2.59Zm-.31-.75-2.84-7.9-2.84,7.9Z" transform="translate(-0.65 -1.17)"/><path class="cls-1" d="M167.21,127.81v-18.5h-2.4v-.75h9v.75h-2.39v18.5h2.42a6.32,6.32,0,0,0,2.37-.38,5.72,5.72,0,0,0,2.78-2.81,10.35,10.35,0,0,0,.81-2.36h.76l-.59,6.3H164.8v-.75Z" transform="translate(-0.65 -1.17)"/><path class="cls-1" d="M17.14,144.56l.2,5.21h-.94q-1.05-4.85-5-4.85A4.29,4.29,0,0,0,7.5,147q-1.25,2-1.25,8.34a20.53,20.53,0,0,0,.5,5.23,4.78,4.78,0,0,0,1.95,3,4.42,4.42,0,0,0,2.29.59,5.15,5.15,0,0,0,4.25-2.23,9.08,9.08,0,0,0,1.48-3h.86l-.25,5.64h-.78l-.89-1.25a8.83,8.83,0,0,1-1.25.89,7.28,7.28,0,0,1-3.57.79A9,9,0,0,1,5,163a9.16,9.16,0,0,1-2.62-3.43,11.68,11.68,0,0,1-1-4.7A10.84,10.84,0,0,1,4.62,147a8.94,8.94,0,0,1,6.55-2.86,6.63,6.63,0,0,1,4.64,1.68l.54-1.25Z" transform="translate(-0.65 -1.17)"/><path class="cls-1" d="M38.06,144.06a9,9,0,0,1,5.57,1.85,9.38,9.38,0,0,1,3,3.84,11.6,11.6,0,0,1,.89,4.6,11,11,0,0,1-2.26,7A9.26,9.26,0,0,1,37.5,165a8.81,8.81,0,0,1-6.17-2.26,10.35,10.35,0,0,1-3.46-8,10.51,10.51,0,0,1,2.07-6.46A9.62,9.62,0,0,1,38.06,144.06Zm-.37.89a4.06,4.06,0,0,0-3.79,2.14q-1.22,2.11-1.22,7.56t1,7.38a4.19,4.19,0,0,0,4,2.14,3.89,3.89,0,0,0,3.63-1.79q1.35-2.27,1.35-8.09,0-5.54-1.05-7.4a3.54,3.54,0,0,0-1.87-1.66A6.16,6.16,0,0,0,37.69,145Z" transform="translate(-0.65 -1.17)"/><path class="cls-1" d="M59.92,163.81v-18.5h-2.4v-.75h9v.75H64.13v18.5h2.42a6.32,6.32,0,0,0,2.37-.38,5.72,5.72,0,0,0,2.78-2.81,10.35,10.35,0,0,0,.81-2.36h.76l-.59,6.3H57.52v-.75Z" transform="translate(-0.65 -1.17)"/><path class="cls-1" d="M85.39,163.81v-18.5H83v-.75h9v.75H89.6v18.5H92a6.32,6.32,0,0,0,2.37-.38,5.72,5.72,0,0,0,2.78-2.81,10.35,10.35,0,0,0,.81-2.36h.76l-.59,6.3H83v-.75Z" transform="translate(-0.65 -1.17)"/><path class="cls-1" d="M110.87,163.81v-18.5h-2.4v-.75H124.2l.42,5.13h-.78a5.85,5.85,0,0,0-1.63-3.34,3.56,3.56,0,0,0-1.77-.79,11.76,11.76,0,0,0-1.87-.1h-3.5V154h.85a4.79,4.79,0,0,0,2.4-.5,2.38,2.38,0,0,0,1.08-1.63,8.82,8.82,0,0,0,.1-1.29h.81v8.1h-.81A5.82,5.82,0,0,0,119,156q-.67-1.19-3.13-1.22h-.76v9h2.78a10,10,0,0,0,3.59-.51q2.24-.89,3.09-5.08h.79l-.41,6.34H108.46v-.75Z" transform="translate(-0.65 -1.17)"/><path class="cls-1" d="M151.44,144.41V150h-.81a8.1,8.1,0,0,0-1.46-3.52,4.18,4.18,0,0,0-1.93-1.26,6.27,6.27,0,0,0-2-.34,4,4,0,0,0-3.81,1.83,9.38,9.38,0,0,0-.92,3,28.3,28.3,0,0,0-.4,4.91,34,34,0,0,0,.41,5.43,6.77,6.77,0,0,0,.83,2.59,3.51,3.51,0,0,0,3.08,1.58,3.73,3.73,0,0,0,3.12-1.36,2.45,2.45,0,0,0,.56-1.58v-3.4h-3v-.79H154v.79h-1.87v3.4a12.36,12.36,0,0,1-2.37,2.18,9.93,9.93,0,0,1-5.52,1.51,7.82,7.82,0,0,1-5.51-2,9,9,0,0,1-2.27-3.31,13.36,13.36,0,0,1-.94-5,10.35,10.35,0,0,1,3.38-8.16,9.64,9.64,0,0,1,3-1.83,8.33,8.33,0,0,1,7.56.69l1.25-.92Z" transform="translate(-0.65 -1.17)"/><path class="cls-1" d="M165.92,163.81v-18.5h-2.4v-.75h15.73l.42,5.13h-.78a5.85,5.85,0,0,0-1.63-3.34,3.56,3.56,0,0,0-1.77-.79,11.76,11.76,0,0,0-1.87-.1h-3.5V154H171a4.79,4.79,0,0,0,2.4-.5,2.38,2.38,0,0,0,1.08-1.63,8.83,8.83,0,0,0,.1-1.29h.81v8.1h-.81A5.82,5.82,0,0,0,174,156q-.67-1.19-3.13-1.22h-.76v9h2.78a10,10,0,0,0,3.59-.51q2.24-.89,3.09-5.08h.79l-.41,6.34H163.52v-.75Z" transform="translate(-0.65 -1.17)"/></g><g id="welder"><path d="M32.23,179.25v-7.16h4.64v1.21H33.49v1.59h3.14v1.21H33.49V178H37v1.21Z" transform="translate(-0.65 -1.17)"/><path d="M40.16,176.92l1.23-.14a1.82,1.82,0,0,0,.45,1,1.25,1.25,0,0,0,.92.33,1.29,1.29,0,0,0,.92-.29.93.93,0,0,0,.31-.69.71.71,0,0,0-.13-.43,1,1,0,0,0-.45-.31q-.22-.09-1-.31A3.24,3.24,0,0,1,41,175.4a2,2,0,0,1-.58-1.44,2,2,0,0,1,.27-1,1.77,1.77,0,0,1,.78-.72,2.78,2.78,0,0,1,1.23-.25,2.42,2.42,0,0,1,1.77.59,2.22,2.22,0,0,1,.62,1.58l-1.26.06a1.29,1.29,0,0,0-.35-.79,1.15,1.15,0,0,0-.8-.24,1.31,1.31,0,0,0-.86.26.55.55,0,0,0-.2.44.58.58,0,0,0,.19.43,3.07,3.07,0,0,0,1.16.48,5.64,5.64,0,0,1,1.36.51A1.87,1.87,0,0,1,45,176a2.37,2.37,0,0,1,.25,1.14,2.34,2.34,0,0,1-.3,1.15,1.86,1.86,0,0,1-.84.8,3.13,3.13,0,0,1-1.36.26,2.48,2.48,0,0,1-1.82-.63A2.9,2.9,0,0,1,40.16,176.92Z" transform="translate(-0.65 -1.17)"/><path d="M50.15,179.25V173.3H48.29v-1.21h5v1.21H51.41v5.95Z" transform="translate(-0.65 -1.17)"/><path d="M61.82,179.25H60.44l-.55-1.63H57.4l-.52,1.63H55.54L58,172.09h1.33Zm-2.32-2.83-.86-2.66-.84,2.66Z" transform="translate(-0.65 -1.17)"/><path d="M64.59,172.09h2.5a6.36,6.36,0,0,1,1.11.07,1.53,1.53,0,0,1,.65.3,1.76,1.76,0,0,1,.48.6,1.8,1.8,0,0,1,.19.84,1.85,1.85,0,0,1-.24.92,1.54,1.54,0,0,1-.64.63,1.65,1.65,0,0,1,.88.65,1.9,1.9,0,0,1,.31,1.08,2.39,2.39,0,0,1-.2,1,1.87,1.87,0,0,1-.54.74,1.64,1.64,0,0,1-.85.34q-.32,0-1.52,0H64.59Zm1.26,1.19v1.66h.83q.74,0,.92,0a.79.79,0,0,0,.51-.26.82.82,0,0,0,.19-.56.86.86,0,0,0-.16-.54.69.69,0,0,0-.48-.25q-.19,0-1.08,0Zm0,2.85V178H67a5,5,0,0,0,.87,0,.77.77,0,0,0,.46-.29,1,1,0,0,0,.18-.61,1,1,0,0,0-.14-.55.79.79,0,0,0-.39-.33,3.77,3.77,0,0,0-1.12-.1Z" transform="translate(-0.65 -1.17)"/><path d="M73.36,179.25v-7.1h1.26V178h3.14v1.21Z" transform="translate(-0.65 -1.17)"/><path d="M80.89,179.25v-7.16h1.26v7.16Z" transform="translate(-0.65 -1.17)"/><path d="M85.46,176.92l1.23-.14a1.82,1.82,0,0,0,.45,1,1.25,1.25,0,0,0,.92.33,1.29,1.29,0,0,0,.92-.29.93.93,0,0,0,.31-.69.71.71,0,0,0-.13-.43,1,1,0,0,0-.45-.31q-.22-.09-1-.31a3.24,3.24,0,0,1-1.42-.71,2,2,0,0,1-.58-1.44,2,2,0,0,1,.27-1,1.77,1.77,0,0,1,.78-.72A2.78,2.78,0,0,1,88,172a2.42,2.42,0,0,1,1.77.59,2.22,2.22,0,0,1,.62,1.58l-1.26.06a1.29,1.29,0,0,0-.35-.79,1.15,1.15,0,0,0-.8-.24,1.31,1.31,0,0,0-.86.26.55.55,0,0,0-.2.44.58.58,0,0,0,.19.43,3.07,3.07,0,0,0,1.16.48,5.64,5.64,0,0,1,1.36.51,1.87,1.87,0,0,1,.69.73,2.37,2.37,0,0,1,.25,1.14,2.34,2.34,0,0,1-.3,1.15,1.86,1.86,0,0,1-.84.8,3.13,3.13,0,0,1-1.36.26,2.48,2.48,0,0,1-1.82-.63A2.9,2.9,0,0,1,85.46,176.92Z" transform="translate(-0.65 -1.17)"/><path d="M94,179.25v-7.16H95.3v2.82h2.47v-2.82H99v7.16H97.78v-3.13H95.3v3.13Z" transform="translate(-0.65 -1.17)"/><path d="M102.77,179.25v-7.16h4.64v1.21H104v1.59h3.14v1.21H104V178h3.49v1.21Z" transform="translate(-0.65 -1.17)"/><path d="M111,172.09h2.31a4,4,0,0,1,1.19.14,2.07,2.07,0,0,1,.94.66,3.25,3.25,0,0,1,.6,1.16,6,6,0,0,1,.2,1.69,5.34,5.34,0,0,1-.19,1.52,3.26,3.26,0,0,1-.67,1.26,2.17,2.17,0,0,1-.89.57,3.38,3.38,0,0,1-1.12.15H111Zm1.26,1.21V178h.94A3,3,0,0,0,114,178a1.12,1.12,0,0,0,.51-.3,1.57,1.57,0,0,0,.33-.69,5.32,5.32,0,0,0,.13-1.31,4.87,4.87,0,0,0-.13-1.27,1.7,1.7,0,0,0-.36-.69,1.15,1.15,0,0,0-.58-.34,5,5,0,0,0-1-.07Z" transform="translate(-0.65 -1.17)"/><path d="M129.85,179.25h-1.2v-5.17a4.05,4.05,0,0,1-1.55,1v-1.25a3.35,3.35,0,0,0,1-.67,2.52,2.52,0,0,0,.76-1.14h1Z" transform="translate(-0.65 -1.17)"/><path d="M134.09,177.59l1.16-.15a1,1,0,0,0,.22.6.61.61,0,0,0,.47.2.75.75,0,0,0,.63-.39,3.72,3.72,0,0,0,.33-1.62,1.36,1.36,0,0,1-1.13.6,1.6,1.6,0,0,1-1.27-.65,2.59,2.59,0,0,1-.54-1.7,2.63,2.63,0,0,1,.57-1.76,1.81,1.81,0,0,1,1.44-.67,1.85,1.85,0,0,1,1.56.84,4.83,4.83,0,0,1,.61,2.77,4.89,4.89,0,0,1-.64,2.83,2,2,0,0,1-1.66.87,1.61,1.61,0,0,1-1.19-.45A2.28,2.28,0,0,1,134.09,177.59Zm2.71-3a1.73,1.73,0,0,0-.27-1,.76.76,0,0,0-.62-.37.66.66,0,0,0-.55.3,1.7,1.7,0,0,0-.22,1,1.73,1.73,0,0,0,.24,1,.71.71,0,0,0,1.18,0A1.51,1.51,0,0,0,136.8,174.59Z" transform="translate(-0.65 -1.17)"/><path d="M145.41,173.84l-1.16.15a1,1,0,0,0-.22-.61.6.6,0,0,0-.46-.2.76.76,0,0,0-.64.39,3.67,3.67,0,0,0-.33,1.63,1.34,1.34,0,0,1,1.11-.61,1.61,1.61,0,0,1,1.29.65,2.58,2.58,0,0,1,.54,1.69,2.64,2.64,0,0,1-.56,1.76,1.81,1.81,0,0,1-1.45.66,1.85,1.85,0,0,1-1.56-.84,4.8,4.8,0,0,1-.61-2.76,4.9,4.9,0,0,1,.64-2.84,2,2,0,0,1,1.65-.87,1.62,1.62,0,0,1,1.18.46A2.25,2.25,0,0,1,145.41,173.84Zm-2.72,3a1.72,1.72,0,0,0,.27,1,.76.76,0,0,0,.61.36.67.67,0,0,0,.55-.3,1.67,1.67,0,0,0,.22-1,1.74,1.74,0,0,0-.24-1,.71.71,0,0,0-1.18,0A1.49,1.49,0,0,0,142.69,176.83Z" transform="translate(-0.65 -1.17)"/><path d="M151.7,179.25h-1.2v-5.17a4.05,4.05,0,0,1-1.55,1v-1.25a3.35,3.35,0,0,0,1-.67,2.52,2.52,0,0,0,.76-1.14h1Z" transform="translate(-0.65 -1.17)"/><rect x="0.54" y="134.89" width="180" height="2"/><path d="M17,24.08H8.32L6.66,29.15a4.26,4.26,0,0,0-.26,1.17q0,.73,1.34.73H9.94v1.13H1.31V31.06h1.5a2.63,2.63,0,0,0,1.84-.66,6.2,6.2,0,0,0,.89-1.93L14.37,1.95h1.32l9.47,29.11h3v1.13H15.68V31.06h3.58Zm-.42-1.13L12.65,11,8.72,22.95Z" transform="translate(-0.65 -1.17)"/><path d="M30.32,3.08H27V1.95H39.85V3.08H36.13V22.51a33.22,33.22,0,0,0,.16,4,5.17,5.17,0,0,0,2,3.59A6,6,0,0,0,42,31.15q3.93,0,5.51-2.55a7,7,0,0,0,.91-2.46,25.41,25.41,0,0,0,.18-3.66V6.36a6.44,6.44,0,0,0-.34-2.77,2.3,2.3,0,0,0-1.8-.51H45.34V1.95H52.8V3.08h-.67a2.48,2.48,0,0,0-1.88.51,6.11,6.11,0,0,0-.36,2.77V22.51a20,20,0,0,1-.38,4.81,6.93,6.93,0,0,1-3.34,4.16,11.24,11.24,0,0,1-5.59,1.31,14.7,14.7,0,0,1-5.73-1.11,6.6,6.6,0,0,1-4-3.7,17.63,17.63,0,0,1-.57-5.47Z" transform="translate(-0.65 -1.17)"/><path d="M77,1.73v8.46H75.92a12.87,12.87,0,0,0-2-5.32A5.77,5.77,0,0,0,71.22,3a8,8,0,0,0-2.79-.51q-3.79,0-5.26,2.77a15.16,15.16,0,0,0-1.28,4.5,46.77,46.77,0,0,0-.55,7.42,56.24,56.24,0,0,0,.57,8.22,10.9,10.9,0,0,0,1.15,3.92,4.74,4.74,0,0,0,4.25,2.39,5,5,0,0,0,4.31-2.06,3.92,3.92,0,0,0,.77-2.39V22.09H68.27v-1.2H80.59v1.2H78v5.14a17.75,17.75,0,0,1-3.28,3.3,12.85,12.85,0,0,1-7.63,2.28,10.29,10.29,0,0,1-7.61-3.08,13.72,13.72,0,0,1-3.14-5,21.89,21.89,0,0,1-1.3-7.53q0-7.8,4.68-12.34a13.15,13.15,0,0,1,4.21-2.77,10.64,10.64,0,0,1,10.44,1l1.72-1.4Z" transform="translate(-0.65 -1.17)"/><path d="M85.72,3.08H82.4V1.95H95.25V3.08H91.52V22.51a33.22,33.22,0,0,0,.16,4,5.16,5.16,0,0,0,2,3.59,6,6,0,0,0,3.7,1.09q3.93,0,5.51-2.55a7,7,0,0,0,.91-2.46,25.5,25.5,0,0,0,.18-3.66V6.36a6.43,6.43,0,0,0-.34-2.77,2.3,2.3,0,0,0-1.8-.51h-1.07V1.95h7.47V3.08h-.67a2.48,2.48,0,0,0-1.88.51,6.1,6.1,0,0,0-.36,2.77V22.51a20,20,0,0,1-.38,4.81,6.93,6.93,0,0,1-3.34,4.16A11.24,11.24,0,0,1,96,32.79a14.7,14.7,0,0,1-5.73-1.11,6.6,6.6,0,0,1-4-3.7,17.63,17.63,0,0,1-.57-5.47Z" transform="translate(-0.65 -1.17)"/><path d="M126.93,1.79V9.94h-1.24a10.28,10.28,0,0,0-1.74-4.72,5.92,5.92,0,0,0-5-2.59,4.87,4.87,0,0,0-3.26,1.13,5,5,0,0,0-1.74,4,4.05,4.05,0,0,0,1.9,3.66,10.16,10.16,0,0,0,2.39,1.09l2.27.71q4.92,1.55,6.5,3.17a9,9,0,0,1,2.27,6.51,10,10,0,0,1-2.77,7.4,8.52,8.52,0,0,1-6.33,2.57,11.69,11.69,0,0,1-7-2.57l-1.38,1.93h-1.07v-8.4h1.19a11.21,11.21,0,0,0,2.23,4.79,7.22,7.22,0,0,0,5.71,2.77A5.79,5.79,0,0,0,124,29.84a5.43,5.43,0,0,0,1.8-4.17,4.76,4.76,0,0,0-1.84-4,7.55,7.55,0,0,0-2.06-1.06l-2.83-1a21.78,21.78,0,0,1-5.75-2.5q-2.65-2.15-2.65-6.4a9.72,9.72,0,0,1,2.51-7A7.83,7.83,0,0,1,116,1.92a8.32,8.32,0,0,1,3.08-.6,9.47,9.47,0,0,1,5.61,2l1.25-1.57Z" transform="translate(-0.65 -1.17)"/><path d="M140.28,31.06V3.28h-1.13q-6.68-.44-7.35,8.17h-1.17L131.22,2h23.92l.79,9.37h-1.15a27.93,27.93,0,0,0-.83-3.63,6.26,6.26,0,0,0-2.87-3.79,9,9,0,0,0-3.87-.66h-1.11V31.06h3.72v1.13H136.54V31.06Z" transform="translate(-0.65 -1.17)"/><path d="M170.16,24.08h-8.68l-1.66,5.07a4.23,4.23,0,0,0-.26,1.17q0,.73,1.34.73h2.21v1.13h-8.62V31.06H156a2.63,2.63,0,0,0,1.84-.66,6.18,6.18,0,0,0,.89-1.93l8.83-26.52h1.32l9.47,29.11h3v1.13H168.84V31.06h3.58Zm-.42-1.13L165.81,11l-3.93,11.94Z" transform="translate(-0.65 -1.17)"/><path class="cls-2" d="M27.76,68.43h0c-.9,0-1.81,1.16-2.19,1.79a3.64,3.64,0,0,0-.06.65V71c0,.26-.86,6.27-1.61,7.81a1.31,1.31,0,0,0,0,1,.7.7,0,0,0,.58.29h.07a.58.58,0,0,1-.06-.26.62.62,0,0,1,.63-.6.63.63,0,0,1,.52.28l.08.08a.92.92,0,0,1,.78-.36.93.93,0,0,1,.73.31h.07a.4.4,0,0,0,.34-.15c.54-.59.51-2.57.41-3.43A54.55,54.55,0,0,1,29.28,70C28.84,69,28.31,68.46,27.76,68.43Z" transform="translate(-0.65 -1.17)"/><path class="cls-2" d="M1.53,37.35v64.33h179V37.35ZM41.68,73.42l.1.33-.11,0a.87.87,0,0,1,.56,1l.18.05.14-.21,0,.26h0l0,.1,0,.25a1.72,1.72,0,0,1-.95,1.66,1.81,1.81,0,0,1-.82.2,1.64,1.64,0,0,1-1.47-.88,1.61,1.61,0,0,1-.1-1.24,1.75,1.75,0,0,1,.88-1h0c-.57-1.35-.29-4.73-.13-6.22.18-3.93-.86-5.6-1.5-6.24a.73.73,0,0,1-.2-.5.69.69,0,0,1,.67-.7.63.63,0,0,1,.35.11l.14.13c1,1,2.12,3,1.93,7.28A18.64,18.64,0,0,0,41.68,73.42ZM30.12,70.21c0,.19-1.14,4.66-1.17,5.66,0,0,.35,3-.64,4a1.25,1.25,0,0,1-1,.43,3,3,0,0,1-.48.1.87.87,0,0,1-.34.06,1,1,0,0,1-.6-.18.69.69,0,0,1-.07.16,1.2,1.2,0,0,1-1.09.43l-.36,0a1.56,1.56,0,0,1-1.21-.69,2.25,2.25,0,0,1-.12-1.75c.56-1.12,1.26-5.45,1.56-7.59,0-.76.94-5.49,1-5.69l0-.21.84.17,0,.21c-.19.92-.42,2.08-.61,3.11a2.79,2.79,0,0,1,1.86-.9,2.31,2.31,0,0,1,1.79,1.06c.21-2.62-1.1-3.5-1.12-3.51L28.2,65l.46-.73.18.12C28.94,64.45,31.15,65.9,30.12,70.21ZM7.53,43.51H29.21l-.38.31C26.35,46,24.39,52,25.1,55.42c-1.38,2.07-1.52,4.12-2.48,6.63C16,63.76,15.26,71.39,11.43,75.92v.21C13,77.6,14.3,79.33,16,80.68a12.88,12.88,0,0,0,1.45,7h2.69a48.37,48.37,0,0,1-2,7.8H7.53Zm51.33,52H47.47c-.83-2.69-1.84-5.22-2.08-7.8h2.49c2.13-1.65.82-4.43,1.66-6.83.72-2.08,3.76-2.79,4.35-4.76h.21v-.21C50.26,71.39,49.54,63.76,42.9,62c-1-2.4-1-4.57-2.48-6.42.86-3.51-1.62-10-3.52-11.8-.12-.11-.24-.21-.37-.31H58.86Zm9.71,0a7.64,7.64,0,0,1,4.2-2.75,7.61,7.61,0,0,1,1.73,1.52c2.54-.19,5.5.53,8.45,1.23ZM86.14,78.13c.52-2.09.85-4.39,2.59-5-.08,5,2.15,7.24,3.45,10.6C90.29,83.7,88.76,78.94,86.14,78.13Zm6.47-30.29c-3.75,2.33-7.63,2.45-10.79,5-2.72,2.23-4.26,6.52-7.77,7.57A32.65,32.65,0,0,0,72.76,64a2.5,2.5,0,0,0-2.16-.5c-1.12,1.45-2.93,5.86-.43,7.07-2.11,2.42-1.82,8.06-.43,11.11-1.06-.07-2.08-.08-2.59.5-.76,1.78-.34,4.15,0,6.06a10.23,10.23,0,0,0-1.57,2.27v-47h34.85a8.74,8.74,0,0,0-3.93,4.83A8.08,8.08,0,0,0,92.62,47.84Zm2,47.67a6.3,6.3,0,0,0,1.91-2.25,7.08,7.08,0,0,0,.84,2.25Zm22.32-11.23c0,.39-.12.58-.55.41a6.16,6.16,0,0,0,.55,1.73v9.1H106.08A4.82,4.82,0,0,0,109,93.77c-2.16-2-6.9-1-8.2-4,.65-4.29-1.47-5.34-1.73-8.58,1.45-.19.78,2.12,2.16,2,1.91-1.5,3.66-.16,5.18,0,2.22.23,4.06-.77,5.61-1,0-1.19-.74-1.49-.43-3,1.37-.08,1.9-1.15,3.45-1,0,1.54,1.74,4.85,1.85,6.11Zm0-1.78c-.48-1.61-.92-3.28-1.41-4.88a6,6,0,0,0,1.41-.48Zm0-7.22c-.64.08-1.36.84-2.28.82a5.06,5.06,0,0,0-1.3-3.53c-.28,2,1.14,2,.86,4-3.69,2.06-6-1.9-9.5.5.21-3.44-4.47-1.16-4.32-4.54-.63-.28-2.23.59-2.16-.51,1.8-2.72-1.51-8.35,0-12.11.07,1.94,1.56,2.21,2.16,3.53,9.19-4.22,12-7.19,12.88-8.81.17-.09.33-.19.5-.28-.17-4-1.75-6.37-3-9.09-1.36-.57-1,0-2.59,0a5.75,5.75,0,0,0-1.43-1.8h10.18ZM147.1,64.55h-.19l-1,6.8c-2.74-3.82-3.55-10.47-3.55-10.47s0,2.79-8.9,4.93c0,0-3.43-.75-3.64,11.58,0,0,.46,11.47.87,18.13h-7.11v-52h20.86a4.11,4.11,0,0,0-2.29,3.25h0v8l1.61.91v3.43l4.43,3.34-1.6,1.6Zm13.38,11.51h-4.31l0,0,1.19-1.19.5.5.5-.5.5.5.5-.5L160.51,76ZM175,95.51h-7.52c.41-6.66.87-18.13.87-18.13-.1-5.79-.91-8.69-1.74-10.14a6.79,6.79,0,0,0-.23-.67c-.49-1.24-1.19-2.11-1.58-2a38.46,38.46,0,0,1-8.1-2.25h0a2.84,2.84,0,0,1-1-.53h0c-1.19-.69-2-.21-1.86-1.15,0,0-.4,6.52-.65,9.23a10.08,10.08,0,0,1-2,2.72L150,64.55h-.19l.48-.48-1.21-1.21,3.9-3.73V55.31l1-.51v-.16h.16V47.9a3.17,3.17,0,0,0,.16-1,4.05,4.05,0,0,0-2.3-3.41h23Z" transform="translate(-0.65 -1.17)"/></g></svg>