<?xml version="1.0" encoding="UTF-8" standalone="no"?>
<svg
   xmlns:dc="http://purl.org/dc/elements/1.1/"
   xmlns:cc="http://creativecommons.org/ns#"
   xmlns:rdf="http://www.w3.org/1999/02/22-rdf-syntax-ns#"
   xmlns:svg="http://www.w3.org/2000/svg"
   xmlns="http://www.w3.org/2000/svg"
   xmlns:sodipodi="http://sodipodi.sourceforge.net/DTD/sodipodi-0.dtd"
   xmlns:inkscape="http://www.inkscape.org/namespaces/inkscape"
   version="1.1"
   id="svg2"
   xml:space="preserve"
   width="901.15997"
   height="375"
   viewBox="0 0 901.15997 375"
   sodipodi:docname="CCGA_SHIP_2C_H (1).eps"><metadata
     id="metadata8"><rdf:RDF><cc:Work
         rdf:about=""><dc:format>image/svg+xml</dc:format><dc:type
           rdf:resource="http://purl.org/dc/dcmitype/StillImage" /></cc:Work></rdf:RDF></metadata><defs
     id="defs6" /><sodipodi:namedview
     pagecolor="#ffffff"
     bordercolor="#666666"
     borderopacity="1"
     objecttolerance="10"
     gridtolerance="10"
     guidetolerance="10"
     inkscape:pageopacity="0"
     inkscape:pageshadow="2"
     inkscape:window-width="640"
     inkscape:window-height="480"
     id="namedview4" /><g
     id="g10"
     inkscape:groupmode="layer"
     inkscape:label="ink_ext_XXXXXX"
     transform="matrix(1.3333333,0,0,-1.3333333,0,375)"><g
       id="g12"
       transform="scale(0.1)"><path
         d="M 319.078,2692.11 H 130.664 V 1688.84 c 116.516,183.57 192.418,359.66 231.406,599.13 27.578,169.33 -6.547,310.85 -42.992,404.14"
         style="fill:#0f80cc;fill-opacity:1;fill-rule:nonzero;stroke:none"
         id="path14" /><path
         d="M 1197.17,1015.73 130.664,840.781 v -96.48 L 1198.13,1015.73 h -0.96"
         style="fill:#0f80cc;fill-opacity:1;fill-rule:nonzero;stroke:none"
         id="path16" /><path
         d="m 130.664,1013.3 v -74.241 l 847.52,76.131 z"
         style="fill:#0f80cc;fill-opacity:1;fill-rule:nonzero;stroke:none"
         id="path18" /><path
         d="m 732.504,2692.11 c 103.594,-47.14 201.266,-112.09 265.402,-201.18 1.981,-2.72 3.714,-5.67 5.634,-8.42 49.83,-97.85 151.08,-323.84 122.83,-564.03 -28.18,-237.69 -176.12,-428.5 -176.12,-428.5 0,0 12.941,3.16 34.848,7.66 35.162,39.53 122.792,147.17 178.602,289.35 12.24,31.33 23.16,64.19 31.47,98.52 60.82,253.08 -28.82,485.98 -62.38,565.8 -8.22,19.51 -13.13,29.94 -11.73,29.38 98.49,-41.9 361.72,-154.9 477.41,-371.68 45.69,-85.56 69.03,-179.18 79.01,-270.83 -0.39,-29.49 -3.72,-59.47 -10.94,-89.68 -0.5,-1.89 -1.11,-3.56 -1.62,-5.45 -35.89,-140.24 -141.58,-229.88 -170.25,-252.03 3.62,-1.04 7.04,-2.21 10.49,-3.29 6.75,0.86 15.3,1.72 25.26,2.8 35.41,27.64 86.14,72.98 127.07,131.5 8.66,12.38 16.74,25.48 24.24,38.99 12.16,21.84 22.78,44.84 30.3,69.34 70.68,228.85 -27.03,432.75 -41.51,464.33 -1.35,2.83 -1.96,4.41 -1.76,4.28 27.67,-10.85 70.26,-29.9 118.03,-57.58 122.1,-70.8 277.84,-197.87 304.9,-386.95 18.01,-126.06 -11.86,-232.94 -38.85,-299.21 -18.52,-44.98 -35.68,-71.5 -35.68,-71.5 0,0 -76.02,58.58 -190.73,86.31 -45.45,11.08 -108.03,11.66 -167.01,8.51 -15.98,-85 -34.12,-139.83 -34.12,-139.83 0,0 -112.15,69.96 -273.57,107.87 -61.73,14.58 -132.12,22.91 -195.51,27.77 -7.65,-97.65 -18.82,-159.51 -25.3,-157.11 -346.955,127.09 -735.061,107.14 -1000.256,68.02 v -256.68 l 2006.186,137.23 c 0,0 -101.21,-41.6 -206.76,-139.16 -52,-48.03 -109.08,-109.57 -109.08,-109.57 l -43.3,-0.14 c -52.8,46.64 -142.64,102.33 -249.66,71.99 -19.09,-5.37 -37.14,-10.85 -54.77,-16.3 l -85.11,-28.46 c -28.2,-9.81 -54.81,-19.31 -80.59,-28.26 -30.68,-10.59 -60.24,-20.318 -89.54,-28.42 L 1153.59,966.031 145.699,630.102 138.023,621.891 H 2377.83 V 2692.11 H 732.504"
         style="fill:#0f80cc;fill-opacity:1;fill-rule:nonzero;stroke:none"
         id="path20" /><path
         d="m 283.484,346.191 h 31.403 V 222.66 c 0,-16.762 -1.215,-29.398 -3.664,-37.879 -2.434,-8.551 -5.426,-15.621 -9.032,-21.281 -3.578,-5.691 -7.968,-10.73 -13.144,-15.18 -17.246,-14.859 -39.774,-22.289 -67.621,-22.289 -28.34,0 -51.078,7.348 -68.207,22.11 -5.199,4.589 -9.59,9.668 -13.168,15.359 -3.582,5.66 -6.531,12.59 -8.867,20.84 -2.344,8.199 -3.52,21.07 -3.52,38.629 v 123.222 h 31.406 v -123.57 c 0,-20.492 2.317,-34.73 6.981,-42.699 4.679,-8.051 11.769,-14.453 21.316,-19.262 9.543,-4.82 20.797,-7.238 33.766,-7.238 18.457,0 33.496,4.797 45.113,14.488 6.098,5.211 10.512,11.289 13.211,18.36 2.699,7.07 4.027,19.242 4.027,36.351 v 123.57"
         style="fill:#565353;fill-opacity:1;fill-rule:nonzero;stroke:none"
         id="path22" /><path
         d="m 595.844,346.191 h 29.625 V 128.551 H 598.633 L 453.148,296.172 V 128.551 H 423.84 v 217.64 h 25.258 l 146.746,-169 v 169"
         style="fill:#565353;fill-opacity:1;fill-rule:nonzero;stroke:none"
         id="path24" /><path
         d="m 737.145,346.191 h 31.246 v -217.64 h -31.246 v 217.64"
         style="fill:#565353;fill-opacity:1;fill-rule:nonzero;stroke:none"
         id="path26" /><path
         d="m 1019,346.191 h 31.2 l -91.981,-218.57 h -7.274 l -93.574,218.57 H 888.75 L 954.188,193.34 1019,346.191"
         style="fill:#565353;fill-opacity:1;fill-rule:nonzero;stroke:none"
         id="path28" /><path
         d="M 1138.94,346.191 H 1262.4 V 318.5 h -92.24 v -66.449 h 89.05 V 224.18 h -89.05 v -67.578 h 95.15 V 128.93 h -126.37 v 217.261"
         style="fill:#565353;fill-opacity:1;fill-rule:nonzero;stroke:none"
         id="path30" /><path
         d="m 1404.8,319.801 h -9.34 v -68.879 h 11.84 c 15.79,0 26.64,1.359 32.49,4.098 5.85,2.691 10.44,6.761 13.71,12.242 3.28,5.449 4.9,11.668 4.9,18.636 0,6.852 -1.82,13.102 -5.47,18.692 -3.62,5.59 -8.73,9.492 -15.33,11.762 -6.59,2.277 -17.53,3.449 -32.8,3.449 z m -40.56,-191.25 v 217.64 h 54.52 c 22.02,0 39.51,-5.449 52.43,-16.351 12.94,-10.93 19.41,-25.66 19.41,-44.289 0,-12.66 -3.16,-23.641 -9.51,-32.871 -6.32,-9.282 -15.39,-16.16 -27.21,-20.75 6.95,-4.551 13.73,-10.821 20.39,-18.688 6.64,-7.871 15.96,-21.601 28.03,-41.23 7.58,-12.301 13.66,-21.621 18.26,-27.871 l 11.52,-15.59 h -37.12 l -9.5,14.379 c -0.31,0.492 -0.92,1.39 -1.85,2.601 l -6.07,8.59 -9.66,15.899 -10.42,16.972 c -6.44,8.93 -12.31,16.039 -17.67,21.289 -5.34,5.309 -10.18,9.141 -14.5,11.449 -4.3,2.34 -11.55,3.512 -21.72,3.512 h -8.11 v -94.691 h -31.22"
         style="fill:#565353;fill-opacity:1;fill-rule:nonzero;stroke:none"
         id="path32" /><path
         d="m 1674.78,219.82 -23.71,14.461 c -14.85,9 -25.44,17.949 -31.71,26.731 -6.28,8.769 -9.44,18.91 -9.44,30.34 0,17.16 5.94,31.109 17.83,41.828 11.91,10.711 27.35,16.082 46.35,16.082 18.19,0 34.85,-5.102 50.02,-15.223 V 298.59 c -15.69,15.101 -32.58,22.66 -50.63,22.66 -10.17,0 -18.55,-2.34 -25.07,-7.07 -6.55,-4.731 -9.82,-10.758 -9.82,-18.11 0,-6.519 2.41,-12.629 7.23,-18.32 4.83,-5.758 12.58,-11.699 23.27,-17.969 l 23.82,-14.121 c 26.56,-15.898 39.84,-36.109 39.84,-60.64 0,-17.481 -5.85,-31.7 -17.54,-42.598 -11.68,-10.942 -26.87,-16.391 -45.58,-16.391 -21.51,0 -41.08,6.629 -58.75,19.91 v 39.528 c 16.82,-21.387 36.31,-32.047 58.44,-32.047 9.77,0 17.89,2.687 24.38,8.18 6.48,5.449 9.74,12.289 9.74,20.488 0,13.281 -9.54,25.879 -28.67,37.73"
         style="fill:#565353;fill-opacity:1;fill-rule:nonzero;stroke:none"
         id="path34" /><path
         d="m 1832.08,346.191 h 31.22 v -217.64 h -31.22 v 217.64"
         style="fill:#565353;fill-opacity:1;fill-rule:nonzero;stroke:none"
         id="path36" /><path
         d="m 1951.36,346.539 h 181.93 v -27.668 h -75.93 v -190.32 h -31.37 v 190.32 h -74.63 v 27.668"
         style="fill:#565353;fill-opacity:1;fill-rule:nonzero;stroke:none"
         id="path38" /><path
         d="m 2351.85,346.191 h 38.02 L 2309.51,243.73 V 128.551 h -32.06 V 243.73 l -80.38,102.461 h 37.63 l 58.4,-74.921 58.75,74.921"
         style="fill:#565353;fill-opacity:1;fill-rule:nonzero;stroke:none"
         id="path40" /><path
         d="m 2679.62,219.82 -23.68,14.461 c -14.86,9 -25.41,17.949 -31.69,26.731 -6.28,8.769 -9.46,18.91 -9.46,30.34 0,17.16 5.92,31.109 17.86,41.828 11.86,10.711 27.32,16.082 46.34,16.082 18.19,0 34.8,-5.102 50.02,-15.223 V 298.59 c -15.71,15.101 -32.55,22.66 -50.62,22.66 -10.18,0 -18.55,-2.34 -25.12,-7.07 -6.51,-4.731 -9.77,-10.758 -9.77,-18.11 0,-6.519 2.4,-12.629 7.2,-18.32 4.86,-5.758 12.61,-11.699 23.3,-17.969 l 23.79,-14.121 c 26.59,-15.898 39.82,-36.109 39.82,-60.64 0,-17.481 -5.83,-31.7 -17.51,-42.598 -11.71,-10.942 -26.88,-16.391 -45.58,-16.391 -21.53,0 -41.09,6.629 -58.78,19.91 v 39.528 c 16.84,-21.387 36.35,-32.047 58.42,-32.047 9.81,0 17.96,2.687 24.46,8.18 6.49,5.449 9.73,12.289 9.73,20.488 0,13.281 -9.57,25.879 -28.73,37.73"
         style="fill:#565353;fill-opacity:1;fill-rule:nonzero;stroke:none"
         id="path42" /><path
         d="m 2967.42,346.191 h 38.04 L 2925.03,243.73 V 128.551 h -32 V 243.73 l -80.41,102.461 h 37.61 l 58.39,-74.921 58.8,74.921"
         style="fill:#565353;fill-opacity:1;fill-rule:nonzero;stroke:none"
         id="path44" /><path
         d="m 3141.72,219.82 -23.7,14.461 c -14.86,9 -25.42,17.949 -31.7,26.731 -6.28,8.769 -9.43,18.91 -9.43,30.34 0,17.16 5.97,31.109 17.83,41.828 11.91,10.711 27.35,16.082 46.35,16.082 18.19,0 34.87,-5.102 50.02,-15.223 V 298.59 c -15.67,15.101 -32.57,22.66 -50.63,22.66 -10.17,0 -18.53,-2.34 -25.07,-7.07 -6.53,-4.731 -9.84,-10.758 -9.84,-18.11 0,-6.519 2.43,-12.629 7.27,-18.32 4.79,-5.758 12.56,-11.699 23.25,-17.969 l 23.84,-14.121 c 26.54,-15.898 39.85,-36.109 39.85,-60.64 0,-17.481 -5.83,-31.7 -17.54,-42.598 -11.71,-10.942 -26.9,-16.391 -45.61,-16.391 -21.5,0 -41.13,6.629 -58.73,19.91 v 39.528 c 16.79,-21.387 36.29,-32.047 58.42,-32.047 9.74,0 17.89,2.687 24.4,8.18 6.48,5.449 9.72,12.289 9.72,20.488 0,13.281 -9.57,25.879 -28.7,37.73"
         style="fill:#565353;fill-opacity:1;fill-rule:nonzero;stroke:none"
         id="path46" /><path
         d="m 3280.14,346.539 h 181.95 v -27.668 h -75.93 v -190.32 h -31.36 v 190.32 h -74.66 v 27.668"
         style="fill:#565353;fill-opacity:1;fill-rule:nonzero;stroke:none"
         id="path48" /><path
         d="m 3556.3,346.191 h 123.43 V 318.5 h -92.21 v -66.449 h 89.03 V 224.18 h -89.03 v -67.578 h 95.11 V 128.93 H 3556.3 v 217.261"
         style="fill:#565353;fill-opacity:1;fill-rule:nonzero;stroke:none"
         id="path50" /><path
         d="m 3953.5,346.191 h 29.4 v -217.64 h -31.39 V 297.93 l -66.99,-84.141 h -5.73 l -67.58,84.141 V 128.551 h -31.22 v 217.64 h 29.78 l 72.01,-89.32 71.72,89.32"
         style="fill:#565353;fill-opacity:1;fill-rule:nonzero;stroke:none"
         id="path52" /><path
         d="m 4349.71,319.629 c -24.92,0 -45.4,-7.789 -61.44,-23.359 -16.04,-15.551 -24.08,-35.43 -24.08,-59.668 0,-23.461 8.08,-42.993 24.13,-58.571 16.11,-15.57 36.24,-23.359 60.46,-23.359 24.3,0 44.57,7.969 60.8,23.859 16.26,15.899 24.4,35.649 24.4,59.301 0,23.09 -8.14,42.5 -24.4,58.199 -16.23,15.731 -36.19,23.598 -59.87,23.598 z m -1.28,29.633 c 33.67,0 61.65,-10.633 84,-31.942 22.37,-21.289 33.57,-47.949 33.57,-80.07 0,-32.109 -11.32,-58.68 -33.88,-79.648 -22.56,-21.082 -51.04,-31.571 -85.36,-31.571 -32.78,0 -60.13,10.489 -82,31.571 -21.82,20.968 -32.74,47.359 -32.74,79 0,32.519 10.99,59.429 33,80.718 21.99,21.309 49.81,31.942 83.41,31.942"
         style="fill:#565353;fill-opacity:1;fill-rule:nonzero;stroke:none"
         id="path54" /><path
         d="m 4563.04,346.191 h 116.11 V 318.5 h -84.89 v -60.82 h 84.89 v -27.739 h -84.89 v -101.39 h -31.22 v 217.64"
         style="fill:#565353;fill-opacity:1;fill-rule:nonzero;stroke:none"
         id="path56" /><path
         d="m 5035.52,235.879 h 73.2 v -92.457 c -26.85,-11.582 -53.47,-17.391 -79.82,-17.391 -36.09,0 -64.91,10.489 -86.47,31.571 -21.56,21.07 -32.34,47.046 -32.34,77.929 0,32.559 11.16,59.649 33.53,81.27 22.34,21.64 50.36,32.461 84.09,32.461 12.24,0 23.87,-1.313 34.89,-3.93 11,-2.652 24.94,-7.461 41.79,-14.492 v -31.879 c -26.02,15.078 -51.81,22.598 -77.41,22.598 -23.82,0 -43.87,-8.137 -60.19,-24.387 -16.32,-16.211 -24.47,-36.16 -24.47,-59.75 0,-24.762 8.15,-45.082 24.47,-60.742 16.28,-15.739 37.27,-23.59 62.99,-23.59 12.47,0 27.34,2.89 44.72,8.551 l 2.93,0.961 v 45.597 h -41.91 v 27.68"
         style="fill:#565353;fill-opacity:1;fill-rule:nonzero;stroke:none"
         id="path58" /><path
         d="M 5218.96,346.191 H 5342.4 V 318.5 h -92.22 v -66.449 h 89.05 V 224.18 h -89.05 v -67.578 h 95.14 V 128.93 h -126.36 v 217.261"
         style="fill:#565353;fill-opacity:1;fill-rule:nonzero;stroke:none"
         id="path60" /><path
         d="m 5551.39,319.629 c -24.9,0 -45.38,-7.789 -61.41,-23.359 -16.07,-15.551 -24.09,-35.43 -24.09,-59.668 0,-23.461 8.02,-42.993 24.11,-58.571 16.14,-15.57 36.29,-23.359 60.44,-23.359 24.34,0 44.57,7.969 60.85,23.859 16.23,15.899 24.37,35.649 24.37,59.301 0,23.09 -8.14,42.5 -24.37,58.199 -16.28,15.731 -36.27,23.598 -59.9,23.598 z m -1.24,29.633 c 33.63,0 61.61,-10.633 83.96,-31.942 22.38,-21.289 33.57,-47.949 33.57,-80.07 0,-32.109 -11.3,-58.68 -33.86,-79.648 -22.58,-21.082 -51.03,-31.571 -85.35,-31.571 -32.85,0 -60.13,10.489 -82.01,31.571 -21.84,20.968 -32.74,47.359 -32.74,79 0,32.519 11.02,59.429 32.98,80.718 22.02,21.309 49.82,31.942 83.45,31.942"
         style="fill:#565353;fill-opacity:1;fill-rule:nonzero;stroke:none"
         id="path62" /><path
         d="m 5805.96,319.801 h -9.34 v -68.879 h 11.84 c 15.78,0 26.61,1.359 32.48,4.098 5.88,2.691 10.45,6.761 13.71,12.242 3.26,5.449 4.88,11.668 4.88,18.636 0,6.852 -1.8,13.102 -5.44,18.692 -3.63,5.59 -8.74,9.492 -15.33,11.762 -6.57,2.277 -17.54,3.449 -32.8,3.449 z m -40.59,-191.25 v 217.64 h 54.57 c 21.99,0 39.46,-5.449 52.4,-16.351 12.94,-10.93 19.39,-25.66 19.39,-44.289 0,-12.66 -3.16,-23.641 -9.5,-32.871 -6.3,-9.282 -15.35,-16.16 -27.17,-20.75 6.9,-4.551 13.71,-10.821 20.35,-18.688 6.64,-7.871 16,-21.601 28.07,-41.23 7.56,-12.301 13.64,-21.621 18.21,-27.871 l 11.52,-15.59 h -37.12 l -9.48,14.379 c -0.29,0.492 -0.9,1.39 -1.84,2.601 l -6.08,8.59 -9.66,15.899 -10.44,16.972 c -6.39,8.93 -12.29,16.039 -17.65,21.289 -5.33,5.309 -10.17,9.141 -14.48,11.449 -4.34,2.34 -11.57,3.512 -21.73,3.512 h -8.11 v -94.691 h -31.25"
         style="fill:#565353;fill-opacity:1;fill-rule:nonzero;stroke:none"
         id="path64" /><path
         d="m 6139.52,235.879 h 73.19 v -92.457 c -26.81,-11.582 -53.4,-17.391 -79.83,-17.391 -36.03,0 -64.83,10.489 -86.4,31.571 -21.56,21.07 -32.37,47.046 -32.37,77.929 0,32.559 11.19,59.649 33.55,81.27 22.33,21.64 50.35,32.461 84.01,32.461 12.27,0 23.91,-1.313 34.95,-3.93 10.99,-2.652 24.9,-7.461 41.74,-14.492 v -31.879 c -25.98,15.078 -51.8,22.598 -77.34,22.598 -23.82,0 -43.88,-8.137 -60.25,-24.387 -16.27,-16.211 -24.46,-36.16 -24.46,-59.75 0,-24.762 8.14,-45.082 24.46,-60.742 16.35,-15.739 37.35,-23.59 63.01,-23.59 12.5,0 27.37,2.89 44.77,8.551 l 2.93,0.961 v 45.597 h -41.96 v 27.68"
         style="fill:#565353;fill-opacity:1;fill-rule:nonzero;stroke:none"
         id="path66" /><path
         d="m 6323.25,346.191 h 31.25 v -217.64 h -31.25 v 217.64"
         style="fill:#565353;fill-opacity:1;fill-rule:nonzero;stroke:none"
         id="path68" /><path
         d="m 6576.59,220.801 -35.28,78.828 -32.71,-78.828 z M 6530.46,347.5 h 21.93 l 97.74,-218.949 h -31.92 l -29.02,64.519 h -92.78 l -27.27,-64.519 h -32 l 93.32,218.949"
         style="fill:#565353;fill-opacity:1;fill-rule:nonzero;stroke:none"
         id="path70" /><path
         d="m 3089.18,2329.64 v -72.91 c -48.57,-26.63 -104.63,-39.98 -168.24,-39.98 -51.69,0 -95.54,10.4 -131.51,31.22 -35.99,20.74 -64.51,49.37 -85.45,85.9 -21,36.49 -31.49,75.93 -31.49,118.41 0,67.46 23.99,124.19 72.03,170.2 47.99,45.99 107.2,69.06 177.61,69.06 48.53,0 102.49,-12.96 161.92,-38.76 v -70.96 c -54.14,30.98 -106.99,46.47 -158.63,46.47 -53.04,0 -97.07,-16.75 -132.05,-50.24 -35.03,-33.46 -52.52,-75.37 -52.52,-125.73 0,-50.8 17.27,-92.52 51.71,-125.25 34.49,-32.7 78.54,-49.05 132.27,-49.05 56.05,0 110.91,17.2 164.35,51.62"
         style="fill:#565353;fill-opacity:1;fill-rule:nonzero;stroke:none"
         id="path72" /><path
         d="m 3478.1,2628.29 c -53.11,0 -96.64,-16.57 -130.77,-49.61 -34.1,-33.09 -51.19,-75.28 -51.19,-126.65 0,-49.9 17.09,-91.3 51.4,-124.39 34.19,-33.07 77.05,-49.62 128.49,-49.62 51.74,0 94.88,16.89 129.43,50.65 34.58,33.72 51.91,75.69 51.91,125.97 0,48.92 -17.33,90.09 -51.91,123.54 -34.55,33.36 -77.05,50.11 -127.36,50.11 z m -2.54,63.25 c 71.56,0 131.16,-22.69 178.8,-67.98 47.52,-45.24 71.33,-101.99 71.33,-170.29 0,-68.23 -24,-124.71 -72.06,-169.44 -48.03,-44.7 -108.59,-67.08 -181.66,-67.08 -69.8,0 -128,22.38 -174.45,67.08 -46.51,44.73 -69.72,100.8 -69.72,168.11 0,69.15 23.37,126.38 70.21,171.62 46.87,45.29 106.02,67.98 177.55,67.98"
         style="fill:#565353;fill-opacity:1;fill-rule:nonzero;stroke:none"
         id="path74" /><path
         d="m 3884.41,2685.06 h 66.43 v -403.14 h 208.34 v -60.04 h -274.77 v 463.18"
         style="fill:#565353;fill-opacity:1;fill-rule:nonzero;stroke:none"
         id="path76" /><path
         d="m 4308.07,2685.06 h 66.4 v -403.14 h 208.35 v -60.04 h -274.75 v 463.18"
         style="fill:#565353;fill-opacity:1;fill-rule:nonzero;stroke:none"
         id="path78" /><path
         d="m 4731.62,2685.06 h 262.54 v -58.71 H 4798.08 V 2484.4 h 189.66 v -59.29 h -189.66 v -144.52 h 202.52 v -58.71 h -268.98 v 463.18"
         style="fill:#565353;fill-opacity:1;fill-rule:nonzero;stroke:none"
         id="path80" /><path
         d="m 5412.19,2450.25 h 155.41 v -196.56 c -57.09,-24.63 -113.64,-36.94 -169.76,-36.94 -76.72,0 -138.04,22.42 -183.9,67.2 -45.86,44.72 -68.8,100.03 -68.8,165.72 0,69.19 23.78,126.8 71.33,172.81 47.59,45.99 107.18,69.06 178.87,69.06 26.12,0 50.9,-2.81 74.31,-8.37 23.44,-5.49 53.1,-15.62 88.94,-30.39 v -67.76 c -55.35,31.88 -110.28,47.77 -164.75,47.77 -50.66,0 -93.45,-17.29 -128.21,-51.86 -34.77,-34.58 -52.14,-77.04 -52.14,-127.32 0,-52.7 17.37,-95.76 52.13,-129.31 34.68,-33.44 79.37,-50.1 134.03,-50.1 26.56,0 58.25,6.03 95.26,18.23 l 6.23,1.94 v 97.2 h -88.95 v 58.68"
         style="fill:#565353;fill-opacity:1;fill-rule:nonzero;stroke:none"
         id="path82" /><path
         d="m 5760.4,2685.06 h 262.54 v -58.73 l -196.09,0.02 V 2484.4 h 189.62 v -59.29 h -189.62 v -144.52 h 202.53 v -58.66 H 5760.4 v 463.13"
         style="fill:#565353;fill-opacity:1;fill-rule:nonzero;stroke:none"
         id="path84" /><path
         d="m 2994.35,899.391 h 188.63 V 660.699 c -69.13,-29.937 -137.78,-44.879 -205.9,-44.879 -93.04,0 -167.34,27.149 -222.92,81.52 -55.62,54.34 -83.5,121.43 -83.5,201.16 0,84 28.82,153.97 86.51,209.8 57.67,55.78 129.96,83.73 216.85,83.73 31.69,0 61.68,-3.38 90.17,-10.21 28.41,-6.84 64.34,-19.36 107.81,-37.6 v -81.97 c -67.06,38.75 -133.6,58.06 -199.56,58.06 -61.36,0 -113.13,-20.94 -155.3,-62.85 -42.09,-41.86 -63.1,-93.358 -63.1,-154.28 0,-63.981 20.96,-116.2 63.01,-156.758 42.01,-40.563 96.19,-60.832 162.28,-60.832 32.14,0 70.55,7.34 115.25,22.152 l 7.64,2.438 v 117.461 h -107.87 v 71.75"
         style="fill:#565353;fill-opacity:1;fill-rule:nonzero;stroke:none"
         id="path86" /><path
         d="m 3382.81,1184.34 h 318.53 v -71.76 H 3463.6 V 940.719 h 230.01 V 869.051 H 3463.6 v -175.09 h 245.45 v -71.699 h -326.24 v 562.078"
         style="fill:#565353;fill-opacity:1;fill-rule:nonzero;stroke:none"
         id="path88" /><path
         d="m 4139.64,1115.82 c -64.43,0 -117.33,-20.08 -158.77,-60.29 -41.42,-40.2 -62.2,-91.569 -62.2,-153.928 0,-60.59 20.85,-111.012 62.38,-151.231 41.63,-40.16 93.67,-60.23 156.11,-60.23 62.83,0 115.21,20.449 157.2,61.461 41.98,41.007 63.02,92.007 63.02,153.199 0,59.429 -21.04,109.539 -63.02,150.139 -41.99,40.62 -93.54,60.88 -154.72,60.88 z m -3.36,76.21 c 86.91,0 159.32,-27.46 217.05,-82.42 57.81,-54.98 86.74,-123.868 86.74,-206.661 0,-82.828 -29.18,-151.449 -87.53,-205.699 -58.37,-54.281 -131.91,-81.43 -220.65,-81.43 -84.72,0 -155.37,27.149 -211.8,81.43 -56.5,54.25 -84.73,122.281 -84.73,204.039 0,83.922 28.43,153.341 85.29,208.321 56.87,54.96 128.76,82.42 215.63,82.42"
         style="fill:#565353;fill-opacity:1;fill-rule:nonzero;stroke:none"
         id="path90" /><path
         d="M 4728.54,1115.82 H 4704.4 V 938.84 h 30.48 c 40.68,0 68.6,3.461 83.7,10.441 15.13,6.93 26.85,17.481 35.28,31.469 8.42,14.09 12.64,29.99 12.64,48 0,17.64 -4.72,33.63 -14,47.95 -9.38,14.31 -22.55,24.39 -39.57,30.29 -16.99,5.86 -45.14,8.83 -84.39,8.83 z M 4623.66,622.262 v 562.078 h 140.73 c 56.89,0 101.98,-14.15 135.4,-42.23 33.39,-28.1 50.07,-66.18 50.07,-114.13 0,-32.73 -8.17,-61.05 -24.56,-84.871 -16.38,-23.847 -39.84,-41.679 -70.41,-53.437 18.01,-11.84 35.68,-27.953 52.85,-48.34 17.27,-20.402 41.42,-55.973 72.53,-106.66 19.61,-32.012 35.28,-56.063 47.05,-72.113 l 29.78,-40.297 h -95.69 l -24.47,37.09 c -0.84,1.308 -2.41,3.617 -4.86,6.796 l -15.62,22.231 -24.9,41.062 -26.97,43.938 c -16.59,23.101 -31.76,41.461 -45.63,55.152 -13.79,13.699 -26.25,23.551 -37.46,29.578 -11.09,5.95 -29.87,9.012 -56.21,9.012 H 4704.4 V 622.262 h -80.74"
         style="fill:#565353;fill-opacity:1;fill-rule:nonzero;stroke:none"
         id="path92" /><path
         d="m 5488.12,899.391 h 188.63 V 660.699 c -69.15,-29.937 -137.79,-44.879 -205.9,-44.879 -93,0 -167.37,27.149 -222.95,81.52 -55.62,54.34 -83.45,121.43 -83.45,201.16 0,84 28.79,153.97 86.52,209.8 57.64,55.78 129.95,83.73 216.79,83.73 31.67,0 61.7,-3.42 90.23,-10.21 28.38,-6.84 64.3,-19.36 107.77,-37.6 v -82.03 c -67.01,38.81 -133.57,58.12 -199.51,58.12 -61.43,0 -113.2,-20.94 -155.29,-62.79 -42.15,-41.92 -63.15,-93.418 -63.15,-154.34 0,-63.981 21,-116.2 63.01,-156.758 42.05,-40.563 96.14,-60.832 162.28,-60.832 32.16,0 70.54,7.34 115.27,22.152 l 7.64,2.438 v 117.461 h -107.89 v 71.75"
         style="fill:#565353;fill-opacity:1;fill-rule:nonzero;stroke:none"
         id="path94" /><path
         d="m 5893.68,1184.34 h 80.77 V 622.262 h -80.77 v 562.078"
         style="fill:#565353;fill-opacity:1;fill-rule:nonzero;stroke:none"
         id="path96" /><path
         d="m 6462.05,860.629 -90.71,203.361 -84.22,-203.361 z m -118.67,326.911 h 56.97 L 6652,622.262 h -82.32 l -74.79,166.699 h -239.28 l -70.03,-166.699 h -82.73 l 240.53,565.278"
         style="fill:#565353;fill-opacity:1;fill-rule:nonzero;stroke:none"
         id="path98" /><path
         d="m 3218.39,1526.95 v -95.58 c -63.45,-34.44 -136.72,-51.69 -219.88,-51.69 -67.55,0 -124.84,13.6 -171.84,40.79 -47.03,27.1 -84.29,64.56 -111.73,112.2 -27.39,47.67 -41.15,99.27 -41.15,154.73 0,88.11 31.39,162.21 94.16,222.31 62.79,60.1 140.22,90.17 232.31,90.17 63.51,0 134.03,-16.54 211.69,-49.79 v -92.96 c -70.68,40.49 -139.74,60.68 -207.27,60.68 -69.25,0 -126.74,-21.93 -172.46,-65.73 -45.76,-43.79 -68.61,-98.72 -68.61,-164.63 0,-66.59 22.53,-121.24 67.53,-164.06 44.93,-42.81 102.61,-64.25 172.66,-64.25 73.27,0 144.81,22.61 214.59,67.81"
         style="fill:#565353;fill-opacity:1;fill-rule:nonzero;stroke:none"
         id="path100" /><path
         d="m 3661.15,1918.44 c -69.11,0 -125.93,-21.7 -170.47,-65.06 -44.55,-43.34 -66.74,-98.72 -66.74,-166.07 0,-65.37 22.3,-119.71 66.92,-163.11 44.71,-43.36 100.62,-65.06 167.68,-65.06 67.45,0 123.63,22.11 168.7,66.37 45.15,44.21 67.61,99.31 67.61,165.27 0,64.16 -22.46,118.18 -67.61,161.97 -45.07,43.81 -100.42,65.69 -166.09,65.69 z m -3.6,82.07 c 93.42,0.05 171.17,-29.58 233.32,-88.78 62.09,-59.25 93.17,-133.47 93.17,-222.66 0,-89.32 -31.37,-163.16 -94.04,-221.64 -62.76,-58.48 -141.76,-87.75 -237.16,-87.75 -91.14,0 -167,29.27 -227.62,87.75 -60.76,58.48 -91.1,131.77 -91.1,219.88 0,90.4 30.59,165.17 91.68,224.42 61.09,59.2 138.38,88.78 231.75,88.78"
         style="fill:#565353;fill-opacity:1;fill-rule:nonzero;stroke:none"
         id="path102" /><path
         d="m 4393.35,1643.28 -97.63,219.11 -90.78,-219.11 z m -127.85,352.08 h 61.29 l 270.92,-608.56 h -88.56 l -80.46,179.63 h -257.54 l -75.54,-179.63 h -89.01 l 258.9,608.56"
         style="fill:#565353;fill-opacity:1;fill-rule:nonzero;stroke:none"
         id="path104" /><path
         d="m 4850.48,1640.22 -65.94,40.07 c -41.4,25.16 -70.82,50.11 -88.28,74.47 -17.52,24.44 -26.27,52.53 -26.27,84.32 0,47.69 16.54,86.38 49.68,116.12 33.06,29.78 76.04,44.68 128.93,44.68 50.66,0 97.01,-14.29 139.19,-42.79 v -98.21 c -43.69,41.89 -90.67,62.76 -141.14,62.76 -28.32,0 -51.59,-6.49 -69.82,-19.54 -18.29,-13.1 -27.38,-29.81 -27.38,-50.24 0,-18.09 6.73,-35.02 20.22,-50.83 13.46,-15.8 35.07,-32.41 64.8,-49.88 l 66.34,-39.21 c 73.95,-44.17 110.89,-100.3 110.89,-168.47 0,-48.53 -16.28,-87.97 -48.81,-118.31 -32.5,-30.26 -74.76,-45.48 -126.82,-45.48 -59.88,0 -114.38,18.37 -163.52,55.11 v 109.85 c 46.89,-59.11 101.1,-88.69 162.73,-88.69 27.19,0 49.84,7.52 67.91,22.64 18.06,15.09 27.15,34 27.15,56.73 0,36.87 -26.65,71.81 -79.86,104.9"
         style="fill:#565353;fill-opacity:1;fill-rule:nonzero;stroke:none"
         id="path106" /><path
         d="m 5108.15,1992.14 h 505.28 v -76.94 h -210.68 v -528.4 h -87.22 v 528.4 h -207.38 v 76.94"
         style="fill:#565353;fill-opacity:1;fill-rule:nonzero;stroke:none"
         id="path108" /><path
         d="m 5980.35,1643.28 -97.59,219.11 -90.8,-219.11 z m -127.88,352.08 h 61.32 l 270.98,-608.56 h -88.61 l -80.45,179.63 H 5758.19 L 5682.6,1386.8 h -89.01 l 258.88,608.56"
         style="fill:#565353;fill-opacity:1;fill-rule:nonzero;stroke:none"
         id="path110" /><path
         d="m 6287.35,1992.14 h 86.58 v -526.51 h 272.59 v -78.83 h -359.17 v 605.34"
         style="fill:#565353;fill-opacity:1;fill-rule:nonzero;stroke:none"
         id="path112" /><path
         d="m 6348.15,2528.5 c -21.57,0 -39.6,-12.18 -54.12,-36.49 -14.42,-24.31 -21.63,-54.47 -21.63,-90.47 0,-52.77 16.03,-79.12 48.18,-79.12 19.51,0 36.24,12.96 50.35,38.85 14.07,25.93 21.11,57 21.11,93.15 0,49.34 -14.67,74.08 -43.89,74.08 z m -0.81,13.84 c 25.12,0 45.13,-8.35 60.1,-25.03 14.86,-16.68 22.34,-39.1 22.34,-67.24 0,-39.77 -11.15,-73.77 -33.39,-101.77 -22.33,-28 -49.3,-42.05 -81.06,-42.05 -23.97,0 -43.46,8.91 -58.48,26.79 -15.04,17.83 -22.53,40.9 -22.53,69.2 0,20.91 4.38,42.12 13.21,63.5 8.78,21.45 19.94,38.4 33.58,50.85 18.71,17.2 40.75,25.75 66.23,25.75"
         style="fill:#565353;fill-opacity:1;fill-rule:nonzero;stroke:none"
         id="path114" /><path
         d="m 6519.61,2519.11 h -37.32 c -9.25,0 -13.84,2.7 -13.84,7.97 0,7.61 5.36,11.39 16.11,11.39 h 37.91 l 1.12,7.37 c 8.9,51.79 25.04,93.16 48.52,124.18 9.61,12.81 18.75,21.79 27.32,26.88 8.65,5.14 18.96,7.65 31.1,7.65 7.49,0 12.73,-0.83 15.52,-2.51 2.87,-1.74 4.28,-4.96 4.28,-9.66 0,-23.71 -2.27,-35.55 -6.91,-35.55 -1.69,0 -3.31,0.95 -4.84,2.84 l -6.96,7.42 c -6.77,8.02 -15.32,12.03 -25.63,12.03 -10.47,0 -19.72,-10.31 -27.65,-30.82 -7.85,-20.46 -15.39,-53.64 -22.48,-99.32 l -1.45,-10.51 h 42.62 c 9.07,0 13.63,-2.57 13.63,-7.67 0,-7.77 -5.31,-11.69 -15.93,-11.69 h -43.02 l -26.17,-210.83 c -3.79,-31.54 -12.7,-54.66 -26.75,-69.42 -15.89,-16.95 -31.94,-25.48 -48.06,-25.48 -9.68,0 -14.52,3.91 -14.52,11.61 0,7.34 1.71,15.38 5,24.09 3.33,8.71 6.46,13.05 9.14,13.05 2.23,0 3.78,-2.23 4.57,-6.55 2.23,-13.1 7.18,-19.6 14.79,-19.6 9.45,0 15.8,12.91 19.04,38.8 l 2.29,19.27 15.9,129.84 c 3.94,32.13 8.17,63.84 12.67,95.22"
         style="fill:#565353;fill-opacity:1;fill-rule:nonzero;stroke:none"
         id="path116" /></g></g></svg>
