<svg id="Layer_1" data-name="Layer 1" xmlns="http://www.w3.org/2000/svg" xmlns:xlink="http://www.w3.org/1999/xlink" viewBox="0 0 320.04 104.88"><defs><style>.cls-1{fill:none;}.cls-2{clip-path:url(#clip-path);}.cls-3,.cls-5{fill:#008c99;}.cls-4{fill:#231f20;}.cls-5{font-size:4.3px;font-family:MyriadPro-Regular, Myriad Pro;}</style><clipPath id="clip-path" transform="translate(-14.71 -5.27)"><rect class="cls-1" width="357.4" height="121.87"/></clipPath></defs><g class="cls-2"><path class="cls-3" d="M24.45,49.86a1.91,1.91,0,0,0,.85-.25A1.94,1.94,0,0,0,26,49a3.75,3.75,0,0,0,.47-1.17,3.88,3.88,0,0,0,.13-1.25,2.22,2.22,0,0,0-.3-.91,1.93,1.93,0,0,0-.64-.6,3.26,3.26,0,0,0-.88-.36L22.19,44a.17.17,0,0,1-.14-.14.92.92,0,0,1,0-.23l-.15,0-.56,2,.15,0a.34.34,0,0,1,.07-.11.17.17,0,0,1,.19,0l2.92.71a.74.74,0,0,1,.58.46,1.48,1.48,0,0,1,0,.84,1.42,1.42,0,0,1-.4.74.72.72,0,0,1-.72.15l-2.93-.72c-.09,0-.14,0-.15-.11a.3.3,0,0,1,0-.13l-.15,0-.39,2,.15,0a1,1,0,0,1,.1-.21.17.17,0,0,1,.19,0l2.56.63a3.44,3.44,0,0,0,.94.09m-1.6,19a2.62,2.62,0,0,0,.73-.07l2.11-.44a.12.12,0,0,1,.14,0,.46.46,0,0,1,.07.14l.11,0-.33-1.34-.11,0a.29.29,0,0,1,0,.09s-.06.06-.12.08l-2.28.48a.62.62,0,0,1-.55-.1,1,1,0,0,1-.27-.51.86.86,0,0,1,0-.58.6.6,0,0,1,.47-.31l2.27-.48c.07,0,.12,0,.14,0a.15.15,0,0,1,.05.07l.12,0-.24-1.36-.11,0a.76.76,0,0,1,0,.16s0,.08-.12.09l-2.1.45a2.94,2.94,0,0,0-.69.23,1.66,1.66,0,0,0-.52.42,1.39,1.39,0,0,0-.26.62,2.32,2.32,0,0,0,0,.86,2.19,2.19,0,0,0,.31.8,1.36,1.36,0,0,0,.5.46,1.69,1.69,0,0,0,.64.18m.07-27.55a.16.16,0,0,1,.19,0l4.32,1.92c.09,0,.13.09.13.15a.81.81,0,0,1,0,.2l.13.06.7-1.8-.14-.06a.59.59,0,0,1-.13.17.16.16,0,0,1-.19,0l-3-1.31,0,0c.5-.12,1-.26,1.45-.4l1.27-.39c.36-.12.68-.21.93-.28a1.09,1.09,0,0,1,.48-.06.13.13,0,0,1,.07.17.66.66,0,0,1-.06.2l.14,0,.93-1.85L30,38a.54.54,0,0,1-.14.18s-.11,0-.19,0l-4.32-1.91c-.08,0-.13-.09-.13-.15a.74.74,0,0,1,.05-.23l-.13-.06-.88,1.78.13,0a.94.94,0,0,1,.14-.18.16.16,0,0,1,.19,0l2.25,1-1.06.31-1,.28-.71.21a.91.91,0,0,1-.31.06.19.19,0,0,1-.16-.16.78.78,0,0,1,0-.16L23.65,39l-1,2.48.14.06a1.4,1.4,0,0,1,.13-.18m3.53-7.46a.17.17,0,0,1,.2,0l4,2.45a.17.17,0,0,1,.1.17.75.75,0,0,1-.1.25l.13.08L32,34.91l-.12-.08a1.28,1.28,0,0,1-.18.2.17.17,0,0,1-.2,0l-4-2.44a.18.18,0,0,1-.1-.18c0-.06.05-.15.09-.25l-.12-.07L26.15,34l.13.08a.92.92,0,0,1,.17-.2M38.64,91.39c.14,0,1-.14,1.18-.17l.57-.06a.68.68,0,0,1,.36,0l.07-.09-1.17-1-.07.08a1.27,1.27,0,0,1,.07.12s0,.08,0,.14-.06,0-.15,0l-.33,0-1.83.22,1.15-1.33s.09-.07.14,0a.42.42,0,0,1,.14.06l.07-.08-1-1-.07.09a.27.27,0,0,1,.08.1.18.18,0,0,1,0,.15l-2.39,2.74a.23.23,0,0,1-.14.07.24.24,0,0,1-.12-.07l-.07.09,1,1,.08-.09a.57.57,0,0,1-.08-.13s0-.09,0-.14l.52-.59,1-.17-.37,1.61a.48.48,0,0,1-.05.13.12.12,0,0,1-.15.05.35.35,0,0,1-.12-.07l-.07.09,1.18,1,.08-.09a.16.16,0,0,1,0-.09.2.2,0,0,1,0-.13Zm-3.3-5.23a.47.47,0,0,1,.12.09l.1-.07-.91-1-.09.07a.2.2,0,0,1,0,.09s0,.08-.07.12l-1.8,1.47a.61.61,0,0,1-.54.17,1.06,1.06,0,0,1-.7-.86.61.61,0,0,1,.26-.49l1.81-1.48c.06,0,.1-.06.13,0l.09,0,.09-.07L33,83.07l-.08.06a1,1,0,0,1,.07.15s0,.09-.07.14l-1.66,1.37a2.49,2.49,0,0,0-.5.53,1.47,1.47,0,0,0-.27.6,1.23,1.23,0,0,0,.05.68,2.05,2.05,0,0,0,.43.74,2.35,2.35,0,0,0,.64.57,1.37,1.37,0,0,0,.66.18,1.54,1.54,0,0,0,.65-.15,2.67,2.67,0,0,0,.61-.38l1.66-1.37q.09-.07.15,0M25.72,71.05l-1.39,1.13L23.93,71Zm.75.61a1,1,0,0,1,.22-.15s.09,0,.12.06l.11,0L26.43,70l-.11,0c0,.07,0,.11-.06.13h-.41l-3.54-.1a.14.14,0,0,1-.09,0,.22.22,0,0,1,0-.08l-.11,0,.32,1.09.11,0a.13.13,0,0,1,0-.06.07.07,0,0,1,.06-.06h.12l.55,0,.54,1.69-.43.34-.11.06a.06.06,0,0,1-.08,0s0,0,0-.06L23,73l.43,1.18.11,0a.1.1,0,0,1,0-.09.14.14,0,0,1,.05-.08l2.9-2.32M28.36,30.8a.28.28,0,0,1,.11-.05,2,2,0,0,1,.41.11l4,1.48.39.15a.21.21,0,0,1,.07.16c0,.07,0,.12-.06.15l.12.09L34.83,31l-.11-.09a.22.22,0,0,1-.14.1.19.19,0,0,1-.16,0,2.26,2.26,0,0,1-.24-.32c-.12-.2-2.38-3.87-2.44-3.95a.26.26,0,0,1,0-.14.26.26,0,0,1,.06-.15l-.12-.09-1.2,1.41.12.1.11-.12a.1.1,0,0,1,.15,0s.09.13.23.35l1.53,2.52h0l-2.87-1.05a.74.74,0,0,1-.23-.1.1.1,0,0,1,0-.15,1,1,0,0,1,.1-.14l-.12-.09-1.23,1.7.12.09a.2.2,0,0,1,.06-.07m1.69,48.28c.07,0,.11,0,.15,0a.27.27,0,0,1,.08.07l.1,0-.83-1.48-.1.06a.22.22,0,0,1,0,.1,0,0,0,0,1,0,.06.79.79,0,0,1-.23,0l-1.5.11s.84-.95,1-1.07.19-.19.2-.2a0,0,0,0,1,.07,0l.07.08.1,0-.72-1.52-.11.05a.25.25,0,0,1,0,.12s0,.08-.09.12L25,77.19a.16.16,0,0,1-.15,0l-.09-.09-.1,0,.51,1.09.1,0a.5.5,0,0,1,0-.16s0-.08.08-.12l2.46-1.25h0l-1.95,2.24,3-.25v0L26.37,80a.14.14,0,0,1-.14,0,.36.36,0,0,1-.1-.11l-.1.05L26.65,81l.1-.06a.36.36,0,0,1,0-.11.17.17,0,0,1,.1-.11Zm-.93,3.06,1.74-.41-1,1.46Zm.47,3,2.16-3,.16-.21a.1.1,0,0,1,.14,0l.09-.06-.88-1.33-.1.07a.08.08,0,0,1,0,.13,2.26,2.26,0,0,1-.4.12l-3.43.87a.14.14,0,0,1-.09,0,.23.23,0,0,1-.07-.07l-.1.07.61,1,.09-.06,0-.06s0,0,.05-.07a.23.23,0,0,1,.11,0l.53-.13,1,1.47-.33.45-.08.09s-.07,0-.08,0,0,0,0,0l-.1.06.73,1,.09-.07a.24.24,0,0,1,0-.09s0-.06,0-.09M61.8,10.82a.2.2,0,0,1,.15.09l2.26,3,.08,1.59a.17.17,0,0,1-.07.18l-.16,0v.15l2-.1v-.15a.53.53,0,0,1-.16,0,.16.16,0,0,1-.08-.16l-.08-1.65,1.73-3.18a.23.23,0,0,1,.14-.11l.15,0v-.15l-2.18,0v.14l.14,0a.11.11,0,0,1,.1.11.87.87,0,0,1-.13.32c-.08.15-.74,1.33-.77,1.4l-1-1.36a.76.76,0,0,1-.12-.26.1.1,0,0,1,.09-.12l.17,0v-.14l-2.37.2v.15a.59.59,0,0,1,.17,0M74,13.58a2.07,2.07,0,0,1,.23-.59,1.31,1.31,0,0,1,.42-.39,1.42,1.42,0,0,1,.53-.2,1.73,1.73,0,0,1,.6,0,1.61,1.61,0,0,1,.57.21,1.57,1.57,0,0,1,.43.38,1.55,1.55,0,0,1,.24.52,1.67,1.67,0,0,1,0,.63,1.6,1.6,0,0,1-.23.58,1.42,1.42,0,0,1-.41.4,1.54,1.54,0,0,1-.54.2,1.64,1.64,0,0,1-1.6-.61,1.31,1.31,0,0,1-.23-.51,1.47,1.47,0,0,1,0-.63m-.87,2a2.71,2.71,0,0,0,.85.65,4,4,0,0,0,1,.34,3.81,3.81,0,0,0,1.07.05,2.78,2.78,0,0,0,1-.29,2.58,2.58,0,0,0,1.35-1.91,2.78,2.78,0,0,0,0-1.29,2.39,2.39,0,0,0-.53-1,2.77,2.77,0,0,0-.85-.67,4,4,0,0,0-1-.36,4.23,4.23,0,0,0-1.07,0,2.87,2.87,0,0,0-1,.32,2.54,2.54,0,0,0-.85.72,2.68,2.68,0,0,0-.5,1.19,2.64,2.64,0,0,0,0,1.29,2.51,2.51,0,0,0,.53,1M32.74,25.15l.1.11a.81.81,0,0,1,.2-.11.14.14,0,0,1,.18.06l3.2,3.44a.16.16,0,0,1,0,.19.92.92,0,0,1-.13.19l.11.1,3.61-3.46a.92.92,0,0,1,.16-.12.35.35,0,0,1,.22.07l.08-.08-1.07-1.16-.1.09c.1.18.1.32,0,.43L37,27.07l-.83-.89,1.55-1.44a.17.17,0,0,1,.13,0,.29.29,0,0,1,.21.12l.1-.09-1.1-1.18-.1.09c.08.09.12.16.11.22A.23.23,0,0,1,37,24l-1.54,1.44-.69-.73,2.4-2.24a.19.19,0,0,1,.13-.05c.06,0,.14,0,.21.13l.1-.09-1.12-1.22-.1.1c.07.08.11.15.1.21a.31.31,0,0,1-.06.13Zm56-3.51a.8.8,0,0,1-.16-.16.18.18,0,0,1,0-.2l1-1.58L91.73,21l-1,1.59a.18.18,0,0,1-.17.09.7.7,0,0,1-.22-.07l-.08.12L92,24l.08-.12a.66.66,0,0,1-.17-.16c0-.05,0-.12,0-.2l2.51-4a.17.17,0,0,1,.17-.1,1,1,0,0,1,.22.08l.07-.13-1.76-1.21-.08.12a.6.6,0,0,1,.16.16c.05.05,0,.12,0,.2L92.4,20l-2.1-1.32.83-1.36a.18.18,0,0,1,.17-.09.7.7,0,0,1,.22.07l.08-.12-1.85-1.07-.08.13a.6.6,0,0,1,.16.16.15.15,0,0,1,0,.19l-2.5,4c0,.08-.1.11-.17.1l-.21-.07-.08.12,1.84,1.05Zm-8.1-3.77a.52.52,0,0,1-.19-.12s-.06-.1,0-.19L81,16l1.94.68a.19.19,0,0,1,.11.09.36.36,0,0,1,0,.25l.12.05.55-1.57-.14,0a.27.27,0,0,1-.13.19.33.33,0,0,1-.14,0L81.37,15l.37-1.08,2.87,1a.16.16,0,0,1,.11.09.28.28,0,0,1,0,.25l.13,0,.55-1.59-.12,0a.3.3,0,0,1-.14.19H85l-4.61-1.61,0,.14.22.13s0,.11,0,.19L79,17.14a.18.18,0,0,1-.14.14l-.23,0,0,.14,2,.62ZM41.75,19.06a.91.91,0,0,1,.67-.23.69.69,0,0,1,.4.3.6.6,0,0,1,.12.53,1,1,0,0,1-.38.46L41.23,21l-.74-1.1Zm-3,1c.06,0,.11,0,.16.1l2.65,3.9c0,.08.06.14,0,.19a.62.62,0,0,1-.09.12l.08.13,1.56-1.14-.08-.12-.2.08c-.06,0-.11,0-.17-.1l-.94-1.39.89-.61,1.42.78a1.19,1.19,0,0,1,.27.19.13.13,0,0,1,0,.16.49.49,0,0,1-.13.12l.09.12,2-1.24-.09-.12a.33.33,0,0,1-.22.06.47.47,0,0,1-.24-.05l-1.89-.86a2.36,2.36,0,0,0,.4-1,1.51,1.51,0,0,0-.3-1.07,1.57,1.57,0,0,0-1.13-.78,2,2,0,0,0-1.35.39l-3,2.08.09.12a.33.33,0,0,1,.16-.05m13-6.93c.07,0,.12.05.15.13l1.48,4.49a.15.15,0,0,1,0,.19.7.7,0,0,1-.23.13l0,.14,2.12-.69,0-.14a1.09,1.09,0,0,1-.27,0,.18.18,0,0,1-.15-.14l-1.48-4.48c0-.09,0-.15,0-.19a.92.92,0,0,1,.23-.14l0-.14L51.42,13l0,.14a.71.71,0,0,1,.27,0M46.34,18a1.75,1.75,0,0,0,.8.12A3.78,3.78,0,0,0,48,18l.86-.26a2.94,2.94,0,0,1,.68-.14.38.38,0,0,1,.41.52.83.83,0,0,1-.19.27,1.54,1.54,0,0,1-.29.21l-.24.12a4.3,4.3,0,0,1-.69.25,5.56,5.56,0,0,1-.71.17,3.24,3.24,0,0,1-.58,0c-.16,0-.26-.05-.29-.12a.59.59,0,0,1,0-.08.09.09,0,0,0,0-.05h-.17l.27,1.7.13,0,.06-.16a.27.27,0,0,1,.1-.11l.27-.05.59-.1a7.08,7.08,0,0,0,.75-.2,5.08,5.08,0,0,0,.77-.29,4.19,4.19,0,0,0,1-.58,1.92,1.92,0,0,0,.54-.66,1.54,1.54,0,0,0,.17-.71,1.57,1.57,0,0,0-.15-.68,1.16,1.16,0,0,0-.6-.66,1.69,1.69,0,0,0-.81-.14,3.63,3.63,0,0,0-.9.16l-.87.26a3.8,3.8,0,0,1-.67.15A.33.33,0,0,1,47,16.6a.34.34,0,0,1,0-.35,1.32,1.32,0,0,1,.28-.3,1.41,1.41,0,0,1,.36-.24l.28-.13a2.5,2.5,0,0,1,.54-.19A3.67,3.67,0,0,1,49,15.3a1.67,1.67,0,0,1,.38,0c.1,0,.16,0,.18.05s0,.05,0,.07,0,.05,0,.06h.17l0-1.69h-.13s0,.08,0,.13a.22.22,0,0,1-.12.11,1.77,1.77,0,0,1-.28.08l-.51.11c-.2,0-.42.1-.65.17a6.62,6.62,0,0,0-.72.28,3.21,3.21,0,0,0-1,.65,2.21,2.21,0,0,0-.51.73,1.88,1.88,0,0,0-.14.72,1.57,1.57,0,0,0,.14.61,1.1,1.1,0,0,0,.58.63m9.27-4.69c0-.12,0-.19,0-.23a.16.16,0,0,1,.12-.08l1.57-.32.75,3.73c0,.09,0,.15,0,.18a.35.35,0,0,1-.16.08l0,.15,2-.4,0-.14-.18,0c-.06,0-.1-.06-.11-.15l-.75-3.72,1.57-.32a.24.24,0,0,1,.14,0s.08.09.11.21l.13,0-.35-1.77-.14,0c0,.12,0,.2,0,.24a.23.23,0,0,1-.12.08l-4.62.92a.2.2,0,0,1-.15,0s-.08-.09-.11-.21l-.13,0,.36,1.77Zm-3.74,86.94-1.19-.45,1.17-1.34Zm-.43-2.88q.09,0,.06.12a2.11,2.11,0,0,1-.25.33L49,100.54a.1.1,0,0,1-.08,0,.27.27,0,0,1-.09,0l0,.1,1.05.43,0-.11-.05,0s0,0,0-.09l.07-.1s.33-.37.36-.42l1.66.62v.56a.29.29,0,0,1,0,.12s0,.06-.06.06l-.06,0,0,.11,1.19.4,0-.1-.08-.06a.16.16,0,0,1,0-.09c0-.17,0-3.55,0-3.72a1.3,1.3,0,0,1,0-.26.1.1,0,0,1,.13,0l0-.11-1.5-.56Zm50.82-11.19-.93-1.52,1.72.53ZM105,84.82a.17.17,0,0,1-.1,0l-3.52-1.11a1.07,1.07,0,0,1-.25-.11.08.08,0,0,1,0-.13l-.1-.08-1,1.26.09.07s.1-.06.14,0a2.07,2.07,0,0,1,.24.35l1.88,3a.1.1,0,0,1,0,.09.19.19,0,0,1,0,.09l.09.08.73-.87-.09-.07,0,0s0,0-.08,0l-.07-.1-.29-.46,1.1-1.39.51.17.11,0s0,.06,0,.08l0,0,.1.07.74-1-.1-.07a.22.22,0,0,1-.07.06M102,88.64a.37.37,0,0,1-.13,0l-2.53-.7c0-.13-.1-1-.11-1.19s0-.39,0-.56a.72.72,0,0,1,.06-.36l-.08-.08-1,1.12.08.08a.41.41,0,0,1,.11-.07.13.13,0,0,1,.14,0s0,.06.05.15,0,.2,0,.34.11,1.72.12,1.84L97.4,88a.12.12,0,0,1-.05-.14l.08-.12-.08-.09-1,1,.08.08.11-.08a.16.16,0,0,1,.14.06l2.61,2.52a.16.16,0,0,1,.06.14.19.19,0,0,1-.07.12l.09.07,1-1-.08-.07a.42.42,0,0,1-.13.07s-.09,0-.15,0L99.45,90l-.12-1,1.59.45.14.06a.14.14,0,0,1,0,.15.62.62,0,0,1-.08.12l.09.08,1-1.15-.08-.08a.16.16,0,0,1-.09,0m4-9.2-.37.62-1-.58.4-.67c.11-.17.21-.27.34-.29a.63.63,0,0,1,.43.12.54.54,0,0,1,.3.34.64.64,0,0,1-.12.46m1.47,1.66s-.08,0-.14,0l-1-.61.43-.74a2.55,2.55,0,0,0,.24-.5,1.23,1.23,0,0,0,.06-.5,1.11,1.11,0,0,0-.21-.49,1.81,1.81,0,0,0-1.17-.7,1.12,1.12,0,0,0-.52.06,1.14,1.14,0,0,0-.41.29,2.41,2.41,0,0,0-.33.44l-1,1.72.1.06.06,0a.17.17,0,0,1,.15,0L106.77,82c.06,0,.09.07.09.11v.08l.1.06.68-1.13-.1-.06a.39.39,0,0,1-.1.08m-11.19,13a.12.12,0,0,1-.13-.06l-2.25-2.84a.15.15,0,0,1,0-.15.6.6,0,0,1,.11-.14l-.06-.09-1.2.93.07.09.17-.09a.14.14,0,0,1,.13.07l2.25,2.84a.13.13,0,0,1,0,.14.47.47,0,0,1-.12.14l.07.09,1.19-.92L96.41,94a.59.59,0,0,1-.16.08m-29.1,14.26a50.63,50.63,0,1,1,50.62-50.63,50.68,50.68,0,0,1-50.62,50.63m0-103.07a52.44,52.44,0,1,0,52.44,52.44A52.51,52.51,0,0,0,67.15,5.27M89.7,96.9l-.32-1.76,1.4,1.11Zm3.09-.29a.16.16,0,0,1-.09,0l-2.89-2.31a2.18,2.18,0,0,1-.21-.18.09.09,0,0,1,0-.13l-.06-.1-1.37.81.06.1c.06,0,.1,0,.13,0a1.7,1.7,0,0,1,.1.42c0,.24.6,3,.7,3.45a.12.12,0,0,1,0,.1s0,0-.06.07l0,.09,1-.55-.06-.09-.06,0s0,0-.07,0l0-.13s-.09-.47-.1-.53l1.53-.9.42.34a.73.73,0,0,1,.09.09s0,.07,0,.08l0,0,0,.09L93,96.68l-.06-.1a.17.17,0,0,1-.1,0M112,70.15s-.08,0-.15,0l-3.45-1.11c-.06,0-.1-.06-.1-.1a.38.38,0,0,1,0-.15l-.1,0-.37,1.29.1,0a.49.49,0,0,1,.08-.13.17.17,0,0,1,.16,0l1.78.58-2,.68-.22.06c-.07,0-.1-.05-.11-.09a.48.48,0,0,1,0-.12l-.12,0-.6,1.71.11,0a.74.74,0,0,1,.08-.13.13.13,0,0,1,.15,0l3.45,1.11c.07,0,.1.05.11.09V74l.1,0,.44-1.23-.11,0a.36.36,0,0,1-.08.12.13.13,0,0,1-.14,0l-2.38-.77v0c.37-.1,1.69-.57,2-.66l.69-.24a.85.85,0,0,1,.36-.06.11.11,0,0,1,.07.11.52.52,0,0,1,0,.14l.1,0,.4-1.36-.11,0a.26.26,0,0,1-.08.13M44,93.4a.16.16,0,0,1-.1,0l-2.81-2-.07.1a.35.35,0,0,1,.1.11.13.13,0,0,1,0,.15l-2.11,3c0,.06-.08.08-.13.07a.34.34,0,0,1-.14,0l-.07.09,2.77,2a.3.3,0,0,1,.1.09.33.33,0,0,1,0,.17l.06,0,.73-1-.07,0c-.12.11-.22.14-.3.08l-1.76-1.27.54-.76,1.17.83a.19.19,0,0,1,0,.09.23.23,0,0,1-.06.17l.07,0,.72-1-.07-.05a.29.29,0,0,1-.14.12.16.16,0,0,1-.1,0l-1.17-.84.45-.62,1.82,1.29a.26.26,0,0,1,0,.09.28.28,0,0,1-.08.18l.08.06.74-1-.07,0c0,.07-.1.11-.14.11m65-17.18a.93.93,0,0,1-.23.35,1.13,1.13,0,0,1-.35.21,1,1,0,0,1-.41.06,1.24,1.24,0,0,1-.48-.11,1.34,1.34,0,0,1-.4-.27,1,1,0,0,1-.24-.34,1.07,1.07,0,0,1,0-.81,1.07,1.07,0,0,1,.25-.34.85.85,0,0,1,.34-.21,1.16,1.16,0,0,1,.42-.07,1.48,1.48,0,0,1,.47.12,1.17,1.17,0,0,1,.4.27.88.88,0,0,1,.24.34.92.92,0,0,1,.08.4,1,1,0,0,1-.09.4m.59-1.76a2.51,2.51,0,0,0-.83-.56,2.38,2.38,0,0,0-1-.22,1.91,1.91,0,0,0-.8.17,2.12,2.12,0,0,0-.62.44,2.43,2.43,0,0,0-.4.62,2.31,2.31,0,0,0-.17.71,1.66,1.66,0,0,0,.09.76,1.8,1.8,0,0,0,.43.7,2.33,2.33,0,0,0,.82.56,2.29,2.29,0,0,0,1,.22,2.08,2.08,0,0,0,.8-.17,1.92,1.92,0,0,0,.6-.46,2.34,2.34,0,0,0,.39-.61,2.4,2.4,0,0,0,.19-.71,1.93,1.93,0,0,0-.08-.75,2,2,0,0,0-.42-.7M112,67.07a1.07,1.07,0,0,1-.45.67,1.22,1.22,0,0,1-.39.15,1.65,1.65,0,0,1-.49,0,1.21,1.21,0,0,1-.45-.17,1.08,1.08,0,0,1-.31-.29,1.06,1.06,0,0,1-.16-.38.94.94,0,0,1,0-.41,1,1,0,0,1,.16-.38.86.86,0,0,1,.29-.28.92.92,0,0,1,.4-.15,1.12,1.12,0,0,1,.48,0,1.26,1.26,0,0,1,.46.17,1.22,1.22,0,0,1,.3.3,1,1,0,0,1,.16.78m.2-1.85a2.34,2.34,0,0,0-.92-.37,2.25,2.25,0,0,0-1,0,1.83,1.83,0,0,0-.75.33,2,2,0,0,0-.51.57,2.18,2.18,0,0,0-.28,1.42,1.89,1.89,0,0,0,.25.71,2,2,0,0,0,.56.6,2.63,2.63,0,0,0,1.92.39,1.87,1.87,0,0,0,.74-.34,1.81,1.81,0,0,0,.5-.57,2.51,2.51,0,0,0,.26-.69,2.46,2.46,0,0,0,0-.72,1.65,1.65,0,0,0-.23-.72,1.87,1.87,0,0,0-.56-.6M66.31,100.35a.28.28,0,0,1,.12,0s.07.06.06.13,0,.06-.08.13-.13.16-.22.26l-1.28,1.32,0-1.75a.14.14,0,0,1,.07-.14.8.8,0,0,1,.15,0v-.12l-1.42-.08v.11a.25.25,0,0,1,.13,0,.18.18,0,0,1,.06.15L63.82,104c0,.07,0,.12-.07.14a.19.19,0,0,1-.13,0v.11l1.43.08v-.12a.32.32,0,0,1-.14,0,.14.14,0,0,1-.07-.14l0-.78.69-.78.73,1.48a.43.43,0,0,1,0,.14.13.13,0,0,1-.08.13l-.14,0v.11l1.55,0v-.11l-.1,0a.52.52,0,0,1-.07-.11l-1.18-2.36c.1-.09.66-.72.81-.88a4.8,4.8,0,0,1,.4-.39.61.61,0,0,1,.3-.2v-.11H66.31Zm-7.14,1.31a1.29,1.29,0,0,1-.18.45.83.83,0,0,1-.29.3,1,1,0,0,1-.37.16,1,1,0,0,1-.42,0,1.06,1.06,0,0,1-.38-.16,1.28,1.28,0,0,1-.28-.29,1.1,1.1,0,0,1-.12-.89,1.21,1.21,0,0,1,.17-.45.93.93,0,0,1,.29-.3,1.14,1.14,0,0,1,.38-.16,1,1,0,0,1,.41,0,1.18,1.18,0,0,1,.38.16.89.89,0,0,1,.28.3,1,1,0,0,1,.15.39,1.37,1.37,0,0,1,0,.49m.66-1.55a2.13,2.13,0,0,0-.56-.52,2.51,2.51,0,0,0-.69-.26,2.44,2.44,0,0,0-.72,0,2.11,2.11,0,0,0-.73.25,1.87,1.87,0,0,0-.6.56,2.41,2.41,0,0,0-.38.92,2.61,2.61,0,0,0,0,1,2,2,0,0,0,.34.74,1.9,1.9,0,0,0,.56.5,2.27,2.27,0,0,0,.68.26,2.61,2.61,0,0,0,.74,0,1.65,1.65,0,0,0,.71-.23,2,2,0,0,0,.61-.55,2.34,2.34,0,0,0,.37-.92,2.58,2.58,0,0,0,0-1,2,2,0,0,0-.34-.76M97.28,25.79l-1.39-1.25,2.12-1Zm.23-3.42-4.33,2.16a.16.16,0,0,1-.12,0l-.13-.07-.1.11,1.33,1.09.1-.11-.06-.07s0-.07,0-.11a.42.42,0,0,1,.13-.08c.07,0,.62-.3.66-.33l2,1.73c0,.06-.22.67-.25.74a.35.35,0,0,1-.07.14.11.11,0,0,1-.11,0l-.08-.05-.09.11L97.71,29l.1-.11a.44.44,0,0,1-.08-.11.2.2,0,0,1,0-.13c.09-.22,1.57-4.69,1.64-4.89a2.72,2.72,0,0,1,.13-.32c.05-.06.11-.06.19,0l.1-.11L98.05,21.8l-.09.12c.06.07.07.13,0,.19a2.34,2.34,0,0,1-.47.26M48,98.61l.56-1.11-.08,0a.45.45,0,0,1-.12.14.16.16,0,0,1-.1,0L47,97l.35-.69,2,1a.1.1,0,0,1,.06.08s0,.1,0,.18l.08,0L50,96.43l-.08,0c0,.08-.08.12-.12.13a.11.11,0,0,1-.1,0L46.59,95l-.05.1a.27.27,0,0,1,.11.1s0,.09,0,.15L45,98.54a.14.14,0,0,1-.12.09l-.14,0-.06.11,3,1.53.11.08a.26.26,0,0,1,0,.18l.07,0,.56-1.12-.08,0c-.09.13-.19.17-.28.12l-1.94-1,.43-.84,1.28.65a.1.1,0,0,1,.06.08.21.21,0,0,1,0,.18Zm40.3.61s-.08,0-.11-.1l-1.51-3.29c0-.07,0-.11,0-.15a.42.42,0,0,1,.12-.1l-.05-.1-1.2.59,0,.11.15,0s.08,0,.11.1L86.64,98l-1.85-1a.81.81,0,0,1-.2-.13.12.12,0,0,1,0-.14.27.27,0,0,1,.08-.07l0-.11L83,97.22l0,.1.15,0s.08,0,.11.09l1.51,3.3c0,.06,0,.11,0,.14s-.06.06-.1.09l0,.1,1.2-.5,0-.11-.14,0a.15.15,0,0,1-.11-.1l-1-2.27v0c.32.2,1.56.86,1.81,1l.64.35c.16.1.26.17.28.22a.09.09,0,0,1,0,.13l-.12.07,0,.11,1.26-.63,0-.1-.16,0m-9.94,2.28.17-1.77,1.06,1.44Zm3.07.56a.09.09,0,0,1-.08,0l-2.17-3L79,98.78c0-.06,0-.1.07-.12l0-.11L77.52,99l0,.11c.07,0,.11,0,.12.07a1.91,1.91,0,0,1,0,.41c0,.24-.24,3.06-.27,3.52a.1.1,0,0,1,0,.09.14.14,0,0,1-.08,0l0,.11,1.1-.26,0-.11h-.06s0,0-.06-.07v-.12c0-.06,0-.5,0-.55l1.71-.47s.29.41.32.45l.06.11a.08.08,0,0,1,0,.09l-.06,0,0,.11,1.2-.36,0-.12h-.09m2-.69c-.05,0-.08,0-.11-.1l-1.22-3.41c0-.07,0-.12,0-.15a.57.57,0,0,1,.16-.09l0-.11-1.43.5,0,.11a.41.41,0,0,1,.18,0s.08,0,.11.1l1.22,3.41c0,.07,0,.12,0,.15a.74.74,0,0,1-.16.1l0,.11,1.42-.51,0-.12a.33.33,0,0,1-.18,0M78.86,98l-.18-.59-1.43.43.17.59Zm-9.26,4.88.52-1.71.75,1.62ZM72.5,104a.13.13,0,0,1-.06-.07l-1.54-3.38c-.06-.15-.1-.23-.1-.25a.09.09,0,0,1,.09-.1v-.12l-1.59.11v.12c.07,0,.11,0,.11.09a2.8,2.8,0,0,1-.1.4c-.06.24-.83,3-1,3.4a.12.12,0,0,1-.06.08.16.16,0,0,1-.09,0v.11l1.13,0v-.12h-.06a.07.07,0,0,1,0-.07.37.37,0,0,1,0-.13s.14-.47.15-.53l1.77-.12s.21.46.22.51a.24.24,0,0,1,0,.11s0,.07,0,.09h-.06v.11l1.25-.12V104l-.1,0m3.42-3.68a.75.75,0,0,0-.49-.08.83.83,0,0,1,.14-.52,1.28,1.28,0,0,1,.33-.36l-.05-.27a2.48,2.48,0,0,0-.37.29,1.85,1.85,0,0,0-.3.39,1.62,1.62,0,0,0-.17.48,1.37,1.37,0,0,0,0,.57,1.26,1.26,0,0,0,.26.56.47.47,0,0,0,.49.17.57.57,0,0,0,.36-.25.64.64,0,0,0,.08-.5.67.67,0,0,0-.28-.48m37.27-53.15a.79.79,0,0,1,0,.26c0,.07-.06.11-.15.13l-4.63,1a.17.17,0,0,1-.19-.05,1.28,1.28,0,0,1-.1-.25l-.14,0,.45,2.18.14,0a1.3,1.3,0,0,1,0-.27.19.19,0,0,1,.16-.13l4.62-1a.15.15,0,0,1,.18.06.77.77,0,0,1,.11.24l.14,0-.44-2.17ZM69.75,67.07c.07.18.4.94.49,1.17l-1,.06c.08-.22.39-1,.47-1.23M69.05,69l1.43-.09c0,.09.28.71.39,1l.68-.52c-.24-.43-1.29-2.73-1.76-3.65h0c-.29.59-1.55,3.45-1.73,3.85l.65.47c.1-.24.34-.91.38-1M51,60.82c0,.44-.13,1.9-.15,2.16-.26-.41-1.5-2.48-1.78-2.92h0c0,.64.16,3.22.17,3.63l.76.67c0-.43-.18-2.2-.18-2.34.14.24,1.21,1.94,1.62,2.58h0c.06-.57.12-1.63.12-1.84h0c.16.31,1.21,2.48,1.36,2.78l.49-.1c-.15-.28-2.07-4-2.38-4.6Zm3.82,3.08.72,1.3-.88-.36c0-.19.13-.8.16-.94m-.37-1.34c-.21.72-.66,2.64-.77,3l.74.7c0-.2.15-.82.17-.88l1.31.53c.06.12.44.83.58,1.08l.48-.24c-.26-.42-2.07-3.5-2.48-4.15Zm.69-.79L53.36,61l.17.75,1.78.74Zm21,3.24c0,.15.18.8.22,1l-.89.4c.12-.25.54-1.15.67-1.4m-1,2.14,1.31-.6c0,.06.19.71.25.92l.71-.76c-.13-.35-.72-2.37-1-3.13h0c-.38.7-2.06,4-2.31,4.48l.51.24.54-1.16m-1.4.79-.92.39L73,67.06c.11-.7.29-1.84.32-2l-.73.29c0,.11-.2,1.49-.21,1.58l-.11.75c0,.14-.19,1.34-.25,1.65.23-.1,1.53-.57,1.61-.6Zm11-6.41c0,.16,0,.86,0,1.08L83.8,63l.88-1.5m-1.32,2.28,1.33-.61c0,.07,0,.77,0,1l.81-.81c-.06-.38-.22-2.58-.33-3.4h0c-.49.75-2.66,4.28-3,4.77l.42.27c.18-.29.63-1.1.71-1.24M65.55,88.75a.48.48,0,0,0-.21-.07.62.62,0,0,0-.18,0,.65.65,0,0,0-.19,0,.48.48,0,0,0-.21.07.4.4,0,0,0-.16.12.31.31,0,0,0-.07.21.28.28,0,0,0,.07.21.34.34,0,0,0,.16.13,1,1,0,0,0,.21.07h.37a1,1,0,0,0,.21-.07.43.43,0,0,0,.17-.13.33.33,0,0,0,.06-.21.37.37,0,0,0-.06-.21.52.52,0,0,0-.17-.12M79.41,64.19h0c0,.21.15,1.23.25,1.79h0c.39-.62,1.36-2.3,1.5-2.52,0,.13,0,1.85,0,2.27l.73-.66c0-.39,0-2.91-.08-3.54h0C81.52,62,80.4,64,80.15,64.4c0-.25-.24-1.74-.3-2.16h0c-.28.56-2,4.29-2.14,4.57l.51.09,1.21-2.72M108.2,36.85l-1.48,1.83L105.86,37Zm-5-.83a.35.35,0,0,1-.08-.1L103,36l.86,1.5.13-.08a.22.22,0,0,1,0-.08s0-.07.06-.09a.4.4,0,0,1,.16,0c.07,0,.68,0,.74-.07l1.2,2.31-.5.61-.11.1c-.06,0-.09,0-.12,0l0-.08-.13.07.77,1.75.14-.07a.2.2,0,0,1,0-.13.16.16,0,0,1,0-.12c.15-.17,3.13-3.83,3.26-4a2.57,2.57,0,0,1,.24-.26c.07,0,.13,0,.18.07l.13-.07-1.06-2.06-.13.06a.14.14,0,0,1,0,.19,3.69,3.69,0,0,1-.54.08l-4.81.48a.24.24,0,0,1-.13,0m-45,30.86-.24-1.32c-.14-.7-.33-1.82-.34-1.94l-.83-.35c0,.11.3,1.49.31,1.58l.14.74c0,.13.26,1.39.29,1.68.27.11,1.51.71,1.6.75l-.16-.81c-.39-.15-.65-.28-.77-.33M69.45,89.12a.7.7,0,0,0-.22-.2.67.67,0,0,0-.33-.07.66.66,0,0,0-.32.07.61.61,0,0,0-.22.2.8.8,0,0,0-.13.28,1.65,1.65,0,0,0,0,.31,1.75,1.75,0,0,0,0,.32,1,1,0,0,0,.13.28.59.59,0,0,0,.22.19.66.66,0,0,0,.32.07.63.63,0,0,0,.55-.26.77.77,0,0,0,.12-.28,1.19,1.19,0,0,0,.05-.32,1.12,1.12,0,0,0-.05-.31.65.65,0,0,0-.12-.28m37.3-46.24a.14.14,0,0,1-.19,0,.61.61,0,0,1-.14-.23l-.14.05.75,2.1.14-.05a1.14,1.14,0,0,1,0-.26c0-.07,0-.12.14-.15l4.43-1.61a.16.16,0,0,1,.19,0A.7.7,0,0,1,112,43l.14-.05-.75-2.09-.14,0a1.21,1.21,0,0,1,0,.27.18.18,0,0,1-.13.15ZM72.67,91l.09,0v.07H71.49v-.07a.19.19,0,0,0,.11,0,.39.39,0,0,0,.08-.1L73,88.79H71.1l-.07,0a.16.16,0,0,0,0,.11h-.07V88H71a.17.17,0,0,0,0,.12l.07,0h2.57l.07,0a.14.14,0,0,0,0-.11h.06v.73l-1.1,2a.57.57,0,0,1-.08.13.37.37,0,0,0,0,.11.08.08,0,0,0,0,.07M97.24,36.26H92.77a45.27,45.27,0,0,1,5.28,21h6v.85h-6a45.16,45.16,0,0,1-5.24,21h4.41l-.63.85H92.35a34.55,34.55,0,0,1-10.5,11.59l-.33.13c-.38.18-1.93.77-1.93.77-1,.36-2.58.8-2.58.8A31.69,31.69,0,0,0,91.36,80H80.68A46.49,46.49,0,0,1,79,84.84c-1.84,4.35-4,7.55-6.48,9.44,0,0-.43.07-.69.09l-1.18.13c3.75-2,7-7.26,9.19-14.46H70l1.93-.85h8.13c.37-1.3.71-2.65,1-4.06l1-.42c-.33,1.55-.71,3-1.12,4.48H91.84a44.17,44.17,0,0,0,5.35-21H90.43l.32-.85h6.44a44.17,44.17,0,0,0-5.4-21H80.91c.49,1.72.93,3.51,1.3,5.38L82,41.7c-.23.07-.64.24-.64.24-.39-2-.84-3.89-1.36-5.68H78.41a5.1,5.1,0,0,0-.22-.85h1.59c-2.26-7.32-5.58-12.62-9.42-14.51l1.31.13.66.1C74.82,23,77.08,26.24,79,30.69a45,45,0,0,1,1.69,4.72H91.33a31.46,31.46,0,0,0-15-13.49s2.09.57,3.27,1c0,0,1.2.45,1.38.53s.45.19.45.19A34.24,34.24,0,0,1,92.31,35.41H96.6ZM70.34,90.33a1.39,1.39,0,0,1-.34.48,1.6,1.6,0,0,1-.49.32,1.72,1.72,0,0,1-1.21,0,1.77,1.77,0,0,1-.5-.32,1.37,1.37,0,0,1-.33-.48,1.52,1.52,0,0,1,0-1.23,1.37,1.37,0,0,1,.33-.48,1.81,1.81,0,0,1,.5-.33,1.59,1.59,0,0,1,1.21,0,1.63,1.63,0,0,1,.49.33,1.39,1.39,0,0,1,.34.48,1.64,1.64,0,0,1,0,1.23m-4.08-5.76L65.78,79h0l-.51-5.81a.1.1,0,0,0-.1-.1.1.1,0,0,0-.09.1l-.31,5.36L51,72.48,42.35,49.59l21.63,9-.6-6.79a9,9,0,0,0,3.05.74L67,63.76a.16.16,0,0,0,.17.14.15.15,0,0,0,.16-.14L68,52.51A9.23,9.23,0,0,0,71,51.76l-.6,6.8,21.63-9c-.66,1.72-8.55,22.57-8.67,22.89L69.66,78.56l-.31-5.36a.11.11,0,0,0-.1-.1.1.1,0,0,0-.09.1L68.64,79h0l-.49,5.56a.95.95,0,0,1-1.89,0m.34,5.67a1.28,1.28,0,0,1-.39.5,1.62,1.62,0,0,1-.55.3,2.18,2.18,0,0,1-.67.1l-.41,0-.32-.06L64,91l-.1,0a.17.17,0,0,0-.13.07l-.07,0,.45-.77.06,0v0a.16.16,0,0,0,.07.13.48.48,0,0,0,.16.09l.24,0,.27,0a1.34,1.34,0,0,0,.35,0,1,1,0,0,0,.31-.15.88.88,0,0,0,.22-.25,1,1,0,0,0,.11-.36,2.62,2.62,0,0,1-.55.22,1.51,1.51,0,0,1-.53.08,1.16,1.16,0,0,1-.42-.07.91.91,0,0,1-.36-.2.87.87,0,0,1-.24-.32.82.82,0,0,1-.1-.42.83.83,0,0,1,.13-.46,1.26,1.26,0,0,1,.33-.32,1.3,1.3,0,0,1,.44-.17,2,2,0,0,1,.47-.06,2.16,2.16,0,0,1,.65.1,1.17,1.17,0,0,1,.5.28,1,1,0,0,1,.33.46,1.61,1.61,0,0,1,.11.65,1.48,1.48,0,0,1-.14.68M62.86,91l.09,0v.07H61.81v-.07l.1,0s0,0,0-.08V89.13l-.23.06a.27.27,0,0,0-.13,0,.1.1,0,0,0-.06.05.3.3,0,0,0,0,.1h-.07v-.93h.07a.51.51,0,0,0,0,.09,0,0,0,0,0,0,0l.06,0,.12,0,.12-.05.07,0v-.18s0-.07,0-.08l-.08,0v-.07H63v.07l-.1,0a.08.08,0,0,0,0,.08V91a.08.08,0,0,0,0,.08m.5,3.44L62,94.3c-2.44-1.88-4.66-5.09-6.51-9.46-.63-1.5-1.2-3.11-1.72-4.8H43.07A31.56,31.56,0,0,0,57.65,93.42l-.57-.15c-.75-.18-2.06-.64-2.06-.64-.65-.22-2.21-.85-2.21-.85A34.29,34.29,0,0,1,42.09,80H37.71s-.63-.85-.63-.85h4.55a45.16,45.16,0,0,1-5.24-21H30.21V57.3h6.18a45.15,45.15,0,0,1,5.29-21H37.06l.64-.85h4.43v0a34.08,34.08,0,0,1,11.07-11.9,33.06,33.06,0,0,1,3.43-1.21s1-.29,1.36-.38l.26,0A31.36,31.36,0,0,0,43.12,35.41H53.79a47.35,47.35,0,0,1,1.68-4.72c1.89-4.48,4.18-7.73,6.68-9.59,0,0,1-.13,1.28-.15l.64-.05c-3.83,1.89-7.15,7.19-9.41,14.51h5.09s-.31.53-.48.85H54.4c-.52,1.8-1,3.71-1.36,5.71l-.34-.14a3,3,0,0,0-.47-.15c.36-1.88.8-3.69,1.3-5.42H42.65a44.28,44.28,0,0,0-5.4,21h6.4l.33.85H37.25a44.17,44.17,0,0,0,5.35,21H53.51c-.41-1.44-.79-2.92-1.11-4.46l1,.42c.31,1.4.65,2.75,1,4h8.09L64.4,80H54.64c2.21,7.23,5.47,12.49,9.23,14.48Zm24.47-49-1.89,5L72.07,56.39c8-8,13.27-10.48,15.76-10.94m-7,1.66A60.37,60.37,0,0,0,72.62,54c4.93-8.58,8.63-10.47,9.63-10.74Zm-20.59.48H74.27a7.78,7.78,0,0,1-7.07,4,7.5,7.5,0,0,1-7-4m2.15,8.8L48.48,50.45l-1.9-5c2.5.46,7.73,2.93,15.77,10.94M61.79,54a59.69,59.69,0,0,0-8.16-6.87l-1.46-3.87c1,.27,4.7,2.16,9.62,10.74M75,45.36a.65.65,0,0,1,0,1.29H59.4a.65.65,0,0,1,0-1.29Zm-2.66-9.59a11.49,11.49,0,0,0,.49,1.5,4.72,4.72,0,0,1,.46,1.85,4.32,4.32,0,0,1-.17,1.15c-.5,1.86-2.82,3.88-3.14,4.15H63.59c0-.16,0-.31,0-.46,0-6.1,4.31-8.45,7.52-10.19l1.06-.59c0,.14,0,.29,0,.46a10.36,10.36,0,0,0,.21,2.13m-3.81-6.14s-.28,2.45.74,2.25c1.28-.25,2.13-2.86,6.48-3.9,0,0-1,2.75-.14,4.75.83,2.57,2.17,4.14.83,8-1.34,3-3,3.7-3,3.7H71.79a9.91,9.91,0,0,0,2.53-3.84A5.25,5.25,0,0,0,74,36.82a8,8,0,0,1-.43-1.31,10.45,10.45,0,0,1-.08-3.39l.23-1.41-1.17.82c-.54.37-1.26.76-2,1.17-3.36,1.83-8.37,4.57-8.14,11.72H60.12s-1.69-2.38.15-6.67c2.13-5,8.28-8.11,8.28-8.11m-1.37-10.7A38.79,38.79,0,1,0,106,57.72,38.79,38.79,0,0,0,67.18,18.93M111.6,44.56a1.51,1.51,0,0,0-.7.43.74.74,0,0,0-.14.74.9.9,0,0,0,.38.52,1,1,0,0,0,1.27-.39,1.14,1.14,0,0,0,0-.73,1.1,1.1,0,0,1,.72.16,2.18,2.18,0,0,1,.53.47l.36-.1a5.53,5.53,0,0,0-.46-.52,2,2,0,0,0-.56-.41,2.05,2.05,0,0,0-.66-.22,1.77,1.77,0,0,0-.75.05M60.7,66.09c.12.26.53,1.18.64,1.44l-.87-.43c0-.2.2-.86.23-1m-.27-1.45c-.26.76-.87,2.81-1,3.16l.7.78c.06-.21.21-.86.24-.93l1.3.63c.05.12.38.9.51,1.18l.5-.23c-.23-.47-1.84-3.86-2.21-4.58Zm5.84,1.19c-.17.35-.91,2-1.09,2.29L64.1,65.77h0c-.16.47-1,3.37-1.11,3.6l.62.43c.07-.25.54-2,.6-2.22h0c.08.23.58,1.37.89,2h0c.27-.49.93-1.85,1-2,.06.14.58,2,.72,2.39l.69-.38c-.15-.43-1-3-1.25-3.73ZM99.12,30.06a.31.31,0,0,1-.37-.09l-.11.08,1.49,1.79.12-.09a1.59,1.59,0,0,1-.09-.2.11.11,0,0,1,0-.13.88.88,0,0,1,.27-.12l2.4-.83.33-.13,0,0-.22.29-1.44,2.11-.18.23c-.07,0-.18,0-.33-.17l-.12.09,1.35,1.94.12-.09c-.11-.18-.06-.32,0-.38s4.29-1.65,4.36-1.68l.24-.06c.06,0,.13,0,.21.09l.12-.09-1-1.53-.11.09a.63.63,0,0,1,.1.2.19.19,0,0,1-.09.19s-2.88,1.16-3,1.2l0,0c0-.05,1.62-2.4,1.7-2.53l.17-.21a.19.19,0,0,1,.2,0,.61.61,0,0,1,.17.15l.11-.1-1.37-1.79-.11.09a.37.37,0,0,1,.08.18.16.16,0,0,1-.08.19,1.11,1.11,0,0,1-.27.13c-.15,0-2.77.94-2.85,1v0c0-.06,1.92-2.56,2-2.58a.19.19,0,0,1,.2,0,.44.44,0,0,1,.16.14l.12-.09-1.28-1.46-.12.09a.18.18,0,0,1,0,.1s0,.09-.06.14S99.15,30,99.12,30.06" transform="translate(-14.71 -5.27)"/><path class="cls-4" d="M157.55,28.29c0-2,0-2.41,0-2.83s-.13-.65-.56-.75a3.29,3.29,0,0,0-.45,0,.09.09,0,0,1-.1-.08c0-.08.06-.11.21-.11.59,0,1.39,0,1.5,0s.91,0,1.3,0c.15,0,.21,0,.21.11a.09.09,0,0,1-.1.08l-.33,0c-.36.06-.46.29-.49.75s0,.79,0,2.83v1.84c0,1.88.42,2.7,1,3.24a2.57,2.57,0,0,0,2,.72,2.74,2.74,0,0,0,2.06-1,5.11,5.11,0,0,0,.76-3.21V28.29c0-2,0-2.41,0-2.83s-.13-.65-.56-.75a3.29,3.29,0,0,0-.45,0,.09.09,0,0,1-.1-.08c0-.08.06-.11.21-.11.59,0,1.31,0,1.39,0s.7,0,1.1,0c.14,0,.21,0,.21.11s-.05.08-.11.08l-.32,0c-.36.08-.46.29-.49.75s0,.79,0,2.83V29.7c0,1.41-.15,3-1.2,3.91a3.85,3.85,0,0,1-2.7,1,4,4,0,0,1-2.7-.93,4.32,4.32,0,0,1-1.14-3.44Z" transform="translate(-14.71 -5.27)"/><path class="cls-4" d="M168.56,32.88c0,.92.13,1.19.44,1.27a3.06,3.06,0,0,0,.58.07.09.09,0,0,1,.09.09c0,.06-.08.09-.21.09-.65,0-1.11,0-1.22,0s-.59,0-1.11,0c-.12,0-.18,0-.18-.09a.08.08,0,0,1,.09-.09,2,2,0,0,0,.47-.07c.29-.08.33-.38.33-1.39V26.38c0-.45.06-.57.16-.57s.32.23.44.35,1.86,2,3.64,3.8c1.14,1.18,2.38,2.5,2.73,2.87l-.12-5.59c0-.72-.08-1-.43-1a3.52,3.52,0,0,0-.56-.05c-.08,0-.09-.07-.09-.11s.09-.08.22-.08c.52,0,1.07,0,1.2,0s.52,0,1,0c.12,0,.21,0,.21.08a.14.14,0,0,1-.13.11,1.76,1.76,0,0,0-.28,0c-.38.08-.4.3-.4,1l0,6.53c0,.73,0,.8-.09.8s-.24-.09-.88-.68c-.12-.11-1.79-1.75-3-3s-2.63-2.76-3-3.16Z" transform="translate(-14.71 -5.27)"/><path class="cls-4" d="M180,31.16c0,1.08,0,2,0,2.41s.08.54.42.6c.18,0,.42,0,.53,0a.08.08,0,0,1,.09.09s-.05.09-.18.09c-.65,0-1.39,0-1.44,0s-.79,0-1.14,0c-.12,0-.19,0-.19-.09a.09.09,0,0,1,.09-.09,2.23,2.23,0,0,0,.36,0c.22-.06.26-.27.3-.6s.06-1.33.06-2.41v-2c0-1.73,0-2.05,0-2.4s-.12-.55-.37-.6a1.7,1.7,0,0,0-.35,0,.1.1,0,0,1-.09-.1c0-.06,0-.09.18-.09l1.17,0,1.15,0c.13,0,.18,0,.18.09a.12.12,0,0,1-.09.1,1.68,1.68,0,0,0-.29,0c-.31.07-.38.22-.4.62s0,.67,0,2.4Z" transform="translate(-14.71 -5.27)"/><path class="cls-4" d="M187,33c.66-1.5,2.17-5.3,2.42-6.1a2.19,2.19,0,0,0,.11-.42.23.23,0,0,0-.16-.23,1.33,1.33,0,0,0-.4,0c-.06,0-.13,0-.13-.1s.08-.09.27-.09c.46,0,1,0,1.12,0s.57,0,.91,0c.12,0,.18,0,.18.08a.12.12,0,0,1-.13.11,1.07,1.07,0,0,0-.55.13c-.16.1-.34.26-.64,1-.13.31-.7,1.65-1.29,3-.7,1.63-1.22,2.84-1.48,3.39s-.38.83-.5.83-.21-.14-.43-.68L183.45,27c-.26-.63-.42-.74-.8-.83a2.19,2.19,0,0,0-.45,0c-.06,0-.09-.07-.09-.11s.12-.08.3-.08c.55,0,1.21,0,1.35,0s.63,0,1.08,0c.21,0,.31,0,.31.08a.11.11,0,0,1-.12.11,1.32,1.32,0,0,0-.41.05.19.19,0,0,0-.14.19,4.79,4.79,0,0,0,.32.94Z" transform="translate(-14.71 -5.27)"/><path class="cls-4" d="M193.29,29.2c0-1.73,0-2.05,0-2.4s-.09-.57-.47-.62l-.4,0a.12.12,0,0,1-.09-.1c0-.06.05-.09.19-.09.52,0,1.27,0,1.33,0s2.49,0,2.75,0a3.25,3.25,0,0,0,.53-.07s.1-.05.16-.05,0,.05,0,.11a3.87,3.87,0,0,0-.09.52c0,.1,0,.6-.07.73s0,.12-.1.12-.1-.05-.1-.14a1.29,1.29,0,0,0-.06-.4c-.08-.18-.2-.26-.83-.34-.19,0-1.53,0-1.66,0s-.07,0-.07.12v3c0,.08,0,.12.07.12s1.66,0,1.92,0,.45,0,.57-.16.13-.14.17-.14.06,0,.06.09-.06.25-.09.62c0,.22,0,.64,0,.72s0,.21-.1.21-.08,0-.08-.11a1,1,0,0,0-.05-.36c0-.16-.15-.29-.59-.34s-1.55-.06-1.75-.06a.07.07,0,0,0-.08.08v.93c0,.38,0,1.68,0,1.9,0,.75.24.89,1.38.89a4.08,4.08,0,0,0,1.15-.11.86.86,0,0,0,.53-.78c0-.13,0-.17.11-.17s.08.1.08.17a10.46,10.46,0,0,1-.15,1.08c-.08.29-.2.29-.64.29-.87,0-1.54,0-2,0s-.79,0-1,0-.25,0-.5,0l-.66,0c-.12,0-.19,0-.19-.09a.09.09,0,0,1,.09-.09c.11,0,.25,0,.36,0s.25-.27.3-.6.06-1.33.06-2.41Z" transform="translate(-14.71 -5.27)"/><path class="cls-4" d="M201.07,30.14a.18.18,0,0,0,.08.15,4,4,0,0,0,1.27.17,1.5,1.5,0,0,0,.86-.2,2,2,0,0,0,.7-1.71,1.92,1.92,0,0,0-2-2.18,4.86,4.86,0,0,0-.83.06.15.15,0,0,0-.09.13Zm-1-.94c0-1.73,0-2.05,0-2.4s-.08-.57-.47-.62l-.39,0a.12.12,0,0,1-.09-.1c0-.06,0-.09.18-.09.53,0,1.3,0,1.37,0l1.44,0a3.8,3.8,0,0,1,2.15.49A2,2,0,0,1,205,28a3.24,3.24,0,0,1-1.41,2.54c.95,1.18,1.75,2.19,2.41,2.88a2.15,2.15,0,0,0,1.29.78,2.05,2.05,0,0,0,.4,0,.1.1,0,0,1,.11.09c0,.07-.07.09-.28.09h-.72a2.31,2.31,0,0,1-1.23-.22A5.75,5.75,0,0,1,204,32.54c-.49-.6-1-1.33-1.25-1.63a.16.16,0,0,0-.15-.06l-1.47,0c-.05,0-.08,0-.08.09v.27c0,1.07,0,1.94.05,2.39s.11.54.46.6l.51,0c.08,0,.09.05.09.09s-.05.09-.18.09c-.63,0-1.36,0-1.42,0s-.78,0-1.14,0c-.11,0-.18,0-.18-.09a.09.09,0,0,1,.09-.09,2.23,2.23,0,0,0,.36,0c.22-.06.25-.27.3-.6s.06-1.33.06-2.41Z" transform="translate(-14.71 -5.27)"/><path class="cls-4" d="M208.24,34.24c-.16-.08-.17-.11-.17-.42,0-.55.05-1,.06-1.17s0-.19.09-.19.11,0,.11.13a1.49,1.49,0,0,0,1.86,1.51c1.14,0,1.73-.64,1.73-1.48s-.43-1.18-1.45-1.94l-.53-.4c-1.25-.93-1.65-1.61-1.65-2.38,0-1.31,1-2.1,2.56-2.1a6.07,6.07,0,0,1,1.19.13,1.28,1.28,0,0,0,.4.06c.1,0,.12,0,.12.07s-.05.42-.05,1.18c0,.17,0,.25-.09.25s-.09,0-.11-.14a1.84,1.84,0,0,0-.17-.55c-.08-.13-.45-.55-1.49-.55-.84,0-1.54.42-1.54,1.2s.36,1.12,1.5,1.89l.33.22c1.4,1,1.88,1.73,1.88,2.69a2.15,2.15,0,0,1-1.07,1.9,3.49,3.49,0,0,1-1.84.39,4.09,4.09,0,0,1-1.67-.3" transform="translate(-14.71 -5.27)"/><path class="cls-4" d="M216.51,31.16c0,1.08,0,2,.05,2.41s.08.54.42.6c.17,0,.42,0,.53,0a.09.09,0,0,1,.09.09s-.06.09-.19.09c-.64,0-1.39,0-1.44,0s-.79,0-1.14,0q-.18,0-.18-.09a.08.08,0,0,1,.09-.09,2,2,0,0,0,.35,0c.23-.06.26-.27.3-.6a23.83,23.83,0,0,0,.07-2.41v-2c0-1.73,0-2.05,0-2.4s-.11-.55-.36-.6a1.78,1.78,0,0,0-.36,0,.11.11,0,0,1-.09-.1c0-.06,0-.09.18-.09L216,26l1.16,0q.18,0,.18.09a.13.13,0,0,1-.09.1,1.68,1.68,0,0,0-.29,0c-.31.07-.38.22-.41.62s0,.67,0,2.4Z" transform="translate(-14.71 -5.27)"/><path class="cls-4" d="M223.17,31.16c0,1.08,0,2,.05,2.41s.09.54.45.6l.52,0c.08,0,.09.05.09.09s-.05.09-.18.09c-.63,0-1.36,0-1.43,0s-.85,0-1.19,0c-.13,0-.19,0-.19-.09s0-.08.1-.08a2.15,2.15,0,0,0,.34,0c.23-.06.3-.28.34-.61s.05-1.33.05-2.41V26.48l-1.67,0c-.71,0-1,.09-1.16.35a3.49,3.49,0,0,0-.19.36c0,.09-.06.1-.11.1a.08.08,0,0,1-.08-.09c0-.12.24-1.11.25-1.21s.08-.21.12-.21a3,3,0,0,0,.51.14,9,9,0,0,0,.9.05H225a7.14,7.14,0,0,0,.83-.05c.17,0,.27-.06.33-.06s.05.07.05.13c0,.34,0,1.15,0,1.28s-.05.14-.11.14-.07,0-.09-.2v-.12c0-.34-.29-.58-1.39-.61l-1.44,0Z" transform="translate(-14.71 -5.27)"/><path class="cls-4" d="M230.93,31.5a2,2,0,0,0-.25-1.14c-.09-.17-1.65-2.65-2.05-3.23a2.94,2.94,0,0,0-.76-.82,1.21,1.21,0,0,0-.48-.16.11.11,0,0,1-.12-.1c0-.05,0-.08.14-.08l1.15,0c.07,0,.55,0,1,0,.13,0,.16,0,.16.08s-.08.08-.19.12-.14.09-.14.18a.87.87,0,0,0,.16.43l2.1,3.48c.23-.47,1.68-2.86,1.88-3.23a1.14,1.14,0,0,0,.2-.57c0-.16-.05-.25-.18-.29s-.17-.08-.17-.13.06-.07.18-.07c.3,0,.71,0,.8,0l1.13,0c.07,0,.14,0,.14.07a.13.13,0,0,1-.14.11,1.11,1.11,0,0,0-.54.15,2.06,2.06,0,0,0-.58.55c-.38.45-2,3.07-2.24,3.54A2.29,2.29,0,0,0,232,31.5v1c0,.18,0,.65,0,1.11s.1.54.44.59a3.9,3.9,0,0,0,.53.06.09.09,0,0,1,.09.09s-.07.09-.19.09c-.64,0-1.39,0-1.45,0s-.79,0-1.13,0c-.13,0-.18,0-.18-.09a.08.08,0,0,1,.09-.09,1.35,1.35,0,0,0,.34-.06c.24,0,.32-.26.34-.59s0-.93,0-1.11Z" transform="translate(-14.71 -5.27)"/><path class="cls-4" d="M241,32.28c0,1.11.48,2,1.69,1.95,1.75,0,2.46-2.51,2.46-3.9,0-1-.52-2-1.65-2-1.82,0-2.5,2.46-2.5,3.91m-1.05-.21c0-2.42,1.6-4.09,3.47-4.09a2.52,2.52,0,0,1,2.78,2.7,3.77,3.77,0,0,1-3.66,4,2.42,2.42,0,0,1-2.59-2.56" transform="translate(-14.71 -5.27)"/><path class="cls-4" d="M251.56,28.41l-.08.46h-1.66L249.24,32a10.24,10.24,0,0,1-.8,2.63,8.9,8.9,0,0,1-1.51,2.42c-.34-.2-.32-.25-.15-.48a5.7,5.7,0,0,0,1.29-3l.82-4.71h-1.32l.09-.46H249c.44-2.62,1.74-4.22,2.61-4.22.24,0,.46.2.45.58s-.26.77-.42.77-.07-.42-.53-.42c-.78,0-.87,1.44-1.18,3.29Z" transform="translate(-14.71 -5.27)"/><path class="cls-4" d="M266.45,30.6c0,1.26,0,2.29.07,2.84,0,.38.12.67.51.72a4.9,4.9,0,0,0,.59.06c.08,0,.1,0,.1.08s-.06.1-.2.1c-.73,0-1.55,0-1.62,0s-.89,0-1.28,0c-.15,0-.21,0-.21-.1s0-.08.1-.08a1.84,1.84,0,0,0,.4-.06c.26,0,.32-.34.37-.72.07-.55.07-1.58.07-2.84V29.22a.08.08,0,0,0-.08-.08h-5.56a.08.08,0,0,0-.08.08V30.6c0,1.26,0,2.29.07,2.84,0,.38.12.67.51.72a5.11,5.11,0,0,0,.59.06c.08,0,.11,0,.11.08s-.07.1-.21.1c-.72,0-1.55,0-1.62,0s-.89,0-1.28,0c-.14,0-.21,0-.21-.1s0-.08.11-.08a1.85,1.85,0,0,0,.39-.06c.26,0,.33-.34.38-.72.07-.55.07-1.58.07-2.84V28.29c0-2,0-2.41,0-2.83s-.13-.66-.57-.75a3.13,3.13,0,0,0-.44,0c-.05,0-.11,0-.11-.07s.07-.11.21-.11c.59,0,1.42,0,1.48,0s.9,0,1.29,0c.14,0,.21,0,.21.11s-.05.07-.11.07a2.74,2.74,0,0,0-.32,0c-.36.07-.46.29-.49.75s0,.79,0,2.83v.28a.08.08,0,0,0,.08.08h5.56a.07.07,0,0,0,.08-.08v-.28c0-2,0-2.41,0-2.83s-.13-.66-.56-.75a3.13,3.13,0,0,0-.44,0c-.06,0-.11,0-.11-.07s.06-.11.21-.11c.59,0,1.42,0,1.48,0s.89,0,1.28,0c.15,0,.21,0,.21.11s-.05.07-.1.07a3.14,3.14,0,0,0-.33,0c-.35.07-.45.29-.48.75s0,.79,0,2.83Z" transform="translate(-14.71 -5.27)"/><path class="cls-4" d="M274,30.83c.06,0,.06,0,0-.07L272.9,27.7c-.06-.17-.13-.17-.2,0l-1.07,3.06s0,.07,0,.07Zm-1.28-4.64c.14-.36.19-.43.27-.43s.16.16.28.41c.21.47,2.06,5.07,2.77,6.76.41,1,.73,1.14,1,1.22a1.72,1.72,0,0,0,.46.07c.06,0,.14,0,.14.09s-.13.09-.26.09-1,0-1.82,0c-.23,0-.41,0-.41-.07s0-.06.08-.08a.21.21,0,0,0,.1-.3l-1-2.56c0-.05,0-.07-.11-.07h-2.66c-.05,0-.09,0-.12.1l-.65,1.78a2.15,2.15,0,0,0-.17.75c0,.22.19.3.39.3h.11c.09,0,.12,0,.12.09s-.07.09-.18.09c-.27,0-.9,0-1,0s-.7,0-1.17,0c-.14,0-.22,0-.22-.09a.1.1,0,0,1,.1-.09l.34,0c.53-.06.75-.46,1-1Z" transform="translate(-14.71 -5.27)"/><path class="cls-4" d="M286.1,32.75h0c.29-.92,1.33-4.14,1.73-5.57a2.25,2.25,0,0,0,.13-.7c0-.19-.09-.33-.61-.33a.1.1,0,0,1-.1-.1c0-.05.05-.08.19-.08.59,0,1.08,0,1.18,0s.58,0,.93,0c.11,0,.16,0,.16.07a.1.1,0,0,1-.1.11,2,2,0,0,0-.4.06c-.34.12-.53.56-.75,1.18-.51,1.41-1.65,5-2.1,6.2-.31.82-.37.95-.5.95s-.23-.14-.39-.57l-2.25-6.1c-.39,1-1.95,5.05-2.37,6.08-.2.48-.28.59-.41.59s-.21-.11-.45-.87l-2-6.61c-.18-.59-.3-.73-.6-.84a2.41,2.41,0,0,0-.53-.07.09.09,0,0,1-.1-.1c0-.05.08-.08.18-.08.6,0,1.25,0,1.36,0s.64,0,1.21,0c.16,0,.21,0,.21.08s-.06.1-.12.1a.89.89,0,0,0-.4.07.23.23,0,0,0-.16.24,6.61,6.61,0,0,0,.22,1c.19.71,1.37,4.8,1.51,5.26h0l2.41-6.23c.17-.44.25-.51.31-.51s.17.14.32.53Z" transform="translate(-14.71 -5.27)"/><path class="cls-4" d="M294.23,30.83s0,0,0-.07l-1.14-3.06c-.07-.17-.14-.17-.2,0l-1.07,3.06s0,.07,0,.07ZM293,26.19c.14-.36.19-.43.27-.43s.16.16.28.41c.21.47,2.05,5.07,2.76,6.76.42,1,.74,1.14,1,1.22a1.77,1.77,0,0,0,.46.07c.07,0,.15,0,.15.09s-.13.09-.26.09-1,0-1.83,0c-.22,0-.4,0-.4-.07s0-.06.08-.08a.21.21,0,0,0,.1-.3l-1-2.56c0-.05-.05-.07-.11-.07h-2.66c-.05,0-.09,0-.12.1L291,33.17a2.35,2.35,0,0,0-.16.75c0,.22.19.3.39.3h.1c.09,0,.12,0,.12.09s-.07.09-.17.09c-.28,0-.9,0-1,0s-.69,0-1.16,0c-.15,0-.22,0-.22-.09a.1.1,0,0,1,.1-.09l.34,0c.52-.06.75-.46,1-1Z" transform="translate(-14.71 -5.27)"/><path class="cls-4" d="M300.8,31.16c0,1.08,0,2,.05,2.41s.08.54.42.6l.52,0a.09.09,0,0,1,.1.09s-.06.09-.19.09c-.64,0-1.39,0-1.44,0s-.79,0-1.14,0q-.18,0-.18-.09a.08.08,0,0,1,.09-.09,2.11,2.11,0,0,0,.35,0c.22-.06.26-.27.3-.6a23.83,23.83,0,0,0,.07-2.41v-2c0-1.73,0-2.05,0-2.4s-.12-.55-.36-.6a1.78,1.78,0,0,0-.36,0,.11.11,0,0,1-.09-.1c0-.06,0-.09.18-.09l1.17,0,1.15,0c.13,0,.19,0,.19.09a.13.13,0,0,1-.1.1,1.63,1.63,0,0,0-.28,0c-.32.07-.38.22-.41.62s0,.67,0,2.4Z" transform="translate(-14.71 -5.27)"/><path class="cls-4" d="M304.9,26.57c.11.12.12.16.12.23s-.07.08-.12.08a3.91,3.91,0,0,1-.92-.24.32.32,0,0,1-.22-.34,4.71,4.71,0,0,1,1.13-2.58.19.19,0,0,1,.17-.11.07.07,0,0,1,.06.07.41.41,0,0,1-.05.17,4.6,4.6,0,0,0-.43,1.87,1.45,1.45,0,0,0,.26.85" transform="translate(-14.71 -5.27)"/><path class="cls-4" d="M309.16,31.16c0,1.08,0,2,.06,2.41s.07.54.41.6c.17,0,.42,0,.53,0a.09.09,0,0,1,.09.09s-.05.09-.19.09c-.64,0-1.39,0-1.44,0s-.79,0-1.14,0c-.11,0-.18,0-.18-.09a.08.08,0,0,1,.09-.09,2.23,2.23,0,0,0,.36,0c.22-.06.26-.27.3-.6s.06-1.33.06-2.41v-2c0-1.73,0-2.05,0-2.4s-.12-.55-.37-.6a1.77,1.77,0,0,0-.35,0,.11.11,0,0,1-.1-.1c0-.06.05-.09.18-.09l1.17,0,1.16,0c.13,0,.18,0,.18.09a.12.12,0,0,1-.09.1,1.68,1.68,0,0,0-.29,0c-.31.07-.38.22-.41.62s0,.67,0,2.4Z" transform="translate(-14.71 -5.27)"/><path class="cls-4" d="M155.18,58.22c.1,0,.21-.08.21-.27v-.82c0-5.93,0-7-.07-8.27s-.35-2-1.51-2.22a6.37,6.37,0,0,0-1.37-.12c-.39,0-.59-.08-.59-.35s.24-.35.73-.35c1.9,0,4.11.12,5,.12s3.06-.12,4.43-.12c.49,0,.73.08.73.35s-.21.35-.63.35a5.52,5.52,0,0,0-1,.12c-.94.2-1.22.86-1.29,2.22s-.07,2.34-.07,8.27V64c0,3.59,0,6.67.17,8.35.11,1.09.32,1.94,1.37,2.1a13,13,0,0,0,1.79.16c.39,0,.56.11.56.31s-.28.39-.7.39c-2.28,0-4.49-.12-5.48-.12-.8,0-3,.12-4.38.12-.49,0-.74-.12-.74-.39s.14-.31.56-.31a5.12,5.12,0,0,0,1.27-.16c.7-.16.87-1,1-2.15.18-1.63.18-4.71.18-8.3V60.56a.21.21,0,0,0-.21-.23H141.77c-.1,0-.21,0-.21.23V64c0,3.59,0,6.67.18,8.35.1,1.09.31,1.94,1.37,2.1a13,13,0,0,0,1.79.16c.38,0,.56.11.56.31s-.28.39-.7.39c-2.29,0-4.5-.12-5.48-.12-.81,0-3,.12-4.42.12-.46,0-.7-.12-.7-.39s.14-.31.56-.31a5,5,0,0,0,1.26-.16c.7-.16.88-1,1-2.15.18-1.63.18-4.71.18-8.3V57.13c0-5.93,0-7-.08-8.27s-.35-2-1.51-2.22a6.27,6.27,0,0,0-1.36-.12c-.39,0-.6-.08-.6-.35s.25-.35.74-.35c1.89,0,4.1.12,5,.12s3.05-.12,4.42-.12c.49,0,.74.08.74.35s-.21.35-.63.35a5.52,5.52,0,0,0-1,.12c-1,.2-1.23.86-1.3,2.22s-.07,2.34-.07,8.27V58c0,.19.11.27.21.27Z" transform="translate(-14.71 -5.27)"/><path class="cls-4" d="M185.78,63.37c0-7.33-4-11.86-8.95-11.86-3.44,0-7.48,2-7.48,10.22,0,6.82,3.51,12.21,9.34,12.21,2.18,0,7.09-1.14,7.09-10.57m-21-.63c0-5.65,3.58-13,13-13,7.8,0,12.64,4.79,12.64,12.4s-5,13.57-12.95,13.57c-9,0-12.64-7.1-12.64-13" transform="translate(-14.71 -5.27)"/><path class="cls-4" d="M196.87,70.78c.07,2.57.45,3.35,1,3.58a4.69,4.69,0,0,0,1.62.24c.35,0,.52.15.52.35s-.28.35-.7.35c-2,0-3.44-.12-4-.12-.28,0-1.75.12-3.33.12-.42,0-.7,0-.7-.35s.21-.35.49-.35a5.63,5.63,0,0,0,1.4-.16c.81-.23.91-1.13.95-4l.28-19.66c0-.66.21-1.13.52-1.13s.81.51,1.34,1.09c.38.43,5,5.7,9.51,10.57,2.1,2.3,6.21,7,6.66,7.45h.15L212.31,54c0-2-.31-2.61-1.05-2.92a4.59,4.59,0,0,0-1.62-.2c-.38,0-.49-.16-.49-.35s.32-.31.78-.31c1.61,0,3.26.08,3.92.08.36,0,1.51-.08,3-.08.42,0,.7,0,.7.31s-.17.35-.52.35a2.78,2.78,0,0,0-1,.12c-.84.27-1.09.85-1.12,2.73l-.35,20.9c0,.74-.25,1-.5,1a1.79,1.79,0,0,1-1.26-.7c-1.93-2-5.79-6.09-9-9.56s-6.63-7.6-7.23-8.19h-.1Z" transform="translate(-14.71 -5.27)"/><path class="cls-4" d="M240.56,63.37c0-7.33-4-11.86-8.95-11.86-3.44,0-7.47,2-7.47,10.22,0,6.82,3.51,12.21,9.33,12.21,2.18,0,7.09-1.14,7.09-10.57m-21-.63c0-5.65,3.58-13,13-13,7.79,0,12.64,4.79,12.64,12.4s-5,13.57-12.95,13.57c-9,0-12.64-7.1-12.64-13" transform="translate(-14.71 -5.27)"/><path class="cls-4" d="M254.49,65.67c0,4.25,0,6.35.67,7s1.72.7,4.11.7c1.64,0,2.84,0,3.61-.93a4.24,4.24,0,0,0,.77-2c0-.32.11-.51.35-.51s.28.35.28.74a28.56,28.56,0,0,1-.45,3.82c-.21.74-.35.9-2,.9-2.21,0-4,0-5.54-.12s-2.85-.08-4.11-.08c-.35,0-1,0-1.75,0s-1.51.08-2.14.08c-.39,0-.6-.12-.6-.35s.1-.35.49-.35a4,4,0,0,0,1.09-.12c.63-.16.8-.78.91-1.75.14-1.41.14-4,.14-7.06V59.82c0-5,0-6,0-7S250,51.32,249,51a3.63,3.63,0,0,0-1-.12c-.36,0-.53-.12-.53-.35s.21-.31.67-.31c1.43,0,3.4.08,4.24.08s3.26-.08,4.46-.08c.45,0,.66.08.66.31s-.17.35-.56.35a6,6,0,0,0-1.19.12c-.84.15-1.09.62-1.16,1.79s-.07,2-.07,7Z" transform="translate(-14.71 -5.27)"/><path class="cls-4" d="M268.14,59.82c0-5,0-6,0-7s-.35-1.48-1.33-1.79a5,5,0,0,0-1.2-.12c-.35,0-.52-.12-.52-.35s.2-.31.66-.31c1.65,0,3.72.07,4.63.07s2.85-.07,4-.07c.46,0,.67.07.67.31s-.18.35-.5.35a3.8,3.8,0,0,0-.91.12c-.8.15-1.05.62-1.12,1.79s-.07,2-.07,7v4.64c0,4.83.85,6.71,2.35,8a6.06,6.06,0,0,0,8-.43c1.72-1.79,1.79-4.68,1.79-8.07V59.82c0-5,0-6-.07-7s-.32-1.48-1.3-1.79a4.69,4.69,0,0,0-1.12-.12c-.36,0-.53-.12-.53-.35s.21-.31.63-.31c1.58,0,3.65.07,3.69.07.35,0,2.42-.07,3.61-.07.42,0,.63.07.63.31s-.17.35-.52.35a3.88,3.88,0,0,0-.92.12c-.84.15-1.05.62-1.12,1.79s-.07,2-.07,7v3.55c0,3.7-.35,7.6-3,10A9,9,0,0,1,278,75.73c-1.62,0-4.81-.08-7.06-2.26-1.58-1.52-2.81-4-2.81-8.78Z" transform="translate(-14.71 -5.27)"/><path class="cls-4" d="M299.41,65.67c0,4.25,0,6.35.67,7s1.72.7,4.1.7c1.65,0,2.85,0,3.62-.93a4.24,4.24,0,0,0,.77-2c0-.32.1-.51.35-.51s.28.35.28.74a28.56,28.56,0,0,1-.45,3.82c-.21.74-.35.9-2,.9-2.21,0-4,0-5.54-.12s-2.84-.08-4.11-.08c-.35,0-1,0-1.75,0s-1.51.08-2.14.08c-.39,0-.6-.12-.6-.35s.1-.35.49-.35a4,4,0,0,0,1.09-.12c.63-.16.81-.78.91-1.75.14-1.41.14-4,.14-7.06V59.82c0-5,0-6,0-7s-.36-1.48-1.34-1.79a3.58,3.58,0,0,0-1-.12c-.36,0-.53-.12-.53-.35s.21-.31.67-.31c1.43,0,3.4.08,4.24.08s3.26-.08,4.46-.08c.45,0,.67.08.67.31s-.18.35-.57.35a6,6,0,0,0-1.19.12c-.84.15-1.09.62-1.16,1.79s-.07,2-.07,7Z" transform="translate(-14.71 -5.27)"/><path class="cls-4" d="M312.78,59.82c0-5,0-6,0-7s-.36-1.48-1.33-1.79a5,5,0,0,0-1.2-.12c-.35,0-.53-.12-.53-.35s.22-.31.67-.31c1.65,0,3.72.07,4.63.07s2.85-.07,4-.07c.46,0,.66.07.66.31s-.17.35-.48.35a3.88,3.88,0,0,0-.92.12c-.81.15-1.05.62-1.12,1.79s-.07,2-.07,7v4.64c0,4.83.84,6.71,2.35,8a6.06,6.06,0,0,0,8-.43c1.72-1.79,1.79-4.68,1.79-8.07V59.82c0-5,0-6-.07-7s-.32-1.48-1.3-1.79a4.72,4.72,0,0,0-1.13-.12c-.35,0-.53-.12-.53-.35s.22-.31.64-.31c1.58,0,3.65.07,3.69.07.35,0,2.42-.07,3.61-.07.42,0,.63.07.63.31s-.17.35-.52.35a3.81,3.81,0,0,0-.92.12c-.84.15-1.05.62-1.12,1.79s-.07,2-.07,7v3.55c0,3.7-.35,7.6-2.95,10a9,9,0,0,1-6.53,2.38c-1.61,0-4.8-.08-7.05-2.26-1.58-1.52-2.81-4-2.81-8.78Z" transform="translate(-14.71 -5.27)"/><path class="cls-4" d="M146.84,91.39A5.55,5.55,0,0,1,145,87.07a5.47,5.47,0,0,1,1.72-4,6.35,6.35,0,0,1,4.62-1.56,14.24,14.24,0,0,1,2.12.15c.55.08,1,.21,1.46.25.16,0,.22.09.22.17s0,.3-.08.81,0,1.29,0,1.58,0,.33-.17.33-.15-.11-.15-.32a2.19,2.19,0,0,0-.57-1.35,4.36,4.36,0,0,0-3-.9,3.83,3.83,0,0,0-2.75.9,5.47,5.47,0,0,0,3.26,9c1.3,0,2.09-.15,2.68-.82a2.44,2.44,0,0,0,.5-1c0-.23.07-.29.19-.29s.13.11.13.22a14.84,14.84,0,0,1-.32,2,.54.54,0,0,1-.39.42,8.23,8.23,0,0,1-2.63.34,7.32,7.32,0,0,1-5-1.59" transform="translate(-14.71 -5.27)"/><path class="cls-4" d="M165.83,88.3c0-2.75-1.65-4.45-3.73-4.45-1.43,0-3.11.76-3.11,3.83,0,2.56,1.46,4.58,3.89,4.58.91,0,3-.42,3-4m-8.74-.24c0-2.12,1.49-4.86,5.39-4.86,3.25,0,5.27,1.79,5.27,4.65s-2.08,5.08-5.4,5.08c-3.74,0-5.26-2.66-5.26-4.87" transform="translate(-14.71 -5.27)"/><path class="cls-4" d="M171.43,83.42c0-.21.15-.33.25-.33s.22.06.4.4l3.45,6.93,3.45-7c.1-.2.22-.31.34-.31s.24.13.29.4l1.17,7.67c.11.78.23,1.11.62,1.23a2.38,2.38,0,0,0,.73.12c.12,0,.21,0,.21.12s-.14.14-.33.14l-2.67-.08c-.3,0-.38-.08-.38-.15s.06-.1.15-.13.1-.18.06-.53l-.72-5.38h0l-2.77,5.56c-.29.58-.36.7-.51.7s-.3-.25-.51-.63c-.31-.57-1.33-2.47-1.48-2.82s-.86-1.8-1.28-2.66h-.05l-.61,4.85a4,4,0,0,0,0,.59c0,.23.17.32.39.36a1.9,1.9,0,0,0,.45.06c.12,0,.21.06.21.12s-.12.14-.31.14c-.54,0-1.13,0-1.36,0s-.86,0-1.27,0c-.13,0-.24,0-.24-.14s.08-.12.21-.12a2.21,2.21,0,0,0,.39,0c.36,0,.47-.54.53-1Z" transform="translate(-14.71 -5.27)"/><path class="cls-4" d="M185.66,83.42c0-.21.15-.33.25-.33s.22.06.39.4l3.46,6.93,3.45-7c.1-.2.21-.31.33-.31s.25.13.29.4L195,91.16c.11.78.23,1.11.62,1.23a2.38,2.38,0,0,0,.73.12c.12,0,.21,0,.21.12s-.15.14-.34.14l-2.66-.08c-.31,0-.38-.08-.38-.15s.06-.1.15-.13.1-.18.06-.53l-.72-5.38h0l-2.77,5.56c-.29.58-.36.7-.51.7s-.31-.25-.51-.63c-.31-.57-1.33-2.47-1.48-2.82s-.86-1.8-1.28-2.66H186l-.61,4.85a4,4,0,0,0-.05.59c0,.23.18.32.4.36a1.84,1.84,0,0,0,.45.06c.12,0,.21.06.21.12s-.12.14-.31.14c-.54,0-1.13,0-1.36,0s-.86,0-1.27,0c-.14,0-.24,0-.24-.14s.07-.12.21-.12a2.21,2.21,0,0,0,.39,0c.36,0,.47-.54.53-1Z" transform="translate(-14.71 -5.27)"/><path class="cls-4" d="M198.4,87c0-1.89,0-2.24,0-2.64s-.14-.55-.55-.67a2.35,2.35,0,0,0-.5,0c-.15,0-.22,0-.22-.13s.09-.12.28-.12c.68,0,1.55,0,1.93,0l1.65,0c.19,0,.28,0,.28.12s-.08.13-.21.13a1.82,1.82,0,0,0-.38,0c-.33.06-.43.24-.46.67s0,.75,0,2.64v1.74c0,1.81.35,2.51,1,3a2.53,2.53,0,0,0,1.63.5,2.42,2.42,0,0,0,1.72-.66c.72-.67.75-1.76.75-3V87c0-1.89,0-2.24,0-2.64s-.13-.55-.54-.67a2.17,2.17,0,0,0-.47,0c-.14,0-.22,0-.22-.13s.09-.12.27-.12c.65,0,1.52,0,1.53,0l1.51,0c.17,0,.26,0,.26.12s-.07.13-.22.13a1.69,1.69,0,0,0-.38,0c-.35.06-.44.24-.47.67s0,.75,0,2.64V88.3c0,1.39-.14,2.85-1.22,3.74a4,4,0,0,1-2.72.9,4.43,4.43,0,0,1-2.94-.85,4,4,0,0,1-1.17-3.29Z" transform="translate(-14.71 -5.27)"/><path class="cls-4" d="M211.31,91.08c0,1,.19,1.25.44,1.34a2,2,0,0,0,.67.09c.15,0,.22.06.22.13s-.12.13-.29.13c-.84,0-1.44,0-1.67,0s-.73,0-1.39,0c-.18,0-.29,0-.29-.13s.09-.13.2-.13a2.37,2.37,0,0,0,.59-.06c.33-.09.38-.42.39-1.51l.12-7.36c0-.25.09-.43.22-.43s.34.19.56.41,2.09,2.14,4,4c.87.87,2.59,2.62,2.78,2.8h.05l-.13-5.53c0-.76-.13-1-.44-1.1a2.25,2.25,0,0,0-.67-.07c-.16,0-.2-.06-.2-.13s.13-.12.32-.12c.67,0,1.36,0,1.64,0s.63,0,1.25,0c.18,0,.29,0,.29.12s-.07.13-.21.13a1.43,1.43,0,0,0-.4,0c-.35.11-.45.32-.47,1l-.14,7.84c0,.27-.1.39-.21.39a.72.72,0,0,1-.52-.27c-.81-.74-2.42-2.28-3.76-3.58s-2.77-2.85-3-3.07h0Z" transform="translate(-14.71 -5.27)"/><path class="cls-4" d="M223.23,87c0-1.89,0-2.24,0-2.64s-.16-.56-.44-.65a1.38,1.38,0,0,0-.46-.06c-.14,0-.21,0-.21-.15s.1-.1.31-.1l1.72,0,1.66,0c.15,0,.26,0,.26.1s-.07.15-.21.15a1.76,1.76,0,0,0-.38,0c-.35.06-.45.24-.48.67s0,.75,0,2.64v2.19c0,1.2,0,2.19.06,2.72,0,.34.13.53.51.59a4.78,4.78,0,0,0,.66,0c.14,0,.2.07.2.13s-.1.13-.25.13c-.84,0-1.72,0-2.07,0s-1.17,0-1.68,0c-.16,0-.25,0-.25-.13s0-.13.2-.13a1.82,1.82,0,0,0,.45,0c.27-.06.34-.24.39-.61s.06-1.5.06-2.7Z" transform="translate(-14.71 -5.27)"/><path class="cls-4" d="M231.37,84.13l-1.92.05c-.74,0-1,.1-1.24.37A1.57,1.57,0,0,0,228,85c0,.1-.06.16-.15.16s-.11-.07-.11-.21.25-1.4.28-1.5.07-.23.14-.23.23.1.56.14a10.64,10.64,0,0,0,1.29.06h5.22a5.54,5.54,0,0,0,.87-.06l.36-.06c.08,0,.1.08.1.26s0,1.19,0,1.51c0,.13-.05.21-.12.21s-.13-.06-.15-.25v-.13c0-.33-.37-.7-1.52-.72l-1.63,0v5c0,1.14,0,2.12.07,2.66.05.35.13.59.5.64a3.6,3.6,0,0,0,.66.05c.15,0,.21.07.21.13s-.1.13-.25.13c-.85,0-1.71,0-2.08,0s-1.17,0-1.68,0c-.16,0-.25,0-.25-.13s0-.13.21-.13a1.36,1.36,0,0,0,.45-.05c.26,0,.34-.29.38-.65.06-.53.06-1.51.06-2.65Z" transform="translate(-14.71 -5.27)"/><path class="cls-4" d="M241.11,89.54a2.52,2.52,0,0,0-.29-1.3c-.09-.19-1.85-2.92-2.3-3.58a3,3,0,0,0-.83-.88,1.28,1.28,0,0,0-.54-.16c-.11,0-.19,0-.19-.13s.08-.12.24-.12l1.61,0c.28,0,.88,0,1.46,0,.12,0,.19,0,.19.12s-.08.1-.29.16-.17.08-.17.19a1,1,0,0,0,.16.42c.23.38,1.91,3.29,2.13,3.64.17-.29,1.73-3,1.92-3.33a1.69,1.69,0,0,0,.19-.66c0-.11-.06-.23-.28-.28s-.23,0-.23-.14.07-.12.22-.12c.42,0,.87,0,1.25,0l1.38,0c.14,0,.23,0,.23.1s-.1.15-.25.15a1.52,1.52,0,0,0-.55.15,1.68,1.68,0,0,0-.68.58,43.76,43.76,0,0,0-2.5,4,2.86,2.86,0,0,0-.15,1.24v1c0,.2,0,.71,0,1.24,0,.36.15.6.53.65a3.59,3.59,0,0,0,.64.05c.15,0,.22.07.22.13s-.1.13-.28.13c-.8,0-1.66,0-2,0s-1.19,0-1.67,0c-.18,0-.28,0-.28-.13s.06-.13.21-.13a1.51,1.51,0,0,0,.45-.05c.26,0,.37-.29.39-.65.05-.53.05-1,.05-1.24Z" transform="translate(-14.71 -5.27)"/><path class="cls-4" d="M254.7,91.39a5.8,5.8,0,0,1-.1-8.32,6.37,6.37,0,0,1,4.62-1.56,14,14,0,0,1,2.12.15c.56.08,1,.21,1.47.25.16,0,.22.09.22.17s0,.3-.08.81,0,1.29,0,1.58-.05.33-.18.33-.14-.11-.14-.32a2.19,2.19,0,0,0-.57-1.35,4.4,4.4,0,0,0-3-.9,3.83,3.83,0,0,0-2.75.9,5.48,5.48,0,0,0,3.26,9c1.3,0,2.09-.15,2.68-.82a2.28,2.28,0,0,0,.49-1c0-.23.08-.29.19-.29s.13.11.13.22a13.32,13.32,0,0,1-.32,2,.51.51,0,0,1-.38.42,8.23,8.23,0,0,1-2.63.34,7.37,7.37,0,0,1-5-1.59" transform="translate(-14.71 -5.27)"/><path class="cls-4" d="M273.7,88.3c0-2.75-1.65-4.45-3.73-4.45-1.43,0-3.11.76-3.11,3.83,0,2.56,1.46,4.58,3.89,4.58.9,0,2.95-.42,2.95-4M265,88.06c0-2.12,1.49-4.86,5.39-4.86,3.25,0,5.27,1.79,5.27,4.65s-2.08,5.08-5.4,5.08c-3.74,0-5.26-2.66-5.26-4.87" transform="translate(-14.71 -5.27)"/><path class="cls-4" d="M280.28,89.16c0,1.59,0,2.38.28,2.62s.72.26,1.71.26c.69,0,1.18,0,1.51-.35a1.5,1.5,0,0,0,.32-.74c0-.12,0-.2.14-.2s.12.14.12.28a9.87,9.87,0,0,1-.19,1.44c-.09.27-.15.33-.82.33-.92,0-1.66,0-2.31,0l-1.71,0h-.73l-.89,0c-.16,0-.25,0-.25-.13s0-.13.2-.13a2,2,0,0,0,.46,0c.26-.06.33-.3.38-.66.06-.53.06-1.51.06-2.65V87c0-1.89,0-2.24,0-2.63s-.15-.56-.56-.67a1.61,1.61,0,0,0-.42,0c-.15,0-.22,0-.22-.13s.09-.12.28-.12c.6,0,1.42,0,1.77,0l1.85,0c.2,0,.28,0,.28.12s-.07.13-.23.13a2.83,2.83,0,0,0-.5,0c-.35,0-.45.23-.48.67s0,.74,0,2.63Z" transform="translate(-14.71 -5.27)"/><path class="cls-4" d="M289.08,89.16c0,1.59,0,2.38.28,2.62s.71.26,1.71.26c.69,0,1.19,0,1.51-.35a1.5,1.5,0,0,0,.32-.74c0-.12.05-.2.15-.2s.11.14.11.28a9.63,9.63,0,0,1-.18,1.44c-.09.27-.15.33-.82.33-.93,0-1.67,0-2.32,0l-1.71,0h-.73l-.89,0c-.16,0-.25,0-.25-.13s.05-.13.21-.13a1.92,1.92,0,0,0,.45,0c.26-.06.34-.3.38-.66.06-.53.06-1.51.06-2.65V87c0-1.89,0-2.24,0-2.63s-.14-.56-.55-.67a1.69,1.69,0,0,0-.43,0c-.14,0-.21,0-.21-.13s.08-.12.27-.12c.6,0,1.42,0,1.77,0l1.86,0c.19,0,.28,0,.28.12s-.08.13-.24.13a2.72,2.72,0,0,0-.49,0c-.36,0-.46.23-.49.67s0,.74,0,2.63Z" transform="translate(-14.71 -5.27)"/><path class="cls-4" d="M295.93,87c0-1.89,0-2.24,0-2.64s-.14-.55-.55-.67a2.49,2.49,0,0,0-.52,0c-.13,0-.22,0-.22-.13s.11-.12.3-.12c.67,0,1.49,0,1.85,0s3.26,0,3.51,0a5.29,5.29,0,0,0,.54-.07,1.15,1.15,0,0,1,.21-.06c.07,0,.09.06.09.12a4.21,4.21,0,0,0-.1.8c0,.13,0,.67-.08.82s0,.2-.14.2-.11-.06-.11-.16a1.19,1.19,0,0,0-.08-.45c-.1-.22-.21-.39-.85-.45-.22,0-1.76-.06-2-.06q-.09,0-.09.12v3.06c0,.08,0,.14.09.14.29,0,2,0,2.25,0s.5-.06.62-.19.14-.16.2-.16.1,0,.1.13,0,.28-.1.91c0,.24-.06.74-.06.83s0,.28-.13.28-.11-.05-.11-.11,0-.29-.05-.45-.24-.44-.72-.48c-.23,0-1.69-.06-2-.06-.06,0-.08.06-.08.13v1c0,.43,0,1.48,0,1.85,0,.85.43,1,1.74,1a3.43,3.43,0,0,0,1.22-.17c.32-.14.46-.4.55-.92,0-.13.06-.19.15-.19s.11.17.11.3a8.7,8.7,0,0,1-.17,1.37c-.09.32-.21.32-.69.32-1,0-1.74,0-2.37,0l-1.49,0H296l-.89,0c-.16,0-.25,0-.25-.13s0-.13.2-.13a2,2,0,0,0,.46,0c.26-.06.33-.3.38-.66.06-.53.06-1.51.06-2.65Z" transform="translate(-14.71 -5.27)"/><path class="cls-4" d="M312.77,91.94c0,.33,0,.35-.16.44a7.79,7.79,0,0,1-3.14.55c-3.16,0-6-1.43-6-4.87A4.58,4.58,0,0,1,305.77,84a6.41,6.41,0,0,1,3.46-.81,14.15,14.15,0,0,1,2.28.21,10.33,10.33,0,0,0,1,.13c.14,0,.17.06.17.15a18.31,18.31,0,0,0-.08,2c0,.19-.08.27-.18.27s-.12-.06-.13-.16a1.68,1.68,0,0,0-.44-1,4,4,0,0,0-2.79-.95,3.32,3.32,0,0,0-3.67,3.76,4.31,4.31,0,0,0,4.47,4.62,2,2,0,0,0,.91-.14.4.4,0,0,0,.25-.44V90.54c0-.62,0-1.09,0-1.47s-.15-.55-.55-.67a2.41,2.41,0,0,0-.5,0c-.12,0-.21-.06-.21-.13s.1-.12.28-.12c.67,0,1.6,0,2,0l1.5,0c.18,0,.26,0,.26.12a.15.15,0,0,1-.16.13,1.7,1.7,0,0,0-.35,0c-.35.06-.48.24-.49.67s0,.88,0,1.5Z" transform="translate(-14.71 -5.27)"/><path class="cls-4" d="M316.62,87c0-1.89,0-2.24,0-2.64s-.14-.55-.55-.67a2.37,2.37,0,0,0-.52,0c-.13,0-.21,0-.21-.13s.1-.12.29-.12c.67,0,1.49,0,1.85,0s3.27,0,3.52,0,.43-.06.53-.07a1.15,1.15,0,0,1,.21-.06c.07,0,.09.06.09.12a6.36,6.36,0,0,0-.11.8c0,.13,0,.67-.07.82s0,.2-.15.2-.1-.06-.1-.16a1.19,1.19,0,0,0-.08-.45c-.11-.22-.21-.39-.85-.45-.22,0-1.76-.06-2-.06-.06,0-.08,0-.08.12v3.06c0,.08,0,.14.08.14.29,0,2,0,2.25,0s.5-.06.62-.19.14-.16.2-.16.1,0,.1.13,0,.28-.1.91c0,.24-.06.74-.06.83s0,.28-.13.28-.12-.05-.12-.11a3.93,3.93,0,0,0,0-.45c-.07-.25-.23-.44-.72-.48-.23,0-1.69-.06-2-.06-.06,0-.07.06-.07.13v1c0,.43,0,1.48,0,1.85,0,.85.42,1,1.73,1a3.43,3.43,0,0,0,1.22-.17c.32-.14.47-.4.55-.92,0-.13.06-.19.15-.19s.11.17.11.3a8.7,8.7,0,0,1-.17,1.37c-.09.32-.2.32-.68.32-1,0-1.75,0-2.38,0l-1.49,0h-.73l-.89,0c-.16,0-.25,0-.25-.13s0-.13.21-.13a1.87,1.87,0,0,0,.45,0c.26-.06.34-.3.38-.66.06-.53.06-1.51.06-2.65Z" transform="translate(-14.71 -5.27)"/><rect class="cls-3" x="161.5" y="35.39" width="115.96" height="1.07"/><path class="cls-4" d="M313.57,27.65h.26c.28,0,.54-.11.54-.39s-.13-.4-.55-.4h-.25Zm0,1.11h-.26V26.69a4.32,4.32,0,0,1,.54-.05,1.06,1.06,0,0,1,.61.16.5.5,0,0,1,.19.42.52.52,0,0,1-.41.51v0c.18,0,.31.2.36.5a1.39,1.39,0,0,0,.14.51h-.28a1.49,1.49,0,0,1-.16-.53.41.41,0,0,0-.48-.38h-.25Zm.37-2.7a1.63,1.63,0,1,0,1.53,1.63,1.58,1.58,0,0,0-1.53-1.63Zm0-.23a1.86,1.86,0,0,1,0,3.72,1.86,1.86,0,0,1,0-3.72Z" transform="translate(-14.71 -5.27)"/></g><text class="cls-5" transform="translate(86.05 101.97) scale(1.25 1)">TM</text></svg>