<svg id="Layer_1" data-name="Layer 1" xmlns="http://www.w3.org/2000/svg" xmlns:xlink="http://www.w3.org/1999/xlink" viewBox="0 0 123.59 43.24"><defs><style>.cls-1{fill:none;}.cls-2{clip-path:url(#clip-path);}.cls-3{fill:#114734;}.cls-4{fill:#231f20;}</style><clipPath id="clip-path" transform="translate(-3.47 -3.7)"><rect class="cls-1" x="3.47" y="3.7" width="123.59" height="43.24"/></clipPath></defs><g class="cls-2"><path class="cls-3" d="M41,25.33a16,16,0,1,1-16-16,16,16,0,0,1,16,16M25.05,3.7A21.62,21.62,0,1,1,3.47,25.33,21.63,21.63,0,0,1,25.05,3.7m0,42.5A20.88,20.88,0,1,0,4.22,25.33,20.88,20.88,0,0,0,25.05,46.2M6,21.79l1,.26a1.72,1.72,0,0,0,.39,0,.88.88,0,0,0,.35-.1.83.83,0,0,0,.28-.28,1.55,1.55,0,0,0,.19-.48,1.4,1.4,0,0,0,0-.52.85.85,0,0,0-.12-.37A.88.88,0,0,0,8,20.09a1.79,1.79,0,0,0-.37-.15l-1-.26s-.06,0-.06-.05v-.1H6.43l-.22.8,0,0,0-.05a.1.1,0,0,1,.08,0l1.2.29a.31.31,0,0,1,.24.2.65.65,0,0,1,0,.34.54.54,0,0,1-.16.31.3.3,0,0,1-.3.06l-1.2-.3s-.06,0-.06,0a.13.13,0,0,1,0-.06H6l-.16.82h.06a.25.25,0,0,1,0-.09s0,0,.08,0m3.58-4.52-1.78-.79a.06.06,0,0,1,0-.06.37.37,0,0,1,0-.09l0,0L7.39,17l.06,0,0-.08a.14.14,0,0,1,.09,0l.92.41-.43.13-.4.12-.29.08-.13,0a.07.07,0,0,1-.06-.07v-.07l0,0-.41,1,0,0,.06-.08s0,0,.08,0l1.78.79s0,0,0,.06a.24.24,0,0,1,0,.08l.06,0,.28-.74-.05,0,0,.07a.08.08,0,0,1-.08,0l-1.22-.54v0l.6-.16L8.79,18l.39-.12a.5.5,0,0,1,.19,0s0,0,0,.07l0,.08.06,0,.38-.76-.05,0a.28.28,0,0,1-.06.08.06.06,0,0,1-.08,0m-.61-3,.05,0,0,0,.05,0a.57.57,0,0,1,.17,0l1.64.6.16.07a.09.09,0,0,1,0,.06.09.09,0,0,1,0,.07l.05,0,.6-.77-.05,0a.1.1,0,0,1,0,0,.08.08,0,0,1-.07,0,.44.44,0,0,1-.1-.13l-1-1.63a.08.08,0,0,1,0-.06.14.14,0,0,1,0-.06l0,0-.5.59L10,13l0,0s0,0,.06,0l.09.15.63,1h0l-1.19-.43-.09,0s0,0,0-.06a.15.15,0,0,1,0-.06l-.05,0Zm4.6-2.43-1,.9-.34-.37.63-.59.06,0a.1.1,0,0,1,.08,0l0,0-.45-.48,0,0a.15.15,0,0,1,0,.08.16.16,0,0,1,0,.06L12,12l-.29-.3,1-.92s0,0,.06,0,.05,0,.08.05l0,0-.46-.5,0,0s0,.06,0,.09a.05.05,0,0,1,0,.05L10.89,11.9l0,0a.25.25,0,0,1,.08,0,.08.08,0,0,1,.08,0l1.32,1.42s0,.06,0,.08a.18.18,0,0,1-.05.08l0,0,1.49-1.43s0,0,.07,0,0,0,.09,0l0,0-.44-.48,0,0c0,.08,0,.13,0,.17m-.18-1.95,1.09,1.61s0,.05,0,.08l0,.05,0,.05.64-.47,0-.05-.08,0s-.05,0-.07,0l-.39-.57.37-.26.58.33c.06,0,.1.06.11.08a0,0,0,0,1,0,.06s0,0-.06,0l0,.05.82-.51,0-.05a.14.14,0,0,1-.09,0,.19.19,0,0,1-.1,0l-.77-.35a.94.94,0,0,0,.16-.42.63.63,0,0,0-.12-.44A.67.67,0,0,0,15,8.75a.84.84,0,0,0-.56.16l-1.2.86,0,.05.07,0s0,0,.06,0m1,.35-.3-.45.51-.35a.36.36,0,0,1,.28-.09.25.25,0,0,1,.17.12.25.25,0,0,1,0,.22.37.37,0,0,1-.15.19Zm2.29-.88.11.7h0l0-.06a.1.1,0,0,1,0,0l.11,0,.24,0,.31-.08a3,3,0,0,0,.32-.12,1.44,1.44,0,0,0,.39-.24.77.77,0,0,0,.22-.27.66.66,0,0,0,.07-.3.67.67,0,0,0-.06-.28.55.55,0,0,0-.25-.27.88.88,0,0,0-.33-.06,1.61,1.61,0,0,0-.37.07l-.36.11-.28.06a.15.15,0,0,1-.15-.22.46.46,0,0,1,.12-.12A.45.45,0,0,1,17,8L17.14,8l.23-.08.2,0h.16s.07,0,.08,0v0h.07l0-.7h-.05s0,0,0,0a.12.12,0,0,1-.05.05l-.12,0-.21,0-.26.08a1,1,0,0,0-.29.11,1.32,1.32,0,0,0-.41.26,1,1,0,0,0-.21.31.79.79,0,0,0-.06.29.53.53,0,0,0,.06.26.47.47,0,0,0,.24.26.7.7,0,0,0,.33,0,1.27,1.27,0,0,0,.37-.07l.35-.11a1.11,1.11,0,0,1,.28-.05.14.14,0,0,1,.16.08A.2.2,0,0,1,18,9a.44.44,0,0,1-.08.11.54.54,0,0,1-.12.09l-.1.05a1.83,1.83,0,0,1-.28.1l-.29.07-.24,0c-.07,0-.11,0-.12-.05l0,0v0ZM22.16,6l-1.9.38H20.2s0,0-.05-.09h0l.15.73h.05a.12.12,0,0,1,0-.09l.05,0L21,6.76l.31,1.54s0,.06,0,.08l-.07,0v.06l.82-.17,0-.05H22a.1.1,0,0,1,0-.06l-.3-1.54.64-.13h.06a.12.12,0,0,1,.05.08h.05l-.15-.73h-.05a.15.15,0,0,1,0,.1s0,0-.05,0m2.33,1.9,0-.67.71-1.32a.09.09,0,0,1,.06,0h.06V5.79h-.9v.07h.06a0,0,0,0,1,0,0,.58.58,0,0,1,0,.13c0,.06-.31.55-.32.58l-.43-.57a.19.19,0,0,1,0-.1,0,0,0,0,1,0,0h.07V5.84l-1,.08V6h.07a.09.09,0,0,1,.06,0l.93,1.25,0,.65s0,.07,0,.08l-.06,0v.06l.81,0V8l-.06,0a.07.07,0,0,1,0-.07M28.7,6.12a1.3,1.3,0,0,0-.44,0,1.2,1.2,0,0,0-.43.13,1,1,0,0,0-.35.3,1,1,0,0,0-.21.49,1.33,1.33,0,0,0,0,.53,1,1,0,0,0,.22.4,1.14,1.14,0,0,0,.35.27,1.39,1.39,0,0,0,.42.14,1.6,1.6,0,0,0,.44,0,1.26,1.26,0,0,0,.43-.13A1,1,0,0,0,29.49,8a1,1,0,0,0,.2-.49,1.08,1.08,0,0,0-.22-.94,1.4,1.4,0,0,0-.36-.28,1.33,1.33,0,0,0-.41-.14m-.11.53a.62.62,0,0,1,.24.08.93.93,0,0,1,.18.16.78.78,0,0,1,.09.21.57.57,0,0,1,0,.26A.67.67,0,0,1,29,7.6a.55.55,0,0,1-.17.17.58.58,0,0,1-.22.08.53.53,0,0,1-.25,0,.79.79,0,0,1-.23-.09A.69.69,0,0,1,28,7.6a.51.51,0,0,1-.1-.21.57.57,0,0,1,0-.26.64.64,0,0,1,.1-.24.49.49,0,0,1,.16-.16.59.59,0,0,1,.47-.08m2,.11L29.94,8.6a.09.09,0,0,1-.06.06l-.09,0,0,.06L30.6,9l0-.06-.08-.05a.06.06,0,0,1,0-.08l.22-.65.81.27,0,0a.15.15,0,0,1,0,.11l.06,0,.22-.65-.06,0a.1.1,0,0,1,0,.08.06.06,0,0,1-.06,0l-.8-.28.16-.44,1.18.41s0,0,0,0a.12.12,0,0,1,0,.1l.06,0,.23-.65-.06,0a.12.12,0,0,1,0,.08h-.06l-1.9-.66,0,0,.09,0a.09.09,0,0,1,0,.09M34.3,9.65l.86.55-.4.65s0,.05-.07,0a.16.16,0,0,1-.09,0l0,.05.71.5,0-.05a.16.16,0,0,1-.07-.07s0,0,0-.08l1-1.65a.08.08,0,0,1,.07,0l.09,0,0-.05L35.76,9l0,.05a.45.45,0,0,1,.07.07s0,.05,0,.08l-.34.55-.86-.54.34-.56a.08.08,0,0,1,.07,0l.09,0,0-.05-.76-.44,0,.06.07.06a.08.08,0,0,1,0,.08l-1,1.66a.08.08,0,0,1-.07,0l-.09,0,0,.05.76.43,0-.05-.07-.06a.08.08,0,0,1,0-.08Zm2.77,3.29.56.56,0,0a.1.1,0,0,1,0-.05v-.05c0-.09.64-1.94.67-2s.05-.12.06-.13,0,0,.08,0l0,0-.71-.65,0,.05a.05.05,0,0,1,0,.08l-.19.1-1.79.89h0l-.05,0,0,.05.55.44,0,0,0,0s0,0,0,0l.06,0,.27-.14.8.72-.1.3a.16.16,0,0,1,0,.06.06.06,0,0,1,0,0l0,0Zm.38-.78-.57-.51.87-.41Zm3.26,5.92.32.72,0,0a.09.09,0,0,1,0-.05.11.11,0,0,1,0-.06c.07-.06,1.29-1.57,1.35-1.64l.09-.11a.07.07,0,0,1,.08,0l0,0-.44-.85-.05,0s0,.06,0,.08l-.22,0-2,.2a.06.06,0,0,1,0,0l0,0-.05,0,.35.61.06,0s0,0,0,0,0,0,0,0h.06l.31,0,.49.95-.2.25-.05,0a0,0,0,0,1,0,0l0,0Zm.62-.6L41,16.8l1-.08ZM40,12.77l-.53-.61,0,0s0,0,0,0a.07.07,0,0,1,0,.06s-1.18,1.62-1.19,1.62-.1,0-.15,0l-.05,0,.62.74,0,0,0-.08a0,0,0,0,1,0,0l.11-.05,1-.35.14-.05h0l-.08.12c-.05.06-.56.81-.6.87a.45.45,0,0,1-.07.09s-.08,0-.14-.07l0,0,.56.8.05,0a.11.11,0,0,1,0-.16L41.36,15l.09,0a.09.09,0,0,1,.09,0l.05,0-.41-.63,0,0a.36.36,0,0,1,0,.09.06.06,0,0,1,0,.07s-1.19.48-1.22.5h0l.7-1,.07-.09a.08.08,0,0,1,.08,0,.13.13,0,0,1,.07.06l.05,0-.57-.74,0,0,0,.07a.06.06,0,0,1,0,.08l-.11.06-1.18.4h0s.79-1.05.81-1.06a.05.05,0,0,1,.08,0l.06.05Zm3.59,6.45-.31-.86,0,0a.52.52,0,0,1,0,.11.06.06,0,0,1,0,.06l-1.83.66a.06.06,0,0,1-.08,0,.29.29,0,0,1-.06-.1l-.06,0,.31.87.06,0a.26.26,0,0,1,0-.11.06.06,0,0,1,0-.06l1.83-.66a.06.06,0,0,1,.08,0l.06.09ZM19.45,6.61l-.87.28,0,.06h.11s0,0,.06,0l.61,1.85a.07.07,0,0,1,0,.08l-.1.06,0,0,.87-.28,0-.06-.1,0s-.05,0-.07-.06l-.6-1.85a.08.08,0,0,1,0-.08l.1,0ZM8.66,14.76l-.48.78.05,0a.19.19,0,0,1,.07-.08.06.06,0,0,1,.08,0l1.67,1a.08.08,0,0,1,0,.07l0,.11,0,0,.48-.79-.05,0a.29.29,0,0,1-.08.08.06.06,0,0,1-.08,0L8.71,15s-.05,0,0-.07a.26.26,0,0,1,0-.1Zm35.58,7.1-.18-.9L44,21v.11s0,0-.06.05l-1.91.4a.06.06,0,0,1-.07,0,.3.3,0,0,1,0-.1h-.06l.18.9.06,0a.2.2,0,0,1,0-.11s0,0,.06-.05l1.9-.4a.07.07,0,0,1,.08,0,1,1,0,0,1,0,.1Zm-.05-1.46.15,0a1,1,0,0,0-.19-.22.81.81,0,0,0-.23-.17,1.07,1.07,0,0,0-.27-.09.77.77,0,0,0-.3,0,.75.75,0,0,0-.3.18.29.29,0,0,0,0,.3.36.36,0,0,0,.16.22.32.32,0,0,0,.27,0,.36.36,0,0,0,.25-.19.51.51,0,0,0,0-.3.51.51,0,0,1,.3.06.8.8,0,0,1,.21.2M29.24,42l.59-.18m-.63.06.08.24.59-.18-.08-.24ZM39,38.56l.43-.47,0,0h-.1l-1-.29c0-.05,0-.4,0-.49a1.85,1.85,0,0,1,0-.23.49.49,0,0,1,0-.15l0,0-.42.46,0,0,.05,0a.07.07,0,0,1,.06,0l0,.07a.83.83,0,0,0,0,.13c0,.06,0,.72,0,.76l-.52-.5s0,0,0-.06l0,0,0,0-.42.42,0,0a.05.05,0,0,1,0,0s0,0,.06,0l1.07,1a.07.07,0,0,1,0,.06.05.05,0,0,1,0,0l0,0,.42-.41,0,0,0,0a.1.1,0,0,1-.07,0l-.22-.23-.06-.42.65.18.06,0s0,0,0,.06l0,.05Zm-8.54,5.25.49-.15v0h0l0,0L30,42.35l-.06-.09a0,0,0,0,1,0,0v-.05l-.63.17v.05s.05,0,.05,0v.17c0,.1-.1,1.26-.12,1.45,0,0,0,0,0,0l0,0,0,0,.45-.11V44h0s0,0,0,0v-.05a1.79,1.79,0,0,0,0-.23l.7-.19.13.18s0,0,0,0,0,0,0,0h0Zm-.32-.57-.5.14.07-.73Zm5.07-1.57.43-.28,0,0h-.07l-1.19-1a.39.39,0,0,1-.09-.08s0,0,0,0l0,0-.56.33,0,0s0,0,.06,0,0,.07,0,.17.24,1.23.28,1.42c0,0,0,0,0,0l0,0,0,0,.41-.22,0,0h0l0,0s0,0,0,0a1.43,1.43,0,0,0,0-.22L35,41.4l.18.14,0,0s0,0,0,0l0,0Zm-.45-.46-.45.27-.14-.72Zm5.63-4.29.3-.41,0,0s0,0,0,0h0L39.15,36l-.1,0s0,0,0,0l0,0-.4.51,0,0a0,0,0,0,1,.06,0l.09.14.78,1.24s0,0,0,0a0,0,0,0,1,0,0l0,0,.3-.36,0,0,0,0s0,0,0,0,0,0,0,0a2,2,0,0,1-.12-.19l.45-.57.21.07s0,0,0,0,0,0,0,0v0Zm-.59-.26-.32.41-.38-.63ZM28.65,42.5l0-.12-.15.12a1.09,1.09,0,0,0-.13.17,1.07,1.07,0,0,0-.07.19.66.66,0,0,0,0,.24.44.44,0,0,0,.1.23.21.21,0,0,0,.2.07.27.27,0,0,0,.15-.1.3.3,0,0,0,0-.21.27.27,0,0,0-.12-.2.34.34,0,0,0-.2,0,.36.36,0,0,1,.05-.21.51.51,0,0,1,.14-.15m2.6-.77-.59.21,0,.05h.07s0,0,0,0l.51,1.41s0,0,0,.06l-.06,0v0l.59-.21,0,0-.07,0a.08.08,0,0,1,0,0l-.5-1.4s0-.05,0-.06,0,0,.06,0ZM36.05,39l-.49.38,0,0,.07,0a.05.05,0,0,1,.05,0l.93,1.17a0,0,0,0,1,0,.06l0,.06,0,0,.49-.39,0,0-.06,0a.09.09,0,0,1-.06,0l-.92-1.17s0,0,0-.06l0-.06ZM33.71,42.4,33.08,41a.06.06,0,0,1,0-.06l.05,0,0,0-.49.24,0,0h.06s0,0,0,0l.32.71-.76-.42-.08,0a.06.06,0,0,1,0-.06l0,0,0,0-.69.29,0,0h.05a.05.05,0,0,1,.05,0L32.3,43s0,.05,0,.06a.08.08,0,0,1,0,0l0,0,.49-.21,0,0h0a.07.07,0,0,1-.05,0L32.22,42h0l.74.4.27.15a.39.39,0,0,1,.11.09s0,0,0,0,0,0-.05,0l0,0,.52-.26,0,0-.06,0s0,0,0,0m9.76-11.94L42,30A.07.07,0,0,1,42,30V29.9h0l-.15.52,0,0,0-.06a.08.08,0,0,1,.07,0l.73.24-.82.28-.09,0s0,0,0,0a.07.07,0,0,1,0-.05h0l-.25.71h0l0-.05s0,0,.06,0l1.42.45s0,0,0,0A.06.06,0,0,1,43,32l0,0,.18-.51,0,0a.11.11,0,0,1,0,.05s0,0-.06,0l-1-.32h0c.15,0,.69-.23.81-.27l.28-.1a.3.3,0,0,1,.15,0s0,0,0,0a.08.08,0,0,1,0,.06h0l.16-.56h0l0,.06h-.05m-3.4,4.09,1.28.77s0,0,0,0v0l0,0,.28-.46,0,0,0,0s0,0-.06,0l-.41-.25.18-.31a.88.88,0,0,0,.09-.2.5.5,0,0,0,0-.21.32.32,0,0,0-.08-.2.56.56,0,0,0-.21-.19.69.69,0,0,0-.27-.1.47.47,0,0,0-.21,0,.71.71,0,0,0-.18.12c0,.06-.09.12-.13.19l-.42.71,0,0,0,0h.06m.8,0-.4-.24.17-.28c0-.07.08-.11.13-.12A.28.28,0,0,1,41,34c.07,0,.12.09.13.14a.3.3,0,0,1,0,.19ZM41,32.41a1,1,0,0,0-.07.3A.65.65,0,0,0,41,33a.79.79,0,0,0,.17.29,1.07,1.07,0,0,0,.34.23,1.09,1.09,0,0,0,.41.09.71.71,0,0,0,.32-.07.76.76,0,0,0,.25-.18,1.22,1.22,0,0,0,.16-.26,1.38,1.38,0,0,0,.08-.29.67.67,0,0,0,0-.31.79.79,0,0,0-.17-.29,1,1,0,0,0-.34-.23,1,1,0,0,0-.4-.09.72.72,0,0,0-.33.07.76.76,0,0,0-.25.18,1,1,0,0,0-.17.25m.38.17a.71.71,0,0,1,.1-.14.42.42,0,0,1,.14-.09.52.52,0,0,1,.18,0l.19.06a.39.39,0,0,1,.17.11.34.34,0,0,1,.09.14.32.32,0,0,1,0,.16.53.53,0,0,1,0,.17.45.45,0,0,1-.1.14.42.42,0,0,1-.14.09.32.32,0,0,1-.17,0,.49.49,0,0,1-.19-.05.4.4,0,0,1-.17-.1.36.36,0,0,1-.1-.15.41.41,0,0,1,0-.16.51.51,0,0,1,0-.17M7.84,33.66l1-.52h0l-.8.92L9.27,34h0l-1,.52a0,0,0,0,1-.06,0l0,0,0,0,.25.45,0,0v0a.05.05,0,0,1,0,0l1.33-.68s.05,0,.06,0l0,0,0,0-.34-.61-.05,0,0,0s0,0,0,0l-.09,0-.62,0s.35-.4.4-.44l.08-.09s0,0,0,0l0,0,0,0-.3-.63,0,0a.09.09,0,0,1,0,0,.07.07,0,0,1,0,.05l-1.33.68a0,0,0,0,1-.06,0l0,0-.05,0,.21.45,0,0s0,0,0-.06a.05.05,0,0,1,0-.05M11,35.92l-.68.57a1.45,1.45,0,0,0-.21.22A.71.71,0,0,0,10,37a.51.51,0,0,0,0,.27.92.92,0,0,0,.18.31,1,1,0,0,0,.26.24.77.77,0,0,0,.27.07.66.66,0,0,0,.27-.06,1,1,0,0,0,.25-.16l.69-.57a.07.07,0,0,1,.06,0l0,0,0,0-.38-.43,0,0a0,0,0,0,0,0,0,.05.05,0,0,1,0,0l-.74.61a.25.25,0,0,1-.22.07.41.41,0,0,1-.2-.13.37.37,0,0,1-.09-.23c0-.07,0-.13.11-.2l.74-.61a.06.06,0,0,1,0,0l0,0,0,0L11,35.78l0,0,0,.06s0,0,0,.05M7.68,28.26l-.86.19a2,2,0,0,0-.29.09.91.91,0,0,0-.21.18.52.52,0,0,0-.11.26,1.05,1.05,0,0,0,0,.35,1.13,1.13,0,0,0,.13.33.54.54,0,0,0,.21.19.77.77,0,0,0,.26.07,1.51,1.51,0,0,0,.3,0L8,29.71a.07.07,0,0,1,.06,0,.08.08,0,0,1,0,.06h0L8,29.22h0s0,0,0,0a0,0,0,0,1,0,0l-.94.2a.23.23,0,0,1-.22,0,.37.37,0,0,1-.12-.21.38.38,0,0,1,0-.24.25.25,0,0,1,.2-.13l.93-.2h.06l0,0h0l-.1-.56h0v.07s0,0-.05,0m7,12.88L14,40.62l.23-.32.47.35a.05.05,0,0,1,0,0s0,0,0,.07l0,0,.3-.42,0,0s0,0-.06,0h0L14.37,40l.18-.26.75.53a.05.05,0,0,1,0,0,.13.13,0,0,1,0,.07l0,0,.31-.43,0,0s0,0-.05,0h0l-1.16-.83,0,0a.09.09,0,0,1,0,0s0,0,0,.06l-.87,1.21s0,0-.05,0l-.06,0,0,0,1.14.82,0,0s0,0,0,.07l0,0,.3-.42,0,0c-.05,0-.09.06-.13,0m2.55,1.41-.8-.41.17-.34.53.27s0,0,0,0a.12.12,0,0,1,0,.07l0,0,.23-.46,0,0s0,.06-.05.06h0l-.53-.27.15-.28.81.41s0,0,0,0,0,0,0,.07l0,0,.23-.47,0,0s0,0-.05.06h0l-1.27-.64,0,0,.05,0a0,0,0,0,1,0,.06l-.67,1.34a.05.05,0,0,1,0,0h-.06l0,0,1.25.64,0,0s0,0,0,.07h0l.24-.46h0s-.08.07-.11,0m7.4,2h.64v0l0,0,0-.05-.49-1c.05,0,.28-.3.34-.36L25.2,43a.38.38,0,0,1,.13-.09v0H24.7v0l.06,0a.08.08,0,0,1,0,.06l0,.05a.93.93,0,0,1-.1.1s-.49.52-.52.55l0-.72s0-.05,0-.06h.06v0l-.59,0v.05l.05,0a.05.05,0,0,1,0,.05l-.05,1.5a.06.06,0,0,1,0,.06h0v0l.59,0v0h-.06a.06.06,0,0,1,0-.06v-.32l.28-.32.31.61,0,0a.07.07,0,0,1,0,.06h-.06ZM12.58,40l.49.41,0,0a.05.05,0,0,1,0,0v0l.24-1.06.48-.07.24,0a.27.27,0,0,1,.14,0l0,0-.49-.4,0,0s0,0,0,0,0,0,0,.05l-.06,0-.14,0-.75.08.47-.54a.06.06,0,0,1,.06,0l.06,0,0,0L13,38l0,0s0,0,0,0,0,0,0,.06l-1,1.13-.06,0-.05,0,0,0,.44.4,0,0,0-.06s0,0,0,0l.21-.25.43-.07s-.15.63-.16.67l0,.05s0,0-.06,0l-.05,0Zm14.2,4.53.51-.06v0h0l0,0L26.59,43c0-.07,0-.1,0-.11s0,0,0,0v-.05l-.66.05v0s0,0,0,0a.81.81,0,0,1,0,.17l-.39,1.4,0,0h0v0H26v0h0s0,0,0,0a.11.11,0,0,1,0-.05,1.8,1.8,0,0,0,.06-.22l.73,0,.09.21a.11.11,0,0,1,0,0s0,0,0,0h0Zm-.2-.62-.52,0,.21-.7ZM9.26,36.31l.29.42,0,0s0,0,0,0,0,0,0,0l.89-1.24c0-.06.06-.09.07-.09a0,0,0,0,1,.06,0l0,0-.36-.55,0,0s0,.05,0,.06l-.16,0-1.41.36h0s0,0,0,0l0,0,.25.4,0,0a0,0,0,0,0,0,0l0,0,.05,0,.22-.05.4.61-.13.18,0,0s0,0,0,0l0,0Zm.43-.48-.29-.44.71-.16Zm-2.81-4.2.17.49,0,0s0,0,0,0,0,0,0,0l1.19-1L8.4,31s0,0,0,0l0,0-.2-.62h0s0,.05,0,.05H8.05l-1.46,0,0,0s0,0,0,0h0l.13.45h0v0a0,0,0,0,1,0,0H7l.22.7L7,31.62l0,0h0l0,0Zm.55-.34-.17-.5.74,0ZM18.69,43.51l.49.16v0l0,0s0,0,0,0,0-1.46,0-1.53a.8.8,0,0,1,0-.11,0,0,0,0,1,.05,0l0,0-.62-.23v0a0,0,0,0,1,0,0l-.1.13L17.57,43l0,0h0l0,0,.43.18,0,0,0,0s0,0,0,0l0,0,.15-.18.68.26v.28s0,0,0,0h0Zm.07-.64-.49-.19.49-.55Zm2.77-.39a1,1,0,0,0-.3,0,.85.85,0,0,0-.55.34,1,1,0,0,0-.16.37,1,1,0,0,0,0,.42.74.74,0,0,0,.13.3.69.69,0,0,0,.24.21,1.36,1.36,0,0,0,.28.11,1.48,1.48,0,0,0,.3,0,.75.75,0,0,0,.29-.09.9.9,0,0,0,.25-.23.86.86,0,0,0,.15-.39.78.78,0,0,0,0-.4.73.73,0,0,0-.13-.31,1,1,0,0,0-.23-.22,1.24,1.24,0,0,0-.28-.11m-.09.41a.46.46,0,0,1,.16.07.43.43,0,0,1,.11.12.44.44,0,0,1,.06.16.67.67,0,0,1,0,.2.47.47,0,0,1-.08.19.49.49,0,0,1-.12.13.34.34,0,0,1-.15.06h-.17a.33.33,0,0,1-.16-.07.43.43,0,0,1-.11-.12.44.44,0,0,1-.06-.16.46.46,0,0,1,0-.2.4.4,0,0,1,.07-.19.34.34,0,0,1,.12-.12.3.3,0,0,1,.15-.07h.17m20.72-14a1,1,0,0,0,0,.3.71.71,0,0,0,.1.3.87.87,0,0,0,.23.24,1.09,1.09,0,0,0,.38.16.94.94,0,0,0,.41,0,.8.8,0,0,0,.31-.14.74.74,0,0,0,.2-.23,1,1,0,0,0,.11-.29,1.45,1.45,0,0,0,0-.3.77.77,0,0,0-.1-.29.68.68,0,0,0-.23-.25.89.89,0,0,0-.38-.15,1.14,1.14,0,0,0-.41,0,.8.8,0,0,0-.31.14.87.87,0,0,0-.2.23,1.19,1.19,0,0,0-.12.29m.42.08a.44.44,0,0,1,.06-.16.46.46,0,0,1,.12-.12.44.44,0,0,1,.16-.06.46.46,0,0,1,.2,0,.47.47,0,0,1,.19.07.34.34,0,0,1,.12.12.34.34,0,0,1,.07.15.54.54,0,0,1,0,.18.3.3,0,0,1-.07.15.34.34,0,0,1-.12.12.38.38,0,0,1-.16.06.67.67,0,0,1-.2,0,.64.64,0,0,1-.19-.08.34.34,0,0,1-.12-.12.39.39,0,0,1-.06-.15.25.25,0,0,1,0-.17M19.45,27l.73.3L20.1,27l-.72-.3Zm2.22,2.23a2.75,2.75,0,0,1-.31-.14l-.11-.54-.14-.8-.34-.14s.13.61.13.65l.06.3c0,.06.11.58.12.69l.66.31Zm1.91,1.07.25-.91h0l.37.82h0c.12-.2.39-.76.43-.84l.29,1,.29-.16c-.06-.18-.41-1.26-.52-1.54h0l-.45.95c0-.12-.36-.78-.45-1h0c-.07.19-.42,1.39-.45,1.48Zm2.1.07a4.45,4.45,0,0,0,.15-.42l.59,0s.12.29.16.39l.28-.21c-.1-.18-.53-1.13-.72-1.51h0c-.12.25-.64,1.43-.71,1.59Zm.25-.69c0-.09.16-.42.19-.5l.2.48Zm1.82-.15-.38.16.07-.52c0-.29.12-.76.13-.81l-.29.12s-.09.61-.09.65l-.05.3c0,.06-.08.56-.1.68l.66-.24Zm1.85-.42c0-.12.44-1,.5-1.12h0c0,.08.06.51.1.73h0c.16-.26.56-.95.61-1s0,.77,0,.94l.29-.28c0-.16,0-1.19,0-1.45h0c-.1.18-.57,1-.67,1.18,0-.1-.1-.71-.12-.89h0c-.12.23-.83,1.77-.88,1.88Zm1.83-.77.29-.51.55-.25s0,.32,0,.41l.34-.33c0-.16-.09-1.06-.13-1.4h0c-.2.31-1.09,1.76-1.21,2Zm.47-.83c.07-.11.3-.51.36-.62,0,.07,0,.35,0,.45ZM28.1,29.7c.06-.12.2-.43.22-.48l.55-.25s.07.29.1.38l.29-.32c-.06-.14-.3-1-.4-1.29h0c-.16.29-.85,1.66-.94,1.85Zm.36-.79.27-.58c0,.07.08.33.1.42Zm-9.07-.4c-.06-.11-.85-1.66-1-1.9h0c0,.18,0,.78-.06.89l-.74-1.21h0c0,.27.07,1.33.07,1.5l.31.27c0-.18-.07-.9-.07-1l.67,1.06h0c0-.24.05-.67.05-.76.07.12.5,1,.56,1.14Zm1.46.53c-.11-.17-.85-1.44-1-1.71h0c-.09.3-.27,1.09-.32,1.23l.31.29a3.29,3.29,0,0,1,.07-.36l.54.21s.18.34.23.45Zm-1-.78c0-.08.06-.33.07-.38l.3.53Zm3.31,1.81c-.1-.19-.76-1.59-.91-1.89h0c-.12.32-.37,1.16-.42,1.3l.29.33a3.59,3.59,0,0,1,.1-.39l.53.26.21.49Zm-.91-.87c0-.09.08-.36.09-.42l.27.59Zm.82,5H19.8c-.16-.53-.3-1.09-.42-1.67l-.4-.17c.13.64.29,1.25.45,1.84H14.94a18.35,18.35,0,0,1-2.2-8.67h2.77l-.13-.36H12.74A18.25,18.25,0,0,1,15,16.48h4.48c-.2.72-.38,1.46-.53,2.24l.2.06.13,0c.16-.82.35-1.61.56-2.35h2l.21-.35h-2.1c.93-3,2.29-5.2,3.87-6l-.26,0-.53.06a9.49,9.49,0,0,0-2.75,3.95q-.37.91-.69,1.95H15.16a12.89,12.89,0,0,1,6.23-5.59l-.11,0-.56.15c-.55.15-1.41.5-1.41.5a14.18,14.18,0,0,0-4.55,4.91H12.93l-.26.35h1.89a18.67,18.67,0,0,0-2.17,8.67H9.85v.36h2.54a18.57,18.57,0,0,0,2.15,8.67H12.68l.26.35h1.79a14.27,14.27,0,0,0,4.42,4.84s.64.26.91.35c0,0,.54.19.85.27l.23.06a13,13,0,0,1-6-5.52h4.4a19.92,19.92,0,0,0,.7,2,9.75,9.75,0,0,0,2.68,3.9l.57.07.21,0c-1.55-.82-2.89-3-3.8-6h4Zm17.13-8.67Zm0,0v-.36H37.77a18.67,18.67,0,0,0-2.17-8.67h1.83l-.26-.35H35.4a14.12,14.12,0,0,0-4.46-4.85l-.18-.08L30.19,11c-.48-.18-1.35-.41-1.35-.41A12.92,12.92,0,0,1,35,16.13H30.61a19.32,19.32,0,0,0-.7-1.95,9.41,9.41,0,0,0-2.73-3.94l-.27,0-.53,0c1.57.78,2.94,3,3.87,6H29.6a2,2,0,0,1,.08.35h.68c.21.74.4,1.52.56,2.34l.26-.1.07,0c-.16-.77-.33-1.51-.54-2.22H35.2a18.25,18.25,0,0,1,2.22,8.67H34.76l-.13.36h2.79a18.35,18.35,0,0,1-2.2,8.67h-4.5c.17-.6.32-1.21.46-1.85l-.4.18c-.12.58-.26,1.13-.42,1.67H27l-.8.35h4c-.91,3-2.25,5.14-3.79,6l.49-.05.29,0a9.69,9.69,0,0,0,2.66-3.89,19.92,19.92,0,0,0,.71-2H35A13.07,13.07,0,0,1,29.11,40s.65-.18,1.06-.33c0,0,.64-.24.79-.32l.14,0a14.09,14.09,0,0,0,4.32-4.78h1.74c.06-.07.26-.35.26-.35h-1.8a18.82,18.82,0,0,0,2.15-8.67Zm-7.47-3.18.78-2.06c-1,.19-3.18,1.21-6.49,4.51Zm-1.51-3c-.42.11-1.94.89-4,4.43A24.64,24.64,0,0,1,30.67,21Zm-9.08,1.79a3.09,3.09,0,0,0,2.88,1.66A3.2,3.2,0,0,0,28,21.15Zm6.1-.92H21.86a.27.27,0,1,0,0,.53h6.43a.27.27,0,0,0,0-.53m-5.21,4.55c-3.31-3.3-5.47-4.32-6.5-4.51l.79,2.06ZM19.48,21a24.64,24.64,0,0,1,3.37,2.84c-2-3.54-3.55-4.32-4-4.43Zm6.92,4.73.25-2.81a3.89,3.89,0,0,1-1.25.31l-.26,4.64a.06.06,0,0,1-.06.06h0a.07.07,0,0,1-.07-.06l-.25-4.64a3.65,3.65,0,0,1-1.26-.3l.24,2.8L14.84,22l3.57,9.43,5.66,2.51.12-2.21a0,0,0,0,1,.08,0l.21,2.4h0l.19,2.29a.41.41,0,0,0,.39.37.39.39,0,0,0,.39-.37l.21-2.29.21-2.4a0,0,0,0,1,0,0,0,0,0,0,1,0,0l.12,2.21,5.66-2.51c.05-.13,3.3-8.72,3.56-9.43Zm1.12-7.55a1.73,1.73,0,0,0,.07-.47,1.83,1.83,0,0,0-.2-.76,6.48,6.48,0,0,1-.2-.62,4.71,4.71,0,0,1-.08-.88v-.19l-.43.24c-1.32.72-3.1,1.69-3.1,4.21,0,.06,0,.12,0,.18h2.63a4.5,4.5,0,0,0,1.3-1.72m1-3.11a3.22,3.22,0,0,1,.06-1.95c-1.79.42-2.14,1.5-2.67,1.61s-.3-.93-.3-.93a8.22,8.22,0,0,0-3.41,3.34,2.88,2.88,0,0,0-.06,2.75h.92c-.09-2.94,2-4.07,3.36-4.83.31-.17.6-.33.82-.48l.49-.34-.1.58a4.57,4.57,0,0,0,0,1.4,5.69,5.69,0,0,0,.18.54A2.19,2.19,0,0,1,28,18.26a4.15,4.15,0,0,1-1,1.59h.67a2.84,2.84,0,0,0,1.25-1.53c.55-1.59,0-2.24-.34-3.3M22.7,38.38h0a0,0,0,0,1,0,0l0,0,.06,0,.09,0V39s0,0,0,0h0v0h.47v0h0s0,0,0,0v-1.1s0,0,0,0h0v0h-.47v0h0s0,0,0,0V38l0,0-.05,0h-.07s0,0,0,0a.08.08,0,0,1,0,0h0Zm1.13.35-.18.32h0s0,0,.05,0h0l.09,0,.13,0h.17a1.1,1.1,0,0,0,.27,0,.62.62,0,0,0,.24-.13.5.5,0,0,0,.15-.2.67.67,0,0,0,.06-.28.7.7,0,0,0,0-.27.6.6,0,0,0-.34-.31,1.1,1.1,0,0,0-.27,0,.69.69,0,0,0-.2,0,.67.67,0,0,0-.18.07.57.57,0,0,0-.14.13.36.36,0,0,0-.05.19.47.47,0,0,0,0,.17.45.45,0,0,0,.1.13.6.6,0,0,0,.15.09.47.47,0,0,0,.17,0,.51.51,0,0,0,.22,0l.23-.09a.54.54,0,0,1,0,.15.47.47,0,0,1-.1.1.34.34,0,0,1-.12.06.39.39,0,0,1-.15,0h-.11l-.1,0a.15.15,0,0,1-.07,0,.11.11,0,0,1,0-.06v0Zm.4-.65h.08l.08,0a.18.18,0,0,1,.07.05.12.12,0,0,1,0,.09.11.11,0,0,1,0,.08.13.13,0,0,1-.07.06l-.08,0h-.16l-.08,0a.13.13,0,0,1-.07-.06.11.11,0,0,1,0-.08.12.12,0,0,1,0-.09.18.18,0,0,1,.07-.05l.08,0h.08m1.54-.19a.61.61,0,0,0-.24,0,.6.6,0,0,0-.21.14.48.48,0,0,0-.14.2.66.66,0,0,0-.05.25.7.7,0,0,0,.05.25.48.48,0,0,0,.14.2.57.57,0,0,0,.21.13.6.6,0,0,0,.24,0,.7.7,0,0,0,.25,0,.46.46,0,0,0,.2-.13.48.48,0,0,0,.14-.2.53.53,0,0,0,.05-.25.51.51,0,0,0-.05-.25.7.7,0,0,0-.34-.34.69.69,0,0,0-.25,0m0,.27a.29.29,0,0,1,.14,0l.09.09a.37.37,0,0,1,.05.11.43.43,0,0,1,0,.26.37.37,0,0,1-.05.11l-.09.09a.29.29,0,0,1-.14,0,.28.28,0,0,1-.13,0,.26.26,0,0,1-.09-.09.22.22,0,0,1-.05-.11.43.43,0,0,1,0-.26.22.22,0,0,1,.05-.11.2.2,0,0,1,.09-.09.28.28,0,0,1,.13,0m.91,0h.76l-.53.87,0,.05h0v0h.52v0h0a.05.05,0,0,1,0,0l0,0,0-.05.46-.83V37.8h0a.06.06,0,0,1,0,.05H26.65a.06.06,0,0,1,0-.05h0v.39h0s0,0,0,0h0" transform="translate(-3.47 -3.7)"/><path class="cls-4" d="M55.32,13.1c0-1.88,0-2.21,0-2.6s-.12-.6-.52-.69a2.63,2.63,0,0,0-.41,0,.08.08,0,0,1-.09-.07c0-.08.06-.1.19-.1.54,0,1.28,0,1.38,0s.83,0,1.2,0c.13,0,.19,0,.19.1s-.05.07-.1.07l-.3,0c-.32,0-.42.27-.45.69s0,.72,0,2.6v1.69c0,1.73.39,2.48.9,3a2.34,2.34,0,0,0,1.82.66A2.53,2.53,0,0,0,61,17.56a4.64,4.64,0,0,0,.7-2.95V13.1c0-1.88,0-2.21,0-2.6s-.12-.6-.52-.69a2.73,2.73,0,0,0-.41,0s-.1,0-.1-.07.06-.1.2-.1c.54,0,1.2,0,1.27,0s.65,0,1,0c.14,0,.2,0,.2.1s-.05.07-.1.07l-.3,0c-.33.08-.42.27-.45.69s0,.72,0,2.6v1.29c0,1.3-.14,2.75-1.11,3.6a3.52,3.52,0,0,1-2.48.89A3.73,3.73,0,0,1,56.37,18a4,4,0,0,1-1-3.17Z" transform="translate(-3.47 -3.7)"/><path class="cls-4" d="M65.44,17.32c0,.84.12,1.09.41,1.17a3.15,3.15,0,0,0,.53.06.08.08,0,0,1,.09.08c0,.06-.08.08-.2.08-.6,0-1,0-1.12,0s-.54,0-1,0c-.11,0-.17,0-.17-.08a.08.08,0,0,1,.08-.08,2.15,2.15,0,0,0,.44-.06c.26-.08.3-.35.3-1.28V11.34c0-.41.06-.51.14-.51s.3.2.41.31S67,13,68.68,14.63c1,1.08,2.18,2.3,2.51,2.64l-.11-5.13c0-.66-.07-.89-.4-1a3,3,0,0,0-.52,0c-.07,0-.08-.06-.08-.1s.08-.07.2-.07l1.11,0,.9,0c.11,0,.2,0,.2.07a.12.12,0,0,1-.12.1,1.49,1.49,0,0,0-.26,0c-.35.08-.37.28-.37.89l0,6c0,.68,0,.74-.09.74s-.22-.09-.81-.63c-.1-.1-1.63-1.6-2.75-2.77s-2.42-2.54-2.75-2.9Z" transform="translate(-3.47 -3.7)"/><path class="cls-4" d="M75.92,15.74c0,1,0,1.79,0,2.21s.07.5.38.55l.49,0a.08.08,0,0,1,.08.09c0,.05,0,.08-.17.08-.59,0-1.28,0-1.32,0l-1.05,0c-.11,0-.17,0-.17-.08a.08.08,0,0,1,.08-.09,1.86,1.86,0,0,0,.33,0c.2-.05.24-.24.28-.55s.06-1.22.06-2.21V13.93c0-1.59,0-1.88,0-2.2s-.11-.51-.33-.56l-.33,0a.09.09,0,0,1-.08-.09c0-.06,0-.08.17-.08l1.07,0,1.06,0c.12,0,.17,0,.17.08a.11.11,0,0,1-.09.09,1.38,1.38,0,0,0-.26,0c-.29.06-.35.21-.38.57s0,.61,0,2.2Z" transform="translate(-3.47 -3.7)"/><path class="cls-4" d="M82.36,17.38c.62-1.38,2-4.87,2.23-5.6a1.71,1.71,0,0,0,.1-.39.23.23,0,0,0-.15-.22,1.46,1.46,0,0,0-.36,0c-.06,0-.12,0-.12-.09s.08-.08.24-.08l1,0,.83,0c.11,0,.17,0,.17.07a.11.11,0,0,1-.12.1,1,1,0,0,0-.51.12c-.14.1-.31.24-.59.94-.12.29-.64,1.52-1.18,2.77-.65,1.49-1.12,2.6-1.36,3.1s-.35.78-.46.78-.19-.14-.39-.63L79.13,12c-.25-.58-.39-.69-.74-.78a2.47,2.47,0,0,0-.41,0c-.06,0-.08-.06-.08-.1S78,11,78.17,11l1.24,0,1,0c.19,0,.29,0,.29.07a.1.1,0,0,1-.11.1,1.13,1.13,0,0,0-.38,0,.16.16,0,0,0-.12.18,4.54,4.54,0,0,0,.28.85Z" transform="translate(-3.47 -3.7)"/><path class="cls-4" d="M88.17,13.93c0-1.59,0-1.88,0-2.2s-.09-.52-.44-.57l-.36,0a.11.11,0,0,1-.08-.09c0-.06,0-.08.17-.08l1.22,0c.08,0,2.29,0,2.53,0a2.88,2.88,0,0,0,.48-.06.83.83,0,0,1,.15,0s.05,0,.05.09-.06.19-.09.48c0,.1,0,.56-.06.68s0,.11-.09.11-.09-.05-.09-.14a1.07,1.07,0,0,0-.06-.36c-.07-.17-.18-.24-.76-.31-.18,0-1.41,0-1.53,0s-.06,0-.06.11v2.78c0,.08,0,.11.06.11s1.53,0,1.77,0,.41,0,.52-.15.12-.13.16-.13.06,0,.06.09-.06.22-.09.56,0,.59,0,.66,0,.2-.1.2-.07,0-.07-.1a.9.9,0,0,0-.05-.34c0-.14-.13-.26-.54-.31s-1.42,0-1.6,0a.07.07,0,0,0-.08.07v.86c0,.35,0,1.54,0,1.75,0,.68.22.81,1.27.81a3.85,3.85,0,0,0,1.06-.1.81.81,0,0,0,.48-.71c0-.13,0-.16.11-.16s.07.08.07.16a8.15,8.15,0,0,1-.14,1c-.08.27-.19.27-.59.27-.8,0-1.41,0-1.85,0l-.88,0h-.45l-.62,0c-.11,0-.17,0-.17-.08a.08.08,0,0,1,.09-.08c.09,0,.23,0,.32-.05s.23-.24.28-.55a20.81,20.81,0,0,0,.06-2.21Z" transform="translate(-3.47 -3.7)"/><path class="cls-4" d="M94.4,13.93c0-1.59,0-1.88,0-2.2s-.08-.52-.43-.57l-.36,0a.11.11,0,0,1-.09-.09c0-.06.05-.08.17-.08l1.26,0,1.32,0a3.45,3.45,0,0,1,2,.45A1.79,1.79,0,0,1,99,12.81a3,3,0,0,1-1.3,2.34c.87,1.08,1.6,2,2.22,2.65a1.92,1.92,0,0,0,1.18.71,2.27,2.27,0,0,0,.37,0,.1.1,0,0,1,.1.09c0,.06-.07.08-.26.08h-.66a2.18,2.18,0,0,1-1.13-.2A5.38,5.38,0,0,1,98,17c-.44-.55-.91-1.21-1.14-1.49a.16.16,0,0,0-.15-.06l-1.34,0s-.08,0-.08.08v.24c0,1,0,1.78,0,2.2s.1.5.42.55l.47,0a.08.08,0,0,1,.09.09c0,.05,0,.08-.17.08-.58,0-1.25,0-1.3,0l-1.05,0c-.11,0-.17,0-.17-.08a.09.09,0,0,1,.09-.09,1.87,1.87,0,0,0,.32,0c.21-.05.23-.24.28-.55a20.81,20.81,0,0,0,.06-2.21Zm.91.87a.14.14,0,0,0,.08.13,3.34,3.34,0,0,0,1.16.16,1.36,1.36,0,0,0,.8-.18A1.83,1.83,0,0,0,98,13.34a1.77,1.77,0,0,0-1.83-2,5.1,5.1,0,0,0-.76.06c-.05,0-.09.06-.09.12Z" transform="translate(-3.47 -3.7)"/><path class="cls-4" d="M101.9,18.57c-.14-.07-.15-.11-.15-.39a9.67,9.67,0,0,1,.06-1.08c0-.11,0-.17.08-.17s.1,0,.1.12a1.76,1.76,0,0,0,0,.37,1.57,1.57,0,0,0,1.68,1c1,0,1.59-.59,1.59-1.36s-.4-1.09-1.34-1.79l-.48-.36c-1.15-.85-1.52-1.48-1.52-2.19,0-1.2,1-1.93,2.35-1.93a5.07,5.07,0,0,1,1.09.12,1.36,1.36,0,0,0,.38.05c.08,0,.11,0,.11.07a10.68,10.68,0,0,0,0,1.09c0,.15,0,.23-.09.23s-.08,0-.09-.14a2.24,2.24,0,0,0-.16-.5c-.07-.12-.42-.51-1.37-.51-.77,0-1.41.39-1.41,1.11s.32,1,1.37,1.73l.3.21c1.29.88,1.74,1.59,1.74,2.47a2,2,0,0,1-1,1.74,3.26,3.26,0,0,1-1.69.37,4,4,0,0,1-1.54-.28" transform="translate(-3.47 -3.7)"/><path class="cls-4" d="M109.5,15.74c0,1,0,1.79,0,2.21s.07.5.39.55l.48,0a.08.08,0,0,1,.08.09c0,.05,0,.08-.17.08-.59,0-1.27,0-1.32,0l-1.05,0c-.11,0-.17,0-.17-.08a.09.09,0,0,1,.09-.09,1.87,1.87,0,0,0,.32,0c.21-.05.24-.24.28-.55s.06-1.22.06-2.21V13.93c0-1.59,0-1.88,0-2.2s-.1-.51-.33-.56l-.33,0a.09.09,0,0,1-.08-.09c0-.06,0-.08.17-.08L109,11l1.06,0c.12,0,.17,0,.17.08a.11.11,0,0,1-.09.09,1.38,1.38,0,0,0-.26,0c-.29.06-.35.21-.38.57s0,.61,0,2.2Z" transform="translate(-3.47 -3.7)"/><path class="cls-4" d="M115.62,15.74c0,1,0,1.79,0,2.21s.08.5.41.55l.48,0c.07,0,.08.05.08.09s0,.08-.16.08c-.58,0-1.26,0-1.32,0l-1.09,0c-.12,0-.17,0-.17-.08s0-.07.08-.07a1.77,1.77,0,0,0,.32,0c.21-.05.27-.25.31-.56s0-1.22,0-2.21v-4.3l-1.53,0c-.66,0-.92.09-1.07.33a1.45,1.45,0,0,0-.17.32c0,.09-.06.1-.11.1a.08.08,0,0,1-.07-.08c0-.11.21-1,.23-1.11s.07-.19.1-.19.19.08.47.12.72,0,.84,0h4a6.36,6.36,0,0,0,.76,0l.3,0s0,.06,0,.12c0,.31,0,1.05,0,1.17s0,.13-.1.13-.07,0-.09-.18V12c0-.31-.26-.54-1.27-.57l-1.33,0Z" transform="translate(-3.47 -3.7)"/><path class="cls-4" d="M122.75,16.05a1.82,1.82,0,0,0-.23-1.05c-.08-.15-1.51-2.43-1.88-3a2.57,2.57,0,0,0-.69-.75,1.17,1.17,0,0,0-.45-.14.11.11,0,0,1-.11-.1s0-.07.13-.07l1,0,.92,0c.12,0,.14,0,.14.07s-.07.07-.17.11-.13.08-.13.17a.82.82,0,0,0,.15.4l1.92,3.19c.22-.44,1.54-2.63,1.74-3a1.07,1.07,0,0,0,.18-.53.24.24,0,0,0-.17-.26c-.1,0-.16-.07-.16-.12s.06-.06.17-.06l.73,0,1,0c.07,0,.13,0,.13.06a.12.12,0,0,1-.13.11,1,1,0,0,0-.49.13,1.77,1.77,0,0,0-.53.51A36.77,36.77,0,0,0,123.85,15a2,2,0,0,0-.13,1v.88c0,.17,0,.6,0,1s.1.5.41.55l.48,0a.09.09,0,0,1,.09.09c0,.05-.06.08-.17.08-.59,0-1.28,0-1.34,0l-1,0c-.12,0-.17,0-.17-.08a.08.08,0,0,1,.08-.09,1.55,1.55,0,0,0,.31,0c.22-.05.29-.24.32-.55s0-.85,0-1Z" transform="translate(-3.47 -3.7)"/><path class="cls-4" d="M57.77,28.62c0-2.23,1.47-3.76,3.19-3.76a2.31,2.31,0,0,1,2.55,2.48A3.47,3.47,0,0,1,60.15,31a2.23,2.23,0,0,1-2.38-2.35m1,.19c0,1,.45,1.81,1.56,1.79,1.61,0,2.26-2.31,2.26-3.58,0-.93-.48-1.8-1.52-1.8-1.67,0-2.3,2.25-2.3,3.59" transform="translate(-3.47 -3.7)"/><path class="cls-4" d="M68.48,25.25l-.08.43H66.87l-.53,2.9A9.5,9.5,0,0,1,65.61,31a8.51,8.51,0,0,1-1.38,2.22c-.32-.19-.31-.23-.15-.44A5.19,5.19,0,0,0,65.27,30L66,25.68h-1.2l.07-.43h1.2c.41-2.4,1.6-3.87,2.4-3.87.23,0,.43.18.42.53s-.24.71-.39.71-.07-.39-.49-.39c-.71,0-.79,1.33-1.08,3Z" transform="translate(-3.47 -3.7)"/><path class="cls-4" d="M82.16,27.27c0,1.15,0,2.1.06,2.61,0,.35.11.61.47.66a4,4,0,0,0,.54.05c.07,0,.1,0,.1.07s-.06.1-.2.1c-.66,0-1.42,0-1.48,0s-.82,0-1.18,0c-.13,0-.19,0-.19-.1s0-.07.1-.07a1.49,1.49,0,0,0,.36-.05c.24-.05.3-.31.35-.66.06-.51.06-1.46.06-2.61V26a.07.07,0,0,0-.08-.07H76s-.07,0-.07.07v1.27c0,1.15,0,2.1.06,2.61,0,.35.11.61.47.66a3.86,3.86,0,0,0,.54.05c.07,0,.1,0,.1.07s-.07.1-.2.1c-.66,0-1.42,0-1.48,0s-.82,0-1.18,0c-.13,0-.19,0-.19-.1s0-.07.09-.07a1.57,1.57,0,0,0,.37-.05c.24-.05.3-.31.34-.66a25.22,25.22,0,0,0,.07-2.61V25.15c0-1.88,0-2.22,0-2.6s-.12-.61-.52-.69a2.59,2.59,0,0,0-.41,0s-.09,0-.09-.07.06-.1.19-.1c.54,0,1.3,0,1.36,0s.82,0,1.18,0c.13,0,.19,0,.19.1s0,.07-.09.07a2.27,2.27,0,0,0-.3,0c-.33.06-.42.26-.45.69s0,.72,0,2.6v.25c0,.06,0,.07.07.07h5.1s.08,0,.08-.07v-.25c0-1.88,0-2.22,0-2.6s-.12-.61-.51-.69a2.85,2.85,0,0,0-.41,0s-.1,0-.1-.07.06-.1.19-.1c.54,0,1.3,0,1.36,0s.82,0,1.18,0c.14,0,.2,0,.2.1s0,.07-.1.07a2.51,2.51,0,0,0-.3,0c-.33.06-.42.26-.45.69s0,.72,0,2.6Z" transform="translate(-3.47 -3.7)"/><path class="cls-4" d="M87.92,23.22c.13-.34.18-.4.25-.4s.14.15.25.38c.2.43,1.89,4.66,2.54,6.21.39.92.68,1.05.91,1.12a1.37,1.37,0,0,0,.42.06c.06,0,.13,0,.13.08s-.12.09-.24.09-.94,0-1.67,0c-.21,0-.38,0-.38-.07s0-.05.08-.07a.19.19,0,0,0,.09-.28l-1-2.35a.09.09,0,0,0-.1-.06H86.81a.11.11,0,0,0-.11.09l-.6,1.64a2,2,0,0,0-.16.68c0,.21.18.28.36.28h.1c.08,0,.11,0,.11.08s-.06.09-.16.09-.83,0-.95,0-.64,0-1.07,0c-.13,0-.21,0-.21-.09a.1.1,0,0,1,.1-.08l.31,0c.49-.07.69-.42.89-.94Zm1.18,4.26c.05,0,.05,0,0-.07l-1-2.8q-.09-.24-.18,0l-1,2.8c0,.05,0,.07,0,.07Z" transform="translate(-3.47 -3.7)"/><path class="cls-4" d="M100.21,29.24h.05c.27-.84,1.22-3.8,1.59-5.12a2,2,0,0,0,.12-.64c0-.18-.08-.3-.56-.3a.11.11,0,0,1-.1-.09c0-.05,0-.08.18-.08.54,0,1,0,1.08,0s.53,0,.86,0c.1,0,.14,0,.14.06s0,.11-.09.11a2.29,2.29,0,0,0-.36.05c-.32.11-.49.52-.69,1.09-.47,1.3-1.52,4.55-1.94,5.69-.28.76-.34.88-.46.88s-.2-.13-.35-.53l-2.07-5.6c-.36.89-1.79,4.64-2.18,5.59-.18.43-.25.54-.37.54s-.19-.11-.41-.81L92.77,24c-.17-.54-.28-.67-.55-.77a2.58,2.58,0,0,0-.48-.06.09.09,0,0,1-.1-.09c0-.05.07-.08.17-.08.55,0,1.14,0,1.25,0s.58,0,1.11,0c.14,0,.19,0,.19.08a.1.1,0,0,1-.11.09.89.89,0,0,0-.37.06.22.22,0,0,0-.14.22,5.91,5.91,0,0,0,.2.95c.17.65,1.25,4.41,1.39,4.83h0l2.21-5.72c.16-.41.23-.47.29-.47s.16.13.29.48Z" transform="translate(-3.47 -3.7)"/><path class="cls-4" d="M106.5,23.22c.13-.34.18-.4.26-.4s.14.15.25.38c.19.43,1.89,4.66,2.54,6.21.38.92.67,1.05.9,1.12a1.45,1.45,0,0,0,.42.06c.06,0,.14,0,.14.08s-.12.09-.24.09-.94,0-1.68,0c-.2,0-.37,0-.37-.07s0-.05.07-.07a.2.2,0,0,0,.1-.28l-1-2.35s0-.06-.1-.06h-2.45a.11.11,0,0,0-.1.09l-.61,1.64a2.21,2.21,0,0,0-.15.68c0,.21.18.28.36.28H105c.09,0,.11,0,.11.08s-.06.09-.15.09c-.26,0-.83,0-1,0s-.64,0-1.08,0c-.13,0-.2,0-.2-.09a.1.1,0,0,1,.09-.08l.32,0c.48-.07.69-.42.89-.94Zm1.18,4.26s0,0,0-.07l-1-2.8q-.09-.24-.18,0l-1,2.8c0,.05,0,.07,0,.07Z" transform="translate(-3.47 -3.7)"/><path class="cls-4" d="M113.72,27.78c0,1,0,1.8,0,2.22s.07.49.38.54a3.4,3.4,0,0,0,.48.05.09.09,0,0,1,.09.08s0,.09-.17.09c-.59,0-1.28,0-1.33,0s-.72,0-1,0c-.11,0-.17,0-.17-.09a.08.08,0,0,1,.08-.08,1.26,1.26,0,0,0,.33-.05c.2-.05.24-.24.27-.54s.06-1.23.06-2.22V26c0-1.59,0-1.88,0-2.21s-.11-.5-.34-.55l-.32,0a.09.09,0,0,1-.09-.08c0-.06,0-.08.17-.08l1.07,0,1.06,0c.12,0,.17,0,.17.08a.1.1,0,0,1-.08.08,1,1,0,0,0-.27,0c-.29.06-.35.2-.37.56s0,.62,0,2.21Z" transform="translate(-3.47 -3.7)"/><path class="cls-4" d="M117.49,23.57c.09.11.11.14.11.2s-.06.08-.11.08a3.72,3.72,0,0,1-.84-.22.29.29,0,0,1-.21-.31,4.3,4.3,0,0,1,1-2.38.16.16,0,0,1,.15-.09.06.06,0,0,1,.06.06.35.35,0,0,1,0,.15,4.34,4.34,0,0,0-.39,1.73,1.32,1.32,0,0,0,.24.78" transform="translate(-3.47 -3.7)"/><path class="cls-4" d="M121.4,27.78c0,1,0,1.8,0,2.22s.07.49.39.54a3.13,3.13,0,0,0,.48.05.08.08,0,0,1,.08.08s-.05.09-.17.09c-.59,0-1.27,0-1.32,0s-.72,0-1,0c-.11,0-.17,0-.17-.09a.09.09,0,0,1,.09-.08,1.19,1.19,0,0,0,.32-.05c.21-.05.24-.24.28-.54s.06-1.23.06-2.22V26c0-1.59,0-1.88,0-2.21s-.11-.5-.34-.55l-.33,0a.08.08,0,0,1-.08-.08c0-.06,0-.08.17-.08l1.07,0L122,23c.12,0,.17,0,.17.08a.1.1,0,0,1-.09.08.93.93,0,0,0-.26,0c-.29.06-.35.2-.38.56s0,.62,0,2.21Z" transform="translate(-3.47 -3.7)"/><path class="cls-4" d="M74.09,38.57c0-.15.08-.23.15-.23s.12,0,.24.27l2.4,5,2.39-5c.07-.14.11-.21.19-.21s.13.09.16.27l.8,5.43c.08.56.16.81.43.89a1.72,1.72,0,0,0,.54.09c.08,0,.14,0,.14.06s-.1.1-.23.1-1.43,0-1.78-.06c-.2,0-.25,0-.25-.09s0-.07.09-.1.08-.13,0-.38l-.53-3.86h0l-1.91,4c-.2.41-.25.49-.33.49s-.16-.18-.3-.44-.91-1.75-1-2-.6-1.29-.91-1.95h0l-.46,3.5a3,3,0,0,0,0,.41c0,.17.12.25.27.29a2,2,0,0,0,.37,0c.07,0,.13,0,.13.06s-.08.1-.21.1c-.37,0-.77,0-.93,0l-.87,0c-.08,0-.16,0-.16-.1s.06-.06.15-.06a1,1,0,0,0,.26,0c.25-.05.32-.39.36-.69Z" transform="translate(-3.47 -3.7)"/><path class="cls-4" d="M83.61,43.3s0,0-.07.05l-.41,1a1.41,1.41,0,0,0-.12.46c0,.13.07.21.31.21h.11c.1,0,.12,0,.12.08s0,.08-.12.08l-.87,0c-.07,0-.49,0-.89,0-.1,0-.14,0-.14-.08s0-.08.09-.08h.22c.35,0,.49-.28.65-.66l2-4.7c.08-.21.15-.3.22-.3s.15.07.23.24c.19.41,1.48,3.47,2,4.6.3.68.52.78.66.8l.29,0c.07,0,.11,0,.11.08s0,.08-.34.08-.83,0-1.48,0c-.14,0-.23,0-.23-.06S86,45,86,45a.11.11,0,0,0,.07-.17l-.59-1.5a.08.08,0,0,0-.08-.05Zm1.65-.42s0,0,0,0l-.73-1.9s0-.07,0-.07,0,.05,0,.07l-.75,1.89s0,.05,0,.05Z" transform="translate(-3.47 -3.7)"/><path class="cls-4" d="M89.56,44.16c0,.58.12.76.27.81a1.41,1.41,0,0,0,.4.05c.09,0,.13,0,.13.08s-.07.08-.17.08c-.5,0-.86,0-1,0s-.44,0-.84,0c-.1,0-.17,0-.17-.08s0-.08.12-.08a1.39,1.39,0,0,0,.35,0c.2,0,.23-.25.24-.9L89,39.65c0-.15.05-.25.13-.25s.2.11.33.24,1.26,1.29,2.39,2.38c.52.52,1.55,1.58,1.67,1.68h0l-.08-3.32c0-.46-.08-.59-.26-.66a1.46,1.46,0,0,0-.41,0c-.09,0-.12,0-.12-.08s.08-.07.19-.07h1.74c.11,0,.18,0,.18.07s0,.08-.13.08a1.06,1.06,0,0,0-.24,0c-.21.06-.27.2-.28.62L94,45c0,.17-.06.24-.12.24a.47.47,0,0,1-.32-.16c-.48-.45-1.45-1.37-2.26-2.16s-1.66-1.71-1.81-1.84h0Z" transform="translate(-3.47 -3.7)"/><path class="cls-4" d="M95.61,42.35a3,3,0,0,1,3.24-2.93c2,0,3.16,1.08,3.16,2.8a3,3,0,0,1-3.24,3.05,2.91,2.91,0,0,1-3.16-2.92m5.25.14c0-1.65-1-2.67-2.24-2.67-.86,0-1.87.45-1.87,2.3,0,1.54.88,2.75,2.34,2.75.54,0,1.77-.25,1.77-2.38" transform="translate(-3.47 -3.7)"/><path class="cls-4" d="M104.22,43.3s0,0-.07.05l-.41,1a1.33,1.33,0,0,0-.11.46c0,.13.07.21.3.21h.12c.09,0,.11,0,.11.08s0,.08-.12.08l-.86,0c-.08,0-.49,0-.9,0-.09,0-.14,0-.14-.08s0-.08.09-.08h.23c.35,0,.48-.28.64-.66l2-4.7c.09-.21.15-.3.23-.3s.15.07.23.24c.18.41,1.47,3.47,2,4.6.29.68.51.78.65.8l.29,0c.07,0,.11,0,.11.08s0,.08-.33.08-.84,0-1.49,0c-.14,0-.23,0-.23-.06s0-.07.1-.08a.13.13,0,0,0,.07-.17l-.6-1.5a.07.07,0,0,0-.08-.05Zm1.66-.42s0,0,0,0l-.73-1.9s0-.07,0-.07,0,.05-.05.07l-.74,1.89s0,.05,0,.05Z" transform="translate(-3.47 -3.7)"/><rect class="cls-3" x="50.83" y="30.84" width="71.7" height="0.55"/><path class="cls-4" d="M125.26,23a1.06,1.06,0,1,1-1.05,1.06A1,1,0,0,1,125.26,23Zm0,.14a.93.93,0,1,0,.87.92.89.89,0,0,0-.87-.92Zm-.2,1.53h-.16V23.51a3,3,0,0,1,.31,0,.59.59,0,0,1,.35.09.3.3,0,0,1,.11.24.31.31,0,0,1-.23.3h0c.1,0,.17.11.2.28s.05.26.08.29h-.16a.81.81,0,0,1-.09-.3.23.23,0,0,0-.27-.22h-.14Zm0-.63h.14c.16,0,.31-.06.31-.22s-.08-.23-.32-.23h-.13Z" transform="translate(-3.47 -3.7)"/><rect class="cls-4" x="80.06" y="34.66" width="2.45" height="0.4" rx="0.1"/><path class="cls-3" d="M37.66,44.89V45H37.2v1.12h-.13V45h-.46v-.1ZM39,46.11l-.07-.83a2.61,2.61,0,0,1,0-.28h0c0,.1-.08.22-.12.31l-.33.78h-.11l-.34-.8-.1-.29h0a2.62,2.62,0,0,1,0,.28l-.07.83h-.13l.11-1.22H38l.34.78a1.39,1.39,0,0,1,.1.29h0c0-.11.06-.21.09-.29l.34-.78H39l.12,1.22Z" transform="translate(-3.47 -3.7)"/></g></svg>