<svg id="Layer_1" data-name="Layer 1" xmlns="http://www.w3.org/2000/svg" xmlns:xlink="http://www.w3.org/1999/xlink" viewBox="0 0 206.23 69.72"><defs><style>.cls-1{fill:none;}.cls-2{clip-path:url(#clip-path);}.cls-3{fill:#7bb2dc;}.cls-4{fill:#231f20;}.cls-5{fill:#4e84c4;}.cls-6{clip-path:url(#clip-path-2);}</style><clipPath id="clip-path" transform="translate(5.17 -6.97)"><rect class="cls-1" x="72.91" y="7.68" width="128.16" height="69.02"/></clipPath><clipPath id="clip-path-2" transform="translate(5.17 -6.97)"><rect class="cls-1" width="74.07" height="69.71"/></clipPath></defs><g class="cls-2"><path class="cls-3" d="M28.76,47.53c-.11.23-.6,1.29-.71,1.5-.09-.18-.58-1.23-.72-1.55h0c-.1.32-.67,2.22-.73,2.38l.41.28c.05-.16.35-1.29.4-1.46h0c.05.15.38.9.58,1.32h0c.18-.33.62-1.22.68-1.34,0,.09.39,1.29.47,1.57l.46-.25c-.1-.28-.66-2-.82-2.45Zm-3.84-.79c-.18.5-.58,1.85-.67,2.08l.46.52c0-.14.14-.57.17-.62l.85.42.33.78.33-.16c-.15-.31-1.21-2.54-1.45-3Zm.18,1c.07.17.34.78.42.94l-.58-.28c0-.13.14-.56.16-.66m5.75,15.15a.58.58,0,0,0-.14-.13.48.48,0,0,0-.22,0,.46.46,0,0,0-.21,0,.44.44,0,0,0-.14.13.66.66,0,0,0-.09.19.65.65,0,0,0,0,.2.75.75,0,0,0,0,.21.51.51,0,0,0,.09.18.29.29,0,0,0,.14.13.36.36,0,0,0,.21.05.38.38,0,0,0,.22-.05.35.35,0,0,0,.14-.13.51.51,0,0,0,.09-.18,1.49,1.49,0,0,0,0-.21,1.23,1.23,0,0,0,0-.2.66.66,0,0,0-.09-.19M29.36,16.67A25.53,25.53,0,1,0,54.89,42.19,25.52,25.52,0,0,0,29.36,16.67m.9,7s-.18,1.61.49,1.48c.84-.17,1.4-1.89,4.26-2.57a5.13,5.13,0,0,0-.09,3.12c.55,1.69,1.43,2.73.55,5.26a4.56,4.56,0,0,1-2,2.44H32.39a6.55,6.55,0,0,0,1.67-2.53,3.47,3.47,0,0,0-.22-2.47,5.22,5.22,0,0,1-.29-.87,7,7,0,0,1,0-2.22l.15-.94-.77.54c-.36.25-.83.5-1.32.77-2.22,1.21-5.51,3-5.36,7.71H24.71s-1.11-1.56.1-4.39c1.4-3.26,5.45-5.33,5.45-5.33m2.51,4a6.78,6.78,0,0,0,.32,1,3.22,3.22,0,0,1,.3,1.22,3.1,3.1,0,0,1-.1.75,7.24,7.24,0,0,1-2.07,2.74H27c0-.1,0-.19,0-.29,0-4,2.84-5.56,5-6.71l.7-.39a2.91,2.91,0,0,0,0,.3,6.45,6.45,0,0,0,.14,1.4m1.75,6.31a.43.43,0,0,1,0,.85H24.24a.43.43,0,0,1,0-.85Zm-8.7,5.68a40.26,40.26,0,0,0-5.38-4.53l-1-2.54c.66.18,3.09,1.42,6.34,7.07m.36,1.59-9.13-3.91-1.24-3.29c1.64.3,5.08,1.92,10.37,7.2m-1.41-5.79H34a5.13,5.13,0,0,1-4.65,2.64,4.93,4.93,0,0,1-4.61-2.64m13.55-.33a39.64,39.64,0,0,0-5.38,4.53c3.24-5.65,5.68-6.89,6.34-7.07ZM43,34.12l-1.24,3.29-9.13,3.91c5.29-5.28,8.73-6.9,10.37-7.2M26.84,66.37l-.9-.11A15.21,15.21,0,0,1,21.66,60a32.45,32.45,0,0,1-1.14-3.16h-7a20.82,20.82,0,0,0,9.59,8.81s-.19-.06-.38-.1c-.49-.13-1.35-.43-1.35-.43-.43-.14-1.46-.56-1.46-.56a22.6,22.6,0,0,1-7-7.72H10l-.42-.56h3A29.73,29.73,0,0,1,9.1,42.47H5v-.56H9.1a29.7,29.7,0,0,1,3.48-13.84h-3l.42-.56h2.92a22.58,22.58,0,0,1,7.28-7.84,20.42,20.42,0,0,1,2.26-.79l.9-.26.17,0a20.63,20.63,0,0,0-10,8.93h7a31.43,31.43,0,0,1,1.11-3.11,15,15,0,0,1,4.39-6.31l.84-.1.43,0c-2.53,1.25-4.72,4.73-6.2,9.55h3.35l-.32.56H21c-.34,1.18-.64,2.44-.9,3.75l-.22-.09a2.37,2.37,0,0,0-.31-.1c.24-1.23.53-2.42.86-3.56H13.22A29,29,0,0,0,9.66,41.91h4.22l.21.56H9.66a29,29,0,0,0,3.53,13.85h7.18c-.27-1-.52-1.92-.74-2.94l.64.28c.2.92.42,1.81.67,2.66h5.32l1.27.56H21.1c1.46,4.76,3.6,8.22,6.08,9.53Zm-.33-2.26.07,0v0h-.76v0l.07,0a0,0,0,0,0,0,0v-1.2l-.15,0-.09,0a.08.08,0,0,0,0,0s0,0,0,.06h-.05v-.61h.05a.15.15,0,0,0,0,.06,0,0,0,0,0,0,0h0l.07,0,.08,0,.05,0V62.3a0,0,0,0,0,0,0l-.05,0v0h.74v0l-.07,0a0,0,0,0,0,0,0v1.76a0,0,0,0,0,0,0M29,63.59a.93.93,0,0,1-.26.33,1,1,0,0,1-.36.2,1.61,1.61,0,0,1-.44.06h-.27l-.21,0-.15,0a.1.1,0,0,0-.06,0,.12.12,0,0,0-.09,0l0,0,.29-.51,0,0v0a.12.12,0,0,0,0,.08.24.24,0,0,0,.11.06.41.41,0,0,0,.16,0h.18a.58.58,0,0,0,.23,0,.47.47,0,0,0,.2-.1.46.46,0,0,0,.15-.16.52.52,0,0,0,.07-.23,2.4,2.4,0,0,1-.36.14,1,1,0,0,1-.35.05.86.86,0,0,1-.28,0,.73.73,0,0,1-.23-.13.65.65,0,0,1-.16-.21.55.55,0,0,1-.07-.28.54.54,0,0,1,.09-.31.8.8,0,0,1,.21-.2,1,1,0,0,1,.29-.12l.31,0a1.4,1.4,0,0,1,.43.06.88.88,0,0,1,.33.18.73.73,0,0,1,.22.3,1.2,1.2,0,0,1,.07.44,1,1,0,0,1-.09.44m-.22-3.73-.32-3.66h0l-.33-3.82a.07.07,0,0,0-.07-.07.07.07,0,0,0-.06.07l-.2,3.53-9-4L13,36.84l14.23,5.9-.39-4.47a5.82,5.82,0,0,0,2,.49l.4,7.4a.11.11,0,0,0,.22,0l.4-7.4a6.31,6.31,0,0,0,2-.49l-.4,4.47,14.24-5.9L40,51.9l-9,4-.2-3.53a.07.07,0,0,0-.07-.07.07.07,0,0,0-.06.07l-.34,3.82L30,59.86a.62.62,0,0,1-.62.59.62.62,0,0,1-.62-.59m2.68,3.79a1,1,0,0,1-.22.32,1.15,1.15,0,0,1-.33.21,1.29,1.29,0,0,1-.4.07,1.23,1.23,0,0,1-.39-.07,1.15,1.15,0,0,1-.33-.21,1,1,0,0,1-.22-.32.94.94,0,0,1-.08-.41.9.9,0,0,1,.08-.4,1,1,0,0,1,.22-.32,1.15,1.15,0,0,1,.33-.21,1,1,0,0,1,.39-.08,1.06,1.06,0,0,1,.4.08,1.15,1.15,0,0,1,.33.21,1,1,0,0,1,.22.32,1.06,1.06,0,0,1,.08.4,1.11,1.11,0,0,1-.08.41m17.7-35.58H46.2a29.67,29.67,0,0,1,3.47,13.84h4v.56h-4a29.85,29.85,0,0,1-3.45,13.85h2.9s-.32.44-.42.56H45.92A22.68,22.68,0,0,1,39,64.51l-.21.08c-.25.12-1.27.51-1.27.51-.65.23-1.7.53-1.7.53a20.88,20.88,0,0,0,9.44-8.75h-7c-.34,1.11-.72,2.17-1.13,3.16a15.43,15.43,0,0,1-4.27,6.21l-.46.06-.78.09c2.47-1.32,4.61-4.78,6.06-9.52H31.22l1.27-.56h5.34c.25-.86.48-1.75.68-2.67l.63-.28c-.22,1-.47,2-.74,3h7.19a29.14,29.14,0,0,0,3.52-13.85H44.66l.21-.56h4.24a29.11,29.11,0,0,0-3.55-13.84H38.39c.33,1.13.62,2.31.86,3.54l-.11,0-.42.16c-.26-1.32-.56-2.56-.9-3.74H36.75a3.67,3.67,0,0,0-.14-.56h1C36.17,22.69,34,19.2,31.46,18l.86.09.43.06a15.11,15.11,0,0,1,4.37,6.29c.41,1,.77,2,1.11,3.11h7a20.7,20.7,0,0,0-9.84-8.88s1.37.37,2.15.66c0,0,.79.29.91.35l.29.12a22.55,22.55,0,0,1,7.14,7.75h2.82ZM33,64.11l.06,0v0H32.2v0a.09.09,0,0,0,.07,0,.18.18,0,0,0,0-.07l.83-1.4H31.94l-.05,0a.12.12,0,0,0,0,.07h0V62.1h0a.1.1,0,0,0,0,.07.06.06,0,0,0,.05,0h1.69a.06.06,0,0,0,0,0,.08.08,0,0,0,0-.06h0v.48L33,63.91,33,64a.15.15,0,0,0,0,.06s0,0,0,0M50.38,24a.2.2,0,0,1-.24-.07l-.08.06,1,1.18.07-.06a1.12,1.12,0,0,1,0-.13.06.06,0,0,1,0-.09l.17-.08,1.59-.54.22-.09h0a1.94,1.94,0,0,0-.14.2c-.07.09-.89,1.3-.95,1.38a.89.89,0,0,1-.12.15s-.12,0-.22-.1l-.08.05.89,1.28.08-.06c-.07-.12,0-.21,0-.25l2.87-1.1.15-.05a.22.22,0,0,1,.14.06l.08-.06-.66-1-.08.06a.24.24,0,0,1,.07.13.13.13,0,0,1,0,.12l-2,.8v0s1.07-1.58,1.13-1.66l.1-.14a.11.11,0,0,1,.14,0,.31.31,0,0,1,.11.09l.07-.06-.9-1.18-.08.06a.34.34,0,0,1,.06.12.12.12,0,0,1,0,.13.81.81,0,0,1-.18.08l-1.88.65h0s1.26-1.69,1.28-1.7a.11.11,0,0,1,.13,0,.24.24,0,0,1,.11.09l.07-.06-.84-1-.07.06a.14.14,0,0,1,0,.06.12.12,0,0,1,0,.09S50.4,24,50.38,24m-13,22.46h0c0,.14.1.81.16,1.18h0c.25-.41.89-1.51,1-1.66,0,.09,0,1.22,0,1.49L39,47c0-.26,0-1.91-.05-2.33h0c-.16.29-.9,1.62-1.06,1.89,0-.17-.16-1.15-.2-1.42h0c-.18.37-1.32,2.83-1.4,3l.33.06c.09-.19.71-1.59.8-1.79M53.07,27.91a.18.18,0,0,1,0-.07l-.09.05.56,1,.09-.05a.08.08,0,0,1,0-.05s0-.05,0-.07l.1,0,.49,0L55,30.16s-.29.36-.33.39l-.07.07s-.06,0-.08,0l0-.05-.08.05.51,1.15.09-.05a.12.12,0,0,1,0-.09.13.13,0,0,1,0-.08c.1-.11,2.06-2.52,2.15-2.62a1.05,1.05,0,0,1,.15-.17s.09,0,.12,0l.09,0-.7-1.36-.09,0c0,.06,0,.1,0,.13a2.3,2.3,0,0,1-.36.05l-3.16.31a.1.1,0,0,1-.09,0m3.28.55-1,1.2-.57-1.08ZM28.29,62.61l-.14,0H27.9l-.13,0a.23.23,0,0,0-.11.08.27.27,0,0,0,0,.28.31.31,0,0,0,.11.08.33.33,0,0,0,.13,0l.13,0,.12,0a.37.37,0,0,0,.14,0L28.4,63a.27.27,0,0,0,0-.28.28.28,0,0,0-.11-.08M40,46.2l.87-.4s0,.51,0,.66l.53-.53c0-.25-.14-1.7-.21-2.24h0c-.32.49-1.75,2.81-2,3.14l.28.17c.12-.19.41-.72.47-.81m.87-1.5c0,.1,0,.57,0,.71l-.59.27c.1-.17.47-.81.58-1M23.43,48.22l-.16-.87c-.09-.46-.21-1.2-.22-1.28l-.55-.23c0,.08.2,1,.21,1l.09.49c0,.09.17.91.19,1.1.18.07,1,.47,1.05.5l-.1-.54c-.26-.09-.43-.18-.51-.21m11.15.17.86-.39s.12.47.16.61l.47-.5c-.09-.23-.47-1.57-.64-2.06h0c-.26.47-1.36,2.65-1.52,3l.33.16c.09-.18.32-.68.36-.77m.65-1.4c0,.1.12.52.15.65l-.59.27.44-.92M58.59,33.53a1,1,0,0,0-.46.28.47.47,0,0,0-.09.49.57.57,0,0,0,.25.34.54.54,0,0,0,.45,0,.55.55,0,0,0,.39-.31.79.79,0,0,0,0-.48.73.73,0,0,1,.47.11,1.55,1.55,0,0,1,.36.31l.23-.06a3.27,3.27,0,0,0-.3-.35,1.59,1.59,0,0,0-.37-.27,1.28,1.28,0,0,0-.43-.14,1.08,1.08,0,0,0-.5,0m-3.19-1.1a.12.12,0,0,1-.13,0,1,1,0,0,1-.09-.15l-.09,0,.49,1.38.09,0a.67.67,0,0,1,0-.17.13.13,0,0,1,.09-.1l2.92-1c.06,0,.1,0,.13,0a.49.49,0,0,1,.09.15l.09,0-.49-1.38-.09,0a.67.67,0,0,1,0,.17.12.12,0,0,1-.09.1ZM21,45.38c-.14.47-.44,1.73-.51,1.95l.49.46c0-.13.1-.54.11-.58l.86.35.38.71.32-.15c-.17-.28-1.37-2.31-1.64-2.74Zm.24.88.47.85-.58-.23c0-.13.09-.53.11-.62m.21-1.4-1.17-.48.12.49,1.17.49Zm12.22,4c-.23.11-.54.23-.6.26l.12-.83c.07-.47.18-1.22.2-1.3l-.47.19c0,.07-.14,1-.14,1l-.07.49c0,.09-.13.88-.17,1.08l1.06-.39Zm-3.06.67.94,0s.18.47.26.63l.44-.34c-.15-.29-.84-1.8-1.15-2.41h0c-.19.39-1,2.28-1.14,2.54l.43.31c.07-.16.22-.6.25-.68m.46-1.24c.05.12.26.62.32.78l-.63,0c.06-.14.26-.66.31-.81M18.71,44.23c0,.29-.09,1.25-.1,1.42-.18-.27-1-1.63-1.18-1.92h0c0,.43.1,2.12.11,2.39l.49.44c0-.28-.11-1.44-.11-1.54.09.16.79,1.28,1.07,1.7h0c0-.38.08-1.07.08-1.21h0c.11.2.8,1.63.9,1.82l.32-.06c-.1-.18-1.36-2.65-1.57-3Zm.49-31.39s.07,0,.09.08l1,3c0,.06,0,.1,0,.12a.35.35,0,0,1-.15.09l0,.09,1.39-.45,0-.09-.17,0s-.08,0-.1-.09l-1-3c0-.06,0-.1,0-.13l.15-.08,0-.1L19,12.77l0,.09a.4.4,0,0,1,.18,0M35.11,70.22a.5.5,0,0,0-.32,0,.57.57,0,0,1,.09-.35.85.85,0,0,1,.22-.24l0-.18a2.12,2.12,0,0,0-.24.2,1.06,1.06,0,0,0-.2.26,1,1,0,0,0-.11.31.93.93,0,0,0,0,.37.74.74,0,0,0,.16.37A.3.3,0,0,0,35,71a.34.34,0,0,0,.24-.16.45.45,0,0,0,.06-.33.46.46,0,0,0-.19-.32m3.62,1.15a.05.05,0,0,1,0,0l-1.43-2a1.62,1.62,0,0,1-.1-.15s0-.06.05-.08l0-.07-1,.27,0,.08s.08,0,.08,0a1.1,1.1,0,0,1,0,.28c0,.15-.16,2-.18,2.31a.06.06,0,0,1,0,.06.05.05,0,0,1,0,0l0,.08.72-.17,0-.08h0s0,0,0,0a.11.11,0,0,1,0-.08s0-.34,0-.37l1.13-.3.21.29a.13.13,0,0,1,0,.07.06.06,0,0,1,0,.06h0l0,.08.79-.24,0-.08h-.06m-2-.37.11-1.17.7,1ZM37,68.67l-.11-.38-1,.28.12.38Zm3,2.25s-.05,0-.07-.07l-.8-2.25a.07.07,0,0,1,0-.09l.1-.06,0-.08-.94.34,0,.07a.27.27,0,0,1,.12,0s0,0,.07.07l.8,2.25a.07.07,0,0,1,0,.09s-.06,0-.1.07l0,.07.94-.34,0-.07a.3.3,0,0,1-.12,0m3.22-1.42s0,0-.07-.06l-1-2.17a.09.09,0,0,1,0-.1l.08-.06,0-.07-.79.39,0,.07.1,0s.06,0,.08.07l.51,1.12L41,68c-.08-.05-.12-.07-.13-.09a.1.1,0,0,1,0-.09l.06,0,0-.07-1.1.47,0,.07h.1a.1.1,0,0,1,.07.06l1,2.17a.1.1,0,0,1,0,.09l-.07.06,0,.07.79-.34,0-.07a.18.18,0,0,1-.1,0,.07.07,0,0,1-.06-.06l-.69-1.49v0c.22.13,1,.56,1.2.65l.42.23c.11.07.17.11.19.15a.06.06,0,0,1,0,.08.25.25,0,0,1-.08,0l0,.07.83-.41,0-.07-.11,0m3-1.72s0,0-.06,0l-1.91-1.52a.51.51,0,0,1-.13-.12.05.05,0,0,1,0-.08l0-.07-.9.54,0,.06a.06.06,0,0,1,.09,0s0,.12.06.27.4,2,.46,2.28a.13.13,0,0,1,0,.06l0,0,0,.06.66-.36,0-.06h0s0,0,0,0,0,0,0-.08-.06-.31-.07-.35l1-.59.28.22,0,.06s0,0,0,.06l0,0,0,.07.7-.45,0-.06h-.06m-2,.19L44,66.82l.92.73ZM24.52,70.09a1.09,1.09,0,0,0-.37-.34,1.25,1.25,0,0,0-.45-.18,1.48,1.48,0,0,0-.47,0,1.19,1.19,0,0,0-.48.16,1.26,1.26,0,0,0-.4.37,1.74,1.74,0,0,0-.26,1.26,1.29,1.29,0,0,0,.22.49,1.46,1.46,0,0,0,.37.33,2.07,2.07,0,0,0,.45.17,1.55,1.55,0,0,0,.48,0,1.29,1.29,0,0,0,.47-.15,1.27,1.27,0,0,0,.4-.37,1.49,1.49,0,0,0,.25-.6,1.64,1.64,0,0,0,0-.66,1.29,1.29,0,0,0-.22-.49m-.43,1a.82.82,0,0,1-.12.3.52.52,0,0,1-.19.2.66.66,0,0,1-.24.11.89.89,0,0,1-.28,0,.77.77,0,0,1-.25-.1.81.81,0,0,1-.18-.19.79.79,0,0,1-.1-.27.88.88,0,0,1,0-.32.84.84,0,0,1,.12-.29.61.61,0,0,1,.19-.2.61.61,0,0,1,.52-.1.55.55,0,0,1,.25.1.61.61,0,0,1,.19.2.67.67,0,0,1,.09.26.82.82,0,0,1,0,.31m8.77,1.54s0,0,0,0-1-2.13-1-2.23a.5.5,0,0,1-.07-.16.07.07,0,0,1,.06-.07v-.07l-1.05.07v.08c.05,0,.07,0,.08,0s0,.11-.07.27-.55,1.94-.63,2.24a.05.05,0,0,1,0,0l-.06,0v.08l.75,0v-.07h0a0,0,0,0,1,0,0,.51.51,0,0,1,0-.09l.1-.34L32,72.27a3.31,3.31,0,0,1,.15.33.13.13,0,0,1,0,.08s0,0,0,0h0v.07l.82-.08v-.07l-.07,0M31,71.88l.34-1.12.49,1.07ZM19,68.29s.06,0,0,.08a1.81,1.81,0,0,1-.16.21l-1.5,1.79a.09.09,0,0,1-.05,0h-.07l0,.07.69.29,0-.07,0,0s0,0,0-.06l.05-.06.23-.28,1.09.41s0,.32,0,.36,0,.07,0,.08a0,0,0,0,1,0,0h0l0,.07.78.26,0-.06s0,0,0,0a.09.09,0,0,1,0-.06c0-.11,0-2.34,0-2.45v-.17a.07.07,0,0,1,.09,0l0-.08-1-.36Zm.28,1.89-.78-.29.77-.88Zm9.51.06.08,0s0,0,0,.09a.21.21,0,0,1-.06.08,1,1,0,0,1-.14.17l-.85.87,0-1.15s0-.08.05-.09l.09,0v-.08l-.94-.06v.08a.11.11,0,0,1,.08,0,.11.11,0,0,1,0,.1l-.08,2.39a.13.13,0,0,1,0,.09.15.15,0,0,1-.09,0v.07l.94.05v-.07l-.09,0s-.05,0-.05-.09l0-.51.45-.52s.46.93.48,1a.42.42,0,0,1,0,.09.09.09,0,0,1-.05.09h-.09v.08h1v-.08l-.07,0a.28.28,0,0,1-.05-.08l-.77-1.55.53-.57.26-.27a.5.5,0,0,1,.2-.13v-.07h-1ZM58.88,50.37s-.05,0-.1,0l-2.26-.74c-.05,0-.07,0-.08-.06a.34.34,0,0,1,0-.1l-.07,0-.25.85.07,0a.7.7,0,0,1,.06-.09s.05,0,.1,0l1.18.39-1.32.44-.14,0S56,51.06,56,51A.22.22,0,0,1,56,51l-.07,0-.4,1.13.07,0,.06-.08s.05,0,.09,0l2.27.73a.14.14,0,0,1,.08.06v.1l.07,0,.29-.81-.08,0a.22.22,0,0,1-.05.08s0,0-.09,0l-1.57-.51h0c.24-.07,1.11-.38,1.3-.44l.45-.15a.49.49,0,0,1,.23,0s0,0,0,.07a.24.24,0,0,1,0,.09l.07,0,.27-.89-.07,0-.06.08M59,47.13a1.43,1.43,0,0,0-.6-.25,1.64,1.64,0,0,0-.66,0,1.47,1.47,0,0,0-.49.22,1.37,1.37,0,0,0-.34.38,1.44,1.44,0,0,0-.17.45,1.53,1.53,0,0,0,0,.48,1.14,1.14,0,0,0,.16.47,1.55,1.55,0,0,0,.37.4,1.69,1.69,0,0,0,.61.24,1.59,1.59,0,0,0,.65,0A1.23,1.23,0,0,0,59,49.3a1.19,1.19,0,0,0,.33-.38,1.74,1.74,0,0,0,.17-.45,1.89,1.89,0,0,0,0-.48,1.38,1.38,0,0,0-.16-.47,1.14,1.14,0,0,0-.37-.39m-.13,1.21a.63.63,0,0,1-.1.25.69.69,0,0,1-.19.19.82.82,0,0,1-.26.1.87.87,0,0,1-.32,0,.82.82,0,0,1-.3-.11.91.91,0,0,1-.2-.19.8.8,0,0,1-.11-.25.61.61,0,0,1,0-.27.76.76,0,0,1,.11-.26.66.66,0,0,1,.19-.18.67.67,0,0,1,.26-.1,1.18,1.18,0,0,1,.32,0,.73.73,0,0,1,.3.12.61.61,0,0,1,.2.19.64.64,0,0,1,.1.24.62.62,0,0,1,0,.27m.8-13.09a1.16,1.16,0,0,1,0,.17s0,.07-.1.09l-3,.64c-.06,0-.1,0-.12,0a.48.48,0,0,1-.07-.16h-.1l.3,1.44.1,0a.57.57,0,0,1,0-.18.11.11,0,0,1,.1-.08l3-.64c.06,0,.1,0,.12,0a.4.4,0,0,1,.07.16l.1,0-.29-1.44ZM29.34,7.68A34.51,34.51,0,1,0,63.85,42.19,34.55,34.55,0,0,0,29.34,7.68m0,67.82A33.32,33.32,0,1,1,62.66,42.19,33.35,33.35,0,0,1,29.34,75.5M16.73,69.1l.37-.73-.06,0a.14.14,0,0,1-.07.09H16.9L16.06,68l.23-.45,1.3.66a.1.1,0,0,1,.05.06.16.16,0,0,1,0,.12l.05,0,.38-.75-.05,0s0,.08-.08.08a.08.08,0,0,1-.07,0l-2-1,0,.07.07.06a.09.09,0,0,1,0,.1l-1.08,2.13s0,.06-.08.06l-.09,0,0,.06,2,1s.06,0,.07,0a.19.19,0,0,1,0,.11l.05,0,.37-.73-.05,0c-.07.09-.13.11-.19.08L15.54,69l.28-.56.84.43a.09.09,0,0,1,0,.06.17.17,0,0,1,0,.11ZM57.29,53.21a1.47,1.47,0,0,0-.54-.37,1.6,1.6,0,0,0-.64-.15,1.52,1.52,0,0,0-.53.11,1.2,1.2,0,0,0-.4.3,1.48,1.48,0,0,0-.27.4,1.47,1.47,0,0,0-.11.47,1.08,1.08,0,0,0,.06.5,1.24,1.24,0,0,0,.28.46,1.56,1.56,0,0,0,.54.37,1.43,1.43,0,0,0,.64.14,1.29,1.29,0,0,0,.53-.11,1.14,1.14,0,0,0,.39-.3,1.36,1.36,0,0,0,.26-.41,1.64,1.64,0,0,0,.12-.46,1.17,1.17,0,0,0-.33-.95m-.38,1.16a.69.69,0,0,1-.16.22.64.64,0,0,1-.22.14.66.66,0,0,1-.28.05,1.29,1.29,0,0,1-.31-.08,1.06,1.06,0,0,1-.27-.18.62.62,0,0,1-.15-.22.65.65,0,0,1-.05-.27.75.75,0,0,1,.05-.26.79.79,0,0,1,.16-.23.59.59,0,0,1,.23-.14.77.77,0,0,1,.27,0,.75.75,0,0,1,.31.08.73.73,0,0,1,.27.17.87.87,0,0,1,.16.23.8.8,0,0,1,0,.26.66.66,0,0,1-.06.27M48.49,66.12s-.06,0-.09,0l-1.47-1.87a.09.09,0,0,1,0-.1A.32.32,0,0,1,47,64l0-.06-.78.61,0,.06.11,0s.06,0,.09,0l1.48,1.87a.08.08,0,0,1,0,.09.22.22,0,0,1-.08.09l0,.06.78-.61,0-.06-.11.06M54.27,60h-.06l-2.32-.74-.16-.07s0,0,0-.09l-.06,0-.65.82.06.05s.06,0,.09,0l.15.23c.09.14,1.07,1.71,1.24,2a.07.07,0,0,1,0,.06l0,.06.06.05.48-.58-.06,0s0,0,0,0,0,0-.05,0l0-.06-.19-.3.72-.92.34.11.07,0a.06.06,0,0,1,0,.06l0,0,.06.05.48-.67L54.32,60a.07.07,0,0,1,0,0m-1.82.91-.61-1,1.12.34Zm-.2,1.61h-.08l-1.67-.46c0-.09-.06-.65-.07-.79s0-.26,0-.37a.55.55,0,0,1,0-.23l-.05,0-.67.73.05,0,.08,0a.09.09,0,0,1,.09,0,.66.66,0,0,1,0,.1c0,.06,0,.13,0,.22s.07,1.14.07,1.21l-.83-.8a.07.07,0,0,1,0-.1s0-.05,0-.08l0-.05-.67.65.06.06a.11.11,0,0,1,.07-.06.12.12,0,0,1,.09,0l1.72,1.66a.09.09,0,0,1,0,.09.08.08,0,0,1,0,.08l.06,0,.67-.66-.05-.05-.09.05s-.06,0-.09,0l-.37-.35-.08-.68,1,.29.09,0s.05.07,0,.1a.28.28,0,0,1,0,.08l.06.05.68-.75,0-.05-.07,0m3.6-5s-.05,0-.09,0l-.66-.4.28-.48a1.66,1.66,0,0,0,.16-.33.76.76,0,0,0,0-.33.65.65,0,0,0-.13-.33,1.15,1.15,0,0,0-.34-.3,1.09,1.09,0,0,0-.43-.16.76.76,0,0,0-.34,0,.83.83,0,0,0-.27.19,1.48,1.48,0,0,0-.22.29l-.68,1.14.07,0,0,0a.12.12,0,0,1,.1,0l2.05,1.23a.1.1,0,0,1,.06.07.35.35,0,0,1,0,.06l.07,0,.44-.75-.06,0a.18.18,0,0,1-.07,0m-1-1.09-.25.41L54,56.51l.27-.44c.06-.11.13-.18.21-.19a.4.4,0,0,1,.29.08.38.38,0,0,1,.2.22.48.48,0,0,1-.08.3m-52.33-30a.12.12,0,0,1,.13,0L5.35,28.1a.1.1,0,0,1,.06.11.88.88,0,0,1-.06.17l.08.05.77-1.25-.09-.05a.81.81,0,0,1-.11.13.09.09,0,0,1-.13,0L3.21,25.64a.13.13,0,0,1-.07-.11.82.82,0,0,1,.06-.16l-.08-.05-.76,1.24.08.05a.51.51,0,0,1,.12-.13m8.1-9.08s.07,0,.1.06L12.51,20a.11.11,0,0,1,0,.12l-.06.08,0,.08,1-.75-.06-.08a.27.27,0,0,1-.13.05s-.07,0-.11-.06l-.62-.92.59-.4.93.52.18.12a.09.09,0,0,1,0,.11.3.3,0,0,1-.08.08l.06.08,1.31-.82-.06-.08a.28.28,0,0,1-.15,0,.41.41,0,0,1-.16,0L14,17.61a1.43,1.43,0,0,0,.26-.66,1,1,0,0,0-.19-.71,1,1,0,0,0-.75-.51,1.27,1.27,0,0,0-.89.26l-1.94,1.36.06.08a.45.45,0,0,1,.11,0m2-.65a.56.56,0,0,1,.44-.15.47.47,0,0,1,.27.19.41.41,0,0,1,.08.36.63.63,0,0,1-.25.3l-.87.58-.5-.72ZM21.75,13a.17.17,0,0,1,0-.15s0-.05.08-.05l1-.21L23.37,15q0,.09,0,.12a.22.22,0,0,1-.11,0l0,.1,1.3-.26,0-.1a.21.21,0,0,1-.11,0s-.07,0-.08-.1l-.49-2.45,1-.2a.12.12,0,0,1,.1,0,.22.22,0,0,1,.07.13h.09l-.24-1.17-.09,0a.18.18,0,0,1,0,.15s-.05.05-.08.05l-3,.61a.18.18,0,0,1-.1,0s0-.06-.07-.14l-.09,0L21.66,13ZM3.81,24.48l.07,0,.28.07,2.61,1,.26.1a.14.14,0,0,1,0,.1.23.23,0,0,1,0,.1l.07.06,1-1.23L8,24.57a.15.15,0,0,1-.09.06.14.14,0,0,1-.11,0,2.05,2.05,0,0,1-.15-.22C7.56,24.27,6.08,21.85,6,21.8s0-.06,0-.1a.18.18,0,0,1,0-.09L6,21.55l-.79.93.08.06.07-.08a.08.08,0,0,1,.1,0,1.71,1.71,0,0,1,.15.23l1,1.66h0l-1.89-.69-.16-.06a.07.07,0,0,1,0-.1l.06-.1-.07-.06L3.7,24.46l.07.06s0,0,0,0M6.7,20.76l.06.07.13-.08A.11.11,0,0,1,7,20.8l2.11,2.26a.1.1,0,0,1,0,.12.46.46,0,0,1-.08.13l.06.07,2.38-2.28a.48.48,0,0,1,.11-.08s.07,0,.14,0l.06,0-.71-.76-.07.06c.07.12.07.21,0,.28L9.51,22,9,21.43l1-.94a.1.1,0,0,1,.09,0,.24.24,0,0,1,.13.08l.07-.06-.72-.77-.07.06c0,.06.08.1.07.14a.13.13,0,0,1,0,.09l-1,.94-.45-.48L9.62,19a.14.14,0,0,1,.09,0s.09,0,.14.08L9.92,19l-.75-.8-.06.07a.21.21,0,0,1,.07.13.19.19,0,0,1,0,.09Zm8.94-4.7a1.16,1.16,0,0,0,.53.07,2.63,2.63,0,0,0,.6-.11l.56-.17a1.38,1.38,0,0,1,.45-.09.23.23,0,0,1,.26.13.26.26,0,0,1,0,.21.68.68,0,0,1-.13.18l-.19.13a1.18,1.18,0,0,1-.16.08,2.35,2.35,0,0,1-.45.17,4.52,4.52,0,0,1-.47.11,1.75,1.75,0,0,1-.38,0c-.11,0-.17,0-.19-.08s0,0,0-.05a0,0,0,0,1,0,0h-.11l.17,1.12h.09a.3.3,0,0,1,0-.1.11.11,0,0,1,.07-.08l.17,0,.39-.07a3.59,3.59,0,0,0,.49-.13,2.82,2.82,0,0,0,.51-.19,3.09,3.09,0,0,0,.63-.38,1.28,1.28,0,0,0,.35-.44,1,1,0,0,0,.11-.46,1,1,0,0,0-.1-.45.82.82,0,0,0-.39-.44,1.19,1.19,0,0,0-.53-.09,2.53,2.53,0,0,0-.6.11l-.57.17a3.71,3.71,0,0,1-.44.1.22.22,0,0,1-.25-.12.21.21,0,0,1,0-.23.84.84,0,0,1,.18-.2l.24-.16.18-.08a1.74,1.74,0,0,1,.36-.13l.33-.06h.25q.11,0,.12,0l0,0a.06.06,0,0,0,0,0h.11l0-1.11h-.08l0,.08a.11.11,0,0,1-.07.08l-.19.05-.34.07-.42.12a2.5,2.5,0,0,0-.47.18,2,2,0,0,0-.65.42,1.5,1.5,0,0,0-.34.49,1.35,1.35,0,0,0-.09.47,1.12,1.12,0,0,0,.09.4.79.79,0,0,0,.38.42M14.13,65.67h-.06l-1.85-1.33-.05.06a.21.21,0,0,1,.06.08.08.08,0,0,1,0,.1l-1.39,1.94s-.06,0-.09,0a.16.16,0,0,1-.09,0l-.05.06,1.83,1.3.06.07s0,0,0,.11l0,0,.49-.67-.05,0c-.08.07-.15.09-.2.05l-1.16-.83.36-.5.77.55,0,0s0,.07,0,.12l0,0,.47-.66-.05,0a.16.16,0,0,1-.09.08H13l-.77-.55.29-.42,1.2.86a.09.09,0,0,1,0,.06.19.19,0,0,1,0,.11l0,0,.49-.69,0,0s-.06.07-.09.07M38.25,16a.49.49,0,0,1-.13-.08.12.12,0,0,1,0-.13l.36-1,1.28.44a.13.13,0,0,1,.07.06.21.21,0,0,1,0,.17l.08,0,.36-1-.08,0q0,.11-.09.12H40L38.7,14l.24-.71,1.89.66a.21.21,0,0,1,.08.06.25.25,0,0,1,0,.16l.09,0,.36-1.05-.08,0c0,.08-.06.12-.1.13h-.09l-3-1.06,0,.09.15.09a.1.1,0,0,1,0,.12l-1,3a.13.13,0,0,1-.1.09l-.15,0,0,.09,1.34.41ZM25.82,11.32a.14.14,0,0,1,.1.06l1.49,2,.05,1a.13.13,0,0,1-.05.11l-.1,0v.1l1.3-.07v-.1l-.11,0a.17.17,0,0,1-.06-.11l-.05-1.08,1.14-2.1a.16.16,0,0,1,.09-.07l.1,0V11l-1.44,0v.1s.05,0,.09,0a.07.07,0,0,1,.06.08.55.55,0,0,1-.08.21l-.51.92-.68-.9a.35.35,0,0,1-.07-.17s0-.07.06-.08h.11v-.1l-1.56.14v.09h.11m7.44,3.14a2,2,0,0,0,.56.43,2.92,2.92,0,0,0,.67.22,2.34,2.34,0,0,0,.7,0,2,2,0,0,0,.69-.2,1.66,1.66,0,0,0,.56-.47,1.63,1.63,0,0,0,.32-.78,1.72,1.72,0,0,0,0-.85,1.62,1.62,0,0,0-.34-.65,1.89,1.89,0,0,0-.57-.44,2.61,2.61,0,0,0-.66-.24,2.4,2.4,0,0,0-.71,0,2,2,0,0,0-.68.2,2,2,0,0,0-.56.48,2.05,2.05,0,0,0-.31,1.64,1.73,1.73,0,0,0,.35.64m.58-1.32a.87.87,0,0,1,.15-.38.75.75,0,0,1,.27-.26.87.87,0,0,1,.35-.13.9.9,0,0,1,.4,0,1.09,1.09,0,0,1,.37.14,1,1,0,0,1,.28.25.89.89,0,0,1,.16.34,1,1,0,0,1,0,.42,1.08,1.08,0,0,1-.15.38.75.75,0,0,1-.27.26.93.93,0,0,1-.35.13.9.9,0,0,1-.4,0,1.09,1.09,0,0,1-.37-.14A1.14,1.14,0,0,1,34,13.9a.89.89,0,0,1-.16-.34,1,1,0,0,1,0-.42m9.74,5.3a.36.36,0,0,1-.11-.1.12.12,0,0,1,0-.13l.65-1,1.39.87-.66,1a.13.13,0,0,1-.11.07l-.14,0,0,.08,1.15.8,0-.09a.36.36,0,0,1-.11-.1s0-.08,0-.13L47.31,17c0-.05.07-.08.11-.07a.65.65,0,0,1,.15.05l0-.08-1.16-.8-.05.08a.5.5,0,0,1,.1.11s0,.07,0,.12l-.54.89-1.39-.87.55-.89c0-.05.07-.07.11-.06a.53.53,0,0,1,.15.05l0-.08-1.22-.7-.05.08a.55.55,0,0,1,.11.1.12.12,0,0,1,0,.13l-1.65,2.65c0,.05-.06.07-.11.06a.34.34,0,0,1-.14-.05l0,.08,1.21.7Zm-39,41.79,1.43-2a.8.8,0,0,1,.1-.13s.07,0,.09,0l.06-.05-.58-.87-.06,0s0,.07,0,.09l-.26.08L3.13,58a.08.08,0,0,1-.07,0,.08.08,0,0,1,0,0L3,58l.4.64.06,0s0,0,0,0a.05.05,0,0,1,0,0l.08,0,.35-.08.64,1s-.18.26-.21.29l0,.06s-.05,0-.06,0,0,0,0,0l-.06,0,.48.67.06,0,0-.06a.14.14,0,0,1,0-.06m-.31-2L5.46,58l-.68,1Zm4.1,2.64.08.07.06,0L8,60.24l-.06,0s0,0,0,.05a.1.1,0,0,1,0,.08l-1.19,1a.36.36,0,0,1-.35.11A.51.51,0,0,1,6,61.29a.54.54,0,0,1-.15-.35A.38.38,0,0,1,6,60.62l1.19-1s.07,0,.09,0l.05,0,.06,0-.55-.72-.06,0,.05.1s0,.06-.05.09L5.72,60a2.15,2.15,0,0,0-.33.35,1,1,0,0,0-.18.4.89.89,0,0,0,0,.45,1.35,1.35,0,0,0,.28.48,1.6,1.6,0,0,0,.42.38,1,1,0,0,0,.43.12,1.08,1.08,0,0,0,.43-.1,1.87,1.87,0,0,0,.41-.26l1.09-.9a.13.13,0,0,1,.1,0m2.17,3.45.78-.11.37,0a.36.36,0,0,1,.23,0l0-.06-.76-.63-.05.05a.59.59,0,0,1,0,.08.08.08,0,0,1,0,.09l-.1,0-.22,0L9.69,64l.76-.87a.09.09,0,0,1,.1,0l.09,0,0-.06L10,62.41l-.05.06a.13.13,0,0,1,.06.07s0,.06,0,.1l-1.57,1.8s-.06,0-.09,0a.12.12,0,0,1-.08,0l-.05.06.7.63.05,0A.41.41,0,0,1,8.87,65s0-.06,0-.09l.34-.39.67-.11s-.23,1-.24,1.06a.19.19,0,0,1,0,.09.1.1,0,0,1-.1,0l-.07,0,0,0,.78.65.05,0a.09.09,0,0,1,0-.06.14.14,0,0,1,0-.09Zm-5.65-8.1s.07,0,.09,0l.06,0,.06,0-.54-1-.07,0a.14.14,0,0,1,0,.06s0,0,0,0l-.15,0-1,.08s.56-.62.63-.7l.14-.14s0,0,0,0a.1.1,0,0,1,0,0l.07,0-.47-1-.07,0a.22.22,0,0,1,0,.08.09.09,0,0,1-.06.08L1.6,55a.12.12,0,0,1-.1,0L1.45,55l-.07,0,.33.72.07,0a.52.52,0,0,1,0-.11s0-.05.06-.07l1.61-.83h0L2.15,56.14l2-.16h0l-1.61.83s-.07,0-.09,0a.23.23,0,0,1-.07-.07l-.06,0,.41.73.06,0a.22.22,0,0,1,0-.08.1.1,0,0,1,.06-.07ZM2.57,51.37l.14-.11a.06.06,0,0,1,.08,0l.08,0-.33-1-.07,0s0,.07,0,.08H2.16l-2.33-.06a.09.09,0,0,1-.06,0l0,0-.07,0,.21.72L0,51a.06.06,0,0,1,0,0s0,0,0,0H.06l.36,0L.78,52l-.28.22-.07,0s0,0-.06,0l0,0-.07,0L.56,53l.07,0a.06.06,0,0,1,0-.06.05.05,0,0,1,0,0l1.91-1.52M2.08,51l-.92.74L.9,50.91ZM.23,31.39a.1.1,0,0,1,.13,0L3.2,32.65q.09,0,.09.09a.35.35,0,0,1,0,.14l.09,0,.46-1.18-.09,0a1,1,0,0,1-.08.11.12.12,0,0,1-.13,0L1.56,31v0c.33-.08.65-.17,1-.27l.84-.25L4,30.23a.59.59,0,0,1,.32,0,.09.09,0,0,1,.05.11c0,.05,0,.09,0,.13l.09,0L5,29.24l-.09,0a.25.25,0,0,1-.09.13s-.07,0-.12,0L1.82,28.07a.11.11,0,0,1-.08-.1.49.49,0,0,1,0-.15l-.08,0L1.11,29l.09,0a.62.62,0,0,1,.08-.12.12.12,0,0,1,.13,0l1.48.66-.69.21-.63.18-.48.14c-.12,0-.16.05-.2,0A.11.11,0,0,1,.79,30a.31.31,0,0,1,0-.1l-.09,0L.06,31.47l.09,0a.36.36,0,0,1,.08-.12M49.32,18.93l-2.85,1.42h-.08a.2.2,0,0,1-.08,0l-.07.07.88.72.06-.07,0-.05s0,0,0-.07a.17.17,0,0,1,.09-.06l.43-.21L49,21.78s-.14.44-.16.48a.89.89,0,0,1,0,.1.07.07,0,0,1-.07,0l0,0-.06.07.88.89.07-.07a.2.2,0,0,1-.06-.07.14.14,0,0,1,0-.09c0-.14,1-3.08,1.07-3.21l.09-.22a.09.09,0,0,1,.13,0l.06-.07-1.13-1-.06.07c0,.05,0,.09,0,.12a1.69,1.69,0,0,1-.31.18m-.15,2.24-.92-.81,1.4-.66ZM1.24,37a1.34,1.34,0,0,0,.56-.16,1.34,1.34,0,0,0,.45-.44,2.52,2.52,0,0,0,.31-.77,2.49,2.49,0,0,0,.08-.82,1.33,1.33,0,0,0-.2-.6,1.34,1.34,0,0,0-.42-.4,2,2,0,0,0-.58-.23l-1.68-.42a.11.11,0,0,1-.1-.09v-.15l-.09,0L-.8,34.2l.1,0a.23.23,0,0,1,0-.07.14.14,0,0,1,.12,0l1.92.47a.48.48,0,0,1,.38.31.92.92,0,0,1,0,.55,1,1,0,0,1-.26.49A.49.49,0,0,1,1,36l-1.93-.47A.13.13,0,0,1-1,35.5a.28.28,0,0,1,0-.09l-.1,0-.25,1.3.09,0a.91.91,0,0,1,.07-.14.12.12,0,0,1,.13,0L.62,37a2.25,2.25,0,0,0,.62.06m-1,12.5a2,2,0,0,0,.48,0l1.38-.29c.05,0,.08,0,.1,0a.36.36,0,0,1,0,.09h.08l-.22-.88-.07,0,0,0s0,0-.08.05l-1.5.32A.4.4,0,0,1,0,48.78a.62.62,0,0,1-.18-.33.59.59,0,0,1,0-.38.39.39,0,0,1,.31-.21l1.49-.31c.05,0,.08,0,.1,0l0,0,.08,0-.16-.89H1.65a.37.37,0,0,1,0,.11s0,0-.08.06l-1.38.29a2,2,0,0,0-.45.16,1,1,0,0,0-.34.27A.9.9,0,0,0-.79,48a1.54,1.54,0,0,0,0,.56,1.54,1.54,0,0,0,.21.53.78.78,0,0,0,.33.3.94.94,0,0,0,.42.12" transform="translate(5.17 -6.97)"/><path class="cls-4" d="M87.55,18.93c0-1.35,0-1.59,0-1.87s-.08-.43-.37-.49a1.37,1.37,0,0,0-.29,0,.07.07,0,0,1-.07-.06s0-.06.14-.06l1,0,.86,0c.09,0,.13,0,.13.06s0,.06-.07.06a.9.9,0,0,0-.21,0c-.23,0-.3.19-.32.49s0,.52,0,1.87v1.2A2.68,2.68,0,0,0,89,22.27a1.7,1.7,0,0,0,1.3.47,1.82,1.82,0,0,0,1.36-.62,3.41,3.41,0,0,0,.5-2.12V18.93c0-1.35,0-1.59,0-1.87s-.09-.43-.37-.49a1.42,1.42,0,0,0-.29,0s-.07,0-.07-.06,0-.06.13-.06l.92,0,.72,0c.1,0,.14,0,.14.06s0,.06-.07.06a.9.9,0,0,0-.21,0c-.24.05-.31.19-.32.49s0,.52,0,1.87v.92a3.36,3.36,0,0,1-.79,2.58,2.54,2.54,0,0,1-1.78.64,2.7,2.7,0,0,1-1.78-.61,2.87,2.87,0,0,1-.75-2.27Z" transform="translate(5.17 -6.97)"/><path class="cls-4" d="M94.8,22c0,.6.08.78.29.83a1.58,1.58,0,0,0,.38,0,.06.06,0,0,1,.06.06s0,.06-.14.06c-.43,0-.73,0-.8,0s-.39,0-.73,0c-.08,0-.12,0-.12-.06a.05.05,0,0,1,.06-.06,1,1,0,0,0,.31,0c.19-.05.21-.25.21-.91v-4.2c0-.3.05-.37.11-.37s.21.14.29.22l2.4,2.5c.75.78,1.56,1.65,1.79,1.89l-.07-3.67c0-.48-.06-.64-.29-.69l-.37,0c-.05,0-.06,0-.06-.07s.06-.05.15-.05l.79,0,.65,0c.07,0,.13,0,.13.05a.08.08,0,0,1-.08.07.69.69,0,0,0-.18,0c-.25.05-.27.2-.27.64l0,4.29c0,.49,0,.53-.06.53s-.15-.06-.58-.45c-.07-.07-1.17-1.15-2-2s-1.74-1.82-2-2.08Z" transform="translate(5.17 -6.97)"/><path class="cls-4" d="M102.3,20.82c0,.7,0,1.28,0,1.58s0,.36.27.39l.35,0a.06.06,0,0,1,.06.06s0,.06-.12.06c-.42,0-.92,0-1,0l-.75,0q-.12,0-.12-.06a.05.05,0,0,1,.06-.06.93.93,0,0,0,.23,0c.15,0,.17-.17.2-.39s0-.88,0-1.58v-1.3c0-1.14,0-1.34,0-1.58s-.08-.36-.25-.39l-.23,0a.06.06,0,0,1-.06-.06s0-.06.12-.06l.77,0,.76,0q.12,0,.12.06a.07.07,0,0,1-.06.06.76.76,0,0,0-.19,0c-.21,0-.25.14-.27.4s0,.44,0,1.58Z" transform="translate(5.17 -6.97)"/><path class="cls-4" d="M106.92,22c.44-1,1.43-3.49,1.59-4a1,1,0,0,0,.07-.28.14.14,0,0,0-.1-.15.77.77,0,0,0-.26,0s-.09,0-.09-.06.06-.06.18-.06l.74,0,.59,0c.08,0,.13,0,.13.05s0,.07-.09.07a.66.66,0,0,0-.36.09c-.11.07-.23.17-.43.67-.08.21-.45,1.09-.84,2-.47,1.07-.8,1.87-1,2.23s-.25.55-.32.55-.14-.09-.29-.45L104.6,18.1c-.18-.42-.28-.49-.53-.55a1.26,1.26,0,0,0-.29,0,.07.07,0,0,1-.06-.07s.07-.05.2-.05l.89,0,.7,0c.14,0,.21,0,.21.05a.07.07,0,0,1-.08.07,1.12,1.12,0,0,0-.27,0c-.08,0-.09.08-.09.13a2.7,2.7,0,0,0,.21.62Z" transform="translate(5.17 -6.97)"/><path class="cls-4" d="M111.08,19.52c0-1.14,0-1.34,0-1.58s-.06-.37-.31-.4l-.26,0a.06.06,0,0,1-.06-.06s0-.06.12-.06l.88,0h1.81a3.16,3.16,0,0,0,.35-.05l.1,0s0,0,0,.07a3.37,3.37,0,0,0-.07.34,4.4,4.4,0,0,1,0,.49s0,.07-.07.07-.06,0-.06-.09a1,1,0,0,0,0-.26c0-.12-.13-.17-.54-.22-.13,0-1,0-1.1,0s0,0,0,.08v2s0,.08,0,.08,1.1,0,1.27,0,.29,0,.37-.1.09-.1.11-.1,0,0,0,.06,0,.17-.06.41,0,.42,0,.47,0,.14-.07.14,0,0,0-.07a.57.57,0,0,0,0-.24c0-.1-.09-.19-.39-.22s-1,0-1.14,0,0,0,0,.05v.62c0,.25,0,1.1,0,1.25,0,.49.15.58.9.58a2.8,2.8,0,0,0,.76-.07.58.58,0,0,0,.35-.51c0-.09,0-.12.08-.12s0,.06,0,.12a4.89,4.89,0,0,1-.11.7c0,.19-.13.19-.42.19l-1.32,0-.63,0h-.33l-.44,0q-.12,0-.12-.06a.06.06,0,0,1,.06-.06,2,2,0,0,0,.24,0c.14,0,.16-.17.19-.39a12.84,12.84,0,0,0,0-1.58Z" transform="translate(5.17 -6.97)"/><path class="cls-4" d="M115.54,19.52c0-1.14,0-1.34,0-1.58s-.06-.37-.31-.4l-.26,0a.06.06,0,0,1-.06-.06s0-.06.12-.06l.9,0,1,0a2.45,2.45,0,0,1,1.41.32,1.29,1.29,0,0,1,.53,1,2.16,2.16,0,0,1-.93,1.67c.62.78,1.14,1.44,1.58,1.9a1.4,1.4,0,0,0,.85.51,1.21,1.21,0,0,0,.27,0,.06.06,0,0,1,.06.06s0,.06-.18.06H120a1.56,1.56,0,0,1-.81-.15,3.83,3.83,0,0,1-1-1.08c-.32-.4-.65-.87-.82-1.07a.12.12,0,0,0-.1,0l-1,0s0,0,0,.06v.17c0,.71,0,1.28,0,1.58s.06.36.3.39l.34,0s0,0,0,.06,0,.06-.12.06c-.41,0-.89,0-.93,0l-.75,0q-.12,0-.12-.06a.06.06,0,0,1,.06-.06.85.85,0,0,0,.23,0c.15,0,.17-.17.2-.39a12.84,12.84,0,0,0,.05-1.58Zm.65.62a.12.12,0,0,0,0,.1,2.64,2.64,0,0,0,.84.11,1,1,0,0,0,.57-.13,1.3,1.3,0,0,0,.46-1.12,1.26,1.26,0,0,0-1.31-1.44,3.16,3.16,0,0,0-.55,0,.1.1,0,0,0-.06.09Z" transform="translate(5.17 -6.97)"/><path class="cls-4" d="M120.91,22.84c-.1-.05-.11-.07-.11-.27,0-.37,0-.66,0-.78s0-.12.06-.12.07,0,.07.09a.9.9,0,0,0,0,.26,1.11,1.11,0,0,0,1.19.73c.76,0,1.14-.42,1.14-1s-.28-.77-1-1.27l-.35-.26c-.82-.62-1.09-1.06-1.09-1.57,0-.86.69-1.38,1.69-1.38a3.9,3.9,0,0,1,.78.08.88.88,0,0,0,.27,0c.06,0,.08,0,.08.05a6.74,6.74,0,0,0,0,.78c0,.11,0,.16-.06.16s-.06,0-.07-.09a1.58,1.58,0,0,0-.11-.37c0-.08-.3-.36-1-.36s-1,.28-1,.79.23.74,1,1.25l.22.14c.92.63,1.24,1.14,1.24,1.77a1.41,1.41,0,0,1-.71,1.25A2.3,2.3,0,0,1,122,23a2.72,2.72,0,0,1-1.1-.2" transform="translate(5.17 -6.97)"/><path class="cls-4" d="M126.35,20.82c0,.7,0,1.28,0,1.58s0,.36.27.39l.35,0a.06.06,0,0,1,.06.06s0,.06-.12.06c-.42,0-.92,0-1,0l-.75,0q-.12,0-.12-.06a.06.06,0,0,1,.06-.06.93.93,0,0,0,.23,0c.15,0,.17-.17.2-.39s0-.88,0-1.58v-1.3c0-1.14,0-1.34,0-1.58s-.08-.36-.25-.39l-.23,0a.06.06,0,0,1-.06-.06s0-.06.12-.06l.77,0,.76,0c.09,0,.12,0,.12.06a.06.06,0,0,1-.06.06.76.76,0,0,0-.19,0c-.21,0-.25.14-.27.4s0,.44,0,1.58Z" transform="translate(5.17 -6.97)"/><path class="cls-4" d="M130.74,20.82c0,.7,0,1.28,0,1.58s.06.36.29.39l.35,0a.05.05,0,0,1,.06.06s0,.06-.12.06c-.42,0-.9,0-.94,0l-.79,0q-.12,0-.12-.06a.06.06,0,0,1,.06-.06.91.91,0,0,0,.23,0c.15,0,.19-.18.22-.4s0-.88,0-1.58V17.74H129c-.48,0-.66.06-.77.24s-.09.18-.12.23,0,.07-.08.07a.06.06,0,0,1,0-.06c0-.08.16-.73.17-.8s.05-.13.07-.13a2.09,2.09,0,0,0,.34.08,5.52,5.52,0,0,0,.59,0H132a3.21,3.21,0,0,0,.54,0l.22,0s0,0,0,.08c0,.23,0,.76,0,.84s0,.1-.07.1,0,0-.06-.13v-.08c0-.22-.19-.39-.92-.41h-.94Z" transform="translate(5.17 -6.97)"/><path class="cls-4" d="M135.84,21a1.33,1.33,0,0,0-.16-.75c-.06-.11-1.09-1.74-1.35-2.13a1.91,1.91,0,0,0-.5-.54.72.72,0,0,0-.32-.1.07.07,0,0,1-.07-.07s0-.05.09-.05l.75,0,.66,0c.08,0,.1,0,.1.05s0,.05-.12.08a.13.13,0,0,0-.1.12.69.69,0,0,0,.11.29l1.38,2.28c.15-.31,1.1-1.88,1.24-2.12a.74.74,0,0,0,.13-.38c0-.1,0-.17-.12-.19s-.11-.05-.11-.09,0,0,.12,0l.52,0,.75,0s.09,0,.09,0a.09.09,0,0,1-.09.08.79.79,0,0,0-.36.1,1.24,1.24,0,0,0-.38.36,26.58,26.58,0,0,0-1.47,2.33,1.46,1.46,0,0,0-.1.73v.63c0,.12,0,.43,0,.73s.07.36.29.39l.35,0a.06.06,0,0,1,.06.06s0,.06-.12.06c-.43,0-.92,0-1,0l-.74,0c-.09,0-.12,0-.12-.06a.05.05,0,0,1,.06-.06.93.93,0,0,0,.22,0c.16,0,.21-.17.22-.39s0-.61,0-.73Z" transform="translate(5.17 -6.97)"/><path class="cls-4" d="M141.75,21.41A2.47,2.47,0,0,1,144,18.72a1.66,1.66,0,0,1,1.83,1.78,2.49,2.49,0,0,1-2.41,2.6,1.61,1.61,0,0,1-1.71-1.69m.69.14c0,.73.32,1.3,1.11,1.29,1.16,0,1.62-1.66,1.62-2.57,0-.67-.34-1.29-1.08-1.29-1.2,0-1.65,1.61-1.65,2.57" transform="translate(5.17 -6.97)"/><path class="cls-4" d="M149.42,19l0,.31h-1.1l-.38,2.08a7,7,0,0,1-.52,1.73,5.89,5.89,0,0,1-1,1.59c-.22-.13-.21-.17-.1-.31a3.79,3.79,0,0,0,.86-2l.53-3.09h-.86l0-.31h.86c.3-1.72,1.15-2.77,1.72-2.77.16,0,.31.13.3.38s-.17.5-.28.5,0-.27-.35-.27c-.51,0-.57.95-.78,2.16Z" transform="translate(5.17 -6.97)"/><path class="cls-4" d="M159.22,20.45c0,.82,0,1.5,0,1.87s.08.44.34.47l.39,0s.07,0,.07.05-.05.07-.14.07c-.48,0-1,0-1.06,0L158,23c-.09,0-.14,0-.14-.07s0-.05.07-.05a1.17,1.17,0,0,0,.26,0c.17,0,.22-.22.25-.47s0-1.05,0-1.87v-.91a0,0,0,0,0-.05-.05h-3.65s-.06,0-.06.05v.91a18.22,18.22,0,0,0,.05,1.87c0,.25.07.44.33.47l.39,0c.05,0,.07,0,.07.05s0,.07-.14.07c-.47,0-1,0-1.06,0l-.84,0c-.1,0-.14,0-.14-.07s0-.05.07-.05a1.27,1.27,0,0,0,.26,0c.17,0,.21-.22.25-.47s0-1.05,0-1.87V18.93c0-1.35,0-1.59,0-1.87s-.08-.43-.37-.49a1.37,1.37,0,0,0-.29,0s-.07,0-.07-.06,0-.06.14-.06l1,0,.85,0c.09,0,.14,0,.14.06a.07.07,0,0,1-.07.06,1,1,0,0,0-.22,0c-.23.05-.3.19-.32.49s0,.52,0,1.87v.18s0,.05.06.05h3.65s.05,0,.05-.05v-.18c0-1.35,0-1.59,0-1.87s-.09-.43-.37-.49a1.46,1.46,0,0,0-.3,0,.07.07,0,0,1-.07-.06s0-.06.14-.06l1,0,.84,0c.1,0,.14,0,.14.06s0,.06-.07.06a.9.9,0,0,0-.21,0c-.24.05-.31.19-.32.49s0,.52,0,1.87Z" transform="translate(5.17 -6.97)"/><path class="cls-4" d="M163.34,17.55c.1-.24.13-.29.18-.29s.11.11.19.27,1.35,3.34,1.82,4.45c.27.66.48.75.64.8a1,1,0,0,0,.3,0c.05,0,.1,0,.1.06s-.09.06-.17.06-.68,0-1.2,0c-.15,0-.27,0-.27-.05s0,0,0-.05a.14.14,0,0,0,.07-.2L164.37,21s0-.05-.07-.05h-1.75s-.06,0-.08.06L162,22.14a1.46,1.46,0,0,0-.11.49c0,.14.13.2.26.2h.07c.06,0,.07,0,.07.06s0,.06-.11.06l-.68,0c-.08,0-.46,0-.77,0-.09,0-.14,0-.14-.06s0-.06.07-.06l.22,0c.34,0,.49-.3.64-.67Zm.85,3.05s0,0,0-.05l-.75-2c0-.11-.08-.11-.13,0l-.7,2s0,.05,0,.05Z" transform="translate(5.17 -6.97)"/><path class="cls-4" d="M172.15,21.86h0c.2-.6.88-2.73,1.15-3.67a1.69,1.69,0,0,0,.08-.45c0-.13-.06-.22-.4-.22a.07.07,0,0,1-.07-.07s0-.05.13-.05l.77,0,.61,0c.07,0,.11,0,.11,0a.07.07,0,0,1-.07.08l-.26,0c-.22.08-.34.38-.49.78-.34.93-1.09,3.26-1.39,4.08-.2.55-.24.63-.33.63s-.15-.09-.25-.38l-1.48-4c-.26.64-1.29,3.32-1.56,4-.13.31-.18.39-.27.39s-.14-.08-.29-.58l-1.35-4.34c-.12-.39-.2-.49-.4-.56a1.61,1.61,0,0,0-.34,0,.06.06,0,0,1-.07-.07s.05-.05.12-.05l.9,0,.79,0c.11,0,.14,0,.14.05a.07.07,0,0,1-.08.07.71.71,0,0,0-.27,0,.15.15,0,0,0-.1.16,4.14,4.14,0,0,0,.15.68c.12.47.89,3.16,1,3.46h0l1.58-4.1c.11-.29.17-.33.21-.33s.11.09.21.34Z" transform="translate(5.17 -6.97)"/><path class="cls-4" d="M176.66,17.55c.09-.24.12-.29.18-.29s.1.11.18.27,1.35,3.34,1.82,4.45c.27.66.48.75.64.8a1,1,0,0,0,.31,0s.09,0,.09.06-.08.06-.17.06-.67,0-1.2,0c-.15,0-.27,0-.27-.05s0,0,0-.05a.14.14,0,0,0,.07-.2L177.68,21s0-.05-.07-.05h-1.75a.09.09,0,0,0-.08.06l-.43,1.18a1.46,1.46,0,0,0-.11.49c0,.14.13.2.26.2h.07c.06,0,.07,0,.07.06s0,.06-.11.06l-.68,0c-.08,0-.45,0-.77,0-.09,0-.14,0-.14-.06s0-.06.07-.06l.22,0c.34,0,.49-.3.64-.67Zm.84,3.05s0,0,0-.05l-.75-2c-.05-.11-.09-.11-.13,0l-.71,2s0,.05,0,.05Z" transform="translate(5.17 -6.97)"/><path class="cls-4" d="M181.82,20.82c0,.7,0,1.28,0,1.58s0,.36.27.39l.35,0a.06.06,0,0,1,.06.06s0,.06-.12.06c-.43,0-.92,0-.95,0l-.75,0q-.12,0-.12-.06a.05.05,0,0,1,.06-.06.93.93,0,0,0,.23,0c.15,0,.17-.17.2-.39s0-.88,0-1.58v-1.3c0-1.14,0-1.34,0-1.58s-.07-.36-.24-.39l-.23,0a.06.06,0,0,1-.06-.06s0-.06.12-.06l.77,0,.76,0q.12,0,.12.06a.07.07,0,0,1-.06.06.72.72,0,0,0-.19,0c-.21,0-.25.14-.27.4s0,.44,0,1.58Z" transform="translate(5.17 -6.97)"/><path class="cls-4" d="M184.52,17.8c.07.07.08.1.08.14s0,0-.08,0a2.64,2.64,0,0,1-.6-.15.21.21,0,0,1-.15-.22,3.09,3.09,0,0,1,.74-1.7.12.12,0,0,1,.12-.07,0,0,0,0,1,0,0,.24.24,0,0,1,0,.11,3.07,3.07,0,0,0-.28,1.24,1,1,0,0,0,.17.56" transform="translate(5.17 -6.97)"/><path class="cls-4" d="M187.33,20.82c0,.7,0,1.28,0,1.58s0,.36.28.39l.34,0a.06.06,0,0,1,.06.06s0,.06-.12.06c-.42,0-.91,0-.95,0l-.75,0q-.12,0-.12-.06a.06.06,0,0,1,.06-.06.93.93,0,0,0,.23,0c.15,0,.18-.17.2-.39a15.27,15.27,0,0,0,0-1.58v-1.3c0-1.14,0-1.34,0-1.58s-.08-.36-.24-.39l-.24,0a.06.06,0,0,1-.06-.06s0-.06.12-.06l.77,0,.76,0c.09,0,.12,0,.12.06a.06.06,0,0,1-.06.06.76.76,0,0,0-.19,0c-.21,0-.25.14-.27.4v2.88Z" transform="translate(5.17 -6.97)"/><path class="cls-4" d="M80.75,43.05c0,3.54,0,5.45.58,6s1.19.6,3.35.6c1.46,0,2.54,0,3.23-.77a3.37,3.37,0,0,0,.72-1.66c0-.25.09-.42.31-.42s.22.14.22.47a22.27,22.27,0,0,1-.42,3.19c-.16.6-.3.74-1.74.74-2,0-3.43,0-4.67-.08S80.08,51,79,51c-.3,0-.91,0-1.58,0s-1.35.06-1.91.06c-.36,0-.55-.08-.55-.28s.11-.22.44-.22a4.26,4.26,0,0,0,1-.11c.55-.11.69-.72.8-1.52.14-1.16.14-3.35.14-5.89V38.18c0-4.21,0-5-.06-5.87s-.27-1.38-1.18-1.57a3.91,3.91,0,0,0-.92-.09c-.3,0-.47,0-.47-.25s.19-.25.61-.25c1.3,0,3,.09,3.79.09s2.68-.09,3.76-.09c.39,0,.58.06.58.25s-.16.25-.49.25a6.74,6.74,0,0,0-1.08.09c-.75.13-1,.61-1,1.57s0,1.66,0,5.87Z" transform="translate(5.17 -6.97)"/><path class="cls-4" d="M92.92,40.09c0-3.57,0-4.24,0-5s-.27-1-1-1.28a4.88,4.88,0,0,0-1-.08c-.24,0-.41-.08-.41-.25s.19-.22.55-.22c1.27,0,2.82.06,3.52.06s6.17,0,6.64,0a10.06,10.06,0,0,0,1-.14,2.63,2.63,0,0,1,.39-.11c.13,0,.16.11.16.22a9.69,9.69,0,0,0-.19,1.52c0,.25-.08,1.27-.14,1.55,0,.11-.08.39-.28.39s-.19-.11-.19-.31a2.23,2.23,0,0,0-.17-.86c-.19-.41-.38-.74-1.6-.85-.42-.06-3.32-.11-3.82-.11-.11,0-.16.08-.16.22v5.81c0,.14,0,.25.16.25.56,0,3.71,0,4.26-.06s.94-.11,1.16-.36.28-.3.39-.3.19.11.19.25,0,.52-.19,1.71c-.06.47-.11,1.41-.11,1.58s0,.52-.25.52-.22-.08-.22-.19,0-.55-.08-.86c-.14-.47-.45-.83-1.36-.91-.44,0-3.21-.11-3.82-.11-.11,0-.13.11-.13.25v1.88c0,.8,0,2.79,0,3.49,0,1.6.8,2,3.29,2a6.69,6.69,0,0,0,2.29-.3c.61-.28.89-.78,1.06-1.75,0-.25.11-.36.27-.36s.22.31.22.56a15.8,15.8,0,0,1-.33,2.6c-.16.61-.39.61-1.3.61-1.82,0-3.29,0-4.48-.09s-2.1,0-2.82,0L93,51c-.58,0-1.19.06-1.68.06-.31,0-.47-.08-.47-.25s.08-.25.38-.25a3.92,3.92,0,0,0,.86-.08c.5-.11.64-.55.72-1.25.11-1,.11-2.85.11-5Z" transform="translate(5.17 -6.97)"/><path class="cls-4" d="M107.72,40.09c0-3.57,0-4.24,0-5s-.27-1-1-1.28a4.84,4.84,0,0,0-1-.08c-.25,0-.42-.08-.42-.25s.19-.22.55-.22c1.28,0,2.82.06,3.52.06s6.17,0,6.64,0a10.06,10.06,0,0,0,1-.14,2.63,2.63,0,0,1,.39-.11c.14,0,.16.11.16.22a9.69,9.69,0,0,0-.19,1.52c0,.25-.08,1.27-.14,1.55,0,.11-.08.39-.28.39s-.19-.11-.19-.31a2.23,2.23,0,0,0-.17-.86c-.19-.41-.38-.74-1.6-.85-.41-.06-3.32-.11-3.82-.11-.11,0-.16.08-.16.22v5.81c0,.14,0,.25.16.25.56,0,3.71,0,4.26-.06s.94-.11,1.16-.36.28-.3.39-.3a.23.23,0,0,1,.2.25c0,.13-.06.52-.2,1.71,0,.47-.11,1.41-.11,1.58s0,.52-.25.52-.22-.08-.22-.19,0-.55-.08-.86c-.14-.47-.44-.83-1.36-.91-.44,0-3.21-.11-3.82-.11-.11,0-.13.11-.13.25v1.88c0,.8,0,2.79,0,3.49.05,1.6.8,2,3.29,2a6.66,6.66,0,0,0,2.29-.3c.61-.28.89-.78,1.06-1.75.05-.25.11-.36.27-.36s.22.31.22.56a15.8,15.8,0,0,1-.33,2.6c-.16.61-.39.61-1.3.61-1.82,0-3.29,0-4.48-.09s-2.1,0-2.82,0l-1.39,0c-.58,0-1.19.06-1.68.06-.31,0-.47-.08-.47-.25s.08-.25.38-.25a3.92,3.92,0,0,0,.86-.08c.5-.11.64-.55.72-1.25.11-1,.11-2.85.11-5Z" transform="translate(5.17 -6.97)"/><path class="cls-4" d="M121.28,35.58c-.31-.86-.5-1.41-.86-1.64a2.06,2.06,0,0,0-.94-.19c-.25,0-.39-.08-.39-.25s.19-.22.55-.22c1.25,0,2.61.06,2.83.06s1.41-.06,2.82-.06c.36,0,.52.06.52.22s-.19.25-.44.25a1.68,1.68,0,0,0-.61.11c-.22.08-.25.22-.25.47a14.14,14.14,0,0,0,.53,2.16c.41,1.55,2.63,8.66,3,9.74h.08l4.65-12c.25-.66.5-.86.72-.86s.5.36.8,1.11l4.87,11.59h.08c.47-1.35,2.33-7.55,3.18-10.29a4.88,4.88,0,0,0,.25-1.35c0-.39-.22-.67-1.19-.67-.22,0-.41-.11-.41-.25s.19-.22.58-.22c1.27,0,2.38.06,2.6.06s1.22-.06,2-.06c.28,0,.44.06.44.19s-.11.28-.33.28a3.33,3.33,0,0,0-.86.11c-.58.22-.86,1.11-1.35,2.46-1.14,3-3.63,10.43-4.82,14-.27.83-.41,1.1-.77,1.1s-.5-.27-.86-1.13l-5-11.59h-.06c-.41,1-3.68,9.32-4.67,11.48-.44,1-.58,1.24-.94,1.24s-.45-.24-.67-.85Z" transform="translate(5.17 -6.97)"/><path class="cls-4" d="M148.94,45.15c-.14,0-.16,0-.22.17l-1.3,3.15a4.22,4.22,0,0,0-.36,1.44c0,.41.22.66,1,.66h.36c.3,0,.36.11.36.25s-.14.25-.39.25c-.8,0-1.93-.08-2.71-.08-.25,0-1.55.08-2.82.08-.31,0-.44-.06-.44-.25a.24.24,0,0,1,.27-.25l.72,0c1.11-.17,1.52-.89,2-2.08l6.36-14.8c.28-.67.47-.94.72-.94s.47.22.72.75c.58,1.3,4.65,10.92,6.2,14.49.94,2.13,1.63,2.44,2.08,2.52a5.18,5.18,0,0,0,.91.08c.22,0,.33.08.33.25s-.14.25-1.05.25S159,51.07,157,51c-.44,0-.72,0-.72-.19s.06-.22.31-.25a.37.37,0,0,0,.22-.52l-1.88-4.73a.24.24,0,0,0-.25-.17Zm5.2-1.3c.11,0,.14-.06.11-.14l-2.29-6c0-.09-.06-.23-.11-.23s-.11.14-.14.23l-2.35,5.94c-.06.11,0,.17.08.17Z" transform="translate(5.17 -6.97)"/><path class="cls-4" d="M164.66,40.09c0-3.57,0-4.24,0-5s-.28-1-1-1.28a5,5,0,0,0-1-.08c-.25,0-.42-.08-.42-.25s.2-.22.56-.22c1.27,0,2.82.06,3.32.06.83,0,3-.06,3.79-.06a8.5,8.5,0,0,1,4.62,1,4.11,4.11,0,0,1,1.71,3.23c0,1.75-1,3.3-3.37,5.21,2.16,2.65,3.87,4.78,5.34,6.25a4.63,4.63,0,0,0,2.6,1.55,2.52,2.52,0,0,0,.58,0,.28.28,0,0,1,.3.25c0,.19-.16.25-.47.25h-2.32a5.32,5.32,0,0,1-2.66-.47c-1.05-.53-2-1.63-3.32-3.46-1-1.27-2-2.85-2.29-3.21a.56.56,0,0,0-.45-.16L168,43.71a.18.18,0,0,0-.2.19v.34c0,2.18,0,4,.14,5,.09.7.2,1.14.94,1.25a10.33,10.33,0,0,0,1.19.08.29.29,0,0,1,.31.25c0,.17-.2.25-.5.25-1.41,0-3.43-.08-3.79-.08s-2,.08-3,.08c-.3,0-.47-.08-.47-.25s.08-.25.39-.25a3.92,3.92,0,0,0,.86-.08c.49-.11.63-.55.72-1.25.11-1,.11-2.85.11-5Zm3.09,1.82c0,.25.06.34.23.42a6.85,6.85,0,0,0,1.85.22,2.39,2.39,0,0,0,1.71-.39,4,4,0,0,0,1.58-3.48c0-3.32-2.27-4.18-3.71-4.18a9.53,9.53,0,0,0-1.43.08.29.29,0,0,0-.23.33Z" transform="translate(5.17 -6.97)"/><path class="cls-4" d="M183.41,40.09c0-3.57,0-4.24,0-5s-.27-1-1-1.28a4.84,4.84,0,0,0-1-.08c-.25,0-.42-.08-.42-.25s.2-.22.55-.22c1.28,0,2.83.06,3.52.06s2.49-.06,3.95-.06c3.05,0,7.14,0,9.8,2.69a8.24,8.24,0,0,1,2.29,6,9.15,9.15,0,0,1-2.65,6.56c-1.11,1.1-3.68,2.76-8.16,2.76-.89,0-1.94-.08-2.91-.13s-1.85-.14-2.46-.14c-.28,0-.8,0-1.38,0s-1.19,0-1.69,0c-.31,0-.47-.08-.47-.25s.08-.25.38-.25a3.39,3.39,0,0,0,.86-.08c.5-.11.64-.55.72-1.24.11-1,.11-2.86.11-5Zm3.27,2.6c0,2.49,0,4.29,0,4.76a4.4,4.4,0,0,0,.28,1.66c.3.44,1.27.94,3.18.94a7.65,7.65,0,0,0,5.31-1.61c1.58-1.3,2.08-3.4,2.08-5.84a7.65,7.65,0,0,0-2.27-5.86,9.83,9.83,0,0,0-6.81-2.24,5.21,5.21,0,0,0-1.49.16.43.43,0,0,0-.31.48c0,.8,0,2.73,0,4.59Z" transform="translate(5.17 -6.97)"/><path class="cls-4" d="M78.13,62.09a3.95,3.95,0,0,1-.07-5.7,4.36,4.36,0,0,1,3.16-1.06,10,10,0,0,1,1.46.1c.38,0,.7.14,1,.17.11,0,.15.06.15.12s0,.2,0,.55,0,.88,0,1.08,0,.23-.12.23-.1-.08-.1-.22a1.43,1.43,0,0,0-.39-.92,3,3,0,0,0-2-.62,2.61,2.61,0,0,0-1.88.62,3.75,3.75,0,0,0,2.23,6.17A2.18,2.18,0,0,0,83.29,62a1.67,1.67,0,0,0,.34-.66c0-.16.05-.2.13-.2s.09.07.09.15a9.5,9.5,0,0,1-.22,1.33.35.35,0,0,1-.26.3,5.82,5.82,0,0,1-1.81.23,5,5,0,0,1-3.43-1.1" transform="translate(5.17 -6.97)"/><path class="cls-4" d="M85.15,59.82a3.38,3.38,0,0,1,3.7-3.34c2.23,0,3.61,1.23,3.61,3.19a3.45,3.45,0,0,1-3.7,3.49,3.33,3.33,0,0,1-3.61-3.34m6,.16c0-1.89-1.14-3-2.56-3-1,0-2.13.52-2.13,2.63,0,1.75,1,3.14,2.66,3.14.62,0,2-.3,2-2.72" transform="translate(5.17 -6.97)"/><path class="cls-4" d="M95,56.63c0-.14.1-.22.17-.22s.15,0,.27.27l2.36,4.75,2.37-4.81c.07-.14.15-.21.23-.21s.17.09.2.27l.8,5.26c.08.54.16.77.43.85a1.74,1.74,0,0,0,.5.08c.08,0,.14,0,.14.08s-.1.1-.23.1L100.41,63c-.21,0-.26-.05-.26-.1a.11.11,0,0,1,.1-.09s.07-.12,0-.37l-.49-3.68h0l-1.9,3.8c-.2.41-.25.49-.35.49s-.21-.17-.35-.43-.91-1.7-1-1.94-.59-1.23-.88-1.82h0l-.42,3.32a2.83,2.83,0,0,0,0,.41c0,.16.11.22.27.25a1.52,1.52,0,0,0,.31,0c.08,0,.14,0,.14.08s-.08.1-.21.1c-.37,0-.78,0-.94,0l-.87,0c-.09,0-.16,0-.16-.1s0-.08.14-.08l.27,0c.24,0,.32-.37.36-.66Z" transform="translate(5.17 -6.97)"/><path class="cls-4" d="M104.74,56.63c0-.14.1-.22.17-.22s.15,0,.27.27l2.37,4.75,2.36-4.81c.07-.14.15-.21.23-.21s.17.09.2.27l.8,5.26c.08.54.16.77.43.85a1.84,1.84,0,0,0,.51.08c.08,0,.14,0,.14.08s-.1.1-.23.1L110.16,63c-.21,0-.26-.05-.26-.1a.11.11,0,0,1,.1-.09s.07-.12,0-.37l-.49-3.68h0l-1.89,3.8c-.2.41-.25.49-.35.49s-.22-.17-.36-.43-.91-1.7-1-1.94-.59-1.23-.88-1.82h0l-.42,3.32a2.83,2.83,0,0,0,0,.41c0,.16.12.22.27.25a1.52,1.52,0,0,0,.31,0c.08,0,.14,0,.14.08s-.08.1-.21.1c-.37,0-.77,0-.93,0l-.88,0c-.08,0-.15,0-.15-.1s.05-.08.13-.08l.28,0c.24,0,.32-.37.36-.66Z" transform="translate(5.17 -6.97)"/><path class="cls-4" d="M113.47,59.07c0-1.3,0-1.54,0-1.81s-.1-.38-.38-.46a1.58,1.58,0,0,0-.34,0q-.15,0-.15-.09c0-.06.06-.08.19-.08l1.32,0,1.13,0c.13,0,.19,0,.19.08s0,.09-.14.09a1.22,1.22,0,0,0-.26,0c-.23,0-.3.16-.32.46s0,.51,0,1.81v1.19c0,1.24.24,1.72.67,2.06a1.73,1.73,0,0,0,1.12.34,1.68,1.68,0,0,0,1.18-.45,2.72,2.72,0,0,0,.51-2.07V59.07c0-1.3,0-1.54,0-1.81s-.09-.38-.37-.46a1.51,1.51,0,0,0-.32,0q-.15,0-.15-.09c0-.06.06-.08.18-.08l1,0,1,0c.12,0,.18,0,.18.08s0,.09-.15.09a1.22,1.22,0,0,0-.26,0c-.24,0-.3.16-.32.46s0,.51,0,1.81V60a3.17,3.17,0,0,1-.84,2.57,2.74,2.74,0,0,1-1.86.61,3,3,0,0,1-2-.59,2.73,2.73,0,0,1-.8-2.25Z" transform="translate(5.17 -6.97)"/><path class="cls-4" d="M122.32,61.88c0,.67.13.87.3.93a1.48,1.48,0,0,0,.46,0c.1,0,.15,0,.15.1s-.08.09-.2.09c-.57,0-1,0-1.14,0s-.5,0-1,0c-.12,0-.2,0-.2-.09s.06-.1.14-.1a1.8,1.8,0,0,0,.4,0c.23-.07.26-.3.27-1l.08-5c0-.17.06-.29.15-.29s.23.13.38.28,1.43,1.46,2.72,2.72c.6.59,1.77,1.79,1.9,1.91h0l-.09-3.79c0-.52-.09-.67-.3-.75a1.48,1.48,0,0,0-.46,0c-.11,0-.14,0-.14-.09s.09-.08.22-.08l1.12,0,.86,0c.12,0,.2,0,.2.08s0,.09-.15.09a.89.89,0,0,0-.27,0c-.24.07-.31.22-.32.7l-.1,5.38c0,.18-.07.27-.14.27a.5.5,0,0,1-.36-.19c-.55-.51-1.65-1.56-2.57-2.45s-1.9-2-2.07-2.11h0Z" transform="translate(5.17 -6.97)"/><path class="cls-4" d="M130.49,59.07c0-1.3,0-1.54,0-1.81s-.11-.39-.3-.45a1.12,1.12,0,0,0-.32,0c-.09,0-.14,0-.14-.1s.07-.07.21-.07l1.18,0,1.13,0c.11,0,.18,0,.18.07s0,.1-.14.1a1.22,1.22,0,0,0-.26,0c-.24,0-.31.16-.33.46s0,.51,0,1.81v1.5c0,.82,0,1.5,0,1.86s.09.37.35.4a2.22,2.22,0,0,0,.45,0c.1,0,.14,0,.14.1s-.07.09-.17.09c-.58,0-1.18,0-1.42,0s-.8,0-1.15,0c-.11,0-.17,0-.17-.09s0-.1.14-.1a.93.93,0,0,0,.31,0c.18,0,.23-.15.26-.41s0-1,0-1.85Z" transform="translate(5.17 -6.97)"/><path class="cls-4" d="M136.07,57.12l-1.31,0c-.51,0-.72.07-.85.26a1,1,0,0,0-.15.29c0,.07,0,.11-.1.11s-.08-.05-.08-.14.17-1,.19-1,0-.16.1-.16.16.07.38.1a8.26,8.26,0,0,0,.88,0h3.58a3.89,3.89,0,0,0,.6,0l.24,0c.06,0,.07.05.07.18s0,.81,0,1,0,.14-.08.14-.09,0-.1-.17v-.09c0-.22-.25-.48-1-.49l-1.11,0v3.45c0,.78,0,1.45.05,1.82s.08.41.34.45a3.31,3.31,0,0,0,.45,0c.1,0,.14,0,.14.1s-.07.09-.17.09c-.58,0-1.18,0-1.43,0l-1.15,0c-.11,0-.17,0-.17-.09s0-.1.14-.1a1.33,1.33,0,0,0,.31,0c.18,0,.23-.21.26-.46s0-1,0-1.81Z" transform="translate(5.17 -6.97)"/><path class="cls-4" d="M142.75,60.83a1.7,1.7,0,0,0-.2-.89c-.06-.13-1.26-2-1.58-2.46a1.94,1.94,0,0,0-.57-.6.87.87,0,0,0-.37-.11c-.07,0-.13,0-.13-.09s.06-.08.17-.08l1.1,0,1,0c.08,0,.13,0,.13.08s-.06.07-.2.11-.12.06-.12.13a.66.66,0,0,0,.11.29c.16.26,1.31,2.26,1.46,2.5.11-.2,1.18-2,1.31-2.29A1.12,1.12,0,0,0,145,57c0-.08,0-.16-.19-.19s-.16,0-.16-.1,0-.08.15-.08l.87,0,.94,0c.1,0,.16,0,.16.07s-.07.1-.17.1a1.07,1.07,0,0,0-.38.1,1.18,1.18,0,0,0-.46.4A26.9,26.9,0,0,0,144,60a2,2,0,0,0-.11.85v.68c0,.14,0,.49,0,.85s.1.42.36.46a3.37,3.37,0,0,0,.44,0c.1,0,.15.05.15.09s-.07.09-.19.09c-.55,0-1.14,0-1.38,0l-1.14,0c-.12,0-.19,0-.19-.09s0-.09.14-.09a1.35,1.35,0,0,0,.31,0c.18,0,.25-.21.27-.46s0-.71,0-.85Z" transform="translate(5.17 -6.97)"/><path class="cls-4" d="M152.07,62.09a4,4,0,0,1-.07-5.7,4.37,4.37,0,0,1,3.17-1.06,9.89,9.89,0,0,1,1.45.1c.38,0,.7.14,1,.17.11,0,.15.06.15.12s0,.2-.05.55,0,.88,0,1.08,0,.23-.12.23-.1-.08-.1-.22a1.43,1.43,0,0,0-.39-.92,3,3,0,0,0-2-.62,2.63,2.63,0,0,0-1.89.62,3.75,3.75,0,0,0,2.24,6.17,2.17,2.17,0,0,0,1.83-.57,1.67,1.67,0,0,0,.34-.66c0-.16.05-.2.13-.2s.09.07.09.15a9.5,9.5,0,0,1-.22,1.33.35.35,0,0,1-.26.3,5.79,5.79,0,0,1-1.8.23,5,5,0,0,1-3.44-1.1" transform="translate(5.17 -6.97)"/><path class="cls-4" d="M159.1,59.82a3.38,3.38,0,0,1,3.7-3.34c2.22,0,3.6,1.23,3.6,3.19a3.44,3.44,0,0,1-3.69,3.49,3.33,3.33,0,0,1-3.61-3.34m6,.16c0-1.89-1.13-3-2.55-3-1,0-2.14.52-2.14,2.63,0,1.75,1,3.14,2.67,3.14.62,0,2-.3,2-2.72" transform="translate(5.17 -6.97)"/><path class="cls-4" d="M169.6,60.57c0,1.09,0,1.63.19,1.79s.49.19,1.18.19c.47,0,.81,0,1-.25a1,1,0,0,0,.22-.51c0-.08,0-.13.1-.13s.08.09.08.19a6.74,6.74,0,0,1-.13,1c-.06.19-.1.23-.56.23-.64,0-1.15,0-1.59,0L169,63h-.5l-.61,0c-.11,0-.17,0-.17-.09s0-.09.14-.09a1.3,1.3,0,0,0,.31,0c.18,0,.23-.21.26-.46s0-1,0-1.81v-1.5c0-1.3,0-1.54,0-1.81s-.1-.38-.38-.46a1.17,1.17,0,0,0-.29,0q-.15,0-.15-.09c0-.06.06-.08.19-.08l1.21,0,1.27,0c.13,0,.19,0,.19.08s0,.09-.16.09a2,2,0,0,0-.34,0c-.24,0-.31.16-.33.46s0,.51,0,1.81Z" transform="translate(5.17 -6.97)"/><path class="cls-4" d="M175.64,60.57c0,1.09,0,1.63.19,1.79s.49.19,1.17.19c.47,0,.81,0,1-.25a1,1,0,0,0,.22-.51c0-.08,0-.13.1-.13s.08.09.08.19a6.74,6.74,0,0,1-.13,1c-.06.19-.1.23-.56.23-.63,0-1.14,0-1.58,0L175,63h-.5l-.61,0c-.11,0-.17,0-.17-.09s0-.09.14-.09a1.3,1.3,0,0,0,.31,0c.18,0,.23-.21.26-.46s0-1,0-1.81v-1.5c0-1.3,0-1.54,0-1.81s-.1-.38-.38-.46a1.17,1.17,0,0,0-.29,0q-.15,0-.15-.09c0-.06.06-.08.19-.08l1.21,0,1.28,0c.13,0,.19,0,.19.08s-.05.09-.16.09a2,2,0,0,0-.34,0c-.24,0-.31.16-.33.46s0,.51,0,1.81Z" transform="translate(5.17 -6.97)"/><path class="cls-4" d="M180.33,59.07c0-1.3,0-1.54,0-1.81s-.1-.38-.38-.46a1.62,1.62,0,0,0-.35,0c-.1,0-.16,0-.16-.09s.08-.08.21-.08l1.27,0c.28,0,2.23,0,2.4,0s.3,0,.37,0l.14,0c.05,0,.06,0,.06.08a3.17,3.17,0,0,0-.06.55c0,.09,0,.46-.06.56s0,.14-.09.14-.07,0-.07-.11a.84.84,0,0,0-.07-.31c-.07-.15-.14-.27-.58-.31-.15,0-1.2,0-1.38,0s-.06,0-.06.08v2.11s0,.09.06.09c.2,0,1.34,0,1.54,0s.34,0,.42-.13.1-.11.15-.11.06,0,.06.09,0,.19-.06.62a5.27,5.27,0,0,0-.05.57c0,.07,0,.19-.08.19s-.09,0-.09-.07,0-.2,0-.31-.16-.3-.49-.33c-.16,0-1.16,0-1.38,0,0,0-.05,0-.05.09v.68c0,.29,0,1,0,1.26,0,.58.29.71,1.19.71a2.38,2.38,0,0,0,.83-.11c.22-.1.33-.28.39-.63,0-.09,0-.13.1-.13s.08.11.08.2a5.87,5.87,0,0,1-.12,1c-.06.22-.15.22-.48.22-.66,0-1.19,0-1.62,0l-1,0-.5,0-.62,0c-.1,0-.17,0-.17-.09s0-.1.15-.1a.84.84,0,0,0,.3,0c.19,0,.24-.2.27-.45s0-1,0-1.81Z" transform="translate(5.17 -6.97)"/><path class="cls-4" d="M191.87,62.47c0,.23,0,.24-.11.31a5.47,5.47,0,0,1-2.15.38c-2.17,0-4.08-1-4.08-3.34A3.15,3.15,0,0,1,187.07,57a4.44,4.44,0,0,1,2.38-.55,10,10,0,0,1,1.56.14,7,7,0,0,0,.7.09c.11,0,.12,0,.12.1a11.53,11.53,0,0,0-.06,1.4c0,.13-.05.19-.12.19s-.08,0-.09-.11a1.13,1.13,0,0,0-.3-.7,2.73,2.73,0,0,0-1.91-.65,2.28,2.28,0,0,0-2.52,2.58,3,3,0,0,0,3.07,3.16,1.61,1.61,0,0,0,.62-.08.3.3,0,0,0,.17-.31v-.78c0-.42,0-.74,0-1s-.1-.38-.38-.46a1.58,1.58,0,0,0-.34,0c-.08,0-.14,0-.14-.09s.07-.08.19-.08l1.35,0,1,0c.12,0,.18,0,.18.08a.1.1,0,0,1-.11.09l-.25,0c-.24,0-.33.16-.34.46s0,.6,0,1Z" transform="translate(5.17 -6.97)"/><path class="cls-4" d="M194.51,59.07c0-1.3,0-1.54,0-1.81s-.1-.38-.38-.46a1.62,1.62,0,0,0-.35,0c-.09,0-.15,0-.15-.09s.07-.08.2-.08l1.27,0c.28,0,2.24,0,2.41,0s.3,0,.37,0a1,1,0,0,1,.14,0c.05,0,.06,0,.06.08a3.77,3.77,0,0,0-.07.55c0,.09,0,.46-.05.56s0,.14-.1.14-.07,0-.07-.11a.8.8,0,0,0-.06-.31c-.07-.15-.14-.27-.58-.31-.15,0-1.21,0-1.39,0s-.06,0-.06.08v2.11s0,.09.06.09,1.34,0,1.55,0,.34,0,.42-.13.1-.11.14-.11a.08.08,0,0,1,.07.09s0,.19-.07.62c0,.17,0,.51,0,.57s0,.19-.09.19-.08,0-.08-.07,0-.2,0-.31-.16-.3-.49-.33c-.17,0-1.17,0-1.39,0,0,0-.05,0-.05.09v.68c0,.29,0,1,0,1.26,0,.58.29.71,1.2.71a2.38,2.38,0,0,0,.83-.11c.22-.1.32-.28.38-.63,0-.09,0-.13.1-.13s.08.11.08.2a5.87,5.87,0,0,1-.12,1c-.06.22-.14.22-.47.22-.66,0-1.2,0-1.63,0l-1,0-.5,0-.61,0c-.11,0-.17,0-.17-.09s0-.1.14-.1a.93.93,0,0,0,.31,0c.18,0,.23-.2.26-.45s0-1,0-1.81Z" transform="translate(5.17 -6.97)"/><rect class="cls-5" x="104.88" y="19.64" width="76.31" height="0.71"/><path class="cls-4" d="M190.55,17.38a1.22,1.22,0,0,1,0,2.44,1.22,1.22,0,0,1,0-2.44Zm0,.15a1.07,1.07,0,1,0,1,1.07,1,1,0,0,0-1-1.07Zm-.24,1.78h-.17V17.94c.12,0,.22,0,.35,0a.72.72,0,0,1,.41.1.32.32,0,0,1,.12.28.35.35,0,0,1-.27.34h0c.12,0,.21.13.24.33a.91.91,0,0,0,.09.34h-.18a.88.88,0,0,1-.11-.35c0-.19-.12-.26-.31-.26h-.17Zm0-.74h.17c.19,0,.36-.07.36-.25s-.09-.27-.37-.27h-.16Z" transform="translate(5.17 -6.97)"/></g><g class="cls-6"><path class="cls-3" d="M37.26,43.2c-.1.21-.55,1.18-.65,1.37L36,43.16h0c-.09.29-.61,2-.66,2.16l.37.26c0-.15.32-1.17.36-1.33h0c0,.14.35.82.53,1.2h0c.17-.3.56-1.11.62-1.22l.43,1.43.41-.23c-.09-.25-.6-1.82-.75-2.23Zm-3.49-.71c-.16.45-.53,1.68-.61,1.89l.42.47c0-.13.13-.52.15-.56l.77.37c0,.08.23.55.31.71l.3-.14C35,45,34,42.93,33.79,42.5Zm.16.87.38.86L33.79,44c0-.12.12-.51.14-.6m5.23,13.77A.35.35,0,0,0,39,57a.38.38,0,0,0-.19-.05.39.39,0,0,0-.2.05.35.35,0,0,0-.13.11.89.89,0,0,0-.08.17,1.11,1.11,0,0,0,0,.19,1.23,1.23,0,0,0,0,.19.6.6,0,0,0,.08.16.37.37,0,0,0,.13.12.39.39,0,0,0,.2,0A.38.38,0,0,0,39,58a.37.37,0,0,0,.13-.12.4.4,0,0,0,.08-.16,1.23,1.23,0,0,0,0-.19,1.11,1.11,0,0,0,0-.19.53.53,0,0,0-.08-.17m-1.36-42A23.21,23.21,0,1,0,61,38.35,23.21,23.21,0,0,0,37.8,15.14m.83,6.41s-.17,1.46.44,1.34,1.27-1.71,3.87-2.33a4.68,4.68,0,0,0-.08,2.84c.5,1.53,1.3,2.48.5,4.78a4.1,4.1,0,0,1-1.83,2.21h-1a5.9,5.9,0,0,0,1.52-2.29,3.15,3.15,0,0,0-.21-2.25,7.32,7.32,0,0,1-.26-.79,6.25,6.25,0,0,1,0-2l.14-.85-.71.49a13.29,13.29,0,0,1-1.2.7c-2,1.1-5,2.73-4.87,7H33.58s-1-1.43.09-4c1.28-3,5-4.84,5-4.84m2.28,3.67a4.89,4.89,0,0,0,.29.89,2.87,2.87,0,0,1,.27,1.11,2.61,2.61,0,0,1-.1.69,6.39,6.39,0,0,1-1.88,2.48H35.66c0-.09,0-.18,0-.27,0-3.65,2.58-5.06,4.5-6.1l.63-.35v.27a6,6,0,0,0,.13,1.28M42.5,31a.39.39,0,0,1,.38.39.38.38,0,0,1-.38.38H33.15a.39.39,0,0,1-.39-.38.4.4,0,0,1,.39-.39Zm-7.92,5.16A36.42,36.42,0,0,0,29.7,32l-.87-2.32c.6.17,2.81,1.3,5.75,6.43m.34,1.45L26.62,34l-1.14-3c1.5.28,4.63,1.75,9.44,6.55m-1.29-5.27h8.42a4.65,4.65,0,0,1-4.23,2.4,4.47,4.47,0,0,1-4.19-2.4M46,32a36.5,36.5,0,0,0-4.89,4.11C44,31,46.22,29.85,46.82,29.68Zm4.21-1L49,34l-8.3,3.56c4.81-4.8,7.94-6.27,9.43-6.55M35.52,60.33c-.36,0-.82-.1-.82-.1a13.87,13.87,0,0,1-3.9-5.66,30.09,30.09,0,0,1-1-2.87H23.38a18.88,18.88,0,0,0,8.73,8l-.35-.09c-.45-.11-1.23-.39-1.23-.39-.39-.13-1.32-.5-1.32-.5a20.69,20.69,0,0,1-6.42-7H20.18s-.38-.51-.38-.51h2.72a27,27,0,0,1-3.14-12.58H15.69V38.1h3.7a26.89,26.89,0,0,1,3.16-12.59H19.78l.39-.51h2.65a20.58,20.58,0,0,1,6.62-7.12,18.6,18.6,0,0,1,2.06-.72l.81-.23.16,0A18.76,18.76,0,0,0,23.41,25h6.38a29,29,0,0,1,1-2.82,13.63,13.63,0,0,1,4-5.74s.59-.08.76-.09l.39,0c-2.3,1.13-4.29,4.3-5.63,8.68h3l-.29.51H30.16c-.31,1.08-.59,2.22-.82,3.42l-.2-.09-.28-.09q.33-1.68.78-3.24H23.13A26.31,26.31,0,0,0,19.9,38.1h3.83l.19.51h-4a26.51,26.51,0,0,0,3.2,12.58h6.53c-.25-.86-.47-1.74-.67-2.67l.58.26c.18.84.39,1.64.61,2.41H35l1.15.51H30.3c1.32,4.33,3.27,7.48,5.53,8.67Zm-.3-2h.05v0h-.68v0h.06a.05.05,0,0,0,0-.05V57.14l-.14,0-.08,0a.05.05,0,0,0,0,0,.07.07,0,0,0,0,0h-.05v-.55h.05v0s0,0,0,0h0l.07,0,.07,0,0,0v-.11a.05.05,0,0,0,0-.05h0v0h.67v0h-.06a.05.05,0,0,0,0,.05v1.6a.05.05,0,0,0,0,.05m2.24-.47a.92.92,0,0,1-.23.29,1,1,0,0,1-.34.18,1.27,1.27,0,0,1-.39.06h-.25l-.19,0-.14,0h-.05a.11.11,0,0,0-.08,0h0L36,57.8l0,0v0a.1.1,0,0,0,0,.07.33.33,0,0,0,.1.06l.14,0h.17l.21,0,.18-.09a.47.47,0,0,0,.13-.15.37.37,0,0,0,.06-.21,1.66,1.66,0,0,1-.32.13,1.13,1.13,0,0,1-.32,0,.7.7,0,0,1-.25,0,.53.53,0,0,1-.22-.12.45.45,0,0,1-.14-.19.49.49,0,0,1-.06-.25.51.51,0,0,1,.08-.28.58.58,0,0,1,.2-.18.68.68,0,0,1,.26-.11l.28,0a1.54,1.54,0,0,1,.39.05.87.87,0,0,1,.3.17.67.67,0,0,1,.19.28.94.94,0,0,1,.07.39.91.91,0,0,1-.08.41m-.2-3.4L37,51.09h0l-.3-3.48a.06.06,0,1,0-.12,0l-.18,3.21-8.22-3.64L23,33.49l12.94,5.36-.36-4.06a5.59,5.59,0,0,0,1.83.44L37.72,42a.11.11,0,0,0,.1.09.1.1,0,0,0,.1-.09l.37-6.73a5.35,5.35,0,0,0,1.83-.45l-.37,4.07,12.94-5.36c-.39,1-5.11,13.5-5.18,13.69l-8.22,3.64-.19-3.21a.06.06,0,0,0-.06-.06.06.06,0,0,0,0,.06l-.31,3.48h0l-.29,3.32a.58.58,0,0,1-.57.54.56.56,0,0,1-.56-.54m2.44,3.45a.86.86,0,0,1-.21.29,1,1,0,0,1-.29.19,1.13,1.13,0,0,1-.36.06,1,1,0,0,1-.36-.06,1.17,1.17,0,0,1-.3-.19.84.84,0,0,1-.2-.29.9.9,0,0,1,0-.74.84.84,0,0,1,.2-.29,1,1,0,0,1,.3-.19.86.86,0,0,1,.36-.07.92.92,0,0,1,.36.07.81.81,0,0,1,.29.19.86.86,0,0,1,.21.29,1,1,0,0,1,0,.74M55.79,25.51H53.11A26.89,26.89,0,0,1,56.27,38.1h3.62v.51H56.27a27,27,0,0,1-3.13,12.58h2.63s-.29.41-.37.51H52.86a20.59,20.59,0,0,1-6.28,6.94l-.2.07c-.22.11-1.15.46-1.15.46-.59.22-1.54.48-1.54.48a18.88,18.88,0,0,0,8.58-7.95H45.88a30.09,30.09,0,0,1-1,2.87A14,14,0,0,1,41,60.22l-.42.06-.71.07C42.1,59.16,44,56,45.36,51.7H39.49l1.16-.51h4.86c.22-.77.43-1.58.61-2.43l.57-.25c-.19.93-.42,1.82-.66,2.68h6.53a26.51,26.51,0,0,0,3.2-12.58h-4l.19-.51h3.86a26.54,26.54,0,0,0-3.23-12.59H46c.29,1,.55,2.1.77,3.22l-.1,0-.38.14c-.23-1.19-.5-2.33-.81-3.4h-1a2.94,2.94,0,0,0-.13-.51h1C44,20.62,42,17.45,39.71,16.32l.78.08.39.06a13.75,13.75,0,0,1,4,5.72,29.05,29.05,0,0,1,1,2.82h6.39a18.78,18.78,0,0,0-9-8.07s1.25.34,2,.6l.82.32.27.11a20.52,20.52,0,0,1,6.49,7h2.57ZM41.09,58.28h0v0h-.75v0l.06,0,0-.06.75-1.27H40.11a.08.08,0,0,0,0,.06h0v-.56h0a.12.12,0,0,0,0,.07h1.62a.1.1,0,0,0,0-.07h0v.44l-.66,1.2,0,.08,0,.06a0,0,0,0,0,0,.05M56.91,21.8s-.13,0-.22-.06l-.07.06.9,1.06.07-.05a.31.31,0,0,1-.05-.12s0-.06,0-.07a.73.73,0,0,1,.16-.08l1.44-.49.2-.08h0l-.12.17c-.06.09-.81,1.19-.87,1.26l-.1.14s-.11,0-.2-.1l-.07.06.81,1.16.07-.06c-.07-.11,0-.19,0-.23l2.61-1,.14,0a.14.14,0,0,1,.12.06l.08-.06-.6-.91-.08.05a.34.34,0,0,1,.06.12.09.09,0,0,1,0,.11s-1.72.7-1.77.73v0l1-1.51.1-.13a.09.09,0,0,1,.12,0,.39.39,0,0,1,.1.08l.07-.05L60,20.72l-.07.06a.37.37,0,0,1,.05.11.09.09,0,0,1-.05.11,1.11,1.11,0,0,1-.16.08L58,21.66h0l1.16-1.54a.13.13,0,0,1,.13,0,.34.34,0,0,1,.09.08l.07-.05-.77-.87-.06.05a.14.14,0,0,1,0,.06.1.1,0,0,1,0,.08s-1.71,2.35-1.73,2.36M45.12,42.22h0c0,.13.09.74.15,1.07h0c.23-.37.81-1.37.89-1.5,0,.08,0,1.11,0,1.35l.44-.39c0-.23,0-1.74-.05-2.12h0l-1,1.72c0-.16-.15-1-.18-1.3h0c-.16.33-1.2,2.57-1.28,2.73l.31.06c.07-.17.64-1.45.72-1.63M59.36,25.37l0-.06-.08,0,.51.9.08,0s0,0,0,0a.05.05,0,0,1,0-.06l.09,0,.45,0,.72,1.38-.3.36-.07.06s-.06,0-.07,0,0,0,0,0l-.08,0,.46,1,.08,0a.19.19,0,0,1,0-.08.14.14,0,0,1,0-.07c.1-.1,1.88-2.29,2-2.39a1.14,1.14,0,0,1,.14-.15s.07,0,.11,0l.08,0-.64-1.24-.08,0c0,.06,0,.09,0,.11a1.14,1.14,0,0,1-.32.05l-2.88.29a.12.12,0,0,1-.08,0m3,.49L61.46,27l-.52-1ZM36.83,56.91l-.12,0h-.23l-.12,0a.25.25,0,0,0-.1.08.16.16,0,0,0,0,.12.2.2,0,0,0,0,.13.39.39,0,0,0,.1.08l.12,0,.11,0,.12,0,.12,0a.39.39,0,0,0,.1-.08.2.2,0,0,0,0-.13.16.16,0,0,0,0-.12.25.25,0,0,0-.1-.08M47.48,42l.8-.36s0,.46,0,.6l.48-.48c0-.23-.13-1.55-.2-2h0c-.29.45-1.59,2.56-1.77,2.85l.25.16c.1-.17.38-.65.42-.74m.79-1.36c0,.09,0,.51,0,.65l-.53.24.52-.89m-15.85,3.2L32.27,43c-.08-.42-.2-1.09-.21-1.16l-.49-.21c0,.07.18.89.19.94l.08.45c0,.08.16.83.18,1l.95.45L32.88,44a4.61,4.61,0,0,1-.46-.2M42.55,44l.78-.36s.12.43.15.55l.43-.45c-.08-.21-.43-1.42-.59-1.87h0c-.23.42-1.23,2.41-1.38,2.68l.31.14c.08-.16.28-.61.32-.69m.6-1.28c0,.09.1.48.13.6l-.53.24c.07-.15.32-.69.4-.84M64.38,30.48a.89.89,0,0,0-.42.25.46.46,0,0,0-.09.44.5.5,0,0,0,.24.31.46.46,0,0,0,.4.05.47.47,0,0,0,.35-.28.63.63,0,0,0,0-.43.63.63,0,0,1,.43.09,1.46,1.46,0,0,1,.32.28l.21-.05a2.69,2.69,0,0,0-.27-.32,1.16,1.16,0,0,0-.34-.24,1.06,1.06,0,0,0-.39-.13.88.88,0,0,0-.45,0m-2.9-1a.1.1,0,0,1-.12,0,.87.87,0,0,1-.08-.14l-.08,0,.44,1.25.09,0a.55.55,0,0,1,0-.16s0-.07.08-.09l2.65-1a.1.1,0,0,1,.12,0,.58.58,0,0,1,.08.14l.08,0-.44-1.25-.09,0a.49.49,0,0,1,0,.15.09.09,0,0,1-.08.09ZM30.18,41.25c-.12.42-.39,1.57-.46,1.77l.44.42c0-.12.1-.49.11-.52l.78.31.35.65.28-.14c-.15-.26-1.24-2.1-1.48-2.49Zm.22.79.43.78-.52-.21c0-.11.08-.48.09-.57m.2-1.27-1.06-.43.1.44,1.06.45Zm11.11,3.69c-.21.1-.49.21-.55.23l.11-.75c.06-.42.17-1.11.18-1.18l-.43.17c0,.06-.12.89-.13.94l-.06.45c0,.08-.12.8-.15,1,.13-.06.91-.34,1-.36Zm-2.79.61.86,0s.17.42.23.58l.41-.31c-.14-.26-.77-1.64-1.05-2.19h0c-.17.35-.92,2.06-1,2.3l.39.28c.06-.14.2-.54.22-.61m.42-1.13c0,.11.24.57.3.71l-.58,0,.28-.74M28.12,40.21c0,.26-.08,1.13-.09,1.29-.16-.25-.9-1.49-1.07-1.75h0c0,.39.09,1.93.1,2.18l.45.39c0-.25-.11-1.31-.11-1.39.09.14.73,1.16,1,1.54h0c0-.34.07-1,.07-1.1h0c.1.18.73,1.48.82,1.66l.29-.06-1.42-2.76Zm.44-28.55a.12.12,0,0,1,.09.08l.89,2.69c0,.05,0,.09,0,.11a.42.42,0,0,1-.15.08l0,.09,1.27-.42,0-.08a.53.53,0,0,1-.16,0s-.07,0-.09-.08l-.88-2.68a.1.1,0,0,1,0-.12l.14-.08,0-.08-1.26.41,0,.09.16,0M43,63.83a.41.41,0,0,0-.29,0,.51.51,0,0,1,.08-.31,1.07,1.07,0,0,1,.2-.22l0-.16-.22.17a1.08,1.08,0,0,0-.18.24.94.94,0,0,0-.1.28,1,1,0,0,0,0,.34.82.82,0,0,0,.15.34.31.31,0,0,0,.3.1.32.32,0,0,0,.21-.15.38.38,0,0,0,.05-.3.4.4,0,0,0-.17-.29m3.29,1s0,0,0,0S45,63.12,45,63.05a.56.56,0,0,1-.08-.14s0,0,0-.07l0-.06L44,63l0,.06s.06,0,.07,0a1.2,1.2,0,0,1,0,.25c0,.15-.14,1.83-.16,2.11,0,0,0,0,0,.05s0,0,0,0l0,.07.66-.16,0-.06h0s0,0,0,0v-.07s0-.3,0-.33l1-.28.19.27,0,.06s0,0,0,0l0,0,0,.06.71-.21v-.07h-.06m-1.83-.34.1-1.06.63.86Zm.3-2.11-.11-.36-.85.26.1.35Zm2.72,2s0,0-.07-.06l-.73-2s0-.07,0-.08l.1-.06,0-.07-.86.31,0,.06a.19.19,0,0,1,.1,0s0,0,.07.06l.73,2s0,.07,0,.09l-.09.06,0,.06.85-.31,0-.06a.23.23,0,0,1-.11,0m2.93-1.28a.13.13,0,0,1-.07-.06l-.91-2a.14.14,0,0,1,0-.09l.08-.06,0-.06-.72.35,0,.07.09,0a.07.07,0,0,1,.06.06l.48,1-1.11-.6c-.07,0-.11-.06-.12-.08a.06.06,0,0,1,0-.08l.05,0,0-.06-1,.43,0,.06h.09s0,0,.06.06l.91,2a.11.11,0,0,1,0,.08l-.06,0,0,.07L49,64l0-.06-.09,0a.09.09,0,0,1-.06-.06l-.63-1.36h0l1.09.59.38.21a.57.57,0,0,1,.17.13.06.06,0,0,1,0,.08l-.07,0,0,.07.75-.38,0-.06-.09,0m2.69-1.56-.05,0-1.74-1.38-.12-.11a.05.05,0,0,1,0-.08l0-.06-.82.48,0,.06s.06,0,.08,0a2.25,2.25,0,0,1,.06.25c0,.14.36,1.79.42,2.07a.13.13,0,0,1,0,.06s0,0,0,0l0,0,.6-.32,0-.06h0s0,0,0,0a.34.34,0,0,1,0-.08s-.05-.28-.06-.31l.91-.55.26.21a.23.23,0,0,1,0,0s0,0,0,0l0,0,0,.06.63-.41,0-.06,0,0m-1.85.17-.2-1,.85.66ZM33.41,63.71a1.24,1.24,0,0,0-.34-.31,1.59,1.59,0,0,0-.41-.16,1.23,1.23,0,0,0-.43,0,1.11,1.11,0,0,0-.43.15,1.15,1.15,0,0,0-.37.33,1.44,1.44,0,0,0-.22.55,1.36,1.36,0,0,0,0,.6,1,1,0,0,0,.19.44,1.21,1.21,0,0,0,.34.3,1.36,1.36,0,0,0,.41.15,1.29,1.29,0,0,0,.44,0,1.13,1.13,0,0,0,.43-.13,1.24,1.24,0,0,0,.36-.33,1.43,1.43,0,0,0,.22-.56,1.48,1.48,0,0,0,0-.59,1.32,1.32,0,0,0-.2-.45m-.4.93a.67.67,0,0,1-.1.26.66.66,0,0,1-.18.19.54.54,0,0,1-.22.09.53.53,0,0,1-.25,0,.67.67,0,0,1-.23-.1.52.52,0,0,1-.16-.17.5.5,0,0,1-.09-.24.72.72,0,0,1,0-.29,1.08,1.08,0,0,1,.1-.27.52.52,0,0,1,.18-.18.67.67,0,0,1,.23-.1.65.65,0,0,1,.24,0,.58.58,0,0,1,.23.09.73.73,0,0,1,.17.18.92.92,0,0,1,.09.23.79.79,0,0,1,0,.3M41,66s0,0,0,0L40,64a.68.68,0,0,1-.06-.15s0,0,.06-.06v-.07l-1,.07v.07s.07,0,.07.05a1.8,1.8,0,0,1-.06.24c0,.14-.5,1.77-.57,2a.08.08,0,0,1,0,0s0,0,0,0v.07l.67,0V66.2h0a.06.06,0,0,1,0,0,.23.23,0,0,1,0-.07l.09-.32,1.06-.07.13.3a.12.12,0,0,1,0,.07s0,0,0,0h0v.07l.75-.08v-.06L41,66m-1.73-.69.31-1,.44,1ZM28.39,62.07s.05,0,0,.08-.05.08-.15.19S27.09,63.75,26.91,64a.06.06,0,0,1-.05,0h-.05l0,.06.63.26,0-.06,0,0s0,0,0,0a.21.21,0,0,1,0-.06l.21-.25,1,.37v.33a.56.56,0,0,1,0,.07s0,0,0,0h0l0,.06.71.24,0-.06,0,0a.07.07,0,0,1,0-.06c0-.1,0-2.12,0-2.22a1.48,1.48,0,0,1,0-.16.05.05,0,0,1,.07,0l0-.07-.9-.33Zm.26,1.73-.72-.27.7-.8Zm8.63.05.08,0a.08.08,0,0,1,0,.09s0,0,0,.07l-.14.16-.77.79,0-1.05s0-.07,0-.08l.09,0v-.07l-.85,0v.07a.07.07,0,0,1,.07,0s0,0,0,.08l-.07,2.17s0,.08,0,.09a.12.12,0,0,1-.08,0v.07l.86,0V66.2l-.08,0s0,0,0-.09v-.46l.42-.47.43.89a.27.27,0,0,1,0,.08.08.08,0,0,1,0,.08h-.08v.07h.92v-.07l-.06,0a.43.43,0,0,1,0-.07l-.71-1.41c.06,0,.4-.43.49-.52L38,64a.4.4,0,0,1,.18-.12v-.06h-.92ZM64.64,45.79s0,0-.09,0l-2.06-.67s-.06,0-.06-.06V45l-.06,0-.23.77.07,0a.22.22,0,0,1,0-.08s.05,0,.09,0l1.07.35-1.19.4-.14,0s-.06,0-.06-.06,0,0,0-.06l-.07,0-.36,1,.06,0,.05-.07a.07.07,0,0,1,.09,0l2.06.66s.07,0,.07.06v.08l.06,0,.27-.73-.07,0a.13.13,0,0,1,0,.07.08.08,0,0,1-.08,0L62.63,47h0l1.17-.4.41-.14a.59.59,0,0,1,.22,0,.07.07,0,0,1,0,.07.19.19,0,0,1,0,.08l.07,0,.24-.81-.07,0a.22.22,0,0,1,0,.08m.09-2.95a1.45,1.45,0,0,0-.55-.23,1.51,1.51,0,0,0-.6,0,1.15,1.15,0,0,0-.45.2.89.89,0,0,0-.3.34,1.21,1.21,0,0,0-.16.41,1.24,1.24,0,0,0,0,.43,1.11,1.11,0,0,0,.15.43,1.13,1.13,0,0,0,.33.36,1.3,1.3,0,0,0,.55.22,1.36,1.36,0,0,0,.6,0,1.19,1.19,0,0,0,.44-.2,1,1,0,0,0,.3-.34,1.27,1.27,0,0,0,.15-.41,1.29,1.29,0,0,0,0-.44,1.14,1.14,0,0,0-.14-.43,1.21,1.21,0,0,0-.33-.35m-.12,1.1a.6.6,0,0,1-.1.23.46.46,0,0,1-.17.17.5.5,0,0,1-.24.09.72.72,0,0,1-.29,0,.79.79,0,0,1-.27-.1.62.62,0,0,1-.18-.18.55.55,0,0,1-.1-.22.53.53,0,0,1,0-.25.67.67,0,0,1,.1-.23.52.52,0,0,1,.17-.16.5.5,0,0,1,.24-.09.58.58,0,0,1,.29,0,.72.72,0,0,1,.27.1.74.74,0,0,1,.18.17.67.67,0,0,1,.1.23.49.49,0,0,1,0,.24M65.33,32a.92.92,0,0,1,0,.15.1.1,0,0,1-.09.08l-2.77.58a.09.09,0,0,1-.11,0,.71.71,0,0,1-.07-.15l-.08,0,.27,1.3.08,0a.74.74,0,0,1,0-.15.11.11,0,0,1,.09-.08l2.76-.58a.1.1,0,0,1,.12,0,.57.57,0,0,1,.06.15l.08,0L65.42,32ZM37.79,7A31.38,31.38,0,1,0,69.16,38.35,31.41,31.41,0,0,0,37.79,7m0,61.66A30.29,30.29,0,1,1,68.07,38.35,30.32,30.32,0,0,1,37.79,68.63M26.32,62.81l.34-.66-.05,0a.3.3,0,0,1-.07.08h-.06l-.77-.38.21-.42,1.19.61a.11.11,0,0,1,0,.05s0,.06,0,.11l.05,0,.35-.68-.05,0s0,.07-.07.07h-.06l-1.85-.94,0,.06a.17.17,0,0,1,.06.06.06.06,0,0,1,0,.09l-1,1.94s0,0-.07,0l-.09,0,0,.06,1.82.92s0,0,.06,0,0,.05,0,.1l0,0,.34-.66,0,0c-.06.08-.12.1-.17.07l-1.16-.58.25-.51.77.39a.1.1,0,0,1,0,0s0,.06,0,.11ZM63.2,48.36a1.4,1.4,0,0,0-.49-.33,1.46,1.46,0,0,0-.58-.13,1.13,1.13,0,0,0-.49.1,1,1,0,0,0-.36.27,1,1,0,0,0-.24.36,1.18,1.18,0,0,0-.11.43,1.17,1.17,0,0,0,.06.45,1.14,1.14,0,0,0,.25.42,1.55,1.55,0,0,0,1.08.47,1.2,1.2,0,0,0,.47-.11,1,1,0,0,0,.36-.27,1.31,1.31,0,0,0,.24-.37,1.85,1.85,0,0,0,.11-.42,1.16,1.16,0,0,0,0-.45,1.14,1.14,0,0,0-.25-.42m-.35,1.06a.48.48,0,0,1-.14.2.57.57,0,0,1-.21.13.51.51,0,0,1-.25,0,.77.77,0,0,1-.28-.07.72.72,0,0,1-.24-.16.62.62,0,0,1-.15-.21.61.61,0,0,1,0-.24.69.69,0,0,1,.05-.24.48.48,0,0,1,.14-.2.57.57,0,0,1,.21-.13.66.66,0,0,1,.25,0,1,1,0,0,1,.28.07.91.91,0,0,1,.24.16.62.62,0,0,1,.15.21.67.67,0,0,1,0,.24.69.69,0,0,1,0,.24M55.19,60.1s0,0-.07,0l-1.35-1.7a.09.09,0,0,1,0-.08l.07-.09,0,0-.71.55,0,.06a.31.31,0,0,1,.1,0s0,0,.08,0l1.34,1.7a.07.07,0,0,1,0,.08.28.28,0,0,1-.07.09l0,0,.71-.55,0-.06a.24.24,0,0,1-.1.05m5.26-5.54H60.4l-2.11-.66-.15-.06s0-.05,0-.09l-.05,0-.6.75.06,0a.05.05,0,0,1,.08,0,1.08,1.08,0,0,1,.14.21l1.13,1.78a.07.07,0,0,1,0,.06.08.08,0,0,1,0,.05l0,0,.44-.52,0,0,0,0s0,0,0,0a.15.15,0,0,1,0-.06L59,55.76l.65-.84L60,55l.06,0s0,0,0,.05,0,0,0,0l0,0,.44-.6,0,0,0,0m-1.66.82-.55-.91,1,.32Zm-.17,1.47h-.08L57,56.42c0-.08-.06-.59-.07-.71s0-.24,0-.34a.35.35,0,0,1,0-.21l0,0-.61.67,0,0,.07,0s.05,0,.08,0a.22.22,0,0,1,0,.09c0,.05,0,.12,0,.2s.07,1,.07,1.1l-.75-.73s0,0,0-.08a.3.3,0,0,1,0-.08l0-.05-.61.6,0,0a.18.18,0,0,1,.07,0,.12.12,0,0,1,.08,0L57,58.4a.12.12,0,0,1,0,.09.16.16,0,0,1,0,.07l0,0,.61-.59,0,0-.08,0s-.05,0-.08,0l-.34-.32L57,57l1,.27.08,0a.09.09,0,0,1,0,.09s0,.06-.05.07l.05,0,.62-.68,0,0-.05,0m3.27-4.52s0,0-.08,0L61.2,52l.26-.44a1.35,1.35,0,0,0,.14-.3.63.63,0,0,0,0-.3.94.94,0,0,0-.12-.3,1.22,1.22,0,0,0-.31-.27,1.09,1.09,0,0,0-.39-.14.68.68,0,0,0-.32,0,.69.69,0,0,0-.24.18,1.06,1.06,0,0,0-.2.26l-.62,1,.06,0,0,0a.08.08,0,0,1,.09,0l1.86,1.11s.06,0,.06.07,0,0,0,0l.06,0,.41-.68-.06,0-.06,0m-.88-1-.22.38-.59-.35.25-.41a.33.33,0,0,1,.19-.17.41.41,0,0,1,.26.07.37.37,0,0,1,.19.21.41.41,0,0,1-.08.27M13.44,24.07s.07,0,.12,0L16,25.54s.07.06.06.1a.37.37,0,0,1-.05.15l.07.05.7-1.14-.08,0a.65.65,0,0,1-.11.12.09.09,0,0,1-.11,0L14,23.31A.12.12,0,0,1,14,23.2a1.14,1.14,0,0,1,.06-.15L14,23l-.69,1.13.07.05a.44.44,0,0,1,.11-.12m7.36-8.26a.12.12,0,0,1,.1.06l1.58,2.34s0,.08,0,.11a.13.13,0,0,1-.05.07l.05.08.93-.68-.05-.07-.12,0s-.07,0-.1-.06l-.56-.83.53-.36L24,17l.16.12a.06.06,0,0,1,0,.09l-.07.08.05.07,1.19-.75-.05-.07a.23.23,0,0,1-.14,0,.32.32,0,0,1-.14,0L23.84,16a1.41,1.41,0,0,0,.24-.6.89.89,0,0,0-.18-.64,1,1,0,0,0-.67-.47,1.16,1.16,0,0,0-.81.24l-1.77,1.24.05.07.1,0m1.79-.59a.54.54,0,0,1,.4-.14.43.43,0,0,1,.24.18.36.36,0,0,1,.07.32.53.53,0,0,1-.23.27l-.79.54-.44-.66Zm8.3-3.43c0-.07,0-.12,0-.14A.12.12,0,0,1,31,11.6l.94-.19.45,2.23a.1.1,0,0,1,0,.11.31.31,0,0,1-.1.05l0,.09,1.19-.24,0-.09h-.11s-.06,0-.07-.09l-.44-2.23.93-.18a.1.1,0,0,1,.09,0s0,0,.07.12H34l-.21-1.07-.08,0a.15.15,0,0,1,0,.14.15.15,0,0,1-.07.05l-2.77.55a.11.11,0,0,1-.08,0,.22.22,0,0,1-.07-.13l-.08,0,.21,1.06ZM14.58,22.25a.09.09,0,0,1,.06,0,.6.6,0,0,1,.25.06l2.38.88a1.69,1.69,0,0,1,.23.1.09.09,0,0,1,.05.09.19.19,0,0,1,0,.09l.07.06.87-1.12-.07-.05a.12.12,0,0,1-.08.05.1.1,0,0,1-.1,0,2.17,2.17,0,0,1-.14-.19l-1.45-2.36a.08.08,0,0,1,0-.08.16.16,0,0,1,0-.09l-.07-.06-.71.85.07.05.06-.07a.06.06,0,0,1,.09,0l.14.2.91,1.51h0s-1.64-.59-1.72-.63l-.14-.05a.07.07,0,0,1,0-.1l.06-.08-.07-.06-.74,1,.07.06,0,0m2.62-3.38.06.06.12-.07a.1.1,0,0,1,.11,0L19.4,21s.05.07,0,.11a.34.34,0,0,1-.07.11l.06.07,2.16-2.08a.46.46,0,0,1,.1-.07.34.34,0,0,1,.13,0l.05,0-.65-.7-.06.06c.07.11.07.19,0,.25L19.76,20l-.5-.53.92-.86a.14.14,0,0,1,.09,0,.19.19,0,0,1,.12.07l.06-.06-.66-.7-.06.06a.19.19,0,0,1,.07.13s0,.06,0,.07l-.92.87-.41-.44,1.43-1.34a.11.11,0,0,1,.08,0s.08,0,.13.08l.06-.06-.68-.72-.06.05a.19.19,0,0,1,.07.13.16.16,0,0,1,0,.07Zm8.14-4.28a1.06,1.06,0,0,0,.48.07,2.21,2.21,0,0,0,.54-.1l.51-.16a1.83,1.83,0,0,1,.41-.08.21.21,0,0,1,.23.12.21.21,0,0,1,0,.19.42.42,0,0,1-.11.16.88.88,0,0,1-.17.12l-.15.08-.41.15a3.77,3.77,0,0,1-.43.1,1.47,1.47,0,0,1-.35,0,.18.18,0,0,1-.17-.07l0,0a0,0,0,0,0,0,0h-.1l.16,1h.08a.36.36,0,0,1,0-.09.13.13,0,0,1,.06-.07l.16,0,.35-.06.45-.12a3.61,3.61,0,0,0,.46-.17,2.53,2.53,0,0,0,.57-.35,1.15,1.15,0,0,0,.32-.39.87.87,0,0,0,.1-.43,1,1,0,0,0-.09-.41.7.7,0,0,0-.36-.39,1.11,1.11,0,0,0-.48-.09,2.56,2.56,0,0,0-.54.1l-.52.16a2.56,2.56,0,0,1-.4.08.19.19,0,0,1-.23-.1.22.22,0,0,1,0-.21.58.58,0,0,1,.17-.18.6.6,0,0,1,.21-.14l.17-.08.32-.12.3,0h.23c.07,0,.1,0,.11,0s0,0,0,0a0,0,0,0,0,0,0h.09l0-1h-.07a.43.43,0,0,0,0,.07.13.13,0,0,1-.06.07l-.17,0-.31.06-.39.11-.43.16a2.09,2.09,0,0,0-.58.39,1.23,1.23,0,0,0-.31.44.94.94,0,0,0-.08.43.87.87,0,0,0,.08.37.64.64,0,0,0,.35.37M24,59.7l-.06,0-1.68-1.21,0,.06.06.07a.08.08,0,0,1,0,.09L21,60.45s-.05,0-.08,0l-.09,0,0,.05,1.66,1.19.06,0s0,.05,0,.11l0,0,.44-.61-.05,0c-.07.07-.13.08-.18,0l-1.05-.76.33-.46.7.5a.08.08,0,0,1,0,.05s0,.06,0,.11l0,0,.43-.61,0,0s-.06.07-.09.07a0,0,0,0,1-.05,0l-.7-.5.27-.37,1.08.77a.07.07,0,0,1,0,.06s0,.06,0,.1l0,0,.45-.62-.05,0a.17.17,0,0,1-.08.07M45.88,14.51l-.11-.07a.1.1,0,0,1,0-.12l.33-1,1.16.41a.1.1,0,0,1,.07.05.27.27,0,0,1,0,.15l.07,0,.33-.94-.08,0a.17.17,0,0,1-.08.11h-.09l-1.16-.4.23-.65,1.72.6a.17.17,0,0,1,.06.06s0,.08,0,.15l.08,0L48.7,12l-.08,0c0,.07,0,.1-.08.11h-.09l-2.75-1,0,.09a.5.5,0,0,1,.13.07.1.1,0,0,1,0,.12l-.93,2.67a.1.1,0,0,1-.08.09l-.14,0,0,.08,1.22.38ZM34.59,10.29a.19.19,0,0,1,.09.05L36,12.16l0,.95a.13.13,0,0,1,0,.11l-.09,0v.09l1.17-.06v-.09l-.1,0s-.05,0-.05-.1l0-1,1-1.9a.19.19,0,0,1,.08-.07l.1,0V10l-1.31,0v.09h.09s0,0,0,.06a.52.52,0,0,1-.07.2c0,.09-.45.79-.46.83l-.62-.81a.33.33,0,0,1-.07-.16s0-.06,0-.07l.1,0v-.08l-1.42.12v.09h.11m6.76,2.85a1.78,1.78,0,0,0,.51.39,2.72,2.72,0,0,0,.61.2,2.28,2.28,0,0,0,.64,0,1.63,1.63,0,0,0,.62-.17,1.72,1.72,0,0,0,.51-.43,1.77,1.77,0,0,0,.3-.71,1.84,1.84,0,0,0,0-.78,1.5,1.5,0,0,0-.32-.58,1.71,1.71,0,0,0-.51-.41,2.39,2.39,0,0,0-.6-.21,2.28,2.28,0,0,0-.64,0,1.54,1.54,0,0,0-.63.19,1.58,1.58,0,0,0-.51.43,1.69,1.69,0,0,0-.29.71,1.65,1.65,0,0,0,0,.77,1.6,1.6,0,0,0,.32.59m.52-1.2a1.22,1.22,0,0,1,.14-.35.78.78,0,0,1,.25-.23.88.88,0,0,1,.32-.12,1.09,1.09,0,0,1,.36,0,.93.93,0,0,1,.34.13,1,1,0,0,1,.26.23,1,1,0,0,1,.14.31,1.15,1.15,0,0,1,0,.37.92.92,0,0,1-.14.35A.85.85,0,0,1,43,13a.88.88,0,0,1-.36,0,.87.87,0,0,1-.33-.12,1,1,0,0,1-.26-.23.73.73,0,0,1-.14-.31,1,1,0,0,1,0-.38m8.86,4.82a.45.45,0,0,1-.1-.09.11.11,0,0,1,0-.12l.59-1,1.26.79-.59.95c0,.05-.06.07-.1.06a.43.43,0,0,1-.13,0l-.05.08,1.05.72,0-.07a.47.47,0,0,1-.1-.1.09.09,0,0,1,0-.11l1.51-2.4a.11.11,0,0,1,.1-.06l.13.05,0-.08-1-.72-.05.07a.31.31,0,0,1,.1.1.09.09,0,0,1,0,.11l-.49.81L51.63,15l.51-.81a.12.12,0,0,1,.1-.06l.13.05,0-.08-1.1-.63-.05.07a.47.47,0,0,1,.1.1.09.09,0,0,1,0,.11l-1.5,2.41a.08.08,0,0,1-.1.06.38.38,0,0,1-.12-.05l-.05.08,1.1.63Zm-35.42,38c.07-.08,1.24-1.73,1.3-1.81a1.06,1.06,0,0,1,.1-.12s.05,0,.08,0l.06,0-.54-.8,0,0a.05.05,0,0,1,0,.08.86.86,0,0,1-.24.07l-2,.52H13.9l0,0-.06,0,.36.57.05,0a0,0,0,0,1,0,0s0,0,0,0l.06,0,.32-.08.59.89-.19.26,0,.06h-.05l0,0-.05,0,.43.61.06,0a.08.08,0,0,1,0-.05,0,0,0,0,1,0,0M15,53l1-.25-.62.88Zm3.73,2.4a.19.19,0,0,1,.07.06l.05,0-.54-.62-.05,0a.07.07,0,0,1,0,.05s0,0,0,.08l-1.08.88a.38.38,0,0,1-.32.1.53.53,0,0,1-.28-.2.49.49,0,0,1-.14-.32.35.35,0,0,1,.16-.29l1.08-.89a.09.09,0,0,1,.08,0l0,0,.05,0-.5-.66-.05,0,0,.09s0,0,0,.08l-1,.82a1.79,1.79,0,0,0-.3.32.83.83,0,0,0-.13.77,1.48,1.48,0,0,0,.26.44,1.32,1.32,0,0,0,.39.34.82.82,0,0,0,.39.11.92.92,0,0,0,.39-.09,1.81,1.81,0,0,0,.36-.23l1-.82a.08.08,0,0,1,.09,0m2,3.13c.08,0,.58-.08.71-.1l.33,0a.43.43,0,0,1,.22,0l0-.05-.69-.57-.05.05.05.06a.11.11,0,0,1,0,.09l-.09,0L21,58l-1.09.13.69-.79a.07.07,0,0,1,.08,0l.08,0,0,0-.63-.58-.05.06s0,0,.05.06a.09.09,0,0,1,0,.09l-1.43,1.63a.1.1,0,0,1-.08,0l-.07,0-.05.05.64.58,0-.06,0-.07a.11.11,0,0,1,0-.09l.31-.35.62-.1s-.22.91-.23,1a.16.16,0,0,1,0,.08.08.08,0,0,1-.09,0l-.07,0,0,0,.71.6,0-.06,0,0a.25.25,0,0,1,0-.08Zm-5.14-7.36a.1.1,0,0,1,.09,0,.12.12,0,0,1,.05.05l.06,0-.5-.88-.06,0a.39.39,0,0,1,0,.06s0,0,0,0l-.14,0-.89.07.57-.64.12-.13h0l0,.05.06,0-.43-.91-.06,0a.17.17,0,0,1,0,.07s0,0-.05.07l-1.93,1s-.07,0-.09,0l-.05,0-.06,0,.3.65.06,0a.51.51,0,0,1,0-.09s0,0,0-.07l1.47-.76h0L13.07,51l1.78-.14h0l-1.46.76a.07.07,0,0,1-.09,0,.17.17,0,0,1-.06-.06l-.06,0,.38.67.06,0a.13.13,0,0,1,0-.06s0,0,.05-.07Zm-2.14-4.44.13-.09a.05.05,0,0,1,.07,0l.07,0-.3-.9-.06,0s0,.06,0,.07h-.25L11,45.75l-.05,0a.09.09,0,0,1,0,0l-.07,0,.19.65.07,0s0,0,0,0,0,0,0,0h.4l.32,1-.25.21-.07,0a0,0,0,0,1-.05,0s0,0,0,0l-.06,0,.25.7.07,0a.13.13,0,0,1,0-.06l0,0c.09-.06,1.67-1.32,1.74-1.38M13,46.32l-.83.68-.24-.72ZM11.33,28.53a.09.09,0,0,1,.11,0L14,29.67c.05,0,.07.06.07.09a.25.25,0,0,1,0,.12l.08,0,.42-1.08-.08,0a.44.44,0,0,1-.08.1.1.1,0,0,1-.12,0l-1.77-.78v0c.3-.07.6-.15.87-.24l.76-.23.56-.17a.51.51,0,0,1,.28,0,.08.08,0,0,1,0,.1.56.56,0,0,1,0,.12l.08,0,.56-1.11-.09,0a.24.24,0,0,1-.08.11s-.06,0-.11,0l-2.59-1.14s-.07-.06-.07-.1a.39.39,0,0,1,0-.13l-.08,0-.53,1.07.08,0,.08-.11a.1.1,0,0,1,.12,0l1.34.6-.63.19-.57.17-.43.12-.19,0a.1.1,0,0,1-.09-.1.34.34,0,0,1,0-.1l-.08,0-.59,1.48.08,0a.44.44,0,0,1,.08-.11M56,17.2l-2.59,1.29h-.08l-.07,0-.06.06.8.66.06-.07s0,0,0,0A.06.06,0,0,1,54,19l.08-.05.4-.19,1.17,1s-.14.4-.15.44a.36.36,0,0,1,0,.09s0,0-.06,0l0,0,0,.07.8.81.06-.07a.15.15,0,0,1-.05-.06.11.11,0,0,1,0-.08c.05-.13.93-2.81,1-2.92s.08-.19.08-.2.07,0,.12,0l.06-.07-1-.94-.06.07s0,.08,0,.11a1.08,1.08,0,0,1-.28.16m-.14,2L55,18.5l1.27-.6ZM12.24,33.65a1.12,1.12,0,0,0,.51-.15,1.29,1.29,0,0,0,.41-.4,2.17,2.17,0,0,0,.28-.7,2.26,2.26,0,0,0,.07-.75,1.15,1.15,0,0,0-.18-.54,1.09,1.09,0,0,0-.38-.36,1.83,1.83,0,0,0-.52-.21l-1.54-.38c-.05,0-.08,0-.09-.08a.71.71,0,0,1,0-.14l-.09,0-.33,1.16.08,0a.18.18,0,0,1,0-.07.12.12,0,0,1,.11,0l1.75.43a.47.47,0,0,1,.35.28.85.85,0,0,1,0,.5.87.87,0,0,1-.23.44.45.45,0,0,1-.44.09l-1.75-.43c-.05,0-.09,0-.09-.06a.25.25,0,0,1,0-.08l-.09,0-.23,1.18.08,0a.53.53,0,0,1,.06-.13s.06,0,.12,0l1.53.37a1.81,1.81,0,0,0,.56.06M11.29,45a1.3,1.3,0,0,0,.43,0L13,44.71a.09.09,0,0,1,.09,0,.39.39,0,0,1,0,.09l.07,0L13,44l-.07,0a.09.09,0,0,1,0,0,.1.1,0,0,1-.07,0l-1.37.28a.36.36,0,0,1-.33-.06A.54.54,0,0,1,11,44a.51.51,0,0,1,0-.35.35.35,0,0,1,.28-.18l1.36-.29a.09.09,0,0,1,.08,0,.05.05,0,0,1,0,0h.07l-.14-.81h-.07v.09a.09.09,0,0,1-.07.06l-1.26.27a1.65,1.65,0,0,0-.41.14.86.86,0,0,0-.31.25.74.74,0,0,0-.16.37,1.28,1.28,0,0,0,0,.51,1.34,1.34,0,0,0,.18.48.88.88,0,0,0,.3.28,1,1,0,0,0,.39.1" transform="translate(5.17 -6.97)"/><path class="cls-4" d="M90.71,17.2c0-1.22,0-1.44,0-1.69s-.08-.4-.34-.45a1.1,1.1,0,0,0-.26,0S90,15,90,15s0-.06.13-.06l.9,0,.78,0c.08,0,.12,0,.12.06a.06.06,0,0,1-.06,0,.76.76,0,0,0-.19,0c-.22,0-.28.17-.3.45s0,.47,0,1.69v1.1A2.42,2.42,0,0,0,92,20.24a1.52,1.52,0,0,0,1.18.43,1.63,1.63,0,0,0,1.23-.57,3,3,0,0,0,.46-1.92v-1c0-1.22,0-1.44,0-1.69s-.08-.4-.34-.45a1.1,1.1,0,0,0-.26,0,.06.06,0,0,1-.06,0c0-.05,0-.06.12-.06l.83,0,.66,0c.09,0,.13,0,.13.06s0,0-.07,0a.76.76,0,0,0-.19,0c-.21,0-.28.17-.29.45s0,.47,0,1.69V18a3,3,0,0,1-.72,2.34A2.26,2.26,0,0,1,93,21a2.46,2.46,0,0,1-1.62-.56,2.58,2.58,0,0,1-.68-2.06Z" transform="translate(5.17 -6.97)"/><path class="cls-4" d="M97.29,20c0,.54.08.71.27.76a1.77,1.77,0,0,0,.35,0,0,0,0,0,1,0,.05s0,.06-.12.06c-.4,0-.67,0-.73,0s-.36,0-.67,0c-.07,0-.11,0-.11-.06a0,0,0,0,1,0-.05,1.23,1.23,0,0,0,.29,0c.17-.05.19-.23.19-.84V16.06c0-.27,0-.34.1-.34s.19.13.26.2L99.4,18.2c.69.7,1.42,1.49,1.63,1.71L101,16.57c0-.43,0-.58-.25-.62l-.34,0a.06.06,0,0,1-.06-.06s.06,0,.14,0l.72,0,.59,0c.07,0,.12,0,.12,0a.08.08,0,0,1-.08.06l-.16,0c-.23,0-.24.18-.24.58l0,3.9c0,.44,0,.48,0,.48s-.15,0-.53-.41c-.07-.06-1.07-1-1.8-1.8S97.43,17,97.22,16.8Z" transform="translate(5.17 -6.97)"/><path class="cls-4" d="M104.12,18.92c0,.64,0,1.17,0,1.44s0,.32.25.35l.31,0a.06.06,0,0,1,.06.05s0,.06-.11.06c-.39,0-.83,0-.86,0l-.69,0c-.07,0-.11,0-.11-.06a.06.06,0,0,1,.06-.05.78.78,0,0,0,.21,0c.13,0,.16-.15.18-.35s0-.8,0-1.44V17.74c0-1,0-1.22,0-1.43s-.07-.33-.22-.36l-.21,0a.05.05,0,0,1-.05-.05s0-.06.11-.06l.7,0,.68,0c.08,0,.11,0,.11.06a.06.06,0,0,1,0,.05.59.59,0,0,0-.17,0c-.19,0-.23.13-.25.37v2.61Z" transform="translate(5.17 -6.97)"/><path class="cls-4" d="M108.31,20c.4-.89,1.3-3.16,1.45-3.64a1.42,1.42,0,0,0,.07-.25.14.14,0,0,0-.1-.14.63.63,0,0,0-.23,0s-.08,0-.08-.05,0-.06.15-.06l.68,0,.54,0c.07,0,.11,0,.11,0s0,.06-.08.06a.63.63,0,0,0-.33.08c-.09.06-.2.16-.38.61l-.77,1.81c-.42,1-.73,1.69-.89,2s-.22.5-.29.5-.13-.08-.26-.41l-1.7-4.08c-.15-.38-.25-.45-.47-.5a1.12,1.12,0,0,0-.27,0,.06.06,0,0,1-.06-.06s.07,0,.18,0l.81,0,.64,0c.13,0,.19,0,.19,0s0,.06-.07.06a1,1,0,0,0-.25,0,.11.11,0,0,0-.08.12,3,3,0,0,0,.19.56Z" transform="translate(5.17 -6.97)"/><path class="cls-4" d="M112.09,17.74c0-1,0-1.22,0-1.43s-.06-.34-.28-.37l-.24,0s-.06,0-.06-.05,0-.06.11-.06l.8,0h1.65l.32,0,.09,0s0,0,0,.06a2.75,2.75,0,0,0,0,.31c0,.07,0,.36,0,.44s0,.07-.07.07,0,0,0-.08a.8.8,0,0,0,0-.24c0-.11-.12-.15-.49-.2-.12,0-.92,0-1,0s0,0,0,.08V18s0,.07,0,.07,1,0,1.15,0,.27,0,.34-.09.08-.09.1-.09,0,0,0,.06,0,.15-.06.37,0,.38,0,.43,0,.12-.06.12,0,0,0-.06a.64.64,0,0,0,0-.22c0-.1-.08-.17-.35-.2s-.93,0-1,0a0,0,0,0,0,0,.05v.56c0,.23,0,1,0,1.14,0,.44.14.53.82.53a2.32,2.32,0,0,0,.69-.07.52.52,0,0,0,.32-.46c0-.08,0-.11.07-.11s0,.06,0,.11a5.73,5.73,0,0,1-.1.64c0,.17-.12.17-.38.17l-1.2,0c-.29,0-.47,0-.58,0h-.29l-.4,0c-.07,0-.11,0-.11-.06a0,0,0,0,1,0-.05,1.55,1.55,0,0,0,.21,0c.14,0,.15-.15.18-.35a13.27,13.27,0,0,0,0-1.44Z" transform="translate(5.17 -6.97)"/><path class="cls-4" d="M116.15,17.74c0-1,0-1.22,0-1.43s0-.34-.28-.37l-.24,0a.06.06,0,0,1,0-.05s0-.06.11-.06l.81,0,.87,0a2.24,2.24,0,0,1,1.28.29,1.16,1.16,0,0,1,.48.91,1.92,1.92,0,0,1-.85,1.52c.57.71,1,1.31,1.45,1.73a1.21,1.21,0,0,0,.77.46,1,1,0,0,0,.24,0,.06.06,0,0,1,.06.05s0,.06-.16.06h-.43a1.31,1.31,0,0,1-.74-.14,3.54,3.54,0,0,1-.94-1c-.29-.36-.6-.79-.75-1a.11.11,0,0,0-.09,0l-.88,0s-.05,0-.05.06v.16c0,.64,0,1.16,0,1.43s.07.32.28.35l.3,0c.05,0,.06,0,.06.05s0,.06-.11.06c-.38,0-.82,0-.85,0l-.68,0c-.07,0-.11,0-.11-.06a.06.06,0,0,1,.06-.05.86.86,0,0,0,.21,0c.13,0,.15-.15.18-.35a13.27,13.27,0,0,0,0-1.44Zm.59.57a.1.1,0,0,0,.05.08,2.19,2.19,0,0,0,.76.1.91.91,0,0,0,.52-.11,1.21,1.21,0,0,0,.41-1,1.15,1.15,0,0,0-1.19-1.31,2.55,2.55,0,0,0-.49,0,.09.09,0,0,0-.06.08Z" transform="translate(5.17 -6.97)"/><path class="cls-4" d="M121,20.76c-.09-.05-.1-.07-.1-.25,0-.33,0-.6,0-.71s0-.11,0-.11a.07.07,0,0,1,.07.08,1.24,1.24,0,0,0,0,.25,1,1,0,0,0,1.09.65c.68,0,1-.38,1-.88s-.25-.71-.86-1.16l-.32-.24c-.74-.55-1-1-1-1.42,0-.79.62-1.26,1.53-1.26a3.34,3.34,0,0,1,.72.08.88.88,0,0,0,.24,0s.07,0,.07,0,0,.25,0,.7c0,.11,0,.15-.06.15s0,0-.06-.08a1.26,1.26,0,0,0-.1-.33c-.05-.08-.28-.33-.9-.33s-.91.25-.91.72.21.67.89,1.13l.2.13c.84.57,1.13,1,1.13,1.61a1.31,1.31,0,0,1-.65,1.14,2.18,2.18,0,0,1-1.09.23,2.59,2.59,0,0,1-1-.18" transform="translate(5.17 -6.97)"/><path class="cls-4" d="M126,18.92c0,.64,0,1.17,0,1.44s0,.32.25.35l.32,0a0,0,0,0,1,0,.05s0,.06-.11.06c-.38,0-.83,0-.86,0l-.68,0c-.07,0-.11,0-.11-.06a0,0,0,0,1,0-.05.78.78,0,0,0,.21,0c.14,0,.16-.15.18-.35a13.27,13.27,0,0,0,0-1.44V17.74c0-1,0-1.22,0-1.43s-.07-.33-.22-.36l-.21,0a.06.06,0,0,1-.06-.05s0-.06.11-.06l.7,0,.69,0c.08,0,.11,0,.11.06a.06.06,0,0,1-.06.05.62.62,0,0,0-.17,0c-.19,0-.23.13-.24.37s0,.4,0,1.43Z" transform="translate(5.17 -6.97)"/><path class="cls-4" d="M130,18.92a13.27,13.27,0,0,0,0,1.44c0,.2.05.32.26.35l.32,0a0,0,0,0,1,0,.05s0,.06-.11.06c-.37,0-.81,0-.85,0l-.72,0c-.08,0-.11,0-.11-.06a.06.06,0,0,1,.06-.05.69.69,0,0,0,.2,0c.14,0,.18-.16.2-.36a13.27,13.27,0,0,0,0-1.44v-2.8h-1c-.43,0-.6.06-.7.22a2.34,2.34,0,0,0-.11.21.06.06,0,0,1-.07.06.05.05,0,0,1,0-.05c0-.08.14-.67.15-.73s0-.12.06-.12.12,0,.31.08l.54,0h2.61a4.68,4.68,0,0,0,.49,0l.2,0s0,0,0,.07c0,.21,0,.69,0,.76s0,.09-.06.09-.05,0-.05-.12V16.5c0-.2-.17-.35-.83-.37H130Z" transform="translate(5.17 -6.97)"/><path class="cls-4" d="M134.61,19.12a1.2,1.2,0,0,0-.15-.68c-.06-.1-1-1.58-1.23-1.94a1.62,1.62,0,0,0-.45-.48.62.62,0,0,0-.29-.1.07.07,0,0,1-.07-.06s0,0,.09,0l.68,0,.59,0c.08,0,.1,0,.1,0s0,.05-.11.07-.09.05-.09.11a.56.56,0,0,0,.1.26L135,18.38c.14-.29,1-1.71,1.13-1.93a.69.69,0,0,0,.12-.35c0-.09,0-.15-.11-.17s-.1,0-.1-.08,0,0,.1,0l.48,0,.68,0s.08,0,.08,0a.08.08,0,0,1-.08.07A.74.74,0,0,0,137,16a1.17,1.17,0,0,0-.35.33,24,24,0,0,0-1.34,2.11,1.33,1.33,0,0,0-.09.67v.57a6.36,6.36,0,0,0,0,.67c0,.2.06.32.26.35l.32,0a0,0,0,0,1,0,.05s0,.05-.11.05l-.87,0-.67,0c-.08,0-.11,0-.11-.05a0,0,0,0,1,.05-.05.78.78,0,0,0,.21,0c.14,0,.19-.15.2-.35s0-.56,0-.67Z" transform="translate(5.17 -6.97)"/><path class="cls-4" d="M140,19.46A2.24,2.24,0,0,1,142.06,17a1.51,1.51,0,0,1,1.66,1.62A2.26,2.26,0,0,1,141.53,21,1.45,1.45,0,0,1,140,19.46m.63.13c0,.66.29,1.17,1,1.16,1,0,1.47-1.5,1.47-2.33,0-.61-.31-1.17-1-1.17-1.09,0-1.49,1.47-1.49,2.34" transform="translate(5.17 -6.97)"/><path class="cls-4" d="M147,17.27l0,.28h-1l-.35,1.89a5.82,5.82,0,0,1-.48,1.57,5,5,0,0,1-.9,1.44c-.2-.11-.19-.14-.09-.28a3.35,3.35,0,0,0,.77-1.81l.49-2.81h-.78l0-.28h.79c.27-1.57,1-2.52,1.56-2.52.15,0,.28.11.27.34s-.15.46-.25.46,0-.25-.32-.25c-.46,0-.52.87-.7,2Z" transform="translate(5.17 -6.97)"/><path class="cls-4" d="M155.86,18.58c0,.75,0,1.37,0,1.7s.07.4.3.43l.36,0s.06,0,.06,0,0,.07-.13.07c-.43,0-.92,0-1,0l-.77,0c-.09,0-.12,0-.12-.07s0,0,.06,0a.93.93,0,0,0,.23,0c.16,0,.2-.2.23-.43s0-1,0-1.7v-.82a0,0,0,0,0,0-.05h-3.32s-.05,0-.05.05v.82c0,.75,0,1.37,0,1.7s.07.4.31.43l.35,0c.05,0,.06,0,.06,0s0,.07-.12.07c-.43,0-.93,0-1,0l-.77,0c-.08,0-.12,0-.12-.07s0,0,.06,0a1.09,1.09,0,0,0,.24,0c.15,0,.19-.2.22-.43s0-1,0-1.7V17.2c0-1.22,0-1.44,0-1.69s-.08-.4-.34-.45a1.18,1.18,0,0,0-.27,0,.06.06,0,0,1-.06,0c0-.05,0-.06.13-.06l.88,0,.77,0c.09,0,.13,0,.13.06s0,0-.07,0a.76.76,0,0,0-.19,0c-.21,0-.28.17-.29.45s0,.47,0,1.69v.17s0,0,.05,0h3.32s0,0,0,0V17.2c0-1.22,0-1.44,0-1.69s-.07-.4-.33-.45a1.23,1.23,0,0,0-.27,0,.06.06,0,0,1-.06,0c0-.05,0-.06.12-.06l.89,0,.77,0c.09,0,.12,0,.12.06a.06.06,0,0,1-.06,0,.76.76,0,0,0-.19,0c-.22,0-.28.17-.29.45s0,.47,0,1.69Z" transform="translate(5.17 -6.97)"/><path class="cls-4" d="M159.61,16c.08-.22.12-.26.16-.26s.1.09.17.24,1.23,3,1.65,4.05c.25.59.44.68.59.73a1,1,0,0,0,.27,0s.09,0,.09.05-.08.06-.16.06-.61,0-1.09,0c-.13,0-.24,0-.24-.05s0,0,0,0a.13.13,0,0,0,.06-.19L160.54,19s0,0-.06,0h-1.59s-.06,0-.07.05l-.4,1.07a1.42,1.42,0,0,0-.1.44c0,.14.12.19.24.19h.06s.07,0,.07.05,0,.06-.1.06l-.62,0c-.07,0-.42,0-.7,0-.09,0-.13,0-.13-.06a.06.06,0,0,1,.06-.05l.2,0c.32,0,.45-.28.59-.61Zm.77,2.77s0,0,0,0l-.68-1.82q-.06-.15-.12,0L159,18.67s0,0,0,0Z" transform="translate(5.17 -6.97)"/><path class="cls-4" d="M167.61,19.87h0c.17-.55.79-2.48,1-3.34a1.45,1.45,0,0,0,.08-.41c0-.12,0-.2-.37-.2a.06.06,0,0,1-.06-.06s0,0,.12,0l.7,0,.56,0c.06,0,.09,0,.09,0s0,.07-.06.07a1.31,1.31,0,0,0-.23,0c-.21.07-.32.34-.45.71-.31.85-1,3-1.26,3.71-.19.49-.22.57-.3.57s-.14-.08-.23-.34L165.92,17c-.23.58-1.17,3-1.42,3.64-.12.28-.16.35-.24.35s-.13-.07-.27-.52l-1.22-4c-.11-.35-.18-.44-.36-.5a1.45,1.45,0,0,0-.32,0,.06.06,0,0,1-.06-.06s.05,0,.11,0l.82,0,.72,0c.09,0,.12,0,.12,0a.07.07,0,0,1-.07.06.57.57,0,0,0-.24,0,.14.14,0,0,0-.09.14,3.55,3.55,0,0,0,.13.62c.11.43.82,2.87.9,3.15h0l1.44-3.73c.1-.26.15-.3.19-.3s.1.08.19.31Z" transform="translate(5.17 -6.97)"/><path class="cls-4" d="M171.71,16c.08-.22.12-.26.16-.26s.1.09.17.24,1.23,3,1.65,4.05c.25.59.44.68.59.73a1,1,0,0,0,.28,0s.08,0,.08.05-.08.06-.16.06-.61,0-1.08,0c-.14,0-.25,0-.25-.05s0,0,0,0a.13.13,0,0,0,.06-.19L172.64,19s0,0-.06,0H171a.06.06,0,0,0-.07.05l-.4,1.07a1.42,1.42,0,0,0-.1.44c0,.14.12.19.24.19h.06c.05,0,.07,0,.07.05s0,.06-.1.06l-.62,0c-.07,0-.42,0-.7,0-.08,0-.13,0-.13-.06a.06.06,0,0,1,.06-.05l.21,0c.31,0,.44-.28.58-.61Zm.77,2.77s0,0,0,0l-.68-1.82q-.06-.15-.12,0l-.64,1.82s0,0,0,0Z" transform="translate(5.17 -6.97)"/><path class="cls-4" d="M176.41,18.92c0,.64,0,1.17,0,1.44s0,.32.25.35l.31,0a.06.06,0,0,1,.06.05s0,.06-.11.06c-.39,0-.83,0-.87,0l-.68,0c-.07,0-.11,0-.11-.06a.06.06,0,0,1,.06-.05.78.78,0,0,0,.21,0c.13,0,.16-.15.18-.35s0-.8,0-1.44V17.74c0-1,0-1.22,0-1.43s-.07-.33-.22-.36l-.21,0a.05.05,0,0,1-.05-.05s0-.06.11-.06l.69,0,.69,0c.08,0,.11,0,.11.06a.06.06,0,0,1,0,.05.59.59,0,0,0-.17,0c-.19,0-.23.13-.25.37v2.61Z" transform="translate(5.17 -6.97)"/><path class="cls-4" d="M178.86,16.17c.06.07.07.1.07.14s0,0-.07,0a2.34,2.34,0,0,1-.55-.14c-.09-.05-.13-.08-.13-.2a2.86,2.86,0,0,1,.67-1.55.14.14,0,0,1,.11-.06,0,0,0,0,1,0,0,.17.17,0,0,1,0,.1,2.93,2.93,0,0,0-.26,1.12.88.88,0,0,0,.16.51" transform="translate(5.17 -6.97)"/><path class="cls-4" d="M181.41,18.92c0,.64,0,1.17,0,1.44s.05.32.25.35l.32,0a0,0,0,0,1,.05.05s0,.06-.11.06c-.38,0-.83,0-.86,0l-.68,0c-.07,0-.11,0-.11-.06a0,0,0,0,1,0-.05.78.78,0,0,0,.21,0c.14,0,.16-.15.18-.35a13.27,13.27,0,0,0,0-1.44V17.74c0-1,0-1.22,0-1.43s-.07-.33-.22-.36l-.21,0a.06.06,0,0,1-.06-.05s0-.06.11-.06l.7,0,.69,0c.08,0,.11,0,.11.06a.06.06,0,0,1-.06.05.62.62,0,0,0-.17,0c-.19,0-.23.13-.24.37s0,.4,0,1.43Z" transform="translate(5.17 -6.97)"/><path class="cls-4" d="M84.52,39.13c0,3.22,0,4.95.53,5.41s1.08.55,3,.55c1.34,0,2.32,0,3-.7a3.21,3.21,0,0,0,.65-1.51c0-.23.07-.38.28-.38s.2.12.2.43a20.19,20.19,0,0,1-.38,2.89c-.15.55-.28.68-1.58.68-1.82,0-3.12,0-4.26-.08s-2-.07-3.06-.07c-.28,0-.83,0-1.44,0s-1.23.05-1.73.05c-.33,0-.51-.07-.51-.25s.1-.2.41-.2a4.08,4.08,0,0,0,.9-.1c.5-.1.63-.66.73-1.39.13-1,.13-3,.13-5.35V34.7c0-3.82,0-4.53,0-5.33s-.25-1.26-1.08-1.43a3.82,3.82,0,0,0-.83-.08c-.28,0-.43-.05-.43-.23s.17-.22.55-.22c1.18,0,2.77.07,3.45.07s2.44-.07,3.42-.07c.35,0,.53.05.53.22s-.15.23-.46.23a6.8,6.8,0,0,0-1,.08c-.68.12-.88.55-.93,1.43s0,1.51,0,5.33Z" transform="translate(5.17 -6.97)"/><path class="cls-4" d="M95.59,36.44c0-3.25,0-3.85,0-4.53s-.25-1-1-1.16a4.22,4.22,0,0,0-.88-.07c-.23,0-.38-.08-.38-.23s.18-.2.5-.2c1.16,0,2.57.05,3.2.05s5.61,0,6,0a8.93,8.93,0,0,0,.93-.13c.13,0,.25-.1.35-.1s.16.1.16.2a9.51,9.51,0,0,0-.18,1.39c0,.22-.08,1.16-.13,1.41s-.07.35-.25.35-.17-.1-.17-.28a2,2,0,0,0-.16-.78c-.17-.38-.35-.68-1.45-.78-.38,0-3-.1-3.47-.1-.11,0-.16.08-.16.2V37c0,.13,0,.23.16.23.5,0,3.37,0,3.87,0s.85-.1,1-.33.26-.27.36-.27.17.1.17.22,0,.48-.17,1.56c0,.43-.1,1.28-.1,1.44s0,.47-.23.47-.2-.07-.2-.17,0-.5-.08-.78-.4-.76-1.23-.83c-.4-.05-2.92-.1-3.47-.1-.1,0-.13.1-.13.22v1.71c0,.73,0,2.54,0,3.17,0,1.46.73,1.79,3,1.79a5.94,5.94,0,0,0,2.08-.28c.56-.25.81-.7,1-1.58,0-.23.1-.33.25-.33s.2.28.2.5a14.09,14.09,0,0,1-.3,2.37c-.15.55-.35.55-1.18.55-1.66,0-3,0-4.07-.07s-1.92,0-2.57,0l-1.26,0c-.53,0-1.08.05-1.53.05-.28,0-.43-.07-.43-.23s.08-.22.35-.22a3.22,3.22,0,0,0,.78-.08c.46-.1.58-.5.66-1.13.1-.9.1-2.59.1-4.55Z" transform="translate(5.17 -6.97)"/><path class="cls-4" d="M109,36.44c0-3.25,0-3.85,0-4.53s-.25-1-1-1.16a4.16,4.16,0,0,0-.88-.07c-.22,0-.38-.08-.38-.23s.18-.2.51-.2c1.15,0,2.56.05,3.19.05s5.61,0,6,0a9.36,9.36,0,0,0,.93-.13,3.21,3.21,0,0,1,.35-.1c.13,0,.15.1.15.2a11.55,11.55,0,0,0-.18,1.39c0,.22-.07,1.16-.12,1.41s-.08.35-.25.35-.18-.1-.18-.28a1.93,1.93,0,0,0-.15-.78c-.18-.38-.35-.68-1.46-.78-.37,0-3-.1-3.47-.1-.1,0-.15.08-.15.2V37c0,.13,0,.23.15.23.5,0,3.37,0,3.88,0s.85-.1,1-.33.25-.27.35-.27a.2.2,0,0,1,.18.22c0,.13-.05.48-.18,1.56,0,.43-.1,1.28-.1,1.44s0,.47-.22.47-.21-.07-.21-.17,0-.5-.07-.78-.4-.76-1.23-.83c-.41-.05-2.92-.1-3.47-.1-.1,0-.13.1-.13.22v1.71c0,.73,0,2.54,0,3.17,0,1.46.73,1.79,3,1.79a6,6,0,0,0,2.09-.28c.55-.25.81-.7,1-1.58,0-.23.1-.33.25-.33s.2.28.2.5a15.2,15.2,0,0,1-.3,2.37c-.15.55-.35.55-1.18.55-1.66,0-3,0-4.08-.07s-1.91,0-2.56,0l-1.26,0c-.53,0-1.08.05-1.54.05-.27,0-.42-.07-.42-.23s.07-.22.35-.22a3.22,3.22,0,0,0,.78-.08c.45-.1.58-.5.65-1.13.1-.9.1-2.59.1-4.55Z" transform="translate(5.17 -6.97)"/><path class="cls-4" d="M121.37,32.34c-.28-.78-.46-1.29-.78-1.49a1.83,1.83,0,0,0-.86-.17c-.23,0-.35-.08-.35-.23s.17-.2.5-.2c1.13,0,2.37.05,2.57.05s1.28-.05,2.56-.05c.33,0,.48.05.48.2s-.18.23-.4.23a1.38,1.38,0,0,0-.56.1c-.2.07-.22.2-.22.43a12.15,12.15,0,0,0,.48,2c.37,1.41,2.39,7.87,2.71,8.85h.08L131.8,31.1c.23-.6.46-.78.66-.78s.45.33.73,1l4.42,10.54h.08c.42-1.23,2.11-6.87,2.89-9.36a4.65,4.65,0,0,0,.23-1.23c0-.35-.2-.6-1.08-.6-.21,0-.38-.1-.38-.23s.17-.2.53-.2c1.15,0,2.16.05,2.36.05s1.11-.05,1.84-.05c.25,0,.4.05.4.18s-.1.25-.3.25a2.7,2.7,0,0,0-.78.1c-.53.2-.78,1-1.24,2.24-1,2.69-3.29,9.48-4.37,12.67-.25.76-.38,1-.71,1s-.45-.25-.77-1L131.8,35.13h-.05c-.37.9-3.34,8.47-4.25,10.44-.4.88-.53,1.13-.85,1.13s-.41-.23-.61-.78Z" transform="translate(5.17 -6.97)"/><path class="cls-4" d="M146.52,41c-.13,0-.15,0-.21.15l-1.18,2.87a4,4,0,0,0-.32,1.3c0,.38.2.61.88.61H146c.28,0,.33.1.33.22s-.13.23-.35.23c-.73,0-1.76-.07-2.47-.07-.22,0-1.4.07-2.56.07-.28,0-.4-.05-.4-.23s.07-.22.25-.22l.65,0c1-.15,1.38-.8,1.84-1.88l5.78-13.46c.25-.6.43-.85.66-.85s.42.2.65.68c.53,1.18,4.22,9.93,5.63,13.18.86,1.93,1.49,2.21,1.89,2.28a5.48,5.48,0,0,0,.83.08c.2,0,.3.07.3.22s-.13.23-1,.23-2.38,0-4.25-.05c-.4,0-.65,0-.65-.18s0-.2.28-.22a.34.34,0,0,0,.2-.48L152,41.19a.21.21,0,0,0-.23-.15Zm4.72-1.18c.1,0,.13,0,.1-.13l-2.08-5.43c0-.08,0-.2-.1-.2s-.1.12-.13.2l-2.14,5.41c0,.1,0,.15.08.15Z" transform="translate(5.17 -6.97)"/><path class="cls-4" d="M160.8,36.44c0-3.25,0-3.85,0-4.53s-.25-1-1-1.16a4.16,4.16,0,0,0-.88-.07c-.23,0-.38-.08-.38-.23s.18-.2.51-.2c1.15,0,2.56.05,3,.05.76,0,2.77-.05,3.45-.05a7.74,7.74,0,0,1,4.2.91,3.7,3.7,0,0,1,1.56,2.94c0,1.58-.91,3-3.07,4.73,2,2.41,3.52,4.35,4.86,5.68a4.2,4.2,0,0,0,2.36,1.41,2.09,2.09,0,0,0,.53,0,.26.26,0,0,1,.27.22c0,.18-.15.23-.42.23H173.7a4.69,4.69,0,0,1-2.41-.43c-1-.47-1.79-1.48-3-3.14-.88-1.16-1.81-2.59-2.09-2.92a.52.52,0,0,0-.4-.15l-2-.05c-.1,0-.17.05-.17.18v.3c0,2,0,3.65.12,4.55.08.63.18,1,.86,1.13a8.6,8.6,0,0,0,1.08.08.26.26,0,0,1,.28.22c0,.16-.18.23-.45.23-1.29,0-3.12-.07-3.45-.07s-1.84.07-2.72.07c-.27,0-.42-.07-.42-.23s.07-.22.35-.22a3.28,3.28,0,0,0,.78-.08c.45-.1.58-.5.65-1.13.1-.9.1-2.59.1-4.55Zm2.82,1.66c0,.22,0,.3.2.37a5.76,5.76,0,0,0,1.69.21,2.16,2.16,0,0,0,1.55-.36,3.61,3.61,0,0,0,1.44-3.17c0-3-2.06-3.79-3.37-3.79a8.21,8.21,0,0,0-1.31.07.26.26,0,0,0-.2.3Z" transform="translate(5.17 -6.97)"/><path class="cls-4" d="M177.85,36.44c0-3.25,0-3.85,0-4.53s-.25-1-1-1.16a4.09,4.09,0,0,0-.88-.07c-.22,0-.37-.08-.37-.23s.17-.2.5-.2c1.16,0,2.56.05,3.19.05s2.27-.05,3.6-.05c2.77,0,6.49,0,8.9,2.44a7.47,7.47,0,0,1,2.09,5.43,8.32,8.32,0,0,1-2.41,6c-1,1-3.35,2.52-7.42,2.52-.81,0-1.76-.08-2.65-.13s-1.68-.12-2.23-.12l-1.26,0c-.53,0-1.08.05-1.54.05-.27,0-.42-.07-.42-.23s.07-.22.35-.22a3.22,3.22,0,0,0,.78-.08c.45-.1.58-.5.65-1.13.1-.9.1-2.59.1-4.55Zm3,2.36c0,2.26,0,3.9.05,4.33a4.18,4.18,0,0,0,.25,1.51c.28.4,1.16.85,2.9.85A6.93,6.93,0,0,0,188.84,44c1.44-1.18,1.89-3.09,1.89-5.3a7,7,0,0,0-2.06-5.34,8.93,8.93,0,0,0-6.19-2,4.77,4.77,0,0,0-1.36.15c-.2.07-.27.17-.27.43,0,.72,0,2.48,0,4.17Z" transform="translate(5.17 -6.97)"/><path class="cls-4" d="M82.14,56.44a3.61,3.61,0,0,1-.07-5.18,4,4,0,0,1,2.88-1,9.66,9.66,0,0,1,1.32.09c.35,0,.64.13.91.16.1,0,.14.05.14.11s0,.18,0,.5,0,.8,0,1,0,.21-.11.21-.09-.07-.09-.2a1.32,1.32,0,0,0-.36-.84,2.71,2.71,0,0,0-1.85-.56,2.39,2.39,0,0,0-1.71.56,3.41,3.41,0,0,0,2,5.61,2,2,0,0,0,1.67-.51,1.72,1.72,0,0,0,.31-.6c0-.15,0-.19.12-.19s.08.07.08.14a8.79,8.79,0,0,1-.2,1.21.33.33,0,0,1-.24.27,5.4,5.4,0,0,1-1.64.21,4.54,4.54,0,0,1-3.12-1" transform="translate(5.17 -6.97)"/><path class="cls-4" d="M88.53,54.37a3.06,3.06,0,0,1,3.36-3c2,0,3.28,1.12,3.28,2.9a3.14,3.14,0,0,1-3.36,3.17,3,3,0,0,1-3.28-3m5.44.15c0-1.71-1-2.77-2.32-2.77-.89,0-1.94.47-1.94,2.39,0,1.59.91,2.85,2.42,2.85.57,0,1.84-.26,1.84-2.47" transform="translate(5.17 -6.97)"/><path class="cls-4" d="M97.46,51.48c0-.13.1-.2.16-.2s.14,0,.25.24L100,55.84l2.15-4.37c.06-.13.13-.19.21-.19s.15.08.18.24l.73,4.79c.07.48.14.69.39.76a1.34,1.34,0,0,0,.45.07c.08,0,.13,0,.13.08s-.09.09-.21.09l-1.66-.06c-.19,0-.23,0-.23-.09s0-.06.09-.08.06-.11,0-.33l-.45-3.35h0l-1.72,3.46c-.18.37-.23.44-.32.44s-.19-.16-.32-.39-.83-1.54-.92-1.76S98,54,97.73,53.49h0l-.38,3a2.19,2.19,0,0,0,0,.36c0,.15.11.2.25.23a1.1,1.1,0,0,0,.28,0c.07,0,.13,0,.13.08s-.08.09-.19.09c-.34,0-.71,0-.85,0l-.79,0c-.09,0-.15,0-.15-.09s0-.08.13-.08h.24c.22,0,.3-.34.33-.6Z" transform="translate(5.17 -6.97)"/><path class="cls-4" d="M106.33,51.48c0-.13.09-.2.16-.2s.13,0,.24.24l2.15,4.32L111,51.47c.07-.13.14-.19.21-.19s.16.08.18.24l.73,4.79c.08.48.15.69.4.76a1.31,1.31,0,0,0,.45.07c.07,0,.13,0,.13.08s-.09.09-.21.09l-1.66-.06c-.19,0-.24,0-.24-.09s0-.06.09-.08.07-.11,0-.33l-.45-3.35h0L109,56.86c-.19.37-.23.44-.32.44s-.2-.16-.32-.39-.83-1.54-.92-1.76l-.8-1.66h0l-.39,3c0,.13,0,.23,0,.36s.11.2.24.23a1.17,1.17,0,0,0,.29,0c.07,0,.12,0,.12.08s-.07.09-.19.09c-.34,0-.7,0-.85,0l-.79,0c-.08,0-.14,0-.14-.09s0-.08.12-.08h.25c.22,0,.29-.34.33-.6Z" transform="translate(5.17 -6.97)"/><path class="cls-4" d="M114.27,53.69c0-1.17,0-1.39,0-1.64s-.09-.34-.35-.42a1.3,1.3,0,0,0-.31,0c-.09,0-.13,0-.13-.08s0-.07.17-.07l1.2,0,1,0c.12,0,.17,0,.17.07s0,.08-.12.08a1.05,1.05,0,0,0-.24,0c-.21,0-.27.15-.29.42s0,.47,0,1.64v1.09c0,1.13.22,1.56.61,1.87a1.57,1.57,0,0,0,1,.31,1.53,1.53,0,0,0,1.08-.41,2.5,2.5,0,0,0,.46-1.88v-1c0-1.17,0-1.39,0-1.64s-.08-.34-.33-.42a1.29,1.29,0,0,0-.29,0c-.1,0-.14,0-.14-.08s0-.07.16-.07l1,0,.94,0c.11,0,.16,0,.16.07s0,.08-.14.08a1,1,0,0,0-.23,0c-.22,0-.27.15-.29.42s0,.47,0,1.64v.83a2.83,2.83,0,0,1-.77,2.33,2.45,2.45,0,0,1-1.69.56,2.77,2.77,0,0,1-1.83-.53,2.49,2.49,0,0,1-.73-2.05Z" transform="translate(5.17 -6.97)"/><path class="cls-4" d="M122.31,56.25c0,.6.12.79.28.84a1.21,1.21,0,0,0,.42,0c.09,0,.13,0,.13.09s-.07.08-.18.08c-.52,0-.89,0-1,0s-.45,0-.86,0c-.11,0-.19,0-.19-.08s.06-.09.13-.09a1.54,1.54,0,0,0,.37,0c.21-.06.23-.27.24-.94l.07-4.59c0-.16.06-.27.14-.27s.21.12.35.26,1.3,1.33,2.47,2.47c.54.54,1.61,1.63,1.73,1.74h0l-.09-3.45c0-.47-.08-.61-.27-.68a1.24,1.24,0,0,0-.42,0c-.1,0-.13,0-.13-.08s.09-.07.2-.07l1,0,.79,0c.11,0,.18,0,.18.07s0,.08-.14.08a.72.72,0,0,0-.24,0c-.22.07-.28.2-.29.64l-.1,4.88c0,.18-.06.25-.12.25a.47.47,0,0,1-.33-.16c-.5-.47-1.51-1.43-2.34-2.24s-1.73-1.77-1.88-1.91h0Z" transform="translate(5.17 -6.97)"/><path class="cls-4" d="M129.74,53.69c0-1.17,0-1.39,0-1.64s-.1-.35-.27-.41a.92.92,0,0,0-.29,0c-.09,0-.13,0-.13-.09s.06-.06.19-.06l1.08,0,1,0c.1,0,.17,0,.17.06s-.05.09-.13.09l-.24,0c-.22,0-.28.15-.3.42s0,.47,0,1.64v1.37c0,.75,0,1.37,0,1.69s.08.33.32.37a2.75,2.75,0,0,0,.41,0c.09,0,.13,0,.13.09s-.07.08-.16.08c-.52,0-1.07,0-1.29,0l-1,0c-.1,0-.15,0-.15-.08s0-.09.12-.09a1.23,1.23,0,0,0,.29,0c.16,0,.21-.15.23-.38s0-.93,0-1.68Z" transform="translate(5.17 -6.97)"/><path class="cls-4" d="M134.82,51.92l-1.2,0c-.46,0-.65.06-.77.24a1.15,1.15,0,0,0-.14.26c0,.06,0,.1-.09.1s-.07,0-.07-.13.15-.87.17-.93.05-.15.09-.15.15.06.35.09a6.69,6.69,0,0,0,.8,0h3.25a3.25,3.25,0,0,0,.55,0l.22,0c.05,0,.06,0,.06.17s0,.74,0,.94,0,.12-.07.12-.08,0-.09-.15v-.08c0-.2-.23-.44-.95-.45l-1,0v3.14c0,.71,0,1.32.05,1.66s.07.36.31.4a2.75,2.75,0,0,0,.41,0c.09,0,.12,0,.12.09s-.06.08-.15.08c-.53,0-1.07,0-1.3,0l-1,0c-.1,0-.16,0-.16-.08s0-.09.13-.09a1.06,1.06,0,0,0,.28,0c.17,0,.21-.19.24-.41s0-.94,0-1.65Z" transform="translate(5.17 -6.97)"/><path class="cls-4" d="M140.88,55.29a1.57,1.57,0,0,0-.18-.81c0-.12-1.15-1.82-1.43-2.23a1.68,1.68,0,0,0-.52-.54.72.72,0,0,0-.33-.11c-.07,0-.12,0-.12-.08s0-.07.15-.07l1,0,.91,0c.08,0,.12,0,.12.07s0,.07-.18.1-.11.06-.11.12a.7.7,0,0,0,.1.27c.15.23,1.2,2.05,1.33,2.26.1-.18,1.08-1.84,1.2-2.07a1.1,1.1,0,0,0,.12-.41c0-.08,0-.15-.18-.18s-.14,0-.14-.09,0-.07.13-.07l.79,0,.85,0c.09,0,.15,0,.15.06s-.06.09-.16.09a.9.9,0,0,0-.34.1,1,1,0,0,0-.42.36,25.51,25.51,0,0,0-1.56,2.48,1.76,1.76,0,0,0-.1.77v.62c0,.13,0,.45,0,.78s.09.37.33.41a2.68,2.68,0,0,0,.4,0c.09,0,.13,0,.13.09s-.06.08-.17.08c-.5,0-1,0-1.26,0l-1,0c-.11,0-.17,0-.17-.08s0-.09.13-.09a1.14,1.14,0,0,0,.28,0c.17,0,.23-.19.25-.41s0-.65,0-.78Z" transform="translate(5.17 -6.97)"/><path class="cls-4" d="M149.36,56.44a3.6,3.6,0,0,1-.06-5.18,4,4,0,0,1,2.88-1,9.77,9.77,0,0,1,1.32.09c.34,0,.64.13.91.16.1,0,.13.05.13.11s0,.18,0,.5,0,.8,0,1,0,.21-.11.21-.09-.07-.09-.2a1.36,1.36,0,0,0-.35-.84,2.73,2.73,0,0,0-1.85-.56,2.4,2.4,0,0,0-1.72.56,3.41,3.41,0,0,0,2,5.61c.82,0,1.31-.09,1.67-.51a1.44,1.44,0,0,0,.31-.6c0-.15,0-.19.12-.19s.08.07.08.14a8.79,8.79,0,0,1-.2,1.21c0,.16-.08.2-.24.27a5.4,5.4,0,0,1-1.64.21,4.56,4.56,0,0,1-3.12-1" transform="translate(5.17 -6.97)"/><path class="cls-4" d="M155.75,54.37a3.06,3.06,0,0,1,3.36-3c2,0,3.28,1.12,3.28,2.9A3.13,3.13,0,0,1,159,57.41a3,3,0,0,1-3.28-3m5.45.15c0-1.71-1-2.77-2.33-2.77-.89,0-1.94.47-1.94,2.39,0,1.59.91,2.85,2.43,2.85.56,0,1.84-.26,1.84-2.47" transform="translate(5.17 -6.97)"/><path class="cls-4" d="M165.3,55.06c0,1,0,1.48.17,1.63s.45.16,1.07.16c.43,0,.73,0,.94-.22a1,1,0,0,0,.2-.46c0-.07,0-.12.09-.12s.07.08.07.17a5.21,5.21,0,0,1-.12.9c-.05.17-.09.21-.51.21-.57,0-1,0-1.44,0l-1.07,0h-.45l-.56,0c-.1,0-.15,0-.15-.08s0-.09.13-.09a1.14,1.14,0,0,0,.28,0c.16,0,.21-.18.24-.41s0-.94,0-1.65V53.69c0-1.17,0-1.39,0-1.64s-.09-.34-.34-.42a1.06,1.06,0,0,0-.27,0c-.09,0-.13,0-.13-.08s.05-.07.17-.07l1.1,0,1.16,0c.12,0,.17,0,.17.07s0,.08-.14.08a1.63,1.63,0,0,0-.31,0c-.22,0-.29.15-.3.42s0,.47,0,1.64Z" transform="translate(5.17 -6.97)"/><path class="cls-4" d="M170.78,55.06c0,1,0,1.48.18,1.63s.44.16,1.06.16c.43,0,.74,0,.94-.22a.88.88,0,0,0,.2-.46c0-.07,0-.12.09-.12s.08.08.08.17a6.42,6.42,0,0,1-.12.9c-.06.17-.09.21-.51.21-.58,0-1,0-1.44,0l-1.07,0h-.46l-.55,0c-.1,0-.16,0-.16-.08s0-.09.13-.09a1.1,1.1,0,0,0,.28,0c.17,0,.21-.18.24-.41s0-.94,0-1.65V53.69c0-1.17,0-1.39,0-1.64s-.09-.34-.35-.42a.93.93,0,0,0-.26,0c-.09,0-.14,0-.14-.08s.06-.07.17-.07l1.11,0,1.15,0c.12,0,.18,0,.18.07s-.05.08-.15.08a1.63,1.63,0,0,0-.31,0c-.22,0-.28.15-.3.42s0,.47,0,1.64Z" transform="translate(5.17 -6.97)"/><path class="cls-4" d="M175.05,53.69c0-1.17,0-1.39,0-1.64s-.09-.34-.35-.42a1.33,1.33,0,0,0-.32,0c-.08,0-.13,0-.13-.08s.06-.07.18-.07l1.16,0h2.18a2.9,2.9,0,0,0,.34,0l.13,0s.05,0,.05.07a3.9,3.9,0,0,0-.06.5c0,.08,0,.42-.05.51s0,.13-.09.13-.06,0-.06-.1a.64.64,0,0,0-.06-.28c-.06-.14-.12-.25-.53-.29-.13,0-1.09,0-1.25,0s-.06,0-.06.07v1.91s0,.08.06.08h1.4c.19,0,.31,0,.38-.12s.09-.1.13-.1.06,0,.06.08,0,.17-.06.56c0,.16,0,.47,0,.52s0,.18-.08.18a.06.06,0,0,1-.07-.07c0-.08,0-.18,0-.28s-.14-.27-.44-.3-1.06,0-1.26,0c0,0,0,0,0,.09v.62c0,.26,0,.92,0,1.14,0,.53.27.65,1.09.65a2.16,2.16,0,0,0,.75-.1c.2-.09.29-.26.35-.57,0-.09,0-.12.09-.12s.07.1.07.18a4.94,4.94,0,0,1-.11.86c-.05.2-.12.2-.42.2-.61,0-1.09,0-1.48,0l-.93,0h-.46l-.55,0c-.1,0-.16,0-.16-.08s0-.09.13-.09a1.1,1.1,0,0,0,.28,0c.17,0,.21-.19.24-.41s0-.94,0-1.65Z" transform="translate(5.17 -6.97)"/><path class="cls-4" d="M185.54,56.79c0,.21,0,.22-.1.27a4.7,4.7,0,0,1-1.95.35c-2,0-3.71-.89-3.71-3a2.86,2.86,0,0,1,1.4-2.53,4,4,0,0,1,2.16-.5,8.52,8.52,0,0,1,1.42.13c.16,0,.45.07.64.08s.11,0,.11.09a9.59,9.59,0,0,0-.06,1.28c0,.11,0,.17-.11.17s-.07,0-.08-.1a1,1,0,0,0-.27-.64,2.52,2.52,0,0,0-1.74-.59A2.07,2.07,0,0,0,181,54.1,2.69,2.69,0,0,0,183.75,57a1.32,1.32,0,0,0,.56-.08.26.26,0,0,0,.16-.27v-.72c0-.38,0-.67,0-.91s-.09-.34-.35-.42l-.31,0c-.07,0-.12,0-.12-.09s.06-.07.17-.07l1.23,0,.94,0c.11,0,.16,0,.16.07a.09.09,0,0,1-.1.09l-.22,0c-.22,0-.3.15-.31.42s0,.55,0,.93Z" transform="translate(5.17 -6.97)"/><path class="cls-4" d="M187.94,53.69c0-1.17,0-1.39,0-1.64s-.09-.34-.34-.42a1.39,1.39,0,0,0-.32,0c-.08,0-.14,0-.14-.08s.06-.07.18-.07l1.16,0h2.19a3,3,0,0,0,.33,0l.13,0s.06,0,.06.07a2.9,2.9,0,0,0-.07.5c0,.08,0,.42,0,.51s0,.13-.09.13-.07,0-.07-.1a.79.79,0,0,0,0-.28c-.07-.14-.13-.25-.53-.29-.14,0-1.09,0-1.26,0s0,0,0,.07v1.91s0,.08,0,.08h1.4a.6.6,0,0,0,.39-.12c.06-.06.09-.1.13-.1s.06,0,.06.08,0,.17-.06.56c0,.16,0,.47,0,.52s0,.18-.08.18-.08,0-.08-.07,0-.18,0-.28-.15-.27-.45-.3c-.15,0-1.06,0-1.26,0,0,0,0,0,0,.09v.62c0,.26,0,.92,0,1.14,0,.53.26.65,1.08.65a2.21,2.21,0,0,0,.76-.1c.2-.09.29-.26.34-.57,0-.09,0-.12.09-.12s.08.1.08.18a6.13,6.13,0,0,1-.11.86c-.06.2-.13.2-.43.2-.6,0-1.08,0-1.48,0l-.93,0H188l-.56,0c-.1,0-.15,0-.15-.08s0-.09.13-.09a1.14,1.14,0,0,0,.28,0c.16,0,.21-.19.24-.41s0-.94,0-1.65Z" transform="translate(5.17 -6.97)"/><rect class="cls-5" x="106.93" y="17.21" width="69.38" height="0.64"/><path class="cls-4" d="M184.34,15.79a1.11,1.11,0,1,1-1.1,1.11,1.09,1.09,0,0,1,1.1-1.11Zm0,.14a1,1,0,1,0,.91,1,.93.93,0,0,0-.91-1Zm-.22,1.62H184V16.31a1.66,1.66,0,0,1,.32,0,.69.69,0,0,1,.37.09.3.3,0,0,1,.11.25.31.31,0,0,1-.24.31h0q.16,0,.21.3a1.09,1.09,0,0,0,.08.31h-.16a1,1,0,0,1-.1-.32.24.24,0,0,0-.28-.23h-.15Zm0-.67h.15c.17,0,.32-.07.32-.23s-.08-.25-.33-.25h-.14Z" transform="translate(5.17 -6.97)"/></g></svg>