<svg id="Layer_1" data-name="Layer 1" xmlns="http://www.w3.org/2000/svg" viewBox="0 0 245.3 86.11"><defs><style>.cls-1{fill:#a71e32;}</style></defs><path class="cls-1" d="M70.91,77.27a.1.1,0,0,1-.1,0L69,74.89s0-.09,0-.12a.31.31,0,0,1,.09-.12l0-.07-1,.76,0,.07.14-.06s.07,0,.11.05l1.84,2.33s0,.09,0,.12a.77.77,0,0,1-.1.12l.06.07,1-.76-.06-.08A.37.37,0,0,1,70.91,77.27ZM48.58,56.64l1.17-.07c0,.07.23.59.33.79l.55-.42c-.19-.36-1.05-2.24-1.44-3h0c-.24.49-1.27,2.84-1.42,3.16l.53.39C48.35,57.29,48.55,56.73,48.58,56.64Zm.58-1.54c.06.14.33.77.4,1l-.79,0Zm-2.86-1c-.14.3-.75,1.62-.89,1.89L44.52,54h0c-.13.39-.84,2.77-.91,3l.51.36c.06-.2.44-1.61.5-1.82h0c.07.19.48,1.12.73,1.64h0c.22-.41.76-1.52.84-1.67,0,.12.48,1.6.59,2l.57-.31c-.12-.35-.82-2.5-1-3.06h0ZM75.61,72.8a.23.23,0,0,1-.11,0l-2.07-.57c0-.12-.08-.81-.09-1a3.86,3.86,0,0,1,0-.47.44.44,0,0,1,.05-.29l-.07-.06-.84.92.07.06.09-.05a.1.1,0,0,1,.12,0,.4.4,0,0,1,0,.13c0,.07,0,.16,0,.27s.09,1.42.09,1.51l-1-1a.1.1,0,0,1,0-.12l0-.1L71.82,72l-.84.82.07.07a.15.15,0,0,1,.09-.06.12.12,0,0,1,.12,0l2.14,2.07s.06.08,0,.12a.11.11,0,0,1,0,.09l.07.07.84-.82-.07-.07-.1.07a.12.12,0,0,1-.12,0l-.46-.45-.1-.85,1.3.38.11,0a.11.11,0,0,1,0,.13l-.06.09.07.07.85-.94-.07-.06A.19.19,0,0,1,75.61,72.8Zm-22-17.64,1.08-.49s.15.58.2.76l.58-.63c-.11-.29-.59-1.95-.81-2.57h0c-.31.57-1.69,3.3-1.89,3.68l.41.19C53.23,55.89,53.51,55.26,53.56,55.16Zm.82-1.76c0,.13.15.66.18.82l-.73.33ZM34.13,80a.07.07,0,0,1,0,.1,1.68,1.68,0,0,1-.2.27c-.13.16-1.62,1.92-1.87,2.23a.09.09,0,0,1-.07,0,.09.09,0,0,1-.07,0l0,.09.87.36,0-.09s0,0,0,0a0,0,0,0,1,0-.07.25.25,0,0,1,0-.08l.3-.35,1.36.51v.45a.22.22,0,0,1,0,.1s0,0-.05,0h0l0,.09,1,.32,0-.08s-.05,0-.06-.05a.09.09,0,0,1,0-.07c0-.14,0-2.92,0-3s0-.2,0-.22a.08.08,0,0,1,.11,0l0-.09-1.23-.46Zm.35,2.36-1-.36,1-1.1Zm2.11-30.95c-.18.59-.54,2.17-.63,2.44l.6.57c0-.16.13-.66.15-.72l1.07.44c0,.1.36.68.48.89l.39-.2c-.21-.35-1.7-2.87-2-3.41Zm.3,1.1.59,1.07-.72-.29C36.78,53.11,36.87,52.61,36.89,52.49ZM68.08,79.35a.09.09,0,0,1-.07,0l-2.38-1.89a1.05,1.05,0,0,1-.17-.15.07.07,0,0,1,0-.11l0-.08-1.12.67,0,.08c.06,0,.09,0,.11,0a2.12,2.12,0,0,1,.09.33c0,.2.49,2.47.57,2.85a.1.1,0,0,1,0,.07s0,0,0,.06l0,.08.81-.45,0-.08,0,0a.07.07,0,0,1-.06,0s0,0,0-.1l-.09-.44,1.25-.74.36.28.06.07s0,.06,0,.07l0,0,0,.08.86-.56,0-.09A.09.09,0,0,1,68.08,79.35Zm-2.54.24-.27-1.45,1.16.91ZM39.65,54.94l-.2-1.08c-.11-.58-.27-1.49-.28-1.6L38.49,52c0,.09.24,1.22.26,1.29l.11.61c0,.1.22,1.14.24,1.37l1.31.62-.12-.66C40,55.09,39.75,55,39.65,54.94Zm-5.89-5c0,.35-.11,1.56-.13,1.77-.21-.34-1.23-2-1.46-2.4h0c0,.53.14,2.65.15,3l.62.55c0-.35-.15-1.81-.15-1.92.12.19,1,1.6,1.33,2.12h0c0-.48.1-1.34.1-1.51h0c.14.25,1,2,1.12,2.28l.41-.08c-.13-.23-1.71-3.31-2-3.78Zm7.75,3.13c-.22.62-.72,2.3-.83,2.59l.57.65c0-.18.18-.72.2-.77l1.06.51.42,1,.42-.2c-.19-.38-1.52-3.16-1.82-3.75Zm.22,1.19c.1.21.43,1,.52,1.18l-.71-.35C41.57,55,41.7,54.41,41.73,54.29Zm22.65,27.2s-.06,0-.09-.08l-1.24-2.7c0-.06,0-.09,0-.12a.27.27,0,0,1,.1-.08l0-.09-1,.49,0,.09.13,0s.06,0,.09.08L63,80.46l-1.52-.83c-.11-.06-.15-.08-.16-.11a.09.09,0,0,1,0-.11.19.19,0,0,1,.07-.06l0-.09L60,79.85l0,.08.12,0s.06,0,.09.08l1.24,2.71a.13.13,0,0,1,0,.12l-.08.07,0,.08,1-.41,0-.09a.23.23,0,0,1-.11,0s-.07,0-.09-.08l-.86-1.86v0c.27.16,1.28.71,1.49.82l.53.28a.73.73,0,0,1,.23.18.09.09,0,0,1,0,.11l-.11.06,0,.09,1-.52,0-.09ZM37.15,50.75l-1.45-.61.14.62,1.46.61ZM47,4.35A43.06,43.06,0,1,0,90.08,47.41,43.1,43.1,0,0,0,47,4.35ZM47,89A41.57,41.57,0,1,1,88.59,47.41,41.62,41.62,0,0,1,47,89ZM76.63,29.6a.35.35,0,0,1-.07-.09l-.11.06.71,1.22.1-.05a.14.14,0,0,1,0-.07s0-.06.05-.08l.13,0,.61-.06,1,1.89-.42.5a.28.28,0,0,1-.09.08c-.05,0-.07,0-.09,0l0-.06-.1.06.63,1.43.11,0a.23.23,0,0,1,0-.11.15.15,0,0,1,0-.1c.13-.14,2.57-3.15,2.68-3.28a1.36,1.36,0,0,1,.2-.21s.1,0,.14.06l.11-.06L81.27,29l-.1.06c0,.07,0,.12,0,.15a2,2,0,0,1-.44.07l-4,.39A.15.15,0,0,1,76.63,29.6Zm4.1.68-1.21,1.51-.71-1.36Zm4.1,8.47a1.94,1.94,0,0,1,0,.22.14.14,0,0,1-.13.1l-3.8.81c-.07,0-.12,0-.15-.05a1.29,1.29,0,0,1-.09-.2l-.12,0,.37,1.79.12,0a.8.8,0,0,1,0-.22.13.13,0,0,1,.12-.1l3.79-.8a.13.13,0,0,1,.16.05.55.55,0,0,1,.08.2l.12,0L85,38.73Zm-1.31-2.14A1.23,1.23,0,0,0,83,37a.6.6,0,0,0-.12.61.76.76,0,0,0,.32.43.65.65,0,0,0,.55.06.66.66,0,0,0,.49-.38,1,1,0,0,0,0-.6.92.92,0,0,1,.59.13,1.79,1.79,0,0,1,.43.39l.29-.08a3.67,3.67,0,0,0-.37-.43,1.89,1.89,0,0,0-.46-.34,1.72,1.72,0,0,0-.54-.18A1.48,1.48,0,0,0,83.52,36.61ZM57.09,52.73h0c0,.17.12,1,.21,1.47h0c.31-.51,1.11-1.89,1.22-2.07,0,.11,0,1.52,0,1.86l.6-.53c0-.33,0-2.4-.06-2.91h0c-.2.36-1.13,2-1.33,2.35,0-.2-.19-1.43-.24-1.77h0c-.22.46-1.64,3.52-1.75,3.75l.42.07C56.2,54.73,57,53,57.09,52.73ZM79.54,35.24a.15.15,0,0,1-.16,0,.48.48,0,0,1-.11-.19l-.12,0,.62,1.73.11,0a1.23,1.23,0,0,1,0-.21A.16.16,0,0,1,80,36.4l3.64-1.31a.13.13,0,0,1,.16,0,.56.56,0,0,1,.11.19l.12,0-.61-1.72-.12,0a.69.69,0,0,1,0,.22c0,.05,0,.09-.11.12ZM84,53.58a1.87,1.87,0,0,0-.76-.31,2.07,2.07,0,0,0-.82,0,1.55,1.55,0,0,0-.61.28,1.41,1.41,0,0,0-.42.46,1.86,1.86,0,0,0-.22.56,2,2,0,0,0,0,.6,1.55,1.55,0,0,0,.21.59,1.8,1.8,0,0,0,.46.5,2.34,2.34,0,0,0,1.58.32,1.71,1.71,0,0,0,.61-.28,1.68,1.68,0,0,0,.41-.47,2,2,0,0,0,.2-.56,2,2,0,0,0,0-.6,1.57,1.57,0,0,0-.19-.59A1.53,1.53,0,0,0,84,53.58Zm-.17,1.52a.91.91,0,0,1-.12.31,1,1,0,0,1-.24.23.93.93,0,0,1-.33.12.91.91,0,0,1-.4,0,1.35,1.35,0,0,1-.37-.14,1,1,0,0,1-.25-.24.71.71,0,0,1-.13-.31.65.65,0,0,1,0-.34.71.71,0,0,1,.13-.31.76.76,0,0,1,.24-.23.82.82,0,0,1,.32-.12,1.09,1.09,0,0,1,.4,0,1.24,1.24,0,0,1,.37.14,1,1,0,0,1,.26.24.91.91,0,0,1,.12.31A.65.65,0,0,1,83.83,55.1Zm0,2.53a.12.12,0,0,1-.12,0l-2.83-.91a.15.15,0,0,1-.09-.08.62.62,0,0,1,0-.13l-.09,0-.31,1.06.09,0a.3.3,0,0,1,.07-.11.12.12,0,0,1,.12,0l1.47.48-1.64.56c-.11,0-.15,0-.18,0a.09.09,0,0,1-.09-.07.27.27,0,0,1,0-.09l-.09,0-.5,1.41.09,0a.52.52,0,0,1,.07-.11.12.12,0,0,1,.12,0l2.83.91c.06,0,.09,0,.09.08a.2.2,0,0,1,0,.11l.09,0,.36-1-.09,0a.3.3,0,0,1-.07.11s-.06,0-.12,0l-1.94-.63,0,0c.3-.09,1.39-.47,1.61-.55l.57-.19a.66.66,0,0,1,.29,0s.07,0,.06.09a.36.36,0,0,1,0,.11l.09,0L84,57.55l-.09,0Zm-5.75,12a.09.09,0,0,1-.07,0l-2.9-.92-.2-.08a.07.07,0,0,1,0-.11l-.08-.06-.81,1,.07.06s.08,0,.12,0,.08.11.19.29L76,72.31a.09.09,0,0,1,0,.07.08.08,0,0,1,0,.07l.08.07.6-.72-.07-.06s0,0,0,0,0,0-.07,0a.18.18,0,0,1-.06-.08s-.21-.34-.24-.37l.9-1.15.43.14.08,0s0,0,0,.07l0,0,.07.06.61-.83-.07-.06A.18.18,0,0,1,78.13,69.67ZM75.85,70.8l-.76-1.25L76.5,70ZM60.33,52.42l1.09-.5c0,.06,0,.63,0,.82l.66-.65c0-.32-.18-2.13-.27-2.8h0c-.4.61-2.18,3.51-2.43,3.91l.35.23Zm1.09-1.87c0,.13,0,.71,0,.89l-.73.34C60.83,51.56,61.28,50.76,61.42,50.55ZM45.71,72.89l-.17,0a.44.44,0,0,0-.15,0,.47.47,0,0,0-.16,0l-.17,0a.35.35,0,0,0-.13.11.27.27,0,0,0,0,.34.35.35,0,0,0,.13.11l.17,0,.16,0,.15,0,.17,0a.38.38,0,0,0,.14-.11.31.31,0,0,0,0-.34A.38.38,0,0,0,45.71,72.89Zm34.4-6.28a.11.11,0,0,1-.12,0l-.83-.5.36-.61a2.17,2.17,0,0,0,.19-.41,1,1,0,0,0,.05-.41.9.9,0,0,0-.17-.41,1.42,1.42,0,0,0-.42-.37,1.24,1.24,0,0,0-.54-.2,1,1,0,0,0-.43.05,1,1,0,0,0-.34.24,2.42,2.42,0,0,0-.27.36l-.85,1.42.09,0s0,0,0,0,.07,0,.12,0l2.56,1.53s.07.06.07.09v.07l.08,0,.56-.92-.09,0S80.14,66.6,80.11,66.61ZM78.9,65.25l-.31.51-.8-.47.33-.56c.09-.13.17-.22.27-.23a.48.48,0,0,1,.36.09.5.5,0,0,1,.25.28A.56.56,0,0,1,78.9,65.25Zm3-4.09a2,2,0,0,0-.68-.46,2,2,0,0,0-.79-.18,1.53,1.53,0,0,0-.66.14,1.59,1.59,0,0,0-.51.37,1.73,1.73,0,0,0-.47,1.09,1.42,1.42,0,0,0,.07.61,1.56,1.56,0,0,0,.36.58,1.7,1.7,0,0,0,.67.46,1.74,1.74,0,0,0,.8.18,1.53,1.53,0,0,0,1.15-.51,2.29,2.29,0,0,0,.32-.51,1.84,1.84,0,0,0,.15-.58,1.42,1.42,0,0,0-.07-.61A1.5,1.5,0,0,0,81.9,61.16Zm-.48,1.45a.77.77,0,0,1-.19.28.84.84,0,0,1-.28.18.83.83,0,0,1-.35,0,1.25,1.25,0,0,1-.39-.1,1.12,1.12,0,0,1-.33-.22.73.73,0,0,1-.19-.28.75.75,0,0,1-.07-.33,1,1,0,0,1,.07-.33,1,1,0,0,1,.2-.28.73.73,0,0,1,.28-.17.93.93,0,0,1,.34-.06,1.18,1.18,0,0,1,.39.1.91.91,0,0,1,.33.22.76.76,0,0,1,.2.28,1,1,0,0,1,.06.33A.78.78,0,0,1,81.42,62.61Zm-29-6.8-.76.32.15-1c.08-.58.23-1.52.25-1.63l-.59.24c0,.09-.17,1.22-.17,1.3l-.09.61c0,.11-.16,1.1-.21,1.35l1.32-.49ZM10.71,33.94a.17.17,0,0,1,.16,0l3.54,1.58c.07,0,.11.07.11.12a.55.55,0,0,1,0,.17l.11.05.57-1.48-.11,0a.57.57,0,0,1-.11.14.15.15,0,0,1-.16,0l-2.43-1.08v0c.41-.1.81-.2,1.19-.32l1-.32c.3-.1.56-.17.77-.23a.79.79,0,0,1,.39-.05.1.1,0,0,1,.06.14.6.6,0,0,1-.05.16l.11,0,.76-1.52-.11-.05a.58.58,0,0,1-.11.15.15.15,0,0,1-.16,0L12.69,29.8c-.06,0-.1-.07-.1-.12a.5.5,0,0,1,0-.19l-.11,0-.73,1.46.12.05A.58.58,0,0,1,12,30.8s.09,0,.16,0l1.84.82-.86.25-.79.24-.59.16c-.16.05-.21.07-.25.06a.15.15,0,0,1-.13-.13.61.61,0,0,1,0-.14l-.11,0-.81,2,.11.05A.58.58,0,0,1,10.71,33.94ZM12,41a1.49,1.49,0,0,0,.69-.2,1.69,1.69,0,0,0,.56-.54,3.59,3.59,0,0,0,.49-2,1.67,1.67,0,0,0-.25-.74,1.46,1.46,0,0,0-.52-.5,2.53,2.53,0,0,0-.72-.29l-2.11-.52a.15.15,0,0,1-.12-.12,1.42,1.42,0,0,1,0-.19l-.12,0-.46,1.61.12,0a.24.24,0,0,1,.06-.09.15.15,0,0,1,.15,0l2.4.58a.62.62,0,0,1,.48.38,1.44,1.44,0,0,1-.32,1.3.62.62,0,0,1-.6.12l-2.4-.59c-.07,0-.12,0-.12-.09a.23.23,0,0,1,0-.11l-.12,0-.32,1.62.12,0a.54.54,0,0,1,.08-.17.15.15,0,0,1,.16-.05l2.1.52A2.61,2.61,0,0,0,12,41Zm-1.32,15.6a2.52,2.52,0,0,0,.6-.05L13,56.15a.09.09,0,0,1,.12,0,.37.37,0,0,1,.05.11l.1,0L13,55.18l-.1,0a.2.2,0,0,1,0,.07s0,0-.1.06l-1.88.39a.48.48,0,0,1-.45-.08.76.76,0,0,1-.22-.42.67.67,0,0,1,0-.47.49.49,0,0,1,.38-.26l1.87-.39a.12.12,0,0,1,.11,0s0,0,0,.06l.1,0L12.56,53l-.09,0v.13s0,.06-.1.08l-1.73.36a2.31,2.31,0,0,0-.56.2,1.2,1.2,0,0,0-.43.34,1.13,1.13,0,0,0-.22.51,2.13,2.13,0,0,0,0,.7,1.82,1.82,0,0,0,.26.66,1.11,1.11,0,0,0,.4.38A1.34,1.34,0,0,0,10.65,56.56Zm3,2.31a.73.73,0,0,1,.17-.13s.08,0,.1,0l.09,0-.4-1.24-.09,0a.08.08,0,0,1-.05.1h-.34l-2.91-.08a.07.07,0,0,1-.06,0,.13.13,0,0,1-.05-.06l-.09,0,.26.89.09,0a.11.11,0,0,0,0,0s0,0,.06,0a.26.26,0,0,1,.09,0h.45l.45,1.39L11,60,11,60s-.06,0-.07,0a.17.17,0,0,1,0-.05l-.09,0,.35,1,.09,0a.17.17,0,0,1,0-.07s0-.06,0-.07ZM13,58.36l-1.15.93-.32-1Zm.6-30.54a.14.14,0,0,1,.16,0l3.32,2c.06,0,.09.08.08.14a.91.91,0,0,1-.08.2l.11.07.95-1.56L18,28.62a.66.66,0,0,1-.14.17.15.15,0,0,1-.17,0l-3.31-2c-.06,0-.09-.08-.08-.14a1,1,0,0,1,.07-.21l-.1-.06-1,1.56.1.06A.59.59,0,0,1,13.61,27.82Zm5.16-7.14.09.09a.65.65,0,0,1,.15-.1.15.15,0,0,1,.16,0l2.62,2.83c.05.05.07.1,0,.15a.44.44,0,0,1-.1.15l.08.09,3-2.84.13-.1a.28.28,0,0,1,.18.06l.07-.07L24.28,20l-.08.08c.08.15.08.26,0,.35l-1.91,1.78-.68-.73,1.26-1.18a.16.16,0,0,1,.12,0s.1,0,.16.1l.08-.08-.89-1-.08.07a.24.24,0,0,1,.08.18.11.11,0,0,1,0,.1L21,20.9l-.57-.61,2-1.83a.19.19,0,0,1,.11-.05.3.3,0,0,1,.18.11l.08-.07-.93-1-.08.08c.06.07.1.12.08.17a.12.12,0,0,1-.05.1ZM16.56,65c.06,0,.09,0,.12,0s.05,0,.07.06l.08,0-.68-1.22-.08,0,0,.08a.05.05,0,0,1,0,0l-.19,0-1.23.1.78-.88A2.25,2.25,0,0,1,15.6,63s0,0,.06,0,0,0,.05.06l.09,0-.6-1.25-.08.05a.31.31,0,0,1,0,.1s0,.06-.07.09L12.41,63.4a.11.11,0,0,1-.12,0l-.07-.07-.08,0,.41.9.09,0a.35.35,0,0,1,0-.13s0-.06.07-.09l2-1h0l-1.6,1.85,2.44-.21h0l-2,1a.11.11,0,0,1-.12,0,.24.24,0,0,1-.08-.09l-.08,0,.51.92.08,0a.28.28,0,0,1,0-.09s0-.06.07-.09ZM15.17,25.32a.13.13,0,0,1,.09,0,1.22,1.22,0,0,1,.35.08l3.26,1.21.32.13a.18.18,0,0,1,.06.14.17.17,0,0,1-.06.12l.1.07,1.2-1.53-.1-.07a.16.16,0,0,1-.11.08.15.15,0,0,1-.13,0,2.41,2.41,0,0,1-.19-.27c-.11-.16-2-3.17-2-3.23a.34.34,0,0,1,0-.12.61.61,0,0,1,.05-.12l-.09-.08-1,1.16.1.08.09-.1a.08.08,0,0,1,.12,0,2.73,2.73,0,0,1,.19.29c.11.17,1.14,1.87,1.26,2.07h0l-2.36-.86-.19-.08a.09.09,0,0,1,0-.13.62.62,0,0,1,.08-.12L16,23.9l-1,1.39.09.08S15.15,25.33,15.17,25.32Zm31.16,57.1.11,0a.1.1,0,0,1,0,.11s0,0-.06.11l-.19.21-1,1.08,0-1.44a.13.13,0,0,1,.07-.11l.12,0v-.1l-1.17-.07v.1a.12.12,0,0,1,.1,0,.15.15,0,0,1,0,.12l-.1,3a.14.14,0,0,1,0,.12.23.23,0,0,1-.11,0v.09l1.18.07v-.09l-.11,0s-.06,0-.06-.11l0-.64.57-.64s.57,1.15.59,1.21a.42.42,0,0,1,0,.12.09.09,0,0,1-.07.1.26.26,0,0,1-.11,0v.1h1.27v-.09l-.09,0a.23.23,0,0,1-.06-.09l-1-1.93c.09-.08.55-.6.67-.72l.32-.33a.58.58,0,0,1,.25-.16v-.09H46.33v.1ZM28.05,76.71a.11.11,0,0,1-.08,0L25.66,75l-.06.08a.34.34,0,0,1,.08.09.09.09,0,0,1,0,.12l-1.73,2.43a.15.15,0,0,1-.11.06.31.31,0,0,1-.12,0l-.05.08,2.27,1.63.08.07a.28.28,0,0,1,0,.14l.05,0,.6-.84-.06,0c-.1.09-.18.11-.25.06l-1.44-1,.44-.63,1,.69a.1.1,0,0,1,0,.07s0,.08-.05.14l.06,0,.6-.83-.07,0a.21.21,0,0,1-.11.09h-.08l-1-.69.37-.52,1.49,1.07a.16.16,0,0,1,0,.07.37.37,0,0,1-.06.15l.06,0,.61-.85-.06,0C28.12,76.68,28.08,76.71,28.05,76.71ZM31.29,81l.46-.91-.07,0c0,.06-.06.1-.1.11a.11.11,0,0,1-.08,0l-1.05-.53.29-.57,1.63.83a.1.1,0,0,1,.05.06.19.19,0,0,1,0,.15l.07,0,.48-.94-.07,0c0,.06-.06.1-.1.11h-.08L30.15,78l0,.08a.24.24,0,0,1,.09.08s0,.07,0,.12l-1.34,2.66s-.06.08-.1.07l-.12,0,0,.08,2.49,1.27.09.06a.31.31,0,0,1,0,.14l0,0,.47-.92-.07,0c-.08.1-.15.14-.23.1l-1.59-.8.35-.7,1.05.54a.09.09,0,0,1,.06.06.24.24,0,0,1,0,.15ZM41,82.22a1.54,1.54,0,0,0-.46-.42,2,2,0,0,0-.56-.22,2,2,0,0,0-.6,0,1.79,1.79,0,0,0-.59.2,1.64,1.64,0,0,0-.49.46A2,2,0,0,0,38,83a1.9,1.9,0,0,0,0,.82,1.54,1.54,0,0,0,.27.61,1.68,1.68,0,0,0,.47.41,1.9,1.9,0,0,0,.56.21,2,2,0,0,0,.6,0A1.47,1.47,0,0,0,41,84.41a1.77,1.77,0,0,0,.31-.75,2.08,2.08,0,0,0,0-.82A1.76,1.76,0,0,0,41,82.22Zm-.54,1.27a1.07,1.07,0,0,1-.14.38,1.14,1.14,0,0,1-.24.25,1,1,0,0,1-.31.13.92.92,0,0,1-.65-.14.88.88,0,0,1-.23-.24.77.77,0,0,1-.12-.33,1,1,0,0,1,0-.39,1.08,1.08,0,0,1,.15-.38,1,1,0,0,1,.24-.25.84.84,0,0,1,.31-.12.65.65,0,0,1,.34,0,.85.85,0,0,1,.31.13,1,1,0,0,1,.23.24.93.93,0,0,1,.12.33A1,1,0,0,1,40.47,83.49ZM20.9,70.77a.26.26,0,0,1,.11.08l.07-.07-.75-.84-.07.06a.14.14,0,0,1,0,.07s0,.06-.06.1l-1.48,1.21a.5.5,0,0,1-.44.14.86.86,0,0,1-.39-.27.8.8,0,0,1-.19-.44.52.52,0,0,1,.22-.4l1.49-1.22a.14.14,0,0,1,.11,0s.05,0,.06,0l.08-.06-.7-.9-.07.06a.41.41,0,0,1,.06.11.11.11,0,0,1,0,.11l-1.37,1.13a2.36,2.36,0,0,0-.41.43,1.47,1.47,0,0,0-.22.5,1.09,1.09,0,0,0,0,.56,2.25,2.25,0,0,0,.88,1.07,1.1,1.1,0,0,0,.54.15,1.28,1.28,0,0,0,.53-.12,2.78,2.78,0,0,0,.51-.31l1.36-1.13S20.87,70.75,20.9,70.77Zm2.72,4.29c.11,0,.8-.11,1-.14a4.47,4.47,0,0,1,.47,0,.56.56,0,0,1,.29,0l.06-.07-.95-.79-.06.07.06.1a.11.11,0,0,1,0,.11l-.12,0-.28,0-1.5.17.95-1.09s.08-.06.11,0l.12.05.06-.07-.86-.79-.07.07a.13.13,0,0,1,.07.08.14.14,0,0,1,0,.13l-2,2.24s-.08.07-.11.06a.16.16,0,0,1-.1,0l-.06.07.86.79.07-.07a.23.23,0,0,1-.07-.1.1.1,0,0,1,0-.12l.42-.48.84-.14s-.29,1.25-.3,1.32,0,.1,0,.11a.11.11,0,0,1-.13,0l-.09-.06-.07.07,1,.82.06-.07a.3.3,0,0,1,0-.08.22.22,0,0,1,0-.11Zm-7.44-5.14c.09-.11,1.7-2.37,1.78-2.47a1.08,1.08,0,0,1,.13-.17s.08,0,.12,0l.07,0-.73-1.09-.07,0a.08.08,0,0,1,0,.11l-.33.1-2.81.71a.11.11,0,0,1-.08,0s0,0-.06-.05l-.08.05.5.79.07,0s0,0,0,0,0,0,0-.06l.09,0,.44-.11L16,68.82s-.24.33-.27.37a.45.45,0,0,1-.07.07.06.06,0,0,1-.07,0l0,0-.08,0,.6.84.08-.05a.15.15,0,0,1,0-.07S16.17,70,16.18,69.92Zm-.38-2.45,1.43-.34-.85,1.2Zm7.91-51c.05,0,.09,0,.14.09L26,19.77c0,.07.05.12,0,.16A.36.36,0,0,1,26,20l.07.1,1.28-.93-.07-.1-.16.06a.14.14,0,0,1-.14-.08l-.78-1.14.74-.5,1.16.64a.91.91,0,0,1,.22.16.09.09,0,0,1,0,.13.47.47,0,0,1-.1.1l.07.1,1.64-1-.07-.1a.41.41,0,0,1-.19.05.42.42,0,0,1-.2,0l-1.54-.71a2.08,2.08,0,0,0,.32-.83A1.23,1.23,0,0,0,28,15,1.32,1.32,0,0,0,27,14.4a1.67,1.67,0,0,0-1.11.32l-2.42,1.71.07.1Zm2.45-.81a.8.8,0,0,1,.55-.18.54.54,0,0,1,.34.24.49.49,0,0,1,.09.44.71.71,0,0,1-.31.37l-1.09.74-.61-.91Zm32-1a.69.69,0,0,1-.17-.1.17.17,0,0,1,0-.16l.45-1.3,1.6.55a.22.22,0,0,1,.09.08.28.28,0,0,1,0,.2l.1,0,.45-1.28-.11,0a.26.26,0,0,1-.11.16h-.12L58.7,12.3l.3-.89,2.36.82s.06,0,.09.08a.28.28,0,0,1,0,.2l.1,0,.45-1.3-.1,0c0,.09-.07.15-.11.16a.24.24,0,0,1-.12,0l-3.78-1.32,0,.12a.55.55,0,0,1,.17.1.15.15,0,0,1,0,.16L56.78,14.1c0,.07-.07.11-.12.11l-.19,0,0,.11,1.66.51ZM56.63,80.46,56.49,80l-1.18.35.15.48Zm-5.21,5s0,0-.05-.06-1.22-2.66-1.27-2.78a1.42,1.42,0,0,1-.08-.2s0-.07.08-.08v-.1l-1.31.09v.1a.08.08,0,0,1,.09.07,3,3,0,0,1-.08.33c-.06.19-.69,2.42-.79,2.79a.1.1,0,0,1,0,.07l-.07,0v.1l.93,0v-.1h0s0,0,0-.06a.22.22,0,0,1,0-.1s.11-.39.12-.44l1.45-.1.19.42a.23.23,0,0,1,0,.09s0,.06,0,.07h-.05v.09l1-.1v-.09Zm-2.38-1,.43-1.4.61,1.34ZM73.27,24.71s-.18,0-.3-.08l-.1.07,1.23,1.47.1-.08a.71.71,0,0,1-.07-.16.11.11,0,0,1,0-.11.88.88,0,0,1,.22-.09l2-.69.28-.1h0a2.88,2.88,0,0,0-.18.24l-1.18,1.73a1.73,1.73,0,0,1-.15.19c-.06,0-.15,0-.27-.14l-.1.08,1.11,1.59.1-.08a.23.23,0,0,1,0-.31l3.59-1.38.19-.05a.21.21,0,0,1,.17.08l.1-.08-.82-1.25-.1.07a.48.48,0,0,1,.08.16.16.16,0,0,1-.07.16s-2.37.95-2.44,1v0l1.4-2.08a1.29,1.29,0,0,1,.14-.17.12.12,0,0,1,.16,0,.3.3,0,0,1,.14.11l.09-.07-1.12-1.48-.09.08a.52.52,0,0,1,.07.15.16.16,0,0,1-.07.16,1.11,1.11,0,0,1-.23.1c-.12.05-2.27.77-2.34.81v0c0-.05,1.58-2.1,1.61-2.12a.14.14,0,0,1,.16,0,.36.36,0,0,1,.13.11l.1-.07-1-1.2-.1.07a.25.25,0,0,1,0,.09.21.21,0,0,1,0,.11S73.3,24.69,73.27,24.71ZM72,18.39,68.4,20.16a.14.14,0,0,1-.11,0,.27.27,0,0,1-.1-.06l-.08.1,1.09.89.08-.09,0-.06s0-.05,0-.09l.11-.07c.06,0,.51-.24.55-.27L71.51,22s-.19.55-.21.6a.33.33,0,0,1-.06.12.09.09,0,0,1-.09,0l-.06,0-.08.09,1.11,1.11.08-.09a.22.22,0,0,1-.07-.09.09.09,0,0,1,0-.1c.06-.18,1.28-3.86,1.34-4a1.65,1.65,0,0,1,.11-.27c0-.05.09,0,.15,0l.08-.09L72.4,17.93l-.08.09c.05.06.06.11,0,.15A1.91,1.91,0,0,1,72,18.39Zm-.19,2.8-1.14-1,1.74-.83ZM60.36,83.26s-.06,0-.08-.09l-1-2.79c0-.06,0-.1,0-.13l.13-.08,0-.08-1.17.41,0,.09a.44.44,0,0,1,.15,0s.06,0,.08.09l1,2.8a.12.12,0,0,1,0,.12.74.74,0,0,1-.13.08l0,.09,1.16-.42,0-.09A.44.44,0,0,1,60.36,83.26Zm-1.62.57a.07.07,0,0,1-.06,0c-.09-.12-1.72-2.37-1.79-2.48a.6.6,0,0,1-.12-.18s0-.08.06-.1l0-.09-1.26.35,0,.09c.06,0,.09,0,.1.05a1.33,1.33,0,0,1,0,.34c0,.2-.19,2.51-.22,2.9a.09.09,0,0,1,0,.07l-.07,0,0,.09.9-.21,0-.09h-.05s0,0,0,0v-.1s0-.42,0-.46l1.41-.38s.24.33.26.37a.44.44,0,0,1,0,.09s0,.06,0,.07l-.05,0,0,.09,1-.3,0-.09A.08.08,0,0,1,58.74,83.83Zm-2.52-.46.14-1.46.87,1.19Zm-9.17-67.8A31.85,31.85,0,1,0,78.9,47.42,31.85,31.85,0,0,0,47.05,15.57Zm1.13,8.79s-.23,2,.6,1.84c1-.2,1.75-2.35,5.32-3.2A6.39,6.39,0,0,0,54,26.9c.68,2.11,1.78,3.4.68,6.56-1.1,2.47-2.5,3-2.5,3H50.83a8.15,8.15,0,0,0,2.08-3.15,4.35,4.35,0,0,0-.27-3.09,6,6,0,0,1-.36-1.08,8.81,8.81,0,0,1-.07-2.78l.19-1.16-1,.67a16.53,16.53,0,0,1-1.65,1c-2.76,1.51-6.87,3.75-6.68,9.62H41.25s-1.39-2,.12-5.48C43.12,26.94,48.18,24.36,48.18,24.36Zm3.12,5a9.37,9.37,0,0,0,.4,1.23A3.34,3.34,0,0,1,52,33.09a9,9,0,0,1-2.58,3.41H44.1c0-.12,0-.25,0-.37,0-5,3.54-6.94,6.18-8.37l.86-.48v.37A8.54,8.54,0,0,0,51.3,29.39Zm2.19,7.87a.52.52,0,0,1,.52.53.52.52,0,0,1-.52.53H40.66a.53.53,0,0,1-.53-.53.53.53,0,0,1,.53-.53ZM42.63,44.34a50,50,0,0,0-6.71-5.64l-1.2-3.17C35.55,35.75,38.58,37.3,42.63,44.34Zm.46,2-11.4-4.88-1.55-4.11C32.19,37.72,36.48,39.75,43.09,46.33ZM41.32,39.1H52.87a6.4,6.4,0,0,1-5.8,3.3A6.14,6.14,0,0,1,41.32,39.1Zm16.91-.4a49.42,49.42,0,0,0-6.71,5.64c4-7,7.08-8.59,7.9-8.81ZM64,37.34l-1.56,4.11L51.06,46.33C57.66,39.75,62,37.72,64,37.34ZM43.91,77.59c-.5,0-1.13-.14-1.13-.14-2-1.54-3.83-4.18-5.34-7.77A37.08,37.08,0,0,1,36,65.74H27.25a25.93,25.93,0,0,0,12,11l-.48-.12c-.61-.15-1.68-.53-1.68-.53-.54-.18-1.82-.7-1.82-.7a28.23,28.23,0,0,1-8.81-9.64H22.85s-.52-.7-.52-.7h3.74a37,37,0,0,1-4.3-17.27H16.69v-.7h5.08A37.05,37.05,0,0,1,26.11,29.8H22.32l.52-.7h3.64v0a28.16,28.16,0,0,1,9.08-9.77,26.07,26.07,0,0,1,2.83-1L39.51,18l.21,0A25.77,25.77,0,0,0,27.29,29.1h8.76a39.13,39.13,0,0,1,1.39-3.88c1.55-3.67,3.42-6.34,5.48-7.87l1-.13.53,0c-3.15,1.56-5.88,5.91-7.73,11.92H41s-.26.43-.4.7h-4c-.42,1.47-.8,3-1.12,4.68l-.27-.11a3.17,3.17,0,0,0-.39-.12c.3-1.55.66-3,1.07-4.45H26.91a36.33,36.33,0,0,0-4.44,17.27h5.26l.27.7H22.47A36.17,36.17,0,0,0,26.87,65h9c-.34-1.17-.65-2.39-.92-3.66l.79.35c.25,1.15.53,2.25.84,3.31h6.65l1.58.71h-8c1.82,5.93,4.49,10.25,7.58,11.89Zm-.41-2.82.07,0v0h-.93v0l.08,0s0,0,0-.07V73.21l-.19,0-.1,0a.12.12,0,0,0-.05,0,.19.19,0,0,0,0,.08h-.06v-.76h.06v.07s0,0,.05,0h0l.1,0,.09,0,.07,0v-.15s0-.06,0-.06a.07.07,0,0,0-.06,0v-.06h.92v.06a.11.11,0,0,0-.08,0,.05.05,0,0,0,0,.06V74.7S43.47,74.76,43.5,74.77Zm3.07-.65a1.14,1.14,0,0,1-.31.41,1.46,1.46,0,0,1-.46.25,2,2,0,0,1-.55.08l-.34,0-.26,0-.18-.05-.08,0a.16.16,0,0,0-.11.05l-.06,0,.37-.63,0,0v.05a.12.12,0,0,0,.06.1.23.23,0,0,0,.13.07,1,1,0,0,0,.2.05h.22a.92.92,0,0,0,.29,0,1,1,0,0,0,.25-.12A.61.61,0,0,0,46,74a.66.66,0,0,0,.09-.29,2.63,2.63,0,0,1-.45.18,1.21,1.21,0,0,1-.43.07,1,1,0,0,1-.35-.06.9.9,0,0,1-.29-.16.76.76,0,0,1-.2-.27.74.74,0,0,1-.08-.34.66.66,0,0,1,.11-.38.92.92,0,0,1,.26-.26,1.09,1.09,0,0,1,.37-.14,1.73,1.73,0,0,1,.38,0,1.53,1.53,0,0,1,.54.08,1.08,1.08,0,0,1,.41.22,1,1,0,0,1,.27.38,1.53,1.53,0,0,1,.09.54A1.25,1.25,0,0,1,46.57,74.12Zm-.28-4.66L45.9,64.9h0l-.42-4.77a.07.07,0,0,0-.08-.08.07.07,0,0,0-.07.08l-.26,4.4-11.28-5L26.66,40.74l17.76,7.37-.49-5.58a7.52,7.52,0,0,0,2.5.61l.51,9.23a.12.12,0,0,0,.13.12.13.13,0,0,0,.14-.12l.5-9.23a7.52,7.52,0,0,0,2.51-.62l-.49,5.59,17.76-7.37c-.54,1.41-7,18.53-7.12,18.79l-11.29,5-.25-4.4a.08.08,0,1,0-.16,0l-.42,4.77h0l-.4,4.57a.78.78,0,0,1-1.56,0Zm3.35,4.73a1.23,1.23,0,0,1-.27.4,1.36,1.36,0,0,1-.41.26,1.39,1.39,0,0,1-.5.09,1.29,1.29,0,0,1-.9-.35,1.23,1.23,0,0,1-.27-.4,1.18,1.18,0,0,1-.11-.5,1.23,1.23,0,0,1,.11-.51,1.34,1.34,0,0,1,.27-.4,1.36,1.36,0,0,1,.41-.26,1.19,1.19,0,0,1,.49-.1,1.21,1.21,0,0,1,.5.1,1.36,1.36,0,0,1,.41.26,1.34,1.34,0,0,1,.27.4,1.22,1.22,0,0,1,.1.51A1.18,1.18,0,0,1,49.64,74.19ZM71.73,29.8H68.06a37,37,0,0,1,4.33,17.27h5v.7h-5A37.16,37.16,0,0,1,68.09,65h3.62s-.4.56-.52.71H67.71a28.23,28.23,0,0,1-8.62,9.51l-.27.11c-.31.15-1.58.63-1.58.63-.81.3-2.12.66-2.12.66A26,26,0,0,0,66.9,65.75H58.14a40.15,40.15,0,0,1-1.42,3.93c-1.51,3.58-3.32,6.21-5.32,7.75,0,0-.35.06-.57.08l-1,.11c3.08-1.65,5.74-6,7.55-11.87h-8L51,65h6.67q.47-1.59.84-3.33l.79-.34c-.27,1.27-.58,2.49-.92,3.67h9a36.2,36.2,0,0,0,4.4-17.27H66.13l.27-.7h5.29A36.3,36.3,0,0,0,67.26,29.8H58.32c.4,1.41.76,2.88,1.06,4.42l-.14.05c-.18,0-.52.19-.52.19-.31-1.64-.69-3.19-1.11-4.66H56.27a5.17,5.17,0,0,0-.18-.7h1.3c-1.85-6-4.58-10.36-7.73-11.92l1.08.11.53.08c2,1.53,3.91,4.19,5.45,7.85a39.13,39.13,0,0,1,1.39,3.88h8.77A25.83,25.83,0,0,0,54.59,18s1.72.47,2.69.82c0,0,1,.37,1.13.44l.37.15a28.19,28.19,0,0,1,8.9,9.67h3.53Zm-20.18,45,.08,0v.06h-1v-.06a.13.13,0,0,0,.09,0l.06-.08,1-1.74H50.27a.07.07,0,0,0-.06,0s0,0,0,.09h-.06v-.78h.06s0,.08,0,.09a.07.07,0,0,0,.06,0h2.11s0,0,0,0,0,0,0-.08h.06v.6l-.91,1.65-.06.11a.16.16,0,0,0,0,.08A.06.06,0,0,0,51.55,74.77Zm13.24-57a.92.92,0,0,1-.14-.13.16.16,0,0,1,0-.16l.82-1.3,1.73,1.08-.82,1.31a.14.14,0,0,1-.14.08.47.47,0,0,1-.17-.07l-.07.11,1.43,1,.07-.1a.92.92,0,0,1-.14-.13.14.14,0,0,1,0-.16L69.45,16a.14.14,0,0,1,.14-.08l.18.06.06-.1-1.45-1-.06.1a.55.55,0,0,1,.13.14s0,.09,0,.15l-.68,1.11L66,15.32l.69-1.11c0-.07.08-.09.14-.08a.54.54,0,0,1,.18.06l.06-.1-1.52-.88-.06.11a.53.53,0,0,1,.13.13s0,.09,0,.16l-2,3.3a.14.14,0,0,1-.14.08l-.18-.06-.06.1,1.51.86ZM37.55,11a.22.22,0,0,1,0-.19.15.15,0,0,1,.1-.06L39,10.45l.62,3.05c0,.08,0,.13,0,.16a.35.35,0,0,1-.14.06l0,.12,1.62-.32,0-.12a.39.39,0,0,1-.15,0q-.08,0-.09-.12l-.62-3.06,1.29-.26a.25.25,0,0,1,.12,0s.07.08.09.17l.11,0-.29-1.46-.11,0a.24.24,0,0,1,0,.2.21.21,0,0,1-.1.06l-3.8.76a.15.15,0,0,1-.11,0s-.07-.07-.09-.17l-.11,0L37.44,11Zm-3.18-.17a.15.15,0,0,1,.11.11l1.22,3.69a.15.15,0,0,1,0,.16.82.82,0,0,1-.19.1l0,.12,1.73-.57,0-.11-.22,0a.14.14,0,0,1-.12-.11l-1.22-3.68c0-.08,0-.13,0-.16a.56.56,0,0,1,.19-.11l0-.12-1.73.57,0,.11ZM48.91,73.2a.55.55,0,0,0-.18-.16.57.57,0,0,0-.27-.06.53.53,0,0,0-.26.06.49.49,0,0,0-.19.16.8.8,0,0,0-.1.23,1.09,1.09,0,0,0,0,.26,1.15,1.15,0,0,0,0,.26.74.74,0,0,0,.1.22.52.52,0,0,0,.19.17.53.53,0,0,0,.26.06.57.57,0,0,0,.27-.06.58.58,0,0,0,.18-.17A.55.55,0,0,0,49,74a.78.78,0,0,0,0-.26.75.75,0,0,0,0-.26A.6.6,0,0,0,48.91,73.2Zm-19-58.39a1.41,1.41,0,0,0,.65.1,4,4,0,0,0,.74-.14l.71-.22a2.2,2.2,0,0,1,.56-.11.28.28,0,0,1,.32.17.27.27,0,0,1,0,.26.58.58,0,0,1-.15.21.81.81,0,0,1-.24.17l-.2.11a5.15,5.15,0,0,1-.56.2,4.56,4.56,0,0,1-.59.14,2.06,2.06,0,0,1-.47,0c-.14,0-.22,0-.25-.1a.14.14,0,0,1,0-.06.08.08,0,0,1,0,0H30.3l.22,1.39h.11a.5.5,0,0,1,.05-.13.14.14,0,0,1,.08-.09l.22,0,.48-.09a6.33,6.33,0,0,0,.62-.16,3.41,3.41,0,0,0,.63-.24,3.15,3.15,0,0,0,.78-.47,1.63,1.63,0,0,0,.45-.55,1.22,1.22,0,0,0,.13-.58A1.31,1.31,0,0,0,34,14a1,1,0,0,0-.49-.54,1.51,1.51,0,0,0-.67-.12,3.32,3.32,0,0,0-.74.14l-.71.21a2.91,2.91,0,0,1-.55.12.26.26,0,0,1-.31-.14.27.27,0,0,1,0-.29.9.9,0,0,1,.23-.25,1.57,1.57,0,0,1,.3-.2l.23-.11a3.26,3.26,0,0,1,.44-.15,3.92,3.92,0,0,1,.41-.07,1.81,1.81,0,0,1,.32,0c.08,0,.13,0,.14,0a.14.14,0,0,1,0,.06s0,0,0,.05h.13l0-1.39H32.6a.93.93,0,0,0-.05.1.13.13,0,0,1-.09.09.91.91,0,0,1-.23.07l-.42.09a4.69,4.69,0,0,0-.53.14,5.5,5.5,0,0,0-.59.23,2.65,2.65,0,0,0-.81.53,2,2,0,0,0-.42.6,1.4,1.4,0,0,0-.11.59,1.28,1.28,0,0,0,.11.51A.93.93,0,0,0,29.94,14.81ZM54.22,82.39a.6.6,0,0,0-.4,0,.87.87,0,0,1,.11-.44,1.3,1.3,0,0,1,.28-.29l-.05-.23a3.15,3.15,0,0,0-.3.24,1.27,1.27,0,0,0-.24.33,1,1,0,0,0-.14.39,1.18,1.18,0,0,0,0,.46,1.13,1.13,0,0,0,.21.47.4.4,0,0,0,.4.13.44.44,0,0,0,.3-.2.67.67,0,0,0-.17-.81ZM42.63,8.91a.19.19,0,0,1,.13.07l1.85,2.49.07,1.31c0,.07,0,.12-.06.14l-.13.05v.12L46.11,13v-.12l-.14,0s-.06-.06-.07-.14l-.06-1.34,1.42-2.62a.2.2,0,0,1,.11-.09l.13,0V8.52l-1.79,0v.12h.12a.08.08,0,0,1,.07.09.82.82,0,0,1-.1.27c-.06.12-.61,1.09-.63,1.15l-.85-1.12a.76.76,0,0,1-.1-.22.11.11,0,0,1,.08-.1l.13,0V8.6l-2,.17v.12Zm9.29,3.9a2.06,2.06,0,0,0,.7.54,3.15,3.15,0,0,0,1.71.32,2.08,2.08,0,0,0,.85-.24,2,2,0,0,0,.7-.59,2.13,2.13,0,0,0,.4-1,2.17,2.17,0,0,0,0-1,2,2,0,0,0-.43-.81,2.34,2.34,0,0,0-.7-.55,2.94,2.94,0,0,0-.83-.29,2.88,2.88,0,0,0-.88,0,2.53,2.53,0,0,0-.86.26,2,2,0,0,0-.69.6,2.19,2.19,0,0,0-.41,1,2.21,2.21,0,0,0,0,1.06A2,2,0,0,0,51.92,12.81Zm.9-2.12a1.15,1.15,0,0,1,.34-.32,1.11,1.11,0,0,1,.44-.16,1.4,1.4,0,0,1,.5,0,1.24,1.24,0,0,1,1,.91,1.51,1.51,0,0,1,0,.52,1.3,1.3,0,0,1-.19.48,1.07,1.07,0,0,1-.34.33,1.29,1.29,0,0,1-.44.16,1.21,1.21,0,0,1-.5,0,1.5,1.5,0,0,1-.46-.17,1.2,1.2,0,0,1-.35-.32,1,1,0,0,1-.19-.42,1.29,1.29,0,0,1,0-.52A1.46,1.46,0,0,1,52.82,10.69Z" transform="translate(-3.97 -4.35)"/><path d="M106.33,23c0-3.75,0-4.42,0-5.19s-.24-1.2-1-1.37a5.33,5.33,0,0,0-.82-.07c-.09,0-.19-.05-.19-.14s.12-.19.39-.19c1.08,0,2.54.07,2.76.07s1.65-.07,2.37-.07c.27,0,.39,0,.39.19s-.1.14-.19.14a4.42,4.42,0,0,0-.6.07c-.65.1-.84.53-.89,1.37s0,1.44,0,5.19V26.4c0,3.45.77,4.94,1.8,5.92a4.68,4.68,0,0,0,3.62,1.32,5,5,0,0,0,3.77-1.72C118.72,30.55,119,28.51,119,26V23c0-3.75,0-4.42,0-5.19s-.24-1.2-1-1.37a5.31,5.31,0,0,0-.81-.07c-.1,0-.19-.05-.19-.14s.12-.19.38-.19c1.08,0,2.4.07,2.55.07s1.29-.07,2-.07c.27,0,.39,0,.39.19s-.1.14-.2.14a4.8,4.8,0,0,0-.6.07c-.64.15-.84.53-.88,1.37s0,1.44,0,5.19V25.6c0,2.59-.29,5.48-2.21,7.18a7.05,7.05,0,0,1-4.94,1.77,7.37,7.37,0,0,1-5-1.7c-1.17-1.13-2.09-2.81-2.09-6.31V23Z" transform="translate(-3.97 -4.35)"/><path d="M126.49,31.44c.05,1.68.24,2.18.81,2.33a5.39,5.39,0,0,0,1.06.11.17.17,0,0,1,.17.17c0,.12-.14.17-.39.17-1.2,0-2-.07-2.23-.07s-1.08.07-2,.07c-.21,0-.33,0-.33-.17a.17.17,0,0,1,.17-.17,3.51,3.51,0,0,0,.86-.11c.53-.15.6-.7.6-2.55V19.53c0-.81.12-1,.29-1s.6.41.81.62,3.41,3.6,6.68,7c2.08,2.16,4.34,4.59,5,5.26l-.22-10.22c0-1.32-.14-1.78-.79-1.9a7.19,7.19,0,0,0-1-.1c-.15,0-.17-.12-.17-.19s.17-.14.41-.14c1,0,2,.05,2.2.05s.94-.05,1.81-.05c.21,0,.38,0,.38.14a.24.24,0,0,1-.24.19,2.2,2.2,0,0,0-.5.05c-.7.15-.75.56-.75,1.78l0,12c0,1.34,0,1.46-.16,1.46s-.44-.16-1.61-1.24c-.22-.19-3.27-3.2-5.5-5.52-2.45-2.57-4.82-5.07-5.47-5.79Z" transform="translate(-3.97 -4.35)"/><path d="M147.37,28.29c0,2,0,3.58.1,4.42.07.6.14,1,.76,1.08a8.15,8.15,0,0,0,1,.09.17.17,0,0,1,.17.17c0,.1-.09.17-.33.17-1.18,0-2.55-.07-2.64-.07s-1.44.07-2.09.07c-.22,0-.34,0-.34-.17a.17.17,0,0,1,.17-.17,2.91,2.91,0,0,0,.65-.09c.4-.1.48-.48.55-1.08.1-.84.12-2.45.12-4.42v-3.6c0-3.17,0-3.74,0-4.39s-.22-1-.67-1.1a3.66,3.66,0,0,0-.65-.08.17.17,0,0,1-.17-.16c0-.12.1-.17.34-.17.7,0,2,.05,2.14.05s1.46-.05,2.11-.05c.24,0,.33.05.33.17a.19.19,0,0,1-.16.16,2.25,2.25,0,0,0-.53.05c-.58.12-.7.41-.75,1.13s0,1.22,0,4.39v3.6Z" transform="translate(-3.97 -4.35)"/><path d="M160.21,31.56c1.22-2.74,4-9.7,4.44-11.16a3.24,3.24,0,0,0,.19-.77.42.42,0,0,0-.29-.43,2.21,2.21,0,0,0-.72-.08c-.12,0-.24-.07-.24-.16s.15-.17.48-.17c.84,0,1.8.05,2.07.05s1-.05,1.65-.05c.22,0,.34.05.34.14s-.07.19-.24.19a2,2,0,0,0-1,.24c-.29.2-.62.48-1.18,1.88-.24.57-1.27,3-2.35,5.52-1.29,3-2.23,5.18-2.71,6.19-.58,1.22-.7,1.53-.91,1.53s-.39-.26-.8-1.24l-5.18-12.51c-.48-1.15-.77-1.37-1.46-1.53a3.73,3.73,0,0,0-.82-.08.18.18,0,0,1-.17-.19c0-.12.22-.14.55-.14,1,0,2.21.05,2.48.05s1.15-.05,2-.05c.38,0,.57.05.57.14a.19.19,0,0,1-.21.19,2.66,2.66,0,0,0-.77.1.34.34,0,0,0-.24.36,8.22,8.22,0,0,0,.57,1.7Z" transform="translate(-3.97 -4.35)"/><path d="M171.78,24.69c0-3.17,0-3.74-.05-4.39s-.17-1-.87-1.13c-.16,0-.52-.05-.72-.05A.19.19,0,0,1,170,19c0-.12.09-.17.33-.17,1,0,2.33.05,2.45.05s4.56,0,5,0,.79-.1,1-.12a1.11,1.11,0,0,1,.29-.1c.07,0,.09.1.09.19a9.55,9.55,0,0,0-.16,1c0,.19-.07,1.11-.12,1.35,0,.09-.1.21-.2.21s-.16-.09-.16-.26a2.39,2.39,0,0,0-.12-.72c-.15-.34-.36-.48-1.52-.63-.35,0-2.8-.07-3-.07s-.12.07-.12.22v5.54c0,.15,0,.22.12.22s3,0,3.52-.05.82-.07,1-.29.24-.26.31-.26.12,0,.12.17a11.21,11.21,0,0,0-.17,1.12c0,.41-.1,1.18-.1,1.32s0,.39-.19.39-.14-.07-.14-.19a1.78,1.78,0,0,0-.1-.68c-.07-.28-.26-.52-1.08-.62-.58-.07-2.83-.1-3.19-.1a.13.13,0,0,0-.15.15v1.7c0,.7,0,3.07,0,3.48.05,1.37.44,1.63,2.53,1.63a7.21,7.21,0,0,0,2.11-.21,1.55,1.55,0,0,0,1-1.42c.05-.24.09-.31.21-.31s.15.17.15.31a16.76,16.76,0,0,1-.29,2c-.14.53-.36.53-1.18.53-1.58,0-2.81-.05-3.67-.07s-1.44-.05-1.75-.05c0,0-.46,0-.91,0s-.89,0-1.23,0-.33,0-.33-.17a.17.17,0,0,1,.17-.17c.19,0,.45-.07.64-.09.41-.08.46-.48.55-1.08a41.72,41.72,0,0,0,.12-4.42v-3.6Z" transform="translate(-3.97 -4.35)"/><path d="M184.18,24.69c0-3.17,0-3.74,0-4.39s-.17-1-.87-1.13c-.16,0-.52-.05-.72-.05a.2.2,0,0,1-.17-.16c0-.12.1-.17.34-.17,1,0,2.38.05,2.5.05s2-.05,2.64-.05a6.88,6.88,0,0,1,3.93.89,3.55,3.55,0,0,1,1.47,2.78c0,1.51-.63,3-2.59,4.66,1.72,2.16,3.19,4,4.41,5.28a3.87,3.87,0,0,0,2.35,1.41,4.05,4.05,0,0,0,.75.07.19.19,0,0,1,.19.17c0,.12-.12.17-.5.17h-1.32a4.25,4.25,0,0,1-2.26-.41,10.75,10.75,0,0,1-2.88-3c-.89-1.1-1.82-2.42-2.28-3a.32.32,0,0,0-.29-.12l-2.69,0c-.09,0-.14,0-.14.17v.47c0,2,0,3.56.1,4.4.07.6.19,1,.84,1.08a9.3,9.3,0,0,0,.93.09.15.15,0,0,1,.17.17c0,.1-.1.17-.33.17-1.16,0-2.5-.07-2.6-.07s-1.44.07-2.09.07c-.21,0-.33,0-.33-.17a.17.17,0,0,1,.17-.17,3.52,3.52,0,0,0,.64-.09c.41-.1.46-.48.56-1.08a41.72,41.72,0,0,0,.12-4.42v-3.6ZM186,26.42a.33.33,0,0,0,.14.27,7.48,7.48,0,0,0,2.33.31,2.76,2.76,0,0,0,1.58-.36,3.62,3.62,0,0,0,1.28-3.12c0-2.55-1.4-4-3.65-4a8.93,8.93,0,0,0-1.51.12.26.26,0,0,0-.17.24v6.55Z" transform="translate(-3.97 -4.35)"/><path d="M199.14,33.93c-.29-.14-.32-.21-.32-.77,0-1,.1-1.82.12-2.16s.05-.33.17-.33.19.07.19.24a2.74,2.74,0,0,0,.08.74c.33,1.49,1.92,2,3.33,2,2.09,0,3.17-1.18,3.17-2.71s-.79-2.16-2.66-3.56l-1-.72c-2.28-1.7-3-2.95-3-4.36,0-2.4,1.9-3.84,4.68-3.84a10.33,10.33,0,0,1,2.19.24,2.85,2.85,0,0,0,.74.09c.17,0,.22,0,.22.15a20.68,20.68,0,0,0-.1,2.16c0,.31,0,.45-.17.45s-.16-.09-.19-.26a3.69,3.69,0,0,0-.31-1c-.15-.24-.84-1-2.74-1-1.53,0-2.8.77-2.8,2.21s.64,2,2.73,3.46l.6.4c2.57,1.76,3.46,3.17,3.46,4.92a4,4,0,0,1-2,3.48,6.44,6.44,0,0,1-3.36.72A7.68,7.68,0,0,1,199.14,33.93Z" transform="translate(-3.97 -4.35)"/><path d="M214.28,28.29c0,2,0,3.58.1,4.42.07.6.14,1,.76,1.08a8.15,8.15,0,0,0,1,.09.17.17,0,0,1,.17.17c0,.1-.09.17-.33.17-1.18,0-2.55-.07-2.64-.07s-1.44.07-2.09.07c-.22,0-.34,0-.34-.17a.17.17,0,0,1,.17-.17,2.91,2.91,0,0,0,.65-.09c.4-.1.48-.48.55-1.08.1-.84.12-2.45.12-4.42v-3.6c0-3.17,0-3.74-.05-4.39s-.22-1-.67-1.1a3.66,3.66,0,0,0-.65-.08.18.18,0,0,1-.17-.16c0-.12.1-.17.34-.17.7,0,2,.05,2.14.05s1.46-.05,2.11-.05c.24,0,.33.05.33.17a.19.19,0,0,1-.16.16,2.25,2.25,0,0,0-.53.05c-.58.12-.7.41-.75,1.13s0,1.22,0,4.39v3.6Z" transform="translate(-3.97 -4.35)"/><path d="M226.47,28.29c0,2,0,3.58.1,4.42.07.6.17,1,.81,1.08a7.62,7.62,0,0,0,1,.09.15.15,0,0,1,.17.17c0,.1-.09.17-.33.17-1.16,0-2.5-.07-2.62-.07s-1.56.07-2.18.07c-.24,0-.34,0-.34-.17s.05-.14.17-.14a2.67,2.67,0,0,0,.62-.1c.43-.09.55-.5.63-1.1.09-.84.09-2.45.09-4.42V19.72l-3.05.05c-1.32,0-1.82.17-2.13.65a3.13,3.13,0,0,0-.34.65c-.05.17-.12.19-.21.19a.16.16,0,0,1-.15-.17c0-.22.43-2,.46-2.21s.14-.38.21-.38a7.23,7.23,0,0,0,.94.24c.6.07,1.42.09,1.65.09h8a10.54,10.54,0,0,0,1.52-.09c.31,0,.5-.1.6-.1s.09.12.09.24c0,.63-.07,2.09-.07,2.33s-.1.26-.19.26-.15-.07-.17-.36l0-.21c-.07-.63-.53-1.08-2.55-1.13l-2.64-.05v8.57Z" transform="translate(-3.97 -4.35)"/><path d="M240.68,28.92a3.55,3.55,0,0,0-.46-2.09c-.16-.31-3-4.85-3.74-5.93a5.37,5.37,0,0,0-1.39-1.49,2.1,2.1,0,0,0-.89-.29.21.21,0,0,1-.22-.19c0-.09.08-.14.27-.14l2.09.05c.14,0,1-.05,1.82-.05.24,0,.29.05.29.14s-.15.15-.34.22a.35.35,0,0,0-.26.34,1.75,1.75,0,0,0,.28.79L242,26.64c.43-.87,3.07-5.24,3.45-5.91a2.09,2.09,0,0,0,.36-1.05c0-.29-.09-.46-.33-.53s-.32-.15-.32-.24.12-.12.34-.12c.55,0,1.3.05,1.46.05l2.07-.05c.14,0,.26.05.26.12a.25.25,0,0,1-.26.22,2.21,2.21,0,0,0-1,.26,3.72,3.72,0,0,0-1.05,1,75.49,75.49,0,0,0-4.11,6.48,4.08,4.08,0,0,0-.26,2v1.75c0,.34,0,1.2.07,2,.05.6.19,1,.82,1.08a7.47,7.47,0,0,0,1,.1.15.15,0,0,1,.16.16c0,.1-.12.17-.33.17-1.18,0-2.55-.07-2.67-.07s-1.44.07-2.06.07c-.24,0-.34,0-.34-.17a.16.16,0,0,1,.17-.16,2.84,2.84,0,0,0,.63-.1c.43-.1.57-.48.62-1.08.05-.84.05-1.7.05-2V28.92Z" transform="translate(-3.97 -4.35)"/><path d="M111.82,54c0-4.44,2.93-7.48,6.36-7.48,3.26,0,5.09,1.92,5.09,4.94,0,3.5-2.5,7.3-6.7,7.22A4.44,4.44,0,0,1,111.82,54Zm1.92.39c0,2,.89,3.6,3.1,3.57,3.21,0,4.51-4.6,4.51-7.15,0-1.85-1-3.57-3-3.57C115,47.19,113.74,51.67,113.74,54.34Z" transform="translate(-3.97 -4.35)"/><path d="M133.15,47.25l-.14.84h-3l-1.05,5.79a19.59,19.59,0,0,1-1.47,4.82,16.41,16.41,0,0,1-2.76,4.42c-.62-.36-.6-.46-.29-.87a10.44,10.44,0,0,0,2.38-5.54l1.49-8.62h-2.4l.14-.84h2.4c.82-4.8,3.19-7.73,4.78-7.73.45,0,.86.36.84,1.06,0,.91-.48,1.42-.77,1.42-.46,0-.15-.77-1-.77-1.41,0-1.58,2.64-2.15,6Z" transform="translate(-3.97 -4.35)"/><path d="M160.42,51.26c0,2.3,0,4.2.12,5.21.07.69.21,1.22.94,1.32a9.6,9.6,0,0,0,1.07.09c.15,0,.2.08.2.15s-.12.19-.39.19c-1.32,0-2.83-.07-3-.07s-1.63.07-2.35.07c-.27,0-.39,0-.39-.19s.05-.15.2-.15a3.64,3.64,0,0,0,.72-.09c.48-.1.6-.63.69-1.32.12-1,.12-2.91.12-5.21V48.74a.13.13,0,0,0-.14-.14H148.08c-.07,0-.14,0-.14.14v2.52c0,2.3,0,4.2.12,5.21.07.69.21,1.22.93,1.32a10,10,0,0,0,1.08.09c.15,0,.19.08.19.15s-.12.19-.38.19c-1.32,0-2.83-.07-2.95-.07s-1.63.07-2.35.07c-.27,0-.39,0-.39-.19s.05-.15.19-.15a3.46,3.46,0,0,0,.72-.09c.48-.1.6-.63.7-1.32.12-1,.12-2.91.12-5.21V47c0-3.75,0-4.42,0-5.19s-.24-1.2-1-1.37a5.33,5.33,0,0,0-.82-.07c-.09,0-.19,0-.19-.14s.12-.19.39-.19c1.08,0,2.59.07,2.71.07s1.63-.07,2.35-.07c.26,0,.39,0,.39.19s-.1.14-.2.14a4.8,4.8,0,0,0-.6.07c-.65.12-.84.53-.89,1.37s0,1.44,0,5.19v.5c0,.12.07.14.14.14h10.18c.07,0,.14,0,.14-.14V47c0-3.75,0-4.42-.05-5.19s-.24-1.2-1-1.37a5.31,5.31,0,0,0-.81-.07c-.1,0-.2,0-.2-.14s.12-.19.39-.19c1.08,0,2.59.07,2.71.07s1.63-.07,2.35-.07c.27,0,.39,0,.39.19s-.1.14-.19.14a4.72,4.72,0,0,0-.61.07c-.64.12-.84.53-.88,1.37s-.05,1.44-.05,5.19Z" transform="translate(-3.97 -4.35)"/><path d="M171.89,43.2c.26-.68.36-.8.5-.8s.29.29.51.75c.38.86,3.77,9.29,5.06,12.38.77,1.82,1.35,2.09,1.8,2.23a2.82,2.82,0,0,0,.84.12c.12,0,.27,0,.27.17s-.24.17-.48.17-1.88,0-3.34,0c-.41,0-.74,0-.74-.14s.05-.1.14-.15a.38.38,0,0,0,.19-.55l-1.89-4.68c-.05-.1-.07-.12-.2-.12h-4.87c-.09,0-.16,0-.21.17L168.27,56a4.31,4.31,0,0,0-.31,1.37c0,.41.35.55.71.55h.2c.16,0,.21.07.21.17s-.12.17-.31.17c-.5,0-1.66-.07-1.89-.07s-1.28.07-2.14.07c-.27,0-.41,0-.41-.17a.19.19,0,0,1,.19-.17,4.7,4.7,0,0,0,.63-.05c1-.12,1.36-.84,1.77-1.87Zm2.35,8.49c.1,0,.1,0,.07-.14L172.23,46q-.18-.47-.36,0l-2,5.6c0,.09,0,.14.07.14Z" transform="translate(-3.97 -4.35)"/><path d="M196.39,55.2h.1c.53-1.68,2.42-7.59,3.17-10.2a4.16,4.16,0,0,0,.24-1.28c0-.35-.17-.6-1.13-.6a.2.2,0,0,1-.19-.19c0-.09.1-.14.36-.14,1.08,0,2,.05,2.16.05s1.05-.05,1.7-.05c.19,0,.29.05.29.12a.19.19,0,0,1-.19.21,3.71,3.71,0,0,0-.72.1c-.63.22-1,1-1.37,2.16-.94,2.59-3,9.07-3.86,11.35-.56,1.52-.68,1.75-.91,1.75s-.41-.26-.7-1l-4.13-11.16c-.72,1.77-3.57,9.24-4.34,11.13-.36.87-.51,1.08-.75,1.08s-.38-.21-.81-1.6l-3.75-12.1c-.33-1.08-.55-1.34-1.1-1.54a4.36,4.36,0,0,0-1-.12.18.18,0,0,1-.19-.19c0-.09.14-.14.33-.14,1.11,0,2.28.05,2.5.05s1.15-.05,2.21-.05c.29,0,.38.05.38.14a.21.21,0,0,1-.21.19,1.8,1.8,0,0,0-.75.12.43.43,0,0,0-.29.44,12,12,0,0,0,.41,1.89c.34,1.3,2.5,8.79,2.76,9.63h0l4.42-11.4c.31-.82.45-.94.57-.94s.31.26.58,1Z" transform="translate(-3.97 -4.35)"/><path d="M208.92,43.2c.27-.68.36-.8.51-.8s.28.29.5.75c.38.86,3.77,9.29,5.06,12.38.77,1.82,1.35,2.09,1.8,2.23a2.86,2.86,0,0,0,.84.12c.12,0,.27,0,.27.17s-.24.17-.48.17-1.87,0-3.34,0c-.41,0-.74,0-.74-.14s0-.1.14-.15a.38.38,0,0,0,.19-.55l-1.89-4.68c-.05-.1-.07-.12-.19-.12h-4.88c-.09,0-.16,0-.21.17L205.3,56a4.31,4.31,0,0,0-.31,1.37c0,.41.35.55.72.55h.19c.17,0,.21.07.21.17s-.12.17-.31.17c-.5,0-1.65-.07-1.89-.07s-1.28.07-2.14.07c-.26,0-.41,0-.41-.17a.19.19,0,0,1,.19-.17,4.7,4.7,0,0,0,.63-.05c1-.12,1.37-.84,1.77-1.87Zm2.35,8.49c.1,0,.1,0,.08-.14L209.26,46q-.18-.47-.36,0l-2,5.6c0,.09,0,.14.07.14Z" transform="translate(-3.97 -4.35)"/><path d="M223.3,52.29c0,2,0,3.58.09,4.42.07.6.15,1,.77,1.08a8,8,0,0,0,1,.09.17.17,0,0,1,.17.17c0,.1-.1.17-.34.17-1.17,0-2.54-.07-2.64-.07s-1.44.07-2.08.07c-.22,0-.34,0-.34-.17a.17.17,0,0,1,.17-.17,2.82,2.82,0,0,0,.64-.09c.41-.1.48-.48.56-1.08.09-.84.12-2.45.12-4.42v-3.6c0-3.17,0-3.74,0-4.39s-.22-1-.67-1.1a3.77,3.77,0,0,0-.65-.08.17.17,0,0,1-.17-.16c0-.12.1-.17.34-.17.69,0,2,.05,2.13.05s1.47-.05,2.11-.05c.24,0,.34.05.34.17a.2.2,0,0,1-.17.16,2.3,2.3,0,0,0-.53.05c-.57.12-.69.41-.74,1.13s0,1.23,0,4.39v3.6Z" transform="translate(-3.97 -4.35)"/><path d="M230.81,43.89c.19.22.22.29.22.41s-.12.15-.22.15a7,7,0,0,1-1.68-.44.57.57,0,0,1-.41-.62,8.67,8.67,0,0,1,2.06-4.73.37.37,0,0,1,.32-.19.14.14,0,0,1,.12.12.92.92,0,0,1-.1.31,8.5,8.5,0,0,0-.79,3.43A2.65,2.65,0,0,0,230.81,43.89Z" transform="translate(-3.97 -4.35)"/><path d="M238.61,52.29c0,2,0,3.58.1,4.42.07.6.14,1,.76,1.08a8.15,8.15,0,0,0,1,.09.17.17,0,0,1,.17.17c0,.1-.09.17-.33.17-1.18,0-2.55-.07-2.64-.07s-1.44.07-2.09.07c-.22,0-.34,0-.34-.17a.17.17,0,0,1,.17-.17,2.91,2.91,0,0,0,.65-.09c.41-.1.48-.48.55-1.08.1-.84.12-2.45.12-4.42v-3.6c0-3.17,0-3.74-.05-4.39s-.21-1-.67-1.1a3.66,3.66,0,0,0-.65-.08.18.18,0,0,1-.17-.16c0-.12.1-.17.34-.17.7,0,2,.05,2.14.05s1.46-.05,2.11-.05c.24,0,.33.05.33.17a.19.19,0,0,1-.16.16,2.25,2.25,0,0,0-.53.05c-.58.12-.7.41-.75,1.13s0,1.23,0,4.39v3.6Z" transform="translate(-3.97 -4.35)"/><path d="M119.45,75.44a2.64,2.64,0,0,0-.65-1.25,1.55,1.55,0,0,0-.7-.15c-.18,0-.28,0-.28-.16s.14-.16.38-.16c.91,0,1.88,0,2,0s.93,0,2,0c.24,0,.36,0,.36.16s-.14.16-.31.16a1.09,1.09,0,0,0-.44.06c-.16.08-.19.2-.19.39A11.76,11.76,0,0,0,122,76.1c.29,1.15,1.92,6.46,2.23,7.44h.06l3.39-9.12c.18-.49.3-.63.44-.63s.28.26.51.82l3.64,8.81h.05c.32-1.18,1.72-5.8,2.33-7.84a3.83,3.83,0,0,0,.17-1c0-.28-.15-.52-.84-.52-.17,0-.29-.06-.29-.16s.14-.16.4-.16c.93,0,1.66,0,1.82,0s.87,0,1.45,0c.19,0,.32,0,.32.14s-.09.18-.25.18a1.67,1.67,0,0,0-.61.09c-.42.15-.61.85-1,1.85-.81,2.2-2.64,7.77-3.5,10.4-.19.61-.28.82-.51.82s-.28-.21-.54-.86l-3.64-8.77h0c-.33.89-2.66,7.09-3.41,8.7-.33.72-.42.93-.63.93s-.25-.19-.4-.65Z" transform="translate(-3.97 -4.35)"/><path d="M140.32,80c0-2.25,0-2.68,0-3.15s-.17-.66-.66-.8a2.57,2.57,0,0,0-.61,0c-.16,0-.27-.06-.27-.16s.13-.14.35-.14c.81,0,1.79,0,2.23,0s3.9,0,4.2,0a6,6,0,0,0,.64-.09c.09,0,.18-.07.25-.07s.1.07.1.15a7.72,7.72,0,0,0-.12,1c0,.16,0,.8-.09,1s0,.24-.17.24-.12-.07-.12-.19a1.36,1.36,0,0,0-.11-.54c-.12-.27-.24-.48-1-.54-.27,0-2.1-.08-2.42-.08-.07,0-.1.06-.1.15v3.67c0,.09,0,.16.1.16.35,0,2.35,0,2.7,0a1.09,1.09,0,0,0,.73-.22c.12-.11.18-.2.25-.2s.12.07.12.16,0,.33-.12,1.09c0,.29-.07.89-.07,1s0,.34-.16.34-.14-.06-.14-.13,0-.35-.05-.54-.28-.52-.86-.58c-.28,0-2-.07-2.42-.07-.07,0-.08.07-.08.16v1.19c0,.51,0,1.77,0,2.2,0,1,.5,1.25,2.08,1.25a4.26,4.26,0,0,0,1.45-.19c.39-.18.56-.49.67-1.11,0-.16.07-.23.17-.23s.14.2.14.36a9.81,9.81,0,0,1-.21,1.64c-.1.39-.24.39-.82.39-1.16,0-2.08,0-2.84-.06l-1.78,0-.88,0-1.06,0c-.2,0-.3,0-.3-.16s.05-.15.24-.15a2,2,0,0,0,.55-.06c.31-.07.4-.35.45-.78.07-.63.07-1.81.07-3.17V80Z" transform="translate(-3.97 -4.35)"/><path d="M149.79,86.76c-.25-.11-.3-.18-.3-.51,0-.81.07-1.73.09-2s.07-.38.19-.38.16.14.16.24a2.68,2.68,0,0,0,.14.77,2.38,2.38,0,0,0,2.45,1.47,1.93,1.93,0,0,0,2.13-1.89c0-.65-.15-1.29-1.52-2.1l-.89-.52c-1.82-1.07-2.42-2.07-2.42-3.38,0-1.82,1.75-3,3.89-3a9.54,9.54,0,0,1,2.19.24c.14,0,.21.09.21.19s-.05.62-.05,1.79c0,.31-.08.47-.2.47s-.15-.09-.15-.26a1.71,1.71,0,0,0-.41-1,2.06,2.06,0,0,0-1.71-.7c-1.11,0-2.1.58-2.1,1.59,0,.67.24,1.19,1.62,2l.63.35c2,1.12,2.66,2.26,2.66,3.61a3.19,3.19,0,0,1-1.53,2.78,4.56,4.56,0,0,1-2.58.61A6.48,6.48,0,0,1,149.79,86.76Z" transform="translate(-3.97 -4.35)"/><path d="M162.76,76.61l-2.29,0c-.9,0-1.27.12-1.49.46a2,2,0,0,0-.27.5c0,.13-.06.2-.17.2s-.14-.09-.14-.25.3-1.68.33-1.8.09-.28.18-.28.28.12.66.17a12.74,12.74,0,0,0,1.54.07h6.25a6.25,6.25,0,0,0,1-.07l.42-.07c.1,0,.12.09.12.32s0,1.42,0,1.8c0,.16-.06.25-.14.25s-.16-.07-.18-.3l0-.16c0-.38-.43-.84-1.82-.86l-1.94,0v6c0,1.36,0,2.54.09,3.18.05.43.14.7.59.78a6.84,6.84,0,0,0,.79,0c.18,0,.25.09.25.16s-.13.15-.3.15c-1,0-2.05,0-2.49,0s-1.39,0-2,0c-.19,0-.3,0-.3-.15s.06-.16.25-.16a2.4,2.4,0,0,0,.54,0c.32-.07.4-.35.46-.79.07-.63.07-1.81.07-3.17v-6Z" transform="translate(-3.97 -4.35)"/><path d="M177.23,80.34c0-3,2-6.87,7.23-6.87,4.36,0,7.07,2.54,7.07,6.55a6.92,6.92,0,0,1-7.25,7.18A6.67,6.67,0,0,1,177.23,80.34Zm11.85.33c0-3.92-2.26-6.35-5.13-6.35-2,0-4.31,1.12-4.31,5.47,0,3.64,2,6.53,5.38,6.53C186.24,86.32,189.08,85.72,189.08,80.67Z" transform="translate(-3.97 -4.35)"/><path d="M195.69,76.82c.18.17.2.23.2.31s-.11.14-.2.14a6.62,6.62,0,0,1-1.45-.33c-.44-.12-.51-.24-.51-.51a7.34,7.34,0,0,1,1.93-3.74.33.33,0,0,1,.28-.14.09.09,0,0,1,.1.1.62.62,0,0,1-.09.23,6.34,6.34,0,0,0-.68,2.73A1.87,1.87,0,0,0,195.69,76.82Z" transform="translate(-3.97 -4.35)"/><path d="M198.86,83.21c-.09,0-.11,0-.14.1l-.82,2a2.68,2.68,0,0,0-.23.92c0,.26.14.42.61.42h.23c.19,0,.23.06.23.15s-.09.16-.25.16c-.51,0-1.22,0-1.71,0-.16,0-1,0-1.79,0-.19,0-.28,0-.28-.16s.06-.15.18-.15l.45,0c.7-.11,1-.56,1.28-1.32l4-9.36c.18-.42.3-.59.46-.59s.3.14.45.47c.37.82,2.94,6.91,3.92,9.17.6,1.35,1,1.54,1.32,1.59a3.16,3.16,0,0,0,.57.06q.21,0,.21.15c0,.13-.08.16-.66.16s-1.66,0-3,0c-.28,0-.45,0-.45-.13s0-.14.19-.15a.24.24,0,0,0,.14-.34l-1.19-3a.15.15,0,0,0-.16-.1Zm3.29-.83c.07,0,.09,0,.07-.08l-1.45-3.78c0-.06,0-.15-.07-.15s-.07.09-.09.15l-1.49,3.76c0,.07,0,.1,0,.1Z" transform="translate(-3.97 -4.35)"/><path d="M217.79,80.55s.09,0,.09-.11v-.31c0-2.26,0-2.8,0-3.28s-.18-.66-.67-.8a2.44,2.44,0,0,0-.59,0c-.18,0-.27-.06-.27-.16s.11-.14.34-.14c.82,0,1.9,0,2.31,0l2,0c.23,0,.34,0,.34.14s-.11.16-.28.16a2.13,2.13,0,0,0-.46,0c-.4.07-.52.28-.56.8s0,.9,0,3.15v2.63c0,1.36,0,2.54.07,3.18,0,.42.14.7.61.77a4.88,4.88,0,0,0,.79.06c.15,0,.24.09.24.15s-.12.16-.31.16c-1,0-2,0-2.44,0s-1.43,0-2,0c-.21,0-.33,0-.33-.16s.07-.15.25-.15a2.07,2.07,0,0,0,.56-.06c.31-.07.4-.35.45-.78.07-.63.07-1.77.07-3.14V81.53a.09.09,0,0,0-.09-.09H212s-.1,0-.1.09v1.13c0,1.37,0,2.51.09,3.15.05.42.14.7.59.77a5.06,5.06,0,0,0,.79.06c.17,0,.24.09.24.15s-.12.16-.31.16c-1,0-2.07,0-2.5,0s-1.37,0-2,0c-.19,0-.3,0-.3-.16s.05-.15.25-.15a2,2,0,0,0,.54-.06c.31-.07.4-.35.45-.78.07-.63.07-1.81.07-3.17V80c0-2.26,0-2.68,0-3.15s-.18-.67-.67-.81a2.52,2.52,0,0,0-.61,0c-.16,0-.27,0-.27-.16s.13-.14.34-.14c.82,0,1.84,0,2.26,0l2,0c.21,0,.32,0,.32.14s-.09.16-.28.16a2,2,0,0,0-.44,0c-.42.07-.54.28-.58.81s0,1,0,3.27v.31c0,.09.05.11.1.11Z" transform="translate(-3.97 -4.35)"/><path d="M224.74,80c0-2.25,0-2.68,0-3.15s-.17-.66-.66-.8a2.53,2.53,0,0,0-.6,0c-.17,0-.26-.06-.26-.16s.1-.14.33-.14c.82,0,1.86,0,2.31,0l2,0c.23,0,.33,0,.33.14s-.09.16-.24.16a1.85,1.85,0,0,0-.46,0c-.4.07-.52.28-.56.8s0,.9,0,3.15v2.09c0,2.16.42,3,1.17,3.6a3.25,3.25,0,0,0,4-.19c.85-.81.89-2.1.89-3.62V80c0-2.25,0-2.68,0-3.15s-.15-.66-.64-.8a2.38,2.38,0,0,0-.56,0c-.18,0-.26-.06-.26-.16s.1-.14.31-.14c.79,0,1.82,0,1.84,0s1.2,0,1.8,0c.21,0,.31,0,.31.14s-.08.16-.26.16a1.82,1.82,0,0,0-.45,0c-.42.07-.53.28-.56.8s0,.9,0,3.15v1.6c0,1.66-.17,3.41-1.47,4.47a4.74,4.74,0,0,1-3.25,1.07,5.31,5.31,0,0,1-3.52-1c-.79-.69-1.4-1.79-1.4-3.94V80Z" transform="translate(-3.97 -4.35)"/><rect class="cls-1" x="101.35" y="61.4" width="142.87" height="1.1"/><path d="M245.78,42.81a2.11,2.11,0,1,1-2.08,2.1,2.06,2.06,0,0,1,2.08-2.1Zm0,.27a1.85,1.85,0,1,0,1.73,1.84,1.78,1.78,0,0,0-1.73-1.84h0Zm-.41,3.06h-.3V43.79a3.71,3.71,0,0,1,.61-.06,1.19,1.19,0,0,1,.69.18.56.56,0,0,1,.22.48.6.6,0,0,1-.46.58v0c.2,0,.34.23.4.57a1.51,1.51,0,0,0,.16.58h-.32a1.77,1.77,0,0,1-.18-.6.47.47,0,0,0-.54-.44h-.28v1Zm0-1.26h.29c.32,0,.61-.13.61-.44s-.15-.46-.63-.46l-.27,0v.88Z" transform="translate(-3.97 -4.35)"/></svg>