<?xml version="1.0" encoding="UTF-8" standalone="no"?>
<svg
   xmlns:dc="http://purl.org/dc/elements/1.1/"
   xmlns:cc="http://creativecommons.org/ns#"
   xmlns:rdf="http://www.w3.org/1999/02/22-rdf-syntax-ns#"
   xmlns:svg="http://www.w3.org/2000/svg"
   xmlns="http://www.w3.org/2000/svg"
   xmlns:sodipodi="http://sodipodi.sourceforge.net/DTD/sodipodi-0.dtd"
   xmlns:inkscape="http://www.inkscape.org/namespaces/inkscape"
   version="1.1"
   id="svg2"
   xml:space="preserve"
   width="639.14667"
   height="212.81332"
   viewBox="0 0 639.14667 212.81332"
   sodipodi:docname="Blogo_rgb_Left.eps"><metadata
     id="metadata8"><rdf:RDF><cc:Work
         rdf:about=""><dc:format>image/svg+xml</dc:format><dc:type
           rdf:resource="http://purl.org/dc/dcmitype/StillImage" /></cc:Work></rdf:RDF></metadata><defs
     id="defs6" /><sodipodi:namedview
     pagecolor="#ffffff"
     bordercolor="#666666"
     borderopacity="1"
     objecttolerance="10"
     gridtolerance="10"
     guidetolerance="10"
     inkscape:pageopacity="0"
     inkscape:pageshadow="2"
     inkscape:window-width="640"
     inkscape:window-height="480"
     id="namedview4" /><g
     id="g10"
     inkscape:groupmode="layer"
     inkscape:label="ink_ext_XXXXXX"
     transform="matrix(1.3333333,0,0,-1.3333333,0,212.81333)"><g
       id="g12"
       transform="scale(0.1)"><path
         d="m 1166.43,868.734 h -59.01 v 234.926 h 62.42 c 68.32,0 113.64,-45.22 113.64,-114.465 0,-71.765 -39.32,-120.461 -117.05,-120.461 z m -59.01,495.516 h 59.01 c 53.8,0 88.87,-51.21 88.87,-111.05 0,-57.18 -37.62,-104.75 -87.21,-104.75 h -60.67 z m 114.53,-232.35 c 94.85,1.73 146.99,47.84 146.99,130.72 0,87.18 -58.12,147.15 -162.39,147.15 H 935.633 v -45.52 h 64.947 V 868.734 H 935.633 V 823.32 h 287.147 c 110.26,0 174.37,65.903 174.37,159.907 0,92.293 -63.25,145.293 -175.2,148.673"
         style="fill:#a21b21;fill-opacity:1;fill-rule:nonzero;stroke:none"
         id="path14" /><path
         d="m 2906.2,868.734 h -69.22 v 495.516 h 72.59 c 99.99,0 185.48,-121.23 185.48,-246.9 0,-134.123 -81.19,-248.616 -188.85,-248.616 z m 22.2,541.036 h -266.62 v -45.52 h 64.9 V 868.734 h -64.9 V 823.32 h 265.76 c 83.74,0 144.41,34.313 198.28,85.598 58.1,56.34 89.7,129.872 89.7,208.432 0,158.13 -125.64,292.42 -287.12,292.42"
         style="fill:#a21b21;fill-opacity:1;fill-rule:nonzero;stroke:none"
         id="path16" /><path
         d="m 3639.01,868.734 h -181.99 v 495.516 h 64.04 v 45.52 h -239.24 v -45.52 h 64.97 V 868.734 h -64.97 V 823.32 h 403.3 v 124.844 h -46.11 v -79.43"
         style="fill:#a21b21;fill-opacity:1;fill-rule:nonzero;stroke:none"
         id="path18" /><path
         d="m 4135.3,868.734 h -185.44 v 227.276 h 136.74 v -59.84 l 46.15,0.89 v 168.31 l -46.15,-0.87 v -58.07 h -136.74 v 217.82 h 177.78 v -77.67 h 45.31 v 123.19 h -398.23 v -45.52 h 64.94 V 868.734 h -64.94 V 823.32 h 406.79 v 124.844 h -46.21 v -79.43"
         style="fill:#a21b21;fill-opacity:1;fill-rule:nonzero;stroke:none"
         id="path20" /><path
         d="m 4594.49,1409.77 v -45.52 h 73.59 l -114.6,-188.79 -122.55,188.79 h 64.41 v 45.52 H 4256.1 v -45.52 h 52.84 L 4479.1,1106.28 V 870.426 h -64.09 V 823.32 h 239.28 v 47.106 h -64.94 v 258.094 l 143.81,235.73 h 60.43 v 45.52 h -199.1"
         style="fill:#a21b21;fill-opacity:1;fill-rule:nonzero;stroke:none"
         id="path22" /><path
         d="m 2197.22,1060.97 86.32,213.58 81.18,-213.58 z m -472.62,67.55 h -50.38 v 235.73 h 53.83 c 60.65,0 95.68,-49.39 95.68,-117.71 0,-67.53 -40.15,-118.02 -99.13,-118.02 z m 620.43,281.25 H 2279 L 2064.72,868.734 h -76.64 c -17.07,1.692 -27.38,10.246 -46.99,40.184 l -121.34,186.152 c 80.28,24.9 114.03,74.46 114.03,151.37 0,0 9.45,163.33 -187.16,163.33 H 1503.5 v -45.52 h 64.97 V 868.734 H 1503.5 V 823.32 h 234.76 v 45.414 h -64.04 v 216.996 h 35.4 l 137.57,-212.054 c 29.04,-45.317 37.59,-50.356 88.05,-50.356 h 254.32 v 45.414 h -69.28 l 57.08,143.496 h 205.07 l 55.59,-143.496 h -60.47 V 823.32 h 230.99 v 45.414 h -57.68 l -205.83,541.036"
         style="fill:#a21b21;fill-opacity:1;fill-rule:nonzero;stroke:none"
         id="path24" /><path
         d="m 1372.04,638.219 v -276.68 c 0,-77.738 -27.52,-127.801 -87.76,-160.527 -30.55,-15.91 -65.34,-24.582 -100.92,-24.582 -105.28,0 -183,69.66 -183,164.769 v 297.02 h -54.462 v 26.836 h 172.792 v -26.836 h -54.42 V 363.711 c 0,-87.742 51.49,-145.25 132.15,-145.25 82.75,0 138.64,58.859 138.64,145.961 v 273.797 h -54.42 v 26.836 h 145.92 v -26.836 h -54.52"
         style="fill:#a21b21;fill-opacity:1;fill-rule:nonzero;stroke:none"
         id="path26" /><path
         d="m 1660.92,185.852 v 26.878 h 54.46 v 212.719 c 0,38.473 -19.59,62.422 -51.53,62.422 -31.22,0 -49.39,-13.781 -112.56,-86.359 V 212.73 h 55.21 v -26.878 h -164.74 v 26.878 h 55.11 v 261.36 h -63.15 v 19.64 l 104.51,28.29 h 13.06 v -81.329 c 54.46,63.161 85.69,82.707 132.19,82.707 53.71,0 87.15,-34.777 87.15,-90.668 v -220 h 54.46 v -26.878 h -164.17"
         style="fill:#a21b21;fill-opacity:1;fill-rule:nonzero;stroke:none"
         id="path28" /><path
         d="m 1947.06,608.453 c -21.05,0 -37.75,16.66 -37.75,38.477 0,21.054 16.7,37.675 37.75,37.675 21.81,0 38.52,-16.621 38.52,-37.675 0,-21.817 -16.71,-38.477 -38.52,-38.477 z m -79.07,-422.601 v 26.878 h 55.13 v 261.36 h -63.16 v 19.64 l 104.48,28.29 h 13.14 V 212.73 h 55.13 v -26.878 h -164.72"
         style="fill:#a21b21;fill-opacity:1;fill-rule:nonzero;stroke:none"
         id="path30" /><path
         d="M 2327.64,487.871 2209.3,176.43 h -14.56 l -127.05,310.679 -30.51,0.762 v 26.91 h 140.86 v -26.91 h -50.78 l 86.4,-214.152 81.29,214.152 h -48.64 v 26.91 h 111.8 v -26.91 h -30.47"
         style="fill:#a21b21;fill-opacity:1;fill-rule:nonzero;stroke:none"
         id="path32" /><path
         d="m 2595.34,418.129 c 0,43.691 -29.77,74.801 -71.92,74.801 -53.02,0 -90.04,-35.539 -96.56,-92.211 h 168.48 z m -169.19,-46.43 v -7.988 c 0,-90.75 47.89,-153.871 116.86,-153.871 29.06,0 48.68,7.16 89.33,33.359 l 13.77,-26.879 c -54.42,-31.218 -79.83,-39.89 -121.97,-39.89 -92.22,0 -157.52,71.16 -157.52,171.332 0,101.679 66.01,175.636 156.09,175.636 78.41,0 132.15,-53.738 132.15,-132.066 v -19.633 h -228.71"
         style="fill:#a21b21;fill-opacity:1;fill-rule:nonzero;stroke:none"
         id="path34" /><path
         d="m 2911.56,446.512 c -14.49,13.726 -24.62,20.34 -31.86,20.34 -13.1,0 -26.16,-12.391 -66.09,-61.063 V 212.73 h 69.69 v -26.878 h -179.36 v 26.878 h 55.17 v 261.36 h -63.09 v 19.64 l 104.48,28.29 h 13.11 v -81.329 c 52.23,66.797 71.07,82.707 97.31,82.707 8.64,0 15.91,-2.168 20.31,-6.476 l 22.48,-19.602 -42.15,-50.808"
         style="fill:#a21b21;fill-opacity:1;fill-rule:nonzero;stroke:none"
         id="path36" /><path
         d="m 3110.9,176.43 c -40.68,0 -71.11,9.422 -92.2,28.941 v -26.172 h -29.06 v 103.262 h 33.4 v -19.672 c 0,-31.109 40.66,-58.809 85.65,-58.809 39.94,0 69.73,21.051 69.73,50.149 0,29.082 -20.3,44.961 -96.56,74.711 -69.7,26.84 -94.39,53.789 -94.39,99.5 0,56.558 45.75,95.058 112.55,95.058 31.9,0 56.63,-7.988 77.02,-24.617 l 4.27,26.09 h 31.23 L 3195.08,420.27 h -31.18 c 2.93,8.07 4.36,17.449 4.36,24.062 0,28.25 -32.66,51.52 -71.84,51.52 -37.79,0 -62.45,-20.34 -62.45,-51.52 0,-31.273 5.07,-34.781 92.93,-70.453 71.11,-28.297 93.63,-52.309 93.63,-98.738 0,-58.141 -44.96,-98.711 -109.63,-98.711"
         style="fill:#a21b21;fill-opacity:1;fill-rule:nonzero;stroke:none"
         id="path38" /><path
         d="m 3356.09,608.453 c -21.1,0 -37.77,16.66 -37.77,38.477 0,21.054 16.67,37.675 37.77,37.675 21.77,0 38.47,-16.621 38.47,-37.675 0,-21.817 -16.7,-38.477 -38.47,-38.477 z m -79.12,-422.601 v 26.878 h 55.17 v 261.36 h -63.16 v 19.64 l 104.52,28.29 h 13.1 V 212.73 h 55.17 v -26.878 h -164.8"
         style="fill:#a21b21;fill-opacity:1;fill-rule:nonzero;stroke:none"
         id="path40" /><path
         d="m 3880.12,514.781 v -26.91 h 48.61 l -81.33,-214.152 -87.86,214.152 h 51.56 v 26.91 h -239.6 v 94.981 h -52.28 v -94.981 h -63.16 v -26.91 h 63.16 V 249.73 c 0,-44.359 25.41,-70.531 67.52,-70.531 26.87,0 41.36,6.653 79.87,37.121 l -12.35,19.629 c -24.66,-14.519 -34.16,-17.488 -49.35,-17.488 -24.03,0 -33.41,10.18 -33.41,37.879 v 231.531 h 129.23 l 117.61,-288.289 c -17.37,-44.172 -26.87,-61.73 -47.13,-88.531 -22.52,-29.0393 -36.33,-39.8908 -76.26,-62.4494 l 47.16,-48.6133188 c 13.07,17.3828188 22.53,30.4805188 29.1,39.1601188 23.9,34.9414 50.78,86.4336 67.44,130.0426 l 122.68,318.68 h 30.56 v 26.91 h -111.77"
         style="fill:#a21b21;fill-opacity:1;fill-rule:nonzero;stroke:none"
         id="path42" /><path
         d="m 183.359,706.039 226.477,-91.258 226.07,91.102 c 111.617,43.808 183.762,149.605 183.762,269.523 V 1451.34 C 711.703,1541.12 567.016,1596.06 407.973,1596.06 250.766,1596.06 107.563,1542.39 0,1454.42 V 975.406 C 0,855.488 72.0664,749.711 183.359,706.039"
         style="fill:#ffffff;fill-opacity:1;fill-rule:nonzero;stroke:none"
         id="path44" /><path
         d="m 408.219,1526.76 c 123.461,0 241.562,-37.87 342.269,-109.65 V 975.406 c 0,-91.281 -54.894,-171.793 -140.035,-205.207 L 409.836,689.352 209.031,770.258 C 124.066,803.613 69.1641,884.125 69.1641,975.406 V 1419.4 C 169.172,1489.68 286.16,1526.76 408.219,1526.76 Z M 193.344,730.805 409.836,643.551 626.152,730.719 c 101.336,39.773 166.825,135.812 166.825,244.687 v 462.664 c -102.368,81.59 -237.102,131.18 -384.758,131.18 -146.102,0 -279.582,-48.55 -381.5237,-128.62 V 975.406 c 0,-108.875 65.4766,-204.914 166.6487,-244.601"
         style="fill:#a21b21;fill-opacity:1;fill-rule:nonzero;stroke:none"
         id="path46" /><path
         d="M 370.422,955.477 V 1059.4 H 479.32 V 955.477 Z m 0,226.453 v 104.3 H 479.32 v -104.3 z m 248.5,150.98 -76,75.93 H 197.461 v -77.07 l 34.734,-29.88 V 940.168 l -34.734,-29.891 v -77.476 h 345.488 l 75.973,75.992 v 175.577 l -36.559,36.48 36.559,36.54 v 175.52"
         style="fill:#a21b21;fill-opacity:1;fill-rule:nonzero;stroke:none"
         id="path48" /><path
         d="M 531.48,910.32 H 319.012 v 194.21 H 531.48 Z M 319.012,1331.36 H 531.48 V 1136.89 H 319.012 Z m 247.871,-10.19 -43.035,42.54 H 247.41 l 36.184,-32.35 V 910.277 L 247.41,877.652 h 276.129 l 43.344,43.118 v 167.18 l -32.93,32.9 32.93,32.94 v 167.38"
         style="fill:#ffffff;fill-opacity:1;fill-rule:nonzero;stroke:none"
         id="path50" /></g></g></svg>
