<svg xmlns="http://www.w3.org/2000/svg" viewBox="0 0 313.34 41.34"><defs><style>.cod-logo{fill:#00573c}</style></defs><g id="Layer_2" data-name="Layer 2"><g id="Layer_1-2" data-name="Layer 1"><path class="cod-logo" d="M8.7 17.39L22.26 4.58 17.44 0 3.75 13A13 13 0 0 0 0 22.73C0 25.45 1.94 31.51 7.25 34l5.57-5.58a6.23 6.23 0 0 1-6.31-6.05 6.67 6.67 0 0 1 2.19-4.98z"/><path class="cod-logo" d="M21.19 12.71L26 8.11l5 4.74a12.65 12.65 0 0 1 3.83 9.23 12.72 12.72 0 0 1-12.74 13H14.2l-.11-15.52 6.45-6.25.13 14.89h2.12a5.59 5.59 0 0 0 5.44-5.86 6 6 0 0 0-1.8-4.63l-5.24-5zm43.39 7.08a5 5 0 0 0-5-4c-4.53 0-6.24 3.86-6.24 7.88 0 3.83 1.71 7.69 6.24 7.69 3.09 0 4.83-2.13 5.22-5.15h4.89c-.52 5.73-4.48 9.39-10.11 9.39-7.1 0-11.29-5.3-11.29-11.93 0-6.82 4.19-12.13 11.29-12.13 5.06 0 9.3 3 9.91 8.27zM78.91 18c5.24 0 8.62 3.48 8.62 8.79s-3.38 8.75-8.62 8.75-8.59-3.54-8.59-8.8S73.7 18 78.91 18zm0 14.09c3.12 0 4-2.67 4-5.3s-.93-5.34-4-5.34-4 2.67-4 5.34.91 5.21 4 5.21zm9.92-20.02h4.56V35h-4.56zm6.32 0h4.57V35h-4.57zm11.04 15.76c.13 2.9 1.54 4.21 4.08 4.21a3.76 3.76 0 0 0 3.61-2.15h4c-1.29 3.92-4 5.6-7.79 5.6-5.24 0-8.49-3.61-8.49-8.75 0-5 3.44-8.79 8.49-8.79 5.66 0 8.4 4.77 8.08 9.88zm7.43-2.89c-.42-2.32-1.42-3.54-3.64-3.54a3.59 3.59 0 0 0-3.79 3.54zM135.8 34c0 2.73-1 7.36-8.62 7.36-3.28 0-7.11-1.54-7.33-5.34h4.53c.42 1.71 1.8 2.29 3.41 2.29 2.54 0 3.7-1.74 3.67-4.12V32h-.06a5.62 5.62 0 0 1-5 2.57c-5 0-7.11-3.79-7.11-8.36 0-4.31 2.48-8.24 7.14-8.24a5.19 5.19 0 0 1 5 2.67h.06V18.4h4.34zm-4.34-7.47c0-2.7-.93-5.11-3.89-5.11-2.58 0-3.7 2.25-3.7 4.73s.9 5 3.7 5c2.6-.04 3.89-2.26 3.89-4.64zm10.16 1.3c.13 2.9 1.54 4.21 4.09 4.21a3.76 3.76 0 0 0 3.6-2.15h4c-1.29 3.92-4 5.6-7.79 5.6-5.24 0-8.49-3.61-8.49-8.75 0-5 3.44-8.79 8.49-8.79 5.67 0 8.4 4.77 8.08 9.88zm7.43-2.89c-.42-2.32-1.41-3.54-3.63-3.54a3.6 3.6 0 0 0-3.8 3.54zM172.79 18c5.25 0 8.63 3.48 8.63 8.79s-3.38 8.75-8.63 8.75-8.58-3.48-8.58-8.75 3.37-8.79 8.58-8.79zm0 14.09c3.13 0 4.06-2.67 4.06-5.3s-.93-5.34-4.06-5.34-4 2.67-4 5.34.92 5.21 4 5.21zm11.15-10.63h-2.74V18.4h2.74v-1.28c0-2.93 1.83-5.05 5.56-5.05.81 0 1.64.09 2.42.13v3.41a13.19 13.19 0 0 0-1.68-.1c-1.22 0-1.73.51-1.73 1.9v1h3.15v3.06h-3.15V35h-4.57zM204 12.07h9.91c5.95 0 10.42 3.73 10.42 11.35 0 6.66-3.41 11.62-10.42 11.62H204zm5 18.72h4.5c2.93 0 5.73-1.8 5.73-6.88 0-4.64-1.61-7.6-6.63-7.6H209zM241.49 35h-4.35v-2.28h-.09a5.94 5.94 0 0 1-5.05 2.77c-4.85 0-6.08-2.74-6.08-6.86V18.4h4.57v9.4c0 2.73.8 4.08 2.93 4.08 2.48 0 3.54-1.38 3.54-4.76V18.4h4.57zm2.33-22.93h10.36c5.73 0 7.95 3.63 7.95 7.36s-2.22 7.37-7.95 7.37h-5.31V35h-5.05zm5.05 10.81h3.93c2.35 0 4.44-.52 4.44-3.45S255.15 16 252.8 16h-3.93zm13.59.64c.26-4.28 4.08-5.57 7.82-5.57 3.31 0 7.3.74 7.3 4.73v8.66a8.51 8.51 0 0 0 .58 3.7h-4.63a7.31 7.31 0 0 1-.33-1.61 7.62 7.62 0 0 1-5.59 2.06c-3.16 0-5.67-1.58-5.67-5 0-3.76 2.84-4.66 5.67-5.05s5.4-.32 5.4-2.19-1.35-2.25-3-2.25-2.86.71-3 2.51zM273 26.9c-.77.67-2.38.71-3.8 1s-2.7.78-2.7 2.45 1.32 2.12 2.8 2.12c3.57 0 3.7-2.83 3.7-3.83zm22.32 7.1c0 2.73-1 7.36-8.62 7.36-3.28 0-7.11-1.54-7.34-5.34h4.54c.42 1.71 1.8 2.29 3.41 2.29 2.54 0 3.7-1.74 3.66-4.12V32h-.06a5.61 5.61 0 0 1-5 2.57c-5 0-7.11-3.79-7.11-8.36 0-4.31 2.48-8.24 7.15-8.24a5.17 5.17 0 0 1 5 2.67h.05v-2.23h4.35zM291 26.51c0-2.7-.93-5.11-3.89-5.11-2.57 0-3.7 2.25-3.7 4.73s.9 5 3.7 5c2.58-.02 3.89-2.24 3.89-4.62zm10.31 1.32c.13 2.9 1.55 4.22 4.09 4.22a3.76 3.76 0 0 0 3.6-2.16h4c-1.28 3.92-4 5.6-7.78 5.6-5.25 0-8.5-3.61-8.5-8.75 0-5 3.45-8.79 8.5-8.79 5.66 0 8.39 4.77 8.07 9.88zm7.43-2.89c-.41-2.32-1.41-3.54-3.63-3.54a3.6 3.6 0 0 0-3.8 3.54z"/></g></g></svg>