<svg xmlns="http://www.w3.org/2000/svg" version="1" width="197" height="44" viewBox="0 0 196.4 43.5"><path fill="#e85752" d="M163.4 8.5l1.4.7.2-1.7-1.5-.6-.1 1.6zM148.5.3c-.2 0-.2 0 0 .1L162 4.8V3.4l-13-3h-.6M165.5 4.2l-1.8-.4-.1 1.5 1.6.5.3-1.6zM166 .3h-2l-.2 1.8 2 .2.2-2zM169.3 5l-2-.4-.3 1.8 1.7.6.6-2zM162 .3h-11.2v.1l11.3 1.4V.3zM166.2 9.9l1.4.7.6-1.8-1.6-.6-.4 1.7zM170.7.3h-2.4l-.5 2.3 2.2.2.7-2.5zM169.9 9.5l-.7 1.8 1.5.8 1-1.8-1.8-.8zM147.1.3l.3.3L162 7.8V6.3L147.7.5l-.6-.2M173.8.3l-1.2 2.9 3 .4 1.9-3.3h-3.7zM162 27.1V9.2L146.6.4A22558.9 22558.9 0 0 0 162 27M171.6 5.6l-.9 2 2.2.7 1.2-2.1-2.5-.6zM164.6 10.7l-1.3-.8-1 16.4.1.4.2-.6 2-15.4M168.5 13L164 23.2v.2l.1-.2 5.6-9.6-1.3-.8zM167.2 12.2l-1.3-.8-3 14v.1s0 .1.1 0l.2-.6 4-12.7"/><path d="M66.2 33.7c-2.4 0-4.3 2-4.3 4.3 0 2.4 2 4.4 4.3 4.4a4.3 4.3 0 0 0 0-8.7m0-1c3 0 5.5 2.3 5.5 5.3s-2.5 5.4-5.5 5.4-5.4-2.4-5.4-5.4c0-3 2.4-5.4 5.4-5.4" fill="#221f1f" fill-rule="evenodd"/><path fill="#221f1f" d="M0 16.2h1.2v10.4H0zM5.6 16.2H4.4v10.4h6v-1H5.6v-9.4zM13.7 16.2h-1.2v10.4h6v-1h-4.8v-9.4zM21.2 16.2h1.2v10.4h-1.2zM26.2 26.6h1.2v-8l8.2 8.5v-11h-1.2v8.2l-8.2-8.6v11z"/><path d="M43.3 16c-3 0-5.5 2.4-5.5 5.4 0 3 2.5 5.4 5.5 5.4s5.4-2.4 5.4-5.4c0-3-2.5-5.4-5.4-5.4m0 1c2.4 0 4.2 2 4.2 4.4 0 2.4-1.9 4.3-4.2 4.3a4.3 4.3 0 0 1 0-8.6" fill="#221f1f" fill-rule="evenodd"/><path fill="#221f1f" d="M51.5 16.2h1.2v10.4h-1.2zM70.8 16.2H72v10.4h-1.2zM75.8 26.6H77v-8L85 27v-11H84v8.2l-8.1-8.6v11zM94.4 17.6c-.6-1-2-1.6-3.1-1.6-1.6 0-3 1-3 2.7 0 1.5.7 1.9 1.9 2.4l1.2.5c1 .5 2.2.9 2.2 2 0 1.3-1.2 2.1-2.3 2.1-1.1 0-2.3-.8-2.5-2l-1.1.4c.3 1.6 2 2.7 3.6 2.7 1.8 0 3.4-1.4 3.4-3.2 0-1.7-1.1-2.4-2.5-3l-1-.3c-.7-.4-1.8-.7-1.8-1.6 0-1 1-1.6 1.8-1.6 1 0 1.8.4 2.2 1.1l1-.6zM61.8 17.6c-.6-1-2-1.6-3-1.6-1.6 0-3.1 1-3.1 2.7 0 1.5.7 1.9 2 2.4l1.1.5c1 .5 2.2.9 2.2 2.1 0 1.2-1.1 2-2.3 2-1.1 0-2.3-.8-2.4-1.9l-1.2.3c.4 1.7 2 2.7 3.7 2.7 1.8 0 3.4-1.4 3.4-3.2 0-1.7-1.2-2.3-2.5-3l-1-.3c-.7-.3-1.9-.7-1.9-1.6 0-1 1-1.6 1.9-1.6 1 0 1.7.4 2.2 1.1l.9-.6zM100.8 17.3h3.4v-1.1h-8v1h3.4v9.4h1.2v-9.3zM106.9 16.2h1.2v10.4h-1.2zM115.2 17.3h3.4v-1.1h-7.9v1h3.4v9.4h1.1v-9.3zM122.4 16.2h-1.1v6.5c0 1.2 0 2.2 1 3a4 4 0 0 0 5.5 0c.8-1 1-1.8 1-3v-6.5h-1.3v6.2c0 .8 0 1.7-.5 2.4-.5.6-1.3 1-2 1-.8 0-1.7-.4-2.1-1-.5-.7-.5-1.6-.5-2.4v-6.2zM135.3 17.3h3.5v-1.1h-8v1h3.3v9.4h1.2v-9.3zM97.8 43.2h6.2v-1h-5v-3.8h4.8v-1H99v-3.6h5v-1h-6.2v10.4zM141.4 26.6h6.1v-1h-5v-3.8h4.9v-1h-4.9v-3.5h5v-1.1h-6.1v10.4zM91.9 33.8h3.3v-1h-7.9v1h3.4v9.4h1.2v-9.4zM115 33.6a5.5 5.5 0 0 0-8.6 4.4c0 3 2.5 5.4 5.4 5.4 1.1 0 2.2-.4 3.1-1v-1.5c-.8.9-2 1.4-3.1 1.4-2.4 0-4.3-2-4.3-4.3s2-4.3 4.3-4.3c1.2 0 2.3.5 3.1 1.3v-1.4zM119.6 37.3v-4.6h-1.1v10.5h1.1v-4.8h5.8v4.8h1.1V32.7h-1.1v4.6h-5.8zM130.2 43.2h1.1v-8l8.2 8.5v-11h-1.2V41l-8.1-8.6v11z"/><path d="M147.4 32.6c-3 0-5.5 2.4-5.5 5.4 0 3 2.5 5.4 5.5 5.4s5.4-2.4 5.4-5.4c0-3-2.4-5.4-5.4-5.4m0 1c2.4 0 4.3 2 4.3 4.4 0 2.3-2 4.3-4.3 4.3a4.3 4.3 0 0 1 0-8.6" fill="#221f1f" fill-rule="evenodd"/><path fill="#221f1f" d="M156.8 32.8h-1.2v10.4h6v-1h-4.8v-9.4z"/><path d="M168 32.6c-3 0-5.5 2.4-5.5 5.4a5.4 5.4 0 1 0 10.9 0c0-3-2.5-5.4-5.5-5.4m0 1c2.4 0 4.3 2 4.3 4.4 0 2.3-1.9 4.3-4.3 4.3a4.3 4.3 0 0 1 0-8.6" fill="#221f1f" fill-rule="evenodd"/><path d="M181.5 38v1h3.1c0 2-1.9 3.3-3.7 3.3a4.4 4.4 0 0 1-4.2-4.3c0-2.3 1.9-4.3 4.3-4.3 1.5 0 2.7.7 3.6 2l.8-.9a5.4 5.4 0 0 0-9.9 3.2c0 3 2.5 5.4 5.4 5.4 1.5 0 3-.7 3.9-1.8 1-1 1.1-2.2 1-3.6h-4.3zM191.2 38.7v4.5h1.1v-4.5l3.4-6h-1.3l-2.7 4.7-2.6-4.6h-1.4l3.5 6zM74.4 43.3h1.2v-5h4.8v-1h-4.8v-3.4h5v-1h-6.2v10.4z" fill="#221f1f"/><path fill="#e31937" d="M163.4 8.5l1.4.7.2-1.7-1.5-.6-.1 1.6zM148.5.3c-.2 0-.2 0 0 .1L162 4.8V3.4l-13-3h-.6M165.5 4.2l-1.8-.4-.1 1.5 1.6.5.3-1.6zM166 .3h-2l-.2 1.8 2 .2.2-2zM169.3 5l-2-.4-.3 1.8 1.7.6.6-2zM162 .3h-11.2v.1l11.3 1.4V.3zM166.2 9.9l1.4.7.6-1.8-1.6-.6-.4 1.7zM170.7.3h-2.4l-.5 2.3 2.2.2.7-2.5zM169.9 9.5l-.7 1.8 1.5.8 1-1.8-1.8-.8zM147.1.3l.3.3L162 7.8V6.3L147.7.5l-.6-.2M173.8.3l-1.2 2.9 3 .4 1.9-3.3h-3.7zM162 27.1V9.2L146.6.4A22558.9 22558.9 0 0 0 162 27M171.6 5.6l-.9 2 2.2.7 1.2-2.1-2.5-.6zM164.6 10.7l-1.3-.8-1 16.4.1.4.2-.6 2-15.4M168.5 13L164 23.2v.2l.1-.2 5.6-9.6-1.3-.8zM167.2 12.2l-1.3-.8-3 14v.1s0 .1.1 0l.2-.6 4-12.7"/></svg>