<svg id="icon-logo-full" viewBox="0 0 84 32" xmlns="http://www.w3.org/2000/svg">
			<title>logo-full</title>
			<path fill="#231f20" style="fill: #231f20" d="M79.227 25.020h2.704v0.485h-2.704v-0.485z"></path>
			<path fill="#231f20" style="fill: #231f20" d="M29.269 25.020h40.923v0.485h-40.923v-0.485z"></path>
			<path fill="#64489d" style="fill: #64489d" d="M12.239 29.592s-9.421-4.113-11.722-9.577c1.213 6.065 11.722 10.811 11.722 10.811s10.517-4.747 11.722-10.811c-2.303 5.462-11.722 9.577-11.722 9.577z"></path>
			<path fill="#64489d" style="fill: #64489d" d="M5.047 0.617l0.012-0.228s-0.74-0.835-1.919 0.228h-2.523v16.901c0 6.262 11.624 11.34 11.624 11.34s11.615-5.076 11.615-11.34v-16.901z"></path>
			<path fill="#fff" style="fill: #fff" d="M11.722 6.052l0.551-0.806c-0.264-0.067-0.568-0.105-0.88-0.105-0.007 0-0.015 0-0.022 0h0.001c-0.206 0-0.393 0-0.578 0.029v0l-0.123 9.592c0.15-0.020 0.324-0.031 0.501-0.031s0.35 0.011 0.521 0.034l-0.020-0.002z"></path>
			<path fill="#fff" style="fill: #fff" d="M13.452 19.083c-0.078-0.189-0.107-1.555-0.107-1.555s0-0.049 0-0.074 0-0.023 0-0.035c0-0.919-0.993-1.664-2.221-1.664-1.115 0-2.036 0.617-2.194 1.419 0 0.014 0 0.027 0 0.041v0.033c-0.088 0.577-0.196 1.072-0.332 1.556l0.022-0.090s-0.047 0.185-0.162 0.224c-1.076 0.454-1.795 1.234-1.851 2.143-0.001 0.019-0.001 0.041-0.001 0.063 0 0.297 0.067 0.579 0.187 0.831l-0.005-0.012c-0.034-0.123-0.054-0.263-0.054-0.409 0-0.029 0.001-0.058 0.002-0.087l-0 0.004c0.078-1.415 2.057-2.468 4.411-2.332s4.208 1.374 4.127 2.789c-0.007 0.11-0.025 0.213-0.052 0.311l0.003-0.011c0.085-0.188 0.14-0.407 0.154-0.636l0-0.005c0.045-1.006-0.724-1.935-1.927-2.505z"></path>
			<path fill="#fff" style="fill: #fff" d="M10.453 21.73c-0.048 0.166-0.080 0.358-0.090 0.555l-0 0.006c0.010 0.288 0.172 0.536 0.407 0.668l0.004 0.002c0.041 0.028 0.089 0.053 0.138 0.074l0.006 0.002s0.016 0.099 0.027 0.142l-0.045 0.029-0.025 0.023-0.012 0.016v0.018c-0 0.003-0.001 0.007-0.001 0.011s0 0.008 0.001 0.012l-0-0c-0 0.002-0.001 0.005-0.001 0.008s0 0.006 0.001 0.009l-0-0c-0 0.003-0.001 0.007-0.001 0.011s0 0.008 0.001 0.012l-0-0c-0 0.005-0.001 0.010-0.001 0.015s0 0.011 0.001 0.016l-0-0.001c0.008 0.032 0.026 0.059 0.049 0.080l0 0h0.010l0.023 0.016h0.016l0.029 0.014h0.123c0.002 0 0.004 0 0.006 0 0.062 0 0.12-0.018 0.168-0.048l-0.001 0.001c0.041-0.028 0.068-0.073 0.070-0.125v-0c0.001-0.006 0.002-0.014 0.002-0.022s-0.001-0.015-0.002-0.022l0 0.001c-0.005-0.012-0.012-0.022-0.019-0.031l0 0c-0.022-0.027-0.050-0.048-0.081-0.063l-0.001-0.001c0-0.043 0.018-0.090 0.027-0.14 0.317-0.171 0.555-0.411 0.555-0.749-0.002-0.085-0.010-0.167-0.024-0.246l0.001 0.010c-0.461-0.288-1.084-0.313-1.361-0.304z"></path>
			<path fill="#fff" style="fill: #fff" d="M14.238 16.623v0l5.388 1.44-0.518-11.578c0.159-0.306 0.373-0.562 0.631-0.765l0.005-0.004-5.725-1.211v1.419l0.234-0.012v8.827l-0.648 0.823-0.012-9.614c-0.258-0.251-0.567-0.45-0.911-0.578l-0.018-0.006v6.721l0.027 1.851-0.434 0.94c1.090 0.296 1.884 0.997 1.983 1.75z"></path>
			<path fill="#fff" style="fill: #fff" d="M0 0v17.651c0 6.593 12.239 11.938 12.239 11.938s12.234-5.343 12.234-11.938v-17.651zM0.617 0.617h2.521c0.786-0.714 1.386-0.574 1.684-0.411-0.116-0.039-0.25-0.061-0.389-0.061-0.167 0-0.327 0.032-0.473 0.091l0.009-0.003c-0.041 0.767-0.545 10.155-1.185 22.112-1.283-1.458-2.168-3.097-2.168-4.827zM23.856 17.518c0 1.201-0.43 2.359-1.121 3.447l-0.967-15.013c-0.436-0.483-0.794-0.662-1.080-0.693l1.051 17.036c-3.352 3.879-9.507 6.569-9.507 6.569s-4.744-2.081-8.171-5.213l0.492-9.723 4.559 1.306c0.002-0.010 0.003-0.022 0.003-0.034 0-0.114-0.092-0.206-0.206-0.206-0.008 0-0.015 0-0.022 0.001l0.001-0 0.16-8.271 0.323-0.049 1.234-1.487c-0.45 0.052-0.859 0.185-1.227 0.385l0.018-0.009v-2.538l-4.189-2.011 0.021-0.397h18.628z"></path>
			<path fill="#231f20" style="fill: #231f20" d="M31.221 8.187c0 2.25 0 3.11-0.411 4.095-0.292 0.695-0.903 1.347-2.028 2.124-0.154 0.113-0.33 0.228-0.513 0.333l-0.028 0.015c-0.028 0.016-0.061 0.026-0.096 0.027h-0c-0.001 0-0.003 0-0.004 0-0.048 0-0.088-0.037-0.092-0.084l-0-0c0-0.082 0.070-0.125 0.195-0.206 0.183-0.116 0.342-0.244 0.485-0.389l0-0c0.903-0.917 1.333-1.645 1.333-5.234v-4.012c0-2.166 0-2.554-0.027-2.998s-0.138-0.693-0.596-0.792c-0.138-0.026-0.298-0.041-0.46-0.041-0.005 0-0.009 0-0.013 0h0.001c-0.056 0-0.111-0.027-0.111-0.082s0.062-0.119 0.214-0.119c0.617 0 1.499 0.041 1.569 0.041s0.944-0.041 1.361-0.041c0.152 0 0.222 0.027 0.222 0.111s-0.056 0.082-0.111 0.082c-0.126 0.004-0.245 0.019-0.361 0.044l0.013-0.002c-0.374 0.070-0.485 0.304-0.514 0.792-0.027 0.444-0.027 0.833-0.027 2.998z"></path>
			<path fill="#231f20" style="fill: #231f20" d="M40.514 0.635c3.124 0 5.456 1.972 5.456 5.205 0.006 3.109-2.186 5.676-5.532 5.676-3.805 0-5.386-2.957-5.386-5.456 0-2.248 1.637-5.425 5.462-5.425zM40.806 10.992c1.25 0 3.831-0.722 3.831-4.761 0-3.332-2.028-5.123-4.22-5.123-2.318 0-4.053 1.528-4.053 4.568 0.006 3.233 1.95 5.314 4.448 5.314z"></path>
			<path fill="#231f20" style="fill: #231f20" d="M51.058 7.325c0 2.040 0.056 2.929 0.304 3.179s0.584 0.319 1.666 0.319c0.736 0 1.347-0.014 1.68-0.411 0.177-0.233 0.304-0.515 0.358-0.821l0.002-0.012c0.014-0.111 0.041-0.181 0.125-0.181s0.084 0.056 0.084 0.206c-0.036 0.513-0.109 0.988-0.218 1.448l0.012-0.060c-0.097 0.319-0.138 0.374-0.874 0.374-0.999 0-1.721-0.027-2.305-0.041s-1.014-0.041-1.417-0.041c-0.056 0-0.292 0.014-0.57 0.014s-0.582 0.029-0.792 0.029c-0.152 0-0.222-0.029-0.222-0.111 0-0.041 0.027-0.084 0.111-0.084 0.149-0.006 0.29-0.026 0.426-0.059l-0.015 0.003c0.278-0.056 0.348-0.36 0.411-0.763 0.070-0.584 0.070-1.68 0.070-3.013v-2.445c0-2.166 0-2.554-0.027-2.998s-0.138-0.693-0.596-0.792c-0.138-0.026-0.298-0.041-0.46-0.041-0.005 0-0.009 0-0.013 0h0.001c-0.056 0-0.111-0.027-0.111-0.082s0.064-0.119 0.216-0.119c0.617 0 1.499 0.041 1.569 0.041s1.084-0.041 1.499-0.041c0.152 0 0.222 0.027 0.222 0.111s-0.056 0.082-0.111 0.082c-0.164 0.003-0.323 0.018-0.478 0.044l0.019-0.003c-0.411 0.070-0.514 0.304-0.541 0.792-0.027 0.444-0.027 0.833-0.027 2.998z"></path>
			<path fill="#231f20" style="fill: #231f20" d="M60.51 7.299c0 1.333 0 2.429 0.070 3.013 0.041 0.411 0.125 0.707 0.541 0.763 0.177 0.027 0.39 0.047 0.605 0.055l0.012 0c0.084 0 0.111 0.041 0.111 0.084s-0.070 0.111-0.222 0.111c-0.763 0-1.645-0.041-1.707-0.041s-0.944 0.041-1.361 0.041c-0.152 0-0.222-0.029-0.222-0.111 0-0.041 0.027-0.084 0.111-0.084 0.149-0.006 0.29-0.026 0.426-0.059l-0.015 0.003c0.278-0.056 0.348-0.36 0.411-0.763 0.070-0.584 0.070-1.68 0.070-3.013v-2.443c0-2.166 0-2.554-0.027-2.998s-0.167-0.707-0.471-0.777c-0.129-0.033-0.277-0.051-0.43-0.051-0.002 0-0.005 0-0.007 0h0c-0.056 0-0.111-0.027-0.111-0.082s0.070-0.111 0.222-0.111c0.459 0 1.333 0.041 1.403 0.041s0.954-0.053 1.366-0.053c0.152 0 0.222 0.027 0.222 0.111s-0.056 0.082-0.111 0.082c-0.126 0.004-0.245 0.019-0.361 0.044l0.013-0.002c-0.374 0.070-0.485 0.304-0.514 0.792-0.027 0.444-0.027 0.833-0.027 2.998z"></path>
			<path fill="#231f20" style="fill: #231f20" d="M66.688 4.856c0-2.166 0-2.554-0.027-2.998s-0.138-0.693-0.596-0.792c-0.138-0.026-0.298-0.041-0.46-0.041-0.004 0-0.009 0-0.013 0h0.001c-0.056 0-0.111-0.027-0.111-0.082s0.070-0.111 0.222-0.111c0.319 0 0.695 0 0.999 0.014l0.57 0.029c0.097 0 2.861 0 3.179-0.014 0.216-0.008 0.421-0.033 0.62-0.074l-0.024 0.004c0.070-0.014 0.125-0.070 0.195-0.070s0.056 0.056 0.056 0.125-0.070 0.263-0.111 0.652c-0.014 0.138-0.041 0.749-0.070 0.915-0.014 0.070-0.041 0.152-0.097 0.152s-0.111-0.070-0.111-0.181c0-0.002 0-0.004 0-0.006 0-0.177-0.031-0.347-0.088-0.504l0.003 0.010c-0.097-0.222-0.237-0.389-0.985-0.473-0.237-0.027-1.75-0.041-1.902-0.041-0.056 0-0.082 0.041-0.082 0.14v3.838c0 0.097 0.014 0.138 0.082 0.138 0.181 0 1.888 0 2.207-0.027s0.529-0.056 0.652-0.195 0.152-0.181 0.206-0.181 0.070 0.029 0.070 0.111-0.070 0.319-0.111 0.777c-0.027 0.278-0.056 0.792-0.056 0.888s0 0.263-0.097 0.263-0.097-0.056-0.097-0.125c0.001-0.018 0.001-0.040 0.001-0.062 0-0.142-0.021-0.278-0.059-0.407l0.003 0.010c-0.056-0.195-0.181-0.43-0.722-0.485-0.374-0.041-1.748-0.070-1.985-0.070-0.003-0-0.006-0-0.009-0-0.049 0-0.088 0.040-0.088 0.088 0 0.003 0 0.006 0 0.009l-0-0v1.222c0 0.473-0.014 2.083 0 2.373 0.041 0.958 0.249 1.139 1.61 1.139 0.362 0 0.973 0 1.333-0.152s0.529-0.43 0.617-0.999c0.027-0.152 0.056-0.206 0.125-0.206s0.084 0.111 0.084 0.206c-0.044 0.518-0.108 0.979-0.194 1.432l0.013-0.085c-0.097 0.36-0.206 0.36-0.751 0.36-1.041 0-1.806-0.027-2.347-0.041s-0.874-0.041-1.084-0.041c-0.027 0-0.263 0-0.555 0.014s-0.596 0.029-0.806 0.029c-0.152 0-0.222-0.029-0.222-0.111 0-0.041 0.027-0.084 0.111-0.084 0.149-0.006 0.29-0.026 0.426-0.059l-0.015 0.003c0.278-0.056 0.348-0.36 0.411-0.763 0.070-0.584 0.070-1.68 0.070-3.013z"></path>
			<path fill="#231f20" style="fill: #231f20" d="M79.348 7.299c0 1.333 0 2.429 0.070 3.013 0.041 0.411 0.125 0.707 0.541 0.763 0.177 0.027 0.39 0.047 0.605 0.055l0.012 0c0.084 0 0.111 0.041 0.111 0.084s-0.070 0.111-0.222 0.111c-0.763 0-1.645-0.041-1.707-0.041s-0.944 0.041-1.361 0.041c-0.152 0-0.222-0.029-0.222-0.111 0-0.041 0.029-0.084 0.111-0.084 0.149-0.006 0.29-0.026 0.426-0.059l-0.015 0.003c0.278-0.056 0.348-0.36 0.411-0.763 0.070-0.584 0.070-1.68 0.070-3.013v-5.874l-2.057 0.027c-0.862 0.014-1.195 0.111-1.417 0.444-0.087 0.124-0.166 0.265-0.23 0.414l-0.006 0.016c-0.041 0.111-0.084 0.138-0.138 0.138s-0.070-0.041-0.070-0.125c0-0.138 0.278-1.333 0.306-1.44s0.084-0.263 0.138-0.263c0.179 0.075 0.386 0.133 0.603 0.165l0.014 0.002c0.411 0.041 0.93 0.070 1.096 0.070h5.207c0.030 0.001 0.065 0.001 0.101 0.001 0.312 0 0.618-0.026 0.916-0.075l-0.032 0.004c0.206-0.027 0.333-0.070 0.389-0.070s0.070 0.082 0.070 0.167c0 0.411-0.041 1.374-0.041 1.528s-0.041 0.181-0.097 0.181-0.097-0.041-0.111-0.236l-0.014-0.152c-0.041-0.411-0.374-0.736-1.707-0.763l-1.75-0.027z"></path>
			<path fill="#231f20" style="fill: #231f20" d="M30.079 18.040c0-0.886 0-1.049-0.010-1.234s-0.056-0.292-0.239-0.333c-0.063-0.013-0.136-0.021-0.211-0.021-0.002 0-0.004 0-0.006 0h0c-0.062 0-0.095-0.012-0.095-0.053s0.039-0.051 0.121-0.051c0.294 0 0.644 0.016 0.788 0.016s0.483-0.016 0.699-0.016c0.078 0 0.117 0.012 0.117 0.051s-0.033 0.053-0.101 0.053c-0.057 0-0.112 0.006-0.166 0.017l0.005-0.001c-0.15 0.029-0.193 0.128-0.206 0.333s-0.010 0.35-0.010 1.234v1.090c0 0.251 0.016 0.531 0.016 0.823 0.001 0.029 0.001 0.063 0.001 0.097 0 0.332-0.049 0.652-0.141 0.954l0.006-0.023c-0.186 0.471-0.515 0.851-0.934 1.097l-0.010 0.006c-0.076 0.048-0.166 0.099-0.26 0.144l-0.017 0.008c-0.032 0.020-0.070 0.032-0.11 0.035l-0.001 0c0 0-0 0-0 0-0.025 0-0.045-0.020-0.045-0.045 0-0.001 0-0.001 0-0.002v0c0-0.029 0.027-0.053 0.121-0.105 0.103-0.063 0.191-0.136 0.266-0.221l0.001-0.001c0.422-0.448 0.411-1.028 0.411-2.174z"></path>
			<path fill="#231f20" style="fill: #231f20" d="M32.15 18.040c0-0.886 0-1.049-0.010-1.234s-0.056-0.292-0.239-0.333c-0.057-0.011-0.123-0.017-0.19-0.017-0.009 0-0.018 0-0.027 0l0.001-0c-0.062 0-0.095-0.012-0.095-0.053s0.039-0.051 0.121-0.051c0.294 0 0.644 0.016 0.81 0.016 0.134 0 0.483-0.016 0.683-0.016 0.084 0 0.121 0.012 0.121 0.051s-0.033 0.053-0.088 0.053c-0.057 0-0.112 0.006-0.166 0.017l0.005-0.001c-0.15 0.029-0.193 0.128-0.206 0.333s-0.010 0.35-0.010 1.234v0.823c0 0.845 0.16 1.201 0.432 1.44 0.173 0.149 0.4 0.24 0.648 0.24 0.017 0 0.033-0 0.050-0.001l-0.002 0c0.001 0 0.001 0 0.002 0 0.301 0 0.572-0.125 0.765-0.327l0-0c0.304-0.321 0.323-0.845 0.323-1.44v-0.734c0-0.886 0-1.049-0.010-1.234s-0.056-0.292-0.239-0.333c-0.055-0.011-0.119-0.017-0.184-0.017-0.007 0-0.015 0-0.022 0l0.001-0c-0.062 0-0.095-0.012-0.095-0.053s0.039-0.051 0.117-0.051c0.284 0 0.633 0.016 0.638 0.016 0.066 0 0.411-0.016 0.633-0.016 0.078 0 0.117 0.012 0.117 0.051s-0.033 0.053-0.101 0.053c-0.057 0-0.112 0.006-0.166 0.017l0.005-0.001c-0.15 0.029-0.195 0.128-0.206 0.333s-0.010 0.35-0.010 1.234v0.617c0 0.648-0.062 1.335-0.526 1.754-0.283 0.256-0.661 0.413-1.075 0.413-0.028 0-0.055-0.001-0.082-0.002l0.004 0c-0.033 0.002-0.072 0.004-0.112 0.004-0.43 0-0.823-0.157-1.125-0.417l0.002 0.002c-0.284-0.267-0.494-0.699-0.494-1.544z"></path>
			<path fill="#231f20" style="fill: #231f20" d="M37.154 19.963c0.010 0.454 0.084 0.607 0.193 0.648 0.078 0.026 0.168 0.042 0.261 0.042 0.009 0 0.019-0 0.028-0l-0.001 0c0.062 0 0.095 0.012 0.095 0.047s-0.049 0.058-0.127 0.058c-0.36 0-0.582-0.016-0.689-0.016-0.049 0-0.311 0.016-0.6 0.016-0.072 0-0.121 0-0.121-0.058s0.033-0.047 0.088-0.047c0.005 0 0.011 0 0.017 0 0.082 0 0.162-0.011 0.238-0.030l-0.007 0.001c0.144-0.047 0.167-0.206 0.173-0.724l0.053-3.447c0-0.117 0.016-0.206 0.072-0.206s0.111 0.076 0.206 0.181 0.911 1.028 1.721 1.871c0.378 0.397 1.127 1.234 1.222 1.329h0.029l-0.056-2.618c0-0.356-0.056-0.467-0.189-0.524-0.074-0.023-0.159-0.036-0.248-0.036-0.016 0-0.032 0-0.049 0.001l0.002-0c-0.066 0-0.088-0.016-0.088-0.053s0.062-0.051 0.144-0.051c0.288 0 0.555 0.016 0.672 0.016 0.062 0 0.271-0.016 0.545-0.016 0.072 0 0.127 0 0.127 0.051s-0.033 0.053-0.101 0.053c-0.008-0-0.018-0.001-0.027-0.001-0.050 0-0.098 0.006-0.144 0.018l0.004-0.001c-0.156 0.047-0.206 0.169-0.206 0.496l-0.062 3.679c0 0.128-0.023 0.181-0.072 0.181s-0.127-0.064-0.189-0.128c-0.35-0.35-1.061-1.115-1.645-1.715s-1.222-1.359-1.32-1.468h-0.016z"></path>
			<path fill="#231f20" style="fill: #231f20" d="M41.88 18.040c0-0.886 0-1.049-0.010-1.234s-0.066-0.298-0.189-0.327c-0.055-0.015-0.119-0.023-0.184-0.023-0.008 0-0.015 0-0.022 0l0.001-0c-0.056 0-0.088-0.012-0.088-0.058s0.045-0.047 0.134-0.047c0.206 0 0.561 0.016 0.722 0.016s0.467-0.016 0.677-0.016c0.072 0 0.117 0.012 0.117 0.047s-0.033 0.058-0.088 0.058c-0.059 0-0.117 0.006-0.172 0.017l0.006-0.001c-0.15 0.029-0.193 0.128-0.206 0.333s-0.010 0.35-0.010 1.234v1.028c0 0.566 0 1.028 0.023 1.277 0.016 0.158 0.056 0.263 0.222 0.286 0.084 0.013 0.182 0.021 0.282 0.023l0.002 0c0.062 0 0.088 0.016 0.088 0.047s-0.045 0.058-0.105 0.058c-0.366 0-0.716-0.016-0.866-0.016s-0.477 0.016-0.699 0.016c-0.072 0-0.111-0.016-0.111-0.058s0.023-0.047 0.088-0.047c0.003 0 0.006 0 0.009 0 0.070 0 0.138-0.008 0.202-0.024l-0.006 0.001c0.111-0.023 0.144-0.123 0.16-0.292 0.027-0.245 0.027-0.705 0.027-1.271z"></path>
			<path fill="#231f20" style="fill: #231f20" d="M43.673 18.552c0-0.997 0.627-2.285 2.293-2.285 1.382 0 2.244 0.845 2.244 2.18s-0.888 2.39-2.299 2.39c-1.594 0.002-2.238-1.252-2.238-2.285zM47.43 18.663c0-1.306-0.716-2.116-1.627-2.116-0.638 0-1.366 0.372-1.366 1.824 0 1.213 0.638 2.174 1.705 2.174 0.389 0.002 1.287-0.197 1.287-1.882z"></path>
			<path fill="#231f20" style="fill: #231f20" d="M49.092 18.040c0-0.886 0-1.049-0.010-1.234s-0.056-0.292-0.239-0.333c-0.057-0.011-0.123-0.017-0.19-0.017-0.009 0-0.018 0-0.027 0l0.001-0c-0.062 0-0.095-0.012-0.095-0.053s0.039-0.051 0.121-0.051c0.294 0 0.644 0.016 0.761 0.016 0.189 0 0.617-0.016 0.784-0.016 0.039-0.003 0.084-0.005 0.13-0.005 0.333 0 0.643 0.095 0.905 0.26l-0.007-0.004c0.232 0.19 0.378 0.476 0.378 0.797 0 0 0 0.001 0 0.001v-0c0 0.432-0.173 0.823-0.732 1.306 0.494 0.654 0.878 1.172 1.205 1.534 0.152 0.195 0.365 0.337 0.609 0.395l0.007 0.002c0.047 0.010 0.101 0.016 0.156 0.016h0c0.045 0 0.066 0.016 0.066 0.047s-0.039 0.058-0.105 0.058h-0.535c-0.032 0.003-0.069 0.005-0.106 0.005-0.178 0-0.346-0.043-0.494-0.119l0.006 0.003c-0.239-0.134-0.45-0.411-0.761-0.858-0.222-0.321-0.477-0.718-0.549-0.804-0.021-0.026-0.052-0.042-0.088-0.042-0.005 0-0.009 0-0.013 0.001l0.001-0-0.483-0.012c-0.027 0-0.045 0.012-0.045 0.047v0.082c0 0.543 0 1.004 0.027 1.248 0.016 0.169 0.049 0.298 0.216 0.321 0.079 0.012 0.173 0.020 0.268 0.023l0.003 0c0.045 0 0.066 0.016 0.066 0.047s-0.039 0.058-0.111 0.058c-0.323 0-0.732-0.016-0.823-0.016s-0.455 0.016-0.677 0.016c-0.072 0-0.111-0.016-0.111-0.058s0.023-0.047 0.088-0.047c0.003 0 0.006 0 0.009 0 0.070 0 0.138-0.008 0.202-0.024l-0.006 0.001c0.111-0.023 0.138-0.152 0.16-0.321 0.027-0.245 0.027-0.705 0.027-1.234zM49.748 18.509c0 0.064 0.010 0.088 0.049 0.105 0.119 0.037 0.256 0.058 0.398 0.058 0.008 0 0.017-0 0.025-0l-0.001 0c0.023 0.004 0.050 0.006 0.077 0.006 0.12 0 0.23-0.039 0.319-0.105l-0.001 0.001c0.167-0.128 0.327-0.397 0.327-0.874 0-0.823-0.522-1.067-0.849-1.067-0.017-0.001-0.038-0.001-0.059-0.001-0.083 0-0.165 0.009-0.243 0.025l0.008-0.001c-0.039 0.012-0.049 0.035-0.049 0.082z"></path>
			<path fill="#231f20" style="fill: #231f20" d="M55.755 20.204c-0.426-0.431-0.689-1.024-0.689-1.679 0-0.635 0.247-1.212 0.651-1.64l-0.001 0.001c0.399-0.385 0.928-0.617 1.754-0.617 0.009-0 0.020-0 0.030-0 0.273 0 0.541 0.021 0.803 0.061l-0.029-0.004c0.206 0.029 0.389 0.082 0.555 0.099 0.062 0 0.082 0.035 0.082 0.070s-0.016 0.117-0.027 0.321 0 0.512-0.016 0.629-0.016 0.134-0.066 0.134-0.056-0.047-0.056-0.128c-0.008-0.207-0.089-0.394-0.217-0.538l0.001 0.001c-0.183-0.206-0.617-0.362-1.127-0.362-0.030-0.002-0.064-0.003-0.099-0.003-0.365 0-0.697 0.139-0.947 0.366l0.001-0.001c-0.411 0.391-0.51 0.944-0.51 1.509 0 1.388 1.006 2.075 1.748 2.075 0.494 0 0.794-0.058 1.016-0.327 0.087-0.108 0.152-0.237 0.188-0.378l0.001-0.007c0.016-0.093 0.029-0.117 0.072-0.117s0.049 0.041 0.049 0.086c-0.026 0.292-0.069 0.557-0.129 0.814l0.008-0.039c-0.011 0.080-0.068 0.145-0.142 0.168l-0.001 0c-0.27 0.086-0.58 0.135-0.902 0.135-0.034 0-0.069-0.001-0.103-0.002l0.005 0c-0.761 0.004-1.398-0.171-1.904-0.631z"></path>
			<path fill="#231f20" style="fill: #231f20" d="M59.453 18.552c0-0.997 0.627-2.285 2.293-2.285 1.382 0 2.244 0.845 2.244 2.18s-0.888 2.39-2.299 2.39c-1.594 0.002-2.238-1.252-2.238-2.285zM63.21 18.663c0-1.306-0.716-2.116-1.627-2.116-0.638 0-1.366 0.372-1.366 1.824 0 1.213 0.638 2.174 1.705 2.174 0.391 0.002 1.289-0.197 1.289-1.882z"></path>
			<path fill="#231f20" style="fill: #231f20" d="M65.567 19.066c0 0.747 0 1.148 0.117 1.255s0.239 0.128 0.672 0.128c0.294 0 0.51 0 0.65-0.162 0.074-0.098 0.125-0.216 0.144-0.346l0-0.004c0-0.051 0.016-0.088 0.062-0.088s0.045 0.029 0.045 0.099c-0.014 0.247-0.044 0.477-0.090 0.701l0.005-0.031c-0.033 0.128-0.062 0.158-0.35 0.158-0.399 0-0.689-0.012-0.938-0.016s-0.45-0.016-0.677-0.016c-0.062 0-0.183 0-0.317 0s-0.271 0.012-0.383 0.012c-0.072 0-0.111-0.016-0.111-0.058s0.023-0.047 0.088-0.047c0.003 0 0.006 0 0.009 0 0.070 0 0.138-0.008 0.202-0.024l-0.006 0.001c0.111-0.023 0.138-0.152 0.16-0.321 0.027-0.245 0.027-0.705 0.027-1.234v-1.028c0-0.886 0-1.049-0.010-1.234s-0.056-0.292-0.239-0.333c-0.049-0.011-0.104-0.017-0.161-0.017-0.008 0-0.015 0-0.023 0l0.001-0c-0.062 0-0.095-0.012-0.095-0.053s0.039-0.051 0.121-0.051c0.261 0 0.617 0.016 0.761 0.016s0.539-0.016 0.755-0.016c0.078 0 0.117 0.012 0.117 0.051s-0.033 0.053-0.101 0.053c-0 0-0.001 0-0.001 0-0.076 0-0.15 0.006-0.223 0.017l0.008-0.001c-0.15 0.029-0.193 0.128-0.206 0.333s-0.010 0.35-0.010 1.234z"></path>
			<path fill="#231f20" style="fill: #231f20" d="M68.788 19.066c0 0.747 0 1.148 0.117 1.255s0.239 0.128 0.672 0.128c0.294 0 0.51 0 0.65-0.162 0.074-0.098 0.125-0.216 0.144-0.346l0-0.004c0-0.051 0.016-0.088 0.062-0.088s0.045 0.029 0.045 0.099c-0.014 0.247-0.044 0.477-0.090 0.701l0.005-0.031c-0.033 0.128-0.062 0.158-0.35 0.158-0.399 0-0.689-0.012-0.938-0.016s-0.45-0.016-0.677-0.016c-0.062 0-0.183 0-0.317 0s-0.271 0.012-0.383 0.012c-0.072 0-0.111-0.016-0.111-0.058s0.023-0.047 0.088-0.047c0.003 0 0.006 0 0.009 0 0.070 0 0.138-0.008 0.202-0.024l-0.006 0.001c0.111-0.023 0.138-0.152 0.16-0.321 0.027-0.245 0.027-0.705 0.027-1.234v-1.028c0-0.886 0-1.049-0.010-1.234s-0.056-0.292-0.239-0.333c-0.057-0.015-0.123-0.024-0.191-0.025h-0c-0.062 0-0.095-0.012-0.095-0.053s0.039-0.051 0.121-0.051c0.261 0 0.617 0.016 0.761 0.016s0.539-0.016 0.755-0.016c0.078 0 0.117 0.012 0.117 0.051s-0.033 0.053-0.101 0.053c-0 0-0.001 0-0.001 0-0.076 0-0.15 0.006-0.223 0.017l0.008-0.001c-0.15 0.029-0.193 0.128-0.206 0.333s-0.010 0.35-0.010 1.234z"></path>
			<path fill="#231f20" style="fill: #231f20" d="M71.453 18.040c0-0.886 0-1.049-0.010-1.234s-0.056-0.292-0.239-0.333c-0.057-0.011-0.123-0.017-0.19-0.017-0.009 0-0.018 0-0.027 0l0.001-0c-0.062 0-0.095-0.012-0.095-0.053s0.039-0.051 0.121-0.051h0.45c0.144 0 0.271 0.012 0.35 0.012 0.177 0 1.283 0 1.388 0 0.091-0.008 0.173-0.021 0.252-0.037l-0.014 0.002c0.025-0.009 0.055-0.017 0.085-0.022l0.003-0c0.027 0 0.033 0.023 0.033 0.053s-0.029 0.111-0.045 0.378c0 0.058-0.016 0.315-0.027 0.385 0 0.029-0.016 0.064-0.056 0.064s-0.049-0.029-0.049-0.082c0-0 0-0 0-0 0-0.073-0.012-0.144-0.034-0.21l0.001 0.005c-0.039-0.105-0.095-0.175-0.372-0.206-0.095-0.012-0.677-0.023-0.788-0.023-0.027 0-0.039 0.018-0.039 0.058v1.475c0 0.041 0 0.064 0.039 0.064 0.121 0 0.761 0 0.888-0.012s0.216-0.029 0.267-0.088 0.062-0.076 0.088-0.076 0.039 0.012 0.039 0.047-0.023 0.128-0.045 0.426c0 0.117-0.023 0.35-0.023 0.391s0 0.111-0.049 0.111-0.049-0.023-0.049-0.053c-0.004-0.076-0.012-0.146-0.024-0.215l0.001 0.010c-0.027-0.117-0.105-0.206-0.311-0.228-0.105-0.012-0.656-0.016-0.788-0.016-0.029 0-0.033 0.023-0.033 0.058v0.461c0 0.206 0 0.734 0 0.903 0.010 0.411 0.101 0.489 0.666 0.489 0.026 0.002 0.056 0.003 0.086 0.003 0.156 0 0.306-0.027 0.446-0.076l-0.009 0.003c0.144-0.070 0.206-0.193 0.249-0.432 0.010-0.064 0.023-0.088 0.062-0.088s0.045 0.047 0.045 0.105c-0.010 0.237-0.036 0.46-0.077 0.677l0.005-0.030c-0.039 0.152-0.088 0.152-0.3 0.152-0.411 0-0.722-0.012-0.96-0.016s-0.411-0.016-0.578-0.016c-0.062 0-0.183 0-0.317 0s-0.271 0.012-0.383 0.012c-0.072 0-0.111-0.016-0.111-0.058s0.023-0.047 0.088-0.047c0.003 0 0.006 0 0.009 0 0.070 0 0.138-0.008 0.202-0.024l-0.006 0.001c0.111-0.023 0.138-0.152 0.16-0.321 0.027-0.245 0.027-0.705 0.027-1.234z"></path>
			<path fill="#231f20" style="fill: #231f20" d="M78.332 20.36c0 0.158 0 0.169-0.072 0.206-0.363 0.167-0.788 0.265-1.236 0.265-0.036 0-0.072-0.001-0.108-0.002l0.005 0c-1.359 0-2.565-0.677-2.565-2.285-0.001-0.024-0.001-0.052-0.001-0.080 0-0.756 0.38-1.424 0.96-1.821l0.008-0.005c0.385-0.24 0.853-0.382 1.353-0.382 0.049 0 0.098 0.001 0.146 0.004l-0.007-0c0.352 0.006 0.691 0.039 1.022 0.098l-0.039-0.006c0.123 0.028 0.273 0.050 0.425 0.063l0.013 0.001c0.066 0 0.078 0.029 0.078 0.070-0.026 0.244-0.040 0.528-0.040 0.815 0 0.050 0 0.099 0.001 0.148l-0-0.007c0 0.093-0.016 0.123-0.062 0.123s-0.049-0.029-0.056-0.076c-0.011-0.185-0.081-0.352-0.19-0.485l0.001 0.001c-0.307-0.282-0.718-0.456-1.169-0.456-0.023 0-0.046 0-0.068 0.001l0.003-0c-0.030-0.002-0.065-0.003-0.1-0.003-0.381 0-0.731 0.138-1 0.367l0.002-0.002c-0.311 0.274-0.51 0.712-0.51 1.429 0 1.255 0.761 2.192 1.931 2.192 0.024 0.002 0.053 0.003 0.081 0.003 0.14 0 0.274-0.024 0.398-0.069l-0.008 0.003c0.064-0.036 0.106-0.103 0.106-0.18 0-0.009-0.001-0.018-0.002-0.027l0 0.001v-0.553c0-0.292 0-0.514 0-0.689s-0.056-0.292-0.239-0.333c-0.057-0.011-0.123-0.017-0.19-0.017-0.009 0-0.018 0-0.027 0l0.001-0c-0.049 0-0.084-0.012-0.084-0.047s0.039-0.058 0.117-0.058c0.288 0 0.638 0.016 0.804 0.016s0.467-0.016 0.65-0.016c0.072 0 0.111 0.012 0.111 0.058s-0.033 0.047-0.072 0.047c-0.054 0.001-0.105 0.007-0.156 0.017l0.005-0.001c-0.15 0.029-0.206 0.128-0.206 0.333s0 0.411 0 0.699z"></path>
			<path fill="#231f20" style="fill: #231f20" d="M79.603 18.040c0-0.886 0-1.049-0.010-1.234s-0.056-0.292-0.239-0.333c-0.057-0.011-0.123-0.017-0.19-0.017-0.009 0-0.018 0-0.027 0l0.001-0c-0.062 0-0.095-0.012-0.095-0.053s0.039-0.051 0.121-0.051h0.45c0.144 0 0.271 0.012 0.35 0.012 0.177 0 1.283 0 1.388 0 0.091-0.008 0.173-0.021 0.252-0.037l-0.014 0.002c0.025-0.009 0.055-0.017 0.085-0.022l0.003-0c0.027 0 0.033 0.023 0.033 0.053s-0.027 0.111-0.045 0.378c0 0.058-0.016 0.315-0.027 0.385 0 0.029-0.016 0.064-0.056 0.064s-0.049-0.029-0.049-0.082c0-0 0-0 0-0 0-0.073-0.012-0.144-0.034-0.21l0.001 0.005c-0.039-0.105-0.095-0.175-0.372-0.206-0.095-0.012-0.677-0.023-0.788-0.023-0.027 0-0.039 0.018-0.039 0.058v1.475c0 0.041 0 0.064 0.039 0.064 0.121 0 0.761 0 0.888-0.012s0.216-0.029 0.267-0.088 0.062-0.076 0.088-0.076 0.039 0.012 0.039 0.047-0.023 0.128-0.045 0.426c0 0.117-0.023 0.35-0.023 0.391s0 0.111-0.049 0.111-0.049-0.023-0.049-0.053c-0.004-0.076-0.012-0.146-0.024-0.215l0.001 0.010c-0.027-0.117-0.105-0.206-0.311-0.228-0.105-0.012-0.656-0.016-0.788-0.016-0.029 0-0.033 0.023-0.033 0.058v0.461c0 0.206 0 0.734 0 0.903 0.010 0.411 0.101 0.489 0.666 0.489 0.026 0.002 0.056 0.003 0.086 0.003 0.156 0 0.306-0.027 0.446-0.076l-0.009 0.003c0.144-0.070 0.206-0.193 0.249-0.432 0.010-0.064 0.023-0.088 0.062-0.088s0.045 0.047 0.045 0.105c-0.010 0.237-0.036 0.46-0.077 0.677l0.005-0.030c-0.039 0.152-0.088 0.152-0.3 0.152-0.411 0-0.722-0.012-0.96-0.016s-0.411-0.016-0.578-0.016c-0.062 0-0.183 0-0.317 0s-0.271 0.012-0.383 0.012c-0.072 0-0.111-0.016-0.111-0.058s0.023-0.047 0.088-0.047c0.003 0 0.006 0 0.009 0 0.070 0 0.138-0.008 0.202-0.024l-0.006 0.001c0.111-0.023 0.138-0.152 0.16-0.321 0.027-0.245 0.027-0.705 0.027-1.234z"></path>
			<path fill="#231f20" style="fill: #231f20" d="M72.070 26.083c0 0.311 0.023 0.35 0.206 0.366l0.16 0.012c0.035 0.023 0.031 0.125 0 0.136-0.14 0-0.372-0.012-0.617-0.012s-0.489 0-0.629 0.012c-0.039-0.012-0.043-0.113 0-0.136l0.158-0.012c0.191-0.016 0.206-0.053 0.206-0.366v-1.271c0-0.257-0.016-0.315-0.187-0.337l-0.179-0.023c-0.016-0.018-0.025-0.042-0.025-0.068s0.009-0.050 0.025-0.068l-0 0c0.197-0.031 0.365-0.069 0.529-0.117l-0.031 0.008c0.171-0.051 0.319-0.125 0.346-0.125s0.048 0.018 0.053 0.043l0 0c0 0.090-0.012 0.267-0.012 0.463z"></path>
			<path fill="#231f20" style="fill: #231f20" d="M74.608 25.090c-0.002 0.47-0.209 0.892-0.535 1.181l-0.002 0.001c-0.312 0.286-0.712 0.481-1.155 0.54l-0.011 0.001c-0.024-0.015-0.040-0.041-0.040-0.070 0-0.022 0.009-0.042 0.023-0.057l-0 0c0.668-0.171 1.154-0.768 1.154-1.478 0-0.027-0.001-0.054-0.002-0.080l0 0.004c0-0.296-0.086-0.86-0.411-0.86-0.183 0-0.288 0.222-0.288 0.454 0 0.319 0.127 0.654 0.393 0.699 0.016 0.002 0.035 0.003 0.055 0.003s0.038-0.001 0.057-0.003l-0.002 0c0.015 0.016 0.025 0.038 0.025 0.062 0 0.007-0.001 0.014-0.002 0.021l0-0.001c-0.097 0.076-0.222 0.122-0.357 0.122-0.010 0-0.020-0-0.029-0.001l0.001 0c-0.366-0.006-0.661-0.304-0.661-0.67 0-0.008 0-0.016 0-0.024l-0 0.001c-0-0.004-0-0.010-0-0.015 0-0.462 0.375-0.837 0.837-0.837 0.009 0 0.019 0 0.028 0l-0.001-0c0.594 0.012 0.923 0.471 0.923 1.006z"></path>
			<path fill="#231f20" style="fill: #231f20" d="M76.835 25.368c0 0.617-0.267 1.271-0.899 1.271s-0.899-0.646-0.899-1.271 0.267-1.271 0.899-1.271 0.899 0.668 0.899 1.271zM75.936 26.46c0.296 0 0.331-0.747 0.331-1.092s-0.035-1.092-0.331-1.092-0.331 0.747-0.331 1.092 0.037 1.094 0.331 1.094z"></path>
			<path fill="#231f20" style="fill: #231f20" d="M78.133 26.083c0 0.311 0.023 0.35 0.206 0.366l0.16 0.012c0.035 0.023 0.031 0.125 0 0.136-0.14 0-0.372-0.012-0.617-0.012s-0.489 0-0.629 0.012c-0.039-0.012-0.043-0.113 0-0.136l0.158-0.012c0.191-0.016 0.206-0.053 0.206-0.366v-1.271c0-0.257-0.016-0.315-0.187-0.337l-0.179-0.023c-0.016-0.018-0.025-0.042-0.025-0.068s0.009-0.050 0.025-0.068l-0 0c0.197-0.031 0.365-0.069 0.529-0.117l-0.031 0.008c0.171-0.051 0.319-0.125 0.346-0.125s0.048 0.018 0.053 0.043l0 0c0 0.090-0.012 0.267-0.012 0.463z"></path>
		</svg>