<svg id="Layer_1" data-name="Layer 1" xmlns="http://www.w3.org/2000/svg" viewBox="0 0 201.47 134.69"><defs><style>.cls-1{fill:#182957;}.cls-2{fill:#1d2956;}.cls-3{fill:#ed7624;}</style></defs><path class="cls-1" d="M68.21,134.19a8.91,8.91,0,0,1,1.9-6.08,6.68,6.68,0,0,1,5.3-2.18,6.76,6.76,0,0,1,5.37,2.14,8.73,8.73,0,0,1,1.88,6,11,11,0,0,1-.82,4.58,6.44,6.44,0,0,1-2.38,2.79,7.08,7.08,0,0,1-3.88,1,8,8,0,0,1-3.9-.86,6.29,6.29,0,0,1-2.51-2.72,10.08,10.08,0,0,1-1-4.65m4.31,0a5.86,5.86,0,0,0,.79,3.47,2.72,2.72,0,0,0,4.28,0,6.56,6.56,0,0,0,.76-3.71,5.44,5.44,0,0,0-.79-3.29,2.58,2.58,0,0,0-2.16-1,2.49,2.49,0,0,0-2.09,1.06,5.89,5.89,0,0,0-.79,3.49" transform="translate(-5.69 -7.73)"/><polygon class="cls-1" points="79.33 118.47 83.35 118.47 88.6 127.29 88.6 118.47 92.67 118.47 92.67 134.42 88.6 134.42 83.38 125.66 83.38 134.42 79.33 134.42 79.33 118.47"/><path class="cls-1" d="M117,135.62l3.77,1.31a8.36,8.36,0,0,1-1.2,3,5.25,5.25,0,0,1-2,1.84,6.82,6.82,0,0,1-3.09.62,8,8,0,0,1-3.71-.75,6.34,6.34,0,0,1-2.49-2.66,10,10,0,0,1-1.05-4.87,9,9,0,0,1,1.85-6.08,7.52,7.52,0,0,1,9.35-.91,7.28,7.28,0,0,1,2.24,3.74l-3.81,1a4.19,4.19,0,0,0-.41-1.07,2.83,2.83,0,0,0-.89-.87,2.32,2.32,0,0,0-1.17-.3,2.46,2.46,0,0,0-2.25,1.35,6.39,6.39,0,0,0-.59,3.13,6.66,6.66,0,0,0,.71,3.64,2.31,2.31,0,0,0,2,1,2.25,2.25,0,0,0,1.87-.79,5.28,5.28,0,0,0,.92-2.31" transform="translate(-5.69 -7.73)"/><path class="cls-1" d="M122.33,134.19a8.92,8.92,0,0,1,1.91-6.08,6.65,6.65,0,0,1,5.3-2.18,6.74,6.74,0,0,1,5.36,2.14,8.73,8.73,0,0,1,1.89,6,11,11,0,0,1-.83,4.58,6.44,6.44,0,0,1-2.38,2.79,7,7,0,0,1-3.87,1,8,8,0,0,1-3.91-.86,6.35,6.35,0,0,1-2.51-2.72,10.08,10.08,0,0,1-1-4.65m4.31,0a5.94,5.94,0,0,0,.79,3.47,2.73,2.73,0,0,0,4.29,0,6.64,6.64,0,0,0,.76-3.71,5.43,5.43,0,0,0-.8-3.29,2.58,2.58,0,0,0-2.15-1,2.49,2.49,0,0,0-2.1,1.06,6,6,0,0,0-.79,3.49" transform="translate(-5.69 -7.73)"/><polygon class="cls-1" points="133.42 118.47 137.73 118.47 137.73 130.49 144.46 130.49 144.46 134.42 133.42 134.42 133.42 118.47"/><polygon class="cls-1" points="146.42 118.47 150.73 118.47 150.73 130.49 157.46 130.49 157.46 134.42 146.42 134.42 146.42 118.47"/><polygon class="cls-1" points="159.41 118.47 170.96 118.47 170.96 121.88 163.73 121.88 163.73 124.41 170.43 124.41 170.43 127.66 163.73 127.66 163.73 130.81 171.17 130.81 171.17 134.42 159.41 134.42 159.41 118.47"/><path class="cls-1" d="M186.19,136.37v-3.31h6.66v6.79a12.9,12.9,0,0,1-3.38,2,10.12,10.12,0,0,1-3.49.54,7.59,7.59,0,0,1-4-1,6.33,6.33,0,0,1-2.43-2.88,10.68,10.68,0,0,1-.86-4.39,10.27,10.27,0,0,1,1-4.55,6.48,6.48,0,0,1,2.76-2.93,8,8,0,0,1,3.81-.77,9.44,9.44,0,0,1,3.46.48,4.52,4.52,0,0,1,1.9,1.48,6.87,6.87,0,0,1,1.14,2.56l-4.16.84a2.58,2.58,0,0,0-.87-1.38,2.46,2.46,0,0,0-1.56-.48,2.68,2.68,0,0,0-2.26,1.13,6,6,0,0,0-.85,3.56,6.16,6.16,0,0,0,.86,3.7,2.8,2.8,0,0,0,2.37,1.11,4,4,0,0,0,1.38-.24,6.72,6.72,0,0,0,1.5-.82v-1.5Z" transform="translate(-5.69 -7.73)"/><polygon class="cls-1" points="189.71 118.47 201.26 118.47 201.26 121.88 194.03 121.88 194.03 124.41 200.74 124.41 200.74 127.66 194.03 127.66 194.03 130.81 201.47 130.81 201.47 134.42 189.71 134.42 189.71 118.47"/><path class="cls-2" d="M78.71,66.46c-.57.9-1.12,1.8-1.63,2.72h2.59l.72-5.38c-.55.87-1.12,1.76-1.68,2.66" transform="translate(-5.69 -7.73)"/><polygon class="cls-3" points="93.02 63.96 98.76 19.86 107.59 19.86 109.47 5.15 84.25 5.15 62.07 40.87 49.1 5.15 22.72 5.15 20.84 19.86 29.67 19.86 23.93 63.96 15.1 63.96 13.23 78.68 48.16 78.68 50.03 63.96 41.48 63.96 44.18 42.96 57.43 79.1 79.33 42.96 76.63 63.96 67.92 63.96 66.04 78.68 99.97 78.68 101.85 63.96 93.02 63.96"/><path class="cls-2" d="M190.7,65.29l2.78-19L174,30.73l-36.34.73-24,16.44-2.69,18.65H105.5l4.41-33.81h8.83l3.2-25H86.51c-1.28,2.08-2.63,4.23-4,6.46s-2.82,4.52-4.25,6.86-2.89,4.67-4.36,7S71,32.74,69.52,35L59.64,7.73H22.94l-3.2,25h8.78L24.1,66.55H15.33l-3.2,25h46l3.2,9c.74-1.28,1.57-2.68,2.51-4.19s1.94-3.11,3-4.79h40.46l-2.17,15.06,19.55,15.57,36.34-.73L185,105l2.71-19L151,86.77l-1.12,7.9-6.44.13,5.3-36.55,6.44-.13L154,66ZM68.36,88.93l.83-6.7c-1.22,2-2.41,4-3.59,5.89s-2.28,3.7-3.31,5.42L57.6,80.73l-1.05,8.2h-41l2.54-19.75h8.83L32,30.11H23.16L25.7,10.36H57.16L68.63,42q4.86-7.85,9.91-16t9.74-15.71h30.19l-2.54,19.75H107.1L102,69.18h8.54l-2.85,19.75Zm76.91-33.46-6.09,42.26,14.26-.29,1.13-7.9,29-.58-2.12,15-21.5,14.71-33.27.67-17.33-13.94L117.38,49,138.8,34.28l33.28-.67,17.4,13.93-2.11,15-29,.58,1.12-7.9Z" transform="translate(-5.69 -7.73)"/><polygon class="cls-3" points="156.7 52.57 178.35 52.13 180.01 40.98 164.46 28.63 134.26 29.23 115.22 42.28 107.41 96.47 122.88 108.82 153.08 108.22 172.2 95.17 173.78 84.02 152.14 84.45 151.01 92.36 129.44 92.8 136.32 45.09 157.9 44.66 156.7 52.57"/><polygon class="cls-1" points="0 118.47 5.67 118.47 7.85 128.17 10.03 118.47 15.69 118.47 15.69 134.42 12.16 134.42 12.16 122.26 9.44 134.42 6.25 134.42 3.53 122.26 3.53 134.42 0 134.42 0 118.47"/><path class="cls-1" d="M23.58,134.19a8.92,8.92,0,0,1,1.91-6.08,6.67,6.67,0,0,1,5.3-2.18,6.78,6.78,0,0,1,5.37,2.14,8.78,8.78,0,0,1,1.88,6,11.14,11.14,0,0,1-.82,4.58,6.51,6.51,0,0,1-2.38,2.79,7.1,7.1,0,0,1-3.88,1,8,8,0,0,1-3.91-.86,6.27,6.27,0,0,1-2.5-2.72,10.07,10.07,0,0,1-1-4.65m4.32,0a6,6,0,0,0,.78,3.47,2.73,2.73,0,0,0,4.29,0,6.64,6.64,0,0,0,.76-3.71,5.43,5.43,0,0,0-.8-3.29,2.56,2.56,0,0,0-2.15-1,2.46,2.46,0,0,0-2.09,1.06,5.89,5.89,0,0,0-.79,3.49" transform="translate(-5.69 -7.73)"/><path class="cls-1" d="M40.42,142.15v-16H47.6a9.31,9.31,0,0,1,3.06.39,3.33,3.33,0,0,1,1.7,1.46,4.84,4.84,0,0,1,.65,2.58,5,5,0,0,1-.5,2.29,4.19,4.19,0,0,1-1.36,1.56,5,5,0,0,1-1.51.63,4.18,4.18,0,0,1,1.12.59,4.57,4.57,0,0,1,.69.84,6.43,6.43,0,0,1,.6,1l2.09,4.62H49.27L47,137.28a3.59,3.59,0,0,0-.78-1.23,1.62,1.62,0,0,0-1-.37h-.38v6.47Zm4.33-9.49h1.81a6,6,0,0,0,1.15-.21,1.2,1.2,0,0,0,.7-.5,1.64,1.64,0,0,0,.27-.93,1.58,1.58,0,0,0-.43-1.18,2.32,2.32,0,0,0-1.61-.42H44.75Z" transform="translate(-5.69 -7.73)"/><polygon class="cls-1" points="48.85 118.47 61.95 118.47 61.95 122.41 57.56 122.41 57.56 134.42 53.25 134.42 53.25 122.41 48.85 122.41 48.85 118.47"/></svg>