<svg id="Layer_1" data-name="Layer 1" xmlns="http://www.w3.org/2000/svg" viewBox="0 0 277.75 44.49"><defs><style>.cls-1{fill:#235b40;}.cls-2{fill:#6fa088;}</style></defs><polygon class="cls-1" points="22.88 0 0 0 0 40.28 22.88 0"/><polygon class="cls-1" points="22.88 16.22 22.88 40.28 9.41 40.28 22.88 16.22"/><polygon class="cls-1" points="29.82 0 29.82 24.19 43.15 0 29.82 0"/><polygon class="cls-2" points="50.08 40.28 72.97 40.28 72.97 0 50.08 40.28"/><polygon class="cls-2" points="50.08 24.06 50.08 0 63.55 0 50.08 24.06"/><polygon class="cls-1" points="43.15 40.28 43.15 16.09 29.82 40.28 43.15 40.28"/><path class="cls-1" d="M101.82,32a7.18,7.18,0,0,0-2.7-2.95,8.07,8.07,0,1,0-4.36,14.8,8.2,8.2,0,0,0,7.12-4.35h-1.73a6.8,6.8,0,0,1-5.39,2.85,6.56,6.56,0,1,1-.11-13.11A6.58,6.58,0,0,1,100.09,32Zm7.38-.21a6,6,0,1,0,6,5.94,6.05,6.05,0,0,0-6-5.94m0,1.5a4.53,4.53,0,0,1,3.07,1.26,4.16,4.16,0,0,1,1.35,3.18,4.46,4.46,0,1,1-4.42-4.44m7.67,10.28h1.55V37a4.07,4.07,0,0,1,.55-2.46,3.14,3.14,0,0,1,2.53-1.22,3.19,3.19,0,0,1,2.59,1.39,3.66,3.66,0,0,1,.55,2.29v6.6h1.56V37.18a4.39,4.39,0,0,1,.49-2.55,3.19,3.19,0,0,1,2.55-1.3,3.1,3.1,0,0,1,2.61,1.37,4.2,4.2,0,0,1,.57,2.48v6.43H134V37a4.54,4.54,0,0,0-1.07-3.46,5.13,5.13,0,0,0-3.59-1.75,4.59,4.59,0,0,0-3.64,1.75c-.09.17-.17.29-.24.44l-.29-.44a4.71,4.71,0,0,0-3.73-1.75,3.25,3.25,0,0,0-3.08,1.75v-1.5h-1.47Zm19.24,0h1.56V37a4,4,0,0,1,.55-2.46,3.14,3.14,0,0,1,2.53-1.22,3.19,3.19,0,0,1,2.59,1.39,3.66,3.66,0,0,1,.55,2.29v6.6h1.56V37.18a4.47,4.47,0,0,1,.48-2.55,3.19,3.19,0,0,1,2.55-1.3,3.11,3.11,0,0,1,2.62,1.37,4.28,4.28,0,0,1,.57,2.48v6.43h1.56V37a4.51,4.51,0,0,0-1.08-3.46,5.13,5.13,0,0,0-3.58-1.75,4.61,4.61,0,0,0-3.65,1.75c-.08.17-.17.29-.23.44l-.29-.44a4.73,4.73,0,0,0-3.74-1.75,3.25,3.25,0,0,0-3.07,1.75v-1.5h-1.48Zm29.27-11.53h-1.55v6.09a4.65,4.65,0,0,1-.7,2.81,3.5,3.5,0,0,1-2.82,1.41,3.37,3.37,0,0,1-3-1.66,4.91,4.91,0,0,1-.5-2.56V32.08h-1.56v6.09c0,1.52.12,2.91.82,3.65a5,5,0,0,0,4,2.07,4,4,0,0,0,3.81-2.07v1.79h1.47Zm2,11.53H169V37.54a4.61,4.61,0,0,1,.61-2.8,3.52,3.52,0,0,1,2.82-1.41,3.57,3.57,0,0,1,3,1.47,4.44,4.44,0,0,1,.68,2.74v6.07h1.56V37.54a5.62,5.62,0,0,0-1.06-3.79,5.3,5.3,0,0,0-4.09-1.92,4.21,4.21,0,0,0-3.58,1.92V32.08h-1.47Zm12.33,0h1.55V32.08h-1.55Zm0-12.92h1.55V28h-1.55Zm6.06,12.92h1.56V33.49H190V32.08h-2.68V28h-1.56v4h-2.4v1.41h2.4Zm14.45-11.53-3.9,9.19-3.69-9.19H191l4.43,11.17-1.82,4.41h1.65l6.66-15.58Zm25,0a7,7,0,0,0-2.7-2.95,8.07,8.07,0,1,0-4.36,14.8,8.21,8.21,0,0,0,7.13-4.35H223.6a6.81,6.81,0,0,1-5.4,2.85,6.56,6.56,0,1,1-.1-13.11A6.56,6.56,0,0,1,223.53,32Zm7.38-.21a6,6,0,1,0,6,5.94,6.06,6.06,0,0,0-6-5.94m0,1.5a4.54,4.54,0,0,1,3.08,1.26,4.16,4.16,0,0,1,1.35,3.18,4.46,4.46,0,1,1-4.43-4.44m7.41,10.28h1.56V28h-1.56Zm3.69,0h1.56V28h-1.56Zm26.57-11.53h-1.5v2.24a5.11,5.11,0,0,0-4.6-2.49,5.78,5.78,0,0,0-4.78,2.49,6.13,6.13,0,0,0-1.1,3.56,5.74,5.74,0,0,0,1.82,4.32,6.21,6.21,0,0,0,4.15,1.69,4.82,4.82,0,0,0,4.51-2.55V42a4.8,4.8,0,0,1-.51,2.66,4.31,4.31,0,0,1-3.77,2,4.63,4.63,0,0,1-4.26-2.74h-1.51a5.85,5.85,0,0,0,5.65,4.23A6.33,6.33,0,0,0,269,46.25c1.28-1.39,1.35-2.49,1.35-4.28Zm-6.14,1.25a4.5,4.5,0,0,1,4.62,4.53,4.94,4.94,0,0,1-1.31,3.22,4.17,4.17,0,0,1-3.16,1.31,4.45,4.45,0,0,1-4.43-4.66,4.36,4.36,0,0,1,4.28-4.4" transform="translate(-4.92 -3.63)"/><path class="cls-1" d="M257.63,34a6.6,6.6,0,0,0-4-2.11,6,6,0,0,0-4.84,10.21c2.38,2.38,4.84,2.16,7.29.94V41.29c-2.08,1.44-4.19,1.58-5.8.09Zm-8.38,6.38a4.51,4.51,0,0,1,.57-5.75,4.6,4.6,0,0,1,5.71-.52Z" transform="translate(-4.92 -3.63)"/><path class="cls-1" d="M282.67,33.94a6.57,6.57,0,0,0-4-2.12A6,6,0,0,0,273.8,42c2.38,2.39,4.85,2.17,7.3.94V41.36a4.55,4.55,0,0,1-5.81,0Zm-8.38,6.38a4.52,4.52,0,0,1,.57-5.75,4.59,4.59,0,0,1,5.71-.53Z" transform="translate(-4.92 -3.63)"/><path class="cls-1" d="M172.11,18.88a4,4,0,0,1-2.56-1l7.65-7.65-.27-.26a7.14,7.14,0,0,0-4.39-2.29,5.48,5.48,0,0,0-.7,0,6.57,6.57,0,0,0-6.59,6.57,6.61,6.61,0,0,0,2,4.69,6.68,6.68,0,0,0,4.76,2h0a5.79,5.79,0,0,0,3.39-1l.14-.11,0-1.57v-.68l-.57.37a5.33,5.33,0,0,1-2.87,1m1.8-8.44L168,16.3a4.24,4.24,0,0,1-.51-2,4.41,4.41,0,0,1,1.29-3.11,4.28,4.28,0,0,1,3.05-1.23,4.42,4.42,0,0,1,2,.5" transform="translate(-4.92 -3.63)"/><polygon class="cls-1" points="93.93 0.53 82.32 17.22 85.21 17.22 93.41 5.57 93.41 17.22 95.72 17.22 103.52 6.1 103.52 17.22 105.94 17.22 105.94 0.53 104.03 0.53 95.83 12.7 95.83 0.53 93.93 0.53"/><polygon class="cls-1" points="185.85 17.32 197.46 0.63 194.57 0.63 185.84 12.8 185.84 0.63 183.46 0.63 183.43 17.32 185.85 17.32"/><path class="cls-1" d="M119,7.9a6.63,6.63,0,1,0,6.58,6.54A6.67,6.67,0,0,0,119,7.9m4.24,6.54a4.27,4.27,0,1,1-8.54.15,4.27,4.27,0,0,1,7.25-3.19,4,4,0,0,1,1.29,3" transform="translate(-4.92 -3.63)"/><path class="cls-1" d="M132.45,7.9a4.45,4.45,0,0,0-3.11,1.18V8.16h-2.26V20.87h2.35V13.81c0-1.37.07-1.94,1.09-2.84a3,3,0,0,1,2-.74l.34,0V7.89Z" transform="translate(-4.92 -3.63)"/><path class="cls-1" d="M146.2,8.16h-1.92v1.5A5.85,5.85,0,0,0,140,7.9a7.16,7.16,0,0,0-5.43,2.65,6.35,6.35,0,0,0-1.34,3.89,6.61,6.61,0,0,0,1.27,4A7.37,7.37,0,0,0,140,21.15h0a5.76,5.76,0,0,0,4.26-1.77v1.49h2.29V8.16Zm-1.92,6.43A4.38,4.38,0,0,1,140,18.87a4.43,4.43,0,0,1-4.48-4.3A4.41,4.41,0,0,1,140,10.18a4.3,4.3,0,0,1,4.32,4.41" transform="translate(-4.92 -3.63)"/><polygon class="cls-1" points="144.02 4.53 143.65 4.53 143.65 17.24 144.02 17.24 145.64 17.24 146 17.24 146 4.53 144.02 4.53"/><polygon class="cls-1" points="145.64 2.77 146 2.77 146 0.69 146 0.33 144.02 0.33 143.66 0.33 143.66 2.41 143.66 2.77 144.02 2.77 145.64 2.77"/><path class="cls-1" d="M163.08,10a5.86,5.86,0,0,0-4.53-2.13,4.56,4.56,0,0,0-3.36,1.37V8.16h-2.26V20.87h2.35V14.2a4.4,4.4,0,0,1,.56-2.7,3.35,3.35,0,0,1,2.64-1.32,3.39,3.39,0,0,1,2.8,1.38,4.3,4.3,0,0,1,.63,2.64v6.67h2.34V14.2A6.22,6.22,0,0,0,163.08,10" transform="translate(-4.92 -3.63)"/><path class="cls-1" d="M211.63,8.16h-1.92v1.5a5.87,5.87,0,0,0-4.33-1.76A7.16,7.16,0,0,0,200,10.55a6.4,6.4,0,0,0-1.35,3.89,6.67,6.67,0,0,0,1.28,4,7.37,7.37,0,0,0,5.55,2.66h0a5.77,5.77,0,0,0,4.27-1.77v1.49H212V8.16Zm-1.92,6.43a4.39,4.39,0,0,1-4.28,4.28,4.44,4.44,0,0,1-4.48-4.3,4.42,4.42,0,0,1,4.43-4.39,4.31,4.31,0,0,1,4.33,4.41" transform="translate(-4.92 -3.63)"/><polygon class="cls-1" points="209.44 0.33 209.08 0.33 209.08 17.24 209.44 17.24 211.06 17.24 211.43 17.24 211.43 0.33 209.44 0.33"/><polygon class="cls-1" points="213.8 0.33 213.43 0.33 213.43 17.24 213.8 17.24 215.42 17.24 215.78 17.24 215.78 0.33 213.8 0.33"/><path class="cls-1" d="M229,19.08a4.15,4.15,0,0,1-2.59-.91l7.64-7.66-.27-.25A7.12,7.12,0,0,0,229.42,8q-.34,0-.69,0a6.56,6.56,0,0,0-6.59,6.57,6.65,6.65,0,0,0,2,4.69,6.73,6.73,0,0,0,4.77,2h0a5.82,5.82,0,0,0,3.39-1l.15-.11,0-1.64v-.72l-.58.42a4.85,4.85,0,0,1-2.82,1m1.77-8.38-5.87,5.87a4.14,4.14,0,0,1-.52-2,4.4,4.4,0,0,1,1.3-3.12,4.29,4.29,0,0,1,3-1.22,4.45,4.45,0,0,1,2.05.49" transform="translate(-4.92 -3.63)"/><polygon class="cls-1" points="229.47 4.55 231.95 4.55 235.55 13.46 239.35 4.53 241.86 4.53 234.66 21.43 232.16 21.43 234.2 16.48 229.47 4.55"/></svg>