<?xml version="1.0" encoding="utf-8"?>
<!-- Generator: Adobe Illustrator 21.1.0, SVG Export Plug-In . SVG Version: 6.00 Build 0)  -->
<svg version="1.1" id="Layer_1" xmlns="http://www.w3.org/2000/svg" xmlns:xlink="http://www.w3.org/1999/xlink" x="0px" y="0px"
	 viewBox="0 0 325 190.3" enable-background="new 0 0 325 190.3" xml:space="preserve">
<g>
	<path fill="#FDB913" d="M189.9,29.1c-1.4,4.4-2.4,9.3-6.7,12.3c-1.3-7.5-2.7-14.9-5.7-21.6c-3.7-7.5-7.2-16.8-16.4-19.8
		c1.5,14.9-11,24.3-18,36c-3.5,6.5-3.7,16.6,0.3,23.1c7,9.4,13.4,18.2,16.9,29V48.9h-13.9v-4.6h13.9V28.9h4.6v15.5h13.9v4.6h-13.9
		v39.5c1.6-2.6,6.9-11.5,10.7-17.3C184.9,56.4,197.4,44.9,189.9,29.1z"/>
	<path fill="#48206E" d="M148.7,189.5h-12.6v-0.6l0.1-0.4l0.3,0c0.7,0,0.8-0.1,0.8-0.8v-14c0-1.3,0-1.4-0.8-1.4h-0.4v-1h11.6v3.1
		h-0.8l-0.1-0.3c-0.4-1.5-0.4-1.5-1.4-1.5h-5.3v7h4.9c0.8,0,0.8-0.1,0.8-0.2l0-0.3h0.9v2.4h-0.9l-0.1-0.3c0-0.2-0.1-0.3-0.7-0.3
		h-5.1v5c0,2.2,0.4,2.2,2,2.2h3.1c2.1,0,2.4,0,2.6-1.5v0l0.1-0.3h0.9V189.5z M130.7,190.3l-0.3-0.4c0,0-11.3-12-13.5-14.3v11.8
		c0,1,0.1,1,0.9,1.1l0.3,0v0.9H114v-0.9l0.4,0c1,0,1-0.1,1-1.4v-11.7c0-0.7,0-2-0.7-2.6c-0.3-0.3-0.8-0.4-1.4-0.4l-0.4,0v-1h3.8
		l0.1,0.1l12.4,13.2v-11.3c0-1-0.3-1-0.9-1h-0.4v-0.9h4.1v0.9l-0.4,0c-0.7,0-1,0-1,1.2V190.3z M92.9,189.7c-1.5,0-2.7-0.6-3.7-1.8
		c-1.1-1.4-2.4-3.3-2.9-4l0-0.1l0-0.1l0,0c0,0-1.3-2-1.6-2.5h-0.4l-0.9,0h-1v6.2c0,1.1,0.2,1.1,0.9,1.1l0.4,0v0.9h-5.2v-0.9l0.4,0
		c0.8,0,0.9,0,0.9-1.3v-13.8c0-1.2-0.2-1.2-0.9-1.2l-0.4,0v-0.9h5.3c1.9,0,2.8,0,3.8,0.3c1.8,0.6,2.8,2,2.8,3.9
		c0,2.1-1.5,3.8-2.9,4.6c0.2,0.3,0.5,0.8,0.8,1.2c0.3,0.5,0.3,0.5,0.3,0.5c0.2,0.4,2.3,3.4,3.6,4.9c0.4,0.4,1.4,1.3,2.6,1.3
		c0.5,0,0.8-0.1,1-0.2l1.2-0.7l0.3,1l-0.2,0.2c-0.5,0.4-0.9,0.6-1.4,0.8C94.9,189.4,94,189.7,92.9,189.7z M82.3,180h1.4
		c0.6,0,1.8-0.2,2.3-0.4c0.4-0.2,1.6-1,1.6-2.8c0-1.2-0.5-2.3-1.2-3.1c-0.7-0.7-1.6-1-3-1h-1V180z M39.5,189.5h-4.8v-0.9h0.4
		c0,0,0.2,0,0.2-0.1c0-0.1-0.1-0.4-0.2-0.8l-0.1-0.2c0-0.1-2.1-5.1-2.4-6H28c-0.5,1.2-2.6,6.4-2.6,6.4c0,0-0.1,0.2-0.1,0.2l-0.1,0.4
		l0,0c0,0,0.1,0,0.2,0h0.4v0.9h-3.3v-0.9l0.4,0c0.7,0,0.9-0.4,1.3-1.3l6.4-16.1h0.8l0.1,0.2c6,14.8,6.2,15.4,6.2,15.4l0,0
		c0,0,0,0.1,0,0.1l0.1,0.3c0.3,0.7,0.6,1.4,1.4,1.4h0.4V189.5z M28.5,180.3H32c-0.2-0.4-0.5-1.3-0.9-2.2l-0.9-2.3
		C29.8,176.9,28.8,179.4,28.5,180.3z M19.8,173.6c0-1.2,0.3-1.2,1-1.2l0.4,0v-0.9h-4.1v0.9h0.4c0.6,0,0.9,0,0.9,1v11.3
		C16.3,182.4,6,171.5,6,171.5l-0.1-0.1H2.1v1l0.4,0c0.6,0,1,0.1,1.4,0.4c0.6,0.6,0.6,1.9,0.6,2.6v11.7c0,1.4,0,1.4-1,1.4l-0.4,0v0.9
		h4.1v-0.9l-0.3,0c-0.9-0.1-0.9-0.1-0.9-1.1v-11.8c2.2,2.3,13.5,14.3,13.5,14.3l0.3,0.4V173.6z M58.2,189.5H40.6l0.3-0.3
		c0,0,11.3-14,13.2-16.3h-8.2c-1.4,0-1.6,0.1-1.7,1.4l0,0.3h-0.9l0.1-3.1h15.4l-0.3,0.3c0,0-11.3,14-13.2,16.3h10.7
		c0.9,0,1.3,0,1.4-1.7l0-0.4h0.9V189.5z M76.5,189.5h-4.8v-0.9h0.4c0.1,0,0.2,0,0.2-0.1c0-0.1-0.1-0.4-0.2-0.8l-0.1-0.2
		c0,0-2.1-5.1-2.4-6H65c-0.5,1.2-2.6,6.4-2.6,6.4c0,0-0.1,0.2-0.1,0.2l-0.1,0.4c0,0,0.1,0,0.2,0h0.4v0.9h-3.3v-0.9l0.4,0
		c0.7,0,0.9-0.4,1.3-1.3l6.4-16.1h0.8l0.1,0.2c6,14.8,6.2,15.4,6.2,15.4c0,0,0,0,0,0s0,0.1,0,0.1l0.1,0.3c0.3,0.7,0.6,1.4,1.4,1.4
		h0.4V189.5z M65.4,180.3H69c-0.3-0.9-1.3-3.3-1.8-4.5c-0.3,0.6-0.7,1.7-1.1,2.7C65.9,179.2,65.6,179.9,65.4,180.3z M110.2,189.5
		H97.6v-0.6l0.1-0.4l0.3,0c0.6,0,0.8-0.1,0.8-0.8v-14c0-1.3,0-1.4-0.8-1.4h-0.4v-1h11.6v3.1h-0.8l-0.1-0.3c-0.4-1.5-0.4-1.5-1.4-1.5
		h-5.3v7h4.9c0.8,0,0.8-0.1,0.8-0.2l0-0.3h0.9v2.4h-0.9l-0.1-0.3c-0.1-0.2-0.1-0.3-0.7-0.3h-5.1v5c0,2.2,0.4,2.2,2,2.2h3.1
		c2.1,0,2.4,0,2.6-1.5l0-0.2l0-0.2h0.9V189.5z M169.5,189.6c-2.9,0-6-1.5-6-5.8v-10.4c0-0.4,0-0.8-0.1-0.9c-0.1-0.1-0.6-0.1-0.8-0.1
		l-0.4,0v-0.9h5.4v0.9h-0.4c-0.7,0-0.9,0-0.9,0.9v9.5c0,0.7,0,1.8,0.4,2.6c1,2.4,3.2,2.6,3.8,2.6c2.6,0,4-1.6,4.6-2.3v-11.6
		c0-1.7-0.2-1.7-0.7-1.7h-0.6v-0.9h5.3v0.5l-0.1,0.4l-0.3,0c-0.7,0-0.9,0-0.9,0.8v14.1c0,0.6,0,1,0.2,1.1c0.1,0.1,0.2,0.2,0.6,0.2
		c0,0,0,0,0.1,0l0.4,0v0.9h-4v-2.1C172.7,189.6,170.3,189.6,169.5,189.6z M200.4,190.3l-0.3-0.4c0,0-11.3-12-13.5-14.3v11.8
		c0,1,0,1,0.9,1.1l0.3,0v0.9h-4.1v-0.9l0.4,0c1,0,1-0.1,1-1.4v-11.7c0-0.7,0-2-0.7-2.6c-0.3-0.3-0.8-0.4-1.4-0.4l-0.4,0v-1h3.8
		l0.1,0.1c0,0,10.3,11,12.4,13.2v-11.3c0-1-0.3-1-0.9-1h-0.4v-0.9h4.1v0.9l-0.4,0c-0.7,0-1,0-1,1.2V190.3z M211.1,189.5h-5.4v-0.9
		l0.4,0c0.9,0,0.9,0,0.9-1.5v-13.2c0-0.7,0-1.2-0.2-1.4c-0.1-0.1-0.3-0.2-0.7-0.1l-0.4,0v-1h5.4v1l-0.4,0c-0.2,0-0.6,0-0.7,0.2
		c-0.1,0.1-0.1,0.2-0.1,0.4l0,0.9v13.3c0,0.7,0,1.2,0.2,1.3c0.1,0.1,0.4,0.1,0.8,0.1l0.4,0V189.5z M223.3,189.8h-0.7l-0.1-0.1
		l-6.2-15.4c-0.8-1.9-1.2-1.9-1.6-1.9h-0.4v-0.9h4.8v1l-0.4,0c0,0-0.1,0-0.1,0l0,0.1c0,0.1,0.1,0.4,0.2,0.6c0,0,3.9,9.7,4.9,12
		l3.2-8c1.1-2.7,1.4-3.6,1.6-3.9l0,0c0,0,0-0.1,0.1-0.2l0.1,0c0,0,0,0,0,0l-0.1-0.1l0-0.1l0.1-0.5c0,0-0.1,0-0.2,0l-0.4,0v-1h3.4
		v0.9H231c-0.6,0-0.8,0.3-1.1,0.9c0,0-0.1,0.1-0.1,0.2c0,0-6.5,16.2-6.5,16.2L223.3,189.8z M247.4,189.5h-12.6v-0.6l0.1-0.4l0.3,0
		c0.7,0,0.8-0.1,0.8-0.8v-14c0-1.3,0-1.4-0.8-1.4h-0.4v-1h11.6v3.1h-0.8l-0.1-0.3c-0.4-1.5-0.4-1.5-1.4-1.5h-5.3v7h4.9
		c0.8,0,0.8-0.1,0.8-0.2l0-0.3h0.9v2.4h-0.9l-0.1-0.3c0-0.2-0.1-0.3-0.7-0.3h-5.1v5c0,2.2,0.4,2.2,2,2.2h3.1c2.1,0,2.4,0,2.6-1.5
		l0-0.3h0.9V189.5z M265.6,189.7c-1.5,0-2.7-0.6-3.7-1.8c-1.4-1.6-2.9-4-3-4.1l-0.1-0.1l0,0c0,0-1.3-2-1.6-2.5h-0.4l-0.9,0h-1v6.2
		c0,1.1,0.2,1.1,0.9,1.1l0.4,0v0.9H251v-0.9l0.4,0c0.8,0,0.9,0,0.9-1.3v-13.8c0-1.2-0.2-1.2-0.9-1.2l-0.4,0v-0.9h5.3
		c1.9,0,2.8,0,3.8,0.3c1.8,0.6,2.8,2,2.8,3.9c0,2.1-1.5,3.8-2.9,4.6l0.7,1c0.4,0.7,0.4,0.7,0.5,0.7c0.2,0.4,2.3,3.4,3.6,4.9
		c0.4,0.4,1.4,1.3,2.6,1.3c0.5,0,0.8-0.1,1-0.2l1.2-0.7l0.3,1l-0.2,0.2c-0.5,0.4-0.9,0.6-1.4,0.8
		C267.6,189.4,266.7,189.7,265.6,189.7z M255,180h1.4c0.6,0,1.8-0.2,2.3-0.4l0,0c0.4-0.2,1.6-1,1.6-2.8c0-1.2-0.5-2.3-1.2-3.1
		c-0.7-0.7-1.6-1-3-1h-1V180z M275,189.5h-5v-5.8h0.9v0.4c0,2.6,0.7,4.1,4.4,4.1c4,0,4.1-2.9,4.1-3.2c0-2.1-2.1-2.8-4-3.5
		c-2.1-0.7-2.7-1-3.3-1.7c-1-1-1.5-2.2-1.5-3.6c0-2.5,1.9-5.1,5.4-5.1c1.3,0,2.2,0.2,2.9,0.4c0,0,0.1,0,0.1,0l0.4,0.1l1.1,2.8
		l-0.6,0.1l-0.2,0l0,0c0,0-0.2-0.2-0.2-0.3c-0.5-0.6-1.5-1.8-3.6-1.8c-2.4,0-3.5,1.6-3.5,3.1c0,1.9,1.6,2.5,3.4,3
		c0,0,0.2,0.1,0.3,0.1l0,0c1.7,0.5,5.3,1.7,5.3,5.5c0,2.5-1.5,4.1-2.9,4.8C277.5,189.3,275.4,189.5,275,189.5z M290.8,189.5h-5.4
		v-0.9l0.4,0c0.9,0,0.9,0,0.9-1.5v-13.2c0-0.7,0-1.2-0.2-1.4c-0.1-0.1-0.4-0.2-0.7-0.1l-0.4,0v-1h5.4v1l-0.4,0c-0.2,0-0.6,0-0.7,0.2
		c-0.1,0.1-0.1,0.2-0.1,0.4l0,0.9v13.3c0,0.7,0,1.2,0.2,1.3c0.1,0.1,0.3,0.1,0.8,0.1l0.4,0V189.5z M303.8,189.5h-5.5v-0.9l0.3,0
		c0.9-0.1,1-0.1,1-1.1v-14.7h-4c-0.2,0-0.6,0-0.7,0c0,0,0,0,0,0l0.2,0.9h-0.9l-1.1-2.9h1l0.1,0.2c0.1,0.3,0.2,0.3,0.2,0.3
		c0.1,0,0.4,0,0.7,0l11.6,0c0.7,0,0.8,0,0.9-0.4l0.1-0.2h1l-1.1,2.9h-0.4l-0.4-0.1l0.1-0.8l0-0.1c-0.1,0-0.3,0-0.4,0h-4.2v14.4
		c0,0.7,0,1.1,0.2,1.2c0.1,0.1,0.4,0.2,0.8,0.1l0.4,0V189.5z M319.8,189.5h-5.4v-1l0.4,0c0.2,0,0.5,0,0.7-0.1
		c0.1-0.1,0.2-0.3,0.2-0.6v-7.6c-0.5-0.7-4.2-6.9-4.2-6.9c-0.3-0.6-0.7-0.9-1.2-0.9l-0.4,0v-0.9h4.9v0.9h-0.4c-0.2,0-0.2,0-0.2,0
		c0,0,0,0.1,0.2,0.4l0.1,0.1l3.2,5.2l1.3-2c1-1.5,2.1-3.1,2.2-3.3l0.1-0.1c0.2-0.2,0.2-0.3,0.2-0.3c0,0-0.1,0-0.1,0h-0.5v-0.9h3.4
		v0.9l-0.4,0c-0.4,0-0.7,0.1-1.2,0.9c-0.2,0.2-3.8,5.7-4.2,6.3v7.8c0,1.2,0.1,1.2,1,1.2l0.4,0V189.5z M34.8,94.1
		c-24,0-34.8,20.6-34.8,35.3c0,16.4,12.7,28.8,29.5,28.8c24.1,0,35.1-18.7,35.1-36.1C64.6,105.9,52,94.1,34.8,94.1z M34.5,152.9
		c-14.6,0-27.9-14.8-27.9-31.1c0-13.5,11.6-22.5,22.5-22.5c12.1,0,29.6,11.7,29.6,30.1C58.8,142,47.4,152.9,34.5,152.9z
		 M117.5,157.3H74v-2.7h1c3.2,0,3.5-0.9,3.5-3.7v-49.3c0-3.9-0.8-3.9-3.6-4l-1,0V95h18.2v2.7l-1.1,0c-1.4,0-2.4,0.2-2.9,0.7
		c-0.6,0.6-0.6,2-0.6,3.7v42.3c0,6.7,2.6,8.8,10.5,8.8h7.4c7.6,0,9.1-3.7,9.5-11.5l0-1h2.6V157.3z M147.5,157.3h-18.1v-2.6l1,0
		c3.4-0.1,3.5-0.3,3.5-5.4v-45.8c0-2.6,0-4.4-0.8-5.2c-0.5-0.4-1.3-0.6-2.6-0.5l-1.1,0.1V95h18.1v2.8l-1.1-0.1
		c-0.4-0.1-2-0.1-2.8,0.7c-0.4,0.3-0.6,0.8-0.6,1.6l-0.1,3v46.2c0,2.5,0,4.2,0.7,4.9c0.4,0.4,1.4,0.6,2.9,0.6l1,0V157.3z
		 M187.6,158.2h-2.1l-0.1-0.2c-0.2-0.5-19.9-49.3-21.5-53.1h0l-0.1-0.2c-2.8-6.9-4.2-6.9-5.8-6.9h-1V95h16v2.7l-1.1-0.1
		c-0.3,0-0.5,0-0.6,0l-0.1,0.4c0,0.4,0.3,1.4,0.8,2.3c0,0,14.5,35.9,17.1,42.6c1.8-4.4,5.8-14.4,9.4-23.5c2-4.9,3.9-9.6,5.3-13.1
		c1.5-3.7,2.1-5.1,2.4-5.6l-0.1,0c0,0,0.2-0.5,0.2-0.6l0.3,0.1l-0.3-0.1l0.2-0.4l0.5-1.8l-0.1-0.1c-0.1-0.1-0.5-0.1-1-0.1l-1.1,0.1
		V95h11.1v2.7h-1c-2.4,0-3,1.2-4,3.2l-0.3,0.6c0,0-20.3,50.7-22.6,56.5L187.6,158.2z M264.4,157.3h-43.2v-1.6l0.1-1l0.9-0.1
		c2.3-0.2,3.2-0.2,3.2-3.2v-48.6c0-4.4-0.2-5-3.2-5h-1V95H261v10.4h-2.4l-0.2-0.8c-1.5-5.5-1.5-5.5-5.2-5.5h-18.8v24.8h17.4
		c2.7,0,3.1-0.1,3.2-1.1l0.1-0.9h2.5v8.1h-2.5l-0.2-0.8c-0.2-1.1-0.7-1.2-2.8-1.2h-17.9v17.4c0,7.8,1.6,7.8,7.3,7.8h10.6
		c7.3,0,8.6,0,9.4-5.4l0.1-0.9h2.5V157.3z M307.4,157.3h-18.4v-2.6l0.9-0.1c3.3-0.3,3.7-0.3,3.7-4.2V99h-14c-2.6,0-2.6,0.1-2.6,0.6
		l0.6,2.7H275l-3.7-9.3h2.7l0.3,0.6c0.5,0.9,0.8,1.3,1,1.3c0.5,0.2,1.3,0.2,2.5,0.2l40.5,0c2.4,0,3-0.1,3.5-1.4l0.3-0.7h2.8
		l-3.7,9.3h-1.3l-1.1-0.2l0.3-2.3l0-0.2l-0.1-0.4c-0.3-0.2-1.1-0.2-1.6-0.2c0,0,0,0,0,0h-14.8v50.5c0,2.4,0.1,3.9,0.7,4.5
		c0.4,0.4,1.4,0.6,3,0.6l1,0V157.3z"/>
</g>
</svg>
