<svg xmlns="http://www.w3.org/2000/svg" height="193.38" viewBox="0 0 250.51601 193.38434" width="250.52"><g transform="matrix(1.25 0 0 -1.25 -432.29 634.2)"><path d="m401.79 464.15c8.648 0 15.659 7.0114 15.659 15.659 0 8.648-7.0114 15.659-15.659 15.659-8.6491 0-15.658-7.0114-15.658-15.659 0-8.648 7.0091-15.659 15.658-15.659zm5.2202 5.2202c5.7649 0 10.439 4.6743 10.439 10.439 0 5.7649-4.6743 10.439-10.439 10.439-5.7661 0-10.44-4.6743-10.44-10.439 0-5.7649 4.6743-10.439 10.44-10.439zm-3.6609 3.6962c3.6018 0 6.5246 2.9217 6.5246 6.5246 0 3.6041-2.9228 6.5246-6.5246 6.5246-3.6041 0-6.5246-2.9206-6.5246-6.5246 0-3.6029 2.9206-6.5246 6.5246-6.5246zm-2.4474 2.3201c2.1631 0 3.9157 1.7526 3.9157 3.9157 0 2.162-1.7526 3.9146-3.9157 3.9146-2.162 0-3.9134-1.7526-3.9134-3.9146 0-2.1631 1.7514-3.9157 3.9134-3.9157z" stroke="#003866" stroke-width="2.6897" fill="none"/><path d="m4.7461 0.95312v52.338h11.797v-21.096h12.482c3.884 0.145 4.645 4.133 4.95 7.032 0.533 4.711 1.063 9.424 2.054 14.064h13.016c-2.206-2.9-2.664-9.063-3.195-12.396-0.99-7.249-0.991-12.542-10.049-13.483v-0.144c6.774-1.378 11.418-5.874 11.418-12.688 0-10.655-9.668-13.554-19.106-13.627l-23.367 0.00012zm128.45 0v52.338h11.42v-19.791l0.15-0.145 11.49 19.936h13.32l-14-20.877 13.17-15.949h-12.72l-11.26 15.295-0.15-0.145v-30.662l-11.42 0.00012zm-116.66 8.6992h9.895c5.177 0.0725 8.22 2.0297 8.22 6.6677 0 4.64-3.043 7.104-8.22 7.176h-9.895v-13.844zm95.337 6.1617c-11.34 0-17.046 9.642-17.046 19.282 0 9.641 5.706 19.281 17.046 19.281 10.51 0 16.52-5.073 16.9-14.352h-11.11c-0.08 2.972-1.37 7.104-5.79 7.104-4.87 0-4.94-9.206-5.25-12.541 0.15-2.826 0.23-11.527 5.1-11.527 4.42 0 5.71 3.625 5.79 6.597h11.26c0.08-8.554-7.15-13.844-16.9-13.844zm-110.83 47.485l21.019 52.341h13.354l21.016-52.341h-12.088l-14.934 41.241h-0.158l-14.856-41.241h-13.353zm94.025 0.002v52.339h11.418v-52.339h-11.418zm17.348 0v52.339h11.41v-52.339h-11.41zm-39.414 14.859c-4.111 0-8.145 0.58-11.266 2.32-3.045 1.668-5.1 4.493-5.176 9.059h10.961c-0.152-1.666 1.142-5.219 5.1-5.219 4.035 0 5.252 2.973 5.252 4.494v3.409c-4.568-0.145-10.352 0.072-14.92 1.957-6.926 2.826-8.145 8.99-8.145 11.53 0 7.1 5.33 11.01 12.485 11.01 5.176 0 9.133-1.74 11.721-5.94h0.152c0 1.52 0.154 3.19 0.383 4.86h10.275c-0.153-1.09-0.458-2.18-0.535-3.99v-19.863c0-10.946-8.599-13.627-16.287-13.627zm73.424 0c-11.65 0-18.35 8.409-18.35 19.354 0 12.176 5.26 19.206 18.35 19.206 8.9 0 16.29-2.97 17.28-11.96h-10.28c-1.07 3.34-3.04 4.71-7 4.71-5.86 0-6.55-4.42-6.55-9.13h25.05c0-2.391-0.01-4.71-0.31-6.957-0.31-2.32-0.84-4.494-1.9-6.524-3.2-6.378-9.14-8.699-16.29-8.699zm18.03 1.086l14.77 36.464-4.87 13.77h11.34l19.18-50.234h-11.19l-8.52 25.154h-0.16l-8.37-25.154h-12.18zm-18.03 6.162c5.55 0 6.7 3.698 6.7 7.684h-13.25c0.15-3.986 1.3-7.684 6.55-7.684zm-70.209 13.106c0.601-0.003 1.161 0.006 1.656 0.015 0 4.281-0.229 10.941-6.547 10.941-3.196 0-5.557-2.17-5.557-5.21 0-5.141 6.236-5.728 10.448-5.746zm-50.391 26.046c-15.909 0-23.064 11.96-23.064 27.25-0.0004 15.3 7.1548 27.26 23.064 27.26 12.634 0 22.529-4.93 23.063-18.05h-12.559c0.077 5.51-3.426 9.93-10.504 9.93-8.373 0-10.504-11.82-10.504-19.14s2.131-19.13 10.504-19.13c7.078 0 10.581 4.42 10.504 9.93h12.559c-0.534-13.12-10.429-18.05-23.063-18.05zm69.637 1.08v52.34h11.413v-52.34h-11.413zm17.343 0v52.34h11.42v-52.34h-11.42zm-41.615 14.87c-12.483 0-19.941 7.82-19.941 19.28 0 11.45 7.458 19.28 19.941 19.28s19.944-7.83 19.944-19.28c0-11.46-7.461-19.28-19.944-19.28zm75.625 0c-11.64 0-18.34 8.4-18.34 19.35 0 12.18 5.25 19.21 18.34 19.21 8.91 0 16.29-2.97 17.28-11.96h-10.28c-1.06 3.33-3.04 4.71-7 4.71-5.86 0-6.54-4.42-6.54-9.13h25.04c0-2.4 0-4.72-0.31-6.96-0.3-2.32-0.83-4.5-1.9-6.53-3.2-6.38-9.13-8.69-16.29-8.69zm37.75 0c-10.66 0-16.21 9.35-16.21 18.62 0 8.85 5.33 18.13 15.68 18.13 4.33 0 8.37-1.45 10.73-5h0.15c0.46 5.29 0.76 12.83-7.91 12.83-3.13 0-6.17-1.24-6.32-4.5h-10.81c0.23 9.79 9.28 11.75 17.73 11.75 16.75 0.14 18.73-9.14 18.73-17.62v-33.13h-11.42v4.21h-0.15c-1.83-3.7-5.1-5.29-10.2-5.29zm46.5 0c-11.65 0-18.35 8.4-18.35 19.35 0 12.18 5.25 19.21 18.35 19.21 8.9 0 16.28-2.97 17.28-11.96h-10.28c-1.06 3.33-3.04 4.71-7 4.71-5.86 0-6.55-4.42-6.55-9.13h25.04c0-2.4 0-4.72-0.3-6.96-0.3-2.32-0.84-4.5-1.9-6.53-3.2-6.38-9.14-8.69-16.29-8.69zm-159.88 7.25c7.003 0 8.145 6.23 8.145 12.03s-1.142 12.03-8.145 12.03-8.144-6.23-8.144-12.03 1.141-12.03 8.144-12.03zm75.625 0c5.56 0 6.7 3.69 6.7 7.68h-13.24c0.15-3.99 1.29-7.68 6.54-7.68zm40.72 0c6.24 0 7.38 6.08 7.38 11.45 0 4.71-1.14 10.8-7.38 10.8s-7.39-6.09-7.39-10.8c0-5.37 1.15-11.45 7.39-11.45zm43.53 0c5.55 0 6.7 3.69 6.7 7.68h-13.25c0.15-3.99 1.29-7.68 6.55-7.68z" transform="matrix(.8 0 0 -.8 345.83 507.36)" fill="#003866"/></g></svg>
