<svg id="svg-logo" viewBox="0 0 356 88" xmlns="http://www.w3.org/2000/svg"><path d="M92.25 31.49H87.6c-1.2 0-1.96.17-2.31.49-.34.33-.52 1.33-.53 3.02l-.02.54h-2.86V29.6h26.68v5.94h-2.85l-.01-.54c-.01-1.68-.19-2.69-.53-3.02-.34-.33-1.11-.49-2.3-.49h-4.65v21.07c.09 1.92.24 3 .44 3.24.2.24 1.13.43 2.78.54l.35.02v1.79h-13.1v-1.79l.35-.02c1.57-.1 2.5-.32 2.79-.66.29-.34.43-1.37.43-3.1V31.49zm23.08 11.54v9.53c0 1.75.14 2.79.42 3.13.28.33 1.21.55 2.8.66l.37.02v1.79h-12.38v-1.79l.37-.02c1.3-.09 2.08-.31 2.33-.67.26-.35.39-1.39.39-3.12v-9.99c0-1.72-.13-2.76-.39-3.12-.26-.35-1.03-.57-2.33-.66l-.37-.02v-1.79h8.8v3.99c1.74-2.98 3.99-4.47 6.75-4.47.3 0 .67.05 1.12.15v6.75h-2.62l-.02-.35c-.1-1.43-.2-2.24-.28-2.42-.08-.19-.4-.28-.96-.28-1.65-.01-2.98.89-4 2.68zm18.63-6.06v15.59c0 1.72.13 2.76.39 3.12.26.35 1.04.58 2.33.67l.36.02v1.79h-11.88v-1.79l.37-.02c1.3-.09 2.08-.31 2.33-.67.26-.35.39-1.39.39-3.12v-9.99c0-1.72-.13-2.76-.39-3.12-.26-.35-1.03-.57-2.33-.66l-.37-.02v-1.79h8.8zm-5.71-3.57v-5.71h5.71v5.71h-5.71zm24.36 24.58c-1.2.44-2.37.66-3.51.66-2.38 0-4.16-.59-5.35-1.77-1.19-1.18-1.79-2.94-1.79-5.29v-12.7h-2.62v-1.91h2.62V33.4l5.71-1v4.57h4.69v1.91h-4.69v12.83c0 1.89.19 3.14.56 3.74.37.6 1.14.91 2.32.91.64 0 1.33-.15 2.06-.44v2.06zm12.6.65c-3.42 0-6.11-.99-8.07-2.96s-2.94-4.68-2.94-8.11c0-3.43.98-6.14 2.94-8.11 1.96-1.97 4.65-2.96 8.07-2.96 3.41 0 6.09.99 8.05 2.96 1.96 1.97 2.94 4.68 2.94 8.11 0 3.43-.98 6.14-2.94 8.11-1.96 1.97-4.64 2.96-8.05 2.96zm0-2.02c1.57 0 2.74-.76 3.52-2.27.78-1.51 1.17-3.77 1.17-6.78 0-3.02-.39-5.29-1.17-6.79-.78-1.5-1.95-2.26-3.52-2.26s-2.75.75-3.53 2.26c-.78 1.5-1.18 3.77-1.18 6.79 0 3.01.39 5.27 1.18 6.78.78 1.51 1.96 2.27 3.53 2.27zm22-15.65c.88-1.49 1.92-2.61 3.12-3.36 1.21-.75 2.59-1.12 4.13-1.12 1.9 0 3.39.59 4.47 1.76 1.07 1.18 1.6 2.82 1.6 4.92v9.39c0 1.72.13 2.76.4 3.12.26.35 1.04.58 2.34.67l.37.02v1.79h-11.9v-1.79l.35-.02c1.31-.09 2.1-.31 2.35-.67.26-.35.39-1.39.39-3.12v-8.74c0-1.51-.18-2.52-.53-3.06-.36-.53-1.03-.8-2.04-.8-.86 0-1.72.26-2.56.78-.85.52-1.68 1.31-2.5 2.36v9.45c0 1.72.13 2.76.39 3.12.26.35 1.04.58 2.33.67l.36.02v1.79H178.4v-1.79l.37-.02c1.3-.09 2.08-.31 2.33-.67.26-.35.39-1.39.39-3.12v-9.99c0-1.72-.13-2.76-.39-3.12-.26-.35-1.04-.57-2.33-.66l-.37-.02v-1.79h8.8v4zm55.22 16.09c-2.93 1.21-6.1 1.81-9.51 1.81-4.81 0-8.56-1.32-11.25-3.95-2.69-2.64-4.03-6.32-4.03-11.05 0-4.76 1.31-8.44 3.93-11.05 2.62-2.61 6.33-3.92 11.11-3.92 2.91 0 5.99.42 9.24 1.25v5.88h-2.85v-.37c0-1.71-.28-2.8-.83-3.26-1.29-1.08-3.11-1.62-5.47-1.62-2.81 0-4.97 1.13-6.51 3.39-1.53 2.26-2.3 5.46-2.3 9.6 0 4.23.86 7.41 2.57 9.53 1.72 2.12 4.28 3.18 7.71 3.18 2.37 0 5.09-.71 8.18-2.12v2.7zm10.81 1.58c-3.42 0-6.11-.99-8.08-2.96-1.96-1.97-2.94-4.68-2.94-8.11 0-3.43.98-6.14 2.94-8.11 1.96-1.97 4.65-2.96 8.08-2.96 3.41 0 6.09.99 8.05 2.96 1.96 1.97 2.94 4.68 2.94 8.11 0 3.43-.98 6.14-2.94 8.11-1.95 1.97-4.64 2.96-8.05 2.96zm0-2.02c1.57 0 2.74-.76 3.52-2.27.78-1.51 1.17-3.77 1.17-6.78 0-3.02-.39-5.29-1.17-6.79-.78-1.5-1.95-2.26-3.52-2.26s-2.75.75-3.53 2.26c-.79 1.5-1.18 3.77-1.18 6.79 0 3.01.39 5.27 1.18 6.78.79 1.51 1.96 2.27 3.53 2.27zm21.57-28.92v24.86c0 1.72.13 2.76.39 3.12.26.35 1.04.58 2.33.67l.36.02v1.79h-11.88v-1.79l.37-.02c1.3-.09 2.08-.31 2.33-.67.26-.35.39-1.39.39-3.12V33.28c0-1.71-.13-2.75-.39-3.11-.26-.36-1.03-.58-2.33-.65l-.37-.04v-1.79h8.8zm12.85 0v24.86c0 1.72.13 2.76.4 3.12.26.35 1.04.58 2.33.67l.36.02v1.79h-11.88v-1.79l.37-.02c1.3-.09 2.07-.31 2.33-.67.26-.35.39-1.39.39-3.12V33.28c0-1.71-.13-2.75-.39-3.11-.26-.36-1.03-.58-2.33-.65l-.37-.04v-1.79h8.79zm23.76 29.63c-2.52.87-4.98 1.31-7.37 1.31-3.61 0-6.47-1.02-8.57-3.05-2.1-2.03-3.16-4.79-3.16-8.28 0-3.22.95-5.82 2.85-7.82 1.9-2 4.37-3 7.42-3 5.89 0 8.84 3.61 8.84 10.84v.43H298.2c0 2.68.62 4.68 1.87 6.02 1.25 1.34 3.12 2.01 5.61 2.01 1.7 0 3.61-.46 5.75-1.39v2.93zm-13.1-11.36h7.48v-.68c0-2.56-.26-4.37-.77-5.42-.51-1.05-1.4-1.58-2.67-1.58-1.34 0-2.35.64-3.03 1.92-.67 1.28-1.01 3.2-1.01 5.76zM318.5 57.4c-1.47-.77-2.21-1.7-2.21-2.78 0-.69.34-1.37 1.01-2.03.67-.66 1.69-1.31 3.03-1.94-1.59-.59-2.78-1.45-3.57-2.57-.8-1.12-1.19-2.5-1.19-4.15 0-2.26.78-4.07 2.34-5.42 1.56-1.35 3.65-2.03 6.25-2.03.82 0 1.6.07 2.32.19.73.13 1.41.32 2.05.58l7.88-.65-1.2 3.05-4.17-.58c1.22 1.45 1.83 3.04 1.83 4.75 0 2.12-.77 3.9-2.29 5.33-1.53 1.44-3.42 2.15-5.68 2.15-.46 0-1.09-.03-1.89-.1l-1.12-.19c-.44.33-.76.66-.98.99-.22.33-.33.66-.33.99 0 .81 1.05 1.22 3.14 1.22h3.24c3.01 0 5.14.38 6.42 1.14 1.26.77 1.89 2.06 1.89 3.88 0 2.11-1.01 3.81-3.04 5.09-2.03 1.29-4.7 1.93-8.04 1.93-2.98 0-5.43-.42-7.33-1.27-1.9-.85-2.86-1.94-2.86-3.26.04-1.93 1.53-3.37 4.5-4.32zm1.85.52c-.53 1.15-.79 2.06-.79 2.76 0 1.04.5 1.93 1.5 2.67s2.2 1.11 3.61 1.11c1.53 0 2.81-.4 3.83-1.2 1.03-.8 1.54-1.79 1.54-2.97 0-.8-.36-1.39-1.09-1.78-.73-.39-1.82-.59-3.27-.59h-5.33zm.59-13.91c0 1.88.28 3.29.83 4.23.55.95 1.38 1.42 2.47 1.42 1.1 0 1.93-.47 2.48-1.42s.82-2.36.82-4.23c0-1.89-.27-3.31-.82-4.24-.55-.94-1.37-1.41-2.48-1.41-1.09 0-1.92.47-2.47 1.41-.55.93-.83 2.35-.83 4.24zM356 57.32c-2.52.87-4.98 1.31-7.37 1.31-3.61 0-6.47-1.02-8.57-3.05-2.1-2.03-3.15-4.79-3.15-8.28 0-3.22.95-5.82 2.85-7.82 1.9-2 4.37-3 7.42-3 5.89 0 8.83 3.61 8.83 10.84v.43h-13.24c0 2.68.62 4.68 1.87 6.02 1.25 1.34 3.12 2.01 5.61 2.01 1.7 0 3.61-.46 5.75-1.39v2.93zm-13.1-11.36h7.49v-.68c0-2.56-.26-4.37-.77-5.42-.51-1.05-1.4-1.58-2.67-1.58-1.34 0-2.35.64-3.03 1.92-.68 1.28-1.02 3.2-1.02 5.76z" fill="#ba0c2f"></path><path d="M74.55 0H0v22.92h11.26l-2.22 1.8v38.41l11.74 9.45V88h32.98V74.58L65.6 62.93V48.77H48.34v-9.1H65.6V24.8l-2.13-1.89h11.08V0z" fill="#f1b434"></path><path d="M72.44 20.81V2.11H2.11V20.8h12.97v-6.14h13.37v1.1h-4.98l-12.28 9.93-.04.03v36.39L23.44 72l.03.02h4.98v1.08H22.9v12.78h28.76V73.11H46.1v-1.09h7.24l10.11-9.94.03-.03V50.88H48.36v6.92l-2.26 1.71V28.37l2.26 1.75v7.43h15.12v-11.8l-11.24-9.97-.03-.03H46.1v-1.1h13.48v6.14h12.86zm-43.98 7.56v31.1l-2.29-1.72v-27.6l2.29-1.78z" fill="#fff"></path><path d="M3.26 3.27v16.38h10.67v-6.14H29.6v3.4h-5.73L12.3 26.27v35.29l11.58 9.32h5.73v3.38h-5.56v10.48H50.5V74.26h-5.56v-3.39h7.92l9.46-9.3v-9.53H49.51v6.39l-4.57 3.24V26.18l4.57 3.33v6.89h12.82V26.27l-10.55-9.36h-6.84v-3.4h15.78v6.14h10.56V3.28L3.26 3.27zm26.35 58.36l-4.57-3.22V29.52l4.57-3.36v35.47z" fill="#ba0c2f"></path></svg>