<?xml version="1.0" encoding="UTF-8"?><svg id="Layer_1" xmlns="http://www.w3.org/2000/svg" viewBox="0 0 1014.33 369.33"><defs><style>.cls-1{fill:none;}.cls-2{fill:#b2b2b2;}.cls-2,.cls-3{fill-rule:evenodd;}.cls-3{fill:#f28c00;}</style></defs><g id="OW-B"><path class="cls-2" d="m230.21,159.43v-3.88s159.66-24.32,279.41-24.32,279.41,24.32,279.41,24.32v3.88s-159.66-15.18-279.41-15.18-279.41,15.18-279.41,15.18Z"/><path class="cls-3" d="m510.1,118.96s.08-4.63-.05-7.59c-.49-10.5-7.33-15.18-4.94-26.5,1.75-8.28,9.16-11.63,14.45-19.47,2.24-3.33,2.11-7.83,2.11-7.83,0,0,3.99,2.33,6.43,4.99,1.98,2.15,4.03,5.43,4.03,5.43,0,0,2.63-9.56-4.47-19.05-3.48-4.65-11.6-9.32-11.6-9.32,0,0-1.03,11.19-5.6,18.04-7.96,11.92-19.76,14.62-20.82,30.28-.97,14.47,20.46,31.04,20.46,31.04Z"/><path class="cls-3" d="m510.29,118.95l1.79-14.6s1.07-5.54,3.01-8.45c4.44-6.68,7.63-8.43,11.78-14.76,3.45-5.26,5.27-13.16,5.27-13.16,0,0,8.96,12.68,2.67,27.2-5.3,12.24-24.51,23.77-24.51,23.77Z"/><path d="m160.94,238.38c-1.78.11-3.17.17-4.17.17-2.44,0-4.06-.36-4.83-1.08-.56-.5-1.2-1.86-1.92-4.08l-3.25-10.17h-22.42l-3.33,10.5c-.67,2.05-1.25,3.33-1.75,3.83-.67.61-1.97.92-3.92.92-.78,0-1.81-.03-3.08-.08l19.75-57.75c1.89-.06,3.39-.08,4.5-.08,2.44,0,4.08.22,4.92.67.56.28,1.03,1.03,1.42,2.25l18.08,54.92Zm-16.08-21.83l-7-24.5c-.5-1.44-1.11-3.66-1.83-6.66-.11.72-.75,2.94-1.92,6.66l-7.75,24.5h18.5Z"/><path d="m207.8,238.38c-2.07.1-3.69.15-4.85.15-2.27,0-3.76-.2-4.47-.61-.46-.2-.94-.83-1.44-1.89l-16.82-35.91c-.66-1.37-1.74-4.24-3.26-8.64.5,3.69.76,7.8.76,12.35v34.55h-6.21v-52.43c2.22-.1,3.97-.15,5.23-.15,2.42,0,4.01.18,4.77.53.46.25.91.85,1.36,1.82l16.29,35.46c.71,1.57,1.62,4.6,2.73,9.09-.25-2.68-.38-6.49-.38-11.44v-35.31h6.29v52.43Z"/><path d="m259.32,212.32c0,8.99-2.07,15.71-6.21,20.15-3.74,3.94-9.02,5.91-15.83,5.91h-16.59v-52.43h16.59c14.7,0,22.05,8.79,22.05,26.37Zm-8.63,1.13c0-8.03-1.21-13.81-3.64-17.35-2.17-3.18-5.51-4.77-10-4.77h-8.79v41.67h9.01c4.54,0,7.98-1.87,10.3-5.61,2.07-3.38,3.11-8.03,3.11-13.94Z"/><polygon points="300.18 238.38 270.56 238.38 270.56 185.96 299.05 185.96 299.05 191.34 278.14 191.34 278.14 208.46 295.03 208.46 295.03 213.76 278.21 213.76 278.21 232.85 300.18 232.85 300.18 238.38"/><path d="m348.87,238.31c-1.11.55-2.6.83-4.47.83-2.23,0-3.94-.28-5.15-.83-2.68-1.31-5.86-5.18-9.55-11.59-3.84-6.72-7.45-11.77-10.84-15.15,2.07.45,3.97.61,5.68.45,5.71-.66,8.56-4.37,8.56-11.13,0-3.03-.66-5.28-1.97-6.75-1.67-1.87-4.52-2.8-8.56-2.8h-5.08v47.05h-7.65v-52.35h14.77c5.4,0,9.6,1.46,12.58,4.4,2.78,2.68,4.17,6.19,4.17,10.53,0,3.08-.88,5.94-2.65,8.56-1.72,2.58-3.89,4.29-6.51,5.15-1.16.35-2.12.45-2.88.3.51.21,1.21.78,2.12,1.74,2.52,2.68,4.67,5.51,6.44,8.49,3.63,6.16,5.5,9.34,5.6,9.55,1.87,2.63,3.66,3.81,5.38,3.56Z"/><path d="m387.66,223.46c-.25,4.65-2.27,8.46-6.06,11.44-4.14,3.28-9.52,4.75-16.14,4.39-2.98-.15-5.03-.35-6.14-.6-1.37-.35-2.88-1.09-4.55-2.2-1.01-.66-1.59-1.85-1.74-3.56-.1-.6-.08-2,.08-4.17,2.52,3.18,7.35,4.9,14.47,5.15,3.13.1,5.83-.88,8.11-2.96,2.07-1.92,3.11-3.97,3.11-6.13,0-4.55-2.55-7.63-7.65-9.24l-5.68-1.82c-5.46-1.72-8.91-3.71-10.38-5.99-1.42-2.27-2.05-4.95-1.9-8.03.25-4.7,2.02-8.31,5.3-10.83,3.34-2.57,8.01-3.81,14.02-3.71,2.22.05,4.07.3,5.53.76,1.16.35,2.85,1.16,5.08,2.43,1.57.86,2.22,3.31,1.97,7.35-2.73-3.44-7.45-5.15-14.17-5.15-2.57,0-4.72.79-6.44,2.35-1.72,1.56-2.63,3.46-2.73,5.68-.2,3.59,2.1,6.19,6.89,7.81l6.29,2.12c8.84,2.98,13.08,7.95,12.73,14.92Z"/><path d="m439.3,212.25c0,8.34-1.82,14.87-5.45,19.62-3.74,4.9-9.04,7.35-15.91,7.35-7.38,0-13.01-2.58-16.9-7.73-3.53-4.7-5.3-11.14-5.3-19.32,0-8.59,1.92-15.23,5.76-19.93,3.84-4.7,9.2-7.04,16.06-7.04,7.27,0,12.8,2.6,16.59,7.8,3.44,4.7,5.15,11.11,5.15,19.24Zm-21.82-21.74c-8.89,0-13.33,7.25-13.33,21.74s4.52,21.74,13.56,21.74,12.88-7.25,12.88-21.74c0-7.17-.88-12.45-2.65-15.83-2.07-3.94-5.56-5.91-10.46-5.91Z"/><path d="m486.83,238.38c-2.07.1-3.69.15-4.85.15-2.27,0-3.76-.2-4.47-.61-.46-.2-.94-.83-1.44-1.89l-16.82-35.91c-.66-1.37-1.74-4.24-3.26-8.64.51,3.69.76,7.8.76,12.35v34.55h-6.21v-52.43c2.22-.1,3.96-.15,5.23-.15,2.42,0,4.02.18,4.77.53.45.25.91.85,1.36,1.82l16.29,35.46c.71,1.57,1.62,4.6,2.73,9.09-.26-2.68-.38-6.49-.38-11.44v-35.31h6.29v52.43h0Z"/><path d="m561.95,222.22c0,11.44-6.81,17.17-20.42,17.17s-20.33-5.7-20.33-17.09v-41.58h8.33v39.17c0,9.05,4,13.58,12,13.58s12.09-4.53,12.09-13.58v-39.17h8.33v41.5Z"/><path d="m610.76,238.38c-2.07.1-3.69.15-4.85.15-2.27,0-3.76-.2-4.47-.61-.46-.2-.94-.83-1.44-1.89l-16.82-35.91c-.66-1.37-1.74-4.24-3.26-8.64.51,3.69.76,7.8.76,12.35v34.55h-6.21v-52.43c2.22-.1,3.96-.15,5.23-.15,2.42,0,4.02.18,4.77.53.45.25.91.85,1.36,1.82l16.29,35.46c.71,1.57,1.62,4.6,2.73,9.09-.25-2.68-.38-6.49-.38-11.44v-35.31h6.29v52.43Z"/><rect x="623.64" y="185.96" width="7.65" height="52.43"/><path d="m679.52,185.96l-16.97,52.65c-2.68.05-4.19.05-4.54,0-1.21-.3-2.1-1.26-2.65-2.88l-17.35-49.78c1.82-.05,3.18-.07,4.09-.07,2.27,0,3.66.27,4.17.83.15.15.58,1.24,1.29,3.26l10.53,30.83c1.21,3.63,2.07,7.17,2.58,10.6.2-2.63.96-6.19,2.27-10.68l9.17-30.76c.56-1.92.96-3.03,1.21-3.34.46-.55,1.47-.83,3.03-.83.66,0,1.72.05,3.18.15Z"/><polygon points="716.25 238.38 686.62 238.38 686.62 185.96 715.11 185.96 715.11 191.34 694.2 191.34 694.2 208.46 711.09 208.46 711.09 213.76 694.27 213.76 694.27 232.85 716.25 232.85 716.25 238.38"/><path d="m764.93,238.31c-1.11.55-2.6.83-4.47.83-2.22,0-3.94-.28-5.15-.83-2.68-1.31-5.86-5.18-9.55-11.59-3.84-6.72-7.45-11.77-10.83-15.15,2.07.45,3.97.61,5.68.45,5.71-.66,8.56-4.37,8.56-11.13,0-3.03-.66-5.28-1.97-6.75-1.67-1.87-4.52-2.8-8.56-2.8h-5.08v47.05h-7.65v-52.35h14.77c5.41,0,9.6,1.46,12.58,4.4,2.78,2.68,4.17,6.19,4.17,10.53,0,3.08-.88,5.94-2.65,8.56-1.72,2.58-3.89,4.29-6.52,5.15-1.16.35-2.12.45-2.88.3.5.21,1.21.78,2.12,1.74,2.53,2.68,4.67,5.51,6.44,8.49,3.64,6.16,5.5,9.34,5.6,9.55,1.87,2.63,3.66,3.81,5.38,3.56Z"/><path d="m802.23,223.46c-.25,4.65-2.27,8.46-6.06,11.44-4.14,3.28-9.52,4.75-16.14,4.39-2.98-.15-5.03-.35-6.14-.6-1.36-.35-2.88-1.09-4.55-2.2-1.01-.66-1.59-1.85-1.74-3.56-.1-.6-.07-2,.08-4.17,2.53,3.18,7.35,4.9,14.47,5.15,3.13.1,5.84-.88,8.11-2.96,2.07-1.92,3.11-3.97,3.11-6.13,0-4.55-2.55-7.63-7.65-9.24l-5.68-1.82c-5.46-1.72-8.91-3.71-10.38-5.99-1.42-2.27-2.05-4.95-1.9-8.03.26-4.7,2.02-8.31,5.3-10.83,3.33-2.57,8.01-3.81,14.02-3.71,2.22.05,4.07.3,5.53.76,1.16.35,2.85,1.16,5.08,2.43,1.56.86,2.22,3.31,1.97,7.35-2.73-3.44-7.45-5.15-14.17-5.15-2.58,0-4.72.79-6.44,2.35-1.72,1.56-2.63,3.46-2.73,5.68-.2,3.59,2.1,6.19,6.89,7.81l6.29,2.12c8.84,2.98,13.08,7.95,12.73,14.92Z"/><rect x="813.45" y="185.96" width="7.65" height="52.43"/><polygon points="864.05 191.64 850.34 191.64 850.34 238.38 842.69 238.38 842.69 191.64 828.97 191.64 828.97 185.96 864.05 185.96 864.05 191.64"/><path d="m909.98,186.03l-17.58,30.76v21.59h-7.65v-21.9l-17.27-30.53c1.82-.1,3.23-.15,4.24-.15,2.12,0,3.59.31,4.39.91.51.35,1.27,1.41,2.27,3.18l7.35,12.96c.76,1.26,1.49,2.52,2.2,3.79.91,1.72,1.52,3.38,1.82,5,.3-1.62.93-3.31,1.89-5.08.76-1.21,1.49-2.42,2.2-3.63l7.27-12.96c1.01-1.77,1.74-2.85,2.2-3.26.71-.56,1.87-.83,3.48-.83.71,0,1.77.05,3.18.15Z"/><rect class="cls-1" x="112.14" y="271.57" width="797.55" height="96.93"/></g></svg>