<?xml version="1.0" encoding="utf-8"?>
<!-- Generator: Adobe Illustrator 16.0.0, SVG Export Plug-In . SVG Version: 6.00 Build 0)  -->
<!DOCTYPE svg PUBLIC "-//W3C//DTD SVG 1.1//EN" "http://www.w3.org/Graphics/SVG/1.1/DTD/svg11.dtd">
<svg version="1.1" id="Layer_1" xmlns="http://www.w3.org/2000/svg" xmlns:xlink="http://www.w3.org/1999/xlink" x="0px" y="0px"
	 width="398.136px" height="157.51px" viewBox="0 0 398.136 157.51" enable-background="new 0 0 398.136 157.51"
	 xml:space="preserve">
<line fill="none" stroke="#ED174F" stroke-width="1.5" x1="0" y1="117.765" x2="177.256" y2="117.765"/>
<line fill="none" stroke="#ED174F" stroke-width="1.5" x1="200.944" y1="117.745" x2="391" y2="117.745"/>
<g>
	<g>
		<path fill="none" stroke="#000000" stroke-width="2.8588" d="M153.696,5.429v54.127v2.287c0,45.98,26.525,59.059,35.397,63.549
			c8.583-4.345,35.431-15.5,35.431-63.549v-2.859V5.429H153.696z"/>
		<g>
			<path d="M236.625,4.023c-17.311,14.268-34.622,10.687-41.762,29.72c-0.048,0.095,0.06,0.154,0.06,0.154l6.896,3.229
				c0.739,0.817,2.18,1.431,3.872,1.546c2.524,0.171,4.649-0.833,4.745-2.244c0.024-0.361-0.087-0.714-0.308-1.042
				c0.22-0.132,0.438-0.265,0.656-0.396c0.161,0.011,0.324,0.018,0.49,0.02c2.244,0.022,4.116-0.871,4.49-2.064
				c-3.052-0.032-6.378-1.727-9.06-4.193c-0.396-0.364-0.474-0.476-0.078-0.178c2.771,2.083,7.357,3.012,9.833,2.787
				c0.011-0.007,0.021-0.014,0.031-0.021c2.365-0.157,4.218-1.313,4.235-2.637c-2.881-0.055-6.866-1.012-9.279-3.379
				c-0.09-0.088-0.073-0.15,0.022-0.093c5.41,3.313,9.475,2.451,11.551,2.003c1.457-0.565,2.4-1.533,2.293-2.524
				c-0.004-0.03-0.011-0.059-0.016-0.088c-2.359,0.042-5.319-0.423-7.293-1.712c-0.112-0.074-0.052-0.119,0.09-0.066
				c2.579,0.957,5.994,1.359,8.851,0.599c1.39-0.652,2.249-1.661,2.084-2.632c-0.016-0.093-0.041-0.183-0.074-0.27
				c0.156-0.18,0.313-0.361,0.468-0.544c1.75-0.721,2.859-1.969,2.601-3.083c-0.013-0.056-0.03-0.111-0.05-0.165
				c0.066-0.091,0.132-0.182,0.197-0.273c1.987-0.802,3.249-2.258,2.895-3.458c-0.034-0.116-0.083-0.226-0.146-0.33
				c1.842-0.934,2.938-2.413,2.524-3.563c-0.086-0.239-0.233-0.447-0.429-0.624c0.319-0.619,0.636-1.251,0.946-1.899
				C238.919,4.599,239.293,2.308,236.625,4.023z"/>
		</g>
		<path d="M177.353,71.301c0,0-0.593,1.123-0.881,1.548c-0.81,1.421-1.287,2.859-1.191,4.217c0.155,3.091,3.581,3.431,3.026,6.623
			c-0.159,4.122-0.541,8.458,0.667,17.542c0,2.542-1.461,4.32-3.685,7.497c0,0-1.334,1.144-1.144,2.835h-1.318
			c-3.479,0.024-0.372,0.91-0.27,1.04c5.972,6.544,16.537,11.455,16.537,11.455c3.874-1.773,9.161-5.102,9.161-5.102
			s-0.475-0.184-0.985-0.508c-2.097-1.334-2.634-5.077-2.478-6.099c3.05,0.19,4.86-0.286,7.243-0.381
			c6.289-2.097,7.719-5.599,7.719-5.599c-2.668-10.102-5.089-33.827-8.862-48.338c-0.391-1.926-2.364-6.702-1.486-9.564
			c0.066-0.214,0.166-0.181,0.138,0.021c-0.257,1.888,0.231,3.164,1.114,3.947c0.319,0.247,0.807,0.561,1.439,0.78
			c0.816,0.245,1.747,0.277,2.676,0.135c1.407,2.607,6.029,2.941,6.696-1.872c0,0,2.001-2.072,3.812-2.477l0.54-1.068h0.931v1.021
			h1.918V47.93h-0.339v-4.582l0.738-0.969l-4.296-3.287h-7.306c-5.503-6.385-7.004-6.075-12.246-5.88
			c-0.078-0.548-0.498-3.461-0.853-5.293c1.407-1.047,1.505-3.468,1.047-3.959c0.834-0.902,0.805-2.288,0.414-3.193
			c-0.099,0.354-0.281,0.688-0.549,0.975c-0.557,0.594-1.348,0.833-2.096,0.713c-0.043-0.007-0.057-0.052-0.021-0.066
			c0.307-0.124,0.593-0.313,0.834-0.571c0.515-0.548,0.714-1.277,0.611-1.967c-0.505-0.104-1.089-0.513-1.418-1.092
			c-1.897-2.249-7.165-0.752-7.427,1.8c-2.029,1.407-1.276,3.893-0.131,4.679c0.229,1.243,0.883,3.108,2.65,5.463
			c0.313,0.876-0.415,2.146-1.281,3.199c-0.025,0.031-0.095,0.084-0.12-0.027c-7.155-18.961-24.446-15.405-41.738-29.656
			c-2.668-1.715-2.439,0.652-1.334,2.573c0.433,0.753,0.881,1.492,1.34,2.22c-0.052,0.086-0.099,0.176-0.133,0.272
			c-0.407,1.151,0.696,2.625,2.542,3.55c-0.061,0.104-0.11,0.214-0.144,0.331c-0.364,1.255,1.038,2.782,3.184,3.546
			c-0.054,0.106-0.096,0.217-0.123,0.334c-0.282,1.244,1.141,2.646,3.251,3.294c-0.121,0.181-0.202,0.377-0.236,0.587
			c-0.225,1.36,1.56,2.789,3.99,3.199c-0.14,0.21-0.228,0.438-0.253,0.682c-0.144,1.377,1.738,2.702,4.203,2.958
			c0.172,0.018,0.342,0.028,0.51,0.035c0.05,0.042,0.1,0.084,0.15,0.126c-0.152,0.237-0.244,0.493-0.256,0.763
			c-0.061,1.388,1.903,2.602,4.388,2.712c0.073,0.003,0.144,0.001,0.216,0.002c0.172,0.131,0.344,0.261,0.514,0.39
			c-0.137,0.246-0.209,0.507-0.205,0.777c0.021,1.399,2.068,2.503,4.572,2.466c0.042,0,0.083-0.004,0.126-0.005
			c0.303,0.209,0.599,0.412,0.889,0.609c-0.129,0.261-0.191,0.533-0.17,0.811c0.103,1.408,2.225,2.401,4.743,2.221
			c0.021,0.014,0.043,0.028,0.064,0.042c-3.716,6.861-5.05,5.098-7.147,7.337c-2.287,2.287-3.462,4.233-6.321,5.567
			c-2.382-0.953-3.875,1.414-5.686,0.937c-0.191,1.144,1.62,1.048,2.287,1.048c0.667,0,0.381,0.477-0.191,1.525
			c-1.144,1.811-2.478,3.812-0.477,2.287c0.763-0.667,2.883-0.333,3.526-0.333c0.953,0.571,1.874-0.254,3.018-2.732
			c0.857-1.334,5.146-1.818,9.466-5.344c1.524,1.906,4.383,2.477,7.052,2.191C173.922,69.395,184.786,57.007,177.353,71.301z"/>
		<polygon fill="#FFFFFF" points="214.327,41.76 212.993,40.807 202.129,40.807 203.463,41.76 		"/>
		<g>
			<path fill="#FFFFFF" d="M176.984,50.3c4.435-7.19,11.329-12.276,20.128-14.626c0.241-0.049,0.12-0.133-0.009-0.108
				c-8.766,1.739-16.429,6.617-21.667,13.472C175.864,49.693,176.816,50.209,176.984,50.3z"/>
		</g>
		<g>
			<path fill="#FFFFFF" d="M163.719,52.908c-0.14-0.096-0.292-0.176-0.459-0.236c-0.702-0.254-1.452-0.108-2,0.32
				c-0.03,0.023-0.013,0.067,0.023,0.065c0.288-0.012,0.582,0.03,0.869,0.134c0.276,0.1,0.52,0.25,0.728,0.433
				c0.022,0.019,0.105,0.021,0.105,0.021l0.752-0.665C163.737,52.98,163.737,52.921,163.719,52.908z"/>
		</g>
		<path fill="#FFFFFF" d="M182.678,86.597c-1.058-12.859,0.749-27.984,1.545-33.712c0.208-1.501,0.143-1.468-0.171,0.132
			c-1.123,5.721-3.644,20.528-3.2,36.259c0.002,0.064,0.086,0.071,0.086,0.071l1.685-2.51
			C182.701,86.727,182.678,86.597,182.678,86.597z"/>
		<path fill="#FFFFFF" d="M171.386,20c4.849,2.858,8.783,6.123,10.885,11.75c0.013,0.111,0.085,0.099,0.108,0.099
			c0.663-0.003,0.994,0.051,1.415,0.133c0.109,0.022,0.086-0.062,0.065-0.104c-2.823-5.898-7.133-9.13-12.416-11.976
			C171.099,19.735,171.185,19.87,171.386,20z"/>
		<path fill="#FFFFFF" d="M174.589,46.461c-1.266,1.424-4.131,2.914-5.066,3.379c-0.191,0.095-0.18,0.003-0.119-0.067
			c2.014-2.34,3.661-3.598,3.661-3.598C173.982,45.417,175.173,45.79,174.589,46.461z"/>
		<path fill="#FFFFFF" d="M226.809,12.407c-2.995,1.883-5.98,3.421-8.861,4.576c-8.775,3.52-15.729,7.763-18.247,16.231
			c3.095,0.802,3.826,3.058,6.661,6.004h-6.722c0,0-0.155,0.004-0.104,0.122c0.729,2.749-2.248,4.98-4.625,4.54
			c-0.143-0.013-0.106-0.112-0.099-0.156c0.466-2.804,3.435-6.188,4.477-7.304c-0.417-0.149-0.715-0.546-0.715-1.014
			c0-0.538,0.394-0.982,0.908-1.063c-0.777-0.68-2.508-0.782-3.642-0.784c-0.188-0.001-0.197-0.08-0.045-0.118
			c0.465-0.117,0.906-0.207,1.329-0.269c3.959-9.331,10.925-12.382,19.604-16.173c3.166-1.383,6.545-2.86,10.021-4.765
			C227.263,11.957,227.285,12.048,226.809,12.407z"/>
		<g>
			<path fill="#FFFFFF" d="M183.507,46.956c3.138-4.965,7.858-8.715,13.772-10.804c0.256-0.078,0.161-0.15-0.041-0.086
				c-6.214,1.783-11.609,5.525-15.324,10.662c-0.079,0.102,0.049,0.131,0.049,0.131l1.324,0.211
				C183.289,47.07,183.396,47.116,183.507,46.956z"/>
			<path fill="#FFFFFF" d="M197.467,36.534c-4.979,2.126-9.106,5.879-11.344,10.946c-0.059,0.125,0.094,0.151,0.094,0.151
				l1.159,0.185c0,0,0.13,0.027,0.166-0.14c1.764-4.839,5.279-8.735,9.98-11.082C197.786,36.467,197.655,36.432,197.467,36.534z"/>
		</g>
		<path fill="#FFFFFF" d="M202.034,111.968c-2.704-6.472-4.476-15.578-4.926-18.042c-0.075-0.41-0.09-0.2-0.079,0.016
			c0.468,8.649,1.409,15.377,2.05,17.895C199.607,111.409,201.638,111.831,202.034,111.968z"/>
		<path fill="#FFFFFF" d="M190.163,107.976c0.51-6.461,1.045-14.649,1.158-23.024c0.008-0.631-0.071-1.198-0.235,0.007
			c-0.536,3.94-1.891,13.551-3.702,23.828c-0.223-0.109-0.47-0.221-0.74-0.346c-2.521-1.421-4.116-1.563-5.252-1.656
			c-0.156-0.023-0.168,0.116-0.168,0.116l-1.3,4.526c0,0-0.022,0.135,0.146,0.176c3.067,0.276,9.228,2.882,10.244,4.652
			C191.499,114.392,190.112,111.925,190.163,107.976z"/>
		<path fill="#FFFFFF" d="M184.557,38.175c-1.382-1.135-2.993-1.082-3.463-1.037c-0.087,0.008-0.067-0.031-0.033-0.055
			c1.599-1.075,3.524-0.981,3.976-0.925c0.119,0.015,0.08,0.088,0.08,0.088l-0.474,1.927
			C184.642,38.174,184.581,38.194,184.557,38.175z"/>
		<path fill="#FFFFFF" d="M186.644,34.024c-7.589,0.224-8.25,2.134-10.196,5.599c-0.034,0.06-0.072,0.051-0.056-0.022
			c0.428-1.969,1.176-7.838,10.256-5.649C186.735,33.973,186.731,34.021,186.644,34.024z"/>
		<path fill="#FFFFFF" d="M193.783,33.744l-0.356-4.559c0.329-0.267,0.805-0.851,0.94-1.268c0.83-0.523,1.127-1.774,1.127-1.774
			c-0.083-0.989-1.02-1.334-1.653-1.257c-0.93-2.133-3.095-2.486-4.623-2.143c-0.085,0.028-0.08,0.088-0.08,0.088v1.454
			c0,0-0.018,0.107,0.058,0.067c0.321-0.137,1.909-0.716,2.784,0.778c-1.613,2.253,0.715,3.301-1.243,5.557
			c-0.022,0.025,0.003,0.059,0.039,0.05c0.682-0.18,1.264-0.448,1.75-0.773c0.085-0.08,0.066,0.04,0.066,0.04l-1.469,6.169
			c-0.025,0.095,0.056,0.045,0.056,0.045l2.532-2.256C193.791,33.875,193.783,33.744,193.783,33.744z"/>
		<path fill="#FFFFFF" d="M191.256,18.638c-0.026-0.036-0.071-0.011-0.066,0.037c0.023,0.285-0.01,0.579-0.109,0.866
			c-0.341,0.988-1.31,1.517-2.325,1.44c-0.123-0.01-0.365,0.022-0.591,0.057c-0.859,0.13-1.585,0.781-1.765,1.682
			c-0.144,0.721,0.097,1.427,0.578,1.912c0.027,0.027,0.064,0.013,0.056-0.02c-0.07-0.291-0.081-0.601-0.019-0.913
			c0.21-1.052,0.946-1.779,2.207-1.702c0.068,0.011,0.374,0.039,0.403,0.024c0.853-0.03,1.639-0.573,1.934-1.427
			C191.795,19.906,191.658,19.181,191.256,18.638z"/>
		<path fill="#FFFFFF" d="M189.547,27.2l-0.891-2.093c-0.024-0.071-0.071-0.167-0.064,0v2.072c0.005,0.083,0.053,0.084,0.053,0.084
			h0.857C189.563,27.263,189.567,27.256,189.547,27.2z"/>
		<path fill="#FFFFFF" d="M213.946,47.823v-4.538h-11.435v4.55h-0.012h-0.31v1.024h1.918v-1.003l3.912-0.008l0.019-0.26
			c0.143-0.729,0.881-0.824,0.888,0v0.258l0.75-0.001l0.019-0.257c0.143-0.729,0.881-0.824,0.888,0v0.255l1.869-0.004v1.009h1.918
			v-1.024H213.946z"/>
		<path fill="#FFFFFF" d="M208.351,49.717v-2.13c-0.006-0.824-0.708-0.729-0.843,0l-0.181,2.059
			C207.326,50.384,208.351,50.265,208.351,49.717z"/>
		<path fill="#FFFFFF" d="M206.628,49.528v-1.59c-0.005-0.659-0.566-0.583-0.675,0l-0.145,1.533
			C205.809,50.062,206.628,49.966,206.628,49.528z"/>
		<path fill="#FFFFFF" d="M210.006,49.717v-2.13c-0.006-0.824-0.708-0.729-0.844,0l-0.181,2.059
			C208.982,50.384,210.006,50.265,210.006,49.717z"/>
		<g>
			<path fill="#FFFFFF" d="M191.381,66.454c-1.714-5.88-2.585-11.469-2.999-14.854c-0.251-2.058-0.336-1.958-0.243,0.177
				c0.163,3.757,0.621,9.968,1.904,15.63c0.032,0.129,0.365,0.916,0.365,0.916l1.175-0.823
				C191.583,67.5,191.421,66.572,191.381,66.454z"/>
		</g>
		<g>
			<path fill="#FFFFFF" d="M188.537,72.613c-1.355-8.003-1.63-15.974-1.667-20.288c-0.018-2.058-0.108-2.015-0.236,0.107
				c-0.273,4.534-0.549,12.966,0.409,21.25c-0.006,0.132,0.282,2.093,0.282,2.093l1.361-0.953
				C188.687,74.823,188.562,72.754,188.537,72.613z"/>
		</g>
		<g>
			<path fill="#FFFFFF" d="M185.714,79.771c-1.182-11.856-0.661-22.117-0.271-26.982c0.154-1.924,0.093-1.881-0.173,0.072
				c-0.723,5.308-1.969,16.75-1.247,28.458c0.001,0.131,0.125,0.73,0.125,0.73l1.526-1.381
				C185.673,80.668,185.739,79.937,185.714,79.771z"/>
		</g>
		<path fill="#FFFFFF" d="M195.994,38.625c-7.397,8.916,3.201,20.421,2.054,44.229c-0.021,0.448-0.105,0.51-0.125,0.093
			c-1.071-23.295-12.418-34.336-2.026-44.383C196.171,38.299,196.232,38.337,195.994,38.625z"/>
		<path fill="#FFFFFF" d="M197.084,48.704c0.193,9.646,4.13,7.341,5.703,45.693c-0.003,0.203-0.075,0.119-0.084,0.011
			c-2.919-35.559-9.221-39.06-5.825-45.721C196.942,48.563,197.082,48.575,197.084,48.704z"/>
		<path fill="#FFFFFF" d="M205.617,107.145c-4.203-6.479-6.357-13.655-7.071-16.362c-0.188-0.711-0.174-0.349-0.118,0.03
			c1.339,9.11,4.304,16.635,4.705,17.616c0.044,0.109,0.119,0.087,0.156,0.075c1.1-0.342,2.049-1.05,2.301-1.249
			C205.633,107.222,205.63,107.164,205.617,107.145z"/>
		<path fill="#FFFFFF" d="M206.667,28.604c-0.413-0.307-0.415-0.273-0.049,0.067c2.695,2.51,6.061,4.24,9.145,4.272
			c0.089-0.689,0.441-1.412,0.695-1.584C213.995,31.583,209.441,30.665,206.667,28.604z"/>
		<path fill="#FFFFFF" d="M211.558,25.284c-0.125-0.075-0.179-0.027-0.077,0.072c2.417,2.341,6.376,3.29,9.244,3.344
			c0-0.03-0.009-0.06,0-0.088c0.19-0.646,1.839-1.204,2.294-1.381C220.953,27.678,216.922,28.531,211.558,25.284z"/>
		<path fill="#FFFFFF" d="M218.205,22.882c-0.181-0.066-0.24,0.002-0.086,0.099c1.973,1.233,4.863,1.68,7.177,1.638
			c0.467-0.274,1.193-0.833,1.647-1.18C224.127,24.188,220.771,23.808,218.205,22.882z"/>
		<circle cx="204.107" cy="43.899" r="0.56"/>
		<circle cx="204.888" cy="45.069" r="0.561"/>
		<circle cx="206.322" cy="45.495" r="0.56"/>
		<circle cx="207.768" cy="45.074" r="0.56"/>
		<circle cx="208.466" cy="43.899" r="0.56"/>
		<circle cx="210.658" cy="43.899" r="0.56"/>
		<circle cx="210.658" cy="45.2" r="0.56"/>
		<circle cx="210.658" cy="46.487" r="0.56"/>
		<path fill="#FFFFFF" d="M176.329,115.803c7.504-0.024,10.554,1.596,15.795,4.931c-4.098-6.003-12.483-7.814-18.583-7.242
			C174.506,114.374,176.329,115.803,176.329,115.803z"/>
		<path fill="#FFFFFF" d="M193.997,21.816c-0.251,0.268-0.551,0.463-0.873,0.586c-0.024,0.009,0,0.041,0.036,0.047
			c0.754,0.129,1.556-0.109,2.119-0.709c0.269-0.286,0.45-0.621,0.549-0.975c-0.211-0.489-0.528-0.839-0.872-0.896
			c-0.108,0.012-0.226,0.005-0.349-0.021C194.711,20.539,194.511,21.268,193.997,21.816z"/>
		<path fill="#FFFFFF" d="M209.753,106.369c-2.609-2.437-3.846-5.118-4.244-6.074c-0.096-0.23-0.012-0.149,0.055-0.048
			c0.992,1.501,2.306,2.386,3.458,2.905C209.419,104.916,209.753,106.369,209.753,106.369z"/>
		<path fill="#FFFFFF" d="M194.555,107.632c0.212-2.991,0.99-16.16-0.339-33.452c-0.065-0.85-0.196-1.606-0.188,0.051
			c0.028,6.148,0.066,20.21-1.3,30.716c-0.127,1.176-0.254,1.747-0.54,3.113l2.259,1.072
			C194.446,109.132,194.554,107.739,194.555,107.632z"/>
	</g>
	<path d="M179.608,106.631c0,0,4.584,0.107,7.607,2.525c3.024,2.418,6.295,4.884,11.292,4.098c5.146-0.81,9.005-2.835,11.292-6.766
		l-2.748-1.509c0,0-1.652,1.779-2.922,2.922c-1.271,1.144-4.685,2.065-7.48,1.684c-2.795-0.381-6.623-2.7-9.545-5.114
		C184.249,102.112,179.608,106.631,179.608,106.631z"/>
	<path d="M191.504,59.556c0.429,4.289-6.48,25.539-12.389,26.873l0.763,8.005l13.341-28.397
		C193.219,66.036,191.261,57.127,191.504,59.556z"/>
</g>
<g>
	<path stroke="#000000" stroke-width="0.35" d="M4.722,91.222c0-5.07,0-5.98-0.065-7.021c-0.065-1.105-0.325-1.625-1.397-1.853
		C3,82.284,2.447,82.252,2.155,82.252c-0.13,0-0.26-0.065-0.26-0.195c0-0.195,0.163-0.26,0.52-0.26c1.463,0,3.51,0.097,3.673,0.097
		c0.78,0,2.047-0.097,3.542-0.097c5.33,0,6.5,3.25,6.5,4.875c0,2.665-1.528,4.258-3.055,5.85c2.405,0.748,5.623,3.055,5.623,6.858
		c0,3.478-2.73,7.085-8.288,7.085c-0.748,0-4.063-0.195-4.323-0.195c-0.163,0-2.21,0.098-3.185,0.098c-0.357,0-0.52-0.065-0.52-0.26
		c0-0.097,0.065-0.195,0.26-0.195c0.292,0,0.683-0.065,0.975-0.13c0.65-0.13,0.813-0.845,0.942-1.788
		c0.163-1.365,0.163-3.933,0.163-7.053V91.222z M7.322,91.937c0,0.228,0.065,0.292,0.228,0.357c0.195,0.033,0.78,0.13,1.982,0.13
		c1.82,0,2.275-0.065,2.958-0.845c0.683-0.78,1.17-1.95,1.17-3.283c0-2.698-1.203-5.59-4.388-5.59c-0.357,0-1.04,0.033-1.56,0.163
		c-0.292,0.065-0.39,0.163-0.39,0.357V91.937z M7.322,95.382c0,2.502,0,6.533,0.033,7.02c0.098,1.593,0.098,2.048,1.105,2.535
		c0.877,0.423,2.275,0.488,2.86,0.488c1.755,0,4.583-0.943,4.583-4.615c0-1.95-0.65-4.778-3.153-6.5
		c-1.105-0.748-1.917-0.845-2.697-0.942c-0.423-0.065-2.048-0.065-2.535-0.065c-0.13,0-0.195,0.065-0.195,0.228V95.382z"/>
	<path stroke="#000000" stroke-width="0.35" d="M52.049,86.62c0.324-0.891,0.432-1.053,0.594-1.053c0.162,0,0.27,0.135,0.594,0.972
		c0.405,1.025,4.643,12.173,6.289,16.276c0.972,2.402,1.755,2.834,2.321,2.996c0.405,0.135,0.81,0.162,1.08,0.162
		c0.162,0,0.27,0.027,0.27,0.162c0,0.162-0.243,0.216-0.54,0.216c-0.405,0-2.375,0-4.238-0.054c-0.513-0.027-0.81-0.027-0.81-0.188
		c0-0.108,0.081-0.162,0.189-0.189c0.162-0.054,0.324-0.297,0.162-0.729l-2.51-6.64c-0.054-0.108-0.108-0.162-0.243-0.162h-5.803
		c-0.135,0-0.216,0.081-0.27,0.216l-1.62,4.778c-0.243,0.675-0.378,1.323-0.378,1.809c0,0.54,0.567,0.783,1.026,0.783h0.27
		c0.188,0,0.27,0.054,0.27,0.162c0,0.162-0.162,0.216-0.405,0.216c-0.648,0-1.809-0.081-2.105-0.081s-1.781,0.081-3.05,0.081
		c-0.351,0-0.513-0.054-0.513-0.216c0-0.108,0.108-0.162,0.243-0.162c0.189,0,0.566-0.027,0.783-0.054
		c1.242-0.162,1.781-1.188,2.267-2.537L52.049,86.62z M54.856,97.417c0.135,0,0.135-0.081,0.108-0.189L52.4,89.939
		c-0.135-0.405-0.27-0.405-0.405,0l-2.375,7.288c-0.054,0.135,0,0.189,0.081,0.189H54.856z"/>
	<path stroke="#000000" stroke-width="0.35" d="M94.573,98.577c0,3.968,0.108,5.695,0.594,6.182
		c0.432,0.432,1.133,0.621,3.239,0.621c1.43,0,2.618-0.027,3.266-0.81c0.351-0.432,0.621-1.107,0.702-1.62
		c0.027-0.216,0.081-0.351,0.243-0.351c0.135,0,0.162,0.108,0.162,0.405s-0.189,1.917-0.405,2.699
		c-0.189,0.621-0.27,0.729-1.701,0.729c-3.887,0-5.668-0.162-7.234-0.162c-0.108,0-0.567,0.027-1.107,0.027
		c-0.54,0.027-1.134,0.054-1.539,0.054c-0.297,0-0.432-0.054-0.432-0.216c0-0.081,0.054-0.162,0.216-0.162
		c0.243,0,0.567-0.054,0.81-0.108c0.54-0.108,0.675-0.702,0.783-1.484c0.135-1.134,0.135-3.267,0.135-5.857v-4.751
		c0-4.211,0-4.967-0.054-5.831c-0.054-0.917-0.27-1.35-1.161-1.539c-0.216-0.054-0.675-0.081-0.917-0.081
		c-0.108,0-0.216-0.054-0.216-0.162c0-0.162,0.135-0.216,0.432-0.216c1.215,0,2.915,0.081,3.05,0.081
		c0.135,0,2.105-0.081,2.915-0.081c0.297,0,0.432,0.054,0.432,0.216c0,0.108-0.108,0.162-0.216,0.162
		c-0.189,0-0.567,0.027-0.891,0.081c-0.783,0.135-0.999,0.594-1.053,1.539c-0.054,0.864-0.054,1.62-0.054,5.831V98.577z"/>
	<path stroke="#000000" stroke-width="0.35" d="M134.582,98.577c0,3.968,0.108,5.695,0.594,6.182
		c0.432,0.432,1.134,0.621,3.239,0.621c1.431,0,2.618-0.027,3.266-0.81c0.351-0.432,0.621-1.107,0.702-1.62
		c0.027-0.216,0.081-0.351,0.243-0.351c0.135,0,0.162,0.108,0.162,0.405s-0.189,1.917-0.405,2.699
		c-0.189,0.621-0.27,0.729-1.701,0.729c-3.887,0-5.668-0.162-7.234-0.162c-0.108,0-0.567,0.027-1.106,0.027
		c-0.54,0.027-1.134,0.054-1.539,0.054c-0.297,0-0.432-0.054-0.432-0.216c0-0.081,0.054-0.162,0.216-0.162
		c0.243,0,0.567-0.054,0.81-0.108c0.54-0.108,0.675-0.702,0.783-1.484c0.135-1.134,0.135-3.267,0.135-5.857v-4.751
		c0-4.211,0-4.967-0.054-5.831c-0.054-0.917-0.27-1.35-1.161-1.539c-0.216-0.054-0.675-0.081-0.918-0.081
		c-0.108,0-0.216-0.054-0.216-0.162c0-0.162,0.135-0.216,0.432-0.216c1.215,0,2.916,0.081,3.05,0.081s2.105-0.081,2.915-0.081
		c0.297,0,0.432,0.054,0.432,0.216c0,0.108-0.108,0.162-0.216,0.162c-0.189,0-0.567,0.027-0.891,0.081
		c-0.783,0.135-0.999,0.594-1.052,1.539c-0.054,0.864-0.054,1.62-0.054,5.831V98.577z"/>
	<path stroke="#000000" stroke-width="0.35" d="M237.623,105.934c-0.455-0.228-0.487-0.357-0.487-1.235
		c0-1.625,0.13-2.925,0.162-3.445c0.032-0.357,0.098-0.52,0.26-0.52c0.195,0,0.228,0.097,0.228,0.357c0,0.292,0,0.748,0.098,1.203
		c0.487,2.405,2.633,3.315,4.811,3.315c3.12,0,4.647-2.243,4.647-4.323c0-2.242-0.942-3.542-3.738-5.85l-1.462-1.203
		c-3.444-2.828-4.226-4.842-4.226-7.053c0-3.478,2.601-5.85,6.729-5.85c1.267,0,2.21,0.13,3.022,0.325
		c0.617,0.13,0.877,0.163,1.138,0.163c0.26,0,0.324,0.065,0.324,0.227c0,0.163-0.13,1.235-0.13,3.445
		c0,0.52-0.064,0.748-0.227,0.748c-0.195,0-0.229-0.163-0.261-0.422c-0.032-0.39-0.228-1.268-0.422-1.625
		c-0.195-0.358-1.072-1.723-4.063-1.723c-2.243,0-3.998,1.397-3.998,3.77c0,1.853,0.91,2.958,3.965,5.46l0.91,0.715
		c3.835,3.022,4.745,5.038,4.745,7.638c0,1.333-0.521,3.803-2.763,5.395c-1.397,0.975-3.152,1.365-4.908,1.365
		C240.451,106.812,238.955,106.584,237.623,105.934z"/>
	<path stroke="#000000" stroke-width="0.35" d="M280.378,98.512c0,2.591,0,4.724,0.135,5.857c0.081,0.783,0.243,1.376,1.054,1.484
		c0.377,0.054,0.972,0.108,1.214,0.108c0.162,0,0.216,0.081,0.216,0.162c0,0.135-0.135,0.216-0.432,0.216
		c-1.484,0-3.186-0.081-3.32-0.081s-1.836,0.081-2.645,0.081c-0.297,0-0.433-0.054-0.433-0.216c0-0.081,0.054-0.162,0.216-0.162
		c0.243,0,0.567-0.054,0.81-0.108c0.541-0.108,0.675-0.702,0.783-1.484c0.136-1.134,0.136-3.266,0.136-5.857V87.094l-3.996,0.054
		c-1.673,0.027-2.32,0.216-2.753,0.864c-0.297,0.459-0.378,0.648-0.459,0.837c-0.081,0.216-0.161,0.27-0.27,0.27
		c-0.081,0-0.136-0.081-0.136-0.243c0-0.27,0.54-2.591,0.594-2.807c0.055-0.162,0.162-0.513,0.271-0.513
		c0.188,0,0.459,0.27,1.188,0.324c0.783,0.081,1.809,0.135,2.133,0.135h10.122c0.863,0,1.484-0.081,1.916-0.135
		c0.405-0.081,0.648-0.135,0.756-0.135c0.136,0,0.136,0.162,0.136,0.324c0,0.81-0.081,2.672-0.081,2.969
		c0,0.243-0.081,0.351-0.189,0.351c-0.135,0-0.188-0.081-0.216-0.459l-0.026-0.297c-0.108-0.81-0.729-1.431-3.32-1.485l-3.401-0.054
		V98.512z"/>
	<path stroke="#000000" stroke-width="0.35" d="M312.292,86.608c0.324-0.891,0.432-1.053,0.593-1.053
		c0.162,0,0.271,0.135,0.595,0.972c0.405,1.026,4.643,12.174,6.289,16.276c0.972,2.402,1.754,2.834,2.321,2.997
		c0.405,0.135,0.81,0.162,1.08,0.162c0.161,0,0.27,0.027,0.27,0.162c0,0.162-0.242,0.216-0.54,0.216c-0.404,0-2.375,0-4.237-0.054
		c-0.513-0.027-0.81-0.027-0.81-0.189c0-0.108,0.08-0.162,0.188-0.189c0.162-0.054,0.324-0.297,0.162-0.729l-2.511-6.64
		c-0.054-0.108-0.107-0.162-0.242-0.162h-5.804c-0.136,0-0.216,0.081-0.271,0.216l-1.619,4.777
		c-0.243,0.675-0.378,1.323-0.378,1.809c0,0.54,0.567,0.783,1.026,0.783h0.27c0.188,0,0.27,0.054,0.27,0.162
		c0,0.162-0.162,0.216-0.405,0.216c-0.647,0-1.809-0.081-2.104-0.081c-0.297,0-1.782,0.081-3.051,0.081
		c-0.351,0-0.513-0.054-0.513-0.216c0-0.108,0.108-0.162,0.243-0.162c0.189,0,0.566-0.027,0.782-0.054
		c1.242-0.162,1.782-1.188,2.268-2.538L312.292,86.608z M315.098,97.405c0.136,0,0.136-0.081,0.108-0.189l-2.564-7.288
		c-0.136-0.405-0.271-0.405-0.404,0l-2.376,7.288c-0.055,0.135,0,0.189,0.081,0.189H315.098z"/>
	<path stroke="#000000" stroke-width="0.35" d="M347.632,98.512c0,2.591,0,4.724,0.135,5.857c0.081,0.783,0.243,1.376,1.054,1.484
		c0.377,0.054,0.972,0.108,1.214,0.108c0.162,0,0.216,0.081,0.216,0.162c0,0.135-0.135,0.216-0.432,0.216
		c-1.484,0-3.185-0.081-3.32-0.081c-0.135,0-1.835,0.081-2.645,0.081c-0.298,0-0.433-0.054-0.433-0.216
		c0-0.081,0.055-0.162,0.217-0.162c0.242,0,0.566-0.054,0.809-0.108c0.541-0.108,0.675-0.702,0.783-1.484
		c0.136-1.134,0.136-3.266,0.136-5.857V87.094l-3.996,0.054c-1.673,0.027-2.32,0.216-2.753,0.864
		c-0.297,0.459-0.378,0.648-0.458,0.837c-0.082,0.216-0.162,0.27-0.271,0.27c-0.081,0-0.136-0.081-0.136-0.243
		c0-0.27,0.54-2.591,0.595-2.807c0.054-0.162,0.162-0.513,0.27-0.513c0.189,0,0.459,0.27,1.188,0.324
		c0.782,0.081,1.808,0.135,2.132,0.135h10.122c0.864,0,1.484-0.081,1.917-0.135c0.404-0.081,0.647-0.135,0.755-0.135
		c0.136,0,0.136,0.162,0.136,0.324c0,0.81-0.081,2.672-0.081,2.969c0,0.243-0.081,0.351-0.189,0.351
		c-0.135,0-0.188-0.081-0.216-0.459l-0.026-0.297c-0.108-0.81-0.729-1.431-3.32-1.485l-3.401-0.054V98.512z"/>
	<path stroke="#000000" stroke-width="0.35" d="M376.738,93.761c0-4.21,0-4.966-0.054-5.831c-0.055-0.917-0.271-1.35-1.16-1.538
		c-0.217-0.054-0.676-0.081-0.919-0.081c-0.107,0-0.216-0.054-0.216-0.162c0-0.162,0.135-0.216,0.433-0.216
		c1.214,0,2.915,0.081,3.05,0.081c0.189,0,5.561,0,6.182-0.027c0.513-0.027,0.944-0.081,1.16-0.135
		c0.135-0.027,0.243-0.135,0.379-0.135c0.08,0,0.107,0.108,0.107,0.243c0,0.189-0.136,0.513-0.216,1.269
		c-0.027,0.27-0.081,1.458-0.136,1.782c-0.026,0.135-0.081,0.297-0.188,0.297c-0.162,0-0.216-0.135-0.216-0.351
		c0-0.189-0.026-0.648-0.162-0.972c-0.189-0.432-0.459-0.756-1.916-0.917c-0.459-0.054-3.401-0.081-3.698-0.081
		c-0.108,0-0.162,0.081-0.162,0.27v7.45c0,0.189,0.026,0.27,0.162,0.27c0.351,0,3.671,0,4.292-0.054
		c0.647-0.054,1.025-0.108,1.269-0.378c0.189-0.216,0.297-0.351,0.405-0.351c0.08,0,0.134,0.054,0.134,0.216
		s-0.134,0.621-0.216,1.512c-0.054,0.54-0.107,1.539-0.107,1.728c0,0.216,0,0.513-0.189,0.513c-0.135,0-0.188-0.108-0.188-0.243
		c0-0.27,0-0.54-0.107-0.891c-0.108-0.378-0.352-0.836-1.404-0.945c-0.729-0.081-3.401-0.135-3.86-0.135
		c-0.135,0-0.188,0.081-0.188,0.189v2.375c0,0.917-0.026,4.049,0,4.616c0.081,1.862,0.485,2.213,3.132,2.213
		c0.701,0,1.889,0,2.591-0.297s1.025-0.837,1.214-1.944c0.055-0.297,0.108-0.404,0.244-0.404c0.161,0,0.161,0.216,0.161,0.404
		c0,0.216-0.216,2.052-0.351,2.619c-0.189,0.702-0.404,0.702-1.458,0.702c-4.075,0-5.884-0.162-6.667-0.162
		c-0.054,0-0.513,0.027-1.079,0.027c-0.541,0.027-1.161,0.054-1.565,0.054c-0.297,0-0.433-0.054-0.433-0.216
		c0-0.081,0.054-0.162,0.216-0.162c0.243,0,0.566-0.054,0.811-0.108c0.539-0.108,0.674-0.702,0.782-1.484
		c0.135-1.134,0.135-3.266,0.135-5.857V93.761z"/>
	<path stroke="#000000" stroke-width="0.35" d="M4.681,138.619c0-5.07,0-5.98-0.065-7.02c-0.065-1.105-0.325-1.625-1.397-1.853
		c-0.26-0.065-0.813-0.098-1.105-0.098c-0.13,0-0.26-0.065-0.26-0.195c0-0.195,0.163-0.26,0.52-0.26
		c1.462,0,3.445,0.098,3.738,0.098s2.242-0.098,3.217-0.098c0.357,0,0.52,0.065,0.52,0.26c0,0.13-0.13,0.195-0.26,0.195
		c-0.228,0-0.423,0.033-0.813,0.098c-0.878,0.13-1.138,0.715-1.203,1.853c-0.065,1.04-0.065,1.95-0.065,7.02v4.55
		c0,4.68,1.04,6.695,2.438,8.028c1.593,1.495,3.055,1.788,4.908,1.788c1.982,0,3.933-0.942,5.103-2.34
		c1.495-1.853,1.885-4.615,1.885-7.962v-4.063c0-5.07,0-5.98-0.065-7.02c-0.065-1.105-0.325-1.625-1.398-1.853
		c-0.26-0.065-0.813-0.098-1.105-0.098c-0.13,0-0.26-0.065-0.26-0.195c0-0.195,0.163-0.26,0.52-0.26c1.462,0,3.25,0.098,3.445,0.098
		c0.228,0,1.755-0.098,2.73-0.098c0.357,0,0.52,0.065,0.52,0.26c0,0.13-0.13,0.195-0.26,0.195c-0.228,0-0.422,0-0.813,0.098
		c-0.877,0.163-1.138,0.715-1.203,1.853c-0.065,1.04-0.065,1.95-0.065,7.02v3.478c0,3.51-0.39,7.411-2.99,9.718
		c-2.34,2.081-4.777,2.405-6.695,2.405c-1.105,0-4.388-0.13-6.695-2.308c-1.593-1.527-2.828-3.803-2.828-8.548V138.619z"/>
	<path stroke="#000000" stroke-width="0.35" d="M55.384,150.077c0.054,2.213,0.324,2.916,1.053,3.131
		c0.513,0.135,1.107,0.162,1.35,0.162c0.135,0,0.216,0.054,0.216,0.162c0,0.162-0.162,0.216-0.486,0.216
		c-1.539,0-2.618-0.081-2.861-0.081c-0.243,0-1.377,0.081-2.591,0.081c-0.27,0-0.432-0.027-0.432-0.216
		c0-0.108,0.081-0.162,0.216-0.162c0.216,0,0.702-0.027,1.107-0.162c0.675-0.189,0.81-0.972,0.81-3.428l0.027-15.467
		c0-1.053,0.081-1.35,0.297-1.35c0.216,0,0.674,0.594,0.944,0.864c0.405,0.459,4.427,4.805,8.584,9.258
		c2.672,2.861,5.614,6.155,6.478,7.045l-0.297-13.712c-0.027-1.754-0.216-2.349-1.053-2.564c-0.486-0.108-1.106-0.135-1.322-0.135
		c-0.189,0-0.216-0.081-0.216-0.189c0-0.162,0.216-0.189,0.54-0.189c1.214,0,2.51,0.081,2.807,0.081s1.188-0.081,2.294-0.081
		c0.297,0,0.486,0.027,0.486,0.189c0,0.108-0.108,0.189-0.297,0.189c-0.135,0-0.324,0-0.648,0.081
		c-0.891,0.189-0.999,0.783-0.999,2.402l-0.054,15.818c0,1.781-0.054,1.916-0.243,1.916c-0.216,0-0.54-0.297-1.971-1.727
		c-0.297-0.27-4.184-4.238-7.045-7.315c-3.131-3.374-6.182-6.775-7.045-7.747L55.384,150.077z"/>
	<path stroke="#000000" stroke-width="0.35" d="M106.786,145.92c0,2.591,0,4.724,0.135,5.857c0.081,0.783,0.243,1.376,1.052,1.484
		c0.378,0.054,0.972,0.108,1.215,0.108c0.162,0,0.216,0.081,0.216,0.162c0,0.135-0.135,0.216-0.432,0.216
		c-1.485,0-3.185-0.081-3.32-0.081c-0.135,0-1.835,0.081-2.645,0.081c-0.297,0-0.432-0.054-0.432-0.216
		c0-0.081,0.054-0.162,0.216-0.162c0.243,0,0.567-0.054,0.81-0.108c0.54-0.108,0.675-0.702,0.783-1.484
		c0.135-1.134,0.135-3.266,0.135-5.857v-4.751c0-4.21,0-4.966-0.054-5.83c-0.054-0.918-0.324-1.376-0.918-1.512
		c-0.297-0.081-0.648-0.108-0.836-0.108c-0.108,0-0.216-0.054-0.216-0.162c0-0.162,0.135-0.216,0.432-0.216
		c0.891,0,2.591,0.081,2.726,0.081c0.135,0,1.835-0.081,2.646-0.081c0.297,0,0.432,0.054,0.432,0.216
		c0,0.108-0.108,0.162-0.216,0.162c-0.189,0-0.351,0.027-0.675,0.081c-0.729,0.135-0.945,0.594-0.999,1.539
		c-0.054,0.864-0.054,1.62-0.054,5.83V145.92z"/>
	<path stroke="#000000" stroke-width="0.35" d="M145.205,150.455c1.566-3.617,5.183-13.037,5.777-14.981
		c0.135-0.405,0.243-0.783,0.243-1.026c0-0.216-0.081-0.485-0.351-0.621c-0.324-0.108-0.729-0.108-1.025-0.108
		c-0.162,0-0.297-0.027-0.297-0.162c0-0.162,0.162-0.216,0.594-0.216c1.08,0,2.321,0.081,2.645,0.081
		c0.162,0,1.323-0.081,2.105-0.081c0.297,0,0.459,0.054,0.459,0.189c0,0.135-0.108,0.189-0.324,0.189c-0.189,0-0.783,0-1.296,0.324
		c-0.351,0.243-0.756,0.702-1.484,2.538c-0.297,0.756-1.646,3.995-3.023,7.315c-1.646,3.941-2.861,6.856-3.482,8.179
		c-0.756,1.62-0.864,2.051-1.134,2.051c-0.324,0-0.459-0.378-0.972-1.673l-6.613-16.546c-0.594-1.512-0.999-1.809-1.943-2.079
		c-0.405-0.108-0.864-0.108-1.026-0.108s-0.216-0.081-0.216-0.189c0-0.162,0.27-0.189,0.702-0.189c1.296,0,2.834,0.081,3.158,0.081
		c0.27,0,1.485-0.081,2.51-0.081c0.486,0,0.729,0.054,0.729,0.189c0,0.135-0.081,0.189-0.27,0.189c-0.297,0-0.783,0.027-1.026,0.135
		c-0.297,0.135-0.351,0.351-0.351,0.54c0,0.351,0.324,1.188,0.729,2.24L145.205,150.455z"/>
	<path stroke="#000000" stroke-width="0.35" d="M183.545,141.169c0-4.21,0-4.966-0.054-5.83c-0.054-0.918-0.27-1.35-1.161-1.539
		c-0.216-0.054-0.675-0.081-0.917-0.081c-0.108,0-0.216-0.054-0.216-0.162c0-0.162,0.135-0.216,0.432-0.216
		c1.215,0,2.915,0.081,3.05,0.081c0.189,0,5.561,0,6.181-0.027c0.513-0.027,0.945-0.081,1.161-0.135
		c0.135-0.027,0.243-0.135,0.378-0.135c0.081,0,0.108,0.108,0.108,0.243c0,0.189-0.135,0.513-0.216,1.269
		c-0.027,0.27-0.081,1.458-0.135,1.782c-0.027,0.135-0.081,0.297-0.189,0.297c-0.162,0-0.216-0.135-0.216-0.351
		c0-0.189-0.027-0.647-0.162-0.972c-0.189-0.432-0.459-0.756-1.917-0.917c-0.459-0.054-3.401-0.081-3.698-0.081
		c-0.108,0-0.162,0.081-0.162,0.27v7.45c0,0.189,0.027,0.27,0.162,0.27c0.351,0,3.671,0,4.292-0.054
		c0.648-0.054,1.026-0.107,1.269-0.378c0.189-0.216,0.297-0.351,0.405-0.351c0.081,0,0.135,0.054,0.135,0.216
		s-0.135,0.621-0.216,1.512c-0.054,0.54-0.108,1.539-0.108,1.728c0,0.216,0,0.513-0.189,0.513c-0.135,0-0.188-0.108-0.188-0.243
		c0-0.27,0-0.54-0.108-0.891c-0.108-0.377-0.351-0.836-1.403-0.944c-0.729-0.081-3.401-0.135-3.86-0.135
		c-0.135,0-0.189,0.081-0.189,0.189v2.375c0,0.917-0.027,4.049,0,4.616c0.081,1.863,0.486,2.213,3.131,2.213
		c0.702,0,1.89,0,2.591-0.297s1.026-0.837,1.215-1.943c0.054-0.297,0.108-0.405,0.243-0.405c0.162,0,0.162,0.216,0.162,0.405
		c0,0.216-0.216,2.051-0.351,2.618c-0.189,0.702-0.405,0.702-1.458,0.702c-4.076,0-5.884-0.162-6.667-0.162
		c-0.054,0-0.513,0.027-1.08,0.027c-0.54,0.027-1.161,0.054-1.566,0.054c-0.297,0-0.432-0.054-0.432-0.216
		c0-0.081,0.054-0.162,0.216-0.162c0.243,0,0.567-0.054,0.81-0.108c0.54-0.108,0.675-0.702,0.783-1.484
		c0.135-1.134,0.135-3.266,0.135-5.857V141.169z"/>
	<path stroke="#000000" stroke-width="0.35" d="M225.391,141.169c0-4.21,0-4.966-0.054-5.83c-0.054-0.918-0.271-1.35-1.161-1.539
		c-0.216-0.054-0.675-0.081-0.917-0.081c-0.108,0-0.217-0.054-0.217-0.162c0-0.162,0.136-0.216,0.433-0.216
		c1.214,0,2.915,0.081,3.05,0.081c0.297,0,2.349-0.081,3.185-0.081c1.701,0,3.51,0.162,4.94,1.188
		c0.675,0.486,1.862,1.809,1.862,3.671c0,1.998-0.837,3.995-3.266,6.235c2.213,2.834,4.049,5.237,5.614,6.91
		c1.457,1.539,2.618,1.836,3.293,1.944c0.513,0.081,0.891,0.081,1.053,0.081c0.135,0,0.243,0.081,0.243,0.162
		c0,0.162-0.162,0.216-0.648,0.216h-1.916c-1.512,0-2.187-0.135-2.889-0.513c-1.16-0.621-2.104-1.943-3.644-3.968
		c-1.134-1.485-2.402-3.293-2.942-3.995c-0.107-0.108-0.189-0.162-0.352-0.162l-3.319-0.054c-0.135,0-0.189,0.081-0.189,0.216v0.648
		c0,2.591,0,4.724,0.136,5.857c0.081,0.783,0.243,1.376,1.052,1.484c0.379,0.054,0.972,0.108,1.216,0.108
		c0.162,0,0.215,0.081,0.215,0.162c0,0.135-0.135,0.216-0.431,0.216c-1.485,0-3.187-0.081-3.32-0.081
		c-0.027,0-1.729,0.081-2.538,0.081c-0.297,0-0.432-0.054-0.432-0.216c0-0.081,0.054-0.162,0.216-0.162
		c0.243,0,0.566-0.054,0.81-0.108c0.54-0.108,0.676-0.702,0.783-1.484c0.135-1.134,0.135-3.266,0.135-5.857V141.169z
		 M227.55,143.518c0,0.135,0.055,0.243,0.189,0.324c0.405,0.243,1.646,0.432,2.834,0.432c0.647,0,1.403-0.081,2.024-0.513
		c0.944-0.648,1.646-2.106,1.646-4.157c0-3.374-1.781-5.398-4.669-5.398c-0.811,0-1.539,0.081-1.809,0.162
		c-0.136,0.054-0.217,0.162-0.217,0.324V143.518z"/>
	<path stroke="#000000" stroke-width="0.35" d="M267.239,153.397c-0.377-0.189-0.404-0.297-0.404-1.026
		c0-1.35,0.107-2.429,0.135-2.861c0.027-0.297,0.081-0.432,0.216-0.432c0.162,0,0.188,0.081,0.188,0.297
		c0,0.243,0,0.621,0.081,0.999c0.405,1.998,2.188,2.753,3.996,2.753c2.591,0,3.859-1.862,3.859-3.59
		c0-1.863-0.783-2.942-3.104-4.859l-1.215-0.999c-2.861-2.349-3.509-4.022-3.509-5.858c0-2.888,2.16-4.858,5.588-4.858
		c1.053,0,1.835,0.108,2.51,0.27c0.513,0.108,0.729,0.135,0.945,0.135s0.27,0.054,0.27,0.189s-0.107,1.026-0.107,2.861
		c0,0.432-0.054,0.621-0.189,0.621c-0.161,0-0.188-0.135-0.216-0.351c-0.027-0.324-0.189-1.053-0.351-1.35
		c-0.162-0.297-0.892-1.431-3.374-1.431c-1.863,0-3.32,1.161-3.32,3.131c0,1.538,0.756,2.456,3.293,4.535l0.756,0.594
		c3.186,2.51,3.941,4.184,3.941,6.343c0,1.106-0.433,3.158-2.295,4.481c-1.161,0.81-2.618,1.133-4.076,1.133
		C269.587,154.126,268.346,153.937,267.239,153.397z"/>
	<path stroke="#000000" stroke-width="0.35" d="M307.814,145.92c0,2.591,0,4.724,0.136,5.857c0.08,0.783,0.242,1.376,1.053,1.484
		c0.378,0.054,0.972,0.108,1.215,0.108c0.162,0,0.215,0.081,0.215,0.162c0,0.135-0.135,0.216-0.432,0.216
		c-1.484,0-3.185-0.081-3.32-0.081c-0.134,0-1.835,0.081-2.645,0.081c-0.297,0-0.432-0.054-0.432-0.216
		c0-0.081,0.054-0.162,0.215-0.162c0.244,0,0.567-0.054,0.811-0.108c0.54-0.108,0.675-0.702,0.783-1.484
		c0.135-1.134,0.135-3.266,0.135-5.857v-4.751c0-4.21,0-4.966-0.055-5.83c-0.054-0.918-0.323-1.376-0.917-1.512
		c-0.298-0.081-0.647-0.108-0.837-0.108c-0.108,0-0.217-0.054-0.217-0.162c0-0.162,0.136-0.216,0.433-0.216
		c0.891,0,2.592,0.081,2.726,0.081c0.136,0,1.836-0.081,2.646-0.081c0.297,0,0.433,0.054,0.433,0.216
		c0,0.108-0.108,0.162-0.216,0.162c-0.189,0-0.352,0.027-0.675,0.081c-0.729,0.135-0.945,0.594-0.999,1.539
		c-0.055,0.864-0.055,1.62-0.055,5.83V145.92z"/>
	<path stroke="#000000" stroke-width="0.35" d="M343.506,145.92c0,2.591,0,4.724,0.135,5.857c0.081,0.783,0.243,1.376,1.053,1.484
		c0.378,0.054,0.972,0.108,1.215,0.108c0.162,0,0.216,0.081,0.216,0.162c0,0.135-0.135,0.216-0.433,0.216
		c-1.483,0-3.185-0.081-3.319-0.081s-1.835,0.081-2.646,0.081c-0.297,0-0.432-0.054-0.432-0.216c0-0.081,0.054-0.162,0.216-0.162
		c0.243,0,0.567-0.054,0.81-0.108c0.54-0.108,0.675-0.702,0.783-1.484c0.135-1.134,0.135-3.266,0.135-5.857v-11.418l-3.995,0.054
		c-1.673,0.027-2.321,0.216-2.753,0.864c-0.297,0.458-0.378,0.647-0.459,0.836c-0.081,0.216-0.162,0.27-0.27,0.27
		c-0.082,0-0.136-0.081-0.136-0.243c0-0.27,0.54-2.592,0.595-2.808c0.053-0.162,0.162-0.513,0.27-0.513
		c0.189,0,0.459,0.27,1.188,0.324c0.783,0.081,1.809,0.135,2.133,0.135h10.122c0.863,0,1.484-0.081,1.917-0.135
		c0.404-0.081,0.647-0.135,0.755-0.135c0.136,0,0.136,0.162,0.136,0.324c0,0.81-0.082,2.672-0.082,2.969
		c0,0.243-0.08,0.351-0.188,0.351c-0.135,0-0.189-0.081-0.216-0.459l-0.026-0.297c-0.108-0.81-0.729-1.431-3.321-1.484l-3.4-0.054
		V145.92z"/>
	<path stroke="#000000" stroke-width="0.35" d="M378.713,146.757c0-1.458-0.271-2.052-0.621-2.834
		c-0.189-0.432-3.807-6.37-4.751-7.774c-0.675-0.999-1.35-1.673-1.836-1.998c-0.404-0.27-0.917-0.432-1.16-0.432
		c-0.135,0-0.27-0.054-0.27-0.189c0-0.108,0.107-0.189,0.351-0.189c0.513,0,2.537,0.081,2.672,0.081
		c0.189,0,1.215-0.081,2.268-0.081c0.297,0,0.352,0.081,0.352,0.189s-0.162,0.135-0.405,0.243c-0.216,0.108-0.351,0.27-0.351,0.486
		c0,0.324,0.135,0.647,0.351,1.052c0.432,0.783,4.48,7.747,4.966,8.53c0.514-1.134,3.941-7.045,4.481-7.936
		c0.351-0.567,0.459-1.026,0.459-1.377c0-0.378-0.108-0.675-0.433-0.756c-0.242-0.081-0.404-0.135-0.404-0.27
		c0-0.108,0.162-0.162,0.432-0.162c0.702,0,1.566,0.081,1.781,0.081c0.162,0,2.106-0.081,2.619-0.081
		c0.188,0,0.351,0.054,0.351,0.162c0,0.135-0.135,0.216-0.351,0.216c-0.297,0-0.811,0.108-1.242,0.378
		c-0.54,0.324-0.837,0.648-1.43,1.376c-0.892,1.08-4.67,7.423-5.156,8.584c-0.405,0.972-0.405,1.808-0.405,2.699v2.321
		c0,0.432,0,1.565,0.082,2.699c0.054,0.783,0.297,1.376,1.105,1.484c0.379,0.054,0.972,0.108,1.216,0.108
		c0.162,0,0.215,0.081,0.215,0.162c0,0.135-0.135,0.216-0.431,0.216c-1.485,0-3.187-0.081-3.321-0.081s-1.835,0.081-2.645,0.081
		c-0.297,0-0.432-0.054-0.432-0.216c0-0.081,0.054-0.162,0.215-0.162c0.244,0,0.567-0.054,0.811-0.108
		c0.539-0.108,0.783-0.702,0.836-1.484c0.082-1.134,0.082-2.268,0.082-2.699V146.757z"/>
	<path d="M392.012,151.856c0-1.735,1.406-3.014,3.07-3.014c1.646,0,3.054,1.279,3.054,3.014c0,1.751-1.407,3.03-3.054,3.03
		C393.418,154.886,392.012,153.607,392.012,151.856z M395.083,154.383c1.367,0,2.445-1.071,2.445-2.527
		c0-1.431-1.078-2.51-2.445-2.51c-1.384,0-2.464,1.079-2.464,2.51C392.619,153.312,393.699,154.383,395.083,154.383z
		 M394.442,153.607h-0.527v-3.486h1.327c0.823,0,1.231,0.304,1.231,0.991c0,0.624-0.392,0.896-0.903,0.96l0.991,1.535h-0.592
		l-0.919-1.511h-0.608V153.607z M395.074,151.648c0.447,0,0.848-0.032,0.848-0.568c0-0.432-0.392-0.512-0.76-0.512h-0.72v1.08
		H395.074z"/>
</g>
</svg>
