<?xml version="1.0" encoding="UTF-8" standalone="no"?>
<svg
   xmlns:dc="http://purl.org/dc/elements/1.1/"
   xmlns:cc="http://creativecommons.org/ns#"
   xmlns:rdf="http://www.w3.org/1999/02/22-rdf-syntax-ns#"
   xmlns:svg="http://www.w3.org/2000/svg"
   xmlns="http://www.w3.org/2000/svg"
   viewBox="0 0 162.90668 175.93333"
   height="175.93333"
   width="162.90668"
   xml:space="preserve"
   id="svg2"
   version="1.1"><metadata
     id="metadata8"><rdf:RDF><cc:Work
         rdf:about=""><dc:format>image/svg+xml</dc:format><dc:type
           rdf:resource="http://purl.org/dc/dcmitype/StillImage" /></cc:Work></rdf:RDF></metadata><defs
     id="defs6" /><g
     transform="matrix(1.3333333,0,0,-1.3333333,0,175.93333)"
     id="g10"><g
       transform="scale(0.1)"
       id="g12"><path
         id="path14"
         style="fill:#231f20;fill-opacity:1;fill-rule:nonzero;stroke:none"
         d="M 0,436.504 H 68.3984 V 7.53906 L 0,7.53906 V 436.504" /><path
         id="path16"
         style="fill:#231f20;fill-opacity:1;fill-rule:nonzero;stroke:none"
         d="m 141.414,151.879 v 284.625 h 68.399 V 158.262 c 0,-65.512 19.718,-97.3909 73.625,-97.3909 53.332,0 73.039,31.8789 73.039,96.2189 V 436.504 H 421.98 V 153.039 C 421.98,59.7109 380.82,0 282.273,0 182.566,0 141.414,57.9688 141.414,151.879" /><path
         id="path18"
         style="fill:#231f20;fill-opacity:1;fill-rule:nonzero;stroke:none"
         d="m 616.719,227.82 c 51.594,0 75.359,20.871 75.359,74.782 0,51.586 -23.765,71.293 -75.933,71.293 H 559.324 V 227.82 Z M 492.09,436.504 h 124.629 c 78.84,0 140.859,-35.363 140.859,-132.164 0,-103.77 -67.82,-135.649 -143.176,-135.649 H 559.324 V 7.53906 H 492.09 V 436.504" /><path
         id="path20"
         style="fill:#231f20;fill-opacity:1;fill-rule:nonzero;stroke:none"
         d="m 799.863,151.879 v 284.625 h 68.399 V 158.262 c 0,-65.512 19.715,-97.3909 73.625,-97.3909 53.328,0 73.033,31.8789 73.033,96.2189 v 279.414 h 65.51 V 153.039 C 1080.43,59.7109 1039.27,0 940.723,0 841.016,0 799.863,57.9688 799.863,151.879" /><path
         id="path22"
         style="fill:#231f20;fill-opacity:1;fill-rule:nonzero;stroke:none"
         d="m 1153.44,436.504 h 68.4 V 7.53906 h -68.4 V 436.504" /><path
         id="path24"
         style="fill:#a31934;fill-opacity:1;fill-rule:nonzero;stroke:none"
         d="M 302.762,601.742 H 913.848 V 1319.53 H 302.762 V 601.742" /><path
         id="path26"
         style="fill:#ffffff;fill-opacity:1;fill-rule:nonzero;stroke:none"
         d="m 677.055,1146.09 v -37.92 h 26.242 V 896.945 h -55.5 v 278.185 h 29.504 v 37.97 H 538.867 v -37.97 h 29.5 V 896.945 h -56.105 v 211.225 h 26.23 v 37.92 H 408.281 v -37.92 h 29.418 V 863.586 l 47.852,-48.852 h 82.816 v -56.367 h -29.398 v -48.855 h 138.222 v 48.855 h -29.394 v 56.367 h 82.141 l 47.867,48.852 v 244.584 h 29.519 v 37.92 H 677.055" /></g></g></svg>