<svg xmlns="http://www.w3.org/2000/svg" height="129.47" viewBox="0 0 250.00024 129.4713" width="250"><g transform="matrix(1.25 0 0 -1.25 -289.65 826.71)"><g transform="matrix(1.052 0 0 1.052 -16.497 -30.937)"><path d="m0.90625 0.83008v3.4141h1.3184c3.9572 0 5.0449 1.6291 5.0449 5.8965v28.939c0 4.2674-1.0877 5.8965-5.0449 5.8965h-1.3184v3.4141c3.5702-0.1551 7.0617-0.15625 10.629-0.15625 3.5687 0 7.1383 0.0012 10.707 0.15625v-3.4141h-1.2402c-4.0355 0-5.123-1.5523-5.123-5.8965v-11.328h6.3633c11.558 0 17.146-4.0333 17.146-13.422 0-9.3118-6.051-13.5-18.543-13.5h-19.939zm14.973 4.498h4.7344c6.8257 0 10.395 3.1031 10.395 8.8477 0 6.3635-3.4116 9.3887-10.471 9.3887h-4.6582v-18.236zm26.33 5.0117v2.7324h0.99609c2.73 0 3.4141 1.4899 3.4141 4.7168v17.441c0 9.2485 5.1487 14.029 15.018 14.029 10.489 0 14.711-4.5943 14.711-14.898v-16.572c0-3.2902 0.74731-4.7168 3.4141-4.7168h1.1191v-2.7324c-2.4228 0.06325-4.9056 0.125-7.3887 0.125-2.5433 0-5.0896-0.06175-7.7578-0.125v2.7324h0.99414c3.5988 0 4.2832 1.2407 4.2832 4.9043v16.758c0 6.9507-2.2354 10.18-8.7539 10.18-6.6405 0-8.8125-3.229-8.8125-10.305v-16.82c0-3.5356 0.62304-4.7168 4.0352-4.7168h1.0547v-2.7324c-2.6698 0.06325-5.3384 0.125-8.0684 0.125-2.7315 0-5.4661-0.06175-8.2578-0.125zm121.54 0v2.7324h0.99609c2.7315 0 3.4141 1.4899 3.4141 4.7168v17.441c0 9.2485 5.1495 14.029 15.021 14.029 10.486 0 14.709-4.5943 14.709-14.898v-16.572c0-3.2902 0.74474-4.7168 3.416-4.7168h1.1133v-2.7324c-2.4228 0.06325-4.9028 0.125-7.3828 0.125-2.5478 0-5.0905-0.06175-7.7617-0.125v2.7324h0.99609c3.5973 0 4.2812 1.2407 4.2812 4.9043v16.758c0 6.9507-2.2364 10.18-8.752 10.18-6.6435 0-8.8145-3.229-8.8145-10.305v-16.82c0-3.5356 0.62305-4.7168 4.0352-4.7168h1.0547v-2.7324c-2.6682 0.06325-5.3403 0.125-8.0703 0.125-2.733 0-5.4641-0.06175-8.2559-0.125zm-79.4 0.002v2.7305h0.99609c3.1652 0 4.0957 1.3032 4.0957 4.7168v23.154c0 3.4754-0.8703 4.7168-4.0957 4.7168h-0.99609v2.7285c2.8565-0.122 5.6489-0.12109 8.5039-0.12109 2.8565 0 5.7119-0.000906 8.5684 0.12109v-2.7285h-1.0566c-3.1667 0-4.0332-1.2414-4.0332-4.7168v-9.8086h3.4746c5.1528 0 6.3303 1.4902 7.7578 5.5859 0.68212 2.0494 1.0541 6.208 3.1035 11.668h10.242v-2.7285h-0.62109c-3.1652 0-4.2213-1.864-5.2754-6.1465-1.4907-5.9584-1.8632-9.3721-6.6426-10.178 4.4692-1.179 6.9512-4.471 6.9512-8.877 0-7.1992-4.8409-10.117-15.021-10.117h-15.951zm38.732 0v2.7305h0.99218c3.1667 0 4.0957 1.3032 4.0957 4.7168v23.154c0 3.4121-0.92904 4.7168-4.0957 4.7168h-0.99218v2.7285h18.184c14.091 0 20.982-6.3297 20.982-19.49 0-12.597-7.2013-18.557-21.975-18.557h-17.191zm82.752 0.18555v2.5469h1.0547c3.2284 0 4.0352 1.3017 4.0352 4.7168v23.154c0 3.4106-0.745 4.7148-4.0352 4.7148h-1.3047v2.7305h30.973v-11.357h-3.1035c-0.0587 6.8272-1.0548 7.5723-6.8867 7.5723h-8.752v-14.154h3.041c4.5324 0 5.6462 0.43741 5.7109 5.0918h2.791v-13.533h-2.8555c0 4.7794-1.0549 5.0918-5.7695 5.0918h-2.918v-12.848h8.998c4.9661 0 6.332 0.37134 6.332 5.2109v0.99414h3.1621v-9.9316h-30.473zm-70.771 3.4141h4.3438c10.489 0 15.455 4.5924 15.455 14.896 0 10.861-4.843 15.889-15.143 15.889h-4.6562v-30.785zm-38.73 0.0625h3.9688c5.8364 0 8.4434 2.1119 8.4434 7.1367 0 4.8411-3.0435 6.7051-9.3106 6.7051h-3.1016v-13.842zm-59.586 80.307c-9.0136 0-12.684 4.4526-12.719 13.826 0.03464 9.4127 3.669 13.867 12.719 13.867 9.0483 0 12.685-4.4545 12.721-13.867-0.03614-9.3735-3.7086-13.826-12.721-13.826zm-35.867 0.52148v0.002 1.457l1.7891 0.15234c1.313 0.08437 1.4688 0.91308 1.4688 1.416v18.9h0.00195v1.0605c0 0.55414-0.054375 1.0358-0.21094 1.373-0.1566 0.34031-0.36869 0.59591-0.63672 0.76758-0.26652 0.17316-0.57628 0.28608-0.93164 0.34179-0.35235 0.0558-0.49761 0.084-0.89062 0.084h-0.58984v1.3477h0.22852 10.402 0.45898v-1.3477h-0.83594c-0.39451 0-0.76964-0.0315-1.125-0.0918-0.35236-0.0633-0.6621-0.19112-0.93164-0.38086-0.26502-0.19124-0.47487-0.46388-0.62695-0.82226-0.14908-0.35687-0.22656-0.82965-0.22656-1.4199v-1.2813h-0.00391v-7.0801h4.041c0.82969 0 1.1953 0.21085 1.1953 0.98633 0 0.84625-0.10027 2.3636-0.20117 3.0684h2.3945c-0.06625-1.6564-0.19922-3.3499-0.19922-5.0078 0-1.6564 0.13297-3.3475 0.19922-5.0039h-2.3945c0.10088 0.73783 0.20117 1.9043 0.20117 2.8906 0 0.77548-0.36562 0.98828-1.1953 0.98828h-4.041v-10.594h1.1348c7.0094 0 8.7888 0.17059 9.5176 2.75l0.85156 3.8711h2.3906v-8.4277h-21.234zm184.45 0v1.4473c3.3489 0.20779 3.4297 0.28954 3.4297 2.4805v8.9023c0.005 0.001 0.009 0.007 0.0117 0.01v7.7812c0 1.176-0.0524 2.19-0.15625 2.7637-0.0889 0.5707-0.28791 1.0163-0.59961 1.334-0.3117 0.30266-0.92869 0.58146-1.8457 0.83594v1.3477h8.1152v-1.3477c-0.68063-0.19124-1.1785-0.38253-1.4902-0.57227-0.29664-0.19123-0.52533-0.43069-0.68946-0.71679-0.14757-0.2861-0.25824-0.67362-0.33203-1.166-0.0602-0.49389-0.0898-1.4124-0.0898-2.4785v-4.6816l-0.006-11.088c5.216 7.3829 10.199 14.537 15.398 22.051h2.9355v-18.676c0-2.2316 0.0835-3.6791 0.2461-4.959 0.24996-1.697 1.2408-1.6566 3.2676-1.8223v-1.4453h-9.9219l0.002 0.002v1.4453c2.3144 0.16562 3.8019 0.04264 4.0488 1.7773 0.16715 1.2814 0.25 2.811 0.25 5.002v12.777l-0.043-0.084c-5.0444-7.029-10.458-15.008-14.551-20.92h-7.9805zm30.199 0v1.4512l1.3809 0.13867c1.2604 0.17016 1.7559 0.31453 1.7559 1.748v19.33c0.002 0.002 0.007 0.007 0.01 0.008v0.35547c0 0.55113-0.0782 0.99669-0.23633 1.334-0.1581 0.33728-0.37215 0.59396-0.63867 0.76562-0.26803 0.17166-0.58364 0.28563-0.9375 0.33984-0.35537 0.0558-0.73289 0.084-1.1289 0.084h-0.8418v1.3477h7.5644 14.172v-8.0117h-1.8711l-0.9375 3.5586c-0.81463 2.4454-1.5875 2.7441-9.002 2.7441h-1.5508v-10.828h4.1016c0.8342 0 1.2031 0.21235 1.2031 0.98632 0 0.84324-0.10177 2.3534-0.20117 3.0566h2.4062c-0.0677-1.6518-0.20117-3.3388-0.20117-4.9922 0-1.6518 0.1334-3.3388 0.20117-4.9922h-2.4062c0.0994 0.73784 0.20117 1.8995 0.20117 2.8828 0 0.77398-0.36893 0.98438-1.2031 0.98438h-4.1016v-10.488h1.6719v-0.002c7.0471 0 7.6995 0.21486 8.3906 2.7461l0.9375 3.8594h2.3613v-8.4062h-21.1zm-166.28 0.002v1.4473c3.3895 0.2063 3.4316 0.28609 3.4316 2.4785v18.299c0.0063 0-0.03967 0.86429-0.10742 1.1504-0.07675 0.39603-0.19451 0.71192-0.34961 0.94532-0.13852 0.22888-0.32521 0.42453-0.55859 0.57812-0.21835 0.14004-0.50641 0.26134-0.86328 0.36524-0.35688 0.10237-0.76759 0.19872-1.2344 0.28906v1.3477h10.654v-1.3477c-0.76194-0.14154-1.3228-0.28229-1.6797-0.42383-0.35686-0.1551-0.646-0.36014-0.86133-0.61914-0.20329-0.26954-0.35988-0.6294-0.4668-1.0781-0.09338-0.44872-0.13867-1.0067-0.13867-1.7656l-0.05273-2.3359v-5.1914h2.4395c0.71374 0 1.4481 0.11398 2.1348 0.37304 0.02262 0.015 0.04586 0.026 0.06836 0.041 0.32525 0.20479 0.6745 0.57018 1.0449 1.0957 0.38549 0.52401 0.87546 1.341 1.4688 2.4492l1.9551 3.6523c0.48938 0.92004 0.98625 1.8249 1.4922 2.7148 0.50294 0.89142 1.0364 1.7214 1.5996 2.4336h6.1602v-1.3457c-0.71072-0.11588-1.2822-0.32116-1.7129-0.61328-0.43066-0.29213-0.85152-0.71541-1.2656-1.2695-0.4171-0.55263-0.91396-1.0212-1.4922-2.0723l-2.002-3.5879c-0.78451-1.4305-1.5027-2.4788-2.1562-3.1504-0.63695-0.68514-1.409-1.2113-2.3125-1.5742v-0.12109c3.3097-0.89444 5.5586-3.0766 5.5586-6.5098 0-3.5973-1.8187-6.6543-8.4336-6.6543h-12.32zm23.457 0v6.7441h2.207c0.28309-1.033 0.58088-1.887 0.89258-2.5586 0.32675-0.68362 0.68181-1.2074 1.0703-1.5703 0.38398-0.37342 0.80082-0.61888 1.248-0.73633 0.45926-0.116 1.0392-0.17383 1.7363-0.17383h2.418v19.895c0 0.77548-0.04587 1.3612-0.13476 1.7617-0.07375 0.40204-0.18492 0.71777-0.33398 0.95117-0.13402 0.23189-0.31229 0.42498-0.53516 0.58008-0.2078 0.14154-0.48239 0.26524-0.82422 0.36914-0.34181 0.10238-0.73593 0.19917-1.1816 0.29102v1.3477h10.188v-1.3477c-0.73031-0.14154-1.2652-0.2862-1.6055-0.42774-0.34331-0.1551-0.61642-0.36165-0.82422-0.61914-0.19424-0.27105-0.34336-0.6342-0.44726-1.0859-0.09037-0.45325-0.13281-1.0569-0.13281-1.8203v-19.895h2.4922c0.81764 0.0013 1.4261 0.07086 1.8281 0.21094 0.4156 0.14455 0.80329 0.38295 1.1602 0.71875 0.35688 0.33579 0.69025 0.82818 1.002 1.4727 0.32675 0.64599 0.65372 1.5254 0.98047 2.6367h2.1855v-6.7441h-23.389zm49.105 0c-1.7347 6.1195-3.8842 14.69-5.8281 21.76h-0.084c-2.1066-6.8227-3.6779-12.527-5.125-18.563-0.33128-1.2814-0.20639-1.4499 0.57812-1.5312l2.1094-0.20703v-1.4453h-10.086v1.4453c2.2316 0.125 2.6023 0.28804 3.2227 2.4805 2.2737 7.7307 4.3002 15.172 6.3691 22.945h3.4277c1.7392-5.7476 4.4263-15.502 5.9141-20.545h0.084c2.2301 7.0682 4.1728 13.764 6.1152 20.545h2.6348c-0.002-0.006-0.002-0.0119-0.006-0.0176h1.2422l7.8047-23.98c0.5466-1.2814 1.1585-1.2907 3.1582-1.4277v-1.4453h-9.0137v1.4453l2.6894 0.24805c0.72127 0.07675 0.70963 0.73453 0.48828 1.4648l0.004-0.002-6.0762 18.67c-0.22737-0.76495-4.4683-15.043-6.4785-21.84h-3.1445zm26.215 0c-2.7285 7.6885-5.6215 15.959-8.5156 23.4-0.62039 1.6112-0.95195 2.0284-3.3477 2.1504v1.3535h8.6797v-1.3535l-2.1055-0.16797c-1.0766-0.12348-1.0777-0.45463-0.91211-0.99219 0.66105-2.3159 1.53-4.6708 2.4394-7.4414h8.5586c0.41258 0.99232 1.8191 5.0032 2.4394 6.8613 0.4141 1.0766 0.20642 1.5304-0.99219 1.6133l-1.9004 0.12696v1.3476h10.375v-1.3476c-2.1096-0.16263-2.5199-0.20918-3.2246-2.1953-2.0674-5.7446-5.9536-16.866-8.1445-23.355h-3.3496zm9.7324 0v1.4453c2.069 0.08288 2.4815 0.29001 3.4316 1.9434 2.2331 3.9286 4.6712 8.3949 6.6543 12.117 0.41409 0.82518 0.57813 1.5288 0.57813 2.3555v3.7988c0.002 0-0.0376 1.2729-0.125 1.6523-0.0768 0.40054-0.19168 0.71734-0.34375 0.94922-0.13854 0.2319-0.31996 0.42693-0.54883 0.58203-0.21534 0.14305-0.49681 0.26525-0.84766 0.36915-0.35085 0.10237-0.75709 0.20173-1.2148 0.28906v1.3476h10.467v-1.3476c-0.74687-0.14004-1.2976-0.28575-1.6484-0.42578-0.35085-0.15812-0.63383-0.3606-0.84766-0.6211-0.19876-0.26954-0.35163-0.63073-0.45703-1.084-0.0919-0.45324-0.13867-1.0603-0.13867-1.8223v-0.0488h0.006v-3.8867c0-0.99382 0.12419-1.5706 0.49609-2.3145 1.9846-3.9692 4.8397-9.4712 6.1211-11.537 1.2814-2.1096 1.4064-2.1914 3.9707-2.3164v-1.4453h-8.7656v1.4453l2.3145 0.20703c0.62188 0.04212 0.57739 0.49795 0.37109 1.0762-0.95015 2.3566-3.2674 7.2787-5.502 11.537h-0.0801c-2.1924-3.9693-4.4217-7.8585-6.1172-11.373-0.37042-0.7032-0.24965-1.1566 0.33008-1.1973l2.3574-0.25v-1.4453h-10.461zm-121.01 1.102c6.6179 0 7.7773 5.0758 7.7773 12.201 0 7.1269-1.1594 12.201-7.7773 12.238-6.6194-0.0376-7.7773-5.1114-7.7773-12.238 0-7.1254 1.1579-12.201 7.7773-12.201zm22.627 0.5918c2.8113 0 6.0371 0.04111 6.0371 5.334 0 3.9271-1.9023 5.416-5.459 5.416h-2.9336v-8.8457c0-1.6142-0.12608-1.9043 2.3555-1.9043zm89.105 2.6465h0.12305c0.82669 2.3144 2.812 8.1446 3.6387 10.873h-7.4023c1.1986-3.8458 2.5248-7.5648 3.6406-10.873z" transform="matrix(.8 0 0 -.8 235.92 657.91)"/><path d="m0.87695 53.48v2.2363h235.75v-2.2363h-235.75zm158.91 8.346c-3.1878 0-4.9316 1.4032-4.9316 3.6348 0 1.6172 0.97485 2.5286 2.9414 3.3809l2.3711 1.0156c0.99381 0.42464 1.418 0.86884 1.418 1.7422 0 1.2152-0.82921 1.8848-2.3516 1.8848-1.8868 0-2.8574-0.80951-2.8574-2.4102 0-0.08282 0.0215-0.18324 0.0215-0.28711h-1.4824v3.5078c1.5238 0.34784 3.0234 0.5293 4.4629 0.5293 3.2826 0 5.0449-1.36 5.0449-3.709 0-1.5028-0.86998-2.5779-2.6348-3.2871l-2.5742-1.0312c-1.0751-0.42764-1.5606-0.91571-1.5606-1.7891 0-1.0736 0.91137-1.8223 2.375-1.8223 1.6805 0 2.4492 0.69154 2.4492 2.2305 0 0.12196-0.00036 0.2632-0.0215 0.40625h1.5625v-3.4258c-1.5178-0.36741-2.9374-0.57031-4.2324-0.57031zm-157.21 0.28516v1.0742h0.24414c0.81011 0 0.99219 0.52603 0.99219 1.5801v5.7422c0 2.8761 1.6409 4.3164 4.9883 4.3164 3.5672 0 4.9668-1.5038 4.9668-4.8301v-5.2285c0-1.0721 0.28336-1.5801 1.0137-1.5801h0.30273v-1.0742c-0.81161 0.0195-1.6219 0.03906-2.4727 0.03906-0.8312 0-1.6614-0.01944-2.5332-0.03906v1.0742h0.24414c1.033 0 1.2949 0.46579 1.2949 1.5801v5.416c0 1.9666-0.77019 2.8965-2.6133 2.8965-1.9063 0-2.5332-0.91043-2.5332-2.8574v-5.4551c0-1.173 0.20213-1.5801 1.3164-1.5801h0.24414v-1.0742c-0.87335 0.0195-1.7852 0.03906-2.6992 0.03906-0.88992 0-1.8238-0.01944-2.7559-0.03906zm26.703 0v1.0742h0.24219c1.0345 0 1.3164 0.46776 1.3164 1.582v7.0977c0 1.1143-0.28193 1.5996-1.3164 1.5996h-0.24219v1.0742c0.88992-0.04062 1.7625-0.04102 2.6328-0.04102 0.87185 0 1.7438 0.000391 2.6172 0.04102v-1.0742h-0.24414c-1.054 0-1.2988-0.48534-1.2988-1.5996l-0.03906-7.4609 4.7656 10.135h3.4453v-9.7715c0-1.1143 0.2624-1.582 1.2969-1.582h0.24414v-1.0742c-0.89142 0.021-1.7648 0.03906-2.6562 0.03906-0.87335 0-1.7239-0.01794-2.5957-0.03906v1.0742h0.24414c1.054 0 1.2969 0.46776 1.2969 1.582l0.06055 7.5195-4.7637-10.176h-5.0059zm27.834 0v1.0742h0.24219c1.0375 0 1.2969 0.46579 1.2969 1.5801v7.0996c0 1.1143-0.25939 1.5996-1.2969 1.5996h-0.24219v1.0723c0.97425-0.03912 1.9472-0.03906 2.9199-0.03906 0.95316 0 1.9277-0.000063 2.9004 0.03906v-1.0723h-0.26367c-1.0345 0-1.2988-0.48534-1.2988-1.5996v-7.0996c0-1.1143 0.26435-1.5801 1.2988-1.5801h0.26367v-1.0742c-0.97274 0.0195-1.9472 0.03906-2.9004 0.03906-0.97274 0-1.9457-0.01944-2.9199-0.03906zm19.768 0v1.0742c0.68966 0.06174 0.97464 0.48598 1.2969 1.3789l3.7734 10.18h2.9375l3.6484-10.262c0.26502-0.77096 0.57003-1.1538 1.2988-1.2969v-1.0742c-0.7288 0.0195-1.5188 0.03906-2.3516 0.03906-0.85076 0-1.7441-0.01944-2.7168-0.03906v1.0742c0.99231 0 1.4609 0.20193 1.4609 0.73047 0 0.14154-0.02178 0.32451-0.08203 0.5293l-2.6172 7.8828-2.7363-7.9258c-0.07837-0.22285-0.12109-0.40532-0.12109-0.54688 0-0.5677 0.42796-0.6278 1.4609-0.66992v-1.0742c-1.1158 0.0195-2.1301 0.03906-3.002 0.03906-0.87185 0-1.6221-0.01944-2.25-0.03906zm51.742 0v1.0742h0.24414c1.0315 0 1.2969 0.46776 1.2969 1.582v7.0977c0 1.1143-0.26541 1.5996-1.2969 1.5996h-0.24414v1.0742c0.97423-0.04063 1.9482-0.04102 2.918-0.04102 0.95617 0 1.9296 0.00039 2.9023 0.04102v-1.0742h-0.26367c-1.033 0-1.2969-0.48534-1.2969-1.5996v-2.8203h0.97071c1.1143 0 1.7438 0.32359 2.0254 1.1367 0.38698 1.0736 0.45084 2.6348 1.1992 4.3574h3.7305v-1.0742h-0.10156c-0.56767 0-0.99315-0.16293-1.2988-0.52734-0.3644-0.42462-0.50632-1.3369-0.83008-2.5957-0.34482-1.2754-0.6287-1.8647-1.7852-2.0273 1.4184-0.34181 2.1914-1.3376 2.1914-2.8555 0-2.4574-1.6648-3.3477-5.2109-3.3477h-5.1504zm50.443 0v1.0742h0.24414c1.0315 0 1.2969 0.46579 1.2969 1.5801v7.0996c0 1.1143-0.26541 1.5996-1.2969 1.5996h-0.24414v1.0723c0.97575-0.03912 1.9452-0.03906 2.918-0.03906 0.95316 0 1.9246-0.000063 2.9004 0.03906v-1.0723h-0.26368c-1.036 0-1.2988-0.48534-1.2988-1.5996v-7.0996c0-1.1143 0.26284-1.5801 1.2988-1.5801h0.26368v-1.0742c-0.97575 0.0195-1.9472 0.03906-2.9004 0.03906-0.97274 0-1.9422-0.01944-2.918-0.03906zm20.131 0v3.75h1.2793c-0.0226-0.20329-0.0234-0.36426-0.0234-0.52539 0.00001-1.3597 0.46795-1.7246 1.8262-1.7246h1.0918v8.2539c0 1.1143-0.26044 1.5996-1.2949 1.5996h-0.42773v1.0723c1.0375-0.03912 2.072-0.03906 3.1035-0.03906 1.0149 0 2.051-0.000063 3.084 0.03906v-1.0723h-0.42774c-1.036 0-1.2988-0.48534-1.2988-1.5996v-8.2539h0.89453c1.4982 0 1.9434 0.32363 1.9434 1.9258v0.32422h1.3398v-3.75c-2.1698 0-3.469 0.03906-3.8906 0.03906h-3.4258c-0.40505 0-1.6653-0.03906-3.7734-0.03906zm24.879 0v1.0742c0.82819 0.04216 1.2373 0.50669 1.7207 1.3379l2.8379 4.9277v2.5547c0 1.0721-0.22202 1.459-1.377 1.459h-0.28515v1.0723c0.99381-0.03912 1.9862-0.03906 2.959-0.03906 0.99534 0 1.9668-0.000063 2.9199 0.03906v-1.0723h-0.2832c-1.1745 0-1.3789-0.38686-1.3789-1.459v-2.5156l3.0254-4.9473c0.54359-0.89142 0.92763-1.3574 1.5781-1.3574h0.082v-1.0742c-0.79205 0.0195-1.6009 0.03906-2.4141 0.03906-0.82818 0-1.6614-0.01944-2.5332-0.03906v1.0742c0.68664 0 0.99219 0.18209 0.99219 0.65039 0 0.20028-0.0811 0.48644-0.22265 0.76953l-1.582 3.1016-1.5801-3.2031c-0.14457-0.28309-0.24414-0.52719-0.24414-0.73047 0-0.40506 0.28566-0.58789 0.93164-0.58789h0.10351v-1.0742c-0.91401 0.0195-1.8239 0.03906-2.6973 0.03906-0.87035 0-1.7246-0.01944-2.5527-0.03906zm-120.29 0.03906v1.0352h0.24414c1.033 0 1.2969 0.46579 1.2969 1.5801v7.0996c0 1.0721-0.20217 1.5996-1.2969 1.5996h-0.24414v1.0723h10.178v-3.8906h-1.1367c-0.0392 2.1683-0.48643 2.4316-2.5117 2.4316h-2.2734v-4.2969h0.79296c1.2558 0 1.5608 0.24143 1.6211 1.5801h1.0957v-4.5h-1.0957c-0.0226 1.3793-0.36599 1.623-1.7031 1.623h-0.71093v-3.873h2.4941c1.4998 0 2.1699 0.2439 2.1699 1.4199v0.54883h1.1543v-3.4297h-10.074zm29.098 1.4629h1.0352c1.7015 0 2.4707 0.56701 2.4707 2.1074 0 1.4802-0.81138 2.0059-2.5762 2.0059h-0.92969v-4.1133z" transform="matrix(.8 0 0 -.8 235.92 657.91)" fill="#c28e0e"/></g></g></svg>
