<?xml version="1.0" encoding="UTF-8" standalone="no"?>
<svg
   xmlns:dc="http://purl.org/dc/elements/1.1/"
   xmlns:cc="http://creativecommons.org/ns#"
   xmlns:rdf="http://www.w3.org/1999/02/22-rdf-syntax-ns#"
   xmlns:svg="http://www.w3.org/2000/svg"
   xmlns="http://www.w3.org/2000/svg"
   viewBox="0 0 130.56 136.90668"
   height="136.90668"
   width="130.56"
   xml:space="preserve"
   id="svg2"
   version="1.1"><metadata
     id="metadata8"><rdf:RDF><cc:Work
         rdf:about=""><dc:format>image/svg+xml</dc:format><dc:type
           rdf:resource="http://purl.org/dc/dcmitype/StillImage" /></cc:Work></rdf:RDF></metadata><defs
     id="defs6" /><g
     transform="matrix(1.3333333,0,0,-1.3333333,0,136.90667)"
     id="g10"><g
       transform="scale(0.1)"
       id="g12"><path
         id="path14"
         style="fill:#231f20;fill-opacity:1;fill-rule:nonzero;stroke:none"
         d="m 0,35.0313 14.2461,6.5312 c 6.7305,-15.6328 17.6172,-26.5234 34.4336,-26.5234 17.2187,0 27.5117,9.3125 27.5117,23.5547 0,17.0195 -14.4453,24.3398 -30.0781,31.8632 -18.6055,8.9063 -39.58205,18.211 -39.58205,45.121 0,21.375 17.21875,36.418 39.77735,36.418 23.1523,0 36.6133,-14.051 43.7383,-30.875 l -14.2461,-6.926 c -5.3516,12.27 -13.8594,23.153 -29.6875,23.153 -13.8594,0 -23.1524,-8.707 -23.1524,-21.176 0,-17.0197 14.2461,-24.3439 29.4805,-31.8595 C 71.2383,75.4023 92.4219,65.9023 92.4219,38.9883 92.4219,17.6211 75.5938,0.398438 48.6797,0.398438 24.3359,0.398438 9.10156,13.8594 0,35.0313" /><path
         id="path16"
         style="fill:#231f20;fill-opacity:1;fill-rule:nonzero;stroke:none"
         d="m 197.754,76 c 0,38.789 -13.859,60.758 -36.027,60.758 -22.555,0 -36.407,-21.969 -36.407,-60.758 0,-38.793 13.852,-60.9609 36.407,-60.9609 22.168,0 36.027,22.1679 36.027,60.9609 z m -89.063,0 c 0,49.277 22.364,75.996 53.036,75.996 30.48,0 52.843,-26.719 52.843,-75.996 0,-49.2812 -22.363,-76 -52.843,-76 -30.672,0 -53.036,26.7188 -53.036,76" /><path
         id="path18"
         style="fill:#231f20;fill-opacity:1;fill-rule:nonzero;stroke:none"
         d="m 236.648,50.8633 v 98.3597 h 16.622 v -96.18 c 0,-24.3438 7.519,-38.2032 29.289,-38.2032 21.57,0 29.296,13.8594 29.296,37.8047 v 96.5785 h 16.024 V 51.2578 c 0,-29.8789 -13.457,-51.058581 -45.516,-51.058581 -32.461,0 -45.715,20.191381 -45.715,50.664081" /><path
         id="path20"
         style="fill:#231f20;fill-opacity:1;fill-rule:nonzero;stroke:none"
         d="m 383.758,133.984 h -37.801 v 15.239 h 92.227 V 133.984 H 400.379 V 2.76953 H 383.758 V 133.984" /><path
         id="path22"
         style="fill:#231f20;fill-opacity:1;fill-rule:nonzero;stroke:none"
         d="m 456.836,149.223 h 16.621 V 87.6758 h 59.375 v 61.5472 h 16.621 V 2.76953 H 532.832 V 72.4375 H 473.457 V 2.76953 H 456.836 V 149.223" /><path
         id="path24"
         style="fill:#231f20;fill-opacity:1;fill-rule:nonzero;stroke:none"
         d="m 578.203,149.223 h 74.813 V 133.984 H 594.824 V 87.6758 h 42.559 V 72.6367 H 594.824 V 17.8086 h 61.555 V 2.76953 H 578.203 V 149.223" /><path
         id="path26"
         style="fill:#231f20;fill-opacity:1;fill-rule:nonzero;stroke:none"
         d="m 733.867,81.7383 c -4.949,17.414 -8.711,31.0707 -12.265,45.1207 h -0.403 c -3.562,-14.25 -7.32,-27.7067 -12.265,-44.7262 L 702.598,59.375 h 37.605 z M 686.766,2.76953 H 671.133 L 714.082,149.82 h 15.43 L 772.461,2.76953 H 755.84 L 744.16,44.9258 H 698.445 L 686.766,2.76953" /><path
         id="path28"
         style="fill:#231f20;fill-opacity:1;fill-rule:nonzero;stroke:none"
         d="m 782.508,35.0313 14.25,6.5312 c 6.726,-15.6328 17.617,-26.5234 34.433,-26.5234 17.215,0 27.508,9.3125 27.508,23.5547 0,17.0195 -14.441,24.3398 -30.078,31.8632 -18.601,8.9063 -39.578,18.211 -39.578,45.121 0,21.375 17.215,36.418 39.773,36.418 23.157,0 36.614,-14.051 43.743,-30.875 l -14.258,-6.926 c -5.34,12.27 -13.848,23.153 -29.68,23.153 -13.855,0 -23.152,-8.707 -23.152,-21.176 0,-17.0197 14.246,-24.3439 29.48,-31.8595 18.801,-8.9102 39.981,-18.4102 39.981,-45.3242 0,-21.3672 -16.825,-38.589862 -43.739,-38.589862 -24.347,0 -39.582,13.460962 -48.683,34.632862" /><path
         id="path30"
         style="fill:#231f20;fill-opacity:1;fill-rule:nonzero;stroke:none"
         d="m 924.754,133.984 h -37.801 v 15.239 H 979.18 V 133.984 H 941.379 V 2.76953 H 924.754 V 133.984" /><path
         id="path32"
         style="fill:#a31934;fill-opacity:1;fill-rule:nonzero;stroke:none"
         d="m 181.887,307.266 h 612.59 V 1026.84 H 181.887 V 307.266" /><path
         id="path34"
         style="fill:#ffffff;fill-opacity:1;fill-rule:nonzero;stroke:none"
         d="m 557.113,852.973 v -38.016 h 26.301 v -211.75 h -55.652 v 278.871 h 29.586 v 38.055 H 418.59 v -38.055 h 29.551 V 603.207 h -56.235 v 211.75 h 26.274 v 38.016 H 287.66 v -38.016 h 29.5 V 569.754 l 47.949,-48.965 h 83.032 v -56.492 h -29.457 v -49 h 138.562 v 49 h -29.484 v 56.492 h 82.367 l 47.945,48.965 v 245.203 h 29.602 v 38.016 H 557.113" /></g></g></svg>