<?xml version="1.0" encoding="UTF-8" standalone="no"?>
<svg
   xmlns:dc="http://purl.org/dc/elements/1.1/"
   xmlns:cc="http://creativecommons.org/ns#"
   xmlns:rdf="http://www.w3.org/1999/02/22-rdf-syntax-ns#"
   xmlns:svg="http://www.w3.org/2000/svg"
   xmlns="http://www.w3.org/2000/svg"
   viewBox="0 0 93.226669 136.90668"
   height="136.90668"
   width="93.226669"
   xml:space="preserve"
   id="svg2"
   version="1.1"><metadata
     id="metadata8"><rdf:RDF><cc:Work
         rdf:about=""><dc:format>image/svg+xml</dc:format><dc:type
           rdf:resource="http://purl.org/dc/dcmitype/StillImage" /></cc:Work></rdf:RDF></metadata><defs
     id="defs6" /><g
     transform="matrix(1.3333333,0,0,-1.3333333,0,136.90667)"
     id="g10"><g
       transform="scale(0.1)"
       id="g12"><path
         id="path14"
         style="fill:#231f20;fill-opacity:1;fill-rule:nonzero;stroke:none"
         d="M 0,149.223 H 16.6211 V 72.4375 C 19.0039,76.5898 25.9297,86.6836 31.8672,95 l 37.9961,54.223 H 87.4805 L 46.9063,92.4258 94.0039,2.76953 H 76.3984 L 36.6133,78.3711 16.6211,51.0625 V 2.76953 H 0 V 149.223" /><path
         id="path16"
         style="fill:#231f20;fill-opacity:1;fill-rule:nonzero;stroke:none"
         d="m 187.199,76 c 0,38.789 -13.859,60.758 -36.027,60.758 -22.559,0 -36.406,-21.969 -36.406,-60.758 0,-38.793 13.847,-60.9609 36.406,-60.9609 22.168,0 36.027,22.1679 36.027,60.9609 z m -89.0623,0 c 0,49.277 22.3593,75.996 53.0353,75.996 30.48,0 52.844,-26.719 52.844,-75.996 0,-49.2812 -22.364,-76 -52.844,-76 -30.676,0 -53.0353,26.7188 -53.0353,76" /><path
         id="path18"
         style="fill:#231f20;fill-opacity:1;fill-rule:nonzero;stroke:none"
         d="m 227.363,149.223 h 16.621 V 72.4375 c 2.383,4.1523 9.305,14.2461 15.246,22.5625 l 37.997,54.223 h 17.617 L 274.27,92.4258 321.367,2.76953 H 303.762 L 263.977,78.3711 243.984,51.0625 V 2.76953 H 227.363 V 149.223" /><path
         id="path20"
         style="fill:#231f20;fill-opacity:1;fill-rule:nonzero;stroke:none"
         d="m 414.551,76 c 0,38.789 -13.856,60.758 -36.024,60.758 -22.558,0 -36.41,-21.969 -36.41,-60.758 0,-38.793 13.852,-60.9609 36.41,-60.9609 22.168,0 36.024,22.1679 36.024,60.9609 z m -89.063,0 c 0,49.277 22.364,75.996 53.039,75.996 30.477,0 52.84,-26.719 52.84,-75.996 0,-49.2812 -22.363,-76 -52.84,-76 -30.675,0 -53.039,26.7188 -53.039,76" /><path
         id="path22"
         style="fill:#231f20;fill-opacity:1;fill-rule:nonzero;stroke:none"
         d="m 454.719,149.223 h 20.777 L 512.512,25.9297 h 0.39 l 36.219,123.2933 h 20.781 V 2.76953 H 553.867 V 122.703 h -0.39 c -1.786,-9.301 -6.336,-24.9335 -10.098,-37.2069 L 518.242,2.76953 H 505.188 L 480.051,85.8945 c -3.567,11.4766 -7.91,27.1135 -10.09,37.0035 h -0.398 V 2.76953 H 454.719 V 149.223" /><path
         id="path24"
         style="fill:#231f20;fill-opacity:1;fill-rule:nonzero;stroke:none"
         d="m 682.402,76 c 0,38.789 -13.855,60.758 -36.023,60.758 -22.559,0 -36.406,-21.969 -36.406,-60.758 0,-38.793 13.847,-60.9609 36.406,-60.9609 22.168,0 36.023,22.1679 36.023,60.9609 z m -89.062,0 c 0,49.277 22.363,75.996 53.039,75.996 30.476,0 52.84,-26.719 52.84,-75.996 0,-49.2812 -22.364,-76 -52.84,-76 -30.676,0 -53.039,26.7188 -53.039,76" /><path
         id="path26"
         style="fill:#a31934;fill-opacity:1;fill-rule:nonzero;stroke:none"
         d="m 39.543,307.266 h 612.59 V 1026.84 H 39.543 V 307.266" /><path
         id="path28"
         style="fill:#ffffff;fill-opacity:1;fill-rule:nonzero;stroke:none"
         d="m 414.77,852.973 v -38.016 h 26.3 v -211.75 h -55.652 v 278.871 h 29.59 v 38.055 H 276.246 v -38.055 h 29.551 V 603.207 h -56.234 v 211.75 h 26.273 v 38.016 H 145.316 V 814.957 H 174.82 V 569.754 l 47.946,-48.965 h 83.031 V 464.297 H 276.34 v -49 h 138.562 v 49 h -29.484 v 56.492 h 82.367 l 47.945,48.965 v 245.203 h 29.606 v 38.016 H 414.77" /></g></g></svg>