<?xml version="1.0" encoding="UTF-8" standalone="no"?>
<svg
   xmlns:dc="http://purl.org/dc/elements/1.1/"
   xmlns:cc="http://creativecommons.org/ns#"
   xmlns:rdf="http://www.w3.org/1999/02/22-rdf-syntax-ns#"
   xmlns:svg="http://www.w3.org/2000/svg"
   xmlns="http://www.w3.org/2000/svg"
   viewBox="0 0 159.12 136.90668"
   height="136.90668"
   width="159.12"
   xml:space="preserve"
   id="svg2"
   version="1.1"><metadata
     id="metadata8"><rdf:RDF><cc:Work
         rdf:about=""><dc:format>image/svg+xml</dc:format><dc:type
           rdf:resource="http://purl.org/dc/dcmitype/StillImage" /></cc:Work></rdf:RDF></metadata><defs
     id="defs6" /><g
     transform="matrix(1.3333333,0,0,-1.3333333,0,136.90667)"
     id="g10"><g
       transform="scale(0.1)"
       id="g12"><path
         id="path14"
         style="fill:#231f20;fill-opacity:1;fill-rule:nonzero;stroke:none"
         d="m 45.7227,17.2188 c 20.1836,0 28.8867,9.3007 28.8867,26.9179 0,19.9883 -12.0703,26.9141 -32.0625,26.9141 H 16.4258 v -53.832 z m -3.9649,67.6835 c 18.6016,0 29.0899,7.129 29.0899,24.7427 0,17.609 -8.5039,24.734 -28.6914,24.734 H 16.4258 V 84.9023 Z M 0,149.223 h 42.7539 c 27.8984,0 43.9336,-11.676 43.9336,-36.813 0,-20.5819 -11.4844,-30.078 -23.1641,-33.4412 V 78.5703 C 78.3672,75.4023 90.6445,65.5078 90.6445,42.5547 90.6445,16.8281 73.6211,2.76953 46.1133,2.76953 H 0 V 149.223" /><path
         id="path16"
         style="fill:#231f20;fill-opacity:1;fill-rule:nonzero;stroke:none"
         d="m 113.887,149.223 h 16.621 V 17.8086 h 57.988 V 2.76953 H 113.887 V 149.223" /><path
         id="path18"
         style="fill:#231f20;fill-opacity:1;fill-rule:nonzero;stroke:none"
         d="m 286.348,76 c 0,38.789 -13.86,60.758 -36.028,60.758 -22.558,0 -36.406,-21.969 -36.406,-60.758 0,-38.793 13.848,-60.9609 36.406,-60.9609 22.168,0 36.028,22.1679 36.028,60.9609 z m -89.063,0 c 0,49.277 22.363,75.996 53.035,75.996 30.481,0 52.844,-26.719 52.844,-75.996 0,-49.2812 -22.363,-76 -52.844,-76 -30.672,0 -53.035,26.7188 -53.035,76" /><path
         id="path20"
         style="fill:#231f20;fill-opacity:1;fill-rule:nonzero;stroke:none"
         d="m 409.91,76 c 0,38.789 -13.855,60.758 -36.023,60.758 -22.559,0 -36.407,-21.969 -36.407,-60.758 0,-38.793 13.848,-60.9609 36.407,-60.9609 22.168,0 36.023,22.1679 36.023,60.9609 z m -89.062,0 c 0,49.277 22.367,75.996 53.039,75.996 30.476,0 52.84,-26.719 52.84,-75.996 0,-49.2812 -22.364,-76 -52.84,-76 -30.672,0 -53.039,26.7188 -53.039,76" /><path
         id="path22"
         style="fill:#231f20;fill-opacity:1;fill-rule:nonzero;stroke:none"
         d="m 450.078,149.223 h 20.781 L 507.871,25.9297 h 0.391 L 544.48,149.223 h 20.782 V 2.76953 H 549.227 V 122.703 H 548.84 C 547.051,113.402 542.5,97.7695 538.738,85.4961 L 513.602,2.76953 H 500.547 L 475.41,85.8945 c -3.566,11.4766 -7.91,27.1135 -10.09,37.0035 h -0.398 V 2.76953 H 450.078 V 149.223" /><path
         id="path24"
         style="fill:#231f20;fill-opacity:1;fill-rule:nonzero;stroke:none"
         d="m 594.785,149.223 h 16.621 V 2.76953 H 594.785 V 149.223" /><path
         id="path26"
         style="fill:#231f20;fill-opacity:1;fill-rule:nonzero;stroke:none"
         d="m 640.496,149.223 h 19.395 l 45.918,-89.6527 c 5.148,-9.8945 8.117,-15.832 12.863,-25.9219 h 0.398 V 149.223 h 15.235 V 2.76953 H 719.07 L 669.988,97.1719 c -5.547,10.6871 -8.308,16.0311 -13.855,27.7111 h -0.391 V 2.76953 H 640.496 V 149.223" /><path
         id="path28"
         style="fill:#231f20;fill-opacity:1;fill-rule:nonzero;stroke:none"
         d="m 757.969,76.3945 c 0,47.4965 19.597,75.6015 52.246,75.6015 26.125,0 39.383,-17.617 45.125,-46.312 l -15.039,-2.969 c -4.949,22.957 -13.66,34.043 -30.477,34.043 -21.379,0 -35.226,-20.387 -35.226,-59.965 0,-41.3633 13.254,-61.7539 36.015,-61.7539 19.395,0 30.676,14.6484 31.27,43.5429 h -27.91 v 14.25 h 42.754 V 2.76953 H 843.465 V 22.7617 H 843.27 C 838.516,11.6797 827.234,0.199219 808.828,0.199219 c -32.449,0 -50.859,27.703081 -50.859,76.195281" /><path
         id="path30"
         style="fill:#231f20;fill-opacity:1;fill-rule:nonzero;stroke:none"
         d="m 907.098,133.984 h -37.801 v 15.239 h 92.226 V 133.984 H 923.719 V 2.76953 H 907.098 V 133.984" /><path
         id="path32"
         style="fill:#231f20;fill-opacity:1;fill-rule:nonzero;stroke:none"
         d="m 1059.4,76 c 0,38.789 -13.85,60.758 -36.02,60.758 -22.56,0 -36.407,-21.969 -36.407,-60.758 0,-38.793 13.847,-60.9609 36.407,-60.9609 22.17,0 36.02,22.1679 36.02,60.9609 z m -89.06,0 c 0,49.277 22.363,75.996 53.04,75.996 30.48,0 52.84,-26.719 52.84,-75.996 0,-49.2812 -22.36,-76 -52.84,-76 -30.677,0 -53.04,26.7188 -53.04,76" /><path
         id="path34"
         style="fill:#231f20;fill-opacity:1;fill-rule:nonzero;stroke:none"
         d="m 1099.56,149.223 h 19.4 l 45.91,-89.6527 c 5.15,-9.8945 8.12,-15.832 12.86,-25.9219 h 0.4 V 149.223 h 15.24 V 2.76953 h -15.24 l -49.08,94.40237 c -5.55,10.6871 -8.31,16.0311 -13.85,27.7111 h -0.4 V 2.76953 h -15.24 V 149.223" /><path
         id="path36"
         style="fill:#a31934;fill-opacity:1;fill-rule:nonzero;stroke:none"
         d="M 289.68,307.266 H 902.27 V 1026.84 H 289.68 V 307.266" /><path
         id="path38"
         style="fill:#ffffff;fill-opacity:1;fill-rule:nonzero;stroke:none"
         d="m 664.906,852.973 v -38.016 h 26.301 v -211.75 h -55.652 v 278.871 h 29.586 v 38.055 H 526.383 v -38.055 h 29.551 V 603.207 h -56.235 v 211.75 h 26.274 v 38.016 h -130.52 v -38.016 h 29.5 V 569.754 l 47.949,-48.965 h 83.032 v -56.492 h -29.457 v -49 h 138.562 v 49 h -29.484 v 56.492 h 82.367 l 47.945,48.965 v 245.203 h 29.602 v 38.016 H 664.906" /></g></g></svg>