<svg xmlns="http://www.w3.org/2000/svg" viewBox="0 0 848 824"><path fill="none" stroke="#cc8080" stroke-width="2" d="M286.42 169.75a.33.33 0 0 1 .33.33v195.66a.33.33 0 0 0 .09.23l38.1 38.93a.33.33 0 0 0 .24.1h65.99a.33.33 0 0 1 .33.33v44.34a.33.33 0 0 1-.33.33h-23.09a.33.33 0 0 0-.33.33v38.59a.33.33 0 0 0 .33.33h110.59a.33.33 0 0 0 .33-.33v-38.59a.33.33 0 0 0-.33-.33h-22.84a.33.33 0 0 1-.33-.33v-44.34a.33.33 0 0 1 .33-.33h65.25a.33.33 0 0 0 .24-.1l38.34-39.15a.33.33 0 0 0 .09-.23V170.08a.33.33 0 0 1 .33-.33h22.84a.33.33 0 0 0 .33-.33v-30.09a.33.33 0 0 0-.33-.33H478.83a.33.33 0 0 0-.33.33v30.09a.33.33 0 0 0 .33.33h20.59a.33.33 0 0 1 .33.33v168.34a.33.33 0 0 1-.33.33h-43.59a.33.33 0 0 1-.33-.33V116.33a.33.33 0 0 1 .33-.33h22.84a.33.33 0 0 0 .33-.33V85.58a.33.33 0 0 0-.33-.33H368.08a.33.33 0 0 0-.33.33v30.09a.33.33 0 0 0 .33.33h23.09a.33.33 0 0 1 .33.33v222.09a.33.33 0 0 1-.33.33h-44.09a.33.33 0 0 1-.33-.33V170.08a.33.33 0 0 1 .33-.33h20.34a.33.33 0 0 0 .33-.33v-30.09a.33.33 0 0 0-.33-.33H263.33a.33.33 0 0 0-.33.33v30.09a.33.33 0 0 0 .33.33h23.09" vector-effect="non-scaling-stroke"/><path fill="#900" d="M178.67 0h489.98l.08 575.29a.46.46 0 0 1-.46.46H178.99a.45.45 0 0 1-.45-.45L178.67 0Zm107.75 169.75a.33.33 0 0 1 .33.33v195.66a.33.33 0 0 0 .09.23l38.1 38.93a.33.33 0 0 0 .24.1h65.99a.33.33 0 0 1 .33.33v44.34a.33.33 0 0 1-.33.33h-23.09a.33.33 0 0 0-.33.33v38.59a.33.33 0 0 0 .33.33h110.59a.33.33 0 0 0 .33-.33v-38.59a.33.33 0 0 0-.33-.33h-22.84a.33.33 0 0 1-.33-.33v-44.34a.33.33 0 0 1 .33-.33h65.25a.33.33 0 0 0 .24-.1l38.34-39.15a.33.33 0 0 0 .09-.23V170.08a.33.33 0 0 1 .33-.33h22.84a.33.33 0 0 0 .33-.33v-30.09a.33.33 0 0 0-.33-.33H478.83a.33.33 0 0 0-.33.33v30.09a.33.33 0 0 0 .33.33h20.59a.33.33 0 0 1 .33.33v168.34a.33.33 0 0 1-.33.33h-43.59a.33.33 0 0 1-.33-.33V116.33a.33.33 0 0 1 .33-.33h22.84a.33.33 0 0 0 .33-.33V85.58a.33.33 0 0 0-.33-.33H368.08a.33.33 0 0 0-.33.33v30.09a.33.33 0 0 0 .33.33h23.09a.33.33 0 0 1 .33.33v222.09a.33.33 0 0 1-.33.33h-44.09a.33.33 0 0 1-.33-.33V170.08a.33.33 0 0 1 .33-.33h20.34a.33.33 0 0 0 .33-.33v-30.09a.33.33 0 0 0-.33-.33H263.33a.33.33 0 0 0-.33.33v30.09a.33.33 0 0 0 .33.33h23.09Z"/><path fill="#fff" d="M286.42 169.75h-23.09a.33.33 0 0 1-.33-.33v-30.09a.33.33 0 0 1 .33-.33h104.09a.33.33 0 0 1 .33.33v30.09a.33.33 0 0 1-.33.33h-20.34a.33.33 0 0 0-.33.33v168.34a.33.33 0 0 0 .33.33h44.09a.33.33 0 0 0 .33-.33V116.33a.33.33 0 0 0-.33-.33h-23.09a.33.33 0 0 1-.33-.33V85.58a.33.33 0 0 1 .33-.33h110.59a.33.33 0 0 1 .33.33v30.09a.33.33 0 0 1-.33.33h-22.84a.33.33 0 0 0-.33.33v222.09a.33.33 0 0 0 .33.33h43.59a.33.33 0 0 0 .33-.33V170.08a.33.33 0 0 0-.33-.33h-20.59a.33.33 0 0 1-.33-.33v-30.09a.33.33 0 0 1 .33-.33h104.09a.33.33 0 0 1 .33.33v30.09a.33.33 0 0 1-.33.33h-22.84a.33.33 0 0 0-.33.33v195.44a.33.33 0 0 1-.09.23l-38.34 39.15a.33.33 0 0 1-.24.1h-65.25a.33.33 0 0 0-.33.33v44.34a.33.33 0 0 0 .33.33h22.84a.33.33 0 0 1 .33.33v38.59a.33.33 0 0 1-.33.33H368.08a.33.33 0 0 1-.33-.33v-38.59a.33.33 0 0 1 .33-.33h23.09a.33.33 0 0 0 .33-.33v-44.34a.33.33 0 0 0-.33-.33h-65.99a.33.33 0 0 1-.24-.1l-38.1-38.93a.33.33 0 0 1-.09-.23V170.08a.33.33 0 0 0-.33-.33Z"/><path d="M16.05 788.53c5.21 14.1 18.21 23.71 33.98 20.04 11.25-2.62 17.17-12.32 14.23-23.24-2.41-8.97-11.19-14.1-19.04-17.92-10.31-5.02-18.02-8.16-25.13-14.36-18.84-16.43-12.5-47.22 12.85-52.38 19.9-4.04 35.72 5.59 43.17 23.66q.16.38-.21.56l-10.63 5.19q-.54.26-.79-.28c-5.77-12.34-15-20.85-29.48-17.28-14.48 3.57-15.65 21.37-6.08 30.57 10.09 9.7 25.33 13.26 36.67 21.84 10.9 8.25 15.04 21.05 11.31 34.06-3.6 12.51-14.2 19.76-26.84 21.75-21.29 3.34-37.85-7.5-45.83-26.88q-.22-.55.31-.79l10.68-4.89a.62.61 67.7 0 1 .83.35ZM109.69 813.06c-24.37-19.3-24.51-78.24-4.28-100.67 16.33-18.11 45.03-16.71 58.9 3.56 18.6 27.17 18.34 97.16-24.25 105.04q-16.5 3.06-30.37-7.93Zm8.5-9.5q12.16 9.91 25.17 3.5c21.86-10.77 20.7-50.6 16.08-69.64-2.94-12.12-10.04-23.44-23.5-25.1-38.49-4.77-38.23 74.57-17.75 91.24ZM230.49 821.48c-24.27 0-36.92-14.44-37.05-38.29q-.22-40.38-.2-80.83a.36.35-90 0 1 .35-.36h12.86q.54 0 .54.53.04 40.26 0 80.46c-.02 18.46 11.33 30.36 30.4 25.47 13.78-3.53 16.07-16.7 16.09-28.86q.05-38.59.01-77.24a.37.36-.8 0 1 .36-.36h12.1q.52 0 .52.52.09 55.85.02 80.47c-.07 22.24-12.49 38.49-36 38.49ZM324.5 715.06v103.88a.56.56 0 0 1-.56.56h-12.38a.56.56 0 0 1-.56-.56V715.06a.56.56 0 0 0-.56-.56h-29.13a.56.56 0 0 1-.56-.56v-11.38a.56.56 0 0 1 .56-.56h72.88a.56.56 0 0 1 .56.56v11.38a.56.56 0 0 1-.56.56h-29.13a.56.56 0 0 0-.56.56ZM383 764.35v54.55a.6.6 0 0 1-.6.6h-12.3a.6.6 0 0 1-.6-.6V702.6a.6.6 0 0 1 .6-.6h12.3a.6.6 0 0 1 .6.6v48.05a.6.6 0 0 0 .6.6h46.05a.6.6 0 0 0 .6-.6V702.6a.6.6 0 0 1 .6-.6h12.3a.6.6 0 0 1 .6.6v116.3a.6.6 0 0 1-.6.6h-12.3a.6.6 0 0 1-.6-.6v-54.55a.6.6 0 0 0-.6-.6H383.6a.6.6 0 0 0-.6.6ZM551.39 758.82c12.87 3.04 19.22 12.16 20.48 24.99 2.25 22.85-13.73 35.6-35.06 35.76q-18.48.14-36.96-.18-.6-.02-.6-.62V702.5a.49.49 0 0 1 .48-.49q17.56-.03 35.27-.04c23.07-.02 38.51 13.82 32.68 38.26-2.29 9.62-7.65 14.15-16.35 17.84q-1.1.47.06.75Zm4.26-21.05c3.8-28.78-25.34-23.8-42.68-23.77a.48.47-90 0 0-.47.48v38.51q0 .48.49.49c13.53.15 40.05 4.05 42.66-15.71Zm-42.85 69.76q11.78-.04 23.49-.06c16.02-.04 24.16-8.75 22.34-24.9q-1.55-13.76-14.97-16.69c-9.63-2.11-20.85-1.14-30.69-1.12a.47.47 0 0 0-.47.47v42a.3.3 0 0 0 .3.3ZM652.99 807.58l.01 11.34a.58.58 0 0 1-.58.58h-61.59a.58.58 0 0 1-.58-.58V702.58a.58.58 0 0 1 .58-.58h59.08a.58.58 0 0 1 .58.58l.01 11.34a.58.58 0 0 1-.58.58h-45.59a.58.58 0 0 0-.58.58v35.59a.58.58 0 0 0 .58.58h32.83a.58.58 0 0 1 .58.58l.01 11.09a.58.58 0 0 1-.58.58h-32.84a.58.58 0 0 0-.58.58v42.34a.58.58 0 0 0 .58.58h48.08a.58.58 0 0 1 .58.58ZM681 722.59v96.28q0 .63-.63.63h-11.12q-.75 0-.75-.75V702.63q0-.63.62-.63h14.6q.58 0 .84.52 18.04 35.22 36.15 70.34 5.19 10.07 10.16 20.8a.34.33 32.6 0 0 .64-.14l-.01-90.89q0-.63.62-.63h11q.63 0 .63.62v116.56a.31.31 0 0 1-.31.31l-11.48.01q-.54 0-.79-.48-23.67-45.48-47.05-91.08-1.36-2.65-2.52-5.47a.31.31 0 0 0-.6.12ZM827.06 713.19c17.41 16.06 18.03 51.1 12.42 72.81-9.38 36.31-41.67 34.15-72.33 33.36q-.4-.01-.4-.4V702.48a.48.48 0 0 1 .48-.48c19.47 0 44.07-3.36 59.83 11.19Zm-11.25 7.75c-9.98-7.91-23.01-6.6-35.09-6.4q-.47.01-.47.47v91.76a.42.42 0 0 0 .41.42c13.8.39 28.91 1.5 38.66-9.84 7.31-8.49 8.96-20.8 9.33-32.35.49-15.24-.5-34.29-12.84-44.06Z"/></svg>