<?xml version="1.0" encoding="UTF-8" standalone="no"?>
<!-- Created with Inkscape (http://www.inkscape.org/) -->
<svg
   xmlns:svg="http://www.w3.org/2000/svg"
   xmlns="http://www.w3.org/2000/svg"
   version="1.0"
   width="208.8811"
   height="286.51331"
   id="svg4583">
  <defs
     id="defs4585" />
  <g
     transform="translate(-269.4628,-351.09013)"
     id="layer1">
    <path
       d="M 251.49977,483.13785 L 301.94868,483.13785 L 337.07134,595.42393 L 371.66184,483.13785 L 420.6207,483.13785 L 362.72152,639.1676 L 310.46326,639.1676 L 251.49977,483.13785 z"
       transform="scale(1.1126081,0.898789)"
       id="text4606"
       style="font-size:3138.80786133px;font-style:normal;font-weight:normal;line-height:125%;fill:#03568c;fill-opacity:1;stroke:none;stroke-width:1px;stroke-linecap:butt;stroke-linejoin:miter;stroke-opacity:1;font-family:Bitstream Vera Sans" />
    <path
       d="M 353.77346,468.92805 C 346.076,433.5175 329.46164,430.29103 336.16306,390.01991 C 338.59561,399.44052 340.85519,409.03409 347.67755,414.06488 C 362.46698,397.49854 358.89572,383.22727 360.20804,368.34557 C 369.83436,387.36226 369.16998,407.52887 357.43703,444.12346 C 355.05762,451.54472 354.12904,459.5372 353.77346,468.92805 z"
       id="path4610"
       style="fill:#ffd21d;fill-opacity:1;fill-rule:evenodd;stroke:#000000;stroke-width:0;stroke-linecap:butt;stroke-linejoin:miter;stroke-miterlimit:4;stroke-dasharray:none;stroke-opacity:1" />
    <path
       d="M 372.39985,491.95704 C 396.29274,468.24535 360.89993,454.2104 377.81844,423.88607 C 375.9681,454.76734 398.14645,457.89564 382.22103,499.06893 C 393.64176,479.1539 397.71524,457.42789 406.60467,437.43252 C 420.50547,419.24888 411.45941,413.76116 410.32994,404.24369 C 410.83963,421.51011 398.11262,430.63257 392.38088,445.22174 C 391.31938,425.91773 408.19887,422.69342 396.10615,394.76117 C 395.51492,404.77076 393.02578,408.13772 390.68758,412.03292 C 394.13351,385.79867 387.41649,376.84149 382.22103,365.29761 C 384.53642,399.38499 371.41695,411.17761 365.96528,434.04592 C 359.37457,468.11148 369.19465,467.66213 372.39985,491.95704 z"
       id="path4612"
       style="fill:#ffd21d;fill-opacity:1;fill-rule:evenodd;stroke:#000000;stroke-width:0;stroke-linecap:butt;stroke-linejoin:miter;stroke-miterlimit:4;stroke-dasharray:none;stroke-opacity:1" />
    <path
       d="M 262.7432,696.78834 L 256.34076,715.40796 L 253.66473,715.40796 L 247.26228,696.78834 L 249.9133,696.78834 L 255.06527,712.24425 L 260.21724,696.78834 L 262.7432,696.78834 z M 271.05889,715.40796 L 263.83112,715.40796 L 263.83112,713.50723 L 266.20703,713.50723 L 266.20703,698.68906 L 263.83112,698.68906 L 263.83112,696.78834 L 271.05889,696.78834 L 271.05889,698.68906 L 268.68298,698.68906 L 268.68298,713.50723 L 271.05889,713.50723 L 271.05889,715.40796 z M 287.42765,715.40796 L 284.65159,715.40796 L 276.42344,699.35182 L 276.42344,715.40796 L 274.11005,715.40796 L 274.11005,696.78834 L 277.6239,696.78834 L 285.11426,711.53148 L 285.11426,696.78834 L 287.42765,696.78834 L 287.42765,715.40796 z M 298.49438,715.74559 C 297.27724,715.74559 296.15807,715.54134 295.13685,715.13285 C 294.11562,714.72436 293.23403,714.1158 292.49209,713.30716 C 291.75013,712.49852 291.17491,711.4898 290.76643,710.281 C 290.35794,709.07221 290.15369,707.68418 290.15369,706.1169 C 290.15369,704.55799 290.35168,703.19913 290.74767,702.04034 C 291.14365,700.88158 291.72096,699.87286 292.47958,699.01419 C 293.22153,698.18055 294.10103,697.54489 295.11809,697.10721 C 296.13514,696.66956 297.27308,696.45072 298.5319,696.45071 C 299.15713,696.45072 299.74277,696.49658 300.28882,696.58826 C 300.83485,696.67998 301.34129,696.79669 301.80815,696.93839 C 302.20829,697.06346 302.61887,697.21977 303.03987,697.40732 C 303.46085,697.59491 303.87559,697.80124 304.2841,698.02631 L 304.2841,701.01495 L 304.08402,701.01495 C 303.86726,700.81489 303.58798,700.57313 303.2462,700.28967 C 302.90439,700.00625 302.48757,699.72698 301.99572,699.45185 C 301.52053,699.19344 301.00367,698.98086 300.44513,698.81411 C 299.88657,698.6474 299.24049,698.56403 298.50689,698.56401 C 297.71491,698.56403 296.96462,698.72659 296.25603,699.0517 C 295.54742,699.37684 294.92635,699.85619 294.39281,700.48975 C 293.86761,701.12334 293.45912,701.91948 293.16735,702.87817 C 292.87556,703.83688 292.72967,704.91646 292.72968,706.1169 C 292.72967,707.3924 292.8839,708.49074 293.19236,709.41191 C 293.5008,710.33311 293.9218,711.11049 294.45534,711.74406 C 294.9722,712.36096 295.58076,712.82572 296.28104,713.13834 C 296.9813,713.45096 297.72325,713.60727 298.50689,713.60727 C 299.22382,713.60727 299.88657,713.51974 300.49515,713.34467 C 301.1037,713.1696 301.64558,712.94869 302.12077,712.68192 C 302.57927,712.42349 302.97525,712.1588 303.30873,711.88786 C 303.64217,711.61693 303.90477,711.38559 304.09653,711.19385 L 304.2841,711.19385 L 304.2841,714.14498 C 303.87559,714.33672 303.49003,714.52012 303.12741,714.69519 C 302.76475,714.87025 302.325,715.04115 301.80815,715.20788 C 301.26627,715.38295 300.76399,715.51633 300.30133,715.60804 C 299.83864,715.69974 299.23632,715.74559 298.49438,715.74559 L 298.49438,715.74559 z M 306.62249,715.40796 L 306.62249,696.78834 L 318.26444,696.78834 L 318.26444,698.98918 L 309.09844,698.98918 L 309.09844,704.09113 L 317.63921,704.09113 L 317.63921,706.29197 L 309.09844,706.29197 L 309.09844,713.20712 L 318.26444,713.20712 L 318.26444,715.40796 L 306.62249,715.40796 z M 334.29558,715.40796 L 331.51952,715.40796 L 323.29137,699.35182 L 323.29137,715.40796 L 320.97798,715.40796 L 320.97798,696.78834 L 324.49183,696.78834 L 331.98219,711.53148 L 331.98219,696.78834 L 334.29558,696.78834 L 334.29558,715.40796 z M 351.40212,715.40796 L 348.62606,715.40796 L 340.39791,699.35182 L 340.39791,715.40796 L 338.08453,715.40796 L 338.08453,696.78834 L 341.59837,696.78834 L 349.08874,711.53148 L 349.08874,696.78834 L 351.40212,696.78834 L 351.40212,715.40796 z M 355.19107,715.40796 L 355.19107,696.78834 L 366.83303,696.78834 L 366.83303,698.98918 L 357.66702,698.98918 L 357.66702,704.09113 L 366.20779,704.09113 L 366.20779,706.29197 L 357.66702,706.29197 L 357.66702,713.20712 L 366.83303,713.20712 L 366.83303,715.40796 L 355.19107,715.40796 z M 374.73605,715.74559 C 373.38553,715.74559 372.23717,715.60595 371.29098,715.32668 C 370.34478,715.0474 369.45486,714.70352 368.62121,714.29503 L 368.62121,711.19385 L 368.79628,711.19385 C 369.61325,711.96081 370.53861,712.55479 371.57234,712.97578 C 372.60606,713.39677 373.60228,713.60727 374.56098,713.60727 C 375.92816,713.60727 376.96189,713.32175 377.66217,712.75069 C 378.36243,712.17964 378.71256,711.42727 378.71257,710.49358 C 378.71256,709.75163 378.52916,709.14724 378.16236,708.68038 C 377.79554,708.21355 377.21199,707.86758 376.41169,707.64249 C 375.83646,707.47577 375.31126,707.33821 374.83609,707.22983 C 374.3609,707.12146 373.76484,706.97557 373.0479,706.79216 C 372.40599,706.62544 371.83077,706.41286 371.32224,706.15442 C 370.81371,705.896 370.36354,705.55837 369.97173,705.14153 C 369.58824,704.73305 369.29021,704.25162 369.07763,703.69723 C 368.86505,703.14286 368.75876,702.50303 368.75876,701.77774 C 368.75876,700.26885 369.34648,699.00378 370.52194,697.98254 C 371.69738,696.96134 373.19795,696.45072 375.02366,696.45071 C 376.06572,696.45072 377.05151,696.55493 377.98104,696.76333 C 378.91055,696.97176 379.7713,697.2677 380.56328,697.65117 L 380.56328,700.6148 L 380.37571,700.6148 C 379.7838,700.07294 379.02518,699.59984 378.09984,699.19551 C 377.17447,698.7912 376.20327,698.58904 375.18622,698.58902 C 374.03577,698.58904 373.10625,698.85789 372.39765,699.39558 C 371.68905,699.9333 371.33474,700.63982 371.33475,701.51514 C 371.33474,702.30713 371.54316,702.93653 371.95999,703.40337 C 372.37681,703.87022 372.98121,704.21202 373.77318,704.42876 C 374.29837,704.57049 374.94029,704.73097 375.69892,704.91019 C 376.45753,705.08944 377.08694,705.25408 377.58714,705.40413 C 378.87095,705.79596 379.80881,706.38785 380.40072,707.17981 C 380.9926,707.97179 381.28854,708.94716 381.28856,710.10593 C 381.28854,710.83121 381.14057,711.54815 380.84464,712.25675 C 380.54868,712.96536 380.13393,713.56559 379.60041,714.05744 C 379.00017,714.59932 378.32283,715.01614 377.56838,715.30792 C 376.81392,715.5997 375.86981,715.74559 374.73605,715.74559 L 374.73605,715.74559 z"
       transform="scale(1.1867933,0.8426067)"
       id="text5123"
       style="font-size:25.60979843px;font-style:normal;font-variant:normal;font-weight:normal;font-stretch:normal;text-align:start;line-height:125%;writing-mode:lr-tb;text-anchor:start;fill:#03568c;fill-opacity:1;stroke:none;stroke-width:1px;stroke-linecap:butt;stroke-linejoin:miter;stroke-opacity:1;font-family:Tahoma;-inkscape-font-specification:Tahoma" />
    <path
       d="M 261.8445,721.71036 C 260.77917,721.71036 259.84803,721.57008 259.05108,721.28952 C 258.25412,721.00896 257.57508,720.59218 257.01396,720.03919 C 256.37965,719.40488 255.93238,718.64655 255.67215,717.76421 C 255.41191,716.88186 255.2818,715.79418 255.2818,714.50115 L 255.2818,703.16891 L 257.69707,703.16891 L 257.69707,714.50115 C 257.69706,715.33878 257.74992,716.04425 257.85565,716.61756 C 257.96136,717.19089 258.16873,717.70525 258.47776,718.16065 C 258.80304,718.64859 259.24422,719.0186 259.80128,719.2707 C 260.35833,719.5228 261.0394,719.64885 261.8445,719.64885 C 262.60079,719.64885 263.27169,719.5228 263.85722,719.2707 C 264.44273,719.0186 264.89813,718.64859 265.22343,718.16065 C 265.52431,717.69712 265.72965,717.18479 265.83945,716.62366 C 265.94922,716.06254 266.00411,715.37537 266.00413,714.56215 L 266.00413,703.16891 L 268.41939,703.16891 L 268.41939,714.50115 C 268.41938,715.76165 268.2913,716.84324 268.03515,717.74591 C 267.77897,718.64859 267.32966,719.41301 266.68723,720.03919 C 266.10983,720.60032 265.43689,721.01912 264.66841,721.29562 C 263.89991,721.57211 262.9586,721.71036 261.8445,721.71036 L 261.8445,721.71036 z M 284.88713,721.33221 L 282.1791,721.33221 L 274.1526,705.66957 L 274.1526,721.33221 L 271.89592,721.33221 L 271.89592,703.16891 L 275.32364,703.16891 L 282.63044,717.55073 L 282.63044,703.16891 L 284.88713,703.16891 L 284.88713,721.33221 z M 294.92635,721.33221 L 287.87572,721.33221 L 287.87572,719.47807 L 290.1934,719.47807 L 290.1934,705.02306 L 287.87572,705.02306 L 287.87572,703.16891 L 294.92635,703.16891 L 294.92635,705.02306 L 292.60867,705.02306 L 292.60867,719.47807 L 294.92635,719.47807 L 294.92635,721.33221 z M 311.06473,703.16891 L 304.81919,721.33221 L 302.20875,721.33221 L 295.9632,703.16891 L 298.54925,703.16891 L 303.57496,718.24604 L 308.60067,703.16891 L 311.06473,703.16891 z M 312.83349,721.33221 L 312.83349,703.16891 L 324.19012,703.16891 L 324.19012,705.31582 L 315.24875,705.31582 L 315.24875,710.29273 L 323.58021,710.29273 L 323.58021,712.43964 L 315.24875,712.43964 L 315.24875,719.18531 L 324.19012,719.18531 L 324.19012,721.33221 L 312.83349,721.33221 z M 340.90183,721.33221 L 337.76686,721.33221 L 332.00925,714.11081 L 329.25243,714.11081 L 329.25243,721.33221 L 326.83716,721.33221 L 326.83716,703.16891 L 331.52132,703.16891 C 332.56223,703.16893 333.43441,703.22586 334.13786,703.33969 C 334.84129,703.45356 335.51016,703.71785 336.14448,704.13258 C 336.77878,704.53921 337.28095,705.06373 337.65098,705.70616 C 338.02098,706.34862 338.20599,707.14558 338.206,708.09703 C 338.20599,709.43073 337.8685,710.54484 337.19354,711.43937 C 336.51855,712.33393 335.59961,712.9967 334.43672,713.4277 L 340.90183,721.33221 z M 335.68095,708.28001 C 335.68094,707.75143 335.58742,707.28179 335.40039,706.8711 C 335.21333,706.46044 334.92464,706.12499 334.5343,705.86474 C 334.19274,705.63706 333.79426,705.47644 333.33887,705.38291 C 332.88346,705.2894 332.31827,705.24264 331.6433,705.24263 L 329.25243,705.24263 L 329.25243,712.09808 L 331.37494,712.09808 C 332.06617,712.09809 332.68828,712.0371 333.24128,711.91511 C 333.79426,711.79314 334.26593,711.54104 334.65629,711.15881 C 335.00596,710.81727 335.26416,710.41066 335.43088,709.93898 C 335.59758,709.46732 335.68094,708.91433 335.68095,708.28001 L 335.68095,708.28001 z M 347.41573,721.66157 C 346.09831,721.66157 344.9781,721.52535 344.05509,721.25293 C 343.13209,720.9805 342.26397,720.64504 341.45075,720.24656 L 341.45075,717.22138 L 341.62153,717.22138 C 342.41848,717.96955 343.32116,718.54897 344.32956,718.95964 C 345.33795,719.37032 346.30975,719.57566 347.24496,719.57566 C 348.57863,719.57566 349.58703,719.29713 350.27014,718.74007 C 350.95324,718.18302 351.29479,717.44909 351.2948,716.53827 C 351.29479,715.81451 351.11588,715.22493 350.75807,714.76952 C 350.40025,714.31412 349.83099,713.97663 349.05031,713.75706 C 348.48918,713.59442 347.97685,713.46024 347.51332,713.35451 C 347.04978,713.2488 346.46832,713.10649 345.76896,712.92757 C 345.14277,712.76493 344.58165,712.55756 344.08559,712.30546 C 343.58952,712.05337 343.15038,711.72401 342.76817,711.31739 C 342.39409,710.91892 342.10336,710.44929 341.89599,709.90849 C 341.68862,709.36771 341.58493,708.74356 341.58493,708.03604 C 341.58493,706.56413 342.15825,705.33006 343.3049,704.33385 C 344.45154,703.33767 345.91533,702.83958 347.69629,702.83956 C 348.71281,702.83958 349.67445,702.94123 350.5812,703.14452 C 351.48793,703.34784 352.32758,703.63653 353.10015,704.0106 L 353.10015,706.9016 L 352.91718,706.9016 C 352.33978,706.37302 351.59975,705.91152 350.69708,705.51709 C 349.7944,705.12269 348.84699,704.92549 347.85487,704.92547 C 346.73262,704.92549 345.82588,705.18775 345.13465,705.71226 C 344.4434,706.23681 344.09779,706.92601 344.09779,707.77988 C 344.09779,708.55245 344.30109,709.16643 344.70771,709.62182 C 345.11431,710.07724 345.7039,710.41066 346.47646,710.62209 C 346.98878,710.76035 347.61496,710.91689 348.355,711.09172 C 349.09503,711.26658 349.70901,711.42719 350.19695,711.57356 C 351.4493,711.95578 352.36417,712.53317 352.94157,713.30572 C 353.51895,714.07829 353.80764,715.02975 353.80765,716.16013 C 353.80764,716.86763 353.66329,717.567 353.37461,718.25824 C 353.08591,718.94948 352.68133,719.535 352.16088,720.0148 C 351.57535,720.54339 350.91461,720.95 350.17865,721.23463 C 349.44268,721.51926 348.52171,721.66157 347.41573,721.66157 L 347.41573,721.66157 z M 362.60264,721.33221 L 355.55201,721.33221 L 355.55201,719.47807 L 357.86969,719.47807 L 357.86969,705.02306 L 355.55201,705.02306 L 355.55201,703.16891 L 362.60264,703.16891 L 362.60264,705.02306 L 360.28496,705.02306 L 360.28496,719.47807 L 362.60264,719.47807 L 362.60264,721.33221 z M 369.82405,721.33221 L 369.82405,705.31582 L 363.72489,705.31582 L 363.72489,703.16891 L 378.33848,703.16891 L 378.33848,705.31582 L 372.23931,705.31582 L 372.23931,721.33221 L 369.82405,721.33221 z M 392.87888,703.16891 L 386.74312,713.29352 L 386.74312,721.33221 L 384.32785,721.33221 L 384.32785,713.54968 L 378.1921,703.16891 L 380.87573,703.16891 L 385.55988,711.18321 L 390.31723,703.16891 L 392.87888,703.16891 z"
       transform="scale(1.1577078,0.8637758)"
       id="text5131"
       style="font-size:24.98216438px;font-style:normal;font-variant:normal;font-weight:normal;font-stretch:normal;text-align:start;line-height:125%;writing-mode:lr-tb;text-anchor:start;fill:#03568c;fill-opacity:1;stroke:none;stroke-width:1px;stroke-linecap:butt;stroke-linejoin:miter;stroke-opacity:1;font-family:Tahoma;-inkscape-font-specification:Tahoma" />
  </g>
</svg>
