<svg xmlns="http://www.w3.org/2000/svg" viewBox="0 0 3629.7 1225.8" height="183" width="544"><defs><clipPath id="a"><path d="M18088.1 5368.4h9154.4c0 2528.3-2049.7 4577.6-4577.5 4577.6-2527.7 0-4576.9-2049.3-4576.9-4577.6"/></clipPath></defs><path d="M3618.4 1225.8H.4v-44.9h3618v44.9M472.2 668.5h-87.8V527c-.4-4-.7-18.8-15.3-18.8-16 0-16.4 15.6-16.4 24.4v136h-87.6V468h87.6V491c11.5-9.6 31-26.5 64.5-26.5 18 0 32.4 5.3 40.8 13.7 13 13.2 13.7 31.6 14.2 45.7v144.7M749.9 668.6H645.2L589.9 468H679L696.6 570c1.9 10 2.2 11.6 3.4 26 2-15.6 2-17.6 4.6-33.6l17.1-94.3h82.7l-54.5 200.6M927.7 543.5c.8-22.5-.7-43.8-17.9-43.8-17.9 0-20.2 22.5-20.5 43.8zm87.7 58c-2 15.7-5 41.4-32 57.9-22.5 13.6-58.7 15.2-77 15.2-13 0-25.5-.8-38.5-3.2a87.3 87.3 0 0 1-37.7-16.5c-29-23.2-29-64.2-29-87.4 0-65.8 26.3-105.5 111.7-105.5 51.8 0 73.1 16 82.3 26.5 16 19.2 19 53.3 19 73 0 4.8 0 6.4-.4 15.6h-125c0 10.9-.3 17.3 0 26 .5 8.5 1.2 33.8 21 33.8 18.3 0 19.5-19.7 20.2-35.3h85.4M1114.3 668.6h-87.6V468h87.6v43.8c3.5-12.1 13.3-47.4 53.3-47.4 3.1 0 4.3 0 9.6.4v71.8c-8.4-3.2-16.4-6.4-26.7-6.4-5.7 0-11.8 1.2-17.9 4-17.9 9.3-18.3 26.5-18.3 40.5v93.9M1257 596.8c-19-4-36.6-8.4-48.8-18.5a56 56 0 0 1-21-46.5c0-69.8 71-69.8 90.7-69.8 13 0 26.3.4 39.6 2.4 54.1 7.2 54.5 39.3 55 56.6l-74-1.6c0-6.5 0-21.7-17.5-21.7-9.6 0-16.4 6.5-16.4 15.2 0 12.9 10.7 15.7 25.5 19.3l18 3.2c29 6 67.8 14 67.4 65.4 0 12.4-2 25.3-7.7 36.5-16.7 30.9-52.5 37.3-89.5 37.3-68.6 0-97.1-16-94.9-64.2l79 1.6c0 6.4-.5 25.7 20.9 25.7 11.8 0 18.2-6.8 18.2-17.7 0-13.2-10.2-15.6-25.5-19.2l-19-4M1829.4 468l-54.1 201.4c-14.9 51.3-26.7 85-96 85-8 0-32.4-.8-55.7-5.2v-58.6c4.6.8 19.5 4 32 4 6.1 0 19.9 0 19.9-14.8 0-3.6-1.2-6.8-2-10l-1.8-7.7-56.8-194h89.1l22.1 135.5L1746 468h83.5M2054 511.7c-1.5-3.2-5.7-12-16.7-12-3.8 0-7.6 1.2-10.7 3.6-10.3 7.7-11.4 25.3-11.8 35.7-.7 13.6-1.1 22-1.1 31 0 9.1.4 18.4.7 27.6.4 12.4 1.2 39.3 20.6 39.3 3 0 5.7-.8 8.4-2.4 12.2-6.8 13.3-26 14.1-36.1.7-10.9 1.1-21.7 1.1-32.5.4-42.5-1.9-48.1-4.6-54.2m69.8 134c-25.9 28.9-68.2 28.9-86.9 28.9-17.9 0-33.5-.8-48.4-4.4-58.3-14-62.4-64.2-62.4-94.3 0-27.2 0-65.7 30.8-91.4 24.4-20.5 61-22.5 87.3-22.5 14 0 58.6 0 83.4 29.7 20.2 24 19.4 57.3 19 77.4-.3 19.6-1 52.1-22.8 76.6M244.2 385v166c0 16 .4 31.3-2.6 47-9.6 54.5-43.4 77-123.5 77a321 321 0 0 1-43.8-2.8 91.3 91.3 0 0 1-41.9-15.6C-.4 632.5 0 591.6 0 565v-180h98.7v183.6c.4 25.7.4 29.7 3 35.7 2.7 6 8.4 13.2 19.5 13.2 11 0 17.5-6.4 20.2-11.2 4.5-7.6 4.5-18.9 4.5-37.7V385h98.3M580 449.2h-88v-63.8h88zm0 219.4h-88V468h88v200.6M1476 449.2h-88v-63.8h88zm0 219.4h-88V468h88v200.6" fill="#eaae19"/><path d="M1595.6 503.3v77.8c.3 22.1.3 25.3 2.6 29.3 4.6 8.8 14.1 10.5 25.2 9.3V665c-12.6 2.8-26.7 6-45.4 6-19.8 0-42.7-4.8-54.8-16.5-16.4-16.4-15.3-44.5-15-62.1v-89h-20V468h20.9v-35.2l86.5-19.3V468h27.8v35.3h-27.8M2253.3 668.6h-87.6V503.3h-21.4V468h21.4v-8.8c.4-18 1.1-39.7 18.3-57 16.4-16.4 40-20.4 63.2-20.4 13.7 0 27 1.2 40 5.6V432a52 52 0 0 0-14-2c-19.5 0-19.9 17.6-19.9 30v8h26.3v35.3h-26.3v165.3M354.9 1104.8H195.6l-56.6-163c-8.7-26.1-11.4-35.2-19.5-62 0 13.7.6 22.2.6 46.1l3.2 179H.8V703.7h162.5L217.8 860a997.1 997.1 0 0 1 18.9 67.6c0-16 0-31.8-.6-47.7l-1.6-176.2h120.3v401.1M568.3 881.9c-2.2-4.6-8.1-17-23.8-17-5.4 0-10.8 1.6-15.1 5-14.6 10.8-16.2 35.8-16.8 50.6-1 19.3-1.5 31.3-1.5 43.8 0 13 .5 26 1 39.1.6 17.7 1.7 55.8 29.2 55.8 4.3 0 8-1.2 11.8-3.5 17.3-9.6 19-36.9 20-51.1a671 671 0 0 0 1.7-46c.5-60.3-2.8-68.2-6.5-76.7m98.7 189.7c-36.7 41-96.6 41-123 41-25.4 0-47.5-1.2-68.6-6.3-82.5-19.9-88.5-90.9-88.5-133.5 0-38.6 0-93.2 43.7-129.5 34.6-29 86.4-31.9 123.6-31.9 20 0 83.2 0 118.2 42 28.6 34.1 27.6 81.3 27 109.7-.5 27.9-1.6 73.9-32.4 108.5M841.9 1104H717.7V820H842v61.9c4.9-17 18.9-67 75.6-67.1 4.3 0 5.9 0 13.5.6v101.7c-11.9-4.5-23.2-9.1-37.8-9.1-8.1 0-16.8 1.7-25.4 5.7-25.3 13-25.9 37.5-25.9 57.4v133M1090.8 870v110.2c.6 31.2.6 35.8 3.8 41.4 6.5 12.5 20 14.8 35.6 13.1v64.2c-17.8 4-37.8 8.6-64.2 8.6-28 0-60.5-6.9-77.7-23.4-23.3-23.3-21.6-63-21-88l-.1-126.1h-28.6v-50h29.7v-50l122.5-27.3V820h39.4v50h-39.4M1442 1104h-124.2V917.6c-.6-19.2-1.1-40.9-21.1-40.9-21.6 0-23.2 22.2-23.7 34.1V1104h-124.2V703H1273v148.7c18.9-16.4 43.1-37 89.5-37 77.8 0 78.8 57.5 79.4 95.6V1104M1639.4 926.8c1.1-31.9-1-62-25.4-62-25.3 0-28.5 31.8-29 62zm124.2 82.3c-2.7 22.2-7 58.5-45.4 81.8-31.8 19.3-83 21.6-109 21.6-18.4 0-36.2-1-54.5-4.5-18.9-4-38.3-10.8-53.4-23.3-41-33-41-90.9-41-123.9 0-93.1 37.2-149.3 158.1-149.4 73.4 0 103.6 22.8 116.6 37.5 22.7 27.3 27 75.6 27 103.4 0 6.8 0 9-.6 22.1h-177c0 15.4-.6 24.5 0 37 .5 12 1.6 47.8 29.6 47.8 26 0 27.6-27.9 28.7-50h120.9M1903.8 1104h-124.2V820h124.2v61.9c4.8-17 18.9-67 75.6-67.1 4.3 0 5.9 0 13.4.6v101.7c-11.8-4.5-23.2-9.1-37.8-9.1a61 61 0 0 0-25.3 5.7c-25.4 13-26 37.5-26 57.4v133M2303.6 1104h-124.2V903.5c-.5-5.7-1-26.8-21.6-26.8-22.6 0-23.2 22.2-23.2 34.7V1104h-124.1V820h124.1v32.3c16.2-13.6 43.7-37.5 91.2-37.5 25.4 0 46 7.4 57.8 19.3 18.3 18.8 19.4 45 20 64.8v205M2502.8 1104h-140.3V703h140.3v401M2705.6 881.9c-2.1-4.6-8.1-17-23.7-17-5.4 0-10.8 1.6-15.1 5-14.6 10.8-16.2 35.8-16.7 50.6a740.6 740.6 0 0 0-1.7 43.8c0 13 .6 26 1.1 39.1.6 17.7 1.6 55.8 29.1 55.8 4.4 0 8.1-1.2 12-3.5 17.2-9.6 18.8-36.9 20-51.1 1-15.4 1.5-30.7 1.5-46 .5-60.3-2.7-68.2-6.5-76.7m98.8 189.7c-36.7 41-96.6 41-123 41-25.4 0-47.6-1.2-68.6-6.3-82.6-19.9-88.5-90.9-88.5-133.5 0-38.6 0-93.2 43.7-129.5 34.6-29 86.3-31.9 123.6-31.9 20 0 83.1 0 118.2 42 28.6 34.1 27.5 81.3 27 109.7-.5 27.9-1.6 73.9-32.4 108.5M3233 1104h-138.2l-23.2-105.7c-3.8-16.4-4.4-20.4-6.5-35.8a198 198 0 0 1-6.5 35.8l-24.3 105.7h-139.7L2833 820h123.6l20 135.2c3.2 20.4 3.2 21.6 5.4 43.1 2.1-15.3 2.7-19.3 4.8-32.4l28.6-146h102l27 132.4c3.8 20.5 4.4 25 7.6 46 1-15.9 1.6-18.7 3.2-33l19.5-145.4h119.2l-61 284M3457.3 971c-42.6 1.8-48.5 22.2-48.5 43.8 0 18.2 3.2 35.8 23.2 35.8 25.3 0 25.3-21.6 25.3-44.9zm124.2 62.6c0 42 .5 54.5 10.7 70.4h-104.6c-18.4 0-30.8-1.7-29.7-33-9.7 12-34 41.5-90.7 41.5-52.3 0-82-26-82-85.7 0-16.5.5-50.6 35-73.4 21.1-14.1 48.6-18.7 103.1-24.4l34-3.4v-19.9c0-24.4-.5-40.9-21-40.9-2.7 0-14.6 0-20.5 13.1-2.7 5.7-3.2 8-4.3 30.7h-119.9c-1-55.1 22.7-97.2 149.6-97.2 19.4 0 38.3 1.2 57.7 4 20 2.8 40.5 7.4 55.6 19.9 27.5 23.3 27 56.8 27 80v118.3" fill="#eaae19"/><path d="M2993.1 42.5a594.6 594.6 0 0 1 594 589H2399.1c2.8-325.2 268-589 594-589m626.5 594A627.3 627.3 0 0 0 2993.1 10a627.3 627.3 0 0 0-626.4 621.6h-.5v39.9h1253.3v-34.9h.2" fill="#f4b318"/><path d="M2409.4 621.5h1167.4c-8-314.7-267.7-569-583.7-569-316 0-575.7 254.3-583.7 569m1187.7 20H2389.2l.1-10c2.7-330.3 273.6-599 603.8-599 330.2 0 601 268.7 603.9 599zm-1220.9 20h1233.3l.1-35A617.3 617.3 0 0 0 2993.1 20c-337.2 0-613.8 274.4-616.5 611.7zm1253.3 19.9H2356.3v-59.9h.5C2364.8 278 2648.3 0 2993.1 0c351 0 636.6 285.5 636.6 636.5l-.2 44.9" fill="#eaae19"/><g clip-path="url(#a)" transform="matrix(.13333 0 0 -.13333 -23.7 1355.7)"><path d="M18088.1 9946h9154V5368.8h-9154V9946" fill="#f9f6e5"/><path d="M27205.5 5407.5c0-156.9-7.8-311.8-23.5-464.2V5294h-9033.4v-350.7a4531 4531 0 0 0-23.7 464.2c0 2507.6 2032.6 4540.5 4540.1 4540.5 2507.8 0 4540.5-2032.9 4540.5-4540.5" fill="#f9f6e5"/><path d="M27184.7 5407.5c0-156-8.2-310.4-23.4-462V5294h-8992.1v-348.6a4545.5 4545.5 0 0 0-23.5 462.1c0 2496 2023.5 4519.4 4519.6 4519.4 2495.8 0 4519.4-2023.4 4519.4-4519.4" fill="#f9f6e3"/><path d="M27163.5 5407.5c0-155-7.9-308.7-22.9-460.3V5294H18190v-346.8a4622.4 4622.4 0 0 0-23.2 460.3c0 2484.3 2014.4 4498.3 4498.5 4498.3 2484.5 0 4498.3-2014 4498.3-4498.3" fill="#f9f5e2"/><path d="M27142.4 5407.5c0-154.5-8.1-307.2-23.1-457.7V5294h-8908.6v-344.2a4618.5 4618.5 0 0 0-23.1 457.7c0 2472.6 2004.7 4477.3 4477.5 4477.3 2473 0 4477.3-2004.7 4477.3-4477.3" fill="#f9f5e1"/><path d="M27121.4 5407.5c0-153.9-7.8-305.9-23-455.8V5294h-8866.7v-342.3a4582.8 4582.8 0 0 0-22.8 455.8c0 2461.3 1995.2 4456.3 4456.3 4456.3 2461.4 0 4456.2-1995 4456.2-4456.3" fill="#f9f5e0"/><path d="M27100.5 5407.5c0-153.2-8.1-304.2-22.9-453.7V5294H18253v-340.2a4404 4404 0 0 0-23.1 453.7c0 2449.6 1985.8 4435.3 4435.3 4435.3s4435.3-1985.7 4435.3-4435.3" fill="#f9f4df"/><path d="M27079.4 5407.5c0-152.5-7.7-303-22.5-451.3V5294h-8783v-337.8a4446.8 4446.8 0 0 0-23 451.3c0 2438 1976.2 4414 4414.2 4414 2438.1 0 4414.3-1976 4414.3-4414" fill="#f9f4de"/><path d="M27058.3 5407.5c0-151.7-7.4-301.6-22.4-449.2V5294h-8741.3v-335.7a4462 4462 0 0 0-22.8 449.2c0 2426.2 1967.3 4393.2 4393.3 4393.2 2426.6 0 4393.2-1967 4393.2-4393.2" fill="#f9f3dc"/><path d="M27037.5 5407.5c0-151-8-300-22.8-447.2V5294h-8699.4v-333.7c-15 147.1-22.4 296.1-22.4 447.2 0 2414.8 1957.3 4372.1 4372.1 4372.1 2415.1 0 4372.5-1957.3 4372.5-4372" fill="#f9f3dc"/><path d="M27016.4 5407.5c0-150-7.6-298.6-22.7-444.9V5294h-8657.5v-331.4a4436.1 4436.1 0 0 0-22.2 445c0 2403 1948 4351 4351 4351 2403.3 0 4351.4-1948 4351.4-4351" fill="#f8f3da"/><path d="M26995.6 5407.5c0-149.4-7.6-297-22.4-443V5294h-8615.7v-329.4a4355.4 4355.4 0 0 0-22.4 443c0 2391.3 1938.6 4330.2 4330 4330.2s4330.5-1938.9 4330.5-4330.3" fill="#f8f2d9"/><path d="M26974.5 5407.5c0-148.8-7.9-296-22.3-440.9V5294h-8574.1v-327.4c-14.6 145-22 292-22 441 0 2379.6 1929.3 4309 4309 4309 2379.9 0 4309.4-1929.4 4309.4-4309" fill="#f8f2d8"/><path d="M26953.4 5407.5c0-148.3-7.8-294.3-22.2-438.5v325h-8532v-325a4314.8 4314.8 0 0 0-22.1 438.5c0 2368.4 1920 4288.2 4288 4288.2 2368.3 0 4288.3-1919.8 4288.3-4288.2" fill="#f8f2d7"/><path d="M26932.3 5407.5c0-147.2-7.4-293-22.1-436.1V5294h-8490.5v-322.6a4318 4318 0 0 0-21.8 436.1c0 2356.6 1910.2 4267 4267 4267 2356.9 0 4267.4-1910.4 4267.4-4267" fill="#f9f1d6"/><path d="M26911.5 5407.5c0-146.8-8-291.3-22-434V5294H18441v-320.5a4281 4281 0 0 0-22 434c0 2345 1901.1 4246.1 4246 4246.1 2345.7 0 4246.5-1901.1 4246.5-4246" fill="#f8f1d5"/><path d="M26890.3 5407.5c0-145.7-7.6-290.2-21.6-432V5294H18462v-318.4a4197 4197 0 0 0-22 432c0 2333.6 1891.8 4224.8 4225 4224.8 2333.6 0 4225.2-1891.2 4225.2-4224.9" fill="#f8f1d4"/><path d="M26869.2 5407.5c0-145.3-7.5-288.8-21.5-429.8V5294h-8365v-316.3a4251.2 4251.2 0 0 0-21.7 429.8c0 2321.9 1882.3 4204 4204.3 4204 2321.6 0 4204-1882.1 4204-4204" fill="#f9f0d2"/><path d="M26848.4 5407.5c0-144.3-7.6-287-21.6-427.6V5294h-8323v-314a4214.7 4214.7 0 0 0-21.4 427.5c0 2310.3 1872.6 4183.2 4182.7 4183.2 2310.2 0 4183.3-1873 4183.3-4183.2" fill="#f9f0d1"/><path d="M26827.4 5407.5a4228 4228 0 0 0-21.8-425.7V5294h-8281v-312.2c-14 140-21.3 282-21.3 425.7 0 2298.5 1863.1 4162.1 4162 4162.1 2298.3 0 4162-1863.6 4162-4162" fill="#f8f0d0"/><path d="M26806.2 5407.5c0-142.9-7.3-284.3-21.6-423.3V5294h-8239.2v-309.8c-14 139-21.2 280.4-21.2 423.3 0 2286.8 1854 4141.1 4141 4141.1 2286.9 0 4141-1854.3 4141-4141" fill="#f9efd0"/><path d="M26785.3 5407.5c0-142.3-7.4-282.8-21.5-421.2V5294h-8197.1v-307.7a4145.8 4145.8 0 0 0-21.2 421.2c0 2275.5 1844.5 4120 4119.6 4120 2275.5 0 4120.2-1844.5 4120.2-4120" fill="#f9efce"/><path d="M26764.1 5407.5c0-141.4-7-281.3-20.8-419.2V5294h-8156v-305.7a4214.4 4214.4 0 0 0-21.2 419.2c0 2263.6 1835.2 4099 4099 4099 2264 0 4099-1835.4 4099-4099" fill="#f9efcd"/><path d="M26743 5407.5c0-140.8-7-279.8-21-417V5294h-8113.7v-303.5a4122 4122 0 0 0-21.2 417c0 2252.2 1825.7 4078 4078.2 4078 2252.2 0 4077.8-1825.8 4077.8-4078" fill="#f8eecd"/><path d="M26722 5407.5c0-139.9-7-278.3-20.8-414.8V5294h-8072v-301.3a4131.4 4131.4 0 0 0-21 414.8c0 2240.6 1816.5 4057 4056.9 4057 2240.7 0 4057-1816.4 4057-4057" fill="#f8eecc"/><path d="M26701 5407.5c0-139.3-6.9-277.1-20.6-412.8V5294H18650v-299.3c-14 135.7-21 273.5-21 412.8 0 2229 1806.9 4036 4036 4036 2229 0 4036-1807 4036-4036" fill="#f8eecb"/><path d="M26680.2 5407.5c0-138.8-7.4-275.6-20.7-410.5v297h-7988.1v-297a3905.4 3905.4 0 0 0-21.3 410.5c0 2217.3 1797.7 4014.9 4015.1 4014.9 2217.2 0 4015-1797.6 4015-4014.9" fill="#f8eeca"/><path d="M26659 5407.5c0-137.8-7-274-20.3-408.4v295H18692v-295a4014 4014 0 0 0-20.6 408.4c0 2205.7 1788.1 3994 3993.6 3994 2205.7 0 3994-1788.3 3994-3994" fill="#f8edc9"/><path d="M26638 5407.5c0-136.9-7-272.6-20.5-406.4v293h-7904.7v-293a4030.7 4030.7 0 0 0-20.6 406.4c0 2194 1778.8 3972.9 3973 3972.9s3972.7-1778.8 3972.7-3972.9" fill="#f8edc7"/><path d="M26617 5407.5c0-136.3-7.1-271.4-20.5-403.9V5294h-7863v-290.4a4069.4 4069.4 0 0 0-20.2 404c0 2182.5 1769.6 3951.7 3952 3951.7 2182.5 0 3951.6-1769.2 3951.6-3951.8" fill="#f8ecc6"/><path d="M26596 5407.5a3991 3991 0 0 0-20.5-402V5294h-7820.7v-288.4a3943.8 3943.8 0 0 0-20.4 402c0 2170.7 1759.7 3930.7 3930.7 3930.7 2170.9 0 3931-1760 3931-3930.8" fill="#f8ecc5"/><path d="M26574.9 5407.5c0-135-6.7-268.3-20.2-399.9V5294h-7779v-286.4a3906.7 3906.7 0 0 0-20.4 400c0 2159 1750.7 3909.8 3909.8 3909.8 2159.4 0 3909.8-1750.8 3909.8-3909.9" fill="#f8ecc4"/><path d="M26553.8 5407.5c0-134-6.6-267.1-19.8-397.6V5294h-7737.3V5010a3957 3957 0 0 0-20.2 397.6c0 2147.8 1741 3888.8 3888.6 3888.8 2147.8 0 3888.7-1741 3888.7-3888.8" fill="#f8ebc3"/><path d="M26532.8 5407.5c0-133.5-6.7-265.6-19.8-395.5v282h-7695.5v-282c-13.2 129.9-20 262-20 395.5 0 2136.2 1731.6 3867.7 3867.5 3867.7 2136.3 0 3867.8-1731.5 3867.8-3867.7" fill="#f8ebc2"/><path d="M26512 5407.5c0-133-6.9-264-19.9-393.6V5294h-7653.8v-280a4034 4034 0 0 0-20 393.5c0 2124.6 1722.3 3846.7 3846.8 3846.7 2124.7 0 3846.9-1722.1 3846.9-3846.7" fill="#f8ebc1"/><path d="M26490.8 5407.5c0-132.1-6.4-262.8-19.7-391V5294h-7611.8v-277.5c-13 128.2-19.8 258.9-19.8 391 0 2112.8 1712.8 3825.7 3825.7 3825.7 2112.8 0 3825.6-1712.9 3825.6-3825.7" fill="#f8eac0"/><path d="M26469.7 5407.5c0-131.5-6.5-261.1-19.1-389V5294H18880v-275.5a3891.7 3891.7 0 0 0-19.5 389c0 2101.3 1703.5 3804.6 3804.8 3804.6 2101.2 0 3804.3-1703.3 3804.3-3804.6" fill="#f9eabf"/><path d="M26448.9 5407.5c0-130.6-6.5-259.6-19.5-386.9V5294h-7528v-273.4a3718.5 3718.5 0 0 0-20 387c0 2089.6 1694.5 3783.7 3783.8 3783.7 2089.8 0 3783.7-1694.1 3783.7-3783.8" fill="#f8e9bd"/><path d="M26427.7 5407.5c0-130-6.3-258.3-19.3-384.8V5294h-7486.7v-271.3a3817.7 3817.7 0 0 0-19.1 384.8c0 2078 1684.6 3762.5 3762.5 3762.5s3762.6-1684.5 3762.6-3762.5" fill="#f8e9bc"/><path d="M26406.7 5407.5c0-129.1-6.5-256.8-19.5-382.7V5294H18943v-269.2a3736.3 3736.3 0 0 0-19.3 382.7c0 2066.4 1675.1 3741.7 3741.3 3741.7 2066.9 0 3741.7-1675.3 3741.7-3741.7" fill="#f9e8bb"/><path d="M26385.6 5407.5c0-128.5-6.6-255.2-19-380.6V5294H18964V5027c-13 125.4-19.4 252-19.4 380.6 0 2055 1665.4 3720.5 3720.4 3720.5 2055.2 0 3720.5-1665.4 3720.5-3720.5" fill="#f9e8ba"/><path d="M26364.6 5407.5c0-127.6-6.5-253.8-19-378.2V5294h-7361.1v-264.7a3796.5 3796.5 0 0 0-18.8 378.2c0 2043.1 1656.3 3699.6 3699.4 3699.6 2043.2 0 3699.5-1656.5 3699.5-3699.6" fill="#f9e8b9"/><path d="M26343.7 5407.5c0-127.2-6.8-252.4-19.2-376.3V5294h-7318.9v-262.8c-12.6 124-18.9 249.1-18.9 376.3 0 2031.6 1646.7 3678.4 3678.3 3678.4 2031.7 0 3678.7-1646.8 3678.7-3678.4" fill="#f8e8b8"/><path d="M26322.9 5407.5c0-126.1-6.5-250.8-19-373.9V5294h-7277.5v-260.4a3815.2 3815.2 0 0 0-18.7 374c0 2019.8 1637.5 3657.2 3657.4 3657.2 2020.4 0 3657.8-1637.4 3657.8-3657.3" fill="#f9e7b7"/><path d="M26301.8 5407.5c0-125.7-6.6-249.5-19-372V5294h-7235.4v-258.5a3776.8 3776.8 0 0 0-18.6 372c0 2008.5 1628 3636.4 3636.6 3636.4 2008.1 0 3636.4-1627.9 3636.4-3636.4" fill="#f9e7b6"/><path d="M26281 5407.5c0-124.7-6.8-248-18.9-369.6V5294h-7193.7v-256a3685.5 3685.5 0 0 0-18.7 369.5c0 1997 1618.8 3615.4 3615.5 3615.4 1996.8 0 3615.8-1618.5 3615.8-3615.4" fill="#f9e7b5"/><path d="M26259.6 5407.5c0-124.4-6.6-246.8-18.8-367.5v254h-7151.3v-254a3637.6 3637.6 0 0 0-18.7 367.5c0 1985 1609 3594.4 3594.3 3594.4 1985.3 0 3594.5-1609.3 3594.5-3594.4" fill="#f9e6b4"/><path d="M26238.8 5407.5c0-123.2-6.3-245.2-18.4-365.4v252h-7110.2v-252a3563.9 3563.9 0 0 0-18.5 365.4c0 1973.5 1600 3573.5 3573.6 3573.5 1973.4 0 3573.5-1600 3573.5-3573.5" fill="#f9e6b3"/><path d="M26217.7 5407.5c0-122.9-6.2-244-18.5-363V5294h-7068.1v-249.5c-12.1 119-18.4 240.1-18.4 363 0 1962.3 1590.3 3552.4 3552.3 3552.4 1962.1 0 3552.7-1590.1 3552.7-3552.4" fill="#f9e6b2"/><path d="M26196.5 5407.5c0-121.9-6-242.3-18-361V5294H19152v-247.6a3528.2 3528.2 0 0 0-18 361.1c0 1950.3 1580.8 3531.5 3531 3531.5 1950.7 0 3531.6-1581.2 3531.6-3531.5" fill="#f9e5b1"/><path d="M26175.4 5407.5c0-121.3-6-241-17.9-359.1V5294h-6984.3v-245.6a3448.5 3448.5 0 0 0-18.5 359.1c0 1938.7 1571.7 3510.5 3510.6 3510.5 1938.4 0 3510-1571.8 3510-3510.5" fill="#f9e5af"/><path d="M26154.7 5407.5a3542 3542 0 0 0-18.2-356.7V5294H19194v-243.2a3450.4 3450.4 0 0 0-18 356.7c0 1927 1562.2 3489.3 3489.3 3489.3 1927 0 3489.4-1562.3 3489.4-3489.3" fill="#f9e5ae"/><path d="M26133.5 5407.5c0-119.7-6.3-238-18-354.7V5294h-6900.7v-241.2c-12 116.7-18 235-18 354.7 0 1915.6 1552.8 3468.4 3468.3 3468.4 1915.6 0 3468.4-1552.8 3468.4-3468.4" fill="#fae4ad"/><path d="M26112.4 5407.5c0-119-5.9-236.7-18-352.6V5294h-6858.8v-239.1a3465.4 3465.4 0 0 0-17.8 352.6c0 1904 1543.3 3447.2 3447.5 3447.2 1903.5 0 3447.1-1543.2 3447.1-3447.2" fill="#fae4ac"/><path d="M26091.6 5407.6c0-118.5-6.1-235.3-18-350.3V5294h-6817.2v-236.7a3559.7 3559.7 0 0 0-17.3 350.3c0 1892.1 1533.8 3426.3 3426.3 3426.3 1892.4 0 3426.2-1534.2 3426.2-3426.3" fill="#f9e4ab"/><path d="M26070.4 5407.5a3388 3388 0 0 0-17.6-348.2V5294h-6775.1v-234.7a3387.8 3387.8 0 0 0-18 348.2c0 1880.8 1525 3405.3 3405.4 3405.3 1880.9 0 3405.3-1524.5 3405.3-3405.3" fill="#f9e3aa"/><path d="M26049.7 5407.5c0-116.9-6-232.3-17.6-346.3V5294h-6733.4v-232.8a3398.6 3398.6 0 0 0-18 346.3c0 1869.2 1515.1 3384.5 3384.4 3384.5 1869.2 0 3384.6-1515.3 3384.6-3384.5" fill="#f9e3a9"/><path d="M26028.3 5407.5c0-116-5.7-230.9-17.2-343.8V5294h-6691.9v-230.3a3442.8 3442.8 0 0 0-17.4 343.8c0 1857.5 1505.9 3363.1 3363.4 3363.1 1857.2 0 3363.1-1505.6 3363.1-3363" fill="#f9e3a8"/><path d="M26007.5 5407.5a3359 3359 0 0 0-17.3-341.7V5294H19340v-228.2c-11 112.5-17 226.3-17 341.7 0 1845.8 1496.2 3342.2 3342.1 3342.2 1845.7 0 3342.4-1496.4 3342.4-3342.2" fill="#f9e2a8"/><path d="M25986.3 5407.6a3283 3283 0 0 0-17.2-339.8V5294h-6607.9v-226.2a3374 3374 0 0 0-17.4 339.8c0 1834 1487.3 3321.1 3321.3 3321.1 1834.5 0 3321.2-1487 3321.2-3321.1" fill="#f9e2a7"/><path d="M25965.2 5407.5c0-114-5.5-226.4-16.7-337.4v224h-6566.2v-224a3235.2 3235.2 0 0 0-17.3 337.4c0 1822.7 1477.6 3300.2 3300.1 3300.2 1822.7 0 3300.1-1477.5 3300.1-3300.2" fill="#f9e2a5"/><path d="M25944.4 5407.5c0-113-5.6-225-17.2-335.3V5294H19403v-221.8a3291.6 3291.6 0 0 0-17 335.3c0 1811 1468 3279 3279 3279s3279.3-1468 3279.3-3279" fill="#f9e1a5"/><path d="M25923.5 5407.5c0-112.4-5.7-223.5-16.8-332.9V5294h-6483.1v-219.4a3333.5 3333.5 0 0 0-16.6 333c0 1799.3 1458.9 3258 3258.1 3258 1799.5 0 3258.4-1458.7 3258.4-3258" fill="#f9e1a4"/><path d="M25902.3 5407.5c0-111.8-5.5-222.3-16.7-331V5294H19445v-217.4a3248 3248 0 0 0-17 331c0 1787.8 1449.7 3237.2 3237.3 3237.2 1787.9 0 3237.1-1449.4 3237.1-3237.3" fill="#f9e1a3"/><path d="M25881.6 5407.5c0-111-5.8-220.9-17-329V5294h-6399v-215.5a3131.7 3131.7 0 0 0-16.4 329c0 1776.3 1439.7 3216 3216 3216s3216.4-1439.7 3216.4-3216" fill="#f9e0a2"/><path d="M25860.4 5407.5c0-110-5.8-219.2-16.6-326.6V5294h-6357V5081a3223.3 3223.3 0 0 0-16.4 326.6c0 1764.7 1430 3195 3194.8 3195 1764.5 0 3195.2-1430.3 3195.2-3195" fill="#f9e0a1"/><path d="M25839.4 5407.5c0-109.6-6-217.9-16.3-324.5v211h-6315.6v-211a3274.4 3274.4 0 0 0-16.3 324.5c0 1752.9 1421.3 3174.1 3173.8 3174.1 1753 0 3174.4-1421.2 3174.4-3174" fill="#f9e09f"/><path d="M25818.5 5407.5c0-217.6-22.3-430.1-64.6-635.4v522H19576v-522a3180.8 3180.8 0 0 0-63.8 635.4c0 1741.2 1412 3153.1 3153 3153.1 1741.4 0 3153.3-1411.9 3153.3-3153" fill="#f9df9e"/><path d="M25797.2 5407.5c0-216.2-22.2-427.3-63.6-631.2V5294h-6136.8v-517.7a3141.4 3141.4 0 0 0-63.4 631.2c0 1729.7 1402.2 3132 3131.7 3132 1729.9 0 3132.1-1402.3 3132.1-3132" fill="#f9df9d"/><path d="M25776.3 5407.5c0-214.7-21.8-424.5-63.4-627V5294h-6095.2v-513.5a3103.8 3103.8 0 0 0-63.4 627c0 1718.3 1392.7 3111 3110.8 3111 1718.2 0 3111.2-1392.7 3111.2-3111" fill="#f9df9c"/><path d="M25755.1 5407.5c0-213.3-21.3-421.5-62.8-622.8V5294h-6054v-509.3a3089.7 3089.7 0 0 0-63 622.8c0 1706.5 1383.2 3090.2 3089.7 3090.2 1707 0 3090.1-1383.7 3090.1-3090.2" fill="#f9de9b"/><path d="M25734.3 5407.5c0-211.8-21.7-418.7-62.7-618.4v505h-6013.1v-505a3081.1 3081.1 0 0 0-62.2 618.4c0 1695 1374.1 3069 3069 3069 1695 0 3069-1374 3069-3069" fill="#f9de9a"/><path d="M25713.3 5407.5c0-210.3-21.5-416.1-61.9-614.2V5294h-5972.6v-500.7a3099 3099 0 0 0-61.5 614.2c0 1683.4 1364.4 3048.1 3048 3048.1 1683.3 0 3048-1364.7 3048-3048" fill="#f8de99"/><path d="M25692.2 5407.5c0-209-21-413.1-61.4-610V5294h-5931v-496.5a3037.5 3037.5 0 0 0-61.3 610c0 1671.7 1355.2 3027 3026.6 3027 1671.7 0 3027.1-1355.3 3027.1-3027" fill="#f8de98"/><path d="M25671 5407.5c0-207.6-20.6-410.1-61-605.8V5294h-5889.6v-492.3a2999.4 2999.4 0 0 0-61 605.8c0 1660 1345.6 3006 3006 3006 1659.9 0 3005.6-1346 3005.6-3006" fill="#f8dd97"/><path d="M25650.3 5407.5c0-206.1-21.2-407.1-60.9-601.4v488h-5848.6v-488a3003.2 3003.2 0 0 0-60.7 601.4c0 1648.8 1336.6 2985 2985.2 2985 1648.7 0 2985-1336.2 2985-2985" fill="#f8dd96"/><path d="M25629.1 5407.5c0-204.8-20.6-404.5-60-597.5v484h-5807.3v-484a2979.4 2979.4 0 0 0-60.7 597.5c0 1637 1327.4 2963.7 2964 2963.7 1637 0 2964-1326.7 2964-2963.7" fill="#f8dd95"/><path d="M25608.1 5407.5a2927 2927 0 0 0-60-593V5294h-5766v-479.5a2961 2961 0 0 0-59.8 593c0 1625.2 1317.5 2943.1 2942.8 2943.1 1625.2 0 2943-1317.9 2943-2943" fill="#f8dc94"/><path d="M25587 5407.5a2946 2946 0 0 0-59.3-588.8V5294H19803v-475.3c-39.1 190.3-59.8 387-59.8 588.8 0 1613.6 1308.5 2921.8 2922.2 2921.8 1613.6 0 2921.6-1308.2 2921.6-2921.8" fill="#f8dc93"/><path d="M25565.9 5407.5c0-200.1-20.2-395.8-59-584.5v471h-5683.6v-471a2905.7 2905.7 0 0 0-59.1 584.5c0 1602.2 1299 2900.9 2900.8 2900.9 1602.2 0 2900.9-1298.7 2900.9-2900.9" fill="#f8dc92"/><path d="M25545 5407.5c0-198.8-20.3-393-58.6-580.5v467h-5642.6v-467a2914.4 2914.4 0 0 0-58.5 580.5c0 1590.6 1289.2 2879.9 2879.7 2879.9 1590.7 0 2880-1289.3 2880-2879.9" fill="#f7db91"/><path d="M25523.8 5407.5c0-197.5-19.8-389.9-57.9-576V5294h-5601v-462.5a2860.4 2860.4 0 0 0-58.6 576c0 1578.7 1280 2858.8 2859 2858.8 1578.6 0 2858.5-1280.1 2858.5-2858.8" fill="#f7db90"/><path d="M25503 5407.6a2857 2857 0 0 0-57.6-572V5294h-5560.3v-458.4a2834.3 2834.3 0 0 0-57.7 572c0 1567 1270.8 2837.7 2837.7 2837.7 1567.6 0 2837.9-1270.8 2837.9-2837.7" fill="#f8db8f"/><path d="M25482 5407.5c0-194.5-19.4-384.5-57.4-567.5v454h-5519.1v-454a2860 2860 0 0 0-57.2 567.5c0 1555.7 1261.5 2816.7 2816.9 2816.7 1555.8 0 2816.8-1261 2816.8-2816.7" fill="#f7da8e"/><path d="M25461 5407.5c0-193-19.4-381.5-56.8-563.5v450h-5478.1v-450a2813.2 2813.2 0 0 0-56.7 563.5c0 1544 1251.5 2795.6 2795.7 2795.6 1544.2 0 2795.8-1251.5 2795.8-2795.6" fill="#f7da8d"/><path d="M25439.7 5407.5c0-191.5-19.3-378.5-56-559.2V5294h-5437v-445.7a2785.4 2785.4 0 0 0-56.4 559.2c0 1532.4 1242.3 2774.7 2775 2774.7 1532.4 0 2774.4-1242.3 2774.4-2774.7" fill="#f7da8c"/><path d="M25418.9 5407.5c0-190.1-19.4-375.7-55.9-555V5294h-5395.6v-441.5a2768.7 2768.7 0 0 0-56 555c0 1520.7 1233 2753.7 2753.8 2753.7 1521 0 2753.7-1233 2753.7-2753.7" fill="#f7d98c"/><path d="M25397.7 5407.6a2761 2761 0 0 0-55.3-550.7V5294H19988V4857a2761 2761 0 0 0-55.6 550.7c0 1509.2 1223.6 2732.4 2732.7 2732.4 1509.3 0 2732.5-1223.2 2732.5-2732.4" fill="#f7d98b"/><path d="M25376.7 5407.5c0-187.3-18.6-370-55-546.6V5294h-5313.4V4861a2725 2725 0 0 0-55 546.6c0 1497.5 1214.1 2711.5 2712 2711.5 1497.5 0 2711.4-1214 2711.4-2711.5" fill="#f7d98a"/><path d="M25355.6 5407.5c0-185.8-18.8-367.4-54.6-542.2V5294h-5272v-428.7a2692.2 2692.2 0 0 0-54.7 542.2c0 1485.9 1204.8 2690.6 2690.7 2690.6 1486 0 2690.6-1204.7 2690.6-2690.6" fill="#f7d889"/><path d="M25334.4 5407.5c0-184.3-18.6-364.2-53.7-538.1V5294h-5230.9v-424.6a2681 2681 0 0 0-54.4 538.1c0 1474.2 1195.2 2669.6 2669.6 2669.6 1474.7 0 2669.4-1195.4 2669.4-2669.6" fill="#f7d888"/><path d="M25313.7 5407.5c0-183-18.4-361.2-54-533.7V5294h-5189.3v-420.2a2660.1 2660.1 0 0 0-54 533.7c0 1462.9 1186.3 2648.5 2648.6 2648.5 1462.9 0 2648.7-1185.6 2648.7-2648.5" fill="#f7d887"/><path d="M25292.5 5407.5a2645 2645 0 0 0-53-529.6V5294H20091V4878c-35 171-53.1 348-53.1 529.6 0 1451.1 1176.2 2627.7 2627.2 2627.7 1451.1 0 2627.4-1176.6 2627.4-2627.7" fill="#f7d886"/><path d="M25271.7 5407.6c0-180.2-18.2-355.6-53-525.4V5294h-5106.8v-411.8a2583.5 2583.5 0 0 0-53.3 525.4c0 1439.3 1167.1 2606.3 2606.5 2606.3 1439.7 0 2606.6-1167 2606.6-2606.3" fill="#f6d785"/><path d="M25250.5 5407.5c0-178.5-18.1-352.9-52.7-521.1V5294h-5065.4v-407.6a2589.4 2589.4 0 0 0-52.5 521.1c0 1428 1157.5 2585.3 2585.1 2585.3 1428.3 0 2585.5-1157.3 2585.5-2585.3" fill="#f6d784"/><path d="M25229.8 5407.5c0-177-18-350-52.5-516.7V5294h-5024.6v-403.2a2568.5 2568.5 0 0 0-52 516.7c0 1416.4 1147.9 2564.4 2564.3 2564.4 1416.6 0 2564.8-1148 2564.8-2564.4" fill="#f6d783"/><path d="M25208.6 5407.5c0-175.7-17.6-347.2-51.7-512.8V5294h-4983.8v-399.3a2568 2568 0 0 0-51.2 512.8c0 1404.7 1138.5 2543.4 2543.3 2543.4 1404.5 0 2543.4-1138.7 2543.4-2543.4" fill="#f6d682"/><path d="M25187.7 5407.5c0-174.2-17.9-344-51.1-508.3V5294h-4942.8v-394.8a2549.6 2549.6 0 0 0-51.2 508.3c0 1393.1 1129.6 2522.5 2522.5 2522.5s2522.6-1129.4 2522.6-2522.5" fill="#f6d680"/><path d="M25166.5 5407.5c0-172.7-17.2-341.2-50.6-504.1V5294h-4901.3v-390.6a2522 2522 0 0 0-50.8 504.1c0 1381.3 1119.8 2501.3 2501.2 2501.3 1381.9 0 2501.5-1120 2501.5-2501.3" fill="#f6d57f"/><path d="M25145.7 5407.5c0-171.2-17.3-338.5-50.5-500V5294H20235v-386.4a2494 2494 0 0 0-50.1 500c0 1369.7 1110.7 2480 2480.3 2480 1370 0 2480.5-1110.3 2480.5-2480" fill="#f6d57e"/><path d="M25124.7 5407.5c0-169.7-17.3-335.7-50-495.8V5294H20256v-382.3c-33 160-50.3 326.1-50.3 495.8 0 1358.2 1101.2 2459.5 2459.5 2459.5 1358.2 0 2459.6-1101.3 2459.6-2459.5" fill="#f6d57d"/><path d="M25103.6 5407.5a2448 2448 0 0 0-49.7-491.4v378h-4777.6v-378a2470.6 2470.6 0 0 0-49.2 491.4c0 1346.6 1091.3 2438.4 2438 2438.4 1347 0 2438.5-1091.8 2438.5-2438.4" fill="#f6d47d"/><path d="M25082.6 5407.5c0-166.7-17-329.9-49-487.1V5294h-4736.4v-373.6a2408.4 2408.4 0 0 0-49.4 487.1c0 1335.3 1082.4 2417.3 2417.5 2417.3 1334.9 0 2417.3-1082 2417.3-2417.3" fill="#f6d47c"/><path d="M25061.4 5407.5c0-165.4-16.7-327-48.6-482.8V5294h-4695.2v-369.3a2411.8 2411.8 0 0 0-48.6 482.8c0 1323.5 1072.9 2396.3 2396.4 2396.3 1323.3 0 2396-1072.8 2396-2396.3" fill="#f6d47b"/><path d="M25040.5 5407.5a2387 2387 0 0 0-48-478.7V5294h-4654.2v-365.2a2364.8 2364.8 0 0 0-48.2 478.7c0 1311.7 1063.2 2375.3 2375 2375.3 1312 0 2375.4-1063.6 2375.4-2375.3" fill="#f6d47a"/><path d="M25019.5 5407.5c0-162.3-16.7-321-48-474.3V5294h-4612.8v-360.8a2358 2358 0 0 0-47.6 474.3c0 1300 1053.7 2354.3 2354.3 2354.3 1299.8 0 2354.1-1054.3 2354.1-2354.3" fill="#f6d37a"/><path d="M24998.3 5407.5c0-161-16.2-318.4-47.2-470.4v357h-4572v-357c-30.6 152-47 309.3-47 470.4 0 1288.4 1044.5 2333.4 2333.3 2333.4 1288.4 0 2333-1045 2333-2333.4" fill="#f6d378"/><path d="M24977.5 5407.5c0-159.7-16-315.3-47-466V5294H20400v-352.4a2322.3 2322.3 0 0 0-46.9 466c0 1277 1035.4 2312.1 2312 2312.1 1277.1 0 2312.4-1035.1 2312.4-2312.2" fill="#f6d377"/><path d="M24956.4 5407.5c0-158-16.2-312.6-46.5-461.7V5294h-4489.7v-348.2a2317.5 2317.5 0 0 0-46.4 461.7c0 1265.5 1026 2291.3 2291.4 2291.3 1265.3 0 2291.2-1025.8 2291.2-2291.3" fill="#f6d277"/><path d="M24935.3 5407.5a2286 2286 0 0 0-45.6-457.4v344H20441v-344a2297.4 2297.4 0 0 0-46.2 457.4c0 1253.7 1016.7 2270.2 2270.5 2270.2s2269.9-1016.5 2269.9-2270.2" fill="#f6d275"/><path d="M24914.4 5407.5c0-155-15.6-307-45.6-453.4v340h-4407v-340a2251.4 2251.4 0 0 0-46 453.4c0 1242.3 1007.2 2249 2249.3 2249 1242.3 0 2249.3-1006.7 2249.3-2249" fill="#f6d274"/><path d="M24893.4 5407.5c0-153.9-15.5-304-45.4-449V5294h-4365.7v-335.4c-29.9 144.8-45.3 295-45.3 449 0 1230.5 997.6 2228 2228.2 2228 1230.4 0 2228.2-997.5 2228.2-2228" fill="#f6d174"/><path d="M24872.2 5407.5c0-152.5-15.3-301.3-44.7-444.9V5294h-4324.3v-331.4a2201.5 2201.5 0 0 0-45.2 445c0 1218.8 988.4 2207 2207.4 2207 1218.6 0 2206.8-988.2 2206.8-2207" fill="#f6d173"/><path d="M24851.3 5407.5c0-151-15.2-298.3-44.4-440.6V5294h-4283.5v-327a2217 2217 0 0 0-44.4 440.5c0 1207.3 978.7 2186 2186.2 2186 1207.1 0 2186.1-978.7 2186.1-2186" fill="#f6d171"/><path d="M24830 5407.5c0-149.4-14.7-295.3-43.5-436.4v323h-4242.2v-323c-28.8 141.1-44.2 287-44.2 436.4 0 1195.8 969.4 2165.1 2165 2165.1 1195.9 0 2164.9-969.3 2164.9-2165" fill="#f6d070"/><path d="M24809.3 5407.5c0-148.3-15.1-292.5-43.9-432V5294h-4201v-318.4a2145.6 2145.6 0 0 0-43.5 432c0 1183.9 960.1 2144 2144.1 2144 1184.1 0 2144.3-960.1 2144.3-2144" fill="#f6d070"/><path d="M24788.6 5407.5c0-146.8-15.6-289.7-43.4-428V5294h-4160v-314.4a2131.5 2131.5 0 0 0-43.1 428c0 1172.4 950.6 2123 2123 2123 1172.5 0 2123.5-950.6 2123.5-2123" fill="#f6d06f"/><path d="M24767.4 5407.6c0-145.4-14.8-287-42.9-423.7V5294h-4119v-310a2145.2 2145.2 0 0 0-42.2 423.6c0 1160.6 941 2101.8 2101.9 2101.8 1161 0 2102.2-941.2 2102.2-2101.8" fill="#f6cf6e"/><path d="M24746.3 5407.5c0-143.8-14.5-284-42.5-419.5v306h-4077.2v-306a2087.4 2087.4 0 0 0-42.2 419.5c0 1149.4 931.7 2081 2080.7 2081 1149.4 0 2081.2-931.6 2081.2-2081" fill="#f6cf6d"/><path d="M24725.5 5407.6c0-142.3-14.6-281-42.2-415.2V5294H20647v-301.6a2079.2 2079.2 0 0 0-41.7 415.2c0 1137.7 922 2059.7 2060 2059.7 1137.6 0 2060.2-922 2060.2-2059.7" fill="#f6cf6c"/><path d="M24704.3 5407.6c0-140.9-14.3-278.2-41.2-411.1V5294h-3995.3v-297.5a2042 2042 0 0 0-41.4 411c0 1126.2 912.7 2039 2038.8 2039 1126 0 2039-912.8 2039-2039" fill="#f6cf6b"/><path d="M24683.3 5407.5c0-139.3-14-275.6-41-406.7V5294h-3954.1v-293.2a2031.5 2031.5 0 0 0-41.2 406.7c0 1114.3 903.8 2017.8 2018 2017.8 1114.8 0 2018.3-903.5 2018.3-2017.8" fill="#f6ce6a"/><path d="M24662.2 5407.5a2013 2013 0 0 0-40.7-402.4V5294h-3912.8v-288.9a1991 1991 0 0 0-40.4 402.4c0 1103.1 893.9 1996.9 1996.7 1996.9 1103 0 1997.2-893.8 1997.2-1996.9" fill="#f6ce69"/><path d="M24641 5407.5c0-136.3-13.9-269.7-40.3-398.2V5294h-3871.4v-284.7c-26.3 128.5-39.9 261.9-39.9 398.2 0 1091.2 884.2 1976 1975.7 1976 1091.1 0 1976-884.8 1976-1976" fill="#f7ce68"/><path d="M24620.2 5407.5a1959 1959 0 0 0-39.8-394V5294h-3830.1v-280.5a1970 1970 0 0 0-40 394c0 1079.6 875.4 1955 1955 1955s1954.9-875.4 1954.9-1955" fill="#f6cd67"/><path d="M24599 5407.5c0-133.5-13.4-263.7-39.3-389.7V5294h-3789.1v-276.2a1951.4 1951.4 0 0 0-39.2 389.7c0 1067.8 865.8 1934 1933.6 1934 1068.2 0 1934-866.2 1934-1934" fill="#f7cd66"/><path d="M24578.3 5407.6a1925 1925 0 0 0-39-385.8V5294h-3747.9v-272.2a1903.2 1903.2 0 0 0-39.2 385.8c0 1056.4 856.3 1913 1913.2 1913 1056.3 0 1912.9-856.6 1912.9-1913" fill="#f7cd65"/><path d="M24557 5407.5a1901 1901 0 0 0-38.5-381.2V5294h-3706.9v-267.7a1912 1912 0 0 0-38.3 381.2c0 1044.8 847 1891.9 1892 1891.9 1044.6 0 1891.8-847 1891.8-1891.9" fill="#f7cc64"/><path d="M24536 5407.6c0-129.2-13.2-255.3-37.7-377.4V5294h-3666v-263.8c-25 122.1-38 248.2-38 377.4 0 1033 837.6 1870.8 1870.9 1870.8 1033.2 0 1870.9-837.8 1870.9-1870.8" fill="#f7cc63"/><path d="M24515 5407.5c0-127.7-13.2-252.3-37.4-372.6V5294h-3625v-259a1875.1 1875.1 0 0 0-37.5 372.5c0 1021.4 828.5 1849.8 1849.9 1849.8 1021.8 0 1850-828.4 1850-1849.8" fill="#f7cc62"/><path d="M24494 5407.5c0-126.2-13-249.5-37-368.7V5294h-3583.3v-255.2a1819.4 1819.4 0 0 0-37.6 368.7c0 1010 819.2 1829 1829.3 1829 1009.6 0 1828.6-819 1828.6-1829" fill="#f7cb61"/><path d="M24473 5407.6c0-124.8-12.6-246.8-36.7-364.3V5294h-3542v-250.7a1818.8 1818.8 0 0 0-36.9 364.3c0 998.2 809.1 1807.7 1807.7 1807.7 998.3 0 1807.9-809.5 1807.9-1807.7" fill="#f7cb60"/><path d="M24452 5407.5a1801 1801 0 0 0-36.5-360V5294h-3501v-246.5a1801 1801 0 0 0-36.1 360c0 986.7 800.1 1786.7 1786.6 1786.7 986.8 0 1787-800 1787-1786.7" fill="#f7cb5f"/><path d="M24430.8 5407.5c0-121.9-12.5-241-36-355.9V5294h-3459.4v-242.4a1783.7 1783.7 0 0 0-36.2 356c0 975 790.8 1765.6 1766.1 1765.6s1765.5-790.5 1765.5-1765.7" fill="#f7ca5f"/><path d="M24409.9 5407.5c0-120.3-12.4-238-35.5-351.7V5294H20956v-238.2a1756.6 1756.6 0 0 0-35.7 351.7c0 963.5 781.2 1744.8 1744.8 1744.8 963.7 0 1744.8-781.3 1744.8-1744.8" fill="#f7ca5d"/><path d="M24388.7 5407.5c0-119-11.7-235.2-34.9-347.5v234h-3377.3v-234a1738.3 1738.3 0 0 0-35.1 347.5c0 952 771.7 1723.7 1723.6 1723.7 952 0 1723.7-771.8 1723.7-1723.7" fill="#f7ca5c"/><path d="M24367.7 5407.5a1730 1730 0 0 0-34.2-343.2V5294h-3336.2v-229.7a1686.6 1686.6 0 0 0-35.1 343.2c0 940.3 762.7 1702.5 1703 1702.5 940.4 0 1702.5-762.2 1702.5-1702.5" fill="#f6c95b"/><path d="M24346.8 5407.5c0-116-11.8-229.2-34-338.9V5294h-3295.2v-225.4a1690.2 1690.2 0 0 0-34 339c0 928.5 752.7 1681.5 1681.5 1681.5s1681.7-753 1681.7-1681.6" fill="#f7c95b"/><path d="M24325.8 5407.5c0-114.7-11.8-226.7-33.7-334.7V5294h-3253.9v-221.2c-22 108-33.8 220-33.8 334.7 0 917.2 743.8 1660.5 1660.7 1660.5 917.2 0 1660.7-743.3 1660.7-1660.5" fill="#f7c95a"/><path d="M24304.6 5407.5a1652 1652 0 0 0-33.1-330.4v217h-3212.7v-217a1674.2 1674.2 0 0 0-33.2 330.4c0 905.4 734 1639.5 1639.6 1639.5 905.3 0 1639.4-734.1 1639.4-1639.5" fill="#f7c958"/><path d="M24283.6 5407.5c0-223.5-45.2-436.4-127.1-630.1V5294h-2982.6v-516.6a1613.9 1613.9 0 0 0-127.5 630.1c0 893.7 724.6 1618.6 1618.8 1618.6 894 0 1618.4-724.9 1618.4-1618.6" fill="#f6c858"/><path d="M24262.7 5407.5c0-220.4-44.3-430.9-125.6-622V5294h-2943.8v-508.4a1591 1591 0 0 0-125.7 622c0 882.3 715.3 1597.5 1597.5 1597.5 882.4 0 1597.6-715.2 1597.6-1597.6" fill="#f6c857"/><path d="M24241.5 5407.5c0-217.6-43.4-424.9-123.7-613.9V5294h-2905.1v-500.4c-80 189-124 396.3-124 614 0 870.7 705.8 1576.5 1576.4 1576.5 870.9 0 1576.4-705.8 1576.4-1576.6" fill="#f6c756"/><path d="M24220.7 5407.5c0-214.8-43.3-419.5-122.2-605.5v492h-2866.8v-492a1549.8 1549.8 0 0 0-122.1 605.5c0 859.1 696.3 1555.4 1555.6 1555.4 858.9 0 1555.5-696.3 1555.5-1555.4" fill="#f6c755"/><path d="M24199.5 5407.5c0-211.8-42.5-413.7-120.6-597.5v484h-2827.8v-484a1534.4 1534.4 0 0 0-120.5 597.5c0 847.4 687 1534.5 1534.5 1534.5 847.4 0 1534.4-687.1 1534.4-1534.5" fill="#f6c754"/><path d="M24178.6 5407.5c0-209-42.4-408-119-589.1V5294h-2789v-475.6c-76.3 181-119 380.2-119 589.1 0 835.9 678 1513.5 1513.5 1513.5 836 0 1513.5-677.6 1513.5-1513.5" fill="#f6c654"/><path d="M24157.6 5407.5a1494 1494 0 0 0-117-581V5294h-2750.4v-467.6c-75.5 179-117.2 375-117.2 581.1 0 824.3 668.1 1492.5 1492.1 1492.5 824.4 0 1492.5-668.2 1492.5-1492.5" fill="#f6c653"/><path d="M24136.2 5407.5c0-203-40.7-396.7-115.6-572.9V5294h-2711.3v-459.4a1470.8 1470.8 0 0 0-115.6 573c0 812.5 658.8 1471.2 1471.4 1471.2 812.6 0 1471.1-658.7 1471.1-1471.3" fill="#f6c652"/><path d="M24115.5 5407.5a1450 1450 0 0 0-113.9-564.7V5294h-2672.8v-451.2a1442 1442 0 0 0-114 564.7c0 801 649.4 1450.2 1450.2 1450.2 801.5 0 1450.5-649.2 1450.5-1450.2" fill="#f5c551"/><path d="M24094.8 5407.5c0-197.5-40.2-385.4-112.5-556.6V5294H21348V4851a1427.2 1427.2 0 0 0-112 556.6c0 789.5 640 1429.2 1429.2 1429.2 789.5 0 1429.7-639.7 1429.7-1429.2" fill="#f5c550"/><path d="M24073.6 5407.5c0-194.5-39.4-379.8-110.7-548.3V5294h-2595.4v-434.8a1397.3 1397.3 0 0 0-110.5 548.3c0 777.9 630.4 1408.2 1408.4 1408.2 777.4 0 1408.2-630.3 1408.2-1408.2" fill="#f5c54f"/><path d="M24052.8 5407.5c0-191.5-39-374-109-540V5294h-2556.9v-426.5a1382.7 1382.7 0 0 0-109 540c0 766.4 620.9 1387.3 1387.5 1387.3 765.8 0 1387.4-621 1387.4-1387.3" fill="#f6c54e"/><path d="M24031.6 5407.5a1364 1364 0 0 0-107.4-532.1V5294h-2517.8v-418.6a1358.9 1358.9 0 0 0-107.5 532.1c0 754.5 611.7 1366.3 1366.3 1366.3 754.5 0 1366.4-611.8 1366.4-1366.3" fill="#f5c44d"/><path d="M24010.6 5407.5c0-185.8-37.6-362.7-105.8-523.8V5294h-2479v-410.3c-68.5 161-105.6 338-105.6 523.8 0 743.1 602 1345.4 1345 1345.4s1345.4-602.3 1345.4-1345.4" fill="#f5c44c"/><path d="M23989.5 5407.5c0-183-37-357-104.6-515.6V5294h-2440v-402.1a1322 1322 0 0 0-104.2 515.6c0 731.5 593.2 1324.3 1324.5 1324.3 731.4 0 1324.3-592.8 1324.3-1324.3" fill="#f5c44c"/><path d="M23968.3 5407.5A1302 1302 0 0 0 23866 4900V5294h-2401.7v-394a1296.7 1296.7 0 0 0-102.3 507.5c0 719.7 583.3 1303.5 1303.2 1303.5 719.5 0 1303.1-583.8 1303.1-1303.5" fill="#f5c34b"/><path d="M23947.5 5407.5c0-177-36.2-345.7-101-499.3V5294h-2363v-385.8a1281.8 1281.8 0 0 0-100.5 499.3c0 708 574 1282.1 1282 1282.1 708.3 0 1282.5-574 1282.5-1282" fill="#f5c34a"/><path d="M23926.4 5407.5c0-174.2-35.5-340-99.2-491V5294h-2324v-377.5c-64 151-99.2 316.8-99.2 491 0 696.9 564.6 1261.3 1261.4 1261.3 696.5 0 1261-564.4 1261-1261.3" fill="#f5c349"/><path d="M23905.3 5407.5c0-171.2-34.8-334.4-97.3-482.8V5294h-2285.5v-369.3a1234 1234 0 0 0-97.4 482.8c0 685 555.1 1240.2 1240 1240.2 685 0 1240.2-555.3 1240.2-1240.2" fill="#f5c348"/><path d="M23884.2 5407.5a1216 1216 0 0 0-95.8-474.6V5294H21542v-361.1a1211 1211 0 0 0-96 474.6c0 673.4 545.7 1219.2 1219 1219.2s1219.2-545.8 1219.2-1219.2" fill="#f5c347"/><path d="M23863.4 5407.5c0-165.4-33.7-323-94-466.5v353h-2208v-353a1193.4 1193.4 0 0 0-94 466.5c0 661.6 536 1198.2 1197.8 1198.2 661.9 0 1198.2-536.6 1198.2-1198.2" fill="#f5c246"/><path d="M23842.2 5407.5c0-162.3-33-317.5-92.5-458.3V5294h-2169.2v-344.8a1175.5 1175.5 0 0 0-92.3 458.3c0 650.2 526.9 1177.1 1177 1177.1s1177-527 1177-1177" fill="#f5c246"/><path d="M23821.5 5407.5c0-159.7-32.6-311.8-91.2-450.3V5294H21600v-336.8a1149.5 1149.5 0 0 0-91 450.3c0 638.7 517.6 1156 1156 1156s1156.4-517.3 1156.4-1156" fill="#f5c245"/><path d="M23800.1 5407.5c0-156.9-31.8-306-89-441.8V5294H21619v-328.3a1133.8 1133.8 0 0 0-89 441.8c0 626.8 508.2 1135 1135 1135 627.4 0 1135.1-508.2 1135.1-1135" fill="#f5c244"/><path d="M23779.3 5407.5a1112 1112 0 0 0-87.6-433.7V5294h-2053v-320.2a1106.8 1106.8 0 0 0-87.5 433.7c0 615.1 498.7 1114 1114.2 1114 615.2 0 1113.9-498.9 1113.9-1114" fill="#f4c143"/><path d="M23758.2 5407.5c0-151-30.9-294.7-86.1-425.7V5294h-2014v-312.2a1084.4 1084.4 0 0 0-86.2 425.7c0 603.8 489.3 1093 1093.2 1093 603.5 0 1093.1-489.2 1093.1-1093" fill="#f4c142"/><path d="M23737 5407.5a1072 1072 0 0 0-84.1-417.3V5294h-1975.6v-303.8a1066.9 1066.9 0 0 0-84.5 417.3c0 592 480.2 1072.1 1072.3 1072.1 592.1 0 1072-480.1 1072-1072" fill="#f4c140"/><path d="M23716.2 5407.5c0-145.2-29.6-283.4-82.4-409.3V5294h-1937v-295.8a1050 1050 0 0 0-82.6 409.3c0 580.5 470.4 1051 1051 1051 580.4 0 1051-470.5 1051-1051" fill="#f4c140"/><path d="M23695.5 5407.5a1032 1032 0 0 0-81.3-401V5294h-1898.1v-287.6a1031.7 1031.7 0 0 0-81 401.1c0 568.6 461.3 1030 1030 1030 568.8 0 1030.4-461.4 1030.4-1030" fill="#f4c03e"/><path d="M23674.1 5407.5c0-139.3-28.2-272-79.4-393V5294h-1859.4v-279.5a1012.1 1012.1 0 0 0-79.3 393c0 557.2 451.9 1008.9 1009 1008.9 557.3 0 1009.1-451.7 1009.1-1008.9" fill="#f4c03d"/><path d="M23653.4 5407.5a988.1 988.1 0 0 0-77.8-384.8V5294h-1820.8v-271.3a990.6 990.6 0 0 0-77.5 384.8c0 545.8 442.4 988 987.8 988 545.6 0 988.3-442.2 988.3-988" fill="#f4bf3c"/><path d="M23632.2 5407.5a961.6 961.6 0 0 0-76.2-376.6V5294h-1781.7v-263a969.3 969.3 0 0 0-76 376.5c0 534 433 966.9 966.9 966.9 534 0 967-433 967-966.9" fill="#f4bf3c"/><path d="M23611.2 5407.5c0-130.6-26.7-254.9-74.5-368.4v255H21794v-255a945.9 945.9 0 0 0 871.3 1314.3c522.6 0 946-423.4 946-945.9" fill="#f4bf3b"/><path d="M23590.2 5407.5a920.3 920.3 0 0 0-72.7-360V5294h-1704.3v-246.5a924.6 924.6 0 0 0 851.7 1284.8c511.2 0 925.3-414 925.3-924.8" fill="#f4be3a"/><path d="M23569.1 5407.5a901.2 901.2 0 0 0-71.2-352V5294h-1665.5v-238.5a908.9 908.9 0 0 0-71 352c0 499 404.6 903.8 903.7 903.8 499.2 0 904-404.7 904-903.8" fill="#f4be39"/><path d="M23548.1 5407.5c0-244-98.6-464.4-258.7-624.2V5294h-1248.5v-510.7a878.8 878.8 0 0 0-258.5 624.2 882.8 882.8 0 0 0 1765.7 0" fill="#f4be38"/><path d="M23527 5407.5c0-238-96.3-453.4-252-609.3V5294h-1219.1v-495.8a858.4 858.4 0 0 0-252.6 609.3 862 862 0 0 0 1723.8 0" fill="#f3bd37"/><path d="M23506.2 5407.5a836 836 0 0 0-246.7-594.5v481h-1188.7v-481a836.7 836.7 0 0 0-246.3 594.5 841 841 0 0 0 1681.8 0" fill="#f3bd35"/><path d="M23485 5407.5a817.6 817.6 0 0 0-240-579.9V5294h-1159.3v-466.4a819.8 819.8 0 1 0 1399.3 580" fill="#f3bd35"/><path d="M23464.2 5407.5a797 797 0 0 0-234-565V5294h-1129.7v-451.5a796.2 796.2 0 0 0-233.8 565 798.7 798.7 0 1 0 1597.5 0" fill="#f3bc33"/><path d="M23443 5407.5a776.1 776.1 0 0 0-227.8-550V5294h-1100.3v-436.6a777.6 777.6 0 0 0-227.3 550.1 777.8 777.8 0 0 0 1555.4 0" fill="#f3bc33"/><path d="M23422 5407.5c0-209-84.5-398.2-221.6-535.1V5294h-1070.1v-421.6a753 753 0 0 0-222 535.1 756.9 756.9 0 0 0 1513.7 0" fill="#f3bc31"/><path d="M23401 5407.5c0-203-82.3-387.2-215.7-520.2V5294h-1040.4v-406.7a735.8 735.8 0 1 0 1256 520.2" fill="#f3bc30"/><path d="M23379.9 5407.5a712 712 0 0 0-209.4-505.3V5294h-1010.7v-391.8a714.7 714.7 0 0 0 505.3 1220 715 715 0 0 0 714.8-714.7" fill="#f3bb2f"/><path d="M23358.9 5407.6a689.9 689.9 0 0 0-203.4-490.5v377h-980.8v-377a691 691 0 0 0-203.2 490.5 693.7 693.7 0 1 0 1387.3 0" fill="#f3bb2f"/><path d="M23337.9 5407.5a672.4 672.4 0 0 0-197-475.6V5294h-951.2V4932a671 671 0 0 0-197.3 475.6 672.8 672.8 0 0 0 1345.4 0" fill="#f3bb2e"/><path d="M23316.8 5407.5c0-180.2-73.2-342.9-191.2-460.6V5294h-921.1v-347a647.6 647.6 0 0 0-191.1 460.5 652 652 0 0 0 651.7 651.8 652 652 0 0 0 651.7-651.8" fill="#f3bb2d"/><path d="M23295.6 5407.5a630.5 630.5 0 0 0-1261 0 630.5 630.5 0 1 0 1261 0" fill="#f3bb2c"/><path d="M23274.8 5407.5a609.6 609.6 0 1 0-1219.3 0 609.7 609.7 0 0 0 1219.3 0" fill="#f3bb2b"/><path d="M23253.7 5407.5a588.3 588.3 0 0 0-588.6-588.5 588.2 588.2 0 0 0-588.5 588.5 588.3 588.3 0 0 0 588.5 588.6 588.4 588.4 0 0 0 588.6-588.6" fill="#f3ba2b"/><path d="M23232.7 5407.5a567.7 567.7 0 0 0-1135.3 0 567.6 567.6 0 0 0 1135.3 0" fill="#f3ba2a"/><path d="M23211.5 5407.5a546.6 546.6 0 1 0-1093.1-.1 546.6 546.6 0 0 0 1093.1.1" fill="#f3ba29"/><path d="M23190.7 5407.6a525.6 525.6 0 1 0-1051 0 525.6 525.6 0 0 0 1051 0" fill="#f3b928"/><path d="M23169.6 5407.5a504.2 504.2 0 0 0-504.4-504.4 504.4 504.4 0 1 0 504.4 504.4" fill="#f3b927"/><path d="M23148.4 5407.5a483.2 483.2 0 0 0-483.2-483.4 483 483 0 0 0-483.3 483.4 483.2 483.2 0 1 0 966.5 0" fill="#f3b926"/><path d="M23127.6 5407.6a462.3 462.3 0 0 0-462.4-462.4 462.7 462.7 0 0 0-462.6 462.4 462.7 462.7 0 0 0 462.6 462.3 462.3 462.3 0 0 0 462.4-462.3" fill="#f3b826"/><path d="M23106.6 5407.5a441.3 441.3 0 1 0-882.8 0 441.4 441.4 0 0 0 882.7 0" fill="#f3b825"/><path d="M23085.4 5407.5a420.3 420.3 0 1 0-840.7 0 420.2 420.2 0 0 0 420.3 420.3c232.1 0 420.4-187.9 420.4-420.3" fill="#f3b825"/><path d="M23064.3 5407.5a399.4 399.4 0 1 0-798.5 0 399.4 399.4 0 0 0 798.5 0" fill="#f4b723"/><path d="M23043.5 5407.5a378 378 0 0 0-378.5-378.2 378.2 378.2 0 0 0 0 756.5 378.2 378.2 0 0 0 378.5-378.3" fill="#f4b722"/><path d="M23022.4 5407.5a357 357 0 0 0-357.3-357.2 357.1 357.1 0 1 0 0 714.5 357.1 357.1 0 0 0 357.3-357.3" fill="#f4b722"/><path d="M23001.6 5407.5a336.3 336.3 0 1 0-672.7 0 336.3 336.3 0 0 0 672.7 0" fill="#f4b621"/><path d="M22980.6 5407.5a315.3 315.3 0 1 0-630.6 0 315.3 315.3 0 0 0 630.6 0" fill="#f4b620"/><path d="M22959.5 5407.5a294.5 294.5 0 0 0-294.2-294.3 294.6 294.6 0 0 0-294.4 294.3 294.3 294.3 0 0 0 588.6 0" fill="#f4b61f"/><path d="M22938.5 5407.5a273.1 273.1 0 0 0-273.4-273.2 273 273 0 0 0-273.2 273.2 273 273 0 0 0 273.2 273.1 273.1 273.1 0 0 0 273.4-273" fill="#f4b51e"/><path d="M22917.5 5407.5a252.2 252.2 0 1 0-504.4.2 252.2 252.2 0 0 0 504.4-.2" fill="#f4b51d"/><path d="M22896.4 5407.5a231.3 231.3 0 1 0-462.6.2 231.3 231.3 0 0 0 462.6-.2" fill="#f4b51c"/><path d="M22875.4 5407.5a210.2 210.2 0 1 0-420.4-.1 210.2 210.2 0 0 0 420.4.1" fill="#f4b41c"/><path d="M22854.4 5407.5a189.3 189.3 0 1 0-378.5-.3 189.3 189.3 0 0 0 378.5.3" fill="#f4b41c"/><path d="M22833.2 5407.5a168 168 0 1 0-336.2 0 168.1 168.1 0 0 0 336.2 0" fill="#f4b41b"/><path d="M22812.5 5407.5a147.3 147.3 0 1 0-294.5 0 147.3 147.3 0 0 0 294.5 0" fill="#f4b41b"/><path d="M22791.3 5407.5a126 126 0 0 0-126.2-126.2 126 126 0 0 0-126 126.2 126 126 0 1 0 252.2 0" fill="#f4b41a"/><path d="M22770.3 5407.5a104.9 104.9 0 1 0-210 0c0 58.2 46.8 105 105 105 58 0 105-46.8 105-105" fill="#f4b41a"/><path d="M22749.3 5407.5a84 84 0 0 0-84.2-84 83.7 83.7 0 0 0-83.7 84c0 46.4 37.2 84 83.7 84a84 84 0 0 0 84.2-84" fill="#f4b41a"/><path d="M22728.2 5407.5a63.1 63.1 0 1 0-63.2 63.1 63 63 0 0 0 63.2-63" fill="#f4b319"/><path d="M22707.2 5407.5c0-23-18.8-42-42-42-23 0-42.1 19-42.1 42s19 42 42 42c23.3 0 42.1-19 42.1-42" fill="#f4b319"/><path d="M22686.2 5407.5a21 21 0 0 0-20.9-21.2 21.4 21.4 0 0 0-21.4 21.2c0 11.8 9.8 20.9 21.4 20.9 11.4 0 20.9-9.1 20.9-20.9" fill="#f4b318"/></g><path d="M3230.4 174.7l6.5 1v14.4l-6.5-1v151l7.3.8v17.2l-6.1-1v27l9.8 1.2v18.3l-10-1.1 4.3 230.5h-242.6l-2-257.6.5-20.9v-29l-1.2-16.3 1.7-215.6 63.1 1.6 201.6 49.5-18 19.5-8.4-.8v11.3" fill="#4e2c83"/><path d="M2992 119.8l245.6 40.6 14.1-14.8-260-47.3.4 21.5M2991.9 145l241.3 39.9v-6L2992 138.6v6.4M3112.2 195.6c-10.4-15.9-26-25.7-43.8-24-9.7 1.6-22.6 3-28.6 24l-.8 6.1v118.9l-47.2-6 .3 11 242.3 27.3v-7.7l-49-6.3V220.7a44.8 44.8 0 0 0-32.3-36.1c-16.8-4.7-30.5-1.1-41 11" fill="#f4b318"/><path d="M3120.5 211.2l-.5 3v116.6l50.8 6.5V221.6c-2-16.4-15.3-22.6-25.3-24.6-10.7-1.6-22.4 1.9-25 14.2M3052.7 200.8l-.5 3V322l50.8 6.5V211.2c-2-16.7-15.2-22.9-25.3-24.9-10.7-1.6-22.3 2-25 14.5" fill="#4e2c83"/><path d="M3052.4 334.6l-13.4-1.7v32.2l-47-3.7V375l245.5 23.3.2-9.9-51.6-6v-31l-12.6-1.7V381l-9-1.2v-31l-7-1V379l-7.8-1v-31.2l-6.4-.8v31.3l-8-1-.1-31.4-7-.8v31.4l-9-1V343l-12.6-1.6V373l-9-1.1v-31.6l-7-.9v31.8l-7.8-1v-31.8l-6.3-.8v32l-8-1.1-.1-32-7.1-.8v32l-8.9-1.1v-32" fill="#f4b318"/><path d="M2995.6 633H2930l1.5-206.2-2.7 2.3v-16.6l2.8-2.3v-24.5l-4.2 3.2v-13.4l4.3-3.3.7-150.2-2.8 3.6.1-12.9 2.5-3.4v-9.6l-9.8-6.8 69.7-98.8 3.5 539" fill="#f4b318"/><path d="M2925.5 193.6l66.6-94.4v20.3l-61.3 77.4-5.3-3.3M2931.9 218l60.2-73-.2-6.8-60 75.7v4.2M2959.6 224.2c-2-7.1-7.5-10.3-11.4-2.4-2.5 5.7-4.8 12-6.4 33l-.2 5.6-.4 106.1-11.7 11.7v6l62.4-59.2v-9.8l-12 12.5-.2-112.4c-.8-17.1-4.4-23-8.3-20-4.3 3.2-9.1 13.1-11.8 29" fill="#4e2c83"/><path d="M2961.7 236.6l-.1 2.8-.1 106.3 14.1-13.6.4-109.7c-.5-14.7-4-14.7-6.6-12a52 52 0 0 0-7.7 26.2M2945.2 253.9l-.1 2.7-.4 106.4 12.2-12.1.3-108.5c-.5-14.3-4-14.2-6.6-11.6-2.8 3.3-4.7 10.9-5.4 23" fill="#f4b318"/><path d="M2944.7 374l-3.5 3.2-.1 29.6-10 9.4-.1 6 61-46.7V362l-12.2 10.8v-31.5l-3.3 3.1v31.2l-2.3 2v-31l-1.8 1.7v31l-2.2 1.8.1-30.9-1.7 1.6v30.9l-2.1 1.7v-30.6l-1.8 1.7v30.7l-2.4 2v-30.5l-3.3 3v30.5l-2.4 2v-30.2l-1.8 1.7v30.2l-2.2 1.8.1-30.1-1.6 1.5-.1 30.1-2.1 1.8V370l-1.8 1.7-.1 30-2.4 2 .1-29.8" fill="#4e2c83"/><path d="M3168.5 522.9c0 34.3-22.9 62.2-51.1 62.2-28.2 0-51.1-27.9-51.1-62.2 0-34.4 22.9-62.3 51-62.3 28.3 0 51.2 28 51.2 62.3" fill="#f4b318"/><path d="M3112.4 572l-1.3-.1a5 5 0 0 1-3.6-6l11-41.7-26.6 5.8a5 5 0 1 1-2-9.7l42.3-9.4-15 57.4a5 5 0 0 1-4.8 3.7" fill="#403183"/><path d="M2963.8 670.7c2.3-4.3 10.8-2.9 14.9-5.2-.1-.9-1-2.2-1-3 0-1.5-2.4-2.3-1.3-4.5.9-1.6 3-.8 4-1.6 2.3-2.1 3.8-1.5 1.8-4.9-1.7-2.8-5.2-1.7-4.5-6 .6-4.4 4.4-2.4 7.3-2.5 9.3-.4 11.2-9.1 1.4-9.6-4.2-.2-16.8 4.2-8.3-2.9 4.2-3.4 3.6-1.3 4.1-6.2.1-1-1-2.5-.8-3.9.1-1 2.2-2 2.5-3 2-6.5-1.7-1.5.2-8 1.3-4.4 10-18.5-.3-16-.8 7.8-4-.3-4.9 7.2-.7 6.2 3.6 5.5-1.8 9.8-2.6-.9-5.8-.6-8.6-.5.3 3 2 7-.3 9.9-2.8 3.4-10.1 2.6-13.9.6-3-1.8-4.2-3.5-7.7-5-3.4-1.2-12.1-1.3-11.3-6.2 4-.9 11.2 1.6 14.7-.6 1.9-1.2 2-4.2 3.8-6 4-3.6 9.5-2.7 11-9 2.8-11.8-13.4-2.4-18.8-5.8-8.1-5.1 7.8-6.5 8.3-9 1-5.7-15.3-5.8-18.2-8.1 4.8-3.6 11-.8 16.7-2 4.1-.7 7.4-3.2 2.8-6.3-2.8-1.8-6.4.3-9.1-1.7 3-2.6 19 .4 17-8-5.9-.7-11.4 2.5-17.4 1 0-4.9 10.5-3 6.6-9.5-4.4.4-5 2.6-8.4 4-6 2.3-4.4-1.5-1-5 2.7-2.8 15.6-9.5 12.1-14.7-3-4.6-11.4 4.3-13.7 7-2.5 2.8-5.8 5.2-7.4 8.6-2 4-.6 5.5-5.3 7-7.1 2.2-13.9-2.2-14.5-9-.6-7.8 6.1-9.1 12.6-10 4.5-.6 13.8.5 16.4-4.4 5.6-10.7-16-7.2-17.4-10.7-1-2.6 6.2-1.2 7.5-3.1 2.5-3.8 3.4-5.8 3-10.4-.2-2.7-2.6-4.4-.5-7.2 1.6-2.2 6.3-2.3 9-3.4 4.2-1.8 10.7-10.5 4.3-14-5.7-3-14.9 5.7-19.9 3.1 2.6-4.9 4.6-7.6 4-13.8-6.4-.8-5.8 2.8-9.3 6.1-3.5 3.4-6.7 3.2-11.7 2.5V475c4.5-.6 2.8-6.2 2-9.2-1.2-4.3-2.3-4 .5-6.9 2.8-3 8-3.5 10.8-7.5 4.6-6.8 3-11.6-.3-19-7 0-3 10-6.8 14.5-3.4 4.3-8.6 3.2-11.5 8.4-2.2 3.8-3.8 11.7-10.3 10-1.2-5.4-.6-6.1 1.4-10.4 2.4-5.3 6-6.3 8.8-11.4 3.3-6.3 7.7-8 7.9-16 0-4-.3-6.5-4.8-4.8-3.3 1.2-2.4 3.7-4 5.7-4.3 5-8.4 8-11.9 14-4.3 7.7-12 9.4-9.9-1 .6-3 2.6-5.7 1.2-8.8-2-4-3.7-2.2-2.4-7.4 3-12 8-23 7.4-35.8-9-2.2-13.1 26.8-22.7 21.3.4-2.8 16.7-15.8 7.2-18.4-6-1.6-11.7 13.7-18.7 12.3 1.7-15 15.1-8.8 21.8-19 1.8-2.6 5.7-14.2 2.1-16.8-3.5-2.5-7.2 6-9.2 8.5-2.6 3.2-4.3 6.7-8.5 8.4-7.7 3.1-7.5-3.5-5.6-9a66.2 66.2 0 0 0 4.5-30.2c-5.7-2.5-5.2 4.3-6.6 7.6-.8 2-3.8 10-4.5 10-3.2.4-7-12-7.5-15-1-7.6-2.7-12.3-2-20 .4-4 2-20.5-6.3-16.7-5 2.4-1.4 9.8-1 13.8.8 7-4 11.1-3.1 17.9.8 6 3.8 12 4.3 18 .3 3.1 0 7.5-3.7 4.5-1.4-1.1-2-6.7-2.2-8.3-.7-4.8.8-19-7.7-15.3.8 5 2.3 8.9 2 14.2-.3 4.7.1 9 2.3 13.5 2.2 4.5 8.7 7.8 9.5 13.1 1.4 10.8-9 3-12.9.2-3.8-2.7-3.5-1.9-5-6.3-4.5-12.7-7.2 3.9-2.3 8.5 3 2.7 7 3 9.6 6.5 1 1.3 1.4 2.3 2.1 3.6 1 1.7 3 3.4 3.6 4.3 1.3 2.4 2.4 7.7-.6 9.3-2.7 1.3-9.8-2-11-4.1-5.2.6-3 4.6-5.2 6-3.6 2.4-4.9-1.6-6.4-2-3.4-1-7 .7-5 5.5 1 2 4 2.5 5.2 4 1.6 2.2 2.2 4.4 1.1 7-1.7 4.1-2 .7-5.8 2.5-5.6 2.7 4 3.3 5 7-9.7 4.4-15.3-8-16.2-15-.4-2.8-1.5-9.5-5.3-4.6-2.2 3 2.2 12.9 1.5 16.6-9.7-2.1 2 8.8 2.2 11-2.5.3-4.5-.4-6.9-.5-6.4 0-4 0-5.1 4.6-.9 3.6.8 3.3-2.9 4.4-2 .6-5.7-1.8-7.4.6-5.5 7.7 22 6.5 16.1 17-3.4-.2-3.3-3.8-5.8-5.5-2.5 5.5 6 16.5-6.6 11.7-5.5-2-11.2-5-12.5-11.2-.8-3.6.7-7.9-.9-11.4-1-2.4-4-3.6-4.8-6.1-2-5.4 2-12.7-2.6-17.2-4.6 5.5-1.5 20.8 0 27.2.8 4 9.3 23 6.3 24.6-4.4 2.1-15.8-9.9-19.3-12-2.2-1.5-9-5.3-11.7-4.6-4.4 1.2 2.2 5.7 2 9.8 1.8.8 8 3.5 9.6 5.2 1 1.4 2.2 5 1.1 6.5-1.5 2.2-4.5 0-6.3 2-2.7 3.3 5.4 4 7.9 4.5 6.8 1.3 8.7.6 9 8 0 3.6-1.6 7.8-.6 11.2.6 1.9 2.7 2 3 4.5.3 1.9-.7 3.7-1.5 5-2.1 3.5-5.9 4.7-10 4-3.8-.5-9.6-6-12.8-3 2 3.3 7.2 2.4 8.4 6 1.5 4.6-5.3 6-4.2 10.9 6.3.8 11.8-10 16-6 6.8 6.9-10.3 9-11.3 12.7 2.4.6 9.4 2.1 5.6 5.4-1.6 1.4-7.6-1-9.9-.5-6.7 2-3 7.8-3.5 13 5 1.5 14 7.2 9.5 13.1-6.7 8.7-15.9-4.5-23-4.5-1.7 0-3-.3-4.2 1-1.5 1.6.8 3.7 0 4.6-2.4 2.5-5.1-.5-7.3 1.8-2.1 2.2 2.3 8.6 4.7 10.2 2.6 1.8 6.5 1.3 9.3 2.3 2 .8 10.3 14.9 13.2 15.1-2 6.2 0 3-13.5 5.8-5.9 1.2-22.5-17.6-19.7-6.6.7 3 3.8 6.6.3 9.6-1.8 1.6-5.4-.2-6.5 2.4-2.1 4.4 26.5 7.5 15.5 10.6-6 1.6-26.6-2.3-32.6-.7-2.1 7 9 5.2 12.7 6.2-.2 5-7 7.3-5.5 12.4 4.5.3 15.4-4 19.4-2 2.4 1.2 4.3 12.5 1.3 15.6-1.9 1.8-7.8-.3-10.4 0 0 4.4 5 4.7 3 9.2h269.6" fill="#4e2c83"/><path d="M3001.3 455.9H2985V26.2h16.3V456M3147.2 289.2l-15-6.3L3221 69.8l15 6.3-88.8 213M3129 519.3l-11.7-11.5 302.7-305 11.5 11.4L3129 519.3M3343.2 487.6l-5.4-15.3 216-76.6 5.5 15.3-216 76.6M2842.4 288.3l-89.8-212.2 15-6.3 89.7 212.2-15 6.3M2866.4 516l-304.3-306 11.5-11.5 304.4 306-11.6 11.6M2643.2 490l-216.4-82.5 5.7-15.3 216.6 82.6-5.9 15.2" fill="#653f94"/><path d="M3381.6 636h-16.2c0-205.2-167-372.2-372.3-372.2A372.7 372.7 0 0 0 2621 636h-16.3a389 389 0 0 1 388.5-388.5A389 389 0 0 1 3381.6 636" fill="#653f94"/><path d="M3179 633.7h-16.2c0-93.6-76.1-169.7-169.7-169.7a169.9 169.9 0 0 0-169.6 169.7h-16.3c0-102.6 83.4-186 186-186 102.4 0 185.9 83.4 185.9 186" fill="#653f94"/><path d="M2993.1 42.5a594.6 594.6 0 0 1 594 589H2399.1c2.8-325.2 268-589 594-589m626.5 594A627.3 627.3 0 0 0 2993.1 10a627.3 627.3 0 0 0-626.4 621.6h-.5v39.9h1253.3v-34.9h.2" fill="#4e2c83"/></svg>