<svg xmlns="http://www.w3.org/2000/svg" width="246" height="59.458" viewBox="0 0 246 59.458">
 <g transform="matrix(.86732 0 0 .86732 -1.5968 -2.1053)">
  <path d="m11.02 21.71-8.53 5.09 7.65-0.85v4.03l-7.32 7.46 7.71-3.44 0.79 4.72-4.47 8.03 3.99-2.2-1.66 2.96 6.46 14.7s14.37 9.05 23.68 7.96c15.29-1.8 18.57-11.4 18.57-11.4 0-1.67-0.01-7.48-0.01-8.57l2.57-5.19 4.03 5.64-2.46-8.78 0.59-1.77 4.86 4.86-4.08-9.19 0.59-2.06 5.31 3.85-5.17-7.59 0.21-1.3 6.04 4.85-5.26-8.32v-1.62l-3.59-2.55c4.05-0.52 6.87-4.21 6.87-4.21-1.09-2.01-7.95-3.06-7.95-3.06l7.97-4.7-8.04 1.63 4.78-4.94-6.79 3.12 2.04-4.15-6.44 4.46s-2.86-2.18-3.92-2.97c-1.21-0.89-2.87-1.88-4.56-2.3-3.12-0.77-3.71-0.77-5.19-0.77 0 0-4.54-0.09-7.2 0.5-2.65 0.59-4.99 2.05-5.87 2.94-0.89 0.88-7.05-3.35-7.05-3.35l2.92 5.12-9.85-5.49 6.32 6.77-9.05-2.28 7.38 4.74s-7.99 1.45-12.01 6.72l6.28 0.06c0.01 0.01-0.28 0.61-1.14 2.84z" fill="#fff"/>
  <path d="m29.689 5.9902-3.3301 2.6191-0.17969 0.74023c-0.19 0.68-0.28906 1.2595-0.28906 1.7695 0 0.67 0.13844 1.3213 0.39844 1.8613 0.11-0.22 0.24156-0.43961 0.35156-0.59961l0.14844-0.23047 1.7715 2.1992-0.09961-3.1094 0.10937-0.06055c0.08-0.04 0.19024-0.04883 0.74024-0.04883 0.3 0 0.66875-0.0015 0.96875-0.02148 1.61-0.1 4.1304-0.62867 4.1504-0.63867l0.08008-0.0098 0.10938 0.10937c0.29 0.33 0.58133 0.67953 0.86133 1.0195 0.37 0.45 0.75016 0.90031 1.1602 1.3203 0.31 0.31 0.85961 0.45898 1.5996 0.45898 0.83 0 1.7295-0.20914 2.2695-0.36914-1.09-0.56-2.0605-1.7008-2.9805-2.8008-0.46-0.55-0.94992-1.1198-1.4199-1.5898l-0.22852-0.20895 1.3691-0.48047-4.8301-1.0195 0.68945 1.2695-0.12891 0.10938c-0.28 0.24-0.50094 0.43086-0.71094 0.63086-0.79 0.72-1.2995 1.199-2.2695 1.209-0.65 0-1.5796-0.34938-1.8496-0.85938l-0.01953-0.019531c-0.77-1.15 1.5586-3.25 1.5586-3.25zm19.42 2.0898-3.2891 0.11914 1.3203 0.62109c-0.51 0.3-0.62133 0.82945-1.1113 1.6895-1.03 1.82-2.3496 2.4805-2.3496 2.4805 0.35 0.02 1.6008 0.25953 2.0508 0.01953 0.67-0.36 2.2892-2.2703 2.4492-2.8203l3.3594 0.99024 1.0117 0.33984 0.29883 2.1504c1.66-2.05 0.79102-3.3906 0.79102-3.3906-0.28646-0.36524-0.83741-0.93752-1.1953-1.3047 0.52232 0.67246 0.13199 1.1953-0.50586 1.1953-1.06 0-2.4703-0.86031-3.0703-1.3203l-0.09961-0.080078zm3.3359 0.89453c-0.09184-0.11824-0.20294-0.23962-0.35547-0.36523 0 0 0.21362 0.21972 0.35547 0.36523zm-29.746 12.586c-2.52 0.04-8.4392 0.22859-10.699 1.0586-0.17 0.92-0.51953 3.1512-0.51953 3.2812 2.51-1.23 7.6999-2.8998 10.92-3.5898 0.14-0.27 0.22883-0.53 0.29883-0.75zm33.561 0.83984c0.08 0.29 0.19945 0.71969 0.18945 0.67969 0.48 0.12 0.85117 0.25938 1.2012 0.35938 0.3 0.09 0.65977 0.23062 1.0098 0.39062l1.3105 0.70898c0.41 0.24 2.9588 2.2516 3.2988 2.6016 0.02-0.3-2.34e-4 -0.66016 0.0098-0.91016-3.88-3.25-6.0895-3.7801-7.0195-3.8301zm-35.629 3.3789c-1.8 0.5-6.3905 1.95-9.4805 4.5 0 1.07 0.20047 3.4804 0.23047 3.4004 0.08-0.16 0.56914-0.81992 0.86914-1.1699 0.61-0.7 1.3208-1.4288 2.0508-2.0488 1.44-1.22 3.0984-2.2814 4.6484-2.9414 0.48-0.2 0.90164-0.35031 1.4316-0.57031 0.1-0.38 0.16-0.79992 0.25-1.1699zm36.199 0.9707c-0.08 0.86-0.03078 0.54906-0.05078 0.53906 1.91 0.78 4.5016 2.4719 5.8516 4.9219 0.13-0.59 0.19-1.21 0.25-1.75-2.87-2.42-4.8408-3.3609-6.0508-3.7109zm-36.57 3.6992c-1.79 1.46-6.4195 5.4116-7.7695 8.4316 0.3 0.99 0.68063 2.0296 1.1406 3.0996 0.03-0.16 0.29992-0.79031 0.41992-1.0703 0.54-1.29 1.4094-2.751 2.3594-4.041 1.07-1.47 2.5698-2.969 4.0898-4.459-0.09-0.61-0.17023-1.2509-0.24023-1.9609zm36.24 0.39062c-0.14 0.88-0.16016 0.79102-0.16016 0.79102 2.32 1.53 3.9396 3.8795 5.0996 5.9395 0.15-0.54 0.32-1.2102 0.5-1.9902-2.88-3.23-4.5995-4.3602-5.4395-4.7402zm-0.93945 3.7598c-0.1 0.43-0.21984 0.83024-0.33984 1.2402l0.0293-0.08008c1.44 2.33 3.3294 4.6395 3.8594 7.0195l0.19141 1.3809c0 0.02-0.01148 0.05031-0.02148 0.07031 0.35-0.8 0.67117-1.6711 0.95117-2.6211-2.13-4.17-3.6899-6.1098-4.6699-7.0098zm-33.92 2.0605c-1.31 1.77-4.4206 6.1094-5.8906 9.3594 0.74 1.24 1.5391 2.5313 2.3691 3.7812a0.58 0.58 0 0 1-0.08008-0.19141c-0.01-0.1 0.38039-1.3593 0.65039-2.0293 1.05-2.6 2.2315-5.5002 4.2715-8.1602-0.55-1.05-0.99031-1.9398-1.3203-2.7598zm32.139 2.8203s-0.81984 1.4698-1.3398 2.3398c0.02 0.08 0.04102 0.14945 0.04102 0.18945 0 0.1-0.16977 1.0508-0.25977 1.5508-0.1 0.57-0.19109 1.1998-0.37109 1.7598-1.86 5.8-5.97 11.591-11.25 17.391-0.64-1.09-1.3296-2.2504-2.0996-3.4004-1.21-1.83-2.6705-3.9-4.0605-5.75-0.31-0.42-0.66024-0.84977-0.99023-1.2598-0.28-0.35-0.59867-0.72031-0.88867-1.0703-0.77-0.91-1.5205-1.8502-2.3105-2.7402-0.72-0.81-2.2402-2.3397-2.2402-2.4297v-0.03125c-0.53-0.4-1.0694-0.87024-1.6094-1.4902-0.3-0.34-0.84961-0.91992-0.84961-0.91992-0.15 0.35-0.34141 0.8307-0.44141 1.2207-0.98 3.54-2.0291 6.7802-2.7891 10.41 0.68 0.69 2.4205 2.8398 3.2305 3.5898 0.04 0.04 0.08891 0.08109 0.12891 0.12109-0.03-0.04-0.04883-0.06008-0.04883-0.08008 0-0.1 0.29922-4.7117 0.69922-7.0117 0.18-1.02 0.63992-2.0095 0.91992-3.0195l2.0605 2.3809 0.28906 4.9492 1.5996-1.9395 0.21094 3.6992 1.7305-2.0586c2.7 3.63 5.1787 7.3691 6.8887 11.039h0.02148c3.88-4.15 7.5402-8.4206 10.16-12.641l1.1387 1.0312 0.6504-3.7305 1.0293 0.5293c0.03-0.03 0.02148-0.01937 0.02148-0.10938l-0.23046-2.2891 1.4297-3.8809c0.4 0.76 1.0909 3.5597 1.1309 4.6797 0 0.06-2.34e-4 0.11102 0.0098 0.29102 0.77-1.2 1.4097-1.9905 2.1797-3.2305-0.44-2.02-0.80008-2.9407-1.8301-4.9707-0.01-0.03-0.84086-1.4302-0.88086-1.4902-0.34-0.59-0.69008-1.0089-1.0801-1.6289z" fill="#f7a800"/>
  <path d="m41.199 3.7695c-0.14 0-3.4891 0.039844-3.8691 0.089844-0.5 0.06-1.0095 0.11016-1.5195 0.16016-1.2 0.11-2.4413 0.23125-3.6113 0.53125-0.97 0.25-2.0985 1.0986-2.9785 1.8086-0.5 0.4-1.2598 1.7103-1.2598 2.3203 0 1.09 1.3693 1.4395 2.0293 1.4395 0.99 0 1.5088-0.47922 2.2988-1.1992 0.21-0.2 0.45047-0.41039 0.73047-0.65039l0.12109-0.10938-0.67969-1.2402 4.7695 1.0098-1.3711 0.4707 0.23047 0.23047c0.47 0.47 0.95016 1.0398 1.4102 1.5898 0.92 1.1 1.8709 2.2291 2.9609 2.7891-0.54 0.16-1.4102 0.35938-2.2402 0.35938-0.74 0-1.2801-0.15852-1.5801-0.47852-0.41-0.42-0.80016-0.88984-1.1602-1.3398-0.28-0.34-0.56133-0.68172-0.86133-1.0117l-0.08008-0.08984-0.11914 0.02148c-0.02 0.01-2.5404 0.53867-4.1504 0.63867-0.3 0.02-0.66875 0.02148-0.96875 0.02148-0.55 0-0.66023 0.0088-0.74023 0.04883l-0.11133 0.06055 0.10156 3.1094-1.7715-2.1992-0.14844 0.23047c-0.11 0.16-0.24156 0.37961-0.35156 0.59961-0.26-0.54-0.39844-1.1913-0.39844-1.8613 0-0.51 0.09906-1.0895 0.28906-1.7695l0.18945-0.75977s-2.6988 2.0898-5.2188 3.3398l0.50977 0.16992c0.1 0.03 0.19906 0.05984 0.28906 0.08984 0.17 0.05 0.33977 0.10992 0.50977 0.16992 0.08 0.03 0.16023 0.07156 0.24023 0.10156 0.11 0.05 0.21078 0.09891 0.30078 0.12891 1.41 0.5 2.1797 3.0798 2.1797 4.2598v1.9102c0 0.1-0.14977 1.3703-0.25977 2.0703l-0.0293 0.23047 1.3984 0.04883c0.22 0.04 0.44016 0.07133 0.66016 0.11133 0.68 0.11 1.3905 0.21867 2.0605 0.38867 0.39 0.1 0.77062 0.24109 1.1406 0.37109 0.26 0.09 0.50977 0.17976 0.75977 0.25976 0.4 0.12 0.83 0.20906 1.25 0.28906l0.84961 0.16992-3.0508-3.9785 5.2109 2.1387-1.4297-3.5586 4.0996 1.6289-0.57031-2.2598c1.67 0.96 3.9096 1.9102 5.5996 1.9102 0.48 0 0.75055-8.59e-4 1.3105-0.13086 0.6-0.15 1.2795-0.39828 2.0195-0.73828 0.33-0.15 1.0402-0.44008 1.4102-0.58008-0.06 0.36-0.19984 1.0384-0.33984 1.6484l-0.08008 0.37109 3.7695-1.4297-2.4102 3.8184 3.4902-1.4688-1.8887 2.1406 3.3086-0.44141h1.7109l-0.05078-0.24023c-0.08-0.39-0.1793-0.77992-0.2793-1.1699-0.22-0.85-0.43945-1.7386-0.43945-2.5586 0-0.5 0.03914-1.1198 0.36914-1.8398 0.39-0.85 1.0898-1.3215 1.7598-1.7715 0.2-0.13 0.39031-0.27039 0.57031-0.40039l0.23047-0.17969-3.7695-3.4492s1.0184 1.3497-0.68164 3.4297l-0.29883-2.0996-1.0312-0.33984-3.3887-1c-0.15 0.54-1.7804 2.4898-2.4004 2.8398-0.45 0.25-1.6793 4.68e-4 -2.0293-0.01953 0 0 1.3098-0.65094 2.3398-2.4609 0.47963-0.8418 0.62714-1.3928 1.1113-1.6973l-1.3027-0.60156 3.2109-0.11133-0.33984 0.67969 0.14062 0.10156c0.6 0.45 1.9988 1.3086 3.0488 1.3086 0.74 0 0.82031-0.43914 0.82031-0.61914 1e-6 -0.54-0.89078-1.2803-2.8008-2.3203-0.06-0.04-0.10914-0.060314-0.11914-0.070312-0.26-0.17-0.5193-0.3493-0.7793-0.5293-0.38-0.27-0.77164-0.54125-1.1816-0.78125-0.57-0.34-1.1892-0.61961-1.6992-0.84961-1.51-0.68-3.2207-1.11-4.9707-1.25zm5.9727 5.043 0.01758 0.00781 0.0098-0.03125c-0.01079 0.00635-0.01687 0.016856-0.02734 0.023437zm-31.611-4.043c2.51 1.76 4.1696 3.6706 6.8496 5.8105l1.1504-0.83008c-2.28-1.32-5.03-3.7605-8-4.9805zm6.0898 0.080078c-0.22-0.05 2.9289 3.8899 3.1289 4.1699 0.24-0.09 0.90086-0.45875 1.1309-0.71875-1.9-1.55-3.0398-2.6912-4.2598-3.4512zm37.35 1.5508c-1.58 1.29-3.1909 2.3487-4.7109 3.8887l0.8418 0.62109c1.49-1.44 2.6591-3.0498 3.8691-4.5098zm4.1797 0.7793c-2.83 1.37-5.3806 3.2896-7.3105 4.3496l1.0117 0.7207c2.26-1.9 3.8288-3.1503 6.2988-5.0703zm-50.061 1.3301 7.0312 3.5098 0.88867-0.66992c-2.13-1.47-7.9199-2.8398-7.9199-2.8398zm52.41 1.5996c-2.62 0.67-5.2891 1.6298-7.8691 2.7598l0.9707 0.82031c2.32-1.26 4.7097-2.5686 6.9297-3.5586zm-14.93 2.3613c0.16 0.27 0.25977 0.58016 0.25977 0.91016-0.02 0.98-0.8186 1.7891-1.8086 1.7891-0.85 0-1.5602-0.60063-1.7402-1.3906l1.0898-0.66992a0.713 0.713 0 0 0 0.66016 0.98047c0.39 0 0.70898-0.31898 0.70898-0.70898 0-0.3-0.18898-0.56016-0.45898-0.66016zm-18.459 0.21875 1.25 0.25a0.7 0.7 0 0 0-0.41016 0.64062c0 0.39 0.31899 0.70898 0.70898 0.70898 0.39 0 0.71094-0.31898 0.71094-0.70898 0-0.15-0.06063-0.29016-0.14062-0.41016l1.2207 0.50977c-0.07 0.94-0.85078 1.6895-1.8008 1.6895-0.99 0-1.7891-0.79906-1.7891-1.7891 0-0.32 0.09-0.63062 0.25-0.89062zm-13.459 0.51758c-1.62 0.08625-3.0508 0.47266-3.0508 0.47266l-0.16016 0.04101c-2.67 0.66-5.6898 2.0784-7.8398 4.3984h5.7891c-0.94 1.31-1.0296 2.5902-1.3496 3.9102 2.6-0.82 8.5001-0.97977 10.83-1.0098 0 0 1.459-4.0705-0.04102-6.4805-0.75-1.205-2.5577-1.4183-4.1777-1.332zm40.928 1.7832c-0.43 0-1.4588 0.17016-2.2188 0.66016-1.16 0.74-1.8302 1.909-1.9102 2.959-0.1 1.29 0.35 2.7398 0.5 3.2598 0.9-0.05 3.2305 0.29055 7.4805 3.8105v-1.3789c-1.51-1.11-3.0216-2.3206-4.4316-3.6406 0.11-0.03 0.25024 0.05974 0.74023 0.0098 2.17-0.22 4.5214-1.8208 6.6914-3.8008-3.64-2.03-6.8416-1.8789-6.8516-1.8789zm39.17 2.4004c-2.58 0-4.6492 0.73899-6.1992 2.209-1.55 1.47-2.3301 3.4006-2.3301 5.8105 0 1.59 0.33 3.01 1 4.25 0.66 1.24 1.5707 2.1803 2.7207 2.8203 1.15 0.65 2.5194 0.96875 4.1094 0.96875 2.54 0 4.6406-0.81899 6.3105-2.459 1.67-1.64 2.5-3.6694 2.5-6.1094 0-2.26-0.72015-4.0814-2.1602-5.4414-1.43-1.37-3.4212-2.0488-5.9512-2.0488zm102.78 0.0098c-1.82 0-3.2512 0.44938-4.2812 1.3594s-1.5488 2.07-1.5488 3.5c0 0.84 0.16976 1.5394 0.50976 2.1094 0.33 0.57 0.80063 0.99 1.3906 1.25 0.59 0.26 1.7191 0.4618 3.3691 0.5918 1.25 0.1 2.1006 0.24922 2.5606 0.44922s0.81031 0.50016 1.0703 0.91016c0.25 0.41 0.37891 0.90024 0.37891 1.4902 0 1-0.37891 1.8285-1.1289 2.4785-0.75 0.65-1.8212 0.98047-3.2012 0.98047-0.65 0-1.2488-0.08047-1.7988-0.23047-0.56-0.15-1.0414-0.36844-1.4414-0.64844-0.27-0.19-0.44953-0.37102-0.51953-0.54102-0.07-0.17-0.10937-0.61031-0.10937-1.3203v-0.54883h-0.74024c0 1.38-0.0594 2.4989-0.18945 3.3789 0.73 0.28 1.4482 0.49086 2.1582 0.63086 0.71 0.14 1.4211 0.20898 2.1211 0.20898 2.04 0 3.6802-0.52985 4.9102-1.5898s1.8398-2.3288 1.8398-3.7988c0-0.73-0.16047-1.3704-0.48047-1.9004-0.32-0.53007-0.73953-0.92019-1.2695-1.1602s-1.5408-0.43008-3.0508-0.58008c-1.51-0.14-2.489-0.30024-2.959-0.49023-0.47-0.19-0.84133-0.49016-1.1113-0.91016-0.27-0.42-0.4082-0.92977-0.4082-1.5098 0-0.93 0.33-1.6893 1-2.2793 0.67-0.59 1.5898-0.89062 2.7598-0.89062 0.72 0 1.3988 0.11961 2.0488 0.34961s1.0512 0.45039 1.2012 0.65039c0.15 0.2 0.22852 0.59016 0.22852 1.1602v0.88086h0.76172c0.01-1.26 0.13008-2.2712 0.33008-3.0312-0.74-0.33-1.4812-0.56898-2.2012-0.70898-0.74-0.16-1.4692-0.24023-2.1992-0.24023zm19.379 0c-1.82 0-3.2493 0.44938-4.2793 1.3594s-1.5508 2.07-1.5508 3.5c-1e-5 0.84 0.16976 1.5394 0.50976 2.1094 0.33 0.57 0.80063 0.99 1.3906 1.25 0.59 0.26 1.7211 0.4618 3.3711 0.5918 1.25 0.1 2.0986 0.24922 2.5586 0.44922s0.81032 0.50016 1.0703 0.91016c0.25 0.41 0.38085 0.90024 0.38085 1.4902 0 1-0.38087 1.8285-1.1308 2.4785-0.75 0.65-1.8192 0.98047-3.1992 0.98047-0.65 0-1.2508-0.08047-1.8008-0.23047-0.56-0.15-1.0395-0.36844-1.4395-0.64844-0.27-0.19-0.44953-0.37102-0.51953-0.54102-0.07-0.17-0.11133-0.61031-0.11133-1.3203v-0.54883h-0.74023c0 1.38-0.0594 2.4989-0.18945 3.3789 0.72998 0.28 1.4502 0.49086 2.1602 0.63086 0.71 0.14 1.4191 0.20898 2.1191 0.20898 2.04 0 3.6802-0.52985 4.9102-1.5898s1.8398-2.3288 1.8398-3.7988c0-0.73-0.15851-1.3704-0.47851-1.9004-0.32-0.53007-0.74149-0.92019-1.2715-1.1602s-1.5388-0.43008-3.0488-0.58008c-1.51-0.14-2.4909-0.30024-2.9609-0.49023-0.47-0.19-0.83938-0.49016-1.1094-0.91016-0.27-0.42-0.41015-0.92977-0.41015-1.5098 0-0.93 0.33-1.6893 1-2.2793 0.66998-0.59 1.5898-0.89062 2.7598-0.89062 0.72 0 1.4008 0.11961 2.0508 0.34961s1.0492 0.45039 1.1992 0.65039 0.23047 0.59016 0.23047 1.1602v0.88086h0.75977c0.01-1.26 0.13007-2.2712 0.33007-3.0312-0.74-0.33-1.4692-0.56898-2.1992-0.70898-0.73998-0.16-1.4712-0.24023-2.2012-0.24023zm-37.82 0.06055-0.86914 0.17969c-0.88 0.17-1.4695 0.28961-1.7695 0.34961v0.68945c0.53 0 0.90891 0.05039 1.1289 0.15039 0.21998 0.11 0.48126 0.32062 0.78124 0.64062 0.55 0.58 1.2195 1.5095 2.0195 2.7695 0.8 1.26 1.6694 2.7602 2.6094 4.4902 0.03 0.71 0.0508 1.359 0.0508 1.959 0 2.05-0.0695 3.2009-0.18945 3.4609-0.13 0.25-0.50086 0.37891-1.1309 0.37891h-0.93945v0.69141l3.5391-0.08008a82.94 82.94 0 0 1 2.9902 0.08008v-0.69141l-0.83007-0.08984c-0.65-0.05-1.0189-0.12898-1.1289-0.20898s-0.18047-0.33-0.23047-0.75c-0.07-0.77-0.0996-1.8206-0.0996-3.1406 0-0.99 0.0389-1.6096 0.12891-1.8496 0.26-0.68 1.0401-2.0406 2.3301-4.0605 1.29-2.02 2.3893-3.5391 3.2793-4.5391v-0.27148h-1.6992l-2.5098 4.3711c-0.97 1.66-1.6691 2.8398-2.1191 3.5098-1.34-2.53-2.3016-4.2709-2.8516-5.2109-0.76-1.23-1.3097-2.0194-1.6797-2.3594-0.2-0.19-0.47055-0.34875-0.81055-0.46875zm-10.75 0.0293c-0.3 0.82-0.84844 2.1392-1.6484 3.9492l-3.0215 6.8301c-0.54 1.22-1.0699 2.3602-1.5898 3.4102-0.17 0.36-0.32852 0.58969-0.47852 0.67969s-0.48024 0.15016-0.99024 0.16016l-0.33007 0.0098v0.69141c0.8-0.05 1.7293-0.08008 2.7793-0.08008 0.88 0 1.6711 0.03008 2.3711 0.08008v-0.69141l-1.0508-0.11914c-0.38-0.05-0.60922-0.10969-0.69922-0.17969s-0.14063-0.19133-0.14063-0.36133c0-0.26 0.24047-0.97844 0.73047-2.1484l0.73828-1.7715h6.3516l1.2402 3.0507c0.22 0.56 0.33008 0.8993 0.33008 1.0293s-0.0619 0.23055-0.17188 0.31055c-0.07 0.05-0.29945 0.09109-0.68945 0.12109l-1.0898 0.06836v0.69141c1.33-0.05 2.4109-0.08008 3.2109-0.08008 0.86 0 1.7688 0.03008 2.7188 0.08008v-0.69141c-0.57-0.03-0.92984-0.08016-1.0898-0.16016-0.16-0.07-0.30969-0.19891-0.42969-0.37891-0.13-0.18-0.38-0.70984-0.75-1.5898l-5.5508-12.91zm76.512 0c-0.3 0.82-0.85039 2.1392-1.6504 3.9492l-3.0195 6.8301c-0.54 1.22-1.0718 2.3602-1.5918 3.4102-0.17 0.36-0.32852 0.58969-0.47852 0.67969-0.14998 0.09-0.48023 0.15016-0.99023 0.16016l-0.33008 0.0098v0.69141c0.8-0.05 1.7293-0.08008 2.7793-0.08008 0.88 0 1.6711 0.03008 2.3711 0.08008v-0.69141l-1.0508-0.11914c-0.38-0.05-0.60922-0.10969-0.69922-0.17969s-0.14062-0.19133-0.14062-0.36133c0-0.26 0.24047-0.97844 0.73047-2.1484l0.74023-1.7715h6.3496l1.2402 3.0507c0.22 0.56 0.33008 0.8993 0.33008 1.0293s-0.0599 0.23055-0.16992 0.31055c-0.07 0.05-0.30142 0.09109-0.6914 0.12109l-1.0898 0.06836v0.69141c1.33-0.05 2.4109-0.08008 3.2109-0.08008 0.86 0 1.7688 0.03008 2.7188 0.08008v-0.69141c-0.57-0.03-0.92986-0.08016-1.0898-0.16016-0.16-0.07-0.30969-0.19891-0.42969-0.37891-0.13-0.18-0.38-0.70984-0.75-1.5898l-5.5488-12.91zm-162 0.08008-6.3105 0.11914c-0.97 0-2.0713-0.03008-3.2812-0.08008v0.69141h0.79102c0.66 0 1.0607 0.11938 1.2207 0.35938s0.23828 1.1098 0.23828 2.5898v8.2793c1e-6 1.52-0.06898 2.4006-0.20898 2.6406-0.15 0.24-0.53016 0.35938-1.1602 0.35938h-0.88086v0.69141c1.33-0.05 2.4102-0.08008 3.2402-0.08008 0.82 0 1.9303 0.03008 3.3203 0.08008v-0.69141h-0.7793c-0.66 0-1.0705-0.12891-1.2305-0.37891-0.16-0.25-0.24024-1.1211-0.24024-2.6211v-3.7695c0.64-0.02 1.1997-0.02953 1.6797-0.01953 1.7 0 2.6814 0.0707 2.9414 0.2207 0.25 0.15 0.37891 0.55852 0.37891 1.2285v0.83984h0.7207l-0.0098-2.5898c0-0.38 0.02984-1.2401 0.08984-2.5801h-0.68945l-0.11133 0.83008c-0.07 0.46-0.15 0.73961-0.25 0.84961-0.09 0.11-0.28055 0.17164-0.56055 0.18164-0.82 0.06-1.7789 0.08984-2.8789 0.08984-0.42 0-0.85102-0.01125-1.291-0.03125v-3.4902c0-0.78 0.04086-1.6398 0.13086-2.5898 0.85-0.09 1.7291-0.13867 2.6191-0.13867 1.03 0 2.041 0.12867 3.041 0.38867 0.13 0.6 0.21977 1.281 0.25977 2.041h0.69922c0.02-1.43 0.15086-2.5403 0.38086-3.3203-0.59-0.07-1.2091-0.09961-1.8691-0.09961zm28.898 0.0098c-0.46 0-1.2196 0.01078-2.2695 0.05078-0.9 0.03-1.6001 0.04883-2.0801 0.04883-0.72 0-1.7591-0.03008-3.1191-0.08008v0.68945h0.58984c0.74 1e-6 1.1803 0.14016 1.3203 0.41016 0.13 0.27 0.19922 1.5406 0.19922 3.8105v5.2793c0 2.61-0.0597 4.0601-0.17969 4.3301-0.12 0.27-0.49109 0.41016-1.1211 0.41016h-0.81836v0.69141c1.64-0.05 2.7802-0.08008 3.4102-0.08008 0.8 0 1.8095 0.03008 3.0195 0.08008v-0.69141h-0.86133c-0.68 0-1.089-0.13992-1.209-0.41992-0.13-0.28-0.18946-1.7091-0.18946-4.2891v-5.3008a48.58 48.58 0 0 1 0.12891-3.7305c0.77-0.29 1.5406-0.42969 2.3106-0.42969 1.1 0 1.9393 0.27078 2.5293 0.80078 0.59 0.53 0.88086 1.269 0.88086 2.209 0 1.05-0.35101 1.8915-1.041 2.5215s-1.6491 0.93945-2.8691 0.93945c-0.2 0-0.51946-0.01078-0.93946-0.05078l-0.11132 0.37109c0.81998 0.92 1.6003 1.8601 2.3203 2.8301l3.8809 5.2402c0.46-0.05 0.90031-0.08008 1.3203-0.08008 0.45 0 0.97984 0.03008 1.5898 0.08008v-0.69141h-0.29101c-0.13 0-0.25891-0.02961-0.37891-0.09961-0.13-0.06-0.38-0.32883-0.75-0.79883l-2.1113-2.7305c-1.07-1.37-1.9499-2.5696-2.6699-3.5996 1.41-0.29 2.5412-0.8311 3.2812-1.6211 0.74-0.79 1.1094-1.7005 1.1094-2.7305 0-0.7-0.16977-1.2986-0.50977-1.8086s-0.84023-0.89016-1.4902-1.1602c-0.65-0.27-1.6209-0.40039-2.8809-0.40039zm28.92 0.0293v0.69141h0.81055c0.66998 0 1.0807 0.12867 1.2207 0.38867s0.20898 1.3398 0.20898 3.2598v6.6113c0 2.12-0.069 3.3103-0.20898 3.5703-0.14 0.26-0.59133 0.38867-1.3613 0.38867h-0.67969v0.69141c1.59-0.05 2.8099-0.08008 3.6699-0.08008 0.87998 0 1.8 0.03008 2.75 0.08008v-0.69141h-0.75c-0.41 0-0.70868-0.05016-0.88868-0.16016-0.19-0.11-0.29031-0.21031-0.32031-0.32031-0.03-0.1-0.0713-0.64844-0.11133-1.6484-0.04-0.71-0.0586-1.3313-0.0586-1.8613v-3.0684c1.17-0.05 2.8888-0.07031 5.2188-0.07031 1.6 0 2.9212 0.03008 3.9512 0.08008v2.8594c0 1.45-0.0411 2.5508-0.12109 3.3008-0.04 0.35-0.13883 0.58875-0.29883 0.71875-0.17 0.13-0.52008 0.18945-1.0801 0.18945h-0.75977v0.69141c1.06-0.05 2.1997-0.08008 3.4297-0.08008a63.11 63.11 0 0 1 3.1289 0.08008v-0.69141h-0.85938c-0.67 0-1.0692-0.12867-1.1992-0.38867-0.12998-0.26-0.1914-1.5098-0.1914-3.7598v-6.0703c0-1.76 0.0208-2.8106 0.0508-3.1406 0.04-0.34 0.12906-0.56945 0.28906-0.68945 0.16-0.13 0.52008-0.18945 1.0801-0.18945h0.83008v-0.69141c-1.17 0.05-2.2989 0.08008-3.3789 0.08008-1 0-2.0597-0.03008-3.1797-0.08008v0.69141h0.78907c0.52 0 0.86125 0.06922 1.0312 0.19922 0.17 0.13 0.26883 0.35039 0.29883 0.65039 0.09 0.85 0.13085 1.9004 0.13085 3.1504v2.1387c-1.07 0.05-2.4602 0.08008-4.1602 0.08008-2.01 0-3.6707-0.03008-4.9707-0.08008v-2.5c0-1.55 0.0298-2.5297 0.0898-2.9297 0.04-0.25 0.14078-0.42906 0.30078-0.53906s0.57977-0.16992 1.2598-0.16992h0.4707v-0.69141c-0.99 0.05-2.0106 0.08008-3.0606 0.08008-1.04 0-2.1611-0.03008-3.3711-0.08008zm127.9 0v0.69141l0.83984 0.08984c0.52 0.06 0.84141 0.10969 0.94141 0.17969a0.656 0.656 0 0 1 0.23828 0.2793c0.05 0.12 0.10039 0.4911 0.15039 1.1211 0.05 0.62 0.0703 1.4299 0.0703 2.4199v6.0195c0 1.57-0.0201 2.5908-0.0801 3.0508-0.06 0.46-0.17008 0.75891-0.33008 0.87891-0.16 0.13-0.55922 0.18945-1.1992 0.18945h-0.33985v0.69141c1.42-0.05 2.5502-0.08008 3.4102-0.08008 0.89 0 2.2895 0.03008 4.1894 0.08008l1.7207 0.0293c0.81 0 1.6385-0.03937 2.4785-0.10938l-0.0195-0.5c0-0.53 0.10078-1.6009 0.30078-3.2109h-0.72069c-0.19 0.96-0.38055 1.7702-0.56055 2.4102-0.4 0.15-0.77867 0.25102-1.1387 0.29102-0.56 0.07-1.2503 0.10938-2.0703 0.10938-1.22 0-2.3714-0.04109-3.4414-0.12109-0.02-0.45-0.0293-1.1491-0.0293-2.1191l-0.00976-1.5509v-2.6895c0.66-0.05 1.2899-0.08008 1.9199-0.08008 1.66-1e-6 2.6304 0.08023 2.9004 0.24023 0.27 0.16 0.41016 0.59102 0.41016 1.291v0.63867h0.74023c-0.05-0.95-0.0801-1.769-0.0801-2.459 1e-5 -0.65 0.0301-1.5406 0.0801-2.6406h-0.74023v0.71094c0 0.62-0.11961 0.99914-0.34961 1.1191s-1.2209 0.17969-2.9609 0.17969c-0.56 0-1.1999-0.03008-1.9199-0.08008v-2.2188l0.01-1.6719c0.02-0.69 0.0295-1.3686 0.0195-2.0586 1.1-0.09 2.1504-0.13086 3.1504-0.13086 1.26 0 2.3197 0.16047 3.1797 0.48047 0.08 0.54 0.12109 1.2098 0.12109 2.0098h0.75c0.03-1.39 0.17898-2.5206 0.45898-3.3906-0.69-0.06-1.3786-0.09008-2.0586-0.08008l-2 0.01172-4.2109 0.05859c-0.34 0-0.83047-0.0091-1.4805-0.03906l-1.1602-0.04102zm-149.43 0.0098c0.09 0.99 0.13086 1.7415 0.13086 2.2715l-0.0215 1.3086h0.6914l0.14844-1.4688c0.06-0.57 0.18133-0.90047 0.36133-0.98047 0.19-0.09 1.1805-0.13086 2.9805-0.13086h1.1191c0.06 1.03 0.0801 2.1604 0.0801 3.4004v6.2598c0 1.35-0.0394 2.4505-0.10938 3.3105-0.03 0.37-0.12148 0.62-0.27148 0.75-0.14 0.13-0.45946 0.18945-0.93946 0.18945h-0.91992v0.69141c1.27-0.05 2.3595-0.08008 3.2695-0.08008a88.43 88.43 0 0 1 3.291 0.08008v-0.69141h-0.82031c-0.72 0-1.13-0.11938-1.25-0.35938-0.12-0.23-0.17969-1.5098-0.17969-3.8398v-6.25c0-1.2166 0.0396-2.3638 0.11914-3.4609h0.84961c1.02 0 1.9402 0.0318 2.7402 0.0918 0.28 0.02 0.46102 0.07992 0.54102 0.16992 0.08 0.09 0.14945 0.37891 0.18945 0.87891l0.10938 1.4395h0.6914c0.02-1.15 0.10024-2.3401 0.24024-3.5801l-6.0703 0.08008c-0.69998 0-3.0207-0.03008-6.9707-0.08008zm104.4 0c0.09 0.99 0.12891 1.7415 0.12891 2.2715l-0.0195 1.3086h0.68945l0.15039-1.4688c0.06-0.57 0.18133-0.90047 0.36133-0.98047 0.19-0.09 1.1785-0.13086 2.9785-0.13086h1.1211c0.06 1.03 0.0801 2.1604 0.0801 3.4004v6.2598c0 1.35-0.0413 2.4505-0.11133 3.3105-0.03 0.37-0.11953 0.62-0.26953 0.75-0.14 0.13-0.45946 0.18945-0.93946 0.18945h-0.91992v0.69141c1.27-0.05 2.3595-0.08008 3.2695-0.08008a88.43 88.43 0 0 1 3.291 0.08008v-0.69141h-0.82031c-0.72 0-1.13-0.11938-1.25-0.35938-0.12-0.23-0.17969-1.5098-0.17969-3.8398v-6.25c0-1.2166 0.0396-2.3638 0.11914-3.4609h0.84961c1.02 0 1.9402 0.0318 2.7402 0.0918 0.28 0.02 0.46102 0.07992 0.54102 0.16992 0.08 0.09 0.14945 0.37891 0.18945 0.87891l0.10938 1.4395h0.68945c0.02-1.15 0.10024-2.3401 0.24024-3.5801l-6.0703 0.08008c-0.7 0-3.0188-0.03008-6.9688-0.08008zm30.061 0c0.09 0.99 0.12891 1.7415 0.12891 2.2715l-0.0195 1.3086h0.68946l0.15039-1.4688c0.06-0.57 0.17937-0.90047 0.35937-0.98047 0.19-0.09 1.1805-0.13086 2.9805-0.13086h1.1191c0.06 1.03 0.0801 2.1604 0.0801 3.4004v6.2598c0 1.35-0.0394 2.4505-0.10937 3.3105-0.03 0.37-0.11954 0.62-0.26954 0.75-0.14 0.13-0.45945 0.18945-0.93945 0.18945h-0.91992v0.69141c1.27-0.05 2.3595-0.08008 3.2695-0.08008a88.43 88.43 0 0 1 3.2891 0.08008v-0.69141h-0.82031c-0.72 0-1.13-0.11938-1.25-0.35938-0.12-0.23-0.17969-1.5098-0.17969-3.8398v-6.25c0-1.2166 0.0415-2.3638 0.1211-3.4609h0.84961c1.02 0 1.9402 0.0318 2.7402 0.0918 0.28 0.02 0.45906 0.07992 0.53906 0.16992 0.08 0.09 0.15141 0.37891 0.19141 0.87891l0.10937 1.4395h0.68946c0.02-1.15 0.10023-2.3401 0.24023-3.5801l-6.0703 0.08008c-0.7 0-3.0188-0.03008-6.9688-0.08008zm-159.4 0.72059c1.28 0 2.3901 0.27008 3.3301 0.83008 0.93 0.55 1.669 1.3805 2.209 2.4805s0.81055 2.4305 0.81055 3.9805c0 1.48-0.25047 2.7198-0.73047 3.7598s-1.15 1.8101-2 2.3301c-0.85 0.52-1.8405 0.7793-2.9805 0.7793-1.22 0-2.3098-0.30992-3.2598-0.91992-0.95-0.61-1.7093-1.53-2.2793-2.75-0.57-1.23-0.84961-2.6703-0.84961-4.3203 0-1.24 0.23875-2.3395 0.71875-3.2695 0.48-0.95 1.15-1.6702 2-2.1602 0.85-0.49 1.8613-0.74023 3.0312-0.74023zm-56.861 0.76953c-0.1 0-0.61992 0.07156-0.91992 0.10156-1.71 0.16-3.4691 0.55-5.1191 1.25l7.4297 2.1094v3.3691c-0.53 0.3-1.0205 0.61961-1.4805 0.84961-0.06 0.03-1.5501 0.55078-1.8301 0.55078h-1.4395c-0.77 0-3.8198-1.65-4.0098-1.75-0.46 2.14-1.2208 4.4301-3.5508 6.5801 0.71-0.09 1.7001 0.58914 2.0801 1.3691 0.29 0.59 0.35164 1.3605 0.43164 1.9805 0.09 0.68 0.04 1.0201 0 1.3301l-0.19141 2.4609c0 0.38 0.15 0.69883 0.25 1.0488 0.46 1.55 2.3795 2.3398 3.5195 2.3398 0.1 0 0.46188 0.03117 0.67188-0.04883 1.27-0.53 2.5095-1.2613 3.7695-1.3613 0.53-0.04 0.69883-0.03906 0.79883-0.03906 1.68 0 2.1716 1.2207 3.8516 1.2207 1.17 0 2.6484-0.91992 2.6484-2.4199l-0.26953-2.1699v-2.5508c0-0.58 0.4407-2.3495 0.4707-2.4395 0.15-0.42 0.51875-0.98977 0.96875-1.2598 0.15-0.09 0.29992-0.18047 0.41992-0.23047 0.23-0.1 0.45039-0.13969 0.65039-0.17969 0-0.05 0.04102-0.09164 0.04102-0.18164 0.01-0.11-0.29133-0.55813-0.36133-0.82812-0.17-0.64-0.28961-1.2914-0.34961-1.9414-0.08-0.76-0.01-1.1405 0-1.4805 0.06-1.26 0.07961-1.5999 0.09961-1.9199-1.28 1.05-2.5193 1.9805-3.7793 1.9805-0.1 0-0.54078-0.0098-0.80078-0.08984-0.5-0.15-0.98875-0.4493-1.4688-0.7793-0.01-0.07-0.0098-0.10117-0.0098-0.20117s0.18953-2.0386 0.26953-3.0586c1.66-0.83 3.3402-1.6302 4.9902-2.4102-0.97-0.32-1.9101-0.64961-2.8301-0.84961-0.82-0.18-2.4705-0.35156-2.5605-0.35156zm130.85 1.3613 2.7598 6.5898h-5.5312zm76.51 0 2.7598 6.5898h-5.5293zm-222.81 1.6523c-0.16875-0.0012-0.39188 0.0073-0.79688 0.02734l-0.5 2.4004 3.5215-0.26172 2.7188-0.08984c-0.42-0.52-0.81992-1.1297-1.4199-1.4297-0.94-0.47-2.0888-0.51914-3.0488-0.61914-0.19-0.015-0.30586-0.02609-0.47461-0.02734zm-3.5059 0.1875c-3.21 0.66-7.6797 1.1198-10.93 3.5898 0 0-0.38984 2.799-0.33984 3.709 3.61-2.81 8.5299-4.2295 9.6699-4.5195 0.36-0.93 1.0096-1.8893 1.5996-2.7793zm-10.98 0.33984-6.4297 3.2988c1.93-0.41 3.8302-0.86883 5.7402-1.2988 0.04-0.03 0.07031-0.07031 0.07031-0.07031 0.21-0.65 0.43914-1.2997 0.61914-1.9297zm42.83 0.15039c-0.09 0-0.82 0.03961-1.25 0.09961-0.24 0.49-0.51024 0.98898-0.74024 1.459l3 1.0098c-0.07-0.1 0.0098-0.13875 0.0098-0.21875 0.04-0.65 0.08008-1.0113 0.08008-1.1113s-0.03914-0.80922-0.11914-1.1992c-0.31-0.04-0.88047-0.03906-0.98047-0.03906zm2.2012 0.28906c0.14 1 0.28992 2.1411 0.41992 3.1211 1.28 0.35 3.2899 1.2895 6.1699 3.6895l0.22852-2.7812c0-0.11-2.8488-2.3301-3.2988-2.5801l-1.2812-0.71875c-0.36-0.16-0.74906-0.30086-1.0391-0.38086-0.35-0.1-0.71922-0.23961-1.1992-0.34961zm-25.111 2.041-3.6699 0.06836c-1.69 0.17-2.2396 0.18133-3.3496 0.36133-0.01 0.04-0.05078 0.08008-0.05078 0.08008l0.12109 2.6094c2.07-0.66 4.2898-1.2102 6.3398-1.4102 0.49-0.05 0.67961-0.03974 0.84961-0.0098 0.31-0.95-0.23024-1.6992-0.24024-1.6992zm20.531 0.06836c-0.23 0.5-0.22008 1.1604-0.33008 1.6504l-0.03125 1.1211c0.92 0.27 1.9899 0.64946 2.9199 1.1895 0.39-0.88 0.51024-1.9305 0.74024-2.8105zm12.299 1.4512c-0.05 0.32-0.12016 0.66047-0.16016 0.98047l4.0312 3.1699zm-43.799 0.29883c-0.55 0.23-0.95141 0.37008-1.4414 0.58008-1.55 0.66-3.2104 1.7214-4.6504 2.9414-0.73 0.62-1.4488 1.3488-2.0488 2.0488-0.3 0.35-0.84961 1.0799-0.84961 1.1699 0 0.85 0.64031 3.8198 0.82031 4.5098 1.76-3.31 6.5893-7.2897 8.0293-8.4297-0.01-0.48-0.04974-0.8493-0.0098-1.2793 0.05-0.53 0.07039-0.99102 0.15039-1.541zm28.398 0.23047c0.13 0 0.36133 0.06094 0.36133 0.46094 0 1.25-2.3699 5.4199-2.6699 5.4199h-0.04102l-0.0293-0.03125c-0.03-0.04-0.03117-0.09883 0.04883-0.29883 0.79001-2.01 0.70024-3.0005 0.49024-3.4805a0.798 0.798 0 0 0-0.29883-0.38086l-1.0898 1.0508h-0.02148l-5.4199 0.38086-2.0898-0.66992c-0.16 0.32-1.0397 2.1389-0.42969 3.6289 0.13 0.31 0.10985 0.37992 0.08984 0.41992-0.02 0.02-0.04031 0.04102-0.07031 0.04102-0.05 0-0.09898-0.02992-0.20898-0.16992-0.58-0.72-2.2398-3.7916-1.8398-5.6816l0.0098-0.04883 0.07031-0.0098c0.2 0 1.8793 0.86031 2.2793 1.0703 0.4-0.1 4.681-1.1405 5.791-1.0605 1.04 0.07 2.27 0.57969 2.5 0.67969 0.2-0.15 1.3196-0.9593 2.3496-1.2793 0.08-0.02 0.14875-0.04102 0.21875-0.04102zm7.9902 0.10937c0.02 0.02 0 0.07133 0 0.11133-0.26 2.05-0.13 1.9598-0.25 2.8398 0.87 0.35 2.6198 1.4307 5.5898 4.7207l0.52148-2.7617c-1.34-2.47-3.9313-4.1202-5.8613-4.9102zm-25.299 0.43164c-0.2 0.03-0.28109-9.34e-4 -0.62109 0.03906-1.41 0.13-2.9005 0.49031-4.3105 0.82031-0.45 0.11-0.92984 0.24914-1.3398 0.36914-0.21 0.06-0.73828 0.11016-0.73828 0.41016 0 0.1 0.10867 0.64141 0.13867 0.94141 0.24 2.57 1.7995 5.3495 3.7695 7.9395l2-2.9004c-0.68-1.08-1.6488-2.3692-2.5488-3.4492 0.18-0.1 0.40961-0.27133 0.59961-0.36133 1.43-0.66 2.7908-2.5886 3.0508-3.8086zm20.129 1.25v0.28906c0 0.27 0.30992 2.0894 0.41992 2.3594l-1.9102 2.8008 1.2012 1.5996 1.4297-2.75c0.37-0.9 0.96914-1.84 1.1191-2.75 0.02-0.16 0.14062-0.32969 0.14062-0.42969v-0.16016c-0.16-0.08-2.0195-0.95898-2.2695-0.95898zm-41.24 1.9492-6 5.4004c1.74-0.98 3.4609-1.9409 5.1309-2.8809 0.34-0.19 0.68047-0.38859 0.98047-0.55859 0.02-0.07 0.01953-0.09141 0.01953-0.19141zm53.41 0.07031c0.03 0.13-0.21 1.2503-0.25 1.3203-0.01 0.02 2.33 1.9985 3.5 2.9785zm-7.4395 0.64062-0.65039 2.3496c0.55 0.44 1.2398 1.1691 2.0898 2.3691 0.47 0.61 0.91055 1.3013 1.3105 2.0312 0.43 0.73 0.90063 1.5598 1.3906 2.5098l0.96875-3.3398c-1.16-2.07-2.7794-4.3799-5.1094-5.9199zm-35.83 0.76953c-1.53 1.49-3.0098 2.9888-4.0898 4.4688-0.95 1.3-1.8194 2.751-2.3594 4.041-0.13 0.3-0.43164 1.0096-0.43164 1.0996 0 0.23 1.1717 2.4498 1.7617 3.5098 1.65-3.5 4.9091-7.9705 6.0391-9.4805zm16.939 3.3496 1.5801 2.8906 2.9805-0.45117h0.01953l2.6797 0.55078 1.5312-2.75 0.12891 0.03906-0.61914 4.5801-1.5703-0.5293-1.9492-0.33008-2.5898 0.31055-2.0117 0.45898-0.0098-0.08008-0.29883-4.6504zm17.801 0.0098-1.4805 3.7207c0.39 0.62 0.74008 1.0389 1.0801 1.6289 0.04 0.06 0.87086 1.4602 0.88086 1.4902 1.04 2.05 1.3901 2.9007 1.8301 4.9707 0.75-1.15 1.53-2.3402 1.75-3.4102l-0.20117-1.3711c-0.53-2.38-2.4194-4.6893-3.8594-7.0293zm-5.8008 0.07031c-0.31 0.82-0.50977 1.6097-0.50976 2.4297v1.2109l0.31055 2.3984c0.04 0.65 0.03974 0.8307 0.0098 0.9707-0.21-0.15-0.44039-0.26891-0.65039-0.37891l0.75 3.5195c0 0.04-0.0293 0.05859-0.0293 0.05859-0.29-0.04-0.79063-0.14844-0.89062-0.14844-0.29 0-1.3805 1.2594-1.4805 1.3594-0.41 0.39-0.83875 0.7493-1.2188 1.0293-0.97 0.72-2.0297 1.2508-2.9297 1.5508-0.59 0.19-1.4208 0.41016-2.0508 0.41016-2.74 0-5.4091-1.5093-7.5391-5.0293l-0.98047 0.5293c-0.01 0-0.03125-0.0293-0.03125-0.0293l0.37109-2.6816c-0.29 0.23-0.55078 0.46039-0.80078 0.65039l-0.0293-2.6504c-0.11-1.3-0.28078-2.5884-0.55078-3.8984-0.93 1.98-1.5788 3.9999-2.2188 5.9199-0.31 0.94-0.91094 2.7288-0.96094 2.9688v0.03125c0 0.1 1.5102 1.6197 2.2402 2.4297 0.79 0.89 1.5405 1.8302 2.3105 2.7402 0.29 0.34 0.60867 0.71836 0.88867 1.0684 0.33 0.41 0.68023 0.84172 0.99023 1.2617 1.39 1.85 2.8505 3.92 4.0605 5.75 0.77 1.15 1.4596 2.3084 2.0996 3.3984 5.28-5.8 9.38-11.589 11.25-17.389 0.18-0.56 0.27109-1.1898 0.37109-1.7598 0.089944-0.50005 0.25974-1.4508 0.25974-1.5508-0.01-0.04-0.02078-0.10945-0.05078-0.18945-0.27-0.9-1.8604-4.0696-2.1504-4.5996-0.25-0.46-0.46984-0.92086-0.83984-1.3809zm13.221 0.88086-0.32031 1.5391 3.2305 4.0195zm114.66 2.5684c-1.82 0-3.2512 0.45133-4.2812 1.3613s-1.5488 2.07-1.5488 3.5c0 0.84 0.16977 1.5394 0.50977 2.1094 0.33 0.57 0.80064 0.99 1.3906 1.25 0.59 0.26 1.7192 0.45984 3.3692 0.58984 1.25 0.1 2.1005 0.24922 2.5605 0.44922 0.46 0.2 0.81033 0.50016 1.0703 0.91016 0.25 0.41 0.37891 0.90024 0.37891 1.4902 0 1-0.37891 1.8305-1.1289 2.4805-0.74998 0.65-1.8212 0.98047-3.2012 0.98047-0.65 0-1.2488-0.08047-1.7988-0.23047-0.55998-0.15-1.0414-0.37039-1.4414-0.65039-0.27-0.19-0.44953-0.36906-0.51953-0.53906s-0.10938-0.61031-0.10938-1.3203v-0.55078h-0.74023c0 1.38-0.0595 2.5009-0.18946 3.3809 0.73 0.28 1.4502 0.48891 2.1602 0.62891 0.71 0.14 1.4191 0.21094 2.1191 0.21094 2.04 0 3.6802-0.52985 4.9102-1.5898s1.8398-2.3308 1.8398-3.8008c0-0.73-0.16047-1.3704-0.48047-1.9004-0.32-0.53-0.73953-0.9182-1.2695-1.1582-0.53-0.24-1.5408-0.43008-3.0508-0.58008-1.51-0.14-2.499-0.30023-2.959-0.49023-0.47-0.19-0.83938-0.49016-1.1094-0.91016-0.27-0.42-0.41016-0.92977-0.41016-1.5098 0-0.93 0.33002-1.6913 1-2.2812 0.67-0.59 1.5898-0.88867 2.7598-0.88867 0.72 0 1.3988 0.11961 2.0488 0.34961 0.65 0.23 1.0512 0.45039 1.2012 0.65039s0.23047 0.59016 0.23047 1.1602v0.87891h0.75976c0.01-1.26 0.13008-2.2693 0.33008-3.0293-0.74-0.32-1.4712-0.56094-2.2012-0.71094-0.74-0.16-1.4692-0.24023-2.1992-0.24023zm32.449 0.07031-0.86914 0.17969c-0.88 0.17-1.4695 0.29156-1.7695 0.35156v0.68945c0.53 0 0.90891 0.05039 1.1289 0.15039 0.22 0.11 0.47929 0.31867 0.77929 0.63867 0.55 0.58 1.2215 1.5115 2.0215 2.7715 0.8 1.26 1.6694 2.7583 2.6094 4.4883 0.03 0.71 0.0508 1.3609 0.0508 1.9609 0 2.05-0.0714 3.199-0.1914 3.459-0.13 0.25-0.49891 0.38086-1.1289 0.38086h-0.93945v0.68945l3.539-0.080108a82.94 82.94 0 0 1 2.9902 0.08008v-0.68945l-0.83007-0.08984c-0.65-0.05-1.0209-0.13094-1.1309-0.21094s-0.18852-0.33-0.22852-0.75c-0.07-0.77-0.10156-1.8187-0.10156-3.1387 0-0.99 0.0409-1.6096 0.13086-1.8496 0.26-0.68 1.0401-2.0406 2.3301-4.0605 1.29-2.02 2.3893-3.541 3.2793-4.541v-0.26953h-1.6992l-2.5098 4.3711c-0.97 1.66-1.6711 2.8398-2.1211 3.5098-1.34-2.53-2.2896-4.2709-2.8496-5.2109-0.76-1.23-1.3097-2.0194-1.6797-2.3594-0.2-0.19-0.47055-0.3507-0.81055-0.4707zm-197.74 0.060517-3.9785 6.0898 4.709-4.4297zm10.92 0c-2.04 2.66-3.2195 5.5599-4.2695 8.1699-0.27 0.67-0.66016 1.9293-0.66016 2.0293 0 0.38 3.3105 4.7009 4.3105 5.6309 0.76-3.63 1.8091-6.8702 2.7891-10.41 0.1-0.39 0.29141-0.8707 0.44141-1.2207zm140.26 0.07031c-0.46 0-1.2215 0.0088-2.2715 0.04883-0.9 0.03-1.6001 0.05078-2.0801 0.05078-0.72 0-1.7592-0.03008-3.1192-0.08008v0.67969h0.58985c0.74 0 1.1803 0.14016 1.3203 0.41016 0.13 0.27 0.19922 1.5406 0.19922 3.8105v5.2793c0 2.61-0.0597 4.0601-0.17969 4.3301-0.12 0.27-0.48914 0.41016-1.1191 0.41016h-0.82031v0.68945c1.64-0.05 2.7802-0.08008 3.4102-0.08008 0.8 0 1.8095 0.03008 3.0195 0.08008v-0.68945h-0.85938c-0.68 0-1.0909-0.13992-1.2109-0.41992-0.13-0.28-0.18945-1.7091-0.18945-4.2891v-5.3008a48.58 48.58 0 0 1 0.12891-3.7305c0.77-0.29 1.5405-0.42969 2.3105-0.42969 1.1 0 1.9393 0.27078 2.5293 0.80078 0.59 0.53 0.88086 1.269 0.88086 2.209 0 1.05-0.34906 1.8895-1.0391 2.5195s-1.6511 0.94141-2.8711 0.94141c-0.2 0-0.51945-0.01078-0.93945-0.05078l-0.11133 0.36914c0.82 0.92 1.6003 1.8601 2.3203 2.8301l3.8808 5.2402c0.46-0.05 0.90032-0.08008 1.3203-0.08008 0.45 0 0.97984 0.03008 1.5898 0.08008v-0.68945h-0.29101c-0.13 0-0.25891-0.02961-0.37891-0.09961-0.13-0.06-0.38-0.33078-0.75-0.80078l-2.1113-2.7305c-1.07-1.37-1.9499-2.5696-2.6699-3.5996 1.41-0.29 2.4912-0.82938 3.2812-1.6094 0.74-0.79 1.1094-1.7005 1.1094-2.7305 0-0.7-0.16976-1.3005-0.50976-1.8105-0.34-0.51-0.84024-0.8882-1.4902-1.1582-0.65-0.27-1.6189-0.40039-2.8789-0.40039zm-85.9 0.019534v0.67969h0.76953c0.65-1e-6 1.0402 0.12109 1.1602 0.37109s0.17969 1.4088 0.17969 3.4688v3.3496l-0.01953 2.0801c0 1.4 0.09906 2.3907 0.28906 2.9707 0.19 0.59 0.50141 1.0805 0.94141 1.4805 0.44 0.4 1.0892 0.73977 1.9492 1.0098 0.87 0.27 1.8695 0.41016 3.0195 0.41016 1.11 0 2.0804-0.15094 2.9004-0.46094s1.4807-0.72 1.9707-1.25c0.49-0.53 0.82953-1.1195 1.0195-1.7695 0.19-0.65 0.2793-1.9208 0.2793-3.8008v-4.1094c0-1.87 0.08-2.9595 0.25-3.2695 0.17-0.31 0.5411-0.4707 1.1211-0.4707h0.75v-0.68945c-0.98 0.05-1.8105 0.08008-2.4805 0.08008-0.41 0-1.3706-0.03008-2.8906-0.08008v0.68945h0.57031c0.78 0 1.2499 0.14016 1.4199 0.41016 0.17 0.28 0.25976 1.371 0.25976 3.291v4.1387c0 1.85-0.14016 3.1115-0.41016 3.7715-0.27 0.66-0.6893 1.149-1.2793 1.459-0.85 0.45-1.8909 0.67969-3.1309 0.67969-1.2 0-2.1491-0.21867-2.8691-0.63867-0.71-0.43-1.1601-0.95055-1.3301-1.5605-0.17-0.61-0.25977-1.7093-0.25977-3.2793v-4.3008c0-2.12 0.06898-3.3201 0.20898-3.5801 0.14-0.26 0.55024-0.39062 1.2402-0.39062h0.80078v-0.68945c-1.39 0.05-2.4402 0.08008-3.1602 0.08008-0.68 0-1.7695-0.03008-3.2695-0.08008zm18.529 0v0.68945h0.67969c0.34 0 0.61078 0.07141 0.80078 0.19141 0.19 0.12 0.32969 0.25992 0.42969 0.41992s0.15992 0.44914 0.16992 0.86914c0.02 1 0.0293 2.021 0.0293 3.041v5.4492c0 1.38-0.03914 2.4793-0.11914 3.2793-0.03 0.39-0.11953 0.65125-0.26953 0.78125-0.14 0.13-0.45969 0.19922-0.92969 0.19922h-0.79102v0.68945c1.61-0.05 2.6301-0.08008 3.0801-0.08008 0.64 0 1.3602 0.03008 2.1602 0.08008v-0.68945l-0.71094-0.06055c-0.58-0.05-0.92882-0.14-1.0488-0.25-0.12-0.11-0.20976-0.42922-0.25976-0.94922-0.07-0.68-0.09961-1.8794-0.09961-3.6094v-7.5801l7.8984 9.7285c0.89998 1.1 1.7505 2.1 2.5605 3 0.14 0.17 0.30094 0.28156 0.46094 0.35156s0.72852 0.18984 1.7285 0.33984c-0.12-1.85-0.17969-3.4415-0.17969-4.7715v-4.9492c0-2.9 0.0296-4.5008 0.0996-4.8008 0.1-0.45 0.48992-0.67969 1.1699-0.67969h0.83984v-0.68945c-1.07 0.05-1.9489 0.08008-2.6289 0.08008-0.65 0-1.5602-0.03008-2.7402-0.08008v0.68945l0.82031 0.08008c0.74 0.07 1.1595 0.24953 1.2695 0.51953 0.11 0.27 0.16015 1.8801 0.16015 4.8301v7.041c-0.6-0.64-1.5797-1.7895-2.9297-3.4395l-3.75-4.6113c-0.68998-0.85-1.3502-1.6893-1.9902-2.5293-0.64-0.83-1.3308-1.7001-2.0508-2.5801-0.63 0.05-1.1985 0.08008-1.7285 0.08008-0.49 0-1.2009-0.03008-2.1309-0.08008zm19.711 0v0.68945h0.88867c0.58 0 0.93078 0.15117 1.0508 0.45117s0.17969 1.9098 0.17969 4.8398v3.7188c0 2.83-0.0592 4.4005-0.19922 4.7305-0.13 0.33-0.5407 0.49023-1.2207 0.49023h-0.69945v0.67969c0.99-0.05 2.1096-0.08008 3.3496-0.08008 1.06 0 2.0394 0.03008 2.9394 0.08008v-0.68945h-0.73046c-0.67 0-1.0692-0.13969-1.1992-0.42969-0.13-0.29-0.18946-1.8612-0.18946-4.7012v-3.7793c0-2 0.0186-3.3997 0.0586-4.1797 0.02-0.5 0.10047-0.81945 0.23047-0.93945 0.13-0.13 0.46046-0.19141 0.98046-0.19141h0.84961v-0.68945c-0.8 0.05-1.6994 0.08008-2.6894 0.08008-1.18 0-2.3796-0.03008-3.5996-0.08008zm8.1992 0v0.67969h0.44922c0.53 0 0.84142 0.07117 0.9414 0.20117 0.1 0.14 0.43024 0.91008 0.99024 2.3301l3.9297 9.8184c0.34 0.85 0.67976 1.77 1.0098 2.75v0.0098h1.1191c0.29-1.02 0.78047-2.3684 1.4805-4.0684l3.6992-9.0312c0.41-1 0.69156-1.59 0.85156-1.75 0.16-0.17 0.40977-0.25 0.75977-0.25h0.43945v-0.68949c-0.99 0.05-1.8107 0.08008-2.4707 0.08008-0.63 0-1.4284-0.03008-2.3984-0.08008v0.68945l0.93945 0.09961 0.44922 0.03125c0.4 0.01 0.59961 0.18953 0.59961 0.51953 0 0.41-0.47922 1.83-1.4492 4.25l-2.9004 7.2598-2.9785-7.6094-1.4219-3.791c-0.03-0.12-0.0488-0.21836-0.0488-0.31836 0-0.15 0.0502-0.26008 0.16016-0.33008 0.11-0.07 0.34875-0.11133 0.71875-0.11133h1.0801v-0.68945c-1.18 0.05-2.1991 0.08008-3.0391 0.08008-0.79 0-1.7702-0.03008-2.9102-0.08008zm17.551 0v0.69922l0.83984 0.08984c0.52 0.06 0.83946 0.11164 0.93946 0.18164a0.656 0.656 0 0 1 0.24023 0.2793c0.05 0.12 0.10039 0.48914 0.15039 1.1191 0.05 0.62 0.0684 1.4299 0.0684 2.4199v6.0215c0 1.57-0.0181 2.5888-0.0781 3.0488s-0.17008 0.76086-0.33008 0.88086c-0.16 0.13-0.56117 0.18945-1.2012 0.18945h-0.33985v0.68945c1.42-0.05 2.5502-0.08008 3.4102-0.08008 0.89 1e-6 2.2895 0.03008 4.1894 0.08008l1.7207 0.03125c0.81 0 1.6405-0.04133 2.4805-0.11133l-0.0215-0.5c0-0.53 0.10078-1.599 0.30078-3.209h-0.7207c-0.19 0.96-0.3786 1.7702-0.5586 2.4102-0.39998 0.14-0.78062 0.2393-1.1406 0.2793-0.56 0.07-1.2503 0.11133-2.0703 0.11133-1.22 0-2.3695-0.04109-3.4395-0.12109-0.02-0.45-0.0293-1.1491-0.0293-2.1191l-0.0117-1.5508v-2.6895c0.66-0.05 1.2902-0.08008 1.9102-0.08008 1.66 0 2.6304 0.08024 2.9004 0.24024 0.27 0.16 0.41015 0.58906 0.41015 1.2891v0.66016h0.74024c-0.05-0.95-0.0801-1.769-0.0801-2.459 0-0.65 0.0301-1.5406 0.0801-2.6406h-0.74024v0.70898c0 0.62-0.11961 1.0011-0.34961 1.1211s-1.221 0.17969-2.9609 0.17969c-0.56 0-1.1999-0.03008-1.9199-0.08008v-2.2207l0.0215-1.6895c0.02-0.69 0.0295-1.3705 0.0195-2.0605 1.1-0.09 2.1504-0.12891 3.1504-0.12891 1.26 0 2.3197 0.16047 3.1797 0.48047 0.08 0.54 0.11914 1.2098 0.11914 2.0098h0.75c0.03-1.39 0.18095-2.5206 0.46093-3.3906-0.68998-0.06-1.3805-0.09008-2.0605-0.08008l-2 0.0098-4.2109 0.06055c-0.34 0-0.82852-0.01102-1.4785-0.04102l-1.1602-0.039091zm42.818 0v0.68945h0.89063c0.58 0 0.93078 0.15117 1.0508 0.45117s0.17968 1.9098 0.17968 4.8398v3.7188c0 2.83-0.0712 4.4005-0.20117 4.7305-0.13 0.33-0.53875 0.49023-1.2188 0.49023h-0.70115v0.67969c0.99-0.05 2.1116-0.08008 3.3516-0.08008 1.06 0 2.0395 0.03008 2.9395 0.08008v-0.68945h-0.73047c-0.67 0-1.0692-0.13969-1.1992-0.42969-0.13-0.29-0.19141-1.8612-0.19141-4.7012v-3.7793c0-2 0.0204-3.3997 0.0606-4.1797 0.02-0.5 0.10047-0.81945 0.23047-0.93945 0.13-0.13 0.46047-0.19141 0.98047-0.19141h0.84961v-0.68945c-0.8 0.05-1.6995 0.08008-2.6895 0.08008-1.18 0-2.3816-0.03008-3.6016-0.08008zm8.2402 0c0.09 0.99 0.13085 1.7395 0.13085 2.2695l-0.0195 1.3105h0.68946l0.15039-1.4707c0.06-0.57 0.17937-0.89852 0.35937-0.97852 0.19-0.09 1.1805-0.13086 2.9805-0.13086h1.1191c0.06 1.03 0.0801 2.1604 0.0801 3.4004v6.2695c0 1.35-0.0394 2.4505-0.10938 3.3105-0.03 0.37-0.11953 0.62-0.26953 0.75-0.14 0.13-0.4614 0.18945-0.9414 0.18945h-0.91992v0.68945c1.27-0.05 2.3615-0.08008 3.2715-0.08008a88.43 88.43 0 0 1 3.2891 0.08008v-0.68945h-0.82031c-0.72 0-1.13-0.11938-1.25-0.35938-0.12-0.23-0.17969-1.5098-0.17969-3.8398v-6.25c0-1.22 0.0391-2.3707 0.11914-3.4707h0.85156c1.02 0 1.9402 0.02984 2.7402 0.08984 0.28 0.02 0.45906 0.07992 0.53906 0.16992 0.08 0.09 0.14946 0.38086 0.18946 0.88086l0.11132 1.4395h0.68946c0.02-1.15 0.10023-2.3401 0.24023-3.5801l-6.0703 0.08008c-0.7 0-3.0207-0.03008-6.9707-0.08008zm-131.41 2.8105-0.56836 1.3203 2.7891 4.3496zm-19.279 0.67969c-1.48 0-3.1394 0.53969-4.6094 0.92969-0.04 0.03-0.11016 0.09938-0.16016 0.10938 0.15 0.68 1.4794 1.3613 2.1094 1.3613 0.61 0 1.5007-1.3711 3.2207-1.3711 1.32 0 2.7588 0.74961 4.2188 1.0996 0.01-0.06 0.05078-0.06992 0.05078-0.16992 0-0.09-0.34914-0.70891-0.61914-0.87891-1.04-0.64-2.261-0.98102-3.291-1.041-0.58-0.04-0.81992-0.03906-0.91992-0.03906zm-29.34 0.82031-1.9609 3.4785c0.04 0.12 0.02078 0.24055 0.05078 0.31055 0.31 0.65 0.61922 1.2995 0.94922 1.9395l5.4512 11.881c13.32 7.57 19.799 7.0896 19.799 7.0996-1.58-0.84-6.2589-3.0104-9.3789-5.6504-0.42-0.35-0.8707-0.67-1.2207-1-2.94-2.82-5.75-5.8888-7.75-8.7188-0.95-1.35-1.8793-2.68-2.7793-4-1.21-1.78-2.1802-3.6098-3.1602-5.3398zm41.939 1.9902-1.4297 3.8789 0.23047 2.291c0 0.1 0.01047 0.07937-0.01953 0.10938l-1.0312-0.5293-0.65039 3.7285-1.1387-1.0293c-2.61 4.22-6.2702 8.4906-10.16 12.641h-0.01953c-1.71-3.67-4.1906-7.411-6.8906-11.041l-1.7305 2.0605-0.20898-3.6992-1.6016 1.9395-0.28906-4.9512-2.0703-2.3789c-0.28 1-0.73992 1.9995-0.91992 3.0195-0.4 2.3-0.69922 6.9198-0.69922 7.0098 0 0.01 0.01883 0.04008 0.04883 0.08008 0.21 0.27 1.1206 1.1706 1.6406 1.6406 0.59 0.53 1.2591 1.0488 1.8691 1.5488 0.22 0.18 0.50047 0.4318 0.73047 0.5918 0.94 0.67 1.9504 1.3595 2.9004 1.9395 0.64 0.4 1.3002 0.74883 1.9102 1.0488 0.61 0.3 1.2591 0.61156 1.8691 0.85156 0.1 0.04 2.9409 1.0801 3.6309 1.0801 0.1 0 0.69-0.21078 1-0.30078 1.58-0.45 3.2795-1.4805 4.7695-2.7305 1.31-1.11 2.4502-2.4288 3.4902-3.7188 2.1-2.6 3.5401-5.3807 4.8301-7.9707l1.0703-2.1406c0.04-1.23-0.75086-4.2388-1.1309-4.9688zm2.6113 6.0391c-5.27 10.72-10.351 14.081-11.871 15.721 6.28-1.24 10.9-7.7815 10.9-7.7715 1.5-2.09 1.1807-8.1192 0.9707-7.9492z"/>
 </g>
</svg>