<svg id="Layer_1" data-name="Layer 1" xmlns="http://www.w3.org/2000/svg" xmlns:xlink="http://www.w3.org/1999/xlink" viewBox="0 0 151.45 36"><defs><style>.cls-1{fill:none;}.cls-2{clip-path:url(#clip-path);}.cls-3{fill:#ffda00;}.cls-4{clip-path:url(#clip-path-2);}.cls-5{fill:#c3d940;}.cls-6{fill:#c3c42f;}.cls-7{fill:#00a4c4;}.cls-8{fill:#009e54;}.cls-9{fill:#007083;}.cls-10{fill:#006c70;}.cls-11{fill:#003346;}.cls-12{fill:#002229;}.cls-13{fill:#232329;}</style><clipPath id="clip-path" transform="translate(-8.55 -4.39)"><rect class="cls-1" x="8.57" y="4.39" width="151.44" height="36"/></clipPath><clipPath id="clip-path-2" transform="translate(-8.55 -4.39)"><rect class="cls-1" x="8.56" y="4.39" width="151.45" height="36"/></clipPath></defs><g class="cls-2"><path class="cls-3" d="M58.14,17.67c-.37,1.78-5.3,23.55-25.21,13.9,2.47-22,23.5-14.54,25.21-13.9" transform="translate(-8.55 -4.39)"/></g><g class="cls-4"><path class="cls-5" d="M30.12,29.77A25,25,0,0,1,28.25,27c2.27-5.63,1.11-9.88-1.06-12.93C30.11,8,37.35,4.78,38.29,4.39c.49.8,4,6.69,3.57,12.81-3.73,1.57-7,4.89-8.43,11.3a26.31,26.31,0,0,1-3.31,1.27" transform="translate(-8.55 -4.39)"/><path class="cls-6" d="M33.43,28.5c1.41-6.41,4.7-9.73,8.43-11.3-.27,4.17-2.36,8.45-8.43,11.3" transform="translate(-8.55 -4.39)"/><path class="cls-7" d="M26.87,29.8a23.49,23.49,0,0,1-2.59-.95c-1.35-4.69-4.41-6.48-7.48-7-2.48-6.24,1.54-13.3,2-14.17A19.63,19.63,0,0,1,27.19,14c-1.63,3.4-1.91,7.71,1.06,12.93a21.73,21.73,0,0,1-1.38,2.85" transform="translate(-8.55 -4.39)"/></g><g class="cls-2"><path class="cls-8" d="M28.25,27c-3-5.23-2.69-9.53-1.06-12.93,2.17,3.05,3.33,7.3,1.06,12.93" transform="translate(-8.55 -4.39)"/><path class="cls-9" d="M22,32.91a9.19,9.19,0,0,0-3.67-.82,7.27,7.27,0,0,0-3,.63c-5.13-2.22-6.67-9.11-6.84-9.91a19.22,19.22,0,0,1,6.14-1.1,12.65,12.65,0,0,1,2.11.16c1.05,2.66,3.29,5.17,7.48,7a19.21,19.21,0,0,1,.57,3A18.5,18.5,0,0,1,22,32.91" transform="translate(-8.55 -4.39)"/><path class="cls-10" d="M24.28,28.85c-4.19-1.81-6.43-4.32-7.48-7,3.07.5,6.13,2.29,7.48,7" transform="translate(-8.55 -4.39)"/><path class="cls-11" d="M19.17,33.4c-3.66,0-5.6,3.75-5.77,4.11a10.44,10.44,0,0,0,4.44,1.12,5.18,5.18,0,0,0,5.23-3.93,7.33,7.33,0,0,0-3.9-1.3m-2.31,7A15.53,15.53,0,0,1,10,38.48c.22-.49,1.94-4.25,5.38-5.76a8.61,8.61,0,0,0,3.39.68A11.6,11.6,0,0,0,22,32.91a14.91,14.91,0,0,1,2.49,1.37c-1.6,4.79-4.71,6.11-7.66,6.11" transform="translate(-8.55 -4.39)"/></g><g class="cls-4"><path class="cls-12" d="M18.79,33.4a8.61,8.61,0,0,1-3.39-.68,7.18,7.18,0,0,1,3-.63,9.27,9.27,0,0,1,3.68.82,11.72,11.72,0,0,1-3.25.49" transform="translate(-8.55 -4.39)"/><path class="cls-13" d="M65.89,24.08V19.29H64.38V24c0,1.13-.32,1.77-2.1,1.76a6.5,6.5,0,0,1-1.73-.25v1.42a10,10,0,0,0,1.91.17c2.27,0,3.41-.75,3.43-3" transform="translate(-8.55 -4.39)"/><path class="cls-13" d="M119.63,19.2a12.4,12.4,0,0,1,2.13.17V20.8a8,8,0,0,0-1.93-.25c-2,0-2.51.64-2.49,1.79V24c0,1.14.51,1.79,2.49,1.78a8,8,0,0,0,1.93-.25v1.43a12.4,12.4,0,0,1-2.13.17c-2.54,0-3.8-.75-3.83-3.05V22.25c0-2.3,1.29-3.05,3.83-3.05" transform="translate(-8.55 -4.39)"/><path class="cls-13" d="M119.23,33.08c-1.54,0-2.18-.51-2.19-1.76v-1c0-1.24.65-1.75,2.19-1.75a7.16,7.16,0,0,1,1.2.09h0v.93l-.08,0a4.46,4.46,0,0,0-1.06-.13h0a1.51,1.51,0,0,0-1.1.29.84.84,0,0,0-.2.63v.9a.85.85,0,0,0,.2.64,1.56,1.56,0,0,0,1.1.29h0a4,4,0,0,0,1.06-.14h.08V33h0a6.1,6.1,0,0,1-1.2.1" transform="translate(-8.55 -4.39)"/><path class="cls-13" d="M68.59,33.08c-1.54,0-2.18-.51-2.19-1.76v-1c0-1.24.65-1.75,2.19-1.75a7.25,7.25,0,0,1,1.2.09h0v.93l-.08,0a4.52,4.52,0,0,0-1.06-.13h0a1.51,1.51,0,0,0-1.1.29.84.84,0,0,0-.2.63v.9a.85.85,0,0,0,.2.64,1.56,1.56,0,0,0,1.1.29h0a4.05,4.05,0,0,0,1.06-.14h.08V33h0a6.17,6.17,0,0,1-1.2.1" transform="translate(-8.55 -4.39)"/><polygon class="cls-13" points="68.14 20.17 71.68 20.17 71.68 22.57 72.98 22.57 72.98 16.77 71.68 16.77 71.68 18.98 68.14 18.98 68.14 16.77 66.83 16.77 66.83 22.57 68.14 22.57 68.14 20.17"/><polygon class="cls-13" points="76.03 18.55 79.77 22.58 80.92 22.58 80.92 16.77 79.66 16.77 79.66 20.64 76.07 16.77 74.77 16.77 74.77 22.58 76.03 22.58 76.03 18.55"/><path class="cls-13" d="M94.09,26c-1.36,0-1.78-.5-2-.94l0-.08-1.24.39,0,.1c.12.39.71,1.68,3.22,1.68,1.82,0,2.86-.7,2.86-1.92,0-.94-.68-1.51-2.08-1.72l-1.33-.2c-1.16-.15-1.16-.4-1.16-.53,0-.43.71-.59,1.38-.59,1.39,0,1.73.49,1.86.86l0,.1,1.24-.41,0-.1c-.14-.39-.56-1.57-3.06-1.57C92,21,91,21.67,91,22.82c0,.91.75,1.52,2.11,1.7l1.34.19c.51.06,1.12.22,1.12.59S95,26,94.09,26" transform="translate(-8.55 -4.39)"/><polygon class="cls-13" points="98.84 18.58 102.58 22.6 103.74 22.6 103.74 16.79 102.48 16.79 102.48 20.66 98.89 16.79 97.59 16.79 97.59 22.6 98.84 22.6 98.84 18.58"/><polygon class="cls-13" points="139.99 22.6 141.29 22.6 141.29 17.94 143.79 17.94 143.79 16.79 137.49 16.79 137.49 17.94 139.99 17.94 139.99 22.6"/><polygon class="cls-13" points="131.36 18.58 135.1 22.6 136.25 22.6 136.25 16.79 134.99 16.79 134.99 20.66 131.4 16.79 130.1 16.79 130.1 22.6 131.36 22.6 131.36 18.58"/><polygon class="cls-13" points="147.3 22.6 148.6 22.6 148.6 20.29 151.45 16.79 149.83 16.79 147.95 19.1 146.06 16.79 144.45 16.79 147.3 20.29 147.3 22.6"/><polygon class="cls-13" points="71.12 27.16 69.92 24.3 68.66 24.3 68.66 28.59 69.59 28.59 69.59 25.9 70.73 28.59 71.51 28.59 72.65 25.9 72.65 28.59 73.57 28.59 73.57 24.3 72.34 24.3 71.12 27.16"/><polygon class="cls-13" points="77.7 27.16 76.5 24.3 75.25 24.3 75.25 28.59 76.17 28.59 76.17 25.9 77.32 28.59 78.09 28.59 79.23 25.9 79.23 28.59 80.16 28.59 80.16 24.3 78.93 24.3 77.7 27.16"/><path class="cls-13" d="M93.68,31.07c0,.58-.15,1.11-1.26,1.11s-1.26-.53-1.26-1.11V28.69h-1v2.43c0,1.28.79,2,2.27,2s2.28-.68,2.28-2V28.69h-1Z" transform="translate(-8.55 -4.39)"/><polygon class="cls-13" points="91.05 27.08 88.47 24.3 87.48 24.3 87.48 28.59 88.46 28.59 88.46 25.71 91.14 28.59 92.02 28.59 92.02 24.3 91.05 24.3 91.05 27.08"/><rect class="cls-13" x="93.6" y="24.3" width="1.01" height="4.29"/><polygon class="cls-13" points="95.82 25.2 97.64 25.2 97.64 28.59 98.65 28.59 98.65 25.2 100.48 25.2 100.48 24.3 95.82 24.3 95.82 25.2"/><polygon class="cls-13" points="103.66 25.96 102.29 24.3 101.04 24.3 103.15 26.89 103.15 28.59 104.16 28.59 104.16 26.89 106.27 24.3 105.01 24.3 103.66 25.96"/><polygon class="cls-13" points="120.34 24.3 119.33 24.3 119.33 28.59 123.29 28.59 123.29 27.67 120.34 27.67 120.34 24.3"/><polygon class="cls-13" points="125.6 24.3 124.59 24.3 124.59 28.59 128.56 28.59 128.56 27.67 125.6 27.67 125.6 24.3"/><polygon class="cls-13" points="130.71 26.83 133.18 26.83 133.18 25.93 130.71 25.93 130.71 25.2 133.57 25.2 133.57 24.3 129.7 24.3 129.7 28.59 133.64 28.59 133.64 27.69 130.71 27.69 130.71 26.83"/><polygon class="cls-13" points="141.35 26.83 143.82 26.83 143.82 25.93 141.35 25.93 141.35 25.2 144.22 25.2 144.22 24.3 140.34 24.3 140.34 28.59 144.28 28.59 144.28 27.69 141.35 27.69 141.35 26.83"/><path class="cls-13" d="M147.62,30.7h-2.11v.86h1.25v.51l-.07,0a4.52,4.52,0,0,1-1.06.13h0a1.51,1.51,0,0,1-1.1-.29.84.84,0,0,1-.2-.63v-.91a.84.84,0,0,1,.2-.63,1.51,1.51,0,0,1,1.1-.29h0a4.52,4.52,0,0,1,1.06.13l.06,0a4.3,4.3,0,0,1,.66.25v-1a7.35,7.35,0,0,0-.71-.2h0a7.13,7.13,0,0,0-1.17-.09c-1.54,0-2.18.51-2.19,1.76v1c0,1.24.65,1.75,2.19,1.75a7.25,7.25,0,0,0,1.2-.09l.05,0h0a1.85,1.85,0,0,0,.85-.38Z" transform="translate(-8.55 -4.39)"/><path class="cls-13" d="M74.41,28.62a5.64,5.64,0,0,0-1-.07,5.82,5.82,0,0,0-1,.07A1.51,1.51,0,0,0,71,30.32v1A1.49,1.49,0,0,0,72.41,33a4.73,4.73,0,0,0,1,.09,4.84,4.84,0,0,0,1-.09,1.49,1.49,0,0,0,1.37-1.69v-1a1.5,1.5,0,0,0-1.42-1.7m.44,2.65a.81.81,0,0,1-.2.64.46.46,0,0,1-.21.14h0a4.45,4.45,0,0,1-1,.14,4.36,4.36,0,0,1-1-.14h0a.6.6,0,0,1-.21-.14.81.81,0,0,1-.19-.64v-.9a.8.8,0,0,1,.19-.63.62.62,0,0,1,.21-.15h0a5,5,0,0,1,1-.13,4.28,4.28,0,0,1,1,.13h0a.51.51,0,0,1,.21.15.8.8,0,0,1,.2.63Z" transform="translate(-8.55 -4.39)"/><path class="cls-13" d="M125.06,28.62a5.82,5.82,0,0,0-1-.07,5.64,5.64,0,0,0-1,.07,1.5,1.5,0,0,0-1.42,1.7v1A1.49,1.49,0,0,0,123.05,33a4.84,4.84,0,0,0,1,.09,4.73,4.73,0,0,0,1-.09,1.49,1.49,0,0,0,1.38-1.69v-1a1.51,1.51,0,0,0-1.42-1.7m.43,2.65a.81.81,0,0,1-.19.64.6.6,0,0,1-.21.14h0a4.36,4.36,0,0,1-1,.14,4.45,4.45,0,0,1-1-.14h0a.46.46,0,0,1-.21-.14.81.81,0,0,1-.2-.64v-.9a.8.8,0,0,1,.2-.63.47.47,0,0,1,.21-.15h0a5.15,5.15,0,0,1,1-.13,4.27,4.27,0,0,1,1,.13h.06a.69.69,0,0,1,.21.15.8.8,0,0,1,.19.63Z" transform="translate(-8.55 -4.39)"/><path class="cls-13" d="M102.77,21.11a8.83,8.83,0,0,0-2.65,0,2,2,0,0,0-1.91,2.29v1.35A2,2,0,0,0,100.06,27a6.58,6.58,0,0,0,1.39.11,6.4,6.4,0,0,0,1.38-.11,2,2,0,0,0,1.85-2.28V23.4a2,2,0,0,0-1.91-2.29m.59,3.57a1.14,1.14,0,0,1-.27.86.75.75,0,0,1-.28.2h-.06a6.26,6.26,0,0,1-1.3.18,6.08,6.08,0,0,1-1.3-.18h-.07a.84.84,0,0,1-.28-.2,1.1,1.1,0,0,1-.26-.86V23.47a1.1,1.1,0,0,1,.26-.86.7.7,0,0,1,.28-.19l.07,0a6.08,6.08,0,0,1,1.3-.18,6.17,6.17,0,0,1,1.29.18l.07,0a.82.82,0,0,1,.28.19,1.14,1.14,0,0,1,.27.86Z" transform="translate(-8.55 -4.39)"/><path class="cls-13" d="M71.83,21.11a8.76,8.76,0,0,0-2.64,0,2,2,0,0,0-1.92,2.29v1.35A2,2,0,0,0,69.12,27a8.84,8.84,0,0,0,2.78,0,2,2,0,0,0,1.85-2.28V23.4a2,2,0,0,0-1.92-2.29m.59,3.57a1.14,1.14,0,0,1-.26.86.88.88,0,0,1-.29.2h-.06a4.78,4.78,0,0,1-2.6,0h-.06a.88.88,0,0,1-.29-.2,1.14,1.14,0,0,1-.26-.86V23.47a1.14,1.14,0,0,1,.26-.86.73.73,0,0,1,.29-.19l.06,0a6.17,6.17,0,0,1,1.3-.18,6,6,0,0,1,1.29.18l.07,0a.85.85,0,0,1,.29.19,1.14,1.14,0,0,1,.26.86Z" transform="translate(-8.55 -4.39)"/><path class="cls-13" d="M127.44,21.11a7.13,7.13,0,0,0-1.32-.1,7.05,7.05,0,0,0-1.32.1,2,2,0,0,0-1.92,2.29v1.35A2,2,0,0,0,124.73,27a6.58,6.58,0,0,0,1.39.11A6.4,6.4,0,0,0,127.5,27a2,2,0,0,0,1.85-2.28V23.4a2,2,0,0,0-1.91-2.29m.59,3.57a1.1,1.1,0,0,1-.27.86.75.75,0,0,1-.28.2h-.06a6.17,6.17,0,0,1-1.3.18,6.08,6.08,0,0,1-1.3-.18h-.06a.88.88,0,0,1-.29-.2,1.1,1.1,0,0,1-.26-.86V23.47a1.1,1.1,0,0,1,.26-.86.73.73,0,0,1,.29-.19l.06,0a4.75,4.75,0,0,1,2.59,0l.07,0a.73.73,0,0,1,.28.19,1.1,1.1,0,0,1,.27.86Z" transform="translate(-8.55 -4.39)"/><path class="cls-13" d="M135.93,21.15v3.53a1.1,1.1,0,0,1-.26.86.84.84,0,0,1-.28.2h-.07a6.08,6.08,0,0,1-1.3.18,6.26,6.26,0,0,1-1.3-.18h-.06a.75.75,0,0,1-.28-.2,1.14,1.14,0,0,1-.27-.86V21.15h-1.32v3.6A2,2,0,0,0,132.64,27a6.4,6.4,0,0,0,1.38.11,6.58,6.58,0,0,0,1.39-.11,2,2,0,0,0,1.85-2.28v-3.6Z" transform="translate(-8.55 -4.39)"/><path class="cls-13" d="M158.72,25.66a.81.81,0,1,1-.81.8.8.8,0,0,1,.81-.8m0,1.43a.63.63,0,0,0,0-1.26.63.63,0,0,0,0,1.26m0-.55h-.12v.37h-.16V26h.33c.22,0,.33.07.33.25a.22.22,0,0,1-.22.24l.24.38h-.18Zm0-.13c.1,0,.18,0,.18-.13s-.1-.12-.18-.12h-.16v.25Z" transform="translate(-8.55 -4.39)"/></g></svg>