<svg xmlns="http://www.w3.org/2000/svg" height="58.07" viewBox="0 0 250 58.070419" width="250"><g transform="matrix(1.25 0 0 -1.25 -258.48 523.4)"><g><path d="m275.05 416.26h-3.8186l-1.5894 0.00097h-20.959c-0.68248 0-1.3795-0.0894-2.0662-0.25868-2.4973-0.61286-4.8678-2.277-6.0562-4.5094h-0.21297c-13.078-0.10799-23.857-2.9293-29.613-11.87h-1.7888c-0.50174 0-0.98062-0.38748-1.0835-0.87777l-0.35008-1.6579c-0.13816-0.65239 0.3158-1.2694 0.97959-1.3318 0.003 0 0.3241-0.0384 0.57757-0.19841 0.15894-0.0987 0.32203-0.24308 0.21295-0.71158l-1.2029-5.7061c-1.2351-5.8141 2.2698-8.3364 5.1421-8.3696 1.473-0.0166 2.9491 0.60041 4.0783 1.8594 2.6136-2.6344 6.5309-2.3186 8.7581 0.028 0.96193-0.95257 2.1046-1.4928 3.2546-1.7348 0.081-1.4865 0.6451-2.998 1.7732-4.3733 3.855-4.7016 12.498-4.7463 16.627 1.714 0.85284 1.3338 1.4086 2.7694 1.607 4.2539 1.0679-1.1884 2.5295-1.7316 3.8436-1.7472 1.4772-0.0166 2.9575 0.60353 4.0866 1.8688 2.9087-2.8619 7.765-2.3965 9.7855 1.3494 0.0717 0.13192 0.13191 0.37604 0.13191 0.52563v1.5925c0 1.1437-1.3566 1.5717-2.0132 0.63575-0.30332-0.43215-1.5343-0.72614-1.1448 1.2912l1.6912 7.8751c0.59419 2.4838-1.3255 3.7116-2.9865 3.7116l-14.744 0.00097c-0.28565 1.1271-0.74274 2.0641-1.3244 2.8255 0.67832-0.16518 1.366-0.25139 2.0371-0.25139l18.9-0.002 0.89025 0.002 1.6236-0.002c1.9893-0.0177 3.32 1.0907 3.8664 3.0229 0.20363 0.72196-0.22334 1.2881-0.97334 1.2881h-5.5576l-0.35837 0.53603 1.5332-0.00097 0.89025 0.002 1.6226-0.002c1.9883-0.0177 3.321 1.0907 3.8674 3.0229 0.2036 0.72196-0.22438 1.2871-0.97442 1.2881h-6.988c0.14437 0.19322 0.28047 0.39371 0.4072 0.60146l2.2095-0.00098 0.89233 0.00098 1.6205-0.00098c1.9883-0.0177 3.3231 1.0897 3.8706 3.0229 0.20363 0.72196-0.22438 1.2871-0.97542 1.2871zm-19.891-28.789 1.7764 8.3291 0.59004-0.12777c0.47162-0.11739 0.54952-0.42383 0.47162-0.79157l-1.6444-7.6632c-0.11736-0.56408-0.50485-0.84454-0.8248-0.78742-0.35111 0.0623-0.49862 0.51214-0.36878 1.0409zm-37.111 7.4098-1.6444-7.6632c-0.11739-0.56408-0.50382-0.84454-0.82273-0.78742-0.35319 0.0623-0.5007 0.51214-0.37085 1.0409l1.7763 8.3291 0.59004-0.12777c0.47161-0.11739 0.54952-0.42383 0.47161-0.79157zm16.586-14.259c-0.25659 1.2684 0.73651 1.9883 1.6558 1.7099 0.41344-0.12466 1.0378-0.56408 1.6849-1.3255l0.30229-0.38745c0.60458-0.8248 1.7836-0.55263 1.9768 0.44772l0.92767 4.7806c0.47576-0.749 0.72092-1.525 0.69599-2.4235-0.0177-0.65029-0.32307-1.6413-0.57656-2.2168-1.8023-4.1002-6.2182-2.81-6.667-0.58486zm-2.6583 6.4862 1.4148 6.5798c0.59628-1.0689 1.5083-2.0724 2.7268-3.0489 0.36981-0.33658 1.2559-1.0897 2.1358-1.846l0.61705-0.53393c-2.6292 0.79157-5.1493 0.10284-6.8945-1.151zm-8.0029 0.36256 1.7753 8.3291 0.59107-0.12777c0.47162-0.11739 0.54953-0.42383 0.47162-0.79157l-1.6455-7.6632c-0.11738-0.56408-0.50382-0.84454-0.82377-0.78742-0.35111 0.0623-0.49966 0.51214-0.36877 1.0409zm17.928 17.568c-3.9765 0.44772-8.4558-2.0256-9.1269-6.1216-0.52667 0.43213-1.1894 0.70118-1.8916 0.70118l-9.0105 0.00097c1.5354 0.72612 3.0873 1.313 4.578 1.7888 2.4266 0.77494 4.6382 1.2424 6.2504 1.5374l1.9488 0.33451 0.58484 0.10906c0.71574 0.161 0.95154 0.66692 0.99621 0.86221 0.15271 0.66273-0.28878 1.2476-0.96712 1.2819-2.9678 0.15377-5.8162 0.053-8.5098-0.33344 3.91 1.1645 8.513 1.6475 13.886 1.6901 0.31162-0.67832 0.73856-1.3016 1.2622-1.8512zm7.3536-10.069-1.2351-5.8412-0.0613-0.35733c-0.72822 1.2216-1.7389 2.4048-3.0499 3.5257-1.4886 1.2725-3.0769 2.6738-4.3526 4.0326-0.32929 0.35111-0.56508 0.67522-0.54952 1.2372 0.0229 0.83728 0.71781 1.5073 1.5644 1.5073 0.67521 0 1.2414-0.40408 1.4471-0.97335 0.14959-0.41449-0.0426-0.88506-0.37607-1.1219-0.9266-0.6617-0.49551-2.0101 0.64406-2.0101l5.9689 0.00098" fill="#ffd200"/><path d="m96.01 0.82617c-0.599 0-1.086 0.48803-1.086 1.0879 0 0.5986 0.487 1.0839 1.086 1.0839 0.601 0 1.086-0.4853 1.086-1.0839 0-0.5999-0.485-1.0879-1.086-1.0879zm-43.635 3.5058c-3.868 0-8.07 2.5951-9.426 6.139-16.152 0-29.142 3.171-36.258 13.398h9.301c8.068-4.591 19.185-6.014 19.528-6.053-8.312-0.429-16.074 0.795-22.522 4.055 7.038-6.537 17.056-8.543 30.32-8.543 1.039 3.502 5.219 6.057 9.057 6.057h4.34c-0.059-0.521-0.163-1.026-0.311-1.514 1.371 0.954 3.037 1.514 4.834 1.514h4.338c-0.057-0.521-0.162-1.026-0.308-1.514 1.369 0.954 3.034 1.514 4.832 1.514l5.9 0.002 1.113-0.002 2.035 0.002c1.861 0.015 3.066-0.937 3.61-2.858h-7.692c-0.649-1.292-1.617-2.394-2.802-3.203l5.015 0.002 1.114-0.002 2.033 0.002c1.862 0.017 3.068-0.937 3.611-2.857h-11.894c1.24-0.817 2.253-1.9486 2.923-3.2835l3.506 0.002 1.116-0.002 2.033 0.002c1.86 0.0169 3.07-0.9357 3.613-2.8575h-15.234c-1.798 0-3.463 0.5593-4.832 1.5137 0.146-0.4882 0.251-0.993 0.308-1.5137h-4.338c-1.797 0-3.463 0.5593-4.834 1.5137 0.148-0.4882 0.252-0.993 0.311-1.5137h-4.34zm148.64 0.6778c-3.98 0-5.2 1.3776-5.2 4.2265 0 3.3477 0.51 4.1347 4.38 5.0017 1.64 0.37 2.41 0.594 2.79 0.967 0.36 0.36 0.38 0.874 0.38 1.953 0 1.705-0.44 2.321-2.92 2.321-1.41 0-2.88-0.228-4.29-0.659-0.13-0.037-0.25 0.039-0.28 0.166l-0.3 1.524c-0.02 0.098 0.03 0.206 0.13 0.244 1.37 0.537 3.18 0.816 4.69 0.816 4.42 0 5.29-1.627 5.29-4.461 0-3.16-0.27-3.825-4.52-4.882-1.59-0.399-2.32-0.613-2.67-0.967-0.33-0.337-0.35-0.821-0.35-1.9534 0-1.7205 0.38-2.2031 2.92-2.2031 1.26 0 2.71 0.157 3.94 0.4297 0.13 0.0286 0.25-0.0616 0.26-0.1914l0.16-1.5898c0.01-0.104-0.06-0.2045-0.16-0.2305-1.27-0.3259-2.89-0.5117-4.25-0.5117zm-105.01 0.1601c-0.599 0-1.086 0.4874-1.086 1.086 0 0.5999 0.487 1.0859 1.086 1.0859 0.601 0 1.086-0.486 1.086-1.0859 0-0.5986-0.485-1.086-1.086-1.086zm9.42 0.0781c-0.14 0-0.24 0.1326-0.21 0.2715l4.12 15.652c0.02 0.092 0.11 0.162 0.21 0.162h2.75c0.1 0 0.19-0.073 0.22-0.166l3-12.955c0.03-0.1338 0.2-0.1338 0.23-0.0001l3 12.955c0.03 0.093 0.12 0.166 0.21 0.166h2.76c0.1 0 0.19-0.07 0.21-0.162l4.11-15.652c0.04-0.1394-0.06-0.272-0.2-0.272h-1.85c-0.09 0-0.18 0.0699-0.21 0.1622l-3.32 12.774c-0.04 0.132-0.2 0.131-0.23-0.002l-3.02-12.766c-0.02-0.0948-0.11-0.166-0.21-0.166h-2.73c-0.1 0-0.19 0.0713-0.21 0.166l-3.02 12.766c-0.03 0.133-0.19 0.134-0.23 0.002l-3.32-12.774c-0.03-0.092-0.12-0.162-0.21-0.162h-1.85zm-53.055 1.879h1.572l-0.42 0.6035c-1.151 1.6491-3.064 2.7265-5.226 2.7265h-1.574l0.421-0.6015c1.152-1.6478 3.065-2.7285 5.227-2.7285zm8.863 0h1.571l-0.42 0.6035c-1.152 1.6491-3.066 2.7265-5.229 2.7265h-1.572l0.424-0.6015c1.149-1.6478 3.063-2.7285 5.226-2.7285zm8.862 0h1.572l-0.422 0.6035c-1.15 1.6491-3.063 2.7265-5.227 2.7265h-1.572l0.422-0.6015c1.149-1.6478 3.063-2.7285 5.227-2.7285zm68.99 1.3476c-3.56 0-4.94 1.2722-4.94 3.8924v5.313c0 2.619 1.38 3.89 4.94 3.89 1.08 0 2.35-0.09 3.64-0.367 0.11-0.022 0.19-0.127 0.18-0.234l-0.16-1.543c-0.01-0.126-0.12-0.212-0.25-0.192-1.05 0.181-2.46 0.293-3.39 0.293-1.98 0-2.65-0.449-2.65-1.99v-5.027c0-1.542 0.67-1.992 2.65-1.992 0.93 0 2.34 0.113 3.39 0.294 0.13 0.021 0.24-0.068 0.25-0.193l0.16-1.5428c0.01-0.1079-0.07-0.2103-0.18-0.2324-1.29-0.2765-2.56-0.3692-3.64-0.3692zm-10.72 0.2363c-0.12 0-0.22 0.098-0.22 0.2149v12.193c0 0.117 0.1 0.215 0.22 0.215h1.87c0.12 0 0.22-0.098 0.22-0.215v-12.193c0-0.117-0.1-0.2151-0.22-0.2151h-1.87zm17.91 0c-0.12 0-0.22 0.098-0.22 0.2149v12.193c0 0.117 0.1 0.215 0.22 0.215h1.87c0.12 0 0.22-0.098 0.22-0.215v-5.074c0-0.065 0.05-0.119 0.11-0.119h5.26c0.07 0 0.12 0.054 0.12 0.119v5.074c0 0.117 0.1 0.215 0.22 0.215h1.87c0.12 0 0.22-0.098 0.22-0.215v-12.193c0-0.117-0.1-0.2151-0.22-0.2151h-1.87c-0.12 0-0.22 0.098-0.22 0.2149v4.8382c0 0.065-0.05 0.117-0.12 0.117h-5.26c-0.06 0-0.11-0.052-0.11-0.117v-4.8382c0-0.1168-0.1-0.2149-0.22-0.2149h-1.87zm14.2 0c-0.12 0-0.21 0.098-0.21 0.2149v12.193c0 0.117 0.09 0.215 0.21 0.215h1.88c0.11 0 0.21-0.098 0.21-0.215v-12.193c0-0.117-0.1-0.2151-0.21-0.2151h-1.88zm5.08 0c-0.12 0-0.22 0.098-0.22 0.2149v1.6382c0 0.119 0.1 0.215 0.22 0.215h3.72c0.06 0 0.12 0.053 0.12 0.117v10.223c0 0.117 0.09 0.215 0.22 0.215h1.87c0.12 0 0.22-0.098 0.22-0.215v-10.223c0-0.064 0.05-0.117 0.11-0.117h3.72c0.12 0 0.22-0.096 0.22-0.215v-1.6382c0-0.1168-0.1-0.2149-0.22-0.2149h-9.98zm14.35 0c-0.09 0-0.18 0.0602-0.2 0.1407l-4.53 12.191c-0.06 0.145 0.05 0.291 0.2 0.291h1.86c0.09 0 0.18-0.062 0.21-0.141l0.94-2.533c0.01-0.039 0.07-0.076 0.11-0.076h5.16c0.04 0 0.09 0.036 0.11 0.076l0.96 2.535c0.03 0.081 0.12 0.139 0.2 0.139h1.87c0.15 0 0.25-0.146 0.2-0.291l-4.52-12.191c-0.03-0.081-0.12-0.1411-0.21-0.1411h-2.36zm26.94 0c-0.12 0-0.22 0.098-0.22 0.2149v1.6382c0 0.119 0.1 0.215 0.22 0.215h3.72c0.06 0 0.11 0.053 0.11 0.117v10.223c0 0.117 0.1 0.215 0.22 0.215h1.88c0.11 0 0.21-0.098 0.21-0.215v-10.223c0-0.064 0.05-0.117 0.12-0.117h3.72c0.12 0 0.22-0.096 0.22-0.215v-1.6382c0-0.1168-0.1-0.2149-0.22-0.2149h-9.98zm14.31 0c-0.09 0-0.18 0.0602-0.2 0.1407l-4.53 12.191c-0.05 0.145 0.05 0.291 0.2 0.291h1.87c0.08 0 0.17-0.062 0.2-0.141l0.94-2.533c0.01-0.039 0.07-0.076 0.11-0.076h5.16c0.04 0 0.1 0.036 0.11 0.076l0.96 2.535c0.03 0.081 0.12 0.139 0.21 0.139h1.86c0.15 0 0.26-0.146 0.21-0.291l-4.53-12.191c-0.03-0.081-0.12-0.1411-0.2-0.1411h-2.37zm6.86 0c-0.12 0-0.22 0.098-0.22 0.2149v1.6382c0 0.119 0.1 0.215 0.22 0.215h3.72c0.07 0 0.12 0.053 0.12 0.117v10.223c0 0.117 0.09 0.215 0.21 0.215h1.88c0.12 0 0.22-0.098 0.22-0.215v-10.223c0-0.064 0.05-0.117 0.11-0.117h3.73c0.11 0 0.21-0.096 0.21-0.215v-1.6382c0-0.1168-0.1-0.2149-0.21-0.2149h-9.99zm12.58 0c-0.12 0-0.22 0.098-0.22 0.2149v12.193c0 0.117 0.1 0.215 0.22 0.215h8.06c0.12 0 0.22-0.098 0.22-0.215v-1.613c0-0.118-0.1-0.217-0.22-0.217h-5.85c-0.07 0-0.12-0.053-0.12-0.117v-3.08c0-0.064 0.05-0.117 0.12-0.117h5.38c0.12 0 0.21-0.099 0.21-0.217v-1.613c0-0.119-0.09-0.217-0.21-0.217h-5.38c-0.07 0-0.12-0.054-0.12-0.117v-2.936c0-0.065 0.05-0.121 0.12-0.121h5.83c0.12 0 0.22-0.095 0.22-0.215v-1.6132c0-0.1168-0.1-0.2149-0.22-0.2149h-8.04zm-144.59 0.8008c-0.599 0-1.086 0.4874-1.086 1.0863 0 0.6 0.487 1.086 1.086 1.086 0.601 0 1.086-0.486 1.086-1.086 0-0.5989-0.485-1.0863-1.086-1.0863zm85.08 1.5133c0.04 0 0.09 0.03 0.11 0.09l1.86 5.385c0.03 0.082-0.02 0.156-0.11 0.156h-3.72c-0.09 0-0.14-0.074-0.11-0.156l1.86-5.385c0.02-0.06 0.06-0.09 0.11-0.09zm41.25 0c0.05 0 0.09 0.03 0.11 0.09l1.86 5.385c0.03 0.082-0.02 0.156-0.11 0.156h-3.72c-0.09 0-0.14-0.074-0.11-0.156l1.86-5.385c0.02-0.06 0.07-0.09 0.11-0.09zm-175.61 2.233l1.574 0.002c2.162 0 4.075 1.079 5.226 2.726l0.42 0.604h-1.572c-2.162 0-4.075-1.081-5.227-2.729l-0.421-0.603zm8.863 0l1.57 0.002c2.163 0 4.078 1.079 5.229 2.726l0.422 0.604h-1.573c-2.163 0-4.077-1.081-5.226-2.729l-0.422-0.603zm8.861 0l1.572 0.002c2.164 0 4.077 1.079 5.227 2.726l0.424 0.604h-1.574c-2.164 0-4.078-1.081-5.227-2.729l-0.422-0.603zm31.559 0.597c-0.599 0-1.086 0.487-1.086 1.086s0.487 1.086 1.086 1.086c0.601 0 1.086-0.487 1.086-1.086s-0.485-1.086-1.086-1.086zm0 4.342c-0.599 0-1.086 0.488-1.086 1.088 0 0.599 0.487 1.084 1.086 1.084 0.601 0 1.086-0.485 1.086-1.084 0-0.6-0.485-1.088-1.086-1.088zm-53.506 0.301c-4.302 0.064-8.801 3.046-8.891 8.797-0.037 2.354 1.162 4.52 3.975 6.766 0.915 0.829 4.428 3.761 5.191 4.554 1.52 1.582 2.535 3.294 2.473 5.537-0.031 1.068-0.489 2.495-0.838 3.289-2.648 6.022-10.058 4.911-10.959 0.45-0.523-2.596 1.66-4.393 3.828-3.739 0.891 0.269 1.889 1.064 2.766 2.092 0.178 0.207 0.431 0.551 0.431 0.551l1.368-6.445-0.172-0.108c-4.367-2.479-8.697-0.85-10.811 2.26-0.655-0.625-1.054-1.726-0.728-3.281l2.371-11.03c0.323-1.495-0.983-2.937-2.383-2.937l-5.514 0.002-0.439 2.074s2.766 0.3 2.217 2.762l-2.012 9.342c-0.664 3.103-5.046 3.388-4.115-1.37l2.183-10.136c0.283-1.357-1.102-2.676-2.433-2.676h-6.344l-0.445 2.076s2.794 0.302 2.224 2.762l-2.047 9.441c-0.64 3.095-4.9958 3.154-4.1012-1.414l2.1422-9.89c0.361-1.668-0.504-2.979-2.2515-2.979h-6.4864l-0.4375 2.072s2.807 0.265 2.211 2.817l-1.502 7.117c-1.3647 6.425 2.3831 8.762 5.0879 8.793 1.8595 0.021 3.7985-0.991 5.0135-3.244 2.965 4.68 8.839 3.941 10.965 0 1.405 2.216 3.499 3.105 5.527 3.232-0.188 1.889 0.35 3.927 1.881 5.793 4.209 5.13 13.88 5.289 18.547-2.01 3.084-4.822 2.671-10.693-3.238-15.746-1.865-1.593-3.899-3.386-5.551-5.144-0.591-0.629-0.902-1.295-1.014-1.914-0.038-0.209-0.052-0.412-0.048-0.61 0.05-1.794 1.532-3.238 3.339-3.238 1.4 0 2.646 0.846 3.112 2.129 0.433 1.198-0.137 2.407-0.969 3.002l8.205-0.002c0.396 0 0.912 0.31 0.758 0.969l-1.688 7.99c-1.244 6.409 2.383 8.762 5.088 8.793 1.86 0.021 3.799-0.991 5.014-3.244 2.776 4.381 8.787 4.223 11.092-0.053v-1.99c-1.056 1.506-4.762 1.621-3.918-2.696l2.121-9.873c0.466-1.953-0.888-2.939-2.385-2.939h-6.318l-0.446 2.076s2.738 0.227 2.213 2.817l-2.035 9.386c-0.67 3.022-5.077 3.24-4.113-1.414l2.154-9.926c0.325-1.503-0.995-2.943-2.408-2.943l-8.693 0.004c-0.326-4.593-3.968-6.81-7.764-6.754zm53.506 4.043c-0.599 0-1.086 0.486-1.086 1.086s0.487 1.086 1.086 1.086c0.601 0 1.086-0.486 1.086-1.086s-0.485-1.086-1.086-1.086zm10.82 3.9c-0.11 0-0.21 0.099-0.21 0.217v11.289c0 2.673 1.56 4.819 5.74 4.819s5.74-2.146 5.74-4.819v-11.289c0-0.118-0.09-0.217-0.21-0.217h-1.9c-0.12 0-0.21 0.099-0.21 0.217v11.17c0 1.847-0.99 2.82-3.42 2.82s-3.41-0.973-3.41-2.82v-11.17c0-0.118-0.1-0.217-0.22-0.217h-1.9zm-10.82 0.442c-0.599 0-1.086 0.486-1.086 1.086 0 0.601 0.487 1.086 1.086 1.086 0.601 0 1.086-0.485 1.086-1.086 0-0.6-0.485-1.086-1.086-1.086zm88.32 2.785c-3.45 0-4.71 0.83-4.71 3.441 0 2.404 0.23 3.067 3.89 4.028 1.43 0.374 2.09 0.569 2.41 0.83 0.28 0.23 0.3 0.514 0.3 1.262 0 1.181-0.29 1.515-2.32 1.515-1.17 0-2.6-0.204-3.87-0.566-0.13-0.035-0.25 0.044-0.27 0.17l-0.26 1.453c-0.02 0.1 0.04 0.204 0.13 0.24 1.23 0.469 2.97 0.725 4.25 0.725 3.87 0 4.65-1.187 4.65-3.584 0-2.436-0.26-2.953-3.93-3.936-1.39-0.382-2.04-0.584-2.37-0.844-0.29-0.24-0.3-0.528-0.3-1.222 0-1.291 0.18-1.492 2.42-1.492 0.94 0 2.42 0.159 3.48 0.363 0.12 0.024 0.24-0.064 0.25-0.192l0.15-1.521c0.01-0.105-0.06-0.206-0.16-0.231-1.15-0.279-2.71-0.439-3.74-0.439zm-62.27 0.236c-0.12 0-0.22 0.098-0.22 0.217v12.191c0 0.119 0.1 0.215 0.22 0.215h1.78c0.12 0 0.21-0.096 0.21-0.215v-8.851c0-0.134 0.16-0.176 0.23-0.059l5.27 9.018c0.04 0.062 0.12 0.107 0.19 0.107h2.42c0.12 0 0.22-0.096 0.22-0.215v-12.191c0-0.119-0.1-0.217-0.22-0.217h-1.77c-0.12 0-0.22 0.098-0.22 0.217v8.848c0 0.135-0.15 0.177-0.22 0.06l-5.28-9.017c-0.03-0.061-0.11-0.108-0.18-0.108h-2.43zm14.31 0c-0.12 0-0.22 0.098-0.22 0.217v12.191c0 0.119 0.1 0.215 0.22 0.215h1.87c0.12 0 0.22-0.096 0.22-0.215v-12.191c0-0.119-0.1-0.217-0.22-0.217h-1.87zm4.68 0c-0.16 0-0.26 0.142-0.21 0.287l4.27 12.192c0.03 0.083 0.11 0.144 0.2 0.144h2.51c0.09 0 0.18-0.061 0.2-0.144l4.27-12.192c0.05-0.145-0.05-0.287-0.2-0.287h-1.84c-0.09 0-0.18 0.064-0.21 0.147l-3.36 9.847c-0.04 0.121-0.18 0.121-0.22 0l-3.37-9.847c-0.03-0.083-0.11-0.147-0.2-0.147h-1.84zm14.05 0c-0.12 0-0.22 0.098-0.22 0.217v12.191c0 0.119 0.1 0.215 0.22 0.215h8.06c0.12 0 0.22-0.096 0.22-0.215v-1.613c0-0.118-0.1-0.217-0.22-0.217h-5.86c-0.06 0-0.12-0.053-0.12-0.117v-3.08c0-0.063 0.06-0.119 0.12-0.119h5.39c0.11 0 0.21-0.095 0.21-0.215v-1.611c0-0.12-0.1-0.217-0.21-0.217h-5.39c-0.06 0-0.12-0.055-0.12-0.119v-2.938c0-0.063 0.06-0.117 0.12-0.117h5.83c0.12 0 0.22-0.098 0.22-0.217v-1.611c0-0.119-0.1-0.217-0.22-0.217h-8.03zm12.12 0c-0.12 0-0.22 0.098-0.22 0.217v12.191c0 0.119 0.1 0.215 0.22 0.215h1.87c0.12 0 0.22-0.096 0.22-0.215v-3.746c0-0.063 0.05-0.119 0.12-0.119h2.99c0.03 0 0.08 0.028 0.1 0.053l2.65 3.934c0.04 0.054 0.11 0.093 0.18 0.093h2.1c0.18 0 0.28-0.186 0.18-0.336l-2.66-3.953c-0.04-0.063-0.01-0.144 0.06-0.176 1.23-0.523 1.66-1.558 1.66-2.914v-1.943c0-2.036-0.96-3.301-4.01-3.301h-5.46zm24.81 0c-0.12 0-0.21 0.098-0.21 0.217v12.191c0 0.119 0.09 0.215 0.21 0.215h1.87c0.12 0 0.22-0.096 0.22-0.215v-12.191c0-0.119-0.1-0.217-0.22-0.217h-1.87zm4.65 0c-0.12 0-0.22 0.098-0.22 0.217v1.637c0 0.118 0.1 0.215 0.22 0.215h3.72c0.06 0 0.12 0.053 0.12 0.117v10.222c0 0.119 0.09 0.215 0.21 0.215h1.87c0.13 0 0.22-0.096 0.22-0.215v-10.222c0-0.064 0.06-0.117 0.12-0.117h3.72c0.12 0 0.22-0.097 0.22-0.215v-1.637c0-0.119-0.1-0.217-0.22-0.217h-9.98zm11.21 0c-0.17 0-0.27 0.171-0.19 0.319l4.52 8.47c0 0.011 0.01 0.045 0.01 0.055v3.564c0 0.119 0.1 0.215 0.22 0.215h1.87c0.12 0 0.22-0.096 0.22-0.215v-3.564c0-0.012 0-0.046 0.01-0.055l4.49-8.47c0.08-0.15-0.02-0.319-0.19-0.319h-1.9c-0.08 0-0.16 0.051-0.19 0.117l-3.28 6.297c-0.05 0.095-0.16 0.095-0.21 0l-3.28-6.297c-0.04-0.066-0.12-0.117-0.2-0.117h-1.9zm-111.88 1.323c-0.599 0-1.086 0.484-1.086 1.084 0 0.599 0.487 1.087 1.086 1.087 0.601 0 1.086-0.488 1.086-1.087 0-0.6-0.485-1.084-1.086-1.084zm73.42 0.722h3.36c1.32 0 1.59 0.411 1.59 1.446v1.611c0 1.033-0.27 1.445-1.59 1.445h-3.36c-0.07 0-0.12-0.054-0.12-0.119v-4.266c0-0.063 0.05-0.117 0.12-0.117zm-73.42 3.619c-0.599 0-1.086 0.486-1.086 1.086s0.487 1.088 1.086 1.088c0.601 0 1.086-0.488 1.086-1.088s-0.485-1.086-1.086-1.086zm0 4.344c-0.599 0-1.086 0.486-1.086 1.086s0.487 1.086 1.086 1.086c0.601 0 1.086-0.486 1.086-1.086s-0.485-1.086-1.086-1.086zm0 4.342c-0.599 0-1.086 0.486-1.086 1.086s0.487 1.086 1.086 1.086c0.601 0 1.086-0.486 1.086-1.086s-0.485-1.086-1.086-1.086zm0 4.344c-0.599 0-1.086 0.485-1.086 1.084 0 0.6 0.487 1.088 1.086 1.088 0.601 0 1.086-0.488 1.086-1.088 0-0.599-0.485-1.084-1.086-1.084z" transform="matrix(.8 0 0 -.8 206.78 418.72)" fill="#231f20"/></g></g></svg>
