<svg id="BLUEGRASS" xmlns="http://www.w3.org/2000/svg" viewBox="0 0 336.07 62.22"><defs><style>.cls-1{fill:#e7a614;}.cls-2{fill:#013057;}</style></defs><title>Bluegrass_EPS_Bluegrass_horiz_RGBrev</title><path id="State" class="cls-2" d="M136.75,38.21a4.7,4.7,0,0,0,0-.65,3,3,0,0,0-.13-.52,1.58,1.58,0,0,0-.51-.8,8.56,8.56,0,0,1-.68-.88c-.44-.58-.87-1.18-1.34-1.73l-5.68-6.69a4.58,4.58,0,0,1-.9-3.31l.9-5.44a4.06,4.06,0,0,0-1-3.19l-4.88-4.82a2.19,2.19,0,0,0-2.79-.17l-1.28,1a7.14,7.14,0,0,1-3.28,1.26h-.06a3.22,3.22,0,0,1-2.75-1.51l-.09-.16A3.17,3.17,0,0,0,109.78,9a2.1,2.1,0,0,0-1.89,1.45,1.46,1.46,0,0,1-1.57,1.17A1.9,1.9,0,0,1,105,10a2.18,2.18,0,0,0-2-1.66l-3.63-.45c-1-.12-4.56-.93-4.88-1.92l-1-3.1a3,3,0,0,0-.94-1.35,2.69,2.69,0,0,0-1-.69,5.73,5.73,0,0,0-1.48.15,5.67,5.67,0,0,1-1.54,0C88,.8,87.46.76,86.93.63a5.4,5.4,0,0,1-1-.51c-1-.47-2,.52-2.14,1.54l-.38,4.25c-.09,1-2.11,2.88-3,3.38l-2,1.64c-.88.5-2.71-1.62-3.71-1.69l-1.23-.08a2,2,0,0,0-2.06,1.77l-.14,1c-.13,1,.07,3.39-.7,4.06l-.73.62a9.78,9.78,0,0,0-2,2.38c-.31.64,0,1.4-.13,1.67-.29.87-.17,1.38-.85,1.63a2.13,2.13,0,0,1-.3.09,8.67,8.67,0,0,0-2.48,1,2.71,2.71,0,0,0-.61.44,2.48,2.48,0,0,0-.43.67c-.52,1.07-.86,3.61-2.18,4a2.81,2.81,0,0,1-1.44,0A6.32,6.32,0,0,1,56.64,27a5.19,5.19,0,0,0-1.25-1,2.45,2.45,0,0,0-2.63.75,7.32,7.32,0,0,0-1.33,2.57c-.26.72-.77,2.61-1.74,2.53a3.61,3.61,0,0,1-2.75-1.66,3.61,3.61,0,0,0-.71-1,1.6,1.6,0,0,0-1.36-.27,4.24,4.24,0,0,0-1.31.57A5.05,5.05,0,0,0,41,32.27c-.53,2-1.9,1.32-3.3.39a22.12,22.12,0,0,0-2.85-1.86,3.25,3.25,0,0,0-3.25.11c-.54.4-.92,1.05-1.56,1.23-.82.22-1.59-.42-2.36-.79a3.85,3.85,0,0,0-2.63-.23c-1.12.32-1.17,2.2-2.2,2.89-.57.38-1.21.67-1.75,1.1a2.19,2.19,0,0,0-.92,1.76,2.93,2.93,0,0,0,.24.85,16.18,16.18,0,0,1,1,2.62c.13.66-.27.78-.84,1.08a13.6,13.6,0,0,1-3.3,1.15c-1.39.32-3.9,0-4.42,1.72a10.38,10.38,0,0,0-.48,1.88,3.48,3.48,0,0,0,.22,1.53c.29.71.83,1.31,1.06,2A2.26,2.26,0,0,1,13,52.09a1.67,1.67,0,0,1-1.84.26l-4-1.42a2.87,2.87,0,0,0-2,.51l-3,2.74A5.74,5.74,0,0,0,1,56.88c-.23.91-.31,1.86-.61,2.75-.22.69-.78,2.48.26,2.59H56c0-.45-.07-.9-.07-1.36a14.31,14.31,0,1,1,28.61,0c0,.46,0,.91-.06,1.36h29.4A4.93,4.93,0,0,0,117,60.84l9-10a31,31,0,0,1,2.7-2.55l4.25-3.47c.79-.65,2.24-1.86,2.35-2.91,0-.12.25-.36.31-.45a5.37,5.37,0,0,0,.74-1.11,3.29,3.29,0,0,1,.08-.62,4.59,4.59,0,0,0,.14-.45c0-.15.2-.3.23-.46A3.64,3.64,0,0,0,136.75,38.21Z"></path><path id="Rays" class="cls-1" d="M87.37,56.16l20.49-10-22,6.57,38.92-27.81L83.65,49.72,116.87,15l-36,32.21L93.23,22.55,77.63,45.34,89.13,3.5,74.07,44.19l2-29L70.35,43.8,66.57,25.38l.06,18.81L60.26,31l2.82,14.33L53,32.16l6.81,15.05L44,31.63l13,18.09L30.94,32.15,54.86,52.74,30.29,43.88,53.34,56.16,14,48.39,52.67,59.22l-46.86-3,46.61,6H56c0-.45-.07-.9-.07-1.36a14.31,14.31,0,1,1,28.61,0c0,.46,0,.91-.06,1.36h4.21l28.55-4-29,1,33.09-8Z"></path><path class="cls-2" d="M146.56,9.86a.67.67,0,0,1,.68-.68h8.34c4.22,0,7.69,2.89,7.69,6.66,0,2.75-2.47,4.76-4.15,5.65,1.9.79,4.8,2.54,4.8,5.84,0,4-3.55,6.9-7.81,6.9h-8.87a.67.67,0,0,1-.68-.68Zm8.37,9.48a2.55,2.55,0,0,0,2.51-2.58,2.43,2.43,0,0,0-2.51-2.43h-2.79v5Zm.47,9.77A2.59,2.59,0,0,0,158,26.5,2.85,2.85,0,0,0,155,24h-2.9v5.11Z"></path><path class="cls-2" d="M167.86,9.86a.67.67,0,0,1,.68-.68h4.26a.71.71,0,0,1,.68.68V29H182a.68.68,0,0,1,.68.68v3.9a.68.68,0,0,1-.68.68H168.54a.67.67,0,0,1-.68-.68Z"></path><path class="cls-2" d="M184.9,9.86a.7.7,0,0,1,.68-.68H190a.68.68,0,0,1,.68.68V24.35a4.44,4.44,0,1,0,8.88,0V9.86a.67.67,0,0,1,.68-.68h4.4a.7.7,0,0,1,.68.68V24.64a10.2,10.2,0,0,1-20.4,0Z"></path><path class="cls-2" d="M210.46,9.86a.67.67,0,0,1,.68-.68H226a.68.68,0,0,1,.68.68v3.9a.68.68,0,0,1-.68.68H216v4.44h8.16a.7.7,0,0,1,.68.68v3.9a.68.68,0,0,1-.68.68H216V29H226a.68.68,0,0,1,.68.68v3.9a.68.68,0,0,1-.68.68H211.14a.67.67,0,0,1-.68-.68Z"></path><path class="cls-2" d="M241.89,8.85a13.83,13.83,0,0,1,8.73,3.37.63.63,0,0,1,.07,1l-2.82,3a.77.77,0,0,1-1,0,6.6,6.6,0,0,0-4.69-1.72,7.18,7.18,0,0,0,0,14.35,8.45,8.45,0,0,0,3.19-.57V26.22h-2.25a.65.65,0,0,1-.68-.65V22a.65.65,0,0,1,.68-.68h7.19A.67.67,0,0,1,251,22l0,9.63a.88.88,0,0,1-.29.57,18,18,0,0,1-8.87,2.33,12.86,12.86,0,0,1,0-25.71Z"></path><path class="cls-2" d="M255.35,9.86a.68.68,0,0,1,.68-.68h10.7a7.78,7.78,0,0,1,7.81,7.73,7.86,7.86,0,0,1-5.3,7.19l4.9,9.09a.68.68,0,0,1-.61,1h-4.76a.67.67,0,0,1-.57-.32l-4.76-9.49H261v9.13a.7.7,0,0,1-.68.68H256a.68.68,0,0,1-.68-.68Zm10.92,10A2.87,2.87,0,0,0,269,17a2.74,2.74,0,0,0-2.72-2.73H261v5.59Z"></path><path class="cls-2" d="M275.5,33.3,286.71,9.21a.74.74,0,0,1,.61-.39h.35a.71.71,0,0,1,.61.39L299.49,33.3a.63.63,0,0,1-.61.93h-4c-.65,0-.94-.21-1.26-.89l-1.29-2.83h-9.73l-1.29,2.87a1.34,1.34,0,0,1-1.29.85h-3.94A.63.63,0,0,1,275.5,33.3Zm14.72-7.66-2.72-5.9h0l-2.69,5.9Z"></path><path class="cls-2" d="M300.38,30.83l1.69-3a.92.92,0,0,1,1.21-.21c.15.07,2.72,2,5.09,2a2.24,2.24,0,0,0,2.47-2.14c0-1.5-1.26-2.65-3.69-3.62-3.08-1.22-6.95-3.61-6.95-7.91,0-3.54,2.76-7.12,8.27-7.12a13.26,13.26,0,0,1,7.66,2.68.92.92,0,0,1,.22,1.15l-1.83,2.76c-.25.39-.89.71-1.21.46s-2.94-2.15-5.12-2.15a2.08,2.08,0,0,0-2.26,1.83c0,1.32,1.08,2.32,3.9,3.47s7.23,3.29,7.23,8.16c0,3.69-3.18,7.41-8.44,7.41-4.66,0-7.23-1.93-8.06-2.76C300.2,31.48,300.1,31.33,300.38,30.83Z"></path><path class="cls-2" d="M319.39,30.83l1.69-3a.92.92,0,0,1,1.21-.21c.15.07,2.72,2,5.08,2a2.24,2.24,0,0,0,2.48-2.14c0-1.5-1.26-2.65-3.69-3.62-3.08-1.22-7-3.61-7-7.91,0-3.54,2.76-7.12,8.27-7.12a13.26,13.26,0,0,1,7.66,2.68.92.92,0,0,1,.22,1.15l-1.83,2.76c-.25.39-.89.71-1.21.46s-2.94-2.15-5.12-2.15a2.08,2.08,0,0,0-2.26,1.83c0,1.32,1.07,2.32,3.9,3.47s7.23,3.29,7.23,8.16c0,3.69-3.18,7.41-8.44,7.41-4.66,0-7.24-1.93-8.06-2.76C319.21,31.48,319.11,31.33,319.39,30.83Z"></path><path class="cls-2" d="M150,40.89a3.88,3.88,0,0,1,2.8,1.1.24.24,0,0,1,0,.34l-.71.75a.19.19,0,0,1-.29,0,2.75,2.75,0,1,0,0,4.14.21.21,0,0,1,.29,0l.72.77a.23.23,0,0,1,0,.32A3.93,3.93,0,0,1,150,49.46a4.29,4.29,0,0,1,0-8.57Z"></path><path class="cls-2" d="M157.57,40.89a4.29,4.29,0,1,1-4.14,4.3A4.21,4.21,0,0,1,157.57,40.89Zm0,7a2.74,2.74,0,1,0-2.64-2.73A2.71,2.71,0,0,0,157.57,47.92Z"></path><path class="cls-2" d="M163.94,41.06a.19.19,0,0,1,.21-.17h.18a.19.19,0,0,1,.2.12l2.54,5.62h0L169.64,41a.2.2,0,0,1,.2-.12H170a.19.19,0,0,1,.21.17l1.36,8c0,.17-.05.28-.2.28h-1a.25.25,0,0,1-.22-.18l-.68-4.52h0l-2,4.68a.19.19,0,0,1-.2.13H167a.21.21,0,0,1-.2-.13l-2-4.68h0L164,49.17a.22.22,0,0,1-.2.18h-1a.22.22,0,0,1-.22-.28Z"></path><path class="cls-2" d="M174,41.06a.19.19,0,0,1,.21-.17h.18a.21.21,0,0,1,.2.12l2.54,5.62h0L179.68,41a.19.19,0,0,1,.2-.12h.18a.19.19,0,0,1,.21.17l1.36,8a.21.21,0,0,1-.21.28h-1a.27.27,0,0,1-.22-.18l-.68-4.52h0l-2,4.68a.19.19,0,0,1-.2.13H177a.2.2,0,0,1-.2-.13l-2-4.68h0l-.67,4.52a.23.23,0,0,1-.21.18h-1c-.15,0-.24-.11-.21-.28Z"></path><path class="cls-2" d="M182.93,41.23a.22.22,0,0,1,.22-.22h1.1a.21.21,0,0,1,.21.22v4.88a1.68,1.68,0,1,0,3.36,0V41.23A.22.22,0,0,1,188,41h1.1a.22.22,0,0,1,.22.22v5a3.22,3.22,0,1,1-6.43,0Z"></path><path class="cls-2" d="M191.28,41.1a.22.22,0,0,1,.22-.21h.29l4.8,5.26h0V41.23a.22.22,0,0,1,.22-.22h1.07a.22.22,0,0,1,.21.22v8a.21.21,0,0,1-.21.21h-.28L192.78,44h0v5.13a.22.22,0,0,1-.22.23H191.5a.24.24,0,0,1-.22-.23Z"></path><path class="cls-2" d="M200.12,41.23a.22.22,0,0,1,.22-.22h1.07a.22.22,0,0,1,.22.22v7.89a.23.23,0,0,1-.22.23h-1.07a.23.23,0,0,1-.22-.23Z"></path><path class="cls-2" d="M204.67,42.44H202.9a.22.22,0,0,1-.21-.23v-1a.21.21,0,0,1,.21-.22h5a.22.22,0,0,1,.22.22v1a.22.22,0,0,1-.22.23h-1.77v6.68a.23.23,0,0,1-.22.23h-1.07a.23.23,0,0,1-.22-.23Z"></path><path class="cls-2" d="M211.33,45.33l-2.63-4a.22.22,0,0,1,.18-.34h1.18a.24.24,0,0,1,.19.1l1.84,2.74,1.85-2.74a.21.21,0,0,1,.18-.1h1.19a.22.22,0,0,1,.19.34l-2.67,4v3.8a.23.23,0,0,1-.22.23h-1.06a.22.22,0,0,1-.22-.23Z"></path><path class="cls-2" d="M147.79,55.94v0l-.24-.27a2.43,2.43,0,0,1-.79-1.72,2.2,2.2,0,0,1,4.37,0c0,1.23-1.18,2-1.41,2.17l1.33,1.38a5.5,5.5,0,0,0,.41-1.32c0-.25.12-.38.38-.3l.64.19c.3.09.22.35.19.47a8,8,0,0,1-.71,1.89l1,1c.13.14.25.28,0,.55l-.47.5a.33.33,0,0,1-.51,0l-.83-.88a3.25,3.25,0,0,1-2.52,1,2.29,2.29,0,0,1-2.43-2.24A2.85,2.85,0,0,1,147.79,55.94Zm1,3.36a1.87,1.87,0,0,0,1.49-.7l-1.72-1.88a1.71,1.71,0,0,0-1,1.46A1.13,1.13,0,0,0,148.78,59.3Zm1.1-5.29a.93.93,0,0,0-1-.89.8.8,0,0,0-.85.81c0,.42.25.69.6,1.07l.25.26C149.07,55.16,149.88,54.75,149.88,54Z"></path><path class="cls-2" d="M157.39,53.55h-1.77a.23.23,0,0,1-.22-.23v-1a.23.23,0,0,1,.22-.22h5a.23.23,0,0,1,.22.22v1a.23.23,0,0,1-.22.23H158.9v6.68a.23.23,0,0,1-.22.23h-1.07a.23.23,0,0,1-.22-.23Z"></path><path class="cls-2" d="M161.75,52.34a.22.22,0,0,1,.22-.22h4.69a.22.22,0,0,1,.22.22v1a.22.22,0,0,1-.22.23h-3.41v2h2.85a.24.24,0,0,1,.22.23v1a.22.22,0,0,1-.22.22h-2.85V59h3.41a.22.22,0,0,1,.22.22v1a.22.22,0,0,1-.22.23H162a.22.22,0,0,1-.22-.23Z"></path><path class="cls-2" d="M171.74,52a3.82,3.82,0,0,1,2.79,1.11.23.23,0,0,1,0,.33l-.7.75a.18.18,0,0,1-.29,0,2.69,2.69,0,0,0-1.78-.7,2.77,2.77,0,0,0,0,5.53,2.78,2.78,0,0,0,1.77-.68.2.2,0,0,1,.29,0l.71.76a.22.22,0,0,1,0,.32,3.88,3.88,0,0,1-2.8,1.16,4.29,4.29,0,0,1,0-8.58Z"></path><path class="cls-2" d="M175.71,52.34a.23.23,0,0,1,.22-.22H177a.22.22,0,0,1,.22.22V55.5H181V52.34a.22.22,0,0,1,.22-.22h1.06a.24.24,0,0,1,.22.22v7.89a.24.24,0,0,1-.22.23h-1.06a.22.22,0,0,1-.22-.23V56.94h-3.77v3.29a.22.22,0,0,1-.22.23h-1.07a.23.23,0,0,1-.22-.23Z"></path><path class="cls-2" d="M184.29,52.21a.23.23,0,0,1,.22-.21h.29l4.8,5.27h0V52.34a.23.23,0,0,1,.22-.22h1.07a.24.24,0,0,1,.22.22v8a.23.23,0,0,1-.22.22h-.28l-4.83-5.47h0v5.12a.22.22,0,0,1-.22.23h-1.05a.24.24,0,0,1-.22-.23Z"></path><path class="cls-2" d="M192.92,52.34a.23.23,0,0,1,.22-.22h1.07a.23.23,0,0,1,.22.22v7.89a.23.23,0,0,1-.22.23h-1.07a.23.23,0,0,1-.22-.23Z"></path><path class="cls-2" d="M199.83,52a3.85,3.85,0,0,1,2.8,1.11.23.23,0,0,1,0,.33l-.71.75a.18.18,0,0,1-.29,0A2.7,2.7,0,1,0,199.88,59a2.73,2.73,0,0,0,1.76-.68.2.2,0,0,1,.29,0l.72.76a.23.23,0,0,1,0,.32,3.9,3.9,0,0,1-2.81,1.16,4.29,4.29,0,0,1,0-8.58Z"></path><path class="cls-2" d="M203,60.15l3.59-8a.21.21,0,0,1,.2-.13h.11a.19.19,0,0,1,.2.13l3.56,8a.22.22,0,0,1-.2.31h-1c-.17,0-.25-.07-.33-.24l-.57-1.29h-3.45l-.56,1.29a.35.35,0,0,1-.34.24h-1A.21.21,0,0,1,203,60.15Zm5-2.54L206.85,55h0l-1.13,2.62Z"></path><path class="cls-2" d="M211.48,52.34a.22.22,0,0,1,.21-.22h1.07a.24.24,0,0,1,.22.22V59h2.94a.22.22,0,0,1,.22.22v1a.22.22,0,0,1-.22.23h-4.23a.22.22,0,0,1-.21-.23Z"></path><path class="cls-2" d="M229.14,40.78a9.35,9.35,0,0,1,6.73,2.58.52.52,0,0,1,0,.78l-2.17,2.25a.5.5,0,0,1-.7,0A5.65,5.65,0,0,0,229.28,45a5.69,5.69,0,0,0,0,11.37A5.87,5.87,0,0,0,233,55a.57.57,0,0,1,.73,0l2.16,2.31a.55.55,0,0,1,0,.75,9.56,9.56,0,0,1-6.76,2.69,10,10,0,1,1,0-20Z"></path><path class="cls-2" d="M247.05,40.78a10,10,0,1,1-10,10A10,10,0,0,1,247.05,40.78Zm0,15.56a5.56,5.56,0,1,0-5.53-5.53A5.57,5.57,0,0,0,247.05,56.34Z"></path><path class="cls-2" d="M260.16,41.58a.53.53,0,0,1,.53-.53H264a.55.55,0,0,1,.52.53V56.42h6.62a.53.53,0,0,1,.53.53v3a.53.53,0,0,1-.53.53H260.69a.53.53,0,0,1-.53-.53Z"></path><path class="cls-2" d="M273.85,41.58a.53.53,0,0,1,.53-.53h3.3a.55.55,0,0,1,.53.53V56.42h6.62a.52.52,0,0,1,.52.53v3a.52.52,0,0,1-.52.53H274.38a.53.53,0,0,1-.53-.53Z"></path><path class="cls-2" d="M287.54,41.58a.53.53,0,0,1,.53-.53h11.5a.53.53,0,0,1,.53.53v3a.53.53,0,0,1-.53.53h-7.7v3.45h6.34a.54.54,0,0,1,.53.52v3a.53.53,0,0,1-.53.53h-6.34v3.75h7.7a.53.53,0,0,1,.53.53v3a.53.53,0,0,1-.53.53h-11.5a.53.53,0,0,1-.53-.53Z"></path><path class="cls-2" d="M312.08,40.8a10.7,10.7,0,0,1,6.78,2.62.49.49,0,0,1,.06.75l-2.19,2.33a.6.6,0,0,1-.75,0,5.14,5.14,0,0,0-3.65-1.34,5.58,5.58,0,0,0,0,11.15,6.49,6.49,0,0,0,2.48-.45V54.28h-1.76a.5.5,0,0,1-.52-.5V51a.51.51,0,0,1,.52-.53h5.59a.52.52,0,0,1,.5.53l0,7.48A.69.69,0,0,1,319,59a14.07,14.07,0,0,1-6.9,1.81,10,10,0,0,1,0-20Z"></path><path class="cls-2" d="M322.93,41.58a.52.52,0,0,1,.52-.53H335a.53.53,0,0,1,.53.53v3a.53.53,0,0,1-.53.53h-7.7v3.45h6.34a.54.54,0,0,1,.53.52v3a.53.53,0,0,1-.53.53h-6.34v3.75H335a.53.53,0,0,1,.53.53v3a.53.53,0,0,1-.53.53H323.45a.52.52,0,0,1-.52-.53Z"></path></svg>