<svg xmlns="http://www.w3.org/2000/svg" height="67" width="305" viewBox="0 0 305 67" role="img" focusable="false" aria-hidden="true">
        <g data-name="Layer 2"><g data-name="Layer 1"><path d="M63.1 17.6a.76.76 0 0 0-.2.32 1.33 1.33 0 0 0-.06.42V21.57a8.26 8.26 0 0 1-.16 1.63 3.35 3.35 0 0 1-.57 1.3 2.77 2.77 0 0 1-1.09.87 4.05 4.05 0 0 1-1.71.31 4 4 0 0 1-1.62-.29 2.81 2.81 0 0 1-1.1-.79 3.28 3.28 0 0 1-.64-1.23 5.84 5.84 0 0 1-.2-1.56v-3-.5a1.38 1.38 0 0 0-.07-.43.66.66 0 0 0-.22-.32.84.84 0 0 0-.47-.16v-.26H58.06v.27a.58.58 0 0 0-.47.12.81.81 0 0 0-.22.37 1.49 1.49 0 0 0-.07.49v3.51a5.78 5.78 0 0 0 .11 1.1 2.84 2.84 0 0 0 .36.95 1.93 1.93 0 0 0 .7.66 2.21 2.21 0 0 0 1.12.26 2.42 2.42 0 0 0 1.39-.35 2.16 2.16 0 0 0 .73-.91 4 4 0 0 0 .29-1.24c0-.45.05-.9.05-1.33v-1.3-1.28-.44a.93.93 0 0 0-.11-.32.48.48 0 0 0-.24-.2 1.26 1.26 0 0 0-.44-.07v-.29h2.45v.27a.85.85 0 0 0-.45.15M81.22 17.57a.45.45 0 0 0-.21.22 1.09 1.09 0 0 0-.06.34v7.41h-.4a40.18 40.18 0 0 1-3-2.84c-1-1-1.94-2-2.89-3.06v4.72a.87.87 0 0 0 .08.37.54.54 0 0 0 .26.27.78.78 0 0 0 .44.1v.27H73v-.27a.64.64 0 0 0 .67-.45 1.3 1.3 0 0 0 .08-.41v-.42-3.25-1.76-1.77h.42c1 1.05 1.91 2.1 2.87 3.13a38.61 38.61 0 0 0 3 2.95V20.9v-2.22-.48a1.07 1.07 0 0 0-.07-.38.51.51 0 0 0-.21-.25 1.07 1.07 0 0 0-.46-.11v-.27h2.41v.27a1.08 1.08 0 0 0-.44.11M92.79 25.64h-1.57v-.28a1 1 0 0 0 .4-.1.69.69 0 0 0 .23-.22.71.71 0 0 0 .12-.32v-.42-4.04-1.48-.51a1.67 1.67 0 0 0-.07-.41.68.68 0 0 0-.23-.28 1.09 1.09 0 0 0-.48-.14v-.28a20.7 20.7 0 0 0 3.15 0v.28a.91.91 0 0 0-.48.14.53.53 0 0 0-.23.3 1.09 1.09 0 0 0-.07.42V24.6a1.41 1.41 0 0 0 .08.39.6.6 0 0 0 .23.27.93.93 0 0 0 .47.14v.26h-1.58M111.85 17.53a1.23 1.23 0 0 0-.31.26c-.08.11-.15.23-.23.36l-.21.43c-.06.15-.13.3-.18.45l-.15.39c-.28.69-.55 1.37-.84 2l-.85 2c-.15.36-.3.73-.44 1.09a6.56 6.56 0 0 1-.53 1.06h-.42c-.5-1.06-1-2.12-1.43-3.18s-.9-2.12-1.35-3.2c-.08-.18-.16-.37-.24-.58a2.94 2.94 0 0 0-.29-.59 1.81 1.81 0 0 0-.41-.46 1 1 0 0 0-.58-.22v-.28c.54 0 1.07.05 1.6 0h1.62v.27a.81.81 0 0 0-.37.12.38.38 0 0 0-.18.34 2.47 2.47 0 0 0 .14.55c.1.27.22.6.38 1s.32.78.5 1.21.35.84.52 1.23.31.73.44 1 .22.5.27.6l.28-.68.4-1q.23-.55.45-1.17c.15-.4.29-.78.42-1.15s.23-.69.31-1a2.69 2.69 0 0 0 .12-.64.35.35 0 0 0-.18-.35 1.24 1.24 0 0 0-.4-.1v-.27h2.52v.27a1.41 1.41 0 0 0-.38.12M127 24.48a2.28 2.28 0 0 1-.12.63.8.8 0 0 1-.31.43 1.27 1.27 0 0 1-.73.16h-4.68v-.28a1.08 1.08 0 0 0 .6-.21 1.11 1.11 0 0 0 .17-.61c0-.55.07-1.09.07-1.63v-2.13-.67-.78-.75-.46a1 1 0 0 0-.09-.35.49.49 0 0 0-.22-.25 1.17 1.17 0 0 0-.46-.12v-.26h5.63a4.51 4.51 0 0 0-.07.73v.72h-.24a.75.75 0 0 0-.28-.65 1.5 1.5 0 0 0-.72-.14h-1.94v3.01h1.88a1.5 1.5 0 0 0 .44-.07.89.89 0 0 0 .35-.23 1.1 1.1 0 0 0 .21-.46h.25a9.91 9.91 0 0 0-.13 1.11 6.73 6.73 0 0 0 0 1.1h-.25a1.22 1.22 0 0 0-.12-.45.51.51 0 0 0-.24-.24 1 1 0 0 0-.36-.09h-2v2.29a3.7 3.7 0 0 0 0 .68.58.58 0 0 0 .17.34.69.69 0 0 0 .39.12h.69a5.78 5.78 0 0 0 .77 0 1.37 1.37 0 0 0 .55-.18 1.15 1.15 0 0 0 .39-.4 4.23 4.23 0 0 0 .33-.7l.25.06a4.14 4.14 0 0 0-.11.74M140.93 19a2 2 0 0 0-.38-.65 1.75 1.75 0 0 0-.59-.45 1.86 1.86 0 0 0-.79-.16 1.1 1.1 0 0 0-.31 0v3.86h.26a2.44 2.44 0 0 0 .77-.13 1.83 1.83 0 0 0 .63-.38 1.79 1.79 0 0 0 .43-.58 1.86 1.86 0 0 0 .16-.77 2.56 2.56 0 0 0-.13-.79m2.57 7.06a2.67 2.67 0 0 1-1.29-.28 3.11 3.11 0 0 1-.9-.72 4.94 4.94 0 0 1-.67-1l-.58-1.16a1.44 1.44 0 0 0-.27-.42.71.71 0 0 0-.27-.18 1 1 0 0 0-.31-.05 2.82 2.82 0 0 1-.39 0v2.05a2.19 2.19 0 0 0 .05.47.7.7 0 0 0 .23.35.82.82 0 0 0 .5.16v.29h-3.09v-.3c.31 0 .51-.1.6-.26a1.3 1.3 0 0 0 .14-.66v-1.7-1.7-1.2-1.22a3.18 3.18 0 0 0 0-.47.59.59 0 0 0-.09-.29.43.43 0 0 0-.22-.17 2.23 2.23 0 0 0-.41-.1v-.28h3.37a3.38 3.38 0 0 1 1 .15 3 3 0 0 1 .87.45 2.18 2.18 0 0 1 .61.74 2.09 2.09 0 0 1 .23 1 2.38 2.38 0 0 1-.18 1 2 2 0 0 1-.5.69 2.71 2.71 0 0 1-.72.47 4 4 0 0 1-.85.27 1.62 1.62 0 0 1 .86.34 3.13 3.13 0 0 1 .6.7 7.15 7.15 0 0 1 .46.87 7.48 7.48 0 0 0 .47.89 3.43 3.43 0 0 0 .59.71 1.65 1.65 0 0 0 .87.38V26h-.75M157.52 24.28a2.17 2.17 0 0 1-.67.74 2.91 2.91 0 0 1-.94.44 4.32 4.32 0 0 1-1.08.14 5.53 5.53 0 0 1-1.18-.09.85.85 0 0 1-.53-.34 1.37 1.37 0 0 1-.17-.67c0-.28 0-.65-.1-1.1h.27a2.2 2.2 0 0 0 .58 1.15 1.68 1.68 0 0 0 1.22.41 1.71 1.71 0 0 0 .55-.09 1.4 1.4 0 0 0 .49-.24 1.25 1.25 0 0 0 .36-.4 1.09 1.09 0 0 0 .13-.55 1 1 0 0 0-.26-.72 3 3 0 0 0-.64-.56 15.4 15.4 0 0 0-.84-.53 5.51 5.51 0 0 1-.84-.59 2.89 2.89 0 0 1-.64-.79 2.07 2.07 0 0 1-.26-1.09 2.43 2.43 0 0 1 .18-1 1.89 1.89 0 0 1 .51-.72 2.34 2.34 0 0 1 .77-.44 3.05 3.05 0 0 1 1-.15 4.4 4.4 0 0 1 .73.07 4.52 4.52 0 0 0 .74.06h.31a.94.94 0 0 0 .3-.12 6.13 6.13 0 0 0-.11 1v1h-.31a1.21 1.21 0 0 0-.14-.58 1.45 1.45 0 0 0-.35-.42 1.37 1.37 0 0 0-.49-.26 1.83 1.83 0 0 0-1.07 0 1.44 1.44 0 0 0-.43.21 1 1 0 0 0-.42.81 1.42 1.42 0 0 0 .26.84 3 3 0 0 0 .66.62 8.82 8.82 0 0 0 .85.54 6.59 6.59 0 0 1 .86.6 3.08 3.08 0 0 1 .65.75 2 2 0 0 1 .27 1.05 2.14 2.14 0 0 1-.25 1.07M168.9 25.48h-1.53v-.27a1.21 1.21 0 0 0 .39-.11.66.66 0 0 0 .23-.21 1 1 0 0 0 .11-.31v-.42-3.95V18.76v-.5a1.15 1.15 0 0 0-.07-.4.56.56 0 0 0-.22-.28 1 1 0 0 0-.47-.14v-.28a19.79 19.79 0 0 0 3.08 0v.28a.93.93 0 0 0-.47.14.58.58 0 0 0-.22.29 1.3 1.3 0 0 0-.07.41V24.48a1.42 1.42 0 0 0 .08.38.6.6 0 0 0 .23.27 1 1 0 0 0 .45.13v.26h-1.55M186.68 17.39l-.06.48v.96h-.24a.57.57 0 0 0-.25-.58 1.58 1.58 0 0 0-.78-.15H184v5.93a1.67 1.67 0 0 0 .1.57.52.52 0 0 0 .23.3 1 1 0 0 0 .44.11v.28h-2.87V25a.93.93 0 0 0 .42-.1.54.54 0 0 0 .21-.28 1.6 1.6 0 0 0 .09-.5v-.78-2.61-2.62h-1.12a4.05 4.05 0 0 0-.52 0 1.25 1.25 0 0 0-.44.13 1.43 1.43 0 0 0-.38.28 1.53 1.53 0 0 0-.31.49l-.22-.1a6.09 6.09 0 0 0 .25-1c.05-.34.1-.69.14-1h.26a.34.34 0 0 0 .11.27.58.58 0 0 0 .28.15 2.34 2.34 0 0 0 .43.06h4.4a1.32 1.32 0 0 0 .41 0 .75.75 0 0 0 .34-.18 1.23 1.23 0 0 0 .31-.4l.22.07c0 .2-.07.39-.1.55M203.54 17.61a1.31 1.31 0 0 0-.44.33 2.69 2.69 0 0 0-.35.45c-.11.17-.22.34-.35.52l-1.74 2.61v3a1.35 1.35 0 0 0 .06.43.55.55 0 0 0 .23.31 1.06 1.06 0 0 0 .51.12v.3h-3.18v-.3a1.14 1.14 0 0 0 .5-.15.61.61 0 0 0 .22-.23 1.33 1.33 0 0 0 .06-.42v-3L197 18.82c-.13-.17-.25-.33-.36-.49a3.53 3.53 0 0 0-.34-.41 1.6 1.6 0 0 0-.42-.3 1.65 1.65 0 0 0-.59-.15v-.28H198.86v.28a1.36 1.36 0 0 0-.35.07.26.26 0 0 0-.17.28.81.81 0 0 0 .13.34 6.46 6.46 0 0 0 .34.55l.45.63.46.62.38.49a2.22 2.22 0 0 1 .18.24s.08-.12.17-.25.2-.29.32-.47l.39-.6.38-.62c.12-.2.21-.39.29-.55a1.16 1.16 0 0 0 .11-.37c0-.15 0-.25-.16-.29a1.28 1.28 0 0 0-.35-.08v-.27h2.71v.27a1.56 1.56 0 0 0-.61.15M224.4 20.17a4.15 4.15 0 0 0-.48-1.23 2.74 2.74 0 0 0-.86-.9 2.36 2.36 0 0 0-1.3-.35 2.25 2.25 0 0 0-1.21.31 2.61 2.61 0 0 0-.81.81 3.72 3.72 0 0 0-.46 1.12 5.19 5.19 0 0 0-.14 1.22 6.17 6.17 0 0 0 .14 1.34 4 4 0 0 0 .48 1.24 2.81 2.81 0 0 0 .86.92 2.26 2.26 0 0 0 1.3.36 2.21 2.21 0 0 0 1.23-.32 2.57 2.57 0 0 0 .81-.83 3.58 3.58 0 0 0 .45-1.14 5.24 5.24 0 0 0 .14-1.24 6 6 0 0 0-.15-1.31m1.51 2.91a4.13 4.13 0 0 1-.9 1.38 3.86 3.86 0 0 1-1.39.89 5 5 0 0 1-1.8.32 4.86 4.86 0 0 1-1.78-.31 3.88 3.88 0 0 1-2.27-2.24 4.51 4.51 0 0 1-.32-1.77 4.63 4.63 0 0 1 .33-1.78 4 4 0 0 1 .93-1.37 4.23 4.23 0 0 1 1.41-.87 5 5 0 0 1 1.79-.31 5.06 5.06 0 0 1 1.77.3 3.9 3.9 0 0 1 1.36.86 3.81 3.81 0 0 1 .88 1.35 5.16 5.16 0 0 1 0 3.55M241.47 17.91a6.06 6.06 0 0 1 0 .73h-.24a.93.93 0 0 0-.13-.46.67.67 0 0 0-.27-.23 1.5 1.5 0 0 0-.39-.08h-2.08V20.84h2.08a1.25 1.25 0 0 0 .36 0 .56.56 0 0 0 .25-.21 1.37 1.37 0 0 0 .18-.46h.25c0 .33-.06.68-.08 1a9.24 9.24 0 0 0 0 1.05h-.26a.72.72 0 0 0-.18-.45.89.89 0 0 0-.38-.21 1.88 1.88 0 0 0-.49-.06h-1.72V24.47a1.44 1.44 0 0 0 .07.4.53.53 0 0 0 .23.26 1 1 0 0 0 .49.11v.29H236v-.29a1.13 1.13 0 0 0 .35-.08.46.46 0 0 0 .21-.14.53.53 0 0 0 .09-.23 2.66 2.66 0 0 0 0-.34c0-.57.05-1.14.06-1.7s0-1.13 0-1.69v-1.17-.76-.71l-.01-.42a.77.77 0 0 0-.08-.29.55.55 0 0 0-.21-.19 1.34 1.34 0 0 0-.38-.11v-.26h5.5a4.59 4.59 0 0 0-.06.73M262.85 17.19c0 .17-.05.34-.07.5s0 .33 0 .49v.53h-.25a.62.62 0 0 0-.26-.62 1.76 1.76 0 0 0-.82-.15h-1.31v6.27a2.19 2.19 0 0 0 .1.6.63.63 0 0 0 .25.32 1.12 1.12 0 0 0 .47.11v.29h-3.1v-.3a1 1 0 0 0 .44-.11.54.54 0 0 0 .23-.3 1.68 1.68 0 0 0 .09-.52v-.82-2.76-2.76h-1.2a4.56 4.56 0 0 0-.55 0 1.5 1.5 0 0 0-.47.14 1.52 1.52 0 0 0-.39.29 1.55 1.55 0 0 0-.33.52l-.24-.1a6.87 6.87 0 0 0 .27-1.06c.06-.36.11-.72.15-1.09h.28a.35.35 0 0 0 .11.29.71.71 0 0 0 .3.16 2.46 2.46 0 0 0 .44.06H261.64a1.56 1.56 0 0 0 .44-.05.9.9 0 0 0 .36-.19 1.75 1.75 0 0 0 .32-.42l.23.07c0 .21-.08.41-.1.58M280.2 25.49H277.85v-.29a1.54 1.54 0 0 0 .45-.09.43.43 0 0 0 .23-.21 1 1 0 0 0 .08-.37v-2.94h-4.29v2.83a1.07 1.07 0 0 0 .06.39.55.55 0 0 0 .23.25 1.18 1.18 0 0 0 .48.12v.27H272v-.27a1 1 0 0 0 .45-.11.77.77 0 0 0 .25-.26 1 1 0 0 0 .09-.36 3.22 3.22 0 0 0 0-.44v-1.38V20 18.59v-.53a.85.85 0 0 0-.09-.35.52.52 0 0 0-.23-.21 1.43 1.43 0 0 0-.43-.1v-.26H275.11v.26a1.22 1.22 0 0 0-.46.12.53.53 0 0 0-.24.25 1 1 0 0 0-.08.37V20.86h4.31v-1-.68-.98a1.28 1.28 0 0 0-.07-.37.6.6 0 0 0-.23-.27.92.92 0 0 0-.47-.12v-.26h3.12v.26a1.09 1.09 0 0 0-.45.07.52.52 0 0 0-.23.21.72.72 0 0 0-.1.35 4 4 0 0 0 0 .51V24.54a.94.94 0 0 0 .08.38.43.43 0 0 0 .22.22 1.44 1.44 0 0 0 .45.1v.27h-.77M296.06 24.37a2.56 2.56 0 0 1-.06.63.86.86 0 0 1-.32.43 1.32 1.32 0 0 1-.72.16H290.34v-.27a1 1 0 0 0 .59-.21 1 1 0 0 0 .17-.61c.05-.54.07-1.07.07-1.6v-2.13-.66-.77-.74-.45a1 1 0 0 0-.08-.35.56.56 0 0 0-.22-.24 1.12 1.12 0 0 0-.46-.12v-.26h5.56a5.85 5.85 0 0 0-.07.72v.72h-.24c0-.34-.12-.56-.28-.65a1.48 1.48 0 0 0-.71-.14h-1.91V20.8h1.85a1.23 1.23 0 0 0 .44-.07.83.83 0 0 0 .34-.22 1.1 1.1 0 0 0 .21-.46h.24c-.06.36-.1.73-.13 1.1a9.9 9.9 0 0 0 0 1.09h-.24a1.16 1.16 0 0 0-.12-.45.51.51 0 0 0-.23-.23.8.8 0 0 0-.36-.1h-2v2.26a3.7 3.7 0 0 0 .05.68.53.53 0 0 0 .18.33.63.63 0 0 0 .38.12h.68a5.47 5.47 0 0 0 .75 0 1.37 1.37 0 0 0 .55-.17 1.25 1.25 0 0 0 .39-.4 3.58 3.58 0 0 0 .32-.7l.25.07a3.92 3.92 0 0 0-.11.73M67.39 54.47a31.5 31.5 0 0 0-.13 2 18.23 18.23 0 0 1-4 1.46 17.74 17.74 0 0 1-4 .45 14.52 14.52 0 0 1-5.26-.93 11.53 11.53 0 0 1-4.08-2.61 11.82 11.82 0 0 1-2.63-4 13.83 13.83 0 0 1-.94-5.22 15.2 15.2 0 0 1 .9-5.37 11.39 11.39 0 0 1 2.57-4.09 11.8 11.8 0 0 1 4-2.64 14.18 14.18 0 0 1 5.25-.93 16.78 16.78 0 0 1 2.39.15c.69.11 1.3.22 1.84.34s1 .22 1.36.31a4.25 4.25 0 0 0 1 .13 1.32 1.32 0 0 0 1.25-.7l.46.08a20.74 20.74 0 0 0-.27 2.87v2.94h-.78a3.23 3.23 0 0 0-.74-1.71 6 6 0 0 0-1.74-1.36 9.83 9.83 0 0 0-2.45-.92 12.54 12.54 0 0 0-2.91-.33 8.68 8.68 0 0 0-3.57.7 7.59 7.59 0 0 0-2.69 2 8.86 8.86 0 0 0-1.7 3.14 13.91 13.91 0 0 0-.58 4.19 14.11 14.11 0 0 0 .76 4.74 11.26 11.26 0 0 0 2.13 3.73 9.77 9.77 0 0 0 3.25 2.44 9.93 9.93 0 0 0 4.2.87 13.19 13.19 0 0 0 2.36-.2 7.56 7.56 0 0 0 2.06-.68 4.91 4.91 0 0 0 1.52-1.19 3.43 3.43 0 0 0 .78-1.77l.35.08a1.05 1.05 0 0 0 .24.06h.12c-.13.68-.23 1.34-.3 2M93.45 33.84a.93.93 0 0 0-.61.52 3.68 3.68 0 0 0-.27 1.19c0 .52-.08 1.22-.08 2.11 0 1 0 2.05-.07 3V45.69a27 27 0 0 1-.42 4.88 11.18 11.18 0 0 1-1.58 4 8.42 8.42 0 0 1-3.1 2.81 10.5 10.5 0 0 1-5 1.06 10.83 10.83 0 0 1-4.87-1 8.17 8.17 0 0 1-3.12-2.65A11.09 11.09 0 0 1 72.6 51a21.25 21.25 0 0 1-.51-4.76v-1.91V38.05c0-1 0-1.8-.06-2.36a3.54 3.54 0 0 0-.28-1.29 1 1 0 0 0-.64-.58 5.5 5.5 0 0 0-1.21-.22V33h7.71v.66a5.9 5.9 0 0 0-1.19.21 1 1 0 0 0-.6.61 4.11 4.11 0 0 0-.24 1.33v11.7a13.06 13.06 0 0 0 .42 3.21 9.55 9.55 0 0 0 1.27 2.89 6.54 6.54 0 0 0 2.21 2.07 6.26 6.26 0 0 0 3.21.78 7 7 0 0 0 4.22-1.13 6.78 6.78 0 0 0 2.24-2.89 13.05 13.05 0 0 0 .9-3.88c.11-1.42.17-2.79.17-4.12v-3.35c0-1.2 0-2.2-.1-3 0-1-.11-1.82-.17-2.4a4 4 0 0 0-.33-1.31 1.16 1.16 0 0 0-.69-.56 4.86 4.86 0 0 0-1.22-.18V33h6.86v.66a6.43 6.43 0 0 0-1.11.2M123.66 57.82l-1-.06h-2.38l-1.35.06h-1.4v-.62a5.89 5.89 0 0 0 1-.26 1 1 0 0 0 .53-.6 4 4 0 0 0 .15-1.4c0-.63-.07-1.51-.17-2.66l-1-11.46-8.58 17.08h-.19L100.33 41l-1.24 13.62a2.42 2.42 0 0 0 0 .45v.45a1.52 1.52 0 0 0 .39 1.15 2.75 2.75 0 0 0 1.36.57v.62h-6.46v-.62a2.2 2.2 0 0 0 1.38-.61 3.1 3.1 0 0 0 .57-1.34c.1-.57.19-1.15.27-1.72l.29-2.14c.12-.86.25-1.93.39-3.2s.34-2.88.57-4.8l.78-6.71.47-4h.86l2.88 5.89 3.62 7.39 2.81 5.3.5 1 .47-1 2.65-5.15c.6-1.17 1.19-2.35 1.78-3.53l1.77-3.62c.37-.72.73-1.47 1.09-2.22s.69-1.43 1-2 .68-1.38 1-2h.86l.35 3.48 1 9.2c.23 2.21.43 4 .6 5.38s.28 2.37.33 3c.08.75.17 1.35.26 1.79a2.92 2.92 0 0 0 .37 1 1.22 1.22 0 0 0 .58.48 4.23 4.23 0 0 0 .9.22v.62h-1.09M141.56 48.83a5.77 5.77 0 0 0-1.83-2 7.7 7.7 0 0 0-2.81-1.19 10.56 10.56 0 0 0-3.63-.14v7.76a9.52 9.52 0 0 0 .1 1.66 1.71 1.71 0 0 0 .37.84 2 2 0 0 0 1 .58 7 7 0 0 0 1.76.2 6 6 0 0 0 4.13-1.31 4.6 4.6 0 0 0 1.48-3.65 5.66 5.66 0 0 0-.66-2.71m-3.08-13a5.67 5.67 0 0 0-4.06-1.37h-.52a3.51 3.51 0 0 0-.61.08v9.44c.65 0 1.31-.07 2-.06s1.49.06 2.48.13q2.17-1.2 2.18-4.4a5 5 0 0 0-1.44-3.82m5.28 20.45q-2.12 1.82-6.18 1.82h-.82l-1.22-.14-1.76-.08-1.72-.08h-4.26v-.58a2.75 2.75 0 0 0 1.58-.61 2.31 2.31 0 0 0 .53-1.5c.05-.62.09-1.42.12-2.38s0-2 0-3v-5.33-1.73V37.27a18.66 18.66 0 0 0-.08-1.91 2.29 2.29 0 0 0-.33-1.07 1.18 1.18 0 0 0-.7-.49 7.86 7.86 0 0 0-1.19-.2v-.62h3.94l4-.08a9.12 9.12 0 0 1 5.66 1.36 4.85 4.85 0 0 1 1.95 4.14q0 3.39-3.36 5.93a9.65 9.65 0 0 1 4.49 2.67 6.73 6.73 0 0 1-.59 9.2M165.3 54.08c-.1.49-.18 1-.26 1.48a5.71 5.71 0 0 1-.33 1.33 1.48 1.48 0 0 1-.72.76 4 4 0 0 1-1.41.33c-.59.05-1.37.06-2.34 0L156 57.9c-.65 0-1.3 0-2-.06h-4.97v-.62a4.37 4.37 0 0 0 1.31-.33 1.34 1.34 0 0 0 .6-.73 6.5 6.5 0 0 0 .22-1 16.14 16.14 0 0 0 .13-1.87c0-.85.05-2 .06-3.44s0-3.32 0-5.63v-4.49c0-1.17 0-2.1-.06-2.81a11.72 11.72 0 0 0-.13-1.57 4.93 4.93 0 0 0-.22-.84c-.26-.63-.88-.95-1.87-1V33h15.48a6.24 6.24 0 0 0-.11 1l-.08 1.25c0 .47 0 1-.08 1.52h-.58c-.06-.34-.11-.64-.18-.9a1.07 1.07 0 0 0-.39-.62 2 2 0 0 0-.9-.35 8.84 8.84 0 0 0-1.65-.12h-5.74l-.11 9.21h5.26a13.16 13.16 0 0 0 1.58-.08 2.53 2.53 0 0 0 1-.29 1.4 1.4 0 0 0 .54-.63 5.15 5.15 0 0 0 .35-1.07l.59.08c-.05.36-.09.82-.12 1.36s0 1.11-.08 1.68-.05 1.13-.08 1.66 0 1 0 1.31h-.63a6.93 6.93 0 0 0-.13-1.13 1.18 1.18 0 0 0-.41-.67 2 2 0 0 0-.92-.31 13.16 13.16 0 0 0-1.58-.08h-5.3v7a19 19 0 0 0 .07 1.91 1.81 1.81 0 0 0 .41 1.06 1.62 1.62 0 0 0 1 .43 12 12 0 0 0 1.77 0l2.42-.07a9 9 0 0 0 1.62-.2 3.17 3.17 0 0 0 1.21-.54 3.57 3.57 0 0 0 .91-1 10.48 10.48 0 0 0 .78-1.66l.59.16c0 .34-.12.75-.21 1.25M181.48 38.2a5.91 5.91 0 0 0-1.27-2.06 5.54 5.54 0 0 0-2-1.33 6.7 6.7 0 0 0-2.55-.47 4.29 4.29 0 0 0-.55 0l-.62.12-.08 5.81v6.28l.57.1h.52a6.77 6.77 0 0 0 4.69-1.58 5.47 5.47 0 0 0 1.75-4.27 7.58 7.58 0 0 0-.45-2.66m7.45 21.07h-.56a7.35 7.35 0 0 1-4.7-1.6 16.88 16.88 0 0 1-3.89-4.88 10.49 10.49 0 0 1-.72-1.5 8.19 8.19 0 0 0-.8-1.56 4.67 4.67 0 0 0-1.13-1.21 2.78 2.78 0 0 0-1.67-.49h-1v7.36a2.45 2.45 0 0 0 .25 1 1.25 1.25 0 0 0 .67.54 5.85 5.85 0 0 0 1.3.3v.62h-1.71l-1.31-.06H172l-1.32.06h-1.8v-.62a7 7 0 0 0 1.21-.27 1.16 1.16 0 0 0 .63-.51 2.43 2.43 0 0 0 .23-1v-3.28-2.42-5.4-3.18-2.36-2.73a4.52 4.52 0 0 0-.21-1.48 1.12 1.12 0 0 0-.61-.68 4.94 4.94 0 0 0-1.19-.3v-.62h2.91a9.39 9.39 0 0 0 1 0h1.68c.55 0 .94 0 1.42-.06h1.27a10.75 10.75 0 0 1 3.43.51 7.8 7.8 0 0 1 2.62 1.44 6.45 6.45 0 0 1 1.73 2.22 7.16 7.16 0 0 1 .59 3 7 7 0 0 1-.57 2.94 6.83 6.83 0 0 1-1.52 2.15 8.48 8.48 0 0 1-2.22 1.52 16.42 16.42 0 0 1-2.71 1 4 4 0 0 1 1.85.59 6 6 0 0 1 1.42 1.25A11.85 11.85 0 0 1 183 51c.35.57.69 1.13 1 1.67s.73 1.23 1.09 1.88a14.51 14.51 0 0 0 1.19 1.81 7.31 7.31 0 0 0 1.48 1.46 4.14 4.14 0 0 0 2 .78v.55a5.92 5.92 0 0 1-.76.08M206.82 53.51c0 .22-.08.62-.16 1.19-.13.83-.23 1.41-.29 1.74a3.19 3.19 0 0 1-.3.84 1.48 1.48 0 0 1-.81.6 5.83 5.83 0 0 1-1.68.18h-1.07L201 58h-1.68c-.56 0-1 0-1.43-.06-1 0-1.82-.08-2.49-.1H191v-.62a3.66 3.66 0 0 0 1.23-.37 1.69 1.69 0 0 0 .68-.72 3.44 3.44 0 0 0 .31-1.19 17.7 17.7 0 0 0 .08-1.78l.08-7.8v-2.57-2.68-2.34-1.59-1.17a1.45 1.45 0 0 0-.23-.75 1.26 1.26 0 0 0-.65-.41 9.56 9.56 0 0 0-1.26-.25v-.66H199.2v.62a6.3 6.3 0 0 0-1.25.29 1.45 1.45 0 0 0-.62.45 1.39 1.39 0 0 0-.33.7V51.24c0 .77 0 1.39.06 1.87s.05.92.08 1.31a2.83 2.83 0 0 0 .19.94 1.11 1.11 0 0 0 .55.54 3.07 3.07 0 0 0 1 .27 12.22 12.22 0 0 0 1.64.08 12.75 12.75 0 0 0 2.4-.19 4.77 4.77 0 0 0 1.69-.65 3.54 3.54 0 0 0 1.14-1.17 8 8 0 0 0 .74-1.81l.58.12c-.08.41-.13.73-.15.95M259.47 33.78a1.06 1.06 0 0 0-.62.46 2.34 2.34 0 0 0-.26.92V58.25h-.82L240 39.8l-.51-.54V40.31c0 1.3.05 2.68.06 4.15s0 2.85 0 4.14V53.49c0 .81 0 1.45.06 1.91a2.72 2.72 0 0 0 .27 1.1 1.07 1.07 0 0 0 .64.52 6.17 6.17 0 0 0 1.21.22v.62h-1.13l-1.13-.06h-4.81v-.6a4.92 4.92 0 0 0 1.25-.24 1.19 1.19 0 0 0 .64-.52 2.43 2.43 0 0 0 .26-1.07V43.12l-.12-10.61h.86l3.45 3.67q1.41 1.59 3.1 3.47t3.26 3.51q2.64 2.76 4.64 4.76c1.37 1.32 2.49 2.48 3.38 3.47l.66.74v-1.41c-.05-1.11-.08-2.15-.08-3.12v-2.69-2.3c0-.86 0-1.66-.06-2.42s0-1.79 0-2.73 0-1.49-.08-2a2.91 2.91 0 0 0-.3-1.13 1.06 1.06 0 0 0-.66-.52 7.85 7.85 0 0 0-1.19-.26V33h6.98v.58a6.17 6.17 0 0 0-1.21.22M283.24 41.23a9.32 9.32 0 0 0-2.39-3.61 10.85 10.85 0 0 0-4-2.28 17.25 17.25 0 0 0-5.54-.8 11.05 11.05 0 0 0-1.37.06l-1.09.13-.12 3.75V53.65A4 4 0 0 0 269 55a1.6 1.6 0 0 0 .72.86 3.73 3.73 0 0 0 1.41.43 17.36 17.36 0 0 0 2.28.12 12.68 12.68 0 0 0 4.44-.74 9.66 9.66 0 0 0 3.38-2.09 9 9 0 0 0 2.12-3.28A11.87 11.87 0 0 0 284 46a13.17 13.17 0 0 0-.8-4.74m3.77 9.4a9.77 9.77 0 0 1-2.61 4 12.08 12.08 0 0 1-4.63 2.56 21.37 21.37 0 0 1-6.84.82l-5-.12h-5.22v-.62a2.45 2.45 0 0 0 1.83-.59 3.56 3.56 0 0 0 .55-2.06l.08-1.8c0-.52.05-1.43.07-2.73s0-3 0-5.11l-.07-8.58a3.33 3.33 0 0 0-.51-2.14 2.6 2.6 0 0 0-1.87-.67V33a5.92 5.92 0 0 1 .62 0H267.4l2.26-.06 2.2-.06h1.82q6.78 0 10.43 3.3t3.65 9.3a15.88 15.88 0 0 1-.82 5.17M304 54.08a6.42 6.42 0 0 1-1.7 2.2 8 8 0 0 1-2.63 1.43 11.27 11.27 0 0 1-3.45.5q-1.46 0-2.4-.09a4.65 4.65 0 0 1-1.54-.39 2.08 2.08 0 0 1-.88-.8 3.29 3.29 0 0 1-.37-1.37 5.05 5.05 0 0 1-.08-.74c0-.36-.07-.73-.12-1.09s-.09-.9-.11-1.37l.7-.11c.07.31.13.56.17.76a4.84 4.84 0 0 0 .3.91 4 4 0 0 0 .23.47 3.54 3.54 0 0 0 1.68 1.5 6.42 6.42 0 0 0 2.73.53 5.39 5.39 0 0 0 3.58-1.17 3.72 3.72 0 0 0 1.41-3 3.46 3.46 0 0 0-.82-2.23 13.45 13.45 0 0 0-2.85-2.38l-2.1-1.38c-.58-.38-1-.68-1.37-.92a7.82 7.82 0 0 1-2.51-2.61 6.8 6.8 0 0 1-.8-3.39 6.43 6.43 0 0 1 1.87-4.88 6.94 6.94 0 0 1 5-1.79 15.81 15.81 0 0 1 2.63.19 11.66 11.66 0 0 0 1.62.2 3.08 3.08 0 0 0 1.6-.39l.12.07a15.7 15.7 0 0 0-.28 1.93c-.05.69-.07 1.4-.07 2.13a5.93 5.93 0 0 0 0 .64c0 .17 0 .4.05.69h-.78a3.49 3.49 0 0 0-1.3-2.73 5.23 5.23 0 0 0-3.34-1 5 5 0 0 0-3.14.9 3 3 0 0 0-1.15 2.53 4.35 4.35 0 0 0 .9 2.71 11.87 11.87 0 0 0 2.85 2.52l3.78 2.57a7.51 7.51 0 0 1 2.3 2.44 6.16 6.16 0 0 1 .82 3.14 6.68 6.68 0 0 1-.6 2.85M231.86 57.18a2.05 2.05 0 0 1-.65-.5 2.42 2.42 0 0 1-.45-.69c-.13-.26-.26-.57-.41-.94l-8.76-22.14h-1.24l-8.49 19.37c-.33.77-.62 1.43-.86 2a7.9 7.9 0 0 1-.77 1.38 3.48 3.48 0 0 1-.89.87 2.8 2.8 0 0 1-1.24.42v.62H211l1.07.05h2.3V57a2.09 2.09 0 0 1-1.06-.41 1.13 1.13 0 0 1-.27-.86 4.52 4.52 0 0 1 .47-1.7l.43-1a9 9 0 0 1 5.71-5 10.55 10.55 0 0 1 2.73-.51.31.31 0 0 0 0-.62 15.53 15.53 0 0 0-2.27-.22 9.42 9.42 0 0 0-3.7.58l3.26-7.67A7.07 7.07 0 0 0 220 39c.07-.22.16-.5.28-.83.09.34.17.62.23.84s.14.45.23.69l3 8 .74 1.8 2 5.17a3.61 3.61 0 0 1 .24.65 2.38 2.38 0 0 1 .08.72c0 .82-.59 1.26-1.7 1.32v.58h4.75l1.34.05c.52 0 1.1.07 1.75.08v-.58a3.75 3.75 0 0 1-1-.34M26.76 7.33v1.35h.13a.57.57 0 0 1 .26 0h.13V7.33a.26.26 0 1 0-.52 0M27.67 7.43v1.35l.52.13V7.43a.26.26 0 1 0-.52 0M25.85 7.43v1.48l.52-.13V7.43a.26.26 0 1 0-.52 0M26.39 15.42v3.19l.31-.08a1.26 1.26 0 0 1 .61 0l.31.08v-3.19a.61.61 0 0 0-.61-.61.61.61 0 0 0-.62.61M28.5 15.65v3.19l1.23.3v-3.49a.62.62 0 1 0-1.23 0M24.29 15.65v3.49l1.23-.3v-3.19a.62.62 0 0 0-.62-.65.61.61 0 0 0-.61.62M28.54 12l1.38.72c-.07-1.62-.78-3.37-2.91-3.37s-2.84 1.75-2.92 3.37l1.39-.72zM27.63 5.61l.56.32c0-1.17-.11-2.28-.89-2.5L27 0l-.3 3.43c-.78.22-.86 1.33-.89 2.5l.56-.32zM25.8 6.64zm2.41.18zm0-.18zm-2.44.23l.66-.3h1.14l.65.3c0-.11 0-.37.18-.37l-.74-.39h-1.31l-.74.39c.14 0 .17.26.17.37M24.27 14.23a.89.89 0 0 1 0 .15l1.42-.65h2.6l1.42.65a.41.41 0 0 1 0-.15.49.49 0 0 1 .32-.31l-1.56-.82h-3l-1.47.82a.49.49 0 0 1 .32.31M22.24 21.6a1.85 1.85 0 0 1 0 .23L27 20.75v1.72l4.72 1.08V21.9a1.32 1.32 0 0 1 .05-.26 1.13 1.13 0 0 1 .5-.61L27 19.79 21.74 21a1.18 1.18 0 0 1 .5.61M30.33 26.82a1.7 1.7 0 1 1-1.42 1.68 1.56 1.56 0 0 1 1.42-1.68m-10.07-.66a1.75 1.75 0 0 1 .07.36v.17l1.67-.37 5-1.15v5.56l6.67.65v-4.86a1 1 0 0 1 .07-.36 1.59 1.59 0 0 1 .71-.87L32 24.73l-5-1.14-5 1.14-2.44.56a1.59 1.59 0 0 1 .71.87M36.79 46.71l-35.35 9v-3.36l35.35-8.83zm0 5.21a7.82 7.82 0 0 0-7.45 7.85v5.54h-2.56v-1.07a7.72 7.72 0 1 0-15.44 0v1.07H8.05a7.76 7.76 0 0 0-6.61-4.26v-3.87l35.35-9zm0 6.12a7.88 7.88 0 0 0-4.29-3.51h.38a7.59 7.59 0 0 1 3.91 1.09zm-17.06 7.27A7.85 7.85 0 0 0 14.46 59h.38a7.78 7.78 0 0 1 7.57 6.31zm14-25.53v-5.61a3.22 3.22 0 0 1 .07-.86 1.56 1.56 0 0 1 .55-.77l-.63-.06-6.72-.65-6.7.65-.62.06a1.55 1.55 0 0 1 .54.77 1.87 1.87 0 0 1 .07.47l6.71-.61v8.28L20.85 43a1.55 1.55 0 0 0 0-.22c0-3.18-3.7-6.9-8.27-6.9a8.48 8.48 0 0 0-3.08.58c-.39-3-3.93-6.35-8.23-6.35a9.08 9.08 0 0 0-1.28.1v36.56h38.23V38.64z"></path><path d="M22.26 28.5a1.57 1.57 0 0 0 1.42 1.68 1.7 1.7 0 0 0 0-3.36 1.57 1.57 0 0 0-1.42 1.68"></path></g></g></svg>