<svg id="GATEWAY" xmlns="http://www.w3.org/2000/svg" viewBox="0 0 323.2 62.22"><defs><style>.cls-1{fill:#013057;}.rays{fill:#e7a614}.cls-2{fill:#013057;}</style></defs><path id="State" class="cls-1" d="M136.75,38.21a4.7,4.7,0,0,0,0-.65,3,3,0,0,0-.13-.52,1.58,1.58,0,0,0-.51-.8,8.56,8.56,0,0,1-.68-.88c-.44-.58-.87-1.18-1.34-1.73l-5.68-6.69a4.58,4.58,0,0,1-.9-3.31l.9-5.44a4.06,4.06,0,0,0-1-3.19l-4.88-4.82a2.19,2.19,0,0,0-2.79-.17l-1.28,1a7.14,7.14,0,0,1-3.28,1.26h-.06a3.22,3.22,0,0,1-2.75-1.51l-.09-.16A3.17,3.17,0,0,0,109.78,9a2.1,2.1,0,0,0-1.89,1.45,1.46,1.46,0,0,1-1.57,1.17A1.9,1.9,0,0,1,105,10a2.18,2.18,0,0,0-2-1.66l-3.63-.45c-1-.12-4.56-.93-4.88-1.92l-1-3.1a3,3,0,0,0-.94-1.35,2.69,2.69,0,0,0-1-.69,5.73,5.73,0,0,0-1.48.15,5.67,5.67,0,0,1-1.54,0C88,.8,87.46.76,86.93.63a5.4,5.4,0,0,1-1-.51c-1-.47-2,.52-2.14,1.54l-.38,4.25c-.09,1-2.11,2.88-3,3.38l-2,1.64c-.88.5-2.71-1.62-3.71-1.69l-1.23-.08a2,2,0,0,0-2.06,1.77l-.14,1c-.13,1,.07,3.39-.7,4.06l-.73.62a9.78,9.78,0,0,0-2,2.38c-.31.64,0,1.4-.13,1.67-.29.87-.17,1.38-.85,1.63a2.13,2.13,0,0,1-.3.09,8.67,8.67,0,0,0-2.48,1,2.71,2.71,0,0,0-.61.44,2.48,2.48,0,0,0-.43.67c-.52,1.07-.86,3.61-2.18,4a2.81,2.81,0,0,1-1.44,0A6.32,6.32,0,0,1,56.64,27a5.19,5.19,0,0,0-1.25-1,2.45,2.45,0,0,0-2.63.75,7.32,7.32,0,0,0-1.33,2.57c-.26.72-.77,2.61-1.74,2.53a3.61,3.61,0,0,1-2.75-1.66,3.61,3.61,0,0,0-.71-1,1.6,1.6,0,0,0-1.36-.27,4.24,4.24,0,0,0-1.31.57A5.05,5.05,0,0,0,41,32.27c-.53,2-1.9,1.32-3.3.39a22.12,22.12,0,0,0-2.85-1.86,3.25,3.25,0,0,0-3.25.11c-.54.4-.92,1.05-1.56,1.23-.82.22-1.59-.42-2.36-.79a3.85,3.85,0,0,0-2.63-.23c-1.12.32-1.17,2.2-2.2,2.89-.57.38-1.21.67-1.75,1.1a2.19,2.19,0,0,0-.92,1.76,2.93,2.93,0,0,0,.24.85,16.18,16.18,0,0,1,1,2.62c.13.66-.27.78-.84,1.08a13.6,13.6,0,0,1-3.3,1.15c-1.39.32-3.9,0-4.42,1.72a10.38,10.38,0,0,0-.48,1.88,3.48,3.48,0,0,0,.22,1.53c.29.71.83,1.31,1.06,2A2.26,2.26,0,0,1,13,52.09a1.67,1.67,0,0,1-1.84.26l-4-1.42a2.87,2.87,0,0,0-2,.51l-3,2.74A5.74,5.74,0,0,0,1,56.88c-.23.91-.31,1.86-.61,2.75-.22.69-.78,2.48.26,2.59H56c0-.45-.07-.9-.07-1.36a14.31,14.31,0,1,1,28.61,0c0,.46,0,.91-.06,1.36h29.4A4.93,4.93,0,0,0,117,60.84l9-10a31,31,0,0,1,2.7-2.55l4.25-3.47c.79-.65,2.24-1.86,2.35-2.91,0-.12.25-.36.31-.45a5.37,5.37,0,0,0,.74-1.11,3.29,3.29,0,0,1,.08-.62,4.59,4.59,0,0,0,.14-.45c0-.15.2-.3.23-.46A3.64,3.64,0,0,0,136.75,38.21Z"></path><path id="Rays" class="rays" d="M87.37,56.16l20.49-10-22,6.57,38.92-27.81L83.65,49.72,116.87,15l-36,32.21L93.23,22.55,77.63,45.34,89.13,3.5,74.07,44.19l2-29L70.35,43.8,66.57,25.38l.06,18.81L60.26,31l2.82,14.33L53,32.16l6.81,15.05L44,31.63l13,18.09L30.94,32.15,54.86,52.74,30.29,43.88,53.34,56.16,14,48.39,52.67,59.22l-46.86-3,46.61,6H56c0-.45-.07-.9-.07-1.36a14.31,14.31,0,1,1,28.61,0c0,.46,0,.91-.06,1.36h4.21l28.55-4-29,1,33.09-8Z"></path><path class="cls-2" d="M160.28,9.27A15.36,15.36,0,0,1,170,13a.7.7,0,0,1,.08,1.08l-3.14,3.33a.83.83,0,0,1-1.07,0,7.31,7.31,0,0,0-5.21-1.9,8,8,0,0,0,0,15.93,9.35,9.35,0,0,0,3.54-.64v-2.3h-2.5a.73.73,0,0,1-.76-.72V23.89a.73.73,0,0,1,.76-.75h8a.74.74,0,0,1,.72.75l0,10.69a1,1,0,0,1-.31.63,20.07,20.07,0,0,1-9.85,2.58,14.26,14.26,0,1,1,0-28.52Z"></path><path class="cls-2" d="M172.31,36.4,184.75,9.67a.81.81,0,0,1,.67-.44h.4a.81.81,0,0,1,.68.44L198.93,36.4a.71.71,0,0,1-.68,1h-4.4c-.72,0-1-.24-1.4-1L191,33.3h-10.8l-1.43,3.18a1.49,1.49,0,0,1-1.43,1H173A.71.71,0,0,1,172.31,36.4Zm16.33-8.5-3-6.55h0l-3,6.55Z"></path><path class="cls-2" d="M204.34,15.47h-5.69a.76.76,0,0,1-.75-.76V10.38a.76.76,0,0,1,.75-.75h17.64a.76.76,0,0,1,.76.75v4.33a.76.76,0,0,1-.76.76h-5.68V36.68a.79.79,0,0,1-.75.76h-4.77a.78.78,0,0,1-.75-.76Z"></path><path class="cls-2" d="M221,10.38a.76.76,0,0,1,.76-.75h16.44a.76.76,0,0,1,.76.75v4.33a.76.76,0,0,1-.76.76h-11v4.92h9.06a.79.79,0,0,1,.75.76v4.33a.75.75,0,0,1-.75.75h-9.06V31.6h11a.75.75,0,0,1,.76.75v4.33a.76.76,0,0,1-.76.76H221.78a.76.76,0,0,1-.76-.76Z"></path><path class="cls-2" d="M241.84,10.58a.69.69,0,0,1,.71-.95h4.65a.83.83,0,0,1,.72.55l3.41,13.47h.16l6.16-14a.76.76,0,0,1,.67-.44H259a.67.67,0,0,1,.67.44l6.16,14H266l3.42-13.47a.81.81,0,0,1,.71-.55h4.65a.69.69,0,0,1,.71.95L268,37.28a.77.77,0,0,1-.72.55h-.63a.82.82,0,0,1-.68-.43l-7.27-16.25h-.12L251.37,37.4a.81.81,0,0,1-.67.43h-.64a.76.76,0,0,1-.71-.55Z"></path><path class="cls-2" d="M275.05,36.4,287.49,9.67a.78.78,0,0,1,.67-.44h.4a.8.8,0,0,1,.67.44L301.67,36.4a.71.71,0,0,1-.68,1h-4.41c-.71,0-1-.24-1.39-1l-1.43-3.14H283l-1.43,3.18a1.49,1.49,0,0,1-1.43,1h-4.37A.71.71,0,0,1,275.05,36.4Zm16.33-8.5-3-6.55h0l-3,6.55Z"></path><path class="cls-2" d="M308,24.05l-8.78-13.27a.73.73,0,0,1,.63-1.15H305a.79.79,0,0,1,.63.36l5.52,8.14L316.65,10a.71.71,0,0,1,.63-.36h5.17a.73.73,0,0,1,.63,1.15L314.18,24V36.68a.79.79,0,0,1-.75.76H308.7a.75.75,0,0,1-.75-.76Z"></path><path class="cls-2" d="M149.68,42.3a3.58,3.58,0,0,1,2.59,1,.2.2,0,0,1,0,.31l-.65.7a.17.17,0,0,1-.27,0,2.5,2.5,0,1,0-1.64,4.48,2.51,2.51,0,0,0,1.64-.63.19.19,0,0,1,.27,0l.67.71a.22.22,0,0,1,0,.3,3.61,3.61,0,0,1-2.6,1.07,4,4,0,0,1,0-8Z"></path><path class="cls-2" d="M156.75,42.3a4,4,0,1,1-3.85,4A3.91,3.91,0,0,1,156.75,42.3Zm0,6.53a2.55,2.55,0,1,0-2.46-2.53A2.51,2.51,0,0,0,156.75,48.83Z"></path><path class="cls-2" d="M162.68,42.47a.18.18,0,0,1,.19-.17H163a.22.22,0,0,1,.19.11l2.36,5.23h0L168,42.41a.18.18,0,0,1,.18-.11h.17a.18.18,0,0,1,.19.17l1.27,7.43c0,.16,0,.26-.19.26h-1a.22.22,0,0,1-.2-.17l-.64-4.19h0l-1.88,4.35a.18.18,0,0,1-.18.12h-.19a.19.19,0,0,1-.18-.12l-1.9-4.35h0L162.76,50a.2.2,0,0,1-.19.17h-1a.21.21,0,0,1-.21-.26Z"></path><path class="cls-2" d="M172,42.47a.19.19,0,0,1,.2-.17h.17a.21.21,0,0,1,.18.11l2.36,5.23h0l2.36-5.23a.19.19,0,0,1,.18-.11h.18a.19.19,0,0,1,.19.17l1.26,7.43a.19.19,0,0,1-.19.26h-1a.24.24,0,0,1-.21-.17l-.63-4.19h0l-1.88,4.35a.19.19,0,0,1-.18.12h-.2a.2.2,0,0,1-.18-.12l-1.9-4.35h0L172.1,50a.21.21,0,0,1-.19.17h-1c-.14,0-.22-.1-.2-.26Z"></path><path class="cls-2" d="M180.34,42.62a.22.22,0,0,1,.2-.21h1a.21.21,0,0,1,.21.21v4.53a1.56,1.56,0,1,0,3.12,0V42.62a.2.2,0,0,1,.2-.21h1a.22.22,0,0,1,.21.21v4.61a3,3,0,1,1-6,0Z"></path><path class="cls-2" d="M188.11,42.5a.21.21,0,0,1,.21-.2h.26l4.47,4.89h0V42.62a.2.2,0,0,1,.2-.21h1a.22.22,0,0,1,.2.21v7.45a.21.21,0,0,1-.2.2H194l-4.48-5.08h0V50a.21.21,0,0,1-.21.21h-1a.22.22,0,0,1-.21-.21Z"></path><path class="cls-2" d="M196.33,42.62a.22.22,0,0,1,.2-.21h1a.21.21,0,0,1,.2.21V50a.21.21,0,0,1-.2.21h-1a.22.22,0,0,1-.2-.21Z"></path><path class="cls-2" d="M200.57,43.74h-1.64a.2.2,0,0,1-.2-.21v-.91a.2.2,0,0,1,.2-.21h4.69a.2.2,0,0,1,.2.21v.91a.2.2,0,0,1-.2.21H202V50a.22.22,0,0,1-.21.21h-1a.22.22,0,0,1-.2-.21Z"></path><path class="cls-2" d="M206.77,46.43l-2.45-3.7a.21.21,0,0,1,.17-.32h1.1a.23.23,0,0,1,.17.1l1.72,2.55,1.71-2.55a.25.25,0,0,1,.17-.1h1.11a.2.2,0,0,1,.17.32l-2.48,3.69V50a.21.21,0,0,1-.2.21h-1a.2.2,0,0,1-.2-.21Z"></path><path class="cls-2" d="M147.65,56.29v0l-.22-.26a2.18,2.18,0,0,1-.73-1.59,2,2,0,0,1,4.05,0c0,1.14-1.09,1.81-1.31,2l1.24,1.29a4.9,4.9,0,0,0,.38-1.23c0-.23.11-.36.36-.28l.59.18c.27.08.2.32.18.43a7.53,7.53,0,0,1-.67,1.76l1,.93c.13.13.23.25,0,.51l-.44.46a.31.31,0,0,1-.48,0l-.77-.81a3,3,0,0,1-2.34.94,2.12,2.12,0,0,1-2.26-2.08A2.62,2.62,0,0,1,147.65,56.29Zm.92,3.12a1.77,1.77,0,0,0,1.39-.65L148.36,57a1.57,1.57,0,0,0-.91,1.36A1.05,1.05,0,0,0,148.57,59.41Zm1-4.91a.86.86,0,0,0-.91-.83.74.74,0,0,0-.79.75c0,.39.23.64.55,1l.24.25C148.84,55.56,149.59,55.18,149.59,54.5Z"></path><path class="cls-2" d="M156.57,54.06h-1.65a.2.2,0,0,1-.2-.21V53a.21.21,0,0,1,.2-.21h4.69a.21.21,0,0,1,.21.21v.9a.21.21,0,0,1-.21.21H158v6.21a.22.22,0,0,1-.2.21h-1a.21.21,0,0,1-.2-.21Z"></path><path class="cls-2" d="M160.63,53a.2.2,0,0,1,.2-.21h4.37a.21.21,0,0,1,.2.21v.9a.2.2,0,0,1-.2.21H162v1.82h2.65a.21.21,0,0,1,.2.21V57a.2.2,0,0,1-.2.21H162v1.93h3.18a.21.21,0,0,1,.2.21v.91a.21.21,0,0,1-.2.21h-4.37a.2.2,0,0,1-.2-.21Z"></path><path class="cls-2" d="M169.92,52.63a3.57,3.57,0,0,1,2.6,1,.22.22,0,0,1,0,.31l-.66.69a.17.17,0,0,1-.27,0,2.56,2.56,0,1,0,0,3.85.2.2,0,0,1,.27,0l.67.71a.23.23,0,0,1,0,.3,3.64,3.64,0,0,1-2.61,1.07,4,4,0,0,1,0-8Z"></path><path class="cls-2" d="M173.62,53a.22.22,0,0,1,.21-.21h1A.21.21,0,0,1,175,53v2.93h3.5V53a.2.2,0,0,1,.2-.21h1a.22.22,0,0,1,.2.21v7.32a.22.22,0,0,1-.2.21h-1a.2.2,0,0,1-.2-.21V57.22H175v3.05a.21.21,0,0,1-.21.21h-1a.22.22,0,0,1-.21-.21Z"></path><path class="cls-2" d="M181.61,52.83a.2.2,0,0,1,.2-.2h.27l4.46,4.89h0V53a.21.21,0,0,1,.2-.21h1a.21.21,0,0,1,.2.21v7.44a.2.2,0,0,1-.2.2h-.26L183,55.51h0v4.76a.21.21,0,0,1-.2.21h-1a.21.21,0,0,1-.2-.21Z"></path><path class="cls-2" d="M189.63,53a.22.22,0,0,1,.2-.21h1a.21.21,0,0,1,.2.21v7.32a.21.21,0,0,1-.2.21h-1a.22.22,0,0,1-.2-.21Z"></path><path class="cls-2" d="M196.06,52.63a3.55,3.55,0,0,1,2.6,1,.22.22,0,0,1,0,.31l-.66.69a.16.16,0,0,1-.26,0,2.51,2.51,0,0,0-1.66-.65,2.57,2.57,0,0,0,0,5.13,2.51,2.51,0,0,0,1.64-.63.19.19,0,0,1,.26,0l.67.71a.23.23,0,0,1,0,.3,3.62,3.62,0,0,1-2.61,1.07,4,4,0,0,1,0-8Z"></path><path class="cls-2" d="M199,60.19l3.34-7.44a.19.19,0,0,1,.18-.12h.11a.17.17,0,0,1,.18.12l3.31,7.44a.2.2,0,0,1-.19.29H205a.3.3,0,0,1-.31-.22l-.53-1.19H201l-.53,1.19a.32.32,0,0,1-.31.22h-.93A.2.2,0,0,1,199,60.19Zm4.64-2.35L202.6,55.4h0l-1.05,2.44Z"></path><path class="cls-2" d="M206.9,53a.21.21,0,0,1,.2-.21h1a.22.22,0,0,1,.21.21v6.2H211a.2.2,0,0,1,.2.21v.91a.2.2,0,0,1-.2.21H207.1a.21.21,0,0,1-.2-.21Z"></path><path class="cls-2" d="M223.22,42.2a8.65,8.65,0,0,1,6.24,2.4.47.47,0,0,1,0,.72l-2,2.09a.46.46,0,0,1-.65,0,5.27,5.27,0,0,0-3.48-1.32,5.28,5.28,0,0,0,0,10.56,5.45,5.45,0,0,0,3.46-1.24.51.51,0,0,1,.67,0l2,2.14a.52.52,0,0,1,0,.7,8.89,8.89,0,0,1-6.27,2.5,9.29,9.29,0,1,1,0-18.58Z"></path><path class="cls-2" d="M239.86,42.2a9.29,9.29,0,1,1-9.27,9.32A9.27,9.27,0,0,1,239.86,42.2Zm0,14.45a5.16,5.16,0,1,0-5.14-5.13A5.17,5.17,0,0,0,239.86,56.65Z"></path><path class="cls-2" d="M252,43a.5.5,0,0,1,.49-.5h3.07a.52.52,0,0,1,.5.5V56.73h6.14a.49.49,0,0,1,.49.49V60a.5.5,0,0,1-.49.5h-9.71A.5.5,0,0,1,252,60Z"></path><path class="cls-2" d="M264.77,43a.49.49,0,0,1,.49-.5h3.07a.51.51,0,0,1,.49.5V56.73H275a.48.48,0,0,1,.49.49V60a.49.49,0,0,1-.49.5h-9.7a.49.49,0,0,1-.49-.5Z"></path><path class="cls-2" d="M277.49,43a.5.5,0,0,1,.49-.5h10.69a.5.5,0,0,1,.49.5v2.81a.49.49,0,0,1-.49.49h-7.15v3.2h5.88a.5.5,0,0,1,.49.49v2.81a.48.48,0,0,1-.49.49h-5.88v3.49h7.15a.49.49,0,0,1,.49.49V60a.5.5,0,0,1-.49.5H278a.5.5,0,0,1-.49-.5Z"></path><path class="cls-2" d="M300.29,42.22a10,10,0,0,1,6.3,2.43.46.46,0,0,1,.06.7l-2,2.16a.56.56,0,0,1-.7,0,4.77,4.77,0,0,0-3.38-1.24,5.18,5.18,0,0,0,0,10.35,6.08,6.08,0,0,0,2.3-.41v-1.5h-1.63a.47.47,0,0,1-.49-.46V51.72a.48.48,0,0,1,.49-.49h5.19a.49.49,0,0,1,.47.49l0,7a.67.67,0,0,1-.2.41,13,13,0,0,1-6.41,1.68,9.27,9.27,0,0,1,0-18.54Z"></path><path class="cls-2" d="M310.37,43a.5.5,0,0,1,.49-.5h10.69a.5.5,0,0,1,.49.5v2.81a.49.49,0,0,1-.49.49H314.4v3.2h5.89a.51.51,0,0,1,.49.49v2.81a.49.49,0,0,1-.49.49H314.4v3.49h7.15a.49.49,0,0,1,.49.49V60a.5.5,0,0,1-.49.5H310.86a.5.5,0,0,1-.49-.5Z"></path></svg>