<?xml version="1.0" encoding="UTF-8"?>
<svg viewBox="0 0 336.28 62.22" xmlns="http://www.w3.org/2000/svg">
<defs>
<style>.cls-1{fill:#00467f;}.cls-2{fill:#e7a614;}.cls-3{fill:#fff;}</style>
</defs>
<path class="cls-1" d="m136.75,38.21c0-.21.03-.45,0-.65-.02-.18-.08-.33-.13-.52-.09-.36-.28-.54-.51-.79-.25-.27-.46-.58-.68-.88-.44-.59-.87-1.18-1.34-1.74l-5.68-6.68c-.67-.78-1.07-2.27-.9-3.31l.91-5.44c.17-1.04-.28-2.47-1.01-3.19l-4.88-4.81c-.73-.72-1.99-.8-2.79-.17l-1.27.99c-.81.62-2.28,1.19-3.28,1.26h-.06c-1,.07-2.24-.61-2.75-1.51l-.09-.16c-.52-.9-1.63-1.62-2.49-1.59-.85.03-1.7.68-1.89,1.45s-.89,1.29-1.57,1.17c-.68-.12-1.3-.87-1.38-1.66-.08-.79-.96-1.54-1.95-1.66l-3.63-.45c-.99-.12-4.56-.93-4.88-1.92l-1.01-3.1c-.17-.53-.53-.99-.94-1.35-.28-.24-.62-.59-.99-.69-.48-.12-1,.12-1.48.15-.5.03-1.04.1-1.54-.02-.52-.12-1.06-.17-1.59-.3-.36-.09-.69-.35-1.02-.51-.97-.48-2.05.51-2.14,1.53,0,.02-.37,4.26-.37,4.26-.09,1.05-2.11,2.88-2.99,3.38l-2.03,1.64c-.88.5-2.71-1.62-3.71-1.69l-1.22-.08c-1-.07-1.93.73-2.06,1.77l-.13,1.03c-.14,1.04.07,3.39-.71,4.06l-.72.62c-.77.67-1.66,1.74-1.98,2.38-.31.64-.05,1.4-.14,1.67-.29.87-.17,1.37-.85,1.63-.08.03-.18.06-.29.08-.91.2-1.67.52-2.48.99-.22.13-.44.25-.62.44-.18.19-.31.43-.42.67-.52,1.08-.87,3.61-2.19,4-.46.14-.96.08-1.44-.03-1.02-.24-1.98-.74-2.76-1.44-.4-.36-.76-.78-1.25-.99-.89-.39-1.97.04-2.63.75-.66.71-1,1.65-1.33,2.57-.26.72-.77,2.61-1.74,2.54-1.11-.09-2.15-.72-2.74-1.66-.22-.35-.39-.75-.71-1.01-.37-.3-.89-.37-1.36-.27-.47.1-.9.33-1.31.58-1.1.66-2.22,1.51-2.55,2.75-.54,2.05-1.9,1.32-3.3.4-.95-.63-1.82-1.4-2.85-1.86s-2.34-.58-3.25.11c-.54.4-.92,1.06-1.56,1.23-.82.22-1.59-.42-2.35-.78-.81-.39-1.77-.47-2.63-.23-1.12.31-1.17,2.2-2.2,2.88-.57.38-1.21.67-1.75,1.1-.54.43-.97,1.07-.92,1.76.02.29.13.58.24.85.31.8.88,1.78,1.04,2.62.12.66-.28.78-.84,1.08-1.04.55-2.17.89-3.3,1.15-1.39.32-3.9.03-4.42,1.72-.19.62-.42,1.24-.48,1.88-.05.5.03,1.06.22,1.53.29.71.83,1.32,1.06,2.04.28.9-.09,1.72-.75,2.35-.51.49-1.18.51-1.83.26l-4.03-1.41s-.81-.22-2.03.51l-2.99,2.74c-.71.75-.86,1.75-1.11,2.7-.23.91-.31,1.86-.61,2.75-.22.68-.79,2.48.26,2.59h55.37c-.04-.45-.07-.9-.07-1.36,0-7.9,6.41-14.31,14.31-14.31s14.31,6.41,14.31,14.31c0,.46-.03.91-.07,1.36h29.4c1,0,2.39-.62,3.09-1.38l9-9.95c.7-.76,1.91-1.9,2.7-2.55l4.25-3.47c.79-.65,2.24-1.86,2.35-2.91.01-.13.24-.36.31-.46.21-.32.63-.74.74-1.11.06-.2,0-.41.09-.62.07-.16.09-.3.14-.45.05-.16.2-.3.23-.46.04-.19,0-.46,0-.66Z"/>
<path class="cls-2" d="m87.37,56.16l20.49-9.99-22.01,6.57,38.92-27.81-41.12,24.79L116.87,15l-36.01,32.21,12.36-24.67-15.6,22.8L89.13,3.5l-15.06,40.69,1.98-28.96-5.69,28.57-3.78-18.42.06,18.81-6.37-13.18,2.82,14.33-10.05-13.19,6.81,15.06-15.8-15.59,13.02,18.09-26.12-17.57,23.92,20.6-24.57-8.86,23.05,12.28-39.32-7.77,38.65,10.83-46.86-2.98,46.61,5.98h3.56c-.04-.45-.07-.9-.07-1.36,0-7.9,6.41-14.31,14.31-14.31s14.31,6.41,14.31,14.31c0,.46-.03.91-.07,1.36h4.22l28.55-4-29.05.99,33.08-8.02-33.89,4.96Z"/>
<path class="cls-3" d="m84.52,60.86c0-7.9-6.41-14.31-14.31-14.31s-14.31,6.41-14.31,14.31c0,.46.03.91.07,1.36h28.48c.04-.45.07-.9.07-1.36Z"/>
<path class="cls-1" d="m147,10.31c0-.37.3-.71.71-.71h8.68c4.39,0,8.01,3.02,8.01,6.93,0,2.87-2.57,4.95-4.32,5.88,1.97.82,4.99,2.64,4.99,6.07,0,4.17-3.69,7.19-8.12,7.19h-9.24c-.41,0-.71-.33-.71-.71V10.31Zm8.72,9.87c1.42,0,2.61-1.19,2.61-2.68s-1.19-2.53-2.61-2.53h-2.91v5.21h2.91Zm.48,10.17c1.45,0,2.68-1.19,2.68-2.72s-1.6-2.61-3.05-2.61h-3.02v5.33h3.39Z"/>
<path class="cls-1" d="m169.8,10.31c0-.37.34-.71.71-.71h4.47c.37,0,.71.34.71.71v24.66c0,.37-.33.71-.71.71h-4.47c-.37,0-.71-.33-.71-.71V10.31Z"/>
<path class="cls-1" d="m193.6,9.27c3.13,0,6.55,1.3,9.09,3.5.33.26.37.71.07,1.01l-2.94,3.13c-.3.26-.71.26-1,.04-1.42-1.3-3.05-1.79-4.88-1.79-4.06,0-7.34,3.43-7.34,7.52s3.31,7.41,7.37,7.41c1.08,0,2.2-.15,3.32-.6v-2.16h-2.35c-.41,0-.71-.3-.71-.67v-3.69c0-.41.3-.71.71-.71h7.49c.37,0,.67.33.67.71l.04,10.02c0,.19-.15.48-.3.6,0,0-3.84,2.42-9.24,2.42-7.41,0-13.37-5.88-13.37-13.33s5.96-13.41,13.37-13.41Z"/>
<path class="cls-1" d="m214.97,32.14l1.75-3.09c.3-.48,1.01-.41,1.27-.22.15.07,2.83,2.05,5.29,2.05,1.49,0,2.57-.93,2.57-2.23,0-1.57-1.3-2.76-3.84-3.76-3.2-1.27-7.23-3.76-7.23-8.23,0-3.69,2.87-7.41,8.6-7.41,3.87,0,6.85,1.97,7.97,2.79.45.26.37.93.22,1.19l-1.9,2.87c-.26.41-.93.74-1.27.48-.34-.19-3.05-2.23-5.33-2.23-1.34,0-2.35.89-2.35,1.9,0,1.38,1.12,2.42,4.06,3.61,2.91,1.15,7.52,3.43,7.52,8.49,0,3.84-3.31,7.71-8.79,7.71-4.84,0-7.52-2.01-8.38-2.87-.37-.37-.48-.52-.19-1.04Z"/>
<path class="cls-1" d="m233.52,34.71l11.66-25.07c.11-.22.37-.41.63-.41h.37c.26,0,.52.19.63.41l11.66,25.07c.22.48-.07.97-.63.97h-4.13c-.67,0-.97-.22-1.3-.93l-1.34-2.94h-10.13l-1.34,2.98c-.19.45-.6.89-1.34.89h-4.1c-.56,0-.86-.48-.63-.97Zm15.31-7.97l-2.83-6.15h-.04l-2.79,6.15h5.66Z"/>
<path class="cls-1" d="m261.49,9.9c0-.37.34-.67.71-.67h.93l14.86,14.3h.04v-13.22c0-.37.3-.71.71-.71h4.47c.37,0,.71.34.71.71v25.07c0,.37-.33.67-.71.67h-.6c-.11,0-.41-.11-.48-.19l-14.71-14.79h-.04v13.89c0,.37-.3.71-.71.71h-4.43c-.37,0-.71-.33-.71-.71l-.04-25.07Z"/>
<path class="cls-1" d="m290.32,10.31c0-.37.3-.71.67-.71h9.09c7.19,0,13.07,5.85,13.07,13s-5.88,13.07-13.07,13.07h-9.09c-.37,0-.67-.33-.67-.71V10.31Zm9.39,19.85c4.21,0,7.26-3.31,7.26-7.56s-3.05-7.52-7.26-7.52h-3.58v15.08h3.58Z"/>
<path class="cls-1" d="m321.97,23.12l-8.23-12.44c-.3-.48,0-1.08.6-1.08h4.84c.3,0,.48.19.6.34l5.18,7.64,5.18-7.64c.11-.15.26-.34.6-.34h4.84c.6,0,.89.6.6,1.08l-8.34,12.4v11.88c0,.37-.33.71-.71.71h-4.43c-.41,0-.71-.33-.71-.71v-11.84Z"/>
<path class="cls-1" d="m149.93,41.19c1.15,0,1.99.38,2.76,1.1.1.09.1.24.01.33l-.7.74c-.08.09-.19.09-.29,0-.48-.44-1.12-.7-1.76-.7-1.46,0-2.55,1.26-2.55,2.74s1.1,2.72,2.56,2.72c.68,0,1.27-.27,1.75-.67.09-.08.22-.07.29,0l.71.75c.09.08.07.24-.01.32-.78.78-1.76,1.14-2.77,1.14-2.28,0-4.12-1.87-4.12-4.23s1.84-4.25,4.12-4.25Z"/>
<path class="cls-1" d="m157.45 41.19c2.28 0 4.11 1.9 4.11 4.25s-1.83 4.23-4.11 4.23-4.1-1.87-4.1-4.23 1.82-4.25 4.1-4.25zm0 6.95c1.44 0 2.63-1.21 2.63-2.7s-1.19-2.72-2.63-2.72-2.61 1.23-2.61 2.72 1.18 2.7 2.61 2.7z"/>
<path class="cls-1" d="m163.76,41.37c.01-.1.08-.18.21-.18h.18c.09,0,.16.05.19.12l2.51,5.56h.03l2.51-5.56c.03-.07.09-.12.19-.12h.18c.13,0,.19.08.21.18l1.35,7.91c.03.16-.06.27-.21.27h-1.04c-.1,0-.19-.09-.22-.18l-.67-4.46h-.03l-2,4.63c-.02.07-.09.13-.19.13h-.21c-.1,0-.16-.06-.19-.13l-2.02-4.63h-.03l-.66,4.46c-.01.08-.1.18-.2.18h-1.03c-.15,0-.24-.11-.22-.27l1.36-7.91Z"/>
<path class="cls-1" d="m173.69,41.37c.01-.1.08-.18.21-.18h.18c.09,0,.16.05.19.12l2.51,5.56h.03l2.51-5.56c.03-.07.09-.12.19-.12h.18c.13,0,.19.08.21.18l1.35,7.91c.03.16-.06.27-.21.27h-1.04c-.1,0-.19-.09-.22-.18l-.67-4.46h-.03l-2,4.63c-.02.07-.09.13-.19.13h-.21c-.1,0-.16-.06-.19-.13l-2.02-4.63h-.03l-.66,4.46c-.01.08-.1.18-.2.18h-1.03c-.15,0-.24-.11-.22-.27l1.36-7.91Z"/>
<path class="cls-1" d="m182.55,41.53c0-.12.1-.22.22-.22h1.09c.13,0,.22.11.22.22v4.81c0,1,.66,1.79,1.65,1.79s1.67-.79,1.67-1.78v-4.83c0-.12.09-.22.22-.22h1.08c.11,0,.22.11.22.22v4.9c0,1.79-1.38,3.24-3.19,3.24s-3.17-1.45-3.17-3.24v-4.9Z"/>
<path class="cls-1" d="m190.82,41.4c0-.12.1-.21.22-.21h.29l4.75,5.2h.01v-4.86c0-.12.09-.22.22-.22h1.05c.11,0,.22.11.22.22v7.92c0,.12-.1.21-.22.21h-.27l-4.77-5.4h-.01v5.06c0,.12-.09.22-.22.22h-1.04c-.11,0-.22-.11-.22-.22v-7.92Z"/>
<path class="cls-1" d="m199.56,41.53c0-.12.1-.22.22-.22h1.06c.11,0,.22.11.22.22v7.79c0,.12-.1.22-.22.22h-1.06c-.11,0-.22-.11-.22-.22v-7.79Z"/>
<path class="cls-1" d="m204.07,42.72h-1.75c-.12,0-.22-.11-.22-.22v-.96c0-.12.09-.22.22-.22h4.99c.13,0,.22.11.22.22v.96c0,.12-.09.22-.22.22h-1.75v6.6c0,.12-.1.22-.22.22h-1.06c-.11,0-.22-.11-.22-.22v-6.6Z"/>
<path class="cls-1" d="m210.67,45.58l-2.6-3.93c-.09-.15,0-.34.18-.34h1.16c.09,0,.15.06.18.11l1.83,2.71,1.83-2.71s.09-.11.18-.11h1.18c.18,0,.27.19.18.34l-2.64,3.92v3.75c0,.12-.1.22-.22.22h-1.05c-.13,0-.22-.11-.22-.22v-3.74Z"/>
<path class="cls-1" d="m147.77,56.07v-.02l-.24-.27c-.46-.49-.79-1-.78-1.7,0-.89.72-1.91,2.16-1.91,1.28,0,2.16.86,2.16,1.92,0,1.21-1.16,1.93-1.39,2.14l1.31,1.37c.18-.38.33-.86.41-1.31.05-.25.11-.38.38-.29l.63.19c.3.08.22.34.19.46-.19.85-.56,1.59-.71,1.87l1.02.99c.14.14.25.27-.02.54l-.47.49c-.14.13-.32.15-.5-.04l-.82-.86c-.21.25-1,1-2.49,1s-2.41-1.01-2.41-2.21c0-1.55,1.37-2.24,1.58-2.37Zm.98,3.32c.86,0,1.3-.49,1.47-.69l-1.7-1.86c-.18.12-.97.51-.97,1.45,0,.65.52,1.11,1.2,1.11Zm1.09-5.23c0-.45-.38-.88-.97-.88-.52,0-.84.37-.84.8-.01.41.25.68.59,1.06l.25.26c.17-.11.97-.51.97-1.24Z"/>
<path class="cls-1" d="m157.26,53.71h-1.75c-.13,0-.22-.11-.22-.22v-.96c0-.12.09-.22.22-.22h4.99c.12,0,.22.11.22.22v.96c0,.12-.09.22-.22.22h-1.75v6.6c0,.12-.1.22-.22.22h-1.06c-.11,0-.22-.11-.22-.22v-6.6Z"/>
<path class="cls-1" d="m161.58,52.52c0-.12.09-.22.22-.22h4.65c.13,0,.22.11.22.22v.96c0,.12-.09.22-.22.22h-3.38v1.93h2.82c.11,0,.22.11.22.22v.98c0,.13-.1.22-.22.22h-2.82v2.06h3.38c.13,0,.22.11.22.22v.96c0,.12-.09.22-.22.22h-4.65c-.13,0-.22-.11-.22-.22v-7.79Z"/>
<path class="cls-1" d="m171.47,52.18c1.15,0,1.99.38,2.76,1.1.1.09.1.24.01.33l-.7.74c-.08.09-.19.09-.29,0-.48-.44-1.12-.7-1.76-.7-1.46,0-2.55,1.26-2.55,2.74s1.1,2.72,2.56,2.72c.68,0,1.27-.27,1.75-.67.09-.08.22-.07.29,0l.71.75c.09.08.07.24-.01.32-.78.78-1.76,1.14-2.77,1.14-2.28,0-4.12-1.87-4.12-4.23s1.84-4.25,4.12-4.25Z"/>
<path class="cls-1" d="m175.4,52.52c0-.12.1-.22.22-.22h1.06c.13,0,.22.11.22.22v3.12h3.72v-3.12c0-.12.09-.22.22-.22h1.05c.11,0,.22.11.22.22v7.79c0,.12-.1.22-.22.22h-1.05c-.13,0-.22-.11-.22-.22v-3.25h-3.72v3.25c0,.12-.09.22-.22.22h-1.06c-.11,0-.22-.11-.22-.22v-7.79Z"/>
<path class="cls-1" d="m183.9,52.39c0-.12.1-.21.22-.21h.29l4.75,5.2h.01v-4.86c0-.12.09-.22.22-.22h1.05c.11,0,.22.11.22.22v7.92c0,.12-.1.21-.22.21h-.27l-4.77-5.4h-.01v5.06c0,.12-.09.22-.22.22h-1.04c-.11,0-.22-.11-.22-.22v-7.92Z"/>
<path class="cls-1" d="m192.43,52.52c0-.12.1-.22.22-.22h1.06c.11,0,.22.11.22.22v7.79c0,.12-.1.22-.22.22h-1.06c-.11,0-.22-.11-.22-.22v-7.79Z"/>
<path class="cls-1" d="m199.28,52.18c1.15,0,1.99.38,2.76,1.1.1.09.1.24.01.33l-.7.74c-.08.09-.19.09-.29,0-.48-.44-1.12-.7-1.76-.7-1.46,0-2.55,1.26-2.55,2.74s1.1,2.72,2.56,2.72c.68,0,1.27-.27,1.75-.67.09-.08.22-.07.29,0l.71.75c.09.08.07.24-.01.32-.78.78-1.76,1.14-2.77,1.14-2.28,0-4.12-1.87-4.12-4.23s1.84-4.25,4.12-4.25Z"/>
<path class="cls-1" d="m202.44,60.23l3.55-7.92c.03-.07.09-.13.19-.13h.11c.11,0,.16.06.19.13l3.52,7.92c.07.15-.02.31-.19.31h-.99c-.17,0-.25-.07-.33-.24l-.56-1.27h-3.41l-.56,1.27c-.05.12-.15.24-.33.24h-.99c-.17,0-.26-.15-.19-.31Zm4.93-2.51l-1.14-2.59h-.03l-1.12,2.59h2.29Z"/>
<path class="cls-1" d="m210.81,52.52c0-.12.09-.22.22-.22h1.05c.11,0,.22.11.22.22v6.6h2.91c.12,0,.22.11.22.22v.96c0,.12-.09.22-.22.22h-4.18c-.13,0-.22-.11-.22-.22v-7.79Z"/>
<path class="cls-1" d="m229.37,41.08c2.75,0,4.78.85,6.65,2.56.25.22.25.55.03.77l-2.14,2.22c-.19.19-.5.19-.69,0-1.02-.91-2.36-1.4-3.71-1.4-3.11,0-5.39,2.58-5.39,5.66s2.31,5.58,5.41,5.58c1.29,0,2.69-.47,3.68-1.32.19-.16.55-.16.71.03l2.14,2.28c.19.19.16.55-.03.74-1.87,1.81-4.23,2.66-6.68,2.66-5.49,0-9.92-4.37-9.92-9.86s4.42-9.92,9.92-9.92Z"/>
<path class="cls-1" d="m247.08 41.08c5.5 0 9.89 4.42 9.89 9.92s-4.4 9.86-9.89 9.86-9.86-4.37-9.86-9.86 4.37-9.92 9.86-9.92zm0 15.39c3.02 0 5.5-2.47 5.5-5.47s-2.47-5.52-5.5-5.52-5.47 2.5-5.47 5.52 2.47 5.47 5.47 5.47z"/>
<path class="cls-1" d="m260.05,41.87c0-.28.22-.52.52-.52h3.27c.27,0,.52.25.52.52v14.67h6.54c.3,0,.52.25.52.52v3c0,.27-.22.52-.52.52h-10.33c-.3,0-.52-.25-.52-.52v-18.19Z"/>
<path class="cls-1" d="m273.59,41.87c0-.28.22-.52.52-.52h3.27c.27,0,.52.25.52.52v14.67h6.54c.3,0,.52.25.52.52v3c0,.27-.22.52-.52.52h-10.33c-.3,0-.52-.25-.52-.52v-18.19Z"/>
<path class="cls-1" d="m287.13,41.87c0-.28.22-.52.52-.52h11.37c.3,0,.52.25.52.52v2.99c0,.27-.22.52-.52.52h-7.61v3.41h6.26c.27,0,.52.25.52.52v3c0,.3-.25.52-.52.52h-6.26v3.71h7.61c.3,0,.52.25.52.52v3c0,.27-.22.52-.52.52h-11.37c-.3,0-.52-.25-.52-.52v-18.19Z"/>
<path class="cls-1" d="m311.4,41.1c2.31,0,4.84.96,6.7,2.58.25.19.27.52.05.74l-2.17,2.31c-.22.19-.52.19-.74.03-1.04-.96-2.25-1.32-3.6-1.32-3,0-5.41,2.53-5.41,5.55s2.45,5.47,5.44,5.47c.8,0,1.62-.11,2.44-.44v-1.59h-1.73c-.3,0-.52-.22-.52-.5v-2.72c0-.3.22-.52.52-.52h5.52c.27,0,.49.25.49.52l.03,7.39c0,.14-.11.36-.22.44,0,0-2.83,1.79-6.81,1.79-5.47,0-9.86-4.34-9.86-9.83s4.4-9.89,9.86-9.89Z"/>
<path class="cls-1" d="m322.13,41.87c0-.28.22-.52.52-.52h11.37c.3,0,.52.25.52.52v2.99c0,.27-.22.52-.52.52h-7.61v3.41h6.26c.27,0,.52.25.52.52v3c0,.3-.25.52-.52.52h-6.26v3.71h7.61c.3,0,.52.25.52.52v3c0,.27-.22.52-.52.52h-11.37c-.3,0-.52-.25-.52-.52v-18.19Z"/>
</svg>
