<?xml version="1.0" encoding="UTF-8" standalone="no"?>
<!-- Created with Inkscape (http://www.inkscape.org/) -->

<svg
   xmlns:dc="http://purl.org/dc/elements/1.1/"
   xmlns:cc="http://creativecommons.org/ns#"
   xmlns:rdf="http://www.w3.org/1999/02/22-rdf-syntax-ns#"
   xmlns:svg="http://www.w3.org/2000/svg"
   xmlns="http://www.w3.org/2000/svg"
   xmlns:sodipodi="http://sodipodi.sourceforge.net/DTD/sodipodi-0.dtd"
   xmlns:inkscape="http://www.inkscape.org/namespaces/inkscape"
   width="90.5"
   height="21.6"
   viewBox="0 0 90.500001 21.600001"
   id="svg15957"
   version="1.1"
   inkscape:version="0.91 r13725"
   sodipodi:docname="nku wordmark.svg">
  <defs
     id="defs15959">
    <clipPath
       id="clipPath12375"
       clipPathUnits="userSpaceOnUse">
      <path
         inkscape:connector-curvature="0"
         id="path12377"
         d="m 91.488,566.226 100.8,0 0,100.8 -100.8,0 0,-100.8 z" />
    </clipPath>
  </defs>
  <sodipodi:namedview
     id="base"
     pagecolor="#ffffff"
     bordercolor="#666666"
     borderopacity="1.0"
     inkscape:pageopacity="0.0"
     inkscape:pageshadow="2"
     inkscape:zoom="10.055514"
     inkscape:cx="45.249997"
     inkscape:cy="10.799998"
     inkscape:document-units="px"
     inkscape:current-layer="layer1"
     showgrid="false"
     units="px"
     inkscape:window-width="1280"
     inkscape:window-height="744"
     inkscape:window-x="-4"
     inkscape:window-y="-4"
     inkscape:window-maximized="1" />
  <metadata
     id="metadata15962">
    <rdf:RDF>
      <cc:Work
         rdf:about="">
        <dc:format>image/svg+xml</dc:format>
        <dc:type
           rdf:resource="http://purl.org/dc/dcmitype/StillImage" />
        <dc:title></dc:title>
      </cc:Work>
    </rdf:RDF>
  </metadata>
  <g
     inkscape:label="Layer 1"
     inkscape:groupmode="layer"
     id="layer1"
     transform="translate(0,-1030.7622)">
    <g
       id="g16210"
       transform="translate(-503.32143,189.19997)">
      <g
         transform="matrix(1.25,0,0,-1.25,537.26274,841.86615)"
         id="g12379">
        <path
           inkscape:connector-curvature="0"
           id="path12381"
           style="fill:#f0c927;fill-opacity:1;fill-rule:nonzero;stroke:none"
           d="m 0,0 c 1.141,-1.851 -1.239,-3.988 -1.193,-6.143 0.033,-1.548 1.002,-3.039 1.791,-3.623 -0.267,0.52 -0.465,1.275 -0.361,2.055 0.184,1.369 0.87,1.76 1.193,3.826 C 1.483,-3.547 3.105,-5.656 2.293,-8.5 5.314,-2.396 -0.33,0.536 0,0" />
      </g>
      <g
         transform="matrix(1.25,0,0,-1.25,521.03749,845.77878)"
         id="g12383">
        <path
           inkscape:connector-curvature="0"
           id="path12385"
           style="fill:#231f20;fill-opacity:1;fill-rule:nonzero;stroke:none"
           d="m 0,0 0,0.335 -3.652,0 0,-0.32 c 0.154,0 0.406,0.021 0.689,-0.111 0.461,-0.216 0.622,-0.486 0.627,-0.977 l 0,-8.885 c -0.58,0.545 -2.865,3.043 -4.566,4.786 -2.647,2.712 -5.458,5.51 -5.458,5.51 l -0.376,0 0.011,-11.417 c -0.005,-0.241 -0.041,-0.695 -0.474,-0.947 -0.275,-0.16 -0.555,-0.162 -0.774,-0.165 l 0,-0.323 3.739,0 0,0.323 c -0.232,-10e-4 -0.727,0.023 -0.992,0.259 -0.266,0.233 -0.396,0.398 -0.396,0.853 l 0.006,8.57 c 0.581,-0.591 2.534,-2.723 4.527,-4.779 1.821,-1.877 5.454,-5.226 5.454,-5.226 l 0.408,0 0,11.507 c 0,0.505 0.236,0.723 0.538,0.893 C -0.475,0.004 -0.136,0 0,0" />
      </g>
      <g
         transform="matrix(1.25,0,0,-1.25,541.94124,845.73615)"
         id="g12387">
        <path
           inkscape:connector-curvature="0"
           id="path12389"
           style="fill:#231f20;fill-opacity:1;fill-rule:nonzero;stroke:none"
           d="m 0,0 c 0,0 0.338,0.01 0.476,-0.022 0.568,-0.116 0.748,-0.571 0.756,-0.884 l 0,-5.938 c 0,-1.695 -0.188,-3.121 -0.978,-4.058 -0.62,-0.711 -1.651,-1.187 -2.7,-1.187 -0.979,0 -1.906,0.15 -2.748,0.905 -0.739,0.676 -1.248,1.727 -1.248,4.094 l 0,6.099 c 0.035,0.577 0.198,0.747 0.606,0.92 0.191,0.081 0.644,0.052 0.644,0.052 l 0,0.32 -7.652,0 0,-0.246 c 0.303,0 0.498,-0.348 0.33,-0.591 -0.133,-0.196 -0.525,-0.497 -1.007,-0.973 -0.617,-0.641 -3.62,-3.383 -3.913,-3.695 l -0.002,-0.552 c 0.824,-0.97 7.146,-6.333 7.921,-6.943 0.737,-0.553 1.168,-0.935 2.079,-1.013 0.377,-0.036 0.704,-0.048 1.186,-0.048 l 0.769,0 0,0.294 c -0.1,-0.003 -0.408,-0.021 -0.855,0.158 -0.824,0.329 -1.272,0.609 -2.717,1.895 -0.705,0.626 -6.443,5.657 -6.89,6.134 0.361,0.411 2.955,3.051 3.385,3.445 0.774,0.708 1.289,1.348 1.98,1.673 0.446,0.213 0.716,0.231 1.119,0.231 l 0.222,0 c 0.153,0 0.347,-0.018 0.484,-0.05 0.447,-0.098 0.745,-0.46 0.74,-0.941 l 0.019,-6.268 c 0,-2.401 0.668,-3.58 1.511,-4.351 1.221,-1.101 3.108,-1.173 3.693,-1.173 1.015,0 2.303,0.165 3.542,1.219 1.374,1.166 1.585,3.171 1.585,4.946 l 0,5.675 c 0,0.512 0.424,0.744 0.71,0.841 C 3.26,0.042 3.53,0 3.53,0 l 0,0.301 L 0,0.301 0,0 Z" />
      </g>
      <g
         transform="matrix(1.25,0,0,-1.25,552.00924,859.06653)"
         id="g12391">
        <path
           inkscape:connector-curvature="0"
           id="path12393"
           style="fill:#231f20;fill-opacity:1;fill-rule:nonzero;stroke:none"
           d="m 0,0 0.125,-0.01 c 0.139,-0.013 0.139,-0.026 0.139,-0.401 l 0,-1.242 C 0.211,-1.709 -0.008,-1.9 -0.374,-1.9 c -0.544,0 -0.63,0.295 -0.63,0.732 l 0,0.757 c 0,0.375 0,0.388 0.137,0.401 L -0.74,0 l 0,0.065 -0.853,0 0,-0.065 0.126,-0.01 c 0.136,-0.013 0.136,-0.026 0.136,-0.401 l 0,-0.808 c 0,-0.415 0.059,-0.779 0.79,-0.779 0.465,0 0.76,0.194 0.808,0.194 0.079,-0.045 0.218,-0.176 0.218,-0.176 l 0.106,0.027 0,1.542 c 0,0.375 0,0.388 0.138,0.401 L 0.854,0 0.854,0.065 0,0.065 0,0 Z" />
      </g>
      <g
         transform="matrix(1.25,0,0,-1.25,556.30774,859.06653)"
         id="g12395">
        <path
           inkscape:connector-curvature="0"
           id="path12397"
           style="fill:#231f20;fill-opacity:1;fill-rule:nonzero;stroke:none"
           d="m 0,0 0.122,-0.01 c 0.195,-0.016 0.195,-0.099 0.195,-0.435 l 0,-1.048 c -0.384,0.327 -1.422,1.262 -1.713,1.586 l -0.082,-0.028 0,-1.508 c 0,-0.33 -0.023,-0.424 -0.16,-0.435 l -0.127,-0.007 0,-0.068 0.76,0 0,0.068 -0.127,0.007 c -0.182,0.017 -0.182,0.098 -0.182,0.435 l 0,1.032 c 0,0 1.421,-1.298 1.717,-1.569 l 0.074,0.027 0,1.508 c 0,0.33 0.026,0.424 0.154,0.435 L 0.758,0 0.758,0.065 0,0.065 0,0 Z" />
      </g>
      <g
         transform="matrix(1.25,0,0,-1.25,558.51349,859.06653)"
         id="g12399">
        <path
           inkscape:connector-curvature="0"
           id="path12401"
           style="fill:#231f20;fill-opacity:1;fill-rule:nonzero;stroke:none"
           d="m 0,0 0.123,-0.01 c 0.138,-0.013 0.138,-0.026 0.138,-0.401 l 0,-1.063 c 0,-0.375 0,-0.391 -0.138,-0.404 L 0,-1.885 l 0,-0.068 0.851,0 0,0.068 -0.125,0.007 c -0.139,0.013 -0.139,0.029 -0.139,0.404 l 0,1.063 c 0,0.375 0,0.388 0.139,0.401 L 0.851,0 0.851,0.065 0,0.065 0,0 Z" />
      </g>
      <g
         transform="matrix(1.25,0,0,-1.25,562.67161,859.06653)"
         id="g12403">
        <path
           inkscape:connector-curvature="0"
           id="path12405"
           style="fill:#231f20;fill-opacity:1;fill-rule:nonzero;stroke:none"
           d="m 0,0 0.156,-0.021 c 0.068,-0.008 0.139,-0.024 0.139,-0.084 0,-0.096 -0.552,-1.285 -0.635,-1.468 0,0 -0.625,1.4 -0.655,1.486 0,0.061 0.102,0.072 0.16,0.077 l 0.108,0.01 0,0.065 -0.874,0 0,-0.065 0.102,-0.01 c 0.112,-0.011 0.155,-0.124 0.206,-0.234 l 0.812,-1.754 c 0.045,0.012 0.101,0.032 0.116,0.045 0.208,0.453 0.648,1.375 0.648,1.375 0.089,0.148 0.2,0.442 0.279,0.508 0.027,0.025 0.066,0.044 0.104,0.049 L 0.757,0 0.757,0.065 0,0.065 0,0 Z" />
      </g>
      <g
         transform="matrix(1.25,0,0,-1.25,565.91024,861.40028)"
         id="g12407">
        <path
           inkscape:connector-curvature="0"
           id="path12409"
           style="fill:#231f20;fill-opacity:1;fill-rule:nonzero;stroke:none"
           d="m 0,0 c -0.126,0 -0.259,0.018 -0.383,0.041 l 0,0.88 0.313,0 c 0.272,0 0.334,-0.003 0.358,-0.128 l 0.018,-0.106 0.092,0 0,0.552 -0.092,0 L 0.288,1.134 C 0.264,1.008 0.202,1.005 -0.07,1.005 l -0.313,0 0,0.841 0.291,0 c 0.496,0 0.504,-0.044 0.579,-0.373 l 0.087,0.014 c 0,0.028 0.006,0.053 0.006,0.121 0,0.14 -0.025,0.259 -0.039,0.324 l -1.513,0 0,-0.065 0.125,-0.01 C -0.712,1.844 -0.712,1.83 -0.712,1.456 l 0,-1.064 c 0,-0.374 0,-0.39 -0.135,-0.403 l -0.125,-0.007 0,-0.068 1.608,0 C 0.694,0.082 0.744,0.227 0.752,0.422 L 0.665,0.434 C 0.594,0.182 0.56,0 0,0" />
      </g>
      <g
         transform="matrix(1.25,0,0,-1.25,570.07236,860.81915)"
         id="g12411">
        <path
           inkscape:connector-curvature="0"
           id="path12413"
           style="fill:#231f20;fill-opacity:1;fill-rule:nonzero;stroke:none"
           d="m 0,0 c -0.095,0.147 -0.211,0.342 -0.263,0.43 0.194,0.078 0.486,0.245 0.486,0.531 0,0.464 -0.47,0.507 -0.806,0.507 l -0.92,0 0,-0.066 0.128,-0.01 c 0.138,-0.013 0.138,-0.026 0.138,-0.401 l 0,-1.063 c 0,-0.375 0,-0.39 -0.138,-0.404 l -0.128,-0.007 0,-0.068 0.853,0 0,0.068 -0.127,0.007 c -0.132,0.014 -0.132,0.029 -0.132,0.404 l 0,0.402 0.129,0 c 0.072,0 0.164,0 0.218,-0.04 0.045,-0.032 0.127,-0.15 0.218,-0.3 l 0.139,-0.234 c 0.106,-0.168 0.269,-0.307 0.503,-0.307 l 0.27,0 0,0.068 C 0.49,-0.483 0.43,-0.472 0.39,-0.454 0.305,-0.41 0.148,-0.229 0,0 m -0.711,0.416 -0.198,0 0,0.928 c 0.327,0.05 0.761,0.006 0.761,-0.445 0,-0.346 -0.265,-0.483 -0.563,-0.483" />
      </g>
      <g
         transform="matrix(1.25,0,0,-1.25,573.03499,860.05903)"
         id="g12415">
        <path
           inkscape:connector-curvature="0"
           id="path12417"
           style="fill:#231f20;fill-opacity:1;fill-rule:nonzero;stroke:none"
           d="m 0,0 -0.19,0.095 c -0.192,0.097 -0.343,0.196 -0.343,0.379 0,0.201 0.178,0.332 0.383,0.332 0.396,0 0.45,-0.267 0.486,-0.421 l 0.091,0 C 0.427,0.463 0.42,0.711 0.393,0.81 0.3,0.856 0.125,0.906 -0.094,0.906 c -0.373,0 -0.73,-0.157 -0.73,-0.529 0,-0.229 0.185,-0.418 0.386,-0.514 l 0.227,-0.108 c 0.273,-0.106 0.487,-0.259 0.487,-0.484 0,-0.238 -0.183,-0.377 -0.421,-0.377 -0.483,0 -0.613,0.366 -0.655,0.587 l -0.11,-0.025 c 0,-0.193 0.049,-0.42 0.11,-0.54 0.109,-0.057 0.281,-0.12 0.555,-0.12 0.372,0 0.814,0.158 0.814,0.571 C 0.569,-0.267 0.278,-0.137 0,0" />
      </g>
      <g
         transform="matrix(1.25,0,0,-1.25,575.00187,859.06653)"
         id="g12419">
        <path
           inkscape:connector-curvature="0"
           id="path12421"
           style="fill:#231f20;fill-opacity:1;fill-rule:nonzero;stroke:none"
           d="m 0,0 0.128,-0.01 c 0.138,-0.013 0.138,-0.026 0.138,-0.401 l 0,-1.063 c 0,-0.375 0,-0.391 -0.138,-0.404 L 0,-1.885 l 0,-0.068 0.854,0 0,0.068 -0.127,0.007 C 0.59,-1.865 0.59,-1.849 0.59,-1.474 l 0,1.063 c 0,0.375 0,0.388 0.137,0.401 L 0.854,0 0.854,0.065 0,0.065 0,0 Z" />
      </g>
      <g
         transform="matrix(1.25,0,0,-1.25,577.23662,858.98478)"
         id="g12423">
        <path
           inkscape:connector-curvature="0"
           id="path12425"
           style="fill:#231f20;fill-opacity:1;fill-rule:nonzero;stroke:none"
           d="m 0,0 c -0.013,-0.065 -0.043,-0.213 -0.043,-0.352 0,-0.039 0.008,-0.122 0.008,-0.135 l 0.087,0 c 0.079,0.356 0.086,0.401 0.577,0.401 l 0.185,0 0,-1.454 c 0,-0.374 0,-0.39 -0.193,-0.403 l -0.131,-0.008 0,-0.067 0.978,0 0,0.067 -0.129,0.008 C 1.14,-1.93 1.14,-1.914 1.14,-1.54 l 0,1.454 0.186,0 c 0.496,0 0.504,-0.045 0.58,-0.401 l 0.083,0 c 0,0.013 0.01,0.096 0.01,0.135 0,0.139 -0.027,0.287 -0.04,0.352 L 0,0 Z" />
      </g>
      <g
         transform="matrix(1.25,0,0,-1.25,582.80836,859.06653)"
         id="g12427">
        <path
           inkscape:connector-curvature="0"
           id="path12429"
           style="fill:#231f20;fill-opacity:1;fill-rule:nonzero;stroke:none"
           d="m 0,0 0.16,-0.021 c 0.067,-0.008 0.136,-0.024 0.136,-0.084 0,-0.047 -0.443,-0.795 -0.531,-0.919 -0.092,0.13 -0.559,0.87 -0.559,0.937 0,0.061 0.1,0.072 0.159,0.077 l 0.13,0.01 0,0.065 -0.895,0 0,-0.065 0.106,-0.01 c 0.091,-0.011 0.134,-0.071 0.181,-0.149 l 0.474,-0.764 c 0.072,-0.128 0.156,-0.266 0.156,-0.375 l 0,-0.392 c 0,-0.095 0,-0.184 -0.168,-0.188 l -0.155,-0.007 0,-0.068 0.975,0 0,0.068 -0.151,0.007 c -0.172,0.004 -0.172,0.093 -0.172,0.188 l 0,0.392 c 0,0.116 0.046,0.247 0.127,0.375 l 0.157,0.26 c 0.176,0.294 0.293,0.48 0.433,0.593 0.03,0.025 0.067,0.044 0.108,0.049 L 0.764,0 0.764,0.065 0,0.065 0,0 Z" />
      </g>
      <g
         transform="matrix(1.25,0,0,-1.25,551.61649,849.8134)"
         id="g12431">
        <path
           inkscape:connector-curvature="0"
           id="path12433"
           style="fill:#231f20;fill-opacity:1;fill-rule:nonzero;stroke:none"
           d="m 0,0 -0.237,0.017 c -0.339,0.028 -0.339,0.18 -0.339,0.804 l 0,1.909 c 0,0 2.642,-2.401 3.193,-2.907 l 0.14,0.052 0,2.794 c 0,0.611 0.049,0.787 0.284,0.802 l 0.236,0.018 0,0.124 -1.412,0 0,-0.124 0.234,-0.018 c 0.36,-0.027 0.36,-0.179 0.36,-0.802 l 0,-1.944 c -0.714,0.607 -2.644,2.339 -3.187,2.94 l -0.151,-0.052 0,-2.792 c 0,-0.611 -0.047,-0.786 -0.3,-0.804 L -1.414,0 l 0,-0.125 1.414,0 L 0,0 Z" />
      </g>
      <g
         transform="matrix(1.25,0,0,-1.25,558.69862,850.07415)"
         id="g12435">
        <path
           inkscape:connector-curvature="0"
           id="path12437"
           style="fill:#231f20;fill-opacity:1;fill-rule:nonzero;stroke:none"
           d="m 0,0 c 1.295,0 2.341,0.741 2.341,1.987 0,1.258 -1.015,1.92 -2.216,1.92 -1.267,0 -2.359,-0.759 -2.359,-1.984 C -2.234,0.702 -1.297,0 0,0 m 0.013,3.722 c 1.026,0 1.64,-0.811 1.64,-1.882 0,-0.827 -0.419,-1.655 -1.528,-1.655 -0.99,0 -1.669,0.692 -1.669,1.848 0,0.98 0.574,1.689 1.557,1.689" />
      </g>
      <g
         transform="matrix(1.25,0,0,-1.25,563.93749,849.8134)"
         id="g12439">
        <path
           inkscape:connector-curvature="0"
           id="path12441"
           style="fill:#231f20;fill-opacity:1;fill-rule:nonzero;stroke:none"
           d="m 0,0 -0.234,0.017 c -0.25,0.022 -0.25,0.051 -0.25,0.741 l 0,0.749 0.244,0 c 0.136,0 0.3,0 0.405,-0.074 C 0.25,1.372 0.452,1.155 0.62,0.877 L 0.918,0.442 C 1.115,0.131 1.417,-0.125 1.846,-0.125 l 0.506,0 0,0.125 C 2.207,0 2.092,0.022 2.022,0.057 1.862,0.135 1.537,0.471 1.262,0.895 1.085,1.167 0.821,1.53 0.72,1.688 c 0.361,0.148 0.905,0.458 0.905,0.986 0,0.86 -0.877,0.939 -1.499,0.939 l -1.708,0 0,-0.124 0.236,-0.018 C -1.091,3.45 -1.091,3.42 -1.091,2.73 l 0,-1.972 c 0,-0.69 0,-0.719 -0.255,-0.741 L -1.582,0 l 0,-0.125 1.582,0 L 0,0 Z m -0.484,3.381 c 0.621,0.108 1.422,0.021 1.422,-0.82 0,-0.64 -0.496,-0.895 -1.047,-0.895 l -0.375,0 0,1.715 z" />
      </g>
      <g
         transform="matrix(1.25,0,0,-1.25,566.68736,845.29678)"
         id="g12443">
        <path
           inkscape:connector-curvature="0"
           id="path12445"
           style="fill:#231f20;fill-opacity:1;fill-rule:nonzero;stroke:none"
           d="m 0,0 c -0.028,-0.124 -0.073,-0.391 -0.073,-0.652 0,-0.073 0.016,-0.225 0.016,-0.248 l 0.156,0 c 0.143,0.658 0.156,0.743 1.08,0.743 l 0.337,0 0,-2.698 c 0,-0.69 0,-0.719 -0.358,-0.742 l -0.242,-0.016 0,-0.125 1.812,0 0,0.125 -0.237,0.016 c -0.363,0.023 -0.363,0.052 -0.363,0.742 l 0,2.698 0.34,0 c 0.921,0 0.935,-0.085 1.079,-0.743 l 0.156,0 c 0,0.023 0.012,0.175 0.012,0.248 0,0.261 -0.046,0.528 -0.07,0.652 L 0,0 Z" />
      </g>
      <g
         transform="matrix(1.25,0,0,-1.25,573.94274,849.8134)"
         id="g12447">
        <path
           inkscape:connector-curvature="0"
           id="path12449"
           style="fill:#231f20;fill-opacity:1;fill-rule:nonzero;stroke:none"
           d="m 0,0 -0.235,0.017 c -0.258,0.022 -0.258,0.051 -0.258,0.741 l 0,1.01 2.329,0 0,-1.01 c 0,-0.69 0,-0.719 -0.254,-0.741 L 1.348,0 l 0,-0.125 1.587,0 0,0.125 -0.236,0.017 C 2.447,0.039 2.447,0.068 2.447,0.758 l 0,1.972 c 0,0.69 0,0.72 0.252,0.741 l 0.236,0.018 0,0.124 -1.587,0 0,-0.124 0.234,-0.018 C 1.836,3.45 1.836,3.42 1.836,2.73 l 0,-0.803 -2.329,0 0,0.803 c 0,0.69 0,0.72 0.258,0.741 L 0,3.489 l 0,0.124 -1.592,0 0,-0.124 0.238,-0.018 C -1.1,3.45 -1.1,3.42 -1.1,2.73 l 0,-1.972 c 0,-0.69 0,-0.719 -0.254,-0.741 L -1.592,0 l 0,-0.125 1.592,0 L 0,0 Z" />
      </g>
      <g
         transform="matrix(1.25,0,0,-1.25,582.31849,848.79478)"
         id="g12451">
        <path
           inkscape:connector-curvature="0"
           id="path12453"
           style="fill:#231f20;fill-opacity:1;fill-rule:nonzero;stroke:none"
           d="m 0,0 -0.165,0.024 c -0.132,-0.465 -0.198,-0.804 -1.236,-0.804 -0.237,0 -0.481,0.033 -0.712,0.074 l 0,1.63 0.581,0 c 0.511,0 0.63,-0.006 0.667,-0.237 l 0.033,-0.192 0.168,0 0,1.018 -0.168,0 L -0.865,1.32 C -0.902,1.088 -1.021,1.082 -1.532,1.082 l -0.581,0 0,1.559 0.54,0 c 0.926,0 0.937,-0.085 1.081,-0.691 l 0.157,0.022 c 0,0.051 0.014,0.096 0.014,0.227 0,0.26 -0.047,0.475 -0.072,0.599 l -2.819,0 0,-0.124 0.236,-0.018 c 0.252,-0.021 0.252,-0.05 0.252,-0.741 l 0,-1.972 c 0,-0.69 0,-0.719 -0.252,-0.741 l -0.236,-0.017 0,-0.125 2.995,0 C -0.104,-0.628 -0.021,-0.362 0,0" />
      </g>
      <g
         transform="matrix(1.25,0,0,-1.25,591.80412,845.29678)"
         id="g12455">
        <path
           inkscape:connector-curvature="0"
           id="path12457"
           style="fill:#231f20;fill-opacity:1;fill-rule:nonzero;stroke:none"
           d="m 0,0 0,-0.124 0.236,-0.018 c 0.359,-0.027 0.359,-0.18 0.359,-0.802 l 0,-1.945 c -0.713,0.608 -2.642,2.339 -3.188,2.941 L -2.743,0 l 0,-2.792 c 0,-0.612 -0.044,-0.786 -0.297,-0.805 l -0.237,-0.016 c -0.145,0 -0.262,0.022 -0.329,0.057 -0.164,0.078 -0.449,0.414 -0.726,0.837 -0.176,0.273 -0.39,0.636 -0.49,0.794 0.361,0.148 0.906,0.458 0.906,0.986 0,0.86 -0.881,0.939 -1.502,0.939 l -1.708,0 0,-0.124 0.235,-0.018 c 0.255,-0.021 0.255,-0.051 0.255,-0.742 l 0,-1.971 c 0,-0.69 0,-0.719 -0.255,-0.742 l -0.235,-0.016 0,-0.125 1.586,0 0,0.125 -0.237,0.016 c -0.252,0.023 -0.252,0.052 -0.252,0.742 l 0,0.749 0.242,0 c 0.139,0 0.304,0 0.408,-0.075 0.082,-0.06 0.239,-0.277 0.406,-0.555 l 0.261,-0.435 c 0.198,-0.311 0.497,-0.567 0.932,-0.567 l 0.503,0 0,0 1.411,0 0,0.125 -0.236,0.016 c -0.338,0.029 -0.338,0.181 -0.338,0.805 l 0,1.908 c 0,0 2.642,-2.4 3.192,-2.906 l 0.144,0.052 0,2.794 c 0,0.61 0.045,0.787 0.284,0.802 L 1.414,-0.124 1.414,0 0,0 Z m -5.656,-1.948 -0.373,0 0,1.716 c 0.625,0.108 1.422,0.023 1.422,-0.821 0,-0.64 -0.496,-0.895 -1.049,-0.895" />
      </g>
      <g
         transform="matrix(1.25,0,0,-1.25,555.16836,856.41778)"
         id="g12459">
        <path
           inkscape:connector-curvature="0"
           id="path12461"
           style="fill:#231f20;fill-opacity:1;fill-rule:nonzero;stroke:none"
           d="m 0,0 0,0.127 c -0.348,0 -0.46,0.037 -1.166,0.844 -0.277,0.331 -0.86,0.893 -1.026,1.138 l 0.315,0.346 c 0.113,0.121 0.89,0.89 1.127,1.036 0.117,0.075 0.177,0.104 0.325,0.115 l 0.15,0.01 0,0.126 -1.472,0 0,-0.126 0.243,-0.01 c 0.157,-0.011 0.229,-0.011 0.229,-0.074 0,-0.034 0,-0.068 -0.176,-0.262 L -1.883,2.79 C -2.491,2.109 -2.604,2.003 -2.93,2.003 l -0.118,0 0,0.855 c 0,0.69 0,0.72 0.255,0.744 l 0.235,0.014 0,0.126 -1.588,0 0,-0.126 0.234,-0.014 c 0.256,-0.024 0.256,-0.054 0.256,-0.744 l 0,-1.974 c 0,-0.692 0,-0.72 -0.256,-0.741 l -0.234,-0.016 0,-0.127 1.588,0 0,0.127 -0.235,0.016 c -0.255,0.021 -0.255,0.049 -0.255,0.741 l 0,0.961 0.113,0 c 0.122,0 0.252,-0.04 0.411,-0.239 L -1.872,0.967 C -1.701,0.746 -1.388,0.483 -1.119,0.233 -0.936,0.059 -0.719,0 -0.406,0 L 0,0 Z" />
      </g>
      <g
         transform="matrix(1.25,0,0,-1.25,557.84212,856.21828)"
         id="g12463">
        <path
           inkscape:connector-curvature="0"
           id="path12465"
           style="fill:#231f20;fill-opacity:1;fill-rule:nonzero;stroke:none"
           d="m 0,0 c -0.231,0 -0.476,0.032 -0.713,0.079 l 0,1.625 0.584,0 c 0.51,0 0.628,-0.003 0.667,-0.235 l 0.032,-0.192 0.169,0 0,1.019 -0.169,0 L 0.538,2.103 C 0.499,1.87 0.381,1.864 -0.129,1.864 l -0.584,0 0,1.559 0.544,0 c 0.922,0 0.936,-0.084 1.078,-0.691 l 0.159,0.023 c 0,0.05 0.012,0.097 0.012,0.227 0,0.26 -0.045,0.475 -0.071,0.6 l -2.819,0 0,-0.125 0.235,-0.015 c 0.256,-0.024 0.256,-0.054 0.256,-0.744 l 0,-1.974 c 0,-0.692 0,-0.72 -0.256,-0.741 l -0.235,-0.016 0,-0.127 2.995,0 C 1.299,0.154 1.381,0.425 1.403,0.786 L 1.237,0.808 C 1.107,0.339 1.043,0 0,0" />
      </g>
      <g
         transform="matrix(1.25,0,0,-1.25,561.87574,856.2589)"
         id="g12467">
        <path
           inkscape:connector-curvature="0"
           id="path12469"
           style="fill:#231f20;fill-opacity:1;fill-rule:nonzero;stroke:none"
           d="m 0,0 -0.235,0.016 c -0.34,0.026 -0.34,0.184 -0.34,0.808 l 0,1.907 c 0,0 2.643,-2.402 3.191,-2.906 l 0.147,0.048 0,2.795 c 0,0.614 0.045,0.788 0.28,0.807 l 0.237,0.014 0,0.126 -1.415,0 0,-0.126 0.237,-0.014 C 2.458,3.444 2.458,3.29 2.458,2.668 l 0,-1.945 c -0.71,0.61 -2.639,2.34 -3.184,2.943 l -0.149,-0.051 0,-2.791 c 0,-0.617 -0.047,-0.791 -0.303,-0.808 L -1.414,0 l 0,-0.127 1.414,0 L 0,0 Z" />
      </g>
      <g
         transform="matrix(1.25,0,0,-1.25,566.59212,851.74065)"
         id="g12471">
        <path
           inkscape:connector-curvature="0"
           id="path12473"
           style="fill:#231f20;fill-opacity:1;fill-rule:nonzero;stroke:none"
           d="m 0,0 c -0.023,-0.125 -0.069,-0.392 -0.069,-0.651 0,-0.075 0.011,-0.227 0.011,-0.25 l 0.16,0 c 0.14,0.658 0.156,0.742 1.075,0.742 l 0.343,0 0,-2.699 c 0,-0.692 0,-0.72 -0.359,-0.741 l -0.241,-0.016 0,-0.127 1.811,0 0,0.127 -0.237,0.016 C 2.127,-3.578 2.127,-3.55 2.127,-2.858 l 0,2.699 0.343,0 c 0.921,0 0.934,-0.084 1.079,-0.742 l 0.16,0 c 0,0.023 0.01,0.175 0.01,0.25 0,0.259 -0.046,0.526 -0.071,0.651 L 0,0 Z" />
      </g>
      <g
         transform="matrix(1.25,0,0,-1.25,577.53824,851.8974)"
         id="g12475">
        <path
           inkscape:connector-curvature="0"
           id="path12477"
           style="fill:#231f20;fill-opacity:1;fill-rule:nonzero;stroke:none"
           d="m 0,0 0,0.125 -1.586,0 0,-0.125 0.232,-0.015 c 0.255,-0.024 0.255,-0.054 0.255,-0.744 l 0,-2.302 c -0.096,-0.099 -0.508,-0.45 -1.182,-0.45 -1.018,0 -1.173,0.537 -1.173,1.349 l 0,1.403 c 0,0.69 0,0.72 0.255,0.744 L -2.964,0 l 0,0.125 -1.589,0 0,-0.125 0.234,-0.015 c 0.254,-0.024 0.254,-0.054 0.254,-0.744 l 0,-1.497 c 0,-0.765 0.112,-1.44 1.467,-1.44 0.868,0 1.413,0.354 1.506,0.354 0.098,0 0.148,-0.083 0.243,-0.158 l 0.161,-0.164 0.197,0.048 0,2.857 c 0,0.69 0,0.72 0.255,0.744 L 0,0 Z" />
      </g>
      <g
         transform="matrix(1.25,0,0,-1.25,582.99274,855.04552)"
         id="g12479">
        <path
           inkscape:connector-curvature="0"
           id="path12481"
           style="fill:#231f20;fill-opacity:1;fill-rule:nonzero;stroke:none"
           d="m 0,0 -0.178,0.033 c -0.201,-0.456 -0.365,-1.025 -1.449,-1.025 -1.193,0 -1.731,0.894 -1.731,1.863 0,1.058 0.674,1.67 1.748,1.67 1.118,0 1.204,-0.691 1.271,-0.917 l 0.178,0.034 c 0,0.284 -0.049,0.611 -0.106,0.839 -0.171,0.089 -0.671,0.231 -1.337,0.231 -1.033,0 -2.442,-0.452 -2.442,-1.965 0,-1.437 1.18,-1.94 2.431,-1.94 0.635,0 1.164,0.143 1.348,0.211 C -0.115,-0.626 -0.038,-0.357 0,0" />
      </g>
      <g
         transform="matrix(1.25,0,0,-1.25,591.72112,851.8974)"
         id="g12483">
        <path
           inkscape:connector-curvature="0"
           id="path12485"
           style="fill:#231f20;fill-opacity:1;fill-rule:nonzero;stroke:none"
           d="m 0,0 0.293,-0.033 c 0.123,-0.018 0.253,-0.046 0.253,-0.16 0,-0.085 -0.822,-1.471 -0.986,-1.701 -0.171,0.24 -1.04,1.61 -1.04,1.735 0,0.114 0.19,0.13 0.294,0.144 l 0.24,0.015 0,0.125 -1.644,0 -0.015,0 -1.459,0 0,-0.125 0.241,-0.01 c 0.158,-0.011 0.229,-0.011 0.229,-0.074 0,-0.034 0,-0.068 -0.175,-0.262 l -0.434,-0.48 c -0.606,-0.681 -0.72,-0.788 -1.047,-0.788 l -0.117,0 0,0.855 c 0,0.69 0,0.72 0.254,0.744 L -4.875,0 l 0,0.125 -1.589,0 0,-0.125 0.234,-0.015 c 0.255,-0.024 0.255,-0.054 0.255,-0.744 l 0,-1.973 c 0,-0.693 0,-0.721 -0.255,-0.741 l -0.234,-0.016 0,-0.127 1.589,0 0,0.127 -0.238,0.016 c -0.254,0.02 -0.254,0.048 -0.254,0.741 l 0,0.961 0.113,0 c 0.124,0 0.252,-0.04 0.412,-0.24 l 0.669,-0.638 c 0.167,-0.222 0.534,-0.484 0.804,-0.734 0.182,-0.175 0.4,-0.233 0.714,-0.233 l 0.403,0 0,0.127 c -0.344,0 -0.509,0.036 -1.216,0.844 -0.278,0.33 -0.877,0.893 -1.043,1.138 l 0.317,0.346 c 0.11,0.121 0.887,0.89 1.123,1.035 0.118,0.075 0.175,0.105 0.328,0.116 l 0.328,-0.005 c 0.175,-0.018 0.251,-0.131 0.346,-0.28 l 0.868,-1.41 C -1.053,-1.944 -0.9,-2.197 -0.9,-2.404 l 0,-0.725 c 0,-0.174 0,-0.339 -0.317,-0.344 l -0.281,-0.016 0,-0.127 1.811,0 0,0.127 -0.282,0.016 c -0.32,0.005 -0.32,0.17 -0.32,0.344 l 0,0.725 c 0,0.219 0.088,0.46 0.234,0.699 l 0.295,0.482 c 0.328,0.543 0.544,0.883 0.807,1.097 0.052,0.047 0.123,0.081 0.193,0.093 L 1.413,0 1.413,0.125 0,0.125 0,0 Z" />
      </g>
    </g>
  </g>
</svg>
