<svg version="1.1" id="menuLogo" xmlns="http://www.w3.org/2000/svg" xmlns:xlink="http://www.w3.org/1999/xlink" x="0px" y="0px" viewBox="0 0 144.4 136.7" style="enable-background:new 0 0 144.4 136.7;" xml:space="preserve" aria-labelledby="menuLogoTitle" role="img">
<style type="text/css">
	.st0{fill:#FFFFFF;}
	.st1{fill:#003087;}
	.st2{fill:#CB333B;}
	.st3{fill:none;stroke:#CB333B;stroke-width:0.9193;stroke-miterlimit:10;}
</style>
<title id="menuLogoTitle">Louisiana Tech University home page</title>
<g id="stateTWordmarkStack">
	<g>
		<path class="st0" d="M32.5,73.4c1.8,3.8,4.7,6.3,4.7,6.3s3.4-2.9,6.4-4.6c1.7-1,3.7-1.8,5.1-2.1c1.5,1.1,5.2,3.5,8.3,5.2
			c6.8,3.7,15.2,6.7,15.2,6.7s1.4-3.1,1.9-5.3c0.6,0.6,2,2.4,2,2.4l1.3-0.2c0.2,0.9,0,3.7,0,3.7s1.6-0.5,3.5-0.6
			c1.6-0.1,5.6,0.7,9.3,4.9h6.1V86c0.7-0.4,1.8-0.9,3.3-1.3c2.3,1,4.2,2.4,5.7,3.6c1.3,1.1,3.2,3.1,3.2,3.1c4.1,0.2,7.6-1.8,9.3-3.4
			c2.1-2,3.6-5.3,3.6-5.3s-1.8-1.1-3.9-2.4c1.2-0.8,2.1-2.1,2.1-3.7c0-2.4-1.9-4.3-4.3-4.3c-0.1,0-0.2,0-0.3,0
			c0.2-1.3,0.4-2.9,0.4-4.3c0-3-1.8-6.2-1.8-6.2h-5.1c0,0-1.1,1.2-1.4,1.9H106c-0.4,0-1,0.1-1.3,0.2c0.2-0.5,0.7-1.7,0.7-3.3
			c0-0.6-0.1-1.2-0.2-1.9c0.4-0.6,0.7-1.5,0.7-2.5c0-0.6-0.1-1.3-0.3-1.9v-11H80.2c1.7-3.7,4.9-9.2,4.9-17.1c0-2.2-0.4-4.2-0.9-5.8
			h11V0.7H20.4v19.8h12.2v12.3c-0.4,0.7-0.7,1.7-0.7,3.1c0,2.2,0.8,4.9,3.3,8.5c1,1.4,1.4,3.2,1.4,5.2c0,2.4-0.6,5.1-1.3,7.1
			c-0.5,1.4-1.7,4.1-1.7,4.1s0.3,2.2,2.5,5.2c-0.3,1.3-0.9,2.7-1.5,3.9C33.8,71.4,32.5,73.4,32.5,73.4z"></path>
		<g>
			<g>
				<path class="st1" d="M107.9,76.3c0,0,0.3-0.7,2.7-1.6c1-0.4,1.6-0.8,1.6-0.8s1.6-6.8,0-9.5h-2.5c-0.7,0.8-0.8,1.9-0.8,1.9H106
					c-1.1,0-1.9,0.9-2.3,1.8c-0.4,1.2-1.3,2-2.4,2c-1.5,0-2.7-1.6-2.7-3.5s1.2-3.5,2.7-3.5h1.1c0,0,1.2-2,0-4.7c0,0,1.6-1.1,0.6-3.5
					v-9H77.4v-2.2c1.6-4.2,5.1-9.3,5.1-17.3c0-5.5-2.9-9.5-2.9-9.5H65.8v31.7c0,0,4.7,0,5.9,0c0,1.5,0,13.5,0,15
					c-1.6,0-27.1,0-28.7,0c0-1.5,0-13.5,0-15c1.3,0,5.9,0,5.9,0V16.8H35.1v16.7c0,0-2.6,2.7,2.2,9.4c4.7,6.7-1.1,18-1.1,18
					c0.6,2.4,2.5,4.2,2.5,4.2c-0.6,3.8-3.4,8.4-3.4,8.4c0.9,2.1,1.9,2.9,1.9,2.9s7.3-6,12.2-6c0,0,4.9,3.5,8.8,5.6
					c6.6,3.6,12.7,5.8,12.7,5.8c1-2.3,1-4,1-4c-0.5-1.2-1.9-2.5-1.9-2.5l0.8-1.4c0,0,3.2,1.5,6.3,5.4L79,79c0.6,1.1,0.9,2.7,0.9,3.5
					c0,0,5.4-1,11.3,4.8h2.7v-2.7c0,0,2.2-1.8,5.9-2.5c5.7,2.4,9.6,6.8,9.6,6.8c6.1-0.3,8.6-5.3,8.6-5.3
					C111.9,80.1,107.9,76.3,107.9,76.3z"></path>
				<polygon class="st2" points="22.8,3.1 22.8,18 32.2,18 32.2,14.3 51.4,14.3 51.4,50.9 45.5,50.9 45.5,61 69.3,61 69.3,50.9 
					63.4,50.9 63.4,14.3 82.6,14.3 82.6,18 92.7,18 92.7,3.1 				"></polygon>
			</g>
		</g>
		<g>
			<g>
				<g>
					<path class="st1" d="M112.3,76.6c0-1.6,1.3-2.9,2.9-2.9s2.9,1.3,2.9,2.9s-1.3,2.9-2.9,2.9C113.5,79.5,112.3,78.2,112.3,76.6z
						 M117.6,76.6c0-1.4-1.1-2.4-2.4-2.4s-2.4,1.1-2.4,2.4c0,1.4,1.1,2.4,2.4,2.4C116.5,79.1,117.6,78,117.6,76.6z M116.5,78.2H116
						l-0.9-1.4h-0.5v1.5h-0.4v-3.2h1.4c0.6,0,1.1,0.2,1.1,0.8c0,0.6-0.4,0.8-1,0.9L116.5,78.2z M115,76.3c0.4,0,1.1,0.1,1.1-0.4
						c0-0.3-0.4-0.4-0.8-0.4h-0.8v0.8H115z"></path>
				</g>
			</g>
		</g>
	</g>
	<g>
		<g>
			<path class="st1" d="M0.8,104.9H3v10.4h5.3v2H0.8V104.9z"></path>
			<path class="st1" d="M9.2,111.2c0-1,0.2-1.9,0.5-2.7c0.3-0.8,0.8-1.5,1.4-2.1s1.3-1,2.1-1.3c0.8-0.3,1.7-0.5,2.6-0.5
				c1,0,1.9,0.1,2.7,0.4c0.8,0.3,1.5,0.7,2.1,1.3c0.6,0.6,1,1.3,1.4,2.1c0.3,0.8,0.5,1.7,0.5,2.7s-0.2,1.8-0.5,2.6
				c-0.3,0.8-0.8,1.5-1.4,2c-0.6,0.6-1.3,1-2.1,1.3c-0.8,0.3-1.7,0.5-2.7,0.5s-1.8-0.2-2.6-0.5c-0.8-0.3-1.5-0.7-2.1-1.3
				s-1-1.2-1.4-2C9.4,113,9.2,112.1,9.2,111.2z M11.5,111c0,0.7,0.1,1.3,0.3,1.8c0.2,0.6,0.5,1,0.9,1.4s0.8,0.7,1.3,1
				c0.5,0.2,1.1,0.3,1.7,0.3s1.2-0.1,1.7-0.3c0.5-0.2,1-0.6,1.3-1c0.4-0.4,0.7-0.9,0.9-1.4c0.2-0.6,0.3-1.2,0.3-1.8
				c0-0.6-0.1-1.2-0.3-1.7c-0.2-0.5-0.5-1-0.9-1.4s-0.8-0.7-1.3-0.9c-0.5-0.2-1.1-0.3-1.7-0.3s-1.2,0.1-1.7,0.3
				c-0.5,0.2-1,0.5-1.3,0.9c-0.4,0.4-0.7,0.9-0.9,1.4S11.5,110.4,11.5,111z"></path>
			<path class="st1" d="M34.4,112.7c0,0.7-0.1,1.4-0.4,2c-0.3,0.6-0.6,1.1-1,1.5s-1,0.7-1.6,1c-0.6,0.2-1.3,0.3-2,0.3
				s-1.4-0.1-2-0.3c-0.6-0.2-1.1-0.6-1.6-1c-0.4-0.4-0.8-0.9-1-1.5c-0.3-0.6-0.4-1.3-0.4-2v-7.8h2.2v7.8c0,0.3,0,0.6,0.1,1
				c0.1,0.3,0.2,0.6,0.5,0.9c0.2,0.3,0.5,0.5,0.9,0.7s0.8,0.3,1.3,0.3s1-0.1,1.3-0.3c0.4-0.2,0.6-0.4,0.9-0.7
				c0.2-0.3,0.4-0.6,0.5-0.9c0.1-0.3,0.1-0.6,0.1-1v-7.8h2.2C34.4,104.9,34.4,112.7,34.4,112.7z"></path>
			<path class="st1" d="M37,104.9h2.2v12.4H37V104.9z"></path>
			<path class="st1" d="M48,107.6c-0.2-0.3-0.5-0.6-0.9-0.7c-0.4-0.2-0.8-0.2-1.2-0.2c-0.3,0-0.5,0-0.7,0.1s-0.5,0.2-0.6,0.3
				c-0.2,0.1-0.3,0.3-0.5,0.5c-0.1,0.2-0.2,0.4-0.2,0.7c0,0.4,0.1,0.7,0.4,1c0.3,0.2,0.7,0.4,1.1,0.6c0.4,0.2,0.9,0.3,1.4,0.5
				s1,0.4,1.4,0.6c0.4,0.3,0.8,0.6,1.1,1.1c0.3,0.4,0.4,1,0.4,1.8c0,0.7-0.1,1.2-0.4,1.7c-0.2,0.5-0.6,0.9-1,1.2
				c-0.4,0.3-0.9,0.6-1.4,0.7c-0.5,0.2-1.1,0.2-1.7,0.2c-0.8,0-1.5-0.1-2.2-0.4s-1.3-0.7-1.8-1.3l1.7-1.6c0.3,0.4,0.6,0.7,1.1,1
				s0.9,0.3,1.4,0.3c0.3,0,0.5,0,0.8-0.1s0.5-0.2,0.7-0.3c0.2-0.1,0.4-0.3,0.5-0.5s0.2-0.5,0.2-0.7c0-0.5-0.1-0.8-0.4-1
				c-0.3-0.2-0.7-0.5-1.1-0.6c-0.4-0.2-0.9-0.3-1.4-0.5s-1-0.4-1.4-0.6c-0.4-0.3-0.8-0.6-1.1-1s-0.4-1-0.4-1.8
				c0-0.6,0.1-1.2,0.4-1.7c0.3-0.5,0.6-0.9,1-1.2c0.4-0.3,0.9-0.5,1.5-0.7c0.5-0.2,1.1-0.2,1.7-0.2c0.7,0,1.3,0.1,1.9,0.3
				c0.6,0.2,1.2,0.5,1.7,1L48,107.6z"></path>
			<path class="st1" d="M51.9,104.9h2.2v12.4h-2.2V104.9z"></path>
			<path class="st1" d="M60.8,104.9h1.9l5.3,12.4h-2.5l-1.2-2.8H59l-1.1,2.8h-2.5L60.8,104.9z M63.6,112.6l-1.9-5l-1.9,5H63.6z"></path>
			<path class="st1" d="M69.4,104.9h2.9l6,9.2l0,0v-9.2h2.2v12.4h-2.8l-6.1-9.5l0,0v9.5h-2.2V104.9z"></path>
			<path class="st1" d="M87.3,104.9h1.9l5.3,12.4H92l-1.2-2.8h-5.4l-1.1,2.8h-2.5L87.3,104.9z M90.1,112.6l-1.9-5l-1.9,5H90.1z"></path>
			<path class="st1" d="M103.6,106.9h-3.8v-2h9.8v2h-3.8v10.4h-2.2V106.9z"></path>
			<path class="st1" d="M111.1,104.9h8.2v2h-6v3h5.7v2h-5.7v3.4h6.3v2h-8.5V104.9z"></path>
			<path class="st1" d="M130.3,107.8c-0.5-0.5-0.9-0.8-1.3-1c-0.4-0.2-0.9-0.2-1.3-0.2c-0.6,0-1.2,0.1-1.7,0.3
				c-0.5,0.2-1,0.5-1.3,0.9c-0.4,0.4-0.7,0.9-0.9,1.4c-0.2,0.5-0.3,1.1-0.3,1.7c0,0.7,0.1,1.3,0.3,1.8c0.2,0.6,0.5,1,0.9,1.4
				s0.8,0.7,1.3,1c0.5,0.2,1.1,0.3,1.7,0.3c0.5,0,1-0.1,1.5-0.4s0.9-0.6,1.3-1.1l1.8,1.3c-0.6,0.8-1.2,1.3-2,1.7
				c-0.8,0.3-1.7,0.5-2.6,0.5c-1,0-1.8-0.2-2.6-0.5c-0.8-0.3-1.5-0.7-2.1-1.3s-1-1.2-1.4-2c-0.3-0.8-0.5-1.7-0.5-2.6
				c0-1,0.2-1.9,0.5-2.7c0.3-0.8,0.8-1.5,1.4-2.1s1.3-1,2.1-1.3c0.8-0.3,1.7-0.5,2.6-0.5c0.8,0,1.6,0.1,2.3,0.4s1.4,0.8,2,1.5
				L130.3,107.8z"></path>
			<path class="st1" d="M133.8,104.9h2.2v4.9h5.8v-4.9h2.2v12.4h-2.2v-5.4H136v5.4h-2.2V104.9z"></path>
			<path class="st1" d="M42.6,122.6v4.7c0,0.2,0,0.5,0.1,0.7c0.1,0.3,0.2,0.5,0.3,0.7c0.2,0.2,0.3,0.4,0.6,0.5
				c0.2,0.1,0.5,0.2,0.9,0.2s0.7-0.1,0.9-0.2c0.2-0.1,0.4-0.3,0.6-0.5c0.2-0.2,0.3-0.5,0.3-0.7c0.1-0.3,0.1-0.5,0.1-0.7v-4.7h1v4.8
				c0,0.4-0.1,0.9-0.2,1.2c-0.2,0.4-0.4,0.7-0.6,0.9c-0.3,0.3-0.6,0.5-0.9,0.6c-0.4,0.1-0.7,0.2-1.2,0.2s-0.8-0.1-1.2-0.2
				c-0.4-0.1-0.7-0.3-0.9-0.6c-0.3-0.3-0.5-0.6-0.6-0.9c-0.2-0.4-0.2-0.8-0.2-1.2v-4.8C41.6,122.6,42.6,122.6,42.6,122.6z"></path>
			<path class="st1" d="M49.5,122.6h1.4l4.2,6.3l0,0v-6.3h1v7.6h-1.3l-4.2-6.3l0,0v6.3h-1v-7.6H49.5z"></path>
			<path class="st1" d="M58.4,122.6h1v7.6h-1V122.6z"></path>
			<path class="st1" d="M60.6,122.6h1.2l2.2,6.2l0,0l2.3-6.2h1.1l-3,7.6h-1L60.6,122.6z"></path>
			<path class="st1" d="M68.7,122.6h4.9v1h-3.9v2.3h3.6v1h-3.6v2.4h4.1v1h-5.1V122.6z"></path>
			<path class="st1" d="M75.6,122.6h2.7c0.5,0,0.9,0.1,1.2,0.2c0.3,0.1,0.6,0.3,0.7,0.5c0.2,0.2,0.3,0.4,0.4,0.7
				c0.1,0.3,0.1,0.5,0.1,0.7s0,0.5-0.1,0.7s-0.2,0.4-0.4,0.6c-0.2,0.2-0.4,0.3-0.6,0.5c-0.2,0.1-0.5,0.2-0.8,0.2l2.2,3.5h-1.3
				l-1.9-3.4h-1.2v3.4h-1L75.6,122.6L75.6,122.6z M76.6,126H78c0.2,0,0.4,0,0.6,0s0.4-0.1,0.5-0.2c0.2-0.1,0.3-0.2,0.4-0.4
				c0.1-0.2,0.1-0.4,0.1-0.6c0-0.3,0-0.5-0.1-0.6c-0.1-0.2-0.2-0.3-0.4-0.4c-0.2-0.1-0.3-0.1-0.5-0.2c-0.2,0-0.4,0-0.6,0h-1.4V126z"></path>
			<path class="st1" d="M82.7,128.6c0.2,0.3,0.4,0.5,0.7,0.6c0.3,0.1,0.6,0.2,0.9,0.2c0.2,0,0.3,0,0.5-0.1s0.3-0.1,0.5-0.2
				c0.1-0.1,0.3-0.2,0.4-0.4s0.1-0.3,0.1-0.5c0-0.3-0.1-0.5-0.3-0.7c-0.2-0.2-0.4-0.3-0.7-0.4c-0.3-0.1-0.6-0.2-0.9-0.3
				c-0.3-0.1-0.6-0.2-0.9-0.4c-0.3-0.2-0.5-0.4-0.7-0.7c-0.2-0.3-0.3-0.7-0.3-1.2c0-0.2,0-0.5,0.1-0.7c0.1-0.3,0.2-0.5,0.5-0.7
				c0.2-0.2,0.5-0.4,0.8-0.5s0.7-0.2,1.2-0.2c0.4,0,0.8,0.1,1.2,0.2c0.4,0.1,0.7,0.3,1,0.7L86,124c-0.1-0.2-0.3-0.4-0.6-0.5
				c-0.2-0.1-0.5-0.2-0.8-0.2s-0.5,0-0.7,0.1s-0.3,0.2-0.5,0.3c-0.1,0.1-0.2,0.2-0.2,0.4c0,0.1-0.1,0.3-0.1,0.4
				c0,0.3,0.1,0.6,0.3,0.7c0.2,0.2,0.4,0.3,0.7,0.4c0.3,0.1,0.6,0.2,0.9,0.3c0.3,0.1,0.6,0.2,0.9,0.4c0.3,0.2,0.5,0.4,0.7,0.6
				c0.2,0.3,0.3,0.6,0.3,1.1c0,0.4-0.1,0.7-0.2,1s-0.3,0.5-0.6,0.7c-0.2,0.2-0.5,0.4-0.8,0.5s-0.7,0.2-1,0.2c-0.5,0-1-0.1-1.4-0.3
				s-0.8-0.4-1-0.8L82.7,128.6z"></path>
			<path class="st1" d="M88.7,122.6h1v7.6h-1V122.6z"></path>
			<path class="st1" d="M93.6,123.6h-2.5v-1h6v1h-2.5v6.7h-1V123.6z"></path>
			<path class="st1" d="M100.2,127l-2.9-4.4h1.3l2.1,3.4l2.1-3.4h1.3l-2.9,4.4v3.3h-1V127z"></path>
		</g>
		<g>
			<line class="st3" x1="13.6" y1="126" x2="38.5" y2="126"></line>
			<line class="st3" x1="104.9" y1="126" x2="129.8" y2="126"></line>
		</g>
	</g>
</g>
</svg>