<?xml version="1.0" encoding="UTF-8" standalone="no"?>
<svg xmlns:rdf="http://www.w3.org/1999/02/22-rdf-syntax-ns#" xmlns="http://www.w3.org/2000/svg" xml:space="preserve" height="97.064" viewBox="0 0 285.55466 97.064455" width="285.55" version="1.1" xmlns:cc="http://creativecommons.org/ns#" xmlns:dc="http://purl.org/dc/elements/1.1/"><g transform="matrix(1.25 0 0 -1.25 -141.9 167.33)"><g transform="matrix(.5 0 0 .5 114.28 47.922)"><path d="m0.76 168.76 0.029-81.973c0-18.005 1.188-23.414 11.76-35.843 10.573-12.425 37.632-22.462 37.632-22.462s27.033 10.037 37.612 22.462c10.573 12.429 11.749 17.838 11.749 35.843l0.033 81.978s-12.177-7.25-24.57-6.339c-14.055 1.033-24.824 6.573-24.824 6.573s-10.797-5.54-24.845-6.573c-12.401-0.911-24.576 6.339-24.576 6.339z" stroke="#000" stroke-width="1.316" fill="#fff"/><path d="m258.88 0.89062c-6.025 1.935-12.044 3.5173-18.066 4.9961v1.8203c1.3662-0.10875 2.3891-0.23047 3.8691-0.23047 4.425 0 5.1074 1.8184 5.1074 6.9297v54.191c0 6.24-2.0468 7.7238-8.748 8.1738v1.7051h26.811v-1.7051c-6.59-0.345-8.5215-1.2486-8.5215-7.8398v-67.814l-0.45117-0.22656zm-116.98 2.3789-0.68359 19.322h2.7246c2.5-12.389 5.57-14.543 18.07-14.543h6.1309v56.789c0 8.4138-0.34344 11.02-10.68 11.482v2.1562h33.168v-2.1562c-9.5412-0.34625-10.902-2.506-10.902-10.229v-58.043h6.1328c12.495 0 15.675 2.0367 18.062 14.543h2.7266l-0.68164-19.322h-64.066zm-79.173 4.3965c0.0025 0-13.039 6.5424-29.232 7.7324-14.591 1.077-28.497-5.6207-28.497-5.6207l0.0352 94.193c0 21.181 0.97727 27.961 13.416 42.584 12.44 14.62 44.277 26.43 44.277 26.43s31.803-11.81 44.248-26.43c12.438-14.622 13.068-20.983 13.068-42.164l0.041-94.051s-13.573 6.1348-28.154 5.0586c-16.531-1.216-29.199-7.732-29.199-7.732zm225.56 18.555c-13.175 0-18.518 8.0624-18.518 12.607 0 1.815 1.3662 5.002 4.8887 5.002 2.9512 0 5.1113-2.5055 5.1113-4.8867 0-1.0162-0.56836-2.7255-0.56836-4.4355 0-3.5175 4.3202-5.5625 8.0664-5.5625 3.4062 0 8.7422 1.254 8.7422 9.4277v6.9316c-18.514 7.2712-28.396 11.135-28.396 22.496 0 7.6012 5.9124 11.818 12.045 11.818 6.2488 0 12.266-4.5508 16.469-8.3008 0.5725 8.18 5.3378 8.3008 7.3828 8.3008 1.8162 0 5.3427-0.1207 10.115-5.6895v-2.9531c-1.2525 1.0238-2.7272 2.1602-5.1172 2.1602-3.29 0-3.2891-3.2911-3.2891-6.5898v-22.15c0-6.815-0.002-18.176-16.932-18.176zm40.785 0c-5.2262 1.9338-10.565 3.6377-15.68 5.1152v1.9297c0.455-0.23125 1.7031-0.45508 3.2969-0.45508 1.8188 0 3.9766 0.11398 3.9766 7.2715v28.17c0 6.7062-1.7081 8.1745-7.0469 8.5195v1.7051h24.086v-1.7051c-5.9088-0.345-7.5-2.1582-7.5-5.9082v-31.92c4.32-4.1988 7.8393-6.4727 11.248-6.4727 6.7 0 8.748 4.0884 8.748 11.023v23.736c0 8.6288-2.9557 9.196-7.1582 9.541v1.7051h23.627v-1.7051c-5.5612-0.45-6.9297-2.1593-6.9297-7.498v-26.016c0-13.966-8.0667-17.037-13.293-17.037-6.7012 0-11.018 3.9776-16.582 9.2051v-8.9766l-0.79297-0.22852zm60.072 0c-9.0838 0-23.172 6.9309-23.172 27.943 0 16.126 8.6358 25.455 21.238 25.455 16.362 0 22.95-15.458 24.09-18.986l-1.8203-0.78711c-2.615 4.2-7.4985 11.93-17.604 11.93-7.5 0-16.702-4.6617-18.062-24.762h35.328c-1.2525-14.886-9.3193-20.793-19.998-20.793zm-199.46 1.1367v1.5879c3.4075 0.225 7.043 0.45148 7.043 7.2715v28.621c0 12.049 8.8563 14.781 13.518 14.781 2.045 0 7.5008-0.46758 11.926-4.8926l4.8867-4.8809v9.4277l0.22852 0.22461c5.3325-1.93 9.6535-3.523 15.791-5.1055v-1.5996c-6.8212 0.23-7.0488-2.3857-7.0488-6.4707v-38.965h-17.943v1.9355c7.95 0.225 8.4062 2.605 8.4062 7.1562v26.691c0 3.7488-0.79531 4.891-1.8203 5.791-3.0675 2.4962-6.4753 4.0918-9.8828 4.0918-7.4975 0-8.5176-7.0464-8.5176-8.6289v-37.037h-16.586zm196.96 2.957c8.97 0 10.108 7.613 10.906 13.061h-23.398c1.8138-9.9988 6.2447-13.061 12.492-13.061zm-90.641 17.723v16.461c0.00001 3.4138-0.33742 4.7748-3.8574 6.4785-1.025 0.56125-4.5448 2.0469-7.041 2.0469-4.2038 0-7.5-3.5238-7.5-8.8613v-0.23047c0-3.8525 1.2497-10.212 18.398-15.895zm-1.0195 40.635c-3.9812 0-5.6758 3.6249-5.6758 5.7949 0 2.155 1.5845 5.7949 5.6758 5.7949 3.4062 0 5.9082-2.5012 5.9082-5.7949 0-3.1812-2.502-5.7949-5.9082-5.7949zm181.88 0c-3.98 0-5.6875 3.6249-5.6875 5.7949 0 2.155 1.5862 5.7949 5.6875 5.7949 3.3962 0 5.8984-2.5012 5.8984-5.7949 0-3.1812-2.5022-5.7949-5.8984-5.7949zm-319.11 2.3828v2.1582c8.635 0.56625 10.227 1.8246 10.227 10.225v35.447c0 6.8088 0.00007 28.961 28.174 28.961 29.421 0 29.42-21.358 29.42-30.439v-29.648c0-11.926 1.9302-13.631 10.678-14.545v-2.1582h-26.357v2.1582c7.9538 0.45875 10.678 2.3862 10.678 14.545v30.658c0 9.2138-1.1351 12.962-2.6113 15.457-3.295 5.34-9.7689 8.9785-18.629 8.9785-19.764 0-19.764-15.794-19.764-23.062v-36.352c0-8.0575 1.3595-9.5359 10.332-10.225v-2.1582h-32.146zm343.24 9.4316c-4.2025 6.0112-5.9098 8.5205-10.229 12.949-2.4975 2.5012-4.9902 3.1812-4.9902 4.5449 0 0.33625 0.22656 0.67797 0.44531 0.79297h6.0312v34.193c0 11.361 4.6535 14.434 10.447 14.434 5.2262 0 10.569-3.7601 13.289-8.6426l-1.4766-1.25c-1.2425 1.4762-3.2941 3.9785-6.9316 3.9785-5.7938 0-5.793-6.7056-5.793-10.217v-32.496h11.482v-3.6328h-11.482v-13.178c0-0.9125-0.00047-1.4766-0.79297-1.4766zm-256.22 13.516c-5.2288 1.9338-10.57 3.6384-15.68 5.1172v1.9277c0.455-0.23 1.7058-0.45508 3.3008-0.45508 1.81 0 3.9727 0.11593 3.9727 7.2734v28.17c0 6.705-1.708 8.1745-7.043 8.5195v1.7031h24.08v-1.7031c-5.905-0.345-7.4941-2.1602-7.4941-5.9102v-31.92c4.3112-4.1988 7.8304-6.4727 11.244-6.4727 6.705 0 8.7441 4.0884 8.7441 11.023v23.736c0 8.6288-2.9525 9.198-7.1562 9.543v1.7031h23.508 0.12305 26.811v-1.7031c-7.8438-0.45-8.4102-2.3791-8.4102-9.8828v-40.33l-0.45508-0.33985c-5.9038 2.165-11.697 4.3162-17.602 6.25v1.7051c1.47-0.2325 2.9517-0.45117 4.543-0.45117 1.8188 0 3.9766 0.11359 3.9766 6.8086v26.357c0 8.8182-1.9204 9.5305-8.9062 9.877-5.5292-0.45587-6.8828-2.1686-6.8828-7.4922v-26.016c0-13.966-8.0713-17.039-13.299-17.039-6.7 0-11.015 3.9795-16.58 9.207v-8.9766l-0.79492-0.23047zm128.66 0c-9.0938 0-23.176 6.9309-23.176 27.943 0 16.125 8.6354 25.455 21.244 25.455 16.358 0 22.945-15.455 24.082-18.982l-1.8223-0.78711c-2.6088 4.1988-7.4966 11.926-17.602 11.926-7.5038 0-16.708-4.6605-18.068-24.762h35.336c-1.26-14.885-9.3154-20.793-19.994-20.793zm35.891 0c-5.5662 2.275-11.252 4.3153-16.812 6.1328v1.8223c1.0212-0.2325 2.2645-0.45117 3.8633-0.45117 1.815 0 3.9746 0.11359 3.9746 6.8086v28.402c0 6.36-1.8148 6.7004-8.0723 7.8379v1.7031h27.264v-1.7031c-5.7938-0.22625-9.6504-0.68703-9.6504-8.5195v-25.561c0-3.6312 4.9984-9.3164 7.7246-9.3164 2.725 0 3.8609 3.9805 7.8359 3.9805 2.7325 0 4.3262-2.1614 4.3262-5.0039 0-3.7488-2.2737-6.1328-6.1387-6.1328-4.3262 0-8.1801 2.2761-13.518 10.34h-0.23047v-10.109l-0.56641-0.23047zm37.311 0c-11.01 0-15.898 7.5033-15.898 13.863 0 8.3975 6.2466 12.603 13.289 16.588l6.5879 3.7363c3.6412 2.0562 5.9102 4.7767 5.9102 8.418 0 6.4688-5.3362 8.2891-9.2012 8.2891-11.135 0-13.296-9.8843-14.648-15.904h-1.8281v17.723h1.4844c0.68125-1.0225 1.13-1.3633 2.5-1.3633 3.1812-0.11625 8.0638 2.0488 13.174 2.0488 7.2712 0 16.475-4.782 16.475-14.658 0-6.8225-3.9817-10-9.543-13.406l-12.268-7.2715c-4.2-2.5-4.88-5.79-4.88-8.07 0-2.9525 2.3858-7.3828 8.6308-7.3828 5 0 10.112 2.3871 12.607 13.975h1.7031l-0.45117-15.566h-1.252c-0.33375 0.46-0.90344 1.252-1.9297 1.252-1.935 0-5.4526-2.2754-10.455-2.2754zm35.561 0c-5.9062 2.165-11.703 4.3162-17.605 6.25v1.7051c1.4712-0.2325 2.9441-0.45117 4.5391-0.45117 1.8212 0 3.9785 0.11359 3.9785 6.8086v26.357c0 8.855-1.9345 9.5378-8.9707 9.8828v1.7031h26.912v-1.7031c-7.8275-0.45-8.3926-2.3791-8.3926-9.8828v-40.33l-0.46094-0.33985zm-178.53 1.1387v1.7031c2.2688 0.11 4.5466 0.79563 6.2441 4.2031 4.0962 8.0587 14.994 34.416 17.721 41.461 1.8175 4.8925 2.0414 5.3379 3.0664 5.3379 0.795 0 1.8198-2.6099 3.0723-5.6699l14.533-36.467c2.7325-6.705 3.5262-8.5302 7.3887-8.8652v-1.7031h-15.793v1.7031c2.8475 0.11 5.3379 1.1368 5.3379 3.748 0 4.0888-8.0606 21.809-11.922 32.715l-11.586-29.076c-0.3425-0.91875-1.0293-2.6098-1.0293-3.9785 0-2.8362 2.4966-3.177 5.2266-3.4082v-1.7031h-22.26zm211.19 0v1.5879c1.4675 0.225 4.428 0.79132 5.793 3.6426l12.943 27.941c1.5912 3.5162 7.0469 13.968 7.0469 15.672 0 1.8125-4.5444 17.5-10.453 17.5-1.4675 0-4.9982-2.0527-8.0645-2.0527-5.2275 0-5.4531 4.3177-5.4531 5.0039 0 2.945 2.6153 6.584 8.2891 6.584 8.5188 0 13.516-7.503 19.316-22.717l17.494-46.346c1.7062-4.6562 3.9692-4.882 5.4492-5.1133v-1.7031h-15.332v1.7031c3.6312-0.115 5.4551 1.0204 5.4551 3.1816-0.00001 1.0212-1.4847 4.6552-2.6172 7.7227l-8.8652 25.219-13.055-28.736c-0.3425-0.7975-1.1426-2.6107-1.1426-4.0957 0-3.06 3.9736-3.181 6.5898-3.291v-1.7031h-23.395zm-143.93 2.9551c8.9725 0 10.109 7.613 10.906 13.061h-23.404c1.8262-9.9975 6.2543-13.061 12.498-13.061z" transform="matrix(.8 0 0 -.8 0 171)" fill="#336666"/><path d="m49.055 29.191c-4.66 2.3812-24.438 5.6055-24.438 5.6055l-0.5 2.4609c6.5037 3.0062 5.4375 20.967 5.4375 20.967v29.381c0 9.7662 3.0473 15.557 5.6035 18.275 9.594 9.5928 23.165 8.3134 27.484 8.3125l0.002-0.67578-0.0625-13.984c-15.421 0-18.583-2.2466-20.535-7.3066-1.3938-3.6212-1.2715-9.3145-1.2715-9.3145s0.03414-33.84-0.03711-33.771c0-11.662 9.6758-12.375 9.6758-12.375l-1.3594-7.5742zm13.59 84.326 0.0039 0.67578c4.3176 0.00092 17.896 1.2803 27.479-8.3125 2.5512-2.7188 5.6152-8.5091 5.6152-18.275v-29.381s-1.0778-17.961 5.4297-20.967l-0.50196-2.4609s-19.775-3.2242-24.441-5.6055l-1.3594 7.5742s9.6738 0.7125 9.6738 12.375c-0.065-0.06875-0.0332 33.771-0.0332 33.771s0.11891 5.6932-1.2773 9.3145c-1.9512 5.06-5.1105 7.3066-20.529 7.3066l-0.05859 13.984z" transform="matrix(.8 0 0 -.8 0 171)" stroke="#000" stroke-width="1.265" fill="#fff"/><path d="m50.114 132.57c23.022 0 34.197-2.954 34.197-2.954l4.825-17.317-5.305-3.059-8.006 11.614c-9.777 1.407-19.833 1.321-19.833 1.321l-0.073-45.905c0-3.823 0.728-6.426 4.365-6.426h6.76v-11.249h-17 0.146-17.011v11.249h6.768c3.638 0 4.362 2.603 4.362 6.426l-0.07 45.897s-10.059 0.086-19.827-1.321l-8.017-11.614-5.298 3.059 4.826 17.317s11.164 2.954 34.195 2.954h-0.004z" stroke="#000" stroke-width="1.012" fill="#fff"/></g></g></svg>
