<svg xmlns="http://www.w3.org/2000/svg" viewBox="0 0 1308.54 207.78"><defs><style>.cls-1{fill-rule:evenodd;}.cls-2{fill:#e31937;}.cls-3{fill:none;stroke:#c21128;stroke-miterlimit:3.86;stroke-width:0.16px;}</style></defs><g id="Foreground"><path class="cls-1" d="M375.71,102l22.36,7.09q-5.15,18.69-17.14,27.81t-30.31,9q-22.74,0-37.39-15.51T298.58,87.89q0-28.52,14.73-44.25T352,27.82q21,0,34,12.39,7.79,7.32,11.68,21L374.93,66.7a23.66,23.66,0,0,0-24.07-19.17q-12.71,0-20.65,9.12t-7.87,29.52q0,21.66,7.79,30.85a25.31,25.31,0,0,0,20.26,9.19,23.09,23.09,0,0,0,15.82-5.84Q372.83,114.54,375.71,102Z" transform="translate(-28.05 -25.24)"/><path class="cls-1" d="M466.09,117.65l21.81,3.66q-4.2,12-13.32,18.31t-22.67,6.23q-21.59,0-31.94-14.1-8.18-11.3-8.18-28.52,0-20.57,10.75-32.17t27.19-11.69q18.47,0,29.14,12.23t10.2,37.32H434.23q.22,9.74,5.29,15.19a16.61,16.61,0,0,0,12.62,5.38,13.4,13.4,0,0,0,8.65-2.81Q464.3,123.88,466.09,117.65Zm1.25-22.13q-.24-9.49-4.91-14.41a15.76,15.76,0,0,0-23.22.23q-4.66,5.22-4.59,14.18Z" transform="translate(-28.05 -25.24)"/><path class="cls-1" d="M582.65,144H560.76V101.75q0-13.4-1.41-17.29a12.12,12.12,0,0,0-4.59-6.16,13,13,0,0,0-7.56-2.18A17.57,17.57,0,0,0,537,79.24a15.91,15.91,0,0,0-6.23,8.26q-1.63,5.13-1.63,19V144H507.24V61.24h20.33V73.4q10.83-14,27.26-14A32.56,32.56,0,0,1,568.08,62a21.58,21.58,0,0,1,9,6.62,23.45,23.45,0,0,1,4.29,9.2,66.84,66.84,0,0,1,1.25,14.72Z" transform="translate(-28.05 -25.24)"/><path class="cls-1" d="M643.27,61.24V78.69h-15V112q0,10.13.39,11.84a5,5,0,0,0,1.95,2.72,6.31,6.31,0,0,0,3.74,1.1c2,0,5-.71,8.8-2.11l1.87,17a43.55,43.55,0,0,1-17.29,3.27,27.92,27.92,0,0,1-10.68-1.95,16.24,16.24,0,0,1-7-5.14,20.86,20.86,0,0,1-3-8.57q-.69-3.81-.7-15.43V78.69H596.29V61.24h10.05V44.81l22-12.78V61.24Z" transform="translate(-28.05 -25.24)"/><path class="cls-1" d="M679.9,144H658V61.24h20.34V73q5.22-8.34,9.35-11a17.58,17.58,0,0,1,9.5-2.65A27.79,27.79,0,0,1,711.6,63.5l-6.78,19.09Q699.29,79,694.54,79a12,12,0,0,0-7.79,2.57q-3.19,2.49-5.06,9.11t-1.79,27.74Z" transform="translate(-28.05 -25.24)"/><path class="cls-1" d="M737.87,86.48,718,82.9q3.36-12,11.53-17.76t24.31-5.77q14.64,0,21.81,3.51t10.05,8.8q3,5.31,3,19.56l-.23,25.55q0,10.9,1,16.12a48.83,48.83,0,0,0,4,11.07H771.76c-.58-1.46-1.28-3.61-2.11-6.47-.36-1.3-.62-2.15-.78-2.57a39.33,39.33,0,0,1-12,8.18,34.54,34.54,0,0,1-13.64,2.73q-12.78,0-20.17-6.94a23.07,23.07,0,0,1-7.33-17.52,23.37,23.37,0,0,1,3.35-12.47,21.56,21.56,0,0,1,9.35-8.41q6.07-3,17.45-5.14,15.35-2.9,21.27-5.38V87.81q0-6.32-3.12-9c-2.08-1.82-6-2.72-11.76-2.73-3.9,0-6.93.78-9.12,2.34S739.22,82.64,737.87,86.48Zm29.29,17.77c-2.8.93-7.25,2-13.32,3.35s-10.05,2.57-11.92,3.81a9.14,9.14,0,0,0-4.29,7.72,10.75,10.75,0,0,0,3.43,7.94,11.93,11.93,0,0,0,8.73,3.35,19,19,0,0,0,11.29-3.89,13.69,13.69,0,0,0,5.22-7.25c.57-1.87.86-5.42.86-10.67Z" transform="translate(-28.05 -25.24)"/><rect x="782.67" y="4.53" width="21.89" height="114.21"/><polygon class="cls-1" points="872.13 118.73 872.13 4.53 906.64 4.53 927.36 82.43 947.85 4.53 982.44 4.53 982.44 118.73 961.01 118.73 961.01 28.83 938.34 118.73 916.14 118.73 893.55 28.83 893.55 118.73 872.13 118.73"/><path class="cls-1" d="M1050.08,86.48l-19.87-3.58q3.35-12,11.53-17.76t24.31-5.77q14.64,0,21.81,3.51t10.05,8.8q3,5.31,3,19.56l-.23,25.55q0,10.9,1,16.12a48.83,48.83,0,0,0,4,11.07H1084c-.58-1.46-1.28-3.61-2.11-6.47-.36-1.3-.62-2.15-.78-2.57a39.33,39.33,0,0,1-12,8.18,34.54,34.54,0,0,1-13.64,2.73q-12.78,0-20.17-6.94a23.07,23.07,0,0,1-7.33-17.52,23.37,23.37,0,0,1,3.35-12.47,21.61,21.61,0,0,1,9.35-8.41q6.07-3,17.45-5.14,15.35-2.9,21.27-5.38V87.81q0-6.32-3.12-9c-2.08-1.82-6-2.72-11.76-2.73-3.9,0-6.93.78-9.11,2.34S1051.43,82.64,1050.08,86.48Zm29.29,17.77c-2.8.93-7.25,2-13.32,3.35s-10,2.57-11.92,3.81a9.14,9.14,0,0,0-4.29,7.72,10.75,10.75,0,0,0,3.43,7.94,11.93,11.93,0,0,0,8.73,3.35,19,19,0,0,0,11.29-3.89,13.69,13.69,0,0,0,5.22-7.25c.57-1.87.86-5.42.86-10.67Z" transform="translate(-28.05 -25.24)"/><path class="cls-1" d="M1122.93,50V29.77h21.89V50Zm0,93.95V61.24h21.89V144Z" transform="translate(-28.05 -25.24)"/><path class="cls-1" d="M1243,144H1221.1V101.75q0-13.4-1.4-17.29a12.14,12.14,0,0,0-4.6-6.16,12.93,12.93,0,0,0-7.55-2.18,17.53,17.53,0,0,0-10.21,3.12,15.91,15.91,0,0,0-6.23,8.26q-1.63,5.13-1.64,19V144h-21.89V61.24h20.33V73.4q10.83-14,27.27-14A32.59,32.59,0,0,1,1228.43,62a21.71,21.71,0,0,1,9,6.62,23.59,23.59,0,0,1,4.29,9.2A66.33,66.33,0,0,1,1243,92.56Z" transform="translate(-28.05 -25.24)"/><path class="cls-1" d="M1313.59,117.65l21.81,3.66q-4.22,12-13.32,18.31t-22.67,6.23q-21.59,0-31.94-14.1-8.19-11.3-8.18-28.52,0-20.57,10.75-32.17t27.18-11.69q18.48,0,29.14,12.23t10.21,37.32h-54.85q.24,9.74,5.3,15.19a16.59,16.59,0,0,0,12.62,5.38,13.41,13.41,0,0,0,8.65-2.81Q1311.8,123.88,1313.59,117.65Zm1.24-22.13q-.22-9.49-4.91-14.41a15,15,0,0,0-11.37-5,15.19,15.19,0,0,0-11.84,5.22q-4.68,5.22-4.6,14.18Z" transform="translate(-28.05 -25.24)"/><path class="cls-2" d="M138.43,232.32H28.05V25.24H139.49c-53.84,20-90.4,62.07-90.4,105.92C49.09,174.73,85.17,212.66,138.43,232.32Z" transform="translate(-28.05 -25.24)"/><path class="cls-2" d="M252,187.86q-4.54.15-9.15.07c-68.54-1.11-123.41-38.74-122.56-84C121,65.76,161,34.34,214.56,26H252V42.69c-33.49,1.16-60.12,20.44-60.12,44.06s26.63,42.9,60.12,44.06Z" transform="translate(-28.05 -25.24)"/><path class="cls-3" d="M120.32,103.9C121,65.76,161,34.34,214.56,26H252V42.69c-33.49,1.16-60.12,20.44-60.12,44.06s26.63,42.9,60.12,44.06v57.05q-4.54.15-9.15.07C174.34,186.82,119.47,149.19,120.32,103.9Z" transform="translate(-28.05 -25.24)"/><path class="cls-1" d="M345.05,214.62l11.69,3.53a21.47,21.47,0,0,1-3.71,8.22,15.93,15.93,0,0,1-6.3,5,23.37,23.37,0,0,1-9.54,1.68,28.1,28.1,0,0,1-11.51-2,18.37,18.37,0,0,1-7.68-7.21q-3.24-5.16-3.24-13.19,0-10.72,5.68-16.46t16.14-5.77q8.15,0,12.8,3.3t6.95,10.13l-11.78,2.62a10.08,10.08,0,0,0-1.29-2.89,7.7,7.7,0,0,0-2.74-2.35A8.4,8.4,0,0,0,330,202c-1.22,1.81-1.82,4.64-1.82,8.51q0,7.19,2.18,9.86a7.46,7.46,0,0,0,6.12,2.65,7.37,7.37,0,0,0,5.77-2.15A13.23,13.23,0,0,0,345.05,214.62Z" transform="translate(-28.05 -25.24)"/><path class="cls-1" d="M378.2,210.71q0-10.58,5.89-16.46t16.4-5.89q10.77,0,16.6,5.8t5.83,16.19q0,7.58-2.56,12.43a18.1,18.1,0,0,1-7.36,7.53A24.29,24.29,0,0,1,401,233a27.71,27.71,0,0,1-12.1-2.32,18.31,18.31,0,0,1-7.75-7.36A24.48,24.48,0,0,1,378.2,210.71Zm13.34.06q0,6.53,2.41,9.39a9.23,9.23,0,0,0,13.28.06q2.36-2.81,2.35-10,0-6.1-2.47-8.89a8.33,8.33,0,0,0-6.65-2.83,8.09,8.09,0,0,0-6.48,2.86Q391.54,204.17,391.54,210.77Z" transform="translate(-28.05 -25.24)"/><polygon class="cls-1" points="418.56 163.85 436.11 163.85 442.88 190.11 449.62 163.85 467.11 163.85 467.11 207.01 456.22 207.01 456.22 174.1 447.77 207.01 437.91 207.01 429.49 174.1 429.49 207.01 418.56 207.01 418.56 163.85"/><polygon class="cls-1" points="492.13 163.85 509.68 163.85 516.45 190.11 523.19 163.85 540.68 163.85 540.68 207.01 529.78 207.01 529.78 174.1 521.34 207.01 511.47 207.01 503.05 174.1 503.05 207.01 492.13 207.01 492.13 163.85"/><path class="cls-1" d="M622,189.1h13.31v25.73a21.45,21.45,0,0,1-1.21,7.24,15.54,15.54,0,0,1-3.73,6,14.93,14.93,0,0,1-5.33,3.56,27,27,0,0,1-9.34,1.44,60.13,60.13,0,0,1-6.89-.44,18,18,0,0,1-6.21-1.74,16,16,0,0,1-4.59-3.73,13.84,13.84,0,0,1-2.83-5,25.93,25.93,0,0,1-1.23-7.3V189.1h13.3v26.35a7.58,7.58,0,0,0,1.95,5.53A8.48,8.48,0,0,0,620,221a7.49,7.49,0,0,0,2-5.56Z" transform="translate(-28.05 -25.24)"/><polygon class="cls-1" points="632.82 163.85 645.27 163.85 661.52 187.73 661.52 163.85 674.09 163.85 674.09 207.01 661.52 207.01 645.36 183.31 645.36 207.01 632.82 207.01 632.82 163.85"/><rect x="700.14" y="163.85" width="13.37" height="43.16"/><polygon class="cls-1" points="736.71 163.85 777.25 163.85 777.25 174.51 763.64 174.51 763.64 207.01 750.31 207.01 750.31 174.51 736.71 174.51 736.71 163.85"/><polygon class="cls-1" points="795.58 163.85 810.39 163.85 819.11 178.43 827.82 163.85 842.54 163.85 825.76 188.94 825.76 207.01 812.39 207.01 812.39 188.94 795.58 163.85"/><path class="cls-1" d="M957.36,214.62l11.69,3.53a21.47,21.47,0,0,1-3.71,8.22,16,16,0,0,1-6.3,5A23.37,23.37,0,0,1,949.5,233,28.1,28.1,0,0,1,938,231a18.37,18.37,0,0,1-7.68-7.21q-3.24-5.16-3.24-13.19,0-10.72,5.68-16.46t16.13-5.77q8.16,0,12.81,3.3t6.95,10.13l-11.78,2.62a10.08,10.08,0,0,0-1.29-2.89,7.7,7.7,0,0,0-2.74-2.35A8.4,8.4,0,0,0,942.26,202c-1.22,1.81-1.82,4.64-1.82,8.51q0,7.19,2.17,9.86a7.5,7.5,0,0,0,6.13,2.65,7.37,7.37,0,0,0,5.77-2.15A13.23,13.23,0,0,0,957.36,214.62Z" transform="translate(-28.05 -25.24)"/><path class="cls-1" d="M990.51,210.71q0-10.58,5.89-16.46t16.4-5.89q10.77,0,16.6,5.8t5.83,16.19q0,7.58-2.56,12.43a18.1,18.1,0,0,1-7.36,7.53,24.27,24.27,0,0,1-12,2.68,27.71,27.71,0,0,1-12.1-2.32,18.25,18.25,0,0,1-7.75-7.36A24.48,24.48,0,0,1,990.51,210.71Zm13.34.06q0,6.53,2.41,9.39a9.23,9.23,0,0,0,13.28.06q2.36-2.81,2.35-10,0-6.1-2.47-8.89a8.33,8.33,0,0,0-6.65-2.83,8.09,8.09,0,0,0-6.48,2.86Q1003.85,204.17,1003.85,210.77Z" transform="translate(-28.05 -25.24)"/><polygon class="cls-1" points="1031.02 163.85 1044.36 163.85 1044.36 196.39 1065.17 196.39 1065.17 207.01 1031.02 207.01 1031.02 163.85"/><polygon class="cls-1" points="1087.89 163.85 1101.23 163.85 1101.23 196.39 1122.05 196.39 1122.05 207.01 1087.89 207.01 1087.89 163.85"/><polygon class="cls-1" points="1144.74 163.85 1180.48 163.85 1180.48 173.07 1158.11 173.07 1158.11 179.93 1178.86 179.93 1178.86 188.73 1158.11 188.73 1158.11 197.24 1181.13 197.24 1181.13 207.01 1144.74 207.01 1144.74 163.85"/><path class="cls-1" d="M1254.72,216.62v-9h20.61V226a42.64,42.64,0,0,1-10.48,5.51,35.8,35.8,0,0,1-10.78,1.44q-7.68,0-12.54-2.62a18,18,0,0,1-7.51-7.8,25.83,25.83,0,0,1-2.64-11.89,24.78,24.78,0,0,1,2.91-12.28,18.88,18.88,0,0,1,8.54-8q4.38-2.08,11.8-2.09,7.15,0,10.69,1.3a13.76,13.76,0,0,1,5.89,4,17.68,17.68,0,0,1,3.53,6.89l-12.86,2.3a7,7,0,0,0-2.71-3.74,8.32,8.32,0,0,0-4.83-1.3,8.76,8.76,0,0,0-7,3.06c-1.73,2-2.59,5.24-2.59,9.63q0,7,2.62,10a9.31,9.31,0,0,0,7.36,3,13.76,13.76,0,0,0,4.27-.65,23.07,23.07,0,0,0,4.65-2.2v-4.07Z" transform="translate(-28.05 -25.24)"/><polygon class="cls-1" points="1271.83 163.85 1307.57 163.85 1307.57 173.07 1285.19 173.07 1285.19 179.93 1305.95 179.93 1305.95 188.73 1285.19 188.73 1285.19 197.24 1308.21 197.24 1308.21 207.01 1271.83 207.01 1271.83 163.85"/></g></svg>