<svg id="Layer_1" data-name="Layer 1" xmlns="http://www.w3.org/2000/svg" viewBox="0 0 148.41 44.95"><defs><style>.cls-1{fill:#5588c3;}.cls-2{fill:#989f61;}</style></defs><path class="cls-1" d="M45.32,49.89h0Q21.86,38.67,21.85,20.75a8.44,8.44,0,0,1,.32-2.62A12.24,12.24,0,0,1,23.3,15.7l-2.89,2.15c-4.79,3.36-9.32,6.31-13.6,8.93V51.19H48.13C47.16,50.74,46.23,50.35,45.32,49.89Z" transform="translate(-6.81 -6.24)"/><path class="cls-1" d="M33.16,21.92h0c0,6.84,6,11.57,16.7,15.37S72.13,42.6,93,42.6V6.24H46.29C37.11,10.44,33.16,15.89,33.16,21.92Z" transform="translate(-6.81 -6.24)"/><path class="cls-1" d="M6.81,6.24h0v7.35c4.6-2.36,8.94-4.73,13.6-7.35Z" transform="translate(-6.81 -6.24)"/><path class="cls-2" d="M98.09,13.21h0a3.49,3.49,0,0,1-.34-1.66.3.3,0,0,1,.34,0c.19.52.77,1.66,1.75,1.66a1.12,1.12,0,0,0,1.26-1.14,1.58,1.58,0,0,0-1-1.49l-.47-.27a2.38,2.38,0,0,1-1.43-2c0-1.07.71-1.91,2.3-1.91a10,10,0,0,1,1.43.19A7.42,7.42,0,0,1,102.07,8c-.06.07-.26.14-.32,0-.19-.54-.52-1.25-1.43-1.25a1.11,1.11,0,0,0-1.19,1.12c0,.46.32.92,1,1.31l.65.32a2.27,2.27,0,0,1,1.44,2c0,1.19-.91,2-2.44,2A4.19,4.19,0,0,1,98.09,13.21Z" transform="translate(-6.81 -6.24)"/><path class="cls-2" d="M110.49,10h0a3.55,3.55,0,0,1-3.69,3.62,3.48,3.48,0,0,1-3.73-3.47,3.62,3.62,0,0,1,3.73-3.75A3.5,3.5,0,0,1,110.49,10Zm-6-.2h0c0,1.46.62,3.44,2.44,3.44,1.19,0,2.1-.94,2.1-3,0-1.58-.71-3.42-2.36-3.42C105.63,6.76,104.5,7.56,104.5,9.77Z" transform="translate(-6.81 -6.24)"/><path class="cls-2" d="M112.15,8.08h0c0-1.12-.13-1.19-.61-1.25h-.2a.34.34,0,0,1,0-.34,9.31,9.31,0,0,0,1.39.07,9.18,9.18,0,0,0,1.38-.07c.06.07.12.27,0,.34h-.21c-.51.06-.58.13-.58,1.25v2.36c0,1.44.45,2.63,1.91,2.63s1.91-1,1.91-2.63V9.19A6.41,6.41,0,0,0,117,7.08c-.07-.12-.29-.19-.54-.25h-.21a.34.34,0,0,1,0-.34,7,7,0,0,0,1.2.07,5.4,5.4,0,0,0,1.1-.07.3.3,0,0,1,0,.34h-.19c-.19.06-.39.13-.45.25a5.89,5.89,0,0,0-.2,2.11v1.25a3.57,3.57,0,0,1-.65,2.37,2.7,2.7,0,0,1-2,.78,2.94,2.94,0,0,1-2.17-.65,3.07,3.07,0,0,1-.65-2.23Z" transform="translate(-6.81 -6.24)"/><path class="cls-2" d="M121.65,7.41h0c0-.45,0-.45-.25-.45h-.59c-.92,0-1.24.12-1.65,1-.06.06-.26,0-.32-.07.19-.6.32-1.26.47-1.58,0-.06,0-.06.07-.06s.13,0,.13.06c.06.26.19.26.91.26h4.27c.46,0,.65-.07.78-.26s.07-.06.13-.06.07,0,.13.06A7.6,7.6,0,0,0,125.54,8a.21.21,0,0,1-.32,0c-.13-.8-.33-1-1.46-1h-.59c-.26,0-.26,0-.26.45V12c0,1.12.07,1.12.59,1.19l.33.07c.13.06.06.25,0,.25h-3.15c-.07,0-.07-.25,0-.25l.46-.07c.45-.07.51-.07.51-1.19Z" transform="translate(-6.81 -6.24)"/><path class="cls-2" d="M128.82,10.12h0c-.52,0-.52,0-.52.26V12c0,1.12.07,1.12.58,1.19l.28.07c.13.06.07.25,0,.25h-2.77c-.13,0-.13-.19-.07-.25l.13-.07c.54-.07.61-.07.61-1.19V8.08c0-1.12-.07-1.19-.61-1.25h-.19a.3.3,0,0,1,0-.34,10.2,10.2,0,0,0,1.45.07A8,8,0,0,0,129,6.49c.07.07.13.27,0,.34h-.15c-.51.06-.58.13-.58,1.25V9.32c0,.26,0,.32.52.32h2.49c.55,0,.55-.06.55-.32V8.08c0-1.12-.07-1.19-.61-1.25h-.2a.34.34,0,0,1,0-.34,10.41,10.41,0,0,0,1.46.07,8,8,0,0,0,1.32-.07c.07.07.13.27,0,.34h-.15c-.52.06-.58.13-.58,1.25V12c0,1.12.06,1.12.58,1.19l.22.07c.06.06.06.25,0,.25h-2.85c-.06,0-.06-.19,0-.25l.2-.07c.54-.07.61-.07.61-1.19V10.38c0-.26,0-.26-.55-.26Z" transform="translate(-6.81 -6.24)"/><path class="cls-2" d="M135.53,8.08h0c0-1.12-.07-1.19-.53-1.25h-.19a.3.3,0,0,1,0-.34,8.54,8.54,0,0,0,1.37.07h2a6.73,6.73,0,0,0,1.45-.07c0,.2.07,1,.13,1.46,0,.13-.25.13-.32.06-.13-.6-.32-.86-.65-1a4.06,4.06,0,0,0-.87-.06h-.65c-.45,0-.45,0-.45.6V9.32c0,.26,0,.32.26.32h.45c.91,0,1.11-.06,1.19-.45l.07-.39a.29.29,0,0,1,.33,0V11a.32.32,0,0,1-.33,0l-.07-.39c-.08-.46-.28-.46-1.19-.46h-.45c-.26,0-.26,0-.26.26v1.31a1.82,1.82,0,0,0,.19,1.12c.13.13.26.19,1.17.19,1.33.07,1.52-.26,1.92-1.12a.23.23,0,0,1,.32.07,4.81,4.81,0,0,1-.45,1.51h-5.33a.2.2,0,0,1,0-.25l.39-.07c.46-.07.53-.07.53-1.19Z" transform="translate(-6.81 -6.24)"/><path class="cls-2" d="M141.65,8.15h0c0-1.07,0-1.19-.53-1.19l-.28-.07c-.07-.06-.07-.27,0-.27.68-.06,1.59-.13,2.44-.13a4,4,0,0,1,2,.4,1.62,1.62,0,0,1,.94,1.52A1.81,1.81,0,0,1,144.93,10c-.07,0-.07.15,0,.22a15.26,15.26,0,0,0,1.84,2.69,1.08,1.08,0,0,0,.72.33c.06,0,.06.13,0,.19a6.61,6.61,0,0,1-.66.07,2.26,2.26,0,0,1-2.16-1.39c-.33-.45-.59-1-.85-1.43a.69.69,0,0,0-.68-.33c-.32,0-.32,0-.32.2V12c0,1.12.13,1.12.59,1.19l.28.07c.07.06.07.19-.07.25h-2.78a.16.16,0,0,1-.07-.25l.27-.07c.48-.07.61-.07.61-1.19Zm1.17,1.43h0c0,.39,0,.39.52.39a1.35,1.35,0,0,0,1.52-1.5A1.48,1.48,0,0,0,143.41,7c-.59,0-.59,0-.59.45Z" transform="translate(-6.81 -6.24)"/><path class="cls-2" d="M154.26,11.69h0v1.84a.5.5,0,0,1-.33.13c-.19-.26-.52-.59-1.26-1.46l-2.43-2.75c-.71-.78-1-1.17-1.17-1.3s-.07.07-.07.65v2a5.64,5.64,0,0,0,.2,2c.06.13.26.2.52.27l.26.07c.06.06.06.25-.06.25h-2.24a.16.16,0,0,1-.07-.25l.26-.07c.21-.07.4-.07.46-.27a7,7,0,0,0,.16-2V8.34c0-.78,0-1-.35-1.32-.13-.06-.46-.13-.59-.19h-.13a.34.34,0,0,1,0-.34,8.84,8.84,0,0,0,1.26.07,2.55,2.55,0,0,0,.72-.07,11.54,11.54,0,0,0,1.71,2.18l1,1.1a12.81,12.81,0,0,0,1.52,1.65V9.19a6.41,6.41,0,0,0-.19-2.11c-.07-.12-.29-.19-.54-.25h-.2a.19.19,0,0,1,0-.34,6.79,6.79,0,0,0,1.19.07A5.56,5.56,0,0,0,155,6.49c.07.07.13.27,0,.34l-.2.06a.52.52,0,0,0-.45.19,8.94,8.94,0,0,0-.13,2.11Z" transform="translate(-6.81 -6.24)"/><path class="cls-2" d="M112.54,28.22h0c.19.08.13.41-.07.54-.73-.07-1.38-.07-2.1-.07s-1.59,0-2.37.07c-.13-.13-.19-.46,0-.54l.46-.07c.71-.13.78-.26.78-1.43V19.56h-.07c-.45,1-.71,1.52-1,2.17l-1.52,3.08c-.58,1.26-1.43,3.15-1.76,4a.57.57,0,0,1-.48,0A29.67,29.67,0,0,0,103,25.26l-1.52-3.34c-.33-.71-.79-1.84-1-2.36-.07.85-.07,2.23-.13,3,0,1.06-.07,2.62-.07,4.08,0,1.11,0,1.37.78,1.5l.59.13a.57.57,0,0,1-.07.54,15.57,15.57,0,0,0-1.85-.07,17.08,17.08,0,0,0-1.82.07.57.57,0,0,1-.07-.54l.34-.07c.84-.06,1-.32,1-1.37s.19-2.23.25-4.08c.07-1.17.2-2.62.2-3.66,0-.85-.26-1.19-.91-1.32l-.58-.07c-.13-.13-.13-.46.06-.52a13.57,13.57,0,0,0,1.62.06c.62,0,1.2,0,1.85-.06a8.26,8.26,0,0,0,.93,2.88l2,4c.14.32.62,1.17.81,1.56.26-.52.52-1,.91-1.76l1.65-3.34a19.33,19.33,0,0,0,1.37-3.36,12.55,12.55,0,0,0,1.46.06,17,17,0,0,0,1.84-.06c.19.06.19.39.06.52l-.58.07c-.81.13-.93.41-.93,1.32,0,2.56,0,5.18.12,7.74.07,1.18.26,1.24.81,1.37Z" transform="translate(-6.81 -6.24)"/><path class="cls-2" d="M117.14,24.42h0c-.48,0-.41,0-.6.46l-.66,2.1c-.39,1-.32,1,.32,1.17l.53.07c.15.15.06.41-.07.54a14.16,14.16,0,0,0-1.82-.07,13.73,13.73,0,0,0-1.71.07.42.42,0,0,1,0-.54l.51-.07c.47-.13.66-.26.94-.85s.52-1.17.85-2.1L117.8,19a2.49,2.49,0,0,0,.32-1.32,3,3,0,0,0,1.26-.79.35.35,0,0,1,.32.13c.26.79.46,1.59.72,2.37L123,26.72c.39,1.17.46,1.3,1.39,1.43l.26.07a.42.42,0,0,1,0,.54c-.74-.07-1.39-.07-2.31-.07a19.4,19.4,0,0,0-2.09.07.57.57,0,0,1-.07-.54l.39-.07c.65-.06.65-.19.45-.91l-.77-2.36c-.2-.46-.27-.46-.72-.46Zm2.08-.78h0c.54,0,.61-.07.48-.46l-.8-2.1a10.61,10.61,0,0,0-.46-1.39h-.06c-.07.13-.2.59-.46,1.39l-.78,2c-.19.52-.13.52.32.52Z" transform="translate(-6.81 -6.24)"/><path class="cls-2" d="M128.75,26.2h0c0,1.82.2,1.82,1,1.95l.39.07a.43.43,0,0,1-.06.54c-.72-.07-1.52-.07-2.3-.07s-1.59,0-2.37.07a.42.42,0,0,1,0-.54l.39-.07c.8-.13.93-.13.93-1.95V19.69c0-1.84-.13-1.91-.93-2h-.39c-.13-.13-.13-.46,0-.52.78.06,1.58.06,2.37.06s1.58,0,2.3-.06a.39.39,0,0,1,.06.52h-.39c-.8.13-1,.2-1,2Z" transform="translate(-6.81 -6.24)"/><path class="cls-2" d="M142.75,25.74h0v3a.64.64,0,0,1-.59.26,22.24,22.24,0,0,0-2-2.37L136,22c-1.1-1.24-1.62-1.91-1.95-2.17-.07,0-.07.13-.07,1.06v3.41a11.12,11.12,0,0,0,.34,3.41c.13.26.45.39.91.45l.32.07c.2.15.2.47,0,.54a18.44,18.44,0,0,0-2-.07,14.81,14.81,0,0,0-1.82.07.36.36,0,0,1,0-.54l.33-.07c.32-.06.65-.13.78-.45a15.16,15.16,0,0,0,.2-3.41V20.14c0-1.3.06-1.62-.53-2.07a2.41,2.41,0,0,0-.91-.42h-.26c-.15-.13-.15-.46.07-.52.65.06,1.56.06,2,.06a7.84,7.84,0,0,0,1.2-.06,29.79,29.79,0,0,0,2.82,3.62l1.78,1.82a29.41,29.41,0,0,0,2.5,2.76c.06,0,.06-.13.06-.39V21.53a11.38,11.38,0,0,0-.32-3.4c-.19-.28-.48-.35-.94-.48h-.39c-.12-.13-.12-.46.07-.52.65.06,1.32.06,2,.06a17.37,17.37,0,0,0,1.85-.06.39.39,0,0,1,.06.52l-.38.07c-.35.06-.68.13-.81.41a14.92,14.92,0,0,0-.2,3.4Z" transform="translate(-6.81 -6.24)"/><path class="cls-2" d="M147,19.69h0c0-1.84-.14-1.91-1-2h-.28c-.14-.13-.14-.46,0-.52.67.06,1.52.06,2.3.06h3.29a20.62,20.62,0,0,0,2.37-.06c.07.26.19,1.64.26,2.43-.07.13-.39.13-.52.06-.28-1-.54-1.43-1.13-1.55a4.26,4.26,0,0,0-1.36-.22h-1.2c-.72,0-.72.08-.72,1v3c0,.45,0,.45.4.45h.84c1.53,0,1.78,0,1.91-.78l.13-.58a.43.43,0,0,1,.59.06,14.2,14.2,0,0,0-.06,1.69,18.15,18.15,0,0,0,.06,1.85.5.5,0,0,1-.59,0l-.13-.65c-.13-.78-.38-.78-1.91-.78h-.84c-.4,0-.4,0-.4.45v2.24c0,.84,0,1.49.26,1.76s.53.39,2,.39c2.24.06,2.62-.46,3.21-1.83.13-.13.46-.13.52.07a9.91,9.91,0,0,1-.71,2.56c-.72-.07-2.24-.07-4.28-.07h-2c-.78,0-1.82,0-2.63.07a.43.43,0,0,1-.07-.54l.68-.07c.84-.13,1-.13,1-1.95Z" transform="translate(-6.81 -6.24)"/><path class="cls-2" d="M105.12,42.93h0a13.35,13.35,0,0,0,.19,1.91c-.06.19-.39.19-.46.13a2.21,2.21,0,0,0-2.3-1.78c-1.39,0-2.84,1.19-2.84,3.62s1.39,3.73,2.91,3.73a2.66,2.66,0,0,0,2.43-1.91c.13-.13.39-.06.52.07a5.11,5.11,0,0,1-.52,1.91,8.91,8.91,0,0,1-2.43.45,5.62,5.62,0,0,1-3.3-.91,3.93,3.93,0,0,1-1.57-3.21,4.15,4.15,0,0,1,1.51-3.23,5.26,5.26,0,0,1,3.36-1A20.76,20.76,0,0,1,105.12,42.93Z" transform="translate(-6.81 -6.24)"/><path class="cls-2" d="M115,46.81h0c0,2.69-1.77,4.25-4.4,4.25a3.93,3.93,0,0,1-4.21-4.12,4.16,4.16,0,0,1,4.34-4.27A4,4,0,0,1,115,46.81Zm-4.33-3.62h0c-1.53,0-2.3,1.45-2.3,3.49,0,1.43.51,3.86,2.49,3.86,1.58,0,2.24-1.58,2.24-3.53C113.13,44.9,112.22,43.19,110.7,43.19Z" transform="translate(-6.81 -6.24)"/><path class="cls-2" d="M119,48.83h0a2.5,2.5,0,0,0,.19,1.19c.22.2.42.33,1.33.33,1.1,0,1.45-.07,2.17-1.52.07-.07.39-.07.45.13a9.76,9.76,0,0,1-.51,2c-.66-.06-1.85-.06-2.83-.06h-1.65c-.52,0-1.17,0-1.91.06-.13-.06-.13-.39-.07-.45l.46-.07c.61-.06.67-.13.67-1.3V44.58c0-1.13-.06-1.2-.67-1.33h-.32c-.14-.13-.14-.39,0-.45.67,0,1.25.06,1.84.06s1.2-.06,1.85-.06a.5.5,0,0,1,0,.45h-.33c-.6.13-.67.2-.67,1.33Z" transform="translate(-6.81 -6.24)"/><path class="cls-2" d="M126.6,48.83h0a2.35,2.35,0,0,0,.2,1.19c.13.2.39.33,1.23.33,1.13,0,1.46-.07,2.18-1.52.12-.07.39-.07.46.13a7.23,7.23,0,0,1-.53,2c-.58-.06-1.77-.06-2.75-.06h-1.66c-.58,0-1.17,0-2,.06-.06-.06-.13-.39,0-.45l.48-.07c.52-.06.59-.13.59-1.3V44.58c0-1.13-.07-1.2-.59-1.33h-.41c-.07-.13-.07-.39.06-.45.61,0,1.26.06,1.84.06s1.2-.06,1.79-.06c.13.06.13.32,0,.45h-.33c-.52.13-.59.2-.59,1.33Z" transform="translate(-6.81 -6.24)"/><path class="cls-2" d="M134.09,46h0c0,.32.07.32.4.32h.78c.64,0,.77-.06.91-.65l.08-.26c.07-.13.4-.13.46,0a8.25,8.25,0,0,0-.06,1.26,8.94,8.94,0,0,0,.06,1.3c-.06.13-.39.13-.46,0l-.08-.26c-.14-.58-.27-.71-.91-.71h-.78c-.33,0-.4,0-.4.39v1.43a2.35,2.35,0,0,0,.2,1.19c.2.2.39.33,1.3.33,1.07,0,1.46-.07,2.11-1.46.13-.13.45-.06.45.07a6.6,6.6,0,0,1-.45,2c-.65-.06-1.85-.06-2.83-.06h-1.58c-.59,0-1.17,0-2.11.06a.31.31,0,0,1,0-.45l.54-.07c.59-.06.66-.19.66-1.3V44.58c0-1.13-.07-1.2-.66-1.33h-.25c-.16-.13-.16-.39,0-.45.59,0,1.17.06,1.76.06h2.56c.8,0,1.51-.06,1.64-.06,0,.19.07,1,.14,1.91,0,.13-.33.13-.4.06a3,3,0,0,0-.51-1,1.5,1.5,0,0,0-1.2-.39h-1c-.4,0-.4.07-.4.46Z" transform="translate(-6.81 -6.24)"/><path class="cls-2" d="M146.7,49.5h0c0,.52,0,.78.27.78,0,.07,0,.26-.07.33a2.44,2.44,0,0,0-.84.19,9.7,9.7,0,0,1-2.18.26,6.06,6.06,0,0,1-2.36-.39A3.87,3.87,0,0,1,139.09,47a4,4,0,0,1,2.17-3.76,6.31,6.31,0,0,1,2.82-.58,17.62,17.62,0,0,1,2.43.26c0,.39.06,1.25.13,2,0,.13-.32.13-.45,0A2.26,2.26,0,0,0,144,43.19c-2,0-2.91,1.65-2.91,3.56A3.64,3.64,0,0,0,142.43,50a3,3,0,0,0,1.65.52c.72,0,.85-.19.85-1v-.74c0-.65-.07-.72-.66-.85l-.51-.06a.23.23,0,0,1,0-.39h3.66a.39.39,0,0,1,0,.39l-.32.06c-.33.07-.4.2-.4.85Z" transform="translate(-6.81 -6.24)"/><path class="cls-2" d="M151.05,46h0c0,.32.06.32.38.32h.79c.65,0,.78-.06.91-.65l.06-.26c.09-.13.42-.13.48,0,0,.39-.06.78-.06,1.26s.06.91.06,1.3c-.06.13-.39.13-.48,0l-.06-.26c-.13-.58-.26-.71-.91-.71h-.79c-.32,0-.38,0-.38.39v1.43a2.38,2.38,0,0,0,.19,1.19c.19.2.39.33,1.3.33,1.07,0,1.46-.07,2.17-1.46.07-.13.4-.06.4.07a6.57,6.57,0,0,1-.46,2c-.65-.06-1.84-.06-2.82-.06h-1.59c-.58,0-1.17,0-2.1.06a.31.31,0,0,1,0-.45l.54-.07c.58-.06.65-.19.65-1.3V44.58c0-1.13-.07-1.2-.65-1.33h-.26c-.15-.13-.15-.39,0-.45.58,0,1.17.06,1.75.06h2.57c.8,0,1.52-.06,1.65-.06,0,.19.13,1,.19,1.91-.06.13-.32.13-.45.06a3.14,3.14,0,0,0-.46-1,1.61,1.61,0,0,0-1.26-.39h-.91c-.45,0-.45.07-.45.46Z" transform="translate(-6.81 -6.24)"/><path class="cls-2" d="M103.27,34.14h0c0,.06-.2.06-.26,0a1.64,1.64,0,0,0-1.71-1.32c-1.18,0-2.3.86-2.3,2.69s1.19,2.82,2.36,2.82A1.93,1.93,0,0,0,103.2,37c.07-.07.26,0,.26.06a3.72,3.72,0,0,1-.39,1.37.46.46,0,0,0-.32.07,5.71,5.71,0,0,1-1.39.19,4.32,4.32,0,0,1-2.3-.58,2.8,2.8,0,0,1-1.24-2.43,2.91,2.91,0,0,1,1.11-2.37,3.88,3.88,0,0,1,2.43-.78,6.35,6.35,0,0,1,1.59.2c.06,0,.12.06.25.06A12.85,12.85,0,0,0,103.27,34.14Z" transform="translate(-6.81 -6.24)"/><path class="cls-2" d="M110.3,35.57h0a3.16,3.16,0,0,1-6.31.07,3.1,3.1,0,0,1,3.23-3.15A3,3,0,0,1,110.3,35.57Zm-5.12-.19h0c0,1.25.52,2.95,2.11,2.95,1,0,1.82-.78,1.82-2.56,0-1.37-.65-3-2-3C106.16,32.82,105.18,33.49,105.18,35.38Z" transform="translate(-6.81 -6.24)"/><path class="cls-2" d="M118,38.26h0c.06.07.06.26,0,.26h-2.3c-.07,0-.13-.19,0-.26h.19c.39-.06.39-.13.39-.71V33.88a5.42,5.42,0,0,0-.52,1.11L115,36.57c-.32.59-.74,1.56-.93,2h-.2l-.78-1.83-.78-1.71c-.13-.32-.41-.91-.54-1.17,0,.45-.07,1.11-.07,1.5v2c0,.58,0,.78.42.84h.25c.07.07.07.26,0,.26h-1.91c-.06,0-.06-.19,0-.26h.13c.46-.06.53-.19.53-.71a17,17,0,0,0,.19-2.11c0-.58.06-1.3.06-1.82s-.13-.67-.45-.74h-.33c-.07-.06-.07-.26,0-.26h1.85a3.84,3.84,0,0,0,.45,1.45l1,2.11c.06.13.33.58.46.78.15-.26.28-.52.48-.93l.78-1.7a6.4,6.4,0,0,0,.71-1.71H118c.06,0,.13.2,0,.26h-.26c-.4.07-.52.2-.52.74,0,1.3.06,2.62.12,3.93,0,.58.13.65.4.71Z" transform="translate(-6.81 -6.24)"/><path class="cls-2" d="M126.19,38.26h0c.13.07.07.26,0,.26h-2.3c-.06,0-.13-.19,0-.26h.28c.33-.06.33-.13.33-.71V33.88c-.26.45-.33.72-.54,1.11l-.79,1.58c-.26.59-.71,1.56-.91,2h-.19c-.13-.46-.54-1.37-.74-1.83l-.85-1.71c-.12-.32-.38-.91-.45-1.17H120a10.34,10.34,0,0,1-.07,1.5v2c0,.58,0,.78.4.84h.26c.06.07.06.26,0,.26h-1.92c-.06,0-.06-.19,0-.26h.14c.45-.06.54-.19.61-.71s.06-1.11.13-2.11c0-.58.06-1.3.06-1.82s-.13-.67-.47-.74h-.33c-.07-.06,0-.26.07-.26h1.77a3.79,3.79,0,0,0,.53,1.45l.93,2.11c.13.13.32.58.46.78.13-.26.26-.52.45-.93l.85-1.7c.25-.58.54-1.12.73-1.71h1.63c.13,0,.13.2.07.26h-.33c-.39.07-.46.2-.46.74,0,1.3,0,2.62.07,3.93,0,.58.13.65.39.71Z" transform="translate(-6.81 -6.24)"/><path class="cls-2" d="M127.45,33.94h0c0-1-.06-1-.52-1.06h-.13c-.07-.06-.07-.26,0-.26h2.36c.07,0,.07.2,0,.26H129c-.39.07-.46.07-.46,1.06v2c0,1.26.33,2.24,1.59,2.24s1.71-.85,1.71-2.24v-1.1a6,6,0,0,0-.2-1.78c-.06-.13-.19-.13-.47-.2h-.2c-.06-.06-.06-.26.07-.26h1.91c.07,0,.13.2,0,.26h-.2c-.13.07-.32.07-.32.2a6.77,6.77,0,0,0-.13,1.78v1a3.05,3.05,0,0,1-.59,2.1,2.37,2.37,0,0,1-1.78.65,2.53,2.53,0,0,1-1.85-.58,2.48,2.48,0,0,1-.58-1.89Z" transform="translate(-6.81 -6.24)"/><path class="cls-2" d="M139.09,37h0v1.57a.61.61,0,0,1-.27.15c-.21-.22-.48-.54-1.06-1.26l-2.1-2.36a8.65,8.65,0,0,0-1-1.11v2.3a6.69,6.69,0,0,0,.13,1.76c.13.13.26.13.46.19h.2c.13.07.06.26,0,.26h-2c-.07,0-.07-.19,0-.26h.19c.22-.06.35-.06.41-.19a6,6,0,0,0,.14-1.76V34.2c0-.71,0-.86-.33-1.12-.09-.07-.35-.13-.48-.2h-.12c-.07-.06-.07-.26.06-.26h1.65a8.5,8.5,0,0,0,1.45,1.84l.91,1,1.24,1.39c.07,0,.07-.07.07-.2V34.86a4.49,4.49,0,0,0-.2-1.78c-.07-.13-.19-.13-.45-.2h-.2c-.06-.06-.06-.26,0-.26h2c.07,0,.14.2.07.26h-.2c-.19.07-.32.07-.38.2a6.77,6.77,0,0,0-.13,1.78Z" transform="translate(-6.81 -6.24)"/><path class="cls-2" d="M142.16,37.22h0c0,1,.07,1,.46,1h.2c.06.07.06.26,0,.26h-2.37c-.06,0-.06-.19-.06-.26h.19c.46-.06.54-.06.54-1V33.94c0-1-.08-1-.54-1.06h-.19c0-.06,0-.26.06-.26h2.37c.06,0,.06.2,0,.26h-.2c-.39.07-.46.07-.46,1.06Z" transform="translate(-6.81 -6.24)"/><path class="cls-2" d="M145.77,33.4h0c0-.39,0-.39-.26-.39h-.45c-.85,0-1.11.07-1.44.8a.18.18,0,0,1-.28-.06c.13-.48.28-1.06.35-1.32.07-.07.07-.07.13-.07a.06.06,0,0,1,.06.07c.07.19.2.19.79.19h3.66c.42,0,.54,0,.67-.19s.07-.07.13-.07a.07.07,0,0,1,.07.07,10,10,0,0,0-.13,1.38c0,.07-.2.13-.26.07-.13-.74-.26-.87-1.26-.87H147c-.2,0-.2,0-.2.39v3.82c0,1,.07,1,.46,1h.32c.07.07.07.26,0,.26h-2.68c-.07,0-.07-.19,0-.26h.32c.46-.06.52-.06.52-1Z" transform="translate(-6.81 -6.24)"/><path class="cls-2" d="M151.77,36.7h0a2.57,2.57,0,0,0-.27-1.13l-1.12-2.08c-.21-.41-.27-.48-.66-.54l-.19-.07c-.07-.06-.07-.26,0-.26h2.3c.07,0,.07.2,0,.26h-.27c-.13.07-.19.07-.19.13a1,1,0,0,0,.13.48c.4.78.72,1.5,1,2.15.4-.65.74-1.31,1.07-2,.13-.34.25-.54.25-.6s-.06-.13-.19-.13l-.26-.07c-.06-.06-.06-.26,0-.26h1.76c.07,0,.07.2,0,.26l-.26.07c-.39.06-.46.19-.91,1-.33.52-.59,1-.87,1.5a2,2,0,0,0-.32,1.26v.52c0,1,.06,1,.54,1h.32c.07.07.07.26-.06.26H151c-.06,0-.06-.19,0-.26h.26c.46-.06.53-.06.53-1Z" transform="translate(-6.81 -6.24)"/><path class="cls-2" d="M103.27,34.14h0c0,.06-.2.06-.26,0a1.64,1.64,0,0,0-1.71-1.32c-1.18,0-2.3.86-2.3,2.69s1.19,2.82,2.36,2.82A1.93,1.93,0,0,0,103.2,37c.07-.07.26,0,.26.06a3.72,3.72,0,0,1-.39,1.37.46.46,0,0,0-.32.07,5.71,5.71,0,0,1-1.39.19,4.32,4.32,0,0,1-2.3-.58,2.8,2.8,0,0,1-1.24-2.43,2.91,2.91,0,0,1,1.11-2.37,3.88,3.88,0,0,1,2.43-.78,6.35,6.35,0,0,1,1.59.2c.06,0,.12.06.25.06A12.85,12.85,0,0,0,103.27,34.14Z" transform="translate(-6.81 -6.24)"/><path class="cls-2" d="M110.3,35.57h0a3.16,3.16,0,0,1-6.31.07,3.1,3.1,0,0,1,3.23-3.15A3,3,0,0,1,110.3,35.57Zm-5.12-.19h0c0,1.25.52,2.95,2.11,2.95,1,0,1.82-.78,1.82-2.56,0-1.37-.65-3-2-3C106.16,32.82,105.18,33.49,105.18,35.38Z" transform="translate(-6.81 -6.24)"/><path class="cls-2" d="M118,38.26h0c.06.07.06.26,0,.26h-2.3c-.07,0-.13-.19,0-.26h.19c.39-.06.39-.13.39-.71V33.88a5.42,5.42,0,0,0-.52,1.11L115,36.57c-.32.59-.74,1.56-.93,2h-.2l-.78-1.83-.78-1.71c-.13-.32-.41-.91-.54-1.17,0,.45-.07,1.11-.07,1.5v2c0,.58,0,.78.42.84h.25c.07.07.07.26,0,.26h-1.91c-.06,0-.06-.19,0-.26h.13c.46-.06.53-.19.53-.71a17,17,0,0,0,.19-2.11c0-.58.06-1.3.06-1.82s-.13-.67-.45-.74h-.33c-.07-.06-.07-.26,0-.26h1.85a3.84,3.84,0,0,0,.45,1.45l1,2.11c.06.13.33.58.46.78.15-.26.28-.52.48-.93l.78-1.7a6.4,6.4,0,0,0,.71-1.71H118c.06,0,.13.2,0,.26h-.26c-.4.07-.52.2-.52.74,0,1.3.06,2.62.12,3.93,0,.58.13.65.4.71Z" transform="translate(-6.81 -6.24)"/><path class="cls-2" d="M126.19,38.26h0c.13.07.07.26,0,.26h-2.3c-.06,0-.13-.19,0-.26h.28c.33-.06.33-.13.33-.71V33.88c-.26.45-.33.72-.54,1.11l-.79,1.58c-.26.59-.71,1.56-.91,2h-.19c-.13-.46-.54-1.37-.74-1.83l-.85-1.71c-.12-.32-.38-.91-.45-1.17H120a10.34,10.34,0,0,1-.07,1.5v2c0,.58,0,.78.4.84h.26c.06.07.06.26,0,.26h-1.92c-.06,0-.06-.19,0-.26h.14c.45-.06.54-.19.61-.71s.06-1.11.13-2.11c0-.58.06-1.3.06-1.82s-.13-.67-.47-.74h-.33c-.07-.06,0-.26.07-.26h1.77a3.79,3.79,0,0,0,.53,1.45l.93,2.11c.13.13.32.58.46.78.13-.26.26-.52.45-.93l.85-1.7c.25-.58.54-1.12.73-1.71h1.63c.13,0,.13.2.07.26h-.33c-.39.07-.46.2-.46.74,0,1.3,0,2.62.07,3.93,0,.58.13.65.39.71Z" transform="translate(-6.81 -6.24)"/><path class="cls-2" d="M127.45,33.94h0c0-1-.06-1-.52-1.06h-.13c-.07-.06-.07-.26,0-.26h2.36c.07,0,.07.2,0,.26H129c-.39.07-.46.07-.46,1.06v2c0,1.26.33,2.24,1.59,2.24s1.71-.85,1.71-2.24v-1.1a6,6,0,0,0-.2-1.78c-.06-.13-.19-.13-.47-.2h-.2c-.06-.06-.06-.26.07-.26h1.91c.07,0,.13.2,0,.26h-.2c-.13.07-.32.07-.32.2a6.77,6.77,0,0,0-.13,1.78v1a3.05,3.05,0,0,1-.59,2.1,2.37,2.37,0,0,1-1.78.65,2.53,2.53,0,0,1-1.85-.58,2.48,2.48,0,0,1-.58-1.89Z" transform="translate(-6.81 -6.24)"/><path class="cls-2" d="M139.09,37h0v1.57a.61.61,0,0,1-.27.15c-.21-.22-.48-.54-1.06-1.26l-2.1-2.36a8.65,8.65,0,0,0-1-1.11v2.3a6.69,6.69,0,0,0,.13,1.76c.13.13.26.13.46.19h.2c.13.07.06.26,0,.26h-2c-.07,0-.07-.19,0-.26h.19c.22-.06.35-.06.41-.19a6,6,0,0,0,.14-1.76V34.2c0-.71,0-.86-.33-1.12-.09-.07-.35-.13-.48-.2h-.12c-.07-.06-.07-.26.06-.26h1.65a8.5,8.5,0,0,0,1.45,1.84l.91,1,1.24,1.39c.07,0,.07-.07.07-.2V34.86a4.49,4.49,0,0,0-.2-1.78c-.07-.13-.19-.13-.45-.2h-.2c-.06-.06-.06-.26,0-.26h2c.07,0,.14.2.07.26h-.2c-.19.07-.32.07-.38.2a6.77,6.77,0,0,0-.13,1.78Z" transform="translate(-6.81 -6.24)"/><path class="cls-2" d="M142.16,37.22h0c0,1,.07,1,.46,1h.2c.06.07.06.26,0,.26h-2.37c-.06,0-.06-.19-.06-.26h.19c.46-.06.54-.06.54-1V33.94c0-1-.08-1-.54-1.06h-.19c0-.06,0-.26.06-.26h2.37c.06,0,.06.2,0,.26h-.2c-.39.07-.46.07-.46,1.06Z" transform="translate(-6.81 -6.24)"/><path class="cls-2" d="M145.77,33.4h0c0-.39,0-.39-.26-.39h-.45c-.85,0-1.11.07-1.44.8a.18.18,0,0,1-.28-.06c.13-.48.28-1.06.35-1.32.07-.07.07-.07.13-.07a.06.06,0,0,1,.06.07c.07.19.2.19.79.19h3.66c.42,0,.54,0,.67-.19s.07-.07.13-.07a.07.07,0,0,1,.07.07,10,10,0,0,0-.13,1.38c0,.07-.2.13-.26.07-.13-.74-.26-.87-1.26-.87H147c-.2,0-.2,0-.2.39v3.82c0,1,.07,1,.46,1h.32c.07.07.07.26,0,.26h-2.68c-.07,0-.07-.19,0-.26h.32c.46-.06.52-.06.52-1Z" transform="translate(-6.81 -6.24)"/><path class="cls-2" d="M151.77,36.7h0a2.57,2.57,0,0,0-.27-1.13l-1.12-2.08c-.21-.41-.27-.48-.66-.54l-.19-.07c-.07-.06-.07-.26,0-.26h2.3c.07,0,.07.2,0,.26h-.27c-.13.07-.19.07-.19.13a1,1,0,0,0,.13.48c.4.78.72,1.5,1,2.15.4-.65.74-1.31,1.07-2,.13-.34.25-.54.25-.6s-.06-.13-.19-.13l-.26-.07c-.06-.06-.06-.26,0-.26h1.76c.07,0,.07.2,0,.26l-.26.07c-.39.06-.46.19-.91,1-.33.52-.59,1-.87,1.5a2,2,0,0,0-.32,1.26v.52c0,1,.06,1,.54,1h.32c.07.07.07.26-.06.26H151c-.06,0-.06-.19,0-.26h.26c.46-.06.53-.06.53-1Z" transform="translate(-6.81 -6.24)"/></svg>