<svg id="Layer_1" data-name="Layer 1" xmlns="http://www.w3.org/2000/svg" viewBox="0 0 109.39 40.18"><defs><style>.cls-1,.cls-2{fill:#cd242b;}.cls-2,.cls-3{font-size:8.09px;font-family:HelveticaNeue-CondensedBold, Helvetica Neue;font-weight:700;}</style></defs><path class="cls-1" d="M18.33,29.74H22c1.4,0,3.12-.25,3.7-.75a2.51,2.51,0,0,0,.86-2,2.31,2.31,0,0,0-.85-1.88c-.57-.48-2.3-.72-3.73-.72H18.33Zm0-10.38h3.06a6.81,6.81,0,0,0,3.39-.66,2.41,2.41,0,0,0,.75-1.9A2.28,2.28,0,0,0,24.78,15a6.8,6.8,0,0,0-3.33-.65H18.33ZM9.12,9h17a7.91,7.91,0,0,1,5.39,1.89,6.14,6.14,0,0,1,2,4.69,5.89,5.89,0,0,1-1.46,4,6.63,6.63,0,0,1-2.85,1.77,7.34,7.34,0,0,1,4.19,2.35,6.44,6.44,0,0,1,1.35,4.19,7.21,7.21,0,0,1-1,3.7,7.05,7.05,0,0,1-2.61,2.59,8.58,8.58,0,0,1-3.1.87c-1.84.24-3.06.36-3.18.36H9.12Z" transform="translate(-8.62 -8.54)"/><path d="M62.11,25.53l-8.18-.73a6.75,6.75,0,0,1-1.18,3.31,4.8,4.8,0,0,1-7.19,0q-1.34-1.63-1.33-6a9.46,9.46,0,0,1,1.12-5.21,4.39,4.39,0,0,1,7.62,0,6.59,6.59,0,0,1,.93,2.62l8.21-.73a10.46,10.46,0,0,0-1.89-4.9,10.25,10.25,0,0,0-3-3.31q-2.85-2-7.85-2h-.49c-3.33,0-5.94.67-7.85,2a10.34,10.34,0,0,0-3,3.31A15.2,15.2,0,0,0,36,22.14a18.31,18.31,0,0,0,.54,4.62h0a13.19,13.19,0,0,0,2.28,5,9.75,9.75,0,0,0,3.84,3.05,14.36,14.36,0,0,0,5.85,1h1.25a14.3,14.3,0,0,0,5.85-1,9.78,9.78,0,0,0,3.85-3.05,13.18,13.18,0,0,0,2.27-5h0a6.53,6.53,0,0,0,.37-1.23" transform="translate(-8.62 -8.54)"/><path d="M90,25.53l-8.19-.73a6.65,6.65,0,0,1-1.17,3.31,4.8,4.8,0,0,1-7.19,0q-1.34-1.63-1.33-6a9.56,9.56,0,0,1,1.11-5.21,4.4,4.4,0,0,1,7.63,0,6.59,6.59,0,0,1,.93,2.62L90,18.77a10.46,10.46,0,0,0-1.89-4.9,10.37,10.37,0,0,0-3-3.31q-2.85-2-7.85-2h-.49c-3.33,0-5.94.67-7.85,2a10.34,10.34,0,0,0-3,3.31,15.2,15.2,0,0,0-2.06,8.27,18.31,18.31,0,0,0,.54,4.62h0a13.18,13.18,0,0,0,2.27,5,9.85,9.85,0,0,0,3.85,3.05,14.36,14.36,0,0,0,5.85,1h1.25a14.3,14.3,0,0,0,5.85-1,9.85,9.85,0,0,0,3.85-3.05,13.18,13.18,0,0,0,2.27-5h0A6.53,6.53,0,0,0,90,25.53" transform="translate(-8.62 -8.54)"/><path d="M117.84,25.53l-8.18-.73a6.65,6.65,0,0,1-1.17,3.31,4.8,4.8,0,0,1-7.19,0q-1.33-1.63-1.33-6a9.56,9.56,0,0,1,1.11-5.21,4.4,4.4,0,0,1,7.63,0,6.75,6.75,0,0,1,.93,2.62l8.21-.73a10.68,10.68,0,0,0-1.89-4.9,10.49,10.49,0,0,0-3-3.31c-1.91-1.35-4.52-2-7.85-2h-.49q-5,0-7.85,2a10.37,10.37,0,0,0-3,3.31,15.29,15.29,0,0,0-2,8.27,18.8,18.8,0,0,0,.53,4.62h0a13.18,13.18,0,0,0,2.27,5,9.85,9.85,0,0,0,3.85,3.05,14.3,14.3,0,0,0,5.85,1h1.25a14.33,14.33,0,0,0,5.85-1,9.85,9.85,0,0,0,3.85-3.05,13.18,13.18,0,0,0,2.27-5h0a5.87,5.87,0,0,0,.37-1.23" transform="translate(-8.62 -8.54)"/><text class="cls-2" transform="translate(0 37.46)">Baltimore</text><text class="cls-3" transform="translate(31.13 37.46)"><tspan xml:space="preserve"> City Community College</tspan></text></svg>