<?xml version="1.0" encoding="utf-8"?>
<!-- Generator: Adobe Illustrator 23.0.4, SVG Export Plug-In . SVG Version: 6.00 Build 0)  -->
<svg version="1.1" id="Layer_1" xmlns="http://www.w3.org/2000/svg" xmlns:xlink="http://www.w3.org/1999/xlink" x="0px" y="0px"
	 viewBox="0 0 277 40" style="enable-background:new 0 0 277 40;" xml:space="preserve">
<style type="text/css">
	.st0{fill:#FFB71B;}
	.st1{fill:#CE0E2D;}
</style>
<title>umuc-logo-desktop</title>
<g>
	<g id="Layer_1-2">
		<path d="M0.1,0.2h2.4v8.4c0,1.7,1.1,2.8,2.9,2.8s2.9-1,2.9-2.8V0.2h2.4v8.4c0,3-2.1,5-5.3,5s-5.3-2-5.3-5V0.2z"/>
		<path d="M15.8,0.2h2.4l5,7.6c0.4,0.7,0.8,1.3,1.1,2l0,0c0,0-0.1-1.3-0.1-2V0.2h2.4v13.2h-2.4l-5-7.6c-0.4-0.7-0.8-1.3-1.1-2l0,0
			c0,0,0.1,1.3,0.1,2v7.6h-2.4L15.8,0.2z"/>
		<rect x="31.7" y="0.2" width="2.4" height="13.2"/>
		<path d="M37.6,0.2h2.6l2.9,8.6c0.3,0.8,0.5,1.9,0.5,1.9l0,0c0,0,0.2-1.2,0.5-1.9l2.9-8.6h2.6l-4.8,13.2h-2.4L37.6,0.2z"/>
		<polygon points="53.1,0.2 61,0.2 61,2.3 55.5,2.3 55.5,5.7 60,5.7 60,7.8 55.5,7.8 55.5,11.3 61.3,11.3 61.3,13.4 53.1,13.4 		"/>
		<path d="M70.2,6.4c1.1,0.1,2-0.7,2.1-1.7c0-0.1,0-0.2,0-0.4c0-1.3-0.5-2-2.4-2h-1.8v4.1H70.2z M65.7,0.2H70
			c0.9-0.1,1.8,0.1,2.7,0.4c1.4,0.6,2.2,2.1,2.2,3.6c0.1,1.5-0.8,3-2.2,3.6v0C72.7,8,72.9,8.3,73,8.5l2.7,4.9H73l-2.6-4.9h-2.3v4.9
			h-2.4V0.2z"/>
		<path d="M80,10c0.9,0.8,2.1,1.3,3.3,1.4c1,0,1.9-0.5,1.9-1.6c0-2.4-6.2-2-6.2-6C79,1.6,80.9,0,83.4,0c1.4-0.1,2.9,0.4,3.9,1.4
			l-1,2c-0.8-0.7-1.8-1.1-2.9-1.2c-1-0.1-1.9,0.6-2,1.5c0,0,0,0,0,0.1c0,2.3,6.2,1.8,6.2,6c0,2.1-1.6,3.9-4.3,3.9
			c-1.7,0-3.3-0.6-4.6-1.8L80,10z"/>
		<rect x="91.9" y="0.2" width="2.4" height="13.2"/>
		<polygon points="102.2,2.3 97.9,2.3 97.9,0.2 108.9,0.2 108.9,2.3 104.6,2.3 104.6,13.4 102.2,13.4 		"/>
		<path d="M115.5,7.9l-4.4-7.7h2.7l2.1,3.9c0.4,0.8,0.8,1.8,0.8,1.8h0c0,0,0.4-0.9,0.8-1.8l2-3.9h2.7l-4.4,7.7v5.5h-2.4L115.5,7.9z"
			/>
		<path d="M137.6,11.6c2.8-0.1,4.9-2.4,4.9-5.1c0,0,0-0.1,0-0.1c0-2.7-2.2-4.9-4.9-4.9s-4.9,2.2-4.9,4.9
			C132.6,9.2,134.8,11.5,137.6,11.6C137.5,11.6,137.6,11.6,137.6,11.6 M137.6,0.3c3.4,0,6.1,2.7,6.1,6c0,0,0,0.1,0,0.1
			c0.1,3.4-2.5,6.2-5.9,6.3s-6.2-2.5-6.3-5.9c0-0.1,0-0.3,0-0.4c0-3.3,2.6-6.1,6-6.1C137.5,0.3,137.6,0.3,137.6,0.3"/>
		<polygon points="148.1,0.5 154.4,0.5 154.4,1.5 149.3,1.5 149.3,6 153.7,6 153.7,7.1 149.3,7.1 149.3,12.5 148.1,12.5 		"/>
		<path d="M166.2,0.2h2.6l2.6,6.5c0.3,0.8,0.7,1.9,0.7,1.9h0c0,0,0.4-1.2,0.6-1.9l2.6-6.5h2.6l1.1,13.2h-2.4L175.9,6
			c-0.1-0.9,0-2,0-2l0,0c0,0-0.4,1.3-0.7,2l-2.1,5.1H171L168.9,6c-0.3-0.8-0.7-2.1-0.7-2.1l0,0c0,0,0,1.2,0,2.1l-0.6,7.4h-2.4
			L166.2,0.2z"/>
		<path d="M187.9,2.5c0,0-0.3,1.3-0.6,2l-1.2,3.5h3.5l-1.2-3.5C188.3,3.8,188,2.5,187.9,2.5L187.9,2.5z M190.3,10h-4.6l-1.1,3.4
			h-2.5l4.6-13.2h2.5l4.6,13.2h-2.5L190.3,10z"/>
		<path d="M201.9,6.4c1.1,0.1,2-0.7,2.1-1.7c0-0.1,0-0.2,0-0.4c0-1.3-0.5-2-2.4-2h-1.8v4.1H201.9z M197.4,0.2h4.3
			c0.9-0.1,1.8,0.1,2.7,0.4c1.4,0.6,2.2,2.1,2.1,3.6c0.1,1.5-0.8,3-2.2,3.6v0c0.2,0.2,0.3,0.4,0.4,0.6l2.7,4.9h-2.7l-2.6-4.9h-2.3
			v4.9h-2.4L197.4,0.2z"/>
		<path d="M214,7.9l-4.4-7.7h2.7l2.1,3.9c0.4,0.8,0.8,1.8,0.8,1.8l0,0c0,0,0.4-0.9,0.8-1.8l2.1-3.9h2.7l-4.4,7.7v5.5H214V7.9z"/>
		<polygon points="224,0.2 226.3,0.2 226.3,11.3 232,11.3 232,13.4 224,13.4 		"/>
		<path d="M240.2,2.5c0,0-0.3,1.3-0.6,2l-1.2,3.5h3.5l-1.2-3.5C240.5,3.8,240.3,2.5,240.2,2.5L240.2,2.5z M242.5,10h-4.6l-1.1,3.4
			h-2.5L239,0.2h2.5l4.6,13.2h-2.5L242.5,10z"/>
		<path d="M249.7,0.2h2.4l5,7.6c0.4,0.7,0.8,1.3,1.1,2h0c0,0-0.1-1.3-0.1-2V0.2h2.4v13.2H258l-5-7.6c-0.4-0.7-0.8-1.3-1.1-2l0,0
			c0,0,0.1,1.3,0.1,2v7.6h-2.4L249.7,0.2z"/>
		<path d="M270,11.3c2.7,0,4.4-1.6,4.4-4.5s-1.7-4.5-4.4-4.5h-2v9.1H270z M265.7,0.2h4.5c4.1,0,6.7,2.4,6.7,6.6s-2.7,6.6-6.7,6.6
			h-4.5V0.2z"/>
		<polygon class="st0" points="0.1,27.6 0.1,35.2 34,35.2 38.6,27.6 		"/>
		<path d="M134.9,30.1c0,1.7,0.3,2.4,0.8,3c0.5,0.6,1.2,0.9,2,0.8c0.7,0,1.4-0.3,1.9-0.8c0.6-0.9,0.9-2,0.8-3.1c0-1.7,0-4.2,0-6
			c0,0,0-0.1-0.1-0.1l-1.5,0c0-0.4,0-0.8,0-1.2h2.4h2.1c0,0.4,0,0.8,0,1.2l-1.1,0.1l0,5.9c0,2.2-0.7,3.5-1.4,4.3
			c-0.9,0.9-2.1,1.3-3.3,1.2c-1.3,0.1-2.5-0.3-3.5-1.1c-1.1-1-1.3-2.5-1.3-4.1v-6.2c0-0.1,0-0.1-0.1-0.1h-1.1c0-0.4,0-0.8,0-1.2h2.3
			h2.7c0,0.4,0,0.8,0,1.2l-1.5,0L134.9,30.1z"/>
		<path d="M144,28.5c0-0.4,0-0.8,0-1.1c0.8-0.1,3-0.5,3.2-0.5c0.2,0,0,0,0,0.1c0.1,0.4,0.2,0.8,0.2,1.1h0.1c1.9-1.2,2.3-1.2,3.2-1.2
			c0.9,0.1,1.6,0.6,2,1.3c0.3,0.5,0.4,1,0.4,1.5c0,1.3,0,3-0.1,4.3l1.1,0c0,0.4,0,0.8,0,1.1H152h-2.1v-1.1l1-0.1c0,0,0.1,0,0.1-0.1
			v-3.1c0.1-0.6,0-1.2-0.2-1.8c-0.2-0.4-0.6-0.6-1.1-0.6c-0.8,0.1-1.5,0.4-2.1,0.9c0,1.3-0.1,3.4-0.1,4.6l1.2,0c0,0.4,0,0.8,0,1.1
			h-2.3h-2.1c0-0.4,0-0.8,0-1.2l1.1-0.1c0,0,0.1,0,0.1-0.1v-5.4L144,28.5z"/>
		<path d="M157.2,22.7c0.7,0,1.2,0.5,1.2,1.1c0,0,0,0.1,0,0.1c0.1,0.7-0.5,1.4-1.2,1.4c-0.7,0.1-1.4-0.5-1.4-1.2
			c-0.1-0.7,0.5-1.4,1.2-1.4C157.1,22.7,157.2,22.7,157.2,22.7L157.2,22.7z M154.9,28.5c0-0.4,0-0.8,0-1.2c0.9-0.1,3.3-0.5,3.5-0.5
			c0,0,0,0,0,0.1c0,2.1,0,5.1,0,7.1l1.2,0c0,0.4,0,0.8,0,1.1h-2.3h-2.3c0-0.4,0-0.8,0-1.2l1.2-0.1c0.1,0,0.1,0,0.1-0.1v-5.4
			L154.9,28.5z"/>
		<path d="M168.4,28.2c-0.2,0.6-0.8,1.9-1.5,3.5c-0.6,1.3-1,2.2-1.7,3.7c-0.4,0-1.2,0-1.8,0c-0.7-1.8-1-2.5-1.6-4.2
			c-0.5-1.4-0.8-2.2-1-2.9c0,0-0.1-0.1-0.1-0.1h-0.9c0-0.4,0-0.8,0-1.2h4.4c0,0.4,0,0.8,0,1.2l-1.1,0.1c0.1,0.4,0.3,1.2,0.7,2.4
			s0.6,2,0.8,2.7h0.1c0.3-0.8,0.6-1.4,0.9-2.5s0.6-1.8,0.8-2.6c0-0.1,0-0.1-0.1-0.1h-0.9c0-0.4,0-0.8,0-1.2h2.1h1.6
			c0,0.4,0,0.8,0,1.2L168.4,28.2z"/>
		<path d="M173.7,28c-0.5,0-0.9,0.2-1.2,0.6c-0.4,0.5-0.6,1.1-0.6,1.7c0.9,0,2.2,0,3.1-0.1c0.1,0,0.2-0.1,0.2-0.2c0,0,0,0,0,0
			c0-0.5-0.1-1-0.4-1.4C174.6,28.2,174.2,28,173.7,28L173.7,28z M169.7,31.5c0-2.6,1.7-4.7,4.4-4.7c0.9-0.1,1.8,0.3,2.4,1
			c0.6,0.8,0.9,1.7,0.8,2.7c-0.2,0.4-0.4,0.7-0.8,0.9c-0.8,0.1-3.1,0.1-4.6,0.1c-0.1,0.7,0.2,1.4,0.6,1.9c0.5,0.5,1.1,0.7,1.8,0.6
			c0.9-0.1,1.8-0.2,2.6-0.6c0.1,0.4,0.2,0.8,0.3,1.2c-1,0.5-2.2,0.8-3.3,0.8C171.3,35.4,169.7,33.9,169.7,31.5L169.7,31.5z"/>
		<path d="M178.3,28.4c0-0.4,0-0.8,0-1.1c0.8-0.1,3.1-0.5,3.2-0.5s0,0,0,0.1c0,0.6,0.1,1.6,0.1,2.5h0.1c1.1-2.2,1.7-2.6,2.6-2.6
			c0.4,0,0.8,0.1,1.2,0.2c0,0.7-0.3,1.4-0.7,2c-0.4-0.1-0.7-0.1-1.1-0.2c-0.2,0-0.4,0.1-0.6,0.2c-0.5,0.5-0.9,1-1.2,1.6
			c-0.2,0.5-0.3,1.1-0.3,1.7c0,0.5,0,1.2,0,1.6l1.7,0.1c0,0.3,0,0.8,0,1.1h-2.6l-2.2,0.1c0-0.4,0-0.8,0-1.2h1c0,0,0.1,0,0.1-0.1
			v-5.5L178.3,28.4z"/>
		<path d="M187.5,33.6c0,0.1,0.1,0.2,0.2,0.2c0.4,0.2,0.8,0.3,1.2,0.3c0.4,0,0.8,0,1.1-0.2c0.3-0.2,0.5-0.5,0.5-0.9
			c0-0.8-0.4-0.9-1.9-1.3c-1.6-0.5-2.3-1.2-2.3-2.3c0-0.9,0.6-1.7,1.4-2.1c0.8-0.4,1.6-0.6,2.5-0.5c0.7,0,1.4,0.1,2,0.3
			c0.1,0.8,0.2,1.5,0.2,2.3c-0.4,0.1-0.8,0.1-1.3,0.2l-0.3-1.1c0-0.1-0.1-0.2-0.1-0.2c-0.6-0.3-1.3-0.3-2,0
			c-0.3,0.2-0.4,0.5-0.4,0.9c0,0.6,0.3,0.8,1.8,1.2c1.5,0.4,2.4,0.9,2.4,2.4c0,1-0.6,1.8-1.4,2.2c-0.8,0.4-1.7,0.5-2.6,0.5
			c-0.8,0-1.6-0.1-2.4-0.3l-0.3-2.4c0.4-0.1,0.9-0.2,1.3-0.2L187.5,33.6z"/>
		<path d="M196,22.7c0.7,0,1.2,0.5,1.3,1.1c0,0,0,0.1,0,0.1c0.1,0.7-0.5,1.4-1.2,1.4c-0.7,0.1-1.4-0.5-1.4-1.2
			c-0.1-0.7,0.5-1.4,1.2-1.4C195.9,22.7,195.9,22.7,196,22.7L196,22.7z M193.7,28.5c0-0.4,0-0.8,0-1.2c0.9-0.1,3.3-0.5,3.5-0.5
			c0,0,0,0,0,0.1c0,2.1,0,5.1,0,7.1l1.2,0c0,0.4,0,0.8,0,1.1H196h-2.3c0-0.4,0-0.8,0-1.2l1.2-0.1c0,0,0.1,0,0.1-0.1c0,0,0,0,0,0
			v-5.4L193.7,28.5z"/>
		<path d="M202.3,35.4c-0.5,0-1.1-0.2-1.5-0.5c-0.5-0.4-0.7-0.9-0.6-1.5c0-1,0-2.3,0-2.7s0-2,0-2.3H199c0-0.4,0-0.8,0-1.2
			c0.4,0,0.8-0.1,1.2-0.1c0.1,0,0.1-0.1,0.1-0.1c0-0.5,0.1-1.2,0.1-1.7c0.6-0.3,1.3-0.6,2-0.8c0,0,0,0,0,0.1c0,0.6,0,1.9,0,2.6h3
			c0,0.4,0,0.9-0.1,1.3h-3v1.9c0,0.8,0,1.7,0,2.6c0,0.6,0.4,1,1,1c0,0,0.1,0,0.1,0c0.7,0,1.3-0.1,1.9-0.3c0.1,0.4,0.1,0.8,0.2,1.2
			C204.5,35.2,203.4,35.4,202.3,35.4L202.3,35.4z"/>
		<path d="M214.3,28.2c-0.2,0.6-0.9,2.4-1.6,4c-0.8,2.1-1.8,4.1-2.9,6c-0.4,0.7-1,1.3-1.6,1.8c-0.5,0-1.7-0.8-1.7-1.2
			c0.6-0.4,1.1-0.8,1.6-1.3c0.6-0.6,1.1-1.3,1.4-2.1c-0.6-1.5-1.1-2.6-1.6-4.1c-0.5-1.2-0.8-2.3-1.2-3.1c0,0-0.1-0.1-0.1-0.1h-0.9
			c0-0.4,0-0.8,0-1.2h4.4c0,0.4,0,0.8,0,1.2l-1.2,0.1c0.1,0.5,0.4,1.2,0.8,2.4c0.4,1.2,0.6,1.8,0.9,2.7h0.1c0.3-0.8,0.5-1.5,0.8-2.4
			c0.3-0.9,0.6-1.8,0.8-2.6c0-0.1,0-0.1-0.1-0.1h-0.9c0-0.4,0-0.8,0-1.2h2h1.5c0,0.4,0,0.8,0,1.2L214.3,28.2z"/>
		<path d="M219.9,29.7c-0.1-2.2,0.9-4.3,2.6-5.7c2-1.4,4.6-1.8,7-1.1c0.1,1.2,0.2,2.4,0.2,3.5c-0.5,0.1-1,0.1-1.5,0.2l-0.4-2
			c0-0.1-0.1-0.2-0.2-0.3c-0.4-0.2-0.8-0.3-1.3-0.3c-0.9,0-1.9,0.4-2.5,1c-1,1.1-1.6,2.6-1.5,4.1c0,1.6,0.3,2.7,1.2,3.6
			c0.8,0.7,1.8,1.1,2.8,1.1c1.1-0.1,2.2-0.3,3.2-0.7c0.1,0.4,0.2,0.9,0.3,1.3c-1.2,0.5-2.6,0.8-3.9,0.9c-1.4,0-2.7-0.4-3.9-1.2
			C220.6,33.1,219.8,31.4,219.9,29.7L219.9,29.7z"/>
		<path d="M235.2,34.3c0.5,0,0.9-0.2,1.3-0.6c0.6-0.8,0.8-1.7,0.7-2.7c0.1-0.8-0.1-1.7-0.6-2.4c-0.3-0.4-0.8-0.7-1.3-0.7
			c-0.5,0-1,0.2-1.3,0.6c-0.5,0.7-0.8,1.7-0.7,2.6c-0.1,0.9,0.2,1.9,0.7,2.6C234.2,34.1,234.7,34.3,235.2,34.3L235.2,34.3z
			 M235,35.4c-1,0-2-0.3-2.8-0.9c-0.9-0.8-1.4-2-1.3-3.2c0-1.4,0.6-2.7,1.7-3.6c0.8-0.6,1.8-0.9,2.8-0.9c0.9,0,1.8,0.2,2.5,0.7
			c1.1,0.8,1.7,2.1,1.6,3.4c0,1.5-0.7,2.8-1.8,3.7C236.9,35.2,236,35.5,235,35.4L235,35.4z"/>
		<path d="M240.1,23.4c0-0.4,0-0.8,0-1.2c0.9-0.1,3.4-0.5,3.6-0.5c0,0,0.1,0,0.1,0.1c0,3.3-0.1,8.4-0.1,12.1l1.3,0v1.2h-2.4h-2.3
			c0-0.4,0-0.8,0-1.2l1.2-0.1c0,0,0.1,0,0.1-0.1V23.5L240.1,23.4z"/>
		<path d="M245.3,23.4c0-0.4,0-0.8,0-1.2c0.9-0.1,3.4-0.5,3.6-0.5c0,0,0.1,0,0.1,0.1c0,3.3-0.1,8.4-0.1,12.1l1.3,0v1.2h-2.4h-2.3
			c0-0.4,0-0.8,0-1.2l1.2-0.1c0,0,0.1,0,0.1-0.1V23.5L245.3,23.4z"/>
		<path d="M255,28c-0.5,0-0.9,0.2-1.2,0.6c-0.4,0.5-0.6,1.1-0.6,1.7c0.9,0,2.2,0,3.1-0.1c0.1,0,0.2-0.1,0.2-0.2c0,0,0,0,0,0
			c0-0.5-0.1-1-0.4-1.4C255.9,28.2,255.5,28,255,28L255,28z M250.9,31.5c0-2.6,1.7-4.7,4.4-4.7c0.9-0.1,1.8,0.3,2.4,1
			c0.6,0.8,0.9,1.7,0.8,2.7c-0.2,0.4-0.4,0.7-0.8,0.9c-0.8,0.1-3.1,0.1-4.6,0.1c-0.1,0.7,0.2,1.4,0.6,1.9c0.5,0.5,1.1,0.7,1.8,0.6
			c0.9,0,1.8-0.2,2.6-0.6c0.1,0.4,0.2,0.8,0.3,1.2c-1,0.5-2.2,0.8-3.3,0.8C252.6,35.4,251,33.9,250.9,31.5L250.9,31.5z"/>
		<path d="M262.2,30c0,1.6,0.7,2.1,1.6,2.1s1.6-0.7,1.6-2.2c0-0.5-0.1-1.1-0.4-1.5c-0.3-0.3-0.7-0.5-1.1-0.5
			C262.8,27.9,262.2,28.7,262.2,30L262.2,30z M266.5,37.2c0-0.7-0.4-0.9-1.8-1c-0.9-0.1-1.6-0.1-2-0.1c-0.6,0.6-1.1,1-1.1,1.6
			c0,0.8,1.1,1.2,2.1,1.2c0.7,0,1.3-0.1,2-0.4C266.1,38.2,266.4,37.8,266.5,37.2L266.5,37.2z M261.8,32.9c-1.1-0.5-1.9-1.5-1.9-2.7
			c0-1.8,1.7-3.3,4-3.3c0.5,0,1,0.1,1.5,0.2c0.1,0,0.3,0,0.4,0c0.9,0,2.1-0.1,2.7-0.1c0,0.4,0,0.9,0,1.3h-1.7v0.1
			c0.4,0.4,0.6,1,0.6,1.6c0,0.8-0.3,1.6-0.9,2.2c-0.9,0.9-2.2,1.3-3.4,1.1c-0.4,0.3-0.7,0.6-0.7,0.8c0,0.5,0.5,0.5,2.2,0.6
			c1.7,0.1,2.4,0.2,3.1,0.6c0.6,0.3,0.9,0.9,0.9,1.6c0,1.1-0.8,2.1-2.2,2.7c-1,0.4-2,0.5-3.1,0.5c-2.5,0-3.9-0.8-3.9-2.2
			c0-0.3,0.1-0.6,0.4-0.7c0.8-0.6,1.2-0.8,1.7-1.2v-0.1c-0.7-0.1-1.3-0.8-1.3-1.5C260.2,33.9,260.2,33.9,261.8,32.9L261.8,32.9z"/>
		<path d="M273.3,28c-0.5,0-0.9,0.2-1.2,0.6c-0.4,0.5-0.6,1.1-0.6,1.7c0.9,0,2.2,0,3.1-0.1c0.1,0,0.2-0.1,0.2-0.2c0,0,0,0,0,0
			c0-0.5-0.1-1-0.4-1.4C274.1,28.2,273.7,28,273.3,28L273.3,28z M269.2,31.5c0-2.6,1.7-4.7,4.4-4.7c0.9-0.1,1.8,0.3,2.4,1
			c0.6,0.8,0.9,1.7,0.9,2.7c-0.2,0.4-0.4,0.7-0.8,0.9c-0.8,0.1-3.1,0.1-4.6,0.1c-0.1,0.7,0.2,1.4,0.6,1.9c0.5,0.5,1.1,0.7,1.8,0.6
			c0.9,0,1.8-0.2,2.6-0.6c0.1,0.4,0.2,0.8,0.3,1.2c-1,0.5-2.2,0.8-3.3,0.8C270.9,35.4,269.2,33.9,269.2,31.5L269.2,31.5z"/>
		<polygon class="st1" points="88.2,27.6 122.2,27.6 122.2,35.2 83.7,35.2 		"/>
		<polygon points="82.2,27.6 50.3,27.6 44.6,27.6 40.1,35.2 72.1,35.2 77.7,35.2 		"/>
	</g>
</g>
</svg>
