<svg xmlns="http://www.w3.org/2000/svg" viewBox="0 0 271 44"><title>MC_horiz_RGB_1</title><path d="M61.64,35.52a13.52,13.52,0,1,1,11.29-21L79,8.48a22,22,0,0,0-38.29,6.64A21.88,21.88,0,0,1,45.92,2.77V.7H37.18l-14,23.48h-.13L9,.7H0V43.53H9.13V18.67h.33L22.73,40.74l1.38-2.07,12-20h.33V43.53h9.46V37.41A22,22,0,0,0,79,35.52l-6.07-6.06A13.53,13.53,0,0,1,61.64,35.52Z" style="fill:#51237f"/><path d="M107.77.33h6V17.86h-4.12l.14-13.12L106,17.86h-3L99.27,4.74l.14,13.12H95.29V.33h6l3.29,11.3Zm26.86,8.76a9.25,9.25,0,0,1-18.5.21v0a9.25,9.25,0,0,1,18.5-.19Zm-4.48,0c0-2.27-1.54-5.19-4.76-5.19A4.88,4.88,0,0,0,120.61,9v0a4.92,4.92,0,0,0,4.83,5.19C128.61,14.26,130.15,11.37,130.15,9.12ZM147.58,11,140.86.33H137V17.86h4.29L141.19,7.3l6.7,10.56h3.88V.33h-4.29Zm6.59-6.75h3.46V17.86h4.48V4.26h3.43V.33H154.17Zm20.37,3.62v3.58h5.23a3.54,3.54,0,0,1-1.44,2,4.71,4.71,0,0,1-2.75.78c-2.2,0-4.81-1.59-4.81-5.26a4.81,4.81,0,0,1,4.78-5.09A4.36,4.36,0,0,1,178.5,5a4.87,4.87,0,0,1,.92,1.18h5A9.16,9.16,0,0,0,175.68,0a9.06,9.06,0,0,0-9.38,9,9.16,9.16,0,0,0,9.31,9.19,9.3,9.3,0,0,0,8.53-5.3,11.26,11.26,0,0,0,.81-5Zm31,1.21a9.25,9.25,0,0,1-18.5.21v0a9.25,9.25,0,0,1,18.5-.19Zm-4.48,0c0-2.27-1.54-5.19-4.76-5.19A4.88,4.88,0,0,0,191.53,9v0a4.92,4.92,0,0,0,4.83,5.19C199.54,14.26,201.08,11.37,201.08,9.12Zm16,2.51L213.74.33h-6V17.86h4.12l-.14-13.12,3.79,13.12h3l3.79-13.12-.14,13.12h4.12V.33h-6Zm12.61,6.23h9.92V13.93h-5.45v-3h5.28V7h-5.28V4.26h5.45V.33h-9.92ZM255,9.55a5.79,5.79,0,0,0,.88-3.17,5.82,5.82,0,0,0-2.13-4.78c-1-.76-2.68-1.26-5.42-1.26h-5.73V17.86H247V4.26h1.66a3.67,3.67,0,0,1,1.82.47,2.38,2.38,0,0,1,1,2,2.61,2.61,0,0,1-1,2.16,5.36,5.36,0,0,1-2.7.47h-.73l4.57,8.46h4.62l-3.62-6.44A5,5,0,0,0,255,9.55ZM266.19.33l-2.63,7-2.6-7H256.1l5.23,11.16v6.37h4.48V11.49L271,.33Z" style="fill:#666"/><path d="M97.79,34.72a6.4,6.4,0,0,0,6.35,6.65,6.29,6.29,0,0,0,5.4-3.2h2.94a8.69,8.69,0,0,1-8.31,5.66,9.1,9.1,0,1,1,0-18.19,8.91,8.91,0,0,1,8.36,5.76h-3a6.2,6.2,0,0,0-5.42-3.29A6.39,6.39,0,0,0,97.79,34.72Zm34.24,0a9.18,9.18,0,0,1-18.36.12v0A9.18,9.18,0,0,1,132,34.75Zm-2.79,0a6.4,6.4,0,1,0-12.79,0v0a6.4,6.4,0,1,0,12.79,0ZM137,26h-2.79V43.51h9V41H137Zm10.78,0H145V43.51h9V41h-6.18Zm7.94,17.53h9.81V41h-7V35.86h6.92V33.42H158.5v-5h7V26H155.7Zm19.42-6.56h7.56a5.39,5.39,0,0,1-2.06,3.13,6.57,6.57,0,0,1-4.05,1.3,6.38,6.38,0,0,1-6.42-6.68,6.37,6.37,0,0,1,6.42-6.58,6.2,6.2,0,0,1,3.7,1.18A7.17,7.17,0,0,1,181.88,31H185a9.16,9.16,0,0,0-8.41-5.31,9.1,9.1,0,1,0,0,18.19,9.4,9.4,0,0,0,8.55-5.23,9.93,9.93,0,0,0,.78-3.93h-10.8Zm22.53-8.5V26h-9.81V43.51h9.81V41h-7V35.86h6.92V33.42h-6.92v-5Z" style="fill:#666"/></svg>