<svg id="oulined" xmlns="http://www.w3.org/2000/svg" viewBox="0 0 288.17 180.14"><defs><style>.cls-1{fill:#004b8d;}</style></defs><polygon class="cls-1" points="142.82 101.56 140.38 101.56 142.82 103.6 142.82 101.56"/><polygon class="cls-1" points="142.82 99.75 137.25 99.75 139.75 101.06 142.82 101.06 142.82 99.75"/><path class="cls-1" d="M146.78,105H129.47v1.06a18,18,0,0,1,10.69.12h6.62Z" transform="translate(-3.96 -7)"/><rect class="cls-1" x="125.5" y="96.25" width="17.31" height="1.06"/><rect class="cls-1" x="125.5" y="82.85" width="17.31" height="0.5"/><polygon class="cls-1" points="142.44 81.54 142 81.1 125.5 81.1 125.5 81.54 142.44 81.54"/><polygon class="cls-1" points="140.69 79.82 140.13 79.5 125.54 79.5 125.54 79.82 140.69 79.82"/><polygon class="cls-1" points="137.94 77.97 137 77.66 125.55 77.66 125.55 77.97 137.94 77.97"/><polygon class="cls-1" points="133.57 76.41 132.63 76.16 128.44 76.16 127.82 76.41 133.57 76.41"/><rect class="cls-1" x="125.5" y="94.66" width="17.31" height="0.87"/><rect class="cls-1" x="125.55" y="93.1" width="17.25" height="0.81"/><rect class="cls-1" x="125.5" y="91.47" width="17.31" height="0.75"/><rect class="cls-1" x="125.55" y="89.88" width="17.25" height="0.62"/><rect class="cls-1" x="125.5" y="88.1" width="17.31" height="0.69"/><rect class="cls-1" x="125.5" y="86.38" width="17.31" height="0.56"/><rect class="cls-1" x="125.5" y="84.63" width="17.31" height="0.5"/><polygon class="cls-1" points="144.25 101.56 146.69 101.56 144.25 103.6 144.25 101.56"/><polygon class="cls-1" points="144.25 99.74 149.82 99.74 147.32 101.06 144.25 101.06 144.25 99.74"/><path class="cls-1" d="M148.22,105h17.31v1.06a18,18,0,0,0-10.69.12h-6.62Z" transform="translate(-3.96 -7)"/><rect class="cls-1" x="144.26" y="96.25" width="17.31" height="1.06"/><polygon class="cls-1" points="144.26 83.35 144.26 82.85 161.58 82.86 161.57 83.36 144.26 83.35"/><polygon class="cls-1" points="144.64 81.53 145.08 81.1 161.58 81.11 161.58 81.54 144.64 81.53"/><polygon class="cls-1" points="146.39 79.82 146.95 79.5 161.54 79.51 161.54 79.82 146.39 79.82"/><polygon class="cls-1" points="149.14 77.97 150.08 77.66 161.53 77.67 161.53 77.98 149.14 77.97"/><polygon class="cls-1" points="153.52 76.41 154.46 76.16 158.64 76.17 159.27 76.42 153.52 76.41"/><rect class="cls-1" x="144.26" y="94.66" width="17.31" height="0.88"/><rect class="cls-1" x="156.46" y="91.88" width="0.81" height="17.25" transform="translate(52.21 250.25) rotate(-89.93)"/><rect class="cls-1" x="144.26" y="91.48" width="17.31" height="0.75"/><rect class="cls-1" x="156.56" y="88.57" width="0.63" height="17.25" transform="translate(55.49 246.92) rotate(-89.92)"/><rect class="cls-1" x="144.26" y="88.1" width="17.31" height="0.69"/><rect class="cls-1" x="156.6" y="85.01" width="0.56" height="17.31" transform="translate(58.98 243.38) rotate(-89.9)"/><rect class="cls-1" x="144.26" y="84.63" width="17.31" height="0.5"/><polygon class="cls-1" points="95.22 64.02 94.53 61.68 93.26 64.59 95.22 64.02"/><polygon class="cls-1" points="96.96 63.52 95.4 58.18 94.84 60.94 95.7 63.88 96.96 63.52"/><path class="cls-1" d="M102.6,70,97.76,53.41l-1,.29A18,18,0,0,1,99.61,64l1.85,6.36Z" transform="translate(-3.96 -7)"/><rect class="cls-1" x="100.82" y="52.72" width="1.06" height="17.31" transform="translate(-17.09 23.81) rotate(-16.25)"/><rect class="cls-1" x="114.23" y="48.89" width="0.5" height="17.31" transform="translate(-15.47 27.22) rotate(-16.2)"/><polygon class="cls-1" points="114.33 58.06 114.63 57.52 110.01 41.68 109.59 41.8 114.33 58.06"/><polygon class="cls-1" points="115.49 55.9 115.64 55.27 111.55 41.26 111.25 41.35 115.49 55.9"/><polygon class="cls-1" points="116.49 52.74 116.53 51.76 113.33 40.76 113.03 40.85 116.49 52.74"/><polygon class="cls-1" points="116.77 48.11 116.75 47.14 115.57 43.12 115.16 42.59 116.77 48.11"/><rect class="cls-1" x="102.52" y="52.25" width="0.87" height="17.31" transform="translate(-16.9 24.28) rotate(-16.27)"/><rect class="cls-1" x="104.08" y="51.84" width="0.81" height="17.25" transform="translate(-16.72 24.68) rotate(-16.26)"/><rect class="cls-1" x="105.7" y="51.34" width="0.75" height="17.31" transform="matrix(0.96, -0.28, 0.28, 0.96, -16.5, 25.02)"/><rect class="cls-1" x="107.36" y="50.92" width="0.62" height="17.25" transform="translate(-16.32 25.51) rotate(-16.25)"/><rect class="cls-1" x="109" y="50.39" width="0.69" height="17.31" transform="matrix(0.96, -0.28, 0.28, 0.96, -16.12, 25.95)"/><rect class="cls-1" x="110.78" y="49.89" width="0.56" height="17.31" transform="translate(-15.91 26.43) rotate(-16.26)"/><rect class="cls-1" x="112.52" y="49.39" width="0.5" height="17.31" transform="translate(-15.7 26.86) rotate(-16.24)"/><polygon class="cls-1" points="95.62 65.4 96.3 67.74 93.66 65.97 95.62 65.4"/><polygon class="cls-1" points="97.36 64.9 98.92 70.24 96.96 68.2 96.1 65.26 97.36 64.9"/><path class="cls-1" d="M103,71.41,107.84,88l-1,.3a17.94,17.94,0,0,0-3.1-10.23l-1.85-6.36Z" transform="translate(-3.96 -7)"/><rect class="cls-1" x="106.06" y="70.72" width="1.06" height="17.31" transform="translate(-21.9 25.96) rotate(-16.23)"/><rect class="cls-1" x="119.48" y="66.9" width="0.5" height="17.31" transform="translate(-20.31 29.48) rotate(-16.23)"/><polygon class="cls-1" points="114.95 60.17 115.49 60.47 120.1 76.31 119.68 76.43 114.95 60.17"/><polygon class="cls-1" points="117.09 61.37 117.55 61.82 121.62 75.83 121.32 75.92 117.09 61.37"/><polygon class="cls-1" points="119.63 63.49 120.19 64.31 123.39 75.3 123.09 75.39 119.63 63.49"/><polygon class="cls-1" points="122.35 67.26 122.85 68.09 124.02 72.11 123.96 72.78 122.35 67.26"/><rect class="cls-1" x="107.77" y="70.25" width="0.87" height="17.31" transform="translate(-21.71 26.41) rotate(-16.24)"/><rect class="cls-1" x="109.33" y="69.83" width="0.81" height="17.25" transform="translate(-21.49 26.73) rotate(-16.2)"/><rect class="cls-1" x="110.95" y="69.34" width="0.75" height="17.31" transform="translate(-21.32 27.21) rotate(-16.22)"/><rect class="cls-1" x="112.6" y="68.9" width="0.63" height="17.25" transform="translate(-21.15 27.7) rotate(-16.25)"/><rect class="cls-1" x="114.25" y="68.39" width="0.69" height="17.31" transform="matrix(0.96, -0.28, 0.28, 0.96, -20.94, 28.14)"/><rect class="cls-1" x="116.03" y="67.9" width="0.56" height="17.31" transform="translate(-20.7 28.49) rotate(-16.2)"/><rect class="cls-1" x="117.77" y="67.4" width="0.5" height="17.31" transform="translate(-20.5 28.95) rotate(-16.2)"/><polygon class="cls-1" points="115.7 7.62 117.73 6.27 114.57 5.92 115.7 7.62"/><polygon class="cls-1" points="116.7 9.13 121.34 6.06 118.53 6.34 115.98 8.04 116.7 9.13"/><path class="cls-1" d="M121.63,17.59,136.06,8l-.59-.88a17.93,17.93,0,0,1-9,5.8L121,16.6Z" transform="translate(-3.96 -7)"/><rect class="cls-1" x="120.86" y="13.29" width="17.31" height="1.06" transform="translate(10.01 66.95) rotate(-33.58)"/><rect class="cls-1" x="128.42" y="24.97" width="17.31" height="0.5" transform="translate(4.95 73) rotate(-33.57)"/><polygon class="cls-1" points="127.07 24.1 127.68 24.22 141.43 15.11 141.19 14.74 127.07 24.1"/><polygon class="cls-1" points="129.48 24.57 130.12 24.52 142.29 16.45 142.11 16.19 129.48 24.57"/><polygon class="cls-1" points="132.79 24.58 133.75 24.32 143.29 18 143.12 17.74 132.79 24.58"/><polygon class="cls-1" points="137.3 23.47 138.22 23.16 141.71 20.84 142.1 20.29 137.3 23.47"/><rect class="cls-1" x="121.79" y="14.78" width="17.31" height="0.88" transform="translate(9.39 67.69) rotate(-33.58)"/><rect class="cls-1" x="122.69" y="16.15" width="17.25" height="0.81" transform="translate(8.77 68.35) rotate(-33.56)"/><rect class="cls-1" x="123.59" y="17.55" width="17.31" height="0.75" transform="translate(8.2 69.16) rotate(-33.59)"/><rect class="cls-1" x="124.52" y="19" width="17.25" height="0.62" transform="translate(7.48 69.67) rotate(-33.49)"/><rect class="cls-1" x="125.47" y="20.42" width="17.31" height="0.69" transform="translate(6.89 70.55) rotate(-33.54)"/><rect class="cls-1" x="126.45" y="21.97" width="17.31" height="0.56" transform="matrix(0.83, -0.55, 0.55, 0.83, 6.22, 71.32)"/><polygon class="cls-1" points="124.78 21.31 125.05 21.73 139.48 12.16 139.21 11.75 124.78 21.31"/><polygon class="cls-1" points="114.5 8.42 112.47 9.76 113.38 6.71 114.5 8.42"/><polygon class="cls-1" points="115.5 9.93 110.87 13 112.23 10.52 114.78 8.83 115.5 9.93"/><path class="cls-1" d="M120.43,18.39,106,28l-.59-.89a17.9,17.9,0,0,0,8.84-6l5.53-3.65Z" transform="translate(-3.96 -7)"/><rect class="cls-1" x="105.23" y="23.65" width="17.31" height="1.06" transform="translate(1.59 59.82) rotate(-33.47)"/><rect class="cls-1" x="112.78" y="35.34" width="17.31" height="0.5" transform="translate(-3.47 65.81) rotate(-33.44)"/><polygon class="cls-1" points="125.24 25.32 125.12 25.92 111.36 35.03 111.12 34.67 125.24 25.32"/><polygon class="cls-1" points="124.73 27.71 124.44 28.29 112.27 36.34 112.1 36.08 124.73 27.71"/><polygon class="cls-1" points="123.46 30.77 122.85 31.55 113.3 37.87 113.13 37.61 123.46 30.77"/><polygon class="cls-1" points="120.67 34.49 120.03 35.22 116.54 37.53 115.88 37.66 120.67 34.49"/><rect class="cls-1" x="106.16" y="25.14" width="17.31" height="0.88" transform="translate(1.01 60.68) rotate(-33.53)"/><rect class="cls-1" x="107.08" y="26.5" width="17.25" height="0.81" transform="translate(0.43 61.4) rotate(-33.53)"/><rect class="cls-1" x="107.95" y="27.91" width="17.31" height="0.75" transform="translate(-0.2 62.08) rotate(-33.51)"/><rect class="cls-1" x="108.91" y="29.35" width="17.25" height="0.63" transform="translate(-0.78 62.88) rotate(-33.54)"/><rect class="cls-1" x="109.83" y="30.79" width="17.31" height="0.69" transform="translate(-1.49 63.5) rotate(-33.47)"/><rect class="cls-1" x="110.82" y="32.33" width="17.31" height="0.56" transform="translate(-2.1 64.43) rotate(-33.53)"/><rect class="cls-1" x="111.8" y="33.85" width="17.31" height="0.5" transform="translate(-2.69 65.43) rotate(-33.63)"/><polygon class="cls-1" points="175.58 9.41 177.51 10.89 176.82 7.79 175.58 9.41"/><polygon class="cls-1" points="174.47 10.85 178.9 14.23 177.71 11.67 175.27 9.81 174.47 10.85"/><path class="cls-1" d="M177.38,19.24l13.75,10.51.64-.84a17.87,17.87,0,0,1-8.41-6.59l-5.26-4Z" transform="translate(-3.96 -7)"/><rect class="cls-1" x="182.98" y="16.81" width="1.06" height="17.31" transform="translate(47.91 148.84) rotate(-52.62)"/><polygon class="cls-1" points="164.52 23.87 164.21 24.27 177.97 34.79 178.27 34.39 164.52 23.87"/><polygon class="cls-1" points="163.71 25.54 163.79 26.15 176.9 36.18 177.17 35.83 163.71 25.54"/><polygon class="cls-1" points="164.06 27.97 164.32 28.56 175.91 37.42 176.1 37.17 164.06 27.97"/><polygon class="cls-1" points="165.12 31.1 165.68 31.92 174.78 38.88 174.97 38.63 165.12 31.1"/><polygon class="cls-1" points="167.65 35 168.24 35.77 171.57 38.31 172.22 38.49 167.65 35"/><rect class="cls-1" x="182.06" y="18.14" width="0.88" height="17.31" transform="translate(46.21 148.3) rotate(-52.52)"/><rect class="cls-1" x="181.11" y="19.43" width="0.81" height="17.25" transform="translate(44.93 148.13) rotate(-52.56)"/><rect class="cls-1" x="180.14" y="20.72" width="0.75" height="17.31" transform="translate(43.67 148.05) rotate(-52.64)"/><polygon class="cls-1" points="168.88 18.2 168.5 18.7 182.2 29.18 182.58 28.68 168.88 18.2"/><rect class="cls-1" x="178.11" y="23.43" width="0.69" height="17.31" transform="translate(40.54 147.28) rotate(-52.57)"/><rect class="cls-1" x="177.09" y="24.84" width="0.56" height="17.31" transform="translate(39.03 147.02) rotate(-52.58)"/><polygon class="cls-1" points="165.6 22.46 165.29 22.86 179.05 33.37 179.35 32.97 165.6 22.46"/><polygon class="cls-1" points="174.43 8.54 172.5 7.06 175.67 6.92 174.43 8.54"/><polygon class="cls-1" points="173.33 9.98 168.91 6.6 171.7 7.07 174.13 8.94 173.33 9.98"/><path class="cls-1" d="M176.23,18.37,162.48,7.84l.65-.84a17.94,17.94,0,0,0,8.56,6.4l5.26,4Z" transform="translate(-3.96 -7)"/><rect class="cls-1" x="168.09" y="5.42" width="1.06" height="17.31" transform="translate(50.93 132.36) rotate(-52.54)"/><polygon class="cls-1" points="163.37 23 163.06 23.39 149.32 12.87 149.62 12.47 163.37 23"/><polygon class="cls-1" points="161.97 24.21 161.35 24.29 148.25 14.26 148.52 13.91 161.97 24.21"/><polygon class="cls-1" points="159.53 24.51 158.9 24.41 147.31 15.54 147.5 15.3 159.53 24.51"/><polygon class="cls-1" points="156.23 24.3 155.29 23.98 146.2 17.02 146.39 16.77 156.23 24.3"/><polygon class="cls-1" points="151.8 22.88 150.91 22.51 147.58 19.97 147.24 19.39 151.8 22.88"/><rect class="cls-1" x="167.16" y="6.75" width="0.87" height="17.31" transform="translate(49.57 132.16) rotate(-52.58)"/><rect class="cls-1" x="166.23" y="8.05" width="0.81" height="17.25" transform="translate(48.15 131.86) rotate(-52.57)"/><rect class="cls-1" x="165.25" y="9.33" width="0.75" height="17.31" transform="translate(46.83 131.69) rotate(-52.63)"/><polygon class="cls-1" points="167.7 17.3 167.32 17.8 153.62 7.31 154 6.82 167.7 17.3"/><rect class="cls-1" x="163.21" y="12.03" width="0.69" height="17.31" transform="translate(43.73 130.97) rotate(-52.56)"/><rect class="cls-1" x="162.19" y="13.45" width="0.56" height="17.31" transform="translate(42.25 130.73) rotate(-52.59)"/><polygon class="cls-1" points="164.45 21.58 164.15 21.98 150.4 11.46 150.7 11.06 164.45 21.58"/><polygon class="cls-1" points="192.12 67.68 191.34 69.99 194.06 68.34 192.12 67.68"/><polygon class="cls-1" points="190.41 67.1 188.61 72.36 190.66 70.42 191.65 67.52 190.41 67.1"/><path class="cls-1" d="M192.71,73.53l-5.57,16.39,1,.35a18,18,0,0,1,3.56-10.08l2.14-6.27Z" transform="translate(-3.96 -7)"/><rect class="cls-1" x="180.11" y="80.8" width="17.31" height="1.06" transform="translate(46.99 226.84) rotate(-71.21)"/><rect class="cls-1" x="167.17" y="76.68" width="17.31" height="0.5" transform="translate(42.32 211.54) rotate(-71.18)"/><polygon class="cls-1" points="173.05 61.59 172.49 61.86 167.18 77.48 167.59 77.62 173.05 61.59"/><polygon class="cls-1" points="170.86 62.69 170.38 63.12 165.68 76.94 165.97 77.04 170.86 62.69"/><polygon class="cls-1" points="168.22 64.7 167.63 65.49 163.94 76.33 164.24 76.43 168.22 64.7"/><polygon class="cls-1" points="165.34 68.34 164.8 69.15 163.45 73.11 163.49 73.78 165.34 68.34"/><rect class="cls-1" x="178.53" y="80.36" width="17.31" height="0.87" transform="translate(46.36 224.91) rotate(-71.18)"/><rect class="cls-1" x="177.05" y="79.87" width="17.25" height="0.81" transform="translate(45.93 223.22) rotate(-71.22)"/><rect class="cls-1" x="175.45" y="79.37" width="17.31" height="0.75" transform="translate(45.35 221.36) rotate(-71.21)"/><rect class="cls-1" x="173.92" y="78.89" width="17.25" height="0.63" transform="matrix(0.32, -0.95, 0.95, 0.32, 44.83, 219.54)"/><rect class="cls-1" x="172.23" y="78.31" width="17.31" height="0.69" transform="translate(44.11 217.48) rotate(-71.18)"/><rect class="cls-1" x="170.54" y="77.8" width="17.31" height="0.56" transform="translate(43.39 215.38) rotate(-71.13)"/><rect class="cls-1" x="168.85" y="77.25" width="17.31" height="0.5" transform="translate(43.09 213.68) rotate(-71.25)"/><polygon class="cls-1" points="192.58 66.32 193.37 64.01 194.51 66.98 192.58 66.32"/><polygon class="cls-1" points="190.87 65.73 192.66 60.47 193.1 63.26 192.11 66.16 190.87 65.73"/><path class="cls-1" d="M193.17,72.17l5.59-16.39,1,.35a17.91,17.91,0,0,0-3.33,10.15l-2.13,6.27Z" transform="translate(-3.96 -7)"/><rect class="cls-1" x="186.16" y="63.05" width="17.31" height="1.06" transform="translate(67.84 220.48) rotate(-71.19)"/><rect class="cls-1" x="173.21" y="58.92" width="17.31" height="0.5" transform="translate(63.41 205.37) rotate(-71.25)"/><polygon class="cls-1" points="173.75 59.51 173.48 58.95 178.8 43.33 179.22 43.48 173.75 59.51"/><polygon class="cls-1" points="172.69 57.3 172.58 56.66 177.28 42.85 177.58 42.95 172.69 57.3"/><polygon class="cls-1" points="171.83 54.1 171.84 53.11 175.53 42.27 175.83 42.37 171.83 54.1"/><polygon class="cls-1" points="171.76 49.45 171.83 48.48 173.18 44.52 173.62 44.01 171.76 49.45"/><rect class="cls-1" x="184.57" y="62.61" width="17.31" height="0.87" transform="translate(67.26 218.6) rotate(-71.18)"/><rect class="cls-1" x="183.09" y="62.13" width="17.25" height="0.81" transform="translate(66.81 216.91) rotate(-71.22)"/><rect class="cls-1" x="181.49" y="61.62" width="17.31" height="0.75" transform="translate(66.28 215.07) rotate(-71.22)"/><rect class="cls-1" x="179.95" y="61.16" width="17.25" height="0.63" transform="translate(65.59 213.13) rotate(-71.18)"/><rect class="cls-1" x="178.27" y="60.55" width="17.31" height="0.69" transform="translate(65.01 211.18) rotate(-71.18)"/><rect class="cls-1" x="176.58" y="60.04" width="17.31" height="0.56" transform="translate(64.38 209.17) rotate(-71.16)"/><rect class="cls-1" x="174.9" y="59.5" width="17.31" height="0.5" transform="translate(64.02 207.36) rotate(-71.25)"/><path class="cls-1" d="M12.07,141.52a8.36,8.36,0,0,1-4.54-1.19V151.4a6.62,6.62,0,0,0,.11,1.48,6.08,6.08,0,0,0,.43,1.33H4a2.86,2.86,0,0,0,.65-1.15,15.59,15.59,0,0,0,.07-1.91V129.76a4.74,4.74,0,0,0,0-1.41,3.67,3.67,0,0,0-.58-1.08h8.11c4.07,0,7.75,3,7.64,7.25C19.68,138.56,16.61,141.62,12.07,141.52Zm-1.26-12.44a7.75,7.75,0,0,0-3.28.39v9.92a5.44,5.44,0,0,0,3.32.9c3.78-.11,6.09-2.6,6-5.84C16.72,131,15.14,129.22,10.81,129.08Z" transform="translate(-3.96 -7)"/><path class="cls-1" d="M37.55,154.25,26.74,140.18a4.49,4.49,0,0,0-.72-.86,2.21,2.21,0,0,0-.47-.33v12.37a4.94,4.94,0,0,0,.11,1.48,5.4,5.4,0,0,0,.4,1.3h-4a2.73,2.73,0,0,0,.43-1.12,19.18,19.18,0,0,0,.11-2.74V131a12.67,12.67,0,0,0-.21-2.6,3.75,3.75,0,0,0-.51-1.11H30c3.53,0,6.7,2.34,6.59,6.2a6.44,6.44,0,0,1-7.31,6.35c.21.18.32.32.54.5a16.15,16.15,0,0,1,1.87,2.06l6.42,8.15a18.07,18.07,0,0,0,2.3,2.66c.51.44.83.69,1.37,1.09Zm-9.12-25.39a6,6,0,0,0-2.84.5v9.31a14.91,14.91,0,0,0,2.34.07c3.71-.29,5.94-2.24,5.73-5.23C33.52,131.35,32.79,129,28.43,128.86Z" transform="translate(-3.96 -7)"/><path class="cls-1" d="M47.93,128.35a4.4,4.4,0,0,0-.25,1.52v19.8a32.27,32.27,0,0,0,.11,3.49,2.52,2.52,0,0,0,.5,1H44.07a2.9,2.9,0,0,0,.44-.9,3.17,3.17,0,0,0,.21-1.4V129.94a3.79,3.79,0,0,0-.21-1.4,4.32,4.32,0,0,0-.58-1.23h4.43A8.73,8.73,0,0,0,47.93,128.35Z" transform="translate(-3.96 -7)"/><path class="cls-1" d="M76,128.43a6.49,6.49,0,0,0-.11,1.44l0,25.21L54.2,131v20a6.57,6.57,0,0,0,.25,2,7,7,0,0,0,.33,1.15H51.35a2.09,2.09,0,0,0,.47-1,4.71,4.71,0,0,0,.15-1.44v-22.5a2.27,2.27,0,0,0-.29-1.16,1.75,1.75,0,0,0-.76-.83h4L73.73,148.8V131.71a15.19,15.19,0,0,0-.18-3.43,9.26,9.26,0,0,0-.25-1h3A5.75,5.75,0,0,0,76,128.43Z" transform="translate(-3.96 -7)"/><path class="cls-1" d="M100.8,153.71a17.89,17.89,0,0,1-6.49.93c-9,.4-15.46-5.73-15.5-13.77s6.53-14,15.21-14a14.8,14.8,0,0,1,6.35,1.16v2.63A11.58,11.58,0,0,0,94.1,129a11.71,11.71,0,0,0-12.29,11.87c-.11,7,5.4,11.79,12.46,11.61a14,14,0,0,0,8-2.34Z" transform="translate(-3.96 -7)"/><path class="cls-1" d="M120.22,154.17H104.69a2.9,2.9,0,0,0,.47-1,4.5,4.5,0,0,0,.07-1.37V129.22a2.84,2.84,0,0,0-.22-1.15,2.06,2.06,0,0,0-.5-.76h13.73V130a2.51,2.51,0,0,0-1-.65,4.45,4.45,0,0,0-1.66-.1h-7.32v8.87h10v2.56a7.25,7.25,0,0,0-1.51-.51,6.85,6.85,0,0,0-1.19-.07h-7.21v12h8.61a8.34,8.34,0,0,0,3-.43,3.84,3.84,0,0,0,1.23-.57Z" transform="translate(-3.96 -7)"/><path class="cls-1" d="M155.29,141.77a2.8,2.8,0,0,0-.11,1.12l0,9a19,19,0,0,1-9,2.67c-8.61.35-15.39-5.85-15.28-13.71.15-8.87,6.38-14,14.63-13.88a17.35,17.35,0,0,1,7,1.12v2.77a14,14,0,0,0-7.53-1.76c-7.6.1-11.31,6-11.17,11.71a11.52,11.52,0,0,0,12.47,11.36,12,12,0,0,0,6.09-1.69V145.3a9.32,9.32,0,0,0-.29-3.17,3,3,0,0,0-.83-1.3h4.47A2.32,2.32,0,0,0,155.29,141.77Z" transform="translate(-3.96 -7)"/><path class="cls-1" d="M174.82,154.17H159.29a2.71,2.71,0,0,0,.46-1,4.2,4.2,0,0,0,.08-1.37V129.22a3,3,0,0,0-.22-1.15,2.06,2.06,0,0,0-.5-.76h13.73V130a2.55,2.55,0,0,0-1.05-.65,4.42,4.42,0,0,0-1.66-.1h-7.31v8.87h10v2.56a7.14,7.14,0,0,0-1.52-.51,6.73,6.73,0,0,0-1.19-.07h-7.2v12h8.61a8.37,8.37,0,0,0,3-.43,3.94,3.94,0,0,0,1.23-.57Z" transform="translate(-3.96 -7)"/><path class="cls-1" d="M190.32,154.57a13.83,13.83,0,0,1,.61-27.65,13.77,13.77,0,0,1,13.4,13.73A13.56,13.56,0,0,1,190.32,154.57Zm.39-25.44c-6.45-.08-10.66,5.36-10.77,11.45s4.18,11.59,10.45,11.74,11-5.47,11-11.67S197,129.23,190.71,129.13Z" transform="translate(-3.96 -7)"/><path class="cls-1" d="M223.22,154.25l-10.81-14.07a4.49,4.49,0,0,0-.72-.86,2.21,2.21,0,0,0-.47-.33v12.37a4.94,4.94,0,0,0,.11,1.48,5.85,5.85,0,0,0,.39,1.3h-4a2.73,2.73,0,0,0,.43-1.12,19.18,19.18,0,0,0,.11-2.74V131a12.69,12.69,0,0,0-.22-2.6,3.73,3.73,0,0,0-.5-1.11h8.11c3.53,0,6.7,2.34,6.59,6.2a6.44,6.44,0,0,1-7.31,6.35c.21.18.32.32.54.5a16.93,16.93,0,0,1,1.87,2.06l6.42,8.15a17.49,17.49,0,0,0,2.3,2.66c.51.44.83.69,1.37,1.09Zm-9.12-25.39a6.09,6.09,0,0,0-2.85.5v9.31a15.09,15.09,0,0,0,2.35.07c3.71-.29,5.94-2.24,5.73-5.23C219.18,131.35,218.46,129,214.1,128.86Z" transform="translate(-3.96 -7)"/><path class="cls-1" d="M250.54,141.77a2.8,2.8,0,0,0-.11,1.12l0,9a19,19,0,0,1-9,2.67c-8.61.35-15.39-5.85-15.28-13.71.15-8.87,6.38-14,14.63-13.88a17.35,17.35,0,0,1,7,1.12v2.77a14,14,0,0,0-7.53-1.76c-7.6.1-11.31,6-11.17,11.71a11.52,11.52,0,0,0,12.47,11.36,12,12,0,0,0,6.09-1.69V145.3a9.32,9.32,0,0,0-.29-3.17,3,3,0,0,0-.83-1.3H251A2.44,2.44,0,0,0,250.54,141.77Z" transform="translate(-3.96 -7)"/><path class="cls-1" d="M269.06,154.17H253.53a2.9,2.9,0,0,0,.47-1,4.5,4.5,0,0,0,.07-1.37V129.22a2.84,2.84,0,0,0-.22-1.15,2.06,2.06,0,0,0-.5-.76h13.73V130a2.58,2.58,0,0,0-1-.65,4.45,4.45,0,0,0-1.66-.1h-7.32v8.87h10v2.56a7.25,7.25,0,0,0-1.51-.51,6.85,6.85,0,0,0-1.19-.07h-7.21v12h8.61a8.34,8.34,0,0,0,3-.43,3.84,3.84,0,0,0,1.23-.57Z" transform="translate(-3.96 -7)"/><path class="cls-1" d="M271.46,131.9a3.17,3.17,0,0,1-1,1.16h-.52l.18-.53c.34-.84.51-2.08.15-2.26a1.12,1.12,0,0,0-.89-.14v-2.82H272V130A3.29,3.29,0,0,1,271.46,131.9Z" transform="translate(-3.96 -7)"/><path class="cls-1" d="M281.39,154.64a15.27,15.27,0,0,1-6-.79V151c2,1.62,3.75,1.8,6.31,1.84,4.25.14,6.84-1.77,6.84-5.12,0-2.56-1.91-3.9-4.14-5.16l-4.9-2.81c-2.64-1.55-4.19-3.32-4.22-6.2,0-4.26,4.14-6.78,8.68-6.64a13.46,13.46,0,0,1,5.41.8v2.77a6.91,6.91,0,0,0-5.11-1.84c-3-.18-6.21,1.81-5.95,4.76.18,1.91,1.47,3,3.17,3.93l4.29,2.49c3.24,1.88,5.94,2.89,6.12,7.47C292.09,153.24,286.25,154.75,281.39,154.64Z" transform="translate(-3.96 -7)"/><path class="cls-1" d="M20.12,186.12a12.39,12.39,0,0,1-4.58.67c-6.34.28-10.93-4-10.95-9.74s4.61-9.91,10.74-9.85a10.33,10.33,0,0,1,4.48.81v1.86a8.13,8.13,0,0,0-4.43-1.2,8.28,8.28,0,0,0-8.68,8.38c-.08,4.95,3.82,8.33,8.81,8.21a9.91,9.91,0,0,0,5.63-1.66Z" transform="translate(-3.96 -7)"/><path class="cls-1" d="M31.46,186.88a9.77,9.77,0,0,1,.43-19.54,9.73,9.73,0,0,1,9.47,9.7A9.6,9.6,0,0,1,31.46,186.88Zm.28-18c-4.56-.05-7.54,3.79-7.62,8.09s3,8.2,7.39,8.3,7.79-3.87,7.79-8.25S36.19,169,31.74,168.9Z" transform="translate(-3.96 -7)"/><path class="cls-1" d="M63.12,186.46c.05-.26.08-.44.11-.69a4.4,4.4,0,0,0-.06-1.2l-1.57-15-7.44,17.57-7.59-16.91-1,14.14a4.88,4.88,0,0,0,.08,1.4,3.71,3.71,0,0,0,.12.69H43.47a2.5,2.5,0,0,0,.33-.59,4.33,4.33,0,0,0,.15-1l1.35-15.64a2.44,2.44,0,0,0,0-1,1.4,1.4,0,0,0-.43-.79h2.57l6.87,15.72,6.6-15.75h3c-.1.18-.15.29-.23.46a2.6,2.6,0,0,0-.12,1.46l1.57,13.91c.08.91.13,1.58.28,2.42a2.4,2.4,0,0,0,.44.79Z" transform="translate(-3.96 -7)"/><path class="cls-1" d="M88.17,186.46c0-.26.07-.44.1-.69a4.83,4.83,0,0,0,0-1.2l-1.58-15L79.2,187.14l-7.58-16.91-1,14.14a4.88,4.88,0,0,0,.08,1.4,3.77,3.77,0,0,0,.13.69H68.51a2.5,2.5,0,0,0,.33-.59,4.33,4.33,0,0,0,.15-1l1.35-15.64a2.44,2.44,0,0,0,0-1,1.35,1.35,0,0,0-.43-.79h2.57l6.88,15.72L86,167.42h3a3.81,3.81,0,0,0-.22.46,2.52,2.52,0,0,0-.13,1.46l1.58,13.91a20.31,20.31,0,0,0,.28,2.42,2.2,2.2,0,0,0,.43.79Z" transform="translate(-3.96 -7)"/><path class="cls-1" d="M108.74,168.29a4.72,4.72,0,0,0,0,.92v11.13c0,3.67-3.13,6.35-7,6.42-4.2.05-7.62-2.65-7.62-6.52V169.31a5.08,5.08,0,0,0,0-.87,4,4,0,0,0-.23-1h2.6a2.5,2.5,0,0,0-.23.79,3.33,3.33,0,0,0,0,.89V180a5.28,5.28,0,0,0,5.55,5.1,4.91,4.91,0,0,0,4.94-5v-10.9a6.18,6.18,0,0,0,0-1,4.81,4.81,0,0,0-.26-.84h2.65A4.68,4.68,0,0,0,108.74,168.29Z" transform="translate(-3.96 -7)"/><path class="cls-1" d="M130.42,168.27a4.39,4.39,0,0,0-.08,1l0,17.81L115,170.1v14.14a4.81,4.81,0,0,0,.17,1.4,6,6,0,0,0,.23.82H113a1.71,1.71,0,0,0,.34-.69,3.57,3.57,0,0,0,.1-1v-15.9a1.47,1.47,0,0,0-.21-.81,1.18,1.18,0,0,0-.53-.59h2.8l13.32,15.21V170.58a11,11,0,0,0-.13-2.42,7.22,7.22,0,0,0-.18-.74h2.14A4.59,4.59,0,0,0,130.42,168.27Z" transform="translate(-3.96 -7)"/><path class="cls-1" d="M137.84,168.21a3.06,3.06,0,0,0-.18,1.07v14a22.16,22.16,0,0,0,.08,2.47,1.81,1.81,0,0,0,.36.72h-3a2.07,2.07,0,0,0,.3-.64,2.11,2.11,0,0,0,.16-1V169.34a2.66,2.66,0,0,0-.16-1,2.92,2.92,0,0,0-.4-.86h3.13A5.34,5.34,0,0,0,137.84,168.21Z" transform="translate(-3.96 -7)"/><path class="cls-1" d="M155.25,169a3.54,3.54,0,0,0-1.12-.17H150v15.92a3.42,3.42,0,0,0,.1,1,1.6,1.6,0,0,0,.28.69h-3a3.27,3.27,0,0,0,.26-.62,4.48,4.48,0,0,0,0-1V168.9H142.9a2.11,2.11,0,0,0-.66.1,2.78,2.78,0,0,0-1,.41l.41-2h14.28l.18,1.86A3.68,3.68,0,0,0,155.25,169Z" transform="translate(-3.96 -7)"/><path class="cls-1" d="M172.41,168.14c-.23.3-.35.51-.56.84l-5.24,7.87v8.43a2.91,2.91,0,0,0,.07.64,5.48,5.48,0,0,0,.16.56h-2.47a1.77,1.77,0,0,0,.17-.59,1.41,1.41,0,0,0,0-.51v-8.53l-5.17-8.13c-.18-.28-.28-.43-.48-.71a4.22,4.22,0,0,0-.56-.56h3a2,2,0,0,0,.05.66,3.12,3.12,0,0,0,.41.79l4,6.45,4.33-6.85a1.77,1.77,0,0,0,.28-.59,1.35,1.35,0,0,0,0-.49h2.6A4.72,4.72,0,0,0,172.41,168.14Z" transform="translate(-3.96 -7)"/><path class="cls-1" d="M198,186.12a12.42,12.42,0,0,1-4.59.67c-6.34.28-10.92-4-10.94-9.74s4.6-9.91,10.74-9.85a10.33,10.33,0,0,1,4.48.81v1.86a8.15,8.15,0,0,0-4.43-1.2,8.27,8.27,0,0,0-8.68,8.38c-.08,4.95,3.82,8.33,8.81,8.21A9.91,9.91,0,0,0,199,183.6Z" transform="translate(-3.96 -7)"/><path class="cls-1" d="M208.43,186.72a9.77,9.77,0,1,1,9.9-9.83A9.58,9.58,0,0,1,208.43,186.72Zm.28-18c-4.56-.05-7.54,3.79-7.61,8.09s3,8.19,7.38,8.29,7.79-3.86,7.79-8.24S213.17,168.83,208.71,168.75Z" transform="translate(-3.96 -7)"/><path class="cls-1" d="M231.86,186.43h-11a1.94,1.94,0,0,0,.31-.54,2.26,2.26,0,0,0,.13-1v-15.6a3.18,3.18,0,0,0-.13-1,2.43,2.43,0,0,0-.41-.84h3a2.92,2.92,0,0,0-.28.71,5.31,5.31,0,0,0-.11,1.6l0,15.19,7.33,0a2.91,2.91,0,0,0,1.12-.17c.38-.13.26,0,.89-.54Z" transform="translate(-3.96 -7)"/><path class="cls-1" d="M245.59,186.43h-11a2.19,2.19,0,0,0,.3-.54,2.12,2.12,0,0,0,.13-1v-15.6a2.89,2.89,0,0,0-.13-1,2.6,2.6,0,0,0-.4-.84h2.95a3.39,3.39,0,0,0-.28.71,5.66,5.66,0,0,0-.1,1.6l0,15.19,7.34,0a2.94,2.94,0,0,0,1.12-.17c.38-.13.25,0,.89-.54Z" transform="translate(-3.96 -7)"/><path class="cls-1" d="M259.33,186.46h-11a2,2,0,0,0,.33-.72,2.84,2.84,0,0,0,0-1V168.83a2.18,2.18,0,0,0-.15-.82,1.39,1.39,0,0,0-.36-.53h9.7v1.91a1.65,1.65,0,0,0-.73-.46,3.09,3.09,0,0,0-1.17-.08h-5.17v6.27h7.07v1.81a4.49,4.49,0,0,0-1.07-.36,4.63,4.63,0,0,0-.83,0h-5.1V185H257a5.78,5.78,0,0,0,2.11-.31,2.76,2.76,0,0,0,.87-.4Z" transform="translate(-3.96 -7)"/><path class="cls-1" d="M278,177.69a1.91,1.91,0,0,0-.08.79l0,6.35a13.37,13.37,0,0,1-6.34,1.88c-6.09.26-10.88-4.13-10.8-9.68.1-6.27,4.51-9.86,10.34-9.81a12.48,12.48,0,0,1,4.94.79v2a10,10,0,0,0-5.33-1.25c-5.37.08-8,4.26-7.89,8.28a8.15,8.15,0,0,0,8.81,8,8.61,8.61,0,0,0,4.31-1.2v-3.64a6.7,6.7,0,0,0-.21-2.24,2.15,2.15,0,0,0-.59-.92h3.16A1.57,1.57,0,0,0,278,177.69Z" transform="translate(-3.96 -7)"/><path class="cls-1" d="M291.47,186.46h-11a2.12,2.12,0,0,0,.33-.72,3.12,3.12,0,0,0,.05-1V168.83a2.18,2.18,0,0,0-.15-.82,1.39,1.39,0,0,0-.36-.53h9.7v1.91a1.69,1.69,0,0,0-.74-.46,3.09,3.09,0,0,0-1.17-.08H283v6.27h7.07v1.81a4.49,4.49,0,0,0-1.07-.36,4.68,4.68,0,0,0-.84,0h-5.09V185h6.09a5.81,5.81,0,0,0,2.11-.31,2.7,2.7,0,0,0,.86-.4Z" transform="translate(-3.96 -7)"/></svg>