<?xml version="1.0" encoding="utf-8"?>
<!-- Generator: Adobe Illustrator 23.0.3, SVG Export Plug-In . SVG Version: 6.00 Build 0)  -->
<svg version="1.1" id="Layer_1" xmlns="http://www.w3.org/2000/svg" xmlns:xlink="http://www.w3.org/1999/xlink" x="0px" y="0px"
	 viewBox="0 0 288 288" style="enable-background:new 0 0 288 288;" xml:space="preserve">
<style type="text/css">
	.st0{fill:#010101;}
	.st1{fill:#DB192B;}
</style>
<path class="st0" d="M76.64,128.2V91.79l145.81,138.1h4.53V106.58c0-27.76,9.28-36.86,27.85-43.91v-4.55h-60.91v4.55
	c18.57,7.05,27.85,16.15,27.85,43.91v81.45L92.94,64.26c-5.89-5.46-7.47-6.14-11.32-6.14H33.17v4.55
	c10.64,1.14,16.98,4.1,32.38,19.11l5.89,5.69v40.74H76.64z"/>
<g>
	<path class="st1" d="M64.94,141.12c1.21-0.06,1.81-0.1,3.01-0.16c0.42-0.02,0.65,0.19,0.66,0.63c0.01,0.29,0.01,0.44,0.02,0.73
		c0.01,0.44-0.2,0.67-0.63,0.7c-1.85,0.1-2.77,0.15-4.62,0.25c-0.43,0.02-0.65-0.19-0.65-0.63c0-3.18,0-4.76,0-7.94
		c0-0.44,0.21-0.67,0.63-0.7c0.36-0.02,0.54-0.03,0.9-0.05c0.41-0.02,0.63,0.19,0.63,0.63C64.9,137.19,64.91,138.5,64.94,141.12z"/>
	<path class="st1" d="M74.58,142.94c-0.34,0-0.51,0-0.86,0.01c-0.49,0-0.7-0.14-0.88-0.62c-1.21-3.23-1.8-4.84-2.94-8.07
		c-0.12-0.33,0.08-0.62,0.41-0.62c0.42,0,0.62,0,1.04-0.01c0.47,0,0.67,0.14,0.83,0.62c0.79,2.29,1.2,3.44,2.03,5.73
		c0.81-2.31,1.21-3.46,1.99-5.76c0.16-0.48,0.36-0.62,0.83-0.63c0.36,0,0.55,0,0.91-0.01c0.33,0,0.53,0.29,0.41,0.62
		c-1.13,3.25-1.71,4.87-2.91,8.11C75.28,142.79,75.07,142.94,74.58,142.94z"/>
	<path class="st1" d="M81.92,142.97c-0.48-0.02-0.72-0.03-1.19-0.06c-0.29-0.01-0.45-0.33-0.28-0.57c1.11-1.66,1.66-2.49,2.73-4.14
		c-0.94-1.6-1.41-2.4-2.32-4c-0.15-0.26,0.02-0.55,0.3-0.54c0.5,0.02,0.75,0.04,1.25,0.06c0.51,0.03,0.69,0.14,0.94,0.62
		c0.53,0.95,0.79,1.42,1.33,2.37c0.54-0.89,0.81-1.34,1.34-2.24c0.26-0.45,0.44-0.55,0.95-0.52c0.47,0.02,0.7,0.03,1.17,0.06
		c0.28,0.01,0.44,0.33,0.29,0.57c-0.94,1.5-1.42,2.25-2.39,3.76c1.06,1.76,1.6,2.64,2.69,4.4c0.16,0.26-0.01,0.55-0.29,0.54
		c-0.52-0.02-0.78-0.04-1.3-0.06c-0.53-0.03-0.71-0.14-0.99-0.62c-0.64-1.12-0.96-1.67-1.6-2.79c-0.65,1.05-0.98,1.58-1.64,2.63
		C82.64,142.9,82.45,142.99,81.92,142.97z"/>
	<path class="st1" d="M47.78,161.46c-0.36,0.05-0.54,0.07-0.9,0.12c-0.52,0.07-0.74-0.05-0.95-0.49c-1.4-3.04-2.07-4.56-3.38-7.59
		c-0.14-0.31,0.07-0.63,0.41-0.67c0.44-0.06,0.66-0.09,1.1-0.15c0.5-0.07,0.71,0.05,0.9,0.5c0.91,2.16,1.37,3.24,2.33,5.41
		c0.77-2.39,1.15-3.59,1.9-5.98c0.15-0.5,0.36-0.67,0.85-0.74c0.38-0.05,0.57-0.08,0.96-0.13c0.34-0.05,0.56,0.21,0.45,0.56
		c-1.09,3.38-1.64,5.07-2.78,8.44C48.5,161.21,48.29,161.39,47.78,161.46z"/>
	<path class="st1" d="M55.63,160.49c-0.45,0.04-0.68-0.17-0.68-0.61c-0.04-3.17-0.06-4.75-0.08-7.92c0-0.44,0.22-0.68,0.65-0.71
		c2.09-0.18,3.13-0.26,5.22-0.44c0.43-0.04,0.66,0.17,0.67,0.6c0.01,0.26,0.01,0.4,0.02,0.66c0.01,0.44-0.2,0.68-0.63,0.71
		c-1.45,0.12-2.18,0.18-3.64,0.3c0.01,0.64,0.02,0.96,0.03,1.6c1.01-0.08,1.51-0.13,2.52-0.21c0.44-0.04,0.67,0.17,0.68,0.61
		c0.01,0.23,0.01,0.35,0.02,0.58c0.01,0.44-0.21,0.68-0.65,0.71c-1.02,0.08-1.52,0.13-2.54,0.21c0.01,0.71,0.02,1.07,0.03,1.78
		c1.48-0.12,2.23-0.18,3.71-0.3c0.44-0.04,0.68,0.17,0.69,0.61c0.01,0.26,0.01,0.4,0.02,0.66c0.02,0.44-0.21,0.68-0.65,0.71
		C58.87,160.23,57.79,160.32,55.63,160.49z"/>
	<path class="st1" d="M66.85,159.75c-0.39,0.01-0.58,0.02-0.97,0.03c-0.44,0.01-0.67-0.2-0.67-0.64c0.01-3.18,0.02-4.77,0.03-7.95
		c0-0.44,0.22-0.67,0.65-0.68c1.21-0.04,1.81-0.06,3.02-0.1c1.96-0.06,3.23,1.06,3.27,2.78c0.02,1.1-0.53,1.98-1.5,2.46
		c0.73,1.33,1.1,2,1.85,3.33c0.15,0.27-0.03,0.58-0.35,0.59c-0.47,0.02-0.71,0.02-1.18,0.04c-0.54,0.02-0.73-0.1-0.98-0.57
		c-0.6-1.14-0.9-1.71-1.49-2.85c-0.41,0.01-0.62,0.02-1.04,0.03c0.01,1.13,0.01,1.7,0.01,2.84
		C67.52,159.5,67.29,159.73,66.85,159.75z M68.87,152.28c-0.56,0.02-0.83,0.03-1.39,0.04c0,0.84,0,1.26,0.01,2.09
		c0.56-0.02,0.84-0.03,1.4-0.04c0.58-0.02,1-0.46,0.99-1.07C69.87,152.67,69.45,152.26,68.87,152.28z"/>
	<path class="st1" d="M76.5,159.58c-0.44,0-0.67-0.23-0.67-0.67c0.01-3.18,0.02-4.77,0.03-7.95c0-0.44,0.22-0.66,0.65-0.66
		c0.38,0,0.57,0,0.95,0.01c0.43,0,0.65,0.23,0.65,0.67c0.01,3.18,0.02,4.77,0.03,7.95c0,0.44-0.23,0.66-0.67,0.66
		C77.09,159.58,76.9,159.58,76.5,159.58z"/>
	<path class="st1" d="M84.54,159.77c-0.44-0.02-0.67-0.26-0.66-0.69c0.04-2.62,0.06-3.93,0.09-6.55c-0.83-0.04-1.24-0.06-2.07-0.1
		c-0.43-0.02-0.65-0.26-0.64-0.69c0.01-0.29,0.01-0.44,0.02-0.73c0.01-0.44,0.24-0.65,0.66-0.63c2.54,0.12,3.81,0.18,6.36,0.3
		c0.43,0.02,0.65,0.25,0.65,0.69c0,0.29,0,0.44,0,0.73c0,0.44-0.22,0.65-0.65,0.63c-0.83-0.04-1.24-0.06-2.07-0.1
		c-0.01,2.62-0.02,3.93-0.04,6.55c0,0.44-0.23,0.65-0.68,0.63C85.13,159.8,84.94,159.79,84.54,159.77z"/>
	<path class="st1" d="M91.49,160.16c-0.39-0.04-0.59-0.05-0.98-0.09c-0.35-0.03-0.55-0.34-0.41-0.66c1.4-3.11,2.09-4.67,3.4-7.78
		c0.19-0.46,0.41-0.58,0.9-0.54c0.37,0.03,0.56,0.05,0.93,0.09c0.5,0.05,0.7,0.21,0.88,0.7c1.19,3.34,1.8,5.01,3.05,8.35
		c0.13,0.34-0.09,0.61-0.44,0.58c-0.45-0.04-0.67-0.06-1.12-0.1c-0.51-0.05-0.73-0.21-0.9-0.7c-0.17-0.48-0.25-0.72-0.41-1.2
		c-1.41-0.13-2.11-0.19-3.52-0.32c-0.19,0.45-0.28,0.67-0.47,1.12C92.22,160.08,92,160.2,91.49,160.16z M95.77,156.96
		c-0.42-1.23-0.62-1.85-1.03-3.08c-0.46,1.15-0.69,1.73-1.16,2.88C94.46,156.84,94.9,156.88,95.77,156.96z"/>
	<path class="st1" d="M52.45,177.46c-0.37,0.04-0.55,0.06-0.92,0.09c-0.53,0.05-0.76-0.07-0.97-0.52c-1.42-3.09-2.12-4.63-3.45-7.72
		c-0.14-0.32,0.07-0.63,0.42-0.66c0.45-0.05,0.68-0.07,1.13-0.12c0.52-0.05,0.74,0.07,0.92,0.53c0.93,2.2,1.41,3.29,2.38,5.49
		c0.8-2.37,1.2-3.56,1.97-5.94c0.16-0.49,0.37-0.66,0.88-0.71c0.39-0.04,0.59-0.06,0.99-0.1c0.35-0.04,0.58,0.23,0.46,0.57
		c-1.13,3.35-1.71,5.03-2.89,8.38C53.19,177.24,52.98,177.41,52.45,177.46z"/>
	<path class="st1" d="M60.57,176.75c-0.46,0.03-0.7-0.18-0.71-0.62c-0.06-3.17-0.09-4.76-0.14-7.94c-0.01-0.44,0.22-0.68,0.66-0.7
		c0.39-0.02,0.59-0.04,0.98-0.06c0.45-0.03,0.68,0.18,0.69,0.62c0.07,3.18,0.11,4.76,0.2,7.94c0.01,0.44-0.22,0.68-0.68,0.7
		C61.18,176.71,60.98,176.72,60.57,176.75z"/>
	<path class="st1" d="M67.94,176.39c-0.4,0.01-0.6,0.01-1,0.02c-0.46,0.01-0.69-0.21-0.69-0.65c0.01-3.18,0.01-4.77,0.03-7.95
		c0-0.44,0.23-0.67,0.68-0.68c1.25-0.03,1.87-0.05,3.12-0.08c2.03-0.05,3.34,1.08,3.38,2.8c0.02,1.1-0.55,1.97-1.55,2.45
		c0.75,1.34,1.14,2.01,1.91,3.34c0.16,0.28-0.03,0.58-0.36,0.59c-0.49,0.01-0.73,0.02-1.22,0.03c-0.56,0.01-0.75-0.1-1.01-0.57
		c-0.62-1.15-0.93-1.72-1.53-2.86c-0.43,0.01-0.64,0.02-1.07,0.03c0.01,1.13,0.01,1.7,0.01,2.84
		C68.63,176.15,68.4,176.38,67.94,176.39z M70.03,168.94c-0.57,0.01-0.86,0.02-1.43,0.04c0,0.84,0.01,1.26,0.01,2.09
		c0.58-0.01,0.87-0.02,1.44-0.04c0.6-0.01,1.03-0.45,1.02-1.06C71.07,169.34,70.63,168.92,70.03,168.94z"/>
	<path class="st1" d="M79.2,176.31c-0.46-0.01-0.69-0.24-0.69-0.67c0.02-2.62,0.03-3.93,0.05-6.56c-0.86-0.02-1.28-0.02-2.14-0.04
		c-0.45-0.01-0.67-0.24-0.66-0.67c0.01-0.29,0.01-0.44,0.01-0.73c0.01-0.44,0.24-0.66,0.68-0.65c2.63,0.05,3.94,0.07,6.57,0.12
		c0.44,0.01,0.68,0.24,0.68,0.67c0,0.29,0,0.44,0.01,0.73c0,0.44-0.22,0.66-0.67,0.65c-0.86-0.02-1.28-0.02-2.14-0.04
		c0,2.62,0,3.93,0,6.56c0,0.44-0.24,0.66-0.69,0.65C79.8,176.32,79.6,176.32,79.2,176.31z"/>
	<path class="st1" d="M90.83,176.84c-0.37-0.02-0.55-0.03-0.92-0.06c-0.53-0.03-0.75-0.19-0.93-0.68c-1.23-3.31-1.83-4.97-3-8.28
		c-0.12-0.34,0.1-0.62,0.45-0.59c0.45,0.03,0.67,0.04,1.12,0.07c0.51,0.03,0.72,0.19,0.89,0.68c0.81,2.35,1.23,3.52,2.07,5.88
		c0.93-2.24,1.38-3.36,2.27-5.6c0.18-0.46,0.4-0.6,0.91-0.56c0.39,0.03,0.59,0.04,0.99,0.06c0.35,0.02,0.57,0.33,0.43,0.65
		c-1.29,3.15-1.95,4.72-3.32,7.87C91.59,176.74,91.36,176.87,90.83,176.84z"/>
	<g>
		<path class="st1" d="M104.96,159.94c0.57,0.06,0.98-0.18,1-0.59c0.01-0.32-0.17-0.56-0.55-0.84c-0.36-0.27-1.41-1.01-1.77-1.28
			c-0.95-0.69-1.44-1.56-1.39-2.55c0.08-1.54,1.41-2.61,3.16-2.43c0.84,0.09,1.7,0.44,2.34,1.03c0.27,0.25,0.25,0.61-0.01,0.9
			c-0.08,0.09-0.33,0.37-0.41,0.46c-0.28,0.33-0.59,0.31-0.93,0.04c-0.39-0.3-0.75-0.47-1.08-0.51c-0.53-0.05-0.85,0.22-0.87,0.59
			c-0.02,0.34,0.13,0.56,0.55,0.85c0.36,0.27,1.41,1.01,1.77,1.28c0.97,0.71,1.45,1.59,1.41,2.52c-0.08,1.7-1.48,2.63-3.31,2.45
			c-1.26-0.13-2.23-0.67-2.9-1.36c-0.33-0.34-0.33-0.65-0.01-0.97c0.09-0.09,0.37-0.37,0.47-0.46c0.3-0.3,0.59-0.27,0.92,0.03
			C103.95,159.64,104.45,159.89,104.96,159.94z"/>
		<path class="st1" d="M100.24,175.85c0.57,0.05,0.97-0.19,0.99-0.6c0.02-0.32-0.17-0.56-0.54-0.83c-0.37-0.26-1.37-1-1.74-1.26
			c-0.94-0.68-1.42-1.55-1.36-2.54c0.09-1.54,1.41-2.63,3.15-2.47c0.83,0.08,1.68,0.42,2.31,1.01c0.26,0.25,0.25,0.61-0.02,0.9
			c-0.08,0.09-0.32,0.37-0.41,0.47c-0.28,0.33-0.58,0.32-0.92,0.05c-0.38-0.3-0.74-0.47-1.07-0.5c-0.52-0.05-0.84,0.23-0.86,0.6
			c-0.02,0.34,0.13,0.56,0.53,0.84c0.37,0.26,1.37,1,1.74,1.26c0.96,0.7,1.43,1.58,1.38,2.51c-0.09,1.7-1.48,2.65-3.29,2.48
			c-1.25-0.11-2.2-0.65-2.86-1.34c-0.33-0.33-0.32-0.65-0.01-0.97c0.1-0.09,0.37-0.37,0.47-0.46c0.3-0.3,0.59-0.28,0.91,0.02
			C99.24,175.56,99.73,175.8,100.24,175.85z"/>
	</g>
</g>
<path class="st0" d="M76.69,183.38h-5.3c-0.68,25.35-9.95,34.03-27.8,40.82v4.55h60.91v-4.55
	C86.63,217.41,77.37,208.73,76.69,183.38z"/>
</svg>
