<svg id="图层_1" data-name="图层 1" xmlns="http://www.w3.org/2000/svg" viewBox="0 0 617.72 623.62"><defs><style>.cls-1{fill:#bcbec0;}.cls-2{fill:#aa182c;}.cls-3{fill:#fff;}.cls-4{fill:#231f20;}</style></defs><path class="cls-1" d="M340.57,14.72c-88.86,0-161.15,72.28-161.15,161.14S251.71,337,340.57,337,501.7,264.71,501.7,175.86,429.42,14.72,340.57,14.72" transform="translate(-14.66 -14.72)"/><path class="cls-2" d="M419.17,149.43c0-4.82-.3-9.59-.74-14.3-1.17,1.14-5,4.13-12.42,4.13H361.84c-18.46,0-21.72,6.43-21.72,6.43s-3.26-6.43-21.71-6.43H274.24c-7.47,0-11.25-3-12.42-4.13-.44,4.71-.74,9.48-.74,14.3a154.75,154.75,0,0,0,4,35h150a154.19,154.19,0,0,0,4.05-35" transform="translate(-14.66 -14.72)"/><path class="cls-2" d="M340.12,284.24a155.72,155.72,0,0,0,74.19-96.36H266a155.62,155.62,0,0,0,74.17,96.36" transform="translate(-14.66 -14.72)"/><path class="cls-2" d="M340,62.59A113.4,113.4,0,1,0,453.39,176,113.54,113.54,0,0,0,340,62.59m.57-40.19A153.47,153.47,0,1,1,187.1,175.86,153.46,153.46,0,0,1,340.57,22.4" transform="translate(-14.66 -14.72)"/><path class="cls-3" d="M271.37,62.08c2.07,3.71,5.24,5.34,8.09,3.76s3-5.26,1-8.92c-1.91-3.41-5.11-5.42-8.06-3.79s-3,5.28-1,8.95m13.49-7.8c3.45,6.21,1.8,12-3.74,15.06s-11.19.72-14.2-4.68c-3.14-5.63-1.85-11.88,3.69-15,5.77-3.21,11.33-.65,14.25,4.58" transform="translate(-14.66 -14.72)"/><path class="cls-3" d="M379.48,59a14.3,14.3,0,0,1-5.55-.47c-7.21-1.86-9.75-7.33-8.21-13.26,1.83-7.12,7.91-9.74,14.21-8.11a12.06,12.06,0,0,1,4.9,2.25l-1.94,3.45A10.32,10.32,0,0,0,379.11,41c-3.69-1-7.18.55-8.38,5.19-1.08,4.17.72,7.44,4.9,8.5a11.34,11.34,0,0,0,4.12.36Z" transform="translate(-14.66 -14.72)"/><path class="cls-3" d="M442.42,106.59a14.63,14.63,0,0,1-4.13-3.75C433.7,97,435,91.09,439.83,87.3c5.78-4.53,12.21-2.93,16.24,2.21a12.21,12.21,0,0,1,2.51,4.75l-3.64,1.57a10.59,10.59,0,0,0-1.9-3.71c-2.37-3-6.06-3.93-9.83-1-3.39,2.65-3.95,6.35-1.29,9.74a11.58,11.58,0,0,0,3.08,2.78Z" transform="translate(-14.66 -14.72)"/><path class="cls-3" d="M254.56,73.34l-4-4.94A8.91,8.91,0,0,1,252,67c1.92-1.56,3.73-1.5,5,0s.95,3.71-1.06,5.36a8.59,8.59,0,0,1-1.35.91m2.36,2.91a9.29,9.29,0,0,0,1.37-1,10.17,10.17,0,0,0,4-6.18,6.74,6.74,0,0,0-1.68-5.22,6.19,6.19,0,0,0-4.93-2.41c-1.85,0-3.87.91-6.2,2.79a39.7,39.7,0,0,0-4.84,4.5L258,85.36c1.19-1.09,2.42-2.14,3.65-3.18Z" transform="translate(-14.66 -14.72)"/><path class="cls-3" d="M306.61,58.18l-1.45-3.92-8.06,2.86-6-16.7c-1.53.55-3,1.17-4.51,1.76l7.29,20.41a121.7,121.7,0,0,1,12.68-4.41" transform="translate(-14.66 -14.72)"/><path class="cls-3" d="M313,56.53q2.35-.54,4.74-1l-1.83-8.67,4.19-13.68c-1.74.24-3.45.54-5.15.85l-1.08,5.72c-.31,1.63-.56,3-.75,4.36l-.07,0c-.79-1.27-1.49-2.31-2.47-3.69l-3.41-4.78q-2.58.6-5.11,1.3l9.12,11Z" transform="translate(-14.66 -14.72)"/><path class="cls-3" d="M409.06,74.29l3.73-5.17c2.07-2.85,3.81-5.34,5.38-7.75l.1.08a72.53,72.53,0,0,0-1.46,8.34l-1.19,9.3c1.38,1.07,2.72,2.15,4,3.28l12.8-17.56c-1.14-.94-2.32-1.85-3.48-2.75l-3.83,5.18a88.82,88.82,0,0,0-5,7.51l0,0a69,69,0,0,0,1.51-8l1-9.33c-1.5-1-3-2-4.54-3L405.28,71.88c1.28.78,2.54,1.57,3.78,2.41" transform="translate(-14.66 -14.72)"/><path class="cls-3" d="M427.91,90,443,74.48c-1.14-1.15-2.31-2.27-3.49-3.37l-15.09,15.5c1.17,1.12,2.34,2.25,3.48,3.4" transform="translate(-14.66 -14.72)"/><path class="cls-3" d="M359.41,54.82h0l.37-4s-5-.65-8.81-1l.48-5c2.07.2,5.27.51,7.91.87l.34-4c-2.79-.37-5.73-.7-7.87-.9l.4-4.31s4.6.4,8.38.91l.35-4.18q-6.63-1-13.21-1.31l-2,21.61a121.49,121.49,0,0,1,13.59,1.31" transform="translate(-14.66 -14.72)"/><path class="cls-3" d="M324.64,32.65l.22,4.38c2-.21,4.27-.4,5.81-.53l.93,17.25c1.61-.13,3.23-.22,4.83-.28l-.92-17.28s2.64-.1,5.86-.08l-.21-4.37a142.66,142.66,0,0,0-16.52.91" transform="translate(-14.66 -14.72)"/><path class="cls-3" d="M405.07,47l-3.63,7.84c-2.91-1.45-5.47-2.63-7.26-3.42l3.62-7.82c-1.49-.65-3-1.25-4.52-1.86l-9.16,19.67c1.52.57,3,1.18,4.52,1.81l3.85-8.12c2.89,1.25,5.44,2.48,7.27,3.39l-3.85,8.15c1.45.73,2.88,1.48,4.3,2.27l9.17-19.7c-1.42-.76-2.87-1.49-4.31-2.21" transform="translate(-14.66 -14.72)"/><path class="cls-4" d="M306.66,149.13c4.13-2.87,8.21-1.49,11.54-.4a10.16,10.16,0,0,0,8.54-1l4,3.4v27.18c-2.38,1.06-4.57,1.75-9.29.3a29.92,29.92,0,0,0-10.76-1.49v.93c0,.52-1.8.94-4,.94s-4-.42-4-.94v-.93a29.92,29.92,0,0,0-10.75,1.49c-4.71,1.45-6.91.76-9.29-.3V151.13l4-3.4a10.14,10.14,0,0,0,8.53,1c3.34-1.09,7.42-2.47,11.54.4" transform="translate(-14.66 -14.72)"/><path class="cls-1" d="M316.55,151.42a12.7,12.7,0,0,0,9.42-.32V174c-2.21.89-4,1-7.56-.22-4.08-1.4-8.48-1.68-10.54-.89V151.72c1.22-1,3.95-1.95,8.68-.3" transform="translate(-14.66 -14.72)"/><path class="cls-1" d="M296.53,151.41a13.18,13.18,0,0,1-9.7-.31V174c2.26.9,4.13,1,7.78-.23,4.2-1.44,8.73-1.73,10.85-.91V151.73c-1.26-1.08-4.07-2-8.93-.32" transform="translate(-14.66 -14.72)"/><path class="cls-4" d="M373.55,149.13c4.13-2.87,8.21-1.49,11.54-.4a10.14,10.14,0,0,0,8.53-1l4,3.4v27.18c-2.38,1.06-4.57,1.75-9.29.3a29.9,29.9,0,0,0-10.75-1.49v.93c0,.52-1.81.94-4,.94s-4-.42-4-.94v-.93a30,30,0,0,0-10.76,1.49c-4.72,1.45-6.91.76-9.29-.3V151.13l4-3.4a10.16,10.16,0,0,0,8.54,1c3.34-1.09,7.41-2.47,11.54.4" transform="translate(-14.66 -14.72)"/><path class="cls-1" d="M383.68,151.41a13.19,13.19,0,0,0,9.7-.31V174c-2.25.9-4.14,1-7.78-.23-4.2-1.44-8.72-1.73-10.85-.91V151.73c1.26-1.08,4.07-2,8.93-.32" transform="translate(-14.66 -14.72)"/><path class="cls-1" d="M363.67,151.42a12.7,12.7,0,0,1-9.42-.32V174c2.2.89,4,1,7.56-.22,4.08-1.4,8.47-1.68,10.53-.89V151.72c-1.21-1-3.94-1.95-8.67-.3" transform="translate(-14.66 -14.72)"/><path class="cls-3" d="M348.21,225a11.22,11.22,0,0,0,6.72-9l1.76-1.13v-1.09c-1.76-4.18-6.13-8.83-10-11.82-2.56-2-2.61-4.14-2.35-5.39l.87-.38c.86-.36,1.37-.63,2.14-.21s1,.16,1,.16c.61-.26.58-1.54-.05-2.84s-1.63-2.12-2.23-1.86c0,0-.36,0-.52.79s-.7,1-1.56,1.39l-.94.41a2.69,2.69,0,0,0-.3-.17c-2-.91-2.44.3-2.44.3-2-.9-2.38.61-2.38.61-2.16-.51-2.27.91-2.27.91-3,0-2.46,1.88-2.21,2.51L330,199.7l-1.55-3.31-6,2.59,4,8.48,2.61,1.07,2.52-1.08.84-2.57-1.22-2.59,2.72-1.17a3,3,0,0,0,2.82,1.91c2.72.17,3.48-.46,5.46,4.15a13.75,13.75,0,0,0,5,6.33,5.42,5.42,0,0,0-6,3.31c-7.51-.34-9.17,5.23-9.51,8.18H321.33c.62,1.22,1.27,2.4,1.94,3.53h33.84c.67-1.13,1.32-2.31,1.95-3.53Z" transform="translate(-14.66 -14.72)"/><path class="cls-3" d="M467.27,161.65a12,12,0,0,0-1,5.47c.12,2.23,1.12,3.35,2.53,3.28s2-1.16,2.77-3.79c1.06-3.65,2.89-6.14,6-6.33,3.66-.23,6.63,2.7,6.93,7.74a12.4,12.4,0,0,1-.75,5.55l-3.95-.85a10,10,0,0,0,.74-4.51c-.13-2.11-1.18-3.07-2.26-3-1.38.09-1.9,1.32-2.79,4.18-1.17,3.88-3,5.75-6.07,5.94-3.6.23-6.84-2.33-7.19-8.23a14,14,0,0,1,1-6.17Z" transform="translate(-14.66 -14.72)"/><path class="cls-3" d="M447.18,235.13c-2.73,4.89-1.62,9.38,4.18,12.62l10.56,5.87c.87-1.37,1.73-2.73,2.57-4.13l-11-6.12c-3.35-1.87-4.22-4-3-6.21s3.55-2.48,6.82-.65l11,6.15c.76-1.44,1.52-2.88,2.21-4.35L460,232.44c-6-3.34-10.16-2.06-12.82,2.69" transform="translate(-14.66 -14.72)"/><path class="cls-3" d="M454.87,131.84l20.05-8.2c-.58-1.52-1.18-3-1.82-4.51l-20.05,8.21c.65,1.48,1.24,3,1.82,4.5" transform="translate(-14.66 -14.72)"/><path class="cls-3" d="M458.35,142.27l6.25-1.55c3.41-.84,6.34-1.62,9.1-2.46l0,.11a75,75,0,0,0-6.48,5.46l-6.89,6.42c.36,1.68.67,3.37,1,5.09l21.07-5.19c-.28-1.47-.54-3-.86-4.41l-6.28,1.51c-3.17.79-6,1.57-8.66,2.53v-.06a65.79,65.79,0,0,0,6.32-5.19l6.79-6.42c-.49-1.79-1-3.56-1.53-5.32l-21.1,5.2c.47,1.41.89,2.84,1.29,4.28" transform="translate(-14.66 -14.72)"/><path class="cls-3" d="M460.72,199.69c-.32,1.59-.67,3.17-1,4.74L480.84,209c.36-1.58.75-3.16,1.06-4.75Z" transform="translate(-14.66 -14.72)"/><path class="cls-3" d="M457.72,259.78l-3.4-2.77c-1.15,1.6-2.55,3.45-3.5,4.68l-13.44-10.86c-1,1.29-2,2.54-3,3.78l13.47,10.88s-1.69,2-3.86,4.41l3.39,2.77a142.94,142.94,0,0,0,10.37-12.89" transform="translate(-14.66 -14.72)"/><path class="cls-3" d="M417.39,271.26s0,0,0,0l2.73,3s3.86-3.26,6.66-5.83l3.38,3.72c-1.52,1.41-3.92,3.57-5.95,5.27l2.7,2.93c2.14-1.81,4.38-3.77,6-5.23l2.92,3.21s-3.4,3.13-6.33,5.58l2.87,3.08c3.43-2.83,6.73-5.8,9.84-8.89l-14.64-16a123.36,123.36,0,0,1-10.12,9.17" transform="translate(-14.66 -14.72)"/><path class="cls-3" d="M479.08,215.77,475,214.31c-.57,1.89-1.26,4.1-1.74,5.58l-16.29-5.74c-.51,1.55-1,3.08-1.59,4.59l16.31,5.74s-.88,2.48-2.15,5.44l4.12,1.48a142.43,142.43,0,0,0,5.47-15.63" transform="translate(-14.66 -14.72)"/><path class="cls-3" d="M484.55,180.9l-4.36-.4c-.07,2-.21,4.28-.31,5.83l-17.2-1.53c-.11,1.61-.24,3.24-.4,4.84l17.23,1.53s-.28,2.62-.76,5.8l4.36.42a139.85,139.85,0,0,0,1.44-16.49" transform="translate(-14.66 -14.72)"/><path class="cls-3" d="M218.82,194.58a14.15,14.15,0,0,1,2.09,5.17c1.63,7.26-2.1,12-8.09,13.37-7.18,1.58-12.28-2.65-13.7-9a12.32,12.32,0,0,1-.22-5.38l4,.17A10.48,10.48,0,0,0,203,203c.85,3.75,3.78,6.18,8.46,5.14,4.21-.94,6.31-4,5.37-8.23a11.9,11.9,0,0,0-1.57-3.86Z" transform="translate(-14.66 -14.72)"/><path class="cls-3" d="M211.57,230.91a9.29,9.29,0,0,1-1-2c-.84-2.08-.38-3.7,1.42-4.43s3.41.17,4.31,2.42l.72,1.77Zm8.73-3.53-.54-1.34c-.73-1.87-.42-3,1.87-4.58a43.79,43.79,0,0,0,4-3.12c-.58-1.59-1.14-3.21-1.64-4.83-1.9,1.58-3.63,2.81-5.17,4s-2.61,2.53-2.61,4.16l-.08,0a5.73,5.73,0,0,0-6.33-1.55,5.46,5.46,0,0,0-3.44,3.57c-.55,1.88-.16,4.14,1,7.09a42.12,42.12,0,0,0,2.85,5.84l19.74-8c-.7-1.45-1.35-2.92-2-4.4Z" transform="translate(-14.66 -14.72)"/><path class="cls-3" d="M218.08,175.86v-.05l-4,.26s.13,5.06.35,8.85l-5,.29c-.14-2.07-.31-5.28-.35-7.94l-4,.27c.06,2.8.18,5.76.31,7.92l-4.32.25s-.3-4.61-.37-8.42l-4.2.29c.06,4.47.28,8.89.73,13.25l21.64-1.34a125.21,125.21,0,0,1-.76-13.63" transform="translate(-14.66 -14.72)"/><path class="cls-3" d="M231.28,252c3.57-2.29,5-5.57,3.25-8.3s-5.44-2.68-9-.41c-3.29,2.11-5.1,5.44-3.29,8.26s5.47,2.72,9,.45m-8.62-13c6-3.83,11.84-2.55,15.26,2.78s1.41,11.13-3.78,14.47c-5.44,3.48-11.74,2.6-15.17-2.73-3.57-5.57-1.35-11.29,3.69-14.52" transform="translate(-14.66 -14.72)"/><path class="cls-3" d="M213.23,169.78a12.76,12.76,0,0,0,1.86-5.24c.21-2.23-.6-3.49-2-3.63s-2.21.82-3.34,3.3c-1.63,3.44-3.81,5.6-6.93,5.3-3.66-.36-6.13-3.71-5.64-8.73a12.63,12.63,0,0,1,1.62-5.36l3.77,1.45a10.2,10.2,0,0,0-1.45,4.36c-.21,2.1.69,3.21,1.76,3.31,1.37.13,2.09-1,3.41-3.68,1.76-3.64,3.9-5.2,6.93-4.9,3.59.35,6.37,3.37,5.8,9.25a13.91,13.91,0,0,1-1.93,5.94Z" transform="translate(-14.66 -14.72)"/><path class="cls-3" d="M227.58,103.23l-1,1.6-5-3.23a11.82,11.82,0,0,1,1.08-1.93c1.22-1.88,2.81-2.44,4.44-1.37s1.82,2.89.49,4.93m1.91,3.52.78-1.2c1.13-1.68,2.22-2.06,4.83-1.1A43.44,43.44,0,0,0,240,106c1-1.39,2-2.78,3-4.15-2-.51-4.16-1.27-6.23-1.94s-3.59-.68-4.92.24l-.08,0A5.69,5.69,0,0,0,229.43,94a5.49,5.49,0,0,0-4.91-.8c-1.85.62-3.48,2.24-5.22,4.91a41.34,41.34,0,0,0-3.15,5.69L234,115.42q1.19-2.1,2.45-4.15Z" transform="translate(-14.66 -14.72)"/><path class="cls-3" d="M255.91,264.34l-7.95,5c-1.91,1.16-3.6,2.36-5.61,3.79l0-.05c1.57-1.91,2.75-3.58,4-5.4l5.24-7.72c-1.21-1.29-2.4-2.58-3.53-3.92l-19,11.08c1,1.27,2.1,2.49,3.18,3.71l7.45-4.93c2.17-1.5,4.28-3,6.22-4.4l0,.05c-1.48,1.92-2.86,3.79-4.33,5.9l-5.38,7.77q1.72,1.81,3.53,3.6l7.79-5c2.28-1.5,4.49-3,6.39-4.35l.05.05c-1.3,1.78-3,4.05-4.46,6.21l-5.15,7.41q1.88,1.67,3.79,3.28l11.7-18.52c-1.34-1.17-2.66-2.37-3.94-3.6" transform="translate(-14.66 -14.72)"/><path class="cls-3" d="M231.51,120.25h0l-3.7-1.65s-2.21,4.54-3.76,8l-4.59-2c.85-1.91,2.17-4.85,3.35-7.23l-3.64-1.59c-1.26,2.51-2.51,5.2-3.38,7.18l-3.95-1.77s1.84-4.23,3.54-7.64l-3.86-1.68c-2,4-3.85,8-5.46,12.09l19.84,8.79a123.89,123.89,0,0,1,5.59-12.46" transform="translate(-14.66 -14.72)"/><path class="cls-3" d="M199.26,147.51l4.23,1.11c.4-1.93.92-4.18,1.29-5.69l16.69,4.38c.38-1.57.77-3.15,1.21-4.7l-16.74-4.39s.71-2.54,1.71-5.59l-4.23-1.14a141.07,141.07,0,0,0-4.16,16" transform="translate(-14.66 -14.72)"/><polygon class="cls-3" points="296.01 285.21 295.95 285.2 291.66 286.15 291.7 282.42 297.67 281.16 301.55 282.05 296.93 302.31 292.35 301.25 296.01 285.21"/><path class="cls-3" d="M326.58,303.73c-.12,1.4,1,2.39,2.65,3.06a2.88,2.88,0,0,0,2.34-2.43,2.38,2.38,0,0,0-2.29-2.8,2.31,2.31,0,0,0-2.7,2.17M331.13,314c.16-1.82-1.12-3-2.95-3.7a3.13,3.13,0,0,0-2.78,2.86,2.84,2.84,0,0,0,2.67,3.16,2.62,2.62,0,0,0,3.06-2.32m-6.55-5.72a5.11,5.11,0,0,1-2.59-4.82c.3-3.5,3.66-5.55,7.8-5.18,4.84.43,6.6,3.4,6.38,5.92a5,5,0,0,1-3.42,4.28v.1a5.48,5.48,0,0,1,3.36,5.46c-.33,3.76-3.71,6-8.52,5.61-5.25-.46-7.41-3.64-7.16-6.45a5.52,5.52,0,0,1,4.15-4.86Z" transform="translate(-14.66 -14.72)"/><path class="cls-3" d="M353.05,312.47c-.12-1.92-1.25-3.49-3.33-3.36a3.12,3.12,0,0,0-2.72,2,2.74,2.74,0,0,0-.15,1.27c.25,2.19,1.44,4.1,3.66,3.95,1.7-.11,2.68-1.75,2.54-3.85m2-10.57a14.85,14.85,0,0,0-1.88.18c-4.27.64-6.05,3-6.43,5.41l.09,0a6,6,0,0,1,4.29-1.92c3.48-.22,6.58,2,6.87,6.35a7.43,7.43,0,0,1-7.13,8c-5.55.37-8.53-3.57-8.86-8.51a11.54,11.54,0,0,1,10.85-13.06,11,11,0,0,1,1.95-.16Z" transform="translate(-14.66 -14.72)"/><path class="cls-3" d="M374.35,298.76l-7.87,1.73.25,3.22a11.14,11.14,0,0,1,1.3-.35,9.59,9.59,0,0,1,5.67.29,5.91,5.91,0,0,1,3.58,4.54c.84,3.77-1.68,7.84-7.14,9a13.31,13.31,0,0,1-5.9.09l.09-3.76a11.24,11.24,0,0,0,4.77,0c2-.43,3.86-1.83,3.38-4s-2.4-3-6.45-2.11a14.37,14.37,0,0,0-2.67.79l-1.05-10.93,11.18-2.47Z" transform="translate(-14.66 -14.72)"/><path class="cls-3" d="M282,293.77a4.26,4.26,0,1,1-4.26-4.24,4.25,4.25,0,0,1,4.26,4.24" transform="translate(-14.66 -14.72)"/><path class="cls-3" d="M398,293.77a4.25,4.25,0,1,0,4.26-4.24,4.25,4.25,0,0,0-4.26,4.24" transform="translate(-14.66 -14.72)"/><path class="cls-4" d="M287.81,105.75l-3.88-9c-12,2.54-18,12.54-18,12.54s7.57,2.14,21.91-3.5" transform="translate(-14.66 -14.72)"/><path class="cls-3" d="M283.93,96.72H264.49l4.88,8.26a28.82,28.82,0,0,1,14.56-8.26" transform="translate(-14.66 -14.72)"/><path class="cls-3" d="M411.76,105l4.88-8.26H397.2A28.77,28.77,0,0,1,411.76,105" transform="translate(-14.66 -14.72)"/><path class="cls-4" d="M314.57,107.62c0,2.44,6.42,4.52,15.63,5.45V97.76c0,5-15.63,3.88-15.63,9.86" transform="translate(-14.66 -14.72)"/><path class="cls-3" d="M309.93,232.49a9.15,9.15,0,0,0-.39-6.77,7.28,7.28,0,0,0-3.83,3.66c.82,2,1.69,3.86,2.6,5.62a7.05,7.05,0,0,0,1.62-2.51" transform="translate(-14.66 -14.72)"/><path class="cls-3" d="M315.82,241.26a10.1,10.1,0,0,0-1.47-7.24,8.29,8.29,0,0,0-3.67,5.27c1.19,2,2.37,3.89,3.49,5.53a8.57,8.57,0,0,0,1.65-3.56" transform="translate(-14.66 -14.72)"/><path class="cls-3" d="M305.68,221.78a8.92,8.92,0,0,0,.46-6.71,7.25,7.25,0,0,0-4.23,3c.5,2.09,1.11,4.08,1.78,6a7,7,0,0,0,2-2.3" transform="translate(-14.66 -14.72)"/><path class="cls-3" d="M303.16,210.37a8.59,8.59,0,0,0,1.36-6.49,7.27,7.27,0,0,0-4.22,1.85,54.4,54.4,0,0,0,.54,6.58,7,7,0,0,0,2.32-1.94" transform="translate(-14.66 -14.72)"/><path class="cls-3" d="M317.72,251.68a71.05,71.05,0,0,1-19.49-48.89l.29-.29v0a8.61,8.61,0,0,0,2.59-4.85,10.41,10.41,0,0,0-1.69-7.5,8.69,8.69,0,0,0-3.83,5.93,10.39,10.39,0,0,0,1.23,6.65,47.12,47.12,0,0,0-.55,5.23,9,9,0,0,0-.71-1.67,9.77,9.77,0,0,0-5.54-4.53,9.86,9.86,0,0,0,1.09,7.06,13.88,13.88,0,0,0,5.26,4.64,50.17,50.17,0,0,0,.67,5.49c-.2-.29-.37-.59-.59-.86a9.41,9.41,0,0,0-6.18-3.35,10.07,10.07,0,0,0,2.39,6.82,9.4,9.4,0,0,0,5.84,3.3c.59,1.92,1.23,3.81,2,5.66a10.45,10.45,0,0,0-.82-.81,8.81,8.81,0,0,0-6.56-2.05,10.23,10.23,0,0,0,3.58,6.34,9,9,0,0,0,6.38,2q1.29,2.52,2.74,4.91c-.35-.25-.69-.5-1.06-.72a8.92,8.92,0,0,0-7.1-.67,10.63,10.63,0,0,0,4.94,5.91,9.21,9.21,0,0,0,4.9,1.11,8.94,8.94,0,0,0,1.8-.33,108.07,108.07,0,0,0,8.27,10.27,19.37,19.37,0,0,1,.17-4.82" transform="translate(-14.66 -14.72)"/><path class="cls-3" d="M370.3,232.49a9.21,9.21,0,0,1,.4-6.77,7.28,7.28,0,0,1,3.83,3.66c-.83,2-1.7,3.86-2.61,5.62a7.48,7.48,0,0,1-1.62-2.51" transform="translate(-14.66 -14.72)"/><path class="cls-3" d="M364.42,241.26a10.1,10.1,0,0,1,1.47-7.24,8.24,8.24,0,0,1,3.66,5.27c-1.18,2-2.36,3.89-3.47,5.53a8.23,8.23,0,0,1-1.66-3.56" transform="translate(-14.66 -14.72)"/><path class="cls-3" d="M374.56,221.78a8.87,8.87,0,0,1-.45-6.71,7.25,7.25,0,0,1,4.22,3c-.49,2.09-1.12,4.08-1.78,6a7,7,0,0,1-2-2.3" transform="translate(-14.66 -14.72)"/><path class="cls-3" d="M377.09,210.37a8.59,8.59,0,0,1-1.37-6.49,7.29,7.29,0,0,1,4.22,1.85,56.5,56.5,0,0,1-.54,6.58,6.74,6.74,0,0,1-2.31-1.94" transform="translate(-14.66 -14.72)"/><path class="cls-3" d="M362.51,251.68A71.07,71.07,0,0,0,382,202.79l-.29-.29v0a8.61,8.61,0,0,1-2.59-4.85,10.46,10.46,0,0,1,1.68-7.5,8.63,8.63,0,0,1,3.84,5.93,10.39,10.39,0,0,1-1.23,6.65,44.81,44.81,0,0,1,.54,5.23,9.58,9.58,0,0,1,6.25-6.2,9.81,9.81,0,0,1-1.09,7.06,13.78,13.78,0,0,1-5.25,4.64,50.17,50.17,0,0,1-.67,5.49,8.29,8.29,0,0,1,.6-.86,9.34,9.34,0,0,1,6.16-3.35,10,10,0,0,1-2.37,6.82,9.5,9.5,0,0,1-5.85,3.3c-.58,1.92-1.23,3.81-2,5.66a9,9,0,0,1,.82-.81,8.8,8.8,0,0,1,6.56-2.05,10.15,10.15,0,0,1-3.59,6.34,8.91,8.91,0,0,1-6.36,2c-.87,1.68-1.78,3.32-2.75,4.91.34-.25.69-.5,1.06-.72a8.94,8.94,0,0,1,7.11-.67,10.73,10.73,0,0,1-4.95,5.91,9.21,9.21,0,0,1-4.9,1.11,8.94,8.94,0,0,1-1.8-.33,109.65,109.65,0,0,1-8.27,10.27,19.32,19.32,0,0,0-.18-4.82" transform="translate(-14.66 -14.72)"/><path class="cls-4" d="M357.44,237.7a12.09,12.09,0,0,0-17.25-.81,12.37,12.37,0,0,0-17.25.8,13.91,13.91,0,0,0-3.55,10.61c0,.23,0,.35,0,.35,0,.18.05.38.1.61a16.63,16.63,0,0,0,.45,2c.08.25.14.48.22.7a30.71,30.71,0,0,0,2.91,6.17c3.24,5.21,8.33,10.22,15.14,14.86l1.94,1.32,1.93-1.32a67.49,67.49,0,0,0,7.6-6c4.74-4.77,8.27-8.65,10.48-15.11l.11-.37a18.22,18.22,0,0,0,.71-3.51,14,14,0,0,0-3.58-10.36" transform="translate(-14.66 -14.72)"/><path class="cls-1" d="M323.4,248.35a12.56,12.56,0,0,0,.3,1.38c.07.25.13.49.22.73a27.59,27.59,0,0,0,2.5,5.33c2.37,3.8,6.53,8.49,13.77,13.44a60.31,60.31,0,0,0,6.89-5.41c4.08-4.1,7.42-7.62,9.4-13.41a1.55,1.55,0,0,0,.07-.23,14.45,14.45,0,0,0,.55-2.69,10.2,10.2,0,0,0-2.6-7.59,8.44,8.44,0,0,0-12.63,0,9.78,9.78,0,0,0-1.68,2.64,9.54,9.54,0,0,0-1.68-2.64,8.45,8.45,0,0,0-12.64,0,10.28,10.28,0,0,0-2.57,7.75,2.45,2.45,0,0,0,.05.35c0,.11,0,.23,0,.35" transform="translate(-14.66 -14.72)"/><path class="cls-4" d="M393.33,105.75l3.87-9c12,2.54,18,12.54,18,12.54s-7.58,2.14-21.9-3.5" transform="translate(-14.66 -14.72)"/><path class="cls-4" d="M366.57,107.62c0,2.44-6.42,4.52-15.63,5.45V97.76c0,5,15.63,3.88,15.63,9.86" transform="translate(-14.66 -14.72)"/><path class="cls-3" d="M384.06,123.13a52.74,52.74,0,0,0,16.85,4.7l14.31-18.57s-10.88,3.12-31.33-7.91c-21.13-11.39-33-8.63-33-3.59s15.63,3.88,15.63,9.87c0,3.26-11.61,5.9-26,6s-26-2.69-26-6c0-6,15.64-4.84,15.64-9.87s-11.84-7.8-33,3.59c-20.45,11-31.33,7.91-31.33,7.91l14.3,18.57c4-.27,9.62-1.43,17-4.79a73.07,73.07,0,0,1,17.32-7V127.2c0,3.29,11.81,6,26.37,6s25.64-2.67,25.64-6V116.26A77.9,77.9,0,0,1,383.89,123" transform="translate(-14.66 -14.72)"/><polygon class="cls-4" points="268.91 97.31 268.91 107.39 273.75 106.35 273.75 104.69 271 105.28 271 96.87 268.91 97.31"/><polygon class="cls-4" points="274.98 95.91 274.98 105.98 279.68 104.4 279.68 102.69 277 103.59 277 100.86 279.37 100.07 279.37 98.45 277 99.24 277 96.92 279.5 96.08 279.5 94.38 274.98 95.91"/><polygon class="cls-4" points="284.96 91.84 284.96 95.89 282.94 96.84 282.94 92.8 281.01 93.72 281.01 103.8 282.94 102.88 282.94 98.66 284.96 97.7 284.96 101.93 286.9 101.01 286.9 90.92 284.96 91.84"/><path class="cls-4" d="M305.24,108.55l.36-.15a2.29,2.29,0,0,0,1.34-2.13c0-.87-.34-1.32-1.22-1-.18.09-.37.19-.48.26Zm-2-3.56a16.6,16.6,0,0,1,2.15-1.1,3.58,3.58,0,0,1,2.71-.39c.62.29.82.88.82,1.75a4.35,4.35,0,0,1-1.58,3.17v0c.7,0,1.05.48,1.24,1.49a11.85,11.85,0,0,0,.65,2.47l-2.06.86a9.42,9.42,0,0,1-.51-2.2c-.19-1.17-.51-1.39-1.15-1.13l-.3.14v4l-2,.83Z" transform="translate(-14.66 -14.72)"/><path class="cls-4" d="M369.75,101.22l2,.76v4.54h0c.17-.35.32-.74.49-1.11l1.37-2.71,2.22.85-2.33,3.5,2.35,6.58-2.19-.83-1.5-4.74-.45.65v3.34l-2-.77Z" transform="translate(-14.66 -14.72)"/><path class="cls-4" d="M378.58,104.83v6.55c0,1.47.43,2.12,1,2.36s1,0,1-1.48V105.7l1.95.9v6.19c0,2.59-1,3.56-2.9,2.68-2.09-1-2.91-2.78-2.91-5.31v-6.23Z" transform="translate(-14.66 -14.72)"/><path class="cls-4" d="M384.07,117.55V107.48l1.82.74,1.56,4.59c.32.9.8,2.41,1.09,3.39h0c-.07-1.09-.19-2.88-.19-4.75v-2.22l1.74.71V120l-1.82-.75-1.56-4.46c-.35-1-.8-2.46-1-3.46h0c.07,1,.14,2.62.14,4.66v2.26Z" transform="translate(-14.66 -14.72)"/><path class="cls-4" d="M391.41,118.41a5.5,5.5,0,0,0,1.75.86c1,.26,1.46-.09,1.46-.74s-.48-1.23-1.38-2a4.77,4.77,0,0,1-2-3.36c0-1.61,1.13-2.65,3.33-2.06a4.59,4.59,0,0,1,1.68.81l-.34,1.6a3.48,3.48,0,0,0-1.34-.7c-.87-.24-1.3.16-1.3.69s.31,1,1.45,2a4.48,4.48,0,0,1,1.92,3.41c0,1.83-1.43,2.66-3.5,2.11a6.52,6.52,0,0,1-2-1Z" transform="translate(-14.66 -14.72)"/><polygon class="cls-4" points="382.54 98.97 384.45 99.28 384.45 107.54 386.57 107.88 386.57 99.61 388.51 99.92 388.51 98.11 382.54 97.16 382.54 98.97"/><path class="cls-4" d="M330.23,118v6.52c0,1.47.52,2,1.15,2s1.17-.32,1.17-1.83v-6.53l2.38.19v6.18c0,2.57-1.2,3.88-3.53,3.7-2.55-.2-3.54-1.72-3.54-4.24v-6.19Z" transform="translate(-14.66 -14.72)"/><path class="cls-4" d="M337,128.47v-10h2.17l1.9,3.93c.38.78,1,2.08,1.3,2.94h0c-.07-1.06-.23-2.8-.23-4.64v-2.22h2.08v10H342l-1.87-3.82a25.54,25.54,0,0,1-1.24-3h0c.07,1,.16,2.56.16,4.59v2.24Z" transform="translate(-14.66 -14.72)"/><path class="cls-4" d="M348.73,126.7a2.81,2.81,0,0,0,.41,0c1.14-.08,2.14-1.08,2.14-3.85,0-2-.65-3.26-2.08-3.15a1.78,1.78,0,0,0-.47.08Zm-2.38-8.16a13.12,13.12,0,0,1,2.41-.38,5.2,5.2,0,0,1,3.39.63c1.05.71,1.59,2,1.59,3.94a5.37,5.37,0,0,1-1.7,4.36,6.14,6.14,0,0,1-3.71,1.26,19.7,19.7,0,0,1-2,0Z" transform="translate(-14.66 -14.72)"/><path class="cls-2" d="M631,421.12l1.38-.13V407H530.23v14l1.38.13c25.52,2.32,28.32,3.53,28.32,32.33V588.13c0,28.79-2.8,30-28.32,32.32l-1.38.12v14H632.38v-14l-1.38-.12c-25.61-2.33-28-3.38-28-32.32V453.45c0-29,2.36-30,28-32.33" transform="translate(-14.66 -14.72)"/><path class="cls-2" d="M432.3,527.56c-8.94,0-15.9-1.68-19.55-3.26V437.56c0-6.39.88-9.86,3-11.7,1.62-1.62,6.18-3.35,14.12-3.35,28,0,44.75,19.05,44.75,51,0,51.46-35.27,54.08-42.33,54.08m64.06-106.78C483,411.4,463.71,407,435.76,407H263.63V421c14.59.71,26.07,7.95,26.07,16.78a10.66,10.66,0,0,1-.25,2.33c-.37,2.27-.9,4.89-1.6,7.84-4.82,20.24-20.06,77.14-33.83,121L196.13,409.45H179.42L128.43,568,90.34,437.89s-5.55-15,23-16.93V407H14.66v13.89s23.43-.77,30.26,19.56l60.6,197.86H123.3L175.78,480.2,233,638.34h17.74c29.9-100.91,50.19-162.26,57.28-182,4.51-13.38,7.8-21.25,12.53-26.2a29.69,29.69,0,0,1,21.34-8.69c15.52,0,28.09,9.78,28.09,22.13V588.13c0,28.78-2.79,30-28.31,32.33l-1.38.12v14H445.9v-14l-1.41-.11c-29.06-2.35-31.74-3.4-31.74-32.33V543.88c2.55.49,5.09.91,7.63,1.21a163.93,163.93,0,0,0,30.05,0c34.37-4,71.1-25.19,71.1-72.65,0-22.13-8.47-39.52-25.17-51.66" transform="translate(-14.66 -14.72)"/></svg>