<?xml version="1.0" encoding="UTF-8"?>
<svg width="160px" height="65px" viewBox="0 0 160 65" version="1.1" xmlns="http://www.w3.org/2000/svg" xmlns:xlink="http://www.w3.org/1999/xlink">
    <!-- Generator: Sketch 43.2 (39069) - http://www.bohemiancoding.com/sketch -->
    <title>New Baker Logo</title>
    <desc>Created with Sketch.</desc>
    <defs>
        <polygon id="path-1" points="0 64.6015058 159.802173 64.6015058 159.802173 0.0950788291 0 0.0950788291"></polygon>
        <polygon id="path-3" points="63.2931374 64.6015058 0.000102236425 64.6015058 0.000102236425 0.0952090741 63.2931374 0.0952090741 63.2931374 64.6015058"></polygon>
    </defs>
    <g id="Symbols" stroke="none" stroke-width="1" fill="none" fill-rule="evenodd">
        <g id="GlobalNav" transform="translate(-252.000000, -25.000000)">
            <g id="New-Baker-Logo" transform="translate(252.000000, 25.000000)">
                <g id="Group-21" transform="translate(0.000000, 0.165411)">
                    <path d="M85.3349521,27.4550148 C86.8217252,27.4550148 87.7040256,26.6073805 87.7040256,25.2976371 C87.7040256,23.8336836 86.6706709,23.0886824 85.2846006,23.0886824 L81.353099,23.0886824 L81.353099,27.4550148 L85.3349521,27.4550148 Z M84.9822364,20.0063049 C86.2673482,20.0063049 87.1496486,19.3641972 87.1496486,18.1573473 C87.1496486,17.0012929 86.3179553,16.3336572 85.0072843,16.3336572 L81.353099,16.3336572 L81.353099,20.0063049 L84.9822364,20.0063049 Z M76.9428754,12.7375935 L85.6375719,12.7375935 C87.5274121,12.7375935 88.8633866,13.1999632 89.8461342,13.9962809 C90.8792332,14.8697037 91.4085623,16.0510256 91.4085623,17.5152396 C91.4085623,19.3641972 90.5014696,20.494463 88.8884345,21.1110427 L88.8884345,21.1878873 C90.8792332,21.804467 92.1142492,23.499475 92.1142492,25.6829017 C92.1142492,27.5321198 91.4589137,28.8679122 90.2745048,29.7926515 C89.1907987,30.6658138 87.7040256,31.102395 85.8389776,31.102395 L76.9428754,31.102395 L76.9428754,12.7375935 Z" id="Fill-1" fill="#1F2228"></path>
                    <path d="M100.807719,26.4021144 L100.807719,24.8352674 C100.27839,25.1176385 99.5223514,25.3231651 98.6906581,25.5286917 C97.1029265,25.9139563 96.4478466,26.2992209 96.4478466,27.3010652 C96.4478466,28.3539656 97.203885,28.7650187 98.2119361,28.7650187 C99.7490607,28.7650187 100.807719,27.8402794 100.807719,26.4021144 M92.4910415,27.4292263 C92.4910415,24.5526359 94.7341086,23.628157 97.4305942,23.2939484 C99.8500192,22.9860493 100.70676,22.7289458 100.70676,21.829995 C100.70676,20.9823607 100.177687,20.417358 98.9426709,20.417358 C97.6322556,20.417358 96.9771757,21.0081492 96.8511693,22.1126266 L93.070722,22.1126266 C93.146377,19.6468288 95.0364728,17.5920841 98.9173674,17.5920841 C100.85807,17.5920841 102.168486,17.9518207 103.101137,18.6707729 C104.210147,19.4928792 104.73922,20.7770946 104.73922,22.4210466 L104.73922,29.0476503 C104.73922,30.1005507 104.814875,30.6916023 105.192895,30.9226569 L105.192895,31.102395 L101.211042,31.102395 C101.00938,30.8197634 100.883374,30.3318657 100.782415,29.6384415 L100.732064,29.6384415 C99.950722,30.7426584 98.8419681,31.4363431 96.9015208,31.4363431 C94.3307859,31.4363431 92.4910415,30.0234456 92.4910415,27.4292263" id="Fill-3" fill="#1F2228"></path>
                    <polygon id="Fill-5" fill="#1F2228" points="106.225048 12.7375935 110.282556 12.7375935 110.282556 22.3952581 114.113099 17.9518207 118.85099 17.9518207 114.31476 22.8831558 119.380319 31.102395 114.617125 31.102395 111.517316 25.7344787 110.282556 27.0700107 110.282556 31.102395 106.225048 31.102395"></polygon>
                    <path d="M127.393917,23.1144448 C127.217559,21.5475978 126.284907,20.546014 124.949444,20.546014 C123.361712,20.546014 122.580371,21.5475978 122.303054,23.1144448 L127.393917,23.1144448 Z M118.245546,24.5012933 C118.245546,20.571542 120.942288,17.5662695 124.873789,17.5662695 C126.713534,17.5662695 128.175259,18.1828492 129.284013,19.2102216 C130.821393,20.648647 131.577431,22.9347068 131.552383,25.6057706 L122.277751,25.6057706 C122.555067,27.3781442 123.462415,28.4823611 125.176153,28.4823611 C126.259859,28.4823611 126.940243,27.9944634 127.318262,27.1726176 L131.325419,27.1726176 C131.048102,28.379728 130.292064,29.4842054 129.158006,30.2805232 C128.0743,31.0765804 126.763885,31.487894 125.125802,31.487894 C120.866633,31.487894 118.245546,28.5081496 118.245546,24.5012933 L118.245546,24.5012933 Z" id="Fill-7" fill="#1F2228"></path>
                    <path d="M132.433355,17.9517165 L136.364856,17.9517165 L136.364856,20.0064612 L136.440511,20.0064612 C137.347859,18.4396142 138.381214,17.7461899 139.96869,17.7461899 C140.346709,17.7461899 140.624026,17.7719784 140.775335,17.848823 L140.775335,21.4448866 L140.674377,21.4448866 C138.154249,21.059622 136.541214,22.3183094 136.541214,25.1948999 L136.541214,31.1022908 L132.433355,31.1022908 L132.433355,17.9517165 Z" id="Fill-9" fill="#1F2228"></path>
                    <path d="M76.2119361,42.757262 C76.2119361,37.2864523 79.7150671,33.1511744 85.0829904,33.1511744 C87.2000511,33.1511744 88.9388371,33.7674936 90.2242045,34.7693379 C91.8119361,35.9764483 92.6939808,37.7743499 92.9209457,39.8293551 L88.4598594,39.8293551 C88.2331502,38.1854031 86.9730863,36.9267157 85.0576869,36.9267157 C82.1342364,36.9267157 80.7484217,39.3925135 80.7484217,42.757262 C80.7484217,46.1220106 82.4115527,48.5620199 85.0829904,48.5620199 C87.0990927,48.5620199 88.3844601,47.2778045 88.5861214,45.5056914 L93.0466965,45.5056914 C92.9209457,47.354649 92.1143003,48.9986011 90.8792843,50.205972 C89.4681661,51.5670319 87.6534696,52.2862446 85.1080383,52.2862446 C79.7904665,52.2862446 76.2119361,48.2280718 76.2119361,42.757262" id="Fill-11" fill="#1F2228"></path>
                    <path d="M103.176665,45.3257971 C103.176665,42.9371043 102.244268,41.3189408 100.429572,41.3189408 C98.615131,41.3189408 97.7077827,42.9371043 97.7077827,45.3257971 C97.7077827,47.7144898 98.615131,49.3068649 100.429572,49.3068649 C102.244268,49.3068649 103.176665,47.7144898 103.176665,45.3257971 M93.5495719,45.3257971 C93.5495719,41.3447293 96.2964089,38.3649848 100.454875,38.3649848 C104.613086,38.3649848 107.335131,41.3447293 107.335131,45.3257971 C107.335131,49.3068649 104.613086,52.2863488 100.454875,52.2863488 C96.2964089,52.2863488 93.5495719,49.3068649 93.5495719,45.3257971" id="Fill-13" fill="#1F2228"></path>
                    <mask id="mask-2" fill="white">
                        <use xlink:href="#path-1"></use>
                    </mask>
                    <g id="Clip-16"></g>
                    <polygon id="Fill-15" fill="#1F2228" mask="url(#mask-2)" points="108.241278 51.8755301 112.399489 51.8755301 112.399489 33.5107287 108.241278 33.5107287"></polygon>
                    <polygon id="Fill-17" fill="#1F2228" mask="url(#mask-2)" points="113.91131 51.8755301 118.069521 51.8755301 118.069521 33.5107287 113.91131 33.5107287"></polygon>
                    <path d="M128.124626,43.8875019 C127.948268,42.3206548 127.015872,41.319071 125.680153,41.319071 C124.092422,41.319071 123.31108,42.3206548 123.034019,43.8875019 L128.124626,43.8875019 Z M118.976511,45.2743503 C118.976511,41.344599 121.672997,38.3393266 125.604498,38.3393266 C127.443987,38.3393266 128.905968,38.9559063 130.014722,39.9832786 C131.552102,41.4217041 132.308141,43.7077638 132.282837,46.3788277 L123.008716,46.3788277 C123.285776,48.1512012 124.193125,49.2554181 125.906863,49.2554181 C126.990569,49.2554181 127.670952,48.7675204 128.048971,47.9456747 L132.056128,47.9456747 C131.778812,49.1527851 131.022773,50.2572624 129.888716,51.0535802 C128.80501,51.8496374 127.494594,52.2609511 125.856256,52.2609511 C121.597342,52.2609511 118.976511,49.2812066 118.976511,45.2743503 L118.976511,45.2743503 Z" id="Fill-18" fill="#1F2228" mask="url(#mask-2)"></path>
                    <path d="M141.75793,44.7607944 C141.75793,42.9884208 140.850581,41.4989393 139.137099,41.4989393 C137.599463,41.4989393 136.591668,42.7573662 136.591668,44.7865829 C136.591668,46.763962 137.599463,48.048438 139.137099,48.048438 C140.926236,48.048438 141.75793,46.6100125 141.75793,44.7607944 M132.861572,52.1837158 L136.843425,52.1837158 C137.07039,52.87714 137.725725,53.4679312 139.111796,53.4679312 C140.850581,53.4679312 141.581572,52.5689804 141.581572,50.9508169 L141.581572,49.640813 L141.480869,49.640813 C140.699527,50.5400243 139.766875,51.1563435 138.179399,51.1563435 C135.280997,51.1563435 132.584511,48.9473887 132.584511,44.9147439 C132.584511,41.0876257 134.777227,38.3394568 138.003042,38.3394568 C139.71678,38.3394568 140.850581,39.0331415 141.631923,40.1373584 L141.682275,40.1373584 L141.682275,38.7247214 L145.613776,38.7247214 L145.613776,50.5913408 C145.613776,52.5689804 144.933393,54.0071454 143.900038,54.9576732 C142.765981,55.9850455 141.077546,56.4216267 139.162147,56.4216267 C135.608665,56.4216267 133.264895,54.9576732 132.861572,52.1837158" id="Fill-19" fill="#1F2228" mask="url(#mask-2)"></path>
                    <path d="M155.64322,43.8875019 C155.466863,42.3206548 154.534211,41.319071 153.198748,41.319071 C151.611016,41.319071 150.829674,42.3206548 150.552358,43.8875019 L155.64322,43.8875019 Z M146.49485,45.2743503 C146.49485,41.344599 149.191591,38.3393266 153.123093,38.3393266 C154.962581,38.3393266 156.424562,38.9559063 157.533316,39.9832786 C159.070696,41.4217041 159.826735,43.7077638 159.801431,46.3788277 L150.527054,46.3788277 C150.804371,48.1512012 151.711719,49.2554181 153.425457,49.2554181 C154.509163,49.2554181 155.189546,48.7675204 155.567565,47.9456747 L159.574722,47.9456747 C159.297406,49.1527851 158.541367,50.2572624 157.40731,51.0535802 C156.323604,51.8496374 155.013188,52.2609511 153.37485,52.2609511 C149.115936,52.2609511 146.49485,49.2812066 146.49485,45.2743503 L146.49485,45.2743503 Z" id="Fill-20" fill="#1F2228" mask="url(#mask-2)"></path>
                </g>
                <g id="Group-29" transform="translate(0.000000, 0.165411)">
                    <g id="Group-24">
                        <mask id="mask-4" fill="white">
                            <use xlink:href="#path-3"></use>
                        </mask>
                        <g id="Clip-23"></g>
                        <path d="M31.6466198,61.145716 C16.0663003,61.145716 3.39077316,48.2274987 3.39077316,32.3482923 C3.39077316,16.4690859 16.0663003,3.55086866 31.6466198,3.55086866 C47.2269393,3.55086866 59.9024665,16.4690859 59.9024665,32.3482923 C59.9024665,48.2274987 47.2269393,61.145716 31.6466198,61.145716 M31.6466198,0.0952090741 C14.1687923,0.0952090741 0.000102236425,14.5354691 0.000102236425,32.3482923 C0.000102236425,50.1611156 14.1687923,64.6016361 31.6466198,64.6016361 C49.1244473,64.6016361 63.2931374,50.1611156 63.2931374,32.3482923 C63.2931374,14.5354691 49.1244473,0.0952090741 31.6466198,0.0952090741" id="Fill-22" fill="#EF0030" mask="url(#mask-4)"></path>
                    </g>
                    <path d="M29.3860958,24.2851387 L34.4721022,24.2851387 C36.0301853,24.2851387 37.2979169,25.5769084 37.2979169,27.164855 C37.2979169,28.7525412 36.0301853,30.0445714 34.4721022,30.0445714 L29.3860958,30.0445714 L29.3860958,24.2851387 Z M35.0372141,40.4115501 L29.3860958,40.4115501 L29.3860958,33.5002309 L35.0372141,33.5002309 C36.9071182,33.5002309 38.427885,35.0504066 38.427885,36.956151 C38.427885,38.8616349 36.9071182,40.4115501 35.0372141,40.4115501 L35.0372141,40.4115501 Z M25.9954249,40.4115501 C24.7471182,40.4115501 23.7349776,41.4430903 23.7349776,42.7155837 L23.7349776,43.8674702 L35.0372141,43.8674702 C38.7826454,43.8674702 41.8188115,40.7728497 41.8188115,36.956151 C41.8188115,34.6831158 40.7371502,32.6721334 39.0747859,31.4124041 C40.074147,30.2881295 40.6885879,28.8015134 40.6885879,27.164855 C40.6885879,23.6656936 37.9054569,20.8292187 34.4721022,20.8292187 L23.7349776,20.8292187 L23.7349776,21.9811052 C23.7349776,23.2535986 24.7471182,24.2851387 25.9954249,24.2851387 L25.9954249,40.4115501 Z" id="Fill-25" fill="#EF0030"></path>
                    <path d="M47.1493163,20.820909 C47.8414569,21.7865452 49.1143003,22.0980912 50.1318083,21.5013088 L51.2219042,20.8618059 C47.2415847,13.8324848 39.7422875,9.13376726 31.1656741,9.31532875 C19.4677827,9.56331517 9.68938019,19.1949308 9.07417252,31.1032285 C8.38791054,44.3913415 18.7574952,55.386101 31.6466965,55.386101 C40.0219042,55.386101 47.3162173,50.7324482 51.2219042,43.8346745 L50.1154505,43.1855336 C49.1094441,42.5957843 47.8478466,42.8987341 47.1641406,43.8549927 C43.1955783,49.4044705 36.4507859,52.7634883 29.0176869,51.7512243 C20.410147,50.5784986 13.5429265,43.4275287 12.5606901,34.6333882 C11.2405623,22.8180854 20.313278,12.766039 31.6466965,12.766039 C38.0124473,12.766039 43.6533419,15.9455793 47.1493163,20.820909" id="Fill-27" fill="#EF0030"></path>
                </g>
            </g>
        </g>
    </g>
</svg>