<?xml version="1.0" encoding="UTF-8" standalone="no"?>
<svg
   xmlns:dc="http://purl.org/dc/elements/1.1/"
   xmlns:cc="http://creativecommons.org/ns#"
   xmlns:rdf="http://www.w3.org/1999/02/22-rdf-syntax-ns#"
   xmlns:svg="http://www.w3.org/2000/svg"
   xmlns="http://www.w3.org/2000/svg"
   viewBox="0 0 318.69333 67.693336"
   height="67.693336"
   width="318.69333"
   xml:space="preserve"
   id="svg2"
   version="1.1"><metadata
     id="metadata8"><rdf:RDF><cc:Work
         rdf:about=""><dc:format>image/svg+xml</dc:format><dc:type
           rdf:resource="http://purl.org/dc/dcmitype/StillImage" /></cc:Work></rdf:RDF></metadata><defs
     id="defs6" /><g
     transform="matrix(1.3333333,0,0,-1.3333333,0,67.693333)"
     id="g10"><g
       transform="scale(0.1)"
       id="g12"><path
         id="path14"
         style="fill:#231f20;fill-opacity:1;fill-rule:nonzero;stroke:none"
         d="m 2227.43,219.941 h -0.1 c 0,0 0.1,0.125 0.1,0.137 z m 109.98,0 h -0.27 c 0.06,0 0.21,0.079 0.27,0.079 z m 46.27,5.293 -19.1,-1.55 -19.49,1.55 -7.74,-1.171 -2.01,-6.153 c 2.31,-2.019 9.75,-1.621 9.75,-1.621 3.3,0 6.07,0 6.07,-6.055 l -4.18,-11.64 c -0.33,-0.586 -26.62,-41.367 -31.13,-48.34 -3.2,4.648 -37.62,55.039 -37.62,55.039 0,-0.117 -2.42,7.383 -2.42,7.383 0,2.336 1.76,4.863 6.84,4.863 l 6.5,-0.84 0.31,2.031 h 0.1 v 0.723 l 0.7,4.414 -9.86,1.321 -20.98,-1.536 c -0.11,0 -15.45,0.911 -15.45,0.911 l -10.02,0.671 c -0.15,-0.046 -8.57,-0.449 -8.57,-0.449 v -6.875 c 2.17,-2.019 11.11,-1.551 11.11,-1.551 2.48,-0.07 5.71,-0.07 11.59,-8.527 l 47.48,-69.023 -0.36,-61.309 c 0,-15.0977 -3.22,-17.5195 -7.24,-20.6055 -0.08,0.4297 -13.24,0.7813 -13.24,0.7813 l -2.27,-6.1719 c 1.7,-1.9922 13.11,-2.793 13.11,-2.793 l 23.1,1.9727 27.99,-1.9727 7.23,0.8985 1.27,6.0351 v 2.0313 l -5.24,-0.4883 -5.76,0.0781 c -10.8,0 -14.53,9.4141 -14.53,17.4805 v 62.0119 c 0.27,-0.215 38.22,58.984 38.22,58.984 11.23,17.61 16.66,20.547 24.61,20.547 l 5.27,-0.359 2.48,6.011 c -1.21,1.848 -6.52,3.293 -6.52,3.293 m -213.87,2.493 c -0.23,-0.079 -21.6,-2.082 -21.6,-2.082 -0.08,0 -23.38,-0.711 -23.38,-0.711 l -37.69,1.171 c -0.12,0.008 -21.97,2.04 -21.97,2.04 l -5.02,-0.567 c -1.37,-1.219 -6.12,-12.39 -6.12,-12.39 -0.08,-0.071 -6.87,-12.395 -6.87,-12.395 l -4.85,-8.613 c 0,0 1.29,-0.918 2.52,-1.739 -0.04,-0.078 -0.09,-0.175 -0.11,-0.234 l 0.11,0.215 c 0.26,-0.156 0.45,-0.293 0.71,-0.469 0.29,-0.312 0.6,-0.605 0.93,-0.801 0.02,0.059 0.06,0.078 0.06,0.118 0.9,-0.625 1.66,-1.153 1.66,-1.153 5.33,9.024 14.14,24.082 45.32,24.082 13.8,0 13.8,-1.289 13.8,-13.34 V 89.668 c 0,-21.4258 -2.81,-24.7071 -9.49,-32.5196 -0.37,0.0196 -7.09,-0.2929 -7.09,-0.2929 l -7.36,0.4101 -2.4,-6.5039 15.87,-2.0508 21.1,1.5625 24.32,-1.5625 12.28,0.4297 1.93,6.0742 c -2.14,2.0508 -12.61,1.6016 -12.61,1.6016 -5.39,0.0391 -11.74,6.0742 -11.74,23.1641 V 208.203 c 0,3.027 0,5.664 12.15,5.664 19.2,0 30.04,-0.469 30.04,-10.097 l -5.92,-13.008 1.52,-1.289 c -0.17,-0.293 -0.27,-0.43 -0.49,-0.782 l 2.84,-1.171 1.54,-1.407 c 10.02,11.719 15.12,20.352 15.12,25.684 0,11.269 -5.53,15.93 -19.11,15.93 M 1999.36,53.6133 h 0.4 c -0.1,0 -0.3,0 -0.4,-0.0586 z m -69.33,0 h -0.29 z m 34.45,170.0707 -23.55,1.55 -13.36,-1.296 -1.62,-5.579 c 2.28,-2 10.54,-1.711 10.54,-1.711 l 9.18,-0.289 c 5.04,-5.031 6.62,-8 6.62,-21.984 V 81.543 c 0,-17.6563 -2.09,-19.8242 -6.58,-24.3555 -0.04,0.4492 -6.74,0.0781 -6.74,0.0781 l -10.8,0.4883 -0.25,-2.1094 v -4.1406 c 1.74,-1.9922 9.8,-2.793 9.8,-2.793 l 25.65,1.5625 29.22,-1.5625 7.42,0.8789 1.42,6.0547 c -2.36,2.0313 -10.5,1.211 -10.5,1.211 l -6.62,0.6445 c -3.34,2.8516 -7.19,8.3789 -7.19,16.3281 V 201.758 c 0,9.453 4.86,14.89 13.32,14.89 l 8.73,-0.289 2.26,5.582 v 1.848 l -12.51,1.445 z m -143.55,-62.141 c -20.88,17.598 -29.26,24.648 -29.26,36.855 0,12.403 11.42,17.891 22.69,17.891 24.09,0 30.04,-24.16 30.04,-27.598 l -2.2,-7.636 c 1.09,-2.715 4.33,-3.985 4.33,-3.985 2.6,1.114 5.55,14.082 5.55,14.082 0,0.059 -0.31,13.457 -0.31,13.457 l 0.76,11.082 c -1.35,2.161 -11.47,5.832 -11.47,5.832 -0.05,0 -28.26,5.372 -28.26,5.372 -39.94,0 -41.09,-33.165 -41.09,-36.973 0,-19.219 8.69,-26.543 40.94,-53.809 22.05,-18.476 33,-27.754 33,-46.0153 0,-16.543 -11.66,-33.2422 -34.08,-33.2422 -28.55,0 -46.64,27.9492 -46.64,39.7461 l 2.29,12.0504 -2.13,0.547 -3.26,0.352 c -2.13,-1.289 -4.71,-22.344 -4.71,-22.344 l 2.89,-24.1601 c 39.18,-16.0742 40.19,-16.3867 55.6,-16.3867 20.38,0 52.78,13.164 52.78,48.3789 0,23.2029 -11.86,36.9339 -47.46,66.5039 M 1715.4,53.9844 c 0,0.039 0,0.0586 -0.02,0.1367 0.27,0.0391 0.8,0.2344 0.8,0.2344 -0.41,-0.0391 -0.49,-0.2344 -0.78,-0.3711 m -100.68,93.7306 c 0,0 -17.95,3.027 -19.05,3.203 v 56.406 c 0,3.223 0.98,6.543 8.09,6.543 16.62,0 51.07,0 51.07,-33.32 0,-20.586 -15,-32.832 -40.11,-32.832 M 1716.9,56.8164 c -3.14,0.8203 -10.45,-1.25 -10.45,-1.25 -12.11,0 -22.55,6.9531 -32.03,21.0938 l -37.26,56.7578 -7.7,6.797 c 3.42,0.39 6.74,0.879 9.85,1.523 25.8,3.262 41.15,18.672 41.15,40.469 0,28.027 -19.01,43.438 -53.6,43.438 l -19.14,-0.872 -26.34,-1.57 c 0,0.039 -15.71,1.106 -15.71,1.106 l -10.62,0.925 -5.8,-0.847 -1.49,-5.657 c 2.48,-2.031 7.29,-1.628 7.29,-1.628 l 11.6,-1.789 c 3.5,-2.286 5.41,-7.637 5.41,-15.235 V 74.7461 c 0,-10 -0.02,-11.8555 -5.16,-17.6953 -0.06,0.4101 -8.18,-0.9961 -8.18,-0.9961 l -7.85,0.4101 -2.31,-6.1523 c 1.8,-2.0312 13.38,-2.3828 13.38,-2.3828 l 8.36,0.6641 c 1.23,0.1171 15.63,0.8593 15.63,0.8593 l 14.63,-1.1718 c 0.13,0 3.51,-0.4493 3.51,-0.4493 l 4.16,-0.3515 8.46,0.8008 1.72,6.1328 c -2.03,2.1093 -6.35,1.8164 -6.35,1.8164 l -3.83,-0.1758 c -11.7,0 -12.56,10.8789 -12.56,28.8281 v 55.0392 c 2.05,-0.469 4.26,-0.938 4.26,-0.938 l 5.88,-1.25 c 0,-0.058 10.1,-10.625 10.1,-10.625 0,-0.019 34,-53.9449 34,-53.9449 16.49,-25.6836 31.06,-25.6836 42.77,-25.6836 l 26,3.164 -1.31,4.0821 z M 1366.36,221.223 h -0.14 l 0.14,0.144 z m 62.87,-160.2464 c -13.21,0 -15.8,0.5078 -15.8,6.8164 v 71.816 h 0.23 c 39.86,-2.031 47.7,-3.476 52.19,-21.211 l 6.82,0.489 v 5.683 l -3.42,12.071 -3.07,10.156 c 0,0.078 -0.39,7.285 -0.39,7.285 l -0.88,10.352 -3.24,6.796 c 0,0 -1.47,-0.527 -2.81,-0.957 v 0.098 c -0.08,-0.058 0,-0.098 -0.08,-0.098 -0.43,-0.175 -0.76,-0.312 -1.17,-0.449 -0.24,-0.039 -0.53,-0.058 -0.71,-0.176 v -0.058 c -1.05,-0.352 -1.93,-0.664 -1.93,-0.664 l 2.3,-9.004 c 0,-9.063 -8.37,-9.707 -21.11,-9.707 h -24.74 l 2.01,57.988 1.15,3.594 c -0.29,0.605 13.1,3.644 13.1,3.644 8.74,0 52.45,-1.347 54.73,-27.355 l 6.54,0.137 c 0,0 -0.84,11.074 -0.84,11.093 0,-0.312 -2.96,8.008 -2.96,8.008 l -7.21,19.629 c -2.74,1.399 -52.68,-0.848 -52.7,-0.84 l -13.55,0.157 -39.32,0.168 -6.15,-0.333 -1.91,-6.945 c 2.16,-2.058 13.55,-1.25 13.55,-1.25 9.24,-0.058 10.84,-4.883 10.84,-15.801 V 77.0898 c 0,-13.75 -2.48,-20.2343 -16.68,-20.2343 l -8.09,0.8008 -1.6,-2.0118 v -4.4726 c 1.74,-2.0313 15,-2.461 15,-2.461 l 21.92,0.7422 40.58,-0.7422 28.23,-0.4296 12.34,-1.543 c 2.25,1.2109 11.86,16.6406 11.86,16.6406 8.59,12.3438 10.09,14.4336 10.52,24.9805 l -6.95,0.5078 c -5.7,-27.8906 -46.82,-27.8906 -66.6,-27.8906 m -130.59,162.2654 -17.05,1.692 -7.73,-1.438 0.84,-7.207 6.44,0.359 4.49,-0.21 c 2.6,-0.547 5.69,-5.637 5.69,-11.106 l -3.91,-19.004 c -0.02,-0.058 -35.76,-84.902 -44.06,-104.453 -3.59,7.832 -53.24,116.582 -53.24,116.582 0.04,-0.059 -1.45,3.496 -1.45,3.496 l -2.05,7.461 c 0,4.973 1.82,6.875 6.54,6.875 l 8.91,-0.848 2.38,5.704 v 1.804 l -4.8,0.735 -9.71,1.25 -18.32,-1.692 -14.24,1.067 -6.81,0.625 -5.9,-0.996 -1.48,-5.579 c 12.94,-2.839 14.09,-2.918 25.81,-28.808 l 63.23,-142.0705 6.3,-1.25 c 1.92,1.289 64.46,151.0545 64.46,151.0545 5.43,12.754 11.93,19.817 18.38,19.817 l 5.76,-0.586 0.31,2.214 v 4.075 c -1.8,2.058 -10.53,2.429 -10.53,2.429 z M 1035.24,53.6133 h -0.32 z m 34.58,170.0707 -23.62,1.55 -13.44,-1.296 -1.58,-5.579 c 2.27,-2 10.56,-1.711 10.56,-1.711 l 9.12,-0.289 c 5.13,-5.129 6.77,-8.039 6.77,-21.984 V 81.543 c 0,-17.6563 -2.13,-19.8242 -6.73,-24.3555 -0.04,0.4492 -6.74,0.0781 -6.74,0.0781 l -10.78,0.4883 -0.18,-2.1094 v -4.1406 c 1.7,-1.9922 9.78,-2.793 9.78,-2.793 l 25.6,1.5625 29.2,-1.5625 7.54,0.8789 1.34,6.0547 c -2.46,2.0118 -10.56,1.1719 -10.56,1.211 l -6.77,0.6445 c -3.13,2.8516 -6.99,8.3789 -6.99,16.3281 V 201.758 c 0,9.453 4.89,14.89 13.36,14.89 l 8.74,-0.289 2.22,5.582 v 1.848 l -12.56,1.445 z m -117.781,-0.442 -19.101,1.992 -10.84,-0.839 -1.66,-5.665 c 2.402,-2.031 9.289,-1.628 9.289,-1.628 l 7.812,-0.403 c 6.563,-6.289 7.227,-17.285 7.227,-28.008 V 84.9609 C 938.047,92.5977 828.66,216.516 828.66,216.516 c -7.293,8.047 -17.215,8.718 -29.539,8.718 l -19.16,-1.621 -1.602,-6.101 v -2.285 l 3.907,0.464 7.058,0.598 c 6.641,0 8.555,-1.687 13.078,-6.66 l 4.161,-4.473 -0.559,-116.738 c 0,-6.7578 -1.68,-27.168 -9.18,-31.8946 -0.066,0.1368 -7.5,-0.4687 -7.5,-0.4687 l -10.82,0.957 -0.145,-2.2265 v -5.9766 l 2.52,-0.2148 9.324,-0.6641 6.621,0.5273 14.453,0.9961 13.743,-0.9961 5.722,-0.5273 11.258,0.7812 1.777,6.0743 v 2.2265 l -10.175,-0.957 c -16.082,0 -16.258,20.6055 -16.258,21.4453 v 115.918 c 6.797,-7.754 126.297,-144.043 126.297,-144.043 2.082,-2.5586 4.425,-3.1445 6.047,-3.1445 4.07,0 6.835,2.3437 6.835,5.7617 V 191.953 c 0,18.848 3.68,21.32 9.2,24.988 0.058,-0.347 12.8,-1.05 12.8,-1.05 l 2.375,6.05 c -1.535,1.997 -13.378,3.293 -13.378,3.293 z m -234.101,0 -7.958,0.742 -13.117,1.25 -8.066,-1.367 -1.336,-5.508 c 2.383,-2 7.324,-1.711 7.324,-1.711 12.676,0 19.121,-10.613 19.121,-31.628 v -65.665 c 0,-15.214 0,-61.2886 -54.843,-61.2886 -40.977,0 -51.965,32.4024 -51.965,51.5626 v 86.797 c 0,8.125 6.203,20.676 13.82,20.676 l 11.141,-1.497 0.285,2.305 v 3.692 c -1.321,1.894 -14.66,3.632 -14.66,3.632 l -26.004,-1.992 -19.035,1.992 c -0.106,-0.046 -9.344,-0.371 -9.344,-0.371 0.058,0.071 -5.137,-0.996 -5.137,-0.996 l -1.601,-0.332 0.3,-1.594 v -5.75 l 4.961,0.403 9.239,0.508 c 10.578,0 11.777,-17.825 11.777,-25.52 l 0.363,-71.816 c 0,-21.8558 0,-73.1058 69.024,-73.1058 73.437,0 73.437,55.2928 73.437,73.4768 v 69.336 c 0,24.101 9.121,27.175 17.039,27.175 l 4.797,-0.25 2.48,5.543 c -1.3,1.926 -10.957,3.293 -10.957,3.293 z M 2225.73,404.414 c 0.92,-0.644 1.7,-1.172 1.7,-1.172 5.33,9.043 14.2,24.192 45.39,24.192 13.67,0 13.67,-1.282 13.67,-13.457 V 302.813 c 0,-21.454 -2.81,-24.715 -9.55,-32.625 -0.19,0.144 -6.99,-0.208 -6.99,-0.208 l -7.38,0.372 -2.39,-6.485 15.88,-2.051 21.06,1.68 24.37,-1.68 12.25,0.469 1.93,6.067 c -2.13,2 -12.63,1.55 -12.63,1.55 -5.34,0.078 -11.64,6.133 -11.64,23.164 v 128.262 c 0,3.059 0,5.656 12.09,5.656 19.19,0 30.02,-0.429 30.02,-10.097 l -5.94,-12.981 1.58,-1.367 c -0.22,-0.312 -0.23,-0.391 -0.49,-0.73 l 2.77,-1.204 1.59,-1.335 c 10.02,11.668 15.13,20.371 15.13,25.769 0,11.223 -5.52,15.781 -19.02,15.781 -0.2,-0.047 -21.72,-2.05 -21.72,-2.05 -0.06,0 -23.34,-0.75 -23.34,-0.75 l -37.69,1.218 c -0.1,0 -21.98,2.051 -21.98,2.051 l -5.02,-0.555 c -1.34,-1.25 -6.19,-12.453 -6.19,-12.453 -0.02,-0.086 -6.56,-12.09 -6.56,-12.09 l -5.08,-8.906 c 0,0 1.25,-0.879 2.48,-1.68 0,-0.125 -0.08,-0.207 -0.13,-0.292 0,0 0.13,0.214 0.17,0.214 0.24,-0.129 0.41,-0.254 0.59,-0.41 0.35,-0.344 0.66,-0.633 1.01,-0.84 0.04,0.032 0.06,0.11 0.06,0.137 m -19.12,-137.383 c -0.02,0.11 -0.06,0.149 -0.06,0.176 0.29,0.117 0.86,0.273 0.86,0.273 -0.43,-0.085 -0.53,-0.3 -0.8,-0.449 m -100.74,93.828 c 0,0 -17.93,3.039 -19.03,3.196 v 56.511 c 0,3.164 1,6.418 8.13,6.418 16.56,0 51.11,0 51.11,-33.293 0,-20.554 -15.04,-32.832 -40.21,-32.832 m 102.03,-90.711 c -3.03,0.586 -10.22,-1.289 -10.22,-1.289 -12.1,0 -22.59,6.832 -31.97,20.957 l -37.38,56.7 -7.74,6.941 c 3.27,0.332 6.47,0.742 9.44,1.359 26.07,3.133 41.7,18.543 41.7,40.536 0,28.039 -19.01,43.437 -53.58,43.437 l -19.68,-0.918 -25.92,-1.551 -15.57,1.114 -10.66,0.925 -5.88,-0.847 -1.54,-5.657 c 2.55,-2.07 7.42,-1.628 7.42,-1.628 l 11.5,-1.731 c 2.44,-1.609 5.53,-5.73 5.53,-15.293 V 287.898 c 0,-9.988 -0.04,-11.863 -5.12,-17.71 -0.1,0.378 -8.3,-1.04 -8.3,-1.04 l -7.71,0.422 -2.39,-6.14 c 1.82,-1.992 13.32,-2.395 13.32,-2.395 l 9.09,0.742 c 0.44,0.078 14.88,0.832 14.88,0.832 l 14.76,-1.171 c 0.04,0 3.44,-0.461 3.44,-0.461 l 4.1,-0.34 8.42,0.801 1.76,6.101 c -2.05,2.07 -6.21,1.848 -6.21,1.848 l -3.97,-0.239 c -11.7,0 -12.58,11.411 -12.58,28.84 v 55.039 c 2.13,-0.488 10.32,-2.214 10.32,-2.214 0,-0.04 9.9,-10.579 9.9,-10.579 l 34.12,-53.918 c 16.35,-25.679 30.92,-25.679 42.68,-25.679 l 26.13,3.34 -1.35,3.464 z m -303.97,0.704 c -47.38,0 -79.16,45.703 -79.16,88.378 0,42.176 26.41,69.415 67.35,69.415 47.34,0 79.1,-45.704 79.1,-88.457 0,-42.122 -26.39,-69.336 -67.29,-69.336 m 92.04,87.168 c 0,39.851 -30.36,82.8 -96.96,82.8 -66.68,0 -97.11,-51.14 -97.11,-98.672 0,-41.152 33.36,-82.761 97.11,-82.761 66.6,0 96.96,51.093 96.96,98.633 m -297.46,2.5 c -11.67,0 -16.78,2.578 -21.53,5.261 v 53.574 c 0,5.137 5.1,7.2 17.5,7.2 34.18,0 39.28,-20.293 39.28,-32.434 0,-7.851 -2.52,-33.601 -35.25,-33.601 m 11.81,76.726 -46.27,-0.918 -23.98,2.031 -10.71,-0.449 -1.52,-6.055 v -2.285 l 9.88,1.125 c 13.5,0 14.57,-9.843 14.57,-22.754 V 289.855 c 0,-11.718 -1.58,-14.914 -4.84,-18.925 -0.08,0.398 -8.63,-0.95 -8.63,-0.95 l -9.16,0.95 -0.94,-2.141 v -4.473 c 2.07,-2.031 5.9,-2.214 5.9,-2.214 l 5.9,-0.286 23.06,2.012 7.97,-0.73 14.81,-1.282 14.18,0.832 1.68,6.141 c -2.35,2.063 -16.53,1.113 -16.53,1.113 -5.78,4.953 -8.71,8.536 -8.71,16.746 v 67.629 c 4.59,-0.996 23.97,-5.261 23.97,-5.261 33.59,0 58.96,21.316 58.96,49.558 0,24.563 -18.1,38.672 -49.59,38.672 m -306.97,-175.644 14.35,1.007 13.72,-1.007 5.72,-0.567 11.23,0.82 1.76,6.016 v 2.285 l -10.06,-1.008 c -16.08,0 -16.27,20.668 -16.27,21.497 v 115.918 c 6.81,-7.793 126.25,-144.043 126.25,-144.043 1.74,-2.04 3.81,-3.133 6.01,-3.133 3.34,0 6.96,1.765 6.96,5.722 v 139.957 c 0,18.957 3.45,21.262 9.14,25.004 0.08,-0.363 12.77,-1.054 12.77,-1.054 l 2.36,6.14 c -1.6,2.024 -13.37,3.203 -13.37,3.203 l -15.41,-2.031 -19.09,2.031 -10.93,-0.847 -1.61,-5.657 c 2.35,-2.07 9.3,-1.628 9.3,-1.628 l 7.87,-0.442 c 6.53,-6.308 7.17,-17.273 7.17,-27.976 V 298.066 c -6.76,7.637 -116.23,131.543 -116.23,131.543 -7.17,8.079 -17.17,8.75 -29.51,8.75 l -19.03,-1.589 -1.64,-6.036 v -2.199 l 4.81,0.41 6.15,0.5 c 6.64,0 8.46,-1.613 13.15,-6.679 l 4.04,-4.453 -0.51,-116.75 c 0,-6.747 -1.72,-27.176 -9.24,-31.883 -0.02,0.105 -7.44,-0.532 -7.44,-0.532 l -10.82,1 -0.14,-2.277 v -4.004 c 2.43,-2.129 11.78,-2.832 11.78,-2.832 z m -195.8,172.753 -0.16,-0.046 0.16,0.222 z m 62.87,-160.292 c -13.16,0 -15.8,0.546 -15.8,6.875 v 71.796 h 0.27 c 39.83,-2.07 47.68,-3.457 52.03,-21.211 l 6.96,0.5 v 5.665 l -3.32,11.621 -3.19,10.546 c 0,0.184 -0.47,7.754 -0.47,7.754 l -0.8,9.969 -3.3,6.863 c 0,0 -1.48,-0.535 -2.89,-1.011 v 0.027 c 0,0 0,-0.027 -0.04,-0.027 -0.53,-0.227 -0.97,-0.41 -1.48,-0.598 -0.14,-0.019 -0.28,-0.019 -0.43,-0.059 v -0.007 c -1.04,-0.411 -1.92,-0.735 -1.92,-0.735 l 2.35,-8.965 c 0,-9.089 -8.3,-9.753 -21.04,-9.753 h -24.76 l 2.03,58.015 1.13,3.574 c -0.17,0.625 13.01,3.743 13.01,3.743 8.73,0 52.54,-1.29 54.84,-27.329 l 6.47,0.2 -0.9,10.957 c 0.06,-0.489 -2.95,8.054 -2.95,8.054 l -7.21,19.661 c -2.52,1.433 -52.75,-0.95 -52.71,-0.95 l -13.52,0.157 -39.35,0.168 -6,-0.325 -1.93,-6.953 c 2.18,-2.051 13.59,-1.25 13.59,-1.25 9.14,-0.039 10.7,-4.883 10.7,-15.847 V 290.305 c 0,-13.789 -2.46,-20.325 -16.56,-20.325 l -8.16,0.793 -1.58,-1.984 v -4.473 c 1.77,-2.031 14.96,-2.5 14.96,-2.5 l 21.93,0.793 40.53,-0.793 28.28,-0.378 12.42,-1.575 c 2.25,1.172 11.72,16.653 11.72,16.653 8.61,12.246 10.12,14.336 10.55,24.968 l -6.88,0.508 c -5.78,-27.929 -46.83,-27.929 -66.58,-27.929 m -182.6,-14.676 c 1.89,1.258 64.42,151.054 64.42,151.054 5.37,12.754 11.91,19.786 18.39,19.786 l 5.69,-0.618 0.37,2.246 v 4.083 c -1.82,2.05 -10.55,2.421 -10.55,2.421 l -18.26,-2.031 -17.08,1.692 -7.82,-1.457 0.93,-7.118 6.49,0.301 4.4,-0.176 c 2.62,-0.554 5.79,-5.703 5.79,-11.113 l -3.97,-19.004 c -0.02,-0.058 -35.76,-84.883 -44.04,-104.48 -3.6,7.879 -53.25,116.609 -53.25,116.609 0.03,-0.059 -1.3,3.164 -1.3,3.164 l -2.17,7.824 c 0,4.95 1.86,6.875 6.52,6.875 l 9.12,-0.754 2.26,5.579 v 1.835 l -14.62,1.915 -18.3,-1.692 -14.14,1.074 -6.934,0.618 -5.481,-0.793 -1.785,-5.743 c 12.94,-2.793 14.1,-2.839 25.7,-28.796 l 63.26,-142.051 z m -218.3,90.547 c 1.699,4.55 15.781,42.754 18.703,50.664 3.164,-7.832 18.515,-46.067 20.379,-50.664 z m 98.566,-79.231 c 0,0.527 -12.766,26.406 -12.766,26.406 l -56.375,142.375 -6.367,1.336 c -1.914,-1.336 -58.32,-150.664 -58.32,-150.664 l -8,-13.711 c -1.18,-1.765 -5.516,-5.215 -5.516,-5.215 -1.398,-1.082 -6.855,-1.621 -6.855,-1.621 -2.922,0.176 -8.321,0.457 -8.321,0.457 l 0.118,-2.195 v -3.555 c 1.582,-2 8.953,-2.5 8.953,-2.5 l 17.843,0.793 21.961,-0.793 7.278,0.5 1.601,5.555 c -2.004,2.109 -6.359,1.914 -6.359,1.914 l -4.18,-0.176 c -7.539,0 -8.125,8.079 -8.125,10.539 l 2.785,12.684 17.86,47.813 c 0,0 48.566,-1.258 48.703,-1.258 0,-0.032 -0.078,-0.078 -0.078,-0.157 0,-3.039 20.137,-53.007 20.137,-53.007 l 1.835,-8.535 c 0,-4.485 -2.218,-6.731 -3.039,-6.915 -0.214,0 -5.8,-0.793 -5.8,-0.793 l -6.934,0.793 -2.422,-6.457 c 1.738,-2.031 9.356,-2.5 9.356,-2.5 l 23.086,1.68 16.875,-1.062 7.519,-0.618 9.16,0.801 0.989,2.024 v 6.875 l -9.786,-1.536 z m -268.281,9.668 c -15.246,-7.012 -35.149,-7.969 -54.348,-7.969 -32.898,0 -32.898,8.633 -32.898,18.703 v 169.629 c 0,2.293 1.746,4.832 4.062,4.832 h 36.961 c 27.559,0 45.859,-1.738 67.402,-26.171 14.258,-15.782 24.239,-46.204 24.239,-74.024 0,-29.219 -7.86,-67.715 -45.418,-85 m -137.121,-14.004 -0.282,0.363 h 0.282 z m 97.773,212.278 -50.84,-2.247 -11.258,-0.664 -12.199,1.121 -22.656,1.79 -2.059,-6.543 c 17.157,-2.082 24.278,-4.043 24.278,-22.325 V 299.199 c 0,-25.84 -8.535,-28.801 -14.981,-28.801 l -9.902,0.532 -0.195,-2.141 v -4.473 c 2.039,-2.031 5.574,-2.214 5.574,-2.214 l 6.183,-0.286 33.243,2.012 21.66,-0.801 35.195,-1.211 c 88.262,0 111.582,71.954 111.582,110 0,27.707 -10.402,55.391 -28.477,75.997 -27.824,30.832 -63.742,30.832 -85.148,30.832" /><path
         id="path16"
         style="fill:#ee2722;fill-opacity:1;fill-rule:nonzero;stroke:none"
         d="m 461.883,180.176 v 307.812 l -44.305,19.7 V 251.035 c 0,-85.722 -0.937,-123.75 -34.64,-142.285 C 345.664,88.2031 241.297,35.9375 231.102,30.6836 220.801,35.9375 112.938,90.4102 79.1992,108.75 45.3984,127.109 44.5391,165.313 44.5391,251.035 V 507.688 L 0.242188,487.988 V 180.176 c 0,0 -6.023438,-51.641 41.945312,-80.2346 C 87.7031,72.832 231.102,0 231.102,0 c 0,0 141.964,70.6445 188.859,99.9414 47.383,29.5896 41.922,80.2346 41.922,80.2346 M 158.797,415.695 c 0,4.61 3.469,9.832 8.703,9.832 h 52.723 c 40.019,0 51.035,-2.879 82.336,-38.242 21.445,-23.75 35.339,-69.004 35.339,-107.762 0,-34.21 -7.519,-96.789 -66.64,-124.074 -21.453,-9.824 -32.481,-11.582 -62.617,-11.582 -46.922,0 -49.844,12.168 -49.844,29.571 z m 74.18,-284.406 c 122.285,0 156.445,101.816 156.445,157.481 0,40 -15.039,78.222 -39.961,106.582 -38.836,42.929 -88.094,46.211 -119.363,46.211 H 77.3438 v -9.618 c 20.8593,0 34.7542,-2.375 34.7542,-31.933 V 185.02 c 0,-35.352 -11.016,-44.063 -24.2972,-44.063 -4.1211,0 -7.5781,0 -11.6211,0.625 v -9.687 c 4.043,0 120.8593,-0.606 156.7973,-0.606" /><path
         id="path18"
         style="fill:#ee2722;fill-opacity:1;fill-rule:nonzero;stroke:none"
         d="m 433.066,29.3164 h 2.852 c 3.25,0 6.004,1.1914 6.004,4.2578 0,2.1485 -1.57,4.336 -6.004,4.336 -1.281,0 -2.168,-0.1172 -2.852,-0.1954 z m 0,-13.6719 h -3.945 v 24.7266 c 2.07,0.2734 4.043,0.5859 6.992,0.5859 3.75,0 6.211,-0.7812 7.676,-1.875 1.484,-1.0937 2.274,-2.7539 2.274,-5.1367 0,-3.2422 -2.157,-5.2148 -4.825,-5.9961 v -0.2148 c 2.16,-0.3711 3.645,-2.3438 4.133,-5.9961 0.586,-3.8477 1.192,-5.332 1.582,-6.0938 h -4.14 c -0.586,0.7618 -1.172,3.0469 -1.68,6.2891 -0.586,3.1445 -2.16,4.3359 -5.313,4.3359 h -2.754 z m 4.129,31.6211 c -9.754,0 -17.734,-8.3789 -17.734,-18.7304 0,-10.5469 7.98,-18.80864 17.832,-18.80864 9.855,-0.11718 17.734,8.26174 17.734,18.71094 0,10.4492 -7.879,18.8281 -17.734,18.8281 z m 0.098,3.4571 c 12.121,0 21.777,-9.8633 21.777,-22.1875 0,-12.5 -9.656,-22.26567 -21.875,-22.26567 -12.117,0 -21.961,9.76567 -21.961,22.26567 0,12.3242 9.844,22.1875 21.961,22.1875 h 0.098" /></g></g></svg>