<svg id="Layer_1" data-name="Layer 1" xmlns="http://www.w3.org/2000/svg" viewBox="0 0 215.92 63.86"><defs><style>.cls-1{fill:#515254;}</style></defs><path class="cls-1" d="M36.3,38.3H34.6c-.47-3,.58-4-4.07-4h-3v9.36c0,2.09,0,2.63,3.71,2.63v1.32c-1.82,0-3.64,0-5.45-.08s-3.64,0-5.46.08V46.31c3.75,0,3.71-.54,3.71-2.63V24.8c0-2.09,0-2.63-3.71-2.63V20.85h21v6.81h-2c-.31-4.91-.31-5.34-5.23-5.34H27.52V33h3c3.49,0,4.07-.23,4.07-4h1.7Z" transform="translate(-20.32 -20.27)"/><path class="cls-1" d="M154,32.5c3.67,1.32,6.92,3,6.92,7.47,0,6.31-5.26,8-10.6,8a20.63,20.63,0,0,1-8.36-1.66v-7h2.6c.38,3.79-.58,7.35,6.27,7.35,3.4,0,6.61-1.55,6.61-5.41,0-4.3-4.18-5.27-7.5-6.43-3.64-1.31-6.89-2.63-6.89-7.12,0-5.14,4.18-7.39,8.82-7.39a22.31,22.31,0,0,1,8,1.47v6.35h-2.17c-.38-3,.31-6.35-5.65-6.35-3.09,0-5.6,1.36-5.6,4.76,0,2.29,1.08,3.56,3.13,4.41Z" transform="translate(-20.32 -20.27)"/><path class="cls-1" d="M58.6,27.37H42.75v1.18h.1c1.46,0,2.12.11,2.42.41s.27.73.27,1.42V44.59c0,.74,0,1.2-.27,1.47s-1,.41-2.42.41h-.1v1.18h16V41.54H57v.08c-.4,4-.56,4.53-3.53,4.59h-5.1V37.67h2.17c2.72,0,2.75.4,2.83,1.75l.13,1.24h1.46V33.49H53.46v.1c0,2.73-.34,2.89-3,2.89H48.34V28.67h4.81c3.57,0,3.59.22,3.82,3.85v.09l.1.06H58.7v-5.3Z" transform="translate(-20.32 -20.27)"/><path class="cls-1" d="M81.28,46.52a3.18,3.18,0,0,1-2.57-1.62l-.18-.22c-.83-1.09-4.11-6-5.06-7.51,3.45-.43,5.08-2.06,5.08-5.17,0-4.29-2.64-4.63-6.37-4.63l-5.48.06-4.19-.06v1.18h.1c1.47,0,2.12.11,2.42.41s.27.73.27,1.42V44.65c0,.74,0,1.2-.27,1.47s-1,.4-2.42.4h-.1v1.19l4.19-.06,4.19.06V46.52h-.1c-1.46,0-2.12-.11-2.42-.4s-.27-.71-.27-1.38V37.61h.13a5.54,5.54,0,0,1,1.86.19c.36.13,1.72,1.58,6.89,9.86a11.2,11.2,0,0,0,1.14,0l1.06,0,2.18.06V46.53Zm-11.88-10h-.28l-1-.06V28.7l1,0,2.17-.05c3.14,0,4.14.94,4.14,3.85C75.42,36.2,72.93,36.48,69.4,36.48Z" transform="translate(-20.32 -20.27)"/><path class="cls-1" d="M101.5,46.52a3.18,3.18,0,0,1-2.57-1.62l-.18-.22c-.83-1.09-4.11-6-5-7.51,3.45-.43,5.08-2.06,5.08-5.17,0-4.29-2.64-4.63-6.37-4.63l-5.48.06-4.19-.06v1.18h.1c1.46,0,2.12.11,2.42.41s.27.73.27,1.42V44.65c0,.74,0,1.2-.27,1.47s-1,.4-2.42.4h-.1v1.19l4.19-.06,4.18.06V46.52H91c-1.47,0-2.13-.11-2.43-.4s-.26-.71-.26-1.38V37.61h.12a5.57,5.57,0,0,1,1.87.19c.35.13,1.72,1.58,6.88,9.86a11.4,11.4,0,0,0,1.15,0l1.06,0,2.18.06V46.53Zm-11.87-10h-.29l-1-.06V28.7l1,0,2.17-.05c3.14,0,4.14.94,4.14,3.85C95.65,36.2,93.15,36.48,89.63,36.48Z" transform="translate(-20.32 -20.27)"/><path class="cls-1" d="M111.85,27.37l-4.09.06-4.19-.06v1.18h.1c2.22,0,2.69.07,2.69,1.88V44.65c0,1.81-.47,1.87-2.69,1.87h-.1v1.19l4.19-.06,4.19.06V46.52h-.1c-2.22,0-2.69-.06-2.69-1.87V30.43c0-1.81.52-1.88,2.69-1.88h.1V27.37Z" transform="translate(-20.32 -20.27)"/><path class="cls-1" d="M116.25,32.64c0,3.53,2.66,4.5,5.23,5.42l.71.25c2.39.8,4.86,1.63,4.86,4.48s-2.51,4-4.87,4c-4.3,0-4.4-1.86-4.52-4.22l-.09-1.3h-2.13v5.34a14.49,14.49,0,0,0,6.37,1.35c3.67,0,8-1.06,8-6.08,0-3.51-2.59-4.74-5.26-5.69L121.26,35A3.16,3.16,0,0,1,119,31.77c0-2.21,1.5-3.48,4.11-3.48,3.76,0,3.9,1.81,4,3.73l.1,1H129V28.13l-.06,0A16.8,16.8,0,0,0,123,27C119.72,27,116.25,28.48,116.25,32.64Z" transform="translate(-20.32 -20.27)"/><path class="cls-1" d="M180.36,27.43H162.85v5.3h1.63v-.08c.6-4,.75-4,4.61-3.93h1.15V44.65c0,1.82-.45,1.87-2.84,1.87h-.09v1.19l4.33-.06,4.33.06V46.52h-.09c-2.39,0-2.84-.05-2.84-1.87V28.73h1.11c4,0,4,0,4.65,3.93v.08h1.63v-5.3Z" transform="translate(-20.32 -20.27)"/><path class="cls-1" d="M201.33,46.52c-2.08.16-2.84-1.92-3.2-2.91l-.07-.19-6.12-16h-2c-.09.06-6.33,15.21-6.33,15.21l-.22.51a17.54,17.54,0,0,1-1.21,2.51,1.92,1.92,0,0,1-1.68.76l-.56.06v1.23l3.52-.06,3.52.06V46.47h-.16a3,3,0,0,1-2-.43,1,1,0,0,1-.27-.75l.26-1.25s1.65-4.61,1.77-5h6.9c0,.16,1.8,4.78,1.8,4.78l.12.3a3.33,3.33,0,0,1,.34,1.26.68.68,0,0,1-.22.49,4,4,0,0,1-2.21.55h-.1v1.24l4.1-.06,4.07.06V46.52Zm-14.24-8.73,3-7.39c.17.42,2.82,7.23,2.82,7.23l.06.16Z" transform="translate(-20.32 -20.27)"/><path class="cls-1" d="M217.93,27.43h-17.5v5.3h1.63v-.08c.6-4,.75-4,4.6-3.93h1.16V44.65c0,1.82-.45,1.87-2.84,1.87h-.1v1.19l4.34-.06,4.33.06V46.52h-.09c-2.39,0-2.84-.05-2.84-1.87V28.73h1.11c4,0,4,0,4.65,3.93v.08H218v-5.3Z" transform="translate(-20.32 -20.27)"/><path class="cls-1" d="M236.14,27.37H220.28v1.18h.1c1.47,0,2.13.11,2.42.41s.27.73.27,1.42V44.59c0,.74,0,1.2-.27,1.47s-1,.41-2.42.41h-.1v1.18h16V41.54h-1.73v.08c-.39,4-.56,4.53-3.53,4.59h-5.09V37.67H228c2.72,0,2.75.4,2.84,1.75l.12,1.24h1.46V33.49H231v.1c0,2.73-.33,2.89-3,2.89h-2.16V28.67h4.8c3.58,0,3.59.22,3.82,3.85v.09l.09.06h1.64v-5.3Z" transform="translate(-20.32 -20.27)"/><path class="cls-1" d="M37.55,75c-.08,5.15,2.09,7.7,7.39,7.7,5.68,0,8.39-2.32,8.39-8.28V60.92c0-2.28,0-2.63-4.18-2.63V57c1.59,0,3.21,0,4.8.08s3.21,0,4.8-.08v1.32c-3.56,0-3.48.66-3.48,2.63v13.5c0,7.55-4.11,9.71-11.53,9.71-6,0-9.68-2.43-9.68-8.66V60.92c0-2,.08-2.63-3.52-2.63V57c1.63,0,3.45,0,5.26.08s3.64,0,5.46-.08v1.32c-3.75,0-3.71.54-3.71,2.63Z" transform="translate(-20.32 -20.27)"/><path class="cls-1" d="M60,63.67v1.08h.09c2,0,2.58.08,2.58,1.88V80.85c0,1.74-.39,1.87-2.58,1.87H60V83.9l3.49-.06L67,83.9V82.72h-.1c-2.18,0-2.57-.13-2.57-1.87V67.09L77,83.81l2,0h.09V66.63c0-1.76.3-1.88,2.4-1.88h.1V63.57l-3.41.06-3.4-.06v1.18h.1c2.18,0,2.57.14,2.57,1.88V80L65.17,63.61c-.08,0-1.32,0-1.32,0l-1.23,0L60,63.57Z" transform="translate(-20.32 -20.27)"/><path class="cls-1" d="M92.77,63.57l-4.08.06-4.19-.06v1.18h.1c2.22,0,2.68.06,2.68,1.88V80.85c0,1.81-.46,1.87-2.68,1.87h-.1V83.9l4.19-.06,4.18.06V82.72h-.09c-2.22,0-2.69-.06-2.69-1.87V66.63c0-1.81.51-1.88,2.69-1.88h.09V63.57Z" transform="translate(-20.32 -20.27)"/><path class="cls-1" d="M114.86,63.57l-3.16.06-3.26-.06v1.11l.46.06c.74.09,1.74.22,1.8.94a1.39,1.39,0,0,1,0,.3,3.74,3.74,0,0,1-.14.91s-4.15,11.85-4.78,13.67l-4.9-13.68a4,4,0,0,1-.27-1.17s0-.08,0-.12c0-.72.94-.79,1.77-.85l.64-.06V63.57l-4.16.06-4.16-.06v1.12h.1c1.58,0,1.9.16,2.69,2.26l6.32,16.89h2C106,83.78,112.48,67,112.48,67c.55-1.7.73-1.86,2.4-2.26l.08,0v-1.1Z" transform="translate(-20.32 -20.27)"/><path class="cls-1" d="M132.39,63.57H116.53v1.18h.1c1.47,0,2.12.11,2.42.41s.27.73.27,1.42V80.79c0,.74,0,1.2-.27,1.46s-1,.42-2.42.42h-.1v1.17h15.95V77.73h-1.72v.09c-.4,4-.56,4.53-3.53,4.59h-5.1V73.86h2.17c2.72,0,2.75.41,2.84,1.76l.12,1.24h1.46V69.69h-1.47v.1c0,2.73-.33,2.89-2.95,2.89h-2.17V64.87h4.81c3.58,0,3.59.21,3.82,3.85v.09l.09.06h1.63v-5.3Z" transform="translate(-20.32 -20.27)"/><path class="cls-1" d="M155.06,82.72a3.18,3.18,0,0,1-2.57-1.62l-.18-.23c-.83-1.08-4.11-6-5.06-7.5,3.45-.43,5.08-2.07,5.08-5.18,0-4.29-2.64-4.62-6.36-4.62l-5.49.06-4.18-.06v1.18h.09c1.47,0,2.13.11,2.42.41s.27.73.27,1.42V80.85c0,.74,0,1.2-.27,1.46s-.95.41-2.42.41h-.09V83.9l4.19-.06,4.18.06V82.72h-.1c-1.46,0-2.12-.11-2.42-.41s-.26-.7-.26-1.37V73.81H142a5.57,5.57,0,0,1,1.87.19c.35.13,1.72,1.58,6.88,9.86a11.21,11.21,0,0,0,1.15,0l1.05,0,2.19.06V82.73Zm-11.88-10h-.28l-1-.06V64.89l1,0,2.18,0c3.13,0,4.14.93,4.14,3.85C149.21,72.4,146.71,72.68,143.18,72.68Z" transform="translate(-20.32 -20.27)"/><path class="cls-1" d="M157.68,68.83c0,3.54,2.66,4.5,5.23,5.43l.7.24c2.39.81,4.87,1.63,4.87,4.49s-2.52,4-4.87,4c-4.3,0-4.4-1.86-4.52-4.22l-.09-1.3h-2.13v5.35a14.45,14.45,0,0,0,6.36,1.34c3.67,0,8.05-1,8.05-6.07,0-3.51-2.6-4.74-5.26-5.69l-3.33-1.19A3.17,3.17,0,0,1,160.4,68c0-2.2,1.5-3.47,4.11-3.47,3.76,0,3.9,1.81,4.05,3.73l.1,1h1.81V64.32l-.06,0a17,17,0,0,0-6-1.11C161.15,63.19,157.68,64.68,157.68,68.83Z" transform="translate(-20.32 -20.27)"/><path class="cls-1" d="M183.72,63.57l-4.09.06-4.19-.06v1.18h.1c2.22,0,2.69.06,2.69,1.88V80.85c0,1.81-.47,1.87-2.69,1.87h-.1V83.9l4.19-.06,4.19.06V82.72h-.1c-2.22,0-2.69-.06-2.69-1.87V66.63c0-1.81.51-1.88,2.69-1.88h.1V63.57Z" transform="translate(-20.32 -20.27)"/><path class="cls-1" d="M204.67,63.63h-17.5v5.3h1.62l0-.08c.59-4,.75-4,4.6-3.93h1.16V80.85c0,1.82-.46,1.87-2.84,1.87h-.1V83.9l4.34-.06,4.33.06V82.72h-.1c-2.38,0-2.83,0-2.83-1.87V64.92h1.11c4,0,4,0,4.65,3.93v.08h1.63v-5.3Z" transform="translate(-20.32 -20.27)"/><path class="cls-1" d="M225.91,63.57l-3.13.06-3.23-.06v1.12h.1c.63,0,2,0,2,.89v.06a2.3,2.3,0,0,1-.51,1.22s-3.48,6.1-3.89,6.83l-4.3-7.08-.1-.16a1.29,1.29,0,0,1-.31-.71s0-.09,0-.14c.14-.78.92-.83,1.9-.88l.55,0V63.57l-4.36.06-4.39-.06v1.11h.09c2.11.19,2.73,1.19,4.1,3.37l.93,1.47h0l2.76,4.39a3.07,3.07,0,0,1,.71,2.35v4.59c0,1.82-.45,1.87-2.86,1.87h-.1V83.9l4.36-.06,4.36.06V82.72h-.09c-2.41,0-2.86,0-2.86-1.87V76.38a3.71,3.71,0,0,1,.59-1.87l4.06-6.44.52-.86c.81-1.4,1.35-2.33,3.15-2.52H226V63.57Z" transform="translate(-20.32 -20.27)"/></svg>