<svg xmlns="http://www.w3.org/2000/svg" viewBox="0 0 250.39 94.74"><defs><style>.cls-1{fill:#fff;}.cls-2{fill:#232d65;}.cls-3{fill:#3a4a53;}</style></defs><title>Layer 1</title><g id="Layer_2" data-name="Layer 2"><g id="Layer_1-2" data-name="Layer 1"><path class="cls-1" d="M56.5,45.55H88l-25.39,19,9.85,30.18L47.2,76.14,21.92,94.74l9.72-30.47L6.28,45.55h31.4L47.2,16.11Z"/><polygon class="cls-2" points="20.14 54.68 26.55 52.21 23.65 45.55 6.28 45.55 31.64 64.27 28.68 56.92 20.14 54.68"/><polygon class="cls-2" points="61.4 75.42 61.85 84.13 54.78 75.31 43.84 75.17 50.3 69.78 43.57 61.07 54.05 66.63 60.13 61.47 60.97 70.11 65.08 72.08 62.62 64.56 88.01 45.55 56.5 45.55 47.2 16.11 37.68 45.55 24.18 45.55 30.35 50.76 36.83 48.28 34.96 54.25 42.44 60.35 33.63 58.3 31.64 64.27 21.92 94.74 47.2 76.14 72.47 94.74 66.18 75.47 61.4 75.42"/><path class="cls-3" d="M15.37,35.3l5.51-.4L18.2,38.59l4.57,5.18-6.24-2.9-2.84,3.72L12.77,39l-6.2-3.08,5.5-.4-1-5.37Z"/><path class="cls-3" d="M7.12,22.24l4.32,1.25L8.35,24.84l2,4.12L6.46,25.67,3.33,27l.81-3.39L.32,20.2l4.24,1.28.69-3.25Z"/><path class="cls-3" d="M4.66,11.55l3,2.15-2.94-.5,0,2.64L2.9,12.89,0,12.36l1.82-1.28L0,8.08l2.9,2.18L4.62,9Z"/><path class="cls-3" d="M6.6,3.59l2.17.13-1,1.36L9.65,7.45,7.16,5.92l-1,1.36L5.64,5,3.14,3.39l2.16.12L4.8,1.27Z"/><path class="cls-3" d="M13.29,1.79l2,.9-1.48.25.82,1.85L12.9,3.1l-1.49.25.45-1.29L10.13.33l2,.91L12.51,0Z"/><path class="cls-3" d="M21.46,2.5l1.88,1.17-1.67-.22L22,5,20.66,3.32,19,3.09l.85-.79L18.49.61l1.85,1.18.8-.76Z"/><path class="cls-3" d="M30,4.48l1-.44L31,5.22l1.65,1.17L31,5.94l0,1.16L30,5.65l-1.63-.48,1-.43-1-1.42Z"/><path class="cls-3" d="M40,8.62l1-.23-.09.91,1.44,1.08-1.5-.52-.12.91-.8-1.23L38.38,9l1-.23-.79-1.2Z"/><path class="cls-3" d="M79.86,36.77A10,10,0,0,0,87,34.31h.12L85,39.68H67.43v-.12c2.06-.73,1.82-3.72,1.82-5.53V18.81c0-1.86.24-4.81-1.82-5.57v-.12h7.71v.12c-2.06.76-1.77,3.75-1.77,5.57v17.6Z"/><path class="cls-3" d="M120.4,34.83c0,2.09,0,3.58,1.94,4.73v.12h-6.59v-.12c2-1.15,2-2.64,2-4.73V20c0-2.09,0-3.58-1.94-4.7v-.11h5.44v0a2.32,2.32,0,0,0,.56.93l.52.75,13.64,17.21V20c0-2.09,0-3.58-1.94-4.7v-.11h6.56v.11c-1.94,1.12-1.94,2.61-1.94,4.7v20.9c-2.64-.89-3.8-2.12-5.44-4.25L120.4,20.42Z"/><path class="cls-3" d="M157.29,19.6a8.48,8.48,0,0,0-5.85-2.35c-2.12,0-4.81.82-4.81,3.39,0,5.1,12.82,5,12.82,11.92,0,4-4.17,7.71-10,7.71a19.29,19.29,0,0,1-6.66-1.11l-1.08-4.66a12.87,12.87,0,0,0,8.16,3.09c2.12,0,5.32-1.27,5.32-3.87,0-5.82-12.81-4.77-12.81-12.67,0-4.69,4.8-6.48,9.35-6.48a18.7,18.7,0,0,1,5.55.82Z"/><path class="cls-3" d="M162.78,20.42c0-1.72.26-4.44-1.64-5.15v-.11h7.07v.11c-1.86.71-1.64,3.47-1.64,5.15v14c0,1.68-.22,4.4,1.64,5.1v.12h-7.07v-.12c1.86-.66,1.64-3.42,1.64-5.1Z"/><path class="cls-3" d="M175.33,34.83c0,2.09,0,3.58,1.94,4.73v.12h-6.6v-.12c2-1.15,2-2.64,2-4.73V20c0-2.09,0-3.58-1.94-4.7v-.11h5.44v0a2.32,2.32,0,0,0,.56.93l.52.75,13.64,17.21V20c0-2.09,0-3.58-1.94-4.7v-.11h6.56v.11c-1.94,1.12-1.94,2.61-1.94,4.7v20.9c-2.65-.89-3.8-2.12-5.44-4.25l-12.78-16.2Z"/><path class="cls-3" d="M129.29,80.08c0,7.81-6.47,13.48-14.09,13.48s-14-5.44-14-13.29c0-7.27,6.33-13.36,14.37-13.17C123.62,67.06,129.29,73.19,129.29,80.08Zm-23.71-.15c0,5.36,3.79,10.87,9.81,10.87,5.82,0,9.53-4.25,9.53-10s-3.56-11-9.61-11S105.58,74.15,105.58,79.93Z"/><path class="cls-3" d="M142.41,90.07a9.45,9.45,0,0,0,6.78-2.34h.11l-2,5.1H130.57v-.12c2-.69,1.72-3.52,1.72-5.25V73c0-1.76.23-4.55-1.72-5.28v-.12h7.31v.12c-1.95.73-1.68,3.56-1.68,5.28v16.7Z"/><path class="cls-3" d="M162.28,90.07a9.42,9.42,0,0,0,6.78-2.34h.12l-2,5.1H150.44v-.12c2-.69,1.73-3.52,1.73-5.25V73c0-1.76.23-4.55-1.73-5.28v-.12h7.32v.12c-1.95.73-1.69,3.56-1.69,5.28v16.7Z"/><path class="cls-3" d="M175.91,89.61l5.87.46a9.58,9.58,0,0,0,7.09-2.26H189l-1.72,5h-17v-.12c2-.69,1.73-3.52,1.73-5.25V73c0-1.76.23-4.55-1.73-5.28v-.12h15.33a3.85,3.85,0,0,0,1.8-.19h.12v4.48h-.12c-1.18-1.37-2.75-1.53-4.52-1.53a69.52,69.52,0,0,0-7,.27v8.12h6.6a4,4,0,0,0,1.69-.23h.11V82.6h-.11c-.62-1.11-2.23-1.07-3.41-1.07h-4.88Z"/><path class="cls-3" d="M221.83,89.61l5.87.46a9.58,9.58,0,0,0,7.09-2.26h.11l-1.72,5h-17v-.12c2-.69,1.73-3.52,1.73-5.25V73c0-1.76.23-4.55-1.73-5.28v-.12h15.33a3.85,3.85,0,0,0,1.8-.19h.12v4.48h-.12c-1.18-1.37-2.75-1.53-4.52-1.53a69.52,69.52,0,0,0-7,.27v8.12h6.6a3.9,3.9,0,0,0,1.68-.23h.12V82.6h-.12c-.61-1.11-2.22-1.07-3.4-1.07h-4.88Z"/><path class="cls-3" d="M110.79,34.27,103,15.16H97.15v.11c1.79.56,1.08,2.13.56,3.47L91.49,34.27c-.82,2.13-1.45,4.22-3.62,5.29v.12h6.86v-.12c-1.79-.66-1.53-1.75-.75-3.83l1.34-3.67h10.59l1.41,3.67c1,2.61,1.31,3-.52,3.83v.12h7.64v-.12C112.31,38.49,111.64,36.4,110.79,34.27Zm-14.47-5,.57-1.58,3.69-9.39,3.65,9.39.61,1.58Z"/><path class="cls-3" d="M220.94,29.91a4.55,4.55,0,0,1,.18-1.6V28.2h-5.7v.11c1.68.67,1.72,2.5,1.72,4.21v4.36a18.71,18.71,0,0,1-5.18.71A10.49,10.49,0,0,1,201.3,27.05a9.48,9.48,0,0,1,2.85-7l.25-.23a10.66,10.66,0,0,1,7.15-2.52h.36a12.94,12.94,0,0,1,2.53.35c2.2.54,4.83,1.72,5.91,3.75l.1,0,0-.06V16.24a27.3,27.3,0,0,0-4.85-1.36,19.25,19.25,0,0,0-2.88-.29l-.3,0h-.11a19,19,0,0,0-3.05.22h-.11l-.24,0a16.62,16.62,0,0,0-4,1.1l-.19.09-.27.11v0l-.25.11h0a12,12,0,0,0-7.19,11.3c0,7.49,5.63,12.7,15.17,12.7a48.79,48.79,0,0,0,8.9-1.11,4.33,4.33,0,0,1-.18-1.68Z"/><path class="cls-3" d="M213.91,82.78a4.57,4.57,0,0,1,.19-1.65V81h-5.87v.12c1.73.69,1.77,2.57,1.77,4.33V90a19.41,19.41,0,0,1-5.33.73,10.79,10.79,0,0,1-11-10.85,9.77,9.77,0,0,1,2.92-7.25c.08-.09.18-.16.26-.24a11,11,0,0,1,7.36-2.59h.37a13.54,13.54,0,0,1,2.6.35c2.27.56,5,1.78,6.08,3.87l.11,0,0,0V68.71a28.06,28.06,0,0,0-5-1.41,20.3,20.3,0,0,0-3-.29l-.31,0h-.11a20.15,20.15,0,0,0-3.15.22l-.11,0-.25,0a16.62,16.62,0,0,0-4.07,1.13l-.2.09-.28.11v0l-.25.12h0a12.36,12.36,0,0,0-7.39,11.63c0,7.7,5.79,13.07,15.6,13.07a50,50,0,0,0,9.16-1.15,4.38,4.38,0,0,1-.19-1.73Z"/><path class="cls-3" d="M100.14,73l.11,0,0-.06V67.51A30.8,30.8,0,0,0,95,66a21,21,0,0,0-3.1-.31l-.33,0h-.12A20.62,20.62,0,0,0,88.2,66h-.13a2.13,2.13,0,0,1-.25,0,17.89,17.89,0,0,0-4.27,1.19l-.21.09-.29.13h0l-.26.13h0c-4.78,2.26-8.05,6.52-8.05,12.19S78,89.67,82.76,91.93h0l.26.13h0l.29.13.21.09a17.89,17.89,0,0,0,4.27,1.19l.25,0h.13a20.62,20.62,0,0,0,3.29.24h.12l.33,0a21,21,0,0,0,3.1-.31A30.8,30.8,0,0,0,100.27,92V86.5l0-.07-.11,0c-1.16,2.19-4,3.47-6.38,4.05a12.63,12.63,0,0,1-2.72.37h-.4a11.5,11.5,0,0,1-7.71-2.72c-.09-.09-.19-.16-.27-.25a1.59,1.59,0,0,0-.13-.13,8.49,8.49,0,0,1-2.08-3.07l-.1-.25-.21-.59c0-.12-.08-.24-.11-.36A13.67,13.67,0,0,1,80,76c0-.12.07-.23.11-.35l.21-.59c0-.09.07-.18.1-.26a8.45,8.45,0,0,1,2.08-3.06l.13-.14a3.08,3.08,0,0,1,.27-.24,11.45,11.45,0,0,1,7.71-2.73H91a13.28,13.28,0,0,1,2.72.37C96.14,69.55,99,70.83,100.14,73Z"/><path class="cls-3" d="M131.71,53.78a8.85,8.85,0,0,1-9.14,8.74c-4.91,0-9.06-3.52-9.06-8.61a8.82,8.82,0,0,1,9.31-8.54A8.56,8.56,0,0,1,131.71,53.78Zm-15.37-.1c0,3.48,2.46,7,6.36,7s6.18-2.75,6.18-6.45-2.31-7.13-6.23-7.13S116.34,49.93,116.34,53.68Z"/><path class="cls-3" d="M171.35,47.26a4.33,4.33,0,0,0,.37-1.54v0H176v.07c-.6.18-.77.9-.77,1.47l1.63,12.19A3,3,0,0,0,178.15,62V62h-4.79V62c.87-.27,1-1,1-1.86l-1.42-12L167.4,62.36a6,6,0,0,1-2.18-3L160.5,48.16l-1.42,10.67c-.2,1.52-.37,2.61.8,3.13V62h-4V62c1-.92,1.19-2.13,1.39-3.48l1.42-10.4c.1-.69.37-1.69-.77-2.31V45.7h4.34v0a2.93,2.93,0,0,0,.35,1.12l4.67,10.95Z"/><path class="cls-3" d="M190.44,60.4a6.2,6.2,0,0,1-4.87,2,6.09,6.09,0,0,1-4.49-1.74c-1.31-1.44-1.27-3.1-1.27-4.89V49.17c0-1.11.18-2.93-1.09-3.4V45.7h4.72v.07c-1.24.47-1.09,2.29-1.09,3.4V55.8c0,3.31,1.39,4.84,3.94,4.84a4.4,4.4,0,0,0,3.63-1.73,3.27,3.27,0,0,0,.52-2.26V49.17c0-1.11.15-2.93-1.09-3.4V45.7h4.71l0,.07c-1.27.47-1.12,2.29-1.12,3.43v9.36c0,1.12-.15,2.93,1.12,3.4V62h-3.65Z"/><path class="cls-3" d="M198.93,58.81c0,1.39,0,2.38,1.29,3.15V62h-4.39V62c1.31-.77,1.31-1.76,1.31-3.15V48.9c0-1.39,0-2.38-1.29-3.13V45.7h3.63v0a1.51,1.51,0,0,0,.37.62l.35.5,9.08,11.47V48.9c0-1.39,0-2.38-1.29-3.13V45.7h4.37v.07c-1.29.75-1.29,1.74-1.29,3.13V62.83A6.89,6.89,0,0,1,207.45,60l-8.52-10.8Z"/><path class="cls-3" d="M214.89,49.2c0-1.14.18-3-1.09-3.43V45.7h4.72v.07c-1.24.47-1.09,2.31-1.09,3.43v9.36c0,1.12-.15,2.93,1.09,3.4V62H213.8V62c1.24-.45,1.09-2.28,1.09-3.4Z"/><path class="cls-3" d="M228.29,58.81c0,1.41,0,2.38,1.29,3.15V62h-4.92V62c1.24-.47,1.09-2.28,1.09-3.4V47.49h-3.22a4.31,4.31,0,0,0-2.95,1h-.08l.87-3h.08a3.72,3.72,0,0,0,.94.18h12a2.76,2.76,0,0,0,1.14-.18h.07l-.79,3h-.08c-.32-.87-1.31-1-2.13-1h-3.27Z"/><path class="cls-3" d="M244.28,58.81c0,1.49,0,2.23,1.27,3.15V62h-4.84V62c1.21-.62,1-2.23,1-3.4V54.88l-4.12-6.62a6,6,0,0,0-2.36-2.56h2.26a2.12,2.12,0,0,1,1.86.69l4,6.48,3.08-4.61c.42-.63,1-1.82-.4-2.49V45.7h4.35l-6.11,9.18Z"/><path class="cls-3" d="M148,47.19a4.33,4.33,0,0,0,.37-1.54v0h4.3v.08c-.6.17-.77.89-.77,1.46l1.63,12.19a3,3,0,0,0,1.27,2.54V62H150v-.07c.87-.28,1-1,1-1.87l-1.42-12-5.56,14.22a6,6,0,0,1-2.19-3l-4.71-11.2-1.42,10.68c-.2,1.51-.37,2.61.8,3.13V62h-4.05v-.07c1-.92,1.19-2.14,1.39-3.48L135.32,48c.1-.7.37-1.69-.77-2.31v-.08h4.34v0a2.93,2.93,0,0,0,.35,1.12l4.67,10.94Z"/><path class="cls-3" d="M112,48.54l.08,0V44.7a20.09,20.09,0,0,0-3.64-1,13.65,13.65,0,0,0-2.17-.22l-.23,0H106a14.2,14.2,0,0,0-2.29.16h-.09l-.18,0a12.27,12.27,0,0,0-3,.83l-.15.06-.2.09h0l-.19.09h0a9.24,9.24,0,0,0,0,17h0l.19.09h0l.2.09.15.06a12.27,12.27,0,0,0,3,.83l.18,0h.09A15.42,15.42,0,0,0,106,63h.08l.23,0a14.88,14.88,0,0,0,2.17-.21,21,21,0,0,0,3.64-1V57.89l-.08,0c-.81,1.52-2.78,2.41-4.44,2.82a10.33,10.33,0,0,1-1.9.26h-.28a8,8,0,0,1-5.37-1.9,1.45,1.45,0,0,1-.19-.17l-.09-.09a5.82,5.82,0,0,1-1.45-2.14s0-.11-.07-.17l-.15-.41a1.83,1.83,0,0,0-.08-.25,9.75,9.75,0,0,1,0-5.25c0-.09.06-.17.08-.25l.15-.41.07-.18a5.82,5.82,0,0,1,1.45-2.14l.09-.09.19-.17a8,8,0,0,1,5.37-1.9h.28a9.52,9.52,0,0,1,1.9.25C109.22,46.12,111.19,47,112,48.54Z"/></g></g></svg>