<svg id="layer" xmlns="http://www.w3.org/2000/svg" viewBox="0 0 512.5 167.5"><defs><style>.cls-1{fill:#00468b;}.cls-2{fill:none;stroke:#00468b;stroke-miterlimit:3.86;stroke-width:1.28px;}</style></defs><polygon class="cls-1" points="12.8 26.2 18.2 33.3 31.5 59 13.8 39.8 12.8 26.2"/><polygon class="cls-1" points="6.2 37.5 12.4 44.2 31.5 69 8.8 50.1 6.2 37.5"/><polygon class="cls-1" points="59.9 0 64.6 91 52.9 11.6 59.9 0"/><polygon class="cls-1" points="33.4 8 61.6 91.7 30.5 21.6 33.4 8"/><polygon class="cls-1" points="22.1 16 60 92.4 20.9 29.9 22.1 16"/><polygon class="cls-1" points="1.7 50.2 7.6 54.2 31.5 77 6 61.6 1.7 50.2"/><polygon class="cls-1" points="0 63.1 5.6 65.7 31.5 84 5.5 73.5 0 63.1"/><polygon class="cls-1" points="0.8 75.8 6 77.3 31.5 90.2 7.3 84.9 0.8 75.8"/><path class="cls-1" d="M39.4,133.8c1.2-.4,42.7-8.5,42.7-8.5L47.3,139Z" transform="translate(-22.5 -24.5)"/><polygon class="cls-1" points="26.2 117.5 61 101.5 34.4 121.6 26.2 117.5"/><polygon class="cls-1" points="37.1 124 62.5 102.1 45.1 126.6 37.1 124"/><polygon class="cls-1" points="48.6 128.4 64.1 102.4 57.1 129.3 48.6 128.4"/><polygon class="cls-1" points="46.2 2.6 63 91 41 15.5 46.2 2.6"/><path class="cls-1" d="M84,154.6c1.3-8.7,2.4-17.5,3.8-27.5,1.4,10.2,2.7,19.8,3.7,27.5a31.21,31.21,0,0,1-7.5,0" transform="translate(-22.5 -24.5)"/><polygon class="cls-1" points="4.2 88.3 8.3 88.6 31.5 96.4 11.4 96.4 4.2 88.3"/><polygon class="cls-1" points="9.5 99.1 58.2 99.1 17 105.8 9.5 99.1"/><polygon class="cls-1" points="117.5 26.2 112.2 33.3 98.8 59 116.5 39.8 117.5 26.2"/><polygon class="cls-1" points="124.2 37.5 117.9 44.2 98.8 69 121.5 50.1 124.2 37.5"/><polygon class="cls-1" points="70.4 0 65.8 91 77.4 11.6 70.4 0"/><polygon class="cls-1" points="96.9 8 68.7 91.7 99.8 21.6 96.9 8"/><polygon class="cls-1" points="108.2 16 70.3 92.4 109.4 29.9 108.2 16"/><polygon class="cls-1" points="128.6 50.2 122.7 54.2 98.8 77 124.3 61.6 128.6 50.2"/><polygon class="cls-1" points="130.3 63.1 124.7 65.7 98.8 84 124.8 73.5 130.3 63.1"/><polygon class="cls-1" points="129.5 75.8 124.4 77.3 98.8 90.2 123 84.9 129.5 75.8"/><path class="cls-1" d="M135.9,133.8c-1.2-.4-42.7-8.5-42.7-8.5L128,139Z" transform="translate(-22.5 -24.5)"/><polygon class="cls-1" points="104.1 117.5 69.3 101.5 95.9 121.6 104.1 117.5"/><polygon class="cls-1" points="93.2 124 67.8 102.1 85.2 126.6 93.2 124"/><polygon class="cls-1" points="81.7 128.4 66.2 102.4 73.2 129.3 81.7 128.4"/><polygon class="cls-1" points="84.1 2.6 67.3 91 89.3 15.5 84.1 2.6"/><polygon class="cls-1" points="126.1 88.3 122 88.6 98.8 96.4 118.9 96.4 126.1 88.3"/><polygon class="cls-1" points="120.8 99.1 72.1 99.1 113.3 105.8 120.8 99.1"/><polygon points="141.2 33.7 151 33.7 163.7 71 163.8 71 176.6 33.7 186.1 33.7 186.1 79.6 179.5 79.6 179.5 39.9 179.3 39.9 165.9 79.6 160.3 79.6 146.9 39.9 146.7 39.9 146.7 79.6 141.2 79.6 141.2 33.7"/><path d="M233.8,99.7h-.1a10.18,10.18,0,0,1-8.9,5.1c-5,0-8.6-3.5-8.6-7.9,0-9.8,13.5-10.2,17.7-10.4V83.7c0-3.5,0-9.2-4.5-9.2-4.1,0-4.9,3.2-5.1,6.9h-7.1c.3-4.7,2.2-9.7,12.2-9.7,10.3,0,11.2,5.8,11.2,12v20.4h-6.7V99.7Zm0-10.5c-2.8.2-10.4.8-10.4,6.7,0,2.9,1.7,4.7,3.9,4.7a7.22,7.22,0,0,0,6.5-7.6Z" transform="translate(-22.5 -24.5)"/><path d="M271.6,103.2a24.53,24.53,0,0,1-8.4,1.6c-10.1,0-15.9-6.1-15.9-17.8,0-9.4,4.3-15.3,13.4-15.3,8.5,0,11.4,4.5,11.4,11H265c0-3.8-.4-8.3-4.6-8.3-3.9,0-5.9,4.5-5.9,10.2,0,7.7,3.3,16.6,11.4,16.6a16.63,16.63,0,0,0,5.7-1.2Z" transform="translate(-22.5 -24.5)"/><path d="M275,88.2c0-10.7,4.7-16.6,14-16.6s14,5.9,14,16.6-4.7,16.6-14,16.6-14-5.9-14-16.6M289,102c6,0,6.7-8,6.7-13.8S295,74.4,289,74.4s-6.7,8-6.7,13.8S283,102,289,102" transform="translate(-22.5 -24.5)"/><path d="M309.9,72.4h6.7v7.5h.1c.7-2.4,3.5-8.3,9.6-8.3,5.6,0,7.7,4.5,7.9,7.9h.1c1.1-2.5,3.3-7.9,9.6-7.9,6.7,0,8,5.5,8,10.9V104h-6.7V83.6c0-3.7-.5-7-3.9-7-5.9,0-7.1,10.4-7.1,14.2V104h-6.7V84.2c0-4-.3-7.6-4-7.6-6.2,0-6.9,10.9-6.9,14.3V104h-6.7Z" transform="translate(-22.5 -24.5)"/><path d="M366.9,76.8h.1c1.4-2,3.5-5.1,8.9-5.1,8.5,0,11.9,7.2,11.9,16.7,0,11.7-5.7,16.4-14.1,16.4-12.4,0-13.5-8.3-13.5-16.4V58.2h6.7Zm6.8,25.2c5.5,0,6.8-7.2,6.8-13.6,0-5.6-1.3-12.8-6.8-12.8-5.3,0-6.5,6.9-6.5,12.8,0,8,1,13.5,6.5,13.6" transform="translate(-22.5 -24.5)"/><line class="cls-2" x1="5.3" y1="139.2" x2="512.5" y2="139.2"/><polygon points="6 145 14.4 145 14.4 146.6 7.9 146.6 7.9 152.4 14.1 152.4 14.1 154 7.9 154 7.9 160.6 14.6 160.6 14.6 162.2 6 162.2 6 145"/><path d="M46.8,184.7h0a3.5,3.5,0,0,1-3.2,2.3c-2.9,0-4.1-2.3-4.1-6.1,0-3.2,1.1-6.3,4.1-6.3a3.07,3.07,0,0,1,3.1,2.2h0v-7.3h1.7v17.2H46.7v-2Zm-2.8.8c2,0,2.8-2.7,2.8-4.7,0-2.6-.9-4.8-2.8-4.8s-2.5,2.7-2.5,5.2c0,1.5.2,4.3,2.5,4.3" transform="translate(-22.5 -24.5)"/><path d="M59.6,184h0c-.4,1-1.1,3-3.8,3-2.1,0-3.1-1.7-3.1-3.7v-8.5h1.7v6.6c0,2,0,3.9,1.8,3.9,2.3,0,3.4-3.4,3.4-5.6v-4.9h1.7v11.9H59.6Z" transform="translate(-22.5 -24.5)"/><path d="M73.7,186.6a9,9,0,0,1-2.5.3c-3.8,0-6.2-2.2-6.2-6.5,0-3.6,1.4-5.9,4.9-5.9,3.2,0,4.1,2,4.1,3.9H72c0-1.3-.5-2.5-2.1-2.5-2.2,0-2.8,2.3-2.8,4.1,0,2.3.8,5.4,4.8,5.4a6.82,6.82,0,0,0,1.9-.2v1.4Z" transform="translate(-22.5 -24.5)"/><path d="M83,185.1h0a4.29,4.29,0,0,1-3.7,1.9,3,3,0,0,1-3.2-3.3c0-2.8,3.6-3.7,5.7-3.7a4.87,4.87,0,0,0,1.2-.1,16.22,16.22,0,0,0-.1-2.3,2.1,2.1,0,0,0-2.2-1.7c-1.9,0-2.3,1-2.4,1.9H76.4c0-1.5,1-3.3,4.3-3.3,3.7,0,4,2.3,4,3.8v8.3H83Zm-1.1-3.8c-1.3,0-3.9.5-3.9,2.5a1.63,1.63,0,0,0,1.7,1.7,3.12,3.12,0,0,0,2.8-1.9,4.51,4.51,0,0,0,.5-2.4H81.9Z" transform="translate(-22.5 -24.5)"/><path d="M94.7,186.8a7.57,7.57,0,0,1-1.5.1c-2.4,0-3.3-.9-3.3-3.1v-7.7h-2v-1.4h2V172l1.7-1.1v3.8h3.2v1.4H91.6v7.3a1.76,1.76,0,0,0,2,2,3.73,3.73,0,0,0,1.2-.2v1.6Z" transform="translate(-22.5 -24.5)"/><path d="M97.7,169.5H100v2.2H97.7Zm.3,5.3h1.7v11.9H98Z" transform="translate(-22.5 -24.5)"/><path d="M103.4,180.8c0-3.5,1.4-6.2,4.9-6.2s4.9,2.8,4.9,6.2-1.4,6.2-4.9,6.2-4.9-2.7-4.9-6.2m4.9,4.7c2,0,3-1.8,3-4.8s-1-4.8-3-4.8-2.9,1.8-2.9,4.8.9,4.8,2.9,4.8" transform="translate(-22.5 -24.5)"/><path d="M116.8,174.8h1.7v2.8h0a3.76,3.76,0,0,1,3.8-3c2,0,3.1,1.7,3.1,3.7v8.5h-1.7v-6.6c0-2,0-3.9-1.8-3.9-2.3,0-3.4,3.4-3.4,5.6v4.9h-1.7v-12Z" transform="translate(-22.5 -24.5)"/><path d="M136.4,177.7a4.5,4.5,0,0,1,4.6-4.5,4.5,4.5,0,1,1,0,9,4.5,4.5,0,0,1-4.6-4.5" transform="translate(-22.5 -24.5)"/><polygon points="134.1 145 142.6 145 142.6 146.6 136.1 146.6 136.1 152.4 142.3 152.4 142.3 154 136.1 154 136.1 160.6 142.8 160.6 142.8 162.2 134.1 162.2 134.1 145"/><path d="M168.6,174.8h1.7v2.8h0a3.76,3.76,0,0,1,3.8-3c2,0,3.1,1.7,3.1,3.7v8.5h-1.7v-6.6c0-2,0-3.9-1.8-3.9-2.3,0-3.4,3.4-3.4,5.6v4.9h-1.7v-12Z" transform="translate(-22.5 -24.5)"/><path d="M181.5,174.8h1.7v2.3h0a4.12,4.12,0,0,1,4-2.6v1.8c-2.7,0-4.1,2.2-4.1,5.4v4.9h-1.7V174.8Z" transform="translate(-22.5 -24.5)"/><path d="M189.7,169.5H192v2.2h-2.3Zm.3,5.3h1.7v11.9H190Z" transform="translate(-22.5 -24.5)"/><path d="M204.1,186.6a9,9,0,0,1-2.5.3c-3.8,0-6.2-2.2-6.2-6.5,0-3.6,1.4-5.9,4.9-5.9,3.2,0,4.1,2,4.1,3.9h-2c0-1.3-.5-2.5-2.1-2.5-2.2,0-2.8,2.3-2.8,4.1,0,2.3.8,5.4,4.8,5.4a6.82,6.82,0,0,0,1.9-.2v1.4Z" transform="translate(-22.5 -24.5)"/><path d="M207.4,169.5h1.7v8.1h0a3.76,3.76,0,0,1,3.8-3c2,0,3.1,1.7,3.1,3.7v8.5h-1.7v-6.6c0-2,0-3.9-1.8-3.9-2.3,0-3.4,3.4-3.4,5.6v4.9h-1.7V169.5Z" transform="translate(-22.5 -24.5)"/><path d="M220.4,174.8h1.7v2.8h0c.3-1,1-3,3.4-3a2.66,2.66,0,0,1,3,2.7h0a3.73,3.73,0,0,1,3.4-2.7c2,0,3.1,1.7,3.1,3.7v8.5h-1.7v-6.6c0-2.1,0-3.9-1.8-3.9-2,0-3,3.4-3,5.6v4.9h-1.7v-6.6c0-2,0-3.9-1.8-3.9-2,0-3,3.4-3,5.6v4.9h-1.7v-12Z" transform="translate(-22.5 -24.5)"/><path d="M247.2,186.6a9.82,9.82,0,0,1-2.8.4c-3.7,0-5.8-2.2-5.8-6.6,0-3.5,1.5-5.8,4.7-5.8,2.8,0,4.2,1.9,4.2,4.5v.6h-6.9v.7c0,1.8.8,5.2,4.3,5.2a10.05,10.05,0,0,0,2.4-.3v1.3Zm-1.7-8.4a2.22,2.22,0,0,0-2.3-2.2,2.42,2.42,0,0,0-2.5,2.2Z" transform="translate(-22.5 -24.5)"/><path d="M251,174.8h1.7v2.8h0a3.76,3.76,0,0,1,3.8-3c2,0,3.1,1.7,3.1,3.7v8.5h-1.7v-6.6c0-2,0-3.9-1.8-3.9-2.3,0-3.4,3.4-3.4,5.6v4.9H251Z" transform="translate(-22.5 -24.5)"/><path d="M269.7,186.8a7.57,7.57,0,0,1-1.5.1c-2.4,0-3.3-.9-3.3-3.1v-7.7h-2v-1.4h2V172l1.7-1.1v3.8h3.2v1.4h-3.2v7.3a1.76,1.76,0,0,0,2,2,3.73,3.73,0,0,0,1.2-.2v1.6Z" transform="translate(-22.5 -24.5)"/><path d="M279.4,177.7a4.5,4.5,0,0,1,4.6-4.5,4.5,4.5,0,1,1,0,9,4.5,4.5,0,0,1-4.6-4.5" transform="translate(-22.5 -24.5)"/><polygon points="277.2 145 285.6 145 285.6 146.6 279.1 146.6 279.1 152.4 285.3 152.4 285.3 154 279.1 154 279.1 160.6 285.8 160.6 285.8 162.2 277.2 162.2 277.2 145"/><path d="M319.4,186.6a9,9,0,0,1-2.5.3c-3.8,0-6.2-2.2-6.2-6.5,0-3.6,1.4-5.9,4.9-5.9,3.2,0,4.1,2,4.1,3.9h-2c0-1.3-.5-2.5-2.1-2.5-2.2,0-2.8,2.3-2.8,4.1,0,2.3.8,5.4,4.8,5.4a6.82,6.82,0,0,0,1.9-.2v1.4Z" transform="translate(-22.5 -24.5)"/><path d="M321.9,180.8c0-3.5,1.4-6.2,4.9-6.2s4.9,2.8,4.9,6.2-1.4,6.2-4.9,6.2-4.9-2.7-4.9-6.2m4.8,4.7c2,0,3-1.8,3-4.8s-1-4.8-3-4.8-2.9,1.8-2.9,4.8,1,4.8,2.9,4.8" transform="translate(-22.5 -24.5)"/><path d="M335.2,174.8h1.7v2.8h0a3.76,3.76,0,0,1,3.8-3c2,0,3.1,1.7,3.1,3.7v8.5h-1.7v-6.6c0-2,0-3.9-1.8-3.9-2.3,0-3.4,3.4-3.4,5.6v4.9h-1.7Z" transform="translate(-22.5 -24.5)"/><path d="M347.3,180.8c0-3.5,1.4-6.2,4.9-6.2s4.9,2.8,4.9,6.2-1.4,6.2-4.9,6.2-4.9-2.7-4.9-6.2m4.9,4.7c2,0,3-1.8,3-4.8s-1-4.8-3-4.8-2.9,1.8-2.9,4.8,1,4.8,2.9,4.8" transform="translate(-22.5 -24.5)"/><path d="M360.7,174.8h1.7v2.8h0c.3-1,1-3,3.4-3a2.66,2.66,0,0,1,3,2.7h0a3.73,3.73,0,0,1,3.4-2.7c2,0,3.1,1.7,3.1,3.7v8.5h-1.7v-6.6c0-2.1,0-3.9-1.8-3.9-2,0-3,3.4-3,5.6v4.9h-1.7v-6.6c0-2,0-3.9-1.8-3.9-2,0-3,3.4-3,5.6v4.9h-1.7v-12Z" transform="translate(-22.5 -24.5)"/><path d="M379.6,169.5h2.3v2.2h-2.3Zm.3,5.3h1.7v11.9h-1.7Z" transform="translate(-22.5 -24.5)"/><path d="M394,186.6a9,9,0,0,1-2.5.3c-3.8,0-6.2-2.2-6.2-6.5,0-3.6,1.4-5.9,4.9-5.9,3.2,0,4.1,2,4.1,3.9h-2c0-1.3-.5-2.5-2.1-2.5-2.2,0-2.8,2.3-2.8,4.1,0,2.3.8,5.4,4.8,5.4a6.82,6.82,0,0,0,1.9-.2v1.4Z" transform="translate(-22.5 -24.5)"/><path d="M404.3,169.5h3.9c5.2,0,7.1,3.1,7.1,8.6,0,7.6-3.7,8.7-7.8,8.7h-3.3V169.5Zm2,15.6h1.3c3.4,0,5.6-1,5.6-7,0-6.2-2.4-7-5.8-7h-1.1Z" transform="translate(-22.5 -24.5)"/><path d="M426.8,186.6a9.82,9.82,0,0,1-2.8.4c-3.7,0-5.8-2.2-5.8-6.6,0-3.5,1.5-5.8,4.7-5.8,2.8,0,4.2,1.9,4.2,4.5v.6h-6.9v.7c0,1.8.8,5.2,4.3,5.2a10.05,10.05,0,0,0,2.4-.3v1.3Zm-1.6-8.4a2.22,2.22,0,0,0-2.3-2.2,2.42,2.42,0,0,0-2.5,2.2Z" transform="translate(-22.5 -24.5)"/><polygon points="406.3 150.3 408.1 150.3 411.7 159.7 411.7 159.7 414.8 150.3 416.6 150.3 412.6 162.2 410.8 162.2 406.3 150.3"/><path d="M449.5,186.6a9.82,9.82,0,0,1-2.8.4c-3.7,0-5.8-2.2-5.8-6.6,0-3.5,1.5-5.8,4.7-5.8,2.8,0,4.2,1.9,4.2,4.5v.6h-6.9v.7c0,1.8.8,5.2,4.3,5.2a10.05,10.05,0,0,0,2.4-.3v1.3Zm-1.7-8.4a2.22,2.22,0,0,0-2.3-2.2,2.42,2.42,0,0,0-2.5,2.2Z" transform="translate(-22.5 -24.5)"/><rect x="431" y="145" width="1.7" height="17.2"/><path d="M458.9,180.8c0-3.5,1.4-6.2,4.9-6.2s4.9,2.8,4.9,6.2-1.4,6.2-4.9,6.2-4.9-2.7-4.9-6.2m4.9,4.7c2,0,3-1.8,3-4.8s-1-4.8-3-4.8-2.9,1.8-2.9,4.8.9,4.8,2.9,4.8" transform="translate(-22.5 -24.5)"/><path d="M472.3,174.8H474v2h0a3.13,3.13,0,0,1,3.1-2.3c2.9,0,4.1,2.3,4.1,6.1,0,3.2-1.1,6.3-4.1,6.3a3,3,0,0,1-3.1-2.2h0V192h-1.7V174.8Zm4.4,10.7c2,0,2.5-2.7,2.5-5.2,0-1.5-.2-4.4-2.5-4.4-2,0-2.8,2.7-2.8,4.7.1,2.8,1,4.9,2.8,4.9" transform="translate(-22.5 -24.5)"/><path d="M484.7,174.8h1.7v2.8h0c.3-1,1-3,3.4-3a2.66,2.66,0,0,1,3,2.7h0a3.73,3.73,0,0,1,3.4-2.7c2,0,3.1,1.7,3.1,3.7v8.5h-1.7v-6.6c0-2.1,0-3.9-1.8-3.9-2,0-3,3.4-3,5.6v4.9h-1.7v-6.6c0-2,0-3.9-1.8-3.9-2,0-3,3.4-3,5.6v4.9h-1.7v-12Z" transform="translate(-22.5 -24.5)"/><path d="M511.6,186.6a9.82,9.82,0,0,1-2.8.4c-3.7,0-5.8-2.2-5.8-6.6,0-3.5,1.5-5.8,4.7-5.8,2.8,0,4.2,1.9,4.2,4.5v.6H505v.7c0,1.8.8,5.2,4.3,5.2a10.05,10.05,0,0,0,2.4-.3v1.3Zm-1.7-8.4a2.22,2.22,0,0,0-2.3-2.2,2.42,2.42,0,0,0-2.5,2.2Z" transform="translate(-22.5 -24.5)"/><path d="M515.4,174.8h1.7v2.8h0a3.76,3.76,0,0,1,3.8-3c2,0,3.1,1.7,3.1,3.7v8.5h-1.7v-6.6c0-2,0-3.9-1.8-3.9-2.3,0-3.4,3.4-3.4,5.6v4.9h-1.7v-12Z" transform="translate(-22.5 -24.5)"/><path d="M534.3,186.9a8.08,8.08,0,0,1-1.6.1c-2.5,0-3.4-1-3.4-3.2v-7.9h-2v-1.5h2v-2.9l1.8-1.1v4h3.3v1.5H531v7.5a1.83,1.83,0,0,0,2,2.1,3.73,3.73,0,0,0,1.2-.2v1.6Z" transform="translate(-22.5 -24.5)"/><path d="M184,145.3a16.45,16.45,0,0,1-8.5,2c-9.9,0-13.4-8.1-13.4-17.1,0-7.7,2.8-15.9,12.6-15.9,7.1,0,10.7,3.9,10.7,9.2h-5.9c0-2.6-.9-6.4-5.1-6.4-5.8,0-6.8,7.8-6.8,12.3,0,7.2,1.7,14.6,8.9,14.6a11.55,11.55,0,0,0,7.7-3.1v4.4Z" transform="translate(-22.5 -24.5)"/><path d="M187.1,135.8c0-7.5,3.2-11.6,9.7-11.6s9.8,4.1,9.8,11.6-3.3,11.5-9.8,11.5-9.7-4-9.7-11.5m9.7,9.6c4.2,0,4.7-5.6,4.7-9.6s-.5-9.6-4.7-9.6-4.6,5.6-4.6,9.6.5,9.6,4.6,9.6" transform="translate(-22.5 -24.5)"/><path d="M211.4,124.8h4.7V130h.1c.5-1.7,2.5-5.8,6.7-5.8,3.9,0,5.3,3.2,5.5,5.5h.1c.8-1.7,2.3-5.5,6.7-5.5,4.7,0,5.6,3.9,5.6,7.6v15h-4.7V132.6c0-2.6-.4-4.9-2.7-4.9-4.1,0-4.9,7.2-4.9,9.9v9.2h-4.7V133c0-2.8-.2-5.3-2.8-5.3-4.3,0-4.8,7.6-4.8,10v9.1h-4.7v-22Z" transform="translate(-22.5 -24.5)"/><path d="M247,124.8h4.7V130h.1c.5-1.7,2.5-5.8,6.7-5.8,3.9,0,5.3,3.2,5.5,5.5h.1c.8-1.7,2.3-5.5,6.7-5.5,4.7,0,5.6,3.9,5.6,7.6v15h-4.7V132.6c0-2.6-.4-4.9-2.7-4.9-4.1,0-4.9,7.2-4.9,9.9v9.2h-4.7V133c0-2.8-.2-5.3-2.8-5.3-4.3,0-4.8,7.6-4.8,10v9.1H247Z" transform="translate(-22.5 -24.5)"/><path d="M296,141.6h0c-.8,1.6-2.9,5.7-7.8,5.7-3.9,0-5.6-3.2-5.6-6.4V124.8h4.7v13.8c0,2.8.4,5.3,2.8,5.3,4.6,0,5.9-7.2,5.9-10v-9.1h4.7v22.1H296Z" transform="translate(-22.5 -24.5)"/><path d="M307.1,124.8h4.7V130h.1c.7-1.6,2.9-5.8,7.7-5.8,3.9,0,5.6,3.3,5.6,6.5v16.1h-4.7V133c0-2.8-.4-5.3-2.8-5.3-4.6,0-5.9,7.2-5.9,10v9.1h-4.7v-22Z" transform="translate(-22.5 -24.5)"/><path d="M331.5,114.9h5.1v4.6h-5.1Zm.2,9.9h4.7v22.1h-4.7Z" transform="translate(-22.5 -24.5)"/><path d="M354.6,147.1a16.55,16.55,0,0,1-3.2.3c-4.4,0-7-1.3-7-5.6V127.2h-3.5v-2.4h3.5v-5.2l4.7-2.8v8h6v2.4h-6v12.7c0,3.2.3,4.8,3.3,4.8a5.7,5.7,0,0,0,2.2-.4Z" transform="translate(-22.5 -24.5)"/><polygon points="341.5 122.6 333 100.3 337.9 100.3 343.7 116.1 343.8 116.1 349 100.3 353.4 100.3 342 132.3 338.3 132.3 341.5 122.6"/><path d="M412,145.3a16.45,16.45,0,0,1-8.5,2c-9.9,0-13.4-8.1-13.4-17.1,0-7.7,2.8-15.9,12.6-15.9,7.1,0,10.7,3.9,10.7,9.2h-5.9c0-2.6-.9-6.4-5.1-6.4-5.8,0-6.8,7.8-6.8,12.3,0,7.2,1.7,14.6,8.9,14.6a11.55,11.55,0,0,0,7.7-3.1v4.4Z" transform="translate(-22.5 -24.5)"/><path d="M415,135.8c0-7.5,3.3-11.6,9.7-11.6s9.8,4.1,9.8,11.6-3.3,11.5-9.8,11.5-9.7-4-9.7-11.5m9.8,9.6c4.2,0,4.7-5.6,4.7-9.6s-.5-9.6-4.7-9.6-4.6,5.6-4.6,9.6.4,9.6,4.6,9.6" transform="translate(-22.5 -24.5)"/><rect x="417.1" y="90.4" width="4.7" height="32"/><rect x="428.6" y="90.4" width="4.7" height="32"/><path d="M478.3,146.1a15.4,15.4,0,0,1-6.5,1.2c-6.1,0-11-3.6-11-12.5,0-6.1,2.5-10.6,9.4-10.6,7.1,0,8.5,4.8,8.5,9H465.5c0,4.4,1.9,11.6,8.6,11.6a10.59,10.59,0,0,0,4.2-.9v2.2Zm-4.2-14.9c0-1.7-.6-5-4.1-5s-4.3,3.7-4.4,5Z" transform="translate(-22.5 -24.5)"/><path d="M500.7,146.2c0,6.2-2,11.1-10.9,11.1a25.09,25.09,0,0,1-6.4-.9v-4.6c1.5.9,4.1,2.7,7.1,2.7,4.9,0,5.5-3.4,5.5-8.3v-2.4h-.1c-.7,1.1-1.9,3.1-5.8,3.1-5.8,0-8.3-4.8-8.3-11.3,0-6.3,1.9-11.3,8.3-11.3a6.11,6.11,0,0,1,5.8,4.1h.1v-3.6h4.7v21.4Zm-9.3-2c4.1,0,4.5-4.7,4.5-8.3s-.6-8.6-4.5-8.6-4.5,4.8-4.5,8.4.8,8.5,4.5,8.5" transform="translate(-22.5 -24.5)"/><path d="M522.8,146.1a15.4,15.4,0,0,1-6.5,1.2c-6.1,0-11-3.6-11-12.5,0-6.1,2.5-10.6,9.4-10.6,7.1,0,8.5,4.8,8.5,9H510c0,4.4,1.9,11.6,8.6,11.6a10.59,10.59,0,0,0,4.2-.9Zm-4.2-14.9c0-1.7-.6-5-4.1-5s-4.3,3.7-4.4,5Z" transform="translate(-22.5 -24.5)"/></svg>