<svg id="Layer_1" data-name="Layer 1" xmlns="http://www.w3.org/2000/svg" viewBox="0 0 1000 1000"><defs><style>.cls-1{fill:#d1d3d4;}</style></defs><path class="cls-1" d="M269.94,398.1c-1.77,0-1.77.18-8.31,17.3-11.65,30.52-27.18,71.83-32.82,82.78-3.36,6.18-4.95,6.36-10.77,6.89-2.82.35-5.3.69-5.3,3,0,2.63,2.31,2.64,3.36,2.64,2.29,0,12.71-.71,14.64-.71,5.13,0,15.53.71,17.31.71,4.06,0,6.17,0,6.17-2.48,0-2.1-2.11-2.64-6.71-2.82-4-.18-8.48-.53-8.48-4.94,0-2.11,1.6-6.88,1.6-7.41l6-18.89c1.42-4.59,1.41-4.59,6.7-4.59h21.19c4.77,0,5.29,0,7.23,5.31l7.59,21.17a15.42,15.42,0,0,1,1.25,5.12c0,2.65-1.6,3.53-6.19,3.89-3.53.35-6.35.87-6.35,3.16,0,2.48,2.29,2.48,4.05,2.48.53,0,9.72-.71,20.48-.71,3,0,17.66.71,20.67.71,1,0,4.05,0,4.05-2.3s-1.95-2.65-5-3c-7.22-1.05-9-5-14.62-18.53L280.16,419.8c-1.42-3.35-3.35-8.28-5.09-13.23-2.66-7.24-3.21-8.47-5.13-8.47Zm324.57,0c-1.79,0-1.79.18-8.3,17.3-11.66,30.52-27.21,71.83-32.83,82.78-3.35,6.18-5,6.36-10.76,6.89-2.84.35-5.3.69-5.3,3,0,2.63,2.3,2.64,3.35,2.64,2.3,0,12.71-.71,14.63-.71,5.14,0,15.55.71,17.31.71,4.08,0,6.19,0,6.19-2.48,0-2.1-2.11-2.64-6.71-2.82-4.05-.18-8.49-.53-8.49-4.94,0-2.11,1.6-6.88,1.6-7.41l6-18.89c1.41-4.59,1.41-4.59,6.71-4.59h21.17c4.79,0,5.3,0,7.25,5.31l7.6,21.17a15.54,15.54,0,0,1,1.21,5.12c0,2.65-1.56,3.53-6.16,3.89-3.51.35-6.36.87-6.36,3.16,0,2.48,2.3,2.48,4.06,2.48.54,0,9.71-.71,20.47-.71,3,0,17.66.71,20.66.71,1.05,0,4.05,0,4.05-2.3s-1.94-2.65-5-3c-7.21-1.05-9-5-14.62-18.53L604.73,419.8c-1.4-3.35-3.32-8.28-5.11-13.23-2.65-7.24-3.16-8.47-5.11-8.47Zm-429.6.88C130.67,399,104,423.32,104,455.1c0,33.73,29.47,56.67,60.35,56.67,30,0,60.2-24,60.2-58.25,0-30.35-26.66-54.54-59.67-54.54ZM336.83,400c-5.83,0-6.53,0-6.53,2.47s2.47,2.65,6.17,3c9,.54,9,5.29,9,12.53V492.7c0,7.23,0,11.83-9,12.53-3.7.19-6.17.37-6.17,2.84,0,2.63,2.28,2.64,3.71,2.64.51,0,17.29-.71,20.63-.71s18,.71,21,.71c1.43,0,3.71,0,3.71-2.47,0-2.64-2.47-2.82-6.18-3-9-.52-8.83-5.3-8.83-12.7V462.35c0-2.64,0-5,2.12-5,1.06,0,3.55,2.65,4.78,4.07l32.11,34.93c2.83,3.19,3.53,4.43,3.53,5.66,0,1.93-2.64,3-4.59,3.17l-5.3.37a2.77,2.77,0,0,0-2.46,2.64c0,2.46,1.94,2.47,4.06,2.47,3,0,7.24-.71,25.24-.71,13.06,0,14.11.71,18.55.71,4.92,0,6.67,0,6.67-2.47,0-2.64-2.81-2.64-5.81-2.64-3.7,0-6.7-2.47-16.76-13.07l-41.83-44.65c-2-2.11-2.29-2.65-2.29-3.35,0-.89.34-1.06,3.34-3.72l20.67-18.18c19.41-16.94,23.62-17.29,27.71-17.29,4.76,0,7.57-.18,7.57-2.83,0-1.24-1.06-2.47-3.36-2.47-3.35,0-18.35.72-21.34.72-2.83,0-15.19-.72-17.65-.72-1.77,0-4.6,0-4.6,2.64,0,2.13,1.59,2.83,6.53,2.83,4.07,0,7.06,0,7.06,3.19,0,5.29-40.4,41.29-43.05,41.29-.53,0-.9-.7-.9-1.77V418c0-7.41,0-12,8.83-12.53,3.71-.35,6.18-.52,6.18-3s-2.28-2.47-3.71-2.47c-3.35,0-17.64.71-20.65.71-2.83,0-7.06,0-18.17-.71Zm159.91,0c-3.35,0-9.55.7-20.66.7-9.16,0-18.52-.69-21.52-.69-1.44,0-3.74,0-3.74,2.46,0,2.65,2.49,2.83,6.2,3,9,.53,9,5.29,9,12.53v74.49c0,7.41,0,12.17-9,12.7-3.52.37-6.2.53-6.2,3s2.3,2.47,3.55,2.47c1.75,0,1.75-.69,31.58-.69,40.07,0,39.91.69,41.48.69,3.19,0,4.05-.89,4.41-4.23.19-3,2.49-18.73,2.49-20.13s-.51-2.82-2.3-2.82c-1.06,0-1.76.71-2.46,2.12C520,503.3,507.47,505.06,499,505.06c-11,0-14.15-6-14.15-17.12V417.51c0-6.71.36-11.47,9.36-12,3.54-.17,6.2-.35,6.2-3,0-2.47-2.3-2.47-3.71-2.47Zm189.91,0c-2.3,0-6.55.71-11.46.71-5.69,0-13.61-.7-15.56-.7-3.16,0-5.46.17-5.46,2.46,0,2.65,2.85,2.64,6.52,2.82,8,0,9.19,1.77,9.19,15.36v58.79c0,24-.73,24.7-8.49,25.75-7.41.9-8.11,1.06-8.11,3.18,0,2.3,2.46,2.3,3,2.3,3.19,0,11.15-.71,20.12-.71,5.49,0,12.17.71,14.31.71,1.4,0,4.21,0,4.21-2.47s-.86-2.31-7.92-2.82c-8-.71-10.06-2.48-10.22-28.06l-.73-60.72.35-.37,75.2,93.55c3,3.9,4.22,4.06,5.65,4.06,2.66,0,2.66-3.35,2.66-5.11l-.36-92.32c-.19-9.7,2.46-10.05,9-10.76,5.14-.36,6.89-.88,6.89-3,0-2.65-2.26-2.65-3.16-2.65-3,0-16.25.71-18.9.71-2.3,0-12.17-.7-14.15-.7-1.21,0-4.37,0-4.37,2.46s2.65,2.64,7.92,2.82c7.09.36,9,.36,9.39,21.71l.67,54.36-.32.36-59.85-76.43c-1.24-1.59-2.84-5.29-6-5.29Zm139.07,0c-16.41,0-45.89,2.47-45.89,7.42,0,1.42.9,1.94,2.49,1.94,1.22,0,6.33-1.41,7.38-1.41,3.54,0,5.65,2.47,5.65,9.7v75c0,7.23,0,12-9,12.51-3.52.2-6.17.38-6.17,3,0,2.47,2.3,2.47,3.55,2.47.86,0,17.62-.72,20.79-.72,4.43,0,27.2.72,32.31.72,46.08,0,59.14-36.55,59.14-55.44a54.2,54.2,0,0,0-23.47-43.94c-11.3-7.77-24-11.3-46.78-11.3Zm-662.94,3.53c28.07,0,40.59,29.66,40.59,50.66,0,25.59-12.88,52.95-37.59,52.95-23.83,0-40.59-27.19-40.59-55.78C125.18,426.33,138.08,403.57,162.78,403.57Zm663.13,1.06c37.43,0,49.24,31.6,49.24,51.71,0,28.24-20.82,50-44.32,50-13.57,0-16.57-6.17-16.57-17.46V418.75c0-9.87,1-14.12,11.65-14.12Zm-563.4,23.65,12.35,30.36a9.14,9.14,0,0,1,1.07,3.35c0,.54,0,1.25-4.08,1.25H255.08c-3.17,0-4.21,0-4.21-1.78a11.51,11.51,0,0,1,.69-3.36Zm324.57,0,12.39,30.36a9.5,9.5,0,0,1,1.06,3.35c0,.54,0,1.25-4.06,1.25h-16.8c-3.19,0-4.21,0-4.21-1.78a10.54,10.54,0,0,1,.7-3.36Zm151.75,93.13c-.93,0-1.28.7-1.66,1.63-.8,2.12-1.41,3.65-13.48,3.65H686c-2.55,0-4.69-.11-5.27-3.29-.13-1.06-.48-1.64-1.4-1.64s-1.41.7-1.76,2.1l-4.82,16.55a9.46,9.46,0,0,0-.35,1.87,1.54,1.54,0,0,0,1.53,1.54c1,0,1.66-.47,2.68-2.35,6-11.14,13.73-11.14,20.79-11.14,2.33,0,3.29,0,3.29,3v54.56c0,4.59,0,7.75-5.88,8.11-2.45.22-4.08.36-4.08,2s1.5,1.77,2.42,1.77c2.24,0,11.76-.48,13.77-.48,3.83,0,10,.48,13.82.48.93,0,2.46,0,2.46-1.77s-1.63-1.88-4.12-2c-5.87-.36-5.87-3.52-5.87-8.34V534.19c0-3.86.6-3.86,7.31-3.86,7.6,0,13.35,0,15.36,11.26.48,2.46,1.28,2.58,1.89,2.58,1.5,0,1.75-1.42,1.85-3.76l.86-14.32c0-2.8,0-4.68-1.66-4.68ZM610,525.51c-14.88,0-23.12,9.39-23.12,20.18,0,12.44,9.29,17,18.77,21.25,8.47,3.87,16.45,8.33,16.45,17.48,0,9.5-9,13-14,13-8.3,0-16.28-7.39-18.52-17.83-.22-1.05-.57-2-1.66-2-1.4,0-1.5,1.63-1.5,2.11-.35,4.23-.35,10.09-.35,10.56,0,2.92.13,4.57,1.4,5.51,2.11,1.53,9.52,4.7,18.65,4.7,15.59,0,25.23-10.91,25.23-23.94,0-13.27-12.33-19-18.9-21.83-9.39-3.85-16.19-6.79-16.19-15.13,0-4.58,3.19-11.27,12.8-11.27S620.9,535,622.3,539.59c1.19,3.64,1.66,4.35,2.81,4.35,1.66,0,1.66-1,1.66-3.52,0-10.33,0-11.39-1.4-12.21-1.66-.82-8.56-2.7-15.39-2.7Zm-430.5.7c-.93,0-2.46,0-2.46,1.66s1.77,1.86,4.22,2c5.87.36,5.87,3.52,5.87,8.44v38.15c0,19.71,14.78,24,30.75,24,26.29,0,26.29-16.89,26.29-23.35V540.54c0-9.76,1.28-10.45,6.67-10.8,1.65-.12,3.75-.23,3.75-1.87,0-.48-.23-1.66-2-1.66s-6.8.48-11.38.48c-5.4,0-8-.48-9.86-.48-1.06,0-2.7,0-2.7,1.52s1.41,1.78,3.88,1.89c6.32.47,7.27,1.77,7.27,11.62v36.38c0,7-1.41,19.59-20.07,19.59-20.06,0-20.07-14.44-20.07-22.54V537.94c0-4.57,0-7.62,6.12-8.09,2.46-.12,4.09-.24,4.09-1.89s-1.41-1.75-2.34-1.75c-.7,0-6.1.48-14.21.48s-12.67-.48-13.84-.48Zm162.64,0c-.95,0-2.48,0-2.48,1.65s1.63,1.87,4.22,2c5.87.47,5.87,3.51,5.87,8.45v49.53c0,4.79,0,7.85-5.87,8.32-2.45.11-4.22.25-4.22,1.88s1.53,1.77,2.48,1.77c1.17,0,7-.48,13.72-.48,7.74,0,11.62.48,14.08.48.94,0,2.47,0,2.47-1.66s-1.64-1.88-4.23-2c-5.86-.34-5.87-3.52-5.87-8.45V538c0-4.59,0-7.63,5.87-8.1,2.46-.12,4.23-.22,4.23-1.87s-1.53-1.77-2.47-1.77c-1.76,0-5.51.48-14,.48C348.79,526.69,344.58,526.21,342.12,526.21Zm297.79,0c-.92,0-2.46,0-2.46,1.65s1.66,1.87,4.25,2c5.84.47,5.84,3.51,5.84,8.45v49.53c0,4.79,0,7.85-5.84,8.32-2.49.11-4.25.25-4.25,1.88s1.54,1.77,2.46,1.77c1.18,0,7.06-.48,13.73-.48,7.76,0,11.63.48,14.09.48.95,0,2.45,0,2.45-1.66s-1.62-1.88-4.21-2c-5.88-.34-5.88-3.52-5.88-8.45V538c0-4.59,0-7.63,5.88-8.1,2.46-.12,4.21-.22,4.21-1.87s-1.5-1.77-2.45-1.77c-1.76,0-5.53.48-14,.48-7.15,0-11.4-.48-13.86-.48Zm-380.17,0c-2.13,0-3.65.11-3.65,1.63,0,1.77,1.88,1.77,4.35,1.88,5.28,0,6.1,1.17,6.1,10.21V579c0,16-.47,16.43-5.65,17.13-4.92.58-5.38.71-5.38,2.11s1.65,1.52,2,1.52c2.1,0,7.38-.46,13.37-.46,3.64,0,8.1.46,9.51.46.94,0,2.82,0,2.82-1.62s-.59-1.53-5.29-1.89c-5.27-.47-6.68-1.65-6.79-18.66l-.48-40.37.23-.23,50,62.19c2,2.58,2.81,2.7,3.75,2.7,1.77,0,1.77-2.24,1.77-3.4l-.25-61.36c-.12-6.46,1.65-6.69,6-7.18,3.41-.23,4.59-.57,4.59-2,0-1.76-1.52-1.76-2.12-1.76-2,0-10.79.48-12.55.48-1.54,0-8.09-.48-9.38-.48-.83,0-2.94,0-2.94,1.63s1.76,1.77,5.27,1.88c4.69.23,6,.23,6.24,14.44l.46,36.14-.23.23-39.79-50.81c-.82-1.05-1.87-3.51-4-3.51-1.54,0-4.34.48-7.64.48C266.31,526.7,261,526.22,259.74,526.22Zm114.86,0c-.83,0-1.87.35-1.87,1.52,0,1.53,1.28,1.65,3.87,1.88,3.53.35,4.57.7,7.62,8.09l25.7,61.38c.82,1.86,1.41,2.45,2.23,2.45s1.76-1.51,2-2.22l23.71-58.68c3.51-8.8,4.79-10.32,7.63-10.67,4.57-.7,5.05-.82,5.05-2.23s-1.54-1.52-2.14-1.52c-1.76,0-7.25.47-10.41.47-3.77,0-9.3-.47-10-.47-1.28,0-3.16,0-3.16,1.65s1.53,1.74,5.05,1.86c2,.13,4.82.71,4.82,3.52,0,2.34-1,5.06-2.11,7.86l-15.75,40L399.25,539c-2-4.83-2.47-5.77-2.47-6.23,0-2.58,1.64-2.7,7.16-3.4.94,0,2-.35,2-1.53s-1.18-1.64-2.23-1.64c-2.36,0-6,.47-12.55.47C382.94,526.69,376.72,526.22,374.6,526.22Zm79.67,0c-.8,0-2.33,0-2.33,1.63s1.63,1.88,4.22,2c5.87.36,5.87,3.52,5.87,8.32V587.7c0,4.82,0,8-5.87,8.34-2.46.23-4.22.35-4.22,2s1.53,1.77,2.46,1.77,1.76-.13,3.64-.24,4.82-.25,9.61-.25h1.41c.7,0,6.23.13,12.9.25s15,.24,21,.24c3.42,0,4.57-1.3,4.7-3.52.35-4.35,1.62-11.86,1.62-13.39,0-.71-.35-1.75-1.4-1.75s-1.25.45-3.39,4.58c-5.17,10-12.45,9.95-17.59,9.95-9.87,0-12.33-1.28-12.33-9.61V565.87c0-3.52.93-3.51,6.58-3.51,9.61,0,12.9.12,15.36,9.15.58,2.22,1.31,2.8,2.24,2.8,1.4,0,1.4-1.63,1.4-2.33,0-.94-.35-5-.35-5.88,0-2.57.83-14.65.83-16.29,0-1.29-.61-1.64-1.31-1.64s-1.18.23-1.76,1.74c-2.1,6.23-3.16,8.82-16.19,8.82-6.8,0-6.8-.94-6.8-4.7V537c0-5.86.45-6.69,6.33-6.69,16.66,0,19.47,4.47,20.91,7.52,2.11,4.33,2.33,4.82,3.61,4.82s1.21-1.41,1.21-2V529.86c0-2.71,0-3.64-1.43-3.64-.35,0-.48.12-3.52.24s-9.16.23-21.26.23h-5.62c-10,0-15-.12-17.6-.23A26.91,26.91,0,0,1,454.27,526.22Zm62.91,0c-3.89,0-4.34,0-4.34,1.64s1.63,1.75,4.21,1.87c5.75.36,5.75,3.52,5.75,8.34v49.75c0,4.92,0,8-5.75,8.45-2.45.12-4.21.23-4.21,1.87s1.53,1.64,2.46,1.64c2.11,0,11.62-.46,13.6-.46.48,0,11.85.46,14.08.46,1,0,2.49.13,2.49-1.52s-1.66-1.87-4.24-2c-5.88-.35-5.85-3.53-5.85-8.45V566.7c0-2,.23-2.71,2.21-2.71,5.27,0,5.87.48,8.43,5.53l14.21,26.75c1.31,2.47,1.79,3.51,3.86,3.51,1.09,0,5.43-.46,6.36-.46,1.75,0,9.39.46,10.92.46.83,0,2-.11,2-1.41,0-1.51-.93-1.63-4.79-2.1-3.29-.47-4.95-3.41-7.28-7.51l-11.4-20.17c-2.72-5-4.09-5.65-5.62-6.58,4-.82,16.09-3.65,16.09-17.37,0-4.11-1.79-18.42-22.54-18.42-3.52,0-19.13.47-22.29.47C524.08,526.69,518.33,526.22,517.18,526.22Zm228.9,0c-2.46,0-4,0-4,1.63s.48,1.65,4.79,2.12c1.53.12,4.25.47,9.52,8.21l19.7,28.63a4.33,4.33,0,0,1,1,2.94v18.07c0,4.8,0,7.86-5.88,8.32-2.46.14-4.21.25-4.21,1.89s1.5,1.77,2.46,1.77c.79,0,7.85-.49,15.23-.49,3.89,0,9.29.49,12.58.49.93,0,2.46,0,2.46-1.66,0-1.87-1.63-2-4.22-2.1-5.87-.37-5.87-3.52-5.87-8.34V566.58a3.52,3.52,0,0,1,.83-2.59L805,542.16c6.8-10.08,9.39-12.66,14.66-12.66.73,0,2.36-.47,2.36-1.65s-.8-1.63-2-1.63c-1.06,0-5.85.47-10.22.47-6.64,0-8.56-.47-11.24-.47-1.18,0-3.29,0-3.29,1.76s2.11,1.75,2.94,1.75c4.12.13,6.45.24,6.45,3.06,0,2.22-2.94,7-3.77,8.32L787.4,561.78l-17-25.47c-2.23-3.29-2.23-3.89-2.23-4.58,0-1.19,1-1.87,4.12-1.87,3.6-.13,4.91-.6,4.91-2,0-1.63-1.31-1.63-3.06-1.63-1.15,0-3.61.47-14.66.47-9,0-10.79-.47-13.38-.47Zm-205.2,3.28c14.56,0,16.19,12.55,16.19,16.78,0,14.67-11.6,14.67-15.84,14.67-5.88,0-5.85-.24-5.85-4.34V536.88C535.38,532.31,535.48,529.5,540.88,529.5Z"/></svg>