<?xml version="1.0" encoding="utf-8"?>
<!-- Generator: Adobe Illustrator 26.0.3, SVG Export Plug-In . SVG Version: 6.00 Build 0)  -->
<svg version="1.0" id="Layer_1" xmlns="http://www.w3.org/2000/svg" xmlns:xlink="http://www.w3.org/1999/xlink" x="0px" y="0px"
	 viewBox="0 0 596.1 443.1" style="enable-background:new 0 0 596.1 443.1;" xml:space="preserve">
<style type="text/css">
	.st0{fill:#141412;}
	.st1{fill-rule:evenodd;clip-rule:evenodd;fill:#141412;}
	.st2{fill:#FCC200;}
</style>
<g>
	<path class="st0" d="M283.1,188.8c0-1.1,0-2.1,0.2-3.2l0.2-1l0.1-0.6l0.4-1.5l0.2-0.6l4.1-12.6l1.1,19.5h3.4l13-19.6l-3.7,12.6
		l-0.1,0.4l-0.1,0.2l-0.3,0.9l-0.4,1.2c-0.5,1.4-1,2.8-1.6,4.2h10.7c0-0.3-0.1-0.6-0.1-1c-0.2-1.8,0-3.6,0.5-5.3l0.1-0.6l0,0
		l5.6-17.1c0.2-0.5,0.4-1.1,0.9-2.4l0.3-0.9l0.4-1c0.3-0.6,0.6-1.3,0.9-1.8l0.2-0.3l0.3-0.3h-10.8l-10.6,16.2l-0.9-16.2h-10.3
		c0.3,0.7,0.4,1.5,0.1,2.3l-0.3,1.4l-0.2,0.6c-0.4,1.4-0.6,2-0.8,2.6l-5.6,16.9l-0.2,0.6c-0.8,2.3-1.9,4.4-3.4,6.3L283.1,188.8z"/>
	<path class="st0" d="M323.1,188.8c0.1-1.4,0.3-2.9,0.8-4.3l0-0.3l0.6-1.8l0.2-0.6l5.5-16.6l0.2-0.6l0.4-1.2l0.3-0.9
		c0.5-1.5,1.3-3,2.2-4.4h-10.5c0.1,1.5-0.1,3-0.6,4.4l-0.7,2.1l-0.2,0.6l-5.5,16.8v0.1l-0.2,0.4l-0.6,1.7l-0.1,0.4
		c-0.6,1.5-1.3,2.9-2.2,4.3H323.1z"/>
	<path class="st0" d="M327.7,187.7l0.7,0.2c0.4,0.2,0.7,0.3,1.1,0.4c2,0.8,4.1,1.2,6.2,1c3.3,0,6.6-1,9.4-2.7c6.4-4,8-10.5,5.1-13.9
		c-0.6-0.6-1.1-1.2-1.8-1.8c-0.2-0.2-0.4-0.3-0.6-0.5l-2-1.6l-0.3-0.3c-1.6-1.4-2-2.2-2-3.4c-0.1-1.7,0.9-3.3,2.5-4
		c1.9-1,5.3-0.6,8.3,2.7c0.1,0.1,0.3,0.3,0.4,0.4l1.4-5.7h-0.7l-0.5-0.1h-0.2l-1.2-0.3L352,158c-2-0.5-4-0.6-6-0.4
		c-5.6,0.6-9.4,3.1-11.5,6.9c-2.4,4.4-2,7.3,1.6,11.2c0.5,0.4,1.4,1.4,2.5,2.2c0.2,0.2,0.4,0.4,0.6,0.6c0.6,0.4,1.1,1,1.5,1.6
		c0.8,1.4-0.1,3.8-2,4.8c-0.3,0.1-0.5,0.2-0.9,0.4c-2.3,0.8-4.4,0.4-7-1.9c-0.7-0.6-1.3-1.3-1.9-2.1l-2,6.1L327.7,187.7L327.7,187.7
		z"/>
	<path class="st0" d="M351.4,187.7l0.7,0.2c0.3,0.2,0.7,0.3,1.1,0.4c2,0.8,4.1,1.2,6.2,1c3.3,0,6.6-1,9.4-2.7c6.4-4,8-10.5,5.1-13.9
		c-0.6-0.6-1.2-1.2-1.8-1.8c-0.2-0.2-0.4-0.3-0.6-0.5l-2-1.6l-0.3-0.3c-1.6-1.4-2-2.2-2-3.4c-0.1-1.7,0.9-3.3,2.5-4
		c1.9-1,5.3-0.6,8.3,2.7c0.1,0.1,0.3,0.3,0.4,0.4l1.4-5.7H379l-0.6-0.1h-0.2l-1.2-0.3l-1.2-0.2c-2-0.5-4-0.6-6-0.4
		c-5.6,0.6-9.4,3.1-11.5,6.9c-2.4,4.4-2,7.3,1.6,11.2c0.5,0.4,1.4,1.4,2.5,2.2c0.2,0.2,0.4,0.4,0.6,0.6c0.6,0.4,1.1,1,1.5,1.6
		c0.8,1.4-0.1,3.8-2.1,4.8c-0.3,0.1-0.5,0.2-0.8,0.4c-2.3,0.8-4.4,0.4-7-1.9c-0.7-0.6-1.3-1.4-1.9-2.1l-2,6.1L351.4,187.7
		L351.4,187.7z"/>
	<path class="st1" d="M392,189.2c7.5-1.3,14-6.3,17.2-13.2c5-10.4,1.6-17.7-7.8-18.3c-1.6-0.1-3.2,0-4.7,0.3
		c-8.8,1.5-15.6,7.6-18.1,16.8C375.9,184.4,380.8,191,392,189.2z M389,172c1.9-5.3,3.6-7.9,6-9.7c2.8-2.1,5.5-1.6,6.3,0.8
		c0.4,1.3,0.5,2.7,0.3,4.1c-0.3,2.7-0.9,5.5-1.8,8.1c-1.9,5.5-3.5,7.8-5.7,9.6c-3,2.3-6,1.5-6.8-1.3c-0.3-1.3-0.4-2.6-0.2-3.8
		C387.7,177.1,388.3,174.5,389,172z"/>
	<path class="st0" d="M410.3,181.9l-0.1,0.4c-1.1,3.8,0.4,6.4,4.9,7.1c0.5,0,1,0.1,1.6,0.1c3.3,0,6.5-1,9.2-2.9l-0.8,2.4h9.7
		c0-1.4,0.2-2.9,0.8-4.2l0.6-1.8l0.1-0.3l0.2-0.6l5.5-16.5l0.2-0.6l0.5-1.4l0.2-0.6c0.5-1.6,1.2-3.1,2.1-4.5h-10.1
		c-0.2,1.2-0.5,2.3-0.8,3.4c-0.1,0.3-0.2,0.7-0.3,1l-0.2,0.7l-0.4,1.4l-0.2,0.6l-4.3,13.1c-1.2,3.7-2.8,5.3-5.1,5.8
		c-3.2,0.7-4.5-1-3.8-3.7l0.3-1l0.2-0.6l4.5-13.5l0.2-0.6l0.7-1.9l0.1-0.2c0.3-0.9,0.9-2.1,1.4-3.3l0.6-1.1h-10
		c-0.2,1.5-0.5,3-1,4.4l-0.3,1l-0.4,1.1l-0.2,0.6l-4.6,13.9L410.3,181.9L410.3,181.9z"/>
	<path class="st1" d="M448.5,188.9c-0.2-0.9-0.2-1.7-0.1-2.6c0.4-1.2,0.6-2.1,1-3.4l2.4-7.5c0,0,1,4,1.8,6.4
		c0.5,1.6,0.9,3.6,1.4,4.1c0.4,0.8,1,1.5,1.7,2c0.9,0.6,1.9,0.9,3,0.9h7.2c-0.7-0.8-1.4-1.7-2-2.7c-0.6-1-1.1-2.2-1.4-3.3l-3-10.4
		c1.7-0.7,3.3-1.5,4.9-2.5c2.3-1.6,4.6-5.3,4.4-7.9c-0.3-3.4-3.4-4.4-6.3-4.4c-2.3,0-4.5,0.2-6.8,0.5h-9.2c-0.6,0,0,1.1,0,1.8
		c-0.2,2.6-1.1,4.1-1.8,6.7c-1.9,6.5-2.8,10.3-5.6,16.6c-0.9,2.2-2.6,5.6-2.6,5.6L448.5,188.9L448.5,188.9z M456.6,161.2
		c0.2,0,0.3-0.1,0.5-0.1c3.6-0.4,5.2,1.6,3.6,5.4c-0.8,1.9-2.3,3.5-4.1,4.5c-1,0.4-2,0.7-3.1,0.9L456.6,161.2z"/>
	<path class="st0" d="M478.4,188.8c0.1-1.4,0.3-2.9,0.8-4.3l0-0.3l0.6-1.8l0.2-0.6l5.5-16.6l0.2-0.6l0.4-1.2l0.3-0.9
		c0.5-1.5,1.3-3,2.2-4.4h-10.5c0.1,1.5-0.1,3-0.6,4.4l-0.7,2.1l-0.2,0.6L471,182v0.1l-0.2,0.4l-0.6,1.7l-0.1,0.4
		c-0.6,1.5-1.3,2.9-2.2,4.3L478.4,188.8z"/>
	<g>
		<path class="st0" d="M527.8,247.9h4l-0.2,1h-1.4l-1.1,5.5h-1.2l1.2-5.5h-1.4L527.8,247.9z"/>
		<path class="st0" d="M532.4,254.3h-1.2l1.4-6.5h1.9v3c0,0.5,0,1-0.1,1.5l0,0c0.1-0.5,0.3-1,0.5-1.5l1.3-3h1.9l-1.4,6.5h-1.2l0.4-2
			c0.3-1.3,0.6-2.6,0.9-3.9l0,0l-2.5,5.9h-0.7v-5.9l0,0c-0.2,1.3-0.4,2.6-0.7,3.9L532.4,254.3z"/>
	</g>
	<g>
		<path class="st0" d="M76.8,285.6l-0.6,1.6c-0.4,1.3-0.4,2.5,1.3,2.5c1.3-0.2,2.3-1.1,2.6-2.3c0.7-2-0.7-2.7-1.8-3.5
			c-1.2-0.8-2.2-1.8-3-3c-0.7-1.5-0.7-3.2,0-4.6c1.2-4,4.9-6.7,9-6.6c4.7,0,6,3.1,4.3,7.5h-5c0.4-1.4,1.1-3.2-0.6-3.3
			c-1.1-0.1-2,0.6-2.4,1.5c-0.6,1-0.3,2.2,0.7,2.8c1.6,1.3,3.1,2.1,3.9,3.3s1.1,2.7,0.1,5.5c-1.5,4.5-4.8,6.9-9.3,6.9
			c-4.9,0-6.1-2.8-5-5.8l0.8-2.5L76.8,285.6z"/>
		<path class="st0" d="M106.9,270.2h14l-1.6,4.6H115l-6.3,18.5h-5.4l6.3-18.5h-4.2L106.9,270.2z"/>
		<path class="st0" d="M126.5,293.4l13-23.2h6.5l-3,23.2h-5.4l0.8-4.5h-4.2l-2.2,4.5H126.5z M141.3,274.4L141.3,274.4l-5.2,10.4h3.1
			L141.3,274.4z"/>
		<path class="st0" d="M164.5,270.2h14l-1.6,4.6h-4.4l-6.3,18.5h-5.4l6.3-18.5h-4.2L164.5,270.2z"/>
		<path class="st0" d="M186.9,293.4l7.9-23.2h12.4l-1.6,4.6h-7l-1.4,4.3h6.8l-1.6,4.6h-6.8l-1.7,5h7.3l-1.6,4.6L186.9,293.4z"/>
		<path class="st0" d="M246.3,270.2h5.4l-6,17.5c-0.4,1.1-0.4,2.1,1.2,2.1c1.2-0.1,2.3-1,2.6-2.2l5.9-17.3h5.4l-5.7,16.8
			c-1.3,3.9-4.1,7-9.7,7c-4.6,0-6.5-2.2-4.9-7L246.3,270.2z"/>
		<path class="st0" d="M278.9,280.4L278.9,280.4l-4,13h-5.1l7.9-23.2h5.6l-0.2,12.9h0.1l3.9-12.9h5.1l-7.9,23.2h-5.5L278.9,280.4z"
			/>
		<path class="st0" d="M301.4,293.4l7.9-23.2h5.4l-7.9,23.2H301.4z"/>
		<path class="st0" d="M328,293.4l2.9-23.2h5.4l-2.8,16.2h0.1l8.3-16.2h5.4l-13,23.2H328z"/>
		<path class="st0" d="M355.4,293.4l7.9-23.2h12.4l-1.6,4.6h-7l-1.5,4.3h6.8l-1.6,4.6H364l-1.7,5h7.3l-1.6,4.6L355.4,293.4z"/>
		<path class="st0" d="M390.3,293.4h-5.4l7.9-23.2h7.9c4.4,0,6,1.8,4.5,6.4c-0.8,2.5-2,4.2-4.7,5.3v0.1c1.2,0.2,2,1.3,1.8,2.5
			c0,0.2-0.1,0.3-0.1,0.5c-0.5,1.9-1.8,5.8-2,7.3c0,0.3,0.1,0.6,0.2,0.8l-0.1,0.3h-5.9c0-0.4,0-0.9,0.1-1.3c0.6-2,1.4-4,1.7-5.4
			s0.2-2.3-1-2.4h-1.8L390.3,293.4z M394.8,280.1h1.9c1.6,0,2.4-1.5,2.9-2.9c0.9-2.8-0.2-2.9-2.8-2.8L394.8,280.1z"/>
		<path class="st0" d="M423.1,285.6l-0.6,1.6c-0.5,1.3-0.4,2.5,1.3,2.5c1.3-0.2,2.3-1.1,2.6-2.3c0.7-2-0.7-2.7-1.8-3.5
			c-1.2-0.8-2.3-1.8-3.1-3c-0.7-1.5-0.7-3.2,0-4.6c1.2-4,4.9-6.7,9-6.6c4.7,0,6,3.1,4.3,7.5h-5c0.4-1.4,1.1-3.2-0.6-3.3
			c-1.1-0.1-2,0.6-2.4,1.5c-0.6,1-0.3,2.2,0.6,2.8c1.6,1.3,3.1,2.1,3.9,3.3s1.1,2.7,0.1,5.5c-1.5,4.5-4.8,6.9-9.3,6.9
			c-5,0-6.1-2.8-5-5.8l0.8-2.5L423.1,285.6z"/>
		<path class="st0" d="M446.1,293.4l7.9-23.2h5.4l-7.9,23.2H446.1z"/>
		<path class="st0" d="M476,270.2h14l-1.6,4.6H484l-6.3,18.5h-5.4l6.3-18.5h-4.2L476,270.2z"/>
		<path class="st0" d="M510.9,277.8L510.9,277.8l5.4-7.6h5.4l-10.2,13.4l-3.3,9.7h-5.4l3.3-9.7l-0.8-13.4h5.5L510.9,277.8z"/>
	</g>
	<g>
		<path class="st0" d="M148.4,150.4h35.5c-0.6,4.9-0.8,9.9-0.4,14.8l0.4,4.6l0.1,2.4l0.1,2.2c0.8,9.2,1.5,17.7,2.2,26l0.5,4.7
			l0.9,7.1l0.6,5.8l10.9-31.1c4.2-11.8,5.1-17.7,4.5-29.8l-0.2-3.3l-0.1-1.4l-0.1-0.9l-0.1-1.1h34.9l-0.5,1l-0.2,0.9
			c-0.2,1.1-0.7,3.7-1.2,7.9c-0.4,3-0.2,6,0.5,15.4l1.1,10.9l0.1,1.6l3.9,29.6l1.2-3.8l1.4-3.7c0.9-2.3,1.6-4.6,2.4-6.9
			c3.5-9.9,6.3-19,9.2-29l0.5-1.4l0.1-0.6l0.8-3c1.7-8.5,1.9-13.2,1.1-18.8h22c-1.4,2.6-2.6,5-3.6,7.3l-2.8,7.2l-0.4,0.9l-2.5,6.3
			l-0.1,0.3l-0.8,1.7c-1.6,4.3-3.2,8.5-4.9,12.8c-12.3,32.4-17.3,47-23,67h-26.3c-1.1-14.2-2.6-28.2-4.7-42
			c-0.6-5.2-1.5-10.2-2.4-15.4c-6,14.4-11.6,29.1-16.8,43.6c-1.6,4.6-3.2,9.2-4.7,13.8h-27.8c-0.2-11.5-0.8-22.3-1.5-33.1
			c-1.4-18.1-2.9-33.4-4.7-46.4l-0.2-1.1l-0.1-0.9l-0.1-1l-1-6.2C150.6,157.4,150.1,155.1,148.4,150.4L148.4,150.4z"/>
		<path class="st0" d="M250.8,253.5c1.6-2.5,3-5.1,4.1-7.9c0.2-0.5,0.4-1.1,0.6-1.6l13-36.7l0.6-1.8c0.9-2.6,1.5-5.4,1.8-8.2
			l34.9,0.1l-1.8,7.6c-2.5-0.9-5-1.3-10-1.7c-0.7-0.1-1.5-0.1-2.2-0.1h-4.9l-6.2,17.6h1.9c2.3,0,4.6-0.3,6.8-0.8
			c0.6-0.1,1.3-0.2,2-0.4l1.2-0.3l1.2-0.4l-3.3,9.5l-0.8-0.4l-0.7-0.2c-2.1-0.6-4.2-0.9-6.4-1.1c-0.7,0-1.4-0.1-2.1-0.1h-1.9
			l-7,19.9h5.8c3.9,0,7.8-0.5,11.7-1.5l2.9-0.6l-4.9,9.1L250.8,253.5L250.8,253.5z"/>
		<path class="st0" d="M291,250.8l3.9-11.2c1,1.4,2.1,2.7,3.4,3.9c4.9,4.3,8.8,5,13.1,3.5c0.5-0.2,1-0.5,1.6-0.7
			c3.7-1.9,5.4-6.3,4-8.8c-0.5-0.8-0.8-1.1-2.7-2.9c-0.4-0.3-0.7-0.7-1.1-1c-2.1-1.6-3.8-3.4-4.7-4.2c-6.8-7.1-7.4-12.6-2.8-20.6
			c4.1-7,11.2-11.5,21.8-12.5c3.8-0.3,7.6,0,11.2,0.8l2.3,0.5l2.3,0.6l0.3,0.1l1,0.2h1.3l-2.7,10.4c-0.2-0.3-0.4-0.5-0.7-0.8
			c-5.6-6-12-6.9-15.6-5c-3.2,1.6-4.7,4-4.8,7.2c-0.1,2.3,0.7,3.8,3.7,6.3l0.6,0.5l3.7,3c0.4,0.3,0.8,0.6,1.1,0.9
			c1.2,1,2.3,2.1,3.3,3.2c5.3,6.2,2.1,18.1-9.9,25.4c-5.1,3-10.3,4.7-17.7,5c-4.6,0.1-6.6-0.2-11.6-1.9c-0.7-0.2-1.3-0.5-2-0.8
			l-1.3-0.5L291,250.8L291,250.8z"/>
		<path class="st0" d="M345.8,205.1l3.8-7.6l47.6,0.1l-1.6,7.6c-3-0.8-6.1-1.3-9.1-1.5c-1.5-0.2-3.1-0.3-4.7-0.3h-2l-13.4,38
			c-0.3,0.7-0.5,1.4-0.7,2.1c-1.1,3.3-1.8,6.7-2.1,10.2l-20.2,0c2.1-3.2,3.8-6.6,5.2-10.2c0.3-0.7,0.5-1.4,0.8-2.1l13.5-38h-2
			c-1.6,0-3.3,0.1-4.9,0.3C352.6,203.9,349.2,204.4,345.8,205.1L345.8,205.1z"/>
		<path class="st0" d="M378.9,253.8c1.6-2.5,3-5.1,4.1-7.9c0.2-0.5,0.4-1.1,0.6-1.6l12.9-36.7l0.6-1.8c0.9-2.6,1.5-5.4,1.8-8.2
			l34.9,0.1l-1.8,7.6c-2.5-0.9-5-1.3-10-1.7c-0.7-0.1-1.5-0.1-2.2-0.1h-4.9l-6.2,17.6h1.9c2.3,0,4.6-0.3,6.8-0.8
			c0.6-0.2,1.3-0.2,2-0.4l1.2-0.3l1.2-0.4l-3.3,9.4l-0.9-0.4l-0.7-0.2c-2.1-0.6-4.2-0.9-6.4-1.1c-0.7,0-1.3-0.1-2.1-0.1h-1.9
			l-7,19.9h5.8c4,0,7.9-0.5,11.8-1.5l2.9-0.6l-4.9,9.1l-36.3-0.1L378.9,253.8z"/>
		<path class="st0" d="M417.2,253.9c0,0,3.3-6.3,5.1-10.3c5.3-11.6,7.2-18.5,10.9-30.4c1.4-4.7,3.1-7.5,3.6-12.2
			c0.1-1.2-1.1-3.3,0.1-3.3h17.2c0.9,0,7.9-1,12.7-0.8c5.5,0.2,11.3,1.9,11.7,8.2c0.3,4.8-4.1,11.5-8.5,14.4
			c-4.6,3.1-9.3,4.2-9.3,4.5l5.4,19c0.6,2.1,1.4,4.2,2.5,6.1c1.1,1.7,2.3,3.4,3.6,4.9l-13.5-0.1c-2-0.1-3.9-0.7-5.6-1.7
			c-1.4-0.8-2.6-2.1-3.2-3.6c-0.9-0.9-1.7-4.7-2.5-7.6c-1.4-4.5-3.2-11.8-3.2-11.8l-4.7,13.7c-0.8,2.4-1.3,4.1-2,6.3
			c-0.4,1.3,0.1,4.8,0.1,4.8L417.2,253.9L417.2,253.9z M447.2,222.8c2-0.3,4-0.8,5.9-1.5c3.5-1.8,6.2-4.7,7.9-8.2
			c3.1-6.9,0.1-10.6-6.6-9.9c-0.3,0-0.7,0.1-1,0.1L447.2,222.8L447.2,222.8z"/>
		<path class="st0" d="M469.7,254.1c1.6-2.4,3-5,4.1-7.7l1.4-3.8l0.4-1.2l11-31.2c0.8-2,1.4-4.1,1.8-6.2c0.8-4.3,0.8-5,0.2-6
			l19.2,0.1l10.3,34.4l7.5-21.2l0.5-1.1l0.4-1.3l0.9-2.6c0.9-2.6,1.5-5.4,1.8-8.1h10.9l-1,1.9c-1.4,2.8-2.4,4.8-2.9,6.2l-0.1,0.3
			l-1.2,3.5l-0.5,1.1l-15.2,43.2l-15.2,0l-11.5-37.4l-8.7,24.6l-0.3,1.2l-0.6,1.7l-0.8,2.1c-0.4,1.3-0.7,2.6-0.9,3.9
			c-0.2,1.2-0.4,2.5-0.5,3.8L469.7,254.1L469.7,254.1z"/>
		<path class="st1" d="M105,206.1l-1.1,2.8c1.1,1.7,5.1,1.2,5.7,2.8c0.2,0.4-1.4,3.1-1.9,3.9c-3,0.4-6.8-1.1-9.8,0.6
			c-4.1,0.6-5-1.9-8.9,1.4c-3.1,2.2-3.8,7.1-7.4,6.6c-1.4-0.8,0-2.1,0-2.1c5.2-4.5,15.4-9.2,12.4-18.1
			C97.4,205.7,101.2,206.5,105,206.1z M136.5,159.5c0.6,3.9,0.7,9,3.4,12.1c3.5,3.9,6,9.1,4.2,14.6c0.5,1.3,2.1,2.3,3.1,3.3
			c3.3-0.6,7.2-2,10.2,0.5c3.7,5.2,0.5,12.9,3.9,17.6c8.7,11,27,20.6,19.2,37.6c-2.7,6.7-6.9,12.9-11,18.7l-18.4-1
			c1.6-2.4,3.2-4.9,4.6-7.4l-5.9-1.5l-1.2,0.8h-15.4c-0.8-5.4-2.1-10.4-5.7-14.6c0.4-2.3,2.5-6,1-8.2c-1.8,0.2-3.9,0.2-5.5,1.1
			c1.8,2.3,3.5,5.5,1.8,8.8c-0.5,1,1.7,1.7,2.3,2.4c1.3,1.9,2,3.2,1.5,5.7c-3.2,1.2-6.3,0.5-9.6,0.6c-0.8,0.3-1.1,1.2-1.4,2
			c-1.6,1-2.6,1.2-4.2,0.5c-2.7,0.4-6,0.7-8.1-2.3c-2-0.2-3.7-1.6-4.5-3.5c0.1-0.7,0.2-1.3,0.3-1.9c0.2-1,0.8-1.9,1.7-2.4
			c0.7-0.6,1.3-1.2,1.9-1.9c-0.2-1.4-0.4-3.6-1.3-4.8c-3.9,3.7-8.8,6.1-14.8,5.5c-0.5,0.5-0.8,1.1-0.9,1.8c3.3,1.7,5.3,5.1,5.3,8.8
			v1.6H75.8c-0.2-1.2-1.5-9.5,0.1-11.6c3.8-2.3,4.6-7.1,7.5-9.3c1.4-0.3,2.9-0.4,4.4-0.8c2.7-1.5,3.8-4.1,4.3-7.1
			c-3.2,0-3.1,6.2-7.7,6.6c-3.2,0.5-5.7-0.1-7.7-2.2c-2.3-2.3-3.2-5.7-2.3-8.8c3.1-6.7,10.8-7.3,13.8-12.9c-0.1-1-0.4-2.5-1.6-2.7
			c-0.7,0-2.2-0.1-2.6,0.7c0.8,1.8,0.6,3.9-0.6,5.5c-2.1,2.3-5,3.9-7.5,5.7c-0.9-6.5-2.7-14,5.1-17.2c2.3-1,6.3-1.3,8.7,0.2
			c1.2-0.4,2.2-1.1,2.8-2.2c-1.9,0.1-3.9-0.3-5.6-1.2c-3.8-1.6-7.2-4.1-8.9-8.1c1.1-0.6,2.2-1.4,3-2.4c-6-1.5-10.8-7-12.6-12.6
			c1.5-1,3.2-1.9,4.9-2.6c-11-2.8-15.2-11.5-17.6-21.9c17.8,2.2,33,2.3,50.8,1.7c3.4-0.1,6.3-0.6,9.6-0.9c3.9-0.4,7.9-0.5,11.8-0.1
			C133.8,150.8,135.6,154.5,136.5,159.5L136.5,159.5z"/>
		<path class="st2" d="M130.9,153.9c4,3.4,2.1,9.2,3.9,13.6c1.9,5.8,8.2,10.3,7.1,17.2c-1.7-0.9-3.6-1.5-5.5-1.9
			c1.1-11.2-13.7-16.6-10.8-28h-3.4c2-0.7-39.9,13.6-39.9,13.6c-5.2,0.8-10.6-0.6-14.8-3.9c-3.5-3.1-6-7.3-7.1-11.8
			c19.6,0.8,37.9,1.5,57.9-0.5C122.5,152.6,127.6,151.1,130.9,153.9L130.9,153.9z"/>
		<path class="st2" d="M122.8,161.5l-32.1,20.2c-3.8,2.1-9.5,2.5-13.1-0.4c-2.5-1.5-3.8-4-5.1-6.3l3.3-1.8
			c15.5-4.9,30.8-10.7,46.2-15.7C122.6,158.7,122.9,160.1,122.8,161.5L122.8,161.5z"/>
		<path class="st2" d="M126,166.9c-8.2,9.4-18.1,17.7-27.5,25.6c-2.6,2-6,2.7-9.2,1.9c-2-1.4-4.9-1.9-6.4-4.9l40.8-25.2
			C125.2,164.2,125.4,165.9,126,166.9L126,166.9z"/>
		<path class="st2" d="M130.3,172c-1.7,2.6-3.3,6.6-6,8.6c-1.6-0.1-3.2,0.4-4.5,1.3c-2.2,1.9-2.8,4.4-3.2,6.9h1.7
			c-4.1,5.2-8.2,13.4-15.2,14.8c-3,0.2-5.9-0.8-8.1-2.8c10.4-11.2,21.9-20.5,32.6-31.3C128.8,169.8,129.7,171.1,130.3,172L130.3,172
			z"/>
		<path class="st2" d="M133.9,180.2c0.3,1.8-0.1,2.9-1.9,3.3c-1.4-0.6-2.8-1.3-4.1-2.1c1.4-2,2.6-4.4,4.4-6.2L133.9,180.2z"/>
		<path class="st2" d="M134.8,185.3c4.4-0.2,7.4,3.8,10.5,6.3c-2.8,2.9-1.4,7.8,0,10.8c-1.8,3-5,6.7-2.4,10.3c1,1.8,2.2,4,0.9,6
			c-0.2-1.4-1.6-2.5-2.8-3.6l-1.8,2.8c-1-1.3-1.6-2.9-1.8-4.5c-2.4,0.4-1.5,4.5-4.2,5.1c-0.6-2.5-1.2-5.3-0.6-7.9
			c-1.5-0.8-2.5,1.9-3.6,2.4c-1.2-1.1-0.9-3.4-0.5-4.8c0.5-0.6,0.6-1.5,1.5-2.1l-2.5-0.2c-0.2-2.1,2.1-4.1,4.2-4.5
			c1.5-0.4,2.4,0.5,3.2,1.5c0.6-1.4-0.4-3-1.8-3.6c-3.6-0.1-6.9,4-10.5,1.3v-1c3.6-0.8,6.5-3.5,9.9-5c-4-2.8-8.1-7.1-12.8-7.9
			c-0.2-1.5,1.7-3,3.2-3.2C127.9,181.7,130.3,189.7,134.8,185.3L134.8,185.3z"/>
		<path class="st0" d="M142.9,192.9c-2.6-2.9-7.9,1.9-8.8-3c1.4,0.5,3,0.3,4.2-0.6C140.1,190.5,141.1,191.5,142.9,192.9L142.9,192.9
			z"/>
		<path class="st2" d="M125.5,192.2c0.2,2.1-1.5,3.8-3,4.8h-3c-1,2.3,1.5,3.9,2.4,5.8c-4.3,0.1-8.2,2.4-10.5,6
			c-1.5,0.1-2.9-0.2-4.2-1l14.3-18.3C123.1,190,124.5,190.9,125.5,192.2L125.5,192.2z"/>
		<path class="st2" d="M156.6,203.4c2.4,12.1,17.9,15.4,21.4,26.8c-11.1-8.9-26.6-17.7-31.9-30.8c-0.8-2.4-0.1-5,1.9-6.5
			c1.9-1.4,4.5-2.6,6.9-1.2C158.3,194.4,155.4,199.5,156.6,203.4L156.6,203.4z"/>
		<path class="st2" d="M90.6,205.8c-1.3-3.4-4.9-3.2-7.5-2.6c-2.3,0.5-2.2,1.5-1.6,2.6c0.1,0.2,0.3,0.5,0.4,0.8
			c0.1,0.3,0.2,0.5,0.3,0.8c0.1,0.6,0,1.2-0.5,1.7c-0.8,1.5-2.1,2.6-3.7,3.1c-0.1-3.6-0.2-6.9,2.7-9c2.6-1.8,7.5-3,9.9,0
			c1.8,1.5,2.4,4,1.5,6.2c-1.2,2.9-3.4,4.8-5.8,6.5c-1.2,0.9-2.5,1.7-3.7,2.6c-1.2,0.9-2.4,2-3.4,3.2c-1.1,2.1,0.6,4.1,2.2,5
			c1.5,0.1,3-0.5,4-1.6c0.5-0.5,1-1.1,1.4-1.7c0.4-0.6,0.8-1.2,1.3-1.9c1.7-2.5,3.4-4.5,7-3.3c0.4,1-0.3,2-1.1,3
			c-1.5-0.3-3,0.1-4.2,1.1c-0.5,0.5-1,1-1.4,1.6c-0.4,0.6-0.8,1.2-1.3,1.9c-1.7,2.5-3.3,4.5-7.1,2.6c-2.7-1.4-3.5-4.6-2.7-7.5
			c1-1.5,2.2-2.8,3.6-3.8c1.4-1.1,3-2,4.4-3C88.2,212.2,90.7,209.9,90.6,205.8L90.6,205.8z"/>
		<path class="st2" d="M124.9,205.2c0.5,1.6-1.1,3.1-2.1,4.5c0.8,0.5,1.8,0.3,2.8,0.3c-0.2,3.4,2.5,5.5,2.4,8.8
			c0.7-0.2,1.4-1.3,2.1-1.8c1.2,1.1,0.8,3.1,0.9,4.8c2,0.2,4-1.2,5.6-2.8l1,4.3c-4.1,7.3-12.9,6.1-19.9,7.8c-1.1-1.1-0.4-3-0.6-4.5
			c1.4-1.6,4.2-3.4,4.5-5.4c-2.8-1.2-5,2.9-7.1,4.5c1.8,6.4-4.1,14.6,2.6,19.3c0.8,2.1,0.2,5.1-1.8,6h-0.6c-1.1-1,1-2.3-0.6-3
			c-1,1.1-2.9,4.5-5,2.4c-1.2-1.4,1.5-2.5,0-3.6c-1.4,0.6-3,2.5-4.5,0.9c-0.8-0.5-1.1-1.6-0.6-2.4c0.1-0.1,0.1-0.2,0.2-0.3
			c1.6-1.6,3.4-0.8,3.9-2.3c-1.9-4.1-0.6-9.7-4.5-13.1c3.3-8.1,7.6-15.7,13-22.6C118.8,205.1,122.1,205.8,124.9,205.2L124.9,205.2z"
			/>
		<path class="st2" d="M148.9,209.1c-1.4,0.6-3,1-4.5,1.2c-1.1-2,0.5-3.9,2.1-4.9C147.8,206.2,149,207.6,148.9,209.1z"/>
		<path class="st2" d="M154.3,214.2c-1.6,3-5,4-7.8,5.1c0.5-2.4-0.9-4.6-1.2-6.9c1.7-0.9,3.2-1,5.8-1.2
			C152.4,211.5,152.7,212.6,154.3,214.2L154.3,214.2z"/>
		<path class="st2" d="M160.3,219.6c0.6,0.4,0.3,1.2-0.9,2.4c-5.6,3.9-11.1,7.8-17.1,10.5c0.5-3.3,1.5-6.5,2.8-9.5l11.4-6.4
			C157.8,217.4,159.1,218.4,160.3,219.6L160.3,219.6z"/>
		<path class="st2" d="M106.3,217.5c-1.2,5-7.6,9.8-3.6,15.1c-3.5,9.8-16.5,1.5-18.6,11.8c2.2,1,5.2,2.4,6,4.8
			c0,0.6,0.2,1.4-0.2,1.9c-2-0.1-2.1-3-4.2-3.4c-1.2,1.1,1.8,3-0.5,3.4c-1-0.9-1.4-2.9-3-2.8l-0.4,2.8c-1.5,0.1-2.5,0.7-3.3-1.1
			c-1.9-5.8,3.3-9.7,6-14.4C98.5,236,91.3,213.9,106.3,217.5L106.3,217.5z"/>
		<path class="st2" d="M142,220.5c0.2,8.5-8.4,17.1-2.1,25.4c2.6,0.4,5.8,1.3,6.6,3.9c0.5,0.5,0.1,1.5,0.2,2.1c-2,1-2-2.9-4.2-3
			l-0.2,3.3c-1.6-0.2-2.4-4-4.2-2.6c-0.4,1,0.8,1.4,0.4,2.4c-0.6,0.5-1.6,0.2-2.4,0.2c-0.9-4.5-2.8-8.8-5.5-12.6
			c2.2-3.8-0.1-10.4,6-11.6c3.6-1.9,2.5-6.4,4.9-8.4L142,220.5L142,220.5z"/>
		<path class="st2" d="M166.9,225c-3.4,8.9-13.6,13.7-20.4,20.6c-5,0.5-5.5-4-6.4-7.5l0.6-1.3c7.4-4.8,15.5-8.5,21.9-15.1
			C164.1,222.5,166.4,223,166.9,225L166.9,225z"/>
		<path class="st2" d="M172.9,229.3c0,10-8.5,16.5-14.8,23.9c-3.6-0.4-8.2-0.1-9.6-4.3v-1.8c6.9-7,16.2-12.1,20.5-20.9
			C170.9,226.5,171.6,228.3,172.9,229.3L172.9,229.3z"/>
		<path class="st2" d="M179.1,238.3c-1,8.9-6.8,16.1-11.4,23.2c-4.2,0.2-8-0.4-12-0.6c5.4-10.4,17.4-18.1,19.5-29.9
			C177.9,232.7,178.8,235.6,179.1,238.3z"/>
		<path class="st2" d="M123,238.3c1,2.3-2,3.3-1.1,5.1c1.6,0.8,4.1,1.9,4.1,4.1c-0.2,0.6-0.9,0.2-1.5,0.4c-0.9-0.9-1-2.8-2.6-2.4
			v2.4c-3.6,1.1-1.6-3.3-3.4-4.5c-3.8-1.9-1.6-6-1.8-9.4C120.2,231.3,121.5,236.7,123,238.3L123,238.3z"/>
	</g>
</g>
</svg>
