<svg id="Layer_1" data-name="Layer 1" xmlns="http://www.w3.org/2000/svg" xmlns:xlink="http://www.w3.org/1999/xlink" viewBox="0 0 171.45 93.72"><defs><style>.cls-1{fill:none;}.cls-2{clip-path:url(#clip-path);}.cls-3{fill:#2f1a45;}.cls-4,.cls-5{fill:#fff;}.cls-5{fill-rule:evenodd;}</style><clipPath id="clip-path" transform="translate(-1.39 -1.77)"><rect class="cls-1" x="-13.73" y="-7.47" width="195.84" height="104.4"/></clipPath></defs><g class="cls-2"><path class="cls-3" d="M64.4,19.69a5.41,5.41,0,0,0-2-.34c-2.16,0-3.44,1.27-5,3.34a23.76,23.76,0,0,1-1.64,2c0-1.18.14-3.44.27-4.91l-.62-.44a20.8,20.8,0,0,1-7.38,2l-.13.15v1.42l.13.15a14.37,14.37,0,0,1,3,.2c.44.24.44,1,.44,5.3v5.79c0,4,0,5.7-.35,6.14S50,41,48.12,41c-1.6,0-2.25-.1-2.53-.73-.14-.35-.14-1.77-.14-6.29,0-1.87,0-4.27,0-7.56,0-5.31-4.06-7.07-8.21-7.07-2.06,0-3.17.49-7.65,3.53l-.19,3.05.14.19,1,.35.23-.1a11.81,11.81,0,0,1,1-2.55,7.55,7.55,0,0,1,3.68-.94c4.76,0,5.27,3.73,5.27,6.09-12.13,2.7-13.39,3.83-13.39,8.4a8.66,8.66,0,0,0,.19,1.81,16.17,16.17,0,0,1-5.76,1.11c-10,0-15-7.75-15-17.21,0-7.17,3.88-14.86,12.62-14.86,4.17,0,7.68,1.71,8.8,3.22a36.52,36.52,0,0,1,.28,3.9l.14.16h1.5l.14-.16A30.61,30.61,0,0,1,31.27,8L31,7.65A36.67,36.67,0,0,0,20.14,5.72C8.45,5.72,1.39,13.26,1.39,24.9c0,12.27,8.84,18.51,18.05,18.51a22.86,22.86,0,0,0,9.29-1.87,5.35,5.35,0,0,0,4.36,1.82,4.63,4.63,0,0,0,3-.79c.42-.34,3.22-2.79,4.71-3.87,0,1.17-.14,2.45-.18,3.78l.28.24a28.86,28.86,0,0,1,3.59-.24c1.23,0,3.63.24,3.64.24s3.71-.24,5.5-.24c2.34,0,4.42.14,6.36.24l.14-.15V41.15L60,41c-2.21,0-3.44-.19-3.66-.49S56,38.4,56,34.37V28.92c0-3.09,1.86-4.76,4.24-4.76,2,0,2.57.64,3.1,2h.8A41.56,41.56,0,0,1,64.62,20ZM40.83,36.49c-2.1,2.25-3.59,3.33-5.22,3.33-1.91,0-3.31-1.22-3.31-3.68,0-2.26.6-3.58,8.53-5.45Z" transform="translate(-1.39 -1.77)"/><path class="cls-3" d="M65.06,21.51l.14-.15a20.9,20.9,0,0,0,7.38-2l.61.44c-.13,1.47-.26,3.73-.26,4.91a21.79,21.79,0,0,0,1.63-2c1.55-2.07,2.83-3.34,5-3.34a5.31,5.31,0,0,1,1.94.34l.22.29a41.56,41.56,0,0,0-.48,6.19h-.8c-.53-1.37-1.1-2-3.09-2-2.39,0-4.24,1.67-4.24,4.76v5.45c0,4,0,5.7.35,6.14s1.46.49,3.67.49l.13.15v1.42l-.13.15c-1.95-.1-4-.24-6.37-.24-1.81,0-3.62.14-5.56.24l-.14-.15V41.15L65.2,41c1.94,0,2.91-.19,3.13-.49s.36-2.11.36-6.14V28.58c0-4.27,0-5.06-.45-5.31a15,15,0,0,0-3-.19l-.14-.15Z" transform="translate(-1.39 -1.77)"/><path class="cls-3" d="M92.94,19.35c8.16,0,11,6.38,11,11.83,0,8-5.88,12.18-11.48,12.18C85,43.36,81.74,38,81.74,32c0-7.81,4.29-12.62,11.2-12.62m-.33,1.86c-4,0-5.74,3.24-5.74,9.53,0,6.53,2.24,10.75,6.16,10.75s5.79-3.43,5.79-8.84c0-7.56-2.71-11.44-6.21-11.44" transform="translate(-1.39 -1.77)"/><path class="cls-3" d="M126.43,41c-1.77,0-2.8-.19-3-.49S123,38.4,123,34.37V13.75c0-1.87,0-4.86.23-6.68l-.65-.44a25,25,0,0,1-7.65,2l-.15.15v1.42l.15.15a15.35,15.35,0,0,1,2.94.19c.46.25.46,1,.46,5.31V34.37c0,4,0,5.7-.37,6.14s-1.38.49-3.15.49-2.92-.19-3.15-.49-.37-2.11-.37-6.14V13.75c0-1.87.05-4.86.23-6.68l-.65-.44a25,25,0,0,1-7.65,2l-.14.15v1.42l.14.15a15.29,15.29,0,0,1,2.94.19c.46.25.46,1,.46,5.31V34.37c0,4,0,5.7-.37,6.14s-1.26.49-3,.49l-.14.15v1.42l.14.15c1.77-.1,3.68-.24,5.6-.24,2.19,0,4.22.14,6,.24,1.77-.1,3.8-.24,5.71-.24,2.2,0,4.11.14,5.88.24l.14-.15V41.15Z" transform="translate(-1.39 -1.77)"/><path class="cls-3" d="M71.55,59.25c-6.9,0-11.19,4.81-11.19,12.62A13.5,13.5,0,0,0,61.7,78a15.68,15.68,0,0,1-8,2.23c-10.05,0-15-7.75-15-17.21,0-7.17,3.88-14.86,12.62-14.86,4.17,0,7.68,1.71,8.8,3.22a36.52,36.52,0,0,1,.28,3.9l.14.16h1.5l.13-.16a30.76,30.76,0,0,1,.9-7.33l-.29-.36A36.67,36.67,0,0,0,52,45.62c-11.69,0-18.75,7.54-18.75,19.18,0,12.27,8.84,18.51,18.05,18.51a22.55,22.55,0,0,0,10.81-2.6c.31-.17.71-.36,1.1-.59a10.2,10.2,0,0,0,7.9,3.14c5.6,0,11.47-4.12,11.47-12.18,0-5.45-2.84-11.83-11-11.83m.1,22.14c-3.92,0-6.16-4.22-6.16-10.75,0-6.29,1.77-9.53,5.74-9.53,3.5,0,6.2,3.88,6.2,11.44,0,5.41-1.86,8.84-5.78,8.84" transform="translate(-1.39 -1.77)"/><path class="cls-3" d="M105,80.9c-1.77,0-2.8-.19-3-.49-.38-.44-.38-2.11-.38-6.14V53.65c0-1.87.05-4.86.24-6.68l-.66-.44a25,25,0,0,1-7.65,2l-.14.15v1.42l.14.15a15.29,15.29,0,0,1,2.94.19c.47.25.47,1,.47,5.31V74.27c0,4,0,5.7-.38,6.14s-1.37.49-3.14.49-2.91-.19-3.14-.49-.38-2.11-.38-6.14V53.65c0-1.87,0-4.86.24-6.68l-.65-.44a25,25,0,0,1-7.66,2l-.14.15v1.42l.14.15a15.29,15.29,0,0,1,2.94.19c.47.25.47,1,.47,5.31V74.27c0,4,0,5.7-.37,6.14s-1.26.49-3,.49l-.14.15v1.42l.14.15c1.78-.1,3.69-.24,5.6-.24,2.19,0,4.22.14,6,.24,1.77-.1,3.8-.24,5.71-.24,2.19,0,4.11.14,5.88.24l.14-.15V81.05Z" transform="translate(-1.39 -1.77)"/><path class="cls-3" d="M123.75,78.59a26,26,0,0,0-1,2.41,14.44,14.44,0,0,1-7.79,2.26c-6.63,0-10.68-4.62-10.68-11.44,0-4.77,1.07-7.61,3-9,3.26-2.36,5.64-3.53,7.88-3.53,9,0,9,7.46,9,10.6l-.14.25a23.65,23.65,0,0,1-7.7.88h-7c.23,5.26,2.56,9.33,8.16,9.33a10.16,10.16,0,0,0,5.64-2.16Zm-14.51-9.67c2.42.15,4.2.2,6,.2a28.45,28.45,0,0,0,4.1-.2c0-4.08-.93-7.81-4.94-7.81-4.48,0-5.13,5.6-5.13,7.81" transform="translate(-1.39 -1.77)"/><path class="cls-3" d="M148.85,61.41c-.46.78-.93,1.57-1.35,2.35-.56,0-1.21,0-1.82,0s-1.4,0-2,0a10.16,10.16,0,0,1,.61,3.29c0,5.31-5.65,8.45-9.66,8.45-.56,0-1.07,0-1.49,0-1.59,1.38-1.82,1.87-1.82,2.51,0,1,.56,1.22,3.78,1.22,1.86,0,3.73-.14,5.87-.14,4.06,0,6.68,2.25,6.68,6.08,0,6-5.65,10.37-12.93,10.37-7.79,0-9.84-4.47-9.84-7a5.51,5.51,0,0,1,1.35-3.58c1.21-.64,2.34-1.33,3.41-2-1.73-.59-2.38-1.43-2.38-2.85a3.79,3.79,0,0,1,.7-2.31c1.16-.88,2.28-1.77,3.31-2.7A6.46,6.46,0,0,1,126,68.63,8.1,8.1,0,0,1,129,61.85a13.39,13.39,0,0,1,7.33-2.6,8.32,8.32,0,0,1,5.74,1.91,60.31,60.31,0,0,0,6.44-.2ZM137.47,82.87a31.87,31.87,0,0,0-5.51.34c-2.19,1.38-3,2.6-3,4.67,0,3.92,2.89,5.74,6.2,5.74,4.9,0,8.31-2.5,8.31-6.68,0-2.6-1.78-4.07-6-4.07M134.9,61.31c-2.75,0-4.48,2.11-4.48,4.86,0,5.45,2.62,7.46,4.48,7.46,2.52,0,4.76-1.32,4.76-4.91,0-4.32-2-7.41-4.76-7.41" transform="translate(-1.39 -1.77)"/><path class="cls-3" d="M166,78.59c-.37.79-.74,1.63-1,2.41a14.47,14.47,0,0,1-7.79,2.26c-6.63,0-10.69-4.62-10.69-11.44,0-4.77,1.08-7.61,3-9,3.27-2.36,5.65-3.53,7.89-3.53,9,0,9,7.46,9,10.6l-.14.25a23.56,23.56,0,0,1-7.69.88h-7c.24,5.26,2.57,9.33,8.17,9.33a10.16,10.16,0,0,0,5.64-2.16Zm-14.51-9.67c2.43.15,4.2.2,6,.2a28.45,28.45,0,0,0,4.1-.2c0-4.08-.93-7.81-4.94-7.81-4.48,0-5.14,5.6-5.14,7.81" transform="translate(-1.39 -1.77)"/><path class="cls-4" d="M153,50.52c-6.5-5-10.8-8.92-13.65-12.49a22.19,22.19,0,0,1-4.9-10.34,43.43,43.43,0,0,1-.53-7.75c0-8.58-.1-14.24-.15-16.54l0-1.15V1.89h39v.36l0,1.15c0,.77,0,1.91-.06,3.4-.05,3-.09,7.42-.09,13.14a43.38,43.38,0,0,1-.54,7.75,21.12,21.12,0,0,1-2.49,6.87c-2.62,4.55-7.39,9.29-16.05,16l-.21.16Z" transform="translate(-1.39 -1.77)"/><path class="cls-3" d="M152.94,50.61l.08-.09.07-.1.14.11.14-.11c8.65-6.67,13.41-11.4,16-15.92a20.59,20.59,0,0,0,2.48-6.83,43.15,43.15,0,0,0,.54-7.73c0-5.72,0-10.14.09-13.14,0-1.5,0-2.63.06-3.4s0-1.1,0-1.15h0V2H133.87v.24h0v.06a1.28,1.28,0,0,1,0,.22c0,.19,0,.48,0,.86.05,2.3.15,8,.15,16.54a43.15,43.15,0,0,0,.54,7.73A22.08,22.08,0,0,0,139.46,38c2.84,3.55,7.14,7.46,13.63,12.46l-.07.1-.08.09c-6.5-5-10.81-8.92-13.67-12.5a22.38,22.38,0,0,1-4.92-10.4,43.73,43.73,0,0,1-.53-7.77c0-8.58-.1-14.24-.15-16.53l0-1.16,0-.48h39.21v.48l0,1.16c0,.76,0,1.9-.06,3.4,0,3-.09,7.41-.09,13.13a42.77,42.77,0,0,1-.54,7.77,20.93,20.93,0,0,1-2.51,6.91c-2.63,4.57-7.41,9.32-16.07,16l-.29.23Z" transform="translate(-1.39 -1.77)"/><path class="cls-3" d="M134.46,2.59c0,1.48.18,7.49.18,17.35a42.57,42.57,0,0,0,.52,7.62,20.11,20.11,0,0,0,2.42,6.65,32.11,32.11,0,0,0,4.75,6.14l3.18-2.94a1.84,1.84,0,0,0,.52-.33c.2.17.22.72.24.73.8-.21.69-.84.69-.84a1,1,0,0,0,.46-.12.49.49,0,0,0,.23-.42c.18,0,.6.36.62.36a1,1,0,0,0-.27-1.17c.18-.16,0-.5,0-.5a6.14,6.14,0,0,1,.67.19,1.23,1.23,0,0,0-.15-.72l4.67-4.32,4.68,4.32a1.34,1.34,0,0,0-.2.75,6.4,6.4,0,0,1,.69-.22s-.13.34,0,.5a1,1,0,0,0-.27,1.17s.45-.36.62-.36a.49.49,0,0,0,.23.42,1,1,0,0,0,.46.12s-.1.63.69.84c0,0,.05-.56.24-.73a2,2,0,0,0,.56.34l3.16,2.92c.91-.94,1.71-1.86,2.42-2.74a21.52,21.52,0,0,0,4.75-10,42.57,42.57,0,0,0,.52-7.62c0-9.86.14-15.87.17-17.35Z" transform="translate(-1.39 -1.77)"/><path class="cls-4" d="M154.84,8.63H156s0-.07,0-.16-.1-.13-.1-.21V8.05a11.11,11.11,0,0,0-.11-1.58,2.72,2.72,0,0,0-.44-1.26,1.35,1.35,0,0,0-.56-.47,3.26,3.26,0,0,1,.32.56c.05.17.07.21,0,.26s-.42.19-.27.54c0,0,.21.44.25.51l.11.22c0,.06,0,.09,0,.1s-.06,0-.16,0a3.56,3.56,0,0,0-1-.4.65.65,0,0,1,.16.28,3.21,3.21,0,0,1,0,.62.4.4,0,0,0,.26.45c.24.09.5.2.54.37a.72.72,0,0,1-.1.42" transform="translate(-1.39 -1.77)"/><path class="cls-4" d="M156,4.6A1.9,1.9,0,0,1,156.62,6a2.83,2.83,0,0,1-.4,1.27,4.31,4.31,0,0,0-.53-2.16,2.49,2.49,0,0,1,.41.34,2.16,2.16,0,0,0-.1-.89" transform="translate(-1.39 -1.77)"/><path class="cls-4" d="M154.83,12.82a1.15,1.15,0,0,1-.43.89,2.37,2.37,0,0,0,1-.27,1.26,1.26,0,0,0,.47,1.25A1.49,1.49,0,0,0,157,15c.33,0,.43.12.43.12a2.42,2.42,0,0,0,.5-1.07c.13-.49.2-.82.2-.82a3.31,3.31,0,0,1-1.5-1.16,3.75,3.75,0,0,1-.7-1.88h-1.33s-.13.18-.29.46a1.87,1.87,0,0,0-.2.58c.38-.35.62-.3.66-.23s0,.17-.1.24a.77.77,0,0,0-.05.67,2.85,2.85,0,0,1,.19.89" transform="translate(-1.39 -1.77)"/><path class="cls-4" d="M153.62,15.86a1.46,1.46,0,0,1,.69.27c.28.23.51.66.78.89a1.72,1.72,0,0,0,1.2.27l1.3,0a1,1,0,0,0,.78.5.73.73,0,0,0,.88-.62,2,2,0,0,0-.07-.79l-.07-.26.26-.26c.11-.14.22-.31.22-.31a.92.92,0,0,0,.48,0,1.68,1.68,0,0,0,.51-.25s.16.6.27,1a3,3,0,0,1,.13.91,1,1,0,0,1-.24.56,1.88,1.88,0,0,0,.55-.09,3.12,3.12,0,0,0,.74-.45l.38-.32s.19.84,0,1.13a1.25,1.25,0,0,1-.44.41.68.68,0,0,0,0-.24.55.55,0,0,0-.11-.22,2.46,2.46,0,0,1-.38,1.17,1.93,1.93,0,0,1-.79.6l-.45-.74s-.06.13-.33.17-.91-.12-1.16.18a1,1,0,0,0-.17.75,1.86,1.86,0,0,1-.88-.37,1.25,1.25,0,0,1-.31-.62,1.75,1.75,0,0,1-1.82.78s.89-.86.47-1.3-.71,0-1.07.07-.5,0-.52-.22a.47.47,0,0,1,.35-.47,1.05,1.05,0,0,0-1,.38.74.74,0,0,1,.43-.82s-.61-.29-.43-.81a1,1,0,0,0-.15-.89" transform="translate(-1.39 -1.77)"/><path class="cls-4" d="M154.12,15.69a.86.86,0,0,1,.9.14c.32.36.38,1,.73,1.2a1.15,1.15,0,0,1-.64-.3c-.22-.25-.55-1-1-1" transform="translate(-1.39 -1.77)"/><path class="cls-4" d="M161.78,19.19c1.32,1.56,1,2.77,0,4.89s-.11,3.72-.48,5.35a3.78,3.78,0,0,1-1.66,2.4,6.59,6.59,0,0,0-.81,1,12.85,12.85,0,0,0,1.94-.8,3.63,3.63,0,0,0,1.37-1.27l1.15.89c.6.46.07.94-.6,1.72s-.31,1-1.2,1.64-1.43.24-2.38.51-.81,1-.81,1a1,1,0,0,1,.7-.31.58.58,0,0,0,.15.5c.21.2.56,0,.56,0a.64.64,0,0,0,.3.84.94.94,0,0,1,.42-.68,1.46,1.46,0,0,0,1.19.57c.39,0,.42-.89.42-.89a1.55,1.55,0,0,0,.87-.35,2.65,2.65,0,0,0,.6-1.21,1.53,1.53,0,0,0,.92,1.2s-.19-1.06.14-1.5.75-.58,1.07-.94a.87.87,0,0,0,.07-.87s.54,0,.71-.38-.28-.93-.94-1.78a2.49,2.49,0,0,1-.56-1.68,2.05,2.05,0,0,0,2.27.39c-2.19-1.31-1.63-4.46-1.63-4.46a2.91,2.91,0,0,0,2.7.13c1.57-.67,1.89-2.51,2.08-3.54a30.53,30.53,0,0,0,.2-4.23c0-1.37.11-9.6.11-11.38s-1-2.28-1.7-2.28-1.09.48-1.69.48a.67.67,0,0,1-.66-.57c-1.14.8.23,1.52.23,1.52s-.51.13-.51,1.36.9,3.3.9,4.51-1,2.65-1,3.42a1.62,1.62,0,0,0,.33,1.1A10.69,10.69,0,0,1,168,11.85a5.52,5.52,0,0,0,.5-2.41c0-1-.57-1.77-.54-2.65a2.09,2.09,0,0,1,.16-.75c.64.33,1,0,1,0s-.79-.48-.42-.94,1.45.12,1.45,1.51-1.47,3.07-1.47,5.55a6.87,6.87,0,0,0,.68,3.51,5.47,5.47,0,0,0-1.37-.86c.6,1.37-.38,2.24-.38,3.78a2.45,2.45,0,0,0,1.11,2.15,1.4,1.4,0,0,0-1.29.39,1.19,1.19,0,0,0-.22,1.4.86.86,0,0,1,.78-.59c.4,0,.59.46.6.85A1.27,1.27,0,0,1,167.07,24c-1.14,0-1.78-1.5-2.15-3.78a13.8,13.8,0,0,1-.06-4.15,2.65,2.65,0,0,1-.87-.89,7.25,7.25,0,0,0-.47.68l-.31-.39a2.48,2.48,0,0,0-.44,1.89c.16,1.17-.61,1.26-.61,1.26a2.83,2.83,0,0,1-.38.59" transform="translate(-1.39 -1.77)"/><path class="cls-4" d="M160,14.39a1.25,1.25,0,0,1-.24.83s.5.22,1.27-.7a1.73,1.73,0,0,0,0,1.49c.36,1,.16,1.35.16,1.35s1.13-.08,1.95-2.57a1.66,1.66,0,0,0,.32.61,2.11,2.11,0,0,1,.53-.61,3,3,0,0,0,.67.75c.34.24.87.57.92,1a2.54,2.54,0,0,0-.06-.84,5,5,0,0,1-.39-1.57,3,3,0,0,1,.47-1.6,2.22,2.22,0,0,0,.17-1.28,2.85,2.85,0,0,0-.4-.84c-.07-.13-.11-.23-.07-.25s.09,0,.09,0a1.47,1.47,0,0,0,.43.27,1.62,1.62,0,0,0,.61.11,7.4,7.4,0,0,1-.55-1,2.4,2.4,0,0,1-.14-1.68,1,1,0,0,1-.38,0c-.1,0,0-.09,0-.13a2,2,0,0,0,.07-.8,2.56,2.56,0,0,0-.18-1,4.06,4.06,0,0,0-.85.88c0,.06-.09.07-.13,0s0-.17,0-.26l.1-.42a1.61,1.61,0,0,1-.69,0,4.13,4.13,0,0,0-.91,0,.6.6,0,0,0-.4.21c-.07.07-.11,0-.11,0a1,1,0,0,0-.57-.21.76.76,0,0,0-.62.14c-.18.2.06.45.14.5s.18.15.13.21-.46-.25-.56.07.23.56.65.89,1,.73,1.13,1c0,0,.12.22.06.27s-.06,0-.2-.13a2.57,2.57,0,0,0-.88-.59A4.52,4.52,0,0,1,160.33,8a2.71,2.71,0,0,1-1-1.64,1.89,1.89,0,0,0,.18,1.42,2,2,0,0,0,1.31,1,4.28,4.28,0,0,1,1.1.36,2.62,2.62,0,0,1,.62.46s.07.1,0,.14-.11,0-.34-.14a1.68,1.68,0,0,0-.89-.27c-.41,0-.61.08-.67.3s0,.46-.23.64a.92.92,0,0,0,.62-.07,2.64,2.64,0,0,0,.42-.3s.06-.05.08,0a.87.87,0,0,1-.42,1.23,1.17,1.17,0,0,1-1.61-.5.28.28,0,0,0-.21.21.86.86,0,0,0,.2.57c.14.19.19.29.05.34a1,1,0,0,0-.59.42,2.81,2.81,0,0,0-.56,1.22s-.26,1-.43,1.41a3.85,3.85,0,0,1-1.35,1.91,2.72,2.72,0,0,0,1.9-.48c.62-.61,1.07-1.42,1.43-1.74" transform="translate(-1.39 -1.77)"/><path class="cls-4" d="M158,35s.42-1.25,1.9.14a2.1,2.1,0,0,0-1.28.23.69.69,0,0,1,.23-.45s-.22-.17-.85.08" transform="translate(-1.39 -1.77)"/><path class="cls-4" d="M161.59,19.45a3.65,3.65,0,0,1,.78,2c0,1.06-1,2.27-1,3a3.92,3.92,0,0,0-1.21,2,1.78,1.78,0,0,1-.72-.79s-.23.65.58,1.4,1.22,1.24,1,1.64a.91.91,0,0,1-.64.45.69.69,0,0,1-.22.61c-.28.28-.73.11-1.2.36a1,1,0,0,0-.53.7s-.39-.24-.35-1.09c0,0-.19,0-.44.2s-.59.33-.68.23-.26-.64-.51-.5-.36.43-.15.91a.94.94,0,0,1-.61-.95.61.61,0,0,1-.69,0s.47-.32.21-.58-.63,0-.73.2c0,0-.17-.81.87-1.1a3.13,3.13,0,0,1,2.12.15c.21.09.73.27.94,0s-.15-.55-.35-.72-2.65-1.72-3-3,.16-1.62.16-1.62-1.06-.85-.51-1.81A1.6,1.6,0,0,0,156,22s.44-.43,1.9-.43c2.14,0,2.79,1.3,3.55.59a1,1,0,0,0,.1-1.36c-.27-.44-.48-.79,0-1.36" transform="translate(-1.39 -1.77)"/><path class="cls-4" d="M154.16,27.65s.66-1.25,1.79.11a1.72,1.72,0,0,0-.95.17.81.81,0,0,0-.84-.28" transform="translate(-1.39 -1.77)"/><path class="cls-4" d="M151.62,8.63H150.5V8.47c0-.09.1-.13.1-.21V8.05a11.11,11.11,0,0,1,.11-1.58,2.82,2.82,0,0,1,.43-1.26,1.41,1.41,0,0,1,.57-.47,3.26,3.26,0,0,0-.32.56c0,.17-.07.21,0,.26s.41.19.27.54c0,0-.21.44-.25.51l-.11.22c0,.06,0,.09,0,.1s.06,0,.16,0a3.56,3.56,0,0,1,1-.4.65.65,0,0,0-.16.28,4.21,4.21,0,0,0,0,.62.39.39,0,0,1-.25.45c-.24.09-.5.2-.54.37a.72.72,0,0,0,.1.42" transform="translate(-1.39 -1.77)"/><path class="cls-4" d="M150.46,4.6A1.9,1.9,0,0,0,149.84,6a2.83,2.83,0,0,0,.4,1.27,4.31,4.31,0,0,1,.53-2.16,2.49,2.49,0,0,0-.41.34,2.16,2.16,0,0,1,.1-.89" transform="translate(-1.39 -1.77)"/><path class="cls-4" d="M151.63,12.82a1.15,1.15,0,0,0,.43.89,2.37,2.37,0,0,1-1-.27,1.26,1.26,0,0,1-.47,1.25,1.49,1.49,0,0,1-1.14.33.67.67,0,0,0-.44.12,2.54,2.54,0,0,1-.49-1.07c-.13-.49-.2-.82-.2-.82a3.31,3.31,0,0,0,1.5-1.16,3.75,3.75,0,0,0,.7-1.88h1.33s.13.18.29.46a1.87,1.87,0,0,1,.2.58c-.38-.35-.62-.3-.66-.23s.05.17.1.24a.77.77,0,0,1,0,.67,2.85,2.85,0,0,0-.19.89" transform="translate(-1.39 -1.77)"/><path class="cls-4" d="M152.84,15.86a1.46,1.46,0,0,0-.69.27c-.28.23-.51.66-.78.89a1.72,1.72,0,0,1-1.2.27l-1.3,0a1,1,0,0,1-.78.5.75.75,0,0,1-.89-.62,2.11,2.11,0,0,1,.08-.79l.07-.26a2.81,2.81,0,0,1-.26-.26c-.11-.14-.22-.31-.22-.31a.92.92,0,0,1-.48,0,1.68,1.68,0,0,1-.51-.25s-.16.6-.27,1a3,3,0,0,0-.13.91,1,1,0,0,0,.24.56,1.93,1.93,0,0,1-.55-.09,3.12,3.12,0,0,1-.74-.45l-.38-.32s-.19.84,0,1.13a1.25,1.25,0,0,0,.44.41,1.67,1.67,0,0,1,0-.24.76.76,0,0,1,.11-.22,2.52,2.52,0,0,0,.39,1.17,1.93,1.93,0,0,0,.79.6l.45-.74s.06.13.32.17.92-.12,1.17.18a1,1,0,0,1,.17.75,1.86,1.86,0,0,0,.88-.37,1.25,1.25,0,0,0,.31-.62,1.76,1.76,0,0,0,1.83.78s-.9-.86-.48-1.3.71,0,1.07.07.5,0,.52-.22a.47.47,0,0,0-.35-.47,1.05,1.05,0,0,1,1,.38.74.74,0,0,0-.43-.82s.61-.29.43-.81a1,1,0,0,1,.15-.89" transform="translate(-1.39 -1.77)"/><path class="cls-4" d="M152.34,15.69a.86.86,0,0,0-.9.14c-.32.36-.38,1-.73,1.2a1.15,1.15,0,0,0,.64-.3c.22-.25.55-1,1-1" transform="translate(-1.39 -1.77)"/><path class="cls-4" d="M144.68,19.19c-1.32,1.56-1,2.77,0,4.89s.11,3.72.48,5.35a3.78,3.78,0,0,0,1.66,2.4,6.59,6.59,0,0,1,.81,1,12.85,12.85,0,0,1-1.94-.8,3.63,3.63,0,0,1-1.37-1.27l-1.15.89c-.6.46-.07.94.6,1.72s.31,1,1.2,1.64,1.43.24,2.37.51.82,1,.82,1a1,1,0,0,0-.7-.31.58.58,0,0,1-.15.5c-.21.2-.57,0-.57,0a.63.63,0,0,1-.29.84.94.94,0,0,0-.42-.68,1.46,1.46,0,0,1-1.19.57c-.39,0-.42-.89-.42-.89a1.55,1.55,0,0,1-.87-.35,2.65,2.65,0,0,1-.6-1.21,1.53,1.53,0,0,1-.93,1.2s.2-1.06-.14-1.5-.74-.58-1.06-.94a.88.88,0,0,1-.08-.87s-.54,0-.7-.38.28-.93.94-1.78a2.49,2.49,0,0,0,.56-1.68,2.05,2.05,0,0,1-2.27.39c2.19-1.31,1.63-4.46,1.63-4.46a2.91,2.91,0,0,1-2.7.13c-1.57-.67-1.89-2.51-2.08-3.54a30.42,30.42,0,0,1-.21-4.23c0-1.37-.1-9.6-.1-11.38s1-2.28,1.7-2.28,1.09.48,1.69.48a.67.67,0,0,0,.66-.57c1.14.8-.23,1.52-.23,1.52s.51.13.51,1.36-.9,3.3-.9,4.51,1,2.65,1,3.42a1.62,1.62,0,0,1-.33,1.1,10.69,10.69,0,0,0-1.39-3.57,5.52,5.52,0,0,1-.5-2.41c0-1,.57-1.77.54-2.65a2.09,2.09,0,0,0-.16-.75c-.64.33-1,0-1,0s.79-.48.42-.94-1.45.12-1.45,1.51,1.47,3.07,1.47,5.55a6.87,6.87,0,0,1-.68,3.51,5.47,5.47,0,0,1,1.37-.86c-.6,1.37.38,2.24.38,3.78a2.45,2.45,0,0,1-1.11,2.15,1.4,1.4,0,0,1,1.29.39,1.19,1.19,0,0,1,.22,1.4.86.86,0,0,0-.78-.59c-.4,0-.59.46-.6.85A1.26,1.26,0,0,0,139.38,24c1.15,0,1.79-1.5,2.16-3.78a13.8,13.8,0,0,0,.06-4.15,2.65,2.65,0,0,0,.87-.89,7.25,7.25,0,0,1,.47.68l.31-.39a2.48,2.48,0,0,1,.44,1.89c-.16,1.17.61,1.26.61,1.26a2.83,2.83,0,0,0,.38.59" transform="translate(-1.39 -1.77)"/><path class="cls-4" d="M146.48,14.39a1.25,1.25,0,0,0,.24.83s-.5.22-1.28-.7a1.71,1.71,0,0,1,0,1.49c-.36,1-.16,1.35-.16,1.35s-1.13-.08-1.95-2.57a1.66,1.66,0,0,1-.32.61,2.11,2.11,0,0,0-.53-.61,3,3,0,0,1-.67.75c-.34.24-.87.57-.92,1a2.54,2.54,0,0,1,.06-.84,5,5,0,0,0,.39-1.57,3,3,0,0,0-.47-1.6,2.22,2.22,0,0,1-.17-1.28,2.85,2.85,0,0,1,.4-.84c.07-.13.11-.23.07-.25s-.09,0-.09,0a1.47,1.47,0,0,1-.43.27,1.62,1.62,0,0,1-.61.11,7.4,7.4,0,0,0,.55-1,2.4,2.4,0,0,0,.14-1.68,1,1,0,0,0,.38,0c.1,0,.06-.09,0-.13a2,2,0,0,1-.07-.8,2.56,2.56,0,0,1,.18-1,4.06,4.06,0,0,1,.85.88c0,.06.09.07.13,0s0-.17,0-.26l-.1-.42a1.61,1.61,0,0,0,.69,0,4.2,4.2,0,0,1,.92,0,.63.63,0,0,1,.39.21c.07.07.11,0,.11,0a1,1,0,0,1,.57-.21.8.8,0,0,1,.63.14c.17.2-.07.45-.15.5s-.18.15-.14.21.47-.25.56.07-.22.56-.64.89-1,.73-1.13,1c0,0-.12.22-.06.27s.06,0,.2-.13a2.57,2.57,0,0,1,.88-.59A4.52,4.52,0,0,0,146.13,8a2.71,2.71,0,0,0,1-1.64A1.89,1.89,0,0,1,147,7.74a2,2,0,0,1-1.31,1,4.28,4.28,0,0,0-1.1.36,2.62,2.62,0,0,0-.62.46s-.07.1,0,.14.11,0,.34-.14a1.68,1.68,0,0,1,.9-.27c.4,0,.6.08.66.3s0,.46.23.64a.92.92,0,0,1-.62-.07,2.64,2.64,0,0,1-.42-.3s-.06-.05-.08,0a.87.87,0,0,0,.42,1.23,1.17,1.17,0,0,0,1.61-.5.28.28,0,0,1,.21.21.86.86,0,0,1-.2.57c-.14.19-.19.29-.05.34a1,1,0,0,1,.59.42,2.81,2.81,0,0,1,.56,1.22s.26,1,.43,1.41a3.85,3.85,0,0,0,1.35,1.91,2.72,2.72,0,0,1-1.9-.48c-.62-.61-1.07-1.42-1.43-1.74" transform="translate(-1.39 -1.77)"/><path class="cls-4" d="M148.48,35s-.42-1.25-1.9.14a2.1,2.1,0,0,1,1.28.23.69.69,0,0,0-.23-.45s.22-.17.85.08" transform="translate(-1.39 -1.77)"/><path class="cls-4" d="M144.87,19.45a3.65,3.65,0,0,0-.78,2c0,1.06,1,2.27,1,3a3.92,3.92,0,0,1,1.21,2,1.73,1.73,0,0,0,.71-.79s.24.65-.57,1.4-1.22,1.24-1,1.64a.91.91,0,0,0,.64.45.69.69,0,0,0,.22.61c.28.28.73.11,1.2.36a1,1,0,0,1,.53.7s.39-.24.35-1.09c0,0,.19,0,.44.2s.59.33.68.23.26-.64.51-.5.36.43.15.91a.94.94,0,0,0,.61-.95.61.61,0,0,0,.69,0s-.47-.32-.21-.58.63,0,.73.2c0,0,.17-.81-.87-1.1a3.12,3.12,0,0,0-2.12.15c-.21.09-.73.27-.94,0s.15-.55.35-.72,2.65-1.72,3-3-.16-1.62-.16-1.62,1.06-.85.5-1.81a1.58,1.58,0,0,1-1.35,1s-.44-.43-1.9-.43c-2.14,0-2.79,1.3-3.55.59a1,1,0,0,1-.1-1.36c.27-.44.48-.79,0-1.36" transform="translate(-1.39 -1.77)"/><path class="cls-4" d="M152.3,27.65s-.66-1.25-1.79.11a1.72,1.72,0,0,1,1,.17.81.81,0,0,1,.84-.28" transform="translate(-1.39 -1.77)"/><path class="cls-3" d="M163.83,8.09c-.17-.13-.12-.23-.28-.51s-.4-.33-.52-.49,0-.42-.13-.48h0c-.07,0-.09.08-.14.17s-.1.06-.11.14a.18.18,0,0,0,0,.06c0,.09.06.14.07.17a.52.52,0,0,0-.19.36.92.92,0,0,0,0,.16.74.74,0,0,0,.1.37.63.63,0,0,0,.43.36h.12a.46.46,0,0,0,.3-.1.58.58,0,0,0,.11-.1l.15.1c.11.09.16.16.25.19h0a.18.18,0,0,0,.15-.14h0c0-.09-.15-.13-.31-.26" transform="translate(-1.39 -1.77)"/><path class="cls-3" d="M143.77,7.14s0-.08.07-.17a.18.18,0,0,0,0-.06c0-.08-.07-.06-.11-.14s-.07-.16-.14-.17h0c-.1.06,0,.32-.14.48s-.35.21-.51.49-.11.38-.28.51-.3.17-.31.26h0a.17.17,0,0,0,.15.14h0c.09,0,.13-.1.25-.19l.15-.1a.58.58,0,0,0,.11.1.46.46,0,0,0,.3.1h.12a.63.63,0,0,0,.43-.36.74.74,0,0,0,.1-.37.92.92,0,0,0,0-.16.52.52,0,0,0-.19-.36" transform="translate(-1.39 -1.77)"/><path class="cls-5" d="M143.51,7.25a.86.86,0,0,0-.21.17.16.16,0,0,0,0,.21s0,.07.13.07.12-.1.12-.1,0,0,0,.16-.15.17-.25.19-.16-.15-.22-.18-.1.07-.13.15.08.19.14.24a.37.37,0,0,0,.4.05.63.63,0,0,0,.36-.61.44.44,0,0,0-.19-.37.24.24,0,0,0-.14,0" transform="translate(-1.39 -1.77)"/><path class="cls-3" d="M165,6.7a1,1,0,0,1,.11.75,1.16,1.16,0,0,1-.38.63c-.08,0-.2-.45-.11-.75s.3-.64.38-.63" transform="translate(-1.39 -1.77)"/><path class="cls-3" d="M141.49,6.7a1,1,0,0,0-.11.75,1.16,1.16,0,0,0,.38.63.93.93,0,0,0,.11-.75c-.09-.3-.3-.64-.38-.63" transform="translate(-1.39 -1.77)"/><path class="cls-5" d="M162.81,7.23a.47.47,0,0,0-.2.37.66.66,0,0,0,.37.61.37.37,0,0,0,.4-.05c.06-.05.17-.16.14-.24s-.07-.17-.13-.15-.13.19-.22.18-.24-.07-.25-.19,0-.16,0-.16,0,.11.12.11.11,0,.14-.08a.18.18,0,0,0,0-.21,1.19,1.19,0,0,0-.21-.17.24.24,0,0,0-.14,0" transform="translate(-1.39 -1.77)"/><path class="cls-4" d="M158,8.7a.59.59,0,0,0-.23,0,.59.59,0,0,0,0-.23.62.62,0,1,0-1.14.34h-2.94V5.17a.61.61,0,0,0,.35.11.63.63,0,0,0,.63-.62A.62.62,0,0,0,154,4a.49.49,0,0,0-.24,0,.69.69,0,0,0,0-.24.63.63,0,0,0-1.25,0,.59.59,0,0,0,.05.23.64.64,0,0,0-.24,0,.62.62,0,0,0-.62.62.62.62,0,0,0,.62.62.61.61,0,0,0,.36-.11V8.85h-3a.55.55,0,0,0,.11-.34.62.62,0,0,0-.62-.62.62.62,0,0,0-.62.62.59.59,0,0,0,0,.23.59.59,0,0,0-.23,0,.62.62,0,0,0-.62.62.62.62,0,0,0,.62.62.69.69,0,0,0,.24,0,.53.53,0,0,0,0,.25.62.62,0,0,0,.62.62.62.62,0,0,0,.62-.62.61.61,0,0,0-.11-.36h3v5.76l.3-.09a.63.63,0,0,1,0,.57c-.17.28-.26.42-.17.61s.16.26.09.47a.89.89,0,0,1-.19.31v.25a.91.91,0,0,1,0,1.11v9.82a2.22,2.22,0,0,0,.48,1.16,2.37,2.37,0,0,0,.44-1.16V18.77a.92.92,0,0,1,0-1.11v-.25a1,1,0,0,1-.19-.31c-.07-.21,0-.29.09-.47s0-.33-.17-.61a.63.63,0,0,1,0-.57l.3.09V9.78h2.95a.61.61,0,0,0-.11.36.62.62,0,0,0,1.24,0,.7.7,0,0,0-.05-.25.6.6,0,0,0,.24,0,.62.62,0,0,0,.62-.62A.62.62,0,0,0,158,8.7" transform="translate(-1.39 -1.77)"/><path class="cls-3" d="M149.64,40.46V47l.11.09.29.23,0,0V40Z" transform="translate(-1.39 -1.77)"/><path class="cls-3" d="M150.48,39.67v8l.12.09.15.12.18.15V39.26Z" transform="translate(-1.39 -1.77)"/><path class="cls-3" d="M148.79,41.24v5l.28.23.13.11,0,0V40.82Z" transform="translate(-1.39 -1.77)"/><path class="cls-3" d="M151.33,38.89v9.43l.12.09.12.09.2.17V38.48Z" transform="translate(-1.39 -1.77)"/><path class="cls-3" d="M152.17,38.11V49l.05,0,.32.25.08.06V37.7Z" transform="translate(-1.39 -1.77)"/><path class="cls-3" d="M146.26,43.58v.51l0,0,.09.09.21.18.09.08h0V43.17Z" transform="translate(-1.39 -1.77)"/><path class="cls-3" d="M153.23,37.13l-.21.2V49.64l.21.16.23-.18V37.35Z" transform="translate(-1.39 -1.77)"/><path class="cls-3" d="M148.4,41.6,148,42v3.53l0,0,.14.12.17.13.11.1Z" transform="translate(-1.39 -1.77)"/><path class="cls-3" d="M147.1,42.8v2l.23.2,0,0,.19.16V42.39Z" transform="translate(-1.39 -1.77)"/><path class="cls-3" d="M158.09,41.62v4.29a3.47,3.47,0,0,1,.29-.25l.08-.07.07-.06V42Z" transform="translate(-1.39 -1.77)"/><path class="cls-3" d="M159.78,43.18v1.28h0l.05,0,.24-.22a.27.27,0,0,0,.08-.07l.06,0V43.6Z" transform="translate(-1.39 -1.77)"/><path class="cls-3" d="M158.93,42.4v2.79l.12-.1.1-.08.23-.2v-2Z" transform="translate(-1.39 -1.77)"/><path class="cls-3" d="M157.69,41.25l-.45-.41v5.77l0,0,.12-.11.24-.19.06,0Z" transform="translate(-1.39 -1.77)"/><path class="cls-3" d="M154.71,38.5V48.65l.19-.15.12-.1.13-.1V38.91Z" transform="translate(-1.39 -1.77)"/><path class="cls-3" d="M155.55,39.28V48l.16-.13.09-.07.2-.16V39.69Z" transform="translate(-1.39 -1.77)"/><path class="cls-3" d="M153.86,37.72V49.31l.18-.14.14-.11.13-.1V38.13Z" transform="translate(-1.39 -1.77)"/><path class="cls-3" d="M156.4,40.06V47.3l.09-.08.1-.07.25-.21V40.47Z" transform="translate(-1.39 -1.77)"/></g></svg>