<svg id="Layer_1" data-name="Layer 1" xmlns="http://www.w3.org/2000/svg" xmlns:xlink="http://www.w3.org/1999/xlink" viewBox="0 0 107.12 107.12"><defs><style>.cls-1{fill:none;}.cls-2{fill:#b0bc22;}.cls-3{clip-path:url(#clip-path);}.cls-4{fill:#fff;}</style><clipPath id="clip-path" transform="translate(0)"><rect class="cls-1" width="107.12" height="107.12"/></clipPath></defs><rect class="cls-2" width="107.12" height="107.12"/><g class="cls-3"><path class="cls-4" d="M46,45.25c-4.53-3,18.53-3.85,11.66-5.92A39.5,39.5,0,0,0,48.54,38s10.57-.18,14,1.43c5,2.33-11.8,3.69-9,5.25,3,1.66,10.48,2.48,13.11,2.73,4,.29,7.72.72,11.12,1.28L57.46,24.42l-1.35,1.43-2.06-2.29-4.54,5.31-1.64-1.64L31.55,48.75A142.27,142.27,0,0,1,52.27,47c-2.64-.35-5-.91-6.23-1.78" transform="translate(0)"/><polygon class="cls-4" points="17.33 62.4 11.14 62.4 11.14 59.23 28.04 59.23 28.04 62.4 21.86 62.4 21.86 75.89 17.33 75.89 17.33 62.4"/><polygon class="cls-4" points="46.39 59.23 53.04 59.23 53.04 75.89 48.65 75.89 48.65 62.54 48.6 62.54 43.33 75.89 39.55 75.89 34.27 62.54 34.23 62.54 34.23 75.89 29.84 75.89 29.84 59.23 36.49 59.23 41.44 71.23 46.39 59.23"/><path class="cls-4" d="M69.94,65.53c-.42-2.4-2.41-3.59-4.76-3.59-4.3,0-5.21,3.36-5.21,5.62s.91,5.63,5.21,5.63c2.19,0,4.31-1,4.76-3.69h4.92c-.56,4.85-4.55,6.86-9.85,6.86-6.07,0-9.85-2.61-9.85-8.8s3.78-8.8,9.85-8.8c4,0,9.13,1,9.81,6.77H69.94" transform="translate(0)"/><path class="cls-4" d="M91.34,65.53c-.42-2.4-2.4-3.59-4.76-3.59-4.3,0-5.21,3.36-5.21,5.62s.91,5.63,5.21,5.63c2.19,0,4.32-1,4.76-3.69h4.93c-.56,4.85-4.56,6.86-9.85,6.86-6.07,0-9.85-2.61-9.85-8.8s3.78-8.8,9.85-8.8c4,0,9.12,1,9.8,6.77H91.34" transform="translate(0)"/></g></svg>