<svg id="Layer_1" data-name="Layer 1" xmlns="http://www.w3.org/2000/svg" viewBox="0 0 208.01 104.86"><defs><style>.cls-1{fill:#aa182c;}.cls-2{fill:#231f20;}</style></defs><rect class="cls-1" y="92.36" width="208.01" height="1.09"/><path class="cls-1" d="M168.55,172.67l-.43-.46" transform="translate(-78.99 -131.84)"/><path class="cls-1" d="M173.76,163.77a9.64,9.64,0,0,0-7.69-7.75l-6.69-.59a33.53,33.53,0,0,0,8.74,16.78C170.07,171.24,174.09,168.63,173.76,163.77Z" transform="translate(-78.99 -131.84)"/><path class="cls-1" d="M173.18,149.21c-2.72-2.47-2.63-6.63-2.63-6.63,0-6.12,5.36-9,5.36-9h7.86c-6.81,3.4-6.64,8-6.64,8,0,3,.94,4.26.94,4.26a9.05,9.05,0,0,0,8.09,4.54c-1.86-.35-4-2.45-4-2.45a8.67,8.67,0,0,1-2.27-5.68c.25-6.17,6.46-8.59,6.46-8.59h7.87c-5.31,2.22-7.14,5.91-7.14,5.91a7.14,7.14,0,0,0,.51,6.25,11.86,11.86,0,0,0,8.34,4.85l11.77.53a156.07,156.07,0,0,0,.77-19.3h-50.6c0,8.39.05,15.33,1.06,21.42l29.75,1.15A25.49,25.49,0,0,1,192,155c3.12.91,8.46,3.92,8,10.18,0,0,0,4.37-4.67,7.54h-7.92s6.45-1.77,6.45-8.6c0,0-.15-7.45-9-7.68,0,0,5.65,2.19,5.81,7.76a8.84,8.84,0,0,1-5.36,8.52h-7.84s7.13-2.41,6.29-8.67c0,0-.93-7.9-9.39-7.83,0,0,6.16,2.24,6.13,8.06,0,0,.54,4.6-5.2,8.44h-6.76a69,69,0,0,0,14.64,11c16.52-9.74,22.26-18.41,24.25-30.45l-26.52-.91A13.06,13.06,0,0,1,173.18,149.21Z" transform="translate(-78.99 -131.84)"/><path class="cls-2" d="M79,219.1l3.19-.15c.07-2,.11-2.23.07-6.14V200.87c0-4.22,0-4.57-.07-6.64l-3-.08v-1c1.46,0,3.5,0,4.6,0,4.46-.27,5-.27,6.07-.27,4.18,0,7.6,1.57,7.6,6.26a6.79,6.79,0,0,1-4.15,6.29c3,.77,5.91,2.76,5.91,7S96.37,220.1,90,220.1c-1,0-5.52-.08-6.44-.08H79Zm6.64-13.43h2.11c3.38,0,6.64-1.73,6.68-5.84s-3-6.06-7.14-6.06c-1.23,0-1.61,0-1.61,1.92Zm0,10.86c0,2.42.65,2.72,3.11,2.72,4,0,7.21-1.84,7.21-6.17,0-6.6-7.29-6.53-10.32-6.56Z" transform="translate(-78.99 -131.84)"/><path class="cls-2" d="M108.48,219.1l0,.92H99.33v-.92l2.83-.15c.08-2.08,0-2.53,0-7.52,0-13.21,0-14.66,0-17.2l-2.83-.15v-1c1.3,0,2.6.08,3.91.08,1.15,0,2.26-.08,3.41-.16s2.31-.15,3.42-.15c4.26,0,7.71,2.11,7.71,6.76,0,3.79-3,5.75-4.53,6.52-.19.12-.23.15-.23.23s3.8,6.1,5.46,8.48c2.45,3.53,3.1,4.07,4.14,4.49V220a26.55,26.55,0,0,1-2.69.08c-2.19,0-2.68-.73-6.71-7.22-.62-1-3.46-5.52-3.76-5.79s-.5-.23-1.42-.23a18.25,18.25,0,0,0-2.46,0c0,8.79,0,9.75.11,12.13Zm-.61-13.2c1.12,0,3.26,0,3.95-.46a6.91,6.91,0,0,0,2.73-5.79c0-4.19-3-5.88-6.79-5.88a5.09,5.09,0,0,0-2,.42c-.15.5-.15,10.29-.15,11.79Z" transform="translate(-78.99 -131.84)"/><path class="cls-2" d="M132.93,192.47c8.79,0,13.43,6.21,13.43,13.66s-5,14.58-13.7,14.58c-8.9,0-13.58-7-13.58-13.81C119.08,199.45,123.84,192.47,132.93,192.47Zm.08,27.4c6.14,0,9.82-6.49,9.82-13.59,0-8.44-5-13-9.86-13-3.88,0-10.36,3-10.36,13.51C122.61,214.76,127.56,219.87,133,219.87Z" transform="translate(-78.99 -131.84)"/><path class="cls-2" d="M161.31,192.47c8.79,0,13.43,6.21,13.43,13.66s-5,14.58-13.7,14.58c-8.9,0-13.58-7-13.58-13.81C147.46,199.45,152.22,192.47,161.31,192.47Zm.08,27.4c6.14,0,9.82-6.49,9.82-13.59,0-8.44-5-13-9.86-13-3.88,0-10.36,3-10.36,13.51C151,214.76,155.94,219.87,161.39,219.87Z" transform="translate(-78.99 -131.84)"/><path class="cls-2" d="M209.37,192.85c-2.19,0-10.82.31-12.78.31h0c-1.86.05-2.41,0-7.74,0v1c3,0,3.38.2,3.38.51s-5.26,5.25-6,5.91l-6.37,5.86c0-2.91,0-9.82.08-12.2l3-.15v-1c-1.3,0-2.45.08-4.6.08s-3.34,0-4.57-.08v1l2.69.15c.08,2.54.08,4,.08,17.2,0,5,0,5.44-.08,7.52l-2.69.15V220h9.56v-.92L180,219c-.08-2.38-.08-8.64-.08-11.44l.81-.73c4.06,4.49,7.83,8.79,11.67,13.24h4.24c1.42,0,10.09.08,11.17.08,8.75,0,15.73-4.15,15.73-13.7C223.49,197.61,217.35,192.85,209.37,192.85ZM199.43,219l-2.11.11a4.72,4.72,0,0,1-2.59-1.69c-.89-.92-5.11-5.52-6.07-6.56l-5.45-6.29,6.45-5.61c3.22-2.83,5.09-4.43,7.35-4.74h0l2.42.06c.11,2.54.11,4,.11,17.2C199.54,215.57,199.51,216.87,199.43,219Zm9.25.3c-2.23,0-5.3-.22-5.53-.69a54.09,54.09,0,0,1-.23-6.18c0-4.56,0-16.15,0-17.38,0-.69.08-.85.27-1a9.38,9.38,0,0,1,2.46-.27c8,0,14.27,4.11,14.27,13C220,213.57,216,219.25,208.68,219.25Z" transform="translate(-78.99 -131.84)"/><path class="cls-2" d="M264.14,212.65,262,219c-1,.05-2.08.12-3.72.12-.47,0-5.46-.07-6.53-.23-.88-.08-1.07-.61-1.19-1.34s-.08-2.15-.08-15.77c0-5,0-5.46.12-7.53l3.11-.15v-1c-.89,0-2.38.08-4.76.08s-3.88-.08-4.84-.08v1l3,.15c.07,2.54,0,4,0,17.2,0,5,0,7.64,0,7.64s-4.07.17-4.38-.66c-.54-1-1.46-3.38-4.22-10.48l-5.83-15.46h-.58L225.56,210c-2.22,6-2.65,6.76-3,7.57-.46,1.07-.61,1.18-2.61,1.34V220h6.26l0-.92-1.89-.12c-.53,0-.72-.11-.72-.34a8.93,8.93,0,0,1,.38-1.34l2.61-7.48c.19-.54.42-.74.85-.74h6.9c.81,0,.92.08,1.19.77l2.8,7.64a4.42,4.42,0,0,1,.31,1c0,.3-.15.38-1.19.46l-1.84.15V220h28.91l.75-7.36Zm-29.71-4.49h-6.37c-.5,0-.69-.07-.69-.19a4.91,4.91,0,0,1,.23-.8l3.19-8.41c.15-.42.22-.61.38-.61s.19.23.3.53l3.19,8.64a2.79,2.79,0,0,1,.19.61C234.85,208.05,234.74,208.16,234.43,208.16Z" transform="translate(-78.99 -131.84)"/><path class="cls-2" d="M286.55,220h-21v-.92l2.69-.15c0-1,0-1.92,0-3V201.56c0-4.76,0-5.26-.08-7.33l-2.92-.15v-1c1.23,0,2.77.08,6.11.08,4.68,0,9.4,0,14.12-.08V199h-1.3c-.12-4.76-.74-5.06-4.88-5.06H271.7v11.58c1.19,0,5.68,0,6.48-.57s.84-3.84.88-4.37h1.27c-.08,1.15-.23,2.83-.23,6.13,0,2.11,0,3.34.11,4.53H279c-.31-4.37-.35-4.6-.77-4.68a60.67,60.67,0,0,0-6.48-.19c0,4.07,0,10.25.11,11.21.16,1.3.69,1.61,2.11,1.61H284l1.85-6.14H287Z" transform="translate(-78.99 -131.84)"/><path class="cls-2" d="M108.31,236.37a4.23,4.23,0,0,1-1.8.33,3.19,3.19,0,0,1-3.37-3.45,3.4,3.4,0,0,1,3.56-3.58,3.69,3.69,0,0,1,1.62.3l-.21.72a3.27,3.27,0,0,0-1.38-.28,2.53,2.53,0,0,0-2.66,2.81,2.48,2.48,0,0,0,2.62,2.74,3.58,3.58,0,0,0,1.44-.28Z" transform="translate(-78.99 -131.84)"/><path class="cls-2" d="M119.07,233.12c0,2.34-1.43,3.59-3.17,3.59s-3.06-1.4-3.06-3.46,1.34-3.58,3.17-3.58S119.07,231.09,119.07,233.12Zm-5.29.11c0,1.45.79,2.76,2.17,2.76s2.19-1.29,2.19-2.83c0-1.36-.71-2.77-2.18-2.77S113.78,231.73,113.78,233.23Z" transform="translate(-78.99 -131.84)"/><path class="cls-2" d="M130,233.6c-.05-.95-.11-2.09-.1-2.94h0c-.23.8-.51,1.65-.86,2.59l-1.2,3.31h-.67l-1.1-3.25c-.33-1-.6-1.84-.79-2.65h0c0,.85-.07,2-.13,3l-.18,2.93h-.84l.47-6.82h1.12l1.17,3.3c.28.84.51,1.58.69,2.29h0c.17-.69.41-1.43.71-2.29l1.22-3.3h1.12l.42,6.82h-.86Z" transform="translate(-78.99 -131.84)"/><path class="cls-2" d="M142.18,233.6c-.05-.95-.11-2.09-.1-2.94h0c-.23.8-.52,1.65-.86,2.59l-1.2,3.31h-.67l-1.1-3.25c-.33-1-.6-1.84-.79-2.65h0c0,.85-.07,2-.14,3l-.18,2.93h-.84l.48-6.82h1.12l1.16,3.3c.29.84.52,1.58.69,2.29h0c.17-.69.42-1.43.72-2.29l1.21-3.3h1.13l.42,6.82h-.86Z" transform="translate(-78.99 -131.84)"/><path class="cls-2" d="M149.49,229.78v4c0,1.53.68,2.18,1.59,2.18s1.66-.67,1.66-2.18v-4h.89v4c0,2.1-1.1,3-2.58,3s-2.45-.8-2.45-2.92v-4Z" transform="translate(-78.99 -131.84)"/><path class="cls-2" d="M159.2,236.6v-6.82h1l2.19,3.45a20.3,20.3,0,0,1,1.22,2.21h0c-.08-.91-.1-1.74-.1-2.8v-2.85h.83v6.82h-.89l-2.16-3.46a20.3,20.3,0,0,1-1.28-2.28h0c0,.86.07,1.68.07,2.81v2.92Z" transform="translate(-78.99 -131.84)"/><path class="cls-2" d="M170.78,229.78v6.82h-.88v-6.82Z" transform="translate(-78.99 -131.84)"/><path class="cls-2" d="M177.66,230.53h-2.07v-.75h5v.75h-2.08v6.07h-.89Z" transform="translate(-78.99 -131.84)"/><path class="cls-2" d="M187.24,236.6v-2.9l-2.16-3.92h1l1,1.88c.26.52.46.93.67,1.41h0c.2-.45.43-.89.69-1.41l1-1.88h1l-2.28,3.91v2.91Z" transform="translate(-78.99 -131.84)"/><path class="cls-2" d="M206.19,236.37a4.2,4.2,0,0,1-1.8.33,3.19,3.19,0,0,1-3.37-3.45,3.4,3.4,0,0,1,3.56-3.58,3.69,3.69,0,0,1,1.62.3l-.21.72a3.23,3.23,0,0,0-1.38-.28,2.54,2.54,0,0,0-2.66,2.81,2.48,2.48,0,0,0,2.62,2.74,3.55,3.55,0,0,0,1.44-.28Z" transform="translate(-78.99 -131.84)"/><path class="cls-2" d="M217,233.12c0,2.34-1.42,3.59-3.16,3.59s-3.07-1.4-3.07-3.46,1.35-3.58,3.17-3.58S217,231.09,217,233.12Zm-5.29.11c0,1.45.79,2.76,2.18,2.76s2.18-1.29,2.18-2.83c0-1.36-.71-2.77-2.17-2.77S211.66,231.73,211.66,233.23Z" transform="translate(-78.99 -131.84)"/><path class="cls-2" d="M222.14,229.78H223v6.08h2.91v.74h-3.79Z" transform="translate(-78.99 -131.84)"/><path class="cls-2" d="M231,229.78h.88v6.08h2.91v.74H231Z" transform="translate(-78.99 -131.84)"/><path class="cls-2" d="M243.31,233.4h-2.65v2.46h3v.74h-3.83v-6.82h3.68v.74h-2.8v2.15h2.65Z" transform="translate(-78.99 -131.84)"/><path class="cls-2" d="M254,236.29a6.37,6.37,0,0,1-2.09.38,3.2,3.2,0,0,1-3.5-3.44,3.42,3.42,0,0,1,3.69-3.52,4.28,4.28,0,0,1,1.7.31l-.22.72a3.51,3.51,0,0,0-1.5-.29,2.55,2.55,0,0,0-2.74,2.74,2.5,2.5,0,0,0,2.63,2.75,2.9,2.9,0,0,0,1.17-.18v-2h-1.39V233H254Z" transform="translate(-78.99 -131.84)"/><path class="cls-2" d="M262.91,233.4h-2.65v2.46h2.95v.74h-3.83v-6.82h3.68v.74h-2.8v2.15h2.65Z" transform="translate(-78.99 -131.84)"/></svg>