<svg xmlns="http://www.w3.org/2000/svg" viewBox="0 0 253.3 96.34"><defs><style>.cls-1{fill:#bcbec0;}.cls-2{fill:#98002e;}</style></defs><g id="Layer_1" data-name="Layer 1"><path class="cls-1" d="M50.43,14.91l.86-.07.75,0s-.13,0,.36.23a2.46,2.46,0,0,0,1,.45,5.11,5.11,0,0,0,1-.06,11.55,11.55,0,0,0,1.25-.39l.79-.5.57-.67s1.56-.38,1.84-.43l.28,0,1.29-.12,1,0-.15.57.35.39.74.46.19.62-.25.69-.45-.1-.41.33-.17,1.09,1.12,1.16.64.2,2.23.25,2-.36,1.42-1.16.46-.14,1.15-.86,1.35.24.69.31.43.43-.19,1.65.83.76.63.91.56,1,.63.93-1.06.43-.7.59-.89.89.58.91.82.68.93.39.91-.08,1.41-1,1.19-.91a1.32,1.32,0,0,1,.57-.3,3.1,3.1,0,0,1,.73-.1h.69l.58-.22.72-.58.6-.63.46-.33a6.32,6.32,0,0,1,1,.78c.21.26.59.76.59.76l.44.85,1.44.55.53.29.54.41.68,1.09v.5l-2.12-.23-.73,0-.4,0-1,.25v1.07l.87.16,2.16-.4.59.71.92-.23.67,0,.87.35,0,.56-.19.56-.25.62,0,.5-.19.8-1.23,1,.36.31.56.2.53.41.41.54-.16,1.24-.81.42-1-.25-.69-.84-.5,0-1,.89-.87.72-1.32.71-.11.92,1.08.47,3-.12.81.52.58,1.25.91,1,1.08.74,1.17.21a1.31,1.31,0,0,1,.14.74A8.54,8.54,0,0,1,92,44.8c0,.32-.24,1.15-.24,1.15l.83.11.64.2.59.54.72.83,1.29-.34,2.46,1.81h.8l1-.55,1.08,0,.66.44L102,50l-.14,1.5h.33l-.71,1.83-.19.4-.32.59-.35,1.36.49.61.43.74.18.87-.29.82-.81.34-.61-.07-.93-.51-.51.89,1.57,1.56,1.21-.27.8-.8.55-.21.1.83-.16,1.31,0,1.33,1-.24.6.24.45.45,1.64.56.21.62v1.59l1.18,1,.49.65.25.67-.17.6-3.18-1.52-1.78-.45-.65,1.45-.71,1-.71.54-1,.25-1.26,0-.71-.11-.46-.31-.36-1.27-.09-1.18-.43-1.23-.83-.25,0,1.09-.38.7.09.53-.14,1.27.24,1.92-.44.92-1,.29L93,72.61l.14-1L92.75,71l-.89-.29.06,1.17-.06.56-.61.57-2.72-.09-4.62-.47a2.57,2.57,0,0,0-.57.52l-.77,1.16-1-.11s-.4-1.35-.2-1.55-1.3,0-1.3,0l-1.66-.2v1.3l.35,1.25L77,75.53l-1.09.28-2.3.27-2.78-.15-.71-.75L69.87,74s-.14-1,.15-1.28a1.41,1.41,0,0,0,.35-.61,14,14,0,0,0,2.63.22c.22,0,.88-.59.89-.49a5.33,5.33,0,0,1-.25-.77l-1.26-1-.72-1.67-.45-.63-.66-.5L70,67.1l-.77.29-.65,0-.22-.73-.51.44-2.69,1.12-.63,1.28-.87,1.31-1.16,1.58-1.33.79V79l.31.88,1.27,1.36.58,1,1.26.88,1.94.66.83.59H261.85v3H42.8V85.07l.29-.89,1.19-.63,1-.39,1-1,1.39-1.22.75-5-.14-6L48,69.41s-1.13-.92-1.33-1.12a7.94,7.94,0,0,0-2.41-1,8.81,8.81,0,0,0-1.8,0l-1.66.56s-1.35.67-1.56.84l-2.66,2.19L33,73.2s-1.53.33-1.77.33H29.47l-1.36-.13-.36.76,0,.69a2.3,2.3,0,0,1-.91.4c-.35,0-.76.56-.76.56l-.76,1.08-1.05-.25-.52-.18-.33.11h-.31l-.7-.69-.58-.22-.35.28c-.17.14-.83.76-.83.76l-.14-.39-.33,0-.51.31-.56.32-.41.42-.25.44-.92-.19a3.22,3.22,0,0,0-.8-.67c-.43-.22-2-.88-2-.88l-1.26-.24s-1.13.61-1.49.77a8.94,8.94,0,0,1-1.74.82c-.43,0-.45.38-.84.09a1.36,1.36,0,0,1-.63-.88c0-.27,0-.49,0-.73s.42-.59.42-.59a1.81,1.81,0,0,0,.74-.2l1.54-1.22,1.52-2a7.42,7.42,0,0,1,1-.51l.79-.23.22-.44-.91-1.68a5.32,5.32,0,0,1,.56-1.13c.24-.29.85-1,1.33-1.51s1-1,1.36-1.36a3.75,3.75,0,0,0,.52-1.24l-.35-1.18-1.18-.14a6.08,6.08,0,0,1,.54-.74,3.83,3.83,0,0,1,.9-.74l1-.49,1,.18.12.92h.61l.36-.39v-.6l.58-.62,1.27-.67.25-.63-.3-.24-.74.17-.73.1-.33-.72v-.47l-.36-.74-.52.25-.46.49-.43.63-.44.49-.58-.09-.35-1.09a3,3,0,0,1,.49-1c.26-.27.31-.12.5-.51a3,3,0,0,0,.22-1l0-.52-.21-.51-.46-.09,0-.44-.34-.52h-.31L16.36,54l-.3.79-.52-.41-.31-1.29a8.73,8.73,0,0,1-.69-1.34,2.24,2.24,0,0,1-.2-.83,3.13,3.13,0,0,1,.26-1c.11-.28.6-.74.7-1.31s.24-1.32.1-1.49a3.54,3.54,0,0,1-.29-.77v-.47l1.4.23.76.49a8.84,8.84,0,0,0,1,.44l.36-.78L19,45.19l.89-.91,1.1-1,.53-.94.38-.67.07-.62a1.88,1.88,0,0,1-.93-.71,5.05,5.05,0,0,1-.56-1.06L20.2,38l.32-1.24L21,36a2.87,2.87,0,0,0,.68-1,2.09,2.09,0,0,0,.13-1c-.08-.07-.62-2.07-.62-2.07l-1.12.63-.52-.89-.31-.52,1.11-1.43.91-.4,1.14.2a1.58,1.58,0,0,0,.54-.92,9.38,9.38,0,0,0,0-1.2,12.77,12.77,0,0,0-.83-1,4.63,4.63,0,0,1-.79-1.05,1,1,0,0,1-.16-.6,8.44,8.44,0,0,1,.25-1.5l-.16-.63a8.5,8.5,0,0,1,.86-1.41,15.58,15.58,0,0,1,1.29-1.45,7.25,7.25,0,0,1,.85-.64l.66-.25s.37.26.39.49.09,1.94.09,1.94l.38.27s.36-.07.42-.23l.34-.84-.15-1.57.74-.33L29,15.89l1.47-.67,2.12.48.5-.31,1.22.56,2,.22,1.14.65,1.41-.62L39,15l.76.24,1-1.58,1.14-1.16.71.13.63.78-.17.51,1,.86.59-.14.72-1,1.16.89.65-.29.38-.63.3-.31.44.18.29.42.15.58.06.59M34.19,35.72l0-.65-.45-.4-.44.36-.48-.36L32.69,34l-.1-.6-.51-.16H31.6l-.47.05-.45,0-.51.07-.44.07-.49-.11-.5-.1-.35.07-.47.31,0,.65.45.68.44.48.31.32.14.65,0,.71-.06.71.59.39,1-.47.35-.56.54-.14.45,0,.47,0h.56l.29-.06.49-.54.25-.58Zm-4.4,8.8.48.16.49.16.51.09.53.11.49.1.53,0,.5,0h.52l.45,0,.44-.07.45-.09.81-.37.67-.56L36.3,44l-.47-.25-.3,0-.43.09-.47.08-.44.12L33.8,44l-.44,0-.45-.11-.62-.19-.46-.14-.54-.11H30.24l-.47.11-.53.36.08.45Zm6.12,4.89.26.76.59.61.47.31.54.07h.49l.65-.66-.23-.65-.31-.56-.53-.62-.46-.3-.43.18-.53.32-.51.26Zm-2.36,7.11L33,56.9l-.45.6-.12.67.46-.44.37-.58ZM46.75,27.8l-.47.24-.07.56.13.42.48-.42,0-.53ZM30.29,63.42l.19-.63-.46-.1-.48.62-.36.58-.3.4-.48.15-.5-.22-.37-.08-.51.93.44.52.34.17.28.54.54.24.56-.09.52-.38.54-.57L30.4,65,30,64.52l.05-.59Zm-.12,6.65.45.1h.46l.43-.58L31,69.34l-.47-.2L30,69.07l-.49.16-.34.27-.41.57-.19.78.09.39.44.11.48-.23.22-.64-.14-.59Zm3.34.12.16-.54.43-.58.48-.42.5-.34.49-.27.55-.27.57-.24.52-.16.44-.09.37-.13-.5.42L37,68l-.46.38-.45.25-.48.32-.47.43-.53.34-.52.31-.51.16Zm7.31-5.92.53,0,.51-.1.48-.12.49-.2.51-.51.47-.69.46-.7.2-.4-.51,0-.52.06-.56.11h-.33l-.09.7-.32.67-.49.44-.53.32Zm3.79.65h.48l.51,0,.54-.07h.47l.46.1.48.09L48,65l.44-.18-.13-.61L48,63.62,47.62,63l-.31,0-.46.06-.48.09-.43.18-.45.32L45,64l-.46.37-.1.57Zm.82-6L45,59.2l-.49.27-.51.25-.52.08.1-.56.3-.51.43-.56.2-.4.47-.45.4.27.12.6.17.41Zm9.92,2.23-.37.11-.44-.45-.42-.18-.47.3-.31-.54-.06-.67L53.19,59l-.11-.7-.16-.71L52.78,57l-.12-.55-.45-.56-.39.71,0,.69.17.56.36-.25.18.63.1.63.09.69.06.69.08.7.09.71.12.62.21.61.3.62L54,64l.53,0,.45-.45.22-.66.16-.66,0-.67ZM45.54,50.29l-.45-.43-.49-.16-.52-.06-.41.06-.16.54.51.67.49.43.52.26.31,0,.25-.6-.05-.58Zm-2.2-19.1.47-.23.4-.66.22-.58.14-.57.08-.6V27.8l-.52-.39-.46.27-.33.31-.44-.08-.44.56-.12.57,0,.61.07.37.27.63.47.5Zm.72,1,.07.64.14.58.2.65.24.6.29.56.3.54.51.72.37.6.43.67.42.69.52.36-.2-.41-.41-.56-.32-.64-.14-.41-.11-.64-.1-.58-.17-.63-.47-.42-.55-.38-.43-.61-.22-.64-.16-1ZM58.54,19.8l.27.58.47.05.48,0,.59-.16.46-.31.24-.49L60.54,19l-.61-.27-.61-.06-.51.31-.27.6ZM56.83,44.93l.24-.63L57,43.72l-.17-.67-.17-.6-.09-.39-.31-.66-.33-.62-.33-.47-.84-.79L54.52,39l-.15-.8,0-.56-.16-.69-.45-.32-.43.65,0,.74v.56l-.06.75-.19.48v.62l.25.55.15.61.15.51.32.63.48.52.48.58.47.4.37-.11.37.56.48.31Zm1.27-8.38-.47.07-.56.24-.55.31-.53.25-.45.31-.35.54.29.56.55.4.46.13.56,0,.14-.63.38-.75.28-.59.22-.69ZM61.68,34h-.54l-.44.18-.32.69,0,.4.48-.4.45-.4Zm-1.79,2.77-.43.47-.42.64-.12.53.47,0,.54-.54.36-.56Zm19-3.67-.47-.26-.48.31-.45.15-.56.05h-.51l-.33-.05-.46.52-.51.45-.39.46.48.14.57.07.6.07h.51l.46-.07.51-.27.48-.49.21-.56Zm-7.5,2.82-.51.56-.55.42-.45.14-.44-.14.22-.49.49-.27.54-.18.33-.2.44-.49.18.4Zm1.12-1.19-.46.25-.15.38.42-.18ZM74.2,36l-.48.22-.36.64-.24.52-.3.34-.51.47-.41.71-.41.63-.56.47-.44.2-.46.33-.39.49-.1.58.19.7.59.31.44.08.46,0,.49-.06h.46l.45,0,.47.24.45.32.33-.2,0-.63.21-.53L74,41.18l-.33-.61-.5-.47-.48-.45.18-.64.4-.56.56-.22.57,0h.49l.45-.26.09-.66-.27-.62-.47-.42ZM61.77,49l-.48-.2-.45.45-.48.56h-.47l-.5-.16-.47-.07-.4.54,0,.74,0,.49,0,.6.11.64.1.54.08.4,0,.56v.72l.28.63.44.1.65-.84.65-.89.66-1,.28-.56.28-.56.27-1-.06-.9Zm1.85,7.61-.1-.62-.45-.31-.49.46-.43.43-.55.25-.42.58-.06.42.45.43.52.26.44.27L63,58.7l.36-.65.19-.7.09-.57ZM66,55.94l-.44.19-.35.34.45.21.43-.3Zm2.54-.27.46-.52.37-.26.55-.49.53-.34.47-.16.61-.1.34-.08.44-.29.48-.35.48-.38.56-.34.35-.6L74,51.2l-.47,0-1.69,1-.43.21-.48-.09-.47.19-.61.48-.51.69-.42.76-.25.58-.34.76ZM77,51.56l.09-.69L77,50.22l-.46-.52h-.33l-.45.36.18.62.55.61.46.31Zm11.57.2.14-.6,0-.56L88.34,50l-.55-.17-.33.11-.5-.07-.62.13-.61.27-.53.47-.43.63-.15.6-.1.45.45.09.59-.12.45-.15.52-.27.46.11.48.05.54-.05.47-.17Zm2.75,6.14.08-.58-.13-.62-.53-.57-.46.14-.43.54-.19.58-.25.81-.19.66-.08.65,0,.6.28.67.42.2.45-.2.32-.67.06-.67.14-.58.19-.62ZM83.1,65.27,82.8,65l.24-.52.44-.06.56-.06.59.06.62.06.5.08.48.24.45.4.44.11h.45l.46.23.48-.07.52-.06.53.22.12.6-.46.49-.49.09H88.2l-.48-.06-.42-.26-.49-.53-.31-.2L86,65.54l-.45-.09-.45-.08-.48,0-.42,0h-.49ZM67.92,64.11l.24-.55.09-.59-.09-.45H67.7l-.54.09-.55.09-.53.15-.49.11-.43.34-.36.62-.18.7-.14.64.12.39.61-.12.62-.22.63-.4.6-.37.64-.31Zm-5.2,1,.17-.53V64l-.53-.18-.47-.11-.45-.06L61,63.56l-.47,0h-.6l-.5.2-.07.38.44.33.49.34.45.38.44.65-.48.24-.3-.17-.47.13-.47.53-.33.61L59,68v.65l0,.69.09.62.15.56.61-.2.46-.51.42-.58.44-.67.36-.72.32-.69.28-.65.24-.62.24-.56Z" transform="translate(-8.73 -12.52)"/><path class="cls-2" d="M25.92,103.5a14.45,14.45,0,0,1-1.06,4.39,14.32,14.32,0,0,1-5.31,1c-4.93,0-9.58-2.3-9.58-8.86,0-6.89,5.55-9,9.63-9a11.39,11.39,0,0,1,5.26,1.06,18.37,18.37,0,0,1,.42,3.82l-.7.15c-.26-1-.59-4.18-5-4.18-4.23,0-6.89,2.79-6.89,7.61,0,4.42,2.12,8.5,6.82,8.5,4.28,0,4.93-2.61,5.73-4.68Z" transform="translate(-8.73 -12.52)"/><path class="cls-2" d="M28.5,102.56c0-3,1.51-5.13,4.09-5.13s4.32,2.46,4.32,5.72c0,2.51-1.1,5-4,5C30.29,108.17,28.5,106.07,28.5,102.56Zm4.06,6.18a5.84,5.84,0,0,0,6.16-6,5.52,5.52,0,0,0-5.84-5.84,5.93,5.93,0,0,0-6.19,6A5.49,5.49,0,0,0,32.56,108.74Z" transform="translate(-8.73 -12.52)"/><path class="cls-2" d="M49.54,108.14c-.24-.24-.38-.49-.64-.49a9.12,9.12,0,0,1-4,1.09c-3.56,0-3.85-2-3.85-4.39V99.81c0-2.1,0-2.19-.67-2.26l-.62,0v-.38H44v.38l-.62,0c-.67.07-.67.16-.67,2.26v4.27c0,2.45.41,4.09,3.08,4.09a4.16,4.16,0,0,0,3.12-1.38v-7c0-2.1,0-2.19-.68-2.26l-.61,0v-.38h4.18v.38l-.62,0c-.67.07-.67.16-.67,2.26v8.67l-.52.16Z" transform="translate(-8.73 -12.52)"/><path class="cls-2" d="M52.43,108.1l.62,0c.67,0,.79-.58.79-2.44V97.12l.4-.15c1.42,1.82,6.5,7.09,8.38,8.93V100c0-1.9,0-2.36-.95-2.45l-.62,0v-.38h3.72v.38l-.62,0c-.62.06-.74.59-.74,2.45v8.48l-.38.16c-.38-.4-1.45-1.54-3.23-3.38l-5.17-5.45v5.8c0,1.89,0,2.35.9,2.44l.62,0v.38H52.43Z" transform="translate(-8.73 -12.52)"/><path class="cls-2" d="M67.11,108.1l.63,0c1-.07,1-.15,1-2.25V97.61H67.8c-2.43,0-2.47.25-2.84,2.25h-.41c0-.07,0-.53,0-.76a11.86,11.86,0,0,1,.19-2h9.58a11.86,11.86,0,0,1,.19,2c0,.23,0,.69,0,.76H74c-.38-2-.42-2.25-2.84-2.25h-.9v8.19c0,2.1,0,2.18,1,2.25l.62,0v.38H67.11Z" transform="translate(-8.73 -12.52)"/><path class="cls-2" d="M76.3,108.1l.74,0c.84,0,.84-.52.84-1v-2.2a5.34,5.34,0,0,0-.79-2.12L74.8,98.4c-.24-.45-.45-.79-.91-.85l-.5,0v-.38h4.37v.38l-.64,0c-.27,0-.77.09-.77.43a50,50,0,0,0,2.73,5.27c.43-.69,2.6-4.9,2.6-5.16s-.34-.43-.67-.48l-.77-.11v-.38H84v.38l-.44.11a1,1,0,0,0-.52.27,13,13,0,0,0-2.12,3.34l-.77,1.46a4.48,4.48,0,0,0-.62,2.12V107c0,.53,0,1,.84,1l.74,0v.38H76.3Z" transform="translate(-8.73 -12.52)"/><path class="cls-2" d="M104.42,103.5a14.45,14.45,0,0,1-1.06,4.39,14.32,14.32,0,0,1-5.31,1c-4.93,0-9.58-2.3-9.58-8.86,0-6.89,5.55-9,9.63-9a11.39,11.39,0,0,1,5.26,1.06,18.37,18.37,0,0,1,.42,3.82l-.7.15c-.26-1-.59-4.18-5-4.18-4.23,0-6.89,2.79-6.89,7.61,0,4.42,2.12,8.5,6.81,8.5,4.29,0,4.93-2.61,5.73-4.68Z" transform="translate(-8.73 -12.52)"/><path class="cls-2" d="M107,102.56c0-3,1.51-5.13,4.09-5.13s4.32,2.46,4.32,5.72c0,2.51-1.1,5-4,5C108.78,108.17,107,106.07,107,102.56Zm4,6.18a5.84,5.84,0,0,0,6.17-6,5.52,5.52,0,0,0-5.84-5.84,5.93,5.93,0,0,0-6.19,6A5.49,5.49,0,0,0,111.05,108.74Z" transform="translate(-8.73 -12.52)"/><path class="cls-2" d="M118.59,108.1l.62,0c.67-.07.67-.15.67-2.25v-6c0-2.1,0-2.19-.67-2.26l-.62,0v-.38h4.18v.38l-.62,0c-.67.07-.67.16-.67,2.26v8a10.93,10.93,0,0,0,1.88.21c2.55,0,2.72-1,3.06-2.45l.43.07a10.37,10.37,0,0,1-.57,2.86h-7.69Z" transform="translate(-8.73 -12.52)"/><path class="cls-2" d="M127.09,108.1l.62,0c.67-.07.67-.15.67-2.25v-6c0-2.1,0-2.19-.67-2.26l-.62,0v-.38h4.18v.38l-.62,0c-.67.07-.67.16-.67,2.26v8a10.93,10.93,0,0,0,1.88.21c2.55,0,2.72-1,3.06-2.45l.43.07a10.37,10.37,0,0,1-.57,2.86h-7.69Z" transform="translate(-8.73 -12.52)"/><path class="cls-2" d="M135.59,108.1l.62,0c.67-.07.67-.15.67-2.25v-6c0-2.1,0-2.19-.67-2.26l-.62,0v-.38H143A9.83,9.83,0,0,1,143.2,99c0,.39,0,.53,0,.69l-.41.06c-.38-1.84-.41-2.09-2.84-2.09h-1.43v4.73H140c1.35,0,1.66,0,1.76-.73l.09-.58h.44v3.1h-.44l-.09-.59c-.1-.7-.41-.72-1.76-.72h-1.53v5a9.29,9.29,0,0,0,1.88.23c2.74,0,2.91-1,3.25-2.45l.43.07a10.37,10.37,0,0,1-.57,2.86h-7.88Z" transform="translate(-8.73 -12.52)"/><path class="cls-2" d="M155.83,107.88a13.43,13.43,0,0,1-4.3.86c-3.46,0-6.56-1.52-6.56-5.9,0-4.6,3.7-6,6.42-6a7.62,7.62,0,0,1,3.51.71,13.12,13.12,0,0,1,.27,2.55l-.46.1a3,3,0,0,0-3.34-2.79c-2.82,0-4.59,1.86-4.59,5.08,0,2.94,1.5,5.66,4.87,5.66a9,9,0,0,0,2-.22v-.64c0-2.1,0-2.19-1.2-2.25l-.62-.06v-.37h4.37V105l-.62.06c-.33.06-.33.15-.33,1.82,0,.52,0,.62.28.62h.17Z" transform="translate(-8.73 -12.52)"/><path class="cls-2" d="M157.05,108.1l.62,0c.67-.07.67-.15.67-2.25v-6c0-2.1,0-2.19-.67-2.26l-.62,0v-.38h7.41a8.89,8.89,0,0,1,.2,1.83c0,.39,0,.53,0,.69l-.41.06c-.38-1.84-.41-2.09-2.84-2.09h-1.43v4.73h1.53c1.34,0,1.65,0,1.76-.73l.08-.58h.45v3.1h-.45l-.08-.59c-.11-.7-.42-.72-1.76-.72h-1.53v5a9.29,9.29,0,0,0,1.88.23c2.73,0,2.9-1,3.25-2.45l.43.07a10.75,10.75,0,0,1-.57,2.86h-7.88Z" transform="translate(-8.73 -12.52)"/><path class="cls-2" d="M172.21,103.71c0-2,.75-4.21,2.89-4.21,2.42,0,3.35,2.12,3.35,4.58,0,2.19-.95,4-2.83,4C173.29,108.07,172.21,106,172.21,103.71Zm3.06,5.08a4.89,4.89,0,0,0,5.08-5.27c0-2.85-2-4.74-5-4.74a4.92,4.92,0,0,0-5.06,5.18A4.62,4.62,0,0,0,175.27,108.79Z" transform="translate(-8.73 -12.52)"/><path class="cls-2" d="M181.5,108l.6-.07c.81-.06.81-.12.81-1.92V100a12.73,12.73,0,0,1-1.61-.25v-.45c.18,0,1.22-.1,1.61-.17v-.51c0-2.44,1.48-5.27,4.4-5.27a2.68,2.68,0,0,1,1.9.62,2.91,2.91,0,0,1-.6,1.37h-.15a2.59,2.59,0,0,0-2-1c-1.59,0-1.73,2.21-1.73,3.66v1.15c.68,0,2,.09,2.66.17v.45a15.76,15.76,0,0,1-2.66.25V106c0,1.82,0,1.88.8,1.92l1,.07v.45h-5Z" transform="translate(-8.73 -12.52)"/><path class="cls-2" d="M193.49,107.91l.65-.15a1.92,1.92,0,0,0,.8-.31c.25-.26.44-1.91.59-4.26l.41-6.5c.11-1.76.29-4.55.29-5.24l.69-.24c.78,1.35,6.66,12.47,7.46,13.89.83-1.32,6.61-12.34,7.1-13.65l.67-.24c0,.21.18,3.1.36,6.51l.24,4.46a28.74,28.74,0,0,0,.49,5.09c.12.26.51.41,1,.49l.77.15v.57h-6.61v-.57l1-.15c1.11-.13,1.21-.54,1.21-1.73,0-2.87-.44-8.29-.44-9.94h0c-.44,1.14-3.07,6.2-5.62,11.23-.13.26-.24.57-.37.82l-.72.34c-.57-1.19-3.84-7.49-5.62-10.89a15.76,15.76,0,0,1-.7-1.5H197c-.08,1.47-.44,8.78-.44,9.58,0,1.52,0,2,1.21,2.09l1,.15v.57h-5.34Z" transform="translate(-8.73 -12.52)"/><path class="cls-2" d="M217.87,102.56c0-3,1.52-5.13,4.1-5.13s4.32,2.46,4.32,5.72c0,2.51-1.1,5-4,5C219.66,108.17,217.87,106.07,217.87,102.56Zm4.06,6.18a5.84,5.84,0,0,0,6.17-6,5.52,5.52,0,0,0-5.84-5.84,5.93,5.93,0,0,0-6.19,6A5.49,5.49,0,0,0,221.93,108.74Z" transform="translate(-8.73 -12.52)"/><path class="cls-2" d="M232.38,97.83a5.31,5.31,0,0,1,1.07-.14,2.4,2.4,0,0,1,2.66,2.63,2.52,2.52,0,0,1-2.75,2.72h-1Zm-2.89,10.65h4.16v-.38l-.62,0c-.65-.07-.65-.15-.65-2.25v-2.28H233a1.67,1.67,0,0,1,1.07.23,7.61,7.61,0,0,1,1.07,1.68l.69,1.33a2.83,2.83,0,0,0,2.44,1.72h1.33v-.38a1.83,1.83,0,0,1-.86-.17,8.11,8.11,0,0,1-1.91-2.55c-.47-.82-1-1.92-1.3-2.41,1-.44,2.38-1.39,2.38-3,0-2.62-2.3-2.86-3.94-2.86h-4.49v.38l.62,0c.67.07.67.16.67,2.26v6c0,2.1,0,2.18-.67,2.25l-.62,0Z" transform="translate(-8.73 -12.52)"/><path class="cls-2" d="M242.46,97.83a5.5,5.5,0,0,1,1.07-.14,2.41,2.41,0,0,1,2.67,2.63,2.53,2.53,0,0,1-2.76,2.72h-1Zm-2.89,10.65h4.17v-.38l-.62,0c-.66-.07-.66-.15-.66-2.25v-2.28h.64a1.7,1.7,0,0,1,1.07.23,7.7,7.7,0,0,1,1.06,1.68l.69,1.33a2.84,2.84,0,0,0,2.44,1.72h1.33v-.38a1.83,1.83,0,0,1-.86-.17,8.11,8.11,0,0,1-1.91-2.55c-.46-.82-1-1.92-1.29-2.41.94-.44,2.37-1.39,2.37-3,0-2.62-2.3-2.86-3.94-2.86h-4.49v.38l.62,0c.67.07.67.16.67,2.26v6c0,2.1,0,2.18-.67,2.25l-.62,0Z" transform="translate(-8.73 -12.52)"/><path class="cls-2" d="M249.6,108.1l.62,0c.67-.07.67-.15.67-2.25v-6c0-2.1,0-2.19-.67-2.26l-.62,0v-.38h4.19v.38l-.62,0c-.67.07-.67.16-.67,2.26v6c0,2.1,0,2.18.67,2.25l.62,0v.38H249.6Z" transform="translate(-8.73 -12.52)"/><path class="cls-2" d="M259.26,102c1.36.77,2.77,1.5,2.77,3.56,0,2.32-2.15,3.22-4,3.22a4.9,4.9,0,0,1-2.7-.69,8.33,8.33,0,0,1-.55-3l.55-.14c.19,1.24.83,3.29,3.18,3.29a2,2,0,0,0,2.07-2.12c0-1.25-1.05-2.11-2.39-2.72l-1.1-.6a3.46,3.46,0,0,1-1.9-2.89c0-2.1,1.76-3,3.58-3a4.76,4.76,0,0,1,2.38.56,15.54,15.54,0,0,1,.17,2.37h-.43c-.17-.86-.45-2.36-2.39-2.36a1.83,1.83,0,0,0-1.88,1.88c0,1,.74,1.56,1.67,2.11Z" transform="translate(-8.73 -12.52)"/><path class="cls-2" d="M140,61.93a45.27,45.27,0,0,1-3.31,13.72A44.51,44.51,0,0,1,120,78.72c-15.42,0-29.95-7.19-29.95-27.69,0-21.56,17.36-28,30.11-28,8.24,0,14.37,2,16.47,3.32A59.15,59.15,0,0,1,138,38.27l-2.19.49c-.8-3.23-1.85-13.08-15.66-13.08-13.24,0-21.55,8.72-21.55,23.82,0,13.8,6.62,26.56,21.31,26.56,13.4,0,15.42-8.16,17.92-14.62Z" transform="translate(-8.73 -12.52)"/><path class="cls-2" d="M193.26,61.93a45.59,45.59,0,0,1-3.32,13.72,44.46,44.46,0,0,1-16.63,3.07c-15.41,0-29.95-7.19-29.95-27.69,0-21.56,17.36-28,30.12-28,8.23,0,14.37,2,16.46,3.32a59.15,59.15,0,0,1,1.3,11.94l-2.18.49c-.81-3.23-1.86-13.08-15.66-13.08-13.25,0-21.56,8.72-21.56,23.82,0,13.8,6.62,26.56,21.31,26.56,13.4,0,15.42-8.16,17.93-14.62Z" transform="translate(-8.73 -12.52)"/><path class="cls-2" d="M194.79,75.73l2-.48a5.76,5.76,0,0,0,2.5-1c.81-.81,1.37-6,1.86-13.32l1.29-20.35c.32-5.48.88-14.2.88-16.38l2.19-.73c2.42,4.2,20.82,39,23.33,43.43,2.58-4.11,20.66-38.59,22.2-42.7l2.1-.73c0,.64.56,9.69,1.13,20.34l.73,14c.32,6.86.88,14.69,1.53,15.91.4.8,1.61,1.29,3.07,1.53l2.42.48v1.78H241.37V75.73l3.15-.48c3.47-.4,3.79-1.7,3.79-5.41,0-9-1.37-25.92-1.37-31.08h-.16c-1.37,3.55-9.61,19.37-17.6,35.12-.4.8-.73,1.77-1.13,2.58l-2.26,1.05c-1.78-3.71-12-23.41-17.6-34.07A49.72,49.72,0,0,1,206,38.76h-.16c-.24,4.6-1.37,27.45-1.37,29.95,0,4.76,0,6.14,3.79,6.54l3.23.48v1.78H194.79Z" transform="translate(-8.73 -12.52)"/></g></svg>