<?xml version="1.0" encoding="utf-8"?>
<!-- Generator: Adobe Illustrator 26.0.3, SVG Export Plug-In . SVG Version: 6.00 Build 0)  -->
<svg version="1.0" id="Layer_1" xmlns="http://www.w3.org/2000/svg" xmlns:xlink="http://www.w3.org/1999/xlink" x="0px" y="0px"
	 viewBox="0 0 276.7 214.5" style="enable-background:new 0 0 276.7 214.5;" xml:space="preserve">
<g id="Layer_2">
	<g id="Layer_1-2">
		<path d="M56.2,61l0.3,0.5c-0.2,0.1-0.3,0.2-0.5,0.2c-0.5,0.1-1,0.1-1.5,0.2c-0.7,0.1-1.1,0.7-1,1.3c0,0.1,0,0.1,0,0.2
			c0.3,1.7,0.6,3.3,1.1,5c2.1,7.7,4.2,15.3,6.4,23c0,0.1,0.1,0.3,0.2,0.6c0.5-1.4,1-2.6,1.5-3.9c3.1-8.4,6.3-16.8,9.4-25.2
			c0.1-0.4,0.3-0.8,0.5-1.1c0.3-0.5,0.6-0.5,0.9,0c0.3,0.6,0.6,1.2,0.8,1.8c3.2,9.2,6.5,18.4,9.7,27.7l0.3,0.7
			c0.1-0.3,0.2-0.4,0.2-0.5c2.4-8,4.8-15.9,7.2-23.8c0.4-1.3,0.6-2.6,0.8-4c0.2-0.7-0.2-1.3-0.9-1.5c-0.1,0-0.2,0-0.2,0
			c-0.5-0.1-1.1-0.1-1.6-0.2c-0.2-0.1-0.3-0.1-0.5-0.2l0.2-0.4h10.2c0.3,0.5,0.2,0.7-0.3,0.7c-1.1-0.1-2.2,0.4-2.9,1.3
			c-0.5,0.8-1,1.7-1.3,2.7c-1.6,4.6-3.1,9.2-4.7,13.7l-6.1,18.2c-0.1,0.4-0.3,0.8-0.6,1.2c-0.3,0.5-0.8,0.5-1.1,0
			c-0.2-0.4-0.4-0.7-0.5-1.1c-2.1-5.9-4.2-11.9-6.3-17.8c-1.2-3.5-2.4-6.9-3.6-10.3C72,69.4,72,69.2,71.8,69l-1,2.8
			c-3.3,8.6-6.5,17.2-9.8,25.8c-0.1,0.4-0.3,0.8-0.5,1.1c-0.2,0.3-0.5,0.5-0.8,0.5c-0.2,0-0.5-0.3-0.6-0.6c-0.3-0.9-0.6-1.7-0.9-2.6
			l-9.1-30.1c-0.2-0.6-0.4-1.3-0.7-1.9c-0.5-1.3-1.8-2.2-3.2-2.2c-0.3,0-0.7,0-1-0.1c-0.2,0-0.3-0.1-0.5-0.2L44,61h3.7
			c0.3,0,0.5,0.1,0.8,0.1l4.1-0.1L56.2,61z M236.7,102.3c-0.3,0-0.5-0.1-0.8-0.1c-1.7,0-3.4,0-5.1,0.1c-1,0-2-0.1-3,0
			c-0.2,0-0.7,0.2-0.7,0.3c0,0.4,0.4,0.3,0.7,0.3c0.5,0.1,1,0.1,1.5,0.2c0.8,0.1,1.5,0.7,1.6,1.5c0.1,0.3,0.1,0.7,0.2,1
			c0.1,3.8,0.2,7.7,0.3,11.5c0.1,2.8,0.1,5.6,0.2,8.4c0,1.1,0,2.1,0,3.3c-0.4-0.4-0.8-0.8-1.1-1.2c-7.7-8.4-15.4-16.8-23.1-25.1
			c-0.3-0.3-0.7-0.5-1.1-0.7c-0.2,0.4-0.3,0.8-0.3,1.3c-0.1,1.8,0,3.5-0.1,5.2c0,7,0,13.9,0,20.9c0,1.1-0.1,2.1-0.2,3.2
			c0,0.8-0.7,1.4-1.5,1.5c-0.4,0.1-0.8,0.1-1.2,0.1c-0.1,0-0.2,0.2-0.3,0.3c0.1,0.1,0.2,0.3,0.3,0.3c0.2,0,0.4,0,0.5,0h6.4
			c0.8,0,1.5,0,2.3,0c0.2,0,0.3-0.2,0.5-0.3c-0.2-0.1-0.3-0.2-0.5-0.3c-0.4-0.1-0.9-0.1-1.4-0.1c-1,0-1.8-0.8-1.9-1.7
			c-0.2-0.7-0.3-1.5-0.3-2.2c-0.1-3.6-0.2-7.1-0.3-10.6c-0.1-2.6-0.2-5.2-0.2-7.8c0-1,0-1.9,0-3c1.2,1.4,2.4,2.7,3.6,4
			c4.7,5.1,9.4,10.1,14.1,15.2c2.1,2.2,4.4,4.4,6.6,6.6c0.3,0.2,0.6,0.4,1,0.6c0.1-0.4,0.2-0.7,0.2-1.1c0-1.8,0-3.6,0.1-5.4
			c0-4.5,0-8.9,0-13.4c0-2.8,0-5.6,0-8.5c0-0.5,0-1,0.1-1.5c0-1,0.8-1.9,1.8-1.9c0,0,0.1,0,0.1,0c0.4,0,0.7-0.1,1.1-0.2L236.7,102.3
			z M40,102.2c0.6,0.1,1.1,0.1,1.7,0.2c1.3-0.1,2.4,1,2.5,2.3c0,0.1,0,0.1,0,0.2c0.1,1.5,0.2,3.1,0.2,4.6c0,7.8,0,15.7-0.1,23.5
			c0,1.3-0.2,2.6-0.4,3.8c-0.1,0.9-0.8,1.6-1.7,1.5c-0.3,0-0.7,0-1,0.1c-0.1,0-0.2,0.2-0.4,0.3c0.1,0.1,0.2,0.3,0.3,0.3
			c0.2,0,0.4,0,0.6,0h8c1,0,1.9,0,2.9,0c0.2,0,0.4-0.2,0.6-0.3c-0.2-0.1-0.4-0.3-0.6-0.3c-0.7-0.1-1.3-0.1-2-0.2
			c-0.9,0-1.7-0.7-1.8-1.6c-0.2-0.9-0.3-1.9-0.3-2.8c-0.1-2.9-0.1-5.7-0.1-8.6c0-6.9,0-13.8,0-20.7c0-0.9,0.1-1.1,1-1.3
			c0.8-0.1,1.5-0.1,2.3-0.1c2.5,0,5,1.1,6.5,3.1c1.4,1.8,2.2,3.9,2.2,6.1c0.4,4.4-2.8,8.4-7.2,8.9c-0.8,0.1-1.5,0.1-2.3,0.2
			c-0.2,0-0.3,0.2-0.4,0.4c0.1,0.1,0.3,0.3,0.4,0.3c0.2,0.1,0.4,0.1,0.6,0.1c0.8,0,1.6,0,2.5-0.1c2.6-0.3,5-1.4,6.9-3.1
			c2.4-2.2,3.7-5.4,3.5-8.7c0-3.2-1.9-6.1-4.9-7.4c-1.7-0.8-3.5-1.2-5.4-1.2c-1.9-0.1-3.8,0-5.6,0c-2.5,0-4.9-0.1-7.4-0.1
			c-0.4,0-0.7,0.1-1.1,0.2L40,102.2z M122.7,153.5c0.1-0.2,0.1-0.3,0.2-0.5c2.2-4,4.3-8,6.5-12.1c0.1-0.2,0.2-0.4,0.4-0.7
			c-0.6,0-1.1,0-1.7,0c-0.3,0-0.6,0.1-0.7,0.4c-1.1,2.2-2.2,4.3-3.4,6.5c-0.4,0.9-0.9,1.7-1.4,2.6c-0.1-0.2-0.2-0.3-0.3-0.4
			c-1.5-2.8-3-5.7-4.5-8.6c-0.1-0.2-0.3-0.4-0.4-0.4c-0.6,0-1.2,0-2,0l1.6,2.9c1.8,3.4,3.7,6.9,5.5,10.3L122.7,153.5z M209.4,92.7
			c-4.2-8.6-8.4-17.3-12.6-25.9c-0.1-0.3-0.4-0.6-0.7-0.6c-0.5,0-0.4,0.5-0.5,0.8V67c-0.5,4.3-1,8.7-1.4,13c-0.5,4.5-1,9.1-1.5,13.7
			c-0.1,1-0.2,2-0.4,3c-0.1,0.9-1,1.6-1.9,1.5c0,0,0,0,0,0c-0.9-0.1-1.7-0.5-2.3-1.2c-0.9-1.1-1.6-2.4-2.1-3.8
			c-3.2-8.2-6.4-16.4-9.5-24.6c-0.3-0.7-0.5-1.3-0.8-2c-0.1-0.2-0.3-0.4-0.5-0.6c-0.2,0.2-0.4,0.4-0.5,0.6c-0.2,0.4-0.3,0.7-0.4,1.1
			l-9.8,26.9c-0.3,0.9-0.8,1.7-1.3,2.5c-1.1,1.2-2.9,1.5-4.4,0.9c-1.2-0.4-1.2-1.6-1.3-2.6c-0.1-2.5-0.2-5.1-0.2-7.6
			c0-5.3,0-10.7,0-16.1c0-0.8,0-1.5,0.1-2.3c0.2-1.5,0.6-1.9,2.1-2.1c0.3,0,0.7-0.2,0.7-0.3c-0.1-0.5-0.5-0.3-0.8-0.3
			c-2.1,0-4.3,0-6.4,0c-0.7,0-1.4,0-2.1,0c-0.1,0-0.3,0.2-0.4,0.3c0.1,0.1,0.2,0.2,0.4,0.3c0.1,0,0.2,0,0.3,0
			c1.8,0.2,2.2,0.6,2.4,2.4c0,0.2,0,0.4,0,0.6c0,2,0.1,4,0.1,6c0,5.8,0,11.6-0.1,17.5c-0.1,1.1-0.2,2.2-0.4,3.3
			c-0.1,0.6-0.6,1.1-1.2,1.1c-0.3,0-0.5,0.1-0.8,0.1c-0.2,0.1-0.4,0.2-0.5,0.3c0.2,0.1,0.4,0.3,0.6,0.3c0.6,0,1.1,0,1.7,0
			c2.4,0,4.8,0,7.2,0h8c0.2,0,0.4,0,0.6-0.1c0.1-0.1,0.2-0.2,0.2-0.3c0-0.1-0.2-0.2-0.3-0.2c-0.1,0-0.5,0-0.7,0
			c-0.7,0.1-1.4-0.5-1.5-1.2c0-0.2,0-0.3,0-0.5c0.1-0.6,0.2-1.3,0.4-1.9c0.9-2.6,1.8-5.2,2.6-7.8c0.1-0.4,0.5-0.7,0.9-0.6
			c2.8,0,5.7,0,8.5,0c0.4-0.1,0.8,0.2,0.8,0.6c0.8,2.1,1.6,4.2,2.4,6.3c0.5,1.3,1,2.6,1.5,3.9c0.2,0.4,0.1,0.8-0.1,1.1
			c-0.1,0.1-0.2,0.3-0.3,0.4c0.2,0.1,0.3,0.2,0.5,0.2c0.2,0,0.4,0,0.6,0c1.9,0,3.9,0.1,5.8,0.1s4,0,6,0c0.6,0,1.2,0,1.8,0
			c0.2,0,0.3-0.2,0.5-0.3c-0.1-0.1-0.3-0.2-0.5-0.3c-0.4-0.1-0.9-0.1-1.3-0.2c-0.7-0.1-1.3-0.7-1.2-1.5c0-0.9,0-1.7,0.1-2.6
			c0.5-5.9,1-11.8,1.5-17.7c0-0.5,0.1-1,0.2-1.5c0.6,1,1.1,2,1.6,3.1c3.1,6.7,6.3,13.4,9.8,19.9c0.2,0.3,0.5,0.6,0.8,0.9
			c0.3-0.3,0.5-0.6,0.7-0.9c3.6-7.6,7.2-15.3,10.8-22.9c0.1-0.2,0.2-0.3,0.3-0.6c0,0.1,0.1,0.2,0.1,0.3c0.3,2.8,0.5,5.7,0.8,8.5
			s0.6,5.9,0.8,8.8c0.1,1.6,0.3,3.3,0.4,4.9c0,0.4-0.1,0.7-0.2,1.1c0,0.1-0.2,0.3-0.2,0.3c0.1,0.1,0.2,0.2,0.4,0.3
			c0.2,0.1,0.3,0.1,0.5,0.1c2,0.1,3.9,0.2,5.8,0.2c0.7,0,1.4,0,2.1,0c0.1,0,0.2-0.2,0.4-0.3c-0.1-0.1-0.2-0.2-0.3-0.3
			c-0.8-0.1-1.6-0.2-2.3-0.3c-0.9-0.1-1.7-0.8-2-1.7c-0.3-0.9-0.5-1.8-0.6-2.8c-0.4-3.4-0.8-6.9-1.1-10.4s-0.8-7.1-1.2-10.7
			c-0.2-1.9-0.4-3.8-0.6-5.7c0-0.2-0.2-0.4-0.4-0.6c-0.2,0.2-0.4,0.3-0.6,0.4c-0.1,0.1-0.1,0.2-0.1,0.3c-3.4,7.3-6.9,14.6-10.2,21.9
			c-0.7,1.6-1.5,3.1-2.2,4.7L209.4,92.7z M170.3,84.7c1.4-4.1,2.7-8.2,4-12.2h0.3c1.5,4,2.9,8.1,4.3,12.2L170.3,84.7z M143.3,119.2
			l0.5-0.5c1.8-1.7,3.1-3.8,3.8-6.2c1.2-4.8-1.1-8.7-5.9-9.8c-1.3-0.3-2.6-0.4-3.9-0.4c-2.9-0.1-5.7,0-8.6,0c-0.7,0-1.4,0-2.1,0
			c-0.2,0-0.3,0.2-0.5,0.3c0.1,0.1,0.3,0.2,0.5,0.3c0.3,0,0.5,0,0.8,0c1.5,0.1,2.1,0.7,2.3,2.2c0.1,1,0.1,2,0.1,2.9
			c0,6.7,0,13.3,0,20c0,1.5-0.2,2.9-0.4,4.3c0,0.8-0.7,1.4-1.4,1.4c-0.3,0-0.5,0-0.8,0.1c-0.1,0.1-0.3,0.1-0.4,0.2
			c0.1,0.1,0.2,0.3,0.4,0.3c0.1,0,0.3,0,0.4,0c1.9,0,3.7-0.1,5.6-0.1c1.2,0,2.4,0,3.7,0c0.2,0,0.4-0.2,0.6-0.3
			c-0.2-0.1-0.4-0.2-0.6-0.3c-0.5-0.1-1-0.1-1.5-0.1c-0.9,0-1.6-0.7-1.7-1.6c-0.1-0.6-0.2-1.2-0.2-1.8c0-3-0.1-6-0.1-9.1
			c0-0.4,0.2-0.6,0.6-0.6c1.5,0,3,0.1,4.6,0.1c0.5,0,0.9,0.2,1.2,0.6c1,1.8,2.1,3.5,3,5.4c0.9,1.8,1.6,3.5,2.4,5.2
			c0.6,1.3,1.9,2.2,3.3,2.3c1.8,0.2,3.5,0.1,5.3,0.2c0.3,0,0.5,0,0.8,0.1c2,0.5,4,0.7,6.1,0.4c2.4-0.2,4.6-1.4,6.2-3.2
			c2.7-3.6,2.6-8.6-0.4-11.9c-1.7-1.8-3.5-3.4-5.5-4.9c-1.4-1.1-2.7-2.3-3.8-3.7c-1.6-2.2-1.1-5.4,1.1-7c0.4-0.3,0.9-0.6,1.5-0.7
			c1.2-0.3,2.5-0.3,3.7,0c2.7,0.6,3.6,1.8,3.9,3.9c0.1,0.3,0.2,0.5,0.3,0.8c0.2-0.3,0.3-0.5,0.3-0.8c0.1-1.4,0.1-2.9,0.2-4.4
			c0-0.5-0.1-0.6-0.6-0.6c-0.3,0-0.5,0-0.8-0.1c-1.9-0.5-3.8-0.6-5.7-0.5c-2.2,0.1-4.2,1-5.7,2.5c-1.8,1.9-2.4,4.7-1.7,7.2
			c0.6,2.3,1.9,4.3,3.8,5.8c1.7,1.6,3.5,3,5.3,4.5c1.2,0.9,2.1,2.1,2.7,3.5c1.3,3.6-0.4,7.1-3.8,8c-1.7,0.5-3.5,0.3-5.2-0.4
			c-1.6-0.6-2.7-2-3-3.7c-0.1-0.6-0.1-1.1-0.1-1.7c0-0.1-0.2-0.2-0.2-0.4c-0.1,0.1-0.2,0.2-0.3,0.3c0,0.1-0.1,0.2-0.1,0.3
			c-0.1,2-0.2,3.9-0.3,5.9c0.1,0,0,0,0,0l-0.4-0.1c-1.6-0.4-2.9-1.4-3.6-2.8c-1-2-1.9-4-2.8-6c-0.8-1.8-1.4-3.6-3.1-4.9
			C143,119.4,143.2,119.3,143.3,119.2L143.3,119.2z M133.7,104.6c0-0.4,0.1-0.7,0.5-0.8c2-0.5,4.1-0.3,5.9,0.4
			c2,0.9,3.4,2.7,3.7,4.9c0.7,2.5,0.5,5.1-0.6,7.4c-0.7,1.8-2.4,2.9-4.3,2.9c-1.4,0-2.9-0.2-4.3-0.4c-1-0.2-1-0.3-1-1.3v-6.4
			C133.7,109.1,133.8,106.8,133.7,104.6z M90.9,104.3c0,8.3,0,16.5-0.1,24.7c-0.1,1.1-0.2,2.3-0.4,3.4c0,0.5-0.4,0.9-0.8,1.1
			c-1.5,0.5-3.7,0.3-4.8-1.2c-0.7-1-1.4-2.1-1.8-3.3c-3.3-8.5-6.6-17.1-10-25.6c-0.2-0.5-0.4-1-0.7-1.5c-0.2-0.4-0.5-0.4-0.7,0
			c-0.2,0.3-0.3,0.7-0.5,1c-3.2,8.9-6.5,17.8-9.7,26.6c-0.3,0.9-0.7,1.7-1.2,2.6c-0.5,0.9-1.5,1.6-2.6,1.6c-0.4,0-0.8,0-1.1,0.1
			c-0.1,0-0.2,0.2-0.3,0.3c0.1,0.1,0.2,0.2,0.3,0.3c0.2,0.1,0.4,0.1,0.6,0.1H65c0.1,0,0.3,0,0.4,0c0.1-0.1,0.3-0.2,0.4-0.3
			c-0.1-0.1-0.3-0.2-0.4-0.3c-0.2,0-0.4,0-0.7,0c-0.8,0-1.4-0.6-1.4-1.3c0-0.1,0-0.2,0-0.3c0-0.3,0.1-0.7,0.2-1
			c1-2.9,1.9-5.9,2.9-8.9c0.1-0.4,0.4-0.4,0.7-0.4c2.9,0,5.8,0,8.6,0c0.4,0,0.7,0.2,0.8,0.5c0.6,1.6,1.2,3.2,1.8,4.9s1.3,3.5,2,5.3
			c0.2,0.4,0.2,0.8-0.2,1.1c-0.1,0.1-0.2,0.3-0.3,0.4c0.2,0.1,0.4,0.1,0.5,0.2c0.2,0,0.4,0,0.5,0c1.8,0,3.5,0.1,5.3,0.1h11.4
			c0.2,0,0.4,0,0.6-0.1c0.1-0.1,0.2-0.2,0.3-0.3c-0.1-0.1-0.3-0.2-0.4-0.2c-0.5-0.1-1-0.1-1.5-0.1c-1.2-0.1-1.7-0.6-1.9-1.7
			c-0.2-1.5-0.3-3.1-0.3-4.6c0-7.5,0-15.1,0-22.6V104c2.3,0.1,4.6,0.1,6.8,0.2c0.9,0.1,1.7,0.3,2.6,0.6c0.8,0.3,1.3,1,1.2,1.8
			c0,0.2,0,0.3,0.1,0.5c0.1,0.2,0.2,0.3,0.3,0.5c0.1-0.2,0.3-0.3,0.3-0.5c0.1-1.6,0.1-3.2,0.1-4.8c0-0.4-0.1-0.5-0.5-0.4
			c-0.9,0.2-1.8,0.3-2.7,0.3c-6,0-12.1,0-18.1,0c-1.2,0-2.5-0.2-3.7-0.5c-0.8-0.2-0.8-0.3-1,0.5c-0.3,1.4-0.7,2.9-0.9,4.3
			c0,0.2,0.1,0.4,0.1,0.6c0.2-0.1,0.3-0.3,0.5-0.4c0.1-0.2,0.3-0.5,0.4-0.7c0.5-1,1.5-1.7,2.6-1.8c0.8-0.1,1.6-0.1,2.4-0.1
			c2,0,3.9,0,5.9,0C90.9,104.2,90.9,104.3,90.9,104.3L90.9,104.3z M75.8,120.3h-8.6c1.3-4.1,2.7-8.2,4-12.2h0.3L75.8,120.3z
			 M176.3,105.3c-5.4,4.9-7.2,10.9-5.3,18c1,4.5,4.1,8.2,8.2,10.1c3,1.4,6.4,1.9,9.7,1.5c5.1-0.4,9.6-3.3,12.2-7.6
			c2.2-3.6,3.1-7.8,2.5-12c-0.4-4.9-3.3-9.2-7.6-11.5c-2.7-1.5-5.8-2.2-8.9-2.1C182.8,101.6,179.1,102.8,176.3,105.3z M197.8,127.6
			c-2.2,4.1-6.8,6.3-11.4,5.7c-4.6-0.5-8.5-3.5-10.3-7.7c-2.2-4.5-2.5-9.8-0.9-14.5c1.5-4.8,6-8.1,11-8c5.8-0.2,10.5,3.4,12.4,9
			c0.7,2.2,1.1,4.5,1.1,6.8C199.8,121.8,199.1,124.8,197.8,127.6L197.8,127.6z M123.5,115.4c-0.4,0.6-1.1,0.9-1.8,0.9l-7,0.2
			c-0.4,0-0.5-0.2-0.5-0.6c0-1.2,0-2.3,0-3.5v-7.9c0-0.4,0-0.7,0.6-0.7c2,0.1,4,0.1,6,0.2c2.1,0.2,2.7,0.8,2.8,2.9c0,0,0,0,0,0.1
			l0.3,0.4c0.1-0.1,0.2-0.3,0.3-0.4c0-0.1,0.1-0.2,0.1-0.4c0.1-1.1,0.2-2.3,0.3-3.4c0-0.3,0.2-0.7,0.2-1s-0.1-0.5-0.4-0.4
			c-0.8,0.2-1.6,0.3-2.3,0.4c-4.2,0-8.4,0-12.6-0.1c-0.6,0-1.3,0-1.9,0c-0.2,0-0.3,0.2-0.5,0.3c0.1,0.1,0.3,0.2,0.5,0.2
			c0.3,0,0.5,0.1,0.8,0.1c1.2-0.1,2.2,0.8,2.3,2c0,0.1,0,0.2,0,0.3c0,0.4,0.1,0.7,0.1,1.1c0,7.2,0,14.5,0,21.7
			c0,1.4-0.1,2.8-0.3,4.1c-0.2,1.3-0.6,1.6-1.9,1.8c-0.3,0-0.8-0.2-0.8,0.3c0,0.5,0.5,0.3,0.8,0.3h8.7c2.2,0,4.5,0.1,6.7,0.1
			c0.9,0,1.2-0.2,1.3-1.1c0.2-1.2,0.4-2.5,0.5-3.8c0-0.3-0.1-0.6-0.2-0.9c-0.5,0-0.4,0.5-0.5,0.8c-0.4,2-1.1,2.9-3,3.1
			c-1.9,0.1-3.8,0.1-5.7,0c-1.2,0-2.1-0.9-2.2-2c-0.1-0.3-0.1-0.7-0.1-1c0-3.7,0-7.4,0-11c0-0.4,0.1-0.5,0.5-0.5c0.6,0,1.2,0,1.7,0
			c1.5,0.1,2.9,0.1,4.4,0.2c1.2,0,2.1,0.9,2.2,2.1c0,0.1,0,0.2,0,0.3c0,0.2,0,0.4,0,0.6c0,0.1,0.2,0.2,0.3,0.4
			c0.1-0.1,0.2-0.2,0.3-0.3c0.1-0.1,0-0.2,0-0.3c0.2-1.7,0.3-3.4,0.5-5.1c0-0.2,0-0.4-0.1-0.7C123.8,115.2,123.7,115.3,123.5,115.4z
			 M113,82.6c0,2.8,0,5.6,0,8.4c0,1.7-0.1,3.4-0.2,5.1c-0.2,1.7-0.6,2-2.2,2.2c-0.2,0.1-0.4,0.2-0.6,0.3c0.2,0.1,0.4,0.2,0.6,0.3
			c0.1,0,0.3,0,0.4,0c1.3,0,2.7-0.2,4-0.1c3.1,0,6.3,0.2,9.4,0.2c1.2,0,2.3,0,3.5-0.1c0.5,0,0.9-0.3,1-0.8c0.1-0.5,0.3-1,0.4-1.6
			c0.1-1,0.2-2,0.3-3c0-0.2-0.2-0.4-0.3-0.5c-0.1,0.1-0.2,0.3-0.3,0.5c-0.1,0.2-0.1,0.3-0.1,0.5c-0.4,1.6-1.2,2.9-3,3.2
			c-2.3,0.4-4.6,0.3-6.9-0.1c-1.1-0.1-1.9-0.9-2-2c-0.2-2.3-0.4-4.5-0.4-6.8c-0.1-5,0-10,0-15c0-1.4,0.1-2.9,0.2-4.3
			c0-0.9,0.7-1.6,1.6-1.6c0.5-0.1,0.9-0.1,1.4-0.2c0.1,0,0.2-0.2,0.4-0.2c-0.1-0.1-0.2-0.2-0.4-0.3c-0.1,0-0.3,0-0.4,0h-6.8
			c-0.9,0-1.8,0-2.7,0c-0.1,0-0.3,0.2-0.4,0.3c0.1,0.1,0.3,0.2,0.4,0.2c0.3,0.1,0.6,0,0.9,0.1c1.1-0.1,2.1,0.8,2.2,1.9
			c0,0.1,0,0.2,0,0.2c0,0.3,0.1,0.6,0.1,0.9L113,82.6L113,82.6z M139.2,99c1.2,0,2.4,0,3.6,0c1.8,0,3.5,0,5.2,0c0.6,0,1.1-0.4,1.1-1
			c0.2-1.4,0.5-2.8,0.6-4.2c0-0.2-0.1-0.8-0.2-0.8c-0.4,0-0.4,0.4-0.4,0.7c-0.4,2.2-1.5,3.3-3.7,3.5c-2,0.1-3.9,0.1-5.9-0.1
			c-1.6-0.1-2.1-0.8-2.3-2.4c-0.2-1.3-0.3-2.5-0.3-3.8c0-5.5,0-11,0-16.4c0-1.7,0-3.4,0.1-5.1c-0.1-1,0.6-1.9,1.6-2
			c0.1,0,0.1,0,0.2,0c0.4-0.1,0.8-0.1,1.2-0.1c0.1,0,0.2-0.2,0.4-0.2c-0.1-0.1-0.2-0.2-0.4-0.3c-0.1,0-0.3,0-0.4,0
			c-0.9,0-1.8,0.1-2.7,0.1l-6.5-0.1c-0.1,0-0.3,0-0.4,0c-0.1,0.1-0.2,0.2-0.3,0.3c0.1,0.1,0.2,0.2,0.3,0.3c0.3,0,0.6,0,1,0.1
			c1.2-0.1,2.2,0.8,2.3,2c0,0.1,0,0.2,0,0.4c0,0.8,0.1,1.5,0.1,2.2c0,6.5,0,12.9,0,19.4c0,1.7-0.1,3.4-0.3,5.1
			c-0.1,1.4-0.6,1.8-2,1.9c-0.2,0.1-0.5,0.2-0.7,0.3c0.2,0.1,0.4,0.3,0.7,0.3c0.3,0,0.5,0,0.8,0h7.4L139.2,99z M102.6,98.9h3.2
			c0.6,0,1.2,0,1.7,0c0.2,0,0.3-0.2,0.4-0.3c-0.2-0.1-0.3-0.2-0.4-0.2c-0.4-0.1-0.9-0.1-1.4-0.1c-1.4-0.1-1.9-0.6-2-1.9
			c-0.2-2.4-0.3-4.7-0.3-7.1c0-5.9,0-11.7,0-17.6c0-0.9,0.1-1.7,0.2-2.6c0-0.8,0.7-1.5,1.5-1.6c0.3-0.1,0.7-0.1,1-0.2
			c0.1,0,0.2-0.2,0.4-0.2c-0.1-0.1-0.2-0.2-0.4-0.3c-0.1,0-0.3,0-0.4,0c-1.9,0-3.7,0-5.6,0.1c-0.9,0-1.9-0.1-2.8,0
			c-0.2,0-0.4,0.2-0.6,0.3c0.2,0.1,0.3,0.2,0.5,0.3c0.2,0,0.3,0,0.5,0.1c1.1,0,2,0.8,2,1.9c0,0,0,0.1,0,0.1c0.1,0.8,0.1,1.7,0.1,2.6
			c0,6.5,0,13,0,19.4c0,1.7-0.1,3.4-0.3,5.1c-0.2,1.4-0.6,1.7-2,1.8c-0.2,0-0.7,0.2-0.7,0.3c0,0.4,0.4,0.3,0.7,0.3
			c0.1,0,0.2,0,0.3,0L102.6,98.9L102.6,98.9z M97,153.3v-13h-1.9v9.6l-13.6-10.1v12.9h1.9v-9.6L97,153.3z M162.2,146.4
			c1.1-0.5,1.8-1.8,1.6-3c-0.1-1.2-0.9-2.1-2-2.4c-0.9-0.3-1.8-0.5-2.7-0.6c-1.4-0.1-2.8,0-4.2,0v12.4h1.9v-5.5
			c0.2,0.1,0.5,0.2,0.7,0.4c1.6,1.6,3.1,3.2,4.7,4.8c0.1,0.1,0.3,0.3,0.5,0.3c0.7,0,1.4,0,2.3,0l-5.5-5.4
			C160.4,147.1,161.4,146.8,162.2,146.4L162.2,146.4z M156.9,141.7c1.2-0.1,2.4,0,3.6,0.3c0.8,0.2,1.4,1,1.4,1.9
			c0,0.9-0.5,1.6-1.3,1.9c-1.2,0.4-2.4,0.5-3.7,0.4V141.7z M60.7,140.6c0,2.7,0,5.3,0,8c0,1.5,0.9,2.9,2.3,3.5
			c2.4,1.3,5.3,1.3,7.7,0.1c1.5-0.6,2.5-2,2.5-3.6c0-2.7,0-5.4,0-8.1c0,0,0-0.1-0.1-0.1h-1.9v0.7c0,2.4,0,4.9,0,7.3
			c0.1,1.1-0.5,2.2-1.6,2.7c-1.1,0.6-2.5,0.8-3.7,0.6c-2.5-0.5-3.3-1.4-3.3-4v-7.3h-1.9C60.7,140.4,60.7,140.5,60.7,140.6
			L60.7,140.6z M146.1,140.4h-9v12.4h9v-1.3h-7v-4.9h6.8v-1.3h-5.4c-1.5,0-1.5,0-1.5-1.5v-2.2h7.1L146.1,140.4z M173.9,152.1
			c1.4,0.8,3.1,1.1,4.8,0.9c1.4-0.1,2.7-0.7,3.6-1.8c1.1-1.1,1-2.9-0.1-3.9c-0.2-0.2-0.4-0.3-0.6-0.4c-0.4-0.3-0.9-0.5-1.4-0.7
			c-1-0.4-1.9-0.6-2.9-1c-0.6-0.2-1.2-0.5-1.7-0.8c-0.6-0.3-0.8-1.1-0.5-1.7c0.1-0.1,0.2-0.3,0.3-0.4c0.2-0.2,0.4-0.4,0.7-0.5
			c1.5-0.8,3.3-0.5,4.6,0.6c0.1,0.1,0.3,0.2,0.5,0.2c0.4-0.2,0.9-0.4,1.4-0.6c-0.3-0.3-0.6-0.6-0.9-0.8c-2.2-1.4-4.9-1.5-7.2-0.2
			c-1.9,1.3-1.9,3.5,0.2,4.6c0.8,0.4,1.6,0.7,2.4,1c1,0.3,2,0.7,2.9,1.1c1.6,0.8,1.6,2.4,0.1,3.4c-1.8,1.3-4.4,0.9-5.7-0.9
			c-0.1-0.2-0.3-0.4-0.4-0.6l-1.8,0.4C172.4,150.7,173,151.6,173.9,152.1L173.9,152.1z M228.7,140.3c-0.3,0-0.5,0.2-0.7,0.4
			c-1,1.2-1.9,2.4-2.8,3.5l-1.3,1.6c-0.2-0.2-0.3-0.4-0.5-0.6c-1.2-1.5-2.4-3.1-3.6-4.6c-0.1-0.2-0.3-0.4-0.5-0.4
			c-0.7,0-1.3,0-2.1,0l0.3,0.4c1.7,2.1,3.4,4.2,5.1,6.4c0.2,0.2,0.3,0.5,0.3,0.8c0,1.4,0,2.8,0,4.3c0,0.2,0,0.4,0,0.6h1.9v-0.6
			c0-1.4,0-2.8,0-4.1c0-0.4,0.1-0.7,0.4-1c0.7-0.9,1.4-1.7,2.1-2.6l3.3-4.1C229.8,140.3,229.2,140.3,228.7,140.3L228.7,140.3z
			 M205,152.8h2v-11.1h4.2v-1.3h-10.4v1.3h4.2L205,152.8z M108.1,140.4h-1.9v12.4h1.9L108.1,140.4z M191.4,152.8h1.9v-12.4h-1.9
			L191.4,152.8z"/>
	</g>
</g>
</svg>
