<?xml version="1.0" encoding="utf-8"?>
<!-- Generator: Adobe Illustrator 23.0.2, SVG Export Plug-In . SVG Version: 6.00 Build 0)  -->
<svg version="1.1" id="Layer_1" xmlns="http://www.w3.org/2000/svg" xmlns:xlink="http://www.w3.org/1999/xlink" x="0px" y="0px"
	 viewBox="0 0 500 642.1" style="enable-background:new 0 0 500 642.1;" xml:space="preserve">
<style type="text/css">
	.st0{fill:#29458D;}
	.st1{fill-opacity:0;}
	.st2{fill:#EA6325;}
	.st3{enable-background:new    ;}
</style>
<g>
	<g>
		<g>
			<path id="a3sjBGIpIj" class="st0" d="M236.5,238.5h42.6H322c0-34.9,0-54.2,0-58c0.2-31.4,0.4-57.8,0.6-58.8
				c0-2.2,5.4,6.2,45,69.4c2,3.2,11.8,19,29.6,47.4c26.7,0,41.5,0,44.4,0c24.4-0.4,43.2,1,43,0c-0.4-0.8,0-56.2,0-120
				c0-7.7,0-46.4,0-116.1h-43h-43l-0.4,60.2l-0.6,60.2l-37.8-60.2L322,2.4h-42.8h-42.6v118V238.5z"/>
		</g>
		<g>
			<g>
				<path class="st1" d="M236.5,238.5h42.6H322c0-34.9,0-54.2,0-58c0.2-31.4,0.4-57.8,0.6-58.8c0-2.2,5.4,6.2,45,69.4
					c2,3.2,11.8,19,29.6,47.4c26.7,0,41.5,0,44.4,0c24.4-0.4,43.2,1,43,0c-0.4-0.8,0-56.2,0-120c0-7.7,0-46.4,0-116.1h-43h-43
					l-0.4,60.2l-0.6,60.2l-37.8-60.2L322,2.4h-42.8h-42.6v118V238.5z"/>
			</g>
		</g>
	</g>
	<g>
		<g>
			<path id="b80OEKsPD" class="st2" d="M10.4,236.5h106.1h106v-28v-28h-68h-68v-15v-15.2l68,0.6l68,0.6v-29.6V92.4h-68h-68v-14v-14
				h68h68v-30v-30h-106H10.4v116.1V236.5z"/>
		</g>
		<g>
			<g>
				<path class="st1" d="M10.4,236.5h106.1h106v-28v-28h-68h-68v-15v-15.2l68,0.6l68,0.6v-29.6V92.4h-68h-68v-14v-14h68h68v-30v-30
					h-106H10.4v116.1V236.5z"/>
			</g>
		</g>
	</g>
	<g>
		<g>
			<path id="a1Ek1qeonP" class="st0" d="M10.4,483.6h37.4h37.6c0.6-45.3,0.9-70.4,1-75.4c0.6-41,1.6-73.2,2.4-71.6
				c0.8,1.6,11.6,35.2,24,74.6c1.5,4.8,9,28.7,22.6,71.6h31h31c1.9-6.4,3-9.9,3.2-10.6c1.6-5.8,11-41.4,20.8-79
				c9.8-37.8,18-68.2,18.4-67.8c0.4,0.2,1,22.2,1.2,48.4c0.4,44.6,0.8,48.6,5.2,59.4c6.8,17,21.8,31.6,42.6,41.2
				c26.8,12.4,39.8,15,76.6,15c29.8,0,33-0.4,48-5.6c21-7.2,35.8-16.4,49.2-30.6c22.6-23.8,24-32.4,23.4-130.7
				c0-4.9-0.2-29.6-0.6-74h-43.4h-43.4c-0.4,44.7-0.6,69.5-0.6,74.4c-0.6,72.8-0.8,74.8-5,83c-6.8,12.6-15,17.6-29.8,17.6
				c-10.6,0-22.5-2.7-26-5c-3.5-2.3-7.5-5.3-10.6-11s-2.3-9.1-3.2-15.8s-0.6-71.6-0.6-71.6l-0.6-71.6h-62.8h-62.8
				c-1.1,3.8-1.7,6-1.8,6.4c-1,3.6-8,31.6-15.6,62c-7.6,30.6-14.2,55.6-15,55.6c-1,0-15.2-47.2-34.4-114.1c-0.2-0.6-1.1-3.9-2.6-10
				H68.8H10.4v117.5V483.6z"/>
		</g>
	</g>
	<g id="fwg9AUdi">
		<g>
			<g class="st3">
				<path class="st2" d="M42.3,584.3H22.4v34.2H11.2v-84.4h27.9c9.5,0,16.8,2.2,21.9,6.5c5.1,4.3,7.7,10.6,7.7,18.9
					c0,5.3-1.4,9.8-4.3,13.7c-2.8,3.9-6.8,6.8-11.9,8.8l19.8,35.8v0.7H60.6L42.3,584.3z M22.4,575.2h17.1c5.5,0,9.9-1.4,13.2-4.3
					c3.3-2.9,4.9-6.7,4.9-11.5c0-5.2-1.6-9.2-4.7-12c-3.1-2.8-7.6-4.2-13.5-4.2h-17V575.2z"/>
				<path class="st2" d="M143.8,534.1v57.4c0,8-2.5,14.5-7.5,19.5c-5,5.1-11.7,7.9-20.2,8.5l-3,0.1c-9.2,0-16.6-2.5-22.1-7.5
					c-5.5-5-8.3-11.8-8.3-20.6v-57.5h11v57.2c0,6.1,1.7,10.9,5,14.2c3.4,3.4,8.2,5.1,14.4,5.1c6.3,0,11.1-1.7,14.5-5
					c3.3-3.4,5-8.1,5-14.2v-57.2H143.8z"/>
				<path class="st2" d="M173.4,618.5h-11.1v-84.4h11.1V618.5z"/>
				<path class="st2" d="M193.7,618.5v-84.4h23.8c7.3,0,13.8,1.6,19.5,4.9c5.6,3.2,10,7.9,13.1,13.9s4.6,12.9,4.7,20.6v5.4
					c0,8-1.5,14.9-4.6,20.9c-3.1,6-7.5,10.6-13.2,13.8c-5.7,3.2-12.3,4.9-19.9,4.9H193.7z M204.8,543.2v66.2h11.7
					c8.6,0,15.3-2.7,20-8c4.8-5.3,7.2-12.9,7.2-22.8v-4.9c0-9.6-2.3-17.1-6.8-22.4c-4.5-5.3-10.9-8-19.2-8.1H204.8z"/>
				<path class="st2" d="M336.5,579c0,8.3-1.4,15.5-4.2,21.7c-2.8,6.2-6.7,10.9-11.8,14.1c-5.1,3.2-11.1,4.9-17.9,4.9
					c-6.6,0-12.5-1.6-17.7-4.9c-5.1-3.3-9.1-7.9-12-14c-2.8-6-4.3-13.1-4.4-21v-6.1c0-8.1,1.4-15.3,4.2-21.5c2.8-6.2,6.8-11,12-14.3
					s11.1-5,17.7-5c6.8,0,12.7,1.6,17.9,4.9s9.1,8,11.9,14.2c2.8,6.2,4.2,13.4,4.2,21.7V579z M325.4,573.6c0-10-2-17.7-6-23
					c-4-5.4-9.6-8-16.9-8c-7,0-12.6,2.7-16.6,8s-6.1,12.8-6.2,22.3v6.2c0,9.7,2,17.3,6.1,22.9c4.1,5.5,9.7,8.3,16.8,8.3
					c7.2,0,12.8-2.6,16.7-7.9c3.9-5.2,6-12.7,6.1-22.5V573.6z"/>
				<path class="st2" d="M378.1,580.9c-9.5-2.7-16.5-6.1-20.8-10.1s-6.5-8.9-6.5-14.8c0-6.6,2.7-12.1,8-16.5s12.2-6.5,20.7-6.5
					c5.8,0,11,1.1,15.5,3.4c4.5,2.2,8.1,5.3,10.6,9.3c2.5,3.9,3.7,8.3,3.7,12.9H398c0-5.1-1.6-9.1-4.9-12.1
					c-3.2-2.9-7.8-4.4-13.7-4.4c-5.5,0-9.8,1.2-12.8,3.6c-3.1,2.4-4.6,5.8-4.6,10.1c0,3.4,1.5,6.4,4.4,8.7c2.9,2.4,7.9,4.6,14.9,6.5
					c7,2,12.5,4.2,16.5,6.5c4,2.4,6.9,5.2,8.8,8.3c1.9,3.2,2.9,6.9,2.9,11.2c0,6.8-2.7,12.3-8,16.4c-5.3,4.1-12.5,6.2-21.4,6.2
					c-5.8,0-11.2-1.1-16.2-3.3c-5-2.2-8.9-5.3-11.6-9.1c-2.7-3.9-4.1-8.3-4.1-13.2h11.2c0,5.1,1.9,9.1,5.7,12.1s8.8,4.4,15.1,4.4
					c5.9,0,10.4-1.2,13.5-3.6c3.1-2.4,4.7-5.7,4.7-9.8c0-4.1-1.4-7.3-4.3-9.6C390.9,585.3,385.7,583.1,378.1,580.9z"/>
				<path class="st2" d="M488.6,579c0,8.3-1.4,15.5-4.2,21.7c-2.8,6.2-6.7,10.9-11.8,14.1c-5.1,3.2-11.1,4.9-17.9,4.9
					c-6.6,0-12.5-1.6-17.7-4.9c-5.1-3.3-9.1-7.9-12-14c-2.8-6-4.3-13.1-4.4-21v-6.1c0-8.1,1.4-15.3,4.2-21.5c2.8-6.2,6.8-11,12-14.3
					s11.1-5,17.7-5c6.8,0,12.7,1.6,17.9,4.9s9.1,8,11.9,14.2c2.8,6.2,4.2,13.4,4.2,21.7V579z M477.5,573.6c0-10-2-17.7-6-23
					c-4-5.4-9.6-8-16.9-8c-7,0-12.6,2.7-16.6,8s-6.1,12.8-6.2,22.3v6.2c0,9.7,2,17.3,6.1,22.9c4.1,5.5,9.7,8.3,16.8,8.3
					c7.2,0,12.8-2.6,16.7-7.9c3.9-5.2,6-12.7,6.1-22.5V573.6z"/>
			</g>
		</g>
	</g>
</g>
</svg>
