<?xml version="1.0" encoding="UTF-8" standalone="no"?>
<svg
   xmlns:dc="http://purl.org/dc/elements/1.1/"
   xmlns:cc="http://creativecommons.org/ns#"
   xmlns:rdf="http://www.w3.org/1999/02/22-rdf-syntax-ns#"
   xmlns:svg="http://www.w3.org/2000/svg"
   xmlns="http://www.w3.org/2000/svg"
   xmlns:sodipodi="http://sodipodi.sourceforge.net/DTD/sodipodi-0.dtd"
   xmlns:inkscape="http://www.inkscape.org/namespaces/inkscape"
   version="1.1"
   id="svg2"
   xml:space="preserve"
   width="1200"
   height="861.33331"
   viewBox="0 0 1200 861.33331"
   sodipodi:docname="JJC_Logo.eps"><metadata
     id="metadata8"><rdf:RDF><cc:Work
         rdf:about=""><dc:format>image/svg+xml</dc:format><dc:type
           rdf:resource="http://purl.org/dc/dcmitype/StillImage" /></cc:Work></rdf:RDF></metadata><defs
     id="defs6" /><sodipodi:namedview
     pagecolor="#ffffff"
     bordercolor="#666666"
     borderopacity="1"
     objecttolerance="10"
     gridtolerance="10"
     guidetolerance="10"
     inkscape:pageopacity="0"
     inkscape:pageshadow="2"
     inkscape:window-width="640"
     inkscape:window-height="480"
     id="namedview4" /><g
     id="g10"
     inkscape:groupmode="layer"
     inkscape:label="ink_ext_XXXXXX"
     transform="matrix(1.3333333,0,0,-1.3333333,0,861.33333)"><g
       id="g12"
       transform="scale(0.1)"><path
         d="M 9000,6418.33 V 3213.97 H 8166.43 L 7588.77,4601.32 V 3213.97 h -901.1 v 3204.36 l 866.23,-0.01 549.63,-1309.96 V 6418.33 Z M 1624.05,998.98 C 1624.05,383.02 1210.7,0 545.203,0 H 0 v 880.43 h 498.355 c 74.821,0 121.348,49.34 121.348,129.21 v 2173.23 c -24.508,-1.09 -49.258,-1.83 -74.5,-1.83 H 0 v 880.43 h 498.355 c 74.821,0 121.348,49.34 121.348,129.22 V 6418.33 H 1624.05 V 4180.04 c 0,-461.24 -231.79,-791.82 -627.628,-928.83 h 627.628 z m 3553.48,2252.23 v 1221.62 h 367.24 V 3251.21 Z m -664.14,-37.65 h 461.19 L 4774.13,2045.62 Z M 5544.77,5317.52 H 5177.53 V 6418.33 H 4175.73 V 3251.22 l -688.43,0.01 733.3,-1913.73 V 32.6211 h 967.38 V 1337.5 l 755.08,1876.47 h 606.7 V 6418.33 H 5544.77 Z M 2583.6,1049.82 2773.49,2255.41 2923.4,1049.82 Z m 154.04,4524.31 c 0,98.48 58.85,164.09 161.71,164.09 102.94,0 161.69,-65.61 161.69,-164.09 v -1499.8 c 0,-103.15 -58.75,-164.08 -161.69,-164.08 -102.86,0 -161.71,60.93 -161.71,164.08 z M 4063.71,4158.66 v 1331.11 c 0,538.98 -453.83,970.23 -1164.36,970.23 -715.37,0 -1166.2,-431.25 -1166.2,-970.23 V 4158.66 c 0,-416.04 264.23,-765.95 708.75,-907.43 H 2161.26 L 1534.24,32.6211 h 946.51 l 75.18,433.8279 h 376.45 L 2995.27,32.6211 H 4019.84 L 3389.13,3262.65 c 422.45,148.34 674.58,490.88 674.58,896.01"
         style="fill:#232d62;fill-opacity:1;fill-rule:nonzero;stroke:none"
         id="path14" /><path
         d="M 8205.66,32.2109 V 597.73 h 327.48 V 474.602 h -173.62 v -99.364 h 112.6 V 268.25 h -112.6 V 162.969 h 173.62 V 32.2109 Z M 7970.99,17.7617 c -115.18,0 -199.43,69.6172 -199.43,174.0903 V 438.09 c 0,104.43 84.25,174.09 199.43,174.09 109.17,0 178.79,-66.25 178.79,-163.91 V 384.609 H 8013.1 v 64.512 c 0,22.07 -14.6,37.359 -42.11,37.359 -27.51,0 -42.14,-15.289 -42.14,-37.359 v -268.34 c 0,-22.07 14.63,-37.332 42.14,-37.332 27.51,0 42.11,15.262 42.11,37.332 v 64.551 h 136.68 v -63.703 c 0,-97.6485 -69.62,-163.8673 -178.79,-163.8673 z M 7557.53,32.2109 V 597.73 H 7711.4 V 32.2109 Z M 7406.26,472.051 V 32.2109 H 7252.4 V 472.051 H 7144.94 V 597.73 h 369.61 V 472.051 Z M 6948.12,17.7617 c -116.92,0 -187.39,60.2891 -187.39,161.3473 v 30.563 h 134.1 v -27.18 c 0,-27.16 17.18,-46.711 46.39,-46.711 29.24,0 42.98,16.149 42.98,45.848 0,34.82 -42.1,59.441 -89.37,89.18 -61.05,37.363 -129.82,83.211 -129.82,166.433 0,88.321 63.64,174.09 187.4,174.09 101.41,0 171.03,-72.184 171.03,-160.512 v -23.769 h -134.07 v 26.328 c 0,24.633 -16.35,39.922 -36.96,39.922 -19.77,0 -40.4,-13.59 -40.4,-40.77 0,-34.82 42.1,-58.582 89.4,-88.32 61.02,-38.219 130.64,-84.922 130.64,-171.531 0,-89.149 -65.34,-174.9183 -183.93,-174.9183 z m -421.2,0 c -107.44,0 -189.1,69.6172 -189.1,154.5393 V 597.73 h 155.59 V 173.148 c 0,-18.668 16.33,-29.699 33.51,-29.699 18.91,0 35.23,11.031 35.23,29.699 V 597.73 h 148.72 V 172.301 c 0,-84.9221 -74.78,-154.5393 -183.95,-154.5393 z m -438.39,0 c -108.32,0 -181.37,66.2188 -181.37,163.8673 v 75.59 h 146.99 v -84.071 c 0,-18.668 16.32,-29.699 34.38,-29.699 18.06,0 34.39,11.031 34.39,29.699 V 597.73 h 153.85 V 181.629 c 0,-97.6485 -79.07,-163.8673 -188.24,-163.8673 z M 8681.89,708.48 v 565.53 h 153.86 V 836.691 h 164.16 V 708.48 Z m -240.69,374.48 -32.68,-191.062 h 58.46 z m 50.71,-374.48 -10.33,78.961 h -91.12 l -12.89,-78.961 h -140.08 l 116.03,565.53 h 178.79 l 113.46,-565.53 z m -415.19,0 -89.37,184.239 -39.55,81.551 V 708.48 h -137.54 v 565.53 h 133.25 l 85.94,-189.35 36.97,-81.54 v 270.89 h 136.65 V 708.48 Z m -484.77,0 v 565.53 h 153.86 V 708.48 Z m -213.2,0 v 355.78 L 7350.39,919.898 7303.96,708.48 h -94.54 l -42.99,211.418 -25.78,144.362 V 708.48 h -137.53 v 565.53 h 202.01 l 46.39,-221.64 14.63,-84.909 15.47,84.909 44.68,221.64 h 201.14 V 708.48 Z m -593.94,0 v 565.53 h 153.86 V 708.48 Z m -209.77,422.88 c 0,20.37 -8.57,28.01 -25.78,28.01 h -37.82 v -130.78 h 37.82 c 17.21,0 25.78,7.67 25.78,28.04 z m 40.4,-422.88 c -24.05,0 -36.08,46.7 -36.08,87.469 v 93.41 c 0,15.293 -11.19,36.512 -32.69,36.512 h -35.23 V 708.48 h -153.86 v 565.53 h 218.34 c 74.79,0 144.41,-50.95 144.41,-129.06 v -83.21 c 0,-28.89 -20.65,-63.689 -60.17,-79.849 39.52,-16.141 62.75,-50.95 62.75,-80.649 V 802.73 c 0,-35.66 9.46,-64.55 19.76,-91.691 v -2.559 z m -492.52,-14.441 c -115.19,0 -199.43,69.621 -199.43,174.082 v 246.249 c 0,104.43 84.24,174.09 199.43,174.09 109.16,0 178.78,-66.25 178.78,-163.91 v -63.66 h -136.68 v 64.51 c 0,22.08 -14.6,37.37 -42.1,37.37 -27.51,0 -42.14,-15.29 -42.14,-37.37 V 857.059 c 0,-22.067 14.63,-37.329 42.14,-37.329 27.5,0 42.1,15.262 42.1,37.329 v 64.55 H 6301.7 V 857.91 c 0,-97.66 -69.62,-163.871 -178.78,-163.871 z M 6521.74,1833.96 V 1726.1 h 110.91 v -116.32 h -110.91 v -225.02 h -153.85 v 565.53 h 318.02 v -116.33 z m -371.32,-24.61 c 0,18.66 -16.34,29.69 -34.37,29.69 -18.07,0 -35.27,-11.03 -35.27,-29.69 v -283.64 c 0,-18.67 17.2,-29.7 35.27,-29.7 18.03,0 34.37,11.03 34.37,29.7 z m -34.37,-439.03 c -109.17,0 -192.56,66.21 -192.56,163.87 v 266.64 c 0,97.66 83.39,163.06 192.56,163.06 108.28,0 191.67,-65.4 191.67,-163.06 v -266.64 c 0,-97.66 -83.39,-163.87 -191.67,-163.87 z m 2226.41,690.72 v 565.53 h 327.48 v -123.13 h -173.63 v -99.36 h 112.61 v -106.99 h -112.61 v -105.28 h 173.63 v -130.77 z m -146.15,0 -17.19,55.18 c -21.5,-44.14 -67.89,-69.62 -115.17,-69.62 -104.88,0 -170.21,73.03 -170.21,156.24 v 281.94 c 0,76.39 78.22,155.39 195.14,155.39 116.01,0 189.94,-79 189.94,-155.39 v -71.33 h -148.69 v 69.62 c 0,18.67 -12.89,32.25 -38.7,32.25 -25.77,0 -39.52,-13.58 -39.52,-32.25 v -276.82 c 0,-18.7 16.33,-33.96 41.26,-33.96 26.63,0 41.25,15.26 41.25,33.96 v 49.25 h -42.99 v 91.7 h 189.98 v -286.16 z m -676.59,0 v 565.53 h 327.48 v -123.13 h -173.62 v -99.36 h 112.61 v -106.99 h -112.61 v -105.28 h 173.62 v -130.77 z m -361.01,0 v 565.53 h 153.85 v -437.32 h 164.17 v -128.21 z m -361.02,0 v 565.53 h 153.87 v -437.32 h 164.16 v -128.21 z m -217.48,424.58 c 0,18.67 -16.33,29.7 -34.38,29.7 -18.06,0 -35.24,-11.03 -35.24,-29.7 v -283.63 c 0,-18.67 17.18,-29.7 35.24,-29.7 18.05,0 34.38,11.03 34.38,29.7 z m -34.38,-439.02 c -109.17,0 -192.53,66.21 -192.53,163.87 v 266.64 c 0,97.66 83.36,163.06 192.53,163.06 108.32,0 191.67,-65.4 191.67,-163.06 v -266.64 c 0,-97.66 -83.35,-163.87 -191.67,-163.87 z m -422.91,0 c -115.19,0 -199.43,69.62 -199.43,174.08 v 246.24 c 0,104.44 84.24,174.1 199.43,174.1 109.16,0 178.78,-66.25 178.78,-163.91 v -63.66 h -136.68 v 64.51 c 0,22.07 -14.6,37.36 -42.1,37.36 -27.51,0 -42.14,-15.29 -42.14,-37.36 v -268.34 c 0,-22.07 14.63,-37.33 42.14,-37.33 27.5,0 42.1,15.26 42.1,37.33 v 64.55 h 136.68 v -63.7 c 0,-97.66 -69.62,-163.87 -178.78,-163.87"
         style="fill:#00adef;fill-opacity:1;fill-rule:nonzero;stroke:none"
         id="path16" /></g></g></svg>
