<svg id="Layer_1" data-name="Layer 1" xmlns="http://www.w3.org/2000/svg" viewBox="0 0 940.34 129.88"><defs><style>.cls-1{fill:#1f355e;}.cls-2{fill:#f7b334;}.cls-3{fill:none;stroke:#231f20;stroke-miterlimit:10;opacity:0.75;}</style></defs><title>NewLogo2018_FINAL_horiz</title><path id="_Path_" data-name="&lt;Path&gt;" class="cls-1" d="M138.79,97.27A64.75,64.75,0,0,0,79.35,10.35h0V44a31.21,31.21,0,0,1,0,62.13v33.63h0A64.21,64.21,0,0,0,104.8,134l4.63,5.61h59.21Z" transform="translate(-11.66 -10.22)"/><path id="_Path_2" data-name="&lt;Path&gt;" class="cls-2" d="M75.08,10.22a64.84,64.84,0,0,0,0,129.66h0V124.79a49.51,49.51,0,0,1,0-99V10.22Z" transform="translate(-11.66 -10.22)"/><path id="_Path_3" data-name="&lt;Path&gt;" class="cls-2" d="M75.09,106.14a31.19,31.19,0,0,1,0-62.18V28.3a47,47,0,0,0-45.56,47h0c0,25.28,20.5,45.86,45.55,47Z" transform="translate(-11.66 -10.22)"/><rect class="cls-1" x="68.52" y="31.6" width="1.44" height="2.21" rx="0.33" ry="0.33"/><path class="cls-2" d="M203.7,140.1c-8.54,0-14-7-14-17s5.43-17,14-17c5.38,0,9,2.17,11.23,6.18l-4.39,2.74c-1.7-2.69-3.45-4-6.84-4-5.76,0-8.87,4.67-8.87,12.08s3.11,12.08,8.87,12.08A7.86,7.86,0,0,0,211,131l4.11,2.74A12.59,12.59,0,0,1,203.7,140.1Z" transform="translate(-11.66 -10.22)"/><path class="cls-2" d="M241.23,140.1c-8.35,0-14-6.7-14-17S233,106,241.32,106s14.07,6.7,14.07,17S249.63,140.1,241.23,140.1Zm0-29.17c-5.24,0-8.92,4.58-8.92,12.08s3.82,12.18,9.11,12.18,9-4.58,9-12.08S246.47,110.93,241.18,110.93Z" transform="translate(-11.66 -10.22)"/><path class="cls-2" d="M294.75,139.58V122.12c0-2,0-4.86.09-5.81-.38.94-1.32,3.3-2.12,5.19l-8,18.6-7.93-18.6c-.8-1.89-1.75-4.25-2.12-5.19,0,.94.09,3.82.09,5.81v17.46h-4.67v-33h5.1l7.41,17.61c.8,1.89,1.84,4.29,2.27,5.66.47-1.37,1.42-3.73,2.22-5.66l7.27-17.61h5.29v33Z" transform="translate(-11.66 -10.22)"/><path class="cls-2" d="M340.58,139.58V122.12c0-2,0-4.86.09-5.81-.38.94-1.32,3.3-2.12,5.19l-8,18.6-7.93-18.6c-.8-1.89-1.75-4.25-2.12-5.19,0,.94.1,3.82.1,5.81v17.46h-4.67v-33H321l7.41,17.61c.8,1.89,1.84,4.29,2.27,5.66.47-1.37,1.42-3.73,2.22-5.66l7.27-17.61h5.29v33Z" transform="translate(-11.66 -10.22)"/><path class="cls-2" d="M373.9,140.1c-8.17,0-12.41-5.29-12.41-14.4V106.54h5v19c0,6.23,2.6,9.58,7.55,9.58,5.19,0,7.65-3.21,7.65-9.25V106.54h5V125.8C386.59,135.05,382.11,140.1,373.9,140.1Z" transform="translate(-11.66 -10.22)"/><path class="cls-2" d="M423,139.58l-13.17-20.72c-.8-1.23-1.94-3.21-2.45-4.06,0,1.23,0,5.81,0,7.65v17.13h-4.81v-33h5.05l12.56,20.15c.85,1.37,2.27,3.82,2.74,4.67,0-1.23,0-5.95,0-7.79v-17h4.81v33Z" transform="translate(-11.66 -10.22)"/><path class="cls-2" d="M444.27,139.58v-33h5v33Z" transform="translate(-11.66 -10.22)"/><path class="cls-2" d="M478.25,111.41v28.18h-5V111.41h-9.63v-4.86h24.21v4.86Z" transform="translate(-11.66 -10.22)"/><path class="cls-2" d="M516.53,126.51v13.07h-5V126.51l-11.85-20h5.81l5.15,9.11c1.13,2,2.83,5.33,3.4,6.56.57-1.23,2.22-4.39,3.4-6.51l5.19-9.16h5.71Z" transform="translate(-11.66 -10.22)"/><path class="cls-2" d="M575.14,140.1c-8.54,0-14-7-14-17s5.43-17,14-17c5.38,0,9,2.17,11.23,6.18L582,114.95c-1.7-2.69-3.45-4-6.84-4-5.76,0-8.87,4.67-8.87,12.08s3.11,12.08,8.87,12.08a7.86,7.86,0,0,0,7.27-4.11l4.11,2.74A12.59,12.59,0,0,1,575.14,140.1Z" transform="translate(-11.66 -10.22)"/><path class="cls-2" d="M612.67,140.1c-8.35,0-14-6.7-14-17S604.41,106,612.76,106s14.07,6.7,14.07,17S621.07,140.1,612.67,140.1Zm0-29.17c-5.24,0-8.92,4.58-8.92,12.08s3.82,12.18,9.11,12.18,9-4.58,9-12.08S617.91,110.93,612.62,110.93Z" transform="translate(-11.66 -10.22)"/><path class="cls-2" d="M641.5,139.58v-33h5v28.18h16.47v4.86Z" transform="translate(-11.66 -10.22)"/><path class="cls-2" d="M677.28,139.58v-33h5v28.18h16.47v4.86Z" transform="translate(-11.66 -10.22)"/><path class="cls-2" d="M713.05,139.58v-33h21.29v4.82H718v8.17h9.49v4.81H718v10.43h17v4.81Z" transform="translate(-11.66 -10.22)"/><path class="cls-2" d="M760.63,140.1c-8.54,0-14-7-14-17s5.43-17,14-17c5.38,0,9,2.17,11.23,6.18l-4.34,2.69c-1.7-2.69-3.49-3.92-6.89-3.92-5.76,0-8.92,4.67-8.92,12.08s3.16,12.08,8.92,12.08c5.38,0,7.51-3.54,7.51-7.41v-.14h-5.38v-4.77h10.43v3.82C773.18,135.15,768,140.1,760.63,140.1Z" transform="translate(-11.66 -10.22)"/><path class="cls-2" d="M787,139.58v-33h21.29v4.82H791.91v8.17h9.49v4.81h-9.49v10.43h17v4.81Z" transform="translate(-11.66 -10.22)"/><path class="cls-1" d="M225.86,95.78,222.68,92c-3.07,1.85-6.66,2.59-10.95,2.59-12.8,0-22.05-9.1-22.05-22,0-12.06,10.58-20.52,22.05-20.52,12.43,0,22.05,8.41,22.05,21.36a21.7,21.7,0,0,1-5.13,14l6.72,6.82Zm-4.71-16.39A10.29,10.29,0,0,0,223,73.52a11.46,11.46,0,0,0-11.21-11.37c-6.19,0-11.32,5-11.32,10.52,0,6.87,5.13,11.9,11.32,11.9A9.51,9.51,0,0,0,215,84l-6.4-6.35,9.78-1.22Z" transform="translate(-11.66 -10.22)"/><path class="cls-1" d="M281.92,53.42V75.84c0,5.13-.21,10.21-4.18,14.07-3.33,3.28-8.57,4.44-13.22,4.44s-9.89-1.16-13.22-4.44c-4-3.86-4.18-8.94-4.18-14.07V53.42h10.36v21c0,5.18.37,10.84,7,10.84s7-5.66,7-10.84v-21Z" transform="translate(-11.66 -10.22)"/><path class="cls-1" d="M307.57,62.2v6.66h11.69v8.78H307.57v6.87h12.32v8.78H297.21V53.42h22.69V62.2Z" transform="translate(-11.66 -10.22)"/><path class="cls-1" d="M345.39,62.2v6.66h11.69v8.78H345.39v6.87h12.32v8.78H335V53.42h22.69V62.2Z" transform="translate(-11.66 -10.22)"/><path class="cls-1" d="M372.84,53.42H383.2l19,24.38h.11V53.42h10.36V93.29H402.29l-19-24.43h-.11V93.29H372.84Z" transform="translate(-11.66 -10.22)"/><path class="cls-1" d="M450.05,63.68A10.9,10.9,0,0,0,443.18,61c-1.9,0-4.44,1.11-4.44,3.33s2.8,3.23,4.6,3.81L446,69c5.55,1.64,9.84,4.44,9.84,10.89,0,4-1,8-4.12,10.73a17.49,17.49,0,0,1-11.32,3.75,24.6,24.6,0,0,1-14-4.55l4.44-8.36c2.59,2.27,5.66,4.12,9.2,4.12,2.43,0,5-1.22,5-4S441,77.64,438.74,77c-6.5-1.85-10.79-3.54-10.79-11.26,0-8.09,5.76-13.38,13.75-13.38a27.27,27.27,0,0,1,12.48,3.28Z" transform="translate(-11.66 -10.22)"/><path class="cls-1" d="M469.47,93.29V53.42h14.81c7.09,0,11.85,2.75,11.85,10.36,0,3.6-1.16,6.5-4.39,8.14V72c5.71.74,8.14,4.6,8.14,10.15,0,8.36-7.14,11.1-14.44,11.1Zm10.36-24.22H481c2.75,0,5.61-.48,5.61-3.86,0-3.65-3.23-3.86-6-3.86h-.74Zm0,16.29h1.32c3.07,0,8.25.16,8.25-4.23,0-4.81-5.13-4.34-8.51-4.34h-1.06Z" transform="translate(-11.66 -10.22)"/><path class="cls-1" d="M556.09,72.62c0,12.9-9.25,22-22.05,22S512,85.52,512,72.62C512,60.56,522.56,52.1,534,52.1S556.09,60.56,556.09,72.62Zm-33.31.05c0,6.87,5.08,11.9,11.26,11.9s11.26-5,11.26-11.9c0-5.5-5.08-10.52-11.26-10.52S522.77,67.17,522.77,72.67Z" transform="translate(-11.66 -10.22)"/><path class="cls-1" d="M602.79,93.29h-12.9L580.11,78H580V93.29H569.63V53.42h15.49C593,53.42,599,57.17,599,65.69c0,5.5-3.07,10.26-8.73,11.26ZM580,71.29h1c3.38,0,7.19-.63,7.19-5s-3.81-5-7.19-5h-1Z" transform="translate(-11.66 -10.22)"/><path class="cls-1" d="M656.42,72.62c0,12.9-9.25,22-22.05,22s-22.05-9.1-22.05-22c0-12.06,10.58-20.52,22.05-20.52S656.42,60.56,656.42,72.62Zm-33.31.05c0,6.87,5.08,11.9,11.26,11.9s11.26-5,11.26-11.9c0-5.5-5.08-10.52-11.26-10.52S623.1,67.17,623.1,72.67Z" transform="translate(-11.66 -10.22)"/><path class="cls-1" d="M704.55,53.42V75.84c0,5.13-.21,10.21-4.18,14.07-3.33,3.28-8.57,4.44-13.22,4.44s-9.89-1.16-13.22-4.44c-4-3.86-4.18-8.94-4.18-14.07V53.42h10.36v21c0,5.18.37,10.84,7,10.84s7-5.66,7-10.84v-21Z" transform="translate(-11.66 -10.22)"/><path class="cls-1" d="M759.6,71c-.11,5.82-.53,10.79-4.07,15.76-3.91,5.45-9.78,7.83-16.45,7.83-12.53,0-21.26-8.51-21.26-21,0-13,8.78-21.47,21.63-21.47,8.2,0,14.54,3.7,18,11.16l-9.84,4.12C746.17,63.57,743.16,61,739,61c-6.82,0-10.36,6.5-10.36,12.59s3.7,12.48,10.52,12.48c4.49,0,7.93-2.33,8.36-6.93H739V71Z" transform="translate(-11.66 -10.22)"/><path class="cls-1" d="M798.43,68.81V53.42h10.36V93.29H798.43V77h-15V93.29H773.1V53.42h10.36V68.81Z" transform="translate(-11.66 -10.22)"/><polygon class="cls-1" points="885.18 85.93 885.18 109.12 864.5 85.93 853.81 85.93 853.81 85.93 853.81 129.2 865.71 129.2 865.71 106.01 886.1 129.2 897.08 129.2 897.08 85.93 885.18 85.93"/><path class="cls-1" d="M952,78V69h0V53.86H940.1V78a8,8,0,0,1-.5,2.89,7.18,7.18,0,0,1-2.1,2.92,11.25,11.25,0,0,1-7.12,2.51h0a11.25,11.25,0,0,1-7.12-2.51,7.18,7.18,0,0,1-2.1-2.92,8,8,0,0,1-.5-2.89V53.86h-11.9V69h0V80.87h0c0,9.57,10.33,17.17,21.07,17.32h1.1C941.66,98,952,90.66,952,80.87h0Z" transform="translate(-11.66 -10.22)"/><path class="cls-1" d="M895.78,80.87a11,11,0,0,1-9.27,5.41h-.15a11.35,11.35,0,0,1,0-22.69h.15A11,11,0,0,1,895.78,69h13c0-9.76-10.28-17.13-21-17.32h-2.05a23.25,23.25,0,0,0-23.26,23.25h0a23.25,23.25,0,0,0,23.26,23.25h2.05c10.72-.19,21-7.56,21-17.32Z" transform="translate(-11.66 -10.22)"/><polygon class="cls-1" points="928.44 85.93 918.71 105.78 908.97 85.93 897.08 85.93 912.76 117.91 912.76 129.2 924.66 129.2 924.66 117.91 940.34 85.93 928.44 85.93"/><line class="cls-3" x1="825.05" y1="43.11" x2="825.05" y2="129.38"/></svg>