<?xml version="1.0" encoding="UTF-8" standalone="no"?>
<svg xmlns:rdf="http://www.w3.org/1999/02/22-rdf-syntax-ns#" xmlns="http://www.w3.org/2000/svg" xml:space="preserve" height="39.825" viewBox="0 0 235.25 39.825192" width="235.25" version="1.1" xmlns:cc="http://creativecommons.org/ns#" xmlns:dc="http://purl.org/dc/elements/1.1/"><g transform="matrix(1.25 0 0 -1.25 -247.94 512.37)"><g transform="matrix(.75 0 0 .75 73.859 99.001)"><path d="m15.523 0c-0.139 0-0.251 0.11325-0.337 0.36523l-0.28 0.95317c-2.8624 0.36625-5.472 0.53516-7.8281 0.53516h-2.9727c-2.0488 0-3.1988-0.19922-3.4785-0.19922-0.309 0-0.44922 0.085-0.44922 0.28125 0 0.36475 0.89822 0.5333 2.6934 0.73242 0.16774 1.7096 0.19727 3.5055 0.19727 5.3848v7.3496c0 1.9072-0.029503 3.7046-0.19727 5.4141-1.7951 0.19762-2.6934 0.36559-2.6934 0.73047 0 0.19475 0.14022 0.25195 0.44922 0.25195 0.27975 0 1.4298-0.19727 3.4785-0.19727 2.496 0 3.7877 0.19727 4.0117 0.19727 0.309 0 0.44922-0.05725 0.44922-0.25195 0-0.39262-1.0673-0.56359-3.2266-0.73047-0.16762-1.7945-0.19727-3.5918-0.19727-5.4141v-3.5625h3.1152c2.2434 0 4.1513 0.22266 5.666 0.64453l0.14062 0.98242c0.142 1.068 0.16819 1.5449 0.47656 1.5449 0.13988 0 0.22461-0.14209 0.22461-0.33984 0-0.42038-0.16797-1.4302-0.16797-3.002 0-1.7095 0.25195-2.7474 0.25195-3.0566 0-0.22412-0.05537-0.33594-0.16797-0.33594-0.33625 0-0.36497 0.47725-0.58984 1.5156l-0.16797 0.75586c-1.5711 0.4205-3.4783 0.61719-5.666 0.61719h-3.1152v-3.1133c0-1.8224 0.029616-3.5903 0.19727-5.3848 1.0109-0.11275 1.8784-0.16992 2.6094-0.16992 2.8885 0 5.246 0.36377 6.7871 0.86914l0.25391 1.8242c0.08513 0.5595 0.1392 0.86719 0.39258 0.86719 0.13913 0 0.22266-0.13527 0.22266-0.30664 0-0.19488-0.10938-1.0941-0.10938-2.666 0-1.4868 0.22266-2.4102 0.22266-2.7207 0-0.25197-0.027-0.3652-0.196-0.3652zm216.58 0.27344c-0.1365 0-0.24804 0.10837-0.33204 0.35742l-0.27 0.93754c-2.8125 0.35888-5.3774 0.52344-7.6934 0.52344h-2.9199c-2.0145 0-3.1439-0.19141-3.4199-0.19141-0.3045 0-0.44141 0.082003-0.44141 0.27539 0 0.3575 0.87949 0.52355 2.6465 0.7168 0.1635 1.6789 0.1914 3.4457 0.1914 5.293v7.2227c0 1.8735-0.0279 3.6357-0.1914 5.3203-1.767 0.19188-2.6465 0.35734-2.6465 0.71484 0 0.19475 0.13691 0.25195 0.44141 0.25195 0.3855 0 1.4327-0.19336 3.1172-0.19336h2.1758c3.252 0 6.2049 0.1627 8.9004 0.43945l0.22461 0.49609c0.081 0.24762 0.16623 0.38672 0.30273 0.38672 0.165 0 0.19336-0.13909 0.19336-0.38672 0-0.164-0.19336-0.93697-0.19336-2.3711 0-1.5439 0.13672-2.4244 0.13672-2.6191 0-0.192-0.10675-0.30274-0.2207-0.30274-0.2475 0-0.30332 0.2753-0.38282 0.82617l-0.24804 1.6016c-2.0145 0.77188-4.5776 1.2109-7.5566 1.2109-0.6075 0-1.2104-0.02694-1.8164-0.05469-0.168-1.7638-0.19336-3.5289-0.19336-5.3203v-3.502h3.0606c2.2005 0 4.0754 0.22014 5.5664 0.63477l0.13672 0.96484c0.1395 1.0488 0.16771 1.5137 0.4707 1.5137 0.1365 0 0.22071-0.136 0.22071-0.32812 0-0.41438-0.16797-1.4053-0.16797-2.9492 0-1.6845 0.24805-2.7025 0.24805-3.0059 0-0.22262-0.0516-0.33203-0.16407-0.33203-0.327 0-0.35957 0.46878-0.58007 1.4883l-0.16407 0.74414c-1.545 0.41462-3.4184 0.60742-5.5664 0.60742h-3.0606v-3.0586c0-1.7916 0.0254-3.5307 0.19336-5.293 0.993-0.11275 1.8455-0.16602 2.5625-0.16602 2.841 0 5.1558 0.35702 6.6738 0.85352l0.24414 1.791c0.081 0.55211 0.14072 0.85547 0.38672 0.85547 0.1365 0 0.2207-0.13561 0.2207-0.30273 0-0.19462-0.10938-1.0748-0.10938-2.6172 0-1.4619 0.2168-2.3725 0.2168-2.6758 0-0.249-0.0219-0.35742-0.1914-0.35742zm43.424 0c-0.1125 0-0.2207 0.1095-0.2207 0.30273 0 0.38675 0.2207 1.295 0.2207 2.7305 0 1.5704-0.11132 2.4226-0.11132 2.6172 0 0.16712 0.0851 0.30273 0.2246 0.30273 0.2475 0 0.30032-0.30334 0.38282-0.85547l0.25-1.791c1.542-0.4965 3.552-0.80078 5.9805-0.80078h0.33203c0.165 1.6831 0.19531 3.477 0.19531 5.4062v7.2227c0 1.8735-0.0303 3.6357-0.19531 5.3203-2.0655 0.16538-3.1152 0.33109-3.1152 0.71484 0 0.19475 0.13691 0.25195 0.44141 0.25195 0.3855 0 1.6813-0.22266 3.8848-0.22266 2.208 0 3.5051 0.22266 3.8906 0.22266 0.3015 0 0.44141-0.05725 0.44141-0.25195 0-0.38375-1.0487-0.54947-3.1172-0.71484-0.1665-1.7638-0.19336-3.5289-0.19336-5.3203v-7.2227c0-1.8472 0.0269-3.6411 0.19336-5.4062h0.33203c2.451 0 4.4643 0.30428 6.0078 0.80078l0.22266 1.791c0.0795 0.55211 0.13726 0.85547 0.38476 0.85547 0.135 0 0.22266-0.13561 0.22266-0.30273 0-0.19462-0.10937-1.0748-0.10937-2.6172 0-1.4619 0.21875-2.3725 0.21875-2.6758 0-0.249-0.0263-0.35742-0.19727-0.35742-0.135 0-0.21469 0.10837-0.30469 0.35742l-0.29883 0.9375c-2.8395 0.35888-5.4314 0.52344-7.6934 0.52344-2.2605 0-4.8485-0.16456-7.6895-0.52344l-0.27-0.93724c-0.08-0.249-0.16-0.35742-0.3-0.35742zm-171.23 0.54101-2.33 0.98245c0.56 1.0091 1.03 2.0463 1.51 3.1406l-4.3184 10.549c-0.8145 1.9629-1.5999 3.7305-2.4414 5.3301-1.715 0.189-2.604 0.352-2.682 0.684-0.078-0.332-0.964-0.495-2.677-0.684-0.167-1.794-0.196-3.591-0.196-5.414v-7.3496c0-1.8224 0.02887-3.5903 0.19531-5.3848 1.7955-0.19912 2.6934-0.36767 2.6934-0.73242 0-0.19625-0.11199-0.28125-0.41797-0.28125-0.507 0-1.7143 0.25391-3.5098 0.25391-1.797 0-2.975-0.25391-3.4805-0.25391-0.306 0-0.44727 0.085-0.44727 0.28125 0 0.36475 0.89936 0.5333 2.6934 0.73242 0.1695 1.5147 0.19531 3.2826 0.19531 5.3848v3.4512h-10.324v-3.4512c0-1.8224 0.02887-3.5903 0.19727-5.3848 1.796-0.19912 2.6934-0.36767 2.6934-0.73242 0-0.19625-0.13934-0.28125-0.44922-0.28125-0.50612 0-1.6819 0.25391-3.4785 0.25391-1.7944 0-2.9724-0.25391-3.4785-0.25391-0.309 0-0.44726 0.085-0.44726 0.28125 0 0.36475 0.89641 0.5333 2.6914 0.73242 0.17 1.7096 0.19727 3.5055 0.19727 5.3848v7.3496c0 1.9072-0.02725 3.7046-0.19727 5.4141-1.795 0.19762-2.6914 0.36559-2.6914 0.73047 0 0.19475 0.13826 0.25195 0.44726 0.25195 0.53475 0 1.6841-0.22461 3.4785-0.22461 1.7966 0 2.9453 0.22461 3.4785 0.22461 0.30988 0 0.44922-0.05725 0.44922-0.25195 0-0.36488-0.89736-0.53284-2.6934-0.73047-0.16838-1.7945-0.19727-3.5918-0.19727-5.4141v-3.2539h10.324v3.2539c0 1.8515-0.02575 3.6459-0.19531 5.4141-1.794 0.19762-2.6934 0.36559-2.6934 0.73047 0 0.19475 0.14127 0.25195 0.44727 0.25195 0.5325 0 1.6835-0.22461 3.4805-0.22461 1.7955 0 2.9743 0.22461 3.5098 0.22461 0.2554 0 0.36943-0.0455 0.40234-0.17188 0.03338 0.12642 0.1503 0.17188 0.4082 0.17188 0.5325 0 1.7093-0.22461 3.5078-0.22461 1.599 0 2.6917 0.22461 3.2812 0.22461 0.309 0 0.44922-0.05725 0.44922-0.25195 0-0.39262-1.0959-0.58997-3.2559-0.73047 0.4515-1.8501 0.84369-3.227 1.1797-4.125l0.53516-1.459h7.5723l0.67383 1.5996c0.4755 1.207 1.0105 2.5238 1.375 3.9844-2.16 0.16688-3.2559 0.33784-3.2559 0.73047 0 0.19475 0.14217 0.25195 0.45117 0.25195 0.42 0 1.7088-0.22461 3.8418-0.22461 1.958 0 3.077 0.15151 3.627 0.19531 0.06 0.01 0.103 0.0293 0.1875 0.0293 0.0181 0 0.0517-0.0046 0.0703-0.0059 0.0125 0.000337 0.0613 0.0059 0.0723 0.0059 0.0893 0 0.1356-0.01963 0.19727-0.03125 0.64975-0.04537 1.5307-0.19336 2.7188-0.19336 1.8255 0 2.976 0.22461 3.4785 0.22461 0.309 0 0.44922-0.05725 0.44922-0.25195 0-0.36488-0.9818-0.56359-3.0293-0.73047-0.0285-0.72962-0.0293-1.4301-0.0293-2.1582 0-2.1621 0.0862-4.3214 0.28125-6.5098l0.5332-5.9492 6.0586 12.459c0.141 0.27688 0.19619 0.44727 0.36719 0.44727 0.195 0 0.27963-0.13969 0.39063-0.47656l5.58-15.43 0.95 12.512c0.114 1.4032 0.17383 2.6939 0.17383 3.8438 0 0.44987-0.00085 0.87347-0.0293 1.2617-1.9635 0.16688-2.918 0.36559-2.918 0.73047 0 0.19475 0.11087 0.25195 0.41992 0.25195 0.534 0 1.7128-0.22461 3.5098-0.22461 1.794 0 2.9415 0.22461 3.4785 0.22461 0.3075 0 0.44727-0.05725 0.44727-0.25195 0-0.33562-0.78392-0.47409-2.3574-0.73047-0.366-2.0758-0.56063-4.0384-0.70313-5.8359l-0.9-12.313c1.4595-0.2825 2.1894-0.4218 2.1894-0.73242 0-0.19625-0.13872-0.28125-0.44922-0.28125-0.222 0-1.0073 0.14258-2.3828 0.14258-0.336 0-0.86796-0.0013-1.627-0.029297l-5.1934 14.195-4.6524-9.5078c-0.4215-0.87025-1.123-2.4434-2.0215-4.6875-0.42 0.028-0.7836 0.029297-1.1211 0.029297-1.374 0-2.1609-0.14258-2.3574-0.14258-0.3075 0-0.44922 0.085-0.44922 0.28125 0 0.33688 0.44877 0.28072 1.0098 0.44922 0.897 0.2825 1.406 1.149 2.0195 2.6094l-0.72656 7.4316c-0.3945 3.9025-0.89996 6.7368-1.377 8.3906-0.93191 0.12564-1.5798 0.23517-1.9961 0.36328-0.43704-0.13919-1.1394-0.24856-2.1816-0.36328-0.7845-1.4019-1.5151-3.0316-2.2441-4.7969l-3.2559-7.7148c-1.3755-3.2535-2.3007-5.7501-2.7207-7.4902zm160.86 0.064453c-0.2505 0-0.30351 0.16445-0.41601 0.4707l-0.46875 1.377c-1.71-0.77188-3.364-1.1309-4.8535-1.1309-3.966 0-6.7207 2.6192-6.7207 6.3984 0 2.8374 1.71 4.4331 5.2305 4.959 2.5155 0.38675 4.4423 0.49759 5.8223 1.4336 0.6315 0.441 0.96094 1.1303 0.96094 2.0664 0 2.373-2.23 4.4961-5.209 4.4961-1.9005 0-3.8588-0.85658-5.8418-2.5645-0.3615-2.732-0.49881-4.0801-0.88282-4.0801-0.1935 0-0.24609 0.16555-0.24609 0.49805 0 0.46875 0.13672 1.4062 0.13672 2.7832 0 2.8417-0.44336 4.436-0.44336 4.8242 0 0.164 0.081 0.24805 0.25195 0.24805 0.192 0 0.27436-0.16562 0.38086-0.46875l0.46875-1.3789c1.767 0.79838 3.4182 1.1855 4.9902 1.1855 4.275 0 7.2793-2.8951 7.2793-6.6992 0-1.7915-0.7997-3.2231-2.0957-3.8047-1.401-0.63438-2.9513-0.773-4.4648-1.0469-3.7815-0.66062-5.5684-1.1026-5.5684-3.4727 0-2.2619 2.1763-4.2988 5.1523-4.2988 2.0145 0 3.8331 0.76847 5.3496 2.2305 0.138 2.0948 0.18997 3.0586 0.60547 3.0586 0.1935 0 0.27734-0.1655 0.27734-0.46875 0-0.30312-0.0566-0.77097-0.0566-1.4023 0-2.8681 0.55078-4.4956 0.55078-4.9629 0-0.16562-0.0275-0.25-0.18945-0.25zm-237.76 0.4688c-3.7874 0-7.1827 1.9376-8.9199 4.9082-1.0371 1.7959-1.543 3.6757-1.543 5.7793 0 2.9192 0.98116 5.3593 2.832 7.1816 1.9644 1.9116 4.4343 2.9199 7.3223 2.9199 3.3676 0 6.2006-1.291 8.1641-3.7051 1.6004-1.9365 2.4121-4.2915 2.4121-6.9004 0-3.0849-1.1199-5.7501-3.1699-7.6016-1.9045-1.7124-4.2918-2.582-7.0977-2.582zm36.441 0.2793c-1.5148 0-3.0846 0.28125-4.7676 0.28125-1.823 0-2.978-0.25391-3.4805-0.25391-0.30688 0-0.44922 0.085-0.44922 0.28125 0 0.36475 0.90048 0.5333 2.6934 0.73242 0.17 1.7096 0.19531 3.5051 0.19531 5.4121v7.3223c0 1.9072-0.02538 3.7046-0.19531 5.4141-1.7929 0.19762-2.6934 0.36559-2.6934 0.73047 0 0.19475 0.14234 0.25195 0.44922 0.25195 0.5025 0 1.6838-0.22461 3.4805-0.22461 1.5131 0 3.0297 0.22461 4.543 0.22461 6.1464 0 10.213-4.0972 10.213-10.184 0-6.1157-3.8719-9.9883-9.9883-9.9883zm-26.145 0.027344c-0.30988 0-0.44922 0.085-0.44922 0.28125 0 0.36475 0.89824 0.5333 2.6934 0.73242 0.168 1.7096 0.196 3.5055 0.196 5.3847v7.3223c0 1.9058-0.02763 3.7016-0.19531 5.4141-1.7951 0.19325-2.6934 0.36389-2.6934 0.72852 0 0.19638 0.13934 0.25195 0.44922 0.25195 0.53175 0 1.6826-0.22266 3.4785-0.22266 1.9915 0 3.2556 0.22266 3.7031 0.22266 0.282 0 0.41992-0.05563 0.41992-0.25195 0-0.36462-0.95142-0.56164-2.8887-0.72852-0.16762-1.7975-0.19727-3.5932-0.19727-5.4141v-7.3223c0-1.8224 0.02963-3.5903 0.19727-5.3848 1.122-0.19912 2.0466-0.31055 2.8047-0.31055 3.4496 0 5.668 2.1303 5.668 5.1055 0 2.9736-1.9923 4.459-5.9473 4.459-0.67462 0-1.1506-0.11133-1.459-0.11133-0.22412 0-0.42188 0.14152-0.42188 0.33789 0 0.25187 0.22522 0.44881 0.44922 0.75781l4.9355 6.9297c1.0392 1.4296 1.7416 2.2715 3.0879 2.2715 1.6002 0 3.0293-1.0642 3.0293-1.4023 0-0.14225-0.08424-0.22461-0.22266-0.22461-0.28275 0-0.76033 0.33594-1.377 0.33594-0.86938 0-1.3752-0.6173-2.1875-1.6543l-5.1621-6.6484c4.6598-0.31038 7.3496-2.8053 7.3496-5.9473 0-2.8887-2.4674-4.8809-6.7324-4.8809-1.7944 0-3.5048 0.22266-5.0488 0.22266-1.7959 0-2.9761-0.25391-3.4785-0.25391zm110.14 0.2461c-0.30149 0-0.4414 0.082003-0.4414 0.27539 0 0.3575 0.91028 0.52355 2.6758 0.7168v9.9766c0 2.732 0.0274 4.7164 0.88086 6.2324 1.047 1.8471 3.1698 2.9219 6.0918 2.9219 3.144 0 5.3488-1.1841 6.4258-3.3066 0.8265-1.6554 0.825-3.6136 0.9375-6.0117l0.13672-3.1152c0.138-3.1685 0.2209-5.4023 0.4414-6.6973 1.4895-0.2505 2.2344-0.38853 2.2344-0.7168 0-0.19336-0.11113-0.27539-0.41406-0.27539-0.38701 0-1.381 0.19141-2.9785 0.19141-1.6005 0-2.5911-0.19141-2.9766-0.19141-0.306 0-0.44141 0.082003-0.44141 0.27539 0 0.3575 0.93645 0.52355 2.8144 0.7168 0.357 2.0932 0.51954 4.3268 0.51954 6.6426v2.8125c0 2.5898-0.13654 4.52-0.76954 5.9277-0.9105 2.0128-2.8118 3.1133-5.5703 3.1133-3.969 0-5.3203-2.0116-5.3203-6.834 0-0.33112 0.0273-0.69145 0.0273-1.0488l0.38672-10.613c1.764-0.19325 2.6484-0.3593 2.6484-0.7168 0-0.19336-0.13991-0.27539-0.44141-0.27539-0.498 0-1.6574 0.24805-3.4199 0.24805-1.764 0-2.9493-0.24805-3.4473-0.24805zm20.455 0c-0.2745 0-0.43945 0.082003-0.43945 0.27539 0 0.3575 1.2682 0.19078 2.6992 2.1758v9.9531c0 3.0059-0.24583 5.1801-0.54883 6.4238-1.5435 0.246-2.2871 0.38672-2.2871 0.71484 0 0.19475 0.13611 0.25195 0.41211 0.25195 0.6045 0 1.5989-0.22266 2.9219-0.22266 1.71 0 2.7848 0.22266 3.2812 0.22266 0.276 0 0.4414-0.05725 0.4414-0.25195 0-0.38375-1.0202-0.54947-3.0332-0.71484-0.303-1.8194-0.49609-4.1909-0.49609-7.0605v-8.5176l12.463 16.404c0.246 0.32975 0.44012 0.46875 0.57812 0.46875 0.135 0 0.13477-0.08063 0.13477-0.24609v-0.19531-9.6484c0-3.9713 0.13909-6.974 0.49609-9.041 1.656-0.19325 2.4824-0.3593 2.4824-0.7168 0-0.19336-0.13611-0.27539-0.41211-0.27539-0.579 0-1.5715 0.24805-2.8945 0.24805-1.71 0-2.787-0.24805-3.252-0.24805-0.2775 0-0.41602 0.082003-0.41602 0.27539 0 0.3575 0.93635 0.54992 2.8398 0.7168 0.2775 1.5704 0.44336 3.9434 0.44336 7.166v7.8828l-12.162-15.906c-0.33 0-0.63025 0.029297-0.90625 0.029297-1.464 0-2.2077-0.16406-2.3457-0.16406zm20.293 0c-0.3045 0-0.4414 0.082003-0.4414 0.27539 0 0.35751 0.88248 0.52355 2.6465 0.7168 0.165 1.6789 0.19141 3.4457 0.19141 5.293v7.2227c0 1.8735-0.0264 3.6357-0.19141 5.3203-1.764 0.19188-2.6465 0.35734-2.6465 0.71484 0 0.19475 0.1369 0.25195 0.4414 0.25195 0.5235 0 1.652-0.22266 3.416-0.22266s2.8975 0.22266 3.418 0.22266c0.306 0 0.4414-0.05725 0.4414-0.25195 0-0.3575-0.88158-0.52297-2.6426-0.71484-0.165-1.7638-0.19531-3.5289-0.19531-5.3203v-7.2227c0-1.7916 0.0303-3.5307 0.19531-5.293 1.761-0.19325 2.6426-0.35928 2.6426-0.7168 0-0.19336-0.1354-0.27539-0.4414-0.27539-0.495 0-1.654 0.24805-3.418 0.24805s-2.9195-0.24805-3.416-0.24805zm8.1309 0c-0.3015 0-0.43945 0.082003-0.43945 0.27539 0 0.30339 0.68711 0.44005 2.0371 0.7168l7.6094 18.717c0.1125 0.24912 0.16438 0.41406 0.35938 0.41406 0.084 0 0.2749-0.22009 0.4414-0.60547l4.8242-11.494c0.993-2.3718 1.9858-4.7446 3.0312-7.0312 1.2975-0.30612 1.9316-0.41341 1.9316-0.7168 0-0.19336-0.13886-0.27539-0.44336-0.27539-0.384 0-1.239 0.16406-2.5605 0.16406-1.3245 0-2.179-0.16406-2.5645-0.16406-0.3045 0-0.44336 0.082003-0.44336 0.27539 0 0.32826 0.74718 0.4663 2.2637 0.7168-0.909 3.9141-2.0714 7.5528-3.4199 10.723l-2.4258 5.7617-6.3418-16.484c1.5165-0.2505 2.2637-0.38853 2.2637-0.7168 0-0.19337-0.13841-0.27539-0.44141-0.27539-0.6615 0-1.6016 0.24805-2.7852 0.24805-1.2675 0-2.262-0.24805-2.8965-0.24805zm37.816 0c-0.3045 0-0.43946 0.082003-0.43946 0.27539 0 0.35751 0.88054 0.52355 2.6445 0.7168 0.1665 1.6789 0.19336 3.4457 0.19336 5.293v7.1934c0 1.875-0.0269 3.6391-0.19336 5.3223-1.764 0.19338-2.6445 0.35955-2.6445 0.7168 0 0.192 0.13496 0.24805 0.43946 0.24805 0.5235 0 1.6555-0.22266 3.418-0.22266 1.959 0 3.1992 0.22266 3.6387 0.22266 0.276 0 0.41406-0.05601 0.41406-0.24805 0-0.35725-0.93889-0.5513-2.8379-0.7168-0.168-1.7665-0.19336-3.5293-0.19336-5.3223v-7.1934c0-1.7916 0.0254-3.5307 0.19336-5.293 1.0995-0.19325 2.0064-0.30664 2.752-0.30664 3.3945 0 5.5723 2.0988 5.5723 5.0195 0 2.9239-1.9568 4.3867-5.8418 4.3867-0.6675 0-1.1326-0.11328-1.4356-0.11328-0.22199 0-0.41406 0.13762-0.41406 0.32812 0 0.2505 0.22196 0.44434 0.43946 0.74609l4.8535 6.8105c1.0185 1.4062 1.7082 2.2324 3.0312 2.2324 1.575 0 2.9746-1.0475 2.9746-1.377 0-0.13925-0.0757-0.22266-0.2168-0.22266-0.276 0-0.74361 0.33203-1.3496 0.33203-0.8565 0-1.3554-0.60583-2.1504-1.627l-5.0723-6.5352c4.575-0.30325 7.2226-2.7545 7.2226-5.8437 0-2.8361-2.4281-4.7949-6.6191-4.7949-1.7625 0-3.4414 0.2207-4.9609 0.2207-1.7625 0-2.92-0.24805-3.418-0.24805zm32.818 0c-0.303 0-0.44141 0.082003-0.44141 0.27539 0 0.3575 0.88158 0.52355 2.6426 0.7168 0.168 1.6789 0.19336 3.4457 0.19336 5.293v7.2227c0 1.8735-0.0254 3.6357-0.19336 5.3203-1.761 0.19188-2.6426 0.35734-2.6426 0.71484 0 0.19475 0.13841 0.25195 0.44141 0.25195 0.5235 0 1.649-0.22266 3.416-0.22266 1.764 0 2.8975 0.22266 3.418 0.22266 0.303 0 0.44336-0.05725 0.44336-0.25195 0-0.3575-0.88594-0.52297-2.6484-0.71484-0.165-1.7638-0.1914-3.5289-0.1914-5.3203v-7.2227c0-1.7916 0.0264-3.5307 0.1914-5.293 1.7625-0.19325 2.6484-0.3593 2.6484-0.7168 0-0.19337-0.14036-0.27539-0.44336-0.27539-0.495 0-1.654 0.24805-3.418 0.24805-1.767 0-2.918-0.24805-3.416-0.24805zm26.346 0c-0.3015 0-0.44141 0.082003-0.44141 0.27539 0 0.30339 0.69357 0.44005 2.0391 0.7168l5.5996 9.1504v3.3652c0 1.8735-0.0269 3.6357-0.19336 5.3203-1.7655 0.19188-2.6445 0.35734-2.6445 0.71484 0 0.19475 0.13045 0.25195 0.43945 0.25195 0.5205 0 1.6529-0.22266 3.4199-0.22266 1.7625 0 2.8921 0.22266 3.4141 0.22266 0.3045 0 0.44336-0.05725 0.44336-0.25195 0-0.3575-0.88248-0.52297-2.6465-0.71484-0.165-1.7638-0.19531-3.5289-0.19531-5.3203v-3.5566l3.3379-5.0742c0.9915-1.4883 1.9015-2.8124 2.8105-3.8848 1.29-0.3069 1.92-0.4142 1.92-0.7176 0-0.19336-0.139-0.27539-0.4375-0.27539-0.39 0-1.2414 0.16406-2.5644 0.16406-1.326 0-2.1794-0.16406-2.5664-0.16406-0.303 0-0.44141 0.082003-0.44141 0.27539 0 0.32826 0.77291 0.4663 2.3164 0.7168-0.5535 1.4868-1.2684 2.9203-2.1504 4.2988l-2.5078 3.916-4.9062-8.2148c1.515-0.2505 2.2598-0.38853 2.2598-0.7168 0-0.19336-0.1399-0.27539-0.4414-0.27539-0.5835 0-1.5451 0.2168-2.8711 0.2168-1.458 0-2.4514-0.2168-3.002-0.2168zm-230.62 0.3476c5.2749 0 8.334 3.4756 8.334 9.5371 0 5.8359-3.1447 9.4258-8.1934 9.4258-0.89862 0-1.879-0.13816-2.916-0.39453-0.17075-1.7945-0.19727-3.5918-0.19727-5.4141v-7.3223c0-1.8236 0.0265-3.6176 0.19727-5.4121 0.89575-0.2825 1.8239-0.41992 2.7754-0.41992zm-37.086 0.3614c2.8329 0 5.6403 1.4303 7.7168 4.0391 1.6539 2.1051 2.5234 4.5166 2.5234 6.9863 0 2.4404-1.1218 4.5172-3.2539 6.0039-1.2335 0.84075-2.7222 1.3164-4.3496 1.3164-2.6661 0-5.44-1.4283-7.5742-4.0078-1.7666-2.1636-2.6934-4.6312-2.6934-6.8477 0-4.3197 3.0839-7.4902 7.6309-7.4902zm77.875 3.2012 3.6211 8.7773h-7.0703l3.4492-8.7773z" transform="matrix(.8 0 0 -.8 167.25 413.34)" fill="#8c0031"/><path d="m411.95 388.98h-244.7" stroke="#b31d3f" stroke-width=".65810" fill="none"/><path d="m0.88477 39.443c-0.044 0-0.087891 0.04255-0.087891 0.12305 0 0.15525 0.087891 0.51559 0.087891 1.0898 0 0.63275-0.044922 0.97466-0.044922 1.0508 0 0.06737 0.034219 0.12109 0.089844 0.12109 0.098875 0 0.12055-0.12159 0.1543-0.33984l0.099609-0.71875c0.61888-0.19912 1.423-0.32226 2.3965-0.32226h0.13281c0.06575 0.67375 0.076172 1.3926 0.076172 2.166v2.8945c0 0.7515-0.010172 1.4567-0.076172 2.1289-0.829 0.06887-1.25 0.13381-1.25 0.28906 0 0.07775 0.057312 0.09961 0.17969 0.09961 0.15375 0 0.67177-0.08984 1.5566-0.08984 0.88312 0 1.402 0.08984 1.5566 0.08984 0.1215 0 0.17578-0.02186 0.17578-0.09961 0-0.15525-0.41847-0.22019-1.2461-0.28906-0.067125-0.703-0.078125-1.4125-0.078125-2.1289v-2.8945c0-0.73975 0.011375-1.4571 0.078125-2.166h0.13086c0.98275 0 1.7893 0.12314 2.4082 0.32226l0.087891 0.71875c0.033 0.21825 0.055297 0.33984 0.1543 0.33984 0.054875 0 0.087891-0.05372 0.087891-0.12109 0-0.07612-0.042969-0.43266-0.042969-1.0508 0-0.58312 0.087891-0.94673 0.087891-1.0684 0-0.10238-0.010297-0.14453-0.076172-0.14453-0.054875 0-0.089297 0.04216-0.12305 0.14453l-0.12109 0.37695c-1.1375 0.1435-2.1748 0.20898-3.0801 0.20898-0.906 0-1.9438-0.06548-3.082-0.20898l-0.1094-0.378c-0.03361-0.102-0.06741-0.145-0.12303-0.145zm27.844 0c-0.05487 0-0.09981 0.04216-0.13281 0.14453l-0.11133 0.37695c-1.1265 0.1435-2.1535 0.20898-3.0801 0.20898h-1.1719c-0.8065 0-1.2569-0.08008-1.3691-0.08008-0.12075 0-0.17578 0.03508-0.17578 0.11133 0 0.14475 0.35259 0.21111 1.0586 0.28711 0.0665 0.674 0.07813 1.3813 0.07813 2.1211v2.8945c0 0.7515-0.0115 1.4567-0.07813 2.1289-0.706 0.07775-1.0586 0.14556-1.0586 0.28906 0 0.07775 0.05503 0.09961 0.17578 0.09961 0.15475 0 0.57417-0.07813 1.248-0.07813h0.87305c1.3038 0 2.4839 0.06648 3.5664 0.17773l0.08789 0.19727c0.03375 0.0995 0.06817 0.15625 0.12305 0.15625 0.06625 0 0.07617-0.05675 0.07617-0.15625 0-0.0645-0.07617-0.37439-0.07617-0.94727 0-0.61812 0.05469-0.97303 0.05469-1.0508 0-0.076-0.04327-0.12109-0.08789-0.12109-0.09962 0-0.12067 0.11033-0.1543 0.33008l-0.10156 0.64062c-0.80638 0.30912-1.8323 0.48633-3.0254 0.48633-0.24238 0-0.48539-0.01019-0.72852-0.02344-0.06638-0.703-0.07813-1.4125-0.07813-2.1289v-1.4023h1.2266c0.8825 0 1.6342 0.08633 2.2305 0.25195l0.05664 0.38672c0.05575 0.42188 0.06663 0.60938 0.1875 0.60938 0.05562 0 0.08789-0.05519 0.08789-0.13281 0-0.16562-0.06641-0.56397-0.06641-1.1836 0-0.67238 0.09961-1.0801 0.09961-1.2031 0-0.08788-0.02241-0.13476-0.06641-0.13476-0.1325 0-0.1438 0.19041-0.23242 0.59766l-0.06641 0.30078c-0.61738 0.16412-1.3683 0.24414-2.2305 0.24414h-1.2266v-1.2285c0-0.71625 0.01138-1.4136 0.07813-2.1211 0.39762-0.04525 0.74022-0.06641 1.0273-0.06641 1.1382 0 2.0639 0.14462 2.6719 0.34375l0.09961 0.71875c0.03275 0.21825 0.05663 0.33984 0.15625 0.33984 0.05487 0 0.08789-0.05372 0.08789-0.12109 0-0.07612-0.04492-0.43266-0.04492-1.0508 0-0.58312 0.08789-0.94673 0.08789-1.0684 0-0.10238-0.01092-0.14453-0.07617-0.14453zm22.42 0c-0.05563 0-0.10044 0.04216-0.13281 0.14453l-0.11133 0.37695c-1.1258 0.1435-2.1522 0.20898-3.0801 0.20898h-1.1719c-0.80712 0-1.2579-0.08008-1.3691-0.08008-0.12 0-0.17773 0.03508-0.17773 0.11133 0 0.14475 0.35367 0.21111 1.0605 0.28711 0.0655 0.674 0.07813 1.3813 0.07813 2.1211v2.8945c0 0.7515-0.01225 1.4567-0.07813 2.1289-0.70688 0.07775-1.0605 0.14556-1.0605 0.28906 0 0.07775 0.05773 0.09961 0.17773 0.09961 0.15462 0 0.57417-0.07813 1.248-0.07813h0.87109c1.3036 0 2.4874 0.06648 3.5684 0.17773l0.08789 0.19727c0.0345 0.0995 0.0673 0.15625 0.12305 0.15625 0.06688 0 0.07617-0.05675 0.07617-0.15625 0-0.0645-0.07617-0.37439-0.07617-0.94727 0-0.61812 0.05469-0.97303 0.05469-1.0508 0-0.076-0.04464-0.12109-0.08789-0.12109-0.10025 0-0.12142 0.11033-0.1543 0.33008l-0.09961 0.64062c-0.8065 0.30912-1.835 0.48633-3.0273 0.48633-0.24238 0-0.48527-0.01019-0.72852-0.02344-0.0655-0.703-0.07617-1.4125-0.07617-2.1289v-1.4023h1.2246c0.884 0 1.6342 0.08633 2.2305 0.25195l0.05469 0.38672c0.05562 0.42188 0.06783 0.60938 0.18945 0.60938 0.05562 0 0.08789-0.05519 0.08789-0.13281 0-0.16562-0.06641-0.56397-0.06641-1.1836 0-0.67238 0.09961-1.0801 0.09961-1.2031 0-0.08788-0.02241-0.13476-0.06641-0.13476-0.13338 0-0.14442 0.19041-0.23242 0.59766l-0.06641 0.30078c-0.61825 0.16412-1.3685 0.24414-2.2305 0.24414h-1.2246v-1.2285c0-0.71625 0.01042-1.4136 0.07617-2.1211 0.39788-0.04525 0.74022-0.06641 1.0273-0.06641 1.1381 0 2.0649 0.14462 2.6719 0.34375l0.09961 0.71875c0.03225 0.21825 0.05662 0.33984 0.15625 0.33984 0.05562 0 0.08789-0.05372 0.08789-0.12109 0-0.07612-0.04492-0.43266-0.04492-1.0508 0-0.58312 0.08789-0.94673 0.08789-1.0684 0-0.10238-0.0103-0.14453-0.07617-0.14453zm32.184 0c-0.04475 0-0.08984 0.04255-0.08984 0.12305 0 0.15525 0.08984 0.51559 0.08984 1.0898 0 0.63275-0.04492 0.97466-0.04492 1.0508 0 0.06737 0.03364 0.12109 0.08789 0.12109 0.10025 0 0.12205-0.12159 0.1543-0.33984l0.10156-0.71875c0.618-0.19912 1.423-0.32226 2.3965-0.32226h0.13086c0.0655 0.67375 0.07813 1.3926 0.07813 2.166v2.8945c0 0.7515-0.01212 1.4567-0.07813 2.1289-0.828 0.06887-1.248 0.13381-1.248 0.28906 0 0.07775 0.05578 0.09961 0.17578 0.09961 0.156 0 0.67509-0.08984 1.5586-0.08984 0.8835 0 1.4021 0.08984 1.5566 0.08984 0.12 0 0.17773-0.02186 0.17773-0.09961 0-0.15525-0.4205-0.22019-1.25-0.28906-0.0665-0.703-0.07617-1.4125-0.07617-2.1289v-2.8945c0-0.73975 0.01017-1.4571 0.07617-2.166h0.13477c0.9825 0 1.7882 0.12314 2.4062 0.32226l0.08984 0.71875c0.033 0.21825 0.0553 0.33984 0.1543 0.33984 0.0555 0 0.08789-0.05372 0.08789-0.12109 0-0.07612-0.04297-0.43266-0.04297-1.0508 0-0.58312 0.08594-0.94673 0.08594-1.0684 0-0.10238-0.01017-0.14453-0.07617-0.14453-0.0555 0-0.08809 0.04216-0.12109 0.14453l-0.12305 0.37695c-1.1355 0.1435-2.1756 0.20898-3.0801 0.20898-0.906 0-1.9431-0.06548-3.0801-0.20898l-0.11328-0.37695c-0.03238-0.10238-0.06502-0.14453-0.11914-0.14453zm62.324 0c-0.057 0-0.10131 0.04216-0.13281 0.14453l-0.11524 0.37695c-1.125 0.1435-2.1492 0.20898-3.0762 0.20898h-1.1738c-0.8055 0-1.2562-0.08008-1.3672-0.08008-0.123 0-0.17774 0.03508-0.17774 0.11133 0 0.14475 0.35405 0.21111 1.0606 0.28711 0.0655 0.674 0.0781 1.3813 0.0781 2.1211v2.8945c0 0.7515-0.0121 1.4567-0.0781 2.1289-0.7065 0.07775-1.0606 0.14556-1.0606 0.28906 0 0.07775 0.0547 0.09961 0.17774 0.09961 0.153 0 0.57259-0.07813 1.2461-0.07813h0.87305c1.305 0 2.4864 0.06648 3.5664 0.17773l0.0898 0.19727c0.033 0.0995 0.0656 0.15625 0.12109 0.15625 0.0655 0 0.0781-0.05675 0.0781-0.15625 0-0.0645-0.0781-0.37439-0.0781-0.94727 0-0.61812 0.0566-0.97303 0.0566-1.0508 0-0.076-0.0459-0.12109-0.0879-0.12109-0.102 0-0.12325 0.11033-0.15625 0.33008l-0.0977 0.64062c-0.8085 0.30912-1.8348 0.48633-3.0273 0.48633-0.243 0-0.48552-0.01019-0.72852-0.02344-0.0665-0.703-0.0781-1.4125-0.0781-2.1289v-1.4023h1.2246c0.885 0 1.6354 0.08633 2.2324 0.25195l0.0547 0.38672c0.0555 0.42188 0.0675 0.60938 0.1875 0.60938 0.0555 0 0.0879-0.05519 0.0879-0.13281 0-0.16562-0.0644-0.56397-0.0644-1.1836 0-0.67238 0.0976-1.0801 0.0976-1.2031 0-0.08788-0.0209-0.13476-0.0644-0.13476-0.1335 0-0.14542 0.19041-0.23242 0.59766l-0.0664 0.30078c-0.618 0.16412-1.3684 0.24414-2.2324 0.24414h-1.2246v-1.2285c0-0.71625 0.0121-1.4136 0.0781-2.1211 0.3975-0.04525 0.74039-0.06641 1.0254-0.06641 1.1385 0 2.0644 0.14462 2.6719 0.34375l0.0996 0.71875c0.033 0.21825 0.0557 0.33984 0.15625 0.33984 0.057 0 0.0879-0.05372 0.0879-0.12109 0-0.07612-0.043-0.43266-0.043-1.0508 0-0.58312 0.0879-0.94673 0.0879-1.0684 0-0.10238-0.0132-0.14453-0.0762-0.14453zm30.746 0c-0.045 0-0.0879 0.04255-0.0879 0.12305 0 0.15525 0.0879 0.51559 0.0879 1.0898 0 0.63275-0.0449 0.97466-0.0449 1.0508 0 0.06737 0.0344 0.12109 0.0899 0.12109 0.0975 0 0.12084-0.12159 0.15234-0.33984l0.10156-0.71875c0.6195-0.19912 1.423-0.32226 2.3965-0.32226h0.13281c0.064 0.67375 0.0762 1.3926 0.0762 2.166v2.8945c0 0.7515-0.0117 1.4567-0.0762 2.1289-0.8295 0.06887-1.25 0.13381-1.25 0.28906 0 0.07775 0.0528 0.09961 0.17578 0.09961 0.156 0 0.67555-0.08984 1.5606-0.08984 0.8805 0 1.4021 0.08984 1.5566 0.08984 0.1215 0 0.17578-0.02186 0.17578-0.09961 0-0.15525-0.42005-0.22019-1.248-0.28906-0.0655-0.703-0.0781-1.4125-0.0781-2.1289v-2.8945c0-0.73975 0.0121-1.4571 0.0781-2.166h0.13477c0.9825 0 1.7863 0.12314 2.4043 0.32226l0.0899 0.71875c0.033 0.21825 0.0553 0.33984 0.1543 0.33984 0.0555 0 0.0879-0.05372 0.0879-0.12109 0-0.07612-0.043-0.43266-0.043-1.0508 0-0.58312 0.0859-0.94673 0.0859-1.0684 0-0.10238-0.0117-0.14453-0.0762-0.14453-0.0555 0-0.087 0.04216-0.12304 0.14453l-0.1211 0.37695c-1.137 0.1435-2.1751 0.20898-3.0781 0.20898-0.9075 0-1.944-0.06548-3.084-0.20898l-0.10937-0.37695c-0.0345-0.10238-0.0671-0.14453-0.1211-0.14453zm42.807 0c-0.054 0-0.0998 0.04216-0.13281 0.14453l-0.10937 0.37695c-1.1265 0.1435-2.1555 0.20898-3.084 0.20898h-1.1699c-0.8055 0-1.2596-0.08008-1.3691-0.08008-0.1215 0-0.17578 0.03508-0.17578 0.11133 0 0.14475 0.35555 0.21111 1.0606 0.28711 0.0665 0.674 0.0762 1.3813 0.0762 2.1211v2.8945c0 0.7515-0.0102 1.4567-0.0762 2.1289-0.705 0.07775-1.0606 0.14556-1.0606 0.28906 0 0.07775 0.0543 0.09961 0.17578 0.09961 0.1095 0 0.56364-0.07813 1.3691-0.07813 0.9825 0 1.4901 0.07813 1.5801 0.07813 0.12 0 0.17773-0.02186 0.17773-0.09961 0-0.15525-0.42248-0.22019-1.2715-0.28906-0.0665-0.703-0.0762-1.4125-0.0762-2.1289v-1.4023h1.2246c0.8835 0 1.6354 0.08633 2.2324 0.25195l0.0547 0.38672c0.0555 0.42188 0.0675 0.60938 0.1875 0.60938 0.0555 0 0.0879-0.05519 0.0879-0.13281 0-0.16562-0.0664-0.56397-0.0664-1.1836 0-0.67238 0.0996-1.0801 0.0996-1.2031 0-0.08788-0.0229-0.13476-0.0664-0.13476-0.1335 0-0.14392 0.19041-0.23242 0.59766l-0.0644 0.30078c-0.6195 0.16412-1.3684 0.24414-2.2324 0.24414h-1.2246v-1.2285c0-0.71625 0.0102-1.4136 0.0762-2.1211 0.396-0.04525 0.74084-0.06641 1.0273-0.06641 1.137 0 2.0644 0.14462 2.6719 0.34375l0.08 0.718c0.033 0.21825 0.0538 0.33984 0.1543 0.33984 0.054 0 0.0879-0.05372 0.0879-0.12109 0-0.07612-0.043-0.43266-0.043-1.0508 0-0.58312 0.084-0.94673 0.084-1.0684 0-0.10238-0.008-0.14453-0.0742-0.14453zm26.727 0c-0.0555 0-0.0968 0.04216-0.13282 0.14453l-0.10742 0.37695c-1.1265 0.1435-2.157 0.20898-3.084 0.20898h-1.1699c-0.807 0-1.2611-0.08008-1.3691-0.08008-0.123 0-0.17774 0.03508-0.17774 0.11133 0 0.14475 0.35405 0.21111 1.0606 0.28711 0.0655 0.674 0.0781 1.3813 0.0781 2.1211v2.8945c0 0.7515-0.0121 1.4567-0.0781 2.1289-0.7065 0.07775-1.0606 0.14556-1.0606 0.28906 0 0.07775 0.0547 0.09961 0.17774 0.09961 0.153 0 0.5735-0.07813 1.25-0.07813h0.86914c1.302 0 2.4849 0.06648 3.5664 0.17773l0.0898 0.19727c0.033 0.0995 0.0645 0.15625 0.12304 0.15625 0.065 0 0.0742-0.05675 0.0742-0.15625 0-0.0645-0.0742-0.37439-0.0742-0.94727 0-0.61812 0.0547-0.97303 0.0547-1.0508 0-0.076-0.0448-0.12109-0.0898-0.12109-0.0975 0-0.12085 0.11033-0.15235 0.33008l-0.0996 0.64062c-0.8055 0.30912-1.8348 0.48633-3.0273 0.48633-0.243 0-0.48597-0.01019-0.73047-0.02344-0.0655-0.703-0.0781-1.4125-0.0781-2.1289v-1.4023h1.2285c0.882 0 1.6369 0.08633 2.2324 0.25195l0.0527 0.38672c0.054 0.42188 0.066 0.60938 0.1875 0.60938 0.054 0 0.0879-0.05519 0.0879-0.13281 0-0.16562-0.0644-0.56397-0.0644-1.1836 0-0.67238 0.0976-1.0801 0.0976-1.2031 0-0.08788-0.0199-0.13476-0.0664-0.13476-0.1305 0-0.13897 0.19041-0.23047 0.59766l-0.0645 0.30078c-0.621 0.16412-1.3729 0.24414-2.2324 0.24414h-1.2285v-1.2285c0-0.71625 0.0121-1.4136 0.0781-2.1211 0.4005-0.04525 0.7413-0.06641 1.0293-0.06641 1.137 0 2.0659 0.14462 2.6719 0.34375l0.0977 0.71875c0.033 0.21825 0.0587 0.33984 0.15625 0.33984 0.0555 0 0.0898-0.05372 0.0898-0.12109 0-0.07612-0.0449-0.43266-0.0449-1.0508 0-0.58312 0.0879-0.94673 0.0879-1.0684 0-0.10238-0.0121-0.14453-0.0781-0.14453zm-185 0.245c-0.09963 0-0.12126 0.06495-0.16602 0.18945l-0.1875 0.54883c-0.68488-0.30912-1.3491-0.45117-1.9453-0.45117-1.5915 0-2.6934 1.0474-2.6934 2.5605 0 1.1369 0.68353 1.7789 2.0977 1.9883 1.0056 0.15388 1.7785 0.20072 2.3301 0.57422 0.25412 0.18012 0.38672 0.45162 0.38672 0.82812 0 0.95075-0.89402 1.8008-2.0879 1.8008-0.76088 0-1.5455-0.34002-2.3418-1.0254-0.14275-1.0944-0.19827-1.6348-0.35352-1.6348-0.077 0-0.09766 0.06506-0.09766 0.19531 0 0.18912 0.05469 0.56481 0.05469 1.1172 0 1.141-0.17773 1.7798-0.17773 1.9336 0 0.066 0.03373 0.10156 0.09961 0.10156 0.0785 0 0.11055-0.06841 0.1543-0.19141l0.1875-0.54883c0.7075 0.31925 1.3708 0.47266 2 0.47266 1.7116 0 2.916-1.1602 2.916-2.6836 0-0.71925-0.32059-1.2925-0.83984-1.5254-0.56388-0.252-1.1814-0.30672-1.7871-0.41797-1.5146-0.26375-2.2324-0.44195-2.2324-1.3926 0-0.90525 0.87208-1.7227 2.0645-1.7227 0.80638 0 1.536 0.30866 2.1445 0.89453 0.05425 0.83938 0.07548 1.2246 0.24024 1.2246 0.07763 0 0.11328-0.06542 0.11328-0.18555 0-0.12162-0.02344-0.31095-0.02344-0.56445 0-1.1484 0.2207-1.7995 0.2207-1.9883 0-0.0645-0.01017-0.09766-0.07617-0.09766zm104.53 0c-0.1005 0-0.12252 0.06495-0.16602 0.18945l-0.1875 0.54883c-0.684-0.30912-1.3464-0.45117-1.9434-0.45117-1.5885 0-2.6953 1.0474-2.6953 2.5605 0 1.1369 0.68511 1.7789 2.0996 1.9883 1.005 0.15388 1.7781 0.20072 2.3301 0.57422 0.2535 0.18012 0.38476 0.45162 0.38476 0.82812 0 0.95075-0.89194 1.8008-2.0859 1.8008-0.762 0-1.5468-0.34002-2.3418-1.0254-0.144-1.0944-0.19902-1.6348-0.35352-1.6348-0.078 0-0.0996 0.06506-0.0996 0.19531 0 0.18912 0.0547 0.56481 0.0547 1.1172 0 1.141-0.17578 1.7798-0.17578 1.9336 0 0.066 0.0336 0.10156 0.0996 0.10156 0.0765 0 0.10929-0.06841 0.15429-0.19141l0.1875-0.54883c0.708 0.31925 1.37 0.47266 2 0.47266 1.7115 0 2.916-1.1602 2.916-2.6836 0-0.71925-0.31934-1.2925-0.83984-1.5254-0.564-0.252-1.1816-0.30672-1.7891-0.41797-1.512-0.26375-2.2324-0.44195-2.2324-1.3926 0-0.90525 0.87241-1.7227 2.0664-1.7227 0.804 0 1.5351 0.30866 2.1426 0.89453 0.0555 0.83938 0.0772 1.2246 0.24218 1.2246 0.078 0 0.10938-0.06542 0.10938-0.18555 0-0.12162-0.0195-0.31095-0.0195-0.56445 0-1.1484 0.21875-1.7995 0.21875-1.9883 0-0.0645-0.0102-0.09766-0.0762-0.09766zm40.5 0.28711c-1.4925 0-2.8277 0.76172-3.5117 1.9336-0.411 0.706-0.60938 1.4459-0.60938 2.2734 0 1.1484 0.38578 2.1089 1.1133 2.8281 0.7755 0.75 1.7493 1.1484 2.8848 1.1484 1.326 0 2.4408-0.50791 3.2148-1.457 0.63-0.76175 0.94922-1.6902 0.94922-2.7188 0-1.2129-0.44255-2.2651-1.248-2.9902-0.7515-0.67525-1.6875-1.0176-2.793-1.0176zm76.117 0c-1.4925 0-2.8282 0.76172-3.5137 1.9336-0.411 0.706-0.60742 1.4459-0.60742 2.2734 0 1.1484 0.38623 2.1089 1.1152 2.8281 0.7725 0.75 1.7473 1.1484 2.8828 1.1484 1.326 0 2.4408-0.50791 3.2148-1.457 0.63-0.76175 0.95117-1.6902 0.95117-2.7188 0-1.2129-0.44405-2.2651-1.248-2.9902-0.7515-0.67525-1.6924-1.0176-2.7949-1.0176zm-270.9 0.119c-0.12088 0-0.17578 0.03508-0.17578 0.11133 0 0.14475 0.35305 0.21111 1.0605 0.28711 0.06525 0.674 0.07813 1.3813 0.07813 2.1211v2.8945c0 0.7515-0.01225 1.4567-0.07813 2.1289-0.7075 0.07775-1.0605 0.14556-1.0605 0.28906 0 0.07775 0.05491 0.09961 0.17578 0.09961 0.2095 0 0.66422-0.08984 1.3711-0.08984 0.7075 0 1.1583 0.08984 1.3691 0.08984 0.12012 0 0.17578-0.02186 0.17578-0.09961 0-0.1435-0.35172-0.21131-1.0586-0.28906-0.06675-0.703-0.07813-1.4125-0.07813-2.1289v-1.2832h4.0645v1.2832c0 0.728-0.01288 1.4347-0.07813 2.1289-0.7075 0.07775-1.0605 0.14556-1.0605 0.28906 0 0.07775 0.05623 0.09961 0.17773 0.09961 0.20962 0 0.66227-0.08984 1.3691-0.08984 0.7075 0 1.1707 0.08984 1.3809 0.08984 0.12025 0 0.16602-0.02186 0.16602-0.09961 0-0.1435-0.3538-0.21131-1.0605-0.28906-0.06675-0.703-0.07617-1.4125-0.07617-2.1289v-2.8945c0-0.71625 0.0095-1.4136 0.07617-2.1211 0.70675-0.076 1.0605-0.14236 1.0605-0.28711 0-0.07625-0.04577-0.11133-0.16602-0.11133-0.19912 0-0.67336 0.10156-1.3809 0.10156-0.70688 0-1.1705-0.10156-1.3691-0.10156-0.1215 0-0.17773 0.03508-0.17773 0.11133 0 0.14475 0.35305 0.21111 1.0605 0.28711 0.06575 0.59625 0.07813 1.2921 0.07813 2.1211v1.3594h-4.0645v-1.3594c0-0.71625 0.0115-1.4136 0.07813-2.1211 0.70688-0.076 1.0586-0.14236 1.0586-0.28711 0-0.07625-0.05566-0.11133-0.17578-0.11133-0.2 0-0.66164 0.10156-1.3691 0.10156-0.70687 0-1.1726-0.10156-1.3711-0.10156zm27.545 0c-0.1215 0-0.17578 0.03508-0.17578 0.11133 0 0.14475 0.3538 0.21111 1.0605 0.28711 0.067 0.674 0.07617 1.3682 0.07617 2.1211v3.0586 0.45312c0 0.9155-0.0096 1.6563-0.25195 2.2422-0.17738 0.43075-0.45433 0.81839-0.83008 1.1816-0.53025 0.50825-0.84961 0.6308-0.84961 0.79492 0 0.04537 0.0445 0.08984 0.07812 0.08984 0.08787 0 0.2645-0.0997 0.5625-0.29883 0.38663-0.26375 0.79408-0.53109 1.1582-0.91797 0.52-0.5625 0.82853-1.2128 0.89453-1.8867 0.04438-0.48638 0.05664-1.1603 0.05664-2.0098v-2.707c0-0.71625 0.0103-1.4136 0.07617-2.1211 0.7075-0.076 1.0605-0.14236 1.0605-0.28711 0-0.07625-0.05328-0.11133-0.17578-0.11133-0.19838 0-0.66347 0.10156-1.3711 0.10156-0.706 0-1.1699-0.10156-1.3691-0.10156zm26.674 0c-0.12238 0-0.17774 0.03508-0.17774 0.11133 0 0.14475 0.36477 0.21111 1.0723 0.28711v3.998c0 1.0944 0.0096 1.8883 0.35156 2.4961 0.41962 0.73988 1.2717 1.1719 2.4414 1.1719 1.2589 0 2.1436-0.47505 2.5742-1.3262 0.33187-0.66212 0.33112-1.4471 0.375-2.4082l0.05469-1.2461c0.05575-1.27 0.08836-2.1655 0.17773-2.6855 0.59538-0.09812 0.89258-0.15398 0.89258-0.28711 0-0.07625-0.04181-0.11133-0.16406-0.11133-0.1545 0-0.55261 0.08008-1.1934 0.08008-0.64025 0-1.0377-0.08008-1.1914-0.08008-0.12238 0-0.17773 0.03508-0.17773 0.11133 0 0.14475 0.3762 0.21111 1.127 0.28711 0.1435 0.83938 0.20898 1.7343 0.20898 2.6602v1.127c0 1.0416-0.05372 1.8125-0.30859 2.375-0.36338 0.80712-1.1267 1.25-2.2305 1.25-1.5901 0-2.1328-0.80603-2.1328-2.7383 0-0.13325 0.01172-0.27688 0.01172-0.42188l0.1543-4.252c0.70675-0.076 1.0605-0.14236 1.0605-0.28711 0-0.07625-0.05503-0.11133-0.17578-0.11133-0.19925 0-0.66347 0.10156-1.3711 0.10156-0.70675 0-1.1805-0.10156-1.3789-0.10156zm11.496 0c-0.12075 0-0.17578 0.03508-0.17578 0.11133 0 0.14475 0.35292 0.21111 1.0605 0.28711 0.06687 0.674 0.07617 1.3813 0.07617 2.1211v2.8945c0 0.7515-0.0097 1.4567-0.07617 2.1289-0.70762 0.07775-1.0605 0.14556-1.0605 0.28906 0 0.07775 0.05503 0.09961 0.17578 0.09961 0.21025 0 0.66239-0.08984 1.3691-0.08984 0.7075 0 1.159 0.08984 1.3691 0.08984 0.12162 0 0.17773-0.02186 0.17773-0.09961 0-0.1435-0.35292-0.21131-1.0605-0.28906-0.06675-0.703-0.07617-1.4125-0.07617-2.1289v-2.8945c0-0.71625 0.0097-1.4136 0.07617-2.1211 0.70762-0.076 1.0605-0.14236 1.0605-0.28711 0-0.07625-0.05611-0.11133-0.17773-0.11133-0.19925 0-0.66164 0.10156-1.3691 0.10156-0.70675 0-1.17-0.10156-1.3691-0.10156zm22.432 0c-0.1215 0-0.17773 0.03508-0.17773 0.11133h0.002c0 0.14475 0.36426 0.21111 1.0723 0.28711v3.998c0 1.0944 0.009 1.8883 0.35351 2.4961 0.4185 0.73988 1.2695 1.1719 2.4395 1.1719 1.26 0 2.1437-0.47505 2.5742-1.3262 0.33-0.66212 0.32999-1.4471 0.375-2.4082l0.0547-1.2461c0.0555-1.27 0.0892-2.1655 0.17774-2.6855 0.597-0.09813 0.89258-0.15398 0.89258-0.28711 0-0.07625-0.0426-0.11133-0.16407-0.11133-0.1545 0-0.55286 0.08008-1.1934 0.08008-0.6405 0-1.0369-0.08008-1.1914-0.08008-0.1215 0-0.17969 0.03508-0.17969 0.11133 0 0.14475 0.37695 0.21111 1.127 0.28711 0.144 0.83937 0.21094 1.7343 0.21094 2.6602v1.127c0 1.0416-0.0555 1.8125-0.31055 2.375-0.3645 0.80712-1.1265 1.25-2.2305 1.25-1.59 0-2.1308-0.80603-2.1308-2.7383 0-0.13325 0.01-0.27688 0.01-0.42188l0.1543-4.252c0.708-0.076 1.0625-0.14236 1.0625-0.28711 0-0.07625-0.0547-0.11133-0.17774-0.11133-0.198 0-0.66114 0.10156-1.3691 0.10156-0.7065 0-1.1814-0.10156-1.3809-0.10156zm11.553 0c-0.111 0-0.17774 0.03508-0.17774 0.11133 0 0.14475 0.50949 0.07767 1.084 0.87305v3.9883c0 1.2025-0.10116 2.0739-0.22266 2.5703-0.618 0.10112-0.91601 0.15719-0.91601 0.28906 0 0.07775 0.0565 0.09961 0.16601 0.09961 0.243 0 0.63892-0.08984 1.1699-0.08984 0.6855 0 1.115 0.08984 1.3145 0.08984 0.1095 0 0.17773-0.02186 0.17773-0.09961 0-0.15525-0.40784-0.22019-1.2148-0.28906-0.1215-0.72512-0.19922-1.6777-0.19922-2.8262v-3.4121l4.9902 6.5703c0.1005 0.13338 0.17692 0.18945 0.23242 0.18945s0.0567-0.03373 0.0567-0.09961v-0.07813-3.8652c0-1.5909 0.0533-2.7938 0.19726-3.623 0.663-0.076 0.99609-0.14236 0.99609-0.28711 0-0.07625-0.055-0.11133-0.16601-0.11133-0.2325 0-0.63066 0.10156-1.1602 0.10156-0.6855 0-1.1167-0.10156-1.3027-0.10156-0.1095 0-0.16602 0.03508-0.16602 0.11133 0 0.14475 0.37517 0.22123 1.1387 0.28711 0.1095 0.6285 0.17383 1.5797 0.17383 2.873v3.1562l-4.8691-6.3711c-0.132 0-0.25273 0.01367-0.36523 0.01367-0.585 0-0.882-0.07031-0.9375-0.07031zm11.486 0c-0.1215 0-0.17774 0.03508-0.17774 0.11133 0 0.14475 0.35405 0.21111 1.0606 0.28711 0.0655 0.674 0.0781 1.3813 0.0781 2.1211v2.8945c0 0.7515-0.0121 1.4567-0.0781 2.1289-0.7065 0.07775-1.0606 0.14556-1.0606 0.28906 0 0.07775 0.0562 0.09961 0.17774 0.09961 0.21 0 0.66218-0.08984 1.3672-0.08984 0.708 0 1.1616 0.08984 1.373 0.08984 0.12 0 0.17383-0.02186 0.17383-0.09961 0-0.1435-0.3521-0.21131-1.0586-0.28906-0.068-0.703-0.0781-1.4125-0.0781-2.1289v-2.8945c0-0.71625 0.0106-1.4136 0.0781-2.1211 0.7065-0.076 1.0586-0.14236 1.0586-0.28711 0-0.07625-0.0538-0.11133-0.17383-0.11133-0.1995 0-0.66505 0.10156-1.373 0.10156-0.705 0-1.1692-0.10156-1.3672-0.10156zm6.1738 0c-0.1215 0-0.17773 0.03508-0.17773 0.11133 0 0.1245 0.27686 0.17586 0.81836 0.28711l3.0469 7.5c0.045 0.09825 0.0665 0.16602 0.14453 0.16602 0.0315 0 0.10979-0.08856 0.17579-0.24219l1.93-4.607c0.399-0.94775 0.79334-1.9008 1.2148-2.8164 0.519-0.1215 0.77149-0.16261 0.77149-0.28711 0-0.07625-0.0543-0.11133-0.17578-0.11133-0.153 0-0.49485 0.07031-1.0274 0.07031-0.5295 0-0.87284-0.07031-1.0273-0.07031-0.1215 0-0.17578 0.03508-0.17578 0.11133 0 0.13312 0.2983 0.18898 0.9043 0.28711-0.36301 1.5689-0.82765 3.0264-1.3692 4.2949l-0.97265 2.3105-2.5371-6.6055c0.606-0.09813 0.9043-0.15398 0.9043-0.28711 0-0.07625-0.0558-0.11133-0.17579-0.11133-0.267 0-0.64318 0.10156-1.1172 0.10156-0.5085 0-0.90471-0.10156-1.1582-0.10156zm21.469 0c-0.1215 0-0.17578 0.03508-0.17578 0.11133 0 0.14475 0.3521 0.21111 1.0586 0.28711 0.0665 0.674 0.0781 1.3813 0.0781 2.1211v2.8828c0 0.7515-0.0121 1.4586-0.0781 2.1309-0.7065 0.079-1.0586 0.14394-1.0586 0.28906 0 0.0775 0.0543 0.09766 0.17578 0.09766 0.21 0 0.6631-0.08789 1.3711-0.08789 0.783 0 1.28 0.08789 1.457 0.08789 0.111 0 0.16406-0.02016 0.16406-0.09766 0-0.14512-0.37322-0.22169-1.1367-0.28906-0.0655-0.70462-0.0781-1.4131-0.0781-2.1309v-2.8828c0-0.71625 0.0121-1.4136 0.0781-2.1211 0.4425-0.076 0.80652-0.12109 1.1035-0.12109 1.3575 0 2.2324 0.83939 2.2324 2.0098 0 1.1719-0.7833 1.7559-2.3418 1.7559-0.264 0-0.45422-0.04297-0.57422-0.04297-0.0885 0-0.16601 0.05461-0.16601 0.13086 0 0.0995 0.0877 0.17883 0.17773 0.29883l1.9434 2.7305c0.408 0.5625 0.68489 0.89258 1.2129 0.89258 0.6315 0 1.1953-0.42131 1.1953-0.55469 0-0.05262-0.0343-0.08789-0.0899-0.08789-0.108 0-0.29651 0.13281-0.54101 0.13281-0.342 0-0.54183-0.24164-0.86133-0.65039l-2.0312-2.6152c1.833-0.12162 2.8926-1.106 2.8926-2.3438 0-1.1382-0.97039-1.9199-2.6504-1.9199-0.7065 0-1.3803 0.08789-1.9863 0.08789-0.708 0-1.1746-0.10156-1.3711-0.10156zm19.957 0c-0.12151 0-0.17774 0.03508-0.17774 0.11133 0 0.14475 0.35645 0.21111 1.0644 0.28711 0.064 0.674 0.0762 1.3813 0.0762 2.1211v2.8945c0 0.7515-0.0117 1.4567-0.0762 2.1289-0.708 0.07775-1.0644 0.14556-1.0644 0.28906 0 0.07775 0.0562 0.09961 0.17774 0.09961 0.21149 0 0.66459-0.08984 1.3711-0.08984 0.7065 0 1.1591 0.08984 1.3691 0.08984 0.12 0 0.17578-0.02186 0.17578-0.09961 0-0.1435-0.35405-0.21131-1.0606-0.28906-0.0665-0.703-0.0762-1.4125-0.0762-2.1289v-2.8945c0-0.71625 0.0102-1.4136 0.0762-2.1211 0.7065-0.076 1.0606-0.14236 1.0606-0.28711 0-0.07625-0.0558-0.11133-0.17578-0.11133-0.198 0-0.66264 0.10156-1.3691 0.10156-0.7065 0-1.1731-0.10156-1.3711-0.10156zm16.17 0c-0.1215 0-0.17774 0.03508-0.17774 0.11133 0 0.1245 0.27686 0.17586 0.81836 0.28711l2.2422 3.668v1.3477c0 0.7515-0.0106 1.4567-0.0781 2.1289-0.7065 0.07775-1.0586 0.14556-1.0586 0.28906 0 0.07775 0.0528 0.09961 0.17578 0.09961 0.2085 0 0.66114-0.08984 1.3691-0.08984 0.705 0 1.1591 0.08984 1.3691 0.08984 0.1215 0 0.17578-0.02186 0.17578-0.09961 0-0.1435-0.35254-0.21131-1.0605-0.28906-0.0665-0.703-0.0762-1.4125-0.0762-2.1289v-1.4258l1.3379-2.0312c0.3975-0.59625 0.762-1.1278 1.125-1.5586 0.519-0.1215 0.77539-0.16261 0.77539-0.28711 0-0.07625-0.0586-0.11133-0.18164-0.11133-0.153 0-0.49394 0.07031-1.0234 0.07031-0.5325 0-0.8733-0.07031-1.0293-0.07031-0.1215 0-0.17578 0.03508-0.17578 0.11133 0 0.13312 0.30974 0.18898 0.92774 0.28711-0.21901 0.59625-0.50733 1.171-0.86133 1.7246l-1.0059 1.5684-1.9648-3.293c0.6075-0.09813 0.90625-0.15398 0.90625-0.28711 0-0.07625-0.0547-0.11133-0.17773-0.11133-0.231 0-0.61744 0.08984-1.1484 0.08984-0.585 0-0.98262-0.08984-1.2031-0.08984zm42.43 0c-0.111 0-0.17773 0.03508-0.17773 0.11133 0 0.14475 0.50994 0.07767 1.0859 0.87305v3.9883c0 1.2025-0.10071 2.0739-0.22071 2.5703-0.618 0.10112-0.91601 0.15719-0.91601 0.28906 0 0.07775 0.0516 0.09961 0.16406 0.09961 0.243 0 0.63742-0.08984 1.1699-0.08984 0.684 0 1.115 0.08984 1.3145 0.08984 0.1095 0 0.17578-0.02186 0.17578-0.09961 0-0.15525-0.40785-0.22019-1.2148-0.28906-0.1215-0.72512-0.19922-1.6777-0.19922-2.8262v-3.4121l4.9942 6.5703c0.0975 0.13338 0.17496 0.18945 0.23046 0.18945s0.0566-0.03373 0.0566-0.09961v-0.07813-3.8652c-0.00001-1.5909 0.0533-2.7938 0.19726-3.623 0.663-0.076 0.99609-0.14236 0.99609-0.28711 0-0.07625-0.057-0.11133-0.16796-0.11133-0.231 0-0.62916 0.10156-1.1602 0.10156-0.684 0-1.1148-0.10156-1.3008-0.10156-0.1125 0-0.16797 0.03508-0.16797 0.11133 0 0.14475 0.37562 0.22123 1.1406 0.28711 0.108 0.6285 0.17579 1.5797 0.17579 2.873v3.1562l-4.8711-6.3711c-0.1335 0-0.25228 0.01367-0.36328 0.01367-0.5865 0-0.88591-0.07031-0.94141-0.07031zm21.119 0c-0.12299 0-0.17578 0.03508-0.17578 0.11133 0 0.1245 0.27341 0.17586 0.81641 0.28711l3.0449 7.5c0.045 0.09825 0.068 0.16602 0.14453 0.16602 0.0345 0 0.11069-0.08856 0.17969-0.24219l1.168-2.7949 1.1602 2.8711c0.045 0.09825 0.0796 0.16602 0.14257 0.16602 0.036 0 0.0996-0.08856 0.16407-0.24219l1.9434-4.6074c0.4005-0.94775 0.79725-1.889 1.2188-2.8164 0.5175-0.1215 0.77148-0.16261 0.77148-0.28711 0-0.07625-0.0558-0.11133-0.17578-0.11133-0.078 0-0.53231 0.08008-1.3828 0.08008h-1.9199c-0.8625 0-1.3258-0.08008-1.4023-0.08008-0.123 0-0.17969 0.03508-0.17969 0.11133 0 0.13312 0.29921 0.18898 0.90821 0.28711-0.1545 0.82925-0.49597 1.9145-0.98047 3.2812l-1.25-3.2812c0.606-0.09813 0.90429-0.15398 0.90429-0.28711 0-0.07625-0.0553-0.11133-0.17382-0.11133-0.0915 0-0.59804 0.08008-1.582 0.08008h-2.1875c-0.606 0-0.99275-0.08008-1.1563-0.08008zm18.85 0c-0.1215 0-0.17578 0.03508-0.17578 0.11133 0 0.1245 0.27882 0.17586 0.82032 0.28711l2.2402 3.668v1.3477c0 0.7515-0.0136 1.4567-0.0781 2.1289-0.708 0.07775-1.0625 0.14556-1.0625 0.28906 0 0.07775 0.0547 0.09961 0.17773 0.09961 0.213 0 0.66564-0.08984 1.3691-0.08984 0.7065 0 1.1611 0.08984 1.3711 0.08984 0.1215 0 0.17774-0.02186 0.17774-0.09961 0-0.1435-0.3536-0.21131-1.0586-0.28906-0.068-0.703-0.0781-1.4125-0.0781-2.1289v-1.4258l1.3359-2.0312c0.3975-0.59625 0.76095-1.1278 1.127-1.5586 0.516-0.1215 0.76953-0.16261 0.76953-0.28711 0-0.07625-0.0528-0.11133-0.17578-0.11133-0.1545 0-0.49634 0.07031-1.0273 0.07031-0.5295 0-0.87435-0.07031-1.0274-0.07031-0.1215 0-0.17383 0.03508-0.17383 0.11133 0 0.13312 0.30779 0.18898 0.92579 0.28711-0.222 0.59625-0.50883 1.171-0.86133 1.7246l-1.0039 1.5684-1.9668-3.293c0.606-0.09813 0.90625-0.15398 0.90625-0.28711 0-0.07625-0.0558-0.11133-0.17578-0.11133-0.2325 0-0.62134 0.08984-1.1523 0.08984-0.5865 0-0.98113-0.08984-1.2031-0.08984zm20.631 0c-0.1185 0-0.17382 0.03508-0.17382 0.11133 0 0.14475 0.35359 0.21111 1.0586 0.28711 0.0677 0.674 0.0781 1.3813 0.0781 2.1211v2.8828c0 0.7515-0.0106 1.4586-0.0781 2.1309-0.705 0.079-1.0586 0.14394-1.0586 0.28906 0 0.0775 0.0553 0.09766 0.17382 0.09766 0.21 0 0.66114-0.08789 1.3691-0.08789 0.7845 0 1.2839 0.08789 1.4609 0.08789 0.1095 0 0.16406-0.02016 0.16406-0.09766 0-0.14512-0.37621-0.22169-1.1367-0.28906-0.068-0.70462-0.0781-1.4131-0.0781-2.1309v-2.8828c0-0.71625 0.0106-1.4136 0.0781-2.1211 0.441-0.076 0.80501-0.12109 1.1035-0.12109 1.3605 0 2.2305 0.83939 2.2305 2.0098 0 1.1719-0.7818 1.7559-2.3418 1.7559-0.2625 0-0.45181-0.04297-0.57031-0.04297-0.093 0-0.16992 0.05461-0.16992 0.13086 0 0.0995 0.0907 0.17883 0.17773 0.29883l1.9395 2.7305c0.4125 0.5625 0.68865 0.89258 1.2226 0.89258 0.627 0 1.1914-0.42131 1.1914-0.55469 0-0.05262-0.0363-0.08789-0.0918-0.08789-0.1095 0-0.29606 0.13281-0.53906 0.13281-0.3435 0-0.54033-0.24164-0.86133-0.65039l-2.0332-2.6152c1.8315-0.12162 2.8945-1.106 2.8945-2.3438 0-1.1382-0.97384-1.9199-2.6523-1.9199-0.705 0-1.3823 0.08789-1.9883 0.08789-0.708 0-1.1681-0.10156-1.3691-0.10156zm10.02 0c-0.12 0-0.17773 0.03508-0.17773 0.11133 0 0.14475 0.35209 0.21111 1.0586 0.28711 0.0665 0.674 0.0762 1.3813 0.0762 2.1211v2.8926c0 0.7515-0.0102 1.4586-0.0762 2.1309-0.7065 0.07775-1.0586 0.14556-1.0586 0.28906 0 0.07775 0.0577 0.09961 0.17773 0.09961 0.207 0 0.6601-0.08984 1.3711-0.08984 0.7035 0 1.1537 0.08984 1.3652 0.08984 0.1245 0 0.17774-0.02186 0.17774-0.09961 0-0.1435-0.3515-0.21131-1.0625-0.28906-0.0655-0.703-0.0781-1.4145-0.0781-2.1309v-1.125c0.105-0.01 0.20252-0.0098 0.29102-0.0098 0.9915 0 1.3349 0.54014 1.9004 1.3691l1.084 1.5898c0.372 0.55225 0.7033 0.82812 1.0918 0.82812 0.429 0 0.9375-0.40881 0.9375-0.58594 0-0.0895-0.0332-0.12109-0.0977-0.12109-0.057 0-0.17023 0.14062-0.36523 0.14062-0.2325 0-0.50778-0.25338-0.86328-0.75l-1.0156-1.4473c-0.354-0.49662-0.6259-0.94608-1.1914-1.1895-0.2295-0.09963-0.58777-0.14453-1.0723-0.14453h-0.29883l1.0625-0.99414c1.2795-1.1925 2.3294-2.0336 3.0898-2.5742 0.4425-0.14363 0.67578-0.16261 0.67578-0.28711 0-0.07625-0.046-0.11133-0.16602-0.11133-0.153 0-0.49934 0.07031-1.0273 0.07031-0.531 0-0.86985-0.07031-1.0273-0.07031-0.12151 0-0.17579 0.03508-0.17579 0.11133 0 0.1245 0.25285 0.15536 0.71485 0.28711l-2.7051 2.8164c-0.285 0.29888-0.5628 0.57281-0.8418 0.77344v-1.4688c0-0.71625 0.0121-1.4136 0.0781-2.1211 0.711-0.076 1.0625-0.14236 1.0625-0.28711 0-0.07625-0.0532-0.11133-0.17774-0.11133-0.195 0-0.66173 0.10156-1.3652 0.10156-0.711 0-1.1716-0.10156-1.3711-0.10156zm-47.096 0.33203c0.3 0 0.58627 0.02116 0.88477 0.06641l1.7441 4.3184-0.95313 2.2871-2.5352-6.6055c0.285-0.04525 0.57287-0.06641 0.85937-0.06641zm5.7109 0c0.3195 0 0.64339 0.02116 0.96289 0.06641-0.366 1.5689-0.82809 3.0264-1.3711 4.2949l-0.97071 2.3105-1.1484-2.9492 0.35156-0.83984c0.2655-0.61812 0.65039-1.5669 1.2129-2.8164 0.3225-0.04525 0.64339-0.06641 0.96289-0.06641zm-52.393 0.04492c1.116 0 2.2211 0.56159 3.0371 1.5898 0.651 0.82762 0.99414 1.7804 0.99414 2.75 0 0.9595-0.44125 1.7774-1.2812 2.3633-0.4875 0.331-1.0719 0.51953-1.7109 0.51953-1.05 0-2.1424-0.56162-2.9824-1.5781-0.696-0.85262-1.0605-1.8237-1.0605-2.6953 0-1.7022 1.2144-2.9492 3.0039-2.9492zm76.115 0c1.116 0 2.2216 0.56159 3.0391 1.5898 0.6495 0.82762 0.99414 1.7804 0.99414 2.75 0 0.9595-0.44425 1.7774-1.2812 2.3633-0.489 0.331-1.0724 0.51953-1.7129 0.51953-1.0485 0-2.1444-0.56162-2.9844-1.5781-0.6945-0.85262-1.0586-1.8237-1.0586-2.6953 0-1.7022 1.2144-2.9492 3.0039-2.9492z" transform="matrix(.8 0 0 -.8 167.25 413.34)"/></g></g></svg>
