<?xml version="1.0" encoding="UTF-8" standalone="no"?>
<svg
   xmlns:dc="http://purl.org/dc/elements/1.1/"
   xmlns:cc="http://creativecommons.org/ns#"
   xmlns:rdf="http://www.w3.org/1999/02/22-rdf-syntax-ns#"
   xmlns:svg="http://www.w3.org/2000/svg"
   xmlns="http://www.w3.org/2000/svg"
   viewBox="0 0 414.58667 106.24"
   height="106.24"
   width="414.58667"
   xml:space="preserve"
   id="svg2"
   version="1.1"><metadata
     id="metadata8"><rdf:RDF><cc:Work
         rdf:about=""><dc:format>image/svg+xml</dc:format><dc:type
           rdf:resource="http://purl.org/dc/dcmitype/StillImage" /></cc:Work></rdf:RDF></metadata><defs
     id="defs6"><clipPath
       id="clipPath20"
       clipPathUnits="userSpaceOnUse"><path
         id="path18"
         d="M 0,0 H 3109 V 796.805 H 0 Z" /></clipPath></defs><g
     transform="matrix(1.3333333,0,0,-1.3333333,0,106.24)"
     id="g10"><g
       transform="scale(0.1)"
       id="g12"><g
         id="g14"><g
           clip-path="url(#clipPath20)"
           id="g16"><path
             id="path22"
             style="fill:#006838;fill-opacity:1;fill-rule:nonzero;stroke:none"
             d="m 381.809,421.285 c 0,-37.863 -5.133,-53.281 48.789,-53.281 148.269,0 170.09,66.113 178.437,66.113 4.496,0 5.141,-6.418 5.141,-7.695 0,-23.106 -16.696,-45.578 -32.102,-62.258 -20.535,-23.113 -34.66,-21.836 -62.898,-21.836 -48.785,0 -97.571,3.86 -146.352,2.57 -25.683,-0.644 -52.636,-2.57 -78.312,-2.57 -5.782,0 -9.633,1.289 -9.633,6.426 1.289,7.695 7.711,6.406 28.254,16.691 16.687,7.696 17.969,25.672 17.969,55.84 v 325.438 c 0,33.379 -53.922,28.886 -53.922,41.718 0,7.063 4.492,8.344 12.84,8.344 13.476,0 33.375,-2.562 64.824,-2.562 36.594,0 52,2.562 61.629,2.562 8.343,0 12.195,-1.281 12.195,-8.976 0,-14.766 -46.859,1.277 -46.859,-54.563 V 421.285" /><path
             id="path24"
             style="fill:#006838;fill-opacity:1;fill-rule:nonzero;stroke:none"
             d="m 694.621,551.098 c 0,-16.981 -0.996,-16.981 18.973,-16.981 h 53.918 c 51.922,0 38.445,39.942 50.429,39.942 3.985,0 5.493,-5.489 5.493,-9.485 0,-17.48 -1,-34.453 -1,-50.418 0,-12.98 1,-25.968 1,-39.445 0,-4.5 -1.996,-6.492 -5.493,-6.492 -15.48,0 1.493,43.926 -40.445,43.926 h -73.887 c -10.476,0 -8.988,-8.489 -8.988,-15.969 v -91.863 c 0,-29.465 -3.988,-41.438 37.949,-41.438 115.325,0 132.305,51.418 138.782,51.418 3.5,0 4,-5 4,-5.996 0,-17.961 -12.977,-35.442 -24.957,-48.43 -15.981,-17.969 -26.961,-16.972 -48.93,-16.972 -37.949,0 -75.887,3.007 -113.832,2.003 -19.977,-0.5 -40.938,-2.003 -60.906,-2.003 -4.497,0 -7.493,1.015 -7.493,5 1,5.996 5.993,4.98 21.969,12.968 12.977,5.996 13.981,19.981 13.981,43.45 v 227.664 c 0,22.453 0,46.425 -26.961,50.421 -3.993,1.004 -14.981,2 -14.981,7.989 0,3.992 3,5.976 17.477,5.976 94.355,0 120.324,-1.984 141.289,-1.984 9.984,0 55.918,1.984 71.39,1.984 3.993,0 4.993,-4.98 4.993,-10.976 0,-55.422 -6.985,-59.407 -9.977,-59.407 -11.98,0 -4,23.965 -11.98,35.45 -12.985,16.972 -64.911,13.976 -84.875,13.976 -47.934,0 -46.938,2 -46.938,-31.445 v -92.863" /><path
             id="path26"
             style="fill:#006838;fill-opacity:1;fill-rule:nonzero;stroke:none"
             d="m 1472.53,401.391 c 3.2,-53.914 50.7,-30.176 50.7,-52.637 0,-6.426 -8.35,-6.426 -15.39,-6.426 -12.21,0 -34.68,2.57 -60.35,2.57 -19.91,0 -40.43,-2.57 -56.49,-2.57 -5.78,0 -7.05,3.223 -7.05,5.781 0,19.258 40.43,5.137 39.8,52.629 l -6.43,249.051 c 0,16.055 -3.21,25.051 -7.07,25.051 -4.49,0 -10.26,-5.781 -16.68,-19.258 L 1260.7,384.703 c -3.22,-5.773 -13.48,-32.101 -19.9,-32.101 -6.43,0 -10.92,14.121 -12.84,18.613 l -136.72,286.289 c -1.93,5.129 -5.14,7.051 -7.71,7.051 -1.91,0 -3.85,-3.211 -4.49,-9.629 l -7.7,-225.293 c -3.21,-85.379 57.76,-57.129 57.76,-80.242 0,-6.418 -7.05,-7.063 -16.03,-7.063 -8.36,0 -37.23,2.57 -56.49,2.57 -33.38,0 -44.29,-2.57 -55.85,-2.57 -4.503,0 -6.41,3.223 -6.41,7.695 0,21.836 41.07,-4.472 45.56,62.278 7.7,104.629 15.41,172.664 15.41,240.711 0,150.84 -60.97,114.894 -60.97,136.718 0,5.774 5.129,7.055 10.91,7.055 11.54,0 23.12,-2.562 35.3,-2.562 11.55,0 23.1,2.562 34.67,2.562 8.98,0 10.26,-10.91 13.47,-17.972 l 152.77,-326.075 c 7.06,-13.476 9.64,-19.246 14.11,-19.246 3.22,0 9.64,13.465 19.91,34.637 l 152.76,306.848 c 3.86,7.05 9,22.468 16.7,21.808 6.41,0 26.96,-2.562 30.18,-2.562 14.75,0 20.53,2.562 30.81,2.562 3.83,0 6.41,-3.832 6.41,-7.699 0,-20.535 -51.36,7.051 -48.78,-69.324 l 8.99,-318.371" /><path
             id="path28"
             style="fill:#006838;fill-opacity:1;fill-rule:nonzero;stroke:none"
             d="m 1564.93,536.109 c 0,-92.363 55.73,-181.718 154.61,-181.718 72.88,0 126.65,58.398 126.65,150.769 0,90.871 -56.76,179.238 -154.12,179.238 -83.87,0 -127.14,-69.402 -127.14,-148.289 z m -41.1,-14.472 c 0,103.847 80.88,179.226 183.21,179.226 101.87,0 180.25,-73.386 180.25,-176.738 0,-112.324 -77.4,-184.727 -188.72,-184.727 -108.35,0 -174.74,76.895 -174.74,182.239" /><path
             id="path30"
             style="fill:#006838;fill-opacity:1;fill-rule:nonzero;stroke:none"
             d="m 1894.06,664.918 c -12.99,21.473 -37.45,15.477 -37.45,23.965 0,3.496 3.01,7.48 6.5,7.48 13.49,0 22.96,-1.984 56.92,-1.984 16.47,0 29.95,1.984 34.94,1.984 3.5,0 9.48,-0.488 9.48,-4.98 0,-8.488 -23.46,-8.985 -23.46,-23.457 0,-8 5.98,-15.988 8.99,-20.469 l 60.42,-96.359 c 3.98,-5.996 6.97,-8.985 9.96,-8.985 2.53,0 5.5,3.489 9.5,9.973 l 51.42,83.387 c 3.5,5.488 10.49,13.976 10.49,27.453 0,24.461 -37.44,13.972 -37.44,25.957 0,6.492 4.99,7.48 10.48,7.48 11.98,0 25.18,0 37.16,0 14.48,0 28.25,0 42.72,0 2.99,0 5.49,-3.476 5.49,-5.976 0,-3.301 4.83,-5.254 0.94,-5.489 -4.8,-0.332 -11.54,-3.203 -12.94,-3.996 -13.46,-7.996 -19.95,-21.972 -27.96,-34.453 l -69.87,-108.836 c -8.01,-12.48 -11.99,-14.972 -11.99,-22.472 V 392.836 c 0,-43.445 40.94,-29.473 40.94,-44.941 0,-4.493 -4.49,-5 -11.48,-5 -7.49,0 -36.44,2.003 -54.92,2.003 -22.47,0 -40.44,-2.003 -44.93,-2.003 -4.49,0 -7.49,0.507 -7.49,5.996 0,13.984 38.45,0.996 38.45,36.437 v 120.828 c 0,9.485 -7.5,19.473 -11.5,25.461 l -83.37,133.301" /><path
             id="path32"
             style="fill:#006838;fill-opacity:1;fill-rule:nonzero;stroke:none"
             d="m 2200.59,598.031 c 0,68.547 -25.71,86.582 -48.59,86.848 -10.46,0.125 -11.81,0.223 -11.81,6.504 0,2.996 0.34,4.98 2.84,4.98 7.98,0 19.52,0 27.48,0 7.5,0 16.12,0 23.59,0 5.5,0 10,-7.98 12.98,-11.465 l 238.15,-265.117 c 2.98,-3.488 4.99,-5.488 6,-5.488 0.99,0 1.49,1.504 1.49,5.488 v 208.692 c 0,65.398 -55.41,46.433 -55.41,62.91 0,3.496 2.5,4.98 5.49,4.98 14.97,0 29.46,-1.984 45.41,-1.984 16.99,0 38.46,1.984 50.44,1.984 2.99,0 4.98,-1.484 4.98,-4.484 0,-12.977 -29.44,-3.984 -29.44,-40.438 V 362.367 c 0,-14.472 -0.52,-21.453 -4.5,-21.453 -3.5,0 -8.49,2.488 -18.97,13.973 L 2236.06,596.52 c -1.01,0.996 -7.01,9.48 -10.5,9.48 -2,0 -3.49,-1.484 -3.49,-11.473 V 390.336 c 0,-44.941 43.92,-27.461 43.92,-40.945 0,-2.493 -0.49,-6.496 -5.48,-6.496 -11.98,0 -25.97,2.003 -50.42,2.003 -17.48,0 -43.44,-2.003 -46.94,-2.003 -5.99,0 -6.5,3.007 -6.5,5.507 0,17.461 43.94,-4.492 43.94,65.403 v 184.226" /><path
             id="path34"
             style="fill:#006838;fill-opacity:1;fill-rule:nonzero;stroke:none"
             d="m 2603.83,551.098 c 0,-16.981 -1.01,-16.981 18.97,-16.981 h 53.93 c 51.92,0 38.45,39.942 50.42,39.942 3.99,0 5.49,-5.489 5.49,-9.485 0,-17.48 -1,-34.453 -1,-50.418 0,-12.98 1,-25.968 1,-39.445 0,-4.5 -1.99,-6.492 -5.49,-6.492 -15.48,0 1.5,43.926 -40.44,43.926 h -73.89 c -10.48,0 -8.99,-8.489 -8.99,-15.969 v -91.863 c 0,-29.465 -3.99,-41.438 37.94,-41.438 115.34,0 132.31,51.418 138.8,51.418 3.48,0 4,-5 4,-5.996 0,-17.961 -12.98,-35.442 -24.96,-48.43 -16,-17.969 -26.97,-16.972 -48.93,-16.972 -37.95,0 -75.89,3.007 -113.84,2.003 -19.97,-0.5 -40.94,-2.003 -60.91,-2.003 -4.48,0 -7.48,1.015 -7.48,5 0.99,5.996 5.98,4.98 21.96,12.968 12.98,5.996 13.98,19.981 13.98,43.45 v 227.664 c 0,22.453 0,46.425 -26.96,50.421 -3.99,1.004 -14.97,2 -14.97,7.989 0,3.992 2.99,5.976 17.48,5.976 94.35,0 120.31,-1.984 141.27,-1.984 9.99,0 55.92,1.984 71.41,1.984 3.98,0 4.99,-4.98 4.99,-10.976 0,-55.422 -7,-59.407 -9.99,-59.407 -11.98,0 -4.01,23.965 -11.98,35.45 -12.98,16.972 -64.91,13.976 -84.88,13.976 -47.94,0 -46.93,2 -46.93,-31.445 v -92.863" /><path
             id="path36"
             style="fill:#b09247;fill-opacity:1;fill-rule:nonzero;stroke:none"
             d="m 200.145,109.938 c 2.328,0 7.835,1.156 7.835,-2.614 0,-6.094 -14.792,0.582 -14.792,-18.8552 V 29.2969 C 163.313,19.7227 155.48,0 103.848,0 39.7422,0 0,39.7344 0,104.133 c 0,62.652 46.9922,105.879 108.484,105.879 50.184,0 64.692,-19.731 72.809,-19.731 3.195,0 4.352,5.223 7.547,5.223 4.055,0 2.898,-4.352 3.187,-6.672 l 2.899,-37.996 c 0,-2.32 -0.285,-5.227 -3.188,-5.227 -7.543,0 -20.593,55.989 -89.05,55.989 -52.2153,0 -78.3247,-44.094 -78.3247,-91.953 0,-51.3442 29.5937,-100.36375 85.5747,-100.36375 26.394,0 60.335,13.05465 60.335,37.70705 v 44.9609 c 0,13.6328 -25.238,7.543 -25.238,14.7928 0,3.77 4.063,3.196 6.676,3.196 h 48.434" /><path
             id="path38"
             style="fill:#b09247;fill-opacity:1;fill-rule:nonzero;stroke:none"
             d="m 262.461,27.5547 c 0,-26.980481 25.816,-13.0508 25.816,-22.33595 0,-2.60937 -1.453,-3.19141 -4.644,-3.19141 -4.059,0 -11.02,1.16016 -27.266,1.16016 -19.433,0 -24.652,-1.16016 -26.683,-1.16016 -2.321,0 -3.196,0.8711 -3.196,2.61329 0,6.09377 14.797,4.92968 14.797,16.82417 v 74.836 c 0,17.4062 -20.887,9.8592 -20.887,15.9572 0,1.734 2.321,2.898 3.774,3.187 22.332,5.223 28.137,14.504 34.808,14.504 1.739,0 3.481,-1.742 3.481,-4.64 v -21.754 h 0.582 c 6.09,8.41 16.531,24.074 28.715,24.074 6.09,0 19.144,-7.539 19.144,-13.055 0,-4.347 -6.961,-13.051 -10.441,-13.051 -5.516,0 -8.703,6.668 -19.148,6.668 -11.887,0 -18.852,-13.3433 -18.852,-17.1129 V 27.5547" /><path
             id="path40"
             style="fill:#b09247;fill-opacity:1;fill-rule:nonzero;stroke:none"
             d="m 397.027,84.4102 c 4.063,0 5.801,1.4492 5.801,5.8007 0,16.2421 -16.246,30.7461 -32.199,30.7461 -17.984,0 -30.746,-20.598 -30.746,-36.5468 z m -57.144,-7.8321 c 0,-47.8633 29.008,-62.0742 46.699,-62.0742 24.945,0 34.523,15.082 40.902,15.082 1.161,0 1.161,-1.164 1.161,-2.0312 C 428.645,20.8828 403.406,0 377.301,0 c -43.508,0 -58.594,40.3164 -58.594,59.4648 0,37.129 20.594,68.1642 56.856,68.1642 35.675,0 51.339,-34.5196 51.339,-46.1212 0,-5.2226 -3.191,-4.9297 -9.859,-4.9297 h -77.16" /><path
             id="path42"
             style="fill:#b09247;fill-opacity:1;fill-rule:nonzero;stroke:none"
             d="m 519.691,65.5508 c -18.562,-4.0586 -53.953,-8.6992 -53.953,-34.2266 0,-16.5351 8.41,-22.91795 23.782,-22.91795 10.445,0 30.171,8.12505 30.171,23.49605 z m 0,29.2969 c 0,15.0903 -11.894,25.2423 -29.878,25.2423 -13.922,0 -25.239,-1.453 -25.239,-17.41 0,-4.3519 1.742,-8.6995 1.742,-11.8909 0,-3.1914 -0.867,-5.5118 -6.378,-5.5118 -4.934,0 -13.633,4.3516 -13.633,9.5704 0.289,13.3433 16.531,33.6523 48.73,32.7813 17.985,0 45.828,-5.223 45.828,-29.879 V 37.7031 c 0,-9.8554 -2.605,-26.9687 12.477,-26.9687 1.156,0 3.769,0.5742 4.93,0.5742 1.453,0 3.773,0 3.773,-2.02735 0,-6.09375 -12.766,-7.25391 -16.828,-7.25391 -11.309,0 -18.852,5.22266 -22.621,14.79296 C 510.41,6.37891 494.453,0 478.215,0 c -18.86,0 -31.328,6.95703 -31.328,27.5547 0,15.375 4.929,33.6445 72.804,44.9609 v 22.3321" /><path
             id="path44"
             style="fill:#b09247;fill-opacity:1;fill-rule:nonzero;stroke:none"
             d="m 585.797,111.965 c -13.633,0 -15.664,0 -15.664,2.027 0,2.321 7.25,7.254 22.047,23.496 5.8,6.965 8.699,13.348 11.019,13.348 4.063,0 3.774,-6.094 3.774,-26.977 h 31.906 c 7.25,0 10.441,4.93 11.312,4.93 1.45,0 2.032,-1.449 2.032,-2.32 0,-1.16 -0.871,-2.61 -1.739,-4.063 L 644.68,111.965 H 606.973 V 27.5547 c 0.578,-11.8945 8.703,-17.4024 20.3,-17.4024 15.379,0 19.731,6.668 24.661,6.668 1.156,0 2.32,-0.289 2.32,-2.6094 C 654.254,9.85938 638.59,0 618.281,0 604.941,0 585.797,3.76953 585.797,33.6484 v 78.3166" /><path
             id="path46"
             style="fill:#b09247;fill-opacity:1;fill-rule:nonzero;stroke:none"
             d="m 701.215,25.5234 c 0,-20.01559 25.527,-11.6015 25.527,-19.43356 0,-3.48046 -2.031,-4.0625 -6.383,-4.0625 -4.929,0 -10.73,1.16016 -27.55,1.16016 -15.375,0 -21.176,-1.16016 -24.661,-1.16016 -3.769,0 -5.218,0.58204 -5.218,3.48047 0,5.80079 17.113,0 17.113,18.85549 v 71.9375 c 0,17.4062 -21.465,9.8592 -21.465,15.9572 0,1.734 1.156,2.898 2.61,3.187 24.078,5.223 29.875,14.504 36.55,14.504 1.739,0 3.477,-1.742 3.477,-4.64 V 106.16 c -0.574,-3.48 13.926,21.469 42.062,21.469 38.871,0 47.286,-32.1993 47.286,-54.2462 V 25.5234 c 0,-20.01559 22.621,-11.6015 22.621,-19.43356 0,-3.48046 -2.032,-4.0625 -4.93,-4.0625 -3.774,0 -11.024,1.16016 -25.234,1.16016 -11.024,0 -17.118,-1.16016 -20.887,-1.16016 -3.774,0 -5.223,0.58204 -5.223,3.48047 0,5.80079 12.477,0 12.477,18.85549 v 54.2461 c 0,14.5 -10.446,36.2536 -33.942,36.2536 -24.367,0 -34.515,-17.9841 -34.23,-22.6208 V 25.5234" /><path
             id="path48"
             style="fill:#b09247;fill-opacity:1;fill-rule:nonzero;stroke:none"
             d="m 900.746,84.4102 c 4.063,0 5.801,1.4492 5.801,5.8007 0,16.2421 -16.242,30.7461 -32.195,30.7461 -17.985,0 -30.747,-20.598 -30.747,-36.5468 z m -57.141,-7.8321 c 0,-47.8633 29.008,-62.0742 46.7,-62.0742 24.945,0 34.519,15.082 40.902,15.082 1.156,0 1.156,-1.164 1.156,-2.0312 C 932.363,20.8828 907.129,0 881.02,0 c -43.504,0 -58.594,40.3164 -58.594,59.4648 0,37.129 20.597,68.1642 56.855,68.1642 35.68,0 51.344,-34.5196 51.344,-46.1212 0,-5.2226 -3.191,-4.9297 -9.863,-4.9297 h -77.157" /><path
             id="path50"
             style="fill:#b09247;fill-opacity:1;fill-rule:nonzero;stroke:none"
             d="m 950.023,92.8203 c 0,23.2027 17.985,34.8087 39.161,34.8087 4.933,0 24.946,-2.32 28.426,-6.672 1.74,-2.32 1.45,-12.184 1.45,-14.215 0,-7.8318 1.16,-11.3123 -3.19,-11.3123 -2.9,0 -5.51,25.2383 -31.909,25.2383 -11.309,0 -20.305,-6.676 -20.305,-18.563 0,-9.5777 7.539,-15.6636 38.004,-27.8472 16.53,-6.9609 24.07,-15.957 24.07,-34.5234 C 1025.73,17.9844 1008.04,0 986.57,0 c -20.3,0 -25.523,8.40625 -32.484,8.40625 -6.383,0 -6.383,0.29297 -6.383,23.21095 0,4.9297 -0.871,14.2109 3.481,14.2109 6.379,0 3.191,-38.28904 34.519,-38.28904 14.215,0 25.817,8.69924 25.817,23.78514 0,15.375 -14.797,20.0156 -26.399,25.5274 -15.664,7.832 -35.098,15.375 -35.098,35.9687" /><path
             id="path52"
             style="fill:#b09247;fill-opacity:1;fill-rule:nonzero;stroke:none"
             d="m 1043.69,92.8203 c 0,23.2027 17.98,34.8087 39.16,34.8087 4.93,0 24.95,-2.32 28.42,-6.672 1.75,-2.32 1.46,-12.184 1.46,-14.215 0,-7.8318 1.16,-11.3123 -3.19,-11.3123 -2.9,0 -5.52,25.2383 -31.91,25.2383 -11.31,0 -20.31,-6.676 -20.31,-18.563 0,-9.5777 7.55,-15.6636 38,-27.8472 16.54,-6.9609 24.08,-15.957 24.08,-34.5234 C 1119.4,17.9844 1101.7,0 1080.24,0 c -20.3,0 -25.53,8.40625 -32.49,8.40625 -6.38,0 -6.38,0.29297 -6.38,23.21095 0,4.9297 -0.87,14.2109 3.48,14.2109 6.38,0 3.19,-38.28904 34.52,-38.28904 14.21,0 25.82,8.69924 25.82,23.78514 0,15.375 -14.8,20.0156 -26.4,25.5274 -15.66,7.832 -35.1,15.375 -35.1,35.9687" /><path
             id="path54"
             style="fill:#b09247;fill-opacity:1;fill-rule:nonzero;stroke:none"
             d="m 1242.35,25.5234 c 0,-20.01559 22.34,-11.6015 22.34,-19.43356 0,-3.48046 -2.03,-4.0625 -4.93,-4.0625 -3.78,0 -13.35,1.16016 -25.53,1.16016 -11.9,0 -17.98,-1.16016 -21.47,-1.16016 -2.32,0 -3.48,1.44922 -3.48,3.77344 0,4.35152 11.9,3.48047 11.9,15.95312 v 74.5469 c 0,17.4062 -18.28,9.8592 -18.28,15.9572 0,1.734 1.16,2.898 2.61,3.187 20.89,5.223 26.69,14.504 33.36,14.504 1.74,0 3.48,-1.742 3.48,-4.64 V 108.48 c 8.7,9.864 20.59,19.149 34.52,19.149 17.7,0 28.43,-5.805 37.42,-21.176 8.99,13.344 20.59,21.176 40.32,21.176 42.93,0 41.48,-42.9337 41.48,-53.0821 V 25.5234 c 0,-20.01559 22.33,-11.6015 22.33,-19.43356 0,-3.48046 -2.03,-4.0625 -4.93,-4.0625 -3.77,0 -13.34,1.16016 -25.53,1.16016 -11.89,0 -17.98,-1.16016 -21.46,-1.16016 -2.32,0 -3.48,1.44922 -3.48,3.77344 0,4.35152 11.89,3.48047 11.89,15.95312 v 56.2734 c 0,17.6954 -6.67,38.8677 -30.16,38.8677 -13.64,0 -25.53,-11.891 -25.53,-16.247 V 25.5234 c 0,-20.01559 22.33,-11.6015 22.33,-19.43356 0,-3.48046 -2.02,-4.0625 -4.93,-4.0625 -3.77,0 -13.34,1.16016 -25.52,1.16016 -11.9,0 -17.99,-1.16016 -21.47,-1.16016 -2.32,0 -3.48,1.44922 -3.48,3.77344 0,4.35152 11.89,3.48047 11.89,15.95312 v 61.207 c 0,22.9141 -13.63,33.9341 -28.13,33.9341 -8.12,0 -27.56,-5.219 -27.56,-25.5239 V 25.5234" /><path
             id="path56"
             style="fill:#b09247;fill-opacity:1;fill-rule:nonzero;stroke:none"
             d="m 1506.26,84.4102 c 4.06,0 5.8,1.4492 5.8,5.8007 0,16.2421 -16.24,30.7461 -32.2,30.7461 -17.98,0 -30.74,-20.598 -30.74,-36.5468 z m -57.14,-7.8321 c 0,-47.8633 29.01,-62.0742 46.7,-62.0742 24.94,0 34.52,15.082 40.9,15.082 1.16,0 1.16,-1.164 1.16,-2.0312 C 1537.88,20.8828 1512.64,0 1486.53,0 c -43.5,0 -58.59,40.3164 -58.59,59.4648 0,37.129 20.6,68.1642 56.85,68.1642 35.68,0 51.35,-34.5196 51.35,-46.1212 0,-5.2226 -3.2,-4.9297 -9.87,-4.9297 h -77.15" /><path
             id="path58"
             style="fill:#b09247;fill-opacity:1;fill-rule:nonzero;stroke:none"
             d="m 1632.11,84.4102 c 4.06,0 5.8,1.4492 5.8,5.8007 0,16.2421 -16.24,30.7461 -32.2,30.7461 -17.98,0 -30.74,-20.598 -30.74,-36.5468 z m -57.14,-7.8321 c 0,-47.8633 29,-62.0742 46.7,-62.0742 24.94,0 34.52,15.082 40.9,15.082 1.16,0 1.16,-1.164 1.16,-2.0312 C 1663.73,20.8828 1638.5,0 1612.38,0 c -43.5,0 -58.59,40.3164 -58.59,59.4648 0,37.129 20.6,68.1642 56.85,68.1642 35.69,0 51.35,-34.5196 51.35,-46.1212 0,-5.2226 -3.19,-4.9297 -9.86,-4.9297 h -77.16" /><path
             id="path60"
             style="fill:#b09247;fill-opacity:1;fill-rule:nonzero;stroke:none"
             d="m 1695.02,111.965 c -13.63,0 -15.66,0 -15.66,2.027 0,2.321 7.25,7.254 22.05,23.496 5.8,6.965 8.7,13.348 11.01,13.348 4.06,0 3.78,-6.094 3.78,-26.977 h 31.91 c 7.24,0 10.43,4.93 11.3,4.93 1.46,0 2.04,-1.449 2.04,-2.32 0,-1.16 -0.87,-2.61 -1.74,-4.063 l -5.8,-10.441 H 1716.2 V 27.5547 c 0.58,-11.8945 8.7,-17.4024 20.3,-17.4024 15.38,0 19.73,6.668 24.66,6.668 1.15,0 2.32,-0.289 2.32,-2.6094 C 1763.48,9.85938 1747.81,0 1727.51,0 c -13.34,0 -32.49,3.76953 -32.49,33.6484 v 78.3166" /><path
             id="path62"
             style="fill:#b09247;fill-opacity:1;fill-rule:nonzero;stroke:none"
             d="m 1775.06,92.8203 c 0,23.2027 17.98,34.8087 39.16,34.8087 4.93,0 24.94,-2.32 28.42,-6.672 1.74,-2.32 1.45,-12.184 1.45,-14.215 0,-7.8318 1.16,-11.3123 -3.19,-11.3123 -2.9,0 -5.51,25.2383 -31.91,25.2383 -11.3,0 -20.3,-6.676 -20.3,-18.563 0,-9.5777 7.54,-15.6636 38,-27.8472 16.53,-6.9609 24.07,-15.957 24.07,-34.5234 C 1850.76,17.9844 1833.07,0 1811.6,0 c -20.3,0 -25.53,8.40625 -32.48,8.40625 -6.39,0 -6.39,0.29297 -6.39,23.21095 0,4.9297 -0.86,14.2109 3.48,14.2109 6.39,0 3.19,-38.28904 34.52,-38.28904 14.22,0 25.82,8.69924 25.82,23.78514 0,15.375 -14.79,20.0156 -26.39,25.5274 -15.67,7.832 -35.1,15.375 -35.1,35.9687" /><path
             id="path64"
             style="fill:#b09247;fill-opacity:1;fill-rule:nonzero;stroke:none"
             d="m 2134.41,109.938 c 2.33,0 7.84,1.156 7.84,-2.614 0,-6.094 -14.8,0.582 -14.8,-18.8552 V 29.2969 C 2097.58,19.7227 2089.75,0 2038.12,0 1974,0 1934.27,39.7344 1934.27,104.133 c 0,62.652 46.99,105.879 108.48,105.879 50.18,0 64.69,-19.731 72.81,-19.731 3.19,0 4.35,5.223 7.55,5.223 4.05,0 2.9,-4.352 3.18,-6.672 l 2.9,-37.996 c 0,-2.32 -0.28,-5.227 -3.18,-5.227 -7.55,0 -20.6,55.989 -89.06,55.989 -52.21,0 -78.32,-44.094 -78.32,-91.953 0,-51.3442 29.59,-100.36375 85.57,-100.36375 26.4,0 60.34,13.05465 60.34,37.70705 v 44.9609 c 0,13.6328 -25.24,7.543 -25.24,14.7928 0,3.77 4.06,3.196 6.68,3.196 h 48.43" /><path
             id="path66"
             style="fill:#b09247;fill-opacity:1;fill-rule:nonzero;stroke:none"
             d="m 2265.76,58.5938 c 0,29.875 -12.47,62.6522 -46.99,62.6522 -28.43,0 -40.03,-24.9452 -40.03,-49.6015 0,-28.4257 13.34,-65.55466 47.29,-65.55466 24.36,0 39.73,16.53126 39.73,52.50396 z m -107.32,2.8984 c 0,35.6797 28.13,66.1368 64.69,66.1368 22.04,0 62.93,-10.734 62.93,-64.6837 C 2286.06,27.2656 2259.09,0 2223.41,0 c -37.71,0 -64.97,22.3359 -64.97,61.4922" /><path
             id="path68"
             style="fill:#b09247;fill-opacity:1;fill-rule:nonzero;stroke:none"
             d="m 2407.86,58.5938 c 0,29.875 -12.47,62.6522 -46.99,62.6522 -28.43,0 -40.03,-24.9452 -40.03,-49.6015 0,-28.4257 13.34,-65.55466 47.29,-65.55466 24.36,0 39.73,16.53126 39.73,52.50396 z m -107.32,2.8984 c 0,35.6797 28.13,66.1368 64.68,66.1368 22.05,0 62.94,-10.734 62.94,-64.6837 C 2428.16,27.2656 2401.19,0 2365.51,0 c -37.71,0 -64.97,22.3359 -64.97,61.4922" /><path
             id="path70"
             style="fill:#b09247;fill-opacity:1;fill-rule:nonzero;stroke:none"
             d="m 2538.29,87.3086 c 0,21.4644 -17.4,33.6484 -38.29,33.6484 -27.27,0 -39.45,-25.5273 -39.45,-49.6054 0,-24.0703 17.41,-58.8789 44.96,-58.8789 24.08,0 32.78,14.7929 32.78,25.2304 z m 0,98.3364 c 0,17.402 -22.92,9.859 -22.92,15.953 0,1.738 1.16,2.898 2.62,3.187 22.33,5.227 31.33,14.508 38,14.508 1.73,0 3.47,-1.742 3.47,-4.645 V 16.2383 c 0,-3.4805 5.8,-5.7969 15.37,-7.25002 2.04,-0.28906 3.2,-0.28906 3.2,-2.60937 0,-2.02735 -7.54,-4.0586 -18.27,-4.0586 -7.54,0 -15.67,-2.32031 -18.28,-2.32031 -2.32,0 -3.19,2.32031 -3.19,4.35156 V 20.3047 h -0.58 C 2527.85,7.82813 2511.89,0 2495.07,0 c -31.91,0 -51.34,29.2969 -51.34,59.1719 0,34.2265 24.07,68.4571 60.63,68.4571 12.17,0 24.07,-3.484 33.93,-10.152 v 68.168" /><path
             id="path72"
             style="fill:#b09247;fill-opacity:1;fill-rule:nonzero;stroke:none"
             d="m 2625.57,25.5234 c 0,-20.01559 25.52,-11.6015 25.52,-19.43356 0,-3.48046 -2.03,-4.0625 -6.38,-4.0625 -4.93,0 -10.74,1.16016 -27.55,1.16016 -15.38,0 -21.18,-1.16016 -24.66,-1.16016 -3.77,0 -5.22,0.58204 -5.22,3.48047 0,5.80079 17.11,0 17.11,18.85549 v 71.9375 c 0,17.4062 -21.46,9.8592 -21.46,15.9572 0,1.734 1.15,2.898 2.61,3.187 24.07,5.223 29.87,14.504 36.55,14.504 1.74,0 3.48,-1.742 3.48,-4.64 V 106.16 c -0.58,-3.48 13.92,21.469 42.06,21.469 38.86,0 47.28,-32.1993 47.28,-54.2462 V 25.5234 c 0,-20.01559 22.62,-11.6015 22.62,-19.43356 0,-3.48046 -2.03,-4.0625 -4.93,-4.0625 -3.77,0 -11.02,1.16016 -25.24,1.16016 -11.01,0 -17.11,-1.16016 -20.88,-1.16016 -3.77,0 -5.22,0.58204 -5.22,3.48047 0,5.80079 12.47,0 12.47,18.85549 v 54.2461 c 0,14.5 -10.44,36.2536 -33.94,36.2536 -24.36,0 -34.52,-17.9841 -34.22,-22.6208 V 25.5234" /><path
             id="path74"
             style="fill:#b09247;fill-opacity:1;fill-rule:nonzero;stroke:none"
             d="m 2825.1,84.4102 c 4.06,0 5.8,1.4492 5.8,5.8007 0,16.2421 -16.25,30.7461 -32.2,30.7461 -17.99,0 -30.75,-20.598 -30.75,-36.5468 z m -57.15,-7.8321 c 0,-47.8633 29.01,-62.0742 46.7,-62.0742 24.95,0 34.52,15.082 40.91,15.082 1.15,0 1.15,-1.164 1.15,-2.0312 C 2856.71,20.8828 2831.47,0 2805.37,0 c -43.5,0 -58.59,40.3164 -58.59,59.4648 0,37.129 20.59,68.1642 56.85,68.1642 35.68,0 51.34,-34.5196 51.34,-46.1212 0,-5.2226 -3.19,-4.9297 -9.86,-4.9297 h -77.16" /><path
             id="path76"
             style="fill:#b09247;fill-opacity:1;fill-rule:nonzero;stroke:none"
             d="m 2874.38,92.8203 c 0,23.2027 17.97,34.8087 39.16,34.8087 4.93,0 24.94,-2.32 28.41,-6.672 1.75,-2.32 1.46,-12.184 1.46,-14.215 0,-7.8318 1.16,-11.3123 -3.2,-11.3123 -2.9,0 -5.5,25.2383 -31.9,25.2383 -11.31,0 -20.3,-6.676 -20.3,-18.563 0,-9.5777 7.54,-15.6636 38,-27.8472 16.53,-6.9609 24.07,-15.957 24.07,-34.5234 0,-21.75 -17.7,-39.7344 -39.16,-39.7344 -20.3,0 -25.53,8.40625 -32.48,8.40625 -6.39,0 -6.39,0.29297 -6.39,23.21095 0,4.9297 -0.87,14.2109 3.48,14.2109 6.38,0 3.19,-38.28904 34.52,-38.28904 14.22,0 25.82,8.69924 25.82,23.78514 0,15.375 -14.8,20.0156 -26.4,25.5274 -15.66,7.832 -35.09,15.375 -35.09,35.9687" /><path
             id="path78"
             style="fill:#b09247;fill-opacity:1;fill-rule:nonzero;stroke:none"
             d="m 2968.04,92.8203 c 0,23.2027 17.99,34.8087 39.16,34.8087 4.93,0 24.95,-2.32 28.43,-6.672 1.73,-2.32 1.45,-12.184 1.45,-14.215 0,-7.8318 1.15,-11.3123 -3.19,-11.3123 -2.9,0 -5.52,25.2383 -31.92,25.2383 -11.31,0 -20.3,-6.676 -20.3,-18.563 0,-9.5777 7.54,-15.6636 38,-27.8472 16.53,-6.9609 24.08,-15.957 24.08,-34.5234 0,-21.75 -17.7,-39.7344 -39.16,-39.7344 -20.3,0 -25.53,8.40625 -32.49,8.40625 -6.38,0 -6.38,0.29297 -6.38,23.21095 0,4.9297 -0.88,14.2109 3.48,14.2109 6.38,0 3.19,-38.28904 34.52,-38.28904 14.21,0 25.81,8.69924 25.81,23.78514 0,15.375 -14.79,20.0156 -26.4,25.5274 -15.66,7.832 -35.09,15.375 -35.09,35.9687" /><path
             id="path80"
             style="fill:#b09247;fill-opacity:1;fill-rule:nonzero;stroke:none"
             d="m 3075.57,101.707 c 0,-0.91 2.97,-0.668 5.22,-0.668 2.06,0 6.66,0.859 6.66,6.797 0,5.84 -4.46,7.801 -9.15,7.801 -1.72,0 -2.73,0.097 -2.73,-1.77 z M 3093,88.543 c 3.44,-5.2657 5.79,-3.4922 5.79,-4.6446 0,-0.5742 -2.68,-0.5742 -3.11,-0.5742 -3.5,0 -5.36,2.4414 -7.18,5.1719 l -5.31,8.375 c -1.73,2.6836 -1.01,2.5391 -6.37,2.5391 -1.53,0 -1.25,-0.8594 -1.25,-1.3399 V 87.9688 c 0,-4.1172 4.98,-2.6329 4.98,-4.2618 0,-0.4765 -0.43,-0.3828 -0.81,-0.3828 -0.43,0 -1.53,0.1914 -5.51,0.1914 -1.82,0 -3.63,-0.1914 -5.45,-0.1914 -0.29,0 -0.48,0.2422 -0.48,0.5274 0,1.1992 3.49,0.5273 3.49,4.164 v 24.3674 c 0,4.594 -4.12,2.633 -4.12,4.262 0,0.289 0.39,0.574 0.96,0.574 0.86,0 0.62,-0.192 3.07,-0.192 2.77,0 5.5,0.192 7.99,0.192 0.77,0 11.35,0.957 11.35,-8.281 0,-3.735 -2.69,-6.942 -6.04,-8.286 l 8,-12.109" /><path
             id="path82"
             style="fill:none;stroke:#b09247;stroke-width:3.54290009;stroke-linecap:butt;stroke-linejoin:miter;stroke-miterlimit:10;stroke-dasharray:none;stroke-opacity:1"
             d="m 3107.6,98.8945 c 0,-14.6757 -11.9,-26.5742 -26.57,-26.5742 -14.68,0 -26.57,11.8985 -26.57,26.5742 0,14.6755 11.89,26.5705 26.57,26.5705 14.67,0 26.57,-11.895 26.57,-26.5705 z" /></g></g></g></g></svg>