<?xml version="1.0" encoding="UTF-8" standalone="no"?>
<svg height="155.66026" viewBox="0 0 351.00412 155.66026" width="351.00412" xmlns="http://www.w3.org/2000/svg" xmlns:xlink="http://www.w3.org/1999/xlink">
   <clipPath id="a">
      <path d="m337.04 277.2h274.08v131.84h-274.08z"/>
   </clipPath>
   <clipPath id="b">
      <path d="m344.327 288.755h261.753v115.245h-261.753z"/>
   </clipPath>
   <clipPath id="c">
      <path d="m337.04 277.2h274.08v131.84h-274.08z"/>
   </clipPath>
   <g transform="matrix(1.3333333 0 0 -1.3333333 -458.10266 539.66665)">
      <g clip-path="url(#a)" fill="#ffc61e">
         <g transform="translate(408.6294 336.2858)">
            <path d="m0 0c0 0 29.829-6.167 62.214-6.719l-.029 1.259c-37.923 1.429-61.719 6.709-61.719 6.709z"/>
         </g>
      </g>
      <g clip-path="url(#b)" fill="#00337f">
         <g transform="translate(344.3262 402.7798)">
            <path d="m0 0h21.121c7.315 0 32.18 0 32.18-20.074 0-14.86-10.818-20.294-24.11-20.072v.776c8.655 0 15.867 5.878 15.867 16.858 0 6.875-2.472 13.64-7.727 17.189-2.266 1.552-11.264 2.661-18.27 2.661h-5.255v-68.314c0-6.766.515-7.875 5.77-7.985v-.777h-19.576v.777c2.371.11 5.255.443 5.255 5.102v66.096c0 4.214 0 6.987-5.255 6.987z"/>
         </g>
         <g transform="translate(417.3655 359.7504)">
            <path d="m0 0l10.715 29.39 10.922-29.39 10.714-28.391c.104-.11.309-.775.515-1.22.516-1.33 1.133-3.214 1.133-4.325 0-.222-.102-1.995-2.368-1.995v-.777h17.308v.777c-4.636 0-6.491 4.546-7.521 7.54l-.412 1.22c-.206.333-.309.777-.309.888l-26.478 70.533h-1.237l-26.89-72.973c-1.443-3.881-2.577-7.099-7.007-7.208v-.777h11.024v.777c-.824 0-2.473-.113-2.473 1.773 0 .777.103 1.333.619 2.551 0 .111.309.888.515 1.443z"/>
         </g>
         <g transform="translate(537.4848 390.3592)">
            <path d="m0 0h-.721c-3.191 3.437-11.948 11.534-25.34 11.534-22.671 0-33.798-17.411-33.798-33.16 0-14.417 9.275-44.805 38.946-44.805 11.129 0 20.553 4.216 25.703 10.649l.619-.223-5.151-8.54c-12.88-3.106-13.855-3.991-23.747-3.991-15.659 0-24.11 3.77-29.879 8.316-8.036 6.322-13.496 17.967-13.496 31.054 0 20.515 14.217 42.807 42.242 42.807 9.272 0 15.454-2.441 21.018-4.881.104 0 .722-.221.824-.332z"/>
         </g>
      </g>
      <g clip-path="url(#c)">
         <g fill="#00337f" transform="translate(565.0331 375.942)">
            <path d="m0 0v-38.482c0-11.313 2.677-11.756 10.301-11.756h13.087c8.962 0 15.907 4.27 16.939 12.587h.72l-4.161-15.249h-50.693v.777c2.887.222 5.256.333 5.256 5.657v64.431c0 5.879-.209 7.986-5.256 7.986v.887h46.568l1.342-10.422h-.723c-2.166 8.318-3.501 7.76-8.962 7.76h-24.418v-21.958z"/>
         </g>
         <g fill="#00337f" transform="translate(363.7302 309.8483)">
            <path d="m0 0v-14.253c0-3.579-2.001-6.84-7.679-6.84-4.827 0-7.562 3.357-7.562 7.126v13.967h5.355v-13.745c0-2.377 1.146-4.023 3.589-4.023 2.441 0 3.472 1.646 3.472 4.023v13.745z"/>
         </g>
         <g fill="#00337f" transform="translate(379.4757 309.8483)">
            <path d="m0 0h5.973l6.357-10.357h.056v10.357h2.826v-20.523h-3.089l-9.239 15.075h-.058v-15.075h-2.826z"/>
         </g>
         <path d="m411.514 309.848h5.356v-20.523h-5.356z" fill="#00337f"/>
         <g fill="#00337f" transform="translate(429.6187 309.8483)">
            <path d="m0 0h5.709l4.089-10.452 4.119 10.452h2.589l-8.267-21.093h-.059z"/>
         </g>
         <g fill="#00337f" transform="translate(460.9182 289.3253)">
            <path d="m0 0v20.523h12.123v-2.788h-6.769v-5.796h6.416v-2.788h-6.416v-6.364h7.119v-2.787z"/>
         </g>
         <g fill="#00337f" transform="translate(487.9785 289.3253)">
            <path d="m0 0v20.523h9.594c3.176 0 6.765-2.313 6.765-6.145 0-2.945-1.943-4.94-4.503-5.608l4.618-8.77h-6.059l-4.737 10.45h.589c2.498 0 4.56.475 4.56 3.833 0 2.312-1.503 3.769-3.47 3.769h-2.002v-18.052z"/>
         </g>
         <g fill="#00337f" transform="translate(518.6974 294.6438)">
            <path d="m0 0c .677-1.455 1.764-3.102 3.47-3.102 1.532 0 2.472.949 2.472 2.502 0 3.611-8.299 2.819-8.299 9.405 0 4.212 2.679 6.969 6.593 6.969 3.061 0 4.883-1.269 6.442-4.023l-2.148-1.805c-.853 1.584-1.734 3.041-3.646 3.041-1.531 0-2.239-1.078-2.239-2.596 0-3.579 8.473-2.568 8.473-9.408 0-4.339-2.999-6.872-6.882-6.872-3.146 0-5.355 1.141-6.916 4.12z"/>
         </g>
         <path d="m545.921 309.848h5.356v-20.523h-5.356z" fill="#00337f"/>
         <g fill="#00337f" transform="translate(564.024 309.8483)">
            <path d="m0 0h15.655v-2.788h-5.151v-17.735h-5.353v17.735h-5.151z"/>
         </g>
         <g fill="#00337f" transform="translate(602.8757 309.8483)">
            <path d="m0 0h2.796l-5.531-10.326v-10.197h-5.356v9.816l-5.737 10.707h5.942l3.914-7.506z"/>
         </g>
         <g fill="#ffc61e" transform="translate(406.0928 338.1803)">
            <path d="m0 0c0 0-22.848 4.97-22.592 11.577.303 7.783 35.028 18.571 98.742 19.57 65.012 1.02 97.672-2.961 118.134-15.971l-6.032 15.251c-6.394 3.781-29.369 10.975-112.311 6.15-78.909-4.591-99.992-17.116-100.175-24.728-.127-5.303 9.538-9.997 23.782-13.072z"/>
         </g>
      </g>
   </g>
</svg>
