<svg xmlns="http://www.w3.org/2000/svg" version="1" width="158.46" height="52.3" viewBox="0 0 612 792"><g fill="#d76027"><path clip-rule="evenodd" d="M-678.375 105.978c0-11.895-2.167-32.429 11.895-38.91 9.728-4.325 57.288-1.09 70.262-1.09 97.288 0 151.34 67.016 151.34 162.147 0 156.743-98.366 159.978-233.497 159.978V105.978zm162.146 292.942c107.016-9.728 195.654-69.183 195.654-185.926 0-150.262-124.314-178.366-247.549-178.366-45.403 1.089-91.885 3.246-137.288 4.324-61.612-1.089-124.313-3.246-185.926-4.324v24.869c34.586 0 79.99-1.09 91.885 36.754 9.728 29.183 9.728 109.183 9.728 143.769v304.848c0 34.586 0 114.586-9.728 143.769-11.895 36.764-57.288 36.764-91.885 36.764v24.87c54.042-1.09 108.094-3.247 162.146-4.325 51.885 1.089 102.691 3.246 152.419 4.324v-24.869c-34.586 0-78.91 1.09-91.885-36.764-9.727-29.183-9.727-109.173-9.727-143.77V417.319c57.287 0 52.963 6.482 88.638 47.56l179.445 222.69 50.806 62.702c27.026-1.089 54.052-3.246 81.068-4.324 32.429 1.089 64.858 3.246 97.287 4.324v-24.869c-55.13-8.649-71.35-23.78-105.937-63.78l-229.15-262.7zM244.447 544.857c0 34.586 0 114.586-10.806 143.77-14.053 36.764-58.377 36.764-92.963 36.764v24.869c54.041-1.09 109.172-3.246 163.224-4.325 51.885 1.09 104.859 3.246 155.665 4.325v-24.87c-34.586 0-78.91 0-92.953-36.764-10.816-29.183-10.816-109.172-10.816-143.769V240.009c0-34.586 0-114.575 10.816-143.769 14.042-36.754 58.367-36.754 92.953-36.754V34.628c-54.042 1.089-108.094 3.246-163.225 4.324-51.885-1.089-103.78-3.246-155.664-4.324v24.869c34.586 0 78.91 0 92.963 36.754 10.806 29.183 10.806 109.183 10.806 143.769v304.837zM1499.85 34.628H836.115v168.638h24.87c4.334-128.638 56.208-134.041 163.234-134.041 43.246 0 90.807-3.246 90.807 29.183v512.386c0 79.99-15.142 110.262-119.99 114.586v24.87c58.367-1.09 114.576-3.247 171.885-4.325 59.434 1.089 119.989 3.246 179.444 4.324V725.38c-104.869-4.324-120.01-34.586-120.01-114.586V98.408c0-34.586 64.869-29.183 104.869-29.183 101.602 0 142.68 28.104 149.162 134.041h29.204l-9.738-168.638z" fill-rule="evenodd"/><path d="M-103.055 393.38c0-23.76 19.255-43.014 43.014-43.014 23.759 0 43.013 19.255 43.013 43.014 0 23.758-19.265 43.013-43.013 43.013-23.748 0-43.014-19.255-43.014-43.013zM618.594 393.38c0-23.76 19.265-43.014 43.013-43.014 23.749 0 43.014 19.255 43.014 43.014 0 23.758-19.265 43.013-43.014 43.013-23.748 0-43.013-19.255-43.013-43.013z"/></g></svg>