<?xml version="1.0" encoding="utf-8"?>
<!-- Generator: Adobe Illustrator 22.0.1, SVG Export Plug-In . SVG Version: 6.00 Build 0)  -->
<svg version="1.1" id="Layer_1" xmlns="http://www.w3.org/2000/svg" xmlns:xlink="http://www.w3.org/1999/xlink" x="0px" y="0px"
	 width="250.1px" height="186.02px" viewBox="0 0 250.1 186.02" enable-background="new 0 0 250.1 186.02" xml:space="preserve">
<path d="M11.06,166.59c-0.09,0.1-0.2,0.21-0.33,0.21c-0.17,0-0.38-0.05-0.65-0.11c-0.47-0.1-1.13-0.25-2.01-0.25
	c-2.95,0-4.28,2-4.28,3.98c0,2.08,1.38,2.82,2.98,3.67c2.76,1.46,3.56,2.11,3.56,3.61c0,1.69-1.06,2.75-2.77,2.75
	c-1.72,0-2.93-1.02-3.5-2.96c-0.04-0.2-0.06-0.24-0.19-0.24c-0.26,0-0.37,0.05-0.37,0.17l0.02,0.19c0.04,0.36,0.15,1.2,0.25,2.8
	c0.02,0.19,0.03,0.2,0.16,0.21c0.69,0.1,1.98,0.28,3.46,0.28c3.02,0,4.75-1.49,4.75-4.08c0-2.24-1.75-3.14-3.6-4.08
	c-0.56-0.29-1.14-0.58-1.68-0.92c-0.65-0.42-1.55-1.01-1.55-2.39c0-1.44,1.13-2.53,2.63-2.53c1.91,0,2.72,1.54,3.26,3.05
	c0.03,0.1,0.09,0.1,0.31,0.1c0.09,0,0.17-0.09,0.17-0.17l-0.04-0.3c-0.09-0.56-0.26-1.73-0.26-2.92c0-0.08-0.02-0.23-0.15-0.23
	C11.21,166.44,11.13,166.51,11.06,166.59"/>
<path d="M15.85,170.71c-0.38,0.44-0.94,1.11-1.98,1.9l0,0c-0.09,0.07-0.11,0.18-0.11,0.26c0,0.1,0.05,0.15,0.09,0.15h0.99
	c0.15,0,0.22,0.1,0.22,0.28v5.19c0,2,1.22,2.42,2.24,2.42c1.75,0,2.6-0.9,2.6-1.02c0-0.11-0.13-0.29-0.19-0.29
	c-0.02,0-0.08,0.04-0.14,0.07c-0.24,0.14-0.69,0.39-1.2,0.39c-1.6,0-1.76-0.83-1.76-2.87v-4.15c0-0.02,0.01-0.03,0.03-0.03
	c1.27,0,2.12,0.06,2.49,0.09l0.21,0.01c0.34,0,0.51-0.15,0.51-0.47c0-0.35-0.1-0.39-0.17-0.39h-3.04c-0.02,0-0.03-0.02-0.03-0.03
	c0-0.72,0.03-1.11,0.04-1.4l0.02-0.41c0-0.17-0.11-0.23-0.21-0.23C16.29,170.19,16.13,170.39,15.85,170.71"/>
<path d="M22.96,172.71c-1.48,0.99-1.61,1.24-1.61,1.75c0,0.2,0.14,0.7,0.8,0.7c0.77,0,0.94-0.52,0.94-0.72
	c0-0.23-0.08-0.43-0.15-0.6c-0.06-0.13-0.11-0.26-0.11-0.39c0-0.21,0.96-0.93,1.43-0.93c0.49,0,1.68,0.56,1.68,1.59v1.79
	c0,0.01-0.01,0.02-0.02,0.02c-3.73,1.39-4.44,2.22-4.44,3.25c0,0.18,0.05,1.73,1.87,1.73c0.84,0,1.38-0.25,2.53-1.14
	c0.01-0.01,0.02-0.01,0.02-0.01c0.01,0.01,0.02,0.01,0.02,0.02c0.23,0.72,0.39,1.13,1.06,1.13s1.95-0.94,1.95-1.16
	c0-0.06-0.14-0.19-0.23-0.19c-0.05,0-0.13,0.07-0.22,0.15c-0.16,0.13-0.37,0.31-0.62,0.31s-0.36-0.13-0.36-0.42v-5.62
	c0-1.68-1.67-2.24-2.42-2.24C24.67,171.73,24.46,171.73,22.96,172.71 M23.16,178.88c0-0.72,0.09-1.04,0.66-1.46
	c0.38-0.31,1.85-0.97,1.97-0.97c0.1,0,0.16,0.11,0.16,0.22v2.39c0,0.38-1.08,1.07-1.84,1.07C23.41,180.13,23.16,179.48,23.16,178.88
	"/>
<path d="M31.67,170.71c-0.38,0.44-0.94,1.11-1.98,1.9c-0.09,0.07-0.11,0.18-0.11,0.26c0,0.1,0.05,0.15,0.09,0.15h0.99
	c0.14,0,0.22,0.1,0.22,0.28v5.19c0,2,1.22,2.42,2.24,2.42c1.75,0,2.59-0.9,2.6-1.02c0-0.11-0.13-0.29-0.19-0.29
	c-0.02,0-0.08,0.04-0.14,0.07c-0.24,0.14-0.69,0.39-1.2,0.39c-1.6,0-1.76-0.83-1.76-2.87v-4.15c0-0.02,0.01-0.03,0.02-0.03
	c1.27,0,2.13,0.06,2.49,0.09l0.21,0.01c0.34,0,0.51-0.15,0.51-0.47c0-0.35-0.1-0.39-0.17-0.39h-3.04c-0.02,0-0.02-0.02-0.02-0.03
	c0-0.72,0.02-1.11,0.04-1.4l0.02-0.41c0-0.17-0.11-0.23-0.21-0.23C32.11,170.19,31.95,170.39,31.67,170.71"/>
<path d="M36.38,176.43c0,2.84,1.56,4.47,4.27,4.47c2.59,0,3.36-2.46,3.37-2.48c0-0.04-0.16-0.21-0.29-0.21
	c-0.06,0-0.12,0.09-0.19,0.19l-0.09,0.13c-0.57,0.82-1.29,1.2-2.33,1.2c-2.13,0-3.26-1.91-3.26-3.28c0-0.42,0-0.6,0.05-0.94
	c0.01-0.01,0.02-0.02,0.03-0.02h5.62c0.15,0,0.24-0.21,0.24-0.38c0-0.35-0.1-3.39-3.5-3.39C38.37,171.73,36.38,173.49,36.38,176.43
	 M38.07,174.75c-0.01-0.01-0.01-0.01-0.01-0.02c0.25-1.67,1.02-2.55,2.23-2.55c0.85,0,1.76,0.5,1.76,1.9c0,0.6-0.35,0.68-0.69,0.68
	h-3.27C38.08,174.76,38.08,174.76,38.07,174.75"/>
<path d="M64.42,166.65c-0.6,0.02-1.35,0.05-1.71,0.05c-0.85,0-1.71-0.04-2.27-0.06l-0.63-0.02c-0.06,0-0.13,0.02-0.13,0.27
	c0,0.19,0.01,0.27,0.13,0.27c2.02,0,2.36,0,2.36,2.77v3.91c0,3.99-1.19,6-4.06,6c-3.87,0-4.44-3.12-4.44-4.98v-3.57
	c0-1.12,0.01-1.66,0.03-2.28l0.01-0.5c0.03-1.22,0.42-1.35,2.1-1.35c0.18,0,0.19-0.11,0.19-0.31c0-0.07-0.01-0.23-0.15-0.23
	l-0.4,0.01c-0.63,0.03-1.8,0.07-2.73,0.07c-0.92,0-2.08-0.04-2.71-0.07l-0.41-0.01c-0.14,0-0.15,0.16-0.15,0.23
	c0,0.2,0.01,0.31,0.19,0.31c1.68,0,2.08,0.13,2.1,1.35l0.01,0.5c0.02,0.62,0.03,1.16,0.03,2.28v4.52c0,2.47,1.48,5.1,5.64,5.1
	c2.61,0,5.65-1.76,5.65-6.72v-4.68c0-2.35,0.4-2.35,2.32-2.35c0.14,0,0.15-0.16,0.15-0.23c0-0.28-0.07-0.31-0.25-0.31L64.42,166.65z
	"/>
<path d="M67.52,171.64c-0.29,0.17-0.9,0.53-2.51,0.86c-0.09,0.02-0.14,0.11-0.14,0.25c0,0.13,0.01,0.19,0.15,0.21
	c1,0.1,1.19,0.5,1.19,1.21v2.7c0,1.24-0.04,2.66-0.12,2.85c-0.13,0.29-0.32,0.48-0.83,0.48c-0.72,0-0.72,0.04-0.72,0.27
	c0,0.12,0.01,0.19,0.13,0.19l0.33-0.01c0.38-0.01,1.01-0.03,2.33-0.03c1.09,0,1.48,0.02,1.65,0.03l0.09,0.01
	c0.17,0,0.17-0.11,0.17-0.23c0-0.2,0-0.23-0.55-0.23c-0.9,0-0.93-0.27-0.93-1.39v-5.05c0.09-0.27,1.19-0.93,1.92-0.93
	c2.08,0,2.24,1.28,2.24,3.08v3.53c0,0.69-0.22,0.76-1.15,0.76c-0.22,0-0.25,0.18-0.25,0.25c0,0.14,0.04,0.21,0.11,0.21l0.16-0.01
	c0.23-0.01,0.7-0.03,1.92-0.03l1.29,0.02l0.7,0.02c0.25,0,0.25-0.11,0.25-0.23c0-0.14,0-0.23-0.17-0.23c-1.21,0-1.31-0.36-1.31-0.74
	v-4.73c0-2.42-1.4-2.93-2.57-2.93c-1.07,0-2.09,0.69-3.08,1.36c-0.01,0.01-0.02,0.01-0.03,0s-0.01-0.01-0.01-0.02
	c0-0.63,0.02-1.04,0.03-1.25l0.01-0.16c0-0.18-0.03-0.19-0.03-0.19C67.7,171.53,67.63,171.57,67.52,171.64"/>
<path d="M76.98,167.72c0,0.49,0.4,1.02,1,1.02s1-0.53,1-1.02s-0.4-1.02-1-1.02C77.38,166.7,76.98,167.22,76.98,167.72 M78.52,171.64
	c-0.29,0.17-0.9,0.53-2.51,0.86c-0.09,0.02-0.14,0.11-0.14,0.25c0,0.13,0.01,0.19,0.15,0.21c1,0.1,1.18,0.5,1.18,1.21v2.7
	c0,1.24-0.04,2.66-0.12,2.85c-0.13,0.29-0.32,0.48-0.83,0.48c-0.72,0-0.72,0.04-0.72,0.27c0,0.12,0.01,0.19,0.13,0.19l0.33-0.01
	c0.38-0.01,1.01-0.03,2.33-0.03c1,0,1.38,0.02,1.55,0.03l0.09,0.01c0.17,0,0.17-0.11,0.17-0.23c0-0.21-0.01-0.23-0.45-0.23
	c-0.9,0-0.93-0.27-0.93-1.39v-4.26c0-1.45,0.03-2.39,0.09-2.79l0.01-0.05c0-0.1-0.03-0.19-0.1-0.19
	C78.71,171.53,78.64,171.57,78.52,171.64"/>
<path d="M89.1,172.16l-0.87,0.02l-1.7-0.04c-0.07,0-0.13,0.02-0.16,0.07c-0.05,0.05-0.07,0.1-0.07,0.15c0,0.06,0.01,0.25,0.15,0.25
	c0.89,0,1.35,0.2,1.35,0.6c0,0.54-0.33,1.32-2.17,5.42c-0.01,0.01-0.01,0.02-0.02,0.02s-0.02-0.01-0.02-0.02
	c-0.44-0.92-2.02-4.86-2.02-5.51c0-0.44,0.56-0.5,1.17-0.5c0.1,0,0.17-0.13,0.17-0.21c0-0.09-0.02-0.25-0.13-0.25l-2.35,0.04
	l-1.87-0.04c-0.06,0-0.11,0.02-0.14,0.05s-0.05,0.08-0.05,0.14c0,0.25,0.05,0.31,0.59,0.31c0.3,0,0.51,0.02,0.71,0.33
	c0.14,0.19,0.59,1.42,1.11,2.83c0.54,1.46,1.14,3.1,1.5,3.86l0.19,0.42c0.25,0.54,0.37,0.82,0.53,0.82c0.14,0,0.32-0.25,0.87-1.54
	l0.61-1.36c0.49-1.07,1.16-2.54,1.61-3.65c0.64-1.57,0.71-1.64,1.86-1.81c0.16-0.02,0.17-0.08,0.17-0.19c0-0.04-0.01-0.21-0.15-0.21
	L89.1,172.16z"/>
<path d="M90.61,176.43c0,2.84,1.55,4.47,4.27,4.47c2.59,0,3.36-2.46,3.36-2.48c0-0.04-0.16-0.21-0.29-0.21
	c-0.06,0-0.12,0.09-0.18,0.19l-0.09,0.13c-0.58,0.82-1.29,1.2-2.33,1.2c-2.13,0-3.26-1.91-3.26-3.28c0-0.42,0-0.6,0.05-0.94
	c0-0.01,0.01-0.02,0.03-0.02h5.62c0.15,0,0.24-0.21,0.24-0.38c0-0.35-0.1-3.39-3.5-3.39C92.6,171.73,90.61,173.49,90.61,176.43
	 M92.3,174.75c0-0.01-0.01-0.01,0-0.02c0.25-1.67,1.01-2.55,2.23-2.55c0.85,0,1.76,0.5,1.76,1.9c0,0.6-0.35,0.68-0.7,0.68h-3.27
	C92.31,174.76,92.3,174.76,92.3,174.75"/>
<path d="M102.09,171.64c-0.29,0.17-0.9,0.53-2.51,0.86c-0.09,0.02-0.14,0.11-0.14,0.25c0,0.13,0.02,0.19,0.16,0.21
	c0.99,0.1,1.18,0.5,1.18,1.21v5.01c0,0.86-0.17,1.03-1.03,1.03c-0.4,0-0.58,0.07-0.58,0.23c0,0.23,0.11,0.23,0.15,0.23l0.4-0.01
	c0.33-0.01,0.83-0.03,1.89-0.03l1.26,0.02l0.98,0.02c0.21,0,0.27-0.01,0.27-0.25c0-0.19-0.04-0.21-0.78-0.21
	c-1.01,0-1.01-0.47-1.01-1.19v-4.48c0-0.2,0-0.42,0.14-0.59c0.47-0.52,1.01-0.86,1.38-0.86c0.28,0,0.46,0.16,0.65,0.34
	c0.22,0.2,0.45,0.41,0.87,0.41c0.59,0,0.94-0.49,0.94-0.96c0-0.65-0.49-1.08-1.24-1.08c-1.01,0-2.04,0.93-2.74,1.71
	c-0.01,0.01-0.02,0.01-0.03,0.01c-0.01-0.01-0.02-0.01-0.02-0.03c0-0.72,0.04-1.18,0.08-1.48l0.02-0.32c0-0.08-0.04-0.16-0.05-0.17
	C102.28,171.53,102.21,171.57,102.09,171.64"/>
<path d="M107.22,174.46c0,1.49,1.24,1.98,2.44,2.45c1.02,0.4,1.98,0.78,1.98,1.75c0,0.66-0.38,1.78-1.82,1.78
	c-1.28,0-1.76-0.9-2.08-1.49c-0.15-0.28-0.27-0.5-0.41-0.5c-0.29,0-0.33,0.06-0.33,0.09c0,0.11,0.14,0.72,0.27,1.26
	c0.09,0.42,0.17,0.78,0.19,0.87c0,0.02,0.05,0.07,0.07,0.07c0.46,0,1.05,0.05,1.53,0.1c0.32,0.03,0.59,0.06,0.74,0.06
	c2.96,0,3.19-2.03,3.19-2.66c0-1.73-0.84-2.06-2.23-2.6c-0.38-0.15-0.8-0.32-1.25-0.53c-0.35-0.17-0.95-0.58-0.95-1.35
	c0-0.93,0.62-1.5,1.61-1.5c0.92,0,1.61,0.56,2.06,1.67l0.01,0.03c0.1,0.25,0.2,0.26,0.37,0.26c0.03,0,0.19-0.01,0.19-0.13
	c0-0.1-0.03-0.24-0.07-0.42c-0.05-0.28-0.13-0.66-0.15-1.16c0-0.16-0.05-0.48-0.28-0.53c-0.07-0.02-1.21-0.17-2.12-0.17
	C108.46,171.81,107.22,172.92,107.22,174.46"/>
<path d="M115.4,167.72c0,0.49,0.4,1.02,1,1.02s1-0.53,1-1.02s-0.4-1.02-1-1.02C115.8,166.7,115.4,167.22,115.4,167.72
	 M116.95,171.64c-0.29,0.17-0.9,0.53-2.51,0.86c-0.09,0.02-0.14,0.11-0.14,0.25c0,0.13,0.01,0.19,0.15,0.21
	c1,0.1,1.19,0.5,1.19,1.21v2.7c0,1.24-0.04,2.66-0.12,2.85c-0.13,0.29-0.32,0.48-0.83,0.48c-0.72,0-0.72,0.04-0.72,0.27
	c0,0.12,0.01,0.19,0.13,0.19l0.33-0.01c0.38-0.01,1.01-0.03,2.33-0.03c1.01,0,1.38,0.02,1.55,0.03l0.09,0.01
	c0.17,0,0.17-0.11,0.17-0.23c0-0.21-0.01-0.23-0.45-0.23c-0.9,0-0.93-0.27-0.93-1.39v-4.26c0-1.45,0.03-2.39,0.09-2.79l0.01-0.05
	c0-0.1-0.03-0.19-0.09-0.19C117.13,171.53,117.06,171.57,116.95,171.64"/>
<path d="M121.71,170.71c-0.37,0.44-0.94,1.11-1.98,1.9c-0.09,0.07-0.11,0.18-0.11,0.26c0,0.1,0.05,0.15,0.1,0.15h0.99
	c0.14,0,0.22,0.1,0.22,0.28v5.19c0,2,1.22,2.42,2.24,2.42c1.76,0,2.6-0.9,2.6-1.02c0-0.11-0.13-0.29-0.19-0.29
	c-0.01,0-0.08,0.04-0.14,0.07c-0.24,0.14-0.69,0.39-1.2,0.39c-1.6,0-1.76-0.83-1.76-2.87v-4.15c0-0.02,0.01-0.03,0.02-0.03
	c1.27,0,2.13,0.06,2.49,0.09l0.21,0.01c0.34,0,0.5-0.15,0.5-0.47c0-0.35-0.1-0.39-0.17-0.39h-3.04c-0.01,0-0.02-0.02-0.02-0.03
	c0-0.72,0.02-1.11,0.04-1.4l0.02-0.41c0-0.17-0.11-0.23-0.21-0.23C122.16,170.19,121.99,170.39,121.71,170.71"/>
<path d="M135.61,172.16l-0.92,0.02l-1.91-0.04c-0.03,0-0.05,0.01-0.08,0.04c-0.04,0.04-0.07,0.12-0.07,0.2
	c0,0.17,0.02,0.23,0.17,0.23c0.54,0,1.4,0,1.4,0.7c0,0.62-1.6,4-2.55,5.97c-0.01,0.01,0.13,0.02,0.12,0.02
	c-0.01-0.01-0.02-0.01-0.03-0.02c-1.21-3.1-1.95-5.22-1.95-6.2c0-0.41,0.69-0.46,0.99-0.46c0.12,0,0.17-0.14,0.17-0.23
	c0-0.16-0.06-0.23-0.21-0.23l-0.91,0.02l-1.04,0.02l-1.6-0.03l-0.59-0.01c-0.05,0-0.1,0.02-0.13,0.05
	c-0.04,0.04-0.06,0.09-0.06,0.16c0,0.11,0.03,0.25,0.15,0.25c0.84,0,1.32,0.16,1.45,0.47c0.14,0.39,0.28,0.85,0.46,1.42
	c0.32,1.07,0.76,2.52,1.57,4.6l0.05,0.11c0.24,0.61,0.57,1.6,0.57,2.06c0,0.95-0.94,2.85-1.31,2.85c-0.1,0-0.14-0.02-0.25-0.09
	c-0.17-0.09-0.37-0.21-0.66-0.21c-0.53,0-1.12,0.45-1.12,1.04c0,0.63,0.48,1.14,1.08,1.14c0.65,0,1.3-0.31,2.79-4.05
	c0.24-0.62,1.19-2.65,2.11-4.62c0.74-1.6,1.44-3.11,1.76-3.84c0.29-0.69,0.57-0.82,1.26-0.88c0.27-0.02,0.31-0.07,0.31-0.23
	c0-0.12-0.01-0.23-0.11-0.23L135.61,172.16z"/>
<path d="M141.39,176.35c0,2.64,1.91,4.55,4.55,4.55c2.73,0,4.57-1.83,4.57-4.55c0-2.64-1.92-4.55-4.57-4.55
	C143.34,171.81,141.39,173.76,141.39,176.35 M143.21,176.35c0-0.96,0.2-4.09,2.73-4.09c2.55,0,2.75,3.13,2.75,4.09
	c0,1.87-0.48,4.09-2.75,4.09C143.68,180.45,143.21,178.22,143.21,176.35"/>
<path d="M156.7,166.1c-2.2,0.58-3.19,2.1-3.39,5.24c-0.06,0.9-0.26,0.95-1.03,1.13l-0.02,0.01c-0.5,0.1-0.59,0.18-0.59,0.31
	c0,0.23,0.07,0.23,0.21,0.23h1.08c0.4,0,0.4,0.43,0.4,0.66v5.5c0,0.86-0.17,1.03-1.03,1.03c-0.37,0-0.39,0.05-0.39,0.23
	c0,0.23,0.11,0.23,0.15,0.23l0.18-0.01c0.24-0.01,0.73-0.04,1.91-0.04l1.27,0.02l0.99,0.02c0.2,0,0.27-0.01,0.27-0.25
	c0-0.19-0.04-0.21-0.78-0.21c-1.01,0-1.01-0.47-1.01-1.19v-5.97c0-0.01,0.01-0.03,0.03-0.03c0.29,0,1.02,0.04,1.55,0.07l0.56,0.03
	c0.34,0,0.51-0.15,0.51-0.47c0-0.35-0.1-0.39-0.17-0.39h-2.44c-0.02,0-0.03-0.01-0.03-0.03v-2.54c0-1.89,0.47-2.89,1.35-2.89
	c0.19,0,0.56,0.19,0.88,0.46c0.5,0.41,0.95,0.45,1.07,0.45c0.56,0,0.9-0.36,0.9-0.94c0-0.61-0.65-0.82-1.21-0.82
	C157.54,165.95,157.01,166.03,156.7,166.1"/>
<path d="M179.19,166.64c-0.66,0.02-1.64,0.06-1.93,0.06c-0.32,0-1.09-0.03-1.77-0.05l-1.09-0.03c-0.09,0-0.19,0.03-0.19,0.29
	c0,0.15,0.04,0.25,0.23,0.25c1.73,0,2.06,0.1,2.06,3.13c0,1.88-0.09,5.34-0.2,7.26c0,0.01,0.43,0.04,0.42,0.05
	c-0.01,0.01-0.02,0-0.03-0.01c-3.43-3.52-6.06-6.54-8.17-8.96l-1.67-1.91l-0.03-0.04c-0.04-0.04-0.07-0.07-0.1-0.07l-1.75,0.08
	c-0.23,0-0.87-0.03-1.35-0.06l-0.53-0.02c-0.14,0-0.19,0.02-0.19,0.25c0,0.22,0.01,0.29,0.15,0.29h0.73c0.41,0,1.49,1.02,1.64,1.4
	c0.04,0.1,0.04,0.49,0.04,0.86c0,4.94-0.16,8.47-0.23,9.76l-0.01,0.07c-0.06,0.58-0.53,0.89-1.36,0.89c-0.36,0-0.87,0.07-0.87,0.19
	c0,0.26,0.01,0.35,0.17,0.35l0.1-0.01c0.18-0.01,0.66-0.04,2.44-0.04c1.94,0,2.4,0.03,2.6,0.04l0.11,0.01
	c0.13,0,0.17-0.04,0.17-0.27c0-0.18,0-0.27-0.98-0.27c-1.08,0-1.08-0.3-1.08-0.99l-0.01-0.62c-0.02-0.79-0.07-2.27-0.07-4.39
	l0.03-3.39l0.03-1.7c0-0.01-0.3,0.01-0.29,0c0.01,0-0.16-0.04-0.15-0.03c5.1,5.49,7.86,8.55,9.34,10.2
	c1.07,1.19,1.51,1.68,1.58,1.69c0.19,0,0.27-0.01,0.27-0.25c0-1.83,0.23-11.12,0.36-11.84c0.25-1.42,0.56-1.66,2.21-1.66
	c0.05,0,0.15,0,0.15-0.31c0-0.04-0.01-0.23-0.13-0.23L179.19,166.64z"/>
<path d="M180.07,176.43c0,2.84,1.56,4.47,4.27,4.47c2.6,0,3.36-2.46,3.37-2.48c0-0.04-0.16-0.21-0.29-0.21
	c-0.06,0-0.11,0.09-0.18,0.19l-0.09,0.13c-0.58,0.82-1.3,1.2-2.33,1.2c-2.13,0-3.26-1.91-3.26-3.28c0-0.42,0-0.6,0.05-0.94
	c0.01-0.01,0.02-0.02,0.03-0.02h5.62c0.15,0,0.24-0.21,0.24-0.38c0-0.35-0.1-3.39-3.5-3.39
	C182.07,171.73,180.07,173.49,180.07,176.43 M181.76,174.75c-0.01-0.01-0.01-0.01-0.01-0.02c0.25-1.67,1.02-2.55,2.24-2.55
	c0.85,0,1.76,0.5,1.76,1.9c0,0.6-0.35,0.68-0.7,0.68h-3.27C181.78,174.76,181.77,174.76,181.76,174.75"/>
<path d="M201.85,172.15c-0.22,0.01-0.55,0.03-1.04,0.03c-0.78,0-1.16-0.02-1.41-0.03l-0.28-0.01c-0.08,0-0.14,0.02-0.18,0.05
	c-0.03,0.04-0.05,0.09-0.05,0.16c0,0.15,0.07,0.23,0.23,0.25c0.56,0.12,0.87,0.2,0.87,0.52c0,0.5-0.73,2.27-1.31,3.69
	c-0.29,0.72-0.55,1.34-0.66,1.68c-0.01,0.01-0.02,0.02-0.03,0.02h-0.04c-0.01,0-0.02-0.01-0.03-0.02c-0.08-0.37-0.4-1.36-0.75-2.41
	c-0.46-1.41-0.95-2.85-0.95-3.16c0-0.12,0.12-0.32,0.92-0.32c0.19,0,0.21-0.12,0.21-0.25c0-0.04-0.01-0.21-0.15-0.21l-0.83,0.02
	l-1.07,0.02l-1.11-0.03l-0.42-0.01c-0.08,0-0.14,0.02-0.18,0.05c-0.04,0.04-0.05,0.09-0.05,0.16c0,0.17,0.04,0.25,0.41,0.25
	c0.31,0,0.46,0.05,0.53,0.17c0.17,0.29,0.6,1.54,0.6,1.91c0,0.19-0.59,1.37-1.12,2.42c-0.33,0.65-0.61,1.21-0.68,1.4
	c-0.01,0.01-0.02,0.02-0.03,0.02h-0.04c-0.01,0-0.02-0.01-0.02-0.02c-0.08-0.3-0.49-1.38-0.93-2.52c-0.54-1.39-1.05-2.71-1.05-2.89
	c0-0.42,0.67-0.48,1.07-0.48c0.1,0,0.17-0.13,0.17-0.21c0-0.09-0.02-0.25-0.13-0.25l-1.38,0.02l-0.77,0.02l-1.87-0.04
	c-0.07,0-0.13,0.02-0.16,0.05c-0.03,0.02-0.03,0.06-0.03,0.08v0.16c0,0.17,0.09,0.17,0.23,0.17c0.58,0,0.89,0.14,1.11,0.51
	c0.09,0.13,0.25,0.56,0.77,1.94l1.48,3.86l0.28,0.74c0.41,1.07,0.48,1.26,0.66,1.26c0.18,0,0.31-0.29,0.61-0.99l0.63-1.38l1.48-3.1
	c0.01-0.01,0.01-0.02,0.02-0.02c0.01,0,0.02,0.01,0.02,0.02c0.32,0.91,0.61,1.82,0.88,2.71c0.26,0.82,0.53,1.67,0.82,2.5
	c0.05,0.17,0.14,0.26,0.27,0.26c0.08,0,0.15-0.04,0.22-0.13c0.13-0.15,1.05-2.49,1.8-4.37c0.43-1.09,0.8-2.02,0.96-2.41
	c0.52-1.22,0.66-1.4,1.62-1.4c0.21,0,0.27-0.16,0.27-0.25c0-0.04-0.01-0.21-0.15-0.21H201.85z"/>
<path d="M218.49,166.67l-0.89,0.03l-1.2-0.05l-0.91-0.03c-0.15,0-0.23,0.09-0.23,0.25c0,0.22,0,0.29,0.84,0.29
	c0.81,0,0.77,0.22,0.77,0.57c0,0.2-0.07,0.39-0.14,0.57c-0.29,0.74-0.7,1.43-1.07,2.12c-0.42,0.78-0.83,1.58-1.26,2.35
	c-0.09,0.15-0.68,1.22-0.91,0.78l-0.17-0.33c-2.29-4.28-2.69-5.16-2.69-5.44c0-0.56,0.53-0.64,1.11-0.64c0.47,0,0.47-0.06,0.47-0.27
	c0-0.23-0.05-0.27-0.37-0.27c-0.44,0-0.9,0.02-1.34,0.04c-0.44,0.02-0.9,0.04-1.34,0.04c-0.41,0-0.84-0.02-1.25-0.04
	c-0.4-0.02-0.83-0.04-1.24-0.04c-0.19,0-0.31,0.02-0.31,0.25c0,0.27,0.01,0.29,0.55,0.29c0.6,0,1.02,0.05,1.37,0.71l3.68,6.98
	c0.1,0.16,0.18,0.36,0.18,1.27c0,0.82-0.02,2.09-0.06,3.12c-0.02,0.56-0.15,0.89-1.72,0.89c-0.53,0-0.53,0.1-0.53,0.31
	c0,0.19,0,0.23,0.13,0.23l0.09-0.01c0.18-0.01,0.65-0.03,3.03-0.03c2.4,0,2.88,0.03,3.05,0.03l0.08,0.01c0.13,0,0.13-0.04,0.13-0.23
	c0-0.21,0-0.31-0.53-0.31c-1.57,0-1.7-0.34-1.72-0.89c-0.04-1.02-0.06-2.3-0.06-3.12c0-1.14,0.04-1.22,0.46-1.97l3.12-5.66
	c0.39-0.76,0.78-1.34,1.96-1.34c0.68,0,0.7-0.09,0.7-0.29c0-0.17-0.07-0.25-0.23-0.25C219.56,166.62,218.99,166.64,218.49,166.67"/>
<path d="M217.84,176.35c0,2.64,1.91,4.55,4.55,4.55c2.73,0,4.57-1.83,4.57-4.55c0-2.64-1.92-4.55-4.57-4.55
	C219.8,171.81,217.84,173.76,217.84,176.35 M219.67,176.35c0-0.96,0.2-4.09,2.73-4.09c2.55,0,2.75,3.13,2.75,4.09
	c0,1.87-0.48,4.09-2.75,4.09C220.14,180.45,219.67,178.22,219.67,176.35"/>
<path d="M230.87,171.64c-0.29,0.17-0.9,0.53-2.51,0.86c-0.09,0.02-0.14,0.11-0.14,0.25c0,0.13,0.02,0.19,0.16,0.21
	c0.99,0.1,1.18,0.5,1.18,1.21v5.01c0,0.86-0.17,1.03-1.03,1.03c-0.4,0-0.58,0.07-0.58,0.23c0,0.23,0.11,0.23,0.15,0.23l0.4-0.01
	c0.33-0.01,0.83-0.03,1.89-0.03l1.26,0.02l0.98,0.02c0.21,0,0.27-0.01,0.27-0.25c0-0.19-0.04-0.21-0.78-0.21
	c-1.01,0-1.01-0.47-1.01-1.19v-4.48c0-0.2,0-0.42,0.15-0.59c0.46-0.52,1.01-0.86,1.38-0.86c0.28,0,0.46,0.16,0.65,0.34
	c0.22,0.2,0.45,0.41,0.87,0.41c0.59,0,0.94-0.49,0.94-0.96c0-0.65-0.49-1.08-1.24-1.08c-1.01,0-2.05,0.93-2.75,1.71
	c-0.01,0.01-0.02,0.01-0.03,0.01c-0.01-0.01-0.01-0.01-0.01-0.03c0-0.72,0.04-1.18,0.07-1.48l0.02-0.32c0-0.08-0.03-0.16-0.05-0.17
	C231.05,171.53,230.98,171.57,230.87,171.64"/>
<path d="M238.19,165.93c-0.47,0.19-1.24,0.52-2.34,0.71c-0.09,0.02-0.14,0.11-0.14,0.25c0,0.13,0.05,0.19,0.15,0.21
	c1.09,0.1,1.17,0.35,1.17,2.08v6.9c0,2.71,0,3.62-0.16,3.84c-0.2,0.26-1.29,0.29-1.3,0.29c-0.04,0-0.07,0-0.07,0.27
	c0,0.12,0.01,0.19,0.13,0.19l0.17-0.01c0.27-0.01,0.92-0.03,2.35-0.03c1.09,0,1.48,0.02,1.65,0.03l0.09,0.01
	c0.16,0,0.19-0.09,0.19-0.23c0-0.19-0.05-0.23-0.07-0.23c-1.33,0-1.43-0.36-1.43-0.91v-2.59c0-0.01,0.01-0.02,0.03-0.02
	c0.22,0,0.47,0.03,0.67,0.27l1.78,2.07c0.59,0.67,0.71,0.81,0.71,0.94c0,0.2-0.69,0.24-0.7,0.24c-0.16,0-0.19,0.08-0.19,0.21
	c0,0.21,0,0.25,0.15,0.25l0.45-0.01l1.43-0.03c1.06,0,1.59,0.02,1.93,0.03l0.46,0.01c0.17,0,0.19-0.13,0.19-0.17
	c0-0.25-0.05-0.29-0.25-0.29c-1.11,0-1.26-0.07-2.05-0.95c-2.76-3.14-2.87-3.26-2.87-3.39s0.1-0.26,2.58-2.42
	c0.88-0.78,1.34-0.84,1.46-0.84c0.6,0,0.6,0,0.6-0.29c0-0.17-0.07-0.17-0.15-0.17l-1.84,0.04l-1.99-0.04
	c-0.04,0-0.08,0.02-0.11,0.04c-0.04,0.04-0.06,0.1-0.06,0.19c0,0.2,0.01,0.23,0.21,0.23c0.61,0,0.94-0.07,0.94,0.45
	c0,0.34-0.29,0.62-0.38,0.69c-1.72,1.77-2.49,2.38-3.08,2.38c-0.01,0,0.08,0.1,0.08,0.08v-7.38c0-1.45,0.03-2.39,0.09-2.79
	l0.01-0.05c0-0.09-0.03-0.19-0.09-0.19C238.53,165.79,238.39,165.85,238.19,165.93"/>
<path d="M24.78,74.59l-1.03,0.03l-0.11-0.01c-1.98-0.08-3.26-0.1-3.99-0.1c-0.36,0-0.57,0.04-0.66,0.13
	c-0.04,0.04-0.06,0.1-0.06,0.16c0,0.21,0.16,0.29,0.58,0.29c0.41,0,1.01,0.04,1.29,0.11c1.23,0.26,1.48,0.9,1.55,2.05
	c0.07,1.14,0.07,2.12,0.07,7.56v4.45c0,3.84-0.15,6.93-2.07,8.85c-1.74,1.74-4.03,1.93-4.94,1.93c-1.25,0-2.89-0.16-4.47-1.47
	c-1.98-1.62-2.79-4.16-2.79-8.79V84.8c0-5.44,0-6.42,0.07-7.56c0.07-1.16,0.31-1.86,1.34-2.05c0.43-0.07,0.64-0.11,1.03-0.11
	c0.39,0,0.54-0.08,0.54-0.29s-0.21-0.29-0.76-0.29c-0.7,0-1.71,0.03-2.59,0.06c-0.72,0.02-1.4,0.05-1.79,0.05
	c-0.46,0-1.13-0.02-1.91-0.04c-1.04-0.03-2.22-0.06-3.3-0.06c-0.4,0-0.6,0.04-0.7,0.13c-0.01,0.05-0.03,0.1-0.03,0.16
	c0,0.21,0.16,0.29,0.58,0.29c0.48,0,1.1,0.04,1.4,0.11c1.22,0.26,1.48,0.9,1.55,2.05c0.07,1.14,0.07,2.12,0.07,7.56v5.2
	c0,4.48,1,7.47,3.16,9.42c2.71,2.45,6.34,2.45,7.89,2.45c2.06,0,4.76-0.29,7.4-2.56c2.96-2.54,3.37-6.65,3.37-10.7v-3.81
	c0-5.44,0-6.42,0.07-7.56c0.07-1.16,0.31-1.86,1.34-2.05c0.43-0.07,0.64-0.11,1.03-0.11c0.45,0,0.62-0.08,0.62-0.29
	s-0.2-0.29-0.72-0.29C26.92,74.51,25.68,74.56,24.78,74.59"/>
<path d="M35.07,75.09l-0.32,21.09c-0.04,3.19-0.19,4.16-1.12,4.44c-0.55,0.16-1.24,0.18-1.61,0.18c-0.38,0-0.54,0.08-0.54,0.26
	c0,0.28,0.26,0.33,0.76,0.33c1.31,0,2.52-0.05,3.24-0.09l0.61-0.02l1,0.03c0.81,0.03,1.92,0.08,3.42,0.08c0.56,0,0.79-0.1,0.79-0.33
	c0-0.18-0.17-0.26-0.58-0.26c-0.53,0-1.23-0.03-1.86-0.25c-0.82-0.29-1.2-1.48-1.26-3.98l-0.39-14.96c0-0.01,0-0.01,0.01-0.02
	c0.01-0.01,0.01-0.01,0.02-0.01h0.11c0.01,0,0.01,0,0.02,0.01l0.78,0.85c1.5,1.65,4.61,5.06,7.7,8.12l4.73,4.74
	c2.28,2.3,4.44,4.47,5.77,5.74c0.38,0.38,0.81,0.78,1.19,0.78c0.31,0,0.44-0.32,0.44-1.08l0.39-22.48c0.04-2.06,0.35-2.77,1.34-3.05
	c0.43-0.11,0.71-0.11,1.08-0.11c0.41,0,0.61-0.1,0.61-0.29c0-0.25-0.29-0.29-0.79-0.29c-1.18,0-2.17,0.05-2.83,0.08l-0.66,0.03
	l-1.26-0.04c-0.85-0.03-1.92-0.07-3.05-0.07c-0.34,0-0.71,0.01-0.84,0.15c-0.04,0.04-0.06,0.09-0.06,0.15
	c0,0.15,0.07,0.29,0.54,0.29c0.51,0,1.36,0,1.9,0.22c0.9,0.38,1.19,1.13,1.23,3.23l0.35,16c0,0.01,0,0.01-0.01,0.02
	c-0.01,0.01-0.01,0.01-0.02,0.01h-0.18c-0.01,0-0.01,0-0.02-0.01c-0.26-0.25-1.27-1.31-2.56-2.66c-1.73-1.82-3.89-4.08-5.28-5.47
	c-5.42-5.38-10.99-11.38-11.05-11.44l-0.33-0.36c-0.4-0.44-0.66-0.73-0.96-0.73C35.21,73.91,35.07,74.28,35.07,75.09"/>
<path d="M74.16,74.57c-0.7,0.02-1.35,0.04-1.75,0.04c-0.48,0-1.23-0.02-2.02-0.05c-0.93-0.03-1.88-0.06-2.61-0.06
	c-0.44,0-0.68,0.04-0.78,0.14c-0.03,0.03-0.05,0.07-0.05,0.12c0,0.24,0.15,0.33,0.54,0.33c0.51,0,0.94,0.05,1.29,0.14
	c0.79,0.18,1.16,0.78,1.23,2.02c0.07,1.14,0.07,2.12,0.07,7.56v6.27c0,3.5,0,6.27-0.18,7.77c-0.1,1.03-0.31,1.66-1.05,1.8
	c-0.43,0.1-0.86,0.14-1.29,0.14c-0.48,0-0.54,0.14-0.54,0.26c0,0.22,0.22,0.33,0.69,0.33c0.81,0,1.87-0.03,2.81-0.07
	c0.71-0.02,1.32-0.04,1.68-0.04l1.64,0.04c1.11,0.03,2.48,0.07,3.91,0.07c0.25,0,0.65-0.04,0.65-0.33c0-0.21-0.29-0.26-0.54-0.26
	c-0.54,0-1.32-0.07-1.82-0.14c-1.06-0.14-1.33-0.76-1.45-1.77c-0.14-1.53-0.14-4.3-0.14-7.81V84.8c0-5.44,0-6.41,0.07-7.56
	s0.31-1.86,1.34-2.05c0.42-0.07,0.71-0.11,1.07-0.11c0.39,0,0.54-0.09,0.54-0.33c0-0.17-0.23-0.26-0.72-0.26
	C76,74.51,75.02,74.54,74.16,74.57"/>
<path d="M106.1,74.57l-1.24,0.04l-0.8-0.03c-0.7-0.03-1.77-0.08-2.94-0.08c-0.53,0-0.79,0.05-0.91,0.16
	c-0.04,0.04-0.07,0.1-0.07,0.17c0,0.21,0.23,0.26,0.58,0.26c0.59,0,1.08,0.06,1.43,0.18s0.48,0.44,0.48,0.7
	c0,0.3-0.13,0.82-0.32,1.33c-0.53,1.45-2.52,6.43-4.27,10.84l-2.75,6.91c-0.01,0.01-0.01,0.02-0.02,0.02h-0.14
	c-0.01,0-0.02-0.01-0.02-0.02l-6.13-16.17c-0.55-1.42-0.82-2.32-0.82-2.75c0-0.34,0.12-0.59,0.37-0.77c0.3-0.22,0.85-0.26,1.41-0.26
	c0.36,0,0.51-0.09,0.51-0.29c0-0.24-0.43-0.29-0.8-0.29c-1.04,0-2.07,0.04-2.9,0.07l-1.48,0.04c-0.56,0-1.29-0.02-2.07-0.04
	c-0.96-0.03-2.06-0.06-3.1-0.06c-0.34,0-0.71,0.01-0.84,0.15c-0.04,0.04-0.06,0.09-0.06,0.15c0,0.18,0.07,0.29,0.4,0.29
	c0.28,0,0.86,0,1.4,0.14c1.25,0.35,1.88,0.71,2.72,2.72l8.98,21.77c0.69,1.71,0.89,2.16,1.33,2.16c0.45,0,0.67-0.51,1.42-2.18
	l0.2-0.44l1.4-3.22l3.33-7.64c0.79-1.8,1.42-3.2,1.98-4.43c0.79-1.75,1.48-3.26,2.29-5.23c0.92-2.17,1.45-2.86,1.97-3.22
	c0.65-0.43,1.4-0.43,1.76-0.43c0.39,0,0.54-0.09,0.54-0.29c0-0.21-0.22-0.29-0.72-0.29C107.6,74.51,106.8,74.54,106.1,74.57"/>
<path d="M127.17,74.3l-0.22,0.06c-0.25,0.06-0.72,0.13-1.53,0.21c-0.61,0.03-6.43,0.04-8.91,0.04l-1.8-0.04
	c-1-0.03-2.23-0.07-3.33-0.07c-0.55,0-0.76,0.08-0.76,0.29s0.16,0.3,0.58,0.3c0.48,0,1.1,0.03,1.39,0.11
	c1.23,0.26,1.49,0.9,1.55,2.05c0.07,1.14,0.07,2.12,0.07,7.56v6.27c0,3.27,0,6.09-0.18,7.59c-0.14,1-0.31,1.84-1.05,1.98
	c-0.44,0.1-0.86,0.14-1.29,0.14c-0.48,0-0.54,0.14-0.54,0.26c0,0.22,0.22,0.33,0.69,0.33c0.81,0,1.87-0.03,2.81-0.07
	c0.71-0.02,1.32-0.04,1.68-0.04c0.81,0,1.65,0.03,2.71,0.07c1.72,0.06,3.85,0.14,7.16,0.14c1.33,0,1.65,0,1.9-0.9
	c0.18-0.71,0.46-3.14,0.46-3.95c0-0.39-0.01-0.62-0.26-0.62c-0.22,0-0.29,0.11-0.37,0.51c-0.25,1.49-0.71,2.23-1.62,2.66
	c-0.93,0.43-2.45,0.43-3.36,0.43c-3.72,0-4.23-0.6-4.3-3.02c-0.02-0.73-0.02-2.57-0.01-4.05l0.01-1.47v-2.82
	c0-0.2,0.03-0.38,0.24-0.38c0.8,0,4.37,0.03,5.06,0.11c1.17,0.13,1.81,0.57,2.02,1.41c0.08,0.33,0.1,0.66,0.12,0.96l0.02,0.33
	c0,0.2,0.09,0.29,0.3,0.29c0.29,0,0.29-0.38,0.29-0.65c0-0.26,0.07-1.67,0.14-2.39c0.08-1.27,0.19-1.93,0.24-2.29l0.04-0.3
	c0-0.17-0.08-0.26-0.22-0.26c-0.16,0-0.29,0.15-0.5,0.4l-0.05,0.05c-0.33,0.36-0.86,0.47-1.73,0.54c-0.71,0.06-3.88,0.07-5.7,0.07
	c-0.26,0-0.28-0.2-0.28-0.42v-9.01c0-0.27,0.08-0.38,0.28-0.38c0.67,0,4.46,0.07,5.06,0.14c1.85,0.22,2.17,0.68,2.41,1.3
	c0.21,0.5,0.22,1.21,0.22,1.29c0,0.34,0.08,0.47,0.29,0.47c0.23,0,0.29-0.19,0.33-0.37c0.04-0.27,0.09-1.01,0.13-1.61l0.05-0.74
	c0.08-1.11,0.18-1.65,0.24-1.98c0.03-0.15,0.05-0.25,0.05-0.33c0-0.21-0.05-0.3-0.19-0.3C127.41,74.22,127.28,74.27,127.17,74.3"/>
<path d="M142.1,74.56c-0.99,0.03-2,0.05-2.63,0.05l-1.42-0.03c-1.02-0.03-2.29-0.07-3.45-0.07c-0.39,0-0.6,0.04-0.7,0.13
	c-0.04,0.04-0.06,0.09-0.06,0.16c0,0.21,0.16,0.29,0.58,0.29c0.48,0,1.1,0.03,1.39,0.11c1.23,0.26,1.48,0.9,1.55,2.05
	c0.07,1.14,0.07,2.12,0.07,7.56v6.27c0,3.27,0,6.09-0.18,7.59c-0.14,1-0.31,1.83-1.05,1.98c-0.43,0.1-0.86,0.14-1.29,0.14
	c-0.48,0-0.54,0.14-0.54,0.26c0,0.22,0.22,0.33,0.69,0.33c0.84,0,1.98-0.04,2.9-0.07l1.45-0.04l1.15,0.03
	c1.08,0.03,2.71,0.08,4.08,0.08c0.46,0,0.69-0.11,0.69-0.33c0-0.21-0.22-0.26-0.4-0.26c-0.44,0-1.23-0.07-1.75-0.14
	c-1.13-0.15-1.31-1.02-1.41-1.98c-0.18-1.5-0.18-4.34-0.18-7.63v-0.5c0-0.21,0.1-0.31,0.31-0.31l3.1,0.07
	c0.27,0,0.48,0.04,0.66,0.26c0.27,0.31,0.93,1.26,1.71,2.35l1.82,2.56c2.07,2.85,3.39,4.44,4.87,5.23c0.95,0.51,1.87,0.67,3.8,0.67
	h3.38c0.47,0,0.65-0.09,0.65-0.33c0-0.21-0.22-0.26-0.4-0.26c-0.28,0-0.6-0.03-1-0.11l-0.04-0.01c-0.55-0.11-2.01-0.4-3.97-2.42
	c-1.82-1.91-3.88-4.51-6.49-7.81l-1.24-1.56c-0.01-0.01-0.01-0.03,0.01-0.04c3.29-2.67,4.69-5.05,4.69-7.96
	c0-2.55-1.58-4.29-2.41-4.86c-1.97-1.35-4.41-1.53-6.54-1.53C143.96,74.51,143.06,74.54,142.1,74.56 M141.93,88.3L141.93,88.3
	c-0.26-0.11-0.34-0.26-0.34-0.67V76.8c0-0.26,0.05-0.44,0.34-0.52c0.33-0.1,0.92-0.14,1.9-0.14c2.04,0,5.48,1.38,5.48,6.55
	c0,3.32-1.32,4.79-2.11,5.37c-0.63,0.46-1.09,0.61-2.54,0.61C143.62,88.65,142.6,88.52,141.93,88.3"/>
<path d="M163.8,80.72c0,3.06,1.53,5.5,5.26,8.42l1.64,1.28c2.91,2.24,3.5,3.91,3.5,5.72c0,1.98-1.68,4.09-4.8,4.09
	c-1.51,0-4.18-0.47-5.12-3.62c-0.19-0.65-0.32-1.39-0.32-1.82c0-0.3-0.04-0.58-0.33-0.58c-0.23,0-0.36,0.29-0.4,0.9l-0.01,0.11
	c-0.04,0.67-0.17,2.7-0.17,4.55c0,0.76,0.1,0.94,0.66,1.19c1.47,0.65,3.02,0.93,5.19,0.93c2.27,0,4.12-0.48,5.65-1.46
	c2.9-1.9,3.34-4.68,3.34-6.18c0-3.36-1.53-5.73-5.83-9.06l-1-0.75c-2.87-2.17-3.79-3.43-3.79-5.15c0-2.21,1.72-3.69,4.27-3.69
	c2.26,0,3.31,1,3.9,1.75c0.76,0.94,0.93,2.05,0.93,2.37c0,0.42,0.1,0.62,0.33,0.62c0.27,0,0.36-0.28,0.36-1.04
	c0-1.97,0.07-3.06,0.11-3.7l0.03-0.58c0-0.21-0.14-0.33-0.48-0.4c-1.05-0.28-2.53-0.6-4.73-0.6
	C167.17,74.01,163.8,76.77,163.8,80.72"/>
<path d="M191.21,74.57c-0.7,0.02-1.35,0.04-1.75,0.04c-0.48,0-1.23-0.02-2.02-0.05c-0.93-0.03-1.89-0.06-2.61-0.06
	c-0.44,0-0.68,0.04-0.78,0.14c-0.03,0.03-0.05,0.07-0.05,0.12c0,0.24,0.15,0.33,0.54,0.33c0.51,0,0.94,0.05,1.29,0.14
	c0.79,0.18,1.16,0.78,1.23,2.02c0.07,1.14,0.07,2.12,0.07,7.56v6.27c0,3.5,0,6.27-0.18,7.77c-0.11,1.03-0.31,1.66-1.05,1.8
	c-0.43,0.1-0.85,0.14-1.29,0.14c-0.48,0-0.54,0.14-0.54,0.26c0,0.22,0.22,0.33,0.69,0.33c0.81,0,1.87-0.03,2.81-0.07
	c0.71-0.02,1.32-0.04,1.68-0.04l1.64,0.04c1.11,0.03,2.48,0.07,3.92,0.07c0.24,0,0.65-0.04,0.65-0.33c0-0.21-0.3-0.26-0.54-0.26
	c-0.54,0-1.32-0.07-1.82-0.14c-1.06-0.14-1.33-0.76-1.45-1.77c-0.14-1.53-0.14-4.3-0.14-7.81V84.8c0-5.44,0-6.41,0.07-7.56
	s0.31-1.86,1.34-2.05c0.42-0.07,0.71-0.11,1.07-0.11c0.39,0,0.54-0.09,0.54-0.33c0-0.17-0.23-0.26-0.72-0.26
	C193.06,74.51,192.08,74.54,191.21,74.57"/>
<path d="M198.62,74.67L198.62,74.67c-0.08,0.31-0.75,3.53-0.75,4.09c0,0.4,0.08,0.54,0.3,0.54c0.19,0,0.29-0.12,0.36-0.41
	c0.05-0.2,0.2-0.64,0.61-1.25c0.56-0.82,1.48-0.98,3.48-1.05l5.31-0.14c0.01,0,0.01,0,0.02,0.01c0.01,0.01,0.01,0.01,0.01,0.02v14.6
	c0,3.27,0,6.1-0.18,7.59c-0.1,0.94-0.29,1.83-1.05,1.98c-0.43,0.09-0.86,0.14-1.29,0.14c-0.48,0-0.54,0.14-0.54,0.26
	c0,0.22,0.23,0.33,0.69,0.33c0.81,0,1.87-0.04,2.81-0.07c0.71-0.02,1.32-0.04,1.68-0.04l1.69,0.03c1.1,0.03,2.48,0.07,3.9,0.07
	c0.24,0,0.65-0.04,0.65-0.33c0-0.21-0.29-0.26-0.54-0.26c-0.54,0-1.32-0.07-1.82-0.14c-1.13-0.15-1.31-1.01-1.41-1.95
	c-0.18-1.53-0.18-4.36-0.18-7.63v-14.6c0-0.01,0.01-0.02,0.01-0.02c0.01-0.01,0.01-0.01,0.02-0.01l4.49,0.11
	c3.55,0.08,4.17,1.3,4.23,2.02l0.03,0.39c0.04,0.55,0.11,0.69,0.37,0.69c0.17,0,0.26-0.15,0.29-0.55c0-0.48,0.03-1.39,0.06-2.26
	c0.02-0.78,0.05-1.51,0.05-1.87c0-0.54-0.04-0.72-0.26-0.72c-0.07,0-0.18,0.02-0.35,0.06c-0.48,0.1-1.38,0.3-3.07,0.3h-14.11
	c-1.13,0-2.5-0.07-3.56-0.18c-0.55-0.04-0.9-0.2-1.15-0.31c-0.15-0.07-0.27-0.12-0.38-0.12C198.84,74.01,198.73,74.18,198.62,74.67"
	/>
<path d="M247.66,74.56c-0.8,0.03-1.63,0.05-2.04,0.05c-0.5,0-1.02-0.02-1.57-0.05c-0.58-0.03-1.17-0.06-1.78-0.06
	c-0.29,0-0.44,0.03-0.52,0.11c-0.04,0.04-0.07,0.1-0.07,0.19c0,0.19,0.32,0.26,0.62,0.33c0.51,0.12,0.77,0.43,0.77,0.92
	c0,0.5-0.17,1.13-0.5,1.86c-0.25,0.55-1.49,2.78-2.7,4.94c-1.21,2.17-2.47,4.42-2.64,4.85c-0.01,0.01-0.01,0.02-0.02,0.02
	s-0.02-0.01-0.02-0.01l-0.73-1.26c-1.6-2.77-4.92-8.53-5.33-9.4c-0.3-0.6-0.43-0.97-0.43-1.22c0-0.33,0.21-0.6,0.52-0.67l0.18-0.05
	c0.4-0.1,0.58-0.15,0.58-0.32c0-0.2-0.16-0.29-0.51-0.29c-0.95,0-1.86,0.04-2.59,0.07l-1.23,0.04c-0.68,0-1.83-0.03-2.84-0.06
	l-1.64-0.04c-0.29,0-0.5,0.05-0.59,0.15c-0.04,0.04-0.06,0.09-0.06,0.15c0,0.2,0.17,0.29,0.51,0.29c0.47,0,1.11,0.25,1.51,0.47
	c0.73,0.43,1.63,1.38,2.47,2.61c1.27,1.89,6.04,9.73,6.27,10.27l0.01,0.01c0.46,1.01,0.81,1.82,0.81,3.74v2.92
	c0,0.57,0,2.07-0.11,3.57c-0.08,1.17-0.47,1.85-1.13,1.98c-0.43,0.09-0.84,0.14-1.25,0.14c-0.25,0-0.54,0.04-0.54,0.26
	c0,0.24,0.21,0.33,0.76,0.33c0.72,0,1.74-0.03,2.63-0.06c0.73-0.02,1.42-0.04,1.82-0.04l1.67,0.04c1.08,0.03,2.43,0.07,3.79,0.07
	c0.48,0,0.72-0.11,0.72-0.33s-0.3-0.26-0.54-0.26c-0.51,0-1.3-0.07-1.78-0.14c-1.2-0.16-1.43-1.14-1.48-1.98
	c-0.11-1.5-0.11-3-0.11-3.57v-2.92c0-1.17,0-2.29,0.53-3.57c0.62-1.48,5.61-9.89,6.81-11.34c0.79-0.97,1.18-1.4,1.93-1.75
	c0.52-0.28,1.2-0.43,1.58-0.43c0.24,0,0.65-0.04,0.65-0.33c0-0.17-0.2-0.26-0.62-0.26C249.11,74.51,248.4,74.53,247.66,74.56"/>
<path d="M33.04,122.58l-6.27,15.68c-0.46,1.14-0.93,2.11-2.14,2.26c-0.2,0.02-0.55,0.05-0.78,0.05c-0.23,0-0.27,0.07-0.27,0.17
	c0,0.17,0.11,0.22,0.45,0.22c0.89,0,1.79-0.04,2.39-0.06l0.55-0.01l1.31,0.04c0.46,0.02,0.94,0.04,1.34,0.04
	c0.29,0,0.4-0.06,0.4-0.22c0-0.12-0.05-0.17-0.35-0.17h-0.38c-0.7,0-1.02-0.26-1.02-0.8c0-0.29,0.12-0.89,0.38-1.54l1.35-3.57
	c0.05-0.14,0.1-0.22,0.25-0.22h5.57c0.14,0,0.22,0.06,0.27,0.19l2,5.29c0.07,0.18,0.04,0.31,0,0.4c-0.05,0.1-0.14,0.18-0.25,0.21
	c-0.25,0.03-0.33,0.07-0.33,0.2c0,0.14,0.25,0.15,0.62,0.17h0.11c2,0.05,3.83,0.05,4.72,0.05c0.89,0,1.12-0.05,1.12-0.22
	c0-0.15-0.1-0.17-0.3-0.17c-0.25,0-0.64-0.02-1.06-0.1c-0.58-0.14-1.3-0.57-2.21-2.74c-0.9-2.13-2.58-6.36-3.93-9.75
	c-1.07-2.69-2-5.01-2.26-5.61s-0.4-0.78-0.6-0.78C33.49,121.6,33.34,121.86,33.04,122.58 M30.64,133.22
	c-0.03-0.04-0.03-0.09-0.02-0.16l2.3-6.14c0.02-0.09,0.08-0.24,0.17-0.24c0.09,0,0.12,0.12,0.15,0.22v0.02l2.25,6.16
	c0.02,0.05,0.01,0.1-0.01,0.13c-0.02,0.02-0.05,0.05-0.14,0.05h-4.59C30.7,133.26,30.66,133.25,30.64,133.22"/>
<path d="M42.23,122.25L42.23,122.25c-0.05,0.22-0.52,2.47-0.52,2.87c0,0.28,0.05,0.37,0.2,0.37c0.13,0,0.2-0.08,0.25-0.28
	c0.03-0.14,0.14-0.45,0.43-0.88c0.39-0.58,1.04-0.69,2.44-0.74l3.72-0.1c0.01,0,0.01,0,0.02,0.01c0.01,0.01,0.01,0.01,0.01,0.02
	v10.24c0,2.29,0,4.27-0.13,5.32c-0.07,0.66-0.21,1.29-0.74,1.4c-0.31,0.07-0.6,0.1-0.9,0.1c-0.33,0-0.37,0.09-0.37,0.17
	c0,0.15,0.15,0.22,0.47,0.22c0.57,0,1.31-0.02,1.97-0.04l1.18-0.03l1.19,0.03c0.77,0.02,1.74,0.05,2.73,0.05
	c0.13,0,0.45-0.02,0.45-0.22c0-0.15-0.2-0.17-0.38-0.17c-0.38,0-0.93-0.05-1.28-0.1c-0.79-0.11-0.93-0.71-1-1.37
	c-0.13-1.07-0.13-3.06-0.13-5.35v-10.24c0-0.01,0-0.01,0.01-0.02c0.01-0.01,0.01-0.01,0.02-0.01l3.14,0.08
	c2.49,0.05,2.93,0.92,2.97,1.42l0.03,0.28c0.03,0.38,0.08,0.47,0.25,0.47c0.12,0,0.17-0.1,0.2-0.38l0.04-1.59l0.03-1.31
	c0-0.4-0.03-0.5-0.17-0.5l-0.24,0.04c-0.34,0.07-0.97,0.21-2.15,0.21h-9.89c-0.8,0-1.75-0.04-2.5-0.12
	c-0.39-0.03-0.63-0.14-0.81-0.22c-0.11-0.05-0.19-0.08-0.26-0.08C42.38,121.8,42.31,121.92,42.23,122.25"/>
<path d="M75.49,116.02L64.17,147c-0.97,2.69-2.02,4.42-4.21,4.71c-0.42,0.05-1.11,0.1-1.45,0.1c-0.21,0-0.42,0.07-0.42,0.27
	c0,0.27,0.26,0.37,0.92,0.37c1.58,0,3.33-0.07,4.49-0.11l1.15-0.04c0.22,0,0.71,0.02,1.28,0.05c0.84,0.04,1.9,0.1,2.61,0.1
	c0.49,0,0.72-0.12,0.72-0.37c0-0.13-0.05-0.27-0.47-0.27h-0.5c-0.93,0-1.92-0.52-1.92-1.47c0-0.91,0.25-2.1,0.7-3.35l2.99-8.83
	c0.11-0.28,0.28-0.41,0.52-0.41h10.73c0.26,0,0.37,0.11,0.47,0.31l4.64,12.27c0.2,0.52,0.13,0.86,0.04,1.05
	c-0.08,0.16-0.2,0.28-0.35,0.33c-0.22,0.06-0.33,0.16-0.33,0.32c0,0.25,0.47,0.27,1.24,0.31l0.23,0.01c2.22,0.07,5,0.1,7.83,0.1
	c0.44,0,0.97-0.07,0.97-0.37c0-0.2-0.13-0.27-0.47-0.27c-0.5,0-1.26-0.05-2-0.3c-1.15-0.33-2.57-1.25-4.31-5.55
	c-2.17-5.41-6.77-17.42-9.52-24.6c-1.1-2.87-1.89-4.94-2.11-5.49c-0.59-1.52-0.78-1.78-1.07-1.78
	C76.28,114.09,76.09,114.37,75.49,116.02 M75.34,122.14c0.13-0.39,0.26-0.58,0.4-0.58s0.27,0.19,0.4,0.58l4.74,13.47
	c0.03,0.12,0.05,0.23-0.01,0.31c-0.04,0.05-0.11,0.08-0.21,0.08h-9.53c-0.08,0-0.15-0.03-0.18-0.08c-0.05-0.07-0.04-0.17,0.01-0.3
	l0,0L75.34,122.14z"/>
<path d="M102.06,120.84c-0.82,0.02-1.52,0.04-1.9,0.04c-0.41,0-1.06-0.02-1.81-0.04c-0.99-0.03-2.11-0.07-3.07-0.07
	c-0.39,0-0.6,0.04-0.7,0.14c-0.04,0.04-0.06,0.09-0.06,0.16c0,0.21,0.16,0.29,0.58,0.29c0.48,0,0.9,0.04,1.18,0.11
	c1.23,0.26,1.48,0.89,1.55,2.05c0.07,1.14,0.07,2.12,0.07,7.55v6.27c0,3.27,0,6.1-0.18,7.59c-0.14,1-0.31,1.84-1.05,1.98
	c-0.43,0.1-0.86,0.14-1.29,0.14c-0.48,0-0.54,0.14-0.54,0.26c0,0.22,0.22,0.33,0.69,0.33c0.81,0,1.87-0.04,2.81-0.07
	c0.71-0.02,1.32-0.04,1.68-0.04c1.24,0,2.37,0.04,3.68,0.08c1.76,0.06,3.76,0.13,6.69,0.13c1.88,0,2.02-0.2,2.22-0.94
	c0.28-1.02,0.53-3.69,0.53-4.09c0-0.44-0.04-0.58-0.26-0.58c-0.26,0-0.33,0.19-0.37,0.51c-0.07,0.69-0.51,1.69-0.93,2.15
	c-0.87,0.94-2.16,1.01-4.19,1.01c-2.89,0-3.75-0.28-4.33-0.79c-0.76-0.65-0.76-3.15-0.76-7.68v-6.27c0-5.43,0-6.41,0.07-7.55
	c0.07-1.16,0.31-1.86,1.34-2.05c0.45-0.08,1.02-0.11,1.39-0.11c0.45,0,0.62-0.08,0.62-0.29s-0.2-0.29-0.72-0.29
	C104.23,120.78,103.08,120.81,102.06,120.84"/>
<path d="M123.79,120.82c-0.76,0.03-1.62,0.06-2.57,0.06l-1.37-0.03c-0.97-0.03-2.3-0.07-3.47-0.07c-0.4,0-0.6,0.04-0.7,0.13
	c-0.04,0.04-0.06,0.09-0.06,0.16c0,0.21,0.16,0.3,0.58,0.3c0.48,0,1.1,0.03,1.39,0.11c1.22,0.26,1.48,0.89,1.55,2.05
	c0.07,1.14,0.07,2.12,0.07,7.55v6.27c0,3.27,0,6.1-0.18,7.59c-0.14,1-0.31,1.84-1.05,1.98c-0.43,0.1-0.86,0.14-1.29,0.14
	c-0.48,0-0.54,0.14-0.54,0.26c0,0.22,0.22,0.33,0.69,0.33c0.81,0,1.87-0.03,2.81-0.07c0.71-0.02,1.32-0.04,1.68-0.04
	c0.57,0,1.72,0.06,2.84,0.11c0.99,0.05,1.92,0.1,2.33,0.1c3,0,5.49-0.85,7.2-2.45c1.48-1.39,2.29-3.27,2.29-5.29
	c0-4.03-3.34-6.6-6.47-7.67c-0.01,0-0.02-0.01-0.02-0.02c0-0.01,0-0.02,0.01-0.03c2.17-1.74,3.62-3.46,3.62-6.21
	c0-1.25-0.54-5.32-7.56-5.32C125.01,120.78,124.42,120.8,123.79,120.82 M123.71,132.11L123.71,132.11
	c-0.16-0.04-0.27-0.13-0.27-0.41v-8.8c0-0.41,0.08-0.56,0.34-0.63c0.36-0.07,0.69-0.07,1.18-0.07c3.26,0,4.48,3.4,4.48,5.55
	c0,1.71-0.51,3.02-1.47,3.8c-0.64,0.57-1.5,0.68-2.58,0.68C124.58,132.22,124.03,132.18,123.71,132.11 M123.44,142.34v-8.44
	c0-0.19,0.08-0.28,0.24-0.28c0.54,0,0.89,0,1.53,0.04c1.37,0.07,2.2,0.31,2.97,0.86c3.13,2.18,3.46,5.7,3.46,7.11
	c0,3.39-2.34,4.59-4.34,4.59c-0.82,0-1.64-0.03-2.61-0.43C123.55,145.32,123.44,144.72,123.44,142.34"/>
<path d="M150.43,121.41l-8.94,22.37c-0.65,1.63-1.33,3-3.05,3.22c-0.28,0.04-0.78,0.07-1.11,0.07c-0.29,0-0.4,0.07-0.4,0.26
	c0,0.25,0.16,0.33,0.65,0.33c1.27,0,2.56-0.05,3.42-0.08l0.79-0.02c0.55,0,1.21,0.03,1.86,0.05c0.66,0.03,1.34,0.05,1.92,0.05
	c0.42,0,0.58-0.09,0.58-0.33c0-0.18-0.07-0.26-0.51-0.26h-0.53c-0.99,0-1.45-0.36-1.45-1.13c0-0.4,0.17-1.26,0.54-2.18l1.92-5.09
	c0.08-0.23,0.16-0.3,0.35-0.3h7.94c0.19,0,0.31,0.08,0.38,0.27l2.85,7.55c0.1,0.25,0.06,0.44,0,0.56c-0.07,0.14-0.2,0.26-0.34,0.3
	c-0.36,0.04-0.48,0.11-0.48,0.29c0,0.21,0.35,0.22,0.89,0.25l0.15,0.01c2.85,0.07,5.47,0.07,6.73,0.07c1.28,0,1.61-0.07,1.61-0.33
	c0-0.22-0.14-0.26-0.44-0.26c-0.36,0-0.91-0.03-1.5-0.14c-0.83-0.2-1.85-0.82-3.15-3.9c-1.28-3.04-3.68-9.07-5.61-13.91
	c-1.53-3.83-2.84-7.14-3.22-8s-0.58-1.12-0.87-1.12C151.07,119.99,150.87,120.35,150.43,121.41 M147.02,136.57
	c-0.04-0.05-0.05-0.13-0.02-0.22l3.28-8.76c0.03-0.13,0.1-0.34,0.24-0.34c0.12,0,0.16,0.16,0.2,0.31l0.01,0.03l3.21,8.8
	c0.02,0.07,0.02,0.13-0.01,0.17c-0.04,0.05-0.1,0.07-0.19,0.07h-6.55C147.1,136.63,147.05,136.61,147.02,136.57"/>
<path d="M169.88,121.36l-0.32,21.09c-0.04,3.19-0.19,4.16-1.12,4.44c-0.55,0.16-1.24,0.18-1.61,0.18c-0.38,0-0.54,0.08-0.54,0.26
	c0,0.28,0.26,0.33,0.76,0.33c1.31,0,2.52-0.05,3.24-0.09l0.6-0.02l1,0.03c0.81,0.03,1.92,0.08,3.42,0.08c0.57,0,0.8-0.1,0.8-0.33
	c0-0.18-0.17-0.26-0.58-0.26c-0.54,0-1.23-0.03-1.86-0.25c-0.82-0.29-1.2-1.48-1.26-3.98l-0.39-14.96c0-0.01,0-0.02,0.01-0.02
	c0.01-0.01,0.01-0.01,0.02-0.01h0.11c0.01,0,0.02,0,0.02,0.01l0.78,0.85c1.5,1.64,4.61,5.06,7.7,8.13l4.73,4.73
	c2.29,2.3,4.44,4.47,5.78,5.74c0.38,0.38,0.81,0.78,1.19,0.78c0.31,0,0.44-0.32,0.44-1.08l0.39-22.48c0.03-2.05,0.35-2.77,1.33-3.05
	c0.43-0.11,0.72-0.11,1.08-0.11c0.41,0,0.62-0.1,0.62-0.29c0-0.25-0.29-0.29-0.8-0.29c-1.18,0-2.17,0.05-2.83,0.08l-0.66,0.03
	l-1.26-0.04c-0.86-0.03-1.92-0.07-3.05-0.07c-0.34,0-0.71,0.01-0.84,0.15c-0.04,0.04-0.06,0.09-0.06,0.15
	c0,0.15,0.07,0.29,0.54,0.29c0.51,0,1.36,0,1.9,0.22c0.9,0.38,1.19,1.13,1.23,3.23l0.36,16c0,0.01,0,0.02-0.01,0.02
	c-0.01,0.01-0.01,0.01-0.02,0.01h-0.18c-0.01,0-0.01,0-0.02-0.01c-0.26-0.25-1.27-1.31-2.56-2.65c-1.73-1.82-3.89-4.08-5.28-5.47
	c-5.41-5.38-10.99-11.38-11.05-11.44l-0.33-0.36c-0.4-0.44-0.66-0.73-0.96-0.73C170.02,120.17,169.88,120.55,169.88,121.36"/>
<path d="M222.2,120.83c-0.8,0.03-1.63,0.05-2.04,0.05c-0.5,0-1.02-0.02-1.57-0.05c-0.58-0.03-1.18-0.06-1.78-0.06
	c-0.28,0-0.44,0.03-0.52,0.11c-0.04,0.04-0.06,0.1-0.06,0.19c0,0.19,0.31,0.26,0.62,0.33c0.51,0.12,0.77,0.43,0.77,0.92
	c0,0.5-0.17,1.13-0.5,1.86c-0.25,0.55-1.5,2.78-2.7,4.94c-1.21,2.17-2.47,4.42-2.64,4.85c-0.01,0.01-0.01,0.02-0.02,0.02
	s-0.02-0.01-0.02-0.01l-0.73-1.26c-1.6-2.76-4.92-8.52-5.33-9.39c-0.3-0.6-0.43-0.97-0.43-1.22c0-0.33,0.21-0.6,0.52-0.67l0.18-0.05
	c0.4-0.1,0.58-0.15,0.58-0.32c0-0.2-0.16-0.29-0.51-0.29c-0.95,0-1.86,0.04-2.58,0.07l-1.23,0.04c-0.68,0-1.83-0.03-2.84-0.06
	l-1.65-0.04c-0.29,0-0.49,0.05-0.59,0.15c-0.04,0.04-0.06,0.09-0.06,0.15c0,0.2,0.17,0.29,0.51,0.29c0.48,0,1.11,0.25,1.51,0.47
	c0.73,0.42,1.63,1.38,2.47,2.61c1.27,1.89,6.04,9.73,6.27,10.26l0.01,0.02c0.46,1.01,0.82,1.81,0.82,3.73v2.92
	c0,0.57,0,2.07-0.11,3.57c-0.08,1.17-0.47,1.85-1.13,1.98c-0.43,0.1-0.84,0.14-1.25,0.14c-0.25,0-0.54,0.04-0.54,0.26
	c0,0.24,0.21,0.33,0.76,0.33c0.72,0,1.74-0.03,2.63-0.06c0.73-0.03,1.42-0.05,1.82-0.05l1.67,0.04c1.08,0.03,2.43,0.07,3.79,0.07
	c0.48,0,0.72-0.11,0.72-0.33c0-0.21-0.29-0.26-0.54-0.26c-0.51,0-1.3-0.07-1.78-0.14c-1.21-0.16-1.43-1.14-1.48-1.98
	c-0.11-1.5-0.11-3-0.11-3.57v-2.92c0-1.18,0-2.29,0.53-3.57c0.62-1.48,5.61-9.88,6.81-11.33c0.79-0.97,1.18-1.4,1.93-1.75
	c0.52-0.28,1.2-0.43,1.58-0.43c0.24,0,0.65-0.04,0.65-0.33c0-0.17-0.2-0.26-0.62-0.26C223.64,120.78,222.94,120.8,222.2,120.83"/>
<path fill="#EEB211" d="M138.77,58h-4.4h-4.3h-2.41h-2.64h-6.4h-2.38h-15.78h-2.35v-1.88V42.99V8.68c1.49-1.27,5.21-4.1,9.9-5.83
	c0.05-0.02,0.1-0.04,0.15-0.05v0.01c1.04-0.4,2.13-0.74,3.29-1.03c0,0,0,0,0-0.01c0.01,0,0.01,0,0.01,0
	c2.79-0.85,8.26-1.73,12.68-1.73c7.54,0,18.22,1.72,25.88,8.48V58h-1.3h-9.86"/>
<path fill="#FFFFFF" d="M111.46,1.76c0.81,1.48,1.6,3.16,1.73,3.53c-0.5,1.03-0.96,1.82-1.5,2.89l-0.02-0.02
	c0.07,1.06,1.33,12.55,1.45,13.61c0.04,0.87,1.49,0.61,2.13,1.34c0.21,0.68,0.19,1-0.31,1.47c0.04,0.67,0.32,0.59,0.65,1.32
	c0.06,0.7-0.02,0.92-0.42,1.18c-0.01,1.19,0.89,0.93,0.86,1.6c-0.14,1.74-0.93,1.26-1.93,2.04c-0.27,0.34-1.02,1.29-2.03,1.95
	c-0.89,0.58-2.17,0.73-2.73,1.6c-1.03,1.6-1.38,3.67-2.04,5.71c-1.97,6.17-2.24,6.46-2.58,7.44c-0.75,2.16-2.71,5.58-3.54,6.6
	c-1.1,1.35-2.43,2-3.06,2.08V42.99c1.48-3.27,3.51-4.42,5.29-7.74c0.27-0.5,1.88-4.06,2.42-5.46c0.45-1.19,0.68-2.31,1.28-3.37
	c0.39-0.69,0.92-1.42,1.45-2.02c0.28-0.27,0.55-0.54,0.82-0.82c0.31-0.46,0.64-0.88,1.03-1.22c-0.39-3.79-0.66-10.12-1.11-13.91
	c-0.82-1.14-0.63-0.89-1.93-2.5c0.13-0.64,0.32-1.76,0.64-3.12c0.05-0.02,0.1-0.04,0.15-0.05v0.01c1.05-0.4,2.13-0.74,3.29-1.03
	c0,0,0,0,0-0.01C111.45,1.76,111.45,1.76,111.46,1.76"/>
<path fill="#FFFFFF" d="M116.25,58c-0.88-9.73-2.08-22.8-2.16-23.47c-0.14-1.09-2.06-0.49-2.1,0.82c0.07,0.61,0.89,8.09,1.37,14.44
	c0.02,0.08,0.05,0.91,0.05,0.91s-3.21-12.62-3.77-13.9c-0.08,0.11-0.74,3.82-1.53,7.07c-0.77,3.09-3.06,12.52-7.64,14.12h15.78V58z"
	/>
<path fill="#FFFFFF" d="M148.72,58c-0.28-1.23-0.56-2.29-0.99-3.5c-1.61-4.46-3.86-8.78-6.39-12.42c-1.04-1.49-2.32-3.21-4.53-3.44
	c0,0.04-0.35-0.04-0.35-0.01c0.73,0.54,1.47,1.72,1.91,2.55c2.36,4.34,2.4,12.07,0.51,16.73c-0.01,0.04-0.03,0.07-0.04,0.1h9.88"/>
<path fill="#FFFFFF" d="M139.44,24.2c0.56-0.41,2.94,0.35,3.44,0.48c0-0.03-0.05-0.08-0.05-0.11c-0.33-0.43-0.56-0.76-1.16-1.22
	c-1.16-0.83-3.34-1.87-5.82-1.61c-0.8,0.08-1.18,0.16-1.89,0.32c0.05,0.73,0.09,2.13,0.02,2.87c-0.07,0.61-0.17,0.93-0.42,1.32
	c-1.49,2.19-5.05,1.64-7.94,2.51c-0.96,0.29-1.97,0.66-2.83,1.09s-1.54,0.94-1.56,0.95c0.24-0.33,0.26-0.71,0.7-1.41
	c0.65-1.01,1.32-1.6,3.1-2.33c0.78-0.32,1.98-0.45,3.12-0.72c2.39-0.56,5.26-1.55,5.53-4.22c-1.63,0.31-5.02,0.98-7.51,1.79
	c-2.17,0.7-3.93,1.59-3.93,1.59c-3.27,1.51-5.31,4.09-5.62,4.9c0.29,0.55,0.15,1-0.2,1.44c-0.46,0.59-0.93,0.95-0.98,1.83
	c2.02,0.39,7.27,5.95,8.11,7.58c-0.1,0-5.2-3.12-6.74-3.43c0.07,0.76,1.09,11.86,1.8,20.19h6.4c-0.7-3.09-1.19-4.11-2.76-7.15
	c0.06,0,1.93,1.75,2.91,3.09c0.95,1.3,1.87,2.81,2.48,4.06h2.41c-0.08-0.22-0.13-0.41-0.21-0.65c-2.06-6.09-4.72-10.74-4.89-11.01
	c-0.3-0.47-0.36-0.59-0.89-1.51c0.07,0,4,3.44,5.96,6.17c2,2.79,3.32,4.89,4.33,7h4.4c0.02-0.5,0.07-1.87,0.06-2.31
	c-0.03-1.76-0.23-5.28-0.68-8.15c-0.49-3.09-1.16-4.8-2.77-6.83c-1.54-1.94-3.78-2.84-4.81-3.71c0.14-0.21,0.74-3.15,1.13-3.32
	c0.04-0.01,1.45,0.33,1.47,0.33c1.23,0.33,2.31,0.24,2.8-0.53c0.16-0.32,0.15-1.06,0.26-1.49c0.37-0.1,1.14-0.52,1.13-0.78
	c0.02-0.11-0.01-0.16-0.1-0.38c0.34-0.05,0.32-0.05,0.46-0.29c0.12-0.19,0.05-0.86-0.02-1.14c0.13,0-0.08,0.01,0.05,0.01
	c0.38,0.16,1.73,0.26,1.96,0.11c0.11-0.11,0.15-0.16,0.18-0.34c0.09-0.58-0.12-1.23-0.22-1.61c-0.31-1.19-0.21-1.96-0.25-3.19
	c0,0.02,0,0.03,0,0.04C139.4,24.36,139.4,24.2,139.44,24.2 M121.69,33.75c-0.97,1.11-1.6,2.2-1.76,2.71
	c-0.07-0.09-0.12-1.16-0.03-1.68c0.16-0.83,0.66-2.34,2.1-2.89c0.91-0.35,2.27-0.31,2.27-0.31S122.67,32.63,121.69,33.75"/>
<path fill="#FFFFFF" d="M142.52,22.95c-0.15-0.33-0.3-0.79-0.5-1.23c-0.5-1.12-0.94-2.31-1.49-3.49
	c-2.17-4.74-4.22-10.49-9.14-12.38c0.33-1.09-1.08-1.27-1.18-2.45c0.34-0.49,0.46-1.33,0.33-1.95c-0.1-0.37-0.42-0.45-0.66-0.52
	c-0.92-0.24-2.05,0.48-2.36,0.9c-0.13,0.18-0.31,0.49-0.37,0.67c-0.34,0.04-0.63,0.09-1.04,0.3c-0.92,0.5-1.52,0.93-1.78,2.02
	c0.15,0,2.63-1.45,3.62,0.61c-3.79,0.28-6.98,2.81-8.07,5.65c-0.75,1.97-0.94,4.41-0.97,4.91c-0.22,2.12,0.08,4.67,0.51,6.4
	c0.52,0.22,1.02,0.5,1.5,0.86l0.04-0.02c0.02-0.01,0.04-0.02,0.07-0.02c1.18-0.46,3.55-1.39,4.84-1.78
	c3.01-0.91,9.11-2.2,12.61-1.07c0.89,0.29,1.97,0.87,2.63,1.4c0.58,0.44,1.02,0.88,1.44,1.43
	C142.57,23.13,142.52,23.02,142.52,22.95 M132.82,14.12c-0.17,0-3.62-0.08-7.04,1.15c-3.56,1.51-5.28,2.7-6.22,3.15
	c0-0.06-0.01,0.04-0.01-0.01c0.05-0.1,0.96-2.95,5.54-4.52c3.23-0.92,6.34-0.16,7.72,0.13v0.1H132.82z"/>
</svg>
