<?xml version="1.0" encoding="utf-8"?>
<!-- Generator: Adobe Illustrator 26.0.3, SVG Export Plug-In . SVG Version: 6.00 Build 0)  -->
<svg version="1.0" id="Layer_1" xmlns="http://www.w3.org/2000/svg" xmlns:xlink="http://www.w3.org/1999/xlink" x="0px" y="0px"
	 viewBox="0 0 330 238" style="enable-background:new 0 0 330 238;" xml:space="preserve">
<style type="text/css">
	.st0{fill:#18481D;}
</style>
<path class="st0" d="M247.4,182.8c-0.2,0-0.4-0.1-0.5-0.2l-1.3-2.4c-0.1-0.1-0.2-0.2-0.3-0.2H245v2.3c0,0.3-0.3,0.6-0.6,0.6
	c0,0,0,0,0,0c-0.3,0-0.6-0.2-0.6-0.6v-5.6c0-0.3,0.3-0.5,0.6-0.5h1.4c0.7,0,2.1,0,2.1,1.9c0.1,0.8-0.4,1.6-1.1,1.9
	c0.4,0.8,0.8,1.5,1.2,2.3c0,0.1,0.1,0.1,0.1,0.2C248,182.6,247.8,182.8,247.4,182.8C247.5,182.8,247.5,182.8,247.4,182.8z
	 M245.7,177H245v1.7c0,0.2,0.2,0.4,0.4,0.4h0.2c0.6,0,1.1-0.1,1.1-1.2C246.7,177.1,246.3,177,245.7,177z"/>
<path class="st0" d="M105.8,153.9c0,9.6-7.3,17.3-16.4,17.3S73,163.4,73,153.9c0-9.9,7.2-17.6,16.5-17.6S105.8,144,105.8,153.9z
	 M77.8,153.8c0,7.8,5.1,14,11.7,14c6.5,0,11.7-6.1,11.7-14s-5.1-14.1-11.7-14.1S77.8,145.8,77.8,153.8z"/>
<path class="st0" d="M127,145.3c-1.3-3.5-4.4-5.6-8.5-5.6c-3.8,0-6.7,2.4-6.7,5.6c-0.2,2,1,3.8,2.8,4.6c1.8,0.8,3.7,1.6,5.6,2.2
	c6.5,2.4,9.1,5,9.1,9.2c0,5.8-4.8,9.9-11.6,9.9c-2.8,0-4.5-0.4-8.1-2c-0.3-0.1-0.6-0.2-0.9-0.2c-0.5,0-1,0.5-1.1,1.2v-8
	c2,3.7,5.2,5.6,9.7,5.6s7.4-2.3,7.4-5.7c0.1-1.5-0.6-3-1.8-3.9c-1.1-0.9-2.7-1.6-6.8-3c-6.4-2.3-8.9-4.9-8.9-9.4
	c0-5.4,4.8-9.4,11.2-9.4c1.8,0,3.7,0.4,5.3,1.2c0.7,0.3,1.4,0.5,2.1,0.7c0.6,0,0.9-0.3,1.2-1L127,145.3z"/>
<path class="st0" d="M149,137h2.9l8.6,28.3l6.1-25.6c0.1-0.3,0.1-0.6,0.2-1c0-0.9-0.3-1.3-1.3-1.7h6.3c-1.2,0.6-1.6,1.2-2,2.9
	l-7.3,30.9h-4.9l-7.9-25.9l-8.1,25.9h-4.8l-7.3-30.9c-0.4-1.8-0.7-2.3-1.9-2.9h7.4c-0.8,0.2-1.1,0.6-1.1,1.3c0,0.5,0.1,0.9,0.2,1.4
	l6,25.3L149,137z"/>
<path class="st0" d="M176.8,167.3h13.1c1.9,0,2.4-0.4,3.1-2v5.1h-22c1.1-0.4,1.4-0.9,1.4-2.4v-28.7c0-1.6-0.4-2.1-1.4-2.4h21.2v5
	c-0.5-1.4-1-1.9-2.7-1.9h-12.7v11.4h11.5c1.1,0.2,2.1-0.5,2.3-1.6v6.2c-0.4-1.2-1-1.5-2.5-1.5h-11.3V167.3z"/>
<path class="st0" d="M219.6,146.3c-2-4.4-5-6.6-9.3-6.6c-6.8,0-11.9,6-11.9,14.2s4.8,13.9,11.5,13.9c2.1,0,4.2-0.5,6.1-1.5v-7.9
	c0-1.6-0.4-2.1-2-2.6h8.2c-1.4,0.4-1.7,0.8-1.7,2.6v9.5c-3.3,2.2-7.2,3.3-11.1,3.3c-9.3,0-15.8-6.9-15.8-17s6.8-17.8,16-17.8
	c2.8,0,4,0.3,7.6,2c0.3,0.2,0.7,0.3,1.1,0.3c0.4,0,0.8-0.2,1.2-0.9L219.6,146.3z"/>
<path class="st0" d="M257,153.9c0,9.6-7.3,17.3-16.4,17.3s-16.4-7.7-16.4-17.2c0-9.9,7.2-17.6,16.5-17.6S257,144,257,153.9z
	 M228.9,153.8c0,7.8,5.1,14,11.6,14s11.7-6.1,11.7-14s-5.1-14.1-11.7-14.1S228.9,145.8,228.9,153.8z"/>
<path class="st0" d="M77.1,182.8c-0.6,0-1.1-0.2-1.6-0.4c-0.2-0.1-0.3-0.3-0.3-0.4c0-0.3,0.3-0.5,0.6-0.5c0.1,0,0.2,0,0.2,0.1
	c0.4,0.2,0.8,0.3,1.2,0.3c0.4,0.1,0.8-0.3,0.9-0.7c0-0.1,0-0.1,0-0.2c0-1.4-2.7-1.2-2.7-3.2c0-1,0.9-1.9,1.9-1.8c0,0,0.1,0,0.1,0
	c0.5,0,0.9,0.1,1.3,0.3c0.2,0.1,0.4,0.3,0.4,0.5c0,0.3-0.2,0.5-0.5,0.5c0,0,0,0,0,0c-0.1,0-0.2,0-0.2-0.1c-0.3-0.2-0.7-0.2-1-0.3
	c-0.5,0-0.8,0.2-0.8,0.7c0,1.2,2.7,1.1,2.7,3.2C79.2,181.9,78.3,182.8,77.1,182.8C77.2,182.8,77.2,182.8,77.1,182.8z"/>
<path class="st0" d="M85.2,177.1h-1v5.2c0,0.3-0.3,0.5-0.5,0.5c0,0,0,0,0,0c-0.3,0-0.6-0.2-0.6-0.5c0,0,0,0,0,0v-4.8
	c0-0.2-0.2-0.4-0.4-0.4H82c-0.3,0-0.5-0.2-0.5-0.5c0,0,0,0,0,0c0-0.3,0.2-0.5,0.5-0.5c0,0,0,0,0,0h3.2c0.3,0,0.5,0.2,0.5,0.5
	c0,0,0,0,0,0C85.8,176.8,85.5,177,85.2,177.1C85.3,177,85.2,177.1,85.2,177.1z"/>
<path class="st0" d="M91.8,182.8c-0.3,0-0.6-0.2-0.6-0.6l-0.2-0.6c0-0.2-0.1-0.3-0.3-0.3h-1.5l-0.3,0.9c-0.1,0.3-0.3,0.5-0.6,0.6
	c-0.3,0-0.6-0.2-0.6-0.5c0-0.1,0-0.1,0-0.2l1.8-5.8c0.1-0.2,0.3-0.4,0.6-0.3c0.3,0,0.5,0.1,0.6,0.4l1.8,5.8c0.1,0.3-0.1,0.6-0.4,0.6
	C91.9,182.8,91.9,182.8,91.8,182.8z M90.1,177.5C90.1,177.5,90.1,177.5,90.1,177.5c-0.1,0-0.1,0-0.1,0l-0.5,2.1
	c-0.1,0.5,0,0.6,0.2,0.6h1.1L90.1,177.5z"/>
<path class="st0" d="M97.7,177.1h-1v5.2c0,0.3-0.2,0.5-0.5,0.5c0,0,0,0,0,0c-0.3,0-0.6-0.2-0.6-0.5c0,0,0,0,0,0v-4.8
	c0-0.2-0.2-0.4-0.4-0.4h-0.7c-0.3,0-0.5-0.2-0.5-0.5c0,0,0,0,0,0c0-0.3,0.3-0.5,0.5-0.5h3.2c0.3,0,0.5,0.2,0.5,0.5c0,0,0,0,0,0
	C98.3,176.8,98,177.1,97.7,177.1C97.7,177.1,97.7,177.1,97.7,177.1z"/>
<path class="st0" d="M104,182.7h-2.4c-0.3,0-0.6-0.2-0.6-0.5v-5.6c0-0.3,0.3-0.5,0.6-0.5h2.4c0.3,0,0.5,0.2,0.5,0.5c0,0,0,0,0,0
	c0,0.3-0.2,0.5-0.5,0.5h-1.9v1.3c0,0.2,0.2,0.4,0.4,0.4h1.1c0.3,0,0.5,0.2,0.5,0.5s-0.2,0.5-0.5,0.5h-1.4v1.6c0,0.2,0.2,0.4,0.4,0.4
	h1.5c0.3,0,0.5,0.2,0.5,0.5S104.3,182.7,104,182.7L104,182.7z"/>
<path class="st0" d="M114.1,182.8c-1,0.2-1.9-0.5-2.1-1.5c0-0.2,0-0.3,0-0.5v-4.3c0-0.3,0.3-0.5,0.6-0.5c0.3,0,0.6,0.2,0.6,0.5
	c0,0,0,0,0,0v4.3c0,0.7,0.2,1,1,1s1.1-0.3,1.1-1v-4.3c0-0.3,0.3-0.5,0.6-0.5c0.3,0,0.6,0.2,0.6,0.5c0,0,0,0,0,0v4.3
	C116.3,182,115.6,182.8,114.1,182.8z"/>
<path class="st0" d="M123.6,182.7h-0.3c-0.2,0-0.4-0.1-0.5-0.3l-1.7-3.7c0-0.1-0.1-0.1-0.1-0.1c0,0-0.1,0.1-0.1,0.1v3.5
	c0,0.3-0.3,0.6-0.6,0.6c0,0,0,0,0,0c-0.3,0-0.6-0.2-0.6-0.5c0,0,0,0,0,0v-5.7c0-0.3,0.3-0.5,0.6-0.5h0.3c0.2,0,0.4,0.1,0.5,0.3
	l1.7,3.7c0,0.1,0.1,0.1,0.1,0.1s0.1-0.1,0.1-0.1v-3.5c0-0.3,0.3-0.5,0.6-0.5c0.3,0,0.6,0.2,0.6,0.5c0,0,0,0,0,0v5.7
	C124.1,182.4,123.9,182.7,123.6,182.7z"/>
<path class="st0" d="M129.8,182.7h-2.2c-0.3,0-0.5-0.2-0.5-0.5s0.2-0.5,0.5-0.5l0,0h0.5v-4.4c0-0.2-0.1-0.3-0.3-0.3l0,0h-0.2
	c-0.3,0-0.5-0.2-0.5-0.5s0.2-0.5,0.5-0.5l0,0h2.2c0.3,0,0.5,0.2,0.5,0.5c0,0,0,0,0,0c0,0.3-0.2,0.5-0.5,0.5c0,0,0,0,0,0h-0.5v4.4
	c0,0.2,0.1,0.3,0.3,0.3c0,0,0,0,0,0h0.2c0.3,0,0.5,0.2,0.5,0.5S130.1,182.6,129.8,182.7L129.8,182.7z"/>
<path class="st0" d="M135.7,182.4c-0.1,0.2-0.3,0.4-0.6,0.4c-0.2,0-0.5-0.1-0.6-0.4l-1.8-5.8c-0.1-0.3,0.1-0.6,0.4-0.6
	c0.1,0,0.1,0,0.2,0c0.3,0,0.6,0.2,0.6,0.5l1.1,4.3v0.1c0,0,0.1,0,0.1-0.1l1.1-4.4c0.1-0.3,0.3-0.5,0.6-0.5c0.3,0,0.6,0.2,0.6,0.5
	c0,0.1,0,0.1,0,0.2L135.7,182.4z"/>
<path class="st0" d="M143.2,182.7h-2.4c-0.3,0-0.6-0.2-0.6-0.5v-5.6c0-0.3,0.3-0.5,0.6-0.5h2.4c0.3,0,0.5,0.2,0.5,0.5c0,0,0,0,0,0
	c0,0.3-0.2,0.5-0.5,0.5c0,0,0,0,0,0h-1.9v1.3c0,0.2,0.2,0.4,0.4,0.4h1.1c0.3,0,0.5,0.2,0.5,0.5s-0.2,0.5-0.5,0.5h-1.4v1.6
	c0,0.2,0.2,0.4,0.4,0.4l0,0h1.5c0.3,0,0.5,0.2,0.5,0.5S143.5,182.7,143.2,182.7L143.2,182.7z"/>
<path class="st0" d="M150.1,182.8c-0.2,0-0.4-0.1-0.5-0.2l-1.3-2.4c-0.1-0.1-0.2-0.2-0.3-0.2h-0.4v2.3c0,0.3-0.3,0.6-0.6,0.6
	c-0.3,0-0.6-0.3-0.6-0.6v-5.6c0-0.3,0.3-0.5,0.6-0.5h1.4c0.7,0,2.1,0,2.1,1.8c0.1,0.8-0.3,1.6-1.1,1.9c0.4,0.8,0.8,1.5,1.2,2.3
	c0,0.1,0.1,0.1,0.1,0.2C150.6,182.5,150.4,182.8,150.1,182.8z M148.4,177h-0.7v1.7c0,0.2,0.2,0.4,0.4,0.4c0,0,0,0,0,0h0.2
	c0.7,0,1.1-0.1,1.1-1.2C149.3,177.1,148.9,177,148.4,177z"/>
<path class="st0" d="M155,182.8c-0.6,0-1.1-0.2-1.6-0.4c-0.2-0.1-0.3-0.3-0.3-0.4c0-0.3,0.3-0.5,0.6-0.5c0.1,0,0.2,0,0.2,0.1
	c0.4,0.2,0.8,0.3,1.2,0.3c0.4,0.1,0.8-0.3,0.9-0.7c0,0,0-0.1,0-0.1c0-1.4-2.7-1.2-2.7-3.2c0-1,0.9-1.9,1.9-1.8c0,0,0.1,0,0.1,0
	c0.5,0,0.9,0.1,1.4,0.3c0.3,0.1,0.4,0.4,0.3,0.7c-0.1,0.2-0.2,0.3-0.4,0.3c-0.1,0-0.2,0-0.2-0.1c-0.3-0.2-0.7-0.2-1-0.3
	c-0.5,0-0.8,0.2-0.8,0.7c0,1.2,2.7,1.1,2.7,3.2c0,1.1-0.9,2-2,2C155.1,182.8,155,182.8,155,182.8z"/>
<path class="st0" d="M162.3,182.7h-2.2c-0.3,0-0.5-0.2-0.5-0.5c0-0.3,0.2-0.5,0.5-0.5c0,0,0,0,0,0h0.5v-4.4c0-0.2-0.2-0.3-0.3-0.3
	h-0.2c-0.3,0-0.5-0.2-0.5-0.5s0.2-0.5,0.5-0.5h2.2c0.3,0,0.5,0.2,0.5,0.5c0,0.3-0.2,0.5-0.5,0.5c0,0,0,0,0,0h-0.5v4.4
	c0,0.2,0.1,0.3,0.3,0.3l0,0h0.2c0.3,0,0.5,0.2,0.5,0.5S162.6,182.7,162.3,182.7z"/>
<path class="st0" d="M168.9,177.1h-1v5.2c0,0.3-0.2,0.5-0.5,0.5c0,0,0,0,0,0c-0.3,0-0.6-0.2-0.6-0.5c0,0,0,0,0,0v-4.8
	c0-0.2-0.2-0.4-0.4-0.4h-0.7c-0.3,0-0.5-0.2-0.5-0.5c0,0,0,0,0,0c0-0.3,0.3-0.5,0.5-0.5h3.2c0.3,0,0.5,0.2,0.5,0.5
	C169.4,176.8,169.2,177.1,168.9,177.1C168.9,177.1,168.9,177.1,168.9,177.1z"/>
<path class="st0" d="M176.1,176.7l-1.7,3.1c0,0.1,0,0.1,0,0.2v2.2c0,0.3-0.3,0.5-0.6,0.5c0,0,0,0,0,0c-0.3,0-0.6-0.2-0.6-0.5v-2.3
	l-1.7-3.1c0-0.1-0.1-0.2-0.1-0.2c0-0.3,0.3-0.5,0.6-0.5c0.2,0,0.4,0.1,0.5,0.3l1,1.9c0,0.1,0.1,0.2,0.2,0.2s0.2-0.1,0.2-0.2l1.1-2
	c0.2-0.3,0.5-0.4,0.8-0.2c0.2,0.1,0.3,0.3,0.3,0.4C176.2,176.5,176.2,176.6,176.1,176.7z"/>
<path class="st0" d="M186.1,182.8c-2,0-2.2-2.3-2.2-3.4s0.3-3.5,2.2-3.5s2.2,2.4,2.2,3.5S188.1,182.8,186.1,182.8z M186.1,176.8
	c-1.1,0-1.1,1.9-1.1,2.6s0,2.5,1.1,2.5s1-1.9,1-2.5S187.1,176.8,186.1,176.8L186.1,176.8z"/>
<path class="st0" d="M194.3,177h-1.8v1.3c0,0.2,0.2,0.4,0.4,0.4h1.1c0.3,0,0.5,0.2,0.5,0.5s-0.2,0.5-0.5,0.5h-1.4v2.5
	c0,0.3-0.3,0.5-0.6,0.5c0,0,0,0,0,0c-0.3,0-0.6-0.2-0.6-0.5c0,0,0,0,0,0v-5.6c0-0.3,0.3-0.6,0.6-0.6h2.4c0.3,0,0.5,0.2,0.5,0.5
	c0,0,0,0,0,0C194.8,176.8,194.5,177,194.3,177C194.3,177,194.3,177,194.3,177z"/>
<path class="st0" d="M206.2,182.7h-0.3c-0.2,0-0.4-0.1-0.5-0.3l-1.7-3.7c0-0.1-0.1-0.1-0.1-0.1c0,0-0.1,0.1-0.1,0.1v3.5
	c0,0.3-0.3,0.5-0.7,0.5c-0.3,0-0.5-0.2-0.5-0.5v-5.7c0-0.3,0.3-0.5,0.6-0.5h0.3c0.2,0,0.4,0.1,0.5,0.3l1.7,3.7
	c0,0.1,0.1,0.1,0.1,0.1s0.1-0.1,0.1-0.1v-3.5c0-0.3,0.3-0.5,0.6-0.5c0.3,0,0.6,0.2,0.6,0.5c0,0,0,0,0,0v5.7
	C206.8,182.4,206.5,182.7,206.2,182.7C206.2,182.7,206.2,182.7,206.2,182.7z"/>
<path class="st0" d="M213.1,182.7h-2.4c-0.3,0-0.6-0.2-0.6-0.5v-5.6c0-0.3,0.3-0.5,0.6-0.5h2.4c0.3,0,0.5,0.2,0.5,0.5
	c0,0.3-0.2,0.5-0.5,0.5h-1.9v1.3c0,0.2,0.2,0.4,0.4,0.4h1.1c0.3,0,0.5,0.2,0.5,0.5s-0.2,0.5-0.5,0.5h-1.4v1.6c0,0.2,0.2,0.4,0.4,0.4
	c0,0,0,0,0,0h1.5c0.3,0,0.5,0.2,0.5,0.5S213.4,182.7,213.1,182.7L213.1,182.7z"/>
<path class="st0" d="M221.2,182.4c-0.1,0.3-0.4,0.4-0.6,0.4s-0.6-0.1-0.6-0.4l-0.7-3.5c0,0,0-0.1-0.1-0.1c0,0-0.1,0-0.1,0.1
	l-0.8,3.5c-0.1,0.3-0.4,0.4-0.6,0.4s-0.6-0.1-0.6-0.4l-1.3-5.8c-0.1-0.4,0.3-0.6,0.6-0.6c0.3,0,0.6,0.2,0.6,0.6l0.6,3.7
	c0,0,0,0.1,0.1,0.1s0.1,0,0.1-0.1l0.7-3.7c0-0.3,0.3-0.6,0.6-0.6c0.3,0,0.6,0.2,0.6,0.6l0.8,3.7c0,0,0,0.1,0.1,0.1
	c0,0,0.1,0,0.1-0.1l0.6-3.7c0-0.3,0.3-0.6,0.6-0.6c0.3,0,0.7,0.2,0.6,0.6L221.2,182.4z"/>
<path class="st0" d="M234.1,176.7l-1.7,3.1c0,0,0,0.1-0.1,0.2v2.2c0,0.3-0.3,0.5-0.5,0.5c0,0,0,0,0,0c-0.3,0-0.6-0.2-0.6-0.5
	c0,0,0,0,0,0v-2.3l-1.7-3.1c0-0.1-0.1-0.2-0.1-0.2c0-0.3,0.3-0.5,0.6-0.5c0.2,0,0.4,0.1,0.5,0.3l1,1.9c0,0.1,0.1,0.2,0.2,0.2
	s0.1-0.1,0.2-0.2l1-2c0.1-0.2,0.3-0.3,0.5-0.3c0.3,0,0.6,0.2,0.6,0.5C234.2,176.5,234.2,176.6,234.1,176.7z"/>
<path class="st0" d="M238.7,182.8c-2,0-2.2-2.3-2.2-3.4s0.3-3.5,2.2-3.5s2.2,2.4,2.2,3.5S240.7,182.8,238.7,182.8z M238.7,176.8
	c-1.1,0-1.1,1.9-1.1,2.6s0,2.5,1.1,2.5s1-1.9,1-2.5S239.7,176.8,238.7,176.8L238.7,176.8z"/>
<path class="st0" d="M254.5,182.8c-0.2,0-0.3-0.1-0.5-0.2l-1.9-2.5l0,0v2.2c0,0.3-0.3,0.5-0.7,0.5c-0.3,0-0.5-0.2-0.5-0.5v-5.7
	c0-0.3,0.3-0.5,0.6-0.5c0.3,0,0.6,0.2,0.6,0.5c0,0,0,0,0,0v1.5c0,0.2,0.2,0.3,0.4,0.4l1.4-2c0.1-0.1,0.3-0.2,0.4-0.2
	c0.3,0,0.5,0.2,0.5,0.5c0,0,0,0,0,0c0,0.1,0,0.2-0.1,0.3l-1.6,2.1c-0.1,0.1-0.1,0.2-0.1,0.2c0,0,0,0.1,0,0.1l1.9,2.5
	c0.1,0.1,0.1,0.2,0.1,0.3C255.1,182.6,254.9,182.8,254.5,182.8C254.6,182.8,254.5,182.8,254.5,182.8z"/>
<path class="st0" d="M163.8,66.6c0,0-5,1.5-5,8.9L162,77l3.9-0.6C165.9,76.4,165.9,69.3,163.8,66.6L163.8,66.6z"/>
<path class="st0" d="M164.6,66.9c0,0,4.5,0.8,5.9,8.3c0.1,0.4-0.4-0.1-0.4,0.3C170.1,75.5,169,69.3,164.6,66.9z"/>
<polygon class="st0" points="155.3,77 161.4,78.3 161.4,84.9 150.9,93.2 150.9,86.9 148.8,86.9 155.3,77 "/>
<path class="st0" d="M170.1,78.7c0,0-9.5,3.7,1.2,9.2C171.3,87.9,164.9,83.5,170.1,78.7z"/>
<path class="st0" d="M170.7,81c0,0-1.6,2.7,0.6,4C171.3,85,167.6,83.2,170.7,81z"/>
<polyline class="st0" points="164.4,55.2 163.6,58.1 163.6,66.8 164.3,66.9 "/>
<path class="st0" d="M163.2,66.8c0,0-0.3-2.3,0.7-2.3h0.4c0,0,0.8,0.2,0.6,2.3C164.4,67.2,163.7,67.2,163.2,66.8L163.2,66.8z"/>
<path class="st0" d="M164,64c0.4-0.1,0.7-0.5,0.6-0.9c-0.1-0.3-0.3-0.6-0.6-0.6c-0.4,0.1-0.7,0.5-0.6,0.9
	C163.4,63.7,163.7,63.9,164,64z"/>
<path class="st0" d="M169.8,101.2c0,0,2.9-1.5,5.6,2l-0.1,18.2C175.3,121.3,175.5,100.2,169.8,101.2L169.8,101.2z"/>
<polygon class="st0" points="145.6,98.4 146.2,100.6 149.1,101.7 149.1,128.1 164.2,119.1 164.2,92.6 181.9,100.7 184,97.2 
	163.8,88.6 163.8,87.3 184.9,96.3 185.1,94.8 163.8,85.9 162.7,85.9 "/>
<polygon class="st0" points="146,131.2 147.7,132.7 149,134.3 163.2,128.1 164.8,127.6 164.8,122.7 184.3,129.9 184.8,128.3 
	164.7,121.7 163.3,121.7 "/>
<polygon class="st0" points="164.9,78.2 164.9,78.5 170.9,77.5 177.9,85.6 177.9,83.6 171.1,77.2 "/>
</svg>
