<svg id="icon-logo" viewBox="0 0 169 32" xmlns="http://www.w3.org/2000/svg" fill="#cf102d">
<path d="M152.544 29.526h3.662v-7.159h7.093v7.159h3.629v-16.561h-3.662v6.169h-7.093v-6.169h-3.662v16.561zM149.344 19.695h-6.466v3.365h2.969v2.705c-0.693 0.363-1.847 0.825-3.431 0.825-3.101 0-5.146-2.243-5.146-5.344s2.045-5.344 5.146-5.344c1.847 0 3.035 0.528 4.025 1.55l2.573-2.804c-1.649-1.55-3.992-2.144-6.598-2.144-5.179 0-8.94 3.398-8.94 8.709s3.761 8.709 8.94 8.709c2.441 0 4.784-0.462 6.961-1.584v-8.643zM122.854 16.066h2.375c1.32 0 2.837 0.264 2.837 1.913 0 1.814-1.715 1.847-3.068 1.847h-2.144v-3.761zM119.192 29.526h3.662v-6.631h1.814l3.464 6.631h4.388l-4.223-6.994c2.342-0.429 3.563-2.21 3.563-4.553 0-3.86-2.837-5.014-6.235-5.014h-6.4v16.561zM115.827 12.965h-3.662v10.029c0 2.045-1.419 3.563-3.332 3.563-1.946 0-3.332-1.55-3.332-3.563v-10.029h-3.662v10.161c0 3.893 2.375 6.796 6.994 6.796 4.586 0 6.961-2.903 6.961-6.796v-10.161zM90.359 22.664h2.771c1.188 0 2.936 0.264 2.936 1.814 0 1.452-1.287 1.946-2.441 1.946h-3.266v-3.761zM90.359 16.066h2.474c1.155 0 2.441 0.363 2.441 1.715 0 1.32-1.155 1.814-2.276 1.814h-2.639v-3.53zM86.697 29.526h6.796c2.936 0 6.235-1.155 6.235-4.619 0-2.144-1.452-3.761-3.629-4.058v-0.033c1.715-0.528 2.837-1.814 2.837-3.662 0-3.596-3.167-4.223-6.070-4.223h-6.169v16.594zM83.959 14.285c-1.419-1.254-3.2-1.715-5.080-1.715-3.266 0-6.301 1.847-6.301 5.377 0 5.509 7.753 3.893 7.753 6.928 0 1.155-1.32 1.715-2.54 1.715s-2.441-0.594-3.167-1.55l-2.606 2.837c1.584 1.452 3.431 2.078 5.575 2.078 3.431 0 6.4-1.748 6.4-5.443 0-5.806-7.621-3.86-7.621-6.862 0-1.254 1.419-1.715 2.441-1.715 0.891 0 2.045 0.363 2.639 1.089l2.507-2.738zM63.076 29.526h3.662v-13.328h4.718v-3.233h-13.097v3.233h4.718v13.328zM48.363 29.526h3.662v-13.328h4.718v-3.233h-13.097v3.233h4.718v13.328zM38.862 22.928h-4.058l2.012-5.146 2.045 5.146zM28.272 29.526h4.025l1.386-3.497h6.433l1.419 3.497h4.124l-7.192-16.561h-3.002l-7.192 16.561zM16.858 29.526h10.392v-3.365h-6.763v-13.196h-3.629v16.561zM5.641 16.066h1.88c1.419 0 3.134 0.231 3.134 1.946 0 1.55-1.287 1.979-2.573 1.979h-2.441v-3.926zM1.979 29.526h3.662v-6.466h2.672c3.497 0 6.136-1.188 6.136-5.080 0-3.926-2.837-5.014-6.301-5.014h-6.169v16.561z"></path>
<path d="M160.429 9.171h1.518v-3.299l2.837 3.299h2.144l-3.365-3.728 3.101-3.233h-2.012l-2.705 2.87v-2.87h-1.518v6.961zM155.546 3.53h0.99c0.561 0 1.188 0.099 1.188 0.792 0 0.759-0.726 0.759-1.287 0.759h-0.891v-1.55zM154.029 9.171h1.518v-2.771h0.759l1.452 2.771h1.847l-1.781-2.936c0.99-0.165 1.485-0.924 1.485-1.913 0-1.617-1.188-2.111-2.606-2.111h-2.672v6.961zM147.068 5.707c0-1.287 0.858-2.243 2.144-2.243 1.32 0 2.144 0.957 2.144 2.243s-0.858 2.243-2.144 2.243c-1.287-0.033-2.144-0.957-2.144-2.243zM145.485 5.707c0 2.21 1.583 3.662 3.761 3.662s3.761-1.419 3.761-3.662c0-2.21-1.583-3.662-3.761-3.662s-3.761 1.419-3.761 3.662zM141.196 9.171h1.518v-2.969l2.606-3.992h-1.814l-1.55 2.606-1.485-2.606h-1.913l2.606 3.992v2.969zM128.132 9.171h1.32l1.518-4.816h0.033l1.518 4.816h1.353l2.045-6.928h-1.55l-1.155 4.586h-0.033l-1.452-4.586h-1.419l-1.452 4.454h-0.033l-1.122-4.454h-1.682l2.111 6.928zM120.676 9.171h4.882v-1.419h-3.365v-1.419h3.002v-1.386h-3.002v-1.32h3.2v-1.419h-4.718v6.961zM112.627 9.171h1.518v-4.948h0.033l3.035 4.948h2.012v-6.928h-1.518v4.816h-0.033l-2.936-4.816h-2.078v6.928zM103.951 9.171h1.518v-2.705h2.903v-1.419h-2.903v-1.419h3.134v-1.419h-4.652v6.961zM96.957 5.707c0-1.287 0.858-2.243 2.144-2.243 1.32 0 2.144 0.957 2.144 2.243s-0.858 2.243-2.144 2.243c-1.287-0.033-2.144-0.957-2.144-2.243zM95.373 5.707c0 2.21 1.584 3.662 3.761 3.662s3.761-1.419 3.761-3.662c0-2.21-1.584-3.662-3.761-3.662s-3.761 1.419-3.761 3.662zM88.181 9.171h1.518v-2.969l2.606-3.992h-1.814l-1.55 2.606-1.485-2.606h-1.913l2.606 3.992v2.969zM81.452 9.171h1.518v-5.608h1.979v-1.353h-5.476v1.353h1.979v5.608zM77.196 9.171h1.518v-6.928h-1.518v6.928zM76.074 2.771c-0.594-0.528-1.353-0.726-2.144-0.726-1.353 0-2.639 0.759-2.639 2.243 0 2.309 3.266 1.617 3.266 2.903 0 0.495-0.561 0.726-1.056 0.726s-1.023-0.231-1.32-0.66l-1.089 1.188c0.66 0.594 1.452 0.858 2.342 0.858 1.419 0 2.672-0.726 2.672-2.276 0-2.441-3.2-1.617-3.2-2.87 0-0.528 0.594-0.726 1.023-0.726 0.363 0 0.858 0.132 1.122 0.462l1.023-1.122zM66.771 3.53h0.99c0.561 0 1.188 0.099 1.188 0.792 0 0.759-0.726 0.759-1.287 0.759h-0.891v-1.55zM65.221 9.171h1.518v-2.771h0.759l1.452 2.771h1.847l-1.781-2.936c0.99-0.165 1.485-0.924 1.485-1.913 0-1.617-1.188-2.111-2.606-2.111h-2.672v6.961zM59.118 9.171h4.882v-1.419h-3.365v-1.419h3.002v-1.386h-3.002v-1.32h3.2v-1.419h-4.718v6.961zM54.235 9.171h1.221l2.87-6.928h-1.65l-1.748 4.553h-0.033l-1.715-4.553h-1.715l2.771 6.928zM49.221 9.171h1.518v-6.928h-1.518v6.928zM41.237 9.171h1.518v-4.948h0.033l3.035 4.948h2.012v-6.928h-1.518v4.816h-0.033l-2.936-4.816h-2.111v6.928zM39.852 2.21h-1.518v4.223c0 0.858-0.594 1.485-1.386 1.485-0.825 0-1.386-0.66-1.386-1.485v-4.223h-1.584v4.256c0 1.649 0.99 2.87 2.936 2.87 1.913 0 2.936-1.221 2.936-2.87v-4.256zM24.973 9.171h4.882v-1.419h-3.365v-1.419h3.002v-1.386h-3.002v-1.32h3.2v-1.419h-4.718v6.961zM20.619 9.171h1.518v-5.608h1.979v-1.353h-5.476v1.353h1.979v5.608zM16.627 6.4h-1.682l0.858-2.144 0.825 2.144zM12.206 9.171h1.682l0.594-1.485h2.672l0.594 1.485h1.715l-3.035-6.928h-1.254l-2.969 6.928zM9.534 9.171h1.518v-5.608h1.979v-1.353h-5.476v1.353h1.979v5.608zM6.994 2.771c-0.594-0.528-1.353-0.726-2.144-0.726-1.353 0-2.639 0.759-2.639 2.243 0 2.309 3.266 1.617 3.266 2.903 0 0.495-0.561 0.726-1.056 0.726s-1.023-0.231-1.32-0.66l-1.122 1.221c0.66 0.594 1.452 0.858 2.342 0.858 1.419 0 2.672-0.726 2.672-2.276 0-2.441-3.2-1.617-3.2-2.87 0-0.528 0.594-0.726 1.023-0.726 0.363 0 0.858 0.132 1.122 0.462l1.056-1.155z"></path>
</svg>