<?xml version="1.0" encoding="UTF-8"?><svg id="outlined" xmlns="http://www.w3.org/2000/svg" xmlns:xlink="http://www.w3.org/1999/xlink" viewBox="0 0 248.49 55.91"><defs><style>.cls-1{fill:url(#linear-gradient);}.cls-2{fill:#642667;}</style><linearGradient id="linear-gradient" x1="25.67" y1=".57" x2="25.67" y2="55.91" gradientTransform="matrix(1, 0, 0, 1, 0, 0)" gradientUnits="userSpaceOnUse"><stop offset="0" stop-color="#88288a"/><stop offset=".77" stop-color="#642667"/></linearGradient></defs><path class="cls-2" d="M65.63,.57h14.02V4.67h-8.57v3.4h6.89v4.07h-6.89v4.51h8.57v4.1h-14.02V.57Z"/><path class="cls-2" d="M89.54,10.42L82.68,.57h6.19l4.17,6.39,4.24-6.39h6.05l-6.86,9.82,7.26,10.36h-6.19l-4.57-6.93-4.64,6.93h-6.05l7.26-10.32Z"/><path class="cls-2" d="M103.97,10.66c0-6.52,5.04-10.52,10.86-10.52,2.76,0,5.41,.74,7.09,2.02V6.79c-1.61-1.38-3.77-2.35-6.19-2.35-3.4,0-5.99,2.19-5.99,6.22s2.59,6.22,5.99,6.22c2.42,0,4.57-.98,6.19-2.35v4.64c-1.68,1.28-4.34,2.02-7.09,2.02-5.82,0-10.86-4-10.86-10.52Z"/><path class="cls-2" d="M125.79,.57h14.02V4.67h-8.57v3.4h6.89v4.07h-6.89v4.51h8.57v4.1h-14.02V.57Z"/><path class="cls-2" d="M143.58,.57h5.45V16.64h8.57v4.1h-14.02V.57Z"/><path class="cls-2" d="M159.18,18.53l1.21-3.97c1.51,1.28,3.7,2.69,6.35,2.69,1.65,0,2.93-.64,2.93-2.05,0-1.31-.87-1.78-3.77-2.52-4.61-1.08-6.19-3.53-6.19-6.52,0-3.67,2.89-6.05,7.4-6.05,2.66,0,5.04,.94,6.62,2.05l-1.11,3.63c-1.51-.94-3.63-1.75-5.58-1.75-1.45,0-2.35,.61-2.35,1.61,0,.94,.61,1.48,2.89,2.05,5.04,1.18,7.09,3.3,7.09,6.93,0,4.74-3.83,6.52-7.94,6.52-3.46,0-5.98-1.31-7.57-2.62Z"/><path class="cls-2" d="M178.28,.57h5.45V20.75h-5.45V.57Z"/><path class="cls-2" d="M186.72,10.66c0-6.19,5.01-10.66,11.2-10.66s11.13,4.47,11.13,10.66-4.98,10.66-11.13,10.66-11.2-4.47-11.2-10.66Zm16.54,0c0-3.87-1.98-6.39-5.35-6.39s-5.41,2.52-5.41,6.39,2.02,6.39,5.41,6.39,5.35-2.52,5.35-6.39Z"/><path class="cls-2" d="M229.83,20.75h-5.95l-5.28-7.77h-1.48v7.77h-5.45V.57h9.18c4.91,0,7.03,2.96,7.03,6.22,0,2.69-1.45,4.88-3.93,5.65l5.88,8.31Zm-10.36-11.23c2.08,0,3.03-.94,3.03-2.66s-.94-2.69-3.03-2.69h-2.35v5.35h2.35Z"/><path class="cls-2" d="M65.63,38.03v-10.86h5.51v10.56c0,3.56,1.41,5.48,4.3,5.48s4.34-1.92,4.34-5.48v-10.56h5.35v10.86c0,6.83-4.3,9.89-9.75,9.89s-9.75-3.06-9.75-9.89Z"/><path class="cls-2" d="M89,27.17h4.14l9.15,11.6v-11.6h4.81v20.18h-4.14l-9.15-11.6v11.6h-4.81V27.17Z"/><path class="cls-2" d="M111.57,27.17h5.45v20.18h-5.45V27.17Z"/><path class="cls-2" d="M119.37,27.17h5.62l5.14,12.91,5.11-12.91h5.48l-8.47,20.18h-4.4l-8.47-20.18Z"/><path class="cls-2" d="M142.77,27.17h14.02v4.1h-8.57v3.4h6.89v4.07h-6.89v4.51h8.57v4.1h-14.02V27.17Z"/><path class="cls-2" d="M179.32,47.34h-5.95l-5.28-7.77h-1.48v7.77h-5.45V27.17h9.18c4.91,0,7.03,2.96,7.03,6.22,0,2.69-1.45,4.88-3.93,5.65l5.88,8.31Zm-10.36-11.23c2.08,0,3.03-.94,3.03-2.66s-.94-2.69-3.03-2.69h-2.35v5.35h2.35Z"/><path class="cls-2" d="M180.94,45.12l1.21-3.97c1.51,1.28,3.7,2.69,6.35,2.69,1.65,0,2.93-.64,2.93-2.05,0-1.31-.87-1.78-3.77-2.52-4.61-1.08-6.19-3.53-6.19-6.52,0-3.66,2.89-6.05,7.4-6.05,2.66,0,5.04,.94,6.62,2.05l-1.11,3.63c-1.51-.94-3.63-1.75-5.58-1.75-1.45,0-2.35,.61-2.35,1.61,0,.94,.61,1.48,2.89,2.05,5.04,1.18,7.09,3.29,7.09,6.93,0,4.74-3.83,6.52-7.94,6.52-3.46,0-5.98-1.31-7.57-2.62Z"/><path class="cls-2" d="M200.04,27.17h5.45v20.18h-5.45V27.17Z"/><path class="cls-2" d="M214.67,31.27h-6.49v-4.1h18.43v4.1h-6.49v16.07h-5.45V31.27Z"/><path class="cls-2" d="M235.14,39.27l-7.9-12.1h5.99l4.71,7.63,4.71-7.63h5.85l-7.9,12.1v8.07h-5.45v-8.07Z"/><path class="cls-1" d="M0,.57V27.92c.24,7.86,3.8,13.62,8.34,17.87V27.38l4.19,3.04v18.73c2.41,1.67,4.88,3.02,7.14,4.12l.06-30.68-7.18,3.98-3.76-2.75,15.11-8.36V55.17c.64,.27,1.24,.52,1.77,.74,.53-.22,1.13-.47,1.77-.74V15.45l15.11,8.36-3.76,2.75-7.17-3.98,.06,30.68c2.26-1.1,4.74-2.45,7.14-4.12V30.42l4.19-3.04v18.4c4.54-4.25,8.1-10.01,8.34-17.87V.57H0ZM43,20.15L25.67,10.54h0L8.34,20.15v-4.83L25.67,5.72h0l17.33,9.6v4.83Z"/></svg>