<svg xmlns="http://www.w3.org/2000/svg" viewBox="0 0 340 140"><defs><style>.cls-1 { fill: none; } .cls-2 { fill: #fff; } .cls-3 { clip-path: url(#clip-path); } .cls-4 { fill: #005689; } .cls-5 { fill: #fdc578; } .cls-6 { fill: #E49B00; }</style><clipPath id="clip-path"><path d="M25 25h282.68v97.99H25z" class="cls-1"/></clipPath></defs><g id="Layer_2" data-name="Layer 2"><g id="Layer_1-2" data-name="Layer 1"><path d="M0 0h340v140H0z" class="cls-2"/><g class="cls-3"><path d="M288.48 96.92a3.15 3.15 0 0 0-1.17 2.17c0 .35.1 2.27 3.54 2.27 2.81 0 4.11-.86 4.11-2.78a1.66 1.66 0 0 0-.85-1.65h2a4.73 4.73 0 0 1 0 .77c0 3.72-4.11 4.8-7.11 4.8-1.6 0-3.18-.42-3.18-2.31a4.75 4.75 0 0 1 1.77-3.25zm-69.08 0c-.09.2-.16.37-.21.5-1.9 4.75-2.71 5.07-3.52 5.07a1.39 1.39 0 1 1 0-2.78c.62 0 .94.42 1.23.42s1.41-2 1.57-3.2z" class="cls-4"/><path d="M300.1 91.36a4.09 4.09 0 0 0 3.9 3.25 3.21 3.21 0 0 0 2.88-1.48c.15-.2.25-.42.37-.42a.52.52 0 0 1 .39.29 4.49 4.49 0 0 1-4.23 3.13c-3.23 0-5-1.82-5.33-4.78zm-10.76 0a1.94 1.94 0 0 0 1.55.65 1.71 1.71 0 0 0 1.39-.65h1.9a4.39 4.39 0 0 1-3.37 1.29 5.65 5.65 0 0 1-1.77-.27 1.86 1.86 0 0 0-1 1.57c0 .71.59.81 1.16.81h3.64c2.53 0 3.15 1.24 3.3 2.16h-2a3.76 3.76 0 0 0-1.66-.29h-3.58a1.29 1.29 0 0 0-.43.29h-.81l.37-.37a1.61 1.61 0 0 1-1.48-1.5c0-1.48.79-2.12 1.9-2.88a3.59 3.59 0 0 1-1.07-.82zm-11.78 0a4.09 4.09 0 0 0 3.94 3.26 3.21 3.21 0 0 0 2.88-1.48c.15-.2.25-.42.37-.42a.52.52 0 0 1 .39.29 4.49 4.49 0 0 1-4.23 3.13c-3.23 0-5-1.82-5.33-4.78zm-5 0v2.15c0 1.4 0 1.7 1.13 1.7.67 0 .71 0 .71.32s0 .32-.25.32h-5.37s-.2-.15-.2-.27c0-.32 0-.37.94-.37a.86.86 0 0 0 .89-.59 31.38 31.38 0 0 0 .14-3.26zm-6.64 0v2.15c0 1.4 0 1.7 1.13 1.7.66 0 .71 0 .71.32s0 .32-.25.32h-5.37s-.2-.15-.2-.27c0-.32 0-.37.93-.37a.86.86 0 0 0 .89-.59 32.16 32.16 0 0 0 .13-3.26zm-13.92 0c.15 1.94.86 4.14 3.34 4.14s3.21-2.2 3.36-4.15h2.3a5.33 5.33 0 0 1-5.68 4.78 5.47 5.47 0 0 1-5.65-4.78zm-16.62 0a7.17 7.17 0 0 0 6.45 4.14 6.37 6.37 0 0 0 5.71-4.09v-.05h.62a.46.46 0 0 1 0 .16c0 .3-.34 2.73-.34 3.25a.42.42 0 0 1-.35.44 21.23 21.23 0 0 1-6.77.93 8.62 8.62 0 0 1-8.17-4.78zm-16.49 0q.44 1.2 1 2.69c.36-.75.82-1.71 1.28-2.69h.8c-1 2.15-2.06 4.43-2.56 5.57h-.87a2.46 2.46 0 0 0 0-.32 11.82 11.82 0 0 0-.86-2.76c-.36-.92-.66-1.75-.92-2.49zm-9.08 0v.11c0 2.61.22 3.55 2.17 3.55a4.07 4.07 0 0 0 1.67-.57c.1 0 .27.25.27.39s-1 1.3-3.27 1.3a2.68 2.68 0 0 1-2.83-3.05v-1.73zm-5.71 0v2.15c0 1.4.05 1.7 1.13 1.7.54 0 .59 0 .59.32s0 .32-.25.32h-5.32c-.2 0-.2-.15-.2-.27 0-.32 0-.37.93-.37a.92.92 0 0 0 1-.59 22.51 22.51 0 0 0 .15-3.25zm-6 0v3c0 .42.07.89 1.6.89.25 0 .25.15.25.32s0 .32-.34.32h-5.07s-.17-.17-.17-.29a.32.32 0 0 1 .34-.35c1.18 0 1.4-.1 1.4-.91v-2.98zm-7.11 0v2.15c0 1.4 0 1.7 1.13 1.7.66 0 .71 0 .71.32s0 .32-.25.32h-5.48c-.2 0-.2-.15-.2-.27 0-.32 0-.37.93-.37a.92.92 0 0 0 1-.59 22.39 22.39 0 0 0 .15-3.25zm-13.46 0v.75c0 1.84.59 2.9 2.41 2.9.89 0 2.44-.54 2.44-1.3v-2.35h2v2.47c0 .39 0 .91.62.91.34 0 .89-.1 1.06-.1s.15 0 .15.47c0 .15 0 .2-.81.32a22.69 22.69 0 0 0-2.83.64.33.33 0 0 1-.3-.34c0-.3 0-.69.07-.94a6.82 6.82 0 0 1-3.67 1.35c-2.44 0-3.13-1.58-3.13-4.13v-.65zm-5.45 0v2.91c0 .42.07.89 1.6.89.25 0 .25.15.25.32s0 .32-.34.32h-5.07s-.17-.17-.17-.29a.32.32 0 0 1 .35-.35c1.18 0 1.4-.1 1.4-.91v-2.89zm-7 0v2.15c0 1.4 0 1.7 1.13 1.7.66 0 .71 0 .71.32s0 .32-.25.32h-5.16s-.17-.17-.17-.29a.32.32 0 0 1 .34-.35c1.18 0 1.4-.1 1.4-1v-2.85zm-7 0v2.15c0 1.4 0 1.7 1.13 1.7.66 0 .71 0 .71.32s0 .32-.25.32h-5.25c-.2 0-.2-.15-.2-.27 0-.32 0-.37.69-.37a.92.92 0 0 0 1-.59 22.11 22.11 0 0 0 .15-3.25zm-5.75 0v2.91c0 .42.08.89 1.6.89.25 0 .25.15.25.32s0 .32-.34.32h-5.07s-.17-.17-.17-.29a.32.32 0 0 1 .34-.35c1.18 0 1.4-.1 1.4-.91v-2.89zm-7 0v2.15c0 1.4.05 1.7 1.13 1.7.67 0 .71 0 .71.32s0 .32-.25.32h-5.17s-.17-.17-.17-.29a.32.32 0 0 1 .35-.35c1.18 0 1.4-.1 1.4-1v-2.85zm-7 0v2.15c0 1.4.05 1.7 1.13 1.7.67 0 .71 0 .71.32s0 .32-.25.32h-5.25c-.2 0-.2-.15-.2-.27 0-.32 0-.37.69-.37a.92.92 0 0 0 1-.59 22.51 22.51 0 0 0 .15-3.25zm-14 0c.15 1.94.86 4.14 3.34 4.14s3.21-2.2 3.36-4.15h2.31a5.33 5.33 0 0 1-5.68 4.78 5.46 5.46 0 0 1-5.66-4.77zm-16.84 0a7.17 7.17 0 0 0 6.45 4.14 6.37 6.37 0 0 0 5.71-4.09v-.05h.62a.47.47 0 0 1 0 .16c0 .3-.35 2.73-.35 3.25a.42.42 0 0 1-.34.44 21.22 21.22 0 0 1-6.77.93 8.62 8.62 0 0 1-8.17-4.78z" class="cls-4"/><path d="M234.74 72.28v-7.07c0-1-.25-1.53-1.64-1.67-.22 0-.25-.14-.25-.33s.08-.36.22-.39a12.42 12.42 0 0 0 3.93-1.36c.06 0 .11.17.11.28 0 .33-.14 1-.14 2.53.92-1 2.42-2.42 3.89-2.42a1.58 1.58 0 0 1 1.78 1.56 1.37 1.37 0 0 1-1.36 1.39c-1.14 0-1.31-1.06-2.14-1.06a3.12 3.12 0 0 0-1.92 1.2 1.17 1.17 0 0 0-.2.81v6.31c0 1 0 1.64 1.39 1.64 1 0 1.14 0 1.14.33s-.11.39-.42.39c-1 0-1.89-.06-3.17-.06-2.22 0-2.7.06-3.23.06-.2 0-.25-.17-.25-.36s.33-.36.86-.36c1.19 0 1.42-.22 1.42-1.42M222.84 66h4.62c.55 0 .94-.17.94-.92a2.35 2.35 0 0 0-2.4-2.62c-2 0-2.84 1.67-3.12 3.56m7.76.83h-7.93a10.25 10.25 0 0 0-.11 1.58 4.69 4.69 0 0 0 4.52 4.57 3.62 3.62 0 0 0 3.25-1.67c.17-.22.28-.47.42-.47a.59.59 0 0 1 .45.33 5.08 5.08 0 0 1-4.78 3.53c-4 0-6.06-2.45-6.06-6.34s2.7-6.67 5.56-6.67a4.65 4.65 0 0 1 5 4.81c0 .28-.11.31-.33.31m-15.75-3.23v5.84c0 2.95.25 4 2.45 4a4.61 4.61 0 0 0 1.89-.64c.11 0 .31.28.31.45s-1.17 1.47-3.7 1.47c-3.2 0-3.2-2.75-3.2-3.45V64c0-.22-.08-.36-.28-.36h-1.39c-.08 0-.17-.08-.17-.25a.49.49 0 0 1 .17-.39c2.59-1.95 3.11-3.42 3.67-3.42a.33.33 0 0 1 .33.36c0 .5-.08 1-.08 2.56h4.28c.2 0 .28.19.28.58s-.17.7-.75.7c-.2 0-1.5-.14-3.81-.14m-10.64 2.89c2.92 1.39 4.92 1.31 4.92 4.45 0 1.36-.72 3.78-4.53 3.78-.5 0-2.11-.22-3.2-.22a.18.18 0 0 1-.14-.14c0-.28-.64-2.72-.64-3s.39-.17.5-.17c.67 0 .83 2.81 3.5 2.81a2.37 2.37 0 0 0 2.53-2.48c0-2.92-6.23-2-6.23-5.92 0-2.28 1.89-3.78 4.22-3.78a22.29 22.29 0 0 1 3 .25c.36.08.42.61.42.78.05 1.14.31 1.86.31 2.23 0 .17-.17.22-.31.22a.49.49 0 0 1-.56-.39c-.19-.47-.92-2.36-2.89-2.36a2 2 0 0 0-2.22 2.08 2.11 2.11 0 0 0 1.3 1.86M190.7 66h4.62c.55 0 .94-.17.94-.92a2.35 2.35 0 0 0-2.45-2.64c-2 0-2.84 1.67-3.11 3.56m7.76.83h-7.92a10 10 0 0 0-.11 1.58A4.69 4.69 0 0 0 195 73a3.62 3.62 0 0 0 3.25-1.67c.17-.22.28-.47.42-.47a.59.59 0 0 1 .45.33 5.08 5.08 0 0 1-4.78 3.53c-4 0-6.06-2.45-6.06-6.34s2.7-6.67 5.56-6.67a4.65 4.65 0 0 1 5 4.81c0 .28-.11.31-.34.31m-21.07-9.18v5.84a7.47 7.47 0 0 1 4.37-1.67c.94 0 3.67.19 3.67 4.17v6.67c0 .47.08 1 1.81 1 .28 0 .28.17.28.36s0 .36-.39.36c-.83 0-1.34-.06-2.81-.06-2.25 0-2.7.06-2.92.06s-.2-.19-.2-.33a.36.36 0 0 1 .39-.39c1.33 0 1.58-.11 1.58-1v-5c0-2.59-.22-4.31-3.11-4.31-1.19 0-2.56.56-2.67 1v7.37c0 1.58.06 1.92 1.28 1.92.75 0 .81 0 .81.36 0 .17 0 .36-.28.36s-.5-.06-2.45-.06c-2.61 0-3.34.06-3.61.06s-.22-.17-.22-.31c0-.36 0-.42 1.06-.42a1 1 0 0 0 1-.67c.11-.25.16-3.92.16-5.12v-9.66c0-2.42-.08-2.75-1.61-2.89a.29.29 0 0 1-.25-.33c0-.22.08-.36.22-.39a22.27 22.27 0 0 0 3.87-1.19c.11 0 .17.14.17.31a25.17 25.17 0 0 0-.14 4M169 73.19a5.08 5.08 0 0 0 2.8-1.19c.22-.2.33-.44.47-.44s.42.2.42.39a.62.62 0 0 1-.22.42 6.27 6.27 0 0 1-4.87 2.36c-3.23 0-5.75-2.31-5.75-6.29s2.72-6.62 6.31-6.62c3.81 0 4.53 2.06 4.53 2.64a1.44 1.44 0 0 1-1.48 1.2c-.89 0-1-.28-1.31-1.81-.08-.42-.28-1.31-1.72-1.31-1.75 0-3.92 1.33-3.92 5.89a4.41 4.41 0 0 0 4.74 4.76m-12.53-9.56v5.84c0 2.95.25 4 2.45 4a4.58 4.58 0 0 0 1.89-.64c.11 0 .31.28.31.45s-1.17 1.47-3.7 1.47c-3.2 0-3.2-2.75-3.2-3.45V64c0-.22-.08-.36-.28-.36h-1.39c-.08 0-.17-.08-.17-.25a.49.49 0 0 1 .17-.39c2.59-1.95 3.11-3.42 3.67-3.42a.33.33 0 0 1 .33.36c0 .5-.08 1-.08 2.56h4.28c.2 0 .28.19.28.58s-.17.7-.75.7c-.2 0-1.5-.14-3.81-.14m-10.64 2.89c2.92 1.39 4.92 1.31 4.92 4.45 0 1.36-.72 3.78-4.53 3.78-.5 0-2.11-.22-3.2-.22a.18.18 0 0 1-.14-.14c0-.28-.64-2.72-.64-3s.39-.17.5-.17c.67 0 .83 2.81 3.5 2.81a2.37 2.37 0 0 0 2.53-2.48c0-2.92-6.23-2-6.23-5.92 0-2.28 1.89-3.78 4.23-3.78a22.25 22.25 0 0 1 3 .25c.36.08.42.61.42.78.05 1.14.31 1.86.31 2.23 0 .17-.17.22-.31.22a.49.49 0 0 1-.56-.39c-.19-.47-.92-2.36-2.89-2.36a2 2 0 0 0-2.22 2.08 2.11 2.11 0 0 0 1.3 1.86m-13.5-.53h4.62c.56 0 .94-.17.94-.92a2.35 2.35 0 0 0-2.45-2.64c-2 0-2.84 1.67-3.11 3.56m7.76.83h-7.93a10.25 10.25 0 0 0-.11 1.58A4.69 4.69 0 0 0 136.6 73a3.62 3.62 0 0 0 3.25-1.67c.17-.22.28-.47.42-.47a.59.59 0 0 1 .45.33 5.08 5.08 0 0 1-4.78 3.53c-4 0-6.06-2.45-6.06-6.34s2.7-6.67 5.56-6.67a4.65 4.65 0 0 1 5 4.81c0 .28-.11.31-.33.31m-22.83-3.73l-5.67 11.07c-.11.25-.31.61-.67.61s-.5-.55-.83-1.67c-3.47-11.29-4.23-14.65-4.73-16.32-.42-1.42-.78-1.42-2.64-1.42-.17 0-.22-.11-.22-.42s.06-.42.33-.42c.44 0 2.53.11 3.78.11.92 0 3.14-.11 3.86-.11.25 0 .25.31.25.47s0 .36-.28.36c-1.53 0-2.17 0-2.17.78s.22 1.56 2.56 10.18c.94 3.48 1.31 4.25 1.5 4.25.42 0 1-1.83 5.12-9.68a3 3 0 0 0 .5-1.45 7.67 7.67 0 0 0-.44-2c-.61-2.11-1.06-2.11-3-2.11-.17 0-.22-.22-.22-.42s.08-.42.14-.42c1.33 0 2.72.11 4.12.11s2.7-.11 4-.11c.22 0 .31.08.31.33s0 .5-.25.5c-1.64 0-2.34 0-2.34 1 0 .78.44 2.5 3.42 12.23.42 1.31.53 2 .75 2s3.23-7.79 4.59-11.71a8.41 8.41 0 0 0 .56-2.22c0-1.11-.7-1.25-1.75-1.25-.86 0-.95 0-.95-.44 0-.17.11-.39.25-.39.64 0 2.45.11 3.36.11s2.59-.11 3.23-.11c.33 0 .36.25.36.42s-.05.42-.25.42c-1.2 0-2.39 0-3.34 2.39-2.42 6.23-5.12 12.53-6.4 16.17-.2.53-.42.83-.59.83-.36 0-.47-.08-.58-.42-1.53-4.14-2.92-8.7-4.17-12.68-.17-.53-.17-.67-.34-.67s-.33.44-1.17 2.08M203.06 81a1.31 1.31 0 1 1 1.28-1.31 1.31 1.31 0 0 1-1.28 1.31m74.65 7.46h4.09c.49 0 .84-.15.84-.81a2.08 2.08 0 0 0-2.17-2.34c-1.77 0-2.51 1.48-2.76 3.15m22.54 0h4.08c.49 0 .84-.15.84-.81a2.08 2.08 0 0 0-2.17-2.39c-1.77 0-2.51 1.48-2.75 3.15m-2.13 2.95v-.83c0-3.52 2.39-5.91 4.92-5.91a4.12 4.12 0 0 1 4.41 4.26c0 .25-.1.27-.29.27h-7a9 9 0 0 0-.1 1.4 3.54 3.54 0 0 0 .1.8zm-10.73 0a3.91 3.91 0 0 1-.84-2.67 4.27 4.27 0 0 1 4.36-4 5.16 5.16 0 0 1 3 1 3.58 3.58 0 0 1 2.09-.74c1.57 0 1.84.86 1.84 1.38a1 1 0 0 1-.93.86c-.64 0-1.23-1.4-1.67-1.4a1.86 1.86 0 0 0-.94.32 4.56 4.56 0 0 1 .94 2.39 4.24 4.24 0 0 1-1 2.95h-1.9a5.33 5.33 0 0 0 .77-3.09c0-.37 0-3-2.07-3-2.29 0-2.31 2.93-2.31 3.79a3.5 3.5 0 0 0 .66 2.28zm-11.81 0v-.83c0-3.52 2.38-5.91 4.92-5.91a4.12 4.12 0 0 1 4.4 4.26c0 .25-.1.27-.3.27h-7a9 9 0 0 0-.1 1.4 3.54 3.54 0 0 0 .1.8zm-5.06 0v-9.89c0-2.14-.08-2.44-1.43-2.56a.26.26 0 0 1-.22-.29c0-.2.07-.32.2-.35a19.83 19.83 0 0 0 3.42-1.06c.1 0 .15.12.15.27a22.47 22.47 0 0 0-.12 3.54v10.34zm-6.64 0v-9.89c0-2.14-.07-2.44-1.43-2.56-.15 0-.22-.12-.22-.29s.07-.32.2-.35a19.9 19.9 0 0 0 3.42-1.06c.1 0 .15.12.15.27a22.47 22.47 0 0 0-.12 3.54v10.34zm-14.22 0a6.45 6.45 0 0 1-.07-.93 5.72 5.72 0 0 1 11.44 0 7.13 7.13 0 0 1-.06.93h-2.31v-.93c0-2.41-.81-5.07-3.4-5.07s-3.37 2.66-3.37 5.07v.92zm-2.13 0c.06-.09.16-.14.37-.14s.21 0 .25.14zm-15 0a8.69 8.69 0 0 1-.94-3.78 9.13 9.13 0 0 1 9.12-9.58c4.18 0 4.9.94 5.56.94.44 0 .61-.42 1-.42.05 0 .17.05.17.3a32.09 32.09 0 0 0 .47 3.94c0 .22-.3.32-.47.32a.25.25 0 0 1-.27-.2c-1.06-2.71-2.61-4.23-5.78-4.23s-6.82 2.9-6.82 8.81a9.06 9.06 0 0 0 .8 3.88zm-11.39 0a26 26 0 0 0 1.9-4.74c0-.81-1.16-.84-1.89-.84-.22 0-.25-.12-.25-.32s.1-.32.22-.32h4.67c.17 0 .17.22.17.32s-.07.3-.42.32a1.48 1.48 0 0 0-1.54 1.08c-.37.86-1.19 2.63-2.06 4.49zm-13.38 0v-4.75c0-.2-.07-.32-.25-.32h-1.21c-.08 0-.15-.07-.15-.22a.43.43 0 0 1 .15-.35c2.29-1.72 2.76-3 3.25-3a.29.29 0 0 1 .3.32c0 .44-.07.86-.07 2.27h3.41a.25.25 0 0 1 .24-.15h5.17c.25 0 .29.15.29.32s-.07.32-.25.32-1.21 0-1.21.54a18.72 18.72 0 0 0 1.41 5h-2.08c-.85-2.44-1.22-4-1.62-5-.16-.41-.85-.52-1.34-.55 0 .33-.15.63-.67.63-.17 0-1.33-.12-3.37-.12v5.06zm-5.7 0V87.7c0-.86-.22-1.35-1.45-1.48-.2 0-.22-.12-.22-.3s.08-.32.2-.34a11 11 0 0 0 3.41-1.21c.1 0 .15.12.15.27a22.19 22.19 0 0 0-.12 3.55v3.17zm-13.09 0V87.7c0-.86-.22-1.35-1.45-1.48-.2 0-.22-.12-.22-.3s.07-.32.2-.34a11 11 0 0 0 3.45-1.21s.07.07.07.27v1.77a7.47 7.47 0 0 1 3.86-1.7c.84 0 3.25.17 3.25 3.69v2.95h-2v-1.46c0-2.29-.2-3.82-2.76-3.82A3.66 3.66 0 0 0 191 87.2v4.15zm-6.62 0v-4c0-1.33-.25-1.48-1.53-1.48-.44 0-.79 0-.79-.25s0-.49.17-.49c.35 0 .64.08 2.14.08.62 0 1.25-.08 1.87-.08a.3.3 0 0 1 .34.35c0 .1-.22 2-.22 3.74v2.16zm-6.84 0v-3.2c0-2.17-.25-2.31-1.53-2.31-.2 0-.54 0-.54-.25s0-.49.27-.49.64.08 1.45.08 1.8-.08 2.14-.08c.15 0 .2 0 .2.35v5.9zm-19.48 0V87.7c0-.86-.22-1.35-1.45-1.48-.2 0-.22-.12-.22-.3s.07-.32.2-.34a11 11 0 0 0 3.44-1.21s.07.07.07.27v1.65a10.1 10.1 0 0 1 4.33-1.58 3 3 0 0 1 2.68 1.6c1.33-.79 2.29-1.6 3.77-1.6.84 0 3.25.12 3.25 3v3.64h-2v-3.48c0-.32-.2-2-2.51-2A3.59 3.59 0 0 0 165 87.2v4.15h-2v-3.48c0-.93-.2-2-2.51-2A3.59 3.59 0 0 0 158 87.2v4.15zm-19.78 0V87.7c0-.86-.22-1.35-1.45-1.48-.2 0-.22-.12-.22-.3s.08-.32.2-.34a11 11 0 0 0 3.45-1.21s.07.07.07.27v1.65a10.1 10.1 0 0 1 4.33-1.58 3 3 0 0 1 2.68 1.6c1.33-.79 2.29-1.6 3.76-1.6.84 0 3.25.12 3.25 3v3.64h-2v-3.48c0-.32-.2-2-2.51-2a3.59 3.59 0 0 0-2.51 1.35v4.15h-2v-3.5c0-.93-.2-2-2.51-2a3.59 3.59 0 0 0-2.51 1.35v4.15zm-14.28 0a6.45 6.45 0 0 1-.07-.93 5.72 5.72 0 0 1 11.45 0 7.47 7.47 0 0 1-.06.93H131v-.93c0-2.41-.81-5.07-3.4-5.07s-3.37 2.66-3.37 5.07v.92zm-2.35 0c.06-.09.16-.14.37-.14s.21 0 .25.14zm-15 0a8.67 8.67 0 0 1-.94-3.78 9.13 9.13 0 0 1 9.13-9.58c4.18 0 4.9.94 5.56.94.44 0 .61-.42 1-.42.05 0 .17.05.17.3a32.09 32.09 0 0 0 .47 3.94c0 .22-.3.32-.47.32a.25.25 0 0 1-.27-.2c-1.06-2.71-2.61-4.23-5.78-4.23s-6.82 2.9-6.82 8.81a9.06 9.06 0 0 0 .81 3.88z" class="cls-4"/><path d="M119.6 91.41a6.37 6.37 0 0 1-5.71 4.09c-3.37 0-7.26-2.58-7.26-8 0-5.91 3.76-8.81 6.82-8.81s4.73 1.52 5.78 4.23a.25.25 0 0 0 .27.2c.17 0 .47-.1.47-.32a32.14 32.14 0 0 1-.47-3.94c0-.25-.12-.3-.17-.3-.35 0-.52.42-1 .42-.67 0-1.38-.94-5.56-.94a9.13 9.13 0 0 0-9.1 9.55 8.68 8.68 0 0 0 9.1 8.56 21.17 21.17 0 0 0 6.77-.94.42.42 0 0 0 .34-.44c0-.52.34-3 .34-3.25s-.12-.3-.27-.3-.35.07-.39.2m13.8-.99a5.72 5.72 0 1 0-5.73 5.71 5.39 5.39 0 0 0 5.73-5.71m-2.34 0c0 2.09-.49 5.07-3.4 5.07s-3.37-3-3.37-5.07c0-2.41.81-5.07 3.37-5.07S131 88 131 90.43m5.26.64a24.71 24.71 0 0 1-.15 3.54.92.92 0 0 1-1 .59c-.66 0-.69 0-.69.37 0 .12 0 .27.2.27h5.24s.25-.17.25-.32-.05-.32-.71-.32c-1.08 0-1.13-.3-1.13-1.7v-6.3a3.59 3.59 0 0 1 2.51-1.35c2.31 0 2.51 1.08 2.51 2v6.37c0 .86-.22 1-1.4 1a.32.32 0 0 0-.35.35c0 .12 0 .29.17.29h5.16s.25-.17.25-.32-.05-.32-.71-.32c-1.08 0-1.13-.3-1.13-1.7V87.2a3.59 3.59 0 0 1 2.51-1.35c2.31 0 2.51 1.7 2.51 2v6.37c0 .81-.22.91-1.4.91a.32.32 0 0 0-.34.35c0 .12 0 .29.17.29h5.07c.35 0 .35-.17.35-.32s0-.32-.25-.32c-1.53 0-1.6-.47-1.6-.89v-6.52c0-2.88-2.41-3-3.25-3-1.48 0-2.44.81-3.77 1.6a3 3 0 0 0-2.68-1.6 10.1 10.1 0 0 0-4.33 1.58c0-1 .05-1.5.05-1.65s0-.27-.07-.27a11 11 0 0 1-3.45 1.21c-.12 0-.2.15-.2.34s0 .27.22.3c1.23.12 1.45.61 1.45 1.48zm19.74 0a24.71 24.71 0 0 1-.15 3.54.92.92 0 0 1-1 .59c-.66 0-.69 0-.69.37 0 .12 0 .27.2.27h5.25s.25-.17.25-.32-.05-.32-.71-.32c-1.08 0-1.13-.3-1.13-1.7v-6.3a3.6 3.6 0 0 1 2.51-1.35c2.31 0 2.51 1.08 2.51 2v6.37c0 .86-.22 1-1.4 1a.32.32 0 0 0-.34.35c0 .12 0 .29.17.29h5.16s.25-.17.25-.32-.05-.32-.71-.32c-1.08 0-1.13-.3-1.13-1.7V87.2a3.59 3.59 0 0 1 2.51-1.35c2.31 0 2.51 1.7 2.51 2v6.37c0 .81-.22.91-1.4.91a.32.32 0 0 0-.34.35c0 .12 0 .29.17.29h5.07c.34 0 .34-.17.34-.32s0-.32-.25-.32c-1.53 0-1.6-.47-1.6-.89v-6.52c0-2.88-2.41-3-3.25-3-1.48 0-2.44.81-3.77 1.6a3 3 0 0 0-2.68-1.6 10.11 10.11 0 0 0-4.35 1.57v-1.65s0-.27-.07-.27a11 11 0 0 1-3.45 1.21c-.12 0-.2.15-.2.34s0 .27.22.3c1.23.12 1.45.61 1.45 1.48zm19.52.93c0 2.56.69 4.13 3.13 4.13a6.83 6.83 0 0 0 3.67-1.35c0 .25-.07.64-.07.94a.33.33 0 0 0 .3.35 22.28 22.28 0 0 1 2.83-.64c.79-.12.81-.17.81-.32 0-.47-.05-.47-.15-.47s-.71.1-1.06.1c-.61 0-.61-.52-.61-.91V89.2c0-1.75.22-3.64.22-3.74s-.12-.34-.35-.34c-.62 0-1.25.07-1.87.07-1.5 0-1.8-.07-2.14-.07-.17 0-.17.12-.17.49s.35.25.79.25c1.28 0 1.53.15 1.53 1.48v6.36c0 .76-1.55 1.3-2.44 1.3-1.82 0-2.41-1.06-2.41-2.9v-6.64c0-.34 0-.34-.2-.34-.34 0-1.28.07-2.14.07s-1.21-.07-1.45-.07-.27.29-.27.49.34.25.54.25c1.28 0 1.53.15 1.53 2.31zM191 87.2a3.66 3.66 0 0 1 2.36-1.13c2.56 0 2.76 1.53 2.76 3.82v4.4c0 .81-.22.91-1.4.91a.32.32 0 0 0-.34.35c0 .12 0 .29.17.29h5.07c.35 0 .35-.17.35-.32s0-.32-.25-.32c-1.52 0-1.6-.47-1.6-.89v-5.9c0-3.52-2.41-3.69-3.25-3.69a7.49 7.49 0 0 0-3.86 1.7v-1.77s0-.27-.07-.27a11 11 0 0 1-3.45 1.21c-.12 0-.2.15-.2.34s0 .27.22.3c1.23.12 1.45.62 1.45 1.48v3.37a24.76 24.76 0 0 1-.15 3.54.92.92 0 0 1-1 .59c-.91 0-.94 0-.94.37 0 .12 0 .27.2.27h5.49s.25-.17.25-.32 0-.32-.71-.32c-1.08 0-1.13-.29-1.13-1.7zm12.06-6.2a1.3 1.3 0 1 0-1.28-1.3 1.31 1.31 0 0 0 1.28 1.3m1 7.24a22.19 22.19 0 0 1 .12-3.55c0-.15 0-.27-.15-.27a11 11 0 0 1-3.44 1.21c-.12 0-.2.15-.2.35s0 .27.22.3c1.23.12 1.45.61 1.45 1.48v3.37a25.12 25.12 0 0 1-.15 3.54.92.92 0 0 1-1 .59c-.91 0-.94.05-.94.37 0 .12 0 .27.2.27h5.32s.25-.17.25-.32 0-.32-.59-.32c-1.08 0-1.13-.29-1.13-1.7zm5.71-1.95c2 0 3.2.12 3.37.12.52 0 .66-.3.66-.62s-.08-.52-.25-.52h-3.79c0-1.4.07-1.82.07-2.27a.29.29 0 0 0-.3-.32c-.49 0-1 1.3-3.25 3a.43.43 0 0 0-.15.35c0 .15.07.22.15.22h1.23c.17 0 .25.12.25.32v6.47a2.68 2.68 0 0 0 2.83 3.05c2.24 0 3.27-1.16 3.27-1.3s-.17-.39-.27-.39a4.07 4.07 0 0 1-1.67.56c-1.94 0-2.17-.93-2.17-3.54z" class="cls-4"/><path d="M219.87 94c-1.6-4.11-2.44-6.55-2.44-7.73 0-.54 1.06-.54 1.2-.54s.25-.2.25-.32-.05-.32-.3-.32h-5.17a.26.26 0 0 0-.27.29c0 .17 0 .35.22.35s1.55 0 1.77.56c.52 1.38 1 3.52 2.53 7.51a11.81 11.81 0 0 1 .86 2.76c0 1.16-1.16 3.52-1.6 3.52s-.62-.42-1.23-.42a1.39 1.39 0 1 0 0 2.78c.81 0 1.63-.32 3.52-5.07.54-1.38 3.94-8.51 4.82-10.56a1.48 1.48 0 0 1 1.55-1.08c.34 0 .42-.1.42-.32s0-.32-.17-.32h-4.67c-.12 0-.22.15-.22.32s0 .32.25.32c.74 0 1.89 0 1.89.84s-2 5.09-3.17 7.43m27.59-2.59a6.37 6.37 0 0 1-5.71 4.09c-3.37 0-7.26-2.58-7.26-8 0-5.91 3.76-8.81 6.82-8.81s4.73 1.52 5.79 4.23a.25.25 0 0 0 .27.2c.17 0 .47-.1.47-.32a32.14 32.14 0 0 1-.47-3.94c0-.25-.12-.3-.17-.3-.34 0-.52.42-1 .42-.66 0-1.38-.94-5.56-.94a9.13 9.13 0 0 0-9.11 9.55 8.69 8.69 0 0 0 9.11 8.56 21.17 21.17 0 0 0 6.77-.94.42.42 0 0 0 .34-.44c0-.52.34-3 .34-3.25s-.12-.3-.27-.3-.35.07-.39.2m13.53-.99a5.72 5.72 0 1 0-5.73 5.71 5.39 5.39 0 0 0 5.73-5.71m-2.34 0c0 2.09-.49 5.07-3.4 5.07s-3.37-3-3.37-5.07c0-2.41.81-5.07 3.37-5.07s3.4 2.66 3.4 5.07m7.22-9.43a22.47 22.47 0 0 1 .12-3.54c0-.15 0-.27-.15-.27a19.81 19.81 0 0 1-3.42 1.06c-.12 0-.2.15-.2.35a.26.26 0 0 0 .22.29c1.35.12 1.43.42 1.43 2.56v8.61c0 1.06-.05 4.31-.15 4.53a.86.86 0 0 1-.89.59c-.91 0-.93 0-.93.37 0 .12 0 .27.2.27h5.37s.25-.17.25-.32 0-.32-.71-.32c-1.08 0-1.13-.3-1.13-1.7zm6.64 0a22.47 22.47 0 0 1 .12-3.54c0-.15 0-.27-.15-.27a19.75 19.75 0 0 1-3.42 1.06c-.12 0-.2.15-.2.35a.26.26 0 0 0 .22.29c1.35.12 1.43.42 1.43 2.56v8.61c0 1.06-.05 4.31-.15 4.53a.86.86 0 0 1-.89.59c-.91 0-.93 0-.93.37 0 .12 0 .27.2.27h5.37s.25-.17.25-.32 0-.32-.71-.32c-1.08 0-1.13-.3-1.13-1.7zm5.19 7.41c.25-1.67 1-3.15 2.76-3.15a2.08 2.08 0 0 1 2.17 2.34c0 .66-.35.81-.84.81zm6.87.74c.2 0 .3 0 .3-.27a4.12 4.12 0 0 0-4.41-4.26c-2.54 0-4.92 2.39-4.92 5.91s1.84 5.61 5.37 5.61a4.49 4.49 0 0 0 4.22-3.14.52.52 0 0 0-.39-.29c-.12 0-.22.22-.37.42a3.21 3.21 0 0 1-2.88 1.48 4.15 4.15 0 0 1-4-4.06 8.82 8.82 0 0 1 .1-1.4zM290.9 92c-1.72 0-2.21-1.48-2.21-2.93 0-.86 0-3.79 2.31-3.79 2.07 0 2.07 2.61 2.07 3 0 1.06-.15 3.74-2.17 3.74m-1.7 2.76c-.56 0-1.16-.1-1.16-.81a1.86 1.86 0 0 1 1-1.58 5.65 5.65 0 0 0 1.77.27c2.71 0 4.38-1.58 4.38-4.23a4.56 4.56 0 0 0-.94-2.39 1.84 1.84 0 0 1 .94-.32c.44 0 1 1.4 1.67 1.4a1 1 0 0 0 .93-.86c0-.52-.27-1.38-1.84-1.38a3.58 3.58 0 0 0-2.09.74 5.17 5.17 0 0 0-3-1 4.27 4.27 0 0 0-4.36 4 3.54 3.54 0 0 0 1.92 3.5c-1.11.76-1.9 1.4-1.9 2.88a1.61 1.61 0 0 0 1.48 1.5c-1 1-2.14 2.09-2.14 3.62 0 1.89 1.58 2.31 3.18 2.31 3 0 7.11-1.08 7.11-4.8 0-.74 0-2.93-3.35-2.93zm3.25 1.87c1.6 0 2.51.44 2.51 1.94 0 1.92-1.3 2.78-4.11 2.78-3.45 0-3.54-1.92-3.54-2.26a3.28 3.28 0 0 1 1.6-2.46zm7.8-8.24c.25-1.67 1-3.15 2.76-3.15a2.08 2.08 0 0 1 2.17 2.34c0 .66-.34.81-.84.81zm6.87.74c.2 0 .29 0 .29-.27a4.12 4.12 0 0 0-4.4-4.26c-2.54 0-4.92 2.39-4.92 5.91s1.84 5.61 5.36 5.61a4.49 4.49 0 0 0 4.23-3.14.52.52 0 0 0-.39-.29c-.12 0-.22.22-.37.42a3.21 3.21 0 0 1-2.92 1.48 4.15 4.15 0 0 1-4-4.06 9 9 0 0 1 .1-1.4zM117.28 63.1c.83-1.64 1-2.08 1.17-2.08s.17.14.33.67c1.25 4 2.64 8.53 4.17 12.68.11.33.22.42.59.42.17 0 .39-.31.58-.83 1.28-3.64 4-9.93 6.45-16.18.95-2.39 2.14-2.39 3.34-2.39.2 0 .25-.2.25-.42s0-.42-.36-.42c-.64 0-2.45.11-3.23.11s-2.73-.11-3.37-.11c-.14 0-.25.22-.25.39 0 .44.08.44.94.44 1.06 0 1.75.14 1.75 1.25a8.46 8.46 0 0 1-.56 2.22c-1.36 3.92-4.42 11.71-4.59 11.71s-.33-.67-.75-2c-3-9.73-3.42-11.46-3.42-12.24 0-1 .7-1 2.34-1 .25 0 .25-.31.25-.5s-.08-.33-.31-.33c-1.33 0-2.7.11-4 .11s-2.78-.11-4.12-.11c-.06 0-.14.25-.14.42s.06.42.22.42c1.92 0 2.36 0 3 2.11a7.76 7.76 0 0 1 .44 2 3.05 3.05 0 0 1-.5 1.45c-4.12 7.84-4.7 9.68-5.12 9.68-.2 0-.56-.78-1.5-4.25-2.33-8.62-2.56-9.37-2.56-10.18s.64-.78 2.17-.78c.28 0 .28-.22.28-.36s0-.47-.25-.47c-.72 0-2.95.11-3.86.11-1.25 0-3.34-.11-3.78-.11-.28 0-.33 0-.33.42s.06.42.22.42c1.86 0 2.22 0 2.64 1.42.5 1.67 1.25 5 4.73 16.32.33 1.11.36 1.67.83 1.67s.55-.36.67-.61zm15.04 2.9c.28-1.89 1.11-3.56 3.11-3.56a2.35 2.35 0 0 1 2.45 2.64c0 .75-.39.92-.95.92zm7.76.83c.22 0 .33 0 .33-.31a4.65 4.65 0 0 0-5-4.81c-2.86 0-5.56 2.7-5.56 6.67s2.09 6.34 6.06 6.34a5.08 5.08 0 0 0 4.78-3.53.59.59 0 0 0-.44-.33c-.14 0-.25.25-.42.47A3.62 3.62 0 0 1 136.6 73a4.69 4.69 0 0 1-4.6-4.56 10.25 10.25 0 0 1 .11-1.58zm5.75-.31a2.11 2.11 0 0 1-1.31-1.86 2 2 0 0 1 2.22-2.08c2 0 2.7 1.89 2.89 2.36s.31.39.55.39.31-.05.31-.22c0-.36-.25-1.09-.31-2.23 0-.17-.05-.69-.42-.78a22.29 22.29 0 0 0-3-.25c-2.33 0-4.23 1.5-4.23 3.78 0 3.95 6.23 3 6.23 5.92a2.37 2.37 0 0 1-2.51 2.45c-2.67 0-2.84-2.81-3.5-2.81-.11 0-.5 0-.5.17s.61 2.73.64 3a.18.18 0 0 0 .14.14c1.09 0 2.7.22 3.2.22 3.81 0 4.53-2.42 4.53-3.78 0-3.14-2-3.06-4.92-4.45m10.63-2.86c2.31 0 3.61.14 3.81.14.58 0 .75-.33.75-.7s-.08-.58-.28-.58h-4.28c0-1.58.08-2.06.08-2.56a.33.33 0 0 0-.33-.36c-.56 0-1.09 1.47-3.67 3.42a.49.49 0 0 0-.17.39c0 .17.08.25.17.25h1.39c.19 0 .28.14.28.36v7.31c0 .7 0 3.45 3.2 3.45 2.53 0 3.7-1.31 3.7-1.47s-.2-.44-.31-.44a4.61 4.61 0 0 1-1.89.64c-2.2 0-2.45-1.06-2.45-4zM169 73.19a4.41 4.41 0 0 1-4.73-4.73c0-4.56 2.17-5.89 3.92-5.89 1.45 0 1.64.89 1.72 1.31.31 1.53.42 1.81 1.31 1.81a1.44 1.44 0 0 0 1.48-1.2c0-.58-.72-2.64-4.53-2.64-3.59 0-6.31 2.5-6.31 6.62s2.53 6.28 5.76 6.28a6.27 6.27 0 0 0 4.87-2.36.62.62 0 0 0 .22-.42c0-.19-.34-.39-.42-.39s-.25.25-.47.44a5.08 5.08 0 0 1-2.82 1.17m8.38-15.51a25.17 25.17 0 0 1 .14-4c0-.17-.06-.31-.17-.31a22.38 22.38 0 0 1-3.86 1.2c-.14 0-.22.17-.22.39s.08.31.25.33c1.53.14 1.61.47 1.61 2.89v9.73c0 1.2-.05 4.87-.16 5.12a1 1 0 0 1-1 .67c-1 0-1.06.06-1.06.42 0 .14 0 .31.22.31s1-.06 3.62-.06c1.94 0 2.31.06 2.45.06s.28-.2.28-.36c0-.33-.06-.36-.81-.36-1.22 0-1.28-.33-1.28-1.92v-7.38c.11-.47 1.47-1 2.67-1 2.89 0 3.12 1.73 3.12 4.31v5c0 .92-.25 1-1.59 1a.36.36 0 0 0-.39.39c0 .14 0 .33.19.33s.67-.06 2.92-.06c1.47 0 2 .06 2.81.06.39 0 .39-.2.39-.36s0-.36-.28-.36c-1.72 0-1.81-.53-1.81-1V66c0-4-2.72-4.17-3.67-4.17a7.47 7.47 0 0 0-4.36 1.67zM190.7 66c.28-1.89 1.11-3.56 3.11-3.56a2.35 2.35 0 0 1 2.45 2.64c0 .75-.39.92-.95.92zm7.76.83c.22 0 .33 0 .33-.31a4.65 4.65 0 0 0-5-4.81c-2.86 0-5.56 2.7-5.56 6.67s2.08 6.34 6.06 6.34a5.08 5.08 0 0 0 4.78-3.53.59.59 0 0 0-.44-.33c-.14 0-.25.25-.42.47A3.62 3.62 0 0 1 195 73a4.69 4.69 0 0 1-4.56-4.59 10 10 0 0 1 .11-1.58zm5.75-.31a2.11 2.11 0 0 1-1.31-1.86 2 2 0 0 1 2.22-2.08c2 0 2.7 1.89 2.89 2.36a.49.49 0 0 0 .56.39c.14 0 .31-.05.31-.22 0-.36-.25-1.09-.31-2.23 0-.17-.06-.69-.42-.78a22.29 22.29 0 0 0-3-.25c-2.33 0-4.23 1.5-4.23 3.78 0 3.95 6.23 3 6.23 5.92a2.37 2.37 0 0 1-2.52 2.45c-2.67 0-2.83-2.81-3.5-2.81-.11 0-.5 0-.5.17s.61 2.73.64 3a.18.18 0 0 0 .14.14c1.08 0 2.7.22 3.2.22 3.81 0 4.53-2.42 4.53-3.78 0-3.14-2-3.06-4.92-4.45m10.63-2.86c2.31 0 3.61.14 3.81.14.58 0 .75-.33.75-.7s-.08-.58-.28-.58h-4.28c0-1.58.08-2.06.08-2.56a.33.33 0 0 0-.33-.36c-.56 0-1.08 1.47-3.67 3.42a.49.49 0 0 0-.16.39c0 .17.08.25.16.25h1.39c.2 0 .28.14.28.36v7.31c0 .7 0 3.45 3.2 3.45 2.53 0 3.7-1.31 3.7-1.47s-.2-.44-.31-.44a4.58 4.58 0 0 1-1.89.64c-2.2 0-2.45-1.06-2.45-4zm7.99 2.37c.28-1.89 1.11-3.56 3.11-3.56a2.35 2.35 0 0 1 2.45 2.64c0 .75-.39.92-.94.92zm7.76.83c.22 0 .33 0 .33-.31a4.65 4.65 0 0 0-5-4.81c-2.86 0-5.56 2.7-5.56 6.67s2.09 6.34 6.06 6.34a5.08 5.08 0 0 0 4.78-3.53.59.59 0 0 0-.44-.33c-.14 0-.25.25-.42.47a3.62 3.62 0 0 1-3.23 1.67 4.69 4.69 0 0 1-4.56-4.59 10.25 10.25 0 0 1 .11-1.58zm4.14 5.44c0 1.2-.22 1.42-1.42 1.42-.53 0-.86.08-.86.36s.05.36.25.36c.53 0 1-.06 3.22-.06 1.28 0 2.17.06 3.17.06.31 0 .42 0 .42-.39s-.11-.33-1.14-.33c-1.39 0-1.39-.61-1.39-1.64v-6.31a1.18 1.18 0 0 1 .19-.81 3.13 3.13 0 0 1 1.92-1.2c.83 0 1 1.06 2.14 1.06a1.37 1.37 0 0 0 1.36-1.39 1.58 1.58 0 0 0-1.78-1.56c-1.47 0-3 1.39-3.89 2.42 0-1.5.14-2.2.14-2.53 0-.11-.06-.28-.11-.28a12.36 12.36 0 0 1-3.89 1.36c-.14 0-.22.17-.22.39s0 .31.25.33c1.39.14 1.64.7 1.64 1.67z" class="cls-4"/></g><path d="M25.77 25.77h10.98v10.98H25.77z" class="cls-4"/><path d="M26.53 26.53H36V36h-9.47zM25 37.51h12.51V25H25z" class="cls-4"/><path d="M40.4 25.77h10.98v10.98H40.4z" class="cls-5"/><path d="M41.17 26.53h9.45V36h-9.45zm-1.53 11h12.51V25H39.64z" class="cls-5"/><path d="M55.04 25.77h10.98v10.98H55.04z" class="cls-4"/><path d="M55.8 26.53h9.45V36H55.8zm-1.53 11h12.51V25H54.27z" class="cls-4"/><path d="M69.67 25.77h10.98v10.98H69.67z" class="cls-6"/><path d="M70.44 26.53h9.45V36h-9.45zm-1.53 11h12.51V25H68.91z" class="cls-6"/><path d="M84.31 25.77h10.98v10.98H84.31z" class="cls-4"/><path d="M85.08 26.53h9.45V36h-9.45zm-1.53 11h12.51V25H83.55zM25.77 40.4h10.98v10.98H25.77z" class="cls-4"/><path d="M26.53 41.17H36v9.45h-9.47zM25 52.15h12.51V39.64H25z" class="cls-4"/><path d="M40.4 40.4h10.98v10.98H40.4z" class="cls-6"/><path d="M41.17 50.62h9.45v-9.45h-9.45zm11 1.53H39.64V39.64h12.51z" class="cls-6"/><path d="M55.04 40.4h10.98v10.98H55.04z" class="cls-4"/><path d="M55.8 50.62h9.45v-9.45H55.8zm11 1.53H54.27V39.64h12.51z" class="cls-4"/><path d="M69.67 40.4h10.98v10.98H69.67z" class="cls-5"/><path d="M70.44 50.62h9.45v-9.45h-9.45zm11 1.53H68.91V39.64h12.51z" class="cls-5"/><path d="M84.31 40.4h10.98v10.98H84.31z" class="cls-4"/><path d="M85.08 50.62h9.45v-9.45h-9.45zm11 1.53H83.54V39.64h12.52zm-70.31 2.89h10.98v10.98H25.77z" class="cls-4"/><path d="M26.53 55.8H36v9.45h-9.47zM25 66.79h12.51V54.27H25z" class="cls-4"/><path d="M40.4 55.04h10.98v10.98H40.4z" class="cls-5"/><path d="M41.17 65.26h9.45V55.8h-9.45zm11 1.53H39.64V54.27h12.51z" class="cls-5"/><path d="M55.04 55.04h10.98v10.98H55.04z" class="cls-4"/><path d="M55.8 65.26h9.45V55.8H55.8zm11 1.53H54.27V54.27h12.51z" class="cls-4"/><path d="M69.67 55.04h10.98v10.98H69.67z" class="cls-6"/><path d="M70.44 65.26h9.45V55.8h-9.45zm11 1.53H68.91V54.27h12.51z" class="cls-6"/><path d="M84.31 55.04h10.98v10.98H84.31z" class="cls-4"/><path d="M85.08 65.26h9.45V55.8h-9.45zm11 1.53H83.54V54.27h12.52zm-70.31 2.89h10.98v10.98H25.77z" class="cls-4"/><path d="M26.53 70.44H36v9.45h-9.47zM25 81.42h12.51V68.91H25z" class="cls-4"/><path d="M40.4 69.68h10.98v10.98H40.4z" class="cls-6"/><path d="M41.17 79.89h9.45v-9.45h-9.45zm11 1.53H39.64V68.91h12.51z" class="cls-6"/><path d="M55.04 69.68h10.98v10.98H55.04z" class="cls-4"/><path d="M55.8 79.89h9.45v-9.45H55.8zm11 1.53H54.27V68.91h12.51z" class="cls-4"/><path d="M69.67 69.68h10.98v10.98H69.67z" class="cls-5"/><path d="M70.44 79.89h9.45v-9.45h-9.45zm11 1.53H68.91V68.91h12.51z" class="cls-5"/><path d="M84.31 69.68h10.98v10.98H84.31z" class="cls-4"/><path d="M85.08 79.89h9.45v-9.45h-9.45zm11 1.53H83.54V68.91h12.52z" class="cls-4"/><path d="M25.77 84.31h10.98v10.98H25.77z" class="cls-6"/><path d="M26.53 85.08H36v9.45h-9.47zM25 96.06h12.51V83.55H25z" class="cls-6"/><path d="M40.4 84.31h10.98v10.98H40.4z" class="cls-4"/><path d="M41.17 94.53h9.45v-9.45h-9.45zm11 1.53H39.64V83.55h12.51z" class="cls-4"/><path d="M55.04 84.31h10.98v10.98H55.04z" class="cls-5"/><path d="M55.8 94.53h9.45v-9.45H55.8zm11 1.53H54.27V83.55h12.51z" class="cls-5"/><path d="M69.67 84.31h10.98v10.98H69.67z" class="cls-4"/><path d="M70.44 94.53h9.45v-9.45h-9.45zm11 1.53H68.91V83.55h12.51z" class="cls-4"/><path d="M84.31 84.31h10.98v10.98H84.31z" class="cls-6"/><path d="M85.08 94.53h9.45v-9.45h-9.45zm11 1.53H83.54V83.55h12.52z" class="cls-6"/><path d="M106.71 119.67a2.08 2.08 0 0 1-2-1.73c0-.12 0-.15-.13-.15s-.23 0-.23.11.08.52.16 1.76c0 .12 0 .13.1.14a14.39 14.39 0 0 0 2 .16c1.58 0 2.81-.71 2.81-2.42s-1.78-2.11-3.11-3a1.56 1.56 0 0 1-.9-1.39 1.47 1.47 0 0 1 1.53-1.47c1.1 0 1.58.88 1.9 1.79 0 .07.07.07.2.07a.13.13 0 0 0 .12-.12 14.24 14.24 0 0 1-.17-1.89c0-.09 0-.15-.1-.15s-.18.21-.31.21a10.48 10.48 0 0 0-1.57-.21 2.31 2.31 0 0 0-2.53 2.36c0 1.22.8 1.66 1.76 2.17 1.63.86 2.09 1.24 2.09 2.11a1.49 1.49 0 0 1-1.61 1.6m6.05-4.29c1 0 1.51.06 1.59.06.24 0 .31-.14.31-.29s0-.24-.12-.24h-1.79v-1.07a.14.14 0 0 0-.14-.15c-.23 0-.45.62-1.53 1.43a.2.2 0 0 0-.07.16c0 .07 0 .1.07.1h.58c.08 0 .11.06.11.15v3.05a1.26 1.26 0 0 0 1.34 1.44 1.77 1.77 0 0 0 1.54-.62c0-.07-.08-.19-.13-.19a1.92 1.92 0 0 1-.79.27c-.92 0-1-.44-1-1.67zm6.6.55a1.42 1.42 0 0 0-1.44-1.34c-.25 0-.38 0-1.25.58s-1 .73-1 1a.44.44 0 0 0 .49.43c.46 0 .57-.32.57-.44s-.15-.42-.15-.58a1.35 1.35 0 0 1 .83-.53c.28 0 1 .31 1 .91V117c-2.27.85-2.62 1.34-2.62 1.93a1 1 0 0 0 1.11 1 2.22 2.22 0 0 0 1.5-.67c.13.41.22.67.64.67a1.88 1.88 0 0 0 1.16-.7s-.09-.13-.15-.13-.27.27-.5.27-.2 0-.2-.23zm-.94 3c0 .21-.63.62-1.07.62s-.54-.36-.54-.72a.84.84 0 0 1 .38-.85 6 6 0 0 1 1.15-.57s.08.06.08.12zm4.69-3.55c1 0 1.51.06 1.59.06.24 0 .31-.14.31-.29s0-.24-.12-.24h-1.79v-1.07a.14.14 0 0 0-.14-.15c-.23 0-.45.62-1.53 1.43a.2.2 0 0 0-.07.16c0 .07 0 .1.07.1h.58c.08 0 .12.06.12.15v3.05a1.26 1.26 0 0 0 1.33 1.44 1.77 1.77 0 0 0 1.54-.62c0-.07-.08-.19-.13-.19a1.92 1.92 0 0 1-.79.27c-.92 0-1-.44-1-1.67zm4.05 1c.12-.79.47-1.48 1.3-1.48a1 1 0 0 1 1 1.1c0 .31-.16.38-.39.38zm3.24.35c.09 0 .14 0 .14-.13a1.94 1.94 0 0 0-2.08-2 2.57 2.57 0 0 0-2.32 2.78 2.36 2.36 0 0 0 2.53 2.65 2.12 2.12 0 0 0 2-1.47.24.24 0 0 0-.19-.14c-.06 0-.1.11-.17.2a1.52 1.52 0 0 1-1.36.7 2 2 0 0 1-1.9-1.91 4.12 4.12 0 0 1 0-.66zm7.7-2.38v-1.64c0-.68.21-.78 1.22-.78.13 0 .13-.09.13-.2s0-.15-.1-.15h-3.69s-.1.08-.1.15 0 .2.13.2c1 0 1.21.09 1.22.78V117c0 1.28.73 3 3.33 3 1.35 0 3.34-.83 3.34-4v-2.75c0-1.37.23-1.37 1.35-1.37.09 0 .1-.1.1-.15s0-.2-.16-.2h-3.22s-.09 0-.09.17 0 .17.09.17c1.2 0 1.53 0 1.53 1.61v2.3c0 2.76-1.17 3.52-2.53 3.52-2 0-2.6-1.36-2.6-2.91zm9.61 1.46a1.73 1.73 0 0 1 1.11-.53c1.21 0 1.3.72 1.3 1.8v2.08c0 .38-.1.43-.66.43a.15.15 0 0 0-.16.16c0 .06 0 .14.08.14h2.39c.16 0 .16-.08.16-.15s0-.15-.12-.15c-.72 0-.75-.22-.75-.42v-2.78c0-1.66-1.14-1.74-1.53-1.74a3.52 3.52 0 0 0-1.82.8v-.97a5.17 5.17 0 0 1-1.63.57c-.06 0-.09.07-.09.16s0 .13.1.14c.58.06.68.29.68.7v1.59a11.69 11.69 0 0 1-.07 1.67.43.43 0 0 1-.47.28c-.43 0-.44 0-.44.17s0 .13.09.13h2.57s.12-.08.12-.15 0-.15-.34-.15c-.51 0-.53-.14-.53-.8zm6.71-2.95a.62.62 0 1 0-.6-.62.62.62 0 0 0 .6.62m.48 3.41a10.43 10.43 0 0 1 .06-1.67c0-.07 0-.13-.07-.13a5.17 5.17 0 0 1-1.63.57c-.06 0-.09.07-.09.16s0 .13.1.14c.58.06.68.29.68.7v1.59a12 12 0 0 1-.07 1.67.44.44 0 0 1-.48.28c-.43 0-.44 0-.44.17s0 .13.09.13h2.57s.12-.08.12-.15 0-.15-.28-.15c-.51 0-.53-.14-.53-.8zm4.72 2.39a21.46 21.46 0 0 1-1.18-3.24c0-.25.32-.28.67-.28.07 0 .12-.08.12-.14s0-.16-.09-.16h-2.48a.12.12 0 0 0-.13.13c0 .16 0 .2.36.2a.4.4 0 0 1 .41.18c.16.23 1.12 3.07 1.53 3.94.23.5.31.74.44.74s.2-.14.52-.92c.21-.49.91-2 1.31-2.95s.41-1 1.08-1.06c.1 0 .12-.06.12-.13s0-.14-.1-.14h-2a.14.14 0 0 0-.15.14c0 .09 0 .16.1.16s.78 0 .78.34-.19.76-1.28 3.18m4.62-2.27c.12-.79.47-1.48 1.3-1.48a1 1 0 0 1 1 1.1c0 .31-.16.38-.39.38zm3.24.35c.09 0 .14 0 .14-.13a1.94 1.94 0 0 0-2.08-2 2.57 2.57 0 0 0-2.32 2.78 2.36 2.36 0 0 0 2.53 2.65 2.12 2.12 0 0 0 2-1.47.25.25 0 0 0-.19-.14c-.06 0-.1.11-.17.2a1.52 1.52 0 0 1-1.36.7 2 2 0 0 1-1.9-1.91 4.12 4.12 0 0 1 0-.66zm2.48 2.26c0 .5-.09.59-.59.59-.22 0-.36 0-.36.15s0 .15.1.15h2.67c.13 0 .17 0 .17-.16s0-.14-.48-.14-.58-.26-.58-.68v-2.64a.49.49 0 0 1 .08-.34 1.3 1.3 0 0 1 .8-.5c.35 0 .42.44.89.44a.57.57 0 0 0 .57-.58.66.66 0 0 0-.74-.65 2.6 2.6 0 0 0-1.63 1c0-.63.06-.92.06-1.06v-.12a5.2 5.2 0 0 1-1.63.57c-.06 0-.09.07-.09.16s0 .13.1.14c.58.06.68.29.68.7zm5.81-2.4a.88.88 0 0 1-.55-.78.84.84 0 0 1 .93-.87 1.37 1.37 0 0 1 1.21 1 .2.2 0 0 0 .23.16c.06 0 .13 0 .13-.09s-.1-.45-.13-.93c0-.07 0-.29-.17-.33a9.47 9.47 0 0 0-1.25-.1 1.63 1.63 0 0 0-1.76 1.58c0 1.65 2.6 1.25 2.6 2.47a1 1 0 0 1-1.06 1c-1.12 0-1.18-1.17-1.46-1.17 0 0-.21 0-.21.07s.26 1.14.27 1.25a.07.07 0 0 0 .06.06c.45 0 1.12.09 1.33.09 1.59 0 1.89-1 1.89-1.58 0-1.31-.84-1.28-2.05-1.86m4.74-3.7a.62.62 0 1 0-.6-.62.62.62 0 0 0 .6.62m.48 3.41a10.43 10.43 0 0 1 .06-1.67c0-.07 0-.13-.07-.13a5.11 5.11 0 0 1-1.62.57c-.06 0-.09.07-.09.16s0 .13.1.14c.58.06.68.29.68.7v1.59a11.69 11.69 0 0 1-.07 1.67.43.43 0 0 1-.47.28c-.43 0-.44 0-.44.17s0 .13.09.13h2.57s.12-.08.12-.15 0-.15-.28-.15c-.51 0-.53-.14-.53-.8zm3.82-.89c1 0 1.51.06 1.59.06.24 0 .31-.14.31-.29s0-.24-.12-.24h-1.79v-1.07a.14.14 0 0 0-.14-.15c-.23 0-.45.62-1.53 1.43a.2.2 0 0 0-.07.16c0 .07 0 .1.07.1h.58c.08 0 .11.06.11.15v3.05a1.26 1.26 0 0 0 1.34 1.44 1.77 1.77 0 0 0 1.54-.62c0-.07-.08-.19-.13-.19a1.9 1.9 0 0 1-.79.27c-.91 0-1-.44-1-1.67zm18.27 1.95a2.7 2.7 0 1 0-2.7 2.69 2.54 2.54 0 0 0 2.7-2.69m-1.1 0c0 1-.23 2.39-1.6 2.39s-1.59-1.4-1.59-2.39c0-1.14.38-2.39 1.59-2.39s1.6 1.25 1.6 2.39m4.41-1.95c.27 0 1.16.06 1.24.06.24 0 .31-.14.31-.29s0-.24-.12-.24h-1.44v-1.5c0-.72.12-1.68.78-1.68a1.08 1.08 0 0 1 .51.27 1 1 0 0 0 .64.27.52.52 0 0 0 .54-.57c0-.38-.43-.5-.73-.5a3.45 3.45 0 0 0-.71.09c-1.37.36-1.89 1.33-2 3.1 0 .52-.15.55-.6.65-.28.06-.36.11-.36.2s.06.15.14.15h.64c.22 0 .22.23.22.37v3.24c0 .5-.09.59-.59.59-.22 0-.24 0-.24.15s0 .15.1.15h2.55c.13 0 .18 0 .18-.16s0-.14-.48-.14c-.58 0-.58-.25-.58-.68zm6.82-3.45c.24 0 .87.61 1 .81a2.74 2.74 0 0 1 0 .5c0 3.37-.13 5.56-.14 5.78 0 .45-.51.51-.79.51s-.52 0-.52.13 0 .22.12.22h3.09s.12 0 .12-.17 0-.17-.59-.17-.91-.19-.91-.57v-5.95c5.36 5.77 6.34 7 6.44 7s.17 0 .17-.16c0-1.1.14-6.56.21-7 .15-.85.35-1 1.29-1 .06 0 .1 0 .1-.2s0-.15-.09-.15h-3.2c-.09 0-.13.07-.13.19s0 .16.15.16c1 0 1.45.07 1.45 1.85 0 1.14-.06 3.19-.12 4.27-2.6-2.67-4.43-4.86-5.79-6.4 0 0-.06-.07-.09-.07h-2.1c-.09 0-.13 0-.13.16s0 .19.1.19zm11.47 4.45c.12-.79.47-1.48 1.3-1.48a1 1 0 0 1 1 1.1c0 .31-.16.38-.39.38zm3.24.35c.09 0 .14 0 .14-.13a1.94 1.94 0 0 0-2.08-2 2.57 2.57 0 0 0-2.32 2.78 2.36 2.36 0 0 0 2.53 2.65 2.12 2.12 0 0 0 2-1.47.25.25 0 0 0-.19-.14c-.06 0-.1.11-.17.2a1.52 1.52 0 0 1-1.36.7 2 2 0 0 1-1.9-1.91 4.12 4.12 0 0 1 0-.66zm5.29.07c.36 1 .65 2.06 1 3.06 0 .08.07.16.17.16a.18.18 0 0 0 .14-.08c.12-.14 1.36-3.37 1.63-4s.37-.81.94-.81a.16.16 0 0 0 .17-.16c0-.06 0-.14-.1-.14h-1.76s-.15 0-.15.14a.15.15 0 0 0 .15.16c.32.07.5.12.5.29a27.82 27.82 0 0 1-1.16 3.16c-.1-.5-1-3-1-3.27 0 0 0-.17.52-.17.13 0 .14-.09.14-.16s0-.14-.1-.14h-2.02s-.15 0-.15.14 0 .16.26.16.27 0 .3.09a4.2 4.2 0 0 1 .35 1.12c0 .17-1 2-1.06 2.24-.09-.38-1.16-3-1.16-3.18s.52-.27.62-.27.12-.08.12-.14 0-.16-.09-.16h-2.36c-.09 0-.13 0-.13.09v.12c0 .12.07.12.15.12a.64.64 0 0 1 .64.29c.08.13.29.73 1.32 3.41.4 1 .43 1.19.57 1.19s.25-.38.74-1.4zm9.69-.35c.06.09.1.22.1.74v1.83c0 .31-.08.51-1 .51-.33 0-.33.07-.33.2s0 .15.09.15h3.68s.09 0 .09-.15 0-.2-.33-.2c-.91 0-1-.2-1-.51v-1.83a1.66 1.66 0 0 1 .27-1.15l1.83-3.33a1.13 1.13 0 0 1 1.14-.78c.38 0 .43 0 .43-.19s0-.16-.15-.16h-2.68a.14.14 0 0 0-.15.16c0 .15 0 .19.51.19s.52.19.52.41-.11.51-1.37 2.81c-.29.55-.41.79-.49.79s-.1-.1-.29-.45a17.66 17.66 0 0 1-1.58-3.19c0-.28.22-.36.64-.36s.29 0 .29-.17 0-.17-.23-.17h-3.04c-.12 0-.2 0-.2.16s0 .19.34.19.59 0 .79.41zm9.37.88a2.7 2.7 0 1 0-2.7 2.69 2.54 2.54 0 0 0 2.7-2.69m-1.1 0c0 1-.23 2.39-1.6 2.39s-1.59-1.4-1.59-2.39c0-1.14.38-2.39 1.59-2.39s1.6 1.25 1.6 2.39m3.11 1.66c0 .5-.09.59-.59.59-.22 0-.36 0-.36.15s0 .15.1.15h2.67c.13 0 .17 0 .17-.16s0-.14-.48-.14c-.58 0-.58-.26-.58-.68v-2.64a.49.49 0 0 1 .08-.34 1.29 1.29 0 0 1 .8-.5c.35 0 .42.44.89.44a.57.57 0 0 0 .57-.58.66.66 0 0 0-.74-.65 2.6 2.6 0 0 0-1.63 1c0-.63.06-.92.06-1.06v-.12a5.17 5.17 0 0 1-1.62.57c-.06 0-.09.07-.09.16s0 .13.1.14c.58.06.68.29.68.7zm5.86-6.09a10.81 10.81 0 0 1 .06-1.67c0-.07 0-.13-.07-.13a9.18 9.18 0 0 1-1.61.5c-.06 0-.09.07-.09.16a.12.12 0 0 0 .1.14c.64.06.67.2.67 1.21v4.06a8.73 8.73 0 0 1-.09 2.25c-.1.14-.71.16-.76.16s-.06 0-.06.17 0 .13.09.13h2.48s.13-.08.13-.15 0-.15-.06-.15c-.75 0-.82-.2-.82-.52v-1.52a.45.45 0 0 1 .38.15c1.27 1.5 1.46 1.65 1.46 1.76s-.35.13-.39.13-.13.06-.13.14 0 .16.1.16h2.5a.11.11 0 0 0 .13-.12c0-.15 0-.19-.16-.19a1.16 1.16 0 0 1-1.2-.56c-1.6-1.82-1.68-1.92-1.68-2s.12-.2 1.51-1.42c.49-.43.76-.49.85-.49.35 0 .37 0 .37-.19s-.06-.12-.11-.12h-2.25c-.06 0-.12 0-.12.15s0 .15.14.15c.36 0 .6 0 .6.31a.59.59 0 0 1-.22.4c-1 1-1.46 1.39-1.8 1.39zM190.34 119a14.65 14.65 0 0 1-1.15-3.64c0-.25.5-.25.57-.25s.12-.09.12-.15 0-.15-.14-.15h-2.44a.13.13 0 0 0-.13.14c0 .08 0 .16.1.16s.73 0 .83.27c.24.65.47 1.66 1.2 3.54a5.58 5.58 0 0 1 .4 1.3c0 .54-.54 1.66-.75 1.66s-.29-.2-.58-.2a.66.66 0 1 0 0 1.31c.38 0 .77-.15 1.66-2.39.25-.65 1.86-4 2.27-5a.7.7 0 0 1 .73-.51c.16 0 .2 0 .2-.15s0-.15-.08-.15h-2.21c-.06 0-.1.07-.1.15s0 .15.12.15c.35 0 .89 0 .89.39a23.59 23.59 0 0 1-1.5 3.51" class="cls-3 cls-4"/></g></g></svg>