<svg id="Layer_1" data-name="Layer 1" xmlns="http://www.w3.org/2000/svg" viewBox="0 0 142.37 144.48"><defs><style>.cls-1{fill:#ffd200;}.cls-2{fill:#fff;}</style></defs><rect width="142.37" height="144.48"/><path d="M112.27,103.19,105.4,85.62c-6.46-16.49-12-30.59-15.27-39H94V18H46.4V46.6h3.82L36.33,82.08c-3.42,8.77-6.51,16.65-8.25,21.11h-8v28.44H63.51V103.19H59.4c.13-.46.28-.94.43-1.45l.27-.89H80.25c.09.29.18.59.26.89.16.51.3,1,.44,1.45H76.78v28.44h43.48V103.19ZM71.42,72H68.8l1.31-3.38Z" transform="translate(-1 -1)"/><path class="cls-1" d="M111.28,104.63c-1.45-3.7-4.14-10.57-7.24-18.51l-16-41h4.51V19.48H47.84V45.16h4.49L37.77,82.38c-3.69,9.44-7,18-8.71,22.25H21.52v25.55H62.07V104.63H57.45c.29-.95.62-2,1-3.31.19-.63.39-1.29.57-1.92h22.3l.58,1.92c.38,1.27.71,2.36,1,3.31H78.22v25.55h40.6V104.63ZM73.54,73.44H66.69l3.42-8.81Z" transform="translate(-1 -1)"/><path d="M109.11,107.81c-1.06-2.7-4.33-11.06-8-20.48L83.35,42h6V22.67H51V42h6L40.72,83.56c-4.41,11.28-8.31,21.25-9.49,24.25H24.7V127H58.89V107.81H53.17c.47-1.52,1.19-3.92,2.23-7.4.48-1.59,1-3.21,1.26-4.19h27c.3,1,.78,2.61,1.25,4.19,1,3.48,1.77,5.88,2.23,7.4H81.4V127h34.24V107.81Zm-39-52,8.07,20.77H62Z" transform="translate(-1 -1)"/><path class="cls-2" d="M59.93,78.06H80.29L70.11,51.86Zm54.26,47.5H82.84v-16.3h6.3c-.28-.72-4.26-14.15-4.39-14.48H55.59c-.13.33-4.1,13.76-4.39,14.48h6.24v16.3H26.15v-16.3h6.07c.14-.36,26.58-68,26.89-68.73H52.47V24.11H87.89V40.53H81.24l26.88,68.73h6.07Z" transform="translate(-1 -1)"/><path d="M76.19,82.24a.71.71,0,1,1,.71.76A.74.74,0,0,1,76.19,82.24Zm18.62,3.81c0,.57,0,2.53,0,3.45s-.21,1.92-1,1.92a2.46,2.46,0,0,1-1.42-.61s-1.17.36-1.74-.1-.71-1.14-.53-2.35l.17-1.2L90,87.05s-.5,3.09-2,3.94c-.37.21-1.61.44-2.22-1.22a4.57,4.57,0,0,1-.76.9,1.52,1.52,0,0,1-2.19-.62c-.94,1-1.85.55-2.13-.18a7.17,7.17,0,0,1-.18-2.62c0-.71-.74-.26-.76.12s-.1,1.34-.24,2.6c-.1.85-.28,1.11-.64.9a1.06,1.06,0,0,1-.47-.76,1.57,1.57,0,0,1-1.16.51,1,1,0,0,1-.81-.67,2,2,0,0,1-1.86.09s-1.08,1.15-1.72.46a2.48,2.48,0,0,1-.43-.91,2.64,2.64,0,0,1-1,1.12c-.66.35-1.16,0-1.56-1a3.42,3.42,0,0,1-.16-.71c-1,1.37-2.1,1.26-2.4.48a7.24,7.24,0,0,1-.18-2.63c0-.71-.74-.26-.76.12s-.1,1.35-.24,2.6c-.1.85-.28,1.12-.64.9a1.09,1.09,0,0,1-.47-.78,2.59,2.59,0,0,1-1.49.85c-.42,0-.71-.31-.89-.77-.31.33-.77.75-1.12.74-.79,0-1.09-1-1.09-1.54V87.4a1.58,1.58,0,0,1-.55.47A1.54,1.54,0,0,1,59,88v.93c0,1.42-.58,2-1.56,1.53a1.9,1.9,0,0,1-1-1.19c-.12.45-.44,1.41-1.16,1.41-.93,0-1.34-1.18-1.34-2.6V84.58c0-.46-.24-.9-.66-.27a2.26,2.26,0,0,0-.49,1.42v3.53a1,1,0,0,1-1,1.07c-.63,0-.77-.35-.77-1.42V85.13c0-.49-.3-1.31-.68-.44a5.7,5.7,0,0,0-.58,2.25v2.43c0,.42,0,1-.68,1s-1-.31-1-1.57V85.24c0-1.29.17-1.95,0-2s-.61.13-2.14,1.61l-.55-.6s2.19-1.86,3-2.49,2-.55,2.16.57c0,0,.63-.86,1.23-.93.93-.11,1,1.75,1,1.75L54,81.57c.71-.93,1.56-.68,1.56.57s-.19,4.69-.25,5.78.51,1.67,1,.82a3,3,0,0,1,0-.46V85.62c0-2.16,1.41-2.28,1.92-2,.68.35.79,1.12.79,2,0,1.21.42,1.41.74,1.18a3.69,3.69,0,0,0,.63-.61V84.45c0-.74.57-.74.82-.5s.19.55.19,1v3.29c0,1.12.36,1.26.63,1.12a1.28,1.28,0,0,0,.4-.54,30.16,30.16,0,0,1,.2-4.2c.17-.68.55-.8.82-.6s.22.68.19,1.1-.16,1.18-.27,2.52.07,1.92.58,1.83c.3-.05.74-.68.93-1,0-1.09.17-2.61.27-3.55.11-1.21.6-1.19.92-1s.28.94.28.94a6.94,6.94,0,0,1,1.16-1.11c.55-.35.71,0,.69.64s-.07,2.23-.07,3.32.26,1.21.68.9a3.69,3.69,0,0,0,.81-1.19c0-.9.09-1.86.11-2.54-.39,0-.76,0-1,0-.52,0-.35-.4,0-.42s.62-.14,1-.18c0-1.19.16-2.26.16-3s.48-.66.78-.52.36.4.26,1.14c0,.33-.12,1.28-.21,2.38a2,2,0,0,1,.78.1c.57.17,0,.47-.45.47H70.7c-.08,1.19-.15,2.46-.15,3.29,0,1.75.64,1.73,1,1.34a2.42,2.42,0,0,0,.49-1l.2.4a9,9,0,0,1,.09-2.78c.4-2.41,1.4-2.38,1.71-2.27a1.89,1.89,0,0,1,.76.72,1.5,1.5,0,0,0,.55.41c.19.09.1.27,0,.73s-.18,1.52-.26,2.35.19,1.24.48,1.21a1.51,1.51,0,0,0,.56-.26c-.08-.74-.06-2.07-.06-3.17s.34-1.57.84-1.48c.31,0,.41.53.33,1.06a25,25,0,0,0-.18,2.85c0,1.39.47,1.47.71,1.29a2.57,2.57,0,0,0,.46-.48v0c0-1.09.17-2.77.26-3.78.12-1.21.61-1.19.93-1s.28,1,.28,1a6.83,6.83,0,0,1,1.16-1.12c.55-.35.71,0,.69.64s-.07,2.23-.07,3.31.22,1.58.65,1.27a1.82,1.82,0,0,0,.27-.28,7.47,7.47,0,0,1-.17-1.73c0-2.52,1.12-4.22,2.33-3.66s1.37,3.53-1.06,5.11c.11.78.34,1.29.71,1.35.53.07.94-.47,1.31-1.12a8.71,8.71,0,0,1-.15-1.68c0-2.52,1.14-4.22,2.35-3.66S89,87.2,86.67,88.83c.11.78.33,1.35.71,1.35s1.26-.64,1.75-2.46a13.31,13.31,0,0,0,.57-3.12c0-.29.21-.32.53-.07a1.84,1.84,0,0,0,.93.42c.25,0,.42.22.28.89A30.11,30.11,0,0,0,91,89c0,.71.49,1.46,1.27.25s1.1-3.55,1.35-4.33.46-.78.68-.61,0,.4.21.54A1.63,1.63,0,0,1,94.81,86.05Zm-37,.23c-.26-.13-.66,0-.66.77v1.72c0,.41.71,1.61.8.19C58.1,87.16,58.07,86.39,57.85,86.28Zm16.34-1c-.55-.25-.78.21-1,1.77s.09,2.3.37,2.23.51-.53.5-1.11S74.19,85.33,74.19,85.33Zm9.25,2.55a5.11,5.11,0,0,0,1-1.8c.2-.84.15-1.53-.11-1.7s-.84.35-.93,2.38C83.43,87.16,83.43,87.54,83.44,87.88Zm3.16,0a5.11,5.11,0,0,0,1.05-1.8c.2-.84.15-1.53-.11-1.7s-.84.35-.93,2.38C86.59,87.16,86.59,87.54,86.6,87.88Zm6.94.48a11.64,11.64,0,0,1-.93,1.57s.36.85.89.53S93.93,89.11,93.54,88.36Z" transform="translate(-1 -1)"/><path class="cls-2" d="M124.29,130.1a1.59,1.59,0,0,1-1.61,1.59,1.59,1.59,0,1,1,0-3.17A1.58,1.58,0,0,1,124.29,130.1Zm-2.83,0a1.23,1.23,0,0,0,1.23,1.26,1.21,1.21,0,0,0,1.2-1.25,1.22,1.22,0,1,0-2.43,0Zm1,.82h-.37v-1.58a4.25,4.25,0,0,1,.61-.05.82.82,0,0,1,.54.13.39.39,0,0,1,.16.33.4.4,0,0,1-.33.38v0c.16,0,.23.17.28.38a1.47,1.47,0,0,0,.12.39h-.39a1.38,1.38,0,0,1-.12-.39c0-.16-.13-.24-.33-.24h-.17Zm0-.89h.17c.2,0,.37-.07.37-.23s-.11-.24-.34-.24l-.2,0Z" transform="translate(-1 -1)"/></svg>