<svg viewBox="0 0 147 32" xmlns="http://www.w3.org/2000/svg">
  <path fill="#505759" style="fill: var(--color1, #505759)" d="M24.993 19.469c0-3.081 1.963-5.638 4.793-5.638 1.233 0 2.305 0.434 3.013 1.301 0.228-0.183 0.388-0.388 0.479-0.845h0.32v3.698h-0.365c-0.502-2.305-1.598-3.401-3.31-3.401-2.579 0-3.355 2.67-3.355 4.862s0.776 4.862 3.355 4.862c1.712 0 2.807-1.118 3.31-3.401h0.365v3.698h-0.32c-0.091-0.434-0.251-0.685-0.479-0.845-0.708 0.845-1.78 1.301-3.013 1.301-2.83 0.046-4.793-2.511-4.793-5.592z"></path>
  <path fill="#505759" style="fill: var(--color1, #505759)" d="M36.086 22.961v-4.633c0-1.255-0.091-1.643-1.255-1.643v-0.365h6.026l0.114 2.054h-0.342l-0.091-0.365c-0.137-0.616-0.32-1.073-1.461-1.073h-1.689v3.081h0.593c1.278 0 1.461-0.137 1.461-1.301h0.365v3.195h-0.32c0-1.164-0.183-1.278-1.461-1.278h-0.593v2.123c0 1.255 0.091 1.438 1.164 1.438h1.004c1.141 0 1.301-0.502 1.461-1.096l0.091-0.365h0.342l-0.114 2.054h-6.528v-0.365c1.141 0.023 1.233-0.205 1.233-1.461z"></path>
  <path fill="#505759" style="fill: var(--color1, #505759)" d="M44.029 22.779c0 1.255 0.114 1.643 1.278 1.643v0.365h-3.218v-0.365c1.164 0 1.255-0.411 1.255-1.643v-4.451c0-1.255-0.091-1.643-1.255-1.643v-0.365h1.986l4.611 6.071v-4.063c0-1.255-0.068-1.643-1.255-1.643v-0.365h3.218v0.365c-1.187 0-1.278 0.388-1.278 1.643v6.619h-0.456l-4.862-6.459v4.291z"></path>
  <path fill="#505759" style="fill: var(--color1, #505759)" d="M53.843 22.779v-5.843h-1.164c-1.141 0-1.324 0.456-1.484 1.073l-0.091 0.365h-0.365l0.114-2.031h7.258l0.114 2.031h-0.365l-0.091-0.365c-0.16-0.593-0.342-1.073-1.484-1.073h-1.164v5.843c0 1.255 0.114 1.643 1.278 1.643v0.365h-3.88v-0.365c1.233 0.023 1.324-0.388 1.324-1.643z"></path>
  <path fill="#505759" style="fill: var(--color1, #505759)" d="M59.823 22.779v-4.451c0-1.255-0.091-1.643-1.255-1.643v-0.365h3.469c2.054 0 3.081 1.118 3.081 2.442 0 1.187-0.89 2.145-2.282 2.374l1.164 1.415c0.776 0.936 1.598 1.758 2.534 1.894v0.365h-2.328l-2.511-3.606h-0.525v1.598c0 1.255 0.091 1.643 1.278 1.643v0.365h-3.88v-0.365c1.164 0 1.255-0.411 1.255-1.666zM63.703 18.762c0-1.255-0.73-1.849-1.689-1.849h-0.844v3.698h0.844c0.959 0 1.689-0.548 1.689-1.849z"></path>
  <path fill="#505759" style="fill: var(--color1, #505759)" d="M68.656 24.445v0.365h-3.173v-0.365c1.073 0 1.233-0.365 1.598-1.301l2.762-6.916h0.434l2.762 6.916c0.365 0.913 0.525 1.301 1.598 1.301v0.365h-3.994v-0.365c1.141 0 1.324-0.411 1.050-1.050l-0.593-1.506h-2.853l-0.593 1.506c-0.274 0.662-0.114 1.050 1.004 1.050zM68.474 21.318h2.397l-1.164-3.058-1.233 3.058z"></path>
  <path fill="#505759" style="fill: var(--color1, #505759)" d="M75.595 22.779v-4.451c0-1.255-0.091-1.643-1.255-1.643v-0.365h3.88v0.365c-1.187 0-1.278 0.388-1.278 1.643v4.36c0 1.255 0.091 1.484 1.164 1.484h1.096c1.141 0 1.278-0.479 1.415-1.073l0.091-0.365h0.342l-0.114 2.054h-6.573v-0.365c1.141 0.023 1.233-0.388 1.233-1.643z"></path>
  <path fill="#505759" style="fill: var(--color1, #505759)" d="M83.104 24.422c1.484 0 1.598-0.297 1.598-2.077v-5.775c0-1.78-0.114-2.054-1.598-2.054v-0.365h4.2c2.465 0 3.698 1.347 3.698 3.013 0 1.643-1.233 3.013-3.698 3.013h-1.187v2.214c0 1.78 0.114 2.077 1.598 2.077v0.365h-4.611v-0.411zM87.258 19.492c1.552 0 2.237-1.073 2.237-2.374 0-1.278-0.685-2.374-2.237-2.374h-1.164v4.725h1.164z"></path>
  <path fill="#505759" style="fill: var(--color1, #505759)" d="M92.736 22.779v-4.451c0-1.255-0.091-1.643-1.255-1.643v-0.365h3.88v0.365c-1.187 0-1.278 0.388-1.278 1.643v4.451c0 1.255 0.091 1.643 1.278 1.643v0.365h-3.88v-0.365c1.164 0.023 1.255-0.388 1.255-1.643z"></path>
  <path fill="#505759" style="fill: var(--color1, #505759)" d="M97.369 22.961v-4.633c0-1.255-0.091-1.643-1.255-1.643v-0.365h6.049l0.114 2.054h-0.342l-0.091-0.365c-0.137-0.616-0.32-1.073-1.461-1.073h-1.689v3.081h0.593c1.278 0 1.461-0.137 1.461-1.301h0.365v3.195h-0.365c0-1.164-0.183-1.278-1.461-1.278h-0.593v2.123c0 1.255 0.091 1.438 1.164 1.438h1.004c1.141 0 1.301-0.502 1.461-1.096l0.091-0.365h0.342l-0.114 2.054h-6.528v-0.365c1.164 0.023 1.255-0.205 1.255-1.461z"></path>
  <path fill="#505759" style="fill: var(--color1, #505759)" d="M104.65 22.779v-4.451c0-1.255-0.091-1.643-1.255-1.643v-0.365h3.812c2.807 0 4.131 1.894 4.131 4.223s-1.324 4.223-4.131 4.223h-3.812v-0.365c1.164 0.046 1.255-0.365 1.255-1.621zM109.855 20.565c0-1.552-0.525-3.629-2.625-3.629-0.114 0-0.936 0-1.233 0v5.775c0 1.255 0.114 1.484 1.141 1.484h0.114c2.054 0 2.602-2.077 2.602-3.629z"></path>
  <path fill="#505759" style="fill: var(--color1, #505759)" d="M119.669 16.342h2.465v0.365c-1.187 0-1.278 0.388-1.278 1.643v4.451c0 1.255 0.091 1.643 1.278 1.643v0.365h-3.835v-0.365c1.164 0 1.255-0.411 1.255-1.643v-4.725l-2.807 6.825h-0.342l-2.807-6.825v4.702c0 1.255 0.114 1.643 1.278 1.643v0.365h-3.195v-0.365c1.164 0 1.255-0.411 1.255-1.643v-4.451c0-1.255-0.091-1.643-1.255-1.643v-0.365h2.648l2.693 6.459 2.648-6.437z"></path>
  <path fill="#505759" style="fill: var(--color1, #505759)" d="M126.448 16.046c2.282 0 4.040 2.054 4.040 4.519 0 2.442-1.735 4.519-4.040 4.519s-4.017-2.054-4.017-4.519c0-2.442 1.712-4.519 4.017-4.519zM126.448 16.708c-1.917 0-2.534 2.054-2.534 3.857s0.616 3.857 2.534 3.857c1.894 0 2.534-2.054 2.534-3.857s-0.662-3.857-2.534-3.857z"></path>
  <path fill="#505759" style="fill: var(--color1, #505759)" d="M132.725 22.779c0 1.255 0.114 1.643 1.278 1.643v0.365h-3.218v-0.365c1.164 0 1.255-0.411 1.255-1.643v-4.451c0-1.255-0.091-1.643-1.255-1.643v-0.365h1.986l4.611 6.071v-4.063c0-1.255-0.068-1.643-1.255-1.643v-0.365h3.218v0.365c-1.187 0-1.278 0.388-1.278 1.643v6.619h-0.457l-4.862-6.459v4.291z"></path>
  <path fill="#505759" style="fill: var(--color1, #505759)" d="M142.539 22.779v-5.843h-1.164c-1.141 0-1.324 0.456-1.484 1.073l-0.091 0.365h-0.342l0.114-2.031h7.258l0.114 2.031h-0.365l-0.091-0.365c-0.16-0.593-0.342-1.073-1.484-1.073h-1.164v5.843c0 1.255 0.114 1.643 1.278 1.643v0.365h-3.88v-0.365c1.21 0.023 1.301-0.388 1.301-1.643z"></path>
  <path fill="#b3a369" style="fill: var(--color2, #b3a369)" d="M15.954 24.924l1.392-1.392v-4.382l-1.392 0.73z"></path>
  <path fill="#b3a369" style="fill: var(--color2, #b3a369)" d="M19.241 21.615l1.438-1.415v-10.408l0.89 0.479v1.621l3.218-1.712-5.546-2.944z"></path>
  <path fill="#b3a369" style="fill: var(--color2, #b3a369)" d="M17.347 9.244v-3.013l-4.953-2.648-4.953 2.648v7.372l4.953 2.648 2.009-1.073v-1.575l-2.009 1.050-3.561-1.872v-5.706l3.561-1.894 3.561 1.872v1.506z"></path>
  <path fill="#b3a369" style="fill: var(--color2, #b3a369)" d="M17.347 11.96l-4.953-2.625-2.031 1.096v1.552l2.031-1.073 3.561 1.872v3.835l-3.561 1.894-4.953-2.648v7.669l1.392 1.392v-6.733l3.561 1.894 4.953-2.625z"></path>
  <path fill="#b3a369" style="fill: var(--color2, #b3a369)" d="M12.394 0v0 0l-12.394 6.596v1.575l12.394-6.596 12.394 6.596v-1.575z"></path>
  <path fill="#b3a369" style="fill: var(--color2, #b3a369)" d="M3.218 11.892v-1.621l0.913-0.479v10.408l1.415 1.415v-14.379l-5.546 2.944z"></path>
  <path fill="#505759" style="fill: var(--color1, #505759)" d="M52.291 31.886c-0.023-0.137-0.068-0.228-0.137-0.274-0.251 0.274-0.548 0.388-0.913 0.388-0.867 0-1.484-0.776-1.484-1.712s0.616-1.712 1.484-1.712c0.388 0 0.685 0.114 0.913 0.388 0.068-0.046 0.114-0.137 0.137-0.274h0.137v1.187h-0.16c-0.137-0.708-0.479-0.981-0.936-0.981-0.708 0-0.913 0.73-0.913 1.392s0.205 1.392 0.913 1.392c0.434 0 0.776-0.297 0.936-0.981h0.16v1.187h-0.137z"></path>
  <path fill="#505759" style="fill: var(--color1, #505759)" d="M55.623 32c-0.936 0-1.575-0.776-1.575-1.712s0.639-1.712 1.575-1.712c0.936 0 1.575 0.776 1.575 1.712s-0.639 1.712-1.575 1.712zM55.623 28.873c-0.662 0-0.867 0.708-0.867 1.415s0.205 1.415 0.867 1.415c0.662 0 0.867-0.708 0.867-1.415s-0.205-1.415-0.867-1.415z"></path>
  <path fill="#505759" style="fill: var(--color1, #505759)" d="M61.124 31.909v-0.16c0.434 0 0.479-0.091 0.479-0.639v-1.735l-1.004 2.556h-0.251l-1.004-2.556v1.758c0 0.548 0.068 0.639 0.479 0.639v0.16h-1.278v-0.16c0.434 0 0.479-0.091 0.479-0.639v-1.689c0-0.548-0.046-0.616-0.479-0.616v-0.16h1.164l0.936 2.397 0.959-2.397h1.096v0.16c-0.434 0-0.479 0.091-0.479 0.616v1.666c0 0.548 0.046 0.639 0.479 0.639v0.16h-1.575z"></path>
  <path fill="#505759" style="fill: var(--color1, #505759)" d="M66.648 31.909v-0.16c0.434 0 0.479-0.091 0.479-0.639v-1.735l-1.004 2.556h-0.251l-1.004-2.556v1.758c0 0.548 0.068 0.639 0.479 0.639v0.16h-1.278v-0.16c0.434 0 0.479-0.091 0.479-0.639v-1.689c0-0.548-0.046-0.616-0.479-0.616v-0.16h1.164l0.936 2.397 0.959-2.397h1.096v0.16c-0.434 0-0.479 0.091-0.479 0.616v1.666c0 0.548 0.046 0.639 0.479 0.639v0.16h-1.575z"></path>
  <path fill="#505759" style="fill: var(--color1, #505759)" d="M72.468 29.444v1.255c0 0.845-0.502 1.301-1.187 1.301s-1.233-0.456-1.233-1.301v-1.255c0-0.548-0.068-0.616-0.479-0.616v-0.16h1.621v0.16c-0.434 0-0.479 0.091-0.479 0.616v1.255c0 0.662 0.274 0.959 0.73 0.959s0.73-0.32 0.73-0.959v-1.255c0-0.548-0.068-0.616-0.479-0.616v-0.16h1.301v0.16c-0.457 0-0.525 0.068-0.525 0.616z"></path>
  <path fill="#505759" style="fill: var(--color1, #505759)" d="M77.124 29.444v2.488h-0.297l-1.78-2.488v1.666c0 0.548 0.068 0.639 0.479 0.639v0.16h-1.278v-0.16c0.434 0 0.479-0.091 0.479-0.639v-1.666c0-0.548-0.046-0.616-0.479-0.616v-0.16h1.004l1.552 2.191v-1.415c0-0.548-0.046-0.616-0.479-0.616v-0.16h1.255v0.16c-0.411 0-0.457 0.068-0.457 0.616z"></path>
  <path fill="#505759" style="fill: var(--color1, #505759)" d="M78.927 31.909v-0.16c0.434 0 0.479-0.091 0.479-0.639v-1.666c0-0.548-0.046-0.616-0.479-0.616v-0.16h1.621v0.16c-0.434 0-0.479 0.091-0.479 0.616v1.666c0 0.548 0.068 0.639 0.479 0.639v0.16h-1.621z"></path>
  <path fill="#505759" style="fill: var(--color1, #505759)" d="M84.542 29.444l-0.023-0.114c-0.068-0.274-0.137-0.411-0.616-0.411h-0.365v2.168c0 0.548 0.068 0.639 0.479 0.639v0.16h-1.621v-0.16c0.434 0 0.479-0.091 0.479-0.639v-2.168h-0.342c-0.479 0-0.548 0.137-0.616 0.411l-0.023 0.114h-0.16l0.046-0.776h2.853l0.046 0.776h-0.137z"></path>
  <path fill="#505759" style="fill: var(--color1, #505759)" d="M88.354 29.284l-0.73 1.233v0.593c0 0.548 0.068 0.639 0.479 0.639v0.16h-1.598v-0.16c0.434 0 0.479-0.091 0.479-0.639v-0.571l-0.708-1.255c-0.228-0.388-0.365-0.479-0.73-0.479v-0.16h1.712v0.16c-0.388 0-0.434 0.114-0.274 0.411l0.548 0.959 0.548-0.959c0.183-0.297 0.16-0.411-0.274-0.411v-0.16h1.278v0.16c-0.434 0.023-0.525 0.137-0.73 0.479z"></path>
  <path fill="#505759" style="fill: var(--color1, #505759)" d="M94.904 31.886c-0.023-0.137-0.068-0.228-0.137-0.274-0.251 0.274-0.548 0.388-0.913 0.388-0.867 0-1.484-0.776-1.484-1.712s0.616-1.712 1.484-1.712c0.388 0 0.685 0.114 0.913 0.388 0.068-0.046 0.114-0.137 0.137-0.274h0.137v1.187h-0.16c-0.137-0.708-0.479-0.981-0.936-0.981-0.708 0-0.913 0.73-0.913 1.392s0.205 1.392 0.913 1.392c0.434 0 0.776-0.297 0.936-0.981h0.16v1.187h-0.137z"></path>
  <path fill="#505759" style="fill: var(--color1, #505759)" d="M98.237 32c-0.936 0-1.575-0.776-1.575-1.712s0.639-1.712 1.575-1.712c0.936 0 1.575 0.776 1.575 1.712s-0.639 1.712-1.575 1.712zM98.237 28.873c-0.662 0-0.867 0.708-0.867 1.415s0.205 1.415 0.867 1.415c0.662 0 0.867-0.708 0.867-1.415s-0.205-1.415-0.867-1.415z"></path>
  <path fill="#505759" style="fill: var(--color1, #505759)" d="M103.806 31.909h-2.625v-0.16c0.434 0 0.479-0.091 0.479-0.639v-1.666c0-0.548-0.046-0.616-0.479-0.616v-0.16h1.621v0.16c-0.434 0-0.479 0.091-0.479 0.616v1.552c0 0.548 0.046 0.639 0.502 0.639h0.251c0.479 0 0.548-0.137 0.616-0.411l0.023-0.114h0.137l-0.046 0.799z"></path>
  <path fill="#505759" style="fill: var(--color1, #505759)" d="M107.8 31.909h-2.625v-0.16c0.434 0 0.479-0.091 0.479-0.639v-1.666c0-0.548-0.046-0.616-0.479-0.616v-0.16h1.621v0.16c-0.434 0-0.479 0.091-0.479 0.616v1.552c0 0.548 0.046 0.639 0.502 0.639h0.251c0.479 0 0.548-0.137 0.616-0.411l0.023-0.114h0.137l-0.046 0.799z"></path>
  <path fill="#505759" style="fill: var(--color1, #505759)" d="M111.749 31.909h-2.602v-0.16c0.434 0 0.479-0.091 0.479-0.639v-1.666c0-0.548-0.046-0.616-0.479-0.616v-0.16h2.419l0.046 0.776h-0.16l-0.023-0.114c-0.068-0.274-0.137-0.411-0.616-0.411h-0.548v1.118h0.16c0.479 0 0.571-0.046 0.571-0.502h0.16v1.278h-0.16c0-0.456-0.068-0.502-0.571-0.502h-0.16v0.685c0 0.548 0.046 0.616 0.502 0.616h0.228c0.479 0 0.548-0.137 0.616-0.411l0.023-0.114h0.16l-0.046 0.822z"></path>
  <path fill="#505759" style="fill: var(--color1, #505759)" d="M115.926 31.315v0.388c-0.571 0-0.708 0.274-1.233 0.274-0.959 0-1.529-0.776-1.529-1.712s0.616-1.712 1.484-1.712c0.388 0 0.685 0.137 0.913 0.388 0.068-0.046 0.114-0.137 0.137-0.274h0.137v1.187h-0.114c-0.137-0.708-0.502-0.981-0.936-0.981-0.708 0-0.913 0.73-0.913 1.392s0.16 1.415 0.867 1.415c0.411 0 0.616-0.274 0.616-0.662 0-0.228-0.091-0.342-0.411-0.342v-0.16h1.347v0.16c-0.297 0.023-0.365 0.114-0.365 0.639z"></path>
  <path fill="#505759" style="fill: var(--color1, #505759)" d="M120.194 31.909h-2.602v-0.16c0.434 0 0.479-0.091 0.479-0.639v-1.666c0-0.548-0.046-0.616-0.479-0.616v-0.16h2.419l0.046 0.776h-0.16l-0.023-0.114c-0.068-0.274-0.137-0.411-0.616-0.411h-0.548v1.118h0.16c0.479 0 0.571-0.046 0.571-0.502h0.16v1.278h-0.16c0-0.456-0.068-0.502-0.571-0.502h-0.16v0.685c0 0.548 0.046 0.616 0.502 0.616h0.228c0.479 0 0.548-0.137 0.616-0.411l0.023-0.114h0.16l-0.046 0.822z"></path>
</svg>
