<svg id="Layer_1" xmlns="http://www.w3.org/2000/svg" viewBox="0 0 729.9 111.6"><style>.st2{fill:#fff}.st3{fill:#e87722}.st5{fill:#00843d}</style><pattern x="-56" y="-226.3" width="69" height="69" patternUnits="userSpaceOnUse" id="Unnamed_Pattern" viewBox="2.1 -70.9 69 69" overflow="visible"><path fill="none" d="M2.1-70.9h69v69h-69z"/><path fill="#f7bc60" d="M2.1-70.9h69v69h-69z"/><path class="st2" d="M61.8-71.7v.2l-.2.2-.1.3c-.2 0 0 .3 0 .4v.5l.4.6c.2.1.4.5.7.6l.5-.2h.6c.2 0 0-.4.3-.5h.4c.2 0 .3-.3.3-.5v-.2l.2-.3-.1-.2v-.3-.6c-.5-.7-1.3-.9-2-.8-.2 0-.3.2-.5.3-.2 0-.1.1-.3.2l-.2.2v.2M54.1-71.7v.2l-.2.2v.3c-.2 0 0 .3 0 .4l-.1.1v.4l.5.6c.2.1.3.5.6.6l.5-.2h.6c.2 0 .1-.4.3-.5h.4c.2 0 .3-.3.4-.5v-.2l.1-.3v-.2-.3l-.1-.6c-.4-.7-1.3-.9-2-.8-.2 0-.3.2-.5.3l-.3.2-.2.2v.2M46.4-71.7v.2l-.2.2v.3c-.2 0 0 .3 0 .4v.1c-.1.2 0 .3 0 .4 0 .2.2.4.4.6l.6.6.6-.2h.5c.3 0 .2-.4.3-.5h.4c.2 0 .4-.3.4-.5v-.2c0-.1.2-.2.1-.3v-.2-.3l-.1-.6c-.4-.7-1.2-.9-2-.8-.2 0-.3.2-.4.3-.2 0-.2.1-.3.2l-.3.2v.2M38.8-71.7v.2l-.2.2-.1.3c-.2 0 0 .3 0 .4v.5l.4.6c.2.1.4.5.7.6l.5-.2h.6c.2 0 0-.4.3-.5h.4c.2 0 .3-.3.3-.5v-.2l.2-.3-.1-.2v-.3-.6c-.5-.7-1.3-.9-2-.8-.2 0-.3.2-.5.3-.2 0-.1.1-.3.2l-.2.2v.2M31.1-71.7v.2l-.2.2v.3c-.2 0 0 .3 0 .4l-.1.1v.4l.5.6c.2.1.3.5.6.6l.5-.2h.6c.2 0 .1-.4.3-.5h.4c.2 0 .3-.3.4-.5v-.2l.1-.3v-.2-.3l-.1-.6c-.4-.7-1.3-.9-2-.8-.2 0-.3.2-.5.3l-.3.2-.2.2v.2M23.4-71.7v.2l-.2.2v.3c-.2 0 0 .3 0 .4v.1c-.1.2 0 .3 0 .4 0 .2.2.4.4.6l.6.6.6-.2h.5c.3 0 .2-.4.3-.5h.4c.2 0 .4-.3.4-.5v-.2c0-.1.2-.2.1-.3v-.2-.3l-.1-.6c-.4-.7-1.2-.9-2-.8-.2 0-.3.2-.4.3-.2 0-.2.1-.3.2l-.3.2v.2M15.8-71.7v.2l-.2.2-.1.3c-.2 0 0 .3 0 .4v.5l.4.6c.2.1.4.5.7.6l.5-.2h.6c.2 0 0-.4.3-.5h.4c.2 0 .3-.3.3-.5v-.2l.2-.3-.1-.2v-.3-.6c-.5-.7-1.3-.9-2-.8-.2 0-.3.2-.5.3-.2 0-.1.1-.3.2l-.2.2v.2M8.1-71.7v.2l-.2.2v.3c-.2 0 0 .3 0 .4l-.1.1v.4l.5.6c.2.1.3.5.6.6l.5-.2h.6c.2 0 .1-.4.3-.5h.4c.2 0 .3-.3.4-.5v-.2l.1-.3v-.2-.3l-.1-.6c-.4-.7-1.3-.9-2-.8-.2 0-.3.2-.5.3l-.3.2-.2.2v.2M.4-71.7v.2l-.2.2v.3c-.2 0 0 .3 0 .4v.1c-.1.2 0 .3 0 .4 0 .2.2.4.4.6l.6.6.6-.2h.5c.3 0 .2-.4.3-.5H3c.2 0 .4-.3.4-.5v-.2c0-.1.2-.2.1-.3v-.2-.3l-.1-.6c-.4-.7-1.2-.9-2-.8-.2 0-.3.2-.4.3-.2 0-.2.1-.3.2l-.3.2v.2"/><g><path class="st2" d="M69.4-71.7v.2l-.2.2v.3c-.2 0 0 .3 0 .4v.1c-.1.2 0 .3 0 .4 0 .2.2.4.4.6l.6.6.6-.2h.5c.3 0 .2-.4.3-.5h.4c.2 0 .4-.3.4-.5v-.2c0-.1.2-.2.1-.3v-.2-.3l-.1-.6c-.4-.7-1.2-.9-2-.8-.2 0-.3.2-.4.3-.2 0-.2.1-.3.2l-.3.2v.2"/></g><path class="st2" d="M.5-71.7v.2l-.2.2v.3c-.2 0 0 .3 0 .4l-.1.1v.4l.5.6c.2.1.3.5.6.6l.5-.2h.6c.2 0 .1-.4.3-.5H3c.2 0 .3-.3.4-.5v-.2-.3-.2-.3-.6c-.4-.7-1.3-.9-2-.8-.2 0-.3.2-.5.3l-.3.2-.2.2v.2"/><g><path class="st2" d="M69.4-64v.2l-.2.1v.4c-.2 0 0 .2 0 .3v.2c-.1.1 0 .3 0 .4 0 .2.2.4.4.5.2.2.4.6.6.6l.6-.1h.5c.3-.1.2-.4.3-.5h.4c.2-.1.4-.3.4-.5v-.2c0-.1.2-.2.1-.3v-.2-.4l-.1-.5c-.4-.7-1.2-1-2-.8l-.4.2-.3.2-.3.3v.1M61.8-64v.2l-.2.1s-.1.3 0 .4c-.3 0-.1.2-.1.3V-62.4l.5.5c.1.2.3.6.6.6l.5-.1h.6c.2-.1.1-.4.3-.5h.4c.2-.1.3-.3.3-.5v-.2l.2-.3v-.2c-.1-.1 0-.2 0-.4s0-.3-.2-.5c-.3-.7-1.2-1-2-.8l-.4.2c-.2.1-.1.2-.3.2l-.2.3v.1M54.1-64v.2l-.2.1v.4c-.2 0 0 .2 0 .3l-.1.2v.4l.5.5c.2.2.4.6.6.6l.5-.1h.6c.2-.1.1-.4.3-.5h.4l.4-.5v-.2l.1-.3v-.2-.4L57-64c-.4-.7-1.3-1-2-.8l-.4.2-.4.2-.2.3v.1M46.5-64v.2l-.2.1-.1.4c-.2 0 0 .2 0 .3V-62.4c0 .2.3.4.4.5.2.2.4.6.6.6l.6-.1h.6c.2-.1 0-.4.2-.5h.4c.2-.1.4-.3.4-.5v-.2l.2-.3-.1-.2v-.4-.5c-.5-.7-1.3-1-2-.8l-.5.2c-.2.1-.1.2-.3.2l-.2.3v.1M38.8-64v.2l-.2.1v.4c-.2 0 0 .2 0 .3l-.1.2v.4l.5.5c.2.2.3.6.6.6l.5-.1h.6c.2-.1.1-.4.3-.5h.4l.4-.5v-.2-.3-.2-.4-.5c-.4-.7-1.3-1-2-.8l-.5.2c-.1.1-.1.2-.3.2l-.2.3v.1M31.1-64v.2l-.2.1v.4c-.2 0 0 .2 0 .3v.2c-.1.1 0 .3 0 .4 0 .2.2.4.4.5.2.2.4.6.6.6l.6-.1h.5c.3-.1.2-.4.3-.5h.4c.2-.1.4-.3.4-.5v-.2c0-.1.2-.2.1-.3v-.2-.4L34-64c-.4-.7-1.2-1-2-.8l-.4.2-.3.2-.3.3v.1M23.5-64v.2l-.2.1s-.1.3 0 .4c-.3 0-.1.2-.1.3V-62.4l.5.5c.1.2.3.6.6.6l.5-.1h.6c.2-.1.1-.4.3-.5h.4c.2-.1.3-.3.3-.5v-.2l.2-.3v-.2c-.1-.1 0-.2 0-.4-.1-.2 0-.3-.2-.5-.4-.7-1.2-1-2-.8l-.4.2c-.2.1-.1.2-.3.2l-.2.3v.1M15.8-64v.2l-.2.1v.4c-.2 0 0 .2 0 .3l-.1.2v.4l.5.5c.2.2.4.6.6.6l.5-.1h.6c.2-.1.1-.4.3-.5h.4l.4-.5v-.2l.1-.3v-.2-.4l-.1-.5c-.4-.7-1.3-1-2-.8l-.4.2-.4.2-.2.3v.1M8.2-64v.2l-.2.1-.1.4c-.2 0 0 .2 0 .3V-62.4c0 .2.3.4.4.5.2.2.4.6.6.6l.6-.1h.6c.2-.1 0-.4.2-.5h.4c.2-.1.4-.3.4-.5v-.2l.2-.3-.1-.2v-.4-.5c-.5-.7-1.3-1-2-.8l-.5.2c-.2.1-.1.2-.3.2l-.2.3v.1M.5-64v.2l-.2.1s-.1.3 0 .4c-.2 0 0 .2 0 .3l-.1.2v.4l.5.5c.2.2.3.6.6.6l.5-.1h.6c.2-.1.1-.4.3-.5H3l.4-.5v-.2-.3-.2-.4-.5c-.4-.7-1.3-1-2-.8l-.5.2c-.1.1-.1.2-.3.2l-.2.3v.1"/><g><path class="st2" d="M69.4-56.3v.1l-.2.2v.3c-.2 0 0 .3 0 .4v.1c-.1.2 0 .3 0 .4 0 .2.2.4.4.6l.6.6.6-.2h.5c.3 0 .2-.3.3-.5h.4c.2 0 .4-.3.4-.5v-.2s.2-.2.1-.3v-.2-.3l-.1-.6c-.4-.6-1.2-.9-2-.7-.2 0-.3 0-.4.2-.2 0-.2.1-.3.2l-.3.2v.2M61.8-56.3v.1l-.2.2v.3c-.3 0-.1.3-.1.4v.5l.5.6c.1.1.3.5.6.6l.5-.2h.6c.2 0 .1-.3.3-.5h.4c.2 0 .3-.3.3-.5v-.2l.2-.3v-.5c0-.2 0-.4-.2-.6-.3-.6-1.2-.9-2-.7l-.4.2c-.2 0-.1.1-.3.2l-.2.2v.2M54.1-56.3v.1l-.2.2v.3c-.2 0 0 .3 0 .4l-.1.1v.4l.5.6.6.6.5-.2h.6c.2 0 .1-.3.3-.5h.4c.2 0 .3-.3.4-.5v-.2l.1-.3v-.2-.3l-.1-.6c-.4-.6-1.3-.9-2-.7-.2 0-.3 0-.4.2l-.4.2-.2.2v.2M46.5-56.3v.1l-.2.2-.1.3c-.2 0 0 .3 0 .4v.5c0 .2.3.4.4.6l.6.6.6-.2h.6c.2 0 0-.3.2-.5h.4c.2 0 .4-.3.4-.5v-.2l.2-.3-.1-.2v-.3-.6c-.5-.6-1.3-.9-2-.7-.2 0-.4 0-.5.2-.2 0-.1.1-.3.2l-.2.2v.2M38.8-56.3v.1l-.2.2v.3c-.2 0 0 .3 0 .4l-.1.1v.4l.5.6c.2.1.3.5.6.6l.5-.2h.6c.2 0 .1-.3.3-.5h.4c.2 0 .3-.3.4-.5v-.2-.3-.2-.3-.6c-.4-.6-1.3-.9-2-.7-.2 0-.3 0-.5.2l-.3.2-.2.2v.2M31.1-56.3v.1l-.2.2v.3c-.2 0 0 .3 0 .4v.1c-.1.2 0 .3 0 .4 0 .2.2.4.4.6l.6.6.6-.2h.5c.3 0 .2-.3.3-.5h.4c.2 0 .4-.3.4-.5v-.2s.2-.2.1-.3v-.2-.3l-.1-.6c-.4-.6-1.2-.9-2-.7-.2 0-.3 0-.4.2-.2 0-.2.1-.3.2l-.3.2v.2M23.5-56.3v.1l-.2.2v.3c-.3 0-.1.3-.1.4v.5l.5.6c.1.1.3.5.6.6l.5-.2h.6c.2 0 .1-.3.3-.5h.4c.2 0 .3-.3.3-.5v-.2l.2-.3v-.5c-.1-.2 0-.4-.2-.6-.4-.6-1.2-.9-2-.7l-.4.2c-.2 0-.1.1-.3.2l-.2.2v.2M15.8-56.3v.1l-.2.2v.3c-.2 0 0 .3 0 .4l-.1.1v.4l.5.6.6.6.5-.2h.6c.2 0 .1-.3.3-.5h.4c.2 0 .3-.3.4-.5v-.2l.1-.3v-.2-.3l-.1-.6c-.4-.6-1.3-.9-2-.7-.2 0-.3 0-.4.2l-.4.2-.2.2v.2M8.2-56.3v.1L8-56l-.1.3c-.2 0 0 .3 0 .4v.5c0 .2.3.4.4.6l.6.6.6-.2h.6c.2 0 0-.3.2-.5h.4c.2 0 .4-.3.4-.5v-.2l.2-.3-.1-.2v-.3-.6c-.5-.6-1.3-.9-2-.7-.2 0-.4 0-.5.2-.2 0-.1.1-.3.2l-.2.2v.2M.5-56.3v.1l-.2.2v.3c-.2 0 0 .3 0 .4l-.1.1v.4l.5.6c.2.1.3.5.6.6l.5-.2h.6c.2 0 .1-.3.3-.5H3c.2 0 .3-.3.4-.5v-.2-.3-.2-.3-.6c-.4-.6-1.3-.9-2-.7-.2 0-.3 0-.5.2l-.3.2-.2.2v.2"/></g><g><path class="st2" d="M69.4-48.7v.2l-.2.1v.4c-.2 0 0 .2 0 .3v.2c-.1.1 0 .3 0 .4 0 .2.2.4.4.5.2.2.4.6.6.6l.6-.1h.5c.3-.1.2-.4.3-.5h.4c.2-.1.4-.3.4-.5v-.2c0-.1.2-.2.1-.3v-.2-.4l-.1-.5c-.4-.7-1.2-1-2-.8l-.4.2-.3.2-.3.3v.1M61.8-48.7v.2l-.2.1s-.1.3 0 .4c-.3 0-.1.2-.1.3V-47l.5.5c.1.2.3.6.6.6l.5-.1h.6c.2-.1.1-.4.3-.5h.4c.2-.1.3-.3.3-.5v-.2l.2-.3v-.2c-.1-.1 0-.2 0-.4s0-.3-.2-.5c-.3-.7-1.2-1-2-.8l-.4.2c-.2.1-.1.2-.3.2l-.2.3v.1M54.1-48.7v.2l-.2.1v.4c-.2 0 0 .2 0 .3l-.1.2v.4l.5.5c.2.2.4.6.6.6l.5-.1h.6c.2-.1.1-.4.3-.5h.4l.4-.5v-.2l.1-.3v-.2-.4l-.1-.5c-.4-.7-1.3-1-2-.8l-.4.2-.4.2-.2.3v.1M46.5-48.7v.2l-.2.1-.1.4c-.2 0 0 .2 0 .3V-47c0 .2.3.4.4.5.2.2.4.6.6.6l.6-.1h.6c.2-.1 0-.4.2-.5h.4c.2-.1.4-.3.4-.5v-.2l.2-.3-.1-.2v-.4-.5c-.5-.7-1.3-1-2-.8l-.5.2c-.2.1-.1.2-.3.2l-.2.3v.1M38.8-48.7v.2l-.2.1v.4c-.2 0 0 .2 0 .3l-.1.2v.4l.5.5c.2.2.3.6.6.6l.5-.1h.6c.2-.1.1-.4.3-.5h.4l.4-.5v-.2-.3-.2-.4-.5c-.4-.7-1.3-1-2-.8l-.5.2c-.1.1-.1.2-.3.2l-.2.3v.1M31.1-48.7v.2l-.2.1v.4c-.2 0 0 .2 0 .3v.2c-.1.1 0 .3 0 .4 0 .2.2.4.4.5.2.2.4.6.6.6l.6-.1h.5c.3-.1.2-.4.3-.5h.4c.2-.1.4-.3.4-.5v-.2c0-.1.2-.2.1-.3v-.2-.4l-.1-.5c-.4-.7-1.2-1-2-.8l-.4.2-.3.2-.3.3v.1M23.5-48.7v.2l-.2.1s-.1.3 0 .4c-.3 0-.1.2-.1.3V-47l.5.5c.1.2.3.6.6.6l.5-.1h.6c.2-.1.1-.4.3-.5h.4c.2-.1.3-.3.3-.5v-.2l.2-.3v-.2c-.1-.1 0-.2 0-.4-.1-.2 0-.3-.2-.5-.4-.7-1.2-1-2-.8l-.4.2c-.2.1-.1.2-.3.2l-.2.3v.1M15.8-48.7v.2l-.2.1v.4c-.2 0 0 .2 0 .3l-.1.2v.4l.5.5c.2.2.4.6.6.6l.5-.1h.6c.2-.1.1-.4.3-.5h.4l.4-.5v-.2l.1-.3v-.2-.4l-.1-.5c-.4-.7-1.3-1-2-.8l-.4.2-.4.2-.2.3v.1M8.2-48.7v.2l-.2.1-.1.4c-.2 0 0 .2 0 .3V-47c0 .2.3.4.4.5.2.2.4.6.6.6l.6-.1h.6c.2-.1 0-.4.2-.5h.4c.2-.1.4-.3.4-.5v-.2l.2-.3-.1-.2v-.4-.5c-.5-.7-1.3-1-2-.8l-.5.2c-.2.1-.1.2-.3.2l-.2.3v.1M.5-48.7v.2l-.2.1s-.1.3 0 .4c-.2 0 0 .2 0 .3l-.1.2v.4l.5.5c.2.2.3.6.6.6l.5-.1h.6c.2-.1.1-.4.3-.5H3l.4-.5v-.2-.3-.2-.4-.5c-.4-.7-1.3-1-2-.8l-.5.2c-.1.1-.1.2-.3.2l-.2.3v.1"/></g><g><path class="st2" d="M69.4-41v.1l-.2.2v.3c-.2.1 0 .3 0 .4v.1c-.1.2 0 .3 0 .4 0 .2.2.4.4.6l.6.6.6-.1.5-.1c.3 0 .2-.3.3-.5h.4c.2 0 .4-.3.4-.5v-.2s.2-.1.1-.3v-.2-.3l-.1-.6c-.4-.6-1.2-.9-2-.7-.2 0-.3 0-.4.2-.2 0-.2.1-.3.2l-.3.2v.2M61.8-41v.1l-.2.2v.3c-.3.1-.1.3-.1.4v.5l.5.6c.1.1.3.5.6.6l.5-.1.6-.1c.2 0 .1-.3.3-.5h.4c.2 0 .3-.3.3-.5v-.2c.1 0 .2-.1.2-.3v-.5c0-.2 0-.4-.2-.6-.3-.6-1.2-.9-2-.7l-.4.2c-.2 0-.1.1-.3.2l-.2.2v.2M54.1-41v.1l-.2.2v.3c-.2.1 0 .3 0 .4l-.1.1v.4l.5.6.6.6.5-.1.6-.1c.2 0 .1-.3.3-.5h.4c.2 0 .3-.3.4-.5v-.2l.1-.3v-.2-.3l-.1-.6c-.4-.6-1.3-.9-2-.7-.2 0-.3 0-.4.2l-.4.2-.2.2v.2M46.5-41v.1l-.2.2-.1.3c-.2.1 0 .3 0 .4v.5c0 .2.3.4.4.6l.6.6.6-.1.6-.1c.2 0 0-.3.2-.5h.4c.2 0 .4-.3.4-.5v-.2c.1 0 .2-.1.2-.3l-.1-.2v-.3-.6c-.5-.6-1.3-.9-2-.7-.2 0-.4 0-.5.2-.2 0-.1.1-.3.2l-.2.2v.2M38.8-41v.1l-.2.2v.3c-.2.1 0 .3 0 .4l-.1.1v.4l.5.6c.2.1.3.5.6.6l.5-.1.6-.1c.2 0 .1-.3.3-.5h.4c.2 0 .3-.3.4-.5v-.2-.3-.2-.3-.6c-.4-.6-1.3-.9-2-.7-.2 0-.3 0-.5.2l-.3.2-.2.2v.2M31.1-41v.1l-.2.2v.3c-.2.1 0 .3 0 .4v.1c-.1.2 0 .3 0 .4 0 .2.2.4.4.6l.6.6.6-.1.5-.1c.3 0 .2-.3.3-.5h.4c.2 0 .4-.3.4-.5v-.2s.2-.1.1-.3v-.2-.3l-.1-.6c-.4-.6-1.2-.9-2-.7-.2 0-.3 0-.4.2-.2 0-.2.1-.3.2l-.3.2v.2M23.5-41v.1l-.2.2v.3c-.3.1-.1.3-.1.4v.5l.5.6c.1.1.3.5.6.6l.5-.1.6-.1c.2 0 .1-.3.3-.5h.4c.2 0 .3-.3.3-.5v-.2c.1 0 .2-.1.2-.3v-.5c-.1-.2 0-.4-.2-.6-.4-.6-1.2-.9-2-.7l-.4.2c-.2 0-.1.1-.3.2l-.2.2v.2M15.8-41v.1l-.2.2v.3c-.2.1 0 .3 0 .4l-.1.1v.4l.5.6.6.6.5-.1.6-.1c.2 0 .1-.3.3-.5h.4c.2 0 .3-.3.4-.5v-.2l.1-.3v-.2-.3l-.1-.6c-.4-.6-1.3-.9-2-.7-.2 0-.3 0-.4.2l-.4.2-.2.2v.2M8.2-41v.1l-.2.2-.1.3c-.2.1 0 .3 0 .4v.5c0 .2.3.4.4.6l.6.6.6-.1.6-.1c.2 0 0-.3.2-.5h.4c.2 0 .4-.3.4-.5v-.2c.1 0 .2-.1.2-.3l-.1-.2v-.3-.6c-.5-.6-1.3-.9-2-.7-.2 0-.4 0-.5.2-.2 0-.1.1-.3.2l-.2.2v.2M.5-41v.1l-.2.2v.3c-.2.1 0 .3 0 .4l-.1.1v.4l.5.6c.2.1.3.5.6.6l.5-.1.6-.1c.2 0 .1-.3.3-.5H3c.2 0 .3-.3.4-.5v-.2-.3-.2-.3-.6c-.4-.6-1.3-.9-2-.7-.2 0-.3 0-.5.2l-.3.2-.2.2v.2"/></g><g><path class="st2" d="M69.4-33.4v.2l-.2.1v.4c-.2 0 0 .2 0 .3v.2c-.1.1 0 .3 0 .4 0 .2.2.4.4.5.2.2.4.6.6.6l.6-.1h.5c.3-.1.2-.4.3-.5h.4c.2-.1.4-.3.4-.5v-.2c0-.1.2-.2.1-.3v-.2-.3l-.1-.6c-.4-.7-1.2-1-2-.8l-.4.2-.3.2-.3.3v.1M61.8-33.4v.2l-.2.1s-.1.3 0 .4c-.3 0-.1.2-.1.3V-31.8l.5.5c.1.2.3.6.6.6l.5-.1h.6c.2-.1.1-.4.3-.5h.4c.2-.1.3-.3.3-.5v-.2l.2-.3v-.5c0-.2 0-.4-.2-.6-.3-.7-1.2-1-2-.8l-.4.2c-.2.1-.1.2-.3.2l-.2.3v.1M54.1-33.4v.2l-.2.1v.4c-.2 0 0 .2 0 .3l-.1.2v.4l.5.5c.2.2.4.6.6.6l.5-.1h.6c.2-.1.1-.4.3-.5h.4l.4-.5v-.2l.1-.3v-.2-.3l-.1-.6c-.4-.7-1.3-1-2-.8l-.4.2-.4.2-.2.3v.1M46.5-33.4v.2l-.2.1-.1.4c-.2 0 0 .2 0 .3V-31.8c0 .2.3.4.4.5.2.2.4.6.6.6l.6-.1h.6c.2-.1 0-.4.2-.5h.4c.2-.1.4-.3.4-.5v-.2l.2-.3-.1-.2v-.3-.6c-.5-.7-1.3-1-2-.8l-.5.2c-.2.1-.1.2-.3.2l-.2.3v.1M38.8-33.4v.2l-.2.1v.4c-.2 0 0 .2 0 .3l-.1.2v.4l.5.5c.2.2.3.6.6.6l.5-.1h.6c.2-.1.1-.4.3-.5h.4l.4-.5v-.2-.3-.2-.3-.6c-.4-.7-1.3-1-2-.8l-.5.2c-.1.1-.1.2-.3.2l-.2.3v.1M31.1-33.4v.2l-.2.1v.4c-.2 0 0 .2 0 .3v.2c-.1.1 0 .3 0 .4 0 .2.2.4.4.5.2.2.4.6.6.6l.6-.1h.5c.3-.1.2-.4.3-.5h.4c.2-.1.4-.3.4-.5v-.2c0-.1.2-.2.1-.3v-.2-.3l-.1-.6c-.4-.7-1.2-1-2-.8l-.4.2-.3.2-.3.3v.1M23.5-33.4v.2l-.2.1s-.1.3 0 .4c-.3 0-.1.2-.1.3V-31.8l.5.5c.1.2.3.6.6.6l.5-.1h.6c.2-.1.1-.4.3-.5h.4c.2-.1.3-.3.3-.5v-.2l.2-.3v-.5c-.1-.2 0-.4-.2-.6-.4-.7-1.2-1-2-.8l-.4.2c-.2.1-.1.2-.3.2l-.2.3v.1M15.8-33.4v.2l-.2.1v.4c-.2 0 0 .2 0 .3l-.1.2v.4l.5.5c.2.2.4.6.6.6l.5-.1h.6c.2-.1.1-.4.3-.5h.4l.4-.5v-.2l.1-.3v-.2-.3l-.1-.6c-.4-.7-1.3-1-2-.8l-.4.2-.4.2-.2.3v.1M8.2-33.4v.2l-.2.1-.1.4c-.2 0 0 .2 0 .3V-31.8c0 .2.3.4.4.5.2.2.4.6.6.6l.6-.1h.6c.2-.1 0-.4.2-.5h.4c.2-.1.4-.3.4-.5v-.2l.2-.3-.1-.2v-.3-.6c-.5-.7-1.3-1-2-.8l-.5.2c-.2.1-.1.2-.3.2l-.2.3v.1M.5-33.4v.2l-.2.1s-.1.3 0 .4c-.2 0 0 .2 0 .3l-.1.2v.4l.5.5c.2.2.3.6.6.6l.5-.1h.6c.2-.1.1-.4.3-.5H3l.4-.5v-.2-.3-.2-.3-.6c-.4-.7-1.3-1-2-.8L1-34c-.1.1-.1.2-.3.2l-.2.3v.1"/></g><g><path class="st2" d="M69.4-25.7v.2h-.2v.4c-.2.1 0 .3 0 .4v.2.3c0 .2.2.4.4.6l.6.6.6-.1.5-.1c.3 0 .2-.3.3-.4l.4-.1c.2 0 .4-.3.4-.5v-.2s.2-.1.1-.3v-.2-.3l-.1-.5c-.4-.7-1.2-1-2-.8-.2 0-.3 0-.4.2-.2 0-.2.1-.3.2l-.3.2v.2M61.8-25.7v.2h-.2c0 .1-.1.4 0 .4-.3.1-.1.3-.1.4v.5l.5.6c.1.1.3.5.6.6l.5-.1.6-.1c.2 0 .1-.3.3-.4l.4-.1c.2 0 .3-.3.3-.5v-.2c.1 0 .2-.1.2-.3v-.5c0-.2 0-.4-.2-.5-.3-.7-1.2-1-2-.8l-.4.2c-.2 0-.1.1-.3.2l-.2.2v.2M54.1-25.7v.2h-.2v.4c-.2.1 0 .3 0 .4l-.1.2v.3l.5.6.6.6.5-.1.6-.1c.2 0 .1-.3.3-.4l.4-.1c.2 0 .3-.3.4-.5v-.2l.1-.3v-.2-.3l-.1-.5c-.4-.7-1.3-1-2-.8-.2 0-.3 0-.4.2l-.4.2-.2.2v.2M46.5-25.7v.2h-.2l-.1.4c-.2.1 0 .3 0 .4v.5c0 .2.3.4.4.6l.6.6.6-.1.6-.1c.2 0 0-.3.2-.4l.4-.1c.2 0 .4-.3.4-.5v-.2c.1 0 .2-.1.2-.3l-.1-.2v-.3-.5c-.5-.7-1.3-1-2-.8-.2 0-.4 0-.5.2-.2 0-.1.1-.3.2l-.2.2v.2M38.8-25.7v.2h-.2v.4c-.2.1 0 .3 0 .4l-.1.2v.3l.5.6c.2.1.3.5.6.6l.5-.1.6-.1c.2 0 .1-.3.3-.4l.4-.1c.2 0 .3-.3.4-.5v-.2-.3-.2-.3-.5c-.4-.7-1.3-1-2-.8-.2 0-.3 0-.5.2l-.3.2-.2.2v.2M31.1-25.7v.2H31v.4c-.2.1 0 .3 0 .4v.2.3c0 .2.2.4.4.6l.6.6.6-.1.5-.1c.3 0 .2-.3.3-.4l.4-.1c.2 0 .4-.3.4-.5v-.2s.2-.1.1-.3v-.2-.3l-.1-.5c-.4-.7-1.2-1-2-.8-.2 0-.3 0-.4.2-.2 0-.2.1-.3.2l-.3.2v.2M23.5-25.7v.2h-.2c0 .1-.1.4 0 .4-.3.1-.1.3-.1.4v.5l.5.6c.1.1.3.5.6.6l.5-.1.6-.1c.2 0 .1-.3.3-.4l.4-.1c.2 0 .3-.3.3-.5v-.2c.1 0 .2-.1.2-.3v-.5c-.1-.2 0-.4-.2-.5-.4-.7-1.2-1-2-.8l-.4.2c-.2 0-.1.1-.3.2l-.2.2v.2M15.8-25.7v.2h-.2v.4c-.2.1 0 .3 0 .4l-.1.2v.3l.5.6.6.6.5-.1.6-.1c.2 0 .1-.3.3-.4l.4-.1c.2 0 .3-.3.4-.5v-.2l.1-.3v-.2-.3l-.1-.5c-.4-.7-1.3-1-2-.8-.2 0-.3 0-.4.2l-.4.2-.2.2v.2M8.2-25.7v.2H8l-.1.4c-.2.1 0 .3 0 .4v.5c0 .2.3.4.4.6l.6.6.6-.1.6-.1c.2 0 0-.3.2-.4l.4-.1c.2 0 .4-.3.4-.5v-.2c.1 0 .2-.1.2-.3l-.1-.2v-.3-.5c-.5-.7-1.3-1-2-.8-.2 0-.4 0-.5.2-.2 0-.1.1-.3.2l-.2.2v.2M.5-25.7v.2H.3c0 .1-.1.4 0 .4-.2.1 0 .3 0 .4l-.1.2v.3l.5.6c.2.1.3.5.6.6l.5-.1.6-.1c.2 0 .1-.3.3-.4l.4-.1c.2 0 .3-.3.4-.5v-.2-.3-.2-.3-.5c-.4-.7-1.3-1-2-.8-.2 0-.3 0-.5.2l-.3.2-.2.2v.2"/></g><g><path class="st2" d="M69.4-18v.1l-.2.1v.4c-.2 0 0 .2 0 .3v.2c-.1.1 0 .3 0 .4 0 .2.2.4.4.5l.6.7.6-.2h.5c.3-.1.2-.4.3-.5h.4c.2-.1.4-.3.4-.5v-.2c0-.1.2-.2.1-.3v-.2-.3l-.1-.6c-.4-.7-1.2-1-2-.8l-.4.2-.3.3c-.1 0-.3 0-.3.2v.1M61.8-18v.1l-.2.1c0 .1-.1.3 0 .4-.3 0-.1.2-.1.3V-16.5l.5.5c.1.2.3.6.6.7l.5-.2h.6c.2-.1.1-.4.3-.5h.4c.2-.1.3-.3.3-.5v-.2l.2-.3v-.5c0-.2 0-.4-.2-.6-.3-.7-1.2-1-2-.8l-.4.2-.3.3s-.2 0-.2.2v.1M54.1-18v.1l-.2.1v.4c-.2 0 0 .2 0 .3l-.1.2v.4l.5.5.6.7.5-.2h.6c.2-.1.1-.4.3-.5h.4l.4-.5v-.2l.1-.3v-.2-.3l-.1-.6c-.4-.7-1.3-1-2-.8l-.4.2-.4.3s-.2 0-.2.2v.1M46.5-18v.1l-.2.1-.1.4c-.2 0 0 .2 0 .3V-16.5c0 .2.3.4.4.5l.6.7.6-.2h.6c.2-.1 0-.4.2-.5h.4c.2-.1.4-.3.4-.5v-.2l.2-.3-.1-.2v-.3-.6c-.5-.7-1.3-1-2-.8l-.5.2-.3.3c-.1 0-.2 0-.2.2v.1M38.8-18v.1l-.2.1v.4c-.2 0 0 .2 0 .3l-.1.2v.4l.5.5c.2.2.3.6.6.7l.5-.2h.6c.2-.1.1-.4.3-.5h.4l.4-.5v-.2-.3-.2-.3-.6c-.4-.7-1.3-1-2-.8l-.5.2-.3.3s-.2 0-.2.2v.1M31.1-18v.1l-.2.1v.4c-.2 0 0 .2 0 .3v.2c-.1.1 0 .3 0 .4 0 .2.2.4.4.5l.6.7.6-.2h.5c.3-.1.2-.4.3-.5h.4c.2-.1.4-.3.4-.5v-.2c0-.1.2-.2.1-.3v-.2-.3l-.1-.6c-.4-.7-1.2-1-2-.8l-.4.2-.3.3c-.1 0-.3 0-.3.2v.1M23.5-18v.1l-.2.1c0 .1-.1.3 0 .4-.3 0-.1.2-.1.3V-16.5l.5.5c.1.2.3.6.6.7l.5-.2h.6c.2-.1.1-.4.3-.5h.4c.2-.1.3-.3.3-.5v-.2l.2-.3v-.5c-.1-.2 0-.4-.2-.6-.4-.7-1.2-1-2-.8l-.4.2-.3.3s-.2 0-.2.2v.1M15.8-18v.1l-.2.1v.4c-.2 0 0 .2 0 .3l-.1.2v.4l.5.5.6.7.5-.2h.6c.2-.1.1-.4.3-.5h.4l.4-.5v-.2l.1-.3v-.2-.3l-.1-.6c-.4-.7-1.3-1-2-.8l-.4.2-.4.3s-.2 0-.2.2v.1M8.2-18v.1l-.2.1-.1.4c-.2 0 0 .2 0 .3V-16.5c0 .2.3.4.4.5l.6.7.6-.2h.6c.2-.1 0-.4.2-.5h.4c.2-.1.4-.3.4-.5v-.2l.2-.3-.1-.2v-.3-.6c-.5-.7-1.3-1-2-.8l-.5.2-.3.3c-.1 0-.2 0-.2.2v.1M.5-18v.1l-.2.1c0 .1-.1.3 0 .4-.2 0 0 .2 0 .3l-.1.2v.4l.5.5c.2.2.3.6.6.7l.5-.2h.6c.2-.1.1-.4.3-.5H3l.4-.5v-.2-.3-.2-.3-.6c-.4-.7-1.3-1-2-.8l-.5.2-.3.3s-.2 0-.2.2v.1"/></g><g><path class="st2" d="M69.4-10.4v.2h-.2v.5c-.2 0 0 .2 0 .3v.2.3c0 .2.2.4.4.6l.6.6.6-.1h.5c.3-.2.2-.4.3-.5.1-.1.3 0 .4 0 .2-.2.4-.4.4-.6V-9s.2-.1.1-.3v-.2-.3l-.1-.5c-.4-.7-1.2-1-2-.8l-.4.2c-.2 0-.2.1-.3.2l-.3.2v.2M61.8-10.4v.2h-.2v.5c-.3 0-.1.2-.1.3v.5l.5.6c.1.1.3.5.6.6l.5-.1h.6c.2-.2.1-.4.3-.5 0-.1.2 0 .4 0l.3-.6V-9c.1 0 .2-.1.2-.3v-.5c0-.2 0-.4-.2-.5-.3-.7-1.2-1-2-.8l-.4.2c-.2 0-.1.1-.3.2l-.2.2v.2M54.1-10.4v.2h-.2v.5c-.2 0 0 .2 0 .3l-.1.2v.3l.5.6.6.6.5-.1h.6c.2-.2.1-.4.3-.5.1-.1.3 0 .4 0l.4-.6V-9l.1-.3v-.2-.3l-.1-.5c-.4-.7-1.3-1-2-.8l-.4.2-.4.2-.2.2v.2M46.5-10.4v.2h-.2l-.1.5c-.2 0 0 .2 0 .3v.5c0 .2.3.4.4.6l.6.6.6-.1h.6c.2-.2 0-.4.2-.5.1-.1.3 0 .4 0 .2-.2.4-.4.4-.6V-9c.1 0 .2-.1.2-.3l-.1-.2v-.3-.5c-.5-.7-1.3-1-2-.8l-.5.2c-.2 0-.1.1-.3.2l-.2.2v.2M38.8-10.4v.2h-.2v.5c-.2 0 0 .2 0 .3l-.1.2v.3l.5.6c.2.1.3.5.6.6l.5-.1h.6c.2-.2.1-.4.3-.5 0-.1.3 0 .4 0l.4-.6V-9v-.3-.2-.3-.5c-.4-.7-1.3-1-2-.8l-.5.2-.3.2-.2.2v.2M31.1-10.4v.2H31v.5c-.2 0 0 .2 0 .3v.2.3c0 .2.2.4.4.6l.6.6.6-.1h.5c.3-.2.2-.4.3-.5.1-.1.3 0 .4 0 .2-.2.4-.4.4-.6V-9s.2-.1.1-.3v-.2-.3l-.1-.5c-.4-.7-1.2-1-2-.8l-.4.2c-.2 0-.2.1-.3.2l-.3.2v.2M23.5-10.4v.2h-.2v.5c-.3 0-.1.2-.1.3v.5l.5.6c.1.1.3.5.6.6l.5-.1h.6c.2-.2.1-.4.3-.5 0-.1.2 0 .4 0l.3-.6V-9c.1 0 .2-.1.2-.3v-.5c-.1-.2 0-.4-.2-.5-.4-.7-1.2-1-2-.8l-.4.2c-.2 0-.1.1-.3.2l-.2.2v.2M15.8-10.4v.2h-.2v.5c-.2 0 0 .2 0 .3l-.1.2v.3l.5.6.6.6.5-.1h.6c.2-.2.1-.4.3-.5.1-.1.3 0 .4 0l.4-.6V-9l.1-.3v-.2-.3l-.1-.5c-.4-.7-1.3-1-2-.8l-.4.2-.4.2-.2.2v.2M8.2-10.4v.2H8l-.1.4c-.2.1 0 .3 0 .4v.5c0 .2.3.4.4.6l.6.6.6-.1h.6c.2-.2 0-.4.2-.5.1-.1.3 0 .4 0 .2-.2.4-.4.4-.6V-9c.1 0 .2-.1.2-.3l-.1-.2v-.3-.5c-.5-.7-1.3-1-2-.8l-.5.2c-.2 0-.1.1-.3.2l-.2.2v.2M.5-10.4v.2H.3c0 .1-.1.4 0 .4-.2.1 0 .3 0 .4l-.1.2v.3l.5.6c.2.1.3.5.6.6l.5-.1h.6c.2-.2.1-.4.3-.5 0-.1.3 0 .4 0l.4-.6V-9v-.3-.2-.3-.5c-.4-.7-1.3-1-2-.8L1-11l-.3.2-.2.2v.2"/></g></g><g><path class="st2" d="M69.4-2.8v.2l-.2.1v.4c-.2 0 0 .2 0 .4v.1c-.1.1 0 .3 0 .4 0 .2.2.4.4.5l.6.7.6-.2h.5c.3-.1.2-.4.3-.5h.4c.2-.1.4-.3.4-.5v-.2c0-.1.2-.2.1-.3V-2v-.3l-.1-.6c-.4-.7-1.2-1-2-.8l-.4.2-.3.3c-.1 0-.3 0-.3.2v.1M61.8-2.8v.2l-.2.1c0 .1-.1.3 0 .4-.3 0-.1.2-.1.4v.5l.5.5c.1.2.3.6.6.7l.5-.2h.6c.2-.1.1-.4.3-.5h.4c.2-.1.3-.3.3-.5v-.2l.2-.3v-.5c0-.2 0-.4-.2-.6-.3-.7-1.2-1-2-.8l-.4.2-.3.3s-.2 0-.2.2v.1M54.1-2.8v.2l-.2.1v.4c-.2 0 0 .2 0 .4l-.1.1v.4l.5.5.6.7.5-.2h.6c.2-.1.1-.4.3-.5h.4l.4-.5v-.2l.1-.3V-2v-.3l-.1-.6c-.4-.7-1.3-1-2-.8l-.4.2-.4.3s-.2 0-.2.2v.1M46.5-2.8v.2l-.2.1-.1.4c-.2 0 0 .2 0 .4v.5c0 .2.3.4.4.5l.6.7.6-.2h.6c.2-.1 0-.4.2-.5h.4c.2-.1.4-.3.4-.5v-.2l.2-.3-.1-.2v-.3-.6c-.5-.7-1.3-1-2-.8l-.5.2-.3.3c-.1 0-.2 0-.2.2v.1M38.8-2.8v.2l-.2.1v.4c-.2 0 0 .2 0 .4l-.1.1v.4l.5.5c.2.2.3.6.6.7l.5-.2h.6c.2-.1.1-.4.3-.5h.4l.4-.5v-.2-.3-.2-.3-.6c-.4-.7-1.3-1-2-.8l-.5.2-.3.3s-.2 0-.2.2v.1M31.1-2.8v.2l-.2.1v.4c-.2 0 0 .2 0 .4v.1c-.1.1 0 .3 0 .4 0 .2.2.4.4.5l.6.7.6-.2h.5c.3-.1.2-.4.3-.5h.4c.2-.1.4-.3.4-.5v-.2c0-.1.2-.2.1-.3V-2v-.3l-.1-.6c-.4-.7-1.2-1-2-.8l-.4.2-.3.3c-.1 0-.3 0-.3.2v.1M23.5-2.8v.2l-.2.1c0 .1-.1.3 0 .4-.3 0-.1.2-.1.4v.5l.5.5c.1.2.3.6.6.7l.5-.2h.6c.2-.1.1-.4.3-.5h.4c.2-.1.3-.3.3-.5v-.2l.2-.3v-.5c-.1-.2 0-.4-.2-.6-.4-.7-1.2-1-2-.8l-.4.2-.3.3s-.2 0-.2.2v.1M15.8-2.8v.2l-.2.1v.4c-.2 0 0 .2 0 .4l-.1.1v.4l.5.5.6.7.5-.2h.6c.2-.1.1-.4.3-.5h.4l.4-.5v-.2l.1-.3V-2v-.3l-.1-.6c-.4-.7-1.3-1-2-.8l-.4.2-.4.3s-.2 0-.2.2v.1M8.2-2.8v.2l-.2.1-.1.4c-.2 0 0 .2 0 .4v.5c0 .2.3.4.4.5L9 0l.6-.2h.6c.2-.1 0-.4.2-.5h.4c.2-.1.4-.3.4-.5v-.2l.2-.3-.1-.2v-.3-.6c-.5-.7-1.3-1-2-.8l-.5.2-.3.3c-.1 0-.2 0-.2.2v.1M.5-2.8v.2l-.2.1c0 .1-.1.3 0 .4-.2 0 0 .2 0 .4l-.1.1v.4l.5.5c.2.2.3.6.6.7l.5-.2h.6c.2-.1.1-.4.3-.5H3l.4-.5v-.2-.3-.2-.3-.6c-.4-.7-1.3-1-2-.8l-.5.2-.3.3s-.2 0-.2.2v.1"/></g></pattern><path class="st2" d="M84.7 11C79.5 7.6 73.6 5 67 3.3A99 99 0 0 0 41.2.2H0v111.2h51.2c10.6 0 20.2-2.2 28.3-6.3A49.3 49.3 0 0 0 94 94 53.5 53.5 0 0 0 107 57.4C107.1 35 98.6 20 84.7 11z"/><path class="st3" d="M94 94.1A53.5 53.5 0 0 0 107 57.4C107.1 35 98.6 20 84.7 11L47.8 48 94 94z"/><path d="M41.2.2H0v70.1l67-67A99 99 0 0 0 41.2.2z" fill="#84bd00"/><path class="st5" d="M0 95.7v15.7h51.2c10.6 0 20.2-2.2 28.3-6.3L35.1 60.7l-35 35z"/><path class="st2" d="M47.8 48l37-37C79.4 7.6 73.5 5 67 3.3l-67 67v25.4l35.1-35L79.5 105A49.3 49.3 0 0 0 94 94L47.8 47.9z"/><path class="st5" d="M149.7 77.2V34.3h18.8c13.9 0 22.4 6.4 22.4 20.6 0 16.1-9 22.3-22.7 22.3h-18.5zm14-10h3c6.6 0 10.2-3.5 10.2-11.6 0-8.9-3-11.3-10.5-11.3h-2.6v22.9zM204.7 34.3h14V60c0 4.2.9 7.9 6.7 7.9 5 0 6.5-3.3 6.5-8V34.4h14v24.3c0 13.7-6.3 19.7-20.5 19.7-13.3 0-20.7-5-20.7-19.8V34.3zM276.2 62.3v15H262v-43h20.3c14.2 0 19 3.9 19 12.2 0 5-2.2 9.1-7.3 10.5 4.6 1.7 7.3 2.8 7.3 11.4 0 5.6-.2 7.5 1.5 7.5v1.3h-14.2a28 28 0 0 1-.7-7.5c0-5.6-1-7.4-7.6-7.4h-4.2zm0-9.5h5.5c4.3 0 6.7-1 6.7-4s-2.4-4.5-5.7-4.5h-6.5v8.5zM318.6 77.2V34.3h14v14.5H346V34.3h14v42.9h-14V60.6h-13.3v16.6h-14zM373.2 77.2l15.3-42.9h14.3l15.4 42.9h-14l-1.7-5.7h-14l-1.6 5.7h-13.7zm22.4-30l-4.4 15.4h8.9l-4.5-15.4zM430.9 77.2V34.3h17l7.5 26.8 7.6-26.8h17v42.9h-12.7V64.1l.2-6.7.7-7.7h-.1l-7.8 27.5h-9.8l-7.8-27.5.5 6.3.3 6.7v14.5h-12.6z"/><path class="st3" d="M502.7 34.3H542v11.3h-12.6v31.6h-14V45.6h-12.7V34.3zM554.3 77.2V34.3h35v10h-20.9v6.2h17.7v10h-17.7v6.7h21.7v10h-35.8zM629.8 50.7c-.4-4.5-3.2-7-7.6-7-5 0-8 4.2-8 12.5 0 6 1.4 11.7 8.5 11.7 4.5 0 6.7-3.2 7.2-7.3h13.5c-1.2 11-9.1 17.7-20.4 17.7-14.2 0-22.8-8.7-22.8-22.6 0-13.9 9.4-22.5 21.4-22.5 13 0 20.4 6.5 21.5 17.5h-13.3zM654.2 77.2V34.3h14v14.5h13.4V34.3h14v42.9h-14V60.6h-13.3v16.6h-14z"/></svg>