<?xml version="1.0" encoding="utf-8"?>
<!-- Generator: Adobe Illustrator 22.0.1, SVG Export Plug-In . SVG Version: 6.00 Build 0)  -->
<svg version="1.1" id="Layer_1" xmlns="http://www.w3.org/2000/svg" xmlns:xlink="http://www.w3.org/1999/xlink" x="0px" y="0px"
	 viewBox="0 0 800 300" style="enable-background:new 0 0 800 300;" xml:space="preserve">
<style type="text/css">
	.st0{fill:#592A8A;}
</style>
<g>
	<path class="st0" d="M230.9,193.4c0-9.2-0.4-107.2-0.5-111.2l-0.2-10.6l-9.9-4.7c-30.6-14.3-60.5-18.9-78.5-20.3
		c0.8,0.9,1.7,1.8,2.9,2.5c18.1,1.7,46.1,6.4,74.7,19.9l8.7,4.1l0.2,9.2c0.1,4,0.5,101.9,0.5,111.1c0,11.7-17.4,29.7-31.5,43.2
		c-11.8,11.4-35.1,33-63,45.4l-6.7,3l-6.7-3c-27.9-12.5-50-33.3-61.8-44.7c-14-13.5-32.6-32.2-32.6-44c0-9.3,0.4-107.2,0.5-111.1
		l0.2-9.2l8.7-4.1C64.7,55.4,92.9,50.6,111,49c1.1-0.8,2.1-1.6,2.8-2.5c-18,1.4-48.1,5.9-78.9,20.4L25,71.6l-0.2,10.6
		c-0.1,4-0.5,101.9-0.5,111.2c0,10,12.5,25.5,33.3,45.6c11.9,11.5,34.2,32.6,62.5,45.2l7.6,3.4l7.6-3.4
		c28.3-12.6,51.8-34.4,63.7-45.9C219.6,218.1,230.9,203.4,230.9,193.4L230.9,193.4z M127.6,46.6c0.1-0.2,0.2-0.4,0.2-0.7
		c-0.1,0-0.3,0-0.4,0l0,0C127.5,46.2,127.6,46.4,127.6,46.6L127.6,46.6z"/>
	<path class="st0" d="M221.7,83.6l-0.1-6.1l-5.6-2.7c-22.4-10.8-44.7-16-61.7-18.4c-0.3,3.1-0.7,7.7-1,11.6
		c14.6,2.2,33.3,6.8,52.1,15.8l4.9,2.4l0.1,5.3c0,2.6-0.1,46.5-0.1,74l9.5,3.9l-9.5,9c0,4.4,0,7.5,0,8.7c0,9.6-17.6,28.2-25.2,35.7
		c-10,10-30.4,28.3-53.9,39.1l-3.8,1.8l-3.8-1.8c-23.6-10.8-43.9-29.2-53.9-39.1c-7.6-7.5-25.2-26.1-25.2-35.7c0-1.2,0-4.6,0-9.3
		l-9.2-8.7l9.2-3.7c-0.1-27.5-0.2-71.2-0.1-73.8l0.1-5.3l3.6-2.4c19-9.2,38.8-13.7,53.9-15.9c-0.3-3.9-0.7-8.5-1-11.5
		C83.6,58.9,60,64,37.3,74.9l-4,2.7l-0.1,6.1c-0.1,4.2,0.2,98,0.2,106.2c0,10.9,20,32,28.6,40.6c11.4,11.3,34.5,32.1,61.2,44.4
		l4.4,2l4.4-2c26.7-12.3,49.8-33.1,61.2-44.4c8.6-8.6,28.6-29.6,28.6-40.6C221.6,181.6,221.8,87.7,221.7,83.6L221.7,83.6z"/>
	<path class="st0" d="M82.1,150.1c1.9-13.5,8.8-46.2,32.4-72.6c0,0-49.3,14.9-62.3,85.9L82.1,150.1L82.1,150.1z"/>
	<path class="st0" d="M172.6,150.1c-1.9-13.5-8.8-46.2-32.4-72.6c0,0,49.3,14.9,62.3,85.9L172.6,150.1L172.6,150.1z"/>
	<path class="st0" d="M69.5,210.4l-2.1-11.9l-7.4,3.3v-4.3l26.9-12.2v4.3l-6.1,2.8l-3.1,17.5c7.7,1.8,9.5,10.1,9.7,20.3v20.3
		c6.7,5.9,13.2,6.3,18.9,11.4v-31.7c0-9.4,6.4-17.3,15.2-19.8l-3.9-20.7H108v-4.3h38.7v4.3h-9.6l-3.9,20.7
		c8.8,2.5,15.2,10.4,15.2,19.8v30.7l18.9-11.9v-18.8c0.1-10.2,2-18.5,9.7-20.3l-3.1-17.5l-6.1-2.8v-4.3l26.9,12.2v4.3l-7.4-3.3
		l-2.1,11.9c6.2,2.6,7.8,10.4,7.8,19.7v-3l10.1-10.5v-31.9l-36.8-16.4h-33h-12.2h-33l-36.7,16.4v32.4c3.2,2.8,6.6,7.6,10.1,10.7
		C62,219.6,63.8,212.8,69.5,210.4L69.5,210.4z"/>
	<path class="st0" d="M121.3,75.7c-23.8,28.4-27.3,59.8-27.7,73.6h27.7h12.2h27.6c-0.3-13.8-3.9-45.2-27.7-73.6
		c0,0,0.6-8.3,13.2-8.5l0.7-11.5c0,0-16.3,0.8-16.1-32.7c0,0-1.3-0.9-3.7-1l0,0h-0.1h-0.1l0,0c-2.5,0.1-3.7,1-3.7,1
		c0.8,33.6-16.1,32.7-16.1,32.7l0.7,11.5C120.6,67.4,121.3,75.7,121.3,75.7L121.3,75.7z"/>
	<path class="st0" d="M122.6,17.7c0-2.6,2.1-4.7,4.8-4.7c2.6,0,4.8,2.1,4.8,4.7s-2.1,4.7-4.8,4.7C124.8,22.4,122.6,20.3,122.6,17.7
		L122.6,17.7z"/>
	<path class="st0" d="M756,229.1c-6.5,0-11.5,5.2-11.5,11.5c0,6.5,4.9,11.5,11.5,11.5s11.6-5.4,11.6-11.5
		C767.6,234.3,762.6,229.1,756,229.1L756,229.1z M756,231.1c5.2,0,9,4.2,9,9.4c0,5.3-3.8,9.3-9,9.3c-5.1,0-8.9-4-8.9-9.3
		C747.1,235.3,750.8,231.1,756,231.1L756,231.1z M762.6,245.6c-0.4-0.2-0.7-0.4-1.2-0.9c-1.3-1.5-2-2.5-2.9-4.2
		c1.4-0.5,2.4-1.5,2.4-3c0-2.6-2.3-3.1-4.3-3.1h-6.1v1.3c1.4,0.1,1.6,0.1,1.6,1.7v6c0,1.6-0.2,1.6-1.7,1.7v1.4h6v-1.4
		c-1.5-0.1-1.7-0.1-1.7-1.7v-2.1h0.4c0.4,0,0.9,0.1,1.2,0.6c0.4,0.6,0.8,1.8,1.6,2.9c1.1,1.4,2.3,1.9,4.3,1.9L762.6,245.6
		L762.6,245.6z M754.8,240v-3.2c0-0.9,0.4-1.1,1.2-1.1c0.7,0,2.1,0.4,2.1,2c0,0.9-0.3,1.5-1,1.9c-0.4,0.3-1.1,0.4-1.5,0.4L754.8,240
		L754.8,240z"/>
	<path class="st0" d="M279.5,112.6v100.3c0,11.8-3.3,19.4-11.1,24.1c-6.9,3.8-12.8,4.1-12.8,10c0,2.8,2.2,4.6,6.7,4.6
		c5.3,0,20.2-2.3,43.8-2.3c21.1,0,38.5,2.3,51.8,2.3c17.2,0,28.8-4.3,36.6-14.6c6.9-9.2,10.8-22.5,10.8-27.9c0-3.1-1.7-5.1-3.9-5.1
		c-5.5,0-5.5,9-17.5,18.2c-11.4,9-30.8,14.8-49.4,14.8c-20.8,0-22.2-5.4-22.2-23.5v-39.9c0-10.5,1.4-14.3,11.6-14.3H335
		c16.1,0,23.6,2.6,28,13.3c3.3,8.4,0.6,14.6,7.5,14.6c3,0,4.7-1.5,4.7-4.9c0-3.1-2.2-14.1-2.2-33.3c0-11.8,1.1-17.9,1.1-19.4
		c0-3.6-1.1-5.4-4.4-5.4c-6.7,0-6.7,7.9-11.9,14.6c-5.5,6.7-12.5,8.7-24.4,8.7h-8.9c-8.6,0-11.9-3.1-11.9-10.7V96.9
		c0-11.3,6.1-14.8,22.5-14.8c27.4,0,40.5,3.6,46.3,14.6c3.9,7.7-0.3,14.8,7.2,14.8c3.9,0,4.4-1.3,4.4-5.1c0-1.8-0.3-9.2-0.3-21.8
		c0-3.1,0-4.9,0-5.4c0-8.4-1.7-9.2-11.1-9.2c-12.2,0-38.3,2-78.5,2c-29.7,0-45.5-2-48-2c-4.7,0-7.2,2-7.2,5.4
		c0,8.4,14.1,2.6,24.1,11C279.3,92.4,279.5,100,279.5,112.6L279.5,112.6z"/>
	<path class="st0" d="M775.2,73.9c0-3.1-1.9-4.1-6.1-4.1c-4.4,0-13,2-26.1,2c-13.3,0-23-1.8-28.8-1.8c-4.4,0-6.9,1-6.9,4.4
		c0,6.9,10,4.6,21.3,8.7c10.8,4.1,12.5,14.6,12.5,32.8v44.3c0,27.4-2.2,46.6-15,60.4C715.8,231.9,700,238,681.7,238
		c-20,0-35.8-8.7-44.9-23.5c-7.5-12.3-7.8-27.4-7.8-45.8c0-1.3,0-2.6,0-3.8v-40.7c0-25.3,0.3-37.4,8.9-42c6.7-3.6,13.9-2.6,13.9-7.9
		c0-3.3-2.5-4.6-7.5-4.6c-5.8,0-18.3,2.6-38.3,2.6c-15.2,0-26.1-1.8-31.9-1.8c-1.5,0-2.7,0.1-3.7,0.3l0,0c-0.5,0.1-1,0.3-1.3,0.4
		c0,0,0,0-0.1,0c-0.2,0.1-0.3,0.2-0.5,0.3c-2,1-3.5,2.9-5.1,5.8c-0.3,0.5-0.5,0.9-0.8,1.4c0,0,0,0.1-0.1,0.1l0,0
		c-1,2-2.1,3.9-5.1,3.9c-5,0-25.8-15.6-61.6-15.6c-28.6,0-53,10.7-71,30.5c-16.6,18.4-26.1,42.7-26.1,68.3
		c0,52.2,36.6,88.5,91.2,88.5c27.4,0,51-8.4,70.1-25.3c12.5-11,18.3-20,18.3-23.8c0-2.6-1.4-3.8-3.6-3.8c-5,0-8,6.9-16.6,14.1
		c-16.1,13.1-35.2,20.2-53.2,20.2c-23.3,0-42.4-11-56.6-32.2c-10.3-15.1-15.8-34-15.8-53c0-45.8,26.6-73.2,58.8-73.2
		c24.4,0,48,12.3,63.8,32.8c11.9,15.6,11.1,22.8,17.2,22.8c2.5,0,3.9-1.3,3.9-4.6c0-4.3-3.1-18.7-4.2-42c-0.1-2.6-0.1-4.8-0.2-6.5
		c2.9,0.6,7,1,11.9,2.7c9.4,3.1,12.2,7.2,12.2,22.8v62.4c0,57.6,18.9,86,74.9,86s84.3-30.7,84.3-92.1v-32.8c0-27.6,0-42,6.1-46.1
		C768,78.3,775.2,79.8,775.2,73.9L775.2,73.9z"/>
</g>
</svg>
