<svg id="Layer_1" data-name="Layer 1" xmlns="http://www.w3.org/2000/svg" xmlns:xlink="http://www.w3.org/1999/xlink" viewBox="0 0 264.2 60.68"><defs><style>.cls-1{fill:none;}.cls-2{clip-path:url(#clip-path);}.cls-3{fill:#422c88;}</style><clipPath id="clip-path"><rect class="cls-1" width="264.2" height="59.54"/></clipPath></defs><g class="cls-2"><path class="cls-3" d="M5.65,53a23.75,23.75,0,0,0,.17,3.6c.29.66,1.18.86,2,1v.67c-.75,0-4.35-.15-4.72-.15a24.58,24.58,0,0,0-2.5.15l-.26-.67c1.87-.28,1.95-.69,2-1.26A98.68,98.68,0,0,0,2.83,46c0-4.72-.26-5.06-2-5.06l.06-.75a5.6,5.6,0,0,1,1-.06c.29,0,1.35,0,2.42,0s2.18.09,2.58.09h1.3v.69c-.26.05-1.38.25-1.61.34s-.46.29-.61,1.35a33.16,33.16,0,0,0-.28,5.67c2,0,6.7.08,8.71.08a11.46,11.46,0,0,0,1.9-.11c0-.75,0-1.55,0-2.76,0-4.11-.15-4.34-2.3-4.72l.14-.66c.4,0,.83.06,1.41.12s1.32.05,2.27.05a28.47,28.47,0,0,0,3.36-.17v.66c-.69.09-1.32.2-1.58,1-.37,1.15-.4,9.69-.4,11.53,0,3.65.2,4.14,2,4.31l-.05.67a31.63,31.63,0,0,0-3.63-.15c-1.12,0-2.15.06-3.36.15v-.67c1.15-.08,1.58-.43,1.78-1.09a36,36,0,0,0,.35-6.81c-2.22-.12-10.21-.15-10.61-.15Z"/><path class="cls-3" d="M22.85,57.66c.69-.08,1.59-.16,1.88-.65.38-.68.38-4,.38-5.11,0-.93,0-4.71-.3-5.29-.1-.21-.27-.55-1.8-.55l0-.54,1.78,0c.74,0,1.42.06,1.53.06.5,0,2.27-.06,2.79-.08v.62c-1,0-1.31.06-1.53.3-.48.55-.48,4-.48,5s0,4.73.12,5.31.26.73,1.77.85l0,.5-3.2,0c-1.51,0-2.29,0-2.92,0Z"/><path class="cls-3" d="M41.39,48.62a4.06,4.06,0,0,0-4.1-2.5c-2.64,0-5,1.92-5,5.64S35,57.6,37.55,57.6c.88,0,2.07-.29,2.39-.91a4.08,4.08,0,0,0,.16-1.39c0-2.72-.06-2.72-2.21-2.72L38,52c.56,0,3.06,0,3.58-.06l1.39-.06v.56c-.7.12-.76.33-.76,2.56s.16,2.19.46,2.4v.28a39.71,39.71,0,0,1-5.29.62c-5.6,0-7.27-3.82-7.27-6.42,0-4.49,4.09-6.48,7.57-6.48a9.36,9.36,0,0,1,2.72.42c.32.06.36,0,.78-.4h.34a22.31,22.31,0,0,0,.33,3.2Z"/><path class="cls-3" d="M47.19,54.54a16.37,16.37,0,0,0,.12,2.51c.2.47.83.61,1.39.73v.46l-3.3-.1c-.53,0-1.17,0-1.75.1l-.18-.46c1.3-.2,1.36-.49,1.42-.89a67.56,67.56,0,0,0,.33-7.26c0-3.31-.18-3.55-1.41-3.55l0-.52a4.11,4.11,0,0,1,.72,0c.2,0,1,0,1.69,0l1.81.06H49v.48c-.18,0-1,.18-1.13.24s-.32.2-.42,1a23.44,23.44,0,0,0-.2,4c1.39,0,4.69,0,6.1,0a7.81,7.81,0,0,0,1.33-.07c0-.53,0-1.09,0-1.94,0-2.88-.1-3-1.61-3.3l.1-.46,1,.08c.43,0,.93,0,1.59,0a20.47,20.47,0,0,0,2.36-.12V46c-.48.06-.93.14-1.11.71a78.41,78.41,0,0,0-.28,8.07c0,2.55.14,2.9,1.39,3l0,.46a23.19,23.19,0,0,0-2.54-.1c-.78,0-1.51,0-2.35.1v-.46c.8-.06,1.1-.3,1.25-.77a25.71,25.71,0,0,0,.24-4.77c-1.55-.08-7.15-.1-7.43-.1Z"/><path class="cls-3" d="M71.45,53.88a17,17,0,0,0,.18,2.76c.23.63,1.38.86,2.53.86v.78c-.49,0-.92-.09-1.5-.12s-1.32,0-2.44,0-2.25.15-2.91.15h-.69v-.67c1.64-.46,1.7-.69,1.79-1a40.26,40.26,0,0,0,.2-5.06c0-1.24,0-1.73-.12-6.24-.08-4.32-.23-4.35-2.13-4.46a6,6,0,0,1,0-.86c.44,0,2.59.08,3.63.08.49,0,1,0,1.43-.06s1,0,1.44,0c4.63,0,7.71,2.93,7.71,5.95,0,1.9-1.67,5.81-8,5.81-.43,0-.83,0-1.18,0ZM73.12,41a3.68,3.68,0,0,0-1.52.32c-.2,4.52-.2,5-.18,9.23a8.1,8.1,0,0,0,1.82.26c.57,0,3.94-.06,3.94-4.63,0-3.94-2.25-5.18-4.06-5.18"/><path class="cls-3" d="M87.72,45.4a6.55,6.55,0,1,1-6.88,6.42c0-3.93,3.38-6.42,6.88-6.42m.33,12.36c1.28,0,4-.79,4-4.51,0-2.62-1.27-7.07-4.87-7.07-1,0-4,.45-4,4.55,0,3.32,1.59,7,4.85,7"/><path class="cls-3" d="M94.41,57.66c.68-.08,1.59-.16,1.87-.65.38-.68.38-4,.38-5.11,0-.93,0-4.71-.3-5.29-.1-.21-.26-.55-1.79-.55l0-.54,1.77,0c.74,0,1.43.06,1.53.06.5,0,2.27-.06,2.8-.08v.62c-1,0-1.31.06-1.53.3-.49.55-.49,4-.49,5s0,4.73.12,5.31.27.73,1.78.85l0,.5-3.2,0c-1.51,0-2.3,0-2.92,0Z"/><path class="cls-3" d="M114.21,54.68c0-.63.07-3.46.07-4,0-4.29-.17-4.49-2.06-4.67l.18-.44a3.18,3.18,0,0,1,.51,0c.16,0,.6,0,1.06.06a10.51,10.51,0,0,0,1.11.08l1.65,0v.5a1.07,1.07,0,0,0-1.09.45c-.38.72-.42,4.14-.42,5.21,0,.68-.06,3.68-.06,4.29,0,.22,0,1,.06,1.61l0,.76h-.6a13.61,13.61,0,0,0-2.82-3.34l-6.18-5.94a8.28,8.28,0,0,0-.83-.76c0,.4-.06,1.33-.06,1.73l-.08,4.65c0,1.87,0,2.6,2.22,2.94a1.21,1.21,0,0,1,0,.54c-.26,0-.51-.06-.81-.1s-.62,0-1.1,0-2.4.12-2.8.14a2.43,2.43,0,0,1,0-.54c1.27,0,1.39-.73,1.43-2.44l.1-5.9c0-1.67,0-3-1.69-3.3a3,3,0,0,1,0-.6l.94.06,1,0H105a53.22,53.22,0,0,0,4.71,4.75c.92.93,1.85,1.83,2.81,2.72Z"/><path class="cls-3" d="M129.35,47.07a5.81,5.81,0,0,0-3-.52,6.54,6.54,0,0,0-1.27.06c-.08,1.75-.16,5.17-.16,8.63,0,2.14.18,2.18,1.09,2.36.72.1.81.1,1,.14l-.06.5c-.33,0-1.76-.12-2-.12a19,19,0,0,0-4.2.32l-.18-.52a6.33,6.33,0,0,0,2-.73,33.87,33.87,0,0,0,.26-5.09,41.6,41.6,0,0,0-.2-5.49c-.57,0-.83-.06-1.87-.06-2.56,0-2.72.36-3,1.18l-.51-.12A21.17,21.17,0,0,0,118,45.3h.34a1.89,1.89,0,0,0,.81.24c.8.1,3.8.1,4.85.1,1.47,0,4.41,0,5.65-.08a.76.76,0,0,0,.47-.12l.3.18a8.87,8.87,0,0,0-.57,2.11l-.6.1Z"/><path class="cls-3" d="M140.19,44.16c-.06-3-.43-3.08-2-3.22v-.67h7.68l.17.67a3.31,3.31,0,0,0-.46.05c-2.33.38-2.47.43-2.47,7.68,0,5,.37,6.36,1.52,7.28a6,6,0,0,0,3.71,1.15c.49,0,4.08,0,5.12-2.71.63-1.66.8-4.91.8-8.48,0-4.69-.54-4.72-2.44-4.83l-.12-.81,1.56-.05c.43,0,.94.05,1.52.05h2.82v.81c-.63,0-1.47.06-1.7.6a28.17,28.17,0,0,0-.2,4.23c0,2.5-.32,7.56-1.21,9.49-1.2,2.59-5,3-7.16,3-2.67,0-7.16-.63-7.16-5.66,0-.75.15-4.46.15-5.3Z"/><path class="cls-3" d="M169.55,54.68c0-.63.06-3.46.06-4,0-4.29-.16-4.49-2.06-4.67l.19-.44a3.15,3.15,0,0,1,.5,0c.16,0,.6,0,1.07.06a10.2,10.2,0,0,0,1.1.08l1.65,0v.5a1.06,1.06,0,0,0-1.08.45c-.39.72-.43,4.14-.43,5.21,0,.68-.06,3.68-.06,4.29,0,.22,0,1,.06,1.61l0,.76H170a13.4,13.4,0,0,0-2.82-3.34L161,49.16a9.47,9.47,0,0,0-.82-.76c0,.4-.06,1.33-.06,1.73L160,54.78c0,1.87,0,2.6,2.21,2.94a1.21,1.21,0,0,1,0,.54c-.26,0-.5-.06-.8-.1s-.63,0-1.11,0-2.4.12-2.8.14a2.43,2.43,0,0,1,0-.54c1.27,0,1.39-.73,1.43-2.44l.1-5.9c0-1.67,0-3-1.69-3.3a3,3,0,0,1,0-.6l.95.06,1,0h.95A56.45,56.45,0,0,0,165,50.33c.92.93,1.85,1.83,2.82,2.72Z"/><path class="cls-3" d="M173.19,57.66c.69-.08,1.59-.16,1.87-.65.39-.68.39-4,.39-5.11,0-.93,0-4.71-.31-5.29-.1-.21-.26-.55-1.79-.55l0-.54,1.77,0c.75,0,1.43.06,1.53.06.51,0,2.28-.06,2.8-.08v.62c-1,0-1.31.06-1.53.3-.48.55-.48,4-.48,5s0,4.73.12,5.31.26.73,1.77.85l0,.5-3.2,0c-1.51,0-2.29,0-2.92,0Z"/><path class="cls-3" d="M183.21,48.88c-1.38-2.8-1.4-2.8-2.53-2.84v-.42h5.19v.52c-1.05,0-1.19,0-1.19.39s.65,1.95,3.67,8.81c.22-.52.28-.64.8-1.77s2.82-6,2.82-6.82c0-.57-.66-.63-1.05-.67l.06-.52c1.41.08,2.1.08,3.75.08l0,.48c-1,.24-1.57.71-2.42,2.42l-2.65,5.39A26.75,26.75,0,0,0,188,58.38l-.47.1c-.22-.68-1.09-2.65-1.09-2.65Z"/><path class="cls-3" d="M205,53.83h-.46c-.24-1.73-.24-1.81-3.42-1.81a7.23,7.23,0,0,0-1.55.12c0,.28-.06,2.6-.06,2.66a12,12,0,0,0,.24,2.39,14.26,14.26,0,0,0,2.78.29c3,0,3.56-1.55,3.82-2.28h.45a8.41,8.41,0,0,1-.87,3.08c-2.68-.16-3.4-.18-5.27-.18s-2.72,0-4.69.18l.06-.52c.72-.14,1.12-.24,1.24-.91a54,54,0,0,0,.25-5.94c0-.5-.14-3-.14-3.54-.09-1.11-.27-1.21-1-1.39a1.06,1.06,0,0,1-.22-.06v-.34h6.36c1.41,0,2.11,0,3.42-.1.06,1.39-.24,2.68-.5,2.68-.1,0-.28,0-.43-.06a3.52,3.52,0,0,0,.13-.79c0-.76-.85-1.11-2.84-1.11a18.68,18.68,0,0,0-2.54.22,23.89,23.89,0,0,0-.2,3.12c0,.45,0,.81,0,1.76.46,0,1.13.06,1.83.06a11,11,0,0,0,2.62-.22c.34-.15.52-1.13.52-1.15H205Z"/><path class="cls-3" d="M207.55,57.82c.87-.26,1.19-.4,1.33-1s.18-5.15.18-6.18a29.41,29.41,0,0,0-.08-3.5c-.12-.91-.93-.93-1.35-1l.08-.52,1.71,0c.27,0,1,0,1.65-.1s1.39-.12,1.63-.12c3.31,0,4.57,1.85,4.57,3.36A3.61,3.61,0,0,1,214.52,52c2.25,4.31,3.8,6.14,5.83,6.3v.52c-1.95,0-4.77,0-8.07-6.58a11.71,11.71,0,0,1-1.21-.08c0,.44,0,.81,0,1.93a11.54,11.54,0,0,0,.26,3.1,2.31,2.31,0,0,0,1.35.61l-.08.48c-.64-.08-1-.1-1.33-.12s-.64,0-1.2,0a19.26,19.26,0,0,0-2.48.14ZM212.3,46c-1.05,0-1.05.26-1.11,1.55-.08,1.91-.08,2.16-.06,3.91a3.55,3.55,0,0,0,.93.08c1,0,3,0,3-2.58a2.79,2.79,0,0,0-2.8-3"/><path class="cls-3" d="M220.41,54.72a2.88,2.88,0,0,0,2,2.31,7.34,7.34,0,0,0,2.77.65,1.87,1.87,0,0,0,2-2.08c0-1.65-1.41-2.25-3.22-2.87s-3.35-1.47-3.35-3.63,1.74-3.58,4.21-3.58c.45,0,2.46.24,2.78.24a1,1,0,0,0,.56-.14l.35.08c0,.14-.08,1.13-.08,1.17s0,1.13,0,1.17v.6H228c-.46-2.58-3.18-2.58-3.44-2.58a2.08,2.08,0,0,0-2.29,2.2c0,1,.4,1.75,2.81,2.59,1.63.61,3.85,1.43,3.85,4,0,1.33-.73,3.52-4.59,3.52a13.81,13.81,0,0,1-2.88-.32s-.18,0-.24,0-.2.1-.2.18h-.55a16.06,16.06,0,0,0-.56-3.32Z"/><path class="cls-3" d="M229.57,57.66c.69-.08,1.59-.16,1.87-.65.39-.68.39-4,.39-5.11,0-.93,0-4.71-.3-5.29-.11-.21-.27-.55-1.8-.55l0-.54,1.78,0c.74,0,1.42.06,1.53.06.5,0,2.27-.06,2.79-.08v.62c-1,0-1.31.06-1.53.3-.48.55-.48,4-.48,5s0,4.73.12,5.31.26.73,1.77.85l0,.5-3.2,0c-1.51,0-2.29,0-2.92,0Z"/><path class="cls-3" d="M248.6,47.07a5.84,5.84,0,0,0-3-.52,6.42,6.42,0,0,0-1.27.06c-.08,1.75-.16,5.17-.16,8.63,0,2.14.18,2.18,1.08,2.36.73.1.81.1,1,.14l-.06.5c-.32,0-1.75-.12-2-.12a19,19,0,0,0-4.21.32l-.18-.52a6.33,6.33,0,0,0,2-.73,33.87,33.87,0,0,0,.26-5.09,41.6,41.6,0,0,0-.2-5.49c-.56,0-.82-.06-1.87-.06-2.56,0-2.72.36-3,1.18l-.5-.12a22.64,22.64,0,0,0,.8-2.31h.34a1.93,1.93,0,0,0,.81.24c.8.1,3.8.1,4.85.1,1.47,0,4.41,0,5.66-.08a.75.75,0,0,0,.46-.12l.3.18a8.47,8.47,0,0,0-.56,2.11l-.61.1Z"/><path class="cls-3" d="M258.5,52.24c0,.77,0,4.43.08,4.83s1.23.67,1.67.73l0,.46c-.67-.06-1.71-.16-2.56-.16-.46,0-2.51.16-2.92.16l0-.46c1.25-.1,1.45-.38,1.57-.79s.12-3.2.12-3.9c0-.24,0-.34,0-.71a52.37,52.37,0,0,0-3.24-4.65c-.76-.94-1.37-1.69-2.63-1.69l-.08-.48,1.34,0,1.37,0,2.76,0-.08.54c-.18,0-1.07,0-1.07.37a32.38,32.38,0,0,0,3.43,4.89c2.53-4,2.65-4.17,2.65-4.61,0-.61-.68-.61-1.24-.63l.06-.58,1,0c.4,0,.87,0,1.21,0l2,0,0,.64c-1.39,0-2.11.55-4.53,4.61Z"/><polygon class="cls-3" points="164.85 21.95 161.61 20.24 138.08 20.24 141.67 22.06 164.85 21.95"/><path class="cls-3" d="M141.46,33.47h22.68V22.56H141.46Zm4.42-1.62h-2.07V28.53h2.07Zm0-4.77h-2.07V24h2.07Zm5.79,4.77H149.6V28.53h2.07Zm0-4.77H149.6V24h2.07Zm5.61,4.77H155.2V28.53h2.08Zm0-4.77H155.2V24h2.08Zm5.38,4.77h-2.07V28.53h2.07Zm0-4.77h-2.07V24h2.07Z"/><polygon class="cls-3" points="99.36 21.95 102.59 20.24 126.12 20.24 122.53 22.06 99.36 21.95"/><path class="cls-3" d="M100.05,33.47h22.69V22.56H100.05Zm3.56-1.62h-2.07V28.53h2.07Zm0-4.77h-2.07V24h2.07ZM109,31.85h-2.08V28.53H109Zm0-4.77h-2.08V24H109Zm5.6,4.77h-2.07V28.53h2.07Zm0-4.77h-2.07V24h2.07Zm5.8,4.77h-2.08V28.53h2.08Zm0-4.77h-2.08V24h2.08Z"/><polygon class="cls-3" points="130.18 5.16 132.01 0 133.86 5.15 130.18 5.16"/><path class="cls-3" d="M132,9.93l2.13,0c.28,0,.45.1.45.35v1.34c0,.15-.13.2-.26.2h-4.44c-.2,0-.45-.05-.45-.36s0-.9,0-1.11.13-.42.31-.42l2.28,0"/><path class="cls-3" d="M133.61,5.83H132l-1.6,0a.53.53,0,0,0-.5.43V9.46h4.25v-3a.68.68,0,0,0-.51-.63M132.84,8a.84.84,0,0,1-.84.83.83.83,0,0,1-.83-.83V7.55a.83.83,0,0,1,.83-.83.84.84,0,0,1,.84.83Z"/><path class="cls-3" d="M133.12,20.18a1.1,1.1,0,1,1-1.1-1.11,1.1,1.1,0,0,1,1.1,1.11"/><path class="cls-3" d="M142.79,34.56V33.7l-.44-.28h-.42l-.27-.24v-11c0-.43-.61-.62-1.18-.86s-3.72-1.71-4-1.85-.72-.46-.72-.56V17.41c0-.38-.13-.39-.49-.39H132L129,17c-.41,0-.6.11-.6.32v.94c0,.36,0,.7-.11.8s-1,.5-1.45.72-3.49,1.46-3.8,1.6-.63.18-.63.56S122.31,33,122.31,33l-.28.34h-.4l-.47.26v.43H121v1h22v-.45ZM140.45,23.4c0,.59,0,7.86,0,8.18s0,.72-.66.72-.75-.24-.75-.66V23.39a.61.61,0,0,1,.68-.64c.35,0,.78.06.78.65M124.9,21.05c.35-.16,3.8-1.62,4.38-1.85l1.9-.75a2.39,2.39,0,0,1,.84-.25,40.25,40.25,0,0,1,4.18,1.64c.86.36,2.37,1.05,2.76,1.28s.4.34.38.45-.13.24-.44.24l-6.89,0-7.26-.05c-.27,0-.42-.07-.42-.23s.22-.29.57-.45m12.79,2.35c0,.59,0,7.86,0,8.18s-.05.72-.67.72-.75-.24-.75-.66V23.39a.61.61,0,0,1,.68-.64c.35,0,.78.06.78.65m-3.27,0c0,.59,0,7.86,0,8.18s0,.72-.67.72-.74-.24-.74-.66V23.39a.61.61,0,0,1,.68-.64c.35,0,.77.06.77.65m-3.26,0c0,.59,0,7.86,0,8.18s-.05.72-.67.72-.75-.24-.75-.66V23.39a.61.61,0,0,1,.68-.64c.35,0,.78.06.78.65m-2.89,0c0,.59,0,7.86,0,8.18s0,.72-.67.72-.75-.24-.75-.66V23.39a.61.61,0,0,1,.68-.64c.35,0,.78.06.78.65m-4.5,0a.61.61,0,0,1,.68-.64c.35,0,.77.06.77.65s0,7.86,0,8.18,0,.72-.67.72-.74-.24-.74-.66Zm-1.39,9.93h19v.17h-19Zm-.82.62h20.68a.18.18,0,0,1,.18.17.18.18,0,0,1-.18.18H121.56a.18.18,0,0,1-.18-.18.18.18,0,0,1,.18-.17m21,.81H121.39a.09.09,0,0,1,0-.18h21.13a.09.09,0,0,1,0,.18"/><path class="cls-3" d="M135.32,12.4h-6.7c-.19,0-.25.12-.25.31s0,3,0,3.18,0,.54.18.54h6.85c.21,0,.31,0,.31-.2V12.81c0-.34-.14-.41-.38-.41M132,16.07a1.24,1.24,0,1,1,1.24-1.24A1.24,1.24,0,0,1,132,16.07"/></g></svg>