<svg id="Layer_1" data-name="Layer 1" xmlns="http://www.w3.org/2000/svg" viewBox="0 0 2762.88 1188.27"><defs><style>.cls-1{fill:#006a40;}</style></defs><path class="cls-1" d="M1135.13,1866a18.15,18.15,0,0,1-11.79,5.76c-20.22.49-31.52-16.08-86.94-14.72a121.18,121.18,0,0,0-120.71,121.66c0,.54,0,1.08,0,1.62,1.69,62.22,50.35,115.71,133.84,113.7,46.07-1.09,68.09-17.51,90.17-18a378,378,0,0,1,7.35-61.74l-9-.81c-8.31,38.43-29.55,70.9-85,72.23-65.54,1.59-94-52.1-95.43-104.67-1.45-54,17.52-114.25,86.43-116,52-1.2,82.68,22.82,91,69.36l9-.21c-.67-11.34-1.74-22.32-2-33.66-.3-11-.21-22.37.21-33.37Z" transform="translate(-118.56 -905.86)"/><path class="cls-1" d="M2683.52,1863.89c-36.11,0-62.42,1.88-98.51,1.88H2374.93c-36.09,0-62.44-1.88-98.51-1.88,0,4.11-4.9,34.14-6.1,52.34a119.28,119.28,0,0,0-106-55.81c-78,0-122.46,57.22-122.46,115.45a115.23,115.23,0,0,0,8.12,42.42h-7.38c-10.94,50.57-16,58.21-57.94,58.21h-33.12a17.1,17.1,0,0,1-20-18V1883.78c0-9,15.83-9.35,38.61-12v-8h-110v8c19.22,3.08,35,3,35,12v175.1c0,13.76-11.08,19.5-34.08,19.5-20.66-.09-34-5.77-35.48-29.29-3.64-58.21-19.3-72.6-60.47-80.93v-1.7c29.88-5.36,55.74-21.06,55.74-52.52,0-30.79-24.4-50.18-67.42-50.18-21.13,0-105.31.7-120.58-1v9c18.9,3.08,35,3,35,12v180.33c0,11.8-9.51,14.93-28.73,14.36s-26.08-4.1-31.14-16.91l-81.61-201.71h-8l-83.07,201c-4,10.4-15.23,17.79-35.66,17.79-17.67,0-25.66-2.23-25.66-14.56V1883.78c0-9,16-11.34,34.59-12v-8h-103.7v8c19,.68,35,3,35,12v83.33H1224.94v-83.35c0-9,16-11.34,35.34-12v-8H1157.14v8c17.44.68,33.5,3,33.5,12v182.66c0,9-16,11.59-36.07,12.25v9.17H1259.9v-9.17c-19-.66-35-3.25-35-12.25v-91.33h114.78v92.66c0,9-16,10.2-35.73,10.87v9.23s174.11.2,174.32,0-.21-9.17-.21-9.17c-28.26-1.22-28.73-6-28.73-10.06a25.38,25.38,0,0,1,2.17-9l20.44-51.85c1.42-3.67,4.37-6,14.54-6h59.41l22.57,60.54a21.59,21.59,0,0,1,2.17,8.67c0,5.36-13.48,7-28,7.72v9.17H1739.9v-9.3c-22-.46-35.72-2.25-35.72-14.1v-91.24h22.57c40.42,0,60.87,6,60.87,59.19,0,39.81,11.66,55.52,48.81,55.52h214.51s2.64-38.1,4.06-58.68a118.33,118.33,0,0,0,109.3,62c78.35,0,122.8-57.17,122.8-115.36a115.26,115.26,0,0,0-12.87-52.87h6.1c6.22-36.48,9.38-47.84,80.51-47.84v191.58c0,9-16,11.36-37.13,12.05v9.1H2433.4v-9.17c-21.12-.68-37.17-3-37.17-12.05V1875.13c7.32,0,18.15,0,24.11.09,52,.77,50.89,6.16,56.43,38.92h5.9v-.32c5.61-33,5.28-38,60-38.62,5.13-.06,14.45-.07,20.52-.07v191.58c0,9-16.06,11.36-37.19,12.05v9.1h110.24v-9.11c-21.09-.68-37.16-3-37.16-12.05V1875.13c71.18,0,74.34,11.35,80.56,47.84h10.19C2689.82,1906.9,2683.52,1868.53,2683.52,1863.89ZM1484.28,1991.64a2.92,2.92,0,0,1-3.24-2.54,3.7,3.7,0,0,1,0-.47,22.07,22.07,0,0,1,1.82-7.7l27.32-70.23h.74l31.72,81.93Zm236.26-26.54h-16.41v-93.33h31.38c31.66,0,55.75,14.37,55.75,44.82C1791.26,1952.74,1759.55,1965.1,1720.54,1965.1Zm443.75,118.1c-51.05,0-81.62-39.43-81.62-107.37s30.58-107.44,81.62-107.44c51.38,0,82,39.47,82,107.42s-30.62,107.39-82,107.39Z" transform="translate(-118.56 -905.86)"/><path class="cls-1" d="M2869.46,2023.33c-8.39,41.46-18.94,53.15-44.49,53.15h-45.5c-13.85,0-21.08-6-21.08-17.36v-82.3h24.76c30.24,0,39.35.14,39.35,33.91h12.79c0-11-.36-19.17-.36-26.19,0-22.41,1.19-40.58,2-54.92h-12.79c-4.38,38.44-10.7,37.86-44.93,37.86h-20.77v-92.35h47.68c36.8,0,53.36,9,55,44.48h9.62c0-16.42-.95-58.13-.95-58.13s-168,2.75-180.6,2.35c.3,2.42.67,5.24,1.08,8.21,16.13,1,31.75,1.17,31.75,11.77v184c0,9-16.07,10.34-36.85,11v9.05h191.6l4.73-64.53Z" transform="translate(-118.56 -905.86)"/><path class="cls-1" d="M806.8,2076a378.28,378.28,0,0,1,7.36-61.75l-9-.81c-8.3,38.43-29.53,70.91-85,72.23-65.52,1.6-93.94-52.09-95.37-104.66-1.46-54,17.5-114.25,86.41-116,52-1.2,82.67,22.82,91,69.36l9-.21c-.67-11.34-1.75-22.32-2.06-33.66-.33-11-.22-22.37.19-33.37l-7.19-1.18a18.16,18.16,0,0,1-11.77,5.77c-20.18.5-31.52-16.07-86.93-14.69a121.16,121.16,0,0,0-120.7,121.61c0,.56,0,1.12,0,1.67,1.7,62.22,50.35,115.71,133.83,113.7C762.7,2093,784.74,2076.53,806.8,2076Z" transform="translate(-118.56 -905.86)"/><path class="cls-1" d="M586.29,1863.91l-70.86-.22v8.46c31.08,3.38,32.84,4.06,32.84,35.92v133.74h-.71L411,1863.78l-134.7-.09v9.46c30,2.37,34.89,4.1,34.89,35.55v82c0,49.12-18.47,88.75-62.83,88.75-1.46,0-8.83,0-10.27-.13-32.91-2.12-55.41-28.68-55.41-76.42V1901.6c0-26.76,4.88-27.31,32.84-29.35v-8.55l-97,.07v8.5c24.79,1.33,29.32,2.57,29.32,25.29v100.93c0,66,39.8,92.79,83.44,92.79,2.32,0,10.53-.06,12.75-.16,56.16-2.79,79.42-40.09,79.42-98.42v-82c0-30.12,11.68-38.92,32.69-38.92a28,28,0,0,1,30.21,25.5,28.73,28.73,0,0,1-.1,5.64v137.18c0,34.22-4.91,36.26-33.17,38.61v9l74.05.12v-9c-29.33-3.08-31.07-6.23-31.07-24.52V1901.6h.65l147,186.28H558v-192c0-21,4.17-21.68,28.27-24v-7.9h0Z" transform="translate(-118.56 -905.86)"/><polygon class="cls-1" points="1505.61 121.38 1380.95 0 1256.33 121.38 1380.95 242.8 1505.61 121.38"/><polygon class="cls-1" points="1171.51 399.7 1351.36 784.79 1266.91 248.42 891.33 248.42 985.89 399.7 1171.51 399.7"/><polygon class="cls-1" points="991.58 591.24 1232.92 821.16 1012.76 444.3 723.03 444.3 871.63 591.24 991.58 591.24"/><polygon class="cls-1" points="1410.55 784.79 1590.44 399.7 1776.06 399.7 1870.62 248.42 1495.05 248.42 1410.55 784.79"/><polygon class="cls-1" points="1750.15 444.3 1530.01 821.16 1771.29 591.24 1891.26 591.24 2039.84 444.3 1750.15 444.3"/><polygon class="cls-1" points="948.41 673.43 826.96 673.45 994.75 834.7 1115.2 834.7 948.41 673.43"/><polygon class="cls-1" points="1645.75 834.7 1766.19 834.7 1934 673.45 1812.55 673.43 1645.75 834.7"/></svg>