<svg id="Layer_1" data-name="Layer 1" xmlns="http://www.w3.org/2000/svg" viewBox="0 0 219.8 121.1"><defs><style>.cls-1{fill:#03577e;}.cls-2{fill:#b9a030;}</style></defs><title>MC_Logo-cropped</title><path class="cls-1" d="M219.8,64.7v6.5h-2.9c-0.4-2.7-1-3.3-3.9-3.3h-1.6V86.7c0,1.9.6,2.4,3,2.6l-0.2,2.3c-2.8-.2-3.9-0.3-5.1-0.3s-2.3.1-5.1,0.3l-0.2-2.3c2.4-.1,3-0.6,3-2.6V67.9h-1.5c-2.8,0-3.6.6-3.9,3.3h-2.9V64.7h21.3Z"/><path class="cls-2" d="M104.1,31.5a26.9,26.9,0,0,1,5.7-.6,31.89,31.89,0,0,1,5.4.5l8.7-29.5A47.09,47.09,0,0,0,109.8,0,47.06,47.06,0,0,0,95.3,2Z"/><path class="cls-2" d="M118,32.2a25.94,25.94,0,0,1,7.3,3.5l18.3-19.9a54.19,54.19,0,0,0-17.7-8.7Z"/><path class="cls-2" d="M127.5,37.5a20.53,20.53,0,0,1,5.1,6.3l25.8-10.7A48.41,48.41,0,0,0,146.1,18Z"/><path class="cls-2" d="M135.4,54.5a20.33,20.33,0,0,0-1.6-8.2l26-10.2a45.28,45.28,0,0,1,3.9,18.4H135.4Z"/><path class="cls-2" d="M84.1,54.5a20.19,20.19,0,0,1,1.6-8.1L59.8,36.1a45.64,45.64,0,0,0-3.9,18.4H84.1Z"/><path class="cls-2" d="M86.9,43.7A21.69,21.69,0,0,1,92,37.5L73.4,18A47.83,47.83,0,0,0,61.2,33.1Z"/><path class="cls-2" d="M94.2,35.7a25.51,25.51,0,0,1,7-3.5l-7.8-25a54,54,0,0,0-17.5,8.6Z"/><path class="cls-1" d="M33.3,67c-2,.1-3.1.8-3.1,1.9a2,2,0,0,0,.1.8L32.9,87c0.2,1.6.7,1.8,3,2.1l-0.2,2.3a31,31,0,0,0-4.3-.2c-1.4,0-2.8,0-5.8.2l-0.2-2.3c2.3-.2,3.4-0.8,3.4-1.7a12.35,12.35,0,0,0-.2-1.8L26.9,73.5c-0.1-.4-0.1-0.7-0.2-1.3-0.2.5-.2,0.7-0.3,0.9l-7,18.5H16.1L9.3,73.4A9.44,9.44,0,0,1,9,72.5a5.28,5.28,0,0,1-.1,1.3L7.3,86.2l-0.1.4a7.75,7.75,0,0,1-.1.9c0,1,1,1.6,3.4,1.8l-0.2,2.3c-3.4-.2-4.6-0.2-5.6-0.2-1.4,0-2.6.1-4.5,0.2L0,89.3c2-.1,2.7-0.6,3-1.8L5.6,70.1A4.48,4.48,0,0,0,5.7,69c0-1.2-1-1.8-3.1-1.9l0.2-2.3c2.5,0.2,3.8.2,5,.2a18.48,18.48,0,0,0,2.3-.1l6.5,16.7A17.88,17.88,0,0,1,18,86.2a33.67,33.67,0,0,1,1.4-4.6l6.3-16.7a12.75,12.75,0,0,0,1.9.1c1.1,0,2.3,0,5.3-.2Z"/><path class="cls-1" d="M63.6,78c0,8.3-5.5,14-13.7,14S36.2,86.3,36.2,78a14.22,14.22,0,0,1,4.4-10.7A14.13,14.13,0,0,1,50.2,64c7.9,0.1,13.4,5.8,13.4,14m-22.5.1c0,6.4,3.3,10.5,8.6,10.5A8.44,8.44,0,0,0,56,86c1.5-1.7,2.5-4.9,2.5-7.9,0-6.3-3.5-10.5-8.7-10.5-5.4-.1-8.7,3.9-8.7,10.5"/><path class="cls-1" d="M94.6,67c-2.5.2-3.1,0.6-3.1,2.5V91.2l-4,.5L74.2,73.1a14,14,0,0,1-1-1.6V86.7c0,1.9.6,2.4,3.1,2.6l-0.2,2.3c-2.9-.2-4-0.2-5-0.2s-2,0-4.9.2L66,89.3c2.5-.2,3.1-0.6,3.1-2.6V69.5c0-1.8-.7-2.4-3.1-2.5l0.2-2.3c2.5,0.2,4.1.2,4.7,0.2h2.5L85.1,81.2a19,19,0,0,1,1.7,2.7c0.1,0.1.2,0.4,0.5,0.8-0.1-2.2-.1-3.1-0.1-4.5V69.5c0-1.8-.8-2.4-3.1-2.5l0.2-2.3c2.1,0.1,4.3.2,5.1,0.2s1.9,0,4.7-.2Z"/><path class="cls-1" d="M118.8,64.7v6.5h-2.9c-0.4-2.7-1-3.3-3.9-3.3h-1.6V86.7c0,1.9.6,2.4,3,2.6l-0.2,2.3c-2.8-.2-3.9-0.3-5.1-0.3s-2.3.1-5.1,0.3l-0.2-2.3c2.4-.1,3-0.6,3-2.6V67.9h-1.5c-2.9,0-3.6.6-3.9,3.3H97.5V64.7h21.3Z"/><path class="cls-1" d="M146.8,92.2h-1.2c-4.6,0-8.9-3.9-13.3-12h-2.8v6.5c0,1.8.6,2.3,3,2.5l-0.2,2.3c-2.9-.2-4-0.2-5.2-0.2s-2.4,0-5.1.2l-0.2-2.3c2.4-.2,3-0.7,3-2.5V69.5c0-1.8-.8-2.4-3-2.5l0.2-2.3h10.2c6.9,0,9.9,2.4,9.9,7.8,0,3.5-1.6,5.8-5.1,7,4.7,7.1,7.2,9.8,9.7,10.2ZM131.2,77c4.1,0,6.1-1.5,6.1-4.7,0-3-1.7-4.3-5.7-4.3h-2.3v9h1.9Z"/><path class="cls-1" d="M163.8,88.2a4.18,4.18,0,0,0,3.7-2.5l2.7,0.2-1.6,5.6H149.5l-0.2-2.3c2.4-.2,3-0.7,3-2.5V69.5c0-1.8-.8-2.4-3-2.5l0.2-2.3h19.4v6.5H166c-0.4-2.7-1.1-3.3-3.9-3.3h-4.9v8.4H167v3.3h-9.8v8.7h6.6V88.2Z"/><path class="cls-1" d="M196.8,86.5c0.9,2.4,1.1,2.6,3.5,2.7l-0.2,2.3c-2.8-.2-3.9-0.2-5.1-0.2s-2.3,0-5.2.2l-0.2-2.3h0.3c1.8-.1,2.6-0.4,2.6-1.1a4.35,4.35,0,0,0-.4-1.6l-1.2-3.7h-9.6l-1.4,4.1a2.34,2.34,0,0,0-.2,1.1c0,0.6.8,1,2.2,1.2a5.38,5.38,0,0,1,.8.1l-0.2,2.3c-3.2-.2-4.2-0.2-5.1-0.2s-2.1,0-5,.2l-0.2-2.3c2.2,0,2.6-.5,4.1-4.1,0.2-.6,1-2.5,2.3-5.3,0.1-.2,2.6-6.6,5.7-14.5l4.7-1.3Zm-7.1-7-3.3-10.4-4.1,10.4h7.4Z"/><path class="cls-1" d="M65.8,119.2a10.17,10.17,0,0,1-6.1,1.8c-3.1,0-5.3-.9-7-2.9a9,9,0,0,1-2.2-6.5c0-6.3,3.5-10.1,9.4-10.1a14.12,14.12,0,0,1,5.6,1.2v4H64c-0.2-1.5-.4-1.9-1-2.4a5,5,0,0,0-3.1-.8,5.64,5.64,0,0,0-5.3,2.8,9.87,9.87,0,0,0-1.2,5.1c0,4.6,2.6,7.6,6.7,7.6a9.76,9.76,0,0,0,5-1.3Z"/><path class="cls-1" d="M86.5,111.2c0,5.8-3.9,9.7-9.6,9.7s-9.4-3.9-9.4-9.7,3.8-9.8,9.6-9.8c5.6,0.1,9.4,3.9,9.4,9.8m-14.9-5a9.63,9.63,0,0,0-1.2,5.1c0,4.9,2.4,7.8,6.4,7.8,4.2,0,6.7-3,6.7-7.8s-2.6-7.9-6.6-7.9a5.66,5.66,0,0,0-5.3,2.8"/><path class="cls-1" d="M96.2,103.1c-1.9.1-2.3,0.5-2.3,1.9v13.9h4.4a3.34,3.34,0,0,0,2.9-1.8l1.4,0.1-1,3.4H89.1L89,119.4c1.8-.1,2.3-0.4,2.3-1.8V105c0-1.3-.5-1.7-2.3-1.9l0.1-1.2c1,0.1,2.9.2,3.6,0.2s2.5-.1,3.5-0.2v1.2Z"/><path class="cls-1" d="M111.6,103.1c-1.9.1-2.3,0.5-2.3,1.9v13.9h4.4a3.34,3.34,0,0,0,2.9-1.8l1.4,0.1-1,3.4H104.5l-0.1-1.2c1.8-.1,2.3-0.4,2.3-1.8V105c0-1.3-.5-1.7-2.3-1.9l0.1-1.2c1,0.1,2.9.2,3.6,0.2s2.5-.1,3.5-0.2v1.2Z"/><path class="cls-1" d="M134.1,117.2l-1,3.4H119.6l-0.1-1.2c1.8-.2,2.3-0.6,2.3-1.9V104.9c0-1.3-.5-1.8-2.3-1.9l0.1-1.2h13.5v4h-1.5c-0.3-1.9-.8-2.4-3.1-2.4h-3.9v6.7h7.1v1.8h-7.1v6.9h5.2a3.08,3.08,0,0,0,2.8-1.8Z"/><path class="cls-1" d="M151.3,106.6h-1.4c-0.2-1.4-.4-1.9-1-2.4a5,5,0,0,0-3.3-.9,5.62,5.62,0,0,0-4.7,2,10,10,0,0,0-1.8,6c0,4.6,2.6,7.6,6.8,7.6a8.72,8.72,0,0,0,3.1-.5v-3.2c0-1.2-.6-1.6-2.4-1.6l0.1-1.3c1.4,0.1,2.1.1,2.9,0.1a28.32,28.32,0,0,0,3.3-.1l0.1,1.4c-1.3.2-1.5,0.4-1.5,1.6v4.8a16.47,16.47,0,0,1-5.8,1c-6,0-9.6-3.6-9.6-9.6,0-6.3,3.5-10,9.5-10a13.42,13.42,0,0,1,5.6,1.2v3.9h0.1Z"/><path class="cls-1" d="M169.7,117.2l-1,3.4H155.2l-0.1-1.2c1.8-.2,2.3-0.6,2.3-1.9V104.9c0-1.3-.5-1.8-2.3-1.9l0.1-1.2h13.5v4h-1.5c-0.3-1.9-.8-2.4-3.1-2.4h-3.9v6.7h7.1v1.8h-7.1v6.9h5.2a3.08,3.08,0,0,0,2.8-1.8Z"/></svg>