<?xml version="1.0" encoding="utf-8"?>
<!-- Generator: Adobe Illustrator 26.0.3, SVG Export Plug-In . SVG Version: 6.00 Build 0)  -->
<svg version="1.0" id="Layer_1" xmlns="http://www.w3.org/2000/svg" xmlns:xlink="http://www.w3.org/1999/xlink" x="0px" y="0px"
	 viewBox="0 0 631.5 475.6" style="enable-background:new 0 0 631.5 475.6;" xml:space="preserve">
<style type="text/css">
	.st0{clip-path:url(#SVGID_00000146461338191625110450000011618074842975000983_);}
	.st1{fill:#242F63;}
	.st2{fill:#FFFFFF;}
</style>
<g>
	<defs>
		<rect id="SVGID_1_" x="71.5" y="166.6" width="488.5" height="142.4"/>
	</defs>
	<clipPath id="SVGID_00000162321915240859531970000013100542412682830219_">
		<use xlink:href="#SVGID_1_"  style="overflow:visible;"/>
	</clipPath>
	<g style="clip-path:url(#SVGID_00000162321915240859531970000013100542412682830219_);">
		<path class="st1" d="M232.6,191.2v2.1H232h-0.5c-1.3-0.2-2.6,0.5-3.3,1.6c-0.6,1.1-0.9,3.6-0.9,7.5v11.1c0,2.4,0.1,4.9,0.3,7.3
			c0.1,1.3,0.5,2.6,1,3.9c0.9,2.1,2.4,3.8,4.4,5c2.1,1.2,4.6,1.8,7,1.7c1.8,0,3.7-0.3,5.4-0.9c1.5-0.6,2.9-1.5,4-2.7
			c1.1-1.3,1.9-2.8,2.3-4.5c0.5-2.9,0.8-5.9,0.7-8.9c0-5-0.1-9.1-0.2-12.5c0-2.1-0.1-4.1-0.4-6.1c-0.2-0.8-0.7-1.5-1.3-1.9
			c-0.9-0.4-1.9-0.6-2.9-0.6h-0.5v-2.1h1.1c2.8,0.1,4.8,0.2,6,0.2s3.2-0.1,6-0.2h1.1v2.1H261c-0.9,0-1.8,0.1-2.7,0.5
			c-0.6,0.3-1.1,0.9-1.3,1.5c-0.3,1.5-0.5,3.1-0.5,4.6c-0.1,2.5-0.2,6.6-0.2,12.2v3.1c0,2.5-0.1,4.9-0.4,7.4c-0.2,1.5-0.6,3-1.2,4.5
			c-1.2,2.7-3.2,5-5.9,6.4c-3,1.6-6.4,2.4-9.9,2.3c-2.5,0-4.9-0.4-7.2-1.1c-2.1-0.7-4-1.9-5.6-3.4c-1.7-1.5-2.9-3.4-3.6-5.5
			c-0.8-2.9-1.2-5.8-1.1-8.8c0-1.5,0-3.9,0.1-7.2s0.1-5.9,0.1-7.8V201c0-3.5-0.3-5.6-0.9-6.5s-1.7-1.2-3.4-1.2h-0.5v-2.1
			c1.4,0.1,2.8,0.1,4.1,0.2c1.3,0.1,2.5,0.1,3.6,0.1c1.3,0,2.6,0,4-0.1S231.3,191.3,232.6,191.2"/>
		<path class="st1" d="M264.6,200.8c0.6,0,1.5,0.1,2.8,0.1s2.2,0.1,2.8,0.1s1.4,0,2.6-0.1s2.1-0.1,2.7-0.1c0.3,0.7,0.6,1.3,1,1.9
			c0.5,0.8,1.1,1.5,1.7,2.2l17.5,20.6c0-2.1,0-4.8-0.1-8.2c-0.1-7.6-0.2-11.7-0.4-12.4c-0.1-0.6-0.5-1.2-1.1-1.6
			c-0.7-0.3-1.6-0.5-2.4-0.4H291v-2.1l3.9,0.2c0.9,0,1.7,0.1,2.2,0.1s1.5,0,2.5-0.1l3.7-0.2v2.1H303c-0.8,0-1.5,0.1-2.2,0.3
			c-0.5,0.2-0.8,0.7-1,1.2c-0.3,0.8-0.4,4.3-0.6,10.7v0.4l-0.1,5.2c0,2,0,3.8-0.1,5.6s0,3.2,0,4.4c0,0.8,0,1.5,0.1,2.2
			c0.1,0.7,0.1,1.4,0.2,2.1h-4.7c-0.2-0.5-0.5-0.9-0.8-1.4c-0.4-0.5-1.1-1.4-2.1-2.6l-19.2-22.5c0,7.5,0,12.9,0.1,16.1
			c0,1.9,0.1,3.9,0.4,5.8c0.1,0.6,0.5,1.2,1.1,1.6c0.7,0.3,1.5,0.5,2.4,0.4h0.7v2.1c-1.8-0.1-3.2-0.2-4.1-0.2s-1.7,0-2.3,0
			c-0.6,0-1.2,0-2.1,0s-2.3,0.1-4.2,0.2v-2.1h0.4h0.6c2.3,0,3.4-3.1,3.5-9.4c0-1.4,0-2.5,0-3.2l0.1-5.1c0-1,0-2.5,0-4.4
			s0.1-3.2,0.1-3.7c0.1-1.1-0.2-2.2-0.8-3.1c-0.8-0.6-1.9-0.9-2.9-0.8h-0.4h-0.4L264.6,200.8z"/>
		<path class="st1" d="M308.5,200.8c1.6,0.1,3,0.2,4.3,0.2s2.5,0.1,3.5,0.1s2.1,0,3.4-0.1s2.6-0.1,4.1-0.2v2.1h-0.5
			c-0.8,0-1.6,0.1-2.3,0.3c-0.5,0.3-0.8,0.7-1,1.2c-0.2,0.9-0.4,1.9-0.4,2.9c-0.1,1.4-0.1,4-0.1,7.8v9.8c0,2.2,0,3.8,0.1,4.6
			c0,0.7,0.2,1.3,0.5,1.9c0.2,0.4,0.6,0.7,1.1,0.9c0.8,0.2,1.5,0.3,2.3,0.3h0.6v2.1c-1.7-0.1-3.3-0.2-4.6-0.2s-2.4-0.1-3.4-0.1
			s-1.9,0-3.3,0.1c-1.3,0.1-2.9,0.1-4.6,0.2v-2.1h0.6c0.8,0,1.6-0.1,2.4-0.3c0.5-0.1,0.8-0.4,1.1-0.9c0.3-0.7,0.5-1.4,0.5-2.2
			c0.1-1,0.1-2.8,0.1-5.5v-13.9c0-2,0-3.3-0.1-4.1c0-0.6-0.2-1.2-0.5-1.8c-0.2-0.4-0.6-0.7-1.1-0.8c-0.7-0.2-1.5-0.3-2.2-0.3h-0.5
			L308.5,200.8z"/>
		<path class="st1" d="M328.4,200.8l2.3,0.1c2.5,0.1,4.1,0.2,5,0.2c1.1,0,3.2-0.1,6.1-0.2l1.8-0.1v2.1c-1-0.1-2,0.1-2.9,0.5
			c-0.5,0.4-0.8,1-0.7,1.6c0,0.4,0.1,0.8,0.2,1.1c0.1,0.5,0.3,1.2,0.6,2.1l6.9,19.4l0.1-0.4c5.5-13.6,8.2-21.1,8.2-22.4
			c0.1-0.6-0.2-1.2-0.7-1.6c-0.9-0.4-1.8-0.5-2.8-0.5v-2c0.3,0,0.6,0,1.1,0c2.4,0.2,4.1,0.2,5.1,0.2c0.8,0,2.3-0.1,4.6-0.2l1.6-0.1
			v2.1c-0.5,0-1.1,0-1.6,0.1c-0.4,0.1-0.8,0.2-1.2,0.4c-0.6,0.4-1.6,2.3-3.1,5.9l-1.5,3.5c-3.3,7.7-5.6,13.2-7,16.6
			c-0.8,1.8-1.5,3.7-2.1,5.6h-4.9c-0.8-2.8-1.7-5.6-2.7-8.3c-1.8-5.1-4-10.8-6.4-17.1l-0.6-1.4c-1.5-3.7-3.1-5.6-4.9-5.6h-0.3h-0.3
			L328.4,200.8z"/>
		<path class="st1" d="M369.9,200.7c2.7,0.1,5.2,0.2,7.5,0.2c2.3,0.1,4.3,0.1,6,0.1c2.9,0,5.4,0,7.4-0.1c2-0.1,3.9-0.1,5.6-0.2
			c0,1.4,0.1,2.7,0.2,4.1s0.2,2.7,0.4,4.1l-2.1,0.3c-0.2-2-0.9-3.3-2-4s-3.3-1-6.5-1h-2.3l-3.6,0.1c0,2.1,0,4.1-0.1,6s0,3.8-0.1,5.5
			h0.7h3.4h2.8c2.2,0,3.6-0.2,4.3-0.6c0.8-0.6,1.2-1.5,1.1-2.4l1.8,0.2c0,0.8,0,1.8-0.1,3s-0.1,2-0.1,2.4s0,1,0,1.6s0,1.5,0.1,2.4
			l-2,0.1v-0.3c0.1-1.1-0.3-2.1-1.2-2.8c-0.8-0.5-2.6-0.7-5.5-0.7h-5.4v2.7c0,1.4,0,2.9,0,4.3s0,3.2,0.1,5.3
			c0.7,0.1,1.6,0.2,2.7,0.2s2.2,0.1,3.5,0.1c3.8,0,6.3-0.4,7.6-1.2s2.3-2.3,3-4.6l2.2,0.7c-0.5,1.5-1,3-1.3,4.4s-0.7,2.7-0.9,4
			c-3.7-0.1-6.7-0.2-8.9-0.3c-2.2,0-4.2-0.1-5.9-0.1c-2,0-5.1,0.1-9.3,0.2l-3.4,0.1v-2.1h0.3h0.5c1.1,0.1,2.1-0.3,2.7-1.2
			c0.5-0.8,0.7-3,0.7-6.4v-4.6l0-5.3c0-0.2,0-0.6,0-1.1c0-1.9,0.1-3.3,0.1-4s0-1.5,0-2.2s0-1.2,0-1.3c0.1-1-0.2-2-0.8-2.9
			c-0.7-0.6-1.7-0.9-2.6-0.8h-0.5L369.9,200.7z"/>
		<path class="st1" d="M403.6,232.6h0.4h0.6c1,0.1,2.1-0.4,2.6-1.3c0.5-0.9,0.7-3.1,0.7-6.8v-4.3l0.1-5.3c0-1.1,0-2.2,0-3.4
			c0-1.1,0-2.4,0-4c0-2-0.2-3.3-0.7-3.9c-0.7-0.7-1.7-1-2.7-0.9H404v-2.1l4.2,0.2c1.1,0,2.1,0.1,2.9,0.1c1.2,0,2.6,0,4.4-0.1
			s2.9-0.1,3.5-0.1c3.9,0,7,0.8,9.3,2.4c2.2,1.5,3.5,4,3.4,6.7c0,1.8-0.6,3.5-1.7,4.9c-1.4,1.6-3.1,2.9-5.1,3.7l4.7,6.6
			c1.4,2.3,3,4.5,4.9,6.5c0.9,0.8,2.1,1.3,3.3,1.3h0.3h0.3v2c-1,0.1-1.8,0.1-2.5,0.2c-0.7,0-1.3,0.1-1.9,0.1
			c-1.5,0.1-3.1-0.2-4.5-0.6c-1.2-0.5-2.2-1.2-3-2.2c-0.4-0.5-1.4-2.1-3-4.7c-1.6-2.7-3-4.9-4.3-6.9l-2.6,0.1h-2.2v6.3
			c0,2.4,0.2,4,0.7,4.6c0.7,0.7,1.8,1.1,2.8,0.9h0.7v2.1c-1.3-0.1-2.6-0.1-3.9-0.2c-1.3,0-2.6-0.1-4-0.1c-0.4,0-1.1,0-2,0
			s-2.5,0.1-5,0.2L403.6,232.6z M414.3,217.6l2.1,0.1c0.6,0,1.1,0,1.5,0s1,0,1.6,0s1.1-0.1,1.7-0.1c1.2-0.7,2.3-1.8,3-3
			c0.7-1.2,1-2.6,1-4c0.1-1.8-0.7-3.6-2-4.8c-1.5-1.3-3.4-1.9-5.3-1.8c-0.7,0-1.3,0-1.9,0.1s-1.1,0.1-1.6,0.2c0,1.7,0,3.5,0,5.4
			S414.4,214.2,414.3,217.6"/>
		<path class="st1" d="M464.8,201.8v0.5c0,1.2,0.1,2.4,0.2,3.6c0.1,1.2,0.3,2.5,0.6,3.8l-2.5,0.4c-0.1-1.8-1-3.5-2.3-4.7
			c-1.5-1.1-3.3-1.7-5.2-1.6c-1.7-0.1-3.4,0.3-4.8,1.2c-1.1,0.7-1.8,2-1.7,3.4c0,0.9,0.2,1.7,0.7,2.4c0.6,0.8,1.3,1.4,2.2,1.8
			c1.3,0.6,2.6,1.1,4,1.6c1.9,0.6,3.3,1.1,4.2,1.5c1.8,0.7,3.4,1.8,4.7,3.4c1.1,1.4,1.6,3.2,1.6,4.9c0.1,3.2-1.4,6.3-4,8.3
			c-2.7,2.1-6.3,3.1-10.8,3.1c-1.5,0-3-0.2-4.5-0.4c-1.5-0.3-3-0.7-4.4-1.3c0-0.2,0-0.4,0-0.7s0-0.5,0-0.7c0-1.2-0.1-2.5-0.2-3.7
			c-0.2-1.3-0.4-2.6-0.7-3.9l2.6-0.6c0.6,2.9,1.6,5,2.9,6.1c1.3,1.2,3.3,1.7,6,1.7c1.8,0.1,3.6-0.4,5.1-1.4c1.2-0.9,1.9-2.3,1.9-3.8
			c0-2.3-2.2-4.2-6.5-5.7c-1-0.3-1.7-0.6-2.2-0.8c-2.4-0.8-4.7-2.1-6.5-3.9c-1.3-1.5-2.1-3.5-2-5.6c-0.1-2.9,1.2-5.7,3.6-7.4
			c2.4-1.9,5.5-2.8,9.4-2.8c1.4,0,2.8,0.1,4.1,0.4C461.7,200.9,463.2,201.3,464.8,201.8"/>
		<path class="st1" d="M470.6,200.8c1.6,0.1,3,0.2,4.3,0.2s2.5,0.1,3.5,0.1s2.1,0,3.4-0.1s2.6-0.1,4.1-0.2v2.1h-0.5
			c-0.8,0-1.6,0.1-2.3,0.3c-0.5,0.3-0.8,0.7-1,1.2c-0.2,0.9-0.4,1.9-0.4,2.9c-0.1,1.4-0.1,4-0.1,7.8v9.8c0,2.2,0,3.8,0.1,4.6
			c0,0.7,0.2,1.3,0.5,1.9c0.2,0.4,0.6,0.7,1.1,0.9c0.8,0.2,1.5,0.3,2.3,0.3h0.6v2.1c-1.8-0.1-3.3-0.2-4.6-0.2s-2.4-0.1-3.4-0.1
			s-1.9,0-3.3,0.1s-2.9,0.1-4.6,0.2v-2.1h0.6c0.8,0,1.6-0.1,2.4-0.3c0.5-0.1,0.8-0.4,1.1-0.9c0.3-0.7,0.5-1.4,0.5-2.2
			c0.1-1,0.1-2.8,0.1-5.5v-13.9c0-2,0-3.3-0.1-4.1c0-0.6-0.2-1.2-0.5-1.8c-0.2-0.4-0.6-0.7-1.1-0.8c-0.7-0.2-1.5-0.3-2.2-0.3h-0.5
			L470.6,200.8z"/>
		<path class="st1" d="M498.5,232.5h0.9c0.8,0,1.6-0.1,2.3-0.4c0.5-0.2,0.9-0.7,1.1-1.2c0.2-1.1,0.3-2.1,0.3-3.2
			c0.1-1.7,0.1-4.9,0.1-9.5v-13.6h-4.1c-2.5,0-4.2,0.4-5.1,1.1s-1.5,2-1.9,4l-2.2-0.5c0.4-1.6,0.6-3.1,0.8-4.5
			c0.2-1.4,0.3-2.8,0.4-4.2c0.8,0.2,1.7,0.4,2.5,0.4c1.1,0.1,3,0.1,5.5,0.1h14.3c2.9,0,4.9,0,6.1-0.1c0.9,0,1.7-0.2,2.5-0.5v0.7
			c0,1.2,0,2.5,0.1,3.8c0.1,1.3,0.3,2.7,0.5,4.2l-2.1,0.3c-0.3-1.9-0.8-3.2-1.6-3.9c-0.8-0.7-2.5-1-4.9-1h-4.2c0,2.5-0.1,5-0.1,7.5
			s0,5.3,0,8.6v4.4c0,2.1,0,3.6,0.1,4.4c0.1,0.6,0.2,1.3,0.5,1.9c0.3,0.4,0.7,0.7,1.1,0.9c0.7,0.2,1.4,0.3,2.1,0.3h0.8v2.1l-1.8-0.1
			c-3.1-0.1-5.2-0.2-6.4-0.2c-0.8,0-1.9,0-3.2,0.1s-2.8,0.1-4.6,0.2L498.5,232.5z"/>
		<path class="st1" d="M526.7,200.8l4.4,0.2c1.2,0,2.3,0.1,3.2,0.1c0.7,0,1.5,0,2.6-0.1l4.3-0.2v2.1c-0.8,0-1.6,0.1-2.3,0.3
			c-0.4,0.1-0.7,0.5-0.7,0.9c0.1,0.9,0.5,1.8,1,2.6l0.4,0.7l5.3,9.4l1.6-2.8c3.3-5.8,5-9.1,5-9.8c0-0.4-0.2-0.8-0.5-1
			c-0.5-0.2-1.1-0.3-1.7-0.3h-0.5v-2.1l3.4,0.2c0.9,0,1.6,0.1,2.2,0.1c0.6,0,1.4,0,2.3-0.1l3.4-0.2v2.1h-0.6c-1.5,0-3.4,1.8-5.5,5.3
			c-0.5,0.8-0.9,1.4-1.1,1.9l-6.4,10.2v7.6c0,2,0.3,3.3,0.8,3.9c0.8,0.7,1.8,1,2.8,0.9h0.5c0.2,0,0.4,0,0.5,0v2.2
			c-1.7-0.1-3.3-0.2-4.7-0.2s-2.5-0.1-3.5-0.1c-1,0-2.6,0.1-5.1,0.2l-2.6,0.1v-2.2c0.1,0,0.3,0,0.5,0h0.5c1,0.1,2.1-0.2,2.9-0.9
			c0.5-0.6,0.8-1.9,0.8-3.8v-7.5l-7.9-13.3l-0.5-0.8c-1.4-2.3-2.7-3.4-4-3.4h-0.7L526.7,200.8z"/>
		<path class="st1" d="M318.5,282.9l8.8-20l0.4-0.8c2.9-6.6,4.4-10.4,4.4-11.6c0-0.1,0-0.1,0-0.2c0-0.1,0-0.1,0-0.2
			c1.2,0.1,2.3,0.1,3.2,0.1s1.8,0,2.6,0s1.5,0,2.5,0s2-0.1,3.1-0.1v2.1H343c-1.8,0-3,0.3-3.6,0.9c-0.8,0.9-1.1,2.1-1,3.3
			c0,0.6,0,2,0.1,4.1c0.1,2.1,0.2,4.4,0.3,6.9l0.5,8.6v0.8c0.4,7.6,0.8,11.9,1,12.9c0.1,0.6,0.6,1.1,1.1,1.4
			c0.8,0.4,1.6,0.5,2.5,0.5h0.8v2.1c-1.6-0.1-3.1-0.1-4.5-0.2s-2.5-0.1-3.4-0.1c-1.1,0-2.3,0-3.6,0.1s-2.8,0.1-4.3,0.2v-2.2
			c0.2,0,0.4,0,0.7,0h0.6c1.1,0.1,2.3-0.2,3.2-0.8c0.7-0.8,1-1.9,0.9-3c0-0.7,0-1.3,0-2c0-0.7,0-1.3-0.1-2l-1.2-26.2l-12.5,28.7
			l-0.1,0.3c-1,2-1.7,4.2-2.2,6.4h-2c-0.5-2-1.3-3.9-2.1-5.8l-0.1-0.3l-12.3-27.8c-0.1,2.2-0.3,5.2-0.5,9
			c-0.6,9.4-0.9,15.3-0.8,17.7v0.3c0,2.6,0.3,4.1,0.9,4.7c0.6,0.5,1.8,0.8,3.5,0.8h0.6v2.1c-1.3-0.1-2.6-0.1-3.8-0.2
			s-2.4-0.1-3.5-0.1c-0.8,0-1.8,0-3,0.1c-1.2,0-2.5,0.1-3.9,0.2v-2.1h0.8c0.9,0,1.8-0.1,2.6-0.4c0.6-0.3,1.1-0.9,1.3-1.5
			c0.4-0.8,0.8-4.2,1.2-10.1c0.1-1.6,0.2-2.9,0.3-3.9l0.5-7.4V268c0.6-7.3,0.8-11.4,0.8-12.4c0.1-1-0.2-2-0.9-2.7
			c-1.1-0.6-2.3-0.9-3.5-0.8h-0.6V250h0.8c2.4,0.1,4,0.2,4.9,0.2c0.7,0,2.1-0.1,4.1-0.2c0.6,0,1.1-0.1,1.4-0.1v0.2
			c0,1.8,3.4,10.3,10.3,25.6L318.5,282.9z"/>
		<path class="st1" d="M367.1,259.5h5.8c2.3,6.7,4.5,12.8,6.5,18.4c2.1,5.6,3.5,9.3,4.3,11.2c0.2,0.7,0.7,1.3,1.3,1.8
			c0.6,0.4,1.4,0.6,2.1,0.5h0.5v2.1c-2-0.1-3.6-0.2-4.6-0.2s-2,0-2.7,0s-1.6,0-2.7,0s-2.7,0.1-4.8,0.2v-2.1h0.4
			c0.9,0.1,1.8-0.1,2.5-0.4c0.5-0.4,0.7-0.9,0.7-1.5c0-0.3,0-0.5-0.1-0.8c-0.1-0.4-0.2-0.8-0.4-1.2l-2-5.8l-3.6-0.1h-2.8
			c-0.7,0-2,0-4.1,0.1c-0.8,0-1.3,0-1.7,0l-0.1,0.2c-1.6,3.8-2.3,6.2-2.3,7.2c-0.1,0.7,0.2,1.3,0.7,1.8c0.7,0.4,1.5,0.6,2.3,0.5h0.4
			v2.1c-1.8-0.1-3.2-0.2-4.2-0.2s-1.8,0-2.5,0s-1.2,0-2.1,0s-2.2,0.1-3.8,0.2v-2.1c0.9,0,1.9-0.2,2.7-0.6c0.8-0.5,1.4-1.2,1.7-2
			c0.7-1.2,2.2-4.7,4.6-10.4C361.8,272.8,364.4,266.5,367.1,259.5 M368.4,265.2l-5.2,13.1h1.9h5.7h2L368.4,265.2z"/>
		<path class="st1" d="M392.7,291.5h0.4h0.5c1.1,0.1,2.1-0.4,2.6-1.3c0.5-0.9,0.7-3.1,0.7-6.8v-4.3l0.1-5.3c0-1.1,0-2.2,0-3.4
			s0-2.4,0-4c0-2-0.2-3.3-0.7-3.9c-0.7-0.7-1.7-1-2.7-0.9h-0.5v-2.1l4.2,0.2c1.1,0,2.1,0.1,2.9,0.1c1.2,0,2.6,0,4.4-0.1
			c1.7-0.1,2.9-0.1,3.5-0.1c3.9,0,7,0.8,9.3,2.4c3.7,2.6,4.5,7.7,1.9,11.4c-0.1,0.1-0.1,0.2-0.2,0.2c-1.4,1.6-3.1,2.9-5.1,3.7
			l4.7,6.6c1.4,2.3,3,4.5,4.9,6.5c0.9,0.9,2,1.4,3.3,1.4h0.3h0.3v2c-1,0.1-1.8,0.1-2.5,0.2c-0.7,0-1.3,0.1-1.9,0.1
			c-1.5,0.1-3.1-0.2-4.5-0.6c-1.2-0.5-2.2-1.2-3-2.2c-0.4-0.5-1.4-2.1-3-4.8s-3-5-4.3-6.9l-2.6,0.1h-2.2v6.3c0,2.4,0.2,4,0.7,4.6
			c0.7,0.7,1.8,1.1,2.8,0.9h0.7v2.1c-1.3-0.1-2.6-0.1-3.9-0.2c-1.3,0-2.6-0.1-4-0.1c-0.4,0-1.1,0-2,0s-2.5,0.1-5,0.2L392.7,291.5z
			 M403.3,276.5l2.1,0.1c0.6,0,1.1,0,1.5,0s1,0,1.6,0s1.1-0.1,1.7-0.1c1.2-0.7,2.3-1.8,3-3c0.7-1.2,1-2.6,1-4c0.1-1.8-0.7-3.6-2-4.8
			c-1.5-1.3-3.4-1.9-5.3-1.8c-0.7,0-1.3,0-1.9,0.1s-1.1,0.1-1.6,0.2c0,1.7,0,3.5,0,5.4S403.4,273.1,403.3,276.5"/>
		<path class="st1" d="M427,259.7l4.4,0.2c1.2,0,2.3,0,3.2,0c0.7,0,1.5,0,2.6,0l4.3-0.2v2.1c-0.8,0-1.6,0.1-2.3,0.3
			c-0.4,0.1-0.7,0.5-0.7,0.9c0.1,0.9,0.4,1.8,1,2.6l0.4,0.7l5.2,9.4l1.6-2.8c3.3-5.8,5-9.1,5-9.8c0-0.4-0.2-0.8-0.5-1
			c-0.5-0.2-1.1-0.3-1.7-0.3h-0.5v-2.1l3.4,0.2c0.9,0,1.6,0,2.2,0s1.4,0,2.3,0l3.4-0.2v2.1h-0.6c-1.5,0-3.4,1.8-5.5,5.3
			c-0.5,0.8-0.9,1.4-1.1,1.9l-6.3,10.2v7.6c0,2,0.3,3.3,0.8,3.9c0.8,0.7,1.8,1,2.8,0.9h0.5h0.5v2.2c-1.7-0.1-3.3-0.2-4.7-0.2
			s-2.5-0.1-3.5-0.1s-2.6,0.1-5.1,0.2l-2.5,0.1v-2.2h0.5h0.5c1,0.1,2.1-0.2,2.9-0.9c0.5-0.6,0.8-1.9,0.8-3.8l0-7.5l-7.9-13.3
			l-0.5-0.8c-1.4-2.3-2.7-3.4-4-3.4H427V259.7z"/>
		<path class="st1" d="M242.5,264.1c3,0,5.3,0.9,6.9,2.8c1.6,1.8,2.4,4.5,2.4,8.1c0,2.2-0.4,4.4-1.2,6.5c-0.8,2.2-1.9,4.3-3.3,6.2
			c-1.3,1.9-3,3.4-5,4.6c-1.8,1-3.8,1.6-5.9,1.6c-2.5,0.1-4.9-1-6.5-2.9c-1.7-2.2-2.6-5-2.4-7.8c0-2.4,0.4-4.8,1.2-7
			c0.8-2.3,1.9-4.4,3.4-6.2c1.4-1.8,3.1-3.2,5-4.3C238.7,264.7,240.7,264.2,242.5,264.1 M241.3,267c-2.4,0-4.4,1.6-6.1,4.8
			c-1.8,3.6-2.7,7.7-2.6,11.7c-0.1,2,0.3,3.9,1.3,5.6c0.8,1.3,2.2,2,3.8,1.9c2.5,0,4.6-1.6,6.3-4.7c1.8-3.5,2.7-7.5,2.6-11.5
			c0-2.7-0.4-4.7-1.3-6C244.4,267.6,242.9,266.9,241.3,267"/>
		<path class="st1" d="M259.8,268H258c-0.2,0-0.5,0-1,0.1l-1.8,0.1l0.5-2.2c0.8,0,1.6-0.2,2.4-0.4c0.8-0.2,1.5-0.6,2.1-1.1
			c1.3-5.5,3.4-9.8,6.3-13c2.9-3.2,6.2-4.8,9.9-4.8c1.2,0,2.4,0.3,3.4,0.9c0.8,0.5,1.3,1.3,1.4,2.3c0,0.4-0.1,0.8-0.3,1.1
			c-0.2,0.4-0.5,0.8-0.8,1.1l-1.5,1.3c-0.8-0.8-1.7-1.5-2.7-2c-0.7-0.4-1.6-0.6-2.4-0.6c-2.2,0-4,1.2-5.3,3.5s-2.3,6.1-3,11.2h1.2
			h3.5h1.5l-0.6,2.8c-0.2,0-0.5,0-0.9,0c-2.4-0.1-4.2-0.1-5.2-0.1c-0.3,2-0.8,4.9-1.3,8.7c-2,13.6-4,22.2-6.1,25.8
			c-1,1.8-2.4,3.5-4,4.8c-1.2,1.1-2.8,1.7-4.4,1.8c-0.9,0-1.9-0.2-2.7-0.8c-1-0.5-1.3-1.7-0.9-2.7c0.1-0.3,0.3-0.6,0.6-0.9l1.1-1.2
			c0.6,0.5,1.3,0.9,2,1.3c0.5,0.2,1.1,0.4,1.6,0.4c1.5,0,2.7-1.1,3.7-3.3c1.2-3.3,2-6.7,2.3-10.2L259.8,268z"/>
		<polygon class="st1" points="159.2,229.2 146.9,265.2 122.5,265.2 110.2,229.2 97.8,265.2 71.5,265.2 71.5,293.5 198.3,293.5 
			198.3,265.2 171.6,265.2 		"/>
		<path class="st1" d="M97.5,191.7h25l12.2,35.6l11.8-35.7h24.7l17,49.4h10.1v-74.5H71.5v74.5h10L97.5,191.7z M122.3,182.5h10v-9
			h5.1v9h9.7v5.1h-9.7v10.1h-5.1v-10.1h-10L122.3,182.5z"/>
		<polygon class="st2" points="188.2,241.1 171.2,191.7 146.6,191.7 134.8,227.4 122.5,191.7 97.5,191.7 81.5,241.1 71.5,241.1 
			71.5,265.2 97.8,265.2 110.2,229.2 122.5,265.2 146.9,265.2 159.2,229.2 171.6,265.2 198.3,265.2 198.3,241.1 		"/>
		<polygon class="st2" points="137.4,182.5 137.4,173.5 132.3,173.5 132.3,182.5 122.3,182.5 122.3,187.5 132.3,187.5 132.3,197.7 
			137.4,197.7 137.4,187.5 147.1,187.5 147.1,182.5 		"/>
	</g>
</g>
</svg>
