<?xml version="1.0" encoding="utf-8"?>
<!-- Generator: Adobe Illustrator 26.0.3, SVG Export Plug-In . SVG Version: 6.00 Build 0)  -->
<svg version="1.0" id="Layer_1" xmlns="http://www.w3.org/2000/svg" xmlns:xlink="http://www.w3.org/1999/xlink" x="0px" y="0px"
	 viewBox="0 0 939 612.5" style="enable-background:new 0 0 939 612.5;" xml:space="preserve">
<style type="text/css">
	.st0{fill:#00285E;}
</style>
<path class="st0" d="M441.8,292.4h43.8v2.7c-6.1,0-12.4,0.4-12.4,5.3c0.1,2.4,0.6,4.7,1.6,6.9l16.9,43.1l17.5-42
	c0.7-3.5,1-4.3,0.5-6.7c-1.2-5.2-6.8-6.6-12.8-6.6v-2.7h33v2.7c-7.8,0.4-11.9,5-15.4,10.6l-28,64.1h-3l-25.5-63.9
	c-3.2-6.6-3.5-10-16.2-10.7v-2.7L441.8,292.4z"/>
<path class="st0" d="M582,367.8v-2.6c8.5-0.5,10.8-1.2,10.8-10.3v-44.2c0-6.8-4.3-7.1-10.7-8.8c0,0,19.3-10.2,26.1-13.4v22.5
	c2.6-7.4,8.9-21.5,18.5-21.6c5.2-0.1,9,4,9,9.4c0,3.4-1.2,9.1-8.1,9.1c-5.3,0-5-4.4-9.5-4.4c-3.8,0-9.4,11.9-9.4,17.1v34.4
	c0,8.7,2.7,9.6,13.2,10.3v2.6L582,367.8z"/>
<path class="st0" d="M739.8,276.3v16.1h25.8l-4.2,7.7h-21.7v47.1c0,8.7,3.7,14.1,13.3,14.1c4.5,0,9.6-4,12.9-6.6l1.8,1.7
	c-1.2,1.5-2.5,2.9-3.9,4.2c-5.6,4.8-12.4,9.1-19.7,9.1c-12.6,0-18.3-9.5-19-20.8v-48.8h-11.8L739.8,276.3z"/>
<path class="st0" d="M751.8,292.4h37.5v2.7c-11.1-0.4-13.9,1.3-11.2,7.3c1,2.3,22.8,50.4,22.8,50.4l17.6-44.4
	c3.3-9.2,3.2-13.3-12.6-13.3v-2.7H840v2.7c-12.9-0.3-15.2,4.6-17.8,12.3c0,0-29.3,74.1-31.1,79c-2.3,6.2-7.3,10.6-16.5,10.2
	c-5.1-0.2-9.8-5.3-9.8-9c0-4.2,3.1-8.1,7.5-8c3.8,0.1,5,1.6,6.4,3.4c1.2,1.6,1.2,2.6,1.3,4.6c0.3,3.7,5.1,5.5,8-1.8
	c3.8-9.7,5.7-14.3,5.7-14.3l-32.5-67.9C759.5,300.1,751.8,292.3,751.8,292.4"/>
<path class="st0" d="M520.2,267.2v2.7H463v-2.7c17.7-0.8,18.3-9.7,18.2-11.8V151.1h-16c-13,1-14.6,2.6-20.1,7.1
	c-6.6,5.5-11.2,12.4-15.3,22.1l-2.5-0.4l6.3-33.2c26.2,0.9,30.3,0.8,36.5,0.7h46.4c1.9,0,22,0.1,33.8-0.9l-26.9,4.3h-21.9v104.6
	C501.7,257.5,502.6,266.2,520.2,267.2"/>
<path class="st0" d="M551.6,146.5V209c3.6-7,12.7-18,23.5-18c8,0,15.6,3.2,19.6,10.2c3.7,6.1,4.3,12.3,4.3,19.1v35.1
	c0,9.1,4.2,11.3,11.9,11.8v2.6h-37.1v-2.6c7.1-0.5,10.4-2.6,10.4-11.8v-35.1c0-5.6,0.2-8.1-2.3-12.8c-2.1-4-7.4-6.4-13.8-6.3
	c-10.1,0.2-16.5,10.4-16.5,14.5v39.6c0,9.1,1.9,11.3,9.3,11.8v2.6h-37.5v-2.6c7.8-0.5,13.1-2.8,13.1-11.8v-96.7
	c0-5.4-7.5-8.4-27.7-7.9L551.6,146.5z"/>
<path class="st0" d="M617.7,218.7c-0.6,3.1-0.7,6.2-0.5,9.3c1.5,17.2,11.8,30.4,28.5,30.9c10.9,0.4,21.4-6.8,25.6-17.2l2.1,0.4
	c-5,17.1-13.8,29.4-33.6,29c-22.3-0.4-35.6-16.2-36.4-39.6c-0.7-23.1,14.3-40.2,35.9-40.2c16.6,0,30,9.3,33.8,27.4L617.7,218.7z
	 M653.8,215.3c-0.8-11.2-5.6-21.7-16.2-21.7c-10.9,0-16.2,10.9-19.3,22.1L653.8,215.3z"/>
<path class="st0" d="M175.2,441.1v-2.5c9.1-0.5,11.3-4.9,11.3-15.4v-51h-11.6l1.4-6.2h10.1c0,0,0.1-12.4,0.5-19.3
	c0.4-7.3,3.7-30.5,27.6-30.8c6.6-0.1,12.6,4.8,12.6,9.7s-2.4,6.6-6.5,6.5c-6.2,0-9.2-7.5-9.6-10.5c-0.3-1.9-1-2.7-2.1-2.6
	c-7.3,0.6-6.7,15.6-6.7,20.5V366h14.8l-1.4,6.2h-13.4l0.1,51c0,9.1,1.2,14.9,12.2,15.4v2.5H175.2z"/>
<path class="st0" d="M631.7,344l2.3-0.1c3.3,10.5,10,22.9,23.9,22.7c10.6-0.1,15.2-7.6,15-13.3c-0.5-10.9-12.3-14.2-20.6-18.9
	c-10.3-5.7-19.5-11.5-19.5-23.9c0-13.4,12.9-20.6,25.2-20.6c8.2,0.2,16.3,1.7,24,4.5l1,18.9l-3.1,0.1c-2.2-10.7-10.4-20.1-22.7-20.1
	c-7.7,0-12.5,4.4-12.5,11.7c0,15.3,42.1,14.7,42.1,40.7c0,16.2-15.5,24-30.5,24c-8.3,0.1-16.5-1.9-23.8-5.8L631.7,344z"/>
<path class="st0" d="M683.3,301.7c0,0,19.7-9.5,27.5-13.1v66.2c0.4,9.1,3.3,9.7,11.9,10.2v2.7h-38.5v-2.6
	c8.5-0.6,11.4-1.3,11.9-10.3v-43.2c0-4.6-0.2-6.6-4.4-7.8L683.3,301.7z"/>
<path class="st0" d="M504.2,385.4c25.5,0.2,42.1,18.2,42.1,40.8c0,22.5-15.7,39.9-41.4,39.9c-26.1,0-41-18.6-41.2-41.1
	C463.6,403.4,480.1,385.2,504.2,385.4 M505.1,462.6c17.8,0.1,23.8-18.3,23.7-32.3c-0.1-15.1-2.5-41.4-24-41.5
	c-18.3-0.1-23.6,23.6-23.5,36.9C481.4,439.4,486.8,462.5,505.1,462.6"/>
<path class="st0" d="M540.4,464.1v-2.6c7.9-0.5,11.5-0.8,11.5-10.3v-43.3c-0.1-8.4-4.8-8.3-10.9-10c0,0,18.8-9.4,26.3-13.1V403
	c6.5-8.1,15-18.2,26-18.2c12.6,0,23.2,13.9,23.2,28v38.4c0,9,3.7,9.5,11.1,10.3v2.6h-37v-2.6c7.8-0.5,10.1-1.8,10.1-10.4v-33.4
	c0.1-11-4.5-22.5-15.9-22.6c-7.6,0-16.8,10.4-17.1,18.7v37.5c0,9,3.8,9.7,11.3,10.3v2.6L540.4,464.1z"/>
<path class="st0" d="M702.9,270.4c5.5,0,9.9-4.4,9.9-9.9c0-5.5-4.4-9.9-9.9-9.9c-5.5,0-9.9,4.4-9.9,9.9v0
	C693,265.9,697.4,270.4,702.9,270.4"/>
<path class="st0" d="M529.8,317.8c-0.6,3.1-0.7,6.2-0.5,9.3c1.5,17.2,11.8,30.4,28.5,30.9c10.9,0.3,21.4-6.8,25.6-17.2l2.1,0.4
	c-5,17.1-13.8,29.4-33.6,29c-22.3-0.4-35.6-16.2-36.4-39.6c-0.7-23.1,14.3-40.2,35.9-40.2c16.6,0,30,9.4,33.8,27.4H529.8z
	 M565.9,314.4c-0.8-11.2-5.6-21.7-16.2-21.7c-10.9,0-16.2,10.9-19.3,22.1L565.9,314.4z"/>
<path class="st0" d="M432.5,270.4c5.5,0,9.9-4.4,9.9-9.9c0-5.5-4.4-9.9-9.9-9.9s-9.9,4.4-9.9,9.9C422.6,265.9,427,270.4,432.5,270.4
	L432.5,270.4"/>
<path class="st0" d="M139.4,361.8c25.5,0.2,42.1,18.2,42.1,40.8s-15.7,39.9-41.4,39.9c-26.1,0-41-18.6-41.2-41.1
	C98.8,379.8,115.2,361.6,139.4,361.8 M140.3,439c17.8,0.1,23.8-18.3,23.7-32.3c-0.1-15.1-2.5-41.4-24-41.5
	c-18.3-0.1-23.6,23.6-23.5,36.9C116.6,415.8,122,438.9,140.3,439"/>
<path class="st0" d="M412.9,301.7c0,0,19.7-9.5,27.5-13.1v66.2c0.4,9.1,3.3,9.7,11.9,10.2v2.7h-35.2v-3.1c4.2-0.2,8-0.8,8.5-9.8
	v-43.2c0-4.6-0.2-6.6-4.4-7.8L412.9,301.7z"/>
<path class="st0" d="M333.9,367.8v-2.6c7.9-0.5,11.5-0.8,11.4-10.3v-43.3c-0.1-8.4-4.8-8.2-10.9-10c0,0,18.8-9.4,26.3-13.1v18.2
	c6.5-8.1,15-18.2,26-18.2c12.6,0,23.2,13.9,23.2,28v38.4c0,9,4.3,9.7,9.2,9.8v3.1h-35v-2.6c7.9-0.5,10.1-1.8,10.1-10.4v-33.4
	c0.1-11-4.5-22.6-15.9-22.6c-7.6,0-16.8,10.4-17.1,18.7v37.5c0,9,3.8,9.7,11.3,10.3v2.6L333.9,367.8z"/>
<path class="st0" d="M342.9,457.4c1,0.1,2.4,0.9,2.4-6.6v-80.3c8.6,0,7.3,0,15.9,0v56.2l23.4-22.6c2.2-2.5,5-5,4.5-8.1
	c-0.7-3.9-9.3-3.6-11.9-3.6v-2.7h39.1v2.7c-17.8,0.5-29.9,15.6-36.6,21.2l25.1,34.7c5.3,7.3,9.1,12.4,17.1,12.6v3.3h-40.2v-2.7
	c2.6,0,8.7,0.3,8.7-4.6c0-2.3-2.1-4.9-4.2-7.4L368,424.5l-6.9,6.4v19.3c0,10.8,2.2,10.7,9.7,11.2v2.7h-28L342.9,457.4L342.9,457.4z"
	/>
<path class="st0" d="M421,464.1v-3.3c2.7-0.2,6.2-0.4,6.1-9.6V407c0-6.8-4.3-7.2-10.7-8.8c0,0,19.3-10.2,26.1-13.5v22.5
	c2.6-7.4,8.9-21.5,18.4-21.6c5.2-0.1,9,4,9,9.4c0,3.4-1.2,9.1-8.1,9.1c-5.4,0-5-4.4-9.5-4.4c-3.8,0-9.4,12-9.4,17.1v34.3
	c0,8.7,2.7,9.6,13.1,10.3v2.6L421,464.1z"/>
<path class="st0" d="M225.6,464.1v-2.7c5.4-0.3,11.7-2.4,17.7-14.2l35.1-88.7l-4.4-8.2c6.6-3.3,12.9-7.2,17-11.8l44.1,106
	c3.6,9.3,6.6,13.9,9.3,13.1v6.6h-43v-2.7c5.7,0,16.9-0.8,15.3-9.1c-1.1-5.7-10.1-26.9-14.1-36.1h-43.3c-1.7,4.9-6.1,14.7-8.9,22.4
	c-1.2,3.1-2.1,6.3-2.6,9.5c-1.2,6.4,1.6,13.3,14.9,13.2v2.7L225.6,464.1L225.6,464.1z M260.7,413.1h40.7l-16.2-37.9l-4.2-12.2
	L260.7,413.1z"/>
<path class="st0" d="M222.8,245h52.7v2.7c-13.2,0-18.5,5-18,14.6v71.3c-0.5,12.5,4.1,31.5,33.4,31.5c27.6,0,36.4-21,36.2-41.2v-61.6
	c-0.2-12.2-5.4-13.9-17.5-14.6V245h39.1v2.7c-11.7,0.8-17.2,2.6-17.5,14.6v61.6c0.5,24.5-8.8,44.9-45.8,44.9
	c-35.8,0-47.3-16.5-47.2-40v-66.5c0.2-12.1-3-14.6-15.4-14.6L222.8,245z"/>
<path class="st0" d="M280.8,365.4c0.9,0,1.7-0.7,1.7-1.7c0-0.9-0.7-1.7-1.7-1.7c-0.9,0-1.7,0.7-1.7,1.7c0,0,0,0,0,0
	C279.1,364.6,279.9,365.4,280.8,365.4C280.8,365.4,280.8,365.4,280.8,365.4"/>
</svg>
