<svg id="Layer_1" data-name="Layer 1" xmlns="http://www.w3.org/2000/svg" xmlns:xlink="http://www.w3.org/1999/xlink" viewBox="0 0 54 45.27"><defs><style>.cls-1{fill:none;}.cls-2{clip-path:url(#clip-path);}.cls-3{fill:#00609c;}.cls-4{clip-path:url(#clip-path-2);}.cls-5{fill:#f5a800;}.cls-6{fill:#003764;}</style><clipPath id="clip-path" transform="translate(-5.15 -5.08)"><rect class="cls-1" x="5.15" y="4.53" width="54" height="46.35"/></clipPath><clipPath id="clip-path-2" transform="translate(-5.15 -5.08)"><rect class="cls-1" x="5.15" y="5.08" width="54" height="45.27"/></clipPath></defs><g class="cls-2"><path class="cls-3" d="M15.57,29.38h-.39c-.33-2.14-2.14-2.93-3.93-2.93a4.13,4.13,0,0,0-4,4.45c0,2.8,1.73,5.34,4.31,5.34a5.16,5.16,0,0,0,4.13-2.68l.14,1.76a7.89,7.89,0,0,1-4.75,1.55c-5.15,0-5.91-4-5.91-5.61,0-2.41,1.71-5.38,6.34-5.38a12.48,12.48,0,0,1,4.08.84Z" transform="translate(-5.15 -5.08)"/><path class="cls-3" d="M16.44,35.89c.85,0,1.09-.32,1.09-1.06v-6.4c0-.73-.24-1-1.09-1.05V27l1.91,0,1.9,0v.39c-.84,0-1.08.32-1.08,1.05v6.4c0,.68.38.9,1.46.9,1.73,0,2.59-.22,2.85-1.84h.44l-.2,2.39c-1.32,0-3.82,0-6.31,0-.39,0-.73,0-1,0Z" transform="translate(-5.15 -5.08)"/><path class="cls-3" d="M10.14,47.27h.58a3.05,3.05,0,0,0,2.85,2.51A1.94,1.94,0,0,0,15.75,48c0-2.39-5.45-2.43-5.45-5.58,0-.76.44-3.1,3.76-3.1a8.85,8.85,0,0,1,2.76.39l.09,2.64h-.55a2.56,2.56,0,0,0-2.73-2.46,1.72,1.72,0,0,0-1.92,1.58c0,2.59,5.53,2.73,5.53,5.7,0,1.75-1.25,3.16-3.73,3.16a12.92,12.92,0,0,1-3.25-.5Z" transform="translate(-5.15 -5.08)"/><path class="cls-3" d="M19.94,49.37c.85,0,1.09-.33,1.09-1.06V41.12H19.88c-1.05,0-1.74.28-1.82,1.93h-.48l.08-2.59,4.19,0c1.4,0,2.79,0,4.19,0l.08,2.59h-.48c-.08-1.65-.77-1.93-1.82-1.93H22.67v7.19c0,.73.24,1,1.09,1.06v.39l-1.91,0-1.91,0Z" transform="translate(-5.15 -5.08)"/><path class="cls-3" d="M35.73,49.37c.85,0,1.09-.33,1.09-1.06V41.12H35.67c-1.05,0-1.74.28-1.82,1.93h-.48l.08-2.59,4.19,0c1.4,0,2.79,0,4.19,0l.08,2.59h-.48c-.08-1.65-.77-1.93-1.82-1.93H38.46v7.19c0,.73.24,1,1.09,1.06v.39l-1.91,0-1.91,0Z" transform="translate(-5.15 -5.08)"/><path class="cls-3" d="M42.26,49.37c.85,0,1.09-.33,1.09-1.06v-6.4c0-.73-.24-1-1.09-1v-.4c.45,0,1.09,0,1.75,0,2,0,3.61,0,4.82,0l.05,2.2h-.42c-.2-1.26-.77-1.7-2.33-1.7H45v3.77h1c1.18,0,1.35-.43,1.45-1.25h.44c0,.51,0,1,0,1.41,0,.61,0,1.11,0,1.63h-.44c0-1-.33-1.29-1.47-1.29H45v3.11c0,.6.25.93,1.48.93S48.73,49,49,47.37h.44a23.34,23.34,0,0,0-.19,2.39c-1.27,0-2.93,0-5,0-1,0-1.79,0-2.05,0Z" transform="translate(-5.15 -5.08)"/><path class="cls-3" d="M41.34,34.68l-1.63-3a2.39,2.39,0,0,0,1.82-2.27c0-1.28-.72-2.42-3-2.42-.85,0-1.71,0-2.56,0-.49,0-1,0-1.62,0v.4c.85,0,1.08.32,1.08,1.05v6.4c0,.73-.23,1.05-1.08,1.06v.39l1.9,0,1.91,0v-.39c-.85,0-1.08-.33-1.08-1.06v-7.4a2.33,2.33,0,0,1,.56-.05,2.17,2.17,0,0,1,2.18,2.37A1.64,1.64,0,0,1,38,31.56h-.14s.45.77.88,1.66l.51,1.09c.73,1.55,1.45,2.15,3.19,2.15l.6,0v-.32c-.74-.1-1.06-.35-1.65-1.43" transform="translate(-5.15 -5.08)"/></g><g class="cls-4"><path class="cls-3" d="M46.24,28.43c0-.73.23-1,1.08-1.05V27l-1.9,0-1.91,0v.4c.85,0,1.08.32,1.08,1.05v6.4c0,.73-.23,1.05-1.08,1.06v.39l1.91,0,1.9,0v-.39c-.85,0-1.08-.33-1.08-1.06Z" transform="translate(-5.15 -5.08)"/><path class="cls-3" d="M59.14,38.69c-.13-.21-1.21.18-2.88-.4-2-.69-3.82-2.73-5.15-4.32s-2.71-3.34-2.71-3.34l2.29-2.25c.78-.77,1-1,2.05-1V27c-.44,0-.86,0-1.38,0l-1.92,0v.39c.51,0,.77.06.77.35s-.11.37-.72,1l-2.66,2.69.33.42,3.27,3.89c1.85,2.22,4.31,3.62,6.36,3.62,1.55,0,2.47-.44,2.35-.65" transform="translate(-5.15 -5.08)"/></g><g class="cls-2"><path class="cls-3" d="M24.08,35.87c.9,0,1.15-.18,1.87-1.93L28.82,27H29l3.54,7.91c.34.75.66,1,1.33,1v.39c-.9,0-1.47,0-2,0s-1.09,0-2,0v-.39c.73,0,.94-.13.94-.48a3.66,3.66,0,0,0-.37-1.07L30,33.09H27l-.38,1.06a3.93,3.93,0,0,0-.35,1.23c0,.33.16.48,1,.49v.39c-1.13,0-1.26,0-1.57,0s-.46,0-1.57,0Zm5.68-3.28-1.41-3.35-1.2,3.35Z" transform="translate(-5.15 -5.08)"/><path class="cls-3" d="M24.83,49.35c.9-.05,1.15-.18,1.87-1.93l2.87-6.94h.22l3.54,7.9c.34.76.65,1,1.33,1v.39c-.9,0-1.47,0-2,0s-1.08,0-2,0v-.39c.73,0,.94-.13.94-.48a4,4,0,0,0-.37-1.07l-.52-1.23h-3l-.38,1.06A4,4,0,0,0,27,48.85c0,.34.15.49,1,.5v.39c-1.12,0-1.25,0-1.57,0s-.45,0-1.56,0Zm5.68-3.28L29.1,42.72l-1.2,3.35Z" transform="translate(-5.15 -5.08)"/><path class="cls-5" d="M47.13,17.33a48.21,48.21,0,0,0-4.44-4.54,43.43,43.43,0,0,0-27.43,10h1.35l.8-.46a43.93,43.93,0,0,1,12.81-4.82l.1,0h0a44.83,44.83,0,0,1,16.81-.19" transform="translate(-5.15 -5.08)"/><path class="cls-3" d="M9.46,22.82h4.29a44.37,44.37,0,0,1,27.81-11A43.2,43.2,0,0,0,30.27,5.08,43.72,43.72,0,0,0,9.46,22.82" transform="translate(-5.15 -5.08)"/><path class="cls-6" d="M32.75,18.09A44.53,44.53,0,0,1,44,22.82h7.05a42.81,42.81,0,0,0-3-4.3,44.22,44.22,0,0,0-15.35-.43" transform="translate(-5.15 -5.08)"/></g></svg>