<?xml version="1.0" encoding="UTF-8"?>
<svg viewBox="0 0 271.28 218.41" xmlns="http://www.w3.org/2000/svg">
<defs>
<style>.cls-1{fill:#006b4e;}.cls-2{fill:#006a55;}.cls-3{fill:#68bd49;}</style>
</defs>
<path class="cls-2" d="m43.86 90.73c0-17.02 14.91-31.31 32.55-31.31 9.44 0 18.08 4.06 24.08 10.41l-11.03 9.79c-3.17-3.97-7.94-6.53-13.06-6.53-9.26 0-17.11 8.12-17.11 17.64s7.85 17.73 17.11 17.73c5.2 0 9.88-2.56 13.14-6.53l10.94 9.7c-6 6.44-14.64 10.5-24.08 10.5-17.64 0-32.55-14.38-32.55-31.4"/>
<path class="cls-2" d="m109.79 111.99 8.47-10.14c5.91 4.85 12.52 7.68 19.93 7.68 5.64 0 8.56-2.29 8.56-5.56 0-3.62-2.82-4.41-11.64-6.53-12.97-2.91-22.58-6.44-22.58-18.61s9.35-19.4 23.2-19.4c10.14 0 18.08 2.91 24.52 8.29l-7.67 10.76c-5.56-4.23-11.64-6.44-17.29-6.44-4.85 0-7.59 2.29-7.59 5.29 0 3.7 2.91 4.94 11.91 6.88 13.58 2.91 22.32 6.79 22.32 18.17 0 12.17-9.26 19.76-24.26 19.76-10.76 0-20.55-3.53-27.87-10.14"/>
<path class="cls-3" d="m173.97 95.23v-34.75h11.02v34.4c0 10.06 6.53 17.29 15.7 17.29s15.79-7.23 15.79-17.29v-34.4h10.94v34.75c0 15.79-11.03 26.9-26.73 26.9s-26.73-11.11-26.73-26.9"/>
<path class="cls-2" d="m0,168.22v-.07c0-6.98,5.22-12.76,12.48-12.76,4.48,0,7.15,1.58,9.62,3.91l-1.9,2.05c-2.08-1.97-4.41-3.38-7.75-3.38-5.46,0-9.55,4.44-9.55,10.11v.07c0,5.71,4.12,10.19,9.55,10.19,3.38,0,5.6-1.31,7.97-3.56l1.83,1.8c-2.57,2.61-5.39,4.34-9.87,4.34-7.12,0-12.37-5.6-12.37-12.69"/>
<rect class="cls-2" x="26.9" y="154.76" width="2.71" height="25.73"/>
<path class="cls-2" d="m49.28,170.3c-.32-3.31-2.22-6.13-5.81-6.13-3.14,0-5.53,2.61-5.92,6.13h11.74Zm-5.32,8.25c2.5,0,4.26-1.02,5.74-2.57l1.69,1.52c-1.83,2.04-4.05,3.42-7.51,3.42-5.01,0-9.09-3.84-9.09-9.52,0-5.29,3.7-9.52,8.74-9.52,5.39,0,8.49,4.3,8.49,9.66,0,.25,0,.53-.04.95h-14.45c.39,3.84,3.21,6.06,6.41,6.06"/>
<polygon class="cls-2" points="54.99 162.26 57.99 162.26 64.12 177.38 70.28 162.26 73.21 162.26 65.28 180.63 62.88 180.63"/>
<path class="cls-2" d="m90.84,170.3c-.32-3.31-2.22-6.13-5.82-6.13-3.14,0-5.53,2.61-5.92,6.13h11.74Zm-5.32,8.25c2.5,0,4.26-1.02,5.74-2.57l1.69,1.52c-1.83,2.04-4.05,3.42-7.51,3.42-5.01,0-9.09-3.84-9.09-9.52,0-5.29,3.7-9.52,8.74-9.52,5.39,0,8.49,4.3,8.49,9.66,0,.25,0,.53-.04.95h-14.45c.39,3.84,3.21,6.06,6.41,6.06"/>
<rect class="cls-2" x="98.59" y="154.76" width="2.71" height="25.73"/>
<path class="cls-2" d="m119.64,173.79v-1.69c-1.34-.39-3.1-.78-5.32-.78-3.38,0-5.32,1.48-5.32,3.67v.07c0,2.29,2.11,3.63,4.58,3.63,3.35,0,6.06-2.01,6.06-4.9m-13.39,1.41v-.07c0-3.91,3.17-5.96,7.79-5.96,2.33,0,3.95.32,5.57.77v-.56c0-3.24-1.97-4.93-5.39-4.93-2.15,0-3.84.53-5.53,1.3l-.81-2.22c2.01-.92,3.95-1.55,6.62-1.55s4.58.71,5.89,2.01c1.27,1.27,1.9,3.03,1.9,5.36v11.14h-2.68v-2.71c-1.27,1.62-3.35,3.1-6.56,3.1-3.42,0-6.8-1.94-6.8-5.67"/>
<path class="cls-2" d="m128.03 162.26h2.71v3.17c1.2-1.97 3.1-3.56 6.24-3.56 4.41 0 6.98 2.96 6.98 7.29v11.31h-2.71v-10.64c0-3.38-1.83-5.5-5.04-5.5s-5.46 2.29-5.46 5.71v10.43h-2.71v-18.22z"/>
<path class="cls-2" d="m164.47,171.39v-.07c0-4.19-3.21-7.01-6.59-7.01s-6.41,2.61-6.41,7.01v.07c0,4.3,2.96,7.05,6.41,7.05s6.59-2.85,6.59-7.05m-15.79.03v-.07c0-5.96,4.33-9.48,8.7-9.48,3.38,0,5.57,1.83,6.98,3.88v-10.99h2.72v25.73h-2.72v-3.67c-1.48,2.19-3.63,4.05-6.98,4.05-4.37,0-8.7-3.46-8.7-9.45"/>
<path class="cls-2" d="m182.56,176.89l1.73-2.04c2.57,2.33,5.04,3.49,8.46,3.49s5.5-1.76,5.5-4.19v-.07c0-2.29-1.23-3.59-6.41-4.69-5.67-1.23-8.28-3.07-8.28-7.12v-.07c0-3.88,3.42-6.73,8.11-6.73,3.6,0,6.17,1.02,8.67,3.03l-1.62,2.15c-2.29-1.87-4.58-2.68-7.12-2.68-3.21,0-5.25,1.76-5.25,3.98v.07c0,2.33,1.27,3.63,6.69,4.79,5.5,1.2,8.04,3.21,8.04,6.98v.07c0,4.23-3.52,6.98-8.42,6.98-3.91,0-7.12-1.3-10.08-3.95"/>
<path class="cls-2" d="m207.23,175.66v-11h-2.54v-2.4h2.54v-5.5h2.71v5.5h5.78v2.4h-5.78v10.64c0,2.22,1.23,3.03,3.07,3.03.92,0,1.69-.18,2.64-.63v2.33c-.95.49-1.97.77-3.28.77-2.93,0-5.15-1.45-5.15-5.15"/>
<path class="cls-2" d="m232.54,173.79v-1.69c-1.34-.39-3.1-.78-5.32-.78-3.38,0-5.32,1.48-5.32,3.67v.07c0,2.29,2.11,3.63,4.58,3.63,3.35,0,6.06-2.01,6.06-4.9m-13.39,1.41v-.07c0-3.91,3.17-5.96,7.79-5.96,2.33,0,3.95.32,5.57.77v-.56c0-3.24-1.97-4.93-5.39-4.93-2.15,0-3.84.53-5.53,1.3l-.81-2.22c2.01-.92,3.95-1.55,6.63-1.55s4.58.71,5.89,2.01c1.27,1.27,1.9,3.03,1.9,5.36v11.14h-2.68v-2.71c-1.27,1.62-3.35,3.1-6.56,3.1-3.42,0-6.8-1.94-6.8-5.67"/>
<path class="cls-2" d="m241.89,175.66v-11h-2.54v-2.4h2.54v-5.5h2.71v5.5h5.78v2.4h-5.78v10.64c0,2.22,1.23,3.03,3.07,3.03.92,0,1.69-.18,2.64-.63v2.33c-.95.49-1.97.77-3.28.77-2.93,0-5.15-1.45-5.15-5.15"/>
<path class="cls-2" d="m268.53,170.3c-.32-3.31-2.22-6.13-5.82-6.13-3.14,0-5.53,2.61-5.92,6.13h11.74Zm-5.32,8.25c2.5,0,4.26-1.02,5.74-2.57l1.69,1.52c-1.83,2.04-4.05,3.42-7.51,3.42-5.01,0-9.09-3.84-9.09-9.52,0-5.29,3.7-9.52,8.74-9.52,5.39,0,8.49,4.3,8.49,9.66,0,.25,0,.53-.04.95h-14.45c.39,3.84,3.21,6.06,6.42,6.06"/>
<path class="cls-2" d="m50.09 202.34v-14.34h2.78v14.17c0 5.32 2.82 8.32 7.54 8.32s7.44-2.75 7.44-8.14v-14.34h2.78v14.13c0 7.19-4.12 10.93-10.29 10.93s-10.26-3.74-10.26-10.71"/>
<path class="cls-2" d="m76.77 194.45h2.71v3.17c1.2-1.97 3.1-3.56 6.24-3.56 4.4 0 6.98 2.96 6.98 7.3v11.31h-2.71v-10.64c0-3.38-1.83-5.5-5.04-5.5s-5.46 2.29-5.46 5.71v10.43h-2.71v-18.22z"/>
<path class="cls-2" d="m98.73,194.45h2.71v18.22h-2.71v-18.22Zm-.18-6.98h3.1v2.99h-3.1v-2.99Z"/>
<polygon class="cls-2" points="105.96 194.45 108.96 194.45 115.09 209.57 121.26 194.45 124.18 194.45 116.25 212.81 113.86 212.81"/>
<path class="cls-2" d="m141.81,202.48c-.32-3.31-2.22-6.13-5.82-6.13-3.14,0-5.53,2.61-5.92,6.13h11.74Zm-5.32,8.25c2.5,0,4.26-1.02,5.74-2.57l1.69,1.52c-1.83,2.04-4.05,3.42-7.51,3.42-5.01,0-9.09-3.84-9.09-9.52,0-5.29,3.7-9.52,8.74-9.52,5.39,0,8.49,4.3,8.49,9.66,0,.25,0,.53-.04.95h-14.45c.39,3.84,3.21,6.06,6.41,6.06"/>
<path class="cls-2" d="m149.32,194.45h2.71v4.76c1.34-3.03,3.98-5.22,7.44-5.08v2.93h-.21c-3.98,0-7.22,2.85-7.22,8.35v7.26h-2.71v-18.22Z"/>
<path class="cls-2" d="m162.08,210.34l1.38-1.94c1.97,1.48,4.16,2.33,6.31,2.33s3.77-1.13,3.77-2.89v-.07c0-1.83-2.15-2.54-4.55-3.21-2.85-.81-6.03-1.8-6.03-5.15v-.07c0-3.14,2.61-5.22,6.2-5.22,2.22,0,4.69.77,6.55,2.01l-1.23,2.04c-1.69-1.09-3.63-1.76-5.39-1.76-2.15,0-3.52,1.13-3.52,2.64v.07c0,1.73,2.26,2.4,4.69,3.14,2.82.84,5.85,1.94,5.85,5.22v.07c0,3.45-2.85,5.46-6.48,5.46-2.61,0-5.5-1.02-7.54-2.68"/>
<path class="cls-2" d="m181.4,194.45h2.71v18.22h-2.71v-18.22Zm-.18-6.98h3.1v2.99h-3.1v-2.99Z"/>
<path class="cls-2" d="m191.37,207.84v-11h-2.54v-2.4h2.54v-5.5h2.71v5.5h5.78v2.4h-5.78v10.64c0,2.22,1.23,3.03,3.07,3.03.92,0,1.69-.18,2.64-.63v2.33c-.95.49-1.97.78-3.28.78-2.93,0-5.14-1.45-5.14-5.15"/>
<path class="cls-2" d="m203.6,217.5l.92-2.15c.88.46,1.69.67,2.85.67,1.62,0,2.64-.85,3.74-3.42l-8.28-18.15h2.99l6.63,15.19,5.85-15.19h2.89l-7.65,18.82c-1.55,3.77-3.31,5.15-6.06,5.15-1.51,0-2.64-.32-3.88-.92"/>
<polygon class="cls-2" points="203.95 46.53 203.05 46.53 203.05 13 196.83 13 196.83 14.71 195.03 14.71 195.03 26.29 189.48 26.29 189.48 33.93 186.37 33.93 186.37 32.77 184.39 32.77 184.4 22.58 183.2 22.58 183.21 15.11 182.72 15.11 182.72 12.66 182.14 12.66 182.14 11.54 181.34 11.54 181.34 9.22 180.67 9.22 176.85 2.08 173.18 9.25 172.37 9.25 172.37 11.53 171.56 11.53 171.56 12.48 170.8 12.48 170.8 15.18 170.26 15.18 170.25 22.57 169.58 22.56 169.56 37.54 167.57 37.54 167.57 46.53 166.67 46.53 166.67 36.64 168.67 36.64 168.69 21.67 169.36 21.67 169.37 14.28 169.91 14.28 169.91 11.59 170.67 11.59 170.67 10.63 171.47 10.63 171.47 8.33 172.63 8.35 176.3 1.18 177.38 1.18 181.21 8.32 182.24 8.33 182.23 10.65 183.04 10.65 183.04 11.77 183.62 11.77 183.61 14.22 184.1 14.22 184.09 21.69 185.3 21.69 185.28 31.87 187.26 31.87 187.26 33.03 188.59 33.03 188.59 25.39 194.14 25.39 194.14 13.82 195.93 13.82 195.93 12.1 203.95 12.1"/>
<polygon class="cls-2" points="109.79 46.53 108.9 46.53 108.93 37.54 107.32 37.54 107.32 17.7 105.93 17.7 105.93 15.34 104.86 15.34 104.86 13.26 103.88 13.26 103.88 11.07 88.9 11.07 88.9 13.02 87.69 13.02 87.69 15.13 86.62 15.13 86.62 17.45 85.36 17.45 85.36 37.7 81.59 37.71 81.59 29.04 82.08 28.52 80.69 28.52 80.69 25.03 80.11 24.49 80.11 22.15 79.75 21.27 79.75 18.39 79.02 17.71 79.02 13.97 78.28 13.29 78.28 12.49 77.89 11.38 77.89 10.73 77.7 10.29 77.45 10.93 77.52 11.44 77.07 12.5 77.07 13.29 76.6 13.85 76.6 17.8 75.95 18.4 75.9 21.6 75.59 22.22 75.59 24.56 75.26 24.93 75.26 28.66 74.24 28.66 74.65 29.05 74.65 37.71 70.31 37.71 70.31 29.1 68.23 29.1 68.23 46.53 67.33 46.53 67.33 28.21 71.2 28.21 71.2 36.81 73.76 36.81 73.76 29.44 73.29 29 73.29 27.77 74.36 27.77 74.36 24.59 74.7 24.22 74.75 21.92 75.06 21.3 75.06 18.01 75.7 17.41 75.7 13.52 76.18 12.96 76.21 12.23 76.6 11.32 76.53 10.84 76.76 10.19 77.7 7.97 78.78 10.64 78.78 11.3 79.18 12.41 79.18 12.9 79.91 13.58 79.91 17.32 80.65 18 80.65 21.17 81 22.06 81 24.1 81.59 24.64 81.59 27.62 82.97 27.62 82.97 28.97 82.48 29.43 82.48 36.8 84.47 36.8 84.47 16.56 85.72 16.56 85.72 14.24 86.8 14.24 86.8 12.12 88 12.12 88 10.17 104.77 10.17 104.77 12.37 105.76 12.37 105.76 14.44 106.83 14.44 106.83 16.81 108.22 16.81 108.22 36.64 109.82 36.64"/>
<rect class="cls-2" x="162.13" y="1.63" width="2.36" height="44.89"/>
<polygon class="cls-2" points="115.41 46.53 115.41 2.79 112.01 8.95 112.01 46.53"/>
<rect class="cls-2" x="116.88" y="1.63" width="2.36" height="44.9"/>
<path class="cls-2" d="m158.02,19.49h-34.43v-2.69h34.43v2.69Zm0-9.6c0,.1-.19.17-.28.18-.4.07-.5.19-.5.62,0,.26-.03.82-.05,1.23,0,.14-.01.27-.02.37-.07,1.2-.51,1.65-1.15,1.96-.32.15-.7.23-1.16.23-.94,0-1.45-.28-1.67-.45-.47-.36-.69-.74-.69-1.91,0-.32-.03-1.67-.04-1.75-.01-.1-.05-.22-.36-.27-.07-.02-.29-.08-.29-.2,0-.1.14-.17.32-.17s.38,0,.57.02c.17.01.34.02.48.02.18,0,.43-.01.65-.02.17,0,.32-.01.41-.01.21,0,.3.08.3.17,0,.09-.12.17-.31.2-.29.05-.34.13-.39.38-.03.23-.03.89-.03,1.89,0,.8.19,1.01.47,1.25.21.18.76.27.91.27.53,0,1.17-.1,1.39-.86.1-.37.14-.98.14-2.04,0-.4-.02-.47-.03-.53v-.03c-.04-.16-.2-.26-.54-.34-.2-.05-.29-.11-.29-.2s.12-.15.3-.15c.09,0,.21,0,.34.01.15.01.32.02.46.02.18,0,.34-.01.47-.02.11,0,.22-.01.33-.01.18,0,.27.08.27.17m-8.73.75c0,.34.34.57,1.09.95,1.21.61,1.32,1.1,1.32,1.5,0,.43-.32.87-.81,1.11-.3.15-.81.26-1.23.26-.64,0-.92-.07-1.29-.19-.07-.02-.26-.17-.28-.24-.11-.34-.15-.6-.15-.82,0-.08.12-.21.2-.21.1,0,.23.14.4.41.25.42.68.67,1.16.67.27,0,.76-.2.76-.58,0-.26-.15-.51-.87-.92-.94-.52-1.42-.9-1.42-1.59,0-.48.3-.84.56-1.01.36-.24.81-.35,1.43-.35.31,0,.68.05.94.09.06,0,.11.02.16.02h0c.05.02.14.14.15.19,0,.06.04.32.06.5.02.17.03.21.03.23,0,.17-.07.23-.13.23-.1,0-.26-.07-.32-.21-.08-.22-.23-.41-.33-.48-.2-.15-.4-.21-.68-.21-.31,0-.76.23-.76.64m-1.78,2.76c-.05.19-.17.47-.22.58-.03.09-.21.22-.36.27-.56.18-1.11.22-1.48.22-1.36,0-2.26-.51-2.58-.81-.31-.3-.73-.8-.73-1.62s.49-1.44.95-1.76c.84-.58,1.9-.64,2.32-.64s.84.04,1.18.12c.18.04.33.06.59.08.1.01.17.14.17.23,0,.11.01.22.02.34,0,.11.01.22.02.34,0,.12-.03.23-.08.29-.03.04-.08.06-.12.06-.09,0-.18-.12-.23-.23-.11-.23-.21-.38-.34-.47-.35-.27-.78-.42-1.18-.42-1.57,0-1.81,1.19-1.81,1.89,0,.46.1.88.28,1.19.49.83,1.22,1,1.74,1,.16,0,.51-.03.75-.14.29-.14.51-.34.68-.61.11-.16.19-.27.31-.27.04,0,.07.02.09.05.06.08.04.24.02.3m13.4,33.13V0h-40.21v46.53h2.89v-24.74h1.88v24.74h2.78v-24.74h1.87v24.74h2.78v-24.74h1.87v24.74h2.78v-24.74h1.87v24.74h2.78v-24.74h1.87v24.74h2.78v-24.74h1.87v24.74h2.78v-24.74h1.88v24.74h2.78v-24.74h1.88v24.74h2.89Z"/>
<rect class="cls-2" x="43.86" y="137.72" width="183.57" height="1.44"/>
<path class="cls-1" d="m206.13,12.32h-.69v-.22h1.62v.22h-.69v1.84h-.23v-1.84Z"/>
<path class="cls-1" d="m207.47,12.1h.23l.76,1.43.76-1.43h.23v2.06h-.23v-1.55l-.76,1.43-.76-1.43v1.55h-.23v-2.06Z"/>
</svg>
