<svg id="Layer_1" data-name="Layer 1" xmlns="http://www.w3.org/2000/svg" xmlns:xlink="http://www.w3.org/1999/xlink" viewBox="0 0 117.89 129.7"><defs><style>.cls-1{fill:none;}.cls-2{clip-path:url(#clip-path);}.cls-3{fill:#253c80;}.cls-4{fill:#d71e3a;}</style><clipPath id="clip-path" transform="translate(-3.58 -4.03)"><rect class="cls-1" x="3.58" y="3.72" width="117.89" height="130.01"/></clipPath></defs><g class="cls-2"><path class="cls-3" d="M62,4a40.33,40.33,0,0,0-21,74.44.27.27,0,0,0,.31,0c.11-.06.1-.25.1-.25V72.41a.33.33,0,0,0-.13-.26l-1.71-1.22a1.1,1.1,0,0,1-.46-.9V68.65a.32.32,0,0,0-.11-.24l-1.72-1.49a.77.77,0,0,1-.26-.54v0h0a.77.77,0,0,1,.23-.56l1.45-1.43a.36.36,0,0,0,.11-.25c.33-7.93,2.57-14.92,6.47-20.22a23.07,23.07,0,0,1,11.93-8.62A6.74,6.74,0,0,1,60,32.77a3.41,3.41,0,0,1-.81-2.2h0v0a3.45,3.45,0,0,1,2.15-3.19.35.35,0,0,0,.24-.33v-10a.35.35,0,0,0-.27-.34L58.35,16a1,1,0,0,1-.37.74,1.1,1.1,0,0,1-.94.17,1.67,1.67,0,0,1-1.2-1.35l-.07,0A1.64,1.64,0,0,1,54.56,14h0v0a1,1,0,0,1,.38-.82,1,1,0,0,1,.92-.16,1,1,0,0,1,.35-.55,1.09,1.09,0,0,1,.94-.16,1.66,1.66,0,0,1,1.2,1.53v0h0l2.9.75a.22.22,0,0,0,.28-.21V12.59h-.05a1.64,1.64,0,0,1-1.2-1.52h0v0a1,1,0,0,1,.38-.81,1,1,0,0,1,.66-.2,1,1,0,0,1,.37-.79,1.09,1.09,0,0,1,.94-.16,1.66,1.66,0,0,1,1.21,1.52v0h0v0a1.67,1.67,0,0,1,1,1.46v0h0a1,1,0,0,1-.38.82,1.08,1.08,0,0,1-.87.17V15a.31.31,0,0,0,.23.29L66.8,16a1,1,0,0,1,.38-.73,1.09,1.09,0,0,1,.94-.16,1.68,1.68,0,0,1,1.2,1.34l.07,0A1.64,1.64,0,0,1,70.6,18h0a1,1,0,0,1-.37.81,1.09,1.09,0,0,1-.94.17.91.91,0,0,1-.34.53,1.09,1.09,0,0,1-.94.16,1.63,1.63,0,0,1-1.21-1.51v0h0l-2.91-.75a.2.2,0,0,0-.26.2V27a.33.33,0,0,0,.22.31A3.42,3.42,0,0,1,66,30.54v0h0a3.46,3.46,0,0,1-.77,2.16l.33.18a7.73,7.73,0,0,1,1,.72l.2.17,0,.05a7.21,7.21,0,0,1,.7.79,4,4,0,0,1,.41.69C78.54,38.69,85.49,49.38,86.13,64a.63.63,0,0,0,.19.41l1.14,1.13a1.08,1.08,0,0,1,.32.79h0v0a1.07,1.07,0,0,1-.37.77L86,68.35a.54.54,0,0,0-.18.4V70a1.23,1.23,0,0,1-.52,1l-1.57,1.12a.52.52,0,0,0-.22.42v5.94a.21.21,0,0,0,.32.18A40.34,40.34,0,0,0,62,4" transform="translate(-3.58 -4.03)"/><path class="cls-3" d="M75,73.07a.12.12,0,0,0,.17.15c1.71-1.5,4-.62,4,2v5.64a.16.16,0,0,0,.23.15c.28-.12.55-.25.82-.39a.3.3,0,0,0,.17-.27V75.43c0-3.73-3.61-5.25-5.42-2.36" transform="translate(-3.58 -4.03)"/><path class="cls-3" d="M62,28.08a2.56,2.56,0,0,0-2,2.49,2.63,2.63,0,0,0,.72,1.78.11.11,0,0,0,.13,0,6.05,6.05,0,0,1,.93-.21.15.15,0,0,0,.09-.25,2.57,2.57,0,0,1,.24-3.6.14.14,0,0,0-.12-.24" transform="translate(-3.58 -4.03)"/><path class="cls-3" d="M58.77,34.84s0,0,.07,0l.47-.11h0a22.46,22.46,0,0,1,2.48-.38h0c.5,0,.67,0,.81,0s.17-.2,0-.31-.38-.23-.39-.78v0h0A.19.19,0,0,0,62,33a6.85,6.85,0,0,0-3,1.47c-.27.21-.26.29-.24.33" transform="translate(-3.58 -4.03)"/><path class="cls-3" d="M67,70.9a6,6,0,0,0-.65-.85,4.31,4.31,0,0,0-.37-.37,5,5,0,0,0-3.36-1.32,5.08,5.08,0,0,0-3.73,1.69,6,6,0,0,0-1.55,4.07V83.9a1.7,1.7,0,0,0,0,.36c0,.06.05.12.26.15l.38,0a.21.21,0,0,0,.24-.21V74.12a5,5,0,0,1,2.21-4.22,4.2,4.2,0,0,1,5.63,3.64V84.31a.2.2,0,0,0,.21.2l1.27-.14a.34.34,0,0,0,.34-.32V74.12A6.21,6.21,0,0,0,67,70.9" transform="translate(-3.58 -4.03)"/><path class="cls-3" d="M84.67,70.42l.25-.18a.34.34,0,0,0,.14-.28v-.17a.12.12,0,0,0-.08-.11l-.07,0-12-4.87h0l-.07,0a.43.43,0,0,1-.21-.62h0l.25-.56h0s.19-.39.74-.17L85,68a.17.17,0,0,0,.17,0l.56-.49a.08.08,0,0,0,0-.14l-12-4.81h0a.38.38,0,0,1-.21-.53h0l.22-.47h0a.81.81,0,0,1,1-.28l11.84,4.85a.07.07,0,0,0,.08-.12l-1.23-1.22a.77.77,0,0,0-.26-.17l-9.85-4A2.77,2.77,0,0,1,74,58.3a58.28,58.28,0,0,0-1.18-8.62c-1.19-5.42-3-9.47-5.47-12.11-.19-.34.14-.61,2.77.69,8.6,4.36,13.12,12.06,14.19,24.85a.4.4,0,0,0,.21.32l.38.22a.22.22,0,0,0,.32-.21c-.07-.75-.14-1.48-.23-2.2l0-.19c-.07-.6-.16-1.2-.25-1.79l-.12-.67c-.07-.39-.14-.77-.22-1.14s-.19-.93-.3-1.38c0-.1,0-.21-.07-.31C82,47.55,78,41.85,71.69,38.12l-.8-.45-.32-.17-.35-.18-.28-.15L69.48,37l-.26-.12-.75-.32h0l-.71-.27h0l0,0,0,0,0,0-.2-.07a20.91,20.91,0,0,0-4.08-.81,10.68,10.68,0,0,0-1.49,0,23.85,23.85,0,0,0-4,.81h0C47.25,39.27,40.37,49.89,39.86,64.49v0a.38.38,0,0,1-.14.25L38.49,66a.07.07,0,0,0,.08.12l11.82-4.84a.82.82,0,0,1,1,.27l.2.46a.38.38,0,0,1-.2.53l-12,4.81a.09.09,0,0,0,0,.14L40,68a.17.17,0,0,0,.17,0l11.43-4.6c.56-.23.73.15.75.17h0l.25.54a.44.44,0,0,1-.2.62l-.09,0-12,4.87-.08,0a.12.12,0,0,0-.07.11V70a.34.34,0,0,0,.14.28l.31.2h0l1.76,1.26a.29.29,0,0,1,.12.23V79a.54.54,0,0,0,.26.46c.6.34,1.22.67,1.84,1A.25.25,0,0,0,45,80.2V75.43c-.05-3.71,3.58-5.24,5.4-2.4a.13.13,0,0,1-.19.16c-1.7-1.46-4-.57-4,2V81a.37.37,0,0,0,.22.33,39.69,39.69,0,0,0,6.85,2.31.21.21,0,0,0,.27-.21V68.53a.16.16,0,0,0-.08-.14l-1-.58a.31.31,0,0,1-.13-.25V65.81a.12.12,0,0,1,.08-.11l.79-.32a3.08,3.08,0,0,1,1-.17h1.61a.09.09,0,0,1,.09.08v1.33s0,0,0,.06L54.9,68a.44.44,0,0,0-.08.25V83.77A.21.21,0,0,0,55,84l.48.09a.21.21,0,0,0,.25-.21V68.49a.56.56,0,0,0,0-.12l.82-1.18a.94.94,0,0,0,.18-.57V65.29a.07.07,0,0,1,.08-.08H68.49a.06.06,0,0,1,.06.06v1.36a1.06,1.06,0,0,0,.19.59l.8,1.15a.3.3,0,0,1,0,.15V83.83a.22.22,0,0,0,.25.21l.45-.08a.25.25,0,0,0,.2-.25V68.3a.5.5,0,0,0-.08-.26l-.92-1.32,0-.11V65.27a.07.07,0,0,1,.07-.06h1.52a3.12,3.12,0,0,1,1,.17h0l1,.38a.13.13,0,0,1,.08.12v1.47a.27.27,0,0,1-.11.19l-.86.51a.44.44,0,0,0-.22.39V83.37a.2.2,0,0,0,.25.2l.44-.11a.28.28,0,0,0,.21-.27V68.8a.19.19,0,0,1,.09-.16l.65-.39a.94.94,0,0,0,.47-.81V66.23s0,0,.07,0l10.45,4.24a.2.2,0,0,0,.19,0m-34.14-11A.67.67,0,0,1,50,60l-.27.07a.36.36,0,0,1-.46-.37c.42-8.38,2.85-17.81,8.67-22.45.09-.07.21.06.13.15-3.58,3.59-6.89,9.78-7.58,22M51.93,56c.59-5.64,2.46-15.47,8.35-19.12,2.1-1,4.6-.78,6.86,1.84,4,4.81,5.35,13,5.81,17.73,0,2.43-.91,3.36-3.33,3.52H55.25c-2.57-.16-3.49-1.21-3.32-4m20.15,7.17-.37.81h0a.53.53,0,0,1-.56.38H54.06a.55.55,0,0,1-.57-.38h0l-.36-.77a.12.12,0,0,1,.11-.17H72a.1.1,0,0,1,.09.14m.3-1H52.83a.3.3,0,0,1-.26-.17l-.26-.56c-.12-.28-.11-.53.19-.53H72.7c.31,0,.32.24.21.51l-.27.58a.3.3,0,0,1-.26.17" transform="translate(-3.58 -4.03)"/><path class="cls-4" d="M5,96.73c0-1,0-1.22-1.46-1.54v-.63H5.12c2.66,0,3.34-.09,3.34-.09l.1.09a4.33,4.33,0,0,0-.7,2.66v6.31a3.8,3.8,0,0,0,3.91,4.13,3.77,3.77,0,0,0,3.84-4V96.84c0-.93,0-1.42-1.6-1.59v-.69h4.36l.11.4a2.37,2.37,0,0,0-1.56,2.26v6.39c0,3.5-2.58,5.28-5.85,5.28-2.85,0-6-1.35-6-5.19Z" transform="translate(-3.58 -4.03)"/><path class="cls-4" d="M18.39,108a1.23,1.23,0,0,0,1.21-1.37v-5c0-.87,0-1.4-.64-1.4h-.84v-.67a24.65,24.65,0,0,0,4.26-1.06l.06.07a9.08,9.08,0,0,0-.29,2.34,4.89,4.89,0,0,1,3.76-2.11c1.45,0,2.51.8,2.51,2.85v5a5.68,5.68,0,0,1-.11,1.12l1.69.21-.08.63-5.15.13V108c.71-.11.95-.61.95-1.37v-4.16c0-1.48-.36-1.81-1.18-1.81a3.76,3.76,0,0,0-2.24.78v5.19a5.68,5.68,0,0,1-.11,1.12l1.33.21-.08.63-5.05.13Z" transform="translate(-3.58 -4.03)"/><path class="cls-4" d="M30.8,108A1.23,1.23,0,0,0,32,106.61v-5c0-.87,0-1.4-.64-1.4h-.84v-.67a25.84,25.84,0,0,0,4.3-1.06l.07.07a9.83,9.83,0,0,0-.2,2.4v5.66a6.6,6.6,0,0,1-.1,1.14l1.69.19-.09.63-5.4.13Zm.8-12.52a1.57,1.57,0,1,1,1.56,1.48,1.47,1.47,0,0,1-1.56-1.48" transform="translate(-3.58 -4.03)"/><path class="cls-4" d="M37.2,100.89A1.92,1.92,0,0,0,36,99.66V99h1C38.84,99,40,99,40,99l.09.08a2.64,2.64,0,0,0,0,1.94l1.43,3.7a10.86,10.86,0,0,1,.4,1.26L44,101.18c.36-.82-.12-1.28-1.16-1.52V99H46l.11.34s-.25.15-.68,1.12l-3.71,8.4-1.39-.28Z" transform="translate(-3.58 -4.03)"/><path class="cls-4" d="M50.64,98.78a3.58,3.58,0,0,1,3.78,3.76,14,14,0,0,1-1.4.4l-4.47.67-.19.25c.23,1.65,1.12,3.13,3.27,3.13a4.13,4.13,0,0,0,2.51-.85l.25.62a4.41,4.41,0,0,1-3.79,2.13A4.65,4.65,0,0,1,45.82,104a5,5,0,0,1,4.82-5.23m-2.33,3.86,3.47-.44s-.07-2.41-1.59-2.41c-1.12,0-1.79,1.31-1.88,2.85" transform="translate(-3.58 -4.03)"/><path class="cls-4" d="M55.66,108a1.23,1.23,0,0,0,1.2-1.37v-5c0-.87,0-1.4-.63-1.4h-.85v-.67a23.78,23.78,0,0,0,4.27-1.08l.06.07a10.38,10.38,0,0,0-.3,2.57s1.33-2.34,3-2.34A1.22,1.22,0,0,1,63.72,100a1.33,1.33,0,0,1-1.35,1.36c-.68,0-.78-.43-1.31-.43a3,3,0,0,0-1.5.68v5a6.6,6.6,0,0,1-.1,1.14l1.9.19-.09.63-5.61.13Z" transform="translate(-3.58 -4.03)"/><path class="cls-4" d="M64.65,105.66h.69a2.28,2.28,0,0,0,2.3,2.34A1.17,1.17,0,0,0,69,106.84c0-2.09-4.47-1.79-4.47-5.06,0-1.9,1.52-3,3.59-3a15.4,15.4,0,0,1,2.91.4l-.49,2.38h-.72c-.1-1.62-1.09-1.9-1.7-1.9a1.12,1.12,0,0,0-1.25,1.14c0,2.14,4.45,1.65,4.45,5,0,2.09-1.66,3.08-3.73,3.08-1.27,0-3.29-.4-3.29-1.48a9.47,9.47,0,0,1,.38-1.75" transform="translate(-3.58 -4.03)"/><path class="cls-4" d="M72.33,108a1.23,1.23,0,0,0,1.2-1.37v-5c0-.87,0-1.4-.63-1.4h-.85v-.67a26.15,26.15,0,0,0,4.31-1.06l.06.07a10.32,10.32,0,0,0-.19,2.4v5.66a6,6,0,0,1-.11,1.14l1.69.19-.08.63-5.4.13Zm.8-12.52a1.56,1.56,0,1,1,1.56,1.48,1.46,1.46,0,0,1-1.56-1.48" transform="translate(-3.58 -4.03)"/><path class="cls-4" d="M79,101.75c0-.61.06-1.37.06-1.37H77.71v-.91a3.63,3.63,0,0,0,1.47-.65L80,96.44l1.81.06.07.06a6.65,6.65,0,0,0-.19,2.07V99h3l-.15,1.29H82l-.25.25v4.69c0,1.22.23,1.94,1.33,1.94a4.18,4.18,0,0,0,1.79-.49l.34.55a5.18,5.18,0,0,1-3.59,1.63c-1.52,0-2.57-.81-2.57-2.77Z" transform="translate(-3.58 -4.03)"/><path class="cls-4" d="M90.2,109.54l.19-.46c-.13-.38-.38-1-.65-1.67l-2.85-6.52a2,2,0,0,0-1.23-1.23V99h1c1.88,0,3.09-.08,3.09-.08l.08.08a2.69,2.69,0,0,0,0,1.94l1.54,3.76a12.81,12.81,0,0,1,.4,1.24l2-4.79c.31-.82-.38-1.3-1.17-1.52V99h3.11l.1.34a3.6,3.6,0,0,0-.67,1.12L92,107.94c-.78,1.77-2.21,5.69-4.66,5.69a1,1,0,0,1-1.16-1.07c0-.51.33-1.08,1.39-1.08a2.69,2.69,0,0,0,2.68-1.94" transform="translate(-3.58 -4.03)"/><path class="cls-4" d="M107.48,98.78c2.68,0,3.86,1.58,3.86,3.67,0,2.66-2,6.44-6,6.44a3.55,3.55,0,0,1-3.86-3.8c0-2.7,2-6.31,6-6.31m-2,9.24c1.87,0,3.12-3.63,3.12-6.1,0-.88-.11-2.28-1.25-2.28-2,0-3.08,3.72-3.08,6.31,0,1.21.32,2.07,1.21,2.07" transform="translate(-3.58 -4.03)"/><path class="cls-4" d="M112.42,99.48l1.43-.47c.51-3,1.67-5.84,5.28-5.84,1.22,0,2.34.33,2.34,1.22a1.07,1.07,0,0,1-1,1.1c-1,0-1.42-1.31-2.26-1.31-1.08,0-1.42,2.17-1.73,4.85h2.46l-.29,1.25h-2.09l-.25.17c-.76,6.47-1.88,12.7-6.67,13.19l-.19-.62c3.12-1.07,3.8-8.8,4.26-12.66h-1.3Z" transform="translate(-3.58 -4.03)"/><path class="cls-4" d="M31.68,128c.88-.1,1.41-.55,1.41-1.31v-9.87c0-1-.1-1.23-1.62-1.54v-.64h6.26c4.33,0,8.13,1.92,8.13,6.48,0,4.86-4,7.6-8.76,7.6H35.29c-1.42,0-3.61.06-3.61.06Zm5.42-.38c3.69,0,5.64-2.11,5.64-5.89,0-3.54-1.74-6-5-6H36.17l-.25.25v10.45a6.76,6.76,0,0,1-.11,1.18Z" transform="translate(-3.58 -4.03)"/><path class="cls-4" d="M50.9,123.16l.74-.11a13.65,13.65,0,0,0-.11-2.21c-.13-.62-.44-1-1-1-1.2,0-2,2.26-2,2.26h-1l-.46-1.86a7.68,7.68,0,0,1,4.47-1.35c2.22,0,2.77.85,2.77,3v4.75c0,.63.1,1,.51,1a1.87,1.87,0,0,0,.92-.36l.34.57A3.82,3.82,0,0,1,53.47,129c-1.07,0-1.77-.5-1.77-1.41v-.34a3.88,3.88,0,0,1-3,1.75,2.31,2.31,0,0,1-2.47-2.36c0-2.13,2.47-3.14,4.62-3.46m.72,3.48V124l-.57.11c-1.1.19-2,.78-2,2,0,.66.3,1.23,1,1.23a2.63,2.63,0,0,0,1.59-.68" transform="translate(-3.58 -4.03)"/><path class="cls-4" d="M59.72,129.64l.19-.47c-.13-.38-.38-1-.65-1.66L56.41,121a2,2,0,0,0-1.23-1.23v-.63h1c1.87,0,3.08-.09,3.08-.09l.08.09a2.69,2.69,0,0,0,0,1.94l1.54,3.76a12,12,0,0,1,.4,1.24l2-4.79c.31-.82-.38-1.31-1.17-1.52v-.63h3.11l.1.34a3.61,3.61,0,0,0-.67,1.11L61.47,128c-.78,1.78-2.21,5.7-4.66,5.7a1,1,0,0,1-1.16-1.07c0-.51.34-1.08,1.39-1.08a2.69,2.69,0,0,0,2.68-1.94" transform="translate(-3.58 -4.03)"/><path class="cls-4" d="M67.34,121.85c0-.61.06-1.37.06-1.37H66.05v-.91a3.71,3.71,0,0,0,1.48-.65l.8-2.39,1.81.07.07.06a6.57,6.57,0,0,0-.19,2.07v.4h3l-.14,1.29H70.29l-.25.25v4.68c0,1.23.23,1.94,1.33,1.94a4.18,4.18,0,0,0,1.79-.48l.34.55A5.19,5.19,0,0,1,69.91,129c-1.52,0-2.57-.8-2.57-2.76Z" transform="translate(-3.58 -4.03)"/><path class="cls-4" d="M79.13,118.87c3.17,0,5.09,1.95,5.09,4.69A5.2,5.2,0,0,1,78.86,129a4.68,4.68,0,0,1-5-4.85,5,5,0,0,1,5.29-5.26m.07,9.18c1.77,0,2.13-2.59,2.08-4.09,0-1.9-.69-4.16-2.38-4.16-1.5,0-2.15,1.82-2.15,3.78s.72,4.47,2.45,4.47" transform="translate(-3.58 -4.03)"/><path class="cls-4" d="M84.87,128.08a1.23,1.23,0,0,0,1.2-1.38v-5c0-.86,0-1.39-.63-1.39H84.6v-.68a25.27,25.27,0,0,0,4.26-1l.06.06a9.27,9.27,0,0,0-.29,2.35,4.85,4.85,0,0,1,3.75-2.12c1.46,0,2.52.81,2.52,2.85v5a5.55,5.55,0,0,1-.11,1.12l1.69.21-.09.64-5.15.12v-.71c.72-.11,1-.62,1-1.38v-4.15c0-1.48-.35-1.82-1.18-1.82a3.8,3.8,0,0,0-2.23.78v5.19a5.55,5.55,0,0,1-.11,1.12L90,128l-.08.64-5,.12Z" transform="translate(-3.58 -4.03)"/></g></svg>