<svg id="Layer_1" data-name="Layer 1" xmlns="http://www.w3.org/2000/svg" viewBox="0 0 116.41 76.93"><defs><style>.cls-1{fill:#00a94f;}.cls-2{fill:#0081c6;}.cls-3{fill:#fbaf34;}</style></defs><path class="cls-1" d="M51.6,7.84C41.29,10.26,19.82,25.3,19.82,25.3s4.11,2.19,15.77-1.45,18.92-8,31.54-2.91,29.12,12.38,37.49,9.58a111.54,111.54,0,0,1-24.87-8.61C68.86,16.66,56.23,6.75,51.6,7.84" transform="translate(-4.13 -2.95)"/><path class="cls-2" d="M19.46,28.46s1.63,1.86,8.51.74,21.85-7.67,34.41-5.54S92.28,36,105.2,33.29c0,0-2.18,2.8-16.46,2S72.89,27.9,39.5,33.85c0,0,16-6.23,29.38-6a42.13,42.13,0,0,0-15.71-.28c-8.6,1.49-15.2,5.3-21.62,5.11s-10.74-1.91-12.09-4.27" transform="translate(-4.13 -2.95)"/><path class="cls-3" d="M65.22,10.62A14.94,14.94,0,0,1,91.94,23.94C85.1,21.61,78,17.57,74.05,15.43c-2.63-1.4-5.76-3.12-8.83-4.81" transform="translate(-4.13 -2.95)"/><path class="cls-2" d="M8.69,49c0-1.76,0-4.17.13-5.53.11-1,.53-1.36,1.91-1.47.51,0,.51-.08.51-.38s0-.24-.19-.24c-1.26,0-2.52.06-3.78.06-.94,0-1.88-.06-2.82-.06-.16,0-.27,0-.27.33s.06.24.51.29c1.39.22,1.74.32,1.8,2.38,0,.93,0,2.48,0,5.64a56.75,56.75,0,0,1-.19,6.28C6.19,57,6,57.62,4.64,57.78c-.46,0-.51,0-.51.22,0,.39,0,.39.27.39l3.43,0,3.05,0c.3,0,.38,0,.38-.26s0-.3-.27-.32c-1.36-.11-2-.16-2.2-1.42-.1-.93-.1-1.82-.1-6.3,4.63,0,5.06,0,9.71,0a40.18,40.18,0,0,1-.22,6.52c-.21.79-.62,1-1.66,1.17-.49,0-.54,0-.54.35s.05.29.22.26,1.12,0,3.46,0,2.95,0,3.24,0,.35,0,.35-.26-.06-.3-.54-.35c-1.21-.08-1.82-.13-2-1.39-.14-.85-.14-4.35-.14-6.2a58.87,58.87,0,0,1,.19-6.65c.14-1,.54-1.4,1.93-1.5.46,0,.51,0,.51-.38,0-.19,0-.27-.21-.27l-3.22.06-3.46-.06c-.27,0-.27.11-.27.3s.14.3.4.32c1.48.08,1.83.48,1.91,1.47S18.4,45,18.4,49Z" transform="translate(-4.13 -2.95)"/><path class="cls-2" d="M22.05,50.19a8.5,8.5,0,0,0,8.85,8.5c4.88,0,9.28-3.33,9.28-8.85a8.45,8.45,0,0,0-8.85-8.74c-4.19,0-9.28,2.68-9.28,9.09m2.49-.83c0-3.83,1.83-7.24,6-7.24,3.54,0,7.13,2.68,7.13,8.42,0,6.33-4.34,7.13-6.11,7.13-3.62,0-7-3-7-8.31" transform="translate(-4.13 -2.95)"/><path class="cls-2" d="M41.4,50c0,1.6.38,5,3.27,7.1a10.25,10.25,0,0,0,6.19,1.61,26.13,26.13,0,0,0,4-.3c1-.21,1-.32,1.15-.77.19-.62.78-2.12.78-2.26s-.3-.21-.43-.21-.4.46-.7.81a6.25,6.25,0,0,1-4.77,1.87c-4.07,0-6.92-3.14-6.92-8.1C44,44.21,47.41,42,50.76,42a7.9,7.9,0,0,1,3.8.91,3.73,3.73,0,0,1,.94,2.33c.06.67.09.75.54.75.26,0,.26-.1.26-.37s.09-1.31.19-2.12.35-1.77.35-1.93-.16-.14-.24-.14a4.6,4.6,0,0,0-.62.14,10,10,0,0,1-1.34-.14,22.39,22.39,0,0,0-3.59-.29c-7.86,0-9.65,5.47-9.65,8.88" transform="translate(-4.13 -2.95)"/><path class="cls-2" d="M63.43,50c2.57,2.46,3.91,3.91,5.68,5.83.29.35,1,1.15,1,1.4,0,.47-.76.56-1.13.59s-.43,0-.43.29,0,.35.22.35l2.55-.06,3.26.06c.27,0,.41,0,.41-.38s-.35-.21-.73-.4c-1.18-.56-8.5-8.4-9.09-9.1,1.48-1.26,5.2-4.47,6.06-5.14a7.06,7.06,0,0,1,2.39-1.37c.4-.13.43-.13.43-.42s0-.25-.27-.25h-.54c-.58,0-1.1.08-2,.08-2.12,0-3-.08-3.46-.08-.22,0-.27.11-.27.4s0,.22.4.27c1,.08,1.53.14,1.53.78,0,.48-.91,1.39-1.56,2-1,1-4.1,3.74-5.44,4.89,0-1.17,0-4,.13-5.72.11-1.53.25-1.8,1.7-2,.45-.08.45-.08.45-.37s0-.25-.22-.25c-.42,0-2.54.08-3,.08s-2.63-.08-3.09-.08c-.13,0-.21,0-.21.19s0,.32.24.35.43.08.91.16c.72.13,1,.56,1,4.55,0,2.92,0,7.36-.16,9-.13,1.5-.29,1.82-1.58,2.09-.43.08-.48.11-.48.43s.05.27.32.27c1.42,0,2.46-.06,3-.06.83,0,2.14.06,2.71.06s.69-.1.69-.38-.05-.29-.45-.32c-.94-.08-1.31-.21-1.53-.51-.51-.7-.43-4.2-.43-6.42Z" transform="translate(-4.13 -2.95)"/><path class="cls-2" d="M80.7,48.27c0-5.72.16-6.18,2.25-6.21.49,0,.54,0,.54-.37s0-.3-.24-.3c-.51,0-3,0-3.54.06l-3.54-.06c-.19,0-.24.06-.24.3s.1.35.8.35c1.74,0,1.86.64,1.86,3.93,0,3,0,7.48-.14,9.19-.11,1.47-.22,2.45-2.09,2.56-.51,0-.56,0-.56.38s.07.29.29.29l3.51,0c1.18,0,2.39,0,3.57,0,.27,0,.32,0,.32-.24s0-.35-.35-.37c-2.09,0-2.22-.48-2.33-2.17-.14-1.49-.11-5.72-.11-7.34" transform="translate(-4.13 -2.95)"/><path class="cls-2" d="M87.26,46.59c0,2.14,0,6-.26,8.46-.16,1.82-.55,2.38-2.1,2.65-.51.08-.56.11-.56.37s.11.38.32.38L87,58.39l4.4.06c.21,0,.3-.06.3-.35s-.06-.32-.59-.35c-2.15-.1-2.34-1-2.47-1.9-.16-1.13-.16-10.2-.16-11.16.91,1.07,1.39,1.68,2.79,3.13,6.27,6.64,7.61,8.06,9.19,10.31.24.37.43.64.56.64s.65-.21.65-.4-.16-.7-.19-.94c-.08-.72-.13-2.17-.13-3.72,0-3.94.08-6.61.27-8.67s.43-2.57,2.12-2.92c.5-.11.56-.11.56-.46s-.06-.27-.27-.27c-1.23,0-2.49,0-3.4,0l-3.14,0c-.24,0-.3.06-.3.33s0,.29.35.29c2.23.13,2.47.64,2.6,2.39.08,1,.08,5.21.08,10-1.58-1.85-9.76-10.44-11.39-12.58-.17-.22-.27-.38-.49-.38h-.18c-.35,0-.86,0-1.51,0l-1.93,0c-.27,0-.32,0-.32.35s0,.27.64.32c2.2.21,2.2,1.85,2.2,4.5" transform="translate(-4.13 -2.95)"/><path class="cls-2" d="M103.13,50.32c0,4,2.42,8.37,9.66,8.37a25.82,25.82,0,0,0,5.93-.75c.5-.11.61-.16.61-.33a5.54,5.54,0,0,1-.16-1.12c0-.37,0-.88,0-1.77a30.52,30.52,0,0,1,.16-3.48,1.14,1.14,0,0,1,1-.89c.24-.08.24-.1.24-.35s0-.29-.19-.29c-.4,0-1.42.08-2.52.1-.72,0-2.2,0-3.76,0-.26,0-.29.08-.29.41s.08.29.75.32c2.49.13,2.49.64,2.49,3.19,0,2.84-.24,3-.53,3.29-.48.46-2.25.7-3.28.7-2.57,0-7.58-1.28-7.58-7.91,0-4.69,2.6-7.7,7.4-7.7a7,7,0,0,1,4.13,1c.21.18.51.48.8,1.82.14.59.16.65.35.65s.46-.08.46-.27c0-.43-.13-.86-.13-3.43,0-.49,0-.65-.25-.65s-.32.19-.51.19A36.74,36.74,0,0,0,114,41.1c-3.46,0-10.84,1.18-10.84,9.22" transform="translate(-4.13 -2.95)"/><path class="cls-2" d="M13.14,72.87a6.93,6.93,0,0,0,2.63,5.71,8.24,8.24,0,0,0,5,1.3A20.6,20.6,0,0,0,24,79.64c.8-.17.82-.26.93-.62s.62-1.71.62-1.82-.23-.17-.34-.17-.32.37-.56.65a5,5,0,0,1-3.84,1.51c-3.28,0-5.57-2.52-5.57-6.51,0-4.45,2.76-6.27,5.46-6.27a6.31,6.31,0,0,1,3.06.74c.61.45.71,1.6.76,1.87,0,.54.06.61.43.61.22,0,.22-.09.22-.3s.06-1.06.15-1.7.28-1.43.28-1.56-.13-.11-.2-.11a3.4,3.4,0,0,0-.49.11A8.74,8.74,0,0,1,23.8,66a18.64,18.64,0,0,0-2.89-.24c-6.33,0-7.77,4.41-7.77,7.15" transform="translate(-4.13 -2.95)"/><path class="cls-2" d="M27.82,73a6.84,6.84,0,0,0,7.12,6.84c3.93,0,7.47-2.68,7.47-7.12a6.8,6.8,0,0,0-7.12-7c-3.37,0-7.47,2.16-7.47,7.32m2-.67c0-3.09,1.47-5.83,4.83-5.83,2.85,0,5.74,2.16,5.74,6.78,0,5.09-3.49,5.74-4.92,5.74-2.91,0-5.65-2.4-5.65-6.69" transform="translate(-4.13 -2.95)"/><path class="cls-2" d="M46,71.64c0,2.22,0,4.89-.17,6.15-.08.58-.2,1.27-1.45,1.38-.28,0-.32,0-.32.3s.07.24.3.24,1.84-.13,5-.13c3.89,0,4.36.13,4.79.13.19,0,.24-.22.32-.59A15.18,15.18,0,0,0,55,76.19C55,76,55,76,54.63,76c-.15,0-.18.25-.3.62-.7,2.11-1.95,2.11-5,2.11-1.13,0-1.45,0-1.53-.66a48.49,48.49,0,0,1-.13-5.4,48.42,48.42,0,0,1,.21-5.36c.17-.49.43-.77,1.47-.85.34,0,.37,0,.37-.31s-.07-.21-.22-.21c-.37,0-2.18.08-2.59.08s-2.07-.08-2.46-.08c-.17,0-.21,0-.21.32,0,.13.06.15.77.26.89.15,1,.71,1,3.11Z" transform="translate(-4.13 -2.95)"/><path class="cls-2" d="M58.83,71.64c0,2.22,0,4.89-.18,6.15-.08.58-.19,1.27-1.44,1.38-.28,0-.33,0-.33.3s.07.24.3.24,1.84-.13,5-.13c3.89,0,4.36.13,4.79.13.2,0,.24-.22.32-.59a15.18,15.18,0,0,0,.61-2.93c0-.15-.07-.21-.41-.21-.15,0-.17.25-.3.62-.69,2.11-1.94,2.11-5,2.11-1.12,0-1.44,0-1.53-.66a48.49,48.49,0,0,1-.13-5.4,46,46,0,0,1,.22-5.36c.17-.49.43-.77,1.46-.85.35,0,.37,0,.37-.31s-.06-.21-.22-.21c-.36,0-2.18.08-2.59.08s-2.07-.08-2.46-.08c-.17,0-.21,0-.21.32,0,.13.06.15.78.26.88.15,1,.71,1,3.11Z" transform="translate(-4.13 -2.95)"/><path class="cls-2" d="M73.43,67.49c0-.13,0-.46.08-.54A9.14,9.14,0,0,1,76,66.74c3.52,0,3.59.47,3.69,2.08,0,.41,0,.45.35.45s.28,0,.28-.19a18.41,18.41,0,0,1,.09-1.91c0-.16.15-.86.15-1s-.15-.19-.59-.19l-.82,0c-.58,0-5.54.07-5.89.07s-2.52-.07-3-.07c-.11,0-.21,0-.21.26s.08.26.26.26c.8.06,1.16.11,1.27.62s.13,4.45.13,5.44c0,1.19,0,4.4-.09,5.33-.1,1.15-.47,1.19-1.49,1.3-.26,0-.3,0-.3.28s0,.26.32.26c.44,0,2.49-.13,3.41-.13,2.1,0,6,.13,6.55.13.19,0,.21-.16.3-.44a26.07,26.07,0,0,0,.64-3c0-.13-.06-.22-.43-.22-.11,0-.3.69-.43,1-.67,1.36-1.45,1.81-4.41,1.81a4.76,4.76,0,0,1-2-.17c-.36-.2-.36-.2-.36-5.82,2.11,0,2.72,0,3.36.06,1.11,0,1.86.3,1.92,1.51,0,.3.07.34.31.34s.26,0,.26-.19v-.2a13.89,13.89,0,0,1-.07-1.7c0-.56.07-1.55.07-2,0-.23,0-.34-.24-.34s-.24.06-.28.32c-.07.78-.22,1.27-1.17,1.4a37.66,37.66,0,0,1-4.16.07Z" transform="translate(-4.13 -2.95)"/><path class="cls-2" d="M83.69,73.14c0,3.27,1.94,6.74,7.77,6.74a20.46,20.46,0,0,0,4.78-.61c.4-.08.49-.12.49-.25a4.61,4.61,0,0,1-.13-.91c0-.3,0-.71,0-1.42a23.63,23.63,0,0,1,.13-2.81.89.89,0,0,1,.8-.71c.19-.06.19-.09.19-.28s0-.24-.15-.24c-.33,0-1.14.06-2,.09-.58,0-1.77,0-3,0-.22,0-.24.07-.24.32s.07.24.6.26c2,.11,2,.52,2,2.57,0,2.29-.19,2.44-.43,2.65a5.38,5.38,0,0,1-2.63.56c-2.07,0-6.11-1-6.11-6.36,0-3.78,2.09-6.2,6-6.2a5.68,5.68,0,0,1,3.32.8c.17.15.41.39.65,1.47.1.47.13.52.28.52s.36-.07.36-.22c0-.35-.1-.69-.1-2.76,0-.39,0-.52-.19-.52s-.26.15-.42.15a29.74,29.74,0,0,0-3.15-.28c-2.78,0-8.72,1-8.72,7.42" transform="translate(-4.13 -2.95)"/><path class="cls-2" d="M103.93,67.49c0-.13,0-.46.09-.54a9.07,9.07,0,0,1,2.46-.21c3.52,0,3.58.47,3.69,2.08,0,.41,0,.45.35.45s.28,0,.28-.19c0-.65,0-1.18.08-1.91,0-.16.15-.86.15-1s-.15-.19-.58-.19l-.82,0c-.59,0-5.55.07-5.89.07s-2.53-.07-3-.07c-.11,0-.22,0-.22.26s.09.26.26.26c.8.06,1.16.11,1.27.62s.13,4.45.13,5.44c0,1.19,0,4.4-.08,5.33-.11,1.15-.48,1.19-1.49,1.3-.26,0-.3,0-.3.28s0,.26.32.26c.43,0,2.48-.13,3.41-.13,2.09,0,6,.13,6.54.13.19,0,.22-.16.3-.44a26.22,26.22,0,0,0,.65-3c0-.13-.07-.22-.43-.22-.11,0-.3.69-.43,1-.67,1.36-1.45,1.81-4.41,1.81a4.73,4.73,0,0,1-2-.17c-.37-.2-.37-.2-.37-5.82,2.12,0,2.73,0,3.37.06,1.1,0,1.85.3,1.92,1.51,0,.3.06.34.3.34s.26,0,.26-.19v-.2a13.89,13.89,0,0,1-.07-1.7c0-.56.07-1.55.07-2,0-.23,0-.34-.24-.34s-.23.06-.28.32c-.07.78-.22,1.27-1.16,1.4a38,38,0,0,1-4.17.07Z" transform="translate(-4.13 -2.95)"/></svg>