<?xml version="1.0" encoding="utf-8"?>
<!-- Generator: Adobe Illustrator 19.2.1, SVG Export Plug-In . SVG Version: 6.00 Build 0)  -->
<svg version="1.1" id="layer" xmlns="http://www.w3.org/2000/svg" xmlns:xlink="http://www.w3.org/1999/xlink" x="0px" y="0px"
	 viewBox="0 0 652 652" style="enable-background:new 0 0 652 652;" xml:space="preserve">
<style type="text/css">
	.st0{fill:#104A92;}
	.st1{fill:#000101;}
	.st2{fill:#0D4C94;}
</style>
<path class="st0" d="M379.4,332.9v-3V332.9z"/>
<path class="st1" d="M53,376.2v9.8h-1.1c-0.8-3-2.2-5.3-4.1-6.7c-1.9-1.4-4.4-2.1-7.5-2.1c-4,0-7.2,1.3-9.6,4
	c-2.4,2.7-3.5,6.3-3.5,10.7c0,4.9,1.2,8.8,3.7,11.8c2.5,3,5.8,4.5,9.8,4.5c5.6,0,9.7-2.4,12.4-7.2l0.9,0.8c-1.2,2.6-3.1,4.7-5.8,6.2
	c-2.7,1.5-5.7,2.3-9.1,2.3c-3.2,0-6.2-0.7-8.9-2.1c-2.7-1.4-4.8-3.3-6.3-5.8c-1.5-2.5-2.2-5.3-2.2-8.5c0-5.2,1.7-9.5,5.2-12.9
	c3.5-3.4,7.8-5.1,13.1-5.1c1.8,0,4,0.3,6.7,0.9c1.5,0.3,2.6,0.5,3.2,0.5c0.9,0,1.5-0.3,1.9-1H53L53,376.2z"/>
<path class="st1" d="M64.9,393c0,4.8,1.2,8.7,3.7,11.6c2.5,3,5.7,4.4,9.7,4.4c4,0,7.3-1.5,9.8-4.5c2.5-3,3.8-6.8,3.8-11.3
	c0-4.8-1.2-8.7-3.7-11.7c-2.5-2.9-5.6-4.4-9.6-4.4c-4.2,0-7.5,1.4-10,4.3C66.2,384.3,64.9,388.2,64.9,393 M59.5,392.9
	c0-4.9,1.8-8.9,5.4-12.2c3.6-3.2,8.2-4.9,13.6-4.9c5.3,0,9.7,1.6,13.4,4.9c3.6,3.3,5.5,7.3,5.5,12.1c0,4.9-1.8,9-5.5,12.3
	c-3.7,3.4-8.2,5-13.5,5c-5.3,0-9.8-1.7-13.4-5C61.3,401.9,59.5,397.8,59.5,392.9"/>
<path class="st1" d="M136.2,376.7h8.4v0.9c-2.7,0.1-4,1.5-4,4.4c0,0.2,0,0.5,0,0.8l1.8,20.2c0.2,2.2,0.6,3.6,1.2,4.3
	c0.6,0.7,1.7,1.1,3.2,1.3v0.9H134v-0.9c1.4-0.2,2.3-0.6,2.9-1.2c0.6-0.6,0.8-1.6,0.8-2.8c0-0.3,0-0.5,0-0.9l-1.9-21.2l-12.2,27.1
	h-0.9l-12-27l-2,20.1c0,0.3,0,0.6,0,0.9c0,2.8,1.5,4.5,4.6,5v0.9h-11v-0.9c1.5-0.2,2.5-0.7,3.2-1.4c0.7-0.8,1.1-2.3,1.3-4.6
	l2.1-22.5c-1.3-1.3-2.8-2-4.6-2.3v-0.9h9l11.4,25.8L136.2,376.7z"/>
<path class="st1" d="M183.6,376.7h8.4v0.9c-2.7,0.1-4,1.5-4,4.4c0,0.2,0,0.5,0,0.8l1.8,20.2c0.2,2.2,0.6,3.6,1.2,4.3
	c0.6,0.7,1.7,1.1,3.2,1.3v0.9h-12.8v-0.9c1.4-0.2,2.3-0.6,2.9-1.2c0.6-0.6,0.8-1.6,0.8-2.8c0-0.3,0-0.5,0-0.9l-1.9-21.2l-12.2,27.1
	h-0.9l-12-27l-2,20.1c0,0.3,0,0.6,0,0.9c0,2.8,1.5,4.5,4.6,5v0.9h-11v-0.9c1.5-0.2,2.5-0.7,3.2-1.4c0.7-0.8,1.1-2.3,1.3-4.6
	l2.1-22.5c-1.3-1.3-2.8-2-4.6-2.3v-0.9h9l11.4,25.8L183.6,376.7z"/>
<path class="st1" d="M225.9,402.6v-19.7c0-1.9-0.3-3.2-0.8-4c-0.6-0.8-1.5-1.2-2.9-1.2v-0.9h12.5v0.9c-1.5,0-2.6,0.4-3.2,1.1
	c-0.6,0.8-0.9,2.1-0.9,4.1v20.4c0,1.9,0.3,3.3,0.9,4c0.6,0.8,1.6,1.2,3.2,1.2v0.9h-8.7v-4.6c-3.3,3.6-7.3,5.4-11.8,5.4
	c-3.7,0-6.7-1-8.9-3.1c-2.1-2.1-3.2-4.8-3.2-8.2v-16.1c0-2-0.3-3.3-0.8-4.1c-0.6-0.8-1.6-1.1-3.2-1.1v-0.9h12.8v0.9
	c-1.6,0-2.7,0.4-3.2,1.1c-0.6,0.7-0.8,2.1-0.8,4v16.6c0,2.7,0.8,4.8,2.4,6.3c1.6,1.5,3.8,2.3,6.7,2.3
	C220,408,223.3,406.2,225.9,402.6"/>
<path class="st1" d="M264.9,377.6v-0.9h10.7v0.9c-1.7,0-2.9,0.4-3.6,1.1c-0.7,0.7-1,2.1-1,4v26.6H270L244.8,381v23
	c0,1.6,0.4,2.8,1.1,3.5c0.7,0.7,1.9,1,3.6,1v0.9h-10.8v-0.9c1.7,0,2.9-0.4,3.5-1.2c0.6-0.8,0.9-2.3,0.9-4.4v-19.2
	c0-2.1-0.4-3.6-1.2-4.5c-0.8-0.9-2.2-1.4-4-1.6v-0.9h9.1l22.3,25.5V383c0-2-0.3-3.4-0.9-4.2C267.7,378,266.6,377.6,264.9,377.6"/>
<path class="st1" d="M292.1,376.7v0.9c-1.5,0-2.6,0.4-3.2,1.1c-0.6,0.8-0.9,2.1-0.9,4.1v20.4c0,2,0.3,3.3,0.9,4.1
	c0.6,0.8,1.6,1.1,3.2,1.1v0.9h-12.8v-0.9c1.6,0,2.6-0.4,3.2-1.1c0.6-0.8,0.8-2.1,0.8-4.1v-20.4c0-2-0.3-3.4-0.8-4.1
	c-0.6-0.7-1.6-1.1-3.2-1.1v-0.9H292.1L292.1,376.7z"/>
<path class="st1" d="M318.6,378.3h-5.4v25.2c0,2,0.3,3.3,0.8,4c0.5,0.7,1.5,1,3.1,1v0.9h-12.6v-0.9c1.6,0,2.6-0.4,3.2-1.2
	c0.6-0.8,0.8-2.1,0.8-4v-25h-5.1c-2.5,0-4.2,0.4-5.4,1.1c-1.1,0.7-1.7,1.9-1.9,3.6H295v-7.5h1.1c0.9,0.8,2.7,1.2,5.3,1.2H320
	c2.7,0,4.6-0.4,5.6-1.2h1.1v7.5h-0.7c-0.4-1.8-1.2-3-2.4-3.7C322.6,378.6,320.8,378.3,318.6,378.3"/>
<path class="st1" d="M355.7,381.3l-8,11.6v10.3c0,2,0.3,3.4,0.8,4.1c0.6,0.7,1.6,1.1,3.1,1.1v0.9h-13v-0.9c1.8,0,2.9-0.4,3.5-1.2
	c0.6-0.8,0.9-2.1,0.9-4V393l-7.6-10.9c-1.3-1.8-2.3-3-3.1-3.5c-0.8-0.6-1.9-0.9-3.3-0.9v-0.9h13.9v0.9c-2.4,0-3.7,0.5-3.7,1.5
	c0,0.5,0.2,1,0.7,1.7l7,9.9l5.6-8.2c0.8-1.2,1.2-2.3,1.2-3.1c0-1.2-0.8-1.8-2.4-1.8v-0.9h9.7v0.9c-1.3,0.1-2.3,0.3-3,0.8
	C357.6,378.9,356.8,379.9,355.7,381.3"/>
<path class="st1" d="M411.2,376.2v9.8h-1.1c-0.8-3-2.2-5.3-4.1-6.7c-1.9-1.4-4.4-2.1-7.5-2.1c-4,0-7.2,1.3-9.6,4
	c-2.4,2.7-3.5,6.3-3.5,10.7c0,4.9,1.2,8.8,3.7,11.8c2.5,3,5.8,4.5,9.8,4.5c5.6,0,9.7-2.4,12.4-7.2l0.9,0.8c-1.2,2.6-3.1,4.7-5.8,6.2
	c-2.7,1.5-5.7,2.3-9.1,2.3c-3.2,0-6.2-0.7-8.9-2.1c-2.7-1.4-4.8-3.3-6.3-5.8c-1.5-2.5-2.2-5.3-2.2-8.5c0-5.2,1.7-9.5,5.2-12.9
	c3.5-3.4,7.8-5.1,13.1-5.1c1.8,0,4,0.3,6.7,0.9c1.5,0.3,2.6,0.5,3.2,0.5c0.9,0,1.5-0.3,1.9-1H411.2L411.2,376.2z"/>
<path class="st1" d="M423.2,393c0,4.8,1.2,8.7,3.7,11.6c2.5,3,5.7,4.4,9.7,4.4c4,0,7.3-1.5,9.8-4.5c2.5-3,3.8-6.8,3.8-11.3
	c0-4.8-1.2-8.7-3.7-11.7c-2.5-2.9-5.6-4.4-9.6-4.4c-4.2,0-7.5,1.4-10,4.3S423.2,388.2,423.2,393 M417.7,392.9
	c0-4.9,1.8-8.9,5.4-12.2c3.6-3.2,8.2-4.9,13.6-4.9c5.3,0,9.7,1.6,13.4,4.9c3.6,3.3,5.5,7.3,5.5,12.1c0,4.9-1.8,9-5.5,12.3
	c-3.7,3.4-8.2,5-13.5,5c-5.3,0-9.8-1.7-13.4-5C419.6,401.9,417.7,397.8,417.7,392.9"/>
<path class="st1" d="M488.5,402.3h1.1l-2.2,7.1h-25.7v-0.9c1.5,0,2.5-0.4,3.1-1.3c0.6-0.8,0.9-2.3,0.9-4.2v-20.6
	c0-1.8-0.3-3-0.9-3.7c-0.6-0.7-1.6-1-3.2-1v-0.9h12.7v0.9c-1.4,0-2.4,0.4-3,1.2c-0.6,0.8-0.9,2.1-0.9,4v21.9c0,1.2,0.3,2,0.8,2.5
	c0.6,0.4,1.6,0.7,3.2,0.7h7c2.2,0,3.7-0.3,4.6-1C486.9,406.1,487.7,404.6,488.5,402.3"/>
<path class="st1" d="M519.1,402.3h1.1l-2.2,7.1h-25.7v-0.9c1.5,0,2.5-0.4,3.1-1.3c0.6-0.8,0.9-2.3,0.9-4.2v-20.6
	c0-1.8-0.3-3-0.9-3.7c-0.6-0.7-1.6-1-3.2-1v-0.9H505v0.9c-1.4,0-2.4,0.4-3,1.2c-0.6,0.8-0.9,2.1-0.9,4v21.9c0,1.2,0.3,2,0.8,2.5
	c0.6,0.4,1.6,0.7,3.2,0.7h7.1c2.2,0,3.7-0.3,4.6-1C517.5,406.1,518.4,404.6,519.1,402.3"/>
<path class="st1" d="M544.9,389.1h1.1v8h-1.1c-0.4-1.4-0.8-2.3-1.4-2.6c-0.5-0.4-1.7-0.5-3.6-0.5h-8.8v11.7c0,0.8,0.2,1.4,0.6,1.7
	c0.4,0.3,1.1,0.5,2,0.5h6.2c2.2,0,3.7-0.1,4.6-0.3c0.8-0.2,1.6-0.6,2.1-1.2c0.6-0.6,1.2-1.6,1.9-3h1.1l-1.6,6.1h-25.6v-0.9
	c1.6,0,2.7-0.4,3.2-1.1c0.5-0.8,0.8-2.1,0.8-4v-20.5c0-2-0.3-3.4-0.8-4.1c-0.6-0.8-1.6-1.1-3.2-1.1v-0.9H548v5.5h-0.7
	c-0.4-1.6-0.9-2.6-1.6-3.1c-0.7-0.5-2.1-0.8-4.4-0.8h-10.2v14h9.9c1.4,0,2.3-0.2,2.8-0.7C544.3,391.2,544.7,390.3,544.9,389.1"/>
<path class="st1" d="M590.4,395.2v0.9c-1.6,0-2.7,0.3-3.4,1c-0.7,0.7-1,1.8-1,3.4v8.8c-0.8,0.2-2.4,0.4-4.6,0.6
	c-2.3,0.2-4,0.2-5.3,0.2c-6.6,0-11.7-1.5-15.3-4.5c-3.7-3-5.5-6.9-5.5-11.8c0-3.4,0.8-6.5,2.4-9.2c1.6-2.7,3.8-4.9,6.7-6.5
	c2.9-1.6,5.9-2.4,9.2-2.4c1.9,0,4,0.3,6.3,0.9c1.5,0.4,2.6,0.6,3.3,0.6c1,0,1.7-0.4,2-1.1h1.1v9.7h-1c-0.4-2.7-1.7-4.8-3.9-6.4
	c-2.2-1.6-4.8-2.4-7.8-2.4c-3.8,0-6.8,1.4-9.2,4.1c-2.4,2.8-3.6,6.3-3.6,10.7c0,4.8,1.4,8.8,4.2,11.9c2.8,3.2,6.3,4.7,10.5,4.7
	c4,0,6-1.2,6-3.5v-3.5c0-2-0.3-3.4-0.9-4.2c-0.6-0.8-1.6-1.2-3-1.2H576v-0.9H590.4L590.4,395.2z"/>
<path class="st1" d="M616.5,389.1h1.1v8h-1.1c-0.4-1.4-0.8-2.3-1.4-2.6c-0.5-0.4-1.7-0.5-3.6-0.5h-8.8v11.7c0,0.8,0.2,1.4,0.6,1.7
	c0.4,0.3,1.1,0.5,2,0.5h6.2c2.2,0,3.7-0.1,4.6-0.3c0.8-0.2,1.6-0.6,2.2-1.2c0.6-0.6,1.2-1.6,1.9-3h1.1l-1.6,6.1H594v-0.9
	c1.6,0,2.7-0.4,3.2-1.1c0.5-0.8,0.8-2.1,0.8-4v-20.5c0-2-0.3-3.4-0.8-4.1c-0.6-0.8-1.6-1.1-3.2-1.1v-0.9h25.6v5.5h-0.7
	c-0.4-1.6-0.9-2.6-1.6-3.1c-0.7-0.5-2.1-0.8-4.4-0.8h-10.2v14h9.9c1.4,0,2.3-0.2,2.8-0.7C615.9,391.2,616.3,390.3,616.5,389.1"/>
<path class="st2" d="M246.2,301L227,319.7c0,0,15.9,6.3,21.1,11.5c4.4,4.4,3.4,3.2,8.6,9.5c3.3,4,5.4,8.8,10.8,14.4
	c2,2.1,7.4,3.7,11.3,3.9v3.4h-26.1c0,0,0.1-8.6-14.1-21.5c-14.2-12.9-27.4-14.8-27.4-14.8c0,19.1,0.9,29.4,2.6,30.8
	c1.8,1.4,5.3,2.1,10.7,2.1v3.4h-42.9V359c6.2-0.1,10.1-1,11.7-2.7c1.6-1.6,2.5-5.4,2.5-11.3v-95.8c0-4.2-0.9-6.9-2.6-8.1
	c-1.7-1.2-5.6-1.8-11.6-1.8v-3.4l25.7-2.5h3.9v92.1l21.4-17.9c4.1-3.4,11.3-11.7,10.8-17.1c-0.6-6.1-7.8-5.8-14.2-6l0.2-4.4
	l46.9,0.2l-0.2,4.2l-7.4,0.3l-4.2,0.8C258,287.1,255.8,291.3,246.2,301"/>
<path class="st2" d="M280.2,323.5l40.9-10l-0.1-5.3c0-7.2-1.9-12.9-5.8-17.1c-3.9-4.2-8.7-6.3-14.5-6.3c-6.1,0-11,2.2-14.8,6.7
	C278,300.8,279.6,315.2,280.2,323.5 M336.6,342.1v5.9c-4.6,6.2-9.3,10.7-14,13.3c-4.8,2.7-10.5,4-17.2,4c-11.8,0-21.6-3.9-29.3-11.8
	c-7.7-7.9-11.5-17.9-11.5-30c0-12.2,3.7-22.5,11-30.8c7.3-8.4,16.3-12.5,27-12.5c8.8,0,16.4,3.1,23,9.4c6.5,6.3,9.8,13.8,9.8,22.5
	v1.7l-54.8,12.9l-1-12.4c0.1,9.5,1.3,17.2,3.9,23.8c2.5,6.5,6.2,11.7,11.1,15.4c4.9,3.7,10,5.6,15.2,5.6c4.9,0,9.2-1.1,12.7-3.3
	C326.1,353.4,330.8,348.9,336.6,342.1"/>
<path class="st2" d="M374.6,359.4h2.1v3.4h-44.5v-3.4h4.1c4.1,0,6.9-1,8.4-2.9c1.5-2,2.2-5.6,2.2-11v-97c0-3.8-0.8-6.4-2.4-7.9
	c-1.6-1.5-4.4-2.2-8.4-2.2h-5.2V235l27.5-2.5h3.7v116.6c0,4,0.9,6.7,2.7,8.2C366.5,358.7,369.8,359.4,374.6,359.4"/>
<path class="st2" d="M467.3,280.1v16.1c9.3-10.7,18.9-16.1,28.8-16.1c7.7,0,14.1,2.6,19.2,7.9c5.1,5.3,7.7,12.3,7.7,20.9v36.3
	c0,5.6,0.9,9.2,2.8,11c1.8,1.8,5.4,2.7,10.8,2.7v3.8H494V359c5.3,0,8.9-0.7,10.8-2.1c1.9-1.4,2.9-4,2.9-8v-42.1
	c0-5.6-1.7-10.1-5-13.4c-3.3-3.3-7.6-5-12.8-5c-7.5,0-15,5.3-22.7,15.8v39.4c0,6.7,0.9,10.9,2.6,12.7c1.7,1.8,5.3,2.7,10.7,2.7v3.8
	h-42V359c6.1,0,9.8-1,11.2-2.9c1.4-2,2.1-6.1,2.1-12.5v-45.4c0-4.8-0.8-8-2.5-9.5c-1.7-1.5-5.3-2.3-10.8-2.3v-3.8l24.9-2.4H467.3z"
	/>
<path class="st2" d="M593.2,348.3l0.5-41.5c-2.2-5.8-4.8-11.3-11.2-15.2c-4-2.4-8.3-3.2-13.1-2.6c-7.2,1-12.5,5.6-17,11
	c-4.5,5.5-6.7,12.6-6.7,21.5c0,11.4,3.1,20.5,9.2,27.5c6.1,6.9,14.7,10.4,25.7,10.4c4.5,0,7.7-0.9,9.7-2.6
	C592.2,355,593.2,352.2,593.2,348.3 M604.8,232.9h3.7v115.7c0,4,0.9,6.8,2.9,8.4c1.9,1.6,5.4,2.3,10.4,2.3v3.4h-46.4
	c-14.3,0-25.6-3.6-33.9-10.8c-8.3-7.2-12.5-16.3-12.5-27.3c0-10.3,2.3-17.7,8.1-26.3c6.7-10,19.4-18.5,29.8-18.1
	c14.1,0.6,20.2,6.5,26.6,14.5l-0.1-43.4c0-4.9-0.7-8.3-2.1-10c-1.4-1.8-4.2-2.6-8.5-2.6h-4.5v-3.4L604.8,232.9z"/>
<path class="st2" d="M111.3,334.5h3.9l-8,28.2H25.4v-3.7c5.3,0,9-1.6,11.3-4.9c2.2-3.3,3.4-8.9,3.4-16.6v-81.2c0-7-1-11.8-3.1-14.6
	c-2.1-2.8-5.9-4.1-11.5-4.1v-3.7h46.2v3.7c-5.1,0-8.8,1.6-11.1,4.7c-2.2,3.2-3.4,8.4-3.4,15.6V344c0,4.8,1,8,3,9.8
	c2,1.8,5.9,2.6,11.6,2.6h13.3c7.9,0,13.5-1,16.7-3.7C105,349.9,108.5,343.6,111.3,334.5"/>
<path class="st2" d="M159.4,346.4v-27.3c-2.3,1-5.6,2.2-9.9,3.7c-8,2.7-13.1,5.5-15.4,8.2c-2.2,2.7-3.4,6.3-3.4,10.9
	c0,4,1.2,7.5,3.6,10.4c2.4,2.9,5.2,4.4,8.5,4.4c3,0,6.2-1,9.5-2.9C155.6,351.8,158,349.3,159.4,346.4 M137.9,365.3
	c-6.2,0-11.6-2.1-16.1-6.3c-4.5-4.2-6.7-9.2-6.7-15.1c0-5.6,1.9-10.3,5.8-13.9c3.8-3.7,11.7-7.2,23.5-10.5c7.4-2.1,12.4-3.8,15-5.3
	v-6c0-5.8-1.6-10.6-4.8-14.2c-3.2-3.6-7.6-5.4-13-5.4c-4.9,0-9.3,1.6-13.1,4.7c-3.8,3.1-6.5,7.3-8,12.6l-4.1-1.1
	c1.6-7.5,5.1-13.5,10.5-18c5.4-4.5,11.7-6.8,19-6.8c8.6,0,15.5,2.6,20.8,7.8c5.3,5.2,8,12.4,8,21.7v34.5c0,4.9,0.3,8.2,0.9,9.9
	c0.6,1.7,1.8,2.6,3.6,2.6c1.2,0,2.1-0.5,2.9-1.5c0.7-1,1.1-1.6,2.1-4.8l4.2,0c-0.4,5-1.8,7.5-4.5,10.5c-2.7,3-6.4,4.4-10.8,4.4
	c-6.5,0-11-3.8-13.5-11.4c-4,4.4-7.5,7.4-10.6,9C145.7,364.5,142.1,365.3,137.9,365.3"/>
<path class="st2" d="M415.8,346.4v-27.3c-2.3,1-5.6,2.2-9.9,3.7c-8,2.7-13.1,5.5-15.3,8.2c-2.2,2.7-3.4,6.3-3.4,10.9
	c0,4,1.2,7.5,3.6,10.4c2.4,2.9,5.2,4.4,8.5,4.4c3,0,6.2-1,9.5-2.9C412,351.8,414.4,349.3,415.8,346.4 M394.3,365.3
	c-6.2,0-11.6-2.1-16.1-6.3c-4.5-4.2-6.7-9.2-6.7-15.1c0-5.6,1.9-10.3,5.8-13.9c3.8-3.7,11.7-7.2,23.5-10.5c7.4-2.1,12.4-3.8,15-5.3
	v-6c0-5.8-1.6-10.6-4.8-14.2c-3.2-3.6-7.6-5.4-13-5.4c-4.9,0-9.3,1.6-13.1,4.7c-3.8,3.1-6.5,7.3-8,12.6l-4.1-1.1
	c1.6-7.5,5.1-13.5,10.5-18c5.4-4.5,11.7-6.8,19-6.8c8.6,0,15.5,2.6,20.8,7.8c5.3,5.2,8,12.4,8,21.7v34.5c0,4.9,0.3,8.2,0.9,9.9
	c0.6,1.7,1.8,2.6,3.6,2.6c1.2,0,2.1-0.5,2.9-1.5c0.7-1,1.1-1.6,2.1-4.8l4.2,0c-0.4,5-1.8,7.5-4.5,10.5c-2.8,3-6.4,4.4-10.8,4.4
	c-6.5,0-11-3.8-13.5-11.4c-4,4.4-7.5,7.4-10.6,9C402.1,364.5,398.5,365.3,394.3,365.3"/>
</svg>
