<?xml version="1.0" encoding="utf-8"?>
<!-- Generator: Adobe Illustrator 19.2.1, SVG Export Plug-In . SVG Version: 6.00 Build 0)  -->
<svg version="1.1" id="layer" xmlns="http://www.w3.org/2000/svg" xmlns:xlink="http://www.w3.org/1999/xlink" x="0px" y="0px"
	 viewBox="0 0 652 652" style="enable-background:new 0 0 652 652;" xml:space="preserve">
<style type="text/css">
	.st0{fill:#00262C;}
	.st1{fill:#0055A5;}
</style>
<g>
	<path d="M309.6,264.7c-0.1,2.9-2.3,5.1-4.7,5.1c-2.2-0.1-3.2-1.5-3.2-3.5c0-2.6,2.3-4.9,4.7-4.8
		C308.5,261.5,309.4,262.9,309.6,264.7"/>
	<path class="st0" d="M129.4,258.9c-0.4,0-0.8,0.1-1.1,0.1H22.7c-0.4,0-0.8,0-1.1-0.1c0.3-0.1,0.6-0.2,0.9-0.2c8,0,16,0,24,0
		c27.3,0,54.6,0,81.9,0C128.8,258.7,129.1,258.9,129.4,258.9"/>
	<path d="M514.7,279.3c3.3,0,6.3,0,9.3,0c4.2,0,6.2,1.4,6.5,5.7c0.4,5.2,0.1,10.3,0.1,15.5v2.3c0.8-1.2,1.4-1.8,1.6-2.5
		c1.9-6.3,3.8-12.6,5.5-18.9c0.5-1.8,0.4-3.7,3.1-3.3c2.8,0.4,2.8,2.4,2.2,4.3c-1.6,4.7-3,9.6-5.4,13.9c-4.3,7.4-9.2,14.5-14.2,21.4
		c-2.5,3.4-6,6-10.6,6.1c-1.5,0-3.4-0.8-4.4-1.9c-1.3-1.5-0.8-3.5,0.9-4.7c1.5-1.2,2.9-0.8,4.2,0.6c2.3,2.4,4.2,2.4,6.5-0.1
		c2.9-3.2,4.4-7.3,4.6-11.5c0.3-6.1,0.3-12.2,0-18.2c-0.3-5-5.9-7.9-10.5-5.6c-0.3,0.2-0.6,0.5-0.7,0.9c-2.1,5.9-4.1,11.8-6.1,17.7
		c0.3,0.2,0.5,0.5,0.8,0.8c2.6-1.9,5.2-3.9,7.8-5.8c0.2,0.1,0.4,0.2,0.6,0.3c-0.3,0.9-0.4,2-1,2.5c-3.2,2.5-6.4,5-9.9,7.1
		c-1.2,0.7-3.5,0.6-4.6-0.2c-0.7-0.5-0.6-3-0.2-4.3c1.6-5.3,3.5-10.6,5.3-15.9c0.3-0.9,0.5-1.9,0.9-3c-1.8-0.1-3.3-0.2-4.7-0.2
		c-0.2-0.2-0.3-0.4-0.5-0.6c0.6-0.6,1.3-1.6,1.9-1.6c4.1-0.1,6.2-2.6,7.9-5.8c1.1-2.1,2.6-2.6,4.9-1.4
		C515.8,274.8,515.3,276.8,514.7,279.3"/>
	<path d="M431.6,363.4c3.3-4.6,4.9-9.8,6-15.1c0.3-1.5,0.5-3,0.6-4.4c0.2-1.6,1.1-2.5,2.6-2c0.9,0.4,2.2,1.7,2.1,2.5
		c-0.1,2.1-0.8,4.1-1.5,6.1c-3.7,9.9-9.1,18.9-15.9,26.9c-2.7,3.2-5.8,5.9-10.3,6c-2.8,0.1-4.6-1.5-4.1-3.8c0.2-1,1.1-2.2,2-2.6
		c0.7-0.3,2.1,0.2,2.8,0.9c2.5,2.3,4.1,2.3,6.3-0.5c3.3-4,4.1-8.9,4.2-13.8c0.1-4.9-0.4-9.8-0.8-14.6c-0.2-2.5-1.6-3.8-4.2-3.5
		c-1.3,0.1-2.6-0.1-3.9,0.1c-0.6,0.1-1.5,0.6-1.7,1.2c-1.8,5.1-3.6,10.2-5.3,15.3c-0.1,0.2,0.1,0.5,0.4,1.4c2.5-1.9,4.8-3.6,7.1-5.4
		c0.2,0.1,0.4,0.2,0.6,0.4c-0.3,0.7-0.3,1.6-0.8,2c-2.9,2.3-5.7,4.6-8.8,6.5c-1.1,0.7-3.5,0.8-4.4,0c-0.8-0.7-0.7-3-0.3-4.3
		c1.4-4.8,3.2-9.5,4.8-14.2c0.3-0.8,0.5-1.7,0.9-2.8c-1.6-0.1-3.1-0.2-5.4-0.4c1.3-0.9,2-1.8,2.7-1.8c3.5,0,5.2-2.4,6.8-5
		c1.5-2.4,1.6-2.3,4.6-1.5c-0.4,1.8-0.9,3.6-1.5,5.9c2.7,0,5.1,0,7.6,0c4.9,0,6.5,1.2,7,6.2c0.4,3.6,0.1,7.2,0.1,10.8
		C431.8,360.9,431.6,362.1,431.6,363.4"/>
	<path d="M300.6,351.1c1.3-1.5,2.5-3.1,3.9-4.5c1.3-1.3,2.8-2.6,4.3-3.6c2.2-1.4,4.7-2.3,7-0.6c2.2,1.7,1.3,4.2,0.5,6.4
		c-1.4,3.8-3.1,7.6-4.6,11.4c-0.4,0.9-0.6,1.8-1,2.7c0.2,0.2,0.4,0.4,0.6,0.6c1.9-1.4,3.8-2.8,6.5-4.7c-0.4,1.5-0.4,2.3-0.9,2.9
		c-2.5,3.2-5.7,5.3-9.7,5.9c-3.1,0.4-4.1-1-3-3.9c1.9-4.8,4-9.6,5.9-14.4c0.5-1.3,0.7-2.8,1-4.1c-0.3-0.2-0.6-0.4-1-0.7
		c-1.6,1.3-3.5,2.2-4.6,3.8c-3.6,5.5-6.9,11.2-10.4,16.8c-0.5,0.8-1,2.1-1.7,2.3c-1.1,0.3-2.5,0-3.7-0.4c-0.3-0.1-0.2-1.8,0.1-2.6
		c1.9-5.1,4-10.2,5.9-15.4c0.4-1.2,0.6-2.5,0.9-3.7c-0.4-0.3-0.7-0.5-1.1-0.8c-1.8,1.5-4,2.6-5.2,4.4c-3.5,5.3-6.5,11-9.8,16.4
		c-0.6,1-1.8,2.1-2.9,2.3c-2.1,0.4-3.2-0.7-2.3-3c1.9-4.9,3.6-9.9,5.4-14.9c0.4-1.1,0.7-2.2,1.1-3.5c-3.2-1.1-4.3,2-6.7,3
		c-0.1-0.7-0.4-1.2-0.3-1.5c1.5-3.6,7-6.6,10.9-6c2,0.3,2.1,1.6,1.6,3.1c-0.8,2.2-1.7,4.5-2.2,6.9c1.3-1.6,2.5-3.4,4.1-4.7
		c2.3-1.9,4.8-4,7.6-5.1c3.3-1.2,5.2,1,4.5,4.4c-0.3,1.6-1,3.2-1.5,4.8C300.3,351,300.5,351.1,300.6,351.1"/>
	<path d="M239.4,351.2c1.6-1.8,3.1-3.6,4.7-5.4c0.8-0.9,1.8-1.6,2.7-2.3c2.2-1.6,4.7-3,7.2-1.4c2.6,1.8,1.1,4.5,0.4,6.9
		c-0.3,0.8-0.6,1.6-1,2.8c2.3-2.5,4.1-5,6.3-6.9c1.8-1.5,4.2-2.8,6.5-3.3c3.2-0.7,5.1,1.5,4.2,4.7c-1.3,4.4-3.2,8.6-4.8,12.9
		c-0.4,1.2-1,2.3-1.4,3.5c0.2,0.2,0.4,0.4,0.6,0.6c2-1.4,3.9-2.8,6.1-4.4c0.2,0.6,0.4,1,0.3,1.3c-1.3,3.5-7.6,7.5-11.3,7.3
		c-2.4-0.1-3.2-1.4-2.1-3.9c1.9-4.7,3.9-9.4,5.8-14.1c0.6-1.4,0.8-2.9,1.2-4.3c-0.3-0.2-0.6-0.5-1-0.7c-1.4,1-3.1,1.7-4,3
		c-3.2,4.4-6.1,9.1-9.1,13.7c-1,1.6-1.5,3.6-2.8,4.9c-0.9,0.9-2.7,0.8-4.1,1.2c-0.1-1.1-0.6-2.2-0.3-3.1c2-5.4,4.2-10.8,6.2-16.2
		c0.3-0.9,0-2,0-3c-0.9,0.3-2.1,0.3-2.6,0.9c-2.5,2.7-5.1,5.4-7.1,8.4c-2.3,3.6-4.1,7.5-6,11.4c-1,2.1-2.5,2.2-4.2,1.6
		c-2.1-0.7-1-2.3-0.5-3.5c1.8-5.1,3.6-10.1,5.4-15.2c0.3-0.9,0.5-1.8,0.7-2.7c-0.2-0.2-0.5-0.5-0.7-0.7c-1.9,1.2-3.8,2.4-6.5,4.1
		c0.7-1.6,0.9-2.6,1.5-3.4c2.2-2.9,5.2-4.3,8.8-4.3c2.5-0.1,3.3,0.9,2.6,3.3c-0.6,2.1-1.5,4.1-2.3,6.1
		C239,351,239.2,351.1,239.4,351.2"/>
	<path d="M403.4,261.7c-1.1,3.4-1.9,6.3-2.9,9.2c-0.2,0.5-0.9,0.8-1.4,1.2c-0.3-0.5-0.8-1-0.9-1.6c-0.3-6.5-2.4-8.6-8.9-8.1
		c-6.6,0.4-11.7,3.8-15.7,8.8c-4.9,6.2-7.1,13.3-6.4,21.3c0.9,10.3,10.7,15,19.2,9.2c2.3-1.5,4-3.9,6-5.8c0.7-0.7,1.5-1.2,2.3-1.8
		c0.3,0.2,0.7,0.5,1,0.7c-1.5,3.2-3,6.5-4.6,9.7c-0.1,0.3-0.6,0.5-1,0.6c-6.7,1.5-13.3,2.6-20.1,0.3c-8.8-3-13-11-11-21.2
		c3.4-17.3,19.6-26.1,35.4-24.3C397.5,260.2,400.4,261,403.4,261.7"/>
	<path d="M591.3,345.7c-0.3-0.5-0.5-1.8-1-1.9c-0.9-0.2-2.3-0.1-2.9,0.5c-3.4,3-5.4,6.9-6.3,11.3c-0.2,0.8,0.3,2.1,0.9,2.5
		c0.6,0.3,2,0,2.6-0.5C588.1,354.5,589.9,350.5,591.3,345.7 M583.7,380.5c1.1-0.3,3-0.6,4.6-1.5c0.8-0.4,1.6-1.9,1.5-2.8
		c-0.2-2.4-6.5-6.5-8.9-6c-2.9,0.6-6,3.7-5.9,5.7c0.1,2.2,2.7,4,6.4,4.4C581.9,380.3,582.4,380.4,583.7,380.5 M596.2,345
		c-0.4,9.3-3.2,12.8-12,15.6c-0.7,0.2-1.8,0.9-1.9,1.5c-0.1,0.6,0.5,1.7,1.2,2.1c2,1.3,4.1,2.4,6.1,3.7c1.5,1,3.1,1.9,4.3,3.2
		c2.3,2.5,1.9,5.7-0.7,7.9c-4.5,3.8-16.3,4.9-21.4,1.9c-3.2-1.9-3.9-5.2-1.2-7.7c2.3-2.1,5.3-3.5,8-5.2c-3.5-2.9,0-5,1.6-7.3
		c-4.8-3.1-5.6-6.1-3.4-11.2c2.4-5.7,9.9-10.6,17-7.7c1.5,0.6,3.5-0.3,5.2-0.3c0.9,0,2,0.2,2.6,0.7c0.4,0.3,0.4,1.8,0.1,2.2
		c-0.6,0.6-1.6,0.9-2.5,0.9C598.2,345.5,597.2,345.2,596.2,345"/>
	<path d="M176.5,262.1c1.2-1.5,16.3-2.1,20.3-0.6c-1.4,0.6-2.2,1.1-3.1,1.2c-2.2,0.3-3.7,1.4-4.4,3.6c-3.3,10.6-6.7,21.1-9.8,31.7
		c-1,3.4,0,4.6,3.5,4.8c6.5,0.5,12.5-0.1,16.3-6.4c0.4-0.6,1.3-0.8,2-1.2l1,0.7c-1.6,3.1-3.1,6.2-4.7,9.3c-0.2,0.4-1.1,0.5-1.6,0.5
		c-10.4,0-20.8,0-31.2-0.1c-0.2,0-0.3-0.2-1.2-0.6c1.2-0.6,1.9-1.3,2.7-1.4c2.4-0.3,3.9-1.5,4.6-3.7c3.5-10.9,7-21.9,10.4-32.8
		c0.7-2.2,0.2-4-2.5-4.3C178,262.7,177.3,262.4,176.5,262.1"/>
	<path d="M429.1,286.2c3-4,6.6-7.2,11.8-8.1c3.2-0.6,4.6,1.1,3.4,4.2c-2,5.1-4.1,10.2-6.1,15.3c-0.4,1.1-0.7,2.4-1.1,3.6
		c0.2,0.2,0.5,0.4,0.7,0.6c1.3-1,2.8-2,4-3.1c5.5-5,9.1-11.3,12.4-17.9c1.7-3.4,3.1-3.7,6.8-1.6c-2.8,7.3-5.6,14.7-8.4,22
		c0.3,0.2,0.7,0.5,1,0.7c2.2-1.7,4.4-3.4,7.2-5.5c-0.2,1.3,0,2.1-0.4,2.6c-3,3.6-6.5,6.5-11.2,7.4c-3.1,0.5-4.1-0.8-3.1-3.8
		c1-2.8,2.1-5.5,3.2-8.3c-3.1,2.9-5.9,5.8-9,8.5c-1.5,1.3-3.2,2.5-5,3.2c-1.2,0.5-3.3,0.4-4.1-0.3c-0.9-0.9-1.3-3-0.9-4.2
		c1.7-5.2,3.9-10.2,5.8-15.4c0.4-1,0.6-2,0.9-3c-0.2-0.2-0.4-0.3-0.6-0.5c-2.2,1.5-4.4,3.1-6.6,4.6
		C429.6,286.9,429.4,286.5,429.1,286.2"/>
	<path d="M198.3,357.1c-1.3,2.7-2.5,5.4-3.8,8.1c-0.2,0.5-0.8,1.1-1.3,1.1c-5.1,0.4-10.4,1.5-15.4,0.8c-9.5-1.3-14.3-8.7-13-18.2
		c1.9-13.4,12.9-23.4,26.7-23.8c4.5-0.1,9,0.8,14.2,1.3c-2.2,3.7-2,7.5-4.2,10.1c-0.3-0.1-0.5-0.2-0.8-0.3c-0.1-0.5-0.2-0.9-0.2-1.4
		c-0.2-5.8-2.2-7.7-8-7.4c-4.6,0.2-8.5,2.2-11.8,5.3c-6.1,5.9-9,13.1-8.4,21.6c0.3,4.4,1.8,8.3,6.3,10.1c4.4,1.8,8.7,1,12.4-2
		c1.6-1.3,2.9-3,4.3-4.5c0.6-0.6,1.4-1,2.1-1.5C197.8,356.6,198,356.8,198.3,357.1"/>
	<path d="M471.3,282.4c-2.1,1.2-4.1,2.4-6.2,3.6c-0.2-0.4-0.5-0.7-0.4-0.9c1.4-3.7,7.7-7.6,11.6-7.2c2.6,0.2,2.5,1.9,1.9,3.7
		c-1,2.9-2.2,5.7-3.7,9.4c3.1-3.4,5.3-6.4,8-8.8c2.1-1.8,4.7-3.4,7.4-4.1c3.6-0.9,5.7,1.4,4.7,5c-1.4,5-3.5,9.7-5.4,14.6
		c-0.5,1.3-0.9,2.5-1.4,3.8c0.2,0.2,0.4,0.3,0.6,0.5c2.2-1.6,4.5-3.2,7-5c0.1,0.9,0.3,1.4,0.1,1.6c-2.7,4.1-6.3,6.9-11.2,7.8
		c-3.5,0.6-4.8-0.9-3.5-4.2c2-5.2,4.3-10.3,6.4-15.5c0.6-1.5,0.9-3.1,1.3-4.7c-0.3-0.2-0.6-0.4-0.9-0.7c-1.3,0.8-2.8,1.5-3.9,2.6
		c-6,5.5-9.3,12.8-13,19.9c-0.5,0.8-0.9,2.1-1.6,2.3c-1.1,0.4-2.7,0.3-3.7-0.2c-0.5-0.3-0.6-2.1-0.2-3.1c1.9-5.5,3.9-10.9,5.9-16.3
		c0.4-1.1,0.7-2.2,1-3.4C471.8,282.9,471.5,282.6,471.3,282.4"/>
	<path d="M316.8,282.4c-2.1,1.2-4.2,2.4-6.6,3.7c0.9-4.5,8.2-9.1,12.1-8.1c1.8,0.5,2,1.7,1.4,3.3c-1.1,3.1-2.3,6.1-3.7,9.7
		c3-3.4,5.3-6.4,8.1-8.9c1.9-1.7,4.4-3.3,6.9-4c3.9-1.1,6,1.2,5.2,5.2c-0.6,2.6-1.6,5.1-2.6,7.6c-1.4,3.5-2.9,6.9-4.3,10.3
		c0.2,0.2,0.5,0.4,0.7,0.6c2.2-1.5,4.3-3.1,7.2-5.2c-0.4,1.5-0.4,2.3-0.8,2.8c-2.7,3.6-6.2,6.2-10.8,6.9c-3.4,0.5-4.6-1-3.4-4.2
		c1.9-5,4.2-9.9,6.2-14.9c0.7-1.7,1-3.5,1.5-5.3c-0.3-0.2-0.6-0.5-0.9-0.7c-1.4,0.9-3,1.6-4.1,2.7c-6,5.6-9.3,12.9-13,20
		c-0.4,0.8-1,2.1-1.7,2.2c-1.3,0.2-2.7,0-3.9-0.6c-0.3-0.2-0.2-2,0.1-2.9c2-5.6,4-11.1,6.1-16.6c0.4-1,0.7-2,1-3
		C317.3,282.9,317.1,282.7,316.8,282.4"/>
	<path d="M490.6,356.6c-1.2,2.6-2.4,5.2-3.7,7.8c-0.3,0.6-1.1,1.3-1.7,1.3c-5,0.4-10.2,1.5-15.1,0.8c-10.3-1.4-15.1-10.2-12.4-21.2
		c3.4-13.6,17.1-22.7,31.6-20.8c2.7,0.4,5.4,1.1,8.6,1.8c-1.9,3.3-1.8,6.9-3.9,9.6c-0.3-0.1-0.6-0.2-0.9-0.3
		c-0.1-0.6-0.2-1.1-0.2-1.7c-0.1-5.4-2.8-7.7-8.2-7.1c-9.3,1-17.3,9-19.3,19.5c-0.6,3.1-0.7,6.4-0.1,9.5c1.3,7.7,8.5,11.3,15.4,7.7
		c2.6-1.4,4.7-3.9,7-5.9c0.7-0.6,1.5-1.2,2.2-1.8C490,356.1,490.3,356.4,490.6,356.6"/>
	<path d="M263.9,302.1c0.6,0,0.9,0.1,1,0c6.7-4,10.9-10.1,13.5-17.2c0.2-0.7-1.3-2.6-2.3-2.9c-0.9-0.3-2.5,0.5-3.4,1.3
		c-5,4.5-7.7,10.3-9,16.8C263.5,300.6,263.8,301.3,263.9,302.1 M280.4,279.1c1.5-0.9,2.8-2.3,4.3-2.5c1.9-0.2,3.3,0.8,2.2,3.4
		c-2.6,6.2-4.9,12.6-7.4,18.9c-0.3,0.8-0.6,1.7-0.8,2.5c0.2,0.2,0.4,0.5,0.5,0.7c2.4-1.5,4.8-3,7.4-4.6c0.1,0.7,0.3,1.3,0.1,1.6
		c-3,3.6-6.5,6.5-11.3,7.2c-2.8,0.4-3.8-0.8-3-3.5c0.5-2,1.3-3.9,2-5.9c-0.2-0.2-0.4-0.4-0.6-0.5c-1.5,1.6-2.7,3.6-4.5,4.9
		c-2.5,1.9-5.2,3.8-8.1,4.8c-3.5,1.3-6.1-1.3-5.2-4.9c2.8-9.9,8.6-17.5,18.1-21.8C275.9,278.8,278.3,279.2,280.4,279.1"/>
	<path d="M329.7,363.2c1.9-1.7,4.2-3,5.6-5c3.3-4.5,6.2-9.3,9.1-14c1.8-3,2.5-3.4,6.2-1.5c-2.5,6.7-5.1,13.4-7.6,20.1
		c0.3,0.2,0.6,0.4,0.8,0.6c2.1-1.5,4.1-3.1,6.8-5c-0.3,1.3-0.2,2-0.6,2.5c-2.5,3.2-5.7,5.6-9.7,6.6c-0.9,0.2-2.4,0.1-3-0.5
		c-0.5-0.6-0.4-2-0.1-3c0.7-2.3,1.7-4.6,2.7-7.4c-2.5,2.4-4.6,4.7-6.9,6.6c-1.7,1.5-3.6,2.9-5.7,3.8c-1.1,0.5-3.1,0.4-4-0.3
		c-0.8-0.6-1-2.6-0.7-3.7c1.5-4.5,3.4-9,5.1-13.4c0.4-1,0.7-2,1-3c-0.2-0.2-0.4-0.4-0.7-0.6c-1.9,1.4-3.9,2.7-6,4.3
		c-0.1-0.7-0.4-1.3-0.2-1.5c2.6-3.3,5.6-6,9.9-6.9c3.4-0.7,4.7,0.9,3.4,4.3c-1.8,4.8-3.8,9.4-5.7,14.2c-0.3,0.7-0.4,1.5-0.7,2.2
		C329.2,362.7,329.4,362.9,329.7,363.2"/>
	<path d="M224.4,283.7c-0.3-0.8-0.8-2.9-1.5-3c-1.4-0.1-2.8,0.8-4.2,1.4c-0.4,0.2-0.7,0.7-1,1.1c-3.5,4.8-6,10.1-6.7,16.1
		c-0.2,1.4,0.9,3,1.5,4.5c1.5-0.6,3.4-0.8,4.3-1.9C221.2,297,223.3,290.9,224.4,283.7 M204.7,296.1c0.8-6.7,4.4-13.2,11.9-17
		c3.5-1.8,7.4-2.1,10.8,0.4c3.4,2.4,3.5,6.2,2.9,9.8c-0.8,5.9-3.6,10.9-8.5,14.2c-2.3,1.6-5.2,2.6-7.9,2.9
		C207.9,307,204.7,303.7,204.7,296.1"/>
	<path d="M419,283.7c-0.4-0.7-0.8-2.7-1.6-2.9c-1.1-0.3-3,0.3-3.9,1.3c-4.5,4.9-7.1,10.8-7.8,17.4c-0.1,1.4,0.9,3,1.5,4.5
		c1.5-0.6,3.4-0.8,4.3-1.9C415.8,296.9,417.8,290.8,419,283.7 M425,287c0,9.3-7.4,18.6-15.4,19.4c-7.2,0.8-11.4-3.3-10.2-10.5
		c1-6.2,3.8-11.6,9.1-15.2c2-1.4,4.5-2.4,6.8-2.7C421.7,277.2,425,280.4,425,287"/>
	<path d="M359.8,345.6c-1.9,1.1-3.7,2.2-5.8,3.4c0.7-4.2,7.7-8.7,11-7.3c0.7,0.3,1.2,2.4,0.9,3.4c-0.7,2.5-1.8,5-3.1,8.2
		c2.9-3.2,4.9-5.9,7.4-8.1c2-1.7,4.5-3,7-3.6c2.7-0.7,4.3,1,3.8,3.8c-0.5,3-1.7,5.9-2.7,8.8c-1,2.9-2.3,5.6-3.5,8.5
		c0.2,0.2,0.4,0.4,0.6,0.6c1.9-1.4,3.8-2.8,5.8-4.2c0.2,0.1,0.4,0.2,0.5,0.2c-0.2,0.7-0.3,1.7-0.7,2.1c-2.9,2.1-5.8,4.1-8.9,5.8
		c-0.9,0.5-2.8,0.1-3.5-0.6c-0.6-0.7-0.5-2.4-0.1-3.5c1.8-4.7,3.8-9.2,5.7-13.9c0.5-1.3,0.7-2.8,1.1-4.2c-0.3-0.2-0.5-0.4-0.8-0.6
		c-1.4,1-3.1,1.7-4,2.9c-3.6,5.2-7,10.6-10.4,16c-0.6,0.9-0.8,2.3-1.6,2.8c-1.1,0.7-2.6,0.7-3.9,1c-0.2-1-0.8-2.2-0.5-3.1
		c1.7-5,3.6-9.9,5.4-14.9c0.4-1,0.6-2,0.9-3C360.3,346,360,345.8,359.8,345.6"/>
	<path d="M219.4,346.9c-0.4-0.7-0.8-2.5-1.6-2.8c-1-0.3-2.8,0.5-3.6,1.4c-3.9,4.4-6.2,9.7-7,15.6c-0.2,1.3,0.8,2.7,1.3,4
		c1.4-0.5,3.2-0.7,4.1-1.7C216.5,358.8,218.3,353.4,219.4,346.9 M209.1,367.5c-4.9,0-8.1-3.4-7.7-8.2c0.6-6.6,3.5-12,9.1-15.7
		c1.2-0.8,2.5-1.4,3.8-1.7c7.2-1.8,11.7,2.5,10.5,9.9c-0.8,4.9-3,9-6.7,12.3C215.5,366.3,212.5,367.6,209.1,367.5"/>
	<path d="M511.7,346.5c-0.4-0.7-0.7-2.6-1.4-2.8c-1.1-0.2-2.8,0.4-3.6,1.2c-4.2,4.5-6.4,10-7.1,16.1c-0.1,1.1,0.6,3.1,1.5,3.4
		c0.9,0.4,2.8-0.4,3.6-1.2C508.7,358.6,510.5,353,511.7,346.5 M501.5,367c-4.8,0-7.7-2.7-7.6-7.6c0.1-7.5,3.5-13.3,10-16.9
		c2.2-1.2,5.2-1.4,7.8-1.3c2.6,0,4.3,1.8,5.2,4.3C519.8,354.6,511,367.1,501.5,367"/>
	<path d="M526.4,363.8c2.3-2,4.6-4.1,7.3-6.4c-0.5,5.8-8.2,11.1-12.8,9.4c-2.3-0.8-1.9-2.6-1.3-4.2c1.8-5.6,3.7-11.2,5.6-16.7
		c1.5-4.5,3.2-9,4.7-13.6c0.8-2.6,3.1-5.6-1.7-7.6c0.2-0.2,0.4-0.4,0.6-0.7c3.3-0.7,6.6-1.4,10.7-2.3c-4.9,14.2-9.5,27.8-14.1,41.3
		C525.7,363.3,526,363.5,526.4,363.8"/>
	<path d="M544.7,323.9c3.3-0.7,6.7-1.4,10.7-2.2c-4.9,14.2-9.5,27.8-14.1,41.3c0.3,0.3,0.7,0.5,1,0.8c2.3-2,4.7-4,7.2-6.2
		c0.1,3.9-4.6,8.6-9,9.3c-4.9,0.8-6.2-0.7-4.7-5.4c3.4-10,6.8-20,10.2-30c0.9-2.5,2.2-5.2-1.7-6.8
		C544.4,324.5,544.6,324.2,544.7,323.9"/>
	<path d="M235.4,286.3c0.2-4.5,6.1-9.2,9.9-8.3c2.3,0.5,2.3,2.3,1.9,4c-0.6,2.6-1.5,5.1-1.8,7.9c1.5-2.4,3-4.8,4.7-7.1
		c1.2-1.6,2.6-3.2,4.2-4.1c1.1-0.6,3.4-0.8,4-0.1c0.9,1,1.4,3.1,1.1,4.5c-0.3,1.4-1.8,2.6-2.8,3.9c-0.6-0.5-1.5-0.9-1.8-1.5
		c-1.3-2.7-2-3-3.7-0.5c-2.2,3.3-4.2,6.8-6,10.3c-1.6,3-2.9,6.1-4.1,9.3c-1,2.5-3,2.1-4.7,1.6c-2.1-0.6-1.1-2.3-0.7-3.5
		c1.9-5.9,4-11.7,5.9-17.6c0.3-0.8,0.4-1.6,0.5-2.4l-0.7-0.5C239.4,283.5,237.6,284.8,235.4,286.3"/>
	<path d="M607.1,352.4c0.3,0.3,0.7,0.6,1,0.8c3.3-1.4,6.5-3,7.9-6.6c0.3-0.9,0-2,0-3c-0.9,0.2-2.2,0.2-2.7,0.8
		C611.1,346.9,609.1,349.7,607.1,352.4 M617.1,360.2c-1.4,3-4,4.9-7,6c-2.8,1-5.9,1.8-8.5-0.5c-2.5-2.3-2.4-5.4-1.7-8.4
		c1.5-6.3,5-11.3,10.8-14.4c1.8-1,4-1.7,5.9-1.6c1.7,0.1,4.3,1.2,4.7,2.5c0.6,1.5-0.1,4.6-1.3,5.5c-3.4,2.4-7.3,3.8-11,5.8
		c-1.1,0.6-2.6,1.6-2.7,2.5c-0.1,1.7,0.2,4.1,1.3,5c0.8,0.7,3.3,0,4.9-0.6c1.4-0.5,2.6-1.7,3.9-2.5
		C616.7,359.7,616.9,359.9,617.1,360.2"/>
	<path d="M559.5,352.3c0.3,0.3,0.6,0.5,1,0.8c3.6-1.2,6.5-3.2,8-6.8c0.3-0.8,0-1.8-0.1-2.7c-0.9,0.2-2.2,0.1-2.7,0.6
		C563.5,346.9,561.5,349.6,559.5,352.3 M569.6,360c-0.3,0.6-0.5,1.3-1,1.8c-2.8,3.3-6.3,5.2-10.7,5.2c-3.2,0-5.3-1.8-5.8-4.9
		c-1.5-8.3,7.2-20.1,15.6-21c2.5-0.3,5-0.1,6.2,2.5c1.2,2.7,0,5.2-2.2,6.5c-3.3,2-6.9,3.4-10.5,4.9c-2.3,1-3.5,3.7-2.4,6.3
		c1.1,2.6,3.2,2,5.1,1.1c1.8-0.9,3.4-2.1,5.1-3.1C569.2,359.6,569.4,359.8,569.6,360"/>
	<path d="M298.3,301.9c2.4-1.6,4.7-3.1,7.1-4.7c0.2,0.1,0.4,0.3,0.6,0.4c-0.2,0.6-0.3,1.4-0.7,1.9c-2.9,3.2-6.4,5.8-10.7,6.7
		c-1.1,0.2-3,0.1-3.5-0.6c-0.6-0.9-0.6-2.7-0.2-3.8c2.2-5.7,4.7-11.2,7.1-16.8c0.2-0.5,0.4-1.1,0.1-2.2c-2,1.2-4,2.5-6,3.7
		c-0.2-0.1-0.3-0.2-0.5-0.4c0.2-0.6,0.3-1.6,0.7-1.8c3.2-2.1,6.4-4.2,9.9-6c0.9-0.5,2.8-0.1,3.5,0.6c0.6,0.7,0.5,2.5,0,3.5
		c-2.2,5.5-4.6,10.8-6.9,16.3c-0.4,0.9-0.7,1.8-1,2.7C297.9,301.5,298,301.7,298.3,301.9"/>
	<path d="M393.1,363.3c2.1-1.4,4.3-2.8,6.4-4.2c0.2,0.1,0.4,0.3,0.6,0.4c-0.3,0.6-0.3,1.5-0.8,1.8c-3,2.1-6,4.1-9.2,5.9
		c-0.9,0.5-2.8,0.3-3.5-0.4c-0.6-0.6-0.6-2.5-0.2-3.5c1.8-4.7,3.9-9.4,5.9-14.1c0.4-0.9,0.7-1.8,1.3-3.6c-2.5,1.5-4.3,2.6-6.5,3.8
		c0.1-0.9,0-1.5,0.2-1.7c3-2,6-4.1,9.2-5.9c0.8-0.4,2.6-0.1,3.2,0.5c0.6,0.6,0.4,2.3,0.1,3.2c-2,4.9-4.1,9.7-6.1,14.6
		c-0.4,0.9-0.7,1.8-1,2.6C392.7,363,392.9,363.2,393.1,363.3"/>
	<path d="M398.9,334.1c-1.8-0.1-2.8-1.2-2.7-3.3c0.1-2.4,1.8-4.1,4.2-4.1c2.2,0,3,1.2,2.9,3.2C403.2,332.3,401.4,334.1,398.9,334.1"
		/>
	<path class="st1" d="M21.6,320.7v-61.8c0.4,0,0.8,0.1,1.1,0.1c35.2,0,70.4,0,105.6,0c0.4,0,0.8,0,1.1-0.1v51.2
		c-1.5,0.3-3,0.6-4.5,1c-0.5,0.1-1,0.5-1.3,0.9c-0.8,1-1.5,2.1-2.3,3.1c-1.9,2.3-4.8,3.1-7.6,2.1c-2.6-0.9-4.4-3.4-4.4-6.2
		c-0.1-2.9,1.6-5.4,4.4-6.4c2.1-0.7,4.2-1.1,6.3-1.6c1.6-0.4,2-0.8,2.3-2.4c0.2-1.3,0.5-2.6,0.7-3.9c0.2-1.2-0.1-1.7-1.3-1.5
		c-3.2,0.4-6.6,0.6-9.7,1.6c-8.8,2.9-12,9.5-10.7,18c0.2,1.3,0,2.4-0.8,3.4c-0.4,0.5-0.7,1-1.1,1.4c-3.6,4.7-8.8,5-12.6,0.6
		c-3.2-3.7-1.3-9.6,2.9-10.3c2.4-0.4,4.9-1,7.3-1.5c0.9-0.2,1.7-0.6,1.8-1.6c0.2-1.6,0.5-3.3,0.8-4.9c0.2-1.2-0.3-1.7-1.5-1.5
		c-1.1,0.1-2.1,0.4-3.2,0.6c-3.1,0.6-6.4,0.9-9.2,2.5c-2.9,1.6-5.6,3.6-6.8,6.9c-1.1,2.9-1.4,6-0.9,9.1c0.1,0.9,0.2,2-0.2,2.7
		c-1,1.7-2.1,3.3-3.5,4.6c-2.2,2.1-5.9,2.2-8.4,0.4c-2.5-1.8-3.5-4.9-2.5-7.8c1-2.6,3-3.9,5.6-4.5c1.7-0.4,3.4-0.7,5-1.1
		c1.1-0.2,1.8-0.9,2-2.1c0.2-1.4,0.5-2.9,0.7-4.3c0.2-1.2-0.4-1.8-1.6-1.5c-5.2,1.2-10.5,1.8-15.5,3.9c-1.5,0.6-3.2,0.7-5,1
		c0.5-2,1-3.7,1.5-5.4c0.1-0.3,0.6-0.6,0.9-0.7c4.6-1.1,9.2-2.1,13.7-3.2c5.5-1.3,9.6-4.2,10.9-10c0.4-1.8,0.5-3.7,0.3-5.6
		c-0.1-1.7-0.5-3.5-1.2-5c-2.2-4.3-5.9-6.9-10.7-7.8c-6.9-1.2-13.6,2.2-15.9,9.4c-1.5,4.8-2.8,9.7-4.2,14.5c-0.3,1-0.8,1.4-1.8,1.6
		c-5.8,1-11.5,2.1-17.2,3.2c-0.7,0.1-1.2,0.4-1.4,1.1c-0.6,2.1-1.2,4.1-1.9,6.1c-0.1,0.3-0.1,0.6-0.2,1.2c6.6-1.1,13-2.2,19.7-3.3
		c-0.5,1.5-1,2.7-1.3,3.8c-0.3,1-0.7,1.4-1.8,1.6c-4.2,0.8-8.3,1.8-12.5,2.7c-2.9,0.7-5.7,1.6-8,3.5C23,319.3,22.3,320,21.6,320.7"
		/>
	<path class="st1" d="M129.4,318.2v48.7H21.6v-27.5c0.2,0.3,0.5,0.5,0.7,0.8c6.5,8.1,19.5,6.4,23.9-1.7c1.2-2.2,2.1-4.5,2.9-6.9
		c1.1-3.7,2-7.4,3-11.2c0.5-1.8,0.8-1.9,2.7-1.5c-1.1,8.7,2.3,15,10.8,17.4c7.8,2.2,13.9-0.9,18-7.9c3.9,2.7,8.2,3.5,12.9,2.5
		c4.7-1.1,8-4,10.2-8.2c0.4,0.2,0.7,0.4,1,0.6c3.9,2.5,8.1,3.1,12.5,1.9C124.3,324.1,127.3,321.7,129.4,318.2"/>
	<path class="st1" d="M58.3,296.3c0.7-2.6,1.3-5.1,2-7.5c0.4-1.4,1-2.8,1.7-4.1c1.6-3,4.8-4.3,7.8-3.5c3.1,0.8,5.1,3.7,5,6.9
		c-0.1,3.1-2.5,5.8-5.7,6.4c-3.3,0.7-6.6,1.2-9.9,1.8C58.9,296.3,58.7,296.3,58.3,296.3"/>
	<path class="st1" d="M43.3,321.4c-0.7,2.7-1.4,5.3-2.1,7.9c-0.4,1.4-0.9,2.7-1.6,4c-1.5,2.9-4.6,4.2-7.7,3.4
		c-2.8-0.7-4.9-3.2-5.1-6.1c-0.2-3.2,1.6-6,4.7-6.9c3-0.8,6.1-1.3,9.2-1.9C41.6,321.7,42.4,321.6,43.3,321.4"/>
</g>
</svg>
