<svg id="Layer_1" data-name="Layer 1" xmlns="http://www.w3.org/2000/svg" viewBox="0 0 288 133"><defs><style>.cls-1,.cls-3{fill:#fff;}.cls-2{fill:#d71920;}.cls-3{stroke:#fff;stroke-width:0.59px;}</style></defs><rect class="cls-1" y="-78" width="288" height="288"/><path d="M158.05,35.32a9,9,0,0,0-3.61-.77c-1.22,0-2.8.54-2.8,2.47,0,3.09,7.78,1.79,7.78,7.76,0,3.9-3.07,5.38-6.66,5.38a15.93,15.93,0,0,1-4.55-.69l.33-3.21a8.62,8.62,0,0,0,4,1.09c1.35,0,3.15-.68,3.15-2.29,0-3.39-7.78-2-7.78-7.88,0-4,3.08-5.43,6.2-5.43a13.41,13.41,0,0,1,4.26.63Z"/><path d="M162.43,34.32h3.41V31.06h-3.41Zm0,15.54h3.41V36.72h-3.41Z"/><path d="M169.43,36.72h3.23V38.5h0a4.88,4.88,0,0,1,4.3-2.09c3.1,0,4.45,2.19,4.45,5.16v8.29h-3.36v-7c0-1.61,0-3.78-2.21-3.78-2.46,0-3,2.69-3,4.37v6.43h-3.41Z"/><path d="M193.77,36.85a11.2,11.2,0,0,0-3.31-.44c-4.1,0-6.34,3-6.34,6.81,0,4,2.18,6.94,6.47,6.94a11.24,11.24,0,0,0,3.41-.43l-.15-2.83a7.43,7.43,0,0,1-2.62.61c-2.39,0-3.54-1.86-3.54-4.29s1.35-4.16,3.46-4.16a5.11,5.11,0,0,1,2.31.49Z"/><path d="M196.34,30.72h3.4V49.86h-3.4Z"/><path d="M203.91,37.41a12,12,0,0,1,4.56-1c4,0,5.65,1.66,5.65,5.54v1.68c0,1.33,0,2.33,0,3.29s.07,1.92.15,2.94h-3a16.68,16.68,0,0,1-.16-2h0a4.65,4.65,0,0,1-4,2.27c-2.32,0-4.58-1.4-4.58-3.9a3.87,3.87,0,0,1,2.24-3.76,10.53,10.53,0,0,1,4.4-.75h1.88c0-2.12-.94-2.84-3-2.84a7,7,0,0,0-4,1.43Zm4,10.25a2.91,2.91,0,0,0,2.39-1.17,4.32,4.32,0,0,0,.71-2.7h-1.47c-1.53,0-3.79.25-3.79,2.27C205.75,47.18,206.69,47.66,207.91,47.66Z"/><path d="M217.54,34.32H221V31.06h-3.42Zm0,15.54H221V36.72h-3.42Z"/><path d="M224.62,36.72h3v3h.06a4,4,0,0,1,3.58-3.29,3.38,3.38,0,0,1,1,.11V40a3.45,3.45,0,0,0-1.52-.28c-2.78,0-2.78,3.47-2.78,5.35V49.9h-3.4Z"/><path d="M161.45,75.11a18.38,18.38,0,0,1-4,.56c-5.75,0-9.74-2.89-9.74-8.91s3.71-9.5,9.74-9.5a11.62,11.62,0,0,1,4,.74l-.26,3a7.27,7.27,0,0,0-3.84-.94c-3.65,0-6,2.81-6,6.46s2.24,6.34,6,6.34a9.79,9.79,0,0,0,3.89-.74Z"/><path d="M169.76,61.92a6.58,6.58,0,0,1,6.88,6.25,6.26,6.26,0,0,1,0,.75,6.86,6.86,0,0,1-13.71,0,6.56,6.56,0,0,1,6.1-7A6.09,6.09,0,0,1,169.76,61.92Zm0,11.09c2.62,0,3.31-2.34,3.31-4.54,0-2-1.07-3.9-3.31-3.9s-3.29,2-3.29,3.9c0,2.17.69,4.53,3.29,4.53Z"/><path d="M179.24,62.23h3.19v1.83h0a4.6,4.6,0,0,1,3.88-2.14,3.79,3.79,0,0,1,3.87,2.32,4.47,4.47,0,0,1,4.1-2.32c3.22,0,4.14,2.21,4.14,5.16v8.29h-3.42V67.53c0-1.23,0-3-2-3-2.27,0-2.55,2.71-2.55,4.42v6.38h-3.4V67.49c0-1.23,0-3-2-3-2.26,0-2.54,2.71-2.54,4.42v6.38h-3.42Z"/><path d="M201.85,62.23h3.2v1.83h0a4.6,4.6,0,0,1,3.88-2.14,3.79,3.79,0,0,1,3.87,2.32,4.47,4.47,0,0,1,4.1-2.32c3.23,0,4.14,2.21,4.14,5.16v8.29h-3.41V67.53c0-1.23,0-3-2-3-2.27,0-2.55,2.71-2.55,4.42v6.38h-3.4V67.49c0-1.23,0-3-2-3-2.27,0-2.54,2.71-2.54,4.42v6.38h-3.29Z"/><path d="M236.54,75.37h-3.22V73.58h-.06A5.43,5.43,0,0,1,229,75.67c-3.11,0-4.46-2.2-4.46-5.16V62.23h3.42v7c0,1.6,0,3.77,2.21,3.77,2.46,0,3-2.67,3-4.35V62.22h3.4Z"/><path d="M240.05,62.23h3.23V64h.05a4.9,4.9,0,0,1,4.31-2.09c3.1,0,4.44,2.19,4.44,5.16v8.29h-3.41v-7c0-1.61,0-3.78-2.21-3.78-2.46,0-3,2.69-3,4.36v6.44h-3.41Z"/><path d="M255.67,56.57h3.38v3.26h-3.41Zm0,5.66h3.38V75.37h-3.41Z"/><path d="M263.79,71.41c0,2.59,1.47,4.26,4.14,4.26a8.92,8.92,0,0,0,2.52-.3l-.1-2.71a3.13,3.13,0,0,1-1.56.35c-1.29,0-1.6-1-1.6-2.17V64.72h3V62.23h-3V58.5l-3.4,1.09v2.64h-2.53v2.49h2.53Z"/><path d="M274.85,62.23h-3.8l5,13.8a2.13,2.13,0,0,1-1.91,2.33h-.3a5,5,0,0,1-1.75-.23l-.23,2.52a8.19,8.19,0,0,0,2.41.37c3.56,0,4.35-2.86,5.44-5.76l4.91-13h-3.45l-3.12,9.54h0Z"/><path d="M161.45,100.62a18.38,18.38,0,0,1-4,.56c-5.75,0-9.74-2.89-9.74-8.9s3.71-9.52,9.74-9.52a11.62,11.62,0,0,1,4,.74l-.26,3a7.27,7.27,0,0,0-3.84-.94c-3.65,0-6,2.8-6,6.45s2.24,6.35,6,6.35a9.79,9.79,0,0,0,3.89-.74Z"/><path d="M169.76,87.42a6.58,6.58,0,0,1,6.88,6.27,5.93,5.93,0,0,1,0,.73,6.86,6.86,0,0,1-13.71,0,6.57,6.57,0,0,1,6.12-7A5.77,5.77,0,0,1,169.76,87.42Zm0,11.1c2.62,0,3.31-2.34,3.31-4.54,0-2-1.07-3.9-3.31-3.9S166.47,92,166.47,94C166.47,96.15,167.16,98.52,169.76,98.52Z"/><path d="M179.37,100.87h3.41V81.74h-3.41Z"/><path d="M186.44,81.74h3.41v19.13h-3.41Z"/><path d="M203.94,100.13a8.91,8.91,0,0,1-4.5,1.05c-4.32,0-6.84-2.5-6.84-6.81,0-3.81,2-7,6.07-7,4.87,0,6.24,3.35,6.24,7.94h-9.06a3.44,3.44,0,0,0,3.54,3.33h.21a8.9,8.9,0,0,0,4.34-1.33ZM201.65,93c-.1-1.66-.86-3.09-2.77-3.09s-2.87,1.33-3,3.09Z"/><path d="M219.61,87.73V99.6c0,3.56-1.43,6.94-6.92,6.94a11.52,11.52,0,0,1-4.53-.9l.29-2.91a9.81,9.81,0,0,0,3.81,1.15c3.76,0,3.94-2.84,3.94-5.11h0a4.68,4.68,0,0,1-4.07,2.1c-3.86,0-5.34-3.11-5.34-6.63,0-3.17,1.63-6.82,5.54-6.82a4.36,4.36,0,0,1,4,2.1h.05V87.73Zm-3.41,6.43c0-2.25-.87-4.08-2.85-4.08-2.32,0-3,2.15-3,4.16,0,1.78.94,4,2.9,4,2.13,0,3-1.89,3-4.08Z"/><path d="M233.62,100.13a8.91,8.91,0,0,1-4.5,1.05c-4.32,0-6.84-2.5-6.84-6.81,0-3.81,2-7,6.07-7,4.86,0,6.24,3.35,6.24,7.94h-9.06a3.42,3.42,0,0,0,3.52,3.33h.22a8.94,8.94,0,0,0,4.35-1.33ZM231.34,93c-.11-1.66-.87-3.09-2.78-3.09s-2.87,1.33-3,3.09Z"/><path class="cls-2" d="M65.05,127.87a61.87,61.87,0,1,0-61.71-62V66A61.78,61.78,0,0,0,65,127.87Z"/><path class="cls-3" d="M90.74,21.61C67.93,8.93,47.87,22.61,41,32.85S28.3,70.3,52.53,86.18l10.67-18c-10.45-8.19-8.49-19-3.31-24.94,5-5.71,12.37-7,20.17-3.37Z"/><path class="cls-3" d="M77.27,45c22.14,13.8,20,38,14.42,49.07S65.24,123.4,39.61,109.88L50.12,91.76c12.23,5.17,20.7-1.81,23.33-9.23,2.54-7.16.07-14.23-6.86-19.31Z"/></svg>