<svg id="Layer_1" data-name="Layer 1" xmlns="http://www.w3.org/2000/svg" viewBox="0 0 183.17 153.03"><defs><style>.cls-1{fill:#014023;}.cls-2{fill:#232020;}</style></defs><path class="cls-1" d="M88.17,19.82,79.58,56.1H69s2.65-.75,3.72-4.78L78.3,27.63H66.57a7.23,7.23,0,0,0-6,3l2.37-10.8H88.17" transform="translate(-9.92 -5.12)"/><path class="cls-1" d="M116.53,19.82l-.76,3.43-1.62,7.37s-.72-3-4.89-3H98.36L89.24,66.2a8.31,8.31,0,0,0,8.09,10.22h18.42A8.28,8.28,0,0,0,123.83,70l8.06-34h10.63s-2.8.76-3.8,5a.43.43,0,0,1,0,.11l-7.28,30.71a16,16,0,0,1-15.67,12.39H97.33A16.1,16.1,0,0,1,81.65,64.4L92.18,19.82h24.35" transform="translate(-9.92 -5.12)"/><path class="cls-1" d="M127.88,36,120,69.13a4.39,4.39,0,0,1-4.29,3.39H97.33A4.41,4.41,0,0,1,93,67.1L100.41,36H111s-2.77.76-3.77,5l-5.63,23.75h11.43l5.84-24.64c.57-3.4-1.46-4.06-1.46-4.06h10.44" transform="translate(-9.92 -5.12)"/><path class="cls-1" d="M66.21,5.12s.66,3,4.83,3h42.69a7.3,7.3,0,0,0,6.06-3l-2.38,10.73h0v.05H63.8v-.05l2.4-10.75" transform="translate(-9.92 -5.12)"/><path class="cls-2" d="M42.22,97.9l-32-.06a24.25,24.25,0,0,0-.31,3.8,38.93,38.93,0,0,0,.37,5.86H14l1-6.1,8.27-.36v33l-5.38,1v3H34.61v-3l-5.31-.36V101l8.21.36,1,6.1h3.74a38.9,38.9,0,0,0,.36-5.86,24.31,24.31,0,0,0-.3-3.8Z" transform="translate(-9.92 -5.12)"/><polygon class="cls-2" points="35.55 95.67 40.32 95.97 40.32 128.93 35.55 129.9 35.55 132.86 51.07 132.86 51.07 129.9 46.36 129.6 46.36 96.58 51.07 95.67 51.07 92.72 35.55 92.72 35.55 95.67"/><path class="cls-2" d="M65.54,97.84v3l4.76.31v33l-4.76,1v3H82.26v-3l-5.92-.36V120.35l7.91.06.72,4.17h3V113.29H85l-.6,3.74h-8V101.1l13.88.54.85,5.19h3.8a35.18,35.18,0,0,0,.36-5,24.39,24.39,0,0,0-.3-4Z" transform="translate(-9.92 -5.12)"/><path class="cls-2" d="M98.31,97.84v3l4.77.31v33l-4.77,1v3H115v-3l-5.91-.36V120.35l7.9.06.73,4.17h3V113.29h-3l-.6,3.74h-8V101.1l13.88.54.85,5.19h3.8a35.18,35.18,0,0,0,.36-5,24.39,24.39,0,0,0-.3-4Z" transform="translate(-9.92 -5.12)"/><polygon class="cls-2" points="122.36 95.67 127.13 95.97 127.13 128.93 122.36 129.9 122.36 132.86 137.88 132.86 137.88 129.9 133.17 129.6 133.17 96.58 137.88 95.67 137.88 92.72 122.36 92.72 122.36 95.67"/><path class="cls-2" d="M178.54,97.84v3l5.62.31.48,28.55H184c-1.63-3.2-3.38-6.4-5.26-9.48L165.44,97.84H152.35v3l4.77.37v32.89l-4.77,1v3h14.54v-3l-5.49-.3L161,102.06h.54a91.78,91.78,0,0,0,4.59,8.69l16.78,27.95.84.06,4.65-.84V101.7l4.71-.91v-3Z" transform="translate(-9.92 -5.12)"/><path class="cls-2" d="M19.37,156.6a6,6,0,0,1-1.57-4.45v-7.37h3V152c0,2.36,1,3.53,2.93,3.53a2.75,2.75,0,0,0,2.18-.85A4,4,0,0,0,26.7,152v-7.25h3v7.37a6,6,0,0,1-1.56,4.45,6,6,0,0,1-4.39,1.55,5.92,5.92,0,0,1-4.38-1.55" transform="translate(-9.92 -5.12)"/><polygon class="cls-2" points="40.75 139.66 40.75 152.81 38.25 152.81 31.7 144.83 31.7 152.81 28.69 152.81 28.69 139.66 31.21 139.66 37.74 147.64 37.74 139.66 40.75 139.66"/><rect class="cls-2" x="49.76" y="139.66" width="3.04" height="13.15"/><polygon class="cls-2" points="74.53 139.66 68.84 152.81 65.83 152.81 60.16 139.66 63.45 139.66 67.45 149.05 71.51 139.66 74.53 139.66"/><polygon class="cls-2" points="92.07 150.37 92.07 152.81 81.89 152.81 81.89 139.66 91.82 139.66 91.82 142.1 84.91 142.1 84.91 144.96 91.02 144.96 91.02 147.32 84.91 147.32 84.91 150.37 92.07 150.37"/><path class="cls-2" d="M118.05,157.93l-2.54-3.66h-2.79v3.66h-3V144.78h5.69a7.29,7.29,0,0,1,3,.59,4.33,4.33,0,0,1,2.67,4.18,4.26,4.26,0,0,1-2.7,4.15l2.95,4.23Zm-.77-10.08a3.23,3.23,0,0,0-2.09-.59h-2.47v4.59h2.47a3.12,3.12,0,0,0,2.09-.61,2.38,2.38,0,0,0,0-3.39" transform="translate(-9.92 -5.12)"/><path class="cls-2" d="M130.4,157.73a7,7,0,0,1-2.34-1.1l1-2.29a6.75,6.75,0,0,0,2,1,7.56,7.56,0,0,0,2.33.37,3.67,3.67,0,0,0,1.91-.38,1.15,1.15,0,0,0,.62-1,1,1,0,0,0-.36-.78,2.71,2.71,0,0,0-.94-.5c-.38-.13-.9-.26-1.55-.41a21.45,21.45,0,0,1-2.46-.72,4,4,0,0,1-1.64-1.14,3.1,3.1,0,0,1-.69-2.11,3.68,3.68,0,0,1,.62-2.07,4.22,4.22,0,0,1,1.87-1.48,7.67,7.67,0,0,1,3.05-.54,10.1,10.1,0,0,1,2.46.3,7.4,7.4,0,0,1,2.1.86l-.94,2.31a7.37,7.37,0,0,0-3.64-1,3.49,3.49,0,0,0-1.89.41,1.28,1.28,0,0,0-.61,1.09,1.08,1.08,0,0,0,.71,1,11.35,11.35,0,0,0,2.15.65,19.79,19.79,0,0,1,2.46.71A4,4,0,0,1,138.3,152a3,3,0,0,1,.69,2.08,3.6,3.6,0,0,1-.63,2.06,4.2,4.2,0,0,1-1.89,1.47,7.75,7.75,0,0,1-3.06.55,10.79,10.79,0,0,1-3-.43" transform="translate(-9.92 -5.12)"/><rect class="cls-2" x="137.18" y="139.66" width="3.04" height="13.15"/><polygon class="cls-2" points="151.91 142.14 147.7 142.14 147.7 139.66 159.16 139.66 159.16 142.14 154.95 142.14 154.95 152.81 151.91 152.81 151.91 142.14"/><polygon class="cls-2" points="173.88 148.15 173.88 152.81 170.83 152.81 170.83 148.11 165.74 139.66 168.97 139.66 172.49 145.5 176 139.66 178.98 139.66 173.88 148.15"/></svg>