<?xml version="1.0" encoding="UTF-8"?>
<svg viewBox="0 0 490.67 148.74" xmlns="http://www.w3.org/2000/svg">
<defs>
<style>.cls-1{fill:#900;}</style>
</defs>
<path class="cls-1" d="m18.96,25.73c-9.68,0-16.59,9.88-18.96,18.57,0,0,3.16-3.36,9.87-3.16h20.15v58.47c0,6.12,4.74,11.31,9.48,11.31h62.82V25.73h-20.05v78.62h-4.84c-1.28,0-1.58-.49-1.58-1.58V25.73h-20.54v78.62h-5.53c-.79,0-1.19-.7-1.19-1.97V25.73h-29.63Z"/>
<polygon class="cls-1" points="179.95 0 159.7 6.03 159.7 25.73 153.09 25.73 153.09 0 132.74 6.03 132.74 25.73 107.36 25.73 107.36 110.91 128 110.91 128 32.05 132.74 32.05 132.74 110.91 153.09 110.91 153.09 32.05 159.7 32.05 159.7 110.91 179.95 110.91 179.95 32.05 184.99 32.05 184.99 25.73 179.95 25.73"/>
<polygon class="cls-1" points="107.36 6.03 107.36 20.99 128 20.99 128 0"/>
<path class="cls-1" d="m236.51,110.91h20.41V32.84c0-1.05-.13-.92.66-.92h3.16c.79,0,1.19.53,1.19,1.98v77.01h20.41s-.13-72.01-.13-76.62-3.68-8.56-7.77-8.56h-37.93v85.18Z"/>
<path class="cls-1" d="m405.86,110.91V32.05h5.14c1.32,0,1.58,0,1.58,1.71v26.6l20.47-5.4v-17.06c0-6.91-7.96-12.18-12.18-12.18h-33.84v85.18h18.83Z"/>
<path class="cls-1" d="m461.96,102.77h-3.16c-1.18,0-1.58-.5-1.58-1.78V33.73c0-1.18.59-1.78,1.58-1.78h3.16v70.81Zm22,5.53c-1.05-2.37-1.72-3.16-1.72-7.37V25.73h-33.84c-7.38,0-11.86,6.06-11.86,14.22v56.89c0,12.25,13.3,14.07,15.8,14.07h7.9c1.31,0,1.18-.11,2.24.68,1.05.79,4.22,4.74,5.4,6.06,1.18,1.31,1.71,2.76.13,2.76h-42.4c-8.29,0-11.06-7.77-11.06-7.77-3.82-9.61,4.5-10.94,6.98-12.25,2.5-1.31,12.12-6.06,12.25-15.93.13-9.88-7.51-10.01-11.33-10.53-3.82-.53-9.09,1.58-10.4,6.05-1.32,4.47-.5,7.66,2.76,9.48,6.85,3.82,3.97,8.26-.53,13.56-15.54,18.3,16.46,36.08,22.39,35.95,2.37-.05,40.43,0,40.43,0l13.56-17.78s-5.66-10.53-6.72-12.91"/>
<path class="cls-1" d="m206.88 32.58c0-3.03 4.74-3.16 4.74 0v19.89h-4.74v-19.89zm25.42 24.5v-20.61c0-5.27-6.72-12.31-15.28-12.31h-14.88c-11.06 0-15.54 8.63-15.54 12.31v63.47c0 6.19 8.82 10.97 14.09 10.97h15.8c3.82 0 15.8-2.55 15.8-10.97v-36.28h-20.68v39.24c0 2.5-4.74 2.24-4.74 0v-45.82h25.42z"/>
<path class="cls-1" d="m357.27 32.58c0-3.03 4.74-3.16 4.74 0v19.89h-4.74v-19.89zm25.42 24.5v-20.61c0-5.27-6.71-12.31-15.28-12.31h-14.88c-11.06 0-15.54 8.63-15.54 12.31v63.47c0 6.19 8.83 10.97 14.09 10.97h15.8c3.82 0 15.8-2.55 15.8-10.97v-36.28h-20.67v39.24c0 2.5-4.74 2.24-4.74 0v-45.82h25.42z"/>
<path class="cls-1" d="m311.73,100.1c0,1.29-.3,2.96-1.58,2.96h-4.64V32.15h3.95c1.28,0,2.27.99,2.27,2.27v65.68Zm3.92-74.37h-10.14V0l-18.77,6.03v104.88h31.67c4.74,0,13.47-.77,13.47-13.81v-55.96c0-8.96-1.88-15.41-16.23-15.41"/>
<path class="cls-1" d="m179.67,138.14c0,7.42-4.05,10.6-10.43,10.6-2.32,0-5.78-.63-8.05-3.42-1.38-1.73-1.92-4.01-1.99-6.83v-18.69h5.43v18.29c0,3.92,2.04,5.65,4.5,5.65,3.63,0,5.1-1.96,5.1-5.38v-18.57h5.43v18.33Z"/>
<polygon class="cls-1" points="204.27 119.81 209.24 119.81 209.24 148.05 203.92 148.05 193.58 127.91 193.51 127.91 193.51 148.05 188.54 148.05 188.54 119.81 194.15 119.81 204.2 139.47 204.27 139.47"/>
<rect class="cls-1" x="217.8" y="119.81" width="5.3" height="28.24"/>
<polygon class="cls-1" points="246.64 119.81 252.16 119.81 243.53 148.05 238.47 148.05 229.91 119.81 235.61 119.81 241.05 141.2 241.12 141.2"/>
<polygon class="cls-1" points="278.06 124.79 264.59 124.79 264.59 130.78 276.97 130.78 276.97 135.77 264.59 135.77 264.59 143.06 278.66 143.06 278.66 148.05 259.39 148.05 259.39 119.81 278.06 119.81"/>
<path class="cls-1" d="m286.86,148.04h5.2v-11.04h5.47c3.92,0,4.13,1.49,4.13,5.34,0,2.91.21,4.35.56,5.7h5.86v-.75c-1.13-.47-1.13-1.5-1.13-5.62,0-5.27-1.13-6.13-3.21-7.15,2.49-.95,3.9-3.63,3.9-6.75,0-2.45-1.24-7.96-7.97-7.96h-12.82v28.23Zm5.2-15.8v-7.6h6.59c3.1,0,3.7,2.21,3.7,3.72,0,2.81-1.34,3.87-4.09,3.87h-6.2Z"/>
<path class="cls-1" d="m320.04,139.35c.03,1.57.74,4.56,5.41,4.56,2.53,0,5.34-.67,5.34-3.65,0-2.2-1.92-2.79-4.62-3.49l-2.72-.71c-4.1-1.06-8.08-2.08-8.08-8.29,0-3.14,1.53-8.64,9.77-8.64,7.76,0,9.83,5.62,9.87,9.08h-5.07c-.14-1.25-.57-4.24-5.19-4.24-2.01,0-4.41.82-4.41,3.38,0,2.2,1.63,2.67,2.68,2.95l6.2,1.69c3.46.95,6.63,2.51,6.63,7.58,0,8.45-7.77,9.2-10.01,9.2-9.28,0-10.86-5.89-10.86-9.39h5.07Z"/>
<rect class="cls-1" x="343.37" y="119.81" width="5.3" height="28.24"/>
<polygon class="cls-1" points="368.29 148.05 363 148.05 363 124.79 355.32 124.79 355.32 119.81 375.97 119.81 375.97 124.79 368.29 124.79"/>
<polygon class="cls-1" points="394.86 148.05 389.57 148.05 389.57 137.39 380.8 119.81 387.06 119.81 392.32 132.08 397.34 119.81 403.35 119.81 394.86 137.47"/>
</svg>
