<svg id="Group_456" data-name="Group 456" xmlns="http://www.w3.org/2000/svg" viewBox="0 0 153.792 117.295"><defs><clipPath id="clip-path"><path id="Rectangle_1" data-name="Rectangle 1" fill="none" d="M0 0h153.792v117.294H0z"/></clipPath></defs><g id="Group_2" data-name="Group 2"><g id="Group_1" data-name="Group 1" clip-path="url(#clip-path)"><path id="Path_1" data-name="Path 1" d="M49.26 54.6c0 2.669-.8 4.168-2.807 4.168-1.826 0-2.342-1.873-2.342-4.168V35.033c0-1.826.75-3.606 2.527-3.606 1.922 0 2.622 1.59 2.622 3.606zm-2.713-26.451c-4.213 0-6.464 3.327-6.464 6.884V54.6c0 3.746 1.4 7.445 6.275 7.445 5.107 0 6.931-3.6 6.931-7.445V35.033c0-3.888-2.106-6.884-6.742-6.884" transform="translate(-40.084 -28.149)" fill="#6c0820"/></g></g><path id="Path_2" data-name="Path 2" d="M59.182 28.426L53.515 41.3h-.184V28.426H49.3V61.2h4.03V49.4l2.058-4.494L59.417 61.2h4.26l-5.525-20.506 5.432-12.268z" transform="translate(-30.577 -27.863)" fill="#6c0820"/><path id="Path_3" data-name="Path 3" d="M58.677 28.426V61.2H69.4v-3.463h-6.693V28.426z" transform="translate(-20.908 -27.863)" fill="#6c0820"/><g id="Group_4" data-name="Group 4"><g id="Group_3" data-name="Group 3" clip-path="url(#clip-path)"><path id="Path_4" data-name="Path 4" d="M70.379 52.633l.843-7.772c.75-6.839 1.028-11 1.028-11h.189s.28 4.164 1.125 10.957l.934 7.818zm-.469-24.207L65.461 61.2H69.4l.6-5.1h4.916l.563 5.1h3.933l-4.5-32.777z" transform="translate(-13.912 -27.863)" fill="#6c0820"/></g></g><path id="Path_5" data-name="Path 5" d="M83.867 28.426V42.38h-5.15V28.426h-4.029V61.2h4.029V45.846h5.15V61.2h4.028V28.426z" transform="translate(-4.396 -27.863)" fill="#6c0820"/><g id="Group_6" data-name="Group 6"><g id="Group_5" data-name="Group 5" clip-path="url(#clip-path)" fill="#6c0820"><path id="Path_6" data-name="Path 6" d="M87.843 35.031c0-1.824.752-3.6 2.529-3.6 1.922 0 2.622 1.59 2.622 3.6V54.6c0 2.667-.8 4.17-2.809 4.17-1.826 0-2.342-1.875-2.342-4.17zm2.251 27.018c5.1 0 6.927-3.6 6.927-7.445V35.031c0-3.886-2.1-6.882-6.74-6.882-4.217 0-6.466 3.325-6.466 6.882V54.6c0 3.746 1.408 7.445 6.279 7.445" transform="translate(5.016 -28.149)"/><path id="Path_7" data-name="Path 7" d="M96.572 45.752c0-4.4-.469-12.5-.469-12.5h.1l4.54 27.955h3.183l4.544-27.955h.093s-.469 7.54-.469 12.5V61.2h3.654V28.425h-5.669L103.5 44.769c-.516 3.183-1.123 7.774-1.123 7.774h-.1s-.652-4.731-1.121-7.727l-2.529-16.39h-5.709V61.2h3.654z" transform="translate(14.404 -27.864)"/><path id="Path_8" data-name="Path 8" d="M110.2 44.861c.752-6.837 1.03-11 1.03-11h.189s.28 4.166 1.123 10.957l.934 7.818h-4.117zM108.984 56.1h4.916l.563 5.1h3.935l-4.5-32.777h-5.009L104.44 61.2h3.935z" transform="translate(26.287 -27.863)"/><path id="Path_9" data-name="Path 9" d="M46.723 82.578c4.9 0 5.982-3.841 5.982-5.387v-7.162H49.08v6.228c0 1.684-.329 3.043-2.356 3.043-2.07 0-2.588-1.5-2.588-3.092V55.091c0-1.544.66-3.136 2.4-3.136 1.981 0 2.545 1.4 2.545 3.09v4.918h3.626v-4.4c0-3.09-.989-6.884-6.171-6.884-4.237 0-6.451 3.465-6.451 6.837v20.131c0 3.419 2.027 6.931 6.64 6.931" transform="translate(-40.084 -6.98)"/></g></g><path id="Path_10" data-name="Path 10" d="M63.087 81.73V48.953h-4.052V62.9h-5.522V48.953H49.46V81.73h4.053V66.373h5.522V81.73z" transform="translate(-30.413 -6.694)" fill="#6c0820"/><g id="Group_8" data-name="Group 8"><g id="Group_7" data-name="Group 7" clip-path="url(#clip-path)"><path id="Path_11" data-name="Path 11" d="M65.589 62.719H63.24v-10.49h2.16c1.743 0 2.592 1.265 2.592 2.951v4.682c0 1.593-.849 2.856-2.4 2.856m3.06 19.012H72.8c-.425-.516-.847-2.9-.847-4.682v-7.025c0-2.669-.9-4.682-2.968-5.243v-.142a4.527 4.527 0 0 0 2.921-4.4v-6.323a5.335 5.335 0 0 0-5.464-4.962h-7.25V81.73h4.048V66.373h1.879c2.259 0 2.777 1.261 2.777 4.962v5.805c0 2.48.284 3.744.756 4.589" transform="translate(-20.381 -6.694)" fill="#6c0820"/></g></g><path id="Rectangle_5" data-name="Rectangle 5" transform="translate(58.096 42.259)" fill="#6c0820" d="M0 0h4.052v32.778H0z"/><g id="Group_10" data-name="Group 10"><g id="Group_9" data-name="Group 9" clip-path="url(#clip-path)"><path id="Path_12" data-name="Path 12" d="M80.048 51.954c1.412 0 2.511 1.123 2.511 4.5v3.276h3.648v-3.142c0-5.9-2.115-7.912-5.816-7.912-4.676 0-6.527 2.155-6.527 8.381 0 6.555 8.324 11.9 8.324 17.747 0 3.372-.729 4.5-2.531 4.5-1.753 0-2.385-1.406-2.385-4.589v-4.26h-4.04v4.306c0 4.168 1.361 7.82 6.618 7.82 5.161 0 6.378-2.951 6.378-7.587 0-8.056-8.418-13.252-8.418-18.074 0-3.183.288-4.962 2.236-4.962" transform="translate(-5.897 -6.98)" fill="#6c0820"/></g></g><path id="Path_13" data-name="Path 13" d="M80.994 52.229h4.855v29.5H89.9v-29.5h4.991v-3.275h-13.9z" transform="translate(2.107 -6.693)" fill="#6c0820"/><path id="Rectangle_7" data-name="Rectangle 7" transform="translate(101.131 42.259)" fill="#6c0820" d="M0 0h4.051v32.778H0z"/><g id="Group_12" data-name="Group 12"><g id="Group_11" data-name="Group 11" clip-path="url(#clip-path)" fill="#6c0820"><path id="Path_14" data-name="Path 14" d="M99.09 73.162l.861-7.774c.77-6.837 1.056-11 1.056-11h.191s.29 4.166 1.152 10.957l.959 7.82zm5.229 8.568h4.03l-4.607-32.777H98.61L94.05 81.73h4.03l.624-5.1h5.038z" transform="translate(15.572 -6.694)"/><path id="Path_15" data-name="Path 15" d="M48.839 96.124c0 1.731 0 3.417-2.389 3.417-2.34 0-2.34-1.733-2.34-3.417V69.48h-4.026v26.644c0 3.557 1.217 6.693 6.366 6.693s6.417-3.136 6.417-6.693V69.48h-4.028z" transform="translate(-40.083 14.475)"/><path id="Path_16" data-name="Path 16" d="M60.627 80.2c0 9.037.329 12.269.329 12.269h-.186L52.854 69.48h-3.746v32.777h3.746V91.44c0-9.269-.329-12.407-.329-12.407h.144l8.052 23.224h3.652V69.48h-3.746z" transform="translate(-30.776 14.475)"/></g></g><path id="Rectangle_9" data-name="Rectangle 9" transform="translate(39.267 83.956)" fill="#6c0820" d="M0 0h4.03v32.778H0z"/><g id="Group_14" data-name="Group 14"><g id="Group_13" data-name="Group 13" clip-path="url(#clip-path)"><path id="Path_17" data-name="Path 17" d="M73.123 80.579c-1.172 8.85-1.826 14.8-1.826 14.8h-.187s-.7-6.041-1.922-14.891l-1.5-11h-4.071l5.245 32.777h4.729L78.6 69.48h-3.98z" transform="translate(-15.813 14.475)" fill="#6c0820"/></g></g><path id="Path_18" data-name="Path 18" d="M72.89 69.48v32.778h10.957v-3.466H76.92V86.9h5.617v-3.465H76.92v-10.49h6.646V69.48z" transform="translate(-6.25 14.475)" fill="#6c0820"/><g id="Group_16" data-name="Group 16"><g id="Group_15" data-name="Group 15" clip-path="url(#clip-path)" fill="#6c0820"><path id="Path_19" data-name="Path 19" d="M89.2 80.39c0 1.593-.845 2.856-2.389 2.856h-2.156V72.758h1.966c1.731 0 2.576 1.261 2.576 2.949zm3.931 10.16c0-2.669-.888-4.682-2.945-5.243v-.142a4.524 4.524 0 0 0 2.9-4.4v-6.323a5.321 5.321 0 0 0-5.434-4.962h-7.023v32.777h4.026V86.9h1.686c2.247 0 2.763 1.265 2.763 4.964v5.806c0 2.48.28 3.746.75 4.587h4.119c-.42-.514-.845-2.9-.845-4.682z" transform="translate(1.731 14.475)"/><path id="Path_20" data-name="Path 20" d="M95.668 72.48c1.357 0 2.2 1.123 2.2 4.5v3.278h3.508v-3.14c0-5.9-1.824-7.914-5.383-7.914-4.5 0-6.273 2.153-6.273 8.379 0 6.557 7.818 11.9 7.818 17.747 0 3.372-.7 4.5-2.433 4.5-1.686 0-2.108-1.406-2.108-4.591v-4.264h-3.884v4.31c0 4.166 1.123 7.818 6.181 7.818 4.962 0 6.132-2.949 6.132-7.585 0-8.054-7.912-13.254-7.912-18.074 0-3.185.28-4.964 2.153-4.964" transform="translate(10.48 14.191)"/></g></g><path id="Rectangle_12" data-name="Rectangle 12" transform="translate(116.232 83.956)" fill="#6c0820" d="M0 0h4.03v32.778H0z"/><path id="Path_21" data-name="Path 21" d="M100.755 69.481v3.277h4.545v29.5h4.028v-29.5h4.542v-3.277z" transform="translate(22.486 14.476)" fill="#6c0820"/><path id="Path_22" data-name="Path 22" d="M119.5 69.48l-3.559 12.735h-.092l-3.562-12.735h-4.26l5.852 18.543v14.236h4.021V87.928l5.9-18.444z" transform="translate(29.985 14.475)" fill="#6c0820"/><path id="Path_23" data-name="Path 23" d="M106.806 58.644l8.349 23.083h3.809V48.951h-3.906l.134 22.956-8.24-22.956h-3.905v32.776h3.905z" transform="translate(24.85 -6.696)" fill="#6c0820"/></svg>