<?xml version="1.0" encoding="UTF-8" standalone="no"?>
<svg
   xmlns:dc="http://purl.org/dc/elements/1.1/"
   xmlns:cc="http://creativecommons.org/ns#"
   xmlns:rdf="http://www.w3.org/1999/02/22-rdf-syntax-ns#"
   xmlns:svg="http://www.w3.org/2000/svg"
   xmlns="http://www.w3.org/2000/svg"
   id="svg17"
   version="1.1"
   width="550"
   height="154.73878"
   viewBox="0 0 550 154.73879">
  <metadata
     id="metadata21">
    <rdf:RDF>
      <cc:Work
         rdf:about="">
        <dc:format>image/svg+xml</dc:format>
        <dc:type
           rdf:resource="http://purl.org/dc/dcmitype/StillImage" />
        <dc:title></dc:title>
      </cc:Work>
    </rdf:RDF>
  </metadata>
  <defs
     id="defs5">
    <clipPath
       id="a">
      <path
         id="path2"
         d="M 0,220.4 H 453 V 0 H 0 Z" />
    </clipPath>
  </defs>
  <path
     style="fill:#6f1419;stroke-width:1.01801836"
     id="path7"
     d="m 485.83236,94.777504 -26.26487,-10.89279 -2.13784,5.09009 26.46848,10.8928 5.09009,12.419816 h -13.43784 l -20.15677,-20.156756 -3.86847,3.86847 20.25857,20.258556 v 13.43784 l -12.52163,-5.29369 -10.89279,-26.264876 -5.09009,2.036036 10.99459,26.46848 -5.09009,12.41982 -9.56937,-9.67117 v -28.50452 h -5.4973 v 28.60632 l -9.46757,9.67117 -5.09009,-12.62342 10.89279,-26.36668 -5.09009,-2.036036 -10.89279,26.468476 -12.52163,5.09009 0.1018,-13.53964 20.15677,-20.156756 -3.86847,-3.86847 -20.25857,20.258556 h -13.43784 l 5.29369,-12.521616 26.26488,-10.8928 -2.03604,-5.09009 -26.46848,10.9946 -12.41982,-5.0901 9.67117,-9.56937 h 28.50452 v -5.4973 h -28.70812 l -9.56937,-9.46757 12.62343,-5.09009 26.26487,10.79099 2.13784,-5.09009 -26.46848,-10.892793 -5.09009,-12.419824 h 13.53964 l 20.15677,20.258567 3.86847,-3.868472 -20.36037,-20.258565 V 25.246855 l 12.52162,5.191894 10.8928,26.366675 5.09009,-2.036037 -10.9946,-26.468477 5.0901,-12.521626 9.56937,9.671175 v 28.504513 h 5.4973 V 25.450459 l 9.46757,-9.671175 5.09009,12.623428 -10.79099,26.264873 5.09009,2.036037 10.89279,-26.264873 12.41983,-5.090092 -0.20361,13.33604 -20.15676,20.156763 3.86847,3.868474 20.36037,-20.156767 h 13.43784 l -5.2937,12.419824 -26.26487,10.892793 2.03604,5.09009 26.46847,-10.994594 12.52163,5.090094 -9.67118,9.56937 H 460.2801 v 5.4973 h 28.50451 l 9.67118,9.46757 z m 25.45046,-10.38378 -7.32973,3.05405 -7.32973,-7.22793 h 17.50991 v -5.4973 h -17.61172 l 7.43154,-7.32973 7.12613,3.05406 2.13784,-5.0901 -5.0901,-2.13783 3.97027,-3.868475 -3.86846,-3.970271 -5.59911,5.599101 -9.46757,-3.86847 16.08469,-6.718921 -2.03603,-5.090092 -16.2883,6.718921 4.07208,-9.569372 h 7.83874 v -5.497299 h -5.5991 l 2.13784,-5.090092 -5.0901,-2.036036 -3.05405,7.126128 -10.18018,0.101802 12.31802,-12.318022 -3.86847,-3.86847 L 477.0774,33.2892 V 22.905413 l 7.32974,-3.054055 -2.13784,-5.090092 -5.09009,2.137839 v -5.497299 h -5.4973 v 7.838741 l -9.46757,3.970271 6.61712,-16.186491 -5.0901,-2.036037 -6.61712,16.288293 -3.97027,-9.671174 5.4973,-5.599101 -3.86847,-3.868469 -3.86847,3.970271 -2.03603,-5.090091 -5.0901,2.036036 2.95226,7.22793 -7.22793,7.329732 V 0 h -5.4973 v 17.611717 l -7.32973,-7.431533 3.05405,-7.227931 -5.09009,-2.036036 -2.03604,5.090091 -4.07207,-3.970271 -3.76667,3.86847 5.4973,5.5991 -3.86847,9.467571 -6.71892,-16.08469 -5.09009,2.036037 6.82072,16.288293 -9.67117,-4.072073 v -7.838741 h -5.5991 v 5.599101 l -5.0901,-2.137839 -2.03603,5.090092 7.12613,3.054055 0.1018,10.180183 -12.31802,-12.318022 -3.86847,3.86847 12.41982,12.419824 h -10.38379 l -3.05405,-7.329732 -5.09009,2.137838 2.13783,5.090092 h -5.39549 v 5.497299 h 7.83874 l 4.07207,9.467571 -16.28829,-6.718922 -2.03604,5.090092 16.2883,6.718921 -9.67118,3.970272 -5.5991,-5.497299 -3.86847,3.868469 3.97027,3.868475 -5.09009,2.03603 2.03604,5.09009 7.22793,-2.95225 7.32973,7.22793 h -17.40811 v 5.4973 H 377.108 l -7.43153,7.43153 -7.32973,-3.05405 -2.03604,5.09009 5.09009,2.03604 -3.97027,4.07207 3.86847,3.76667 5.5991,-5.4973 9.56937,3.86847 -16.18649,6.718916 2.03604,5.09009 16.28829,-6.82072 -4.07207,9.67117 h -7.83874 v 5.4973 h 5.5991 l -2.13784,5.09009 5.09009,2.03604 3.05406,-7.12613 10.18018,-0.1018 -12.31802,12.31802 3.86847,3.86847 12.41982,-12.41982 v 10.38378 l -7.22793,3.05406 2.03604,5.09009 5.09009,-2.13784 v 5.4973 h 5.4973 v -7.83874 l 9.46757,-4.07207 -6.61712,16.28829 5.09009,2.03604 6.61712,-16.2883 3.97027,9.67118 -5.4973,5.5991 3.86847,3.86847 3.86847,-3.97027 2.03604,5.09009 5.09009,-2.03604 -2.95225,-7.22793 7.22793,-7.32973 v 17.40811 h 5.4973 v -17.50991 l 7.32973,7.32973 -3.05406,7.32973 5.0901,2.03604 2.13783,-5.09009 3.86847,3.97027 3.97028,-3.86847 -5.59911,-5.5991 3.86847,-9.56937 6.71893,16.18649 5.09009,-2.03604 -6.71892,-16.28829 9.56937,4.07207 v 7.73694 h 5.4973 v -5.4973 l 5.09009,2.13784 2.03604,-5.09009 -7.12613,-3.05406 -0.1018,-10.18018 12.31802,12.21622 3.86847,-3.76667 -12.41983,-12.41982 h 10.38379 l 3.05406,7.22793 5.09009,-2.03604 -2.13784,-5.09009 h 5.4973 v -5.4973 h -7.83874 l -3.97027,-9.46757 16.18649,6.61712 2.03603,-5.09009 -16.28829,-6.617116 9.67117,-4.07207 5.59911,5.5991 3.86846,-3.86847 -3.97027,-3.86847 5.0901,-2.03604 z" />
  <g
     id="g11"
     transform="matrix(1.3573544,0,0,-1.3573544,-32.44077,259.49287)"
     clip-path="url(#a)">
    <path
       style="fill:#6f1419"
       id="path9"
       d="m 429.1,99.5 h -28 a 65,65 0 0 0 -4.6,-3.3 H 429 Z m -405.2,0 v -3.3 h 271.7 a 65,65 0 0 0 -4.6,3.3 z m 57.3,37 c 0,17 -9.8,27.4 -22.2,27.4 -8.6,0 -18.5,-4.8 -18.5,-23.6 0,-15.7 8.7,-28.2 23.1,-28.2 5.3,0 17.6,2.6 17.6,24.4 M 30,138 a 29,29 0 0 0 31.1,29.5 c 18.8,0 30.5,-10.9 30.5,-28.2 0,-17.3 -12,-31 -31.2,-31 A 28.7,28.7 0 0 0 30,138 m 79.4,-21.4 c -7.4,6.5 -9.4,15 -9.4,22.3 0,5.1 1.6,14 8.9,20.6 5.4,5 12.6,8 23.8,8 4.7,0 7.5,-0.3 11,-0.7 l 7.5,-1.3 c 0.8,0 1.1,-0.4 1.1,-0.9 l -0.3,-4.1 c -0.2,-2.5 -0.1,-6.7 -0.3,-8.2 0,-1.1 -0.2,-1.7 -0.9,-1.7 -0.6,0 -0.7,0.6 -0.7,1.6 -0.1,2.4 -1,5 -3,7 -2.5,2.6 -8.4,4.7 -15.3,4.7 -6.6,0 -10.9,-1.7 -14.2,-4.7 -5.5,-5 -7,-12.3 -7,-19.6 0,-18 13.7,-26.8 23.8,-26.8 6.8,0 10.8,0.7 13.9,4.2 1.2,1.4 2.2,3.6 2.5,5 0.2,1.2 0.4,1.5 1,1.5 0.5,0 0.7,-0.6 0.7,-1.2 0,-0.9 -1,-7.4 -1.7,-10 -0.4,-1.3 -0.7,-1.7 -2,-2.2 -3,-1.2 -8.7,-1.7 -13.5,-1.7 -10.4,0 -19,2.2 -26,8.2 m 60.5,0 c -7.4,6.5 -9.4,15 -9.4,22.3 0,5.1 1.6,14 8.8,20.6 5.5,5 12.6,8 23.9,8 4.7,0 7.5,-0.3 11,-0.7 l 7.5,-1.3 c 0.8,0 1.1,-0.4 1.1,-0.9 l -0.4,-4.1 c -0.1,-2.5 0,-6.7 -0.2,-8.2 0,-1.1 -0.2,-1.7 -0.9,-1.7 -0.6,0 -0.8,0.6 -0.8,1.6 0,2.4 -1,5 -2.9,7 -2.5,2.6 -8.4,4.7 -15.3,4.7 -6.6,0 -10.9,-1.7 -14.2,-4.7 -5.5,-5 -7,-12.3 -7,-19.6 0,-18 13.7,-26.8 23.8,-26.8 6.7,0 10.8,0.7 13.8,4.2 1.3,1.4 2.3,3.6 2.6,5 0.2,1.2 0.4,1.5 1,1.5 0.5,0 0.7,-0.6 0.7,-1.2 0,-0.9 -1,-7.4 -1.7,-10 -0.4,-1.3 -0.7,-1.7 -2,-2.2 -3,-1.2 -8.7,-1.7 -13.5,-1.7 -10.4,0 -19,2.2 -26,8.2 m 60.4,0 c -7.4,6.5 -9.3,15 -9.3,22.3 0,5.1 1.6,14 8.8,20.6 5.5,5 12.6,8 23.9,8 4.6,0 7.4,-0.3 11,-0.7 l 7.5,-1.3 c 0.8,0 1,-0.4 1,-0.9 l -0.3,-4.1 c -0.1,-2.5 0,-6.7 -0.2,-8.2 0,-1.1 -0.2,-1.7 -1,-1.7 -0.5,0 -0.7,0.6 -0.7,1.6 0,2.4 -1,5 -3,7 -2.4,2.6 -8.3,4.7 -15.2,4.7 -6.6,0 -11,-1.7 -14.2,-4.7 -5.5,-5 -7,-12.3 -7,-19.6 0,-18 13.7,-26.8 23.8,-26.8 6.7,0 10.8,0.7 13.8,4.2 1.3,1.4 2.3,3.6 2.6,5 0.2,1.2 0.4,1.5 1,1.5 0.5,0 0.6,-0.6 0.6,-1.2 0,-0.9 -0.9,-7.4 -1.6,-10 -0.4,-1.3 -0.7,-1.7 -2,-2.2 -3,-1.2 -8.7,-1.7 -13.6,-1.7 -10.3,0 -19,2.2 -25.9,8.2" />
  </g>
  <text
     y="153.21176"
     x="-0.06778764"
     id="text15"
     font-size="12.2"
     font-weight="700"
     style="font-weight:700;font-size:16.5597229px;font-family:'Trajan Pro';-inkscape-font-specification:TrajanPro-Bold;fill:#6f1419;stroke-width:1.3573544">
    <tspan
       style="stroke-width:1.3573544"
       id="tspan13"
       x="-0.06778764 15.167267 27.926834 38.310593 49.940407 65.921432 81.239555 98.734116 110.36393 115.34814 128.63934 136.14888 148.02789 159.15929 164.14351 177.43471 192.75117 210.07961 227.19203 241.34718 257.08066 264.59021 276.46921 287.60062 292.58481 305.87604 321.11108 331.16257 341.21405 351.71408 366.43414"
       y="153.21176">OKLAHOMA CITY COMMUNITY COLLEGE</tspan>
  </text>
</svg>
