<?xml version="1.0" encoding="UTF-8"?><svg id="Layer_1" xmlns="http://www.w3.org/2000/svg" viewBox="0 0 82.68 30.97"><defs><style>.cls-1{fill:#ad8637;}.cls-1,.cls-2{fill-rule:evenodd;}.cls-2{fill:#6c7134;}</style></defs><path d="m39.55,26.9c-.42,0-.68.19-.88.5-.09-.18-.28-.5-.88-.5-.46,0-.8.24-.93.5-.01-.15-.02-.29-.02-.44h-.44c0,.17.02.39.02.63v2.02h.46v-1.29c0-.6.26-1.02.86-1.02.38,0,.53.23.53.81v1.5h.46v-1.53c0-.48.33-.78.72-.78.54,0,.68.36.68.72v1.58h.46v-1.61c0-.68-.26-1.11-1.06-1.11h0Z"/><path d="m31.04,29.27c-.94,0-1.6-.74-1.6-1.66,0-.88.67-1.66,1.6-1.66.4,0,.8.16,1.05.49l.43-.3c-.36-.44-.91-.63-1.48-.63-1.25,0-2.14.93-2.14,2.1s.93,2.1,2.14,2.1c.67,0,1.22-.22,1.59-.7l-.37-.3c-.3.36-.71.56-1.22.56h0Z"/><path d="m54.84,29.27c-.41,0-.42-.27-.42-.61v-1.32h.82v-.37h-.82v-.75h-.46v.75h-.6v.37h.6v1.45c0,.55.11.89.77.89.17,0,.38-.03.54-.1l-.02-.4c-.12.06-.27.09-.41.09h0Z"/><path d="m52.51,26.97h.46v2.65h-.46v-2.65Z"/><path d="m52.74,25.81c-.17,0-.3.13-.3.29,0,.17.13.29.3.29s.31-.12.31-.29c0-.16-.13-.29-.31-.29Z"/><path d="m50.7,26.9c-.46,0-.8.24-.93.5-.01-.15-.02-.29-.02-.44h-.44c0,.17.02.39.02.63v2.02h.46v-1.29c0-.6.26-1.02.86-1.02.43,0,.63.28.63.72v1.59h.46v-1.64c0-.64-.33-1.08-1.06-1.08h0Z"/><path d="m56.85,29.04l-.87-2.08h-.54l1.15,2.66-.19.5c-.1.26-.21.43-.52.43-.13,0-.23-.01-.33-.05l-.06.38c.12.06.28.07.42.07.56,0,.74-.31.93-.75l1.34-3.25h-.51l-.83,2.08h0Z"/><path d="m44.44,26.9c-.42,0-.68.19-.88.5-.09-.18-.28-.5-.88-.5-.46,0-.8.24-.93.5-.01-.15-.02-.29-.02-.44h-.44c0,.17.02.39.02.63v2.02h.46v-1.29c0-.6.26-1.02.86-1.02.38,0,.53.23.53.81v1.5h.46v-1.53c0-.48.33-.78.72-.78.54,0,.68.36.68.72v1.58h.46v-1.61c0-.68-.26-1.11-1.06-1.11h0Z"/><path d="m34.39,26.9c-.85,0-1.48.57-1.48,1.39s.63,1.39,1.48,1.39,1.48-.57,1.48-1.39-.63-1.39-1.48-1.39Zm0,2.37c-.6,0-.99-.43-.99-.98s.39-.98.99-.98.99.43.99.98-.39.98-.99.98Z"/><path d="m48.63,26.97h-.46v1.29c0,.61-.26,1.02-.86,1.02-.43,0-.63-.28-.63-.72v-1.59h-.46v1.63c0,.64.33,1.08,1.06,1.08.46,0,.8-.24.93-.5.01.15.02.29.02.43h.44c0-.17-.02-.38-.02-.63v-2.02h0,0Z"/><path d="m70.74,26.9c-.82,0-1.43.57-1.43,1.39,0,.77.53,1.39,1.41,1.39.52,0,.91-.15,1.24-.55l-.35-.26c-.22.27-.49.4-.89.4-.5,0-.87-.39-.91-.85h2.24v-.14c0-.88-.53-1.39-1.32-1.39h0Zm-.93,1.15c.06-.45.4-.75.91-.75s.82.3.84.75c0,0-1.75,0-1.75,0Z"/><path d="m74.92,27.42c-.2-.35-.62-.52-.99-.52-.89,0-1.48.52-1.48,1.39,0,.78.61,1.36,1.48,1.36.37,0,.76-.15.98-.49v.34c.01.56-.21,1.07-1.04,1.07-.43,0-.74-.16-1.03-.46l-.33.36c.39.37.82.5,1.36.5.97,0,1.51-.52,1.51-1.48v-2.53h-.46v.45s0,0,0,0Zm-.99,1.82c-.54,0-.98-.41-.98-.95s.4-.98.98-.98.99.4.99.97c0,.51-.36.96-.99.96Z"/><path d="m68.26,25.76h.46v3.85h-.46v-3.85Z"/><path d="m77.33,26.9c-.82,0-1.43.57-1.43,1.39,0,.77.53,1.39,1.41,1.39.52,0,.91-.15,1.24-.55l-.35-.26c-.22.27-.49.4-.89.4-.5,0-.87-.39-.91-.85h2.24v-.14c0-.88-.53-1.39-1.32-1.39h0Zm-.93,1.15c.06-.45.4-.75.91-.75s.82.3.84.75c0,0-1.75,0-1.75,0Z"/><path d="m61.57,29.27c-.94,0-1.6-.74-1.6-1.66,0-.88.66-1.66,1.6-1.66.4,0,.8.16,1.05.49l.43-.3c-.36-.44-.92-.63-1.48-.63-1.25,0-2.14.93-2.14,2.1s.93,2.1,2.14,2.1c.67,0,1.22-.22,1.59-.7l-.37-.3c-.3.36-.71.56-1.22.56h0Z"/><path d="m64.93,26.9c-.86,0-1.49.57-1.49,1.39s.63,1.39,1.49,1.39,1.48-.57,1.48-1.39-.63-1.39-1.48-1.39Zm0,2.37c-.6,0-.99-.43-.99-.98s.39-.98.99-.98.99.43.99.98-.39.98-.99.98Z"/><path d="m67.01,25.76h.46v3.85h-.46v-3.85Z"/><path d="m65.63,17.47c0,.23-.18.41-.41.41s-.41-.18-.41-.41.18-.41.41-.41.41.18.41.41Z"/><path d="m75.99,17.47c0,.23-.18.41-.41.41s-.41-.18-.41-.41.18-.41.41-.41.41.18.41.41Z"/><path d="m70.4,0C63.61,0,58.11,5.5,58.11,12.29c0,6.79,5.5,12.29,12.29,12.29s12.28-5.5,12.28-12.29S77.18,0,70.4,0h0Zm0,22.93c-5.87,0-10.64-4.76-10.64-10.64s4.76-10.64,10.64-10.64,10.64,4.76,10.64,10.64c0,5.88-4.76,10.64-10.64,10.64Z"/><path d="m65.63,7.11c0,.23-.18.41-.41.41s-.41-.18-.41-.41.18-.41.41-.41.41.18.41.41Z"/><path d="m75.99,7.11c0,.23-.18.41-.41.41s-.41-.18-.41-.41.18-.41.41-.41.41.18.41.41Z"/><path class="cls-1" d="m70.4,14.33c-1.35,0-2.44,2.26-2.44,5.05,0,.87.11,1.69.29,2.41.04.15.17.27.33.3.61.11,1.22.17,1.82.17s1.21-.05,1.82-.17c.16-.03.28-.15.32-.3.19-.72.3-1.54.3-2.41,0-2.79-1.09-5.05-2.44-5.05h0Zm1.74,7.15c-.01.07-.07.11-.14.11-.08,0-.14-.06-.14-.14h0c0-.15.01-.29.01-.44,0-1.47-.5-2.69-1.17-2.99.21.23.35.68.35,1.19,0,.18-.02.35-.05.5-.02.13-.14.24-.28.24-.11,0-.22,0-.33,0s-.22,0-.33,0c-.14,0-.26-.11-.28-.24-.03-.16-.05-.32-.05-.5,0-.52.14-.97.35-1.19-.67.29-1.17,1.52-1.17,2.99,0,.15,0,.29.01.43h0c0,.09-.06.15-.14.15-.07,0-.12-.05-.14-.11-.09-.44-.13-.93-.13-1.44,0-2.14.84-3.87,1.88-3.87s1.87,1.74,1.87,3.87c0,.51-.05.99-.13,1.44h0Z"/><path class="cls-1" d="m72.44,12.29c0,1.35,2.26,2.44,5.05,2.44.87,0,1.69-.11,2.41-.3.15-.04.27-.17.3-.32.11-.61.17-1.22.17-1.82s-.06-1.21-.17-1.82c-.03-.16-.15-.28-.3-.33-.72-.19-1.54-.3-2.41-.3-2.79,0-5.05,1.09-5.05,2.44h0Zm7.15-1.74c.07.01.11.07.11.14,0,.08-.06.14-.14.14h-.01c-.14-.01-.28-.01-.43-.01-1.47,0-2.69.5-2.99,1.17.23-.21.68-.35,1.19-.35.18,0,.35.02.5.05.14.02.24.14.24.28,0,.11,0,.22,0,.33s0,.22,0,.33c0,.14-.11.26-.24.28-.15.03-.32.05-.5.05-.52,0-.97-.14-1.19-.35.29.67,1.52,1.17,2.99,1.17.15,0,.29,0,.43-.01h.01c.08,0,.14.06.14.14,0,.07-.05.13-.11.14-.44.09-.93.13-1.44.13-2.14,0-3.87-.84-3.87-1.88s1.74-1.87,3.87-1.87c.51,0,.99.05,1.44.13h0Z"/><path class="cls-1" d="m68.35,12.29c0-1.35-2.26-2.44-5.05-2.44-.87,0-1.69.11-2.41.3-.15.04-.27.17-.3.33-.11.61-.17,1.22-.17,1.82,0,.6.06,1.22.17,1.82.03.16.15.28.3.32.72.19,1.54.3,2.41.3,2.79,0,5.05-1.1,5.05-2.44h0Zm-7.15,1.74c-.06-.01-.11-.07-.11-.14,0-.08.06-.14.14-.14h0c.14.01.28.01.43.01,1.47,0,2.69-.5,2.98-1.17-.23.21-.68.35-1.19.35-.18,0-.35-.02-.5-.05-.14-.02-.24-.14-.24-.28,0-.11,0-.22,0-.33s0-.22,0-.33c0-.14.11-.26.24-.28.15-.03.32-.05.5-.05.52,0,.97.14,1.19.35-.29-.67-1.52-1.17-2.99-1.17-.15,0-.29,0-.43.01h0c-.08,0-.14-.06-.14-.14,0-.07.05-.13.11-.14.44-.09.93-.13,1.44-.13,2.14,0,3.87.84,3.87,1.87s-1.74,1.88-3.87,1.88c-.51,0-.99-.05-1.44-.13h0Z"/><path class="cls-1" d="m70.4,10.25c1.35,0,2.44-2.26,2.44-5.05,0-.87-.11-1.7-.3-2.41-.04-.15-.17-.27-.32-.3-.61-.11-1.22-.17-1.82-.17-.61,0-1.21.05-1.82.17-.16.03-.28.15-.33.3-.19.72-.29,1.54-.29,2.41,0,2.79,1.09,5.05,2.44,5.05h0Zm-1.74-7.15c.01-.07.07-.11.14-.11.08,0,.14.06.14.14h0c-.01.15-.01.29-.01.44,0,1.47.5,2.69,1.17,2.98-.21-.23-.35-.68-.35-1.19,0-.18.02-.35.05-.5.02-.14.14-.24.28-.24.11,0,.22,0,.33,0s.22,0,.33,0c.14,0,.26.11.28.24.03.16.05.32.05.5,0,.52-.14.97-.35,1.19.67-.29,1.17-1.52,1.17-2.98,0-.15,0-.29-.01-.43h0c0-.09.06-.15.14-.15.07,0,.13.05.14.11.09.44.13.93.13,1.44,0,2.14-.84,3.87-1.87,3.87s-1.88-1.74-1.88-3.87c0-.51.04-.99.13-1.44h0Z"/><path class="cls-2" d="m75.82,3.92c-.07-.04-.14-.07-.23-.07-.13,0-.25.06-.32.15-.22.26-.41.51-.59.77-.37-.21-.76-.4-1.16-.56-.02,0-.05-.01-.07-.01-.11,0-.21.09-.21.21,0,0,0,.01,0,.02.02.31.04.62.04.95,0,3.29-1.29,5.95-2.88,5.95s-2.88-2.67-2.88-5.95c0-.32.01-.64.04-.95,0,0,0-.01,0-.02,0-.11-.09-.21-.21-.21-.03,0-.05,0-.07.01-.4.16-.79.34-1.17.56-.18-.26-.37-.52-.59-.77-.08-.09-.19-.15-.32-.15-.08,0-.16.02-.23.07-.6.38-1.14.83-1.63,1.32s-.93,1.03-1.31,1.63c-.04.07-.07.14-.07.23,0,.13.06.25.15.32.26.22.51.41.77.59-.21.37-.4.76-.56,1.16,0,.02-.01.05-.01.07,0,.11.09.21.21.21,0,0,.01,0,.02,0,.31-.02.62-.04.95-.04,3.29,0,5.95,1.29,5.95,2.88s-2.67,2.88-5.95,2.88c-.32,0-.64-.01-.95-.04,0,0-.01,0-.02,0-.11,0-.21.09-.21.21,0,.03,0,.05.01.07.16.4.34.79.56,1.16-.26.18-.52.37-.77.59-.09.08-.15.19-.15.32,0,.08.02.16.07.23.38.59.83,1.14,1.31,1.63s1.03.93,1.63,1.32c.07.04.14.07.23.07.13,0,.25-.06.32-.15.22-.26.41-.51.59-.77.37.21.76.4,1.17.56.02,0,.05.01.07.01.11,0,.21-.09.21-.21,0,0,0-.01,0-.02-.02-.31-.04-.62-.04-.95,0-3.29,1.29-5.95,2.88-5.95s2.88,2.67,2.88,5.95c0,.32-.01.64-.04.95,0,0,0,.01,0,.02,0,.11.09.21.21.21.03,0,.05,0,.07-.01.4-.16.79-.34,1.16-.56.18.26.37.52.59.77.08.09.19.15.32.15.08,0,.16-.02.23-.07.6-.38,1.14-.83,1.63-1.32s.93-1.03,1.32-1.63c.04-.07.07-.14.07-.23,0-.13-.06-.25-.15-.32-.26-.22-.51-.41-.77-.59.21-.37.4-.76.56-1.16,0-.02.01-.05.01-.07,0-.11-.09-.21-.21-.21,0,0-.01,0-.02,0-.31.02-.62.04-.95.04-3.29,0-5.95-1.29-5.95-2.88s2.67-2.88,5.95-2.88c.32,0,.64.01.95.04,0,0,.01,0,.02,0,.11,0,.21-.09.21-.21,0-.03,0-.05-.01-.07-.16-.4-.34-.79-.56-1.16.26-.18.52-.37.77-.59.09-.08.15-.19.15-.32,0-.08-.02-.16-.07-.23-.38-.6-.83-1.14-1.32-1.63s-1.03-.93-1.63-1.32h0Zm-10.61,4.03c-.45,0-.82-.37-.82-.82s.37-.82.82-.82.82.37.82.82c0,.46-.37.82-.82.82h0Zm.02,10.36c-.45,0-.82-.37-.82-.82s.37-.82.82-.82.82.37.82.82-.37.82-.82.82h0Zm10.34-1.65c.45,0,.82.37.82.82s-.37.82-.82.82-.82-.37-.82-.82.37-.82.82-.82Zm.02-8.71c-.46,0-.82-.37-.82-.82s.37-.82.82-.82.82.37.82.82c0,.46-.37.82-.82.82h0Z"/><path d="m4.08,21.9c-1.72,0-2.9-1.4-2.9-3.53,0-1.82.99-3.19,2.83-3.19,1.32,0,2.11.58,2.48,1.92h.2v-2.12h-.19c-.08.15-.21.22-.41.22-.45,0-1.17-.3-2.13-.3-2.28,0-3.94,1.66-3.94,3.91,0,2.36,1.92,3.53,3.76,3.53,1.47,0,2.68-.71,3.18-1.83l-.2-.17c-.57,1.04-1.47,1.56-2.66,1.56h0Z"/><path d="m57.12,21.31h-.26c-.12.36-.2.49-.37.49-.25,0-.31-.2-.31-.79v-2.18c0-1.38-1.06-1.86-1.97-1.86-.99,0-1.79.62-2.02,1.56l.28.07c.23-.73.83-1.09,1.45-1.09.77,0,1.22.52,1.22,1.23v.37c-.9.49-3.02.43-3.02,1.88,0,.75.71,1.35,1.56,1.35.57,0,.92-.17,1.47-.72.19.5.46.72.93.72.62,0,1.02-.4,1.06-1.03Zm-1.99-.16c-.22.43-.8.65-1.13.65-.45,0-.83-.42-.83-.93,0-1.03.92-1.02,1.96-1.43v1.72s0,0,0,0Z"/><path d="m27.31,21.94v.24h2.63v-.24c-.74,0-.79-.19-.79-.7v-2.55c0-1.31-1.08-1.72-1.85-1.72s-1.43.39-2.02,1.15c-.28-.77-.99-1.15-1.71-1.15s-1.5.42-1.94,1.06h-.03v-1.06h-.26l-1.75.16v.24h.2c.49,0,.76.19.76.75v3.01c0,.76-.14.82-.79.82v.24h2.63v-.23c-.69,0-.79-.19-.79-.7v-2.77c.35-.57.96-.97,1.57-.97s1.16.34,1.16,1.1v2.35c0,.9-.03.98-.77.98v.24h2.59v-.24c-.74,0-.77-.2-.77-.73v-2.72c.48-.67.96-.97,1.54-.97.73,0,1.19.39,1.19,1.05v2.41c0,.83-.02.98-.79.98h0Z"/><path d="m35.87,14.77c.82,0,.83.1.83.69v5.5c0,.83,0,.96-.83.97v.24h2.66v-.24c-.69,0-.77-.13-.77-.72v-6.86h-.26l-1.62.17v.24h0Z"/><path d="m51.63,21.49l-.17-.19c-.32.34-.62.49-1.02.49-.6,0-.99-.36-.99-1.06v-3.27h1.9v-.37h-1.9v-1.71h-.26c-.46.88-1.08,1.49-1.82,1.84v.24h1.03v3.4c0,.87.65,1.48,1.57,1.48.62,0,1.17-.29,1.65-.85h0Z"/><path d="m39.22,18.35l-1.45,1.23,2.82,2.59h1.65v-.24c-.54-.03-.69-.17-1.2-.65l-2.27-2.11,1.42-1.2c.49-.43.99-.62,1.5-.62h.12v-.24h-2.7v.24c.88.01.68.5.11.99h0Z"/><path d="m44.97,22.34c.85,0,1.44-.24,2.03-.84l-.21-.19c-.52.48-.89.63-1.49.63-.74,0-2.21-.57-2.17-2.85h4.01c.08-1.17-1.1-2.12-2.36-2.12-1.54,0-2.74,1.2-2.74,2.74s1.23,2.64,2.95,2.64h0Zm-.34-5.07c.69,0,1.51.46,1.47,1.58h-2.98c.06-.94.6-1.58,1.51-1.58h0Z"/><path d="m30.36,19.7c0,1.53,1.23,2.64,2.95,2.64.85,0,1.44-.24,2.03-.84l-.21-.19c-.52.48-.89.63-1.49.63-.74,0-2.21-.57-2.17-2.85h4.01c.08-1.17-1.1-2.12-2.36-2.12-1.54,0-2.75,1.2-2.75,2.74h0Zm2.61-2.44c.69,0,1.51.46,1.47,1.58h-2.98c.06-.94.6-1.58,1.51-1.58Z"/><path d="m16.78,16.96c-1.54,0-2.75,1.2-2.75,2.74s1.23,2.64,2.95,2.64c.85,0,1.44-.24,2.03-.84l-.21-.19c-.52.48-.89.63-1.49.63-.74,0-2.21-.57-2.17-2.85h4.01c.08-1.17-1.09-2.12-2.36-2.12h0Zm-1.65,1.88c.06-.95.6-1.58,1.51-1.58.69,0,1.51.46,1.47,1.58h-2.98Z"/><path d="m12.96,20.96v-2.24c0-1.2-.91-1.76-1.82-1.76-.71,0-1.22.27-1.91,1.02v-3.62h-.26l-1.62.17v.24c.77,0,.84.1.84.76v5.42c0,.82-.02.96-.84.97v.24h2.66v-.24c-.68,0-.77-.16-.77-.69v-2.78c.52-.69.97-.96,1.59-.96.66,0,1.1.43,1.1,1.1v2.51c0,.66-.03.82-.77.82v.24h2.56v-.24c-.73,0-.74-.2-.74-.97h0Z"/></svg>