<?xml version="1.0" encoding="UTF-8" standalone="no"?>
<svg
   xmlns:dc="http://purl.org/dc/elements/1.1/"
   xmlns:cc="http://creativecommons.org/ns#"
   xmlns:rdf="http://www.w3.org/1999/02/22-rdf-syntax-ns#"
   xmlns:svg="http://www.w3.org/2000/svg"
   xmlns="http://www.w3.org/2000/svg"
   viewBox="0 0 262.04001 177.85333"
   height="177.85333"
   width="262.04001"
   xml:space="preserve"
   id="svg2"
   version="1.1"><metadata
     id="metadata8"><rdf:RDF><cc:Work
         rdf:about=""><dc:format>image/svg+xml</dc:format><dc:type
           rdf:resource="http://purl.org/dc/dcmitype/StillImage" /></cc:Work></rdf:RDF></metadata><defs
     id="defs6" /><g
     transform="matrix(1.3333333,0,0,-1.3333333,0,177.85333)"
     id="g10"><g
       transform="scale(0.1)"
       id="g12"><path
         id="path14"
         style="fill:#b4141a;fill-opacity:1;fill-rule:nonzero;stroke:none"
         d="m 1785.18,875.25 c -148.1,99.063 -352.17,79.102 -352.17,79.102 -12.15,19.765 -10.82,47.578 -10.82,52.498 0,4.96 -5.97,9.38 -7.54,0.41 -7.18,-41.541 0.98,-68.69 7.23,-86.268 6.13,-17.656 24.61,-10.371 43.01,-8.808 222.26,19.043 266.4,-31.563 266.4,-31.563 -5.5,-52.832 9.85,-114.941 20.69,-125.332 2.73,-2.578 11.36,-3.066 12.11,5.078 5.74,60.528 19.29,94.18 23.98,101.856 4.73,7.578 -0.58,11.425 -2.89,13.027" /><path
         id="path16"
         style="fill:#b4141a;fill-opacity:1;fill-rule:nonzero;stroke:none"
         d="m 1333.29,1213.1 c 1.13,-10.12 6.21,-11.31 11.13,0.86 3.83,9.38 6.52,45.29 2.03,60.51 0,0 33.44,-7.76 93.24,-66.29 8.17,-8.03 15.59,-1.33 10.71,10.35 -3.75,9.04 -45.4,123.6 -177.35,114.92 -5.31,-0.39 -4.8,-4.41 -1.33,-8.67 4.14,-5.35 57.43,-74.02 61.57,-111.68" /><path
         id="path18"
         style="fill:#b4141a;fill-opacity:1;fill-rule:nonzero;stroke:none"
         d="m 1255.94,1142.79 c -0.82,-7.81 2.89,-8.58 8.6,-0.53 4.37,6.08 11.87,20 11.52,36.08 0,0 27.5,-23.99 49.77,-72.58 4.06,-8.83 11.28,-6.1 9.1,4.65 -1.76,9.02 -4.93,110.39 -92.78,150.35 -7.69,2.4 -8.51,-5.39 -5.78,-9.96 2.78,-4.65 23.4,-69.24 19.57,-108.01" /><path
         id="path20"
         style="fill:#b4141a;fill-opacity:1;fill-rule:nonzero;stroke:none"
         d="m 1346.1,763.219 c 58.67,-2.617 92.38,13.926 96.44,16.562 4.03,2.696 5.24,7.188 2.15,6.875 -2.73,-0.234 -4.57,-0.312 -10.51,0.039 -5.03,0.274 -239.02,-38.632 -229.8,199.61 1.37,34.255 13.67,51.545 13.67,51.545 15,-4.36 35.12,2.48 28.67,7.13 -25.47,23.45 -19.92,98.24 -19.92,98.24 0.39,10 -7.19,8.32 -9.18,2.5 0,0 -37.22,-85.65 -40.51,-170.529 -6.52,-167.05 97.5,-208.847 168.99,-211.972" /><path
         id="path22"
         style="fill:#b4141a;fill-opacity:1;fill-rule:nonzero;stroke:none"
         d="m 1385.12,675.297 c -23.44,-26.211 -69.53,-56.524 -139.33,-49.063 -154.73,16.563 -163.68,150.383 -168.99,190.383 -4.33,31.953 0.16,76.758 1.29,87.461 1.09,10.762 -7.89,8.965 -9.18,3.262 -1.37,-5.762 -8.75,-45 -9.69,-85.488 -3.28,-141.008 76.21,-227.454 188.71,-227.454 109.11,0 141.53,66.172 143.75,75 2.15,8.79 -1.87,11.094 -6.56,5.899" /><path
         id="path24"
         style="fill:#b4141a;fill-opacity:1;fill-rule:nonzero;stroke:none"
         d="m 1491.06,788.414 c -12.15,-0.254 -11.72,-4.609 -5.74,-6.133 129.37,-32.441 171.33,-106.75 159.61,-218.781 -1.25,-11.562 -2.62,-4.492 -3.17,-0.078 -16.79,121.875 -103.32,175.508 -194.61,178.945 -58.28,2.149 -104.65,-35.469 -109.76,-42.383 -5.2,-6.953 0.19,-8.125 3.75,-5.586 3.63,2.461 18.47,11.368 29.26,15.547 138.55,53.977 228.2,-80.507 246.21,-157.968 17.73,-76.25 6.48,-112.344 1.68,-145.118 -1.64,-10.625 9.76,-7.851 12.69,-1.132 4.65,10.429 55.47,130.078 44.81,223.203 -18.29,158.859 -171.92,159.679 -184.73,159.484" /><path
         id="path26"
         style="fill:#b4141a;fill-opacity:1;fill-rule:nonzero;stroke:none"
         d="m 1308.17,698.539 c 6.01,0.664 6.99,6.563 0.23,7.109 -74.68,6.797 -170.31,40 -172.15,201.985 -3.63,28.867 3.72,74.629 4.11,85 0.39,10.407 -6.25,8.127 -9.07,0.625 -2.73,-7.578 -22.07,-53.008 -16.05,-137.637 15.9,-223.566 215.19,-154.504 192.93,-157.082" /><path
         id="path28"
         style="fill:#b4141a;fill-opacity:1;fill-rule:nonzero;stroke:none"
         d="m 1480.55,1198.1 c -4.22,4.65 -8.79,13.05 -10.43,35.7 0,0 79.61,33.64 174.61,-4.68 0,0 6.06,-74.91 19.34,-91.39 0,0 54.45,-0.9 105.37,30.45 28.71,17.71 10.35,-57.77 10.35,-57.77 0,0 19.37,16.34 55.27,8.59 89.81,-19.34 -1.6,-156.289 -1.6,-156.289 l -0.82,-0.352 c -114.86,5.352 -183.92,111.931 -304.2,117.581 -94.26,4.35 -98.71,-23.67 -104.1,-49.42 -1.25,-5.86 -5.82,-5.39 -6.56,-0.86 -1.33,7.7 -10.51,60.45 13.4,85.34 0,0 24.18,9 70.82,6.83 139.8,-6.5 220.35,-128.963 299.47,-132.654 0,0 77.58,89.334 12.85,107.054 -19.06,5.19 -60.31,-6.6 -66.89,-2.39 -1.53,0.9 -4.65,3.15 -1.8,8.09 11.78,21.25 7.4,33.89 7.01,35.78 -3.26,13.67 -39.24,-16.37 -97.67,-10.82 0,0 -30.94,73.75 -36.49,97.77 0,0 -24.73,7.84 -127.58,-27.77 -6.72,-2.3 -9.33,0.1 -10.35,1.21" /><path
         id="path30"
         style="fill:#b4141a;fill-opacity:1;fill-rule:nonzero;stroke:none"
         d="m 1682.27,852.398 c -22.27,11.563 -55,23.204 -92.93,24.59 -32.5,1.153 -78.28,-3.125 -111.87,-1.582 -113.79,5.313 -156.72,67.11 -154.61,118.496 0.97,21.428 4.49,34.238 6.13,41.508 1.64,7.32 -3.79,7.46 -7.46,3.75 -3.63,-3.64 -26.49,-36.06 -28.13,-75.531 -2.89,-67.715 50.63,-127.344 128.68,-130.859 78,-3.692 159.6,17.46 193.28,17.05 38.39,-0.488 44.14,-10 59.18,-11.875 11.01,-1.289 12.69,5.703 12.61,9.414 0,0.664 -0.11,2.579 -4.88,5.039" /><path
         id="path32"
         style="fill:#b4141a;fill-opacity:1;fill-rule:nonzero;stroke:none"
         d="m 1629.18,1134.66 c -31.91,37.54 -75,66.18 -81.13,66.18 -6.17,0 -34.22,-6.21 -34.22,-11.29 0,-2.42 34.61,-10.9 57,-28.99 0,0 -23.36,-8.12 -9.65,-29.96 25.5,-6.72 49.65,-18.89 59.1,-23.71 19.53,-10 22.3,12.03 8.9,27.77" /><path
         id="path34"
         style="fill:#b4141a;fill-opacity:1;fill-rule:nonzero;stroke:none"
         d="m 1962.91,909.164 c -7.92,-0.625 -20.11,-1.512 -26.36,-1.512 -158.75,0 -241.23,108.748 -366.39,122.288 -72.23,7.85 -108.4,-11.08 -115.58,-11.84 -7.19,-0.76 -9.77,-10.04 -0.94,-8.94 8.83,1.09 25.58,2.99 49.33,2.99 136.25,0 232.66,-119.255 388.23,-119.255 38.47,0 68.32,7.089 73.16,12.382 1.45,2.207 1.45,4.043 -1.45,3.887" /><path
         id="path36"
         style="fill:#595c67;fill-opacity:1;fill-rule:nonzero;stroke:none"
         d="m 145.137,614.672 c 0,-23.672 0.351,-51.445 1.367,-62.266 h -43.789 c 0.703,10.821 1.367,38.594 1.367,62.266 v 133.926 c 0,23.672 -0.664,46.953 -1.367,57.343 h 65.703 c 51.836,0 81.68,-31.601 81.68,-75.078 0,-43.047 -31.602,-74.316 -82.344,-74.316 h -22.617 z m 0,73.144 h 18.437 c 28.125,0 45.469,21.875 45.469,43.438 0,22.578 -16.289,43.398 -45.469,43.398 h -18.437 v -86.836" /><path
         id="path38"
         style="fill:#595c67;fill-opacity:1;fill-rule:nonzero;stroke:none"
         d="m 521.152,583.344 c 17.032,0 27.11,5.234 35.45,12.89 v -42.421 c -12.168,-1.407 -19.102,-3.829 -36.504,-3.829 -48.985,0 -84.414,36.485 -84.414,81.68 0,45.879 35.761,83.027 84.414,83.027 14.609,0 25.019,-3.457 35.488,-4.14 v -42.012 c -8.731,7.246 -18.086,12.129 -34.434,12.129 -26.406,0 -47.304,-21.895 -47.304,-49.004 0,-26.367 21.23,-48.32 47.304,-48.32" /><path
         id="path40"
         style="fill:#595c67;fill-opacity:1;fill-rule:nonzero;stroke:none"
         d="m 635.84,588.266 c 0,-12.93 0.351,-29.219 1.055,-35.86 h -41.329 c 0.664,7.305 1.016,23.672 1.016,35.86 v 100.41 h -16.719 c 4.18,5.195 8.34,15.586 11.133,22.929 h 45.899 c -0.704,-8.007 -1.055,-22.929 -1.055,-35.449 z m -19.766,194.238 c 12.11,0 21.485,-10.078 21.485,-22.246 0,-12.188 -9.375,-22.285 -21.485,-22.285 -12.168,0 -21.933,10.097 -21.933,22.285 0,12.168 9.765,22.246 21.933,22.246" /><path
         id="path42"
         style="fill:#595c67;fill-opacity:1;fill-rule:nonzero;stroke:none"
         d="m 927.855,583.344 c 17.071,0 27.11,5.234 35.508,12.89 v -42.421 c -12.187,-1.407 -19.179,-3.829 -36.523,-3.829 -49.004,0 -84.473,36.485 -84.473,81.68 0,45.879 35.781,83.027 84.473,83.027 14.609,0 25,-3.457 35.469,-4.14 v -42.012 c -8.711,7.246 -18.125,12.129 -34.454,12.129 -26.425,0 -47.285,-21.895 -47.285,-49.004 0,-26.367 21.25,-48.32 47.285,-48.32" /><path
         id="path44"
         style="fill:#595c67;fill-opacity:1;fill-rule:nonzero;stroke:none"
         d="m 411.133,688.793 h 16.68 c -3.77,5.195 -8.34,17.051 -10.723,22.949 h -44.531 c 1.015,-11.484 -0.313,-15.137 -0.313,-24.922 v 2.168 c -9.726,16.719 -29.551,25.703 -52.109,25.703 -46.621,0 -78.946,-36.132 -78.946,-82.675 0,-44.493 32.325,-82.032 76.133,-82.032 21.895,0 42.051,8.672 54.922,28.516 0,-12.852 -0.371,-19.844 -0.703,-26.094 h 40.996 c -1.035,9.727 -1.406,23.321 -1.406,35.43 z M 328.066,582.328 c -26.054,0 -47.226,22.266 -47.226,50.039 0,27.071 20.859,49.336 46.191,49.336 25.762,0 46.231,-22.265 46.231,-49.687 0,-27.422 -20.469,-49.688 -45.196,-49.688" /><path
         id="path46"
         style="fill:#595c67;fill-opacity:1;fill-rule:nonzero;stroke:none"
         d="m 819.336,587.25 c 0,-12.461 0.664,-28.75 1.348,-35.352 h -40.84 c 0.39,7.305 0.703,23.243 0.703,35.352 v 94.492 H 725.508 V 587.25 c 0,-11.055 0.351,-27.383 0.703,-35.352 h -40.156 c 0.351,7.969 0.664,24.297 0.664,35.352 v 94.492 h -27.676 v 28.731 h 27.676 v 18.32 c 0,51.562 29.101,79.961 77.226,79.961 23.868,0 33.907,-7.949 45.352,-9.336 v -40.137 c -11.094,11.758 -23.574,19.707 -42.93,19.707 -26.328,0 -40.859,-16.601 -40.859,-45.683 v -22.832 h 95.176 C 820,702.504 819.336,679.301 819.336,666.859 V 587.25" /><path
         id="path48"
         style="fill:#595c67;fill-opacity:1;fill-rule:nonzero;stroke:none"
         d="m 43.7891,513.07 c -0.7032,-9.375 -1.3672,-30.468 -1.3672,-55.156 v -80.625 c 0,-38.945 22.9297,-63.238 53.4765,-63.238 30.6246,0 53.5356,24.293 53.5356,63.238 v 80.625 c 0,19.844 -0.371,40.547 -1.387,55.156 h 43.437 c -0.683,-15.312 -1.015,-36.054 -1.015,-55.156 v -79.609 c 0,-62.184 -40.352,-100.075 -94.5706,-100.075 -54.5312,0 -94.53121,37.579 -94.53121,100.075 v 79.609 c 0,24.688 -0.644534,45.781 -1.36719,55.156 h 43.7891" /><path
         id="path50"
         style="fill:#595c67;fill-opacity:1;fill-rule:nonzero;stroke:none"
         d="m 302.633,418.305 c -19.102,0 -31.641,-14.922 -31.641,-38.242 v -56.641 c 0,-9.723 0.371,-25.703 1.055,-35.781 h -41.348 c 0.684,10.078 1.035,26.058 1.035,35.781 v 100.469 h -16.679 c 4.843,7.617 8.008,15.273 11.133,22.89 h 44.804 v -21.875 c 8.36,13.907 24.688,24.688 45.86,24.688 35.82,0 55.625,-25.391 55.625,-71.25 v -54.922 c 0,-9.723 0.351,-25.703 1.054,-35.781 h -41.367 c 0.723,10.078 1.055,26.058 1.055,35.781 v 54.922 c 0,26.758 -13.535,39.961 -30.586,39.961" /><path
         id="path52"
         style="fill:#595c67;fill-opacity:1;fill-rule:nonzero;stroke:none"
         d="m 519.59,446.781 c 1.367,-5.195 3.476,-11.445 7.246,-19.765 l 31.328,-75.43 27.813,68.828 c 5.214,11.797 7.304,19.453 9.023,26.367 h 42.363 c -6.582,-11.093 -14.57,-26.054 -20.508,-38.906 L 559.512,282.09 h -7.657 L 492.09,411.664 c -4.844,11.172 -11.094,23.672 -18.36,35.117 h 45.86" /><path
         id="path54"
         style="fill:#595c67;fill-opacity:1;fill-rule:nonzero;stroke:none"
         d="m 680.922,362.719 c 1.367,-25.352 21.172,-46.91 49.648,-46.91 18.809,0 31.289,2.382 45.235,11.441 v -34.02 c -11.485,-1.101 -23.672,-8.359 -51.797,-8.359 -47.969,0 -83.067,35.738 -83.067,81.637 0,47.656 33.36,83.086 76.465,83.086 47.969,0 74.688,-42.735 74.688,-77.5 0,-3.477 -0.293,-7.696 -0.703,-9.375 z m -0.352,26.758 h 70.899 c -2.09,14.961 -14.258,31.601 -34.453,31.601 -18.399,0 -31.641,-13.555 -36.446,-31.601" /><path
         id="path56"
         style="fill:#595c67;fill-opacity:1;fill-rule:nonzero;stroke:none"
         d="m 922.074,448.227 v -41.758 c -5.898,3.867 -13.554,6.64 -22.949,6.64 -19.492,0 -32.695,-23.632 -32.695,-45.195 v -44.805 c 0,-11.839 0.351,-23.668 1.054,-35.468 h -41.347 c 0.683,11.8 1.015,23.629 1.015,35.468 v 100.782 h -16.679 c 4.16,6.523 8.359,15.976 10.8,22.89 h 41.329 V 411 c 5.898,23.281 23.281,38.984 42.773,38.984 10.098,0 12.168,-1.757 16.699,-1.757" /><path
         id="path58"
         style="fill:#595c67;fill-opacity:1;fill-rule:nonzero;stroke:none"
         d="m 1046.53,331.391 c 0,-27.77 -20.2,-47.93 -56.331,-47.93 -19.14,0 -38.594,8.008 -47.929,9.418 v 41.676 c 8.32,-12.535 30.859,-22.227 45.468,-22.227 11.875,0 19.492,6.293 19.492,16.332 0,24.996 -61.484,26.403 -61.484,74.723 0,28.476 20.469,46.601 55.934,46.601 16.68,0 29.54,-5.937 38.56,-6.289 v -37.89 c -6.95,10.429 -26.41,16.328 -36.45,16.328 -13.591,0 -18.786,-6.953 -18.786,-15.274 0,-23.984 61.526,-24.687 61.526,-75.468" /><path
         id="path60"
         style="fill:#595c67;fill-opacity:1;fill-rule:nonzero;stroke:none"
         d="m 453.164,323.422 c 0,-12.852 0.352,-29.223 1.016,-35.781 h -41.348 c 0.684,7.308 1.055,23.629 1.055,35.781 v 100.469 h -16.68 c 4.141,5.195 8.34,15.625 11.113,22.89 h 45.86 c -0.664,-7.968 -1.016,-22.89 -1.016,-35.39 z m -23.848,194.297 c 12.168,0 21.602,-10.078 21.602,-22.227 0,-12.148 -9.434,-22.304 -21.602,-22.304 -12.148,0 -21.875,10.156 -21.875,22.304 0,12.149 9.727,22.227 21.875,22.227" /><path
         id="path62"
         style="fill:#595c67;fill-opacity:1;fill-rule:nonzero;stroke:none"
         d="m 1124.34,323.422 c 0,-12.852 0.39,-29.223 1.06,-35.781 h -41.37 c 0.7,7.308 1.05,23.629 1.05,35.781 v 100.469 h -16.68 c 4.14,5.195 8.36,15.625 11.1,22.89 h 45.9 c -0.67,-7.968 -1.06,-22.89 -1.06,-35.39 z m -19.8,194.297 c 12.18,0 21.56,-10.078 21.56,-22.227 0,-12.148 -9.38,-22.304 -21.56,-22.304 -12.19,0 -21.88,10.156 -21.88,22.304 0,12.149 9.69,22.227 21.88,22.227" /><path
         id="path64"
         style="fill:#595c67;fill-opacity:1;fill-rule:nonzero;stroke:none"
         d="m 1216.14,488.539 c -0.74,-8.359 -1.1,-19.492 -1.1,-30.937 v -10.821 h 43.44 v -32.304 h -43.44 v -63.946 c 0,-24.332 10.47,-33.402 24.38,-33.402 4.84,0 11.48,1.492 14.22,3.871 v -34.059 c -6.21,0 -14.61,-2.07 -25.04,-2.07 -28.13,0 -52.11,16.328 -52.11,58.043 v 71.563 h -23.99 v 32.304 h 23.99 v 10.821 c 0,11.445 -0.35,22.578 -1.06,30.937 h 40.71" /><path
         id="path66"
         style="fill:#595c67;fill-opacity:1;fill-rule:nonzero;stroke:none"
         d="m 1402.74,446.781 c -2.11,-7.617 -5.24,-18.789 -8.67,-27.422 -10.78,-29.531 -18.79,-47.968 -29.26,-70.586 l -35.04,72.657 c -4.53,9.726 -7.97,18.086 -10.08,25.351 h -46.6 c 6.6,-10.742 12.54,-22.226 19.14,-35.117 l 52.46,-106.324 c -12.15,-22.82 -38.24,-60.629 -51.13,-80.121 h 38.79 c 12.62,20.191 38.16,58.633 49.22,80.121 15.93,29.918 35.74,76.129 48.32,104.605 3.47,8.36 11.44,26.797 17.03,36.836 h -44.18" /><path
         id="path68"
         style="fill:#595c67;fill-opacity:1;fill-rule:nonzero;stroke:none"
         d="m 525.453,47.1094 c 35.43,0 63.223,29.9414 63.223,66.9026 0,36.976 -27.793,66.597 -63.223,66.597 -35.133,0 -62.93,-29.621 -62.93,-66.597 0,-36.9612 27.797,-66.9026 62.93,-66.9026 z m 0,161.9026 c 54.57,0 96.641,-42.543 96.641,-95 0,-52.4612 -42.071,-95.0003 -96.641,-95.0003 -54.023,0 -96.328,42.5391 -96.328,95.0003 0,52.457 42.305,95 96.328,95" /><path
         id="path70"
         style="fill:#595c67;fill-opacity:1;fill-rule:nonzero;stroke:none"
         d="m 721.977,194.852 v -32.114 c -4.571,2.891 -10.43,5.043 -17.657,5.043 -15,0 -25.156,-18.211 -25.156,-34.769 V 98.4805 c 0,-9.1407 0.274,-18.1992 0.82,-27.3008 h -31.875 c 0.508,9.1016 0.782,18.1601 0.782,27.3008 v 77.5785 h -12.813 c 3.203,5.082 6.406,12.339 8.281,17.691 h 31.836 v -27.57 c 4.571,17.929 17.93,29.961 32.93,29.961 7.734,0 9.375,-1.289 12.852,-1.289" /><path
         id="path72"
         style="fill:#595c67;fill-opacity:1;fill-rule:nonzero;stroke:none"
         d="m 927.07,122.539 c 13.399,0 24.102,11.25 24.102,24.891 0,13.672 -10.703,24.64 -24.102,24.64 -13.359,0 -24.062,-10.968 -24.062,-24.64 0,-13.641 10.703,-24.891 24.062,-24.891 z M 926.25,20.3594 c 18.477,0 32.695,7.6914 32.695,18.3906 0,10.4688 -15,18.7891 -34.023,18.7891 -17.109,0 -31.348,-8 -31.348,-18.2383 0,-10.6992 14.239,-18.9414 32.676,-18.9414 z M 988.125,193.75 c 0,-9.922 -7.07,-15.891 -15.391,-20.969 3.789,-5.59 8.946,-14.492 8.946,-25.351 0,-26.719 -23.789,-48.9495 -54.61,-48.9495 -9.062,0 -15.781,3.7105 -20.898,3.7105 -4.512,0 -8.574,-4.2222 -8.574,-10.941 0,-5.6211 4.863,-10.9687 11.308,-10.9687 3.477,0 9.883,1.8281 17.617,1.8281 34.297,0 63.711,-15.7813 63.711,-41.9883 C 990.234,17.6602 961.367,0 926.25,0 c -34.844,0 -62.891,16.5703 -62.891,39.3008 0,12.5781 8.243,22.2305 19.493,28.1289 -8.008,3.1992 -13.125,12.3008 -13.125,21.1719 0,10.3867 7.773,21.0894 19.296,23.7504 -9.101,8.046 -16.367,19.839 -16.367,35.078 0,26.789 23.887,48.711 54.414,48.711 13.907,0 25.196,-5.082 32.93,-10.981 1.875,1.641 9.609,5.391 9.609,8.59 h 18.516" /><path
         id="path74"
         style="fill:#595c67;fill-opacity:1;fill-rule:nonzero;stroke:none"
         d="m 1063.43,95.2383 c 19.57,0 35.62,16.6017 35.62,37.2307 0,20.89 -16.05,37.461 -35.62,37.461 -19.49,0 -35.28,-16.571 -35.28,-37.461 0,-20.629 15.79,-37.2307 35.28,-37.2307 z m 0,100.9027 c 35.62,0 64.53,-28.36 64.53,-63.672 0,-35.0784 -28.91,-63.1682 -64.53,-63.1682 -35.28,0 -63.95,28.0898 -63.95,63.1682 0,35.07 28.67,63.672 63.95,63.672" /><path
         id="path76"
         style="fill:#595c67;fill-opacity:1;fill-rule:nonzero;stroke:none"
         d="m 1205.31,171.801 c -14.69,0 -24.33,-11.52 -24.33,-29.449 V 98.7188 c 0,-7.4688 0.27,-19.8086 0.78,-27.5391 h -31.8 c 0.55,7.7305 0.78,20.0703 0.78,27.5391 v 77.3402 h -12.85 c 3.75,5.902 6.13,11.8 8.56,17.691 h 34.53 v -16.828 c 6.44,10.699 18.98,18.937 35.35,18.937 27.54,0 42.81,-19.488 42.81,-54.879 V 98.7188 c 0,-7.4688 0.23,-19.8086 0.82,-27.5391 h -31.87 c 0.54,7.7305 0.82,20.0703 0.82,27.5391 V 140.98 c 0,20.668 -10.47,30.821 -23.6,30.821" /><path
         id="path78"
         style="fill:#595c67;fill-opacity:1;fill-rule:nonzero;stroke:none"
         d="m 762.734,140.238 60.039,-0.117 c 1.329,21.488 -13.281,33.789 -29.96,33.789 -16.055,0 -27.852,-11.91 -30.079,-33.672 z m 1.563,-20.699 c 2.383,-9.57 16.211,-26.6796 38.945,-26.6796 14.453,0 24.063,1.8711 34.766,8.7886 V 75.4688 c -8.828,-0.8204 -18.203,-6.4375 -39.883,-6.4375 -36.914,0 -63.945,27.5781 -63.945,62.8907 0,36.637 25.664,63.937 58.867,63.937 36.914,0 57.539,-32.89 57.539,-59.64 0,-2.66 -0.078,-6.719 -2.656,-16.68 h -83.633" /></g></g></svg>