<svg id="Layer_1" data-name="Layer 1" xmlns="http://www.w3.org/2000/svg" xmlns:xlink="http://www.w3.org/1999/xlink" viewBox="0 0 212.06 46.89"><defs><style>.cls-1{fill:none;}.cls-2{clip-path:url(#clip-path);}.cls-3{fill:#a32036;}.cls-4{fill:#231f20;}</style><clipPath id="clip-path" transform="translate(-6.23 -7.5)"><rect class="cls-1" x="6.23" y="7.5" width="212.06" height="46.89"/></clipPath></defs><g class="cls-2"><path class="cls-3" d="M19.38,22.83a14.61,14.61,0,0,1-3.05-.12c-.36-.06-.3-.42-.06-1.09,1.28-3.53,2.19-5.72,3-7.55.37-.85.55-.85.67-.36.67,2.19,1.16,3.65,2.5,7.72.24.73.24,1.16.06,1.22s-.73.18-3.16.18m10.28,7.42c-3.11-6.93-5.78-15.93-7.12-20.31a4.94,4.94,0,0,1-.31-1.83c0-.36-.12-.61-.48-.61s-.79.55-1.46,1.34l-1,1.16A13.24,13.24,0,0,0,18,12.73c-1.77,4.39-4,10-6.45,15.64a10.77,10.77,0,0,1-2.62,4,6.52,6.52,0,0,1-2.37,1c-.55.12-.49.79.18.79,1.28,0,2.68-.18,4-.18,1.64,0,2.92.18,5.11.18.67,0,.73-.67.18-.79a4.78,4.78,0,0,1-2.43-1c-.61-.66-.43-1.82-.12-2.92a28.08,28.08,0,0,1,1.27-3.89.75.75,0,0,1,.61-.49A21,21,0,0,1,19.07,25a38.44,38.44,0,0,1,4.08.06c.36.06.48.25.67.79a28.12,28.12,0,0,1,1.76,5.36c.24,1.27,0,1.82-1.95,2.37-.48.12-.42.67.25.67,1.82,0,3-.18,4.5-.18s2.86.18,5.17.18c.73,0,.73-.61.18-.79-2.31-.67-3.16-1-4.07-3.17" transform="translate(-6.23 -7.5)"/><path class="cls-3" d="M43.57,14.19a28.23,28.23,0,0,1,.12-3.77c.12-.73.3-.85,1.1-.85,4.38,0,6.75,3.22,6.75,6.94a4.71,4.71,0,0,1-1.95,4.07c-1.28.73-2.55,1-5.53,1-.43-.12-.49-.06-.49-1.1ZM39.8,25.81a47.31,47.31,0,0,1-.25,4.75c-.24,1.76-.79,2.25-3.1,2.86-.61.18-.55.79.12.79,1.71,0,3.59-.18,5.42-.18s3.53.18,5,.18c.85,0,.73-.61.06-.79-2.56-.73-3-1.28-3.35-3.23a18.74,18.74,0,0,1-.18-3.34V23.69c0-.86.06-.92.49-.92a12.77,12.77,0,0,1,2.37.25,2.32,2.32,0,0,1,1.46,1.15c1.15,1.46,6.26,8.88,9.67,12.47,6.27,6.51,11.62,8.89,17.1,8.89,4.25,0,7.9-1.83,9.61-4.75.42-.73,0-1-.49-.49A8.35,8.35,0,0,1,77.21,43c-5.6,0-9.79-2.37-15-7.24A66.1,66.1,0,0,1,51.11,22.16c-.36-.54-.18-.79.25-1a15.69,15.69,0,0,0,1.52-1,6.6,6.6,0,0,0,2.49-5.3c0-1.76-.42-7.11-9.55-6.87a66.78,66.78,0,0,0-9.67.85c-.73.12-.61.67.06.73a6.23,6.23,0,0,1,2.86.73,2.65,2.65,0,0,1,.48,1.34,28.17,28.17,0,0,1,.25,4.68Z" transform="translate(-6.23 -7.5)"/><path class="cls-3" d="M64.84,10.85A18,18,0,0,1,75.42,7.5a13.53,13.53,0,0,1,6.45,1.28,1.37,1.37,0,0,1,.73,1.7,31.36,31.36,0,0,0-.24,3.35c0,.85-.79,1-.92.12a4.6,4.6,0,0,0-2.31-3.22,10.82,10.82,0,0,0-5.9-1.52,9.31,9.31,0,0,0-4.87,1.4c-3,1.94-4.19,5.35-4.19,10.21,0,6.39,4.07,11.75,9.91,11.75a10.6,10.6,0,0,0,4.81-.92,8.4,8.4,0,0,0,4-4.62c.19-.55.92-.42.79.25A27.65,27.65,0,0,1,82.48,32,2.94,2.94,0,0,1,81,33.48a20.35,20.35,0,0,1-7,1.28c-7.6,0-14.42-4.38-14.42-13.33a12.75,12.75,0,0,1,5.24-10.58" transform="translate(-6.23 -7.5)"/><path class="cls-3" d="M97.09,22.83a14.44,14.44,0,0,1-3-.12c-.37-.06-.31-.42-.06-1.09,1.27-3.53,2.19-5.72,3-7.55.36-.85.55-.85.67-.36.66,2.19,1.15,3.65,2.49,7.72.24.73.24,1.16.06,1.22s-.73.18-3.16.18m10.28,7.42a187,187,0,0,1-7.12-20.31,5.09,5.09,0,0,1-.3-1.83c0-.36-.12-.61-.49-.61s-.79.55-1.46,1.34L97,10a12.5,12.5,0,0,0-1.28,2.73c-1.76,4.39-4,10-6.45,15.64a10.78,10.78,0,0,1-2.61,4,6.58,6.58,0,0,1-2.38,1c-.55.12-.48.79.19.79,1.27,0,2.67-.18,4-.18,1.64,0,2.92.18,5.11.18.67,0,.73-.67.18-.79a4.82,4.82,0,0,1-2.43-1c-.61-.66-.43-1.82-.12-2.92a26.27,26.27,0,0,1,1.28-3.89.74.74,0,0,1,.6-.49A21.21,21.21,0,0,1,96.79,25a38.29,38.29,0,0,1,4.07.06c.37.06.49.25.67.79a28.12,28.12,0,0,1,1.76,5.36c.25,1.27,0,1.82-1.94,2.37-.49.12-.43.67.24.67,1.83,0,3-.18,4.5-.18s2.86.18,5.17.18c.73,0,.73-.61.18-.79-2.31-.67-3.16-1-4.07-3.17" transform="translate(-6.23 -7.5)"/><path class="cls-3" d="M120.76,18a49.2,49.2,0,0,1,.25-7.12c.12-.85.42-1,.73-1.1a6,6,0,0,1,1.7-.18c8.15,0,11.8,4.87,11.8,11.62,0,4.26-1.21,7.36-3.47,9.13A12.25,12.25,0,0,1,125,32.14a15.74,15.74,0,0,1-2.86-.24,1.53,1.53,0,0,1-1-1,28,28,0,0,1-.37-6.08ZM117,23.5c0,5-.18,6.75-.42,7.67A2.93,2.93,0,0,1,114,33.36a.4.4,0,1,0,.12.79c.67-.06,1.46-.06,2-.06s1.28,0,2.25,0,2.49.12,3.71.12c1.82,0,6.94-.18,11.13-2.92,3.53-2.37,6.21-5.48,6.21-11.38,0-4-1.28-6.93-3.65-9S129.83,8,124.41,8a92.4,92.4,0,0,0-11.07.79c-.54.06-.54.67-.06.73,2.86.49,3.29.91,3.47,2a48,48,0,0,1,.24,6.08Z" transform="translate(-6.23 -7.5)"/><path class="cls-3" d="M143.63,18.45a51.72,51.72,0,0,0-.24-7.24c-.37-1.58-1.7-2.06-2.92-2.37-.49-.12-.43-.79.3-.79,2.44,0,3.53.18,5.36.18,1.34,0,2.43-.18,4.13-.18.73,0,.73.67.13.79-1,.25-2.44.73-2.68,2.19a43.7,43.7,0,0,0-.31,7.42v5.42c0,3.65,0,5.84.37,7.36s1.58,1.89,3,2.19c.55.12.55.79-.18.79-2,0-3.47-.18-5.17-.18-1.46,0-3,.18-4.87.18-.67,0-.73-.67-.12-.79,1.22-.18,2.61-.79,2.86-1.89a51.15,51.15,0,0,0,.3-7.66Z" transform="translate(-6.23 -7.5)"/><path class="cls-3" d="M166.2,22.83a14.44,14.44,0,0,1-3-.12c-.36-.06-.3-.42-.06-1.09,1.28-3.53,2.19-5.72,3-7.55.37-.85.55-.85.67-.36.67,2.19,1.16,3.65,2.49,7.72.25.73.25,1.16.06,1.22s-.73.18-3.16.18m10.29,7.42c-3.11-6.93-5.78-15.93-7.13-20.31a5.09,5.09,0,0,1-.3-1.83c0-.36-.12-.61-.49-.61s-.79.55-1.45,1.34l-1,1.16a12.69,12.69,0,0,0-1.27,2.73c-1.77,4.39-4,10-6.45,15.64a10.89,10.89,0,0,1-2.62,4,6.6,6.6,0,0,1-2.37,1c-.55.12-.49.79.18.79,1.28,0,2.68-.18,4-.18,1.64,0,2.92.18,5.11.18.66,0,.73-.67.18-.79a4.78,4.78,0,0,1-2.43-1c-.61-.66-.43-1.82-.13-2.92a29.06,29.06,0,0,1,1.28-3.89.74.74,0,0,1,.61-.49A21,21,0,0,1,165.9,25,38.13,38.13,0,0,1,170,25c.37.06.49.25.67.79a29,29,0,0,1,1.77,5.36c.24,1.27,0,1.82-1.95,2.37-.49.12-.43.67.25.67,1.82,0,3-.18,4.5-.18s2.86.18,5.17.18c.73,0,.73-.61.18-.79-2.31-.67-3.17-1-4.07-3.17" transform="translate(-6.23 -7.5)"/><path class="cls-4" d="M88.58,43.89c0-1.74-.07-2-.2-2.31-.22-.48-.88-.67-1.45-.82-.29,0-.29-.41,0-.41,1.27,0,1.74.09,2.53.09,1,0,1.49-.09,2.63-.09.38,0,.41.34.09.41a1.52,1.52,0,0,0-1.17.66c-.41.54-.5,2.18-.5,4.37v2.34a4.84,4.84,0,0,0,1.1,3.58,4.21,4.21,0,0,0,3,1.17A3.4,3.4,0,0,0,97.25,52c.82-.76,1.29-2.28,1.29-5.19V44.46a6.94,6.94,0,0,0-.31-2.53c-.26-.6-.79-.86-1.74-1.17-.29-.1-.23-.41.06-.41.92,0,1.8.09,2.72.09.76,0,1.46-.09,2.09-.09.35,0,.38.34.06.41a1.63,1.63,0,0,0-1.26,1.07,8.23,8.23,0,0,0-.32,2.38l-.16,3.73c-.16,3.77-2.43,6.3-6.11,6.3a5.09,5.09,0,0,1-4.08-1.59,5.3,5.3,0,0,1-.91-3.54Z" transform="translate(-6.23 -7.5)"/><path class="cls-4" d="M116.36,49.49c0,2.37.06,3.73.09,4,.07.53-.12.6-.31.6a1.71,1.71,0,0,1-.86-.41,6.14,6.14,0,0,1-.76-.73c-2.21-2.75-5.79-7.09-7.81-9.37-.1-.09-.16,0-.19.29s0,.85,0,2.24v2.7c0,3.73.6,4.14,1.26,4.39l.92.35c.25.1.25.44-.16.41-.76,0-1.58-.09-2.47-.09s-1.8.09-2.47.09c-.41,0-.41-.28-.12-.41l.63-.25a1.84,1.84,0,0,0,1.14-1.07,29.2,29.2,0,0,0,.29-4.94V44a3.66,3.66,0,0,0-.35-2.09,3.12,3.12,0,0,0-1.93-1.14c-.29-.07-.29-.41.06-.41.89,0,1.65.12,2.37.12.26,0,.51,0,.89,0s.57,0,.6.16A3.37,3.37,0,0,0,108,42c.89,1.23,3.52,4.4,7.15,8.29.23.22.29.19.29-.09v-3.1a32.79,32.79,0,0,0-.22-4.15c-.16-1.49-.51-1.74-2.06-2.15-.32-.07-.25-.41.07-.41.85,0,1.77.09,2.72.09s1.58-.09,2.28-.09c.38,0,.38.28.06.41a2.16,2.16,0,0,0-1.59,1.77,31.24,31.24,0,0,0-.31,4.68Z" transform="translate(-6.23 -7.5)"/><path class="cls-4" d="M122.41,45.76a25.85,25.85,0,0,0-.13-3.77,1.75,1.75,0,0,0-1.52-1.23c-.25-.07-.22-.41.16-.41,1.26,0,1.83.09,2.78.09.7,0,1.27-.09,2.15-.09.39,0,.39.34.07.41-.54.12-1.27.38-1.39,1.14a22.84,22.84,0,0,0-.16,3.86v2.81a19.15,19.15,0,0,0,.19,3.83c.16.73.82,1,1.58,1.14.28.06.28.41-.09.41-1,0-1.81-.09-2.69-.09s-1.55.09-2.54.09c-.34,0-.38-.35-.06-.41.63-.09,1.36-.41,1.49-1a26.05,26.05,0,0,0,.16-4Z" transform="translate(-6.23 -7.5)"/><path class="cls-4" d="M136.93,50.72c-.57,1.27-.82,2-1,2.41-.48.92-.89,1.27-1,1.27s-.25-.13-.34-.39c-.57-1.48-.76-2.08-1.4-3.89s-1.64-4.4-2.47-6.36-1-2.34-1.83-2.75l-.54-.25c-.29-.13-.35-.41.1-.41,1,0,1.55.09,2.31.09,1,0,1.9-.09,2.85-.09.38,0,.38.31.09.41l-.82.31c-.86.38-.64.92-.19,2.25.92,2.69,1.93,5.19,2.88,7.31.19.44.28.47.5,0,1-2,2.66-6.2,3.11-7.63s.18-1.77-.8-2.12l-.34-.12c-.26-.1-.23-.41.09-.41.89,0,1.68.09,2.44.09s1.58-.09,2.31-.09c.38,0,.35.28.06.41l-.69.31c-.92.38-1.4,1.14-2.6,3.71-.73,1.55-1.49,3.22-2.66,5.94" transform="translate(-6.23 -7.5)"/><path class="cls-4" d="M146.71,45.44a19.52,19.52,0,0,0-.13-3.29c-.12-.82-.82-1.17-1.61-1.36-.35-.1-.32-.44,0-.44,1.05,0,1.77.09,2.75.09H151a17.08,17.08,0,0,0,3-.13.9.9,0,0,1,.32-.12c.06,0,.16.06.13.22a10.74,10.74,0,0,0-.16,2.72c0,.41-.38.47-.45.1a2,2,0,0,0-1.2-1.56,7.63,7.63,0,0,0-2.34-.22h-.82c-.67,0-.73.07-.8.57,0,.29-.06,1.14-.06,2.12v1.71c0,.38,0,.35.67.41H150a11,11,0,0,0,2.79-.19,1.34,1.34,0,0,0,.72-.57c.1-.16.32-.09.29.13a23.49,23.49,0,0,0-.16,3.17.19.19,0,0,1-.38,0A3,3,0,0,0,153,48c-.32-.53-1.11-.72-2.76-.72h-.95c-.47,0-.57,0-.57.41v1.48c0,2.22.06,3,.29,3.33s.92.41,2.18.41a11.07,11.07,0,0,0,2-.13,2,2,0,0,0,1.18-.6,3.94,3.94,0,0,0,.56-1.17c.1-.25.42-.22.42,0a18.52,18.52,0,0,1-.32,2.47c-.1.41-.28.44-1.14.44s-5-.09-6.55-.09c-.92,0-1.74.09-2.91.09-.35,0-.35-.37-.1-.41,1.08-.22,2.06-.41,2.28-1.3a18,18,0,0,0,.16-3.41Z" transform="translate(-6.23 -7.5)"/><path class="cls-4" d="M161.4,43.54a9.79,9.79,0,0,1,.09-2.06c.06-.22.13-.31.57-.31a3.39,3.39,0,0,1,3.48,3.58,2.25,2.25,0,0,1-2.4,2.37c-.67,0-1,0-1.46,0-.25,0-.28-.12-.28-.47Zm-2,6.05c0,1.23-.09,2-.12,2.47-.13.91-.42,1.16-1.62,1.48-.35.09-.28.41.06.41.89,0,1.87-.09,2.82-.09s1.84.09,2.69.09c.38,0,.38-.32,0-.41-1.39-.38-1.61-.66-1.8-1.68a10.17,10.17,0,0,1-.09-1.74V48.79c0-.6,0-.66.19-.66.5,0,1-.06,1.45-.09s.57,0,.86.63a16,16,0,0,0,2.94,4.43,4.94,4.94,0,0,0,3.1,1,4.14,4.14,0,0,0,1.33-.19c.09,0,.06-.22-.06-.25a5.51,5.51,0,0,1-2-1.11,16.22,16.22,0,0,1-3.73-5.12c-.13-.29-.07-.38.09-.48l.63-.41a3.26,3.26,0,0,0,1.33-2.69c0-.92-.22-3.71-5-3.58a42.94,42.94,0,0,0-5,.41c-.38.07-.41.38,0,.41a3.36,3.36,0,0,1,1.52.38,1.41,1.41,0,0,1,.26.7c0,.54.12,1.3.12,2.44Z" transform="translate(-6.23 -7.5)"/><path class="cls-4" d="M179.72,40.66a.79.79,0,0,1,.35.67,2.73,2.73,0,0,1-.1.57,9.17,9.17,0,0,0-.09,1.23c0,.35-.42.35-.45,0a2.09,2.09,0,0,0-.57-1.11,2.69,2.69,0,0,0-2.15-1,1.81,1.81,0,0,0-1.86,2c0,1.74,1.29,2.4,2.62,2.87,1.87.67,3.48,1.37,3.48,3.65a4.53,4.53,0,0,1-2,3.6,5.27,5.27,0,0,1-3.13,1.08,5,5,0,0,1-2.44-.57,2.26,2.26,0,0,1-1-1.2,1.09,1.09,0,0,1,.25-.8c.16-.25.41-1,.54-1.23s.38-.19.41.1a2,2,0,0,0,.22.94,3.59,3.59,0,0,0,3,1.62,2.15,2.15,0,0,0,2.34-2.44c0-1.67-1.23-2.47-2.91-3.07-2.16-.76-3.17-1.77-3.17-3.41a3.71,3.71,0,0,1,1.2-2.73,4.82,4.82,0,0,1,3.33-1.39,3.47,3.47,0,0,1,2.12.6" transform="translate(-6.23 -7.5)"/><path class="cls-4" d="M185.19,45.76a28,28,0,0,0-.12-3.77,1.75,1.75,0,0,0-1.52-1.23c-.26-.07-.23-.41.16-.41,1.26,0,1.83.09,2.78.09.7,0,1.27-.09,2.15-.09.38,0,.38.34.07.41-.54.12-1.27.38-1.4,1.14a22.84,22.84,0,0,0-.16,3.86v2.81a19.15,19.15,0,0,0,.19,3.83c.16.73.83,1,1.59,1.14.28.06.28.41-.1.41-1,0-1.8-.09-2.69-.09s-1.55.09-2.53.09c-.35,0-.38-.35-.06-.41.63-.09,1.36-.41,1.48-1a26.05,26.05,0,0,0,.16-4Z" transform="translate(-6.23 -7.5)"/><path class="cls-4" d="M199.85,40.44c1.17,0,1.83,0,2.27,0a3.19,3.19,0,0,0,1.59-.51c.19-.12.41,0,.34.19a8.89,8.89,0,0,0-.41,2.85c0,.29-.31.35-.44.06A1.8,1.8,0,0,0,202,41.67a12.29,12.29,0,0,0-2.76-.22c-.41,0-.44.1-.47.35a27.06,27.06,0,0,0-.13,3.48v3a30.3,30.3,0,0,0,.1,3.67c.16,1,.69,1.17,1.93,1.58.32.1.28.41-.13.41-1.07,0-1.9-.09-3.13-.09-.95,0-1.65.09-2.94.09-.39,0-.39-.31-.07-.41,1.11-.32,2-.44,2.09-1.3a26.26,26.26,0,0,0,.19-3.79V45.31c0-2.24-.06-3-.06-3.22,0-.54-.07-.64-.48-.64a10.77,10.77,0,0,0-3.42.35,2.55,2.55,0,0,0-.91,1.33c-.1.32-.45.25-.45-.09s.19-1.56.19-2.89c0-.37.22-.41.42-.22a1.58,1.58,0,0,0,.79.38,12.39,12.39,0,0,0,2.75.13Z" transform="translate(-6.23 -7.5)"/><path class="cls-4" d="M212.29,50.16a6.31,6.31,0,0,0,.22,2.27c.19.57.61.79,1.65,1.11.28.1.28.41-.1.41-.85,0-1.86-.09-2.75-.09-1,0-1.87.09-2.91.09-.35,0-.38-.31-.1-.41a3.56,3.56,0,0,0,1.74-.85,4.42,4.42,0,0,0,.32-2.22V48.86A2.45,2.45,0,0,0,210,47.5a44,44,0,0,0-2.56-4.5c-1.07-1.64-1.2-1.93-2.18-2.24-.32-.1-.35-.41,0-.41.88,0,1.77.09,2.37.09.85,0,1.49-.09,2.44-.09.38,0,.38.31.09.41-1.17.41-1.39.47-.82,1.58a40.94,40.94,0,0,0,2.4,4.14c.16.23.26.16.42-.09a28.25,28.25,0,0,0,2.21-4c.45-1,.16-1.24-.82-1.58-.25-.07-.22-.41.19-.41.85,0,1.45.09,2.28.09.6,0,1.26-.09,2-.09.31,0,.38.31.06.41a4.35,4.35,0,0,0-2.56,2,35.79,35.79,0,0,0-2.88,4.43,2.84,2.84,0,0,0-.35,1.33Z" transform="translate(-6.23 -7.5)"/></g></svg>