<svg id="Layer_1" data-name="Layer 1" xmlns="http://www.w3.org/2000/svg" viewBox="0 0 63.89 66.04"><defs><style>.cls-1{fill:#033f78;}</style></defs><path class="cls-1" d="M49.79,5.6a4.11,4.11,0,0,1,3-2.31c-1.65,0-6.93.79-7.41,6a7.17,7.17,0,0,0,1.19,4.37,5.09,5.09,0,0,1-2.12-3.38A9.56,9.56,0,0,1,45,7.12c-1.27,1.5-2.62,3.37-2.33,5.91.28,2.36,1.85,4,2.92,5.29a6.37,6.37,0,0,1-2-1.52c.23,2.84,1.12,5,3.11,6.09-2.54-.24-3-2-3.77-4a8.93,8.93,0,0,0-2.12-3,3.83,3.83,0,0,1,2.45,1.85c-.38-2.45-2.14-3.51-4.64-3.84,1.06-1,2.81,0,3.63.44a8.23,8.23,0,0,0-1-1.5c-1.22-1.31-3.89-1-5.49-.46a3.27,3.27,0,0,1,3.51-1.39,5.27,5.27,0,0,0-3.18-1.33,8,8,0,0,0-5.23,1.92c.27-1.45,1.44-2,2.51-2.65-3.75-.62-5.65,1.72-6.88,4a5.35,5.35,0,0,1,1.13-3c-4.59,1.89-3.92,7.07-3.92,7.07-.84-.51-.82-2.42-.53-3.31a6.22,6.22,0,0,0-1,3.21,8.29,8.29,0,0,0,1.31,3.94c-1.38-.19-2.24-2.95-2.24-2.95-.75,3.88,2.56,7,2.56,7-1.49-.15-2.77-2-2.77-2A9,9,0,0,0,25,28.7a4.53,4.53,0,0,1-2.6-.84,11.57,11.57,0,0,0,3.21,4.36c-1.17.05-2.42-1.37-2.42-1.37A8.48,8.48,0,0,0,23.82,34c-1.21-.43-1.56-2.15-1.56-2.15a5.73,5.73,0,0,0-.79,3.42,2.92,2.92,0,0,1-1.08-2.41c-1.14.57-1.8,2.83-1.8,2.83a3.71,3.71,0,0,1,0-2.66A5,5,0,0,0,16,35.33a5.34,5.34,0,0,1,.63-2.49c-1.24,0-2.31,1.81-2.31,1.81a3.58,3.58,0,0,1,.89-2.46,3.48,3.48,0,0,0-2.55,1.33,2.93,2.93,0,0,1,1.16-2.35,2.77,2.77,0,0,0-2.54.94c-.2-1.42,1.34-2.41,1.34-2.41a2.69,2.69,0,0,0-2.43.54C10.08,28.79,11.69,28,11.69,28a2.48,2.48,0,0,0-2.28,0c.22-1.19,1.69-1.5,1.69-1.5A2.74,2.74,0,0,0,9,25.59c.41-1,1.78-.86,1.78-.86a3.72,3.72,0,0,0-1.86-1.25,1.92,1.92,0,0,1,1.82-.2,3.22,3.22,0,0,0-1.53-1.64A2.34,2.34,0,0,1,11.1,22,3.52,3.52,0,0,0,10,20.14a3,3,0,0,1,1.88.86,4.61,4.61,0,0,0-.56-1.79A4.5,4.5,0,0,1,13,20.41a2.3,2.3,0,0,0-.12-1.22,6.61,6.61,0,0,1,3.24,3,4.67,4.67,0,0,0-4.23-4.23c-4.1-.36-6.71,4.29-6.7,7.69A15.15,15.15,0,0,0,8.33,34.8a15.24,15.24,0,0,0,9,6c-1.06.34-2.06,1.19-2.06,2.17a5.44,5.44,0,0,1,3.89,1.84h6.07a24.35,24.35,0,0,0,3.28-.13c1.12-.24,1.65-2.76,3-2.71s.94,2.19-.2,2.25c-.37,0-.54-.16-.86-.27,1.21,2.88,4.78-.37,3.11-2.38A1.46,1.46,0,0,1,34,44.4c2.12.2,2.73-1.91,1.76-3.43s-2.91-1.23-4.47-.5a15.18,15.18,0,0,1-4,1.43,3.59,3.59,0,0,1-2.19-.26c-1.58-.94,1.24-2.5,1.92-2.92,2.51-1.52,5.18-3.34,5.44-6.95.19-2.7-.82-4.1-1.66-5.76a11.26,11.26,0,0,1-1.52-4.51A3.68,3.68,0,0,1,33,17.4c3,.13,4.57,2.53,4.77,5.56a31.09,31.09,0,0,1-.26,3.84c-.34,5,2.07,7.61,4.76,9.94a28.83,28.83,0,0,0,8,4.83c.21,1.94,1.39,4.07,3.71,3,1.2,2.06,5.66,1.68,5-1.33-.29-1.4-2.36-1.6-2.21-3.2a1.25,1.25,0,0,1,1.75-.9c.85.29,1.26,1.59,1.19,2.51,1.34-2.23,0-5.48-2.78-4.83-1.4.33-2.78,2.78-2.78,2.78-1.78-1-3.48-1.91-3.48-1.91,4.08-.21,6.67-2,8.18-4.78,2,.46,3.31-.9,2.78-2.52,0,0,1.73.53,1.92,1.94s-1.68,1.74-2.75,1c0,0,.9,2.16,2.63,1.73s1.55-2.25,1.17-3-1.94-2.12-1.53-3.05,2.28-.3,2,2.11c1.37-1.92.16-5-2.06-5-1.64,0-2.29,1.4-2.71,2.85a2.09,2.09,0,0,0-1.13-.07c-.34-2.32-1.81-3.84-4.17-4.77-2.11-.82-4.17-2.26-4.37-4.57a2.26,2.26,0,0,1,1.06-2.38c2.12-1.08,3.54,1.25,3.91,2.78a4.65,4.65,0,0,1,1.45-3.57,3.57,3.57,0,0,0-3.57-1.79,7.12,7.12,0,0,0-2.29.77c.55-1.25,1.5-3.45,3.61-3.55,1.71-.09,2.55,1.42,3,2.91a10.43,10.43,0,0,1,3.18-6.23c-1.63,1-2.47-1.05-4-1.05-2.24,0-3.33,2.47-5.23,2.71a2.35,2.35,0,0,1-1.73-.73c-.6-.48-1.08-2-.26-4m7.49,2.9c.57,0,1.13.36,1.12.82,0,.69-.67.86-1.19.81-.69-.07-1-.47-1-.88s.51-.77,1.07-.75M47.93,31.3a2.38,2.38,0,0,1-1.72-.46c-1.38-1.06-2-3.91-2.05-6.09C44.75,26,45.69,28,47.4,27.46a3.83,3.83,0,0,0,1.28-.95c.53,1.45,1,4.47-.75,4.79m1.75-18.5c-.77-.3-.55-2.69-.55-2.69a1.74,1.74,0,0,0,2.58,1.19s-1.14,1.84-2,1.5m7.63,31.27c-.68,1.11-2.54-.12-2.54-.12a3,3,0,0,0,1-2c.94.07,2.27,1,1.55,2.15m-4.47-1.66s-.19,1-.79.73-.74-1.21-.74-1.21a9.05,9.05,0,0,0,1.53.48m6.22-10.18a5.15,5.15,0,0,0,.13-1.72.87.87,0,0,1-.13,1.72" transform="translate(-3.87 -3.29)"/><path class="cls-1" d="M3.87,60.62a9,9,0,0,0,1.73-.27,1.09,1.09,0,0,0,.73-1.16V47.06a1.17,1.17,0,0,0-.73-1.21A5.41,5.41,0,0,0,4,45.45v-.52h7.83c3.32,0,8.93,1.71,8.93,8.21,0,5.53-4.73,8-9.4,8H3.87Zm13.24-7.5c0-4.32-2.26-7.48-5.82-7.48-.49,0-1.33,0-1.8,0v13c.07,1.11.74,1.71,2.28,1.71,3.72,0,5.34-3,5.34-7.31" transform="translate(-3.87 -3.29)"/><path class="cls-1" d="M21.4,60.66a3.31,3.31,0,0,0,1-.19c.45-.14.61-.52.61-1V52.52a1.65,1.65,0,0,0-.62-1.25,2.5,2.5,0,0,0-1.18-.38v-.46l4.37-.28.16.17v1.61h.05A4.11,4.11,0,0,1,29,50.06a1.73,1.73,0,0,1,1.73,1.75,1.57,1.57,0,0,1-1.5,1.73c-.88,0-1.49-.42-1.49-1.3,0-.33.19-.62.21-.93a2.76,2.76,0,0,0-2.16,1.36v6.64a1.09,1.09,0,0,0,.64,1.07,6.25,6.25,0,0,0,1.57.28v.48H21.4Z" transform="translate(-3.87 -3.29)"/><path class="cls-1" d="M30.8,55.66C30.8,52.71,32.68,50,36,50s4.65,2.18,4.65,4.63v.26H33.74v.26c0,2.94.95,5.08,3.4,5.08,1.66,0,2.44-.6,3.32-2.14l.45.31a5.19,5.19,0,0,1-4.67,3c-3.73,0-5.44-2.61-5.44-5.79m7-1.4c0-1.76-.22-3.68-1.83-3.68-1.31,0-2.11,1.42-2.19,3.72Z" transform="translate(-3.87 -3.29)"/><path class="cls-1" d="M48.91,52a1.06,1.06,0,0,0,.21-.52c0-.34-1-.6-1.3-.67v-.47H52v.45a4.61,4.61,0,0,0-2.3,1.4c-.31.35-1.31,1.61-2.18,2.7.92,1.36,2.56,4,3,4.58a2.32,2.32,0,0,0,1.8,1.19v.5H46.51v-.5c.57,0,1.26-.21,1.26-.47a2,2,0,0,0-.28-.65c-.69-1.16-1.24-1.94-1.83-2.87-.64.76-1.66,2.12-2.16,2.83a1,1,0,0,0-.19.52c0,.33,1.09.59,1.4.66v.48H40.56v-.45a4.17,4.17,0,0,0,2.18-1.4c.33-.38,1.61-2,2.56-3.16-.57-.83-1.94-2.92-2.82-4.25a2,2,0,0,0-1.73-1.07v-.49H46.3v.49c-.47,0-1.12.15-1.12.34a1.27,1.27,0,0,0,.22.52c.16.31.92,1.52,1.73,2.7.59-.73,1.33-1.75,1.78-2.39" transform="translate(-3.87 -3.29)"/><path class="cls-1" d="M51.83,55.66c0-2.95,1.87-5.65,5.22-5.65s4.65,2.18,4.65,4.63v.26H54.77v.26c0,2.94.95,5.08,3.4,5.08,1.66,0,2.44-.6,3.32-2.14l.45.31a5.2,5.2,0,0,1-4.68,3c-3.72,0-5.43-2.61-5.43-5.79m7-1.4c0-1.76-.21-3.68-1.82-3.68-1.31,0-2.12,1.42-2.19,3.72Z" transform="translate(-3.87 -3.29)"/><path class="cls-1" d="M61.7,60.66a3.09,3.09,0,0,0,1-.19,1,1,0,0,0,.64-1V46a1.77,1.77,0,0,0-.64-1.38,4.88,4.88,0,0,0-1.66-.45v-.48l4.84-.26.17.17V59.29a1.09,1.09,0,0,0,.64,1.09,3.47,3.47,0,0,0,1,.28v.48h-6Z" transform="translate(-3.87 -3.29)"/><path class="cls-1" d="M6.14,67.66v-3a.38.38,0,0,0-.24-.38,1.86,1.86,0,0,0-.53-.13V64H8v.17a2.54,2.54,0,0,0-.55.1.34.34,0,0,0-.23.37v3c0,.79.28,1.41,1.31,1.41a1.31,1.31,0,0,0,1.41-1.43V65.41c0-.6-.09-.91-.26-1a2,2,0,0,0-.75-.24V64h2.26v.17a2,2,0,0,0-.7.19c-.19.13-.25.48-.25,1v2.22a1.78,1.78,0,0,1-1.95,1.74c-1.38,0-2.1-.73-2.1-1.67" transform="translate(-3.87 -3.29)"/><path class="cls-1" d="M13.67,65v2.7c0,.59.1.91.26,1.05a2.42,2.42,0,0,0,.76.25v.17H12.42V69a2.73,2.73,0,0,0,.71-.21c.18-.13.24-.46.24-1V65.1a.83.83,0,0,0-.23-.61,1.9,1.9,0,0,0-.78-.34V64h1.73l3,3.81V65.42c0-.57-.09-.92-.26-1a2.44,2.44,0,0,0-.75-.24V64h2.26v.17a2.24,2.24,0,0,0-.71.2c-.18.13-.24.5-.24,1v3.87H17Z" transform="translate(-3.87 -3.29)"/><path class="cls-1" d="M19.9,69a3,3,0,0,0,.56-.09.34.34,0,0,0,.23-.36V64.65a.33.33,0,0,0-.23-.36,2.73,2.73,0,0,0-.56-.15V64h2.6v.17a3.69,3.69,0,0,0-.56.11.34.34,0,0,0-.23.37v3.93a.35.35,0,0,0,.23.36,3.86,3.86,0,0,0,.56.13v.17H19.9Z" transform="translate(-3.87 -3.29)"/><path class="cls-1" d="M24.61,64.71a.67.67,0,0,0-.34-.42,1.17,1.17,0,0,0-.5-.15V64h2.58v.17c-.42,0-.73.13-.73.28a.65.65,0,0,0,0,.19c.09.26.74,2.14,1.21,3.44.35-.81.83-2,1-2.39a4.27,4.27,0,0,0,.36-1.13c0-.23-.5-.36-.88-.38V64H29.4v.18a1.34,1.34,0,0,0-.5.14,1.38,1.38,0,0,0-.43.61l-1.82,4.37h-.41c-.53-1.51-1.44-4-1.63-4.56" transform="translate(-3.87 -3.29)"/><path class="cls-1" d="M30.57,69a5,5,0,0,0,.6-.1.35.35,0,0,0,.23-.38v-3.9a.34.34,0,0,0-.23-.37,2.77,2.77,0,0,0-.6-.15V64h4.35v1.27h-.21c-.09-.34-.49-1-.85-1a6.05,6.05,0,0,0-.63,0h-.81v2.19H33a.79.79,0,0,0,.66-.23,1.68,1.68,0,0,0,.26-.71h.2v2.15h-.2a2,2,0,0,0-.26-.75.77.77,0,0,0-.66-.23h-.58V68.3c0,.6.13.68.87.68a2.17,2.17,0,0,0,1.19-.18,4.47,4.47,0,0,0,.66-1.13h.19l-.1,1.54H30.57Z" transform="translate(-3.87 -3.29)"/><path class="cls-1" d="M40.5,68c-.08-.71-.24-1.33-1-1.33H39v1.87a.37.37,0,0,0,.23.38,4.11,4.11,0,0,0,.55.11v.17H37.2V69a4.27,4.27,0,0,0,.57-.09.36.36,0,0,0,.23-.39V64.65a.36.36,0,0,0-.23-.39,3.86,3.86,0,0,0-.57-.12V64h2.73c1,0,1.8.35,1.8,1.19s-.79,1.19-1.41,1.36v.06a1.25,1.25,0,0,1,1.13.79c.12.43.16.76.25,1.12s.23.36.37.36.36-.22.36-.69V68h.21v.16c0,.68-.28,1.13-1.05,1.13s-1-.37-1.08-1.28m-1.16-1.56c.67,0,1.25-.26,1.25-1.15a1,1,0,0,0-1.08-1.11H39v2.26Z" transform="translate(-3.87 -3.29)"/><path class="cls-1" d="M45,68.92l-.26.36h-.26l0-1.86h.18c.3.78.85,1.65,1.74,1.65a.89.89,0,0,0,1-.95,1,1,0,0,0-.79-1c-.39-.14-.7-.25-1-.4a1.42,1.42,0,0,1-.92-1.41,1.52,1.52,0,0,1,1.65-1.48,2.31,2.31,0,0,1,1.21.36l.23-.33h.27l0,1.78h-.17c-.35-1-.8-1.57-1.6-1.57a.78.78,0,0,0-.78.81c0,.46.25.73.74,1s.72.27,1,.4a1.43,1.43,0,0,1,1,1.44,1.67,1.67,0,0,1-1.84,1.61A2.29,2.29,0,0,1,45,68.92" transform="translate(-3.87 -3.29)"/><path class="cls-1" d="M50.19,69a2.87,2.87,0,0,0,.55-.09.34.34,0,0,0,.24-.36V64.65a.33.33,0,0,0-.24-.36,2.64,2.64,0,0,0-.55-.15V64h2.6v.17a3.69,3.69,0,0,0-.56.11.34.34,0,0,0-.23.37v3.93a.35.35,0,0,0,.23.36,3.57,3.57,0,0,0,.56.13v.17h-2.6Z" transform="translate(-3.87 -3.29)"/><path class="cls-1" d="M55.62,69a3.78,3.78,0,0,0,.63-.1.37.37,0,0,0,.23-.39V64.19h-.27c-.17,0-.41,0-.59,0s-.74.79-.83,1.12H54.6V64h4.79v1.37H59.2c-.1-.33-.51-1.07-.84-1.12a5.54,5.54,0,0,0-.59,0H57.5v4.33a.38.38,0,0,0,.24.38,4.41,4.41,0,0,0,.62.14v.17H55.62Z" transform="translate(-3.87 -3.29)"/><path class="cls-1" d="M62,69a5.3,5.3,0,0,0,.63-.09.37.37,0,0,0,.23-.39v-1.2a1.29,1.29,0,0,0-.22-.69c-.27-.54-.77-1.45-1-1.88a1.5,1.5,0,0,0-.47-.52,1.28,1.28,0,0,0-.49-.13V64h2.7v.17c-.27,0-.76.08-.76.25a21.42,21.42,0,0,0,1.18,2.28A18.3,18.3,0,0,0,65,64.48c0-.23-.44-.32-.78-.34V64h2v.17a1.43,1.43,0,0,0-.44.15,1.4,1.4,0,0,0-.48.46c-.23.32-.8,1.29-1.13,1.88a1.62,1.62,0,0,0-.26.94v1a.39.39,0,0,0,.24.39,3.37,3.37,0,0,0,.62.13v.17H62Z" transform="translate(-3.87 -3.29)"/></svg>