<svg id="Layer_1" data-name="Layer 1" xmlns="http://www.w3.org/2000/svg" viewBox="0 0 337.95 35.42"><defs><style>.cls-1{fill:#231f20;}</style></defs><title>ccp1line</title><path class="cls-1" d="M227.34,13c0-2.37-.05-2.37-2.31-2.73V9.69h7.49c2.95,0,4.87,1.61,4.87,4.44,0,4.54-3.6,4.54-6.58,4.54H230v7.17h-2.64ZM230,17.54h1.24c1.9,0,3.53-.63,3.53-3.51,0-2.68-1.27-3.21-3.41-3.21-1.29,0-1.36.45-1.36,1.44Z"/><path class="cls-1" d="M239,12.31c0-1.71-.41-2.12-1.88-2.19V9.64l4.28-.6v8.47h0c.41-1,1.56-3.09,4-3.09,2.73,0,3,2.3,3,4v7.41H246v-7c0-1.18,0-2.74-1.75-2.74-1.4,0-2.83,1.9-2.83,4.08v5.71H239Z"/><path class="cls-1" d="M251.55,17.8c0-1.68-.38-2.09-1.85-2.13v-.48l4.25-.77V25.84h-2.4ZM251.29,11a1.5,1.5,0,0,1,1.51-1.49A1.52,1.52,0,0,1,254.33,11a1.55,1.55,0,0,1-1.56,1.51A1.5,1.5,0,0,1,251.29,11Z"/><path class="cls-1" d="M257,12.31c0-1.71-.41-2.12-1.82-2.19V9.64l4.22-.6v16.8H257Z"/><path class="cls-1" d="M267.56,24.43a3.77,3.77,0,0,1-3.1,1.68,3,3,0,0,1-3.21-2.76c0-3.39,4.77-3.65,6.31-3.7V18.43c0-1.52,0-3.2-1.51-3.2s-1.68,1.4-1.68,2.45h-2.86c.26-1.58,1.06-3.26,4.51-3.26S270,16.17,270,18.55v7.29h-2.4Zm0-3.92c-.87,0-3.67.15-3.67,2.43,0,1.1.55,1.87,1.44,1.87,1.39,0,2.23-1.27,2.23-2.9Z"/><path class="cls-1" d="M279.44,24.5a4.59,4.59,0,0,1-3.31,1.61c-3.12,0-4.3-2.62-4.3-5.62s1.23-6.07,4.39-6.07a3.27,3.27,0,0,1,3.17,1.8h.05V12.31c0-1.71-.38-2.12-1.8-2.19V9.64l4.2-.6v16.8h-2.4Zm0-4.95c0-1.34-.27-3.84-2.55-3.84s-2.42,2.76-2.42,4.44c0,1.85.19,4.66,2.45,4.66s2.52-3,2.52-4.27Z"/><path class="cls-1" d="M293.05,25.46a9.56,9.56,0,0,1-3.39.65c-3.67,0-5.88-2.24-5.88-6.24,0-3.8,1.83-5.45,5-5.45,4.11,0,4.44,3,4.44,4.58h-6.84c0,2.4,1,5.81,4.37,5.81a6.25,6.25,0,0,0,2.26-.41ZM290.86,18c0-.55-.05-2.81-2.13-2.81-1.8,0-2.31,1.9-2.31,2.81Z"/><path class="cls-1" d="M295,12.31c0-1.71-.41-2.12-1.83-2.19V9.64l4.23-.6v16.8H295Z"/><path class="cls-1" d="M300.73,17.8c0-1.68-.39-2.09-1.88-2.13v-.48l4.3-.77v1.94h.05a4.16,4.16,0,0,1,3.1-1.94c3,0,4.17,2.64,4.17,5.66s-.82,6-4.27,6a3.14,3.14,0,0,1-3-1.76h0v6.39h-2.4Zm2.4,3.22c0,1.32.26,3.79,2.4,3.79s2.3-2.95,2.3-4.73-.19-4.37-2.33-4.37-2.37,3.05-2.37,4.32Z"/><path class="cls-1" d="M312.37,12.31c0-1.71-.41-2.12-1.88-2.19V9.64l4.28-.6v8.47h0c.41-1,1.56-3.09,4-3.09,2.73,0,2.95,2.3,2.95,4v7.41h-2.4v-7c0-1.18,0-2.74-1.75-2.74-1.39,0-2.83,1.9-2.83,4.08v5.71h-2.4Z"/><path class="cls-1" d="M324.94,17.8c0-1.68-.38-2.09-1.85-2.13v-.48l4.25-.77V25.84h-2.4ZM324.68,11a1.5,1.5,0,0,1,1.51-1.49A1.52,1.52,0,0,1,327.73,11a1.55,1.55,0,0,1-1.56,1.51A1.5,1.5,0,0,1,324.68,11Z"/><path class="cls-1" d="M335.55,24.43a3.77,3.77,0,0,1-3.1,1.68,3,3,0,0,1-3.21-2.76c0-3.39,4.77-3.65,6.31-3.7V18.43c0-1.52,0-3.2-1.51-3.2s-1.68,1.4-1.68,2.45H329.5c.27-1.58,1.06-3.26,4.51-3.26S338,16.17,338,18.55v7.29h-2.4Zm0-3.92c-.86,0-3.67.15-3.67,2.43,0,1.1.55,1.87,1.44,1.87,1.39,0,2.23-1.27,2.23-2.9Z"/><path class="cls-1" d="M203.8,15.59A13.67,13.67,0,0,1,200,23.76c-2.23,2.3-4.17,2.48-5.14,2.48-2.31,0-3.82-1.69-3.6-4.78a13.47,13.47,0,0,1,3.92-8.07,7,7,0,0,1,5-2.34C202.69,11.05,204,13,203.8,15.59Zm-6.55-1.73a20.81,20.81,0,0,0-3.6,9c-.07,1.26.43,2.3,1.48,2.3.79,0,1.69-.32,2.84-1.87a22.21,22.21,0,0,0,3.35-8.78c0-1.12-.18-2.38-1.44-2.38C199.16,12.13,198.29,12.46,197.25,13.86Z"/><path class="cls-1" d="M212.44,12.89c-.21.61-.5,1.76-.83,2.84-1.15,4-2.19,8-3.38,12-1,3.24-2.09,5.22-2.84,5.91a6.17,6.17,0,0,1-4.11,1.83,2.17,2.17,0,0,1-2.34-1.83,1.44,1.44,0,0,1,.69-1.3c.5-.43.75-.14,1,.33A2.78,2.78,0,0,0,202.83,34c.65,0,1.51-.54,2.27-3,1.83-6,3-12.2,4.75-18.07h-3a.9.9,0,0,1,.25-1.33h3.1c.93-3.24,1.87-6.05,4-8.57a7.73,7.73,0,0,1,6-3c1.52,0,3,.94,3,2.38,0,1.11-1,2.23-1.55,2.23-.33,0-.47-.33-.51-.58-.1-2.16-1.26-2.81-2.19-2.81s-2,.72-2.81,2c-1.69,2.41-2.41,5.33-3.38,8.39h4.5a1,1,0,0,1-.37,1.33Z"/><path class="cls-1" d="M11.74,24.61a14.25,14.25,0,0,1-4.92.89C1.9,25.5,0,22.35,0,17c0-4.44,1.32-8.16,6.67-8.16,3.75,0,5.21,1.63,5.47,3.55H9.26A2.64,2.64,0,0,0,6.46,10c-3.29,0-3.82,4-3.82,6.43,0,2.69.29,8,4.92,8a7.16,7.16,0,0,0,4.18-1.3Z"/><path class="cls-1" d="M12.84,19.67c0-4,1.68-5.86,5.18-5.86s5.19,2.4,5.19,5.86c0,3.91-1.63,5.83-5.19,5.83C14.16,25.5,12.84,23,12.84,19.67Zm5.18,5c2.36,0,2.55-2.61,2.55-5,0-2.21-.22-5.05-2.55-5.05s-2.54,2.93-2.54,5.05S15.65,24.68,18,24.68Z"/><path class="cls-1" d="M25.44,17.19c0-1.68-.38-2.08-1.85-2.13v-.48l4.3-.77v2.86h.05c.4-.84,1.51-2.86,3.67-2.86a2.8,2.8,0,0,1,3,2.69h0c.5-.94,1.41-2.69,3.57-2.69,3,0,3,2.78,3,4.49v6.93h-2.4V18.68c0-1.49,0-3.24-1.61-3.24-1.82,0-2.68,2.52-2.68,4.25v5.54h-2.4V19c0-1.9,0-3.58-1.61-3.58s-2.69,2.23-2.69,3.94v5.85h-2.4Z"/><path class="cls-1" d="M44.18,17.19c0-1.68-.38-2.08-1.84-2.13v-.48l4.29-.77v2.86h0c.41-.84,1.51-2.86,3.67-2.86A2.8,2.8,0,0,1,53.3,16.5h.05c.51-.94,1.42-2.69,3.58-2.69,3,0,3,2.78,3,4.49v6.93h-2.4V18.68c0-1.49,0-3.24-1.61-3.24-1.83,0-2.69,2.52-2.69,4.25v5.54h-2.4V19c0-1.9,0-3.58-1.61-3.58s-2.69,2.23-2.69,3.94v5.85h-2.4Z"/><path class="cls-1" d="M70,22.52h0a4.05,4.05,0,0,1-3.72,3c-3.21,0-3.21-3.12-3.21-4.9V17.19c0-1.68-.39-2.08-1.85-2.13v-.48l4.25-.77V21c0,2.19.81,2.84,2,2.84,1.56,0,2.61-2,2.61-4V17.19c0-1.68-.41-2.08-1.85-2.13v-.48l4.25-.77V25.23H70Z"/><path class="cls-1" d="M75.55,17.19c0-1.68-.41-2.08-1.92-2.13v-.48L78,13.81v3.07h0c.36-.84,1.63-3.07,4-3.07,2.18,0,2.9,1.54,2.9,3.38v8h-2.4V19c0-1.9,0-3.58-1.61-3.58s-3,2.23-3,3.94v5.85h-2.4Z"/><path class="cls-1" d="M88.18,17.19c0-1.68-.39-2.08-1.85-2.13v-.48l4.25-.77V25.23h-2.4Zm-.27-6.79a1.5,1.5,0,0,1,1.51-1.49A1.52,1.52,0,0,1,91,10.4a1.55,1.55,0,0,1-1.56,1.51A1.5,1.5,0,0,1,87.91,10.4Z"/><path class="cls-1" d="M99.46,25.31a9.82,9.82,0,0,1-1.61.19c-2.31,0-3.65-.36-3.65-3.1V15H92.33v-1H94.2V12.18L96.6,10v4h3.14v1H96.6v7c0,1.68.12,2.42,2,2.42a3.84,3.84,0,0,0,.89-.09Z"/><path class="cls-1" d="M106.56,26.15c-.74,1.92-1.58,4-4.2,4A3.15,3.15,0,0,1,99,27.06h2.76c0,.72.12,1.77,1.28,1.77s1.58-1.22,1.92-2.08l.31-.82-3.87-9.22c-.57-1.41-.91-2.09-2.56-2.16v-.48h4.08l3.55,8.84,3.45-8.84h1.37Z"/><path class="cls-1" d="M129.48,24.61a14.2,14.2,0,0,1-4.92.89c-4.92,0-6.82-3.15-6.82-8.52,0-4.44,1.32-8.16,6.68-8.16,3.74,0,5.2,1.63,5.47,3.55H127A2.65,2.65,0,0,0,124.2,10c-3.29,0-3.82,4-3.82,6.43,0,2.69.29,8,4.92,8a7.13,7.13,0,0,0,4.18-1.3Z"/><path class="cls-1" d="M130.58,19.67c0-4,1.68-5.86,5.19-5.86s5.18,2.4,5.18,5.86c0,3.91-1.63,5.83-5.18,5.83C131.9,25.5,130.58,23,130.58,19.67Zm5.19,5c2.35,0,2.54-2.61,2.54-5,0-2.21-.21-5.05-2.54-5.05s-2.55,2.93-2.55,5.05S133.39,24.68,135.77,24.68Z"/><path class="cls-1" d="M143,11.7c0-1.71-.41-2.11-1.82-2.19V9l4.22-.6v16.8H143Z"/><path class="cls-1" d="M148.39,11.7c0-1.71-.41-2.11-1.82-2.19V9l4.22-.6v16.8h-2.4Z"/><path class="cls-1" d="M162.14,24.85a9.44,9.44,0,0,1-3.38.65c-3.67,0-5.88-2.23-5.88-6.24,0-3.8,1.82-5.45,5-5.45,4.1,0,4.44,3,4.44,4.58h-6.84c0,2.4,1,5.81,4.37,5.81a6.14,6.14,0,0,0,2.25-.41ZM160,17.43c0-.55-.05-2.81-2.14-2.81-1.8,0-2.3,1.9-2.3,2.81Z"/><path class="cls-1" d="M173,25.59c0,2.48-.45,4.76-4.65,4.76-3,0-5-.68-5-3.36H166c0,1,.31,2.54,2.23,2.54,2.33,0,2.33-1.85,2.33-3.17V23.55h-.05a3.07,3.07,0,0,1-3,1.68c-3,0-4.22-2.52-4.22-5.32,0-3.1.93-6.1,4.24-6.1a3.38,3.38,0,0,1,3,1.65h.05V14.07h4.3v.48c-.77,0-1.9.12-1.9,1.71Zm-2.4-7.46c0-1.51-.77-3-2.25-3-2.19,0-2.4,2.71-2.4,4.46s.24,4.37,2.2,4.37,2.45-2.11,2.45-3.44Z"/><path class="cls-1" d="M184.49,24.85a9.56,9.56,0,0,1-3.39.65c-3.67,0-5.88-2.23-5.88-6.24,0-3.8,1.83-5.45,5-5.45,4.11,0,4.44,3,4.44,4.58h-6.84c0,2.4,1,5.81,4.37,5.81a6.25,6.25,0,0,0,2.26-.41Zm-2.19-7.42c0-.55,0-2.81-2.13-2.81-1.8,0-2.31,1.9-2.31,2.81Z"/></svg>