<svg xmlns="http://www.w3.org/2000/svg" height="48.23" viewBox="0 0 249.99999 48.22984" width="250"><path fill="#002664" d="m138.78 1.1197c-0.30957 0-0.49362 0.34174-0.86552 1.2391l-7.7765 19.453c-0.61998 1.5521-1.2073 2.6033-2.6322 2.792-0.24765 0.03096-0.68254 0.05632-0.96243 0.05632-0.24638 0-0.37188 0.06308-0.37188 0.25179 0 0.2468 0.18768 0.31225 0.59054 0.31225 1.6089 0 3.3162-0.09525 3.6551-0.09525 0.95881-0.000001 2.2922 0.09525 3.2815 0.09525 0.34137 0 0.52677-0.06545 0.52677-0.31225 0-0.18871-0.0915-0.25179-0.46382-0.25179h-0.46051c-0.9639 0-1.2432-0.39864-1.2432-0.95332 0-0.37487 0.15502-1.1182 0.46714-1.895l1.6706-4.4303c0.0615-0.18362 0.12304-0.24599 0.27995-0.24599h6.906c0.15648 0 0.25114 0.06307 0.31391 0.217l2.4773 6.5672c0.15436 0.37063-0.0633 0.65202-0.27747 0.71478-0.31211 0.02544-0.43649 0.08875-0.43649 0.27746 0 0.21712 0.37247 0.21713 0.93096 0.24682 2.4761 0.06531 4.7384 0.06543 5.8541 0.06543 1.1475 0 1.4254-0.06545 1.4254-0.31225 0-0.21458-0.15573-0.25179-0.40253-0.25179-0.37064 0-0.83809-0.02549-1.302-0.12175-0.65052-0.15436-1.5482-0.58773-2.725-3.376-1.9834-4.7071-6.9394-17.348-7.6854-19.049-0.30787-0.71497-0.49368-0.9939-0.77441-0.9939zm97.217 0c-0.30957 0-0.49522 0.34174-0.86967 1.2391l-7.7798 19.453c-0.61786 1.5521-1.2044 2.6033-2.6305 2.792-0.24681 0.03096-0.67962 0.05632-0.96077 0.05632-0.24893 0-0.37437 0.06308-0.37437 0.25179 0 0.2468 0.18802 0.31225 0.59385 0.31225 1.6072 0 3.3091-0.09525 3.6518-0.09525 0.95924-0.000001 2.2938 0.09525 3.2848 0.09525 0.33629 0 0.52677-0.06545 0.52677-0.31225 0-0.18871-0.0949-0.25179-0.46465-0.25179h-0.46631c-0.95966 0-1.2366-0.39864-1.2366-0.95332 0-0.37487 0.15213-1.1182 0.46382-1.895l1.6698-4.4303c0.0636-0.18362 0.12595-0.24599 0.28243-0.24599h6.9126c0.1569 0 0.24753 0.06307 0.30563 0.217l2.4814 6.5672c0.1552 0.37063-0.0624 0.65202-0.28161 0.71478-0.3049 0.02544-0.42903 0.08875-0.42903 0.27746 0 0.21712 0.3704 0.21713 0.92847 0.24682 2.4761 0.06531 4.7396 0.06543 5.8566 0.06543 1.1424 0 1.4221-0.06545 1.4221-0.31225 0-0.21458-0.15742-0.25179-0.40253-0.25179-0.37106 0-0.83175-0.02549-1.3012-0.12175-0.64966-0.15436-1.5473-0.58773-2.7241-3.376-1.9838-4.7071-6.9424-17.348-7.6845-19.049-0.30999-0.71497-0.49835-0.9939-0.77441-0.9939zm-79.117 0.15571c-0.30957 0-0.40253 0.43442-0.40253 1.0527l-0.28 18.342c-0.0318 2.6945-0.1543 3.5921-0.95664 3.8398-0.43636 0.12552-0.9948 0.14991-1.3981 0.14991-0.31211 0-0.49529 0.06391-0.49529 0.25262 0 0.27734 0.27713 0.31225 0.68 0.31225 1.611 0 3.0688-0.09691 3.3461-0.09691 0.58945 0 1.8296 0.09691 3.8423 0.09691 0.43551 0 0.71478-0.0646 0.71478-0.31225 0-0.18871-0.18877-0.25262-0.52759-0.25262-0.49531 0-1.0877-0.02415-1.611-0.21286-0.62168-0.21458-1.024-1.0196-1.0842-3.4372l-0.34372-13.01h0.0919c0.55891 0.58903 3.9988 4.4566 7.3723 7.8046 3.2237 3.1911 7.1894 7.2504 9.1431 9.1091 0.33883 0.3401 0.71305 0.68165 1.0519 0.68165 0.27988 0 0.40004-0.28019 0.40004-0.95912l0.34207-19.553c0.0331-1.7332 0.28242-2.3837 1.1488-2.6314 0.37106-0.09372 0.61977-0.09359 0.92765-0.09359 0.37275 0 0.55658-0.09003 0.55658-0.27746 0-0.24765-0.30739-0.27912-0.70898-0.27912-1.5198 0-2.6971 0.09276-3.0372 0.09276-0.65051 0-2.1385-0.09276-3.7487-0.09276-0.46521 0-0.8059 0.03147-0.8059 0.27912 0 0.18786 0.12596 0.27746 0.49447 0.27746 0.43467 0 1.1798-0.000252 1.6432 0.18718 0.74466 0.31084 1.0234 0.89743 1.0552 2.7871l0.30646 13.911h-0.15074c-0.52754-0.49531-4.7089-4.9565-6.8182-7.0658-4.5239-4.4896-9.2278-9.5403-9.6044-9.9448-0.52584-0.55595-0.80451-0.95746-1.1463-0.95746zm36.255 0.09111c-9.2976 0-12.796 6.8459-12.796 12.145 0 5.481 3.5924 12.143 12.484 12.144 7.8677 0 12.824-5.6071 12.824-12.701 0-7.095-4.8008-11.588-12.512-11.588zm-172.15 0.39508-0.38265 0.381 1.8147 1.813 0.38265-0.38017-1.8147-1.8139zm6.4132 0-1.8106 1.8139 0.38099 0.38017 1.8114-1.8114-0.38182-0.38265zm63.478 0.03893c-0.46562 0-0.68082 0.06117-0.68082 0.27829 0 0.21458 0.18582 0.27746 0.52677 0.27746 0.40158 0 0.77693 0.03337 1.0229 0.09359 1.0203 0.21712 1.2691 0.71286 1.3318 1.7667 0.0619 0.99104 0.0621 1.8613 0.0621 6.5689v5.4532c0 2.8497-0.00008 5.2965-0.15571 6.5954-0.1251 0.89986-0.27869 1.5811-0.89782 1.7045-0.27904 0.06658-0.64998 0.12175-1.1181 0.12175-0.36894 0-0.49364 0.09785-0.49364 0.25179 0 0.21542 0.21748 0.31225 0.62119 0.31225 0.61701 0 1.4227-0.0646 2.1377-0.0646 0.74169-0.03223 1.4224-0.0323 1.7642-0.0323 1.2714 0 2.3854 0.03287 3.7793 0.09691 1.3943 0.02799 3.0044 0.08945 5.2354 0.08945 1.6102 0 1.7682-0.15423 1.9522-0.8357 0.24977-0.89732 0.46713-3.2214 0.46713-3.5615 0-0.37402-0.0331-0.52677-0.24847-0.52677-0.24723 0-0.30946 0.18565-0.34041 0.46299-0.0615 0.58775-0.43694 1.4578-0.80672 1.8619-0.77392 0.83541-1.9833 0.86635-3.6228 0.86635-2.418 0-3.2245-0.21726-3.7487-0.68331-0.65221-0.5568-0.65266-2.6954-0.65266-6.6583v-5.454c0-4.7075 0.00019-5.5778 0.0629-6.5689 0.0628-1.0852 0.30837-1.611 1.1455-1.7667 0.37105-0.06022 0.8683-0.09359 1.2092-0.09359 0.37021 0 0.55742-0.06289 0.55742-0.27746 0-0.21712-0.21713-0.27829-0.65349-0.27829-1.2056 0-3.4696 0.09194-4.2108 0.09194-0.83753 0-2.7881-0.09194-4.2456-0.09194zm18.375 0c-0.46817 0-0.68248 0.06117-0.68248 0.27829 0 0.21458 0.18669 0.27746 0.52594 0.27746 0.40371 0 0.774 0.03337 1.0212 0.09359 1.0241 0.21712 1.2716 0.71286 1.3343 1.7667 0.0615 0.99104 0.0613 1.8613 0.0613 6.5689v5.4532c0 2.8497 0.00076 5.2965-0.15572 6.5954-0.12085 0.89986-0.27917 1.5811-0.89534 1.7045-0.28073 0.06658-0.65168 0.12175-1.1173 0.12175-0.3736 0-0.4928 0.09785-0.4928 0.25179 0 0.21542 0.21289 0.31225 0.61787 0.31225 0.61913 0 1.4236-0.0646 2.1377-0.0646 0.74509-0.03223 1.4249-0.0323 1.7667-0.0323 1.2671 0 2.3854 0.03287 3.7776 0.09691 1.3935 0.02799 3.0048 0.08945 5.2337 0.08945 1.6144 0 1.7677-0.15423 1.9538-0.8357 0.24765-0.89732 0.46547-3.2214 0.46547-3.5615 0-0.37402-0.0327-0.52677-0.24599-0.52677-0.2485 0-0.31357 0.18565-0.34538 0.46299-0.0602 0.58775-0.4319 1.4578-0.80423 1.8619-0.77265 0.83541-1.9812 0.86635-3.6244 0.86635-2.4155 0-3.2236-0.21726-3.7495-0.68331-0.64882-0.5568-0.64852-2.6954-0.64852-6.6583h-0.00083v-5.454c0-4.7075 0.0002-5.5778 0.0621-6.5689 0.0611-1.0852 0.31093-1.611 1.1446-1.7667 0.37106-0.06022 0.86531-0.09359 1.2101-0.09359 0.3719 0 0.55658-0.06289 0.55658-0.27746 0-0.21712-0.21674-0.27829-0.65183-0.27829-1.2094 0-3.4678 0.09194-4.2117 0.09194-0.83668 0-2.7865-0.09194-4.2431-0.09194zm-58.732 0.000828c-0.46392 0-0.80589 0.02937-0.80589 0.27829 0 0.18786 0.0916 0.27746 0.37023 0.27746 0.24978 0 0.74532 0.000391 1.2092 0.12507 1.1178 0.31084 1.6427 0.65208 2.3564 2.3555l7.8071 18.928c0.58818 1.4584 0.77328 1.8901 1.1753 1.8901 0.43509 0 0.62184-0.49586 1.4246-2.2918 0.6836-1.5508 2.1414-4.9277 4.1214-9.4503 1.6721-3.8073 2.5103-5.484 3.7172-8.3943 0.83499-1.9834 1.3029-2.5106 1.7054-2.7879 0.55722-0.3736 1.2095-0.37354 1.5182-0.37354 0.30914 0 0.49695-0.06289 0.49695-0.27746 0-0.21712-0.25022-0.27912-0.65266-0.27912-0.9287 0-2.3855 0.09111-2.9113 0.09111-0.40328 0-1.7051-0.09111-3.255-0.09111-0.58733 0-0.8647 0.06167-0.8647 0.31059 0 0.21542 0.24568 0.24516 0.52429 0.24516 0.40413 0 0.86968 0.03358 1.2399 0.15571 0.28115 0.09372 0.40336 0.34378 0.40336 0.58889 0 0.27861-0.12224 0.74344-0.2783 1.1463-0.74423 2.0453-4.7709 12.02-6.105 15.429h-0.12341l-5.3281-14.065c-0.43551-1.117-0.71229-1.9837-0.71229-2.387 0-0.27861 0.0927-0.49452 0.30728-0.651 0.24935-0.18362 0.71307-0.217 1.2101-0.217 0.27819 0 0.46465-0.06289 0.46465-0.27746 0-0.21712-0.33952-0.27829-0.71313-0.27829-1.5491 0-3.0318 0.09111-3.81 0.09111-1.0848 0-2.8484-0.09111-4.4916-0.09111zm28.064 0c-0.4953 0-0.74377 0.06104-0.74377 0.24848 0 0.24384 0.18615 0.30728 0.4953 0.30728 0.37148 0 0.77555 0.03306 1.1156 0.12424 0.68105 0.15648 0.99205 0.68221 1.0535 1.736 0.0619 0.99104 0.0613 1.8613 0.0613 6.5689h0.00083v5.4532c0 3.0028 0.00032 5.4479-0.15488 6.7511-0.092 0.89859-0.27872 1.4246-0.897 1.548-0.27819 0.06658-0.65173 0.12175-1.1157 0.12175-0.37233 0-0.49695 0.09785-0.49695 0.25179 0 0.21542 0.21748 0.31059 0.62119 0.31059 1.2395 0 3.1912-0.09525 3.9019-0.09525 0.83923 0 2.7888 0.09525 4.8337 0.09525 0.34179 0 0.58806-0.09517 0.58806-0.31059 0-0.15436-0.15439-0.25179-0.49364-0.25179-0.46647 0-1.1473-0.05517-1.582-0.12175-0.92955-0.1234-1.147-0.68025-1.2391-1.5174-0.12382-1.3337-0.12424-3.7789-0.12424-6.7817v-5.4532c0-4.7075 0.00021-5.5778 0.0621-6.5689 0.0615-1.0852 0.30998-1.611 1.1488-1.7667 0.37021-0.06022 0.61892-0.09359 0.92764-0.09359 0.31169 0 0.4953-0.06344 0.4953-0.30728 0-0.18744-0.24815-0.24848-0.65101-0.24848-1.1776 0-3.0058 0.09111-3.7785 0.09111-0.89817 0-2.8506-0.09111-4.0286-0.09111zm126.72 0c-0.46562 0-0.80589 0.02937-0.80589 0.27829 0 0.18786 0.0912 0.27746 0.37106 0.27746 0.24808 0 0.74617 0.000391 1.2092 0.12507 1.117 0.31084 1.6452 0.65208 2.3564 2.3555l7.8088 18.928c0.58902 1.4584 0.76988 1.8901 1.1753 1.8901 0.43212 0 0.61761-0.49586 1.4238-2.2918 0.68444-1.5508 2.1368-4.9277 4.1214-9.4503 1.6763-3.8073 2.5099-5.484 3.7172-8.3943 0.83923-1.9834 1.3042-2.5106 1.707-2.7879 0.55298-0.3736 1.2032-0.37354 1.5149-0.37354 0.31296 0 0.49529-0.06289 0.49529-0.27746 0-0.21712-0.2481-0.27912-0.65266-0.27912-0.92616 0-2.3796 0.09111-2.9096 0.09111-0.40201 0-1.701-0.09111-3.25-0.09111-0.59073 0-0.86718 0.06167-0.86718 0.31059 0 0.21542 0.24528 0.24516 0.52262 0.24516 0.40668 0 0.8688 0.03358 1.2416 0.15571 0.27988 0.09372 0.40088 0.34378 0.40088 0.58889 0 0.27861-0.12051 0.74344-0.27995 1.1463-0.74212 2.0453-4.7655 12.02-6.1009 15.429h-0.12176l-5.3348-14.065c-0.43-1.117-0.7098-1.9837-0.7098-2.387 0-0.27861 0.0935-0.49452 0.31142-0.651 0.24765-0.18362 0.71226-0.217 1.2084-0.217 0.27903 0 0.46299-0.06289 0.46299-0.27746 0-0.21712-0.33914-0.27829-0.71147-0.27829-1.5478 0-3.0352 0.09111-3.8108 0.09111-1.0848 0-2.8487-0.09111-4.4933-0.09111zm-180.72 0.06543v3.1084h3.0173v-0.53836h-2.4773v-2.5701h-0.54002zm-1.3028 0.0091v2.5684h-2.479v0.53919h3.0173v-3.1076h-0.53836zm168.95 0.98065c5.0794 0 9.0785 4.3045 9.0785 11.244 0 8.9524-5.0189 10.004-7.1884 10.004-5.9475 0-9.5116-5.1109-9.5116-11.552 0-7.7154 4.0594-9.6963 7.6216-9.6963zm-175.45 2.6736-0.42655 0.0323c-0.0814 0.0047-2.0188 0.1553-3.771 1.2507-1.5037 0.93973-2.2169 2.5105-2.247 2.5775l-0.15903 0.36112 0.46217 0.01905c0.29939 0 1.8728-0.054 3.5292-1.1248 1.8315-1.1878 2.4312-2.6548 2.4549-2.7167l0.15737-0.39922zm14.825 0.01988 0.15903 0.39839c0.025 0.06403 0.62503 1.5314 2.4574 2.7175 1.6534 1.0708 3.2273 1.1256 3.5259 1.1256l0.46548-0.01988-0.16151-0.36112c-0.0284-0.067-0.7421-1.6378-2.2446-2.5775-1.7539-1.0937-3.6904-1.246-3.7719-1.2523l-0.42986-0.03064zm-7.0277 0.21038v4.9016h0.53919v-4.3607h2.4906v-0.54085h-3.0297zm-3.7942 0.0091v0.54002h2.4906v4.3583h0.53836v-4.8983h-3.0289zm-4.8916 0.39756c-0.29982 0.49149-0.91804 1.3135-2.0168 2.0259-1.1462 0.74296-2.2424 0.95435-2.831 1.0163 0.29557-0.50167 0.90062-1.3626 1.8238-1.9389 1.1221-0.70056 2.3552-0.98873 3.024-1.1032zm16.607 0.01905c0.66791 0.1145 1.9007 0.40391 3.0206 1.1049 0.92191 0.57376 1.527 1.4356 1.8238 1.9365-0.5903-0.06064-1.6839-0.27459-2.8301-1.0154-1.0941-0.70734-1.7145-1.534-2.0143-2.0259zm-22.936 0.51848-0.39508 0.32385c-0.0615 0.04962-1.5301 1.2603-2.0822 2.8276-0.46647 1.3248-0.46253 2.4596-0.44726 2.792-0.19931 0.29769-0.92963 1.3948-1.3393 2.1692-0.045 0.08439-0.0884 0.16825-0.13169 0.25179-0.16878-1.2735-0.60088-2.2283-0.61954-2.2694l-0.21286-0.46548-0.26338 0.43649c-0.0411 0.06912-1.0177 1.702-1.0113 3.3644 0.005 1.4058 0.39007 2.4713 0.51517 2.7796-0.0886 0.3507-0.40498 1.6267-0.53008 2.493-0.0114 0.07972-0.0234 0.15887-0.0323 0.23605-0.54704-1.0669-1.194-1.7671-1.2242-1.8006l-0.34621-0.37354-0.11347 0.49778c-0.0187 0.07803-0.43104 1.936 0.0961 3.511 0.44781 1.3337 1.147 2.2212 1.3641 2.4756 0.007 0.09605 0.0302 0.35405 0.0472 0.5599l-1.9613-0.62616 1.6913 2.8318-1.0411 1.9638 2.0102 0.72803 0.00083 3.7114c-0.004 0.03986-0.0248 0.41048 0.30977 0.74294 0.2926 0.29388 0.61889 0.31474 0.69904 0.31474h0.0157 1.4478c0.33652 0.50906 0.82242 1.2213 0.97982 1.4494-0.009 0.33119 0.007 1.467 0.50109 2.7854 0.58224 1.5546 2.0741 2.7366 2.1369 2.7879l0.4017 0.31474 0.0323-0.50772c0.003-0.05258 0.0781-1.2326-0.28409-2.5866-0.16242-0.61108-0.41773-1.2123-0.65267-1.6987 0.50294 0.2256 1.1858 0.49541 1.8694 0.64935 1.3663 0.30957 2.544 0.19193 2.5941 0.18387l0.50689-0.05384-0.32964-0.38679c-0.0526-0.06276-1.2899-1.5072-2.8674-2.0309-1.2421-0.41177-2.2316-0.41658-2.609-0.40004-0.0826-0.11844-0.21815-0.31804-0.34704-0.50606h9.5133v2.0143c-0.005 0.04241-0.0317 0.42379 0.31308 0.75371 0.31423 0.30151 0.68 0.29734 0.71478 0.29734l5.8441 0.0025 5.5567-0.0025c0.0382 0.0042 0.40485 0.01258 0.72969-0.31225 0.33373-0.33374 0.31358-0.70487 0.30976-0.72141v-2.0367h9.5216c-0.12358 0.17982-0.25343 0.3704-0.33213 0.48453-0.37826-0.01908-1.3681-0.01215-2.6115 0.40004-1.5746 0.52372-2.8127 1.9686-2.8658 2.0292l-0.32798 0.38762 0.50689 0.05384c0.0488 0.0064 1.2261 0.12442 2.5932-0.18387 0.68275-0.15521 1.3685-0.42381 1.8702-0.64686-0.23535 0.48428-0.4902 1.0877-0.65431 1.6963-0.36173 1.3562-0.28878 2.5358-0.28327 2.5858l0.0348 0.50938 0.40087-0.31474c0.0628-0.05089 1.553-1.2328 2.1361-2.7896 0.49277-1.3184 0.51-2.453 0.5011-2.7846 0.15571-0.22576 0.62893-0.9194 0.96491-1.4271h1.3583 0.0232c0.0908 0 0.41678-0.01884 0.70981-0.3106 0.33162-0.33416 0.31149-0.70691 0.30894-0.72472v-3.7329l2.0093-0.72886-1.0411-1.9605 1.6946-2.8318-1.8859 0.60214c0.0154-0.18799 0.036-0.4252 0.0439-0.51517 0.21415-0.25402 0.91591-1.1411 1.3633-2.4773 0.52711-1.575 0.11429-3.4321 0.0969-3.5093l-0.11265-0.49695-0.34869 0.37354c-0.0301 0.03223-0.67673 0.73284-1.2225 1.7998-0.011-0.07972-0.0208-0.15843-0.0331-0.23688-0.12552-0.86509-0.44186-2.1436-0.53091-2.4914 0.12679-0.30957 0.51259-1.3738 0.51683-2.7821 0.005-1.6598-0.96933-3.2919-1.0105-3.3627l-0.26586-0.43566-0.21121 0.46382c-0.0195 0.04241-0.45116 0.9955-0.62036 2.2702-0.0437-0.08863-0.0851-0.16908-0.13004-0.25262-0.41134-0.77307-1.1379-1.8706-1.3384-2.17 0.0144-0.33544 0.0214-1.466-0.44808-2.792-0.55341-1.5661-2.022-2.778-2.0847-2.8293l-0.39508-0.32219-0.0431 0.50937c-0.004 0.04877-0.10144 1.2287 0.23357 2.5908 0.15266 0.61108 0.39637 1.2185 0.62367 1.7087-0.49955-0.23493-1.1784-0.51578-1.8594-0.68414-1.3604-0.33501-2.5387-0.23777-2.5875-0.23522l-0.50937 0.04473 0.32219 0.3959c0.0517 0.06276 1.2616 1.528 2.8285 2.0814 1.234 0.43636 2.2228 0.46368 2.6015 0.45222 0.20525 0.30533 0.73735 1.1158 1.0999 1.799 0.11111 0.20906 0.21835 0.4139 0.31971 0.61788-0.0577-0.03944-0.11588-0.07947-0.17228-0.11678-1.1751-0.77901-2.5236-1.0545-2.58-1.066l-0.52843-0.10602 0.23274 0.48784c0.0339 0.07209 0.87864 1.8185 2.1568 2.8558 1.0161 0.82565 1.9417 1.1834 2.3009 1.2987 0.0878 0.35834 0.31747 1.2985 0.43069 2.0648 0.0496 0.33247 0.0911 0.66398 0.12507 0.9939-0.0785-0.11492-0.15641-0.21924-0.23274-0.31805-0.86721-1.1013-1.8576-1.7507-1.9-1.7774l-0.42738-0.27746 0.0124 0.50937c0.001 0.081 0.0515 1.9814 0.94751 3.3834 0.70607 1.1013 1.4713 1.7312 1.775 1.9547-0.0145 0.21336-0.0561 0.67001-0.10768 1.1314l-5.787 1.847 0.00083 2.344-9.8852-0.0017v3.048l-8.1127 0.0017-0.002-3.0471-9.891 0.0033 0.005-2.3473-5.7083-1.8222c-0.0569-0.48818-0.0959-0.94856-0.11265-1.1753 0.30448-0.22348 1.0689-0.85122 1.7758-1.9563 0.89436-1.399 0.94708-3.3004 0.94835-3.3801l0.0116-0.5102-0.42655 0.27746c-0.0437 0.02714-1.0311 0.67571-1.9 1.7774-0.0746 0.09838-0.15427 0.2061-0.23357 0.31805 0.0356-0.3261 0.0767-0.65851 0.1259-0.99224 0.11365-0.76629 0.34246-1.709 0.43152-2.0648 0.3596-0.11662 1.284-0.47432 2.3-1.2987 1.2756-1.036 2.1472-2.7837 2.1824-2.8583l0.24351-0.4895-0.53671 0.10602c-0.0577 0.01145-1.4331 0.28988-2.6073 1.0676-0.0577 0.03859-0.11461 0.07728-0.17228 0.11927 0.10093-0.20398 0.20737-0.41301 0.31805-0.61953 0.36469-0.68402 0.89762-1.4949 1.1007-1.799 0.37615 0.01018 1.3679-0.01631 2.604-0.4514 1.5652-0.55468 2.7768-2.019 2.8268-2.0831l0.32219-0.39508-0.50772-0.04224c-0.05-0.0064-1.2295-0.10272-2.5916 0.23357-0.67723 0.16666-1.3553 0.44838-1.8561 0.68331 0.22857-0.49064 0.47103-1.0993 0.62285-1.7103 0.33713-1.3621 0.23738-2.5395 0.23356-2.5908l-0.0447-0.50772zm12.862 0.0025-1.8164 1.8097 0.38182 0.38265 1.8155-1.8097-0.381-0.38265zm3.5226 0.02899-0.381 0.38017 1.8114 1.813 0.38099-0.381-1.8114-1.8122zm112.05 0.73466c0.0903 0 0.1227 0.15234 0.15323 0.27829l2.7896 7.6522c0.0297 0.09075-0.00012 0.18718-0.15406 0.18718v0.000828h-5.7025c-0.12171 0-0.15398-0.09657-0.12175-0.217l2.8492-7.6232c0.0318-0.12595 0.0918-0.27829 0.18635-0.27829zm97.213 0c0.0924 0 0.12351 0.15234 0.15489 0.27829l2.7854 7.6522c0.0373 0.09075 0.0002 0.18718-0.14992 0.18718v0.000828h-5.7058c-0.12213 0-0.15566-0.09657-0.12258-0.217l2.8566-7.6232c0.0263-0.12595 0.0877-0.27829 0.18138-0.27829zm-226.13 0.3686c-0.01 0.45205-0.0572 1.1209-0.23108 1.8321-0.22984 0.92828-0.68979 1.853-0.94338 2.3216l-0.44146 0.81334 0.80755-0.44974c0.21585-0.11916 1.3487-0.73109 2.4649-1.0072 0.71073-0.17471 1.3805-0.22345 1.8321-0.23108-0.45757 0.45545-1.2675 1.1602-2.1932 1.4875-1.4329 0.50591-2.5234 0.41495-2.5369 0.41495l-0.15736-0.01408-0.0903 0.13004c-0.0293 0.04495-0.74393 1.0904-1.2142 1.9737-0.31974 0.59836-0.59948 1.1789-0.83653 1.731l-0.4953 1.1529 0.92599-0.84896c0.38759-0.35409 0.72494-0.6251 1.0337-0.82908 0.62719-0.41728 1.3304-0.68062 1.8172-0.83074-0.34773 0.58266-0.97228 1.5131-1.736 2.1344-1.1806 0.95627-2.241 1.2394-2.2512 1.2407l-0.15489 0.04224-0.0389 0.15157c-0.0131 0.05258-0.33576 1.2772-0.48122 2.2669-0.10898 0.74211-0.18263 1.472-0.21783 2.1717l-0.0596 1.1827 0.56486-1.0386c0.27904-0.51482 0.53596-0.91536 0.78022-1.2275 0.45078-0.57376 0.94882-1.0245 1.2995-1.3095-0.0797 0.64331-0.28623 1.6972-0.81334 2.5212-0.81887 1.2824-1.7362 1.8824-1.7451 1.8901l-0.13418 0.08117 0.01 0.15902c0 0.0062 0.0387 0.52275 0.10104 1.1165l-0.55327-0.17724c-0.0397-0.44068-0.0729-0.86174-0.0729-0.86387l-0.006-0.09525-0.063-0.07123c-0.008-0.0089-0.82846-0.90444-1.3144-2.3539-0.31084-0.92955-0.25404-2.0034-0.17559-2.6463 0.27097 0.36215 0.64312 0.91818 0.9442 1.5869 0.0751 0.16963 0.14079 0.35962 0.21204 0.56487l0.42158 1.2142 0.10104-1.2813c0.025-0.30151 0.0662-0.76529 0.13998-1.2606 0.14079-0.96178 0.53703-2.5084 0.54085-2.5262l0.024-0.09028-0.0381-0.08697c-0.005-0.0106-0.50179-1.1187-0.50772-2.6504-0.003-0.97832 0.38817-1.9803 0.66508-2.5643 0.14334 0.42746 0.32297 1.0699 0.39591 1.8031 0.025 0.24553 0.0261 0.50637 0.0248 0.77607l-0.003 1.2755 0.51849-1.1645c0.14588-0.32526 0.34116-0.75256 0.57398-1.1902 0.45629-0.85619 1.3511-2.183 1.3608-2.1957l0.0522-0.07786-0.008-0.09442c-0.001-0.01315-0.0922-1.2315 0.41578-2.667 0.32484-0.92404 1.0292-1.7331 1.4867-2.1924zm30.223 0.01988c0.45883 0.45841 1.1631 1.2691 1.4892 2.1949 0.50761 1.4338 0.41457 2.6535 0.4133 2.6637l-0.008 0.09608 0.0538 0.07868c0.01 0.01442 0.90325 1.3391 1.3608 2.1965 0.18701 0.35282 0.36879 0.73144 0.57149 1.1869l0.52098 1.1728-0.004-1.2838c-0.002-0.24044 0.00066-0.52036 0.0257-0.77607 0.0729-0.7277 0.25172-1.3735 0.3959-1.8023 0.27734 0.58521 0.66763 1.5868 0.66509 2.5651-0.005 1.5237-0.50138 2.6381-0.50689 2.6496l-0.0381 0.08697 0.0232 0.09111c0.004 0.01569 0.40131 1.5636 0.54168 2.5253 0.0568 0.38251 0.10057 0.78177 0.13832 1.2631l0.11181 1.2515 0.42241-1.2184c0.0619-0.17599 0.12576-0.36294 0.20209-0.53257 0.29982-0.66917 0.67113-1.2256 0.94338-1.5878 0.0789 0.64161 0.1365 1.715-0.17476 2.6454-0.48428 1.4431-1.3068 2.3471-1.3144 2.3547l-0.0654 0.07206-0.006 0.09359s-0.0305 0.39556-0.0671 0.81914l-0.55244 0.17642c0.0583-0.57213 0.0948-1.0639 0.0944-1.0676l0.0108-0.1582-0.13418-0.08448c-0.008-0.0081-0.92543-0.60731-1.7443-1.8884-0.52796-0.82438-0.73529-1.8779-0.81417-2.5212 0.34986 0.2837 0.84699 0.73102 1.302 1.3103 0.24596 0.31169 0.49276 0.70171 0.77773 1.2242l0.56653 1.0436-0.0621-1.1869c-0.0344-0.69971-0.10719-1.4318-0.21618-2.1684-0.14503-0.99104-0.46764-2.2181-0.48121-2.2694l-0.0406-0.1524-0.15239-0.03976c-0.0119-0.0025-1.0642-0.27765-2.252-1.2415-0.76416-0.62126-1.3777-1.55-1.7186-2.1344 0.4775 0.15139 1.1726 0.41432 1.7998 0.82991 0.30999 0.20398 0.64695 0.47581 1.032 0.82991l0.92516 0.85061-0.49364-1.1554c-0.23748-0.55468-0.51935-1.1374-0.8357-1.7302-0.47029-0.88333-1.1862-1.93-1.2167-1.9762l-0.0886-0.12838-0.1582 0.0116c-0.0114 0.0021-1.0955 0.09891-2.5369-0.41081-0.92149-0.32738-1.7323-1.0312-2.1924-1.4884 0.45332 0.0081 1.1218 0.0551 1.8329 0.23108 1.1446 0.28243 2.3314 0.93339 2.4616 1.0063l0.81003 0.44974-0.44063-0.81417c-0.25359-0.4669-0.71359-1.3925-0.94089-2.3208-0.17768-0.71116-0.22632-1.38-0.23522-1.8329zm-14.865 3.7097-0.4075 0.30397c-0.33374 0.24553-0.82825 0.82946-0.56321 1.4494 0.17938 0.41601 0.44104 0.69451 0.67088 0.94089 0.1056 0.1128 0.20944 0.2207 0.30232 0.34538 0.10007 0.12849 0.11512 0.2936 0.0447 0.43566-0.0305 0.05767-0.12251 0.19355-0.30231 0.18718-0.15775-0.0017-0.27928-0.0543-0.37851-0.1582-0.25529-0.27352-0.28843-0.8353-0.27995-1.0295l0.0157-0.32799-0.32385 0.04804c-0.0632 0.0089-1.5432 0.2431-1.6432 1.4445-0.0158 0.18867 0.009 0.37979 0.0654 0.57646-0.7957 0.10314-1.602 0.65064-1.9124 1.4552l-7.8361 3.3196-0.0837 0.05466c-0.0288 0.03053-0.68872 0.70669-0.68745 2.5361 0 1.8345 0.66097 2.2837 0.73052 2.3274l12.309 7.8386 12.358-7.8717 0.23854-0.15737-0.16565-0.23108c-0.004-0.0055-0.37209-0.53669-0.381-2.0218-0.0106-1.4919 0.38011-2.0669 0.38265-2.0681l0.20044-0.27498-8.1516-3.4513c-0.004-0.0095-0.008-0.01874-0.0116-0.02816l0.73797-0.32799 1.336 0.79346 3.0008-1.3426-1.7534-0.93095 0.32385-1.9307-2.9138 1.3004-0.2228 1.6209-0.77276 0.34455c-0.38987-0.52671-1.0057-0.87074-1.6176-0.95746 0.0457-0.20162 0.0455-0.40248-0.0108-0.60876-0.19083-0.68147-0.63882-1.2636-1.3708-1.7733-0.85153-0.59581-0.90363-1.2935-0.90363-1.3202l-0.0224-0.5102zm-0.38597 1.0602c0.13783 0.34434 0.42039 0.80469 1.0014 1.2092 0.62592 0.43764 1.0056 0.92202 1.162 1.4801 0.0423 0.15281 0.0344 0.29616-0.024 0.45057-1.076 0.08749-1.7003 0.72494-2.0085 1.1811-0.30792-0.45057-0.92426-1.0752-1.9712-1.1745-0.0744-0.18586-0.11529-0.35812-0.10105-0.52346 0.0433-0.51694 0.54995-0.76813 0.88623-0.87712 0.0301 0.31169 0.12665 0.75853 0.41247 1.0651 0.19762 0.21034 0.46212 0.32494 0.76448 0.3313 0.33374 0.0038 0.637-0.17999 0.79263-0.48701 0.16412-0.32483 0.1266-0.70958-0.0977-1.0022-0.10305-0.13867-0.21919-0.26129-0.33793-0.38596-0.21966-0.23748-0.42571-0.45819-0.56735-0.78684-0.07-0.16411-0.006-0.3379 0.0886-0.48039zm7.5222 1.7476-0.21948 1.3194 1.1198 0.59634-1.7377 0.77607-1.0635-0.62864 0.17973-1.2946 1.7211-0.76862zm-5.1401 1.9166h0.0538c0.8299 0.01696 1.7507 0.73186 1.7443 1.664-0.0161 2.4197-3.2915 5.0194-4.0502 5.5932-0.32102-0.24129-1.0936-0.8473-1.8743-1.6424-0.007-0.0059-0.60685-0.65144-0.97154-1.1099-0.79385-1.0398-1.2005-1.9942-1.2043-2.8359-0.006-0.93464 0.91776-1.652 1.746-1.6664l0.053-0.0017c1.4864 0 1.9807 1.2548 2.0002 1.3062l0.24682 0.6626 0.25676-0.65763c0.0212-0.05386 0.53171-1.312 1.9994-1.312zm-6.838 1.5861c-0.001 0.02804-0.004 0.05525-0.004 0.08365 0.005 0.75199 0.27906 1.567 0.81169 2.4293l-0.76779 0.33958-0.49115-1.1007-2.4135 2.7125 3.554-0.1582-0.42904-0.95994 0.85145-0.37685c0.0661 0.09307 0.13094 0.18588 0.20292 0.27995 0.38293 0.47877 0.97704 1.1178 1.0072 1.1513 1.0572 1.0784 2.0676 1.7924 2.1104 1.823l0.15571 0.11016 0.15571-0.11016c0.1798-0.12552 4.4141-3.1421 4.4328-6.1407 0.0002-0.02805-0.003-0.05513-0.004-0.08282l7.012 2.9676-11.622 7.2497-11.573-7.2464 7.0112-2.9709zm-0.60379 2.7332 0.47873 1.0693-1.4867 0.0646 1.008-1.1339zm-6.9167 0.5541 12.083 7.5644 11.679-7.2836c-0.0947 0.37554-0.17388 0.88334-0.16979 1.5902 0.00031 0.03699 0.004 0.06343 0.005 0.09939l-11.516 7.2489-12.483-7.6638c0.0569-0.86029 0.26933-1.3325 0.40253-1.5555zm-0.40998 2.1833 12.495 7.6729 11.543-7.2679c0.064 0.68882 0.20183 1.1245 0.31142 1.3683l-11.856 7.5545-12.017-7.6539c-0.004-0.0024-0.4334-0.33907-0.47541-1.6739zm34.577 3.4836-1.1173 1.8669 0.89285 1.683-1.2863 0.46796c-0.14577-0.33387-0.56223-0.46523-0.61871-0.48121l-4.7948-1.3252 6.9242-2.2114zm-44.174 0.0041 6.925 2.2081-4.7981 1.3277c-0.0558 0.01598-0.47148 0.1473-0.61788 0.48039l-1.2854-0.46465 0.8912-1.6847-1.1148-1.8669zm36.567 2.5792 5.3314 1.4718c0.0963 0.02841 0.27575 0.12336 0.27829 0.1963 0.004 0.07082-0.18898 0.12119-0.23605 0.12755l-5.3729-0.000828-0.00082-1.7948zm-28.963 0.0017-0.004 1.7973-5.3439 0.0017c-0.0602-0.0051-0.26427-0.0559-0.26172-0.12672 0.003-0.07039 0.1672-0.16566 0.27746-0.20044l5.3323-1.4718zm34.565 2.286v3.453c0 0.0051 0.004 0.16612-0.15323 0.32302-0.15775 0.15648-0.32482 0.15399-0.33627 0.15654h-12.827v-1.6615h-0.003c0.0121-0.34036-0.18865-0.61188-0.31971-0.71644l-1.4743-1.5091h14.91c0.0684-0.0063 0.13646-0.02617 0.20375-0.04555zm-40.164 0.0033c0.0745 0.02169 0.1499 0.04185 0.22777 0.04887l14.898-0.0033-1.4097 1.4892c-0.16032 0.12997-0.38624 0.43581-0.33627 0.81252v1.5853h-12.9-0.002c-0.0102 0-0.17195-0.0026-0.32715-0.15654-0.15606-0.15521-0.15075-0.31664-0.15075-0.34124v-3.4348zm24.679 0.434 1.4809 1.5132c0.00085 0.0013 0.2012 0.17106 0.13335 0.38182-0.0725 0.22051-0.39065 0.22116-0.40253 0.22032h-1.2117v-2.1154zm-9.1944 0.01325 0.002 2.1054h-1.1645c-0.0178-0.003-0.32631 0.0027-0.39756-0.22032-0.0666-0.20567 0.12643-0.37786 0.15654-0.40584l1.4031-1.4793zm-3.4687 0.61705c-0.41176 0-0.71146 0.22173-0.71146 0.53257 0 0.17684 0.0985 0.31804 0.27912 0.40667 0.16029 0.07336 0.35215 0.08788 0.57563 0.10187l0.12507 0.0083c0.19168 0.01654 0.30479 0.0942 0.30479 0.20955 0 0.15266-0.17505 0.26173-0.42737 0.26173-0.22476 0-0.46459-0.09133-0.67917-0.25841l-0.0671-0.05466-0.2112 0.31059 0.0605 0.04473c0.26462 0.20525 0.55934 0.3048 0.90114 0.3048 0.54916 0 0.80092-0.31119 0.80092-0.6038-0.00043-0.29981-0.24145-0.52038-0.61208-0.56321-0.0857-0.0089-0.16596-0.01562-0.24102-0.02071-0.17344-0.0081-0.3083-0.01681-0.38845-0.07703-0.0377-0.03096-0.0472-0.05524-0.0472-0.08365 0-0.08057 0.12749-0.16896 0.34207-0.16896 0.21839 0 0.42092 0.07848 0.60793 0.2286l0.0671 0.05384 0.21369-0.30562-0.0638-0.04473c-0.25231-0.18489-0.53774-0.28243-0.82908-0.28243zm26.797 0c-0.41389 0-0.71312 0.22173-0.71312 0.53257 0 0.17684 0.0997 0.31804 0.27994 0.40667 0.15988 0.07336 0.35304 0.08788 0.57398 0.10187l0.12424 0.0083c0.19337 0.01654 0.30645 0.0942 0.30645 0.20955 0 0.15266-0.17467 0.26173-0.42572 0.26173-0.22518 0-0.46669-0.09133-0.67999-0.25841l-0.0687-0.05466-0.20789 0.31059 0.0613 0.04473c0.26165 0.20525 0.55688 0.3048 0.89783 0.3048 0.55043 0 0.80009-0.31119 0.80009-0.6038 0-0.29981-0.24023-0.52038-0.6096-0.56321-0.0874-0.0089-0.16844-0.01562-0.2435-0.02071-0.1709-0.0081-0.30747-0.01681-0.38762-0.07703-0.0399-0.03096-0.0489-0.05524-0.0489-0.08365 0-0.08057 0.13214-0.16896 0.3429-0.16896 0.21839 0 0.42258 0.07848 0.60959 0.2286l0.0663 0.05384 0.21452-0.30562-0.0654-0.04473c-0.25019-0.18489-0.53865-0.28243-0.82659-0.28243zm-10.758 0.0017c-0.53517 0-0.92433 0.39146-0.92433 0.93427 0 0.5428 0.38874 0.93178 0.92433 0.93178 0.35749 0 0.65707-0.17585 0.82246-0.48287l0.0315-0.06129-0.29486-0.21783-0.0422 0.082c-0.11746 0.21797-0.28995 0.3313-0.51683 0.3313-0.32101 0-0.5541-0.2468-0.5541-0.58309 0-0.3401 0.23309-0.58392 0.5541-0.58392 0.20864 0 0.38643 0.1 0.47293 0.26835l0.0439 0.08034 0.30728-0.21783-0.0406-0.06543c-0.1692-0.26546-0.45615-0.41578-0.78353-0.41578zm-21.457 0.02236v1.8097h0.36775v-1.8097h-0.36775zm26.912 0v1.8097h0.36775v-1.8097h-0.36775zm-23.622 0.0083-0.87712 1.7915h0.39921l0.18719-0.38845 0.84978-0.0025 0.19878 0.39094h0.40088l-0.88872-1.7915h-0.27zm-5.3737 0.0025v1.7932h0.36277v-0.7123h0.50524l0.40833 0.7123h0.41081l-0.42655-0.74791c0.21076-0.081 0.34621-0.27361 0.34621-0.50855 0-0.32992-0.22621-0.53671-0.59303-0.53671h-1.0138zm2.8749 0v0.35035h0.68579v1.4428h0.36526v-1.4428h0.68579v-0.35035h-1.7368zm22.549 0-0.87794 1.7932h0.39922l0.18801-0.39011 0.84896-0.0025 0.20043 0.39259h0.39756l-0.88705-1.7932h-0.26919zm1.4478 0v1.7932h0.36526v-0.7123h0.50523l0.4075 0.7123h0.40998l-0.42572-0.74791c0.21076-0.081 0.34621-0.27361 0.34621-0.50855 0-0.32992-0.22873-0.53671-0.59385-0.53671h-1.0146zm2.8773 0v0.35035h0.68662v1.4428h0.36361v-1.4428h0.68744v-0.35035h-1.7377zm-33.936 0.0017 0.86387 1.7915h0.23025l0.86552-1.7915h-0.40336l-0.57812 1.201-0.57729-1.201h-0.40087zm2.2396 0v1.7915h1.5107v-0.34869h-1.1463v-0.42903h0.65349v-0.34952h-0.65349v-0.31639h1.0809v-0.34787h-1.4453zm34.156 0-0.87795 1.7915h0.39922l0.18801-0.38845 0.84896-0.0017 0.19795 0.39011h0.40005l-0.88789-1.7915h-0.26835zm36.296 0.26007c-0.1815 0-0.23522 0.25401-0.23522 0.6187l-0.16399 10.739c-0.0161 1.5788-0.0909 2.1049-0.56073 2.2512-0.25614 0.07294-0.58039 0.08945-0.81914 0.08945-0.18065 0-0.28906 0.03471-0.28906 0.14411 0 0.16538 0.16386 0.18304 0.39922 0.18304 0.94481 0 1.7955-0.05798 1.9596-0.05798 0.34519 0 1.069 0.05798 2.2479 0.05798 0.25529 0 0.42075-0.03589 0.42075-0.18304 0-0.10941-0.11001-0.14411-0.31059-0.14411-0.29133 0-0.63296-0.01647-0.94338-0.12672-0.36257-0.12976-0.60007-0.59957-0.63527-2.0168l-0.19878-7.6191h0.0522c0.32611 0.34773 2.3453 2.6145 4.3185 4.5719 1.8892 1.8693 4.2097 4.2462 5.353 5.3348 0.19931 0.2027 0.41687 0.40336 0.61788 0.40336 0.16157 0 0.2344-0.16754 0.2344-0.56404l0.1996-11.448c0.0187-1.0178 0.16413-1.3992 0.67089-1.5455 0.21542-0.05131 0.36181-0.05135 0.54416-0.05135 0.22009 0 0.32716-0.05749 0.32716-0.16648 0-0.14461-0.18382-0.15985-0.41578-0.15985-0.89139 0-1.5806 0.05384-1.7816 0.05384-0.38124 0-1.2518-0.05384-2.1924-0.05384-0.27267 0-0.47127 0.01482-0.47127 0.15985 0 0.10941 0.0719 0.16648 0.28906 0.16648 0.2519 0 0.68897-0.00004 0.95994 0.10767 0.43637 0.18108 0.60047 0.52572 0.61871 1.6308l0.1789 8.1467h-0.0903c-0.30702-0.29006-2.7523-2.904-3.9889-4.1363-2.6483-2.63-5.4063-5.5877-5.6246-5.8226-0.3066-0.3261-0.47115-0.56321-0.67089-0.56321zm105.36 0.05632c-0.10941 0-0.16311 0.10879-0.21866 0.34372-0.0348 0.14249-0.381 1.7963-0.381 2.0864 0 0.20058 0.038 0.28989 0.164 0.28989 0.10813 0 0.16273-0.07318 0.19878-0.21949 0.0382-0.14376 0.12737-0.36092 0.31142-0.63444 0.2731-0.39777 0.7067-0.48866 1.7584-0.52428l2.7026-0.07289v7.4377c0 1.6687-0.00036 3.1025-0.0911 3.8663-0.0526 0.51948-0.16379 0.9243-0.52593 0.99639-0.16582 0.03732-0.38 0.07289-0.65267 0.07289-0.21967 0-0.29154 0.05252-0.29154 0.14411 0 0.12552 0.12697 0.18304 0.3636 0.18304 0.72642 0 1.8674-0.05798 2.2868-0.05798 0.50761 0 1.6512 0.05798 2.8492 0.05798 0.19889 0 0.34373-0.05752 0.34373-0.18304 0-0.0916-0.091-0.14411-0.29154-0.14411-0.27183 0-0.67064-0.03599-0.92847-0.07289-0.54196-0.07209-0.64889-0.47726-0.70402-0.98148-0.0916-0.77943-0.0911-2.2125-0.0911-3.8812v-7.4385l2.2876 0.05632c1.6136 0.0335 2.1045 0.5422 2.1427 1.0146l0.0182 0.20127c0.0165 0.27098 0.0537 0.36194 0.20044 0.36194 0.10517 0 0.14372-0.10843 0.16068-0.28823 0-0.47368 0.0547-1.7258 0.0547-2.1071 0-0.27225-0.0195-0.38017-0.14329-0.38017-0.0721 0-0.21808 0.03604-0.49033 0.08862-0.27225 0.03859-0.67387 0.09276-1.2531 0.09276h-7.1859c-0.59666 0-1.2868-0.03891-1.813-0.09276-0.45205-0.03435-0.63729-0.21535-0.78104-0.21535zm-20.112 0.0017c-2.5215 0-4.1918 1.4313-4.1918 3.4265 0 1.4685 0.69291 2.7397 2.686 4.2995l0.83571 0.65183c1.5042 1.1785 1.7766 2.0159 1.7766 2.9038 0 0.96305-0.80126 2.0665-2.4301 2.0665-1.1259 0-2.195-0.48829-2.5957-1.8296-0.0886-0.31084-0.16233-0.69016-0.16233-0.92764 0-0.14249-0.019-0.30728-0.18057-0.30728-0.14417 0-0.20129 0.20367-0.21783 0.4721-0.0182 0.28964-0.0886 1.3793-0.0886 2.3771 0 0.39523 0.0524 0.4912 0.3429 0.6129 0.77773 0.34519 1.595 0.475 2.6488 0.47542 0.95923 0 1.9777-0.16581 2.884-0.74211 1.3082-0.85279 1.7054-2.1051 1.7054-3.1606 0-1.7213-0.77881-2.9715-2.9767-4.625l-0.50855-0.38017c-1.5054-1.1437-1.9199-1.7777-1.9199-2.6131 0-1.0873 0.81624-1.8694 2.1592-1.8694 1.1768 0 1.7019 0.54482 1.9737 0.88789 0.38251 0.4741 0.47708 1.0352 0.47708 1.201 0 0.21797 0.047 0.32302 0.17807 0.32302 0.14545 0 0.19878-0.14219 0.19878-0.5425 0-1.4134 0.0737-1.9375 0.0737-2.1775 0-0.12468-0.0944-0.18102-0.2551-0.21452-0.47071-0.13019-1.2317-0.30811-2.4127-0.30811zm-153.38 0.02982h0.64935c0.14673 0 0.22032 0.06328 0.22032 0.1905 0 0.08609-0.0259 0.18553-0.22943 0.18553h-0.64024v-0.37603zm26.874 0h0.6477c0.14545 0 0.22114 0.06328 0.22114 0.1905 0 0.08609-0.0259 0.18553-0.22942 0.18553h-0.63942v-0.37603zm97.505 0.07786c-0.0899 0-0.19998 0.05386-0.28989 0.0704-0.14503 0.03732-0.43466 0.07328-0.77773 0.10933-0.34518 0.02078-3.9579 0.02071-4.5372 0.02071-0.25358 0-0.66974-0.02067-1.1422-0.03976-0.4546 0-0.97949-0.01739-1.471-0.01739-0.27055 0-0.39922 0.03639-0.39922 0.16234 0 0.12849 0.10963 0.16399 0.30894 0.16399 0.25401 0 0.56236 0.01823 0.70484 0.05301 0.60217 0.13273 0.74879 0.41915 0.78187 1.0353 0.0373 0.57927 0.0373 1.0878 0.0373 3.8481h0.00082v3.1913c0 1.6687 0.00013 3.1022-0.0936 3.8646-0.0691 0.52118-0.16048 0.92595-0.52263 0.99804-0.16581 0.03732-0.38124 0.07289-0.65349 0.07289-0.21584 0-0.29154 0.0542-0.29154 0.14494 0 0.12595 0.12695 0.18221 0.36443 0.18221 0.36173 0 0.83508-0.03644 1.2507-0.03644 0.43467-0.02035 0.83517-0.01988 1.0345-0.01988 0.54577 0 1.1044 0.02027 1.8843 0.05632 0.78112 0.01781 1.7821 0.05218 3.1391 0.05218 0.69165 0 0.85337 0.000262 0.98314-0.47045 0.0873-0.363 0.23522-1.5975 0.23522-2.0126 0-0.1832-0.00026-0.3313-0.14826-0.3313-0.12468 0-0.16142 0.07522-0.20044 0.27581-0.12467 0.74169-0.34218 1.126-0.81417 1.3401-0.47156 0.22009-1.2321 0.22031-1.7045 0.22031-1.8523 0-2.1422-0.27257-2.1791-1.524-0.0178-0.52626 0-2.1957 0-2.8127v-1.4312c0-0.11026 0.0199-0.18636 0.10933-0.18636 0.43509 0 2.2332 0.02324 2.5775 0.05632 0.67172 0.07591 0.92467 0.34853 1.0163 0.70898 0.0551 0.2379 0.0551 0.46817 0.072 0.65349 0 0.09075 0.0355 0.16316 0.16234 0.16316 0.16454 0 0.16482-0.1986 0.16482-0.34786 0-0.12171 0.053-0.85045 0.0721-1.2109 0.0734-0.92828 0.14494-1.2188 0.14494-1.3252 0-0.10644-0.0563-0.14577-0.12755-0.14577-0.0895 0-0.16266 0.09141-0.28988 0.23771-0.162 0.17811-0.4342 0.23015-0.86801 0.27001-0.42025 0.03477-2.5069 0.03479-2.9047 0.03479-0.10899-0.000001-0.12921-0.07453-0.12921-0.19878v-4.5918c0-0.12552 0.0376-0.17973 0.12921-0.17973 0.363 0 2.2667 0.03767 2.5759 0.07371 0.9058 0.10602 1.087 0.32611 1.2142 0.65349 0.0886 0.21542 0.10933 0.52377 0.10933 0.65184 0 0.16284 0.0364 0.25593 0.16316 0.25593 0.12765 0 0.16443-0.11092 0.18139-0.20209 0.0373-0.2167 0.0729-1.0128 0.0919-1.1977 0.0543-0.83202 0.14411-1.0493 0.14411-1.1786 0-0.0899-0.0182-0.16068-0.10933-0.16068zm-119.23 0.11016 0.25344 0.5102h-0.5044l0.25096-0.5102zm20.05 0.0025 0.25344 0.51269-0.50606-0.0017 0.25262-0.51103zm6.7834 0.0033 0.25427 0.50937h-0.50689l0.25262-0.50937zm14.92 0.02733c-0.2748 0-0.40088 0.03639-0.40088 0.16234 0 0.12849 0.10795 0.16399 0.30811 0.16399 0.25317 0 0.56355 0.01823 0.70816 0.05301 0.59538 0.13273 0.74249 0.41915 0.77938 1.0353 0.0365 0.57927 0.0365 1.0878 0.0365 3.8481h-0.00083v2.6463c0 2.6275 0.69022 3.973 1.6143 4.8072 1.3244 1.1988 3.066 1.2548 4.027 1.2548 1.1806 0 2.4873-0.20225 3.7743-1.3086 1.5237-1.3053 1.7228-3.4451 1.7228-5.4615v-1.9389c0-2.7602 0.0008-3.268 0.0373-3.8472 0.0348-0.63567 0.17984-0.94242 0.67006-1.0361 0.2167-0.03477 0.32746-0.05218 0.52677-0.05218 0.21712 0 0.32881-0.03633 0.32881-0.16482 0-0.12595-0.13203-0.16151-0.38265-0.16151-0.70988 0-1.8523 0.05632-2.0673 0.05632-0.0199 0-1.1623-0.05632-2.0864-0.05632-0.25486 0-0.38183 0.03556-0.38183 0.16151 0 0.12849 0.10881 0.16482 0.30812 0.16482s0.50763 0.01741 0.65266 0.05218c0.5992 0.13273 0.74413 0.41998 0.78187 1.0361 0.0352 0.57927 0.0356 1.087 0.0356 3.8472v2.2678c0 1.8663-0.0557 3.5004-1.0535 4.4982-0.72473 0.72388-1.7049 0.97982-2.5013 0.97982-0.61829 0-1.4539-0.07286-2.2694-0.74542-0.88926-0.72515-1.4147-1.83-1.4147-4.4618v-2.5378c0-2.7602-0.00002-3.2688 0.0365-3.8481 0.0348-0.63567 0.18278-0.9416 0.67088-1.0353 0.21839-0.03477 0.32493-0.05301 0.52594-0.05301 0.18192 0 0.29072-0.0355 0.29072-0.16399 0-0.12595-0.12653-0.16234-0.40005-0.16234-0.65348 0-1.7924 0.05715-2.2313 0.05715-0.54153 0-1.6887-0.05715-2.6454-0.05715zm40.945 0c-0.29091 0-0.43648 0.03634-0.43648 0.1466 0 0.14418 0.10881 0.17973 0.28988 0.17973 0.21797 0 0.45332 0.01814 0.65432 0.07454 0.39862 0.08736 0.58187 0.39761 0.61622 1.0138 0.0377 0.57927 0.0373 1.0878 0.0373 3.8481h0.00083v3.1913c0 1.7599 0.00009 3.1937-0.0919 3.9549-0.0543 0.52626-0.16336 0.83567-0.52593 0.90776-0.16454 0.03732-0.38252 0.07289-0.6535 0.07289-0.21839 0-0.29071 0.0542-0.29071 0.14494 0 0.12595 0.12784 0.18221 0.36277 0.18221 0.7243 0 1.8712-0.05632 2.2876-0.05632 0.48767 0 1.6301 0.05632 2.8285 0.05632 0.19889 0 0.34372-0.05627 0.34372-0.18221 0-0.09118-0.0897-0.14494-0.29237-0.14494-0.26801 0-0.66777-0.03599-0.92433-0.07289-0.54407-0.07209-0.67086-0.40225-0.72471-0.8912-0.0738-0.77773-0.0737-2.212-0.0737-3.9715v-3.1913c0-2.7602-0.00005-3.2688 0.0373-3.8481 0.0369-0.63567 0.18151-0.9416 0.67088-1.0353 0.21925-0.03477 0.36521-0.05301 0.54417-0.05301 0.18107 0 0.2932-0.03597 0.2932-0.17973 0-0.11026-0.146-0.1466-0.38348-0.1466-0.68868 0-1.7585 0.05715-2.2114 0.05715-0.52415 0-1.6706-0.05715-2.358-0.05715zm74.924 0c-0.28963 0-0.43731 0.03634-0.43731 0.1466 0 0.14418 0.11301 0.17973 0.29154 0.17973 0.22009 0 0.45457 0.01814 0.65515 0.07454 0.40074 0.08736 0.57979 0.39761 0.61456 1.0138 0.039 0.57927 0.0398 1.0878 0.0398 3.8481h0.00083v3.1913c0 1.7599-0.00067 3.1937-0.0961 3.9549-0.0543 0.52626-0.15787 0.83567-0.52511 0.90776-0.16454 0.03732-0.38044 0.07289-0.65184 0.07289-0.21457 0-0.28988 0.0542-0.28988 0.14494 0 0.12595 0.12699 0.18221 0.36277 0.18221 0.72812 0 1.8687-0.05632 2.2843-0.05632 0.49149 0 1.6309 0.05632 2.831 0.05632 0.19889 0 0.34538-0.05627 0.34538-0.18221 0-0.09118-0.0923-0.14494-0.28823-0.14494-0.27395 0-0.67448-0.03599-0.92764-0.07289-0.54408-0.07209-0.67341-0.40225-0.72472-0.8912-0.0721-0.77773-0.0721-2.212-0.0721-3.9715v-3.1913c0-2.7602 0.00002-3.2688 0.0348-3.8481 0.0373-0.63567 0.17941-0.9416 0.67005-1.0353 0.21967-0.03477 0.36557-0.05301 0.54665-0.05301s0.28906-0.03597 0.28906-0.17973c0-0.11026-0.1452-0.1466-0.38182-0.1466-0.69208 0-1.761 0.05715-2.2139 0.05715-0.52499 0-1.6651-0.05715-2.3572-0.05715zm-65.438 0.000828c-0.27098 0-0.46962 0.01521-0.46962 0.16151 0 0.10941 0.0554 0.16648 0.217 0.16648 0.14461 0 0.43383-0.000053 0.7065 0.07289 0.65306 0.17938 0.96093 0.37699 1.3782 1.3782l4.5695 11.084c0.34646 0.85661 0.45581 1.1082 0.69159 1.1082 0.25359 0 0.3616-0.28962 0.83571-1.3434 0.39777-0.90792 1.2516-2.8858 2.411-5.5302 0.97916-2.2335 1.4685-3.213 2.1758-4.919 0.49021-1.1615 0.76224-1.4701 0.99887-1.6317 0.3261-0.21839 0.7064-0.21783 0.88705-0.21783 0.17981 0 0.29238-0.03926 0.29238-0.16648 0-0.12595-0.14607-0.16151-0.381-0.16151-0.54662 0-1.3971 0.05466-1.7062 0.05466-0.23451 0-0.99707-0.05466-1.9042-0.05466-0.34306 0-0.50689 0.0363-0.50689 0.18387 0 0.12595 0.14485 0.14329 0.30811 0.14329 0.23536 0 0.50758 0.01653 0.72555 0.08862 0.16199 0.05598 0.23605 0.20035 0.23605 0.34538 0 0.16411-0.0741 0.43474-0.16316 0.6684-0.43467 1.2001-2.7936 7.0439-3.5764 9.0379h-0.0696l-3.1217-8.2386c-0.25274-0.65221-0.41661-1.1581-0.41661-1.3956 0-0.16284 0.0538-0.28816 0.18056-0.37934 0.14588-0.11026 0.41935-0.12672 0.70899-0.12672 0.16453 0 0.27083-0.03926 0.27083-0.16648 0-0.12595-0.19739-0.16151-0.41578-0.16151-0.90835 0-1.7767 0.05466-2.2305 0.05466-0.63609 0-1.67-0.05466-2.6322-0.05466zm33.928 0.000829c-0.27352 0-0.4017 0.0339-0.4017 0.15985 0 0.12849 0.10833 0.16648 0.30976 0.16648 0.25402 0 0.56151 0.01658 0.70485 0.05135 0.60047 0.13104 0.74747 0.41915 0.78352 1.0353 0.0361 0.57927 0.0356 1.0895 0.0356 3.8481v3.1904c0 1.6687-0.00028 3.1025-0.0944 3.8663-0.0704 0.51948-0.15958 0.9243-0.52428 0.99639-0.16454 0.03732-0.38257 0.07288-0.651 0.07288-0.21924 0.000004-0.29238 0.05252-0.29238 0.14412 0 0.12552 0.12999 0.18304 0.36195 0.18304 0.72812 0 1.873-0.05715 2.2131-0.05715 0.27267 0 1.6191 0.05715 2.6678 0.05715 0.2362 0 0.36525-0.05752 0.36525-0.18304 0-0.0916-0.0728-0.14412-0.21948-0.14412-0.21839 0.000004-0.61643-0.03599-0.89037-0.07288-0.54408-0.07209-0.65474-0.47648-0.70733-0.99639-0.0899-0.76416-0.0903-2.198-0.0903-3.8862v-0.25096c0-0.1128 0.0538-0.1466 0.14246-0.1466l1.5811 0.03396c0.12849 0 0.23686 0.02192 0.32633 0.12921 0.2379 0.27479 1.0697 1.5076 1.7948 2.5055 1.0178 1.3964 1.7082 2.2475 2.4872 2.6686 0.4686 0.25317 0.92533 0.34372 1.9431 0.34372h1.7228c0.21543 0 0.34373-0.03589 0.34373-0.18304 0-0.0916-0.0716-0.14411-0.21535-0.14411-0.148 0-0.31041-0.01646-0.51268-0.05632-0.27056-0.05767-1.0136-0.17948-2.0292-1.2324-1.0708-1.1246-2.3222-2.7391-3.9383-4.7691 1.8345-1.4889 2.3978-2.7254 2.3978-4.0659 0-1.2154-0.72735-2.142-1.2333-2.4872-0.98171-0.67045-2.1979-0.7769-3.3403-0.7769-0.56316 0-1.9407 0.05384-2.556 0.05384-0.37953 0-1.5247-0.05384-2.4848-0.05384zm57.582 0c-0.21669 0-0.34455 0.05507-0.34455 0.16151 0 0.12722 0.12791 0.16482 0.27167 0.16482 0.21839 0 0.52752 0.10889 0.76033 0.23357 0.34646 0.20058 0.79944 0.65601 1.2515 1.326 0.63567 0.94354 3.0666 4.9328 3.1896 5.2263 0.24003 0.52245 0.41827 0.92125 0.41827 1.9008h-0.00082v1.4892c0 0.29133-0.00008 1.0539-0.0497 1.8164-0.0399 0.51948-0.20021 0.92557-0.56321 0.99639-0.16624 0.03732-0.37958 0.07289-0.63444 0.07289-0.20101 0-0.29237 0.0542-0.29237 0.14494 0 0.14545 0.14679 0.18221 0.40335 0.18221 0.66875 0 1.812-0.05632 2.2628-0.05632 0.49191 0 1.6342 0.05632 2.7804 0.05632 0.23111 0 0.37768-0.05627 0.37768-0.18221 0-0.09117-0.094-0.14494-0.28906-0.14494-0.25698 0-0.65201-0.03599-0.90942-0.07289-0.54068-0.07039-0.70782-0.47648-0.73963-0.99639-0.0577-0.76289-0.058-1.525-0.058-1.8164v-1.4892c0-0.59666 0.00023-1.1578 0.27332-1.8139 0.32611-0.7807 2.8675-5.0415 3.4646-5.7704 0.39989-0.48683 0.59988-0.70646 0.979-0.88457 0.27521-0.14545 0.61691-0.21783 0.79926-0.21783 0.19888 0 0.34289-0.05671 0.34289-0.18139 0-0.11026-0.12235-0.14494-0.32633-0.14494-0.34264 0-1.5433 0.05466-1.9398 0.05466-0.52287 0-1.1083-0.05466-1.7054-0.05466-0.21628 0-0.30894 0.03429-0.30894 0.16151 0 0.10814 0.16311 0.14661 0.32467 0.18139 0.31212 0.07209 0.38514 0.27153 0.38514 0.45388 0 0.2362-0.0732 0.5451-0.25344 0.94669-0.25402 0.55976-2.541 4.5488-2.7192 4.9877-0.29558-0.51057-2.8358-4.8843-3.0869-5.4259-0.12806-0.25656-0.217-0.47202-0.217-0.61705 0-0.14376 0.0885-0.28901 0.25179-0.32633 0.27182-0.07294 0.40088-0.09272 0.40088-0.20044 0-0.10644-0.0889-0.16151-0.2725-0.16151-0.81802 0-1.5602 0.05549-1.9431 0.05549-0.59878 0-1.9574-0.05549-2.2835-0.05549zm-52.9 0.851c1.0699 0 2.7755 0.74427 2.7755 3.3205 0 1.488-0.52816 2.32-1.0693 2.7216-0.32526 0.23493-0.56357 0.30728-1.2904 0.30728-0.45036 0-0.99615-0.05378-1.3774-0.17973-0.12849-0.05258-0.16482-0.12656-0.16482-0.32799v-5.5128c0-0.14503 0.0363-0.2195 0.16482-0.25427 0.18108-0.0564 0.50828-0.07454 0.9616-0.07454zm-114.52 0.48287v3.5126c0.001 0.0081 0.004 0.16816-0.1524 0.32633-0.15521 0.15563-0.32187 0.1608-0.33544 0.15571l-5.57 0.0041-5.8475-0.005c-0.01 0.000001-0.18698-0.0016-0.3371-0.1466-0.15605-0.15012-0.14991-0.31121-0.14991-0.33793v-3.5035c0.13887 0.05406 0.27882 0.08282 0.38597 0.08282v0.000828h0.0273l11.552-0.0033c0.11837 0.0022 0.27487-0.02606 0.42738-0.08614zm-1.8801 1.08c-0.41771 0-0.71064 0.21922-0.71064 0.53091 0 0.17726 0.10014 0.32346 0.27995 0.41081 0.16029 0.07167 0.35381 0.08326 0.57729 0.10022l0.12092 0.0091c0.19338 0.01527 0.30646 0.09337 0.30646 0.20872 0 0.15394-0.17464 0.2609-0.42738 0.2609-0.22348 0-0.46415-0.08968-0.68-0.25676l-0.0671-0.05301-0.20872 0.30894 0.0596 0.04555c0.26504 0.20652 0.55936 0.3048 0.90031 0.3048 0.54832 0 0.79843-0.31208 0.79843-0.60214 0.00043-0.30321-0.23817-0.52329-0.6071-0.5657-0.0874-0.0089-0.17015-0.0144-0.24351-0.01822-0.17387-0.01145-0.30828-0.01637-0.38928-0.07786-0.0377-0.03096-0.0464-0.05738-0.0464-0.08282 0-0.08227 0.13131-0.16896 0.34207-0.16896 0.21712 0 0.42264 0.07561 0.60711 0.22446l0.0687 0.05549 0.21286-0.30728-0.0654-0.04638c-0.25105-0.18362-0.53734-0.28078-0.82825-0.28078zm-5.3372 0.0265v1.8072h0.36857v-1.8072h-0.36857zm0.7537 0.0091v0.35284h0.6858v1.4403h0.36526v-1.4403h0.68579v-0.35284h-1.7368zm2.5005 0.000828-0.87961 1.7915h0.39922l0.18801-0.39176 0.84896-0.0025 0.19712 0.39425h0.40088l-0.88623-1.7915h-0.26835zm-7.4352 0.000828v1.191c0 0.44527 0.23134 0.6419 0.7504 0.6419 0.5216 0 0.75371-0.19663 0.75371-0.6419v-1.191h-0.36443v1.1372c0 0.2926-0.0581 0.34538-0.38928 0.34538-0.32823 0-0.38597-0.05278-0.38597-0.34538v-1.1372h-0.36443zm2.0574 0v1.7915h0.36609v-1.0842l0.94338 1.0842h0.22114v-1.7915h-0.36526v1.0817l-0.94172-1.0817h-0.22363zm20.054 0.34621h0.62699c-0.35749 0.53181-0.8058 1.1952-0.80672 1.1952l-0.053 0.07537 0.007 0.09525c0 0.01187 0.0714 1.2237-0.46548 2.6562-0.34264 0.91768-1.0638 1.7155-1.529 2.1659 0.0157-0.45332 0.0759-1.1223 0.2667-1.8271 0.24595-0.92276 0.72393-1.8395 0.98727-2.3025l0.45554-0.80506-0.81748 0.43566c-0.13274 0.07082-1.3322 0.695-2.4823 0.9558-0.7137 0.16284-1.3813 0.19878-1.8338 0.19878h-0.002c0.46774-0.44696 1.2935-1.1366 2.2214-1.4461 1.4422-0.4775 2.5329-0.36653 2.5444-0.36526l0.1582 0.01822 0.0911-0.13169s0.3787-0.54724 0.63113-0.91853zm-34.439 0.005h0.62698c0.25215 0.37234 0.64687 0.94006 0.64687 0.94006l0.0919 0.13086 0.1582-0.01822c0.0119 0 1.092-0.11357 2.5444 0.36774 0.92828 0.30702 1.7537 0.99706 2.2189 1.4453-0.45205 0-1.1213-0.03721-1.8337-0.19878-1.1504-0.259-2.3498-0.886-2.4838-0.958l-0.81832-0.43235 0.45637 0.80506c0.26462 0.46223 0.73966 1.3747 0.98562 2.3001 0.1921 0.70988 0.25347 1.3772 0.27001 1.8288-0.46647-0.44739-1.1872-1.2469-1.529-2.165-0.53517-1.4261-0.46548-2.6464-0.46548-2.6579l0.006-0.09442-0.0522-0.0762s-0.45983-0.67612-0.82411-1.2167zm19.896 0.18718 0.25345 0.50689h-0.50606l0.25261-0.50689zm11.295 3.583c-0.29812 0-1.8732 0.0556-3.53 1.1289-1.8303 1.1887-2.427 2.6576-2.4508 2.72l-0.15736 0.39673 0.42737-0.02982c0.0827-0.0051 2.0159-0.15815 3.7694-1.2556 1.5012-0.93973 2.2144-2.5134 2.2446-2.58l0.15902-0.36278-0.46216-0.01739zm-27.301 0.02899-0.46299 0.01905 0.16068 0.3578c0.0297 0.06785 0.74293 1.6423 2.2454 2.5833 1.7535 1.0962 3.688 1.2463 3.7694 1.254l0.42904 0.02982-0.1582-0.39839c-0.025-0.06276-0.62303-1.5284-2.4524-2.7175-1.6581-1.0746-3.2327-1.1281-3.5308-1.1281zm26.895 0.53754c-0.29769 0.50082-0.90365 1.3635-1.8213 1.9373-1.1212 0.70056-2.3511 0.99122-3.0198 1.1057 0.29982-0.49276 0.91899-1.3181 2.0126-2.0267 1.1331-0.73702 2.2149-0.95393 2.8285-1.0163zm-26.488 0.02402c0.59072 0.06022 1.6843 0.27583 2.8293 1.0171 1.0937 0.70946 1.7124 1.5352 2.0135 2.0267-0.67002-0.11322-1.9006-0.40474-3.0223-1.1057-0.91937-0.57376-1.5232-1.4343-1.8205-1.9381zm18.632 3.2393c-0.51821 0-1.0121 0.18325-1.5066 0.56321l-0.0538 0.04141 0.32219 0.41992 0.0538-0.03561c0.45672-0.32356 0.84682-0.47376 1.2208-0.47376 0.46011 0 0.7007 0.21048 0.7007 0.41827 0 0.19634-0.26504 0.2935-0.86552 0.49281-0.14164 0.04962-0.3007 0.10291-0.47541 0.16482-0.70862 0.24765-0.95912 0.57978-0.95912 1.2689 0 0.02035 0.00079 0.07073 0.002 0.14494l0.0116 0.30894h2.9063v-0.51186h-2.3696c-0.003-0.03053-0.005-0.06059-0.005-0.09028 0-0.42237 0.25358-0.52842 0.98976-0.77607l0.1466-0.04969c0.68359-0.22985 1.1769-0.39416 1.1769-0.94586 0-0.46902-0.44554-0.94007-1.2962-0.94007zm-8.719 0.0033c-0.85492 0-1.4072 0.35569-1.4072 0.90528 0 0.21542 0.0983 0.40808 0.28492 0.5599-0.33459 0.18108-0.50275 0.45545-0.50275 0.81252 0 0.67638 0.63781 1.1165 1.625 1.1165 0.98171 0 1.6184-0.44089 1.6184-1.119 0.00043-0.35834-0.16279-0.62641-0.49695-0.81003 0.18617-0.15139 0.28409-0.34447 0.28409-0.5599 0-0.54959-0.55275-0.90528-1.4055-0.90528zm-3.3039 0.05549v3.2724h0.54665v-3.2724h-0.54665zm8.319 0.01159-2.5262 2.0093v0.48204h2.4814v0.75123h0.54167v-0.75123h0.52097v-0.51517h-0.52014v-1.9762h-0.49778zm-5.0151 0.44477c0.58054 0 0.84564 0.19289 0.84564 0.37354 0.00043 0.22772-0.30835 0.35864-0.84564 0.35864-0.52754 0-0.84316-0.12869-0.84316-0.34538 0-0.23663 0.33131-0.38679 0.84316-0.38679zm4.9712 0.26007v1.2705h-1.5977l1.5977-1.2705zm-4.9712 0.98562c0.76119 0 1.0577 0.14612 1.0577 0.52014 0 0.36724-0.41522 0.60131-1.0577 0.60131-0.64712 0-1.066-0.23407-1.066-0.60131 0-0.36894 0.30858-0.52014 1.066-0.52014z"/></svg>
