<?xml version="1.0" encoding="utf-8"?>
<!-- Generator: Adobe Illustrator 25.4.1, SVG Export Plug-In . SVG Version: 6.00 Build 0)  -->
<svg version="1.1" xmlns="http://www.w3.org/2000/svg" xmlns:xlink="http://www.w3.org/1999/xlink" x="0px" y="0px"
	 viewBox="0 0 338.56 80.51" style="enable-background:new 0 0 338.56 80.51;" xml:space="preserve">
<style type="text/css">
	.st0{fill:#BCA271;}
	.st1{fill:#983142;}
</style>
<g id="Gold">
	<polygon class="st0" points="39.14,1.42 60.5,1.42 60.52,20.85 50.44,20.85 50.44,10.67 50.44,9.31 49.08,9.31 39.14,9.31 	"/>
	<polygon class="st0" points="1.36,1.42 22.78,1.42 22.78,9.31 12.64,9.31 11.28,9.31 11.28,10.67 11.27,20.85 1.36,20.85 	"/>
	<path class="st0" d="M22.78,74.84c-0.07-0.05-0.15-0.09-0.21-0.14C12.1,68.08,6.95,58.7,4.45,51.57c-0.11-0.32-0.23-0.63-0.33-0.94
		c-1.99-5.9-2.54-10.93-2.7-13.6h9.86l0,2.25c0,0.93,0.11,5.86,2.29,11.57c2.01,5.28,5.11,9.58,9.22,12.86V74.84z"/>
	<path class="st0" d="M57.78,50.62c-0.1,0.31-0.22,0.63-0.33,0.94C54.97,58.63,49.9,67.9,39.62,74.5c0,0-0.22,0.13-0.53,0.32V63.58
		c4.04-3.26,7.08-7.52,9.07-12.74c2.17-5.71,2.29-10.64,2.29-11.57l0-2.25h10.03C60.32,39.7,59.76,44.75,57.78,50.62z"/>
	<g>
		<path class="st0" d="M24.75,48.53c0,0,0.01-0.04,0.03-0.05c0.02-0.02,0.05-0.02,0.06-0.02c0.39-0.05,1.15-0.14,1.63-0.16
			c0.09,0,0.21-0.01,0.33-0.01c1.03,0,1.71,0.32,2.26,0.99c0,0,0.08,0.09,0.17,0.22l0.07,0.1c0.05,0.07,0.12,0.17,0.15,0.25
			c0.02,0.04,0.02,0.06,0.02,0.06c-0.21,0.89-1.13,1.65-2.16,2.03c-0.34,0.13-1.24,0.34-1.67,0.26c-0.21-0.04-0.36-0.15-0.5-0.29
			c-0.17-0.18-0.35-0.66-0.39-0.82C24.5,50.03,24.5,49.29,24.75,48.53z"/>
		<path class="st0" d="M22.7,48.65c0.22-0.23,0.49-0.34,0.8-0.34c0.05,0,0.1,0,0.16,0.01c0.01,0,0.03,0,0.04,0.01
			c0.01,0,0.02,0.01,0.02,0.02c0.01,0.02-0.01,0.04-0.01,0.04c-0.5,1.14-0.46,2.34,0.12,3.88c0.11,0.29,0.12,0.51,0.02,0.66
			c-0.12,0.19-0.38,0.2-0.38,0.2l0,0c-0.6,0.08-1.07-0.59-1.28-1.84C22.04,50.39,22.14,49.23,22.7,48.65z"/>
		<path class="st0" d="M44.19,30.06c-0.4,0.43-0.8,0.81-1.14,1.12c-0.97,0.9-2.37,1.38-2.53,1.43c-0.62,0.2-1.17,0.34-1.67,0.41
			c-0.55,0.08-0.88,0.09-1.13,0.1c-0.06,0-0.11,0-0.16,0.01c-0.34,0.02-0.56,0.11-0.67,0.28c-0.12,0.18-0.05,0.37-0.05,0.39
			c0.05,0.14,0.24,0.34,0.55,0.34c1.14,0,2.04-0.12,2.94-0.39c0.21-0.06,0.42-0.14,0.62-0.22c0.57-0.23,1.15-0.46,1.8-0.26
			c0.35,0.11,0.52,0.29,0.63,0.44c0.08,0.11,0.13,0.25,0.15,0.42c0.07,0.58-0.23,1.34-0.54,1.75c-0.33,0.42-0.79,0.98-1.49,1.49
			c-1.19,0.87-1.85,1.04-2.7,1.25c-0.1,0.02-0.2,0.05-0.3,0.08c-0.93,0.24-1.92,0.33-2.85,0.39l-0.55,0.03
			c-0.69,0.04-1.41,0.09-2.1,0.22l-0.02,0c-0.69,0.13-1.39,0.26-1.96,0.72c-0.38,0.31-0.6,0.68-0.63,1.12
			c-0.04,0.41,0.07,0.81,0.31,1.22c0.14,0.24,0.33,0.47,0.51,0.67c0.14,0.17,0.28,0.33,0.36,0.47c0.23,0.4,0.25,0.75,0.06,1.07
			c-0.5,0.83-2.24,0.73-2.26,0.73c-0.22,0-0.46-0.02-0.71-0.03c-0.41-0.02-0.82-0.05-1.21-0.04l-0.05,0
			c-0.77,0.02-1.57,0.04-2.34,0.16c-1.5,0.23-2.74,0.63-3.81,1.22c-0.4,0.22-0.78,0.47-1.15,0.71l-0.03,0.02
			c-2.63,1.57-3.88,1.98-4.02,2.05l1.61-2.22c0.9-1.27,1.82-2.59,2.71-3.25c1-0.75,2.28-1.13,3.79-1.14
			c1.43-0.01,2.81,0.33,3.7,0.61c0.02,0.01,0.05,0.02,0.08,0.02l0.09,0.03c0.06,0.02,0.11,0.04,0.17,0.06
			c0.29,0.11,0.61,0.23,0.89,0.08c0.1-0.07,0.13-0.16,0.14-0.17c0.09-0.24-0.13-0.39-0.27-0.46c-2.39-1.04-4.78-1.38-7.31-1.05
			c0.01-0.01,0.02-0.02,0.02-0.03l0.04-0.05c0.05-0.08,0.12-0.17,0.16-0.22c0.21-0.23,0.44-0.46,0.73-0.77
			c0.61-0.64,1.14-1.17,1.64-1.67c0.15-0.15,0.35-0.35,0.58-0.5c1.01-0.66,2.42-1.02,3.55-1.3l0.04-0.01
			c1.32-0.33,2.46-0.5,3.47-0.51c0.11,0,0.22,0,0.32,0l1.79,0.05c2.22,0.09,4.52,0.18,6.22-0.72l0,0l0.04-0.02
			c0.02-0.01,0.04-0.03,0.07-0.04l0.02-0.01c0.01,0,0.02-0.01,0.02-0.01c0.14-0.08,0.31-0.17,0.45-0.3
			c0.05-0.04,0.09-0.09,0.12-0.13c0.04-0.05,0.06-0.1,0.08-0.15c0.02-0.06,0.03-0.12,0.02-0.18C41.03,35.28,41,35.23,41,35.23
			c-0.09-0.15-0.25-0.19-0.47-0.11c-0.02,0.01-0.1,0.05-0.11,0.06c-1.17,0.66-2.6,1.06-5.78,0.85c-0.86-0.06-1.57-0.1-2.26-0.1
			c-0.08,0-0.16,0-0.24,0c-1.73,0.01-2.95,0.15-4.07,0.46l-1.09,0.27l0.84-0.7c0.57-0.48,1.15-0.95,1.85-1.52
			c0.77-0.62,1.78-1.39,2.8-1.84c0.59-0.26,1.24-0.41,1.82-0.55l0.01,0c1.03-0.24,2.13-0.49,3.21-0.7c0.28-0.05,0.55-0.1,0.83-0.15
			l0.04-0.01c1.17-0.2,2.28-0.39,3.35-1.02c1.22-0.72,2.21-1.82,2.8-3.09c0.05-0.1,0.01-0.23-0.1-0.28
			c-0.1-0.05-0.23-0.01-0.28,0.08c-1.07,1.84-3.16,2.74-4.74,3.17c-0.95,0.26-1.94,0.42-2.89,0.59l-0.06,0.01
			c-0.62,0.1-1.26,0.21-1.9,0.35c1.77-1.4,3.35-3.27,4.69-5.55c1.44-2.46,2.81-5.2,3.74-7.53c0.02-0.06,0.06-0.15,0.07-0.25
			c0-0.04,0-0.08-0.01-0.12c-0.01-0.05-0.03-0.09-0.06-0.12c-0.04-0.04-0.08-0.06-0.08-0.06c-0.12-0.05-0.25,0.01-0.35,0.15
			c0,0.01-0.01,0.02-0.02,0.03c-1.06,2.35-2.51,5.02-4.07,7.52c-1.52,2.42-3.29,4.35-5.26,5.72c0.63-1.6,0.55-3.41,0.47-5.16
			c-0.01-0.26-0.02-0.52-0.03-0.78c-0.07-1.87,0.02-3.76,0.27-5.6c0.01-0.1-0.05-0.2-0.14-0.23c-0.09-0.04-0.2,0-0.25,0.09
			c-0.3,0.52-0.43,1.16-0.53,2.03c-0.13,1.09-0.16,2.3-0.09,3.8c0.06,1.25,0.12,2.55-0.05,3.81c-0.16,1.22-0.73,2.11-1.14,2.68
			c-0.52,0.71-1.26,1.23-1.91,1.63c-0.75,0.47-1.42,1.04-2.06,1.6l-1.01,0.85l0.02-0.09c0.31-1.13,0.45-2.36,0.46-4.11
			c0.02-0.79-0.03-1.61-0.09-2.53c-0.13-2.11-0.26-4.1,0.61-5.78c0.02-0.04,0.04-0.08,0.04-0.12c0.01-0.04,0.01-0.08,0.01-0.12
			c0-0.05-0.02-0.09-0.05-0.12c-0.03-0.04-0.07-0.06-0.07-0.06c-0.17-0.1-0.31-0.01-0.38,0.07c-0.01,0.01-0.02,0.03-0.04,0.06
			c-0.01,0.01-0.02,0.02-0.03,0.03c-1.16,1.74-1.06,4.26-0.97,6.7l0.04,1.81c0.04,1.73-0.25,3.54-0.81,4.97
			c-0.24,0.63-0.65,1.02-1.12,1.47l-0.28,0.27c-0.48,0.48-0.96,0.97-1.44,1.45l-0.1,0.1c-0.16,0.16-0.31,0.32-0.44,0.46l-0.09,0.1
			c-0.06,0.07-0.12,0.13-0.19,0.2c0.23-1,0.43-1.91,0.53-2.86c0.03-0.29,0.11-1.43,0.06-1.77c-0.02-0.13-0.12-0.28-0.31-0.28h0
			c-0.23,0-0.29,0.25-0.31,0.36c0,0-0.03,0.31-0.08,0.59c-0.28,1.99-0.82,4.89-2.33,7.09c-0.78,1.15-3.95,5.43-4.6,6.32
			c-0.02,0.03-0.04,0.06-0.11,0.15c-0.06-0.18-0.13-0.36-0.19-0.53l0.03-0.05c0-0.01,0.01-0.01,0.01-0.02
			c0.64-0.97,4.5-6.84,5.17-9.79c0.15-0.66,0.29-1.33,0.41-1.93l0.01-0.04c0.3-1.51,0.62-3.07,1.14-4.52
			c0.21-0.58,0.55-1.29,1.03-1.41c0.22-0.05,0.45,0.02,0.68,0.23c0.18,0.16,0.31,0.4,0.37,0.69c0.07,0.28,0.08,0.58,0.09,0.87
			c0.01,0.31,0.02,0.6,0.1,0.89c0.07,0.27,0.31,0.61,0.59,0.66c0.17,0.04,0.32-0.03,0.45-0.21c0.13-0.18,0.17-0.41,0.19-0.63
			c0.05-0.59,0.02-1.19-0.01-1.78l0-0.06c-0.02-0.34-0.04-0.69-0.04-1.03c0-1.22,0.06-2.46,0.18-3.68c0.11-1.11,0.27-2.41,0.58-3.64
			c0.23-0.9,0.59-1.76,1.08-2.55c0.24-0.4,0.51-0.78,0.81-1.13l0.08-0.09c0.13-0.16,0.28-0.34,0.45-0.47l0.01-0.01v0
			c0.08-0.07,0.64-0.52,1.27-0.23l0.01,0c0.21,0.09,0.83,0.37,0.35,2.46c-0.01,0.06-0.05,0.22-0.09,0.37
			c-0.04,0.16-0.08,0.33-0.09,0.39c-0.05,0.2-0.09,0.4-0.14,0.59l0,0.01c-0.09,0.36-0.18,0.74-0.25,1.12
			c-0.05,0.28-0.13,0.57-0.18,0.78l0,0.01c-0.08,0.31-0.17,0.67-0.22,1.01c-0.09,0.61-0.15,1.33,0.19,1.55
			c0.1,0.07,0.24,0.04,0.31,0.02c0.72-0.22,0.78-1.04,0.82-1.71c0.01-0.11,0.01-0.21,0.02-0.3l0.26-2.64
			c0.01-0.15,0.03-0.31,0.04-0.47c0.05-0.61,0.09-1.25,0.33-1.81c0.23-0.56,0.63-1.03,1.01-1.48c0.15-0.18,0.32-0.37,0.48-0.55
			c0.42-0.47,0.85-0.95,1.18-1.49c0.11-0.18,0.37-0.67,0.37-0.67l0.01-0.03c0.09-0.17,0.19-0.35,0.29-0.52
			c0.38-0.64,0.81-1.36,1.72-1.09c0.99,0.28,0.99,1.68,0.99,2.51v0.03c0,0.14,0,0.28-0.01,0.42c-0.04,1.22-0.18,2.13-0.29,2.79
			l0,0.01c-0.06,0.38-0.11,0.71-0.12,0.94c0,0.31,0.09,0.46,0.32,0.51c0.07,0.02,0.15,0.03,0.22,0.03c0.72,0,1.55-1.3,2.26-2.57
			c0.18-0.33,0.36-0.67,0.52-0.99l0.01-0.02c0.26-0.51,0.55-1.08,0.89-1.6c0.08-0.13,0.18-0.26,0.3-0.36
			c0.23-0.18,0.47-0.23,0.71-0.15c0.18,0.06,0.44,0.02,0.59-0.25c0.02-0.04,0.05-0.08,0.07-0.11c0.01-0.01,0.02-0.03,0.03-0.04
			l0.05-0.07c0.01-0.02,0.02-0.03,0.03-0.04c0.2-0.25,0.43-0.5,0.7-0.63c0.26-0.12,0.52-0.13,0.78-0.02
			c0.39,0.17,0.65,0.58,0.7,0.76c0.15,0.52,0.04,0.99-0.04,1.3c-0.01,0.03-0.01,0.05-0.02,0.07c-0.02,0.1-0.06,0.21-0.1,0.32
			c-0.06,0.17-0.13,0.34-0.11,0.51c0.02,0.14,0.11,0.25,0.2,0.37l0.06,0.07c0.4,0.54,0.48,1.24,0.22,2.09
			c-0.29,0.94-0.99,1.8-1.54,2.49l-0.05,0.07c-0.1,0.13-0.2,0.25-0.29,0.37c-0.15,0.2-0.33,0.39-0.5,0.58l-0.01,0.01
			c-0.24,0.25-0.5,0.54-0.7,0.85c-0.22,0.37-0.27,0.62-0.15,0.74c0.06,0.06,0.17,0.09,0.31,0.09c0.67,0,2.05-0.64,2.45-0.87
			l0.03-0.02c0.54-0.31,1.05-0.6,1.49-0.6c0.32,0,0.58,0.17,0.76,0.51c0.13,0.23,0.19,0.49,0.18,0.77
			C46.46,27.42,45.24,28.93,44.19,30.06z"/>
	</g>
</g>
<g id="Red">
	<g>
		<path class="st1" d="M49.07,10.68H12.64l0,28.6c0,0.77,0.08,4.39,1.45,8.9c0-0.01-0.01-0.02-0.01-0.02
			c0.59-0.84,1.43-2.07,2.24-3.44l0.13-0.23c0.91-1.59,1.57-3.01,2-4.26L18.52,40c0.02-0.05,0.03-0.09,0.04-0.14
			c0.08-0.28,0.16-0.55,0.22-0.82c0.13-0.55,0.24-1.07,0.35-1.57l0.08-0.35c0.39-1.78,0.7-3.18,1.07-4.21
			c0.18-0.5,0.46-1.23,0.92-1.73c0.57-0.7,1.31-1,2.09-0.89c0.18,0.03,0.35,0.07,0.52,0.14c-0.07-2.13,0-5.11,1.14-7.88
			c0.19-0.52,0.43-1.03,0.68-1.51c0.62-1.14,1.37-2.24,2.51-2.64c0.72-0.25,1.56-0.05,2.15,0.49c0.13-0.21,0.3-0.41,0.38-0.5
			c0.16-0.17,0.32-0.34,0.48-0.51l0.16-0.17c0.41-0.42,0.73-0.82,1.04-1.29c0.14-0.22,0.27-0.45,0.4-0.68
			c0.17-0.29,0.33-0.58,0.52-0.86c0.72-1.06,1.61-1.5,2.5-1.28c0.79,0.2,1.15,0.94,1.35,1.48c0.54,1.42,0.54,3.05,0.48,4.31
			c0,0.04,0,0.08,0,0.11c0.27-0.36,0.78-1.44,0.78-1.44c0.02-0.06,0.05-0.11,0.07-0.17c0.16-0.39,0.78-1.84,1.59-2.35
			c0.41-0.26,0.79-0.35,0.94-0.46c0.18-0.14,0.35-0.29,0.52-0.45c0.38-0.35,0.62-0.55,1.16-0.74c1.24-0.41,2.37,0.51,2.83,1.52
			c0.32,0.72,0.25,1.57,0.18,2.44l-0.01,0.07c-0.01,0.16-0.03,0.31,0.01,0.43c0.03,0.1,0.1,0.2,0.18,0.31l0.07,0.1
			c0.59,0.87,0.63,1.97,0.11,3.29c-0.12,0.3-0.28,0.6-0.5,0.91c-0.08,0.12-0.18,0.23-0.28,0.34c-0.02,0.02-0.04,0.04-0.06,0.06
			c0.21,0,1.28-0.73,2.12-0.13c1.04,0.74,0.96,2.59,0.28,4.27c-0.44,1.08-1.11,2.02-1.75,2.92l-0.35,0.49
			c-0.15,0.21-0.8,0.94-1.22,1.35c0.12,0.1,0.23,0.21,0.34,0.35c0.1,0.12,0.18,0.25,0.24,0.4c0.37,0.56,0.47,1.29,0.29,2.11
			c-0.13,0.61-0.41,1.23-0.77,1.7c-0.39,0.5-0.94,1.15-1.78,1.78c-1.42,1.04-2.33,1.27-3.21,1.49c-0.09,0.02-0.19,0.05-0.28,0.07
			c-0.93,0.24-2.39,0.4-3.05,0.44c-0.66,0.04-2.38-0.04-3.54,0.17c-0.37,0.07-0.86,0.29-0.57,0.72c0.18,0.27,0.5,0.45,0.78,0.6
			c0.45,0.25,0.99,0.45,1.29,0.89c0.24,0.34,0.31,0.77,0.23,1.18c-0.07,0.38-0.26,0.72-0.49,1.03c-0.83,1.08-2.16,1.42-3.47,1.42
			c-0.93,0-1.85-0.16-2.77-0.25c-2.26-0.23-4.71-0.05-6.54,1.3c-0.22,0.16-0.44,0.35-0.54,0.61c-0.1,0.26-0.04,0.6,0.2,0.73
			c0.36,0.2,0.8-0.12,1.02-0.46l0,0c0.1-0.16,0.22-0.31,0.35-0.45c0.55-0.56,1.62-1.01,2.49-0.5c0.13-0.02,1.07-0.17,1.77-0.2
			c0.8-0.03,2.32-0.04,3.43,1.33c0,0,0.37,0.5,0.78,0.77c0.01,0,0.02,0.01,0.04,0.03c0.03,0.02,0.07,0.06,0.08,0.12
			c0.01,0.06-0.01,0.11-0.03,0.14c-0.01,0.03-0.02,0.03-0.03,0.04c-0.27,0.41-0.42,1.01-0.42,1.01c-0.5,1.69-1.96,2.39-2.7,2.67
			c-0.61,0.23-1.8,0.28-1.8,0.28c-0.61,0.8-1.62,0.9-2.34,0.59c-0.95-0.4-1.57-1.33-1.9-2.39v0c-0.25-0.82-0.81-1.35-1.12-1.48
			c-1.01-0.41-1.71-0.58-2.78-0.37c-0.82,0.16-1.64,0.77-2.14,1.47c0,0-0.01,0.01-0.01,0.02c3.05,7.1,8.26,12.21,15.5,15.21
			c7.67-3.18,13.06-8.73,16.02-16.5c2.09-5.49,2.2-10.19,2.2-11.08L49.07,10.68z"/>
	</g>
	<polygon class="st1" points="24.15,1.42 24.21,1.42 37.7,1.42 37.77,1.42 37.77,9.31 24.15,9.31 	"/>
	<polygon class="st1" points="1.36,22.3 1.36,22.21 11.27,22.21 11.27,35.66 1.37,35.66 	"/>
	<path class="st1" d="M37.73,75.64c-0.01,0-0.01,0.01-0.02,0.01h-0.02c-0.51,0.3-1.04,0.6-1.49,0.84c-0.06,0.03-0.11,0.06-0.18,0.09
		c-1.64,0.85-3.17,1.55-4.68,2.15l-0.41,0.15l-0.37-0.15c-1.5-0.59-3.03-1.29-4.66-2.14c0,0,0,0,0,0c0,0-0.84-0.43-1.75-0.95V64.73
		c1.87,1.32,3.93,2.46,6.19,3.39l0.52,0.22l0.52-0.22c2.32-0.96,4.43-2.13,6.35-3.5V75.64z"/>
	<polygon class="st1" points="50.44,35.66 50.44,22.21 60.52,22.21 60.52,22.3 60.53,35.66 	"/>
</g>
<g id="Black">
	<g>
		<path d="M99.24,52.08v-0.65h5.49v0.65c-1.86,0-2.13,0.38-2.13,2.62v5.17c0,3.52-2.44,5.38-5.4,5.38c-2.98,0-5.38-1.86-5.38-5.38
			V54.7c0-2.24-0.29-2.62-2.15-2.62v-0.65h7.1v0.65c-1.88,0-2.15,0.38-2.15,2.62v4.93c0,2.89,1.54,4.23,3.47,4.23
			c1.93,0,3.29-1.34,3.29-4.23V54.7C101.39,52.46,101.12,52.08,99.24,52.08z"/>
		<path d="M127.85,54.7c0-2.24-0.29-2.62-2.15-2.62v-0.65h5.31v0.65c-1.88,0-2.15,0.38-2.15,2.62v10.55h-0.56l-9.27-11.07v7.41
			c0,2.24,0.29,2.62,2.15,2.62v0.65h-5.29v-0.65c1.86,0,2.13-0.38,2.13-2.62v-6.9c0-2.24-0.27-2.62-2.13-2.62v-0.65h4.48l7.48,8.92
			V54.7z"/>
		<path d="M142.3,64.87v-0.65c1.86,0,2.13-0.38,2.13-2.62v-6.9c0-2.24-0.27-2.62-2.13-2.62v-0.65h7.08v0.65
			c-1.86,0-2.15,0.38-2.15,2.62v6.9c0,2.24,0.29,2.62,2.15,2.62v0.65H142.3z"/>
		<path d="M171.95,54.05l-4.86,11.2h-0.47l-4.88-11.2c-0.63-1.46-0.94-1.97-2.73-1.97v-0.65h7.35v0.65c-1.97,0-2.2,0.51-1.68,1.7
			l3.14,7.28l3.16-7.28c0.52-1.21,0.18-1.7-1.68-1.7v-0.65h5.42v0.65C173.16,52.08,172.65,52.46,171.95,54.05z"/>
		<path d="M184.34,64.22c1.86,0,2.13-0.38,2.13-2.62v-6.9c0-2.24-0.27-2.62-2.13-2.62v-0.65h11.54l0.18,3.16h-0.65l-0.11-0.45
			c-0.31-1.19-0.54-1.7-2.6-1.7h-3.43v4.82h1.23c2.24,0,2.6-0.29,2.6-2.15h0.65v5.31h-0.65c0-1.88-0.36-2.15-2.6-2.15h-1.23v2.98
			c0,2.24,0.29,2.62,2.15,2.62h2.02c2.06,0,2.31-0.52,2.6-1.7l0.11-0.45h0.65l-0.18,3.16h-12.28V64.22z"/>
		<path d="M219.02,61.35c1.97,2.17,2.82,2.69,4.19,2.87v0.65h-4.86l-3.99-5.89h-0.65v2.62c0,2.24,0.29,2.62,2.15,2.62v0.65h-7.08
			v-0.65c1.86,0,2.13-0.38,2.13-2.62v-6.9c0-2.24-0.27-2.62-2.13-2.62v-0.65h7.5c2.78,0,4.52,1.7,4.52,3.79
			c0,1.95-1.52,3.54-3.96,3.76L219.02,61.35z M217.81,55.22c0-1.52-0.92-2.78-2.87-2.78h-1.23v5.53h1.23
			C216.89,57.97,217.81,56.74,217.81,55.22z"/>
		<path d="M234.49,65.25h-0.65v-4.93h0.65c0.45,2.4,2.31,3.92,4.14,3.92c1.3,0,2.24-0.74,2.24-2.22c0-0.81-0.6-1.72-1.66-2.26
			l-2.15-1.12c-1.88-0.96-3.02-2.02-3.02-4.23c0-1.84,1.72-3.36,3.9-3.36c1.32,0,2.06,0.42,2.73,0.92c0.27-0.22,0.54-0.56,0.65-1.03
			h0.63v4.93h-0.65c-0.16-1.79-0.87-3.83-3.23-3.83c-0.92,0-1.81,0.67-1.81,1.79c0,0.67,0.58,1.68,1.79,2.28l2.15,1.1
			c1.59,0.83,2.89,2.2,2.89,3.96c0,2.44-2.15,4.08-4.46,4.08c-1.7,0-2.78-0.9-3.49-1.05C234.87,64.42,234.61,64.76,234.49,65.25z"/>
		<path d="M254.38,64.87v-0.65c1.86,0,2.13-0.38,2.13-2.62v-6.9c0-2.24-0.27-2.62-2.13-2.62v-0.65h7.08v0.65
			c-1.86,0-2.15,0.38-2.15,2.62v6.9c0,2.24,0.29,2.62,2.15,2.62v0.65H254.38z"/>
		<path d="M286.13,54.59h-0.65l-0.11-0.45c-0.29-1.19-0.54-1.7-2.6-1.7h-2.24v9.16c0,2.24,0.29,2.62,2.15,2.62v0.65h-7.08v-0.65
			c1.86,0,2.13-0.38,2.13-2.62v-9.16h-2.24c-2.04,0-2.28,0.51-2.58,1.7l-0.11,0.45h-0.67l0.2-3.16h13.62L286.13,54.59z"/>
		<path d="M307.63,54.05l-3.2,4.84v2.71c0,2.24,0.27,2.62,2.13,2.62v0.65h-6.99v-0.65c1.86,0,2.15-0.38,2.15-2.62v-2.64l-3.25-4.91
			c-1.05-1.59-1.66-1.97-3.25-1.97v-0.65h7.59v0.65c-1.57,0-1.99,0.51-1.19,1.7l2.51,3.79l2.51-3.79c0.81-1.21,0.56-1.7-1.21-1.7
			v-0.65h5.42v0.65C309,52.08,308.57,52.59,307.63,54.05z"/>
	</g>
	<g>
		<path d="M338.56,9.12c0,1.46-1.15,2.66-2.67,2.66c-1.46,0-2.7-1.12-2.7-2.65c0-1.51,1.23-2.64,2.69-2.64
			C337.33,6.48,338.56,7.61,338.56,9.12z M333.73,9.12c0,1.26,0.93,2.21,2.16,2.21c1.27,0,2.14-1,2.14-2.22
			c0-1.23-0.93-2.19-2.14-2.19C334.67,6.92,333.73,7.88,333.73,9.12z"/>
	</g>
	<g>
		<g>
			<path d="M94.2,31.4H82.34l-2.86,8.66h-6.33l11.9-33.8h6.43l11.9,33.8h-6.33L94.2,31.4z M88.25,12.12c0,0-0.76,3.33-1.43,5.24
				l-3,9.05h8.86l-3-9.05c-0.62-1.9-1.33-5.24-1.33-5.24H88.25z"/>
			<path d="M108.42,6.26h6.14l12.81,19.52c1.29,1.95,2.81,5.24,2.81,5.24h0.1c0,0-0.33-3.24-0.33-5.24V6.26h6.09v33.8h-6.09
				l-12.81-19.47c-1.29-1.95-2.81-5.24-2.81-5.24h-0.09c0,0,0.33,3.24,0.33,5.24v19.47h-6.14V6.26z"/>
			<path d="M144.36,6.26h11.52c10.43,0,17.23,6.19,17.23,16.85s-6.81,16.95-17.23,16.95h-11.52V6.26z M155.55,34.78
				c6.86,0,11.24-4.05,11.24-11.66c0-7.52-4.47-11.57-11.24-11.57h-5.05v23.23H155.55z"/>
			<path d="M178.87,6.26h20.23v5.28h-14.09v8.85h11.38v5.28h-11.38v9.09h14.85v5.28h-21V6.26z"/>
			<path d="M206.52,6.26h10.9c3.67,0,5.33,0.29,6.81,0.95c3.38,1.52,5.52,4.76,5.52,9.24c0,4.05-2.14,7.81-5.71,9.24v0.1
				c0,0,0.48,0.48,1.14,1.67l6.95,12.62h-6.86l-6.71-12.62h-5.9v12.62h-6.14V6.26z M218.18,22.11c3.29,0,5.33-1.95,5.33-5.33
				c0-3.24-1.38-5.24-6.19-5.24h-4.67v10.57H218.18z"/>
			<path d="M237.93,31.4c0,0,3.67,3.57,8.43,3.57c2.57,0,4.9-1.33,4.9-4.09c0-6.05-15.95-5-15.95-15.38c0-5.62,4.86-9.81,11.33-9.81
				c6.67,0,10.09,3.62,10.09,3.62l-2.67,5c0,0-3.24-2.95-7.47-2.95c-2.86,0-5.09,1.67-5.09,4.05c0,6,15.9,4.52,15.9,15.33
				c0,5.38-4.09,9.9-11.14,9.9c-7.52,0-11.66-4.62-11.66-4.62L237.93,31.4z"/>
			<path d="M277.49,5.69c9.95,0,17.47,7.57,17.47,17.23c0,9.95-7.52,17.71-17.47,17.71c-9.95,0-17.47-7.76-17.47-17.71
				C260.02,13.26,267.54,5.69,277.49,5.69z M277.49,35.01c6.19,0,11.14-5.14,11.14-12.09c0-6.67-4.95-11.62-11.14-11.62
				c-6.19,0-11.14,4.95-11.14,11.62C266.35,29.87,271.3,35.01,277.49,35.01z"/>
			<path d="M299.79,6.26h6.14l12.81,19.52c1.29,1.95,2.81,5.24,2.81,5.24h0.09c0,0-0.33-3.24-0.33-5.24V6.26h6.09v33.8h-6.09
				L308.5,20.59c-1.29-1.95-2.81-5.24-2.81-5.24h-0.1c0,0,0.33,3.24,0.33,5.24v19.47h-6.14V6.26z"/>
		</g>
	</g>
	<path d="M336.37,9.33c0.45-0.08,0.68-0.36,0.68-0.8c0-0.55-0.34-0.83-1.02-0.83h-1.1v2.86h0.52V9.36h0.4l0.73,1.19h0.59
		L336.37,9.33z M336.51,8.52c0,0.21-0.04,0.39-0.58,0.39h-0.49V8.15h0.51C336.45,8.15,336.51,8.34,336.51,8.52z"/>
	<path d="M47.34,23.24c-0.85-0.6-1.92,0.13-2.12,0.13c0.02-0.02,0.04-0.04,0.06-0.06c0.1-0.11,0.19-0.22,0.28-0.34
		c0.22-0.31,0.38-0.61,0.5-0.91c0.52-1.32,0.48-2.42-0.11-3.29l-0.07-0.1c-0.08-0.11-0.15-0.21-0.18-0.31
		c-0.04-0.12-0.03-0.27-0.01-0.43l0.01-0.07c0.07-0.87,0.14-1.72-0.18-2.44c-0.45-1.01-1.59-1.93-2.83-1.52
		c-0.55,0.18-0.78,0.39-1.16,0.74c-0.17,0.15-0.34,0.31-0.52,0.45c-0.15,0.11-0.54,0.21-0.94,0.46c-0.8,0.51-1.42,1.96-1.59,2.35
		c-0.02,0.06-0.05,0.11-0.07,0.17c0,0-0.51,1.08-0.78,1.44c0-0.03,0-0.07,0-0.11c0.06-1.26,0.05-2.89-0.48-4.31
		c-0.2-0.54-0.57-1.29-1.35-1.48c-0.88-0.22-1.78,0.22-2.5,1.28c-0.19,0.28-0.36,0.57-0.52,0.86c-0.13,0.23-0.26,0.46-0.4,0.68
		c-0.3,0.48-0.63,0.87-1.04,1.29l-0.16,0.17c-0.16,0.17-0.32,0.34-0.48,0.51c-0.08,0.09-0.25,0.29-0.38,0.5
		c-0.59-0.54-1.43-0.74-2.15-0.49c-1.14,0.4-1.9,1.5-2.51,2.64c-0.26,0.48-0.49,0.99-0.68,1.51c-1.14,2.77-1.21,5.75-1.14,7.88
		c-0.16-0.07-0.34-0.12-0.52-0.14c-0.77-0.1-1.52,0.2-2.09,0.89c-0.46,0.5-0.74,1.23-0.92,1.73c-0.36,1.03-0.67,2.43-1.07,4.21
		l-0.08,0.35c-0.11,0.5-0.23,1.02-0.35,1.57c-0.06,0.27-0.14,0.54-0.22,0.82c-0.01,0.05-0.03,0.09-0.04,0.14l-0.07,0.21
		c-0.43,1.25-1.1,2.67-2,4.26l-0.13,0.23c-0.81,1.38-1.64,2.61-2.24,3.44c0,0,0.28,1.26,1.27,3.51c0.01-0.01,0.02-0.03,0.02-0.03
		c0.5-0.7,1.32-1.31,2.14-1.47c1.07-0.21,1.77-0.05,2.78,0.37c0.31,0.13,0.87,0.66,1.12,1.48v0c0.33,1.06,0.95,1.99,1.9,2.39
		c0.73,0.31,1.73,0.21,2.34-0.59c0,0,1.2-0.05,1.8-0.28c0.75-0.28,2.2-0.98,2.7-2.67c0,0,0.15-0.6,0.42-1.01
		c0.01-0.01,0.01-0.02,0.03-0.04c0.02-0.03,0.04-0.09,0.03-0.14c-0.01-0.06-0.05-0.1-0.08-0.12c-0.02-0.02-0.03-0.02-0.04-0.03
		c-0.41-0.27-0.78-0.77-0.78-0.77c-1.12-1.37-2.64-1.36-3.43-1.33c-0.7,0.03-1.64,0.18-1.77,0.2c-0.87-0.5-1.94-0.06-2.49,0.5
		c-0.13,0.14-0.25,0.29-0.35,0.45l0,0c-0.22,0.34-0.66,0.66-1.02,0.46c-0.24-0.14-0.3-0.47-0.2-0.73c0.1-0.26,0.32-0.45,0.54-0.61
		c1.83-1.35,4.28-1.53,6.54-1.3c0.92,0.1,1.84,0.25,2.77,0.25c1.31,0,2.64-0.35,3.47-1.42c0.23-0.3,0.42-0.65,0.49-1.03
		c0.08-0.41,0.01-0.84-0.23-1.18c-0.31-0.44-0.84-0.64-1.29-0.89c-0.28-0.15-0.6-0.33-0.78-0.6c-0.3-0.43,0.19-0.66,0.57-0.72
		c1.16-0.21,2.88-0.12,3.54-0.17c0.66-0.04,2.12-0.2,3.05-0.44c0.1-0.03,0.19-0.05,0.28-0.07c0.88-0.22,1.79-0.45,3.21-1.49
		c0.85-0.62,1.4-1.28,1.78-1.78c0.36-0.47,0.64-1.08,0.77-1.7c0.18-0.82,0.08-1.55-0.29-2.11c-0.07-0.14-0.15-0.28-0.24-0.4
		c-0.11-0.13-0.22-0.25-0.34-0.35c0.42-0.41,1.07-1.14,1.22-1.35l0.35-0.49c0.64-0.9,1.31-1.84,1.75-2.92
		C48.31,25.83,48.38,23.97,47.34,23.24z M24.75,48.53c0,0,0.01-0.04,0.03-0.05c0.02-0.02,0.05-0.02,0.06-0.02
		c0.39-0.05,1.15-0.14,1.63-0.16c0.09,0,0.21-0.01,0.33-0.01c1.03,0,1.71,0.32,2.26,0.99c0,0,0.08,0.09,0.17,0.22l0.07,0.1
		c0.05,0.07,0.12,0.17,0.15,0.25c0.02,0.04,0.02,0.06,0.02,0.06c-0.21,0.89-1.13,1.65-2.16,2.03c-0.34,0.13-1.24,0.34-1.67,0.26
		c-0.21-0.04-0.36-0.15-0.5-0.29c-0.17-0.18-0.35-0.66-0.39-0.82C24.5,50.03,24.5,49.29,24.75,48.53z M22.7,48.65
		c0.22-0.23,0.49-0.34,0.8-0.34c0.05,0,0.1,0,0.16,0.01c0.01,0,0.03,0,0.04,0.01c0.01,0,0.02,0.01,0.02,0.02
		c0.01,0.02-0.01,0.04-0.01,0.04c-0.5,1.14-0.46,2.34,0.12,3.88c0.11,0.29,0.12,0.51,0.02,0.66c-0.12,0.19-0.38,0.2-0.38,0.2l0,0
		c-0.6,0.08-1.07-0.59-1.28-1.84C22.04,50.39,22.14,49.23,22.7,48.65z M44.19,30.06c-0.4,0.43-0.8,0.81-1.14,1.12
		c-0.97,0.9-2.37,1.38-2.53,1.43c-0.62,0.2-1.17,0.34-1.67,0.41c-0.55,0.08-0.88,0.09-1.13,0.1c-0.06,0-0.11,0-0.16,0.01
		c-0.34,0.02-0.56,0.11-0.67,0.28c-0.12,0.18-0.05,0.37-0.05,0.39c0.05,0.14,0.24,0.34,0.55,0.34c1.14,0,2.04-0.12,2.94-0.39
		c0.21-0.06,0.42-0.14,0.62-0.22c0.57-0.23,1.15-0.46,1.8-0.26c0.35,0.11,0.52,0.29,0.63,0.44c0.08,0.11,0.13,0.25,0.15,0.42
		c0.07,0.58-0.23,1.34-0.54,1.75c-0.33,0.42-0.79,0.98-1.49,1.49c-1.19,0.87-1.85,1.04-2.7,1.25c-0.1,0.02-0.2,0.05-0.3,0.08
		c-0.93,0.24-1.92,0.33-2.85,0.39l-0.55,0.03c-0.69,0.04-1.41,0.09-2.1,0.22l-0.02,0c-0.69,0.13-1.39,0.26-1.96,0.72
		c-0.38,0.31-0.6,0.68-0.63,1.12c-0.04,0.41,0.07,0.81,0.31,1.22c0.14,0.24,0.33,0.47,0.51,0.67c0.14,0.17,0.28,0.33,0.36,0.47
		c0.23,0.4,0.25,0.75,0.06,1.07c-0.5,0.83-2.24,0.73-2.26,0.73c-0.22,0-0.46-0.02-0.71-0.03c-0.41-0.02-0.82-0.05-1.21-0.04l-0.05,0
		c-0.77,0.02-1.57,0.04-2.34,0.16c-1.5,0.23-2.74,0.63-3.81,1.22c-0.4,0.22-0.78,0.47-1.15,0.71l-0.03,0.02
		c-2.63,1.57-3.88,1.98-4.02,2.05l1.61-2.22c0.9-1.27,1.82-2.59,2.71-3.25c1-0.75,2.28-1.13,3.79-1.14c1.43-0.01,2.81,0.33,3.7,0.61
		c0.02,0.01,0.05,0.02,0.08,0.02l0.09,0.03c0.06,0.02,0.11,0.04,0.17,0.06c0.29,0.11,0.61,0.23,0.89,0.08
		c0.1-0.07,0.13-0.16,0.14-0.17c0.09-0.24-0.13-0.39-0.27-0.46c-2.39-1.04-4.78-1.38-7.31-1.05c0.01-0.01,0.02-0.02,0.02-0.03
		l0.04-0.05c0.05-0.08,0.12-0.17,0.16-0.22c0.21-0.23,0.44-0.46,0.73-0.77c0.61-0.64,1.14-1.17,1.64-1.67
		c0.15-0.15,0.35-0.35,0.58-0.5c1.01-0.66,2.42-1.02,3.55-1.3l0.04-0.01c1.32-0.33,2.46-0.5,3.47-0.51c0.11,0,0.22,0,0.32,0
		l1.79,0.05c2.22,0.09,4.52,0.18,6.22-0.72l0,0l0.04-0.02c0.02-0.01,0.04-0.03,0.07-0.04l0.02-0.01c0.01,0,0.02-0.01,0.02-0.01
		c0.14-0.08,0.31-0.17,0.45-0.3c0.05-0.04,0.09-0.09,0.12-0.13c0.04-0.05,0.06-0.1,0.08-0.15c0.02-0.06,0.03-0.12,0.02-0.18
		C41.03,35.28,41,35.23,41,35.23c-0.09-0.15-0.25-0.19-0.47-0.11c-0.02,0.01-0.1,0.05-0.11,0.06c-1.17,0.66-2.6,1.06-5.78,0.85
		c-0.86-0.06-1.57-0.1-2.26-0.1c-0.08,0-0.16,0-0.24,0c-1.73,0.01-2.95,0.15-4.07,0.46l-1.09,0.27l0.84-0.7
		c0.57-0.48,1.15-0.95,1.85-1.52c0.77-0.62,1.78-1.39,2.8-1.84c0.59-0.26,1.24-0.41,1.82-0.55l0.01,0c1.03-0.24,2.13-0.49,3.21-0.7
		c0.28-0.05,0.55-0.1,0.83-0.15l0.04-0.01c1.17-0.2,2.28-0.39,3.35-1.02c1.22-0.72,2.21-1.82,2.8-3.09c0.05-0.1,0.01-0.23-0.1-0.28
		c-0.1-0.05-0.23-0.01-0.28,0.08c-1.07,1.84-3.16,2.74-4.74,3.17c-0.95,0.26-1.94,0.42-2.89,0.59l-0.06,0.01
		c-0.62,0.1-1.26,0.21-1.9,0.35c1.77-1.4,3.35-3.27,4.69-5.55c1.44-2.46,2.81-5.2,3.74-7.53c0.02-0.06,0.06-0.15,0.07-0.25
		c0-0.04,0-0.08-0.01-0.12c-0.01-0.05-0.03-0.09-0.06-0.12c-0.04-0.04-0.08-0.06-0.08-0.06c-0.12-0.05-0.25,0.01-0.35,0.15
		c0,0.01-0.01,0.02-0.02,0.03c-1.06,2.35-2.51,5.02-4.07,7.52c-1.52,2.42-3.29,4.35-5.26,5.72c0.63-1.6,0.55-3.41,0.47-5.16
		c-0.01-0.26-0.02-0.52-0.03-0.78c-0.07-1.87,0.02-3.76,0.27-5.6c0.01-0.1-0.05-0.2-0.14-0.23c-0.09-0.04-0.2,0-0.25,0.09
		c-0.3,0.52-0.43,1.16-0.53,2.03c-0.13,1.09-0.16,2.3-0.09,3.8c0.06,1.25,0.12,2.55-0.05,3.81c-0.16,1.22-0.73,2.11-1.14,2.68
		c-0.52,0.71-1.26,1.23-1.91,1.63c-0.75,0.47-1.42,1.04-2.06,1.6l-1.01,0.85l0.02-0.09c0.31-1.13,0.45-2.36,0.46-4.11
		c0.02-0.79-0.03-1.61-0.09-2.53c-0.13-2.11-0.26-4.1,0.61-5.78c0.02-0.04,0.04-0.08,0.04-0.12c0.01-0.04,0.01-0.08,0.01-0.12
		c0-0.05-0.02-0.09-0.05-0.12c-0.03-0.04-0.07-0.06-0.07-0.06c-0.17-0.1-0.31-0.01-0.38,0.07c-0.01,0.01-0.02,0.03-0.04,0.06
		c-0.01,0.01-0.02,0.02-0.03,0.03c-1.16,1.74-1.06,4.26-0.97,6.7l0.04,1.81c0.04,1.73-0.25,3.54-0.81,4.97
		c-0.24,0.63-0.65,1.02-1.12,1.47l-0.28,0.27c-0.48,0.48-0.96,0.97-1.44,1.45l-0.1,0.1c-0.16,0.16-0.31,0.32-0.44,0.46l-0.09,0.1
		c-0.06,0.07-0.12,0.13-0.19,0.2c0.23-1,0.43-1.91,0.53-2.86c0.03-0.29,0.11-1.43,0.06-1.77c-0.02-0.13-0.12-0.28-0.31-0.28h0
		c-0.23,0-0.29,0.25-0.31,0.36c0,0-0.03,0.31-0.08,0.59c-0.28,1.99-0.82,4.89-2.33,7.09c-0.78,1.15-3.95,5.43-4.6,6.32
		c-0.02,0.03-0.04,0.06-0.11,0.15c-0.06-0.18-0.13-0.36-0.19-0.53l0.03-0.05c0-0.01,0.01-0.01,0.01-0.02
		c0.64-0.97,4.5-6.84,5.17-9.79c0.15-0.66,0.29-1.33,0.41-1.93l0.01-0.04c0.3-1.51,0.62-3.07,1.14-4.52
		c0.21-0.58,0.55-1.29,1.03-1.41c0.22-0.05,0.45,0.02,0.68,0.23c0.18,0.16,0.31,0.4,0.37,0.69c0.07,0.28,0.08,0.58,0.09,0.87
		c0.01,0.31,0.02,0.6,0.1,0.89c0.07,0.27,0.31,0.61,0.59,0.66c0.17,0.04,0.32-0.03,0.45-0.21c0.13-0.18,0.17-0.41,0.19-0.63
		c0.05-0.59,0.02-1.19-0.01-1.78l0-0.06c-0.02-0.34-0.04-0.69-0.04-1.03c0-1.22,0.06-2.46,0.18-3.68c0.11-1.11,0.27-2.41,0.58-3.64
		c0.23-0.9,0.59-1.76,1.08-2.55c0.24-0.4,0.51-0.78,0.81-1.13l0.08-0.09c0.13-0.16,0.28-0.34,0.45-0.47l0.01-0.01v0
		c0.08-0.07,0.64-0.52,1.27-0.23l0.01,0c0.21,0.09,0.83,0.37,0.35,2.46c-0.01,0.06-0.05,0.22-0.09,0.37
		c-0.04,0.16-0.08,0.33-0.09,0.39c-0.05,0.2-0.09,0.4-0.14,0.59l0,0.01c-0.09,0.36-0.18,0.74-0.25,1.12
		c-0.05,0.28-0.13,0.57-0.18,0.78l0,0.01c-0.08,0.31-0.17,0.67-0.22,1.01c-0.09,0.61-0.15,1.33,0.19,1.55
		c0.1,0.07,0.24,0.04,0.31,0.02c0.72-0.22,0.78-1.04,0.82-1.71c0.01-0.11,0.01-0.21,0.02-0.3l0.26-2.64
		c0.01-0.15,0.03-0.31,0.04-0.47c0.05-0.61,0.09-1.25,0.33-1.81c0.23-0.56,0.63-1.03,1.01-1.48c0.15-0.18,0.32-0.37,0.48-0.55
		c0.42-0.47,0.85-0.95,1.18-1.49c0.11-0.18,0.37-0.67,0.37-0.67l0.01-0.03c0.09-0.17,0.19-0.35,0.29-0.52
		c0.38-0.64,0.81-1.36,1.72-1.09c0.99,0.28,0.99,1.68,0.99,2.51v0.03c0,0.14,0,0.28-0.01,0.42c-0.04,1.22-0.18,2.13-0.29,2.79
		l0,0.01c-0.06,0.38-0.11,0.71-0.12,0.94c0,0.31,0.09,0.46,0.32,0.51c0.07,0.02,0.15,0.03,0.22,0.03c0.72,0,1.55-1.3,2.26-2.57
		c0.18-0.33,0.36-0.67,0.52-0.99l0.01-0.02c0.26-0.51,0.55-1.08,0.89-1.6c0.08-0.13,0.18-0.26,0.3-0.36
		c0.23-0.18,0.47-0.23,0.71-0.15c0.18,0.06,0.44,0.02,0.59-0.25c0.02-0.04,0.05-0.08,0.07-0.11c0.01-0.01,0.02-0.03,0.03-0.04
		l0.05-0.07c0.01-0.02,0.02-0.03,0.03-0.04c0.2-0.25,0.43-0.5,0.7-0.63c0.26-0.12,0.52-0.13,0.78-0.02c0.39,0.17,0.65,0.58,0.7,0.76
		c0.15,0.52,0.04,0.99-0.04,1.3c-0.01,0.03-0.01,0.05-0.02,0.07c-0.02,0.1-0.06,0.21-0.1,0.32c-0.06,0.17-0.13,0.34-0.11,0.51
		c0.02,0.14,0.11,0.25,0.2,0.37l0.06,0.07c0.4,0.54,0.48,1.24,0.22,2.09c-0.29,0.94-0.99,1.8-1.54,2.49l-0.05,0.07
		c-0.1,0.13-0.2,0.25-0.29,0.37c-0.15,0.2-0.33,0.39-0.5,0.58l-0.01,0.01c-0.24,0.25-0.5,0.54-0.7,0.85
		c-0.22,0.37-0.27,0.62-0.15,0.74c0.06,0.06,0.17,0.09,0.31,0.09c0.67,0,2.05-0.64,2.45-0.87l0.03-0.02c0.54-0.31,1.05-0.6,1.49-0.6
		c0.32,0,0.58,0.17,0.76,0.51c0.13,0.23,0.19,0.49,0.18,0.77C46.46,27.42,45.24,28.93,44.19,30.06z"/>
	<path d="M61.89,34.96V0H0v34.94C0,35.23-0.14,42.25,2.84,51.11c2.55,7.57,7.95,17.83,19.3,25c1.2,0.8,3.5,1.99,3.5,1.99
		c0,0,0,0,0,0c1.72,0.89,3.32,1.63,4.9,2.25l0.39,0.16l0.43-0.15c1.59-0.63,3.2-1.36,4.92-2.26c0.07-0.04,0.12-0.07,0.19-0.1
		c1.43-0.76,3.61-2.1,3.61-2.1C51.21,68.74,56.54,58.6,59.06,51.1C62,42.37,61.9,35.33,61.89,34.96z M39.14,1.42H60.5l0.02,19.42
		H50.44l0-10.17V9.31h-1.36h-9.94V1.42z M14.83,50.36c-2.09-5.49-2.2-10.19-2.2-11.08l0-28.6h36.44l0,28.6
		c0,0.89-0.11,5.59-2.2,11.08c-2.96,7.77-8.35,13.32-16.02,16.5C23.19,63.68,17.79,58.13,14.83,50.36z M30.86,66.86L30.86,66.86
		C30.86,66.86,30.86,66.86,30.86,66.86C30.86,66.86,30.86,66.86,30.86,66.86z M24.15,1.42h0.07H37.7h0.07v7.89H24.15V1.42z
		 M1.36,1.42h21.42v7.89H12.64h-1.36v1.36l0,10.17H1.36V1.42z M1.36,22.3v-0.09h9.91l0,13.45H1.37L1.36,22.3z M22.78,74.84
		c-0.07-0.05-0.15-0.09-0.21-0.14C12.1,68.08,6.95,58.7,4.45,51.57c-0.11-0.32-0.23-0.63-0.33-0.94c-1.99-5.9-2.54-10.93-2.7-13.6
		h9.86l0,2.25c0,0.93,0.11,5.86,2.29,11.57c2.01,5.28,5.11,9.58,9.22,12.86V74.84z M37.73,75.64c-0.01,0-0.01,0.01-0.02,0.01h-0.02
		c-0.51,0.3-1.04,0.6-1.49,0.84c-0.06,0.03-0.11,0.06-0.18,0.09c-1.64,0.85-3.17,1.55-4.68,2.15l-0.41,0.15l-0.37-0.15
		c-1.5-0.59-3.03-1.29-4.66-2.14c0,0,0,0,0,0c0,0-0.84-0.43-1.75-0.95V64.73c1.87,1.32,3.93,2.46,6.19,3.39l0.52,0.22l0.52-0.22
		c2.32-0.96,4.43-2.13,6.35-3.5V75.64z M57.78,50.62c-0.1,0.31-0.22,0.63-0.33,0.94C54.97,58.63,49.9,67.9,39.62,74.5
		c0,0-0.22,0.13-0.53,0.32V63.58c4.04-3.26,7.08-7.52,9.07-12.74c2.17-5.71,2.29-10.64,2.29-11.57l0-2.25h10.03
		C60.32,39.7,59.76,44.75,57.78,50.62z M50.44,35.66l0-13.45h10.08l0,0.09l0.01,13.36H50.44z"/>
</g>
</svg>
