<svg xmlns="http://www.w3.org/2000/svg" xmlns:xlink="http://www.w3.org/1999/xlink" viewBox="0 0 560 120" width="560" height="120"><defs><path d="M134.5 5.4l1.3 9v1.4c-.2.2-.4.4-.6.4-.3 0-.8-.5-1.4-1.6-4.7-8.3-11.1-12.4-19.2-12.4-6.4 0-11.5 2-15.2 6-3.7 4-5.6 9.3-5.6 16.2 0 7.9 2.1 14.3 6.2 19.3 4.2 5 9.5 7.5 16 7.5 3.7 0 7.4-1 11.1-3 3.7-2 6.2-4.5 7.6-7.4.7-1.3 1.2-2 1.5-2 .4 0 .6.2.6.7v.4l-.2.8-.8 4.6-.2.8c-.1.6-.7 1.3-1.8 2a35.3 35.3 0 0 1-19.2 5.6c-8.1 0-14.7-2.4-19.6-7.2-5-4.9-7.5-11.2-7.5-19.1a26.7 26.7 0 0 1 27-27.4c5.4 0 10.3 1.2 14.8 3.6l1.5.8.6.2.6.3.6-.3 1.1-.7c.4 0 .7.5.8 1.5" id="a"/><path d="M169.4 0h.7l.7.1h.6l.7.1.7.1.6.1.6.1.7.1.6.2.6.1.6.2.6.1.6.2.6.2.5.2.6.2.6.3.5.2.6.3.5.3.5.3.6.2.5.4.5.3.5.3.5.4.5.3.4.4.5.4.5.4.4.4.5.4.4.5.4.4.5.4.4.5.4.5.3.4.4.5.3.5.4.5.3.5.3.5.3.5.3.5.2.5.3.6.2.5.3.6.2.5.2.6.2.5.2.6.1.6.2.6.1.6.1.6.2.6v.6l.1.6.1.7v.6l.1.7v4.7l-.1.7v.7l-.2.7v.6l-.2.6v.7l-.2.6-.2.6-.2.7-.1.6-.2.6-.2.6-.2.6-.3.5-.2.6-.3.6-.2.6-.3.5-.3.6-.3.5-.4.5-.3.5-.3.5-.4.6-.4.5-.4.4-.4.5-.4.5-.4.5-.5.4-.4.5-.5.4-.5.4-.4.4-.5.4-.5.4-.5.4-.5.4-.5.3-.5.3-.6.3-.5.3-.5.3-.6.3-.6.3-.5.2-.6.2-.6.3-.5.2-.6.2-.6.1-.7.2-.6.2-.6.1-.6.1-.7.2h-.6l-.7.2H170.6l-.7.1H168.6l-.7.1H165.8l-.7-.1h-.7l-.7-.1-.6-.1-.7-.1-.7-.1-.6-.2h-.6l-.7-.2-.6-.2-.6-.2-.6-.2-.6-.2-.6-.2-.6-.2-.5-.2-.6-.3-.5-.3-.6-.2-.5-.3-.5-.3-.6-.3-.5-.4-.5-.3-.5-.4-.5-.3-.4-.4-.5-.4-.5-.4-.4-.4-.5-.4-.4-.5-.4-.4-.5-.5-.4-.4-.3-.5-.4-.5-.4-.5-.3-.5-.3-.5-.4-.5-.3-.5-.3-.5-.2-.6-.3-.5-.3-.6-.2-.5-.2-.6-.3-.6-.1-.6-.2-.6-.2-.6-.2-.6-.1-.6-.2-.6v-.6l-.2-.7-.1-.6v-.7l-.2-.7V28.2l-.1-.7V24.4l.1-.3v-.7l.1-.3v-.3l.1-.3v-.3l.1-.3v-.3l.1-.3.1-.3v-.3l.1-.3.1-.3v-.3l.2-.3v-.3l.1-.3.1-.3.1-.3.1-.3.1-.3.1-.3.1-.3.1-.3.2-.3v-.3l.2-.3.1-.3.2-.3V15l.2-.3.1-.3.2-.3.1-.2.2-.3v-.3l.2-.3.2-.2.1-.3.2-.2.1-.3.2-.2.2-.3.1-.2.2-.3.1-.2.2-.3.2-.2.2-.2.1-.3.2-.2.2-.2.2-.2.1-.2.2-.3.2-.2.2-.2.2-.2.2-.2.2-.2.2-.2.3-.2.2-.2.2-.2.2-.2.3-.2.2-.2.2-.2.3-.2.2-.2.3-.2.2-.2.3-.1.2-.2.3-.2.2-.2.3-.1.3-.2.3-.2.2-.1.3-.2.3-.1.3-.2.3-.1.3-.2.2-.1.3-.2.3-.1.3-.1.4-.2.3-.1.3-.1.3-.2h.3l.4-.2.3-.1.3-.1.3-.1.3-.2h.4l.3-.1.3-.2h.3l.4-.1.3-.1h.3l.3-.2h.4l.3-.1h.3l.3-.1h.4l.3-.1h.3l.4-.1h.3l.3-.1h.7l.3-.1h1.4l.3-.1h2zm-5 2.5h-1.1l-.6.1h-.5l-.6.2h-.5l-.6.2-.5.1-.5.2-.5.1-.5.2-.5.2-.5.2-.5.2-.4.3-.5.2-.4.3-.5.2-.4.3-.4.3-.4.4-.4.3-.4.3-.4.4-.4.4-.4.4-.3.4-.4.4-.3.4-.3.4-.4.5-.3.4-.2.5-.3.4-.3.5-.2.5-.3.5-.2.5-.2.5-.2.6-.2.5-.2.6-.1.5-.2.6-.1.6-.2.6v.6l-.2.6v.6l-.2.6V21.6l-.1.7v5.1l.1.8.1.7.1.7.1.8.2.7.1.7.2.7.1.7.2.7.3.6.2.7.2.6.3.7.3.6.2.7.3.6.4.6.3.6.3.6.4.6.4.6.4.5.4.6.5.6.4.5.5.5.4.5.5.5.5.5.5.5.5.4.5.5.5.4.5.3.5.4.6.4.5.3.5.3.6.3.6.2.5.3.6.2.6.2.6.2.6.2.6.2.6.1.6.1.6.1.7.1h.6l.6.1h3.7l.6-.1.5-.1.6-.1.5-.1.6-.1.5-.2.6-.2.5-.1.5-.2.5-.2.5-.2.5-.3.5-.2.4-.3.5-.3.5-.3.4-.3.5-.3.4-.4.4-.3.5-.4.4-.4.4-.4.4-.4.4-.5.4-.4.4-.5.3-.4.4-.5.3-.5.3-.4.3-.5.3-.5.3-.5.3-.6.2-.5.3-.5.2-.6.2-.5.2-.6.2-.5.2-.6.1-.6.2-.6.1-.6.1-.6.1-.6.1-.7v-.6l.1-.6.1-.7v-5l-.2-.8v-.7l-.1-.7-.2-.7-.1-.8-.2-.6-.1-.7-.2-.7-.2-.7-.3-.6-.2-.7-.2-.6-.3-.6-.3-.7-.3-.6-.3-.6-.4-.6-.3-.6-.4-.6-.3-.5-.5-.6-.4-.5-.4-.6-.4-.5-.5-.5-.5-.5-.5-.5-.5-.5-.5-.5-.5-.4-.5-.4-.5-.4-.5-.4-.6-.4-.5-.3-.6-.4-.6-.3-.5-.3-.6-.3-.6-.2-.6-.3-.6-.2-.6-.2-.6-.2-.7-.1-.6-.2-.6-.1-.7-.1-.6-.1-.7-.1-.7-.1h-3.3z" id="b"/><path d="M210.8 42.5v1.3c0 3 .3 4.8.9 5.4.6.5 2.4.8 5.7.8 4.7 0 8.8-.5 12.3-1.7 3.4-1 5.7-2.5 6.6-4.4.4-.7.7-1 1-1 .5 0 .7.2.6.7 0 1.6-.9 3.5-2.4 5.5-2.2 2.7-5.7 4-10.6 4h-2.8l-4-.4a121 121 0 0 0-15.5.2l-2.1.2c-.6 0-1-.2-1-.6 0-.4.4-.7 1-1 1.8-.5 3-1.2 3.6-2.2.6-1 .9-2.8.9-5.2v-1.8V8.6c0-3.3-1.3-5.3-4-5.8l-1.8-.4c-.6-.1-.9-.3-.9-.7 0-.6.4-.8 1.3-.8l2.4.1a77 77 0 0 0 13.7 0c.6 0 .9.2.9.5 0 .6-.4.9-1.1 1l-1.3.4c-2.3.5-3.4 2.8-3.4 6.8v32.9" id="c"/><path d="M250 42.5v1.3c0 3 .2 4.8.8 5.4.6.5 2.5.8 5.7.8 4.7 0 8.9-.5 12.3-1.7 3.5-1 5.7-2.5 6.7-4.4.3-.7.7-1 1-1 .4 0 .6.2.6.7-.1 1.6-1 3.5-2.5 5.5-2.1 2.7-5.7 4-10.5 4h-2.8l-4.1-.4a121.4 121.4 0 0 0-15.4.2l-2.1.2c-.7 0-1-.2-1-.6 0-.4.3-.7 1-1 1.8-.5 3-1.2 3.6-2.2.5-1 .8-2.8.8-5.2v-1.8V8.6c0-3.3-1.3-5.3-4-5.8l-1.7-.4c-.6-.1-1-.3-1-.7 0-.6.5-.8 1.4-.8l2.3.1a77 77 0 0 0 13.7 0c.6 0 1 .2 1 .5 0 .6-.4.9-1.1 1l-1.4.4c-2.3.5-3.4 2.8-3.4 6.8v32.9" id="d"/><path d="M289 6.9v15.3c0 1.2.2 1.9.4 2.1.2.2.9.4 2 .4h5.7a34 34 0 0 0 6.3-.5c1.4-.3 2.2-.6 2.6-1 .4-.6.8-1.6 1.1-3.3.2-.6.5-1 1-.9.5 0 .8.4.8 1v.8a83.7 83.7 0 0 0-.1 12.4c0 .6-.2 1-.8 1-.5 0-.8-.4-1-.9l-.2-1c-.3-1.7-.9-2.9-1.8-3.5-.9-.6-2.4-1-4.6-1h-8.3c-1.2 0-2 .2-2.5.5-.4.2-.6.7-.6 1.5V45c0 2.2.4 3.5 1.2 4 .8.5 2.7.8 5.8.8 10 0 16.3-2.2 19-6.7l1-.7c.4 0 .7.4.7 1 0 1.6-1 3.6-2.8 5.9-2.2 2.6-5 4-8.4 4-.7 0-1.7 0-3-.2a132.6 132.6 0 0 0-21.2-.2l-2 .3c-.8 0-1.2-.3-1.2-.8s.3-.8 1-1l1.4-.3c1.8-.6 2.7-2.3 2.7-5.3v-2.5-32c0-3.6-.3-6-1.1-7.3-.8-1.3-2.3-1.9-4.6-1.9-.8 0-1.1-.2-1.1-.7 0-.6.5-1 1.7-1a115 115 0 0 0 23.7.7 961.6 961.6 0 0 1 9.6-.6c.8 0 1.2.4 1.2 1l-.1 1a35 35 0 0 0-.4 5.2l-.4 2.7c-.2.4-.4.6-1 .6-.4 0-.6-.3-.6-1.2v-1c0-.7-.2-1.5-.5-2.2-.5-1.2-1.4-2-2.9-2.3-1.4-.4-4.1-.6-8-.6h-6c-1.5 0-2.5.2-3 .6-.4.4-.6 1.3-.6 2.6" id="e"/><path d="M361.7 40v-8.6c0-1.5-.4-2.6-1-3.1-.7-.6-2-1-4-1-1-.2-1.6-.5-1.6-1s.4-.7 1.3-.7h11.2l3-.2c.6 0 .8.3.8.7 0 .4-.3.7-1 1-2 .4-3 1.8-3 4.1V44.5l.2 1.3-.3.5c-.1.2-.5.3-1 .4-.7 0-1.8.5-3.2 1.3l-2.5 1.5c-5 2.8-10.2 4.2-15.9 4.2-7.5 0-13.7-2.4-18.6-7.3a25.4 25.4 0 0 1-7.2-18.6c0-8 2.6-14.6 7.7-19.8 5.1-5.4 11.5-8 19.3-8a38.7 38.7 0 0 1 18 4.8l.8-.3.9-.7.5-.2c.5 0 .7.6.7 1.8 0 .5 0 1.4.2 2.6l.4 3.5a25.9 25.9 0 0 0 .7 4c0 .6-.3 1-.7 1-.4 0-.6-.3-.9-.7a24.4 24.4 0 0 0-22-13.6c-5.7 0-10.4 2.1-14 6.5-3.6 4.3-5.4 9.9-5.4 16.8 0 7.3 2 13.5 6.2 18.4 4.2 5 9.3 7.4 15.4 7.4 5.9 0 10.4-2 13.7-6.2.9-1 1.3-2.7 1.3-5.1" id="f"/><path d="M386.7 6.9v15.3c0 1.2.1 1.9.3 2.1.2.2.9.4 2 .4h5.8c2.6 0 4.7-.2 6.2-.5 1.4-.3 2.3-.6 2.7-1a8 8 0 0 0 1-3.3c.2-.6.5-1 1-.9.5 0 .8.4.8 1v.8a79.6 79.6 0 0 0 0 12.4c0 .6-.3 1-.8 1-.6 0-.9-.4-1-.9l-.2-1c-.3-1.7-1-2.9-1.8-3.5-1-.6-2.5-1-4.6-1h-8.3c-1.3 0-2.1.2-2.5.5-.4.2-.6.7-.6 1.5V45c0 2.2.4 3.5 1.1 4 .8.5 2.8.8 5.9.8 9.9 0 16.2-2.2 19-6.7.3-.4.6-.6.9-.7.5 0 .7.4.7 1 0 1.6-1 3.6-2.8 5.9-2.2 2.6-5 4-8.4 4-.7 0-1.7 0-2.9-.2A133 133 0 0 0 379 53l-2 .3c-.8 0-1.1-.3-1.1-.8s.3-.8 1-1l1.4-.3c1.8-.6 2.7-2.3 2.7-5.3v-2.5-32c0-3.6-.4-6-1.2-7.3-.8-1.3-2.3-1.9-4.6-1.9-.7 0-1-.2-1-.7 0-.6.5-1 1.6-1 .6 0 1.5 0 2.6.2a114.9 114.9 0 0 0 21 .5 972.3 972.3 0 0 1 9.7-.6c.8 0 1.3.4 1.3 1l-.2 1-.3 3-.1 2.2c-.1 1.4-.3 2.4-.4 2.7-.1.4-.4.6-.9.6-.4 0-.7-.3-.7-1.2v-1c0-.7-.1-1.5-.4-2.2-.5-1.2-1.5-2-3-2.3-1.4-.4-4-.6-8-.6h-5.9c-1.6 0-2.6.2-3 .6-.5.4-.7 1.3-.7 2.6" id="g"/><path d="M86.8 59.4l1.6 11.3v1.6c-.2.3-.5.5-.8.5-.3 0-.9-.6-1.6-2C80 60.6 72.2 55.5 62 55.5c-8 0-14.2 2.4-18.9 7.4-4.6 4.8-6.9 11.5-6.9 20 0 9.8 2.6 17.8 7.7 24a24.4 24.4 0 0 0 19.8 9.3c4.7 0 9.3-1.3 13.8-3.8 4.6-2.5 7.7-5.6 9.5-9.1.8-1.7 1.4-2.5 1.9-2.5s.7.2.7.9v.5l-.2 1-1.1 5.8-.2.8c-.1.9-.9 1.7-2.2 2.5a43.5 43.5 0 0 1-23.9 7c-10 0-18.2-3-24.4-9-6.1-6-9.2-13.8-9.2-23.6 0-9.7 3.2-17.8 9.6-24.3a32.4 32.4 0 0 1 24-9.7 38 38 0 0 1 18.2 4.5c.1 0 .8.3 1.9 1l.7.3.8.2c.2 0 .4 0 .7-.3l1.4-.8c.5 0 .9.6 1 1.8" id="h"/><path d="M109 88.2h23.7c1.1 0 1.9 0 2.2-.3.3-.2.5-.7.5-1.5V72.8c0-2.7-.4-4.7-1-5.8-.8-1.2-2-2-4-2.4-.8-.2-1.2-.5-1.2-1 0-.4.4-.6 1-.6s1.5 0 2.8.2a50 50 0 0 0 11.6 0l1.5-.1c.6 0 1 .3 1 .8 0 .4-.4.7-1 .8l-1.7.4c-.8.1-1.5.7-2 1.7a7 7 0 0 0-1 3.6v38.6c0 2.9.5 4.8 1.3 6 .8 1 2.3 1.7 4.6 2 .8 0 1.3.3 1.3.7 0 .7-.3 1-1.1 1l-2.1-.2-4-.2a611.4 611.4 0 0 1-6 0l-1.9.2c-1.6 0-2.6.2-2.7.2-.7 0-1-.3-1-.8s.5-.8 1.4-.9c2.7-.5 4.2-2.8 4.2-6.8v-1.6-14.7c0-1.2-.1-2-.4-2.2-.2-.3-1-.4-2.4-.4h-23.5c-1.5 0-2.5.2-2.9.5-.4.3-.5 1.1-.5 2.4v14.6c0 2.8.4 4.7 1.3 5.8.9 1.2 2.5 1.9 5 2.1 1 .2 1.4.5 1.4 1 0 .6-.3.9-1.1.9l-2-.2a196 196 0 0 0-8.2-.2h-2.6a37.6 37.6 0 0 0-5 .4c-.7 0-1-.3-1-.8 0-.4.3-.7 1-.9l2-.5c1.2-.2 2-1.1 2.4-2.6.4-1.5.6-4.1.6-7.9V71.5c0-2.3-.4-4-1.3-5-.9-1.1-2.4-1.8-4.7-2.2-.8 0-1.1-.4-1.1-.8 0-.6.3-.9 1-.8a67.4 67.4 0 0 0 16.7.1c.8 0 1.2.3 1.2.8 0 .4-.4.7-1 .9-1.9.5-3.1 1-3.7 2-.6.8-1 2.2-1 4.2V85c0 1.6.2 2.5.5 2.8.3.3 1.3.4 3 .4" id="i"/><path d="M176.5 61.4H176.9v.1h.1v.1h.1l.1.1v.1h.1v.1l.1.1v.1h.1v.2h.1v.2l17.3 44 .8 2.3.1.2.1.2.1.3.1.2.1.2v.2l.2.2v.2l.1.2.1.2.1.2.1.2v.2l.2.2v.2l.1.1.1.2.1.1v.2l.2.2v.1l.1.2.2.2v.1l.1.2.1.2.1.1v.1l.2.1v.1l.1.1v.1h.1l.1.2.1.1.2.1v.1l.1.1h.1l.1.1v.1h.2v.1h.1l.1.1h.1l.1.1h.1l.1.1h.1l.2.1.2.1h.1l.1.1h.2v.1h.2l.2.1h.1l.1.1H201.7l.2.1h.2l.1.1H202.5l.2.1h.2l.2.1H203.4l.2.1H203.9l.1.1H204.4v.1h.2v.1h.1l.1.1.1.1v.1h.1V118h-.1v.1h-.2v.1H200.2l-.1-.1H188.5l-.1.1h-.6v.1h-.7v.1H186.1v-.1h-.1l-.1-.1h-.1v-.2h-.1V117.1h.1v-.1h.1v-.1h.2v-.1h.2v-.1H186.8l1.2-.3h.2l.1-.1h.2l.1-.1h.2v-.1h.1l.1-.1.1-.1h.1v-.1h.1v-.1h.2v-.2h.1v-.1l.1-.1v-.1l.1-.2v-.1l.1-.1V114.6l.1-.1v-2.1l-.1-.2v-.1l-.1-.2V111.6l-.1-.2v-.2l-.1-.2v-.2l-.2-.2v-.5l-.2-.2v-.5l-.2-.2v-.2l-.1-.3-.1-.2-.1-.3-.1-.3-.1-.2-.1-.3-.1-.3-.1-.3-.1-.3-.1-.3-.2-.3v-.3l-.2-.3-2-5.3v-.2h-.1v-.2l-.1-.2-.1-.2V99l-.1-.1v-.2h-.1v-.1l-.1-.1v-.1l-.1-.1v-.1l-.1-.1V98h-.1v-.2h-.1v-.1l-.1-.1v-.1h-.1l-.1-.1h-.1l-.1-.1H183.6v-.1h-.7l-.1-.1H164.4v.1H163.8v.1h-.2l-.1.1h-.2v.1h-.1l-.1.1-.1.1-.1.1v.1h-.1v.1h-.1v.1l-.1.1v.1l-.1.1-.1.2-.1.1v.1l-.1.1v.1l-.1.1v.1l-.1.1v.1l-.1.1v.1l-.2.1v.2l-.1.2v.1l-.1.2h-.1v.2l-.1.2-2.7 5.8v.2l-.1.2-.1.2v.2l-.2.2v.2l-.1.2v.2l-.2.1v.4l-.2.2V109.3l-.1.2v.1l-.1.2v.1l-.1.2v.2h-.1v.2l-.1.2V111l-.1.1V111.4h-.1v.5l-.1.2V113.9l.1.2v.2l.1.1v.1l.1.1v.1l.1.1v.1l.1.1.1.1v.1h.1v.1h.1v.1h.1v.1h.1l.1.1.1.1h.1v.1h.1l.2.1.1.1h.2v.1h.2l.1.1h.2l.1.1h.2l.1.1h.1l.1.1h.2l.2.1H160.8l.1.1H161.1l.1.1H161.5l.1.1H162l.1.1h.2l.1.1h.1v.1h.1l.1.1.1.1v.1h.1v.7h-.1v.1h-.1l-.1.1H162.1l-.1.1H160.3l-3.8-.3H149.4l-.1.1H148.3v.1H147.4v-.1h-.1l-.1-.1h-.1v-.2h-.1V117.1h.1v-.1h.1v-.1h.1v-.1h.2l.1-.1 1.5-.4h.1v-.1h.2v-.1h.1l.1-.1h.1v-.1h.1v-.1h.1v-.1h.1l.1-.1.1-.1.1-.1.1-.1v-.1h.2v-.2h.1l.1-.1v-.1h.1v-.2h.2v-.2l.2-.1v-.1l.2-.2v-.1l.2-.1v-.1l.1-.2h.1v-.1l.1-.1v-.1l.1-.1h.1v-.2h.1v-.2h.1v-.1l.1-.1v-.1h.2v-.2l.1-.2.1-.1v-.1l.1-.1v-.1l.1-.1.1-.2.1-.2v-.2h.1v-.1l1.3-2.7 20.5-45.6v-.1l.1-.1v-.1l.1-.1V62h.1V62l.1-.1v-.1h.1v-.1h.1v-.1h.2v-.1h.2l.1-.1h.1zm-2.3 11.3l-.1.1-.1.1v.1l-.1.1-.1.1v.1l-.1.2-7.8 17.3-.1.2v.1l-.2.2V91.6l-.1.1V92h-.1v.7l.2.2.2.2h.2l.2.1h.2l.2.1h14.9l.2-.1h.2l.1-.2h.1l.1-.2.1-.1v-1l-.1-.2-.2-.8-6.3-15.9-.4-.8v-.2l-.1-.2-.1-.1v-.2l-.2-.1V73h-.1l-.1-.1-.1-.1h-.1l-.2-.1z" id="j"/><path d="M223.4 63h3l.4.1h.4l.4.1h.4l.4.1h.3l.4.2h.4l.3.1h.4l.4.2h.3l.3.1.4.1.3.1.3.2h.3l.3.2h.3l.3.2.3.1.3.2.3.1.3.1.3.2.2.1.3.2.2.1.3.2.2.2.3.1.2.2.2.2.3.2.2.2.2.2.2.2.2.2.2.2.2.2.1.2.2.2.2.2.1.3.2.2.1.2.2.3.1.2.1.3.2.2v.3l.2.2.1.3.1.3.1.2.1.3v.3l.2.3v.3l.1.3v.3l.1.3v.3l.1.3v.6l.1.4v3.1l-.1.4v.4l-.2.4v.5l-.1.4-.2.4-.1.4-.1.3-.2.4-.2.4-.1.4-.2.4-.2.3-.3.4-.2.3-.2.4-.3.3-.2.4-.3.3-.3.4-.3.3-.3.3-.3.3-.4.3-.3.3-.4.3-.4.3-.4.3-.4.3-.4.3-.4.3-.4.2-.5.3-.4.3-.5.2-.5.3 11 16.2 1.3 2 .3.3.2.4.3.3.2.3.3.4.2.3.3.3.2.3.3.3.2.3.3.3.2.3.2.2.3.3.2.2.3.3.2.2.2.2.3.2.2.2.3.2.2.2.2.1.3.2.2.2.2.1.2.1.3.2h.2l.2.2.3.1h.2l.2.2h.2l.2.1h.3l.2.1H252.9l1.3.2h.4v.1h.1l.1.1v.7h-.1l-.1.1-.1.1h-.1l-.1.1h-.1l-.1.1h-.2v.1H253.5v.1H253.2l-.1.1H252.9v.1h-.4l-.1.1h-.4v.1H251.3l-.1.1H250.4l-.2.1H247.3l-.2-.1H247l-.2-.1H246.4l-.2-.1h-.1l-.2-.1h-.1l-.2-.1h-.2l-.1-.1h-.2l-.1-.1-.2-.1h-.1l-.2-.1-.2-.1h-.1l-.1-.1-.2-.1-.2-.1h-.1l-.2-.2h-.1l-.1-.1-.2-.2h-.1l-.2-.1-.1-.1-.2-.1-.1-.2h-.2v-.2h-.2l-.2-.2-.1-.1-.2-.2h-.1l-.2-.2-.1-.1-.1-.2-.2-.1-.1-.2-.2-.1-.1-.2-.2-.1-.1-.2-.2-.1-.1-.2-.1-.2-.2-.1-.1-.2-.2-.2-.1-.2-.2-.2-.1-.1-.2-.2-.1-.2-.2-.2-.1-.2-.2-.2-.1-.2-.2-.2-.1-.2-.2-.2-.1-.3-.2-.2-.1-.2-10-15.2-.5-.9-.1-.1-.1-.2-.1-.1h-.1v-.1l-.1-.1-.1-.1h-.1v-.1h-.1l-.1-.1-.2-.1-.1-.1-.1-.1h-.2l-.1-.1h-.2v-.1H224.3l-.1-.1H217v.1h-.1v.1h-.1v.1h-.1v.2h-.1v.5h-.1v16.9h.1v1.2l.1.1v.5l.1.1v.4h.1V113.4h.1v.2h.1v.2l.1.1v.1h.1v.1h.1v.2h.1v.1h.1v.1h.1v.1l.1.1.1.1.1.1.1.1.1.1.1.1h.1v.1l.2.1.2.1v.1h.1l.1.1h.2v.2h.2l.2.1.2.1h.1l.1.1h.2v.1h.2l.2.1.2.1h.2l.2.1H221.6l.2.1H222l.1.1h.4l.1.1h.5l.2.1h.7v.1h.4l.1.1h.2l.1.1h.1v.1h.1v.1h.1v.1h.1V118.4h-.1v.1h-.2v.1h-.4v.1H222.2v-.1h-1l-.1-.1H219.3v-.1H208.1l-.1.1h-.9l-.2.1H205.9v.1h-1.2v-.1h-.1l-.1-.1-.1-.1v-.1h-.1v-.7l.1-.1h.1v-.1h.1v-.1h.2l.1-.1H205.3l.2-.1H205.7l.2-.1h.1l.2-.1h.2l.2-.1h.1l.2-.1v-.1h.2l.1-.1h.2v-.1l.2-.1h.1l.1-.1.1-.1h.1l.1-.2h.1l.1-.1.1-.1h.1v-.2h.2v-.2h.1l.1-.2.2-.2v-.2h.2v-.2l.1-.2v-.1l.1-.1v-.2h.1v-.2l.1-.2v-.2l.1-.2v-.2l.1-.1v-.4l.1-.2v-.4l.1-.2v-.4l.1-.2V110l.1-.3v-1l.1-.3V70.6l-.1-.2v-.6l-.1-.2v-.3l-.1-.2-.1-.2v-.3l-.2-.2v-.2l-.1-.2-.1-.2v-.2l-.2-.2-.1-.2-.1-.1-.1-.2-.2-.1v-.2l-.2-.1-.1-.2-.2-.1-.2-.1-.1-.1-.2-.1-.1-.1-.2-.1-.2-.1-.2-.1h-.1l-.3-.2h-.4l-.2-.1h-.2l-1.8-.3H203.8l-.1-.1h-.2v-.1h-.2v-.1h-.2v-.1h-.1v-.1h-.1v-.1l-.1-.1v-.7h.1v-.1h.1l.1-.1h.1l.1-.1h.6V63H205.9l.1.1h1.4l.2.1H215l.2-.1h1.2l.2-.1H218.3l.1-.1H223.4zm-3.3 2.6h-.6l-.3.1h-.3l-.2.1h-.2l-.2.1-.2.1-.2.1h-.2l-.1.2h-.2v.2l-.2.1v.2l-.2.1v.2l-.2.2v.4l-.1.2v.3l-.1.2v19.9l.1.2v.1l.1.2v.1l.1.1v.1l.1.1.1.1.2.1.2.1h.1l.2.1h.1l.2.1h8l.7-.2h.6l.6-.2.6-.2.6-.3.6-.2.5-.3.5-.3.5-.3.5-.4.4-.4.4-.4.4-.5.3-.4.4-.5.3-.5.2-.6.3-.5.2-.6.1-.6.2-.6V81l.2-.6v-3.1l-.2-.7-.1-.8-.2-.7-.2-.8-.3-.6-.3-.7-.4-.7-.4-.6-.4-.6-.5-.6-.5-.5-.6-.6-.6-.5-.6-.5-.6-.5-.7-.4-.7-.3-.7-.4-.7-.3-.8-.2-.8-.2-.8-.2-.8-.1-.8-.1H220z" id="k"/><path d="M267.1 107.3v1.4c0 3.2.4 5 1 5.6.6.6 2.6 1 6 1 5 0 9.3-.7 13-1.9 3.7-1.2 6-2.7 7-4.6.4-.7.8-1.1 1.1-1.1.5 0 .7.3.7.8a11 11 0 0 1-2.6 5.7c-2.3 3-6 4.4-11.2 4.4l-3-.1-4.3-.3a113.5 113.5 0 0 0-18.6.4c-.6 0-1-.3-1-.7 0-.5.4-.8 1.1-1 1.9-.5 3.1-1.4 3.8-2.5.6-1 .9-2.9.9-5.4V107 71.4c0-3.6-1.4-5.7-4.3-6.2l-1.8-.4c-.6-.1-1-.4-1-.8 0-.5.5-.8 1.4-.8l2.5.1a85.8 85.8 0 0 0 14.5 0c.6 0 1 .2 1 .6 0 .5-.4.9-1.2 1l-1.4.4c-2.4.6-3.6 3-3.6 7.2v34.8" id="l"/><path d="M308.5 69.7v16.1c0 1.2.1 2 .3 2.2.3.3 1 .4 2 .4h6.2c2.8 0 5-.1 6.6-.5 1.5-.2 2.4-.6 2.8-1.1.5-.5.8-1.6 1.2-3.4.1-.7.5-1 1-1s.8.4.8 1.1v1a82.7 82.7 0 0 0 0 13c0 .6-.3 1-.8 1-.6 0-1-.4-1-1l-.3-1c-.3-1.8-1-3-2-3.7-.9-.6-2.5-1-4.8-1h-8.8c-1.3 0-2.2.2-2.6.5-.4.2-.6.8-.6 1.6v16c0 2.3.4 3.7 1.2 4.3.8.5 2.9.8 6.2.8 10.4 0 17.1-2.3 20.1-7 .3-.5.6-.7 1-.8.4 0 .7.4.7 1 0 1.8-1 3.8-3 6.2a11 11 0 0 1-8.8 4.3l-3.1-.1a141.5 141.5 0 0 0-22.5-.3l-2.1.3c-.8 0-1.3-.3-1.3-.8s.4-.8 1-1l1.6-.4c1.9-.6 2.8-2.5 2.8-5.7v-2.5-34c0-3.7-.3-6.3-1.2-7.6-.8-1.3-2.4-2-4.8-2-.8 0-1.2-.2-1.2-.7 0-.8.6-1.1 1.8-1.1.7 0 1.5 0 2.7.2a124.9 124.9 0 0 0 22.3.5l5.7-.3a44.3 44.3 0 0 0 4.5-.3c.8 0 1.3.4 1.3 1.1l-.1 1-.4 3.1-.1 2.4c-.1 1.5-.3 2.5-.4 2.9-.1.3-.4.6-.9.6s-.8-.4-.8-1.2v-1c0-.9-.2-1.7-.5-2.5-.5-1.2-1.5-2-3-2.4-1.6-.4-4.4-.6-8.5-.6h-6.3c-1.7 0-2.7.2-3.2.6-.4.4-.7 1.3-.7 2.8" id="m"/><path d="M357.6 62.4c2.9 0 5.3.4 7.2 1.2l2.8 1.1.7.2c.3 0 .6-.1 1-.4l.6-.5.4-.1c.7 0 1 .6 1 1.9l.5 4 .6 4.1.2 1.7c0 .8-.3 1.3-.8 1.3-.4 0-.9-.7-1.3-2-1-2.9-3-5.2-5.9-7.1a18 18 0 0 0-9.8-2.8c-2.9 0-5.3.8-7.2 2.5a8.2 8.2 0 0 0-2.9 6.4c0 2.2.6 4.2 1.9 5.8 1 1.4 2.3 2.4 3.5 3 1.3.7 4.5 1.9 9.6 3.5 9.8 3.2 14.8 8.5 14.8 15.9 0 5-1.8 9-5.5 12.2a20.3 20.3 0 0 1-14 4.8 30.7 30.7 0 0 1-12.1-2.9c-.5-.3-.8-.6-1-1l-.7-2.8-1-3.6c-.7-2.5-1-4.2-1-5.2 0-.8.3-1.1.8-1.1s1 .7 1.3 2c1 3.3 3 6 6 8.3 3.2 2.2 6.5 3.4 10.1 3.4 3.7 0 6.8-1.1 9.3-3.3a10 10 0 0 0 .3-15.4c-1.2-1-4.7-2.5-10.4-4.4-5.9-2-10-4.3-12.6-6.6a12.8 12.8 0 0 1-3.6-9.5c0-4.3 1.6-7.8 4.8-10.6 3.2-2.7 7.3-4 12.4-4" id="n"/><path d="M416.4 67.6h-11.2c-1.2 0-2 .1-2.3.5-.3.3-.4 1.1-.4 2.4v40.7c.2 3.1 2 5 5.3 5.6 1 .2 1.4.5 1.4 1s-.4.8-1.1.8l-2-.3h-3.6a276.4 276.4 0 0 1-6 0 28.7 28.7 0 0 0-5.6.3c-.8 0-1.2-.3-1.2-.9 0-.4.5-.7 1.3-.8 2-.3 3.5-.8 4.2-1.7.7-.9 1-2.4 1-4.7V71v-1c0-1-.1-1.7-.4-2-.3-.2-1-.3-2-.3h-10.5c-2.2 0-3.8.4-4.7 1.3-1 .9-1.7 2.5-2.3 5-.2 1-.6 1.4-1 1.4-.6 0-.8-.4-.8-1s.1-1.6.5-3.1c.4-2 .6-3.5.6-4.8 0-1.2 0-2 .4-2.4.3-.4.9-.6 1.8-.6h43c1.6 0 2.4.2 2.7.5.4.3.5 1.3.5 2.8 0 1.6 0 2.8.2 3.5l.2 2c0 .7-.2 1.1-.8 1.2-.5 0-.9-.4-1-1.2-.3-2-.9-3.2-1.7-3.8-.8-.5-2.3-.8-4.5-.8" id="o"/><path d="M450.8 62.4H452l.7.1h.6l.7.2h.6l.7.1.6.2h.6l.6.2.6.2.6.1.6.2.6.2.6.2.6.2.5.2.6.3.5.2.6.3.5.2.6.3.5.3.5.3.5.3.5.3.5.4.5.3.5.4.5.4.4.4.5.4.5.4.4.4.5.4.4.5.4.4.4.5.4.4.4.5.3.5.4.4.3.5.4.5.3.5.3.5.3.5.2.5.3.6.3.5.2.5.2.6.2.5.2.6.2.6.2.6.2.5.1.6.2.6.1.6.1.6.1.6.1.6.1.7v.6l.1.7v.6l.1.6v4.2l-.1.6-.1.7v.7l-.2.6v.7l-.2.6-.1.7-.2.6-.1.6-.2.6-.2.7-.2.5-.2.7-.2.5-.2.6-.3.6-.2.6-.3.5-.3.6-.3.5-.3.5-.3.6-.3.5-.4.5-.3.5-.4.5-.4.5-.4.5-.4.5-.4.5-.4.4-.4.5-.5.5-.5.4-.4.4-.5.4-.5.4-.5.4-.5.4-.5.4-.5.3-.5.3-.5.4-.5.3-.6.3-.5.3-.6.2-.5.3-.6.2-.6.3-.5.2-.6.2-.6.2-.6.2-.6.1-.6.2-.7.1-.6.2h-.6l-.6.2h-.7l-.6.2h-.7l-.7.1H450.6l-.7.1h-3.5l-.7-.1-.7-.1h-.6l-.7-.2h-.7l-.6-.2-.6-.1-.7-.2-.6-.1-.6-.2-.6-.2-.6-.2-.6-.1-.6-.3-.6-.2-.5-.2-.6-.3-.6-.2-.5-.3-.5-.3-.6-.3-.5-.3-.5-.3-.5-.3-.5-.4-.5-.3-.5-.4-.5-.4-.4-.4-.5-.4-.5-.4-.4-.4-.4-.5-.5-.4-.4-.5-.4-.5-.4-.4-.3-.5-.4-.5-.4-.5-.3-.5-.3-.5-.3-.5-.3-.5-.3-.5-.3-.6-.3-.5-.2-.6-.3-.5-.2-.6-.2-.6-.2-.6-.2-.6-.2-.6-.1-.6-.2-.6-.1-.6-.2-.6v-.7l-.2-.6v-.7l-.2-.6v-1.4l-.1-.6V87.6l.1-.3v-.6l.1-.3v-.3l.1-.3v-.3l.1-.3.1-.3v-.3l.1-.3.1-.3v-.3l.1-.3.1-.3.1-.3.1-.3v-.3l.2-.3v-.3l.2-.3V81l.2-.3v-.3l.2-.3.1-.3.1-.3.2-.3v-.3l.2-.3.1-.3.2-.3v-.3l.2-.3.2-.2.1-.3.1-.3.2-.3.1-.2.2-.3.1-.3.2-.2.1-.3.2-.2.1-.3.2-.2.2-.3.1-.2.2-.2.2-.3.1-.2.2-.2.2-.3.2-.2.1-.2.2-.2.2-.2.2-.3.2-.2.2-.2.2-.2.2-.2.2-.2.2-.2.2-.2.2-.2.3-.2.2-.2.2-.2.2-.2.3-.2.2-.2.3-.2.2-.2.2-.2.3-.1.3-.2.2-.2.3-.2.2-.2.3-.1.3-.2.2-.2.3-.1.3-.2.3-.1.3-.2.2-.1.3-.2.3-.1.3-.2.3-.1.3-.1.3-.2.3-.1.3-.1.4-.2h.3l.3-.2.3-.1.3-.2h.4l.3-.2h.3l.3-.2h.3l.4-.2h.3l.3-.2h.3l.4-.1.3-.1h.3l.4-.1.3-.1h.3l.3-.1h.4l.3-.1h.3l.4-.1h.3l.3-.1h.7l.3-.1h1l.3-.1H450.7zm-5.2 2.6h-1.2l-.6.1h-.6l-.5.2h-.6l-.5.2-.6.1-.5.2-.5.1-.5.2-.5.2-.5.2-.5.2-.5.2-.5.3-.4.2-.5.3-.4.3-.5.3-.4.3-.4.3-.4.4-.4.3-.4.4-.4.4-.4.4-.3.4-.4.4-.3.4-.4.5-.3.4-.3.5-.3.4-.3.5-.3.5-.2.5-.3.5-.2.5-.2.6-.3.5-.2.6-.1.5-.2.6-.2.6-.1.5-.2.6-.1.7-.1.6-.1.6-.1.6v.7l-.1.6-.1.7V86.6l-.1.7V90.4l.1.8v.8l.2.7v.8l.2.7.1.8.2.7.1.7.2.7.2.7.2.7.2.7.3.7.2.6.3.7.3.7.3.6.3.6.3.7.4.6.4.6.3.6.4.6.4.6.5.6.4.5.5.6.4.5.5.6.5.5.5.5.5.4.5.5.5.4.5.4.5.4.6.4.5.4.6.3.5.3.6.3.6.3.5.3.6.2.6.3.6.2.6.2.6.1.6.2.6.1.7.2h.6l.7.2H449.4l.7.1h2.5l.5-.1h.6l.6-.2h.6l.5-.2.6-.1.5-.2.6-.1.5-.2.5-.2.6-.2.5-.2.5-.2.5-.3.5-.3.5-.2.4-.3.5-.3.5-.4.4-.3.5-.3.4-.4.5-.4.4-.4.4-.4.4-.4.4-.5.4-.4.4-.5.4-.5.3-.5.4-.4.3-.5.3-.5.3-.6.3-.5.3-.5.3-.5.2-.6.2-.5.3-.6.2-.6.2-.5.1-.6.2-.6.2-.6.1-.6.1-.6.1-.7.1-.6.1-.6.1-.7v-.6l.1-.7V89.7l-.1-.7-.1-.8-.1-.7-.1-.7-.2-.8-.1-.7-.2-.7-.2-.7-.2-.7-.2-.6-.2-.7-.3-.7-.3-.6-.2-.7-.3-.6-.3-.6-.4-.6-.3-.6-.4-.7-.4-.5-.3-.6-.5-.6-.4-.6-.4-.5-.5-.6-.5-.5-.4-.5-.5-.5-.5-.5-.6-.5-.5-.4-.5-.5-.5-.4-.6-.4-.5-.4-.6-.3-.6-.4-.5-.3-.6-.3-.6-.3-.6-.3-.6-.2-.6-.3-.6-.2-.7-.2-.6-.2-.7-.1-.6-.2-.7-.1-.6-.2h-.7l-.7-.1h-.7l-.7-.1h-2.6z" id="p"/><path d="M529.9 78.8v33.4c0 3 0 4.9-.2 5.5-.1.7-.5 1-1 1s-.8-.2-1-.4l-.9-1-33.7-38.5-.5-.5a.8.8 0 0 0-.5-.2c-.5 0-.8.6-.8 1.8v28.8l.1 2.9c.2 1.7.7 3 1.4 3.6.7.7 2.1 1.2 4.2 1.5.9.1 1.3.4 1.3 1 0 .5-.3.8-.8.8h-1.2a53.2 53.2 0 0 0-7.6-.5h-2a25.5 25.5 0 0 0-4.3.3c-.7 0-1-.2-1.1-.7 0-.4.3-.7 1-1 2.3-.7 3.8-1.8 4.6-3 .8-1.4 1.2-3.5 1.2-6.3V80c0-4.7-.7-8.3-2.2-11a8.3 8.3 0 0 0-6.3-4.5c-.8-.1-1.1-.4-1.1-.9s.3-.8.8-.8h.7l1.6.1 2.7.1h2.1c.7 0 1.4.4 2 1.1l36.8 41.6c.6.7 1 1 1.2 1 .2 0 .4-.3.4-.8V81l-.4-9.2c-.3-2.3-1-4-2-4.9-1-.9-3-1.6-5.7-2-.8-.2-1.2-.5-1.2-1s.4-.8 1.2-.8l1.6.1a76.4 76.4 0 0 0 13.4-.1c.7 0 1 .2 1 .8.1.3-.2.6-.7.8-1.6.4-2.7 1-3.3 2-.5.9-.7 2.6-.7 5.2V76l-.1 2.7" id="q"/><path d="M441 22.4l.6.1h.5l.5.2h.5l.5.2.4.2.5.2.4.2.4.2.4.2.4.3.4.3.4.3.4.3.3.3.3.4.4.3.3.4.2.4.3.4.3.5.2.4.2.5.2.4.1.5.2.5.1.5.2.6v.5l.1.6.1.6V34l.1.6v1.8l-.1.8-.1.8-.1.9-.2.8-.2.8-.2.7-.2.8-.3.7-.3.7-.3.8-.3.6-.4.7-.4.7-.4.7-.4.6-.5.6-.5.6-.5.6-.6.5-.5.5-.5.5-.6.4-.6.4-.5.4-.6.3-.6.3-.6.3-.6.2-.7.2-.6.1-.7.1-.7.1h-.6l-.7.1h-1.1l-.5-.1h-.5l-.5-.2-.4-.1-.5-.1-.4-.2-.5-.2-.4-.2-.4-.2-.4-.3-.4-.3-.4-.3-.3-.3-.4-.3-.3-.4-.4-.4-.3-.4-.3-.4-.3-.4-.3-.4-.2-.5-.3-.4-.2-.5-.2-.5-.1-.5-.2-.5-.1-.6-.1-.5-.1-.6-.1-.5-.1-.6v-4.1l.1-.5v-.5l.2-.4v-.5l.2-.5V36l.2-.5.1-.5.2-.4.1-.5.2-.5.2-.4.2-.5.2-.5.2-.5.2-.4.2-.4.2-.5.2-.4.3-.4.2-.4.3-.4.2-.3.3-.4.2-.3.3-.3.3-.4.2-.3.3-.3.3-.3.3-.3.4-.3.4-.4.5-.3.4-.3.5-.3.4-.2.5-.3.5-.2.5-.2.4-.2.6-.2.5-.1.5-.1.5-.1h.5l.6-.2h2.2zm-2.2 2l-.6.1-.6.2-.6.3-.6.3-.5.4-.5.4-.6.5-.5.5-.5.6-.4.7-.5.7-.4.7-.4.8-.4.8-.3.9-.3.9-.2.8-.2 1-.2 1-.2.9-.1 1v1l-.1 1v2.7l.1 1.5.2 1.3.3 1.1.3 1 .4 1 .5.8.6.7.6.6.7.4.8.3.9.2h2.1l.6-.2.5-.2.6-.3.5-.3.5-.4.5-.5.5-.5.5-.6.4-.6.5-.7.4-.8.4-.8.4-.8.4-.9.3-.9.3-.9.2-.9.2-1 .2-.9.2-1v-1l.2-1v-3.7l-.1-1.3-.2-1.2-.2-1.1-.3-1-.4-.9-.5-.8-.5-.6-.6-.5-.6-.4-.8-.3-.8-.2h-2.1z" id="r"/><path d="M459.3 25.5h-5c-1.2 0-1.8-.3-1.8-1 0-1 .7-1.5 2.1-1.5h5l.2-1a37.7 37.7 0 0 1 6.4-16.5c1.3-1.7 2.5-2.8 3.7-3.5 1.1-.7 2.5-1 4-1 1 0 1.8.1 2.1.3.4.2.6.7.6 1.3 0 3-.3 4.7-1 4.7-.2 0-.4-.2-.6-.4l-.9-1c-.9-1-2-1.6-3.4-1.6s-2.6 1.4-3.6 4.1a68.4 68.4 0 0 0-3.2 14.6h5.6c1.2 0 1.8.3 1.8 1 0 1-.7 1.5-2 1.5h-5.8l-7 52.7c-.6 4.1-1.7 7.2-3.6 9.2-2.1 2.2-4.2 3.3-6.4 3.3-1.3 0-1.9-.5-1.9-1.5s.2-2 .7-3.2c.4-1.1.8-1.7 1.2-1.7.3 0 .5.3.6.9.3 1.7 1 2.5 2 2.5 1.2 0 2-1.7 2.5-5.1l.3-2.6 5.7-41.9c.5-4.2 1-8.4 1.7-12.6" id="s"/></defs><use xlink:href="#a" fill="#231f20"/><use xlink:href="#a" fill-opacity="0" stroke="#000" stroke-opacity="0"/><use xlink:href="#b" fill="#231f20"/><use xlink:href="#b" fill-opacity="0" stroke="#000" stroke-opacity="0"/><use xlink:href="#c" fill="#231f20"/><use xlink:href="#c" fill-opacity="0" stroke="#000" stroke-opacity="0"/><use xlink:href="#d" fill="#231f20"/><use xlink:href="#d" fill-opacity="0" stroke="#000" stroke-opacity="0"/><use xlink:href="#e" fill="#231f20"/><use xlink:href="#e" fill-opacity="0" stroke="#000" stroke-opacity="0"/><use xlink:href="#f" fill="#231f20"/><use xlink:href="#f" fill-opacity="0" stroke="#000" stroke-opacity="0"/><use xlink:href="#g" fill="#231f20"/><use xlink:href="#g" fill-opacity="0" stroke="#000" stroke-opacity="0"/><use xlink:href="#h" fill="#231f20"/><use xlink:href="#h" fill-opacity="0" stroke="#000" stroke-opacity="0"/><use xlink:href="#i" fill="#231f20"/><use xlink:href="#i" fill-opacity="0" stroke="#000" stroke-opacity="0"/><use xlink:href="#j" fill="#231f20"/><use xlink:href="#j" fill-opacity="0" stroke="#000" stroke-opacity="0"/><g><use xlink:href="#k" fill="#231f20"/><use xlink:href="#k" fill-opacity="0" stroke="#000" stroke-opacity="0"/></g><g><use xlink:href="#l" fill="#231f20"/><use xlink:href="#l" fill-opacity="0" stroke="#000" stroke-opacity="0"/></g><g><use xlink:href="#m" fill="#231f20"/><use xlink:href="#m" fill-opacity="0" stroke="#000" stroke-opacity="0"/></g><g><use xlink:href="#n" fill="#231f20"/><use xlink:href="#n" fill-opacity="0" stroke="#000" stroke-opacity="0"/></g><g><use xlink:href="#o" fill="#231f20"/><use xlink:href="#o" fill-opacity="0" stroke="#000" stroke-opacity="0"/></g><g><use xlink:href="#p" fill="#231f20"/><use xlink:href="#p" fill-opacity="0" stroke="#000" stroke-opacity="0"/></g><g><use xlink:href="#q" fill="#231f20"/><use xlink:href="#q" fill-opacity="0" stroke="#000" stroke-opacity="0"/></g><g><use xlink:href="#r" fill="#231f20"/><use xlink:href="#r" fill-opacity="0" stroke="#000" stroke-opacity="0"/></g><g><use xlink:href="#s" fill="#231f20"/><use xlink:href="#s" fill-opacity="0" stroke="#000" stroke-opacity="0"/></g></svg>