<svg id="layer" xmlns="http://www.w3.org/2000/svg" viewBox="0 0 600 198.55"><defs><style>.cls-1{fill:#77777a;}.cls-2{fill:#701c45;}.cls-3{fill:#2e2a25;}.cls-4,.cls-5,.cls-6,.cls-7,.cls-8{fill:none;stroke:#2e2a25;stroke-miterlimit:10;}.cls-4{stroke-width:5.47px;}.cls-5{stroke-width:5.57px;}.cls-6{stroke-width:4.1px;}.cls-7{stroke-width:4.17px;}.cls-8{stroke-width:11.22px;}</style></defs><path class="cls-1" d="M226,153.5a9.91,9.91,0,0,0-3.8-2.9,11.82,11.82,0,0,0-4.8-1,14.21,14.21,0,0,0-5.5,1.1,12.46,12.46,0,0,0-4.2,3,12.88,12.88,0,0,0-2.7,4.5,16.29,16.29,0,0,0-1,5.5,15.38,15.38,0,0,0,.9,5.2,13.38,13.38,0,0,0,2.6,4.3,11.67,11.67,0,0,0,4.2,2.9,14.34,14.34,0,0,0,5.6,1.1,11.33,11.33,0,0,0,5.4-1.2,10.7,10.7,0,0,0,3.9-3.4l4.1,3a8.82,8.82,0,0,1-1.4,1.5,15.77,15.77,0,0,1-2.7,2,18.53,18.53,0,0,1-4,1.8,18,18,0,0,1-5.4.8,17,17,0,0,1-7.6-1.6,20.26,20.26,0,0,1-5.8-4.1,19.27,19.27,0,0,1-3.7-5.7,18.37,18.37,0,0,1-1.3-6.5,19.89,19.89,0,0,1,1.4-7.4,16.71,16.71,0,0,1,3.8-5.8,17.14,17.14,0,0,1,5.9-3.8,20.57,20.57,0,0,1,7.6-1.4,18,18,0,0,1,6.9,1.3,13.41,13.41,0,0,1,5.6,4Z" transform="translate(-21.7 -7.95)"/><path class="cls-1" d="M260.7,181.4a20.42,20.42,0,0,1-7.5-1.4,17,17,0,0,1-9.7-9.5,19.21,19.21,0,0,1,0-14.4,17,17,0,0,1,9.7-9.5,20.79,20.79,0,0,1,15,0,17,17,0,0,1,9.7,9.5,18.86,18.86,0,0,1,1.4,7.2,19.24,19.24,0,0,1-1.4,7.2,17,17,0,0,1-9.7,9.5,18.56,18.56,0,0,1-7.5,1.4m0-4.4a13.49,13.49,0,0,0,5.5-1.1,12.43,12.43,0,0,0,6.9-7.3,16.06,16.06,0,0,0,1-5.3,13.17,13.17,0,0,0-1-5.3,14.1,14.1,0,0,0-2.7-4.4,16,16,0,0,0-4.2-3,13.84,13.84,0,0,0-5.5-1.1,14.34,14.34,0,0,0-5.6,1.1,10.76,10.76,0,0,0-4.2,3,11.64,11.64,0,0,0-2.7,4.4,16.06,16.06,0,0,0-1,5.3,13.17,13.17,0,0,0,1,5.3,14.1,14.1,0,0,0,2.7,4.4,13.71,13.71,0,0,0,4.2,2.9,12.74,12.74,0,0,0,5.6,1.1" transform="translate(-21.7 -7.95)"/><polygon class="cls-1" points="272.1 138.05 277 138.05 277 168.25 293.4 168.25 293.4 172.55 272.1 172.55 272.1 138.05"/><polygon class="cls-1" points="305.9 138.05 310.8 138.05 310.8 168.25 327.2 168.25 327.2 172.55 305.9 172.55 305.9 138.05"/><polygon class="cls-1" points="339.7 138.05 362.8 138.05 362.8 142.45 344.5 142.45 344.5 152.75 361.5 152.75 361.5 157.15 344.5 157.15 344.5 168.25 363.7 168.25 363.7 172.55 339.7 172.55 339.7 138.05"/><path class="cls-1" d="M430.3,161.2v17a20.87,20.87,0,0,1-3,1.4,35.74,35.74,0,0,1-3.5,1,22.54,22.54,0,0,1-3.6.6c-1.2.1-2.4.2-3.5.2a20.88,20.88,0,0,1-8.1-1.5,18.33,18.33,0,0,1-6-3.9,16.9,16.9,0,0,1-3.7-5.8,18,18,0,0,1-1.3-6.9,19.24,19.24,0,0,1,1.4-7.2,18.81,18.81,0,0,1,3.8-5.8,17.14,17.14,0,0,1,5.9-3.8,20.42,20.42,0,0,1,7.5-1.4,23.07,23.07,0,0,1,8.1,1.2,14.49,14.49,0,0,1,5.2,3.3l-3.4,3.6a13.07,13.07,0,0,0-4.7-2.9,18.21,18.21,0,0,0-5.2-.8,14.34,14.34,0,0,0-5.6,1.1,12.43,12.43,0,0,0-6.9,7.3,16.06,16.06,0,0,0-1,5.3,11.87,11.87,0,0,0,1.1,5.4,14.64,14.64,0,0,0,2.9,4.4,13.49,13.49,0,0,0,4.4,2.9,14.16,14.16,0,0,0,5.5,1,26.26,26.26,0,0,0,4.9-.5,17.81,17.81,0,0,0,3.9-1.3v-9.6h-7.9v-4.4h12.8Z" transform="translate(-21.7 -7.95)"/><polygon class="cls-1" points="425 138.05 448 138.05 448 142.45 429.8 142.45 429.8 152.75 446.8 152.75 446.8 157.15 429.8 157.15 429.8 168.25 449 168.25 449 172.55 425 172.55 425 138.05"/><path class="cls-2" d="M146.5,127.7a41.85,41.85,0,0,1-12.8,2.3c-5.5,0-9.1-2.8-9.1-7.9v-2.6c-4.1,5.4-11.5,10.5-20.1,10.5s-16.3-4.2-16.3-13.4c0-12.3,13.1-20.1,36.5-22.9V77c0-10.3-3.9-14-10.3-14-7.6,0-13.5,5.4-13.8,17.1H97.9c-6.3,0-7.9-2.4-7.9-5.5C90,65.4,103.9,59,118,59c13.1,0,18.2,7.5,18.2,18.8V116c0,6.5,1.8,8.6,6.9,8.6h3.5v3.1Zm-37.2-4.5c5.5,0,11.4-4,15.2-9.6v-16c-14.4,2.3-23.9,8.2-23.9,16.1,0,6,3.2,9.5,8.7,9.5" transform="translate(-21.7 -7.95)"/><path class="cls-2" d="M181.7,58.9c12.2,0,21.7,6.1,21.7,13.9,0,4.7-4.2,6.9-11,6.9-.3-10-4.2-16.8-12.3-16.8-11.3,0-20,11.5-20,30.4,0,18.7,8.4,28.9,22.1,28.9,6.9,0,13.5-3,20-7.8l2,3.3c-7.2,6.8-17.5,12.3-27,12.3-16.9,0-29-11.3-29-30.6,0-18.9,10.3-40.5,33.5-40.5" transform="translate(-21.7 -7.95)"/><path class="cls-2" d="M205.6,128v-2.8l10.3-3.1V35.3L205.6,34V30.6l21.8-5.4V122l10.3,3.1v2.8H205.6Zm39.7-64.2V61h26.3v2.8l-9.7,3.1L240.6,88.8l22.9,28.9c3.4,4.4,6.3,7.1,12.3,7.2v2.8a20.7,20.7,0,0,1-9.4,2.3c-4.8,0-8.4-.9-11.5-4.8L230.5,93.8l24.4-27.2Z" transform="translate(-21.7 -7.95)"/><path class="cls-2" d="M299.9,130c-11.4,0-23.4-4.1-23.4-12.5,0-4.3,4.1-7.6,9.6-8.1.3,11,5.3,16.6,14.2,16.6,7.9,0,14.2-4.4,14.2-11,0-6.2-5.1-9.3-15.5-14.6-10.7-5.4-19.7-10.3-19.7-21.7,0-12.3,11-19.8,23.1-19.8,11.7,0,20.1,4.2,20.1,12.2,0,5.1-4.8,6.8-10.3,6.8,0-8.3-3.1-14.9-12-14.9-6.5,0-11.7,3.7-11.7,11,0,6.9,7.3,10.5,16.6,15,10.1,5,19.7,10.2,19.7,21.1.2,12.7-11.4,19.9-24.9,19.9" transform="translate(-21.7 -7.95)"/><path class="cls-2" d="M330.9,94.9c0-20,11-35.9,32.7-35.9S396,75.4,396,94c0,20-11,36.1-32.7,36.1s-32.4-16.7-32.4-35.2m51.5-.6c0-22.6-7.2-31.4-19.1-31.4s-18.9,8.9-18.9,31.6,7.2,31.6,19.1,31.6,18.9-9.1,18.9-31.8" transform="translate(-21.7 -7.95)"/><path class="cls-2" d="M400.4,128v-2.8l10.3-3.1V69l-10.3-1.3V64.3l21.8-5.4V69.5c5.2-5.4,14.4-10.6,23.1-10.6,11.7,0,19.4,7.6,19.4,21.4v41.8l10.3,3.1V128H443v-2.8l10.3-3.1V83c0-10.8-5.8-15.7-14.4-15.7-5.8,0-11.8,2.8-16.6,7.6V122l10.3,3.1v2.8H400.4Z" transform="translate(-21.7 -7.95)"/><path class="cls-2" d="M47,31.5v3.1l13.4,3.5v68.7c0,12.4-1.7,18.5-6.6,23.3l-.1-.1c-.1,1-4.2,2.4-8.2,2.4-8.9,0-13.9-5.5-14.2-16.6-5.5.4-9.6,3.8-9.6,8.1,0,8.3,12,12.5,23.4,12.5a35,35,0,0,0,7.4-.8h.2a7.37,7.37,0,0,0,1.4-.4h.1c.6-.2,1.1-.3,1.7-.5s1.1-.4,1.7-.6h.1c.5-.2.9-.4,1.4-.6v-.1c9.7-5,14.7-16.4,14.7-33V38.1l13.4-3.5V31.5Z" transform="translate(-21.7 -7.95)"/><path class="cls-3" d="M456.4,200.7c75.1,13.7,87.4-55.5,165.3-28.7-72.6-19.3-80,55.3-165.3,28.7" transform="translate(-21.7 -7.95)"/><polyline class="cls-4" points="475.7 194.65 475.7 38.25 498.4 4.45 518.7 26.35 539.5 4.45 560.3 38.05 560.3 160.35"/><line class="cls-5" x1="518.8" y1="91.15" x2="518.8" y2="26.35"/><polyline class="cls-6" points="475.7 39.25 498 19.05 519.6 45.65"/><polyline class="cls-7" points="560.4 39.85 539.5 19.05 517.7 45.65"/><polyline class="cls-4" points="475.7 101.35 519.2 91.15 560.3 101.35"/><line class="cls-8" x1="518.8" y1="177.25" x2="518.8" y2="91.25"/><polygon class="cls-3" points="475.7 112.85 518.7 103.45 560.3 112.85 560.3 117.25 519.2 127.95 475.7 117.25 475.7 112.85"/><polyline class="cls-4" points="475.7 146.65 519.2 136.55 560.3 146.65"/><path class="cls-3" d="M513.9,94.6c19.8-.2,26.2-40.8,2.1-42.5a18.34,18.34,0,0,0-5.4,1c-3.2,1.3-7.9,5.7-5.6,4.4,2.4-1.5,4.1-2.8,7.2-2.9,22.7-.6,18.6,37.3,1.7,40" transform="translate(-21.7 -7.95)"/><polygon class="cls-3" points="490.9 68.55 494.5 52.35 491.7 69.05 490.9 68.55"/><polygon class="cls-3" points="491.6 68.55 498.4 63.85 491.7 69.05 491.6 68.55"/><path class="cls-3" d="M566.9,55.9c2.8.1,4.4,1.3,6.6,2.6s-2.2-2.8-5.1-4a18.43,18.43,0,0,0-4.9-1c-22,1.5-16.1,38.7,2,38.9-15.6-2.4-19.3-37,1.4-36.5" transform="translate(-21.7 -7.95)"/><polygon class="cls-3" points="543.6 67.85 547.2 51.95 544.4 68.35 543.6 67.85"/><polygon class="cls-3" points="544.3 67.85 551 63.25 544.4 68.35 544.3 67.85"/></svg>