<svg xmlns="http://www.w3.org/2000/svg" viewBox="0 0 275 149.7">
  <path d="M188.5 43.2c.2-1.9.4-4 .5-6.1.2-2.2.2-5.1.2-8.5v-6c0-3.9 0-7.1-.2-9.4 0-2.4-.2-4.6-.5-6.7h4.9c.9 0 2.3 0 4.4-.2h.9c-.2 1.8-.3 3.6-.4 5.4 0 1.7-.2 3.6-.2 5.7v18.7c0 .9 0 1.7.2 2.5 2 0 4 0 5.9-.2 1.9 0 3.8-.2 5.7-.4v2.4c0 .3 0 .8.2 1.6v1c-4 0-6.9-.2-8.9-.2h-8.6c-1.4 0-2.8 0-4.1.2m26 .2c.2-1.9.4-4 .5-6.1.2-2.2.2-5.1.2-8.5v-6c0-4 0-7.1-.2-9.4 0-2.4-.3-4.6-.6-6.7 3.6 0 6 .2 7.4.2h7.6c1.8 0 4 0 6.8-.2v.6c0 .9-.2 1.4-.2 1.7s0 .9.2 1.7v.7c-1.4-.2-2.9-.2-4.2-.3h-7.8c0 1.3-.2 2.6-.2 4v6.7c1.4 0 3.2 0 5.1-.2 2 0 4.2-.2 6.7-.3 0 .6-.2 1-.2 1.4v1.2c0 .4 0 .6.2 1.3v1.1c-2-.2-4-.2-5.9-.3-2 0-3.9-.2-5.8-.2v10c0 1.1.2 2.1.2 3 2 0 4 0 5.9-.2 2 0 3.9-.2 5.9-.4 0 .3-.2.7-.2 1v2.5c0 .5 0 1 .2 1.5-4 0-7-.2-8.9-.2h-8.7c-1.3 0-2.7 0-4 .2m-32.4-28.4c-1.1-2.6-2.9-4.5-5.2-5.9-1.3-.8-3-1.3-4.9-1.7-1.3-.2-3.3-.4-5.9-.5h-17.5c.2 1.8.3 3.8.5 5.9 0 2.1.2 4.7.2 7.8v10.3c0 3 0 5.5-.2 7.4s-.2 3.6-.5 5.3h13.2c1.5 0 2.9 0 4.3-.2 5.2-.6 9.3-2.1 12.3-4.6 3.6-3.2 5.5-8 5.5-14.4s-.6-6.9-1.8-9.4M171 35.8a11 11 0 0 1-4.8 3.1c-1.4.5-3 .7-4.8.7h-1.5c-.6 0-1.1-.2-1.7-.3V25.5c0-1.4 0-5.6.2-11.1v-4h3.1c1.7 0 3.3.2 4.7.5 2.2.5 4 1.4 5.2 2.9 1.9 2.2 2.9 5.9 2.9 10.9s-1.1 8.8-3.2 11.3ZM38.9 43.2l1.8-11.4c.6-3.1.9-6 1.3-8.7l2.6-20.2c1.1 0 2 .2 2.5.2h3.2c.6 0 1.4-.2 2.5-.2 2 5.2 3.9 10 5.6 14.3s3.5 8.4 5.2 12.3L71 13.3c.9-2.1 1.7-4 2.4-5.6C74 6 74.5 4.5 75 2.9c1 0 1.8.2 2.5.2h3.3c.6 0 1.4-.2 2.4-.2l1.9 19.9c0 .5.2 1.2.2 2.1q1.2 12.45 2.4 18.3c-1.3 0-2.5-.2-3.2-.2h-4.3c-.9 0-1.9.2-3.2.2 0-3.1-.3-7.1-.7-11.8v-.8l-1.4-14.1a507 507 0 0 0-11.5 26.7h-4.3c-1.7-4.5-3.6-8.9-5.5-13.2-1.9-4.4-3.9-8.6-5.9-12.9L46 33.3c0 1.3-.2 2.9-.3 4.6 0 1.7-.2 3.5-.3 5.4-1 0-1.7-.2-2.2-.2h-2.3c-.5 0-1.1.2-1.8.2m103.7-28.7c-1.2-2.6-2.9-4.5-5.3-5.9-1.3-.8-2.9-1.3-4.8-1.7-1.3-.2-3.3-.4-5.9-.5h-17.5c.2 1.8.4 3.8.5 5.9 0 2.1.2 4.7.2 7.8v10.3c0 3 0 5.5-.2 7.4 0 1.9-.2 3.6-.4 5.3h13.2c1.5 0 2.9 0 4.3-.2 5.3-.6 9.3-2.1 12.3-4.6 3.7-3.2 5.5-8 5.5-14.4s-.6-6.9-1.7-9.4Zm-11.1 21.2c-1.3 1.4-2.9 2.5-4.9 3.1-1.3.5-2.9.7-4.7.7h-1.6c-.5 0-1-.2-1.6-.3 0-3.2-.2-5.9-.2-8.2V10.4h3.1c1.7 0 3.3.2 4.7.5 2.2.5 4 1.4 5.2 2.9 2 2.2 2.9 5.9 2.9 10.9s-1 8.8-3.2 11.3ZM93 43.2c.2-2.7.4-5.4.5-8.1 0-2.7.2-6.1.2-10.2s0-6.7-.2-9.7c0-2.9-.3-5.9-.5-8.6 1.4.2 2.5.2 3.2.3h3.6c.6 0 1.7-.2 3.2-.3-.2 2.6-.3 5.3-.4 8.2-.2 2.9-.2 6.3-.2 10.2v2.1c0 3.3 0 6.3.2 8.8 0 2.5.2 5 .4 7.4-1.3 0-2.4-.2-3.2-.2h-3.5c-.6 0-1.7.2-3.3.2M31.4 60.2c-1.6-.2-3.2-.4-4.8-.5-1.6-.2-3.2-.2-4.8-.2 0 1-.2 2.1-.2 3.2v6.6c0 6.4 0 11.1.2 14.1 0 3.1.3 5.9.5 8.3-1.5 0-2.6-.2-3.3-.2h-3.8c-.7 0-1.7 0-3.1.2.2-2.5.4-5.1.5-7.9.2-2.8.2-6.3.2-10.4v-6.3c0-2.4 0-4.9-.2-7.6-1.7 0-3.3 0-4.9.2-1.7 0-3.3.2-4.8.5V60c.2-1.3.2-2.1.2-2.6v-2.3c4 .2 7 .2 9 .3h10.4c2.1 0 5.2-.2 9.4-.3v5.1m3.4 31.5c.2-1.9.4-4 .5-6.1.2-2.2.2-5 .2-8.5v-6c0-3.9 0-7.1-.2-9.4 0-2.4-.3-4.6-.6-6.7 3.6 0 6 .2 7.4.2h7.6c1.8 0 4 0 6.8-.2v.6c0 .9-.2 1.4-.2 1.7s0 .9.2 1.7v.7c-1.4-.2-2.9-.2-4.2-.2-1.4 0-2.9-.2-4.4-.2H45c0 1.3-.2 2.7-.2 4v6.8c1.4 0 3.2-.2 5.1-.2 2 0 4.2-.2 6.7-.2 0 .5 0 1-.2 1.3v1.2c0 .3 0 .6.2 1.3v1.1c-2-.2-4-.2-5.9-.3-2 0-3.9-.2-5.8-.2v10c0 1.1.2 2.1.2 3 2 0 4 0 5.9-.2 2 0 3.9-.2 5.9-.4 0 .3-.2.7-.2 1V90c0 .5 0 1 .2 1.5-4 0-7-.2-8.9-.2h-8.7c-1.3 0-2.7 0-4 .2m26.9.2c.2-2.6.4-5.4.5-8.2 0-2.8.2-6.2.2-10.1s0-5.2-.2-8.2c0-3.1-.2-6.5-.4-10.1 1 0 1.7.2 2.2.2h2.7c.5 0 1.2 0 2.1-.2 3.2 4.2 6.7 8.3 10.1 12.3s7 7.8 10.5 11.6V61.5c0-2.1-.2-4.2-.2-6.3.6 0 1.2.2 1.6.2h2.6c.7 0 1.2-.2 1.6-.2-.3 2-.5 4.7-.6 8-.2 3.3-.2 8.2-.2 14.8v2.5c0 2.7 0 4.9.2 6.6 0 1.7.2 3.3.3 4.8-.9 0-1.5-.2-2-.2h-2.6c-.5 0-1.1 0-1.9.2q-4.95-6.15-10.2-12.3c-3.5-4-7.1-8.1-10.9-12v18.9c0 1.6 0 3.4.2 5.4-.6 0-1.2 0-1.7-.2H64c-.4 0-.9 0-1.7.2m36.9-.2c.2-2.6.4-5.4.5-8.2 0-2.8.2-6.2.2-10.1s0-5.2-.2-8.2c0-3.1-.2-6.5-.3-10.1.9 0 1.7.2 2.1.2h2.7c.5 0 1.2 0 2.1-.2A291 291 0 0 0 127 79V61.5c0-2.1-.2-4.2-.3-6.3.6 0 1.2.2 1.7.2h2.6c.6 0 1.2-.2 1.5-.2-.2 2-.5 4.7-.6 8-.2 3.3-.2 8.2-.2 14.8v9.1c0 1.7.2 3.3.3 4.8-.9 0-1.5-.2-2-.2h-2.5c-.6 0-1.2 0-2 .2q-4.95-6.15-10.2-12.3c-3.5-4-7.1-8.1-10.9-12v18.9c0 1.6 0 3.4.2 5.4-.6 0-1.2 0-1.7-.2h-2.1c-.4 0-1 0-1.8.2m38-.2c.2-1.9.4-4 .5-6.1.2-2.2.2-5 .2-8.5v-6c0-3.9 0-7.1-.2-9.4 0-2.4-.2-4.6-.6-6.7 3.6 0 6.1.2 7.4.2h7.6c1.8 0 4 0 6.7-.2v.6c0 .9-.2 1.4-.2 1.7s0 .9.2 1.7v.7c-1.4-.2-2.9-.2-4.2-.2s-2.8-.2-4.2-.2h-3.5c0 1.3 0 2.7-.2 4v6.8c1.4 0 3.2-.2 5.2-.2 1.9 0 4-.2 6.5-.2 0 .5 0 1-.2 1.3v3.6c-2-.2-4-.2-5.9-.3-2 0-3.9-.2-5.8-.2v10c0 1.1 0 2.1.2 3 2.1 0 4 0 5.9-.2 1.8 0 3.7-.2 5.7-.4 0 .3 0 .7-.2 1V90c0 .5 0 1 .2 1.5-4 0-6.8-.2-8.8-.2h-8.7c-1.3 0-2.7 0-4 .2m27.5-.8c.2-1.2.5-2.5.7-3.8s.6-2.9 1-5.1h.9c.5 2.4 1.4 4.1 2.8 5.2 1.3 1.1 3.1 1.7 5.3 1.7s3.7-.5 4.9-1.4c1.1-.9 1.7-2.2 1.7-3.9s-.4-2.2-1.2-3c-.8-.9-2.7-2-5.8-3.4-4.1-2-6.9-3.7-8.2-5.2-1.3-1.6-2-3.6-2-6 0-3.6 1.3-6.3 3.7-8.3 2.5-2.1 5.9-3.1 10.2-3.1s3.6.2 5.2.6 3.1 1 4.5 1.7c-.5 1.1-.9 2.3-1.3 3.5-.3 1.1-.6 2.3-.9 3.5h-.7c-.7-2-1.7-3.4-2.9-4.4-1.2-.9-2.7-1.3-4.6-1.3s-3.2.5-4.4 1.3c-1.1 1-1.7 2.1-1.7 3.5s2.1 3.7 6.4 5.7c.7.3 1.3.6 1.7.8 4 1.9 6.7 3.6 7.8 5.2 1.2 1.5 1.8 3.5 1.8 5.9 0 3.8-1.4 6.8-4.1 9s-6.5 3.2-11.3 3.2-3.5-.2-5.1-.4c-1.6-.3-3.1-.8-4.4-1.3m28.2-.2c.2-1.2.5-2.5.7-3.8s.6-2.9.9-5.1h1c.5 2.4 1.3 4.1 2.7 5.2 1.3 1.1 3.1 1.7 5.4 1.7s3.6-.5 4.8-1.4 1.7-2.2 1.7-3.9-.4-2.2-1.1-3c-.8-.9-2.8-2-5.9-3.4-4.1-2-6.8-3.7-8.2-5.2-1.3-1.6-2-3.6-2-6 0-3.6 1.3-6.3 3.7-8.3 2.5-2.1 5.9-3.1 10.2-3.1s3.6.2 5.1.6c1.6.4 3.1 1 4.4 1.7-.5 1.1-.9 2.3-1.2 3.5-.3 1.1-.6 2.3-1 3.5h-.6c-.8-2-1.7-3.4-2.9-4.4-1.3-.9-2.8-1.3-4.6-1.3s-3.2.5-4.4 1.3c-1.1 1-1.7 2.1-1.7 3.5s2.1 3.7 6.3 5.7c.8.3 1.3.6 1.7.8 4 1.9 6.7 3.6 7.8 5.2 1.2 1.5 1.7 3.5 1.7 5.9 0 3.8-1.3 6.8-4 9-2.8 2.2-6.5 3.2-11.3 3.2s-3.6-.2-5.2-.4c-1.7-.3-3.1-.8-4.4-1.3m29.3.8c.2-1.9.4-4 .6-6.1 0-2.2.2-5 .2-8.5v-6c0-3.9 0-7.1-.2-9.4-.2-2.4-.3-4.6-.6-6.7 3.6 0 6 .2 7.4.2h7.7c1.7 0 4 0 6.7-.2v4.7c-1.3-.2-2.8-.2-4.2-.2s-2.9-.2-4.3-.2h-3.4v10.9c1.5 0 3.2-.2 5.2-.2s4.2-.2 6.7-.2c0 .5-.2 1-.2 1.3v2.5c0 .5 0 .8.2 1.1-2.1-.2-4-.2-6-.3-1.9 0-3.9-.2-5.8-.2v10c0 1.1 0 2.1.2 3 2 0 4 0 5.9-.2 1.9 0 3.9-.2 5.8-.4v4.9c-4 0-6.9-.2-8.9-.2h-8.6c-1.3 0-2.8 0-4.1.2m26.2.2c.2-1.9.4-4 .6-6.1 0-2.2.2-5 .2-8.5v-6c0-3.9 0-7.1-.2-9.4-.2-2.4-.3-4.6-.6-6.7 3.6 0 6 .2 7.4.2h7.7c1.7 0 4 0 6.7-.2v4.7c-1.4-.2-2.8-.2-4.2-.2s-2.9-.2-4.3-.2h-3.4v10.9c1.5 0 3.2-.2 5.2-.2s4.2-.2 6.7-.2c0 .5-.2 1-.2 1.3v2.5c0 .5 0 .8.2 1.1-2.1-.2-4-.2-6-.3-1.9 0-3.9-.2-5.8-.2v10c0 1.1 0 2.1.2 3 2 0 4 0 5.9-.2 1.9 0 3.9-.2 5.8-.4v4.9c-4 0-6.9-.2-8.9-.2h-8.6c-1.3 0-2.8 0-4.1.2m-36.2 50.4h.2c.5 1 1.1 1.9 1.9 2.5q1.35.9 3 .9c1.65 0 2.4-.3 3.2-1s1.2-1.7 1.2-2.9-.3-1.7-.9-2.3q-.75-.9-3.6-2.1c-2.1-.8-3.4-1.6-4.1-2.4s-1.1-1.8-1.1-3.1.6-3.2 1.7-4.1c1.2-1 2.7-1.5 4.7-1.5s3.4.4 5 1.3c-.2.4-.5.9-.6 1.3-.2.5-.3 1-.4 1.5h-.3c-.2-1-.6-1.7-1.3-2.2-.7-.6-1.6-.8-2.7-.8s-2.1.3-2.7 1c-.7.6-1 1.4-1 2.5s.3 1.7.9 2.2c.6.6 1.7 1.1 3.4 1.7 2.2.8 3.6 1.7 4.4 2.5.7.8 1.1 1.9 1.1 3.2s-.7 3.5-2.1 4.8c-1.3 1.3-3.1 1.9-5.2 1.9s-2.1-.2-3-.5c-.9-.2-1.7-.7-2.3-1.3.2-.5.2-1 .4-1.5 0-.6.2-1 .2-1.6m17.9 4.4c.2-1.4.2-3 .3-4.7v-10.8c0-1.6-.2-3.1-.3-4.4h3.6c0 1.3-.2 2.6-.2 4.2V142c0 1.7.2 3.1.2 4.4h-3.5m14-18.5H242c-.4 0-1 0-1.7.2-.7 0-1.6.2-2.6.3v-2.2c1.3 0 2.6 0 3.9.2h7.5c1.3 0 2.5 0 3.6-.2v2.1c-1-.2-1.9-.2-2.6-.3-.7 0-1.4-.2-1.7-.2h-1.7c0 .8 0 1.4-.2 2v10.9c0 2.5.2 4.3.3 5.5h-3.4c0-1.3.2-2.9.2-5v-13.4m18.9 18.5c0-.7.2-1.6.2-2.6V138c-1.1-2.1-2.2-4-3.4-6l-3.6-5.7h3.9c.3.8.6 1.6 1.1 2.5s1 1.9 1.6 2.9l2.5 4.3c.9-1.5 1.7-3 2.6-4.7.8-1.6 1.7-3.3 2.4-5.1h2.5l-2.1 3.3c-.7 1.1-1.3 2.2-1.9 3.2l-2.8 4.5v6.3c0 .9 0 1.7.2 2.5h-3.3m-58.5-4.8-3.9-5.1c1.8-.3 3.2-1 4.3-1.9.9-.9 1.4-2 1.4-3.3s-.6-2.7-1.6-3.4q-1.65-1.2-4.8-1.2h-6.5c.2 1.1.2 2.4.2 3.6v10.3c0 2.1 0 4-.2 6h3.2c0-1.4-.2-2.7-.2-3.7v-6.1h.7c1 1.1 1.8 2.3 2.7 3.4.4.5.7 1 1 1.4 1.2 1.6 2.3 3.2 3.3 4.9h4.2c-1.3-1.7-2.7-3.3-4-5.1Zm-7-5.7h-.9v-6.4c0-.6 0-1 .2-1.5.2 0 .5 0 .8-.2h2.4c.9.2 1.6.5 2.1 1 .9.6 1.3 1.6 1.3 2.9s-.5 2.4-1.4 3.1c-.6.4-1.2.7-2 .9-.7.2-1.5.2-2.5.2M71.2 146.3c.2-1.4.2-2.9.3-4.6v-11c0-1.6-.2-3-.3-4.4H82v2.2c-.7-.2-1.5-.3-2.3-.4h-5.2v7.1h4.9c.6 0 1.3 0 2.1-.2v2c-1 0-1.7-.2-2.5-.2h-4.6v8.4h2.7c.8 0 1.6 0 2.4-.2.8 0 1.6-.2 2.5-.3v2H71.2ZM99.4 126h3.5c0 1.3-.2 2.3-.2 3.1v7.2c0 1.4 0 2.5.2 3.4 0 .9.2 1.5.4 2 .4 1.1 1 1.9 1.8 2.5.9.5 2 .7 3.4.7s1.9-.2 2.7-.4c.8-.3 1.5-.7 2.1-1.3s.9-1.2 1.2-2.1q.3-1.2.3-4.2v-8.2c0-1-.2-1.8-.2-2.6h2.5c-.2.9-.2 1.9-.3 3v9.1c0 2.8-.7 4.8-2.2 6.3-1.4 1.3-3.6 2.1-6.6 2.1s-3.2-.2-4.3-.8q-1.8-.75-2.7-2.1-.6-.9-.9-2.1c-.2-.8-.2-2-.2-3.6v-9.5c0-.8 0-1.6-.2-2.4m22.1 20.3c.2-1.4.3-3.5.4-6.2v-14.3h1.1c2.2 2.6 4.5 5.2 6.8 7.8 2.4 2.5 4.8 5.1 7.2 7.7v-8c0-1 0-2.1-.2-3.2 0-1.2 0-2.5-.2-3.8h2.4c-.2 1-.3 2.9-.4 5.7 0 2.8-.2 6.2-.2 10.2v4.4h-1c-.6-.9-1.3-1.8-2.2-2.8q-1.35-1.5-3.3-3.6l-8.5-9V143c0 1.2.2 2.4.3 3.4-.2 0-.5 0-.6-.2h-1.2c-.2 0-.4 0-.6.2m24.2-.1c0-1.4.2-3 .2-4.7v-10.8c0-1.6-.2-3.1-.2-4.4h3.5c-.2 1.3-.2 2.6-.3 4.2V142c0 1.7.2 3.1.3 4.4h-3.5m15.5-.1c-.4-1.7-1.3-4.3-2.7-7.7-1.3-3.5-3.1-7.6-5.1-12.3h3.7c.5 1.7 1.3 4.2 2.5 7.4l.3.9 3.2 8.5 2.8-7.5c.8-1.9 1.4-3.6 1.9-5.2.5-1.4.9-2.9 1.2-4h2.7c-1.7 3.7-3.3 7.3-4.8 10.7-1.3 3.4-2.5 6.5-3.4 9.3h-2.3m14.1-.1c.2-1.4.2-2.9.3-4.6v-11c0-1.6-.2-3-.3-4.4h10.8v2.2c-.6-.2-1.4-.3-2.2-.4h-5.2v7.1h4.8c.7 0 1.4 0 2.1-.2v2c-1 0-1.7-.2-2.5-.2h-4.5v8.4h2.7c.8 0 1.6 0 2.4-.2.8 0 1.6-.2 2.5-.3v2h-10.9ZM66.9 127.4v-1c-1.2 0-2.4 0-3.6.2h-7.6c-1.1 0-2.3 0-3.5-.2h-.4v1.6c0 .2 0 .4-.2.6h.4c.9 0 1.6-.2 2.2-.2.7 0 1.3-.2 1.7-.2h1.8v13.4c0 2.1 0 3.7-.2 5h3.4c-.2-1.2-.2-3-.3-5.5v-10.9c0-.6 0-1.2.2-2h1.7c.4 0 1 0 1.7.2.7 0 1.6.2 2.6.3v-1.1ZM4.8 141.9H5c.4 1 1 1.9 1.9 2.5q1.2.9 3 .9c1.8 0 2.4-.3 3.2-1 .7-.7 1.1-1.7 1.1-2.9s-.2-1.7-.8-2.3-1.7-1.3-3.6-2.1c-2-.8-3.4-1.6-4.1-2.4s-1-1.8-1-3.1.6-3.2 1.7-4.1c1.1-1 2.7-1.5 4.7-1.5s3.4.4 4.9 1.3c-.2.4-.4.9-.6 1.3-.2.5-.2 1-.4 1.5h-.2c-.2-1-.6-1.7-1.3-2.2-.6-.6-1.6-.8-2.7-.8s-2 .3-2.7 1c-.6.6-1 1.4-1 2.5s.2 1.7.8 2.2c.6.6 1.7 1.1 3.4 1.7 2.2.8 3.7 1.7 4.4 2.5.8.8 1.1 1.9 1.1 3.2s-.6 3.5-2 4.8-3.2 1.9-5.2 1.9-2.1-.2-3-.5c-.9-.2-1.7-.7-2.3-1.3 0-.5.2-1 .3-1.5 0-.6.2-1 .2-1.6m30.1-14.5v-1h-.3c-1 0-2.2 0-3.3.2h-7.5c-1.3 0-2.5 0-3.9-.2v2.2c1-.2 1.9-.2 2.6-.3.7 0 1.3-.2 1.7-.2H26v13.4c0 2.1-.2 3.7-.2 5h3.4c-.2-1.2-.2-3-.3-5.5s0-5.6 0-9.5v-1.4c0-.6 0-1.2.2-2h1.6c.5 0 1.1 0 1.8.2.6 0 1.4.2 2.3.2h.3v-1.1Zm17.4 18c-1.3-3.1-2.6-6.1-3.8-9.2-1.4-3.4-2.8-6.8-4-10.3h-1.4c0 .2 0 .3-.2.5-1.5 3.6-2.9 7-4.3 10.2-1.3 3.1-2.6 6.1-4 9 0 .2-.2.5-.2.6h2.5l.6-2.3.6-2.1 1.2-3.1h7c.5 1.1.9 2.3 1.3 3.6s.9 2.6 1.3 4h3.7c0-.2-.2-.6-.4-.9Zm-7.9-8.1h-4.3l2.9-7.1 2.9 7.1h-1.3Z" style="fill-rule:evenodd;fill:#231f20"/>
  <path d="M171.8 101.1c-35.5 0-75.3 8.4-104.5 8.4s-44-1.7-56.5-5.1c-4.2-1-5.8-.9-5.8-.3s2.1.9 4.7 1.6c19.4 4.8 44 9.3 73.3 9.3 41.8 0 76.5-7.9 107.8-7.9s34.7-2.5 68.9 3.8c6.2 1.2 9.4 1.7 9.4 1.3s-2.1-1.3-7.4-2.3c-24.1-4.9-55.5-8.8-90-8.8" style="fill:#0079c1;fill-rule:evenodd"/>
</svg>
