<svg id="Layer_1" data-name="Layer 1" xmlns="http://www.w3.org/2000/svg" viewBox="0 0 605.75 104.01"><defs><style>.cls-1{fill:#d13239;}.cls-2{fill:#004a97;}.cls-3{fill:#fff;}</style></defs><title>logo-crump</title><path class="cls-1" d="M422.73,346a8.29,8.29,0,0,1-.15-11.91c1.51-1.38,3.5-2.22,6.62-2.22a20.65,20.65,0,0,1,3,.21c0.8,0.1,1.47.29,2.09,0.36a0.27,0.27,0,0,1,.31.25c0,0.17-.06.42-0.1,1.15s0,1.84-.06,2.26-0.06.48-.25,0.48-0.21-.17-0.21-0.46a3,3,0,0,0-.82-1.93,6.24,6.24,0,0,0-4.25-1.3,5.46,5.46,0,0,0-3.94,1.3,7,7,0,0,0-1.93,5.42c0,5,3.79,7.45,6.59,7.45,1.86,0,3-.21,3.83-1.17a3.51,3.51,0,0,0,.71-1.38c0.06-.33.1-0.42,0.27-0.42s0.19,0.15.19,0.31a19.94,19.94,0,0,1-.46,2.78,0.74,0.74,0,0,1-.54.61,12.13,12.13,0,0,1-3.77.48A10.47,10.47,0,0,1,422.73,346Z" transform="translate(-96.88 -253.63)"/><path class="cls-1" d="M439.17,338.22c0-3.18,0-3.77,0-4.44a1,1,0,0,0-.9-1.19,4.28,4.28,0,0,0-.82-0.06c-0.23,0-.36,0-0.36-0.19s0.15-.19.46-0.19c1.11,0,2.43.06,2.87,0.06,0.71,0,2.3-.06,3-0.06a6.69,6.69,0,0,1,3.85.9,3.63,3.63,0,0,1,1.42,2.87c0,1.55-.65,3-2.76,4.69,1.86,2.34,3.31,4.21,4.54,5.51a4.17,4.17,0,0,0,2.34,1.42,3.29,3.29,0,0,0,.59.06c0.17,0,.25.06,0.25,0.17s-0.15.21-.4,0.21h-2a4.26,4.26,0,0,1-2.24-.4,10.11,10.11,0,0,1-2.87-3.08c-0.84-1.15-1.8-2.58-2.07-2.89a0.44,0.44,0,0,0-.38-0.15l-1.82,0a0.15,0.15,0,0,0-.17.17v0.29c0,1.95,0,3.6.11,4.48a1,1,0,0,0,.82,1.15,9.57,9.57,0,0,0,1,.08c0.17,0,.25.06,0.25,0.17s-0.15.21-.42,0.21c-1.21,0-2.76-.06-3.08-0.06s-1.72.06-2.55,0.06c-0.27,0-.42-0.06-0.42-0.21s0.08-.17.33-0.17a3.42,3.42,0,0,0,.75-0.08,1.12,1.12,0,0,0,.61-1.15c0.1-.88.1-2.53,0.1-4.46v-3.68Zm2.47,1.65a0.32,0.32,0,0,0,.19.38,5.53,5.53,0,0,0,1.59.21,2.09,2.09,0,0,0,1.49-.36,3.69,3.69,0,0,0,1.23-3.14c0-3-2-3.83-3.2-3.83a4.61,4.61,0,0,0-1.11.08,0.25,0.25,0,0,0-.19.29v6.36Z" transform="translate(-96.88 -253.63)"/><path class="cls-1" d="M454,338.22c0-3.18,0-3.77,0-4.44a1,1,0,0,0-.9-1.19,4.28,4.28,0,0,0-.82-0.06c-0.23,0-.36,0-0.36-0.19s0.15-.19.46-0.19c1.11,0,2.43.06,3.06,0.06s1.82-.06,2.58-0.06c0.31,0,.46,0,0.46.19s-0.13.19-.33,0.19a3.14,3.14,0,0,0-.61.06,1,1,0,0,0-.77,1.19c0,0.67,0,1.26,0,4.44v2.93c0,3,.61,4.31,1.63,5.15a3.87,3.87,0,0,0,2.62.86,4.1,4.1,0,0,0,2.89-1.13c1.15-1.15,1.21-3,1.21-5.19v-2.62c0-3.18,0-3.77,0-4.44a1,1,0,0,0-.9-1.19,4,4,0,0,0-.75-0.06c-0.23,0-.36,0-0.36-0.19s0.15-.19.44-0.19c1.07,0,2.39.06,2.41,0.06,0.25,0,1.57-.06,2.39-0.06,0.29,0,.44,0,0.44.19s-0.12.19-.38,0.19a3.13,3.13,0,0,0-.61.06,1,1,0,0,0-.78,1.19c0,0.67,0,1.26,0,4.44v2.24c0,2.32-.23,4.79-2,6.3a6.25,6.25,0,0,1-4.35,1.51,6.73,6.73,0,0,1-4.65-1.44c-1.07-1-1.86-2.51-1.86-5.55v-3.06Z" transform="translate(-96.88 -253.63)"/><path class="cls-1" d="M473.15,332.23a0.52,0.52,0,0,1,.36-0.54c0.17,0,.29.1,0.57,0.65l5.72,11.81,5.69-12a0.65,0.65,0,0,1,.46-0.5c0.19,0,.31.21,0.38,0.65l1.91,12.94c0.19,1.32.4,1.93,1,2.11a4.18,4.18,0,0,0,1.3.21c0.19,0,.34,0,0.34.15s-0.25.23-.54,0.23c-0.52,0-3.41-.06-4.25-0.12-0.48,0-.61-0.1-0.61-0.23a0.28,0.28,0,0,1,.23-0.23,0.9,0.9,0,0,0,.11-0.9l-1.26-9.21h-0.08l-4.56,9.5c-0.48,1-.59,1.17-0.77,1.17a2,2,0,0,1-.73-1c-0.5-1-2.16-4.17-2.41-4.75s-1.44-3.08-2.18-4.65h-0.08l-1.09,8.33a8.65,8.65,0,0,0-.06,1,0.68,0.68,0,0,0,.63.67,4,4,0,0,0,.88.1c0.17,0,.31,0,0.31.15s-0.19.23-.5,0.23c-0.88,0-1.82-.06-2.2-0.06s-1.4.06-2.07,0.06c-0.21,0-.38,0-0.38-0.23s0.13-.15.33-0.15a2.71,2.71,0,0,0,.63-0.06c0.59-.13.75-0.94,0.86-1.65Z" transform="translate(-96.88 -253.63)"/><path class="cls-1" d="M494.21,338.22c0-3.18,0-3.77,0-4.44a1,1,0,0,0-.9-1.19,4.28,4.28,0,0,0-.82-0.06c-0.23,0-.36,0-0.36-0.19s0.15-.19.46-0.19c1.11,0,2.43.06,3,.06,0.86,0,2.07-.06,3-0.06,2.62,0,3.56.88,3.89,1.19a3.64,3.64,0,0,1,1,2.49,4.93,4.93,0,0,1-5.15,5.07,3.15,3.15,0,0,1-.44,0,0.23,0.23,0,0,1-.25-0.19c0-.17.15-0.23,0.59-0.23A3.3,3.3,0,0,0,501.1,337a4,4,0,0,0-1.24-3.14,3.11,3.11,0,0,0-2.09-.82,3,3,0,0,0-.82.08,0.38,0.38,0,0,0-.17.4v8.37c0,1.93,0,3.58.1,4.48a1,1,0,0,0,.82,1.13,8.8,8.8,0,0,0,1.07.08c0.23,0,.33.06,0.33,0.17s-0.17.21-.4,0.21c-1.38,0-2.7-.06-3.25-0.06s-1.8.06-2.64,0.06c-0.27,0-.42-0.06-0.42-0.21s0.08-.17.34-0.17a3.42,3.42,0,0,0,.75-0.08,1.12,1.12,0,0,0,.61-1.15c0.1-.88.1-2.53,0.1-4.46v-3.68Z" transform="translate(-96.88 -253.63)"/><path class="cls-2" d="M232.49,267.48l-5.42.15c-2.11.07-3,.25-3.53,1.06a4.29,4.29,0,0,0-.62,1.28,0.44,0.44,0,0,1-.4.44c-0.25,0-.33-0.18-0.33-0.58,0-.58.69-3.9,0.76-4.19,0.11-.47.22-0.69,0.44-0.69a8.48,8.48,0,0,0,1.56.44c1.06,0.11,2.44.18,3.64,0.18H243a17.52,17.52,0,0,0,2.51-.18,8.9,8.9,0,0,1,1-.18c0.25,0,.29.22,0.29,0.76,0,0.76-.11,3.28-0.11,4.22,0,0.36-.11.58-0.33,0.58S246,270.58,246,270l0-.4c-0.07-.95-1.06-2-4.3-2l-4.59-.11v14.93c0,3.35,0,6.23.18,7.79,0.11,1,.33,1.82,1.42,2a15.27,15.27,0,0,0,1.86.15c0.4,0,.58.11,0.58,0.29s-0.29.36-.69,0.36c-2.4,0-4.7-.11-5.72-0.11-0.84,0-3.13.11-4.59,0.11-0.47,0-.73-0.11-0.73-0.36s0.15-.29.58-0.29a5.9,5.9,0,0,0,1.31-.15c0.73-.15.95-0.95,1.06-2,0.18-1.53.18-4.4,0.18-7.75V267.48Z" transform="translate(-96.88 -253.63)"/><path class="cls-2" d="M257.14,276c0-5.54,0-6.55-.07-7.72s-0.37-1.82-1.57-2.08a7.41,7.41,0,0,0-1.42-.11c-0.4,0-.62-0.07-0.62-0.33s0.25-.33.8-0.33c1,0,2,0,2.95,0s1.79,0.07,2.29.07c1.16,0,8.41,0,9.1,0a14.2,14.2,0,0,0,1.57-.22,3.48,3.48,0,0,1,.58-0.15c0.18,0,.22.15,0.22,0.33a22.62,22.62,0,0,0-.29,2.37c0,0.37-.11,2-0.18,2.4a0.39,0.39,0,0,1-.36.4c-0.25,0-.33-0.18-0.33-0.51a3.92,3.92,0,0,0-.22-1.31c-0.25-.65-0.62-1.09-2.44-1.31-0.62-.07-4.44-0.14-5.17-0.14-0.18,0-.25.11-0.25,0.36V277c0,0.25,0,.4.25,0.4,0.8,0,5,0,5.83-.07a2.54,2.54,0,0,0,1.75-.55,1,1,0,0,1,.58-0.47,0.24,0.24,0,0,1,.25.29c0,0.22-.15.8-0.29,2.66,0,0.73-.15,2.18-0.15,2.44s0,0.69-.33.69a0.29,0.29,0,0,1-.33-0.33,9.66,9.66,0,0,0-.15-1.31c-0.18-.73-0.69-1.27-2-1.42-0.69-.07-4.3-0.11-5.17-0.11-0.18,0-.22.15-0.22,0.37v2.88c0,1.24,0,4.59,0,5.64,0.07,2.51.66,3.06,4.37,3.06a9.29,9.29,0,0,0,3.42-.43c0.95-.44,1.38-1.2,1.64-2.7,0.07-.4.14-0.55,0.4-0.55s0.29,0.29.29,0.66a28.49,28.49,0,0,1-.47,4c-0.25.95-.58,0.95-2,0.95-2.73,0-4.73-.07-6.3-0.11s-2.69-.11-3.79-0.11c-0.4,0-1.2,0-2.07,0s-1.79.07-2.51,0.07c-0.47,0-.73-0.11-0.73-0.36s0.15-.29.58-0.29a5.93,5.93,0,0,0,1.31-.15c0.73-.15.91-0.95,1.05-2,0.18-1.53.18-4.4,0.18-7.75V276Z" transform="translate(-96.88 -253.63)"/><path class="cls-2" d="M285.83,288c0.07,2.84.55,3.79,1.27,4a5.77,5.77,0,0,0,1.89.26c0.4,0,.62.07,0.62,0.29s-0.33.36-.84,0.36c-2.37,0-3.82-.11-4.51-0.11-0.33,0-2,.11-3.93.11-0.47,0-.8,0-0.8-0.36s0.22-.29.58-0.29a6.4,6.4,0,0,0,1.64-.18c0.95-.29,1.09-1.35,1.13-4.51l0.33-21.56c0-.73.11-1.24,0.47-1.24s0.73,0.47,1.35,1.13c0.44,0.47,6,6.41,11.29,11.69,2.47,2.48,7.39,7.72,8,8.3h0.18l-0.36-16.35c0-2.22-.37-2.91-1.24-3.28a6,6,0,0,0-1.93-.22c-0.44,0-.58-0.11-0.58-0.33s0.4-.33.95-0.33c1.89,0,3.64.11,4.41,0.11,0.4,0,1.78-.11,3.57-0.11,0.47,0,.84,0,0.84.33s-0.22.33-.66,0.33a4,4,0,0,0-1.09.11c-1,.29-1.31,1.05-1.35,3.09l-0.4,23c0,0.8-.14,1.13-0.47,1.13a2.2,2.2,0,0,1-1.24-.8c-2.29-2.18-7-7-10.74-10.71-4-3.93-8-8.48-8.67-9.17h-0.11Z" transform="translate(-96.88 -253.63)"/><path class="cls-2" d="M324,288c0.07,2.84.55,3.79,1.27,4a5.77,5.77,0,0,0,1.89.26c0.4,0,.62.07,0.62,0.29s-0.33.36-.84,0.36c-2.37,0-3.83-.11-4.52-0.11-0.33,0-2,.11-3.93.11-0.47,0-.8,0-0.8-0.36s0.22-.29.58-0.29a6.41,6.41,0,0,0,1.64-.18c0.95-.29,1.09-1.35,1.13-4.51l0.33-21.56c0-.73.11-1.24,0.47-1.24s0.73,0.47,1.35,1.13c0.44,0.47,6,6.41,11.29,11.69,2.48,2.48,7.39,7.72,8,8.3h0.18l-0.36-16.35c0-2.22-.36-2.91-1.24-3.28a5.94,5.94,0,0,0-1.93-.22c-0.44,0-.58-0.11-0.58-0.33s0.4-.33.95-0.33c1.89,0,3.64.11,4.41,0.11,0.4,0,1.78-.11,3.57-0.11,0.47,0,.84,0,0.84.33s-0.22.33-.65,0.33a4,4,0,0,0-1.09.11c-1,.29-1.31,1.05-1.35,3.09l-0.4,23c0,0.8-.15,1.13-0.47,1.13a2.21,2.21,0,0,1-1.24-.8c-2.29-2.18-7-7-10.74-10.71-4-3.93-8-8.48-8.67-9.17h-0.11Z" transform="translate(-96.88 -253.63)"/><path class="cls-2" d="M360,276c0-5.54,0-6.55-.07-7.72s-0.36-1.82-1.56-2.08a7.44,7.44,0,0,0-1.42-.11c-0.4,0-.62-0.07-0.62-0.33s0.25-.33.8-0.33c1,0,2,0,3,0s1.78,0.07,2.29.07c1.17,0,8.41,0,9.1,0a14.2,14.2,0,0,0,1.57-.22,3.48,3.48,0,0,1,.58-0.15c0.18,0,.22.15,0.22,0.33a23.65,23.65,0,0,0-.29,2.37c0,0.37-.11,2-0.18,2.4a0.4,0.4,0,0,1-.37.4c-0.25,0-.33-0.18-0.33-0.51a3.94,3.94,0,0,0-.22-1.31c-0.25-.65-0.62-1.09-2.44-1.31-0.62-.07-4.44-0.14-5.17-0.14-0.18,0-.25.11-0.25,0.36V277c0,0.25,0,.4.25,0.4,0.8,0,5,0,5.83-.07a2.54,2.54,0,0,0,1.75-.55,1,1,0,0,1,.58-0.47,0.24,0.24,0,0,1,.25.29c0,0.22-.14.8-0.29,2.66,0,0.73-.14,2.18-0.14,2.44s0,0.69-.33.69a0.29,0.29,0,0,1-.33-0.33,9.8,9.8,0,0,0-.14-1.31c-0.18-.73-0.69-1.27-2-1.42-0.69-.07-4.3-0.11-5.17-0.11-0.18,0-.22.15-0.22,0.37v2.88c0,1.24,0,4.59,0,5.64,0.07,2.51.66,3.06,4.37,3.06a9.27,9.27,0,0,0,3.42-.43c0.95-.44,1.38-1.2,1.64-2.7,0.07-.4.15-0.55,0.4-0.55s0.29,0.29.29,0.66a28.42,28.42,0,0,1-.47,4c-0.25.95-.58,0.95-2,0.95-2.73,0-4.73-.07-6.3-0.11s-2.69-.11-3.79-0.11c-0.4,0-1.2,0-2.08,0s-1.78.07-2.51,0.07c-0.47,0-.73-0.11-0.73-0.36s0.15-.29.58-0.29a5.92,5.92,0,0,0,1.31-.15c0.73-.15.91-0.95,1.06-2,0.18-1.53.18-4.4,0.18-7.75V276Z" transform="translate(-96.88 -253.63)"/><path class="cls-2" d="M384.69,292.54a1,1,0,0,1-.69-1.24c0-2,.15-4.19.18-4.77s0.15-.95.44-0.95,0.36,0.33.36,0.62a7.65,7.65,0,0,0,.33,1.86,5,5,0,0,0,5.21,3.68c3.28,0,4.88-2.22,4.88-4.15s-0.55-3.46-3.57-5.83l-1.68-1.31c-4-3.13-5.39-5.68-5.39-8.63,0-4,3.35-6.88,8.41-6.88a17.62,17.62,0,0,1,4.84.62,0.49,0.49,0,0,1,.51.44c0,0.47-.14,1.53-0.14,4.37,0,0.8-.11,1.09-0.4,1.09s-0.36-.22-0.36-0.66a4.42,4.42,0,0,0-.95-2.4,4.61,4.61,0,0,0-4-1.78c-2.7,0-4.33,1.57-4.33,3.75,0,1.67.84,2.95,3.86,5.24l1,0.76c4.4,3.31,6,5.83,6,9.28a7.34,7.34,0,0,1-3.42,6.34,10.52,10.52,0,0,1-5.79,1.49A12.58,12.58,0,0,1,384.69,292.54Z" transform="translate(-96.88 -253.63)"/><path class="cls-2" d="M409.52,292.54a1,1,0,0,1-.69-1.24c0-2,.14-4.19.18-4.77s0.15-.95.44-0.95,0.37,0.33.37,0.62a7.61,7.61,0,0,0,.33,1.86,5,5,0,0,0,5.21,3.68c3.28,0,4.88-2.22,4.88-4.15s-0.55-3.46-3.57-5.83L415,280.45c-4-3.13-5.39-5.68-5.39-8.63,0-4,3.35-6.88,8.41-6.88a17.61,17.61,0,0,1,4.84.62,0.49,0.49,0,0,1,.51.44c0,0.47-.15,1.53-0.15,4.37,0,0.8-.11,1.09-0.4,1.09s-0.37-.22-0.37-0.66a4.41,4.41,0,0,0-.95-2.4,4.61,4.61,0,0,0-4-1.78c-2.7,0-4.33,1.57-4.33,3.75,0,1.67.84,2.95,3.86,5.24l1,0.76c4.41,3.31,6,5.83,6,9.28a7.34,7.34,0,0,1-3.42,6.34,10.52,10.52,0,0,1-5.79,1.49A12.58,12.58,0,0,1,409.52,292.54Z" transform="translate(-96.88 -253.63)"/><path class="cls-2" d="M436.35,276c0-5.54,0-6.55-.07-7.72s-0.37-1.82-1.56-2.08a7.45,7.45,0,0,0-1.42-.11c-0.4,0-.62-0.07-0.62-0.33s0.25-.33.8-0.33c1,0,2,0,2.95,0s1.78,0.07,2.29.07c1.17,0,8.41,0,9.1,0a14.15,14.15,0,0,0,1.57-.22,3.56,3.56,0,0,1,.58-0.15c0.18,0,.22.15,0.22,0.33a23.4,23.4,0,0,0-.29,2.37c0,0.37-.11,2-0.18,2.4a0.4,0.4,0,0,1-.37.4c-0.25,0-.33-0.18-0.33-0.51a3.86,3.86,0,0,0-.22-1.31c-0.25-.65-0.62-1.09-2.44-1.31-0.62-.07-4.44-0.14-5.17-0.14-0.18,0-.25.11-0.25,0.36V277c0,0.25,0,.4.25,0.4,0.8,0,5,0,5.82-.07a2.53,2.53,0,0,0,1.75-.55,1,1,0,0,1,.58-0.47,0.24,0.24,0,0,1,.25.29c0,0.22-.14.8-0.29,2.66,0,0.73-.14,2.18-0.14,2.44s0,0.69-.33.69a0.29,0.29,0,0,1-.33-0.33,9.39,9.39,0,0,0-.15-1.31c-0.18-.73-0.69-1.27-2-1.42-0.69-.07-4.29-0.11-5.17-0.11-0.18,0-.22.15-0.22,0.37v2.88c0,1.24,0,4.59,0,5.64,0.07,2.51.65,3.06,4.37,3.06a9.27,9.27,0,0,0,3.42-.43c0.95-.44,1.38-1.2,1.64-2.7,0.07-.4.15-0.55,0.4-0.55s0.29,0.29.29,0.66a28.13,28.13,0,0,1-.47,4c-0.25.95-.58,0.95-2,0.95-2.73,0-4.73-.07-6.3-0.11s-2.7-.11-3.79-0.11c-0.4,0-1.2,0-2.08,0S434.68,293,434,293c-0.47,0-.73-0.11-0.73-0.36s0.15-.29.58-0.29a5.92,5.92,0,0,0,1.31-.15c0.73-.15.91-0.95,1.06-2,0.18-1.53.18-4.4,0.18-7.75V276Z" transform="translate(-96.88 -253.63)"/><path class="cls-2" d="M463,276c0-5.54,0-6.55-.07-7.72s-0.36-1.82-1.57-2.08a7.41,7.41,0,0,0-1.42-.11c-0.4,0-.62-0.07-0.62-0.33s0.25-.33.8-0.33c1,0,2,0,3,0s1.78,0.07,2.29.07c1.17,0,8.41,0,9.1,0a14.2,14.2,0,0,0,1.57-.22,3.51,3.51,0,0,1,.58-0.15c0.18,0,.22.15,0.22,0.33a22.84,22.84,0,0,0-.29,2.37c0,0.37-.11,2-0.18,2.4a0.4,0.4,0,0,1-.36.4c-0.26,0-.33-0.18-0.33-0.51a3.92,3.92,0,0,0-.22-1.31c-0.25-.65-0.62-1.09-2.44-1.31-0.62-.07-4.44-0.14-5.17-0.14-0.18,0-.26.11-0.26,0.36V277c0,0.25,0,.4.26,0.4,0.8,0,5,0,5.82-.07a2.54,2.54,0,0,0,1.75-.55,1,1,0,0,1,.58-0.47,0.24,0.24,0,0,1,.25.29c0,0.22-.15.8-0.29,2.66,0,0.73-.15,2.18-0.15,2.44s0,0.69-.33.69a0.29,0.29,0,0,1-.33-0.33,9.39,9.39,0,0,0-.15-1.31c-0.18-.73-0.69-1.27-2-1.42-0.69-.07-4.29-0.11-5.17-0.11-0.18,0-.22.15-0.22,0.37v2.88c0,1.24,0,4.59,0,5.64,0.07,2.51.66,3.06,4.37,3.06a9.27,9.27,0,0,0,3.42-.43c0.95-.44,1.38-1.2,1.64-2.7,0.07-.4.15-0.55,0.4-0.55s0.29,0.29.29,0.66a28.13,28.13,0,0,1-.47,4c-0.25.95-.58,0.95-2,0.95-2.73,0-4.73-.07-6.3-0.11s-2.69-.11-3.78-0.11c-0.4,0-1.2,0-2.08,0s-1.79.07-2.51,0.07c-0.47,0-.73-0.11-0.73-0.36s0.14-.29.58-0.29a5.94,5.94,0,0,0,1.31-.15c0.73-.15.91-0.95,1.05-2,0.18-1.53.18-4.4,0.18-7.75V276Z" transform="translate(-96.88 -253.63)"/><path class="cls-2" d="M504.77,289.52a14.42,14.42,0,0,1-.26-20.72c2.62-2.4,6.08-3.86,11.51-3.86a36.14,36.14,0,0,1,5.28.36c1.38,0.18,2.55.51,3.64,0.62a0.48,0.48,0,0,1,.55.44c0,0.29-.11.73-0.18,2s0,3.21-.11,3.93c0,0.54-.11.84-0.44,0.84s-0.36-.29-0.36-0.8A5.19,5.19,0,0,0,523,269c-1.2-1.28-4-2.26-7.39-2.26-3.17,0-5.24.8-6.85,2.26-2.66,2.44-3.35,5.9-3.35,9.43,0,8.67,6.59,13,11.47,13,3.24,0,5.21-.36,6.66-2a6,6,0,0,0,1.24-2.4c0.11-.58.18-0.73,0.47-0.73s0.33,0.25.33,0.55a34.42,34.42,0,0,1-.8,4.84,1.29,1.29,0,0,1-.95,1.06,21,21,0,0,1-6.55.84C512.27,293.48,508.09,292.39,504.77,289.52Z" transform="translate(-96.88 -253.63)"/><path class="cls-2" d="M533,279.21c0-6.23,4.12-14.27,15-14.27,9.06,0,14.71,5.28,14.71,13.62s-5.82,14.93-15.07,14.93C537.25,293.48,533,285.65,533,279.21Zm24.65,0.69c0-8.16-4.7-13.22-10.67-13.22-4.18,0-9,2.33-9,11.4,0,7.57,4.19,13.58,11.18,13.58C551.78,291.66,557.68,290.43,557.68,279.9Z" transform="translate(-96.88 -253.63)"/><path class="cls-2" d="M578.58,282.42c0,4.66,0,7.17.76,7.83s1.57,0.8,4.41.8c1.93,0,3.35,0,4.26-1a4.5,4.5,0,0,0,.95-2.18c0-.33.11-0.55,0.4-0.55s0.29,0.18.29,0.62a28.67,28.67,0,0,1-.55,4.19c-0.22.8-.4,1-2.29,1-2.62,0-4.52-.07-6.16-0.11s-2.95-.11-4.44-0.11c-0.4,0-1.21,0-2.08,0s-1.78.07-2.51,0.07c-0.47,0-.73-0.11-0.73-0.36s0.15-.29.58-0.29a5.92,5.92,0,0,0,1.31-.15c0.73-.15.91-0.95,1.06-2,0.18-1.53.18-4.4,0.18-7.75V276c0-5.54,0-6.55-.07-7.72s-0.37-1.82-1.56-2.08a5.36,5.36,0,0,0-1.2-.11c-0.4,0-.62-0.07-0.62-0.33s0.26-.33.8-0.33c1.71,0,4,.11,5,0.11s3.53-.11,5-0.11c0.51,0,.76.07,0.76,0.33s-0.22.33-.66,0.33a9.57,9.57,0,0,0-1.42.11c-1,.18-1.27.8-1.35,2.08s-0.07,2.18-.07,7.72v6.41Z" transform="translate(-96.88 -253.63)"/><path class="cls-2" d="M604.25,282.42c0,4.66,0,7.17.76,7.83s1.57,0.8,4.41.8c1.93,0,3.35,0,4.26-1a4.53,4.53,0,0,0,.95-2.18c0-.33.11-0.55,0.4-0.55s0.29,0.18.29,0.62a29.12,29.12,0,0,1-.54,4.19c-0.22.8-.4,1-2.3,1-2.62,0-4.51-.07-6.15-0.11s-2.95-.11-4.44-0.11c-0.4,0-1.2,0-2.08,0S598,293,597.29,293c-0.47,0-.73-0.11-0.73-0.36s0.14-.29.58-0.29a5.88,5.88,0,0,0,1.31-.15c0.73-.15.91-0.95,1.06-2,0.18-1.53.18-4.4,0.18-7.75V276c0-5.54,0-6.55-.07-7.72s-0.36-1.82-1.56-2.08a5.38,5.38,0,0,0-1.2-.11c-0.4,0-.62-0.07-0.62-0.33s0.26-.33.8-0.33c1.71,0,4,.11,5,0.11s3.53-.11,5-0.11c0.51,0,.76.07,0.76,0.33s-0.22.33-.66,0.33a9.58,9.58,0,0,0-1.42.11c-1,.18-1.27.8-1.35,2.08s-0.07,2.18-.07,7.72v6.41Z" transform="translate(-96.88 -253.63)"/><path class="cls-2" d="M625.37,276c0-5.54,0-6.55-.07-7.72s-0.37-1.82-1.57-2.08a7.4,7.4,0,0,0-1.42-.11c-0.4,0-.62-0.07-0.62-0.33s0.26-.33.8-0.33c1,0,2,0,3,0s1.78,0.07,2.29.07c1.16,0,8.41,0,9.1,0a14.28,14.28,0,0,0,1.57-.22,3.48,3.48,0,0,1,.58-0.15c0.18,0,.22.15,0.22,0.33a22.54,22.54,0,0,0-.29,2.37c0,0.37-.11,2-0.18,2.4a0.4,0.4,0,0,1-.37.4c-0.26,0-.33-0.18-0.33-0.51a3.92,3.92,0,0,0-.22-1.31c-0.25-.65-0.62-1.09-2.44-1.31-0.62-.07-4.45-0.14-5.17-0.14-0.18,0-.25.11-0.25,0.36V277c0,0.25,0,.4.25,0.4,0.8,0,5,0,5.83-.07a2.54,2.54,0,0,0,1.75-.55,1,1,0,0,1,.58-0.47,0.24,0.24,0,0,1,.25.29c0,0.22-.14.8-0.29,2.66,0,0.73-.15,2.18-0.15,2.44s0,0.69-.33.69a0.29,0.29,0,0,1-.33-0.33,9.8,9.8,0,0,0-.14-1.31c-0.18-.73-0.69-1.27-2-1.42-0.69-.07-4.3-0.11-5.17-0.11-0.18,0-.22.15-0.22,0.37v2.88c0,1.24,0,4.59,0,5.64,0.07,2.51.65,3.06,4.37,3.06a9.28,9.28,0,0,0,3.42-.43c0.95-.44,1.38-1.2,1.64-2.7,0.07-.4.14-0.55,0.4-0.55s0.29,0.29.29,0.66a28.57,28.57,0,0,1-.47,4c-0.25.95-.58,0.95-2,0.95-2.73,0-4.73-.07-6.3-0.11s-2.7-.11-3.79-0.11c-0.4,0-1.2,0-2.08,0S623.69,293,623,293c-0.47,0-.73-0.11-0.73-0.36s0.14-.29.58-0.29a5.93,5.93,0,0,0,1.31-.15c0.73-.15.91-0.95,1.06-2,0.18-1.53.18-4.4,0.18-7.75V276Z" transform="translate(-96.88 -253.63)"/><path class="cls-2" d="M674.12,290.53c0,1,0,1.05-.47,1.31-2.37,1.24-5.93,1.64-8.77,1.64-8.92,0-16.82-4.22-16.82-14.27a13.61,13.61,0,0,1,6.33-11.91,17.64,17.64,0,0,1,9.8-2.37,44,44,0,0,1,6.44.58,23.86,23.86,0,0,0,2.88.4c0.44,0,.51.18,0.51,0.44a49.61,49.61,0,0,0-.25,6c0,0.58-.11.77-0.4,0.77s-0.33-.18-0.37-0.47a5.12,5.12,0,0,0-1.24-3,11.63,11.63,0,0,0-8.12-2.84,10.49,10.49,0,0,0-7.21,2.26c-2,1.71-3.35,4.44-3.35,8.92,0,7.83,5,13.69,12.67,13.69a8.07,8.07,0,0,0,3.1-.4,1.29,1.29,0,0,0,.69-1.35v-3.42c0-1.82,0-3.2,0-4.29s-0.36-1.82-1.56-2.08a7.58,7.58,0,0,0-1.42-.11c-0.33,0-.54-0.07-0.54-0.29s0.25-.36.76-0.36c1.9,0,4.19.11,5.28,0.11s3.06-.11,4.26-0.11c0.47,0,.73.07,0.73,0.36s-0.22.29-.47,0.29a5.75,5.75,0,0,0-1,.11c-1,.18-1.35.8-1.38,2.08,0,1.09,0,2.55,0,4.37v4Z" transform="translate(-96.88 -253.63)"/><path class="cls-2" d="M687.92,276c0-5.54,0-6.55-.07-7.72s-0.37-1.82-1.57-2.08a7.39,7.39,0,0,0-1.42-.11c-0.4,0-.62-0.07-0.62-0.33s0.25-.33.8-0.33c1,0,2,0,2.95,0s1.79,0.07,2.3.07c1.16,0,8.41,0,9.1,0a14.08,14.08,0,0,0,1.57-.22,3.52,3.52,0,0,1,.58-0.15c0.18,0,.22.15,0.22,0.33a22.72,22.72,0,0,0-.29,2.37c0,0.37-.11,2-0.18,2.4a0.39,0.39,0,0,1-.36.4c-0.25,0-.33-0.18-0.33-0.51a3.87,3.87,0,0,0-.22-1.31c-0.25-.65-0.62-1.09-2.44-1.31-0.62-.07-4.44-0.14-5.17-0.14-0.18,0-.25.11-0.25,0.36V277c0,0.25,0,.4.25,0.4,0.8,0,5,0,5.82-.07a2.53,2.53,0,0,0,1.75-.55,1,1,0,0,1,.58-0.47,0.24,0.24,0,0,1,.25.29c0,0.22-.14.8-0.29,2.66,0,0.73-.14,2.18-0.14,2.44s0,0.69-.33.69a0.29,0.29,0,0,1-.33-0.33,9.53,9.53,0,0,0-.15-1.31c-0.18-.73-0.69-1.27-2-1.42-0.69-.07-4.3-0.11-5.17-0.11-0.18,0-.22.15-0.22,0.37v2.88c0,1.24,0,4.59,0,5.64,0.07,2.51.65,3.06,4.37,3.06a9.28,9.28,0,0,0,3.42-.43c0.95-.44,1.38-1.2,1.64-2.7,0.07-.4.15-0.55,0.4-0.55s0.29,0.29.29,0.66a28.71,28.71,0,0,1-.47,4c-0.26.95-.58,0.95-2,0.95-2.73,0-4.73-.07-6.3-0.11s-2.69-.11-3.79-0.11c-0.4,0-1.2,0-2.08,0s-1.78.07-2.51,0.07c-0.47,0-.73-0.11-0.73-0.36s0.15-.29.58-0.29a5.91,5.91,0,0,0,1.31-.15c0.73-.15.91-0.95,1.05-2,0.19-1.53.19-4.4,0.19-7.75V276Z" transform="translate(-96.88 -253.63)"/><polygon class="cls-2" points="412.96 86.57 412.96 85.58 605.75 85.58 605.75 86.57 412.96 86.57 412.96 86.57"/><polygon class="cls-2" points="125.31 86.57 125.31 85.58 316.79 85.58 316.79 86.57 125.31 86.57 125.31 86.57"/><path class="cls-2" d="M222.52,310.18c0-4.49,3-10.3,10.85-10.3,6.54,0,10.61,3.81,10.61,9.83s-4.2,10.77-10.88,10.77C225.56,320.48,222.52,314.83,222.52,310.18Zm17.79,0.5c0-5.89-3.39-9.54-7.7-9.54-3,0-6.46,1.68-6.46,8.22,0,5.46,3,9.8,8.06,9.8C236,319.17,240.3,318.28,240.3,310.68Z" transform="translate(-96.88 -253.63)"/><path class="cls-2" d="M257.31,312.5c0,2.52,0,4.49.13,5.6,0.08,0.76.24,1.34,1,1.45a11.22,11.22,0,0,0,1.31.1c0.34,0,.45.08,0.45,0.21s-0.18.26-.58,0.26c-1.65,0-3.31-.08-4-0.08s-2.34.08-3.34,0.08c-0.37,0-.55-0.05-0.55-0.26s0.1-.21.39-0.21a4.33,4.33,0,0,0,.95-0.1c0.53-.11.66-0.68,0.76-1.45C254,317,254,315,254,312.5v-4.62c0-4,0-4.73-.05-5.57a1.29,1.29,0,0,0-1.13-1.5,5.43,5.43,0,0,0-1-.08c-0.26,0-.45-0.05-0.45-0.21s0.21-.26.6-0.26l2.13,0c0.68,0,1.29.05,1.66,0.05,1,0,6.33,0,6.94,0a5.1,5.1,0,0,0,1.08-.11,1.66,1.66,0,0,1,.42-0.16,0.21,0.21,0,0,1,.18.24c0,0.18-.13.5-0.21,1.18,0,0.26-.08,1.81-0.13,2.13s-0.08.37-.26,0.37-0.24-.13-0.26-0.42a2.57,2.57,0,0,0-.16-1,1.9,1.9,0,0,0-1.73-.79l-4-.08c-0.16,0-.24.08-0.24,0.37v6.57c0,0.16,0,.24.18,0.24l3.36,0c0.45,0,.81,0,1.18,0a1.37,1.37,0,0,0,1.13-.47,0.46,0.46,0,0,1,.34-0.26c0.11,0,.16.08,0.16,0.24s-0.13.81-.21,1.63c-0.05.53-.11,1.73-0.11,1.92s0,0.5-.26.5-0.21-.18-0.21-0.37a2.89,2.89,0,0,0-.16-0.81,1.54,1.54,0,0,0-1.34-.95c-0.66-.08-3.44-0.08-3.89-0.08-0.13,0-.18.05-0.18,0.24v2.13Z" transform="translate(-96.88 -253.63)"/><path class="cls-2" d="M288.31,313.42a0.23,0.23,0,0,0-.24.21l-1.42,3.6a5.09,5.09,0,0,0-.39,1.6c0,0.47.24,0.81,1.05,0.81h0.39c0.32,0,.39.05,0.39,0.21s-0.16.26-.45,0.26c-0.84,0-2-.08-2.78-0.08-0.29,0-1.73.08-3.1,0.08-0.34,0-.5-0.05-0.5-0.26s0.1-.21.31-0.21a7.93,7.93,0,0,0,.81-0.05c1.21-.16,1.71-1.05,2.23-2.36l6.59-16.29c0.32-.76.47-1.05,0.74-1.05a1,1,0,0,1,.66.84c0.63,1.44,4.83,12,6.52,15.95,1,2.36,1.76,2.73,2.31,2.86a5.82,5.82,0,0,0,1.1.1c0.21,0,.34,0,0.34.21s-0.24.26-1.21,0.26-2.86,0-5-.05c-0.47,0-.79,0-0.79-0.21s0.11-.21.37-0.24a0.43,0.43,0,0,0,.24-0.6l-2.1-5.41a0.25,0.25,0,0,0-.26-0.18h-5.86Zm5.36-1.31c0.13,0,.16-0.08.13-0.16l-2.36-6.46a0.26,0.26,0,0,0-.13-0.24,0.28,0.28,0,0,0-.16.24l-2.42,6.44c0,0.11,0,.18.1,0.18h4.83Z" transform="translate(-96.88 -253.63)"/><path class="cls-2" d="M310.18,307.87c0-4,0-4.73-.05-5.57a1.29,1.29,0,0,0-1.13-1.5,5.42,5.42,0,0,0-1-.08c-0.29,0-.45-0.05-0.45-0.24s0.18-.24.58-0.24c1.39,0,3,.08,3.78.08,1.08,0,2.6-.08,3.81-0.08,3.28,0,4.47,1.1,4.89,1.5a4.56,4.56,0,0,1,1.31,3.13,6.18,6.18,0,0,1-6.46,6.36,4,4,0,0,1-.55,0,0.29,0.29,0,0,1-.32-0.24c0-.21.18-0.29,0.74-0.29,1.47,0,3.52-1.66,3.52-4.34a5.05,5.05,0,0,0-1.55-3.94,3.9,3.9,0,0,0-2.63-1,3.73,3.73,0,0,0-1,.1,0.48,0.48,0,0,0-.21.5V312.5c0,2.42,0,4.49.13,5.62,0.08,0.74.24,1.31,1,1.42a11.23,11.23,0,0,0,1.34.1c0.29,0,.42.08,0.42,0.21s-0.21.26-.5,0.26c-1.73,0-3.39-.08-4.07-0.08s-2.26.08-3.31,0.08c-0.34,0-.53-0.08-0.53-0.26s0.11-.21.42-0.21a4.34,4.34,0,0,0,.95-0.1c0.53-.11.66-0.68,0.76-1.45,0.13-1.1.13-3.18,0.13-5.6v-4.62Z" transform="translate(-96.88 -253.63)"/><path class="cls-2" d="M331.91,307.87c0-4,0-4.73-.05-5.57a1.29,1.29,0,0,0-1.13-1.5,5.42,5.42,0,0,0-1-.08c-0.29,0-.45-0.05-0.45-0.24s0.18-.24.58-0.24c1.39,0,3,.08,3.78.08,1.08,0,2.6-.08,3.81-0.08,3.28,0,4.47,1.1,4.89,1.5a4.57,4.57,0,0,1,1.31,3.13,6.18,6.18,0,0,1-6.46,6.36,4,4,0,0,1-.55,0,0.29,0.29,0,0,1-.31-0.24c0-.21.18-0.29,0.74-0.29,1.47,0,3.52-1.66,3.52-4.34a5.06,5.06,0,0,0-1.55-3.94,3.9,3.9,0,0,0-2.63-1,3.72,3.72,0,0,0-1,.1,0.48,0.48,0,0,0-.21.5V312.5c0,2.42,0,4.49.13,5.62,0.08,0.74.24,1.31,1,1.42a11.22,11.22,0,0,0,1.34.1c0.29,0,.42.08,0.42,0.21s-0.21.26-.5,0.26c-1.73,0-3.39-.08-4.07-0.08s-2.26.08-3.31,0.08c-0.34,0-.53-0.08-0.53-0.26s0.11-.21.42-0.21a4.34,4.34,0,0,0,.95-0.1c0.53-.11.66-0.68,0.76-1.45,0.13-1.1.13-3.18,0.13-5.6v-4.62Z" transform="translate(-96.88 -253.63)"/><path class="cls-2" d="M356.93,312.5c0,3.36,0,5.18.55,5.65s1.13,0.58,3.18.58c1.39,0,2.42,0,3.07-.74a3.29,3.29,0,0,0,.68-1.58c0-.24.08-0.39,0.29-0.39s0.21,0.13.21,0.45a20.68,20.68,0,0,1-.39,3c-0.16.58-.29,0.71-1.65,0.71-1.89,0-3.26-.05-4.44-0.08s-2.13-.08-3.21-0.08c-0.29,0-.87,0-1.5,0s-1.29.05-1.81,0.05c-0.34,0-.53-0.08-0.53-0.26s0.11-.21.42-0.21a4.34,4.34,0,0,0,.95-0.1c0.53-.11.66-0.68,0.76-1.45,0.13-1.1.13-3.18,0.13-5.6v-4.62c0-4,0-4.73-.05-5.57a1.29,1.29,0,0,0-1.13-1.5,3.92,3.92,0,0,0-.87-0.08c-0.29,0-.45-0.05-0.45-0.24s0.18-.24.58-0.24c1.23,0,2.89.08,3.6,0.08s2.55-.08,3.57-0.08c0.37,0,.55.05,0.55,0.24s-0.16.24-.47,0.24a7,7,0,0,0-1,.08c-0.71.13-.92,0.58-1,1.5s-0.05,1.58-.05,5.57v4.62Z" transform="translate(-96.88 -253.63)"/><path class="cls-2" d="M374.06,307.87c0-4,0-4.73-.05-5.57s-0.32-1.34-.89-1.47a3.74,3.74,0,0,0-.95-0.1c-0.26,0-.42-0.05-0.42-0.26s0.21-.21.63-0.21c1,0,2.65.08,3.41,0.08s2.21-.08,3.21-0.08c0.34,0,.55.05,0.55,0.21s-0.16.26-.42,0.26a4.46,4.46,0,0,0-.79.08c-0.71.13-.92,0.58-1,1.5s-0.05,1.58-.05,5.57v4.62c0,2.55,0,4.62.11,5.75a1.16,1.16,0,0,0,1.05,1.29,11.23,11.23,0,0,0,1.34.1c0.29,0,.42.08,0.42,0.21s-0.21.26-.5,0.26c-1.73,0-3.39-.08-4.1-0.08s-2.26.08-3.31,0.08c-0.34,0-.53-0.08-0.53-0.26s0.11-.21.42-0.21a4.34,4.34,0,0,0,.95-0.1c0.53-.11.68-0.55,0.76-1.31,0.13-1.1.13-3.18,0.13-5.73v-4.62Z" transform="translate(-96.88 -253.63)"/><path class="cls-2" d="M390.46,307.87c0-4,0-4.73-.05-5.57a1.29,1.29,0,0,0-1.13-1.5,5.42,5.42,0,0,0-1-.08c-0.29,0-.45-0.05-0.45-0.24s0.18-.24.58-0.24l2.13,0c0.68,0,1.29.05,1.65,0.05,0.84,0,6.07,0,6.57,0a10.44,10.44,0,0,0,1.13-.16,2.46,2.46,0,0,1,.42-0.1c0.13,0,.16.1,0.16,0.24a16.62,16.62,0,0,0-.21,1.71c0,0.26-.08,1.42-0.13,1.73a0.29,0.29,0,0,1-.26.29c-0.18,0-.24-0.13-0.24-0.37a2.8,2.8,0,0,0-.16-0.95c-0.18-.47-0.45-0.79-1.76-0.95-0.45-.05-3.2-0.1-3.73-0.1-0.13,0-.18.08-0.18,0.26v6.65c0,0.18,0,.29.18,0.29,0.58,0,3.6,0,4.2-.05a1.83,1.83,0,0,0,1.26-.39,0.73,0.73,0,0,1,.42-0.34,0.17,0.17,0,0,1,.18.21c0,0.16-.1.58-0.21,1.92,0,0.53-.11,1.58-0.11,1.76s0,0.5-.24.5a0.21,0.21,0,0,1-.24-0.24,7.2,7.2,0,0,0-.11-0.95,1.42,1.42,0,0,0-1.47-1c-0.5-.05-3.1-0.08-3.73-0.08-0.13,0-.16.1-0.16,0.26v2.08c0,0.89,0,3.31,0,4.07,0.05,1.81.47,2.21,3.15,2.21a6.66,6.66,0,0,0,2.47-.32,2.22,2.22,0,0,0,1.18-1.94c0.05-.29.1-0.39,0.29-0.39s0.21,0.21.21,0.47a20.52,20.52,0,0,1-.34,2.92c-0.18.68-.42,0.68-1.42,0.68-2,0-3.41-.05-4.54-0.08S392.82,320,392,320c-0.29,0-.87,0-1.5,0s-1.29.05-1.81,0.05c-0.34,0-.53-0.08-0.53-0.26s0.11-.21.42-0.21a4.34,4.34,0,0,0,.95-0.1c0.53-.11.66-0.68,0.76-1.45,0.13-1.1.13-3.18,0.13-5.6v-4.62Z" transform="translate(-96.88 -253.63)"/><path class="cls-2" d="M411.59,307.87c0-4,0-4.73-.05-5.57a1.29,1.29,0,0,0-1.13-1.5,5.44,5.44,0,0,0-1-.08c-0.29,0-.45-0.05-0.45-0.24s0.18-.24.58-0.24c1.39,0,3,.08,3.78.08s2.47-.08,4-0.08c3.28,0,7.67,0,10.53,3a9.39,9.39,0,0,1,2.55,6.67,10.44,10.44,0,0,1-2.86,7.33c-1.21,1.23-3.94,3.1-8.8,3.1-0.95,0-2-.08-3-0.16s-1.92-.16-2.57-0.16c-0.29,0-.87,0-1.5,0s-1.29.05-1.81,0.05c-0.34,0-.53-0.08-0.53-0.26s0.11-.21.42-0.21a4.35,4.35,0,0,0,.95-0.1c0.53-.11.66-0.68,0.76-1.45,0.13-1.1.13-3.18,0.13-5.6v-4.62Zm3.28,2.89c0,2.79,0,4.81.05,5.31a5.77,5.77,0,0,0,.29,2c0.34,0.5,1.37,1.05,3.44,1.05,2.68,0,4.47-.53,6-1.89s2.21-3.84,2.21-6.54a8.93,8.93,0,0,0-2.52-6.57,10.41,10.41,0,0,0-7.46-2.63,7,7,0,0,0-1.71.18,0.48,0.48,0,0,0-.31.53c0,0.89,0,3.18,0,5.25v3.31Z" transform="translate(-96.88 -253.63)"/><path class="cls-2" d="M456.6,301.72l-3.91.11c-1.52.05-2.15,0.18-2.55,0.76a3.14,3.14,0,0,0-.45.92,0.31,0.31,0,0,1-.29.32c-0.18,0-.24-0.13-0.24-0.42s0.5-2.81.55-3,0.16-.5.32-0.5a6.08,6.08,0,0,0,1.13.32c0.76,0.08,1.76.13,2.63,0.13h10.4a12.63,12.63,0,0,0,1.81-.13,6.25,6.25,0,0,1,.71-0.13c0.18,0,.21.16,0.21,0.55,0,0.55-.08,2.36-0.08,3,0,0.26-.08.42-0.24,0.42s-0.26-.13-0.29-0.52l0-.29c-0.05-.68-0.76-1.42-3.1-1.47l-3.31-.08V312.5c0,2.42,0,4.49.13,5.62,0.08,0.74.24,1.31,1,1.42a11.24,11.24,0,0,0,1.34.1c0.29,0,.42.08,0.42,0.21s-0.21.26-.5,0.26c-1.73,0-3.39-.08-4.12-0.08s-2.26.08-3.31,0.08c-0.34,0-.53-0.08-0.53-0.26s0.11-.21.42-0.21a4.35,4.35,0,0,0,.95-0.1c0.53-.11.68-0.68,0.76-1.45,0.13-1.1.13-3.18,0.13-5.6V301.72Z" transform="translate(-96.88 -253.63)"/><path class="cls-2" d="M476.29,307.87c0-4,0-4.73-.05-5.57a1.29,1.29,0,0,0-1.13-1.5,5.44,5.44,0,0,0-1-.08c-0.29,0-.45-0.05-0.45-0.24s0.18-.24.58-0.24l2.13,0c0.68,0,1.29.05,1.65,0.05,0.84,0,6.07,0,6.57,0a10.41,10.41,0,0,0,1.13-.16,2.46,2.46,0,0,1,.42-0.1c0.13,0,.16.1,0.16,0.24a16.82,16.82,0,0,0-.21,1.71c0,0.26-.08,1.42-0.13,1.73a0.29,0.29,0,0,1-.26.29c-0.18,0-.24-0.13-0.24-0.37a2.81,2.81,0,0,0-.16-0.95c-0.18-.47-0.45-0.79-1.76-0.95-0.45-.05-3.21-0.1-3.73-0.1-0.13,0-.18.08-0.18,0.26v6.65c0,0.18,0,.29.18,0.29,0.58,0,3.6,0,4.2-.05a1.83,1.83,0,0,0,1.26-.39,0.74,0.74,0,0,1,.42-0.34,0.17,0.17,0,0,1,.18.21c0,0.16-.11.58-0.21,1.92,0,0.53-.1,1.58-0.1,1.76s0,0.5-.24.5a0.21,0.21,0,0,1-.24-0.24,7,7,0,0,0-.1-0.95,1.42,1.42,0,0,0-1.47-1c-0.5-.05-3.1-0.08-3.73-0.08-0.13,0-.16.1-0.16,0.26v2.08c0,0.89,0,3.31,0,4.07,0.05,1.81.47,2.21,3.15,2.21a6.66,6.66,0,0,0,2.47-.32,2.22,2.22,0,0,0,1.18-1.94c0.05-.29.1-0.39,0.29-0.39s0.21,0.21.21,0.47a20.52,20.52,0,0,1-.34,2.92c-0.18.68-.42,0.68-1.42,0.68-2,0-3.42-.05-4.54-0.08s-1.94-.08-2.73-0.08c-0.29,0-.87,0-1.5,0s-1.29.05-1.81,0.05c-0.34,0-.53-0.08-0.53-0.26s0.11-.21.42-0.21a4.35,4.35,0,0,0,.95-0.1c0.53-.11.66-0.68,0.76-1.45,0.13-1.1.13-3.18,0.13-5.6v-4.62Z" transform="translate(-96.88 -253.63)"/><path class="cls-2" d="M497.81,317.62a10.4,10.4,0,0,1-.18-14.95c1.89-1.73,4.39-2.78,8.3-2.78a26,26,0,0,1,3.81.26c1,0.13,1.84.37,2.63,0.45a0.34,0.34,0,0,1,.39.31c0,0.21-.08.53-0.13,1.45s0,2.31-.08,2.84-0.08.6-.32,0.6-0.26-.21-0.26-0.58a3.75,3.75,0,0,0-1-2.42c-0.87-.92-2.92-1.63-5.33-1.63a6.85,6.85,0,0,0-4.94,1.63c-1.92,1.76-2.42,4.26-2.42,6.8,0,6.25,4.75,9.35,8.28,9.35,2.34,0,3.76-.26,4.81-1.47a4.38,4.38,0,0,0,.89-1.73c0.08-.42.13-0.53,0.34-0.53s0.24,0.18.24,0.39a24.82,24.82,0,0,1-.58,3.49,0.93,0.93,0,0,1-.68.76,15.2,15.2,0,0,1-4.73.6C503.22,320.48,500.2,319.69,497.81,317.62Z" transform="translate(-96.88 -253.63)"/><path class="cls-2" d="M536.43,308.61a0.16,0.16,0,0,0,.16-0.18v-0.55c0-4,0-4.73-.05-5.57a1.29,1.29,0,0,0-1.13-1.5,5.42,5.42,0,0,0-1-.08c-0.29,0-.45-0.05-0.45-0.24s0.18-.24.55-0.24c1.42,0,3.07.08,3.78,0.08s2.29-.08,3.31-0.08c0.37,0,.55.05,0.55,0.24s-0.16.24-.47,0.24a4.72,4.72,0,0,0-.76.08c-0.71.13-.92,0.58-1,1.5s-0.05,1.58-.05,5.57v4.62c0,2.42,0,4.49.13,5.62,0.08,0.74.24,1.31,1,1.42a11.24,11.24,0,0,0,1.34.1c0.29,0,.42.08,0.42,0.21s-0.21.26-.53,0.26c-1.71,0-3.36-.08-4.1-0.08s-2.26.08-3.28,0.08c-0.37,0-.55-0.08-0.55-0.26s0.11-.21.42-0.21a4.34,4.34,0,0,0,.95-0.1c0.53-.11.66-0.68,0.76-1.45,0.13-1.1.13-3.18,0.13-5.6v-2.31a0.15,0.15,0,0,0-.16-0.16h-10a0.14,0.14,0,0,0-.16.16v2.31c0,2.42,0,4.49.13,5.62,0.08,0.74.24,1.31,1,1.42a11.2,11.2,0,0,0,1.34.1c0.29,0,.42.08,0.42,0.21s-0.21.26-.53,0.26c-1.71,0-3.36-.08-4.1-0.08s-2.26.08-3.31,0.08c-0.34,0-.53-0.08-0.53-0.26s0.1-.21.42-0.21a4.33,4.33,0,0,0,.95-0.1c0.53-.11.66-0.68,0.76-1.45,0.13-1.1.13-3.18,0.13-5.6v-4.62c0-4,0-4.73-.05-5.57a1.29,1.29,0,0,0-1.13-1.5,5.42,5.42,0,0,0-1-.08c-0.29,0-.45-0.05-0.45-0.24s0.18-.24.55-0.24c1.42,0,3.07.08,3.78,0.08s2.29-.08,3.31-0.08c0.37,0,.55.05,0.55,0.24s-0.16.24-.47,0.24a4.7,4.7,0,0,0-.76.08c-0.71.13-.92,0.58-1,1.5s-0.05,1.58-.05,5.57v0.55a0.16,0.16,0,0,0,.16.18h10Z" transform="translate(-96.88 -253.63)"/><path class="cls-2" d="M554.49,316.54c0.05,2,.39,2.73.92,2.92a4.16,4.16,0,0,0,1.37.18c0.29,0,.45.05,0.45,0.21s-0.24.26-.6,0.26c-1.71,0-2.76-.08-3.26-0.08-0.24,0-1.47.08-2.84,0.08-0.34,0-.58,0-0.58-0.26s0.16-.21.42-0.21a4.65,4.65,0,0,0,1.18-.13c0.68-.21.79-1,0.81-3.26l0.24-15.47c0-.53.08-0.89,0.34-0.89a2,2,0,0,1,1,.81c0.32,0.34,4.31,4.54,8.14,8.35,1.79,1.79,5.33,5.57,5.78,6H568l-0.26-11.8c0-1.6-.26-2.1-0.89-2.36a4.29,4.29,0,0,0-1.39-.16c-0.32,0-.42-0.08-0.42-0.24s0.29-.24.68-0.24c1.37,0,2.63.08,3.18,0.08,0.29,0,1.29-.08,2.57-0.08,0.34,0,.6,0,0.6.24s-0.16.24-.47,0.24a2.86,2.86,0,0,0-.79.08c-0.74.21-.95,0.76-1,2.23l-0.29,16.58c0,0.58-.11.81-0.34,0.81a1.58,1.58,0,0,1-.89-0.58c-1.66-1.58-5-5-7.75-7.72s-5.78-6-6.25-6.54H554.2Z" transform="translate(-96.88 -253.63)"/><path class="cls-2" d="M579.29,310.18c0-4.49,3-10.3,10.85-10.3,6.54,0,10.61,3.81,10.61,9.83s-4.2,10.77-10.88,10.77C582.34,320.48,579.29,314.83,579.29,310.18Zm17.79,0.5c0-5.89-3.39-9.54-7.7-9.54-3,0-6.46,1.68-6.46,8.22,0,5.46,3,9.8,8.07,9.8C592.82,319.17,597.08,318.28,597.08,310.68Z" transform="translate(-96.88 -253.63)"/><path class="cls-2" d="M614.06,312.5c0,3.36,0,5.18.55,5.65s1.13,0.58,3.18.58c1.39,0,2.42,0,3.07-.74a3.3,3.3,0,0,0,.68-1.58c0-.24.08-0.39,0.29-0.39s0.21,0.13.21,0.45a20.75,20.75,0,0,1-.39,3c-0.16.58-.29,0.71-1.66,0.71-1.89,0-3.26-.05-4.44-0.08s-2.13-.08-3.2-0.08c-0.29,0-.87,0-1.5,0s-1.29.05-1.81,0.05c-0.34,0-.53-0.08-0.53-0.26s0.11-.21.42-0.21a4.34,4.34,0,0,0,.95-0.1c0.53-.11.66-0.68,0.76-1.45,0.13-1.1.13-3.18,0.13-5.6v-4.62c0-4,0-4.73-.05-5.57a1.29,1.29,0,0,0-1.13-1.5,3.91,3.91,0,0,0-.87-0.08c-0.29,0-.45-0.05-0.45-0.24s0.18-.24.58-0.24c1.23,0,2.89.08,3.6,0.08s2.55-.08,3.57-0.08c0.37,0,.55.05,0.55,0.24s-0.16.24-.47,0.24a7,7,0,0,0-1,.08c-0.71.13-.92,0.58-1,1.5s-0.05,1.58-.05,5.57v4.62Z" transform="translate(-96.88 -253.63)"/><path class="cls-2" d="M628.2,310.18c0-4.49,3-10.3,10.85-10.3,6.54,0,10.61,3.81,10.61,9.83s-4.2,10.77-10.88,10.77C631.25,320.48,628.2,314.83,628.2,310.18Zm17.79,0.5c0-5.89-3.39-9.54-7.7-9.54-3,0-6.46,1.68-6.46,8.22,0,5.46,3,9.8,8.07,9.8C641.73,319.17,646,318.28,646,310.68Z" transform="translate(-96.88 -253.63)"/><path class="cls-2" d="M675.89,318.35c0,0.71,0,.76-0.34.95a14.86,14.86,0,0,1-6.33,1.18c-6.44,0-12.14-3-12.14-10.3a9.82,9.82,0,0,1,4.57-8.59,12.73,12.73,0,0,1,7.07-1.71,31.62,31.62,0,0,1,4.65.42,17.21,17.21,0,0,0,2.08.29c0.31,0,.37.13,0.37,0.31a35.5,35.5,0,0,0-.18,4.31c0,0.42-.08.55-0.29,0.55s-0.24-.13-0.26-0.34a3.68,3.68,0,0,0-.89-2.18,8.4,8.4,0,0,0-5.86-2,7.57,7.57,0,0,0-5.2,1.63c-1.47,1.23-2.42,3.21-2.42,6.44,0,5.65,3.6,9.88,9.14,9.88a5.81,5.81,0,0,0,2.23-.29,0.93,0.93,0,0,0,.5-1v-2.47c0-1.31,0-2.31,0-3.1a1.27,1.27,0,0,0-1.13-1.5,5.4,5.4,0,0,0-1-.08c-0.24,0-.39-0.05-0.39-0.21s0.18-.26.55-0.26c1.37,0,3,.08,3.81.08s2.21-.08,3.07-0.08c0.34,0,.53.05,0.53,0.26s-0.16.21-.34,0.21a4.09,4.09,0,0,0-.71.08c-0.71.13-1,.58-1,1.5s0,1.84,0,3.15v2.89Z" transform="translate(-96.88 -253.63)"/><path class="cls-2" d="M690.69,313.31a5.58,5.58,0,0,0-.6-2.76c-0.18-.42-3.71-6.2-4.62-7.57a6.42,6.42,0,0,0-1.81-1.92,2.67,2.67,0,0,0-1.1-.34c-0.21,0-.39-0.05-0.39-0.24s0.18-.24.5-0.24c0.47,0,2.44.08,3.31,0.08,0.55,0,1.63-.08,2.81-0.08,0.26,0,.39.08,0.39,0.24s-0.18.18-.58,0.29a0.47,0.47,0,0,0-.37.47,2.43,2.43,0,0,0,.31.89c0.37,0.79,4,7.12,4.47,7.86,0.26-.63,3.57-6.41,3.94-7.22a3.41,3.41,0,0,0,.37-1.37,0.63,0.63,0,0,0-.55-0.66,0.49,0.49,0,0,1-.47-0.26c0-.18.13-0.24,0.45-0.24,0.87,0,1.71.08,2.47,0.08,0.58,0,2.31-.08,2.81-0.08,0.29,0,.47.05,0.47,0.21s-0.21.26-.5,0.26a2.84,2.84,0,0,0-1.16.31,3.91,3.91,0,0,0-1.42,1.29,83.61,83.61,0,0,0-5,8.35,6.28,6.28,0,0,0-.39,2.63v2.15c0,0.42,0,1.52.08,2.63a1.29,1.29,0,0,0,1.08,1.45,11.2,11.2,0,0,0,1.31.1c0.29,0,.42.08,0.42,0.21s-0.21.26-.55,0.26c-1.66,0-3.31-.08-4-0.08s-2.31.08-3.28,0.08c-0.37,0-.58-0.05-0.58-0.26s0.13-.21.42-0.21a4.28,4.28,0,0,0,.92-0.1,1.36,1.36,0,0,0,.81-1.45c0.08-1.1.08-2.21,0.08-2.63v-2.15Z" transform="translate(-96.88 -253.63)"/><circle class="cls-1" cx="148.88" cy="305.63" r="31.38" transform="translate(-287.14 75.67) rotate(-68.02)"/><polygon class="cls-3" points="41.38 44.29 34.7 49.85 36.83 41.42 29.47 36.8 38.15 36.21 40.28 27.79 43.51 35.86 52.18 35.28 45.51 40.85 48.73 48.92 41.38 44.29"/><polygon class="cls-3" points="44.65 72.03 36.28 74.4 41.66 67.56 36.82 60.34 44.98 63.34 50.36 56.51 50.02 65.2 58.18 68.2 49.82 70.57 49.49 79.25 44.65 72.03"/><polygon class="cls-3" points="66.55 61.2 65.07 52.63 56.46 51.39 64.15 47.33 62.67 38.77 68.9 44.83 76.59 40.77 72.76 48.57 78.99 54.63 70.39 53.39 66.55 61.2"/><path class="cls-2" d="M175.05,260.7a52,52,0,1,0,18.77,71.1A52,52,0,0,0,175.05,260.7Zm17.63,55.5a39.31,39.31,0,0,1-49.63,25.07l-6,8.78a42.73,42.73,0,0,1-19.48-12,39.31,39.31,0,0,1,3.1-55.52L116.06,273a42.75,42.75,0,0,1,20.1-10.89,39.31,39.31,0,0,1,46.53,30.45l10.62,0.82A42.77,42.77,0,0,1,192.68,316.21Z" transform="translate(-96.88 -253.63)"/></svg>