<svg id="Layer_1" data-name="Layer 1" xmlns="http://www.w3.org/2000/svg" xmlns:xlink="http://www.w3.org/1999/xlink" viewBox="0 0 162.94 58.43"><defs><style>.cls-1,.cls-5{fill:none;}.cls-2{fill:#0f4c8b;}.cls-3{fill:#ffd24f;}.cls-4{clip-path:url(#clip-path);}.cls-5{stroke:#0f4c8b;stroke-width:0.12px;}.cls-6{clip-path:url(#clip-path-2);}</style><clipPath id="clip-path" transform="translate(-2.12 -2.92)"><rect class="cls-1" x="1.97" y="2.74" width="163.09" height="58.82"/></clipPath><clipPath id="clip-path-2" transform="translate(-2.12 -2.92)"><rect class="cls-1" x="1.97" y="2.74" width="163.07" height="58.82"/></clipPath></defs><polygon class="cls-2" points="31.72 43.53 19.27 55.18 19.27 24.46 31.72 24.46 31.72 43.53"/><polygon class="cls-3" points="15.91 5.67 15.91 58.43 19.28 55.2 19.28 24.46 31.7 24.46 31.7 20.95 19.28 20.95 19.28 5.67 15.91 5.67"/><polygon class="cls-3" points="0.03 32.34 0.02 43.62 12.53 55.29 12.53 32.34 0.03 32.34"/><rect class="cls-3" x="0.03" y="5.67" width="12.49" height="23.08"/><polygon class="cls-2" points="0.03 3.72 0.03 5.67 12.53 5.67 12.53 28.76 0 28.76 0 32.34 12.53 32.34 12.53 55.29 15.91 58.43 15.91 5.67 19.29 5.67 19.29 20.95 31.7 20.95 31.7 5.67 31.74 5.67 31.74 3.72 0.03 3.72"/><rect class="cls-3" x="0.03" width="31.69" height="3.71"/><g class="cls-4"><path class="cls-2" d="M124.51,19.54H125a6.19,6.19,0,0,0,1.31,3.07,2.78,2.78,0,0,0,2.07,1,1.87,1.87,0,0,0,1.62-.66,2.32,2.32,0,0,0,.48-1.39,2,2,0,0,0-.5-1.38,6.52,6.52,0,0,0-1.34-.91l-1.08-.61a7.17,7.17,0,0,1-2.28-1.78,3.56,3.56,0,0,1-.66-2.19,4.26,4.26,0,0,1,.88-2.58,3.1,3.1,0,0,1,2.69-1.2,5.38,5.38,0,0,1,1.78.31,5.72,5.72,0,0,0,1,.31.42.42,0,0,0,.39-.18,1.8,1.8,0,0,0,.17-.47H132v4.1h-.48a5.94,5.94,0,0,0-1.17-2.45,2.56,2.56,0,0,0-2-1A1.76,1.76,0,0,0,127,12a1.82,1.82,0,0,0-.49,1.27,1.79,1.79,0,0,0,.46,1.33,11,11,0,0,0,2,1.33l1.25.7a5.06,5.06,0,0,1,1.34,1,3.79,3.79,0,0,1,.93,2.59,4.32,4.32,0,0,1-1,2.69,3.85,3.85,0,0,1-3.2,1.26,5.23,5.23,0,0,1-1-.11,5.71,5.71,0,0,1-1-.32l-.33-.14a.9.9,0,0,0-.22-.06l-.18,0a.4.4,0,0,0-.36.17,2.28,2.28,0,0,0-.17.49h-.48Z" transform="translate(-2.12 -2.92)"/><path class="cls-5" d="M124.51,19.54H125a6.19,6.19,0,0,0,1.31,3.07,2.78,2.78,0,0,0,2.07,1,1.87,1.87,0,0,0,1.62-.66,2.32,2.32,0,0,0,.48-1.39,2,2,0,0,0-.5-1.38,6.52,6.52,0,0,0-1.34-.91l-1.08-.61a7.17,7.17,0,0,1-2.28-1.78,3.56,3.56,0,0,1-.66-2.19,4.26,4.26,0,0,1,.88-2.58,3.1,3.1,0,0,1,2.69-1.2,5.38,5.38,0,0,1,1.78.31,5.72,5.72,0,0,0,1,.31.42.42,0,0,0,.39-.18,1.8,1.8,0,0,0,.17-.47H132v4.1h-.48a5.94,5.94,0,0,0-1.17-2.45,2.56,2.56,0,0,0-2-1A1.76,1.76,0,0,0,127,12a1.82,1.82,0,0,0-.49,1.27,1.79,1.79,0,0,0,.46,1.33,11,11,0,0,0,2,1.33l1.25.7a5.06,5.06,0,0,1,1.34,1,3.79,3.79,0,0,1,.93,2.59,4.32,4.32,0,0,1-1,2.69,3.85,3.85,0,0,1-3.2,1.26,5.23,5.23,0,0,1-1-.11,5.71,5.71,0,0,1-1-.32l-.33-.14a.9.9,0,0,0-.22-.06l-.18,0a.4.4,0,0,0-.36.17,2.28,2.28,0,0,0-.17.49h-.48Z" transform="translate(-2.12 -2.92)"/><path class="cls-2" d="M37.59,23.6a1.51,1.51,0,0,0,1.08-.41,2.38,2.38,0,0,0,.28-1.4V13.05a2.25,2.25,0,0,0-.28-1.41,1.83,1.83,0,0,0-1.08-.4v-.51h5.26a5.22,5.22,0,0,1,3.18.82,3.31,3.31,0,0,1,1.09,2.82,4,4,0,0,1-.43,1.83,3.17,3.17,0,0,1-1.4,1.38,4.46,4.46,0,0,1-1.48.44c-.5.05-1.23.08-2.2.08v3.69a2.3,2.3,0,0,0,.3,1.43A1.56,1.56,0,0,0,43,23.6v.51H37.59ZM43.54,17c.51-.4.77-1.26.77-2.59a5.36,5.36,0,0,0-.37-2.19,1.42,1.42,0,0,0-1.43-.84,1.32,1.32,0,0,0-.69.14.63.63,0,0,0-.21.55v5.34A3.5,3.5,0,0,0,43.54,17" transform="translate(-2.12 -2.92)"/><path class="cls-5" d="M37.59,23.6a1.51,1.51,0,0,0,1.08-.41,2.38,2.38,0,0,0,.28-1.4V13.05a2.25,2.25,0,0,0-.28-1.41,1.83,1.83,0,0,0-1.08-.4v-.51h5.26a5.22,5.22,0,0,1,3.18.82,3.31,3.31,0,0,1,1.09,2.82,4,4,0,0,1-.43,1.83,3.17,3.17,0,0,1-1.4,1.38,4.46,4.46,0,0,1-1.48.44c-.5.05-1.23.08-2.2.08v3.69a2.3,2.3,0,0,0,.3,1.43A1.56,1.56,0,0,0,43,23.6v.51H37.59ZM43.54,17c.51-.4.77-1.26.77-2.59a5.36,5.36,0,0,0-.37-2.19,1.42,1.42,0,0,0-1.43-.84,1.32,1.32,0,0,0-.69.14.63.63,0,0,0-.21.55v5.34A3.5,3.5,0,0,0,43.54,17Z" transform="translate(-2.12 -2.92)"/><path class="cls-2" d="M47.75,24.05v-.37a1.72,1.72,0,0,0,.78-.16.93.93,0,0,0,.35-.84v-7a.87.87,0,0,0-.37-.84,1.66,1.66,0,0,0-.76-.17v-.36h7.3v2.89h-.31a3.24,3.24,0,0,0-.82-1.9,3.23,3.23,0,0,0-2.1-.51,1.19,1.19,0,0,0-.74.14.68.68,0,0,0-.16.54v3.33a1.86,1.86,0,0,0,1.47-.44A3.69,3.69,0,0,0,53,16.72h.32v4.84H53a3.34,3.34,0,0,0-.55-1.73,1.89,1.89,0,0,0-1.5-.5v3.48a.76.76,0,0,0,.21.62,1.47,1.47,0,0,0,.85.16,3.43,3.43,0,0,0,2-.53,4.43,4.43,0,0,0,1.36-2h.35l-.52,3Z" transform="translate(-2.12 -2.92)"/><path class="cls-5" d="M47.75,24.05v-.37a1.72,1.72,0,0,0,.78-.16.93.93,0,0,0,.35-.84v-7a.87.87,0,0,0-.37-.84,1.66,1.66,0,0,0-.76-.17v-.36h7.3v2.89h-.31a3.24,3.24,0,0,0-.82-1.9,3.23,3.23,0,0,0-2.1-.51,1.19,1.19,0,0,0-.74.14.68.68,0,0,0-.16.54v3.33a1.86,1.86,0,0,0,1.47-.44A3.69,3.69,0,0,0,53,16.72h.32v4.84H53a3.34,3.34,0,0,0-.55-1.73,1.89,1.89,0,0,0-1.5-.5v3.48a.76.76,0,0,0,.21.62,1.47,1.47,0,0,0,.85.16,3.43,3.43,0,0,0,2-.53,4.43,4.43,0,0,0,1.36-2h.35l-.52,3Z" transform="translate(-2.12 -2.92)"/><path class="cls-2" d="M56.23,23.68a1.55,1.55,0,0,0,.74-.15.91.91,0,0,0,.38-.86v-7a.89.89,0,0,0-.36-.84,1.66,1.66,0,0,0-.76-.17v-.36h4.43v.36a1.87,1.87,0,0,0-1,.24c-.17.15-.25.5-.25,1.07v6.79a.77.77,0,0,0,.21.63,1.7,1.7,0,0,0,.86.15A3.17,3.17,0,0,0,62.37,23,4.54,4.54,0,0,0,63.7,20.8h.37l-.51,3.25H56.23Z" transform="translate(-2.12 -2.92)"/><path class="cls-5" d="M56.23,23.68a1.55,1.55,0,0,0,.74-.15.91.91,0,0,0,.38-.86v-7a.89.89,0,0,0-.36-.84,1.66,1.66,0,0,0-.76-.17v-.36h4.43v.36a1.87,1.87,0,0,0-1,.24c-.17.15-.25.5-.25,1.07v6.79a.77.77,0,0,0,.21.63,1.7,1.7,0,0,0,.86.15A3.17,3.17,0,0,0,62.37,23,4.54,4.54,0,0,0,63.7,20.8h.37l-.51,3.25H56.23Z" transform="translate(-2.12 -2.92)"/><path class="cls-2" d="M64.68,23.68a1.58,1.58,0,0,0,.74-.15.93.93,0,0,0,.38-.86v-7a.89.89,0,0,0-.36-.84,1.66,1.66,0,0,0-.76-.17v-.36h4.43v.36a1.85,1.85,0,0,0-1,.24c-.17.15-.26.5-.26,1.07v6.79a.77.77,0,0,0,.22.63,1.7,1.7,0,0,0,.86.15A3.17,3.17,0,0,0,70.82,23a4.54,4.54,0,0,0,1.33-2.22h.37L72,24.05H64.68Z" transform="translate(-2.12 -2.92)"/><path class="cls-5" d="M64.68,23.68a1.58,1.58,0,0,0,.74-.15.93.93,0,0,0,.38-.86v-7a.89.89,0,0,0-.36-.84,1.66,1.66,0,0,0-.76-.17v-.36h4.43v.36a1.85,1.85,0,0,0-1,.24c-.17.15-.26.5-.26,1.07v6.79a.77.77,0,0,0,.22.63,1.7,1.7,0,0,0,.86.15A3.17,3.17,0,0,0,70.82,23a4.54,4.54,0,0,0,1.33-2.22h.37L72,24.05H64.68Z" transform="translate(-2.12 -2.92)"/><path class="cls-2" d="M73.1,23.68a1.59,1.59,0,0,0,.77-.14.91.91,0,0,0,.39-.86v-7a.89.89,0,0,0-.37-.85,1.85,1.85,0,0,0-.79-.16v-.36h4.43v.36a2.15,2.15,0,0,0-.82.15.91.91,0,0,0-.37.86v7a.9.9,0,0,0,.3.8,1.54,1.54,0,0,0,.89.2v.37H73.1Z" transform="translate(-2.12 -2.92)"/><path class="cls-5" d="M73.1,23.68a1.59,1.59,0,0,0,.77-.14.91.91,0,0,0,.39-.86v-7a.89.89,0,0,0-.37-.85,1.85,1.85,0,0,0-.79-.16v-.36h4.43v.36a2.15,2.15,0,0,0-.82.15.91.91,0,0,0-.37.86v7a.9.9,0,0,0,.3.8,1.54,1.54,0,0,0,.89.2v.37H73.1Z" transform="translate(-2.12 -2.92)"/><path class="cls-2" d="M78.27,20.7h.36a4.82,4.82,0,0,0,1,2.34,2.05,2.05,0,0,0,1.55.73,1.39,1.39,0,0,0,1.2-.5,1.81,1.81,0,0,0,.36-1.06,1.53,1.53,0,0,0-.37-1.05,4.82,4.82,0,0,0-1-.7L80.54,20a5.49,5.49,0,0,1-1.7-1.36A2.72,2.72,0,0,1,78.35,17,3.37,3.37,0,0,1,79,15a2.34,2.34,0,0,1,2-.91,3.77,3.77,0,0,1,1.33.24,4.58,4.58,0,0,0,.73.24.32.32,0,0,0,.29-.14,1.26,1.26,0,0,0,.12-.36h.38v3.13h-.35a4.55,4.55,0,0,0-.87-1.87,1.89,1.89,0,0,0-1.53-.79,1.27,1.27,0,0,0-1,.4,1.37,1.37,0,0,0-.37,1,1.39,1.39,0,0,0,.35,1,7.74,7.74,0,0,0,1.51,1l.93.53a3.76,3.76,0,0,1,1,.79,3,3,0,0,1,.69,2,3.27,3.27,0,0,1-.74,2.05,2.84,2.84,0,0,1-2.39,1,3.27,3.27,0,0,1-.76-.08,3.64,3.64,0,0,1-.77-.25l-.24-.1-.17-.05-.13,0a.3.3,0,0,0-.27.13,1.55,1.55,0,0,0-.13.37h-.36Z" transform="translate(-2.12 -2.92)"/><path class="cls-5" d="M78.27,20.7h.36a4.82,4.82,0,0,0,1,2.34,2.05,2.05,0,0,0,1.55.73,1.39,1.39,0,0,0,1.2-.5,1.81,1.81,0,0,0,.36-1.06,1.53,1.53,0,0,0-.37-1.05,4.82,4.82,0,0,0-1-.7L80.54,20a5.49,5.49,0,0,1-1.7-1.36A2.72,2.72,0,0,1,78.35,17,3.37,3.37,0,0,1,79,15a2.34,2.34,0,0,1,2-.91,3.77,3.77,0,0,1,1.33.24,4.58,4.58,0,0,0,.73.24.32.32,0,0,0,.29-.14,1.26,1.26,0,0,0,.12-.36h.38v3.13h-.35a4.55,4.55,0,0,0-.87-1.87,1.89,1.89,0,0,0-1.53-.79,1.27,1.27,0,0,0-1,.4,1.37,1.37,0,0,0-.37,1,1.39,1.39,0,0,0,.35,1,7.74,7.74,0,0,0,1.51,1l.93.53a3.76,3.76,0,0,1,1,.79,3,3,0,0,1,.69,2,3.27,3.27,0,0,1-.74,2.05,2.84,2.84,0,0,1-2.39,1,3.27,3.27,0,0,1-.76-.08,3.64,3.64,0,0,1-.77-.25l-.24-.1-.17-.05-.13,0a.3.3,0,0,0-.27.13,1.55,1.55,0,0,0-.13.37h-.36Z" transform="translate(-2.12 -2.92)"/><path class="cls-2" d="M85.31,20.7h.37a4.73,4.73,0,0,0,1,2.34,2,2,0,0,0,1.54.73,1.39,1.39,0,0,0,1.21-.5,1.86,1.86,0,0,0,.35-1.06,1.48,1.48,0,0,0-.37-1.05,4.55,4.55,0,0,0-1-.7L87.58,20a5.43,5.43,0,0,1-1.69-1.36,2.73,2.73,0,0,1-.5-1.66,3.31,3.31,0,0,1,.66-2,2.3,2.3,0,0,1,2-.91,3.77,3.77,0,0,1,1.33.24,4.21,4.21,0,0,0,.74.24.3.3,0,0,0,.28-.14,1.24,1.24,0,0,0,.13-.36h.38v3.13h-.35a4.57,4.57,0,0,0-.88-1.87,1.87,1.87,0,0,0-1.52-.79,1.29,1.29,0,0,0-1,.4,1.36,1.36,0,0,0-.36,1,1.38,1.38,0,0,0,.34,1,8.46,8.46,0,0,0,1.51,1l.94.53a3.7,3.7,0,0,1,1,.79,2.92,2.92,0,0,1,.7,2,3.29,3.29,0,0,1-.75,2.05,2.82,2.82,0,0,1-2.39,1,3.33,3.33,0,0,1-.76-.08,3.56,3.56,0,0,1-.76-.25l-.25-.1-.16-.05-.14,0a.28.28,0,0,0-.26.13,1.55,1.55,0,0,0-.13.37h-.37Z" transform="translate(-2.12 -2.92)"/><path class="cls-5" d="M85.31,20.7h.37a4.73,4.73,0,0,0,1,2.34,2,2,0,0,0,1.54.73,1.39,1.39,0,0,0,1.21-.5,1.86,1.86,0,0,0,.35-1.06,1.48,1.48,0,0,0-.37-1.05,4.55,4.55,0,0,0-1-.7L87.58,20a5.43,5.43,0,0,1-1.69-1.36,2.73,2.73,0,0,1-.5-1.66,3.31,3.31,0,0,1,.66-2,2.3,2.3,0,0,1,2-.91,3.77,3.77,0,0,1,1.33.24,4.21,4.21,0,0,0,.74.24.3.3,0,0,0,.28-.14,1.24,1.24,0,0,0,.13-.36h.38v3.13h-.35a4.57,4.57,0,0,0-.88-1.87,1.87,1.87,0,0,0-1.52-.79,1.29,1.29,0,0,0-1,.4,1.36,1.36,0,0,0-.36,1,1.38,1.38,0,0,0,.34,1,8.46,8.46,0,0,0,1.51,1l.94.53a3.7,3.7,0,0,1,1,.79,2.92,2.92,0,0,1,.7,2,3.29,3.29,0,0,1-.75,2.05,2.82,2.82,0,0,1-2.39,1,3.33,3.33,0,0,1-.76-.08,3.56,3.56,0,0,1-.76-.25l-.25-.1-.16-.05-.14,0a.28.28,0,0,0-.26.13,1.55,1.55,0,0,0-.13.37h-.37Z" transform="translate(-2.12 -2.92)"/><path class="cls-2" d="M92.12,23.68a1.59,1.59,0,0,0,.77-.14.91.91,0,0,0,.39-.86v-7a.91.91,0,0,0-.37-.85,1.85,1.85,0,0,0-.79-.16v-.36h4.43v.36a2.15,2.15,0,0,0-.82.15.91.91,0,0,0-.37.86v7a.9.9,0,0,0,.3.8,1.52,1.52,0,0,0,.89.2v.37H92.12Z" transform="translate(-2.12 -2.92)"/><path class="cls-5" d="M92.12,23.68a1.59,1.59,0,0,0,.77-.14.91.91,0,0,0,.39-.86v-7a.91.91,0,0,0-.37-.85,1.85,1.85,0,0,0-.79-.16v-.36h4.43v.36a2.15,2.15,0,0,0-.82.15.91.91,0,0,0-.37.86v7a.9.9,0,0,0,.3.8,1.52,1.52,0,0,0,.89.2v.37H92.12Z" transform="translate(-2.12 -2.92)"/><path class="cls-2" d="M97.05,23.68a1.27,1.27,0,0,0,.84-.29,1.72,1.72,0,0,0,.21-1V16a1.52,1.52,0,0,0-.22-1,1.46,1.46,0,0,0-.83-.29v-.36h4.07a4.33,4.33,0,0,1,2.47.59,2.34,2.34,0,0,1,.84,2,2.79,2.79,0,0,1-.33,1.33,2.38,2.38,0,0,1-1.09,1,3.31,3.31,0,0,1-1.15.32q-.57.06-1.71.06v2.67a1.56,1.56,0,0,0,.24,1,1.23,1.23,0,0,0,.88.27v.37H97.05Zm4.61-4.78c.4-.29.6-.91.6-1.87a3.72,3.72,0,0,0-.29-1.58,1.11,1.11,0,0,0-1.11-.6,1.05,1.05,0,0,0-.54.1.43.43,0,0,0-.17.39V19.2a2.87,2.87,0,0,0,1.51-.3" transform="translate(-2.12 -2.92)"/><path class="cls-5" d="M97.05,23.68a1.27,1.27,0,0,0,.84-.29,1.72,1.72,0,0,0,.21-1V16a1.52,1.52,0,0,0-.22-1,1.46,1.46,0,0,0-.83-.29v-.36h4.07a4.33,4.33,0,0,1,2.47.59,2.34,2.34,0,0,1,.84,2,2.79,2.79,0,0,1-.33,1.33,2.38,2.38,0,0,1-1.09,1,3.31,3.31,0,0,1-1.15.32q-.57.06-1.71.06v2.67a1.56,1.56,0,0,0,.24,1,1.23,1.23,0,0,0,.88.27v.37H97.05Zm4.61-4.78c.4-.29.6-.91.6-1.87a3.72,3.72,0,0,0-.29-1.58,1.11,1.11,0,0,0-1.11-.6,1.05,1.05,0,0,0-.54.1.43.43,0,0,0-.17.39V19.2A2.87,2.87,0,0,0,101.66,18.9Z" transform="translate(-2.12 -2.92)"/><path class="cls-2" d="M104.79,23.68a1.22,1.22,0,0,0,.83-.29,1.63,1.63,0,0,0,.22-1V16a1.52,1.52,0,0,0-.22-1,1.46,1.46,0,0,0-.83-.29v-.36h4.07a4.35,4.35,0,0,1,2.47.59,2.34,2.34,0,0,1,.84,2,2.79,2.79,0,0,1-.33,1.33,2.38,2.38,0,0,1-1.09,1,3.31,3.31,0,0,1-1.15.32q-.57.06-1.71.06v2.67a1.56,1.56,0,0,0,.24,1,1.21,1.21,0,0,0,.88.27v.37h-4.22Zm4.61-4.78c.4-.29.6-.91.6-1.87a3.72,3.72,0,0,0-.29-1.58,1.13,1.13,0,0,0-1.11-.6,1,1,0,0,0-.54.1.43.43,0,0,0-.17.39V19.2a2.87,2.87,0,0,0,1.51-.3" transform="translate(-2.12 -2.92)"/><path class="cls-5" d="M104.79,23.68a1.22,1.22,0,0,0,.83-.29,1.63,1.63,0,0,0,.22-1V16a1.52,1.52,0,0,0-.22-1,1.46,1.46,0,0,0-.83-.29v-.36h4.07a4.35,4.35,0,0,1,2.47.59,2.34,2.34,0,0,1,.84,2,2.79,2.79,0,0,1-.33,1.33,2.38,2.38,0,0,1-1.09,1,3.31,3.31,0,0,1-1.15.32q-.57.06-1.71.06v2.67a1.56,1.56,0,0,0,.24,1,1.21,1.21,0,0,0,.88.27v.37h-4.22Zm4.61-4.78c.4-.29.6-.91.6-1.87a3.72,3.72,0,0,0-.29-1.58,1.13,1.13,0,0,0-1.11-.6,1,1,0,0,0-.54.1.43.43,0,0,0-.17.39V19.2A2.87,2.87,0,0,0,109.4,18.9Z" transform="translate(-2.12 -2.92)"/><path class="cls-2" d="M112.52,23.68a1.66,1.66,0,0,0,.78-.14.93.93,0,0,0,.38-.86v-7a.89.89,0,0,0-.37-.85,1.81,1.81,0,0,0-.79-.16v-.36H117v.36a2.19,2.19,0,0,0-.82.15.93.93,0,0,0-.37.86v7a.9.9,0,0,0,.3.8,1.57,1.57,0,0,0,.89.2v.37h-4.43Z" transform="translate(-2.12 -2.92)"/><path class="cls-5" d="M112.52,23.68a1.66,1.66,0,0,0,.78-.14.93.93,0,0,0,.38-.86v-7a.89.89,0,0,0-.37-.85,1.81,1.81,0,0,0-.79-.16v-.36H117v.36a2.19,2.19,0,0,0-.82.15.93.93,0,0,0-.37.86v7a.9.9,0,0,0,.3.8,1.57,1.57,0,0,0,.89.2v.37h-4.43Z" transform="translate(-2.12 -2.92)"/><path class="cls-2" d="M133,14.43h7.63v2.9h-.37a2.71,2.71,0,0,0-1-2.1,2.72,2.72,0,0,0-1.43-.33v7.56a1.56,1.56,0,0,0,.25,1.05,1.44,1.44,0,0,0,1,.26v.36H134.6v-.36a1.32,1.32,0,0,0,1-.27,1.53,1.53,0,0,0,.25-1V14.9a2.73,2.73,0,0,0-1.42.33,2.5,2.5,0,0,0-1,2.1H133Z" transform="translate(-2.12 -2.92)"/><path class="cls-5" d="M133,14.43h7.63v2.9h-.37a2.71,2.71,0,0,0-1-2.1,2.72,2.72,0,0,0-1.43-.33v7.56a1.56,1.56,0,0,0,.25,1.05,1.44,1.44,0,0,0,1,.26v.36H134.6v-.36a1.32,1.32,0,0,0,1-.27,1.53,1.53,0,0,0,.25-1V14.9a2.73,2.73,0,0,0-1.42.33,2.5,2.5,0,0,0-1,2.1H133Z" transform="translate(-2.12 -2.92)"/><path class="cls-2" d="M140.44,23.77a.94.94,0,0,0,.73-.47,7.45,7.45,0,0,0,.52-1.21l2.81-7.86h.35l2.83,7.55a10.6,10.6,0,0,0,.71,1.63.72.72,0,0,0,.67.36v.36H145v-.36a2.62,2.62,0,0,0,.81-.12c.13-.06.2-.22.2-.46a2.39,2.39,0,0,0-.1-.52c-.05-.13-.1-.3-.17-.49l-.33-.87h-2.84c-.18.57-.3,1-.35,1.12a2.9,2.9,0,0,0-.17.8.47.47,0,0,0,.36.45,2.05,2.05,0,0,0,.65.09v.36h-2.58Zm4.75-3L144,17.43h-.1l-1.15,3.32Z" transform="translate(-2.12 -2.92)"/><path class="cls-5" d="M140.44,23.77a.94.94,0,0,0,.73-.47,7.45,7.45,0,0,0,.52-1.21l2.81-7.86h.35l2.83,7.55a10.6,10.6,0,0,0,.71,1.63.72.72,0,0,0,.67.36v.36H145v-.36a2.62,2.62,0,0,0,.81-.12c.13-.06.2-.22.2-.46a2.39,2.39,0,0,0-.1-.52c-.05-.13-.1-.3-.17-.49l-.33-.87h-2.84c-.18.57-.3,1-.35,1.12a2.9,2.9,0,0,0-.17.8.47.47,0,0,0,.36.45,2.05,2.05,0,0,0,.65.09v.36h-2.58Zm4.75-3L144,17.43h-.1l-1.15,3.32Z" transform="translate(-2.12 -2.92)"/><path class="cls-2" d="M148.75,14.43h7.64v2.9H156a2.68,2.68,0,0,0-1-2.1,2.65,2.65,0,0,0-1.42-.33v7.56a1.56,1.56,0,0,0,.25,1.05,1.43,1.43,0,0,0,1,.26v.36h-4.51v-.36a1.32,1.32,0,0,0,1-.27,1.53,1.53,0,0,0,.25-1V14.9a2.77,2.77,0,0,0-1.43.33,2.52,2.52,0,0,0-1,2.1h-.37Z" transform="translate(-2.12 -2.92)"/><path class="cls-5" d="M148.75,14.43h7.64v2.9H156a2.68,2.68,0,0,0-1-2.1,2.65,2.65,0,0,0-1.42-.33v7.56a1.56,1.56,0,0,0,.25,1.05,1.43,1.43,0,0,0,1,.26v.36h-4.51v-.36a1.32,1.32,0,0,0,1-.27,1.53,1.53,0,0,0,.25-1V14.9a2.77,2.77,0,0,0-1.43.33,2.52,2.52,0,0,0-1,2.1h-.37Z" transform="translate(-2.12 -2.92)"/><path class="cls-2" d="M157.07,24.13v-.36a1.73,1.73,0,0,0,.78-.17.93.93,0,0,0,.35-.84v-7a.87.87,0,0,0-.37-.84,1.8,1.8,0,0,0-.76-.17v-.36h7.3v2.9h-.31a3.34,3.34,0,0,0-.82-1.91,3.27,3.27,0,0,0-2.11-.51,1.25,1.25,0,0,0-.73.14.68.68,0,0,0-.16.54v3.33a1.79,1.79,0,0,0,1.46-.44,3.51,3.51,0,0,0,.59-1.67h.32v4.83h-.32a3.3,3.3,0,0,0-.55-1.72,1.86,1.86,0,0,0-1.5-.5v3.47a.79.79,0,0,0,.2.62,1.53,1.53,0,0,0,.86.16,3.4,3.4,0,0,0,2-.53,4.38,4.38,0,0,0,1.36-2H165l-.52,3Z" transform="translate(-2.12 -2.92)"/></g><g class="cls-6"><path class="cls-5" d="M157.07,24.13v-.36a1.73,1.73,0,0,0,.78-.17.93.93,0,0,0,.35-.84v-7a.87.87,0,0,0-.37-.84,1.8,1.8,0,0,0-.76-.17v-.36h7.3v2.9h-.31a3.34,3.34,0,0,0-.82-1.91,3.27,3.27,0,0,0-2.11-.51,1.25,1.25,0,0,0-.73.14.68.68,0,0,0-.16.54v3.33a1.79,1.79,0,0,0,1.46-.44,3.51,3.51,0,0,0,.59-1.67h.32v4.83h-.32a3.3,3.3,0,0,0-.55-1.72,1.86,1.86,0,0,0-1.5-.5v3.47a.79.79,0,0,0,.2.62,1.53,1.53,0,0,0,.86.16,3.4,3.4,0,0,0,2-.53,4.38,4.38,0,0,0,1.36-2H165l-.52,3Z" transform="translate(-2.12 -2.92)"/></g><g class="cls-4"><path class="cls-2" d="M44.33,30.05a6.44,6.44,0,0,0,1,.39.5.5,0,0,0,.43-.24,1.2,1.2,0,0,0,.2-.52h.4v3.88H46a9.28,9.28,0,0,0-1-2,2.8,2.8,0,0,0-2.24-1.34,2.06,2.06,0,0,0-2,1.44,10.17,10.17,0,0,0-.59,3.85,10,10,0,0,0,.35,2.93c.43,1.44,1.24,2.16,2.42,2.16a3.22,3.22,0,0,0,2-.72,7.75,7.75,0,0,0,1.27-1.32l.42.41a8.9,8.9,0,0,1-1.45,1.57,4,4,0,0,1-2.48.86A4.68,4.68,0,0,1,39.17,40a6,6,0,0,1-1.56-4.34,6.35,6.35,0,0,1,1.49-4.38,4.43,4.43,0,0,1,3.44-1.57,4.65,4.65,0,0,1,1.79.38" transform="translate(-2.12 -2.92)"/><path class="cls-5" d="M44.33,30.05a6.44,6.44,0,0,0,1,.39.5.5,0,0,0,.43-.24,1.2,1.2,0,0,0,.2-.52h.4v3.88H46a9.28,9.28,0,0,0-1-2,2.8,2.8,0,0,0-2.24-1.34,2.06,2.06,0,0,0-2,1.44,10.17,10.17,0,0,0-.59,3.85,10,10,0,0,0,.35,2.93c.43,1.44,1.24,2.16,2.42,2.16a3.22,3.22,0,0,0,2-.72,7.75,7.75,0,0,0,1.27-1.32l.42.41a8.9,8.9,0,0,1-1.45,1.57,4,4,0,0,1-2.48.86A4.68,4.68,0,0,1,39.17,40a6,6,0,0,1-1.56-4.34,6.35,6.35,0,0,1,1.49-4.38,4.43,4.43,0,0,1,3.44-1.57A4.65,4.65,0,0,1,44.33,30.05Z" transform="translate(-2.12 -2.92)"/><path class="cls-2" d="M119.05,30.05a6.75,6.75,0,0,0,1,.39.5.5,0,0,0,.43-.24,1.2,1.2,0,0,0,.2-.52h.4v3.88h-.36a9.28,9.28,0,0,0-1-2,2.81,2.81,0,0,0-2.24-1.34,2.06,2.06,0,0,0-2,1.44,10.17,10.17,0,0,0-.59,3.85,10,10,0,0,0,.35,2.93c.43,1.44,1.24,2.16,2.42,2.16a3.22,3.22,0,0,0,2-.72,7.75,7.75,0,0,0,1.27-1.32l.42.41a8.53,8.53,0,0,1-1.46,1.57,4,4,0,0,1-2.47.86A4.68,4.68,0,0,1,113.9,40a6,6,0,0,1-1.56-4.34,6.31,6.31,0,0,1,1.49-4.38,4.43,4.43,0,0,1,3.44-1.57,4.6,4.6,0,0,1,1.78.38" transform="translate(-2.12 -2.92)"/><path class="cls-5" d="M119.05,30.05a6.75,6.75,0,0,0,1,.39.5.5,0,0,0,.43-.24,1.2,1.2,0,0,0,.2-.52h.4v3.88h-.36a9.28,9.28,0,0,0-1-2,2.81,2.81,0,0,0-2.24-1.34,2.06,2.06,0,0,0-2,1.44,10.17,10.17,0,0,0-.59,3.85,10,10,0,0,0,.35,2.93c.43,1.44,1.24,2.16,2.42,2.16a3.22,3.22,0,0,0,2-.72,7.75,7.75,0,0,0,1.27-1.32l.42.41a8.53,8.53,0,0,1-1.46,1.57,4,4,0,0,1-2.47.86A4.68,4.68,0,0,1,113.9,40a6,6,0,0,1-1.56-4.34,6.31,6.31,0,0,1,1.49-4.38,4.43,4.43,0,0,1,3.44-1.57A4.6,4.6,0,0,1,119.05,30.05Z" transform="translate(-2.12 -2.92)"/><path class="cls-2" d="M128.27,34.28a4.17,4.17,0,0,1,1,2.94,4.21,4.21,0,0,1-1,3,3.4,3.4,0,0,1-2.59,1.11A3.36,3.36,0,0,1,123,40.06a4.15,4.15,0,0,1-1-2.78,4.3,4.3,0,0,1,1-3,3.56,3.56,0,0,1,5.23,0m-1,5.1a8,8,0,0,0,.23-2.16,6,6,0,0,0-.49-2.75,1.46,1.46,0,0,0-1.32-.93c-.78,0-1.31.52-1.6,1.55a8.33,8.33,0,0,0-.22,2.13,8,8,0,0,0,.23,2.16c.28,1,.81,1.52,1.59,1.52s1.3-.51,1.58-1.52" transform="translate(-2.12 -2.92)"/><path class="cls-5" d="M128.27,34.28a4.17,4.17,0,0,1,1,2.94,4.21,4.21,0,0,1-1,3,3.4,3.4,0,0,1-2.59,1.11A3.36,3.36,0,0,1,123,40.06a4.15,4.15,0,0,1-1-2.78,4.3,4.3,0,0,1,1-3,3.56,3.56,0,0,1,5.23,0Zm-1,5.1a8,8,0,0,0,.23-2.16,6,6,0,0,0-.49-2.75,1.46,1.46,0,0,0-1.32-.93c-.78,0-1.31.52-1.6,1.55a8.33,8.33,0,0,0-.22,2.13,8,8,0,0,0,.23,2.16c.28,1,.81,1.52,1.59,1.52S127,40.39,127.26,39.38Z" transform="translate(-2.12 -2.92)"/><path class="cls-2" d="M129.87,40.77a1.42,1.42,0,0,0,.61-.13.72.72,0,0,0,.3-.68V34.43a.7.7,0,0,0-.29-.67,1.47,1.47,0,0,0-.62-.13v-.29h3.6v.29a1.51,1.51,0,0,0-.84.19,1.22,1.22,0,0,0-.2.85v5.4c0,.25,0,.42.17.5a1.41,1.41,0,0,0,.7.12,2.62,2.62,0,0,0,1.56-.45A3.71,3.71,0,0,0,136,38.47h.3l-.42,2.59h-6Z" transform="translate(-2.12 -2.92)"/><path class="cls-5" d="M129.87,40.77a1.42,1.42,0,0,0,.61-.13.72.72,0,0,0,.3-.68V34.43a.7.7,0,0,0-.29-.67,1.47,1.47,0,0,0-.62-.13v-.29h3.6v.29a1.51,1.51,0,0,0-.84.19,1.22,1.22,0,0,0-.2.85v5.4c0,.25,0,.42.17.5a1.41,1.41,0,0,0,.7.12,2.62,2.62,0,0,0,1.56-.45A3.71,3.71,0,0,0,136,38.47h.3l-.42,2.59h-6Z" transform="translate(-2.12 -2.92)"/><path class="cls-2" d="M136.73,40.77a1.33,1.33,0,0,0,.6-.13.72.72,0,0,0,.31-.68V34.43a.7.7,0,0,0-.3-.67,1.46,1.46,0,0,0-.61-.13v-.29h3.6v.29a1.51,1.51,0,0,0-.84.19c-.14.12-.21.4-.21.85v5.4a.57.57,0,0,0,.18.5,1.36,1.36,0,0,0,.69.12,2.62,2.62,0,0,0,1.56-.45,3.64,3.64,0,0,0,1.09-1.77h.3l-.41,2.59h-6Z" transform="translate(-2.12 -2.92)"/><path class="cls-5" d="M136.73,40.77a1.33,1.33,0,0,0,.6-.13.72.72,0,0,0,.31-.68V34.43a.7.7,0,0,0-.3-.67,1.46,1.46,0,0,0-.61-.13v-.29h3.6v.29a1.51,1.51,0,0,0-.84.19c-.14.12-.21.4-.21.85v5.4a.57.57,0,0,0,.18.5,1.36,1.36,0,0,0,.69.12,2.62,2.62,0,0,0,1.56-.45,3.64,3.64,0,0,0,1.09-1.77h.3l-.41,2.59h-6Z" transform="translate(-2.12 -2.92)"/><path class="cls-2" d="M143.57,41.06v-.29a1.25,1.25,0,0,0,.62-.14.73.73,0,0,0,.29-.67V34.43a.71.71,0,0,0-.3-.67,1.46,1.46,0,0,0-.61-.13v-.29h5.92v2.3h-.25a2.5,2.5,0,0,0-.67-1.51,2.61,2.61,0,0,0-1.71-.41,1,1,0,0,0-.6.11.56.56,0,0,0-.13.43v2.65a1.48,1.48,0,0,0,1.19-.36,2.8,2.8,0,0,0,.48-1.33h.26v3.84h-.26a2.58,2.58,0,0,0-.45-1.37,1.55,1.55,0,0,0-1.22-.39v2.77a.6.6,0,0,0,.17.49,1.2,1.2,0,0,0,.69.13,2.83,2.83,0,0,0,1.61-.42,3.48,3.48,0,0,0,1.1-1.59H150l-.42,2.38Z" transform="translate(-2.12 -2.92)"/><path class="cls-5" d="M143.57,41.06v-.29a1.25,1.25,0,0,0,.62-.14.73.73,0,0,0,.29-.67V34.43a.71.71,0,0,0-.3-.67,1.46,1.46,0,0,0-.61-.13v-.29h5.92v2.3h-.25a2.5,2.5,0,0,0-.67-1.51,2.61,2.61,0,0,0-1.71-.41,1,1,0,0,0-.6.11.56.56,0,0,0-.13.43v2.65a1.48,1.48,0,0,0,1.19-.36,2.8,2.8,0,0,0,.48-1.33h.26v3.84h-.26a2.58,2.58,0,0,0-.45-1.37,1.55,1.55,0,0,0-1.22-.39v2.77a.6.6,0,0,0,.17.49,1.2,1.2,0,0,0,.69.13,2.83,2.83,0,0,0,1.61-.42,3.48,3.48,0,0,0,1.1-1.59H150l-.42,2.38Z" transform="translate(-2.12 -2.92)"/><path class="cls-2" d="M151.62,34.39a3.27,3.27,0,0,1,2.61-1.2,3.19,3.19,0,0,1,1.27.27,3.26,3.26,0,0,0,.79.27.35.35,0,0,0,.27-.13,1,1,0,0,0,.16-.4H157v2.68h-.26A6.6,6.6,0,0,0,156,34.5a2.08,2.08,0,0,0-1.64-.92,1.52,1.52,0,0,0-1.45,1,6.5,6.5,0,0,0-.46,2.7,7.25,7.25,0,0,0,.43,2.55,1.62,1.62,0,0,0,1.64,1.12,1,1,0,0,0,.88-.31.86.86,0,0,0,.13-.53V38.86c0-.34-.09-.57-.28-.67a1.79,1.79,0,0,0-.76-.11v-.29H158v.29a1,1,0,0,0-.71.23,1.43,1.43,0,0,0-.17.81v1.46a4.74,4.74,0,0,1-1.11.47,6,6,0,0,1-1.7.23,3.44,3.44,0,0,1-2.74-1.2,4.21,4.21,0,0,1-1-2.81,4.31,4.31,0,0,1,1-2.88" transform="translate(-2.12 -2.92)"/><path class="cls-5" d="M151.62,34.39a3.27,3.27,0,0,1,2.61-1.2,3.19,3.19,0,0,1,1.27.27,3.26,3.26,0,0,0,.79.27.35.35,0,0,0,.27-.13,1,1,0,0,0,.16-.4H157v2.68h-.26A6.6,6.6,0,0,0,156,34.5a2.08,2.08,0,0,0-1.64-.92,1.52,1.52,0,0,0-1.45,1,6.5,6.5,0,0,0-.46,2.7,7.25,7.25,0,0,0,.43,2.55,1.62,1.62,0,0,0,1.64,1.12,1,1,0,0,0,.88-.31.86.86,0,0,0,.13-.53V38.86c0-.34-.09-.57-.28-.67a1.79,1.79,0,0,0-.76-.11v-.29H158v.29a1,1,0,0,0-.71.23,1.43,1.43,0,0,0-.17.81v1.46a4.74,4.74,0,0,1-1.11.47,6,6,0,0,1-1.7.23,3.44,3.44,0,0,1-2.74-1.2,4.21,4.21,0,0,1-1-2.81A4.31,4.31,0,0,1,151.62,34.39Z" transform="translate(-2.12 -2.92)"/><path class="cls-2" d="M158.41,41.06v-.29a1.27,1.27,0,0,0,.63-.14.72.72,0,0,0,.28-.67V34.43a.71.71,0,0,0-.29-.67,1.47,1.47,0,0,0-.62-.13v-.29h5.93v2.3h-.25a2.56,2.56,0,0,0-.67-1.51,2.61,2.61,0,0,0-1.71-.41,1,1,0,0,0-.6.11.56.56,0,0,0-.13.43v2.65a1.5,1.5,0,0,0,1.19-.36,2.8,2.8,0,0,0,.48-1.33h.26v3.84h-.26a2.67,2.67,0,0,0-.45-1.37A1.56,1.56,0,0,0,161,37.3v2.77a.6.6,0,0,0,.17.49,1.2,1.2,0,0,0,.69.13,2.83,2.83,0,0,0,1.61-.42,3.48,3.48,0,0,0,1.1-1.59h.29l-.42,2.38Z" transform="translate(-2.12 -2.92)"/></g><g class="cls-6"><path class="cls-5" d="M158.41,41.06v-.29a1.27,1.27,0,0,0,.63-.14.72.72,0,0,0,.28-.67V34.43a.71.71,0,0,0-.29-.67,1.47,1.47,0,0,0-.62-.13v-.29h5.93v2.3h-.25a2.56,2.56,0,0,0-.67-1.51,2.61,2.61,0,0,0-1.71-.41,1,1,0,0,0-.6.11.56.56,0,0,0-.13.43v2.65a1.5,1.5,0,0,0,1.19-.36,2.8,2.8,0,0,0,.48-1.33h.26v3.84h-.26a2.67,2.67,0,0,0-.45-1.37A1.56,1.56,0,0,0,161,37.3v2.77a.6.6,0,0,0,.17.49,1.2,1.2,0,0,0,.69.13,2.83,2.83,0,0,0,1.61-.42,3.48,3.48,0,0,0,1.1-1.59h.29l-.42,2.38Z" transform="translate(-2.12 -2.92)"/></g><g class="cls-4"><path class="cls-2" d="M53.62,34.28a4.18,4.18,0,0,1,1.06,2.94,4.22,4.22,0,0,1-1.06,3,3.56,3.56,0,0,1-5.27-.11,4.15,4.15,0,0,1-1-2.78,4.35,4.35,0,0,1,1-3,3.56,3.56,0,0,1,5.23,0m-1,5.1a8.43,8.43,0,0,0,.23-2.16,6.17,6.17,0,0,0-.49-2.75A1.49,1.49,0,0,0,51,33.54c-.78,0-1.31.52-1.6,1.55a8.33,8.33,0,0,0-.22,2.13,8.43,8.43,0,0,0,.23,2.16c.28,1,.81,1.52,1.59,1.52s1.3-.51,1.59-1.52" transform="translate(-2.12 -2.92)"/><path class="cls-5" d="M53.62,34.28a4.18,4.18,0,0,1,1.06,2.94,4.22,4.22,0,0,1-1.06,3,3.56,3.56,0,0,1-5.27-.11,4.15,4.15,0,0,1-1-2.78,4.35,4.35,0,0,1,1-3,3.56,3.56,0,0,1,5.23,0Zm-1,5.1a8.43,8.43,0,0,0,.23-2.16,6.17,6.17,0,0,0-.49-2.75A1.49,1.49,0,0,0,51,33.54c-.78,0-1.31.52-1.6,1.55a8.33,8.33,0,0,0-.22,2.13,8.43,8.43,0,0,0,.23,2.16c.28,1,.81,1.52,1.59,1.52S52.33,40.39,52.62,39.38Z" transform="translate(-2.12 -2.92)"/><path class="cls-2" d="M55.18,40.77c.39,0,.65-.08.76-.23a1.08,1.08,0,0,0,.18-.68V34.43a.74.74,0,0,0-.2-.61,1.45,1.45,0,0,0-.71-.19v-.29H57.8l2,5.28h.08l2-5.28h2.6v.29a1.33,1.33,0,0,0-.72.21,1.22,1.22,0,0,0-.19.83v5a1.3,1.3,0,0,0,.19.83,1.11,1.11,0,0,0,.72.22v.29H61.09v-.29a1.34,1.34,0,0,0,.69-.17c.16-.1.23-.33.23-.67V34.34h-.07l-2.52,6.72h-.28L56.6,34.47h-.05v5.17a1.47,1.47,0,0,0,.19.83,1.07,1.07,0,0,0,.84.3v.29h-2.4Z" transform="translate(-2.12 -2.92)"/><path class="cls-5" d="M55.18,40.77c.39,0,.65-.08.76-.23a1.08,1.08,0,0,0,.18-.68V34.43a.74.74,0,0,0-.2-.61,1.45,1.45,0,0,0-.71-.19v-.29H57.8l2,5.28h.08l2-5.28h2.6v.29a1.33,1.33,0,0,0-.72.21,1.22,1.22,0,0,0-.19.83v5a1.3,1.3,0,0,0,.19.83,1.11,1.11,0,0,0,.72.22v.29H61.09v-.29a1.34,1.34,0,0,0,.69-.17c.16-.1.23-.33.23-.67V34.34h-.07l-2.52,6.72h-.28L56.6,34.47h-.05v5.17a1.47,1.47,0,0,0,.19.83,1.07,1.07,0,0,0,.84.3v.29h-2.4Z" transform="translate(-2.12 -2.92)"/><path class="cls-2" d="M65.6,40.77a1,1,0,0,0,.76-.23,1.08,1.08,0,0,0,.18-.68V34.43a.74.74,0,0,0-.2-.61,1.48,1.48,0,0,0-.71-.19v-.29h2.58l2,5.28h.08l2-5.28h2.59v.29a1.32,1.32,0,0,0-.71.21c-.13.11-.19.39-.19.83v5a1.24,1.24,0,0,0,.19.83,1.1,1.1,0,0,0,.71.22v.29H71.51v-.29a1.37,1.37,0,0,0,.69-.17.78.78,0,0,0,.23-.67V34.34h-.08l-2.51,6.72h-.28L67,34.47h0v5.17a1.39,1.39,0,0,0,.19.83,1.07,1.07,0,0,0,.84.3v.29H65.6Z" transform="translate(-2.12 -2.92)"/><path class="cls-5" d="M65.6,40.77a1,1,0,0,0,.76-.23,1.08,1.08,0,0,0,.18-.68V34.43a.74.74,0,0,0-.2-.61,1.48,1.48,0,0,0-.71-.19v-.29h2.58l2,5.28h.08l2-5.28h2.59v.29a1.32,1.32,0,0,0-.71.21c-.13.11-.19.39-.19.83v5a1.24,1.24,0,0,0,.19.83,1.1,1.1,0,0,0,.71.22v.29H71.51v-.29a1.37,1.37,0,0,0,.69-.17.78.78,0,0,0,.23-.67V34.34h-.08l-2.51,6.72h-.28L67,34.47h0v5.17a1.39,1.39,0,0,0,.19.83,1.07,1.07,0,0,0,.84.3v.29H65.6Z" transform="translate(-2.12 -2.92)"/><path class="cls-2" d="M79,33.34v.29a1.29,1.29,0,0,0-.8.2,1.19,1.19,0,0,0-.2.84V38.5a3.89,3.89,0,0,0,.18,1.34,1.29,1.29,0,0,0,1.3.89,1.58,1.58,0,0,0,1.6-1,3.81,3.81,0,0,0,.23-1.5V34.76a1.35,1.35,0,0,0-.2-.85,1.15,1.15,0,0,0-.8-.28v-.29h2.26v.29a1.3,1.3,0,0,0-.65.26c-.11.1-.16.33-.16.7v3.65a3.54,3.54,0,0,1-.63,2.25,2.39,2.39,0,0,1-2,.79,2.5,2.5,0,0,1-2.42-1.18,3.18,3.18,0,0,1-.35-1.61V34.67a1.37,1.37,0,0,0-.15-.81,1.22,1.22,0,0,0-.7-.23v-.29Z" transform="translate(-2.12 -2.92)"/><path class="cls-5" d="M79,33.34v.29a1.29,1.29,0,0,0-.8.2,1.19,1.19,0,0,0-.2.84V38.5a3.89,3.89,0,0,0,.18,1.34,1.29,1.29,0,0,0,1.3.89,1.58,1.58,0,0,0,1.6-1,3.81,3.81,0,0,0,.23-1.5V34.76a1.35,1.35,0,0,0-.2-.85,1.15,1.15,0,0,0-.8-.28v-.29h2.26v.29a1.3,1.3,0,0,0-.65.26c-.11.1-.16.33-.16.7v3.65a3.54,3.54,0,0,1-.63,2.25,2.39,2.39,0,0,1-2,.79,2.5,2.5,0,0,1-2.42-1.18,3.18,3.18,0,0,1-.35-1.61V34.67a1.37,1.37,0,0,0-.15-.81,1.22,1.22,0,0,0-.7-.23v-.29Z" transform="translate(-2.12 -2.92)"/><path class="cls-2" d="M83.23,40.77c.38,0,.62-.09.73-.25a1.09,1.09,0,0,0,.17-.66V34.45c-.31-.39-.51-.62-.58-.69a.59.59,0,0,0-.3-.13v-.29h2.17L89,38.12H89V34.76a1.35,1.35,0,0,0-.19-.83,1,1,0,0,0-.75-.3v-.29h2.2v.29a1.43,1.43,0,0,0-.65.23,1,1,0,0,0-.16.67v6.74h-.29l-4.52-6.11h-.07v4.48a1.48,1.48,0,0,0,.13.74.92.92,0,0,0,.84.39v.29H83.23Z" transform="translate(-2.12 -2.92)"/><path class="cls-5" d="M83.23,40.77c.38,0,.62-.09.73-.25a1.09,1.09,0,0,0,.17-.66V34.45c-.31-.39-.51-.62-.58-.69a.59.59,0,0,0-.3-.13v-.29h2.17L89,38.12H89V34.76a1.35,1.35,0,0,0-.19-.83,1,1,0,0,0-.75-.3v-.29h2.2v.29a1.43,1.43,0,0,0-.65.23,1,1,0,0,0-.16.67v6.74h-.29l-4.52-6.11h-.07v4.48a1.48,1.48,0,0,0,.13.74.92.92,0,0,0,.84.39v.29H83.23Z" transform="translate(-2.12 -2.92)"/><path class="cls-2" d="M91.12,40.77a1.44,1.44,0,0,0,.63-.12.73.73,0,0,0,.32-.69V34.43a.72.72,0,0,0-.3-.68,1.51,1.51,0,0,0-.65-.12v-.29h3.6v.29a1.59,1.59,0,0,0-.67.12.71.71,0,0,0-.3.68V40a.71.71,0,0,0,.24.64,1.31,1.31,0,0,0,.73.17v.29h-3.6Z" transform="translate(-2.12 -2.92)"/><path class="cls-5" d="M91.12,40.77a1.44,1.44,0,0,0,.63-.12.73.73,0,0,0,.32-.69V34.43a.72.72,0,0,0-.3-.68,1.51,1.51,0,0,0-.65-.12v-.29h3.6v.29a1.59,1.59,0,0,0-.67.12.71.71,0,0,0-.3.68V40a.71.71,0,0,0,.24.64,1.31,1.31,0,0,0,.73.17v.29h-3.6Z" transform="translate(-2.12 -2.92)"/><path class="cls-2" d="M95.47,33.34h6.19v2.3h-.29a2.18,2.18,0,0,0-.83-1.67,2.33,2.33,0,0,0-1.16-.27v6a1.22,1.22,0,0,0,.2.84,1.14,1.14,0,0,0,.82.21v.29H96.74v-.29a1.14,1.14,0,0,0,.81-.21,1.28,1.28,0,0,0,.2-.84v-6a2.36,2.36,0,0,0-1.16.27,2,2,0,0,0-.83,1.67h-.3Z" transform="translate(-2.12 -2.92)"/><path class="cls-5" d="M95.47,33.34h6.19v2.3h-.29a2.18,2.18,0,0,0-.83-1.67,2.33,2.33,0,0,0-1.16-.27v6a1.22,1.22,0,0,0,.2.84,1.14,1.14,0,0,0,.82.21v.29H96.74v-.29a1.14,1.14,0,0,0,.81-.21,1.28,1.28,0,0,0,.2-.84v-6a2.36,2.36,0,0,0-1.16.27,2,2,0,0,0-.83,1.67h-.3Z" transform="translate(-2.12 -2.92)"/><path class="cls-2" d="M105.88,33.34v.29a2.78,2.78,0,0,0-.68.09.21.21,0,0,0-.15.23.55.55,0,0,0,0,.17c0,.06.06.17.13.33l1.35,2.75h0l1.1-2a4.78,4.78,0,0,0,.22-.45,1.73,1.73,0,0,0,.18-.61.39.39,0,0,0-.22-.4,2.37,2.37,0,0,0-.64-.1v-.29h2.26v.29a1.72,1.72,0,0,0-.39.11.77.77,0,0,0-.31.33l-2,3.55v2.1a1.21,1.21,0,0,0,.2.84,1.12,1.12,0,0,0,.75.21v.29H104.2v-.29a1.12,1.12,0,0,0,.76-.22,1.3,1.3,0,0,0,.19-.83V38l-1.88-3.79a1.19,1.19,0,0,0-.46-.52.71.71,0,0,0-.37-.1v-.29Z" transform="translate(-2.12 -2.92)"/><path class="cls-5" d="M105.88,33.34v.29a2.78,2.78,0,0,0-.68.09.21.21,0,0,0-.15.23.55.55,0,0,0,0,.17c0,.06.06.17.13.33l1.35,2.75h0l1.1-2a4.78,4.78,0,0,0,.22-.45,1.73,1.73,0,0,0,.18-.61.39.39,0,0,0-.22-.4,2.37,2.37,0,0,0-.64-.1v-.29h2.26v.29a1.72,1.72,0,0,0-.39.11.77.77,0,0,0-.31.33l-2,3.55v2.1a1.21,1.21,0,0,0,.2.84,1.12,1.12,0,0,0,.75.21v.29H104.2v-.29a1.12,1.12,0,0,0,.76-.22,1.3,1.3,0,0,0,.19-.83V38l-1.88-3.79a1.19,1.19,0,0,0-.46-.52.71.71,0,0,0-.37-.1v-.29Z" transform="translate(-2.12 -2.92)"/><rect class="cls-2" x="35.21" y="24.1" width="127.63" height="0.72"/></g></svg>