<?xml version="1.0" encoding="utf-8"?>
<!-- Generator: Adobe Illustrator 19.2.1, SVG Export Plug-In . SVG Version: 6.00 Build 0)  -->
<svg version="1.1" id="layer" xmlns="http://www.w3.org/2000/svg" xmlns:xlink="http://www.w3.org/1999/xlink" x="0px" y="0px"
	 viewBox="0 0 652 652" style="enable-background:new 0 0 652 652;" xml:space="preserve">
<style type="text/css">
	.st0{fill:#009B7C;}
	.st1{fill:#007AC2;}
	.st2{fill:#EF3E42;}
	.st3{fill:#FFD520;}
</style>
<path d="M318.5,449.7c-8.8-0.3-17.2,3.2-23.2,9.7c-6,6.1-8.9,14.2-8.9,24.5c-0.3,9.2,2.8,18.3,8.7,25.5c5.7,6.5,14,10.1,22.6,9.9
	c8.7,0.3,17-3.2,22.9-9.5c6.4-6.5,9.8-15.3,9.5-24.5c0.2-9.4-3.2-18.6-9.5-25.6C335,453.2,327,449.6,318.5,449.7L318.5,449.7z
	 M317.9,528.2c-6.1,0-12.2-1-18.1-2.9c-5.4-1.9-10.3-5-14.4-9c-4.5-3.8-7.9-8.7-10-14.2c-2.2-5.4-3.3-11.1-3.3-16.9
	c0-4.7,0.7-9.3,2.3-13.7c1.2-4.4,3.3-8.6,6.1-12.2c4.2-5.9,9.9-10.6,16.4-13.8c6.5-3.3,13.7-5,20.9-4.9c6.2,0.1,12.3,1.1,18.2,3.1
	c5.5,1.8,10.5,4.9,14.7,9c4.3,4,7.7,8.8,10,14.2c2.3,5.6,3.5,11.5,3.5,17.6c-0.1,5.9-1.6,11.6-4.4,16.8c-2.4,5.7-6,10.8-10.7,14.8
	c-4.1,3.9-8.9,7-14.2,9c-5.5,1.9-11.3,2.9-17.2,2.9V528.2z M366.9,526.3c1.7-1.4,3-3.3,3.6-5.4c1.1-2.9,1.6-6,1.5-9.2v-54.7
	c0.1-3.2-0.4-6.3-1.5-9.3c-0.8-2.1-2-4-3.6-5.5h23.2c-1.7,1.6-3.1,3.4-4.1,5.5c-0.7,3-0.9,6.2-0.8,9.3v58.5c3,0.4,5.9,0.6,8.4,0.8
	s4.9,0.3,6.8,0.3c4,0,8.1-0.4,12-1.3c4-1.2,7.8-3.1,11.2-5.5l-6,16.4L366.9,526.3z M422,526.3c1.7-1.5,3-3.3,3.9-5.4
	c1-3,1.4-6,1.4-9.2v-54.7c0.1-3.2-0.4-6.4-1.4-9.4c-0.9-2.1-2.2-3.9-3.9-5.4h23.3c-1.8,1.4-3.1,3.3-3.9,5.4c-0.9,3-1.3,6.2-1.3,9.4
	v58.5c3.4,0.4,6.3,0.6,8.9,0.8c2.2,0.2,4.3,0.3,6.5,0.3c4.1,0.1,8.2-0.4,12.2-1.3c4-1.3,7.8-3.2,11.3-5.5l-6.1,16.4L422,526.3z
	 M480.9,526.3c1.8-1.4,3.1-3.3,3.9-5.4c1-3,1.4-6,1.4-9.2v-54.3c0.1-3.1-0.4-6.2-1.4-9.2c-0.8-2.2-2.1-4.1-3.9-5.5h45.7v12.9
	c-2-1.5-4.3-2.7-6.8-3.4c-2.7-0.7-5.6-1.1-8.4-1c-1.8-0.1-3.6,0.1-5.4,0.5c-2.4,0.2-4.7,0.5-7,1.1v23.5h20.6v12.2
	c-1.2-1.1-2.6-1.9-4.1-2.3c-2.9-0.7-5.9-1-8.9-0.8h-7.5v30.1c3.1,0.4,6,0.6,8.7,0.8c2.2,0.4,4.4,0.6,6.6,0.5c4,0,7.9-0.5,11.8-1.5
	c4.1-1.2,8-3,11.5-5.3l-6,16.2H480.9z M607.3,456.3c-3.3-2.2-6.9-3.9-10.7-5.1c-3.5-1.3-7.2-2.1-10.9-2.1
	c-8.8-0.2-17.3,3.3-23.3,9.7c-6.3,6.6-8.9,14.7-8.9,25.3s2.9,19.1,9.3,25.6c6.4,6.5,14.3,9,25.1,9c2.4,0,4.9-0.1,7.8-0.4
	s5.3-1.3,8.7-2v-17.4c0.1-3.3-0.3-6.7-1.1-9.9c-0.9-2-2.3-3.7-3.9-5.1h16.3v40.6c-5,1.3-10.1,2.3-15.3,2.9c-4.3,0.7-8.6,1-12.9,0.9
	c-5.3,0-10.6-0.5-15.8-1.5c-4.5-1.1-8.7-3-12.5-5.5c-6.3-3.6-11.4-8.8-14.9-15.2c-3.5-6.5-5.2-13.8-5-21.2c-0.2-6,0.9-12,3.3-17.6
	c2.8-5.6,6.5-10.7,11-15c4.4-3.8,9.4-6.9,14.8-9c5.8-2,11.9-3.1,18.1-3.1c3.2,0.1,6.5,0.4,9.7,0.9c3.8,0.4,7.6,1.1,11.3,1.9v13.5
	H607.3z M623.5,526.3c1.8-1.4,3.1-3.3,4-5.4c0.9-3,1.2-6.1,1.1-9.2v-54.3c0.1-3.1-0.3-6.2-1.1-9.2c-0.9-2.1-2.2-4-4-5.5h45.9v12.9
	c-2.2-1.5-4.5-2.6-7-3.4c-2.7-0.7-5.5-1.1-8.3-1c-1.9-0.1-3.7,0.1-5.5,0.5c-2.3,0.2-4.6,0.5-6.8,1.1v23.5h20.1v12.2
	c-1-1.2-2.4-2-3.9-2.3c-3-0.8-6.1-1.1-9.2-0.9h-7.1v30.1c3.1,0.4,5.8,0.6,8.4,0.8c2.2,0.4,4.5,0.6,6.8,0.5c4,0,8-0.5,11.9-1.5
	c3.9-1.3,7.7-3,11.2-5.3l-5.8,16.2L623.5,526.3z M278,538.2l-9,22.6c-5.5,1.9-11.1,3.4-16.8,4.5c-11.7,2.2-23.8,1.8-35.4-1.3
	c-6.5-1.9-12.8-4.5-18.7-7.9c-9.4-5.6-17.1-13.7-22.2-23.3c-5.1-9.9-7.7-20.9-7.5-32.1c0-8.8,1.9-17.5,5.5-25.6
	c3.9-8.5,9.4-16.1,16.2-22.4c6.4-5.9,13.9-10.4,22.1-13.3c8.3-3.1,17.2-4.7,26.1-4.5c4.5,0,8.8,0.6,13.9,1.1
	c5.3,0.7,10.5,2,15.6,3.8v20.1c-5.2-2.8-10.6-5-16.2-6.8c-4.8-1.4-9.8-2.2-14.8-2.3c-14.2,0-25.5,4.5-34.1,13.5
	c-8.2,8.5-12.3,19.8-12.3,34.4c0,15.8,4.1,28.3,12.9,38c9,9.6,21.6,14.9,34.7,14.5c6.3-0.1,12.6-1.1,18.7-3
	C264.1,545.5,271.2,542.2,278,538.2L278,538.2z M245,242.5h37.4l-17.9-48.9L245,242.5z M228,285.2c-1,2.7-1.6,5.6-1.5,8.5
	c0.1,1.3,0.5,2.6,1.3,3.6c1.2,1.9,2.7,3.6,4.5,5h-30.1c2.8-1.7,5.1-4.1,6.8-6.9c2.3-3.9,4.3-8,6-12.2l35.5-89.8
	c0.7-1.7,1.2-3.5,1.6-5.3c0-1.5,0.4-2.9,0.4-4.1c0-1.4-0.3-2.9-1-4.1c-0.9-1.3-2-2.5-3.3-3.5h28.5l39.9,105.8
	c1.8,4,3.9,7.9,6.4,11.5c2.3,3.3,5.1,6.2,8.4,8.5H295l0.4-0.4c3.5-3.3,5.1-5.9,5.1-7.6c-0.2-3-1-5.9-2.3-8.5c0-0.4-0.2-0.9-0.4-1.3
	l-11-29.3h-46.4l-12.5,30.1L228,285.2z M389.3,302.1v-6.4c-3.8,2.8-8,5-12.5,6.5c-4.1,1.4-8.4,2.2-12.8,2.1c-4.5,0-8.9-0.8-13.2-2.3
	c-3.7-1.7-7-4.1-9.7-7.2c-2.2-2.6-3.8-5.7-4.8-9c-0.9-4.5-1.4-9-1.3-13.5V233c0.2-3.2-0.3-6.4-1.3-9.4c-0.7-2-1.8-3.8-3.4-5.1H353
	c-1.8,1.3-3.1,3.1-3.9,5.1c-0.9,3-1.3,6.2-1.1,9.4v36.6c-0.1,4.4,0.2,8.9,0.9,13.3c0.5,2.3,1.5,4.4,2.9,6.3c1.7,2.2,3.9,3.8,6.5,4.6
	c3.1,0.9,6.4,1.3,9.7,1.3c2.9,0.1,5.7-0.4,8.4-1.3c2.7-0.9,5.1-2.3,7.3-4.1c1.7-1.3,3-3.2,3.6-5.3c1-3.1,1.4-6.4,1.3-9.7V233
	c0.2-3.2-0.2-6.4-1.3-9.4c-0.7-2-1.9-3.8-3.5-5.1h22.8c-1.8,1.3-3.1,3.2-3.6,5.4c-1,3-1.4,6.1-1.3,9.2v54.4
	c-0.2,3.2,0.2,6.4,1.3,9.4c0.6,2.2,1.9,4,3.6,5.4L389.3,302.1z M423.4,300.2l-3.9-15c4.4,3.1,9.3,5.6,14.4,7.2
	c4.3,1.6,8.8,2.3,13.3,2.3c4.9,0.4,9.8-0.9,13.9-3.8c3.4-2,5.4-5.7,5.4-9.6c-0.1-1.1-0.3-2.2-0.6-3.3c-0.4-1-1-2.3-1.4-3.3
	c-1.6-2.5-6.8-5.5-15.7-9.7c-2.3-1.3-3.9-1.9-5.1-2.5c-6.2-2.8-11.8-6.7-16.8-11.3c-3-3.5-4.5-8-4.3-12.5
	c-0.2-6.4,2.8-12.4,8.2-15.9c5.5-4.1,13.2-6.4,22.8-6.4c3,0.1,6,0.3,9,0.8c3.3,0.5,7,0.9,10.9,1.5v14.2c-3.2-2.5-6.7-4.6-10.5-6
	c-3.4-1.2-7-1.9-10.7-2c-4.1-0.1-8.2,1-11.7,3.1c-2.7,1.8-4.3,4.9-4.1,8.2c-0.1,2.9,1.1,5.7,3.1,7.8c4.6,3.7,9.8,6.8,15.3,9
	c0.7,0.4,1.4,0.7,2.1,0.9c5.4,2.4,10.6,5.5,15.4,9c2.3,1.8,4.2,4,5.6,6.5c1.5,2.8,2.2,5.9,2.3,9c-0.1,7.5-3.8,14.5-10,18.7
	c-6.5,5-14.9,7.3-24.8,7.3c-3.4,0-6.7-0.3-10-1C431.4,302.6,427.3,301.5,423.4,300.2L423.4,300.2z M525.2,287.4
	c-0.1,3.2,0.3,6.4,1.3,9.4c0.7,2.1,1.9,4,3.5,5.4H507c1.7-1.5,3-3.3,3.9-5.4c0.9-3.1,1.3-6.2,1.1-9.4v-59.9h-6.9
	c-3.9,0-7.8,0.4-11.5,1.3c-2.5,0.5-4.7,1.8-6.5,3.5l3.9-13.8h60.2l-4.4,13.4c-1.2-1.5-2.7-2.6-4.5-3.1c-2.5-0.9-5.1-1.3-7.8-1.3
	h-9.3L525.2,287.4L525.2,287.4z M579.4,287.4c-0.2,3.2,0.1,6.3,0.8,9.4c0.9,2.1,2.4,3.9,4.3,5.3h-23.5c1.8-1.4,3.1-3.3,3.9-5.4
	c0.8-3.1,1.1-6.2,1-9.4v-54.4c0.1-3.2-0.2-6.5-1-9.7c-0.8-2.1-2.2-3.9-3.9-5.4h23.5c-1.9,1.4-3.4,3.3-4.4,5.4
	c-0.7,3.2-0.9,6.4-0.8,9.7v54.5H579.4z M677.3,218.3c-1.8,1.4-3.3,3.2-4.3,5.3c-0.9,3-1.2,6.2-1,9.4v70.9c-3,0-5.9-0.9-8.4-2.5
	c-3.9-2.8-7.2-6.3-9.9-10.3l-43.3-54.7v51c-0.2,3.3,0.1,6.5,1,9.7c0.8,2,2.3,3.8,4.1,5h-19.3c1.7-1.5,2.9-3.3,3.6-5.4
	c1.1-3,1.6-6.2,1.5-9.4V233c0.1-3.2-0.4-6.4-1.5-9.4c-0.8-2-2-3.8-3.6-5.3h17.1l49.8,63V233c0.2-3.2-0.3-6.4-1.4-9.4
	c-0.8-2-2.1-3.8-3.6-5.3H677.3z M129,334.7c-8.6,0-16.8,3.6-22.6,10c-5.6,6.4-8.5,14.8-8.5,25.3c-0.3,9.4,2.7,18.5,8.5,25.8
	c5.2,6.8,13.3,10.7,21.8,10.5c8.6,0.3,16.9-3.4,22.3-10c6.2-6.8,9.5-15.9,9-25.1c0.4-9.5-2.8-18.8-9-26.1
	c-5.1-6.7-13-10.6-21.4-10.7L129,334.7z M128.4,415.5c-6,0.1-12-1-17.6-3.1c-5.3-1.8-10.1-4.8-14.2-8.7c-4.1-4.2-7.3-9.3-9.3-14.8
	c-2.5-5.5-3.7-11.5-3.5-17.6c0-4.7,0.6-9.4,1.9-13.9c1.5-4.5,3.6-8.8,6.1-12.8c8.3-12,22-19.1,36.6-18.8c6.1,0.1,12.1,1.1,17.8,3
	c5.2,2,10,5,13.9,9c4.5,4.1,7.9,9.1,10,14.8c2.2,5.7,3.3,11.8,3.4,17.9c-0.1,6.1-1.6,12.1-4.3,17.6c-2.5,5.7-6,10.9-10.3,15.3
	c-4.1,3.7-8.8,6.7-13.9,8.7c-5.3,2.2-11,3.3-16.8,3.1V415.5z M169.4,413.5c1.8-1.9,3.3-4.1,4.5-6.5c1.2-2.5,2-5.1,2.5-7.8l7.5-57.9
	c0.5-1.5,0.5-2.5,0.9-3.8V335c0-1.2-0.3-2.4-0.9-3.5c-1-1.4-2.1-2.7-3.3-3.9h20.1l23.7,64.1l23.2-64.1h19.6c-1.2,1-2.2,2.3-2.9,3.6
	c-0.7,1.5-0.9,3.2-0.8,4.9v4.8l7.1,58.9c0.1,2.7,0.7,5.3,1.6,7.8c0.9,2.2,2.3,4.2,4.1,5.8H255c1.4-1.1,2.4-2.6,2.9-4.3
	c0.9-1.7,1.3-3.6,1.3-5.5v-1.9l-6.4-60.6l-27.6,73.1c-2.1-1.5-3.9-3.3-5.3-5.5c-1.9-2.9-3.5-6-4.5-9.3l-22.2-58.2l-7.5,56.7
	c-0.4,1.3-0.6,2.7-0.6,4.1v1.6c-0.2,1.8,0.2,3.6,1,5.3c0.9,1.8,2.2,3.3,3.8,4.5H169.4z M271.2,413.5c1.8-1.9,3.3-4.1,4.5-6.5
	c1.2-2.5,2-5.1,2.5-7.8l7.5-57.9c0.5-1.5,0.5-2.5,0.9-3.8V335c0-1.2-0.3-2.4-0.9-3.5c-1-1.4-2.1-2.7-3.3-3.9h20.1l23.7,64.1
	l23.2-64.1H369c-1.2,1-2.2,2.3-2.9,3.6c-0.7,1.5-0.9,3.2-0.8,4.9v4.8l7.1,58.9c0.1,2.7,0.7,5.3,1.6,7.8c0.9,2.2,2.3,4.2,4.1,5.8
	h-21.6c1.4-1.1,2.4-2.6,2.9-4.3c0.9-1.7,1.3-3.6,1.3-5.5v-1.9l-6.4-60.6l-27.6,73.1c-2.1-1.5-3.9-3.3-5.3-5.5
	c-1.9-2.9-3.5-6-4.5-9.3l-22.2-58.2l-7.8,56.6c-0.4,1.3-0.6,2.7-0.6,4.1v1.6c-0.2,1.8,0.2,3.6,1,5.3c0.9,1.8,2.2,3.3,3.8,4.5
	L271.2,413.5z M430.8,413.6v-6.5c-3.7,2.8-7.8,5-12,6.8c-4,1.3-8.3,2-12.5,2c-4.4,0-8.7-0.8-12.8-2.3c-3.6-1.8-6.9-4.2-9.7-7.1
	c-2.2-2.7-3.8-5.9-4.6-9.3c-0.9-4.5-1.3-9.2-1.1-13.8V343c0.1-3.3-0.2-6.5-1.1-9.7c-0.8-2.1-2.1-4.1-3.8-5.6h22.6
	c-1.7,1.5-3.1,3.5-3.8,5.6c-0.7,3.2-1,6.4-0.8,9.7v37.6c-0.2,4.4,0,8.8,0.8,13.2c0.1,2.5,1,5,2.5,7c1.7,2.1,3.9,3.6,6.4,4.5
	c2.9,1,6.1,1.4,9.2,1.3c2.9,0.1,5.7-0.3,8.4-1.3c2.5-0.9,4.8-2.3,6.8-4.1c1.9-1.5,3.2-3.6,3.7-5.9c1-3.1,1.4-6.3,1.3-9.5v-42.6
	c0.2-3.3-0.2-6.6-1.3-9.7c-0.7-2.1-1.9-4-3.4-5.6h22.3c-1.8,1.5-3.2,3.5-3.9,5.8c-0.9,3.1-1.2,6.3-1,9.5v55.4
	c-0.2,3.3,0.1,6.6,1,9.8c0.9,2.1,2.2,3.9,3.9,5.4L430.8,413.6z M528,327.9c-1.7,1.5-3.1,3.3-4,5.4c-0.6,3.2-0.8,6.4-0.8,9.7v72.5
	c-3,0-6-0.9-8.4-2.8c-3.6-3.2-6.8-6.7-9.5-10.7l-42-55.7v52c-0.3,3.3,0,6.6,1,9.8c0.8,2.1,2.1,3.9,3.8,5.4h-18.6
	c1.6-1.5,2.8-3.4,3.5-5.4c0.8-3.2,1.1-6.5,1-9.8V343c0.1-3.2-0.3-6.5-1-9.7c-0.7-2.1-1.9-3.9-3.5-5.4h16.4l48.3,64.5V343
	c0.1-3.2-0.3-6.5-1-9.7c-0.7-2.1-1.9-3.9-3.5-5.4H528z M548.3,398.4c-0.2,3.3,0.1,6.6,0.8,9.8c0.8,2.1,2.2,3.9,3.9,5.4h-22.6
	c1.6-1.6,2.8-3.4,3.8-5.4c0.9-3.2,1.3-6.5,1.1-9.8V343c0.1-3.3-0.2-6.5-1.1-9.7c-0.9-2.1-2.2-4-3.8-5.6h22.6c-1.7,1.6-3,3.5-3.9,5.6
	c-0.7,3.2-0.9,6.4-0.8,9.7V398.4z M590.8,398.4c-0.2,3.3,0.2,6.6,1.1,9.8c0.8,2.1,2.1,3.9,3.8,5.4h-22.2c1.4-1.6,2.5-3.4,3.3-5.4
	c1-3.2,1.4-6.5,1.3-9.8v-61.2h-6.5c-3.8-0.1-7.6,0.3-11.3,1.3c-2.4,0.6-4.7,1.8-6.4,3.6l3.6-14.2h58.8l-4,13.8
	c-1.3-1.6-3-2.7-4.9-3.3c-2.3-0.9-4.7-1.4-7.1-1.3h-9.4L590.8,398.4L590.8,398.4z M659.3,398.4c0,4.5,0,7.8,1.1,9.8
	c0.7,2.1,1.9,4,3.6,5.4h-22.6c1.6-1.5,2.9-3.3,3.6-5.4c1.3-3.1,1.8-6.4,1.5-9.8V375l-20.3-34.1c-1.6-2.5-3.3-5-5-7.1
	c-2-1.9-3.6-3.8-5.6-5.5h17.8l21.3,37.1l14.2-24.5c0.6-1.3,1.3-2.5,1.9-3.9c0.4-1.1,0.6-2.1,0.6-3.3c0-1-0.3-2-0.9-2.9
	c-0.8-1-1.8-1.9-2.9-2.5h19.5l-27.9,46.9V398.4L659.3,398.4z M89.8,409.3l-9.4,22.6c-5.5,1.7-11,3.2-16.7,4.4c-5,1-10,1.4-15,1.4
	c-6.8,0.1-13.5-0.8-20.1-2.6c-6.8-1.6-13.2-4.3-19.1-8c-9.3-5.4-17-13.4-21.9-22.9c-5-10-7.6-21-7.5-32.2c-0.1-9,1.8-17.8,5.5-26
	c3.9-8.3,9.4-15.7,16.2-21.9c6.3-6,13.8-10.6,22.1-13.5c8.4-3,17.3-4.6,26.2-4.5c4.6,0.1,9.2,0.6,13.8,1.4
	c5.3,0.8,10.5,1.9,15.6,3.5v20.1c-5.1-2.8-10.6-5-16.2-6.6c-4.8-1.4-9.8-2.2-14.8-2.3c-14.2,0-25.5,4.5-33.9,13.2
	S1.8,355.1,1.8,369.6c0,16.1,4.6,28.3,13.2,38c8.9,9.7,20.3,14.4,34.7,14.4c6.2,0,12.5-1,18.4-2.8c7.6-2.7,14.9-6,21.8-10
	L89.8,409.3z M292.1,559.7v-16c0-0.4-0.1-0.9-0.2-1.3c-0.1-0.3-0.4-0.6-0.7-0.9c-0.4-0.3-0.8-0.5-1.2-0.7l-0.9-0.4h15.3
	c3.4,0,6.7,0.3,10,0.9c2.6,0.5,5.1,1.3,7.5,2.5c1.8,0.8,3.3,2,4.6,3.5c1,1.1,1.5,2.5,1.6,4c0,0.1,0,0.2,0,0.3v0.2
	c-0.2,2-1.1,4-2.5,5.4c-2,2-4.5,3.5-7.2,4.3c-4,1.2-8.1,1.8-12.3,1.7h-2h-14.8c0.9-0.2,1.7-0.7,2.4-1.4
	C292,561.2,292.2,560.5,292.1,559.7z M298.5,560.5c1.5,0.3,3,0.4,4.5,0.4c2.6,0,5.2-0.3,7.7-0.8c2.4-0.4,4.7-1.3,6.8-2.5
	c1.7-0.9,2.9-2.6,3.2-4.6c0.4-3.3-1.6-6.5-4.7-7.6c-3.7-1.3-7.7-1.9-11.6-1.8c-1.2,0-3.1,0-5.8,0.2V560.5z M357.2,560.3v-16.6
	c0-0.7-0.2-1.4-0.6-1.9c-0.7-0.6-1.5-1.1-2.3-1.4h12.3c-0.8,0.3-1.6,0.8-2.3,1.4c-0.5,0.6-0.7,1.4-0.7,2.1v16.3
	c0,0.6,0.4,1.2,1.2,1.8c0.8,0.6,1.7,1,2.7,1.2h-13.9c0.9-0.2,1.7-0.5,2.4-1.1C356.7,561.8,357.1,561.1,357.2,560.3z M391.7,546.4
	c0-1.5,0.8-2.9,2.1-3.7c1.6-1.1,3.5-1.8,5.4-2.2c2.4-0.5,4.8-0.7,7.3-0.7h1.5c1.5,0,3.1,0,5,0.2c1.4,0.1,2.9,0.3,4.3,0.6v3.8
	c-1.6-0.7-3.3-1.2-5-1.5c-1.9-0.4-3.8-0.6-5.7-0.6c-2.5-0.3-5.1,0.5-7,2.1c-0.3,0.2-0.5,0.6-0.5,1c0,0.7,0.7,1.4,2,2.1
	c1.6,0.8,3.3,1.4,5,1.8l6.9,1.9c1.3,0.4,2.5,0.8,3.8,1.3c1.2,0.5,2.2,1.1,3.2,1.8c0.8,0.5,1.3,1.4,1.4,2.3c0,1.2-0.5,2.3-1.4,3.1
	c-1.1,1-2.4,1.8-3.8,2.3c-1.8,0.7-3.7,1.2-5.6,1.4c-2.3,0.3-4.6,0.5-6.9,0.5c-3.7,0-7.3-0.4-11-1.1l-1.5-4.3c4.1,1.9,8.5,2.8,13,2.8
	c2.1,0,4.1-0.2,6.1-0.8c1.7-0.5,2.7-1.2,3.1-2c0.2-0.3,0.2-0.6,0.3-1c0-0.8-0.5-1.4-1.5-2c-1.6-0.8-3.3-1.4-5-1.9l-6.9-1.9
	c-1.9-0.4-3.8-1.2-5.5-2.1C393.2,549.1,392.2,547.9,391.7,546.4z M455.3,560.8v-17.9h-5c-2.9-0.1-5.7,0.4-8.4,1.4l2-4.3
	c1.1,0.3,2.3,0.3,3.4,0.3H472c1.2,0,2.3-0.1,3.4-0.3l-2.5,4.3c-0.5-0.5-1.2-0.9-1.9-1c-1.1-0.3-2.3-0.4-3.5-0.4h-5.7v17.9
	c0,0.3,0.1,0.6,0.3,0.9c0.2,0.2,0.4,0.4,0.7,0.6l1.2,0.5l1.2,0.5h-12.8C454.3,562.7,455.3,561.9,455.3,560.8z M500.7,560.5v-16.9
	c0-0.6-0.1-1.1-0.2-1.7c-0.1-0.4-0.3-0.7-0.7-1c-0.3-0.2-0.6-0.4-1-0.5l-1.1-0.4h13.9c2,0,3.9,0.1,5.9,0.3c1.6,0.2,3.2,0.5,4.7,1
	c1.2,0.4,2.2,1,3.1,1.8c0.7,0.7,1.1,1.6,1.1,2.5c0,1.2-0.6,2.3-1.5,3c-1.1,0.9-2.4,1.7-3.7,2.1c-1.5,0.5-3.1,0.9-4.6,1.1l5.1,3.7
	c1.4,1,2.9,2,4.4,3c1.5,0.9,3,1.8,4.6,2.5c1.6,0.8,3.3,1.5,5,2h-6.9c-0.8,0-1.7,0-2.5-0.2c-0.8-0.1-1.5-0.3-2.3-0.6
	c-0.9-0.4-1.8-0.9-2.7-1.4l-12.8-9.5c2.9-0.6,5-1.1,6.5-1.5c1.2-0.3,2.3-0.8,3.3-1.4c0.7-0.5,1.1-1.2,1.1-2c0-0.2,0-0.4,0-0.5
	c-0.1-1.2-0.9-2.2-2.1-2.5c-1.8-0.7-3.8-1-5.8-0.9c-1.3,0-2.6,0.1-4,0.3v17.4c0,0.7,0.3,1.3,0.8,1.8c0.6,0.6,1.4,1,2.2,1.2h-12.8
	c0.8-0.1,1.6-0.4,2.2-0.9C500.5,561.9,500.7,561.2,500.7,560.5z M557.4,560.3v-16.6c0-0.7-0.2-1.4-0.6-1.9c-0.6-0.7-1.4-1.1-2.3-1.4
	h12.4c-0.8,0.3-1.6,0.8-2.3,1.4c-0.5,0.6-0.7,1.4-0.7,2.1v16.3c0,0.6,0.4,1.2,1.2,1.8c0.8,0.6,1.7,1,2.7,1.2H554
	c0.9-0.2,1.7-0.5,2.4-1.1C557,561.7,557.4,561,557.4,560.3z M591.5,552.7c0-2.2,0.7-4.4,1.9-6.2c1.7-2.2,4.1-3.9,6.8-4.7
	c4.2-1.4,8.5-2,12.9-1.8c4,0,7.9,0.3,11.8,0.8v4.1c-4-1.3-8.1-1.9-12.3-1.9c-2.6-0.1-5.1,0.3-7.5,1.1c-1.8,0.6-3.4,1.6-4.6,3
	c-1,1.1-1.5,2.5-1.5,4c0,1.7,0.7,3.3,1.9,4.6c1.5,1.6,3.4,2.9,5.5,3.6c2.7,1,5.6,1.4,8.5,1.4h1.3c1.9,0,3.8-0.1,5.7-0.5
	c1.6-0.3,3.6-0.8,6.1-1.5l-2.5,4.1c-3.4,0.6-6.8,0.9-10.2,0.9c-3.8,0-7.6-0.4-11.3-1.2c-3.1-0.6-6.1-1.9-8.8-3.7
	C593.1,557.4,591.7,555.1,591.5,552.7z M660.5,560.8v-17.9h-5c-2.9-0.1-5.7,0.4-8.4,1.4l2-4.3c1.1,0.3,2.3,0.3,3.4,0.3h24.7
	c1.2,0,2.3-0.1,3.5-0.3l-2.5,4.3c-0.5-0.5-1.2-0.9-2-1c-1.1-0.3-2.3-0.4-3.5-0.4h-5.9v17.9c0,0.3,0.1,0.6,0.4,0.9
	c0.2,0.2,0.4,0.4,0.7,0.6c0.4,0.2,0.8,0.4,1.2,0.5l1.2,0.5h-12.8C659.6,562.7,660.5,561.9,660.5,560.8z"/>
<polygon class="st0" points="70.8,135 79.5,66.7 133.5,119.1 70.8,135 "/>
<polygon class="st1" points="83.6,210.9 93.4,153.6 264.7,110.6 133.3,199 190.7,299.6 83.6,210.9 "/>
<polygon class="st2" points="26.7,184.8 -55.2,130.8 68.2,155.8 62.8,197.7 -30.8,304.1 26.7,184.8 "/>
<polygon class="st3" points="1.5,279.2 83.1,227.4 193.2,316.9 79.9,260.8 1.5,279.2 "/>
</svg>
