<svg xmlns="http://www.w3.org/2000/svg" viewBox="0 0 818.39 180.44"><defs><style>.cls-1{fill:#00205c;}.cls-2{fill:#fff;}.cls-3{fill:#ce0e2d;}.cls-4{fill:#8dc63f;stroke:#231f20;stroke-width:0.5px;}</style></defs><g id="Layer_1_larger" data-name="Layer 1 larger"><path class="cls-1" d="M80.34,174.84c-9.24,0-16-6-16-15v-34c0-9.06,6.77-15,16-15,9.61,0,15.28,5.58,15.28,15v5.86c0,.82-.18,1.28-7,1.28-4.21,0-6,.27-6-.91v-5.31c0-.55-.18-2.66-2.29-2.66-2.74,0-2.28,2.93-2.28,5.49v26.54c0,2.56,0,5.49,2.28,5.49s2.29-2.19,2.29-2.65V154.8c0-1.74.55-1.56,7-1.56,5.4,0,6,.28,6,2.66v3.93C95.62,169.26,90,174.84,80.34,174.84Z" transform="translate(-64.33 -41.6)"/><path class="cls-1" d="M124.62,174.84h-21.5c-1.47,0-3,.18-3.66-.37s-.55-2-.55-3.11V113.53a2.34,2.34,0,0,1,.64-2c.55-.73,1.19-.73,2.1-.73h22.79c1.09,0,1.09.27,1.09,5.85,0,6.59,0,7-1.18,7h-9.16c-.73,0-1.83.09-2.1.45-.46.64-.46.55-.46,1.74v6.68c0,.83-.18,1.83.55,2.38a3.06,3.06,0,0,0,2,.37h4.49c1.1,0,1,.36,1,6.5,0,5.85.18,6.22-1,6.22h-4.12a7.17,7.17,0,0,0-2.29.27c-.82.55-.64,1.47-.64,2.66v7.59c0,1.19,0,2.93.46,3.2a7.22,7.22,0,0,0,2.74.37h8.7c1.1,0,1.19.18,1.19,6.13C125.72,174.75,125.63,174.84,124.62,174.84Z" transform="translate(-64.33 -41.6)"/><path class="cls-1" d="M157.1,174.84c-3.38,0-4.21.18-4.76-1.37-3.38-9.61-4-12.72-7.5-24.43-.46-1.56-1.19-4-1.92-4s-.64,2.74-.64,4.57v23.7c0,1.47-.09,1.56-7.14,1.56-6.59,0-6.22-.09-6.22-1.37V112.52c0-1.64-.28-1.64,6.22-1.64,5.22,0,5.58.09,6,1.74,1,3.56,4.58,15.64,7.32,23.79.27.91.64,2.47,1.28,2.47.83,0,.73-2.38.73-3.75V112.52c0-1.64.1-1.64,6.59-1.64,7.14,0,6.77.09,6.77,1.74v60.66C163.87,174.75,164.15,174.84,157.1,174.84Z" transform="translate(-64.33 -41.6)"/><path class="cls-1" d="M198.13,123.6H194.2a17.17,17.17,0,0,0-3.48.18c-.83.64-.64,2.2-.64,3.39v46.76c0,.82-.55.91-7.32.91-5.95,0-6.5,0-6.5-.91V127.17c0-1.19.18-2.75-.64-3.39a16.7,16.7,0,0,0-3.39-.18h-3.38c-1.37,0-1.65-.83-1.65-6.5s.18-6.31,1.28-6.31H198c1.1,0,1.19.64,1.19,5.85C199.23,123.05,199.14,123.6,198.13,123.6Z" transform="translate(-64.33 -41.6)"/><path class="cls-1" d="M227.58,174.84c-6.58,0-6.77.09-6.77-1.83V154.16c0-2.56.37-5.49-2.29-5.49-2.1,0-2.28-.09-2.28,1.1v23.06c0,2-1.1,2-7.42,2-5.39,0-6.31.09-6.31-2.74V113.53c0-2.74.09-2.74,2.75-2.74h12.9c9.61,0,16,5.58,16,15v7.32c0,8.24-6.77,8.79-6.77,9.25s7.14-.19,7.14,7.68v23.43C234.54,174.93,234,174.84,227.58,174.84Zm-7.13-45.3c0-2.56.36-5.49-2.29-5.49-1.65,0-1.92-.09-1.92,1.1v10.07c0,1.19.36,1.1,1.92,1.1,2,0,2.29-2,2.29-3Z" transform="translate(-64.33 -41.6)"/><path class="cls-1" d="M263.81,174.84c-2.66,0-5.68.18-5.86-1.1-.73-5.12-1-7.41-1.74-12.44-.09-.92-.91-.74-2.38-.74-1.74,0-2.65-.18-2.74.74-.55,5.12-.83,7.32-1.28,12.63-.09,1-3.3.91-6.23.91-1.37,0-6.67,0-6.58-.82,3.93-24.07,6.22-38.34,9.7-62,.18-1.28,4.94-1.38,7-1.38,2.29,0,6.41.1,6.68,1.65,3.94,23.43,6.41,37.61,10.71,61.59C271.22,174.93,266.28,174.84,263.81,174.84Zm-9.24-39.07c0-.46-.28-3.94-.92-3.94s-.82,4-.82,4.4c-.37,6.58-.74,9.33-1,14.91,0,.73.18.73,1.74.73,1.28,0,2,.28,2-.64C255.3,145.74,255,143,254.57,135.77Z" transform="translate(-64.33 -41.6)"/><path class="cls-1" d="M299.62,174.84h-21.5c-1.47,0-3,.18-3.66-.37s-.55-2-.55-3.11V112.62c0-1.29,0-1.83,6.4-1.83,7,0,7.32.27,7.32,1.83v45.84c0,1.19,0,2.93.46,3.2a7.25,7.25,0,0,0,2.75.37h8.69c1.1,0,1.19.18,1.19,6.13C300.72,174.75,300.63,174.84,299.62,174.84Z" transform="translate(-64.33 -41.6)"/><path class="cls-1" d="M353,123.6H349a17.23,17.23,0,0,0-3.48.18c-.82.64-.64,2.2-.64,3.39v46.76c0,.82-.55.91-7.32.91-5.95,0-6.5,0-6.5-.91V127.17c0-1.19.19-2.75-.64-3.39a16.54,16.54,0,0,0-3.38-.18h-3.39c-1.37,0-1.65-.83-1.65-6.5s.19-6.31,1.29-6.31h29.55c1.1,0,1.19.64,1.19,5.85C354.06,123.05,354,123.6,353,123.6Z" transform="translate(-64.33 -41.6)"/><path class="cls-1" d="M383.61,174.84H362.1c-1.46,0-3,.18-3.66-.37s-.55-2-.55-3.11V113.53a2.37,2.37,0,0,1,.64-2c.55-.73,1.19-.73,2.11-.73h22.78c1.1,0,1.1.27,1.1,5.85,0,6.59,0,7-1.19,7h-9.15c-.73,0-1.83.09-2.1.45-.46.64-.46.55-.46,1.74v6.68c0,.83-.18,1.83.55,2.38a3.06,3.06,0,0,0,2,.37h4.48c1.1,0,1,.36,1,6.5,0,5.85.18,6.22-1,6.22h-4.11a7.12,7.12,0,0,0-2.29.27c-.82.55-.64,1.47-.64,2.66v7.59c0,1.19,0,2.93.46,3.2a7.19,7.19,0,0,0,2.74.37h8.69c1.1,0,1.19.18,1.19,6.13C384.7,174.75,384.61,174.84,383.61,174.84Z" transform="translate(-64.33 -41.6)"/><path class="cls-1" d="M415.46,174.84c-6,0-6.5-.18-7-1.56-.73-2.1-1.55-7.59-2.47-12.07-.18-.74-.45-2.11-.73-2.11-.73,0-.73.82-.91,1.92a89.52,89.52,0,0,1-2.66,12.26c-.46,1.38-.91,1.56-7,1.56s-7.6.09-7-1.46c3-9.25,5.86-18.95,9.34-28.92a7.79,7.79,0,0,0,.64-2.74,10,10,0,0,0-.83-2.57c-3-9-6-17.48-9.33-26.63-.55-1.55.55-1.64,7-1.64,7.14,0,6.87.09,7.14,1.74a92.88,92.88,0,0,0,2.47,11.71c.37,1.1.55,1.83.92,1.83s.82-1,.91-1.47c.73-2.74,1.65-7.59,2.47-12.07.28-1.65,0-1.74,7.14-1.74,6.5,0,7.23.09,6.68,1.64-3.2,9-5.86,17.3-8.78,26.18-.55,1.64-1,2.1-1,2.83a8.59,8.59,0,0,0,.55,2.84c3.48,10.43,6.68,19.67,9.79,29C423.42,174.93,421.41,174.84,415.46,174.84Z" transform="translate(-64.33 -41.6)"/><path class="cls-1" d="M452.32,174.84c-2.65,0-5.67.18-5.85-1.1-.74-5.12-1-7.41-1.74-12.44-.09-.92-.92-.74-2.38-.74-1.74,0-2.66-.18-2.75.74-.55,5.12-.82,7.32-1.28,12.63-.09,1-3.29.91-6.22.91-1.37,0-6.68,0-6.59-.82,3.94-24.07,6.22-38.34,9.7-62,.18-1.28,4.94-1.38,7-1.38,2.29,0,6.41.1,6.68,1.65,3.94,23.43,6.41,37.61,10.71,61.59C459.74,174.93,454.79,174.84,452.32,174.84Zm-9.24-39.07c0-.46-.27-3.94-.92-3.94s-.82,4-.82,4.4c-.36,6.58-.73,9.33-1,14.91,0,.73.19.73,1.74.73,1.28,0,2,.28,2-.64C443.81,145.74,443.54,143,443.08,135.77Z" transform="translate(-64.33 -41.6)"/><path class="cls-1" d="M477.16,174.84c-9.07,0-16-5.67-16-15v-5.12c0-.64,1-.64,6.13-.64s7.6-.09,7.6.46v2.56c0,4.57.18,6,2.29,6,1.92,0,2.28-2.2,2.28-4.49,0-8.6-6.22-11.43-11.25-16.47-5.59-5.58-7.05-8.42-7.05-17.29,0-8.51,7.05-14.09,15.56-14.09,8.69,0,15.55,5.39,15.55,14.09v4.76c0,.55-1.37.36-5.58.36-5.21,0-7.68,0-7.68-.46v-4.11c0-2.11-1.1-3.21-2.29-3.21s-2.29,1.1-2.29,3.11c0,6.14.46,6.69,7.41,12.54,5.22,4.39,11.35,9.15,11.35,22C493.17,169.26,486.76,174.84,477.16,174.84Z" transform="translate(-64.33 -41.6)"/><path class="cls-1" d="M660.25,174.84c-9.25,0-16-6-16-15v-34c0-9.06,6.77-15,16-15,9.6,0,15.28,5.58,15.28,15v5.86c0,.82-.19,1.28-7,1.28-4.21,0-6,.27-6-.91v-5.31c0-.55-.18-2.66-2.28-2.66-2.75,0-2.29,2.93-2.29,5.49v26.54c0,2.56,0,5.49,2.29,5.49s2.28-2.19,2.28-2.65V154.8c0-1.74.55-1.56,7-1.56,5.4,0,6,.28,6,2.66v3.93C675.53,169.26,669.85,174.84,660.25,174.84Z" transform="translate(-64.33 -41.6)"/><path class="cls-1" d="M694.57,174.84c-9.24,0-16-6-16-15v-34c0-9.06,6.78-15,16-15,9.6,0,16,5.58,16,15v34C710.58,169.26,704.17,174.84,694.57,174.84Zm2.28-45.3c0-2.56.37-5.49-2.28-5.49s-2.29,2.93-2.29,5.49v26.54c0,2.56-.46,5.49,2.29,5.49s2.28-2.93,2.28-5.49C696.76,145.74,696.85,139.89,696.85,129.54Z" transform="translate(-64.33 -41.6)"/><path class="cls-1" d="M740.24,174.84h-21.5c-1.47,0-3,.18-3.66-.37s-.55-2-.55-3.11V112.62c0-1.29,0-1.83,6.4-1.83,7,0,7.33.27,7.33,1.83v45.84c0,1.19,0,2.93.45,3.2a7.25,7.25,0,0,0,2.75.37h8.69c1.1,0,1.19.18,1.19,6.13C741.34,174.75,741.25,174.84,740.24,174.84Z" transform="translate(-64.33 -41.6)"/><path class="cls-1" d="M770.74,174.84h-21.5c-1.47,0-3,.18-3.66-.37s-.55-2-.55-3.11V112.62c0-1.29,0-1.83,6.4-1.83,7,0,7.32.27,7.32,1.83v45.84c0,1.19,0,2.93.46,3.2A7.22,7.22,0,0,0,762,162h8.7c1.1,0,1.19.18,1.19,6.13C771.84,174.75,771.75,174.84,770.74,174.84Z" transform="translate(-64.33 -41.6)"/><path class="cls-1" d="M801.24,174.84H779.73c-1.46,0-3,.18-3.66-.37s-.55-2-.55-3.11V113.53a2.34,2.34,0,0,1,.64-2c.55-.73,1.19-.73,2.11-.73h22.78c1.1,0,1.1.27,1.1,5.85,0,6.59,0,7-1.19,7h-9.15c-.73,0-1.83.09-2.11.45-.45.64-.45.55-.45,1.74v6.68c0,.83-.19,1.83.55,2.38a3.06,3.06,0,0,0,2,.37h4.48c1.1,0,1,.36,1,6.5,0,5.85.18,6.22-1,6.22h-4.12a7.05,7.05,0,0,0-2.28.27c-.83.55-.64,1.47-.64,2.66v7.59c0,1.19,0,2.93.45,3.2a7.25,7.25,0,0,0,2.75.37h8.69c1.1,0,1.19.18,1.19,6.13C802.33,174.75,802.24,174.84,801.24,174.84Z" transform="translate(-64.33 -41.6)"/><path class="cls-1" d="M836.29,174.84h-1.83c-1.19,0-3-4.76-3.57-4.76-.92,0-1.65,4.76-9.7,4.76-9.24,0-16-6-16-15v-34c0-9.06,6.77-15,16-15,9.61,0,16,5.58,16,15v5.86c0,.82-.91,1.28-7.68,1.28-4.21,0-6,.27-6-.91v-5.31c0-.55-.19-2.66-2.29-2.66-2.75,0-2.29,2.93-2.29,5.49v26.54c0,2.56-.46,5.49,2.29,5.49,2.2,0,2.29-2.19,2.29-2.65v-8.24c0-1.28-.64-1.28-1.28-1.28-1.19,0-1.47-.27-1.47-.91v-5.4c0-1.74,1.47-1.56,7.87-1.56,6.86,0,8.6.55,8.6,2.66v29C837.2,173.56,837.11,174.84,836.29,174.84Z" transform="translate(-64.33 -41.6)"/><path class="cls-1" d="M866.87,174.84H845.36c-1.46,0-3,.18-3.66-.37s-.55-2-.55-3.11V113.53a2.37,2.37,0,0,1,.64-2c.55-.73,1.19-.73,2.11-.73h22.78c1.1,0,1.1.27,1.1,5.85,0,6.59,0,7-1.19,7h-9.15c-.73,0-1.83.09-2.1.45-.46.64-.46.55-.46,1.74v6.68c0,.83-.18,1.83.55,2.38a3.06,3.06,0,0,0,2,.37h4.49c1.09,0,1,.36,1,6.5,0,5.85.19,6.22-1,6.22h-4.12a7.12,7.12,0,0,0-2.29.27c-.82.55-.64,1.47-.64,2.66v7.59c0,1.19,0,2.93.46,3.2a7.22,7.22,0,0,0,2.74.37h8.7c1.09,0,1.19.18,1.19,6.13C868,174.75,867.87,174.84,866.87,174.84Z" transform="translate(-64.33 -41.6)"/></g><g id="SHIELD_WHITE_T_STAR" data-name="SHIELD WHITE T_STAR"><polygon class="cls-1" points="503.54 0 451.14 15.07 451.14 23.81 451.14 34.93 451.14 43.66 503.54 43.66 555.94 43.66 555.94 15.07 503.54 0"/><polygon class="cls-2" points="503.54 180.44 555.93 135.98 555.94 43.66 451.14 43.66 451.14 135.98 503.54 180.44"/><polygon class="cls-3" points="451.14 66.43 451.14 135.98 492.31 170.91 492.31 66.43 451.14 66.43"/><polygon class="cls-3" points="514.77 66.43 514.77 170.91 555.93 135.98 555.93 66.43 514.77 66.43"/><polygon class="cls-2" points="503.54 6.61 507.32 18.24 519.55 18.24 509.65 25.43 513.43 37.06 503.54 29.87 493.64 37.06 497.43 25.43 487.52 18.24 499.76 18.24 503.54 6.61"/><path class="cls-4" d="M567.87,222" transform="translate(-64.33 -41.6)"/><path class="cls-4" d="M567.87,222" transform="translate(-64.33 -41.6)"/></g><g id="Layer_1" data-name="Layer 1"><path class="cls-1" d="M881.27,173.07a4.94,4.94,0,0,1-7,0,4.81,4.81,0,0,1-1.43-3.51,4.95,4.95,0,1,1,8.44,3.51Zm-6.51-6.51a4.09,4.09,0,0,0-1.24,3,4.15,4.15,0,0,0,1.23,3,4.24,4.24,0,0,0,6,0,4.3,4.3,0,0,0,0-6,4.23,4.23,0,0,0-6,0Zm2.91.27a4.11,4.11,0,0,1,1.48.2,1.35,1.35,0,0,1,.85,1.37,1.19,1.19,0,0,1-.54,1.08,1.92,1.92,0,0,1-.78.26,1.33,1.33,0,0,1,.93.53,1.49,1.49,0,0,1,.3.84v.4c0,.13,0,.26,0,.4a1,1,0,0,0,.05.29l0,.06h-.9a.11.11,0,0,0,0,0s0,0,0-.06l0-.17v-.43a1.33,1.33,0,0,0-.52-1.25,2.37,2.37,0,0,0-1.06-.17h-.76v2.13h-1v-5.43Zm1,.86a2.39,2.39,0,0,0-1.16-.21h-.82v2h.87a2.58,2.58,0,0,0,.91-.12.83.83,0,0,0,.57-.85A.81.81,0,0,0,878.7,167.69Z" transform="translate(-64.33 -41.6)"/></g></svg>