<?xml version="1.0" encoding="UTF-8"?>
<svg xmlns="http://www.w3.org/2000/svg" xmlns:xlink="http://www.w3.org/1999/xlink" width="123.35pt" height="124.14pt" viewBox="0 0 123.35 124.14" version="1.1">
<defs>
<clipPath id="clip1">
  <path d="M 88 64 L 106 64 L 106 124.140625 L 88 124.140625 Z M 88 64 "/>
</clipPath>
<clipPath id="clip2">
  <path d="M 41 64 L 54 64 L 54 124.140625 L 41 124.140625 Z M 41 64 "/>
</clipPath>
<clipPath id="clip3">
  <path d="M 56 64 L 68 64 L 68 124.140625 L 56 124.140625 Z M 56 64 "/>
</clipPath>
<clipPath id="clip4">
  <path d="M 70 64 L 85 64 L 85 124.140625 L 70 124.140625 Z M 70 64 "/>
</clipPath>
<clipPath id="clip5">
  <path d="M 0 64 L 18 64 L 18 124.140625 L 0 124.140625 Z M 0 64 "/>
</clipPath>
<clipPath id="clip6">
  <path d="M 20 64 L 39 64 L 39 124.140625 L 20 124.140625 Z M 20 64 "/>
</clipPath>
<clipPath id="clip7">
  <path d="M 109 64 L 123.351563 64 L 123.351563 124.140625 L 109 124.140625 Z M 109 64 "/>
</clipPath>
<clipPath id="clip8">
  <path d="M 111 0 L 123.351563 0 L 123.351563 60 L 111 60 Z M 111 0 "/>
</clipPath>
</defs>
<g id="surface1">
<g clip-path="url(#clip1)" clip-rule="nonzero">
<path style=" stroke:none;fill-rule:nonzero;fill:rgb(7.798767%,7.499695%,28.599548%);fill-opacity:1;" d="M 105.96875 90.023438 L 105.96875 116.3125 C 105.96875 121.269531 101.964844 124.085938 97.023438 124.085938 C 92.085938 124.085938 88.082031 121.269531 88.082031 116.3125 L 88.082031 72.566406 C 88.082031 67.609375 92.085938 64.796875 97.023438 64.796875 C 101.964844 64.796875 105.96875 67.609375 105.96875 72.566406 L 105.96875 82.285156 L 101.113281 82.285156 L 101.113281 75.09375 C 101.113281 70.960938 99.28125 69.820313 97.023438 69.820313 C 94.765625 69.820313 92.9375 70.960938 92.9375 75.09375 L 92.9375 113.988281 C 92.9375 118.117188 94.765625 119.261719 97.023438 119.261719 C 99.28125 119.261719 101.113281 118.117188 101.113281 113.988281 L 101.113281 94.945313 L 96.332031 94.945313 L 96.332031 90.023438 L 105.96875 90.023438 "/>
</g>
<path style=" stroke:none;fill-rule:nonzero;fill:rgb(7.798767%,7.499695%,28.599548%);fill-opacity:1;" d="M 0 0.0976563 L 0 59.390625 L 64.453125 0.0976563 Z M 0 0.0976563 "/>
<path style=" stroke:none;fill-rule:nonzero;fill:rgb(79.598999%,12.5%,14.898682%);fill-opacity:1;" d="M 0 59.390625 L 64.453125 59.390625 L 64.453125 0.0976563 Z M 0 59.390625 "/>
<path style=" stroke:none;fill-rule:nonzero;fill:rgb(100%,100%,100%);fill-opacity:1;" d="M 33.578125 37.785156 L 22.085938 46.175781 L 26.511719 32.648438 L 14.980469 24.308594 L 29.210938 24.339844 L 33.578125 10.796875 L 37.949219 24.339844 L 52.179688 24.308594 L 40.648438 32.648438 L 45.074219 46.175781 L 33.578125 37.785156 "/>
<path style=" stroke:none;fill-rule:nonzero;fill:rgb(79.598999%,12.5%,14.898682%);fill-opacity:1;" d="M 73.976563 0.0976563 L 68.148438 0.0976563 L 68.148438 59.390625 L 73.976563 59.390625 L 73.976563 31.609375 L 79.40625 31.609375 L 79.40625 59.390625 L 85.4375 59.390625 L 85.4375 0.0976563 L 79.40625 0.0976563 L 79.40625 25.023438 L 73.976563 25.023438 L 73.976563 0.0976563 "/>
<path style=" stroke:none;fill-rule:nonzero;fill:rgb(79.598999%,12.5%,14.898682%);fill-opacity:1;" d="M 88.714844 0.0976563 L 94.710938 0.0976563 L 94.710938 59.390625 L 88.714844 59.390625 L 88.714844 0.0976563 "/>
<g clip-path="url(#clip2)" clip-rule="nonzero">
<path style=" stroke:none;fill-rule:nonzero;fill:rgb(7.798767%,7.499695%,28.599548%);fill-opacity:1;" d="M 41.265625 64.8125 L 46.667969 64.8125 L 46.667969 117.050781 C 46.667969 117.050781 46.546875 118.097656 47.03125 118.652344 C 47.4375 119.125 48.386719 119.054688 48.386719 119.054688 L 53.03125 119.054688 L 53.03125 124.105469 L 44.738281 124.105469 C 44.738281 124.105469 42.835938 124.445313 41.875 122.984375 C 41.15625 121.894531 41.265625 120.027344 41.265625 120.027344 L 41.265625 64.8125 "/>
</g>
<g clip-path="url(#clip3)" clip-rule="nonzero">
<path style=" stroke:none;fill-rule:nonzero;fill:rgb(7.798767%,7.499695%,28.599548%);fill-opacity:1;" d="M 56.113281 64.8125 L 61.515625 64.8125 L 61.515625 117.050781 C 61.515625 117.050781 61.394531 118.097656 61.878906 118.652344 C 62.285156 119.125 63.234375 119.054688 63.234375 119.054688 L 67.878906 119.054688 L 67.878906 124.105469 L 59.585938 124.105469 C 59.585938 124.105469 57.683594 124.445313 56.722656 122.984375 C 56 121.894531 56.113281 120.027344 56.113281 120.027344 L 56.113281 64.8125 "/>
</g>
<g clip-path="url(#clip4)" clip-rule="nonzero">
<path style=" stroke:none;fill-rule:nonzero;fill:rgb(7.798767%,7.499695%,28.599548%);fill-opacity:1;" d="M 70.585938 68.417969 C 70.585938 68.417969 70.378906 66.507813 71.542969 65.488281 C 72.449219 64.695313 73.277344 64.8125 73.277344 64.8125 L 84.761719 64.8125 L 84.761719 69.371094 L 78.589844 69.371094 C 78.589844 69.371094 77.203125 69.335938 76.707031 69.785156 C 75.914063 70.5 75.984375 71.78125 75.984375 71.78125 L 75.984375 90.019531 L 82.015625 90.019531 L 82.015625 94.945313 L 75.984375 94.945313 L 75.984375 117.050781 C 75.984375 117.050781 75.863281 118.097656 76.347656 118.652344 C 76.757813 119.125 77.703125 119.054688 77.703125 119.054688 L 84.761719 119.054688 L 84.761719 124.105469 L 74.054688 124.105469 C 74.054688 124.105469 72.152344 124.445313 71.191406 122.984375 C 70.472656 121.894531 70.585938 120.027344 70.585938 120.027344 L 70.585938 68.417969 "/>
</g>
<g clip-path="url(#clip5)" clip-rule="nonzero">
<path style=" stroke:none;fill-rule:nonzero;fill:rgb(7.798767%,7.499695%,28.599548%);fill-opacity:1;" d="M 17.941406 100.773438 L 17.941406 116.3125 C 17.941406 121.269531 13.9375 124.085938 9 124.085938 C 4.058594 124.085938 0.0546875 121.269531 0.0546875 116.3125 L 0.0546875 72.566406 C 0.0546875 67.609375 4.058594 64.796875 9 64.796875 C 13.9375 64.796875 17.941406 67.609375 17.941406 72.566406 L 17.941406 82.285156 L 13.085938 82.285156 L 13.085938 75.09375 C 13.085938 70.960938 11.253906 69.820313 8.996094 69.820313 C 6.738281 69.820313 4.910156 70.960938 4.910156 75.09375 L 4.910156 113.988281 C 4.910156 118.117188 6.738281 119.261719 8.996094 119.261719 C 11.253906 119.261719 13.085938 118.117188 13.085938 113.988281 L 13.085938 100.773438 L 17.941406 100.773438 "/>
</g>
<g clip-path="url(#clip6)" clip-rule="nonzero">
<path style=" stroke:none;fill-rule:nonzero;fill:rgb(7.798767%,7.499695%,28.599548%);fill-opacity:1;" d="M 38.441406 116.3125 C 38.441406 121.269531 34.4375 124.085938 29.496094 124.085938 C 24.558594 124.085938 20.554688 121.269531 20.554688 116.3125 L 20.554688 72.566406 C 20.554688 67.609375 24.558594 64.796875 29.496094 64.796875 C 34.4375 64.796875 38.441406 67.609375 38.441406 72.566406 Z M 33.585938 75.09375 C 33.585938 70.960938 31.753906 69.820313 29.496094 69.820313 C 27.238281 69.820313 25.410156 70.960938 25.410156 75.09375 L 25.410156 113.988281 C 25.410156 118.117188 27.238281 119.261719 29.496094 119.261719 C 31.753906 119.261719 33.585938 118.117188 33.585938 113.988281 L 33.585938 75.09375 "/>
</g>
<g clip-path="url(#clip7)" clip-rule="nonzero">
<path style=" stroke:none;fill-rule:nonzero;fill:rgb(7.798767%,7.499695%,28.599548%);fill-opacity:1;" d="M 109.171875 68.417969 C 109.171875 68.417969 108.964844 66.507813 110.128906 65.488281 C 111.035156 64.695313 111.863281 64.8125 111.863281 64.8125 L 123.347656 64.8125 L 123.347656 69.371094 L 117.175781 69.371094 C 117.175781 69.371094 115.789063 69.335938 115.292969 69.785156 C 114.503906 70.5 114.570313 71.78125 114.570313 71.78125 L 114.570313 90.019531 L 120.601563 90.019531 L 120.601563 94.945313 L 114.570313 94.945313 L 114.570313 117.050781 C 114.570313 117.050781 114.453125 118.097656 114.933594 118.652344 C 115.34375 119.125 116.292969 119.054688 116.292969 119.054688 L 123.347656 119.054688 L 123.347656 124.105469 L 112.644531 124.105469 C 112.644531 124.105469 110.738281 124.445313 109.777344 122.984375 C 109.058594 121.894531 109.171875 120.027344 109.171875 120.027344 L 109.171875 68.417969 "/>
</g>
<path style=" stroke:none;fill-rule:nonzero;fill:rgb(79.598999%,12.5%,14.898682%);fill-opacity:1;" d="M 97.789063 -0.00390625 L 103.191406 -0.00390625 L 103.191406 52.238281 C 103.191406 52.238281 103.070313 53.28125 103.554688 53.839844 C 103.964844 54.308594 104.910156 54.242188 104.910156 54.242188 L 109.554688 54.242188 L 109.554688 59.292969 L 101.265625 59.292969 C 101.265625 59.292969 99.359375 59.632813 98.398438 58.171875 C 97.679688 57.078125 97.789063 55.214844 97.789063 55.214844 L 97.789063 -0.00390625 "/>
<g clip-path="url(#clip8)" clip-rule="nonzero">
<path style=" stroke:none;fill-rule:nonzero;fill:rgb(79.598999%,12.5%,14.898682%);fill-opacity:1;" d="M 111.507813 -0.00390625 L 116.90625 -0.00390625 L 116.90625 52.238281 C 116.90625 52.238281 116.789063 53.28125 117.269531 53.839844 C 117.679688 54.308594 118.628906 54.242188 118.628906 54.242188 L 123.273438 54.242188 L 123.273438 59.292969 L 114.980469 59.292969 C 114.980469 59.292969 113.078125 59.632813 112.113281 58.171875 C 111.394531 57.078125 111.507813 55.214844 111.507813 55.214844 L 111.507813 -0.00390625 "/>
</g>
</g>
</svg>
