<svg id="kilgore-logo" data-name="Kilgore College" xmlns="http://www.w3.org/2000/svg" viewBox="0 0 417.63 137.33"><defs><style>.cls-1{fill:#bbbcdf}.cls-2{fill:#21409a}</style></defs><title>Kilgore College</title><path class="cls-1" d="M77.65 43.54l2.52 8.4h7.48l-3.84-12.8-6.16 4.4zM53.02 86.72l1.81-5.17-4.51-3.1-6.25-4.3v8.69l2.19 1.51-2.11 6.04h4.91v7.65l3.96-11.32z"/><path class="cls-1" d="M296.66 300.56v-1.19l-10.45 7.24-4.51 3.12 1.83 5.16 1.23 3.46h6l.06 14.75h5.29a.6.6 0 0 0 .59-.6v-2l-6.37-18 17.23-11.94z" transform="translate(-192.12 -228.25)"/><path class="cls-1" d="M72.06 0L59.65 41.91l9.28-6.12 3.01-10.18v-4.73h6.39L72.06 0"/><path class="cls-1" d="M336.43 280.54l-33.39.87a14.68 14.68 0 0 1 7.26 7 18.86 18.86 0 0 1 1.45 6.34v2.9zm-87.5 53.69l-14.4 11 4.39-12.52h-7.59l-11.49 32.83 31.34-24.05a14.36 14.36 0 0 1-2.25-7.26zm48.28 14.07h-10.66L309 365.41l-6.43-18.15a14.45 14.45 0 0 1-5.36 1.04z" transform="translate(-192.12 -228.25)"/><path class="cls-1" d="M29.25 63.97l-5.39-3.71 5.39.12v-7.16L0 52.56l29.25 20.1v-8.69z"/><path class="cls-2" d="M309.94 298.75v-4A12.77 12.77 0 0 0 297.21 282h-33.76a12.7 12.7 0 0 0-9.68 4.51l-2.9-3.46 31.56-22.54h6.48v-9.57h-23v9.57h3.82l-35.33 23.28v-23.17h4.71v-9.56h-23v9.56h7.13v59.84h-7.13v10.47h23.31v-10.47h-5v-27.57l8-4.73 8.37 9.93v35.67a12.76 12.76 0 0 0 12.72 12.72h33.76A12.76 12.76 0 0 0 310 333.76v-5.21h-11.52v3.95a2.42 2.42 0 0 1-2.41 2.41H264.6a2.41 2.41 0 0 1-2.41-2.41v-20.83l7.17 8.49h-3.76v10.48h23.31v-10.48H282l-19.79-23.61V296a2.41 2.41 0 0 1 2.41-2.41h31.47a2.42 2.42 0 0 1 2.41 2.41v2.76zM367 352.66a23.83 23.83 0 0 1 0-47.66v.12a24.24 24.24 0 0 1 16.89 7l-6.73 6.73a13.86 13.86 0 0 0-10.1-4.19 13.61 13.61 0 0 0-10.06 4.16 14.28 14.28 0 0 0 0 20.18 14.29 14.29 0 0 0 20.21 0l6.73 6.73a23.7 23.7 0 0 1-16.94 6.93z" transform="translate(-192.12 -228.25)"/><path class="cls-2" d="M423.33 312a23.7 23.7 0 1 1-16.84-7 23 23 0 0 1 16.84 7zm-26.94 6.7a14.27 14.27 0 0 0 0 20.22 14.3 14.3 0 1 0 0-20.22zm47.41-13.31V343h18.87v9.38h-28.31v-46.99zm32.39 0V343h18.87v9.38h-28.31v-46.99zm51.25-.11v9.4h-18.87v9.47h14.16v9.41h-14.16V343h18.87v9.38h-28.3v-47.1zm26.16-.18a24 24 0 0 1 16.86 7l-6.73 6.73a13.88 13.88 0 0 0-10.07-4.22 14.32 14.32 0 0 0 0 28.63 14.24 14.24 0 0 0 12.87-8.24h-13.4v-9h24.12c.67 8.78-2.21 15.15-6.85 19.75a23.06 23.06 0 0 1-16.83 7 23.81 23.81 0 0 1-23.8-23.79 23.11 23.11 0 0 1 7-16.87 22.81 22.81 0 0 1 16.81-7zm56.12.18v9.4h-18.87v9.47H605v9.41h-14.15V343h18.87v9.38h-28.31v-47.1zm-256.16-63.13v22.11l12.8-22.11H378l-14.79 25.39 17.18 24.59h-12.26l-14.57-21v21h-10v-50zm31.13 0h10v50h-10zm26.31 0v40h20.09v10h-30.16v-50zm44.81-.31a25.53 25.53 0 0 1 17.95 7.41l-7.16 7.16a14.81 14.81 0 0 0-10.73-4.49 15.24 15.24 0 0 0 0 30.47 15.13 15.13 0 0 0 13.7-8.74h-14.26v-9.58H481c.72 9.34-2.35 16.12-7.28 21a24.55 24.55 0 0 1-17.92 7.41 25.35 25.35 0 0 1-25.33-25.33 24.6 24.6 0 0 1 7.44-18 24.21 24.21 0 0 1 17.89-7.47zm71.03 7.38a25.23 25.23 0 1 1-17.92-7.47 24.47 24.47 0 0 1 17.92 7.47zm-28.68 7.13a15.21 15.21 0 0 0 21.49 21.52 15.21 15.21 0 1 0-21.49-21.52zm40.43-14.2h16.31a18.33 18.33 0 0 1 13.1 5.09c3 3 4.84 5.81 4.84 11.34v1.31a16.15 16.15 0 0 1-3.17 9.51 11.3 11.3 0 0 1-6 4.62l11.63 18.11H563L548.67 270v22.11h-10zm23.87 16.74a6.73 6.73 0 0 0-2-4.8c-1.31-1.27-3.78-2-6.2-2h-5.65v13.8h7.23a6.87 6.87 0 0 0 6.62-7zM609.74 242v10h-20.09v10.08h15.07v10h-15.07v10.08h20.09v10h-30.13V242z" transform="translate(-192.12 -228.25)"/></svg>