<?xml version="1.0" encoding="utf-8"?>
<!-- Generator: Adobe Illustrator 23.0.1, SVG Export Plug-In . SVG Version: 6.00 Build 0)  -->
<svg version="1.1" xmlns="http://www.w3.org/2000/svg" xmlns:xlink="http://www.w3.org/1999/xlink" x="0px" y="0px"
	 viewBox="0 0 743 134" style="enable-background:new 0 0 743 134;" xml:space="preserve">
<style type="text/css">
	.st0{fill:#FFFFFF;}
	.st1{fill:#92278F;}
	.st2{fill:#008752;}
</style>
<g id="Layer_2">
	<rect class="st0" width="743" height="134"/>
</g>
<g id="Layer_1">
	<g>
		<g>
			<g>
				<path d="M151.4,63.8c1.1,0,2-0.1,2.7-0.2c0.7-0.1,1.2-0.4,1.6-0.8c0.4-0.4,0.6-1,0.8-1.8c0.1-0.8,0.2-1.8,0.2-3V30.9
					c0-1.2-0.1-2.2-0.2-3c-0.1-0.8-0.4-1.4-0.8-1.8c-0.4-0.4-0.9-0.7-1.6-0.9c-0.7-0.1-1.6-0.2-2.7-0.2v-1.6h16.3
					c1.9,0,3.8,0.2,5.7,0.5s3.6,0.9,5.2,1.7c1.5,0.8,2.8,1.9,3.8,3.2c1,1.4,1.5,3.1,1.5,5.2c0,2-0.3,3.7-0.8,4.9
					c-0.5,1.3-1.2,2.3-2.1,3.1c-0.9,0.8-1.9,1.4-3,1.8c-1.2,0.4-2.4,0.8-3.6,1l7.5,13.3c0.5,1,1,1.9,1.5,2.5
					c0.4,0.7,0.9,1.3,1.4,1.7c0.5,0.5,1,0.8,1.5,1s1.2,0.3,2.1,0.3v1.6h-9.6l-11.1-19.5h-3.8V58c0,1.2,0.1,2.2,0.2,3
					c0.1,0.8,0.4,1.4,0.8,1.8c0.4,0.4,0.9,0.7,1.6,0.8c0.7,0.1,1.6,0.2,2.7,0.2v1.6h-17.6v-1.6H151.4z M163.7,43h3.8
					c2.9,0,5.1-0.6,6.7-1.9c1.6-1.3,2.4-3.4,2.4-6.3c0-1.7-0.2-3.1-0.7-4.2s-1.1-2-1.9-2.6c-0.8-0.7-1.7-1.1-2.8-1.4
					s-2.3-0.4-3.5-0.4c-0.9,0-1.6,0.1-2.1,0.2c-0.5,0.1-0.9,0.4-1.2,0.7c-0.3,0.4-0.5,0.8-0.5,1.4c-0.1,0.6-0.1,1.3-0.1,2.2
					L163.7,43L163.7,43z"/>
				<path d="M190.3,64c0.9,0,1.7-0.1,2.3-0.3s1.1-0.4,1.4-0.9c0.4-0.4,0.6-1,0.8-1.7c0.1-0.7,0.2-1.6,0.2-2.7V43.7
					c0-1.1-0.1-2-0.4-2.7c-0.3-0.6-0.6-1.2-1-1.5c-0.4-0.4-0.9-0.6-1.5-0.7s-1.2-0.2-1.8-0.2v-1.4l11.1-1.5v22.7
					c0,1.1,0.1,2,0.2,2.7c0.1,0.7,0.4,1.3,0.8,1.7c0.4,0.4,0.8,0.7,1.4,0.9c0.6,0.2,1.4,0.3,2.3,0.3v1.4h-15.8V64z M195.5,29.5
					c-0.8-0.8-1.1-1.7-1.1-2.8c0-1.1,0.4-2,1.1-2.8c0.8-0.8,1.7-1.1,2.8-1.1s2,0.4,2.8,1.1c0.8,0.8,1.2,1.7,1.2,2.8
					c0,1.1-0.4,2.1-1.2,2.8c-0.8,0.8-1.7,1.1-2.8,1.1C197.2,30.7,196.3,30.3,195.5,29.5z"/>
				<path d="M231,64.5c-0.8,0.4-1.9,0.7-3.2,1s-3,0.5-4.8,0.5c-5,0-8.8-1.4-11.2-4.3c-2.4-2.9-3.6-6.9-3.6-12.1
					c0-1.9,0.2-3.7,0.7-5.3c0.5-1.7,1.2-3.1,2.2-4.4c1-1.3,2.3-2.3,4-3c1.6-0.7,3.6-1.1,6-1.1c1.2,0,2.4,0.1,3.7,0.4
					c1.2,0.3,2.3,0.7,3.3,1.3s1.8,1.2,2.4,2c0.6,0.8,0.9,1.7,0.9,2.7c0,1.2-0.4,2-1.2,2.6c-0.8,0.5-1.7,0.8-2.6,0.8
					c-1,0-1.7-0.2-2.2-0.7s-0.8-1-1-1.6c-0.2-0.6-0.3-1.3-0.4-1.9c0-0.6-0.1-1.1-0.3-1.4c-0.3-1-0.8-1.6-1.3-1.8s-1.1-0.3-1.7-0.3
					c-2,0-3.4,0.9-4.2,2.7s-1.3,4.4-1.3,7.6c0,1.6,0.2,3.3,0.5,5s0.9,3.3,1.6,4.8c0.8,1.5,1.8,2.7,3.2,3.7c1.3,1,3,1.4,5.1,1.4
					c1.1,0,2.2-0.1,3.2-0.3s1.8-0.4,2.4-0.6v2.3H231z"/>
				<path d="M234.6,64c0.9,0,1.7-0.1,2.3-0.3s1.1-0.4,1.4-0.9c0.4-0.4,0.6-1,0.8-1.7c0.1-0.7,0.2-1.6,0.2-2.7v-29
					c0-1.1-0.1-2-0.4-2.7c-0.3-0.7-0.6-1.2-1.1-1.5c-0.4-0.4-0.9-0.6-1.5-0.7s-1.1-0.2-1.7-0.2v-1.4l11.1-1.5v21.7h0.1
					c0.4-0.6,0.8-1.4,1.4-2.2c0.5-0.9,1.2-1.7,2-2.5s1.8-1.4,2.9-2c1.1-0.5,2.4-0.8,3.9-0.8c1.6,0,2.9,0.2,3.9,0.6
					c1,0.4,1.8,1,2.3,1.8c0.6,0.8,0.9,1.6,1.1,2.7c0.2,1,0.3,2.1,0.3,3.3v14.4c0,1.1,0.1,2,0.2,2.7c0.1,0.7,0.4,1.3,0.8,1.7
					s0.8,0.7,1.4,0.9c0.6,0.2,1.4,0.3,2.3,0.3v1.4h-15.8V64c0.9,0,1.7-0.1,2.3-0.3s1.1-0.4,1.4-0.9c0.4-0.4,0.6-1,0.8-1.7
					c0.1-0.7,0.2-1.6,0.2-2.7v-9.3c0-1.9-0.1-3.5-0.2-4.7c-0.1-1.3-0.3-2.2-0.7-3c-0.3-0.7-0.7-1.2-1.3-1.5c-0.5-0.3-1.2-0.4-2-0.4
					c-0.9,0-1.8,0.4-2.7,1.1s-1.7,1.6-2.5,2.7c-0.7,1.1-1.3,2.2-1.8,3.4s-0.7,2.3-0.7,3.3v8.4c0,1.1,0.1,2,0.2,2.7
					c0.1,0.7,0.4,1.3,0.8,1.7c0.4,0.4,0.8,0.7,1.4,0.9c0.6,0.2,1.4,0.3,2.3,0.3v1.4h-15.8V64H234.6z"/>
				<path d="M270,64c0.9,0,1.7-0.1,2.3-0.3c0.6-0.2,1.1-0.4,1.5-0.9c0.4-0.4,0.6-1,0.8-1.7c0.1-0.7,0.2-1.6,0.2-2.7v-29
					c0-1.1-0.1-2-0.4-2.7c-0.3-0.7-0.6-1.2-1-1.5c-0.4-0.4-0.9-0.6-1.5-0.7s-1.2-0.2-1.8-0.2v-1.4l11.1-1.5v36.9
					c0,1.1,0.1,2,0.2,2.7s0.4,1.3,0.8,1.7s0.8,0.7,1.4,0.9s1.4,0.3,2.3,0.3v1.4H270V64z"/>
				<path d="M317.8,64.9c-1.1,0.3-2.1,0.6-3.1,0.8c-1,0.2-2.2,0.3-3.5,0.3c-1,0-1.7-0.1-2.3-0.4c-0.6-0.3-1.1-0.6-1.4-1
					c-0.4-0.4-0.6-0.9-0.8-1.4c-0.2-0.5-0.3-1-0.4-1.5c-0.3,0.3-0.7,0.8-1.2,1.3s-1.1,1-1.8,1.4c-0.7,0.4-1.5,0.8-2.5,1.1
					c-0.9,0.3-2,0.5-3.1,0.5s-2.1-0.2-3.1-0.5c-1-0.4-1.9-0.9-2.6-1.5c-0.8-0.7-1.4-1.4-1.8-2.3c-0.5-0.9-0.7-1.8-0.7-2.8
					c0-1.5,0.3-2.7,1-3.7c0.6-1,1.5-1.9,2.5-2.6c1-0.7,2.2-1.3,3.5-1.7s2.5-0.7,3.8-0.9c1.2-0.2,2.4-0.4,3.5-0.4
					c1.1-0.1,1.9-0.1,2.6-0.2v-3.1c0-0.8,0-1.7-0.1-2.7c0-1-0.2-1.9-0.5-2.7c-0.3-0.8-0.7-1.5-1.3-2c-0.6-0.5-1.4-0.8-2.5-0.8
					s-1.8,0.2-2.3,0.6c-0.5,0.4-0.9,0.8-1.1,1.4s-0.4,1.2-0.6,1.8c-0.1,0.7-0.3,1.3-0.5,1.8s-0.5,1-1,1.4s-1.2,0.6-2.1,0.6
					s-1.7-0.3-2.5-0.8s-1.1-1.3-1.1-2.4c0-1.1,0.4-2.1,1.1-2.9s1.6-1.5,2.7-2s2.4-0.9,3.7-1.2c1.4-0.3,2.7-0.4,4-0.4
					c2,0,3.6,0.2,5,0.6c1.3,0.4,2.4,1,3.2,1.9c0.8,0.8,1.4,1.9,1.7,3.2c0.3,1.3,0.5,2.9,0.5,4.7v12.5c0,1.9,0.2,3.3,0.6,4.1
					s1.2,1.2,2.2,1.2c0.4,0,0.8-0.1,1.2-0.2c0.4-0.1,0.8-0.3,1.2-0.4v1.3H317.8z M306.2,51.6c-0.6,0-1.4,0.1-2.6,0.2
					s-2.2,0.4-3.3,0.8c-1.1,0.4-2,1.1-2.9,1.9c-0.8,0.8-1.2,2-1.2,3.5c0,1.2,0.3,2.3,1,3.2c0.6,0.9,1.6,1.3,3,1.3
					c1.8,0,3.3-0.6,4.3-1.9c1.1-1.2,1.6-3,1.6-5.3v-3.7H306.2z"/>
				<path d="M319.6,64c0.9,0,1.7-0.1,2.3-0.3c0.6-0.2,1.1-0.4,1.4-0.9c0.4-0.4,0.6-1,0.8-1.7c0.1-0.7,0.2-1.6,0.2-2.7V43.7
					c0-1.1-0.1-2-0.4-2.7c-0.3-0.6-0.6-1.2-1-1.5c-0.4-0.4-0.9-0.6-1.5-0.7s-1.2-0.2-1.8-0.2v-1.4l11.1-1.5v7.4h0.1
					c0.4-0.6,0.8-1.4,1.4-2.2c0.5-0.9,1.2-1.7,2.1-2.5c0.8-0.8,1.8-1.4,2.9-2c1.1-0.5,2.4-0.8,3.9-0.8c1.6,0,2.9,0.2,3.9,0.6
					c1,0.4,1.8,1,2.3,1.8c0.5,0.8,0.9,1.6,1.1,2.7c0.2,1,0.3,2.1,0.3,3.3v14.4c0,1.1,0.1,2,0.2,2.7s0.4,1.3,0.8,1.7s0.8,0.7,1.4,0.9
					s1.4,0.3,2.3,0.3v1.4h-15.8V64c0.9,0,1.7-0.1,2.3-0.3c0.6-0.2,1.1-0.4,1.4-0.9c0.4-0.4,0.6-1,0.8-1.7c0.1-0.7,0.2-1.6,0.2-2.7
					v-9.3c0-1.9-0.1-3.5-0.2-4.7c-0.1-1.3-0.3-2.2-0.7-3c-0.3-0.7-0.7-1.2-1.3-1.5c-0.5-0.3-1.2-0.4-1.9-0.4c-0.9,0-1.8,0.4-2.7,1.1
					c-0.9,0.7-1.7,1.6-2.5,2.7c-0.7,1.1-1.3,2.2-1.8,3.4s-0.7,2.3-0.7,3.3v8.4c0,1.1,0.1,2,0.2,2.7s0.4,1.3,0.8,1.7s0.8,0.7,1.4,0.9
					s1.4,0.3,2.3,0.3v1.4h-15.8V64H319.6z"/>
				<path d="M376.9,60.9h-0.1c-0.3,0.5-0.7,1.1-1.2,1.7c-0.5,0.6-1.1,1.2-1.8,1.7c-0.7,0.5-1.5,1-2.6,1.3c-1,0.3-2.2,0.5-3.6,0.5
					c-2.1,0-3.9-0.4-5.3-1.3c-1.4-0.9-2.5-2-3.3-3.5c-0.8-1.4-1.3-3-1.6-4.9c-0.3-1.8-0.4-3.6-0.4-5.5c0-2.1,0.2-4.1,0.6-6
					c0.4-1.8,1.1-3.4,2-4.8s2.2-2.4,3.7-3.2c1.5-0.8,3.4-1.2,5.5-1.2c1.2,0,2.2,0.1,3,0.4c0.8,0.3,1.6,0.7,2.2,1.1
					c0.6,0.5,1.2,1,1.6,1.5s0.8,1,1.1,1.5h0.1V29.5c0-1.1-0.1-2-0.4-2.7c-0.3-0.7-0.6-1.2-1-1.5c-0.4-0.4-0.9-0.6-1.5-0.7
					s-1.2-0.2-1.8-0.2V23l11.1-1.5V58c0,1.1,0.1,2,0.4,2.7s0.6,1.2,1,1.5c0.4,0.4,0.9,0.6,1.5,0.7c0.6,0.1,1.2,0.2,1.8,0.2v1.4
					l-11,1.5V60.9z M364.2,55.4c0.2,1.4,0.6,2.6,1.1,3.7c0.5,1,1.2,1.9,2,2.5c0.9,0.6,1.9,0.9,3.2,0.9c1.3,0,2.4-0.3,3.2-0.9
					c0.8-0.6,1.5-1.5,2-2.5c0.5-1.1,0.8-2.3,0.9-3.7c0.2-1.4,0.3-2.8,0.3-4.3c0-1.9-0.1-3.6-0.3-5.1c-0.2-1.5-0.6-2.7-1-3.8
					c-0.5-1-1.1-1.8-2-2.4c-0.8-0.5-1.8-0.8-3.1-0.8c-1.3,0-2.4,0.4-3.2,1.1c-0.9,0.7-1.5,1.6-2,2.8c-0.5,1.1-0.9,2.4-1.1,3.9
					c-0.2,1.4-0.3,2.9-0.3,4.4C363.9,52.5,364,54.1,364.2,55.4z"/>
				<path d="M438.5,63.6c-0.5,0.3-1.2,0.5-1.9,0.8c-0.7,0.3-1.6,0.5-2.5,0.8c-1,0.2-2.1,0.4-3.3,0.6c-1.3,0.2-2.7,0.3-4.3,0.3
					c-3.4,0-6.3-0.5-8.7-1.5c-2.4-1-4.3-2.5-5.8-4.4s-2.5-4.3-3.2-7.1s-1-6-1-9.5c0-2.9,0.3-5.5,0.8-8.1c0.5-2.5,1.4-4.7,2.7-6.6
					c1.3-1.9,3.1-3.4,5.4-4.5s5.2-1.6,8.7-1.6c2.8,0,5.2,0.2,7.3,0.6c2.1,0.4,3.8,0.8,5.3,1.3l0.4,10.5h-1.8
					c-0.1-0.8-0.4-1.7-0.8-2.8c-0.5-1.1-1.1-2.1-2-3.1s-1.9-1.8-3.2-2.5c-1.3-0.7-2.8-1-4.5-1c-2.3,0-4.2,0.6-5.6,1.7
					s-2.5,2.5-3.3,4.3c-0.8,1.7-1.3,3.6-1.5,5.7c-0.3,2.1-0.4,4.1-0.4,6.1c0,2.5,0.2,4.9,0.7,7.1c0.5,2.3,1.2,4.3,2.1,6
					c1,1.7,2.2,3.1,3.8,4.2c1.6,1,3.4,1.5,5.6,1.5c1.5,0,2.8-0.1,4-0.3c1.1-0.2,2.1-0.5,3-0.8s1.6-0.7,2.3-1
					c0.7-0.4,1.2-0.7,1.7-1.1L438.5,63.6L438.5,63.6z"/>
				<path d="M447.1,62.3c-2.2-2.5-3.3-6.3-3.3-11.4s1.1-8.9,3.3-11.4c2.2-2.5,5.6-3.7,10.2-3.7s8,1.2,10.2,3.7s3.3,6.3,3.3,11.4
					s-1.1,8.9-3.3,11.4c-2.2,2.5-5.6,3.7-10.2,3.7S449.3,64.8,447.1,62.3z M450.9,55.8c0.2,1.6,0.5,2.9,1,4.1c0.5,1.2,1.2,2.2,2,2.9
					c0.9,0.7,2,1.1,3.4,1.1s2.5-0.4,3.4-1.1c0.9-0.7,1.5-1.7,2-2.9s0.8-2.6,1-4.1s0.3-3.2,0.3-4.9s-0.1-3.3-0.3-4.8
					c-0.2-1.6-0.5-2.9-1-4.1c-0.5-1.2-1.2-2.2-2-2.9s-2-1.1-3.4-1.1s-2.5,0.4-3.4,1.1s-1.5,1.7-2,2.9c-0.5,1.2-0.8,2.6-1,4.1
					c-0.2,1.6-0.3,3.2-0.3,4.8C450.7,52.6,450.8,54.2,450.9,55.8z"/>
				<path d="M474.7,64c0.9,0,1.7-0.1,2.3-0.3c0.6-0.2,1.1-0.4,1.5-0.9c0.4-0.4,0.6-1,0.8-1.7c0.1-0.7,0.2-1.6,0.2-2.7v-29
					c0-1.1-0.1-2-0.4-2.7c-0.3-0.7-0.6-1.2-1-1.5c-0.4-0.4-0.9-0.6-1.5-0.7s-1.2-0.2-1.8-0.2v-1.4l11.1-1.5v36.9
					c0,1.1,0.1,2,0.2,2.7s0.4,1.3,0.8,1.7s0.8,0.7,1.4,0.9s1.4,0.3,2.3,0.3v1.4h-15.8V64H474.7z"/>
				<path d="M492.3,64c0.9,0,1.7-0.1,2.3-0.3c0.6-0.2,1.1-0.4,1.5-0.9c0.4-0.4,0.6-1,0.8-1.7c0.1-0.7,0.2-1.6,0.2-2.7v-29
					c0-1.1-0.1-2-0.4-2.7c-0.3-0.7-0.6-1.2-1-1.5c-0.4-0.4-0.9-0.6-1.5-0.7s-1.2-0.2-1.8-0.2v-1.4l11.1-1.5v36.9
					c0,1.1,0.1,2,0.2,2.7s0.4,1.3,0.8,1.7s0.8,0.7,1.4,0.9s1.4,0.3,2.3,0.3v1.4h-15.8V64H492.3z"/>
				<path d="M533.9,64.4c-0.6,0.2-1.7,0.5-3.2,1c-1.6,0.4-3.4,0.7-5.5,0.7c-4.9,0-8.7-1.4-11.4-4.1c-2.7-2.8-4.1-6.7-4.1-12
					c0-4.8,1.1-8.3,3.4-10.6c2.3-2.3,5.5-3.5,9.8-3.5c2.5,0,4.5,0.4,6,1.1s2.7,1.7,3.5,2.9c0.8,1.2,1.4,2.5,1.6,3.9s0.4,2.8,0.4,4.1
					h-17.8c0,1.6,0.2,3.4,0.5,5.2c0.4,1.8,1,3.5,1.9,5c0.9,1.5,2.1,2.8,3.5,3.8c1.4,1,3.3,1.5,5.5,1.5c1.3,0,2.4-0.1,3.4-0.4
					c1-0.3,1.8-0.5,2.4-0.7L533.9,64.4L533.9,64.4z M528.1,45.1c0-1-0.1-1.9-0.2-2.8c-0.1-0.9-0.4-1.6-0.8-2.3
					c-0.4-0.7-1-1.2-1.7-1.5c-0.7-0.4-1.6-0.6-2.7-0.6c-1.2,0-2.2,0.3-3,0.8s-1.4,1.2-1.8,1.9c-0.4,0.7-0.8,1.5-0.9,2.3
					c-0.2,0.8-0.3,1.5-0.3,2.2H528.1z"/>
				<path d="M558.1,60.3c1.1,0,2.3,0.1,3.4,0.3c1.1,0.2,2.2,0.6,3.1,1.2c0.9,0.6,1.6,1.3,2.2,2.3c0.6,1,0.9,2.2,0.9,3.7
					c0,1.3-0.4,2.5-1.1,3.8c-0.7,1.3-1.8,2.5-3.2,3.5s-3.1,1.9-5.1,2.6c-2,0.6-4.3,1-6.8,1c-2.4,0-4.4-0.3-6-0.8
					c-1.7-0.5-3-1.1-4-1.9c-1-0.7-1.8-1.5-2.3-2.4s-0.7-1.7-0.7-2.4s0.1-1.4,0.4-2c0.3-0.6,0.6-1.2,1-1.7s0.8-0.9,1.3-1.3
					s0.9-0.7,1.3-1.1c-0.4-0.4-0.8-0.8-1.3-1.4c-0.5-0.5-0.7-1.3-0.7-2.3c0-0.8,0.2-1.6,0.5-2.3c0.3-0.8,0.7-1.4,1.1-2.1
					c0.4-0.6,0.8-1.2,1.3-1.7c0.4-0.5,0.7-0.9,0.9-1.2c-0.5-0.3-0.9-0.7-1.4-1.1c-0.5-0.4-1-0.9-1.4-1.6c-0.4-0.6-0.8-1.4-1.1-2.3
					c-0.3-0.9-0.4-2-0.4-3.2c0-3.2,1-5.8,3.1-7.6c2.1-1.8,5-2.7,8.6-2.7c1.5,0,2.8,0.2,3.9,0.6c1.1,0.4,2,0.8,2.9,1.2
					c0.3-0.6,0.6-1.3,1.1-2.1c0.4-0.8,0.9-1.6,1.5-2.3c0.6-0.7,1.2-1.3,1.9-1.8s1.6-0.7,2.5-0.7c1,0,1.8,0.3,2.4,1
					c0.7,0.7,1,1.5,1,2.5s-0.3,1.8-1,2.5c-0.7,0.7-1.5,1-2.4,1c-0.5,0-0.9-0.1-1.2-0.2c-0.3-0.1-0.6-0.3-0.9-0.5
					c-0.2-0.2-0.4-0.3-0.6-0.4c-0.2-0.1-0.4-0.2-0.6-0.2c-0.6,0-1.1,0.3-1.4,0.8c-0.4,0.5-0.7,1.1-0.9,1.5c0.9,0.7,1.7,1.6,2.3,2.7
					c0.7,1.1,1,2.7,1,4.8c0,1.6-0.3,3-0.8,4.2s-1.4,2.3-2.4,3.1c-1,0.9-2.3,1.5-3.7,2c-1.4,0.4-3,0.7-4.6,0.7
					c-1.3,0-2.4-0.1-3.2-0.3s-1.5-0.4-2.1-0.6c-0.3,0.4-0.6,0.9-0.9,1.4s-0.4,1-0.4,1.5c0,0.9,0.3,1.5,0.9,1.8
					c0.6,0.3,1.4,0.5,2.4,0.5C548.4,60.3,558.1,60.3,558.1,60.3z M544.4,66.1c-0.3,0.6-0.6,1.2-0.9,1.7c-0.2,0.5-0.3,1.1-0.3,1.8
					s0.2,1.4,0.5,2.1s0.9,1.5,1.6,2.1c0.7,0.6,1.6,1.2,2.7,1.6c1.1,0.4,2.3,0.6,3.8,0.6s2.9-0.2,4.2-0.6s2.4-0.9,3.3-1.5
					c0.9-0.6,1.6-1.3,2.1-2.1s0.8-1.5,0.8-2.2c0-0.7-0.2-1.2-0.5-1.7s-0.8-0.8-1.3-1.1s-1.2-0.5-1.8-0.6c-0.7-0.1-1.3-0.2-2-0.2
					L544.4,66.1L544.4,66.1z M547.3,51.8c0.7,1.4,2.2,2.1,4.2,2.1c0.9,0,1.7-0.2,2.4-0.6c0.7-0.4,1.2-1,1.6-1.7
					c0.4-0.7,0.7-1.5,0.9-2.5c0.2-0.9,0.3-2,0.3-3.1s-0.1-2.1-0.3-3.1s-0.5-1.9-0.9-2.6c-0.4-0.8-1-1.4-1.6-1.8
					c-0.7-0.4-1.5-0.7-2.5-0.7c-1.1,0-2.1,0.3-2.8,0.8s-1.2,1.2-1.6,2c-0.4,0.8-0.6,1.7-0.8,2.7c-0.1,1-0.2,1.8-0.2,2.6
					C546.2,48.5,546.5,50.4,547.3,51.8z"/>
				<path d="M594.2,64.4c-0.6,0.2-1.7,0.5-3.2,1c-1.6,0.4-3.4,0.7-5.5,0.7c-4.9,0-8.7-1.4-11.4-4.1c-2.7-2.8-4.1-6.7-4.1-12
					c0-4.8,1.1-8.3,3.4-10.6c2.3-2.3,5.5-3.5,9.8-3.5c2.5,0,4.5,0.4,6,1.1s2.7,1.7,3.5,2.9c0.8,1.2,1.4,2.5,1.6,3.9
					c0.3,1.4,0.4,2.8,0.4,4.1h-17.8c0,1.6,0.2,3.4,0.5,5.2c0.4,1.8,1,3.5,1.9,5s2.1,2.8,3.5,3.8c1.5,1,3.3,1.5,5.5,1.5
					c1.3,0,2.4-0.1,3.4-0.4c1-0.3,1.8-0.5,2.4-0.7L594.2,64.4L594.2,64.4z M588.4,45.1c0-1-0.1-1.9-0.2-2.8
					c-0.1-0.9-0.4-1.6-0.8-2.3c-0.4-0.7-1-1.2-1.7-1.5c-0.7-0.4-1.6-0.6-2.7-0.6c-1.2,0-2.2,0.3-3,0.8s-1.4,1.2-1.8,1.9
					c-0.4,0.7-0.8,1.5-0.9,2.3c-0.2,0.8-0.3,1.5-0.3,2.2H588.4z"/>
			</g>
		</g>
		<g>
			<g>
				<path d="M154.9,93h4.3c5.6,0,7.7,2.4,7.7,8.7c0,8.1-4.1,8.8-7.7,8.8h-4.3V93z M157.9,108.4h1.4c3,0,4.4-1.3,4.4-6.7
					c0-4.3-0.7-6.6-4.4-6.6h-1.4V108.4z"/>
				<path d="M175.4,93h3.6l6,17.5h-3.1l-1.5-4.7H174l-1.5,4.7h-3.1L175.4,93z M174.7,103.5h4.9l-2.4-7.7h-0.1L174.7,103.5z"/>
				<path d="M188,93h3v15.2h6.9v2.3H188V93z"/>
				<path d="M201.1,93h3v15.2h6.9v2.3h-9.8L201.1,93L201.1,93z"/>
				<path d="M218.2,93h3.6l6,17.5h-3.1l-1.5-4.7h-6.3l-1.5,4.7h-3.1L218.2,93z M217.5,103.5h4.9l-2.4-7.7h-0.1L217.5,103.5z"/>
				<path d="M240.1,95.9c-1.2-0.5-2.6-1.1-4.4-1.1c-1.5,0-2.6,0.7-2.6,2.2c0,3.1,8.3,3.6,8.3,8.8c0,3.3-2.6,5-6.4,5
					c-2.3,0-4.3-0.6-4.8-0.7V107c1,0.6,2.7,1.7,4.9,1.7c2.3,0,3.1-1.3,3.1-2.4c0-3.8-8.3-4-8.3-9c0-3.1,2.7-4.5,6-4.5
					c2,0,3.7,0.4,4.3,0.5v2.6H240.1z"/>
				<path d="M265.5,109.7c-0.8,0.4-2.7,1-4.8,1c-5.1,0-7.4-3.7-7.4-9.1c0-5.2,1.9-9,6.9-9c4.1,0,5.9,2.4,5.9,5.1h-3.3
					c0-1.4-0.3-3-2.6-3c-3.1,0-3.6,3.7-3.6,6.4c0,4.2,1.2,7.2,4.8,7.2c2,0,3.6-1,4.1-1.3V109.7L265.5,109.7z"/>
				<path d="M268.7,101.7c0-5.1,1.6-9,7.1-9s7.1,3.9,7.1,9s-1.6,9-7.1,9C270.3,110.7,268.7,106.8,268.7,101.7z M275.8,108.6
					c3,0,3.8-3.2,3.8-6.9s-0.8-6.9-3.8-6.9s-3.8,3.2-3.8,6.9S272.8,108.6,275.8,108.6z"/>
				<path d="M299.1,105.1c0,3.9-2.3,5.6-6.1,5.6c-3.6,0-6.1-1.8-6.1-5.6V93h3v12.2c0,2,0.8,3.5,3.1,3.5c2.3,0,3.1-1.5,3.1-3.5V93h3
					V105.1z"/>
				<path d="M304,93h3.7l6.7,12.9h0.1V93h2.7v17.5h-3.3L306.8,97h-0.1v13.5H304V93z"/>
				<path d="M324.7,95.2h-4.4V93H332v2.3h-4.4v15.2h-3V95.2H324.7z"/>
				<path d="M338.6,102.3l-5.8-9.4h3.4l3.9,6.3L344,93h3.4l-5.8,9.4v8.1h-3V102.3z"/>
				<path d="M370.3,109.7c-0.8,0.4-2.7,1-4.8,1c-5.1,0-7.4-3.7-7.4-9.1c0-5.2,1.9-9,6.9-9c4.1,0,5.9,2.4,5.9,5.1h-3.3
					c0-1.4-0.3-3-2.6-3c-3.1,0-3.6,3.7-3.6,6.4c0,4.2,1.2,7.2,4.8,7.2c2,0,3.6-1,4.1-1.3V109.7z"/>
				<path d="M373.5,101.7c0-5.1,1.6-9,7.1-9s7.1,3.9,7.1,9s-1.6,9-7.1,9S373.5,106.8,373.5,101.7z M380.6,108.6c3,0,3.8-3.2,3.8-6.9
					s-0.8-6.9-3.8-6.9s-3.8,3.2-3.8,6.9S377.6,108.6,380.6,108.6z"/>
				<path d="M391.9,93h4.1l4.9,14h0.1l4.9-14h4v17.5h-2.7V96.7h-0.1l-4.8,13.8h-2.7l-4.8-13.8h-0.1v13.8H392L391.9,93L391.9,93z"/>
				<path d="M414.8,93h4.1l4.9,14h0.1l4.9-14h4v17.5H430V96.7l0,0l-4.8,13.8h-2.7l-4.8-13.8h-0.1v13.8h-2.7V93H414.8z"/>
				<path d="M449.7,105.1c0,3.9-2.3,5.6-6.1,5.6c-3.6,0-6.1-1.8-6.1-5.6V93h3v12.2c0,2,0.8,3.5,3.1,3.5c2.3,0,3.1-1.5,3.1-3.5V93h3
					V105.1z"/>
				<path d="M454.5,93h3.7l6.7,12.9h0.1V93h2.7v17.5h-3.3L457.3,97h-0.1v13.5h-2.7L454.5,93L454.5,93z"/>
				<path d="M472.7,93h3v17.5h-3V93z"/>
				<path d="M483.1,95.2h-4.4V93h11.7v2.3H486v15.2h-3L483.1,95.2L483.1,95.2z"/>
				<path d="M497.1,102.3l-5.8-9.4h3.4l3.9,6.3l3.9-6.3h3.4l-5.8,9.4v8.1h-3V102.3z"/>
				<path d="M528.7,109.7c-0.8,0.4-2.7,1-4.8,1c-5.1,0-7.4-3.7-7.4-9.1c0-5.2,1.9-9,6.9-9c4.1,0,5.9,2.4,5.9,5.1H526
					c0-1.4-0.3-3-2.6-3c-3.1,0-3.6,3.7-3.6,6.4c0,4.2,1.2,7.2,4.8,7.2c2,0,3.6-1,4.1-1.3V109.7z"/>
				<path d="M531.9,101.7c0-5.1,1.6-9,7.1-9s7.1,3.9,7.1,9s-1.6,9-7.1,9S531.9,106.8,531.9,101.7z M539,108.6c3,0,3.8-3.2,3.8-6.9
					s-0.8-6.9-3.8-6.9s-3.8,3.2-3.8,6.9S536,108.6,539,108.6z"/>
				<path d="M550.4,93h3v15.2h6.9v2.3h-9.8V93H550.4z"/>
				<path d="M563.4,93h3v15.2h6.9v2.3h-9.8V93H563.4z"/>
				<path d="M576.4,93h10.2v2.3h-7.3v5h6.9v2.3h-6.9v5.7h7.5v2.3h-10.4V93z"/>
				<path d="M603.1,109.1c-0.7,0.5-2.7,1.6-5.5,1.6c-5.2,0-7.5-3.9-7.5-9.1c0-5.6,1.9-9,6.9-9c4.1,0,5.8,2,5.8,4.9h-3.3
					c0-1.3-0.6-2.8-2.5-2.8c-3,0-3.7,3.2-3.7,6.9c0,3.2,0.6,7,4.2,7c1.4,0,2.3-0.4,2.5-0.7v-5.6h-3.3v-2.1h6.3L603.1,109.1
					L603.1,109.1z"/>
				<path d="M607.7,93h10.2v2.3h-7.3v5h6.9v2.3h-6.9v5.7h7.5v2.3h-10.4V93z"/>
				<path d="M630.9,93h4.3c5.6,0,7.7,2.4,7.7,8.7c0,8.1-4.1,8.8-7.7,8.8h-4.3V93z M633.9,108.4h1.4c3,0,4.4-1.3,4.4-6.7
					c0-4.3-0.7-6.6-4.4-6.6h-1.4V108.4z"/>
				<path d="M647.1,93h3v17.5h-3V93z"/>
				<path d="M664.3,95.9c-1.2-0.5-2.6-1.1-4.4-1.1c-1.5,0-2.6,0.7-2.6,2.2c0,3.1,8.3,3.6,8.3,8.8c0,3.3-2.6,5-6.4,5
					c-2.3,0-4.3-0.6-4.8-0.7V107c1,0.6,2.7,1.7,4.9,1.7c2.3,0,3.1-1.3,3.1-2.4c0-3.8-8.3-4-8.3-9c0-3.1,2.7-4.5,6-4.5
					c2,0,3.7,0.4,4.3,0.5L664.3,95.9L664.3,95.9z"/>
				<path d="M672,95.2h-4.4V93h11.7v2.3H675v15.2h-3V95.2z"/>
				<path d="M682.5,93h5.3c3.3,0,5.6,1.2,5.6,4.6c0,2.8-1.7,3.6-3.5,4.1v0.1c2.4,0.5,2.7,2,3.1,3.9l1.1,4.9h-3l-0.8-3.8
					c-0.6-2.8-1-3.7-3.7-3.7h-1.2v7.5h-3V93H682.5z M685.4,100.8h1.2c1.9,0,3.8-0.4,3.8-3c0-1.8-0.9-2.8-2.6-2.8h-2.3v5.8H685.4z"/>
				<path d="M697.8,93h3v17.5h-3V93z"/>
				<path d="M717.1,109.7c-0.8,0.4-2.7,1-4.8,1c-5.1,0-7.4-3.7-7.4-9.1c0-5.2,1.9-9,6.9-9c4.1,0,5.9,2.4,5.9,5.1h-3.3
					c0-1.4-0.3-3-2.6-3c-3.1,0-3.6,3.7-3.6,6.4c0,4.2,1.2,7.2,4.8,7.2c2,0,3.6-1,4.1-1.3L717.1,109.7L717.1,109.7z"/>
				<path d="M723.7,95.2h-4.4V93H731v2.3h-4.4v15.2h-3V95.2H723.7z"/>
			</g>
		</g>
		<g>
			<rect x="11" y="11" class="st0" width="112" height="112"/>
			<polyline class="st1" points="123,71.9 89.5,71.9 89.5,89.7 44.6,89.7 44.6,71.9 11,71.9 11,123 123,123 			"/>
			<polyline class="st2" points="123,62 89.5,62 89.5,44.4 44.6,44.4 44.6,62 11,62 11,11 123,11 			"/>
			<path d="M74.3,84.5V75c0-4-3.1-6.3-4.8-6.3v-0.8c4.6-3.3,1.5-10.2-2-10.2H51.2v-3.2h14.5c11.5,0,11.5,9.6,6.4,13.4v0.8
				c1.7,0,5.6,2.3,5.6,6.3v9.5H74.3"/>
			<path d="M79.4,76.5c0-6-4.3-8.1-5.4-8.1v-0.5c6.2-5.2,2.2-15.1-6.2-15.1H51.2v-3.2h18.9c6.3,0.1,15.8,11.2,6.4,18.4v0.8
				c1.2,0,6.3,2.3,6.3,6.3v9.5h-3.4V76.5"/>
			<path d="M62.8,59.5c2.4,0,4,1.9,4,4.3v18.6h-3.5V64.5c-0.1-0.9-0.8-1.7-1.8-1.7H51.1v-3.3H62.8"/>
			<path d="M61.6,66.1c-0.1-1.6-0.3-2.2-2.1-2.2l0,0h-8.3v3.2l6.1,0.1l0,0c0.7,0,0.9,0.4,0.9,0.9l0,0v14.3h3.5V66.1"/>
		</g>
	</g>
</g>
</svg>
