<?xml version="1.0" encoding="utf-8"?>
<!-- Generator: Adobe Illustrator 21.1.0, SVG Export Plug-In . SVG Version: 6.00 Build 0)  -->
<svg version="1.0" id="Layer_1" xmlns="http://www.w3.org/2000/svg" xmlns:xlink="http://www.w3.org/1999/xlink" x="0px" y="0px"
	 width="250px" height="249.996px" viewBox="0 0 250 249.996" enable-background="new 0 0 250 249.996" xml:space="preserve">
<path d="M184.531,20.925c-0.791-0.297-2.11,0.079-2.54,0.068c-1.395-0.068-1.195-1.917-1.674-2.261
	c0.551,0.161,1.907-1.12,2.804-0.004C183.401,19.062,183.801,20.317,184.531,20.925"/>
<path d="M189.414,23.88c-0.773-0.336-2.118-0.021-2.54-0.057c-1.391-0.129-1.105-1.967-1.567-2.332
	c0.544,0.186,1.96-1.03,2.804,0.129C188.373,21.966,188.713,23.236,189.414,23.88"/>
<path d="M194.146,27.064c-0.755-0.372-2.11-0.118-2.533-0.175c-1.388-0.197-1.009-2.017-1.452-2.407
	c0.533,0.211,2.003-0.934,2.794,0.265C193.198,25.104,193.477,26.388,194.146,27.064"/>
<path d="M198.728,30.47c-0.737-0.408-2.103-0.218-2.522-0.297c-1.377-0.265-0.912-2.064-1.334-2.472
	c0.519,0.236,2.042-0.837,2.776,0.393C197.87,28.467,198.091,29.762,198.728,30.47"/>
<path d="M203.138,34.087c-0.719-0.44-2.089-0.318-2.504-0.415c-1.363-0.329-0.812-2.103-1.22-2.532
	c0.508,0.261,2.082-0.74,2.754,0.526C202.38,32.048,202.537,33.35,203.138,34.087"/>
<path d="M207.377,37.911c-0.694-0.476-2.071-0.415-2.482-0.537c-1.341-0.39-0.715-2.139-1.098-2.586
	c0.497,0.286,2.118-0.64,2.729,0.655C206.715,35.836,206.815,37.145,207.377,37.911"/>
<path d="M211.426,41.93c-0.669-0.508-2.053-0.515-2.454-0.651c-1.324-0.454-0.612-2.171-0.973-2.636
	c0.483,0.308,2.146-0.54,2.69,0.783C210.861,39.826,210.9,41.139,211.426,41.93"/>
<path d="M244.763,130.222c-0.097-0.837-1.048-1.839-1.223-2.225c-0.587-1.27,1.148-1.942,1.234-2.522
	c0.107,0.562,1.871,1.177,1.291,2.486C245.894,128.365,244.971,129.295,244.763,130.222"/>
<path d="M244.388,135.918c-0.064-0.844-0.955-1.885-1.123-2.279c-0.519-1.298,1.234-1.889,1.356-2.465
	c0.075,0.565,1.817,1.263,1.173,2.543C245.607,134.112,244.631,134.999,244.388,135.918"/>
<path d="M243.737,141.587c-0.022-0.844-0.862-1.928-1.012-2.329c-0.461-1.323,1.331-1.828,1.47-2.397
	c0.057,0.565,1.749,1.349,1.048,2.597C245.042,139.842,244.027,140.679,243.737,141.587"/>
<path d="M242.818,147.217c0.021-0.844-0.773-1.967-0.894-2.375c-0.401-1.341,1.409-1.76,1.581-2.321
	c0.029,0.569,1.685,1.427,0.926,2.643C244.205,145.536,243.157,146.327,242.818,147.217"/>
<path d="M241.634,152.802c0.064-0.844-0.68-2.003-0.78-2.414c-0.336-1.363,1.495-1.692,1.688-2.25
	c0.004,0.572,1.613,1.513,0.798,2.69C243.097,151.189,242.016,151.929,241.634,152.802"/>
<path d="M240.181,158.318c0.104-0.837-0.579-2.032-0.662-2.45c-0.268-1.37,1.57-1.617,1.792-2.16
	c-0.029,0.569,1.545,1.585,0.669,2.722C241.723,156.78,240.6,157.463,240.181,158.318"/>
<path d="M238.468,163.761c0.139-0.833-0.476-2.057-0.547-2.479c-0.2-1.384,1.645-1.542,1.899-2.075
	c-0.061,0.572,1.467,1.66,0.533,2.754C240.085,162.298,238.926,162.927,238.468,163.761"/>
<path d="M236.497,169.116c0.179-0.823-0.383-2.075-0.433-2.504c-0.129-1.391,1.72-1.459,1.999-1.978
	c-0.089,0.562,1.384,1.728,0.404,2.772C238.178,167.732,236.994,168.304,236.497,169.116"/>
<path d="M234.272,174.369c0.218-0.816-0.283-2.096-0.311-2.522c-0.064-1.395,1.788-1.374,2.089-1.881
	c-0.107,0.562,1.298,1.792,0.272,2.79C236.018,173.067,234.805,173.582,234.272,174.369"/>
<path d="M231.793,179.513c0.258-0.805-0.182-2.11-0.19-2.536c0-1.399,1.853-1.281,2.175-1.778c-0.132,0.554,1.213,1.846,0.139,2.797
	C233.6,178.294,232.366,178.752,231.793,179.513"/>
<path d="M229.071,184.526c0.297-0.787-0.079-2.11-0.064-2.536c0.064-1.399,1.914-1.198,2.257-1.678
	c-0.157,0.551,1.12,1.91,0.004,2.804C230.935,183.396,229.683,183.8,229.071,184.526"/>
<path d="M226.117,189.407c0.336-0.773,0.021-2.11,0.054-2.54c0.132-1.391,1.971-1.102,2.336-1.563
	c-0.186,0.54,1.03,1.96-0.129,2.804C228.03,188.37,226.761,188.71,226.117,189.407"/>
<path d="M222.933,194.143c0.372-0.755,0.118-2.11,0.179-2.532c0.193-1.388,2.014-1.009,2.404-1.449
	c-0.211,0.529,0.934,2-0.261,2.786C224.893,193.195,223.609,193.474,222.933,194.143"/>
<path d="M219.528,198.723c0.408-0.733,0.218-2.103,0.297-2.522c0.265-1.37,2.064-0.912,2.472-1.334
	c-0.236,0.519,0.837,2.046-0.397,2.772C221.531,197.868,220.236,198.09,219.528,198.723"/>
<path d="M215.912,203.137c0.444-0.719,0.318-2.089,0.415-2.507c0.329-1.359,2.103-0.816,2.532-1.216
	c-0.261,0.508,0.744,2.082-0.522,2.754C217.951,202.379,216.649,202.536,215.912,203.137"/>
<path d="M212.092,207.371c0.476-0.694,0.415-2.075,0.533-2.479c0.393-1.345,2.139-0.715,2.586-1.098
	c-0.283,0.494,0.64,2.114-0.651,2.726C214.163,206.709,212.857,206.806,212.092,207.371"/>
<path d="M208.071,211.419c0.508-0.669,0.515-2.05,0.647-2.45c0.458-1.323,2.175-0.612,2.64-0.973
	c-0.308,0.479,0.537,2.143-0.783,2.69C210.171,210.858,208.861,210.897,208.071,211.419"/>
<path d="M203.865,215.279c0.54-0.644,0.612-2.025,0.765-2.422c0.519-1.298,2.2-0.504,2.679-0.844
	c-0.329,0.465,0.44,2.164-0.905,2.651C205.993,214.814,204.68,214.789,203.865,215.279"/>
<path d="M199.483,218.932c0.572-0.622,0.705-1.992,0.88-2.382c0.576-1.273,2.221-0.404,2.715-0.719
	c-0.354,0.447,0.336,2.182-1.034,2.604C201.625,218.568,200.32,218.482,199.483,218.932"/>
<path d="M194.929,222.374c0.597-0.594,0.798-1.96,0.991-2.339c0.637-1.245,2.232-0.297,2.747-0.59
	c-0.372,0.433,0.229,2.2-1.159,2.558C197.09,222.113,195.788,221.962,194.929,222.374"/>
<path d="M190.218,225.594c0.626-0.562,0.891-1.917,1.102-2.286c0.697-1.216,2.246-0.197,2.776-0.458
	c-0.397,0.408,0.125,2.207-1.277,2.493C192.39,225.437,191.098,225.223,190.218,225.594"/>
<path d="M185.361,228.589c0.651-0.533,0.98-1.878,1.209-2.236c0.755-1.177,2.253-0.086,2.794-0.326
	c-0.418,0.393,0.021,2.214-1.399,2.436C187.536,228.535,186.255,228.26,185.361,228.589"/>
<path d="M180.364,231.346c0.676-0.501,1.069-1.824,1.316-2.171c0.808-1.141,2.253,0.021,2.804-0.19
	c-0.433,0.368-0.086,2.207-1.509,2.361C182.542,231.4,181.273,231.06,180.364,231.346"/>
<path d="M175.245,233.862c0.697-0.465,1.155-1.767,1.416-2.103c0.866-1.102,2.25,0.125,2.811-0.057
	c-0.451,0.347-0.186,2.203-1.624,2.286C177.417,234.023,176.168,233.622,175.245,233.862"/>
<path d="M170.009,236.134c0.719-0.436,1.238-1.71,1.513-2.035c0.916-1.059,2.243,0.232,2.812,0.075
	c-0.469,0.326-0.29,2.193-1.728,2.203C172.173,236.399,170.939,235.934,170.009,236.134"/>
<path d="M164.672,238.151c0.74-0.404,1.32-1.649,1.61-1.964c0.966-1.009,2.228,0.343,2.804,0.211
	c-0.483,0.308-0.397,2.178-1.831,2.125C166.822,238.512,165.609,237.997,164.672,238.151"/>
<path d="M159.242,239.909c0.758-0.368,1.399-1.585,1.703-1.885c1.012-0.962,2.211,0.454,2.79,0.347
	c-0.497,0.286-0.501,2.153-1.932,2.032C161.37,240.378,160.186,239.802,159.242,239.909"/>
<path d="M153.737,241.405c0.776-0.329,1.474-1.517,1.792-1.799c1.055-0.919,2.186,0.558,2.769,0.476
	c-0.504,0.265-0.605,2.128-2.025,1.939C155.837,241.97,154.685,241.341,153.737,241.405"/>
<path d="M148.164,242.634c0.79-0.29,1.545-1.449,1.874-1.71c1.102-0.869,2.157,0.662,2.744,0.608
	c-0.519,0.236-0.705,2.096-2.114,1.839C150.235,243.299,149.116,242.62,148.164,242.634"/>
<path d="M142.541,243.597c0.805-0.247,1.61-1.374,1.957-1.617c1.137-0.816,2.121,0.762,2.711,0.737
	c-0.533,0.215-0.808,2.06-2.203,1.735C144.577,244.358,143.493,243.629,142.541,243.597"/>
<path d="M136.875,244.29c0.816-0.215,1.674-1.288,2.032-1.524c1.177-0.755,2.082,0.858,2.672,0.869
	c-0.54,0.182-0.901,2.021-2.279,1.631C138.875,245.155,137.823,244.361,136.875,244.29"/>
<path d="M131.185,244.716c0.826-0.182,1.735-1.209,2.1-1.431c1.213-0.698,2.042,0.959,2.629,0.994
	c-0.547,0.157-0.998,1.978-2.357,1.517C133.141,245.672,132.129,244.827,131.185,244.716"/>
<path d="M125.483,244.87c0.83-0.136,1.788-1.13,2.164-1.327c1.241-0.644,1.992,1.055,2.579,1.116
	c-0.554,0.14-1.091,1.924-2.425,1.406C127.389,245.91,126.42,245.034,125.483,244.87"/>
<path d="M119.774,244.758c0.841-0.097,1.842-1.044,2.225-1.22c1.273-0.59,1.942,1.145,2.525,1.23
	c-0.562,0.111-1.18,1.874-2.49,1.295C121.638,245.892,120.704,244.965,119.774,244.758"/>
<path d="M114.08,244.381c0.844-0.064,1.885-0.951,2.278-1.12c1.298-0.519,1.889,1.234,2.465,1.356
	c-0.565,0.072-1.266,1.817-2.547,1.17C115.886,245.601,114.999,244.625,114.08,244.381"/>
<path d="M108.414,243.734c0.844-0.021,1.928-0.866,2.332-1.012c1.32-0.461,1.824,1.327,2.393,1.47
	c-0.565,0.057-1.345,1.753-2.597,1.052C110.159,245.036,109.319,244.024,108.414,243.734"/>
<path d="M102.78,242.816c0.841,0.021,1.967-0.773,2.375-0.898c1.341-0.401,1.76,1.413,2.321,1.581
	c-0.569,0.029-1.431,1.685-2.643,0.926C104.461,244.197,103.671,243.152,102.78,242.816"/>
<path d="M97.2,241.629c0.841,0.064,2.003-0.676,2.414-0.776c1.359-0.336,1.688,1.488,2.246,1.685
	c-0.572,0.004-1.509,1.617-2.69,0.801C98.81,243.092,98.073,242.012,97.2,241.629"/>
<path d="M91.684,240.18c0.833,0.104,2.032-0.583,2.447-0.665c1.377-0.268,1.617,1.57,2.164,1.796
	c-0.572-0.032-1.588,1.542-2.722,0.672C93.222,241.718,92.539,240.598,91.684,240.18"/>
<path d="M86.237,238.465c0.83,0.139,2.057-0.479,2.479-0.547c1.384-0.197,1.542,1.645,2.071,1.899
	c-0.562-0.061-1.656,1.467-2.747,0.537C87.7,240.078,87.07,238.923,86.237,238.465"/>
<path d="M80.882,236.492c0.826,0.179,2.078-0.383,2.504-0.429c1.391-0.129,1.459,1.717,1.982,1.996
	c-0.565-0.086-1.728,1.388-2.776,0.404C82.27,238.174,81.694,236.99,80.882,236.492"/>
<path d="M75.631,234.266c0.816,0.218,2.093-0.283,2.522-0.311c1.395-0.064,1.374,1.792,1.881,2.089
	c-0.562-0.111-1.788,1.302-2.79,0.268C76.933,236.011,76.418,234.799,75.631,234.266"/>
<path d="M70.487,231.79c0.805,0.254,2.107-0.182,2.536-0.19c1.395,0,1.284,1.853,1.778,2.175c-0.554-0.132-1.849,1.213-2.801,0.139
	C71.707,233.596,71.246,232.359,70.487,231.79"/>
<path d="M65.472,229.07c0.79,0.297,2.11-0.082,2.536-0.064c1.399,0.064,1.198,1.91,1.678,2.257c-0.551-0.161-1.907,1.12-2.804,0
	C66.599,230.93,66.202,229.678,65.472,229.07"/>
<path d="M60.59,226.115c0.773,0.336,2.118,0.021,2.54,0.054c1.391,0.136,1.102,1.967,1.567,2.336
	c-0.544-0.186-1.957,1.027-2.801-0.132C61.631,228.025,61.291,226.759,60.59,226.115"/>
<path d="M55.856,222.929c0.755,0.372,2.11,0.118,2.532,0.179c1.384,0.197,1.009,2.014,1.452,2.407
	c-0.533-0.215-2.003,0.93-2.794-0.265C56.804,224.889,56.525,223.605,55.856,222.929"/>
<path d="M51.274,219.526c0.737,0.408,2.103,0.218,2.525,0.297c1.374,0.261,0.912,2.06,1.334,2.472
	c-0.522-0.236-2.046,0.841-2.776-0.397C52.129,221.526,51.911,220.234,51.274,219.526"/>
<path d="M46.864,215.907c0.719,0.444,2.089,0.318,2.504,0.415c1.359,0.326,0.812,2.103,1.22,2.532
	c-0.508-0.261-2.085,0.744-2.754-0.526C47.622,217.946,47.465,216.644,46.864,215.907"/>
<path d="M42.627,212.085c0.694,0.472,2.075,0.419,2.482,0.533c1.345,0.39,0.712,2.143,1.098,2.586
	c-0.497-0.286-2.118,0.644-2.726-0.655C43.289,214.156,43.192,212.847,42.627,212.085"/>
<path d="M38.576,208.067c0.672,0.508,2.05,0.512,2.454,0.647c1.323,0.454,0.612,2.175,0.973,2.64
	c-0.483-0.311-2.146,0.54-2.69-0.783C39.138,210.167,39.102,208.858,38.576,208.067"/>
<path d="M34.72,203.861c0.647,0.537,2.025,0.608,2.422,0.762c1.302,0.519,0.508,2.2,0.848,2.683
	c-0.469-0.329-2.168,0.436-2.651-0.909C35.185,205.989,35.21,204.676,34.72,203.861"/>
<path d="M31.066,199.477c0.619,0.569,1.992,0.708,2.382,0.88c1.273,0.579,0.404,2.218,0.719,2.715
	c-0.451-0.354-2.186,0.336-2.608-1.034C31.431,201.623,31.517,200.314,31.066,199.477"/>
<path d="M27.626,194.923c0.59,0.601,1.957,0.801,2.336,0.994c1.248,0.637,0.3,2.236,0.59,2.747c-0.429-0.372-2.2,0.232-2.554-1.155
	C27.887,197.084,28.034,195.785,27.626,194.923"/>
<path d="M24.405,190.215c0.562,0.626,1.917,0.891,2.286,1.102c1.216,0.694,0.193,2.246,0.461,2.772
	c-0.411-0.393-2.211,0.129-2.497-1.277C24.559,192.386,24.773,191.095,24.405,190.215"/>
<path d="M21.412,185.357c0.529,0.651,1.871,0.984,2.232,1.209c1.177,0.751,0.086,2.253,0.326,2.79
	c-0.393-0.411-2.211,0.025-2.432-1.391C21.465,187.532,21.737,186.251,21.412,185.357"/>
<path d="M18.652,180.363c0.501,0.676,1.824,1.07,2.171,1.313c1.145,0.808-0.018,2.257,0.193,2.808
	c-0.372-0.433-2.211-0.086-2.361-1.509C18.598,182.541,18.938,181.271,18.652,180.363"/>
<path d="M16.136,175.241c0.469,0.701,1.767,1.159,2.107,1.416c1.098,0.862-0.129,2.25,0.057,2.811
	c-0.351-0.451-2.207-0.186-2.286-1.62C15.975,177.416,16.375,176.161,16.136,175.241"/>
<path d="M13.864,170.007c0.44,0.719,1.71,1.238,2.035,1.513c1.059,0.919-0.232,2.243-0.075,2.811
	c-0.326-0.469-2.193-0.293-2.203-1.728C13.6,172.167,14.065,170.933,13.864,170.007"/>
<path d="M11.847,164.668c0.404,0.74,1.649,1.323,1.964,1.61c1.009,0.966-0.343,2.228-0.211,2.804
	c-0.304-0.479-2.178-0.397-2.125-1.831C11.482,166.814,12.001,165.605,11.847,164.668"/>
<path d="M10.09,159.239c0.368,0.758,1.585,1.399,1.881,1.703c0.966,1.012-0.447,2.211-0.343,2.79
	c-0.286-0.494-2.153-0.504-2.032-1.932C9.621,161.368,10.201,160.184,10.09,159.239"/>
<path d="M8.594,153.731c0.329,0.78,1.517,1.474,1.799,1.796c0.919,1.052-0.558,2.182-0.476,2.769
	c-0.265-0.508-2.128-0.605-1.939-2.028C8.025,155.834,8.658,154.682,8.594,153.731"/>
<path d="M7.364,148.16c0.29,0.79,1.445,1.542,1.71,1.878c0.869,1.098-0.662,2.153-0.608,2.74c-0.24-0.519-2.096-0.705-1.839-2.118
	C6.702,150.231,7.379,149.112,7.364,148.16"/>
<path d="M6.402,142.536c0.247,0.805,1.37,1.61,1.617,1.953c0.816,1.141-0.762,2.125-0.737,2.711c-0.215-0.529-2.06-0.801-1.735-2.2
	C5.64,144.571,6.37,143.487,6.402,142.536"/>
<path d="M5.708,136.871c0.215,0.816,1.291,1.674,1.524,2.032c0.755,1.177-0.862,2.082-0.869,2.672
	c-0.182-0.54-2.021-0.905-1.628-2.282C4.846,138.871,5.637,137.819,5.708,136.871"/>
<path d="M5.284,131.181c0.179,0.823,1.209,1.735,1.427,2.1c0.698,1.213-0.955,2.042-0.994,2.629
	c-0.157-0.547-1.978-0.994-1.517-2.357C4.326,133.138,5.17,132.126,5.284,131.181"/>
<path d="M5.129,125.477c0.136,0.833,1.13,1.788,1.327,2.164c0.644,1.241-1.059,1.996-1.116,2.583
	c-0.14-0.558-1.924-1.091-1.406-2.429C4.084,127.387,4.964,126.414,5.129,125.477"/>
<path d="M5.241,119.773c0.093,0.837,1.044,1.839,1.22,2.225c0.59,1.27-1.148,1.939-1.234,2.522
	c-0.107-0.558-1.871-1.177-1.291-2.486C4.107,121.629,5.033,120.699,5.241,119.773"/>
<path d="M5.618,114.078c0.061,0.841,0.955,1.885,1.12,2.279c0.519,1.298-1.23,1.885-1.356,2.465
	c-0.072-0.565-1.817-1.266-1.17-2.547C4.394,115.881,5.371,114.998,5.618,114.078"/>
<path d="M6.264,108.409c0.021,0.844,0.862,1.928,1.012,2.332c0.461,1.32-1.327,1.824-1.47,2.393
	c-0.057-0.565-1.749-1.345-1.052-2.597C4.959,110.154,5.975,109.314,6.264,108.409"/>
<path d="M7.184,102.777c-0.021,0.841,0.773,1.967,0.898,2.375c0.397,1.341-1.413,1.76-1.585,2.325
	c-0.025-0.572-1.681-1.431-0.923-2.647C5.799,104.458,6.847,103.667,7.184,102.777"/>
<path d="M8.37,97.196c-0.068,0.841,0.68,2.003,0.78,2.414c0.336,1.359-1.495,1.692-1.688,2.246c0-0.572-1.617-1.509-0.801-2.69
	C6.907,98.805,7.987,98.068,8.37,97.196"/>
<path d="M9.819,91.676c-0.104,0.837,0.583,2.032,0.665,2.45c0.268,1.374-1.57,1.617-1.796,2.164
	c0.032-0.572-1.542-1.588-0.669-2.726C8.278,93.218,9.401,92.531,9.819,91.676"/>
<path d="M11.533,86.234c-0.14,0.83,0.479,2.057,0.547,2.479c0.2,1.384-1.645,1.542-1.899,2.071c0.061-0.565-1.467-1.656-0.533-2.747
	C9.92,87.697,11.075,87.067,11.533,86.234"/>
<path d="M13.506,80.88c-0.179,0.823,0.383,2.078,0.429,2.5c0.129,1.391-1.717,1.463-1.996,1.982
	c0.086-0.562-1.384-1.728-0.404-2.772C11.825,82.264,13.009,81.688,13.506,80.88"/>
<path d="M15.732,75.625c-0.215,0.816,0.283,2.093,0.311,2.522c0.064,1.395-1.788,1.374-2.089,1.881
	c0.111-0.562-1.302-1.792-0.272-2.79C13.987,76.927,15.199,76.412,15.732,75.625"/>
<path d="M18.21,70.485c-0.258,0.805,0.182,2.103,0.19,2.532c0,1.399-1.853,1.288-2.178,1.781c0.136-0.558-1.209-1.853-0.132-2.801
	C16.403,71.701,17.637,71.243,18.21,70.485"/>
<path d="M20.93,65.467c-0.297,0.791,0.079,2.11,0.064,2.54c-0.064,1.399-1.914,1.195-2.257,1.674
	c0.161-0.547-1.12-1.907-0.004-2.804C19.067,66.597,20.319,66.197,20.93,65.467"/>
<path d="M23.885,60.586c-0.336,0.773-0.021,2.114-0.054,2.54c-0.136,1.391-1.971,1.102-2.336,1.563
	c0.182-0.54-1.03-1.957,0.129-2.801C21.971,61.627,23.241,61.287,23.885,60.586"/>
<path d="M27.069,55.851c-0.372,0.755-0.122,2.11-0.179,2.532c-0.197,1.388-2.014,1.009-2.404,1.452
	c0.211-0.529-0.934-2.003,0.261-2.79C25.109,56.802,26.393,56.52,27.069,55.851"/>
<path d="M30.475,51.273c-0.408,0.737-0.218,2.103-0.297,2.522c-0.265,1.374-2.064,0.912-2.472,1.334
	c0.236-0.519-0.841-2.046,0.393-2.772C28.471,52.128,29.766,51.909,30.475,51.273"/>
<path d="M34.092,46.86c-0.444,0.715-0.318,2.089-0.419,2.504c-0.325,1.359-2.103,0.816-2.529,1.22
	c0.261-0.511-0.74-2.085,0.522-2.754C32.053,47.618,33.355,47.461,34.092,46.86"/>
<path d="M37.914,42.624c-0.476,0.694-0.415,2.071-0.533,2.482c-0.393,1.341-2.139,0.712-2.59,1.098
	c0.286-0.497-0.64-2.118,0.655-2.729C35.843,43.285,37.149,43.189,37.914,42.624"/>
<path d="M41.933,38.573c-0.508,0.672-0.515,2.05-0.651,2.454c-0.454,1.323-2.171,0.612-2.636,0.973
	c0.308-0.483-0.54-2.146,0.783-2.69C39.833,39.134,41.142,39.102,41.933,38.573"/>
<path d="M46.14,34.716c-0.54,0.644-0.612,2.025-0.769,2.422c-0.515,1.298-2.196,0.508-2.676,0.844
	c0.329-0.461-0.44-2.168,0.905-2.651C44.015,35.181,45.325,35.206,46.14,34.716"/>
<path d="M50.522,31.063c-0.569,0.619-0.705,1.996-0.88,2.382c-0.576,1.273-2.218,0.404-2.715,0.719
	c0.351-0.451-0.336-2.186,1.034-2.604C48.379,31.425,49.685,31.514,50.522,31.063"/>
<path d="M55.075,27.622c-0.601,0.59-0.801,1.96-0.991,2.336c-0.637,1.248-2.236,0.3-2.747,0.59c0.372-0.433-0.232-2.2,1.155-2.554
	C52.914,27.883,54.216,28.03,55.075,27.622"/>
<path d="M59.785,24.4c-0.626,0.562-0.891,1.921-1.102,2.286c-0.698,1.216-2.25,0.193-2.776,0.461
	c0.397-0.415-0.125-2.207,1.277-2.497C57.614,24.558,58.905,24.769,59.785,24.4"/>
<path d="M64.643,21.408c-0.651,0.533-0.98,1.874-1.209,2.232c-0.751,1.18-2.253,0.086-2.79,0.326
	c0.411-0.39-0.025-2.211,1.391-2.432C62.468,21.462,63.748,21.734,64.643,21.408"/>
<path d="M69.64,18.647c-0.68,0.501-1.07,1.824-1.316,2.171c-0.808,1.141-2.253-0.021-2.804,0.193
	c0.433-0.372,0.082-2.211,1.509-2.364C67.461,18.593,68.731,18.933,69.64,18.647"/>
<path d="M74.758,16.132c-0.698,0.469-1.155,1.767-1.416,2.107c-0.862,1.098-2.25-0.129-2.808,0.057
	c0.451-0.347,0.182-2.203,1.617-2.286C72.587,15.975,73.839,16.375,74.758,16.132"/>
<path d="M79.995,13.861c-0.719,0.44-1.241,1.71-1.517,2.039c-0.912,1.055-2.239-0.236-2.808-0.079
	c0.465-0.326,0.29-2.193,1.728-2.207C77.831,13.6,79.065,14.061,79.995,13.861"/>
<path d="M85.332,11.843c-0.74,0.404-1.32,1.649-1.61,1.964c-0.966,1.012-2.228-0.343-2.804-0.211
	c0.483-0.304,0.397-2.178,1.831-2.121C83.182,11.478,84.394,12.001,85.332,11.843"/>
<path d="M90.761,10.083c-0.758,0.368-1.399,1.585-1.703,1.885c-1.012,0.966-2.211-0.451-2.79-0.343
	c0.494-0.286,0.501-2.157,1.932-2.032C88.633,9.618,89.817,10.194,90.761,10.083"/>
<path d="M96.266,8.588c-0.773,0.329-1.47,1.517-1.788,1.799c-1.059,0.919-2.189-0.558-2.772-0.476
	c0.504-0.265,0.608-2.128,2.025-1.939C94.167,8.023,95.318,8.653,96.266,8.588"/>
<path d="M101.839,7.361c-0.794,0.29-1.545,1.445-1.878,1.71c-1.098,0.866-2.157-0.662-2.744-0.608
	c0.522-0.24,0.708-2.096,2.118-1.839C99.765,6.696,100.884,7.376,101.839,7.361"/>
<path d="M107.462,6.396c-0.801,0.25-1.606,1.374-1.953,1.62c-1.137,0.812-2.125-0.765-2.711-0.74
	c0.529-0.211,0.805-2.06,2.203-1.738C105.427,5.634,106.511,6.363,107.462,6.396"/>
<path d="M113.128,5.705c-0.816,0.215-1.674,1.288-2.032,1.524c-1.173,0.755-2.082-0.862-2.672-0.869
	c0.54-0.182,0.901-2.021,2.282-1.628C111.129,4.84,112.18,5.634,113.128,5.705"/>
<path d="M118.819,5.28c-0.823,0.182-1.735,1.209-2.1,1.431c-1.213,0.694-2.042-0.959-2.629-0.998
	c0.551-0.157,0.998-1.974,2.357-1.517C116.862,4.325,117.875,5.165,118.819,5.28"/>
<path d="M124.521,5.126c-0.833,0.136-1.788,1.127-2.164,1.327c-1.245,0.644-1.992-1.059-2.579-1.12
	c0.554-0.136,1.091-1.921,2.425-1.402C122.611,4.081,123.584,4.961,124.521,5.126"/>
<path d="M130.23,5.237c-0.837,0.093-1.839,1.048-2.225,1.223c-1.273,0.587-1.942-1.148-2.525-1.234
	c0.562-0.111,1.18-1.874,2.49-1.291C128.369,4.106,129.299,5.029,130.23,5.237"/>
<path d="M135.92,5.612c-0.841,0.061-1.885,0.951-2.279,1.12c-1.298,0.519-1.885-1.234-2.465-1.356
	c0.565-0.075,1.266-1.817,2.547-1.17C134.118,4.389,135.005,5.365,135.92,5.612"/>
<path d="M141.59,6.26c-0.844,0.021-1.928,0.862-2.332,1.009c-1.32,0.461-1.824-1.327-2.397-1.467c0.569-0.057,1.352-1.753,2.6-1.052
	C139.844,4.954,140.685,5.97,141.59,6.26"/>
<path d="M147.224,7.179c-0.841-0.025-1.967,0.773-2.375,0.894c-1.341,0.401-1.76-1.413-2.325-1.581
	c0.572-0.029,1.431-1.685,2.647-0.926C145.542,5.795,146.333,6.839,147.224,7.179"/>
<path d="M152.804,8.366c-0.841-0.064-2.003,0.68-2.414,0.78c-1.359,0.336-1.688-1.492-2.246-1.688c0.572,0,1.509-1.617,2.69-0.798
	C151.194,6.903,151.931,7.984,152.804,8.366"/>
<path d="M158.323,9.815c-0.837-0.104-2.032,0.579-2.45,0.665c-1.374,0.265-1.617-1.574-2.164-1.796
	c0.572,0.029,1.588-1.545,2.722-0.669C156.785,8.273,157.468,9.397,158.323,9.815"/>
<path d="M163.767,11.528c-0.83-0.139-2.057,0.476-2.479,0.547c-1.381,0.197-1.542-1.645-2.071-1.899
	c0.565,0.061,1.656-1.467,2.751-0.537C162.304,9.912,162.934,11.071,163.767,11.528"/>
<path d="M169.118,13.503c-0.823-0.182-2.075,0.379-2.5,0.429c-1.391,0.129-1.463-1.72-1.982-1.996
	c0.562,0.086,1.728-1.388,2.776-0.404C167.737,11.818,168.306,13.006,169.118,13.503"/>
<path d="M174.373,15.728c-0.816-0.218-2.093,0.283-2.522,0.311c-1.395,0.064-1.374-1.788-1.881-2.089
	c0.562,0.107,1.792-1.298,2.79-0.272C173.071,13.982,173.586,15.195,174.373,15.728"/>
<path d="M179.516,18.207c-0.801-0.258-2.107,0.182-2.533,0.19c-1.399,0-1.288-1.856-1.778-2.178
	c0.551,0.136,1.846-1.209,2.797-0.136C178.297,16.4,178.758,17.634,179.516,18.207"/>
<path d="M215.282,46.135c-0.647-0.54-2.025-0.612-2.422-0.765c-1.298-0.515-0.508-2.2-0.844-2.679
	c0.465,0.329,2.168-0.44,2.651,0.909C214.817,44.01,214.792,45.32,215.282,46.135"/>
<path d="M218.934,50.519c-0.619-0.572-1.992-0.705-2.382-0.88c-1.273-0.579-0.404-2.218-0.715-2.718
	c0.451,0.354,2.182-0.333,2.604,1.034C218.573,48.373,218.483,49.679,218.934,50.519"/>
<path d="M222.375,55.071c-0.59-0.601-1.957-0.798-2.336-0.991c-1.245-0.637-0.3-2.236-0.59-2.751c0.433,0.376,2.2-0.229,2.554,1.159
	C222.114,52.911,221.967,54.213,222.375,55.071"/>
<path d="M225.598,59.781c-0.562-0.63-1.917-0.891-2.289-1.102c-1.216-0.698-0.19-2.246-0.454-2.772
	c0.411,0.393,2.203-0.129,2.493,1.273C225.441,57.61,225.23,58.905,225.598,59.781"/>
<path d="M228.592,64.639c-0.533-0.655-1.874-0.984-2.232-1.213c-1.18-0.751-0.086-2.25-0.329-2.79
	c0.393,0.415,2.214-0.021,2.432,1.395C228.538,62.461,228.266,63.745,228.592,64.639"/>
<path d="M231.35,69.633c-0.501-0.676-1.821-1.069-2.171-1.313c-1.141-0.808,0.021-2.253-0.193-2.804
	c0.372,0.433,2.214,0.082,2.361,1.509C231.403,67.455,231.064,68.725,231.35,69.633"/>
<path d="M233.868,74.754c-0.472-0.698-1.767-1.155-2.107-1.416c-1.102-0.862,0.125-2.25-0.057-2.811
	c0.347,0.454,2.203,0.19,2.286,1.62C234.025,72.579,233.625,73.835,233.868,74.754"/>
<path d="M236.139,79.988c-0.44-0.719-1.706-1.241-2.035-1.513c-1.059-0.916,0.232-2.243,0.075-2.811
	c0.329,0.469,2.196,0.293,2.207,1.728C236.404,77.828,235.939,79.062,236.139,79.988"/>
<path d="M238.157,85.327c-0.404-0.74-1.649-1.32-1.964-1.61c-1.012-0.966,0.343-2.228,0.211-2.804
	c0.304,0.483,2.178,0.397,2.125,1.831C238.522,83.18,237.999,84.389,238.157,85.327"/>
<path d="M239.913,90.755c-0.368-0.758-1.585-1.399-1.885-1.703c-0.966-1.012,0.451-2.211,0.343-2.79
	c0.29,0.497,2.157,0.504,2.032,1.932C240.382,88.627,239.802,89.811,239.913,90.755"/>
<path d="M241.412,96.262c-0.329-0.776-1.517-1.47-1.799-1.788c-0.919-1.059,0.558-2.189,0.476-2.772
	c0.265,0.508,2.125,0.604,1.939,2.025C241.977,94.159,241.347,95.315,241.412,96.262"/>
<path d="M242.639,101.835c-0.29-0.79-1.445-1.542-1.71-1.874c-0.866-1.102,0.662-2.157,0.608-2.744
	c0.24,0.519,2.096,0.705,1.842,2.114C243.304,99.761,242.624,100.884,242.639,101.835"/>
<path d="M243.601,107.46c-0.247-0.805-1.37-1.61-1.617-1.957c-0.812-1.137,0.762-2.121,0.737-2.711
	c0.215,0.533,2.06,0.808,1.738,2.203C244.363,105.421,243.633,106.508,243.601,107.46"/>
<path d="M244.295,113.124c-0.215-0.816-1.288-1.674-1.524-2.032c-0.755-1.173,0.862-2.082,0.869-2.672
	c0.182,0.54,2.021,0.901,1.628,2.282C245.16,111.124,244.366,112.176,244.295,113.124"/>
<path d="M244.724,118.815c-0.182-0.826-1.209-1.735-1.431-2.1c-0.694-1.213,0.959-2.042,0.994-2.629
	c0.157,0.547,1.978,0.994,1.517,2.354C245.679,116.858,244.835,117.87,244.724,118.815"/>
<path d="M244.874,124.519c-0.136-0.83-1.127-1.788-1.327-2.164c-0.644-1.245,1.059-1.996,1.116-2.579
	c0.136,0.554,1.924,1.087,1.406,2.422C245.922,122.609,245.039,123.582,244.874,124.519"/>
<polygon fill-rule="evenodd" clip-rule="evenodd" points="185.193,200.166 186.405,203.306 183.751,205.377 187.114,205.198 
	188.269,208.353 189.131,205.105 192.497,204.987 189.671,203.16 190.598,199.922 187.986,202.047 "/>
<polygon fill-rule="evenodd" clip-rule="evenodd" points="172.48,210.067 173.693,213.204 171.039,215.279 174.401,215.1 
	175.553,218.258 176.422,215.003 179.785,214.889 176.959,213.061 177.882,209.824 175.274,211.945 "/>
<polygon fill-rule="evenodd" clip-rule="evenodd" points="67.121,200.166 65.909,203.306 68.559,205.377 65.201,205.198 
	64.045,208.353 63.183,205.105 59.817,204.987 62.643,203.16 61.717,199.922 64.328,202.047 "/>
<polygon fill-rule="evenodd" clip-rule="evenodd" points="79.837,210.067 78.625,213.204 81.279,215.279 77.917,215.1 
	76.765,218.258 75.896,215.003 72.533,214.889 75.359,213.061 74.433,209.824 77.044,211.945 "/>
<path d="M125,249.996c-68.924,0-125-56.076-125-125S56.076,0,125,0s125,56.072,125,124.996S193.924,249.996,125,249.996 M125,2.118
	C57.242,2.118,2.118,57.242,2.118,124.996c0,67.758,55.124,122.882,122.882,122.882s122.882-55.124,122.882-122.882
	C247.882,57.242,192.758,2.118,125,2.118"/>
<path d="M125,241.351c-64.156,0-116.355-52.195-116.355-116.355C8.645,60.84,60.844,8.645,125,8.645S241.351,60.84,241.351,124.996
	C241.351,189.156,189.156,241.351,125,241.351 M125,9.704C61.427,9.704,9.708,61.423,9.708,124.996S61.427,240.292,125,240.292
	s115.296-51.723,115.296-115.296S188.573,9.704,125,9.704"/>
<path d="M124.063,210.721c-46.722,0-84.731-38.009-84.731-84.731c0-46.718,38.009-84.727,84.731-84.727
	c46.718,0,84.727,38.009,84.727,84.727C208.79,172.712,170.781,210.721,124.063,210.721 M124.063,43.38
	c-45.552,0-82.613,37.057-82.613,82.61s37.061,82.613,82.613,82.613c45.552,0,82.61-37.061,82.61-82.613
	S169.615,43.38,124.063,43.38"/>
<path d="M124.063,206.004c-44.122,0-80.016-35.895-80.016-80.013c0-44.122,35.895-80.016,80.016-80.016
	c44.118,0,80.016,35.895,80.016,80.016C204.079,170.11,168.181,206.004,124.063,206.004 M124.063,47.034
	c-43.535,0-78.958,35.419-78.958,78.958c0,43.535,35.423,78.958,78.958,78.958c43.535,0,78.958-35.423,78.958-78.958
	C203.02,82.453,167.598,47.034,124.063,47.034"/>
<path d="M45.62,192.588c-0.783,0.655-0.73,0.891-0.165,1.56l1.152,1.377c1.552,1.853,3.28-0.429,3.899,0.308
	c0.286,0.347-0.154,0.547-0.393,0.694l-2.375,1.538c-0.179,0.122-0.408,0.311-0.615,0.064c-1.277-1.524-2.128-2.676-4.135-5.072
	c-2.003-2.393-2.99-3.437-4.267-4.958c-0.204-0.247,0.021-0.436,0.175-0.59l1.352-1.434c0.168-0.197,0.655-0.912,1.012-0.486
	c0.547,0.658-1.706,1.649-0.061,3.48l1.166,1.391c0.562,0.672,0.783,0.769,1.567,0.111l7.386-6.17
	c2.01-1.681-0.222-3.384,0.236-3.767c0.393-0.329,0.619,0.043,1.016,0.512c0.551,0.658,0.937,1.252,1.856,2.35
	c0.923,1.098,1.442,1.585,1.989,2.243c0.247,0.297,0.497,0.562,0.136,0.862c-0.637,0.533-1.402-1.974-3.348-0.351L45.62,192.588z"/>
<path d="M43.47,177.382c0.186,0.311,0.494,0.651,1.946,0.343c0.444-0.097,1.234-0.225,1.674-0.49
	c1.309-0.794-0.175-2.593,0.315-2.89c0.383-0.232,0.601,0.411,0.83,0.79c0.358,0.587,0.615,1.18,0.969,1.767
	c0.333,0.547,0.726,1.034,1.044,1.563c0.157,0.258,0.372,0.529,0.132,0.672c-0.418,0.254-0.873-0.748-2.168-0.583l-14.018,1.724
	c-0.368,0.05-0.769,0.168-0.916-0.068c-0.097-0.165-0.086-0.225,0.318-0.794l8.159-11.693c0.937-1.37-0.372-1.924,0.229-2.289
	c0.311-0.19,0.376-0.004,0.672,0.483c0.397,0.658,0.626,1.198,1.356,2.404c0.486,0.805,0.969,1.438,1.291,1.974
	c0.197,0.329,0.379,0.544,0.122,0.698c-0.526,0.322-1.112-1.098-2.225-0.426c-0.401,0.243-0.651,0.572-1.019,1.07
	c-1.055,1.463-1.18,1.667-0.894,2.143L43.47,177.382z M40.647,174.943c-0.2-0.329-0.336-0.594-0.519-0.486
	c-0.254,0.157-0.39,0.386-0.551,0.612l-2.389,3.498c-0.079,0.197-0.111,0.143-0.057,0.233c0.021,0.036,0.086,0.1,0.34,0.072
	l4.074-0.547c0.275-0.043,0.544-0.054,0.798-0.207c0.182-0.111,0.007-0.358-0.19-0.687L40.647,174.943z"/>
<path d="M29.793,167.383c-2.221,0.866-0.644,2.751-1.356,3.03c-0.2,0.075-0.376-0.086-0.469-0.322
	c-0.358-0.919-0.34-1.109-0.83-2.364c-0.519-1.334-1.123-2.658-1.642-3.992c-1.699-4.36,0.944-5.848,1.856-6.202
	c1.27-0.497,2.228-0.204,2.93,0.19c0.683,0.397,1.084,0.905,1.284,0.83c0.118-0.047,2.339-2.862,4.282-5.269
	c0.247-0.304,0.097-0.68,0.036-0.841c-0.075-0.2-0.272-0.351-0.351-0.551c-0.072-0.179,0.004-0.347,0.161-0.408
	c0.615-0.24,1.563,0.905,1.874,1.703c0.612,1.574-0.39,2.697-1.298,3.763l-2.486,2.894c-0.694,0.798-0.733,1.227-0.347,2.221
	c0.411,1.055,0.504,0.883,1.198,0.612l3.434-1.338c2.121-0.826,0.54-2.482,1.256-2.758c0.179-0.072,0.361,0.043,0.537,0.497
	c0.136,0.34,0.261,0.909,0.59,1.746c0.415,1.077,0.884,2.042,1.27,3.037c0.089,0.218,0.311,0.615-0.089,0.769
	c-0.633,0.247-0.604-1.62-3.108-0.647L29.793,167.383z M32.393,163.548c0.497-0.193,0.211-0.93-0.025-1.527
	c-1.177-3.026-2.336-2.711-3.505-2.257c-1.946,0.758-2.98,2.443-2.196,4.457c0.286,0.737,0.526,1.352,1.717,0.891L32.393,163.548z"
	/>
<path d="M24.057,151.063c-2.339,0.483-1.098,2.604-1.849,2.761c-0.211,0.043-0.358-0.147-0.408-0.397
	c-0.197-0.962-0.15-1.148-0.419-2.468c-0.29-1.402-0.665-2.808-0.951-4.214c-0.944-4.586,1.917-5.612,2.876-5.809
	c1.334-0.275,2.232,0.175,2.858,0.68c0.605,0.508,0.916,1.077,1.127,1.034c0.125-0.025,2.786-2.429,5.104-4.478
	c0.297-0.258,0.215-0.655,0.182-0.823c-0.043-0.207-0.211-0.393-0.254-0.604c-0.039-0.186,0.061-0.336,0.225-0.372
	c0.647-0.136,1.391,1.155,1.563,1.992c0.34,1.653-0.841,2.597-1.917,3.495l-2.937,2.436c-0.819,0.672-0.93,1.087-0.715,2.135
	c0.229,1.109,0.347,0.951,1.08,0.805l3.609-0.744c2.232-0.461,0.951-2.357,1.706-2.515c0.186-0.036,0.343,0.104,0.444,0.587
	c0.075,0.358,0.107,0.941,0.286,1.821c0.232,1.13,0.533,2.16,0.744,3.205c0.05,0.233,0.2,0.658-0.215,0.744
	c-0.669,0.136-0.329-1.699-2.958-1.159L24.057,151.063z M27.262,147.718c0.522-0.107,0.365-0.88,0.236-1.509
	c-0.655-3.183-1.849-3.069-3.08-2.815c-2.046,0.419-3.352,1.91-2.915,4.028c0.157,0.773,0.29,1.424,1.545,1.166L27.262,147.718z"/>
<path d="M28.171,130.83c0.011,0.365,0.107,0.808,1.527,1.259c0.433,0.136,1.188,0.415,1.695,0.397
	c1.535-0.043,1.127-2.343,1.699-2.357c0.447-0.014,0.318,0.651,0.333,1.102c0.021,0.683-0.047,1.327-0.029,2.01
	c0.021,0.644,0.122,1.259,0.143,1.878c0.007,0.297,0.061,0.637-0.215,0.647c-0.49,0.014-0.397-1.08-1.606-1.577l-13.052-5.408
	c-0.343-0.14-0.751-0.236-0.758-0.511c-0.007-0.193,0.036-0.236,0.665-0.533l12.859-6.156c1.495-0.726,0.63-1.856,1.331-1.878
	c0.365-0.011,0.326,0.186,0.343,0.765c0.021,0.769-0.047,1.349-0.004,2.758c0.029,0.937,0.136,1.728,0.154,2.343
	c0.011,0.386,0.061,0.662-0.236,0.669c-0.619,0.018-0.429-1.506-1.728-1.467c-0.469,0.014-0.844,0.175-1.413,0.429
	c-1.642,0.751-1.849,0.866-1.835,1.42L28.171,130.83z M26.915,127.317c-0.011-0.386,0-0.683-0.211-0.68
	c-0.297,0.011-0.529,0.143-0.78,0.261l-3.806,1.864c-0.165,0.136-0.168,0.072-0.165,0.179c0.004,0.039,0.025,0.125,0.265,0.225
	l3.817,1.535c0.258,0.097,0.497,0.222,0.794,0.211c0.215-0.007,0.182-0.304,0.172-0.69L26.915,127.317z"/>
<path d="M22.54,115.406c-4.038-0.633-3.044,1.949-4.053,1.788c-0.19-0.029-0.34-0.161-0.3-0.415c0.061-0.401,0.207-0.769,0.268-1.17
	c0.089-0.547,0.089-1.112,0.265-2.232c0.107-0.676,0.215-0.397,0.672-0.715l10.609-7.043c0.34-0.229,0.633-0.444,0.651-0.569
	c0.018-0.129-0.225-0.207-0.751-0.29l-7.007-1.098c-1.914-0.3-1.939,2.336-2.633,2.228c-0.147-0.021-0.347-0.118-0.304-0.397
	c0.054-0.336,0.232-0.937,0.461-2.397c0.207-1.331,0.24-2.085,0.272-2.271c0.061-0.401,0.272-0.365,0.336-0.358
	c0.63,0.1-0.157,1.817,2.053,2.16l11.8,1.849c0.461,0.072,0.63,0.097,0.59,0.351c-0.043,0.297-0.186,0.383-0.379,0.504
	l-12.534,8.452c-0.19,0.122-0.318,0.233-0.333,0.336c-0.021,0.129,0.122,0.193,0.308,0.222l7.154,1.12
	c4.038,0.633,3.033-2.296,4.02-2.143c0.297,0.046,0.193,0.572,0.15,0.848c-0.165,1.034-0.361,1.738-0.476,2.479
	c-0.107,0.676-0.114,1.259-0.204,1.831c-0.036,0.233,0.004,0.669-0.354,0.615c-0.841-0.132-0.143-2.1-2.289-2.436L22.54,115.406z"/>
<path d="M25.96,92.011c-0.966-0.336-1.137-0.172-1.427,0.658l-0.59,1.695c-0.798,2.282,2.05,2.597,1.731,3.505
	c-0.15,0.426-0.551,0.15-0.794,0.018l-2.543-1.252c-0.193-0.089-0.476-0.19-0.368-0.49c0.655-1.878,1.209-3.201,2.239-6.149
	c1.027-2.947,1.42-4.328,2.075-6.213c0.107-0.304,0.386-0.204,0.597-0.154l1.924,0.422c0.258,0.047,1.116,0.097,0.937,0.622
	c-0.283,0.808-2.289-0.619-3.019,1.731l-0.601,1.717c-0.29,0.83-0.258,1.066,0.705,1.402l9.089,3.176
	c2.472,0.866,2.79-1.921,3.355-1.728c0.479,0.172,0.279,0.554,0.075,1.145c-0.283,0.805-0.594,1.445-1.07,2.797
	c-0.469,1.352-0.622,2.046-0.905,2.851c-0.129,0.365-0.225,0.715-0.669,0.562c-0.783-0.275,0.976-2.221-1.413-3.058L25.96,92.011z"
	/>
<path d="M42.459,64.547c0.19,0.097,0.651,0.29,0.454,0.594c-0.186,0.29-0.644,0.175-0.955,0.15c-2.3-0.207-4.872,0.376-6.213,2.461
	c-1.699,2.64-0.129,5.709,2.271,7.25c2.525,1.624,6.993,2.465,9.2-0.969c1.792-2.786,0.233-5.516,0.533-5.984
	c0.061-0.089,0.25-0.193,0.358-0.125c0.719,0.461,2.196,4.103-0.265,7.934c-3.387,5.269-8.492,3.13-9.905,2.221
	c-3.008-1.935-5.777-6.331-2.865-10.86c1.399-2.175,3.38-2.858,3.727-3.398c0.222-0.34-0.358-0.74-0.197-0.991
	c0.057-0.089,0.157-0.204,0.247-0.147L42.459,64.547z"/>
<path d="M46.207,52.859c2.794-3.098,6.975-3.584,10.302-0.533c2.196,2.017,5.158,6.506,0.537,11.529
	c-2.908,3.162-6.982,3.341-10.166,0.419C43.446,61.119,42.781,56.647,46.207,52.859 M56.792,62.778
	c2.443-2.751,1.152-5.562-1.452-7.952c-3.466-3.183-7.054-2.937-8.889-0.876c-2.4,2.701-0.959,5.476,1.316,7.565
	C50.056,63.619,54.248,65.64,56.792,62.778"/>
<path d="M70.627,41.695c2.593,3.459,3.777,7.072-0.948,10.609c-3.201,2.397-6.024,2.196-8.499-1.112l-4.164-5.555
	c-1.102-1.467-2.472,0.415-2.958-0.236c-0.165-0.222,0.018-0.436,0.157-0.537c0.222-0.165,1.556-1.059,2.411-1.699
	c0.873-0.655,2.039-1.631,2.364-1.881c0.154-0.114,0.29-0.004,0.365,0.097c0.436,0.579-1.681,0.755,0.415,3.548l2.772,3.699
	c1.953,2.608,4.26,4.26,7.322,1.967c3.405-2.55,1.831-5.576-0.325-8.459l-2.529-3.373c-1.467-1.96-3.176,0.143-3.634-0.469
	c-0.207-0.272,0.147-0.404,0.372-0.569c0.519-0.336,1.009-0.647,1.488-1.009c0.565-0.422,1.07-0.851,1.899-1.535
	c0.204-0.154,0.333-0.197,0.476-0.007c0.343,0.458-1.313,0.744,0.129,2.668L70.627,41.695z"/>
<path d="M74.286,35.746c-1.788-3.677-3.337-1.384-3.784-2.304c-0.086-0.172-0.064-0.372,0.168-0.479
	c0.365-0.179,0.748-0.268,1.112-0.447c0.504-0.243,0.966-0.562,1.985-1.062c0.615-0.3,0.447-0.054,0.973,0.143l11.843,4.689
	c0.379,0.147,0.723,0.265,0.837,0.207c0.114-0.057,0.043-0.304-0.19-0.783l-3.101-6.374c-0.851-1.742-3.03-0.258-3.337-0.891
	c-0.064-0.136-0.1-0.354,0.15-0.472c0.308-0.147,0.901-0.343,2.228-0.987c1.216-0.587,1.849-0.991,2.025-1.08
	c0.365-0.175,0.458,0.014,0.486,0.072c0.279,0.576-1.581,0.909-0.604,2.919l5.229,10.742c0.204,0.422,0.279,0.572,0.047,0.687
	c-0.268,0.129-0.422,0.061-0.63-0.025l-14.097-5.466c-0.211-0.086-0.372-0.125-0.469-0.079c-0.114,0.054-0.089,0.207-0.004,0.379
	l3.166,6.51c1.788,3.677,3.616,1.18,4.056,2.078c0.129,0.268-0.361,0.483-0.608,0.604c-0.944,0.458-1.635,0.698-2.311,1.023
	c-0.615,0.3-1.098,0.63-1.617,0.884c-0.211,0.1-0.551,0.383-0.708,0.057c-0.372-0.765,1.642-1.316,0.694-3.269L74.286,35.746z"/>
<path d="M95.458,25.181c-0.275-0.984-0.508-1.03-1.356-0.794l-1.728,0.486c-2.329,0.651-0.959,3.166-1.885,3.423
	c-0.433,0.122-0.433-0.365-0.469-0.644l-0.429-2.797c-0.036-0.211-0.114-0.497,0.193-0.583c1.914-0.537,3.316-0.841,6.324-1.681
	c3.005-0.844,4.364-1.313,6.278-1.849c0.311-0.086,0.39,0.2,0.469,0.401l0.755,1.821c0.111,0.236,0.562,0.973,0.025,1.123
	c-0.823,0.229-0.801-2.232-3.148-1.484l-1.749,0.49c-0.848,0.236-1.023,0.397-0.748,1.381l2.597,9.264
	c0.705,2.522,3.176,1.188,3.337,1.763c0.136,0.49-0.293,0.544-0.891,0.712c-0.823,0.232-1.527,0.34-2.904,0.726
	c-1.381,0.386-2.039,0.658-2.858,0.891c-0.372,0.104-0.715,0.222-0.844-0.229c-0.225-0.801,2.379-0.469,1.695-2.908L95.458,25.181z"
	/>
<path d="M108.296,21.705c-1.002-1.431-2.239-0.755-2.318-1.431c-0.025-0.254,0.229-0.283,0.719-0.333
	c0.383-0.043,0.901-0.018,1.964-0.136c0.891-0.1,1.806-0.204,3.09-0.44c0.297-0.057,0.379,0.104,0.393,0.233
	c0.057,0.486-1.134,0.451-1.052,1.17c0.021,0.19,0.093,0.44,0.408,0.937l2.361,3.72c0.418,0.658,0.601,0.916,0.769,0.898
	c0.129-0.014,0.258-0.2,0.458-0.694l1.538-3.709c0.322-0.765,0.268-1.059,0.25-1.209c-0.161-1.395-2.168-0.694-2.243-1.352
	c-0.025-0.211,0.114-0.333,0.368-0.358c0.279-0.029,0.733,0.004,1.839-0.122c1.613-0.182,1.839-0.293,2.432-0.368
	c0.275-0.029,0.393,0.043,0.408,0.193c0.068,0.569-0.937,0.254-1.928,2.722l-2.186,5.562c-0.165,0.447-0.211,0.604-0.125,1.363
	l0.358,3.155c0.304,2.665,2.751,0.909,2.876,1.985c0.025,0.236-0.29,0.29-0.651,0.333c-0.172,0.018-0.522-0.029-3.18,0.272
	c-1.91,0.218-2.515,0.372-3.112,0.44c-0.34,0.039-0.576,0.021-0.601-0.168c-0.107-0.951,2.343-0.05,2.035-2.736l-0.311-2.751
	c-0.082-0.698-0.186-0.858-0.494-1.295L108.296,21.705z"/>
<path d="M143.049,24.488c0,0.215,0.029,0.712-0.333,0.669c-0.34-0.036-0.44-0.497-0.558-0.791c-0.833-2.15-2.5-4.199-4.965-4.475
	c-3.123-0.347-5.172,2.429-5.491,5.265c-0.333,2.987,0.901,7.369,4.961,7.819c3.291,0.365,5.044-2.246,5.598-2.186
	c0.107,0.011,0.286,0.136,0.272,0.265c-0.097,0.848-2.704,3.795-7.229,3.294c-6.227-0.694-6.578-6.22-6.388-7.894
	c0.393-3.555,3.105-7.994,8.456-7.401c2.572,0.286,4.063,1.76,4.7,1.831c0.404,0.043,0.504-0.651,0.801-0.619
	c0.107,0.011,0.254,0.05,0.24,0.154L143.049,24.488z"/>
<path d="M155.222,22.673c4.013,1.123,6.306,4.654,5.043,8.989c-0.833,2.862-3.545,7.508-10.091,5.602
	c-4.128-1.198-6.092-4.768-4.883-8.921C146.594,23.864,150.307,21.285,155.222,22.673 M151.026,36.559
	c3.548,0.966,5.494-1.438,6.485-4.836c1.313-4.518-0.501-7.619-3.158-8.349c-3.488-0.951-5.333,1.574-6.199,4.539
	C147.284,30.9,147.334,35.55,151.026,36.559"/>
<path d="M164.515,39.002c-0.565,1.195-0.977,1.849,0.415,2.511c4.789,2.275,5.72-0.376,6.453-0.025
	c0.079,0.036,0.186,0.157,0.011,0.522c-0.715,1.502-2.604,2.536-4.189,1.785c-2.933-1.395-4.056-2.021-5.022-2.482
	c-0.597-0.283-1.445-0.59-2.507-1.095c-0.25-0.122-0.318-0.272-0.265-0.386c0.422-0.887,1.395,0.851,2.507-1.495l4.332-9.1
	c0.776-1.638-1.653-2.153-1.331-2.829c0.082-0.172,0.368-0.225,0.773-0.036c0.773,0.368,1.856,0.977,2.59,1.323
	c1.642,0.78,1.91,0.816,2.218,0.966c0.404,0.193,0.494,0.258,0.383,0.49c-0.347,0.73-1.381-0.633-2.075,0.826L164.515,39.002z"/>
<path d="M176.29,45.43c-0.73,1.098-1.223,1.692,0.057,2.543c4.418,2.93,5.709,0.44,6.388,0.887c0.072,0.046,0.161,0.182-0.064,0.522
	c-0.916,1.384-2.933,2.143-4.392,1.173c-2.708-1.796-3.731-2.575-4.621-3.169c-0.551-0.365-1.349-0.791-2.325-1.438
	c-0.236-0.154-0.283-0.315-0.211-0.422c0.54-0.816,1.259,1.041,2.697-1.123l5.562-8.395c1.002-1.506-1.331-2.364-0.916-2.983
	c0.104-0.161,0.393-0.172,0.769,0.072c0.712,0.472,1.699,1.23,2.375,1.678c1.513,1.005,1.774,1.077,2.06,1.266
	c0.376,0.25,0.451,0.326,0.311,0.54c-0.447,0.672-1.281-0.823-2.171,0.526L176.29,45.43z"/>
<path d="M191.281,48.6c-0.612,0.687-0.708,0.798-0.021,1.406l1.005,0.894c1.377,1.223,2.729-0.2,3.048,0.082
	c0.111,0.1,0.318,0.225-0.05,0.669l-2.407,2.933c-0.165,0.222-0.579,0.88-0.966,0.54c-0.512-0.454,1.438-1.746-0.225-3.223
	l-1.184-1.048c-0.733-0.655-0.841-0.404-1.663,0.519l-1.81,2.039c-0.876,0.984-1.449,1.502-0.297,2.522
	c3.963,3.523,5.594,1.238,6.202,1.778c0.064,0.057,0.132,0.204-0.136,0.504c-1.102,1.245-3.209,1.713-4.521,0.547
	c-2.429-2.157-3.33-3.073-4.131-3.781c-0.497-0.44-1.223-0.973-2.103-1.756c-0.207-0.182-0.233-0.347-0.147-0.444
	c0.647-0.733,1.102,1.205,2.826-0.737l6.625-7.451c1.27-1.434-0.987-2.529-0.422-3.166c0.125-0.143,0.368-0.157,0.59,0.043
	c0.658,0.583,1.753,1.67,4.199,3.842c1.138,1.009,2.296,1.924,3.702,3.169c0.207,0.186,0.179,0.444,0.054,0.587l-1.338,1.635
	c-0.168,0.222-0.558,0.816-0.923,0.49c-0.751-0.669,2.15-1.424-0.937-4.164c-1.935-1.717-2.014-1.756-2.987-0.658L191.281,48.6z"/>
<path d="M208,65.856c-0.215,0.175-0.379,0.143-0.637-0.172c-0.297-0.365,3.298-3.302-0.258-7.655
	c-1.259-1.538-4.049-2.901-8.22,0.504c-2.257,1.849-4.31,5.458-2.121,8.141c2.432,2.98,3.86,1.896,4.815,1.116
	c2.572-2.103-0.157-3.155,0.469-3.67c0.479-0.39,0.78,0.247,1.009,0.533c0.637,0.776,1.191,1.592,1.828,2.372
	c0.501,0.612,1.037,1.137,1.527,1.731c0.064,0.082,0.082,0.236-0.086,0.368c-0.708,0.579-0.751-1.288-2.858,0.436
	c-0.68,0.551-1.098,0.98-1.331,1.166c-0.261,0.215-0.358,0.268-0.565,0.186c-2.139-0.873-4.4-2.089-5.87-3.895
	c-3.963-4.85-0.351-9.043,0.951-10.108c2.769-2.261,7.805-3.534,11.21,0.637c1.881,2.3,1.942,4.568,2.307,5.015
	c0.3,0.365,0.787,0.021,1.005,0.286c0.204,0.247-0.161,0.544-0.426,0.758L208,65.856z"/>
<path d="M212.066,73.3c-0.794,0.458-0.923,0.533-0.461,1.331l0.676,1.163c0.923,1.592,2.65,0.665,2.865,1.034
	c0.072,0.129,0.225,0.311-0.258,0.619l-3.205,2.028c-0.229,0.157-0.826,0.651-1.084,0.207c-0.343-0.59,1.91-1.202,0.794-3.126
	l-0.794-1.37c-0.494-0.848-0.672-0.647-1.738-0.029l-2.357,1.366c-1.145,0.662-1.849,0.973-1.077,2.304
	c2.658,4.586,4.922,2.93,5.326,3.631c0.043,0.075,0.064,0.236-0.286,0.44c-1.438,0.83-3.581,0.615-4.457-0.901
	c-1.631-2.811-2.2-3.963-2.736-4.89c-0.329-0.572-0.855-1.306-1.445-2.321c-0.139-0.24-0.111-0.404,0-0.469
	c0.848-0.49,0.665,1.492,2.915,0.19l8.62-4.993c1.656-0.962-0.143-2.711,0.594-3.137c0.165-0.097,0.397-0.032,0.551,0.225
	c0.436,0.758,1.137,2.132,2.776,4.961c0.758,1.313,1.57,2.547,2.515,4.174c0.139,0.24,0.032,0.476-0.132,0.572l-1.781,1.13
	c-0.229,0.157-0.783,0.601-1.03,0.175c-0.504-0.869,2.49-0.672,0.419-4.242c-1.298-2.239-1.359-2.3-2.629-1.567L212.066,73.3z"/>
<path d="M223.001,89.129c2.082-0.633,0.744-2.618,1.495-2.847c0.204-0.061,0.397,0.125,0.44,0.268
	c0.118,0.39,0.161,0.823,0.776,2.847c0.325,1.066,0.726,2.085,1.048,3.144c0.837,2.744,2.325,8.792-4.056,10.738
	c-5.891,1.796-9.35-2.983-10.019-5.169c-0.73-2.397-0.991-3.545-1.223-4.303c-0.19-0.633-0.458-1.223-0.655-1.856
	c-0.104-0.351-0.329-0.794,0.039-0.905c0.773-0.236,0.497,1.635,2.332,1.077L223.001,89.129z M214.087,94.594
	c-1.345,0.408-1.027,1.967-0.783,2.765c0.973,3.191,3.745,4.825,7.962,3.541c1.939-0.59,6.278-3.008,4.722-8.123
	c-0.469-1.531-1.016-1.499-2.422-1.07L214.087,94.594z"/>
<path d="M218.38,111.324c-2.59,0.419-1.241,2.625-1.914,2.733c-0.233,0.039-0.347-0.14-0.426-0.622
	c-0.125-0.78-0.165-1.574-0.429-3.223c-0.147-0.909-0.376-1.803-0.461-2.35c-0.032-0.19,0.107-0.258,0.215-0.275
	c0.733-0.118,0.429,1.492,2.429,1.17l10.098-1.624c1.917-0.311,0.944-2.6,1.681-2.718c0.358-0.057,0.379,0.479,0.408,0.669
	c0.132,0.826,0.179,1.663,0.3,2.4c0.122,0.762,0.326,1.509,0.519,2.708c0.1,0.637,0.079,0.748-0.175,0.787
	c-0.715,0.114-0.211-1.588-2.211-1.266L218.38,111.324z"/>
<path d="M220.741,115.5c0.293-0.079,0.901-0.322,0.926,0.211c0.018,0.343-0.172,0.393-0.444,0.494c-2.01,0.783-3.885,2.2-3.77,4.571
	c0.082,1.667,1.163,2.897,2.865,2.815c1.81-0.086,2.021-1.445,3.366-4.958c0.719-1.874,1.488-3.176,3.72-3.284
	c2.447-0.118,4.317,1.502,4.439,4.003c0.082,1.753-0.705,2.69-0.676,3.33c0.018,0.279,0.379,0.798,0.397,1.073
	c0.014,0.322-0.308,0.272-0.798,0.34l-2.837,0.372c-0.469,0.064-0.726,0.014-0.748-0.458c-0.021-0.49,3.917-1.002,3.741-4.675
	c-0.068-1.409-0.926-2.332-2.346-2.264c-1.427,0.068-1.645,1.256-2.765,4.181c-0.887,2.332-1.735,3.788-4.435,3.917
	c-2.786,0.136-4.775-1.738-4.908-4.536c-0.064-1.306,0.393-2.418,0.612-3.67c0.1-0.54,0.272-0.529,0.776-0.658L220.741,115.5z"/>
<path d="M229.021,134.002c1.016,0.1,1.145-0.1,1.23-0.973l0.175-1.788c0.236-2.404-2.6-2.042-2.507-2.997
	c0.043-0.447,0.497-0.272,0.769-0.204l2.765,0.619c0.207,0.043,0.508,0.072,0.476,0.39c-0.197,1.978-0.422,3.395-0.726,6.499
	c-0.308,3.105-0.365,4.539-0.562,6.521c-0.032,0.318-0.325,0.286-0.54,0.29l-1.974,0.039c-0.261,0.018-1.109,0.168-1.055-0.383
	c0.086-0.851,2.372,0.061,2.529-2.393l0.175-1.806c0.089-0.873,0.004-1.098-1.016-1.198l-9.579-0.951
	c-2.611-0.254-2.264,2.525-2.858,2.468c-0.508-0.05-0.404-0.469-0.343-1.087c0.086-0.851,0.24-1.545,0.383-2.969
	c0.14-1.424,0.125-2.135,0.207-2.987c0.039-0.383,0.05-0.744,0.519-0.697c0.826,0.079-0.429,2.382,2.093,2.633L229.021,134.002z"/>
<path d="M226.868,147.183c2.3,0.626,2.153-1.831,2.894-1.628c0.204,0.054,0.25,0.29,0.182,0.537
	c-0.258,0.948-0.386,1.091-0.74,2.389c-0.376,1.384-0.676,2.808-1.052,4.196c-1.234,4.518-4.246,4.142-5.19,3.885
	c-1.313-0.361-1.91-1.166-2.239-1.899c-0.311-0.726-0.333-1.377-0.54-1.431c-0.122-0.032-3.577,0.909-6.574,1.688
	c-0.376,0.097-0.483,0.486-0.529,0.651c-0.054,0.207,0.011,0.447-0.046,0.655c-0.05,0.186-0.207,0.275-0.372,0.229
	c-0.637-0.172-0.715-1.656-0.49-2.482c0.444-1.631,1.917-1.939,3.284-2.253l3.72-0.848c1.034-0.229,1.32-0.551,1.599-1.581
	c0.3-1.095,0.122-1.009-0.597-1.205l-3.555-0.969c-2.196-0.601-1.914,1.674-2.651,1.47c-0.186-0.05-0.265-0.25-0.136-0.726
	c0.097-0.351,0.333-0.884,0.569-1.749c0.3-1.116,0.501-2.171,0.783-3.201c0.061-0.225,0.118-0.676,0.529-0.565
	c0.655,0.179-0.476,1.667,2.11,2.372L226.868,147.183z M222.497,148.718c-0.515-0.139-0.719,0.622-0.891,1.241
	c-0.855,3.137,0.261,3.577,1.474,3.906c2.014,0.547,3.849-0.193,4.418-2.275c0.207-0.765,0.383-1.406-0.848-1.742L222.497,148.718z"
	/>
<path d="M211.601,162.417c-2.414-1.016-2.436,1.574-3.065,1.309c-0.215-0.089-0.218-0.3-0.029-0.758
	c0.304-0.726,0.69-1.424,1.334-2.962c0.354-0.848,0.633-1.731,0.844-2.239c0.075-0.179,0.233-0.161,0.329-0.118
	c0.687,0.286-0.419,1.492,1.449,2.275l9.422,3.956c1.788,0.751,2.171-1.71,2.862-1.42c0.333,0.14,0.068,0.608-0.007,0.783
	c-0.322,0.769-0.723,1.506-1.012,2.196c-0.297,0.708-0.519,1.452-0.991,2.579c-0.247,0.594-0.326,0.676-0.562,0.576
	c-0.669-0.283,0.658-1.463-1.209-2.246L211.601,162.417z"/>
<path d="M210.149,181.784c-0.197-0.086-0.662-0.261-0.479-0.576c0.172-0.293,0.633-0.2,0.948-0.19
	c2.304,0.104,4.85-0.59,6.095-2.736c1.577-2.715-0.125-5.716-2.59-7.154c-2.597-1.509-7.1-2.15-9.15,1.381
	c-1.667,2.865,0.018,5.526-0.265,6.006c-0.054,0.093-0.243,0.207-0.354,0.143c-0.733-0.429-2.375-4.006-0.086-7.944
	c3.148-5.419,8.338-3.509,9.794-2.661c3.09,1.799,6.052,6.074,3.344,10.734c-1.302,2.236-3.248,3.008-3.57,3.559
	c-0.207,0.354,0.39,0.726,0.24,0.984c-0.054,0.093-0.147,0.215-0.24,0.157L210.149,181.784z"/>
<path d="M206.279,190.318c0.787,0.655,1.005,0.558,1.567-0.118l1.145-1.381c1.545-1.856-1.012-3.148-0.397-3.885
	c0.286-0.347,0.565,0.054,0.751,0.261l1.946,2.06c0.15,0.15,0.379,0.343,0.172,0.59c-1.27,1.527-2.25,2.575-4.242,4.972
	c-1.996,2.4-2.847,3.555-4.117,5.086c-0.204,0.247-0.433,0.054-0.612-0.064l-1.656-1.073c-0.225-0.129-1.016-0.476-0.658-0.905
	c0.547-0.658,1.928,1.381,3.434-0.565l1.159-1.399c0.562-0.672,0.615-0.905-0.172-1.556l-7.408-6.156
	c-2.014-1.674-3.287,0.826-3.749,0.444c-0.393-0.326-0.072-0.612,0.329-1.095c0.544-0.655,1.059-1.145,1.974-2.243
	c0.916-1.102,1.302-1.699,1.849-2.357c0.243-0.293,0.461-0.587,0.819-0.29c0.64,0.533-1.688,1.738,0.261,3.355L206.279,190.318z"/>
<path d="M90.125,218.222c-0.233,0.651-0.272,0.758,0.415,1.002l1.009,0.361c1.374,0.494,1.917-0.887,2.236-0.769
	c0.114,0.039,0.3,0.072,0.168,0.486l-0.851,2.736c-0.054,0.204-0.15,0.783-0.537,0.647c-0.512-0.186,0.511-1.631-1.148-2.225
	l-1.184-0.426c-0.733-0.261-0.733-0.057-1.048,0.823l-0.694,1.939c-0.336,0.941-0.594,1.463,0.554,1.874
	c3.96,1.42,4.446-0.647,5.054-0.429c0.064,0.021,0.161,0.107,0.054,0.397c-0.422,1.18-1.806,2.085-3.116,1.617
	c-2.429-0.869-3.366-1.273-4.164-1.56c-0.497-0.175-1.188-0.358-2.064-0.669c-0.211-0.075-0.279-0.186-0.247-0.275
	c0.25-0.701,1.173,0.554,1.831-1.295l2.536-7.093c0.486-1.363-1.492-1.524-1.273-2.132c0.047-0.136,0.218-0.211,0.444-0.132
	c0.655,0.236,1.781,0.708,4.224,1.585c1.134,0.404,2.261,0.74,3.663,1.245c0.207,0.072,0.268,0.265,0.218,0.401l-0.472,1.524
	c-0.057,0.2-0.154,0.73-0.522,0.601c-0.751-0.272,1.13-1.599-1.953-2.701c-1.932-0.694-2-0.701-2.375,0.347L90.125,218.222z"/>
<path d="M96.359,224.488c0.004-0.232-0.05-0.723,0.361-0.626c0.265,0.068,0.261,0.215,0.279,0.436
	c0.157,1.631,0.83,3.305,2.658,3.752c1.284,0.315,2.454-0.193,2.761-1.445c0.326-1.331-0.662-1.788-3.04-3.548
	c-1.27-0.941-2.093-1.788-1.688-3.43c0.44-1.803,2.078-2.794,4.003-2.321c1.352,0.333,1.892,1.112,2.386,1.234
	c0.215,0.054,0.687-0.097,0.901-0.046c0.247,0.064,0.14,0.286,0.086,0.655l-0.333,2.139c-0.054,0.351-0.147,0.529-0.508,0.44
	c-0.379-0.093,0.086-3.065-2.747-3.759c-1.084-0.265-1.971,0.147-2.228,1.195c-0.258,1.048,0.601,1.474,2.579,2.937
	c1.581,1.17,2.504,2.107,2.017,4.096c-0.501,2.046-2.357,3.069-4.514,2.54c-1.002-0.247-1.749-0.826-2.654-1.266
	c-0.39-0.193-0.343-0.315-0.333-0.712L96.359,224.488z"/>
<path d="M111.236,221.163c0.1-0.765-0.057-0.869-0.748-0.959l-1.413-0.182c-1.899-0.247-1.667,1.91-2.425,1.814
	c-0.351-0.043-0.204-0.383-0.143-0.587l0.54-2.071c0.039-0.161,0.068-0.383,0.322-0.358c1.563,0.2,2.679,0.411,5.136,0.726
	c2.454,0.318,3.588,0.401,5.151,0.612c0.254,0.032,0.222,0.254,0.218,0.415l-0.004,1.495c0.007,0.197,0.111,0.844-0.325,0.787
	c-0.672-0.089,0.093-1.792-1.846-1.978l-1.431-0.182c-0.687-0.093-0.866-0.032-0.966,0.733l-0.941,7.218
	c-0.254,1.967,1.957,1.781,1.899,2.228c-0.05,0.383-0.379,0.29-0.866,0.229c-0.672-0.089-1.22-0.225-2.346-0.368
	c-1.127-0.143-1.688-0.154-2.361-0.24c-0.304-0.039-0.59-0.061-0.547-0.411c0.082-0.626,1.881,0.39,2.128-1.513L111.236,221.163z"/>
<path d="M119.914,230.079c-0.025,0.401-1.191,1.377-1.613,1.352c-0.422-0.025-1.459-1.137-1.434-1.538
	c0.025-0.401,1.188-1.381,1.613-1.352C118.901,228.566,119.939,229.675,119.914,230.079"/>
<path d="M132.537,229.669c0.111,1.817,2.021,0.808,2.057,1.374c0.018,0.322-0.308,0.293-0.848,0.326
	c-0.526,0.032-1.459,0.029-2.085,0.064c-0.644,0.039-2.01,0.19-2.418,0.215c-0.118,0.007-0.147-0.182-0.15-0.232
	c-0.036-0.612,1.753,0.054,1.66-1.488l-0.404-6.635c-0.057-0.948-0.379-0.912-0.619-0.898c-0.404,0.025-0.919,0.222-1.037,0.229
	c-0.186,0.007-0.25-0.211-0.254-0.261c-0.018-0.318,0.401-0.379,0.601-0.44c2.486-0.751,2.769-1.413,2.905-1.42
	c0.05-0.007,0.172,0.021,0.179,0.15c0.018,0.286-0.075,1.002-0.036,1.613L132.537,229.669z"/>
<path d="M138.7,230.794c-0.057-0.347,0.655-0.411,1.817-1.087c1.728-1.009,2.554-3.126,2.422-3.956
	c-0.011-0.061-0.039-0.24-0.154-0.218c-0.168,0.025-0.322,0.243-0.644,0.49c-0.336,0.25-0.858,0.529-1.781,0.676
	c-1.906,0.304-3.212-0.891-3.488-2.608c-0.376-2.35,1.08-4.181,3.541-4.575c2.661-0.422,4.314,1.42,4.689,3.77
	c0.769,4.804-4.01,7.34-6.002,7.658C138.968,230.965,138.732,230.983,138.7,230.794 M141.311,225.553
	c1.323-0.211,1.953-1.306,1.767-2.482c-0.222-1.384-1.273-3.223-3.03-2.94c-1.556,0.247-1.724,1.545-1.531,2.769
	C138.732,224.233,139.637,225.818,141.311,225.553"/>
<path d="M152.768,216.731c0.089,0.343-0.64,0.433-1.692,1.295c-1.592,1.281-2.186,3.552-1.974,4.36
	c0.018,0.064,0.061,0.232,0.175,0.204c0.165-0.043,0.297-0.279,0.59-0.554c0.311-0.283,0.805-0.612,1.706-0.848
	c1.867-0.486,3.287,0.572,3.724,2.253c0.608,2.304-0.665,4.271-3.073,4.9c-2.608,0.683-4.428-0.987-5.033-3.291
	c-1.234-4.704,3.212-7.916,5.162-8.427C152.485,216.588,152.718,216.545,152.768,216.731 M150.736,222.407
	c-1.295,0.34-1.817,1.492-1.513,2.643c0.354,1.356,1.577,3.08,3.298,2.629c1.524-0.397,1.567-1.706,1.252-2.908
	C153.43,223.466,152.374,221.978,150.736,222.407"/>
<path d="M156.423,215.725c-0.029-0.129,0.19-0.261,0.304-0.3l3.513-1.302c0.54-0.2,0.368-0.769,0.687-0.887
	c0.172-0.064,0.222,0.021,0.243,0.082c0.025,0.057,0.011,0.165,0.018,0.333l0.047,1.356c0.032,0.522-0.032,0.497-0.73,0.755
	l-2.404,0.887c-0.683,0.254-0.816,0.286-0.683,0.994l0.24,1.284c0.046,0.272,0.086,0.515,0.29,0.444
	c0.097-0.039,0.197-0.111,0.408-0.222c0.229-0.118,0.537-0.268,1.027-0.447c1.957-0.726,3.72-0.501,4.468,1.52
	c0.526,1.424,0.293,4.271-2.915,5.462c-0.465,0.168-2.683,0.715-2.89,0.157c-0.054-0.15,0.1-0.225,0.179-0.254
	c0.268-0.1,1.041,0.025,2.042-0.343c1.653-0.615,2.769-2.143,2.15-3.82c-0.547-1.481-1.896-1.513-3.28-1.002
	c-0.683,0.254-0.959,0.44-1.42,0.612c-0.272,0.1-0.318-0.125-0.415-0.637L156.423,215.725z"/>
<path d="M139.898,183.307c-6.374-0.186-9.021-1.252-10.227-4.518c-0.222,0.004-0.436,0.011-0.655,0.011h-0.004
	c-0.401,0-0.805-0.004-1.213-0.007c-3.316-0.057-6.385-0.304-9.268-0.69c-1.091,3.802-3.652,5.004-10.448,5.204h-4.893
	c0,0-1.095,1.331-1.095,1.86c0,0.916,1.077,1.098,3.405,1.098c3.849,0,6.997-0.39,10.277-0.705h8.188h0.05h8.188
	c3.28,0.315,6.428,0.705,10.273,0.705c2.332,0,3.409-0.182,3.409-1.098c0-0.529-1.095-1.86-1.095-1.86H139.898z"/>
<path d="M170.982,76.824c0-1.824-0.533-2.371-2.869-2.371c-5.376,0-11.654,1.281-42.305,1.281c-0.615,0-1.191-0.007-1.788-0.007
	h-0.029h-0.025c-0.597,0-1.173,0.007-1.788,0.007c-30.654,0-36.928-1.281-42.308-1.281c-2.332,0-2.865,0.547-2.865,2.371
	c0,5.104,0.533,15.506,0,21.887c-0.039,0.354,0.104,0.526,0.34,0.587c0.987-0.411,2.014-0.787,3.076-1.134V86.114
	c1.313-5.916,6.585-6.553,22.574-6.553h15.238c1.252,0,1.617,0.544,1.617,4.192c0.025,0.572,0.047,1.284,0.064,2.107
	c2.597-0.508,5.326-0.869,8.188-1.077c0.011-0.376,0.021-0.726,0.036-1.03c0-3.648,0.365-4.192,1.617-4.192h15.234
	c15.989,0,21.265,0.637,22.578,6.553v12.051c1.059,0.347,2.089,0.723,3.076,1.134c0.236-0.061,0.379-0.233,0.34-0.587
	C170.449,92.33,170.982,81.929,170.982,76.824"/>
<path d="M128.459,168.275h-6.893l-1.263-1.263v-2.239l1.263-1.263h5.787c0.343-0.107,0.644-0.24,0.912-0.401
	c-0.222-7.233-0.304-15.316-0.304-21.533v-27.725c0-4.31,0-8.17,0.004-11.632h-6.399l-1.263-1.263v-2.239l1.263-1.263h6.406
	c0.007-2.679,0.018-5.026,0.036-7.032c-2.862,0.061-5.534,0.329-8.027,0.787c0.039,5.351,0.039,12.934,0.039,22.642v27.725
	c0,8.831-0.165,21.419-0.665,29.993c2.922,0.687,6.038,1.127,9.354,1.306c-0.011-0.161-0.021-0.311-0.032-0.476
	C128.595,171.118,128.523,169.727,128.459,168.275"/>
<path d="M154.048,98.202c-4.271,0-7.773,0.254-10.892,0.519h-21.59v2.236h6.646c1.613,0.469,2.647,1.281,2.958,2.604
	c0.773,3.237,0.994,8.817,0.994,24.788v5.58c0,3.684,0,23.558-0.88,26.798c-0.637,2.214-1.692,3.459-3.745,4.046h-5.973v2.239
	h21.623l-0.004-0.004c2.608,0.222,5.73,0.419,9.643,0.419c18.453,0,39.003-9.711,39.003-36.513
	C191.832,107.798,175.149,98.202,154.048,98.202 M154.156,164.858c-8.07,0-14.032-1.005-15.359-3.573
	c-1.105-2.236-1.656-7.254-1.656-22.664V128.57c0-14.515,0.329-22.556,1.102-25.235c0.365-1.281,1.459-1.992,3.724-2.379
	l0.647-0.093c1.835-0.243,4.325-0.318,7.676-0.318c17.674,0,35.14,6.027,35.14,33.047
	C185.429,158.938,169.072,164.858,154.156,164.858"/>
<path d="M113.915,164.554c0.955-0.383,0.905-1.917,0.905-1.917v-20.317l-2.815,0.604V159.8c-0.601,1.205-4.164,2.969-8.213,4.307
	c1.116,0.923,2.307,1.774,3.552,2.558C110.449,165.873,112.735,165.026,113.915,164.554"/>
<path d="M91.538,165.842c-18.192-1.255-30.111-12.673-30.111-33.924c0-16.415,9.06-32.046,31.27-32.046c0.039,0,0.079,0,0.118,0
	c0.862-0.883,1.778-1.728,2.726-2.554c-28.877,0.311-40.412,19.881-40.412,36.163v0.111c0,32.271,26.741,34.789,36.463,34.95
	c0.969,0.014,1.914-0.004,2.847-0.036C93.401,167.655,92.439,166.764,91.538,165.842"/>
<path d="M112.001,107.088v16.336l2.815,0.604l-0.068-21.848c-0.107-1.009-0.619-1.699-1.502-2.196
	c-1.03-0.519-4.074-1.531-8.753-2.153c-1.13,0.862-2.178,1.788-3.158,2.765C106.067,101.512,110.066,103.433,112.001,107.088"/>
<path d="M157.661,114.111l-0.047-11.879c-1.155-0.139-2.339-0.247-3.57-0.315v11.418L157.661,114.111z"/>
<path d="M157.661,168.46c-1.62,0.15-3.241,0.229-4.832,0.229c-0.63,0-1.23-0.007-1.817-0.018
	c-4.793,2.636-13.979,5.559-19.645,5.559c-25.4-0.297-42.29-15.098-42.29-43.843c0-21.133,11.639-41.253,40.166-41.253
	c9.676,0,19.412,1.627,23.876,7.816c0.315-0.004,3.312,0.043,4.475,0.1l-0.021-4.943c-0.136-1.298-0.798-2.189-1.928-2.826
	c-1.992-1.005-9.794-3.452-21.859-3.452c-37.755,0-52.799,25.443-52.799,46.572v0.136c0,41.546,34.349,44.787,46.837,44.991
	c14.133,0.232,25.171-3.727,28.673-5.133c1.23-0.49,1.166-2.465,1.166-2.465V168.46z"/>
<path d="M157.661,148.075l-3.616,0.78v14.741h0.111c1.155,0,2.329-0.043,3.505-0.125V148.075z"/>
<path d="M219.607,236.476c-0.454-0.179-0.705-0.258-1.17-0.258c-0.497,0-1.087,0.179-1.087,0.83c0,1.195,2.676,0.919,2.676,2.969
	c0,1.331-1.027,1.856-2.271,1.856c-0.44,0-0.869-0.125-1.277-0.261l0.089-0.826c0.3,0.125,0.837,0.3,1.291,0.3
	c0.508,0,1.223-0.283,1.223-1.016c0-1.391-2.676-1.005-2.676-2.944c0-1.105,0.873-1.692,1.996-1.692
	c0.411,0,0.901,0.072,1.331,0.222L219.607,236.476z"/>
<polygon points="221.249,235.541 222.722,235.541 224.672,240.713 226.589,235.541 228.063,235.541 228.063,241.764 
	227.168,241.764 227.168,236.378 227.15,236.378 225.094,241.764 224.217,241.764 222.157,236.378 222.139,236.378 222.139,241.764 
	221.249,241.764 "/>
</svg>
