<?xml version="1.0" encoding="utf-8"?>
<!-- Generator: Adobe Illustrator 22.0.1, SVG Export Plug-In . SVG Version: 6.00 Build 0)  -->
<svg version="1.1" id="Layer_1" xmlns="http://www.w3.org/2000/svg" xmlns:xlink="http://www.w3.org/1999/xlink" x="0px" y="0px"
	 width="250.1px" height="68.77px" viewBox="0 0 250.1 68.77" enable-background="new 0 0 250.1 68.77" xml:space="preserve">
<g>
	<path d="M112.73,38.74l-0.44,1.34H0.05v-1.34H112.73z M137.37,38.74l0.44,1.34h112.25v-1.34H137.37z"/>
	<path d="M44.77,49.51v0.53c-1.09,0.07-1.8,0.26-2.13,0.55c-0.33,0.29-0.49,0.96-0.49,2.01v9.11c0,1.49,0.2,2.66,0.61,3.49
		c0.76,1.52,2.2,2.28,4.33,2.28c2.33,0,3.89-0.78,4.69-2.34c0.44-0.87,0.67-2.22,0.67-4.03v-7.42c0-1.55-0.19-2.52-0.56-2.92
		c-0.37-0.39-1.08-0.64-2.12-0.74v-0.53h6.59v0.53c-1.1,0.12-1.82,0.39-2.16,0.8c-0.34,0.41-0.51,1.37-0.51,2.86v7.42
		c0,1.97-0.3,3.5-0.91,4.61c-1.11,2.03-3.23,3.05-6.34,3.05c-3.08,0-5.18-1-6.29-3c-0.6-1.08-0.9-2.49-0.9-4.26v-8.91
		c0-1.04-0.16-1.7-0.48-2c-0.32-0.29-1.02-0.48-2.09-0.56v-0.53H44.77z M58.4,68.36h6.69v-0.53c-1.03-0.11-1.69-0.32-1.99-0.63
		c-0.46-0.47-0.68-1.49-0.68-3.04V53.07l12.61,15.62h0.49v-15c0-1.49,0.18-2.45,0.54-2.87c0.36-0.42,1.09-0.68,2.17-0.79v-0.53
		h-6.69v0.53c1.05,0.09,1.72,0.29,2.03,0.59c0.47,0.47,0.7,1.48,0.7,3.04v9.47l-11-13.63H58.4v0.53c0.58,0.02,1.02,0.09,1.31,0.2
		c0.29,0.12,0.65,0.42,1.07,0.91l0.39,0.46v12.55c0,1.5-0.17,2.46-0.5,2.87c-0.34,0.41-1.09,0.68-2.27,0.8V68.36z M80.29,68.36h8.43
		v-0.53c-1.16-0.08-1.91-0.25-2.25-0.52c-0.34-0.26-0.51-0.94-0.51-2.04V52.59c0-1.05,0.17-1.72,0.51-2.02
		c0.34-0.3,1.09-0.48,2.25-0.53v-0.53h-8.43v0.53c1.16,0.05,1.91,0.23,2.25,0.53c0.34,0.3,0.51,0.98,0.51,2.02v12.68
		c0,1.1-0.17,1.78-0.51,2.04c-0.34,0.26-1.09,0.43-2.25,0.52V68.36z M90.87,49.51v0.49c0.69,0.05,1.21,0.23,1.57,0.56
		c0.36,0.33,0.83,1.15,1.43,2.48l7.04,15.66h0.43l6.31-16.03c0.43-1.09,0.86-1.82,1.29-2.18c0.29-0.24,0.73-0.4,1.34-0.49v-0.49
		h-5.83v0.49c0.64,0.02,1.1,0.09,1.38,0.2c0.47,0.2,0.71,0.58,0.71,1.13c0,0.21-0.05,0.48-0.14,0.81c-0.09,0.33-0.23,0.73-0.41,1.21
		l-4.05,10.74l-4.46-9.92c-0.44-0.98-0.74-1.69-0.91-2.11c-0.16-0.42-0.24-0.75-0.24-0.99c0-0.46,0.23-0.77,0.68-0.92
		c0.26-0.09,0.74-0.13,1.46-0.14v-0.49H90.87z M112.41,68.36h15.4l1.3-4.81h-0.79c-0.73,1.62-1.56,2.65-2.48,3.07
		c-0.92,0.42-2.35,0.63-4.28,0.63c-1.78,0-2.85-0.05-3.21-0.15c-0.36-0.1-0.54-0.44-0.54-1v-7.05h4.4c1.21,0,1.98,0.18,2.31,0.54
		c0.33,0.36,0.61,1.09,0.82,2.19H126v-6.58h-0.67c-0.2,1.1-0.47,1.83-0.81,2.19c-0.33,0.36-1.11,0.54-2.32,0.54h-4.4v-6.36
		c0-0.37,0.05-0.62,0.15-0.76c0.1-0.13,0.36-0.2,0.77-0.2h3.88c1.67,0,2.74,0.18,3.23,0.55c0.48,0.37,0.85,1.18,1.09,2.44h0.72
		l-0.1-4.08h-15.14v0.53c1.06,0.07,1.74,0.27,2.05,0.58c0.31,0.31,0.46,0.97,0.46,1.98v12.68c0,1.07-0.16,1.74-0.47,2
		c-0.31,0.26-0.99,0.45-2.04,0.56V68.36z M131.06,68.36h7.92v-0.53c-1.08-0.09-1.77-0.28-2.09-0.56c-0.32-0.28-0.48-0.95-0.48-2
		v-5.62l1.25-0.07l7.13,8.78h4.59v-0.53c-0.57-0.06-1.03-0.18-1.39-0.39c-0.36-0.2-0.72-0.52-1.09-0.96l-5.87-7.23
		c1.59-0.24,2.84-0.74,3.76-1.5c0.92-0.76,1.38-1.85,1.38-3.27c0-2.11-1.04-3.56-3.12-4.35c-1.09-0.42-2.46-0.63-4.1-0.63h-7.89
		v0.53c1.03,0.09,1.69,0.28,2,0.59c0.3,0.31,0.45,0.97,0.45,1.97v12.34c0,1.18-0.13,1.93-0.4,2.26c-0.27,0.32-0.95,0.54-2.05,0.64
		V68.36z M140.8,57.95c-0.88,0.35-2.35,0.57-4.4,0.64v-7.01c0-0.43,0.09-0.7,0.27-0.81c0.18-0.11,0.67-0.17,1.48-0.17
		c1.19,0,2.16,0.16,2.88,0.49c1.35,0.6,2.03,1.73,2.03,3.37C143.07,56.16,142.31,57.33,140.8,57.95 M150.59,62.62l0.85,6.07h0.63
		c0.04-0.23,0.11-0.45,0.23-0.65c0.12-0.2,0.34-0.31,0.67-0.31c0.14,0,0.69,0.17,1.65,0.5c0.96,0.34,1.88,0.5,2.76,0.5
		c1.75,0,3.19-0.5,4.32-1.5c1.13-1,1.69-2.25,1.69-3.74c0-1.11-0.32-2.08-0.95-2.89c-0.64-0.81-1.75-1.69-3.31-2.66l-2.5-1.54
		c-0.94-0.58-1.63-1.13-2.07-1.66c-0.45-0.52-0.67-1.15-0.67-1.88c0-0.82,0.29-1.46,0.87-1.91c0.58-0.46,1.26-0.69,2.04-0.69
		c1,0,2.02,0.36,3.04,1.09c1.03,0.72,1.77,2,2.24,3.83h0.68l-0.63-6.07h-0.58c-0.07,0.31-0.18,0.54-0.31,0.71
		c-0.13,0.17-0.38,0.25-0.73,0.25c-0.13,0-0.65-0.16-1.57-0.48c-0.91-0.32-1.7-0.48-2.34-0.48c-1.58,0-2.84,0.48-3.8,1.43
		c-0.95,0.96-1.43,2.15-1.43,3.59c0,1.09,0.4,2.08,1.21,2.98c0.44,0.47,1.02,0.94,1.75,1.41l2.43,1.52c1.4,0.87,2.31,1.53,2.75,1.96
		c0.67,0.69,1,1.49,1,2.42c0,1.03-0.33,1.83-0.99,2.41c-0.66,0.57-1.45,0.86-2.36,0.86c-1.68,0-3.08-0.66-4.21-1.99
		c-0.65-0.76-1.21-1.78-1.7-3.06H150.59z M165.4,68.36h8.43v-0.53c-1.16-0.08-1.91-0.25-2.25-0.52c-0.34-0.26-0.51-0.94-0.51-2.04
		V52.59c0-1.05,0.17-1.72,0.51-2.02c0.34-0.3,1.1-0.48,2.25-0.53v-0.53h-8.43v0.53c1.16,0.05,1.91,0.23,2.25,0.53
		c0.35,0.3,0.52,0.98,0.52,2.02v12.68c0,1.1-0.17,1.78-0.52,2.04c-0.34,0.26-1.09,0.43-2.25,0.52V68.36z M175.88,54.35h0.69
		c0.29-1.53,0.72-2.52,1.29-2.98c0.57-0.45,1.64-0.68,3.22-0.68h1.6v14.25c0,1.23-0.15,1.99-0.44,2.3c-0.3,0.3-1.05,0.5-2.26,0.59
		v0.53h8.31v-0.53c-1.16-0.08-1.91-0.25-2.25-0.52c-0.35-0.26-0.52-0.94-0.52-2.04V50.69h1.59c1.65,0,2.74,0.23,3.25,0.69
		c0.52,0.46,0.94,1.45,1.28,2.97h0.68l-0.16-4.84h-16.11L175.88,54.35z M194.06,49.51v0.53c0.74,0.04,1.37,0.32,1.89,0.86
		c0.52,0.53,1.42,1.74,2.71,3.63l3.73,5.47v4.95c0,1.24-0.16,2.02-0.47,2.33c-0.31,0.31-1.11,0.5-2.4,0.57v0.53h8.69v-0.53
		c-1.24-0.06-2.04-0.23-2.4-0.51c-0.36-0.27-0.53-0.96-0.53-2.06v-5.54l4.21-6.43c0.88-1.34,1.67-2.25,2.37-2.74
		c0.46-0.32,0.97-0.49,1.54-0.51v-0.53h-6.23v0.53c0.63,0.01,1.07,0.06,1.33,0.14c0.44,0.13,0.66,0.4,0.66,0.81
		c0,0.08-0.03,0.21-0.08,0.39c-0.05,0.18-0.16,0.4-0.32,0.67l-4.09,6.25l-4.19-6.15c-0.19-0.3-0.32-0.54-0.38-0.72
		c-0.05-0.18-0.08-0.33-0.08-0.45c0-0.4,0.17-0.66,0.5-0.78c0.33-0.12,0.83-0.17,1.5-0.15v-0.53H194.06z M0.05,13.72h0.79
		c0.33-1.74,0.82-2.87,1.47-3.39c0.65-0.52,1.87-0.78,3.66-0.78h1.82v16.21c0,1.4-0.17,2.27-0.51,2.62
		c-0.34,0.35-1.19,0.57-2.57,0.68v0.6h9.45v-0.6c-1.32-0.09-2.17-0.29-2.57-0.59c-0.39-0.3-0.59-1.07-0.59-2.32V9.55h1.8
		c1.88,0,3.11,0.26,3.7,0.78c0.59,0.52,1.07,1.65,1.45,3.38h0.78l-0.18-5.51H0.24L0.05,13.72z M20.82,29.66h17.53l1.47-5.48h-0.9
		c-0.84,1.85-1.78,3.01-2.82,3.49c-1.04,0.48-2.67,0.72-4.87,0.72c-2.03,0-3.25-0.06-3.66-0.17c-0.41-0.12-0.61-0.5-0.61-1.14v-8.03
		h5c1.37,0,2.25,0.2,2.63,0.61c0.38,0.41,0.69,1.24,0.94,2.49h0.76v-7.49h-0.76c-0.23,1.25-0.54,2.08-0.92,2.49
		c-0.38,0.41-1.26,0.62-2.65,0.62h-5v-7.24c0-0.42,0.05-0.71,0.17-0.86c0.11-0.15,0.41-0.23,0.88-0.23h4.42
		c1.9,0,3.12,0.21,3.67,0.63c0.55,0.42,0.96,1.35,1.24,2.77h0.82l-0.11-4.64H20.82v0.6c1.2,0.09,1.98,0.3,2.33,0.66
		c0.35,0.35,0.52,1.11,0.52,2.26v14.42c0,1.22-0.18,1.98-0.53,2.28c-0.35,0.3-1.13,0.51-2.32,0.64V29.66z M40.53,29.66h7.48v-0.6
		c-0.78-0.05-1.33-0.14-1.65-0.25c-0.55-0.19-0.81-0.51-0.81-0.98c0-0.25,0.17-0.64,0.52-1.15c0.22-0.33,0.61-0.84,1.16-1.54
		l3.8-4.78c2.18,3.19,3.51,5.18,3.99,5.97c0.48,0.79,0.72,1.35,0.72,1.69c0,0.39-0.18,0.66-0.54,0.8c-0.36,0.14-1,0.22-1.92,0.24
		v0.6h9.53v-0.6c-0.84-0.13-1.48-0.32-1.92-0.58c-0.44-0.26-0.98-0.87-1.64-1.83l-6.14-8.9l4.69-5.88c1.11-1.36,2.04-2.25,2.79-2.66
		c0.48-0.25,1.15-0.39,2.01-0.41v-0.6H54.9v0.6c0.75,0.01,1.27,0.06,1.55,0.16c0.46,0.16,0.69,0.48,0.69,0.95
		c0,0.19-0.06,0.4-0.17,0.63c-0.19,0.39-0.55,0.91-1.09,1.55l-3.64,4.42l-3.34-4.85c-0.19-0.27-0.34-0.51-0.44-0.73
		c-0.21-0.41-0.31-0.76-0.31-1.06c0-0.46,0.21-0.76,0.65-0.9c0.28-0.1,0.89-0.16,1.83-0.19v-0.6h-9.76v0.6
		c1.04,0.04,1.88,0.34,2.51,0.89c0.63,0.56,1.71,1.97,3.26,4.23l3.55,5.21l-5.01,6.2c-1.34,1.66-2.24,2.67-2.69,3.04
		c-0.45,0.36-1.11,0.59-1.98,0.69V29.66z M68.83,29.66v-0.6c-0.76-0.06-1.27-0.16-1.55-0.28c-0.44-0.21-0.66-0.59-0.66-1.13
		c0-0.27,0.08-0.64,0.25-1.11c0.16-0.47,0.67-1.76,1.51-3.88h8.55l1.3,3.12c0.19,0.44,0.34,0.86,0.44,1.26
		c0.1,0.4,0.16,0.68,0.16,0.84c0,0.47-0.14,0.77-0.41,0.89c-0.27,0.12-0.89,0.22-1.83,0.31v0.6h8.25v-0.6
		c-0.76-0.11-1.3-0.3-1.62-0.59c-0.32-0.29-0.75-1.04-1.29-2.26L73.83,7.83h-0.65l-6.75,15.91c-1.01,2.38-1.73,3.84-2.14,4.38
		c-0.42,0.54-1.04,0.85-1.88,0.94v0.6H68.83z M68.92,21.33l3.73-8.93l3.72,8.93H68.92z M85.91,23.14l0.97,6.9h0.71
		c0.04-0.26,0.13-0.51,0.26-0.74c0.13-0.23,0.39-0.35,0.77-0.35c0.16,0,0.78,0.19,1.88,0.57c1.09,0.38,2.14,0.57,3.14,0.57
		c2,0,3.63-0.57,4.92-1.71c1.28-1.14,1.92-2.56,1.92-4.26c0-1.27-0.36-2.36-1.08-3.29c-0.73-0.92-1.99-1.93-3.77-3.02l-2.85-1.76
		c-1.07-0.65-1.85-1.28-2.36-1.88c-0.51-0.59-0.76-1.31-0.76-2.14c0-0.93,0.33-1.65,0.99-2.18c0.66-0.52,1.43-0.78,2.32-0.78
		c1.14,0,2.29,0.41,3.46,1.24c1.17,0.82,2.01,2.28,2.54,4.35h0.78l-0.71-6.9h-0.66c-0.09,0.35-0.2,0.62-0.36,0.81
		c-0.15,0.19-0.43,0.29-0.83,0.29c-0.15,0-0.74-0.18-1.78-0.55c-1.04-0.36-1.93-0.55-2.67-0.55c-1.79,0-3.24,0.55-4.32,1.63
		c-1.09,1.09-1.63,2.45-1.63,4.09c0,1.24,0.46,2.37,1.38,3.39c0.5,0.54,1.16,1.07,1.99,1.6l2.77,1.73c1.59,0.99,2.63,1.74,3.13,2.23
		c0.76,0.78,1.14,1.7,1.14,2.75c0,1.17-0.38,2.09-1.13,2.74c-0.76,0.65-1.65,0.98-2.68,0.98c-1.91,0-3.5-0.76-4.79-2.27
		c-0.74-0.87-1.38-2.03-1.93-3.48H85.91z M150.66,23.14l0.97,6.9h0.71c0.04-0.26,0.13-0.51,0.26-0.74c0.13-0.23,0.39-0.35,0.77-0.35
		c0.16,0,0.78,0.19,1.88,0.57c1.09,0.38,2.14,0.57,3.14,0.57c2,0,3.64-0.57,4.92-1.71c1.28-1.14,1.92-2.56,1.92-4.26
		c0-1.27-0.36-2.36-1.08-3.29c-0.73-0.92-1.99-1.93-3.77-3.02l-2.85-1.76c-1.07-0.65-1.85-1.28-2.36-1.88
		c-0.51-0.59-0.76-1.31-0.76-2.14c0-0.93,0.33-1.65,0.99-2.18c0.66-0.52,1.43-0.78,2.32-0.78c1.14,0,2.29,0.41,3.46,1.24
		c1.17,0.82,2.01,2.28,2.54,4.35h0.78l-0.71-6.9h-0.67c-0.08,0.35-0.2,0.62-0.35,0.81c-0.15,0.19-0.43,0.29-0.83,0.29
		c-0.15,0-0.74-0.18-1.78-0.55c-1.04-0.36-1.93-0.55-2.67-0.55c-1.79,0-3.23,0.55-4.32,1.63c-1.09,1.09-1.63,2.45-1.63,4.09
		c0,1.24,0.46,2.37,1.38,3.39c0.5,0.54,1.16,1.07,1.99,1.6l2.77,1.73c1.59,0.99,2.63,1.74,3.13,2.23c0.76,0.78,1.14,1.7,1.14,2.75
		c0,1.17-0.38,2.09-1.13,2.74c-0.75,0.65-1.65,0.98-2.68,0.98c-1.91,0-3.5-0.76-4.79-2.27c-0.74-0.87-1.38-2.03-1.93-3.48H150.66z
		 M168.19,13.72h0.79c0.33-1.74,0.81-2.87,1.46-3.39c0.65-0.52,1.87-0.78,3.67-0.78h1.82v16.21c0,1.4-0.17,2.27-0.51,2.62
		c-0.34,0.35-1.19,0.57-2.57,0.68v0.6h9.45v-0.6c-1.32-0.09-2.17-0.29-2.57-0.59c-0.39-0.3-0.59-1.07-0.59-2.32V9.55h1.8
		c1.88,0,3.11,0.26,3.7,0.78c0.59,0.52,1.07,1.65,1.45,3.38h0.77l-0.17-5.51h-18.34L168.19,13.72z M193.61,29.66v-0.6
		c-0.76-0.06-1.27-0.16-1.55-0.28c-0.44-0.21-0.66-0.59-0.66-1.13c0-0.27,0.08-0.64,0.25-1.11c0.16-0.47,0.67-1.76,1.51-3.88h8.55
		l1.3,3.12c0.19,0.44,0.34,0.86,0.44,1.26c0.11,0.4,0.16,0.68,0.16,0.84c0,0.47-0.14,0.77-0.41,0.89c-0.28,0.12-0.89,0.22-1.83,0.31
		v0.6h8.25v-0.6c-0.76-0.11-1.3-0.3-1.62-0.59c-0.32-0.29-0.75-1.04-1.29-2.26l-8.08-18.38h-0.64l-6.75,15.91
		c-1.01,2.38-1.73,3.84-2.15,4.38c-0.42,0.54-1.04,0.85-1.88,0.94v0.6H193.61z M193.71,21.33l3.73-8.93l3.72,8.93H193.71z
		 M209.75,13.72h0.79c0.33-1.74,0.82-2.87,1.47-3.39c0.65-0.52,1.87-0.78,3.66-0.78h1.82v16.21c0,1.4-0.17,2.27-0.51,2.62
		c-0.34,0.35-1.19,0.57-2.57,0.68v0.6h9.45v-0.6c-1.32-0.09-2.17-0.29-2.56-0.59c-0.39-0.3-0.59-1.07-0.59-2.32V9.55h1.81
		c1.88,0,3.11,0.26,3.7,0.78c0.59,0.52,1.07,1.65,1.45,3.38h0.78l-0.17-5.51h-18.34L209.75,13.72z M231.01,29.66h17.53l1.47-5.48
		h-0.9c-0.84,1.85-1.78,3.01-2.82,3.49c-1.05,0.48-2.67,0.72-4.87,0.72c-2.03,0-3.25-0.06-3.66-0.17c-0.41-0.12-0.61-0.5-0.61-1.14
		v-8.03h5c1.37,0,2.25,0.2,2.63,0.61c0.38,0.41,0.69,1.24,0.93,2.49h0.76v-7.49h-0.76c-0.23,1.25-0.54,2.08-0.92,2.49
		c-0.38,0.41-1.26,0.62-2.65,0.62h-5v-7.24c0-0.42,0.06-0.71,0.17-0.86c0.11-0.15,0.41-0.23,0.88-0.23h4.41
		c1.9,0,3.12,0.21,3.67,0.63c0.55,0.42,0.96,1.35,1.24,2.77h0.82l-0.11-4.64h-17.23v0.6c1.2,0.09,1.98,0.3,2.33,0.66
		c0.35,0.35,0.52,1.11,0.52,2.26v14.42c0,1.22-0.18,1.98-0.53,2.28c-0.35,0.3-1.13,0.51-2.32,0.64V29.66z"/>
	<g>
		<polygon fill="#8D734A" points="146.26,17.27 130.08,17.27 130.06,17.27 125.05,1.86 120.04,17.27 120.02,17.27 103.84,17.27 
			116.95,26.8 116.94,26.83 111.94,42.21 111.99,42.17 125.05,32.68 138.11,42.17 138.16,42.21 133.16,26.83 133.15,26.8 
			146.18,17.33 		"/>
		<path fill="#501214" d="M130.54,16.84h-0.03l-5.47-16.82l-5.47,16.82h-0.03H101.9l14.31,10.39l-5.47,16.82l14.31-10.4l14.25,10.35
			l0,0l0.06,0.04l-5.45-16.78l-0.01-0.04l14.22-10.33l0.09-0.07H130.54z M132.46,26.77l-7.41-2.37l11.99,16.47l-11.99-8.71V24.4
			l-12,16.47l4.58-14.09l7.42-2.38l-19.41-6.34h14.82l4.59,6.34V3.95l4.58,14.1l-4.58,6.34l19.4-6.34L132.46,26.77z"/>
	</g>
</g>
</svg>
