<?xml version="1.0" encoding="UTF-8" standalone="no"?>
<svg xmlns:rdf="http://www.w3.org/1999/02/22-rdf-syntax-ns#" xmlns="http://www.w3.org/2000/svg" xml:space="preserve" height="93.318" viewBox="0 0 249.45341 93.31826" width="249.45" version="1.1" xmlns:cc="http://creativecommons.org/ns#" xmlns:dc="http://purl.org/dc/elements/1.1/"><g transform="matrix(1.25 0 0 -1.25 -151.22 149.12)"><g transform="matrix(.45 0 0 .45 121.73 45.397)"><path d="m59.908 0.82031v85.031h-59.908s0.48164 2.9002 1.9316 3.8652c1.4488 0.96625 8.2155 7.7312 13.529 13.045 5.315 5.315 13.045 9.9062 13.045 9.9062s1.2066 6.0388 1.9316 8.9375c0.725 2.8988 4.8305 12.319 7.7305 14.977 2.8975 2.6562 6.7641 2.4159 9.6641 4.3496 2.8975 1.9312 5.7959 3.6217 8.2109 4.1055 2.4162 0.48375 4.5903-3.8651 6.0391-5.7988 1.45-1.9325-0.48281-6.5201 2.8984-7.4863 3.3825-0.96625 4.5886-1.9463 5.5586-2.1738 1.085-0.25499 2.5278-0.45843 4.1016-0.58593 2.4775 3.7725 6.001 6.6883 10.291 8.5508 3.2362 1.415 6.889 2.2663 10.928 2.6426 2.9675 4.325 7.8095 15.216 9.707 18.379 2.1738 3.625 7.9708 13.047 10.145 13.529 2.175 0.4825 2.1753 5.5544 3.3828 7.9707 1.2075 2.415 5.0741 11.355 5.5566 12.562 0.4825 1.2075 0.72266 1.9316 0.72266 1.9316s4.8341 0.48461 7.0078 1.6934c2.1738 1.2075 5.7972 2.1724 9.1797 3.1387 3.3812 0.96751 11.595 4.5889 14.977 4.3477 3.3825-0.24 6.2808-0.72508 4.832-2.1738-1.45-1.45-4.8334-13.044-4.3496-18.357 0.4825-5.3175 3.6237-21.741 6.7637-22.709 3.1412-0.96625 12.08-7.7299 17.152-10.389 5.0738-2.6575 17.152-15.218 20.775-16.91 3.6238-1.6888 9.9035-4.1062 11.354-5.7949 1.4488-1.6925 3.3812-6.7659 2.6562-10.631-0.72375-3.8662 1.6912-12.322 0.48242-16.186-1.2062-3.865-5.3135-13.286-7.7285-15.461-2.4162-2.1738-1.6914-1.9316-1.6914-1.9316l-0.24218-29.713s-8.9381-0.96695-12.078-2.6582c-3.14-1.6912-8.4534-4.1048-11.836-3.6211-3.3812 0.4825-11.353 4.1049-16.186 3.1387-4.8312-0.9675-7.2467-0.72367-10.387-0.48242-3.14 0.24125-7.972 1.2065-11.113 0.24023-3.14-0.96625-8.9379-4.831-11.838-5.0723-2.8975-0.2425-5.7968-0.72508-8.9356-2.1738-3.1412-1.45-3.8669-4.1068-6.7656-3.623-2.8988 0.4825-8.4531-3.1426-8.4531-3.1426v-35.027l-49.052-0.24569zm165.06 66.741v2.4805c2.645 0.23 4.5065 0.63976 5.584 1.2285 1.8612 1.0125 2.793 2.8081 2.793 5.3906v48.924c0 2.68-0.9807 4.5278-2.9394 5.5391-1.1112 0.55625-2.9238 0.91633-5.4375 1.0801v2.4824h31.404c11.358 0 20.353-3.5111 26.986-10.527 5.8888-6.2375 8.8359-13.852 8.8359-22.84 0-10.025-2.9296-18.014-8.7871-23.963-6.4375-6.5312-15.79-9.7949-28.053-9.7949h-30.387zm30.227 3.3086c7.82 0 13.378 4.0638 16.674 12.188 2.0388 5.0525 3.0547 11.091 3.0547 18.115 0 11.816-1.8913 19.801-5.6738 23.961-3.7812 4.16-8.6109 6.2422-14.492 6.2422-2.165 0-3.5784-0.45258-4.2422-1.3613-0.6625-0.90375-1.0424-2.3767-1.1387-4.418v-48.947c0-2.0388 0.25914-3.4152 0.77539-4.1289 0.7775-1.1 2.4567-1.6504 5.043-1.6504zm272.82 4.2402c-6.1137 0-10.646 1.8223-13.607 5.4648-2.9588 3.6425-4.4394 7.5663-4.4394 11.768 0 3.9525 1.1192 7.2709 3.3555 9.9609 2.2312 2.6925 6.058 5.4106 11.48 8.1543l5.4609 2.7734c3.3938 1.7088 5.6505 3.0991 6.7617 4.1641 1.6788 1.6262 2.5234 3.7234 2.5234 6.3047 0 2.2138-0.80406 4.3212-2.4141 6.3262-1.6112 2.0038-4.3237 3.0059-8.1387 3.0059-3.9312 0-7.4126-1.4603-10.455-4.3828-3.0412-2.9188-5.2444-7.5956-6.6094-14.029h-2.4824v21.307h2.4824c0.25-0.9075 0.53719-1.6085 0.86719-2.1035 0.32875-0.495 0.93766-0.73829 1.8164-0.73829 0.24625 0 0.54695 0.0309 0.9082 0.0996 0.3575 0.0662 0.72703 0.15157 1.1133 0.25782l1.6504 0.59961c1.705 0.64375 3.4295 1.1176 5.1758 1.4238 1.75 0.30625 3.4741 0.46094 5.1816 0.46094 7.4238 0 12.821-1.924 16.193-5.7715 3.3688-3.8475 5.0566-7.9391 5.0566-12.275 0-4.645-1.5757-8.5916-4.7207-11.838-1.6825-1.735-3.939-3.3154-6.7715-4.7441l-6.3555-3.1973c-5.31-2.66-8.7234-4.6777-10.242-6.0527-1.55-1.3438-2.3184-3.375-2.3184-6.0938 0-2.2688 0.82508-4.1943 2.4863-5.7793 1.66-1.5838 3.9151-2.375 6.7676-2.375 4.06 0 7.507 1.5808 10.346 4.7383 2.835 3.1562 4.8191 6.923 5.9453 11.293h2.3789v-18.721h-2.5879c-0.22 0.855-0.50594 1.5445-0.86719 2.0645-0.3575 0.52-1.0044 0.7793-1.9394 0.7793-0.4125 0-2.0703-0.47312-4.9766-1.4219-2.9075-0.94625-5.9129-1.4219-9.0254-1.4219zm-216.76 0.20703-19.031 47.096c-1.5162 3.7462-2.6783 6.172-3.4883 7.2695-1.265 1.745-2.9328 2.6888-5.0078 2.8301v2.1738h17.582v-2.1738c-1.9675-0.0288-3.4401-0.19586-4.4238-0.50586-1.655-0.5625-2.4824-1.4638-2.4824-2.7051 0-1.0138 0.37851-2.6338 1.1348-4.8613 0.37125-1.04 1.2029-3.2798 2.4941-6.7148h19.209l2.2188 5.2383c0.48125 1.1575 0.86414 2.1427 1.1504 2.959 0.44625 1.3812 0.67187 2.409 0.67187 3.084 0 1.4938-0.44351 2.4234-1.3223 2.7871-0.88125 0.36625-2.7206 0.60625-5.5156 0.71875v2.1738h76.311l3.5176-19.549h-2.5352c-2.5462 6.6488-5.5779 11.119-9.0879 13.414-3.5112 2.2962-7.8582 3.4434-13.033 3.4434-2.8838 0-4.822-0.30953-5.8145-0.92578-0.99125-0.61875-1.4902-1.8851-1.4902-3.7988v-40.783c0-3.4 0.5832-5.5315 1.752-6.3965 1.1725-0.86375 3.516-1.3516 7.041-1.4629v-2.1738h-29.996v2.1738c2.4412 0.14 4.128 0.47727 5.0605 1.0098 1.5912 0.87 2.3867 2.5668 2.3867 5.0918v41.721c0 2.5262-0.83976 4.2405-2.5098 5.1367-0.92751 0.5025-2.4611 0.79734-4.5586 0.90234-1.5838-0.135-2.8364-0.83562-3.7539-2.1094-1.0625-1.4788-2.6698-4.7672-4.8223-9.8672l-19.178-45.195h-2.4785zm163.69 0-19.031 47.096c-1.5162 3.7462-2.6822 6.172-3.4922 7.2695-1.265 1.745-2.9328 2.6888-5.0078 2.8301v2.1738h17.586v-2.1738c-1.9688-0.0288-3.442-0.19586-4.4258-0.50586-1.6538-0.5625-2.4805-1.4638-2.4805-2.7051 0-1.0138 0.37851-2.6338 1.1348-4.8613 0.37125-1.04 1.2008-3.2798 2.4883-6.7148h19.215l2.2148 5.2383c0.48125 1.1575 0.86609 2.1427 1.1524 2.959 0.44375 1.3812 0.67187 2.409 0.67187 3.084 0 1.4938-0.44102 2.4234-1.3223 2.7871-0.88 0.36625-2.7174 0.60625-5.5137 0.71875v2.1738h27.82v-2.1738c-1.9575 0.0538-3.4662-0.65531-4.5312-2.1328-1.0638-1.4788-2.6712-4.7672-4.8262-9.8672l-19.176-45.195h-2.4766zm-81.406 1.1367v2.1738c2.4412 0.14 4.1261 0.47727 5.0586 1.0098 1.5925 0.87 2.3887 2.5668 2.3887 5.0918v41.721c0 2.5262-0.83727 4.2405-2.5098 5.1367-0.98875 0.53375-2.6312 0.84203-4.9375 0.92578v2.1738h49.645l3.5176-19.549h-2.5332c-2.5475 6.6488-5.5792 11.119-9.0879 13.414-3.5137 2.2962-7.8589 3.4434-13.035 3.4434-2.8825 0-4.8207-0.30953-5.8144-0.92578-0.99125-0.61875-1.4883-1.8851-1.4883-3.7988v-40.783c0-3.4 0.58196-5.5315 1.752-6.3965 1.1688-0.86375 3.5148-1.3516 7.041-1.4629v-2.1738h-29.996zm-86.438 17.996h0.60742l8.1992 19.861h-16.611l7.8047-19.861zm163.68 0h0.60742l8.2012 19.861h-16.607l7.7988-19.861zm-89.945 50.869c-1.1275 0-1.8346 0.19609-2.1309 0.58984-0.28 0.27375-0.41992 0.77586-0.41992 1.5059v0.4375h-1.1191v1.248h1.1562v5.4297h2.0039v-5.4297h1.3262v-1.248h-1.3262v-0.57031c0-0.1325 0.0512-0.25258 0.15626-0.36133 0.1-0.10875 0.28539-0.15929 0.55664-0.1543 0.265 0.006 0.45921 0.008 0.57421 0.008v-1.4375c-0.18125-0.006-0.32328-0.0112-0.42578-0.0137-0.1075-0.002-0.22156-0.004-0.35156-0.004zm-103.95 0.0371v1.625h2.0644v-1.625h-2.0644zm52.594 0v1.625h2.0625v-1.625h-2.0625zm-125.02 0.0371v1.6074h3.1758v7.5293h2.2129v-7.5293h3.1777v-1.6074h-8.5664zm45.689 0v5.6094c0 0.97125 0.17469 1.7263 0.52344 2.2676 0.6525 0.99125 1.8959 1.4863 3.7246 1.4863 1.83 0 3.0707-0.49508 3.7207-1.4863 0.34875-0.54125 0.52344-1.2963 0.52344-2.2676v-5.6094h-2.25v5.5996c0 0.6275-0.0853 1.0816-0.25781 1.3691-0.26625 0.5125-0.84633 0.76758-1.7363 0.76758-0.89375 0-1.4747-0.25508-1.7422-0.76758-0.17125-0.2875-0.25586-0.74164-0.25586-1.3691v-5.5996h-2.25zm143.39 0v1.6074h3.1758v7.5293h2.2148v-7.5293h3.1777v-1.6074h-8.5684zm95.557 0v9.1367h4.5449c1.5913 0 2.7741-0.57008 3.5391-1.7051 0.56125-0.84375 0.84179-1.8709 0.84179-3.0859 0-0.48-0.0662-0.98367-0.20117-1.5137-0.13375-0.52875-0.3857-1.0209-0.75195-1.4746-0.45625-0.56125-1.0569-0.94695-1.7969-1.1582-0.43375-0.1225-0.9771-0.19047-1.6309-0.19922h-4.5449zm25.988 0.0195v9.1172h2.043v-9.1172h-2.043zm7.7402 0v9.1172h2.0449v-9.1172h-2.0449zm-305.02 0.0371v9.0801h2.043v-3.6484c0-0.5775 0.13976-1.0208 0.41601-1.332 0.27751-0.3125 0.6811-0.4668 1.2148-0.4668 0.51625 0 0.86578 0.15625 1.0508 0.46875 0.14125 0.22375 0.21289 0.51391 0.21289 0.87891v4.0996h2.0801v-3.9629c0-0.60375-0.0228-1.0384-0.0703-1.3047-0.0475-0.26625-0.17813-0.52484-0.39063-0.77734-0.25125-0.29626-0.57359-0.51711-0.96484-0.66211-0.39125-0.14375-0.82664-0.2168-1.3066-0.2168-0.42625 0-0.83446 0.0774-1.2207 0.23242-0.38625 0.15625-0.72648 0.43117-1.0215 0.82617v-3.2148h-2.043zm119.7 0.50976v1.8926h-1.0957v1.248h1.0957v4.1543c0 0.4225 0.11516 0.73304 0.34766 0.93554 0.35375 0.32 1.0177 0.4636 1.9902 0.4336l0.97461-0.0371v-1.3262c-0.0688 0.007-0.13632 0.0106-0.20507 0.0156-0.0688 0.003-0.13532 0.006-0.19532 0.006-0.4175 0-0.66609-0.0348-0.74609-0.10352-0.0813-0.0662-0.12109-0.24117-0.12109-0.51367v-3.5644h1.2676v-1.248h-1.2676v-1.8926h-2.0449zm135.45 0v1.8926h-1.0976v1.248h1.0976v4.1543c0 0.4225 0.11446 0.73304 0.34571 0.93554 0.35625 0.32 1.019 0.4636 1.9902 0.4336l0.97071-0.0371v-1.3262c-0.0675 0.007-0.13188 0.0106-0.20313 0.0156-0.07 0.003-0.13461 0.006-0.19336 0.006-0.4175 0-0.6668-0.0348-0.74805-0.10352-0.08-0.0662-0.12109-0.24117-0.12109-0.51367v-3.5644h1.2656v-1.248h-1.2656v-1.8926h-2.041zm18.277 1.0039h2.0312c1.0012 0 1.6676 0.24945 2.0039 0.75195 0.335 0.5 0.50391 1.218 0.50391 2.1543 0 0.675-0.11148 1.2588-0.33398 1.75-0.41 0.89375-1.1363 1.3398-2.1738 1.3398h-2.0312v-5.9961zm-122.39 0.60547c-1.3425 0-2.3407 0.35586-3.002 1.0684-0.6575 0.71375-0.98828 1.5561-0.98828 2.5273 0 0.98875 0.33078 1.8366 0.98828 2.5391 0.66125 0.70126 1.6595 1.0527 3.002 1.0527s2.3432-0.35148 3.002-1.0527c0.66-0.70249 0.99219-1.5503 0.99219-2.5391 0-0.97125-0.33219-1.8136-0.99219-2.5273-0.65875-0.7125-1.6594-1.0684-3.002-1.0684zm-135.18 0.0371c-1.1388 0-2.0648 0.31109-2.7773 0.93359s-1.0703 1.52-1.0703 2.6875c0 1.245 0.39554 2.148 1.1855 2.6992 0.79125 0.555 1.7033 0.83008 2.7383 0.83008 1.2537 0 2.2295-0.32797 2.9258-0.98047 0.4475-0.41125 0.69765-0.81484 0.7539-1.2148h-2.0762c-0.12125 0.1925-0.26242 0.34507-0.41992 0.45507-0.29 0.2025-0.66641 0.30274-1.1289 0.30274-0.4375 0-0.81179-0.0838-1.123-0.25-0.51125-0.2725-0.78321-0.74281-0.81446-1.4141h5.6602c0.01-0.5825-0.0127-1.0298-0.0664-1.3398-0.095-0.52875-0.30234-0.99328-0.62109-1.3945-0.3525-0.45375-0.79859-0.78679-1.3398-0.99804-0.54125-0.21001-1.1499-0.31641-1.8262-0.31641zm34.902 0c-0.6375 0-1.1624 0.13836-1.5762 0.41211-0.23375 0.15375-0.47954 0.40445-0.73829 0.75195v-0.99414h-1.9863v6.7539h2.043v-3.6562c0-0.4175 0.066-0.76055 0.19727-1.0293 0.25125-0.5075 0.71703-0.76172 1.3945-0.76172 0.55125 0 0.9268 0.17203 1.123 0.51953 0.1075 0.19 0.16211 0.46211 0.16211 0.81836v4.1094h2.0976v-4.5527c0-0.8475-0.25281-1.4541-0.75781-1.8203-0.50875-0.3675-1.1627-0.55078-1.959-0.55078zm31.115 0c-1.1375 0-2.0629 0.31109-2.7754 0.93359-0.715 0.6225-1.0684 1.52-1.0684 2.6875 0 1.245 0.3943 2.148 1.1856 2.6992 0.79125 0.555 1.7038 0.83008 2.7363 0.83008 1.2525 0 2.2295-0.32797 2.9258-0.98047 0.44625-0.41125 0.69765-0.81484 0.7539-1.2148h-2.0762c-0.12125 0.1925-0.26367 0.34507-0.41992 0.45507-0.29 0.2025-0.66711 0.30274-1.1309 0.30274-0.43625 0-0.81109-0.0838-1.1211-0.25-0.51-0.2725-0.78196-0.74281-0.81446-1.4141h5.6602c0.0113-0.5825-0.0127-1.0298-0.0664-1.3398-0.095-0.52875-0.30164-0.99328-0.61914-1.3945-0.35125-0.45375-0.80109-0.78679-1.3398-0.99804-0.5425-0.21001-1.1538-0.31641-1.8301-0.31641zm12.83 0c-0.6125 0-1.1084 0.14117-1.4922 0.41992-0.23375 0.165-0.50922 0.47383-0.82422 0.92383v-1.1738h-1.9297v6.7539h2.0449v-3.2285c0-0.54375 0.0737-0.94312 0.23242-1.2031 0.28125-0.46375 0.83375-0.69727 1.6562-0.69727 0.0613 0 0.14164 0.003 0.24414 0.006 0.1 0.002 0.21305 0.008 0.3418 0.0156v-1.7988c-0.09-0.005-0.14953-0.01-0.17578-0.0137-0.0275-0.002-0.0577-0.004-0.0977-0.004zm8.1211 0c-1.0275 0-1.8238 0.22242-2.3926 0.66992-0.56375 0.44375-0.84571 0.97641-0.84571 1.5977 0 0.52625 0.18031 0.93023 0.53906 1.209 0.35875 0.28625 0.98094 0.52024 1.8672 0.70899 1.2338 0.2525 1.9456 0.4282 2.1406 0.5332 0.19625 0.1025 0.29492 0.25367 0.29492 0.45117 0 0.20625-0.12063 0.35984-0.35938 0.46484-0.24 0.1025-0.55984 0.1543-0.96484 0.1543-0.69125 0-1.1656-0.11851-1.4219-0.35351-0.14376-0.13375-0.23805-0.35618-0.2793-0.66993h-2.0645c0 0.69375 0.29461 1.2666 0.88086 1.7129 0.585 0.44875 1.4912 0.67188 2.7188 0.67188 1.2038 0 2.0917-0.21227 2.668-0.63477 0.57625-0.4225 0.86524-0.96921 0.86524-1.6367 0-0.5075-0.19821-0.93008-0.59571-1.2676-0.4-0.33625-1.0084-0.5818-1.8184-0.74805-1.2188-0.23125-1.9295-0.39383-2.127-0.48633-0.20125-0.0913-0.30078-0.23695-0.30078-0.43945 0-0.15625 0.0937-0.29852 0.28125-0.41602 0.1875-0.11875 0.50477-0.17968 0.94727-0.17968 0.5375 0 0.91812 0.12117 1.1406 0.35742 0.12 0.1325 0.19266 0.30695 0.22266 0.5332h2.041c-0.09-0.81875-0.44414-1.3955-1.0566-1.7305-0.6125-0.33375-1.4084-0.50195-2.3809-0.50195zm88.398 0c-1.14 0-2.0648 0.31109-2.7773 0.93359-0.71625 0.6225-1.0684 1.52-1.0684 2.6875 0 1.245 0.39429 2.148 1.1855 2.6992 0.79125 0.555 1.7052 0.83008 2.7402 0.83008 1.2525 0 2.2251-0.32797 2.9238-0.98047 0.44625-0.41125 0.6957-0.81484 0.75195-1.2148h-2.0781c-0.1175 0.1925-0.25726 0.34507-0.41601 0.45507-0.2875 0.2025-0.66766 0.30274-1.1289 0.30274-0.44 0-0.81304-0.0838-1.123-0.25-0.51-0.2725-0.78125-0.74281-0.8125-1.4141h5.6562c0.0125-0.5825-0.0102-1.0298-0.0664-1.3398-0.0925-0.52875-0.29914-0.99328-0.61914-1.3945-0.35125-0.45375-0.8018-0.78679-1.3418-0.99804-0.54125-0.21001-1.1524-0.31641-1.8262-0.31641zm23.492 0c-1.3188 0-2.2517 0.29476-2.793 0.88476-0.34 0.3775-0.53242 0.85766-0.57617 1.4414h1.9688c0.0487-0.25875 0.14476-0.46344 0.29101-0.61719 0.20375-0.205 0.55352-0.30859 1.041-0.30859 0.44 0 0.77039 0.0532 0.99414 0.1582 0.2275 0.10625 0.3418 0.30008 0.3418 0.58008 0 0.2275-0.14961 0.39516-0.44336 0.50391-0.16375 0.0613-0.43571 0.11375-0.81446 0.15625l-0.69922 0.0742c-0.7975 0.0875-1.3947 0.23304-1.8047 0.43554-0.7475 0.37625-1.1191 0.98281-1.1191 1.8203 0 0.64499 0.22961 1.1409 0.69336 1.4922 0.46375 0.3525 1.0517 0.5293 1.7617 0.5293 0.5575 0 1.0589-0.11133 1.5039-0.33008 0.3675-0.18875 0.69227-0.41539 0.97852-0.68164 0.0125 0.15125 0.0311 0.2875 0.0586 0.40625 0.0213 0.11875 0.0637 0.24391 0.125 0.37891h2.2188v-0.26563c-0.135-0.0525-0.23258-0.11797-0.29883-0.19922-0.065-0.0825-0.10539-0.23664-0.11914-0.46289-0.01-0.3075-0.0156-0.5682-0.0156-0.7832v-3.1211c0-0.81875-0.33375-1.3727-1-1.6602s-1.4305-0.43164-2.293-0.43164zm11.73 0c-1.025 0-1.8205 0.22242-2.3867 0.66992-0.56625 0.44375-0.84961 0.97641-0.84961 1.5977 0 0.52625 0.18031 0.93023 0.53906 1.209 0.35875 0.28625 0.98235 0.52024 1.8711 0.70899 1.23 0.2525 1.9412 0.4282 2.1387 0.5332 0.195 0.1025 0.29492 0.25367 0.29492 0.45117 0 0.20625-0.12063 0.35984-0.35938 0.46484-0.23875 0.1025-0.56179 0.1543-0.96679 0.1543-0.69125 0-1.1642-0.11851-1.418-0.35351-0.14625-0.13375-0.24196-0.35618-0.28321-0.66993h-2.0625c0 0.69375 0.29516 1.2666 0.87891 1.7129 0.58625 0.44875 1.49 0.67188 2.7188 0.67188 1.2062 0 2.0924-0.21227 2.6699-0.63477 0.57375-0.4225 0.86328-0.96921 0.86328-1.6367 0-0.5075-0.1975-0.93008-0.59375-1.2676-0.4025-0.33625-1.011-0.5818-1.8223-0.74805-1.2175-0.23125-1.925-0.39383-2.125-0.48633-0.2-0.0913-0.30078-0.23695-0.30078-0.43945 0-0.15625 0.0937-0.29852 0.28125-0.41602 0.19125-0.11875 0.50601-0.17968 0.94726-0.17968 0.54 0 0.91883 0.12117 1.1426 0.35742 0.12 0.1325 0.19 0.30695 0.21875 0.5332h2.0449c-0.0925-0.81875-0.44609-1.3955-1.0586-1.7305-0.6125-0.33375-1.4091-0.50195-2.3828-0.50195zm19.664 0c-1.32 0-2.253 0.29476-2.793 0.88476-0.34125 0.3775-0.53633 0.85766-0.58008 1.4414h1.9688c0.0487-0.25875 0.14727-0.46344 0.29102-0.61719 0.205-0.205 0.55172-0.30859 1.043-0.30859 0.43875 0 0.76859 0.0532 0.99609 0.1582 0.22375 0.10625 0.33789 0.30008 0.33789 0.58008 0 0.2275-0.1489 0.39516-0.4414 0.50391-0.16375 0.0613-0.43766 0.11375-0.81641 0.15625l-0.69922 0.0742c-0.79375 0.0875-1.3954 0.23304-1.8066 0.43554-0.74125 0.37625-1.1152 0.98281-1.1152 1.8203 0 0.64499 0.22835 1.1409 0.69335 1.4922 0.46375 0.3525 1.0505 0.5293 1.7617 0.5293 0.55625 0 1.057-0.11133 1.502-0.33008 0.36875-0.18875 0.69476-0.41539 0.97851-0.68164 0.0125 0.15125 0.0316 0.2875 0.0566 0.40625 0.0238 0.11875 0.0689 0.24391 0.12891 0.37891h2.2148v-0.26563c-0.1325-0.0525-0.23047-0.11797-0.29297-0.19922-0.0687-0.0825-0.1075-0.23664-0.125-0.46289-0.007-0.3075-0.0117-0.5682-0.0117-0.7832v-3.1211c0-0.81875-0.33445-1.3727-1.002-1.6602-0.66875-0.2875-1.4291-0.43164-2.2891-0.43164zm42.377 0c-1.3212 0-2.2499 0.29476-2.7949 0.88476-0.33875 0.3775-0.53117 0.85766-0.57617 1.4414h1.9688c0.0487-0.25875 0.14422-0.46344 0.29297-0.61719 0.2025-0.205 0.54906-0.30859 1.0391-0.30859 0.4375 0 0.76914 0.0532 0.99414 0.1582 0.2275 0.10625 0.33984 0.30008 0.33984 0.58008 0 0.2275-0.14585 0.39516-0.44335 0.50391-0.16125 0.0613-0.43251 0.11375-0.8125 0.15625l-0.70118 0.0742c-0.79375 0.0875-1.3952 0.23304-1.8027 0.43554-0.7475 0.37625-1.1211 0.98281-1.1211 1.8203 0 0.64499 0.23406 1.1409 0.69531 1.4922 0.46375 0.3525 1.0537 0.5293 1.7637 0.5293 0.55625 0 1.0573-0.11133 1.4961-0.33008 0.37375-0.18875 0.69797-0.41539 0.98047-0.68164 0.015 0.15125 0.0349 0.2875 0.0586 0.40625 0.0225 0.11875 0.0671 0.24391 0.13086 0.37891h2.2129v-0.26563c-0.13125-0.0525-0.22813-0.11797-0.29688-0.19922-0.0638-0.0825-0.10219-0.23664-0.11719-0.46289-0.01-0.3075-0.0137-0.5682-0.0137-0.7832v-3.1211c0-0.81875-0.3357-1.3727-1.002-1.6602-0.66875-0.2875-1.4323-0.43164-2.291-0.43164zm27.307 0c-1.3175 0-2.246 0.29476-2.791 0.88476-0.33875 0.3775-0.53438 0.85766-0.57813 1.4414h1.9688c0.0488-0.25875 0.14477-0.46344 0.29102-0.61719 0.2025-0.205 0.54922-0.30859 1.043-0.30859 0.43625 0 0.76914 0.0532 0.99414 0.1582 0.22375 0.10625 0.33789 0.30008 0.33789 0.58008 0 0.2275-0.14641 0.39516-0.44141 0.50391-0.16375 0.0613-0.43515 0.11375-0.8164 0.15625l-0.69922 0.0742c-0.79375 0.0875-1.394 0.23304-1.8027 0.43554-0.74875 0.37625-1.1172 0.98281-1.1172 1.8203 0 0.64499 0.22835 1.1409 0.69335 1.4922 0.46125 0.3525 1.048 0.5293 1.7617 0.5293 0.55625 0 1.0575-0.11133 1.5-0.33008 0.36875-0.18875 0.69547-0.41539 0.98047-0.68164 0.0125 0.15125 0.0316 0.2875 0.0566 0.40625 0.0238 0.11875 0.0664 0.24391 0.12891 0.37891h2.2129v-0.26563c-0.13-0.0525-0.23047-0.11797-0.29297-0.19922-0.0662-0.0825-0.10805-0.23664-0.12305-0.46289-0.007-0.3075-0.0117-0.5682-0.0117-0.7832v-3.1211c0-0.81875-0.3339-1.3727-1.0039-1.6602-0.66625-0.2875-1.4285-0.43164-2.291-0.43164zm11.732 0c-1.0275 0-1.8244 0.22242-2.3906 0.66992-0.56625 0.44375-0.84766 0.97641-0.84766 1.5977 0 0.52625 0.17836 0.93023 0.53711 1.209 0.35875 0.28625 0.98344 0.52024 1.8672 0.70899 1.2338 0.2525 1.9495 0.4282 2.1445 0.5332 0.195 0.1025 0.29297 0.25367 0.29297 0.45117 0 0.20625-0.11937 0.35984-0.35937 0.46484-0.23875 0.1025-0.5618 0.1543-0.9668 0.1543-0.69125 0-1.1642-0.11851-1.418-0.35351-0.14625-0.13375-0.23945-0.35618-0.2832-0.66993h-2.0606c0 0.69375 0.29195 1.2666 0.87695 1.7129 0.58625 0.44875 1.4938 0.67188 2.7188 0.67188 1.2062 0 2.0962-0.21227 2.6699-0.63477 0.57875-0.4225 0.86328-0.96921 0.86328-1.6367 0-0.5075-0.1968-0.93008-0.5918-1.2676-0.40375-0.33625-1.0098-0.5818-1.8223-0.74805-1.2188-0.23125-1.9257-0.39383-2.127-0.48633-0.2-0.0913-0.30078-0.23695-0.30078-0.43945 0-0.15625 0.0925-0.29852 0.28125-0.41602 0.1875-0.11875 0.50226-0.17968 0.94727-0.17968 0.53624 0 0.91757 0.12117 1.1426 0.35742 0.11625 0.1325 0.19391 0.30695 0.22266 0.5332h2.041c-0.09-0.81875-0.44164-1.3955-1.0566-1.7305-0.61375-0.33375-1.4059-0.50195-2.3809-0.50195zm-268.44 0.16992v6.7539h2.0644v-6.7539h-2.0644zm6.959 0 2.7969 6.7539h2.1602l2.8144-6.7539h-2.1934l-1.6621 4.9805-1.627-4.9805h-2.2891zm45.635 0v6.7539h2.0625v-6.7539h-2.0625zm15.488 0 2.8633 7.0566c0.0275 0.05-0.0127 0.18656-0.11524 0.41406-0.105 0.2275-0.21468 0.37852-0.33593 0.44727-0.1275 0.0762-0.28235 0.12648-0.46485 0.14648-0.18625 0.0212-0.37508 0.0277-0.58008 0.0215l-0.25976-0.01v1.4004c0.22 0.01 0.38664 0.0156 0.49414 0.0156 0.11 0.002 0.2582 0.002 0.43945 0.002 0.90375 0 1.5061-0.15344 1.8086-0.46094 0.3-0.31 0.71156-1.1069 1.2266-2.3906l2.6777-6.6426h-2.1699l-1.6113 4.9805-1.7012-4.9805h-2.2715zm71.969 0 2.5527 3.3262-2.6641 3.4277h2.4629l1.3633-2.041 1.3516 2.041h2.5371l-2.6582-3.459 2.5644-3.2949h-2.4258l-1.2793 1.9668-1.3066-1.9668h-2.498zm-48.098 1.2676c0.6025 0 1.0642 0.18508 1.3867 0.54883 0.3225 0.36625 0.48437 0.8889 0.48437 1.5664s-0.16187 1.2009-0.48437 1.5684c-0.3225 0.37-0.78422 0.55469-1.3867 0.55469-0.60125 0-1.0642-0.18469-1.3867-0.55469-0.32375-0.3675-0.48828-0.89086-0.48828-1.5684 0-0.6775 0.16453-1.2002 0.48828-1.5664 0.3225-0.36375 0.78547-0.54883 1.3867-0.54883zm-135.19 0.02c0.48125 0 0.88468 0.11867 1.2109 0.35742 0.325 0.23625 0.50547 0.58227 0.54297 1.041h-3.5176c0.0737-0.42875 0.25547-0.77149 0.54297-1.0215 0.29-0.25125 0.69571-0.37695 1.2207-0.37695zm66.02 0c0.48125 0 0.88344 0.11867 1.2109 0.35742 0.32375 0.23625 0.50617 0.58227 0.54492 1.041h-3.5176c0.0725-0.42875 0.25351-0.77149 0.54101-1.0215 0.28875-0.25125 0.69571-0.37695 1.2207-0.37695zm109.35 0c0.48125 0 0.88344 0.11867 1.2109 0.35742 0.3275 0.23625 0.50742 0.58227 0.54492 1.041h-3.5195c0.0763-0.42875 0.25672-0.77149 0.54297-1.0215 0.29-0.25125 0.6957-0.37695 1.2207-0.37695zm24.756 2.1484v0.66406c-0.015 0.6-0.20914 1.0101-0.58789 1.2363-0.37625 0.225-0.78617 0.33789-1.2324 0.33789-0.28125 0-0.51984-0.0681-0.71484-0.20313-0.19625-0.13624-0.29688-0.35656-0.29688-0.66406 0-0.3425 0.16156-0.59336 0.47657-0.75586 0.19125-0.095 0.50265-0.17789 0.9414-0.24414l0.4668-0.0762c0.2325-0.0375 0.41578-0.0773 0.55078-0.12109 0.13375-0.0438 0.26523-0.10008 0.39648-0.17383zm31.389 0v0.66406c-0.0138 0.6-0.20899 1.0101-0.58399 1.2363-0.37625 0.225-0.78742 0.33789-1.2324 0.33789-0.2825 0-0.5218-0.0681-0.7168-0.20313-0.195-0.13625-0.29492-0.35656-0.29492-0.66406 0-0.3425 0.15781-0.59336 0.47656-0.75586 0.18875-0.095 0.50125-0.17789 0.9375-0.24414l0.46875-0.0762c0.2325-0.0375 0.41578-0.0773 0.55078-0.12109 0.13125-0.0438 0.26579-0.10008 0.39454-0.17383zm42.379 0v0.66406c-0.015 0.6-0.21023 1.0101-0.58398 1.2363-0.37875 0.225-0.78813 0.33789-1.2344 0.33789-0.28125 0-0.52054-0.0681-0.71679-0.20313-0.1975-0.13625-0.29493-0.35656-0.29493-0.66406 0-0.3425 0.16102-0.59336 0.47852-0.75586 0.1875-0.095 0.5-0.17789 0.9375-0.24414l0.4668-0.0762c0.23375-0.0375 0.41703-0.0773 0.55078-0.12109 0.1325-0.0438 0.26398-0.10008 0.39648-0.17383zm27.309 0v0.66406c-0.0163 0.6-0.20899 1.0101-0.58399 1.2363-0.37625 0.225-0.78687 0.33789-1.2344 0.33789-0.28 0-0.5193-0.0681-0.7168-0.20313-0.195-0.13625-0.29297-0.35656-0.29297-0.66406 0-0.3425 0.15781-0.59336 0.47656-0.75586 0.18625-0.095 0.50125-0.17789 0.9375-0.24414l0.4668-0.0762c0.235-0.0375 0.41703-0.0773 0.55078-0.12109 0.13375-0.0438 0.26524-0.10008 0.39649-0.17383z" transform="matrix(.8 0 0 -.8 0 163)" fill="#c75b12"/><path d="m65.924 67.561v2.4805c3.4675 0.38875 5.6975 1.067 6.6875 2.0332 0.98875 0.97 1.4844 3.3271 1.4844 7.0684v33.244c0 5.7275 1.1111 10.402 3.3398 14.025 0.53625 0.8725 1.1353 1.6848 1.7891 2.4473h-0.01758c2.9612 3.4512 7.1401 5.7535 12.518 6.916-0.0075-0.007-0.01398-0.0159-0.02148-0.0234 2.7338 0.59375 5.7709 0.89844 9.1309 0.89844 8.7188 0 15.113-2.2988 19.182-6.8926 4.07-4.5925 6.1035-11.11 6.1035-19.557v-31.783c0-3.1962 0.50633-5.2362 1.5176-6.125 1.0125-0.8875 3.0915-1.637 6.2402-2.252v-2.4805h-21.721v2.4805c3.8012 0.2925 6.3552 1.1133 7.6602 2.457 1.3062 1.3462 1.959 3.8016 1.959 7.3691v30.377c0 5.5975-0.74422 9.947-2.2305 13.051-2.685 5.6625-7.8407 8.4941-15.471 8.4941-6.1437 0-10.3-2.5569-12.465-7.6719-1.1962-2.7525-1.7949-6.6558-1.7949-11.707v-33.268c0-3.8062 0.64484-6.2436 1.9336-7.3086 1.29-1.065 3.8518-1.663 7.6855-1.793v-2.4805h-33.51zm71.076 0-0.0977 20.062h2.8457c0.61375-7.1138 3.2935-11.969 8.041-14.566 2.5825-1.3975 6.2995-2.1598 11.145-2.291v52.322c0 3.6225-0.64343 6.0446-1.9297 7.2559-1.2862 1.2125-3.8855 1.8203-7.793 1.8203v2.5215h35.477v-2.5215c-4.0575 0-6.7253-0.59812-8.0078-1.7969-1.2812-1.1962-1.9219-3.6243-1.9219-7.2793v-52.322c4.9412 0.13125 8.6551 0.89352 11.143 2.291 4.4262 2.5325 7.1055 7.3877 8.043 14.566h2.8457l-0.0977-20.062h-59.691z" transform="matrix(.8 0 0 -.8 0 163)" fill="#fff"/></g></g></svg>
