<?xml version="1.0" encoding="UTF-8" standalone="no"?>
<svg xmlns:rdf="http://www.w3.org/1999/02/22-rdf-syntax-ns#" xmlns="http://www.w3.org/2000/svg" xml:space="preserve" height="116.01" viewBox="0 0 157.45328 116.01125" width="157.45" version="1.1" xmlns:cc="http://creativecommons.org/ns#" xmlns:dc="http://purl.org/dc/elements/1.1/"><g transform="matrix(1.25 0 0 -1.25 -67.5 653.92)"><g><path d="m88.221 1.1562l-2.207 0.043-13.414 0.2676s-0.941 3.0152-1.336 4.2715c-1.908-0.0038-8.936-0.0137-8.936-0.0137s-0.56 1.5441-0.685 1.8828c-0.479 0.0225-0.965 0.0469-0.965 0.0469-28.894 0.6437-48.151 16.994-48.957 17.692l-4.1722 3.603s42.838-3.878 47.703-4.318c-0.183 0.791-0.885 3.865-0.885 3.865s9.132-0.164 12.117-0.221c-0.932 4.18-19.418 86.895-19.418 86.895l19.727-6.19s15.534-78.301 16.07-81.007c2.037-0.037 9.069-0.168 9.069-0.168s0.879-3.132 1.248-4.453c2.615 0.058 61.64 1.341 61.64 1.341l-11.29-5.882-0.05-0.024c-6.4-2.897-23.1-10.426-45.783-11.568 0.185-0.664 0.442-1.5881 0.442-1.5881s-8.067 0.0237-10.819 0.0312c0.234-1.1687 0.901-4.5059 0.901-4.5059zm66.469 26.237c-0.08 0-8.44-0.03-15.07 0.187 0.01 0-16.62 0.43-16.62 0.43l-1.45 0.039-2.95 16.715s3.55-0.064 4.9-0.09c-0.66 3.787-6.9 39.256-6.9 39.256l15.76-4.377s2.78-13.844 3.15-15.68c13.82-3.831 20.56-20.442 20.95-34.662l0.05-1.813-1.82-0.005zm-34.97 1.162l-2.21 0.093-33.348 1.418-3.471 18.01s3.497-0.322 4.647-0.43c-0.754 3.73-4.492 22.239-4.91 24.315-1.347 0.171-4.688 0.596-4.688 0.596l-4.467 23.138 43.707-11.226 3.12-17.313s-15.7 2-19.401 2.473c0.29-1.543 0.46-2.457 0.647-3.441 1.844-0.302 9.234-1.504 9.234-1.504l3.22-17.737s-6.46 0.786-9.06 1.1c0.14-0.751 0.18-0.937 0.29-1.52 2.21-0.147 13.62-0.931 13.62-0.931l3.07-17.041zm-57.218 2.465l-2.309 0.082-18.117 0.634-9.482 40.604c-2.118 9.184-4.563 14.01-7.268 14.348-0.17 0.023-0.681 0.081-1.031-2.045-0.323-1.96 0.932-7.104 1.404-9.039l10.586-43.678-30.43 1.131-4.8003 18.086s6.5084-0.302 9.1173-0.422c-1.0276 3.897-6.5216 24.767-6.5216 24.767-0.9788 3.933-1.9492 8.612-1.9492 13.178 0 2.253 0.236 4.475 0.8222 6.57 1.325 4.732 6.0737 15.484 21.483 13.174 12.359-1.84 21.673-5.52 28.998-36.203 0.005-0.014 9.498-41.187 9.498-41.187z" transform="matrix(.8 0 0 -.8 54 523.13)" fill="#B1B3B3"/><path d="m167.56 488.52c-0.7-0.067-1.501-0.132-2.323-0.185-0.167-0.972-0.379-2.202-0.696-4.044 1.036 0.797 2.213 2.099 3.019 4.229" fill="#fff"/><path d="m86.053 2.9727l-4.494 3.4453-5.717 0.1152-1.348 4.3008-8.994-0.018-0.662 1.825-2.147 0.101c-28.74 0.895-49.812 13.944-49.812 13.944l44.971-4.071 4.25-4.676-0.852 4.25-4.648 4.497 12.105-0.225 5.566-5.141-18.732 85.95-6.074 5.29 15.795-4.96 16.142-81.373 9.18-0.168 1.264-4.508 55.424 1.207s-20.35-9.262-49.95-10.561l0.41-1.467-16.595 0.297 4.021-3.5875 0.897-4.4668zm68.527 28.31c-2.97 0.009-7.91 0.043-12.17 0.186l-16.43 0.431-1.92 10.993 1.56-0.03 3.62-2.588-6.23 36.371-4.18 4.823 12.01-3.334 3.14-15.666c12.63-2.758 19.61-17.221 20.6-31.186zm-37.41 1.44l-28.098 1.209-1.496 7.863-4.699 4.299 4.672-0.428 4.592-3.16-6.746 33.207-4.624 0.596-2.226 11.671-5.002 5.303 39.897-10.25 2.02-11.201-21.616 2.811 2.664-2.948 1.322-7.06 9.23-1.5 2.09-11.539-11.568 1.17 2.968-2.666 0.99-5.246 13.61-0.932 2.02-11.199zm-56.914 0.148l-3.194 2.381-9.64 0.338s-4.916 21.147-9.047 39.281c-3.223 14.159-11.397 13.187-11.422 13.184-0.525 0.242-0.999 0.337-1.408 0.392-1.678 0.208-2.592-1.048-2.996-3.519-0.403-2.439 0.977-7.887 1.515-10.106l9.946-41.035-3.713 2.457-18.748 0.668-2.049 7.83-6.1113 4.518 9.1113-0.424 5.332-2.977-8.0722 32.215c-1.1588 4.71-2.8535 12.552-1.1172 18.815 0.9525 3.431 2.8064 6.951 6.0074 9.321 2.498 0.76 5.491 0.99 9.096 0.45 10.776-1.61 20.198-4.13 27.535-34.865l8.975-38.924zm87.904 4.715c-2.32 14.454-8.98 17.091-15.93 17.816l3.6-3.666 1.7-9.924 0.79-0.042c2.97-0.17 6.07-0.534 6.07-0.534l3.77-3.65z" transform="matrix(.8 0 0 -.8 54 523.13)" fill="#041E42"/><path d="m86.053 2.9746l-12.141 0.2402-1.348 4.2989-8.996-0.0157-0.662 1.8243-2.142 0.0996c-23.914-0.1325-47.885 17.264-47.885 17.264s21.072-13.049 49.812-13.944l2.147-0.101 0.662-1.823 8.994 0.016 1.348-4.3008 5.717-0.1152 4.494-3.4434zm9.748 4.4356l-10.645 0.0293-4.021 3.5875 16.595-0.297-0.41 1.467c29.6 1.299 49.95 10.561 49.95 10.561l-4.52-2.354c-7.3-3.305-24.24-10.817-47.359-11.527l0.41-1.4668zm-33.701 10.529l-4.25 4.674-0.75 1.875-0.524 1.313 0.024 0.885 4.648-4.497 0.852-4.25zm12.171 3.381l-5.566 5.141-19.24 86.099 6.072-5.29 18.734-85.95zm80.419 7.846s-8.34-0.034-15.01 0.186l-16.64 0.431-2.32 13.17 3.34-0.06 1.92-10.993 16.43-0.431c4.26-0.143 9.2-0.178 12.17-0.186v-0.054c0.05-0.69 0.09-1.378 0.11-2.063zm-37.1 1.256l-31.951 1.355-2.762 14.315 4.699-4.295 1.498-7.865 28.096-1.209 0.42-2.301zm-57.334 2.451l-16.762 0.584s-4.985 21.148-9.17 39.281c-0.144 0.624-0.29 1.209-0.433 1.785-0.035 0.14-0.07 0.276-0.104 0.413-0.14 0.541-0.278 1.063-0.418 1.56-0.03 0.11-0.059 0.209-0.088 0.311-0.122 0.422-0.242 0.831-0.363 1.226-0.033 0.105-0.069 0.218-0.102 0.328-0.137 0.433-0.274 0.852-0.41 1.25-0.04 0.113-0.077 0.222-0.117 0.334-0.122 0.352-0.247 0.696-0.371 1.02-0.021 0.051-0.043 0.111-0.063 0.162-0.138 0.359-0.277 0.696-0.416 1.018-0.037 0.091-0.075 0.178-0.115 0.267-0.135 0.314-0.272 0.61-0.408 0.897-0.024 0.043-0.047 0.089-0.07 0.136-0.124 0.253-0.247 0.488-0.369 0.717-0.03 0.058-0.06 0.115-0.09 0.17-0.138 0.245-0.273 0.478-0.408 0.695-0.025 0.042-0.054 0.082-0.081 0.125-0.13 0.204-0.261 0.398-0.386 0.578-0.012 0.014-0.025 0.033-0.035 0.053-0.14 0.191-0.278 0.369-0.413 0.539-0.023 0.02-0.043 0.047-0.064 0.074-0.282 0.33-0.557 0.618-0.826 0.85-0.009 0.006-0.017 0.016-0.026 0.024-0.419 0.36-0.818 0.613-1.195 0.787 0.026 0.002 8.2 0.973 11.424-13.186 4.13-18.132 9.045-39.279 9.045-39.279l9.64-0.34 3.194-2.379zm-26.244 0.914l-26.78 0.992-3.8453 14.483 6.1113-4.52 2.051-7.83 18.748-0.668 3.715-2.457zm114.15 3.801l-3.77 3.648c-2.12 8.043-7 9.293-8.56 10.5l-3.6 3.664c6.95-0.723 13.61-3.358 15.93-17.812zm-18.92 2.687l-3.62 2.59-6.79 38.604 4.18-4.823 6.23-36.371zm-37.099 2.231l-4.592 3.16-5.635 27.893-4.678 0.597-3.693 19.127 5.002-5.303 2.226-11.671 4.624-0.596 6.746-33.207zm-74.309 3.353l-5.332 2.979-7.1367 27.098c-1.17 4.712-2.8878 12.557-1.1328 18.82 0.1037 0.372 0.2226 0.74 0.3476 1.111 0.0375 0.113 0.0753 0.22 0.1153 0.33 0.1025 0.289 0.215 0.575 0.33 0.865 0.04 0.093 0.0765 0.192 0.1153 0.284 0.15 0.351 0.3133 0.701 0.4883 1.052 0.055 0.109 0.1163 0.222 0.1738 0.327 0.1312 0.252 0.269 0.501 0.414 0.748 0.0738 0.125 0.1472 0.25 0.2247 0.377 0.1937 0.31 0.397 0.62 0.6132 0.92 0.0763 0.11 0.1583 0.21 0.2383 0.31 0.175 0.24 0.3562 0.46 0.5449 0.69 0.11 0.13 0.2242 0.25 0.3379 0.38 0.1788 0.2 0.3647 0.39 0.5547 0.57 0.11 0.11 0.2158 0.23 0.332 0.33 0.2775 0.26 0.5713 0.5 0.875 0.74 0.1415 0.11 0.2905 0.22 0.4375 0.32 0.208 0.15 0.419 0.3 0.637 0.44 0.156 0.1 0.312 0.2 0.474 0.3 0.347 0.2 0.705 0.39 1.078 0.57 0.15 0.07 0.311 0.14 0.463 0.2 0.273 0.12 0.551 0.23 0.834 0.33 0.188 0.07 0.376 0.13 0.569 0.2 0.086 0.03 0.165 0.06 0.252 0.08-0.01 0-0.02-0.01-0.03-0.02-3.201-2.37-5.0537-5.89-6.0074-9.321-1.735-6.264-0.0423-14.106 1.1152-18.815l8.0742-32.215zm91.788 3.141l-9.07 1.102-2.968 2.664 11.568-1.168 0.47-2.598zm6.31 20.217l-19.422 2.478-2.664 2.948 21.616-2.811 0.47-2.615z" transform="matrix(.8 0 0 -.8 54 523.13)" fill="#FF8200"/></g></g></svg>