<?xml version="1.0" encoding="utf-8"?>
<!-- Generator: Adobe Illustrator 26.0.3, SVG Export Plug-In . SVG Version: 6.00 Build 0)  -->
<svg version="1.0" id="Layer_1" xmlns="http://www.w3.org/2000/svg" xmlns:xlink="http://www.w3.org/1999/xlink" x="0px" y="0px"
	 viewBox="0 0 865.9 590.6" style="enable-background:new 0 0 865.9 590.6;" xml:space="preserve">
<style type="text/css">
	.st0{fill:#C41527;}
	.st1{fill:#272324;}
	.st2{fill:#252122;}
	.st3{fill:#262223;}
	.st4{fill:#292526;}
	.st5{fill:#262324;}
	.st6{fill:#282425;}
	.st7{fill:#242122;}
	.st8{fill:#231F20;}
</style>
<path class="st0" d="M67.4,340.9c0,7,0.1,13.9-0.1,20.9c-0.2,1.5,0.7,3,2.1,3.6c9.7,5.5,20.5,9.1,31.6,10.5
	c15.9,2.1,31.1-0.4,44.7-9.2c16.6-10.8,23.4-26.4,21.7-46.1c-1.2-13.5-8.5-22.7-19.8-29.4c-9.3-5.5-19.2-9.2-29.2-13
	c-6.9-2.6-13.8-5.1-20.4-8.4c-1.6-0.8-3.2-1.7-4.8-2.6c-8.1-4.8-10.5-12.2-9.6-21.1c0.5-5.5,3.4-10.6,8-13.7
	c10.5-7.4,22-10,34.3-5.3c9,3.5,14.4,10.7,18.2,19.2c2.5,5.5,3.7,11.3,5,17.2c0.3,1.2,0.7,1.6,1.9,1.5c2.2-0.1,4.3-0.1,6.5,0
	c1,0,1.2-0.3,1.2-1.3c0-13.2,0-26.5,0-39.7c0.1-0.7-0.4-1.4-1.1-1.6c-10.2-4.4-21.1-7.2-32.2-8.1c-9-0.8-17.9-0.6-26.6,1.9
	c-13.2,3.7-24,10.8-29.6,23.8c-5.9,13.3-6,26.8,1.8,39.5c4.1,6.6,10.3,11,17,14.6c8.1,4.4,16.9,7.5,25.4,10.9
	c6.2,2.5,12.4,5.1,18,8.8c6.3,4.2,11.3,9.4,13.3,17c1.6,5.8,1.5,11.8-0.2,17.5c-2.2,7.3-7.2,12.1-14.2,14.6
	c-7.9,2.9-16.5,3.7-24.8,2.2c-8.8-1.6-14.9-7-19.3-14.6c-4.2-7.5-6.3-15.6-7.9-24c-0.5-2.6-1-5.2-1.3-7.9c-0.1-1-0.4-1.5-1.6-1.4
	c-2.2,0.1-4.4,0.1-6.5,0c-1.3-0.1-1.5,0.5-1.5,1.6C67.4,326.2,67.4,333.6,67.4,340.9z"/>
<path class="st0" d="M324.2,281.4c0,17.7-0.3,35.5,0.1,53.2c0.2,11.5,3.8,21.9,12.7,29.8c5.5,4.8,12.2,8.2,19.4,9.7
	c11.3,2.6,22.7,3.7,34.1,1.2c17-3.7,27.5-14.5,32.3-31c1.5-5.5,2.2-11.2,2.1-16.9c0-33.3,0-66.5,0-99.8c0-1.8,0.4-2.4,2.3-2.3
	c3.4,0.2,6.9,0,10.3,0.1c1,0,1.4-0.3,1.3-1.3c-0.1-1.8-0.1-3.6,0-5.4c0-0.9-0.3-1.1-1.1-1.1c-13.5,0-27.1,0-40.6,0
	c-0.9,0-1.1,0.3-1.1,1.1c0,1.8,0.1,3.6,0,5.4c0,1.1,0.4,1.3,1.4,1.3c4.6,0,9.2,0,13.8,0c1.3,0,1.8,0.2,1.8,1.7
	c0,34.1-0.1,68.2-0.1,102.3c0.1,6.4-1.2,12.8-3.8,18.7c-5,10.8-13.6,16.3-25.1,17.6c-5.7,0.8-11.6,0-16.9-2.3
	c-9.1-4.2-13.8-11.7-16-21.1c-0.9-4.6-1.4-9.2-1.2-13.9c0-33.6,0-67.3,0-100.9c0-1.7,0.5-2.1,2.1-2.1c4.4,0.1,8.8,0,13.2,0.1
	c1.1,0,1.7-0.1,1.6-1.5c-0.2-2.1,0.9-4.9-0.4-6.1c-1.1-1-3.9-0.3-5.9-0.3c-15.9,0-31.8,0-47.7,0c-1.4,0-2.1,0.2-1.9,1.8
	c0.1,1.5,0.1,3,0,4.5c-0.1,1.2,0.3,1.6,1.5,1.5c3.4-0.1,6.8,0,10.2-0.1c1.5,0,1.8,0.5,1.8,1.8C324.1,245.3,324.1,263.4,324.2,281.4
	L324.2,281.4z"/>
<path class="st0" d="M189.3,281.8c0,15.7,0,31.5,0,47.2c0,7.9,0.8,15.6,4,22.9c4.7,10.9,13.2,17.6,24.3,21
	c13.5,4.1,27.4,5.4,41.1,1.6c16.4-4.5,25.9-16,30-32.3c1.2-5,1.7-10.1,1.6-15.3c0-33.1,0-66.3,0-99.5c0-1.7,0.4-2.3,2.2-2.2
	c3.4,0.1,6.9,0,10.3,0.1c1.2,0,1.6-0.4,1.5-1.5c-0.1-1.6-0.1-3.3,0-4.9c0.1-1.1-0.3-1.5-1.4-1.4c-3,0.1-5.9,0-8.9,0
	c-10.3,0-20.6,0-30.8,0c-1.4,0-2,0.2-1.8,1.8c0.1,1.6,0.1,3.1,0,4.7c-0.1,1.1,0.4,1.4,1.4,1.4c4.6,0,9.2,0,13.8-0.1
	c1.4,0,1.7,0.4,1.7,1.7c0,34-0.1,68-0.1,102c0.2,7-1.3,13.9-4.4,20.2c-5.2,10.1-13.7,15.3-24.8,16.4c-5.2,0.7-10.6,0-15.5-1.8
	c-9.6-3.9-14.6-11.5-17-21.1c-1-4.5-1.5-9.1-1.4-13.7c0-33.9,0-67.8,0-101.6c0-1.6,0.3-2.1,2-2c4.4,0.1,8.8,0,13.2,0.1
	c1.3,0,1.9-0.2,1.8-1.7c-0.1-1.6-0.1-3.1,0-4.7c0.1-1.2-0.3-1.5-1.5-1.5c-5.8,0.1-11.5,0-17.2,0c-11.9,0-23.7,0-35.6,0
	c-1.3,0-1.9,0.2-1.7,1.7c0.1,1.6,0.1,3.3,0,4.9c0,1.1,0.4,1.3,1.4,1.3c3.4,0,6.8,0.1,10.1-0.1c1.5,0,1.9,0.4,1.9,1.9
	C189.3,245.4,189.3,263.6,189.3,281.8z"/>
<path class="st1" d="M759.3,245.7c-2.1-4.8-4.1-9.6-6.2-14.4c-1.8-4.1-3.6-8.2-5.2-12.3c-0.3-1.1-1.3-1.7-2.4-1.5
	c-1.9,0.1-3.9,0.1-5.8,0c-0.9,0-1.3,0.1-1.3,1.1c0,11.4,0,22.7,0,34.1c0,0.8,0.2,1.1,1.1,1.2c5.2,0.3,5.3,0.3,5.2-4.8
	c0-7.8,0.3-15.6-0.8-23.5c0.6,0.5,1,1.2,1.2,2c3.5,8.3,7.1,16.6,10.5,25c0.2,1,1.2,1.6,2.1,1.4c2.1-0.1,4.2-0.1,6.3,0
	c1,0,1.2-0.3,1.2-1.2c0-11.3,0-22.6,0-33.9c0-0.9-0.2-1.2-1.2-1.3c-5.2-0.2-5.2-0.2-5.2,4.9c0,7.6-0.3,15.1,0.7,22.6
	c0,0.2,0,0.4,0,0.6L759.3,245.7z"/>
<path class="st2" d="M532.2,366.3c-2-4.6-3.9-9.1-5.9-13.6c-1.8-4.3-3.7-8.5-5.5-12.8c-0.2-0.9-1.1-1.5-2-1.3c-2,0.1-4.1,0.1-6.2,0
	c-0.9,0-1.3,0.2-1.3,1.2c0,11.4,0,22.7,0,34.1c0,0.9,0.2,1.1,1.1,1.1c5.2,0.3,5.2,0.3,5.2-4.9c0-7.7,0.2-15.4-0.8-23.1
	c0.8,0.3,0.8,0.9,1,1.3c3.5,8.3,7,16.5,10.5,24.8c0.3,1.2,1.5,2,2.8,1.8c1.8-0.1,3.6-0.1,5.4,0c1.3,0.1,1.6-0.3,1.6-1.6
	c-0.1-6.8,0-13.7,0-20.5c0-4.3,0-8.6,0-12.9c0-1.2-0.3-1.6-1.5-1.5c-1.5,0.1-3.6-0.6-4.5,0.3c-1,1-0.3,3-0.3,4.5
	c0,7.1-0.3,14.3,0.5,21.4C532.6,365.3,532.5,365.9,532.2,366.3z"/>
<path class="st3" d="M700,235.7c0,5.6,0,11.1,0,16.7c0,1.3,0.4,1.7,1.6,1.6c1.3-0.1,2.7-0.1,4,0c1.1,0.1,1.5-0.3,1.4-1.4
	c-0.1-3.9,0-7.8-0.1-11.6c0-1.3,0.4-1.5,1.6-1.6c2.1-0.2,3.2,0.6,4.1,2.5c1.8,3.7,4,7.2,5.9,10.8c0.4,1,1.4,1.5,2.4,1.4
	c1.5-0.1,3,0,4.5,0c0.5,0,1.2,0.3,1.5-0.2s-0.4-1-0.6-1.4c-2.6-4.4-5.2-8.7-7.8-13c-0.5-0.7-0.6-1.1,0.4-1.6
	c5.2-2.7,7.1-6.3,6.1-11.6c-0.8-4.5-4.2-7.4-9.6-8.1c-4.8-0.6-9.7-0.2-14.5-0.4c-1.2,0-1,0.8-1,1.5C699.9,224.5,700,230.1,700,235.7
	z M710.3,234.3L710.3,234.3c-0.6,0-1.2,0-1.8,0c-1.3,0.2-1.7-0.3-1.6-1.6c0.1-3,0-5.9,0-8.9c0-0.5-0.2-1.3,0.8-1.3
	c2.2,0,4.5-0.2,6.7,0.5c1.6,0.3,2.8,1.5,3.2,3.1c0.9,3.6,0,7.9-5.5,8.1C711.5,234.3,710.9,234.3,710.3,234.3z"/>
<path class="st1" d="M645,356.8c0,5.5,0,11,0,16.5c0,1.4,0.4,1.8,1.7,1.7c1.7-0.2,4,0.8,5-0.4s0.2-3.2,0.3-4.9c0-2.7,0-5.3,0-8
	c0-1,0.3-1.2,1.3-1.4c2.3-0.3,3.6,0.5,4.6,2.6c1.8,3.7,3.9,7.2,5.9,10.8c0.3,0.8,1.2,1.4,2.1,1.2c1.7-0.1,3.4-0.1,5.1,0
	c1.4,0.1,1.4-0.3,0.8-1.4c-2.7-4.4-5.2-8.8-8-13.1c-0.7-1.1-0.5-1.5,0.6-2c4.6-2.2,6.5-5.8,5.9-10.7c-0.6-4.6-3.4-7.5-8.5-8.6
	c-3.2-0.5-6.5-0.7-9.8-0.6c-1.8,0-3.6,0.1-5.4,0c-1.3-0.1-1.6,0.3-1.6,1.6C645,345.7,645,351.3,645,356.8z M652,349.5
	c0-1.6,0-3.1,0-4.7c0-0.8,0.2-1.2,1.1-1.2c1.8,0.1,3.6,0,5.4,0.3c3,0.4,4.5,2.3,4.5,5.3c0,3.3-1.5,5.3-4.4,5.9
	c-1.9,0.2-3.7,0.3-5.6,0.3c-1,0-1.1-0.4-1.1-1.2C652,352.6,652,351,652,349.5z"/>
<path class="st4" d="M651,235.7c0-5.6,0-11.1,0-16.7c0-1.1-0.2-1.5-1.4-1.5c-1.4,0.1-2.9,0.1-4.3,0c-1.2-0.1-1.4,0.4-1.4,1.5
	c0.1,3.9,0,7.7,0,11.6c0,1.1-0.2,1.6-1.4,1.6c-3.3-0.1-6.7-0.1-10,0c-1.2,0-1.5-0.4-1.5-1.5c0.1-3.8,0-7.6,0-11.4
	c0-1.2-0.2-1.8-1.5-1.7c-1.8,0.2-4.1-0.7-5.2,0.4s-0.3,3.4-0.3,5.1c0,9.6,0,19.2-0.1,28.9c0,1.8,0.5,2.3,2.2,2.1
	c1.1-0.1,2.3-0.1,3.4,0c1.1,0.1,1.5-0.3,1.4-1.4c-0.1-4.4,0-8.8-0.1-13.2c0-1.3,0.3-1.6,1.6-1.6c3.3,0.1,6.7,0.1,10,0
	c1,0,1.3,0.3,1.3,1.3c-0.1,4.4,0,8.8-0.1,13.2c0,1.4,0.4,1.8,1.7,1.7c1.3-0.1,2.5-0.1,3.8,0c1.3,0.1,1.6-0.3,1.6-1.6
	C651,246.8,651,241.2,651,235.7z"/>
<path class="st3" d="M536.2,235.7c0.1-2.8-0.3-5.6-1.1-8.2c-2.2-6.9-7.3-10.7-14.5-10.7c-7.4,0-12.7,3.7-15,10.6
	c-1.7,5.3-1.8,10.9-0.2,16.3c2.1,7.2,7.6,11.2,15,11.2c7.5-0.1,12.9-4.3,14.9-11.7C535.9,240.7,536.2,238.2,536.2,235.7z
	 M528.8,235.6c0.1,2.8-0.2,5.7-1.1,8.4c-1.3,3.6-3.7,5.4-7.3,5.4c-3.4,0.2-6.5-1.9-7.5-5.2c-1.9-5.5-1.9-11.4,0-16.9
	c1.2-3.5,3.8-5.2,7.5-5.1s5.9,1.7,7.2,5.2C528.5,230,528.9,232.8,528.8,235.6z"/>
<path class="st1" d="M606.4,296.3c0-5.6,0-11.1,0-16.7c0-1.2-0.3-1.6-1.5-1.5c-1.8,0.1-4.2-0.6-5.3,0.3s-0.3,3.4-0.3,5.2
	c-0.1,2.6-0.1,5.2,0,7.8c0,1-0.3,1.3-1.3,1.3c-3.4-0.1-6.8-0.1-10.2,0c-1.1,0-1.4-0.2-1.4-1.4c0.1-3.9,0-7.9,0.1-11.8
	c0-1.1-0.2-1.5-1.4-1.4c-1.8,0.1-4.2-0.6-5.3,0.3s-0.4,3.4-0.4,5.2c0,9.7,0,19.5,0,29.2c0,1.3,0.2,1.9,1.7,1.7
	c1.2-0.1,2.4-0.1,3.6,0c1.3,0.1,1.9-0.2,1.8-1.7c-0.1-4.4,0-8.7-0.1-13c0-1.1,0.2-1.6,1.5-1.5c3.3,0.1,6.5,0.1,9.8,0
	c1.2,0,1.6,0.3,1.6,1.6c-0.1,4.4,0,8.8-0.1,13.2c0,1.2,0.3,1.6,1.5,1.5c1.8-0.1,4.2,0.6,5.3-0.3s0.3-3.4,0.4-5.2
	C606.4,304.7,606.4,300.5,606.4,296.3z"/>
<path class="st3" d="M575.6,230.8c0-3.9-0.1-7.7,0-11.6c0-1.4-0.5-1.8-1.7-1.6c-1.3,0.1-2.5,0.1-3.8,0c-1.3-0.1-1.6,0.4-1.6,1.6
	c0.1,7.1,0,14.3,0,21.4c0,0.9,0,1.7-0.1,2.5c-0.3,4.2-2.4,6.2-6.4,6.2s-6.2-2-6.4-6.1c-0.2-7.5-0.1-15.1-0.2-22.7c0-3,0-3-3-3
	c-4,0-4,0-4,3.9c0,6.8,0,13.7,0,20.5c0.1,6.3,2.9,10.5,8.2,12.1c3.4,1,7.1,1,10.5,0c5.1-1.5,8.2-5.7,8.3-11.5
	C575.6,238.6,575.5,234.7,575.6,230.8L575.6,230.8z"/>
<path class="st5" d="M470,352c0,3.6,0,7.2,0,10.9c0,7.6,4.2,12.2,11.8,12.9c2,0.2,4,0,5.9-0.4c5.7-1.4,9.1-5.4,9.3-11.6
	c0.2-8,0.1-16,0.1-23.9c0-0.9-0.3-1.2-1.1-1.1c-1.3,0.1-2.7,0.1-4,0c-1.5-0.1-2.1,0.3-2,2c0.1,7,0,14,0,21c0,0.8,0,1.6,0,2.4
	c-0.3,5.3-4.8,8-9.6,5.8c-1.7-0.8-2.8-2.4-3.1-4.2c-0.2-1.3-0.3-2.5-0.3-3.8c0-7.1-0.1-14.3,0-21.4c0-1.5-0.5-1.9-1.8-1.8
	c-1.3,0.1-2.5,0.1-3.8,0c-1.2-0.1-1.4,0.4-1.4,1.5C470.1,344,470,348,470,352z"/>
<path class="st5" d="M490,291.6c0,3.9,0.1,7.7,0,11.6c-0.1,4.7-2.5,6.8-7.2,6.5c-2.8,0.1-5.2-2-5.5-4.8c-0.2-1.3-0.3-2.5-0.3-3.8
	c0-7.1-0.1-14.3,0-21.4c0-1.5-0.4-1.9-1.8-1.7c-1.4,0.1-2.8,0.1-4.2,0c-0.8,0-1,0.2-1,1c0,8.2-0.1,16.5,0.1,24.7
	c0.2,6.4,4.5,10.7,11,11.3c2.6,0.3,5.2,0.1,7.7-0.6c4.4-1.2,7.7-5.1,8.1-9.7c0.5-3.4,0.2-6.8,0.2-10.1c0-5,0-10,0-15.1
	c0-1.2-0.3-1.6-1.5-1.5c-1.8,0.1-4.2-0.6-5.3,0.3s-0.3,3.4-0.4,5.2C490,286.2,490,288.9,490,291.6L490,291.6z"/>
<path class="st3" d="M538,314.4c2.1,0,4.2,0,6.2,0c0.9,0,1.1-0.5,1.3-1.2c0.5-2,1.1-4.1,1.6-6.1c0.1-0.7,0.6-1.2,1.3-1.1
	c0,0,0.1,0,0.1,0c3.2,0,6.4,0,9.6,0c0.9,0,1.4,0.2,1.6,1.2c0.4,2,1.1,4,1.6,6c0.2,0.9,0.5,1.3,1.5,1.3c2-0.1,4,0,6.2,0
	c-1.2-4-2.4-7.8-3.6-11.6c-2.4-7.7-4.8-15.4-7.1-23.2c-0.4-1.2-0.8-1.7-2.1-1.6c-2.3,0.2-5.3-0.9-6.9,0.4c-1.6,1.3-1.6,4.1-2.3,6.3
	c-2.9,9.4-5.9,18.8-8.8,28.1C538.2,313.4,538.1,313.9,538,314.4z M553.2,284c0.1,0.1,0.3,0.2,0.3,0.3c1.4,5.2,2.8,10.3,4.3,15.5
	c0.2,0.8-0.2,0.9-0.9,0.9c-2.3,0-4.6,0-6.9,0c-0.9,0-1.3-0.1-1-1.2C550.5,294.4,551.9,289.2,553.2,284L553.2,284z"/>
<path class="st3" d="M481.2,216.8c-2.9-0.1-5.8,0.7-8.2,2.2c-4.4,2.8-5.6,8.7-2.8,13c0.7,1,1.5,1.9,2.5,2.6c2.4,1.7,5.2,2.5,7.9,3.5
	c1,0.3,2,0.7,3,1.2c2.6,1.3,3.5,2.8,3.1,5.5c-0.3,2.2-1.9,3.8-4.5,4.3c-3.5,0.7-7.2-0.2-10.1-2.4c-1.2-0.9-1.8-0.8-2.5,0.3
	c-0.1,0.1-0.2,0.2-0.2,0.3c-2.5,2.7-2.5,2.8,0.8,4.8c5.1,3.1,11.2,3.6,16.8,1.6c4.2-1.2,7.1-5,7.1-9.3c0.3-4.8-1.7-8.2-6-10.4
	c-1.9-0.9-3.9-1.6-5.9-2.2c-1.4-0.4-2.8-1-4.2-1.7c-1.9-1.1-2.6-3.5-1.6-5.4c0.5-0.9,1.3-1.6,2.3-1.9c3.2-1,6.6-0.5,9.3,1.5
	c1.3,0.9,1.9,0.9,3-0.4c2.3-2.9,2.4-2.8-0.8-4.7C487.6,217.5,484.4,216.7,481.2,216.8z"/>
<path class="st3" d="M693.2,375.8c2.8,0.1,5.6-0.6,8.1-1.8c3.4-1.6,5.6-5,5.7-8.8c0.4-4-1.6-7.8-5.1-9.7c-2.3-1.2-4.7-2.2-7.2-2.9
	c-1.3-0.5-2.6-1-3.8-1.6c-1.5-0.7-2.4-2.4-2.1-4.1c0.2-1.6,1.3-3,2.9-3.3c3.2-1,6.6-0.3,9.3,1.7c1.4,1,1.9,0.6,2.8-0.5
	c2.3-2.9,2.4-2.9-0.9-4.7c-4.7-2.8-10.5-3.1-15.5-0.9c-3.4,1.3-5.7,4.5-5.8,8.1c-0.4,3.7,1.5,7.2,4.7,8.9c2.2,1.2,4.6,2.2,7,2.9
	c1.2,0.4,2.4,0.9,3.5,1.4c2.3,1.2,3.1,2.6,2.9,5.1c-0.2,2.1-1.7,3.9-3.8,4.3c-3.7,1-7.7,0.2-10.8-2.2c-1.2-0.9-1.8-0.8-2.5,0.3
	c-0.1,0.1-0.2,0.3-0.4,0.4c-2.4,2.6-2.4,2.6,0.7,4.5C686,374.8,689.6,375.8,693.2,375.8z"/>
<path class="st1" d="M665.7,235.9c0,5.5,0,11,0,16.5c0,1.3,0.4,1.6,1.6,1.6c6.1-0.1,12.2-0.1,18.3,0c1.2,0,1.5-0.3,1.5-1.5
	c0-3.7,0-3.7-3.8-3.7c-3.1,0-6.3,0-9.4,0c-1,0-1.2-0.3-1.2-1.2c0.1-2.7,0.1-5.4,0-8.2c0-1.1,0.4-1.3,1.4-1.3c3,0,5.9,0,8.9,0
	c1,0,1.5-0.2,1.5-1.4c0-3.9,0.1-3.9-3.8-3.9c-2.2,0-4.5,0-6.7,0c-1,0-1.2-0.3-1.2-1.2c0-2.4,0.1-4.8,0-7.2c0-1.2,0.3-1.7,1.6-1.6
	c3.4,0.1,6.9,0,10.3,0c1.2,0,1.6-0.4,1.8-1.6c0.4-3.6,0.5-3.6-3.2-3.6c-5.1,0-10.2,0.1-15.2,0c-1.7,0-2.4,0.3-2.3,2.2
	C665.8,225.1,665.7,230.5,665.7,235.9z"/>
<path class="st3" d="M585.6,368.4c-2.5-9.7-5-19-7.4-28.4c-0.3-1.2-0.8-1.6-1.9-1.5c-1.6,0.1-3.1,0.1-4.7,0c-1.1,0-1.2,0.3-0.9,1.3
	c3.5,11.3,7,22.7,10.4,34.1c0.1,0.7,0.7,1.2,1.4,1.1c0,0,0.1,0,0.1,0c2-0.1,4-0.1,6,0c0.9,0,1.2-0.4,1.5-1.1
	c3.3-11.3,6.7-22.7,10.1-34c0.3-1.1,0.1-1.4-1-1.4c-1.9,0.1-4.1-0.5-5.5,0.3s-1.2,3.3-1.6,5c-2,7.7-3.9,15.4-5.9,23.1
	C586,367.3,586,367.7,585.6,368.4z"/>
<path class="st3" d="M610.8,356.8c0,5.6,0,11.1,0,16.7c0,1.2,0.3,1.5,1.5,1.5c6.2-0.1,12.3-0.1,18.5,0c1.1,0,1.4-0.2,1.5-1.4
	c0-3.9,0.1-3.9-3.8-3.9c-3.1,0-6.2,0-9.2,0c-1.1,0-1.5-0.2-1.5-1.4c0.1-2.6,0.1-5.3,0-8c0-1.1,0.3-1.3,1.3-1.3c3,0,6,0,9.1,0
	c1,0,1.3-0.2,1.4-1.3c0.1-3.9,0.1-3.9-3.8-3.9c-2.2,0-4.5,0-6.7,0c-0.9,0-1.3-0.3-1.2-1.2c0.1-2.5,0.1-5.1,0-7.6
	c0-1,0.3-1.3,1.3-1.3c3.6,0.1,7.1,0,10.7,0.1c1.2,0,1.6-0.4,1.7-1.5c0.5-3.8,0.5-3.8-3.3-3.8c-5.3,0-10.5,0-15.8,0
	c-1.2,0-1.6,0.3-1.6,1.6C610.9,345.7,610.8,351.2,610.8,356.8z"/>
<path class="st1" d="M786.2,355.3c-2.4-5.2-4.7-10.2-7-15.3c-0.3-1-1.3-1.6-2.3-1.5c-1.5,0.1-3,0.1-4.5,0c-1.5-0.1-1.5,0.4-0.9,1.5
	c3.3,6.4,6.6,12.8,9.9,19.1c0.7,1.3,1.1,2.8,1.1,4.3c-0.1,3.4,0,6.8,0,10.1c0,1.1,0.2,1.5,1.4,1.5c1.4-0.1,2.9-0.1,4.3,0
	c1.1,0.1,1.5-0.3,1.4-1.4c-0.1-3.7,0-7.4,0-11.1c0-1,0.2-1.9,0.7-2.8c3.4-6.6,6.9-13.3,10.3-19.9c0.3-0.4,0.4-0.8,0.4-1.3h-6.4
	c-0.9,0-1,0.8-1.2,1.3c-2.1,4.5-4.2,9.1-6.2,13.7C786.8,354.1,786.6,354.6,786.2,355.3z"/>
<path class="st6" d="M596,238.4c0,4.6,0,9.2,0,13.8c0,1.3,0.2,1.9,1.6,1.7c1.8-0.2,4.2,0.8,5.2-0.4c0.9-1,0.3-3.3,0.3-5.1
	c0-7.9,0-15.8,0-23.7c0-1.2,0.3-1.7,1.6-1.6c2.2,0.1,4.5,0,6.7,0c0.9,0,1.2-0.2,1.3-1.2c0.6-4.4,0.6-4.4-3.8-4.4c-7,0-14,0-21,0
	c-1.5,0-1.8,0.5-1.8,1.8c0.1,3.8,0,3.8,3.7,3.8c1.6,0,3.1,0.1,4.7,0c1.1-0.1,1.4,0.3,1.4,1.4C596,229.1,596,233.8,596,238.4z"/>
<path class="st7" d="M747.2,359.6c0,4.7,0,9.3,0,14c0,1.1,0.2,1.5,1.4,1.4c1.4-0.1,2.8-0.1,4.2,0c1.3,0.1,1.5-0.5,1.5-1.6
	c0-9.2,0-18.4-0.1-27.6c0-1.4,0.4-1.9,1.8-1.8c2.1,0.1,4.2,0,6.3,0.1c1,0,1.5-0.2,1.6-1.4c0.5-4.2,0.6-4.2-3.7-4.2
	c-7.1,0-14.1,0-21.2,0c-1.3,0-1.6,0.3-1.6,1.6c0,4,0,4,4,4c1.4,0.1,2.8,0.1,4.2,0c1.5-0.1,1.7,0.5,1.6,1.7
	C747.2,350.4,747.2,355,747.2,359.6z"/>
<path class="st8" d="M524.6,298.8c0-4.4,0.1-8.7-0.1-13c-0.1-2,0.6-2.3,2.3-2.2c1.9,0.1,3.9,0,5.8,0c0.4,0,0.7,0,1.1-0.1
	c0.4-0.1,1.3-5,0.9-5.3c-0.3-0.1-0.7-0.2-1-0.2c-8.2,0-16.4,0-24.6,0c-0.8,0-1.1,0.2-1.1,1.1c-0.2,4.4-0.2,4.4,4.1,4.4
	c1.4,0,2.8,0.1,4.2,0s1.6,0.4,1.6,1.6c0,9.2,0,18.4-0.1,27.5c0,1.5,0.4,1.9,1.8,1.7c1.7-0.1,3.9,0.5,4.9-0.3c1-0.9,0.3-3.3,0.3-5
	C524.6,305.7,524.6,302.3,524.6,298.8z"/>
<path class="st8" d="M553.1,356.7c0,5.6,0,11.1,0,16.7c0,1.2,0.3,1.7,1.6,1.6c1.3-0.1,2.5-0.1,3.8,0c1.3,0.1,1.6-0.3,1.6-1.6
	c-0.1-7,0-14,0-21c0-4.2,0-8.3,0-12.5c0-1-0.2-1.4-1.3-1.3c-1.8,0.2-4.2-0.8-5.4,0.4c-0.9,0.9-0.3,3.3-0.3,5.1
	C553.1,348.2,553.1,352.5,553.1,356.7z"/>
<path class="st8" d="M719.3,356.9c0,5.5,0,11,0,16.5c0,1.2,0.3,1.7,1.6,1.6c1.3-0.1,2.5-0.1,3.8,0c1.3,0.1,1.6-0.3,1.6-1.6
	c-0.1-6.8,0-13.5,0-20.3c0-4.4,0-8.7,0-13.1c0-1.2-0.3-1.6-1.5-1.5c-1.7,0.1-4.1-0.6-5.1,0.3s-0.3,3.4-0.3,5.2
	C719.2,348.3,719.3,352.6,719.3,356.9z"/>
</svg>
