<?xml version="1.0" encoding="utf-8"?>
<!-- Generator: Adobe Illustrator 24.2.0, SVG Export Plug-In . SVG Version: 6.00 Build 0)  -->
<svg version="1.1" id="logo-wordmark" xmlns="http://www.w3.org/2000/svg" xmlns:xlink="http://www.w3.org/1999/xlink" x="0px"
	 y="0px" viewBox="0 0 249.9 60" style="enable-background:new 0 0 249.9 60;" xml:space="preserve">
<style type="text/css">
	.st0{fill:#003957;}
	.st1{fill:#FFFFFF;}
	.st2{fill:#005694;}
	.st3{fill:#285E3E;}
	.st4{fill:none;}
</style>
<path class="st0" d="M80.5,11.9c-0.3,0.3-0.7,0.3-1,0.1c-0.6-2.9-3.2-4.9-6.1-4.6c-4,0-8,2.8-8,9.3c0,6.7,4.2,9.9,8.3,9.9
	c4,0,5.7-2.6,6.6-4.7c0.3-0.2,0.7-0.2,0.9,0.1c0,0,0,0,0.1,0.1c-0.2,1.7-0.7,3.3-1.5,4.8c-0.4,0.1-0.7,0.2-1.1,0.3
	c-1.6,0.5-3.3,0.7-4.9,0.8c-2.8,0.1-5.6-0.6-8.1-2.1c-2.9-1.9-4.6-5.2-4.5-8.6c-0.2-3.5,1.3-6.5,3.8-8.5c2.6-1.8,5.6-2.7,8.7-2.7
	c1.8,0,3.7,0.3,5.5,0.7c0.4,0.1,0.6,0.1,0.9,0.2C80.1,7.7,80.2,9.6,80.5,11.9z M90.3,17.3c-1.6,0-1.7,0.1-1.7,0.9v4.6
	c0,3.3,0.3,3.4,1.8,3.6l0.9,0.1c0.2,0.2,0.2,0.8-0.1,0.9c-1.6-0.1-3.1-0.1-4.4-0.1c-1.4,0-2.8,0-4,0.1c-0.3-0.1-0.3-0.7-0.1-0.9
	l0.4-0.1c1.5-0.2,1.8-0.3,1.8-3.6V11.1c0-3.3-0.3-3.4-1.8-3.6l-0.6-0.1c-0.2-0.3-0.2-0.7,0.1-0.9c1.4,0.1,2.9,0.1,4.3,0.1
	c1.4,0,2.8,0,4-0.1c0.3,0.2,0.3,0.6,0.1,0.9l-0.5,0.1c-1.5,0.3-1.8,0.3-1.8,3.6v3.8c0,0.9,0.1,0.9,1.7,0.9h7.4
	c1.6,0,1.7-0.1,1.7-0.9v-3.8c0-3.3-0.3-3.4-1.8-3.6L97,7.4c-0.2-0.3-0.2-0.7,0.1-0.9c1.5,0.1,2.9,0.1,4.3,0.1s2.8,0,4.1-0.1
	c0.3,0.2,0.3,0.6,0.1,0.9L105,7.5c-1.5,0.3-1.8,0.3-1.8,3.6v11.7c0,3.3,0.3,3.4,1.8,3.6l0.7,0.1c0.2,0.2,0.2,0.8-0.1,0.9
	c-1.4-0.1-2.8-0.1-4.2-0.1c-1.5,0-2.9,0-4.3,0.1c-0.3-0.1-0.3-0.7-0.1-0.9l0.7-0.1c1.5-0.2,1.8-0.3,1.8-3.6v-4.6
	c0-0.8-0.1-0.9-1.7-0.9H90.3z M114.3,19.6c-0.8,0-0.8,0-1.1,0.8l-1.3,3.8c-0.6,1.9-0.5,1.9,0.7,2.1l0.9,0.2c0.2,0.2,0.2,0.8-0.1,0.9
	c-1-0.1-2-0.1-3.3-0.1c-1,0-2,0-3.1,0.1c-0.2-0.3-0.2-0.6,0-0.9l0.9-0.2c0.9-0.2,1.3-0.4,1.7-1.4c0.4-0.8,0.9-2.1,1.5-3.8l4.4-11.2
	c0.4-0.7,0.6-1.5,0.6-2.3c0.8-0.3,1.6-0.8,2.2-1.5c0.2,0,0.4,0.1,0.5,0.3c0.5,1.4,0.9,2.9,1.4,4.3l4.5,13.1c0.7,2.1,0.9,2.3,2.5,2.6
	l0.5,0.1c0.2,0.2,0.3,0.6,0,0.9c-1.3-0.1-2.5-0.1-4.1-0.1c-1.4,0-2.7,0.1-3.8,0.1c-0.2-0.2-0.3-0.6-0.1-0.9l0.7-0.1
	c1.1-0.2,1.3-0.3,0.8-1.7l-1.5-4.3c-0.3-0.8-0.4-0.8-1.3-0.8H114.3z M118.1,18.2c0.9,0,1-0.1,0.8-0.8l-1.4-3.8
	c-0.2-0.8-0.5-1.7-0.9-2.5h-0.1c-0.1,0.2-0.4,1-0.9,2.5l-1.3,3.7c-0.3,0.9-0.3,0.9,0.5,0.9L118.1,18.2z M155.7,26.5
	c0.3,0.1,0.3,0.8-0.1,0.9c-1.4-0.1-2.6-0.1-3.8-0.1c-1.5,0-2.8,0-4.2,0.1c-0.3-0.1-0.4-0.7-0.1-0.9l0.9-0.2c1.3-0.2,1.4-0.4,1.4-2.6
	V10.9h-0.1c-0.9,1.7-1.3,2.7-1.9,3.9l-2.7,5.5c-1.1,2.2-2.6,5.7-3.2,7.1c-0.3,0.1-0.6,0.1-0.8,0c-0.5-1.7-1.9-4.8-2.6-6.3l-2.8-6
	c-0.6-1.3-1.5-3.3-1.8-4.2h-0.1c-0.1,1.5-0.1,4-0.2,5.3c-0.1,1.9-0.1,4.7-0.1,7.3c0,2.1,0,2.5,1.4,2.8l1,0.2c0.2,0.2,0.2,0.8,0,0.9
	c-1.2-0.1-2.1-0.1-3.3-0.1c-1,0-2.1,0-3.4,0.1c-0.3-0.2-0.3-0.6-0.1-0.9l0.5-0.1c1.5-0.2,1.7-0.7,2-2.6c0.2-2,0.3-4,0.5-7.3
	c0.1-2.1,0.3-4.7,0.3-6.6c0-1.5-0.5-2.1-1.7-2.3l-1.2-0.2c-0.2-0.2-0.2-0.8,0.1-0.9c0.9,0.1,1.8,0.1,3,0.1c1.1,0,2.2,0,3.4-0.1
	c0.2,1.8,0.8,3.6,1.7,5.2l3.5,7.2c0.3,0.5,1.1,2.1,1.5,2.8c0.5-0.9,0.9-1.8,1.6-3.3l3-6c1-1.9,1.9-3.9,2.6-6
	c0.9,0.1,1.9,0.1,2.6,0.1c1.3,0,2.4,0,3.3-0.1c0.3,0.1,0.4,0.5,0.2,0.7c0,0.1-0.1,0.1-0.1,0.2l-1,0.2c-1.4,0.2-1.7,0.7-1.7,2.4
	c0,4.6,0.1,9.3,0.3,13.9c0.1,2.1,0.4,2.3,1.5,2.4L155.7,26.5z M160.9,11.3c0-2.9,0-3.4-1.4-3.5l-1.1-0.1c-0.2-0.2-0.2-0.8,0-0.9
	c2.3-0.2,4.6-0.3,7-0.3c3,0,5.2,0.4,6.6,1.3c1.7,1,2.7,2.8,2.7,4.7c0,4.8-4.6,6.1-7.1,6.1c-0.3,0-0.5,0-0.8,0
	c-0.2-0.2-0.3-0.5-0.1-0.8c2.9-0.6,3.9-2.6,3.9-5.2c0.2-2.5-1.7-4.6-4.2-4.8c-0.1,0-0.2,0-0.4,0c-1.6,0-1.6,0.1-1.6,1.3v13.7
	c0,3.3,0.3,3.4,1.8,3.6l1.2,0.1c0.2,0.2,0.2,0.8-0.1,0.9c-1.9-0.1-3.3-0.1-4.7-0.1s-2.8,0-4.1,0.1c-0.3-0.1-0.3-0.7-0.1-0.9l0.5-0.1
	c1.5-0.2,1.8-0.3,1.8-3.6L160.9,11.3z M182,22.1c0,1.6,0.1,2.7,0.5,3.2c0.4,0.4,0.9,0.7,3.4,0.7c3.5,0,4-0.2,5.5-3.4
	c0.3-0.2,0.7-0.1,1,0.2c-0.3,1.5-0.8,3.1-1.3,4.5c-1.3-0.1-4-0.1-7.6-0.1h-3.3c-1.6,0-3.2,0-4.5,0.1c-0.3-0.1-0.3-0.8-0.1-0.9
	l0.9-0.2c1.5-0.3,1.8-0.3,1.8-3.5V11.1c0-3.3-0.3-3.4-1.8-3.6l-0.9-0.1c-0.2-0.2-0.2-0.8,0.1-0.9c1.6,0.1,3,0.1,4.4,0.1
	c1.4,0,2.8,0,4.2-0.1c0.3,0.2,0.3,0.6,0.1,0.9l0,0l-0.7,0.1c-1.5,0.3-1.8,0.3-1.8,3.6L182,22.1z M200.1,19.6c-0.8,0-0.8,0-1.1,0.8
	l-1.3,3.8c-0.6,1.9-0.5,1.9,0.7,2.1l0.9,0.2c0.2,0.2,0.2,0.8-0.1,0.9c-1-0.1-2-0.1-3.3-0.1c-1,0-2,0-3.1,0.1c-0.2-0.3-0.2-0.6,0-0.9
	l0.9-0.2c0.9-0.2,1.3-0.4,1.7-1.4c0.4-0.8,0.9-2.1,1.5-3.8l4.3-11.2c0.4-0.7,0.6-1.5,0.6-2.3c0.8-0.3,1.6-0.8,2.2-1.5
	c0.2,0,0.4,0.1,0.5,0.3c0.5,1.4,0.9,2.9,1.4,4.3l4.5,13.1c0.7,2.1,0.9,2.3,2.5,2.6l0.5,0.1c0.2,0.2,0.3,0.6,0,0.9
	c-1.3-0.1-2.5-0.1-4.1-0.1c-1.4,0-2.7,0.1-3.8,0.1c-0.2-0.2-0.3-0.6-0.1-0.9l0.7-0.1c1.1-0.2,1.3-0.3,0.8-1.7l-1.5-4.3
	c-0.3-0.8-0.4-0.8-1.3-0.8H200.1z M203.9,18.2c0.9,0,1-0.1,0.8-0.8l-1.3-3.8c-0.2-0.8-0.5-1.7-0.9-2.5h-0.1c-0.1,0.2-0.4,1-0.9,2.5
	l-1.3,3.7c-0.3,0.9-0.3,0.9,0.5,0.9L203.9,18.2z M221.5,22.8c0,3.3,0.3,3.4,1.8,3.6l0.7,0.1c0.2,0.2,0.2,0.8-0.1,0.9
	c-1.4-0.1-2.8-0.1-4.2-0.1s-2.9,0-4.3,0.1c-0.3-0.1-0.3-0.7-0.1-0.9l0.7-0.1c1.5-0.2,1.8-0.3,1.8-3.6V11.1c0-3.3-0.3-3.4-1.8-3.6
	l-0.7-0.1c-0.2-0.2-0.2-0.8,0.1-0.9c1.4,0.1,2.8,0.1,4.3,0.1c1.4,0,2.8,0,4.2-0.1c0.3,0.1,0.3,0.7,0.1,0.9l-0.7,0.1
	c-1.6,0.2-1.8,0.3-1.8,3.6V22.8z M247.2,22c0,0.9,0,4.8,0.1,5.5c-0.3,0.3-0.7,0.5-1.1,0.4c-0.5-0.7-1.4-1.7-3.7-4.3l-7.4-8.4
	c-2-2.3-3.1-3.5-3.6-3.9c-0.1,0-0.1,0.3-0.1,2v6.1c0,2.4,0,5.2,0.6,6.2c0.4,0.5,1,0.8,1.6,0.8l0.7,0.1c0.3,0.2,0.3,0.8-0.1,0.9
	c-1.2-0.1-2.4-0.1-3.6-0.1c-1.3,0-2.2,0-3.3,0.1c-0.3-0.2-0.3-0.6-0.1-0.9l0,0l0.7-0.2c0.6-0.1,1.2-0.2,1.4-0.7
	c0.4-1,0.4-3.7,0.4-6.2V12c0-2.4,0-2.9-1-3.9c-0.5-0.3-1.1-0.5-1.7-0.6l-0.5-0.1c-0.2-0.2-0.2-0.8,0.1-0.9c1.2,0.1,2.9,0.1,3.7,0.1
	c0.7,0,1.4,0,2.2-0.1c0.5,1.3,4,5.3,5.1,6.5l3.2,3.4c1.3,1.4,4.3,4.8,4.6,5c0.1-0.1,0.1-0.3,0.1-0.8v-6.1c0-2.4,0-5.2-0.6-6.2
	c-0.4-0.5-1-0.8-1.6-0.8l-0.7-0.1c-0.3-0.2-0.3-0.8,0.1-0.9c1.2,0.1,2.4,0.1,3.6,0.1c1.4,0,2.2,0,3.3-0.1c0.3,0.2,0.3,0.6,0.1,0.9
	l0,0L249,7.6c-0.6,0.1-1.1,0.2-1.4,0.7c-0.4,1-0.4,3.7-0.4,6.2L247.2,22z M80.5,38c-0.3,0.3-0.7,0.3-1,0.1c-0.6-2.8-3.2-4.8-6.1-4.6
	c-4,0-8,2.8-8,9.2c0,6.7,4.2,9.9,8.3,9.9c4,0,5.7-2.6,6.6-4.7c0.3-0.2,0.7-0.2,0.9,0.1c0,0,0,0,0.1,0.1c-0.2,1.7-0.7,3.3-1.5,4.8
	c-0.4,0.1-0.7,0.2-1.1,0.3c-1.6,0.5-3.3,0.7-4.9,0.8c-2.8,0.1-5.6-0.6-8.1-2.1c-2.9-1.9-4.6-5.2-4.5-8.6c-0.1-3.2,1.4-6.3,4-8.3
	c2.5-1.8,5.6-2.7,8.7-2.7c1.8,0,3.7,0.3,5.5,0.7c0.4,0.1,0.6,0.1,0.9,0.2C80.1,33.8,80.2,35.7,80.5,38z M104.8,43.1
	c0.1,5.9-4.6,10.7-10.5,10.8c-0.2,0-0.4,0-0.6,0c-7.1,0-11.2-5-11.2-10.6c-0.2-6,4.5-10.9,10.5-11.1c0.3,0,0.5,0,0.8,0
	C101,32.2,104.8,37.4,104.8,43.1z M86.7,42.4c0,4.3,1.9,10.2,7.3,10.2c3.6,0,6.5-2.7,6.5-9c0-4.7-2.1-10.2-7.2-10.2
	C90.2,33.5,86.7,35.8,86.7,42.4L86.7,42.4z M112.2,48.2c0,1.6,0.1,2.7,0.5,3.2c0.4,0.4,0.9,0.7,3.4,0.7c3.5,0,4-0.2,5.5-3.4
	c0.3-0.2,0.7-0.1,1,0.2c-0.3,1.5-0.8,3.1-1.3,4.5c-1.3-0.1-4-0.1-7.6-0.1h-3.3c-1.6,0-3.2,0-4.5,0.1c-0.3-0.1-0.3-0.8-0.1-0.9
	l0.9-0.2c1.5-0.3,1.8-0.3,1.8-3.5V37.2c0-3.3-0.3-3.4-1.8-3.6l-0.9-0.1c-0.2-0.2-0.2-0.8,0.1-0.9c1.6,0.1,3,0.1,4.4,0.1
	s2.8,0,4.2-0.1c0.3,0.2,0.3,0.6,0.1,0.9l0,0l-0.7,0.1c-1.5,0.3-1.8,0.3-1.8,3.6L112.2,48.2z M129.9,48.2c0,1.6,0.1,2.7,0.5,3.2
	c0.4,0.4,0.9,0.7,3.4,0.7c3.5,0,4-0.2,5.5-3.4c0.3-0.2,0.7-0.1,1,0.2c-0.3,1.5-0.8,3.1-1.3,4.5c-1.3-0.1-4-0.1-7.6-0.1h-3.3
	c-1.6,0-3.2,0-4.5,0.1c-0.3-0.1-0.3-0.8-0.1-0.9l0.9-0.2c1.5-0.3,1.8-0.3,1.8-3.5V37.2c0-3.3-0.3-3.4-1.8-3.6l-0.9-0.1
	c-0.2-0.2-0.2-0.8,0.1-0.9c1.6,0.1,3,0.1,4.4,0.1c1.4,0,2.8,0,4.2-0.1c0.3,0.2,0.3,0.6,0.1,0.9l0,0l-0.7,0.1
	c-1.5,0.3-1.8,0.3-1.8,3.6L129.9,48.2z M143.9,37.2c0-3.3-0.3-3.4-1.8-3.6l-0.5-0.1c-0.2-0.2-0.2-0.8,0.1-0.9
	c1.2,0.1,2.7,0.1,4.1,0.1h6c2,0,3.8,0,4.3-0.1c0.1,0.5,0.3,3,0.5,4.4c-0.1,0.3-0.8,0.3-1,0.1c-0.5-1.8-1-2.6-2-2.9
	c-0.8-0.2-1.7-0.3-2.5-0.3H149c-1.4,0-1.4,0.1-1.4,1.9v5.3c0,0.8,0,0.8,0.8,0.8h1.5c2.7,0,3.2,0,3.5-1.4l0.2-1.1
	c0.3-0.2,0.9-0.2,1,0c0,0.8-0.1,2-0.1,3.1c0,1.2,0.1,2.3,0.1,3.3c-0.2,0.2-0.8,0.2-1,0l-0.2-1.3c-0.2-1.3-0.8-1.4-3.5-1.4h-1.5
	c-0.7,0-0.8,0.1-0.8,0.8v4c0,1.6,0.1,2.7,0.5,3.3c0.4,0.4,0.9,0.7,3.6,0.7c4,0,4.7-0.8,5.8-3.4c0.3-0.2,0.8-0.1,1,0.2
	c-0.3,1.6-0.7,3.1-1.3,4.5c-1.4-0.1-4.1-0.1-7.8-0.1h-3.6c-1.4,0-3.3,0-4.7,0.1c-0.3-0.1-0.3-0.7-0.1-0.9l1.2-0.1
	c1.5-0.2,1.8-0.3,1.8-3.6L143.9,37.2z M179.1,50.1c0,1.1,0.2,1.9,0.8,2.2c0.1,0.1,0.1,0.3,0,0.5c-0.5,0-1,0.1-1.5,0.3
	c-2,0.5-4.1,0.8-6.1,0.8c-3.8,0-7.3-1-9.7-3.4c-1.8-1.9-2.8-4.5-2.8-7.2s1-5.4,2.9-7.4c2.2-2.4,5.7-3.7,10.1-3.7
	c1.4,0,2.8,0.2,4.2,0.5c0.7,0.1,1.3,0.2,2,0.3c0,0.9,0.3,2.5,0.4,5c-0.2,0.3-0.7,0.3-1,0.1l0,0c-0.7-3-2.9-4.5-6.1-4.5
	c-5.5,0-8.2,4-8.2,9.3c-0.1,2.6,0.7,5.1,2.3,7.2c1.5,1.7,3.8,2.7,6.1,2.7c1.5,0,2.4-0.3,2.8-0.7c0.3-0.6,0.4-1.3,0.3-2V49
	c0-2.2,0-2.4-2.1-2.8l-1.1-0.2c-0.2-0.3-0.2-0.7,0-0.9c1.2,0.1,2.7,0.1,4.9,0.1c1.4,0,2.5,0,3.8-0.1c0.3,0.2,0.3,0.5,0.2,0.8
	l-0.1,0.1l-0.6,0.1c-1.2,0.2-1.4,0.4-1.4,2.4L179.1,50.1z M185.2,37.2c0-3.3-0.3-3.4-1.8-3.6l-0.5-0.1c-0.2-0.2-0.2-0.8,0.1-0.9
	c1.2,0.1,2.7,0.1,4.1,0.1h6c2,0,3.8,0,4.3-0.1c0.1,0.5,0.3,3,0.5,4.4c-0.1,0.3-0.8,0.3-1,0.1c-0.5-1.8-1-2.6-2-2.9
	c-0.8-0.2-1.7-0.3-2.5-0.3h-2.1c-1.4,0-1.4,0.1-1.4,1.9v5.3c0,0.8,0,0.8,0.8,0.8h1.5c2.7,0,3.2,0,3.5-1.4l0.2-1.1
	c0.3-0.2,0.9-0.2,1,0c0,0.8-0.1,2-0.1,3.1c0,1.2,0.1,2.3,0.1,3.3c-0.2,0.2-0.8,0.2-1,0l-0.2-1.3c-0.2-1.3-0.8-1.4-3.5-1.4h-1.5
	c-0.7,0-0.8,0.1-0.8,0.8v4c0,1.6,0.1,2.7,0.5,3.3c0.4,0.4,0.9,0.7,3.6,0.7c4,0,4.7-0.8,5.8-3.4c0.3-0.2,0.8-0.1,1,0.2
	c-0.3,1.6-0.7,3.1-1.3,4.5c-1.4-0.1-4.1-0.1-7.8-0.1h-3.6c-1.4,0-3.3,0-4.7,0.1c-0.3-0.1-0.3-0.7-0.1-0.9l1.2-0.1
	c1.5-0.2,1.8-0.3,1.8-3.6L185.2,37.2z"/>
<path class="st1" d="M22,5V4.7V4.4c12,0,20.6,2.6,20.6,2.6l0.2,0.1v33.1c0,0.4-0.2,1.1-0.6,1.7c-7.4,10.4-19.4,13.6-19.4,13.6l0,0h0
	c-0.9,0-15-3.8-19.8-13.7c-0.3-0.7-0.4-2-0.4-2.1V7.2l0.2-0.1c0,0,7.2-2.7,19.2-2.7v0.3V5"/>
<path class="st2" d="M22.7,55.6c-0.9,0-15-3.8-19.8-13.7c-0.3-0.7-0.4-2-0.4-2.1V7.2l0.2-0.1c0,0,7.2-2.7,19.2-2.7v0.3V5
	C16,5,11.2,5.7,8,6.3C5.3,6.9,3.6,7.4,3.1,7.6v32.3c0,0,0.1,1.4,0.3,1.8C7.9,51.1,21.7,54.9,22.7,55c0.3-0.1,3.2-0.9,6.8-2.8
	c3.9-2.1,8.7-5.4,12.3-10.5c0.3-0.4,0.5-1.2,0.5-1.4V7.5C40.9,7.2,32.8,5,22,5V4.7V4.4c12,0,20.6,2.6,20.6,2.6l0.2,0.1v33.1
	c0,0.4-0.2,1.1-0.6,1.7C34.9,52.4,22.8,55.6,22.7,55.6L22.7,55.6L22.7,55.6z"/>
<path class="st0" d="M22.7,55.6c-0.9,0-15-3.8-19.8-13.7c-0.3-0.7-0.4-2-0.4-2.1V7.2l0.2-0.1c0,0,7.2-2.7,19.2-2.7v0.3V5
	C16,5,11.2,5.7,8,6.3C5.3,6.9,3.6,7.4,3.1,7.6v32.3c0,0,0.1,1.4,0.3,1.8C7.9,51.1,21.7,54.9,22.7,55c0.3-0.1,3.2-0.9,6.8-2.8
	c3.9-2.1,8.7-5.4,12.3-10.5c0.3-0.4,0.5-1.2,0.5-1.4V7.5C40.9,7.2,32.8,5,22,5V4.7V4.4c12,0,20.6,2.6,20.6,2.6l0.2,0.1v33.1
	c0,0.4-0.2,1.1-0.6,1.7C34.9,52.4,22.8,55.6,22.7,55.6L22.7,55.6L22.7,55.6z"/>
<path class="st3" d="M22,6.1C10.8,6.1,4.1,8.6,4.1,8.6v10.3l0,0c5.3,0.1,23.7,2.1,37,21.3v0c0.1-0.3,0.1-0.5,0.1-0.6v-31
	C41.2,8.6,33.2,6.1,22,6.1 M39.1,16.9L39.1,16.9c-0.4-0.3-0.8-0.5-1.9-0.6c-1.5-0.1-2.4-0.4-2.9-0.7c-0.5-0.4-1.6-0.7-1.6-0.7
	s-1.5-0.2-2.5,0c-1.2,0.3,0,0.1-2.3,0.6c-1,0.2-1.7,0.4-2.4,0.6l-0.1,0c0,0,0,0,0,0c-1.4,0.4-2.3,0.8-3.2,1.2
	c-1.3,0.6-4.7,1.5-6.3,1.6l-0.2,0l0.1-0.1c0.7-0.2,4.9-1.6,6.2-2.1c0.7-0.3,1.4-0.7,2.3-1c-1.1-0.4-2.3-0.7-4.4-1.2
	c-2.8-0.6-1.9-0.3-2.8-0.7c-1-0.4-3.2-0.1-3.2-0.1s-1.7,0.5-2.3,0.9c-0.6,0.4-1.5,0.6-3.2,1c-1,0.2-1.6,0.6-2.1,1l0,0v-6
	c0,0,5.9-2.5,15.8-2.5c9.9,0,17,2.5,17,2.5V16.9z"/>
<path class="st0" d="M11.7,35.8c-0.7,0.4-1.1,1-1.1,1.8c0,0.7,0.4,1.5,1.4,1.5c0.9,0,1.4-0.8,1.4-1.4C13.4,36.8,12.6,36.3,11.7,35.8
	 M23.2,33.7c0-0.4-0.3-1-1-1c-0.7,0-1,0.6-1,1c0,0.7,0.4,1.1,1.1,1.5C22.9,34.9,23.2,34.4,23.2,33.7 M13,33.7c0-0.4-0.3-1-1-1
	c-0.7,0-1,0.6-1,1c0,0.7,0.4,1.1,1.1,1.5C12.6,34.9,13,34.4,13,33.7 M22,35.8c-0.7,0.4-1.1,1-1.1,1.8c0,0.7,0.4,1.5,1.4,1.5
	c0.9,0,1.4-0.8,1.4-1.4C23.6,36.8,22.8,36.3,22,35.8 M4,25.7L4,25.7L4,25.7L4,25.7z M39.5,42.6c-5-6.3-17.1-18.4-35.5-17v13.6
	c0,0,0,1.3,0.3,1.8C4.7,41.8,5,42.3,5.4,43l0,0c0,0,0.1,0,0.1,0c0,0,0.1,0,0.1,0c0.9,0,1.7-0.1,2.8-0.5L9,42.2
	c2.7-1,4.7-0.7,6.6,1.1c1.9-1.8,3.9-2.2,6.6-1.2c0,0,0.5,0.2,0.5,0.2c1.1,0.4,1.9,0.5,2.8,0.5l0.1,0c0.2,0,0.4,0,0.4,0.2l0,0.1l0,0
	c-0.1,0.1-0.4,0.2-0.5,0.3c-1.3,0.2-2.4,0.2-3.4-0.3c0,0-0.1,0-0.1,0c-2.7-0.8-4.5-0.5-6.3,1.1l-0.1,0.1l-0.1-0.1
	c-1.8-1.6-3.7-2-6.3-1.1c0,0-0.1,0-0.1,0c-1,0.4-2.1,0.5-3.3,0.3l0,0c0.2,0.3,0.6,0.8,1,1.3l0,0c0.5-0.1,1-0.2,1.6-0.4l0,0L9,44.2
	c2.7-1,4.7-0.7,6.6,1.2c1.9-1.8,3.9-2.2,6.6-1.2c0,0,0.5,0.2,0.5,0.2c1.1,0.4,1.9,0.5,2.8,0.5l0.1,0c0.2,0,0.4,0,0.4,0.1l0,0.1l0,0
	c-0.1,0.1-0.4,0.2-0.5,0.3c-1.3,0.2-2.4,0.1-3.4-0.3c0,0-0.1,0-0.1,0c-2.7-0.8-4.5-0.5-6.3,1.1l-0.1,0.1l-0.1-0.1
	c-1.8-1.6-3.7-2-6.3-1.1c0,0-0.1,0-0.1,0c-0.5,0.2-1,0.3-1.6,0.4l0,0c5.7,5.8,14.5,8.3,15.1,8.3C22.6,53.8,32.7,51.1,39.5,42.6
	L39.5,42.6z M8.7,34.6c-1,0-1.1,0.2-1.1,1.3v1.8c0,1.1,0.1,1.3,1.1,1.3v0.2h-3v-0.2c0.9,0,1.1-0.2,1.1-1.3v-1.8
	c0-1.1-0.1-1.3-1.1-1.3v-0.2h3V34.6z M12,39.5c-1.3,0-2.3-0.8-2.3-1.9c0-1.2,0.8-1.7,1.7-2c-0.7-0.4-1.3-0.9-1.3-1.6
	c0-0.9,0.9-1.6,1.9-1.6c1,0,1.9,0.7,1.9,1.5c0,0.8-0.7,1.2-1.5,1.6c0.9,0.5,1.8,0.9,1.8,2.1C14.3,38.7,13.2,39.5,12,39.5 M19.2,34.6
	l-2.5,6.3c-0.1,0.4-0.3,0.6-0.6,0.5c-0.2,0-0.4-0.3-0.2-0.7l2.7-5.7h-1.9c-1,0-1.2,0.3-1.3,0.9l-0.1,0.2h-0.2l0.5-2.8h0.2
	c0,0.8,0.2,0.9,1.3,0.9h2V34.6z M22.2,39.5c-1.3,0-2.3-0.8-2.3-1.9c0-1.2,0.8-1.7,1.7-2c-0.7-0.4-1.3-0.9-1.3-1.6
	c0-0.9,0.9-1.6,1.9-1.6c1,0,1.9,0.7,1.9,1.5c0,0.8-0.7,1.2-1.5,1.6c0.9,0.5,1.8,0.9,1.8,2.1C24.5,38.7,23.5,39.5,22.2,39.5"/>
<line class="st2" x1="15.5" y1="45.3" x2="15.5" y2="45.3"/>
<rect x="2.5" y="4.4" class="st4" width="169.9" height="51.2"/>
</svg>
