<svg xmlns="http://www.w3.org/2000/svg" height="127.37" viewBox="0 0 250 127.37081" width="250"><g transform="matrix(1.25 0 0 -1.25 -411.5 335.39)"><g transform="matrix(.23156 0 0 .23156 329.9 167.12)"><path d="m273.73 1.082-24.293 97.996h-100.95l-21.99 88.703c-5.0225 20.265-0.72141 41.169 11.809 57.354 12.558 16.216 31.691 25.516 52.492 25.516h627.89c38.482 0 73.179-27.291 82.5-64.891l50.732-204.68h-678.2zm120.93 340.33c-24.025 0-34.314 12.415-34.314 28.549 0 14.746 9.9862 23.756 33.045 28.799 10.226 2.14 16.156 3.1487 16.156 9.1387 0 7.0588-8.4714 8.4414-16.098 8.4414-8.11 0-17.428-2.2033-24.631-6.6758l-11.014 16.637c8.1088 6.7412 21.363 10.521 36.855 10.521 23.361 0 37.764-9.0088 37.764-28.924 0-16.765-12.528-23.947-34.615-28.988-9.6225-2.2088-14.586-3.4656-14.586-9.5781 0-5.3575 6.1122-7.4395 12.648-7.4395 6.4125 0 14.099 0.88422 23.42 5.1055l11.014-16.637c-10.288-6.43-21.906-8.9492-35.645-8.9492zm447.52 0c-24.024 0-34.316 12.415-34.316 28.549 0 14.746 9.9881 23.756 33.047 28.799 10.228 2.14 16.156 3.1487 16.156 9.1387 0 7.0588-8.4744 8.4414-16.096 8.4414-8.11 0-17.43-2.2033-24.631-6.6758l-11.018 16.637c8.1112 6.7412 21.364 10.521 36.857 10.521 23.357 0 37.762-9.0088 37.762-28.924 0-16.765-12.529-23.947-34.615-28.988-9.6225-2.2088-14.584-3.4656-14.584-9.5781-0.00001-5.3575 6.1109-7.4395 12.648-7.4395 6.4138 0 14.101 0.88422 23.42 5.1055l11.014-16.637c-10.286-6.43-21.906-8.9492-35.645-8.9492zm90.449 0c-32.014 0-47.32 21.87-47.32 47.705 0 25.84 15.307 47.705 47.32 47.705 32.012 0 47.324-21.865 47.324-47.705 0-25.835-15.312-47.705-47.324-47.705zm-888.5 2.5195v59.488c-0.000001 8.0662-2.1792 12.92-11.137 12.92-6.4138 0-9.8012-4.221-11.92-8.8223l-21.073 5.92c3.5688 12.791 12.406 23.377 34.191 23.377 18.338 0 32.801-9.7673 32.801-33.402v-59.488h-22.875zm61.148 0-35.525 90.371h24.631l5.9297-15.881h34.012l5.9316 15.881h24.629l-35.523-90.371h-24.084zm61.854 0v90.371h22.873v-51.928l20.275 51.928h16.943l20.275-51.928v51.928h22.873v-90.371h-30.258l-21.363 54.891-21.361-54.891h-30.258zm117.12 0v90.371h67.234v-20.482h-44.359v-15.375h40.729v-19.412h-40.729v-14.619h43.393v-20.482h-66.268zm193.75 0v90.371h22.875v-51.928l20.273 51.928h16.945l20.273-51.928v51.928h22.875v-90.371h-30.258l-21.363 54.891-21.361-54.891h-30.26zm142.12 0-35.525 90.371h24.631l5.9297-15.881h34.014l5.9297 15.881h24.633l-35.527-90.371h-24.084zm63.096 0v90.371h37.578c28.02 0 43.877-17.833 43.877-45.186 0-27.284-15.252-45.186-43.877-45.186h-37.578zm90.816 0v90.371h22.875v-90.371h-22.875zm215.03 0v90.371h22.875v-54.576l31.594 54.576h27.471v-90.371h-22.875v54.576l-31.588-54.576h-27.477zm-56.436 17.961c16.28 0.00001 23.846 12.92 23.846 27.225 0 14.304-7.5657 27.223-23.846 27.223-16.276 0-23.844-12.919-23.844-27.223 0-14.305 7.5675-27.225 23.844-27.225zm-226.54 2.5215h14.703c14.524 0 20.395 11.091 20.395 24.703 0 13.611-5.8708 24.703-20.395 24.703h-14.703v-49.406zm-588.78 8.5098 9.7441 26.152h-19.547l9.8027-26.152zm514.85 0 9.7422 26.152h-19.551l9.8086-26.152zm50.189 108.3c-14.911 0-21.273 7.4215-21.273 16.115 0 8.7388 5.9254 15.219 20.994 18.459 9.1462 1.9688 12.723 4.9199 12.723 9.3887 0 5.8662-3.6568 8.0391-11.092 8.0391-7.6738 0-12.365-2.2129-12.365-2.2129v-6.0723h-10.736v11.238s7.6328 6.3184 23.102 6.3184c12.604 0 21.908-5.0056 21.908-17.311 0-10.21-7.1556-15.911-21.592-19.029-8.1912-1.8038-12.127-3.9771-12.127-8.8184 0-4.7975 4.0177-6.8496 10.459-6.8496 5.37 0 9.7031 1.0293 9.7031 1.0293v6.5625h10.736v-13.17s-8.707-3.6875-20.439-3.6875zm-560.42 1.2324v9.2656h6.3613v23.662c0 16.816 7.6347 27.113 24.93 27.113 17.338 0 24.971-10.297 24.971-27.113v-23.662h6.3613v-9.2656h-23.459v9.2656h6.3613v23.662c0 10.951-3.5369 17.842-14.234 17.842-10.695 0-14.193-6.8906-14.193-17.842v-23.662h6.3613v-9.2656h-23.459zm101.32 0v9.2656h6.3633v40.275h-6.3633v9.2656h23.461v-9.2656h-6.3613v-34.166l25.566 43.432h13.678v-49.541h6.3613v-9.2656h-23.459v9.2656h6.3613v34.162l-25.564-43.428h-20.043zm101.41 0v9.2656h6.3613v40.275h-6.3613v9.2656h23.459v-9.2656h-6.3613v-40.275h6.3613v-9.2656h-23.459zm59.346 0v9.2656h6.3242l19.959 49.541h9.1074l19.959-49.541h6.3223v-9.2656h-23.459v9.2656h5.9648l-13.361 34.326-13.32-34.326h5.9629v-9.2656h-23.459zm97.172 0v9.2656h6.3613v40.275h-6.3613v9.2656h50.377v-15.623h-10.734v6.3574h-22.543v-16.076h22.146v-9.2695h-22.146v-14.93h22.146v6.3594h10.734v-15.625h-49.98zm88.26 0v9.2656h6.3613v40.275h-6.3613v9.2656h23.459v-9.2656h-6.3613v-12.467h10.178l12.127 21.732h13.281v-9.2656h-6.4024l-7.5137-13.291c7.1575-2.1288 13.119-7.3393 13.119-17.717 0-11.36-6.6781-18.533-21.391-18.533h-30.496zm174.93 0v9.2656h6.3613v40.275h-6.3613v9.2656h23.459v-9.2656h-6.3613v-40.275h6.3613v-9.2656h-23.459zm62.955 0v15.625h10.74v-6.3594h9.8984v40.275h-6.3633v9.2656h23.459v-9.2656h-6.3613v-40.275h9.9023v6.3594h10.736v-15.625h-52.012zm88.322 0v9.2656h5.9648l17.854 27.068v13.207h-6.3613v9.2656h23.457v-9.2656h-6.3613v-13.168l17.855-27.107h5.959v-9.2656h-23.457v9.2656h5.9648l-11.691 18.25-11.727-18.25h6.002v-9.2656h-23.459zm-309.11 9.2656h13.398c7.4738 0 10.574 2.7888 10.574 9.2676 0 6.4812-3.1005 9.2695-10.574 9.2695h-13.398v-18.537z" transform="matrix(.8 0 0 -.8 0 434)" fill="#450084"/><path d="m282.97 12.895-24.293 97.996h-100.96l-19.762 79.734c-4.1538 16.738-0.62141 33.971 9.6836 47.279 10.305 13.302 26.033 20.936 43.15 20.936h627.89c33.13 0 63.002-23.518 71.037-55.922l47.092-190.02h-653.85zm20.418 26.361h75.662l-39.102 157.72c-5.0975 20.572-24.059 35.504-45.09 35.504h-103.15c-9.125 0-17.508-4.0696-23.002-11.162-5.4912-7.0912-7.3707-16.274-5.1582-25.197l14.59-58.869h69.672l-12.25 49.41h31.281l36.543-147.41zm524.28 0h75.662l-39.104 157.72c-5.0975 20.572-24.059 35.504-45.094 35.504h-109.13c-9.12 0-17.507-4.0696-22.996-11.162-5.4912-7.0912-7.3707-16.274-5.1582-25.197l38.854-156.76h75.662l-36.52 147.3h31.283l36.543-147.41zm-417.2 0.10547h98.141l9.5762 96.488 53.701-96.488h117.43l-47.9 193.22h-75.662l27.205-109.75-63.457 109.75h-55.201l-8.9941-109.2-27.07 109.2h-75.662l47.895-193.22z" transform="matrix(.8 0 0 -.8 0 434)" fill="#fff"/></g></g></svg>
