<?xml version="1.0" encoding="UTF-8" standalone="no"?>
<svg
   xmlns:dc="http://purl.org/dc/elements/1.1/"
   xmlns:cc="http://creativecommons.org/ns#"
   xmlns:rdf="http://www.w3.org/1999/02/22-rdf-syntax-ns#"
   xmlns:svg="http://www.w3.org/2000/svg"
   xmlns="http://www.w3.org/2000/svg"
   viewBox="0 0 932.58667 627.52002"
   height="627.52002"
   width="932.58667"
   xml:space="preserve"
   id="svg2"
   version="1.1"><metadata
     id="metadata8"><rdf:RDF><cc:Work
         rdf:about=""><dc:format>image/svg+xml</dc:format><dc:type
           rdf:resource="http://purl.org/dc/dcmitype/StillImage" /></cc:Work></rdf:RDF></metadata><defs
     id="defs6" /><g
     transform="matrix(1.3333333,0,0,-1.3333333,0,627.52)"
     id="g10"><g
       transform="scale(0.1)"
       id="g12"><path
         id="path14"
         style="fill:#231f20;fill-opacity:1;fill-rule:nonzero;stroke:none"
         d="M 3497.22,0 V 0" /><path
         id="path16"
         style="fill:#2e3592;fill-opacity:1;fill-rule:nonzero;stroke:none"
         d="m 3773.44,3118.91 c 0,-17.14 0,-34.25 0,-52.93 -189.15,0 -378.45,0 -569.43,0 0,17.74 0,34.51 0,52.93 189.58,0 378.93,0 569.43,0 z m 509.28,331.38 c -18.88,77.99 -70.2,132.51 -141.16,167.19 -65.11,31.83 -133.64,47.59 -206.22,28.05 -60.01,-16.17 -108.59,-50.94 -150.42,-95.59 -69.33,-73.97 -109.3,-163.19 -130.57,-261.01 -9.16,-42.19 -13.37,-85.43 -20.23,-128.13 -0.64,-4.01 -1.59,-10.83 -1.59,-10.83 0,0 -2.85,-0.03 -7.46,-0.09 -20.54,-0.69 -41.22,-0.41 -64.45,-0.41 3.96,53.06 7.29,103.31 11.52,153.49 6.98,82.7 22.32,163.9 46.81,243.22 56.48,183.04 162.09,331.12 344.26,406.41 1.22,0.51 2.09,0.91 2.9,1.36 -230.82,205.85 -390.24,454.81 -469.89,752.5 -81.46,-297.61 -241.26,-546.22 -472.86,-750.74 7.07,-3.41 13.75,-6.9 20.62,-9.9 60.71,-26.51 115.7,-61.7 163.56,-107.7 76.43,-73.45 125.62,-163.51 159.35,-262.79 27.22,-80.15 44.64,-162.51 52.22,-246.78 4.95,-55.04 8.15,-110.21 12.29,-165.33 0.59,-7.76 1.08,-14.01 1.08,-14.01 0,0 -4.25,0.01 -10.67,0.01 -0.12,0.02 -0.19,-0.01 -0.3,-0.01 -1.47,0.03 -2.95,0.01 -4.41,0.03 -16.11,0.02 -40.78,0.06 -53.7,0.06 -1.04,6.22 -1.92,11.44 -2.77,16.67 -7.82,47.95 -12.52,96.66 -24.09,143.69 -24.64,100.11 -69.31,190.4 -146.51,261.17 -68.94,63.2 -147.95,97.27 -243.94,77.52 -69.33,-14.27 -132.34,-41.5 -178.19,-96.67 -80.97,-97.4 -83.29,-206.66 -37.51,-318.95 32.49,-79.73 95.71,-132.58 168.24,-175.11 18.75,-10.99 38.19,-20.8 56.3,-30.6 -6.78,36.94 -14.49,71.69 -19.32,106.84 -7.34,53.27 0.21,105.05 24.17,153.34 25.84,52.08 71.44,73.15 128.4,61.02 64.46,-13.72 104.26,-56.8 132.09,-113.2 13.09,-26.52 22.32,-54.44 25.85,-86.48 -24.86,0 -47.9,0 -70.96,0 0,-38.36 0,-74.59 0,-112.84 22.78,0 44.81,0 68.49,0 -6.78,-41.06 -18.24,-78.22 -42,-109.72 -11.72,-15.54 -27.14,-30.14 -44.01,-39.61 -39.17,-21.96 -88.15,1.01 -96.09,44.29 -2.98,16.15 -2.35,33.92 0.96,50.09 5.89,28.87 15.05,57.06 23.43,87.66 -14.36,-11.03 -28.36,-20.34 -40.57,-31.58 -13.94,-12.82 -27.22,-26.62 -39.16,-41.32 -56.67,-69.79 -59.41,-168.82 -5.39,-234 32.26,-38.91 74.53,-61.65 125.8,-53.38 89.4,14.43 149.08,70.48 190.86,147.56 29.9,55.16 41.3,115.61 46.54,178.53 21.65,0 42.91,0 68.33,0 -8.99,-54.44 -15.49,-107.07 -26.7,-158.69 -20.13,-92.83 -54.03,-180.5 -112.62,-256.45 -19.89,-25.79 -44.54,-47.91 -65.93,-70.56 19.8,-13.5 42.96,-26.75 63.05,-43.66 20.64,-17.38 39.87,-37.04 56.91,-57.96 69.36,-85.15 111.16,-183.7 137.31,-289.53 4.11,-16.6 8.05,-33.26 12.07,-49.89 17.41,71.17 37.88,139.96 69.39,205.07 35.05,72.43 77.97,139.29 141.64,190.24 19.5,15.62 41.45,33.71 59.82,46 -146.66,130.91 -185.91,300.17 -204.05,487.06 21.62,0 38.94,-0.46 56.23,0.16 4.62,0.17 13.06,-0.03 13.06,-0.03 0,0 0.96,-8.32 1.69,-13.98 3.65,-28.36 6.65,-57.06 13.65,-84.68 21.71,-85.75 65.81,-156.47 144.13,-201.96 31.26,-18.16 65.11,-33.29 101.73,-28.6 103.09,13.15 152.97,104.32 136.66,201.9 -10.13,60.55 -48.74,103.87 -94.96,141.05 -7.58,6.1 -16.02,11.12 -26.81,18.53 6.57,-19.89 12.53,-35.51 16.82,-51.57 4.46,-16.64 8.57,-33.56 10.59,-50.61 4.55,-38.35 -6.6,-73.51 -44.02,-83.61 -29.47,-7.96 -55.76,-1.65 -77.91,19.87 -37.08,36.02 -51.89,82.4 -62.37,133.69 17.93,0 34.49,0 50.75,0 0,38.94 0,75.62 0,113.88 -17.82,0 -34.41,0 -51.56,0 0.32,5.38 0.21,9.15 0.8,12.82 0.85,5.3 1.97,10.61 3.4,15.81 18.11,65.31 48.3,122.94 111.37,154.94 73.03,37.06 144.07,20.36 177.01,-62.26 22.21,-55.65 22.79,-113.14 12.9,-171.08 -4.06,-23.76 -11.13,-47 -16.99,-71.09 2.22,0.22 3.8,0.06 5.12,0.55 3.55,1.34 7.1,2.77 10.47,4.49 45.03,23.09 88.26,49.06 125.71,83.39 99.16,90.87 133.48,202.7 102.01,332.84" /><path
         id="path18"
         style="fill:#2e3592;fill-opacity:1;fill-rule:nonzero;stroke:none"
         d="m 156.816,1238.9 c 0,-97.6 12.676,-114.17 93.75,-114.17 v -28.34 H 20.1094 v 28.34 c 81.0466,0 92.7816,16.57 92.7816,114.17 v 300.78 c 0,97.64 -11.735,114.23 -92.7816,114.23 v 28.3 H 224.18 l 177.734,-423.71 177.711,423.71 h 197.203 v -28.3 c -82.004,0 -93.738,-16.59 -93.738,-114.23 V 1238.9 c 0,-97.6 11.734,-114.17 93.738,-114.17 v -28.34 H 474.16 v 28.34 c 81.031,0 93.75,16.57 93.75,114.17 v 306.67 L 373.609,1079.76 H 352.082 L 156.816,1545.57 V 1238.9" /><path
         id="path20"
         style="fill:#2e3592;fill-opacity:1;fill-rule:nonzero;stroke:none"
         d="m 1165.43,1519.13 -79.08,-183.48 h 157.23 z m -138.6,-320.26 c -22.55,-52.67 -7.83,-74.14 73.19,-74.14 v -28.34 H 863.75 v 28.34 c 67.344,0 89.82,16.57 120.098,85.88 l 211.872,488.19 h 20.46 l 212.91,-488.19 c 27.31,-62.49 40.96,-85.88 119.11,-85.88 v -28.34 h -318.31 v 28.34 c 85.89,0 95.67,22.41 73.24,74.14 l -41.05,92.81 h -195.26 l -39.99,-92.81" /><path
         id="path22"
         style="fill:#2e3592;fill-opacity:1;fill-rule:nonzero;stroke:none"
         d="m 2028.6,1517.2 c 0,66.4 -40.03,121.13 -124.95,121.13 H 1849.9 V 1397.1 h 53.75 c 84.92,0 124.95,53.74 124.95,120.1 z m 52.69,-267.51 c 85.94,-94.73 123.03,-117.18 182.61,-124.96 v -28.34 h -211.85 l -173.85,256.83 h -28.3 V 1238.9 c 0,-97.6 12.7,-114.17 93.71,-114.17 v -28.34 h -308.49 v 28.34 c 80.99,0 92.73,16.57 92.73,114.17 v 300.78 c 0,97.64 -11.74,114.23 -92.73,114.23 v 28.3 h 327.08 c 121.07,0 197.25,-74.2 197.25,-165.01 0,-84.92 -66.43,-154.27 -172.88,-163.98 l 94.72,-103.53" /><path
         id="path24"
         style="fill:#2e3592;fill-opacity:1;fill-rule:nonzero;stroke:none"
         d="M 2807.72,1567.98 2668.15,1357.09 V 1238.9 c 0,-97.6 11.73,-114.17 92.72,-114.17 v -28.34 h -304.6 v 28.34 c 81.05,0 93.71,16.57 93.71,114.17 v 115.31 l -141.55,213.77 c -45.9,69.34 -72.26,85.93 -141.58,85.93 v 28.3 h 330.97 v -28.3 c -68.36,0 -86.86,-22.45 -51.73,-74.22 l 109.35,-164.99 109.38,164.99 c 35.18,52.71 24.37,74.22 -52.75,74.22 v 28.3 h 236.25 v -28.3 c -81,0 -99.52,-22.45 -140.6,-85.93" /><path
         id="path26"
         style="fill:#2e3592;fill-opacity:1;fill-rule:nonzero;stroke:none"
         d="m 3177.77,1238.9 c 0,-97.6 12.72,-114.17 93.78,-114.17 v -28.34 h -230.43 v 28.34 c 81.04,0 92.75,16.57 92.75,114.17 v 300.78 c 0,97.64 -11.71,114.23 -92.75,114.23 v 28.3 h 204.08 l 177.65,-423.71 177.71,423.71 h 197.25 v -28.3 c -82,0 -93.71,-16.59 -93.71,-114.23 V 1238.9 c 0,-97.6 11.71,-114.17 93.71,-114.17 v -28.34 h -302.67 v 28.34 c 81.06,0 93.71,16.57 93.71,114.17 v 306.67 l -194.3,-465.81 h -21.47 l -195.31,465.81 V 1238.9" /><path
         id="path28"
         style="fill:#2e3592;fill-opacity:1;fill-rule:nonzero;stroke:none"
         d="m 4289.96,1651.97 c -138.7,0 -194.34,-144.55 -194.34,-262.65 0,-118.1 55.64,-262.65 194.34,-262.65 137.59,0 194.3,144.55 194.3,262.65 0,118.1 -56.71,262.65 -194.3,262.65 z m 0,-572.21 c -179.67,0 -326.16,139.66 -326.16,309.56 0,169.87 146.49,309.48 326.16,309.48 178.64,0 325.14,-139.61 325.14,-309.48 0,-169.9 -146.5,-309.56 -325.14,-309.56" /><path
         id="path30"
         style="fill:#2e3592;fill-opacity:1;fill-rule:nonzero;stroke:none"
         d="m 5182.38,1653.91 v 28.3 h 239.2 v -28.3 c -81,0 -92.74,-16.59 -92.74,-114.23 v -225.57 c 0,-153.28 -106.42,-234.35 -235.27,-234.35 -129.94,0 -234.39,81.07 -234.39,234.35 v 225.57 c 0,97.64 -12.71,114.23 -93.78,114.23 v 28.3 h 309.58 v -28.3 c -82,0 -93.77,-16.59 -93.77,-114.23 v -214.84 c 0,-125.97 67.36,-184.53 151.38,-184.53 83.94,0 143.48,58.56 143.48,184.53 v 214.84 c 0,97.64 -11.65,114.23 -93.69,114.23" /><path
         id="path32"
         style="fill:#2e3592;fill-opacity:1;fill-rule:nonzero;stroke:none"
         d="m 6097.22,1539.68 c 0,97.64 -12.66,114.23 -93.74,114.23 v 28.3 h 231.46 v -28.3 c -82.08,0 -93.77,-16.59 -93.77,-114.23 v -459.92 h -24.4 l -404.24,482.35 V 1238.9 c 0,-97.6 12.7,-114.17 93.73,-114.17 v -28.34 h -230.44 v 28.34 c 81.07,0 92.77,16.57 92.77,114.17 v 300.78 c 0,97.64 -11.7,114.23 -92.77,114.23 v 28.3 h 195.29 l 326.11,-388.62 v 246.09" /><path
         id="path34"
         style="fill:#2e3592;fill-opacity:1;fill-rule:nonzero;stroke:none"
         d="m 6975.97,1544.53 h -28.34 l -4.83,19.56 c -12.66,51.72 -23.43,74.24 -113.25,74.24 h -97.69 V 1238.9 c 0,-97.6 12.75,-114.17 93.74,-114.17 v -28.34 h -308.53 v 28.34 c 81.03,0 92.72,16.57 92.72,114.17 v 399.43 h -97.65 c -88.81,0 -99.49,-22.52 -112.23,-74.24 l -4.88,-19.56 h -29.31 l 8.83,137.68 h 593.64 l 7.78,-137.68" /><path
         id="path36"
         style="fill:#231f20;fill-opacity:1;fill-rule:nonzero;stroke:none"
         d="m 457.043,236.719 c 0,-130.571 -95.684,-162.3401 -160.387,-162.3401 -64.672,0 -160.406,31.7691 -160.406,162.3401 V 524.48 h 43.801 V 236.719 c 0,-72.289 39.945,-124.239 116.605,-124.239 76.727,0 116.657,51.95 116.657,124.239 V 524.48 h 43.73 V 236.719" /><path
         id="path38"
         style="fill:#231f20;fill-opacity:1;fill-rule:nonzero;stroke:none"
         d="m 956.008,524.48 h 55.152 L 1236.2,135.262 h 1.26 V 524.48 h 43.76 V 82.0391 h -58.96 L 1001.05,463.648 h -1.308 V 82.0391 H 956.008 V 524.48" /><path
         id="path40"
         style="fill:#231f20;fill-opacity:1;fill-rule:nonzero;stroke:none"
         d="m 1778.27,524.48 h 43.69 V 82.0391 h -43.69 V 524.48" /><path
         id="path42"
         style="fill:#231f20;fill-opacity:1;fill-rule:nonzero;stroke:none"
         d="m 2485.1,82.0391 h -46.93 L 2273.41,524.48 h 46.21 l 142.66,-398.742 147.73,398.742 h 43.1 L 2485.1,82.0391" /><path
         id="path44"
         style="fill:#231f20;fill-opacity:1;fill-rule:nonzero;stroke:none"
         d="m 3110.24,524.48 h 216.82 v -37.968 h -173.11 v -157.91 h 164.17 V 290.59 H 3153.95 V 120.07 h 180.7 V 82.0391 H 3110.24 V 524.48" /><path
         id="path46"
         style="fill:#231f20;fill-opacity:1;fill-rule:nonzero;stroke:none"
         d="m 3871.61,328.602 h 46.32 c 51.34,0 110.24,19.687 110.24,81.187 0,72.262 -51.31,76.723 -111.5,76.723 h -45.06 z m -43.69,195.878 h 114.11 c 78.54,0 129.89,-33.57 129.89,-114.691 0,-57.059 -43.75,-95.098 -98.21,-102.078 v -1.262 c 35.53,-4.469 43.08,-23.449 57.04,-53.281 L 4106.2,82.0391 H 4058 l -64,149.5699 c -25.34,57.09 -44.39,58.981 -86.2,58.981 h -36.19 V 82.0391 h -43.69 V 524.48" /><path
         id="path48"
         style="fill:#231f20;fill-opacity:1;fill-rule:nonzero;stroke:none"
         d="m 4566.49,138.449 c 25.95,-16.469 56.4,-25.969 97.65,-25.969 54.45,0 99.49,27.879 99.49,90.579 0,86.902 -202.94,97.711 -202.94,213.711 0,71.019 62.2,115.371 140.16,115.371 21.57,0 56.47,-3.2 86.83,-14.59 l -6.93,-39.949 c -19.68,10.777 -50.76,16.5 -80.49,16.5 -45.67,0 -95.75,-19.012 -95.75,-76.09 0,-88.731 202.9,-89.41 202.9,-218.692 0,-89.41 -76.75,-124.9411 -145.21,-124.9411 -43.14,0 -76.71,8.8906 -100.21,19.0508 l 4.5,45.0193" /><path
         id="path50"
         style="fill:#231f20;fill-opacity:1;fill-rule:nonzero;stroke:none"
         d="m 5288.52,524.48 h 43.82 V 82.0391 h -43.82 V 524.48" /><path
         id="path52"
         style="fill:#231f20;fill-opacity:1;fill-rule:nonzero;stroke:none"
         d="m 5916.86,486.512 h -130.65 v 37.968 h 304.96 V 486.512 H 5960.51 V 82.0391 h -43.65 V 486.512" /><path
         id="path54"
         style="fill:#231f20;fill-opacity:1;fill-rule:nonzero;stroke:none"
         d="M 6668.02,269.668 6503.9,524.48 h 50.68 l 135.03,-216.16 138.84,216.16 h 47.61 L 6711.8,269.668 V 82.0391 h -43.78 V 269.668" /><path
         id="path56"
         style="fill:#231f20;fill-opacity:1;fill-rule:nonzero;stroke:none"
         d="M 6976.35,768.711 H 18.0977 C 8.10547,768.711 0,776.801 0,786.809 c 0,10.019 8.10547,18.089 18.0977,18.089 H 6976.35 c 9.99,0 18.1,-8.07 18.1,-18.089 0,-10.008 -8.11,-18.098 -18.1,-18.098" /></g></g></svg>