<?xml version="1.0" encoding="UTF-8" standalone="no"?>
<svg
   xmlns:dc="http://purl.org/dc/elements/1.1/"
   xmlns:cc="http://creativecommons.org/ns#"
   xmlns:rdf="http://www.w3.org/1999/02/22-rdf-syntax-ns#"
   xmlns:svg="http://www.w3.org/2000/svg"
   xmlns="http://www.w3.org/2000/svg"
   viewBox="0 0 535.94666 208.38667"
   height="208.38667"
   width="535.94666"
   xml:space="preserve"
   id="svg2"
   version="1.1"><metadata
     id="metadata8"><rdf:RDF><cc:Work
         rdf:about=""><dc:format>image/svg+xml</dc:format><dc:type
           rdf:resource="http://purl.org/dc/dcmitype/StillImage" /></cc:Work></rdf:RDF></metadata><defs
     id="defs6" /><g
     transform="matrix(1.3333333,0,0,-1.3333333,0,208.38667)"
     id="g10"><g
       transform="scale(0.1)"
       id="g12"><path
         id="path14"
         style="fill:#2151a8;fill-opacity:1;fill-rule:nonzero;stroke:none"
         d="m 298.563,1544.34 c 33.429,0 87.164,-2.49 123.082,-2.49 48.296,0 135.257,4.95 164.972,4.95 28.485,0 36.488,-6.19 33.836,-14.85 -3.418,-11.15 -20.937,-19.81 -34.473,-23.53 -71.796,-16.1 -87.417,-34.67 -93.21,-49.53 -27.653,-61.91 -66.016,-187 -122.258,-370.28 -26.215,-85.45 -56.117,-186.977 -64.071,-229.098 -6.675,-29.715 25.184,-47.051 29.75,-48.289 22.383,-3.735 66.207,-6.196 100.883,-6.196 27.239,0 67.246,1.243 91.063,6.196 11.902,2.457 26.277,4.937 43.711,17.332 21.035,16.093 59.492,44.57 107.648,96.601 16.086,16.106 32.359,24.766 41.035,24.766 8.668,0 5.723,-13.633 -5.301,-33.457 -26.917,-43.34 -66.398,-111.438 -84.464,-146.113 -4.75,-7.422 -29.985,-21.067 -34.942,-21.067 -18.574,0 -126.136,8.676 -377.527,8.676 -59.442,0 -147.1603,-7.426 -185.5587,-7.426 -22.2891,0 -35.6133,4.961 -32.210956,16.098 2.671876,8.672 17.230456,19.82 38.183556,23.523 71.9021,12.395 89.8831,34.68 112.8051,89.168 11.976,30.957 55.586,160.996 110.293,339.316 36.839,120.13 51.664,168.43 62.953,209.27 11.679,42.13 11.586,61.94 -41.227,75.55 -21.609,6.2 -30.105,14.88 -27.437,23.53 3.797,12.39 20.164,17.35 42.465,17.35" /><path
         id="path16"
         style="fill:#2151a8;fill-opacity:1;fill-rule:nonzero;stroke:none"
         d="m 1345.47,1541.85 c 143.67,0 193.09,3.73 204.62,4.95 9.04,1.25 13.82,-7.42 11.54,-14.85 -13.49,-35.91 -25.55,-95.34 -37.23,-137.46 -3.7,-16.11 -16.83,-34.68 -29.2,-34.68 -9.91,0 -16.02,12.38 -15.94,40.88 -0.05,48.29 -13.8,84.21 -55.25,90.39 -37.26,3.72 -144.99,3.72 -171.37,2.48 -7.42,0 -22,-11.15 -22.75,-13.62 -17.6,-37.15 -63.66,-183.28 -88.74,-265.02 -6.08,-19.81 -8.33,-43.34 1.57,-43.34 37.15,0 116.02,-1.23 144.41,2.46 40.29,6.2 56.57,14.89 83.1,56.98 11.52,17.36 23.51,32.19 35.89,32.19 9.91,0 9.16,-18.57 5.74,-29.73 -4.94,-16.07 -22.44,-56.95 -29.27,-79.24 -13.29,-43.34 -20.31,-74.3 -26.39,-94.1 -9.12,-29.73 -23.68,-40.86 -33.58,-40.86 -4.96,0 -12.21,8.65 -12.43,32.17 1.3,44.59 -15.1,55.74 -32.53,59.45 -14.96,3.71 -50.98,7.44 -78.22,7.44 -21.05,0 -58.58,-1.24 -77.92,-3.73 -5.33,-1.23 -13.32,-11.13 -15.31,-13.61 -25.08,-81.72 -57.74,-204.359 -64.2,-225.395 -13.1,-50.769 -7.76,-65.625 51.6,-78.027 18.68,-3.699 32.12,-12.363 28.33,-24.734 -3.06,-9.914 -24.28,-18.586 -46.58,-18.586 -32.19,0 -76.876,3.703 -123.922,3.703 -63.176,0 -138.516,-7.426 -179.387,-7.426 -24.766,0 -33.633,7.426 -31.352,14.856 3.797,12.375 20.082,21.062 43.895,26.004 59.035,14.875 76.652,35.918 88.254,65.625 15.488,38.41 44.465,112.707 118.937,355.44 35.325,115.17 57.375,186.98 64.765,219.17 10.06,40.87 0.91,59.45 -43.98,70.6 -23.726,7.43 -35.445,13.63 -31.652,26 3.43,11.15 25.142,17.35 42.482,17.35 54.49,0 109.08,-3.73 158.62,-3.73 h 163.45" /><path
         id="path18"
         style="fill:#2151a8;fill-opacity:1;fill-rule:nonzero;stroke:none"
         d="m 2315.5,1543.09 c 27.44,-7.42 56.11,-14.86 83.46,-18.57 8.68,0 14.03,-14.86 8.32,-33.44 -9.4,-34.66 -20.21,-78.03 -28.76,-113.92 -6.74,-26 -21.87,-47.07 -35.48,-47.07 -6.19,0 -12.8,14.87 -13.29,33.43 -0.6,38.39 -8.91,71.85 -25.03,87.93 -39.56,44.59 -94.37,71.83 -161.24,71.83 -196.9,0 -337.66,-156.02 -395.41,-344.26 -25.45,-82.98 -32.62,-154.8 -22.09,-209.293 26.31,-136.231 124.19,-184.512 220.8,-184.512 16.09,0 77.52,2.461 128.85,28.465 53.79,26.027 98.25,61.925 142.31,112.699 23.23,27.246 35.29,38.394 45.19,38.394 13.64,0 3.77,-32.207 -4.13,-45.82 -15.69,-30.957 -52.21,-85.457 -70.2,-107.73 -7.13,-11.157 -35.51,-30.981 -56.73,-39.621 -19.25,-6.211 -113.82,-35.926 -227.75,-35.926 -183.27,0 -288.23,81.726 -321.16,139.929 -30.31,54.5 -60.69,141.175 -18.53,278.635 45.98,149.85 162.48,255.12 227.41,297.21 131.84,86.69 267,111.46 368.55,111.46 56.96,0 113.76,-8.66 154.91,-19.82" /><path
         id="path20"
         style="fill:#2151a8;fill-opacity:1;fill-rule:nonzero;stroke:none"
         d="m 3202.2,1543.09 c 27.43,-7.42 56.1,-14.86 83.44,-18.57 8.68,0 14.02,-14.86 8.32,-33.44 -9.38,-34.66 -20.21,-78.03 -28.75,-113.92 -6.72,-26 -21.87,-47.07 -35.48,-47.07 -6.21,0 -12.79,14.87 -13.28,33.43 -0.61,38.39 -8.94,71.85 -25.04,87.93 -39.57,44.59 -94.37,71.83 -161.23,71.83 -196.94,0 -337.65,-156.02 -395.4,-344.26 -25.47,-82.98 -32.63,-154.8 -22.1,-209.293 26.31,-136.231 124.19,-184.512 220.77,-184.512 16.11,0 77.55,2.461 128.85,28.465 53.8,26.027 98.26,61.925 142.33,112.699 23.2,27.246 35.31,38.394 45.21,38.394 13.62,0 3.75,-32.207 -4.13,-45.82 -15.71,-30.957 -52.23,-85.457 -70.23,-107.73 -7.13,-11.157 -35.49,-30.981 -56.73,-39.621 -19.24,-6.211 -113.81,-35.926 -227.72,-35.926 -183.31,0 -288.26,81.726 -321.18,139.929 -30.34,54.5 -60.7,141.175 -18.53,278.635 45.97,149.85 162.46,255.12 227.39,297.21 131.87,86.69 267,111.46 368.58,111.46 56.93,0 113.74,-8.66 154.91,-19.82" /><path
         id="path22"
         style="fill:#2151a8;fill-opacity:1;fill-rule:nonzero;stroke:none"
         d="m 3229.25,638.602 c 155.99,-41.043 253.44,-99.133 253.44,-163.582 0,-124.399 -362.55,-225.27 -809.88,-225.27 -191.37,0 -367.07,18.531 -505.62,49.352 145.1,-38.192 340.89,-61.68 556.49,-61.68 447.33,0 809.91,100.848 809.91,225.269 0,71.231 -118.9,134.645 -304.34,175.911" /><path
         id="path24"
         style="fill:#2151a8;fill-opacity:1;fill-rule:nonzero;stroke:none"
         d="M 3766.81,569.246 C 3858.14,524.68 3911.79,470.68 3913.8,410.762 3919.87,231.531 3464.6,67.6289 2896.84,44.6719 2583.51,31.9805 2301.58,64.9883 2110.65,127.191 2292.47,38.5117 2624.84,-12.5781 3002.66,2.67969 3570.42,25.6211 4025.66,189.52 4019.59,368.77 c -2.71,80.3 -97.8,150 -252.78,200.476" /><path
         id="path26"
         style="fill:#2151a8;fill-opacity:1;fill-rule:nonzero;stroke:none"
         d="m 3400.58,665.781 c 169.21,-54.59 273.78,-129.812 273.78,-212.871 0,-166.769 -421.27,-301.93 -941.04,-301.93 -226.5,0 -434.26,25.719 -596.7,68.469 170.43,-55.019 406.45,-89.058 667.3,-89.058 519.72,0 941.03,135.211 941.03,301.929 0,94.078 -134.14,178.11 -344.37,233.461" /><path
         id="path28"
         style="fill:#2151a8;fill-opacity:1;fill-rule:nonzero;stroke:none"
         d="m 75.832,611.445 c 6.4844,0 10.6172,-0.449 17.5821,-0.449 9.3629,0 25.9809,0.684 31.7419,0.684 4.324,0 5.633,-0.899 4.985,-2.469 -0.649,-1.566 -3.133,-2.91 -7.11,-3.801 -15.133,-2.91 -17.843,-5.371 -19.718,-8.73 -5.6216,-10.059 -15.0239,-32.657 -28.7817,-65.77 -7.2618,-17.461 -15.4805,-38.941 -17.5821,-46.32 -0.8281,-3.141 2.7969,-8.281 4.6289,-8.508 5.8672,-0.891 14.6602,-1.121 22.5899,-1.121 6.7304,0 13.5429,0.23 17.336,0.68 2.012,0.23 4.891,0.23 11.371,4.238 4.664,3.152 9.906,6.5 19.93,15 4.304,4.031 6.847,4.922 8.05,4.922 1.2,0 0.891,-2.461 -1.554,-6.031 -8.406,-10.969 -12.039,-15.661 -17.488,-24.168 -1.266,-2.461 -6.387,-3.813 -7.356,-3.813 -2.879,0 -24.1718,1.352 -72.9257,1.352 -16.336,0 -28.0938,-1.121 -31.4532,-1.121 -4.55857,0 -6.77732,0.441 -5.93747,2.46 0.65234,1.571 3.32031,3.36 7.43747,4.032 14.2305,2.449 19.3594,6.707 24.1953,15.437 2.8008,5.582 18.3086,41.16 31.8008,73.602 3.7149,8.945 10.1367,24.387 12.961,31.769 1.8125,4.934 2.3828,9.18 -8.0704,11.192 -4.4335,0.898 -5.6093,2.695 -4.9648,4.25 0.6563,1.57 3.0469,2.683 8.332,2.683" /><path
         id="path30"
         style="fill:#2151a8;fill-opacity:1;fill-rule:nonzero;stroke:none"
         d="m 206.953,544.328 c -8.48,-5.379 -18.848,-17.008 -23.683,-28.648 -3.071,-7.371 -4.989,-14.309 -5.387,-19.91 -0.985,-16.782 9.363,-24.829 20.894,-24.829 2.637,0 8.379,1.118 17.715,7.391 8.52,6.039 19.094,19.898 23.094,29.527 4.84,11.629 7.254,24.391 2.223,34.231 -3.055,5.371 -10.305,8.73 -16.555,8.73 -5.039,0 -11.586,-2.461 -18.301,-6.492 z m 54.719,-32.449 c -7.727,-18.57 -25.774,-33.109 -36.891,-38.469 -12.308,-6.5 -22.703,-8.961 -33.511,-8.961 -11.043,0 -21.106,4.699 -27.106,11.633 -7.074,7.84 -8.187,23.047 -3.539,34.238 7.07,17 19.223,27.75 31.328,34.899 9.957,6.051 24.57,12.312 40.652,12.312 23.782,0 40.786,-17.449 29.067,-45.652" /><path
         id="path32"
         style="fill:#2151a8;fill-opacity:1;fill-rule:nonzero;stroke:none"
         d="m 299.52,549.699 c 8.953,2.461 17.785,5.821 20.75,7.16 3.621,1.782 5.199,2.692 5.921,2.692 0.957,0 1.321,-2.02 1.039,-2.692 -1.671,-4.031 -3.824,-8.05 -5.593,-12.308 -0.371,-0.891 0.734,-1.121 1.308,-0.891 12.809,8.27 25.7,13.871 33.149,13.871 9.844,0 9.676,-5.601 8.84,-7.609 -0.188,-0.453 -1.555,-2.024 -2.739,-3.133 -4.136,-3.59 -12.41,-9.617 -14.121,-10.301 -0.586,-0.218 -2.554,0.231 -3.094,0.684 -1.71,2.226 -6.347,4.918 -11.152,4.918 -4.082,0 -8.457,-0.66 -11.871,-3.141 -2.437,-1.777 -3.984,-3.789 -4.445,-4.918 -1.864,-4.472 -17.496,-44.972 -18.664,-48.332 -2.215,-6.48 -2.539,-10.738 1.507,-11.398 2.836,-0.672 6.7,-1.789 9.926,-2.692 3.375,-1.121 3.215,-2.679 2.844,-3.578 -0.469,-1.121 -3.008,-2.011 -6.609,-2.011 -6.008,0 -13.938,1.121 -27.871,1.121 -7.207,0 -10.461,-0.903 -16.223,-0.903 -2.637,0 -4.668,0.903 -3.926,2.692 0.559,1.332 3.809,2.242 6.008,2.91 10.586,2.91 12.226,5.14 18.047,18.558 2.328,5.614 11.629,27.973 17.769,42.743 0.93,2.238 2.141,5.14 0.145,6.711 -3.988,4.257 -6.024,5.148 -5.652,6.046 0.277,0.661 1.691,2.911 4.707,3.801" /><path
         id="path34"
         style="fill:#2151a8;fill-opacity:1;fill-rule:nonzero;stroke:none"
         d="m 398.059,542.309 c -6.325,-4.239 -16.598,-15.661 -21.809,-28.188 -7.441,-17.891 -2.551,-38.48 18.105,-38.48 7.688,0 14.235,2.468 19.766,5.371 0.664,0.437 6.77,7.597 9.981,14.758 6.203,14.332 11.074,26.628 14.714,37.152 0.508,1.789 0.032,5.808 -1.746,8.508 -4.109,6.25 -12.222,8.711 -17.027,8.711 -7.684,0 -15.98,-3.789 -21.984,-7.832 z m 48.945,14.32 c 0.867,-0.219 2.234,1.351 2.945,2.461 3.711,6.047 17.219,40.273 18.735,45.644 0.234,1.125 1.343,3.813 -7.469,9.184 -1.703,1.109 -1.75,1.559 -1.567,2 0.375,0.906 4.125,3.586 5.665,3.809 5.8,0.671 19.929,4.035 27.097,6.269 1.633,0.438 2.445,0.664 3.403,0.664 0.718,0 1.511,-1.562 0.437,-3.574 -6.133,-11.863 -10.449,-19.91 -38.914,-88.375 -18.789,-45.199 -18.945,-46.762 -20.484,-51.02 -3.2,-8.281 -1.649,-9.171 -0.211,-9.171 2.644,0 11.214,1.562 13.711,1.789 0.964,0 0.98,-1.118 0.886,-1.348 -0.648,-1.551 -5.109,-5.359 -6.402,-5.59 -4.852,-0.672 -18.273,-2.91 -23.484,-4.473 -6.262,-1.789 -8.372,-2.226 -9.575,-2.226 -0.964,0 -1.906,1.777 -1.433,2.898 0.84,2.02 2.984,6.039 4.297,9.18 0.371,0.891 -0.407,1.332 -0.887,1.332 -14.859,-9.172 -27.949,-11.184 -35.867,-11.184 -11.535,0 -20.532,4.922 -24.903,12.313 -4.347,8.051 -3.441,19.461 1.211,30.648 9.118,21.922 28.11,34.68 42.575,41.161 13.652,6.269 28.75,8.511 35.234,8.511 8.648,0 12.305,-0.453 15,-0.902" /><path
         id="path36"
         style="fill:#2151a8;fill-opacity:1;fill-rule:nonzero;stroke:none"
         d="m 630.805,610.996 c 14.414,0 36.793,0.684 38.707,0.684 1.301,0.222 2.508,-0.899 1.953,-2.239 -3.172,-6.492 -5.465,-14.324 -8.395,-21.929 -0.961,-2.903 -3.715,-6.047 -5.875,-6.047 -1.922,0 -2.82,2.461 -2.394,6.933 0.707,10.965 -1.09,12.989 -8.551,14.102 -7.699,1.121 -31.809,0.898 -37.039,0.449 -2.5,-0.226 -4.773,-2.234 -5.051,-2.91 -2.722,-5.371 -15.387,-34.68 -21.523,-49.437 -2.516,-6.051 -2.246,-8.293 -1.043,-8.293 9.363,0 28.726,-0.219 34.683,0.23 7.715,0.66 10.715,2.68 17.246,10.289 2.743,3.141 4.641,5.371 6.797,5.371 1.684,0 1.227,-2.23 0.11,-4.918 -1.211,-2.91 -5.391,-10.082 -7.063,-14.09 -4.461,-10.742 -4.812,-12.761 -6.863,-17.691 -1.02,-2.461 -3.336,-5.141 -5.738,-5.141 -1.2,0 -1.996,1.563 -1.649,4.7 1.133,8.5 -1.285,9.621 -5.387,10.742 -2.457,0.449 -10.82,1.121 -15.625,1.121 -4.57,0 -16.093,0 -21.421,-0.672 -0.711,0 -2.422,-1.789 -3.028,-2.691 -2.015,-4.258 -14.078,-35.571 -16.531,-42.059 -2.645,-6.93 -4.023,-11.418 10.469,-14.09 3.324,-0.691 4.84,-2.238 4,-4.262 -0.559,-1.347 -3.281,-2.687 -7.844,-2.687 -6.238,0 -13.406,0.68 -22.527,0.68 -9.614,0 -24.11,-1.352 -29.149,-1.352 -4.804,0 -6.355,0.902 -5.797,2.242 0.743,1.789 4.133,3.578 8.348,4.481 14.176,2.898 16.801,8.058 18.246,10.957 3.606,6.929 11.695,23.492 30.113,67.801 8.746,21.027 14.235,34.226 16.172,40.046 2.684,7.61 0.18,11.407 -9.371,13.868 -4.332,1.117 -5.066,2.238 -4.414,3.8 0.742,1.797 3.992,2.696 7.832,2.696 10.567,0 18.942,-0.684 26.383,-0.684 h 31.219" /><path
         id="path38"
         style="fill:#2151a8;fill-opacity:1;fill-rule:nonzero;stroke:none"
         d="m 675.469,480.34 c 1.804,0.89 5.019,5.148 5.207,5.59 2.707,5.371 5.867,12.98 7.73,17.461 0.282,0.66 -0.215,1.789 -1.179,1.789 -6.719,0 -19.832,-3.809 -27.524,-6.711 -3.058,-1.578 -6.109,-3.149 -8.34,-8.508 -4.097,-9.84 4.504,-13.43 9.555,-13.43 3.602,0 9.047,1.578 14.551,3.809 z m 43.562,66.672 c 1.653,-4.703 0.996,-9.172 -2.91,-18.563 -3.633,-8.73 -16.316,-36.918 -17.336,-39.39 -4.281,-10.289 3.031,-11.18 4.953,-11.18 0.969,0 7.141,1.562 10.532,3.351 0.906,0.45 0.957,0 1.152,-0.66 0.441,-0.691 -0.117,-2.031 -0.207,-2.238 -1.77,-4.262 -16.582,-13.883 -27.383,-13.883 -5.527,0 -11.277,2.91 -10.715,11.192 0.09,0.23 -0.508,1.121 -1.07,0.89 -11.313,-5.82 -23.215,-9.621 -25.891,-10.293 -3.015,-0.886 -8.968,-1.34 -10.172,-1.34 -8.406,0 -12.574,9.622 -7.921,20.801 1.675,4.039 5.371,8.289 9.304,11.422 3.613,2.899 7.688,4.027 11.934,5.578 4.164,1.352 25.422,6.27 31.355,7.852 6.172,1.558 8.086,2.668 8.645,4.019 1.074,2.02 6.992,15.66 8.105,18.352 2.324,5.59 -0.73,14.976 -12.5,14.976 -5.051,0 -8.73,-1.339 -10.875,-2.457 -1.715,-0.66 -4.109,-4.703 -5.492,-9.171 -0.273,-0.661 -1.793,-2.008 -2.473,-2.461 -3.132,-1.789 -17.468,-7.379 -18.671,-7.379 -1.446,0 -2.137,1.789 -1.668,2.91 2.695,6.48 12.019,12.75 26.191,19.68 8.918,4.699 21.309,8.511 25.867,8.511 12.016,0 15.695,-5.601 17.246,-10.519" /><path
         id="path40"
         style="fill:#2151a8;fill-opacity:1;fill-rule:nonzero;stroke:none"
         d="m 807.402,591.98 c -2.515,-6.042 -11.289,-10.957 -16.093,-10.957 -1.68,0 -5.141,0.891 -6.567,2.676 -1.074,2.024 -1.746,4.485 -0.164,8.281 0.844,2.024 3.293,5.598 6.242,8.059 3.243,2.012 7.207,2.91 10.575,2.91 6.488,0 7.683,-6.933 6.007,-10.969 z m -44.734,-41.16 c 9.629,1.789 22.957,6.711 26.934,7.61 0.964,0 1.238,-2.25 1.144,-2.461 -1.019,-2.457 -14.562,-31.559 -19.863,-44.309 -5.207,-12.531 -8.871,-21.922 -11.895,-29.762 -2.726,-7.148 2.364,-7.597 7.629,-9.386 3.367,-1.121 4.352,-2.25 3.699,-3.813 -0.558,-1.34 -3.812,-2.238 -6.461,-2.238 -1.675,0 -13.406,0.68 -18.445,0.68 -7.93,0 -16.699,-0.903 -20.793,-0.903 -3.836,0 -5.867,0.903 -5.219,2.461 0.563,1.352 2.704,2.473 7.25,3.582 6.086,1.348 10.801,4.028 12.207,6.258 2.036,3.141 7.848,16.57 10.543,23.051 0.192,0.449 13.637,32.219 14.286,34.898 0.402,1.582 -1.493,3.364 -6.512,8.063 -1.063,0.89 -1.266,1.57 -0.895,2.461 0.657,1.57 3.559,3.359 6.391,3.808" /><path
         id="path42"
         style="fill:#2151a8;fill-opacity:1;fill-rule:nonzero;stroke:none"
         d="m 821.301,549.699 c 8.949,2.461 17.781,5.821 20.746,7.16 3.621,1.782 5.199,2.692 5.922,2.692 0.957,0 1.316,-2.02 1.039,-2.692 -1.672,-4.031 -3.82,-8.05 -5.594,-12.308 -0.371,-0.891 0.734,-1.121 1.309,-0.891 12.804,8.27 25.699,13.871 33.148,13.871 9.844,0 9.68,-5.601 8.84,-7.609 -0.188,-0.453 -1.555,-2.024 -2.734,-3.133 -4.141,-3.59 -12.414,-9.617 -14.122,-10.301 -0.585,-0.218 -2.558,0.231 -3.097,0.684 -1.707,2.226 -6.348,4.918 -11.153,4.918 -4.082,0 -8.457,-0.66 -11.871,-3.141 -2.433,-1.777 -3.984,-3.789 -4.449,-4.918 -1.859,-4.472 -17.492,-44.972 -18.66,-48.332 -2.219,-6.48 -2.539,-10.738 1.508,-11.398 2.84,-0.672 6.699,-1.789 9.93,-2.692 3.371,-1.121 3.21,-2.679 2.839,-3.578 -0.468,-1.121 -3.007,-2.011 -6.609,-2.011 -6.008,0 -13.938,1.121 -27.871,1.121 -7.207,0 -10.461,-0.903 -16.223,-0.903 -2.636,0 -4.668,0.903 -3.926,2.692 0.555,1.332 3.809,2.242 6.004,2.91 10.586,2.91 12.231,5.14 18.047,18.558 2.332,5.614 11.633,27.973 17.778,42.743 0.925,2.238 2.136,5.14 0.14,6.711 -3.988,4.257 -6.019,5.148 -5.648,6.046 0.269,0.661 1.687,2.911 4.707,3.801" /><path
         id="path44"
         style="fill:#2151a8;fill-opacity:1;fill-rule:nonzero;stroke:none"
         d="m 959.773,554.621 c 1.692,0 1.418,-4.699 -0.535,-9.402 -0.277,-0.668 -3.332,-2.239 -4.531,-2.239 -1.68,0 -25.18,0.68 -27.828,0.68 -0.477,0 -2.238,-1.351 -2.426,-1.789 -2.336,-4.48 -21.988,-53.48 -23.09,-57.281 -2.3,-7.828 -1.453,-9.84 11.164,-11.871 3.801,-0.66 4.493,-2.457 4.121,-3.348 -0.925,-2.23 -4.476,-2.68 -7.355,-2.68 -2.883,0 -13.734,0.45 -19.742,0.45 -8.653,0 -22.09,-1.121 -24.492,-1.121 -3.36,0 -5.633,0.89 -4.981,2.46 0.465,1.122 3.516,2.692 6.531,3.579 11.45,2.691 12.621,4.921 17.047,14.992 4.047,9.179 15.453,36.019 20.481,48.109 3.164,7.602 1.996,8.27 1.039,8.27 -2.403,0 -7.449,0 -10.274,-0.45 -1.203,0 -1.953,2.239 -0.578,3.809 0.61,0.891 7.633,3.352 14.836,7.383 2.235,1.348 4.235,2.687 4.695,3.808 6.079,13.426 11.555,23.708 19.872,33.336 9.703,11.184 19.054,19.239 32.597,26.399 12.387,6.711 22.067,9.172 31.188,9.172 5.048,0 10.978,-1.34 13.598,-4.25 1.66,-1.789 2.04,-4.922 0.92,-7.61 -1.3,-3.125 -6.55,-8.281 -10.39,-9.39 -1.39,-0.453 -3.163,-0.676 -4.597,-0.676 -1.684,0 -2.566,1.34 -4.621,4.48 -2.988,3.801 -7.688,6.938 -13.938,6.938 -5.757,0 -11.675,-2.699 -18.699,-9.172 -9.672,-9.414 -16.851,-21.484 -29.043,-50.797 -0.371,-0.89 -0.105,-2.019 0.606,-2.019 14.66,0 27.468,0.23 28.425,0.23" /><path
         id="path46"
         style="fill:#2151a8;fill-opacity:1;fill-rule:nonzero;stroke:none"
         d="m 986.563,480.34 c 1.804,0.89 5.019,5.148 5.207,5.59 2.707,5.371 5.867,12.98 7.734,17.461 0.277,0.66 -0.219,1.789 -1.184,1.789 -6.718,0 -19.836,-3.809 -27.523,-6.711 -3.059,-1.578 -6.109,-3.149 -8.34,-8.508 -4.098,-9.84 4.508,-13.43 9.555,-13.43 3.601,0 9.047,1.578 14.551,3.809 z m 43.567,66.672 c 1.65,-4.703 0.99,-9.172 -2.91,-18.563 -3.64,-8.73 -16.32,-36.918 -17.34,-39.39 -4.28,-10.289 3.03,-11.18 4.95,-11.18 0.97,0 7.14,1.562 10.53,3.351 0.91,0.45 0.96,0 1.15,-0.66 0.45,-0.691 -0.11,-2.031 -0.2,-2.238 -1.77,-4.262 -16.58,-13.883 -27.384,-13.883 -5.528,0 -11.281,2.91 -10.711,11.192 0.086,0.23 -0.512,1.121 -1.074,0.89 -11.313,-5.82 -23.215,-9.621 -25.891,-10.293 -3.02,-0.886 -8.969,-1.34 -10.172,-1.34 -8.406,0 -12.57,9.622 -7.926,20.801 1.684,4.039 5.371,8.289 9.309,11.422 3.613,2.899 7.684,4.027 11.934,5.578 4.164,1.352 25.418,6.27 31.359,7.852 6.166,1.558 8.086,2.668 8.636,4.019 1.08,2.02 7,15.66 8.11,18.352 2.32,5.59 -0.73,14.976 -12.5,14.976 -5.051,0 -8.73,-1.339 -10.875,-2.457 -1.715,-0.66 -4.109,-4.703 -5.492,-9.171 -0.274,-0.661 -1.793,-2.008 -2.473,-2.461 -3.133,-1.789 -17.469,-7.379 -18.672,-7.379 -1.441,0 -2.136,1.789 -1.668,2.91 2.696,6.48 12.024,12.75 26.192,19.68 8.918,4.699 21.308,8.511 25.868,8.511 12.01,0 15.69,-5.601 17.25,-10.519" /><path
         id="path48"
         style="fill:#2151a8;fill-opacity:1;fill-rule:nonzero;stroke:none"
         d="m 1072.44,555.738 c 2.88,0 14.58,-1.347 20.34,-1.347 5.04,0 10.27,0.449 14.35,0.449 2.88,0 5.01,-0.668 4.45,-2.012 -0.65,-1.558 -3.22,-3.129 -6.14,-3.808 -5.93,-1.559 -6.29,-3.579 -6.76,-4.692 -0.55,-1.348 2.67,-16.109 4.17,-20.578 0.06,-0.449 1.11,-0.219 1.78,0.211 5.79,4.699 16.19,14.109 20.35,18.348 3.9,3.589 3.15,4.703 0.74,5.82 -4.45,2.012 -5.37,2.691 -4.71,4.25 0.65,1.57 3.17,2.461 5.82,2.461 2.4,0 5.83,-0.449 10.14,-0.449 5.76,0 17.51,1.129 21.36,1.129 2.64,0 4.76,-0.68 4.02,-2.461 -0.74,-1.789 -4.48,-2.688 -5.87,-3.137 -10.63,-2.461 -17.56,-4.703 -25.36,-10.731 -8.88,-6.941 -15.34,-12.089 -25.36,-20.601 -0.85,-0.891 -1.23,-1.781 -1.27,-2.461 0.35,-4.918 3.37,-21.918 6.73,-31.758 3.2,-9.621 8.56,-11.199 13.14,-12.312 3.71,-0.887 4.59,-2.239 4.12,-3.36 -0.65,-1.558 -3.03,-2.679 -6.88,-2.679 -8.16,0 -16.34,1.121 -25.47,1.121 -4.8,0 -7.63,-0.45 -12.43,-0.45 -3.37,0 -4.49,1.34 -3.84,2.911 0.37,0.886 2.03,2.007 5.78,2.91 4.63,1.34 7.9,2.238 6.11,8.937 -0.63,4.25 -2.64,17.91 -3.77,19.25 -0.28,0.449 -0.68,0.672 -1.68,0 -5.32,-3.578 -22.79,-19.019 -24.34,-22.16 -1.11,-2.668 -0.42,-4.469 3.65,-6.258 1.26,-0.441 2.52,-2.019 1.97,-3.351 -0.74,-1.789 -4.3,-2.239 -5.98,-2.239 -5.04,0 -6.3,0.45 -10.14,0.45 -7.92,0 -15.26,-0.903 -19.83,-0.903 -3.11,0 -6.69,0.672 -5.94,2.461 0.65,1.563 4.33,2.91 7.49,3.582 9.34,2.239 15.36,5.141 22.3,10.301 6.93,5.137 19.42,16.109 30.25,24.828 0.76,0.68 1.04,1.34 0.94,2.238 -0.12,2.012 -2.64,16.782 -5.51,26.622 -2.56,8.281 -5.97,11.628 -11.23,13.429 -4.1,1.121 -5.22,2.461 -4.57,4.02 0.56,1.351 3.72,2.019 7.08,2.019" /><path
         id="path50"
         style="fill:#2151a8;fill-opacity:1;fill-rule:nonzero;stroke:none"
         d="m 1367.76,611.445 c 5.87,-0.89 13.07,-3.8 16.49,-4.238 1.2,0 2.95,-1.57 0.81,-6.719 -1.95,-4.695 -4.85,-14.55 -6.42,-19.465 -1.71,-4.707 -4.74,-7.382 -6.67,-7.382 -1.2,0 -1.61,2.461 -1.42,5.812 1.09,7.832 -0.68,14.551 -2.87,16.785 -9.39,9.172 -20.63,11.633 -33.6,11.633 -38.66,0 -75.76,-29.758 -89.81,-63.543 -6.23,-14.988 -8.14,-27.066 -6.96,-36.918 2.77,-25.73 26.44,-35.801 45.89,-35.801 4.56,0 16.61,0.672 28.68,6.039 12.72,5.153 21.7,12.313 31.38,21.711 5.07,4.692 6.5,5.821 7.45,5.821 2.41,0 0.6,-4.942 -0.91,-7.399 -3.04,-5.582 -13.49,-17.441 -18.99,-22.59 -1.81,-2.019 -7.01,-4.703 -9.87,-5.82 -4.49,-1.57 -25.9,-6.262 -46.32,-6.262 -33.87,0 -52.09,15.661 -57.32,26.18 -5.03,9.84 -9.38,25.949 1.22,51.449 10.61,25.524 35.4,45.883 48.74,53.703 27.17,15.664 51.55,20.586 73.65,20.586 8.41,0 18.55,-1.57 26.85,-3.582" /><path
         id="path52"
         style="fill:#2151a8;fill-opacity:1;fill-rule:nonzero;stroke:none"
         d="m 1420.12,544.328 c -8.48,-5.379 -18.85,-17.008 -23.68,-28.648 -3.08,-7.371 -4.99,-14.309 -5.4,-19.91 -0.98,-16.782 9.37,-24.829 20.9,-24.829 2.64,0 8.38,1.118 17.72,7.391 8.51,6.039 19.09,19.898 23.09,29.527 4.84,11.629 7.25,24.391 2.22,34.231 -3.05,5.371 -10.3,8.73 -16.55,8.73 -5.04,0 -11.59,-2.461 -18.3,-6.492 z m 54.71,-32.449 c -7.72,-18.57 -25.77,-33.109 -36.89,-38.469 -12.31,-6.5 -22.7,-8.961 -33.51,-8.961 -11.04,0 -21.1,4.699 -27.1,11.633 -7.08,7.84 -8.19,23.047 -3.54,34.238 7.07,17 19.22,27.75 31.33,34.899 9.95,6.051 24.57,12.312 40.65,12.312 23.78,0 40.78,-17.449 29.06,-45.652" /><path
         id="path54"
         style="fill:#2151a8;fill-opacity:1;fill-rule:nonzero;stroke:none"
         d="m 1514.61,549.699 c 5.55,1.781 18.67,7.379 22.06,9.172 1.24,0.68 1.81,0.899 2.29,0.899 1.12,-0.219 2.14,-1.79 1.96,-2.239 -1.3,-3.14 -4.97,-9.633 -5.9,-11.871 -0.19,-0.441 -0.35,-2 0.89,-1.332 7.96,4.692 26.38,13.203 37.67,13.203 8.65,0 13.76,-1.562 16.87,-4.472 3.02,-3.137 4.24,-7.161 4.63,-8.508 0.11,-0.891 0.35,-0.891 1.56,-0.891 0.81,0.231 18.66,8.5 21.43,9.399 6.55,2.461 11.48,3.351 15.81,3.351 8.88,0 14.4,-2.898 17.5,-7.601 2.95,-5.61 1.85,-13.43 -1.02,-21.489 -3.87,-11.64 -10.49,-26.39 -18.11,-44.738 -1.45,-4.043 -1.77,-8.281 5.94,-10.523 2.76,-0.887 3.82,-1.797 3.27,-3.129 -0.66,-1.571 -3.19,-2.469 -7.75,-2.469 -4.8,0 -11,0.68 -17.01,0.68 -7.21,0 -11,-0.45 -16.52,-0.45 -4.57,0 -5.44,1.34 -4.79,2.911 0.56,1.339 3.57,2.238 6.49,2.91 8.62,2.238 10.69,4.91 13.95,12.75 2.23,5.359 11.8,29.527 14.86,36.918 3.26,7.832 3.36,10.961 2.31,14.769 -1.04,4.481 -4.83,8.051 -14.91,8.051 -10.8,0 -16.63,-3.57 -21.1,-6.27 -1,-0.66 -4.45,-4.921 -5.1,-6.48 -0.65,-1.57 -18.62,-43.641 -20.19,-48.559 -2.25,-7.16 -1.98,-9.39 5.44,-11.179 2.36,-0.672 4.2,-2.024 3.74,-3.141 -0.66,-1.57 -3.04,-2.68 -6.88,-2.68 -5.28,0 -12.3,0.45 -17.83,0.45 -5.04,0 -12.19,-0.45 -17.24,-0.45 -5.52,0 -5.49,1.789 -5.12,2.68 0.28,0.68 1.88,2.238 6.11,3.141 8.9,1.789 10.79,4.019 14.14,12.078 l 18.32,44.07 c 2.7,6.5 2.48,9.41 1.62,11.422 -1.53,3.809 -6.57,6.707 -15.21,6.707 -7.93,0 -14.38,-2.238 -21.83,-6.269 -2.23,-1.329 -3.69,-3.129 -5.06,-5.809 -2.8,-5.602 -14.89,-34.691 -21.96,-51.68 -1.77,-4.261 -2.3,-7.84 4.45,-10.082 4.01,-1.34 5.56,-2.238 4.82,-4.019 -0.66,-1.571 -4.29,-2.239 -7.42,-2.239 -0.96,0 -9.65,0.45 -18.78,0.45 -7.92,0 -13.01,-0.68 -18.29,-0.68 -3.61,0 -5.64,0.898 -4.98,2.469 0.37,0.89 2.45,2.461 7.15,3.351 8.43,1.789 11.27,5.141 16.23,14.77 3.18,6.48 12.82,29.078 19.23,44.519 0.47,1.129 2.16,4.039 0.83,6.051 -4.3,5.809 -5.52,6.93 -5.05,8.039 0.55,1.352 3.27,2.699 6.48,4.039" /><path
         id="path56"
         style="fill:#2151a8;fill-opacity:1;fill-rule:nonzero;stroke:none"
         d="m 1693.58,549.699 c 5.55,1.781 18.68,7.379 22.06,9.172 1.24,0.68 1.81,0.899 2.3,0.899 1.11,-0.219 2.14,-1.79 1.95,-2.239 -1.3,-3.14 -4.97,-9.633 -5.9,-11.871 -0.18,-0.441 -0.34,-2 0.89,-1.332 7.96,4.692 26.39,13.203 37.67,13.203 8.65,0 13.76,-1.562 16.88,-4.472 3.02,-3.137 4.23,-7.161 4.63,-8.508 0.11,-0.891 0.35,-0.891 1.55,-0.891 0.82,0.231 18.66,8.5 21.44,9.399 6.54,2.461 11.48,3.351 15.8,3.351 8.89,0 14.41,-2.898 17.5,-7.601 2.95,-5.61 1.86,-13.43 -1.01,-21.489 -3.87,-11.64 -10.49,-26.39 -18.12,-44.738 -1.44,-4.043 -1.76,-8.281 5.95,-10.523 2.75,-0.887 3.82,-1.797 3.26,-3.129 -0.65,-1.571 -3.18,-2.469 -7.74,-2.469 -4.81,0 -11.01,0.68 -17.02,0.68 -7.2,0 -11,-0.45 -16.51,-0.45 -4.58,0 -5.45,1.34 -4.8,2.911 0.56,1.339 3.57,2.238 6.49,2.91 8.62,2.238 10.69,4.91 13.95,12.75 2.23,5.359 11.8,29.527 14.87,36.918 3.25,7.832 3.36,10.961 2.3,14.769 -1.03,4.481 -4.82,8.051 -14.91,8.051 -10.8,0 -16.62,-3.57 -21.09,-6.27 -1,-0.66 -4.46,-4.921 -5.11,-6.48 -0.65,-1.57 -18.61,-43.641 -20.18,-48.559 -2.25,-7.16 -1.99,-9.39 5.44,-11.179 2.36,-0.672 4.2,-2.024 3.73,-3.141 -0.65,-1.57 -3.04,-2.68 -6.88,-2.68 -5.28,0 -12.3,0.45 -17.82,0.45 -5.04,0 -12.2,-0.45 -17.24,-0.45 -5.52,0 -5.5,1.789 -5.13,2.68 0.29,0.68 1.89,2.238 6.11,3.141 8.91,1.789 10.8,4.019 14.14,12.078 l 18.33,44.07 c 2.7,6.5 2.47,9.41 1.63,11.422 -1.54,3.809 -6.58,6.707 -15.23,6.707 -7.93,0 -14.38,-2.238 -21.82,-6.269 -2.24,-1.329 -3.69,-3.129 -5.06,-5.809 -2.8,-5.602 -14.89,-34.691 -21.96,-51.68 -1.77,-4.261 -2.3,-7.84 4.45,-10.082 4,-1.34 5.56,-2.238 4.81,-4.019 -0.65,-1.571 -4.29,-2.239 -7.41,-2.239 -0.96,0 -9.66,0.45 -18.79,0.45 -7.92,0 -13.01,-0.68 -18.29,-0.68 -3.6,0 -5.63,0.898 -4.98,2.469 0.37,0.89 2.46,2.461 7.16,3.351 8.43,1.789 11.27,5.141 16.22,14.77 3.18,6.48 12.82,29.078 19.24,44.519 0.47,1.129 2.16,4.039 0.83,6.051 -4.31,5.809 -5.52,6.93 -5.06,8.039 0.56,1.352 3.28,2.699 6.48,4.039" /><path
         id="path58"
         style="fill:#2151a8;fill-opacity:1;fill-rule:nonzero;stroke:none"
         d="m 1906.03,483.469 c 1.9,1.121 5.46,4.48 5.84,5.371 l 21.87,51.461 c 0.56,1.347 -0.78,4.48 -2.04,4.918 -3.23,0.902 -7.95,2.242 -9.93,2.679 -1.49,0.461 -4.06,1.801 -3.31,3.582 0.37,0.899 3.96,2.032 6.36,2.032 9.6,0 20.64,1.109 26.72,2.457 2.68,0.66 4.45,0.89 6.13,0.89 1.2,0 0.67,-2.468 0.3,-3.347 -3.1,-6.274 -25.67,-55.953 -33.29,-74.293 -0.19,-0.449 -0.35,-3.137 1.57,-3.137 1.68,0 9.59,1.129 12.48,1.129 0.96,0 1.15,-3.582 1.11,-4.262 -0.27,-0.668 -2.61,-2.238 -3.57,-2.238 -6.43,-0.449 -17.54,-2.91 -23.62,-4.25 -4.54,-1.109 -8.77,-2.012 -9.25,-2.012 -0.96,0 -1.75,1.571 -1.1,3.141 0.56,1.34 3.05,5.582 4.88,9.39 0.46,1.129 0.02,1.79 -0.56,1.559 -8.83,-4.469 -20.85,-10.289 -24.43,-11.398 -4.74,-1.571 -10.49,-2.692 -17.22,-2.692 -8.64,0 -14.83,3.582 -16.76,10.512 -0.65,2.461 -0.47,6.937 1.02,10.527 6.69,16.102 17.21,41.383 21.66,53.242 2.36,6.27 -1.83,7.168 -5.26,8.731 -1.8,0.898 -3.49,2.008 -2.65,4.019 0.28,0.68 2.04,2.032 4.92,2.032 6.73,0 25.52,2.457 26.48,2.457 0.96,0 1.08,-2.02 0.52,-3.36 -2.92,-7.609 -21.46,-49.91 -25.64,-59.961 -2.15,-5.148 -1.65,-10.296 0.79,-12.527 4.38,-4.48 8.71,-4.48 14.47,-4.48 5.76,0 13.45,2.898 21.51,7.828" /><path
         id="path60"
         style="fill:#2151a8;fill-opacity:1;fill-rule:nonzero;stroke:none"
         d="m 1989.48,551.27 c 4.63,1.339 14.49,4.25 18.79,6.48 2.96,1.34 5.58,2.461 6.78,2.461 1.2,0 1.38,-2.461 1.01,-3.352 -1.58,-3.8 -4.77,-9.179 -5.61,-11.199 -0.46,-1.109 0.93,-0.66 1.16,-0.66 12.12,6.039 27.21,12.301 37.3,12.301 11.76,0 16.45,-4.922 18.33,-8.492 2.86,-5.829 1.71,-16.11 -2.95,-27.309 -1.77,-4.238 -15.15,-37.578 -16.21,-40.711 -0.91,-3.367 0.28,-6.269 5.62,-7.84 4.11,-1.109 5.08,-2.238 4.43,-3.801 -0.65,-1.558 -4.38,-2.457 -8.23,-2.457 -5.52,0 -10.86,0.45 -17.58,0.45 -6,0 -13.64,-0.45 -16.76,-0.45 -2.17,0 -5.15,0.899 -4.41,2.68 0.66,1.57 3.85,2.91 7.11,3.801 6.6,2.019 8.55,3.808 12.09,11.199 3.55,7.379 15.05,34.461 17.75,40.93 3.35,8.058 1.72,14.551 -0.33,16.57 -1.9,1.789 -8.07,4.25 -13.6,4.25 -10.57,0 -18.21,-3.359 -24.35,-7.172 -1,-0.668 -3.79,-3.34 -4.63,-5.367 -1.22,-2.902 -21.22,-51 -22.09,-53.703 -1.07,-3.117 -0.84,-4.918 6,-6.93 2.13,-0.668 3.49,-2.008 2.93,-3.347 -0.65,-1.571 -3.76,-2.692 -7.12,-2.692 -2.89,0 -9.51,0.231 -14.56,0.231 -8.89,0 -16.13,-0.68 -20.21,-0.68 -3.61,0 -5.87,0.898 -5.03,2.91 0.65,1.57 3.51,2.688 6.43,3.348 8.86,2.242 11.23,4.492 15.3,12.543 3.51,6.707 12.09,26.179 21.57,49 1.02,2.457 1.48,4.687 -2.13,8.718 -2.29,2.02 -3.27,3.141 -2.99,3.809 0.65,1.57 4.23,3.813 6.19,4.481" /><path
         id="path62"
         style="fill:#2151a8;fill-opacity:1;fill-rule:nonzero;stroke:none"
         d="m 2159.19,591.98 c -2.51,-6.042 -11.29,-10.957 -16.09,-10.957 -1.68,0 -5.15,0.891 -6.58,2.676 -1.07,2.024 -1.73,4.485 -0.15,8.281 0.84,2.024 3.29,5.598 6.24,8.059 3.24,2.012 7.2,2.91 10.57,2.91 6.49,0 7.68,-6.933 6.01,-10.969 z m -44.74,-41.16 c 9.63,1.789 22.96,6.711 26.94,7.61 0.96,0 1.24,-2.25 1.15,-2.461 -1.03,-2.457 -14.57,-31.559 -19.86,-44.309 -5.22,-12.531 -8.88,-21.922 -11.9,-29.762 -2.73,-7.148 2.36,-7.597 7.62,-9.386 3.38,-1.121 4.35,-2.25 3.71,-3.813 -0.57,-1.34 -3.82,-2.238 -6.47,-2.238 -1.68,0 -13.4,0.68 -18.44,0.68 -7.93,0 -16.7,-0.903 -20.79,-0.903 -3.84,0 -5.87,0.903 -5.22,2.461 0.56,1.352 2.7,2.473 7.25,3.582 6.08,1.348 10.8,4.028 12.2,6.258 2.04,3.141 7.86,16.57 10.55,23.051 0.19,0.449 13.63,32.219 14.28,34.898 0.41,1.582 -1.49,3.364 -6.51,8.063 -1.07,0.89 -1.26,1.57 -0.89,2.461 0.65,1.57 3.55,3.359 6.38,3.808" /><path
         id="path64"
         style="fill:#2151a8;fill-opacity:1;fill-rule:nonzero;stroke:none"
         d="m 2230.41,555.289 c 0.24,0 2.18,-1.117 1.9,-1.777 0.28,0.66 -1.61,-5.614 -2.81,-8.512 -0.84,-2.02 -5.59,-2.461 -7.27,-2.461 -0.96,0 -23.54,0 -26.18,0 -1.2,0 -2.63,-1.109 -2.82,-1.57 -2.09,-4.481 -16.01,-37.367 -20.48,-48.11 -2.32,-5.578 -2.09,-8.488 -0.46,-10.961 2.96,-3.789 7.83,-4.25 12.87,-4.25 3.12,0 8.73,1.34 13.16,3.364 2.64,1.109 3.2,1.34 4.16,1.34 0.25,0 1.27,-0.454 0.43,-2.473 -0.74,-1.77 -3.36,-4.008 -5.68,-5.578 -8.91,-5.821 -19,-9.852 -29.81,-9.852 -9.84,0 -15.92,5.602 -16.76,10.512 -1.06,3.809 0.41,8.508 3.02,14.777 3.44,8.274 18.35,41.832 21.6,49.66 0.66,1.571 -3,3.141 -7.25,4.493 -1.64,0.66 -2.62,1.769 -2.34,2.461 0.37,0.886 1.46,1.777 2.46,2.457 11.01,6.261 20.69,11.632 25.64,15.437 4.18,3.125 6.6,4.914 7.56,4.914 1.2,0 2.54,-2.012 2.35,-2.449 -0.38,-0.91 -1.68,-4.031 -4.37,-10.531 -0.29,-0.66 0.21,-1.789 1.17,-1.789 5.28,0 28.95,0.898 29.91,0.898" /><path
         id="path66"
         style="fill:#2151a8;fill-opacity:1;fill-rule:nonzero;stroke:none"
         d="m 2247.62,555.07 c 6,0 11.39,-0.898 18.37,-0.898 6.72,0 14.11,0.449 16.99,0.449 1.92,0 5.01,-0.672 4.27,-2.461 -0.66,-1.558 -2.89,-2.91 -7.11,-3.801 -7.47,-1.8 -8.66,-2.918 -8.68,-8.73 -0.85,-10.738 0,-45.641 0.81,-48.328 0.05,-0.449 1.01,-0.449 2.3,0.898 5.39,6.031 35.25,42.063 37.94,45.641 4.78,6.269 3.96,8.949 -4.56,10.969 -2.61,0.66 -4.12,2.23 -3.75,3.121 0.84,2.019 4.24,2.691 7.12,2.691 4.57,0 10.87,-0.449 13.98,-0.449 3.37,0 9.26,0.898 15.51,0.898 3.12,0 4.62,-0.449 3.98,-2.011 -0.84,-2.02 -3.62,-2.918 -6.88,-3.809 -5.69,-1.57 -9.93,-4.25 -16.61,-11.629 -14.89,-16.789 -40.24,-46.551 -51.16,-59.512 -16.87,-20.371 -35.34,-43.418 -50.93,-62.437 -2.17,-2.902 -8.13,-6.274 -15.1,-6.274 -8.16,0 -8.19,6.274 -6.24,10.973 1.58,3.809 7.93,9.84 14.66,9.84 1.2,0 6.14,-0.223 8.54,-0.223 2.17,0 3.31,1.571 5.2,3.813 3.64,3.578 19.51,23.258 23.52,28.871 2.03,3.117 4.19,6.027 4.07,8.039 -0.06,1.57 0.15,6.711 0.22,9.168 0.43,13.211 -0.69,46.32 -2.26,60.422 -0.5,4.027 -0.77,6.258 -7.67,8.719 -2.9,1.121 -3.96,2.019 -3.41,3.359 0.37,0.902 1.84,2.691 6.88,2.691" /><path
         id="path68"
         style="fill:#2151a8;fill-opacity:1;fill-rule:nonzero;stroke:none"
         d="m 2545.63,611.445 c 5.86,-0.89 13.06,-3.8 16.48,-4.238 1.2,0 2.95,-1.57 0.81,-6.719 -1.95,-4.695 -4.85,-14.55 -6.42,-19.465 -1.71,-4.707 -4.74,-7.382 -6.67,-7.382 -1.2,0 -1.61,2.461 -1.41,5.812 1.08,7.832 -0.69,14.551 -2.88,16.785 -9.39,9.172 -20.63,11.633 -33.6,11.633 -38.66,0 -75.77,-29.758 -89.81,-63.543 -6.23,-14.988 -8.15,-27.066 -6.95,-36.918 2.76,-25.73 26.43,-35.801 45.88,-35.801 4.57,0 16.62,0.672 28.69,6.039 12.71,5.153 21.7,12.313 31.36,21.711 5.08,4.692 6.51,5.821 7.46,5.821 2.41,0 0.61,-4.942 -0.91,-7.399 -3.03,-5.582 -13.49,-17.441 -18.99,-22.59 -1.8,-2.019 -7.01,-4.703 -9.87,-5.82 -4.49,-1.57 -25.9,-6.262 -46.32,-6.262 -33.87,0 -52.09,15.661 -57.32,26.18 -5.03,9.84 -9.38,25.949 1.23,51.449 10.6,25.524 35.39,45.883 48.73,53.703 27.17,15.664 51.55,20.586 73.65,20.586 8.41,0 18.55,-1.57 26.86,-3.582" /><path
         id="path70"
         style="fill:#2151a8;fill-opacity:1;fill-rule:nonzero;stroke:none"
         d="m 2597.98,544.328 c -8.49,-5.379 -18.85,-17.008 -23.68,-28.648 -3.07,-7.371 -4.99,-14.309 -5.39,-19.91 -0.98,-16.782 9.36,-24.829 20.89,-24.829 2.64,0 8.38,1.118 17.72,7.391 8.52,6.039 19.09,19.898 23.09,29.527 4.84,11.629 7.26,24.391 2.22,34.231 -3.04,5.371 -10.3,8.73 -16.55,8.73 -5.04,0 -11.59,-2.461 -18.3,-6.492 z m 54.72,-32.449 c -7.73,-18.57 -25.79,-33.109 -36.9,-38.469 -12.3,-6.5 -22.69,-8.961 -33.51,-8.961 -11.04,0 -21.1,4.699 -27.09,11.633 -7.08,7.84 -8.2,23.047 -3.55,34.238 7.07,17 19.23,27.75 31.33,34.899 9.95,6.051 24.57,12.312 40.65,12.312 23.78,0 40.78,-17.449 29.07,-45.652" /><path
         id="path72"
         style="fill:#2151a8;fill-opacity:1;fill-rule:nonzero;stroke:none"
         d="m 2718.67,617.938 c 12.54,3.585 20.3,4.921 28.36,8.722 0.92,0.449 1.6,-1.34 1.23,-2.234 -3.05,-5.586 -15,-30.871 -27.46,-60.863 -13.57,-32.653 -31.83,-75.403 -33.13,-81.442 -0.91,-4.473 -1.07,-7.16 8.15,-9.84 3.22,-0.89 4.69,-2.019 4.13,-3.351 -0.65,-1.571 -4.39,-2.469 -7.27,-2.469 -5.77,0 -15.81,0.68 -20.13,0.68 -5.53,0 -16.38,-0.68 -21.43,-0.68 -4.79,0 -6.43,0.68 -5.69,2.469 0.64,1.558 3.75,2.679 6.58,3.129 11.97,2.242 14.13,6.273 19.5,17.453 4.02,8.5 15.27,32.668 29.96,68.019 6.89,16.551 15.93,40.047 18.73,46.754 0.74,1.801 1.06,3.137 -3.16,6.27 -2.97,2.687 -3.41,3.363 -3.04,4.25 0.38,0.898 1.74,2.461 4.67,3.133" /><path
         id="path74"
         style="fill:#2151a8;fill-opacity:1;fill-rule:nonzero;stroke:none"
         d="m 2778.73,617.938 c 12.54,3.585 20.3,4.921 28.36,8.722 0.92,0.449 1.6,-1.34 1.23,-2.234 -3.05,-5.586 -15,-30.871 -27.46,-60.863 -13.57,-32.653 -31.83,-75.403 -33.14,-81.442 -0.9,-4.473 -1.06,-7.16 8.16,-9.84 3.22,-0.89 4.69,-2.019 4.13,-3.351 -0.65,-1.571 -4.39,-2.469 -7.28,-2.469 -5.76,0 -15.81,0.68 -20.12,0.68 -5.53,0 -16.38,-0.68 -21.43,-0.68 -4.79,0 -6.43,0.68 -5.69,2.469 0.64,1.558 3.75,2.679 6.58,3.129 11.97,2.242 14.13,6.273 19.5,17.453 4.02,8.5 15.27,32.668 29.96,68.019 6.89,16.551 15.93,40.047 18.72,46.754 0.75,1.801 1.07,3.137 -3.15,6.27 -2.97,2.687 -3.41,3.363 -3.04,4.25 0.37,0.898 1.74,2.461 4.67,3.133" /><path
         id="path76"
         style="fill:#2151a8;fill-opacity:1;fill-rule:nonzero;stroke:none"
         d="m 2817.96,534.93 c -0.95,-1.121 -0.55,-2.461 -0.07,-2.461 6.15,-0.219 18.89,-0.219 30.99,0 5.76,0 8.63,1.113 10.5,5.601 2.59,6.258 -1.64,13.41 -10.28,13.41 -10.81,0 -22.54,-6.261 -31.14,-16.55 z m 56.21,13.879 c 3.33,-4.7 3.85,-10.969 0.59,-18.797 -0.56,-1.352 -3.51,-3.813 -6.16,-3.813 -2.63,0 -43.71,0 -54.65,0.231 -0.73,0 -2.15,-1.129 -2.67,-1.789 -1.48,-1.801 -3.53,-5.602 -4.46,-7.832 -3.63,-8.719 -4.07,-19.028 -1.47,-25.508 2.48,-6.711 10.26,-12.313 21.78,-12.313 10.57,0 18.79,2.461 25.19,8.063 1.53,1.34 3.3,2.687 4.25,2.687 1.45,0 1.27,-1.578 0.81,-2.687 -0.74,-1.789 -2.73,-4.25 -3.91,-5.371 -13.16,-11.418 -28.12,-16.782 -41.81,-16.782 -25.94,0 -35.61,18.34 -24.72,44.524 7.44,17.898 24.97,35.797 47.05,43.859 7.36,2.688 15.84,4.02 19.93,4.02 8.4,0 16.57,-2.91 20.25,-8.492" /><path
         id="path78"
         style="fill:#2151a8;fill-opacity:1;fill-rule:nonzero;stroke:none"
         d="m 2925.27,547.461 c -5.09,-3.57 -10.15,-9.391 -14.53,-19.922 -4.65,-11.18 -3.45,-27.957 12.16,-27.957 1.68,0 5.03,1.117 9.22,3.117 7.5,3.59 15.18,14.563 18.99,23.731 1.68,4.031 3.3,11.41 1.69,16.769 -1.96,6.27 -6.24,9.86 -13.19,9.86 -4.34,0 -11.06,-2.918 -14.34,-5.598 z m -14.91,-128.879 c 12.02,5.816 19.17,14.328 21.87,20.809 1.21,2.91 2.85,8.05 1.46,11.64 -1.19,2.91 -4.54,5.821 -9.84,6.938 -6.02,1.109 -13.7,1.109 -23.79,1.109 -7.69,0 -12.09,-1.34 -13.9,-2.226 -9.73,-4.93 -16.3,-13.211 -18.45,-18.352 -2.96,-7.16 -2.03,-12.98 1.35,-17.012 4.53,-4.687 11.76,-6.929 20.65,-6.929 9.36,0 17.45,2.691 20.65,4.023 z m 53.18,137.156 c 2.46,-0.449 4.58,-1.117 6.17,-1.347 5.09,-0.442 22.53,-0.672 27.11,-1.782 1.34,-0.23 1.51,-1.57 1.13,-2.468 -1.3,-3.129 -6.33,-7.161 -7.29,-7.161 -1.44,0 -10.08,0 -15.9,0.45 -0.97,0 -2.15,-1.121 -2.19,-1.782 -0.2,-3.367 -1.14,-7.386 -2.73,-11.187 -5.11,-12.32 -13.01,-21.492 -25.17,-28.191 -13.73,-7.61 -23.95,-8.5 -29.71,-8.5 -1.44,0 -6.64,0.218 -8.32,0.218 -1.35,0.223 -2.55,0.223 -3.69,-0.218 -2.87,-1.122 -10.11,-5.821 -10.86,-7.622 -2.41,-5.808 3.12,-9.839 5.66,-10.066 10.39,-0.441 36.23,-0.672 43.46,-1.781 1.83,-0.231 6.27,-2.242 9.29,-5.371 4.49,-5.379 4.31,-13.879 1.9,-19.692 -6.98,-16.789 -23.96,-28.199 -36.89,-34.457 -16.56,-8.051 -29.95,-9.621 -38.6,-9.621 -8.64,0 -19.37,1.34 -26.57,8.281 -4.69,4.918 -5.56,13.2 -2.96,19.469 4.08,9.828 10.01,12.52 12.83,14.09 7.95,4.699 17.45,9.621 21.6,12.078 0.66,0.442 0.46,1.121 -0.08,1.563 -1.3,0.898 -5.31,2.25 -7.5,4.488 -3.51,3.121 -4.26,9.391 -1.28,16.551 0.18,0.441 1.37,1.558 2.03,2.011 4.72,2.688 17.29,8.059 22.61,11.629 0.67,0.45 0.32,1.352 -0.12,2.02 -5.24,3.59 -13.23,12.082 -6.43,28.422 4.55,10.957 13.18,19.019 25.25,25.508 8.67,4.699 18.1,7.16 27.47,7.16 9.6,0 13.46,-1.129 19.78,-2.692" /><path
         id="path80"
         style="fill:#2151a8;fill-opacity:1;fill-rule:nonzero;stroke:none"
         d="m 3018.31,534.93 c -0.95,-1.121 -0.55,-2.461 -0.07,-2.461 6.15,-0.219 18.89,-0.219 30.99,0 5.76,0 8.63,1.113 10.5,5.601 2.59,6.258 -1.63,13.41 -10.28,13.41 -10.81,0 -22.54,-6.261 -31.14,-16.55 z m 56.21,13.879 c 3.33,-4.7 3.85,-10.969 0.59,-18.797 -0.56,-1.352 -3.51,-3.813 -6.15,-3.813 -2.64,0 -43.72,0 -54.66,0.231 -0.73,0 -2.15,-1.129 -2.67,-1.789 -1.47,-1.801 -3.52,-5.602 -4.46,-7.832 -3.63,-8.719 -4.06,-19.028 -1.47,-25.508 2.48,-6.711 10.26,-12.313 21.78,-12.313 10.57,0 18.79,2.461 25.2,8.063 1.52,1.34 3.29,2.687 4.24,2.687 1.45,0 1.27,-1.578 0.81,-2.687 -0.74,-1.789 -2.73,-4.25 -3.91,-5.371 -13.16,-11.418 -28.12,-16.782 -41.81,-16.782 -25.94,0 -35.6,18.34 -24.72,44.524 7.45,17.898 24.98,35.797 47.06,43.859 7.35,2.688 15.84,4.02 19.92,4.02 8.41,0 16.57,-2.91 20.25,-8.492" /></g></g></svg>