<?xml version="1.0" encoding="utf-8"?>
<!-- Generator: Adobe Illustrator 22.1.0, SVG Export Plug-In . SVG Version: 6.00 Build 0)  -->
<svg version="1.1" id="Layer_1" xmlns="http://www.w3.org/2000/svg" xmlns:xlink="http://www.w3.org/1999/xlink" x="0px" y="0px"
	 width="300.2px" height="108.82px" viewBox="0 0 300.2 108.82" enable-background="new 0 0 300.2 108.82" xml:space="preserve">
<path fill="#808285" d="M1.06,83.06c0-14.83,0-17.02-0.66-17.35v-0.27h3.24h3.3v0.27c-0.71,0.33-0.71,2.52-0.71,17.35v6.79
	c0,4.6,0.66,7.66,2.25,9.96c1.81,2.74,5.33,4.21,8.79,4.21c3.68,0,6.81-1.15,8.9-3.83c1.81-2.35,2.58-5.8,2.58-10.72v-6.4
	c0-14.78,0-17.02-0.71-17.35v-0.27h3.19h3.18v0.27c-0.66,0.33-0.66,2.57-0.66,17.35v6.56c0,6.02-1.1,10.13-3.57,13.3
	c-2.53,3.45-7.2,5.86-12.97,5.86c-5.82,0-10.61-2.25-13.3-6.46c-2.03-2.96-2.86-6.4-2.86-12.21V83.06z M75.84,83.06
	c0-14.78,0-17.02,0.61-17.35v-0.27h-2.97H70.4v0.27c0.71,0.33,0.71,2.57,0.71,17.07v14.56H71c-2.31-2.96-4.06-4.98-6.32-7.61
	c-3.85-4.43-10.22-11.87-21.32-24.84h-0.66v24.57c0,15.82,0,18.06-0.72,18.39v0.27h2.97h3.18v-0.27c-0.71-0.32-0.71-2.57-0.71-18.06
	c0-9.25,0-11.38-0.06-13.46h0.11c2.69,3.44,4.34,5.3,6.81,8.15c3.84,4.43,10.11,11.71,20.88,24.19h0.66V83.06z M90.46,83.06
	c0-14.83,0.06-16.91,0.72-17.29v-0.33h-3.3h-3.24v0.38c0.71,0.33,0.71,2.4,0.71,17.24v6.4c0,15.87,0,17.9-0.71,18.34v0.33h3.3h3.3
	v-0.27c-0.77-0.49-0.77-2.57-0.77-18.39V83.06z M125.07,83.06c6.26-14.83,7.14-17.02,7.8-17.35v-0.27h-3.02h-3.63v0.27
	c0.66,0.33-0.27,2.57-5.66,15.82c-3.3,8.05-4.51,11.28-6.38,16.47h-0.11c-1.87-5.25-3.19-8.59-6.37-16.47
	c-5.49-13.3-6.37-15.54-5.66-15.82v-0.27h-3.63h-3.4v0.27c0.66,0.33,1.59,2.52,7.86,17.35l10.77,25.67h0.6L125.07,83.06z
	 M137.43,89.47c0,15.87,0,18.06-0.66,18.39v0.27h10.71h10.16c0-1.75,0.06-3.67,0.06-5.2h-0.27c-0.38,0.65-1.81,0.71-4.07,0.71
	h-10.44c-0.33-0.11-0.38-0.22-0.38-0.66V88.54h8.52c3.13,0,4.23,0,4.61,0.49h0.22v-2.74v-2.57h-0.22c-0.38,0.39-1.49,0.44-4.72,0.44
	h-8.41V69.82h8.57c3.24,0,5.27,0.17,5.66,0.82h0.27c0-1.69,0.05-3.44,0.05-5.2h-10.33h-9.94v0.27c0.6,0.33,0.6,2.57,0.6,17.35V89.47
	z M181.44,77.43c0,4.21-2.36,6.46-4.62,7.55c-1.37,0.71-3.19,1.1-4.94,1.1c-0.72,0-1.38,0-1.76-0.06v-16.2
	c0.44-0.05,1.54-0.11,2.47-0.11c5.27,0,8.85,2.79,8.85,7.67V77.43z M165.18,89.47c0,15.87,0,18.06-0.66,18.39v0.27h3.19h3.07v-0.27
	c-0.65-0.33-0.65-2.51-0.65-16.15v-1.64h2.14c5.94,7.99,9.78,13.3,13.08,17.84c0.44,0.16,0.93,0.22,1.37,0.22h2.26h3.13v-0.27
	c-0.61-0.33-2.41-2.51-3.79-4.21c-9.45-12.42-10.28-13.52-10.88-14.34v-0.11c1.16-0.32,2.59-1.04,3.68-1.8
	c2.26-1.42,5.55-4.54,5.55-10.29c0-6.73-4.51-9.74-7.2-10.68c-2.36-0.87-5-1.15-7.75-1.15c-1.04,0-2.91,0.11-4.17,0.16
	c-1.2,0-2.19,0.06-3.02,0.11v0.27c0.66,0.22,0.66,2.41,0.66,17.24V89.47z M213.31,97.4c0-4.87-2.36-7.77-5.77-10.78
	c-2.3-2.02-4.12-3.28-5.71-4.92c-1.59-1.64-2.47-3.29-2.47-5.58c0-3.94,3.29-6.41,7.64-6.41c0.88,0,1.87,0.11,2.64,0.33
	c0.66,0.22,1.37,0.6,1.81,1.15h0.28c0.06-2.24,0.11-3.56,0.22-5.36c-1.27-0.38-3.19-0.66-5.28-0.66c-8.08,0-12.64,5.31-12.64,11.17
	c0,4.16,1.7,6.84,5.05,9.95c1.76,1.64,3.35,2.8,5.17,4.38c2.59,2.19,3.62,4.21,3.62,6.73c0,4.27-3.62,6.79-7.74,6.79
	c-1.7,0-3.3-0.28-4.4-0.66c-0.82-0.38-1.48-0.82-1.92-1.42h-0.27c-0.11,2.19-0.11,3.17-0.28,5.47c1.65,0.65,4.51,1.15,6.87,1.15
	c8.68,0,13.18-5.64,13.18-11.27V97.4z M225.78,83.06c0-14.83,0.06-16.91,0.71-17.29v-0.33h-3.29h-3.24v0.38
	c0.72,0.33,0.72,2.4,0.72,17.24v6.4c0,15.87,0,17.9-0.72,18.34v0.33h3.29h3.3v-0.27c-0.77-0.49-0.77-2.57-0.77-18.39V83.06z
	 M244.19,89.46c0,15.87,0,18-0.72,18.34v0.33h3.35h3.24v-0.28c-0.71-0.22-0.71-2.51-0.71-18.39V69.82h8.79
	c1.92,0,3.13,0.16,3.79,0.82h0.39v-5.2h-13.4h-4.45h-13.24v5.2h0.44c0.61-0.66,1.6-0.82,3.68-0.82h8.85V89.46z M287.48,84.27
	c8.79-16.31,9.61-18.17,10.16-18.55v-0.27h-3.02H291v0.27c0.66,0.27-0.44,2.63-4.72,11c-1.98,3.67-3.68,6.9-4.84,9.47h-0.16
	c-1.26-2.52-3.02-5.91-4.89-9.53c-4.4-8.37-5.49-10.62-4.84-10.94v-0.27h-3.57h-3.46v0.27c0.65,0.38,1.54,2.3,10.27,18.39l3.85,7.22
	v0.93c0,12.75,0,15.21-0.71,15.54v0.33h3.35h3.24v-0.28c-0.72-0.38-0.72-2.84-0.72-15.65v-1.14L287.48,84.27z"/>
<path fill="#C2011B" d="M20.62,15.37c0-5.91-4.33-9.3-10.73-9.3c-1.13,0-2.46,0.07-3,0.13v19.65c0.47,0.07,1.26,0.07,2.13,0.07
	c2.13,0,4.33-0.46,6-1.33c2.73-1.33,5.6-4.05,5.6-9.16V15.37z M0.9,22.27c0-17.99,0-20.64-0.8-20.91V1.03c1-0.07,2.2-0.13,3.66-0.13
	c1.53-0.07,3.8-0.2,5.06-0.2c3.33,0,6.53,0.33,9.4,1.39c3.27,1.13,8.73,4.78,8.73,12.94c0,6.97-4,10.75-6.73,12.48
	c-1.33,0.93-3.06,1.79-4.46,2.19v0.13c0.74,1,1.73,2.32,13.2,17.39c1.67,2.06,3.86,4.71,4.6,5.11v0.33h-3.8h-2.73
	c-0.53,0-1.13-0.07-1.66-0.26c-4-5.51-8.66-11.95-15.86-21.64H6.9v1.99c0,16.53,0,19.18,0.8,19.58v0.33H3.97H0.1v-0.33
	c0.8-0.4,0.8-3.05,0.8-22.3V22.27z M64.8,32.96l-0.07-0.27c-5.73-15-6.6-17.32-7.26-19.58h-0.13c-0.73,2.26-1.67,4.58-7.6,19.58
	l-0.07,0.27H64.8z M47.68,38.07c-4.6,11.22-5.73,13.87-5,14.27v0.33h-3.8h-4.06v-0.33c0.73-0.34,2-3.05,10.06-22.44l12.4-29.87h0.87
	L70.2,29.97c7.8,19.32,8.86,21.97,9.59,22.37v0.33h-3.93h-4.33v-0.33c0.73-0.4-0.33-3.05-4.8-14.27H47.68z M118.12,25.92
	c0-6.77-2.93-12.48-7.8-16.06c-3.2-2.32-8.06-3.65-13.26-3.65c-1.8,0-3.67,0.07-5.2,0.2v40.23c0,0.33,0.13,0.39,0.34,0.39
	c1.26,0.2,3.26,0.27,4.86,0.27c5.46,0,10.59-1.66,14.06-4.71c4.2-3.65,7-9.09,7-16.59V25.92z M124.64,25.79
	c0,9.49-3.6,16.46-9.53,21.24c-4.87,4.05-11.2,5.84-18.79,5.84c-2.07,0-4.87-0.07-6.73-0.13c-1.67-0.07-3.33-0.13-4.8-0.2v-0.4
	c0.87-0.47,0.87-2.92,0.87-22.11v-7.77c0-17.99,0-20.38-0.87-20.78V1.03c1.4-0.07,3.27-0.2,5.4-0.26c2.13-0.07,4.2-0.13,6.6-0.13
	c6.87,0,12.59,1.46,17.2,4.32c6.79,4.25,10.66,12.21,10.66,20.78V25.79z M139.3,24.46h10.2c3.86,0,5,0,5.53-0.53h0.46
	c-0.07,1.33-0.07,2.26-0.07,3.25c0,1.13,0,1.73,0.07,3.19h-0.46c-0.54-0.6-1.6-0.6-5.4-0.6H139.3v2.06c0,17.39,0,19.72,0.87,20.44
	v0.4h-3.87h-4v-0.47c0.8-0.6,0.8-2.92,0.8-22.17v-7.76c0-17.92,0-20.11-0.73-20.71V0.9h12.13h12.46c0,2.72-0.07,4.18-0.07,6.31
	h-0.53c-0.4-0.8-2.67-1-6.6-1H139.3V24.46z M209.14,26.72c0-11.82-8.53-20.91-19.99-20.91c-11.26,0-19.86,9.16-19.86,21.04
	c0,11.55,8.6,20.97,19.99,20.97c11.53,0,19.86-9.22,19.86-21.04V26.72z M215.73,26.52c0,14.87-11.13,26.95-26.78,26.95
	c-14.79,0-26.32-11.82-26.32-26.35c0-15.34,11.66-26.88,27.26-26.88c14.92,0,25.85,11.35,25.85,26.22V26.52z M243.32,15.37
	c0-5.91-4.33-9.3-10.72-9.3c-1.13,0-2.47,0.07-3,0.13v19.65c0.47,0.07,1.27,0.07,2.14,0.07c2.13,0,4.33-0.46,6-1.33
	c2.73-1.33,5.59-4.05,5.59-9.16V15.37z M223.6,22.27c0-17.99,0-20.64-0.8-20.91V1.03c1-0.07,2.2-0.13,3.66-0.13
	c1.53-0.07,3.8-0.2,5.07-0.2c3.33,0,6.53,0.33,9.4,1.39c3.27,1.13,8.73,4.78,8.73,12.94c0,6.97-4,10.75-6.73,12.48
	c-1.34,0.93-3.06,1.79-4.47,2.19v0.13c0.74,1,1.73,2.32,13.2,17.39c1.66,2.06,3.87,4.71,4.6,5.11v0.33h-3.8h-2.73
	c-0.53,0-1.13-0.07-1.67-0.26c-4-5.51-8.66-11.95-15.86-21.64h-2.6v1.99c0,16.53,0,19.18,0.8,19.58v0.33h-3.73h-3.87v-0.33
	c0.8-0.4,0.8-3.05,0.8-22.3V22.27z M293.56,25.92c0-6.77-2.93-12.48-7.79-16.06c-3.2-2.32-8.06-3.65-13.26-3.65
	c-1.8,0-3.66,0.07-5.2,0.2v40.23c0,0.33,0.13,0.39,0.33,0.39c1.27,0.2,3.27,0.27,4.86,0.27c5.46,0,10.6-1.66,14.06-4.71
	c4.2-3.65,6.99-9.09,6.99-16.59V25.92z M300.1,25.79c0,9.49-3.6,16.46-9.53,21.24c-4.86,4.05-11.19,5.84-18.79,5.84
	c-2.07,0-4.87-0.07-6.73-0.13c-1.67-0.07-3.33-0.13-4.8-0.2v-0.4c0.87-0.47,0.87-2.92,0.87-22.11v-7.77c0-17.99,0-20.38-0.87-20.78
	V1.03c1.4-0.07,3.26-0.2,5.4-0.26c2.13-0.07,4.2-0.13,6.6-0.13c6.86,0,12.59,1.46,17.19,4.32c6.8,4.25,10.66,12.21,10.66,20.78
	V25.79z"/>
</svg>
