<?xml version="1.0" encoding="UTF-8" standalone="no"?>
<!-- Created with Inkscape (http://www.inkscape.org/) -->

<svg
   xmlns:dc="http://purl.org/dc/elements/1.1/"
   xmlns:cc="http://creativecommons.org/ns#"
   xmlns:rdf="http://www.w3.org/1999/02/22-rdf-syntax-ns#"
   xmlns:svg="http://www.w3.org/2000/svg"
   xmlns="http://www.w3.org/2000/svg"
   version="1.1"
   width="376.0275"
   height="235.927"
   id="svg2"
   xml:space="preserve"><metadata
     id="metadata8"><rdf:RDF><cc:Work
         rdf:about=""><dc:format>image/svg+xml</dc:format><dc:type
           rdf:resource="http://purl.org/dc/dcmitype/StillImage" /><dc:title></dc:title></cc:Work></rdf:RDF></metadata><defs
     id="defs6"><clipPath
       id="clipPath32"><path
         d="m 245.589,280.057 300.821,0 0,188.743 -300.821,0 0,-188.743 z"
         id="path34" /></clipPath></defs><g
     transform="matrix(1.25,0,0,-1.25,-289.79559,520.6749)"
     id="g10"><path
       d="m 233.04297,321.63801 67.228,-33.08799 -12.688,0 -54.54,33.08799 z"
       id="path22"
       style="fill:#d7ddeb;fill-opacity:1;fill-rule:nonzero;stroke:none" /><path
       d="m 520.95737,339.89382 -64.456,-51.34401 -13.141,0 77.597,51.34401 z"
       id="path26"
       style="fill:#d7ddeb;fill-opacity:1;fill-rule:nonzero;stroke:none" /><path
       d="m 507.25047,356.39771 -60.889,-52.366 c 0.014,-3.87299 0.025,-7.348 0.033,-10.101 l 60.856,62.467 z m -193.839,-47.469 -55.244,47.327 55.168,-56.394 c 0.025,2.924 0.051,6.05201 0.076,9.067 m 2.347,15.747 -41.976,46.259 39.71,-52.35799 c 0.024,2.91199 0.04,4.85799 0.04,4.87 0.639,0.43499 1.428,0.83999 2.226,1.22899 m 13.226,4.842 -37.86,54.02101 33.483,-58.043 c 1.445,0.44299 2.882,0.754 4.326,1.16399 l 0.051,2.858 z m 0.322,18.166 0.162,9.13401 -19.56,37.05599 19.398,-46.19 z m 14.069,-17.214 -3.803,7.20401 -0.027,-8.16001 c 1.276,0.3 2.556,0.678 3.83,0.956 m 12.447,2.28501 -16.123,42.841 -0.031,-9.057 9.746,-34.96001 c 2.14,0.41601 4.275,0.81101 6.408,1.17601 m 12.085,1.91199 -17.288,72.44901 10.79,-73.33501 c 2.18,0.33401 4.329,0.59401 6.498,0.88601 m 12.016,1.481 -8.021,73.66599 1.512,-74.46799 c 2.169,0.26199 4.354,0.572 6.509,0.802 m 12.174,1.174 1.258,72.50199 -7.739,-73.072 c 2.18,0.21001 4.319,0.381 6.481,0.57001 m 13.877,9.672 8.672,60.155 -16.325,-69.279 c 1.356,0.11 2.747,0.254 4.095,0.36 0.066,1.465 0,3.76 0,3.76 l -0.782,0.521 c 0,0 -0.026,2.256 -0.125,3.887 1.236,0.204 2.776,0.403 4.465,0.596 m 14.655,1.138 14.808,53.702 -20.162,-54.012 c 1.724,0.118 3.522,0.219 5.354,0.31 m 15.801,0.317 18.967,45.506 -23.871,-45.503 c 1.66,0.017 3.285,0.016 4.904,-0.003 m 9.801,-13.594 27.985,48.787 -28.045,-40.214 c 0.02,-2.258 0.041,-5.171 0.06,-8.573 m 0.106,-23.75 45.253,59.955 -45.292,-50.129 c 0.014,-3.288 0.027,-6.596 0.039,-9.826"
       id="path38"
       style="fill:#d7ddeb;fill-opacity:1;fill-rule:nonzero;stroke:none" /><path
       d="m 532.47537,321.80791 -54.618,-33.25799 -12.698,0 67.316,33.25799 z"
       id="path42"
       style="fill:#d7ddeb;fill-opacity:1;fill-rule:nonzero;stroke:none" /><path
       d="m 313.29007,294.39531 -68.775,45.34401 64.499,-51.18901 4.227,0 c 0.009,1.128 0.027,3.198 0.049,5.845"
       id="path46"
       style="fill:#d7ddeb;fill-opacity:1;fill-rule:nonzero;stroke:none" /><path
       d="m 333.76047,403.59892 c -0.798,-1.419 -1.818,-3.05901 -2.926,-4.255 l 0.754,-8.408 1.108,0.399 1.285,-0.35501 0.931,10.713 -0.798,2.08301 -0.354,-0.177 z m 0.19,12.77099 0.307,0.17001 c 0,0 0.647,-7.72301 2.821,-12.70401 -0.375,-2.93499 -0.959,-11.99799 -0.959,-11.99799 l -1.446,-103.288 c 0,0 3.478,-0.041 4.971,0 -0.069,13.004 0.187,25.232 0,38.355 31.811,6.991 68.338,9.458 106.477,10.12299 0.174,-0.081 0.054,-3.029 0.07,-4.648 -35.942,-0.895 -71.127,-2.548 -101.917,-8.595 0,-11.708 0.167,-23.529 0.167,-35.235 0.511,0.019 2.745,-0.022 3.829,0 l 0,14.369 c 3.26,0.55501 8.445,1.23301 12.76,1.74801 0,-1.145 0.031,-2.46401 0.031,-3.60901 -3.614,-0.398 -9.164,-0.943 -11.04,-1.37199 l -0.014,-11.111 15.833,-0.06 c 0,0 0.102,11.28501 0,16.864 4.535,0.59 10.35,1.19201 15.272,1.46 l 0,-3.931 c -4.13,-0.258 -10.021,-0.95299 -13.614,-1.43 l 0,-12.928 19.771,0.025 c 0,0 -0.101,12.694 -0.263,19 5.796,0.589 12.426,0.993 18.092,1.217 0.028,-0.567 0.028,-4.468 0.028,-4.468 -3.585,-0.055 -12.256,-0.637 -16.289,-1.057 0,-5.076 0.196,-9.617 0.196,-14.693 7.695,0 14.822,-0.024 22.516,-0.024 0.189,7.148 -0.104,13.423 0.015,20.499 5.779,0.405 12.701,0.651 19.157,0.491 l -0.013,-4.584 c -5.038,0 -11.713,-0.069 -17.132,-0.386 l 0,-16.02 119.082,0 0,-2.629 -300.822,0 0,2.629 c 0,0 44.094,-0.042 70.267,-0.042 0,9.332 -0.07,18.576 -0.07,27.908 3.631,1.671 7.596,3.423 11.434,5.082 0,-10.97 -0.031,-32.975 -0.031,-32.975 l 3.088,-10e-4 0.092,9.785 c 0,0 2.736,0.522 2.736,0.53801 l -0.016,9.827 c -1.045,-0.231 -2.581,-0.52 -2.581,-0.52 l 0.246,12.19399 c 0,0 -0.815,0.077 -1.721,0.10801 0.799,0.415 4.185,2.645 6.552,2.376 0.997,21.76299 4.44,61.81899 4.028,66.79499 -0.136,1.639 -0.447,8.634 -0.806,10.06601 6.78,8.35899 8.896,16.67899 8.896,16.67899 m 96.758,-89.551 0,-2.081 c -1.335,-0.057 -12.646,-0.338 -17.132,-0.721 l 0,-7.963 -2.027,-1.591 c 0,0 0.077,7.852 0,11.622 2.027,0.245 14.381,1.157 19.159,0.734 m -25.582,-0.93 c 0,-0.025 -0.011,-1.55 0,-2.359 -3.674,-0.049 -11.163,-0.311 -16.201,-1.004 l 0,-7.892 -1.842,-1.274 0,11.302 c 4.396,0.517 11.916,1.05 18.043,1.227 m -23.983,-1.918 0,-1.883 c -3.776,-0.173 -9.636,-0.862 -13.645,-1.351 l 0,-8.356 -1.658,-1.225 0,11.37 c 3.561,0.49 11.184,1.347 15.303,1.445 m -20.082,-3.861 c -2.131,-0.172 -9.069,-1.248 -11.04,-1.689 l -0.001,-8.465 -1.75,-1.371 0,11.444 c 3.184,0.612 9.2,1.673 12.791,1.866 l 0,-1.785 z m 44.065,21.865 c 20.993,1.936 34.222,2.146 41.085,2.029 -0.017,0.042 0.058,-4.07 0.058,-4.07 -7.509,-0.029 -29.098,-0.382 -41.143,-1.529 l 0,3.57 z"
       id="path50"
       style="fill:#004780;fill-opacity:1;fill-rule:nonzero;stroke:none" /><path
       d="m 466.50637,287.52631 -2.245,0 -31.737,0 c -0.036,0.12 -0.044,0.26601 0.003,0.47 0.791,-0.054 1.039,0.43501 1.966,0.244 -0.095,0.645 -0.788,0.68901 -0.492,1.722 -0.646,0.073 -0.806,-0.34299 -0.736,-0.98399 -1.059,0.32999 -1.956,1.005 -3.194,1.718 1.001,0.762 0.149,1.938 -0.491,2.457 0.105,0.259 1.85,0.92899 2.457,0 0.547,0.036 -0.319,0.619 0,1.228 1.255,-0.529 2.701,-0.80901 2.946,-1.72 0.329,0.31099 0.483,0.73899 0.983,0.246 0.045,0.53499 -0.201,0.78099 -0.737,0.73699 0.049,0.31201 0.714,1.20401 0.246,1.227 0.393,0.69001 0.918,-0.53 1.474,-0.49 -0.108,1.667 -1.497,0.59301 -1.72,2.21 -1.824,-0.187 -1.88,1.39401 -3.438,1.474 -0.098,1.129 -0.864,1.591 -0.737,2.947 0.806,-0.433 2.206,-0.978 3.439,-0.982 1.038,1.339 -1.055,1.661 -0.246,2.947 -0.558,0.272 -2.45,0.48 -2.456,0.491 -0.744,0.3 0.174,0.937 0.246,1.226 -0.62,0.401 -0.871,0.84 -1.228,1.965 0.89,0.674 1.669,-0.529 2.701,0 -0.993,1.056 -2.029,2.066 -2.701,3.441 1.853,1.165 3.568,-1.404 5.403,-1.231 0.249,-0.32 0.24,-0.904 0.491,-1.226 l 1.227,0 c -0.229,0.641 0.958,0.671 0.984,1.718 -0.301,0.848 -0.812,1.482 -1.474,1.965 0.061,0.269 0.488,0.168 0.49,0.491 0.216,0.79 -0.809,0.336 -0.737,0.983 -0.588,0.097 0.138,-1.117 -0.736,-0.737 l 0,0.983 c -0.518,-0.219 -0.725,-0.748 -1.474,-0.736 -0.489,0.41 -0.816,0.982 -0.982,1.718 -0.42,0.01 -0.635,-0.181 -0.736,-0.492 -0.846,0.758 -0.572,1.188 -0.738,2.702 0.913,-0.719 2.031,0.12 2.702,-0.982 1.478,0.77 2.802,-0.372 4.42,0.491 -0.209,0.722 -0.618,-0.319 -1.227,0 0.871,0.495 0.242,2.187 0.981,1.719 -0.489,1.784 -1.551,1.581 -2.946,0.737 0.024,1.478 -1.052,2.637 -2.456,2.21 1.423,1.821 -0.118,2.94 -0.736,4.666 2.005,-0.473 2.313,-1.426 4.175,-1.72 -0.1,1.249 -1.604,1.713 -0.983,2.949 0.511,-0.145 0.794,-0.516 1.228,-0.738 0.147,0.637 -0.098,0.884 -0.736,0.738 0.072,0.5 0.663,0.481 0.736,0.98 -1.792,0.418 -1.91,2.511 -2.456,4.175 2.432,0.708 3.621,-3.863 6.386,-1.964 -0.883,-0.151 -2.066,1.872 -2.212,2.456 0.654,0.842 2.033,1.423 2.463,0.648 1.04,0.074 0.08,0.385 0.731,0.58 -0.729,0.253 -1.404,0.562 -1.473,1.474 -0.824,-0.877 -1.46,0.658 -2.21,0.736 -0.301,-0.782 -0.927,0.165 -0.984,-0.981 -0.218,0.19 -0.553,0.263 -0.981,0.245 0.316,0.578 -0.033,0.456 0.244,1.227 -0.869,-0.215 -0.603,-0.03 -1.473,-0.244 0.335,0.565 0.431,1.37 1.473,1.229 0.07,1.73 -1.561,2.138 -1.473,3.19 0.045,1.071 1.167,-0.292 0.983,0.738 1.908,-1.165 3.404,-2.009 4.912,-3.928 0.577,0.437 -0.713,1.072 -0.246,2.21 -0.222,0.825 -0.55,0.027 -0.982,0.49 -0.046,0.925 -0.442,1.118 -0.492,1.474 0.18,0.436 0.448,0.036 0.737,0 -0.178,0.539 -1.153,0.815 -0.491,1.474 0.73,-0.553 1.55,-1.164 2.21,-0.493 0.032,-0.44 -0.3,-0.518 -0.246,-0.981 0.23,0.181 0.372,0.445 0.492,0.735 -0.372,0.613 -0.841,1.123 -1.719,1.229 -0.537,1.619 -3.273,3.69 -2.456,6.14 1.035,-0.653 1.766,-2.468 3.193,-1.964 -0.148,-2.005 1.743,-0.532 2.209,-1.72 0.045,1.846 -2.622,2.471 -2.209,3.192 -0.286,0.04 -0.437,-0.054 -0.491,-0.246 -0.261,1.088 -1.529,1.693 -1.475,4.176 0.671,0 1.084,-1.513 1.72,-0.736 0.894,-0.333 0.307,-2.15 1.965,-1.721 -0.615,0.334 -1.673,1.096 -0.983,1.965 -0.605,-0.032 -1.183,-0.035 -1.473,0.246 0.274,0.773 0.021,0.555 0,1.474 0.218,-0.15 0.438,-0.296 0.491,0 0.379,-0.276 0.604,-0.706 0.982,-0.983 0.366,0.208 0.356,0.791 0.492,1.228 -0.636,0.265 -0.574,1.228 -1.719,0.983 0.514,0.6 0.35,0.523 0.245,1.474 1.039,-0.108 1.389,-0.905 2.21,-1.227 0.219,0.107 0.439,0.214 0.49,0.489 -1.083,0.036 -0.252,2.259 -1.472,1.474 0.062,1.223 0.102,1.044 0.246,1.965 1.235,0.334 0.81,-0.988 1.226,-1.474 1.514,0.315 1.028,2.557 -0.245,3.193 0.106,0.385 0.774,0.209 0.491,0.982 0.252,-0.24 0.498,-0.485 0.738,-0.736 0.198,0.046 0.244,0.245 0.491,0.245 -0.737,1.245 -0.456,2.113 -0.982,3.684 1.061,-0.811 2.066,-0.206 2.456,-0.738 0.504,0.364 -0.836,0.95 -0.739,1.72 1.179,0.047 -0.421,0.427 0,1.228 0.489,-0.004 0.314,-0.67 0.985,-0.491 -0.014,0.805 -0.7,0.939 -0.492,1.964 0.582,0.238 1.206,0.432 0.982,1.474 0.209,0.045 0.23,-0.096 0.245,-0.246 l 0.492,0 c -1.023,-0.592 0.786,-1.804 0.982,-0.982 1.078,-0.682 -0.128,-1.347 -0.491,-1.965 0.419,-0.011 0.636,0.182 0.737,0.492 0.699,-0.403 -0.118,-1.333 -0.246,-1.72 -0.074,-0.656 0.953,0.653 0.737,-0.491 0.364,0.208 0.527,0.619 0.491,1.228 0.51,-0.145 0.838,-0.472 0.983,-0.981 -0.382,-0.669 -0.994,-2.077 -0.246,-1.965 0.519,-0.362 -0.258,-0.52 -0.737,-0.245 -0.51,-0.064 -0.067,-1.08 -0.491,-1.229 0.615,-0.325 0.596,1.144 0.981,0.245 0.525,0.378 0.71,1.091 0.984,1.719 0.827,0.091 0.441,-1.032 1.226,-0.982 -1.181,-1.204 -0.766,-2.972 -0.981,-4.175 -0.25,0.16 -0.254,0.566 -0.736,0.492 -0.484,-0.112 0.218,-1.063 0.491,-1.229 0.231,0.423 0.908,0.402 0.737,1.229 0.436,-0.46 0.623,0.199 1.473,0 -0.175,-1.098 -0.028,-1.968 -0.737,-2.947 0.208,-0.366 0.791,-0.357 1.228,-0.493 -1.343,-0.794 -1.359,-0.891 -2.701,-1.473 0.401,-0.398 -0.22,-1.027 0,-1.964 0.332,0.313 0.491,0.747 0.737,0 0.629,0.024 0.394,0.915 0.736,1.228 0.876,-0.623 0.722,-0.289 1.228,0.49 1.264,-0.347 0.16,-1.583 0.736,-2.454 0.452,0.981 1.27,-0.268 1.229,-1.228 -0.541,-0.197 -0.981,-0.495 -0.983,-1.229 -0.67,-0.179 -0.495,0.488 -0.982,0.49 -0.306,-0.085 0.298,-1.511 -0.982,-1.227 l 0,-1.472 1.718,0 c 0.236,-0.458 -0.735,-0.822 0,-0.984 -0.54,-1.015 -2.51,-0.599 -2.454,-2.21 0.207,-0.365 0.789,-0.355 1.227,-0.49 0.316,0.42 0.806,0.665 1.473,0.735 0.193,1.054 -0.036,1.002 0.246,1.965 0.299,-0.815 1.723,0.021 1.473,1.228 0.436,0.056 1.231,-0.246 0.983,0.491 0.935,-1.257 0.489,-3.66 -0.983,-3.929 -0.105,-0.406 0.917,0.022 0.983,0.245 0.405,-0.034 -0.257,-1.024 0,-1.717 -0.885,-0.557 -1.352,-0.577 -0.983,-1.966 -1.237,0.339 -1.298,-0.504 -2.21,-0.492 0.632,-0.521 0.593,-1.252 -0.245,-1.473 0.432,-0.878 1.629,1.415 2.455,0 0.401,1.142 0.405,0.007 0.983,0.493 0.786,-1.82 -1.162,-3.042 -0.492,-5.405 -0.464,0.029 -0.17,0.811 -0.735,0.738 -0.13,-1.276 1.055,-1.238 1.718,-1.719 0.79,0.847 2.035,1.24 1.965,2.947 0.901,0.116 1.472,0.033 2.456,0.49 -0.311,-1.218 -0.144,-2.27 -0.984,-2.456 0.109,-0.364 0.316,0.098 0.738,0 -0.385,-1.873 -1.443,-1.561 -1.964,-3.192 0.223,-0.667 0.456,0.654 1.226,0.246 -0.039,-0.286 0.056,-0.438 0.246,-0.492 0.047,-0.693 -0.966,-0.615 0,-0.983 0.042,-0.532 -0.871,-0.11 -1.227,-0.246 0.299,-0.517 0.948,-0.687 1.474,-0.981 0.056,-0.648 -0.999,-1.433 -0.493,-1.718 -0.418,-0.431 -1.558,0.773 -2.454,0 0.202,0.693 -0.347,0.635 -0.246,1.226 -0.226,-1.082 -1.448,-1.171 -1.966,-1.964 0.209,0.046 0.233,-0.095 0.246,-0.246 0.409,0.563 1.417,0.487 1.966,0 -0.192,-1.043 -1.833,-1.923 -1.228,-2.945 -0.138,-0.713 -0.383,0.375 -0.738,0.245 -0.121,-0.772 0.847,-0.649 0.247,-1.229 1.172,0.444 1.379,-0.062 1.964,-0.736 0.332,0.076 0.203,0.614 0.245,0.982 1.076,-0.234 2.364,-0.255 3.439,-0.492 0.201,-1.663 -2.09,-1.833 -1.719,-3.437 -0.436,-0.057 -1.23,0.247 -0.982,-0.491 -0.288,0.04 -0.208,0.446 -0.246,0.736 -0.671,0.022 -0.495,-0.409 -0.982,0 -0.525,-0.294 -0.305,-1.333 -1.474,-0.982 -0.163,-1.146 0.386,-1.578 0.491,-2.456 0.364,0.346 0.528,0.785 0.491,-0.245 0.769,0.048 0.829,0.807 1.72,0.736 -0.228,-1.49 0.829,-0.422 0.982,-1.72 1.689,1.028 2.484,0.112 4.666,0 0.052,-0.419 -0.419,-0.635 0,-0.734 -0.964,-0.296 -1.106,-0.867 -0.737,-1.965 -0.494,0.082 -2.503,0.874 -2.21,-0.491 -0.711,0.369 -1.119,-0.361 -1.229,0.734 -0.101,-0.616 -1.893,-0.799 -1.964,0 -1.114,-0.304 0.424,-0.713 -0.246,-1.227 -0.321,0.086 -0.385,0.432 -0.736,0.493 0.282,-0.865 1.309,-0.985 2.21,-1.231 -0.815,0.738 -0.141,0.275 0.736,0.246 -0.177,-0.751 0.424,-0.721 0.247,-1.472 -0.435,-0.215 -0.718,-0.78 -1.229,-0.246 0.195,-0.544 0.234,-0.998 0.246,-2.211 1.013,-0.496 2.421,-1.174 2.946,0.493 0.74,-0.71 0.859,0.585 1.966,0.246 -0.138,-2.965 -1.447,-3.275 -2.701,-5.159 -0.332,0.242 -0.491,0.656 -0.737,0.983 -0.224,-0.067 -0.653,-1.088 -0.246,-0.983 -0.286,-0.658 -0.642,0.639 -0.982,0.738 -0.334,-0.076 -0.204,-0.616 -0.246,-0.985 -0.463,0.029 -0.171,0.814 -0.736,0.739 -0.883,-0.7 -0.377,-1.556 -0.983,-2.211 0.805,0.716 1.653,-0.14 1.965,0.983 0.506,-0.576 1.244,0.484 1.228,-0.738 -0.627,0.65 -0.488,-0.335 -0.491,-0.981 0.227,0.845 0.933,0.86 1.228,0 0.248,0.489 0.912,0.56 1.228,0.981 0.275,-0.13 -0.19,-1.183 0.245,-1.718 -0.909,0.171 -1.085,-0.389 -0.983,-1.229 -0.965,0.773 -1.049,-0.207 -1.965,0.246 -0.432,-0.217 -0.405,-1.09 -0.982,-0.489 0.434,-0.521 0.554,-0.729 0.246,-1.476 0.203,-0.464 0.86,0.743 1.228,-0.245 0.543,0.193 0.615,0.858 0.983,1.228 0.995,-0.265 1.444,0.018 2.701,-0.246 -0.306,-0.283 -0.458,-0.374 -0.564,-0.504 -0.137,-0.169 -0.197,-0.402 -0.419,-1.215 -0.879,0.44 -0.746,-0.022 -0.737,-0.983 -0.322,0.088 -0.386,0.435 -0.735,0.492 -0.365,-0.107 0.096,-0.313 0,-0.738 0.857,0.126 1.853,0.112 2.455,0.492 0.742,-0.601 -0.186,-1.598 0,-2.456 -0.864,0.35 -1.057,-1.204 -1.473,-0.489 -0.23,-0.181 -0.373,-0.448 -0.493,-0.738 0.321,-0.677 1.328,-0.492 1.966,-0.246 -0.131,-0.549 -0.185,-0.773 -0.404,-1.452"
       id="path54"
       style="fill:#004780;fill-opacity:1;fill-rule:nonzero;stroke:none" /><path
       d="m 325.66037,230.75501 -93.822,0 0,-1.106 93.822,0 0,1.106 z m 206.995,0 -93.821,0 0,-1.106 93.821,0 0,1.106 z"
       id="path56"
       style="fill:#004780;fill-opacity:1;fill-rule:nonzero;stroke:none" /><path
       d="m 422.84637,240.50731 c -0.976,0 -1.713,-0.294 -2.376,-0.848 -0.571,-0.46 -1.123,-1.216 -1.105,-1.492 0,-0.166 0.036,-0.275 0.184,-0.275 0.111,0 0.221,0.091 0.424,0.331 0.534,0.644 1.197,0.958 1.933,0.958 0.94,0 1.769,-0.81099 1.769,-1.879 0,-0.903 -0.46,-1.64 -1.639,-2.156 -0.277,-0.128 -0.737,-0.385 -0.885,-0.497 -0.128,-0.11 -0.313,-0.239 -0.386,-0.478 -0.019,-0.11 0.054,-0.239 0.147,-0.222 0.332,0.112 1.031,0.258 1.418,0.258 0.608,0 1.124,-0.129 1.584,-0.626 0.461,-0.498 0.645,-1.325 0.645,-2.008 0,-0.73599 -0.331,-1.84199 -1.087,-2.39299 -0.386,-0.295 -0.792,-0.407 -1.178,-0.407 -0.683,0 -1.309,0.278 -1.898,0.775 -0.11,0.092 -0.442,0.27499 -0.515,0.27499 -0.166,0 -0.461,-0.18299 -0.646,-0.44099 -0.036,-0.093 -0.146,-0.368 -0.146,-0.48 0,-0.551 0.938,-0.97501 1.86,-0.97501 0.884,0 2.08,0.275 3.038,0.829 1.584,0.921 2.653,2.339 2.653,3.96 0,0.736 -0.24,1.325 -0.515,1.694 -0.479,0.608 -1.271,1.068 -2.339,1.252 -0.094,0.037 -0.111,0.111 -0.056,0.14801 0.626,0.369 0.883,0.571 1.197,0.84699 0.258,0.258 0.664,0.792 0.664,1.58401 0,0.93999 -0.921,2.266 -2.745,2.266 m -10.996,0 c -0.976,0 -1.713,-0.294 -2.376,-0.848 -0.572,-0.46 -1.123,-1.21601 -1.105,-1.49201 0,-0.166 0.036,-0.27499 0.184,-0.27499 0.111,0 0.221,0.091 0.424,0.331 0.534,0.644 1.197,0.958 1.934,0.958 0.939,0 1.768,-0.811 1.768,-1.879 0,-0.903 -0.46,-1.64 -1.639,-2.156 -0.277,-0.128 -0.737,-0.385 -0.885,-0.497 -0.129,-0.11 -0.313,-0.239 -0.386,-0.478 -0.019,-0.11001 0.055,-0.239 0.147,-0.222 0.332,0.112 1.031,0.258 1.418,0.258 0.607,0 1.124,-0.12901 1.584,-0.626 0.461,-0.498 0.645,-1.325 0.645,-2.008 0,-0.736 -0.331,-1.842 -1.087,-2.393 -0.386,-0.295 -0.792,-0.407 -1.178,-0.407 -0.682,0 -1.308,0.278 -1.899,0.775 -0.109,0.092 -0.441,0.275 -0.514,0.275 -0.166,0 -0.461,-0.183 -0.645,-0.441 -0.037,-0.093 -0.147,-0.368 -0.147,-0.48 0,-0.551 0.938,-0.975 1.86,-0.975 0.884,0 2.081,0.275 3.039,0.829 1.584,0.921 2.652,2.339 2.652,3.96 0,0.736 -0.24,1.325 -0.515,1.694 -0.48,0.608 -1.272,1.068 -2.34,1.252 -0.093,0.037 -0.11,0.111 -0.056,0.148 0.626,0.369 0.885,0.571 1.198,0.847 0.258,0.258 0.664,0.792 0.664,1.584 0,0.94 -0.921,2.266 -2.745,2.266 m -10.868,0 c -0.607,0 -1.436,-0.239 -1.97,-0.534 -1.602,-0.903 -2.081,-2.376 -2.081,-3.426 0,-1.972 1.252,-3.113 2.8,-3.113 0.588,0 1.289,0.276 1.768,0.663 0.202,0.166 0.294,0.332 0.35,0.423 0.054,0.112 0.091,0.241 0.091,0.35 0,0.074 -0.091,0.185 -0.203,0.129 -0.129,-0.055 -0.46,-0.184 -0.736,-0.184 -1.399,0 -2.21,1.198 -2.21,2.782 0,0.938 0.497,2.191 1.584,2.191 0.275,0 0.774,-0.146 1.105,-0.404 0.792,-0.7 1.106,-2.175 1.106,-3.446 0,-1.823 -0.793,-3.719 -2.027,-5.211 -0.957,-1.179 -2.063,-1.954 -3.113,-2.488 -0.055,-0.017 -0.129,-0.109 -0.129,-0.166 0,-0.183 0.294,-0.275 0.424,-0.275 0.571,0 1.363,0.258 2.432,0.884 2.67,1.565 4.623,4.623 4.623,7.348 0,2.359 -1.363,4.477 -3.814,4.477 m -13.869,-11.384 c 0,-0.165 0.24,-0.238 0.497,-0.238 0.204,0 1.289,0.109 2.69,0.109 0.719,0 1.75,-0.072 2.045,-0.072 0.202,0 0.497,0.072 0.497,0.221 0,0.202 -0.239,0.349 -0.443,0.405 -1.215,0.295 -1.196,0.45999 -1.196,1.694 -0.019,2.192 -0.019,5.434 0,6.741 0.018,1.344 0.055,2.173 0.055,2.37599 0,0.111 -0.092,0.203 -0.166,0.18401 -0.129,0 -0.516,-0.147 -0.847,-0.313 -0.497,-0.294 -1.584,-0.497 -2.358,-0.68 -0.184,-0.037 -0.405,-0.149 -0.405,-0.278 0,-0.147 0.184,-0.294 0.442,-0.349 0.146,-0.037 0.516,-0.073 0.829,-0.166 0.146,-0.036 0.258,-0.239 0.275,-0.387 0.057,-0.258 0.037,-1.068 0.037,-2.228 0,-2.488 -0.091,-4.88101 -0.166,-5.41501 -0.072,-0.683 -0.109,-0.94099 -1.159,-1.19799 -0.425,-0.111 -0.627,-0.24 -0.627,-0.406 m -11.216,2.321 c -0.424,0 -1.253,-0.349 -1.253,-1.343 0,-0.904 0.682,-1.328 1.234,-1.328 0.608,0 1.234,0.461 1.271,1.328 0,0.422 -0.313,1.343 -1.252,1.343 m -8.86,9.192 c -1.252,0 -3.683,0.073 -4.089,0.11 -0.35,0.037 -0.7,0.222 -0.755,0.294 -0.11,0.148 -0.184,0.295 -0.313,0.295 -0.129,0 -0.295,-0.295 -0.295,-0.367 -0.018,-0.941 -0.35,-2.138 -0.35,-2.488 0,-0.183 0.092,-0.405 0.277,-0.405 0.073,0 0.184,0.111 0.405,0.48 0.239,0.441 0.442,0.772 0.626,0.975 0.203,0.24 0.718,0.424 1.013,0.424 0.405,0 1.732,-0.018 2.082,-0.073 0.055,0 0.202,-0.093 0.202,-0.259 0,-0.478 0.019,-1.104 0.019,-2.154 0,-1.401 -0.093,-5.066 -0.166,-6.153 -0.074,-1.289 -0.148,-1.529 -1.345,-1.823 -0.184,-0.056 -0.405,-0.221 -0.405,-0.387 0,-0.147 0.221,-0.22 0.571,-0.22 0.313,0 1.731,0.109 2.302,0.109 0.479,0 2.579,-0.072 2.726,-0.072 0.203,0 0.516,0.072 0.516,0.238 0,0.111 -0.203,0.314 -0.46,0.369 -1.234,0.257 -1.382,0.626 -1.437,1.215 -0.074,0.921 -0.092,2.874 -0.092,4.992 0,1.584 0.018,2.985 0.018,3.831 0,0.075 0.074,0.203 0.184,0.221 0.461,0.074 1.806,0.093 2.248,0.093 0.902,-0.037 1.142,-0.203 1.326,-1.253 0.073,-0.479 0.184,-0.57 0.313,-0.57 0.221,0 0.35,0.312 0.35,0.477 0.055,0.683 0.239,1.621 0.387,2.138 0.073,0.258 -0.074,0.461 -0.166,0.461 -0.074,0 -0.147,-0.057 -0.295,-0.149 -0.239,-0.146 -0.516,-0.22 -1.418,-0.295 -0.608,-0.036 -2.947,-0.054 -3.979,-0.054 m -11.898,0.332 c -1.455,0 -2.321,-0.369 -2.929,-0.885 -0.589,-0.479 -1.123,-1.362 -1.123,-2.412 0,-1.641 1.013,-2.653 2.892,-3.888 1.694,-1.104 2.081,-1.842 2.081,-2.615 0,-1.179 -1.068,-1.842 -1.916,-1.842 -0.939,0 -2.007,0.571 -2.56,1.694 -0.276,0.572 -0.571,1.014 -0.718,1.014 -0.092,0 -0.295,-0.258 -0.295,-0.387 0,-0.534 0.166,-1.326 0.313,-1.97 0,-0.075 0.332,-0.461 0.479,-0.534 0.755,-0.295 1.566,-0.48 2.652,-0.48 0.884,0 1.953,0.276 2.579,0.663 1.068,0.646 1.621,1.75 1.621,2.708 0,1.123 -0.442,2.303 -2.708,3.684 -1.657,1.05 -2.468,1.639 -2.468,2.725 0,1.199 1.013,1.916 1.879,1.916 0.571,0 1.031,-0.146 1.473,-0.515 0.221,-0.185 0.608,-0.7 0.792,-1.309 0.093,-0.275 0.387,-0.441 0.535,-0.441 0.11,0 0.165,0.184 0.165,0.461 0,0.073 -0.184,1.492 -0.184,1.73 -0.018,0.093 -0.166,0.351 -0.239,0.369 -0.498,0.092 -1.474,0.314 -2.321,0.314 m -13.593,-0.314 c -0.958,0 -2.468,0.055 -3.334,0.055 -0.258,0 -0.571,-0.11 -0.571,-0.275 0,-0.186 0.203,-0.258 0.589,-0.332 0.793,-0.148 0.94,-0.517 0.977,-1.179 0.037,-0.534 0.018,-1.382 0.018,-3.556 0,-2.284 -0.092,-3.682 -0.147,-4.457 -0.074,-0.995 -0.313,-1.179 -1.253,-1.399 -0.313,-0.075 -0.552,-0.202 -0.552,-0.368 0,-0.185 0.276,-0.241 0.626,-0.241 0.663,0 0.866,0.092 2.1,0.092 1.381,0 5.931,-0.092 6.133,-0.092 0.092,0 0.387,0.112 0.442,0.241 0.166,0.293 0.7,1.989 0.7,2.135 0.019,0.149 0.037,0.535 -0.147,0.535 -0.147,0 -0.313,-0.166 -0.571,-0.645 -0.405,-0.719 -0.903,-1.16 -1.455,-1.362 -0.461,-0.166 -1.142,-0.166 -1.695,-0.166 -0.626,0 -1.197,0.054 -1.492,0.11 -0.184,0.036 -0.35,0.276 -0.405,0.442 -0.074,0.386 -0.055,1.069 -0.074,1.51 -0.018,0.609 -0.036,2.044 0.037,2.561 0,0.037 0.166,0.22 0.24,0.22 0.571,0 1.252,0 1.842,-0.054 0.718,-0.056 0.957,-0.185 1.197,-0.995 0.055,-0.185 0.202,-0.406 0.35,-0.406 0.147,0 0.258,0.221 0.239,0.553 -0.037,0.46 -0.073,0.756 -0.073,1.252 0,0.425 0.036,0.756 0.073,1.271 0.019,0.204 -0.037,0.516 -0.184,0.516 -0.166,0 -0.295,-0.203 -0.405,-0.478 -0.35,-0.811 -0.313,-0.884 -1.621,-0.884 l -1.474,0 c -0.11,0 -0.184,0.129 -0.184,0.183 -0.018,1.013 0.037,3.574 0.074,4.035 0.018,0.441 0.166,0.515 0.239,0.515 1.419,0.019 2.211,-0.055 2.561,-0.11 0.423,-0.074 0.939,-0.351 1.178,-1.382 0.037,-0.185 0.185,-0.461 0.35,-0.461 0.166,0 0.295,0.259 0.295,0.517 0,0.368 0,1.638 -0.018,1.97 -0.019,0.129 -0.148,0.258 -0.221,0.24 -0.258,-0.038 -1.013,-0.111 -1.621,-0.111 l -2.763,0 z"
       id="path60"
       style="fill:#004780;fill-opacity:1;fill-rule:nonzero;stroke:none" /><path
       d="m 519.09637,259.63432 c -0.201,0.04 -0.363,0.36099 -0.363,0.48099 -0.08,1.046 -0.04,4.987 0.041,5.59 0.04,0.201 0.241,0.522 0.362,0.522 1.448,0.082 2.815,0 3.378,-0.04 1.528,-0.04 2.493,-0.682 3.015,-2.05 0.282,-0.805 0.644,-1.206 0.926,-1.206 0.28,0 0.683,0.481 0.603,1.287 -0.121,0.884 -0.363,2.171 -0.363,3.257 0,0.281 -0.482,0.441 -0.643,0.401 -0.965,-0.2 -2.815,-0.16 -9.288,-0.16 -1.85,0 -3.62,0.16 -4.343,0.16 -0.845,0 -1.126,-0.321 -1.126,-0.523 0,-0.442 0.603,-0.682 1.085,-0.843 1.448,-0.403 1.648,-0.886 1.688,-1.69 0.081,-1.448 0.081,-3.78 0.081,-5.59 0,-2.573 -0.04,-4.704 -0.121,-5.991 -0.16,-1.608 -0.441,-1.97 -2.292,-2.413 -0.481,-0.12 -1.166,-0.441 -1.166,-0.804 0,-0.402 0.604,-0.642 1.489,-0.642 0.924,0 3.135,0.2 4.423,0.2 5.429,0 7.961,-0.2 10.053,-0.2 0.402,0 0.885,0.24 1.046,0.521 0.24,0.403 1.085,2.655 1.085,3.741 0,0.362 -0.08,1.045 -0.523,1.045 -0.322,0 -0.482,-0.322 -0.764,-0.763 -0.884,-1.327 -1.93,-2.373 -3.216,-2.736 -0.523,-0.161 -1.327,-0.201 -2.212,-0.201 -0.603,0 -2.011,0.08 -2.574,0.363 -0.16,0.08 -0.563,0.642 -0.603,0.964 -0.162,0.845 -0.162,4.263 -0.041,5.068 0.041,0.24 0.202,0.562 0.363,0.562 1.447,0.04 2.734,0.04 3.217,-0.121 0.362,-0.161 0.482,-0.562 0.804,-1.448 0.2,-0.563 0.483,-0.924 0.804,-0.924 0.322,0 0.644,0.241 0.644,1.045 0,0.88601 -0.082,1.327 -0.082,2.49301 0,0.885 0.082,1.68999 0.082,1.971 0,0.72399 -0.082,1.16599 -0.402,1.16599 -0.362,0 -0.644,-0.40099 -0.846,-0.845 -0.642,-1.367 -0.884,-1.728 -2.492,-1.728 -0.523,0 -1.327,0.04 -1.729,0.081 m -32.653,-1.00701 c 0,-2.815 1.126,-5.388 3.218,-7.116 1.729,-1.48899 4.544,-2.615 8.404,-2.615 2.614,0 5.187,0.68401 7.077,1.288 0.644,0.241 0.924,0.522 0.924,0.723 0,0.36201 -0.401,0.604 -0.682,0.80501 -0.282,0.24 -0.322,0.36099 -0.322,2.69299 0,1.61 0.201,2.05101 1.004,2.25201 0.524,0.121 0.966,0.36199 0.966,0.725 0,0.361 -0.442,0.562 -1.166,0.562 -0.926,0 -1.608,-0.081 -2.895,-0.081 -1.287,0 -3.619,0.201 -4.544,0.201 -0.804,0 -1.206,-0.201 -1.206,-0.563 0,-0.32 0.402,-0.643 1.085,-0.764 1.528,-0.281 2.252,-0.52101 2.252,-2.171 0,-1.046 0,-1.969 -0.08,-2.734 -0.041,-0.321 -0.081,-0.644 -0.523,-1.006 -0.563,-0.401 -1.046,-0.562 -1.568,-0.562 -1.77,0 -3.418,1.005 -4.866,2.895 -1.086,1.367 -1.729,3.941 -1.729,5.991 0,2.373 0.925,4.584 1.93,5.791 1.327,1.529 3.217,2.171 4.383,2.171 1.126,0 3.458,-0.562 4.745,-2.212 0.402,-0.562 0.724,-1.045 1.046,-1.728 0.241,-0.644 0.362,-1.046 0.764,-1.046 0.402,0 0.683,0.603 0.603,1.206 -0.121,0.846 -0.323,2.493 -0.323,3.378 0,0.482 -0.361,0.805 -0.562,0.805 -0.442,0.081 -1.206,0.201 -2.211,0.441 -0.644,0.161 -2.333,0.483 -3.941,0.483 -4.504,0 -7.239,-1.729 -8.083,-2.453 -1.648,-1.327 -3.7,-3.699 -3.7,-7.359 m -14.154,1.007 c -0.201,0.04 -0.362,0.361 -0.362,0.481 -0.08,1.046 -0.04,4.987 0.041,5.59 0.04,0.201 0.241,0.522 0.362,0.522 1.446,0.082 2.814,0 3.377,-0.04 1.527,-0.04 2.493,-0.682 3.016,-2.04999 0.282,-0.80501 0.644,-1.206 0.925,-1.206 0.282,0 0.684,0.481 0.603,1.28699 -0.12,0.884 -0.362,2.171 -0.362,3.25701 0,0.28099 -0.482,0.44099 -0.643,0.40099 -0.966,-0.19999 -2.815,-0.16 -9.289,-0.16 -1.85,0 -3.619,0.16 -4.344,0.16 -0.843,0 -1.126,-0.321 -1.126,-0.523 0,-0.442 0.604,-0.682 1.087,-0.843 1.448,-0.403 1.649,-0.886 1.689,-1.69 0.08,-1.448 0.08,-3.78 0.08,-5.58999 0,-2.573 -0.04,-4.70401 -0.12,-5.99101 -0.161,-1.608 -0.444,-1.97 -2.292,-2.413 -0.484,-0.12 -1.167,-0.44099 -1.167,-0.80399 0,-0.402 0.604,-0.642 1.488,-0.642 0.925,0 3.137,0.2 4.424,0.2 5.428,0 7.962,-0.2 10.053,-0.2 0.402,0 0.883,0.24 1.045,0.521 0.241,0.403 1.085,2.65499 1.085,3.741 0,0.362 -0.081,1.045 -0.522,1.045 -0.322,0 -0.483,-0.322 -0.765,-0.763 -0.884,-1.327 -1.929,-2.373 -3.216,-2.736 -0.523,-0.161 -1.328,-0.201 -2.212,-0.201 -0.603,0 -2.01,0.08 -2.574,0.363 -0.16,0.08 -0.562,0.642 -0.602,0.964 -0.161,0.845 -0.161,4.26299 -0.041,5.068 0.041,0.24 0.202,0.562 0.362,0.562 1.447,0.04 2.735,0.04 3.217,-0.121 0.362,-0.161 0.482,-0.562 0.805,-1.448 0.201,-0.563 0.482,-0.924 0.803,-0.924 0.322,0 0.644,0.241 0.644,1.045 0,0.886 -0.08,1.327 -0.08,2.493 0,0.885 0.08,1.69 0.08,1.971 0,0.724 -0.08,1.166 -0.402,1.166 -0.362,0 -0.643,-0.401 -0.844,-0.845 -0.644,-1.367 -0.885,-1.728 -2.494,-1.728 -0.522,0 -1.328,0.04 -1.729,0.081 m -28.268,7.719 c 0,-0.362 0.241,-0.643 1.166,-0.843 1.287,-0.323 1.528,-0.685 1.608,-1.891 0.081,-1.567 0,-4.061 0,-5.549 0,-3.459 -0.04,-5.63 -0.16,-6.393 -0.202,-1.046 -0.484,-1.61 -2.051,-1.851 -0.925,-0.201 -1.247,-0.562 -1.247,-0.804 0,-0.362 0.401,-0.642 1.207,-0.642 1.005,0 2.493,0.2 4.543,0.2 2.936,0 4.786,-0.241 7.118,-0.241 1.287,0 2.292,0 2.653,0.08 0.202,0.04 0.524,0.322 0.604,0.603 0.322,1.288 0.965,2.856 1.287,3.58 0.28,0.642 0.201,1.367 -0.161,1.367 -0.322,0 -0.644,-0.323 -1.166,-1.126 -0.725,-0.926 -1.287,-1.449 -1.811,-2.011 -0.722,-0.724 -1.446,-0.845 -2.292,-0.885 -0.682,-0.04 -1.889,0 -2.773,0.161 -0.443,0.08 -1.046,0.564 -1.086,1.126 -0.08,0.884 -0.161,2.211 -0.161,3.136 0,2.614 0.161,8.364 0.282,9.691 0.08,0.684 0.643,1.328 1.648,1.529 0.964,0.16 1.126,0.602 1.126,0.845 0,0.281 -0.523,0.481 -0.844,0.481 -0.925,-0.079 -3.257,-0.2 -4.665,-0.2 -1.769,0 -3.096,0.121 -3.619,0.121 -0.844,0 -1.206,-0.161 -1.206,-0.484 m -20.548,0 c 0,-0.362 0.241,-0.643 1.166,-0.843 1.287,-0.323 1.528,-0.685 1.608,-1.891 0.081,-1.567 0,-4.061 0,-5.549 0,-3.459 -0.04,-5.63 -0.16,-6.393 -0.201,-1.046 -0.483,-1.61 -2.051,-1.851 -0.926,-0.201 -1.247,-0.562 -1.247,-0.804 0,-0.362 0.401,-0.642 1.207,-0.642 1.005,0 2.492,0.2 4.544,0.2 2.935,0 4.785,-0.241 7.116,-0.241 1.287,0 2.293,0 2.655,0.08 0.201,0.04 0.523,0.322 0.603,0.603 0.321,1.288 0.965,2.856 1.287,3.58 0.281,0.642 0.2,1.367 -0.161,1.367 -0.322,0 -0.643,-0.323 -1.166,-1.126 -0.725,-0.926 -1.287,-1.449 -1.81,-2.011 -0.723,-0.724 -1.447,-0.845 -2.292,-0.885 -0.683,-0.04 -1.89,0 -2.774,0.161 -0.443,0.08 -1.046,0.564 -1.086,1.126 -0.08,0.884 -0.161,2.211 -0.161,3.136 0,2.614 0.161,8.364 0.282,9.691 0.079,0.684 0.643,1.328 1.648,1.529 0.965,0.16 1.126,0.602 1.126,0.845 0,0.281 -0.522,0.481 -0.844,0.481 -0.925,-0.079 -3.257,-0.2 -4.665,-0.2 -1.77,0 -3.096,0.121 -3.619,0.121 -0.844,0 -1.206,-0.161 -1.206,-0.484 m -15.884,-0.321 c 4.343,0 6.072,-6.032 6.072,-8.324 0,-2.774 -0.442,-5.429 -1.528,-6.756 -1.287,-1.487 -2.734,-1.688 -3.378,-1.688 -2.734,0 -6.071,3.66 -6.071,9.047 0,2.815 0.643,5.027 1.729,6.194 1.045,1.205 2.372,1.527 3.176,1.527 m 0.562,1.367 c -2.372,0 -5.186,-0.683 -7.518,-2.694 -1.89,-1.648 -3.097,-4.223 -3.097,-7.037 0,-4.062 2.855,-9.772 10.898,-9.772 1.085,0 4.463,0.323 6.836,2.414 2.332,1.969 3.458,4.301 3.458,7.76 0,4.947 -4.182,9.329 -10.577,9.329 m -25.05,7.319 c -3.298,0 -7.44,-0.805 -10.858,-3.619 -1.689,-1.368 -4.423,-4.786 -4.423,-9.652 0,-4.463 1.85,-7.278 3.378,-9.047 1.649,-1.889 5.871,-4.544 11.822,-4.544 3.7,0 6.474,0.965 7.037,1.166 0.603,0.282 1.327,0.925 1.448,1.288 0.362,0.723 1.005,2.493 1.206,3.498 0.121,0.442 0.121,1.488 -0.322,1.488 -0.322,0 -0.603,-0.362 -1.085,-1.247 -0.925,-1.649 -2.011,-2.815 -3.499,-3.659 -1.407,-0.844 -3.377,-0.925 -3.901,-0.925 -3.136,0 -6.795,1.568 -9.007,5.991 -0.884,1.77 -1.367,4.102 -1.367,6.797 0,6.111 3.016,11.179 9.41,11.179 2.17,0 4.222,-0.885 5.951,-2.333 0.684,-0.524 1.287,-1.609 1.689,-2.856 0.2,-0.602 0.563,-1.086 0.764,-1.086 0.442,0 0.723,0.685 0.683,1.529 -0.081,1.166 -0.16,2.574 -0.201,3.7 0,0.602 -0.321,1.086 -0.603,1.086 -0.925,0.12 -1.93,0.361 -2.895,0.602 -1.448,0.362 -3.378,0.644 -5.227,0.644 m -49.179,-8.405 c 0,-0.362 0.322,-0.603 1.086,-0.843 1.287,-0.363 1.407,-0.685 1.568,-1.811 0.081,-0.642 0.081,-2.653 0.081,-4.141 0,-2.292 -0.041,-6.033 -0.202,-7.68 -0.08,-1.126 -0.442,-1.69 -1.89,-1.972 -0.562,-0.12 -1.206,-0.36 -1.206,-0.844 0,-0.442 0.603,-0.603 1.126,-0.603 0.804,0 2.775,0.161 4.021,0.161 0.965,0 3.056,-0.121 3.861,-0.121 0.844,0 1.246,0.241 1.246,0.725 0,0.362 -0.603,0.562 -1.126,0.723 -0.925,0.281 -1.407,0.644 -1.447,1.73 0,1.406 0,4.705 0.04,5.307 0.04,0.242 0.04,0.443 0.201,0.443 0.161,0 0.402,-0.242 0.643,-0.484 1.327,-1.647 3.901,-4.744 4.625,-5.83 0.482,-0.602 0.281,-1.006 -0.081,-1.207 -0.563,-0.241 -0.925,-0.481 -0.925,-0.722 0,-0.363 0.523,-0.645 1.247,-0.645 0.523,0 1.689,0.121 2.734,0.121 0.965,0 4.544,-0.24 5.228,-0.24 0.683,0 1.327,0.159 1.327,0.682 0,0.363 -0.644,0.603 -1.367,0.804 -1.368,0.282 -2.091,0.925 -4.022,3.098 -1.688,1.93 -3.86,4.544 -5.267,6.352 -0.081,0.202 -0.161,0.484 -0.041,0.603 1.448,1.448 3.499,3.017 4.866,3.941 0.764,0.484 1.97,1.409 3.498,1.73 0.805,0.16 1.287,0.401 1.287,0.763 0,0.403 -0.603,0.523 -1.045,0.523 -0.242,0 -2.654,-0.2 -4.343,-0.2 l -2.493,0 c -0.523,0 -1.006,-0.161 -1.006,-0.484 0,-0.362 0.161,-0.562 1.327,-0.923 0.604,-0.162 0.845,-0.564 0.563,-0.966 -0.643,-1.005 -2.774,-3.016 -4.584,-4.543 -0.925,-0.765 -1.689,-1.368 -2.01,-1.368 -0.201,0 -0.322,0.242 -0.322,0.522 0,1.005 -0.04,3.458 0.121,5.107 0.04,0.804 0.402,1.166 1.729,1.489 0.482,0.12 1.085,0.361 1.085,0.803 0,0.242 -0.442,0.524 -1.005,0.524 -1.126,0 -2.614,-0.121 -3.78,-0.121 -2.292,0 -2.694,0.121 -4.302,0.121 -0.604,0 -1.046,-0.201 -1.046,-0.524 m -15.923,-0.884 c 2.493,0 4.101,-1.81 4.101,-3.781 0,-1.568 -0.965,-2.412 -1.488,-2.814 -0.442,-0.321 -2.171,-0.644 -3.659,-0.644 -0.201,0 -0.402,0.202 -0.442,0.444 -0.041,0.602 0.04,5.629 0.04,6.03 0,0.242 0.201,0.483 0.362,0.563 0.281,0.122 0.603,0.202 1.086,0.202 m -8.767,0.763 c 0,-0.321 0.523,-0.642 1.086,-0.803 1.649,-0.403 1.729,-1.005 1.769,-1.81 0.081,-0.965 0.041,-2.091 0.041,-5.106 0,-2.937 -0.041,-5.63 -0.081,-6.435 -0.08,-1.447 -0.321,-1.89 -1.85,-2.332 -0.603,-0.16 -1.005,-0.442 -1.005,-0.764 0,-0.362 0.483,-0.603 1.126,-0.603 1.247,0 2.413,0.241 4.102,0.241 1.568,0 3.096,-0.121 3.739,-0.121 0.563,0 1.126,0.161 1.126,0.685 0,0.241 -0.482,0.562 -0.804,0.642 -1.166,0.322 -1.769,0.644 -1.85,1.851 -0.12,1.688 -0.161,4.02 -0.12,4.664 0,0.241 0.12,0.442 0.201,0.482 0.201,0.12 0.402,0.201 0.563,0.201 0.603,0 1.287,-0.402 1.648,-0.965 1.167,-1.769 2.896,-4.826 3.619,-5.629 1.689,-1.891 3.579,-2.413 5.63,-2.413 1.97,0 2.895,0.522 2.895,0.965 0,0.403 -0.281,0.523 -0.764,0.643 -1.045,0.281 -2.091,0.926 -3.056,2.012 -1.528,1.768 -3.257,4.382 -4.021,5.951 -0.04,0.04 0,0.28 0.201,0.321 1.247,0.483 3.217,1.689 3.217,4.384 0,1.165 -0.523,2.252 -1.528,3.176 -0.844,0.844 -2.976,1.527 -5.589,1.527 -3.298,0 -5.107,-0.24 -6.072,-0.24 -0.563,0 -1.77,0.081 -3.097,0.081 -0.563,0 -1.126,-0.161 -1.126,-0.605 m -12.706,-10.535 c -0.885,-0.121 -3.338,-0.121 -4.424,-0.04 -0.161,0 -0.282,0.201 -0.282,0.281 0.563,1.569 1.488,3.982 2.252,5.831 0.081,0.162 0.362,0.202 0.362,0.122 0.241,-0.484 1.649,-3.982 2.292,-5.791 0.041,-0.162 -0.04,-0.363 -0.2,-0.403 m 0.281,11.742 c -0.161,0 -0.724,-0.282 -0.885,-0.483 -0.522,-0.603 -1.166,-0.925 -1.608,-1.286 -0.322,-0.281 -0.483,-0.483 -0.523,-0.684 -0.241,-0.723 -0.362,-1.126 -0.885,-2.373 -0.804,-1.97 -3.498,-8.404 -4.423,-10.133 -0.764,-1.488 -1.327,-2.292 -2.734,-2.734 -0.724,-0.2 -1.166,-0.482 -1.166,-0.885 0,-0.241 0.241,-0.482 0.964,-0.441 1.006,0.039 2.132,0.2 3.58,0.2 0.844,0 1.407,-0.081 2.573,-0.081 0.683,0 1.126,0.161 1.126,0.563 0,0.323 -0.362,0.523 -0.925,0.684 -1.287,0.362 -1.608,0.765 -1.608,1.568 0,0.564 0.401,1.729 0.643,2.131 0.161,0.242 0.643,0.323 1.126,0.363 1.407,0.081 4.383,0 4.865,-0.04 0.483,-0.041 0.805,-0.363 0.845,-0.524 0.241,-0.562 0.724,-1.85 0.724,-2.171 0,-0.482 -0.201,-1.006 -1.488,-1.287 -0.724,-0.161 -0.965,-0.441 -0.965,-0.684 0,-0.321 0.402,-0.643 1.086,-0.643 1.367,0 1.809,0.121 2.895,0.121 1.487,0 4.142,-0.161 5.951,-0.2 0.322,0 0.724,0.361 0.724,0.682 0,0.242 -0.322,0.484 -1.126,0.764 -1.448,0.402 -1.649,0.765 -2.614,2.776 -1.085,2.21 -4.463,10.616 -5.026,12.062 -0.201,0.523 -0.403,1.007 -0.563,2.252 -0.04,0.322 -0.362,0.483 -0.563,0.483 m -31.726,-1.046 c 0,-0.362 0.241,-0.643 1.166,-0.843 1.286,-0.323 1.528,-0.685 1.608,-1.891 0.081,-1.567 0,-4.061 0,-5.549 0,-3.459 -0.04,-5.63 -0.161,-6.393 -0.201,-1.046 -0.482,-1.61 -2.05,-1.851 -0.926,-0.201 -1.247,-0.562 -1.247,-0.804 0,-0.362 0.402,-0.642 1.206,-0.642 1.006,0 2.493,0.2 4.544,0.2 2.936,0 4.785,-0.241 7.118,-0.241 1.286,0 2.292,0 2.654,0.08 0.201,0.04 0.523,0.322 0.603,0.603 0.321,1.288 0.965,2.856 1.287,3.58 0.281,0.642 0.201,1.367 -0.161,1.367 -0.322,0 -0.643,-0.323 -1.166,-1.126 -0.724,-0.926 -1.287,-1.449 -1.81,-2.011 -0.724,-0.724 -1.448,-0.845 -2.292,-0.885 -0.684,-0.04 -1.89,0 -2.774,0.161 -0.443,0.08 -1.046,0.564 -1.086,1.126 -0.081,0.884 -0.161,2.211 -0.161,3.136 0,2.614 0.161,8.364 0.281,9.691 0.081,0.684 0.644,1.328 1.649,1.529 0.965,0.16 1.126,0.602 1.126,0.845 0,0.281 -0.523,0.481 -0.845,0.481 -0.924,-0.079 -3.256,-0.2 -4.664,-0.2 -1.77,0 -3.096,0.121 -3.619,0.121 -0.845,0 -1.206,-0.161 -1.206,-0.484 m -13.753,8.365 c -3.297,0 -7.439,-0.805 -10.857,-3.619 -1.689,-1.368 -4.424,-4.786 -4.424,-9.652 0,-4.463 1.851,-7.278 3.378,-9.047 1.649,-1.889 5.871,-4.544 11.823,-4.544 3.699,0 6.474,0.965 7.037,1.166 0.603,0.282 1.327,0.925 1.448,1.288 0.361,0.723 1.004,2.493 1.206,3.498 0.12,0.442 0.12,1.488 -0.322,1.488 -0.321,0 -0.603,-0.362 -1.086,-1.247 -0.924,-1.649 -2.01,-2.815 -3.498,-3.659 -1.407,-0.844 -3.378,-0.925 -3.901,-0.925 -3.136,0 -6.795,1.568 -9.007,5.991 -0.885,1.77 -1.367,4.102 -1.367,6.797 0,6.111 3.016,11.179 9.409,11.179 2.172,0 4.223,-0.885 5.952,-2.333 0.683,-0.524 1.286,-1.609 1.689,-2.856 0.2,-0.602 0.562,-1.086 0.763,-1.086 0.443,0 0.725,0.685 0.684,1.529 -0.08,1.166 -0.161,2.574 -0.201,3.7 0,0.602 -0.321,1.086 -0.603,1.086 -0.925,0.12 -1.93,0.361 -2.895,0.602 -1.448,0.362 -3.378,0.644 -5.228,0.644"
       id="path64"
       style="fill:#f36c24;fill-opacity:1;fill-rule:nonzero;stroke:none" /></g></svg>