<?xml version="1.0" encoding="UTF-8"?><svg id="Layer_1" xmlns="http://www.w3.org/2000/svg" viewBox="0 0 748.46 320.38"><defs><style>.cls-1,.cls-2{fill:#9d8abd;}.cls-3,.cls-4{fill:#93d500;}.cls-5{fill:#5e3a90;}.cls-6{fill:#fff;stroke:#231f20;stroke-miterlimit:10;}.cls-4,.cls-2{fill-rule:evenodd;}</style></defs><rect class="cls-6" x="13.88" y="276.94" width="722.67" height="36.67"/><path class="cls-1" d="m327.57,0c3.79,0,11.62,9.23,18.79,9.23,1.65,0,17.14-5.27,18.79-5.27,13.1,0,25.58,8.16,37.94,9.23,14.42,1.24,16.13-.66,17.78-.66,8.24,0,77.13,53.44,113.55,72.31,7.67,3.96,18.19,1.64,26.35,5.02,12.36,5.19,23.78,14.99,36.88,18.7,42.77,12.28,89.2,15.75,134.07,32.96l-107.08-22.84c-2.53,1.45-6.31,7.42-6.31,8.25,0,11.7,29.59,22.09,31.32,22.09s8.34-7.16,13.06-11.85h11.37l37.22,6.27-25.34,1.63c-2.45.49-4.2,2.15-7.18,4.61h-11.9c-1.65,0-10.63,3.97-12.28,3.97s-9.07-2.48-12.95-3.56c-5.03-1.4-16.56-6.33-19.11-6.33h-11.04c-4.37,0-12.38-5.45-15.96-6.6l-33.2-.83c3.31-5.28,13-12.62,15.34-18.92,4.98,2.66,9.34,9.87,13.96,9.87,4.2,0,15.16-9.18,18.14-10.8-22.03-.91-52.18-28.76-75.58-28.76h-25.55c-5.11,0-50.92-25.81-56.85-31.74-2.96-2.97-3.53-8.67-5.41-13.68l52.95,39.49c2.44-1.91,5.73-3.88,8.9-6.25-14.35-8.97-30.69-16.57-44.04-26.37-6.59-4.86-9.14-13.93-15.82-18.71-7.5-5.36-17.07-6.72-25.51-9.99,0,0-.44-.1-1.01.37,5.56,9.19,14.33,19.65,17,29.9-11.51-8.33-32.08-15.22-34.71-31.53-7.08-1.39-20.61-4.02-22.26-4.05h-9.62c-.53,1.78.14,4.32,0,8.54l-36.43-12.47c-10.18,5.08-15.83,8.19-23.33,13.06-.77,2.54-.77,5.16-1.59,8-2.24-.64-4.11-3.25-5.76-3.25-4.78,0-15.16,11.62-15.16,14.5s9.83,7.14,11.14,8.09v5.05h-8.94c-2.73-1.99-6.06-4.66-8.38-7.21-2.32,8.51-8.98,42.79-8.98,46.49,0,2.64.99,2.97,2.31,2.97,8.74,0,18.64-23.27,20.63-27.69v11.45c.14,3.71-.27,6.35,3.43,6.35,14.42,0,21.08-27.97,25.6-33.61v18.69c.11,1.65-7.14,19.2-7.14,20.85,0,4.78,17.19-2.95,25.65,14.37-4.93-.53-9.83-1.18-11.48-1.18-13.35,0-14.2,8.11-19.14,21.42-30.71,8.89-62.02,13.52-92.92,15.5l-47.11,2.48c5.44-9.65,14.94-14.71,22.52-19.41,12.94-8,66.44-30.63,66.44-44.72,0-3.38-18.83-10.49-24.63-12.87-4.19,5.73-10.2,17.09-18.08,22.37.69-3.89,3.15-6.32,2.67-10.53-2.84,1.49-6.08,7.14-8.26,10.54h-2.33c-.76-1.45-1.4-3.39-2.5-5.23-6.92,5.46-17.25,9.07-24.33,9.23-6.59.16-7.26-.66-8.91-.66s-17.93,15.17-26.5,22.1c-15.74,12.61-31.76,20.23-46.27,37.89-13.96-5.04-30.62-11.53-44.28-13.18l-20.09.66c-8.41,0-11.11.4-21.09-9.63l52.73-18.06c4.39,1.33,11.21,1.98,12.86,1.98s5.94-.16,9.15-.9c11.21-2.64,35.18-17.56,38.65-17.56,1.65,0,11.21,3.3,12.86,3.3,8.32,0,89.39-33.07,102-42.38,13.19-9.72,23.92-26.39,36.94-34.55,13.68-8.57,41.3-25.93,43.36-25.93h0Z"/><path class="cls-1" d="m327.63,23.88c17.61,6.39,28.95,30.44,28.95,43.38,0,1.65-5.33,9.08-8.45,13.17v-20.84c-.12-8.74-15.45-29.37-20.5-35.71h0Z"/><path class="cls-1" d="m364.91,25.72c1.87,4.23,10.29,13.52,13.41,16.98h-6.66c.26,8.05,8.41,7.93,11.62,9.64,8.14,15.49,27.4,22.3,41.19,32.52-21.73-5.68-40.14-17.39-57.31-23.76.67-1.59.64-2.76.64-4.41,0-1.73-10.89-18.5-13.19-21.43,2.71-3.51,6.72-6.85,10.3-9.55h0Z"/><path class="cls-2" d="m430.57,62.69c14.63,9.39,26.03,14.44,40.02,26.83-13.85-6.48-35.38-4.48-40.02-26.83h0Z"/><path class="cls-1" d="m543.5,98.9c3.96,0,22.79,15.65,24.03,16.97-21.41-7.01-38.86-8.91-59.3-14.7l35.27-2.27h0Z"/><path class="cls-1" d="m474.36,104.2h2.74c11.23,21.91,35.36,17.13,52.67,23.23,16.9,5.93,34.32,12.21,51.63,21.34l-30.67-4.39c-7.23,0-10.19-.66-11.84-.66-10.3,0-18.71,3.3-30.99,3.3-9.56,0-30.9-3.95-37.66-3.95h-22.98l-42.83,3.29-57.37,7.25c-18.48,0-19.8,0-24.74-.28,13.25-4.57,28.63-2.2,42.31-13.98,2.64-2.31,12.35-5.48,10.53-10.7,9.09,3.14,9.71,5.18,17.38,5.18,5.77,0,43.84-1.65,43.98-22.35,2.28.61,4.15,1.26,5.8,1.26,7.25,0,29.17-8.57,32.06-8.54h0Z"/><path class="cls-1" d="m327.9,0c2.31,0,13.27,9.23,18.46,9.23,1.65,0,17.14-5.27,18.79-5.27s7.58.66,9.23.66c4.04,0,20.36,9.23,34.28,9.23,1.65,0,10.55-1.32,12.2-1.32,7.5,0,23.2,11.2,28.55,15.4,26.54,20.77,56.72,43.89,82.35,56,11.79,5.52,31.31,3.76,42.93,13.9,2.72,2.39,6.7,3.67,8.92,4.82,8.08,4.45,21.24,8.54,31.79,10.27,11.13,1.81,24.87,4.53,36.6,5.77l42.56,10.56c11.88,3.96,24.4,7.91,37.15,12.27-15.88-3.14-96-22.83-106.14-22.83-3.05,0-7.25,7.34-7.25,8.24,0,8.65,26.43,20.31,31.26,22.75,4.44-4.52,8.58-11.62,14.51-12.53,17.56-2.8,33.72,4.2,47.19,6.27-10.2.98-20.77,1.64-30.42,1.54.1,1.08.06,2.55-.7,3.99-6.66,1.05-22.53,4.68-25.58,4.68-3.21,0-26.63-8.09-32.07-9.74-7.25-2.23-17.63-1.84-25.79-6.62-4.53-2.64-20.68-.78-22.33-.87h-12.08c3.73-5.95,14.47-15.13,15.33-19.01,7.07,4.56,7.88,9.86,14.63,9.86,5.94,0,15.3-9.41,17.48-10.81-6.01-1.07-12.97-2.4-18.93-4.38l-37.59-20.44c-5.58-2.05-14.89-3.52-20.33-3.93-17.06-1.48-21.42.73-24.47-.26-12.03-4.04-56.92-27.26-56.92-33.69,0-1.65-3.28-6.5-4.47-11.48l51.62,40.16c3.76-2.58,7.03-4.54,10.21-6.9l-41.39-24.14c-8.42-6.19-12.84-13.99-19.12-21.35-8-2.6-17.9-8.11-26.57-9.08,4.7,7.48,12.81,17.28,16.39,29.77-4.26-3.06-26.89-12.96-26.89-20.05,0-1.65-4.62-6.92-4.62-8.57,0-6.18-18.39-5.78-22.01-6.93-.5.57-1.42.67-12.49-.01-.54.58-.45.35-.45,2s.65,2.9,1.21,6.51c-12.03-3.89-26.22-10.88-39-12.47-3.5,4.03-21.55,10.24-21.55,14.53,0,1.65-1.32,4.29-1.46,6.53-2.28-.62-4.15-3.23-5.8-3.23-3.71,0-15.16,10.8-15.16,13.85,0,4.95,7.47,7.03,11.13,8.72v5.07h-8.93c-2.73-1.99-5.4-4.66-7.84-7.2-2.01,1.35-2.85,6.93-2.93,9.93l-6.61,33.29v5.74c1.16.53,2,1.15,3.65,1.15,4.29,0,15.68-19.15,18.5-26.37.95,8.87.29,10.22.29,11.86,0,2.23,2.31,3.96,3.96,3.96,5.77,0,11.87-6.43,11.87-9.56,0-1.65,8.61-16.64,13.39-24.06v17.49c-.21,3.33-1.52,8.21-1.52,9.86,0,4.12-5.28,4.62-5.28,12.2,0,3.3,3.54,3.96,3.96,3.96,1.65,0,3.54-1.32,4.95-1.32s7.58.66,9.23.66,5.56,7.41,7.53,11.06c-4.94-.52-10.49-1.83-12.14-1.83-7.75,0-16.81,8.08-16.81,16.81,0,1.65-1.32,3.3-1.39,5.48-16.25,4.07-45.84,11.99-64.21,11.99l-76.12,5.75c16.62-18.74,35.49-25.81,52.88-35.87,5.85-3.38,36.1-16.69,36.1-28.23,0-1.9-17.85-10.33-23.47-12.87h-1.78c-4.88,7.78-7.9,13.61-17.44,22.39.51-3,2.5-6.34,3.8-9.45l-1.08-1.07c-2.91,1.46-6.15,7.11-8.38,10.54-2.53-.82-4.06-3.07-4.2-5.29-7.1,4.6-16.58,9.01-24.9,9.26-6.59.16-7.26-.66-8.91-.66-7.58,0-32.6,26.31-47.6,37.68-9.56,7.25-17.15,10.14-25.15,22.3-8.37-2.72-27.06-11.85-37.69-11.85-39.89,0-41.01-3.7-47.8-9.62l52.73-18.73c2.41.67,4.21,1.98,6.27,1.98.91,0,11.8.25,13.12,0,13.35-2.88,34.6-18.47,41.28-18.47.91,0,9.31,3.3,13.19,3.3,9.23,0,22.58-10.55,29.34-10.55,3.63,0,56.99-19.21,72.98-31.82,13.43-10.55,24.67-27.13,36.29-34.55,8.74-5.52,19.46-10.23,29.02-15.83,4.95-2.88,13.02-10.1,14.67-10.1h0Z"/><path class="cls-1" d="m327.65,23.85c6.76,3.55,23.66,18.84,23.66,23.29,0,1.65,5.27,18.46,5.27,20.11s-5.98,9.07-8.33,12.52c-.24-10.87.42-13.17.42-14.82s-3.3-13.52-3.3-15.17-2.64-4.29-2.64-5.93-9.82-12.98-15.08-19.99h0Z"/><path class="cls-1" d="m364.91,25.72c1.54,3.32,10.41,14.47,13.42,16.9-2.29.23-4.85-.44-7.26.03,6.41,11.16,11.86,7.48,16.43,17.46l36.99,24.05c-18.29-.1-38.22-18.4-57.3-23,2.44-9.49-8.91-18.89-12.57-25.91,2.71-3.47,6.72-6.82,10.3-9.52h0Z"/><path class="cls-1" d="m430.53,62.73c7.98,4.32,16.71,9.09,25.44,13.96,5.94,3.3,9.89,9.07,14.66,12.09-7.34-.26-30.32-6.61-30.32-11.3,0-1.65-6.55-8.41-9.79-14.74h0Z"/><path class="cls-1" d="m543.5,98.9c3.3,0,19.08,13.18,23.34,17.01-18.99-12.12-38.91-9.76-58.62-14.72,8.21-.96,23.08-.96,24.72-.96s8.9-1.32,10.55-1.32h0Z"/><path class="cls-1" d="m474.36,104.22h2.79c.75,7.25,12.58,16.44,19.58,17.26,27.94,3.3,60.27,14.54,84.67,27.27-.4.25-34.93-5.02-41.86-5.02-1.65,0-11.54.66-13.19.66s-5.94,2.72-9.24,2.64c-42.77-1.15-33.66-2.47-50.77-4.62l-74.17,4.62c-4.12,0-42.03,6.59-52.41,6.59-11.21,0-12.47,0-16.81.39,18.56-3.84,40.68-7.07,52.31-25.42,5.5,1.98,14.94,5.92,16.59,5.92,6.76,0,36.32-6.86,38.05-8.1,4.53-3.21,6.54-9.7,6.59-14.91,2.28.61,5.14,1.25,6.79,1.25,7.42,0,27.53-8.57,31.07-8.52h0Z"/><path class="cls-2" d="m360.21,29.34c-.59,1.06-4.12,3.89-4.62,6.59-.16-2.74,3.56-6,4.62-6.59h0Z"/><path class="cls-2" d="m226.13,87.78c-.85,1.79-2.96,3.84-4.71,4.14.99-.28,2.74-2.16,4.71-4.14h0Z"/><path class="cls-2" d="m319.18,94.61c.48.66.39,1.75,1.47,3.3l-1.47-1.19v-2.11h0Z"/><path class="cls-2" d="m577.79,117.69c2.16,1.04,4.85,3.72,6.59,5.93-2.21-1.74-4.8-4.34-6.59-5.93h0Z"/><path class="cls-2" d="m322.36,153.1c1.73.56,2.9.52,4.22.85-1.32.33-3.53.23-4.22-.85h0Z"/><path class="cls-2" d="m360.21,29.34c-.59,1.06-4.12,3.89-4.62,6.59-.16-2.74,3.56-6,4.62-6.59h0Z"/><path class="cls-3" d="m68.6,252.09l1.06-6.92-.47-.47c-1.1.86-2.46,1.87-4.11,3.05-1.56,1.09-3.36,2.15-5.4,3.16-1.95.94-4.14,1.76-6.57,2.46-2.34.71-4.92,1.06-7.74,1.06-4.61,0-8.91-.74-12.9-2.23-3.91-1.49-7.35-3.75-10.32-6.8-2.89-3.13-5.16-7.04-6.8-11.73-1.64-4.77-2.46-10.4-2.46-16.89s.82-12.08,2.46-16.77c1.64-4.77,3.91-8.68,6.8-11.73,2.97-3.13,6.41-5.43,10.32-6.92,3.99-1.49,8.29-2.23,12.9-2.23,2.81,0,5.39.39,7.74,1.17,2.35.7,4.46,1.6,6.33,2.7,1.88,1.09,3.52,2.23,4.93,3.4,1.41,1.17,2.5,2.23,3.28,3.17l.7-.23c.23-1.25.55-2.82.94-4.69.39-1.87.9-3.36,1.53-4.46-3.28-1.49-7.08-2.74-11.38-3.75-4.22-1.1-8.91-1.64-14.07-1.64-6.49,0-12.43.94-17.83,2.81-5.39,1.88-10.05,4.61-13.96,8.21-3.83,3.6-6.84,8.01-9.03,13.25-2.11,5.16-3.17,11.07-3.17,17.71s1.06,12.59,3.17,17.83c2.19,5.16,5.16,9.54,8.91,13.14,3.83,3.6,8.37,6.29,13.6,8.09,5.24,1.72,10.95,2.58,17.12,2.58,2.89,0,5.67-.24,8.33-.71,2.66-.47,5.04-.98,7.15-1.52,2.19-.62,4.03-1.29,5.51-1.99,1.56-.78,2.7-1.49,3.4-2.11h0Z"/><path class="cls-3" d="m86.19,206.7v20.17c0,5.16-.12,10.24-.35,15.25-.16,5-.35,9.93-.59,14.78,3.75-.16,7.35-.23,10.79-.23h21.7c3.6,0,7.19.08,10.79.23-.39-1.25-.59-2.3-.59-3.17,0-.94.19-2.11.59-3.52-5.86.78-11.34,1.25-16.42,1.41-5.08.08-10.4.12-15.95.12-.08-5.71-.16-12.16-.23-19.35-.08-7.27-.12-15.83-.12-25.69,0-5.16.08-10.2.23-15.13.23-5,.47-10.08.7-15.25-1.02.16-1.99.31-2.93.47-.94.08-1.88.12-2.81.12s-1.88-.04-2.81-.12c-.94-.16-1.91-.31-2.93-.47.23,5.16.43,10.25.59,15.25.23,4.93.35,9.97.35,15.13h0Z"/><path class="cls-4" d="m138.27,216.79c0,6.65,1.06,12.59,3.17,17.83,2.19,5.16,5.2,9.54,9.03,13.14,3.91,3.6,8.56,6.29,13.96,8.09,5.39,1.72,11.3,2.58,17.71,2.58s12.43-.86,17.83-2.58c5.39-1.8,10.01-4.49,13.84-8.09,3.91-3.6,6.92-7.98,9.03-13.14,2.19-5.24,3.28-11.18,3.28-17.83s-1.09-12.55-3.28-17.71c-2.11-5.24-5.12-9.65-9.03-13.25-3.83-3.6-8.44-6.33-13.84-8.21-5.4-1.87-11.34-2.81-17.83-2.81s-12.31.94-17.71,2.81c-5.39,1.88-10.05,4.61-13.96,8.21-3.83,3.6-6.84,8.01-9.03,13.25-2.11,5.16-3.17,11.07-3.17,17.71h0Zm76.35,0c0,6.49-.82,12.12-2.46,16.89-1.64,4.69-3.95,8.6-6.92,11.73-2.89,3.05-6.33,5.31-10.32,6.8-3.91,1.49-8.17,2.23-12.78,2.23s-8.8-.74-12.78-2.23c-3.91-1.49-7.35-3.75-10.32-6.8-2.89-3.13-5.16-7.04-6.8-11.73-1.64-4.77-2.46-10.4-2.46-16.89s.82-12.08,2.46-16.77c1.64-4.77,3.91-8.68,6.8-11.73,2.97-3.13,6.41-5.43,10.32-6.92,3.99-1.49,8.25-2.23,12.78-2.23s8.87.74,12.78,2.23c3.99,1.49,7.43,3.79,10.32,6.92,2.97,3.05,5.28,6.96,6.92,11.73,1.64,4.69,2.46,10.28,2.46,16.77h0Z"/><path class="cls-3" d="m261.41,256.9c1.02-.16,2.31-.23,3.87-.23,1.33,0,2.62.08,3.87.23,5.16-13.37,10.56-26.74,16.18-40.11,5.63-13.37,11.49-26.86,17.59-40.46-1.72.39-3.17.59-4.34.59s-2.62-.2-4.34-.59c-.86,2.58-1.92,5.63-3.17,9.15-1.25,3.52-2.66,7.31-4.22,11.38-1.49,4.06-3.05,8.32-4.69,12.78-1.64,4.38-3.32,8.71-5.04,13.02-1.64,4.22-3.28,8.33-4.93,12.31-1.64,3.91-3.17,7.47-4.57,10.67-2.5-5.94-4.97-11.92-7.39-17.94-2.42-6.02-4.81-11.96-7.15-17.83-2.27-5.86-4.46-11.61-6.57-17.24-2.03-5.71-3.91-11.14-5.63-16.3-1.09.16-2.15.31-3.17.47-1.02.08-1.99.12-2.93.12s-1.92-.04-2.93-.12c-1.02-.16-2.07-.31-3.17-.47,2.81,6.73,5.75,13.84,8.8,21.35,3.13,7.5,6.14,14.85,9.03,22.05,2.97,7.19,5.75,14.03,8.33,20.52,2.58,6.49,4.77,12.04,6.57,16.65h0Z"/><path class="cls-3" d="m316.41,206.59v20.17c0,5.16-.12,10.24-.35,15.24-.16,4.93-.35,9.89-.59,14.89,3.6-.16,7.15-.23,10.67-.23h21.23c3.52,0,7.04.08,10.55.23-.23-.78-.35-1.8-.35-3.05v-1.76c.08-.7.19-1.33.35-1.88-1.88.39-4.1.7-6.69.94-2.5.16-5.2.31-8.09.47-2.81.08-5.71.12-8.68.12h-8.21c-.08-1.49-.16-3.67-.23-6.57v-25.68c.08-.86.12-1.64.12-2.35,1.41,0,3.28.04,5.63.12,2.42,0,4.97.04,7.62.12,2.74,0,5.43.08,8.09.23,2.74.16,5.12.35,7.16.59-.23-1.17-.35-2.35-.35-3.52,0-1.25.12-2.46.35-3.63-1.72.16-3.56.31-5.51.47-1.88.08-3.95.19-6.22.35-2.27.08-4.77.16-7.5.23-2.74.08-5.83.12-9.27.12,0-1.49-.04-3.67-.12-6.57v-8.91c0-2.89.04-5.47.12-7.74.16-2.27.27-4.65.35-7.15,3.83,0,7.11.08,9.85.23,2.74.08,5.24.2,7.5.35,2.35.16,4.54.31,6.57.47,2.11.16,4.42.31,6.92.47-.23-1.17-.35-2.34-.35-3.52s.12-2.34.35-3.52c-3.52.16-7,.31-10.44.47-3.44.08-6.92.12-10.43.12s-7.04-.04-10.56-.12c-3.44-.16-6.92-.31-10.44-.47.23,5.01.43,10.01.59,15.01.23,5,.35,10.09.35,15.25h0Z"/><path class="cls-4" d="m375.05,206.7v20.17c0,5.16-.12,10.24-.35,15.25-.16,5-.35,9.93-.58,14.78,1.8-.16,3.71-.23,5.75-.23s3.95.08,5.75.23c-.23-4.85-.47-9.77-.7-14.78-.16-5-.23-10.09-.23-15.25v-8.56h4.45c2.5,2.58,5.24,5.74,8.21,9.5,3.05,3.67,6.02,7.39,8.91,11.14,2.89,3.75,5.51,7.27,7.86,10.55,2.42,3.28,4.22,5.75,5.4,7.39,1.09-.16,2.23-.23,3.4-.23h6.92c1.17,0,2.34.08,3.52.23-1.09-1.09-2.54-2.7-4.34-4.81-1.8-2.11-3.72-4.42-5.75-6.92-2.04-2.58-4.14-5.24-6.33-7.97-2.19-2.82-4.3-5.48-6.33-7.98-2.03-2.58-3.87-4.92-5.51-7.04-1.64-2.11-2.93-3.75-3.87-4.93,2.27-.31,4.77-.94,7.51-1.88,2.81-1.02,5.43-2.38,7.86-4.11,2.42-1.8,4.46-4.03,6.1-6.68,1.72-2.74,2.58-5.98,2.58-9.74,0-3.52-.66-6.45-1.99-8.79-1.25-2.35-3.01-4.22-5.28-5.63-2.19-1.49-4.77-2.54-7.74-3.17-2.97-.63-6.1-.94-9.38-.94-2.27,0-4.5.12-6.69.35-2.19.16-4.41.24-6.68.24s-4.5-.04-6.69-.12c-2.19-.16-4.42-.31-6.68-.47.23,5.16.43,10.25.58,15.25.23,4.93.35,9.97.35,15.13h0Zm9.62,6.69v-6.69c0-4.22.08-8.44.23-12.67.15-4.22.31-8.48.47-12.78,1.25-.16,2.77-.27,4.57-.35,1.8-.15,4.07-.23,6.8-.23,2.04,0,4.11.23,6.22.7,2.11.39,4.07,1.17,5.86,2.34,1.8,1.17,3.25,2.78,4.34,4.81,1.18,1.95,1.76,4.46,1.76,7.5,0,3.52-.74,6.45-2.23,8.8-1.41,2.27-3.2,4.1-5.4,5.51-2.19,1.33-4.61,2.27-7.27,2.82-2.58.54-5.08.82-7.5.82-1.56,0-3.01-.04-4.34-.12-1.25-.08-2.42-.24-3.51-.47h0Z"/><path class="cls-4" d="m488.92,215.5v-34.83h10.55c3.05,0,5.78.23,8.21.7,2.42.39,4.46,1.17,6.1,2.34,1.72,1.17,3.05,2.81,3.99,4.93.94,2.11,1.41,4.85,1.41,8.21,0,3.99-.7,7.27-2.11,9.85-1.33,2.5-3.09,4.5-5.28,5.98-2.11,1.41-4.46,2.39-7.04,2.93-2.58.55-5.08.82-7.51.82-2.89,0-5.67-.31-8.32-.94h0Zm-9.62-8.79v20.17c0,5.16-.12,10.24-.35,15.25-.15,5-.35,9.93-.58,14.78,1.8-.16,3.71-.23,5.75-.23s3.95.08,5.75.23c-.23-4.85-.47-9.77-.7-14.78-.16-5-.23-10.09-.23-15.25v-6.45c1.56.16,3.09.27,4.57.35h4.92c2.82,0,6.02-.31,9.62-.94,3.67-.62,7.12-1.84,10.32-3.63,3.28-1.8,6.02-4.3,8.21-7.51,2.27-3.2,3.4-7.38,3.4-12.55,0-3.28-.47-6.02-1.41-8.21-.94-2.27-2.19-4.14-3.75-5.63-1.48-1.49-3.17-2.62-5.04-3.4-1.87-.78-3.79-1.37-5.75-1.76-1.88-.39-3.68-.62-5.4-.7-1.72-.08-3.16-.12-4.34-.12-.86,0-1.91.04-3.17.12-1.25.08-2.58.16-3.99.23-1.33,0-2.66.04-3.99.12-1.33.08-2.46.12-3.4.12-1.88,0-3.79-.04-5.75-.12-1.87-.16-3.75-.31-5.63-.47.23,5.16.43,10.25.58,15.25.24,4.93.35,9.97.35,15.13h0Z"/><path class="cls-4" d="m550.84,220.42c2.04,0,4.15.04,6.33.12,2.19.08,4.3.12,6.33.12h6.57c2.19-.08,4.38-.16,6.57-.24l-13.02-29.79-12.78,29.79h0Zm51.96,36.47c-1.09-.16-2.15-.23-3.17-.23h-6.21c-.94,0-1.95.08-3.05.23-.55-1.8-1.29-3.95-2.23-6.45-.94-2.58-1.99-5.24-3.17-7.97-1.09-2.81-2.23-5.63-3.4-8.44-1.17-2.89-2.27-5.63-3.28-8.21-2.5-.08-5.04-.12-7.62-.12-2.58-.08-5.16-.12-7.74-.12-2.43,0-4.81.04-7.15.12-2.35,0-4.73.04-7.15.12-2.5,6.1-4.77,11.92-6.8,17.47-2.03,5.47-3.56,10.01-4.57,13.6-1.33-.16-2.77-.23-4.34-.23s-3.01.08-4.34.23c6.33-13.68,12.51-27.28,18.53-40.81,6.02-13.53,12.08-27.29,18.18-41.28h2.23c1.87,4.54,3.91,9.46,6.1,14.78,2.19,5.24,4.42,10.56,6.68,15.95,2.27,5.39,4.54,10.75,6.8,16.06,2.27,5.32,4.38,10.29,6.33,14.9,2.03,4.53,3.83,8.6,5.39,12.2,1.64,3.6,2.97,6.33,3.99,8.21h0Z"/><path class="cls-4" d="m616.28,206.7v20.17c0,5.16-.12,10.24-.35,15.25-.16,5-.35,9.93-.58,14.78,1.8-.16,3.71-.23,5.74-.23s3.95.08,5.75.23c-.23-4.85-.47-9.77-.7-14.78-.16-5-.24-10.09-.24-15.25v-8.56h4.46c2.5,2.58,5.24,5.74,8.21,9.5,3.05,3.67,6.02,7.39,8.91,11.14,2.89,3.75,5.51,7.27,7.86,10.55,2.43,3.28,4.22,5.75,5.4,7.39,1.09-.16,2.23-.23,3.4-.23h6.92c1.17,0,2.35.08,3.52.23-1.09-1.09-2.54-2.7-4.34-4.81-1.8-2.11-3.72-4.42-5.75-6.92-2.03-2.58-4.14-5.24-6.33-7.97-2.19-2.82-4.3-5.48-6.33-7.98-2.04-2.58-3.87-4.92-5.51-7.04-1.64-2.11-2.93-3.75-3.87-4.93,2.27-.31,4.77-.94,7.5-1.88,2.82-1.02,5.44-2.38,7.86-4.11,2.42-1.8,4.45-4.03,6.1-6.68,1.72-2.74,2.58-5.98,2.58-9.74,0-3.52-.66-6.45-1.99-8.79-1.25-2.35-3.01-4.22-5.28-5.63-2.19-1.49-4.77-2.54-7.74-3.17-2.97-.63-6.1-.94-9.38-.94-2.26,0-4.49.12-6.68.35-2.19.16-4.42.24-6.68.24s-4.5-.04-6.68-.12c-2.19-.16-4.42-.31-6.68-.47.23,5.16.43,10.25.58,15.25.23,4.93.35,9.97.35,15.13h0Zm9.62,6.69v-6.69c0-4.22.08-8.44.24-12.67.15-4.22.31-8.48.47-12.78,1.25-.16,2.78-.27,4.57-.35,1.8-.15,4.06-.23,6.8-.23,2.04,0,4.1.23,6.22.7,2.11.39,4.06,1.17,5.86,2.34,1.8,1.17,3.25,2.78,4.34,4.81,1.17,1.95,1.76,4.46,1.76,7.5,0,3.52-.74,6.45-2.23,8.8-1.41,2.27-3.2,4.1-5.4,5.51-2.19,1.33-4.61,2.27-7.27,2.82-2.58.54-5.08.82-7.5.82-1.56,0-3.01-.04-4.34-.12-1.25-.08-2.42-.24-3.52-.47h0Z"/><path class="cls-3" d="m687,256.9c1.8-.16,3.71-.23,5.75-.23s3.95.08,5.75.23c-.23-4.85-.47-9.77-.7-14.78-.16-5-.23-10.09-.23-15.25v-10.2c0-.47.2-.7.59-.7.31,0,.78.31,1.41.94,1.25,1.25,3.17,3.44,5.75,6.57,2.66,3.05,5.59,6.53,8.8,10.44,3.28,3.83,6.6,7.82,9.97,11.96,3.44,4.14,6.57,7.82,9.38,11.02,1.1-.16,2.15-.23,3.17-.23h6.8c1.17,0,2.34.08,3.52.23-6.65-7.43-13.21-14.81-19.7-22.16-6.41-7.43-12.79-14.7-19.12-21.81,2.11-2.42,4.73-5.24,7.86-8.44,3.2-3.28,6.53-6.61,9.97-9.97,3.52-3.36,7-6.64,10.44-9.85,3.44-3.21,6.53-5.98,9.27-8.33-.94.16-1.88.31-2.81.47-.94.08-1.88.12-2.82.12-.78,0-1.56-.04-2.35-.12-.78-.16-1.6-.31-2.46-.47-2.73,3.13-5.59,6.37-8.56,9.74-2.97,3.28-5.98,6.53-9.03,9.73-3.05,3.21-6.1,6.29-9.15,9.27-2.97,2.97-5.83,5.63-8.56,7.97-.78.7-1.33,1.06-1.64,1.06-.47,0-.7-.31-.7-.94v-6.45c0-5.16.08-10.2.23-15.13.23-5,.47-10.08.7-15.25-1.02.16-1.99.31-2.93.47-.94.08-1.88.12-2.82.12s-1.88-.04-2.81-.12c-.94-.16-1.92-.31-2.93-.47.24,5.16.43,10.25.58,15.25.24,4.93.36,9.97.36,15.13v20.17c0,5.16-.12,10.24-.36,15.25-.15,5-.35,9.93-.58,14.78h0Z"/><path class="cls-5" d="m338.48,288.83c-.71,1.64-1.38,3.26-2.01,4.86-.63,1.6-1.24,3.23-1.85,4.9h7.5c-.6-1.67-1.2-3.3-1.78-4.9-.59-1.6-1.21-3.22-1.87-4.86Z"/><path class="cls-5" d="m510.12,286c-.78-.98-1.72-1.74-2.83-2.28-1.11-.53-2.32-.8-3.63-.8-1.39,0-2.64.34-3.75,1-1.11.67-2.04,1.58-2.81,2.73-.77,1.15-1.35,2.5-1.74,4.04-.4,1.54-.59,3.19-.59,4.94,0,2.19.23,4.03.7,5.53.46,1.5,1.09,2.71,1.89,3.63.79.92,1.71,1.58,2.75,1.99,1.04.41,2.13.61,3.28.61,1.23,0,2.41-.26,3.53-.78,1.12-.52,2.1-1.31,2.93-2.38.83-1.07,1.5-2.42,2.01-4.06.51-1.64.76-3.58.76-5.82,0-1.78-.22-3.37-.66-4.78-.44-1.41-1.04-2.6-1.82-3.59Z"/><path class="cls-5" d="m0,270.2v50.18h748.46v-50.18H0Zm45.27,13.63c.04.3.09.6.14.9-.55-.08-1.16-.16-1.85-.23-.68-.07-1.36-.12-2.03-.16-.67-.04-1.31-.07-1.91-.1-.6-.03-1.11-.04-1.52-.04-.03.14-.05.33-.06.57-.01.25-.02.53-.02.86v12.42c0,2.27.03,4.29.08,6.05.05,1.76.14,3.49.25,5.19-.46-.05-.97-.08-1.52-.08h-3.69c-.55,0-1.05.03-1.52.08.11-1.69.19-3.42.25-5.19s.08-3.78.08-6.05v-10.25c0-.79,0-1.52-.02-2.17-.01-.66-.05-1.13-.1-1.43-.41,0-.92.01-1.52.04-.6.03-1.24.06-1.93.1-.68.04-1.38.1-2.09.16-.71.07-1.37.14-1.97.23.05-.3.1-.6.14-.9s.06-.6.06-.9-.02-.6-.06-.9c-.04-.3-.09-.6-.14-.9.93.03,1.77.06,2.52.08.75.03,1.52.05,2.3.06.78.01,1.63.03,2.54.04.92.01,2.02.02,3.3.02s2.38,0,3.3-.02c.92-.01,1.76-.03,2.52-.04s1.51-.03,2.23-.06c.72-.03,1.51-.05,2.36-.08-.06.3-.1.6-.14.9-.04.3-.06.6-.06.9s.02.6.06.9Zm38.15.04c.03.25.07.52.12.82-.79-.05-1.66-.11-2.6-.16-.94-.05-1.86-.11-2.75-.16s-1.69-.1-2.4-.12c-.71-.03-1.22-.04-1.52-.04-.11,1.5-.17,2.99-.18,4.47-.01,1.48-.02,2.97-.02,4.47,1.78-.03,3.38-.07,4.82-.12,1.44-.05,2.93-.12,4.49-.21-.08.46-.14.82-.16,1.07-.03.25-.04.51-.04.78,0,.22.02.44.06.68.04.23.09.57.14,1-3.12-.25-6.22-.37-9.31-.37,0,.88,0,1.75-.02,2.62-.01.88-.02,1.75-.02,2.62,0,1.78.04,3.49.12,5.12,1.56,0,3.12-.04,4.67-.12,1.56-.08,3.13-.22,4.71-.41-.06.3-.1.57-.12.82-.03.25-.04.59-.04,1.02s.01.78.04,1.03c.03.25.07.45.12.62-.74-.03-1.65-.05-2.73-.06-1.08-.01-2.56-.02-4.45-.02h-6.5c-.62,0-1.08,0-1.39.02-.31.01-.58.03-.8.06.1-1.69.17-3.42.22-5.19.05-1.76.07-3.78.07-6.05v-5.58c0-2.27-.02-4.28-.07-6.05-.05-1.76-.12-3.53-.22-5.31,1.23.03,2.45.07,3.65.12,1.2.06,2.42.08,3.65.08,2.02,0,3.82-.02,5.39-.06,1.57-.04,2.63-.09,3.18-.14-.11.44-.16,1.01-.16,1.72,0,.44.01.78.04,1.03Zm29.27,17.16c.57,1.49,1.32,2.71,2.23,3.65.92.94,1.95,1.63,3.12,2.07,1.16.44,2.33.66,3.51.66.66,0,1.33-.07,2.01-.22s1.35-.36,2.01-.62c.66-.26,1.28-.58,1.87-.96s1.1-.81,1.54-1.27l.53.33c-.22.57-.41,1.15-.57,1.74-.16.59-.27,1.17-.33,1.74-2.21,1.12-5,1.68-8.36,1.68-2.38,0-4.5-.34-6.38-1-1.87-.67-3.46-1.61-4.76-2.83-1.3-1.22-2.29-2.66-2.97-4.33-.68-1.67-1.02-3.47-1.02-5.41,0-2.84.44-5.25,1.33-7.24.89-1.98,2.08-3.59,3.57-4.84,1.49-1.24,3.22-2.15,5.19-2.73,1.97-.57,4.03-.86,6.19-.86.71,0,1.46.06,2.25.16.79.11,1.56.25,2.3.43.74.18,1.44.39,2.11.63.67.25,1.24.51,1.7.78-.27.68-.49,1.37-.64,2.07-.15.7-.25,1.4-.31,2.11h-.57c-1.04-1.31-2.1-2.25-3.2-2.81-1.09-.56-2.38-.84-3.85-.84-1.09,0-2.19.25-3.3.74-1.11.49-2.11,1.24-3.01,2.25-.9,1.01-1.63,2.3-2.19,3.87-.56,1.57-.84,3.45-.84,5.64s.29,3.9.86,5.39Zm65.11,3.08c.05,1.76.14,3.49.25,5.19-.47-.05-.97-.08-1.52-.08h-3.69c-.55,0-1.05.03-1.52.08.11-1.69.19-3.42.25-5.19.05-1.76.08-3.78.08-6.05v-2.34c-1.04-.03-2.08-.06-3.12-.1-1.04-.04-2.08-.06-3.12-.06s-2.08.01-3.12.04c-1.04.03-2.08.07-3.12.12v2.34c0,2.27.03,4.29.08,6.05.05,1.76.14,3.49.25,5.19-.46-.05-.97-.08-1.52-.08h-3.69c-.55,0-1.05.03-1.52.08.11-1.69.19-3.42.25-5.19.05-1.76.08-3.78.08-6.05v-5.58c0-2.27-.03-4.28-.08-6.05-.06-1.76-.14-3.53-.25-5.31.46.06.97.1,1.52.14.55.04,1.16.06,1.85.06s1.3-.02,1.84-.06c.55-.04,1.05-.09,1.52-.14-.14,1.78-.23,3.53-.27,5.27-.04,1.74-.06,3.74-.06,6.01.71.03,1.56.05,2.56.06,1,.01,2.23.02,3.71.02s2.68,0,3.61-.02c.93-.01,1.79-.03,2.58-.06,0-2.27-.03-4.27-.08-6.01-.06-1.74-.14-3.49-.25-5.27.46.06.97.1,1.52.14.55.04,1.16.06,1.84.06s1.3-.02,1.85-.06c.55-.04,1.05-.09,1.52-.14-.11,1.78-.19,3.55-.25,5.31-.06,1.76-.08,3.78-.08,6.05v5.58c0,2.27.03,4.29.08,6.05Zm50.39-16.24c-.08,2.01-.15,3.9-.21,5.68-.06,1.78-.09,3.53-.1,5.27-.01,1.74-.02,3.59-.02,5.56v4.92c-.55-.05-1.11-.08-1.68-.08s-1.13.03-1.6.08c-5.63-6.56-11.6-13.16-17.92-19.8-.03.79-.05,1.59-.06,2.38-.01.79-.02,1.6-.02,2.42v4.76c0,1.64,0,3.03.02,4.18.01,1.15.03,2.12.06,2.91.03.79.05,1.44.08,1.95.03.51.05.91.08,1.21-.33-.05-.66-.08-.98-.08h-.94c-.63,0-1.26.03-1.89.08.05-.22.12-1,.2-2.34.08-1.34.17-2.97.27-4.9.1-1.93.18-4.02.25-6.27.07-2.25.1-4.42.1-6.5,0-1.89-.03-3.47-.08-4.76-.06-1.29-.1-2.42-.12-3.4.77.14,1.38.2,1.85.2s1.08-.07,1.84-.2c2.98,3.31,5.92,6.56,8.84,9.76,2.91,3.2,5.9,6.45,8.96,9.76v-7.55c0-1.34,0-2.66-.02-3.96-.01-1.3-.03-2.49-.04-3.59-.01-1.09-.04-2.04-.08-2.83-.04-.79-.09-1.33-.14-1.6.77.14,1.38.2,1.85.2s1.08-.07,1.85-.2c-.14,2.49-.25,4.74-.33,6.75Zm31.94,16.24c.05,1.76.14,3.49.25,5.19-.46-.05-.97-.08-1.52-.08h-3.69c-.55,0-1.05.03-1.52.08.11-1.69.19-3.42.25-5.19.05-1.76.08-3.78.08-6.05v-5.58c0-2.27-.03-4.28-.08-6.05-.06-1.76-.14-3.53-.25-5.31.46.06.97.1,1.52.14.55.04,1.16.06,1.85.06s1.3-.02,1.84-.06c.55-.04,1.05-.09,1.52-.14-.11,1.78-.19,3.55-.25,5.31-.06,1.76-.08,3.78-.08,6.05v5.58c0,2.27.03,4.29.08,6.05Zm31.16-3.08c.57,1.49,1.32,2.71,2.23,3.65.92.94,1.95,1.63,3.12,2.07,1.16.44,2.33.66,3.51.66.66,0,1.33-.07,2.01-.22s1.35-.36,2.01-.62c.66-.26,1.28-.58,1.87-.96.59-.38,1.1-.81,1.54-1.27l.53.33c-.22.57-.41,1.15-.57,1.74-.16.59-.27,1.17-.33,1.74-2.21,1.12-5,1.68-8.36,1.68-2.38,0-4.5-.34-6.38-1-1.87-.67-3.46-1.61-4.76-2.83-1.3-1.22-2.29-2.66-2.97-4.33-.68-1.67-1.02-3.47-1.02-5.41,0-2.84.44-5.25,1.33-7.24.89-1.98,2.08-3.59,3.57-4.84,1.49-1.24,3.22-2.15,5.19-2.73,1.97-.57,4.03-.86,6.19-.86.71,0,1.46.06,2.25.16.79.11,1.56.25,2.3.43.74.18,1.44.39,2.11.63.67.25,1.24.51,1.7.78-.27.68-.49,1.37-.64,2.07-.15.7-.25,1.4-.31,2.11h-.57c-1.04-1.31-2.1-2.25-3.2-2.81-1.09-.56-2.38-.84-3.85-.84-1.09,0-2.19.25-3.3.74-1.11.49-2.11,1.24-3.01,2.25-.9,1.01-1.63,2.3-2.19,3.87-.56,1.57-.84,3.45-.84,5.64s.29,3.9.86,5.39Zm59.84,8.18h-3.49c-.59,0-1.17.03-1.74.08-.44-1.34-.89-2.71-1.35-4.1-.46-1.39-.96-2.79-1.48-4.18-.87-.03-1.75-.05-2.62-.06s-1.75-.02-2.62-.02c-.71,0-1.42,0-2.13.02-.71.01-1.42.04-2.13.06-.55,1.39-1.05,2.79-1.52,4.18-.46,1.39-.89,2.76-1.27,4.1-.33-.05-.65-.08-.96-.08h-1.95c-.33,0-.68.03-1.07.08.33-.71.76-1.69,1.31-2.95.55-1.26,1.15-2.68,1.8-4.26.66-1.58,1.36-3.29,2.11-5.1.75-1.82,1.5-3.66,2.26-5.51.75-1.86,1.49-3.69,2.21-5.49.72-1.8,1.39-3.49,1.99-5.04.27.06.53.1.78.14.25.04.51.06.78.06s.53-.02.78-.06c.25-.04.51-.09.78-.14.87,2.32,1.81,4.81,2.81,7.46,1,2.65,2,5.26,3.01,7.81,1.01,2.56,2,4.98,2.95,7.28.96,2.3,1.83,4.24,2.62,5.82-.66-.05-1.28-.08-1.87-.08Zm39.95-.53c.03.25.07.45.12.62-.74-.03-1.65-.05-2.73-.06-1.08-.01-2.56-.02-4.45-.02h-6.5c-.62,0-1.08,0-1.39.02-.31.01-.58.03-.8.06.11-1.69.19-3.42.25-5.19.05-1.76.08-3.78.08-6.05v-5.58c0-2.27-.03-4.28-.08-6.05-.05-1.76-.14-3.53-.25-5.31.46.06.97.1,1.52.14.55.04,1.16.06,1.84.06s1.3-.02,1.84-.06c.55-.04,1.05-.09,1.52-.14-.11,1.78-.19,3.55-.25,5.31-.05,1.76-.08,3.78-.08,6.05v5.58c0,1.56,0,3.06.02,4.51.01,1.45.04,2.71.06,3.77,1.56,0,3.12-.04,4.67-.12,1.56-.08,3.13-.22,4.71-.41-.05.3-.1.57-.12.82s-.04.59-.04,1.02.01.78.04,1.03Zm58.75-7.65c.57,1.49,1.32,2.71,2.24,3.65.91.94,1.95,1.63,3.12,2.07,1.16.44,2.33.66,3.51.66.66,0,1.33-.07,2.01-.22.68-.15,1.35-.36,2.01-.62.66-.26,1.28-.58,1.87-.96.59-.38,1.1-.81,1.54-1.27l.53.33c-.22.57-.41,1.15-.57,1.74-.16.59-.27,1.17-.33,1.74-2.21,1.12-5,1.68-8.36,1.68-2.38,0-4.5-.34-6.38-1-1.87-.67-3.46-1.61-4.76-2.83-1.3-1.22-2.29-2.66-2.97-4.33-.68-1.67-1.03-3.47-1.03-5.41,0-2.84.44-5.25,1.33-7.24.89-1.98,2.08-3.59,3.57-4.84,1.49-1.24,3.22-2.15,5.19-2.73,1.97-.57,4.03-.86,6.19-.86.71,0,1.46.06,2.25.16.79.11,1.56.25,2.3.43.74.18,1.44.39,2.11.63.67.25,1.24.51,1.7.78-.27.68-.49,1.37-.64,2.07-.15.7-.25,1.4-.31,2.11h-.57c-1.04-1.31-2.1-2.25-3.2-2.81-1.09-.56-2.38-.84-3.85-.84-1.09,0-2.19.25-3.3.74-1.11.49-2.11,1.24-3.01,2.25-.9,1.01-1.63,2.3-2.19,3.87-.56,1.57-.84,3.45-.84,5.64s.29,3.9.86,5.39Zm68.33-.06c-.78,1.78-1.86,3.33-3.24,4.65-1.38,1.33-3.03,2.36-4.94,3.1-1.91.74-4.02,1.11-6.31,1.11-2.16,0-4.19-.27-6.09-.8-1.9-.53-3.55-1.39-4.96-2.58-1.41-1.19-2.52-2.71-3.34-4.55-.82-1.85-1.23-4.05-1.23-6.62,0-2.02.38-3.92,1.13-5.7.75-1.78,1.81-3.34,3.18-4.67,1.37-1.34,3.02-2.39,4.96-3.16,1.94-.76,4.1-1.15,6.48-1.15,2.19,0,4.22.3,6.11.9,1.89.6,3.53,1.5,4.92,2.71,1.39,1.2,2.49,2.73,3.3,4.57.81,1.84,1.21,4,1.21,6.46,0,2.05-.39,3.96-1.17,5.74Zm40.12,7.71c.03.25.07.45.12.62-.74-.03-1.65-.05-2.73-.06-1.08-.01-2.56-.02-4.45-.02h-6.5c-.62,0-1.08,0-1.39.02-.31.01-.58.03-.8.06.11-1.69.19-3.42.25-5.19.05-1.76.08-3.78.08-6.05v-5.58c0-2.27-.03-4.28-.08-6.05-.06-1.76-.14-3.53-.25-5.31.46.06.97.1,1.52.14.55.04,1.16.06,1.84.06s1.3-.02,1.85-.06c.55-.04,1.05-.09,1.52-.14-.11,1.78-.19,3.55-.25,5.31-.05,1.76-.08,3.78-.08,6.05v5.58c0,1.56,0,3.06.02,4.51.01,1.45.03,2.71.06,3.77,1.56,0,3.12-.04,4.67-.12,1.56-.08,3.13-.22,4.72-.41-.06.3-.1.57-.12.82-.03.25-.04.59-.04,1.02s.01.78.04,1.03Zm38.95,0c.03.25.07.45.12.62-.74-.03-1.65-.05-2.73-.06-1.08-.01-2.56-.02-4.45-.02h-6.5c-.62,0-1.08,0-1.39.02-.31.01-.58.03-.8.06.11-1.69.19-3.42.25-5.19.05-1.76.08-3.78.08-6.05v-5.58c0-2.27-.03-4.28-.08-6.05-.06-1.76-.14-3.53-.25-5.31.46.06.97.1,1.52.14.55.04,1.16.06,1.84.06s1.3-.02,1.85-.06c.55-.04,1.05-.09,1.52-.14-.11,1.78-.19,3.55-.25,5.31-.05,1.76-.08,3.78-.08,6.05v5.58c0,1.56,0,3.06.02,4.51.01,1.45.03,2.71.06,3.77,1.56,0,3.12-.04,4.67-.12,1.56-.08,3.13-.22,4.72-.41-.06.3-.1.57-.12.82-.03.25-.04.59-.04,1.02s.01.78.04,1.03Zm38.58-24.8c.03.25.07.52.12.82-.79-.05-1.66-.11-2.6-.16-.94-.05-1.86-.11-2.75-.16-.89-.05-1.69-.1-2.4-.12-.71-.03-1.22-.04-1.52-.04-.11,1.5-.17,2.99-.18,4.47s-.02,2.97-.02,4.47c1.78-.03,3.38-.07,4.82-.12,1.44-.05,2.93-.12,4.49-.21-.08.46-.14.82-.16,1.07-.03.25-.04.51-.04.78,0,.22.02.44.06.68.04.23.09.57.14,1-3.12-.25-6.22-.37-9.31-.37,0,.88,0,1.75-.02,2.62s-.02,1.75-.02,2.62c0,1.78.04,3.49.12,5.12,1.56,0,3.12-.04,4.67-.12,1.56-.08,3.13-.22,4.72-.41-.06.3-.1.57-.12.82-.03.25-.04.59-.04,1.02s.01.78.04,1.03c.03.25.07.45.12.62-.74-.03-1.65-.05-2.73-.06-1.08-.01-2.56-.02-4.45-.02h-6.5c-.62,0-1.08,0-1.39.02-.32.01-.58.03-.8.06.1-1.69.17-3.42.21-5.19.05-1.76.07-3.78.07-6.05v-5.58c0-2.27-.02-4.28-.07-6.05-.05-1.76-.12-3.53-.21-5.31,1.23.03,2.45.07,3.65.12,1.2.06,2.42.08,3.65.08,2.02,0,3.82-.02,5.39-.06,1.57-.04,2.63-.09,3.18-.14-.11.44-.16,1.01-.16,1.72,0,.44.01.78.04,1.03Zm49.38,13.94c-.04.49-.08,1.06-.1,1.7-.03.64-.05,1.33-.06,2.05-.01.72-.02,1.41-.02,2.07v1.35c0,.68,0,1.32.02,1.91.01.59.05,1,.1,1.25-1.8.52-3.63.93-5.47,1.23-1.84.3-3.67.45-5.47.45-2.35,0-4.52-.31-6.5-.92-1.98-.61-3.69-1.52-5.12-2.71-1.43-1.19-2.56-2.62-3.36-4.3-.81-1.68-1.21-3.57-1.21-5.68,0-2.6.43-4.87,1.29-6.83.86-1.95,2.05-3.58,3.57-4.88,1.52-1.3,3.31-2.28,5.39-2.93,2.08-.66,4.32-.98,6.72-.98,2.08,0,3.87.21,5.39.64,1.52.42,3.01,1.03,4.49,1.82-.22.71-.43,1.41-.64,2.09-.21.68-.38,1.38-.51,2.09h-.57c-.87-1.23-1.97-2.22-3.28-2.97-1.31-.75-2.91-1.13-4.8-1.13-1.26,0-2.51.27-3.75.8-1.24.53-2.35,1.33-3.32,2.4-.97,1.07-1.76,2.4-2.36,4-.6,1.6-.9,3.48-.9,5.64,0,1.64.23,3.16.68,4.55.45,1.39,1.1,2.6,1.95,3.63.85,1.02,1.89,1.83,3.12,2.4,1.23.57,2.64.86,4.22.86.35,0,.76-.02,1.21-.06.45-.04.89-.09,1.31-.14.42-.05.81-.13,1.17-.23.36-.1.62-.2.78-.31.05-.33.09-.74.1-1.23.01-.49.02-1.04.02-1.64,0-2.21-.04-3.85-.12-4.9-.08-1.05-.14-1.77-.16-2.15.27.06.64.1,1.09.14.45.04,1.1.06,1.95.06.98,0,1.71-.02,2.19-.06.48-.04.85-.09,1.13-.14-.06.22-.1.57-.14,1.07Zm39.91-13.94c.03.25.07.52.12.82-.79-.05-1.66-.11-2.6-.16-.94-.05-1.86-.11-2.75-.16-.89-.05-1.69-.1-2.4-.12-.71-.03-1.22-.04-1.52-.04-.11,1.5-.17,2.99-.18,4.47-.01,1.48-.02,2.97-.02,4.47,1.78-.03,3.38-.07,4.82-.12,1.44-.05,2.93-.12,4.49-.21-.08.46-.14.82-.16,1.07-.03.25-.04.51-.04.78,0,.22.02.44.06.68.04.23.09.57.14,1-3.12-.25-6.22-.37-9.31-.37,0,.88,0,1.75-.02,2.62s-.02,1.75-.02,2.62c0,1.78.04,3.49.12,5.12,1.56,0,3.12-.04,4.67-.12,1.56-.08,3.13-.22,4.72-.41-.06.3-.1.57-.12.82-.03.25-.04.59-.04,1.02s.01.78.04,1.03c.03.25.07.45.12.62-.74-.03-1.65-.05-2.73-.06-1.08-.01-2.56-.02-4.45-.02h-6.5c-.62,0-1.08,0-1.39.02-.32.01-.58.03-.8.06.1-1.69.17-3.42.21-5.19.05-1.76.07-3.78.07-6.05v-5.58c0-2.27-.02-4.28-.07-6.05-.05-1.76-.12-3.53-.21-5.31,1.23.03,2.45.07,3.65.12,1.2.06,2.42.08,3.65.08,2.02,0,3.82-.02,5.39-.06,1.57-.04,2.63-.09,3.18-.14-.11.44-.16,1.01-.16,1.72,0,.44.01.78.04,1.03Z"/></svg>