<svg xmlns="http://www.w3.org/2000/svg" height="71.043" viewBox="0 0 250 71.042921" width="250"><g transform="matrix(.95916 0 0 .95916 .91042 1.0896)"><path fill="#5e6a71" d="m194.75 0c-3.953 0-7.1523 2.4332-7.1523 5.5352 0 3.737 2.2983 5.0814 4.1523 6.3164 5.15 3.393 6.3516 5.2152 6.3516 7.4492 0 2.506-2.2163 4.3594-4.6543 4.3594-2.65 0-5.1483-1.5113-5.5293-5.3223h-0.89258v4.9492c0 0.27 0.10629 0.41052 0.23829 0.47852 1.787 0.684 3.6759 1.0996 5.8789 1.0996 4.117 0 8.0801-2.2685 8.0801-6.3535 0-2.85-1.1736-4.6015-4.8106-7.3145-3.436-2.578-5.8379-4.0188-5.8379-6.4238 0-2.54 2.0129-3.5703 4.0059-3.5703 2.747 0 4.0522 1.923 4.3242 4.332h0.89453v-4.502c0-0.17-0.0332-0.31495-0.24023-0.37695-1.38-0.4838-3.34-0.65605-4.81-0.65605zm-194.75 0.90039v0.85551c1.742 0 2.0548 1.3544 3.1738 4.5684l5.9473 17.584h1.5664l6.3633-17.934 6.2715 17.951h1.752c2.683-7.141 6.4596-17.7 7.8496-20.543 0.517-1.067 1.4522-1.6172 2.3242-1.6172v-0.83789h-0.11914v-0.027344h-6.9043v0.85547c2.665 0.029 3.0984 0.97914 2.3984 2.9941l-5.2246 14.229h-0.29102l-6.1523-17.785h-1.5566l-6.4648 17.785h-0.43945l-4.6327-14.132c-0.658-2.238 0.25903-3.0898 2.332-3.0898v-0.85547h-8.1934zm52.008 2.9648c-3.088 0-5.7734 1.9082-5.7734 4.3262 0 1.311 0.36162 2.2419 0.89062 2.9609h-0.0098c0.01 0.01 0.0222 0.01834 0.0332 0.02734 0.649 0.87 1.5439 1.4241 2.3359 1.9531 4.028 2.658 4.9688 4.0821 4.9688 5.8281 0 1.623-1.2198 3.2492-3.4648 3.4102-2.299 0.165-5.255-0.94683-6.498-4.1738-1.104-3.094-3.3521-9.5989-4.8691-14.088h-1.4785c-2.119 5.643-4.9908 13.913-6.0898 16.158-0.405 0.844-1.1449 1.2773-1.8359 1.2773v0.66406h1.1035 3.541v-0.66406c-1.122 0-1.6064-0.84384-1.2754-1.8398l1.1758-3.4199h6.5078l1.0977 3.293 0.8457 2.5371s4.5632 1.1953 7.5332 1.1953c3.223 0 6.5-1.7728 6.5-4.9688 0.001-2.228-0.91277-3.5978-3.7598-5.7188-2.685-2.015-4.5645-3.1434-4.5645-5.0234 0-1.986 1.3951-2.7949 2.9531-2.7949 2.149 0 3.1688 1.5057 3.3848 3.3867h0.69531v-3.5195c0-0.135-0.0255-0.24092-0.1875-0.29492-1.074-0.376-2.6048-0.51172-3.7598-0.51172zm68.143 0.16797c-6.89 0-10.209 5.2116-10.209 9.1426 0 6.841 4.7241 9.3438 9.9551 9.3418 2.324 0 4.4666-0.53583 6.1016-1.1738v-4.4434c0-2.376-0.10264-2.2453 2.1934-2.5273v-0.66016h-7.377v0.66016c2.806 0.282 2.707 0.15134 2.707 2.5273v1.5586c0 1.987-0.28065 3.168-3.4726 3.168-5.182 0-7.2233-4.6262-7.1973-8.6582 0.024-4.364 1.7597-8.0371 7.0957-8.0371 4.057 0 5.3595 2.2187 5.4355 4.2617h0.66407v-3.293c0-0.409-0.2811-0.76319-0.9961-0.99219-1.251-0.413-2.4254-0.875-4.9004-0.875zm32.672 0c-5.307 0-9.5957 4.0572-9.5957 9.5742 0 4.956 3.8008 8.9131 8.6758 8.9121 5.642 0 9.6758-4.3903 9.6758-9.7773 0-3.934-3.2178-8.709-8.7558-8.709zm69.475 0.019531c-2.12 5.646-5.1061 13.99-6.2031 16.24-0.408 0.838-1.1519 1.2793-1.8379 1.2793v0.6582h4.6445v-0.6582c-1.124 0-1.6064-0.84375-1.2734-1.8438l1.168-3.4238h6.5117l1.1035 3.2949c0.408 1.129 0.24957 1.9727-1.3574 1.9727v0.6582h5.9492v-0.6582c-1.095 0-1.5034-0.826-2.0684-2.25-0.87-2.269-3.472-10.138-5.207-15.27h-1.4297zm-164.33 0.29492v0.66016c2.296 0.281 3.3984 0.15344 3.3984 2.5234v11.49c0 2.375 0.10364 2.2463-2.1934 2.5273v0.66211h6.8652v-0.66211c-2.296-0.281-2.1914-0.15234-2.1914-2.5273v-6.0273h8.957v6.0273c0 2.375 0.10169 2.2463-2.1953 2.5273v0.66211h6.8633v-0.66211c-2.293-0.281-2.1934-0.15234-2.1934-2.5273v-11.49c0-2.37-0.09964-2.2424 2.1934-2.5234v-0.66016h-6.8633v0.66016c2.297 0.281 2.1953 0.15344 2.1953 2.5234v4.4199h-8.957v-4.4199c0-2.37-0.10459-2.2424 2.1914-2.5234v-0.66016h-8.0703zm22.316 0v0.66016c2.297 0.281 2.1953 0.15344 2.1953 2.5234v11.49c0 2.375 0.10169 2.2463-2.1953 2.5273v0.66211h6.8652v-0.66211c-2.297-0.281-2.1934-0.15234-2.1934-2.5273v-11.49c0-2.37-0.10364-2.2424 2.1934-2.5234v-0.66016h-6.8652zm9.4297 0v0.66016c1.456 0 2.2478 0.81838 2.9648 1.7344v12.025c-0.000001 0.531-0.1053 0.96995-0.1543 1.377-0.129 0.922-0.97231 1.2723-2.1953 1.4043v0.66211h6.25v-0.66211c-1.684-0.132-2.5488-0.4823-2.6758-1.4043-0.053-0.407-0.1543-0.84595-0.1543-1.377v-11.287c4.158 4.902 8.3717 9.9335 12.43 14.73h0.86719v-14.42c-0.00001-0.538 0.10139-0.97386 0.15039-1.3809 0.132-0.919 0.99921-1.2733 2.1992-1.4023v-0.66016h-6.2559v0.66016c1.684 0.129 2.5547 0.48334 2.6797 1.4023 0.052 0.407 0.15235 0.84286 0.15235 1.3809v10.488h-0.0488c-3.802-4.619-7.7595-9.3156-11.563-13.932h-4.6465zm39.168 0-0.6914 3.9004h0.63671c0.84401-1.688 1.3532-3.0879 3.5742-3.0879h2.0684v13.861c0 2.375 0.10164 2.2463-2.1934 2.5273v0.66211h6.8652v-0.66211c-2.298-0.281-2.1953-0.15234-2.1953-2.5273h0.002v-13.861h2.0684c2.22 0 2.7303 1.3999 3.5703 3.0879h0.63867l-0.68945-3.9004h-13.654zm32.693 0v0.66016c1.456 0 2.2479 0.81838 2.9609 1.7344v12.025c0 0.531-0.10134 0.96995-0.15234 1.377-0.128 0.922-0.96832 1.2723-2.1953 1.4043v0.66211h6.252v-0.66211c-1.683-0.132-2.5497-0.4823-2.6777-1.4043-0.053-0.407-0.15429-0.84595-0.15429-1.377v-11.287c4.162 4.902 8.3716 9.9335 12.434 14.73h0.86328v-14.42c0-0.538 0.1033-0.97386 0.1543-1.3809 0.128-0.919 0.99536-1.2733 2.1934-1.4023v-0.66016h-6.252v0.66016c1.686 0.129 2.5527 0.48334 2.6797 1.4023 0.05 0.407 0.15039 0.84286 0.15039 1.3809v10.488h-0.0469c-3.806-4.619-7.7585-9.3156-11.562-13.932h-4.6465zm40.24 0.011719-0.68555 3.9004h0.63476c0.84201-1.682 1.3532-3.0879 3.5742-3.0879h2.0703v13.867c0 2.379 0.10073 2.2422-2.1973 2.5332v0.65625h6.8691v-0.65625c-2.296-0.291-2.1973-0.1542-2.1973-2.5332h0.002v-13.867h2.0703c2.219 0 2.7303 1.4059 3.5723 3.0879h0.63867l-0.69141-3.9004h-13.66zm28.092 0-0.69336 3.9004h0.63868c0.848-1.682 1.3532-3.0879 3.5762-3.0879h2.0703v13.867c0 2.379 0.0988 2.2422-2.1992 2.5332v0.65625h6.8691v-0.65625c-2.295-0.291-2.1934-0.1542-2.1934-2.5332v-13.867h2.0703c2.221 0 2.7314 1.4059 3.5664 3.0879h0.64063l-0.6875-3.9004h-13.658zm15.553 0v0.66016c2.302 0.28 1.9707 0.15334 1.9707 2.5273v11.492c0 2.379 0.3313 2.2422-1.9707 2.5332v0.66016h12.328l0.76953-4.5957h-0.66406c-1.176 2.732-0.99426 3.7832-4.6973 3.7832-2.297 0-3.2969-0.18138-3.2969-2.3594v-5.7695h2.1445c1.712 0 2.3007 0.89039 2.3477 2.4004h0.66601v-5.4316h-0.66601c-0.048 1.583-0.74066 2.2246-2.3477 2.2246h-2.1445v-7.3105h3.4766c1.841 0 2.3466 1.4061 2.5996 3.2891h0.66797v-4.1035h-11.184zm-93.201 0.57227c3.116 0 6.4062 2.4742 6.4062 8.5762 0 3.422-1.3262 8.1201-6.0742 8.1211-3.293 0-6.4551-3.1687-6.4551-9.3477 0-3.472 1.786-7.3496 6.123-7.3496zm-114.08 2.0898h0.05078l2.707 8.2969h-5.7949l3.0371-8.2969zm184.04 0.015625h0.0488l2.709 8.3008h-5.7969l3.0391-8.3008zm-34.75 24.635c-3.11 0-5.8125 1.9175-5.8125 4.3535 0 1.314 0.36253 2.2575 0.89454 2.9785h-0.01c0.012 0.012 0.0242 0.02125 0.0332 0.03125 0.656 0.873 1.5566 1.4319 2.3516 1.9629 4.057 2.68 4.9719 4.1112 5.0039 5.8672 0.074 3.902-7.2359 5.955-12.047-1.543l-2.498-3.8008c1.964-0.766 3.5703-2.5761 3.5703-5.2051 0-2.99-2.5764-4.334-5.1504-4.334h-7.4277v0.66016c2.295 0.275 2.1934 0.15248 2.1934 2.5215v11.48c0 2.381 0.10264 2.2483-2.1934 2.5273v0.66406h6.8652v-0.66406c-2.298-0.279-2.1973-0.14634-2.1973-2.5273v-4.7148h2.4023c3.084 5.127 3.8493 7.3542 5.4043 7.9082 0.347 0.123 4.3507 1.4102 7.1777 1.4102 3.245 0 6.7109-1.785 6.7109-5.002-0.001-2.244-0.92016-3.6268-3.7852-5.7598-2.705-2.029-4.5976-3.1636-4.5976-5.0566 0-2 1.4056-2.8145 2.9766-2.8145 2.162 0 3.1883 1.5162 3.4043 3.4102h0.70507v-3.5449c0-0.135-0.0265-0.24392-0.1875-0.29492-1.083-0.379-2.6241-0.51367-3.7871-0.51367zm-82.135 0.18164-8.0781 0.02148v0.66992c1.619 0.174 2.7929 0.88491 2.9629 2.1289 0.069 0.549 0.21094 1.1334 0.21094 1.8574v9.584c0 5.521-2.489 8.6895-7.209 8.6895-5.139 0-6.6816-3.6895-6.6816-8.5195v-10.1c0-3.205 0.09522-3.2636 3.1992-3.6406v-0.66992h-9.2793v0.66992c3.108 0.377 2.9688 0.43562 2.9688 3.6406v10.275c0 6.24 2.2762 9.9688 9.6172 9.9688 4.448 0 9.1777-2.7578 9.1777-10.174v-9.7246-0.16992c-0.032-2.994 1.1318-3.4301 3.0918-3.7461l0.002-0.08398c-0.004-0.000013-0.008 0-0.0117 0v-0.67188h0.0293v-0.0059zm0 0.0059-0.0176 0.67188c1.4482 0.0046 2.246 0.82475 2.959 1.7441v12.074c0 0.537-0.10029 0.97281-0.15429 1.3828-0.127 0.924-0.97008 1.2811-2.2051 1.4121v0.66602h6.2812v-0.66602c-1.69-0.131-2.5643-0.48811-2.6953-1.4121-0.046-0.41-0.15039-0.84581-0.15039-1.3828v-11.332l12.484 14.793h0.87109v-14.488c0.00001-0.539 0.10235-0.97281 0.15235-1.3828 0.132-0.924 1.005-1.2772 2.209-1.4082v-0.67188h-6.2812v0.67188c1.696 0.131 2.5595 0.4842 2.6895 1.4082 0.051 0.41 0.15625 0.84381 0.15625 1.3828v10.541h-0.0527c-3.817-4.643-7.7943-9.3589-11.613-14.004h-4.6328zm21.887 0.0078v0.66406c2.308 0.279 2.2031 0.15611 2.2031 2.5371v11.535c0 2.389 0.10488 2.258-2.2031 2.541v0.66602h6.8945v-0.66602c-2.305-0.283-2.2031-0.15202-2.2031-2.541v-11.535c0-2.381-0.10187-2.2581 2.2031-2.5371v-0.66406h-6.8945zm7.9726 0v0.66406c1.235 0 1.5635 0.79311 2.5195 3.5371 1.561 4.359 3.3081 9.3052 4.8711 13.742h1.3047c2.155-5.256 4.3343-10.486 6.4863-15.738 0.54-1.285 0.92288-1.541 1.6719-1.541 2.305 0.279 1.9726 0.15611 1.9726 2.5371v11.535c0 2.389 0.33335 2.258-1.9726 2.541v0.66602h12.381l0.77148-4.6172h-0.66992c-1.18 2.746-0.99889 3.7988-4.7129 3.7988-2.308 0-3.3106-0.18428-3.3106-2.3633v-5.793h2.1562c1.716 0 2.3055 0.90206 2.3555 2.4141h0.66406v-5.4648h-0.66406c-0.05 1.59-0.74347 2.2324-2.3555 2.2324h-2.1582v-7.3301h4.0684c1.843 0 2.3613 1.4057 2.6133 3.3047h0.66406v-4.125h-11.807-5.0781v0.66406c1.74 0 2.4096 0.79316 1.7676 2.4102-1.589 3.924-3.1539 7.867-4.7969 11.791-1.332-3.893-2.8156-8.3031-3.8106-11.328-0.852-2.465 0.17785-2.873 1.5898-2.873v-0.66406h-6.5215zm58.988 0v0.66406c2.31 0.279 2.207 0.15611 2.207 2.5371v11.535c0 2.389 0.10296 2.258-2.207 2.541v0.66602h6.8965v-0.66602c-2.308-0.283-2.1992-0.15202-2.1992-2.541v-11.535c0-2.381-0.10878-2.2581 2.1992-2.5371v-0.66406h-6.8965zm8.8438 0-0.69531 3.916h0.64453c0.843-1.689 1.3549-3.0957 3.5859-3.0957h2.082v13.916c0 2.389 0.10097 2.258-2.207 2.541v0.66602h6.8945v-0.66602c-2.307-0.283-2.2051-0.15202-2.2051-2.541v-13.916h2.0781c2.102 0 3.5169 1.2545 4.3809 2.8145l3.6094 7.1602v3.9414c0 2.389 0.10488 2.258-2.2031 2.541v0.66602h6.8945v-0.66602c-2.303-0.283-2.2031-0.15202-2.2031-2.541v-2.8711c0-0.639 0.0516-1.3591 0.3086-1.8691l4.2793-7.7695c0.695-1.23 1.3835-1.5625 2.1035-1.5625v-0.66406h-5.2793v0.66406c1.511 0 2.332 0.73964 1.459 2.3066l-3.5371 6.4395-3.1035-6.4395c-0.641-1.334-0.81604-2.3066 1.127-2.3066v-0.66406h-4.2969-1.7793-11.938zm-31.98 1.2012h1.9648c1.86 0 3.3984 0.96695 3.3984 3.752 0 2.882-1.0232 4.5645-3.2422 4.5645h-2.1211v-8.3164zm-129.57 22.601c1.667 7.498 8.9987 10.304 16.68 16.312 7.682-6.01 15.014-8.8145 16.68-16.312-2.019 4-5.8674 6.6331-10.359 9.7051l-6.3223 4.5-6.3184-4.5c-4.493-3.072-8.3414-5.7051-10.359-9.7051z"/><path fill="#981e32" d="m40.588 28.713v0.786c0.489 0.168 0.65 0.324 0.701 1.036v18.121c0 10.08 8.204 12.744 16.854 19.514 8.654-6.77 16.86-9.434 16.86-19.514v-18.322c0.064-0.551 0.24-0.684 0.679-0.835v-0.786h-35.094z"/><path fill="#fff" d="m61.869 30.754-1.377 4.2344c-0.016 0-0.02992 0.0059-0.04492 0.0059-0.839 0.278-1.6012 0.85362-2.1582 1.6406-0.707 1.002-1.4213 2.8298-0.82031 5.8398 0.098 0.504 0.26827 1.2262 0.44727 1.9922 0.355 1.531 0.75644 3.2619 0.89844 4.3809 0.32 2.547 0.02813 4.1937-0.92188 5.1797-0.768 0.797-1.956 1.1167-3.625 0.9707l-0.41602-0.03711 0.03516-0.41406c0.027-0.307 0.04102-0.60367 0.04102-0.88867 0-0.569-0.04752-1.0838-0.10352-1.5078-0.931 1.53-2.5984 3.6856-4.7324 4.9316 3.626 0.087 7.14 0.72641 8.707 0.94141 0.156 0.022 0.31175 0.03688 0.46875 0.04687 0.038 0 0.07914 0.0059 0.11914 0.0059h0.03711c0.369 0.01 0.71797-0.0058 1.043-0.04883 0.011 0 0.02025-0.0039 0.03125-0.0039 0.043-0.005 0.08686-0.01548 0.13086-0.02148 2.016-0.346 3.7708-1.8397 3.2988-5.3027-0.56-4.113-1.276-6.7359-1.459-8.7129-0.222-2.404 1.8613-6.1324 5.5703-4.4824 0 0 0.51631 0.43577 1.1953 2.0098 0 0 0.25791-0.89688-0.12109-2.5469 0.155-0.455 0.2198-0.93511 0.2168-1.4121l4.0391-0.17188 0.0059-0.44141-4.1035-0.13086c-0.009-0.075-0.02311-0.1467-0.03711-0.2207l3.9434-0.78711-0.06641-0.4375-4.0625 0.50586c-0.027-0.08-0.05498-0.16033-0.08398-0.23633l3.7129-1.4453-0.14258-0.41797-3.8887 1.1973c-0.229-0.387-0.48656-0.66172-0.72656-0.76172-1.482 0.112-2.8208 0.23258-4.0508 0.39258l0.7793-3.6348h-0.42774l-1.1895 3.752c-0.222 0.033-0.4393 0.06647-0.6543 0.10547l0.92383-4.0684h-0.43164zm-3.8574 4.8867c-2.36 0.797-4.3398 2.0332-6.3848 4.0742l1.4375 1.6699 0.58789-0.54883c0.554 2.07 0.15625 3.9785 0.15625 3.9785-0.756-1.152-1.6504-2.0859-1.6504-2.0859l0.39258-0.6582-1.2949-1.5059-0.15039-0.16797c-1.593 2.189-2.1113 3.9824-2.1113 3.9824l1.1328 1.0293 0.6582 0.59961 0.2207-0.63672c1.216 2.275 0.10547 4.4023 0.10547 4.4023-0.202-0.777-1-1.9219-1-1.9219l0.31641-1.043-1.6816-1.5234c-1.75 5.467-4.0918 7.2402-4.0918 7.2402s2.5334-0.45669 3.9414-0.92969c0 0.002-0.04 2.8838-1.75 5.5098h0.0059c3.415-0.777 6.0269-4.7662 6.7949-6.3652l0.48633-1.0137 0.29492 1.0859c0.015 0.061 0.33398 1.254 0.33398 2.834 0 0.174-0.0066 0.35511-0.01563 0.53711 1.179 0.043 2.019-0.19333 2.543-0.73633 0.749-0.779 0.97636-2.2481 0.69336-4.4941-0.135-1.076-0.53477-2.7869-0.88477-4.2969-0.181-0.771-0.35012-1.4996-0.45312-2.0156-0.658-3.303 0.15994-5.3523 0.96094-6.4863 0.127-0.182 0.26225-0.35167 0.40625-0.51367zm4.9121 2.0938c0.58327 0.01546 1.1312 0.11073 1.4961 0.30273 0.356 0.191 0.07614 0.27695-0.25586 0.25195-1.298-0.1-2.6811 0.34016-3.4961 0.91016-0.633 0.447-1.0702 1.0754-1.3262 1.5234-0.03-0.037-0.24789-1.5976 1.0371-2.4746 0.50062-0.34312 1.5728-0.53944 2.5449-0.51367zm6.1621 7.2227s0.85312 4.6564-2.1719 4.8164c-2.921 0.152-4.2988-4.2422-4.2988-4.2422s0.70583 8.5904 4.7988 8.0234c4.615-0.636 1.6719-8.5977 1.6719-8.5977zm-5.3594 10.34c-0.768 2.318-2.1699 2.916-2.1699 2.916s2.049 0.09017 2.668-0.04883c0 0 0.17795-1.4552-0.49805-2.8672z"/></g></svg>
