<?xml version="1.0" encoding="utf-8"?>
<!-- Generator: Adobe Illustrator 22.0.0, SVG Export Plug-In . SVG Version: 6.00 Build 0)  -->
<svg version="1.1" id="_x3C_Layer_x3E_" xmlns="http://www.w3.org/2000/svg" xmlns:xlink="http://www.w3.org/1999/xlink" x="0px"
	 y="0px" viewBox="0 0 287.3 168" style="enable-background:new 0 0 287.3 168;" xml:space="preserve">
<style type="text/css">
	.st0{fill:#00467F;}
	.st1{fill:#FBAA29;}
	.st2{fill:#FFFFFF;}
</style>
<g>
	<polygon class="st0" points="129.1,164.4 129.1,4.7 4,4.7 4,164.4 	"/>
	<polygon class="st1" points="17.1,47.9 17.1,70.6 39.7,47.9 	"/>
	<polygon class="st1" points="73.1,15.5 73.1,38.2 95.7,15.5 	"/>
	<polygon class="st1" points="45,15.5 45,38.2 67.6,15.5 	"/>
	<polygon class="st1" points="45.1,47.9 45.1,70.6 67.8,47.9 	"/>
	<polygon class="st1" points="16.8,15.5 16.8,38.2 39.5,15.5 	"/>
	<polygon class="st2" points="40.8,87.3 49.6,87.3 46,89.4 39.3,149.3 36.9,149.3 31.9,102.5 27,149.3 24.6,149.3 18.2,89.4 
		14.5,87.3 27,87.3 24.3,89.4 27.5,124.2 31.2,89.4 28.5,87.3 39.1,87.3 36.5,89.4 39.7,124 43.5,89.4 	"/>
	<polygon class="st2" points="51.4,87.3 64.9,87.3 61.2,89.4 61.2,146.9 64.9,148.8 51.4,148.8 55.1,146.9 55.1,89.4 	"/>
	<polygon class="st2" points="68.9,87.3 90.5,87.3 90.5,106.4 90.3,106.4 86.2,89 82.7,89 82.7,146.9 87.1,148.8 72.3,148.8 
		76.7,146.9 76.7,89 73.3,89 69.1,106.4 68.9,106.4 	"/>
	<path class="st2" d="M113.4,126.7l2.1,0.1v0.5v0.1c0,7-1,12.6-2.8,16.7c-1.4,3.5-3.5,5.3-6.2,5.3c-2.1,0-4.1-1.6-5.8-4.5
		c-1-1.9-2-4.4-2.8-7.3c-0.7-2.8-1.4-6-1.8-9.4c-0.5-3.3-0.7-6.8-0.7-10.4c0-8.4,1.1-15.7,3.3-21.7c1.3-3.3,2.6-5.8,3.9-7.2
		c1.2-1.5,2.8-2.3,4.3-2.3c2.3,0,4.2,1.4,5.3,4.2l2.5-4.3v19.8h-0.2L111,93.9c-0.6-2.2-1.3-3.7-1.7-4.4c-0.6-0.7-1.4-1.1-2.4-1.1
		c-0.9,0-1.9,0.5-2.5,1.3c-0.6,0.9-1.1,2.6-1.3,4.7c-0.2,1.5-0.4,4.7-0.6,9.7c-0.2,4.9-0.3,9.7-0.3,14.3c0,7.2,0.2,13.8,0.6,19.7
		c0.3,3.7,0.8,6,1,7c0.4,1.8,1.5,2.7,2.9,2.7c2,0,3.6-2.1,4.7-5.9c1.2-3.9,2-8.9,2-15.1L113.4,126.7L113.4,126.7z"/>
</g>
<g>
	<g>
		<path class="st0" d="M152.5,34.8l-4.1-16.2h2.2l1.9,8.2c0.5,2,0.9,4,1.2,5.6h0c0.3-1.6,0.8-3.5,1.3-5.6l2.2-8.2h2.2l2,8.2
			c0.5,1.9,0.9,3.8,1.1,5.5h0c0.3-1.8,0.8-3.6,1.3-5.6l2.1-8.2h2.1l-4.6,16.2h-2.2l-2-8.4c-0.5-2.1-0.8-3.7-1.1-5.3h0
			c-0.3,1.6-0.6,3.2-1.2,5.3l-2.3,8.4L152.5,34.8L152.5,34.8z"/>
		<path class="st0" d="M164.2,35.6h-3.3l-2.2-9c-0.1-0.6-0.3-1.2-0.4-1.8c-0.1,0.5-0.3,1.1-0.5,1.8l-2.5,9H152l-4.5-17.7h3.8
			l2.1,8.8c0.2,0.8,0.4,1.5,0.5,2.3c0.2-0.8,0.4-1.5,0.6-2.3l2.3-8.7h3.4l2.1,8.8c0.2,0.7,0.3,1.4,0.5,2.1c0.2-0.6,0.3-1.3,0.5-1.9
			l0.1-0.3l2.3-8.7h3.7L164.2,35.6z M162,34.1h1l4.2-14.7h-0.6l-2.1,7.8c-0.5,1.9-0.9,3.6-1.2,5.3l-0.1,0.6H162l-0.1-0.6
			c-0.2-1.7-0.7-3.5-1.1-5.5l-1.8-7.6h-1l-2,7.6c-0.5,1.9-1,3.9-1.3,5.5l0,0.2l1.8-6.5c0.6-2.2,1-3.7,1.2-5.2l0.1-0.6h1.3l0.1,0.7
			c0.2,1.7,0.6,3.3,1,5.2L162,34.1z M153.1,34.1h1l0.2-0.9h-1.2l-0.2-0.6c-0.3-1.5-0.7-3.4-1.2-5.6l-1.8-7.6h-0.7L153.1,34.1z"/>
	</g>
	<g>
		<path class="st0" d="M172.9,18.7v16.2h-2.1V18.7H172.9z"/>
		<path class="st0" d="M173.6,35.6H170V17.9h3.6V35.6z M171.5,34.1h0.6V19.4h-0.6V34.1z"/>
	</g>
	<g>
		<path class="st0" d="M176.9,32.3c0.9,0.6,2.3,1.1,3.7,1.1c2.1,0,3.4-1.1,3.4-2.8c0-1.5-0.9-2.4-3-3.2c-2.6-1-4.3-2.4-4.3-4.6
			c0-2.5,2.1-4.4,5.2-4.4c1.6,0,2.9,0.4,3.6,0.8l-0.6,1.7c-0.5-0.3-1.6-0.8-3-0.8c-2.2,0-3,1.3-3,2.4c0,1.5,1,2.3,3.2,3.1
			c2.7,1.1,4.1,2.4,4.1,4.8c0,2.5-1.8,4.7-5.6,4.7c-1.6,0-3.3-0.5-4.1-1.1L176.9,32.3z"/>
		<path class="st0" d="M180.5,35.9c-1.6,0-3.5-0.5-4.5-1.2l-0.5-0.3l1-3.2l0.8,0.5c0.9,0.6,2.2,0.9,3.3,0.9c0.8,0,2.6-0.2,2.6-2
			c0-1-0.4-1.7-2.6-2.5c-3.2-1.2-4.8-2.9-4.8-5.3c0-3,2.5-5.1,6-5.1c1.5,0,3,0.3,3.9,0.9l0.5,0.3l-1.1,3.2l-0.8-0.5
			c-0.2-0.1-1.1-0.7-2.7-0.7c-1.7,0-2.3,0.9-2.3,1.7c0,0.9,0.4,1.5,2.7,2.4c2.3,0.9,4.6,2.2,4.6,5.5
			C186.8,33.1,184.9,35.9,180.5,35.9z M177.2,33.7c0.8,0.4,2,0.7,3.2,0.7c3.6,0,4.9-2,4.9-3.9c0-1.9-1-3-3.6-4.1
			c-1.9-0.8-3.7-1.6-3.7-3.8c0-1.5,1.2-3.2,3.8-3.2c1.1,0,2,0.2,2.6,0.5l0.1-0.3c-0.5-0.2-1.4-0.4-2.6-0.4c-2.6,0-4.5,1.5-4.5,3.6
			c0,1.1,0.4,2.7,3.8,3.9c1.8,0.7,3.5,1.6,3.5,3.9c0,2.1-1.6,3.5-4.1,3.5c-1.1,0-2.3-0.3-3.3-0.7L177.2,33.7z"/>
	</g>
	<g>
		<path class="st0" d="M200.9,34.3c-0.7,0.4-2.3,0.8-4.3,0.8c-4.6,0-8-2.9-8-8.2c0-5.1,3.4-8.5,8.4-8.5c2,0,3.3,0.4,3.8,0.7
			l-0.5,1.7c-0.8-0.4-1.9-0.7-3.2-0.7c-3.8,0-6.3,2.4-6.3,6.7c0,4,2.3,6.5,6.2,6.5c1.3,0,2.6-0.3,3.4-0.7L200.9,34.3z"/>
		<path class="st0" d="M196.6,35.9c-5.3,0-8.7-3.5-8.7-9c0-5.4,3.8-9.2,9.2-9.2c2.4,0,3.8,0.6,4.2,0.8l0.6,0.3l-1,3.1l-0.8-0.4
			c-0.8-0.4-1.8-0.6-2.9-0.6c-3.5,0-5.6,2.2-5.6,5.9c0,3.7,2,5.8,5.4,5.8c1.2,0,2.3-0.2,3.1-0.6l0.8-0.4l0.8,3.2l-0.5,0.3
			C200.4,35.4,198.8,35.9,196.6,35.9z M197.1,19.1c-4.6,0-7.7,3.1-7.7,7.7c0,4.6,2.8,7.5,7.2,7.5c1.4,0,2.6-0.2,3.4-0.5l-0.1-0.2
			c-0.9,0.3-1.9,0.4-2.9,0.4c-4.3,0-6.9-2.8-6.9-7.3c0-4.5,2.8-7.4,7.1-7.4c1,0,1.9,0.1,2.8,0.4l0.1-0.3
			C199.4,19.4,198.5,19.1,197.1,19.1z"/>
	</g>
	<g>
		<path class="st0" d="M209.8,35.1c-4.3,0-7.3-3.3-7.3-8.2c0-5.1,3.2-8.5,7.5-8.5c4.4,0,7.3,3.4,7.3,8.2
			C217.3,32.1,214,35.1,209.8,35.1L209.8,35.1L209.8,35.1z M209.9,33.4c3.3,0,5.2-3,5.2-6.7c0-3.2-1.7-6.6-5.2-6.6s-5.2,3.2-5.2,6.7
			C204.7,30.3,206.6,33.4,209.9,33.4L209.9,33.4z"/>
		<path class="st0" d="M209.9,35.9L209.9,35.9c-4.7,0-8-3.7-8-9c0-5.4,3.4-9.2,8.2-9.2c4.8,0,8,3.6,8,8.9
			C218.1,33,214,35.9,209.9,35.9z M210,19.1c-4,0-6.7,3.1-6.7,7.7c0,4.5,2.6,7.5,6.5,7.5l0.1,0c4.1,0,6.7-3.1,6.7-7.8
			C216.6,22.1,214,19.1,210,19.1z M209.9,34.1L209.9,34.1c-3.9,0-5.9-3.7-5.9-7.3c0-4.4,2.5-7.5,6-7.5c3.9,0,5.9,3.7,5.9,7.3
			C215.9,31.1,213.4,34.1,209.9,34.1z M210,20.9c-3.1,0-4.5,3-4.5,6c0,2.9,1.5,5.8,4.4,5.8h0c3.1,0,4.4-3,4.4-6
			C214.4,23.9,213,20.9,210,20.9z"/>
	</g>
	<g>
		<path class="st0" d="M220.7,34.8V18.7h2.3l5.2,8.2c1.2,1.9,2.1,3.6,2.9,5.3l0.1,0c-0.2-2.2-0.2-4.1-0.2-6.6v-6.8h2v16.2h-2.1
			l-5.1-8.2c-1.1-1.8-2.2-3.6-3-5.4l-0.1,0c0.1,2,0.1,4,0.1,6.7v6.9L220.7,34.8L220.7,34.8z"/>
		<path class="st0" d="M233.5,35.6h-3.3l-5.4-8.6c-0.6-1-1.1-1.8-1.6-2.6c0,1.1,0,2.2,0,3.5v7.7h-3.5V17.9h3.5l5.4,8.5
			c0.5,0.8,1,1.6,1.4,2.3c0-1.1,0-2.1,0-3.3v-7.5h3.5V35.6z M231.1,34.1h0.9V19.4h-0.5v6c0,2.3,0,4.3,0.2,6.6l0.1,0.6l-1.2,0.4
			l-0.3-0.6c-0.7-1.5-1.5-3-2.8-5.2l-4.9-7.8h-1.1v14.7h0.5v-6.2c0-2.6,0-4.6-0.1-6.6l0-0.6l1.2-0.4l0.4,0.6c0.7,1.5,1.6,3.2,3,5.3
			L231.1,34.1z"/>
	</g>
	<g>
		<path class="st0" d="M236.8,32.3c0.9,0.6,2.3,1.1,3.7,1.1c2.1,0,3.4-1.1,3.4-2.8c0-1.5-0.9-2.4-3-3.2c-2.6-1-4.3-2.4-4.3-4.6
			c0-2.5,2.1-4.4,5.2-4.4c1.6,0,2.9,0.4,3.6,0.8l-0.6,1.7c-0.5-0.3-1.6-0.8-3-0.8c-2.2,0-3,1.3-3,2.4c0,1.5,1,2.3,3.2,3.1
			c2.7,1.1,4.1,2.4,4.1,4.8c0,2.5-1.8,4.7-5.6,4.7c-1.6,0-3.3-0.5-4.1-1.1L236.8,32.3z"/>
		<path class="st0" d="M240.4,35.9c-1.6,0-3.5-0.5-4.5-1.2l-0.5-0.3l1-3.2l0.8,0.5c0.9,0.6,2.1,0.9,3.3,0.9c0.8,0,2.6-0.2,2.6-2
			c0-1-0.4-1.7-2.6-2.5c-3.2-1.2-4.8-2.9-4.8-5.3c0-3,2.5-5.1,6-5.1c1.5,0,3,0.3,3.9,0.9l0.5,0.3l-1.1,3.2l-0.8-0.5
			c-0.2-0.1-1.1-0.7-2.7-0.7c-1.7,0-2.3,0.9-2.3,1.7c0,0.9,0.4,1.5,2.7,2.4c2.3,0.9,4.6,2.2,4.6,5.5
			C246.7,33.1,244.8,35.9,240.4,35.9z M237.1,33.7c0.8,0.4,2,0.7,3.2,0.7c3.6,0,4.9-2,4.9-3.9c0-1.9-1-3-3.6-4.1
			c-1.9-0.8-3.7-1.6-3.7-3.8c0-1.5,1.2-3.2,3.8-3.2c1.1,0,2,0.2,2.6,0.5l0.1-0.3c-0.5-0.2-1.4-0.4-2.6-0.4c-2.6,0-4.5,1.5-4.5,3.6
			c0,1.1,0.4,2.7,3.8,3.9c1.8,0.7,3.5,1.6,3.5,3.9c0,2.1-1.6,3.5-4.1,3.5c-1.1,0-2.3-0.3-3.3-0.7L237.1,33.7z"/>
	</g>
	<g>
		<path class="st0" d="M251.6,18.7v16.2h-2.1V18.7H251.6z"/>
		<path class="st0" d="M252.3,35.6h-3.6V17.9h3.6V35.6z M250.2,34.1h0.6V19.4h-0.6V34.1z"/>
	</g>
	<g>
		<path class="st0" d="M255.8,34.8V18.7h2.3l5.2,8.2c1.2,1.9,2.1,3.6,2.9,5.3l0.1,0c-0.2-2.2-0.2-4.1-0.2-6.6v-6.8h2v16.2h-2.1
			l-5.1-8.2c-1.1-1.8-2.2-3.6-3-5.4l-0.1,0c0.1,2,0.1,4,0.1,6.7v6.9L255.8,34.8L255.8,34.8z"/>
		<path class="st0" d="M268.7,35.6h-3.3l-5.4-8.6c-0.6-1-1.1-1.8-1.6-2.6c0,1.1,0,2.2,0,3.5v7.7h-3.5V17.9h3.5l5.4,8.5
			c0.5,0.8,1,1.6,1.4,2.3c0-1.1,0-2.1,0-3.3v-7.5h3.5V35.6z M266.3,34.1h0.9V19.4h-0.5v6c0,2.3,0,4.3,0.2,6.6l0.1,0.6l-1.2,0.4
			l-0.3-0.6c-0.7-1.5-1.5-3-2.8-5.2l-4.9-7.8h-1.1v14.7h0.5v-6.2c0-2.6,0-4.6-0.1-6.6l0-0.6l1.2-0.4l0.4,0.6c0.7,1.5,1.6,3.2,3,5.3
			L266.3,34.1z"/>
	</g>
	<g>
		<path class="st0" d="M152,56.7v16.2h-2.1V56.7H152z"/>
		<path class="st0" d="M152.7,73.6h-3.6V55.9h3.6V73.6z M150.6,72.1h0.6V57.4h-0.6V72.1z"/>
	</g>
	<g>
		<path class="st0" d="M156.2,72.8V56.7h2.3l5.2,8.2c1.2,1.9,2.1,3.6,2.9,5.3l0.1,0c-0.2-2.2-0.2-4.1-0.2-6.6v-6.8h2v16.2h-2.1
			l-5.1-8.2c-1.1-1.8-2.2-3.6-3-5.4l-0.1,0c0.1,2,0.1,4,0.1,6.7v6.9L156.2,72.8L156.2,72.8z"/>
		<path class="st0" d="M169.1,73.6h-3.3l-5.4-8.6c-0.6-1-1.1-1.8-1.6-2.6c0,1.1,0,2.2,0,3.5v7.7h-3.5V55.9h3.5l5.4,8.5
			c0.5,0.8,1,1.6,1.4,2.3c0-1.1,0-2.1,0-3.3v-7.5h3.5V73.6z M166.7,72.1h0.9V57.4h-0.5v6c0,2.3,0,4.3,0.2,6.6l0.1,0.6l-1.2,0.4
			l-0.3-0.6c-0.7-1.5-1.5-3-2.8-5.2l-4.9-7.8H157v14.7h0.5v-6.2c0-2.6,0-4.6-0.1-6.6l0-0.6l1.2-0.4l0.4,0.6c0.7,1.5,1.6,3.2,3,5.3
			L166.7,72.1z"/>
	</g>
	<path class="st0" d="M184.1,58c-1.6-1.5-3.9-2.2-7.1-2.2c-1.5,0-3,0.1-4.6,0.3l-0.6,0.1v17.2l0.7,0.1c1,0.1,2.2,0.2,3.9,0.2
		c3.3,0,6-0.9,7.7-2.5c1.7-1.7,2.5-4,2.5-6.8C186.7,61.7,185.8,59.5,184.1,58z M183,64.4c0,2-0.5,3.5-1.6,4.6c-1,1-2.5,1.5-4.5,1.5
		c-0.5,0-1,0-1.4,0V59c0.5-0.1,1.1-0.1,1.7-0.1c2,0,3.5,0.5,4.4,1.5C182.5,61.4,183,62.7,183,64.4z"/>
	<g>
		<path class="st0" d="M191.3,56.7v16.2h-2.1V56.7H191.3z"/>
		<path class="st0" d="M192.1,73.6h-3.6V55.9h3.6V73.6z M189.9,72.1h0.6V57.4h-0.6V72.1z"/>
	</g>
	<g>
		<path class="st0" d="M198.2,67.8l-1.7,5.1h-2.2l5.5-16.2h2.5l5.5,16.2h-2.2l-1.7-5.1H198.2z M203.5,66.1l-1.6-4.7
			c-0.3-1.1-0.6-2-0.8-3H201c-0.2,0.9-0.5,1.9-0.8,2.9l-1.6,4.7L203.5,66.1L203.5,66.1z"/>
		<path class="st0" d="M208.9,73.6h-3.8l-1.7-5.1h-4.7l-1.7,5.1h-3.7l6-17.7h3.6L208.9,73.6z M206.2,72.1h0.6l-5-14.7h-1.4l-5,14.7
			h0.6l1.7-5.1h6.8L206.2,72.1z M197.6,66.9l1.9-5.7c0.3-0.8,0.5-1.8,0.8-2.9l0.1-0.6h1.2l0.3,0.7c0.2,0.9,0.4,1.8,0.8,2.7l1.9,5.6
			L197.6,66.9z M199.6,65.4h2.8l-1.3-3.7c0-0.1-0.1-0.3-0.1-0.4c0,0.1-0.1,0.3-0.1,0.4L199.6,65.4z"/>
	</g>
	<g>
		<path class="st0" d="M210.8,72.8V56.7h2.3l5.2,8.2c1.2,1.9,2.1,3.6,2.9,5.3l0.1,0c-0.2-2.2-0.2-4.1-0.2-6.6v-6.8h2v16.2h-2.1
			l-5.1-8.2c-1.1-1.8-2.2-3.6-3-5.4l-0.1,0c0.1,2,0.1,4,0.1,6.7v6.9L210.8,72.8L210.8,72.8z"/>
		<path class="st0" d="M223.7,73.6h-3.3l-5.4-8.6c-0.6-1-1.1-1.8-1.6-2.6c0,1.1,0,2.2,0,3.5v7.7h-3.5V55.9h3.5l5.4,8.5
			c0.5,0.8,1,1.6,1.4,2.3c0-1.1,0-2.1,0-3.3v-7.5h3.5V73.6z M221.3,72.1h0.9V57.4h-0.5v6c0,2.3,0,4.4,0.2,6.6l0.1,0.6l-1.2,0.4
			l-0.3-0.6c-0.6-1.5-1.5-3-2.8-5.2l-4.9-7.8h-1.1v14.7h0.5v-6.2c0-2.7,0-4.6-0.1-6.6l0-0.6l1.2-0.4l0.4,0.6c0.7,1.5,1.6,3.2,3,5.3
			L221.3,72.1z"/>
	</g>
	<g>
		<path class="st0" d="M229.3,56.7v6.8h7.8v-6.8h2.1v16.2h-2.1v-7.6h-7.8v7.6h-2.1V56.7H229.3z"/>
		<path class="st0" d="M240,73.6h-3.6V66h-6.3v7.6h-3.6V55.9h3.6v6.8h6.3v-6.8h3.6V73.6z M237.9,72.1h0.6V57.4h-0.6v6.8h-9.3v-6.8
			H228v14.7h0.6v-7.6h9.3V72.1z"/>
	</g>
	<g>
		<path class="st0" d="M251.8,65.3h-6.3v5.8h7v1.8h-9.1V56.7h8.8v1.8h-6.6v5.1h6.3L251.8,65.3L251.8,65.3z"/>
		<path class="st0" d="M253.3,73.6h-10.6V55.9H253v3.3h-6.6v3.6h6.3V66h-6.3v4.3h7V73.6z M244.2,72.1h7.6v-0.3h-7v-7.3h6.3l0-0.2
			h-6.3v-6.6h6.6v-0.3h-7.3V72.1z"/>
	</g>
	<g>
		<path class="st0" d="M258.9,67.8l-1.7,5.1H255l5.5-16.2h2.5l5.5,16.2h-2.2l-1.7-5.1H258.9z M264.2,66.1l-1.6-4.7
			c-0.3-1.1-0.6-2-0.8-3h-0.1c-0.2,0.9-0.5,1.9-0.8,2.9l-1.6,4.7L264.2,66.1L264.2,66.1z"/>
		<path class="st0" d="M269.6,73.6h-3.8l-1.7-5.1h-4.7l-1.7,5.1H254l6-17.7h3.6L269.6,73.6z M266.9,72.1h0.6l-5-14.7h-1.4l-5,14.7
			h0.6l1.7-5.1h6.8L266.9,72.1z M258.3,66.9l1.9-5.7c0.3-0.8,0.5-1.8,0.8-2.9l0.1-0.6h1.2l0.3,0.7c0.2,0.9,0.4,1.8,0.8,2.7l1.9,5.6
			L258.3,66.9z M260.4,65.4h2.8l-1.3-3.7c0-0.1-0.1-0.3-0.1-0.4c0,0.1-0.1,0.3-0.1,0.4L260.4,65.4z"/>
	</g>
	<path class="st0" d="M283,58c-1.6-1.5-3.9-2.2-7.1-2.2c-1.5,0-3,0.1-4.6,0.3l-0.6,0.1v17.2l0.7,0.1c1,0.1,2.2,0.2,3.9,0.2
		c3.3,0,6-0.9,7.7-2.5c1.7-1.7,2.5-4,2.5-6.8C285.6,61.7,284.7,59.5,283,58z M281.9,64.4c0,2-0.5,3.5-1.6,4.6c-1,1-2.5,1.5-4.5,1.5
		c-0.5,0-1,0-1.4,0V59c0.4-0.1,1-0.1,1.7-0.1c2,0,3.5,0.5,4.4,1.5C281.4,61.4,281.9,62.7,281.9,64.4z"/>
	<g>
		<path class="st0" d="M153,96.4h-4.9v-1.8h12v1.8h-4.9v14.4H153L153,96.4L153,96.4z"/>
		<path class="st0" d="M155.8,111.6h-3.6V97.2h-4.9v-3.3h13.5v3.3h-4.9V111.6z M153.7,110.1h0.6V95.7h4.9v-0.3h-10.5v0.3h4.9
			L153.7,110.1z"/>
	</g>
	<g>
		<path class="st0" d="M170.8,103.3h-6.3v5.8h7v1.8h-9.1V94.7h8.8v1.8h-6.6v5.1h6.3L170.8,103.3L170.8,103.3z"/>
		<path class="st0" d="M172.3,111.6h-10.6V93.9h10.3v3.3h-6.6v3.6h6.3v3.2h-6.3v4.3h7V111.6z M163.2,110.1h7.6v-0.3h-7v-7.3h6.3
			l0-0.2h-6.3v-6.6h6.6v-0.3h-7.3V110.1z"/>
	</g>
	<g>
		<path class="st0" d="M186.1,110.3c-0.7,0.4-2.3,0.8-4.3,0.8c-4.6,0-8-2.9-8-8.2c0-5.1,3.4-8.5,8.4-8.5c2,0,3.3,0.4,3.8,0.7
			l-0.5,1.7c-0.8-0.4-1.9-0.7-3.2-0.7c-3.8,0-6.3,2.4-6.3,6.7c0,4,2.3,6.5,6.2,6.5c1.3,0,2.6-0.3,3.4-0.7L186.1,110.3z"/>
		<path class="st0" d="M181.8,111.9c-5.3,0-8.7-3.5-8.7-9c0-5.4,3.8-9.2,9.2-9.2c2.4,0,3.8,0.6,4.2,0.8l0.6,0.3l-1,3.1l-0.8-0.4
			c-0.8-0.4-1.8-0.6-2.9-0.6c-3.5,0-5.6,2.2-5.6,5.9c0,3.7,2,5.8,5.4,5.8c1.2,0,2.3-0.2,3.1-0.6l0.8-0.4l0.8,3.2l-0.5,0.3
			C185.7,111.4,184,111.9,181.8,111.9z M182.3,95.1c-4.6,0-7.7,3.1-7.7,7.7c0,4.6,2.8,7.5,7.2,7.5c1.4,0,2.6-0.2,3.4-0.5l-0.1-0.2
			c-0.9,0.3-1.9,0.4-2.9,0.4c-4.3,0-6.9-2.8-6.9-7.3c0-4.5,2.8-7.4,7.1-7.4c1,0,1.9,0.1,2.8,0.4l0.1-0.3
			C184.7,95.4,183.7,95.1,182.3,95.1z"/>
	</g>
	<g>
		<path class="st0" d="M191.4,94.7v6.8h7.8v-6.8h2.1v16.2h-2.1v-7.6h-7.8v7.6h-2.1V94.7H191.4z"/>
		<path class="st0" d="M202.1,111.6h-3.6V104h-6.3v7.6h-3.6V93.9h3.6v6.8h6.3v-6.8h3.6V111.6z M200,110.1h0.6V95.4H200v6.8h-9.3
			v-6.8h-0.6v14.7h0.6v-7.6h9.3V110.1z"/>
	</g>
	<g>
		<path class="st0" d="M205.6,110.8V94.7h2.3l5.2,8.2c1.2,1.9,2.1,3.6,2.9,5.3l0.1,0c-0.2-2.2-0.2-4.1-0.2-6.6v-6.8h2v16.2h-2.1
			l-5.1-8.2c-1.1-1.8-2.2-3.6-3-5.4l-0.1,0c0.1,2,0.1,4,0.1,6.7v6.9L205.6,110.8L205.6,110.8z"/>
		<path class="st0" d="M218.5,111.6h-3.3l-5.4-8.6c-0.6-1-1.1-1.8-1.6-2.6c0,1.1,0,2.2,0,3.5v7.7h-3.5V93.9h3.5l5.4,8.5
			c0.5,0.8,1,1.6,1.4,2.3c0-1.1,0-2.1,0-3.3v-7.5h3.5V111.6z M216.1,110.1h0.9V95.4h-0.5v6c0,2.3,0,4.4,0.2,6.6l0.1,0.6l-1.2,0.4
			l-0.3-0.6c-0.6-1.5-1.5-3-2.8-5.2l-4.9-7.8h-1.1v14.7h0.5v-6.2c0-2.7,0-4.6-0.1-6.6l0-0.6l1.2-0.4l0.4,0.6c0.7,1.5,1.6,3.2,3,5.3
			L216.1,110.1z"/>
	</g>
	<g>
		<path class="st0" d="M223.4,94.7v16.2h-2.1V94.7H223.4z"/>
		<path class="st0" d="M224.2,111.6h-3.6V93.9h3.6V111.6z M222.1,110.1h0.6V95.4h-0.6V110.1z"/>
	</g>
	<g>
		<path class="st0" d="M239.2,110.3c-0.7,0.4-2.3,0.8-4.3,0.8c-4.6,0-8-2.9-8-8.2c0-5.1,3.4-8.5,8.4-8.5c2,0,3.3,0.4,3.8,0.7
			l-0.5,1.7c-0.8-0.4-1.9-0.7-3.2-0.7c-3.8,0-6.3,2.4-6.3,6.7c0,4,2.3,6.5,6.2,6.5c1.3,0,2.6-0.3,3.4-0.7L239.2,110.3z"/>
		<path class="st0" d="M234.9,111.9c-5.3,0-8.7-3.5-8.7-9c0-5.4,3.8-9.2,9.2-9.2c2.4,0,3.8,0.6,4.2,0.8l0.6,0.3l-1,3.1l-0.8-0.4
			c-0.8-0.4-1.8-0.6-2.9-0.6c-3.5,0-5.6,2.2-5.6,5.9c0,3.7,2,5.8,5.4,5.8c1.2,0,2.3-0.2,3.1-0.6l0.8-0.4l0.8,3.2l-0.5,0.3
			C238.7,111.4,237.1,111.9,234.9,111.9z M235.4,95.1c-4.6,0-7.7,3.1-7.7,7.7c0,4.6,2.8,7.5,7.2,7.5c1.4,0,2.6-0.2,3.4-0.5l-0.1-0.2
			c-0.9,0.3-1.9,0.4-2.9,0.4c-4.3,0-6.9-2.8-6.9-7.3c0-4.5,2.8-7.4,7.1-7.4c1,0,1.9,0.1,2.8,0.4l0.1-0.3
			C237.7,95.4,236.8,95.1,235.4,95.1z"/>
	</g>
	<g>
		<path class="st0" d="M245.6,105.8l-1.7,5.1h-2.2l5.5-16.2h2.5l5.5,16.2H253l-1.7-5.1H245.6z M250.9,104.1l-1.6-4.7
			c-0.3-1.1-0.6-2-0.8-3h-0.1c-0.2,0.9-0.5,1.9-0.8,2.9l-1.6,4.7L250.9,104.1L250.9,104.1z"/>
		<path class="st0" d="M256.3,111.6h-3.8l-1.7-5.1h-4.7l-1.7,5.1h-3.7l6-17.7h3.6L256.3,111.6z M253.6,110.1h0.6l-5-14.7h-1.4
			l-5,14.7h0.6l1.7-5.1h6.8L253.6,110.1z M244.9,104.9l1.9-5.7c0.3-0.9,0.5-1.8,0.8-2.9l0.1-0.6h1.2l0.3,0.8
			c0.2,0.9,0.4,1.7,0.8,2.7l1.9,5.6L244.9,104.9z M247,103.4h2.8l-1.3-3.7c0-0.1-0.1-0.3-0.1-0.4c0,0.1-0.1,0.3-0.1,0.4L247,103.4z"
			/>
	</g>
	<g>
		<path class="st0" d="M258.2,94.7h2.1v14.4h6.9v1.8h-9L258.2,94.7L258.2,94.7z"/>
		<path class="st0" d="M268,111.6h-10.5V93.9h3.6v14.4h6.9V111.6z M259,110.1h7.5v-0.3h-6.9V95.4H259V110.1z"/>
	</g>
	<g>
		<path class="st0" d="M161.2,148.3c-0.7,0.4-2.3,0.8-4.3,0.8c-4.6,0-8-2.9-8-8.2c0-5.1,3.4-8.5,8.4-8.5c2,0,3.3,0.4,3.8,0.7
			l-0.5,1.7c-0.8-0.4-1.9-0.7-3.2-0.7c-3.8,0-6.3,2.4-6.3,6.7c0,4,2.3,6.5,6.2,6.5c1.3,0,2.6-0.3,3.4-0.7L161.2,148.3z"/>
		<path class="st0" d="M156.9,149.9c-5.3,0-8.7-3.5-8.7-9c0-5.4,3.8-9.2,9.2-9.2c2.4,0,3.8,0.6,4.2,0.8l0.6,0.3l-1,3.1l-0.8-0.4
			c-0.8-0.4-1.8-0.6-2.9-0.6c-3.5,0-5.6,2.2-5.6,5.9c0,3.7,2,5.8,5.4,5.8c1.2,0,2.3-0.2,3.1-0.6l0.8-0.4l0.8,3.2l-0.5,0.3
			C160.7,149.4,159.1,149.9,156.9,149.9z M157.4,133.1c-4.6,0-7.7,3.1-7.7,7.7c0,4.6,2.8,7.5,7.2,7.5c1.4,0,2.6-0.2,3.4-0.5
			l-0.1-0.2c-0.9,0.3-1.9,0.4-2.9,0.4c-4.3,0-6.9-2.8-6.9-7.3c0-4.5,2.8-7.4,7.1-7.4c1,0,1.9,0.1,2.8,0.4l0.1-0.3
			C159.7,133.4,158.8,133.1,157.4,133.1z"/>
	</g>
	<g>
		<path class="st0" d="M170.2,149.1c-4.3,0-7.3-3.3-7.3-8.2c0-5.1,3.2-8.5,7.5-8.5c4.4,0,7.3,3.4,7.3,8.2
			C177.7,146.1,174.3,149.1,170.2,149.1L170.2,149.1L170.2,149.1z M170.3,147.4c3.3,0,5.2-3,5.2-6.7c0-3.2-1.7-6.6-5.2-6.6
			s-5.2,3.2-5.2,6.7C165.1,144.3,166.9,147.4,170.3,147.4L170.3,147.4z"/>
		<path class="st0" d="M170.2,149.9L170.2,149.9c-4.7,0-8-3.7-8-9c0-5.4,3.4-9.2,8.2-9.2c4.8,0,8,3.6,8,8.9
			C178.4,147,174.3,149.9,170.2,149.9z M170.4,133.1c-4,0-6.7,3.1-6.7,7.7c0,4.5,2.6,7.5,6.5,7.5l0.1,0c4.1,0,6.7-3.1,6.7-7.8
			C176.9,136.1,174.3,133.1,170.4,133.1z M170.3,148.1L170.3,148.1c-3.9,0-5.9-3.7-5.9-7.3c0-4.4,2.4-7.5,6-7.5
			c3.9,0,5.9,3.7,5.9,7.3C176.2,145.1,173.7,148.1,170.3,148.1z M170.3,134.9c-3.1,0-4.5,3-4.5,6c0,2.9,1.5,5.8,4.4,5.8h0
			c3.1,0,4.4-3,4.4-6C174.7,137.9,173.3,134.9,170.3,134.9z"/>
	</g>
	<g>
		<path class="st0" d="M181,132.7h2.1v14.4h6.9v1.8h-9V132.7z"/>
		<path class="st0" d="M190.7,149.6h-10.5v-17.7h3.6v14.4h6.9V149.6z M181.7,148.1h7.5v-0.3h-6.9v-14.4h-0.6V148.1z"/>
	</g>
	<g>
		<path class="st0" d="M192.9,132.7h2.1v14.4h6.9v1.8h-9V132.7z"/>
		<path class="st0" d="M202.7,149.6h-10.5v-17.7h3.6v14.4h6.9V149.6z M193.6,148.1h7.5v-0.3h-6.9v-14.4h-0.6V148.1z"/>
	</g>
	<g>
		<path class="st0" d="M213.2,141.3h-6.3v5.8h7v1.8h-9.1v-16.2h8.8v1.8h-6.6v5.1h6.3L213.2,141.3L213.2,141.3z"/>
		<path class="st0" d="M214.7,149.6h-10.6v-17.7h10.3v3.3h-6.6v3.6h6.3v3.2h-6.3v4.3h7V149.6z M205.6,148.1h7.6v-0.3h-7v-7.3h6.3
			v-0.2h-6.3v-6.6h6.6v-0.3h-7.3V148.1z"/>
	</g>
	<g>
		<path class="st0" d="M229.6,148.1c-0.9,0.4-2.8,0.9-5,0.9c-2.4,0-4.5-0.6-6-2.1c-1.4-1.3-2.3-3.5-2.3-6c0-4.8,3.3-8.4,8.8-8.4
			c1.9,0,3.4,0.4,4.1,0.7l-0.5,1.7c-0.9-0.4-1.9-0.7-3.6-0.7c-3.9,0-6.5,2.4-6.5,6.5c0,4.1,2.4,6.5,6.2,6.5c1.4,0,2.3-0.2,2.8-0.4
			V142h-3.3v-1.7h5.3V148.1z"/>
		<path class="st0" d="M224.6,149.8c-2.8,0-4.9-0.8-6.6-2.3c-1.6-1.5-2.5-3.9-2.5-6.6c0-5.4,3.8-9.1,9.5-9.1c2,0,3.6,0.4,4.4,0.8
			l0.6,0.3l-1,3.1l-0.8-0.4c-0.9-0.4-1.9-0.6-3.3-0.6c-3.6,0-5.8,2.2-5.8,5.8c0,3.6,2.1,5.8,5.5,5.8c0.9,0,1.6-0.1,2-0.2v-3.5h-3.3
			v-3.2h6.8v9l-0.5,0.2C229.3,149,227.2,149.8,224.6,149.8z M225,133.2c-4.9,0-8,3-8,7.6c0,2.2,0.7,4.2,2,5.5
			c1.4,1.3,3.1,1.9,5.5,1.9c1.9,0,3.4-0.4,4.2-0.7v-6.5H225v0.2h3.3v6l-0.4,0.2c-0.7,0.3-1.8,0.5-3.1,0.5c-4.2,0-7-2.9-7-7.3
			c0-4.4,2.8-7.3,7.3-7.3c1.2,0,2.2,0.1,3.1,0.4l0.1-0.3C227.5,133.5,226.4,133.2,225,133.2z"/>
	</g>
	<g>
		<path class="st0" d="M241.7,141.3h-6.3v5.8h7v1.8h-9.1v-16.2h8.8v1.8h-6.6v5.1h6.3L241.7,141.3L241.7,141.3z"/>
		<path class="st0" d="M243.2,149.6h-10.6v-17.7h10.3v3.3h-6.6v3.6h6.3v3.2h-6.3v4.3h7V149.6z M234.1,148.1h7.6v-0.3h-7v-7.3h6.3
			l0-0.2h-6.3v-6.6h6.6v-0.3h-7.3V148.1z"/>
	</g>
</g>
</svg>
