<?xml version="1.0" encoding="UTF-8" standalone="no"?>
<svg
   xmlns:dc="http://purl.org/dc/elements/1.1/"
   xmlns:cc="http://creativecommons.org/ns#"
   xmlns:rdf="http://www.w3.org/1999/02/22-rdf-syntax-ns#"
   xmlns:svg="http://www.w3.org/2000/svg"
   xmlns="http://www.w3.org/2000/svg"
   xmlns:sodipodi="http://sodipodi.sourceforge.net/DTD/sodipodi-0.dtd"
   xmlns:inkscape="http://www.inkscape.org/namespaces/inkscape"
   version="1.1"
   id="svg2"
   xml:space="preserve"
   width="540"
   height="193.33333"
   viewBox="0 0 540 193.33333"
   sodipodi:docname="cvtc-logo.eps"><metadata
     id="metadata8"><rdf:RDF><cc:Work
         rdf:about=""><dc:format>image/svg+xml</dc:format><dc:type
           rdf:resource="http://purl.org/dc/dcmitype/StillImage" /></cc:Work></rdf:RDF></metadata><defs
     id="defs6" /><sodipodi:namedview
     pagecolor="#ffffff"
     bordercolor="#666666"
     borderopacity="1"
     objecttolerance="10"
     gridtolerance="10"
     guidetolerance="10"
     inkscape:pageopacity="0"
     inkscape:pageshadow="2"
     inkscape:window-width="640"
     inkscape:window-height="480"
     id="namedview4" /><g
     id="g10"
     inkscape:groupmode="layer"
     inkscape:label="ink_ext_XXXXXX"
     transform="matrix(1.3333333,0,0,-1.3333333,0,193.33333)"><g
       id="g12"
       transform="scale(0.1)"><path
         d="m 86.457,1417.9 h 482.621 c 45.426,-81.6 94.11,-188.22 114.164,-287.34 36.199,-179.013 42.035,-286.099 38.707,-362.349 H 86.457 c -17.1211,0 -31.0078,13.852 -31.0078,31.004 v 587.715 c 0,17.12 13.8867,30.97 31.0078,30.97 v 0"
         style="fill:#800431;fill-opacity:1;fill-rule:nonzero;stroke:none"
         id="path14" /><path
         d="M 1173.66,1171.38 V 799.215 c 0,-17.152 -13.87,-31.004 -31,-31.004 H 884.742 c 11.039,69.352 46.488,170.973 114.074,256.559 62.364,78.88 112.764,113.23 174.844,146.61 v 0"
         style="fill:#800431;fill-opacity:1;fill-rule:nonzero;stroke:none"
         id="path16" /><path
         d="m 766.34,1417.9 h 376.32 c 17.13,0 31,-13.85 31,-30.97 v -17.8 c -52.12,-23.28 -112.76,-59.09 -166.22,-111.54 -83.549,-82.02 -146.467,-234.44 -173.299,-315.289 0,0 -13.286,223.719 -39.5,362.639 -7.778,41.01 -18.668,80.99 -28.301,112.96 v 0"
         style="fill:#0a3057;fill-opacity:1;fill-rule:nonzero;stroke:none"
         id="path18" /><path
         d="m 270.199,158.969 c -64.484,0 -115.652,24.531 -153.504,70.09 -36.445,44.16 -55.3708,103.043 -55.3708,173.132 0,58.188 10.5078,106.547 32.2422,147.2 36.4496,69.394 103.0386,111.464 178.7386,111.464 46.965,0 91.828,-14.023 120.566,-37.851 l -37.148,-53.281 c -25.938,18.925 -52.575,27.343 -82.715,27.343 -41.36,0 -75.703,-21.035 -96.731,-58.191 -16.824,-29.434 -25.23,-70.09 -25.23,-127.566 0,-59.579 6.301,-93.231 18.926,-120.559 21.023,-46.27 60.98,-68.699 107.941,-68.699 34.344,0 59.582,9.121 86.922,30.847 l 37.844,-51.179 c -37.844,-28.739 -80.606,-42.75 -132.481,-42.75"
         style="fill:#0a3057;fill-opacity:1;fill-rule:nonzero;stroke:none"
         id="path20" /><path
         d="m 529.523,348.219 c 0,-103.039 25.938,-133.18 72.2,-133.18 45.562,0 70.797,37.152 70.797,126.18 0,100.23 -28.04,130.371 -72.903,130.371 -49.066,0 -70.094,-37.149 -70.094,-123.371 z m 227.813,-5.61 c 0,-114.238 -60.984,-185.039 -157.016,-185.039 -96.035,0 -156.312,72.192 -156.312,185.75 0,113.555 60.98,186.453 154.91,186.453 100.937,0 158.418,-75.011 158.418,-187.164"
         style="fill:#0a3057;fill-opacity:1;fill-rule:nonzero;stroke:none"
         id="path22" /><path
         d="m 917.117,158.969 c -77.801,0 -77.801,70.09 -77.801,100.242 v 302.105 c 0,48.36 -2.105,74.297 -7.011,103.731 l 79.211,17.527 c 5.601,-21.719 6.3,-51.172 6.3,-97.429 V 284.43 c 0,-47.66 2.106,-55.371 7.715,-63.789 4.203,-6.301 16.117,-9.801 25.235,-5.602 l 12.613,-47.668 c -14.016,-5.601 -28.731,-8.402 -46.262,-8.402"
         style="fill:#0a3057;fill-opacity:1;fill-rule:nonzero;stroke:none"
         id="path24" /><path
         d="m 1113.36,158.969 c -77.8,0 -77.8,70.09 -77.8,100.242 v 302.105 c 0,48.36 -2.1,74.297 -7.01,103.731 l 79.21,17.527 c 5.6,-21.719 6.31,-51.172 6.31,-97.429 V 284.43 c 0,-47.66 2.1,-55.371 7.71,-63.789 4.21,-6.301 16.12,-9.801 25.24,-5.602 l 12.61,-47.668 c -14.02,-5.601 -28.74,-8.402 -46.27,-8.402"
         style="fill:#0a3057;fill-opacity:1;fill-rule:nonzero;stroke:none"
         id="path26" /><path
         d="m 1362.89,471.59 c -43.46,0 -67.29,-34.352 -67.29,-91.828 h 131.07 c 0,57.476 -25.23,91.828 -63.78,91.828 z M 1294.9,322.988 v -5.609 c 0,-49.07 18.22,-100.938 87.61,-100.938 32.95,0 61.69,11.93 88.32,35.047 l 30.15,-46.957 c -37.16,-31.551 -79.92,-46.961 -127.58,-46.961 -100.23,0 -163.32,72.192 -163.32,185.75 0,62.379 13.32,103.739 44.16,138.785 28.74,32.95 63.79,47.668 108.65,47.668 35.04,0 67.29,-9.113 97.43,-36.457 30.84,-28.035 46.27,-71.507 46.27,-154.207 V 322.988 H 1294.9"
         style="fill:#0a3057;fill-opacity:1;fill-rule:nonzero;stroke:none"
         id="path28" /><path
         d="m 1653.75,409.91 c 0,-40.648 23.13,-59.582 60.98,-59.582 39.95,0 60.98,21.024 60.98,60.281 0,39.954 -20.32,60.981 -60.98,60.981 -39.25,0 -60.98,-21.731 -60.98,-61.68 z m 208.18,54.668 c -16.82,0 -27.34,4.207 -27.34,4.207 0,0 23.14,-23.836 23.14,-62.387 0,-61.687 -51.17,-108.636 -134.59,-108.636 -25.23,-9.121 -47.66,-22.442 -47.66,-33.653 0,-13.32 4.91,-14.73 88.32,-14.73 56.78,0 117.76,-28.738 117.76,-100.938 0,-75.691 -63.09,-116.3394 -157.71,-116.3394 -91.83,0 -158.42,30.1289 -158.42,96.7264 0,16.813 7.01,37.852 7.01,37.852 h 72.9 c 0,0 -5.61,-14.032 -5.61,-25.239 0,-32.941 28.04,-51.1715 77.8,-51.1715 54.68,0 84.12,22.4295 84.12,55.3715 0,38.558 -32.24,49.07 -98.13,49.07 -95.33,0 -116.36,18.918 -116.36,53.98 0,35.047 29.44,49.071 67.29,60.989 -53.27,15.41 -80.61,49.75 -80.61,100.23 0,72.195 56.78,119.863 141.59,119.863 50.47,0 79.21,-18.23 107.95,-18.23 23.13,0 44.86,8.414 64.49,24.527 l 35.75,-48.359 c -19.63,-16.824 -37.85,-23.133 -61.69,-23.133"
         style="fill:#0a3057;fill-opacity:1;fill-rule:nonzero;stroke:none"
         id="path30" /><path
         d="m 2096.01,471.59 c -43.46,0 -67.28,-34.352 -67.28,-91.828 h 131.06 c 0,57.476 -25.22,91.828 -63.78,91.828 z m -67.99,-148.602 v -5.609 c 0,-49.07 18.23,-100.938 87.62,-100.938 32.95,0 61.67,11.93 88.32,35.047 l 30.14,-46.957 c -37.15,-31.551 -79.91,-46.961 -127.57,-46.961 -100.24,0 -163.32,72.192 -163.32,185.75 0,62.379 13.31,103.739 44.16,138.785 28.73,32.95 63.79,47.668 108.64,47.668 35.04,0 67.3,-9.113 97.44,-36.457 30.84,-28.035 46.27,-71.507 46.27,-154.207 v -16.121 h -211.7"
         style="fill:#0a3057;fill-opacity:1;fill-rule:nonzero;stroke:none"
         id="path32" /><path
         d="M 1584.19,1025.89 H 1462.23 V 608.133 h -80.61 v 417.757 h -122.67 v 67.29 h 335.75 l -10.51,-67.29"
         style="fill:#0a3057;fill-opacity:1;fill-rule:nonzero;stroke:none"
         id="path34" /><path
         d="m 1723,913.035 c -43.46,0 -67.29,-34.347 -67.29,-91.82 h 131.08 c 0,57.473 -25.24,91.82 -63.79,91.82 z m -68,-148.597 v -5.614 c 0,-49.062 18.23,-100.937 87.63,-100.937 32.94,0 61.68,11.914 88.32,35.051 l 30.14,-46.965 c -37.15,-31.543 -79.91,-46.961 -127.58,-46.961 -100.23,0 -163.31,72.195 -163.31,185.75 0,62.383 13.31,103.738 44.15,138.789 28.74,32.941 63.79,47.668 108.65,47.668 35.05,0 67.29,-9.117 97.43,-36.457 30.84,-28.032 46.27,-71.492 46.27,-154.207 V 764.438 H 1655"
         style="fill:#0a3057;fill-opacity:1;fill-rule:nonzero;stroke:none"
         id="path36" /><path
         d="m 2079.05,599.012 c -96.74,0 -150.71,67.988 -150.71,182.246 0,128.98 77.11,190.66 156.32,190.66 38.54,0 66.59,-9.113 98.13,-38.555 l -38.55,-51.168 c -21.04,18.926 -39.26,27.34 -59.58,27.34 -24.53,0 -44.87,-12.625 -56.08,-35.754 -10.51,-21.726 -14.72,-54.672 -14.72,-98.828 0,-48.367 7.71,-79.215 23.84,-96.734 11.21,-12.617 28.03,-20.332 46.96,-20.332 24.53,0 48.37,11.914 71.5,35.051 l 36.44,-46.965 c -32.24,-32.235 -65.88,-46.961 -113.55,-46.961"
         style="fill:#0a3057;fill-opacity:1;fill-rule:nonzero;stroke:none"
         id="path38" /><path
         d="M 2466.63,608.133 V 849.25 c 0,44.156 -15.41,56.777 -44.85,56.777 -27.34,0 -60.29,-17.527 -85.52,-43.457 V 608.133 h -77.8 v 421.957 c 0,31.55 -2.81,58.89 -7.01,77.11 l 77.81,16.82 c 4.9,-20.32 7,-49.07 7,-83.41 v -75.704 c 0,-22.429 -1.4,-39.953 -1.4,-39.953 35.05,31.539 70.79,46.266 108.64,46.266 42.07,0 74.31,-20.328 86.23,-43.461 9.1,-17.52 11.91,-33.649 11.91,-69.395 v -250.23 h -75.01"
         style="fill:#0a3057;fill-opacity:1;fill-rule:nonzero;stroke:none"
         id="path40" /><path
         d="m 2840.21,608.133 v 235.508 c 0,48.363 -11.22,61.687 -40.65,61.687 -22.43,0 -54.68,-16.828 -77.81,-39.953 V 608.133 h -75.7 v 260.742 c 0,37.152 -3.51,58.883 -13.33,84.117 l 70.09,19.629 c 8.42,-16.129 12.64,-31.551 12.64,-50.469 37.85,32.246 70.78,49.067 108.63,49.067 54.68,0 92.53,-32.949 92.53,-98.137 V 608.133 h -76.4"
         style="fill:#0a3057;fill-opacity:1;fill-rule:nonzero;stroke:none"
         id="path42" /><path
         d="m 3021.03,608.133 v 349.062 l 77.81,14.024 V 608.133 Z m -11.23,458.417 c 0,28.73 22.45,51.87 51.19,51.87 27.32,0 50.46,-22.44 50.46,-51.87 0,-28.04 -23.14,-51.17 -51.88,-51.17 -28.02,0 -49.77,23.13 -49.77,51.17"
         style="fill:#0a3057;fill-opacity:1;fill-rule:nonzero;stroke:none"
         id="path44" /><path
         d="m 3333.63,599.012 c -96.75,0 -150.7,67.988 -150.7,182.246 0,128.98 77.09,190.66 156.31,190.66 38.54,0 66.59,-9.113 98.13,-38.555 l -38.56,-51.168 c -21.03,18.926 -39.24,27.34 -59.57,27.34 -24.54,0 -44.87,-12.625 -56.1,-35.754 -10.49,-21.726 -14.71,-54.672 -14.71,-98.828 0,-48.367 7.72,-79.215 23.83,-96.734 11.22,-12.617 28.04,-20.332 46.98,-20.332 24.52,0 48.35,11.914 71.48,35.051 l 36.46,-46.965 c -32.24,-32.235 -65.9,-46.961 -113.55,-46.961"
         style="fill:#0a3057;fill-opacity:1;fill-rule:nonzero;stroke:none"
         id="path46" /><path
         d="m 3674.26,775.652 c -77.12,0 -100.25,-22.433 -100.25,-67.297 0,-33.64 18.24,-54.667 49.07,-54.667 24.54,0 48.37,14.718 63.79,37.14 l 1.41,84.125 c 0,0 -8.42,0.699 -14.02,0.699 z m 79.89,-182.246 c -21.72,8.407 -39.94,25.235 -48.35,47.657 -28.74,-32.239 -59.59,-43.458 -97.44,-43.458 -81.31,0 -117.76,44.864 -117.76,106.551 0,82.008 61.69,123.36 175.24,123.36 h 23.83 v 18.925 c 0,40.661 -7,62.395 -49.07,62.395 -51.16,0 -105.83,-40.664 -105.83,-40.664 l -34.35,55.379 c 53.26,33.644 97.41,48.367 150.7,48.367 55.37,0 92.53,-20.328 107.94,-58.883 6.31,-15.422 6.31,-34.347 5.61,-86.918 l -1.39,-101.637 c -0.72,-47.667 3.5,-63.085 30.83,-82.011 l -39.96,-49.063"
         style="fill:#0a3057;fill-opacity:1;fill-rule:nonzero;stroke:none"
         id="path48" /><path
         d="m 3948.29,600.406 c -77.81,0 -77.81,70.09 -77.81,100.246 v 302.108 c 0,48.36 -2.11,74.3 -7,103.74 l 79.2,17.52 c 5.61,-21.73 6.3,-51.16 6.3,-97.43 V 725.887 c 0,-47.668 2.11,-55.391 7.72,-63.789 4.2,-6.321 16.13,-9.817 25.24,-5.606 l 12.61,-47.668 c -14.02,-5.613 -28.74,-8.418 -46.26,-8.418"
         style="fill:#0a3057;fill-opacity:1;fill-rule:nonzero;stroke:none"
         id="path50" /><path
         d="m 1344.39,1184.01 c -28.53,0 -51.16,10.86 -67.91,31.01 -16.12,19.53 -24.49,45.58 -24.49,76.59 0,25.73 4.65,47.13 14.26,65.12 16.13,30.69 45.58,49.29 79.07,49.29 20.78,0 40.62,-6.2 53.33,-16.74 l -16.43,-23.57 c -11.47,8.38 -23.26,12.1 -36.59,12.1 -18.3,0 -33.49,-9.31 -42.79,-25.74 -7.44,-13.02 -11.17,-31.01 -11.17,-56.43 0,-26.36 2.8,-41.24 8.38,-53.33 9.3,-20.47 26.98,-30.39 47.75,-30.39 15.2,0 26.36,4.03 38.45,13.64 l 16.74,-22.63 c -16.74,-12.71 -35.65,-18.92 -58.6,-18.92"
         style="fill:#800431;fill-opacity:1;fill-rule:nonzero;stroke:none"
         id="path52" /><path
         d="m 1526.14,1187.42 v 106.67 c 0,19.53 -6.82,25.12 -19.85,25.12 -12.09,0 -26.66,-7.76 -37.82,-19.23 v -112.56 h -34.43 v 186.67 c 0,13.95 -1.23,26.04 -3.1,34.1 l 34.42,7.45 c 2.18,-9 3.11,-21.71 3.11,-36.9 v -33.49 c 0,-9.93 -0.63,-17.68 -0.63,-17.68 15.5,13.96 31.32,20.47 48.07,20.47 18.6,0 32.85,-8.99 38.13,-19.22 4.04,-7.76 5.27,-14.89 5.27,-30.7 v -110.7 h -33.17"
         style="fill:#800431;fill-opacity:1;fill-rule:nonzero;stroke:none"
         id="path54" /><path
         d="m 1607.11,1187.42 v 154.42 l 34.42,6.2 v -160.62 z m -4.96,202.79 c 0,12.71 9.92,22.95 22.64,22.95 12.09,0 22.32,-9.93 22.32,-22.95 0,-12.4 -10.23,-22.64 -22.94,-22.64 -12.4,0 -22.02,10.24 -22.02,22.64"
         style="fill:#800431;fill-opacity:1;fill-rule:nonzero;stroke:none"
         id="path56" /><path
         d="m 1724.34,1303.39 v -78.14 c 8.07,-8.06 18.91,-13.95 29.15,-13.95 22.95,0 33.18,17.05 33.18,54.26 0,35.04 -6.82,53.96 -29.15,53.96 -12.4,0 -23.88,-5.59 -33.18,-16.13 z m 36.59,-119.07 c -13.34,0 -26.36,4.34 -37.21,12.72 0,0 0.62,-6.82 0.62,-15.51 v -52.4 l -32.87,-8.37 v 182.94 c 0,19.53 -0.93,27.6 -3.1,39.07 l 31.33,5.58 c 1.55,-5.27 2.16,-9.61 2.47,-19.22 9.92,12.08 25.42,18.6 41.86,18.6 31.63,0 59.23,-23.87 59.23,-78.45 0,-52.09 -22.33,-84.96 -62.33,-84.96"
         style="fill:#800431;fill-opacity:1;fill-rule:nonzero;stroke:none"
         id="path58" /><path
         d="m 1895.54,1303.39 v -78.14 c 8.06,-8.06 18.91,-13.95 29.14,-13.95 22.96,0 33.19,17.05 33.19,54.26 0,35.04 -6.83,53.96 -29.15,53.96 -12.41,0 -23.88,-5.59 -33.18,-16.13 z m 36.59,-119.07 c -13.34,0 -26.36,4.34 -37.21,12.72 0,0 0.62,-6.82 0.62,-15.51 v -52.4 l -32.87,-8.37 v 182.94 c 0,19.53 -0.93,27.6 -3.09,39.07 l 31.31,5.58 c 1.55,-5.27 2.17,-9.61 2.48,-19.22 9.92,12.08 25.42,18.6 41.86,18.6 31.63,0 59.23,-23.87 59.23,-78.45 0,-52.09 -22.34,-84.96 -62.33,-84.96"
         style="fill:#800431;fill-opacity:1;fill-rule:nonzero;stroke:none"
         id="path60" /><path
         d="m 2090.31,1322.3 c -19.23,0 -29.77,-15.19 -29.77,-40.62 h 58 c 0,25.43 -11.18,40.62 -28.23,40.62 z m -30.07,-65.73 v -2.48 c 0,-21.7 8.06,-44.65 38.75,-44.65 14.58,0 27.29,5.27 39.09,15.5 l 13.33,-20.78 c -16.45,-13.94 -35.37,-20.77 -56.43,-20.77 -44.35,0 -72.27,31.93 -72.27,82.17 0,27.6 5.9,45.89 19.55,61.4 12.71,14.57 28.22,21.08 48.05,21.08 15.5,0 29.78,-4.03 43.1,-16.12 13.64,-12.4 20.47,-31.63 20.47,-68.22 v -7.13 h -93.64"
         style="fill:#800431;fill-opacity:1;fill-rule:nonzero;stroke:none"
         id="path62" /><path
         d="m 2340.57,1186.8 h -31.94 l -19.22,72.25 c -4.96,18.6 -10.23,42.79 -10.23,42.79 h -0.63 c 0,0 -2.47,-15.5 -10.23,-44.34 l -18.92,-70.7 h -31.92 l -42.78,155.34 33.79,4.66 17.05,-75.97 c 4.34,-19.53 8.04,-41.24 8.04,-41.24 h 0.95 c 0,0 3.1,20.46 9,42.18 l 20.14,72.55 h 33.5 l 17.66,-70.7 c 6.53,-25.42 9.94,-44.65 9.94,-44.65 h 0.91 c 0,0 3.73,23.87 7.77,42.17 l 16.11,73.18 h 35.36 l -44.35,-157.52"
         style="fill:#800431;fill-opacity:1;fill-rule:nonzero;stroke:none"
         id="path64" /><path
         d="m 2485.12,1261.53 c -34.1,0 -44.34,-9.92 -44.34,-29.77 0,-14.88 8.06,-24.19 21.7,-24.19 10.86,0 21.41,6.52 28.22,16.44 l 0.64,37.21 c 0,0 -3.73,0.31 -6.22,0.31 z m 35.36,-80.62 c -9.63,3.72 -17.68,11.16 -21.41,21.09 -12.71,-14.27 -26.36,-19.23 -43.09,-19.23 -35.97,0 -52.1,19.84 -52.1,47.14 0,36.27 27.28,54.57 77.52,54.57 h 10.54 v 8.37 c 0,17.98 -3.09,27.6 -21.7,27.6 -22.63,0 -46.82,-17.99 -46.82,-17.99 l -15.19,24.5 c 23.56,14.88 43.1,21.39 66.66,21.39 24.49,0 40.92,-8.99 47.75,-26.05 2.8,-6.82 2.8,-15.19 2.49,-38.45 l -0.64,-44.96 c -0.31,-21.08 1.55,-27.91 13.64,-36.28 l -17.65,-21.7"
         style="fill:#800431;fill-opacity:1;fill-rule:nonzero;stroke:none"
         id="path66" /><path
         d="m 2722.09,1186.49 h -33.16 L 2616.66,1402 h 39.08 l 38.75,-121.56 c 8.68,-27.28 11.17,-43.1 11.17,-43.1 h 0.61 c 0,0 2.49,13.03 13.04,44.96 l 39.37,119.7 h 37.23 l -73.82,-215.51"
         style="fill:#800431;fill-opacity:1;fill-rule:nonzero;stroke:none"
         id="path68" /><path
         d="m 2875.58,1261.53 c -34.11,0 -44.34,-9.92 -44.34,-29.77 0,-14.88 8.06,-24.19 21.7,-24.19 10.86,0 21.4,6.52 28.22,16.44 l 0.63,37.21 c 0,0 -3.72,0.31 -6.21,0.31 z m 35.36,-80.62 c -9.63,3.72 -17.69,11.16 -21.41,21.09 -12.72,-14.27 -26.37,-19.23 -43.1,-19.23 -35.96,0 -52.09,19.84 -52.09,47.14 0,36.27 27.27,54.57 77.51,54.57 h 10.54 v 8.37 c 0,17.98 -3.09,27.6 -21.69,27.6 -22.64,0 -46.82,-17.99 -46.82,-17.99 l -15.2,24.5 c 23.57,14.88 43.11,21.39 66.66,21.39 24.5,0 40.93,-8.99 47.75,-26.05 2.8,-6.82 2.8,-15.19 2.49,-38.45 l -0.63,-44.96 c -0.31,-21.08 1.54,-27.91 13.64,-36.28 l -17.65,-21.7"
         style="fill:#800431;fill-opacity:1;fill-rule:nonzero;stroke:none"
         id="path70" /><path
         d="m 2999.04,1184.01 c -34.42,0 -34.42,31.01 -34.42,44.34 v 133.64 c 0,21.4 -0.94,32.87 -3.1,45.89 l 35.03,7.76 c 2.49,-9.62 2.81,-22.64 2.81,-43.1 v -133.02 c 0,-21.09 0.91,-24.5 3.4,-28.22 1.87,-2.79 7.14,-4.34 11.16,-2.48 l 5.58,-21.09 c -6.19,-2.48 -12.72,-3.72 -20.46,-3.72"
         style="fill:#800431;fill-opacity:1;fill-rule:nonzero;stroke:none"
         id="path72" /><path
         d="m 3088.05,1184.01 c -34.43,0 -34.43,31.01 -34.43,44.34 v 133.64 c 0,21.4 -0.93,32.87 -3.09,45.89 l 35.03,7.76 c 2.49,-9.62 2.8,-22.64 2.8,-43.1 v -133.02 c 0,-21.09 0.92,-24.5 3.41,-28.22 1.86,-2.79 7.14,-4.34 11.15,-2.48 l 5.59,-21.09 c -6.2,-2.48 -12.73,-3.72 -20.46,-3.72"
         style="fill:#800431;fill-opacity:1;fill-rule:nonzero;stroke:none"
         id="path74" /><path
         d="m 3200.63,1322.3 c -19.23,0 -29.77,-15.19 -29.77,-40.62 h 57.97 c 0,25.43 -11.15,40.62 -28.2,40.62 z m -30.09,-65.73 v -2.48 c 0,-21.7 8.05,-44.65 38.77,-44.65 14.56,0 27.28,5.27 39.06,15.5 l 13.33,-20.78 c -16.43,-13.94 -35.33,-20.77 -56.43,-20.77 -44.33,0 -72.24,31.93 -72.24,82.17 0,27.6 5.88,45.89 19.54,61.4 12.7,14.57 28.2,21.08 48.06,21.08 15.5,0 29.75,-4.03 43.1,-16.12 13.64,-12.4 20.46,-31.63 20.46,-68.22 v -7.13 h -93.65"
         style="fill:#800431;fill-opacity:1;fill-rule:nonzero;stroke:none"
         id="path76" /><path
         d="m 3373.36,1184.01 c -13.01,-37.83 -24.18,-56.75 -61.07,-63.56 l -11.17,22.01 c 21.4,5.9 33.5,14.89 42.49,44.96 h -10.86 c -4.35,17.67 -10.23,34.72 -14.87,48.68 l -35.67,105.74 34.72,5.89 28.84,-95.5 c 2.8,-9.62 8.68,-35.35 8.68,-35.35 0,0 5.9,23.25 11.78,42.48 l 26.05,84.96 h 36.59 l -55.51,-160.31"
         style="fill:#800431;fill-opacity:1;fill-rule:nonzero;stroke:none"
         id="path78" /></g></g></svg>
