<?xml version="1.0" encoding="utf-8"?>
<!-- Generator: Adobe Illustrator 15.1.0, SVG Export Plug-In . SVG Version: 6.00 Build 0)  -->
<!DOCTYPE svg PUBLIC "-//W3C//DTD SVG 1.1//EN" "http://www.w3.org/Graphics/SVG/1.1/DTD/svg11.dtd">
<svg version="1.1" id="Layer_1" xmlns="http://www.w3.org/2000/svg" xmlns:xlink="http://www.w3.org/1999/xlink" x="0px" y="0px"
	 width="108px" height="108px" viewBox="0 0 108 108" enable-background="new 0 0 108 108" xml:space="preserve">
<g>
	<path fill="#A3732A" stroke="#184A97" stroke-width="1.1026" d="M53.899,17.869c-20.218,0-36.616,16.324-36.748,36.51h73.495
		C90.514,34.193,74.115,17.869,53.899,17.869z"/>
	<path fill="#949EC4" stroke="#184A97" stroke-width="1.1026" d="M17.151,54.378c0,0.082-0.007,0.162-0.007,0.244
		c0,20.298,16.455,36.754,36.755,36.754c0.327,0,0.653-0.016,0.979-0.025V54.378H17.151z"/>
	<path fill="#9A1D21" stroke="#184A97" stroke-width="1.1026" d="M90.653,54.623c0-0.082-0.007-0.162-0.007-0.244H54.879v36.973
		C74.722,90.831,90.653,74.592,90.653,54.623z"/>
	<g>
		<path fill="#949EC4" d="M47.829,86.469c0-0.338,0-1.034,0-1.37c-0.332,0-8.361,0-14.482,0c0.718,0.483,1.459,0.935,2.211,1.37
			C41.242,86.469,47.536,86.469,47.829,86.469z"/>
		<path fill="#949EC4" d="M45.603,80.733c-0.525,0-16.384,0-16.909,0c0,0.155,0,0.388,0,0.625c0.268,0.252,0.534,0.501,0.811,0.745
			c3.322,0,15.637,0,16.099,0C45.603,81.768,45.603,81.07,45.603,80.733z"/>
		<path fill="#949EC4" d="M46.736,82.916c-0.402,0-11.035,0-16.293,0c0.571,0.476,1.16,0.93,1.763,1.369c5.562,0,14.168,0,14.53,0
			C46.736,83.949,46.736,83.254,46.736,82.916z"/>
		<path fill="#949EC4" d="M29.785,78.552c0,0.336,0,1.032,0,1.369c0.521,0,14.204,0,14.726,0c0-0.337,0-1.033,0-1.369
			C43.989,78.552,30.306,78.552,29.785,78.552z"/>
		<path fill="#949EC4" d="M31.095,76.369c0,0.336,0,1.033,0,1.368c0.515,0,11.59,0,12.106,0c0-0.335,0-1.032,0-1.368
			C42.685,76.369,31.609,76.369,31.095,76.369z"/>
		<path fill="#949EC4" d="M33.538,72.006c0,0.336,0,1.031,0,1.369c0.494,0,6.724,0,7.218,0c0-0.338,0-1.033,0-1.369
			C40.262,72.006,34.032,72.006,33.538,72.006z"/>
		<path fill="#949EC4" d="M32.402,74.187c0,0.336,0,1.034,0,1.37c0.508,0,8.982,0,9.489,0c0-0.336,0-1.034,0-1.37
			C41.385,74.187,32.91,74.187,32.402,74.187z"/>
		<path fill="#0B0D0C" d="M41.308,71.453h-3.68v0.014h-1.484v-0.014h-3.155v2.182h8.319V71.453z M33.538,73.375
			c0-0.338,0-1.033,0-1.369c0.494,0,6.724,0,7.218,0c0,0.336,0,1.031,0,1.369C40.262,73.375,34.032,73.375,33.538,73.375z"/>
		<path fill="#0B0D0C" d="M42.442,73.635h-1.135v0.291h-8.319v-0.291h-1.135v2.182h10.589V73.635z M32.402,75.557
			c0-0.336,0-1.034,0-1.37c0.508,0,8.982,0,9.489,0c0,0.336,0,1.034,0,1.37C41.385,75.557,32.91,75.557,32.402,75.557z"/>
		<rect x="32.988" y="73.635" fill="#0B0D0C" width="8.319" height="0.291"/>
		<path fill="#0B0D0C" d="M43.752,75.816h-1.31v0.291H31.854v-0.291h-1.312V78h13.21V75.816z M31.095,77.737
			c0-0.335,0-1.032,0-1.368c0.515,0,11.59,0,12.106,0c0,0.336,0,1.033,0,1.368C42.685,77.737,31.609,77.737,31.095,77.737z"/>
		<rect x="31.854" y="75.816" fill="#0B0D0C" width="10.589" height="0.291"/>
		<path fill="#0B0D0C" d="M45.063,78h-1.311v0.291h-13.21V78h-1.309v2.183h15.829V78z M29.785,79.921c0-0.337,0-1.033,0-1.369
			c0.521,0,14.204,0,14.726,0c0,0.336,0,1.032,0,1.369C43.989,79.921,30.306,79.921,29.785,79.921z"/>
		<rect x="30.542" y="78" fill="#0B0D0C" width="13.21" height="0.291"/>
		<path fill="#0B0D0C" d="M28.693,80.733c0.525,0,16.384,0,16.909,0c0,0.337,0,1.034,0,1.37c-0.462,0-12.776,0-16.099,0
			c0.099,0.088,0.201,0.173,0.302,0.261h16.349v-2.182h-1.092v0.289H29.233v-0.289h-1.092v0.65c0.181,0.179,0.366,0.352,0.552,0.525
			C28.693,81.121,28.693,80.889,28.693,80.733z"/>
		<rect x="29.233" y="80.183" fill="#0B0D0C" width="15.829" height="0.289"/>
		<path fill="#0B0D0C" d="M30.141,82.654c0.102,0.087,0.198,0.177,0.303,0.262c5.258,0,15.891,0,16.293,0c0,0.338,0,1.033,0,1.369
			c-0.362,0-8.969,0-14.53,0c0.119,0.089,0.244,0.175,0.366,0.262h14.716v-2.183h-1.134v0.29H30.141z"/>
		<path fill="#0B0D0C" d="M30.141,82.654h16.014v-0.29H29.806C29.916,82.461,30.028,82.559,30.141,82.654z"/>
		<path fill="#0B0D0C" d="M48.379,84.547h-1.091v0.29H32.98c0.123,0.085,0.243,0.179,0.366,0.262c6.121,0,14.15,0,14.482,0
			c0,0.336,0,1.032,0,1.37c-0.293,0-6.587,0-12.271,0c0.324,0.186,0.646,0.373,0.977,0.551h11.845V84.547z"/>
		<path fill="#0B0D0C" d="M32.98,84.837h14.308v-0.29H32.572C32.708,84.643,32.843,84.742,32.98,84.837z"/>
		<rect x="36.144" y="62.633" fill="#0B0D0C" width="1.484" height="8.82"/>
		<rect x="36.144" y="58.197" fill="#0B0D0C" width="1.484" height="2.951"/>
		<rect x="36.144" y="71.453" fill="#0B0D0C" width="1.484" height="0.014"/>
		<rect x="37.628" y="61.148" fill="#0B0D0C" width="2.662" height="1.484"/>
		<rect x="33.48" y="61.148" fill="#0B0D0C" width="2.663" height="1.484"/>
		<rect x="36.144" y="61.148" fill="#0B0D0C" width="1.484" height="1.484"/>
		<path d="M47.109,59.604c-0.073-0.029-0.742-0.289-1.58,0.114c-1.03,0.493-1.839,1.739-2.406,3.703
			c-1.355,4.704,0.188,5.588,0.37,5.673c0.135,0.064,0.295,0.039,0.406-0.061c0.109-0.102,0.147-0.258,0.097-0.398
			c-0.104-0.286-0.254-0.977-0.058-1.271c0.042-0.064,0.129-0.151,0.368-0.163c0.191-0.01,0.344-0.165,0.351-0.358
			c0.012-0.464,0.17-0.926,0.278-0.932c0.112-0.006,0.213-0.061,0.279-0.15c0.064-0.09,0.086-0.204,0.059-0.311
			c-0.083-0.314-0.141-0.855-0.009-1.08l0.092-0.076c0.104-0.082,0.292-0.287,0.269-0.419c-0.003-0.022-0.091-0.573,0.327-0.765
			c0.09-0.041,0.159-0.119,0.192-0.214s0.024-0.2-0.02-0.29c-0.025-0.047-0.583-1.197,1.057-2.363
			c0.108-0.077,0.166-0.207,0.151-0.34C47.317,59.77,47.232,59.656,47.109,59.604z M45.798,62.775
			c-0.69,0.314-0.534,1.163-0.534,1.163c-0.724,0.189-0.346,1.604-0.346,1.604c-0.599,0.031-0.629,1.291-0.629,1.291
			c-1.321,0.063-0.639,1.928-0.639,1.928s-1.483-0.699-0.175-5.238c1.3-4.506,3.476-3.588,3.493-3.58
			C45.022,61.326,45.798,62.775,45.798,62.775z"/>
		<path d="M43.476,63.523c-1.309,4.539,0.175,5.238,0.175,5.238s-0.683-1.865,0.639-1.928c0,0,0.03-1.26,0.629-1.291
			c0,0-0.378-1.415,0.346-1.604c0,0-0.156-0.849,0.534-1.163c0,0-0.775-1.449,1.171-2.832
			C46.951,59.936,44.775,59.018,43.476,63.523z M44.899,63.979c0.002,0.008,0.002,0.02,0.004,0.027
			C44.901,63.998,44.901,63.986,44.899,63.979z M45.285,62.049c0,0.24,0.043,0.43,0.083,0.583c-0.369,0.308-0.488,0.759-0.488,1.105
			c0,0.024,0.005,0.042,0.005,0.065c-0.128,0.098-0.256,0.196-0.256,0.196c-0.135,0.231-0.176,0.524-0.176,0.798
			c0,0.215,0.023,0.412,0.052,0.564c-0.381,0.285-0.524,0.847-0.562,1.198c-0.298,0.095-0.515,0.242-0.617,0.396
			c-0.004-0.092-0.023-0.15-0.023-0.255c0-0.713,0.132-1.706,0.525-3.077c0.629-2.171,1.438-2.959,2.006-3.237
			c0.055-0.027,0.09-0.016,0.141-0.035C45.441,60.974,45.285,61.58,45.285,62.049z"/>
		<path d="M28.756,59.718c-0.838-0.403-1.508-0.144-1.582-0.114c-0.122,0.053-0.209,0.166-0.224,0.299s0.044,0.263,0.151,0.34
			c1.64,1.166,1.083,2.316,1.058,2.363c-0.045,0.09-0.053,0.195-0.021,0.29s0.103,0.173,0.195,0.214
			c0.417,0.191,0.328,0.742,0.324,0.765c-0.021,0.132,0.164,0.337,0.269,0.419l0.093,0.076c0.132,0.225,0.073,0.766-0.009,1.08
			c-0.028,0.106-0.008,0.223,0.059,0.311c0.065,0.09,0.168,0.145,0.278,0.15c0.108,0.006,0.267,0.468,0.28,0.932
			c0.005,0.193,0.158,0.349,0.351,0.358c0.238,0.012,0.323,0.099,0.368,0.163c0.195,0.295,0.045,0.985-0.06,1.271
			c-0.051,0.141-0.012,0.298,0.099,0.398c0.11,0.1,0.269,0.125,0.404,0.061c0.18-0.085,1.728-0.969,0.371-5.673
			C30.595,61.457,29.785,60.211,28.756,59.718z M30.634,68.762c0,0,0.683-1.865-0.639-1.928c0,0-0.03-1.26-0.629-1.291
			c0,0,0.377-1.415-0.346-1.604c0,0,0.156-0.849-0.534-1.163c0,0,0.774-1.449-1.171-2.832c0.017-0.008,2.193-0.926,3.492,3.58
			C32.117,68.063,30.634,68.762,30.634,68.762z"/>
		<path d="M27.315,59.943c1.945,1.383,1.171,2.832,1.171,2.832c0.69,0.314,0.534,1.163,0.534,1.163
			c0.723,0.189,0.346,1.604,0.346,1.604c0.599,0.031,0.629,1.291,0.629,1.291c1.321,0.063,0.639,1.928,0.639,1.928
			s1.483-0.699,0.174-5.238C29.509,59.018,27.332,59.936,27.315,59.943z M29.381,64.006c0.003-0.009,0.004-0.027,0.004-0.027
			S29.384,63.997,29.381,64.006z M30.957,66.956c-0.102-0.154-0.321-0.302-0.616-0.396c-0.039-0.352-0.18-0.913-0.562-1.198
			c0.027-0.152,0.052-0.35,0.052-0.564c0-0.273-0.041-0.566-0.176-0.798c0,0-0.129-0.099-0.257-0.196
			c0.001-0.023,0.006-0.041,0.006-0.065c0-0.347-0.121-0.798-0.49-1.105c0.042-0.153,0.084-0.343,0.084-0.583
			c0-0.469-0.155-1.075-0.689-1.697c0.052,0.02,0.086,0.008,0.143,0.035c0.567,0.278,1.376,1.066,2.003,3.237
			c0.395,1.371,0.527,2.364,0.527,3.077C30.981,66.806,30.964,66.864,30.957,66.956z"/>
	</g>
	<g>
		<g>
			<path d="M62.607,57.941c-0.095,0.008-0.154,0.084-0.156,0.178c-0.01,0.666-0.558,1.208-1.223,1.208
				c-0.332,0-0.645-0.134-0.878-0.374c-0.066-0.07-0.162-0.086-0.236-0.023l-0.932,0.784c-0.067,0.058-0.072,0.144-0.026,0.22
				c0.114,0.197,0.174,0.404,0.174,0.619c0,0.674-0.551,1.225-1.227,1.225c-0.047-0.004-0.099-0.012-0.099-0.012
				c-0.084-0.01-0.16,0.04-0.188,0.119c-0.207,0.561-0.33,1.146-0.368,1.744c-0.005,0.093,0.059,0.174,0.149,0.191
				c0.577,0.111,0.996,0.617,0.996,1.204c0,0.438-0.242,0.847-0.633,1.063c-0.079,0.045-0.115,0.144-0.079,0.229
				c0.217,0.538,0.512,1.047,0.876,1.507c0.062,0.08,0.175,0.094,0.257,0.032c0.218-0.168,0.477-0.26,0.742-0.26
				c0.677,0,1.227,0.549,1.227,1.225l-0.114,0.51c-0.02,0.084,0.01,0.205,0.087,0.242c0.453,0.214,0.914,0.37,1.369,0.466
				c0.09,0.019,0.178-0.03,0.21-0.114c0.182-0.484,0.631-0.797,1.143-0.797c0.497,0,0.942,0.298,1.132,0.758
				c0.038,0.09,0.119,0.143,0.212,0.108l1.299-0.47c0.082-0.029,0.108-0.125,0.097-0.212l-0.044-0.308
				c0-0.675,0.55-1.225,1.227-1.225l0.553,0.141c0.07,0.017,0.184,0.008,0.227-0.048c0.366-0.452,0.664-0.949,0.885-1.477
				c0.034-0.081,0.006-0.177-0.068-0.226c-0.349-0.227-0.556-0.611-0.556-1.023c0-0.574,0.39-1.062,0.949-1.192
				c0.085-0.019,0.145-0.098,0.142-0.187c-0.022-0.584-0.124-1.154-0.303-1.693c-0.03-0.086-0.144-0.132-0.232-0.116l-0.372,0.063
				c-0.675,0-1.224-0.549-1.224-1.227c0-0.324,0.125-0.63,0.354-0.861c0.07-0.071,0.07-0.188,0-0.258
				c-0.344-0.347-0.744-0.66-1.187-0.929c-0.083-0.05-0.192-0.026-0.247,0.054c-0.229,0.33-0.605,0.526-1.004,0.526
				c-0.676,0-1.227-0.551-1.227-1.226c0-0.1-0.066-0.213-0.164-0.22l-0.539-0.026L62.607,57.941z M59.474,59.749
				c0.019,0.034,0.029,0.069,0.029,0.103c0,0.001-0.001,0.001-0.001,0.002C59.485,59.82,59.492,59.783,59.474,59.749z
				 M63.587,58.225c0,0,0.218,0.01,0.365,0.018c0.074,0.809,0.736,1.451,1.564,1.451l0,0c0.45,0,0.858-0.221,1.158-0.554
				c0.333,0.21,0.635,0.448,0.905,0.706c-0.21,0.275-0.35,0.598-0.35,0.949c0,0.881,0.716,1.596,1.593,1.596
				c0,0,0.146-0.025,0.282-0.049c0.127,0.424,0.209,0.867,0.236,1.324c-0.632,0.221-1.069,0.797-1.069,1.48
				c0,0.473,0.237,0.896,0.598,1.197c-0.189,0.428-0.431,0.831-0.722,1.206c-0.2-0.05-0.549-0.138-0.549-0.138
				c-0.88,0-1.594,0.713-1.594,1.592c0,0,0.017,0.119,0.032,0.233c-0.178,0.064-0.86,0.312-1.006,0.364
				c-0.279-0.5-0.773-0.842-1.354-0.842c-0.592,0-1.1,0.367-1.371,0.887c-0.354-0.08-0.708-0.204-1.06-0.361
				c0.043-0.193,0.104-0.465,0.104-0.465c0-0.877-0.713-1.592-1.594-1.592c-0.277,0-0.529,0.126-0.771,0.268
				c-0.287-0.379-0.524-0.787-0.709-1.219c0.408-0.299,0.685-0.746,0.685-1.253c0-0.7-0.467-1.288-1.12-1.497
				c0.041-0.477,0.138-0.941,0.292-1.389c0.865-0.018,1.563-0.721,1.563-1.586c0-0.225-0.082-0.436-0.179-0.643
				c0.107-0.09,0.582-0.49,0.714-0.601c0.284,0.234,0.625,0.384,0.997,0.384c0.804,0,1.454-0.618,1.555-1.4
				C62.962,58.278,63.587,58.225,63.587,58.225z"/>
		</g>
	</g>
	<g>
		<path d="M60.508,61.176c-0.799,0.798-1.24,1.859-1.24,2.988c0,2.332,1.896,4.227,4.228,4.227s4.228-1.895,4.228-4.227
			c0-2.33-1.896-4.227-4.228-4.227C62.365,59.938,61.306,60.379,60.508,61.176z M59.635,64.164c0-1.031,0.402-2,1.133-2.729
			c0.728-0.729,1.697-1.131,2.728-1.131c2.128,0,3.859,1.732,3.859,3.859c0,2.129-1.731,3.859-3.859,3.859
			C61.368,68.023,59.635,66.293,59.635,64.164z"/>
	</g>
	<g>
		<g>
			<path d="M68.81,57.549c-0.101,0-0.185,0.084-0.185,0.185v9.312c0,0.709,0.577,1.287,1.286,1.287s1.286-0.578,1.286-1.287v-9.312
				c0-0.101-0.081-0.185-0.183-0.185H68.81z M70.831,57.917c0,0.354,0,9.128,0,9.128c0,0.507-0.412,0.918-0.92,0.918
				c-0.507,0-0.918-0.411-0.918-0.918c0,0,0-8.774,0-9.128C69.274,57.917,70.549,57.917,70.831,57.917z"/>
		</g>
	</g>
	<g>
		<path d="M72.921,56.569c-0.102,0-0.184,0.083-0.184,0.183c0,0,0,2.619,0,2.828c-1.612,0.556-2.695,2.024-2.695,3.728
			c0,1.994,1.5,3.685,3.49,3.933c-0.057-0.018,0.49,0.111,0.49,0.111l0.55-0.129c1.932-0.23,3.433-1.921,3.433-3.915
			c0-1.703-1.083-3.172-2.695-3.728c0-0.209,0-2.828,0-2.828c0-0.1-0.083-0.183-0.183-0.183H72.921z M74.942,56.938
			c0,0.322,0,2.754,0,2.754c0,0.081,0.054,0.151,0.131,0.176c1.534,0.469,2.564,1.85,2.564,3.44c0,1.81-1.362,3.343-3.167,3.567
			c-0.057,0.017-0.448,0.108-0.448,0.108l-0.389-0.092c-1.863-0.241-3.225-1.774-3.225-3.584c0-1.591,1.03-2.972,2.566-3.44
			c0.075-0.024,0.129-0.095,0.129-0.176c0,0,0-2.432,0-2.754C73.385,56.938,74.662,56.938,74.942,56.938z"/>
	</g>
	<g>
		<g>
			<path d="M72.361,64.195c-0.118,0-0.214,0.097-0.214,0.215v3.369c0,0.727,0.77,1.316,1.716,1.316s1.715-0.59,1.715-1.316V64.41
				c0-0.118-0.097-0.215-0.214-0.215H72.361z M75.148,64.625c0,0.375,0,3.154,0,3.154c0,0.482-0.588,0.889-1.285,0.889
				c-0.698,0-1.287-0.406-1.287-0.889c0,0,0-2.779,0-3.154C72.918,64.625,74.809,64.625,75.148,64.625z"/>
		</g>
	</g>
	<g>
		<g>
			<g>
				<path d="M71.337,67.748c-0.12,0-0.216,0.098-0.216,0.215v1.409c0,0.118,0.096,0.215,0.216,0.215
					c0.118,0,0.213-0.097,0.213-0.215c0,0,0-0.886,0-1.194c0.375,0,4.099,0,4.472,0c0,0.316,0,1.318,0,1.318
					c0,0.117,0.096,0.215,0.216,0.215c0.117,0,0.213-0.098,0.213-0.215v-1.533c0-0.117-0.096-0.215-0.213-0.215H71.337z"/>
			</g>
			<g>
				<path d="M73.51,67.902v1.348c0,0.117,0.097,0.215,0.215,0.215s0.215-0.098,0.215-0.215v-1.348c0-0.119-0.097-0.215-0.215-0.215
					S73.51,67.783,73.51,67.902z"/>
			</g>
		</g>
		<path d="M71.581,69.711c0,0.252-0.207,0.457-0.46,0.457c-0.254,0-0.46-0.205-0.46-0.457c0-0.256,0.206-0.461,0.46-0.461
			C71.374,69.25,71.581,69.455,71.581,69.711z"/>
		<path d="M74.246,69.711c0,0.252-0.208,0.457-0.46,0.457c-0.253,0-0.458-0.205-0.458-0.457c0-0.256,0.205-0.461,0.458-0.461
			C74.038,69.25,74.246,69.455,74.246,69.711z"/>
		<path d="M76.879,69.711c0,0.252-0.205,0.457-0.459,0.457c-0.252,0-0.459-0.205-0.459-0.457c0-0.256,0.207-0.461,0.459-0.461
			C76.674,69.25,76.879,69.455,76.879,69.711z"/>
	</g>
	<g>
		<g>
			<path d="M66.049,61.529c0.577,0.39,0.537,0.957-0.087,1.262l-1.074,0.524c-0.624,0.304-1.096-0.015-1.047-0.707l0.083-1.192
				c0.048-0.693,0.56-0.942,1.136-0.554L66.049,61.529z"/>
			<path d="M66.08,63.635c0.685-0.121,1.05,0.316,0.81,0.969l-0.41,1.121c-0.24,0.652-0.8,0.748-1.245,0.215l-0.765-0.915
				c-0.446-0.535-0.251-1.068,0.435-1.187L66.08,63.635z"/>
			<path d="M62.965,65.357c0.349-0.603,0.917-0.602,1.264,0.002l0.592,1.036c0.346,0.603,0.059,1.094-0.635,1.092l-1.194-0.003
				c-0.695-0.003-0.979-0.496-0.628-1.096L62.965,65.357z"/>
			<path d="M61.107,61.529c-0.577,0.39-0.537,0.957,0.087,1.262l1.073,0.524c0.626,0.304,1.097-0.015,1.048-0.707l-0.084-1.192
				c-0.049-0.693-0.559-0.942-1.134-0.554L61.107,61.529z"/>
			<path d="M61.076,63.635c-0.685-0.121-1.05,0.316-0.81,0.969l0.41,1.121c0.24,0.652,0.8,0.748,1.245,0.215l0.766-0.915
				c0.445-0.535,0.25-1.068-0.436-1.187L61.076,63.635z"/>
		</g>
		<circle cx="63.524" cy="64.011" r="0.304"/>
	</g>
	<g>
		<path d="M72.615,81.22c-0.188-1.231-1.65-1.231-2.673-0.71c0,0-2.465,0.794-3.174-0.627h-0.92c0,0-1.441,1.692-3.133,0.377
			c0,0-1.503-0.982-2.173-2.464h-0.334l0.021,1.044c0,0,2.133,1.002,3.405,4.113h1.376l-0.581,2.006h-1.318v0.668h6.204v-0.668
			h-1.234L67.5,82.953h1.313c0,0,1.191-2.527,2.695-2.13c0,0,1.004,0.501,0.23,1.483v0.669
			C71.739,82.976,72.804,82.453,72.615,81.22z M67.507,84.959h-2.502l0.581-2.006h1.34L67.507,84.959z"/>
		<path d="M60.209,77.703l-0.091,0.095l0.019,1.043l0.055,0.082c0.02,0.009,2.115,1.026,3.358,4.065l0.085,0.058
			c0,0,1.052,0,1.255,0c-0.059,0.2-0.495,1.704-0.529,1.821c-0.123,0-1.249,0-1.249,0l-0.092,0.092v0.668l0.092,0.094h6.204
			l0.093-0.094v-0.668l-0.093-0.092c0,0-1.042,0-1.166,0c-0.034-0.117-0.469-1.621-0.528-1.821c0.202,0,1.192,0,1.192,0l0.083-0.053
			c0.013-0.024,1.176-2.453,2.589-2.081c0,0.003,0.36,0.195,0.439,0.547c0.011,0.045,0.014,0.094,0.014,0.141
			c0,0.201-0.091,0.42-0.272,0.65l-0.02,0.726l0.132,0.082c0.012-0.007,1.124-0.567,0.93-1.851c-0.066-0.434-0.293-0.76-0.652-0.944
			c-0.555-0.284-1.4-0.22-2.156,0.165c-0.01,0.004-2.383,0.748-3.05-0.584l-0.081-0.052h-0.92c-0.126,0.099-1.475,1.642-3.077,0.394
			c-0.021-0.014-1.495-0.987-2.145-2.429l-0.084-0.054H60.209z M60.493,77.887c0.683,1.457,2.11,2.409,2.172,2.449
			c1.734,1.35,3.239-0.375,3.253-0.393c0,0,0.724,0.027,0.805,0.031c0.771,1.395,3.145,0.656,3.248,0.624
			c0.705-0.36,1.505-0.428,2.001-0.173c0.31,0.158,0.495,0.43,0.554,0.809c0.015,0.096,0.021,0.188,0.021,0.273
			c0,0.74-0.479,1.147-0.715,1.304c0-0.187,0-0.505,0-0.505c0.192-0.218,0.292-0.463,0.292-0.705c0-0.063-0.006-0.123-0.02-0.184
			c-0.1-0.445-0.536-0.668-0.555-0.677c-1.498-0.397-2.639,1.81-2.791,2.12c-0.104,0-1.258,0-1.258,0l-0.089,0.119l0.58,2.006
			l0.09,0.066c0,0,0.985,0,1.144,0c0,0.113,0,0.367,0,0.482c-0.177,0-5.844,0-6.021,0c0-0.115,0-0.369,0-0.482
			c0.161,0,1.227,0,1.227,0l0.088-0.066L65.1,82.98l-0.089-0.119c0,0-1.212,0-1.319,0c-1.193-2.865-3.11-3.943-3.37-4.078
			c-0.002-0.088-0.017-0.748-0.018-0.896C60.379,77.887,60.444,77.887,60.493,77.887z"/>
		<path d="M65.586,82.861l-0.088,0.066l-0.582,2.006l0.089,0.119h2.502l0.089-0.119l-0.581-2.006l-0.089-0.066H65.586z
			 M66.856,83.046c0.033,0.116,0.47,1.62,0.529,1.821c-0.211,0-2.05,0-2.259,0c0.059-0.201,0.494-1.705,0.527-1.821
			C65.772,83.046,66.738,83.046,66.856,83.046z"/>
	</g>
	<path d="M66.852,79.006c0,0.311-0.253,0.564-0.566,0.564c-0.309,0-0.563-0.254-0.563-0.564s0.254-0.563,0.563-0.563
		C66.599,78.442,66.852,78.695,66.852,79.006z"/>
	<g>
		<g>
			<path fill="#9A1D21" enable-background="new    " d="M69.525,81.533v-0.917c-0.733,0.155-2.229,0.323-2.757-0.733h-0.92
				c0,0-1.245,1.458-2.778,0.609v1.041H69.525z"/>
			<path d="M65.849,79.792c-0.118,0.089-1.286,1.421-2.733,0.62l-0.137,0.08v1.041l0.092,0.092h6.455l0.091-0.092v-0.917
				l-0.11-0.089c-0.781,0.166-2.167,0.295-2.656-0.684l-0.081-0.052H65.849z M65.918,79.943c0,0,0.724,0.027,0.805,0.031
				c0.546,0.988,1.88,0.906,2.71,0.744c0,0.145,0,0.593,0,0.723c-0.175,0-6.095,0-6.271,0c0-0.135,0-0.666,0-0.832
				C64.677,81.321,65.907,79.959,65.918,79.943z"/>
		</g>
	</g>
	<g>
		<path d="M60.159,72.611c0,0.008-0.049,0.904-0.611,1.727c-0.255,0.374-0.306,1.069-0.12,1.65c0.147,0.467,0.43,0.796,0.791,0.932
			l0.051,0.018l0.04-0.033c0.021-0.018,2.092-1.822,0.012-4.348l-0.15-0.185L60.159,72.611z M59.602,75.933
			c-0.067-0.216-0.101-0.45-0.101-0.676c0-0.322,0.067-0.622,0.199-0.815c0.414-0.605,0.554-1.219,0.607-1.557
			c0.535,0.726,0.766,1.385,0.766,1.938c0,1.083-0.685,1.758-0.835,1.894C59.953,76.59,59.726,76.321,59.602,75.933z"/>
	</g>
	<path fill="#06090A" d="M86.702,45.95l-1.148-2.142h-4.005v-2.336h3.255v-2.203h-1.838l0.1-0.081l-1.134-1.399h-3.958v-0.697h-5.16
		l-0.436,0.651l0.067,0.046h-0.377V36.71h-5.021l-2.317-2.027h-4.706v-2.799h1.844v-2.27h-2.585v0.087h-0.036v4.981H48.522v-2.799
		h1.877v-2.27h-2.585v0.087h-0.069v4.981h-4.312l-2.391,2.027h-4.696v1.078h-0.492l0.068-0.046l-0.436-0.651h-5.159v0.697H26.37
		l-1.134,1.399l0.1,0.081h-2.675v2.203h2.914v2.842H24.31l-2.452,1.637h21.97l-3.492,1.225l0.06,0.358l28.068,0.189l0.073-0.352
		l-3.315-1.42H86.702z M60.024,29.982h1.477v1.534h-1.477V29.982z M48.522,29.982h1.509v1.534h-1.509V29.982z M41.452,47.173
		c1.019-0.359,2.864-1.007,3.482-1.223h1.696l-1.354,1.249C43.201,47.185,41.746,47.174,41.452,47.173z M47.745,47.215
		c-0.68-0.004-1.328-0.008-1.931-0.012l1.358-1.252h0.572V47.215z M47.745,45.582h-2.703l-0.02-0.052l-0.148,0.052H23.072
		c0.526-0.351,1.285-0.856,1.349-0.9h1.091c0,0.064,0,0.316,0,0.316h22.233V45.582z M29.188,43.922v0.708h-3.245v-0.708H29.188z
		 M25.942,43.554v-2.082h3.245v2.082H25.942z M32.799,43.922v0.708h-3.243v-0.708H32.799z M29.556,43.554v-2.082h3.243v2.082H29.556
		z M36.537,43.922v0.708h-3.371v-0.708H36.537z M33.166,43.554v-2.082h3.371v2.082H33.166z M40.276,43.922v0.708h-3.371v-0.708
		H40.276z M36.905,43.554v-2.082h3.371v2.082H36.905z M43.95,43.922v0.708h-3.307v-0.708H43.95z M40.644,43.554v-2.082h3.307v2.082
		H40.644z M47.745,44.63h-3.428v-0.708h3.428V44.63z M47.745,43.554h-3.428v-2.082h3.428V43.554z M47.745,41.104H23.028v-0.55
		h24.717V41.104z M47.745,40.187H23.028v-0.552h24.717V40.187z M47.745,39.269H25.644c0.252-0.312,0.823-1.018,0.901-1.113h9.802
		v0.824h11.398V39.269z M47.745,38.612H36.714v-1.535h11.031V38.612z M47.745,36.457h-5.836c0.496-0.418,1.578-1.34,1.658-1.406
		h4.178V36.457z M48.522,47.222V45.95h2.82l-1.074,1.282C49.672,47.228,49.087,47.225,48.522,47.222z M50.746,47.236l1.076-1.286
		h4.949l1.116,1.334C55.55,47.269,53.063,47.251,50.746,47.236z M59.247,47.293c-0.289-0.002-0.583-0.005-0.879-0.007l-1.119-1.336
		h1.998V47.293z M59.247,45.582H48.522v-0.583h10.725V45.582z M51.428,43.922v0.708h-0.642v-0.708H51.428z M50.786,43.554v-2.082
		h0.642v2.082H50.786z M52.655,43.922v0.708h-0.86v-0.708H52.655z M51.795,43.554v-2.082h0.86v2.082H51.795z M55.355,43.922v0.708
		h-1.243v-0.708H55.355z M54.112,43.554v-2.082h1.243v2.082H54.112z M56.203,43.922v0.708h-0.481v-0.708H56.203z M55.722,43.554
		v-2.082h0.481v2.082H55.722z M59.055,43.922v0.708h-0.569v-0.708H59.055z M58.485,43.554v-2.082h0.569v2.082H58.485z
		 M59.247,41.104H48.522v-0.55h10.725V41.104z M59.247,40.187H48.522v-0.552h10.725V40.187z M59.247,39.269H48.522v-0.289h10.725
		V39.269z M59.247,38.612H48.522v-1.535h10.725V38.612z M59.247,36.457H48.522v-1.406h10.725V36.457z M60.024,35.051h4.567
		c0.083,0.07,1.131,0.987,1.609,1.406h-6.177V35.051z M60.024,37.078h11.677v1.535H60.024V37.078z M60.024,38.979h12.044v-0.824
		h9.688c0.077,0.095,0.649,0.801,0.9,1.113H60.024V38.979z M60.024,39.635h24.411v0.552H60.024V39.635z M60.024,40.554h24.411v0.55
		H60.024V40.554z M78.001,43.554v-2.082h3.182v2.082H78.001z M81.183,43.922v0.708h-3.182v-0.708H81.183z M73.971,43.554v-2.082
		h3.663v2.082H73.971z M77.634,43.922v0.708h-3.663v-0.708H77.634z M70.486,43.554v-2.082h3.117v2.082H70.486z M73.604,43.922v0.708
		h-3.117v-0.708H73.604z M66.62,43.554v-2.082h3.498v2.082H66.62z M70.118,43.922v0.708H66.62v-0.708H70.118z M63.071,43.554v-2.082
		h3.183v2.082H63.071z M66.254,43.922v0.708h-3.183v-0.708H66.254z M61.906,43.554v-2.082h0.798v2.082H61.906z M62.704,43.922v0.708
		h-0.798v-0.708H62.704z M60.024,44.998h21.832c0,0-0.091-0.588-0.126-0.823h3.604c0.077,0.145,0.559,1.042,0.754,1.406H60.024
		V44.998z M60.024,47.299V45.95h1.393l1.484,1.368C62.019,47.313,61.049,47.306,60.024,47.299z M67.555,47.35
		c-0.401-0.003-2.03-0.014-4.283-0.029l0.081-0.087l-1.392-1.283h2.461L64.4,45.998C64.4,45.998,66.508,46.902,67.555,47.35z"/>
	<g>
		<path fill="#184A97" d="M26.481,85.296c0.474-0.6,0.978-0.93,1.509-0.989c0.531-0.061,1.097,0.148,1.694,0.625
			c0.604,0.482,0.938,0.984,0.996,1.508c0.06,0.523-0.152,1.09-0.635,1.698l-1.776,2.229c-0.199,0.249-0.288,0.445-0.269,0.587
			c0.021,0.141,0.159,0.318,0.418,0.533l-0.107,0.135l-1.015-0.81L26.278,90l0.107-0.135c0.285,0.219,0.501,0.325,0.648,0.316
			c0.147-0.008,0.319-0.137,0.519-0.387l1.84-2.307c0.387-0.486,0.573-0.918,0.557-1.297s-0.236-0.736-0.657-1.072
			c-0.44-0.351-0.863-0.498-1.268-0.439c-0.406,0.057-0.795,0.319-1.168,0.787l-1.62,2.031c-0.288,0.362-0.435,0.634-0.438,0.814
			c-0.003,0.181,0.134,0.387,0.412,0.615l-0.108,0.135l-0.826-0.66l-0.827-0.658l0.107-0.135c0.276,0.213,0.502,0.297,0.676,0.251
			c0.174-0.045,0.404-0.249,0.692-0.611L26.481,85.296z"/>
		<path fill="#184A97" d="M25.131,82.81c0.346-0.31,0.535-0.552,0.569-0.729s-0.067-0.402-0.303-0.675l0.126-0.112l0.711,0.793
			l0.711,0.795l-0.126,0.112c-0.244-0.265-0.457-0.39-0.637-0.375c-0.181,0.015-0.443,0.176-0.789,0.485l-3.008,2.694
			c-0.018,0.187-0.021,0.331-0.005,0.436c0.024,0.177,0.111,0.351,0.258,0.519l-0.126,0.113l-0.524-0.586l-0.524-0.586l0.912-5.416
			l-2.227,1.996c-0.343,0.307-0.532,0.549-0.567,0.728c-0.034,0.179,0.066,0.403,0.302,0.676l-0.126,0.112l-0.711-0.794
			l-0.711-0.794l0.126-0.111c0.244,0.264,0.456,0.388,0.636,0.373c0.182-0.014,0.443-0.175,0.789-0.484l3.541-3.17l0.046,0.051
			l0.046,0.053l-1.06,6.29L25.131,82.81z"/>
		<path fill="#184A97" d="M21.4,77.764l-3.32,2.311c-0.262,0.182-0.401,0.346-0.42,0.492c-0.017,0.146,0.075,0.368,0.275,0.667
			l-0.145,0.101l-0.757-1.089l-0.761-1.093l0.144-0.1c0.211,0.292,0.388,0.455,0.531,0.488c0.143,0.035,0.345-0.039,0.606-0.221
			l3.32-2.312c0.261-0.183,0.401-0.346,0.419-0.492c0.018-0.146-0.073-0.368-0.274-0.667l0.144-0.1l0.758,1.088l0.761,1.092
			l-0.145,0.101c-0.21-0.292-0.388-0.455-0.533-0.489C21.863,77.508,21.661,77.58,21.4,77.764z"/>
		<path fill="#184A97" d="M16.063,77.076c-0.215,0.283-0.339,0.497-0.372,0.645c-0.033,0.146,0.001,0.318,0.102,0.517l-0.152,0.081
			l-0.555-1.053l-0.559-1.057l0.152-0.081c0.173,0.315,0.318,0.479,0.437,0.493c0.117,0.012,0.284-0.119,0.499-0.396l2.553-3.172
			l0.002,0.003l-3.646,0.433c-0.479,0.054-0.765,0.14-0.858,0.257s-0.057,0.341,0.11,0.67l-0.152,0.08l-0.42-0.796l-0.423-0.8
			l0.152-0.081c0.095,0.173,0.208,0.28,0.343,0.324c0.133,0.043,0.373,0.048,0.72,0.015l5.452-0.596l0.033,0.063l0.032,0.063
			L16.063,77.076z"/>
		<path fill="#184A97" d="M17.938,69.794l-0.161,0.056c-0.113-0.309-0.232-0.495-0.357-0.558c-0.126-0.062-0.339-0.041-0.641,0.063
			l-3.832,1.322c-0.302,0.104-0.483,0.219-0.544,0.345c-0.06,0.127-0.039,0.347,0.063,0.659l-0.161,0.055l-0.558-1.617l-1.001-2.902
			l0.613-0.227l0.613-0.229l0.07,0.203c-0.36,0.178-0.57,0.371-0.628,0.58c-0.059,0.209,0,0.566,0.175,1.074l0.374,1.085
			c0.042,0.122,0.091,0.196,0.144,0.222c0.055,0.027,0.143,0.02,0.265-0.022l1.881-0.649l-0.424-1.228
			c-0.13-0.378-0.268-0.612-0.415-0.705c-0.146-0.093-0.394-0.101-0.743-0.028l-0.066-0.192l0.983-0.34l0.984-0.339l0.067,0.193
			c-0.321,0.156-0.511,0.316-0.569,0.479c-0.058,0.163-0.021,0.434,0.108,0.811l0.424,1.228l2.064-0.712
			c0.155-0.054,0.25-0.116,0.285-0.187c0.034-0.07,0.024-0.184-0.029-0.339l-0.276-0.802c-0.206-0.598-0.422-0.994-0.647-1.19
			s-0.603-0.314-1.131-0.355l-0.081-0.234l0.781-0.062l0.783-0.057l1.028,2.98L17.938,69.794z"/>
		<path fill="#184A97" d="M15.05,63.954L11.065,64.7c-0.313,0.06-0.51,0.145-0.589,0.258c-0.078,0.112-0.092,0.324-0.04,0.636
			l-0.168,0.031l-0.225-1.2l-0.241-1.286c-0.129-0.686-0.093-1.248,0.106-1.688c0.198-0.439,0.537-0.704,1.015-0.793
			c0.495-0.094,0.924,0.046,1.284,0.416c0.212,0.22,0.387,0.503,0.526,0.85l1.592-1.823c0.271-0.31,0.441-0.541,0.513-0.694
			c0.071-0.154,0.091-0.324,0.059-0.512l0.169-0.031l0.086,0.459l0.182,0.971l-2.352,2.574c0.034,0.182,0.073,0.355,0.115,0.52
			l1.782-0.334c0.313-0.059,0.51-0.151,0.586-0.277c0.076-0.125,0.085-0.365,0.024-0.72l0.168-0.031l0.233,1.249l0.235,1.254
			l-0.168,0.031c-0.064-0.309-0.153-0.501-0.27-0.578C15.576,63.904,15.363,63.895,15.05,63.954z M12.794,63.443
			c-0.018-0.063-0.029-0.124-0.035-0.186c-0.119-0.637-0.315-1.09-0.588-1.358s-0.631-0.362-1.074-0.278
			c-0.392,0.072-0.667,0.258-0.826,0.557c-0.158,0.298-0.192,0.691-0.101,1.181c0.016,0.086,0.038,0.17,0.064,0.251
			c0.038,0.119,0.085,0.193,0.144,0.225c0.058,0.031,0.152,0.033,0.285,0.009L12.794,63.443z"/>
		<path fill="#184A97" d="M10.738,54.958c-0.445,0.12-0.806,0.345-1.081,0.673c-0.275,0.329-0.403,0.689-0.387,1.082
			c0.012,0.266,0.101,0.48,0.267,0.643s0.371,0.238,0.617,0.228c0.239-0.011,0.445-0.099,0.616-0.266
			c0.171-0.166,0.37-0.47,0.596-0.911c0.389-0.757,0.722-1.271,0.999-1.546c0.275-0.273,0.608-0.419,1.002-0.436
			c0.479-0.021,0.881,0.139,1.204,0.481c0.323,0.343,0.497,0.79,0.522,1.345c0.016,0.357-0.055,0.759-0.211,1.203
			c-0.046,0.135-0.048,0.246-0.004,0.335c0.044,0.09,0.122,0.136,0.236,0.14l0.054,0.002l0.009,0.191l-1.898,0.359l-0.009-0.205
			c0.51-0.209,0.892-0.479,1.148-0.809c0.256-0.33,0.374-0.705,0.355-1.124c-0.015-0.312-0.118-0.562-0.315-0.753
			c-0.196-0.191-0.441-0.28-0.737-0.268c-0.285,0.014-0.531,0.121-0.736,0.32c-0.205,0.197-0.442,0.559-0.711,1.088
			c-0.313,0.611-0.592,1.029-0.837,1.251s-0.556,0.343-0.935,0.358c-0.444,0.021-0.815-0.115-1.112-0.405
			c-0.298-0.29-0.457-0.673-0.479-1.147c-0.013-0.287,0.054-0.629,0.2-1.025c0.056-0.148,0.063-0.271,0.026-0.363
			c-0.039-0.095-0.12-0.154-0.244-0.182l-0.054-0.01L8.833,55.02l1.895-0.296L10.738,54.958z"/>
		<path fill="#184A97" d="M14.017,52.694l-4.042-0.231c-0.319-0.019-0.53,0.024-0.635,0.128c-0.104,0.104-0.169,0.337-0.196,0.696
			l-0.173-0.01l0.076-1.325l0.076-1.33l0.173,0.01c-0.015,0.36,0.023,0.599,0.116,0.714c0.091,0.115,0.296,0.182,0.615,0.201
			l4.041,0.231c0.319,0.018,0.53-0.025,0.635-0.129c0.104-0.104,0.169-0.336,0.195-0.696l0.174,0.01l-0.076,1.326l-0.076,1.33
			l-0.174-0.01c0.015-0.36-0.023-0.599-0.116-0.716C14.539,52.779,14.335,52.712,14.017,52.694z"/>
		<path fill="#184A97" d="M14.206,49.678l-3.985-0.723c-0.314-0.057-0.528-0.045-0.643,0.035c-0.115,0.08-0.204,0.28-0.268,0.601
			l-0.169-0.03l0.223-1.228l0.188-1.038c0.217-1.189,0.632-2.051,1.246-2.583c0.615-0.533,1.398-0.713,2.353-0.54
			c0.914,0.166,1.574,0.605,1.98,1.319c0.406,0.713,0.51,1.616,0.313,2.708l-0.218,1.197l-0.223,1.228l-0.168-0.031
			c0.053-0.322,0.039-0.541-0.042-0.657C14.716,49.82,14.52,49.734,14.206,49.678z M14.496,48.799
			c0.18,0.033,0.307,0.028,0.38-0.014c0.073-0.042,0.13-0.141,0.171-0.297l0.073-0.286c0.149-0.826,0.038-1.504-0.337-2.037
			c-0.374-0.533-0.978-0.875-1.809-1.025c-0.833-0.151-1.522-0.029-2.067,0.367c-0.544,0.396-0.896,1.033-1.055,1.91l-0.03,0.219
			c-0.02,0.124-0.009,0.211,0.035,0.26c0.044,0.05,0.141,0.088,0.291,0.115L14.496,48.799z"/>
		<path fill="#184A97" d="M15.572,43.131l-4.06-3.792l0.03-0.084l0.03-0.083l5.559-0.346c0.35-0.029,0.589-0.076,0.718-0.14
			c0.129-0.063,0.229-0.186,0.297-0.366l0.159,0.058l-0.392,1.081l-0.392,1.083l-0.159-0.058c0.115-0.338,0.139-0.554,0.069-0.65
			c-0.069-0.095-0.277-0.132-0.624-0.111l-1.068,0.053l-0.813,2.243l0.544,0.483c0.357,0.326,0.61,0.487,0.758,0.482
			c0.147-0.004,0.286-0.177,0.417-0.52l0.159,0.058l-0.308,0.846l-0.308,0.851l-0.159-0.058c0.062-0.18,0.063-0.335,0.005-0.465
			S15.822,43.378,15.572,43.131z M14.634,41.738l0.702-1.938l-2.661,0.135l-0.001,0.001L14.634,41.738z"/>
		<path fill="#184A97" d="M17.996,36.935l-3.525-1.994c-0.277-0.157-0.484-0.216-0.618-0.178c-0.135,0.038-0.285,0.199-0.452,0.482
			l-0.15-0.085l0.615-1.087l0.519-0.918c0.597-1.053,1.272-1.73,2.028-2.032c0.756-0.301,1.557-0.213,2.4,0.265
			c0.809,0.458,1.287,1.09,1.436,1.898s-0.051,1.695-0.598,2.662l-0.599,1.06l-0.614,1.087l-0.15-0.085
			c0.156-0.289,0.216-0.501,0.178-0.637C18.431,37.238,18.273,37.092,17.996,36.935z M18.553,36.196
			c0.157,0.089,0.277,0.126,0.36,0.111s0.169-0.09,0.259-0.225l0.164-0.246c0.412-0.729,0.529-1.405,0.354-2.03
			c-0.177-0.625-0.632-1.145-1.364-1.559c-0.733-0.415-1.422-0.525-2.064-0.33c-0.643,0.195-1.183,0.68-1.62,1.455l-0.102,0.195
			c-0.059,0.111-0.076,0.197-0.052,0.258s0.103,0.128,0.235,0.204L18.553,36.196z"/>
		<path fill="#184A97" d="M22.804,29.402l-2.998-2.716c-0.236-0.214-0.424-0.317-0.563-0.309c-0.141,0.007-0.321,0.131-0.545,0.369
			l-0.129-0.116l0.837-0.924l0.708-0.781c0.812-0.896,1.619-1.408,2.423-1.536c0.802-0.128,1.563,0.133,2.281,0.784
			c0.687,0.623,1.016,1.345,0.983,2.165c-0.033,0.82-0.422,1.641-1.167,2.463l-0.816,0.902l-0.837,0.924l-0.129-0.117
			c0.215-0.246,0.319-0.44,0.313-0.58C23.16,29.792,23.039,29.616,22.804,29.402z M23.505,28.804
			c0.135,0.122,0.244,0.185,0.328,0.187c0.084,0.003,0.185-0.051,0.302-0.163l0.214-0.204c0.563-0.621,0.826-1.256,0.792-1.904
			s-0.362-1.253-0.984-1.817c-0.625-0.566-1.271-0.823-1.94-0.772c-0.669,0.05-1.303,0.405-1.9,1.065l-0.142,0.168
			c-0.082,0.096-0.118,0.176-0.107,0.24c0.01,0.065,0.071,0.148,0.185,0.25L23.505,28.804z"/>
		<path fill="#184A97" d="M27.366,25.871l-0.108-0.133c0.252-0.21,0.386-0.385,0.401-0.524c0.016-0.139-0.076-0.332-0.277-0.58
			l-2.545-3.148c-0.2-0.248-0.37-0.379-0.51-0.393c-0.139-0.013-0.338,0.081-0.597,0.282l-0.107-0.133l1.33-1.075l2.387-1.929
			l0.422,0.497l0.423,0.497l-0.164,0.134c-0.289-0.277-0.541-0.407-0.757-0.39c-0.216,0.018-0.533,0.195-0.951,0.533L25.42,20.23
			c-0.101,0.081-0.153,0.151-0.16,0.211c-0.007,0.06,0.031,0.14,0.111,0.24l1.25,1.546l1.007-0.814
			c0.311-0.251,0.484-0.461,0.521-0.63c0.037-0.169-0.039-0.406-0.228-0.708l0.159-0.128l0.653,0.808l0.653,0.809l-0.158,0.128
			c-0.258-0.248-0.473-0.372-0.646-0.371s-0.415,0.126-0.725,0.377l-1.007,0.814l1.37,1.696c0.104,0.127,0.193,0.195,0.271,0.203
			s0.182-0.039,0.309-0.142l0.658-0.533c0.492-0.397,0.793-0.736,0.9-1.015c0.108-0.279,0.092-0.673-0.049-1.183l0.19-0.154
			l0.323,0.714l0.319,0.717l-2.45,1.98L27.366,25.871z"/>
		<path fill="#184A97" d="M33.836,19.978l-1.891-3.58c-0.149-0.282-0.29-0.445-0.421-0.488c-0.132-0.043-0.339,0.008-0.619,0.153
			l-0.08-0.152l1.079-0.571l1.004-0.529c0.654-0.347,1.234-0.494,1.739-0.442c0.504,0.051,0.871,0.295,1.101,0.729
			c0.27,0.51,0.296,0.994,0.078,1.452c-0.218,0.457-0.669,0.866-1.353,1.228c-0.215,0.114-0.417,0.212-0.605,0.295l0.779,1.476
			c0.149,0.282,0.295,0.441,0.438,0.477c0.143,0.035,0.375-0.028,0.695-0.191l0.081,0.152l-1.127,0.595l-1.13,0.597l-0.08-0.152
			c0.278-0.15,0.437-0.292,0.476-0.425C34.04,20.468,33.984,20.26,33.836,19.978z M33.701,17.757
			c0.123-0.044,0.242-0.098,0.358-0.159c0.503-0.266,0.824-0.563,0.962-0.895c0.139-0.331,0.098-0.705-0.122-1.121
			c-0.195-0.37-0.472-0.584-0.83-0.645s-0.778,0.036-1.261,0.291l-0.061,0.037c-0.109,0.068-0.173,0.133-0.188,0.194
			s0.008,0.15,0.068,0.266L33.701,17.757z"/>
		<path fill="#184A97" d="M42.339,15c0.258,0.72,0.271,1.321,0.04,1.803s-0.706,0.85-1.427,1.104
			c-0.729,0.257-1.331,0.272-1.806,0.044c-0.475-0.227-0.842-0.707-1.103-1.438l-0.947-2.685c-0.105-0.301-0.225-0.481-0.355-0.539
			c-0.131-0.058-0.355-0.033-0.676,0.073l-0.057-0.16l1.229-0.433l1.231-0.435l0.057,0.16c-0.339,0.125-0.543,0.252-0.615,0.381
			c-0.07,0.129-0.053,0.344,0.053,0.646l0.98,2.78c0.206,0.585,0.475,0.972,0.804,1.158c0.33,0.187,0.748,0.19,1.256,0.012
			c0.529-0.187,0.877-0.467,1.043-0.841c0.167-0.374,0.15-0.842-0.049-1.406l-0.863-2.449c-0.153-0.436-0.307-0.704-0.458-0.803
			s-0.397-0.091-0.74,0.023l-0.057-0.16l0.995-0.351l0.995-0.351l0.057,0.16c-0.326,0.121-0.517,0.267-0.568,0.438
			c-0.053,0.171-0.003,0.474,0.15,0.911L42.339,15z"/>
		<path fill="#184A97" d="M44.13,16.717l-0.032-0.168c0.32-0.066,0.521-0.157,0.601-0.271c0.079-0.115,0.09-0.329,0.03-0.643
			l-0.748-3.979c-0.06-0.314-0.146-0.51-0.263-0.588c-0.116-0.078-0.335-0.09-0.658-0.035l-0.031-0.168l1.678-0.315l3.009-0.566
			l0.132,0.641l0.143,0.639l-0.211,0.041c-0.123-0.382-0.283-0.617-0.482-0.706c-0.197-0.087-0.56-0.082-1.087,0.017l-1.126,0.212
			c-0.127,0.024-0.207,0.06-0.241,0.11c-0.034,0.049-0.039,0.138-0.015,0.264l0.367,1.953l1.275-0.24
			c0.393-0.074,0.646-0.176,0.758-0.308s0.158-0.375,0.136-0.731l0.201-0.038l0.191,1.022l0.193,1.022l-0.201,0.038
			c-0.108-0.339-0.239-0.55-0.392-0.631c-0.153-0.082-0.426-0.085-0.818-0.012l-1.275,0.24l0.403,2.144
			c0.03,0.161,0.078,0.264,0.143,0.308s0.179,0.052,0.34,0.021l0.833-0.157c0.62-0.117,1.044-0.273,1.271-0.467
			c0.227-0.195,0.399-0.55,0.516-1.066l0.244-0.045l-0.053,0.782l-0.057,0.783l-3.095,0.583L44.13,16.717z"/>
		<path fill="#184A97" d="M50.327,14.712l-0.157-4.049c-0.013-0.319-0.068-0.525-0.17-0.62c-0.1-0.094-0.308-0.138-0.624-0.132
			l-0.007-0.17l1.221-0.048l1.31-0.051c0.696-0.027,1.248,0.09,1.654,0.351c0.406,0.261,0.618,0.634,0.637,1.12
			c0.021,0.503-0.18,0.906-0.599,1.21c-0.248,0.177-0.554,0.309-0.917,0.396l1.571,1.84c0.267,0.312,0.472,0.515,0.613,0.607
			c0.141,0.093,0.307,0.137,0.497,0.132l0.007,0.17l-0.467,0.018l-0.986,0.039l-2.204-2.698c-0.185,0.007-0.36,0.02-0.53,0.038
			l0.071,1.81c0.012,0.319,0.075,0.526,0.188,0.62c0.114,0.094,0.352,0.137,0.712,0.128l0.007,0.17l-1.274,0.05l-1.278,0.05
			l-0.007-0.17c0.315-0.018,0.52-0.079,0.612-0.182C50.3,15.241,50.34,15.031,50.327,14.712z M51.164,12.555
			c0.064-0.008,0.127-0.011,0.189-0.007c0.647-0.025,1.125-0.153,1.432-0.383c0.306-0.23,0.45-0.57,0.433-1.021
			c-0.016-0.398-0.159-0.697-0.431-0.897c-0.272-0.2-0.657-0.291-1.155-0.271c-0.088,0.003-0.175,0.013-0.259,0.027
			c-0.123,0.02-0.203,0.056-0.242,0.108c-0.039,0.053-0.057,0.146-0.051,0.281L51.164,12.555z"/>
		<path fill="#184A97" d="M57.837,14.783l0.502-4.601l-0.484-0.053c-0.507-0.056-0.856-0.02-1.052,0.106
			c-0.194,0.126-0.36,0.424-0.496,0.893l-0.212-0.023l0.105-0.762l0.109-0.761l2.523,0.275l2.529,0.276L61.301,10.9l-0.057,0.768
			l-0.211-0.023c-0.033-0.488-0.131-0.814-0.294-0.979c-0.162-0.165-0.497-0.275-1.003-0.331l-0.485-0.053l-0.502,4.601
			c-0.034,0.317-0.004,0.53,0.094,0.64c0.097,0.109,0.319,0.186,0.668,0.23l-0.02,0.171l-1.295-0.141l-1.299-0.142l0.019-0.172
			c0.347,0.032,0.578,0.004,0.696-0.083C57.729,15.302,57.803,15.101,57.837,14.783z"/>
		<path fill="#184A97" d="M62.225,15.619c-0.381-0.703-0.453-1.491-0.219-2.365c0.235-0.875,0.695-1.521,1.379-1.939
			c0.683-0.419,1.439-0.516,2.269-0.293c0.832,0.224,1.438,0.688,1.819,1.394c0.38,0.705,0.452,1.495,0.217,2.37
			c-0.234,0.874-0.694,1.519-1.377,1.936s-1.44,0.512-2.271,0.289C63.212,16.785,62.606,16.322,62.225,15.619z M65.677,16.349
			c0.457-0.387,0.798-0.998,1.021-1.832c0.227-0.837,0.238-1.539,0.039-2.103c-0.201-0.566-0.591-0.926-1.168-1.082
			c-0.575-0.154-1.091-0.038-1.548,0.35c-0.457,0.389-0.798,1.001-1.024,1.838c-0.224,0.833-0.236,1.533-0.035,2.097
			c0.199,0.564,0.588,0.924,1.163,1.079C64.702,16.852,65.22,16.736,65.677,16.349z"/>
		<path fill="#184A97" d="M70.58,18.17l1.877-3.585c0.148-0.282,0.203-0.489,0.163-0.621c-0.04-0.131-0.199-0.273-0.477-0.425
			l0.08-0.153l1.082,0.566l1.159,0.607c0.617,0.323,1.036,0.699,1.259,1.128c0.221,0.428,0.22,0.858-0.007,1.289
			c-0.233,0.446-0.607,0.696-1.122,0.751c-0.304,0.03-0.635-0.008-0.992-0.113l0.448,2.374c0.076,0.403,0.152,0.68,0.229,0.831
			c0.077,0.151,0.199,0.271,0.366,0.363l-0.08,0.153l-0.414-0.217l-0.874-0.458l-0.565-3.433c-0.164-0.086-0.322-0.162-0.478-0.23
			l-0.839,1.601c-0.148,0.282-0.195,0.493-0.144,0.631c0.053,0.138,0.237,0.293,0.555,0.466l-0.08,0.153l-1.131-0.592l-1.135-0.594
			l0.081-0.154c0.281,0.141,0.489,0.191,0.621,0.147C70.293,18.614,70.432,18.453,70.58,18.17z M72.38,16.718
			c0.06,0.025,0.115,0.053,0.167,0.087c0.573,0.3,1.049,0.426,1.428,0.378c0.38-0.046,0.674-0.27,0.883-0.669
			c0.184-0.352,0.209-0.682,0.073-0.991s-0.423-0.578-0.864-0.809c-0.077-0.041-0.156-0.076-0.237-0.104
			c-0.115-0.044-0.203-0.053-0.263-0.026s-0.121,0.099-0.184,0.218L72.38,16.718z"/>
		<path fill="#184A97" d="M75.961,21.229l2.235-3.381c0.175-0.267,0.245-0.471,0.208-0.614c-0.038-0.142-0.204-0.314-0.501-0.518
			l0.095-0.143l1.106,0.731l1.11,0.733l-0.095,0.144c-0.304-0.193-0.527-0.279-0.673-0.258c-0.146,0.022-0.307,0.166-0.482,0.433
			l-2.234,3.381c-0.177,0.267-0.246,0.471-0.208,0.614c0.036,0.142,0.203,0.314,0.5,0.518l-0.095,0.143l-1.106-0.731l-1.11-0.733
			l0.095-0.144c0.304,0.193,0.528,0.278,0.676,0.256C75.625,21.64,75.784,21.496,75.961,21.229z"/>
		<path fill="#184A97" d="M82.091,26.005c-0.503,0.072-0.966,0.048-1.391-0.071c-0.426-0.12-0.819-0.336-1.185-0.65
			c-0.699-0.602-1.075-1.293-1.124-2.074c-0.05-0.781,0.234-1.53,0.851-2.248c0.591-0.687,1.293-1.063,2.106-1.13
			c0.814-0.067,1.56,0.19,2.236,0.772c0.32,0.275,0.616,0.648,0.89,1.119c0.073,0.125,0.168,0.208,0.283,0.247
			s0.228,0.028,0.335-0.034l0.023-0.015l0.125,0.107l-1.251,1.599l-0.155-0.133c0.248-0.48,0.334-0.948,0.262-1.399
			c-0.074-0.453-0.3-0.841-0.678-1.167c-0.494-0.425-1.041-0.575-1.641-0.451s-1.176,0.508-1.73,1.152
			c-0.552,0.643-0.838,1.275-0.856,1.898c-0.021,0.623,0.229,1.156,0.744,1.6c0.294,0.252,0.611,0.431,0.956,0.535
			c0.343,0.104,0.737,0.143,1.182,0.116L82.091,26.005z"/>
		<path fill="#184A97" d="M83.004,27.36c0.089-0.795,0.48-1.484,1.174-2.066c0.692-0.583,1.439-0.852,2.24-0.804
			c0.8,0.047,1.477,0.399,2.029,1.056c0.555,0.66,0.786,1.388,0.695,2.184c-0.091,0.797-0.483,1.486-1.176,2.07
			c-0.693,0.583-1.438,0.85-2.237,0.801c-0.799-0.049-1.475-0.402-2.029-1.062C83.146,28.881,82.915,28.155,83.004,27.36z
			 M85.419,29.931c0.596-0.058,1.224-0.364,1.885-0.919c0.664-0.558,1.075-1.126,1.233-1.704c0.159-0.578,0.046-1.096-0.338-1.553
			c-0.383-0.456-0.872-0.654-1.469-0.596s-1.227,0.366-1.891,0.924c-0.66,0.555-1.07,1.122-1.229,1.699
			c-0.159,0.577-0.046,1.094,0.336,1.549C84.332,29.788,84.822,29.988,85.419,29.931z"/>
		<path fill="#184A97" d="M87.155,33.952l0.152-0.081c0.159,0.287,0.305,0.451,0.438,0.493c0.134,0.042,0.341-0.012,0.624-0.16
			l3.579-1.894c0.281-0.149,0.443-0.291,0.483-0.425c0.04-0.134-0.014-0.347-0.162-0.639l0.152-0.081l0.8,1.511l1.434,2.71
			l-0.574,0.317l-0.57,0.322l-0.102-0.191c0.329-0.23,0.507-0.453,0.531-0.668c0.025-0.215-0.087-0.56-0.338-1.033l-0.536-1.014
			c-0.061-0.114-0.119-0.18-0.177-0.198c-0.058-0.018-0.144,0.003-0.257,0.064l-1.753,0.927l0.607,1.148
			c0.187,0.352,0.358,0.562,0.518,0.63c0.158,0.068,0.404,0.039,0.738-0.088l0.097,0.183l-0.92,0.487l-0.922,0.487l-0.097-0.184
			c0.292-0.204,0.456-0.391,0.488-0.561c0.033-0.169-0.044-0.43-0.229-0.782l-0.608-1.148l-1.928,1.021
			c-0.146,0.077-0.229,0.153-0.252,0.228c-0.023,0.075,0.003,0.185,0.08,0.331l0.397,0.751c0.295,0.559,0.57,0.918,0.823,1.077
			s0.645,0.218,1.173,0.177l0.115,0.218l-0.766,0.181l-0.768,0.176l-1.473-2.785L87.155,33.952z"/>
		<path fill="#184A97" d="M91.398,39.584c-0.438,0.151-0.707,0.302-0.808,0.453c-0.1,0.151-0.093,0.397,0.02,0.74l-0.161,0.055
			l-0.349-1.008l-0.35-1.009l0.161-0.055c0.124,0.338,0.271,0.536,0.442,0.593c0.172,0.057,0.477,0.01,0.914-0.142l3.815-1.319
			c0.09-0.164,0.147-0.297,0.174-0.399c0.046-0.174,0.033-0.367-0.037-0.578l0.161-0.056l0.257,0.743l0.257,0.743l-2.938,4.64
			l2.824-0.977c0.436-0.15,0.703-0.301,0.805-0.452s0.096-0.398-0.017-0.74l0.16-0.056l0.35,1.008l0.349,1.009l-0.161,0.056
			c-0.123-0.339-0.271-0.537-0.441-0.594c-0.172-0.057-0.477-0.009-0.915,0.142l-4.491,1.554l-0.023-0.066l-0.022-0.066l3.413-5.39
			L91.398,39.584z"/>
		<path fill="#184A97" d="M93.384,47.986l4.025-0.469c0.317-0.037,0.519-0.116,0.604-0.236c0.085-0.121,0.109-0.36,0.073-0.719
			l0.17-0.02l0.153,1.319l0.138,1.183c0.091,0.777,0.037,1.376-0.163,1.797c-0.198,0.421-0.54,0.66-1.026,0.717
			c-0.466,0.055-0.836-0.065-1.109-0.358c-0.161-0.172-0.288-0.41-0.379-0.712c-0.027,0.366-0.1,0.674-0.215,0.923
			c-0.218,0.46-0.592,0.721-1.122,0.783c-0.529,0.062-0.951-0.095-1.267-0.47c-0.314-0.375-0.52-0.964-0.612-1.767l-0.164-1.407
			l-0.154-1.319l0.17-0.02c0.048,0.357,0.127,0.585,0.239,0.685C92.854,47.994,93.066,48.023,93.384,47.986z M93.337,48.915
			c-0.184,0.021-0.304,0.063-0.359,0.124c-0.057,0.061-0.078,0.174-0.064,0.338l0.014,0.158c0.07,0.603,0.229,1.039,0.475,1.308
			c0.247,0.27,0.59,0.378,1.029,0.328s0.747-0.248,0.923-0.59c0.175-0.342,0.225-0.839,0.148-1.492l-0.049-0.419L93.337,48.915z
			 M97.749,48.401l-1.946,0.226l0.095,0.809c0.053,0.455,0.184,0.782,0.393,0.982c0.209,0.2,0.503,0.278,0.881,0.234
			c0.41-0.048,0.699-0.218,0.867-0.511c0.168-0.293,0.22-0.718,0.154-1.274l-0.031-0.195c-0.021-0.125-0.059-0.206-0.113-0.244
			C97.994,48.393,97.895,48.384,97.749,48.401z"/>
		<path fill="#184A97" d="M93.941,54.034l5.011,2.404l-0.003,0.087l-0.004,0.088l-5.203,1.994c-0.326,0.133-0.54,0.248-0.645,0.348
			s-0.162,0.246-0.173,0.439l-0.17-0.008l0.05-1.15l0.05-1.15l0.17,0.008c-0.009,0.357,0.034,0.571,0.129,0.642
			s0.306,0.044,0.63-0.081l1.006-0.371l0.104-2.378l-0.663-0.299c-0.44-0.204-0.73-0.282-0.87-0.234
			c-0.141,0.048-0.221,0.255-0.243,0.62l-0.17-0.007l0.039-0.9l0.04-0.905l0.17,0.008c-0.005,0.19,0.039,0.338,0.135,0.446
			C93.425,53.74,93.629,53.874,93.941,54.034z M95.254,55.083l-0.09,2.058l2.501-0.926l0,0L95.254,55.083z"/>
		<path fill="#184A97" d="M94.725,62.873l2.665-1.08c0.359-0.153,0.603-0.283,0.727-0.389c0.125-0.104,0.21-0.254,0.254-0.448
			l0.165,0.035l-0.26,1.211l-0.26,1.216l-0.165-0.036c0.068-0.345,0.059-0.549-0.028-0.612c-0.088-0.064-0.309-0.027-0.665,0.109
			L95.059,63.7l-0.008-0.002l1.328,1.323c0.378,0.381,0.637,0.574,0.776,0.58s0.251-0.17,0.333-0.527l0.165,0.035l-0.201,0.942
			l-0.201,0.942l-0.165-0.036c0.044-0.224,0.033-0.413-0.037-0.567c-0.068-0.154-0.236-0.37-0.504-0.649l-1.884-1.94l-1.77-0.379
			c-0.313-0.066-0.528-0.057-0.647,0.03s-0.219,0.306-0.301,0.657l-0.165-0.036l0.278-1.298l0.278-1.303l0.165,0.035
			c-0.069,0.354-0.067,0.594,0.006,0.722s0.266,0.226,0.578,0.292L94.725,62.873z"/>
		<path fill="#184A97" d="M91.914,67.156l3.941,3.92l-0.032,0.082l-0.033,0.081l-5.57,0.172c-0.351,0.019-0.591,0.058-0.723,0.116
			c-0.131,0.061-0.233,0.18-0.308,0.357l-0.156-0.062l0.426-1.07l0.426-1.07l0.156,0.062c-0.127,0.334-0.156,0.551-0.089,0.648
			s0.275,0.143,0.623,0.133l1.077-0.021l0.879-2.208L92,67.793c-0.35-0.338-0.599-0.506-0.747-0.508
			c-0.148,0-0.293,0.168-0.434,0.507l-0.156-0.063l0.333-0.838l0.336-0.843l0.156,0.063c-0.068,0.178-0.074,0.333-0.021,0.465
			C91.522,66.709,91.671,66.901,91.914,67.156z M92.813,68.584l-0.76,1.908l2.659-0.051L92.813,68.584z"/>
		<path fill="#184A97" d="M89.393,73.875c-0.391-0.248-0.676-0.363-0.856-0.348c-0.179,0.016-0.367,0.174-0.564,0.475l-0.146-0.092
			l0.57-0.902l0.571-0.901l0.146,0.093c-0.188,0.307-0.25,0.544-0.188,0.713c0.063,0.17,0.29,0.379,0.68,0.625l2.828,1.791
			c0.391,0.248,0.676,0.363,0.855,0.348s0.368-0.174,0.565-0.474L94,75.294l-0.477,0.755l-0.48,0.756l-4.917-0.652l0.001-0.001
			l2.732,4.101l-0.477,0.752l-0.478,0.756l-0.146-0.092c0.17-0.274,0.239-0.479,0.209-0.617c-0.031-0.137-0.182-0.291-0.451-0.462
			l-3.421-2.167c-0.27-0.171-0.474-0.24-0.61-0.21c-0.138,0.03-0.294,0.182-0.469,0.452l-0.145-0.092l0.685-1.082l0.687-1.084
			l0.146,0.092c-0.187,0.307-0.269,0.532-0.244,0.678c0.024,0.145,0.171,0.303,0.44,0.474l3.533,2.237h0.001l-3.121-4.672
			l0.037-0.061l0.038-0.059l5.378,0.714l-0.002,0.002L89.393,73.875z"/>
		<path fill="#184A97" d="M84.45,80.088c0.8-0.01,1.531,0.295,2.193,0.91c0.664,0.617,1.021,1.324,1.073,2.125
			c0.051,0.799-0.216,1.514-0.8,2.143c-0.587,0.631-1.28,0.95-2.081,0.957c-0.802,0.008-1.534-0.297-2.197-0.913
			s-1.02-1.323-1.069-2.121s0.219-1.513,0.805-2.144C82.959,80.416,83.65,80.097,84.45,80.088z M82.194,82.799
			c0.13,0.586,0.511,1.171,1.143,1.758c0.636,0.591,1.25,0.93,1.843,1.016c0.593,0.087,1.093-0.089,1.5-0.527
			c0.405-0.436,0.543-0.946,0.413-1.531s-0.513-1.174-1.147-1.763c-0.632-0.587-1.244-0.925-1.837-1.011s-1.092,0.088-1.497,0.525
			C82.204,81.703,82.065,82.215,82.194,82.799z"/>
		<path fill="#184A97" d="M79.965,85.382c-0.282-0.367-0.511-0.574-0.686-0.621s-0.406,0.038-0.697,0.253l-0.104-0.138l0.848-0.65
			l0.848-0.65l0.104,0.137c-0.283,0.224-0.424,0.427-0.424,0.607c0.001,0.181,0.142,0.454,0.424,0.821l2.455,3.197
			c0.185,0.032,0.329,0.045,0.435,0.038c0.179-0.013,0.357-0.085,0.536-0.218l0.105,0.137l-0.624,0.479l-0.623,0.479l-5.33-1.316
			l1.819,2.367c0.28,0.365,0.508,0.572,0.684,0.619c0.176,0.049,0.408-0.035,0.697-0.251l0.105,0.138l-0.847,0.65l-0.848,0.65
			l-0.105-0.137c0.282-0.225,0.424-0.427,0.423-0.607c0.001-0.182-0.141-0.455-0.423-0.822l-2.894-3.768l0.055-0.042l0.056-0.043
			l6.192,1.532L79.965,85.382z"/>
	</g>
	<g>
		<path fill="#A3732A" d="M46.879,98.043l0.499-3.201c0.03-0.196-0.004-0.314-0.103-0.355c-0.1-0.041-0.302-0.02-0.609,0.066
			l0.018-0.107l0.717-0.223l0.723-0.224l0.027,0.025l-0.642,4.116c-0.04,0.258-0.021,0.434,0.055,0.526s0.26,0.165,0.549,0.215
			l-0.021,0.137l-1.018-0.159l-1.018-0.158l0.021-0.137c0.292,0.041,0.488,0.027,0.591-0.039
			C46.769,98.461,46.839,98.301,46.879,98.043z"/>
		<path fill="#A3732A" d="M49.923,99.377l-0.018-0.135c0.686-0.047,1.251-0.322,1.697-0.826c0.3-0.343,0.511-0.744,0.631-1.204
			l-0.038,0.026c-0.33,0.234-0.678,0.342-1.044,0.321c-0.403-0.023-0.718-0.179-0.942-0.466s-0.323-0.662-0.296-1.125
			c0.028-0.5,0.199-0.9,0.513-1.201c0.314-0.303,0.701-0.439,1.163-0.414c0.474,0.028,0.843,0.246,1.108,0.654
			c0.265,0.408,0.379,0.934,0.343,1.576c-0.046,0.803-0.371,1.474-0.976,2.014C51.463,99.139,50.749,99.398,49.923,99.377z
			 M51.479,94.545c-0.254-0.014-0.456,0.08-0.608,0.281c-0.151,0.203-0.239,0.496-0.262,0.88c-0.027,0.482,0.034,0.855,0.185,1.12
			s0.382,0.406,0.691,0.424c0.125,0.008,0.244-0.002,0.355-0.029c0.188-0.047,0.313-0.117,0.379-0.211
			c0.065-0.092,0.105-0.261,0.119-0.504l0.001-0.015c0.034-0.642-0.019-1.122-0.159-1.44C52.04,94.732,51.807,94.564,51.479,94.545z
			"/>
		<path fill="#A3732A" d="M55.066,99.432l1.284-4.422l-1.546,0.061c-0.227,0.009-0.396,0.053-0.508,0.131
			c-0.113,0.078-0.235,0.243-0.37,0.492l-0.124-0.053l0.194-0.55l0.198-0.554l2.717-0.105l0.003,0.071l0.003,0.075l-1.383,4.836
			L55.066,99.432z"/>
		<path fill="#A3732A" d="M59.575,98.24l-0.438-3.211c-0.027-0.197-0.093-0.301-0.2-0.313c-0.106-0.01-0.294,0.069-0.563,0.238
			l-0.015-0.105l0.624-0.418l0.627-0.422l0.035,0.018l0.563,4.127c0.035,0.258,0.102,0.421,0.202,0.488
			c0.099,0.067,0.295,0.084,0.586,0.049l0.02,0.138l-1.02,0.14l-1.02,0.139l-0.02-0.138c0.291-0.045,0.476-0.113,0.555-0.206
			C59.589,98.674,59.61,98.499,59.575,98.24z"/>
	</g>
	<path fill="none" stroke="#A3732A" stroke-width="1.4702" d="M106.1,54.5c0,28.829-23.373,52.201-52.2,52.201
		c-28.83,0-52.202-23.372-52.202-52.201S25.069,2.299,53.899,2.299C82.727,2.299,106.1,25.671,106.1,54.5z"/>
	<circle fill="none" stroke="#184A97" stroke-width="1.1026" cx="53.899" cy="54.5" r="47.781"/>
</g>
</svg>
