<svg id="OWENSBORO" xmlns="http://www.w3.org/2000/svg" viewBox="0 0 371.99 62.22"><defs><style>.cls-1{fill:#013057;}.rays{fill:#e7a614}.cls-2{fill:#013057;}</style></defs><path id="State" class="cls-1" d="M136.75,38.09a4.85,4.85,0,0,0,0-.66,3.59,3.59,0,0,0-.13-.52,1.55,1.55,0,0,0-.51-.79,9.8,9.8,0,0,1-.68-.88c-.44-.58-.87-1.18-1.34-1.74l-5.68-6.68a4.61,4.61,0,0,1-.9-3.31l.9-5.44a4.07,4.07,0,0,0-1-3.2l-4.88-4.81a2.18,2.18,0,0,0-2.79-.17l-1.28,1a6.93,6.93,0,0,1-3.28,1.26h-.06a3.21,3.21,0,0,1-2.75-1.52l-.09-.16a3.19,3.19,0,0,0-2.49-1.58,2.1,2.1,0,0,0-1.89,1.44,1.45,1.45,0,0,1-1.57,1.17A1.89,1.89,0,0,1,105,9.83a2.2,2.2,0,0,0-2-1.66l-3.63-.44c-1-.13-4.56-.93-4.88-1.93l-1-3.1a3,3,0,0,0-.94-1.34,2.69,2.69,0,0,0-1-.69,5,5,0,0,0-1.48.15,5.3,5.3,0,0,1-1.54,0C88,.68,87.46.63,86.93.51a6.07,6.07,0,0,1-1-.51c-1-.48-2,.51-2.14,1.53l-.38,4.26c-.09,1-2.11,2.88-3,3.38l-2,1.64c-.88.49-2.71-1.62-3.71-1.69L73.43,9a2,2,0,0,0-2.06,1.78l-.14,1c-.13,1,.07,3.39-.7,4.05l-.73.63a9.43,9.43,0,0,0-2,2.38c-.31.64,0,1.39-.13,1.67-.29.86-.17,1.37-.85,1.63l-.3.08a8.7,8.7,0,0,0-2.48,1,2.43,2.43,0,0,0-.61.44,2.58,2.58,0,0,0-.43.66c-.52,1.08-.86,3.61-2.18,4a2.93,2.93,0,0,1-1.44,0,6.24,6.24,0,0,1-2.76-1.45,4.92,4.92,0,0,0-1.25-1,2.43,2.43,0,0,0-2.63.75,7.28,7.28,0,0,0-1.33,2.56c-.26.72-.77,2.62-1.74,2.54a3.64,3.64,0,0,1-2.75-1.66,3.81,3.81,0,0,0-.71-1,1.67,1.67,0,0,0-1.36-.27,4.27,4.27,0,0,0-1.31.58A5.07,5.07,0,0,0,41,32.14c-.53,2-1.9,1.32-3.3.4a21.18,21.18,0,0,0-2.85-1.87,3.3,3.3,0,0,0-3.25.11c-.54.4-.92,1.06-1.56,1.23-.82.23-1.59-.42-2.36-.78A3.79,3.79,0,0,0,25.06,31c-1.12.31-1.17,2.2-2.2,2.89-.57.38-1.21.66-1.75,1.09a2.22,2.22,0,0,0-.92,1.76,2.76,2.76,0,0,0,.24.85,16.55,16.55,0,0,1,1,2.62c.13.67-.27.79-.84,1.08a13.21,13.21,0,0,1-3.3,1.16c-1.39.31-3.9,0-4.42,1.72a10.38,10.38,0,0,0-.48,1.88,3.41,3.41,0,0,0,.22,1.52c.29.71.83,1.32,1.06,2A2.26,2.26,0,0,1,13,52a1.66,1.66,0,0,1-1.84.26l-4-1.41a2.81,2.81,0,0,0-2,.51l-3,2.74A5.74,5.74,0,0,0,1,56.76c-.23.91-.31,1.86-.61,2.75-.22.68-.78,2.47.26,2.58H56c0-.44-.07-.9-.07-1.36a14.31,14.31,0,0,1,28.61,0c0,.46,0,.92-.06,1.36h29.4A4.83,4.83,0,0,0,117,60.71l9-9.94a29.52,29.52,0,0,1,2.7-2.55l4.25-3.47c.79-.65,2.24-1.86,2.35-2.91,0-.13.25-.36.31-.46a5.37,5.37,0,0,0,.74-1.11c0-.2,0-.41.08-.61a4.59,4.59,0,0,0,.14-.45c0-.16.2-.3.23-.47A3.53,3.53,0,0,0,136.75,38.09Z" transform="translate(0 0.12)"></path><path id="Rays" class="rays" d="M87.37,56l20.49-10-22,6.57L124.77,24.8,83.65,49.59l33.22-34.71-36,32.21L93.23,22.42l-15.6,22.8L89.13,3.38,74.07,44.07l2-29-5.7,28.56L66.57,25.26l.06,18.81L60.26,30.89l2.82,14.33L53,32l6.81,15.06L44,31.5l13,18.09L30.94,32l23.92,20.6L30.29,43.76,53.34,56,14,48.26,52.67,59.09l-46.86-3,46.61,6H56c0-.44-.07-.9-.07-1.36a14.31,14.31,0,0,1,28.61,0c0,.46,0,.92-.06,1.36h4.21l28.55-4-29,1,33.09-8Z" transform="translate(0 0.12)"></path><path class="cls-2" d="M159.22,9.11A13.45,13.45,0,1,1,145.81,22.6,13.42,13.42,0,0,1,159.22,9.11Zm0,20.92a7.47,7.47,0,1,0-7.44-7.43A7.48,7.48,0,0,0,159.22,30Z" transform="translate(0 0.12)"></path><path class="cls-2" d="M173.19,10.38a.65.65,0,0,1,.67-.9h4.38a.78.78,0,0,1,.67.53l3.21,12.66h.15l5.79-13.15a.72.72,0,0,1,.64-.41h.67a.65.65,0,0,1,.64.41l5.79,13.15H196L199.16,10a.75.75,0,0,1,.67-.53h4.37a.66.66,0,0,1,.68.9l-7.07,25.11a.71.71,0,0,1-.67.52h-.6a.76.76,0,0,1-.63-.41l-6.84-15.28H189l-6.8,15.28a.77.77,0,0,1-.64.41h-.59a.73.73,0,0,1-.68-.52Z" transform="translate(0 0.12)"></path><path class="cls-2" d="M207.38,10.19a.71.71,0,0,1,.71-.71h15.47a.71.71,0,0,1,.71.71v4.08a.7.7,0,0,1-.71.7H213.21v4.64h8.52a.73.73,0,0,1,.71.71v4.07a.71.71,0,0,1-.71.71h-8.52v5h10.35a.71.71,0,0,1,.71.71v4.08a.71.71,0,0,1-.71.71H208.09a.71.71,0,0,1-.71-.71Z" transform="translate(0 0.12)"></path><path class="cls-2" d="M227.74,9.78a.7.7,0,0,1,.71-.67h.93l14.91,14.35h0V10.19a.71.71,0,0,1,.71-.71h4.48a.73.73,0,0,1,.71.71V35.34a.7.7,0,0,1-.71.67h-.6a1,1,0,0,1-.48-.19L233.68,21h0V34.93a.71.71,0,0,1-.71.71h-4.44a.73.73,0,0,1-.71-.71Z" transform="translate(0 0.12)"></path><path class="cls-2" d="M253.67,32.09l1.75-3.1a1,1,0,0,1,1.27-.23c.15.08,2.84,2.06,5.31,2.06a2.35,2.35,0,0,0,2.58-2.25c0-1.56-1.31-2.76-3.85-3.77-3.21-1.27-7.25-3.77-7.25-8.26,0-3.69,2.88-7.43,8.63-7.43a13.91,13.91,0,0,1,8,2.8,1,1,0,0,1,.22,1.2L268.43,16c-.27.41-.94.75-1.27.49s-3.07-2.24-5.35-2.24a2.16,2.16,0,0,0-2.35,1.9c0,1.39,1.12,2.43,4.07,3.63s7.55,3.43,7.55,8.52c0,3.84-3.33,7.73-8.82,7.73-4.86,0-7.55-2-8.41-2.88C253.48,32.76,253.37,32.61,253.67,32.09Z" transform="translate(0 0.12)"></path><path class="cls-2" d="M274.14,10.19a.71.71,0,0,1,.71-.71h8.71c4.41,0,8,3,8,7,0,2.88-2.58,5-4.33,5.9,2,.83,5,2.66,5,6.1,0,4.18-3.7,7.21-8.14,7.21h-9.27a.71.71,0,0,1-.71-.71Zm8.74,9.9a2.66,2.66,0,0,0,2.62-2.69,2.54,2.54,0,0,0-2.62-2.54H280v5.23Zm.49,10.2a2.7,2.7,0,0,0,2.69-2.72c0-1.5-1.61-2.62-3.06-2.62h-3v5.34Z" transform="translate(0 0.12)"></path><path class="cls-2" d="M307,9.11A13.45,13.45,0,1,1,293.61,22.6,13.42,13.42,0,0,1,307,9.11ZM307,30a7.47,7.47,0,1,0-7.44-7.43A7.48,7.48,0,0,0,307,30Z" transform="translate(0 0.12)"></path><path class="cls-2" d="M323.49,10.19a.71.71,0,0,1,.71-.71h11.18a8.13,8.13,0,0,1,8.14,8.07c0,3.44-2.28,6.2-5.53,7.51l5.12,9.49a.71.71,0,0,1-.63,1.09h-5a.69.69,0,0,1-.6-.34l-5-9.9h-2.58v9.53a.74.74,0,0,1-.71.71H324.2a.71.71,0,0,1-.71-.71Zm11.4,10.46a3,3,0,0,0,2.84-3,2.86,2.86,0,0,0-2.84-2.83h-5.53v5.82Z" transform="translate(0 0.12)"></path><path class="cls-2" d="M358.54,9.11A13.45,13.45,0,1,1,345.13,22.6,13.42,13.42,0,0,1,358.54,9.11Zm0,20.92a7.47,7.47,0,1,0-7.44-7.43A7.48,7.48,0,0,0,358.54,30Z" transform="translate(0 0.12)"></path><path class="cls-2" d="M149.77,41a3.8,3.8,0,0,1,2.76,1.09.22.22,0,0,1,0,.33l-.7.74a.18.18,0,0,1-.29,0A2.66,2.66,0,1,0,149.82,48a2.67,2.67,0,0,0,1.74-.67.2.2,0,0,1,.29,0l.71.75a.24.24,0,0,1,0,.32,3.89,3.89,0,0,1-2.78,1.14,4.24,4.24,0,0,1,0-8.47Z" transform="translate(0 0.12)"></path><path class="cls-2" d="M157.29,41a4.24,4.24,0,1,1-4.09,4.24A4.16,4.16,0,0,1,157.29,41Zm0,6.94a2.71,2.71,0,1,0-2.61-2.7A2.67,2.67,0,0,0,157.29,48Z" transform="translate(0 0.12)"></path><path class="cls-2" d="M163.59,41.2a.19.19,0,0,1,.21-.18H164a.2.2,0,0,1,.19.12l2.51,5.55h0l2.51-5.55a.21.21,0,0,1,.2-.12h.18a.19.19,0,0,1,.2.18l1.35,7.9a.21.21,0,0,1-.21.27h-1a.25.25,0,0,1-.22-.18L169,44.74h0l-2,4.62a.2.2,0,0,1-.2.13h-.2a.2.2,0,0,1-.19-.13l-2-4.62h0l-.66,4.45a.22.22,0,0,1-.2.18h-1a.22.22,0,0,1-.22-.27Z" transform="translate(0 0.12)"></path><path class="cls-2" d="M173.51,41.2a.19.19,0,0,1,.21-.18h.18a.2.2,0,0,1,.19.12l2.51,5.55h0l2.51-5.55a.21.21,0,0,1,.2-.12h.18a.19.19,0,0,1,.2.18l1.35,7.9a.21.21,0,0,1-.21.27h-1a.25.25,0,0,1-.22-.18l-.67-4.45h0l-2,4.62a.19.19,0,0,1-.2.13h-.2a.2.2,0,0,1-.19-.13l-2-4.62h0l-.66,4.45a.22.22,0,0,1-.2.18h-1a.21.21,0,0,1-.21-.27Z" transform="translate(0 0.12)"></path><path class="cls-2" d="M182.36,41.36a.22.22,0,0,1,.22-.22h1.08a.22.22,0,0,1,.22.22v4.81a1.66,1.66,0,1,0,3.31,0V41.36a.22.22,0,0,1,.22-.22h1.08a.22.22,0,0,1,.22.22v4.89a3.18,3.18,0,1,1-6.35,0Z" transform="translate(0 0.12)"></path><path class="cls-2" d="M190.62,41.23a.22.22,0,0,1,.22-.21h.28l4.74,5.2h0V41.36a.22.22,0,0,1,.22-.22h1a.23.23,0,0,1,.22.22v7.91a.23.23,0,0,1-.22.22h-.27l-4.77-5.4h0v5.06a.22.22,0,0,1-.22.22h-1a.23.23,0,0,1-.22-.22Z" transform="translate(0 0.12)"></path><path class="cls-2" d="M199.35,41.36a.23.23,0,0,1,.22-.22h1.06a.23.23,0,0,1,.22.22v7.79a.24.24,0,0,1-.22.22h-1.06a.24.24,0,0,1-.22-.22Z" transform="translate(0 0.12)"></path><path class="cls-2" d="M203.86,42.55h-1.74a.22.22,0,0,1-.22-.22v-1a.22.22,0,0,1,.22-.22h5a.22.22,0,0,1,.22.22v1a.23.23,0,0,1-.22.22h-1.75v6.6a.23.23,0,0,1-.21.22h-1.06a.23.23,0,0,1-.22-.22Z" transform="translate(0 0.12)"></path><path class="cls-2" d="M210.45,45.41l-2.6-3.93a.22.22,0,0,1,.18-.34h1.16a.27.27,0,0,1,.19.1L211.2,44,213,41.24a.25.25,0,0,1,.19-.1h1.17a.22.22,0,0,1,.18.34l-2.63,3.91v3.76a.23.23,0,0,1-.22.22h-1.05a.22.22,0,0,1-.21-.22Z" transform="translate(0 0.12)"></path><path class="cls-2" d="M147.62,55.88v0l-.24-.27a2.35,2.35,0,0,1-.77-1.69,2.17,2.17,0,0,1,4.31,0c0,1.21-1.17,1.93-1.4,2.14l1.32,1.36a5.34,5.34,0,0,0,.41-1.3c0-.25.11-.38.37-.3l.63.19c.3.08.21.34.19.46a8.34,8.34,0,0,1-.7,1.87l1,1c.14.14.25.27,0,.54l-.47.49a.33.33,0,0,1-.5,0l-.82-.86a3.25,3.25,0,0,1-2.49,1,2.25,2.25,0,0,1-2.4-2.21A2.81,2.81,0,0,1,147.62,55.88Zm1,3.32a1.84,1.84,0,0,0,1.47-.69l-1.7-1.86a1.66,1.66,0,0,0-1,1.44A1.13,1.13,0,0,0,148.6,59.2ZM149.68,54a.91.91,0,0,0-1-.88.79.79,0,0,0-.85.8c0,.41.25.68.59,1.05l.26.26C148.89,55.11,149.68,54.71,149.68,54Z" transform="translate(0 0.12)"></path><path class="cls-2" d="M157.09,53.52h-1.74a.23.23,0,0,1-.22-.22v-1a.22.22,0,0,1,.22-.22h5a.22.22,0,0,1,.22.22v1a.22.22,0,0,1-.22.22h-1.74v6.6a.23.23,0,0,1-.22.22h-1.06a.24.24,0,0,1-.22-.22Z" transform="translate(0 0.12)"></path><path class="cls-2" d="M161.41,52.33a.22.22,0,0,1,.22-.22h4.64a.21.21,0,0,1,.21.22v1a.22.22,0,0,1-.21.22h-3.38v1.93h2.82a.22.22,0,0,1,.21.22v1a.21.21,0,0,1-.21.22h-2.82v2.06h3.38a.22.22,0,0,1,.21.22v1a.22.22,0,0,1-.21.22h-4.64a.22.22,0,0,1-.22-.22Z" transform="translate(0 0.12)"></path><path class="cls-2" d="M171.29,52a3.8,3.8,0,0,1,2.76,1.1.22.22,0,0,1,0,.32l-.7.74a.17.17,0,0,1-.28,0,2.68,2.68,0,0,0-1.76-.69,2.74,2.74,0,0,0,0,5.46,2.69,2.69,0,0,0,1.75-.67.19.19,0,0,1,.28,0l.71.75a.23.23,0,0,1,0,.32,3.89,3.89,0,0,1-2.77,1.14,4.24,4.24,0,0,1,0-8.47Z" transform="translate(0 0.12)"></path><path class="cls-2" d="M175.22,52.33a.23.23,0,0,1,.22-.22h1.06a.22.22,0,0,1,.22.22v3.12h3.71V52.33a.22.22,0,0,1,.22-.22h1a.22.22,0,0,1,.21.22v7.79a.23.23,0,0,1-.21.22h-1a.22.22,0,0,1-.22-.22V56.87h-3.71v3.25a.22.22,0,0,1-.22.22h-1.06a.24.24,0,0,1-.22-.22Z" transform="translate(0 0.12)"></path><path class="cls-2" d="M183.71,52.2a.22.22,0,0,1,.21-.21h.29l4.74,5.2h0V52.33a.22.22,0,0,1,.22-.22h1a.22.22,0,0,1,.21.22v7.92a.22.22,0,0,1-.21.21H190l-4.76-5.4h0v5.06a.23.23,0,0,1-.22.22h-1a.23.23,0,0,1-.21-.22Z" transform="translate(0 0.12)"></path><path class="cls-2" d="M192.23,52.33a.22.22,0,0,1,.22-.22h1.06a.23.23,0,0,1,.22.22v7.79a.24.24,0,0,1-.22.22h-1.06a.23.23,0,0,1-.22-.22Z" transform="translate(0 0.12)"></path><path class="cls-2" d="M199.07,52a3.8,3.8,0,0,1,2.76,1.1.22.22,0,0,1,0,.32l-.7.74a.17.17,0,0,1-.28,0,2.68,2.68,0,0,0-1.76-.69,2.74,2.74,0,0,0,0,5.46,2.69,2.69,0,0,0,1.75-.67.19.19,0,0,1,.28,0l.71.75a.23.23,0,0,1,0,.32,3.89,3.89,0,0,1-2.77,1.14,4.24,4.24,0,0,1,0-8.47Z" transform="translate(0 0.12)"></path><path class="cls-2" d="M202.23,60l3.54-7.91A.21.21,0,0,1,206,52h.11a.18.18,0,0,1,.19.13L209.79,60a.21.21,0,0,1-.2.31h-1c-.17,0-.25-.07-.33-.24l-.56-1.27H204.3l-.56,1.27a.33.33,0,0,1-.33.24h-1A.21.21,0,0,1,202.23,60Zm4.92-2.5L206,54.94h0l-1.12,2.59Z" transform="translate(0 0.12)"></path><path class="cls-2" d="M210.59,52.33a.21.21,0,0,1,.21-.22h1a.22.22,0,0,1,.22.22v6.6H215a.22.22,0,0,1,.21.22v1a.22.22,0,0,1-.21.22H210.8a.22.22,0,0,1-.21-.22Z" transform="translate(0 0.12)"></path><path class="cls-2" d="M227.93,40.91a9.23,9.23,0,0,1,6.64,2.55.52.52,0,0,1,0,.77l-2.13,2.22a.49.49,0,0,1-.69,0,5.59,5.59,0,0,0-3.7-1.4,5.61,5.61,0,0,0,0,11.22A5.82,5.82,0,0,0,231.77,55a.55.55,0,0,1,.71,0l2.14,2.28a.54.54,0,0,1,0,.74,9.4,9.4,0,0,1-6.66,2.66,9.88,9.88,0,1,1,0-19.75Z" transform="translate(0 0.12)"></path><path class="cls-2" d="M245.61,40.91a9.88,9.88,0,1,1-9.85,9.9A9.85,9.85,0,0,1,245.61,40.91Zm0,15.36a5.49,5.49,0,1,0-5.46-5.46A5.5,5.5,0,0,0,245.61,56.27Z" transform="translate(0 0.12)"></path><path class="cls-2" d="M258.56,41.7a.52.52,0,0,1,.52-.52h3.27a.54.54,0,0,1,.52.52V56.35h6.53a.52.52,0,0,1,.52.52v3a.52.52,0,0,1-.52.53H259.08a.52.52,0,0,1-.52-.53Z" transform="translate(0 0.12)"></path><path class="cls-2" d="M272.08,41.7a.52.52,0,0,1,.52-.52h3.27a.54.54,0,0,1,.52.52V56.35h6.53a.52.52,0,0,1,.52.52v3a.52.52,0,0,1-.52.53H272.6a.52.52,0,0,1-.52-.53Z" transform="translate(0 0.12)"></path><path class="cls-2" d="M285.6,41.7a.52.52,0,0,1,.53-.52h11.35a.52.52,0,0,1,.53.52v3a.52.52,0,0,1-.53.52h-7.6v3.41h6.26a.54.54,0,0,1,.52.52v3a.52.52,0,0,1-.52.52h-6.26v3.7h7.6a.52.52,0,0,1,.53.52v3a.53.53,0,0,1-.53.53H286.13a.53.53,0,0,1-.53-.53Z" transform="translate(0 0.12)"></path><path class="cls-2" d="M309.84,40.93a10.66,10.66,0,0,1,6.7,2.58.48.48,0,0,1,0,.74l-2.17,2.31a.59.59,0,0,1-.74,0,5,5,0,0,0-3.59-1.32,5.5,5.5,0,0,0,0,11,6.5,6.5,0,0,0,2.44-.44V54.24h-1.73a.5.5,0,0,1-.52-.49V51a.5.5,0,0,1,.52-.52h5.51a.52.52,0,0,1,.5.52l0,7.38a.66.66,0,0,1-.21.44,13.91,13.91,0,0,1-6.81,1.78,9.85,9.85,0,1,1,0-19.7Z" transform="translate(0 0.12)"></path><path class="cls-2" d="M320.55,41.7a.52.52,0,0,1,.52-.52h11.36a.52.52,0,0,1,.52.52v3a.52.52,0,0,1-.52.52h-7.6v3.41h6.26a.54.54,0,0,1,.52.52v3a.52.52,0,0,1-.52.52h-6.26v3.7h7.6a.52.52,0,0,1,.52.52v3a.52.52,0,0,1-.52.53H321.07a.52.52,0,0,1-.52-.53Z" transform="translate(0 0.12)"></path></svg>