<svg id="Layer_1" data-name="Layer 1" xmlns="http://www.w3.org/2000/svg" viewBox="0 0 332.92 259.27"><defs><style>.cls-1{fill:#00539b;}.cls-2{fill:#231f20;}</style></defs><path class="cls-1" d="M269,39a38.52,38.52,0,0,1,7.76,22.71c0,28.5-34.06,51.61-76.07,51.61-22,0-41.77-6.33-55.66-16.44,11.41,5.2,25.68,8.3,41.17,8.3q1.78,0,3.54-.06c-23-2.83-40.47-16.48-40.47-32.91,0-18.48,22.09-33.46,49.33-33.46S248,53.69,248,72.17a24.93,24.93,0,0,1-5,14.74c6.94-6.31,11-13.83,11-21.92,0-22.18-30.3-40.16-67.67-40.16-23.44,0-44.09,7.08-56.23,17.82,9.54-16.31,31-28.53,57-31.74-1.8-.05-3.61-.08-5.44-.08C124,10.83,77.24,38.56,77.24,72.76S124,134.69,181.6,134.69,286,107,286,72.76C286,60.28,279.73,48.68,269,39Z" transform="translate(-14.99 -10.83)"/><path class="cls-2" d="M73.09,206.22A39.84,39.84,0,0,1,61.39,212a47.84,47.84,0,0,1-13.81,1.88,38.37,38.37,0,0,1-12.33-1.94A31.89,31.89,0,0,1,25,206.34a26.81,26.81,0,0,1-7.53-9.62,30.3,30.3,0,0,1-2.44-12.54q0-13,9.21-21t24.26-8a44.71,44.71,0,0,1,11.95,1.58,42.85,42.85,0,0,1,10.92,4.74L67.31,175l-1.15-.17q-1.29-8.21-5.46-12.4t-11.08-4.21A15.62,15.62,0,0,0,36.23,165q-4.87,6.78-4.88,18.81,0,12.87,4.86,20a15.54,15.54,0,0,0,13.62,7.13c4.87,0,8.73-1.56,11.55-4.67s4.78-8,5.85-14.55l1.2-.09Z" transform="translate(-14.99 -10.83)"/><path class="cls-2" d="M75.33,184.34a28.23,28.23,0,0,1,2.5-11.92,28.74,28.74,0,0,1,7.37-9.69,29.87,29.87,0,0,1,9.89-5.62,36.78,36.78,0,0,1,12-1.9,37.36,37.36,0,0,1,12.24,1.88,30.54,30.54,0,0,1,17.29,15.5,28.6,28.6,0,0,1,0,23.5,31.17,31.17,0,0,1-7.62,10,29.21,29.21,0,0,1-9.77,5.76,35.06,35.06,0,0,1-12,2A35.91,35.91,0,0,1,95,211.79,30.69,30.69,0,0,1,85,205.88a28.88,28.88,0,0,1-7.12-9.75A28.39,28.39,0,0,1,75.33,184.34ZM107.2,211q8.08,0,12-6.54t3.93-20q0-13.47-3.91-19.95t-12-6.49q-8.16,0-12,6.43t-3.86,20q0,13.64,3.88,20.1T107.2,211Z" transform="translate(-14.99 -10.83)"/><path class="cls-2" d="M139.55,212.51v-1.14a6.2,6.2,0,0,0,4.76-3.88q1.26-3.12,1.26-14.49V164.45a7.38,7.38,0,0,0-1.13-4.44,6.79,6.79,0,0,0-3.86-2.24v-1.22c1.85.11,3.75.19,5.7.25s4,.08,6.07.08,4.33,0,6.39-.08,4.13-.14,6.2-.25v1.22a6.06,6.06,0,0,0-3.92,2.09,7.38,7.38,0,0,0-1.22,4.59v27.72q0,11.67,2,14.39t8,2.73a25.74,25.74,0,0,0,13.8-4,41.3,41.3,0,0,0,12-12l1.2.45-5.41,18.55H157.54c-.61,0-1.54,0-2.81,0l-2.84,0q-3.34,0-6.4.08C143.46,212.31,141.48,212.39,139.55,212.51Z" transform="translate(-14.99 -10.83)"/><path class="cls-2" d="M196.36,212.51v-1.14a6.17,6.17,0,0,0,4.75-3.88c.85-2.08,1.26-6.91,1.26-14.49V164.45a7.31,7.31,0,0,0-1.13-4.44,6.76,6.76,0,0,0-3.85-2.24v-1.22c1.84.11,3.74.19,5.7.25s4,.08,6.06.08,4.33,0,6.4-.08,4.13-.14,6.2-.25v1.22a6.11,6.11,0,0,0-3.93,2.09,7.45,7.45,0,0,0-1.21,4.59v27.72q0,11.67,2,14.39t8,2.73a25.79,25.79,0,0,0,13.8-4,41.3,41.3,0,0,0,12-12l1.19.45-5.41,18.55H214.35c-.61,0-1.55,0-2.81,0l-2.85,0c-2.23,0-4.35,0-6.39.08S198.29,212.39,196.36,212.51Z" transform="translate(-14.99 -10.83)"/><path class="cls-2" d="M273.52,192.92q0,11.07,1.31,14.32a6.71,6.71,0,0,0,5,4.13v1.14c-1.87-.09-3.83-.15-5.86-.19s-4.72-.06-8.08-.06q-4.77,0-7.62.06c-1.89,0-3.71.1-5.43.19v-1.14a6.4,6.4,0,0,0,4.87-3.91q1.28-3.14,1.28-14.54V164.44a5.86,5.86,0,0,0-5.13-6.67v-1.22q2.89.16,5.89.25t6.14.08q3.32,0,6.49-.08t6.42-.25v1.22a6.65,6.65,0,0,0-4.05,2.15,7.18,7.18,0,0,0-1.23,4.52Z" transform="translate(-14.99 -10.83)"/><path class="cls-2" d="M292.89,187q0,12.36,2,17.46a11.47,11.47,0,0,0,7,6.93v1.07c-2.06-.08-3.91-.14-5.56-.18s-3.11-.06-4.41-.06c-1.57,0-3.22,0-5,.06s-3.56.1-5.46.18l0-1a11.8,11.8,0,0,0,6.48-7.43q1.94-5.48,1.92-17V170.09q0-6.72-1.23-9a7.48,7.48,0,0,0-4.49-3.38v-1.06l6.69.13c1.63,0,3.13,0,4.5,0,.9,0,2.26,0,4.05,0s3.15,0,4.06,0q6.17,6.93,13.8,14.83t19.13,19.25V182q0-13.56-1.9-18.06a11.32,11.32,0,0,0-6.9-6.32v-1.06c2,.08,3.78.14,5.42.19s3.1.06,4.39.06c1.58,0,3.27,0,5-.06s3.62-.11,5.57-.19v1a12.77,12.77,0,0,0-6.66,6.51q-1.86,4.26-1.85,18v31.23l-1.85.59Q326.14,201.38,315,189.53t-22.08-23.2Z" transform="translate(-14.99 -10.83)"/><path class="cls-2" d="M60.23,264.1a31.3,31.3,0,0,1-9.13,4.44A38,38,0,0,1,40.34,270a30.27,30.27,0,0,1-9.61-1.5,25,25,0,0,1-8-4.29,20.57,20.57,0,0,1-5.87-7.41,23,23,0,0,1-1.9-9.66A20.26,20.26,0,0,1,22.16,231q7.18-6.16,18.92-6.16A35.23,35.23,0,0,1,50.4,226a33.67,33.67,0,0,1,8.51,3.64L55.72,240l-.9-.13c-.67-4.21-2.08-7.4-4.26-9.56a11.68,11.68,0,0,0-8.63-3.23,12.2,12.2,0,0,0-10.44,5.22q-3.81,5.2-3.8,14.49,0,9.9,3.78,15.4a12.18,12.18,0,0,0,10.62,5.49,11.64,11.64,0,0,0,9-3.6q3.3-3.59,4.56-11.21l.93-.06Z" transform="translate(-14.99 -10.83)"/><path class="cls-2" d="M62.82,247.25a21.53,21.53,0,0,1,1.95-9.18,22.08,22.08,0,0,1,5.75-7.47,23.45,23.45,0,0,1,7.7-4.33,31.51,31.51,0,0,1,18.93,0,23.73,23.73,0,0,1,13.48,11.94,21.85,21.85,0,0,1,0,18.11,24.1,24.1,0,0,1-5.94,7.7,22.78,22.78,0,0,1-7.61,4.43A27.74,27.74,0,0,1,87.73,270a28.1,28.1,0,0,1-9.54-1.6,24,24,0,0,1-7.87-4.54,22.36,22.36,0,0,1-5.55-7.51A21.71,21.71,0,0,1,62.82,247.25Zm24.85,20.56a10.23,10.23,0,0,0,9.37-5q3.08-5,3.07-15.42t-3-15.37q-3.06-5-9.39-5t-9.37,5q-3,4.95-3,15.42t3,15.49C80.33,266.16,83.44,267.81,87.67,267.81Z" transform="translate(-14.99 -10.83)"/><path class="cls-2" d="M113.35,269v-.88a4.79,4.79,0,0,0,3.7-3q1-2.4,1-11.15v-22a5.66,5.66,0,0,0-.88-3.43,5.3,5.3,0,0,0-3-1.72v-.94c1.44.09,2.91.15,4.44.19s3.1.07,4.73.07,3.38,0,5-.07,3.22-.1,4.83-.19v.94a4.76,4.76,0,0,0-3.06,1.61,5.68,5.68,0,0,0-.94,3.54v21.35q0,9,1.53,11.09t6.27,2.1a20.27,20.27,0,0,0,10.76-3.1,31.93,31.93,0,0,0,9.33-9.25l.93.35-4.21,14.29H127.37c-.47,0-1.21,0-2.19,0l-2.22,0q-2.61,0-5,.06C116.39,268.8,114.85,268.86,113.35,269Z" transform="translate(-14.99 -10.83)"/><path class="cls-2" d="M157.94,269v-.88a4.8,4.8,0,0,0,3.7-3q1-2.4,1-11.15v-22a5.59,5.59,0,0,0-.89-3.43,5.24,5.24,0,0,0-3-1.72v-.94c1.44.09,2.92.15,4.44.19s3.1.07,4.73.07,3.38,0,5-.07,3.22-.1,4.83-.19v.94a4.76,4.76,0,0,0-3.06,1.61,5.68,5.68,0,0,0-.95,3.54v21.35q0,9,1.54,11.09t6.26,2.1a20.24,20.24,0,0,0,10.76-3.1,32,32,0,0,0,9.34-9.25l.93.35-4.22,14.29H172c-.47,0-1.2,0-2.18,0l-2.23,0q-2.59,0-5,.06C161,268.8,159.43,268.86,157.94,269Z" transform="translate(-14.99 -10.83)"/><path class="cls-2" d="M202.52,268.94v-.88a4.79,4.79,0,0,0,3.7-3c.66-1.62,1-5.34,1-11.19V232.05a5.67,5.67,0,0,0-.88-3.44,5.31,5.31,0,0,0-3-1.73V226h.38q6.86.13,10.23.13h27.24l3.67,11.07-1,.26a25.64,25.64,0,0,0-9.33-6.83,31.31,31.31,0,0,0-12.19-2.21l-2.38,0a10.67,10.67,0,0,0-1.44.11v16.44l2.12.1c.68,0,1.37,0,2.08,0a21.26,21.26,0,0,0,9.52-1.88,8.84,8.84,0,0,0,4.81-5.21H238v16.35h-.91a9,9,0,0,0-4.81-5.36,21.63,21.63,0,0,0-9.65-1.84c-1.09,0-1.92,0-2.48,0s-1.1.05-1.59.09v6q0,9,1.46,11.1t6.19,2.13a21.39,21.39,0,0,0,11-3,34,34,0,0,0,9.64-9l1.14.38-4.25,13.91H216.57l-2.19,0-2.22,0c-1.75,0-3.41,0-5,.07S204,268.85,202.52,268.94Z" transform="translate(-14.99 -10.83)"/><path class="cls-2" d="M299.3,246.77v.91a6.84,6.84,0,0,0-3.45,1.67,5,5,0,0,0-.9,3.31v7.26c0,.66,0,1.32.07,2s.08,1.4.13,2.13a25.17,25.17,0,0,1-8.42,4.53,35.22,35.22,0,0,1-10.65,1.5q-11.77,0-18.87-6.25t-7.09-16.57A20.34,20.34,0,0,1,257.37,231q7.26-6.21,19.15-6.2a37.93,37.93,0,0,1,10.09,1.34,34.94,34.94,0,0,1,9.08,3.86l-3.9,10.7-.93-.23q-1.07-6.82-4.42-10.16T277.37,227q-7.46,0-11.11,5.09t-3.67,15.3q0,10.53,3.15,15.54t9.74,5c3.17,0,5.39-.78,6.63-2.35s1.86-4.48,1.86-8.77q0-5.56-1.52-7.15c-1-1.06-3.07-1.72-6.14-2v-.91c1.85.09,3.71.16,5.61.2s3.83.07,5.77.07c1.72,0,3.54,0,5.48-.07S297.16,246.86,299.3,246.77Z" transform="translate(-14.99 -10.83)"/><path class="cls-2" d="M300.1,268.94v-.88a4.79,4.79,0,0,0,3.7-3c.66-1.62,1-5.34,1-11.19V232.05a5.67,5.67,0,0,0-.88-3.44,5.31,5.31,0,0,0-3-1.73V226h.39c4.56.09,8,.13,10.23.13h27.23l3.67,11.07-1,.26a25.61,25.61,0,0,0-9.32-6.83,31.34,31.34,0,0,0-12.19-2.21l-2.39,0a10.93,10.93,0,0,0-1.44.11v16.44l2.11.1c.69,0,1.39,0,2.09,0a21.31,21.31,0,0,0,9.53-1.88,8.79,8.79,0,0,0,4.8-5.21h.92v16.35h-.92a8.94,8.94,0,0,0-4.8-5.36,21.66,21.66,0,0,0-9.65-1.84c-1.1,0-1.92,0-2.49,0s-1.1.05-1.59.09v6q0,9,1.47,11.1t6.19,2.13a21.35,21.35,0,0,0,11-3,33.87,33.87,0,0,0,9.64-9l1.14.38-4.25,13.91H314.15l-2.19,0-2.22,0c-1.74,0-3.41,0-5,.07S301.61,268.85,300.1,268.94Z" transform="translate(-14.99 -10.83)"/></svg>