<?xml version="1.0" encoding="UTF-8"?><svg xmlns="http://www.w3.org/2000/svg" xmlns:xlink="http://www.w3.org/1999/xlink" viewBox="0 0 417.1 163.27"><defs><style>.cls-1{fill:#00b2e5;}.cls-2{fill:url(#linear-gradient-6);}.cls-2,.cls-3,.cls-4,.cls-5,.cls-6,.cls-7,.cls-8{mix-blend-mode:multiply;}.cls-3{fill:url(#linear-gradient-5);}.cls-4{fill:url(#linear-gradient-4);}.cls-5{fill:url(#linear-gradient-2);}.cls-6{fill:url(#linear-gradient-3);}.cls-7{fill:url(#linear-gradient-7);opacity:.73;}.cls-8{fill:url(#linear-gradient);}.cls-9{isolation:isolate;}</style><linearGradient id="linear-gradient" x1="307.27" y1="891.68" x2="296.81" y2="883.23" gradientTransform="translate(-245.4 -1246.45) rotate(3.55) scale(1.51 1.48) skewX(-.77)" gradientUnits="userSpaceOnUse"><stop offset=".38" stop-color="#fff"/><stop offset=".85" stop-color="#00b2e5"/></linearGradient><linearGradient id="linear-gradient-2" x1="-442.5" y1="1145.66" x2="-442.5" y2="1120.85" gradientTransform="translate(-143.64 -2814.56) rotate(-179.95) scale(.36 -2.57)" gradientUnits="userSpaceOnUse"><stop offset="0" stop-color="#fff"/><stop offset=".13" stop-color="#fbfdfe"/><stop offset=".25" stop-color="#effafd"/><stop offset=".37" stop-color="#dbf4fb"/><stop offset=".49" stop-color="#bfebf8"/><stop offset=".61" stop-color="#9be1f4"/><stop offset=".74" stop-color="#70d3f0"/><stop offset=".86" stop-color="#3cc4eb"/><stop offset=".98" stop-color="#01b2e5"/><stop offset=".98" stop-color="#00b2e5"/></linearGradient><linearGradient id="linear-gradient-3" x1="118.49" y1="904.04" x2="107.77" y2="895.38" gradientTransform="translate(90.34 -1246.45) rotate(176.45) scale(1.51 -1.48) skewX(-.77)" xlink:href="#linear-gradient"/><linearGradient id="linear-gradient-4" x1="2409.03" y1="1981.08" x2="2409.03" y2="1940.99" gradientTransform="translate(-2507.96 4480.86) rotate(-137.42) scale(.45 2.57)" xlink:href="#linear-gradient-2"/><linearGradient id="linear-gradient-5" x1="86.78" y1="77.38" x2="76.78" y2="83.95" gradientTransform="translate(-.26 .05) rotate(-.22) scale(1.02 1) skewX(-.43)" gradientUnits="userSpaceOnUse"><stop offset=".43" stop-color="#fff"/><stop offset=".48" stop-color="#f8fcfd"/><stop offset=".55" stop-color="#e5f5fa"/><stop offset=".64" stop-color="#c7e9f4"/><stop offset=".73" stop-color="#9dd8ec"/><stop offset=".83" stop-color="#66c3e2"/><stop offset=".94" stop-color="#25a9d6"/><stop offset="1" stop-color="#009bd0"/></linearGradient><linearGradient id="linear-gradient-6" x1="-98.63" y1="1157.78" x2="-98.63" y2="1120.83" gradientTransform="translate(148.31 -2814.55) rotate(-.05) scale(.36 2.57)" xlink:href="#linear-gradient-2"/><linearGradient id="linear-gradient-7" x1="1398.22" y1="2092.22" x2="1398.22" y2="2060.1" gradientTransform="translate(4181.01 3487.32) rotate(136.28) scale(.45 2.56)" xlink:href="#linear-gradient-2"/></defs><g class="cls-9"><g id="Layer_1"><path class="cls-1" d="m92.76,95.76v35.88c0,.42.18.83.48,1.12l27.74,26.24c.99.93,2.61.22,2.61-1.14V62.83s-30.82,32.93-30.82,32.93Z"/><polygon class="cls-8" points="123.58 62.83 123.58 78.24 92.77 111.97 92.76 95.76 123.58 62.83"/><path class="cls-1" d="m7.29,62.98v65.56c-.02,1.47,1.17,2.66,2.63,2.66h25.5c1.45,0,2.63-1.17,2.64-2.63v-32.58S7.29,62.98,7.29,62.98Z"/><polygon class="cls-5" points="7.28 126.66 23.27 126.61 23.27 80.12 7.29 62.98 7.28 126.66"/><polygon class="cls-6" points="7.29 62.98 7.29 78.6 38.06 112.48 38.07 95.99 7.29 62.98"/><path class="cls-1" d="m64.71,76.71L135.8.49c.96-1.02,2.67-.35,2.68,1.05v40.28c0,1.09-.07,1.72-.65,2.4l-51.94,55.65-21.17-23.16Z"/><polygon class="cls-4" points="134.37 2.07 134.37 24.65 75.55 87.79 64.86 76.56 134.37 2.07"/><polygon class="cls-3" points="65.14 76.26 77.72 62.77 93.04 92.2 86.35 99.42 65.14 76.26"/><path class="cls-1" d="m40.97,50.24c-.29-.31-.7-.49-1.13-.49H1.55c-1.35,0-2.05,1.61-1.13,2.6l63.83,68.45c.61.66,1.65.66,2.26,0l20.05-21.6-45.59-48.96Z"/><polygon class="cls-2" points="123.58 157.68 107.75 141.27 107.75 79.75 123.58 62.83 123.58 157.68"/><polygon class="cls-7" points="18.91 51.37 42.21 51.53 86.56 99.2 75.25 111.35 18.91 51.37"/><path class="cls-1" d="m196.37,99.28v-35.06l-14.35,26.11h-6.04l-14.27-26.11v35.06h-10.82v-53.42h11.68l16.39,30.32,16.54-30.32h11.61v53.42h-10.74Z"/><path class="cls-1" d="m389.97,99.65c-4.08,0-7.76-.75-11.06-2.26-3.29-1.5-6.14-3.55-8.55-6.13-2.41-2.58-4.26-5.49-5.57-8.73-1.31-3.24-1.96-6.56-1.96-9.97s.69-6.96,2.08-10.2c1.38-3.23,3.29-6.12,5.72-8.65,2.43-2.53,5.32-4.54,8.66-6.02,3.34-1.48,6.98-2.22,10.9-2.22s7.7.78,11.02,2.33,6.16,3.64,8.51,6.24c2.35,2.61,4.17,5.52,5.45,8.73,1.28,3.21,1.92,6.52,1.92,9.93s-.67,6.88-2,10.12c-1.33,3.23-3.21,6.12-5.64,8.65-2.43,2.53-5.31,4.53-8.63,5.98-3.32,1.46-6.94,2.18-10.86,2.18Zm-16.15-27.08c0,2.31.36,4.54,1.1,6.69.73,2.16,1.79,4.08,3.18,5.76,1.38,1.68,3.08,3.01,5.1,3.99,2.01.98,4.3,1.47,6.86,1.47s4.99-.51,6.98-1.54c1.99-1.03,3.67-2.4,5.06-4.1,1.38-1.7,2.42-3.64,3.1-5.79.68-2.15,1.02-4.31,1.02-6.47,0-2.31-.36-4.53-1.1-6.66-.73-2.13-1.8-4.04-3.22-5.72-1.41-1.68-3.11-3.01-5.1-3.99s-4.26-1.47-6.82-1.47-4.85.51-6.86,1.54c-2.01,1.03-3.71,2.38-5.1,4.06-1.38,1.68-2.43,3.59-3.14,5.72s-1.06,4.3-1.06,6.51Z"/><polygon class="cls-1" points="229.54 76.26 252.91 76.26 252.91 67.83 229.54 67.83 229.54 53.45 218.72 53.45 218.72 99.28 257.38 99.28 257.38 90.17 229.54 90.17 229.54 76.26"/><path class="cls-1" d="m346.69,79.19c2.04-.85,3.82-2.07,5.33-3.65,1.52-1.58,2.68-3.4,3.49-5.45s1.22-4.21,1.22-6.47-.43-4.36-1.29-6.47c-.86-2.11-2.09-4.01-3.68-5.72-1.6-1.7-3.48-3.06-5.65-4.06-2.17-1-4.51-1.51-7.02-1.51h-24.7v9.15h10.82v-.05h13.17c1.31,0,2.51.37,3.61,1.13,1.1.75,2.01,1.78,2.74,3.09s1.1,2.78,1.1,4.44-.31,3.06-.94,4.36c-.63,1.31-1.46,2.35-2.51,3.12-1.04.78-2.25,1.17-3.61,1.17h-13.57v-14.34h-10.82v41.35h10.82v-17.91h10.82l11.45,17.91h11.92l-12.7-20.09Z"/><polygon class="cls-1" points="251.25 45.86 218.72 45.86 218.72 54.98 229.54 54.98 229.54 54.96 256.67 54.96 259.63 54.85 251.25 45.86"/><polygon class="cls-1" points="255.46 45.86 263.95 54.96 278.94 54.96 278.94 99.28 289.68 99.28 289.68 54.96 314.81 54.96 314.81 45.86 255.46 45.86"/><path class="cls-1" d="m245.68,132.3c0-3.2.58-6.35,1.73-9.43,1.16-3.08,2.84-5.89,5.05-8.43,2.21-2.54,4.93-4.56,8.17-6.06,3.24-1.5,6.91-2.25,11.02-2.25,4.88,0,9.05,1.07,12.52,3.22,3.47,2.14,6.02,4.89,7.67,8.24l-4.24,2.51c-1.18-2.32-2.67-4.15-4.47-5.51-1.8-1.36-3.71-2.33-5.74-2.92-2.03-.59-4.04-.89-6.05-.89-3.29,0-6.19.63-8.71,1.89-2.52,1.26-4.64,2.93-6.36,5.03-1.72,2.1-3.02,4.44-3.89,7.02-.87,2.59-1.31,5.21-1.31,7.87,0,2.91.51,5.69,1.54,8.35,1.03,2.66,2.47,5.02,4.31,7.06,1.85,2.05,4.02,3.67,6.51,4.88,2.49,1.21,5.2,1.81,8.13,1.81,2.05,0,4.16-.34,6.32-1.04,2.16-.69,4.17-1.75,6.05-3.18,1.87-1.43,3.38-3.28,4.51-5.55l4.47,2.22c-1.13,2.61-2.88,4.83-5.24,6.65-2.36,1.82-5,3.21-7.9,4.14-2.9.94-5.74,1.41-8.51,1.41-3.75,0-7.19-.78-10.33-2.33-3.13-1.55-5.84-3.62-8.13-6.21-2.29-2.59-4.05-5.49-5.28-8.72-1.23-3.23-1.85-6.49-1.85-9.8Z"/><path class="cls-1" d="m345.33,106.49v56.78l-5.32-4.28v-24.55h-32.44v24.55h-5.39v-52.5h5.39v23.36h32.44v-23.36h5.32Z"/><polygon class="cls-1" points="198.08 106.49 148.06 106.49 152.34 111.08 170.39 111.08 170.39 158.99 175.79 158.99 175.79 111.08 193.8 111.08 198.08 106.49"/><polygon class="cls-1" points="208.85 134.37 235.59 134.37 235.59 130 208.85 130 208.85 111.08 240.27 111.08 240.27 106.49 203.45 106.49 203.45 158.99 240.21 158.99 240.21 154.4 208.85 154.4 208.85 134.37"/></g></g></svg>