<?xml version="1.0" encoding="utf-8"?>
<!-- Generator: Adobe Illustrator 19.2.1, SVG Export Plug-In . SVG Version: 6.00 Build 0)  -->
<svg version="1.1" id="layer" xmlns="http://www.w3.org/2000/svg" xmlns:xlink="http://www.w3.org/1999/xlink" x="0px" y="0px"
	 viewBox="0 0 652 652" style="enable-background:new 0 0 652 652;" xml:space="preserve">
<style type="text/css">
	.st0{fill:none;stroke:#001489;stroke-width:0.9988;}
	.st1{fill:#001489;}
	.st2{fill:none;stroke:#FFFFFF;stroke-width:0.4994;}
	.st3{fill:none;stroke:#001489;stroke-width:1.9913;}
	.st4{fill:none;stroke:#001489;stroke-width:0.4994;}
</style>
<line class="st0" x1="482.1" y1="246.9" x2="482.1" y2="252.3"/>
<line class="st0" x1="485.5" y1="252.4" x2="485.5" y2="246.9"/>
<path class="st1" d="M29.9,368.5c-3-4.5-4.2-24.5-4-35.2l10.6-1.6c2.7,10.3,10.6,35.8,30.9,35.8c15.7,0,16.1-14.8,15.3-20.6
	C81,334.9,61.9,325.7,51.8,321l-12.3-8.6c-10.9-9-14.4-15.1-12.9-30.5c2.7-27.9,37.2-29.2,43.5-28.9c10.7,0.6,23.2,2.7,32.5,8.3
	c0.6,0.4,2.3,20.8,2.3,28.9l-9.7,0.1c-3.1-9-7.9-29.3-23.5-28.7c-13.2,0.6-16.9,6.1-16.9,15.3c0,7.2,6,13.6,17.9,20.2l12.7,6.9
	c10.6,6.4,25.5,18.2,25.5,35.6c0,19.7-10.9,33.7-40.8,34.8C53.1,375.1,30.6,369.5,29.9,368.5"/>
<path class="st2" d="M29.9,368.5c-3-4.5-4.2-24.5-4-35.2l10.6-1.6c2.7,10.3,10.6,35.8,30.9,35.8c15.7,0,16.1-14.8,15.3-20.6
	C81,334.9,61.9,325.7,51.8,321l-12.3-8.6c-10.9-9-14.4-15.1-12.9-30.5c2.7-27.9,37.2-29.2,43.5-28.9c10.7,0.6,23.2,2.7,32.5,8.3
	c0.6,0.4,2.3,20.8,2.3,28.9l-9.7,0.1c-3.1-9-7.9-29.3-23.5-28.7c-13.2,0.6-16.9,6.1-16.9,15.3c0,7.2,6,13.6,17.9,20.2l12.7,6.9
	c10.6,6.4,25.5,18.2,25.5,35.6c0,19.7-10.9,33.7-40.8,34.8C53.1,375.1,30.6,369.5,29.9,368.5z"/>
<path class="st1" d="M212.4,348.9c0,0-0.7,10.9,4,12.3c2.9,0.8,7,2,7,2c1.7,1,1,4.3-2,5.3c-1,0.3-14.6,3.7-29.2,7.3
	c-1,0.3-5.7-8.3-7-8.3c-8.9,4.9-15.6,7.3-26.2,7.3c-19,0-28.5-10.2-28.5-26.5l-0.7-25.5c0-13.8,1.6-19.7-3.7-21.2l-5.3-0.7l-0.7-5
	l39.2-7l-0.3,54.1c-0.3,13.9,9.1,18.2,13.4,18.9c6.4,1,10.5-0.3,10.5-0.3c2.1-2,1.3-45.8,1.3-45.8c0-12.6-1-14.6-4.7-14.9h-5.3
	l-0.3-5c0,0,38.6-7.3,38.8-6.3c-0.4,3.7,0,15.6,0,22.9L212.4,348.9z"/>
<path class="st2" d="M212.4,348.9c0,0-0.7,10.9,4,12.3c2.9,0.8,7,2,7,2c1.7,1,1,4.3-2,5.3c-1,0.3-14.6,3.7-29.2,7.3
	c-1,0.3-5.7-8.3-7-8.3c-8.9,4.9-15.6,7.3-26.2,7.3c-19,0-28.5-10.2-28.5-26.5l-0.7-25.5c0-13.8,1.6-19.7-3.7-21.2l-5.3-0.7l-0.7-5
	l39.2-7l-0.3,54.1c-0.3,13.9,9.1,18.2,13.4,18.9c6.4,1,10.5-0.3,10.5-0.3c2.1-2,1.3-45.8,1.3-45.8c0-12.6-1-14.6-4.7-14.9h-5.3
	l-0.3-5c0,0,38.6-7.3,38.8-6.3c-0.4,3.7,0,15.6,0,22.9L212.4,348.9z"/>
<path class="st1" d="M333.2,299.4c0,0-0.2,0.8-0.2,6v44.7c0,13.4-0.1,15.4,6.2,16.1l7.1,0.7l-0.4,5.3l-51.1,0l0.1-5.2l3.9-0.5
	c7.1-0.9,5.5-7.6,5.5-21l0.1-46.2l-11.7-1.2v-4.5l11.7-1.5c0,0,0.7-12.9,3.7-22.1c4.7-14.3,18.3-27.6,37.3-27.4
	c12.5,0.2,24.6,3.2,24.6,7c0,6.5-8.1,14.2-10.1,14.8c0,0-5.6-4.3-7.1-5.3c-6-4.2-11.2-7.6-15.3-7c-4.6,0.7-4.6,6.7-4.6,28.2v11.9
	l21,0.9l-0.1,4.9L333.2,299.4z"/>
<path class="st2" d="M333.2,299.4c0,0-0.2,0.8-0.2,6v44.7c0,13.4-0.1,15.4,6.2,16.1l7.1,0.7l-0.4,5.3l-51.1,0l0.1-5.2l3.9-0.5
	c7.1-0.9,5.5-7.6,5.5-21l0.1-46.2l-11.7-1.2v-4.5l11.7-1.5c0,0,0.7-12.9,3.7-22.1c4.7-14.3,18.3-27.6,37.3-27.4
	c12.5,0.2,24.6,3.2,24.6,7c0,6.5-8.1,14.2-10.1,14.8c0,0-5.6-4.3-7.1-5.3c-6-4.2-11.2-7.6-15.3-7c-4.6,0.7-4.6,6.7-4.6,28.2v11.9
	l21,0.9l-0.1,4.9L333.2,299.4z"/>
<path class="st1" d="M390,330c0-17.4,3.2-33.5,15.2-33.5c13.7,0,15.7,22.3,15.7,37.6c0,15.8-1.7,32.6-14.1,32.6
	C393.2,366.7,390,348.7,390,330 M405.9,288.3c-25.7,0-48,17.2-48,44.7c0,26.9,21,41.9,46.3,41.9c26.1,0,48-15.2,48-44.3
	C452.2,303.9,430.7,288.3,405.9,288.3"/>
<path class="st3" d="M390,330c0-17.4,3.2-33.5,15.2-33.5c13.7,0,15.7,22.3,15.7,37.6c0,15.8-1.7,32.6-14.1,32.6
	C393.2,366.7,390,348.7,390,330z M405.9,288.3c-25.7,0-48,17.2-48,44.7c0,26.9,21,41.9,46.3,41.9c26.1,0,48-15.2,48-44.3
	C452.2,303.9,430.7,288.3,405.9,288.3z"/>
<path class="st1" d="M558.4,244.1l0,81.4h6.5c0,0,3.5-2.5,9.1-8.4l8.1-9.6c1.1-1.4,2.3-3.8,1.8-6.1c-0.5-1.9-2-3.7-7.2-4.2l-3.5-0.2
	v-5.4l43.2-0.1v4.7l-5.8,1.2c-10.6,2.6-21.3,16.9-24.5,20v2.4l17.8,30.9c4.4,7,9,15.4,16.4,16.7l0,4.7c-6.6-0.4-14.6,0-22.8,0
	c-10.8,0-16.4-6.2-18.7-11.4l-12.2-22.2c-3.4-6.4-7.8-6.4-8-4.5c0,0,0.1,3.5,0.1,8.3v8c-0.1,12.6,0.2,15.6,7.1,16.5l2.5,0.4l0.1,4.8
	c-8.4-0.4-19,0-26.4,0c-6.4,0-22.1,0-22.1,0l0.1-5.1l4.4-0.5c6.8-0.9,6-9.1,5.9-15.9v-77.7c0-12.1-0.6-16.4-3.7-17.1l-6.5,0.1
	l-0.4-5.3C525.4,248.8,553.8,244,558.4,244.1"/>
<path class="st2" d="M558.4,244.1l0,81.4h6.5c0,0,3.5-2.5,9.1-8.4l8.1-9.6c1.1-1.4,2.3-3.8,1.8-6.1c-0.5-1.9-2-3.7-7.2-4.2l-3.5-0.2
	v-5.4l43.2-0.1v4.7l-5.8,1.2c-10.6,2.6-21.3,16.9-24.5,20v2.4l17.8,30.9c4.4,7,9,15.4,16.4,16.7l0,4.7c-6.6-0.4-14.6,0-22.8,0
	c-10.8,0-16.4-6.2-18.7-11.4l-12.2-22.2c-3.4-6.4-7.8-6.4-8-4.5c0,0,0.1,3.5,0.1,8.3v8c-0.1,12.6,0.2,15.6,7.1,16.5l2.5,0.4l0.1,4.8
	c-8.4-0.4-19,0-26.4,0c-6.4,0-22.1,0-22.1,0l0.1-5.1l4.4-0.5c6.8-0.9,6-9.1,5.9-15.9v-77.7c0-12.1-0.6-16.4-3.7-17.1l-6.5,0.1
	l-0.4-5.3C525.4,248.8,553.8,244,558.4,244.1z"/>
<path class="st1" d="M270.5,299.4c0,0-0.3,0.8-0.3,6v44.7c0,13.4-0.1,15.4,6.2,16.1l7.1,0.7l-0.4,5.3l-51.2,0l0.1-5.2l3.9-0.5
	c7.1-0.9,5.5-7.6,5.5-21l0.1-46.2l-11.7-1.2v-4.5l11.7-1.5c0,0,0.6-12.9,3.7-22.1c4.7-14.3,18.3-27.6,37.3-27.4
	c12.5,0.2,24.6,3.2,24.6,7c0,6.5-8.1,14.2-10.1,14.8c0,0-5.6-4.3-7.1-5.3c-6-4.2-11.2-7.6-15.3-7c-4.6,0.7-4.6,6.7-4.6,28.2v11.9
	l21,0.9l-0.1,4.9L270.5,299.4z"/>
<path class="st2" d="M270.5,299.4c0,0-0.3,0.8-0.3,6v44.7c0,13.4-0.1,15.4,6.2,16.1l7.1,0.7l-0.4,5.3l-51.2,0l0.1-5.2l3.9-0.5
	c7.1-0.9,5.5-7.6,5.5-21l0.1-46.2l-11.7-1.2v-4.5l11.7-1.5c0,0,0.6-12.9,3.7-22.1c4.7-14.3,18.3-27.6,37.3-27.4
	c12.5,0.2,24.6,3.2,24.6,7c0,6.5-8.1,14.2-10.1,14.8c0,0-5.6-4.3-7.1-5.3c-6-4.2-11.2-7.6-15.3-7c-4.6,0.7-4.6,6.7-4.6,28.2v11.9
	l21,0.9l-0.1,4.9L270.5,299.4z"/>
<path class="st1" d="M463.9,270.4h8.1l2.5-1.2h18.8l2.2,1.2h8v1.1c-2,0.6-7,1.8-7,6l5.5,91.3c-5.2,2.3-24.1,6-36.8-0.5l6-90.9
	c0-1.1-0.2-3.3-2.2-4.3c-2-1-5-1.7-5-1.7L463.9,270.4z M498.9,332.1l-1.3-24.6c-5.2,1.2-5.5,1.7-13.9,1.6
	c-7.5,0.1-12.1-1.1-13.5-1.6l-1.6,24.5C474.5,334.7,494,334.5,498.9,332.1"/>
<path class="st4" d="M463.9,270.4h8.1l2.5-1.2h18.8l2.2,1.2h8v1.1c-2,0.6-7,1.8-7,6l5.5,91.3c-5.2,2.3-24.1,6-36.8-0.5l6-90.9
	c0-1.1-0.2-3.3-2.2-4.3c-2-1-5-1.7-5-1.7L463.9,270.4z M498.9,332.1l-1.3-24.6c-5.2,1.2-5.5,1.7-13.9,1.6
	c-7.5,0.1-12.1-1.1-13.5-1.6l-1.6,24.5C474.5,334.7,494,334.5,498.9,332.1z"/>
<line class="st0" x1="483.7" y1="309.2" x2="483.7" y2="333.9"/>
<line class="st0" x1="476.3" y1="309" x2="475.4" y2="333.5"/>
<line class="st0" x1="491.1" y1="308.7" x2="492.2" y2="333.5"/>
<rect x="474.6" y="263.4" class="st0" width="18.7" height="5.8"/>
<rect x="474.6" y="247" class="st0" width="18.7" height="16.3"/>
<path class="st1" d="M493.3,247h-18.7v-1.4c0-5.2,4.3-9.3,9.5-9.3c5.2,0,9.2,4.2,9.2,9.3V247z"/>
<path class="st0" d="M493.3,247h-18.7v-1.4c0-5.2,4.3-9.3,9.5-9.3c5.2,0,9.2,4.2,9.2,9.3V247z"/>
<path class="st1" d="M482.2,236.4v-1.6c0-1,0.8-1.8,1.8-1.8c1,0,1.8,0.8,1.8,1.8v1.6H482.2z"/>
<line class="st0" x1="482.1" y1="260.3" x2="482.1" y2="263.2"/>
<line class="st0" x1="485.5" y1="263.3" x2="485.5" y2="260.4"/>
<path class="st0" d="M479.4,256.2c0-2.3,1.9-4.2,4.2-4.2c2.3,0,4.2,1.9,4.2,4.2c0,2.3-1.9,4.2-4.2,4.2
	C481.3,260.4,479.4,258.5,479.4,256.2z"/>
<rect x="487.7" y="255.6" class="st1" width="6.7" height="2.3"/>
<polyline class="st0" points="91.8,367.8 474.6,257.5 35.1,340.9 "/>
<line class="st0" x1="75.9" y1="302.6" x2="474.6" y2="256.1"/>
<line class="st0" x1="47" y1="281.7" x2="474.5" y2="255.6"/>
<line class="st3" x1="25.1" y1="382.5" x2="624.5" y2="382.5"/>
<line class="st3" x1="25.1" y1="417" x2="624.5" y2="417"/>
<path class="st1" d="M42.6,395.6c-0.2,0.2-0.7,0.3-0.9,0.1c-0.5-1.8-1.7-4.1-5.4-4.1c-3.5,0-7.1,2.5-7.1,8.2c0,5.9,3.7,8.8,7.3,8.8
	c3.5,0,5-2.3,5.8-4.1c0.3-0.3,0.7-0.2,0.8,0.1c-0.2,1.9-0.9,3.7-1.3,4.2c-0.3,0.1-0.7,0.2-1,0.2c-0.6,0.2-2.5,0.7-4.4,0.7
	c-2.8,0-5.1-0.5-7.1-1.9c-2.3-1.5-4-4-4-7.7c0-3.3,1.4-5.8,3.5-7.4c2.1-1.6,4.9-2.4,7.7-2.4c1.6,0,3.5,0.3,4.8,0.6
	c0.3,0.1,0.5,0.1,0.8,0.2C42.3,391.9,42.3,393.5,42.6,395.6"/>
<path class="st1" d="M61.3,391.6c4.4,0,6.3,4.9,6.3,9.1c0,5.6-2.6,8-5.7,8c-4.8,0-6.4-5.2-6.4-9.1C55.5,393.6,58.6,391.6,61.3,391.6
	 M61.7,390.5c-5.8,0-10,4.2-10,9.9c0,5,3.6,9.4,9.9,9.4c5.6,0,9.8-4.1,9.8-9.6C71.5,395.1,68.1,390.5,61.7,390.5"/>
<path class="st1" d="M82.7,394.9c0-3-0.2-3-1.6-3.2l-0.5-0.1c-0.2-0.2-0.2-0.7,0.1-0.8c1.1,0,2.4,0.1,3.6,0.1c1.3,0,2.5,0,3.7-0.1
	c0.2,0.1,0.2,0.6,0.1,0.8l-0.6,0.1c-1.3,0.2-1.6,0.3-1.6,3.2v6.4c0,3.9,1.2,7.1,5.1,7.1c3.6,0,5.2-2.8,5.2-7v-3.5
	c0-2.1,0-4.7-0.5-5.5c-0.3-0.4-0.7-0.6-1.4-0.7l-0.6-0.1c-0.2-0.2-0.2-0.7,0.1-0.8c1,0,2,0.1,3.1,0.1c1.2,0,1.9,0,3-0.1
	c0.2,0.1,0.3,0.6,0,0.8l-0.6,0.1c-0.5,0.1-1,0.2-1.2,0.7c-0.4,0.8-0.4,3.3-0.4,5.5v3.3c0,2.5-0.4,4.9-1.8,6.4
	c-1.5,1.6-3.6,2.1-5.5,2.1c-2.6,0-4.5-0.5-5.7-1.8c-1.3-1.2-1.8-3.1-1.8-6V394.9z"/>
<path class="st1" d="M126,404.6c0,0.8,0,4.3,0.1,4.9c-0.2,0.3-0.6,0.4-0.9,0.4c-0.4-0.6-1.3-1.5-3.3-3.8l-6.5-7.5
	c-1.8-2-2.7-3.1-3.2-3.5c-0.1,0-0.1,0.3-0.1,1.8v5.4c0,2.1,0,4.7,0.5,5.5c0.2,0.4,0.7,0.6,1.4,0.7l0.6,0.1c0.2,0.2,0.2,0.7-0.1,0.8
	c-1,0-2.1-0.1-3.2-0.1c-1.2,0-1.9,0-2.9,0.1c-0.2-0.1-0.3-0.6-0.1-0.8l0.6-0.1c0.5-0.1,1-0.2,1.2-0.6c0.4-0.9,0.4-3.3,0.4-5.5v-6.6
	c0-2.2,0-2.6-0.9-3.4c-0.3-0.3-1.1-0.5-1.5-0.6l-0.4-0.1c-0.2-0.2-0.2-0.7,0.1-0.8c1.1,0.1,2.6,0.1,3.3,0.1c0.6,0,1.3,0,1.9-0.1
	c0.5,1.2,3.5,4.7,4.5,5.8l2.8,3c1.2,1.3,3.8,4.3,4,4.4c0.1-0.1,0.1-0.2,0.1-0.7v-5.4c0-2.1,0-4.7-0.5-5.5c-0.3-0.4-0.7-0.6-1.4-0.7
	l-0.6-0.1c-0.3-0.2-0.2-0.7,0.1-0.8c1.1,0,2.1,0.1,3.2,0.1c1.2,0,1.9,0,2.9-0.1c0.2,0.1,0.3,0.6,0,0.8l-0.6,0.1
	c-0.5,0.1-1,0.2-1.2,0.6c-0.4,0.9-0.4,3.3-0.4,5.5V404.6z"/>
<path class="st1" d="M144,393.2c0-1.2,0-1.2-0.7-1.2h-1.6c-2.6,0-3.3,0.3-4.3,2.6c-0.2,0.2-0.8,0.1-0.9-0.2c0.5-1.5,0.9-3.2,1.1-4.2
	c0-0.1,0.2-0.1,0.3-0.1c0.1,0,0.2,0,0.3,0.1c0.1,0.7,0.5,0.7,2.4,0.7h11.4c1.4,0,1.8-0.1,2.1-0.7c0.1-0.1,0.2-0.1,0.3-0.1
	c0.2,0,0.3,0.1,0.4,0.1c-0.3,1.1-0.5,3.5-0.4,4.4c-0.1,0.2-0.6,0.3-0.9,0.1c-0.4-2.2-0.9-2.7-3.9-2.7H148c-0.7,0-0.7,0.1-0.7,1.2v12
	c0,2.9,0.2,3,1.6,3.2l1,0.1c0.2,0.2,0.2,0.7,0,0.8c-1.6-0.1-2.9-0.1-4.1-0.1c-1.2,0-2.5,0-4.3,0.1c-0.2-0.1-0.2-0.7,0-0.8l1.2-0.1
	c1.3-0.1,1.6-0.2,1.6-3.1V393.2z"/>
<path class="st1" d="M169.1,403.6c0-1.6-0.1-2-0.9-3.5l-3.4-6.6c-0.6-1.2-0.8-1.5-2.1-1.8l-0.7-0.2c-0.2-0.2-0.1-0.7,0.1-0.8
	c1.2,0,2.4,0.1,3.5,0.1c1.2,0,2.9,0,3.6-0.1c0.2,0.1,0.3,0.6,0,0.8l-0.8,0.1c-0.4,0.1-0.6,0.1-0.6,0.4c0,0.2,0.1,0.5,0.5,1.5
	c1.1,2.4,2.1,4.7,3.2,6.7c1.1-2.1,2.2-4.1,3.3-6.2c0.5-1,0.8-1.6,0.8-1.9s-0.2-0.4-0.6-0.4l-0.8-0.2c-0.2-0.2-0.2-0.7,0.1-0.8
	c1.2,0,2.1,0.1,2.9,0.1c0.9,0,1.8,0,2.6-0.1c0.3,0.1,0.3,0.6,0.1,0.8l-0.8,0.2c-1.2,0.2-1.6,0.7-3,3.2c-0.9,1.6-1.8,3.1-2.6,4.7
	c-0.8,1.4-1,2-1,3.9v1.7c0,2.9,0.3,3,1.6,3.2l1.1,0.1c0.2,0.2,0.2,0.7,0,0.8c-1.7-0.1-3-0.1-4.2-0.1c-1.3,0-2.5,0-4,0.1
	c-0.2-0.1-0.2-0.6,0-0.8l0.9-0.1c1.3-0.1,1.6-0.2,1.6-3.2V403.6z"/>
<path class="st1" d="M218.2,395.6c-0.2,0.2-0.7,0.3-0.9,0.1c-0.5-1.8-1.7-4.1-5.4-4.1c-3.5,0-7.1,2.5-7.1,8.2c0,5.9,3.7,8.8,7.3,8.8
	c3.5,0,5-2.3,5.8-4.1c0.2-0.3,0.7-0.2,0.8,0.1c-0.2,1.9-0.9,3.7-1.3,4.2c-0.3,0.1-0.7,0.2-1,0.2c-0.6,0.2-2.5,0.7-4.3,0.7
	c-2.8,0-5.1-0.5-7.1-1.9c-2.3-1.5-4-4-4-7.7c0-3.3,1.4-5.8,3.5-7.4c2.1-1.6,4.9-2.4,7.7-2.4c1.6,0,3.5,0.3,4.8,0.6
	c0.3,0.1,0.5,0.1,0.8,0.2C217.9,391.9,217.9,393.5,218.2,395.6"/>
<path class="st1" d="M236.9,391.6c4.4,0,6.3,4.9,6.3,9.1c0,5.6-2.6,8-5.8,8c-4.8,0-6.4-5.2-6.4-9.1
	C231.1,393.6,234.1,391.6,236.9,391.6 M237.3,390.5c-5.9,0-10,4.2-10,9.9c0,5,3.6,9.4,9.9,9.4c5.6,0,9.8-4.1,9.8-9.6
	C247,395.1,243.7,390.5,237.3,390.5"/>
<path class="st1" d="M279.6,408.6c0.3,0.1,0.2,0.7,0,0.8c-1.2-0.1-2.3-0.1-3.4-0.1c-1.3,0-2.5,0-3.7,0.1c-0.2-0.1-0.3-0.6-0.1-0.8
	l0.8-0.1c1.1-0.2,1.2-0.4,1.2-2.3v-8.8v-2.6h0c-0.7,1.5-1.1,2.4-1.7,3.5l-2.4,4.9c-0.9,1.9-2.3,5-2.9,6.3c-0.1,0.1-0.5,0.1-0.7,0
	c-0.5-1.5-1.7-4.2-2.3-5.6l-2.5-5.4c-0.5-1.2-1.3-2.9-1.6-3.8h-0.1c0,1.4-0.1,3.5-0.2,4.7c-0.1,1.7-0.1,4.2-0.1,6.5
	c0,1.9,0,2.3,1.2,2.5l0.9,0.2c0.2,0.2,0.2,0.7,0,0.8c-1-0.1-1.9-0.1-2.9-0.1c-0.9,0-1.9,0-3,0.1c-0.3-0.1-0.3-0.7-0.1-0.8l0.5-0.1
	c1.3-0.2,1.6-0.6,1.7-2.3c0.2-1.8,0.3-3.6,0.4-6.5c0.1-1.9,0.3-4.2,0.3-5.9c0-1.3-0.4-1.9-1.5-2.1l-0.9-0.2
	c-0.2-0.2-0.1-0.7,0.1-0.8c0.8,0,1.6,0.1,2.6,0.1c1,0,2,0,3-0.1c0.1,1.7,0.8,3.1,1.5,4.6l3.1,6.4c0.2,0.5,1,1.9,1.3,2.5
	c0.4-0.8,0.8-1.6,1.4-2.9l2.6-5.3c0.9-1.8,1.8-3.5,2.3-5.3c0.7,0,1.7,0.1,2.3,0.1c1.2,0,2.1,0,2.9-0.1c0.3,0.1,0.4,0.6,0.1,0.8
	l-0.9,0.1c-1.2,0.2-1.5,0.6-1.5,2.1c0,4.1,0.1,8.3,0.2,12.4c0.1,1.9,0.4,2.1,1.3,2.2L279.6,408.6z"/>
<path class="st1" d="M312.3,408.6c0.3,0.1,0.3,0.7-0.1,0.8c-1.2-0.1-2.3-0.1-3.4-0.1c-1.3,0-2.5,0-3.7,0.1c-0.2-0.1-0.3-0.6-0.1-0.8
	l0.8-0.1c1.1-0.2,1.2-0.4,1.2-2.3v-8.8v-2.6h0c-0.8,1.5-1.1,2.4-1.7,3.5l-2.4,4.9c-1,1.9-2.3,5-2.9,6.3c-0.1,0.1-0.5,0.1-0.7,0
	c-0.5-1.5-1.7-4.2-2.3-5.6l-2.5-5.4c-0.5-1.2-1.3-2.9-1.6-3.8h-0.1c0,1.4-0.1,3.5-0.2,4.7c-0.1,1.7-0.1,4.2-0.1,6.5
	c0,1.9,0,2.3,1.2,2.5l0.9,0.2c0.2,0.2,0.2,0.7,0,0.8c-1-0.1-1.9-0.1-2.9-0.1c-0.9,0-1.9,0-3,0.1c-0.2-0.1-0.2-0.7-0.1-0.8l0.5-0.1
	c1.3-0.2,1.6-0.6,1.7-2.3c0.2-1.8,0.3-3.6,0.4-6.5c0.1-1.9,0.3-4.2,0.3-5.9c0-1.3-0.4-1.9-1.5-2.1l-0.9-0.2
	c-0.2-0.2-0.2-0.7,0.1-0.8c0.8,0,1.6,0.1,2.6,0.1c1,0,1.9,0,3-0.1c0.1,1.7,0.8,3.1,1.5,4.6l3.1,6.4c0.2,0.5,0.9,1.9,1.3,2.5
	c0.5-0.8,0.9-1.6,1.5-2.9l2.6-5.3c0.9-1.8,1.8-3.5,2.2-5.3c0.8,0,1.7,0.1,2.3,0.1c1.2,0,2.1,0,2.9-0.1c0.3,0.1,0.4,0.6,0.1,0.8
	l-0.9,0.1c-1.2,0.2-1.5,0.6-1.5,2.1c0,4.1,0.1,8.3,0.2,12.4c0.1,1.9,0.4,2.1,1.3,2.2L312.3,408.6z"/>
<path class="st1" d="M323.6,394.9c0-3-0.2-3-1.6-3.2l-0.5-0.1c-0.2-0.2-0.2-0.7,0.1-0.8c1.1,0,2.4,0.1,3.6,0.1c1.3,0,2.5,0,3.7-0.1
	c0.2,0.1,0.3,0.6,0.1,0.8l-0.6,0.1c-1.3,0.2-1.6,0.3-1.6,3.2v6.4c0,3.9,1.2,7.1,5.1,7.1c3.6,0,5.2-2.8,5.2-7v-3.5
	c0-2.1,0-4.7-0.5-5.5c-0.3-0.4-0.7-0.6-1.4-0.7l-0.5-0.1c-0.3-0.2-0.2-0.7,0-0.8c0.9,0,2,0.1,3.1,0.1c1.2,0,1.9,0,3-0.1
	c0.2,0.1,0.3,0.6,0.1,0.8l-0.6,0.1c-0.5,0.1-1,0.2-1.2,0.7c-0.4,0.8-0.4,3.3-0.4,5.5v3.3c0,2.5-0.4,4.9-1.8,6.4
	c-1.4,1.6-3.5,2.1-5.5,2.1c-2.6,0-4.5-0.5-5.7-1.8c-1.3-1.2-1.8-3.1-1.8-6V394.9z"/>
<path class="st1" d="M366.8,404.6c0,0.8,0,4.3,0.1,4.9c-0.2,0.3-0.6,0.4-1,0.4c-0.4-0.6-1.3-1.5-3.3-3.8l-6.5-7.5
	c-1.8-2-2.7-3.1-3.2-3.5c-0.1,0-0.1,0.3-0.1,1.8v5.4c0,2.1,0,4.7,0.5,5.5c0.2,0.4,0.7,0.6,1.4,0.7l0.6,0.1c0.3,0.2,0.2,0.7-0.1,0.8
	c-1,0-2.1-0.1-3.2-0.1c-1.2,0-1.9,0-2.9,0.1c-0.2-0.1-0.3-0.6-0.1-0.8l0.6-0.1c0.5-0.1,1-0.2,1.2-0.6c0.4-0.9,0.4-3.3,0.4-5.5v-6.6
	c0-2.2,0-2.6-0.9-3.4c-0.3-0.3-1.1-0.5-1.5-0.6l-0.4-0.1c-0.2-0.2-0.2-0.7,0.1-0.8c1.1,0.1,2.6,0.1,3.3,0.1c0.6,0,1.2,0,1.9-0.1
	c0.5,1.2,3.5,4.7,4.5,5.8l2.8,3c1.2,1.3,3.8,4.3,4,4.4c0.1-0.1,0.1-0.2,0.1-0.7v-5.4c0-2.1,0-4.7-0.5-5.5c-0.2-0.4-0.7-0.6-1.4-0.7
	l-0.6-0.1c-0.3-0.2-0.2-0.7,0.1-0.8c1.1,0,2.1,0.1,3.2,0.1c1.2,0,1.9,0,2.9-0.1c0.2,0.1,0.3,0.6,0.1,0.8l-0.6,0.1
	c-0.5,0.1-1,0.2-1.2,0.6c-0.4,0.9-0.4,3.3-0.4,5.5V404.6z"/>
<path class="st1" d="M383.5,405.3c0,2.9,0.3,3,1.6,3.2l0.6,0.1c0.2,0.2,0.2,0.7-0.1,0.8c-1.2,0-2.5-0.1-3.7-0.1
	c-1.2,0-2.5,0-3.8,0.1c-0.2-0.1-0.3-0.6-0.1-0.8l0.6-0.1c1.3-0.2,1.6-0.3,1.6-3.2v-10.4c0-3-0.2-3-1.6-3.2l-0.6-0.1
	c-0.2-0.2-0.2-0.7,0.1-0.8c1.2,0,2.5,0.1,3.8,0.1c1.2,0,2.5,0,3.7-0.1c0.2,0.1,0.2,0.6,0.1,0.8l-0.6,0.1c-1.3,0.2-1.6,0.2-1.6,3.2
	V405.3z"/>
<path class="st1" d="M401.7,393.2c0-1.2,0-1.2-0.8-1.2h-1.6c-2.6,0-3.3,0.3-4.3,2.6c-0.2,0.2-0.8,0.1-0.9-0.2
	c0.5-1.5,0.9-3.2,1.1-4.2c0.1-0.1,0.2-0.1,0.3-0.1c0.1,0,0.2,0,0.3,0.1c0.1,0.7,0.5,0.7,2.4,0.7h11.4c1.4,0,1.8-0.1,2.1-0.7
	c0.1-0.1,0.2-0.1,0.3-0.1c0.2,0,0.3,0.1,0.4,0.1c-0.3,1.1-0.5,3.5-0.4,4.4c-0.1,0.2-0.6,0.3-0.9,0.1c-0.4-2.2-0.9-2.7-3.9-2.7h-1.6
	c-0.7,0-0.8,0.1-0.8,1.2v12c0,2.9,0.2,3,1.6,3.2l1,0.1c0.2,0.2,0.2,0.7-0.1,0.8c-1.6-0.1-2.9-0.1-4.1-0.1c-1.2,0-2.5,0-4.3,0.1
	c-0.2-0.1-0.2-0.7,0-0.8l1.2-0.1c1.3-0.1,1.6-0.2,1.6-3.1V393.2z"/>
<path class="st1" d="M426.8,403.6c0-1.6-0.1-2-0.9-3.5l-3.4-6.6c-0.6-1.2-0.8-1.5-2.1-1.8l-0.7-0.2c-0.2-0.2-0.1-0.7,0.1-0.8
	c1.2,0,2.4,0.1,3.5,0.1c1.2,0,2.9,0,3.6-0.1c0.2,0.1,0.3,0.6,0.1,0.8l-0.8,0.1c-0.4,0.1-0.6,0.1-0.6,0.4c0,0.2,0.1,0.5,0.5,1.5
	c1.1,2.4,2.1,4.7,3.2,6.7c1.2-2.1,2.2-4.1,3.3-6.2c0.5-1,0.8-1.6,0.8-1.9s-0.3-0.4-0.6-0.4l-0.8-0.2c-0.2-0.2-0.2-0.7,0.1-0.8
	c1.2,0,2.1,0.1,2.9,0.1c0.9,0,1.8,0,2.6-0.1c0.3,0.1,0.3,0.6,0.1,0.8l-0.8,0.2c-1.2,0.2-1.6,0.7-3,3.2c-0.9,1.6-1.8,3.1-2.6,4.7
	c-0.8,1.4-1,2-1,3.9v1.7c0,2.9,0.2,3,1.6,3.2l1.1,0.1c0.2,0.2,0.2,0.7-0.1,0.8c-1.7-0.1-3-0.1-4.2-0.1c-1.3,0-2.5,0-4.1,0.1
	c-0.2-0.1-0.2-0.6,0-0.8l0.9-0.1c1.3-0.1,1.6-0.2,1.6-3.2V403.6z"/>
<path class="st1" d="M475.9,395.6c-0.2,0.2-0.7,0.3-0.9,0.1c-0.5-1.8-1.7-4.1-5.4-4.1c-3.5,0-7.1,2.5-7.1,8.2c0,5.9,3.7,8.8,7.3,8.8
	c3.5,0,5.1-2.3,5.8-4.1c0.2-0.3,0.7-0.2,0.8,0.1c-0.2,1.9-0.9,3.7-1.3,4.2c-0.3,0.1-0.7,0.2-1,0.2c-0.6,0.2-2.5,0.7-4.4,0.7
	c-2.8,0-5.1-0.5-7.1-1.9c-2.3-1.5-4-4-4-7.7c0-3.3,1.4-5.8,3.5-7.4c2.1-1.6,4.9-2.4,7.7-2.4c1.6,0,3.5,0.3,4.8,0.6
	c0.3,0.1,0.5,0.1,0.8,0.2C475.6,391.9,475.7,393.5,475.9,395.6"/>
<path class="st1" d="M494.6,391.6c4.4,0,6.3,4.9,6.3,9.1c0,5.6-2.6,8-5.7,8c-4.8,0-6.4-5.2-6.4-9.1
	C488.8,393.6,491.9,391.6,494.6,391.6 M495,390.5c-5.9,0-10,4.2-10,9.9c0,5,3.6,9.4,9.9,9.4c5.6,0,9.8-4.1,9.8-9.6
	C504.8,395.1,501.5,390.5,495,390.5"/>
<path class="st1" d="M519.5,404.7c0,1.4,0,2.4,0.5,2.9c0.3,0.4,0.8,0.6,3,0.6c3.1,0,3.5-0.2,4.8-3c0.3-0.1,0.7-0.1,0.9,0.2
	c-0.2,1.2-0.8,3.3-1.2,4c-1.2-0.1-3.6-0.1-6.7-0.1h-2.9c-1.4,0-2.8,0-4,0.1c-0.2-0.1-0.3-0.7-0.1-0.8l0.8-0.1
	c1.3-0.2,1.6-0.2,1.6-3.1v-10.4c0-2.9-0.2-3-1.6-3.2l-0.8-0.1c-0.2-0.1-0.2-0.7,0-0.8c1.4,0,2.7,0.1,3.9,0.1c1.2,0,2.5,0,3.7-0.1
	c0.2,0.1,0.3,0.7,0.1,0.8l-0.6,0.1c-1.3,0.2-1.6,0.3-1.6,3.2V404.7z"/>
<path class="st1" d="M542.1,404.7c0,1.4,0,2.4,0.5,2.9c0.3,0.4,0.8,0.6,3,0.6c3.1,0,3.5-0.2,4.8-3c0.3-0.1,0.7-0.1,0.9,0.2
	c-0.2,1.2-0.8,3.3-1.2,4c-1.2-0.1-3.6-0.1-6.7-0.1h-2.9c-1.4,0-2.8,0-4,0.1c-0.2-0.1-0.3-0.7,0-0.8l0.8-0.1c1.3-0.2,1.6-0.2,1.6-3.1
	v-10.4c0-2.9-0.3-3-1.6-3.2l-0.8-0.1c-0.2-0.1-0.2-0.7,0-0.8c1.4,0,2.7,0.1,3.9,0.1c1.2,0,2.5,0,3.7-0.1c0.2,0.1,0.3,0.7,0.1,0.8
	l-0.6,0.1c-1.3,0.2-1.6,0.3-1.6,3.2V404.7z"/>
<path class="st1" d="M561.4,394.9c0-3-0.2-3-1.6-3.2l-0.4-0.1c-0.2-0.2-0.2-0.7,0.1-0.8c1.1,0,2.4,0.1,3.6,0.1h5.3
	c1.8,0,3.4,0,3.8-0.1c0.1,0.5,0.3,2.7,0.4,3.9c-0.1,0.2-0.7,0.3-0.9,0.1c-0.5-1.6-0.9-2.3-1.8-2.5c-0.6-0.2-1.5-0.3-2.2-0.3h-1.9
	c-1.2,0-1.2,0.1-1.2,1.7v4.7c0,0.7,0,0.7,0.7,0.7h1.3c2.4,0,2.9,0,3.1-1.2l0.2-1c0.2-0.2,0.7-0.2,0.9,0c0,0.7-0.1,1.7-0.1,2.8
	c0,1.1,0,2,0.1,2.9c-0.1,0.2-0.7,0.2-0.9,0l-0.2-1.1c-0.2-1.2-0.7-1.2-3.1-1.2h-1.3c-0.6,0-0.7,0.1-0.7,0.8v3.5
	c0,1.4,0.1,2.4,0.5,2.9c0.3,0.4,0.8,0.6,3.2,0.6c3.5,0,4.2-0.8,5.1-3c0.3-0.2,0.7-0.1,0.9,0.2c-0.2,1.2-0.8,3.3-1.2,4
	c-1.2,0-3.6-0.1-6.9-0.1H563c-1.2,0-2.9,0-4.2,0.1c-0.2-0.1-0.3-0.6-0.1-0.8l1-0.1c1.3-0.1,1.6-0.2,1.6-3.2V394.9z"/>
<path class="st1" d="M599.5,406.4c0,1,0.1,1.7,0.7,1.9c0.1,0.1,0.1,0.3,0,0.4c-0.3,0-0.8,0.1-1.3,0.2c-1.7,0.4-3.8,0.7-5.4,0.7
	c-3.3,0-6.5-0.9-8.6-3.1c-1.6-1.7-2.5-4.1-2.5-6.4s0.8-4.7,2.6-6.5c2-2.1,5-3.3,8.9-3.3c1.3,0,2.7,0.2,3.7,0.4
	c0.6,0.1,1.5,0.2,1.8,0.2c0,0.8,0.2,2.3,0.3,4.4c-0.1,0.3-0.7,0.3-0.9,0c-0.6-2.7-2.6-4-5.4-4c-4.9,0-7.3,3.5-7.3,8.3
	c0,2.2,0.5,4.6,2,6.4c1.5,1.8,3.7,2.4,5.4,2.4c1.3,0,2.2-0.2,2.5-0.6c0.2-0.2,0.3-0.7,0.3-1.7v-1c0-2,0-2.1-1.9-2.5l-1-0.2
	c-0.2-0.2-0.2-0.7,0-0.8c1.1,0,2.4,0.1,4.4,0.1c1.2,0,2.2,0,3.4-0.1c0.3,0.1,0.3,0.6,0.1,0.8l-0.5,0.1c-1,0.1-1.2,0.4-1.2,2.1V406.4
	z"/>
<path class="st1" d="M612.2,394.9c0-3-0.2-3-1.6-3.2l-0.4-0.1c-0.2-0.2-0.2-0.7,0.1-0.8c1.1,0,2.4,0.1,3.6,0.1h5.3
	c1.8,0,3.4,0,3.8-0.1c0.1,0.5,0.3,2.7,0.5,3.9c-0.1,0.2-0.7,0.3-0.9,0.1c-0.4-1.6-0.9-2.3-1.7-2.5c-0.6-0.2-1.5-0.3-2.2-0.3h-1.9
	c-1.2,0-1.2,0.1-1.2,1.7v4.7c0,0.7,0,0.7,0.7,0.7h1.3c2.4,0,2.9,0,3.1-1.2l0.2-1c0.2-0.2,0.7-0.2,0.9,0c0,0.7-0.1,1.7-0.1,2.8
	c0,1.1,0.1,2,0.1,2.9c-0.1,0.2-0.7,0.2-0.9,0l-0.2-1.1c-0.2-1.2-0.7-1.2-3.1-1.2h-1.3c-0.6,0-0.7,0.1-0.7,0.8v3.5
	c0,1.4,0.1,2.4,0.5,2.9c0.3,0.4,0.8,0.6,3.2,0.6c3.5,0,4.1-0.8,5.1-3c0.2-0.2,0.7-0.1,0.9,0.2c-0.2,1.2-0.8,3.3-1.2,4
	c-1.2,0-3.6-0.1-6.9-0.1h-3.2c-1.2,0-2.9,0-4.2,0.1c-0.2-0.1-0.2-0.6,0-0.8l1-0.1c1.3-0.1,1.6-0.2,1.6-3.2V394.9z"/>
</svg>
