<?xml version="1.0" encoding="UTF-8"?>
<svg viewBox="0 0 94.27 90.23" xmlns="http://www.w3.org/2000/svg">
<defs>
<style>.cls-1{fill:url(#a);}.cls-2{fill:#fff;}.cls-3{fill:#a90533;}.cls-4{fill:#231f20;}</style>
<linearGradient id="a" x1="47.32" x2="47.32" y1="36.35" y2="7.53" gradientUnits="userSpaceOnUse">
<stop stop-color="#c96d6c" offset="0"/>
<stop stop-color="#a90533" offset="1"/>
</linearGradient>
</defs>
<polygon class="cls-1" points="22.23 0 22.23 63.19 72.41 63.09 72.41 0"/>
<polygon class="cls-2" points="67.9 6.14 36.17 30.75 36.17 35.32 40.16 35.32 40.16 51.67 33.85 51.67 33.85 45.8 25.14 40.14 22.21 41.82 22.21 63.33 72.41 63.19 72.41 9.13"/>
<path class="cls-4" d="m8.07,78.6c-1.32-.03-2.63-.03-3.95-.03s-2.75,0-4.12.03v-.4c.78.05,1.42-.16,1.42-1.04v-7.88c0-1.09-.59-1.1-1.42-1.12v-.4c.73.02,1.45.03,2.15.03s1.43-.02,2.21-.03v.4c-.82.02-1.42.03-1.42,1.12v7.2c0,1.15.25,1.63,2.46,1.63,1.8,0,2.43-.44,2.91-1.94l.34.06-.58,2.38Z"/>
<path class="cls-4" d="m14.01,69.32h.03l1.66,4.57h-3.2l1.51-4.57Zm.81-2.01h-.26c-.22.36-.58.53-.9.68.03.12.03.25.03.4,0,.47-.2,1.04-.33,1.4l-1.99,5.55c-.2.58-.39,1.18-.64,1.74-.39.87-.56,1-1.51,1.1v.4c.62-.02,1.26-.03,1.88-.03s1.23.03,1.83.03v-.4h-.36c-.54-.03-1.06,0-1.06-.73,0-.48.22-1.2.42-1.85l.34-1.09h3.65l.78,2.25c.11.29.23.73.23.9,0,.43-.47.51-.85.51h-.28v.4c.76-.02,1.51-.03,2.27-.03.59,0,1.2.03,1.79.03v-.4c-.5,0-.96-.11-1.2-.42-.25-.34-.67-1.66-.89-2.27l-2.97-8.2Z"/>
<path class="cls-4" d="m20.87,76.04h.36c.26,1.17,1.14,2.3,2.43,2.3,1.2,0,2.13-.84,2.13-2.07,0-2.89-4.6-2.04-4.6-5.71,0-2.01,1.43-3.05,3.33-3.05.64,0,1.27.14,1.9.23l.25,1.99h-.36c-.17-1.09-.89-1.73-2.01-1.73-1.18,0-1.87.85-1.87,1.99,0,2.89,4.79,2.1,4.79,5.68,0,2.02-1.82,3.16-3.65,3.16-.81,0-1.65-.19-2.38-.53l-.31-2.27Z"/>
<path class="cls-4" d="m32.7,67.75c.7.03,1.4.03,2.1.03.53,0,1.07-.03,1.73-.03,1.6,0,3.9.67,3.9,3.09,0,1.84-1.71,3.11-3.34,3.11-.31,0-.56-.02-.79-.02v-.51c.2.03.39.03.59.03,1.34,0,1.93-1.32,1.93-2.44,0-2.16-1.51-2.77-2.54-2.77-.23,0-.51.02-.68.05v8.79c0,1.09.59,1.1,1.43,1.12v.4c-.76,0-1.43-.03-2.12-.03-.75,0-1.48.01-2.25.03v-.4c.82-.02,1.42-.03,1.42-1.12v-7.4c0-1.2-.2-1.52-1.37-1.52v-.4Z"/>
<path class="cls-4" d="m43.51,72.79c0-2.81,1.43-4.77,3.7-4.77,2.66,0,4.03,3.19,4.03,5.55,0,2.81-1.43,4.77-3.7,4.77-2.66,0-4.03-3.19-4.03-5.55Zm-1.71.45c0,2.95,2.44,5.6,5.55,5.6,3.41,0,5.6-2.88,5.6-5.72s-2.44-5.6-5.55-5.6c-3.41,0-5.6,2.88-5.6,5.72Z"/>
<path class="cls-4" d="m54.57,76.04h.36c.26,1.17,1.14,2.3,2.43,2.3,1.2,0,2.13-.84,2.13-2.07,0-2.89-4.6-2.04-4.6-5.71,0-2.01,1.43-3.05,3.33-3.05.64,0,1.27.14,1.9.23l.25,1.99h-.36c-.17-1.09-.89-1.73-2.01-1.73-1.18,0-1.87.85-1.87,1.99,0,2.89,4.79,2.1,4.79,5.68,0,2.02-1.82,3.16-3.65,3.16-.81,0-1.65-.19-2.38-.53l-.31-2.27Z"/>
<path class="cls-4" d="m63.45,69.27c0-1.09-.59-1.1-1.41-1.12v-.4c.73.02,1.45.03,2.15.03s1.43-.02,2.21-.03v.4c-.82.02-1.41.03-1.41,1.12v7.81c0,1.09.59,1.1,1.41,1.12v.4c-.75,0-1.42-.03-2.1-.03-.75,0-1.48.01-2.25.03v-.4c.82-.02,1.41-.03,1.41-1.12v-7.81Z"/>
<path class="cls-4" d="m76.76,69.78h-.42c-.05-.84,0-1.4-1.24-1.4h-2.36v8.69c0,1.09.59,1.1,1.42,1.12v.4c-.75,0-1.42-.03-2.1-.03-.75,0-1.48.01-2.25.03v-.4c.82-.02,1.42-.03,1.42-1.12v-8.69h-2.04c-1.4,0-1.46.39-1.73,1.4h-.4l.17-2.47h.31c.17.42.59.44.98.44h7.06c.56,0,.95-.14,1.01-.44h.33l-.14,2.47Z"/>
<path class="cls-4" d="m81.07,69.32h.03l1.66,4.57h-3.2l1.51-4.57Zm.81-2.01h-.26c-.22.36-.58.53-.9.68.03.12.03.25.03.4,0,.47-.2,1.04-.33,1.4l-1.99,5.55c-.2.58-.39,1.18-.64,1.74-.39.87-.56,1-1.51,1.1v.4c.62-.02,1.26-.03,1.88-.03s1.23.03,1.83.03v-.4h-.36c-.54-.03-1.06,0-1.06-.73,0-.48.22-1.2.42-1.85l.34-1.09h3.65l.78,2.25c.11.29.23.73.23.9,0,.43-.47.51-.85.51h-.28v.4c.76-.02,1.51-.03,2.27-.03.59,0,1.2.03,1.79.03v-.4c-.5,0-.96-.11-1.2-.42-.25-.34-.67-1.66-.89-2.27l-2.97-8.2Z"/>
<path class="cls-4" d="m87.93,76.04h.36c.26,1.17,1.14,2.3,2.43,2.3,1.2,0,2.13-.84,2.13-2.07,0-2.89-4.6-2.04-4.6-5.71,0-2.01,1.43-3.05,3.33-3.05.64,0,1.28.14,1.9.23l.25,1.99h-.36c-.17-1.09-.89-1.73-2.01-1.73-1.18,0-1.87.85-1.87,1.99,0,2.89,4.79,2.1,4.79,5.68,0,2.02-1.82,3.16-3.65,3.16-.81,0-1.65-.19-2.38-.53l-.31-2.27Z"/>
<rect class="cls-3" x="22.22" y="82.36" width="50.2" height="1.24"/>
<path class="cls-4" d="m24.83,87.51c-.18-.12-.46-.22-.83-.22-.64,0-1.15.43-1.15,1.1s.51,1.09,1.18,1.09c.38,0,.67-.08.86-.21l-.07.76c-.2.12-.49.19-.92.19-.92,0-1.91-.63-1.91-1.83s.99-1.83,1.91-1.83c.44,0,.79.09.99.21l-.06.74Z"/>
<path class="cls-4" d="m32.96,88.39c0,.66-.5,1.09-1.03,1.09s-1.02-.43-1.02-1.09.49-1.08,1.02-1.08,1.03.43,1.03,1.08Zm.86,0c0-1.12-.92-1.83-1.89-1.83s-1.88.71-1.88,1.83.92,1.84,1.88,1.84,1.89-.71,1.89-1.84Z"/>
<path class="cls-4" d="m39.2,90.15v-3.5h.85v2.77h1.41v.73h-2.26Z"/>
<path class="cls-4" d="m46.7,90.15v-3.5h.85v2.77h1.41v.73h-2.26Z"/>
<path class="cls-4" d="m54.2,90.15v-3.5h2.04v.7h-1.19v.7h.97v.71h-.97v.7h1.35v.7h-2.2Z"/>
<path class="cls-4" d="m63.53,90.23c-.97,0-1.94-.64-1.94-1.83s1-1.83,1.92-1.83c.49,0,.87.12,1.11.28l-.07.75c-.24-.18-.58-.29-.96-.29-.64,0-1.16.43-1.16,1.12s.5,1.09,1.14,1.09c.2,0,.36-.03.48-.1v-.49h-.64v-.65h1.42v1.61c-.3.24-.73.36-1.3.36Z"/>
<path class="cls-4" d="m70.28,90.15v-3.5h2.04v.7h-1.19v.7h.97v.71h-.97v.7h1.35v.7h-2.2Z"/>
<polygon class="cls-3" points="72.41 40.28 61 40.28 61 46.8 62.59 46.8 62.59 42.27 72.41 42.27"/>
<path class="cls-3" d="m58.42,46.82v-9.19h2.58v-3.19c0-4.61,2.43-9.35,8.51-9.35,1.03,0,2,.17,2.9.49v-2.35c-1.01-.45-2.15-.7-3.42-.7-12.27,0-12.65,10.31-12.65,10.31v2.86l-3.63-.08v7.86h-3.27v19.05h-13.39v-3.28c0-1.68,1.36-3.05,3.05-3.05.34,0,1.14.07,1.45.18-.53-.9-1.96-1.5-3.08-1.5-1.68,0-3.05,1.36-3.05,3.05v4.61h-10.57v-3.28c0-1.68,1.36-3.05,3.05-3.05.34,0,1.14.07,1.45.18-.53-.9-1.97-1.5-3.08-1.5-1.68,0-3.05,1.36-3.05,3.05v5.84s50.2,0,50.2,0v-1.23h-9.81v-10.95h9.81v-1.99h-11.43v12.94h-5.62v-10.95h3.09v-1.99h-3.09v-2.79h3.06Z"/>
</svg>
