<svg id="Layer_1" data-name="Layer 1" xmlns="http://www.w3.org/2000/svg" viewBox="0 0 239.33 66.28"><defs><style>.cls-1{fill:#b40022;}.cls-2{fill:#444;}</style></defs><g id="logo"><g id="Group_15" data-name="Group 15"><path id="Path_72" data-name="Path 72" class="cls-1" d="M279,387.21l0,16,5,8,0-22.56a11.57,11.57,0,0,1-5-1.42m11.28,0a11.57,11.57,0,0,1-5,1.42v22.56l5-8.06V387.21m-6.29-9.9h-5v8.38a10.42,10.42,0,0,0,5,1.68l0-10.06m6.31,0h-5l0,10.06a10.42,10.42,0,0,0,5-1.68v-8.38m-12.5,0h-3.64a10.31,10.31,0,0,0,3.64,7.57v-7.57m17.31,0h-3.64v7.57a10.31,10.31,0,0,0,3.64-7.57M273.31,374,267,384.08l10.88,17.46,0-15.08a11.67,11.67,0,0,1-4.54-12.5M296,374a11.69,11.69,0,0,1-4.54,12.5v15.08l10.9-17.46L296,374m-12-3.34a5.53,5.53,0,0,0-4.91,5.46H284v-5.46m1.36,0v5.46h4.91a5.53,5.53,0,0,0-4.91-5.46m-1.33-4.1a10.48,10.48,0,0,0-9.78,9.59h3.57a7,7,0,0,1,6.21-6.68v-2.9m1.3,0v2.9a7,7,0,0,1,6.21,6.68h3.56a10.47,10.47,0,0,0-9.77-9.59m-.63-10.62-7.5,12a11.83,11.83,0,0,1,7.55-2.69,11.54,11.54,0,0,1,7.45,2.69l-7.5-12m0,59.82-19.73-31.63,19.73-31.38,19.79,31.44-19.79,31.57m.09-64.86-20.85,33.31,20.85,33,20.71-33-20.71-33.31" transform="translate(-263.89 -350.86)"/></g><g id="Group_16" data-name="Group 16"><path id="Path_73" data-name="Path 73" class="cls-2" d="M323,390.88a11.39,11.39,0,0,1-9.6-4.7,15.2,15.2,0,0,1-3-9.35,17.76,17.76,0,0,1,1.6-7.9,19.7,19.7,0,0,1,5.24-6.34c2.73-2.22,5.45-3.35,8.09-3.35a11.33,11.33,0,0,1,9.7,5,16.37,16.37,0,0,1,3,9.66,15.64,15.64,0,0,1-5.1,11.94c-3.59,3.31-6.93,5-9.93,5Zm-.52-26.37a10.46,10.46,0,0,0-2.89.41c-1.38.38-1.9.81-2.08,1.1a14.48,14.48,0,0,0-2.12,8,12.22,12.22,0,0,0,2.69,7.82,9.43,9.43,0,0,0,7.87,3.78,11.21,11.21,0,0,0,2.93-.42,3.72,3.72,0,0,0,2-1.22,13.14,13.14,0,0,0,1.6-7,15.65,15.65,0,0,0-2.12-8.45,8.73,8.73,0,0,0-7.92-4.08Z" transform="translate(-263.89 -350.86)"/><path id="Path_74" data-name="Path 74" class="cls-2" d="M354.52,390.88a12.08,12.08,0,0,1-10.06-4.6,15.36,15.36,0,0,1-3.06-9.69,16.87,16.87,0,0,1,1.75-7.93,17.91,17.91,0,0,1,5.8-6.19c3.11-2.17,5.69-3.22,7.9-3.22a13.14,13.14,0,0,1,8.21,2.84l.63.48-3.73,4.5-.58-.45a11.21,11.21,0,0,0-7.05-2.28c-2.38,0-4.05.36-5,1.06a8,8,0,0,0-2.41,3.86,14.4,14.4,0,0,0-.76,4.6,12.05,12.05,0,0,0,3,8.2,10.7,10.7,0,0,0,8.6,3.85,7,7,0,0,0,1.45-.21c.13-3.18.19-6,.18-8.39h-7.3L356.3,373h.34q2.57.09,7.69.16l.74,0v13l-.34.22c-2.14,1.42-3.65,2.36-4.62,2.88a12.5,12.5,0,0,1-5.59,1.64Z" transform="translate(-263.89 -350.86)"/><path id="Path_75" data-name="Path 75" class="cls-2" d="M384.72,390.34l-.52,0c-2.4-.13-6.83-.2-13.18-.2h-.8l0-.8c.16-3.17.24-7.94.24-14.19s-.08-11.15-.24-14.34l0-.8h.8c5.33,0,10.14-.06,14.3-.17l1.22,0-2.07,4.49-.54-.06c-1-.1-2.53-.15-4.58-.15h-3v8.64h1.14c2.55,0,5.1,0,7.58-.12l1.25-.05-2.1,4.36-.51,0c-1.13-.08-2.26-.12-3.37-.12h-4v9s0,.1,0,.18h3.45a51.62,51.62,0,0,0,5.7-.2l1.35-.17-2.15,4.8Z" transform="translate(-263.89 -350.86)"/><path id="Path_76" data-name="Path 76" class="cls-2" d="M405.45,390.34l-.52,0c-2.4-.13-6.84-.2-13.18-.2H391l0-.8c.16-3.13.24-7.91.24-14.19s-.08-11.18-.24-14.34l0-.8h.8c5.32,0,10.13-.06,14.3-.17l1.22,0-2.07,4.5-.55-.06c-1-.1-2.53-.16-4.58-.16h-3v8.64h1.15c2.54,0,5.1,0,7.58-.12l1.25,0L405,376.9l-.51,0c-1.13-.08-2.26-.12-3.37-.12h-4v9a1.1,1.1,0,0,0,0,.18h3.45a54.29,54.29,0,0,0,5.7-.2l1.34-.18-2.14,4.8Z" transform="translate(-263.89 -350.86)"/><path id="Path_77" data-name="Path 77" class="cls-2" d="M424.18,390.88c-4.5,0-8-1.5-10.43-4.46a15.17,15.17,0,0,1-3.17-9.87,16.15,16.15,0,0,1,7.12-13.83c3.26-2.3,6.24-3.47,8.86-3.47a11.82,11.82,0,0,1,6.85,2.09l.68.46-3.81,4.62-.56-.37a11.17,11.17,0,0,0-6.16-1.7c-2.38,0-4,.35-4.9,1a8.53,8.53,0,0,0-2.42,3.88,14.25,14.25,0,0,0-.76,4.59,11.84,11.84,0,0,0,2.9,8.11,10.78,10.78,0,0,0,8.61,3.6,9.11,9.11,0,0,0,5.67-1.8l.59-.44,1.58,2-.64.47c-4.78,3.43-8.05,5.1-10,5.1Z" transform="translate(-263.89 -350.86)"/><path id="Path_78" data-name="Path 78" class="cls-2" d="M437.84,390.35l0-.83c.16-3.18.24-8,.24-14.39s-.08-11.17-.24-14.35l0-.77,6.44-.22,0,.82c-.2,4.71-.3,8.77-.29,12.09h10.43c0-3.26-.09-7.27-.29-11.93l0-.76,6.48-.22,0,.82c-.19,4.86-.28,9.81-.28,14.72,0,3.11.1,7.82.28,14l0,.75-6.47.27,0-.83c.2-4.9.3-9.12.29-12.58H444l0,5.82c0,.7,0,1.77.12,3.22s.12,2.6.12,3.37v.73l-6.41.27Z" transform="translate(-263.89 -350.86)"/><path id="Path_79" data-name="Path 79" class="cls-2" d="M480.35,390.34l-.53,0c-2.4-.13-6.83-.2-13.18-.2h-.8l0-.8c.16-3.15.24-7.92.24-14.19s-.08-11.16-.24-14.34l0-.8h.8c5.33,0,10.14-.06,14.3-.17l1.22,0-2.07,4.49-.54-.06c-1-.1-2.54-.15-4.58-.15h-3v8.64h1.14c2.55,0,5.1,0,7.58-.12l1.26-.05-2.1,4.36-.52,0c-1.12-.08-2.26-.12-3.37-.12h-4v9a1.09,1.09,0,0,0,0,.18h3.46a51.71,51.71,0,0,0,5.7-.2l1.34-.17-2.14,4.8Z" transform="translate(-263.89 -350.86)"/><path id="Path_80" data-name="Path 80" class="cls-2" d="M501.08,390.34l-.52,0c-2.4-.13-6.84-.2-13.18-.2h-.8l0-.8c.16-3.15.23-7.92.23-14.19s-.08-11.16-.23-14.34l0-.8h.8c5.32,0,10.13-.06,14.3-.17l1.22,0-2.08,4.49-.54-.06c-1-.1-2.53-.15-4.58-.15h-3v8.64h1.15c2.55,0,5.1,0,7.58-.12l1.25-.05-2.1,4.36-.51,0c-1.13-.08-2.26-.12-3.37-.12h-4v9a1.1,1.1,0,0,0,0,.18h3.45a51.62,51.62,0,0,0,5.7-.2l1.35-.17-2.14,4.8Z" transform="translate(-263.89 -350.86)"/><path id="Path_81" data-name="Path 81" class="cls-2" d="M315.47,408.53v-.79c0-.36,0-1,.07-2,0-1.29.08-3.51.08-6.6v-2.44h-.55c-1.25,0-1.75,0-1.95.05l-1.63.18,2-3,.43,0c1,.05,3.64.06,7.94,0h1.49l-2,2.76-.4,0-1.56,0h-.33a1.21,1.21,0,0,0,0,.18v1.86c0,2.48,0,5.46.14,8.85l0,.75-3.73.15Z" transform="translate(-263.89 -350.86)"/><path id="Path_82" data-name="Path 82" class="cls-2" d="M331.47,408.52l-.53,0c-1-.06-3-.09-5.78-.09h-.8l0-.79c.07-1.43.1-3.56.1-6.34s0-5-.1-6.41l0-.8h.8q3.51,0,6.29-.07l1.21,0-1.31,2.9-.55-.06a18.83,18.83,0,0,0-2-.07h-.89v3H328c1.12,0,2.23,0,3.32-.05l1.25,0-1.35,2.83-.51,0c-.49,0-1,0-1.46,0h-1.33v3.27H329a22.47,22.47,0,0,0,2.46-.08l1.34-.18-1.37,3.1Z" transform="translate(-263.89 -350.86)"/><path id="Path_83" data-name="Path 83" class="cls-2" d="M340.12,408.75a6,6,0,0,1-4.93-2.16,7.31,7.31,0,0,1-1.49-4.68,7.69,7.69,0,0,1,3.31-6.54c3-2.13,5.45-2,7.42-.63l.67.47-2.2,2.72-.58-.38a4.38,4.38,0,0,0-2.47-.7,3.1,3.1,0,0,0-1.89.38,3.39,3.39,0,0,0-.93,1.55,6,6,0,0,0-.32,1.92,5,5,0,0,0,1.18,3.37,4.3,4.3,0,0,0,3.47,1.47,3.52,3.52,0,0,0,2.23-.72l.6-.46,1.22,1.55-.63.47c-2.9,2.12-4,2.37-4.66,2.37Z" transform="translate(-263.89 -350.86)"/><path id="Path_84" data-name="Path 84" class="cls-2" d="M347.2,408.52l0-.83c.08-1.41.11-3.51.11-6.42s0-5-.11-6.41l0-.77,3.72-.13,0,.82c-.08,1.91-.12,3.58-.13,5h3.75c0-1.38,0-3-.13-4.91l0-.76,3.73-.13,0,.82c-.08,2.17-.12,4.39-.12,6.58q0,2.08.12,6.26l0,.75-3.73.16,0-.83c.08-2,.12-3.74.13-5.2h-3.75l0,2.19c0,.31,0,.78,0,1.42s.06,1.19.05,1.53v.73l-3.7.16Z" transform="translate(-263.89 -350.86)"/><path id="Path_85" data-name="Path 85" class="cls-2" d="M369.69,408.7l-.31-.52c-.77-1.25-2.55-3.93-5.32-8v.7l.14,7.43-2.79.2.1-12-1.29-1.71,3.39-1.29.33.51c.48.74,2.29,3.39,5.25,7.71v-7.74l2.54-.27V405s0,.52.12,1.48L372,408l-2.27.73Z" transform="translate(-263.89 -350.86)"/><path id="Path_86" data-name="Path 86" class="cls-2" d="M373.85,408.52l0-.82c.1-2.46.14-4.63.14-6.43s0-4-.14-6.42l0-.76,3.75-.13,0,.81q-.12,4.29-.12,6.42t.12,6.43l0,.75-3.75.15Z" transform="translate(-263.89 -350.86)"/><path id="Path_87" data-name="Path 87" class="cls-2" d="M385.15,408.75a6,6,0,0,1-4.93-2.16,7.25,7.25,0,0,1-1.48-4.68,7.68,7.68,0,0,1,3.3-6.54c3-2.13,5.45-2,7.42-.63l.67.47-2.2,2.72-.58-.38a4.41,4.41,0,0,0-2.47-.7,3.1,3.1,0,0,0-1.89.38,3.41,3.41,0,0,0-.94,1.55,6,6,0,0,0-.31,1.92,4.89,4.89,0,0,0,1.17,3.37,4.3,4.3,0,0,0,3.47,1.47,3.53,3.53,0,0,0,2.24-.72l.59-.46,1.23,1.55-.63.47c-2.9,2.12-4.05,2.37-4.66,2.37Z" transform="translate(-263.89 -350.86)"/><path id="Path_88" data-name="Path 88" class="cls-2" d="M399.91,408.74l-1.61-4.64h-3.05l-1.35,4.26-3,.25.42-1.12c1.39-3.72,2.72-7.53,3.94-11.32l-.75-1.64,3.44-.95.24.65c.83,2.28,1.75,4.71,2.74,7.28.47,1.26,1.22,3.15,2.23,5.65l.34.84-3.55.74Zm-3.8-6.48h1.81l-1-2.61Z" transform="translate(-263.89 -350.86)"/><path id="Path_89" data-name="Path 89" class="cls-2" d="M411.44,408.53l-.6,0c-.91-.06-2.9-.09-5.9-.09h-.79l0-.79c.1-2.46.15-4.6.15-6.34s-.05-3.94-.15-6.42l0-.76,3.75-.13,0,.81q-.13,4.29-.13,6.43c0,1.85,0,3.35.05,4.47h.36c1.24,0,2.33,0,3.22-.1l1.28-.08-.54,1.16a9.87,9.87,0,0,0-.51,1.31l-.18.57Z" transform="translate(-263.89 -350.86)"/><path id="Path_90" data-name="Path 90" class="cls-2" d="M428.93,408.75a6,6,0,0,1-4.93-2.16,7.26,7.26,0,0,1-1.49-4.68,7.67,7.67,0,0,1,3.31-6.54c3-2.15,5.44-2,7.41-.63l.67.47-2.2,2.71-.57-.37a4.44,4.44,0,0,0-2.48-.7,3,3,0,0,0-1.88.38,3.37,3.37,0,0,0-.94,1.54,6,6,0,0,0-.31,1.93,4.89,4.89,0,0,0,1.17,3.37,4.33,4.33,0,0,0,3.47,1.47,3.53,3.53,0,0,0,2.24-.72l.59-.46,1.23,1.55-.63.47c-2.9,2.12-4,2.37-4.66,2.37Z" transform="translate(-263.89 -350.86)"/><path id="Path_91" data-name="Path 91" class="cls-2" d="M440.05,408.75a5.43,5.43,0,0,1-4.58-2.28,7.33,7.33,0,0,1-1.4-4.44,8.52,8.52,0,0,1,.75-3.72,9.19,9.19,0,0,1,2.42-3,6.09,6.09,0,0,1,3.84-1.6,5.36,5.36,0,0,1,4.62,2.44,7.77,7.77,0,0,1,1.39,4.57,7.44,7.44,0,0,1-2.37,5.65c-1.69,1.59-3.21,2.36-4.67,2.36Zm-.23-11.82a4.05,4.05,0,0,0-1.15.17c-.57.15-.68.31-.68.31a6.16,6.16,0,0,0-.87,3.37,5.08,5.08,0,0,0,1.1,3.24,3.72,3.72,0,0,0,3.13,1.54,4.2,4.2,0,0,0,1.17-.18,1.24,1.24,0,0,0,.66-.36,5.59,5.59,0,0,0,.64-2.89,6.88,6.88,0,0,0-.87-3.58,3.45,3.45,0,0,0-3.13-1.62Z" transform="translate(-263.89 -350.86)"/><path id="Path_92" data-name="Path 92" class="cls-2" d="M455.51,408.53l-.6,0c-.91-.06-2.89-.09-5.9-.09h-.79l0-.79c.1-2.46.15-4.6.15-6.34s0-3.94-.15-6.42l0-.76L452,394l0,.81q-.13,4.29-.13,6.43c0,1.85,0,3.35.05,4.47h.36c1.25,0,2.33,0,3.22-.1l1.28-.08-.54,1.16a9.87,9.87,0,0,0-.51,1.31l-.17.57Z" transform="translate(-263.89 -350.86)"/><path id="Path_93" data-name="Path 93" class="cls-2" d="M466,408.53l-.6,0c-.91-.06-2.89-.09-5.9-.09h-.79l0-.79c.1-2.46.15-4.6.15-6.34s0-3.94-.15-6.42l0-.76,3.75-.13,0,.81q-.13,4.29-.13,6.43c0,1.85,0,3.35.06,4.47h.36c1.24,0,2.32,0,3.21-.1l1.28-.08-.54,1.16a11.47,11.47,0,0,0-.51,1.31l-.17.57Z" transform="translate(-263.89 -350.86)"/><path id="Path_94" data-name="Path 94" class="cls-2" d="M476.1,408.52l-.53,0c-1.05-.06-3-.09-5.78-.09H469l0-.79c.07-1.41.1-3.55.1-6.34s0-5-.1-6.41l0-.8h.8c2.34,0,4.43,0,6.29-.07l1.21,0-1.32,2.9-.55-.06a18.83,18.83,0,0,0-2-.07h-.89v3h.07c1.13,0,2.24,0,3.33-.05l1.24,0-1.34,2.83-.51,0c-.49,0-1,0-1.46,0h-1.33v3.27h1.1a22.47,22.47,0,0,0,2.46-.08l1.34-.18-1.37,3.1Z" transform="translate(-263.89 -350.86)"/><path id="Path_95" data-name="Path 95" class="cls-2" d="M485.44,408.75a5.71,5.71,0,0,1-4.77-2.23,7.44,7.44,0,0,1-1.43-4.6,8.07,8.07,0,0,1,.82-3.74,8.34,8.34,0,0,1,2.68-2.92,6.75,6.75,0,0,1,3.73-1.53,6.14,6.14,0,0,1,3.88,1.37l.61.47-2.17,2.68-.59-.47a4.41,4.41,0,0,0-2.84-.93,2.33,2.33,0,0,0-2.8,1.71,1.55,1.55,0,0,0,0,.21,6.06,6.06,0,0,0-.32,1.93,5,5,0,0,0,1.24,3.4,4.28,4.28,0,0,0,3.47,1.58l.23,0c0-1.11.06-2.12.06-3h-3.75l2.6-2.79h.34c.75,0,1.88.05,3.38.08h.75v6.45l-.34.22c-.95.64-1.62,1.07-2.06,1.31a5.75,5.75,0,0,1-2.67.79Z" transform="translate(-263.89 -350.86)"/><path id="Path_96" data-name="Path 96" class="cls-2" d="M500.54,408.52l-.53,0c-1.05-.06-3-.09-5.78-.09h-.8l0-.79c.07-1.41.1-3.55.1-6.34s0-5-.1-6.41l0-.8h.8q3.51,0,6.29-.07l1.21,0-1.32,2.9-.54-.06a19,19,0,0,0-2-.07H497v3h.08c1.12,0,2.23,0,3.33-.05l1.24,0-1.34,2.83-.52,0c-.48,0-1,0-1.45,0H497v3.27h1.11a22.2,22.2,0,0,0,2.45-.08l1.34-.18-1.36,3.1Z" transform="translate(-263.89 -350.86)"/></g></g></svg>