<svg id="Layer_1" data-name="Layer 1" xmlns="http://www.w3.org/2000/svg" viewBox="0 0 623.05 92.98"><defs><style>.cls-1{fill:#010101;}.cls-2{fill:#b5121b;}.cls-3{fill:#fff;}.cls-4{fill:#231f20;}</style></defs><path class="cls-1" d="M79.68,268.79c0,41.23,7.71,68.24,38.1,93,30.37-24.74,38.1-51.75,38.1-93Z" transform="translate(-79.68 -268.79)"/><path class="cls-2" d="M86.94,275.87c0,34.94,6.44,55.39,30.84,76.49,24.65-21.37,30.82-41.55,30.82-76.49Z" transform="translate(-79.68 -268.79)"/><polygon class="cls-3" points="67.45 29.88 38.1 8.38 8.76 29.88 7.59 7.41 68.59 7.41 67.45 29.88"/><path class="cls-3" d="M149.89,274.59H85.65c.51,29.57,1.89,53.76,32.13,79.48,30.24-25.72,31.59-49.91,32.11-79.48m-32.11,76.06c-21.8-19.16-29.36-38-29.54-73.48H147.3c-.17,35.89-7.47,54.05-29.52,73.48" transform="translate(-79.68 -268.79)"/><polygon class="cls-1" points="16.92 7.78 18.27 12.01 22.7 11.99 19.11 14.57 20.5 18.79 16.92 16.16 13.35 18.79 14.75 14.57 11.14 11.99 15.58 12.01 16.92 7.78"/><polygon class="cls-1" points="59.24 7.78 60.59 12.01 65.03 11.99 61.42 14.57 62.82 18.79 59.24 16.16 55.67 18.79 57.07 14.57 53.46 11.99 57.9 12.01 59.24 7.78"/><path class="cls-3" d="M131.31,317.94h-1.79c-1.1,3.26-4,8.82-10.74,8.82-6.48,0-10.16-7.31-10.16-14.55,0-5.43,2.9-14.6,10.16-14.6,9.62,0,11.34,11.18,11.34,11.18h1.55v-12.3h-1.55a5.6,5.6,0,0,1-1.6,2.94,13.92,13.92,0,0,0-10-4.44c-9.2,0-16.69,7.73-16.69,17.22s7.49,17.22,16.69,17.22c4.12,0,11.77-2.66,12.74-11.49" transform="translate(-79.68 -268.79)"/><path class="cls-4" d="M143.12,344.6a2.94,2.94,0,1,1-2.94,2.94,2.94,2.94,0,0,1,2.94-2.94m0,5.45a2.52,2.52,0,1,0-2.51-2.51,2.51,2.51,0,0,0,2.51,2.51m-.64-.84h-.42v-3.38h1.3c.76,0,1.06.33,1.06.94a.92.92,0,0,1-.85,1l1,1.47h-.49l-1-1.47h-.61Zm0-1.85H143c.46,0,1,0,1-.59s-.4-.56-.76-.56h-.76Z" transform="translate(-79.68 -268.79)"/><path class="cls-4" d="M215.64,322.26h-2.38c-1.43,4.3-5.21,11.64-14.16,11.64-8.55,0-13.41-9.65-13.41-19.2,0-7.16,3.83-19.27,13.41-19.27,12.69,0,15,14.75,15,14.75h2.05V294h-2.05a7.38,7.38,0,0,1-2.11,3.89A18.42,18.42,0,0,0,198.82,292c-12.14,0-22,10.2-22,22.73s9.88,22.72,22,22.72c5.43,0,15.53-3.52,16.82-15.16" transform="translate(-79.68 -268.79)"/><path class="cls-4" d="M241.14,329.58,232.5,311.1h-1.71l-8.71,18.48c-1.91,4-2.26,4.6-6,4.6v2h11.93v-2s-3.15.15-3.71-.73c-.3-.5,0-1.44.64-2.72l1-2.13h8.73l1,2.13c.65,1.37.81,2.19.51,2.65-.57.9-3.64.8-3.64.8v2h14.32v-2c-3.33,0-3.81-.7-5.68-4.6m-10.83-10.17,3,6.37h-5.95Z" transform="translate(-79.68 -268.79)"/><path class="cls-4" d="M386.94,329.58,378.3,311.1h-1.71l-8.71,18.48c-1.91,4-2.26,4.6-6,4.6v2h11.92v-2s-3.14.15-3.7-.73c-.31-.5,0-1.44.63-2.72,0,0,.72-1.57,1-2.13h8.73l1,2.13c.65,1.37.81,2.19.51,2.65-.57.9-3.65.8-3.65.8v2h14.33v-2c-3.34,0-3.82-.7-5.68-4.6m-10.83-10.17,3,6.37h-5.95Z" transform="translate(-79.68 -268.79)"/><path class="cls-4" d="M260.79,328.61v-2.2h2.55c6.82,0,9.87-3.61,9.87-7.19,0-4.38-3.87-7.2-9.87-7.2H250.63v2c3.89,0,4.59.46,4.59,5.51v9c0,4.85-.38,5.57-4.59,5.57v2.05h14.75v-2.05c-3.95,0-4.59-.51-4.59-5.57m2.55-5.09h-2.55v-8.68h2.55c3.07,0,4.16,2.26,4.16,4.38s-1.09,4.3-4.16,4.3" transform="translate(-79.68 -268.79)"/><path class="cls-4" d="M291,314.84c5.51,0,5.41,1.22,6.25,4.52h1.78l-.55-7.34H277.08v2c4.11,0,4.59.67,4.59,5.51v9c0,4.72-.35,5.58-4.59,5.58v2h22.85l.47-7.33h-1.7c-1,3.37-.8,4.44-6.31,4.44-4.68,0-5.15-.32-5.15-5.5v-2.9c5.29.06,5.23.72,5.23,4.16h2V317.88h-2c0,3.54,0,4.16-5.23,4.16v-7.2Z" transform="translate(-79.68 -268.79)"/><path class="cls-4" d="M552.09,314.84c5.5,0,5.4,1.22,6.25,4.52h1.78l-.54-7.34H538.15v2c4.1,0,4.58.67,4.58,5.51v9c0,4.72-.35,5.58-4.58,5.58v2H561l.47-7.33h-1.71c-1,3.37-.79,4.44-6.3,4.44-4.67,0-5.14-.32-5.14-5.5v-2.9c5.28.06,5.22.72,5.22,4.16h2.05V317.88h-2.05c0,3.54,0,4.16-5.22,4.16v-7.2Z" transform="translate(-79.68 -268.79)"/><path class="cls-4" d="M329.31,328.89h1.77l-.54,7.34H306.22v-2.05c3.75,0,4.59-.27,4.59-5.57v-9c0-5.34-1-5.45-4.59-5.51v-2H321v2c-4.12,0-4.59.65-4.59,5.51v8.25c0,5.07.64,5.51,3.95,5.51h2.47c5.07,0,5.73-.62,6.51-4.44" transform="translate(-79.68 -268.79)"/><path class="cls-4" d="M358.25,328.89H360l-.55,7.34H335.16v-2.05c3.76,0,4.59-.27,4.59-5.57v-9c0-5.34-1-5.45-4.59-5.51v-2h14.75v2c-4.12,0-4.59.65-4.59,5.51v8.25c0,5.07.65,5.51,4,5.51h2.47c5.06,0,5.73-.62,6.5-4.44" transform="translate(-79.68 -268.79)"/><path class="cls-4" d="M452.92,295.35v-2.18H435.7v2.18c6,0,6.77.86,6.77,7.84v17.3c0,8.18-4.72,13.06-12.63,13.06-7.63,0-11.09-4.76-11.09-13.06v-17.3c0-7.18,0-7.84,5.79-7.84v-2.18H404.79v2.18c5.94,0,6.7.77,6.7,7.84v16.94c0,5.34,1.76,9.79,5.08,12.89A19.18,19.18,0,0,0,441,333c3.34-3.09,5.09-7.55,5.09-12.89V303.19c0-6.93.69-7.84,6.79-7.84" transform="translate(-79.68 -268.79)"/><path class="cls-4" d="M481.6,314.06v-2H469.54v2c4.11,0,4.58.55,4.58,5.51v8.7L459.1,312h-7.49v2c3.89,0,4.58.44,4.58,5.51v9c0,5.23-.7,5.58-4.58,5.58v2h12.06v-2c-3.85,0-4.58-.26-4.58-5.58v-8.84L475,337.08h2V319.57c0-4.82.42-5.51,4.59-5.51" transform="translate(-79.68 -268.79)"/><path class="cls-4" d="M496.58,319.57v9c0,4.78.41,5.65,4.58,5.58v2H486.42v-2c3.95,0,4.59-.47,4.59-5.58v-9c-.12-4.65-.2-5.56-4.59-5.51v-2h14.74v2c-4-.05-4.58.55-4.58,5.51" transform="translate(-79.68 -268.79)"/><path class="cls-4" d="M632.68,319.57v9c0,4.78.41,5.65,4.59,5.58v2H622.52v-2c4,0,4.59-.47,4.59-5.58v-9c-.11-4.65-.2-5.56-4.59-5.51v-2h14.75v2c-4-.05-4.59.55-4.59,5.51" transform="translate(-79.68 -268.79)"/><path class="cls-4" d="M535.6,314.06v-2H523.68v2c1.42,0,3.27,0,3.71.71.3.47,0,1.41-.64,2.74l-5.33,11.33-5.33-11.33c-.65-1.36-.81-2.19-.51-2.65.56-.86,2.68-.79,3.65-.8v-2H504.9v2c3.09.13,3.52-.08,5.68,4.53l8.64,18.55h1.71l8.71-18.55c1.67-3.59,2.11-4.62,6-4.53" transform="translate(-79.68 -268.79)"/><path class="cls-4" d="M598.63,326.7v10.44h2a5.32,5.32,0,0,1,.88-2.26,10.65,10.65,0,0,0,6.29,2.26c5.12,0,9-3.39,9-7.9,0-2.08-1.3-4.94-4.93-6.67L608,320.66c-3.24-1.48-4.68-2.42-4.68-4.06s1.77-2.54,3.46-2.54c5.35,0,5.77,6.07,5.77,6.07h2.14v-9h-2a7.19,7.19,0,0,1-.7,1.8,9.29,9.29,0,0,0-5.45-1.73c-4.42,0-7.9,2.91-7.9,6.63,0,3,1.87,5.54,5.14,7.1l4,1.91c3,1.38,4.32,2.7,4.32,4.26,0,1.79-1.54,3-3.74,3-5,0-7.34-3.91-7.67-7.4Z" transform="translate(-79.68 -268.79)"/><path class="cls-4" d="M648.75,334.18c4.09,0,4.59-.59,4.59-5.57V314.84h-2.83c-6.12,0-5.56,1.19-6.5,4.52h-1.85l.62-7.34h26.63l.54,7.34h-1.78c-.94-3.33-.4-4.52-6.51-4.52h-2.82v13.77c0,5,.49,5.57,4.59,5.57v2H648.75Z" transform="translate(-79.68 -268.79)"/><path class="cls-4" d="M702.73,314.06c-3.45-.1-4.67,1.16-7.19,4.66l-5.59,7.6v2.28c0,5.47,1,5.58,4.59,5.58v2H679.86v-2c3.56,0,4.59-.11,4.59-5.58v-2.22l-5.58-7.66c-2.54-3.5-3.69-4.77-6.91-4.66v-2h14.25v2c-.84,0-2.67.07-3,.63s.15,1.32,1.15,2.69l4.16,5.62,4.1-5.61c.38-.53,1.54-2.12,1.23-2.73s-2.15-.6-3-.6v-2h11.86Z" transform="translate(-79.68 -268.79)"/><path class="cls-4" d="M586.11,329.15,583.26,326c4.34-1,6.33-3.93,6.33-6.81,0-4.38-3.88-7.2-9.88-7.2H567v2c3.88,0,4.59.46,4.59,5.51v9c0,4.85-.38,5.57-4.59,5.57v2.05h14.75v-2.05c-4,0-4.59-.51-4.59-5.57v-2.2h.68l7.83,9.82h8.42v-2c-3.48-.44-5.47-2.37-8-5.08m-8.94-5.63v-8.68h2.54c3.07,0,4.17,2.26,4.17,4.38s-1.1,4.3-4.17,4.3Z" transform="translate(-79.68 -268.79)"/></svg>