<?xml version="1.0" encoding="utf-8"?>
<!-- Generator: Adobe Illustrator 26.4.1, SVG Export Plug-In . SVG Version: 6.00 Build 0)  -->
<svg version="1.1" id="Layer_1" xmlns="http://www.w3.org/2000/svg" xmlns:xlink="http://www.w3.org/1999/xlink" x="0px" y="0px"
	 viewBox="0 0 780 522.2" style="enable-background:new 0 0 780 522.2;" xml:space="preserve">
<style type="text/css">
	.st0{fill:#CCAB00;}
	.st1{fill:#004682;}
	.st2{fill:#01794C;}
</style>
<g>
	<path class="st0" d="M690.2,342.7c-30,9.2-25.6,15.7-71.1,7.2c-8.2-1.6-41.3-8.3-18.5-20.5c10.8-5.8,22.6-8.2,22.6-8.2
		s4.1,9.2,14.9,12.3C657.4,338.9,690.2,342.7,690.2,342.7"/>
	<path class="st0" d="M676.6,317.2c-9.2,0-24.6-2.3-24.6-2.3l13.1-7.7C665,307.2,685.8,317.2,676.6,317.2 M762.8,305.7
		c-4.6-16.9-38.5-30.8-38.5-30.8s-7.8-4.6-23.2-4.6c-0.5,0-1,0-1.5,0c-1,0-2.1,0.1-3.2,0.1c-0.5,0-1.1,0.1-1.6,0.1
		c10.9,4,31.1,10.6,39.1,15.1c11.2,6.3,24.6,21.9,20.8,38.5c-4.2,18-25.6,44.8-26.9,46.5c9.4-17.7,14.4-31.1,16.5-41.5
		c2.4-11.7,1-19.4-2.2-24.9c-4.8-8.4-13.8-11.7-19.8-15.8c-6.5-4.4-41.7-14.2-44.5-14.9c-18,4.7-15.2,27.6-19.8,29.2L638.6,317
		c0,0,6.6,4.9,16.4,7.4c1.6,0.4,3.3,0.8,5.1,1c0.9,0.1,1.8,0.2,2.7,0.3c0.9,0.1,1.9,0.1,2.8,0.1c2.8,0,5.5,0.2,7.9,0.5
		c1.6,0.2,3.2,0.5,4.6,0.8c8,1.7,13.5,4.8,16.7,8c4.6,4.6,5.1,13.8,6.2,24.6c1.3,12.8-2.8,36.4-2.8,36.4s18-5.4,33.6-20.8
		c0.5-0.5,1-1,1.6-1.6c0.3-0.3,0.5-0.5,0.8-0.8c0.2-0.3,0.5-0.5,0.8-0.8c0.5-0.5,0.9-1,1.4-1.6c0.3-0.4,0.7-0.8,1-1.2
		c0,0,0.1-0.1,0.1-0.1c0.2-0.2,0.3-0.4,0.5-0.5c0.2-0.2,0.4-0.5,0.5-0.7c0.2-0.3,0.4-0.5,0.7-0.8c0.6-0.8,1.3-1.6,1.9-2.4
		c0.5-0.7,1.1-1.4,1.6-2.2c3.3-4.4,6.7-9.4,9.6-14c2.4-3.8,4.5-7.4,6-10.3C762.8,328.8,766.2,318.4,762.8,305.7"/>
</g>
<g>
	<path class="st1" d="M485,400.1v-11.2c-1.5,0.5-3.1,0.7-4.6,0.7c-5.4,0-8.2-3.2-8.2-8.2v-21.2H485v-11.7h-12.5v-15.1H459v15.1h-6.8
		v11.7h6.8v20.3c0,14.1,7.4,21,18.5,21C480.2,401.6,482.8,401,485,400.1 M423.2,401.6c13.6,0,22.1-6.8,22.1-16.8
		c0-17.7-26.8-14.4-26.8-21.7c0-2.9,4.1-4.5,9.6-4.5c4.6,0,9.4,1.1,14.5,3.4v-11.5c-4.3-1.9-10.3-3.1-15.1-3.1
		c-11.7,0-21.2,6.3-21.2,16.7c0,17.3,26.4,14.6,26.4,21.6c0,2.8-4,4.6-10.1,4.6c-5.9,0-11.2-1.6-17.1-4.7v12.1
		C409,399.5,415.5,401.6,423.2,401.6 M360.2,384.7c0-4.6,3.5-6.9,10.5-6.9h10.6v3.5c0,5.6-6.2,10-13,10
		C363,391.2,360.2,388.8,360.2,384.7 M381.8,400.4h12.4v-29.3c0-13.8-7.1-23.8-23.8-23.8c-7.1,0-13.2,1.6-18.5,4.9v11.2
		c5-3.2,10.3-4.7,15.8-4.7c8.9,0,13.4,3.7,13.4,9.7v0.7H371c-14.4,0-22.9,6.2-22.9,17.2c0,9.6,5.9,15.3,15.8,15.3
		c7.6,0,13.9-3.4,17.8-9.1V400.4z M299.8,374.6c0-8.4,6-15.1,13.6-15.1c7.6,0,13.6,6.7,13.6,15c0,8.3-6,14.9-13.6,14.9
		C305.8,389.4,299.8,382.8,299.8,374.6 M313.4,401.6c14.9,0,26.9-12.1,26.9-27.1c0-15-12-27.2-26.9-27.2
		c-14.9,0-26.9,12.2-26.9,27.1C286.5,389.5,298.5,401.6,313.4,401.6 M257.7,401.6c6.4,0,15.2-1.4,19.9-4.3v-13.9
		c-4.9,2.9-11.5,4.7-17.9,4.7c-15,0-24.4-9.6-24.4-23c0-12.8,8.8-23.2,24.1-23.2c6.6,0,13.1,1.9,18.2,4.9v-13.8
		c-5.2-2.9-13.3-4.4-19.8-4.4c-22.3,0-37,17-37,36.4C220.8,384.9,235.8,401.6,257.7,401.6 M165.9,344.4v4.1h-6.9v11.7h6.9v40.2h13.4
		v-40.2h10.1v-11.7h-10.5v-2.7c0-6.4,2.9-9.4,7.8-9.4c1.9,0,3.8,0.4,5.5,1.3V327c-2.4-1.2-5.5-1.8-8.8-1.8
		C172.9,325.2,165.9,332.8,165.9,344.4 M134.6,400.4h13.7v-74h-13.7V400.4z M93.9,401.6c7.5,0,12.8-3.6,16.1-10.5v9.3h13.4v-51.8
		h-13.8v26.8c0,9-4.1,14.5-11.1,14.5c-2.7,0-5-0.9-6.6-2.5c-2.1-2.1-2.9-5.7-2.9-9.2v-29.6H75.2v31c0,7.1,1.8,13,5.3,16.7
		C83.8,399.7,88.3,401.6,93.9,401.6 M37.6,401.6c9.1,0,19.8-2.7,25.8-6.8v-34.6H36.2v12h13.9v14c-3.4,1.6-6.9,2.2-10.8,2.2
		c-15,0-25.2-9.5-25.2-23.1c0-13.8,10.5-23.2,25.8-23.2c6.4,0,14.2,1.7,19.5,5.2v-14.1c-6.4-3.1-15.1-4.5-21.5-4.5
		c-21.3,0-38,14.8-38,36.3C0,386.2,15.8,401.6,37.6,401.6"/>
	<path class="st1" d="M448.4,284c0-4.6,3.5-6.9,10.5-6.9h10.6v3.5c0,5.6-6.2,10-13,10C451.3,290.5,448.4,288.1,448.4,284 M470,299.7
		h12.4v-29.3c0-13.8-7.1-23.8-23.8-23.8c-7.1,0-13.2,1.6-18.5,4.9v11.2c5-3.2,10.3-4.7,15.8-4.7c8.9,0,13.4,3.7,13.4,9.7v0.7h-10.1
		c-14.4,0-22.9,6.2-22.9,17.2c0,9.6,5.9,15.3,15.8,15.3c7.6,0,13.9-3.4,17.8-9.1V299.7z M386.1,273.8c0-8.4,5.7-15.1,13.3-15.1
		c7.8,0,13.5,6.6,13.5,15.1c0,8.6-5.7,15-13.5,15C391.9,288.8,386.1,282.2,386.1,273.8 M397.1,300.9c6,0,11.9-3.4,16.1-8.4v7.1h12.2
		v-74h-13.5V254c-4.2-4.4-9.8-7.4-15.7-7.4c-13.2,0-23.9,11.9-23.9,27.2C372.3,289.2,383.3,300.9,397.1,300.9 M347.1,239.8h14.1V228
		h-14.1V239.8z M347.3,299.7H361v-51.8h-13.7V299.7z M305.5,299.7h13.7v-21.9c0-10.8,5.9-18.1,14.8-18.1c1.3,0,2.6,0.2,3.8,0.4
		v-13.3l-0.7-0.1c-9.1,0-15.5,4.2-18.7,11.9v-10.7h-12.9V299.7z M253.8,273.9c0-8.4,6-15.1,13.6-15.1c7.6,0,13.6,6.7,13.6,15
		c0,8.3-6,14.9-13.6,14.9C259.8,288.7,253.8,282.1,253.8,273.9 M267.4,300.9c14.9,0,26.9-12.1,26.9-27.1c0-15-12-27.2-26.9-27.2
		c-14.9,0-26.9,12.2-26.9,27.1C240.5,288.8,252.5,300.9,267.4,300.9 M215.5,299.7h13.7v-74h-13.7V299.7z M156,299.7h13.7v-26h28.6
		v-12.8h-28.6v-18.8h34.2v-12.9H156V299.7z"/>
	<path class="st1" d="M758.2,338c-1.4,2.9-3.5,6.5-6,10.3c-2.9,4.6-6.3,9.6-9.6,14c-0.5,0.7-1.1,1.5-1.6,2.2
		c-0.6,0.8-1.2,1.6-1.9,2.4c-0.2,0.3-0.5,0.5-0.7,0.8c-0.2,0.2-0.4,0.5-0.5,0.7c-0.2,0.2-0.3,0.4-0.4,0.5c0,0-0.1,0.1-0.1,0.1
		c-0.3,0.4-0.7,0.8-1,1.2c-0.5,0.6-0.9,1.1-1.4,1.6c-0.2,0.3-0.5,0.5-0.8,0.8c-0.2,0.3-0.5,0.6-0.8,0.8c-0.5,0.5-1,1.1-1.6,1.6
		c-15.6,15.4-33.6,20.8-33.6,20.8s4.1-23.6,2.8-36.4c-1.1-10.8-1.5-20-6.2-24.6c-3.2-3.2-8.7-6.3-16.7-8c-1.5-0.3-3-0.6-4.6-0.8
		c-2.4-0.3-5.1-0.5-7.9-0.5c-0.9,0-1.9,0-2.8-0.1c-0.9-0.1-1.8-0.2-2.7-0.3c-1.8-0.2-3.5-0.6-5.1-1c-9.7-2.5-16.4-7.4-16.4-7.4
		l19.5-14.3c4.6-1.6,1.8-24.5,19.8-29.2c0.3-0.1,0.6-0.2,1.4-0.4c5.7-1.3,10.8-2.1,15.5-2.5c0.5-0.1,1.1-0.1,1.6-0.1
		c1.1-0.1,2.1-0.1,3.2-0.1c0.5,0,1,0,1.5,0c15.3,0,23.2,4.6,23.2,4.6s33.9,13.9,38.5,30.8C766.2,318.4,762.8,328.8,758.2,338
		 M619.1,349.8c-8.2-1.6-41.3-8.3-18.5-20.5c10.8-5.8,22.6-8.2,22.6-8.2s4.1,9.2,14.9,12.3c19.3,5.5,52.1,9.3,52.1,9.3
		C660.2,351.9,664.6,358.3,619.1,349.8 M505.1,54.4L505.1,54.4L505.1,54.4L505.1,54.4z M778,301.8c-6.2-22.8-38.1-37.6-48-41.7
		c-0.6-0.3-1.8-0.9-3.5-1.5c1.9-3.1,3.5-6.6,4.9-10.6c1.6-4.4,2.4-10,2.4-15.2c0-6.8-1.5-16.6-8.4-25
		c-10.4-12.4-23.1-21.1-51.7-22.9c-9.1-0.6-19.8-3.1-24.3-4.2c-14.9-16.9-26.7-33.7-36-59.7c-9.6-26.8-15.1-63-15.1-63.3l-1.1-7.1
		l-17.2,12.9c-19.2,9.4-25.9,37.5-25.9,37.8c0,0.1,0,0.2,0,0.2c-6.9-7.8-13.6-16.2-20.3-25.6c-10.3-14.4-12.6-24.1-12.6-24.5
		l-6-28.5l-21.5,19.6c-6.3,5.7-13.6,18.4-13.7,35.2c-23.7-24.7-27.9-45.3-28-46.2L446.6,0l-22.7,22.6
		c-10.1,10.1-24.9,36.8-25.7,63.1c-1.2-2.7-2-4.7-2.3-5.6l0,0l-8-22.4l-18.3,15.3c-11.6,9.7-18.6,28.5-18.6,50.5
		c0,2.7,0.6,7.8,1.4,13.8v0.1c9.3,35,31.6,52.8,56.6,61.2c0.2-0.2,0.5-0.3,0.7-0.5c0,0-21.9-12.3-30.8-30.8
		c-17.9-37.4-10.3-71.8,2.1-82.1c0,0,9.3,26.4,25.6,43.1c21.6,22.1,54.4,26.7,54.4,26.7c-20.5-13.8-30.8-23.6-42.6-51.3
		c-9.5-22.2,5.6-57.4,17.9-69.8c0,0,4.1,26.7,34.9,57.4c0.7,0.7,1.8,1.6,3,2.7c0.5,0.4,1,0.9,1.6,1.3c1.1,0.9,2.4,1.9,3.7,3
		c0.5,0.4,1.1,0.9,1.7,1.3c0.2,0.1,0.3,0.2,0.4,0.3c0.4,0.3,0.7,0.6,1.1,0.9c0.4,0.3,0.7,0.6,1.1,0.9c0.2,0.2,0.4,0.3,0.6,0.5
		c0.2,0.1,0.3,0.2,0.4,0.3c2.2,1.7,4.5,3.4,6.9,5.2c0.6,0.5,1.3,0.9,1.9,1.4c0.9,0.6,1.7,1.2,2.6,1.9c0.9,0.6,1.7,1.3,2.6,1.9
		c1.7,1.3,3.4,2.5,5.1,3.7c0.8,0.6,1.6,1.2,2.5,1.8c1.6,1.2,3.2,2.3,4.7,3.4c1.6,1.2,3.2,2.3,4.6,3.3c0.8,0.6,1.6,1.2,2.3,1.7
		c0.7,0.5,1.4,1,2,1.5c0.4,0.3,0.8,0.5,1.1,0.8c0.4,0.2,0.7,0.5,0.9,0.7c0.8,0.6,1.3,0.9,1.5,1c-1-1.2-21.8-27.9-25.1-43.6
		c-4.6-22.1,7.2-32.3,7.2-32.8c0,0.5,2.3,12.3,15.4,30.8c32.8,46.2,58,59.5,58,59.5c-10.3-13.9-9.2-30.3-7.7-41.5
		c1.2-9.2,7.2-23.6,12.8-24.1c0,0,4.1,18.5,14.4,47.2c11.3,31.6,25.7,50.3,42.3,68.8c0.2,0.2,18,5.2,32.6,6.1
		c24.1,1.5,32.3,7.7,40,16.9c7,8.4,4.3,20.7,3.1,24.1c-4.1,11.8-9.9,15.7-17.4,17.4c-13.9,3.1-23.6,1-33.9-2c0,0-0.1,49.3-45.7,52.8
		c-6.7,0.5-31.4,21.4-45.7,21c-24.4-0.6-42.8-3.1-58.5-7c26.7,12.3,60,23.8,62.5,23.8h0.1c4.9,9,16.3,14.6,37.2,18.5
		c31.4,5.9,55,1.3,68.5-3.1c0,0.7,0,1.5,0,2.3c0,9.5-2,23.3-2.8,27.8l-4.6,26.4l25.7-7.7c2.6-0.8,25.6-8.2,44.2-28.8
		c8.3-9.2,20.6-27.1,25.8-37.6c3.6-7.2,7.8-17.2,7.8-29.4C780,311.6,779.3,306.7,778,301.8"/>
	<path class="st1" d="M676.6,317.2c-9.2,0-24.6-2.3-24.6-2.3l13.1-7.7C665,307.2,685.8,317.2,676.6,317.2"/>
	<path class="st1" d="M677.6,273.5c-0.1,0,0.4-0.2,1.4-0.3c-0.4,0.1-0.8,0.2-1.2,0.3C677.7,273.5,677.6,273.5,677.6,273.5"/>
	<path class="st1" d="M581.6,258.1c1.1,0.4,2.2,0.9,3.4,1.3c3.9,1.5,7.8,3,11.7,4.4c4.3,1.5,8.7,3,13.1,4.2c2.2,0.6,4.5,1.2,6.7,1.6
		c-0.9,9.6-9,17.1-18.8,17.1c-10.4,0-18.9-8.5-18.9-18.9C578.8,264.3,579.8,260.9,581.6,258.1 M546.4,240.9
		c6.4,11.8,17.7,31.4,28.6,44.3c29.2,34.6,62.6-6.9,62.6-6.9s0-2.7-1.8-6.5c1.9,0,3.7,0,5.6-0.1c20.3-1.1,22.9-21.7,13.1-32.2
		c1.3,9.7-4.3,19.9-18.4,20.7c-3.8,0.2-7.5,0.2-11.1,0.1c-1.8-0.1-3.5-0.2-5.3-0.3c-0.1,0-0.2,0-0.3,0c-1.7-0.2-3.4-0.4-5.1-0.6
		c0.1,0,0.2,0,0.3,0c-2.1-0.3-4.3-0.7-6.3-1.1c-0.1,0-0.2,0-0.2,0c-0.9-0.2-1.8-0.4-2.6-0.6c-0.2,0-0.3-0.1-0.5-0.1
		c-0.8-0.2-1.7-0.4-2.5-0.7c-0.2,0-0.3-0.1-0.5-0.1c-0.8-0.2-1.7-0.5-2.5-0.7c0,0,0,0,0,0c-1.6-0.5-3.3-1.1-4.9-1.6
		c-0.3-0.1-0.6-0.2-0.9-0.3c-0.6-0.2-1.1-0.4-1.7-0.6c-0.5-0.2-1-0.4-1.5-0.6c-0.5-0.2-1-0.4-1.5-0.6c-0.5-0.2-1-0.4-1.5-0.6
		c-0.9-0.4-1.9-0.8-2.8-1.3c-0.4-0.2-0.7-0.3-1.1-0.5c-1.3-0.6-2.6-1.2-3.9-1.9c-1.8-0.9-3.5-1.8-5.2-2.6c-0.3-0.2-0.6-0.3-0.9-0.5
		c-1.7-0.8-3.3-1.7-4.9-2.5c-0.3-0.1-0.5-0.3-0.8-0.4c-24.9-12.9-40.2-22.7-45.9-36.3c0.2,1.7,0.5,3.5,0.9,5.4
		C525.6,222.8,532.8,232.1,546.4,240.9"/>
</g>
<g>
	<path class="st2" d="M445.5,522c11.3,0,19.5-7,24.7-20.7l19.8-52h-15l-11.6,38l-14.5-38h-15.2L457,502c-2.7,5.4-6.7,8.1-12.5,8.1
		c-3.6,0-6.7-0.6-9.7-2v11.6C437.9,521.1,441.5,522,445.5,522 M426.9,500.8v-11.2c-1.5,0.5-3.1,0.7-4.6,0.7c-5.4,0-8.2-3.2-8.2-8.2
		v-21.2h12.8v-11.7h-12.5v-15.1h-13.5v15.1h-6.8v11.7h6.8v20.3c0,14.1,7.4,21,18.5,21C422.1,502.3,424.7,501.7,426.9,500.8
		 M369.8,441.2h14.1v-11.8h-14.1V441.2z M370,501.1h13.7v-51.8H370V501.1z M336.6,502.3c13.6,0,22.1-6.8,22.1-16.8
		c0-17.7-26.8-14.4-26.8-21.7c0-2.9,4.1-4.5,9.6-4.5c4.6,0,9.4,1.1,14.5,3.4v-11.5c-4.3-1.9-10.3-3.1-15.1-3.1
		c-11.7,0-21.3,6.3-21.3,16.7c0,17.3,26.4,14.6,26.4,21.6c0,2.8-4,4.6-10.1,4.6c-5.9,0-11.2-1.6-17.1-4.7v12.1
		C322.4,500.2,328.9,502.3,336.6,502.3 M279.9,501.1h13.7v-21.9c0-10.8,5.9-18.1,14.8-18.1c1.3,0,2.6,0.2,3.8,0.4v-13.3l-0.7-0.1
		c-9.1,0-15.5,4.2-18.7,11.9v-10.7h-12.9V501.1z M231.7,470c1.1-6.6,5.7-11.3,12.1-11.3c6.3,0,10.7,4.7,11.7,11.3H231.7z
		 M246.3,502.3c6.3,0,12.8-1.8,18.4-5.7v-11.9c-4.9,3.7-11.2,6-17.7,6c-9.1,0-15-4.9-15.5-11.5h36.6c0.1-0.9,0.1-1.9,0.1-2.8
		c0-17.7-9.6-28.4-23.9-28.4c-14.8,0-25.3,12.5-25.3,27.8C219,490.8,229.8,502.3,246.3,502.3 M180.7,501.1h13.4l21.7-51.8h-15.2
		l-13.2,37.5l-13.1-37.5h-15.3L180.7,501.1z M137.3,441.2h14.1v-11.8h-14.1V441.2z M137.5,501.1h13.7v-51.8h-13.7V501.1z
		 M110.8,473.2v27.9h13.7v-31.3c0-13.7-7.4-21.7-18.5-21.7c-7.8,0-13.6,3.9-16.7,10.3v-9.1H75.9v51.8h13.7v-27.9
		c0-8,4.4-13.2,10.6-13.2C106.9,460,110.8,464.8,110.8,473.2 M34.5,502.3c18.3,0,30.3-10.1,30.3-31.8v-39.9H51.1v39.3
		c0,13.5-7.1,19.6-16.5,19.6S18,483.3,18,469.8v-39.3H4.2v39.9C4.2,492.2,16.2,502.3,34.5,502.3"/>
	<path class="st2" d="M609.2,201.4c27.1,13.3,43.2,30.2,43.2,30.2S608,209.9,577,199.4c-27.1-9.2-65.4-17.8-65.4-17.8
		S563.4,178.9,609.2,201.4"/>
	<path class="st2" d="M600.9,280.3c-5.7,0-10.4-4.7-10.4-10.4c0-2.8,1.1-5.4,3-7.2c5.8,2.1,11.6,4,17.6,5.6c0.1,0.5,0.2,1.1,0.2,1.6
		C611.2,275.7,606.6,280.3,600.9,280.3"/>
</g>
</svg>
