<svg width="864" height="166.42" viewBox="0 0 864 166.42" id="logo-grantham-university" x="919" xmlns="http://www.w3.org/2000/svg"><title>Grantham University Logo</title><path d="M78.48 68.62c0-10.79-.67-12.26-6-13.73a24.81 24.81 0 0 0-4.53-.4c-.53 0-1.06-.27-1.06-.8 0-.8.66-1.06 2.13-1.06 6 0 14.39.4 15.05.4s9.06-.4 13.06-.4c1.46 0 2.13.26 2.13 1.06 0 .53-.53.8-1.07.8a19.75 19.75 0 0 0-3.33.4c-3.6.67-4.66 2.93-4.92 7.6-.27 4.26-.27 8.26-.27 13.85v14.93c0 6-.13 6.26-1.73 7.2-8.53 4.53-20.52 6-28.25 6-10.12 0-29-1.33-43.83-14.26C7.73 83.15 0 68.89 0 52.23 0 30.92 10.4 15.86 22.25 8.4S47.43 0 57.69 0a113.36 113.36 0 0 1 20.39 2.27A66.79 66.79 0 0 0 88.87 3.6c1.33.13 1.6.66 1.6 1.2a168.69 168.69 0 0 0-.93 18.92c0 2.13-.27 2.8-1.2 2.8-.67 0-.8-.8-.94-2a20.39 20.39 0 0 0-2.79-8.79C81.28 10.67 70.48 4.94 53.3 4.94c-8.39 0-18.38.8-28.51 8.79-7.74 6.13-13.2 18.27-13.2 33.84 0 18.79 9.46 32.38 14.13 36.91a48.51 48.51 0 0 0 34.91 14.26c4.8 0 11.72-.8 15.19-2.8a4.84 4.84 0 0 0 2.66-4.67zM241.15 5.2c1.6-4.4 2.13-5.2 2.93-5.2s1.33.67 2.93 4.8c2 5.06 22.92 60.1 31 80.35 4.8 11.86 8.66 14 11.46 14.79a17.17 17.17 0 0 0 5.33.8c.8 0 1.33.14 1.33.8s-1.2 1.06-2.67 1.06c-2 0-11.72 0-20.92-.26-2.53-.13-4-.13-4-.93 0-.53.4-.8.93-.93.8-.27 1.6-1.46.8-3.6l-12.33-32.79a1.17 1.17 0 0 0-1.2-.8h-28.65a1.4 1.4 0 0 0-1.33 1.07l-8 23.59a28.14 28.14 0 0 0-1.87 8.92c0 2.67 2.8 3.86 5.06 3.86h1.33c.93 0 1.33.27 1.33.8 0 .8-.8 1.06-2 1.06-3.2 0-8.92-.4-10.39-.4s-8.79.4-15.06.4c-1.73 0-2.53-.26-2.53-1.06 0-.53.53-.8 1.2-.8.93 0 2.8-.13 3.86-.26 6.13-.8 8.8-5.86 11.19-12.53zM255 58.5c.66 0 .66-.4.54-.93l-12.66-36q-1-3-2 0l-11.73 36c-.27.66 0 .93.4.93zm61.15 25.98c.27 10.93 1.6 14.39 5.2 15.45a29.08 29.08 0 0 0 6.66.8c.67 0 1.07.26 1.07.8 0 .8-.8 1.07-2.4 1.07-7.6 0-12.92-.4-14.12-.4s-6.8.4-12.8.4c-1.33 0-2.13-.13-2.13-1.07 0-.53.4-.8 1.07-.8a19 19 0 0 0 5.46-.8c3.34-.94 4-4.8 4-16.92l.13-76.35c0-5.2.4-6.67 1.46-6.67s3.33 2.94 4.67 4.27c2 2.27 21.85 23.72 42.37 45.71 13.19 14.12 27.71 30.37 32 34.77l-1.46-67.69c-.14-8.66-1.07-11.59-5.2-12.66a35.73 35.73 0 0 0-6.53-.67c-.93 0-1.07-.4-1.07-.93 0-.8 1.07-.93 2.67-.93 6 0 12.39.4 13.86.4s5.86-.4 11.33-.4c1.46 0 2.4.13 2.4.93 0 .54-.54.93-1.47.93a11.63 11.63 0 0 0-3.19.4c-4.43.94-4.96 3.88-4.96 11.88l-.26 78.08c0 8.79-.27 9.46-1.21 9.46S391 102.07 384 95c-1.47-1.33-20.66-20.92-34.78-36.11-15.45-16.65-30.51-33.44-34.77-38.24zM464.44 64c0 12.79 0 23.31.67 28.91.4 3.86 1.2 6.79 5.19 7.33a57.8 57.8 0 0 0 6 .53c.81 0 1.07.4 1.07.8 0 .66-.67 1.07-2.13 1.07-7.33 0-15.72-.4-16.38-.4s-9.06.4-13.06.4c-1.47 0-2.13-.27-2.13-1.07 0-.4.26-.8 1.07-.8a20.48 20.48 0 0 0 4-.53c2.67-.54 3.33-3.47 3.86-7.33.66-5.6.66-16.12.66-28.91V7.6l-19.72.26c-8.26.14-11.46 1.07-13.59 4.26a23.58 23.58 0 0 0-2.27 4.13c-.39 1.07-.8 1.33-1.33 1.33s-.66-.4-.66-1.2c0-1.33 2.66-12.79 2.93-13.86.27-.8.8-2.53 1.33-2.53.94 0 2.27 1.33 5.87 1.6 3.86.4 8.92.66 10.52.66h50a53.63 53.63 0 0 0 9.46-.66c2-.27 3.2-.67 3.73-.67s.66.8.66 1.6c0 4-.4 13.19-.4 14.66 0 1.2-.4 1.73-.93 1.73s-.93-.4-1.07-2.26l-.13-1.47c-.4-4-3.59-7.06-16.39-7.33l-16.83-.25zm148.15 0c0 12.79 0 23.31.67 28.91.4 3.86 1.2 6.79 5.19 7.33a57.8 57.8 0 0 0 6 .53c.8 0 1.07.4 1.07.8 0 .66-.66 1.07-2.13 1.07-7.33 0-15.73-.4-16.39-.4s-9.06.4-13.06.4c-1.47 0-2.13-.27-2.13-1.07 0-.4.27-.8 1.07-.8a20.53 20.53 0 0 0 4-.53c2.66-.54 3.33-3.47 3.86-7.33.67-5.6.67-16.12.67-28.91V50a.77.77 0 0 0-.8-.8h-56.5a.7.7 0 0 0-.8.8v14c0 12.79 0 23.31.67 28.91.4 3.86 1.2 6.79 5.2 7.33a57.5 57.5 0 0 0 6 .53c.8 0 1.07.4 1.07.8 0 .66-.66 1.07-2.13 1.07-7.33 0-15.73-.4-16.39-.4s-9.06.4-13.06.4c-1.47 0-2.13-.27-2.13-1.07 0-.4.27-.8 1.07-.8a20.53 20.53 0 0 0 4-.53c2.66-.54 3.33-3.47 3.86-7.33.67-5.6.67-16.12.67-28.91V40.51c0-20.79 0-24.52-.26-28.78-.27-4.53-1.34-6.67-5.73-7.6a25 25 0 0 0-4.53-.4c-.53 0-1.07-.27-1.07-.8 0-.8.67-1.06 2.14-1.06 6 0 14.38.4 15.05.4s9.06-.4 13.06-.4c1.46 0 2.13.26 2.13 1.06 0 .54-.54.8-1.07.8a19.94 19.94 0 0 0-3.33.4c-3.59.67-4.66 2.93-4.93 7.6-.27 4.26-.27 8-.27 28.78v2.8a.7.7 0 0 0 .8.8h56.47a.7.7 0 0 0 .8-.8v-2.8c0-20.79 0-24.52-.27-28.78-.27-4.53-1.33-6.67-5.73-7.6a25.05 25.05 0 0 0-4.53-.4c-.53 0-1.07-.27-1.07-.8 0-.8.67-1.06 2.14-1.06 6 0 14.38.4 15.05.4s9.06-.4 13.06-.4c1.47 0 2.13.26 2.13 1.06 0 .54-.54.8-1.07.8a19.92 19.92 0 0 0-3.33.4c-3.6.67-4.66 2.93-4.92 7.6-.27 4.26-.27 8-.27 28.78zm63.95-58.8c1.6-4.4 2.12-5.2 2.93-5.2s1.33.67 2.94 4.8c2 5.06 22.92 60.1 31 80.35 4.8 11.86 8.66 14 11.46 14.79a17.19 17.19 0 0 0 5.33.8c.8 0 1.33.14 1.33.8s-1.2 1.06-2.67 1.06c-2 0-11.72 0-20.92-.26-2.54-.13-4-.13-4-.93 0-.53.4-.8.93-.93.8-.27 1.6-1.46.8-3.6l-12.34-32.79a1.17 1.17 0 0 0-1.2-.8h-28.65a1.41 1.41 0 0 0-1.33 1.07l-8 23.59a28.17 28.17 0 0 0-1.86 8.92c0 2.67 2.79 3.86 5.06 3.86h1.33c.93 0 1.33.27 1.33.8 0 .8-.8 1.06-2 1.06-3.2 0-8.93-.4-10.39-.4s-8.79.4-15.06.4c-1.74 0-2.53-.26-2.53-1.06 0-.53.53-.8 1.2-.8.93 0 2.8-.13 3.86-.26 6.14-.8 8.79-5.86 11.2-12.53zm13.85 53.3c.67 0 .67-.4.54-.93l-12.66-36q-1-3-2 0l-11.72 36c-.27.66 0 .93.4.93z" fill="#34445a"></path><path d="M847.08 85.41c.53 4.8 1.46 12.26 7.19 14.12a28.93 28.93 0 0 0 8.67 1.2c.66 0 1.07.13 1.07.67 0 .8-1.2 1.2-2.8 1.2-2.93 0-17.32-.4-22.25-.8-3.06-.27-3.73-.67-3.73-1.33s.27-.8.93-.94.8-2.4.54-4.8L830.29 26h-.4l-32.65 69.27c-2.8 5.86-3.19 7.06-4.39 7.06-.93 0-1.6-1.33-4.13-6.13-3.47-6.53-14.92-29.58-15.58-30.92-1.2-2.39-16.13-34.37-17.6-38H755l-5.33 61.82c-.14 2.13-.14 4.53-.14 6.79a4.27 4.27 0 0 0 3.47 4.13 24.68 24.68 0 0 0 5.06.66c.54 0 1.07.27 1.07.67 0 .93-.8 1.2-2.41 1.2-4.93 0-11.33-.4-12.39-.4s-7.59.4-11.19.4c-1.33 0-2.27-.27-2.27-1.2 0-.4.67-.67 1.33-.67a17.26 17.26 0 0 0 4-.4c4.4-.8 4.8-6 5.33-11.06l9.6-86.88c.13-1.47.66-2.4 1.46-2.4s1.33.54 2 2l40.77 83.81 39.19-83.61c.53-1.21 1.07-2.14 2-2.14s1.33 1.07 1.6 3.6zm-597.59 75.31c-45.34 0-84.84-90.25-104.32-98.53H130v35c0 6.9 2.76 9.31 11.2 10.17a7.5 7.5 0 0 0 1.9.18l.17 2.24-2.41-.17c-6-.51-10.17-.86-13.45-.86h-6.55c-3.28 0-7.41.35-13.45.86l-2.41.17.18-2.24a7.49 7.49 0 0 0 1.9-.18c8.45-.86 11.2-3.27 11.2-10.17V13.41c0-6.9-2.75-9.32-11.2-10.17a7.72 7.72 0 0 0-1.9-.17L105 .81l2.41.17c6 .52 9 .87 13.45.87 4.31 0 18.27-.87 26.89-.87 23.79 0 37.76 12.07 37.76 26.89 0 15-10.69 26.55-25.52 31.9 13.62 9 51.28 78.36 86.45 90.95 12.58 4.48 22 3.61 30.11 0-1.21 3.11-13.79 10-27.07 10M142.92 5C132.06 5 130 5.47 130 13.41v44.64h25c10.69-4.48 19.14-13.62 19.14-26.21 0-13.79-10.34-26.9-31.21-26.9" fill="#34445a"></path><path d="M312 149.81q0 4.74 2 7.33a6.93 6.93 0 0 0 5.81 2.59q7.71 0 7.71-8.21v-4.89q0-1.55-.06-3.25v-3.35q-.06-3.92-.13-8.34a6.87 6.87 0 0 0-.44-2.75 1.67 1.67 0 0 0-1.58-.66h-1.32a4.63 4.63 0 0 1-.76.06l-.13-.25.51-4.17 2.78.13q1.14.06 2.43.06h4.74q1.36 0 2.44-.11 1.26-.06 2.53-.19l-.38 4.23a16.4 16.4 0 0 0-1.93.51 3.58 3.58 0 0 0-1.11.57 1.52 1.52 0 0 0-.51.82 5.29 5.29 0 0 0-.13 1.26v19.65q0 7.14-4.17 10.9t-12.13 3.76q-14.66 0-14.66-13.65v-20.18a6.43 6.43 0 0 0-.38-2.75q-.38-.66-1.64-.66a6.21 6.21 0 0 0-.63 0 6.23 6.23 0 0 1-.63 0 4.61 4.61 0 0 1-.76.06l-.13-.25.57-4.17 3.16.13q1.39.06 2.94.06h5.18q1.29 0 2.5-.16 1.39-.06 2.78-.19l-.44 4.3a4.62 4.62 0 0 0-2.72 1 3.79 3.79 0 0 0-.82 2.37zm83.79.06l-.13-18.87a3.84 3.84 0 0 0-.54-2.08 1.81 1.81 0 0 0-1.55-.63h-2.15l-.25-.51.44-3.92 3 .13q1.26.06 2.65.09h4.92q1.32 0 2.4-.09 1.26-.06 2.59-.19l-.32 4.23a5.46 5.46 0 0 0-3 1.2 3.91 3.91 0 0 0-1 2.78l-.82 33.55-6.7.82q-3.73-5.94-7-11t-5.84-8.88q-3-4.42-5.5-8.15h-.63l-.06 19.46a3.83 3.83 0 0 0 .47 2.21 2 2 0 0 0 1.67.63h.73a6.49 6.49 0 0 0 .92-.06l1.07-.13.38.44-.63 4-3-.13q-1.26-.06-2.68-.09h-2.43q-1.26 0-2.65.06t-2.53.19l-2.59.25.5-4.23a4.6 4.6 0 0 0 2.78-1.17 4.12 4.12 0 0 0 .95-2.81l.82-25a3.38 3.38 0 0 0-1-2.81 8.74 8.74 0 0 0-4.11-1.11l-.5-.63.44-3.66q1.26.13 2.53.19 1.07.06 2.34.09t2.46 0h2.08q1.08 0 2-.09l2-.13q3.1 5.06 6.1 9.73t5.4 8.28q2.78 4.23 5.37 8zm51.74-18.51q-.19 2.84-.32 6.16t-.22 6.67q-.09 3.35-.16 6.48t-.06 5.65a8.17 8.17 0 0 0 .47 3.44 2 2 0 0 0 1.93.85h1a5.35 5.35 0 0 0 .88-.06l.82-.13.32.44-.57 4q-1.9 0-3.66-.06-1.52-.06-3.1-.09h-2.65q-1.33 0-2.87.09t-2.87.22l-3.1.25.44-4.11a6.64 6.64 0 0 0 3.7-1.64 5.69 5.69 0 0 0 .92-3.66l.06-24.32a5.25 5.25 0 0 0-.44-2.62 2.08 2.08 0 0 0-1.83-.66H434l-.32-.51.44-3.73h11.44q1.48 0 2.94-.16l3.47-.25-.38 4.23a6.71 6.71 0 0 0-3.19 1 3.22 3.22 0 0 0-.87 2.52zm33.92.82a5.52 5.52 0 0 0-1.67-2.91 5.37 5.37 0 0 0-3.06-1l-.25-.44.44-3.79q1.52.06 3 .06 1.26.06 2.59.06h2.4q1.77 0 3.66-.06t3.48-.19l3.6-.25.38.5-.32 3.85q-1.58.13-2.53.29a5.87 5.87 0 0 0-1.48.41 1.27 1.27 0 0 0-.7.66 2.94 2.94 0 0 0-.16 1 12.5 12.5 0 0 0 .25 1.8q.25 1.36.63 3.25t.88 4.2q.51 2.31 1.07 4.64 1.26 5.5 2.91 12.13h.95q.44-1.07 1.2-3.32t1.64-5q.88-2.78 1.8-5.75t1.64-5.5q.73-2.53 1.2-4.36a13 13 0 0 0 .47-2.34 1.66 1.66 0 0 0-.69-1.52 5.1 5.1 0 0 0-2.53-.44h-2.46l-.32-.44.44-3.92q1.52.13 3.16.19 1.39.06 3 .09t3.16 0h2.53q1.26 0 2.34-.06t2.46-.06l-.44 4.17a3.93 3.93 0 0 0-2.15.88 6.76 6.76 0 0 0-1.26 2.4L501.1 164.4l-10.42 1.26q-1.64-6.25-3.29-12.32l-1.45-5.37q-.75-2.78-1.55-5.56-.79-2.78-1.55-5.4t-1.39-4.83zm73.29 23.76a12.74 12.74 0 0 0 .13 2 1.91 1.91 0 0 0 .54 1.14 2.3 2.3 0 0 0 1.23.51 14.58 14.58 0 0 0 2.15.13 40.19 40.19 0 0 0 4.71-.22 6 6 0 0 0 2.84-1 4.26 4.26 0 0 0 1.52-2.18 21.46 21.46 0 0 0 .79-3.82l5.37-.44.44.63q-.32 1.71-.63 3.6-.32 1.64-.6 3.76t-.54 4.39l-.57.7q-3.48-.06-7-.19-3-.13-6.41-.19t-6.35-.06q-2.15 0-4.11.09t-3.47.22q-1.77.19-3.41.32l.5-4.3a5.64 5.64 0 0 0 3.6-1.52 6.2 6.2 0 0 0 .95-3.92l.06-23.94a6 6 0 0 0-.41-2.72 1.79 1.79 0 0 0-1.67-.7 5.32 5.32 0 0 0-.6 0 5.35 5.35 0 0 1-.6 0 3.56 3.56 0 0 1-.7.06l-.44-.57.5-3.85 4 .13q1.77.06 3.79.06h3.85a168.41 168.41 0 0 0 19.21-.76l.5.69q-.38 1.64-.63 3.54-.25 1.64-.47 3.7t-.35 4.26l-5.81.38a6.75 6.75 0 0 1 .06-.95v-1.58a6.85 6.85 0 0 0-.25-2.08 2.12 2.12 0 0 0-1.07-1.2 6.3 6.3 0 0 0-2.4-.57q-1.58-.13-4.23-.13c-.76 0-1.35 0-1.77.06a2.27 2.27 0 0 0-1 .28 1.1 1.1 0 0 0-.47.63 3.86 3.86 0 0 0-.13 1.11l-.44 9.79h5.88q.76 0 2-.06t2.43-.19l2.91-.25.51.57-.88 5.43q-1.45 0-2.91-.06-1.26-.06-2.68-.09h-2.62q-1.45 0-2.72.13t-2.08.25q-.13 3.47-.16 5.53t.11 3.45zm60.58-7.08l-.06 6.95a19.88 19.88 0 0 0 .13 2.53 2.56 2.56 0 0 0 .6 1.45 2.35 2.35 0 0 0 1.36.66 18.69 18.69 0 0 0 2.4.22l.25.38-.63 3.92-3.16-.09-2.78-.06h-5.53q-1.55 0-2.91.09-1.58.06-3.1.19l.57-4.23a4.2 4.2 0 0 0 4.49-5.18l.06-24.32a5 5 0 0 0-.41-2.46 1.79 1.79 0 0 0-1.61-.63h-1.46a4.62 4.62 0 0 1-.76.06l-.32-.51.51-3.85q1.52.06 3 .06 1.26.06 2.62.06h4.9q1.64 0 3.22-.09 1.83-.06 3.85-.19 7.26 0 11.12 2.78a9.35 9.35 0 0 1 3.85 8.09 11.54 11.54 0 0 1-2.18 6.85 17.41 17.41 0 0 1-6.29 5.21l5.5 8.84a17.16 17.16 0 0 0 3.38 4.17 5.56 5.56 0 0 0 3.63 1.33l.44.57-.44 3.35-7.52.7q-4.17 0-6.89-5.87l-5.43-11zm5.88-5.05a12.5 12.5 0 0 0 1.39-.66 7.29 7.29 0 0 0 1.77-1.39 8.52 8.52 0 0 0 1.55-2.34 8.28 8.28 0 0 0 .66-3.51q0-6.82-9.41-6.82c-.46 0-.76.08-.88.25a2.48 2.48 0 0 0-.25 1.14q-.25 3.79-.35 6.79t-.16 5.91zm55.66 21.66a27.12 27.12 0 0 1-4.55-.35 22 22 0 0 1-3.48-.85 18.93 18.93 0 0 1-3.1-1.2l-.5-.88q.25-1.64.5-3.41.19-1.52.32-3.44t.19-3.89l5.31-.44a22.09 22.09 0 0 0 .35 4.3A6.45 6.45 0 0 0 673 158a4.16 4.16 0 0 0 2.12 1.42 11.49 11.49 0 0 0 3.35.41 7.83 7.83 0 0 0 4.8-1.33 4.2 4.2 0 0 0 1.77-3.54 3.69 3.69 0 0 0-.79-2.34 9 9 0 0 0-2.12-1.9 23.47 23.47 0 0 0-3-1.67q-1.68-.79-3.44-1.67t-3.63-1.93a16.86 16.86 0 0 1-3.22-2.4 11 11 0 0 1-2.27-3.06 8.8 8.8 0 0 1-.85-4 10.4 10.4 0 0 1 1.26-5.08 12.5 12.5 0 0 1 3.47-4 16.92 16.92 0 0 1 5.31-2.62 23.22 23.22 0 0 1 6.82-.95 30.52 30.52 0 0 1 4.36.28q2 .28 3.41.6 1.64.38 3.1.82l.44.82q-.32 1.52-.57 3.29-.25 1.52-.54 3.47t-.41 4.11l-4.8.38-.57-.44v-2.21q0-2.78-1.39-3.95T681 129.4a7.12 7.12 0 0 0-4.33 1.23 3.85 3.85 0 0 0-1.67 3.25 3.67 3.67 0 0 0 .69 2.18 7.82 7.82 0 0 0 1.83 1.8 20.09 20.09 0 0 0 2.62 1.58q1.48.76 3.13 1.52 2 .95 4 2a20.68 20.68 0 0 1 3.63 2.43 11.44 11.44 0 0 1 2.62 3.16 8.32 8.32 0 0 1 1 4.14 10.85 10.85 0 0 1-1.26 5.24 12 12 0 0 1-3.57 4 17.38 17.38 0 0 1-5.56 2.59 26.68 26.68 0 0 1-7.27.95zm59.38-34.11q-.19 2.84-.32 6.16t-.22 6.67q-.09 3.35-.16 6.48t-.06 5.65a8.17 8.17 0 0 0 .47 3.44 2 2 0 0 0 1.93.85h1a5.35 5.35 0 0 0 .88-.06l.82-.13.32.44-.57 4q-1.9 0-3.66-.06-1.52-.06-3.1-.09h-2.65q-1.33 0-2.87.09t-2.87.22l-3.1.25.44-4.11a6.64 6.64 0 0 0 3.7-1.64 5.69 5.69 0 0 0 .92-3.66l.06-24.32a5.25 5.25 0 0 0-.44-2.62 2.08 2.08 0 0 0-1.83-.66h-2.22l-.32-.51.44-3.73h11.4q1.48 0 2.94-.16l3.47-.25-.38 4.23a6.71 6.71 0 0 0-3.19 1 3.22 3.22 0 0 0-.83 2.52zm43.03-2.21a25.47 25.47 0 0 0-4 .35 4 4 0 0 0-2.24 1.14 4.92 4.92 0 0 0-1.11 2.43q-.32 1.58-.63 4.3l-5.31.38q.13-2.15.32-4.49.13-2 .22-4.36t.16-4.74l.7-.69 6.38.69h19.65l6.51-.69.69.69q.06 2.4.16 4.74t.22 4.23l.25 4.23-5.31.38q-.38-2.9-.7-4.58a5.22 5.22 0 0 0-1.07-2.53 3.77 3.77 0 0 0-2.16-1.13 22.17 22.17 0 0 0-3.76-.35q-.13 2.08-.25 5.28t-.22 6.85q-.1 3.67-.16 7.55t-.06 7.36a5.34 5.34 0 0 0 .79 3.35 3.32 3.32 0 0 0 2.69.95h1.29a9 9 0 0 0 1.11-.06l.95-.13.25.32L794 165l-4.3-.13q-1.77-.06-3.6-.09H783q-1.33 0-3.16.06l-3.48.13q-2 .13-4 .19l.5-4.17a21.82 21.82 0 0 0 3.32-.5 3.88 3.88 0 0 0 1.9-1 3.63 3.63 0 0 0 .88-1.9 18.56 18.56 0 0 0 .22-3.22zm59.38.69a8.83 8.83 0 0 0 .76 2.43q.76 1.86 1.71 4t1.8 4.07l1.11 2.46h.63l5-10.42a7.05 7.05 0 0 0 .88-3 1.06 1.06 0 0 0-.76-1 8.62 8.62 0 0 0-2.46-.44l-.13-.32.44-3.66h1.58l2.18.09q1.17.06 2.37.1t2.27 0h2.21q1.14 0 2.08-.1l2.15-.13.25.44-.44 3.85a10.19 10.19 0 0 0-2.31 1.07 9.13 9.13 0 0 0-1.83 1.58 15.2 15.2 0 0 0-1.67 2.31q-.82 1.36-1.83 3.13l-6.07 11.31a9.46 9.46 0 0 0-.66 1.67 10.23 10.23 0 0 0-.32 1.8q-.09 1-.13 2.27t0 3a5.6 5.6 0 0 0 .57 3.22 2.77 2.77 0 0 0 2.4.88h1a8.43 8.43 0 0 0 1-.06l1.07-.13.19.32-.57 4.36-4-.13q-1.64-.06-3.41-.09h-3q-1.39 0-3.06.13l-3.19.25q-1.77.19-3.6.32l.44-4.36a19.57 19.57 0 0 0 3-.6 3.76 3.76 0 0 0 1.74-1 3.38 3.38 0 0 0 .79-1.71 15 15 0 0 0 .19-2.62v-1.9a11.14 11.14 0 0 0-.38-3 19.22 19.22 0 0 0-1.45-3.44L831 134.71q-.7-1.39-1.36-2.46a9.32 9.32 0 0 0-1.45-1.83 6.54 6.54 0 0 0-1.83-1.23 12.53 12.53 0 0 0-2.5-.79l-.19-.32.51-4 3.1.13q1.26.06 2.68.06h2.37q1.2 0 2.91-.06t3.35-.19l3.85-.25.32.57-.32 3.66a8.53 8.53 0 0 0-3 .54 1.41 1.41 0 0 0-.79 1.3z" fill="#ac9363"></path></svg>
