<?xml version="1.0" encoding="utf-8"?>
<!-- Generator: Adobe Illustrator 22.0.1, SVG Export Plug-In . SVG Version: 6.00 Build 0)  -->
<svg version="1.1" id="Layer_1" xmlns="http://www.w3.org/2000/svg" xmlns:xlink="http://www.w3.org/1999/xlink" x="0px" y="0px"
	 viewBox="0 0 325.3 97.1" style="enable-background:new 0 0 325.3 97.1;" xml:space="preserve">
<style type="text/css">
	.st0{fill:#5B7E96;}
	.st1{fill:#3D7CC9;}
</style>
<path class="st0" d="M100.2,63.1c-0.7,0.4-1.6,0.6-2.5,0.6c-0.6,0-1.3-0.1-1.9-0.4c-0.6-0.3-1.2-0.6-1.7-1.1c-0.5-0.5-0.9-1-1.2-1.7
	c-0.3-0.7-0.5-1.4-0.5-2.3c0-0.8,0.1-1.5,0.4-2.2c0.3-0.7,0.6-1.3,1.1-1.7c0.5-0.5,1-0.9,1.7-1.2c0.6-0.3,1.4-0.4,2.1-0.4
	c1,0,1.8,0.2,2.4,0.5c0.6,0.3,1.1,0.7,1.6,1.2l-1.1,1c-0.4-0.4-0.8-0.7-1.3-0.9c-0.5-0.2-1-0.3-1.6-0.3c-0.5,0-1,0.1-1.5,0.3
	c-0.5,0.2-0.9,0.5-1.2,0.8c-0.3,0.3-0.6,0.8-0.8,1.3c-0.2,0.5-0.3,1-0.3,1.7c0,0.7,0.1,1.3,0.4,1.8c0.2,0.5,0.5,0.9,0.9,1.3
	c0.4,0.3,0.8,0.6,1.2,0.8c0.4,0.2,0.9,0.3,1.3,0.3c0.5,0,1-0.1,1.6-0.3c0.6-0.2,1.1-0.6,1.5-1.1l1,0.9
	C101.5,62.2,101,62.7,100.2,63.1"/>
<polygon class="st0" points="108.9,63.5 108.9,52.9 114.8,52.9 114.8,54.2 110.3,54.2 110.3,57.6 114.7,57.6 114.7,59 110.3,59 
	110.3,62.1 115.1,62.1 115.1,63.5 "/>
<path class="st0" d="M129.4,63.5l-5.6-7.7c0,0,0,0-0.1-0.1c0,0,0-0.1-0.1-0.1c0,0-0.1-0.1-0.1-0.1c0,0,0,0.1,0,0.1c0,0,0,0.1,0,0.1
	c0,0,0,0.1,0,0.1v7.6h-1.5V52.9h1.2l5.5,7.6c0,0,0,0.1,0.1,0.1s0,0.1,0.1,0.1c0,0,0,0.1,0.1,0.1c0,0,0-0.1,0-0.1c0,0,0-0.1,0-0.2
	v-7.5h1.5v10.6H129.4z"/>
<polygon class="st0" points="141.1,54.2 141.1,63.5 139.6,63.5 139.6,54.2 137.4,54.2 137.4,52.9 143.3,52.9 143.3,54.2 "/>
<path class="st0" d="M156,63.5l-4.3-5v5h-1.5V52.9h3.4c0.5,0,0.9,0.1,1.3,0.2c0.4,0.2,0.8,0.4,1,0.7c0.3,0.3,0.5,0.6,0.7,1
	c0.2,0.4,0.2,0.8,0.2,1.2c0,0.4-0.1,0.8-0.2,1.2c-0.2,0.4-0.4,0.7-0.7,1c-0.3,0.3-0.6,0.5-1,0.6c-0.4,0.2-0.7,0.2-1.1,0.2l3.9,4.5
	H156z M155.5,55.9c0-0.2,0-0.4-0.1-0.6c-0.1-0.2-0.2-0.4-0.4-0.5c-0.2-0.2-0.4-0.3-0.6-0.4c-0.3-0.1-0.6-0.2-0.9-0.2h-1.7v3.6h1.7
	c0.7,0,1.2-0.2,1.5-0.5C155.3,57,155.5,56.5,155.5,55.9"/>
<path class="st0" d="M171.3,63.5l-1.3-3.4h-3.4l-1.3,3.4h-1.5l4.1-10.6h0.9l4.1,10.6H171.3z M168.4,55.7
	C168.4,55.7,168.4,55.6,168.4,55.7c0-0.1,0-0.2-0.1-0.2c0,0,0-0.1,0-0.1c0,0,0,0.1,0,0.1c0,0,0,0.1,0,0.1c0,0,0,0.1,0,0.1l-1.1,3
	h2.4L168.4,55.7z"/>
<polygon class="st0" points="179.7,63.5 179.7,52.9 181.1,52.9 181.1,62.1 185.1,62.1 185.1,63.5 "/>
<path class="st0" d="M207.3,61.2c-0.2,0.5-0.5,1-0.9,1.3c-0.4,0.4-0.8,0.6-1.3,0.8c-0.5,0.2-1.1,0.3-1.7,0.3c-0.6,0-1.2-0.1-1.7-0.3
	c-0.5-0.2-0.9-0.5-1.3-0.8c-0.4-0.4-0.6-0.8-0.9-1.3c-0.2-0.5-0.3-1.1-0.3-1.8v-6.6h1.5v6.6c0,0.5,0.1,1,0.2,1.3
	c0.1,0.4,0.3,0.6,0.6,0.9c0.2,0.2,0.5,0.4,0.9,0.5c0.3,0.1,0.7,0.2,1,0.2c0.4,0,0.7,0,1-0.2c0.3-0.1,0.6-0.3,0.9-0.5
	c0.3-0.2,0.5-0.5,0.6-0.9c0.2-0.4,0.2-0.8,0.2-1.3v-6.6h1.4v6.6C207.6,60.1,207.5,60.7,207.3,61.2"/>
<path class="st0" d="M222.2,63.5l-5.6-7.7c0,0,0,0-0.1-0.1c0,0,0-0.1-0.1-0.1c0,0-0.1-0.1-0.1-0.1c0,0,0,0.1,0,0.1c0,0,0,0.1,0,0.1
	c0,0,0,0.1,0,0.1v7.6H215V52.9h1.2l5.5,7.6c0,0,0,0.1,0.1,0.1s0,0.1,0.1,0.1c0,0,0,0.1,0.1,0.1c0,0,0-0.1,0-0.1c0,0,0-0.1,0-0.2
	v-7.5h1.5v10.6H222.2z"/>
<rect x="230.8" y="52.9" class="st0" width="1.5" height="10.6"/>
<path class="st0" d="M243.6,63.5h-0.9L239,52.9h1.4l2.7,7.7c0,0,0,0.1,0,0.1s0,0.1,0,0.1c0,0,0,0.1,0,0.1c0,0,0-0.1,0-0.1
	c0,0,0-0.1,0-0.1c0,0,0-0.1,0-0.1l2.7-7.7h1.4L243.6,63.5z"/>
<polygon class="st0" points="254.1,63.5 254.1,52.9 260,52.9 260,54.2 255.5,54.2 255.5,57.6 259.9,57.6 259.9,59 255.5,59 
	255.5,62.1 260.3,62.1 260.3,63.5 "/>
<path class="st0" d="M273.1,63.5l-4.3-5v5h-1.5V52.9h3.4c0.5,0,0.9,0.1,1.3,0.2c0.4,0.2,0.7,0.4,1,0.7c0.3,0.3,0.5,0.6,0.7,1
	c0.2,0.4,0.2,0.8,0.2,1.2c0,0.4-0.1,0.8-0.2,1.2c-0.2,0.4-0.4,0.7-0.7,1c-0.3,0.3-0.6,0.5-1,0.6c-0.4,0.2-0.7,0.2-1.1,0.2l3.9,4.5
	H273.1z M272.6,55.9c0-0.2,0-0.4-0.1-0.6s-0.2-0.4-0.4-0.5c-0.2-0.2-0.4-0.3-0.6-0.4c-0.3-0.1-0.6-0.2-0.9-0.2h-1.7v3.6h1.7
	c0.7,0,1.2-0.2,1.5-0.5C272.4,57,272.6,56.5,272.6,55.9"/>
<path class="st0" d="M287.5,60.7c0,0.5-0.1,0.9-0.3,1.3c-0.2,0.4-0.4,0.7-0.7,0.9c-0.3,0.3-0.6,0.5-1,0.6s-0.8,0.2-1.3,0.2
	c-0.5,0-1.1-0.1-1.6-0.2c-0.5-0.2-1-0.4-1.5-0.8l0.8-1.1c0.1,0.1,0.3,0.2,0.5,0.3c0.2,0.1,0.4,0.2,0.6,0.2c0.2,0.1,0.4,0.1,0.6,0.2
	c0.2,0,0.4,0.1,0.6,0.1c0.5,0,1-0.1,1.3-0.4c0.3-0.2,0.5-0.6,0.5-1.1c0-0.2,0-0.4-0.1-0.6c-0.1-0.2-0.2-0.3-0.4-0.5
	c-0.2-0.2-0.3-0.3-0.6-0.4c-0.2-0.1-0.4-0.2-0.7-0.4c-0.4-0.2-0.8-0.4-1.1-0.6c-0.4-0.2-0.7-0.4-1-0.7c-0.3-0.3-0.5-0.6-0.7-0.9
	c-0.2-0.4-0.3-0.8-0.3-1.3c0-0.4,0.1-0.8,0.2-1.1c0.1-0.3,0.3-0.6,0.6-0.9c0.3-0.2,0.6-0.4,1-0.6c0.4-0.1,0.8-0.2,1.3-0.2
	c0.5,0,1,0.1,1.5,0.2c0.5,0.2,0.9,0.4,1.3,0.7l-0.8,1.2c-0.3-0.2-0.7-0.4-1-0.5c-0.3-0.1-0.7-0.2-1.1-0.2c-0.4,0-0.8,0.1-1.1,0.3
	c-0.3,0.2-0.5,0.5-0.5,0.9c0,0.3,0.1,0.5,0.2,0.7c0.1,0.2,0.3,0.4,0.5,0.5c0.2,0.2,0.5,0.3,0.7,0.5c0.3,0.1,0.6,0.3,0.9,0.5
	c0.3,0.1,0.6,0.3,0.9,0.5c0.3,0.2,0.6,0.4,0.8,0.6c0.2,0.2,0.4,0.5,0.6,0.9C287.4,59.8,287.5,60.2,287.5,60.7"/>
<rect x="294.4" y="52.9" class="st0" width="1.5" height="10.6"/>
<polygon class="st0" points="306.4,54.2 306.4,63.5 304.9,63.5 304.9,54.2 302.7,54.2 302.7,52.9 308.6,52.9 308.6,54.2 "/>
<path class="st0" d="M319.9,58.6v4.9h-1.5v-4.9l-3.7-5.7h1.7l2.6,4c0,0,0,0,0.1,0.1c0,0,0,0.1,0.1,0.1c0,0,0,0.1,0.1,0.1
	c0,0,0-0.1,0.1-0.1c0,0,0-0.1,0.1-0.1c0,0,0-0.1,0.1-0.1l2.6-4h1.7L319.9,58.6z"/>
<path class="st1" d="M106.4,48.1c-1.9,0.9-4.3,1.4-7.2,1.4c-2.5,0-4.8-0.4-6.8-1.2c-2.1-0.8-3.8-1.9-5.3-3.4
	c-1.5-1.5-2.6-3.3-3.4-5.4c-0.8-2.1-1.2-4.5-1.2-7.1c0-2.4,0.4-4.7,1.3-6.7c0.9-2,2-3.8,3.5-5.3c1.5-1.5,3.2-2.6,5.3-3.5
	c2-0.8,4.2-1.2,6.5-1.2c2.4,0,4.6,0.4,6.4,1.1s3.7,2,5.4,3.7l-4,4.7c-2.2-2.2-4.8-3.3-7.8-3.3c-1.4,0-2.7,0.3-3.8,0.8
	c-1.1,0.5-2.1,1.2-2.9,2.2c-0.8,0.9-1.4,2-1.8,3.3c-0.4,1.3-0.7,2.7-0.7,4.2c0,3.4,0.8,6,2.4,7.9c1.6,1.9,3.9,2.9,6.9,2.9
	c1,0,1.9-0.1,2.7-0.3c0.8-0.2,1.5-0.5,2.2-0.8c0.6-0.3,1.2-0.7,1.8-1.2c0.5-0.4,1.1-0.9,1.6-1.4l4.1,4.7
	C110.1,45.8,108.3,47.1,106.4,48.1"/>
<path class="st1" d="M148.5,32.5c0,2.4-0.4,4.6-1.2,6.7c-0.8,2.1-1.9,3.9-3.4,5.4c-1.5,1.5-3.3,2.8-5.3,3.6
	c-2.1,0.9-4.4,1.3-6.9,1.3c-2.5,0-4.8-0.4-6.9-1.3c-2.1-0.9-3.8-2.1-5.3-3.7c-1.5-1.6-2.6-3.4-3.4-5.4c-0.8-2.1-1.2-4.3-1.2-6.6
	c0-2.4,0.4-4.6,1.2-6.6c0.8-2,1.9-3.8,3.4-5.3c1.5-1.5,3.3-2.7,5.3-3.6c2.1-0.9,4.4-1.3,6.9-1.3c2.5,0,4.8,0.4,6.9,1.3
	c2.1,0.8,3.8,2,5.3,3.5c1.5,1.5,2.6,3.2,3.4,5.3C148.1,27.8,148.5,30,148.5,32.5 M141.1,32.5c0-1.4-0.2-2.8-0.7-4.1
	c-0.4-1.3-1.1-2.4-1.9-3.3c-0.8-1-1.8-1.7-3-2.3c-1.2-0.6-2.4-0.8-3.9-0.8c-1.4,0-2.7,0.3-3.9,0.9c-1.2,0.6-2.2,1.4-3,2.3
	c-0.8,1-1.5,2.1-1.9,3.3c-0.5,1.3-0.7,2.6-0.7,3.9c0,1.5,0.3,2.9,0.8,4.2c0.5,1.3,1.2,2.5,2,3.4c0.9,1,1.8,1.7,3,2.3
	c1.1,0.6,2.3,0.8,3.6,0.8c1.5,0,2.8-0.3,4-0.9c1.2-0.6,2.2-1.4,3-2.4c0.8-1,1.4-2.2,1.9-3.5C140.9,35.2,141.1,33.8,141.1,32.5"/>
<polygon class="st1" points="153.6,48.9 153.6,16.2 160.8,16.2 160.8,42.9 172.4,42.9 172.4,48.9 "/>
<path class="st1" d="M204.3,41.6c-0.8,1.7-1.8,3.2-3.1,4.3c-1.3,1.2-2.8,2-4.6,2.6c-1.7,0.6-3.6,0.9-5.5,0.9c-1.9,0-3.7-0.3-5.4-0.9
	c-1.7-0.6-3.2-1.5-4.5-2.6c-1.3-1.2-2.3-2.6-3-4.3c-0.7-1.7-1.1-3.7-1.1-5.9V16.2h7.2v19.4c0,1.1,0.2,2.1,0.5,3.1
	c0.3,0.9,0.8,1.7,1.4,2.4c0.6,0.7,1.3,1.2,2.1,1.6c0.8,0.4,1.7,0.6,2.7,0.6c1,0,2-0.2,2.8-0.6c0.9-0.4,1.6-0.9,2.3-1.6
	c0.7-0.7,1.2-1.5,1.5-2.4c0.4-0.9,0.6-2,0.6-3.1V16.2h7.1v19.4C205.5,37.9,205.1,39.9,204.3,41.6"/>
<path class="st1" d="M237.5,48.9V30.1v-0.8c0-0.3,0-0.5,0-0.7c0-0.2,0.1-0.5,0.1-0.7c-0.1,0.1-0.1,0.3-0.2,0.4
	c-0.1,0.1-0.1,0.3-0.2,0.4c-0.1,0.1-0.1,0.3-0.2,0.4l-7.3,13.4H227l-7.4-13.4c-0.1-0.2-0.3-0.5-0.4-0.9c-0.1-0.1-0.1-0.3-0.2-0.4
	c0,0.2,0,0.5,0,0.7c0,0.2,0.1,0.5,0.1,0.7c0,0.3,0,0.5,0,0.8v18.9H212V16.2h7l8.8,16c0.1,0.1,0.2,0.3,0.2,0.5
	c0.1,0.2,0.1,0.3,0.2,0.5c0.1,0.2,0.1,0.3,0.2,0.5c0.1-0.1,0.1-0.3,0.2-0.5c0.1-0.1,0.1-0.3,0.2-0.5c0.1-0.2,0.1-0.3,0.2-0.5l8.3-16
	h7.3v32.7H237.5z"/>
<path class="st1" d="M275.8,39.7c0,1.5-0.3,2.8-0.9,3.9c-0.6,1.2-1.4,2.1-2.4,2.9c-1,0.8-2.3,1.4-3.8,1.8c-1.5,0.4-3.2,0.6-5,0.6
	h-12.4V16.2h11.3c1.7,0,3.3,0.2,4.7,0.6c1.4,0.4,2.6,1,3.6,1.7c1,0.7,1.8,1.7,2.3,2.8c0.5,1.1,0.8,2.3,0.8,3.7
	c0,1.6-0.5,3.1-1.4,4.3c-0.9,1.2-2.1,2.1-3.5,2.7c0.9,0.1,1.8,0.4,2.6,0.9c0.8,0.4,1.5,1,2.1,1.7c0.6,0.7,1,1.5,1.4,2.4
	C275.6,37.8,275.8,38.7,275.8,39.7 M267.1,25.9c0-1.4-0.4-2.3-1.3-2.8c-0.9-0.5-2.1-0.8-3.7-0.8h-3.5v7.6h3.5
	C265.4,29.9,267.1,28.5,267.1,25.9 M268.4,39.3c0-1.1-0.4-2-1.2-2.5c-0.8-0.6-1.9-0.8-3.4-0.8h-5.2v7h5.2c1.7,0,2.9-0.3,3.6-1
	C268.1,41.3,268.4,40.4,268.4,39.3"/>
<rect x="281" y="16.2" class="st1" width="7.2" height="32.7"/>
<path class="st1" d="M314.8,48.9l-2.5-8.2h-9.9l-2.6,8.2h-7.6l11.7-32.7h6.9l11.9,32.7H314.8z M308,26.7c-0.2-0.7-0.4-1.2-0.5-1.7
	c-0.1-0.3-0.2-0.6-0.2-0.9c-0.1,0.3-0.1,0.6-0.2,0.9c-0.1,0.2-0.1,0.5-0.2,0.9c-0.1,0.3-0.2,0.6-0.2,0.9l-2.5,8h6.3L308,26.7z"/>
<path class="st0" d="M79.5,52.8c-2.8,5.4-7.4,9.9-13.4,12.5C52.5,71,36.8,64.7,31,51.1C25.2,37.5,31.6,21.8,45.2,16
	c3.9-1.7,7.9-2.3,11.9-2.1c0.3-0.8,0.7-1.6,1.1-2.3c-6-0.8-12.2-0.1-18.1,2.4c-17.4,7.4-25.5,27.5-18.1,44.9
	c7.4,17.4,27.5,25.5,45,18.1C77.5,72.5,84.7,63.3,87,52.8C84.5,53.1,82,53.1,79.5,52.8"/>
<path class="st1" d="M70.1,27.9c1.6,3.6,1.9,7.7,0.7,11.7c-2.7,9.1-12.1,14.3-21.2,11.6C40.5,48.6,35.3,39,38,30
	c0.8-2.6,2.1-4.9,3.8-6.7c-0.3-0.5-0.5-1-0.7-1.5c-2.8,2.6-5,6-6.1,9.9c-3.4,11.6,3.3,23.8,14.9,27.2c11.6,3.4,23.7-3.3,27.1-14.9
	c2.1-7.1,0.4-14.3-3.8-19.7C72.2,25.6,71.2,26.8,70.1,27.9"/>
<path class="st1" d="M51.3,48.4c-4.1-11,1.4-18.2,3.5-18.6c2.1-0.4-0.2,10.6-0.2,10.6s2.5-4.4,3.1-3.5c2,1.4-0.2,7.6-0.2,7.6
	s4.9-3.9,5.3-8.4c1.9,5-4.9,12.3-4.9,12.8c0,0.5,7.3-5.6,6.9-11.3c-0.5-5.8-3.3-9.5-3-15.1c-1.9,0-2,6.8-2,6.8s-2.5-6.9,0.5-13.3
	c-1.8,0.5-8,4.9-10.8,11.8C46.8,34.9,45.1,44.6,51.3,48.4"/>
<path class="st1" d="M84.1,67.3c-7,9.9-18.5,16.3-31.6,16.3c-21.4,0-38.7-17.3-38.7-38.7c0-14.8,8.4-27.7,20.6-34.2
	c3.7-2.2,7.9-3.9,12.4-4.7c5.8-1.1,11.6-0.8,17,0.7c0.7-1,1.5-1.9,2.3-2.9C58.2,1,49.4,0,40.5,1.7C14.4,6.6-2.9,31.6,2,57.7
	C6.9,83.8,32,101,58.1,96.2c15.9-3,28.5-13.4,34.8-27C89.9,68.9,86.9,68.2,84.1,67.3"/>
</svg>
