<?xml version="1.0" encoding="utf-8"?>
<!-- Generator: Adobe Illustrator 20.1.0, SVG Export Plug-In . SVG Version: 6.00 Build 0)  -->
<!DOCTYPE svg PUBLIC "-//W3C//DTD SVG 1.1//EN" "http://www.w3.org/Graphics/SVG/1.1/DTD/svg11.dtd">
<svg version="1.1" id="Layer_1" xmlns="http://www.w3.org/2000/svg" xmlns:xlink="http://www.w3.org/1999/xlink" x="0px" y="0px"
	 viewBox="0 0 539.5 57.1" style="enable-background:new 0 0 539.5 57.1;" xml:space="preserve">
<style type="text/css">
	.st0{fill:#0069AA;}
	.st1{fill:#010101;}
</style>
<g>
	<path class="st0" d="M13.2,23.6l0.9-0.1c1.3-0.2,1.5-0.6,0.9-2.1c-0.5-1.1-1.1-3-1.6-4.2H7.2c-0.4,1-0.9,2.5-1.3,4
		c-0.5,1.7-0.5,2.1,1.1,2.3l0.9,0.1v1.1H0v-1.1c2.1-0.2,2.5-0.4,3.8-3.5l7-17.9l1.7-0.5l2.3,6.5c1.5,4.1,3,8.3,4.3,11.8
		c1.2,3.3,1.8,3.4,3.6,3.7v1.1h-9.5V23.6z M7.7,15.4h5.1l-2.5-7.2h-0.1L7.7,15.4z"/>
	<path class="st0" d="M26.7,13.5c0-2.1-0.1-2.1-2.2-2.4v-0.9c2-0.2,4.2-0.7,6.5-1.2v2.5c0.6-0.5,1.2-0.8,1.8-1.3C34,9.4,34.8,9,36,9
		c2,0,3.6,1.1,4.2,2.6c0.7-0.5,1.5-1,2.2-1.5c1.1-0.7,1.8-1.1,3-1.1c3,0,4.6,2,4.6,4.7v7.6c0,2,0.2,2.1,2.1,2.3v1.1h-8.2v-1.1
		c1.7-0.2,1.8-0.3,1.8-2.3v-6.8c0-2.1-1-2.9-2.4-2.9c-0.8,0-1.7,0.3-3,1.3c0,0.2,0,0.5,0,0.7v7.7c0,2,0.2,2.1,1.8,2.3v1.1h-7.9v-1.1
		c1.7-0.2,1.8-0.3,1.8-2.3v-6.8c0-2.1-1-2.9-2.3-2.9c-0.9,0-1.9,0.5-3,1.3v8.4c0,2,0.2,2.1,1.6,2.3v1.1h-8.4v-1.1
		c2.3-0.2,2.5-0.3,2.5-2.3V13.5z"/>
	<path class="st0" d="M68.1,21.4c-2,3-4.7,3.8-5.9,3.8c-4.7,0-7.4-3.5-7.4-7.4c0-5,3.8-8.8,8-8.8c3,0,5.4,2.5,5.4,5.3
		c0,1.3-0.1,1.4-0.8,1.5c-0.5,0.1-5.1,0.4-8.6,0.6c0,3.9,2.4,5.7,5,5.7c1.3,0,2.4-0.4,3.8-1.4L68.1,21.4z M63.6,14.7
		c0.5,0,0.7-0.1,0.7-0.8c0-1.4-1.1-3.3-2.4-3.3c-1.3,0-2.6,1.8-2.8,4.2L63.6,14.7z"/>
	<path class="st0" d="M77.2,21.3c0,2,0.2,2.1,2.9,2.3v1.1h-9.5v-1.1c2.2-0.2,2.4-0.4,2.4-2.3v-7.7c0-2.1-0.1-2.2-2.3-2.4v-0.9
		c2-0.3,4.2-0.8,6.5-1.3v3.4h0.1c0.5-0.7,1-1.5,1.6-2.2C79.6,9.5,80.3,9,81.2,9c1.3,0,2.3,1,2.3,2.1c0,1.1-0.8,2.2-1.6,2.5
		c-0.5,0.2-0.8,0.1-1.1-0.1c-0.6-0.5-1.2-0.7-1.7-0.7c-0.6,0-1.3,0.2-1.9,1.7V21.3z"/>
	<path class="st0" d="M88.4,13.6c0-2.1-0.1-2.2-2.3-2.4v-0.9c2.1-0.3,4.4-0.8,6.5-1.3v12.3c0,2,0.2,2.2,2.4,2.4v1.1h-9v-1.1
		c2.2-0.2,2.4-0.4,2.4-2.4V13.6z M92.8,3.5c0,1.4-1.1,2.5-2.5,2.5c-1.4,0-2.5-1.1-2.5-2.5c0-1.4,1.2-2.5,2.5-2.5
		C91.6,1,92.8,2.1,92.8,3.5z"/>
	<path class="st0" d="M111,21.3c-1.5,2.2-3.7,3.8-5.9,3.8c-4.8,0-7.7-3.7-7.7-7.4c0-2.5,1.2-5,3.3-6.6c2.2-1.7,4.5-2.1,5.9-2.1
		c1,0,2.5,0.3,3.2,0.9c0.4,0.3,0.5,0.7,0.5,1c0,1.4-0.9,2.2-1.4,2.2c-0.1,0-0.3,0-0.6-0.3c-1.5-1.4-2.7-1.7-3.7-1.7
		c-1.3,0-3.1,1.2-3.1,5c0,4.7,3.3,6.1,4.9,6.1c1.4,0,2.5-0.4,3.8-1.6L111,21.3z"/>
	<path class="st0" d="M125.5,20.5c0,1.5,0.5,2,0.9,2c0.4,0,0.9-0.2,1.3-0.3l0.4,1l-3.8,2c-2,0-2.7-1.3-3-2.3
		c-1.4,0.9-3.3,2.3-3.9,2.3c-2.7,0-4.4-2.3-4.4-4.3c0-1.7,0.8-2.9,2.7-3.7c1.7-0.7,4.5-1.7,5.6-2.5v-1.3c0-1.8-0.9-2.6-2.3-2.6
		c-0.3,0-0.8,0.2-1.1,0.5c-0.6,0.5-1,1.5-1.3,2.9c-0.1,0.6-0.7,0.8-1.3,0.8c-0.7,0-2.1-0.7-2.1-1.6c0-0.6,0.4-1.2,1.2-1.8
		c1.1-0.9,3.4-2.1,6-2.5c1.4,0,2.5,0.3,3.3,0.9c1.3,0.9,1.5,2.1,1.5,3.4V20.5z M121.4,16.1c-0.7,0.3-1.6,0.9-2.3,1.3
		c-1,0.6-1.6,1.3-1.6,2.6c0,1.6,1.2,2.5,2,2.5c0.5,0,1.1-0.3,1.9-0.9V16.1z"/>
	<path class="st0" d="M148.3,24.7h-8.2v-1.1c1.7-0.2,1.9-0.3,1.9-2.3v-6.8c0-2.1-1-2.9-2.4-2.9c-0.9,0-2,0.5-3,1.3v8.4
		c0,2,0.2,2.1,1.7,2.3v1.1h-8.4v-1.1c2.3-0.2,2.5-0.3,2.5-2.3v-7.8c0-2.1-0.1-2.1-2.2-2.4v-0.9c2-0.2,4.2-0.7,6.5-1.2v2.5
		c0.7-0.5,1.3-0.9,1.9-1.3c1.2-0.8,1.9-1.1,3.2-1.1c2.8,0,4.5,2,4.5,4.7v7.6c0,2,0.2,2.1,2.1,2.3V24.7z"/>
	<path class="st0" d="M166.3,19.4c0,3.8,0.3,4,3.4,4.2v1.1h-10.6v-1.1c2.6-0.2,2.9-0.5,2.9-4.2v-12c0-3.8-0.3-4-2.7-4.2V2.1h9.4
		c2.7,0,4.8,0.4,6.2,1.4c1.6,1.1,2.4,2.7,2.4,5c0,4.4-3.3,6.5-7,7c-0.6,0.1-1.1,0.1-1.5,0.1l-2.4-0.5V19.4z M166.3,13.5
		c0.6,0.2,1.3,0.4,2.1,0.4c1,0,4-0.6,4-5.5c0-3.7-2-4.8-4.5-4.8c-1.5,0-1.6,0.2-1.6,1.3V13.5z"/>
	<path class="st0" d="M191.2,12.6c0-1.3-0.2-1.5-1.1-1.6l-1.1-0.2v-1c1.7-0.1,4.8-0.4,6.4-0.6V21c0,1.5,0.1,1.8,1.3,1.8h1.1v1.1
		c-2.1,0.3-4.3,0.8-6.3,1.3l-0.3-0.2v-2.2c-0.7,0.5-1.3,0.9-2,1.4c-1.1,0.7-1.9,1-3.1,1c-2.9,0-4.5-1.9-4.5-4.6v-7.9
		c0-1.3-0.2-1.5-1.1-1.6l-0.9-0.2v-1c1.6-0.1,4.5-0.4,6.3-0.6v10.5c0,2.1,1,2.9,2.4,2.9c1,0,2-0.5,3-1.3V12.6z"/>
	<path class="st0" d="M205.9,10.3l1.4-0.6c1-0.4,1.8-0.8,2.6-0.8c4,0,7,3.4,7,7.3c0,5.1-4,8.9-9.2,8.9c-1.9,0-3.6-0.3-6-1.3V4.5
		c0-2.1-0.1-2.1-2.3-2.2v-1c1.5-0.2,4.2-0.7,6.5-1.2V10.3z M205.9,21c0,0.5,0.1,0.9,0.2,1.2c0.2,0.5,1,1.4,2.3,1.5
		c2,0,3.8-2.1,3.8-6.4c0-4.2-2.1-6-4.8-6c-0.3,0-1,0.1-1.5,0.3V21z"/>
	<path class="st0" d="M221.7,4.5c0-2.1-0.1-2.1-2.3-2.3v-1c1.5-0.2,4.3-0.7,6.5-1.2v21.2c0,2,0.2,2.2,2.4,2.4v1.1h-9v-1.1
		c2.2-0.2,2.4-0.4,2.4-2.4V4.5z"/>
	<path class="st0" d="M232.8,13.6c0-2.1-0.1-2.2-2.3-2.4v-0.9c2.1-0.3,4.4-0.8,6.5-1.3v12.3c0,2,0.2,2.2,2.4,2.4v1.1h-9v-1.1
		c2.2-0.2,2.4-0.4,2.4-2.4V13.6z M237.2,3.5c0,1.4-1.1,2.5-2.5,2.5c-1.4,0-2.5-1.1-2.5-2.5c0-1.4,1.2-2.5,2.5-2.5
		C236.1,1,237.2,2.1,237.2,3.5z"/>
	<path class="st0" d="M255.4,21.3c-1.5,2.2-3.7,3.8-5.9,3.8c-4.8,0-7.7-3.7-7.7-7.4c0-2.5,1.2-5,3.3-6.6c2.2-1.7,4.5-2.1,5.9-2.1
		c1,0,2.5,0.3,3.2,0.9c0.4,0.3,0.5,0.7,0.5,1c0,1.4-0.9,2.2-1.4,2.2c-0.1,0-0.3,0-0.6-0.3c-1.5-1.4-2.7-1.7-3.7-1.7
		c-1.3,0-3.1,1.2-3.1,5c0,4.7,3.3,6.1,4.9,6.1c1.4,0,2.5-0.4,3.8-1.6L255.4,21.3z"/>
	<path class="st0" d="M275.7,2.1v1.1c-2.5,0.2-2.8,0.5-2.8,4.2v7.2c0,5.5,1.8,8.4,5.6,8.4c4.1,0,6-3.1,6-9.1v-2.3
		c0-3.7-0.2-5.6-0.3-6.6c-0.2-1.2-1-1.7-3.3-1.8V2.1h8.6v1.1c-1.7,0.1-2.6,0.6-2.8,1.8c-0.1,1.1-0.3,3-0.3,6.6v2.5
		c0,3.3-0.5,6.4-2.5,8.5c-1.5,1.6-4,2.6-6.5,2.6c-2.3,0-4.7-0.5-6.4-1.9c-1.8-1.5-2.6-4-2.6-8.1V7.4c0-3.8-0.3-4-2.9-4.2V2.1H275.7z
		"/>
	<path class="st0" d="M308.4,24.7h-8.2v-1.1c1.7-0.2,1.9-0.3,1.9-2.3v-6.8c0-2.1-1-2.9-2.4-2.9c-0.9,0-2,0.5-3,1.3v8.4
		c0,2,0.2,2.1,1.7,2.3v1.1H290v-1.1c2.3-0.2,2.5-0.3,2.5-2.3v-7.8c0-2.1-0.1-2.1-2.2-2.4v-0.9c2-0.2,4.2-0.7,6.5-1.2v2.5
		c0.7-0.5,1.3-0.9,1.9-1.3c1.2-0.8,1.9-1.1,3.2-1.1c2.8,0,4.5,2,4.5,4.7v7.6c0,2,0.2,2.1,2.1,2.3V24.7z"/>
	<path class="st0" d="M313.2,13.6c0-2.1-0.1-2.2-2.3-2.4v-0.9c2.1-0.3,4.4-0.8,6.5-1.3v12.3c0,2,0.2,2.2,2.4,2.4v1.1h-9v-1.1
		c2.2-0.2,2.4-0.4,2.4-2.4V13.6z M317.6,3.5c0,1.4-1.1,2.5-2.5,2.5c-1.4,0-2.5-1.1-2.5-2.5c0-1.4,1.2-2.5,2.5-2.5
		C316.5,1,317.6,2.1,317.6,3.5z"/>
	<path class="st0" d="M328.5,25l-5-12.3c-0.7-1.8-0.9-2.1-2.9-2.2V9.4h8.6v1.1l-1,0.2c-0.7,0.1-0.7,0.6-0.3,1.5c1,2.5,2.3,6,2.9,7.2
		c0.6-1.5,1.8-4.6,2.6-7c0.4-1.2,0.4-1.6-0.6-1.7l-1-0.2V9.4h6.5v1.1c-1.8,0.2-2.1,0.5-3,2.4c-1.3,2.8-3.1,7-5.2,12.1H328.5z"/>
	<path class="st0" d="M352.3,21.4c-2,3-4.7,3.8-5.9,3.8c-4.7,0-7.4-3.5-7.4-7.4c0-5,3.8-8.8,8-8.8c3,0,5.4,2.5,5.4,5.3
		c0,1.3-0.1,1.4-0.8,1.5c-0.5,0.1-5.1,0.4-8.6,0.6c0,3.9,2.4,5.7,5,5.7c1.3,0,2.4-0.4,3.8-1.4L352.3,21.4z M347.7,14.7
		c0.5,0,0.7-0.1,0.7-0.8c0-1.4-1.1-3.3-2.4-3.3c-1.3,0-2.6,1.8-2.8,4.2L347.7,14.7z"/>
	<path class="st0" d="M361.4,21.3c0,2,0.2,2.1,2.9,2.3v1.1h-9.5v-1.1c2.2-0.2,2.4-0.4,2.4-2.3v-7.7c0-2.1-0.1-2.2-2.3-2.4v-0.9
		c2-0.3,4.2-0.8,6.5-1.3v3.4h0.1c0.5-0.7,1-1.5,1.6-2.2c0.7-0.7,1.4-1.2,2.3-1.2c1.3,0,2.3,1,2.3,2.1c0,1.1-0.8,2.2-1.6,2.5
		c-0.5,0.2-0.8,0.1-1.1-0.1c-0.6-0.5-1.2-0.7-1.7-0.7c-0.6,0-1.3,0.2-1.9,1.7V21.3z"/>
	<path class="st0" d="M379.8,13.6c-1.1-2.4-2.5-3.2-3.5-3.2c-1.1,0-2,0.9-2,2c0,1,1,1.9,2.6,2.5c2.8,1,4.8,2.3,4.8,5.1
		c0,3.5-3.4,5.2-6.4,5.2c-2,0-3.8-0.8-4.5-1.4c-0.2-0.5-0.6-2.9-0.6-4.3l1-0.1c0.7,2.1,2.6,4.4,4.5,4.4c1.3,0,2.2-0.9,2.2-2.2
		c0-1.1-0.8-2.1-2.6-2.8c-1.5-0.6-4.5-1.9-4.5-4.7c0-2.7,2.2-4.9,6-5c1.5,0,2.6,0.3,3.4,0.6c0.4,0.8,0.8,3.3,0.9,3.8L379.8,13.6z"/>
	<path class="st0" d="M386.6,13.6c0-2.1-0.1-2.2-2.3-2.4v-0.9c2.1-0.3,4.4-0.8,6.5-1.3v12.3c0,2,0.2,2.2,2.4,2.4v1.1h-9.1v-1.1
		c2.2-0.2,2.4-0.4,2.4-2.4V13.6z M391,3.5c0,1.4-1.1,2.5-2.5,2.5c-1.4,0-2.5-1.1-2.5-2.5c0-1.4,1.2-2.5,2.5-2.5
		C389.9,1,391,2.1,391,3.5z"/>
	<path class="st0" d="M401.7,19.6c0,2.7,1.3,3.2,2,3.2c0.6,0,1.1-0.2,1.8-0.6l0.5,1l-3,1.5c-0.6,0.3-1.1,0.4-1.3,0.4
		c-2.7,0-4.2-1.2-4.2-4.3v-9.7h-2.2l-0.2-0.5l1.1-1.3h1.4V7.3l3.7-2.8l0.6,0.3v4.6h3.4c0.5,0.4,0.4,1.5-0.2,1.8h-3.2V19.6z"/>
	<path class="st0" d="M415.7,10.5l-1.1,0.1c-0.8,0.1-0.7,0.6-0.4,1.4l2.8,7.5c0.6-1.3,2.5-6.4,2.9-7.6c0.4-1,0.3-1.3-0.5-1.4
		l-1.3-0.1V9.4h6.6v1.1c-2,0.2-2.1,0.4-3,2.3c-1,2-2.4,5-4.4,9.6c-2.4,5.4-3.2,7.9-3.8,9.8c-0.2,0.8-0.8,1-1.3,1
		c-1,0-2.1-1.1-2.1-1.9c0-0.6,0.2-0.9,0.8-1.3c1-0.7,2-1.7,2.6-3c0.3-0.6,0.6-1.3,0.7-1.7c0.1-0.5,0.1-1.1,0-1.5
		c-1.7-4.8-3.7-9.6-4.3-11.1c-0.8-1.9-1.2-2.2-2.9-2.3V9.4h8.8L415.7,10.5z"/>
	<path class="st0" d="M435.3,18c0.6,1.9,2.6,5.6,6,5.6c2.3,0,3.6-1.7,3.6-3.7c0-2.4-1.3-3.5-3.9-4.7l-0.7-0.3
		c-2.9-1.3-5.4-3.3-5.4-6.6c0-3.7,2.9-6.8,7.7-6.8c1,0,2.2,0.1,3.2,0.5c0.6,0.2,1.1,0.3,1.5,0.5c0.1,1.3,0.4,2.8,0.7,4.9l-1.3,0.2
		c-0.7-2.1-1.7-4.5-4.7-4.5c-2.1,0-3.4,1.5-3.4,3.5c0,1.8,1.3,3,3.8,4.1l1.1,0.5c2.8,1.2,5.4,3,5.4,6.8c0,4.1-3.2,7.2-8.2,7.2
		c-1.3,0-2.6-0.2-3.5-0.6c-1-0.3-1.6-0.6-2.1-0.8c-0.3-0.9-0.7-3.3-1.1-5.4L435.3,18z"/>
	<path class="st0" d="M458.8,10.5l-1.1,0.1c-0.8,0.1-0.7,0.6-0.4,1.4l2.8,7.5c0.6-1.3,2.5-6.4,2.9-7.6c0.4-1,0.3-1.3-0.5-1.4
		l-1.3-0.1V9.4h6.6v1.1c-2,0.2-2.1,0.4-3,2.3c-1,2-2.4,5-4.4,9.6c-2.4,5.4-3.2,7.9-3.8,9.8c-0.2,0.8-0.8,1-1.3,1
		c-1,0-2.1-1.1-2.1-1.9c0-0.6,0.2-0.9,0.8-1.3c1-0.7,2-1.7,2.6-3c0.3-0.6,0.6-1.3,0.7-1.7c0.1-0.5,0.1-1.1,0-1.5
		c-1.7-4.8-3.7-9.6-4.3-11.1c-0.8-1.9-1.2-2.2-2.9-2.3V9.4h8.8L458.8,10.5z"/>
	<path class="st0" d="M478.9,13.6c-1.1-2.4-2.5-3.2-3.5-3.2c-1.2,0-2,0.9-2,2c0,1,1,1.9,2.6,2.5c2.7,1,4.8,2.3,4.8,5.1
		c0,3.5-3.4,5.2-6.4,5.2c-2,0-3.8-0.8-4.5-1.4c-0.2-0.5-0.6-2.9-0.6-4.3l1-0.1c0.7,2.1,2.6,4.4,4.5,4.4c1.3,0,2.2-0.9,2.2-2.2
		c0-1.1-0.8-2.1-2.6-2.8c-1.5-0.6-4.5-1.9-4.5-4.7c0-2.7,2.2-4.9,6-5c1.5,0,2.6,0.3,3.4,0.6c0.4,0.8,0.8,3.3,0.9,3.8L478.9,13.6z"/>
	<path class="st0" d="M489.7,19.6c0,2.7,1.3,3.2,1.9,3.2c0.6,0,1.2-0.2,1.8-0.6l0.5,1l-3,1.5c-0.6,0.3-1.1,0.4-1.3,0.4
		c-2.7,0-4.2-1.2-4.2-4.3v-9.7h-2.2l-0.2-0.5l1.1-1.3h1.4V7.3l3.7-2.8l0.6,0.3v4.6h3.4c0.5,0.4,0.4,1.5-0.2,1.8h-3.2V19.6z"/>
	<path class="st0" d="M509.3,21.4c-2,3-4.7,3.8-5.9,3.8c-4.7,0-7.4-3.5-7.4-7.4c0-5,3.8-8.8,8-8.8c3,0,5.4,2.5,5.4,5.3
		c0,1.3-0.1,1.4-0.8,1.5c-0.5,0.1-5.1,0.4-8.6,0.6c0,3.9,2.4,5.7,5,5.7c1.3,0,2.4-0.4,3.8-1.4L509.3,21.4z M504.7,14.7
		c0.5,0,0.7-0.1,0.7-0.8c0-1.4-1.1-3.3-2.4-3.3c-1.3,0-2.6,1.8-2.8,4.2L504.7,14.7z"/>
	<path class="st0" d="M514.1,13.5c0-2.1-0.1-2.1-2.2-2.4v-0.9c2-0.2,4.2-0.7,6.5-1.2v2.5c0.6-0.5,1.2-0.8,1.8-1.3
		c1.2-0.8,2.1-1.2,3.2-1.2c2,0,3.6,1.1,4.2,2.6c0.7-0.5,1.5-1,2.2-1.5c1.1-0.7,1.8-1.1,3-1.1c3,0,4.6,2,4.6,4.7v7.6
		c0,2,0.2,2.1,2.1,2.3v1.1h-8.2v-1.1c1.7-0.2,1.8-0.3,1.8-2.3v-6.8c0-2.1-1-2.9-2.4-2.9c-0.8,0-1.7,0.3-3,1.3c0,0.2,0,0.5,0,0.7v7.7
		c0,2,0.2,2.1,1.8,2.3v1.1h-7.9v-1.1c1.7-0.2,1.8-0.3,1.8-2.3v-6.8c0-2.1-1-2.9-2.3-2.9c-0.9,0-1.9,0.5-3,1.3v8.4
		c0,2,0.2,2.1,1.6,2.3v1.1h-8.4v-1.1c2.3-0.2,2.5-0.3,2.5-2.3V13.5z"/>
</g>
<g>
	<path class="st1" d="M8.1,51.8l0.6-0.1c0.7-0.1,0.8-0.3,0.6-0.9c-0.1-0.5-0.7-2-1.3-3.5H4c-0.2,0.5-0.7,2.1-1,2.9
		c-0.4,1.2-0.2,1.4,0.7,1.5l0.6,0.1v0.5H0v-0.5c1.3-0.1,1.5-0.3,2.2-2l4.1-10.6l0.5-0.2l1.4,3.8c0.9,2.5,1.8,5.1,2.6,7.1
		c0.6,1.7,0.9,1.8,2.1,1.9v0.5H8.1V51.8z M4.2,46.5h3.5L6,41.6h0L4.2,46.5z"/>
	<path class="st1" d="M15.9,45.8c0-1.2,0-1.2-1.4-1.4v-0.4c0.9-0.2,1.9-0.4,2.9-0.8v1.5c0.4-0.3,0.8-0.5,1.4-0.9
		c0.6-0.4,1.1-0.6,1.8-0.6c1,0,1.9,0.6,2.3,1.6c0.6-0.4,1.2-0.8,1.5-1c0.6-0.3,1.1-0.6,1.8-0.6c1.6,0,2.5,1.1,2.5,2.7v4.5
		c0,1.1,0.1,1.2,1.3,1.3v0.5h-4.2v-0.5c1.3-0.1,1.4-0.2,1.4-1.3v-3.9c0-1.2-0.4-2.2-1.9-2.2c-0.7,0-1.5,0.3-2.2,1c0,0.2,0,0.4,0,0.6
		v4.5c0,1.1,0.1,1.2,1.3,1.3v0.5h-4.2v-0.5c1.3-0.1,1.4-0.2,1.4-1.3v-3.9c0-1.2-0.4-2.1-1.8-2.1c-0.8,0-1.6,0.4-2.2,0.9v5.1
		c0,1.1,0.1,1.2,1.3,1.3v0.5h-4.3v-0.5c1.4-0.1,1.5-0.2,1.5-1.3V45.8z"/>
	<path class="st1" d="M39.2,50.5c-1.1,1.6-2.5,2-3,2c-2.5,0-4.1-1.9-4.1-4.2c0-2.7,1.9-4.9,4.3-4.9c1.6,0,2.9,1.4,2.9,2.8
		c0,0.6-0.1,0.7-0.4,0.7c-0.3,0.1-2.8,0.3-5.2,0.3c-0.1,3,1.8,4,3.3,4c0.7,0,1.3-0.2,2.1-1L39.2,50.5z M37.2,46.4
		c0.3,0,0.4-0.1,0.4-0.6c0-0.8-0.6-1.8-1.7-1.8c-1,0-2,1-2.2,2.5L37.2,46.4z"/>
	<path class="st1" d="M44.3,50.4c0,1.1,0.1,1.2,1.7,1.3v0.5h-4.6v-0.5c1.3-0.1,1.4-0.2,1.4-1.3v-4.6c0-1.2,0-1.2-1.4-1.4v-0.4
		c0.9-0.2,1.9-0.4,2.9-0.8v2.1h0c0.5-0.8,1.4-2,2.4-2c0.6,0,1.1,0.5,1.1,0.9c0,0.3-0.2,0.8-0.6,1c-0.2,0.1-0.4,0.1-0.5,0
		c-0.3-0.2-0.5-0.4-0.9-0.4c-0.5,0-1,0.4-1.5,1.4V50.4z"/>
	<path class="st1" d="M52.9,50.4c0,1.1,0.1,1.2,1.4,1.3v0.5h-4.4v-0.5c1.3-0.1,1.4-0.2,1.4-1.3v-4.6c0-1.2,0-1.2-1.4-1.4v-0.4
		c0.9-0.2,1.9-0.4,2.9-0.8V50.4z M53.1,39.7c0,0.6-0.5,1.1-1,1.1c-0.6,0-1-0.5-1-1.1c0-0.6,0.5-1.1,1-1.1
		C52.7,38.6,53.1,39.1,53.1,39.7z"/>
	<path class="st1" d="M63.7,50.3c-0.8,1.2-2.1,2.2-3.2,2.2c-2.5,0-4.1-2-4.1-4.2c0-1.5,0.7-2.8,1.8-3.7c1.2-1,2.6-1.2,3.3-1.2
		c0.5,0,1.3,0.2,1.8,0.5c0.1,0.1,0.2,0.2,0.2,0.4c0,0.4-0.4,0.9-0.7,0.9c-0.1,0-0.2,0-0.3-0.1c-0.8-0.7-1.4-0.9-2.1-0.9
		c-1,0-2.4,0.9-2.4,3.2c0,3,2.1,3.8,3.1,3.8c0.9,0,1.3-0.2,2.4-1.1L63.7,50.3z"/>
	<path class="st1" d="M71.5,52.5c-0.7-0.1-1-0.8-1.1-1.3c-0.8,0.5-1.9,1.3-2.3,1.3c-1.5,0-2.4-1.2-2.4-2.3c0-0.9,0.5-1.6,1.5-2
		c1-0.4,2.6-1,3.2-1.4v-0.7c0-1.2-0.6-1.9-1.6-1.9c-1,0-1.4,0.8-1.6,1.7c-0.1,0.2-0.2,0.4-0.5,0.4c-0.3,0-0.9-0.3-0.9-0.7
		c0-0.3,0.2-0.5,0.7-0.9c0.5-0.4,1.7-1.1,3.1-1.4c0.6,0,1.2,0.2,1.6,0.5c0.7,0.5,0.8,1.2,0.8,1.9v4.5c0,0.7,0.3,1.1,0.6,1.1
		c0.2,0,0.5-0.1,0.9-0.3l0.2,0.4L71.5,52.5z M70.4,47.4c-0.4,0.2-1.6,0.7-2,0.9c-0.7,0.4-1,0.8-1,1.5c0,1.1,0.7,1.6,1.3,1.6
		c0.5,0,1.2-0.4,1.7-0.8V47.4z"/>
	<path class="st1" d="M78.3,44.8c0.4-0.3,0.8-0.6,1.3-0.9c0.6-0.4,1.1-0.6,1.7-0.6c1.6,0,2.5,1.1,2.5,2.7v4.5c0,1.1,0.1,1.2,1.3,1.3
		v0.5h-4.2v-0.5c1.3-0.1,1.4-0.2,1.4-1.3v-3.9c0-1.2-0.4-2.2-1.9-2.2c-0.8,0-1.6,0.4-2.2,0.9v5.1c0,1.1,0.1,1.2,1.3,1.3v0.5h-4.3
		v-0.5c1.4-0.1,1.5-0.2,1.5-1.3v-4.6c0-1.2,0-1.2-1.4-1.4v-0.4c0.9-0.2,1.9-0.4,2.9-0.8V44.8z"/>
	<path class="st1" d="M96.3,39.2l4.8,10.3l4.8-10.3h3.3v0.5c-1.7,0.1-1.9,0.2-1.8,2.4l0.2,7.2c0.1,2.2,0.1,2.3,1.9,2.4v0.5h-5.3
		v-0.5c1.7-0.1,1.7-0.2,1.7-2.4l-0.1-8.1h-0.1L100.9,52h-0.5l-4.6-10.5h0l-0.2,5.6c-0.1,1.9-0.1,3,0,3.6c0.1,0.7,0.6,0.9,1.9,1v0.5
		h-4.7v-0.5c1.1-0.1,1.5-0.3,1.7-1c0.1-0.6,0.2-1.8,0.3-3.8l0.2-4.2c0.1-2.7,0-2.9-1.9-3v-0.5H96.3z"/>
	<path class="st1" d="M114.6,50.4c0,1.1,0.1,1.2,1.4,1.3v0.5h-4.4v-0.5c1.3-0.1,1.4-0.2,1.4-1.3v-4.6c0-1.2,0-1.2-1.4-1.4v-0.4
		c0.9-0.2,1.9-0.4,2.9-0.8V50.4z M114.8,39.7c0,0.6-0.5,1.1-1,1.1c-0.6,0-1-0.5-1-1.1c0-0.6,0.5-1.1,1-1.1
		C114.4,38.6,114.8,39.1,114.8,39.7z"/>
	<path class="st1" d="M119.1,40.4c0-1.2,0-1.2-1.4-1.3v-0.4c1-0.2,2.3-0.5,3-0.7v12.4c0,1.1,0.1,1.2,1.5,1.3v0.5h-4.5v-0.5
		c1.4-0.1,1.5-0.2,1.5-1.3V40.4z"/>
	<path class="st1" d="M127,50.4c0,1.1,0.1,1.2,1.4,1.3v0.5H124v-0.5c1.3-0.1,1.4-0.2,1.4-1.3v-4.6c0-1.2,0-1.2-1.4-1.4v-0.4
		c0.9-0.2,1.9-0.4,2.9-0.8V50.4z M127.2,39.7c0,0.6-0.5,1.1-1,1.1c-0.6,0-1-0.5-1-1.1c0-0.6,0.5-1.1,1-1.1
		C126.8,38.6,127.2,39.1,127.2,39.7z"/>
	<path class="st1" d="M133.1,49.6c0,1.6,0.7,1.8,1.3,1.8c0.4,0,0.8-0.2,1.2-0.4l0.2,0.4l-1.6,0.8c-0.2,0.1-0.5,0.2-0.6,0.2
		c-1.3,0-2-0.8-2-2.4v-5.8h-1.5l-0.1-0.2l0.6-0.6h1v-1.3l1.3-1.3h0.3v2.6h2.3c0.2,0.2,0.1,0.5-0.1,0.8h-2.2V49.6z"/>
	<path class="st1" d="M143.5,52.5c-0.7-0.1-1-0.8-1.1-1.3c-0.8,0.5-1.9,1.3-2.3,1.3c-1.5,0-2.4-1.2-2.4-2.3c0-0.9,0.5-1.6,1.5-2
		c1-0.4,2.6-1,3.2-1.4v-0.7c0-1.2-0.6-1.9-1.6-1.9c-1,0-1.4,0.8-1.6,1.7c-0.1,0.2-0.2,0.4-0.5,0.4c-0.3,0-0.9-0.3-0.9-0.7
		c0-0.3,0.2-0.5,0.7-0.9c0.5-0.4,1.7-1.1,3.1-1.4c0.6,0,1.2,0.2,1.6,0.5c0.7,0.5,0.8,1.2,0.8,1.9v4.5c0,0.7,0.3,1.1,0.6,1.1
		c0.2,0,0.5-0.1,0.9-0.3l0.2,0.4L143.5,52.5z M142.4,47.4c-0.4,0.2-1.6,0.7-2,0.9c-0.7,0.4-1,0.8-1,1.5c0,1.1,0.7,1.6,1.3,1.6
		c0.5,0,1.2-0.4,1.7-0.8V47.4z"/>
	<path class="st1" d="M150.2,50.4c0,1.1,0.1,1.2,1.7,1.3v0.5h-4.6v-0.5c1.3-0.1,1.4-0.2,1.4-1.3v-4.6c0-1.2,0-1.2-1.4-1.4v-0.4
		c0.9-0.2,1.9-0.4,2.9-0.8v2.1h0c0.5-0.8,1.4-2,2.4-2c0.6,0,1.1,0.5,1.1,0.9c0,0.3-0.2,0.8-0.6,1c-0.2,0.1-0.4,0.1-0.5,0
		c-0.3-0.2-0.5-0.4-0.9-0.4c-0.5,0-1,0.4-1.5,1.4V50.4z"/>
	<path class="st1" d="M159.5,44l-0.6,0.1c-0.4,0.1-0.4,0.4-0.2,0.9l1.7,4.9c0.5-1.1,1.7-4.3,2-5c0.2-0.6,0.2-0.8-0.3-0.9l-0.7-0.1
		v-0.5h3.5V44c-1.1,0.2-1.1,0.3-1.7,1.5c-0.5,1-1.3,2.6-2.5,5.7c-1.3,3.1-1.8,4.4-2.1,5.5c-0.1,0.4-0.4,0.5-0.6,0.5
		c-0.5,0-1-0.4-1-0.9c0-0.3,0.2-0.5,0.6-0.7c0.6-0.4,1-1,1.4-1.7c0.3-0.6,0.5-1.2,0.6-1.5c0.1-0.2,0.1-0.4,0-0.7
		c-0.7-2.1-1.6-4.6-2.2-6.1c-0.5-1.2-0.5-1.3-1.8-1.5v-0.5h4.1V44z"/>
	<path class="st1" d="M176.9,39.2v0.5c-1.6,0.1-1.8,0.3-1.8,2.4v4.2c0,1.7,0.2,3,0.8,3.9c0.6,0.9,1.5,1.4,2.9,1.4
		c1.3,0,2.3-0.5,2.9-1.5c0.7-1,0.9-2.8,0.9-4.4v-1.1c0-2.1-0.1-3.2-0.2-3.8c-0.1-0.7-0.6-1-2-1v-0.5h4.8v0.5c-1.1,0-1.6,0.3-1.7,1
		c-0.1,0.6-0.2,1.7-0.2,3.8v1.3c0,2.3-0.4,4-1.5,5.2c-0.9,0.9-2.3,1.4-3.7,1.4c-1.1,0-2.4-0.3-3.3-1c-1.1-0.9-1.5-2.2-1.5-4.5v-4.9
		c0-2.2-0.2-2.3-1.8-2.4v-0.5H176.9z"/>
	<path class="st1" d="M189.5,44.8c0.4-0.3,0.8-0.6,1.3-0.9c0.6-0.4,1.1-0.6,1.7-0.6c1.6,0,2.5,1.1,2.5,2.7v4.5
		c0,1.1,0.1,1.2,1.3,1.3v0.5h-4.2v-0.5c1.3-0.1,1.4-0.2,1.4-1.3v-3.9c0-1.2-0.4-2.2-1.9-2.2c-0.8,0-1.6,0.4-2.2,0.9v5.1
		c0,1.1,0.1,1.2,1.3,1.3v0.5h-4.3v-0.5c1.4-0.1,1.5-0.2,1.5-1.3v-4.6c0-1.2,0-1.2-1.4-1.4v-0.4c0.9-0.2,1.9-0.4,2.9-0.8V44.8z"/>
	<path class="st1" d="M201.4,50.4c0,1.1,0.1,1.2,1.4,1.3v0.5h-4.4v-0.5c1.3-0.1,1.4-0.2,1.4-1.3v-4.6c0-1.2,0-1.2-1.4-1.4v-0.4
		c0.9-0.2,1.9-0.4,2.9-0.8V50.4z M201.7,39.7c0,0.6-0.5,1.1-1,1.1c-0.6,0-1-0.5-1-1.1c0-0.6,0.5-1.1,1-1.1
		C201.2,38.6,201.7,39.1,201.7,39.7z"/>
	<path class="st1" d="M208.4,52.4l-2.8-7.1c-0.4-1.1-0.5-1.1-1.6-1.3v-0.5h4V44l-0.7,0.1c-0.3,0-0.4,0.2-0.2,0.8
		c0.6,1.7,1.3,3.6,2,5.2c0.6-1.6,1.3-3.4,1.8-5.1c0.2-0.6,0.1-0.8-0.1-0.8L210,44v-0.5h3.4V44c-1.1,0.1-1.1,0.2-1.6,1.3
		c-0.8,1.8-1.8,4.2-2.9,7.1H208.4z"/>
	<path class="st1" d="M221.7,50.5c-1.1,1.6-2.5,2-3,2c-2.5,0-4.1-1.9-4.1-4.2c0-2.7,1.9-4.9,4.3-4.9c1.6,0,2.9,1.4,2.9,2.8
		c0,0.6-0.1,0.7-0.4,0.7c-0.3,0.1-2.8,0.3-5.3,0.3c-0.1,3,1.8,4,3.3,4c0.7,0,1.3-0.2,2.1-1L221.7,50.5z M219.7,46.4
		c0.3,0,0.4-0.1,0.4-0.6c0-0.8-0.6-1.8-1.7-1.8c-1,0-2,1-2.2,2.5L219.7,46.4z"/>
	<path class="st1" d="M226.8,50.4c0,1.1,0.1,1.2,1.7,1.3v0.5h-4.6v-0.5c1.3-0.1,1.4-0.2,1.4-1.3v-4.6c0-1.2,0-1.2-1.4-1.4v-0.4
		c0.9-0.2,1.9-0.4,2.9-0.8v2.1h0c0.5-0.8,1.4-2,2.4-2c0.6,0,1.1,0.5,1.1,0.9c0,0.3-0.2,0.8-0.6,1c-0.2,0.1-0.4,0.1-0.5,0
		c-0.3-0.2-0.5-0.4-0.9-0.4c-0.5,0-1,0.4-1.5,1.4V50.4z"/>
	<path class="st1" d="M232.7,49.4c0.3,1.2,1.2,2.4,2.4,2.4c0.7,0,1.4-0.5,1.4-1.5c0-0.8-0.5-1.4-1.6-1.9c-1.3-0.6-2.4-1.3-2.4-2.6
		c0-1.4,1.2-2.6,3-2.6c0.7,0,1.3,0.2,1.7,0.3c0.2,0.5,0.4,1.6,0.4,1.9l-0.5,0.1c-0.6-1.3-1.2-1.8-2-1.8c-0.9,0-1.3,0.7-1.3,1.4
		c0,0.8,0.9,1.4,1.7,1.7c1.5,0.6,2.4,1.4,2.4,2.7c0,1.8-1.7,2.7-3.2,2.7c-1,0-1.9-0.4-2.3-0.7c-0.1-0.3-0.2-1.4-0.2-2.2L232.7,49.4z
		"/>
	<path class="st1" d="M243.2,50.4c0,1.1,0.1,1.2,1.4,1.3v0.5h-4.4v-0.5c1.3-0.1,1.4-0.2,1.4-1.3v-4.6c0-1.2,0-1.2-1.4-1.4v-0.4
		c0.9-0.2,1.9-0.4,2.9-0.8V50.4z M243.5,39.7c0,0.6-0.5,1.1-1,1.1c-0.6,0-1-0.5-1-1.1c0-0.6,0.5-1.1,1-1.1
		C243,38.6,243.5,39.1,243.5,39.7z"/>
	<path class="st1" d="M249.3,49.6c0,1.6,0.7,1.8,1.3,1.8c0.4,0,0.8-0.2,1.2-0.4l0.2,0.4l-1.6,0.8c-0.2,0.1-0.5,0.2-0.6,0.2
		c-1.3,0-2-0.8-2-2.4v-5.8h-1.5l-0.1-0.2l0.6-0.6h1v-1.3l1.3-1.3h0.3v2.6h2.3c0.2,0.2,0.1,0.5-0.1,0.8h-2.2V49.6z"/>
	<path class="st1" d="M257.4,44l-0.6,0.1c-0.4,0.1-0.4,0.4-0.2,0.9l1.7,4.9c0.5-1.1,1.7-4.3,2-5c0.2-0.6,0.2-0.8-0.3-0.9l-0.7-0.1
		v-0.5h3.5V44c-1.1,0.2-1.1,0.3-1.7,1.5c-0.5,1-1.3,2.6-2.5,5.7c-1.3,3.1-1.8,4.4-2.1,5.5c-0.1,0.4-0.4,0.5-0.6,0.5
		c-0.5,0-1-0.4-1-0.9c0-0.3,0.2-0.5,0.6-0.7c0.6-0.4,1-1,1.4-1.7c0.3-0.6,0.5-1.2,0.6-1.5c0.1-0.2,0.1-0.4,0-0.7
		c-0.7-2.1-1.6-4.6-2.2-6.1c-0.5-1.2-0.5-1.3-1.8-1.5v-0.5h4.1V44z"/>
	<path class="st1" d="M277,38.3v15.6H276V38.3H277z"/>
	<path class="st1" d="M298.2,51.8l0.6-0.1c0.7-0.1,0.8-0.3,0.6-0.9c-0.1-0.5-0.7-2-1.3-3.5h-4.1c-0.2,0.5-0.7,2.1-1,2.9
		c-0.4,1.2-0.2,1.4,0.7,1.5l0.6,0.1v0.5h-4.3v-0.5c1.3-0.1,1.5-0.3,2.2-2l4.1-10.6l0.5-0.2l1.4,3.8c0.9,2.5,1.8,5.1,2.6,7.1
		c0.6,1.7,0.9,1.8,2.1,1.9v0.5h-4.8V51.8z M294.3,46.5h3.5l-1.8-4.9h0L294.3,46.5z"/>
	<path class="st1" d="M305.9,45.8c0-1.2,0-1.2-1.4-1.4v-0.4c0.9-0.2,1.9-0.4,2.9-0.8v1.5c0.4-0.3,0.8-0.5,1.4-0.9
		c0.6-0.4,1.1-0.6,1.8-0.6c1,0,1.9,0.6,2.3,1.6c0.6-0.4,1.2-0.8,1.5-1c0.6-0.3,1.1-0.6,1.8-0.6c1.6,0,2.5,1.1,2.5,2.7v4.5
		c0,1.1,0.1,1.2,1.3,1.3v0.5h-4.2v-0.5c1.3-0.1,1.4-0.2,1.4-1.3v-3.9c0-1.2-0.4-2.2-1.9-2.2c-0.7,0-1.5,0.3-2.2,1c0,0.2,0,0.4,0,0.6
		v4.5c0,1.1,0.1,1.2,1.3,1.3v0.5h-4.2v-0.5c1.3-0.1,1.4-0.2,1.4-1.3v-3.9c0-1.2-0.4-2.1-1.8-2.1c-0.8,0-1.6,0.4-2.2,0.9v5.1
		c0,1.1,0.1,1.2,1.3,1.3v0.5h-4.3v-0.5c1.4-0.1,1.5-0.2,1.5-1.3V45.8z"/>
	<path class="st1" d="M329.3,50.5c-1.1,1.6-2.5,2-3,2c-2.5,0-4.1-1.9-4.1-4.2c0-2.7,1.9-4.9,4.3-4.9c1.6,0,2.9,1.4,2.9,2.8
		c0,0.6-0.1,0.7-0.4,0.7c-0.3,0.1-2.8,0.3-5.3,0.3c-0.1,3,1.8,4,3.3,4c0.7,0,1.3-0.2,2.1-1L329.3,50.5z M327.3,46.4
		c0.3,0,0.4-0.1,0.4-0.6c0-0.8-0.6-1.8-1.7-1.8c-1,0-2,1-2.2,2.5L327.3,46.4z"/>
	<path class="st1" d="M334.4,50.4c0,1.1,0.1,1.2,1.7,1.3v0.5h-4.6v-0.5c1.3-0.1,1.4-0.2,1.4-1.3v-4.6c0-1.2,0-1.2-1.4-1.4v-0.4
		c0.9-0.2,1.9-0.4,2.9-0.8v2.1h0c0.5-0.8,1.4-2,2.4-2c0.6,0,1.1,0.5,1.1,0.9c0,0.3-0.2,0.8-0.6,1c-0.2,0.1-0.4,0.1-0.5,0
		c-0.3-0.2-0.5-0.4-0.9-0.4c-0.5,0-1,0.4-1.5,1.4V50.4z"/>
	<path class="st1" d="M342.9,50.4c0,1.1,0.1,1.2,1.4,1.3v0.5H340v-0.5c1.3-0.1,1.4-0.2,1.4-1.3v-4.6c0-1.2,0-1.2-1.4-1.4v-0.4
		c0.9-0.2,1.9-0.4,2.9-0.8V50.4z M343.2,39.7c0,0.6-0.5,1.1-1,1.1c-0.6,0-1-0.5-1-1.1c0-0.6,0.5-1.1,1-1.1
		C342.7,38.6,343.2,39.1,343.2,39.7z"/>
	<path class="st1" d="M353.8,50.3c-0.8,1.2-2.1,2.2-3.2,2.2c-2.5,0-4.1-2-4.1-4.2c0-1.5,0.7-2.8,1.8-3.7c1.2-1,2.6-1.2,3.3-1.2
		c0.5,0,1.3,0.2,1.8,0.5c0.1,0.1,0.2,0.2,0.2,0.4c0,0.4-0.4,0.9-0.7,0.9c-0.1,0-0.2,0-0.3-0.1c-0.8-0.7-1.4-0.9-2.1-0.9
		c-1,0-2.4,0.9-2.4,3.2c0,3,2.1,3.8,3.1,3.8c0.9,0,1.3-0.2,2.4-1.1L353.8,50.3z"/>
	<path class="st1" d="M361.6,52.5c-0.7-0.1-1-0.8-1.1-1.3c-0.8,0.5-1.9,1.3-2.3,1.3c-1.5,0-2.4-1.2-2.4-2.3c0-0.9,0.5-1.6,1.5-2
		c1-0.4,2.6-1,3.2-1.4v-0.7c0-1.2-0.6-1.9-1.6-1.9c-1,0-1.4,0.8-1.6,1.7c-0.1,0.2-0.2,0.4-0.5,0.4c-0.3,0-0.9-0.3-0.9-0.7
		c0-0.3,0.2-0.5,0.7-0.9c0.5-0.4,1.7-1.1,3.1-1.4c0.6,0,1.2,0.2,1.6,0.5c0.7,0.5,0.8,1.2,0.8,1.9v4.5c0,0.7,0.3,1.1,0.6,1.1
		c0.2,0,0.5-0.1,0.9-0.3l0.2,0.4L361.6,52.5z M360.5,47.4c-0.4,0.2-1.6,0.7-2,0.9c-0.7,0.4-1,0.8-1,1.5c0,1.1,0.7,1.6,1.3,1.6
		c0.5,0,1.2-0.4,1.7-0.8V47.4z"/>
	<path class="st1" d="M368.4,44.8c0.4-0.3,0.8-0.6,1.3-0.9c0.6-0.4,1.1-0.6,1.7-0.6c1.6,0,2.5,1.1,2.5,2.7v4.5
		c0,1.1,0.1,1.2,1.3,1.3v0.5H371v-0.5c1.3-0.1,1.4-0.2,1.4-1.3v-3.9c0-1.2-0.4-2.2-1.9-2.2c-0.8,0-1.6,0.4-2.2,0.9v5.1
		c0,1.1,0.1,1.2,1.3,1.3v0.5h-4.3v-0.5c1.4-0.1,1.5-0.2,1.5-1.3v-4.6c0-1.2,0-1.2-1.4-1.4v-0.4c0.9-0.2,1.9-0.4,2.9-0.8V44.8z"/>
	<path class="st1" d="M386.5,49.3c0,2.2,0.2,2.3,2.1,2.4v0.5H383v-0.5c1.6-0.1,1.8-0.3,1.8-2.4v-7.2c0-2.2-0.2-2.3-1.7-2.4v-0.5h5.1
		c1.3,0,2.5,0.2,3.3,0.8c0.8,0.6,1.3,1.5,1.3,2.7c0,2.5-2,3.8-3.9,4c-0.3,0-0.7,0-0.9,0l-1.5-0.4V49.3z M386.5,45.9
		c0.3,0.1,0.8,0.2,1.5,0.2c1.3,0,2.9-0.7,2.9-3.3c0-2.2-1.1-3.1-3.2-3.1c-0.6,0-0.9,0-1,0.1c-0.1,0-0.2,0.1-0.2,0.5V45.9z"/>
	<path class="st1" d="M401.7,45.2c0-0.7-0.2-0.9-0.6-0.9l-1-0.1v-0.4c0.9,0,2.4-0.2,3.1-0.4v7c0,0.8,0.2,0.9,0.6,0.9l0.9,0v0.4
		c-0.8,0.1-2.3,0.5-2.9,0.7l-0.1-0.1v-1.4c-0.5,0.4-1,0.8-1.5,1.1c-0.6,0.3-1.1,0.5-1.6,0.5c-1.4,0-2.5-0.7-2.5-2.7v-4.5
		c0-0.7-0.2-0.9-0.6-1l-0.6-0.1v-0.4c0.6,0,2.1-0.2,2.8-0.4V49c0,1.9,0.9,2.3,1.8,2.3c0.7,0,1.5-0.3,2.3-1V45.2z"/>
	<path class="st1" d="M409,44.1l1.9-0.7c0.2-0.1,0.5-0.1,0.8-0.1c2.1,0,3.9,1.9,3.9,4.1c0,2.9-2.3,5.1-5,5.1c-1.1,0-2-0.2-3.1-0.7
		V40.4c0-1.2,0-1.2-1.4-1.3v-0.4c0.9-0.2,2.2-0.5,3-0.7V44.1z M409,50.2c0,0.3,0,0.5,0.1,0.7c0.1,0.3,0.6,0.9,1.7,0.9
		c1.9,0,2.9-1.6,2.9-3.9c0-2.2-1.2-3.7-3.3-3.7c-0.6,0-1.1,0.2-1.4,0.4V50.2z"/>
	<path class="st1" d="M419,40.4c0-1.2,0-1.2-1.4-1.3v-0.4c1-0.2,2.3-0.5,3-0.7v12.4c0,1.1,0.1,1.2,1.5,1.3v0.5h-4.5v-0.5
		c1.4-0.1,1.5-0.2,1.5-1.3V40.4z"/>
	<path class="st1" d="M426.9,50.4c0,1.1,0.1,1.2,1.4,1.3v0.5h-4.4v-0.5c1.3-0.1,1.4-0.2,1.4-1.3v-4.6c0-1.2,0-1.2-1.4-1.4v-0.4
		c0.9-0.2,1.9-0.4,2.9-0.8V50.4z M427.2,39.7c0,0.6-0.5,1.1-1,1.1c-0.6,0-1-0.5-1-1.1c0-0.6,0.5-1.1,1-1.1
		C426.7,38.6,427.2,39.1,427.2,39.7z"/>
	<path class="st1" d="M437.8,50.3c-0.8,1.2-2.1,2.2-3.2,2.2c-2.5,0-4.1-2-4.1-4.2c0-1.5,0.7-2.8,1.8-3.7c1.2-1,2.6-1.2,3.3-1.2
		c0.5,0,1.3,0.2,1.8,0.5c0.1,0.1,0.2,0.2,0.2,0.4c0,0.4-0.4,0.9-0.7,0.9c-0.1,0-0.2,0-0.3-0.1c-0.8-0.7-1.4-0.9-2.1-0.9
		c-1,0-2.4,0.9-2.4,3.2c0,3,2.1,3.8,3.1,3.8c0.9,0,1.3-0.2,2.4-1.1L437.8,50.3z"/>
	<path class="st1" d="M450.4,39.2v0.5c-1.6,0.1-1.8,0.3-1.8,2.4v4.2c0,1.7,0.2,3,0.8,3.9c0.6,0.9,1.5,1.4,2.9,1.4
		c1.3,0,2.3-0.5,2.9-1.5c0.7-1,0.9-2.8,0.9-4.4v-1.1c0-2.1-0.1-3.2-0.2-3.8c-0.1-0.7-0.6-1-2-1v-0.5h4.8v0.5c-1.1,0-1.6,0.3-1.7,1
		c-0.1,0.6-0.2,1.7-0.2,3.8v1.3c0,2.3-0.4,4-1.5,5.2c-0.9,0.9-2.3,1.4-3.7,1.4c-1.1,0-2.4-0.3-3.3-1c-1.1-0.9-1.5-2.2-1.5-4.5v-4.9
		c0-2.2-0.2-2.3-1.8-2.4v-0.5H450.4z"/>
	<path class="st1" d="M463,44.8c0.4-0.3,0.8-0.6,1.3-0.9c0.6-0.4,1.1-0.6,1.7-0.6c1.6,0,2.5,1.1,2.5,2.7v4.5c0,1.1,0.1,1.2,1.3,1.3
		v0.5h-4.2v-0.5c1.3-0.1,1.4-0.2,1.4-1.3v-3.9c0-1.2-0.4-2.2-1.9-2.2c-0.8,0-1.6,0.4-2.2,0.9v5.1c0,1.1,0.1,1.2,1.3,1.3v0.5H460
		v-0.5c1.4-0.1,1.5-0.2,1.5-1.3v-4.6c0-1.2,0-1.2-1.4-1.4v-0.4c0.9-0.2,1.9-0.4,2.9-0.8V44.8z"/>
	<path class="st1" d="M475,50.4c0,1.1,0.1,1.2,1.4,1.3v0.5H472v-0.5c1.3-0.1,1.4-0.2,1.4-1.3v-4.6c0-1.2,0-1.2-1.4-1.4v-0.4
		c0.9-0.2,1.9-0.4,2.9-0.8V50.4z M475.2,39.7c0,0.6-0.5,1.1-1,1.1c-0.6,0-1-0.5-1-1.1c0-0.6,0.5-1.1,1-1.1
		C474.8,38.6,475.2,39.1,475.2,39.7z"/>
	<path class="st1" d="M481.9,52.4l-2.8-7.1c-0.4-1.1-0.5-1.1-1.6-1.3v-0.5h4V44l-0.7,0.1c-0.3,0-0.4,0.2-0.2,0.8
		c0.6,1.7,1.3,3.6,2,5.2c0.6-1.6,1.3-3.4,1.8-5.1c0.2-0.6,0.1-0.8-0.1-0.8l-0.8-0.1v-0.5h3.4V44c-1.1,0.1-1.1,0.2-1.6,1.3
		c-0.8,1.8-1.8,4.2-2.9,7.1H481.9z"/>
	<path class="st1" d="M495.2,50.5c-1.1,1.6-2.5,2-3,2c-2.5,0-4.1-1.9-4.1-4.2c0-2.7,1.9-4.9,4.3-4.9c1.6,0,2.9,1.4,2.9,2.8
		c0,0.6-0.1,0.7-0.4,0.7c-0.3,0.1-2.8,0.3-5.2,0.3c-0.1,3,1.8,4,3.3,4c0.7,0,1.3-0.2,2.1-1L495.2,50.5z M493.2,46.4
		c0.3,0,0.4-0.1,0.4-0.6c0-0.8-0.6-1.8-1.7-1.8c-1,0-2,1-2.2,2.5L493.2,46.4z"/>
	<path class="st1" d="M500.3,50.4c0,1.1,0.1,1.2,1.7,1.3v0.5h-4.6v-0.5c1.3-0.1,1.4-0.2,1.4-1.3v-4.6c0-1.2,0-1.2-1.4-1.4v-0.4
		c0.9-0.2,1.9-0.4,2.9-0.8v2.1h0c0.5-0.8,1.4-2,2.4-2c0.6,0,1.1,0.5,1.1,0.9c0,0.3-0.2,0.8-0.6,1c-0.2,0.1-0.4,0.1-0.5,0
		c-0.3-0.2-0.5-0.4-0.9-0.4c-0.5,0-1,0.4-1.5,1.4V50.4z"/>
	<path class="st1" d="M506.2,49.4c0.3,1.2,1.2,2.4,2.4,2.4c0.7,0,1.4-0.5,1.4-1.5c0-0.8-0.5-1.4-1.6-1.9c-1.3-0.6-2.4-1.3-2.4-2.6
		c0-1.4,1.2-2.6,3-2.6c0.7,0,1.3,0.2,1.7,0.3c0.2,0.5,0.4,1.6,0.4,1.9l-0.5,0.1c-0.6-1.3-1.2-1.8-2-1.8c-0.9,0-1.3,0.7-1.3,1.4
		c0,0.8,0.9,1.4,1.7,1.7c1.5,0.6,2.4,1.4,2.4,2.7c0,1.8-1.7,2.7-3.2,2.7c-1,0-1.9-0.4-2.3-0.7c-0.1-0.3-0.2-1.4-0.2-2.2L506.2,49.4z
		"/>
	<path class="st1" d="M516.7,50.4c0,1.1,0.1,1.2,1.4,1.3v0.5h-4.4v-0.5c1.3-0.1,1.4-0.2,1.4-1.3v-4.6c0-1.2,0-1.2-1.4-1.4v-0.4
		c0.9-0.2,1.9-0.4,2.9-0.8V50.4z M517,39.7c0,0.6-0.5,1.1-1,1.1c-0.6,0-1-0.5-1-1.1c0-0.6,0.5-1.1,1-1.1
		C516.5,38.6,517,39.1,517,39.7z"/>
	<path class="st1" d="M522.9,49.6c0,1.6,0.7,1.8,1.3,1.8c0.4,0,0.8-0.2,1.2-0.4l0.2,0.4l-1.6,0.8c-0.2,0.1-0.5,0.2-0.6,0.2
		c-1.3,0-2-0.8-2-2.4v-5.8h-1.5l-0.1-0.2l0.6-0.6h1v-1.3l1.3-1.3h0.3v2.6h2.3c0.2,0.2,0.1,0.5-0.1,0.8h-2.2V49.6z"/>
	<path class="st1" d="M530.9,44l-0.6,0.1c-0.4,0.1-0.4,0.4-0.2,0.9l1.7,4.9c0.5-1.1,1.7-4.3,2-5c0.2-0.6,0.2-0.8-0.3-0.9l-0.7-0.1
		v-0.5h3.5V44c-1.1,0.2-1.1,0.3-1.7,1.5c-0.5,1-1.3,2.6-2.5,5.7c-1.3,3.1-1.8,4.4-2.1,5.5c-0.1,0.4-0.4,0.5-0.6,0.5
		c-0.5,0-1-0.4-1-0.9c0-0.3,0.2-0.5,0.6-0.7c0.6-0.4,1-1,1.4-1.7c0.3-0.6,0.5-1.2,0.6-1.5c0.1-0.2,0.1-0.4,0-0.7
		c-0.7-2.1-1.6-4.6-2.2-6.1c-0.5-1.2-0.5-1.3-1.8-1.5v-0.5h4.1V44z"/>
</g>
</svg>
