<?xml version="1.0" encoding="UTF-8" standalone="no"?>
<svg
   xmlns:dc="http://purl.org/dc/elements/1.1/"
   xmlns:cc="http://creativecommons.org/ns#"
   xmlns:rdf="http://www.w3.org/1999/02/22-rdf-syntax-ns#"
   xmlns:svg="http://www.w3.org/2000/svg"
   xmlns="http://www.w3.org/2000/svg"
   xmlns:sodipodi="http://sodipodi.sourceforge.net/DTD/sodipodi-0.dtd"
   xmlns:inkscape="http://www.inkscape.org/namespaces/inkscape"
   version="1.1"
   id="layer"
   x="0px"
   y="0px"
   viewBox="0 0 652 652"
   style="enable-background:new 0 0 652 652;"
   xml:space="preserve"
   sodipodi:docname="columbia-southern-university-csu-vector-logo.svg"><metadata
   id="metadata97"><rdf:RDF><cc:Work
       rdf:about=""><dc:format>image/svg+xml</dc:format><dc:type
         rdf:resource="http://purl.org/dc/dcmitype/StillImage" /></cc:Work></rdf:RDF></metadata><defs
   id="defs95" /><sodipodi:namedview
   pagecolor="#ffffff"
   bordercolor="#666666"
   borderopacity="1"
   objecttolerance="10"
   gridtolerance="10"
   guidetolerance="10"
   inkscape:pageopacity="0"
   inkscape:pageshadow="2"
   inkscape:window-width="640"
   inkscape:window-height="480"
   id="namedview93" />
<style
   type="text/css"
   id="style2">
	.st0{fill:#002D5B;}
	.st1{fill:#CAAA77;}
</style>
<g
   id="g90">
	<path
   class="st0"
   d="M590.2,372.5h11.2v-56.1h-11.2v35.7l-23.5-35.7h-13.3v0.8l3.7,6.2v49.1h11.2v-32.4L590.2,372.5z M534,334   c0,4-2.7,6.3-6.2,6.3h-7.3v-12.6h7.3C531.3,327.7,534,329.9,534,334 M509.2,372.5h11.2v-20.9h2.8c6.5,0,11.1,8.7,13,20.9h11.6   c-1.3-12-5.3-21.9-12-25.6c5.3-1.6,9.7-6.2,9.7-14.2c0-10.4-7.3-16.3-17.8-16.3h-18.5V372.5z M498.3,372.5v-11.3H479v-11.3h17.8   v-11.3H479v-10.9h19.3v-11.3h-30.5v56.1H498.3z M445.5,372.5h11.2v-56.1h-11.2v22.2H421v-22.2h-11.2v56.1H421v-22.6h24.5V372.5z    M377.2,372.5h11.2v-44.8h13v-11.3h-37.2v11.3h13V372.5z M345.3,316.4v36c0,5.7-3.6,9.6-9.3,9.6c-5.7,0-9.2-4-9.2-9.6v-36h-11.2v35   c0,13.8,7.9,22,20.4,22c12.5,0,20.5-8.3,20.5-22v-35H345.3z M263.3,344.4c0-9.5,6.9-17.2,16.1-17.2c9.1,0,16,7.8,16,17.2   c0,9.6-6.9,17.2-16,17.2C270.2,361.7,263.3,354,263.3,344.4 M251.8,344.4c0,16.4,11.9,29,27.6,29c15.7,0,27.6-12.5,27.6-29   c0-16.4-11.9-29-27.6-29C263.7,315.5,251.8,328,251.8,344.4 M242.9,318c-3.3-1.6-7.5-2.6-11.5-2.6c-13.9,0-18.7,8.5-18.7,16.3   c0,6.4,2.2,11.1,9.3,15.4l7.3,4.5c3,1.8,4.3,3.5,4.3,5.4c0,3.1-2.4,5.2-6.6,5.2c-5,0-10.2-2.5-13.1-4.9v13   c3.4,1.5,8.3,2.9,13.6,2.9c12.5,0,18.1-8,18.1-16.8c0-6.3-2.8-11.1-9.7-15.5l-7.1-4.5c-2.6-1.6-4-3.3-4-5.1c0-2.9,2.1-5,6.6-5   c4.1,0,8.8,2,11.6,4V318z"
   id="path4" />
	<path
   class="st0"
   d="M243.4,247.9c-5.3-4.3-12.3-6.8-20-6.8c-17.7,0-31.1,13-31.1,30c0,17,13.4,30,31.1,30c7.8,0,14.7-2.5,20-6.8   c-2.7-3.5-4.7-7.5-6-11.9c-3.3,4-8.3,6.5-14.1,6.5c-10.3,0-18.1-7.9-18.1-17.8c0-9.8,7.8-17.8,18.1-17.8c5.8,0,10.8,2.6,14,6.6   C238.7,255.4,240.8,251.4,243.4,247.9"
   id="path6" />
	<path
   class="st0"
   d="M546.6,300.1h12.6V242h-12.6V300.1z M523,259.1c0,3.7-2.6,5.4-6,5.4h-8.3v-10.8h8.3   C520.4,253.7,523,255.4,523,259.1 M524.7,282.3c0,4.2-3,6.1-7,6.1h-8.9v-12.2h8.9C521.6,276.2,524.7,278.2,524.7,282.3    M496.2,300.1h21.5c11.6,0,20-6.5,20-16.1c0-6.8-3.6-11.4-8.9-13.8c4.3-2.2,7.2-6.4,7.2-12.7c0-9.2-7.8-15.5-18.8-15.5h-21V300.1z    M457.2,300.1l14-36.2v36.2h12.6V242h-15.4l-16.7,42.6L435,242h-15.4v58.1h12.6v-36.2l14,36.2H457.2z M394,242v37.2   c0,5.9-4,10-10.5,10c-6.4,0-10.4-4.1-10.4-10V242h-12.6v36.2c0,14.3,8.9,22.8,23,22.8c14.1,0,23.1-8.5,23.1-22.8V242H394z    M354.2,300.1v-11.7h-21.8V242h-12.6v58.1H354.2z"
   id="path8" />
	<path
   class="st0"
   d="M260.7,271.1c0-9.8,7.8-17.8,18.1-17.8c10.2,0,18,8,18,17.8c0,9.9-7.8,17.8-18,17.8   C268.5,288.9,260.7,281,260.7,271.1 M247.8,271.1c0,17,13.4,30,31.1,30c17.7,0,31.1-13,31.1-30c0-17-13.4-30-31.1-30   C261.2,241.1,247.8,254.1,247.8,271.1"
   id="path10" />
	<path
   class="st0"
   d="M607.7,300.1h14.1L598,242h-3.7h0h-5.8h0h-4.6v0.7l2.2,5.3l-21.4,52.1h14.1l5.2-12.4h18.7L607.7,300.1z    M588.7,276.1l4.5-10.9l4.5,10.9H588.7z"
   id="path12" />
	<path
   class="st0"
   d="M549.2,413.5h4v-9.8l7.7-12.7h-4.5l-5.3,8.9l-5.3-8.9h-4.5l7.8,12.7V413.5z M515.5,413.5h4v-19h6v-3.6h-16v3.6   h6V413.5z M488.3,413.5h4v-22.6h-4V413.5z M469.3,391.7c-1.4-0.7-3.2-1.2-5.1-1.2c-5.8,0-7.8,3.3-7.8,6.3c0,2.4,0.9,4.2,3.9,5.8   l3.7,2.2c1.5,0.9,2.2,1.8,2.2,2.8c0,1.5-1.3,2.7-3.7,2.7c-2.3,0-4.5-1-5.8-2v4.3c1.4,0.7,3.5,1.3,5.9,1.3c5.2,0,7.7-3.1,7.7-6.5   c0-2.5-1.2-4.3-4.2-6l-3.6-2.2c-1.3-0.8-2-1.6-2-2.5c0-1.5,1.3-2.6,3.5-2.6c1.9,0,3.9,0.8,5.2,1.7V391.7z M433.9,397.8   c0,2.1-1.5,3.2-3.6,3.2h-3.6v-6.4h3.6C432.4,394.6,433.9,395.7,433.9,397.8 M422.8,413.5h4v-8.9h1.8c3,0,5.5,3.7,6.4,8.9h4.1   c-0.7-5.1-2.8-9-5.7-10.4c2.5-0.7,4.6-2.5,4.6-5.8c0-4.1-3.1-6.4-7.6-6.4h-7.6V413.5z M403.4,413.5v-3.6h-9.1v-5.9h8.4v-3.6h-8.4   v-5.8h9.1v-3.6h-13.1v22.6H403.4z M359.6,413.5h4.4l8.9-22.6h-4.4l-6.6,18.2l-6.7-18.2h-4.4L359.6,413.5z M329.4,413.5h4v-22.6h-4   V413.5z M305.3,413.5h4v-22.6h-4v16l-12-16h-4.7v0.3l1.6,2.4v19.9h4v-14.6L305.3,413.5z M266.9,390.9v14.6c0,2.8-1.9,4.7-4.8,4.7   c-3,0-4.9-1.9-4.9-4.7v-14.6h-4v14.3c0,5.3,3.4,8.6,8.8,8.6c5.4,0,8.8-3.3,8.8-8.6v-14.3H266.9z"
   id="path14" />
	<path
   class="st0"
   d="M139.9,267.8c-34.4-12.1-63.9-5.7-79.3-0.2v-8.7l39.7-16.4c0,0,20.7,7.9,39.7,15.9V267.8z M156.7,250.5   c-20.6-9.6-56.5-23.3-56.5-23.3l-56.5,23.3v15.3l5.4-2.2v14v20.6c0,12.2,4.3,23.3,11.4,32.1v-47.9c3.2-1.1,7-2.3,11.3-3.3v61.5   c3.5,2.4,7.4,4.3,11.4,5.7V277c3.5-0.5,7.3-0.9,11.3-1v75.6c2,1.6,4.1,3.6,5.7,6.3c1.5-2.9,3.6-5,5.7-6.6V276   c3.6,0.2,7.4,0.5,11.3,1.1v69.3c4.1-1.4,7.9-3.4,11.4-5.7v-61.3c3.7,0.9,7.4,2,11.3,3.4v47.6c7.1-8.8,11.4-19.9,11.4-32.1v-1.1v-16   v-3.5v-1.4v-12.9c1.9,0.8,3.7,1.6,5.4,2.4V250.5z"
   id="path16" />
	<path
   class="st1"
   d="M30.5,299.3c0,0,3.2-10.5-8-12.8C19.2,298.2,30.5,299.3,30.5,299.3"
   id="path18" />
	<path
   class="st1"
   d="M43.3,287c0,0,2.2,10.8-9.2,12C31.8,287,43.3,287,43.3,287"
   id="path20" />
	<path
   class="st1"
   d="M32.4,274.3c0,0,8.2,7.3-0.2,15.1C23.2,281.1,32.4,274.3,32.4,274.3"
   id="path22" />
	<path
   class="st1"
   d="M33,313.3c0,0,1.3-10.9-10.2-11.2C21.6,314.3,33,313.3,33,313.3"
   id="path24" />
	<path
   class="st1"
   d="M43.3,299c0,0,4.1,10.2-7,13.5C32.1,301,43.3,299,43.3,299"
   id="path26" />
	<path
   class="st1"
   d="M37.5,326.2c0,0-0.3-11-11.7-9.6C26.4,328.7,37.5,326.2,37.5,326.2"
   id="path28" />
	<path
   class="st1"
   d="M45.7,310.5c0,0,5.5,9.5-5,14.3C34.9,314.1,45.7,310.5,45.7,310.5"
   id="path30" />
	<path
   class="st1"
   d="M44.5,338.6c0,0-2.4-10.7-13.4-7.2C34.1,343.3,44.5,338.6,44.5,338.6"
   id="path32" />
	<path
   class="st1"
   d="M49.5,321.6c0,0,7.3,8.3-2.1,15C39.5,327.3,49.5,321.6,49.5,321.6"
   id="path34" />
	<path
   class="st1"
   d="M53.3,348.6c0,0-4.3-10.1-14.4-4.6C44,355.1,53.3,348.6,53.3,348.6"
   id="path36" />
	<path
   class="st1"
   d="M55.1,331.1c0,0,8.7,6.8,0.7,15.1C46.4,338.4,55.1,331.1,55.1,331.1"
   id="path38" />
	<path
   class="st1"
   d="M64.9,357.1c0,0-6.7-8.7-15.1-0.9C57.4,365.7,64.9,357.1,64.9,357.1"
   id="path40" />
	<path
   class="st1"
   d="M62.2,339.6c0,0,10.1,4.4,4.4,14.5C55.6,348.9,62.2,339.6,62.2,339.6"
   id="path42" />
	<path
   class="st1"
   d="M77.2,363c0,0-8.2-7.3-15,2C71.5,372.9,77.2,363,77.2,363"
   id="path44" />
	<path
   class="st1"
   d="M71.4,346.4c0,0,10.7,2.5,7.1,13.4C66.6,356.7,71.4,346.4,71.4,346.4"
   id="path46" />
	<path
   class="st1"
   d="M90,367.3c0,0-9-6.4-14.7,3.6C85.4,377.8,90,367.3,90,367.3"
   id="path48" />
	<path
   class="st1"
   d="M82.3,351.4c0,0,10.9,1.3,8.5,12.5C78.7,362.2,82.3,351.4,82.3,351.4"
   id="path50" />
	<path
   class="st1"
   d="M92.8,365.6c0,0-0.7-0.1-0.9,0.4c-0.2,0.5,0.4,1,0.4,1s10.2,3.8,14.9,10.7l0.2-0.5   C103.4,369.9,92.8,365.6,92.8,365.6"
   id="path52" />
	<path
   class="st1"
   d="M169.9,299.3c0,0-3.2-10.5,8-12.8C181.3,298.2,169.9,299.3,169.9,299.3"
   id="path54" />
	<path
   class="st1"
   d="M157.2,287c0,0-2.2,10.8,9.2,12C168.6,287,157.2,287,157.2,287"
   id="path56" />
	<path
   class="st1"
   d="M168.1,274.3c0,0-8.2,7.3,0.2,15.1C177.2,281.1,168.1,274.3,168.1,274.3"
   id="path58" />
	<path
   class="st1"
   d="M167.5,313.3c0,0-1.3-10.9,10.2-11.2C178.9,314.3,167.5,313.3,167.5,313.3"
   id="path60" />
	<path
   class="st1"
   d="M157.1,299c0,0-4.1,10.2,7,13.5C168.4,301,157.1,299,157.1,299"
   id="path62" />
	<path
   class="st1"
   d="M162.9,326.2c0,0,0.3-11,11.7-9.6C174,328.7,162.9,326.2,162.9,326.2"
   id="path64" />
	<path
   class="st1"
   d="M154.7,310.5c0,0-5.5,9.5,5,14.3C165.6,314.1,154.7,310.5,154.7,310.5"
   id="path66" />
	<path
   class="st1"
   d="M156,338.6c0,0,2.4-10.7,13.4-7.2C166.4,343.3,156,338.6,156,338.6"
   id="path68" />
	<path
   class="st1"
   d="M151,321.6c0,0-7.3,8.3,2.1,15C160.9,327.3,151,321.6,151,321.6"
   id="path70" />
	<path
   class="st1"
   d="M147.1,348.6c0,0,4.3-10.1,14.4-4.6C156.5,355.1,147.1,348.6,147.1,348.6"
   id="path72" />
	<path
   class="st1"
   d="M145.3,331.1c0,0-8.7,6.8-0.7,15.1C154.1,338.4,145.3,331.1,145.3,331.1"
   id="path74" />
	<path
   class="st1"
   d="M135.6,357.1c0,0,6.7-8.7,15.1-0.9C143.1,365.7,135.6,357.1,135.6,357.1"
   id="path76" />
	<path
   class="st1"
   d="M138.2,339.6c0,0-10.1,4.4-4.4,14.5C144.9,348.9,138.2,339.6,138.2,339.6"
   id="path78" />
	<path
   class="st1"
   d="M123.2,363c0,0,8.2-7.3,15,2C128.9,372.9,123.2,363,123.2,363"
   id="path80" />
	<path
   class="st1"
   d="M129.1,346.4c0,0-10.7,2.5-7.1,13.4C133.9,356.7,129.1,346.4,129.1,346.4"
   id="path82" />
	<path
   class="st1"
   d="M110.5,367.3c0,0,9-6.4,14.7,3.6C115.1,377.8,110.5,367.3,110.5,367.3"
   id="path84" />
	<path
   class="st1"
   d="M118.1,351.4c0,0-10.9,1.3-8.5,12.5C121.7,362.2,118.1,351.4,118.1,351.4"
   id="path86" />
	<path
   class="st1"
   d="M107.6,365.6c0,0,0.7-0.1,0.9,0.4c0.2,0.5-0.4,1-0.4,1s-10.2,3.8-14.9,10.7l-0.2-0.5   C97.1,369.9,107.6,365.6,107.6,365.6"
   id="path88" />
</g>
</svg>
