<?xml version="1.0"?>
<svg xmlns="http://www.w3.org/2000/svg" viewBox="0 0 216 46.9" width="512" height="111" style="enable-background:new 0 0 216 46.9;" xml:space="preserve">
<style type="text/css">
	.st0{fill:#002B5C;}
</style>
		<title>Maricopa Community Colleges Logo</title>
			<path class="st0" d="M41.2,25.5L29.6,44.1l-6-11.6L39.1,5.9C29.4-2.7,14.6-1.8,5.9,7.9c-6,6.7-7.6,16.3-4.1,24.6l17.5-30
				l9.5,17.3l-6.2,10.7l-3.3-4.8L9.1,42c10.2,8,25,6.1,33-4.1c1.3-1.7,2.3-3.5,3.2-5.4L41.2,25.5z"/>
			<polygon class="st0" points="60.3,4.9 67,4.9 71.6,18.1 71.6,18.1 76.3,4.9 83,4.9 83,25.1 78.5,25.1 78.5,9.6 78.5,9.6 
				73.2,25.1 69.8,25.1 64.7,9.6 64.7,9.6 64.7,25.1 60.3,25.1 			"/>
			<path class="st0" d="M94.4,4.9H98l8.7,20.1h-5l-1.7-4.3h-7.8L90.6,25h-4.9L94.4,4.9z M96.1,10.8l-2.4,6.2h4.9L96.1,10.8z"/>
			<path class="st0" d="M109.5,4.9h7.7c1,0,2,0.1,2.9,0.3c0.9,0.2,1.7,0.5,2.4,1c0.7,0.5,1.3,1.1,1.7,1.9c0.4,0.9,0.6,1.9,0.6,2.9
				c0,1.3-0.4,2.6-1.1,3.6c-0.8,1-2,1.7-3.2,1.9l5.1,8.5h-5.3l-4.2-8h-2.2v8h-4.4V4.9z M114,13.3h2.6h1.3c0.4,0,0.8-0.1,1.2-0.3
				c0.3-0.2,0.6-0.4,0.9-0.7c0.3-0.4,0.4-0.8,0.4-1.3c0-0.4-0.1-0.9-0.3-1.2c-0.2-0.3-0.5-0.5-0.8-0.7c-0.4-0.2-0.7-0.3-1.1-0.3
				c-0.4-0.1-0.8-0.1-1.2-0.1h-3L114,13.3z"/>
			<rect x="128.5" y="4.9" class="st0" width="4.4" height="20.1"/>
			<path class="st0" d="M150.1,10.2c-0.4-0.5-0.9-0.9-1.5-1.2c-0.7-0.3-1.4-0.4-2.2-0.4c-1.6,0-3.1,0.7-4.2,1.8
				c-0.5,0.6-0.9,1.3-1.2,2.1c-0.3,0.8-0.5,1.7-0.4,2.6c0,0.9,0.1,1.8,0.4,2.6c0.3,0.7,0.7,1.4,1.2,2c0.5,0.6,1.1,1,1.8,1.3
				c0.7,0.3,1.5,0.5,2.2,0.5c0.8,0,1.7-0.2,2.4-0.6c0.7-0.4,1.3-0.9,1.7-1.5l3.7,2.7c-0.8,1.1-2,2-3.3,2.6c-1.3,0.6-2.6,0.8-4,0.8
				c-1.5,0-2.9-0.2-4.3-0.7c-1.3-0.5-2.5-1.2-3.4-2.1c-1-0.9-1.7-2.1-2.3-3.3c-0.6-1.4-0.8-2.9-0.8-4.4c0-1.5,0.2-3,0.8-4.4
				c0.5-1.3,1.3-2.4,2.3-3.3c1-0.9,2.2-1.7,3.4-2.1c1.4-0.5,2.9-0.8,4.3-0.7c0.6,0,1.2,0.1,1.8,0.2c0.6,0.1,1.2,0.3,1.8,0.5
				c0.6,0.2,1.2,0.5,1.7,0.9c0.6,0.4,1.1,0.8,1.5,1.4L150.1,10.2z"/>
			<path class="st0" d="M155.1,15c0-1.5,0.2-3,0.7-4.4c0.5-1.3,1.3-2.4,2.3-3.3c1-0.9,2.2-1.7,3.4-2.1c2.8-1,5.9-1,8.7,0
				c1.3,0.5,2.5,1.2,3.4,2.1c1,0.9,1.7,2.1,2.3,3.3c0.6,1.4,0.8,2.9,0.8,4.4c0,1.5-0.3,3-0.8,4.4c-0.5,1.3-1.3,2.4-2.3,3.3
				c-1,0.9-2.2,1.7-3.4,2.1c-2.8,1-5.9,1-8.7,0c-1.3-0.5-2.5-1.2-3.4-2.1c-1-0.9-1.7-2.1-2.3-3.3C155.3,18,155,16.5,155.1,15
				 M159.6,15c0,0.9,0.1,1.8,0.4,2.6c0.3,0.8,0.7,1.5,1.3,2c0.6,0.6,1.2,1,2,1.3c1.7,0.6,3.5,0.6,5.1,0c0.7-0.3,1.4-0.8,2-1.3
				c0.6-0.6,1-1.3,1.3-2c0.3-0.8,0.5-1.7,0.4-2.6c0-0.9-0.1-1.8-0.4-2.6c-0.3-0.8-0.7-1.5-1.3-2.1c-0.6-0.6-1.2-1-2-1.3
				c-1.7-0.6-3.5-0.6-5.1,0c-0.7,0.3-1.4,0.8-2,1.3c-0.6,0.6-1,1.3-1.3,2.1C159.8,13.3,159.6,14.1,159.6,15"/>
			<path class="st0" d="M180.5,4.9h7.5c1,0,2,0.1,2.9,0.3c0.9,0.2,1.7,0.5,2.4,1c0.7,0.5,1.3,1.1,1.7,1.9c0.4,0.9,0.6,1.9,0.6,3
				c0,1-0.2,2-0.6,2.9c-0.3,0.8-0.9,1.4-1.5,1.9c-0.7,0.5-1.5,0.8-2.4,1c-1,0.2-2,0.3-2.9,0.3h-3.2V25h-4.4V4.9z M184.9,13.5h2.9
				c0.4,0,0.8,0,1.1-0.1c0.3-0.1,0.7-0.2,1-0.4c0.3-0.2,0.5-0.4,0.7-0.7c0.2-0.4,0.3-0.8,0.3-1.2c0-0.4-0.1-0.9-0.4-1.2
				c-0.2-0.3-0.6-0.6-0.9-0.7c-0.4-0.2-0.8-0.3-1.2-0.3c-0.4,0-0.9,0-1.3,0h-2.3L184.9,13.5z"/>
			<path class="st0" d="M203.6,4.9h3.7L216,25h-5l-1.7-4.3h-7.8l-1.7,4.3h-4.9L203.6,4.9z M205.3,10.8l-2.4,6.2h4.9L205.3,10.8z"/>
			<path class="st0" d="M66.9,34.4c-0.3-0.3-0.6-0.6-1-0.8c-0.4-0.2-0.8-0.3-1.2-0.3c-0.5,0-0.9,0.1-1.3,0.3
				c-0.4,0.2-0.8,0.5-1.1,0.8c-0.3,0.3-0.5,0.7-0.7,1.2c-0.2,0.4-0.2,0.9-0.2,1.4c0,0.5,0.1,1,0.2,1.4c0.2,0.4,0.4,0.8,0.7,1.2
				c0.3,0.3,0.7,0.6,1,0.8c0.9,0.4,1.9,0.4,2.8,0c0.4-0.2,0.8-0.5,1.1-0.9l0.8,0.7c-0.4,0.5-0.9,0.9-1.4,1.2
				c-0.6,0.2-1.2,0.3-1.8,0.3c-0.6,0-1.2-0.1-1.8-0.4c-0.5-0.2-1-0.5-1.4-1c-0.4-0.4-0.7-0.9-0.9-1.5c-0.2-0.6-0.3-1.2-0.3-1.9
				c0-0.6,0.1-1.2,0.3-1.8c0.7-1.7,2.3-2.8,4.1-2.8c0.6,0,1.2,0.1,1.7,0.3c0.6,0.2,1,0.6,1.4,1L66.9,34.4z"/>
			<path class="st0" d="M74.3,41.6c-0.6,0-1.3-0.1-1.9-0.3c-0.5-0.2-1-0.5-1.5-1c-0.4-0.4-0.7-0.9-1-1.5c-0.5-1.2-0.5-2.5,0-3.7
				c0.2-0.5,0.5-1,1-1.5c0.4-0.4,0.9-0.7,1.5-1c1.2-0.5,2.5-0.5,3.7,0c0.5,0.2,1,0.5,1.5,1c0.4,0.4,0.7,0.9,1,1.5
				c0.5,1.2,0.5,2.5,0,3.7c-0.2,0.5-0.5,1-1,1.5c-0.4,0.4-0.9,0.7-1.5,1C75.6,41.5,75,41.6,74.3,41.6 M74.3,40.6
				c0.5,0,1-0.1,1.4-0.3c0.4-0.2,0.8-0.5,1.1-0.8c0.3-0.3,0.5-0.7,0.7-1.2c0.3-0.9,0.3-1.9,0-2.8c-0.2-0.4-0.4-0.8-0.7-1.2
				c-0.3-0.3-0.7-0.6-1.1-0.8c-0.9-0.4-1.9-0.4-2.8,0c-0.4,0.2-0.8,0.5-1.1,0.8c-0.3,0.3-0.5,0.7-0.7,1.2c-0.3,0.9-0.3,1.9,0,2.8
				c0.2,0.4,0.4,0.8,0.7,1.2c0.3,0.3,0.7,0.6,1.1,0.8C73.4,40.6,73.8,40.7,74.3,40.6"/>
			<polygon class="st0" points="81.4,32.6 82.9,32.6 85.9,39.5 85.9,39.5 88.9,32.6 90.5,32.6 90.5,41.4 89.4,41.4 89.4,34 89.4,34 
				86.2,41.4 85.6,41.4 82.4,34 82.4,34 82.4,41.4 81.4,41.4 			"/>
			<polygon class="st0" points="93.4,32.6 94.9,32.6 97.9,39.5 98,39.5 101,32.6 102.5,32.6 102.5,41.4 101.4,41.4 101.4,34 
				101.4,34 98.2,41.4 97.6,41.4 94.5,34 94.4,34 94.4,41.4 93.4,41.4 			"/>
			<path class="st0" d="M112,38c0,0.5-0.1,0.9-0.2,1.4c-0.1,0.4-0.3,0.8-0.6,1.1c-0.3,0.3-0.6,0.6-1,0.8c-1,0.4-2.1,0.4-3.1,0
				c-0.4-0.2-0.7-0.4-1-0.8c-0.3-0.3-0.5-0.7-0.6-1.1c-0.1-0.4-0.2-0.9-0.2-1.4v-5.4h1.1v5.3c0,0.3,0,0.7,0.1,1
				c0.1,0.3,0.2,0.6,0.4,0.9c0.2,0.3,0.4,0.5,0.7,0.6c0.7,0.3,1.5,0.3,2.2,0c0.3-0.1,0.5-0.4,0.7-0.6c0.2-0.3,0.3-0.6,0.4-0.9
				c0.1-0.3,0.1-0.7,0.1-1v-5.3h1L112,38z"/>
			<polygon class="st0" points="114.9,32.6 116.2,32.6 121.3,39.9 121.4,39.9 121.4,32.6 122.4,32.6 122.4,41.4 121.1,41.4 
				116,34.1 116,34.1 116,41.4 114.9,41.4 			"/>
			<rect x="125.3" y="32.6" class="st0" width="1" height="8.8"/>
			<polygon class="st0" points="135.2,33.6 132.3,33.6 132.3,41.4 131.3,41.4 131.3,33.6 128.4,33.6 128.4,32.6 135.2,32.6 			"/>
			<polygon class="st0" points="139.3,37.6 136,32.6 137.3,32.6 139.8,36.6 142.4,32.6 143.6,32.6 140.3,37.6 140.3,41.4 
				139.3,41.4 			"/>
			<path class="st0" d="M155.7,34.4c-0.3-0.3-0.6-0.6-1-0.8c-0.4-0.2-0.8-0.3-1.2-0.3c-0.5,0-0.9,0.1-1.3,0.3
				c-0.4,0.2-0.8,0.5-1.1,0.8c-0.3,0.3-0.5,0.7-0.7,1.2c-0.2,0.4-0.2,0.9-0.2,1.4c0,0.5,0.1,1,0.2,1.4c0.2,0.4,0.4,0.8,0.7,1.2
				c0.3,0.3,0.7,0.6,1,0.8c0.9,0.4,1.9,0.4,2.8,0c0.4-0.2,0.8-0.5,1.1-0.9l0.8,0.7c-0.4,0.5-0.9,0.9-1.4,1.2
				c-0.6,0.3-1.2,0.4-1.9,0.4c-0.6,0-1.2-0.1-1.8-0.4c-0.5-0.2-1-0.5-1.4-1c-0.4-0.4-0.7-0.9-0.9-1.5c-0.2-0.6-0.3-1.2-0.3-1.9
				c0-0.6,0.1-1.2,0.3-1.8c0.6-1.7,2.3-2.9,4.1-2.9c0.6,0,1.2,0.1,1.7,0.3c0.6,0.2,1,0.6,1.4,1L155.7,34.4z"/>
			<path class="st0" d="M163.2,41.6c-0.6,0-1.3-0.1-1.9-0.4c-0.5-0.2-1-0.5-1.5-1c-0.4-0.4-0.7-0.9-1-1.5c-0.5-1.2-0.5-2.5,0-3.7
				c0.2-0.5,0.5-1,1-1.5c0.4-0.4,0.9-0.7,1.5-1c1.2-0.5,2.5-0.5,3.7,0c0.5,0.2,1,0.5,1.5,1c0.4,0.4,0.7,0.9,1,1.5
				c0.5,1.2,0.5,2.5,0,3.7c-0.2,0.5-0.5,1-1,1.5c-0.4,0.4-0.9,0.7-1.5,1C164.4,41.5,163.8,41.6,163.2,41.6 M163.1,40.6
				c0.5,0,1-0.1,1.4-0.3c0.4-0.2,0.8-0.5,1.1-0.8c0.3-0.3,0.5-0.7,0.7-1.2c0.3-0.9,0.3-1.9,0-2.8c-0.2-0.4-0.4-0.8-0.7-1.2
				c-0.3-0.3-0.7-0.6-1.1-0.8c-0.9-0.4-1.9-0.4-2.8,0c-0.4,0.2-0.8,0.5-1.1,0.8c-0.3,0.3-0.5,0.7-0.7,1.2c-0.3,0.9-0.3,1.9,0,2.8
				c0.2,0.4,0.4,0.8,0.7,1.2c0.3,0.3,0.7,0.6,1.1,0.8C162.2,40.5,162.6,40.6,163.1,40.6"/>
			<polygon class="st0" points="170.2,32.6 171.2,32.6 171.2,40.4 175.2,40.4 175.2,41.4 170.2,41.4 			"/>
			<polygon class="st0" points="177.1,32.6 178.2,32.6 178.2,40.4 182.2,40.4 182.2,41.4 177.1,41.4 			"/>
			<polygon class="st0" points="184.1,32.6 189.6,32.6 189.6,33.6 185.2,33.6 185.2,36.3 189.3,36.3 189.3,37.3 185.2,37.3 
				185.2,40.4 189.9,40.4 189.9,41.4 184.1,41.4 			"/>
			<path class="st0" d="M199.7,40.8c-0.5,0.3-1,0.5-1.5,0.6c-0.6,0.1-1.1,0.2-1.7,0.2c-0.6,0-1.3-0.1-1.9-0.3
				c-0.6-0.2-1.1-0.5-1.5-0.9c-0.4-0.4-0.8-0.9-1-1.5c-0.2-0.6-0.4-1.2-0.4-1.9c0-0.7,0.1-1.3,0.4-1.9c0.2-0.5,0.6-1,1-1.5
				c0.4-0.4,1-0.7,1.5-0.9c0.6-0.2,1.2-0.3,1.9-0.3c0.6,0,1.1,0.1,1.7,0.3c0.5,0.2,1,0.5,1.4,0.9l-0.8,0.8c-0.3-0.3-0.7-0.6-1.1-0.7
				c-0.4-0.2-0.9-0.3-1.3-0.3c-0.5,0-1,0.1-1.4,0.3c-0.9,0.4-1.5,1-1.9,1.9c-0.4,0.9-0.4,2,0,2.9c0.2,0.4,0.4,0.8,0.7,1.2
				c0.3,0.3,0.7,0.6,1.1,0.8c0.5,0.2,1,0.3,1.5,0.3c0.4,0,0.7-0.1,1.1-0.1c0.4-0.1,0.7-0.2,1.1-0.4v-2.7h-2v-1h3.1L199.7,40.8z"/>
			<polygon class="st0" points="202.6,32.6 208.2,32.6 208.2,33.6 203.7,33.6 203.7,36.3 207.9,36.3 207.9,37.3 203.7,37.3 
				203.7,40.4 208.4,40.4 208.4,41.4 202.6,41.4 			"/>
			<path class="st0" d="M214.9,34.2c-0.2-0.3-0.4-0.5-0.7-0.6c-0.3-0.1-0.6-0.2-0.9-0.2c-0.2,0-0.5,0-0.7,0.1
				c-0.2,0.1-0.4,0.1-0.6,0.3c-0.2,0.1-0.3,0.3-0.4,0.5c-0.1,0.2-0.2,0.4-0.2,0.7c0,0.2,0,0.4,0.1,0.5c0.1,0.2,0.2,0.3,0.3,0.4
				c0.2,0.1,0.4,0.3,0.6,0.4c0.3,0.1,0.6,0.2,0.9,0.3l1,0.4c0.3,0.1,0.6,0.3,0.8,0.5c0.2,0.2,0.4,0.4,0.6,0.7
				c0.2,0.3,0.2,0.7,0.2,1.1c0,0.8-0.3,1.5-1,1.9c-0.3,0.2-0.6,0.4-1,0.5c-0.4,0.1-0.8,0.2-1.2,0.2c-0.3,0-0.5,0-0.8,0
				c-0.3,0-0.5-0.1-0.7-0.2c-0.2-0.1-0.5-0.2-0.7-0.4c-0.2-0.2-0.4-0.4-0.5-0.6l0.9-0.7c0.2,0.3,0.5,0.6,0.8,0.7
				c0.5,0.3,1.2,0.3,1.8,0.2c0.2-0.1,0.4-0.2,0.6-0.3c0.2-0.1,0.3-0.3,0.4-0.5c0.1-0.2,0.2-0.4,0.2-0.7c0-0.2,0-0.5-0.1-0.7
				c-0.1-0.2-0.2-0.3-0.4-0.4c-0.2-0.1-0.5-0.3-0.7-0.3l-1-0.4c-0.3-0.1-0.6-0.2-0.9-0.3c-0.3-0.1-0.5-0.3-0.7-0.5
				c-0.2-0.2-0.4-0.4-0.5-0.7c-0.1-0.3-0.2-0.6-0.2-0.9c0-0.4,0.1-0.8,0.2-1.1c0.2-0.3,0.4-0.6,0.7-0.8c0.3-0.2,0.6-0.4,1-0.5
				c0.4-0.1,0.7-0.2,1.1-0.2c0.5,0,0.9,0.1,1.4,0.2c0.4,0.2,0.8,0.4,1.1,0.8L214.9,34.2z"/>
</svg>
