<svg id="Layer_1" data-name="Layer 1" xmlns="http://www.w3.org/2000/svg" xmlns:xlink="http://www.w3.org/1999/xlink" viewBox="0 0 96 96"><defs><style>.cls-1{fill:none;}.cls-2{clip-path:url(#clip-path);}.cls-3{fill:#aa1e40;}.cls-4{fill:#d28f3d;}.cls-5{fill:#7f1420;}</style><clipPath id="clip-path"><rect class="cls-1" x="-344.7" y="-58" width="687.04" height="515.28"/></clipPath></defs><g class="cls-2"><path class="cls-3" d="M21.22,80.21a1.71,1.71,0,1,1-1.7-1.71,1.7,1.7,0,0,1,1.7,1.71"/><path class="cls-3" d="M78.11,80.21A1.71,1.71,0,1,1,76.4,78.5a1.7,1.7,0,0,1,1.71,1.71"/><path class="cls-3" d="M42.47,43.35a7.74,7.74,0,0,0,0,10.91L48,59.75h0l4-4-4-4-.41-.41a3.69,3.69,0,0,1,0-5.21l.41-.4,8.47,8.51a2.11,2.11,0,0,1,0,3l-7,7a2.07,2.07,0,0,1-1.32.62H48a2.09,2.09,0,0,1-1.51-.63l-7-7A11.85,11.85,0,0,1,36,49.81L26.88,59a26.43,26.43,0,0,0,6.66,8.11A61.11,61.11,0,0,0,48,75.54a61.14,61.14,0,0,0,14.42-8.48,26.38,26.38,0,0,0,6.67-8.13L48,37.87Z"/><path class="cls-3" d="M69.8,30.88c-6-2.42-11.63-4.44-17.34-5.14A21.66,21.66,0,0,1,48,27.13a21.55,21.55,0,0,1-4.5-1.39c-5.71.7-11.31,2.72-17.34,5.14a1.59,1.59,0,0,0-1,1.46v19a18,18,0,0,0,.19,3.1L46.46,33.35A2.14,2.14,0,0,1,48,32.73h.16a2.13,2.13,0,0,1,1.34.61L70.61,54.47a19.54,19.54,0,0,0,.18-3.09v-19a1.57,1.57,0,0,0-1-1.46"/><path class="cls-4" d="M15.74,70.63l-1.22-1.89a1.35,1.35,0,0,0-2-.54l-.89.58L12.41,70l.84-.54c.08,0,.17-.09.29.1l1,1.6c.11.16,0,.24,0,.29l-3.24,2.1c-.08,0-.18.08-.29-.09l-1-1.6c-.12-.18-.05-.25,0-.3l.84-.54L10,69.79l-.88.58a1.33,1.33,0,0,0-.34,2.07L10,74.33a1.35,1.35,0,0,0,2,.54L15.4,72.7a1.33,1.33,0,0,0,.34-2.07"/><path class="cls-4" d="M10.69,64.44,7.1,65.86c-.09,0-.18,0-.26-.14l-.75-1.89c-.08-.21,0-.26.09-.3l3.59-1.41c.09,0,.19-.06.27.15l.75,1.89c.07.19,0,.25-.1.28M12,63.85l-.88-2.22a1.34,1.34,0,0,0-1.88-.93l-3.7,1.47a1.34,1.34,0,0,0-.75,2l.88,2.22a1.33,1.33,0,0,0,1.88.92l3.71-1.46a1.33,1.33,0,0,0,.74-2"/></g><polygon class="cls-4" points="7.89 53.37 8.46 56.5 3.03 57.49 3.3 58.96 9.99 57.74 9.15 53.14 7.89 53.37"/><g class="cls-2"><path class="cls-4" d="M3.65,47.26l3.86,0c.09,0,.19,0,.19.24l0,2c0,.2-.1.23-.2.23l-3.85,0c-.1,0-.19,0-.19-.23l0-2c0-.22.1-.24.19-.24M7.59,45.8l-4,0c-.91,0-1.41.54-1.42,1.54l0,2.39c0,1,.49,1.56,1.4,1.57l4,0c.91,0,1.42-.54,1.43-1.54l0-2.39c0-1-.48-1.56-1.39-1.57"/><path class="cls-4" d="M4.14,40.66l.42-2c0-.2.14-.21.24-.19l1.35.28c.1,0,.18.07.14.26l-.42,2ZM7.6,38.52a1.27,1.27,0,0,0-1.12-1.28L5.05,37c-.9-.19-1.5.25-1.7,1.23L2.6,41.87l6.66,1.37.3-1.47-2.46-.5.24-1.18,2.73-.77.32-1.6Z"/></g><path class="cls-4" d="M9.29,32.68,7.54,31.12l2.34.18Zm1,.9.92-2.17,1.7.13.64-1.5-7.24-.36-.65,1.51,5.28,5,.62-1.45Z"/><g class="cls-2"><path class="cls-4" d="M10.73,24.26l1.21-1.8c.11-.17.2-.14.29-.09l3.2,2.16c.08,0,.14.13,0,.3l-1.22,1.8ZM11,21.6,8.83,24.78l5.64,3.8,2.15-3.18a1.34,1.34,0,0,0-.31-2.08L13,21.1a1.34,1.34,0,0,0-2,.5"/><path class="cls-4" d="M19,20.35l-2.76-2.7c-.07-.06-.12-.15,0-.29l1.42-1.46c.16-.16.24-.1.31,0l2.76,2.7c.07.07.11.15,0,.3L19.3,20.32c-.14.14-.23.1-.3,0m1.09,1,1.67-1.71a1.34,1.34,0,0,0,.08-2.1L19,14.75a1.34,1.34,0,0,0-2.1.13l-1.67,1.7a1.34,1.34,0,0,0-.07,2.1L18,21.46a1.33,1.33,0,0,0,2.09-.12"/><path class="cls-4" d="M31.35,9.09l-1.85.47c-.33.08-.39,0-.46-.13l-.33-.69c0-.08-.07-.18.13-.28l1.58-.75c.17-.08.24,0,.29.09l.34.71,1.33-.64L32,7.12a1.34,1.34,0,0,0-2-.6l-1.87.89a1.33,1.33,0,0,0-.8,1.93l.41.87c.43.9,1.23.83,2,.64l1.85-.46c.32-.08.38-.05.46.12l.36.77c0,.1,0,.19-.12.28l-1.7.8c-.17.09-.24,0-.3-.08L30,11.5l-1.34.64L29,13a1.34,1.34,0,0,0,2,.61l2-.94a1.34,1.34,0,0,0,.8-1.94l-.45-.95c-.43-.9-1.23-.84-2-.64"/></g><polygon class="cls-4" points="39.12 3.58 33.86 5.06 34.21 6.29 36.12 5.75 37.61 11.08 39.05 10.67 37.55 5.34 39.46 4.81 39.12 3.58"/><path class="cls-4" d="M45.14,6.9,43.65,7l.56-2.27ZM43.28,3.13l-1.93,7L42.92,10l.41-1.65,2.34-.19.68,1.56L48,9.56,44.91,3Z"/><polygon class="cls-4" points="48.93 4.03 50.91 4.2 50.43 9.71 51.92 9.84 52.4 4.33 54.38 4.5 54.49 3.23 49.04 2.76 48.93 4.03"/><polygon class="cls-4" points="61.83 6.29 62.16 5.05 57.4 3.79 55.65 10.36 60.41 11.63 60.74 10.39 57.42 9.51 57.82 8 60.56 8.72 60.88 7.5 58.15 6.78 58.51 5.41 61.83 6.29"/><g class="cls-2"><path class="cls-4" d="M30.66,85.37a.17.17,0,0,0-.08-.26l-1.65-.86a.17.17,0,0,0-.26.08l-1.85,3.51a.18.18,0,0,0,.09.26l1.64.86a.17.17,0,0,0,.26-.08l.55-1-1.12-.6.56-1.06,2.35,1.24L30,89.63a1.21,1.21,0,0,1-1.82.56L26.11,89.1a1.21,1.21,0,0,1-.57-1.81l2-3.71A1.21,1.21,0,0,1,29.31,83l2.06,1.09A1.21,1.21,0,0,1,32,85.92l-.41.78-1.23-.65Z"/></g><polygon class="cls-4" points="36.25 85.9 34.78 91.31 37.59 92.08 37.26 93.29 33.1 92.17 34.91 85.54 36.25 85.9"/><g class="cls-2"><path class="cls-4" d="M41.72,92.74a.17.17,0,0,0,.17.21l1.9.19A.17.17,0,0,0,44,93l.39-4a.18.18,0,0,0-.17-.21l-1.89-.19a.18.18,0,0,0-.22.18Zm-.18,1.44a1.2,1.2,0,0,1-1.21-1.46l.41-4.18a1.21,1.21,0,0,1,1.48-1.19l2.35.23A1.2,1.2,0,0,1,45.78,89l-.41,4.18a1.21,1.21,0,0,1-1.48,1.2Z"/><path class="cls-4" d="M53.06,93.06a.17.17,0,0,0,.17-.2l-.1-1.3a.17.17,0,0,0-.21-.17l-2,.17.14,1.67Zm-.32-2.84a.17.17,0,0,0,.18-.21l-.1-1.14a.17.17,0,0,0-.2-.17l-1.91.15.13,1.53Zm0-2.78a1.21,1.21,0,0,1,1.46,1.22l.08,1a1.12,1.12,0,0,1-.52,1.08,1.09,1.09,0,0,1,.77,1l.1,1.14a1.21,1.21,0,0,1-1.24,1.44l-3.6.3-.57-6.85Z"/></g><path class="cls-4" d="M59.46,87.36l0,2.8L61,89.72Zm.07,4.11,0,1.6-1.4.43.12-7.22,1.61-.48L64,91.73l-1.45.44-.87-1.35Z"/><polygon class="cls-4" points="65.53 83.51 68.19 88.45 70.76 87.07 71.35 88.18 67.56 90.22 64.31 84.17 65.53 83.51"/><g class="cls-2"><path class="cls-4" d="M71.68,15.83c-.06.08-.13.14-.3,0l-1.64-1.13c-.18-.12-.15-.22-.09-.3l3-4.39-1.23-.85-3.06,4.45a1.34,1.34,0,0,0,.48,2L70.79,17a1.34,1.34,0,0,0,2.08-.28l3.06-4.44-1.23-.85Z"/></g><polygon class="cls-4" points="78.53 20.62 79.67 15.55 78.63 14.49 73.76 19.25 74.75 20.26 77.96 17.12 76.8 22.35 77.78 23.35 82.64 18.59 81.65 17.57 78.53 20.62"/><rect class="cls-4" x="79.1" y="23.2" width="6.81" height="1.49" transform="translate(1.67 53.03) rotate(-35.97)"/><polygon class="cls-4" points="84.51 30.04 88.18 26.32 87.42 24.89 82.52 30.17 83.28 31.59 90.39 30.48 89.65 29.08 84.51 30.04"/><polygon class="cls-4" points="84.73 34.91 86.02 39.66 87.26 39.33 86.36 36.01 87.86 35.6 88.61 38.33 89.83 38 89.08 35.27 90.45 34.9 91.35 38.21 92.59 37.88 91.29 33.12 84.73 34.91"/><g class="cls-2"><path class="cls-4" d="M92.17,42.8l.27,2.08c0,.2-.06.24-.16.25l-1.37.17c-.1,0-.19,0-.22-.2L90.43,43Zm-1.11,4,1.46-.19c.9-.11,1.33-.72,1.2-1.72l-.47-3.72L86.5,42l.18,1.48,2.5-.32.15,1.19L87,46l.21,1.62,2.38-1.66a1.27,1.27,0,0,0,1.47.85"/><path class="cls-4" d="M90.66,53.78,91.19,52c.09-.33.16-.35.34-.34l.76.06c.09,0,.2,0,.18.26l-.14,1.74c0,.19-.1.22-.22.21l-.79-.07-.12,1.47.83.07c.91.08,1.45-.43,1.53-1.43l.17-2.07c.08-1-.37-1.59-1.28-1.66l-1-.08c-1-.08-1.34.65-1.57,1.44l-.53,1.84c-.1.31-.15.34-.33.33l-.85-.07c-.12,0-.2-.06-.18-.25l.15-1.87c0-.19.1-.22.22-.21l.86.07.12-1.47-.91-.08c-.9-.07-1.45.44-1.53,1.43l-.18,2.2c-.08,1,.37,1.59,1.28,1.67l1,.08c1,.08,1.34-.64,1.56-1.44"/></g><rect class="cls-4" x="88.46" y="55.43" width="1.49" height="6.81" transform="translate(10.37 130.96) rotate(-75.86)"/><polygon class="cls-4" points="90.45 62.7 89.7 64.53 84.58 62.43 84.01 63.81 89.13 65.91 88.38 67.75 89.55 68.23 91.63 63.18 90.45 62.7"/><polygon class="cls-4" points="84.53 71.16 87.87 71.46 88.77 70.09 83.72 69.72 81.73 68.41 80.91 69.66 82.9 70.97 85.23 75.46 86.12 74.11 84.53 71.16"/><polygon class="cls-5" points="62.63 70.43 62.25 70.43 62.25 71.47 61.94 71.47 61.94 70.43 61.56 70.43 61.56 70.17 62.63 70.17 62.63 70.43"/><polygon class="cls-5" points="64.29 70.17 64.29 71.47 63.99 71.47 63.99 70.67 63.68 71.15 63.57 71.15 63.26 70.67 63.26 71.47 62.96 71.47 62.96 70.17 63.25 70.17 63.63 70.75 63.99 70.17 64.29 70.17"/><g class="cls-2"><path class="cls-5" d="M48,45.76l8.47,8.52a2.11,2.11,0,0,1,0,3l-7,7a2.07,2.07,0,0,1-1.32.62H48V75.54a61.14,61.14,0,0,0,14.42-8.48,26.38,26.38,0,0,0,6.67-8.13L48,37.87Z"/></g><polygon class="cls-5" points="47.97 59.75 51.93 55.78 47.97 51.79 47.97 59.75"/><g class="cls-2"><path class="cls-5" d="M49.47,33.35,70.61,54.47a19.54,19.54,0,0,0,.18-3.09v-19a1.57,1.57,0,0,0-1-1.46c-6-2.42-11.63-4.44-17.34-5.14A22.28,22.28,0,0,1,48,27.13v5.6h.16a2.13,2.13,0,0,1,1.34.61"/></g></svg>