<?xml version="1.0" encoding="utf-8"?>
<!-- Generator: Adobe Illustrator 22.0.1, SVG Export Plug-In . SVG Version: 6.00 Build 0)  -->
<svg version="1.1" id="Layer_1" xmlns="http://www.w3.org/2000/svg" xmlns:xlink="http://www.w3.org/1999/xlink" x="0px" y="0px"
	 width="250.1px" height="89.51px" viewBox="0 0 250.1 89.51" enable-background="new 0 0 250.1 89.51" xml:space="preserve">
<g>
	<g>
		<path fill="#8A2432" d="M126.86,45.73v-6.77h0.86v6.68c0,2.73,1.47,4.3,3.92,4.3c2.35,0,3.86-1.42,3.86-4.22v-6.77h0.86v6.67
			c0,3.33-1.93,5.1-4.75,5.1C128.83,50.73,126.86,48.97,126.86,45.73 M141.94,50.54h0.83V40.25l8.16,10.29h0.65V38.96h-0.83v10.08
			l-7.99-10.08h-0.81V50.54z M157.45,50.54h0.86V38.96h-0.86V50.54z M168.28,50.63h0.76l5.1-11.67h-0.91l-4.55,10.66l-4.53-10.66
			h-0.96L168.28,50.63z M178.91,50.54h8.32v-0.79h-7.47V45.1h6.64v-0.8h-6.64v-4.55h7.38v-0.79h-8.24V50.54z M192.31,50.54h0.86
			v-4.8h3.79l3.69,4.8h1.09l-3.82-4.95c1.95-0.26,3.39-1.37,3.39-3.31v-0.03c0-0.83-0.33-1.6-0.87-2.15
			c-0.7-0.7-1.84-1.14-3.26-1.14h-4.87V50.54z M193.17,44.97v-5.21h3.95c2.1,0,3.33,0.98,3.33,2.53v0.03c0,1.67-1.44,2.65-3.38,2.65
			H193.17z M205.85,48.86c1.39,1.24,2.81,1.85,4.67,1.85c2.23,0,3.84-1.29,3.84-3.16v-0.03c0-1.69-1.13-2.65-3.81-3.19
			c-2.75-0.56-3.38-1.31-3.38-2.53v-0.03c0-1.21,1.13-2.19,2.83-2.19c1.27,0,2.37,0.36,3.46,1.31l0.55-0.68
			c-1.18-0.94-2.28-1.41-3.97-1.41c-2.15,0-3.72,1.33-3.72,3.05v0.03c0,1.75,1.13,2.7,3.91,3.26c2.63,0.53,3.28,1.24,3.28,2.47v0.03
			c0,1.32-1.19,2.3-2.93,2.3c-1.7,0-2.88-0.55-4.15-1.72L205.85,48.86 M219.61,50.54h0.86V38.96h-0.86V50.54z M229.56,50.54h0.86
			V39.76h4.04v-0.79h-8.93v0.79h4.04V50.54z M243.16,50.54h0.86v-4.6l4.96-6.98h-1.02l-4.35,6.22l-4.34-6.22h-1.07l4.96,7V50.54z"/>
		<path fill="#00204E" d="M130.75,20.33h-4.59v-2.36h11.75v2.36h-4.59v12.12h-2.56V20.33z M140.59,32.45h10.84v-2.27h-8.3v-3.89
			h7.26v-2.27h-7.26v-3.76h8.19v-2.28h-10.73V32.45z M163.78,17.97l-3.62,5.25l-3.6-5.25h-3l5.03,7.11l-5.24,7.36h2.92l3.8-5.52
			l3.83,5.52h3l-5.26-7.4l5.05-7.07H163.78z M168,32.45h2.6l1.49-3.49h6.85l1.47,3.49h2.69l-6.37-14.58h-2.36L168,32.45z
			 M173.02,26.7l2.48-5.79l2.5,5.79H173.02z M184.36,30.34c1.74,1.55,3.83,2.32,6.04,2.32c3.04,0,5.17-1.61,5.17-4.32v-0.04
			c0-2.4-1.58-3.49-4.63-4.24c-2.79-0.66-3.45-1.16-3.45-2.27v-0.04c0-0.95,0.87-1.72,2.36-1.72c1.32,0,2.63,0.52,3.93,1.49
			l1.36-1.92c-1.47-1.18-3.15-1.82-5.25-1.82c-2.88,0-4.95,1.72-4.95,4.2V22c0,2.67,1.74,3.58,4.82,4.32
			c2.69,0.62,3.27,1.18,3.27,2.21v0.04c0,1.08-0.99,1.82-2.57,1.82c-1.78,0-3.18-0.68-4.57-1.88L184.36,30.34 M203.53,32.45h2.61
			l1.49-3.49h6.85l1.46,3.49h2.69l-6.37-14.58h-2.36L203.53,32.45z M208.56,26.7l2.48-5.79l2.5,5.79H208.56z M230.26,32.43h3.29
			l-3.34-3.37c0.75-0.99,1.39-2.13,1.97-3.29l-1.92-1.01c-0.48,1.01-0.99,1.96-1.55,2.79l-2.48-2.52c1.92-0.72,3.18-1.86,3.18-3.76
			v-0.04c0-1.95-1.55-3.5-3.85-3.5c-2.59,0-4.16,1.7-4.16,3.64v0.04c0,1.06,0.37,1.97,1.2,3.02c-1.99,0.85-3.09,2.19-3.09,4.05v0.04
			c0,2.5,2.03,4.14,4.74,4.14c1.74,0,3.18-0.72,4.43-1.88L230.26,32.43z M227.24,29.28c-0.83,0.79-1.74,1.26-2.73,1.26
			c-1.41,0-2.42-0.89-2.42-2.11v-0.04c0-0.93,0.58-1.82,1.92-2.4L227.24,29.28 M227.16,21.4c0,1.03-0.79,1.72-2.28,2.25
			c-0.8-0.89-1.1-1.43-1.1-2.15v-0.04c0-1.01,0.7-1.74,1.74-1.74c0.95,0,1.63,0.66,1.63,1.63V21.4 M235.51,32.45h2.5V22.1l4.53,6.78
			h0.08l4.57-6.83v10.38h2.55V17.97h-2.71l-4.41,6.84l-4.4-6.84h-2.71V32.45z M126.18,61.54c0,2.91,2.2,5.21,5.15,5.21
			c1.9,0,3.06-0.69,4.11-1.79l-1.14-1.16c-0.87,0.81-1.67,1.3-2.91,1.3c-1.94,0-3.34-1.61-3.34-3.59v-0.03
			c0-1.98,1.42-3.58,3.34-3.58c1.16,0,2.03,0.5,2.84,1.26l1.15-1.32c-0.97-0.93-2.1-1.58-3.97-1.58c-3.07,0-5.23,2.36-5.23,5.24
			V61.54 M137.24,66.57h7.59v-1.59h-5.81v-2.72h5.08v-1.59h-5.08v-2.63h5.73v-1.59h-7.51V66.57z M146.87,66.57h1.75v-7.21l5.59,7.21
			h1.49V56.44h-1.75v7.01l-5.43-7.01h-1.65V66.57z M160.73,66.58h1.8v-8.49h3.21v-1.65h-8.22v1.65h3.21V66.58z M167.55,66.57h1.78
			v-3.53h2.23l2.49,3.53h2.11l-2.74-3.84c1.4-0.41,2.4-1.41,2.4-3.07v-0.03c0-0.89-0.3-1.64-0.84-2.19
			c-0.65-0.64-1.65-1.01-2.92-1.01h-4.52V66.57z M169.33,61.46v-3.4h2.59c1.32,0,2.1,0.59,2.1,1.68v0.03c0,1.03-0.81,1.69-2.08,1.69
			H169.33z M177.08,66.58h1.82l1.05-2.45h4.79l1.03,2.45h1.88l-4.46-10.21h-1.65L177.08,66.58z M180.59,62.55l1.74-4.06l1.75,4.06
			H180.59z M189.31,66.57h7.11v-1.62h-5.33v-8.51h-1.78V66.57z M204.96,66.58h1.79v-8.49h3.21v-1.65h-8.22v1.65h3.22V66.58z
			 M211.78,66.57h7.59v-1.59h-5.8v-2.72h5.08v-1.59h-5.08v-2.63h5.73v-1.59h-7.51V66.57z M227.94,56.44l-2.53,3.68l-2.52-3.68h-2.1
			l3.52,4.98l-3.67,5.15h2.04l2.66-3.87l2.68,3.87h2.1l-3.68-5.19l3.53-4.95H227.94z M230.82,66.58h1.83l1.04-2.45h4.79l1.03,2.45
			h1.88l-4.46-10.21h-1.65L230.82,66.58z M234.34,62.55l1.74-4.06l1.75,4.06H234.34z M242.2,65.1c1.22,1.09,2.68,1.62,4.23,1.62
			c2.13,0,3.62-1.13,3.62-3.02v-0.03c0-1.68-1.1-2.45-3.24-2.97c-1.96-0.47-2.42-0.81-2.42-1.59v-0.03c0-0.67,0.61-1.2,1.65-1.2
			c0.93,0,1.84,0.36,2.75,1.04l0.96-1.35c-1.03-0.82-2.2-1.27-3.68-1.27c-2.02,0-3.46,1.2-3.46,2.94v0.03c0,1.87,1.22,2.5,3.37,3.02
			c1.88,0.43,2.29,0.83,2.29,1.55v0.03c0,0.75-0.69,1.27-1.8,1.27c-1.24,0-2.22-0.48-3.2-1.32L242.2,65.1"/>
	</g>
	<path fill="#8C8C8C" d="M104.23,89.49c-0.31,0-0.57-0.25-0.57-0.57V0.58c0-0.31,0.25-0.57,0.57-0.57c0.31,0,0.57,0.25,0.57,0.57
		v88.34C104.8,89.24,104.54,89.49,104.23,89.49z"/>
	<g>
		<path fill="#00204E" d="M16.49,32.24V17.95h18.66v7.17h-11.6v7.12H16.49z M68,32.24V17.95H49.34v7.17h11.6v7.12H68z M67.99,50.56
			h-7.07v8.15c0,0,0.43,4.89-8.74,6.45c-9.16,1.55-9.93,5.98-9.93,6c0-0.02-0.78-4.45-9.93-6c-9.17-1.56-8.75-6.45-8.75-6.45v-8.15
			h-7.07c0,0,0,4.54,0,8.19c0,3.65,1.03,6.32,2.15,7.59c1.13,1.27,4.65,3.71,11.66,5.12c7.02,1.41,11.92,6.72,11.93,6.73
			c0.01-0.01,4.92-5.32,11.93-6.73c7.02-1.41,10.54-3.86,11.66-5.12c1.13-1.27,2.16-3.94,2.16-7.59
			C67.98,55.1,67.99,50.56,67.99,50.56z"/>
		<path fill="#8A2432" d="M34.74,50.56v12.91c-8.01-1.14-8.89-5.36-8.89-5.36v-7.55H34.74z M42.22,67.92c0,0,0.42-2.46,4.43-4.36
			v-12c0,0-1.62,0.49-4.42,0.49c-2.62,0-4.4-0.49-4.4-0.49v12.02C41.8,65.48,42.22,67.92,42.22,67.92 M49.74,50.56v12.91
			c8.01-1.14,8.89-5.36,8.89-5.36v-7.55H49.74z"/>
		<path fill="#8C8C8C" d="M83.2,47.09l-33.56-0.76l-0.05,0.03c-0.03,0.02-3.06,1.65-7.38,1.65c-4.32,0-7.4-1.58-7.43-1.59
			l-0.05-0.02l-33.6,0.78l-1.09,2.21l34.54-0.93c0.31,0.5,1.8,2.29,7.64,2.29c5.83,0,7.29-1.78,7.58-2.29l34.47,0.98L83.2,47.09z"/>
		<path fill="#8A2432" d="M37.83,45.62c-3.65-4.12-10.62-5.89-16.12-3.75c-5.49,2.14-7.7,2.48-12.32,2.99
			c-4.62,0.51-7.77-0.61-7.77-0.61l2.06-2.38c0,0,0.43,0.53,2.54,0.99c2.11,0.46,7.78-0.26,13.02-2.41
			c5.24-2.16,10.88-1.85,14.28,0.44C36.91,43.17,37.83,45.62,37.83,45.62 M34.74,45.62c0,0-1.57-3.03-7.75-3.14
			c-6.18-0.11-7.17,2.72-12.96,3.14c0,0,3.62,0.11,9.21-1.57C28.82,42.37,33.87,44.74,34.74,45.62 M46.65,45.62
			c3.64-4.12,10.63-5.89,16.12-3.75c5.49,2.14,7.7,2.48,12.32,2.99c4.62,0.51,7.77-0.61,7.77-0.61l-2.06-2.38
			c0,0-0.43,0.53-2.54,0.99c-2.11,0.46-7.78-0.26-13.02-2.41c-5.24-2.16-10.88-1.85-14.27,0.44C47.57,43.17,46.65,45.62,46.65,45.62
			 M49.74,45.62c0.87-0.88,5.92-3.26,11.51-1.57c5.59,1.68,9.21,1.57,9.21,1.57c-5.78-0.43-6.78-3.26-12.96-3.14
			C51.31,42.59,49.74,45.62,49.74,45.62 M78.74,35.79c-4.58,2.34-5.05,1.69-14.38-0.67c-9.32-2.37-13.86-0.15-16.93,1.62
			c-3.03,1.75-5.15,4.56-5.2,4.63c-0.06-0.07-2.18-2.88-5.2-4.63c-3.07-1.77-7.6-3.99-16.93-1.62c-9.33,2.37-9.8,3.01-14.38,0.67
			l-3.12,3.59c0,0,2.5,1.5,6.88,1.5c4.37,0,10.59-2.54,11.68-2.85c1.1-0.31,9.53-2.97,15.33,2.12c5.21,4.58,5.7,6.42,5.74,6.63v0.02
			c0,0,0-0.01,0-0.01c0,0,0,0.01,0,0.01v-0.02c0.04-0.22,0.53-2.05,5.74-6.63c5.79-5.09,14.22-2.43,15.32-2.12
			c1.09,0.31,7.31,2.85,11.69,2.85c4.37,0,6.88-1.5,6.88-1.5L78.74,35.79z"/>
		<path fill="#8C8C8C" d="M48.38,11.39c0,0-3.59,1.18-3.98,4.73c-0.38,3.55,1.74,4.73,4.36,9.76c2.63,5.03,0.68,8.46-4.41,11.3
			c0,0,2.18-4.72-0.79-6.86c-2.75-1.98-4.62-5.03-4.81-9.23C38.57,16.89,41.78,11.1,48.38,11.39 M42.05,38.56
			c2.33-2.15,1.8-4.31,1.7-4.91c-0.17-1.03-1.28-2.25-3.11-3.79c-2.28-1.91-2.89-6.48-2.89-6.48c-0.82,0.52-3.61,3.31-3.2,7.38
			c0.41,4.07,5,4.71,6.57,5.58C42.69,37.22,42.05,38.56,42.05,38.56"/>
	</g>
</g>
</svg>
