<svg xmlns="http://www.w3.org/2000/svg" viewBox="0 0 300 33.34"><defs><style>.cls-1{fill:#003a70;}</style></defs><title>footer-logo</title><g id="Layer_2" data-name="Layer 2"><g id="Layer_1-2" data-name="Layer 1"><path class="cls-1" d="M0,17.75H4c9.17,0,11-8,15.48-8.13h.13v7.91h2.23c-4,4-2,12.46,4.76,12.5h6.68v3.31H0Z"/><path class="cls-1" d="M0,15.62V13.53H4.51c6.17,0,8.88-8.36,14.91-8.16h4.45v8h9.46v2.08H21.77v-8s-1.08,0-2.11,0C14,7.35,12.57,15.55,4,15.61H0"/><path class="cls-1" d="M33.33,11.26V0H0V11.45H4.48c4.65,0,7.76-8.16,15.07-8.16h6.4v8h7.38"/><path class="cls-1" d="M33.33,23.74H27.06a1,1,0,0,1,0-2.07h6.22Z"/><path class="cls-1" d="M33.33,27.93l-6.74,0c-6,0-6.18-10.39,0-10.39h6.71V19.6H27c-4.13,0-4,6.37.18,6.26h6.14Z"/><path class="cls-1" d="M131.53,21a10.76,10.76,0,0,0-.23,1.79,9.59,9.59,0,0,1-5.16,1.44c-4.82,0-7.63-3.36-7.63-7.92,0-4.27,2.49-7.81,8-7.81a11.52,11.52,0,0,1,5.14,1.17,7.64,7.64,0,0,0-.5,2.21h-.21a5,5,0,0,0-4.51-2.44c-3.28,0-5.47,2.57-5.47,6.84,0,4.6,2.68,6.87,5.64,6.87a5.92,5.92,0,0,0,4.72-2.28Z"/><path class="cls-1" d="M143.51,18.59c0,3.52-2.29,5.73-5.45,5.73-2.2,0-5.28-1.06-5.28-5.6,0-3.45,2.16-5.6,5.28-5.6C142,13.13,143.51,15.89,143.51,18.59Zm-8.61.07c0,3.07,1.27,4.78,3.18,4.78s3.31-1.84,3.31-4.75c0-1.73-.5-4.67-3.2-4.67C134.91,14,134.91,18,134.91,18.66Z"/><path class="cls-1" d="M148.27,15.54c-.52.84-.56,1.83-.56,4.09,0,1.11,0,2.7.19,4.38a5,5,0,0,0-1.08-.13,5.12,5.12,0,0,0-1.08.13c.1-3.27.12-3.65.12-5.13s0-2-.14-5.66a5.88,5.88,0,0,0,1,.13,6.77,6.77,0,0,0,1.06-.13,14.6,14.6,0,0,0-.13,1.93,3.57,3.57,0,0,1,3.2-2,3,3,0,0,1,3.1,2,3.86,3.86,0,0,1,3.43-2,3.44,3.44,0,0,1,2.68,1.15,3.44,3.44,0,0,1,.62,2.19c0,.22,0,3.14,0,3.72,0,1.28.06,2.54.13,3.8a5.33,5.33,0,0,0-1.1-.13,4.25,4.25,0,0,0-1.06.13,46.76,46.76,0,0,0,.19-4.73c0-2.92-.08-3.3-.41-3.89a1.85,1.85,0,0,0-1.7-.93c-2.41,0-2.52,2.63-2.52,4.05,0,1.68.08,3.76.17,5.5a3.62,3.62,0,0,0-1.12-.13,2.9,2.9,0,0,0-1,.13c.12-1.41.17-3.18.17-4.73a14.76,14.76,0,0,0-.35-3.74,1.9,1.9,0,0,0-1.85-1.09A2,2,0,0,0,148.27,15.54Z"/><path class="cls-1" d="M166,15.54c-.52.84-.56,1.83-.56,4.09,0,1.11,0,2.7.19,4.38a5,5,0,0,0-1.08-.13,5.11,5.11,0,0,0-1.08.13c.1-3.27.12-3.65.12-5.13s0-2-.14-5.66a6,6,0,0,0,1,.13,6.76,6.76,0,0,0,1.06-.13,14.43,14.43,0,0,0-.12,1.93,3.56,3.56,0,0,1,3.2-2,3,3,0,0,1,3.1,2,3.87,3.87,0,0,1,3.43-2,3.43,3.43,0,0,1,2.68,1.15,3.45,3.45,0,0,1,.63,2.19c0,.22,0,3.14,0,3.72,0,1.28.06,2.54.13,3.8a5.33,5.33,0,0,0-1.1-.13,4.28,4.28,0,0,0-1.06.13,47.11,47.11,0,0,0,.18-4.73c0-2.92-.08-3.3-.41-3.89a1.84,1.84,0,0,0-1.7-.93c-2.41,0-2.51,2.63-2.51,4.05,0,1.68.08,3.76.16,5.5a3.59,3.59,0,0,0-1.12-.13,2.88,2.88,0,0,0-1,.13c.13-1.41.17-3.18.17-4.73a14.64,14.64,0,0,0-.35-3.74,1.89,1.89,0,0,0-1.85-1.09A2,2,0,0,0,166,15.54Z"/><path class="cls-1" d="M187.64,21.29a5.53,5.53,0,0,0,.37-2.34c0-1.44,0-4.42-.13-5.73a5.23,5.23,0,0,0,1.12.13,4,4,0,0,0,1-.13c-.09,1.3-.21,3.34-.21,5.62,0,3.29,0,4,.12,5.17a4.8,4.8,0,0,0-1-.13,3.75,3.75,0,0,0-1,.13c.06-.64.06-.8.1-2.1a3.79,3.79,0,0,1-3.41,2.3c-3.26,0-3.58-2.63-3.58-3.85,0-.67.1-4,.1-4.71s0-2-.09-2.44a3.62,3.62,0,0,0,1.06.13,3.51,3.51,0,0,0,1-.13c-.12,1.62-.19,3.47-.19,4.67,0,2.61,0,5,2.22,5A2.62,2.62,0,0,0,187.64,21.29Z"/><path class="cls-1" d="M192.85,13.22a5.31,5.31,0,0,0,1,.13,4.89,4.89,0,0,0,1-.13c0,.33-.08,1.79-.1,2.1a4,4,0,0,1,3.66-2.16c3.41,0,3.58,2.59,3.58,3.85,0,.22-.08,4-.08,4.71,0,.42,0,2,.06,2.3a3.26,3.26,0,0,0-1.06-.13,3.51,3.51,0,0,0-1.1.13c.19-2.37.19-4.8.19-5.2,0-2.21-.1-4.31-2.41-4.31A2.64,2.64,0,0,0,195.15,16a15.75,15.75,0,0,0-.38,4.31c0,1.72.11,2.85.17,3.67a4.62,4.62,0,0,0-1.1-.13,4.69,4.69,0,0,0-1.1.13c.1-1.35.21-2.76.21-6.08C193,16.47,192.89,14.77,192.85,13.22Z"/><path class="cls-1" d="M205.95,10.87a1.21,1.21,0,1,1,1.15-1.19A1.17,1.17,0,0,1,205.95,10.87Zm-1.1,2.43a3.06,3.06,0,0,0,1,.13,3.54,3.54,0,0,0,1.08-.13c-.06,1.22-.12,2.21-.12,5.82,0,1,0,1.39.14,4.89a2.82,2.82,0,0,0-1-.13,3.23,3.23,0,0,0-1.08.13c.08-1.68.15-3.89.15-5.62C205,15.87,204.93,14.46,204.85,13.31Z"/><path class="cls-1" d="M210.44,14.48a16.14,16.14,0,0,0-1.66.09,3.8,3.8,0,0,0,0-.55,4.34,4.34,0,0,0,0-.55l.67.07c.27,0,.6,0,1,0,0-.77,0-1.31,0-2.46a9.26,9.26,0,0,0,2.12-1c-.1,1.84-.1,2-.14,3.47.77,0,1.54,0,2.24-.11a4,4,0,0,0,0,.55,3.41,3.41,0,0,0,0,.53c-.52,0-1.39-.07-2.24-.07-.08,2-.1,4-.1,6.06,0,1.79.27,2.76,1.46,2.76.19,0,.69-.09,1-.13a1.59,1.59,0,0,0,0,.62,4,4,0,0,1-1.77.42,2.44,2.44,0,0,1-2.22-1.33,4.08,4.08,0,0,1-.29-2.08c0-.35,0-.75,0-2.83Z"/><path class="cls-1" d="M218.9,22.11c-.63-1.57-1.6-4.07-2.23-5.64s-.73-1.88-1.35-3.25a4.83,4.83,0,0,0,1.31.13,3.13,3.13,0,0,0,1.12-.13c.19.6,1.54,4.62,2.6,7.34.15.38.31.75.44.75s2-4.49,3-8.09a3.22,3.22,0,0,0,.91.13,2.23,2.23,0,0,0,.83-.13,44.27,44.27,0,0,0-2.2,4.87c-.23.53-.46,1.06-.71,1.59a81,81,0,0,0-3.82,10,1.94,1.94,0,0,0-.73-.13,4.12,4.12,0,0,0-.94.13c.92-1.81,1.81-3.58,2.64-5.39Z"/><path class="cls-1" d="M47.41,11.52a2.8,2.8,0,0,0-2.89-2.06A2.45,2.45,0,0,0,41.86,12c0,1.75,1.37,2.35,2.43,2.79,2.27.93,2.66,1.08,3.39,1.73a3.64,3.64,0,0,1,1.16,2.83,4.83,4.83,0,0,1-5.22,4.93,6,6,0,0,1-3.78-1.22A9.77,9.77,0,0,0,40.22,21h.27A3.75,3.75,0,0,0,44,23.28,2.84,2.84,0,0,0,47,20.34c0-1.79-1.18-2.45-2.58-3.05-2.43-1.08-2.7-1.19-3.26-1.72a3.72,3.72,0,0,1-1-2.74c0-2.85,2.16-4.29,4.61-4.29a6.81,6.81,0,0,1,3.53,1,6.35,6.35,0,0,0-.6,2Z"/><path class="cls-1" d="M51.23,14.48a16.16,16.16,0,0,0-1.66.09,3.75,3.75,0,0,0,0-.55,4.27,4.27,0,0,0,0-.55l.66.07c.27,0,.6,0,1,0,0-.77,0-1.31,0-2.46a9.19,9.19,0,0,0,2.12-1c-.1,1.84-.1,2-.14,3.47.77,0,1.54,0,2.24-.11a4.28,4.28,0,0,0,0,.55,3.59,3.59,0,0,0,0,.53c-.52,0-1.39-.07-2.24-.07-.08,2-.11,4-.11,6.06,0,1.79.27,2.76,1.46,2.76.19,0,.69-.09,1-.13a1.54,1.54,0,0,0,0,.62,4,4,0,0,1-1.77.42,2.44,2.44,0,0,1-2.22-1.33,4.05,4.05,0,0,1-.29-2.08c0-.35,0-.75,0-2.83Z"/><path class="cls-1" d="M71.28,22.79A26.14,26.14,0,0,0,75,22.53a3.21,3.21,0,0,0-.08.73A3,3,0,0,0,75,24c-1.35,0-2.22-.13-4.49-.13-1.83,0-2.35.06-3.47.13.17-2.83.19-5.17.19-8.07s-.13-6.28-.17-7.23a4.79,4.79,0,0,0,1.12.13,7,7,0,0,0,1.31-.13c-.19,5.66-.19,7.16-.19,14C70.34,22.79,70.76,22.79,71.28,22.79Z"/><path class="cls-1" d="M86.61,18.59c0,3.52-2.28,5.73-5.44,5.73-2.2,0-5.28-1.06-5.28-5.59,0-3.45,2.16-5.6,5.28-5.6C85.12,13.13,86.61,15.89,86.61,18.59ZM78,18.66c0,3.07,1.27,4.78,3.18,4.78s3.31-1.84,3.31-4.75C84.49,17,84,14,81.29,14,78,14,78,18,78,18.66Z"/><path class="cls-1" d="M95.41,21.29a5.53,5.53,0,0,0,.37-2.35c0-1.44,0-4.42-.13-5.73a5.22,5.22,0,0,0,1.12.13,3.94,3.94,0,0,0,1-.13c-.08,1.3-.21,3.34-.21,5.62,0,3.29,0,4,.13,5.17a4.77,4.77,0,0,0-1-.13,3.72,3.72,0,0,0-1,.13c.06-.64.06-.8.1-2.1a3.79,3.79,0,0,1-3.41,2.3c-3.26,0-3.58-2.63-3.58-3.85,0-.67.11-4,.11-4.71s0-2-.08-2.44a3.59,3.59,0,0,0,1.06.13,3.54,3.54,0,0,0,1-.13c-.13,1.62-.19,3.47-.19,4.67,0,2.61,0,5,2.22,5A2.62,2.62,0,0,0,95.41,21.29Z"/><path class="cls-1" d="M101.73,10.87a1.21,1.21,0,1,1,1.14-1.19A1.17,1.17,0,0,1,101.73,10.87Zm-1.1,2.43a3,3,0,0,0,1,.13,3.56,3.56,0,0,0,1.08-.13c-.06,1.22-.12,2.21-.12,5.82,0,1,0,1.39.15,4.89a2.82,2.82,0,0,0-1-.13,3.21,3.21,0,0,0-1.08.13c.08-1.68.15-3.89.15-5.62C100.8,15.87,100.72,14.46,100.63,13.31Z"/><path class="cls-1" d="M111.09,15.72a2.09,2.09,0,0,0-.81-1.33,2.28,2.28,0,0,0-1.35-.38c-1.27,0-1.93.71-1.93,1.66,0,1.28,1.23,1.74,2,1.94,1.85.51,3.35.93,3.35,3.14,0,1.68-1.1,3.56-4,3.56a5.4,5.4,0,0,1-3.08-.93,7,7,0,0,0,.48-1.77l.25-.07A2.64,2.64,0,0,0,107.08,23a2.79,2.79,0,0,0,1.52.42,1.86,1.86,0,0,0,2.1-1.81c0-1.26-.71-1.5-2.89-2.25a3,3,0,0,1-2.37-2.94,3.23,3.23,0,0,1,3.6-3.3,5.22,5.22,0,0,1,2.74.73,6.71,6.71,0,0,0-.42,1.86Z"/><path class="cls-1" d="M58.6,24.17A1.21,1.21,0,1,1,59.74,23,1.17,1.17,0,0,1,58.6,24.17Z"/><path class="cls-1" d="M243.36,21a10.6,10.6,0,0,0-.23,1.79A9.61,9.61,0,0,1,238,24.27c-4.82,0-7.63-3.36-7.63-7.92,0-4.27,2.49-7.81,8-7.81a11.48,11.48,0,0,1,5.13,1.17,7.63,7.63,0,0,0-.5,2.21h-.21a5,5,0,0,0-4.51-2.43c-3.29,0-5.47,2.57-5.47,6.84,0,4.6,2.68,6.87,5.63,6.87a5.92,5.92,0,0,0,4.72-2.28Z"/><path class="cls-1" d="M255.35,18.59c0,3.52-2.29,5.73-5.45,5.73-2.2,0-5.28-1.06-5.28-5.59,0-3.45,2.16-5.59,5.28-5.59C253.85,13.13,255.35,15.89,255.35,18.59Zm-8.61.07c0,3.07,1.27,4.78,3.18,4.78s3.31-1.84,3.31-4.75c0-1.73-.5-4.67-3.2-4.67C246.74,14,246.74,18,246.74,18.66Z"/><path class="cls-1" d="M257.53,7.69a5.78,5.78,0,0,0,1.08.13,6.45,6.45,0,0,0,1.1-.13c-.11,3.2-.15,4.47-.15,8.29,0,3.47,0,4.93.17,8a3.47,3.47,0,0,0-1.12-.15,3.24,3.24,0,0,0-1.06.15c.12-2.23.12-2.85.12-8.51C257.65,10.45,257.65,9.9,257.53,7.69Z"/><path class="cls-1" d="M263.91,7.69a5.72,5.72,0,0,0,1.08.13,6.44,6.44,0,0,0,1.1-.13c-.1,3.2-.15,4.47-.15,8.29,0,3.47,0,4.93.17,8a3.46,3.46,0,0,0-1.12-.15,3.21,3.21,0,0,0-1.06.15c.12-2.23.12-2.85.12-8.51C264,10.45,264,9.9,263.91,7.69Z"/><path class="cls-1" d="M270.4,18.63a6.12,6.12,0,0,0,.56,2.9,3.13,3.13,0,0,0,2.91,1.72,3.83,3.83,0,0,0,3.31-1.79l.25.07a8.14,8.14,0,0,0-.14,1.33,5.17,5.17,0,0,1-3.86,1.44c-3.16,0-5.1-2.12-5.1-5.53,0-3,1.58-5.62,5-5.62,4.64,0,4.57,4.29,4.55,5.48Zm5.38-.93c0-.73,0-3.67-2.49-3.67-1.81,0-2.68,1.46-2.87,3.67Z"/><path class="cls-1" d="M283.92,13.1a7.49,7.49,0,0,1,1.39.11,9.25,9.25,0,0,0,2.16.22,16.06,16.06,0,0,0,1.89-.09c0,.18-.06.38-.06.55s0,.38.06.58c-.54,0-1.33,0-1.91,0a2.83,2.83,0,0,1,.87,2.12c0,2.34-1.81,3.63-4.18,3.63-.23,0-1.41-.09-1.46-.09a1,1,0,0,0-.91,1.06c0,.6.15,1.17,2.43,1.17l1.48,0c1.77,0,2.39.45,2.83.86a2.79,2.79,0,0,1,.83,2.08c0,1.59-1.1,4.75-5.49,4.75-3.35,0-4.41-1.84-4.41-3.29a3.18,3.18,0,0,1,2.29-2.9A1.8,1.8,0,0,1,280.2,22a2.32,2.32,0,0,1,1.68-2.17,3.11,3.11,0,0,1-2-3.1C279.86,14.37,281.69,13.1,283.92,13.1Zm3.7,13.2c0-2.06-2.06-2.39-3.37-2.39-.5,0-3.24,0-3.24,2.55,0,1.63,1.33,2.63,3.29,2.63C286.46,29.09,287.62,27.79,287.62,26.31Zm-1.27-9.8c0-1.93-1.17-2.66-2.24-2.66-2.08,0-2.27,2.08-2.27,2.92,0,1.86,1,2.66,2.16,2.66C285.89,19.43,286.35,17.73,286.35,16.51Z"/><path class="cls-1" d="M292.53,18.63a6.11,6.11,0,0,0,.56,2.9A3.13,3.13,0,0,0,296,23.25a3.83,3.83,0,0,0,3.31-1.79l.25.07a7.72,7.72,0,0,0-.15,1.33,5.17,5.17,0,0,1-3.87,1.44c-3.16,0-5.09-2.12-5.09-5.53,0-3,1.58-5.62,5-5.62,4.64,0,4.57,4.29,4.55,5.48Zm5.39-.93c0-.73,0-3.67-2.49-3.67-1.81,0-2.68,1.46-2.87,3.67Z"/></g></g></svg>