<?xml version="1.0" encoding="utf-8"?>
<!-- Generator: Adobe Illustrator 22.0.1, SVG Export Plug-In . SVG Version: 6.00 Build 0)  -->
<svg version="1.1" id="Layer_1" xmlns="http://www.w3.org/2000/svg" xmlns:xlink="http://www.w3.org/1999/xlink" x="0px" y="0px"
	 width="250.1px" height="61.27px" viewBox="0 0 250.1 61.27" enable-background="new 0 0 250.1 61.27" xml:space="preserve">
<path fill="#2D2926" d="M74.7,36.03c1.74,1.05,3.75,2.62,3.75,5.58c0,3.15-2.6,5.36-6.31,5.36c-1.75,0-3.63-0.44-5.16-1.2
	l-0.07-0.03l-0.48-5.03l0.8-0.48l0.06,0.15c1.35,3.48,3.06,5.25,5.09,5.25c3.18,0,3.43-2.44,3.43-3.18c0-1.56-0.7-2.62-2.43-3.68
	l-2.72-1.66c-1.58-0.97-3.75-2.31-3.75-5.22c0-2.94,2.45-5,5.96-5c1.51,0,3.16,0.3,4.55,0.85l0.08,0.02l0.49,4.56l-0.8,0.48
	l-0.06-0.15c-1.28-3.13-2.62-4.3-4.97-4.3c-1.72,0-2.83,1.01-2.83,2.59c0,1.84,1.06,2.55,2.78,3.56L74.7,36.03 M87.17,30.17
	l-2.75,8.33h5.52L87.17,30.17z M94.65,43.93c0.35,1.04,0.68,1.47,1.81,1.81l0.1,0.03v0.84h-6.33v-0.85l0.11-0.03
	c1.01-0.22,1.43-0.64,1.43-1.4c0-0.3-0.11-0.73-0.35-1.38l-0.97-2.87h-6.57l-0.74,2.28c-0.33,0.96-0.36,1.57-0.36,1.73
	c0,0.92,0.53,1.28,2.26,1.52l0.12,0.02v0.97h-6.92v-0.83l0.09-0.03c1.71-0.57,1.96-0.96,2.88-3.48l5.48-15.02l2.21-0.39L94.65,43.93
	 M109.69,28.32l0.12,0.02c2.28,0.36,2.82,0.68,2.84,2.95l0.12,10.63l-10.78-14.63l-0.04-0.06h-4.71v0.95l0.09,0.03
	c2.37,0.84,2.75,1.21,2.75,4.52l-0.36,9.81c-0.08,2.14-0.4,2.72-2.61,3.07L97,45.63v0.96h7.99v-0.96l-0.11-0.03
	c-2.17-0.46-3.07-0.64-3.1-3.07l-0.11-11.07l11.33,15.54l1.24-0.96l0.36-14.89c0.06-2.32,0.55-2.49,2.61-2.83l0.11-0.02v-1.08h-7.62
	V28.32z M132.54,30.17l-2.75,8.33h5.52L132.54,30.17z M140.02,43.93c0.35,1.04,0.68,1.47,1.81,1.81l0.1,0.03v0.84h-6.33v-0.85
	l0.11-0.03c1.01-0.22,1.44-0.64,1.44-1.4c0-0.3-0.12-0.73-0.35-1.38l-0.98-2.87h-6.57l-0.74,2.28c-0.33,0.96-0.36,1.57-0.36,1.73
	c0,0.92,0.53,1.28,2.26,1.52l0.12,0.02v0.97h-6.92v-0.83l0.09-0.03c1.71-0.57,1.95-0.96,2.88-3.48l5.48-15.02l2.21-0.39
	L140.02,43.93 M155.31,28.32l0.12,0.02c2.28,0.36,2.82,0.68,2.84,2.95l0.12,10.63l-10.78-14.63l-0.04-0.06h-4.71v0.95l0.09,0.03
	c2.37,0.84,2.76,1.21,2.76,4.52l-0.36,9.81c-0.08,2.14-0.4,2.72-2.61,3.07l-0.12,0.02v0.96h7.99v-0.96l-0.11-0.03
	c-2.17-0.46-3.06-0.64-3.1-3.07l-0.11-11.07l11.33,15.54l1.24-0.96l0.36-14.89c0.06-2.32,0.55-2.49,2.61-2.83l0.11-0.02v-1.08h-7.62
	V28.32z M180.02,26.88c-2.36,0.47-3.67,0.47-7.56,0.47c-4,0-5.2,0-7.56-0.47l-0.14-0.03l-0.75,4.87l0.8,0.32l0.06-0.1
	c1.37-2.4,2.49-3.26,4.26-3.26h1.89v13.74c0,2.07-0.69,2.73-3.33,3.19l-0.11,0.02v0.96h9.64v-0.96l-0.12-0.02
	c-2.86-0.48-3.32-1.18-3.32-3.19V28.69h1.88c2.05,0,3.27,0.91,4.39,3.25l0.06,0.14l0.8-0.48l-0.75-4.74L180.02,26.88z M191.39,45.5
	c3.59,0,5.91-3.16,5.91-8.05c0-5.45-2.76-9.11-6.86-9.11c-3.6,0-5.91,3.16-5.91,8.05C184.53,41.83,187.29,45.5,191.39,45.5
	 M190.8,26.88c5.67,0,9.63,4.15,9.63,10.1c0,5.87-3.87,9.98-9.39,9.98c-5.67,0-9.63-4.15-9.63-10.1
	C181.41,30.98,185.27,26.88,190.8,26.88 M212.89,28.32l0.12,0.02c2.28,0.36,2.82,0.68,2.84,2.95l0.12,10.63L205.2,27.29l-0.04-0.06
	h-4.71v0.95l0.09,0.03c2.37,0.84,2.75,1.21,2.75,4.52l-0.36,9.81c-0.08,2.14-0.4,2.72-2.61,3.07l-0.12,0.02v0.96h7.99v-0.96
	l-0.11-0.03c-2.17-0.46-3.06-0.64-3.1-3.07l-0.11-11.07l11.33,15.54l1.24-0.96l0.36-14.89c0.06-2.32,0.55-2.49,2.61-2.83l0.11-0.02
	v-1.08h-7.62V28.32z M222.1,28.2l0.12,0.02c2.05,0.35,2.49,0.89,2.49,3.07v11.15c0,2.34-0.43,2.83-2.72,3.18l-0.12,0.02v0.96h8.46
	v-0.96l-0.12-0.02c-2.28-0.34-2.73-0.87-2.73-3.18V31.28c0-2.2,0.43-2.69,2.73-3.07l0.12-0.02v-0.96h-8.22V28.2z M241.01,45.5
	c3.6,0,5.91-3.16,5.91-8.05c0-5.45-2.76-9.11-6.86-9.11c-3.6,0-5.91,3.16-5.91,8.05C234.15,41.83,236.91,45.5,241.01,45.5
	 M240.42,26.88c5.67,0,9.63,4.15,9.63,10.1c0,5.87-3.87,9.98-9.39,9.98c-5.67,0-9.63-4.15-9.63-10.1
	C231.03,30.98,234.9,26.88,240.42,26.88 M72.96,14.28c-0.95,0.19-1.48,0.19-3.06,0.19c-1.62,0-2.11,0-3.06-0.19l-0.1-0.02
	l-0.31,2.05l0.39,0.16l0.04-0.07c0.55-0.96,0.99-1.3,1.7-1.3h0.72v5.53c0,0.82-0.26,1.07-1.32,1.25l-0.08,0.01v0.47h3.99v-0.47
	l-0.08-0.01c-1.13-0.18-1.31-0.46-1.31-1.25v-5.53h0.72c0.82,0,1.29,0.35,1.74,1.29l0.05,0.09l0.39-0.23l-0.32-1.99L72.96,14.28z
	 M80.07,20.15c-0.56,1.16-1.11,1.53-2.27,1.53c-0.99,0-1.15-0.25-1.15-1.06v-2.02l1.05,0.04c0.86,0.04,1.02,0.11,1.16,0.93
	l0.01,0.08h0.42v-2.69h-0.42l-0.01,0.08c-0.14,0.73-0.3,0.85-1.16,0.88l-1.05,0.04v-2.97l1.39,0.09c0.79,0.05,1.26,0.43,1.6,1.33
	l0.03,0.09l0.4-0.16l-0.21-1.94h-5.28v0.46l0.07,0.02c0.64,0.12,0.79,0.39,0.79,1.4v4.33c0,0.92-0.16,1.12-1.03,1.25l-0.08,0.01
	v0.47H80l0.52-2.13l-0.4-0.16L80.07,20.15z M87.44,21.1l-1.9-3.05l1.71-2.38c0.31-0.44,0.67-0.7,1.05-0.78l0.08-0.01v-0.46h-2.69
	v0.46l0.08,0.01c0.52,0.1,0.59,0.27,0.59,0.43c0,0.11-0.09,0.37-0.23,0.57l-0.96,1.53l-1.04-1.67c-0.15-0.23-0.18-0.38-0.18-0.48
	c0-0.14,0.07-0.28,0.6-0.39l0.08-0.01v-0.46h-2.93v0.46l0.07,0.01c0.36,0.07,0.67,0.32,0.95,0.77l1.73,2.8l-1.83,2.58
	c-0.34,0.49-0.68,0.76-1.05,0.83l-0.07,0.02v0.46h2.69v-0.46l-0.08-0.02c-0.53-0.1-0.59-0.31-0.59-0.48c0-0.12,0.06-0.3,0.18-0.48
	l1.13-1.84l1.21,1.94c0.15,0.22,0.17,0.38,0.17,0.48c0,0.2-0.13,0.29-0.6,0.39l-0.08,0.01v0.46h2.98v-0.47l-0.08-0.01
	C87.91,21.79,87.71,21.53,87.44,21.1 M92.99,15.78l-1.06,3.21h2.13L92.99,15.78z M96.05,21.22c0.14,0.41,0.26,0.57,0.71,0.71
	l0.07,0.02v0.41h-2.65v-0.41l0.07-0.02c0.39-0.09,0.55-0.24,0.55-0.53c0-0.15-0.08-0.38-0.14-0.55l-0.39-1.14h-2.6l-0.29,0.9
	c-0.13,0.39-0.14,0.63-0.14,0.69c0,0.35,0.21,0.48,0.88,0.58l0.08,0.01v0.47h-2.88v-0.41l0.07-0.02c0.68-0.22,0.77-0.38,1.14-1.39
	l2.23-6.11l0.95-0.17L96.05,21.22 M101.22,17.99l-1.06-0.63c-0.69-0.4-1.11-0.68-1.11-1.41c0-0.61,0.43-1.01,1.11-1.01
	c0.93,0,1.47,0.47,1.98,1.72l0.04,0.1l0.39-0.23l-0.21-1.9l-0.05-0.02c-0.57-0.22-1.25-0.35-1.86-0.35c-1.45,0-2.45,0.85-2.45,2.07
	c0,1.2,0.89,1.75,1.54,2.15l1.1,0.67c0.69,0.42,0.97,0.84,0.97,1.46c0,0.29-0.1,1.25-1.35,1.25c-0.8,0-1.49-0.71-2.03-2.1
	l-0.04-0.11l-0.39,0.23l0.2,2.08l0.05,0.02c0.62,0.31,1.39,0.49,2.11,0.49c1.53,0,2.6-0.91,2.6-2.21
	C102.76,19.07,101.94,18.42,101.22,17.99 M111.18,15.78l-1.06,3.21h2.13L111.18,15.78z M114.25,21.22c0.14,0.41,0.26,0.57,0.71,0.71
	l0.07,0.02v0.41h-2.65v-0.41l0.07-0.02c0.39-0.09,0.55-0.24,0.55-0.53c0-0.15-0.08-0.38-0.14-0.55l-0.39-1.14h-2.6l-0.29,0.9
	c-0.13,0.39-0.14,0.63-0.14,0.69c0,0.35,0.21,0.48,0.88,0.58l0.08,0.01v0.47h-2.88v-0.41l0.07-0.02c0.68-0.22,0.77-0.38,1.14-1.39
	l2.23-6.11l0.95-0.17L114.25,21.22 M118.41,17.72c0.74-0.44,1.07-0.97,1.07-1.71c0-0.67-0.35-1.06-0.97-1.06
	c-0.57,0-0.91,0.4-0.91,1.06C117.6,16.58,117.98,17.17,118.41,17.72 M117.71,18.73c-0.36,0.33-0.54,0.74-0.54,1.22
	c0,1.14,0.82,1.73,1.63,1.73c0.48,0,0.91-0.14,1.27-0.41C119.21,20.46,118.33,19.45,117.71,18.73 M120.63,17.93h2.79v0.41
	l-0.07,0.01c-0.77,0.18-1.23,0.45-1.67,1.44l-0.43,0.97c0.82,0.74,1.56,1.27,2.11,1.5l0.06,0.02v0.31l-0.04,0.03
	c-0.16,0.11-0.38,0.16-0.68,0.16c-0.58,0-1.3-0.37-2.16-1.09c-0.42,0.43-0.97,0.81-2.03,0.81c-1.52,0-2.5-0.89-2.5-2.26
	c0-0.83,0.46-1.47,1.37-1.9c-0.59-0.76-0.84-1.37-0.84-2.04c0-1.33,1.09-2.02,2.16-2.02c1.1,0,1.88,0.69,1.88,1.68
	c0,0.9-0.69,1.67-1.89,2.14c0.64,0.79,1.34,1.53,2.11,2.26c0.17-0.36,0.26-0.75,0.26-1.14c0-0.45-0.11-0.71-0.38-0.86l-0.05-0.03
	V17.93z M133.08,21.1l-0.19-5c-0.04-0.92,0.16-1.11,0.74-1.2l0.08-0.01v-0.47h-2.13l-2.34,5.61l-2.13-5.55l-0.03-0.06h-1.99v0.41
	l0.06,0.02c0.57,0.18,0.75,0.39,0.75,0.87c0,0.09-0.01,0.27-0.03,0.43c-0.01,0.09-0.01,0.17-0.02,0.23l-0.43,4.38
	c-0.08,0.84-0.32,0.94-0.99,1.12l-0.07,0.02v0.46h2.88v-0.46l-0.07-0.02c-0.74-0.19-0.89-0.35-0.89-0.96c0-0.19,0.02-0.57,0.05-0.97
	c0.01-0.22,0.03-0.45,0.04-0.66l0.17-2.88l2.24,5.79l0.02,0.06h0.27l2.6-6.24l0.18,4.76c0.04,0.83-0.08,1.01-0.69,1.1l-0.08,0.01
	v0.47h2.83v-0.46l-0.07-0.01C133.36,21.77,133.1,21.63,133.08,21.1 M143.64,14.88l0.07,0.02c0.81,0.18,1.02,0.43,1.03,1.2l0.05,2.84
	v0.27c0,1.63-0.63,2.42-1.92,2.42c-0.92,0-2.02-0.41-2.02-2.36V16.2c0-0.85,0.15-1.16,1.03-1.3l0.08-0.01v-0.46h-3.12v0.44
	l0.07,0.02c0.65,0.19,0.75,0.36,0.75,1.31v3.22c0,2.68,1.84,3.08,2.93,3.08c1.98,0,3.08-1.23,3.08-3.46l0.05-2.88
	c0.01-0.89,0.18-1.03,0.9-1.26l0.06-0.02v-0.45h-3.03V14.88z M152.72,14.94l0.08,0.01c0.9,0.14,1.11,0.26,1.12,1.15l0.04,4.19
	l-4.29-5.83l-0.03-0.04h-1.97v0.45l0.06,0.02c0.94,0.33,1.09,0.48,1.09,1.8l-0.14,3.97c-0.04,0.89-0.19,1.08-1.03,1.21l-0.08,0.01
	v0.47h3.32v-0.46l-0.07-0.02c-0.88-0.19-1.21-0.25-1.22-1.2l-0.05-4.37l4.55,6.23l0.55-0.43l0.14-6.06c0.02-0.91,0.2-0.97,1.03-1.11
	l0.08-0.01v-0.51h-3.17V14.94z M157.13,14.89l0.08,0.01c0.82,0.14,0.98,0.34,0.98,1.2v4.52c0,0.92-0.17,1.12-1.07,1.25l-0.08,0.01
	v0.47h3.51v-0.47l-0.08-0.01c-0.9-0.13-1.08-0.33-1.08-1.25V16.1c0-0.88,0.16-1.05,1.08-1.2l0.08-0.01v-0.47h-3.41V14.89z
	 M166.06,14.88l0.07,0.01c0.68,0.15,0.79,0.33,0.79,0.68c0,0.14-0.05,0.44-0.28,1.12l-1.3,3.74l-1.59-4.46
	c-0.09-0.24-0.14-0.47-0.14-0.64c0-0.21,0.21-0.34,0.69-0.43l0.08-0.02v-0.46h-2.84v0.46l0.07,0.02c0.32,0.09,0.55,0.23,0.7,0.66
	l2.5,6.88l0.03,0.08l0.08-0.02c0.3-0.06,0.42-0.31,0.55-0.63l2.31-5.91c0.26-0.65,0.41-0.87,0.9-1.05l0.06-0.02v-0.45h-2.69V14.88z
	 M175.23,20.15c-0.56,1.16-1.11,1.53-2.27,1.53c-0.99,0-1.15-0.25-1.15-1.06v-2.02l1.05,0.04c0.86,0.04,1.02,0.11,1.16,0.93
	l0.01,0.08h0.42v-2.69h-0.42l-0.01,0.08c-0.14,0.73-0.3,0.85-1.16,0.88l-1.05,0.04v-2.97l1.39,0.09c0.79,0.05,1.26,0.43,1.6,1.33
	l0.03,0.09l0.4-0.16l-0.21-1.94h-5.28v0.46l0.07,0.02c0.64,0.12,0.79,0.39,0.79,1.4v4.33c0,0.92-0.16,1.12-1.03,1.25l-0.08,0.01
	v0.47h5.65l0.52-2.13l-0.4-0.16L175.23,20.15z M181.22,16.73c0-1.09-0.83-1.75-2.21-1.78v3.31c0.23,0.1,0.54,0.16,0.87,0.16
	c0.23,0,0.41,0,0.63-0.04C180.98,17.93,181.22,17.38,181.22,16.73 M182.5,20.91c0.66,0.93,1.17,1.55,2.19,1.64l0.09,0.01v0.34
	l-0.05,0.02c-0.2,0.1-0.46,0.15-0.76,0.15c-0.96,0-1.65-0.27-2.58-1.72l-1.48-2.31c-0.26,0.04-0.45,0.04-0.51,0.04
	c-0.11,0-0.23-0.01-0.39-0.03v1.57c0,0.95,0.15,1.11,1.12,1.25l0.08,0.01v0.47h-3.56v-0.47l0.08-0.01c0.9-0.14,1.07-0.33,1.07-1.25
	V16.2c0-0.93-0.12-1.13-0.85-1.4l-0.06-0.02v-0.46l1.77,0.1c0.5-0.1,0.79-0.15,1.4-0.15c1.36,0,2.31,0.81,2.31,1.97
	c0,0.97-0.46,1.74-1.45,2.43L182.5,20.91 M188.18,17.99l-1.06-0.63c-0.69-0.4-1.11-0.68-1.11-1.41c0-0.61,0.43-1.01,1.11-1.01
	c0.93,0,1.47,0.47,1.98,1.72l0.04,0.1l0.39-0.23l-0.21-1.9l-0.05-0.02c-0.57-0.22-1.25-0.35-1.86-0.35c-1.45,0-2.45,0.85-2.45,2.07
	c0,1.2,0.89,1.75,1.54,2.15l1.1,0.67c0.69,0.42,0.97,0.84,0.97,1.46c0,0.29-0.1,1.25-1.35,1.25c-0.8,0-1.49-0.71-2.03-2.1
	l-0.04-0.11l-0.39,0.23l0.2,2.08l0.05,0.02c0.62,0.31,1.39,0.49,2.11,0.49c1.53,0,2.6-0.91,2.6-2.21
	C189.72,19.07,188.89,18.42,188.18,17.99 M191.02,14.89l0.08,0.01c0.82,0.14,0.98,0.34,0.98,1.2v4.52c0,0.92-0.17,1.12-1.07,1.25
	l-0.08,0.01v0.47h3.51v-0.47l-0.08-0.01c-0.9-0.13-1.08-0.33-1.08-1.25V16.1c0-0.88,0.16-1.05,1.08-1.2l0.08-0.01v-0.47h-3.41V14.89
	z M202.05,14.28c-0.95,0.19-1.48,0.19-3.06,0.19c-1.62,0-2.11,0-3.06-0.19l-0.1-0.02l-0.31,2.05l0.39,0.16l0.04-0.07
	c0.55-0.96,0.99-1.3,1.7-1.3h0.72v5.53c0,0.82-0.26,1.07-1.32,1.25l-0.08,0.01v0.47h3.99v-0.47l-0.08-0.01
	c-1.13-0.18-1.31-0.46-1.31-1.25v-5.53h0.72c0.82,0,1.29,0.35,1.74,1.29l0.05,0.09l0.39-0.23l-0.32-1.99L202.05,14.28z
	 M207.76,14.42v0.46l0.08,0.01c0.53,0.1,0.64,0.18,0.64,0.48c0,0.24-0.22,0.7-0.47,1.16l-0.98,1.82l-1.5-2.73l-0.03-0.05
	c-0.07-0.11-0.15-0.26-0.15-0.34c0-0.18,0.09-0.28,0.54-0.33l0.09-0.01v-0.47h-2.55v0.46l0.07,0.02c0.34,0.09,0.51,0.29,0.85,0.92
	l1.54,2.74c0.22,0.4,0.32,0.77,0.32,1.2v0.91c0,0.76-0.28,1.01-1.36,1.21l-0.08,0.01v0.46h4.13v-0.47l-0.09-0.01
	c-1.09-0.14-1.41-0.41-1.41-1.2v-0.91c0-0.62,0.03-0.83,0.28-1.25l1.39-2.45c0.5-0.85,0.71-1.07,1.14-1.16l0.07-0.01v-0.46H207.76z"
	/>
<path fill="#FFFFFF" d="M54.36,16.65v-9.2h-9.52c-3.18-4.66-8.4-7.43-14.05-7.43c-5.65,0-10.87,2.77-14.04,7.43H7.22v9.2
	c-4.5,3.18-7.17,8.34-7.17,13.87c0,5.54,2.67,10.7,7.17,13.88v9.44h9.52c3.18,4.66,8.39,7.43,14.04,7.43
	c5.65,0,10.87-2.77,14.05-7.43h9.52v-9.44c4.5-3.18,7.18-8.34,7.18-13.88C61.53,24.98,58.86,19.83,54.36,16.65"/>
<path fill="#2D2926" d="M52.78,43.55v8.7h-8.8c-2.79,4.59-7.81,7.43-13.18,7.43s-10.4-2.84-13.19-7.43h-8.8v-8.7
	c-4.5-2.85-7.18-7.69-7.18-13.03c0-5.34,2.68-10.18,7.18-13.03V9.02h8.8c2.79-4.59,7.81-7.43,13.19-7.43s10.4,2.84,13.18,7.43h8.8
	v8.47c4.5,2.84,7.18,7.69,7.18,13.03C59.95,35.86,57.28,40.7,52.78,43.55 M53.57,17.06V8.23h-9.15c-2.97-4.6-8.12-7.43-13.62-7.43
	c-5.5,0-10.65,2.83-13.62,7.43H8.02v8.83c-4.51,3.02-7.18,7.99-7.18,13.46c0,5.47,2.67,10.44,7.18,13.46v9.06h9.15
	c2.97,4.6,8.12,7.43,13.62,7.43c5.5,0,10.65-2.83,13.62-7.43h9.15v-9.06c4.51-3.02,7.18-7.99,7.18-13.46
	C60.74,25.06,58.08,20.08,53.57,17.06 M9.4,51.66h8.55c2.56,4.44,7.35,7.43,12.85,7.43s10.29-2.99,12.85-7.43h8.55v-3.28H9.4V51.66z
	 M52.18,17.82v-8.2h-8.55c-2.47-4.28-7-7.21-12.24-7.42l0.24,4.27c0.07,0.12,0.11,0.25,0.12,0.38c0.42,0.22,0.75,0.58,0.92,1.02
	h0.56v2.75h-0.12V12h0.12v0.56c7.41,1.1,13.2,7.03,14.12,14.52l0.04,0.13c0.05-0.01,0.1-0.01,0.16-0.01c0.9,0,1.61,0.9,1.77,2.17
	l2.21,0v1.16l-0.4,0.53v1.18h0.4v1.15l-0.4,0.53v0.32h0.4v1.16l-0.4,0.53v1.51h0.4v1.16l-0.37,0.49l-0.02,8.67h1.04v-4.56
	c4.3-2.59,7.18-7.31,7.18-12.7C59.36,25.13,56.48,20.42,52.18,17.82 M9.4,47.78h1.01l0.01-8.66l-0.39-0.5v-1.17h0.38v-1.54
	l-0.38-0.51v-1.16l0.38,0V33.9l-0.38-0.51v-1.15h0.38v-1.21l-0.38-0.51v-1.16l2.06,0c0.16-1.27,0.87-2.17,1.77-2.17
	c0.13,0,0.26,0.02,0.37,0.06l-0.01-0.05l0.01-0.07c0.45-3.69,2.15-7.18,4.79-9.84c2.5-2.51,5.76-4.17,9.23-4.72V12h0.13v-1.39h-0.13
	V7.87h0.63c0.17-0.43,0.5-0.8,0.92-1.02c0.01-0.14,0.05-0.27,0.12-0.39l0.23-4.26c-5.23,0.22-9.76,3.15-12.23,7.42H9.4v8.21
	c-4.3,2.59-7.18,7.31-7.18,12.7c0,5.39,2.88,10.1,7.18,12.7V47.78z M18.76,26.57h-1.52v-0.25h0.55v-0.36h0.67v0.36h0.3V26.57z
	 M17.79,28.49v-1.5h0.67v0.67C18.46,27.66,18.5,28.28,17.79,28.49 M18.45,23.95v1.23c0,0-0.02,0.17-0.21,0.19h-0.78L18.45,23.95z
	 M27.09,13.41c-6.47,1.57-11.45,7.04-12.26,13.79h0.73c0.71,0,1.33,0.12,1.8,0.42v0.87h-0.39v0.89h2.62
	C20.44,21.88,23.32,15.83,27.09,13.41 M30.88,10.02h0.22v1.72l0.25-0.27v-1.45h0.24v1.18l0.25-0.27v-0.91h0.24v2.58l-1.2,0V10.02z
	 M31.31,7.77c0.25,0.15,0.42,0.4,0.45,0.69h-0.87C30.93,8.02,31.16,7.84,31.31,7.77 M32.08,9.5H30.9V9.1h1.18V9.5z M30.11,24.93
	l-0.3,0.43h-0.34V14.25c0.03-0.33,0.3-0.59,0.64-0.59v0V24.93z M29.36,8.46H28.8v0.52h0.18V9.5H28.8v0.52h0.18v2.58H28.8v0.49
	c-0.01,0-0.02,0.01-0.04,0.01c-4.12,1.59-7.39,8.03-8.31,16.28h0.92c0.26-1.38,1.51-2.43,3.01-2.43c0.02,0,0.04,0,0.06,0v0h1.38
	c1.41,0,2.55,1.07,2.62,2.42h3.61v-0.88l-0.69,0c-0.48,0-0.58-0.31-0.59-0.48v-1.02h0.7l0.32-0.42l-1.98,0v-0.25h0.96v-0.55h0.6
	l0.38-0.4h-0.76c-0.13,0-0.22-0.08-0.22-0.15v-1.28l0,0v-0.28l0.53,0.76V13.7c0.29,0.02,0.58,0.04,0.87,0.08
	c4.3,1.08,7.79,7.14,8.84,15.08l-1.14,0c0.07,0.17,0.12,0.35,0.15,0.53h4.27V28.5h-0.67c-0.49,0-0.58-0.28-0.6-0.42v-1.09h0.56
	l0.29-0.43h-1.71v-0.25h0.86v-0.55h0.56l0.44-0.4h-0.79c-0.2-0.02-0.21-0.19-0.21-0.19h0v-1.25l-0.98,1.44l0.44,0.39v0.19h-0.68
	v1.04h0.32v1.51h-0.3c-0.98-6.79-3.86-12.21-7.55-14.34c6.92,1.72,11.18,7.75,11.81,13.3c0.16-0.01,0.32-0.02,0.48-0.02h0.24
	c-0.84-7.48-6.6-13.4-13.87-14.33c0,0-0.11-0.02-0.25-0.03V12.6h-0.16v-2.58h0.16V9.5h-0.16V8.98h0.16V8.46h-0.47
	c-0.04-0.58-0.47-1.06-1.04-1.21V6.94c0-0.11-0.05-0.2-0.12-0.27l-0.27-4.48l-0.26,4.48c-0.07,0.07-0.12,0.17-0.12,0.27v0.31
	C29.83,7.4,29.4,7.88,29.36,8.46 M46.43,37.06h1.32l1.16,0.59v-7.7c0-1.19-0.55-2.15-1.24-2.15c-0.56,0-1.04,0.65-1.19,1.55
	c-0.01,0.04-0.05,0.3-0.05,0.6v0.11L46.43,37.06z M14.98,37.06l0-7v-0.11c0-0.25-0.03-0.51-0.05-0.6c-0.15-0.9-0.62-1.55-1.19-1.55
	c-0.68,0-1.24,0.96-1.24,2.15v7.7l1.16-0.59H14.98z M26.24,37.05v0.93h0.42v-8.09c0-1.19-0.98-2.15-2.2-2.15
	c-1.21,0-2.19,0.96-2.19,2.15v7.75l1.21-0.59H26.24z M38,37.05l1.21,0.59v-7.75c0-1.19-0.98-2.15-2.2-2.15
	c-1.21,0-2.2,0.96-2.2,2.15v8.09h0.42v-0.93H38z M10.63,33.2l0.39,0.51v0.62h1.03v-1.5l-1.43,0V33.2z M10.63,35.22l0.39,0.51v1.82
	h1.03v-2.7l-1.43,0V35.22z M12.06,32.35v-2.4l-1.43,0v0.37l0.39,0.51v1.51H12.06z M49.37,37.55h1.14v-1.8l0.41-0.53v-0.37
	l-1.56-0.01V37.55z M49.37,34.34h1.14v-0.61l0.41-0.53v-0.36h-1.56V34.34z M50.93,30.33v-0.37l-1.56,0v2.39h1.14v-1.48L50.93,30.33z
	 M49.37,38.87H12.06v-0.82h-1.43v0.37l0.36,0.47v1.05h38.09v7.84h1.47v-8.87l0.38-0.49v-0.37l-1.56,0V38.87z M31.4,40.64h-1.29v7.14
	h1.29V40.64z M45.75,40.65h-0.99v7.13h0.99V40.65z M29.48,40.65H16.96v7.13h12.52V40.65z M16.27,40.65h-5.28v7.13h5.28V40.65z
	 M15.67,37.96h0.6v-8.02h-0.6V37.96z M20.07,32.02H18.9v-1.37h1.17V32.02z M21.34,29.95h-4.38v8.02h4.38v-3.14h-1.27v2.8H18.9v-2.8
	h-0.82l-0.28-0.5h3.54v-1.5h-1.27v1.17H18.9v-1.17h-0.82l-0.28-0.5h3.54V29.95z M33.56,32.84H33v1.17h-2.26v-1.17h-2.1l-0.28-0.5
	h5.19V32.84z M33.55,34.83H33v2.8h-2.26v-2.8h-2.1l-0.28-0.49h5.18V34.83z M30.75,30.69H33v1.32h-2.26V30.69z M27.46,29.96v8.01
	l6.51-0.01v-7.99L27.46,29.96z M44.76,32.02h-2.08v-1.38h2.08V32.02z M41.53,34.83v3.13l4.22,0v-8h-4.79v0.68h0.57v1.7h3.81
	l-0.28,0.5h-0.3v1.17h-2.08v-1.17h-1.16v1.5h3.81l-0.28,0.5h-0.3v2.8h-2.08v-2.8H41.53z"/>
</svg>
